<?xml version="1.0"?>
<!-- Created by MetaPost 2.00 on 2022.03.02:1201 -->
<svg version="1.1" xmlns="http://www.w3.org/2000/svg" xmlns:xlink="http://www.w3.org/1999/xlink" width="1778.469849" height="1617.191452" viewBox="0 0 1778.469849 1617.191452">
<!-- Original BoundingBox: -881.579102 -811.314194 896.890747 805.877258 -->
  <path d="M1731.393524 805.000000L1306.196762 68.535538L455.803238 68.535538L30.606476 805.000000L455.803238 1541.464462L1306.196762 1541.464462L1731.393524 805.000000Z" style="fill: rgb(100.000000%,100.000000%,100.000000%);stroke: none;"></path>
  <path d="M1731.393524 805.000000L1306.196762 68.535538" style="stroke:rgb(0.000000%,0.000000%,0.000000%); stroke-width: 2.500000;stroke-linecap: round;stroke-linejoin: round;stroke-miterlimit: 10.000000;fill: none;"></path>
  <path d="M1306.196762 68.535538L455.803238 68.535538" style="stroke:rgb(0.000000%,0.000000%,0.000000%); stroke-width: 2.500000;stroke-linecap: round;stroke-linejoin: round;stroke-miterlimit: 10.000000;fill: none;"></path>
  <path d="M455.803238 68.535538L30.606476 805.000000" style="stroke:rgb(0.000000%,0.000000%,0.000000%); stroke-width: 2.500000;stroke-linecap: round;stroke-linejoin: round;stroke-miterlimit: 10.000000;fill: none;"></path>
  <path d="M30.606476 805.000000L455.803238 1541.464462" style="stroke:rgb(0.000000%,0.000000%,0.000000%); stroke-width: 2.500000;stroke-linecap: round;stroke-linejoin: round;stroke-miterlimit: 10.000000;fill: none;"></path>
  <path d="M455.803238 1541.464462L1306.196762 1541.464462" style="stroke:rgb(0.000000%,0.000000%,0.000000%); stroke-width: 2.500000;stroke-linecap: round;stroke-linejoin: round;stroke-miterlimit: 10.000000;fill: none;"></path>
  <path d="M1306.196762 1541.464462L1731.393524 805.000000" style="stroke:rgb(0.000000%,0.000000%,0.000000%); stroke-width: 2.500000;stroke-linecap: round;stroke-linejoin: round;stroke-miterlimit: 10.000000;fill: none;"></path>
  <path d="M1390.761200 1466.009171C1390.761200 1428.027725,1375.670883 1391.606430,1348.815979 1364.751526C1321.961075 1337.896622,1285.539780 1322.806305,1247.558334 1322.806305C1209.576889 1322.806305,1173.155594 1337.896622,1146.300690 1364.751526C1119.445786 1391.606430,1104.355469 1428.027725,1104.355469 1466.009171C1104.355469 1503.990616,1119.445786 1540.411911,1146.300690 1567.266815C1173.155594 1594.121719,1209.576889 1609.212036,1247.558334 1609.212036C1285.539780 1609.212036,1321.961075 1594.121719,1348.815979 1567.266815C1375.670883 1540.411911,1390.761200 1503.990616,1390.761200 1466.009171Z" style="stroke:rgb(25.500488%,41.000366%,88.400269%); stroke-width: 2.500000;stroke-linecap: round;stroke-linejoin: round;stroke-miterlimit: 10.000000;fill: none;"></path>
  <path d="M1528.072968 1269.591827C1528.072968 1231.610382,1512.982651 1195.189087,1486.127747 1168.334183C1459.272842 1141.479279,1422.851547 1126.388962,1384.870102 1126.388962C1346.888657 1126.388962,1310.467361 1141.479279,1283.612457 1168.334183C1256.757553 1195.189087,1241.667236 1231.610382,1241.667236 1269.591827C1241.667236 1307.573273,1256.757553 1343.994568,1283.612457 1370.849472C1310.467361 1397.704376,1346.888657 1412.794693,1384.870102 1412.794693C1422.851547 1412.794693,1459.272842 1397.704376,1486.127747 1370.849472C1512.982651 1343.994568,1528.072968 1307.573273,1528.072968 1269.591827Z" style="stroke:rgb(25.500488%,41.000366%,88.400269%); stroke-width: 2.500000;stroke-linecap: round;stroke-linejoin: round;stroke-miterlimit: 10.000000;fill: none;"></path>
  <path d="M1656.262634 1051.193176C1656.262634 1013.211731,1641.172318 976.790436,1614.317413 949.935532C1587.462509 923.080627,1551.041214 907.990311,1513.059769 907.990311C1475.078323 907.990311,1438.657028 923.080627,1411.802124 949.935532C1384.947220 976.790436,1369.856903 1013.211731,1369.856903 1051.193176C1369.856903 1089.174622,1384.947220 1125.595917,1411.802124 1152.450821C1438.657028 1179.305725,1475.078323 1194.396042,1513.059769 1194.396042C1551.041214 1194.396042,1587.462509 1179.305725,1614.317413 1152.450821C1641.172318 1125.595917,1656.262634 1089.174622,1656.262634 1051.193176Z" style="stroke:rgb(25.500488%,41.000366%,88.400269%); stroke-width: 2.500000;stroke-linecap: round;stroke-linejoin: round;stroke-miterlimit: 10.000000;fill: none;"></path>
  <path d="M1776.640747 830.887070C1776.640747 792.905624,1761.550430 756.484329,1734.695526 729.629425C1707.840622 702.774521,1671.419327 687.684204,1633.437881 687.684204C1595.456436 687.684204,1559.035141 702.774521,1532.180237 729.629425C1505.325333 756.484329,1490.235016 792.905624,1490.235016 830.887070C1490.235016 868.868515,1505.325333 905.289810,1532.180237 932.144714C1559.035141 958.999619,1595.456436 974.089935,1633.437881 974.089935C1671.419327 974.089935,1707.840622 958.999619,1734.695526 932.144714C1761.550430 905.289810,1776.640747 868.868515,1776.640747 830.887070Z" style="stroke:rgb(25.500488%,41.000366%,88.400269%); stroke-width: 2.500000;stroke-linecap: round;stroke-linejoin: round;stroke-miterlimit: 10.000000;fill: none;"></path>
  <path d="M1143.880280 1471.861328C1143.880280 1433.879883,1128.789963 1397.458588,1101.935059 1370.603683C1075.080154 1343.748779,1038.658859 1328.658463,1000.677414 1328.658463C962.695969 1328.658463,926.274673 1343.748779,899.419769 1370.603683C872.564865 1397.458588,857.474548 1433.879883,857.474548 1471.861328C857.474548 1509.842773,872.564865 1546.264069,899.419769 1573.118973C926.274673 1599.973877,962.695969 1615.064194,1000.677414 1615.064194C1038.658859 1615.064194,1075.080154 1599.973877,1101.935059 1573.118973C1128.789963 1546.264069,1143.880280 1509.842773,1143.880280 1471.861328Z" style="stroke:rgb(25.500488%,41.000366%,88.400269%); stroke-width: 2.500000;stroke-linecap: round;stroke-linejoin: round;stroke-miterlimit: 10.000000;fill: none;"></path>
  <path d="M1269.980820 1253.281021C1269.980820 1215.299576,1254.890503 1178.878281,1228.035599 1152.023376C1201.180695 1125.168472,1164.759399 1110.078156,1126.777954 1110.078156C1088.796509 1110.078156,1052.375214 1125.168472,1025.520309 1152.023376C998.665405 1178.878281,983.575089 1215.299576,983.575089 1253.281021C983.575089 1291.262466,998.665405 1327.683762,1025.520309 1354.538666C1052.375214 1381.393570,1088.796509 1396.483887,1126.777954 1396.483887C1164.759399 1396.483887,1201.180695 1381.393570,1228.035599 1354.538666C1254.890503 1327.683762,1269.980820 1291.262466,1269.980820 1253.281021Z" style="stroke:rgb(25.500488%,41.000366%,88.400269%); stroke-width: 2.500000;stroke-linecap: round;stroke-linejoin: round;stroke-miterlimit: 10.000000;fill: none;"></path>
  <path d="M1409.303864 1056.941544C1409.303864 1018.960098,1394.213547 982.538803,1367.358643 955.683899C1340.503738 928.828995,1304.082443 913.738678,1266.100998 913.738678C1228.119553 913.738678,1191.698257 928.828995,1164.843353 955.683899C1137.988449 982.538803,1122.898132 1018.960098,1122.898132 1056.941544C1122.898132 1094.922989,1137.988449 1131.344284,1164.843353 1158.199188C1191.698257 1185.054092,1228.119553 1200.144409,1266.100998 1200.144409C1304.082443 1200.144409,1340.503738 1185.054092,1367.358643 1158.199188C1394.213547 1131.344284,1409.303864 1094.922989,1409.303864 1056.941544Z" style="stroke:rgb(25.500488%,41.000366%,88.400269%); stroke-width: 2.500000;stroke-linecap: round;stroke-linejoin: round;stroke-miterlimit: 10.000000;fill: none;"></path>
  <path d="M1532.134445 838.400162C1532.134445 800.418716,1517.044128 763.997421,1490.189224 737.142517C1463.334320 710.287613,1426.913025 695.197296,1388.931580 695.197296C1350.950134 695.197296,1314.528839 710.287613,1287.673935 737.142517C1260.819031 763.997421,1245.728714 800.418716,1245.728714 838.400162C1245.728714 876.381607,1260.819031 912.802902,1287.673935 939.657806C1314.528839 966.512711,1350.950134 981.603027,1388.931580 981.603027C1426.913025 981.603027,1463.334320 966.512711,1490.189224 939.657806C1517.044128 912.802902,1532.134445 876.381607,1532.134445 838.400162Z" style="stroke:rgb(25.500488%,41.000366%,88.400269%); stroke-width: 2.500000;stroke-linecap: round;stroke-linejoin: round;stroke-miterlimit: 10.000000;fill: none;"></path>
  <path d="M1684.446442 620.689240C1684.446442 582.707794,1669.356125 546.286499,1642.501221 519.431595C1615.646317 492.576691,1579.225021 477.486374,1541.243576 477.486374C1503.262131 477.486374,1466.840836 492.576691,1439.985931 519.431595C1413.131027 546.286499,1398.040710 582.707794,1398.040710 620.689240C1398.040710 658.670685,1413.131027 695.091980,1439.985931 721.946884C1466.840836 748.801788,1503.262131 763.892105,1541.243576 763.892105C1579.225021 763.892105,1615.646317 748.801788,1642.501221 721.946884C1669.356125 695.091980,1684.446442 658.670685,1684.446442 620.689240Z" style="stroke:rgb(25.500488%,41.000366%,88.400269%); stroke-width: 2.500000;stroke-linecap: round;stroke-linejoin: round;stroke-miterlimit: 10.000000;fill: none;"></path>
  <path d="M893.651581 1471.692642C893.651581 1433.711197,878.561264 1397.289902,851.706360 1370.434998C824.851456 1343.580093,788.430161 1328.489777,750.448715 1328.489777C712.467270 1328.489777,676.045975 1343.580093,649.191071 1370.434998C622.336166 1397.289902,607.245850 1433.711197,607.245850 1471.692642C607.245850 1509.674088,622.336166 1546.095383,649.191071 1572.950287C676.045975 1599.805191,712.467270 1614.895508,750.448715 1614.895508C788.430161 1614.895508,824.851456 1599.805191,851.706360 1572.950287C878.561264 1546.095383,893.651581 1509.674088,893.651581 1471.692642Z" style="stroke:rgb(25.500488%,41.000366%,88.400269%); stroke-width: 2.500000;stroke-linecap: round;stroke-linejoin: round;stroke-miterlimit: 10.000000;fill: none;"></path>
  <path d="M1023.190735 1258.938553C1023.190735 1220.957108,1008.100418 1184.535812,981.245514 1157.680908C954.390610 1130.826004,917.969315 1115.735687,879.987869 1115.735687C842.006424 1115.735687,805.585129 1130.826004,778.730225 1157.680908C751.875320 1184.535812,736.785004 1220.957108,736.785004 1258.938553C736.785004 1296.919998,751.875320 1333.341293,778.730225 1360.196198C805.585129 1387.051102,842.006424 1402.141418,879.987869 1402.141418C917.969315 1402.141418,954.390610 1387.051102,981.245514 1360.196198C1008.100418 1333.341293,1023.190735 1296.919998,1023.190735 1258.938553Z" style="stroke:rgb(25.500488%,41.000366%,88.400269%); stroke-width: 2.500000;stroke-linecap: round;stroke-linejoin: round;stroke-miterlimit: 10.000000;fill: none;"></path>
  <path d="M1151.315521 1040.436096C1151.315521 1002.454651,1136.225204 966.033356,1109.370300 939.178452C1082.515396 912.323547,1046.094101 897.233231,1008.112656 897.233231C970.131210 897.233231,933.709915 912.323547,906.855011 939.178452C880.000107 966.033356,864.909790 1002.454651,864.909790 1040.436096C864.909790 1078.417542,880.000107 1114.838837,906.855011 1141.693741C933.709915 1168.548645,970.131210 1183.638962,1008.112656 1183.638962C1046.094101 1183.638962,1082.515396 1168.548645,1109.370300 1141.693741C1136.225204 1114.838837,1151.315521 1078.417542,1151.315521 1040.436096Z" style="stroke:rgb(25.500488%,41.000366%,88.400269%); stroke-width: 2.500000;stroke-linecap: round;stroke-linejoin: round;stroke-miterlimit: 10.000000;fill: none;"></path>
  <path d="M1289.769180 844.044708C1289.769180 806.063263,1274.678864 769.641968,1247.823959 742.787064C1220.969055 715.932159,1184.547760 700.841843,1146.566315 700.841843C1108.584869 700.841843,1072.163574 715.932159,1045.308670 742.787064C1018.453766 769.641968,1003.363449 806.063263,1003.363449 844.044708C1003.363449 882.026154,1018.453766 918.447449,1045.308670 945.302353C1072.163574 972.157257,1108.584869 987.247574,1146.566315 987.247574C1184.547760 987.247574,1220.969055 972.157257,1247.823959 945.302353C1274.678864 918.447449,1289.769180 882.026154,1289.769180 844.044708Z" style="stroke:rgb(25.500488%,41.000366%,88.400269%); stroke-width: 2.500000;stroke-linecap: round;stroke-linejoin: round;stroke-miterlimit: 10.000000;fill: none;"></path>
  <path d="M1443.923767 626.048325C1443.923767 588.066879,1428.833450 551.645584,1401.978546 524.790680C1375.123642 497.935776,1338.702347 482.845459,1300.720901 482.845459C1262.739456 482.845459,1226.318161 497.935776,1199.463257 524.790680C1172.608353 551.645584,1157.518036 588.066879,1157.518036 626.048325C1157.518036 664.029770,1172.608353 700.451065,1199.463257 727.305969C1226.318161 754.160873,1262.739456 769.251190,1300.720901 769.251190C1338.702347 769.251190,1375.123642 754.160873,1401.978546 727.305969C1428.833450 700.451065,1443.923767 664.029770,1443.923767 626.048325Z" style="stroke:rgb(25.500488%,41.000366%,88.400269%); stroke-width: 2.500000;stroke-linecap: round;stroke-linejoin: round;stroke-miterlimit: 10.000000;fill: none;"></path>
  <path d="M1563.523331 402.459290C1563.523331 364.477844,1548.433014 328.056549,1521.578110 301.201645C1494.723206 274.346741,1458.301910 259.256424,1420.320465 259.256424C1382.339020 259.256424,1345.917725 274.346741,1319.062820 301.201645C1292.207916 328.056549,1277.117599 364.477844,1277.117599 402.459290C1277.117599 440.440735,1292.207916 476.862030,1319.062820 503.716934C1345.917725 530.571838,1382.339020 545.662155,1420.320465 545.662155C1458.301910 545.662155,1494.723206 530.571838,1521.578110 503.716934C1548.433014 476.862030,1563.523331 440.440735,1563.523331 402.459290Z" style="stroke:rgb(25.500488%,41.000366%,88.400269%); stroke-width: 2.500000;stroke-linecap: round;stroke-linejoin: round;stroke-miterlimit: 10.000000;fill: none;"></path>
  <path d="M648.794922 1462.972778C648.794922 1424.991333,633.704605 1388.570038,606.849701 1361.715134C579.994797 1334.860229,543.573502 1319.769913,505.592056 1319.769913C467.610611 1319.769913,431.189316 1334.860229,404.334412 1361.715134C377.479507 1388.570038,362.389191 1424.991333,362.389191 1462.972778C362.389191 1500.954224,377.479507 1537.375519,404.334412 1564.230423C431.189316 1591.085327,467.610611 1606.175644,505.592056 1606.175644C543.573502 1606.175644,579.994797 1591.085327,606.849701 1564.230423C633.704605 1537.375519,648.794922 1500.954224,648.794922 1462.972778Z" style="stroke:rgb(25.500488%,41.000366%,88.400269%); stroke-width: 2.500000;stroke-linecap: round;stroke-linejoin: round;stroke-miterlimit: 10.000000;fill: none;"></path>
  <path d="M778.256226 1250.088928C778.256226 1212.107483,763.165909 1175.686188,736.311005 1148.831284C709.456100 1121.976379,673.034805 1106.886063,635.053360 1106.886063C597.071915 1106.886063,560.650620 1121.976379,533.795715 1148.831284C506.940811 1175.686188,491.850494 1212.107483,491.850494 1250.088928C491.850494 1288.070374,506.940811 1324.491669,533.795715 1351.346573C560.650620 1378.201477,597.071915 1393.291794,635.053360 1393.291794C673.034805 1393.291794,709.456100 1378.201477,736.311005 1351.346573C763.165909 1324.491669,778.256226 1288.070374,778.256226 1250.088928Z" style="stroke:rgb(25.500488%,41.000366%,88.400269%); stroke-width: 2.500000;stroke-linecap: round;stroke-linejoin: round;stroke-miterlimit: 10.000000;fill: none;"></path>
  <path d="M909.780716 1037.399719C909.780716 999.418274,894.690399 962.996979,867.835495 936.142075C840.980591 909.287170,804.559296 894.196854,766.577850 894.196854C728.596405 894.196854,692.175110 909.287170,665.320206 936.142075C638.465302 962.996979,623.374985 999.418274,623.374985 1037.399719C623.374985 1075.381165,638.465302 1111.802460,665.320206 1138.657364C692.175110 1165.512268,728.596405 1180.602585,766.577850 1180.602585C804.559296 1180.602585,840.980591 1165.512268,867.835495 1138.657364C894.690399 1111.802460,909.780716 1075.381165,909.780716 1037.399719Z" style="stroke:rgb(25.500488%,41.000366%,88.400269%); stroke-width: 2.500000;stroke-linecap: round;stroke-linejoin: round;stroke-miterlimit: 10.000000;fill: none;"></path>
  <path d="M1037.049088 818.871323C1037.049088 780.889877,1021.958771 744.468582,995.103867 717.613678C968.248962 690.758774,931.827667 675.668457,893.846222 675.668457C855.864777 675.668457,819.443481 690.758774,792.588577 717.613678C765.733673 744.468582,750.643356 780.889877,750.643356 818.871323C750.643356 856.852768,765.733673 893.274063,792.588577 920.128967C819.443481 946.983871,855.864777 962.074188,893.846222 962.074188C931.827667 962.074188,968.248962 946.983871,995.103867 920.128967C1021.958771 893.274063,1037.049088 856.852768,1037.049088 818.871323Z" style="stroke:rgb(25.500488%,41.000366%,88.400269%); stroke-width: 2.500000;stroke-linecap: round;stroke-linejoin: round;stroke-miterlimit: 10.000000;fill: none;"></path>
  <path d="M1204.724640 626.645218C1204.724640 588.663773,1189.634323 552.242477,1162.779419 525.387573C1135.924515 498.532669,1099.503220 483.442352,1061.521774 483.442352C1023.540329 483.442352,987.119034 498.532669,960.264130 525.387573C933.409225 552.242477,918.318909 588.663773,918.318909 626.645218C918.318909 664.626663,933.409225 701.047958,960.264130 727.902863C987.119034 754.757767,1023.540329 769.848083,1061.521774 769.848083C1099.503220 769.848083,1135.924515 754.757767,1162.779419 727.902863C1189.634323 701.047958,1204.724640 664.626663,1204.724640 626.645218Z" style="stroke:rgb(25.500488%,41.000366%,88.400269%); stroke-width: 2.500000;stroke-linecap: round;stroke-linejoin: round;stroke-miterlimit: 10.000000;fill: none;"></path>
  <path d="M1329.436737 404.470566C1329.436737 366.489120,1314.346420 330.067825,1287.491516 303.212921C1260.636612 276.358017,1224.215317 261.267700,1186.233871 261.267700C1148.252426 261.267700,1111.831131 276.358017,1084.976227 303.212921C1058.121323 330.067825,1043.031006 366.489120,1043.031006 404.470566C1043.031006 442.452011,1058.121323 478.873306,1084.976227 505.728210C1111.831131 532.583115,1148.252426 547.673431,1186.233871 547.673431C1224.215317 547.673431,1260.636612 532.583115,1287.491516 505.728210C1314.346420 478.873306,1329.436737 442.452011,1329.436737 404.470566Z" style="stroke:rgb(25.500488%,41.000366%,88.400269%); stroke-width: 2.500000;stroke-linecap: round;stroke-linejoin: round;stroke-miterlimit: 10.000000;fill: none;"></path>
  <path d="M1441.769760 177.819199C1441.769760 139.837753,1426.679443 103.416458,1399.824539 76.561554C1372.969635 49.706650,1336.548340 34.616333,1298.566895 34.616333C1260.585449 34.616333,1224.164154 49.706650,1197.309250 76.561554C1170.454346 103.416458,1155.364029 139.837753,1155.364029 177.819199C1155.364029 215.800644,1170.454346 252.221939,1197.309250 279.076843C1224.164154 305.931747,1260.585449 321.022064,1298.566895 321.022064C1336.548340 321.022064,1372.969635 305.931747,1399.824539 279.076843C1426.679443 252.221939,1441.769760 215.800644,1441.769760 177.819199Z" style="stroke:rgb(25.500488%,41.000366%,88.400269%); stroke-width: 2.500000;stroke-linecap: round;stroke-linejoin: round;stroke-miterlimit: 10.000000;fill: none;"></path>
  <path d="M526.587189 1259.665207C526.587189 1221.683762,511.496872 1185.262466,484.641968 1158.407562C457.787064 1131.552658,421.365768 1116.462341,383.384323 1116.462341C345.402878 1116.462341,308.981583 1131.552658,282.126678 1158.407562C255.271774 1185.262466,240.181458 1221.683762,240.181458 1259.665207C240.181458 1297.646652,255.271774 1334.067947,282.126678 1360.922852C308.981583 1387.777756,345.402878 1402.868073,383.384323 1402.868073C421.365768 1402.868073,457.787064 1387.777756,484.641968 1360.922852C511.496872 1334.067947,526.587189 1297.646652,526.587189 1259.665207Z" style="stroke:rgb(25.500488%,41.000366%,88.400269%); stroke-width: 2.500000;stroke-linecap: round;stroke-linejoin: round;stroke-miterlimit: 10.000000;fill: none;"></path>
  <path d="M659.746643 1043.848785C659.746643 1005.867340,644.656326 969.446045,617.801422 942.591141C590.946518 915.736237,554.525223 900.645920,516.543777 900.645920C478.562332 900.645920,442.141037 915.736237,415.286133 942.591141C388.431229 969.446045,373.340912 1005.867340,373.340912 1043.848785C373.340912 1081.830231,388.431229 1118.251526,415.286133 1145.106430C442.141037 1171.961334,478.562332 1187.051651,516.543777 1187.051651C554.525223 1187.051651,590.946518 1171.961334,617.801422 1145.106430C644.656326 1118.251526,659.746643 1081.830231,659.746643 1043.848785Z" style="stroke:rgb(25.500488%,41.000366%,88.400269%); stroke-width: 2.500000;stroke-linecap: round;stroke-linejoin: round;stroke-miterlimit: 10.000000;fill: none;"></path>
  <path d="M789.908661 827.824738C789.908661 789.843292,774.818344 753.421997,747.963440 726.567093C721.108536 699.712189,684.687241 684.621872,646.705795 684.621872C608.724350 684.621872,572.303055 699.712189,545.448151 726.567093C518.593246 753.421997,503.502930 789.843292,503.502930 827.824738C503.502930 865.806183,518.593246 902.227478,545.448151 929.082382C572.303055 955.937286,608.724350 971.027603,646.705795 971.027603C684.687241 971.027603,721.108536 955.937286,747.963440 929.082382C774.818344 902.227478,789.908661 865.806183,789.908661 827.824738Z" style="stroke:rgb(25.500488%,41.000366%,88.400269%); stroke-width: 2.500000;stroke-linecap: round;stroke-linejoin: round;stroke-miterlimit: 10.000000;fill: none;"></path>
  <path d="M980.084549 625.788803C980.084549 587.807358,964.994232 551.386063,938.139328 524.531158C911.284424 497.676254,874.863129 482.585938,836.881683 482.585938C798.900238 482.585938,762.478943 497.676254,735.624039 524.531158C708.769135 551.386063,693.678818 587.807358,693.678818 625.788803C693.678818 663.770248,708.769135 700.191544,735.624039 727.046448C762.478943 753.901352,798.900238 768.991669,836.881683 768.991669C874.863129 768.991669,911.284424 753.901352,938.139328 727.046448C964.994232 700.191544,980.084549 663.770248,980.084549 625.788803Z" style="stroke:rgb(25.500488%,41.000366%,88.400269%); stroke-width: 2.500000;stroke-linecap: round;stroke-linejoin: round;stroke-miterlimit: 10.000000;fill: none;"></path>
  <path d="M1108.313141 395.011078C1108.313141 357.029633,1093.222824 320.608337,1066.367920 293.753433C1039.513016 266.898529,1003.091721 251.808212,965.110275 251.808212C927.128830 251.808212,890.707535 266.898529,863.852631 293.753433C836.997726 320.608337,821.907410 357.029633,821.907410 395.011078C821.907410 432.992523,836.997726 469.413818,863.852631 496.268723C890.707535 523.123627,927.128830 538.213943,965.110275 538.213943C1003.091721 538.213943,1039.513016 523.123627,1066.367920 496.268723C1093.222824 469.413818,1108.313141 432.992523,1108.313141 395.011078Z" style="stroke:rgb(25.500488%,41.000366%,88.400269%); stroke-width: 2.500000;stroke-linecap: round;stroke-linejoin: round;stroke-miterlimit: 10.000000;fill: none;"></path>
  <path d="M1245.741699 167.581161C1245.741699 129.599716,1230.651382 93.178421,1203.796478 66.323517C1176.941574 39.468613,1140.520279 24.378296,1102.538834 24.378296C1064.557388 24.378296,1028.136093 39.468613,1001.281189 66.323517C974.426285 93.178421,959.335968 129.599716,959.335968 167.581161C959.335968 205.562607,974.426285 241.983902,1001.281189 268.838806C1028.136093 295.693710,1064.557388 310.784027,1102.538834 310.784027C1140.520279 310.784027,1176.941574 295.693710,1203.796478 268.838806C1230.651382 241.983902,1245.741699 205.562607,1245.741699 167.581161Z" style="stroke:rgb(25.500488%,41.000366%,88.400269%); stroke-width: 2.500000;stroke-linecap: round;stroke-linejoin: round;stroke-miterlimit: 10.000000;fill: none;"></path>
  <path d="M408.804260 1051.984711C408.804260 1014.003265,393.713943 977.581970,366.859039 950.727066C340.004135 923.872162,303.582840 908.781845,265.601395 908.781845C227.619949 908.781845,191.198654 923.872162,164.343750 950.727066C137.488846 977.581970,122.398529 1014.003265,122.398529 1051.984711C122.398529 1089.966156,137.488846 1126.387451,164.343750 1153.242355C191.198654 1180.097260,227.619949 1195.187576,265.601395 1195.187576C303.582840 1195.187576,340.004135 1180.097260,366.859039 1153.242355C393.713943 1126.387451,408.804260 1089.966156,408.804260 1051.984711Z" style="stroke:rgb(25.500488%,41.000366%,88.400269%); stroke-width: 2.500000;stroke-linecap: round;stroke-linejoin: round;stroke-miterlimit: 10.000000;fill: none;"></path>
  <path d="M538.979248 836.012589C538.979248 798.031143,523.888931 761.609848,497.034027 734.754944C470.179123 707.900040,433.757828 692.809723,395.776382 692.809723C357.794937 692.809723,321.373642 707.900040,294.518738 734.754944C267.663834 761.609848,252.573517 798.031143,252.573517 836.012589C252.573517 873.994034,267.663834 910.415329,294.518738 937.270233C321.373642 964.125137,357.794937 979.215454,395.776382 979.215454C433.757828 979.215454,470.179123 964.125137,497.034027 937.270233C523.888931 910.415329,538.979248 873.994034,538.979248 836.012589Z" style="stroke:rgb(25.500488%,41.000366%,88.400269%); stroke-width: 2.500000;stroke-linecap: round;stroke-linejoin: round;stroke-miterlimit: 10.000000;fill: none;"></path>
  <path d="M773.779510 590.494156C773.779510 552.512711,758.689194 516.091415,731.834290 489.236511C704.979385 462.381607,668.558090 447.291290,630.576645 447.291290C592.595200 447.291290,556.173904 462.381607,529.319000 489.236511C502.464096 516.091415,487.373779 552.512711,487.373779 590.494156C487.373779 628.475601,502.464096 664.896896,529.319000 691.751801C556.173904 718.606705,592.595200 733.697021,630.576645 733.697021C668.558090 733.697021,704.979385 718.606705,731.834290 691.751801C758.689194 664.896896,773.779510 628.475601,773.779510 590.494156Z" style="stroke:rgb(25.500488%,41.000366%,88.400269%); stroke-width: 2.500000;stroke-linecap: round;stroke-linejoin: round;stroke-miterlimit: 10.000000;fill: none;"></path>
  <path d="M904.668182 372.848114C904.668182 334.866669,889.577866 298.445374,862.722961 271.590469C835.868057 244.735565,799.446762 229.645248,761.465317 229.645248C723.483871 229.645248,687.062576 244.735565,660.207672 271.590469C633.352768 298.445374,618.262451 334.866669,618.262451 372.848114C618.262451 410.829559,633.352768 447.250854,660.207672 474.105759C687.062576 500.960663,723.483871 516.050980,761.465317 516.050980C799.446762 516.050980,835.868057 500.960663,862.722961 474.105759C889.577866 447.250854,904.668182 410.829559,904.668182 372.848114Z" style="stroke:rgb(25.500488%,41.000366%,88.400269%); stroke-width: 2.500000;stroke-linecap: round;stroke-linejoin: round;stroke-miterlimit: 10.000000;fill: none;"></path>
  <path d="M1027.862091 154.618164C1027.862091 116.636719,1012.771774 80.215424,985.916870 53.360519C959.061966 26.505615,922.640671 11.415298,884.659225 11.415298C846.677780 11.415298,810.256485 26.505615,783.401581 53.360519C756.546677 80.215424,741.456360 116.636719,741.456360 154.618164C741.456360 192.599609,756.546677 229.020905,783.401581 255.875809C810.256485 282.730713,846.677780 297.821030,884.659225 297.821030C922.640671 297.821030,959.061966 282.730713,985.916870 255.875809C1012.771774 229.020905,1027.862091 192.599609,1027.862091 154.618164Z" style="stroke:rgb(25.500488%,41.000366%,88.400269%); stroke-width: 2.500000;stroke-linecap: round;stroke-linejoin: round;stroke-miterlimit: 10.000000;fill: none;"></path>
  <path d="M287.076630 846.081940C287.076630 808.100494,271.986313 771.679199,245.131409 744.824295C218.276505 717.969391,181.855209 702.879074,143.873764 702.879074C105.892319 702.879074,69.471024 717.969391,42.616119 744.824295C15.761215 771.679199,0.670898 808.100494,0.670898 846.081940C0.670898 884.063385,15.761215 920.484680,42.616119 947.339584C69.471024 974.194489,105.892319 989.284805,143.873764 989.284805C181.855209 989.284805,218.276505 974.194489,245.131409 947.339584C271.986313 920.484680,287.076630 884.063385,287.076630 846.081940Z" style="stroke:rgb(25.500488%,41.000366%,88.400269%); stroke-width: 2.500000;stroke-linecap: round;stroke-linejoin: round;stroke-miterlimit: 10.000000;fill: none;"></path>
  <path d="M347.700394 644.344452C347.700394 606.363007,332.610077 569.941711,305.755173 543.086807C278.900269 516.231903,242.478973 501.141586,204.497528 501.141586C166.516083 501.141586,130.094788 516.231903,103.239883 543.086807C76.384979 569.941711,61.294662 606.363007,61.294662 644.344452C61.294662 682.325897,76.384979 718.747192,103.239883 745.602097C130.094788 772.457001,166.516083 787.547318,204.497528 787.547318C242.478973 787.547318,278.900269 772.457001,305.755173 745.602097C332.610077 718.747192,347.700394 682.325897,347.700394 644.344452Z" style="stroke:rgb(25.500488%,41.000366%,88.400269%); stroke-width: 2.500000;stroke-linecap: round;stroke-linejoin: round;stroke-miterlimit: 10.000000;fill: none;"></path>
  <path d="M592.025024 638.180862C592.025024 600.199417,576.934708 563.778122,550.079803 536.923218C523.224899 510.068314,486.803604 494.977997,448.822159 494.977997C410.840714 494.977997,374.419418 510.068314,347.564514 536.923218C320.709610 563.778122,305.619293 600.199417,305.619293 638.180862C305.619293 676.162308,320.709610 712.583603,347.564514 739.438507C374.419418 766.293411,410.840714 781.383728,448.822159 781.383728C486.803604 781.383728,523.224899 766.293411,550.079803 739.438507C576.934708 712.583603,592.025024 676.162308,592.025024 638.180862Z" style="stroke:rgb(25.500488%,41.000366%,88.400269%); stroke-width: 2.500000;stroke-linecap: round;stroke-linejoin: round;stroke-miterlimit: 10.000000;fill: none;"></path>
  <path d="M690.616486 389.677948C690.616486 351.696503,675.526169 315.275208,648.671265 288.420303C621.816360 261.565399,585.395065 246.475082,547.413620 246.475082C509.432175 246.475082,473.010880 261.565399,446.155975 288.420303C419.301071 315.275208,404.210754 351.696503,404.210754 389.677948C404.210754 427.659393,419.301071 464.080688,446.155975 490.935593C473.010880 517.790497,509.432175 532.880814,547.413620 532.880814C585.395065 532.880814,621.816360 517.790497,648.671265 490.935593C675.526169 464.080688,690.616486 427.659393,690.616486 389.677948Z" style="stroke:rgb(25.500488%,41.000366%,88.400269%); stroke-width: 2.500000;stroke-linecap: round;stroke-linejoin: round;stroke-miterlimit: 10.000000;fill: none;"></path>
  <path d="M791.426849 143.575607C791.426849 105.594162,776.336533 69.172867,749.481628 42.317963C722.626724 15.463058,686.205429 0.372742,648.223984 0.372742C610.242538 0.372742,573.821243 15.463058,546.966339 42.317963C520.111435 69.172867,505.021118 105.594162,505.021118 143.575607C505.021118 181.557053,520.111435 217.978348,546.966339 244.833252C573.821243 271.688156,610.242538 286.778473,648.223984 286.778473C686.205429 286.778473,722.626724 271.688156,749.481628 244.833252C776.336533 217.978348,791.426849 181.557053,791.426849 143.575607Z" style="stroke:rgb(25.500488%,41.000366%,88.400269%); stroke-width: 2.500000;stroke-linecap: round;stroke-linejoin: round;stroke-miterlimit: 10.000000;fill: none;"></path>
  <path d="M469.518845 423.415497C469.518845 385.434052,454.428528 349.012756,427.573624 322.157852C400.718719 295.302948,364.297424 280.212631,326.315979 280.212631C288.334534 280.212631,251.913239 295.302948,225.058334 322.157852C198.203430 349.012756,183.113113 385.434052,183.113113 423.415497C183.113113 461.396942,198.203430 497.818237,225.058334 524.673141C251.913239 551.528046,288.334534 566.618362,326.315979 566.618362C364.297424 566.618362,400.718719 551.528046,427.573624 524.673141C454.428528 497.818237,469.518845 461.396942,469.518845 423.415497Z" style="stroke:rgb(25.500488%,41.000366%,88.400269%); stroke-width: 2.500000;stroke-linecap: round;stroke-linejoin: round;stroke-miterlimit: 10.000000;fill: none;"></path>
  <path d="M573.767838 175.094254C573.767838 137.112808,558.677521 100.691513,531.822617 73.836609C504.967712 46.981705,468.546417 31.891388,430.564972 31.891388C392.583527 31.891388,356.162231 46.981705,329.307327 73.836609C302.452423 100.691513,287.362106 137.112808,287.362106 175.094254C287.362106 213.075699,302.452423 249.496994,329.307327 276.351898C356.162231 303.206802,392.583527 318.297119,430.564972 318.297119C468.546417 318.297119,504.967712 303.206802,531.822617 276.351898C558.677521 249.496994,573.767838 213.075699,573.767838 175.094254Z" style="stroke:rgb(25.500488%,41.000366%,88.400269%); stroke-width: 2.500000;stroke-linecap: round;stroke-linejoin: round;stroke-miterlimit: 10.000000;fill: none;"></path>
</svg>
