<?xml version="1.0"?>
<!-- Created by MetaPost 2.00 on 2022.03.02:1201 -->
<svg version="1.1" xmlns="http://www.w3.org/2000/svg" xmlns:xlink="http://www.w3.org/1999/xlink" width="1822.588165" height="1754.282623" viewBox="0 0 1822.588165 1754.282623">
<!-- Original BoundingBox: -906.752487 -864.126404 915.835678 890.156219 -->
  <path d="M1756.393524 890.000000L1593.986221 390.152451L1168.789459 81.233398L643.210541 81.233398L218.013779 390.152451L55.606476 890.000000L218.013779 1389.847549L643.210541 1698.766602L1168.789459 1698.766602L1593.986221 1389.847549L1756.393524 890.000000Z" style="fill: rgb(100.000000%,100.000000%,100.000000%);stroke: none;"></path>
  <path d="M1756.393524 890.000000L1593.986221 390.152451" style="stroke:rgb(0.000000%,0.000000%,0.000000%); stroke-width: 2.500000;stroke-linecap: round;stroke-linejoin: round;stroke-miterlimit: 10.000000;fill: none;"></path>
  <path d="M1593.986221 390.152451L1168.789459 81.233398" style="stroke:rgb(0.000000%,0.000000%,0.000000%); stroke-width: 2.500000;stroke-linecap: round;stroke-linejoin: round;stroke-miterlimit: 10.000000;fill: none;"></path>
  <path d="M1168.789459 81.233398L643.210541 81.233398" style="stroke:rgb(0.000000%,0.000000%,0.000000%); stroke-width: 2.500000;stroke-linecap: round;stroke-linejoin: round;stroke-miterlimit: 10.000000;fill: none;"></path>
  <path d="M643.210541 81.233398L218.013779 390.152451" style="stroke:rgb(0.000000%,0.000000%,0.000000%); stroke-width: 2.500000;stroke-linecap: round;stroke-linejoin: round;stroke-miterlimit: 10.000000;fill: none;"></path>
  <path d="M218.013779 390.152451L55.606476 890.000000" style="stroke:rgb(0.000000%,0.000000%,0.000000%); stroke-width: 2.500000;stroke-linecap: round;stroke-linejoin: round;stroke-miterlimit: 10.000000;fill: none;"></path>
  <path d="M55.606476 890.000000L218.013779 1389.847549" style="stroke:rgb(0.000000%,0.000000%,0.000000%); stroke-width: 2.500000;stroke-linecap: round;stroke-linejoin: round;stroke-miterlimit: 10.000000;fill: none;"></path>
  <path d="M218.013779 1389.847549L643.210541 1698.766602" style="stroke:rgb(0.000000%,0.000000%,0.000000%); stroke-width: 2.500000;stroke-linecap: round;stroke-linejoin: round;stroke-miterlimit: 10.000000;fill: none;"></path>
  <path d="M643.210541 1698.766602L1168.789459 1698.766602" style="stroke:rgb(0.000000%,0.000000%,0.000000%); stroke-width: 2.500000;stroke-linecap: round;stroke-linejoin: round;stroke-miterlimit: 10.000000;fill: none;"></path>
  <path d="M1168.789459 1698.766602L1593.986221 1389.847549" style="stroke:rgb(0.000000%,0.000000%,0.000000%); stroke-width: 2.500000;stroke-linecap: round;stroke-linejoin: round;stroke-miterlimit: 10.000000;fill: none;"></path>
  <path d="M1593.986221 1389.847549L1756.393524 890.000000" style="stroke:rgb(0.000000%,0.000000%,0.000000%); stroke-width: 2.500000;stroke-linecap: round;stroke-linejoin: round;stroke-miterlimit: 10.000000;fill: none;"></path>
  <path d="M303.045349 1119.506073C303.045349 1091.133560,291.772736 1063.926498,271.711853 1043.865631C251.650986 1023.804749,224.443924 1012.532135,196.071411 1012.532135C167.698898 1012.532135,140.491837 1023.804749,120.430969 1043.865631C100.370087 1063.926498,89.097473 1091.133560,89.097473 1119.506073C89.097473 1147.878586,100.370087 1175.085648,120.430969 1195.146515C140.491837 1215.207397,167.698898 1226.480011,196.071411 1226.480011C224.443924 1226.480011,251.650986 1215.207397,271.711853 1195.146515C291.772736 1175.085648,303.045349 1147.878586,303.045349 1119.506073Z" style="stroke:rgb(25.500488%,41.000366%,88.400269%); stroke-width: 2.500000;stroke-linecap: round;stroke-linejoin: round;stroke-miterlimit: 10.000000;fill: none;"></path>
  <path d="M450.244812 1207.755692C450.244812 1179.383179,438.972198 1152.176117,418.911316 1132.115250C398.850449 1112.054367,371.643387 1100.781754,343.270874 1100.781754C314.898361 1100.781754,287.691299 1112.054367,267.630432 1132.115250C247.569550 1152.176117,236.296936 1179.383179,236.296936 1207.755692C236.296936 1236.128204,247.569550 1263.335266,267.630432 1283.396133C287.691299 1303.457016,314.898361 1314.729630,343.270874 1314.729630C371.643387 1314.729630,398.850449 1303.457016,418.911316 1283.396133C438.972198 1263.335266,450.244812 1236.128204,450.244812 1207.755692Z" style="stroke:rgb(25.500488%,41.000366%,88.400269%); stroke-width: 2.500000;stroke-linecap: round;stroke-linejoin: round;stroke-miterlimit: 10.000000;fill: none;"></path>
  <path d="M536.418259 1352.930893C536.418259 1324.558380,525.145645 1297.351318,505.084763 1277.290451C485.023895 1257.229568,457.816833 1245.956955,429.444321 1245.956955C401.071808 1245.956955,373.864746 1257.229568,353.803879 1277.290451C333.742996 1297.351318,322.470383 1324.558380,322.470383 1352.930893C322.470383 1381.303406,333.742996 1408.510468,353.803879 1428.571335C373.864746 1448.632217,401.071808 1459.904831,429.444321 1459.904831C457.816833 1459.904831,485.023895 1448.632217,505.084763 1428.571335C525.145645 1408.510468,536.418259 1381.303406,536.418259 1352.930893Z" style="stroke:rgb(25.500488%,41.000366%,88.400269%); stroke-width: 2.500000;stroke-linecap: round;stroke-linejoin: round;stroke-miterlimit: 10.000000;fill: none;"></path>
  <path d="M631.856567 1518.218872C631.856567 1489.846359,620.583954 1462.639297,600.523071 1442.578430C580.462204 1422.517548,553.255142 1411.244934,524.882629 1411.244934C496.510117 1411.244934,469.303055 1422.517548,449.242188 1442.578430C429.181305 1462.639297,417.908691 1489.846359,417.908691 1518.218872C417.908691 1546.591385,429.181305 1573.798447,449.242188 1593.859314C469.303055 1613.920197,496.510117 1625.192810,524.882629 1625.192810C553.255142 1625.192810,580.462204 1613.920197,600.523071 1593.859314C620.583954 1573.798447,631.856567 1546.591385,631.856567 1518.218872Z" style="stroke:rgb(25.500488%,41.000366%,88.400269%); stroke-width: 2.500000;stroke-linecap: round;stroke-linejoin: round;stroke-miterlimit: 10.000000;fill: none;"></path>
  <path d="M752.091949 1645.902466C752.091949 1617.529953,740.819336 1590.322891,720.758453 1570.262024C700.697586 1550.201141,673.490524 1538.928528,645.118011 1538.928528C616.745499 1538.928528,589.538437 1550.201141,569.477570 1570.262024C549.416687 1590.322891,538.144073 1617.529953,538.144073 1645.902466C538.144073 1674.274979,549.416687 1701.482040,569.477570 1721.542908C589.538437 1741.603790,616.745499 1752.876404,645.118011 1752.876404C673.490524 1752.876404,700.697586 1741.603790,720.758453 1721.542908C740.819336 1701.482040,752.091949 1674.274979,752.091949 1645.902466Z" style="stroke:rgb(25.500488%,41.000366%,88.400269%); stroke-width: 2.500000;stroke-linecap: round;stroke-linejoin: round;stroke-miterlimit: 10.000000;fill: none;"></path>
  <path d="M375.360458 935.805191C375.360458 907.432678,364.087845 880.225616,344.026962 860.164749C323.966095 840.103867,296.759033 828.831253,268.386520 828.831253C240.014008 828.831253,212.806946 840.103867,192.746078 860.164749C172.685196 880.225616,161.412582 907.432678,161.412582 935.805191C161.412582 964.177704,172.685196 991.384766,192.746078 1011.445633C212.806946 1031.506516,240.014008 1042.779129,268.386520 1042.779129C296.759033 1042.779129,323.966095 1031.506516,344.026962 1011.445633C364.087845 991.384766,375.360458 964.177704,375.360458 935.805191Z" style="stroke:rgb(25.500488%,41.000366%,88.400269%); stroke-width: 2.500000;stroke-linecap: round;stroke-linejoin: round;stroke-miterlimit: 10.000000;fill: none;"></path>
  <path d="M484.553299 1044.193512C484.553299 1015.820999,473.280685 988.613937,453.219803 968.553070C433.158936 948.492188,405.951874 937.219574,377.579361 937.219574C349.206848 937.219574,321.999786 948.492188,301.938919 968.553070C281.878036 988.613937,270.605423 1015.820999,270.605423 1044.193512C270.605423 1072.566025,281.878036 1099.773087,301.938919 1119.833954C321.999786 1139.894836,349.206848 1151.167450,377.579361 1151.167450C405.951874 1151.167450,433.158936 1139.894836,453.219803 1119.833954C473.280685 1099.773087,484.553299 1072.566025,484.553299 1044.193512Z" style="stroke:rgb(25.500488%,41.000366%,88.400269%); stroke-width: 2.500000;stroke-linecap: round;stroke-linejoin: round;stroke-miterlimit: 10.000000;fill: none;"></path>
  <path d="M618.711899 1185.553787C618.711899 1157.181274,607.439285 1129.974213,587.378403 1109.913345C567.317535 1089.852463,540.110474 1078.579849,511.737961 1078.579849C483.365448 1078.579849,456.158386 1089.852463,436.097519 1109.913345C416.036636 1129.974213,404.764023 1157.181274,404.764023 1185.553787C404.764023 1213.926300,416.036636 1241.133362,436.097519 1261.194229C456.158386 1281.255112,483.365448 1292.527725,511.737961 1292.527725C540.110474 1292.527725,567.317535 1281.255112,587.378403 1261.194229C607.439285 1241.133362,618.711899 1213.926300,618.711899 1185.553787Z" style="stroke:rgb(25.500488%,41.000366%,88.400269%); stroke-width: 2.500000;stroke-linecap: round;stroke-linejoin: round;stroke-miterlimit: 10.000000;fill: none;"></path>
  <path d="M714.176147 1350.828796C714.176147 1322.456284,702.903534 1295.249222,682.842651 1275.188354C662.781784 1255.127472,635.574722 1243.854858,607.202209 1243.854858C578.829697 1243.854858,551.622635 1255.127472,531.561768 1275.188354C511.500885 1295.249222,500.228271 1322.456284,500.228271 1350.828796C500.228271 1379.201309,511.500885 1406.408371,531.561768 1426.469238C551.622635 1446.530121,578.829697 1457.802734,607.202209 1457.802734C635.574722 1457.802734,662.781784 1446.530121,682.842651 1426.469238C702.903534 1406.408371,714.176147 1379.201309,714.176147 1350.828796Z" style="stroke:rgb(25.500488%,41.000366%,88.400269%); stroke-width: 2.500000;stroke-linecap: round;stroke-linejoin: round;stroke-miterlimit: 10.000000;fill: none;"></path>
  <path d="M824.757416 1479.498566C824.757416 1451.126053,813.484802 1423.918991,793.423920 1403.858124C773.363052 1383.797241,746.155991 1372.524628,717.783478 1372.524628C689.410965 1372.524628,662.203903 1383.797241,642.143036 1403.858124C622.082153 1423.918991,610.809540 1451.126053,610.809540 1479.498566C610.809540 1507.871078,622.082153 1535.078140,642.143036 1555.139008C662.203903 1575.199890,689.410965 1586.472504,717.783478 1586.472504C746.155991 1586.472504,773.363052 1575.199890,793.423920 1555.139008C813.484802 1535.078140,824.757416 1507.871078,824.757416 1479.498566Z" style="stroke:rgb(25.500488%,41.000366%,88.400269%); stroke-width: 2.500000;stroke-linecap: round;stroke-linejoin: round;stroke-miterlimit: 10.000000;fill: none;"></path>
  <path d="M933.015976 1637.844391C933.015976 1609.471878,921.743362 1582.264816,901.682480 1562.203949C881.621613 1542.143066,854.414551 1530.870453,826.042038 1530.870453C797.669525 1530.870453,770.462463 1542.143066,750.401596 1562.203949C730.340714 1582.264816,719.068100 1609.471878,719.068100 1637.844391C719.068100 1666.216904,730.340714 1693.423965,750.401596 1713.484833C770.462463 1733.545715,797.669525 1744.818329,826.042038 1744.818329C854.414551 1744.818329,881.621613 1733.545715,901.682480 1713.484833C921.743362 1693.423965,933.015976 1666.216904,933.015976 1637.844391Z" style="stroke:rgb(25.500488%,41.000366%,88.400269%); stroke-width: 2.500000;stroke-linecap: round;stroke-linejoin: round;stroke-miterlimit: 10.000000;fill: none;"></path>
  <path d="M426.589615 752.882874C426.589615 724.510361,415.317001 697.303299,395.256119 677.242432C375.195251 657.181549,347.988190 645.908936,319.615677 645.908936C291.243164 645.908936,264.036102 657.181549,243.975235 677.242432C223.914352 697.303299,212.641739 724.510361,212.641739 752.882874C212.641739 781.255386,223.914352 808.462448,243.975235 828.523315C264.036102 848.584198,291.243164 859.856812,319.615677 859.856812C347.988190 859.856812,375.195251 848.584198,395.256119 828.523315C415.317001 808.462448,426.589615 781.255386,426.589615 752.882874Z" style="stroke:rgb(25.500488%,41.000366%,88.400269%); stroke-width: 2.500000;stroke-linecap: round;stroke-linejoin: round;stroke-miterlimit: 10.000000;fill: none;"></path>
  <path d="M553.377869 878.023178C553.377869 849.650665,542.105255 822.443604,522.044373 802.382736C501.983505 782.321854,474.776443 771.049240,446.403931 771.049240C418.031418 771.049240,390.824356 782.321854,370.763489 802.382736C350.702606 822.443604,339.429993 849.650665,339.429993 878.023178C339.429993 906.395691,350.702606 933.602753,370.763489 953.663620C390.824356 973.724503,418.031418 984.997116,446.403931 984.997116C474.776443 984.997116,501.983505 973.724503,522.044373 953.663620C542.105255 933.602753,553.377869 906.395691,553.377869 878.023178Z" style="stroke:rgb(25.500488%,41.000366%,88.400269%); stroke-width: 2.500000;stroke-linecap: round;stroke-linejoin: round;stroke-miterlimit: 10.000000;fill: none;"></path>
  <path d="M671.589005 1023.574692C671.589005 995.202179,660.316391 967.995117,640.255508 947.934250C620.194641 927.873367,592.987579 916.600754,564.615067 916.600754C536.242554 916.600754,509.035492 927.873367,488.974625 947.934250C468.913742 967.995117,457.641129 995.202179,457.641129 1023.574692C457.641129 1051.947205,468.913742 1079.154266,488.974625 1099.215134C509.035492 1119.276016,536.242554 1130.548630,564.615067 1130.548630C592.987579 1130.548630,620.194641 1119.276016,640.255508 1099.215134C660.316391 1079.154266,671.589005 1051.947205,671.589005 1023.574692Z" style="stroke:rgb(25.500488%,41.000366%,88.400269%); stroke-width: 2.500000;stroke-linecap: round;stroke-linejoin: round;stroke-miterlimit: 10.000000;fill: none;"></path>
  <path d="M786.724838 1171.280212C786.724838 1142.907700,775.452225 1115.700638,755.391342 1095.639771C735.330475 1075.578888,708.123413 1064.306274,679.750900 1064.306274C651.378387 1064.306274,624.171326 1075.578888,604.110458 1095.639771C584.049576 1115.700638,572.776962 1142.907700,572.776962 1171.280212C572.776962 1199.652725,584.049576 1226.859787,604.110458 1246.920654C624.171326 1266.981537,651.378387 1278.254150,679.750900 1278.254150C708.123413 1278.254150,735.330475 1266.981537,755.391342 1246.920654C775.452225 1226.859787,786.724838 1199.652725,786.724838 1171.280212Z" style="stroke:rgb(25.500488%,41.000366%,88.400269%); stroke-width: 2.500000;stroke-linecap: round;stroke-linejoin: round;stroke-miterlimit: 10.000000;fill: none;"></path>
  <path d="M896.319916 1304.361816C896.319916 1275.989304,885.047302 1248.782242,864.986420 1228.721375C844.925552 1208.660492,817.718491 1197.387878,789.345978 1197.387878C760.973465 1197.387878,733.766403 1208.660492,713.705536 1228.721375C693.644653 1248.782242,682.372040 1275.989304,682.372040 1304.361816C682.372040 1332.734329,693.644653 1359.941391,713.705536 1380.002258C733.766403 1400.063141,760.973465 1411.335754,789.345978 1411.335754C817.718491 1411.335754,844.925552 1400.063141,864.986420 1380.002258C885.047302 1359.941391,896.319916 1332.734329,896.319916 1304.361816Z" style="stroke:rgb(25.500488%,41.000366%,88.400269%); stroke-width: 2.500000;stroke-linecap: round;stroke-linejoin: round;stroke-miterlimit: 10.000000;fill: none;"></path>
  <path d="M1000.023911 1463.252640C1000.023911 1434.880127,988.751297 1407.673065,968.690414 1387.612198C948.629547 1367.551315,921.422485 1356.278702,893.049973 1356.278702C864.677460 1356.278702,837.470398 1367.551315,817.409531 1387.612198C797.348648 1407.673065,786.076035 1434.880127,786.076035 1463.252640C786.076035 1491.625153,797.348648 1518.832214,817.409531 1538.893082C837.470398 1558.953964,864.677460 1570.226578,893.049973 1570.226578C921.422485 1570.226578,948.629547 1558.953964,968.690414 1538.893082C988.751297 1518.832214,1000.023911 1491.625153,1000.023911 1463.252640Z" style="stroke:rgb(25.500488%,41.000366%,88.400269%); stroke-width: 2.500000;stroke-linecap: round;stroke-linejoin: round;stroke-miterlimit: 10.000000;fill: none;"></path>
  <path d="M1090.946579 1617.861389C1090.946579 1589.488876,1079.673965 1562.281815,1059.613083 1542.220947C1039.552216 1522.160065,1012.345154 1510.887451,983.972641 1510.887451C955.600128 1510.887451,928.393066 1522.160065,908.332199 1542.220947C888.271317 1562.281815,876.998703 1589.488876,876.998703 1617.861389C876.998703 1646.233902,888.271317 1673.440964,908.332199 1693.501831C928.393066 1713.562714,955.600128 1724.835327,983.972641 1724.835327C1012.345154 1724.835327,1039.552216 1713.562714,1059.613083 1693.501831C1079.673965 1673.440964,1090.946579 1646.233902,1090.946579 1617.861389Z" style="stroke:rgb(25.500488%,41.000366%,88.400269%); stroke-width: 2.500000;stroke-linecap: round;stroke-linejoin: round;stroke-miterlimit: 10.000000;fill: none;"></path>
  <path d="M482.451187 571.790161C482.451187 543.417648,471.178574 516.210587,451.117691 496.149719C431.056824 476.088837,403.849762 464.816223,375.477249 464.816223C347.104736 464.816223,319.897675 476.088837,299.836807 496.149719C279.775925 516.210587,268.503311 543.417648,268.503311 571.790161C268.503311 600.162674,279.775925 627.369736,299.836807 647.430603C319.897675 667.491486,347.104736 678.764099,375.477249 678.764099C403.849762 678.764099,431.056824 667.491486,451.117691 647.430603C471.178574 627.369736,482.451187 600.162674,482.451187 571.790161Z" style="stroke:rgb(25.500488%,41.000366%,88.400269%); stroke-width: 2.500000;stroke-linecap: round;stroke-linejoin: round;stroke-miterlimit: 10.000000;fill: none;"></path>
  <path d="M606.618286 699.162323C606.618286 670.789810,595.345673 643.582748,575.284790 623.521881C555.223923 603.460999,528.016861 592.188385,499.644348 592.188385C471.271835 592.188385,444.064774 603.460999,424.003906 623.521881C403.943024 643.582748,392.670410 670.789810,392.670410 699.162323C392.670410 727.534836,403.943024 754.741898,424.003906 774.802765C444.064774 794.863647,471.271835 806.136261,499.644348 806.136261C528.016861 806.136261,555.223923 794.863647,575.284790 774.802765C595.345673 754.741898,606.618286 727.534836,606.618286 699.162323Z" style="stroke:rgb(25.500488%,41.000366%,88.400269%); stroke-width: 2.500000;stroke-linecap: round;stroke-linejoin: round;stroke-miterlimit: 10.000000;fill: none;"></path>
  <path d="M729.228287 843.818497C729.228287 815.445984,717.955673 788.238922,697.894791 768.178055C677.833923 748.117172,650.626862 736.844559,622.254349 736.844559C593.881836 736.844559,566.674774 748.117172,546.613907 768.178055C526.553024 788.238922,515.280411 815.445984,515.280411 843.818497C515.280411 872.191010,526.553024 899.398071,546.613907 919.458939C566.674774 939.519821,593.881836 950.792435,622.254349 950.792435C650.626862 950.792435,677.833923 939.519821,697.894791 919.458939C717.955673 899.398071,729.228287 872.191010,729.228287 843.818497Z" style="stroke:rgb(25.500488%,41.000366%,88.400269%); stroke-width: 2.500000;stroke-linecap: round;stroke-linejoin: round;stroke-miterlimit: 10.000000;fill: none;"></path>
  <path d="M846.712769 991.121780C846.712769 962.749268,835.440155 935.542206,815.379272 915.481339C795.318405 895.420456,768.111343 884.147842,739.738831 884.147842C711.366318 884.147842,684.159256 895.420456,664.098389 915.481339C644.037506 935.542206,632.764893 962.749268,632.764893 991.121780C632.764893 1019.494293,644.037506 1046.701355,664.098389 1066.762222C684.159256 1086.823105,711.366318 1098.095718,739.738831 1098.095718C768.111343 1098.095718,795.318405 1086.823105,815.379272 1066.762222C835.440155 1046.701355,846.712769 1019.494293,846.712769 991.121780Z" style="stroke:rgb(25.500488%,41.000366%,88.400269%); stroke-width: 2.500000;stroke-linecap: round;stroke-linejoin: round;stroke-miterlimit: 10.000000;fill: none;"></path>
  <path d="M966.455063 1125.799423C966.455063 1097.426910,955.182449 1070.219849,935.121567 1050.158981C915.060699 1030.098099,887.853638 1018.825485,859.481125 1018.825485C831.108612 1018.825485,803.901550 1030.098099,783.840683 1050.158981C763.779800 1070.219849,752.507187 1097.426910,752.507187 1125.799423C752.507187 1154.171936,763.779800 1181.378998,783.840683 1201.439865C803.901550 1221.500748,831.108612 1232.773361,859.481125 1232.773361C887.853638 1232.773361,915.060699 1221.500748,935.121567 1201.439865C955.182449 1181.378998,966.455063 1154.171936,966.455063 1125.799423Z" style="stroke:rgb(25.500488%,41.000366%,88.400269%); stroke-width: 2.500000;stroke-linecap: round;stroke-linejoin: round;stroke-miterlimit: 10.000000;fill: none;"></path>
  <path d="M1068.627899 1284.988693C1068.627899 1256.616180,1057.355286 1229.409119,1037.294403 1209.348251C1017.233536 1189.287369,990.026474 1178.014755,961.653961 1178.014755C933.281448 1178.014755,906.074387 1189.287369,886.013519 1209.348251C865.952637 1229.409119,854.680023 1256.616180,854.680023 1284.988693C854.680023 1313.361206,865.952637 1340.568268,886.013519 1360.629135C906.074387 1380.690018,933.281448 1391.962631,961.653961 1391.962631C990.026474 1391.962631,1017.233536 1380.690018,1037.294403 1360.629135C1057.355286 1340.568268,1068.627899 1313.361206,1068.627899 1284.988693Z" style="stroke:rgb(25.500488%,41.000366%,88.400269%); stroke-width: 2.500000;stroke-linecap: round;stroke-linejoin: round;stroke-miterlimit: 10.000000;fill: none;"></path>
  <path d="M1175.043869 1439.156250C1175.043869 1410.783737,1163.771255 1383.576675,1143.710373 1363.515808C1123.649506 1343.454926,1096.442444 1332.182312,1068.069931 1332.182312C1039.697418 1332.182312,1012.490356 1343.454926,992.429489 1363.515808C972.368607 1383.576675,961.095993 1410.783737,961.095993 1439.156250C961.095993 1467.528763,972.368607 1494.735825,992.429489 1514.796692C1012.490356 1534.857574,1039.697418 1546.130188,1068.069931 1546.130188C1096.442444 1546.130188,1123.649506 1534.857574,1143.710373 1514.796692C1163.771255 1494.735825,1175.043869 1467.528763,1175.043869 1439.156250Z" style="stroke:rgb(25.500488%,41.000366%,88.400269%); stroke-width: 2.500000;stroke-linecap: round;stroke-linejoin: round;stroke-miterlimit: 10.000000;fill: none;"></path>
  <path d="M1344.847488 1541.497772C1344.847488 1513.125259,1333.574875 1485.918198,1313.513992 1465.857330C1293.453125 1445.796448,1266.246063 1434.523834,1237.873550 1434.523834C1209.501038 1434.523834,1182.293976 1445.796448,1162.233109 1465.857330C1142.172226 1485.918198,1130.899612 1513.125259,1130.899612 1541.497772C1130.899612 1569.870285,1142.172226 1597.077347,1162.233109 1617.138214C1182.293976 1637.199097,1209.501038 1648.471710,1237.873550 1648.471710C1266.246063 1648.471710,1293.453125 1637.199097,1313.513992 1617.138214C1333.574875 1597.077347,1344.847488 1569.870285,1344.847488 1541.497772Z" style="stroke:rgb(25.500488%,41.000366%,88.400269%); stroke-width: 2.500000;stroke-linecap: round;stroke-linejoin: round;stroke-miterlimit: 10.000000;fill: none;"></path>
  <path d="M507.689453 373.530228C507.689453 345.157715,496.416840 317.950653,476.355957 297.889786C456.295090 277.828903,429.088028 266.556290,400.715515 266.556290C372.343002 266.556290,345.135941 277.828903,325.075073 297.889786C305.014191 317.950653,293.741577 345.157715,293.741577 373.530228C293.741577 401.902740,305.014191 429.109802,325.075073 449.170670C345.135941 469.231552,372.343002 480.504166,400.715515 480.504166C429.088028 480.504166,456.295090 469.231552,476.355957 449.170670C496.416840 429.109802,507.689453 401.902740,507.689453 373.530228Z" style="stroke:rgb(25.500488%,41.000366%,88.400269%); stroke-width: 2.500000;stroke-linecap: round;stroke-linejoin: round;stroke-miterlimit: 10.000000;fill: none;"></path>
  <path d="M635.827209 506.871353C635.827209 478.498840,624.554596 451.291779,604.493713 431.230911C584.432846 411.170029,557.225784 399.897415,528.853271 399.897415C500.480759 399.897415,473.273697 411.170029,453.212830 431.230911C433.151947 451.291779,421.879333 478.498840,421.879333 506.871353C421.879333 535.243866,433.151947 562.450928,453.212830 582.511795C473.273697 602.572678,500.480759 613.845291,528.853271 613.845291C557.225784 613.845291,584.432846 602.572678,604.493713 582.511795C624.554596 562.450928,635.827209 535.243866,635.827209 506.871353Z" style="stroke:rgb(25.500488%,41.000366%,88.400269%); stroke-width: 2.500000;stroke-linecap: round;stroke-linejoin: round;stroke-miterlimit: 10.000000;fill: none;"></path>
  <path d="M764.380203 650.022308C764.380203 621.649796,753.107590 594.442734,733.046707 574.381866C712.985840 554.320984,685.778778 543.048370,657.406265 543.048370C629.033752 543.048370,601.826691 554.320984,581.765823 574.381866C561.704941 594.442734,550.432327 621.649796,550.432327 650.022308C550.432327 678.394821,561.704941 705.601883,581.765823 725.662750C601.826691 745.723633,629.033752 756.996246,657.406265 756.996246C685.778778 756.996246,712.985840 745.723633,733.046707 725.662750C753.107590 705.601883,764.380203 678.394821,764.380203 650.022308Z" style="stroke:rgb(25.500488%,41.000366%,88.400269%); stroke-width: 2.500000;stroke-linecap: round;stroke-linejoin: round;stroke-miterlimit: 10.000000;fill: none;"></path>
  <path d="M886.263535 796.430237C886.263535 768.057724,874.990921 740.850662,854.930038 720.789795C834.869171 700.728912,807.662109 689.456299,779.289597 689.456299C750.917084 689.456299,723.710022 700.728912,703.649155 720.789795C683.588272 740.850662,672.315659 768.057724,672.315659 796.430237C672.315659 824.802750,683.588272 852.009811,703.649155 872.070679C723.710022 892.131561,750.917084 903.404175,779.289597 903.404175C807.662109 903.404175,834.869171 892.131561,854.930038 872.070679C874.990921 852.009811,886.263535 824.802750,886.263535 796.430237Z" style="stroke:rgb(25.500488%,41.000366%,88.400269%); stroke-width: 2.500000;stroke-linecap: round;stroke-linejoin: round;stroke-miterlimit: 10.000000;fill: none;"></path>
  <path d="M1008.341522 930.692657C1008.341522 902.320145,997.068909 875.113083,977.008026 855.052216C956.947159 834.991333,929.740097 823.718719,901.367584 823.718719C872.995071 823.718719,845.788010 834.991333,825.727142 855.052216C805.666260 875.113083,794.393646 902.320145,794.393646 930.692657C794.393646 959.065170,805.666260 986.272232,825.727142 1006.333099C845.788010 1026.393982,872.995071 1037.666595,901.367584 1037.666595C929.740097 1037.666595,956.947159 1026.393982,977.008026 1006.333099C997.068909 986.272232,1008.341522 959.065170,1008.341522 930.692657Z" style="stroke:rgb(25.500488%,41.000366%,88.400269%); stroke-width: 2.500000;stroke-linecap: round;stroke-linejoin: round;stroke-miterlimit: 10.000000;fill: none;"></path>
  <path d="M1116.016159 1087.494339C1116.016159 1059.121826,1104.743546 1031.914764,1084.682663 1011.853897C1064.621796 991.793015,1037.414734 980.520401,1009.042221 980.520401C980.669708 980.520401,953.462646 991.793015,933.401779 1011.853897C913.340897 1031.914764,902.068283 1059.121826,902.068283 1087.494339C902.068283 1115.866852,913.340897 1143.073914,933.401779 1163.134781C953.462646 1183.195663,980.669708 1194.468277,1009.042221 1194.468277C1037.414734 1194.468277,1064.621796 1183.195663,1084.682663 1163.134781C1104.743546 1143.073914,1116.016159 1115.866852,1116.016159 1087.494339Z" style="stroke:rgb(25.500488%,41.000366%,88.400269%); stroke-width: 2.500000;stroke-linecap: round;stroke-linejoin: round;stroke-miterlimit: 10.000000;fill: none;"></path>
  <path d="M1220.758240 1241.817627C1220.758240 1213.445114,1209.485626 1186.238052,1189.424744 1166.177185C1169.363876 1146.116302,1142.156815 1134.843689,1113.784302 1134.843689C1085.411789 1134.843689,1058.204727 1146.116302,1038.143860 1166.177185C1018.082977 1186.238052,1006.810364 1213.445114,1006.810364 1241.817627C1006.810364 1270.190140,1018.082977 1297.397202,1038.143860 1317.458069C1058.204727 1337.518951,1085.411789 1348.791565,1113.784302 1348.791565C1142.156815 1348.791565,1169.363876 1337.518951,1189.424744 1317.458069C1209.485626 1297.397202,1220.758240 1270.190140,1220.758240 1241.817627Z" style="stroke:rgb(25.500488%,41.000366%,88.400269%); stroke-width: 2.500000;stroke-linecap: round;stroke-linejoin: round;stroke-miterlimit: 10.000000;fill: none;"></path>
  <path d="M1337.087845 1364.972610C1337.087845 1336.600098,1325.815231 1309.393036,1305.754349 1289.332169C1285.693481 1269.271286,1258.486420 1257.998672,1230.113907 1257.998672C1201.741394 1257.998672,1174.534332 1269.271286,1154.473465 1289.332169C1134.412582 1309.393036,1123.139969 1336.600098,1123.139969 1364.972610C1123.139969 1393.345123,1134.412582 1420.552185,1154.473465 1440.613052C1174.534332 1460.673935,1201.741394 1471.946548,1230.113907 1471.946548C1258.486420 1471.946548,1285.693481 1460.673935,1305.754349 1440.613052C1325.815231 1420.552185,1337.087845 1393.345123,1337.087845 1364.972610Z" style="stroke:rgb(25.500488%,41.000366%,88.400269%); stroke-width: 2.500000;stroke-linecap: round;stroke-linejoin: round;stroke-miterlimit: 10.000000;fill: none;"></path>
  <path d="M1480.096069 1473.101410C1480.096069 1444.728897,1468.823456 1417.521835,1448.762573 1397.460968C1428.701706 1377.400085,1401.494644 1366.127472,1373.122131 1366.127472C1344.749619 1366.127472,1317.542557 1377.400085,1297.481689 1397.460968C1277.420807 1417.521835,1266.148193 1444.728897,1266.148193 1473.101410C1266.148193 1501.473923,1277.420807 1528.680984,1297.481689 1548.741852C1317.542557 1568.802734,1344.749619 1580.075348,1373.122131 1580.075348C1401.494644 1580.075348,1428.701706 1568.802734,1448.762573 1548.741852C1468.823456 1528.680984,1480.096069 1501.473923,1480.096069 1473.101410Z" style="stroke:rgb(25.500488%,41.000366%,88.400269%); stroke-width: 2.500000;stroke-linecap: round;stroke-linejoin: round;stroke-miterlimit: 10.000000;fill: none;"></path>
  <path d="M702.848129 348.836945C702.848129 320.464432,691.575516 293.257370,671.514633 273.196503C651.453766 253.135620,624.246704 241.863007,595.874191 241.863007C567.501678 241.863007,540.294617 253.135620,520.233749 273.196503C500.172867 293.257370,488.900253 320.464432,488.900253 348.836945C488.900253 377.209457,500.172867 404.416519,520.233749 424.477386C540.294617 444.538269,567.501678 455.810883,595.874191 455.810883C624.246704 455.810883,651.453766 444.538269,671.514633 424.477386C691.575516 404.416519,702.848129 377.209457,702.848129 348.836945Z" style="stroke:rgb(25.500488%,41.000366%,88.400269%); stroke-width: 2.500000;stroke-linecap: round;stroke-linejoin: round;stroke-miterlimit: 10.000000;fill: none;"></path>
  <path d="M825.639786 490.495667C825.639786 462.123154,814.367172 434.916092,794.306290 414.855225C774.245422 394.794342,747.038361 383.521729,718.665848 383.521729C690.293335 383.521729,663.086273 394.794342,643.025406 414.855225C622.964523 434.916092,611.691910 462.123154,611.691910 490.495667C611.691910 518.868179,622.964523 546.075241,643.025406 566.136108C663.086273 586.196991,690.293335 597.469604,718.665848 597.469604C747.038361 597.469604,774.245422 586.196991,794.306290 566.136108C814.367172 546.075241,825.639786 518.868179,825.639786 490.495667Z" style="stroke:rgb(25.500488%,41.000366%,88.400269%); stroke-width: 2.500000;stroke-linecap: round;stroke-linejoin: round;stroke-miterlimit: 10.000000;fill: none;"></path>
  <path d="M944.590546 623.187988C944.590546 594.815475,933.317932 567.608414,913.257050 547.547546C893.196182 527.486664,865.989120 516.214050,837.616608 516.214050C809.244095 516.214050,782.037033 527.486664,761.976166 547.547546C741.915283 567.608414,730.642670 594.815475,730.642670 623.187988C730.642670 651.560501,741.915283 678.767563,761.976166 698.828430C782.037033 718.889313,809.244095 730.161926,837.616608 730.161926C865.989120 730.161926,893.196182 718.889313,913.257050 698.828430C933.317932 678.767563,944.590546 651.560501,944.590546 623.187988Z" style="stroke:rgb(25.500488%,41.000366%,88.400269%); stroke-width: 2.500000;stroke-linecap: round;stroke-linejoin: round;stroke-miterlimit: 10.000000;fill: none;"></path>
  <path d="M1061.257538 746.342972C1061.257538 717.970459,1049.984924 690.763397,1029.924042 670.702530C1009.863174 650.641647,982.656113 639.369034,954.283600 639.369034C925.911087 639.369034,898.704025 650.641647,878.643158 670.702530C858.582275 690.763397,847.309662 717.970459,847.309662 746.342972C847.309662 774.715485,858.582275 801.922546,878.643158 821.983414C898.704025 842.044296,925.911087 853.316910,954.283600 853.316910C982.656113 853.316910,1009.863174 842.044296,1029.924042 821.983414C1049.984924 801.922546,1061.257538 774.715485,1061.257538 746.342972Z" style="stroke:rgb(25.500488%,41.000366%,88.400269%); stroke-width: 2.500000;stroke-linecap: round;stroke-linejoin: round;stroke-miterlimit: 10.000000;fill: none;"></path>
  <path d="M1174.589706 902.275269C1174.589706 873.902756,1163.317093 846.695694,1143.256210 826.634827C1123.195343 806.573944,1095.988281 795.301331,1067.615768 795.301331C1039.243256 795.301331,1012.036194 806.573944,991.975327 826.634827C971.914444 846.695694,960.641830 873.902756,960.641830 902.275269C960.641830 930.647781,971.914444 957.854843,991.975327 977.915710C1012.036194 997.976593,1039.243256 1009.249207,1067.615768 1009.249207C1095.988281 1009.249207,1123.195343 997.976593,1143.256210 977.915710C1163.317093 957.854843,1174.589706 930.647781,1174.589706 902.275269Z" style="stroke:rgb(25.500488%,41.000366%,88.400269%); stroke-width: 2.500000;stroke-linecap: round;stroke-linejoin: round;stroke-miterlimit: 10.000000;fill: none;"></path>
  <path d="M1271.688934 1046.620026C1271.688934 1018.247513,1260.416321 991.040451,1240.355438 970.979584C1220.294571 950.918701,1193.087509 939.646088,1164.714996 939.646088C1136.342484 939.646088,1109.135422 950.918701,1089.074554 970.979584C1069.013672 991.040451,1057.741058 1018.247513,1057.741058 1046.620026C1057.741058 1074.992538,1069.013672 1102.199600,1089.074554 1122.260468C1109.135422 1142.321350,1136.342484 1153.593964,1164.714996 1153.593964C1193.087509 1153.593964,1220.294571 1142.321350,1240.355438 1122.260468C1260.416321 1102.199600,1271.688934 1074.992538,1271.688934 1046.620026Z" style="stroke:rgb(25.500488%,41.000366%,88.400269%); stroke-width: 2.500000;stroke-linecap: round;stroke-linejoin: round;stroke-miterlimit: 10.000000;fill: none;"></path>
  <path d="M1386.357635 1169.930710C1386.357635 1141.558197,1375.085022 1114.351135,1355.024139 1094.290268C1334.963272 1074.229385,1307.756210 1062.956772,1279.383698 1062.956772C1251.011185 1062.956772,1223.804123 1074.229385,1203.743256 1094.290268C1183.682373 1114.351135,1172.409760 1141.558197,1172.409760 1169.930710C1172.409760 1198.303223,1183.682373 1225.510284,1203.743256 1245.571152C1223.804123 1265.632034,1251.011185 1276.904648,1279.383698 1276.904648C1307.756210 1276.904648,1334.963272 1265.632034,1355.024139 1245.571152C1375.085022 1225.510284,1386.357635 1198.303223,1386.357635 1169.930710Z" style="stroke:rgb(25.500488%,41.000366%,88.400269%); stroke-width: 2.500000;stroke-linecap: round;stroke-linejoin: round;stroke-miterlimit: 10.000000;fill: none;"></path>
  <path d="M1503.738297 1283.872757C1503.738297 1255.500244,1492.465683 1228.293182,1472.404800 1208.232315C1452.343933 1188.171432,1425.136871 1176.898819,1396.764359 1176.898819C1368.391846 1176.898819,1341.184784 1188.171432,1321.123917 1208.232315C1301.063034 1228.293182,1289.790421 1255.500244,1289.790421 1283.872757C1289.790421 1312.245270,1301.063034 1339.452332,1321.123917 1359.513199C1341.184784 1379.574081,1368.391846 1390.846695,1396.764359 1390.846695C1425.136871 1390.846695,1452.343933 1379.574081,1472.404800 1359.513199C1492.465683 1339.452332,1503.738297 1312.245270,1503.738297 1283.872757Z" style="stroke:rgb(25.500488%,41.000366%,88.400269%); stroke-width: 2.500000;stroke-linecap: round;stroke-linejoin: round;stroke-miterlimit: 10.000000;fill: none;"></path>
  <path d="M769.246185 168.341125C769.246185 139.968613,757.973572 112.761551,737.912689 92.700684C717.851822 72.639801,690.644760 61.367188,662.272247 61.367188C633.899734 61.367188,606.692673 72.639801,586.631805 92.700684C566.570923 112.761551,555.298309 139.968613,555.298309 168.341125C555.298309 196.713638,566.570923 223.920700,586.631805 243.981567C606.692673 264.042450,633.899734 275.315063,662.272247 275.315063C690.644760 275.315063,717.851822 264.042450,737.912689 243.981567C757.973572 223.920700,769.246185 196.713638,769.246185 168.341125Z" style="stroke:rgb(25.500488%,41.000366%,88.400269%); stroke-width: 2.500000;stroke-linecap: round;stroke-linejoin: round;stroke-miterlimit: 10.000000;fill: none;"></path>
  <path d="M880.385422 311.842438C880.385422 283.469925,869.112808 256.262863,849.051926 236.201996C828.991058 216.141113,801.783997 204.868500,773.411484 204.868500C745.038971 204.868500,717.831909 216.141113,697.771042 236.201996C677.710159 256.262863,666.437546 283.469925,666.437546 311.842438C666.437546 340.214951,677.710159 367.422012,697.771042 387.482880C717.831909 407.543762,745.038971 418.816376,773.411484 418.816376C801.783997 418.816376,828.991058 407.543762,849.051926 387.482880C869.112808 367.422012,880.385422 340.214951,880.385422 311.842438Z" style="stroke:rgb(25.500488%,41.000366%,88.400269%); stroke-width: 2.500000;stroke-linecap: round;stroke-linejoin: round;stroke-miterlimit: 10.000000;fill: none;"></path>
  <path d="M1006.382141 443.263123C1006.382141 414.890610,995.109528 387.683548,975.048645 367.622681C954.987778 347.561798,927.780716 336.289185,899.408203 336.289185C871.035690 336.289185,843.828629 347.561798,823.767761 367.622681C803.706879 387.683548,792.434265 414.890610,792.434265 443.263123C792.434265 471.635635,803.706879 498.842697,823.767761 518.903564C843.828629 538.964447,871.035690 550.237061,899.408203 550.237061C927.780716 550.237061,954.987778 538.964447,975.048645 518.903564C995.109528 498.842697,1006.382141 471.635635,1006.382141 443.263123Z" style="stroke:rgb(25.500488%,41.000366%,88.400269%); stroke-width: 2.500000;stroke-linecap: round;stroke-linejoin: round;stroke-miterlimit: 10.000000;fill: none;"></path>
  <path d="M1120.570724 559.320236C1120.570724 530.947723,1109.298111 503.740662,1089.237228 483.679794C1069.176361 463.618912,1041.969299 452.346298,1013.596786 452.346298C985.224274 452.346298,958.017212 463.618912,937.956345 483.679794C917.895462 503.740662,906.622849 530.947723,906.622849 559.320236C906.622849 587.692749,917.895462 614.899811,937.956345 634.960678C958.017212 655.021561,985.224274 666.294174,1013.596786 666.294174C1041.969299 666.294174,1069.176361 655.021561,1089.237228 634.960678C1109.298111 614.899811,1120.570724 587.692749,1120.570724 559.320236Z" style="stroke:rgb(25.500488%,41.000366%,88.400269%); stroke-width: 2.500000;stroke-linecap: round;stroke-linejoin: round;stroke-miterlimit: 10.000000;fill: none;"></path>
  <path d="M1223.548065 720.365067C1223.548065 691.992554,1212.275452 664.785492,1192.214569 644.724625C1172.153702 624.663742,1144.946640 613.391129,1116.574127 613.391129C1088.201614 613.391129,1060.994553 624.663742,1040.933685 644.724625C1020.872803 664.785492,1009.600189 691.992554,1009.600189 720.365067C1009.600189 748.737579,1020.872803 775.944641,1040.933685 796.005508C1060.994553 816.066391,1088.201614 827.339005,1116.574127 827.339005C1144.946640 827.339005,1172.153702 816.066391,1192.214569 796.005508C1212.275452 775.944641,1223.548065 748.737579,1223.548065 720.365067Z" style="stroke:rgb(25.500488%,41.000366%,88.400269%); stroke-width: 2.500000;stroke-linecap: round;stroke-linejoin: round;stroke-miterlimit: 10.000000;fill: none;"></path>
  <path d="M1348.260162 861.919983C1348.260162 833.547470,1336.987549 806.340408,1316.926666 786.279541C1296.865799 766.218658,1269.658737 754.946045,1241.286224 754.946045C1212.913712 754.946045,1185.706650 766.218658,1165.645782 786.279541C1145.584900 806.340408,1134.312286 833.547470,1134.312286 861.919983C1134.312286 890.292496,1145.584900 917.499557,1165.645782 937.560425C1185.706650 957.621307,1212.913712 968.893921,1241.286224 968.893921C1269.658737 968.893921,1296.865799 957.621307,1316.926666 937.560425C1336.987549 917.499557,1348.260162 890.292496,1348.260162 861.919983Z" style="stroke:rgb(25.500488%,41.000366%,88.400269%); stroke-width: 2.500000;stroke-linecap: round;stroke-linejoin: round;stroke-miterlimit: 10.000000;fill: none;"></path>
  <path d="M1450.796326 985.555084C1450.796326 957.182571,1439.523712 929.975510,1419.462830 909.914642C1399.401962 889.853760,1372.194901 878.581146,1343.822388 878.581146C1315.449875 878.581146,1288.242813 889.853760,1268.181946 909.914642C1248.121063 929.975510,1236.848450 957.182571,1236.848450 985.555084C1236.848450 1013.927597,1248.121063 1041.134659,1268.181946 1061.195526C1288.242813 1081.256409,1315.449875 1092.529022,1343.822388 1092.529022C1372.194901 1092.529022,1399.401962 1081.256409,1419.462830 1061.195526C1439.523712 1041.134659,1450.796326 1013.927597,1450.796326 985.555084Z" style="stroke:rgb(25.500488%,41.000366%,88.400269%); stroke-width: 2.500000;stroke-linecap: round;stroke-linejoin: round;stroke-miterlimit: 10.000000;fill: none;"></path>
  <path d="M1566.074890 1104.440964C1566.074890 1076.068451,1554.802277 1048.861389,1534.741394 1028.800522C1514.680527 1008.739639,1487.473465 997.467026,1459.100952 997.467026C1430.728439 997.467026,1403.521378 1008.739639,1383.460510 1028.800522C1363.399628 1048.861389,1352.127014 1076.068451,1352.127014 1104.440964C1352.127014 1132.813477,1363.399628 1160.020538,1383.460510 1180.081406C1403.521378 1200.142288,1430.728439 1211.414902,1459.100952 1211.414902C1487.473465 1211.414902,1514.680527 1200.142288,1534.741394 1180.081406C1554.802277 1160.020538,1566.074890 1132.813477,1566.074890 1104.440964Z" style="stroke:rgb(25.500488%,41.000366%,88.400269%); stroke-width: 2.500000;stroke-linecap: round;stroke-linejoin: round;stroke-miterlimit: 10.000000;fill: none;"></path>
  <path d="M916.147217 146.437683C916.147217 118.065170,904.874603 90.858109,884.813721 70.797241C864.752853 50.736359,837.545792 39.463745,809.173279 39.463745C780.800766 39.463745,753.593704 50.736359,733.532837 70.797241C713.471954 90.858109,702.199341 118.065170,702.199341 146.437683C702.199341 174.810196,713.471954 202.017258,733.532837 222.078125C753.593704 242.139008,780.800766 253.411621,809.173279 253.411621C837.545792 253.411621,864.752853 242.139008,884.813721 222.078125C904.874603 202.017258,916.147217 174.810196,916.147217 146.437683Z" style="stroke:rgb(25.500488%,41.000366%,88.400269%); stroke-width: 2.500000;stroke-linecap: round;stroke-linejoin: round;stroke-miterlimit: 10.000000;fill: none;"></path>
  <path d="M1065.799133 269.800278C1065.799133 241.427765,1054.526520 214.220703,1034.465637 194.159836C1014.404770 174.098953,987.197708 162.826340,958.825195 162.826340C930.452682 162.826340,903.245621 174.098953,883.184753 194.159836C863.123871 214.220703,851.851257 241.427765,851.851257 269.800278C851.851257 298.172791,863.123871 325.379852,883.184753 345.440720C903.245621 365.501602,930.452682 376.774216,958.825195 376.774216C987.197708 376.774216,1014.404770 365.501602,1034.465637 345.440720C1054.526520 325.379852,1065.799133 298.172791,1065.799133 269.800278Z" style="stroke:rgb(25.500488%,41.000366%,88.400269%); stroke-width: 2.500000;stroke-linecap: round;stroke-linejoin: round;stroke-miterlimit: 10.000000;fill: none;"></path>
  <path d="M1181.869232 370.805267C1181.869232 342.432755,1170.596619 315.225693,1150.535736 295.164825C1130.474869 275.103943,1103.267807 263.831329,1074.895294 263.831329C1046.522781 263.831329,1019.315720 275.103943,999.254852 295.164825C979.193970 315.225693,967.921356 342.432755,967.921356 370.805267C967.921356 399.177780,979.193970 426.384842,999.254852 446.445709C1019.315720 466.506592,1046.522781 477.779205,1074.895294 477.779205C1103.267807 477.779205,1130.474869 466.506592,1150.535736 446.445709C1170.596619 426.384842,1181.869232 399.177780,1181.869232 370.805267Z" style="stroke:rgb(25.500488%,41.000366%,88.400269%); stroke-width: 2.500000;stroke-linecap: round;stroke-linejoin: round;stroke-miterlimit: 10.000000;fill: none;"></path>
  <path d="M1279.124176 535.911591C1279.124176 507.539078,1267.851562 480.332016,1247.790680 460.271149C1227.729813 440.210266,1200.522751 428.937653,1172.150238 428.937653C1143.777725 428.937653,1116.570663 440.210266,1096.509796 460.271149C1076.448914 480.332016,1065.176300 507.539078,1065.176300 535.911591C1065.176300 564.284103,1076.448914 591.491165,1096.509796 611.552032C1116.570663 631.612915,1143.777725 642.885529,1172.150238 642.885529C1200.522751 642.885529,1227.729813 631.612915,1247.790680 611.552032C1267.851562 591.491165,1279.124176 564.284103,1279.124176 535.911591Z" style="stroke:rgb(25.500488%,41.000366%,88.400269%); stroke-width: 2.500000;stroke-linecap: round;stroke-linejoin: round;stroke-miterlimit: 10.000000;fill: none;"></path>
  <path d="M1393.935593 684.369720C1393.935593 655.997208,1382.662979 628.790146,1362.602097 608.729279C1342.541229 588.668396,1315.334167 577.395782,1286.961655 577.395782C1258.589142 577.395782,1231.382080 588.668396,1211.321213 608.729279C1191.260330 628.790146,1179.987717 655.997208,1179.987717 684.369720C1179.987717 712.742233,1191.260330 739.949295,1211.321213 760.010162C1231.382080 780.071045,1258.589142 791.343658,1286.961655 791.343658C1315.334167 791.343658,1342.541229 780.071045,1362.602097 760.010162C1382.662979 739.949295,1393.935593 712.742233,1393.935593 684.369720Z" style="stroke:rgb(25.500488%,41.000366%,88.400269%); stroke-width: 2.500000;stroke-linecap: round;stroke-linejoin: round;stroke-miterlimit: 10.000000;fill: none;"></path>
  <path d="M1530.170364 803.592987C1530.170364 775.220474,1518.897751 748.013412,1498.836868 727.952545C1478.776001 707.891663,1451.568939 696.619049,1423.196426 696.619049C1394.823914 696.619049,1367.616852 707.891663,1347.555984 727.952545C1327.495102 748.013412,1316.222488 775.220474,1316.222488 803.592987C1316.222488 831.965500,1327.495102 859.172562,1347.555984 879.233429C1367.616852 899.294312,1394.823914 910.566925,1423.196426 910.566925C1451.568939 910.566925,1478.776001 899.294312,1498.836868 879.233429C1518.897751 859.172562,1530.170364 831.965500,1530.170364 803.592987Z" style="stroke:rgb(25.500488%,41.000366%,88.400269%); stroke-width: 2.500000;stroke-linecap: round;stroke-linejoin: round;stroke-miterlimit: 10.000000;fill: none;"></path>
  <path d="M1632.732483 927.059387C1632.732483 898.686874,1621.459869 871.479813,1601.398987 851.418945C1581.338120 831.358063,1554.131058 820.085449,1525.758545 820.085449C1497.386032 820.085449,1470.178970 831.358063,1450.118103 851.418945C1430.057220 871.479813,1418.784607 898.686874,1418.784607 927.059387C1418.784607 955.431900,1430.057220 982.638962,1450.118103 1002.699829C1470.178970 1022.760712,1497.386032 1034.033325,1525.758545 1034.033325C1554.131058 1034.033325,1581.338120 1022.760712,1601.398987 1002.699829C1621.459869 982.638962,1632.732483 955.431900,1632.732483 927.059387Z" style="stroke:rgb(25.500488%,41.000366%,88.400269%); stroke-width: 2.500000;stroke-linecap: round;stroke-linejoin: round;stroke-miterlimit: 10.000000;fill: none;"></path>
  <path d="M1241.909073 182.705536C1241.909073 154.333023,1230.636459 127.125961,1210.575577 107.065094C1190.514709 87.004211,1163.307648 75.731598,1134.935135 75.731598C1106.562622 75.731598,1079.355560 87.004211,1059.294693 107.065094C1039.233810 127.125961,1027.961197 154.333023,1027.961197 182.705536C1027.961197 211.078049,1039.233810 238.285110,1059.294693 258.345978C1079.355560 278.406860,1106.562622 289.679474,1134.935135 289.679474C1163.307648 289.679474,1190.514709 278.406860,1210.575577 258.345978C1230.636459 238.285110,1241.909073 211.078049,1241.909073 182.705536Z" style="stroke:rgb(25.500488%,41.000366%,88.400269%); stroke-width: 2.500000;stroke-linecap: round;stroke-linejoin: round;stroke-miterlimit: 10.000000;fill: none;"></path>
  <path d="M1333.895767 357.063721C1333.895767 328.691208,1322.623154 301.484146,1302.562271 281.423279C1282.501404 261.362396,1255.294342 250.089783,1226.921829 250.089783C1198.549316 250.089783,1171.342255 261.362396,1151.281387 281.423279C1131.220505 301.484146,1119.947891 328.691208,1119.947891 357.063721C1119.947891 385.436234,1131.220505 412.643295,1151.281387 432.704163C1171.342255 452.765045,1198.549316 464.037659,1226.921829 464.037659C1255.294342 464.037659,1282.501404 452.765045,1302.562271 432.704163C1322.623154 412.643295,1333.895767 385.436234,1333.895767 357.063721Z" style="stroke:rgb(25.500488%,41.000366%,88.400269%); stroke-width: 2.500000;stroke-linecap: round;stroke-linejoin: round;stroke-miterlimit: 10.000000;fill: none;"></path>
  <path d="M1454.196030 504.509720C1454.196030 476.137207,1442.923416 448.930145,1422.862534 428.869278C1402.801666 408.808395,1375.594604 397.535782,1347.222092 397.535782C1318.849579 397.535782,1291.642517 408.808395,1271.581650 428.869278C1251.520767 448.930145,1240.248154 476.137207,1240.248154 504.509720C1240.248154 532.882233,1251.520767 560.089294,1271.581650 580.150162C1291.642517 600.211044,1318.849579 611.483658,1347.222092 611.483658C1375.594604 611.483658,1402.801666 600.211044,1422.862534 580.150162C1442.923416 560.089294,1454.196030 532.882233,1454.196030 504.509720Z" style="stroke:rgb(25.500488%,41.000366%,88.400269%); stroke-width: 2.500000;stroke-linecap: round;stroke-linejoin: round;stroke-miterlimit: 10.000000;fill: none;"></path>
  <path d="M1575.080215 634.788513C1575.080215 606.416000,1563.807602 579.208939,1543.746719 559.148071C1523.685852 539.087189,1496.478790 527.814575,1468.106277 527.814575C1439.733765 527.814575,1412.526703 539.087189,1392.465836 559.148071C1372.404953 579.208939,1361.132339 606.416000,1361.132339 634.788513C1361.132339 663.161026,1372.404953 690.368088,1392.465836 710.428955C1412.526703 730.489838,1439.733765 741.762451,1468.106277 741.762451C1496.478790 741.762451,1523.685852 730.489838,1543.746719 710.428955C1563.807602 690.368088,1575.080215 663.161026,1575.080215 634.788513Z" style="stroke:rgb(25.500488%,41.000366%,88.400269%); stroke-width: 2.500000;stroke-linecap: round;stroke-linejoin: round;stroke-miterlimit: 10.000000;fill: none;"></path>
  <path d="M1718.023560 751.611221C1718.023560 723.238708,1706.750946 696.031647,1686.690063 675.970779C1666.629196 655.909897,1639.422134 644.637283,1611.049622 644.637283C1582.677109 644.637283,1555.470047 655.909897,1535.409180 675.970779C1515.348297 696.031647,1504.075684 723.238708,1504.075684 751.611221C1504.075684 779.983734,1515.348297 807.190796,1535.409180 827.251663C1555.470047 847.312546,1582.677109 858.585159,1611.049622 858.585159C1639.422134 858.585159,1666.629196 847.312546,1686.690063 827.251663C1706.750946 807.190796,1718.023560 779.983734,1718.023560 751.611221Z" style="stroke:rgb(25.500488%,41.000366%,88.400269%); stroke-width: 2.500000;stroke-linecap: round;stroke-linejoin: round;stroke-miterlimit: 10.000000;fill: none;"></path>
  <path d="M1625.686523 446.052948C1625.686523 417.680435,1614.413910 390.473373,1594.353027 370.412506C1574.292160 350.351624,1547.085098 339.079010,1518.712585 339.079010C1490.340073 339.079010,1463.133011 350.351624,1443.072144 370.412506C1423.011261 390.473373,1411.738647 417.680435,1411.738647 446.052948C1411.738647 474.425461,1423.011261 501.632523,1443.072144 521.693390C1463.133011 541.754272,1490.340073 553.026886,1518.712585 553.026886C1547.085098 553.026886,1574.292160 541.754272,1594.353027 521.693390C1614.413910 501.632523,1625.686523 474.425461,1625.686523 446.052948Z" style="stroke:rgb(25.500488%,41.000366%,88.400269%); stroke-width: 2.500000;stroke-linecap: round;stroke-linejoin: round;stroke-miterlimit: 10.000000;fill: none;"></path>
  <path d="M1524.032730 345.463196C1524.032730 317.090683,1512.760117 289.883621,1492.699234 269.822754C1472.638367 249.761871,1445.431305 238.489258,1417.058792 238.489258C1388.686279 238.489258,1361.479218 249.761871,1341.418350 269.822754C1321.357468 289.883621,1310.084854 317.090683,1310.084854 345.463196C1310.084854 373.835709,1321.357468 401.042770,1341.418350 421.103638C1361.479218 441.164520,1388.686279 452.437134,1417.058792 452.437134C1445.431305 452.437134,1472.638367 441.164520,1492.699234 421.103638C1512.760117 401.042770,1524.032730 373.835709,1524.032730 345.463196Z" style="stroke:rgb(25.500488%,41.000366%,88.400269%); stroke-width: 2.500000;stroke-linecap: round;stroke-linejoin: round;stroke-miterlimit: 10.000000;fill: none;"></path>
  <path d="M1240.196243 1626.944565C1240.196243 1598.572052,1228.923630 1571.364990,1208.862747 1551.304123C1188.801880 1531.243240,1161.594818 1519.970627,1133.222305 1519.970627C1104.849792 1519.970627,1077.642731 1531.243240,1057.581863 1551.304123C1037.520981 1571.364990,1026.248367 1598.572052,1026.248367 1626.944565C1026.248367 1655.317078,1037.520981 1682.524139,1057.581863 1702.585007C1077.642731 1722.645889,1104.849792 1733.918503,1133.222305 1733.918503C1161.594818 1733.918503,1188.801880 1722.645889,1208.862747 1702.585007C1228.923630 1682.524139,1240.196243 1655.317078,1240.196243 1626.944565Z" style="stroke:rgb(25.500488%,41.000366%,88.400269%); stroke-width: 2.500000;stroke-linecap: round;stroke-linejoin: round;stroke-miterlimit: 10.000000;fill: none;"></path>
  <path d="M1751.605392 1049.630447C1751.605392 1021.257935,1740.332779 994.050873,1720.271896 973.990005C1700.211029 953.929123,1673.003967 942.656509,1644.631454 942.656509C1616.258942 942.656509,1589.051880 953.929123,1568.991013 973.990005C1548.930130 994.050873,1537.657516 1021.257935,1537.657516 1049.630447C1537.657516 1078.002960,1548.930130 1105.210022,1568.991013 1125.270889C1589.051880 1145.331772,1616.258942 1156.604385,1644.631454 1156.604385C1673.003967 1156.604385,1700.211029 1145.331772,1720.271896 1125.270889C1740.332779 1105.210022,1751.605392 1078.002960,1751.605392 1049.630447Z" style="stroke:rgb(25.500488%,41.000366%,88.400269%); stroke-width: 2.500000;stroke-linecap: round;stroke-linejoin: round;stroke-miterlimit: 10.000000;fill: none;"></path>
  <path d="M1688.360489 1212.037750C1688.360489 1183.665237,1677.087875 1156.458176,1657.026993 1136.397308C1636.966125 1116.336426,1609.759064 1105.063812,1581.386551 1105.063812C1553.014038 1105.063812,1525.806976 1116.336426,1505.746109 1136.397308C1485.685226 1156.458176,1474.412613 1183.665237,1474.412613 1212.037750C1474.412613 1240.410263,1485.685226 1267.617325,1505.746109 1287.678192C1525.806976 1307.739075,1553.014038 1319.011688,1581.386551 1319.011688C1609.759064 1319.011688,1636.966125 1307.739075,1657.026993 1287.678192C1677.087875 1267.617325,1688.360489 1240.410263,1688.360489 1212.037750Z" style="stroke:rgb(25.500488%,41.000366%,88.400269%); stroke-width: 2.500000;stroke-linecap: round;stroke-linejoin: round;stroke-miterlimit: 10.000000;fill: none;"></path>
  <path d="M333.863297 1307.333328C333.863297 1278.960815,322.590683 1251.753754,302.529800 1231.692886C282.468933 1211.632004,255.261871 1200.359390,226.889359 1200.359390C198.516846 1200.359390,171.309784 1211.632004,151.248917 1231.692886C131.188034 1251.753754,119.915421 1278.960815,119.915421 1307.333328C119.915421 1335.705841,131.188034 1362.912903,151.248917 1382.973770C171.309784 1403.034653,198.516846 1414.307266,226.889359 1414.307266C255.261871 1414.307266,282.468933 1403.034653,302.529800 1382.973770C322.590683 1362.912903,333.863297 1335.705841,333.863297 1307.333328Z" style="stroke:rgb(25.500488%,41.000366%,88.400269%); stroke-width: 2.500000;stroke-linecap: round;stroke-linejoin: round;stroke-miterlimit: 10.000000;fill: none;"></path>
  <path d="M364.694214 424.019745C364.694214 395.647232,353.421600 368.440170,333.360718 348.379303C313.299850 328.318420,286.092789 317.045807,257.720276 317.045807C229.347763 317.045807,202.140701 328.318420,182.079834 348.379303C162.018951 368.440170,150.746338 395.647232,150.746338 424.019745C150.746338 452.392258,162.018951 479.599319,182.079834 499.660187C202.140701 519.721069,229.347763 530.993683,257.720276 530.993683C286.092789 530.993683,313.299850 519.721069,333.360718 499.660187C353.421600 479.599319,364.694214 452.392258,364.694214 424.019745Z" style="stroke:rgb(25.500488%,41.000366%,88.400269%); stroke-width: 2.500000;stroke-linecap: round;stroke-linejoin: round;stroke-miterlimit: 10.000000;fill: none;"></path>
  <path d="M308.962387 605.086502C308.962387 576.713989,297.689774 549.506927,277.628891 529.446060C257.568024 509.385178,230.360962 498.112564,201.988449 498.112564C173.615936 498.112564,146.408875 509.385178,126.348007 529.446060C106.287125 549.506927,95.014511 576.713989,95.014511 605.086502C95.014511 633.459015,106.287125 660.666077,126.348007 680.726944C146.408875 700.787827,173.615936 712.060440,201.988449 712.060440C230.360962 712.060440,257.568024 700.787827,277.628891 680.726944C297.689774 660.666077,308.962387 633.459015,308.962387 605.086502Z" style="stroke:rgb(25.500488%,41.000366%,88.400269%); stroke-width: 2.500000;stroke-linecap: round;stroke-linejoin: round;stroke-miterlimit: 10.000000;fill: none;"></path>
  <path d="M588.166458 216.936157C588.166458 188.563644,576.893845 161.356583,556.832962 141.295715C536.772095 121.234833,509.565033 109.962219,481.192520 109.962219C452.820007 109.962219,425.612946 121.234833,405.552078 141.295715C385.491196 161.356583,374.218582 188.563644,374.218582 216.936157C374.218582 245.308670,385.491196 272.515732,405.552078 292.576599C425.612946 312.637482,452.820007 323.910095,481.192520 323.910095C509.565033 323.910095,536.772095 312.637482,556.832962 292.576599C576.893845 272.515732,588.166458 245.308670,588.166458 216.936157Z" style="stroke:rgb(25.500488%,41.000366%,88.400269%); stroke-width: 2.500000;stroke-linecap: round;stroke-linejoin: round;stroke-miterlimit: 10.000000;fill: none;"></path>
  <path d="M1104.506470 108.067719C1104.506470 79.695206,1093.233856 52.488144,1073.172974 32.427277C1053.112106 12.366394,1025.905045 1.093781,997.532532 1.093781C969.160019 1.093781,941.952957 12.366394,921.892090 32.427277C901.831207 52.488144,890.558594 79.695206,890.558594 108.067719C890.558594 136.440231,901.831207 163.647293,921.892090 183.708160C941.952957 203.769043,969.160019 215.041656,997.532532 215.041656C1025.905045 215.041656,1053.112106 203.769043,1073.172974 183.708160C1093.233856 163.647293,1104.506470 136.440231,1104.506470 108.067719Z" style="stroke:rgb(25.500488%,41.000366%,88.400269%); stroke-width: 2.500000;stroke-linecap: round;stroke-linejoin: round;stroke-miterlimit: 10.000000;fill: none;"></path>
  <path d="M258.485855 782.065842C258.485855 753.693329,247.213242 726.486267,227.152359 706.425400C207.091492 686.364517,179.884430 675.091904,151.511917 675.091904C123.139404 675.091904,95.932343 686.364517,75.871475 706.425400C55.810593 726.486267,44.537979 753.693329,44.537979 782.065842C44.537979 810.438354,55.810593 837.645416,75.871475 857.706284C95.932343 877.767166,123.139404 889.039780,151.511917 889.039780C179.884430 889.039780,207.091492 877.767166,227.152359 857.706284C247.213242 837.645416,258.485855 810.438354,258.485855 782.065842Z" style="stroke:rgb(25.500488%,41.000366%,88.400269%); stroke-width: 2.500000;stroke-linecap: round;stroke-linejoin: round;stroke-miterlimit: 10.000000;fill: none;"></path>
  <path d="M451.205032 1460.073532C451.205032 1431.701019,439.932419 1404.493958,419.871536 1384.433090C399.810669 1364.372208,372.603607 1353.099594,344.231094 1353.099594C315.858582 1353.099594,288.651520 1364.372208,268.590652 1384.433090C248.529770 1404.493958,237.257156 1431.701019,237.257156 1460.073532C237.257156 1488.446045,248.529770 1515.653107,268.590652 1535.713974C288.651520 1555.774857,315.858582 1567.047470,344.231094 1567.047470C372.603607 1567.047470,399.810669 1555.774857,419.871536 1535.713974C439.932419 1515.653107,451.205032 1488.446045,451.205032 1460.073532Z" style="stroke:rgb(25.500488%,41.000366%,88.400269%); stroke-width: 2.500000;stroke-linecap: round;stroke-linejoin: round;stroke-miterlimit: 10.000000;fill: none;"></path>
  <path d="M214.445389 949.468903C214.445389 921.096390,203.172775 893.889328,183.111893 873.828461C163.051025 853.767578,135.843964 842.494965,107.471451 842.494965C79.098938 842.494965,51.891876 853.767578,31.831009 873.828461C11.770126 893.889328,0.497513 921.096390,0.497513 949.468903C0.497513 977.841415,11.770126 1005.048477,31.831009 1025.109344C51.891876 1045.170227,79.098938 1056.442841,107.471451 1056.442841C135.843964 1056.442841,163.051025 1045.170227,183.111893 1025.109344C203.172775 1005.048477,214.445389 977.841415,214.445389 949.468903Z" style="stroke:rgb(25.500488%,41.000366%,88.400269%); stroke-width: 2.500000;stroke-linecap: round;stroke-linejoin: round;stroke-miterlimit: 10.000000;fill: none;"></path>
  <path d="M1398.957306 199.159073C1398.957306 170.786560,1387.684692 143.579498,1367.623810 123.518631C1347.562943 103.457748,1320.355881 92.185135,1291.983368 92.185135C1263.610855 92.185135,1236.403793 103.457748,1216.342926 123.518631C1196.282043 143.579498,1185.009430 170.786560,1185.009430 199.159073C1185.009430 227.531586,1196.282043 254.738647,1216.342926 274.799515C1236.403793 294.860397,1263.610855 306.133011,1291.983368 306.133011C1320.355881 306.133011,1347.562943 294.860397,1367.623810 274.799515C1387.684692 254.738647,1398.957306 227.531586,1398.957306 199.159073Z" style="stroke:rgb(25.500488%,41.000366%,88.400269%); stroke-width: 2.500000;stroke-linecap: round;stroke-linejoin: round;stroke-miterlimit: 10.000000;fill: none;"></path>
  <path d="M1820.585678 874.947876C1820.585678 846.575363,1809.313065 819.368301,1789.252182 799.307434C1769.191315 779.246552,1741.984253 767.973938,1713.611740 767.973938C1685.239227 767.973938,1658.032166 779.246552,1637.971298 799.307434C1617.910416 819.368301,1606.637802 846.575363,1606.637802 874.947876C1606.637802 903.320389,1617.910416 930.527451,1637.971298 950.588318C1658.032166 970.649200,1685.239227 981.921814,1713.611740 981.921814C1741.984253 981.921814,1769.191315 970.649200,1789.252182 950.588318C1809.313065 930.527451,1820.585678 903.320389,1820.585678 874.947876Z" style="stroke:rgb(25.500488%,41.000366%,88.400269%); stroke-width: 2.500000;stroke-linecap: round;stroke-linejoin: round;stroke-miterlimit: 10.000000;fill: none;"></path>
  <path d="M1745.363937 580.886307C1745.363937 552.513794,1734.091324 525.306732,1714.030441 505.245865C1693.969574 485.184982,1666.762512 473.912369,1638.389999 473.912369C1610.017487 473.912369,1582.810425 485.184982,1562.749557 505.245865C1542.688675 525.306732,1531.416061 552.513794,1531.416061 580.886307C1531.416061 609.258820,1542.688675 636.465881,1562.749557 656.526749C1582.810425 676.587631,1610.017487 687.860245,1638.389999 687.860245C1666.762512 687.860245,1693.969574 676.587631,1714.030441 656.526749C1734.091324 636.465881,1745.363937 609.258820,1745.363937 580.886307Z" style="stroke:rgb(25.500488%,41.000366%,88.400269%); stroke-width: 2.500000;stroke-linecap: round;stroke-linejoin: round;stroke-miterlimit: 10.000000;fill: none;"></path>
  <path d="M1647.006042 1383.982407C1647.006042 1355.609894,1635.733429 1328.402832,1615.672546 1308.341965C1595.611679 1288.281082,1568.404617 1277.008469,1540.032104 1277.008469C1511.659592 1277.008469,1484.452530 1288.281082,1464.391663 1308.341965C1444.330780 1328.402832,1433.058167 1355.609894,1433.058167 1383.982407C1433.058167 1412.354919,1444.330780 1439.561981,1464.391663 1459.622849C1484.452530 1479.683731,1511.659592 1490.956345,1540.032104 1490.956345C1568.404617 1490.956345,1595.611679 1479.683731,1615.672546 1459.622849C1635.733429 1439.561981,1647.006042 1412.354919,1647.006042 1383.982407Z" style="stroke:rgb(25.500488%,41.000366%,88.400269%); stroke-width: 2.500000;stroke-linecap: round;stroke-linejoin: round;stroke-miterlimit: 10.000000;fill: none;"></path>
</svg>
