<?xml version="1.0"?>
<!-- Created by MetaPost 2.00 on 2022.03.02:1201 -->
<svg version="1.1" xmlns="http://www.w3.org/2000/svg" xmlns:xlink="http://www.w3.org/1999/xlink" width="1807.393295" height="1728.304718" viewBox="0 0 1807.393295 1728.304718">
<!-- Original BoundingBox: -904.144318 -851.578644 903.248978 876.726074 -->
  <path d="M904.000000 25.606476L357.374054 224.567108L66.530548 728.333405L167.535538 1301.196762L613.143509 1675.112473L1194.856491 1675.112473L1640.464462 1301.196762L1741.469452 728.333405L1450.625946 224.567108L904.000000 25.606476Z" style="fill: rgb(100.000000%,100.000000%,100.000000%);stroke: none;"></path>
  <path d="M904.000000 25.606476L357.374054 224.567108" style="stroke:rgb(0.000000%,0.000000%,0.000000%); stroke-width: 2.500000;stroke-linecap: round;stroke-linejoin: round;stroke-miterlimit: 10.000000;fill: none;"></path>
  <path d="M357.374054 224.567108L66.530548 728.333405" style="stroke:rgb(0.000000%,0.000000%,0.000000%); stroke-width: 2.500000;stroke-linecap: round;stroke-linejoin: round;stroke-miterlimit: 10.000000;fill: none;"></path>
  <path d="M66.530548 728.333405L167.535538 1301.196762" style="stroke:rgb(0.000000%,0.000000%,0.000000%); stroke-width: 2.500000;stroke-linecap: round;stroke-linejoin: round;stroke-miterlimit: 10.000000;fill: none;"></path>
  <path d="M167.535538 1301.196762L613.143509 1675.112473" style="stroke:rgb(0.000000%,0.000000%,0.000000%); stroke-width: 2.500000;stroke-linecap: round;stroke-linejoin: round;stroke-miterlimit: 10.000000;fill: none;"></path>
  <path d="M613.143509 1675.112473L1194.856491 1675.112473" style="stroke:rgb(0.000000%,0.000000%,0.000000%); stroke-width: 2.500000;stroke-linecap: round;stroke-linejoin: round;stroke-miterlimit: 10.000000;fill: none;"></path>
  <path d="M1194.856491 1675.112473L1640.464462 1301.196762" style="stroke:rgb(0.000000%,0.000000%,0.000000%); stroke-width: 2.500000;stroke-linecap: round;stroke-linejoin: round;stroke-miterlimit: 10.000000;fill: none;"></path>
  <path d="M1640.464462 1301.196762L1741.469452 728.333405" style="stroke:rgb(0.000000%,0.000000%,0.000000%); stroke-width: 2.500000;stroke-linecap: round;stroke-linejoin: round;stroke-miterlimit: 10.000000;fill: none;"></path>
  <path d="M1741.469452 728.333405L1450.625946 224.567108" style="stroke:rgb(0.000000%,0.000000%,0.000000%); stroke-width: 2.500000;stroke-linecap: round;stroke-linejoin: round;stroke-miterlimit: 10.000000;fill: none;"></path>
  <path d="M1450.625946 224.567108L904.000000 25.606476" style="stroke:rgb(0.000000%,0.000000%,0.000000%); stroke-width: 2.500000;stroke-linecap: round;stroke-linejoin: round;stroke-miterlimit: 10.000000;fill: none;"></path>
  <path d="M1805.998978 754.077728C1805.998978 724.025711,1794.059082 695.208145,1772.810715 673.959778C1751.562347 652.711411,1722.744781 640.771515,1692.692764 640.771515C1662.640747 640.771515,1633.823181 652.711411,1612.574814 673.959778C1591.326447 695.208145,1579.386551 724.025711,1579.386551 754.077728C1579.386551 784.129745,1591.326447 812.947311,1612.574814 834.195679C1633.823181 855.444046,1662.640747 867.383942,1692.692764 867.383942C1722.744781 867.383942,1751.562347 855.444046,1772.810715 834.195679C1794.059082 812.947311,1805.998978 784.129745,1805.998978 754.077728Z" style="stroke:rgb(25.500488%,41.000366%,88.400269%); stroke-width: 2.500000;stroke-linecap: round;stroke-linejoin: round;stroke-miterlimit: 10.000000;fill: none;"></path>
  <path d="M1705.123749 585.831238C1705.123749 555.779221,1693.183853 526.961655,1671.935486 505.713287C1650.687119 484.464920,1621.869553 472.525024,1591.817535 472.525024C1561.765518 472.525024,1532.947952 484.464920,1511.699585 505.713287C1490.451218 526.961655,1478.511322 555.779221,1478.511322 585.831238C1478.511322 615.883255,1490.451218 644.700821,1511.699585 665.949188C1532.947952 687.197556,1561.765518 699.137451,1591.817535 699.137451C1621.869553 699.137451,1650.687119 687.197556,1671.935486 665.949188C1693.183853 644.700821,1705.123749 615.883255,1705.123749 585.831238Z" style="stroke:rgb(25.500488%,41.000366%,88.400269%); stroke-width: 2.500000;stroke-linecap: round;stroke-linejoin: round;stroke-miterlimit: 10.000000;fill: none;"></path>
  <path d="M1607.881775 417.805328C1607.881775 387.753311,1595.941879 358.935745,1574.693512 337.687378C1553.445145 316.439011,1524.627579 304.499115,1494.575562 304.499115C1464.523544 304.499115,1435.705978 316.439011,1414.457611 337.687378C1393.209244 358.935745,1381.269348 387.753311,1381.269348 417.805328C1381.269348 447.857346,1393.209244 476.674911,1414.457611 497.923279C1435.705978 519.171646,1464.523544 531.111542,1494.575562 531.111542C1524.627579 531.111542,1553.445145 519.171646,1574.693512 497.923279C1595.941879 476.674911,1607.881775 447.857346,1607.881775 417.805328Z" style="stroke:rgb(25.500488%,41.000366%,88.400269%); stroke-width: 2.500000;stroke-linecap: round;stroke-linejoin: round;stroke-miterlimit: 10.000000;fill: none;"></path>
  <path d="M1512.910614 246.224014C1512.910614 216.171997,1500.970718 187.354431,1479.722351 166.106064C1458.473984 144.857697,1429.656418 132.917801,1399.604401 132.917801C1369.552383 132.917801,1340.734818 144.857697,1319.486450 166.106064C1298.238083 187.354431,1286.298187 216.171997,1286.298187 246.224014C1286.298187 276.276031,1298.238083 305.093597,1319.486450 326.341965C1340.734818 347.590332,1369.552383 359.530228,1399.604401 359.530228C1429.656418 359.530228,1458.473984 347.590332,1479.722351 326.341965C1500.970718 305.093597,1512.910614 276.276031,1512.910614 246.224014Z" style="stroke:rgb(25.500488%,41.000366%,88.400269%); stroke-width: 2.500000;stroke-linecap: round;stroke-linejoin: round;stroke-miterlimit: 10.000000;fill: none;"></path>
  <path d="M1769.536484 1093.555206C1769.536484 1063.503189,1757.596588 1034.685623,1736.348221 1013.437256C1715.099854 992.188889,1686.282288 980.248993,1656.230270 980.248993C1626.178253 980.248993,1597.360687 992.188889,1576.112320 1013.437256C1554.863953 1034.685623,1542.924057 1063.503189,1542.924057 1093.555206C1542.924057 1123.607224,1554.863953 1152.424789,1576.112320 1173.673157C1597.360687 1194.921524,1626.178253 1206.861420,1656.230270 1206.861420C1686.282288 1206.861420,1715.099854 1194.921524,1736.348221 1173.673157C1757.596588 1152.424789,1769.536484 1123.607224,1769.536484 1093.555206Z" style="stroke:rgb(25.500488%,41.000366%,88.400269%); stroke-width: 2.500000;stroke-linecap: round;stroke-linejoin: round;stroke-miterlimit: 10.000000;fill: none;"></path>
  <path d="M1726.715759 909.594803C1726.715759 879.542786,1714.775864 850.725220,1693.527496 829.476852C1672.279129 808.228485,1643.461563 796.288589,1613.409546 796.288589C1583.357529 796.288589,1554.539963 808.228485,1533.291595 829.476852C1512.043228 850.725220,1500.103333 879.542786,1500.103333 909.594803C1500.103333 939.646820,1512.043228 968.464386,1533.291595 989.712753C1554.539963 1010.961121,1583.357529 1022.901016,1613.409546 1022.901016C1643.461563 1022.901016,1672.279129 1010.961121,1693.527496 989.712753C1714.775864 968.464386,1726.715759 939.646820,1726.715759 909.594803Z" style="stroke:rgb(25.500488%,41.000366%,88.400269%); stroke-width: 2.500000;stroke-linecap: round;stroke-linejoin: round;stroke-miterlimit: 10.000000;fill: none;"></path>
  <path d="M1608.751175 755.738663C1608.751175 725.686646,1596.811279 696.869080,1575.562912 675.620712C1554.314545 654.372345,1525.496979 642.432449,1495.444962 642.432449C1465.392944 642.432449,1436.575378 654.372345,1415.327011 675.620712C1394.078644 696.869080,1382.138748 725.686646,1382.138748 755.738663C1382.138748 785.790680,1394.078644 814.608246,1415.327011 835.856613C1436.575378 857.104980,1465.392944 869.044876,1495.444962 869.044876C1525.496979 869.044876,1554.314545 857.104980,1575.562912 835.856613C1596.811279 814.608246,1608.751175 785.790680,1608.751175 755.738663Z" style="stroke:rgb(25.500488%,41.000366%,88.400269%); stroke-width: 2.500000;stroke-linecap: round;stroke-linejoin: round;stroke-miterlimit: 10.000000;fill: none;"></path>
  <path d="M1507.759155 587.725723C1507.759155 557.673706,1495.819260 528.856140,1474.570892 507.607773C1453.322525 486.359406,1424.504959 474.419510,1394.452942 474.419510C1364.400925 474.419510,1335.583359 486.359406,1314.334991 507.607773C1293.086624 528.856140,1281.146729 557.673706,1281.146729 587.725723C1281.146729 617.777740,1293.086624 646.595306,1314.334991 667.843674C1335.583359 689.092041,1364.400925 701.031937,1394.452942 701.031937C1424.504959 701.031937,1453.322525 689.092041,1474.570892 667.843674C1495.819260 646.595306,1507.759155 617.777740,1507.759155 587.725723Z" style="stroke:rgb(25.500488%,41.000366%,88.400269%); stroke-width: 2.500000;stroke-linecap: round;stroke-linejoin: round;stroke-miterlimit: 10.000000;fill: none;"></path>
  <path d="M1412.567398 416.131439C1412.567398 386.079422,1400.627502 357.261856,1379.379135 336.013489C1358.130768 314.765121,1329.313202 302.825226,1299.261185 302.825226C1269.209167 302.825226,1240.391602 314.765121,1219.143234 336.013489C1197.894867 357.261856,1185.954971 386.079422,1185.954971 416.131439C1185.954971 446.183456,1197.894867 475.001022,1219.143234 496.249390C1240.391602 517.497757,1269.209167 529.437653,1299.261185 529.437653C1329.313202 529.437653,1358.130768 517.497757,1379.379135 496.249390C1400.627502 475.001022,1412.567398 446.183456,1412.567398 416.131439Z" style="stroke:rgb(25.500488%,41.000366%,88.400269%); stroke-width: 2.500000;stroke-linecap: round;stroke-linejoin: round;stroke-miterlimit: 10.000000;fill: none;"></path>
  <path d="M1332.077423 238.360565C1332.077423 208.308548,1320.137527 179.490982,1298.889160 158.242615C1277.640793 136.994247,1248.823227 125.054352,1218.771210 125.054352C1188.719193 125.054352,1159.901627 136.994247,1138.653259 158.242615C1117.404892 179.490982,1105.464996 208.308548,1105.464996 238.360565C1105.464996 268.412582,1117.404892 297.230148,1138.653259 318.478516C1159.901627 339.726883,1188.719193 351.666779,1218.771210 351.666779C1248.823227 351.666779,1277.640793 339.726883,1298.889160 318.478516C1320.137527 297.230148,1332.077423 268.412582,1332.077423 238.360565Z" style="stroke:rgb(25.500488%,41.000366%,88.400269%); stroke-width: 2.500000;stroke-linecap: round;stroke-linejoin: round;stroke-miterlimit: 10.000000;fill: none;"></path>
  <path d="M1189.549316 113.830139C1189.549316 83.778122,1177.609421 54.960556,1156.361053 33.712189C1135.112686 12.463821,1106.295120 0.523926,1076.243103 0.523926C1046.191086 0.523926,1017.373520 12.463821,996.125153 33.712189C974.876785 54.960556,962.936890 83.778122,962.936890 113.830139C962.936890 143.882156,974.876785 172.699722,996.125153 193.948090C1017.373520 215.196457,1046.191086 227.136353,1076.243103 227.136353C1106.295120 227.136353,1135.112686 215.196457,1156.361053 193.948090C1177.609421 172.699722,1189.549316 143.882156,1189.549316 113.830139Z" style="stroke:rgb(25.500488%,41.000366%,88.400269%); stroke-width: 2.500000;stroke-linecap: round;stroke-linejoin: round;stroke-miterlimit: 10.000000;fill: none;"></path>
  <path d="M1662.380875 1241.092041C1662.380875 1211.040024,1650.440979 1182.222458,1629.192612 1160.974091C1607.944244 1139.725723,1579.126678 1127.785828,1549.074661 1127.785828C1519.022644 1127.785828,1490.205078 1139.725723,1468.956711 1160.974091C1447.708344 1182.222458,1435.768448 1211.040024,1435.768448 1241.092041C1435.768448 1271.144058,1447.708344 1299.961624,1468.956711 1321.209991C1490.205078 1342.458359,1519.022644 1354.398254,1549.074661 1354.398254C1579.126678 1354.398254,1607.944244 1342.458359,1629.192612 1321.209991C1650.440979 1299.961624,1662.380875 1271.144058,1662.380875 1241.092041Z" style="stroke:rgb(25.500488%,41.000366%,88.400269%); stroke-width: 2.500000;stroke-linecap: round;stroke-linejoin: round;stroke-miterlimit: 10.000000;fill: none;"></path>
  <path d="M1585.848572 1066.526245C1585.848572 1036.474228,1573.908676 1007.656662,1552.660309 986.408295C1531.411942 965.159927,1502.594376 953.220032,1472.542358 953.220032C1442.490341 953.220032,1413.672775 965.159927,1392.424408 986.408295C1371.176041 1007.656662,1359.236145 1036.474228,1359.236145 1066.526245C1359.236145 1096.578262,1371.176041 1125.395828,1392.424408 1146.644196C1413.672775 1167.892563,1442.490341 1179.832458,1472.542358 1179.832458C1502.594376 1179.832458,1531.411942 1167.892563,1552.660309 1146.644196C1573.908676 1125.395828,1585.848572 1096.578262,1585.848572 1066.526245Z" style="stroke:rgb(25.500488%,41.000366%,88.400269%); stroke-width: 2.500000;stroke-linecap: round;stroke-linejoin: round;stroke-miterlimit: 10.000000;fill: none;"></path>
  <path d="M1519.852768 919.106186C1519.852768 889.054169,1507.912872 860.236603,1486.664505 838.988235C1465.416138 817.739868,1436.598572 805.799973,1406.546555 805.799973C1376.494537 805.799973,1347.676971 817.739868,1326.428604 838.988235C1305.180237 860.236603,1293.240341 889.054169,1293.240341 919.106186C1293.240341 949.158203,1305.180237 977.975769,1326.428604 999.224136C1347.676971 1020.472504,1376.494537 1032.412399,1406.546555 1032.412399C1436.598572 1032.412399,1465.416138 1020.472504,1486.664505 999.224136C1507.912872 977.975769,1519.852768 949.158203,1519.852768 919.106186Z" style="stroke:rgb(25.500488%,41.000366%,88.400269%); stroke-width: 2.500000;stroke-linecap: round;stroke-linejoin: round;stroke-miterlimit: 10.000000;fill: none;"></path>
  <path d="M1411.295761 757.490417C1411.295761 727.438400,1399.355865 698.620834,1378.107498 677.372467C1356.859131 656.124100,1328.041565 644.184204,1297.989548 644.184204C1267.937531 644.184204,1239.119965 656.124100,1217.871597 677.372467C1196.623230 698.620834,1184.683334 727.438400,1184.683334 757.490417C1184.683334 787.542435,1196.623230 816.360001,1217.871597 837.608368C1239.119965 858.856735,1267.937531 870.796631,1297.989548 870.796631C1328.041565 870.796631,1356.859131 858.856735,1378.107498 837.608368C1399.355865 816.360001,1411.295761 787.542435,1411.295761 757.490417Z" style="stroke:rgb(25.500488%,41.000366%,88.400269%); stroke-width: 2.500000;stroke-linecap: round;stroke-linejoin: round;stroke-miterlimit: 10.000000;fill: none;"></path>
  <path d="M1312.353943 585.896118C1312.353943 555.844101,1300.414047 527.026535,1279.165680 505.778168C1257.917313 484.529800,1229.099747 472.589905,1199.047729 472.589905C1168.995712 472.589905,1140.178146 484.529800,1118.929779 505.778168C1097.681412 527.026535,1085.741516 555.844101,1085.741516 585.896118C1085.741516 615.948135,1097.681412 644.765701,1118.929779 666.014069C1140.178146 687.262436,1168.995712 699.202332,1199.047729 699.202332C1229.099747 699.202332,1257.917313 687.262436,1279.165680 666.014069C1300.414047 644.765701,1312.353943 615.948135,1312.353943 585.896118Z" style="stroke:rgb(25.500488%,41.000366%,88.400269%); stroke-width: 2.500000;stroke-linecap: round;stroke-linejoin: round;stroke-miterlimit: 10.000000;fill: none;"></path>
  <path d="M1222.767807 409.448807C1222.767807 379.396790,1210.827911 350.579224,1189.579544 329.330856C1168.331177 308.082489,1139.513611 296.142593,1109.461594 296.142593C1079.409576 296.142593,1050.592010 308.082489,1029.343643 329.330856C1008.095276 350.579224,996.155380 379.396790,996.155380 409.448807C996.155380 439.500824,1008.095276 468.318390,1029.343643 489.566757C1050.592010 510.815125,1079.409576 522.755020,1109.461594 522.755020C1139.513611 522.755020,1168.331177 510.815125,1189.579544 489.566757C1210.827911 468.318390,1222.767807 439.500824,1222.767807 409.448807Z" style="stroke:rgb(25.500488%,41.000366%,88.400269%); stroke-width: 2.500000;stroke-linecap: round;stroke-linejoin: round;stroke-miterlimit: 10.000000;fill: none;"></path>
  <path d="M1122.723038 281.453781C1122.723038 251.401764,1110.783142 222.584198,1089.534775 201.335831C1068.286407 180.087463,1039.468842 168.147568,1009.416824 168.147568C979.364807 168.147568,950.547241 180.087463,929.298874 201.335831C908.050507 222.584198,896.110611 251.401764,896.110611 281.453781C896.110611 311.505798,908.050507 340.323364,929.298874 361.571732C950.547241 382.820099,979.364807 394.759995,1009.416824 394.759995C1039.468842 394.759995,1068.286407 382.820099,1089.534775 361.571732C1110.783142 340.323364,1122.723038 311.505798,1122.723038 281.453781Z" style="stroke:rgb(25.500488%,41.000366%,88.400269%); stroke-width: 2.500000;stroke-linecap: round;stroke-linejoin: round;stroke-miterlimit: 10.000000;fill: none;"></path>
  <path d="M1015.243027 135.162643C1015.243027 105.110626,1003.303131 76.293060,982.054764 55.044693C960.806396 33.796326,931.988831 21.856430,901.936813 21.856430C871.884796 21.856430,843.067230 33.796326,821.818863 55.044693C800.570496 76.293060,788.630600 105.110626,788.630600 135.162643C788.630600 165.214661,800.570496 194.032227,821.818863 215.280594C843.067230 236.528961,871.884796 248.468857,901.936813 248.468857C931.988831 248.468857,960.806396 236.528961,982.054764 215.280594C1003.303131 194.032227,1015.243027 165.214661,1015.243027 135.162643Z" style="stroke:rgb(25.500488%,41.000366%,88.400269%); stroke-width: 2.500000;stroke-linecap: round;stroke-linejoin: round;stroke-miterlimit: 10.000000;fill: none;"></path>
  <path d="M1596.411026 1401.799500C1596.411026 1371.747482,1584.471130 1342.929916,1563.222763 1321.681549C1541.974396 1300.433182,1513.156830 1288.493286,1483.104813 1288.493286C1453.052795 1288.493286,1424.235229 1300.433182,1402.986862 1321.681549C1381.738495 1342.929916,1369.798599 1371.747482,1369.798599 1401.799500C1369.798599 1431.851517,1381.738495 1460.669083,1402.986862 1481.917450C1424.235229 1503.165817,1453.052795 1515.105713,1483.104813 1515.105713C1513.156830 1515.105713,1541.974396 1503.165817,1563.222763 1481.917450C1584.471130 1460.669083,1596.411026 1431.851517,1596.411026 1401.799500Z" style="stroke:rgb(25.500488%,41.000366%,88.400269%); stroke-width: 2.500000;stroke-linecap: round;stroke-linejoin: round;stroke-miterlimit: 10.000000;fill: none;"></path>
  <path d="M1482.443024 1252.744476C1482.443024 1222.692459,1470.503128 1193.874893,1449.254761 1172.626526C1428.006393 1151.378159,1399.188828 1139.438263,1369.136810 1139.438263C1339.084793 1139.438263,1310.267227 1151.378159,1289.018860 1172.626526C1267.770493 1193.874893,1255.830597 1222.692459,1255.830597 1252.744476C1255.830597 1282.796494,1267.770493 1311.614059,1289.018860 1332.862427C1310.267227 1354.110794,1339.084793 1366.050690,1369.136810 1366.050690C1399.188828 1366.050690,1428.006393 1354.110794,1449.254761 1332.862427C1470.503128 1311.614059,1482.443024 1282.796494,1482.443024 1252.744476Z" style="stroke:rgb(25.500488%,41.000366%,88.400269%); stroke-width: 2.500000;stroke-linecap: round;stroke-linejoin: round;stroke-miterlimit: 10.000000;fill: none;"></path>
  <path d="M1401.485916 1085.419266C1401.485916 1055.367249,1389.546021 1026.549683,1368.297653 1005.301315C1347.049286 984.052948,1318.231720 972.113052,1288.179703 972.113052C1258.127686 972.113052,1229.310120 984.052948,1208.061752 1005.301315C1186.813385 1026.549683,1174.873489 1055.367249,1174.873489 1085.419266C1174.873489 1115.471283,1186.813385 1144.288849,1208.061752 1165.537216C1229.310120 1186.785583,1258.127686 1198.725479,1288.179703 1198.725479C1318.231720 1198.725479,1347.049286 1186.785583,1368.297653 1165.537216C1389.546021 1144.288849,1401.485916 1115.471283,1401.485916 1085.419266Z" style="stroke:rgb(25.500488%,41.000366%,88.400269%); stroke-width: 2.500000;stroke-linecap: round;stroke-linejoin: round;stroke-miterlimit: 10.000000;fill: none;"></path>
  <path d="M1318.154205 925.256805C1318.154205 895.204788,1306.214310 866.387222,1284.965942 845.138855C1263.717575 823.890488,1234.900009 811.950592,1204.847992 811.950592C1174.795975 811.950592,1145.978409 823.890488,1124.730042 845.138855C1103.481674 866.387222,1091.541779 895.204788,1091.541779 925.256805C1091.541779 955.308823,1103.481674 984.126389,1124.730042 1005.374756C1145.978409 1026.623123,1174.795975 1038.563019,1204.847992 1038.563019C1234.900009 1038.563019,1263.717575 1026.623123,1284.965942 1005.374756C1306.214310 984.126389,1318.154205 955.308823,1318.154205 925.256805Z" style="stroke:rgb(25.500488%,41.000366%,88.400269%); stroke-width: 2.500000;stroke-linecap: round;stroke-linejoin: round;stroke-miterlimit: 10.000000;fill: none;"></path>
  <path d="M1214.865433 753.805237C1214.865433 723.753220,1202.925537 694.935654,1181.677170 673.687286C1160.428802 652.438919,1131.611237 640.499023,1101.559219 640.499023C1071.507202 640.499023,1042.689636 652.438919,1021.441269 673.687286C1000.192902 694.935654,988.253006 723.753220,988.253006 753.805237C988.253006 783.857254,1000.192902 812.674820,1021.441269 833.923187C1042.689636 855.171555,1071.507202 867.111450,1101.559219 867.111450C1131.611237 867.111450,1160.428802 855.171555,1181.677170 833.923187C1202.925537 812.674820,1214.865433 783.857254,1214.865433 753.805237Z" style="stroke:rgb(25.500488%,41.000366%,88.400269%); stroke-width: 2.500000;stroke-linecap: round;stroke-linejoin: round;stroke-miterlimit: 10.000000;fill: none;"></path>
  <path d="M1119.037857 577.293045C1119.037857 547.241028,1107.097961 518.423462,1085.849594 497.175095C1064.601227 475.926727,1035.783661 463.986832,1005.731644 463.986832C975.679626 463.986832,946.862061 475.926727,925.613693 497.175095C904.365326 518.423462,892.425430 547.241028,892.425430 577.293045C892.425430 607.345062,904.365326 636.162628,925.613693 657.410995C946.862061 678.659363,975.679626 690.599258,1005.731644 690.599258C1035.783661 690.599258,1064.601227 678.659363,1085.849594 657.410995C1107.097961 636.162628,1119.037857 607.345062,1119.037857 577.293045Z" style="stroke:rgb(25.500488%,41.000366%,88.400269%); stroke-width: 2.500000;stroke-linecap: round;stroke-linejoin: round;stroke-miterlimit: 10.000000;fill: none;"></path>
  <path d="M1015.424698 430.028702C1015.424698 399.976685,1003.484802 371.159119,982.236435 349.910751C960.988068 328.662384,932.170502 316.722488,902.118484 316.722488C872.066467 316.722488,843.248901 328.662384,822.000534 349.910751C800.752167 371.159119,788.812271 399.976685,788.812271 430.028702C788.812271 460.080719,800.752167 488.898285,822.000534 510.146652C843.248901 531.395020,872.066467 543.334915,902.118484 543.334915C932.170502 543.334915,960.988068 531.395020,982.236435 510.146652C1003.484802 488.898285,1015.424698 460.080719,1015.424698 430.028702Z" style="stroke:rgb(25.500488%,41.000366%,88.400269%); stroke-width: 2.500000;stroke-linecap: round;stroke-linejoin: round;stroke-miterlimit: 10.000000;fill: none;"></path>
  <path d="M906.647095 283.737549C906.647095 253.685532,894.707199 224.867966,873.458832 203.619598C852.210464 182.371231,823.392899 170.431335,793.340881 170.431335C763.288864 170.431335,734.471298 182.371231,713.222931 203.619598C691.974564 224.867966,680.034668 253.685532,680.034668 283.737549C680.034668 313.789566,691.974564 342.607132,713.222931 363.855499C734.471298 385.103867,763.288864 397.043762,793.340881 397.043762C823.392899 397.043762,852.210464 385.103867,873.458832 363.855499C894.707199 342.607132,906.647095 313.789566,906.647095 283.737549Z" style="stroke:rgb(25.500488%,41.000366%,88.400269%); stroke-width: 2.500000;stroke-linecap: round;stroke-linejoin: round;stroke-miterlimit: 10.000000;fill: none;"></path>
  <path d="M837.355392 114.336197C837.355392 84.284180,825.415497 55.466614,804.167130 34.218246C782.918762 12.969879,754.101196 1.029984,724.049179 1.029984C693.997162 1.029984,665.179596 12.969879,643.931229 34.218246C622.682861 55.466614,610.742966 84.284180,610.742966 114.336197C610.742966 144.388214,622.682861 173.205780,643.931229 194.454147C665.179596 215.702515,693.997162 227.642410,724.049179 227.642410C754.101196 227.642410,782.918762 215.702515,804.167130 194.454147C825.415497 173.205780,837.355392 144.388214,837.355392 114.336197Z" style="stroke:rgb(25.500488%,41.000366%,88.400269%); stroke-width: 2.500000;stroke-linecap: round;stroke-linejoin: round;stroke-miterlimit: 10.000000;fill: none;"></path>
  <path d="M1419.613358 1455.481110C1419.613358 1425.429092,1407.673462 1396.611526,1386.425095 1375.363159C1365.176727 1354.114792,1336.359161 1342.174896,1306.307144 1342.174896C1276.255127 1342.174896,1247.437561 1354.114792,1226.189194 1375.363159C1204.940826 1396.611526,1193.000931 1425.429092,1193.000931 1455.481110C1193.000931 1485.533127,1204.940826 1514.350693,1226.189194 1535.599060C1247.437561 1556.847427,1276.255127 1568.787323,1306.307144 1568.787323C1336.359161 1568.787323,1365.176727 1556.847427,1386.425095 1535.599060C1407.673462 1514.350693,1419.613358 1485.533127,1419.613358 1455.481110Z" style="stroke:rgb(25.500488%,41.000366%,88.400269%); stroke-width: 2.500000;stroke-linecap: round;stroke-linejoin: round;stroke-miterlimit: 10.000000;fill: none;"></path>
  <path d="M1323.422455 1273.090805C1323.422455 1243.038788,1311.482559 1214.221222,1290.234192 1192.972855C1268.985825 1171.724487,1240.168259 1159.784592,1210.116241 1159.784592C1180.064224 1159.784592,1151.246658 1171.724487,1129.998291 1192.972855C1108.749924 1214.221222,1096.810028 1243.038788,1096.810028 1273.090805C1096.810028 1303.142822,1108.749924 1331.960388,1129.998291 1353.208755C1151.246658 1374.457123,1180.064224 1386.397018,1210.116241 1386.397018C1240.168259 1386.397018,1268.985825 1374.457123,1290.234192 1353.208755C1311.482559 1331.960388,1323.422455 1303.142822,1323.422455 1273.090805Z" style="stroke:rgb(25.500488%,41.000366%,88.400269%); stroke-width: 2.500000;stroke-linecap: round;stroke-linejoin: round;stroke-miterlimit: 10.000000;fill: none;"></path>
  <path d="M1225.882050 1091.595825C1225.882050 1061.543808,1213.942154 1032.726242,1192.693787 1011.477875C1171.445419 990.229507,1142.627853 978.289612,1112.575836 978.289612C1082.523819 978.289612,1053.706253 990.229507,1032.457886 1011.477875C1011.209518 1032.726242,999.269623 1061.543808,999.269623 1091.595825C999.269623 1121.647842,1011.209518 1150.465408,1032.457886 1171.713776C1053.706253 1192.962143,1082.523819 1204.902039,1112.575836 1204.902039C1142.627853 1204.902039,1171.445419 1192.962143,1192.693787 1171.713776C1213.942154 1150.465408,1225.882050 1121.647842,1225.882050 1091.595825Z" style="stroke:rgb(25.500488%,41.000366%,88.400269%); stroke-width: 2.500000;stroke-linecap: round;stroke-linejoin: round;stroke-miterlimit: 10.000000;fill: none;"></path>
  <path d="M1120.997238 920.222122C1120.997238 890.170105,1109.057343 861.352539,1087.808975 840.104172C1066.560608 818.855804,1037.743042 806.915909,1007.691025 806.915909C977.639008 806.915909,948.821442 818.855804,927.573074 840.104172C906.324707 861.352539,894.384811 890.170105,894.384811 920.222122C894.384811 950.274139,906.324707 979.091705,927.573074 1000.340073C948.821442 1021.588440,977.639008 1033.528336,1007.691025 1033.528336C1037.743042 1033.528336,1066.560608 1021.588440,1087.808975 1000.340073C1109.057343 979.091705,1120.997238 950.274139,1120.997238 920.222122Z" style="stroke:rgb(25.500488%,41.000366%,88.400269%); stroke-width: 2.500000;stroke-linecap: round;stroke-linejoin: round;stroke-miterlimit: 10.000000;fill: none;"></path>
  <path d="M1020.835678 743.865646C1020.835678 713.813629,1008.895782 684.996063,987.647415 663.747696C966.399048 642.499329,937.581482 630.559433,907.529465 630.559433C877.477448 630.559433,848.659882 642.499329,827.411514 663.747696C806.163147 684.996063,794.223251 713.813629,794.223251 743.865646C794.223251 773.917664,806.163147 802.735229,827.411514 823.983597C848.659882 845.231964,877.477448 857.171860,907.529465 857.171860C937.581482 857.171860,966.399048 845.231964,987.647415 823.983597C1008.895782 802.735229,1020.835678 773.917664,1020.835678 743.865646Z" style="stroke:rgb(25.500488%,41.000366%,88.400269%); stroke-width: 2.500000;stroke-linecap: round;stroke-linejoin: round;stroke-miterlimit: 10.000000;fill: none;"></path>
  <path d="M917.832382 579.589798C917.832382 549.537781,905.892487 520.720215,884.644119 499.471848C863.395752 478.223480,834.578186 466.283585,804.526169 466.283585C774.474152 466.283585,745.656586 478.223480,724.408218 499.471848C703.159851 520.720215,691.219955 549.537781,691.219955 579.589798C691.219955 609.641815,703.159851 638.459381,724.408218 659.707748C745.656586 680.956116,774.474152 692.896011,804.526169 692.896011C834.578186 692.896011,863.395752 680.956116,884.644119 659.707748C905.892487 638.459381,917.832382 609.641815,917.832382 579.589798Z" style="stroke:rgb(25.500488%,41.000366%,88.400269%); stroke-width: 2.500000;stroke-linecap: round;stroke-linejoin: round;stroke-miterlimit: 10.000000;fill: none;"></path>
  <path d="M808.003723 413.808731C808.003723 383.756714,796.063828 354.939148,774.815460 333.690781C753.567093 312.442413,724.749527 300.502518,694.697510 300.502518C664.645493 300.502518,635.827927 312.442413,614.579559 333.690781C593.331192 354.939148,581.391296 383.756714,581.391296 413.808731C581.391296 443.860748,593.331192 472.678314,614.579559 493.926682C635.827927 515.175049,664.645493 527.114944,694.697510 527.114944C724.749527 527.114944,753.567093 515.175049,774.815460 493.926682C796.063828 472.678314,808.003723 443.860748,808.003723 413.808731Z" style="stroke:rgb(25.500488%,41.000366%,88.400269%); stroke-width: 2.500000;stroke-linecap: round;stroke-linejoin: round;stroke-miterlimit: 10.000000;fill: none;"></path>
  <path d="M698.214005 241.851105C698.214005 211.799088,686.274109 182.981522,665.025742 161.733154C643.777374 140.484787,614.959808 128.544891,584.907791 128.544891C554.855774 128.544891,526.038208 140.484787,504.789841 161.733154C483.541473 182.981522,471.601578 211.799088,471.601578 241.851105C471.601578 271.903122,483.541473 300.720688,504.789841 321.969055C526.038208 343.217422,554.855774 355.157318,584.907791 355.157318C614.959808 355.157318,643.777374 343.217422,665.025742 321.969055C686.274109 300.720688,698.214005 271.903122,698.214005 241.851105Z" style="stroke:rgb(25.500488%,41.000366%,88.400269%); stroke-width: 2.500000;stroke-linecap: round;stroke-linejoin: round;stroke-miterlimit: 10.000000;fill: none;"></path>
  <path d="M1332.220154 1612.308746C1332.220154 1582.256729,1320.280258 1553.439163,1299.031891 1532.190796C1277.783524 1510.942429,1248.965958 1499.002533,1218.913940 1499.002533C1188.861923 1499.002533,1160.044357 1510.942429,1138.795990 1532.190796C1117.547623 1553.439163,1105.607727 1582.256729,1105.607727 1612.308746C1105.607727 1642.360764,1117.547623 1671.178329,1138.795990 1692.426697C1160.044357 1713.675064,1188.861923 1725.614960,1218.913940 1725.614960C1248.965958 1725.614960,1277.783524 1713.675064,1299.031891 1692.426697C1320.280258 1671.178329,1332.220154 1642.360764,1332.220154 1612.308746Z" style="stroke:rgb(25.500488%,41.000366%,88.400269%); stroke-width: 2.500000;stroke-linecap: round;stroke-linejoin: round;stroke-miterlimit: 10.000000;fill: none;"></path>
  <path d="M1228.775681 1437.262833C1228.775681 1407.210815,1216.835785 1378.393250,1195.587418 1357.144882C1174.339050 1335.896515,1145.521484 1323.956619,1115.469467 1323.956619C1085.417450 1323.956619,1056.599884 1335.896515,1035.351517 1357.144882C1014.103149 1378.393250,1002.163254 1407.210815,1002.163254 1437.262833C1002.163254 1467.314850,1014.103149 1496.132416,1035.351517 1517.380783C1056.599884 1538.629150,1085.417450 1550.569046,1115.469467 1550.569046C1145.521484 1550.569046,1174.339050 1538.629150,1195.587418 1517.380783C1216.835785 1496.132416,1228.775681 1467.314850,1228.775681 1437.262833Z" style="stroke:rgb(25.500488%,41.000366%,88.400269%); stroke-width: 2.500000;stroke-linecap: round;stroke-linejoin: round;stroke-miterlimit: 10.000000;fill: none;"></path>
  <path d="M1132.078720 1256.001434C1132.078720 1225.949417,1120.138824 1197.131851,1098.890457 1175.883484C1077.642090 1154.635117,1048.824524 1142.695221,1018.772507 1142.695221C988.720490 1142.695221,959.902924 1154.635117,938.654556 1175.883484C917.406189 1197.131851,905.466293 1225.949417,905.466293 1256.001434C905.466293 1286.053452,917.406189 1314.871017,938.654556 1336.119385C959.902924 1357.367752,988.720490 1369.307648,1018.772507 1369.307648C1048.824524 1369.307648,1077.642090 1357.367752,1098.890457 1336.119385C1120.138824 1314.871017,1132.078720 1286.053452,1132.078720 1256.001434Z" style="stroke:rgb(25.500488%,41.000366%,88.400269%); stroke-width: 2.500000;stroke-linecap: round;stroke-linejoin: round;stroke-miterlimit: 10.000000;fill: none;"></path>
  <path d="M1027.712952 1084.601776C1027.712952 1054.549759,1015.773056 1025.732193,994.524689 1004.483826C973.276321 983.235458,944.458755 971.295563,914.406738 971.295563C884.354721 971.295563,855.537155 983.235458,834.288788 1004.483826C813.040421 1025.732193,801.100525 1054.549759,801.100525 1084.601776C801.100525 1114.653793,813.040421 1143.471359,834.288788 1164.719727C855.537155 1185.968094,884.354721 1197.907990,914.406738 1197.907990C944.458755 1197.907990,973.276321 1185.968094,994.524689 1164.719727C1015.773056 1143.471359,1027.712952 1114.653793,1027.712952 1084.601776Z" style="stroke:rgb(25.500488%,41.000366%,88.400269%); stroke-width: 2.500000;stroke-linecap: round;stroke-linejoin: round;stroke-miterlimit: 10.000000;fill: none;"></path>
  <path d="M925.942368 908.349106C925.942368 878.297089,914.002472 849.479523,892.754105 828.231155C871.505737 806.982788,842.688171 795.042892,812.636154 795.042892C782.584137 795.042892,753.766571 806.982788,732.518204 828.231155C711.269836 849.479523,699.329941 878.297089,699.329941 908.349106C699.329941 938.401123,711.269836 967.218689,732.518204 988.467056C753.766571 1009.715424,782.584137 1021.655319,812.636154 1021.655319C842.688171 1021.655319,871.505737 1009.715424,892.754105 988.467056C914.002472 967.218689,925.942368 938.401123,925.942368 908.349106Z" style="stroke:rgb(25.500488%,41.000366%,88.400269%); stroke-width: 2.500000;stroke-linecap: round;stroke-linejoin: round;stroke-miterlimit: 10.000000;fill: none;"></path>
  <path d="M822.303253 750.885651C822.303253 720.833633,810.363358 692.016068,789.114990 670.767700C767.866623 649.519333,739.049057 637.579437,708.997040 637.579437C678.945023 637.579437,650.127457 649.519333,628.879089 670.767700C607.630722 692.016068,595.690826 720.833633,595.690826 750.885651C595.690826 780.937668,607.630722 809.755234,628.879089 831.003601C650.127457 852.251968,678.945023 864.191864,708.997040 864.191864C739.049057 864.191864,767.866623 852.251968,789.114990 831.003601C810.363358 809.755234,822.303253 780.937668,822.303253 750.885651Z" style="stroke:rgb(25.500488%,41.000366%,88.400269%); stroke-width: 2.500000;stroke-linecap: round;stroke-linejoin: round;stroke-miterlimit: 10.000000;fill: none;"></path>
  <path d="M720.934937 585.792313C720.934937 555.740295,708.995041 526.922729,687.746674 505.674362C666.498306 484.425995,637.680740 472.486099,607.628723 472.486099C577.576706 472.486099,548.759140 484.425995,527.510773 505.674362C506.262405 526.922729,494.322510 555.740295,494.322510 585.792313C494.322510 615.844330,506.262405 644.661896,527.510773 665.910263C548.759140 687.158630,577.576706 699.098526,607.628723 699.098526C637.680740 699.098526,666.498306 687.158630,687.746674 665.910263C708.995041 644.661896,720.934937 615.844330,720.934937 585.792313Z" style="stroke:rgb(25.500488%,41.000366%,88.400269%); stroke-width: 2.500000;stroke-linecap: round;stroke-linejoin: round;stroke-miterlimit: 10.000000;fill: none;"></path>
  <path d="M619.527695 420.530289C619.527695 390.478271,607.587799 361.660706,586.339432 340.412338C565.091064 319.163971,536.273499 307.224075,506.221481 307.224075C476.169464 307.224075,447.351898 319.163971,426.103531 340.412338C404.855164 361.660706,392.915268 390.478271,392.915268 420.530289C392.915268 450.582306,404.855164 479.399872,426.103531 500.648239C447.351898 521.896606,476.169464 533.836502,506.221481 533.836502C536.273499 533.836502,565.091064 521.896606,586.339432 500.648239C607.587799 479.399872,619.527695 450.582306,619.527695 420.530289Z" style="stroke:rgb(25.500488%,41.000366%,88.400269%); stroke-width: 2.500000;stroke-linecap: round;stroke-linejoin: round;stroke-miterlimit: 10.000000;fill: none;"></path>
  <path d="M522.298706 250.726669C522.298706 220.674652,510.358810 191.857086,489.110443 170.608719C467.862076 149.360352,439.044510 137.420456,408.992493 137.420456C378.940475 137.420456,350.122910 149.360352,328.874542 170.608719C307.626175 191.857086,295.686279 220.674652,295.686279 250.726669C295.686279 280.778687,307.626175 309.596252,328.874542 330.844620C350.122910 352.092987,378.940475 364.032883,408.992493 364.032883C439.044510 364.032883,467.862076 352.092987,489.110443 330.844620C510.358810 309.596252,522.298706 280.778687,522.298706 250.726669Z" style="stroke:rgb(25.500488%,41.000366%,88.400269%); stroke-width: 2.500000;stroke-linecap: round;stroke-linejoin: round;stroke-miterlimit: 10.000000;fill: none;"></path>
  <path d="M1143.095322 1613.022430C1143.095322 1582.970413,1131.155426 1554.152847,1109.907059 1532.904480C1088.658691 1511.656113,1059.841125 1499.716217,1029.789108 1499.716217C999.737091 1499.716217,970.919525 1511.656113,949.671158 1532.904480C928.422791 1554.152847,916.482895 1582.970413,916.482895 1613.022430C916.482895 1643.074448,928.422791 1671.892014,949.671158 1693.140381C970.919525 1714.388748,999.737091 1726.328644,1029.789108 1726.328644C1059.841125 1726.328644,1088.658691 1714.388748,1109.907059 1693.140381C1131.155426 1671.892014,1143.095322 1643.074448,1143.095322 1613.022430Z" style="stroke:rgb(25.500488%,41.000366%,88.400269%); stroke-width: 2.500000;stroke-linecap: round;stroke-linejoin: round;stroke-miterlimit: 10.000000;fill: none;"></path>
  <path d="M1043.893982 1431.929718C1043.893982 1401.877701,1031.954086 1373.060135,1010.705719 1351.811768C989.457352 1330.563400,960.639786 1318.623505,930.587769 1318.623505C900.535751 1318.623505,871.718185 1330.563400,850.469818 1351.811768C829.221451 1373.060135,817.281555 1401.877701,817.281555 1431.929718C817.281555 1461.981735,829.221451 1490.799301,850.469818 1512.047668C871.718185 1533.296036,900.535751 1545.235931,930.587769 1545.235931C960.639786 1545.235931,989.457352 1533.296036,1010.705719 1512.047668C1031.954086 1490.799301,1043.893982 1461.981735,1043.893982 1431.929718Z" style="stroke:rgb(25.500488%,41.000366%,88.400269%); stroke-width: 2.500000;stroke-linecap: round;stroke-linejoin: round;stroke-miterlimit: 10.000000;fill: none;"></path>
  <path d="M944.251465 1254.768723C944.251465 1224.716705,932.311569 1195.899139,911.063202 1174.650772C889.814835 1153.402405,860.997269 1141.462509,830.945251 1141.462509C800.893234 1141.462509,772.075668 1153.402405,750.827301 1174.650772C729.578934 1195.899139,717.639038 1224.716705,717.639038 1254.768723C717.639038 1284.820740,729.578934 1313.638306,750.827301 1334.886673C772.075668 1356.135040,800.893234 1368.074936,830.945251 1368.074936C860.997269 1368.074936,889.814835 1356.135040,911.063202 1334.886673C932.311569 1313.638306,944.251465 1284.820740,944.251465 1254.768723Z" style="stroke:rgb(25.500488%,41.000366%,88.400269%); stroke-width: 2.500000;stroke-linecap: round;stroke-linejoin: round;stroke-miterlimit: 10.000000;fill: none;"></path>
  <path d="M842.818268 1070.211426C842.818268 1040.159409,830.878372 1011.341843,809.630005 990.093475C788.381638 968.845108,759.564072 956.905212,729.512054 956.905212C699.460037 956.905212,670.642471 968.845108,649.394104 990.093475C628.145737 1011.341843,616.205841 1040.159409,616.205841 1070.211426C616.205841 1100.263443,628.145737 1129.081009,649.394104 1150.329376C670.642471 1171.577744,699.460037 1183.517639,729.512054 1183.517639C759.564072 1183.517639,788.381638 1171.577744,809.630005 1150.329376C830.878372 1129.081009,842.818268 1100.263443,842.818268 1070.211426Z" style="stroke:rgb(25.500488%,41.000366%,88.400269%); stroke-width: 2.500000;stroke-linecap: round;stroke-linejoin: round;stroke-miterlimit: 10.000000;fill: none;"></path>
  <path d="M719.935791 914.266159C719.935791 884.214142,707.995895 855.396576,686.747528 834.148209C665.499161 812.899841,636.681595 800.959946,606.629578 800.959946C576.577560 800.959946,547.759995 812.899841,526.511627 834.148209C505.263260 855.396576,493.323364 884.214142,493.323364 914.266159C493.323364 944.318176,505.263260 973.135742,526.511627 994.384109C547.759995 1015.632477,576.577560 1027.572372,606.629578 1027.572372C636.681595 1027.572372,665.499161 1015.632477,686.747528 994.384109C707.995895 973.135742,719.935791 944.318176,719.935791 914.266159Z" style="stroke:rgb(25.500488%,41.000366%,88.400269%); stroke-width: 2.500000;stroke-linecap: round;stroke-linejoin: round;stroke-miterlimit: 10.000000;fill: none;"></path>
  <path d="M622.758713 754.635696C622.758713 724.583679,610.818817 695.766113,589.570450 674.517746C568.322083 653.269379,539.504517 641.329483,509.452499 641.329483C479.400482 641.329483,450.582916 653.269379,429.334549 674.517746C408.086182 695.766113,396.146286 724.583679,396.146286 754.635696C396.146286 784.687714,408.086182 813.505280,429.334549 834.753647C450.582916 856.002014,479.400482 867.941910,509.452499 867.941910C539.504517 867.941910,568.322083 856.002014,589.570450 834.753647C610.818817 813.505280,622.758713 784.687714,622.758713 754.635696Z" style="stroke:rgb(25.500488%,41.000366%,88.400269%); stroke-width: 2.500000;stroke-linecap: round;stroke-linejoin: round;stroke-miterlimit: 10.000000;fill: none;"></path>
  <path d="M521.455261 589.373672C521.455261 559.321655,509.515366 530.504089,488.266998 509.255722C467.018631 488.007355,438.201065 476.067459,408.149048 476.067459C378.097031 476.067459,349.279465 488.007355,328.031097 509.255722C306.782730 530.504089,294.842834 559.321655,294.842834 589.373672C294.842834 619.425690,306.782730 648.243256,328.031097 669.491623C349.279465 690.739990,378.097031 702.679886,408.149048 702.679886C438.201065 702.679886,467.018631 690.739990,488.266998 669.491623C509.515366 648.243256,521.455261 619.425690,521.455261 589.373672Z" style="stroke:rgb(25.500488%,41.000366%,88.400269%); stroke-width: 2.500000;stroke-linecap: round;stroke-linejoin: round;stroke-miterlimit: 10.000000;fill: none;"></path>
  <path d="M422.552383 419.570068C422.552383 389.518051,410.612488 360.700485,389.364120 339.452118C368.115753 318.203751,339.298187 306.263855,309.246170 306.263855C279.194153 306.263855,250.376587 318.203751,229.128220 339.452118C207.879852 360.700485,195.939957 389.518051,195.939957 419.570068C195.939957 449.622086,207.879852 478.439651,229.128220 499.688019C250.376587 520.936386,279.194153 532.876282,309.246170 532.876282C339.298187 532.876282,368.115753 520.936386,389.364120 499.688019C410.612488 478.439651,422.552383 449.622086,422.552383 419.570068Z" style="stroke:rgb(25.500488%,41.000366%,88.400269%); stroke-width: 2.500000;stroke-linecap: round;stroke-linejoin: round;stroke-miterlimit: 10.000000;fill: none;"></path>
  <path d="M957.759460 1606.988602C957.759460 1576.936584,945.819565 1548.119019,924.571198 1526.870651C903.322830 1505.622284,874.505264 1493.682388,844.453247 1493.682388C814.401230 1493.682388,785.583664 1505.622284,764.335297 1526.870651C743.086929 1548.119019,731.147034 1576.936584,731.147034 1606.988602C731.147034 1637.040619,743.086929 1665.858185,764.335297 1687.106552C785.583664 1708.354919,814.401230 1720.294815,844.453247 1720.294815C874.505264 1720.294815,903.322830 1708.354919,924.571198 1687.106552C945.819565 1665.858185,957.759460 1637.040619,957.759460 1606.988602Z" style="stroke:rgb(25.500488%,41.000366%,88.400269%); stroke-width: 2.500000;stroke-linecap: round;stroke-linejoin: round;stroke-miterlimit: 10.000000;fill: none;"></path>
  <path d="M858.142899 1426.440872C858.142899 1396.388855,846.203003 1367.571289,824.954636 1346.322922C803.706268 1325.074554,774.888702 1313.134659,744.836685 1313.134659C714.784668 1313.134659,685.967102 1325.074554,664.718735 1346.322922C643.470367 1367.571289,631.530472 1396.388855,631.530472 1426.440872C631.530472 1456.492889,643.470367 1485.310455,664.718735 1506.558823C685.967102 1527.807190,714.784668 1539.747086,744.836685 1539.747086C774.888702 1539.747086,803.706268 1527.807190,824.954636 1506.558823C846.203003 1485.310455,858.142899 1456.492889,858.142899 1426.440872Z" style="stroke:rgb(25.500488%,41.000366%,88.400269%); stroke-width: 2.500000;stroke-linecap: round;stroke-linejoin: round;stroke-miterlimit: 10.000000;fill: none;"></path>
  <path d="M760.044525 1241.507278C760.044525 1211.455261,748.104630 1182.637695,726.856262 1161.389328C705.607895 1140.140961,676.790329 1128.201065,646.738312 1128.201065C616.686295 1128.201065,587.868729 1140.140961,566.620361 1161.389328C545.371994 1182.637695,533.432098 1211.455261,533.432098 1241.507278C533.432098 1271.559296,545.371994 1300.376862,566.620361 1321.625229C587.868729 1342.873596,616.686295 1354.813492,646.738312 1354.813492C676.790329 1354.813492,705.607895 1342.873596,726.856262 1321.625229C748.104630 1300.376862,760.044525 1271.559296,760.044525 1241.507278Z" style="stroke:rgb(25.500488%,41.000366%,88.400269%); stroke-width: 2.500000;stroke-linecap: round;stroke-linejoin: round;stroke-miterlimit: 10.000000;fill: none;"></path>
  <path d="M646.984848 1074.000412C646.984848 1043.948395,635.044952 1015.130829,613.796585 993.882462C592.548218 972.634094,563.730652 960.694199,533.678635 960.694199C503.626617 960.694199,474.809052 972.634094,453.560684 993.882462C432.312317 1015.130829,420.372421 1043.948395,420.372421 1074.000412C420.372421 1104.052429,432.312317 1132.869995,453.560684 1154.118362C474.809052 1175.366730,503.626617 1187.306625,533.678635 1187.306625C563.730652 1187.306625,592.548218 1175.366730,613.796585 1154.118362C635.044952 1132.869995,646.984848 1104.052429,646.984848 1074.000412Z" style="stroke:rgb(25.500488%,41.000366%,88.400269%); stroke-width: 2.500000;stroke-linecap: round;stroke-linejoin: round;stroke-miterlimit: 10.000000;fill: none;"></path>
  <path d="M514.967270 917.899429C514.967270 887.847412,503.027374 859.029846,481.779007 837.781479C460.530640 816.533112,431.713074 804.593216,401.661057 804.593216C371.609039 804.593216,342.791473 816.533112,321.543106 837.781479C300.294739 859.029846,288.354843 887.847412,288.354843 917.899429C288.354843 947.951447,300.294739 976.769012,321.543106 998.017380C342.791473 1019.265747,371.609039 1031.205643,401.661057 1031.205643C431.713074 1031.205643,460.530640 1019.265747,481.779007 998.017380C503.027374 976.769012,514.967270 947.951447,514.967270 917.899429Z" style="stroke:rgb(25.500488%,41.000366%,88.400269%); stroke-width: 2.500000;stroke-linecap: round;stroke-linejoin: round;stroke-miterlimit: 10.000000;fill: none;"></path>
  <path d="M424.407944 760.163467C424.407944 730.111450,412.468048 701.293884,391.219681 680.045517C369.971313 658.797150,341.153748 646.857254,311.101730 646.857254C281.049713 646.857254,252.232147 658.797150,230.983780 680.045517C209.735413 701.293884,197.795517 730.111450,197.795517 760.163467C197.795517 790.215485,209.735413 819.033051,230.983780 840.281418C252.232147 861.529785,281.049713 873.469681,311.101730 873.469681C341.153748 873.469681,369.971313 861.529785,391.219681 840.281418C412.468048 819.033051,424.407944 790.215485,424.407944 760.163467Z" style="stroke:rgb(25.500488%,41.000366%,88.400269%); stroke-width: 2.500000;stroke-linecap: round;stroke-linejoin: round;stroke-miterlimit: 10.000000;fill: none;"></path>
  <path d="M325.595886 590.359848C325.595886 560.307831,313.655991 531.490265,292.407623 510.241898C271.159256 488.993530,242.341690 477.053635,212.289673 477.053635C182.237656 477.053635,153.420090 488.993530,132.171722 510.241898C110.923355 531.490265,98.983459 560.307831,98.983459 590.359848C98.983459 620.411865,110.923355 649.229431,132.171722 670.477798C153.420090 691.726166,182.237656 703.666061,212.289673 703.666061C242.341690 703.666061,271.159256 691.726166,292.407623 670.477798C313.655991 649.229431,325.595886 620.411865,325.595886 590.359848Z" style="stroke:rgb(25.500488%,41.000366%,88.400269%); stroke-width: 2.500000;stroke-linecap: round;stroke-linejoin: round;stroke-miterlimit: 10.000000;fill: none;"></path>
  <path d="M788.072632 1593.986664C788.072632 1563.934647,776.132736 1535.117081,754.884369 1513.868713C733.636002 1492.620346,704.818436 1480.680450,674.766418 1480.680450C644.714401 1480.680450,615.896835 1492.620346,594.648468 1513.868713C573.400101 1535.117081,561.460205 1563.934647,561.460205 1593.986664C561.460205 1624.038681,573.400101 1652.856247,594.648468 1674.104614C615.896835 1695.352982,644.714401 1707.292877,674.766418 1707.292877C704.818436 1707.292877,733.636002 1695.352982,754.884369 1674.104614C776.132736 1652.856247,788.072632 1624.038681,788.072632 1593.986664Z" style="stroke:rgb(25.500488%,41.000366%,88.400269%); stroke-width: 2.500000;stroke-linecap: round;stroke-linejoin: round;stroke-miterlimit: 10.000000;fill: none;"></path>
  <path d="M683.174850 1401.319382C683.174850 1371.267365,671.234955 1342.449799,649.986588 1321.201431C628.738220 1299.953064,599.920654 1288.013168,569.868637 1288.013168C539.816620 1288.013168,510.999054 1299.953064,489.750687 1321.201431C468.502319 1342.449799,456.562424 1371.267365,456.562424 1401.319382C456.562424 1431.371399,468.502319 1460.188965,489.750687 1481.437332C510.999054 1502.685699,539.816620 1514.625595,569.868637 1514.625595C599.920654 1514.625595,628.738220 1502.685699,649.986588 1481.437332C671.234955 1460.188965,683.174850 1431.371399,683.174850 1401.319382Z" style="stroke:rgb(25.500488%,41.000366%,88.400269%); stroke-width: 2.500000;stroke-linecap: round;stroke-linejoin: round;stroke-miterlimit: 10.000000;fill: none;"></path>
  <path d="M559.020721 1235.745941C559.020721 1205.693924,547.080826 1176.876358,525.832458 1155.627991C504.584091 1134.379623,475.766525 1122.439728,445.714508 1122.439728C415.662491 1122.439728,386.844925 1134.379623,365.596558 1155.627991C344.348190 1176.876358,332.408295 1205.693924,332.408295 1235.745941C332.408295 1265.797958,344.348190 1294.615524,365.596558 1315.863892C386.844925 1337.112259,415.662491 1349.052155,445.714508 1349.052155C475.766525 1349.052155,504.584091 1337.112259,525.832458 1315.863892C547.080826 1294.615524,559.020721 1265.797958,559.020721 1235.745941Z" style="stroke:rgb(25.500488%,41.000366%,88.400269%); stroke-width: 2.500000;stroke-linecap: round;stroke-linejoin: round;stroke-miterlimit: 10.000000;fill: none;"></path>
  <path d="M443.599411 1072.689835C443.599411 1042.637817,431.659515 1013.820251,410.411148 992.571884C389.162781 971.323517,360.345215 959.383621,330.293198 959.383621C300.241180 959.383621,271.423615 971.323517,250.175247 992.571884C228.926880 1013.820251,216.986984 1042.637817,216.986984 1072.689835C216.986984 1102.741852,228.926880 1131.559418,250.175247 1152.807785C271.423615 1174.056152,300.241180 1185.996048,330.293198 1185.996048C360.345215 1185.996048,389.162781 1174.056152,410.411148 1152.807785C431.659515 1131.559418,443.599411 1102.741852,443.599411 1072.689835Z" style="stroke:rgb(25.500488%,41.000366%,88.400269%); stroke-width: 2.500000;stroke-linecap: round;stroke-linejoin: round;stroke-miterlimit: 10.000000;fill: none;"></path>
  <path d="M307.559280 918.807739C307.559280 888.755722,295.619385 859.938156,274.371017 838.689789C253.122650 817.441422,224.305084 805.501526,194.253067 805.501526C164.201050 805.501526,135.383484 817.441422,114.135117 838.689789C92.886749 859.938156,80.946854 888.755722,80.946854 918.807739C80.946854 948.859756,92.886749 977.677322,114.135117 998.925690C135.383484 1020.174057,164.201050 1032.113953,194.253067 1032.113953C224.305084 1032.113953,253.122650 1020.174057,274.371017 998.925690C295.619385 977.677322,307.559280 948.859756,307.559280 918.807739Z" style="stroke:rgb(25.500488%,41.000366%,88.400269%); stroke-width: 2.500000;stroke-linecap: round;stroke-linejoin: round;stroke-miterlimit: 10.000000;fill: none;"></path>
  <path d="M227.718109 759.735260C227.718109 729.683243,215.778214 700.865677,194.529846 679.617310C173.281479 658.368942,144.463913 646.429047,114.411896 646.429047C84.359879 646.429047,55.542313 658.368942,34.293945 679.617310C13.045578 700.865677,1.105682 729.683243,1.105682 759.735260C1.105682 789.787277,13.045578 818.604843,34.293945 839.853210C55.542313 861.101578,84.359879 873.041473,114.411896 873.041473C144.463913 873.041473,173.281479 861.101578,194.529846 839.853210C215.778214 818.604843,227.718109 789.787277,227.718109 759.735260Z" style="stroke:rgb(25.500488%,41.000366%,88.400269%); stroke-width: 2.500000;stroke-linecap: round;stroke-linejoin: round;stroke-miterlimit: 10.000000;fill: none;"></path>
  <path d="M613.039703 1551.931534C613.039703 1521.879517,601.099808 1493.061951,579.851440 1471.813583C558.603073 1450.565216,529.785507 1438.625320,499.733490 1438.625320C469.681473 1438.625320,440.863907 1450.565216,419.615540 1471.813583C398.367172 1493.061951,386.427277 1521.879517,386.427277 1551.931534C386.427277 1581.983551,398.367172 1610.801117,419.615540 1632.049484C440.863907 1653.297852,469.681473 1665.237747,499.733490 1665.237747C529.785507 1665.237747,558.603073 1653.297852,579.851440 1632.049484C601.099808 1610.801117,613.039703 1581.983551,613.039703 1551.931534Z" style="stroke:rgb(25.500488%,41.000366%,88.400269%); stroke-width: 2.500000;stroke-linecap: round;stroke-linejoin: round;stroke-miterlimit: 10.000000;fill: none;"></path>
  <path d="M479.231445 1389.018158C479.231445 1358.966141,467.291550 1330.148575,446.043182 1308.900208C424.794815 1287.651840,395.977249 1275.711945,365.925232 1275.711945C335.873215 1275.711945,307.055649 1287.651840,285.807281 1308.900208C264.558914 1330.148575,252.619019 1358.966141,252.619019 1389.018158C252.619019 1419.070175,264.558914 1447.887741,285.807281 1469.136108C307.055649 1490.384476,335.873215 1502.324371,365.925232 1502.324371C395.977249 1502.324371,424.794815 1490.384476,446.043182 1469.136108C467.291550 1447.887741,479.231445 1419.070175,479.231445 1389.018158Z" style="stroke:rgb(25.500488%,41.000366%,88.400269%); stroke-width: 2.500000;stroke-linecap: round;stroke-linejoin: round;stroke-miterlimit: 10.000000;fill: none;"></path>
  <path d="M372.867371 1260.322433C372.867371 1230.270416,360.927475 1201.452850,339.679108 1180.204483C318.430740 1158.956116,289.613174 1147.016220,259.561157 1147.016220C229.509140 1147.016220,200.691574 1158.956116,179.443207 1180.204483C158.194839 1201.452850,146.254944 1230.270416,146.254944 1260.322433C146.254944 1290.374451,158.194839 1319.192017,179.443207 1340.440384C200.691574 1361.688751,229.509140 1373.628647,259.561157 1373.628647C289.613174 1373.628647,318.430740 1361.688751,339.679108 1340.440384C360.927475 1319.192017,372.867371 1290.374451,372.867371 1260.322433Z" style="stroke:rgb(25.500488%,41.000366%,88.400269%); stroke-width: 2.500000;stroke-linecap: round;stroke-linejoin: round;stroke-miterlimit: 10.000000;fill: none;"></path>
  <path d="M259.716858 1107.711990C259.716858 1077.659973,247.776962 1048.842407,226.528595 1027.594040C205.280228 1006.345673,176.462662 994.405777,146.410645 994.405777C116.358627 994.405777,87.541061 1006.345673,66.292694 1027.594040C45.044327 1048.842407,33.104431 1077.659973,33.104431 1107.711990C33.104431 1137.764008,45.044327 1166.581573,66.292694 1187.829941C87.541061 1209.078308,116.358627 1221.018204,146.410645 1221.018204C176.462662 1221.018204,205.280228 1209.078308,226.528595 1187.829941C247.776962 1166.581573,259.716858 1137.764008,259.716858 1107.711990Z" style="stroke:rgb(25.500488%,41.000366%,88.400269%); stroke-width: 2.500000;stroke-linecap: round;stroke-linejoin: round;stroke-miterlimit: 10.000000;fill: none;"></path>
</svg>
