<?xml version="1.0"?>
<!-- Created by MetaPost 2.00 on 2022.03.02:1201 -->
<svg version="1.1" xmlns="http://www.w3.org/2000/svg" xmlns:xlink="http://www.w3.org/1999/xlink" width="1706.855438" height="1706.855438" viewBox="0 0 1706.855438 1706.855438">
<!-- Original BoundingBox: -852.772430 -854.083008 854.083008 852.772430 -->
  <path d="M1702.393524 852.000000L852.000000 1.606476L1.606476 852.000000L852.000000 1702.393524L1702.393524 852.000000Z" style="fill: rgb(100.000000%,100.000000%,100.000000%);stroke: none;"></path>
  <path d="M1702.393524 852.000000L852.000000 1.606476" style="stroke:rgb(0.000000%,0.000000%,0.000000%); stroke-width: 2.500000;stroke-linecap: round;stroke-linejoin: round;stroke-miterlimit: 10.000000;fill: none;"></path>
  <path d="M852.000000 1.606476L1.606476 852.000000" style="stroke:rgb(0.000000%,0.000000%,0.000000%); stroke-width: 2.500000;stroke-linecap: round;stroke-linejoin: round;stroke-miterlimit: 10.000000;fill: none;"></path>
  <path d="M1.606476 852.000000L852.000000 1702.393524" style="stroke:rgb(0.000000%,0.000000%,0.000000%); stroke-width: 2.500000;stroke-linecap: round;stroke-linejoin: round;stroke-miterlimit: 10.000000;fill: none;"></path>
  <path d="M852.000000 1702.393524L1702.393524 852.000000" style="stroke:rgb(0.000000%,0.000000%,0.000000%); stroke-width: 2.500000;stroke-linecap: round;stroke-linejoin: round;stroke-miterlimit: 10.000000;fill: none;"></path>
  <path d="M1704.833008 874.137009C1704.833008 847.234055,1694.144257 821.436203,1675.122437 802.414383C1656.100616 783.392563,1630.302765 772.703812,1603.399811 772.703812C1576.496857 772.703812,1550.699005 783.392563,1531.677185 802.414383C1512.655365 821.436203,1501.966614 847.234055,1501.966614 874.137009C1501.966614 901.039963,1512.655365 926.837814,1531.677185 945.859634C1550.699005 964.881454,1576.496857 975.570206,1603.399811 975.570206C1630.302765 975.570206,1656.100616 964.881454,1675.122437 945.859634C1694.144257 926.837814,1704.833008 901.039963,1704.833008 874.137009Z" style="stroke:rgb(25.500488%,41.000366%,88.400269%); stroke-width: 2.500000;stroke-linecap: round;stroke-linejoin: round;stroke-miterlimit: 10.000000;fill: none;"></path>
  <path d="M1654.758713 703.931137C1654.758713 677.028183,1644.069962 651.230331,1625.048141 632.208511C1606.026321 613.186691,1580.228470 602.497940,1553.325516 602.497940C1526.422562 602.497940,1500.624710 613.186691,1481.602890 632.208511C1462.581070 651.230331,1451.892319 677.028183,1451.892319 703.931137C1451.892319 730.834091,1462.581070 756.631943,1481.602890 775.653763C1500.624710 794.675583,1526.422562 805.364334,1553.325516 805.364334C1580.228470 805.364334,1606.026321 794.675583,1625.048141 775.653763C1644.069962 756.631943,1654.758713 730.834091,1654.758713 703.931137Z" style="stroke:rgb(25.500488%,41.000366%,88.400269%); stroke-width: 2.500000;stroke-linecap: round;stroke-linejoin: round;stroke-miterlimit: 10.000000;fill: none;"></path>
  <path d="M1583.754181 995.514282C1583.754181 968.611328,1573.065430 942.813477,1554.043610 923.791656C1535.021790 904.769836,1509.223938 894.081085,1482.320984 894.081085C1455.418030 894.081085,1429.620178 904.769836,1410.598358 923.791656C1391.576538 942.813477,1380.887787 968.611328,1380.887787 995.514282C1380.887787 1022.417236,1391.576538 1048.215088,1410.598358 1067.236908C1429.620178 1086.258728,1455.418030 1096.947479,1482.320984 1096.947479C1509.223938 1096.947479,1535.021790 1086.258728,1554.043610 1067.236908C1573.065430 1048.215088,1583.754181 1022.417236,1583.754181 995.514282Z" style="stroke:rgb(25.500488%,41.000366%,88.400269%); stroke-width: 2.500000;stroke-linecap: round;stroke-linejoin: round;stroke-miterlimit: 10.000000;fill: none;"></path>
  <path d="M1534.004288 824.971039C1534.004288 798.068085,1523.315536 772.270233,1504.293716 753.248413C1485.271896 734.226593,1459.474045 723.537842,1432.571091 723.537842C1405.668137 723.537842,1379.870285 734.226593,1360.848465 753.248413C1341.826645 772.270233,1331.137894 798.068085,1331.137894 824.971039C1331.137894 851.873993,1341.826645 877.671844,1360.848465 896.693665C1379.870285 915.715485,1405.668137 926.404236,1432.571091 926.404236C1459.474045 926.404236,1485.271896 915.715485,1504.293716 896.693665C1523.315536 877.671844,1534.004288 851.873993,1534.004288 824.971039Z" style="stroke:rgb(25.500488%,41.000366%,88.400269%); stroke-width: 2.500000;stroke-linecap: round;stroke-linejoin: round;stroke-miterlimit: 10.000000;fill: none;"></path>
  <path d="M1484.500946 653.675186C1484.500946 626.772232,1473.812195 600.974380,1454.790375 581.952560C1435.768555 562.930740,1409.970703 552.241989,1383.067749 552.241989C1356.164795 552.241989,1330.366943 562.930740,1311.345123 581.952560C1292.323303 600.974380,1281.634552 626.772232,1281.634552 653.675186C1281.634552 680.578140,1292.323303 706.375992,1311.345123 725.397812C1330.366943 744.419632,1356.164795 755.108383,1383.067749 755.108383C1409.970703 755.108383,1435.768555 744.419632,1454.790375 725.397812C1473.812195 706.375992,1484.500946 680.578140,1484.500946 653.675186Z" style="stroke:rgb(25.500488%,41.000366%,88.400269%); stroke-width: 2.500000;stroke-linecap: round;stroke-linejoin: round;stroke-miterlimit: 10.000000;fill: none;"></path>
  <path d="M1434.322845 483.352539C1434.322845 456.449585,1423.634094 430.651733,1404.612274 411.629913C1385.590454 392.608093,1359.792603 381.919342,1332.889648 381.919342C1305.986694 381.919342,1280.188843 392.608093,1261.167023 411.629913C1242.145203 430.651733,1231.456451 456.449585,1231.456451 483.352539C1231.456451 510.255493,1242.145203 536.053345,1261.167023 555.075165C1280.188843 574.096985,1305.986694 584.785736,1332.889648 584.785736C1359.792603 584.785736,1385.590454 574.096985,1404.612274 555.075165C1423.634094 536.053345,1434.322845 510.255493,1434.322845 483.352539Z" style="stroke:rgb(25.500488%,41.000366%,88.400269%); stroke-width: 2.500000;stroke-linecap: round;stroke-linejoin: round;stroke-miterlimit: 10.000000;fill: none;"></path>
  <path d="M1462.584518 1117.540359C1462.584518 1090.637405,1451.895767 1064.839554,1432.873947 1045.817734C1413.852127 1026.795914,1388.054276 1016.107162,1361.151321 1016.107162C1334.248367 1016.107162,1308.450516 1026.795914,1289.428696 1045.817734C1270.406876 1064.839554,1259.718124 1090.637405,1259.718124 1117.540359C1259.718124 1144.443314,1270.406876 1170.241165,1289.428696 1189.262985C1308.450516 1208.284805,1334.248367 1218.973557,1361.151321 1218.973557C1388.054276 1218.973557,1413.852127 1208.284805,1432.873947 1189.262985C1451.895767 1170.241165,1462.584518 1144.443314,1462.584518 1117.540359Z" style="stroke:rgb(25.500488%,41.000366%,88.400269%); stroke-width: 2.500000;stroke-linecap: round;stroke-linejoin: round;stroke-miterlimit: 10.000000;fill: none;"></path>
  <path d="M1413.236893 946.893311C1413.236893 919.990356,1402.548141 894.192505,1383.526321 875.170685C1364.504501 856.148865,1338.706650 845.460114,1311.803696 845.460114C1284.900742 845.460114,1259.102890 856.148865,1240.081070 875.170685C1221.059250 894.192505,1210.370499 919.990356,1210.370499 946.893311C1210.370499 973.796265,1221.059250 999.594116,1240.081070 1018.615936C1259.102890 1037.637756,1284.900742 1048.326508,1311.803696 1048.326508C1338.706650 1048.326508,1364.504501 1037.637756,1383.526321 1018.615936C1402.548141 999.594116,1413.236893 973.796265,1413.236893 946.893311Z" style="stroke:rgb(25.500488%,41.000366%,88.400269%); stroke-width: 2.500000;stroke-linecap: round;stroke-linejoin: round;stroke-miterlimit: 10.000000;fill: none;"></path>
  <path d="M1363.941162 775.649368C1363.941162 748.746414,1353.252411 722.948563,1334.230591 703.926743C1315.208771 684.904922,1289.410919 674.216171,1262.507965 674.216171C1235.605011 674.216171,1209.807159 684.904922,1190.785339 703.926743C1171.763519 722.948563,1161.074768 748.746414,1161.074768 775.649368C1161.074768 802.552322,1171.763519 828.350174,1190.785339 847.371994C1209.807159 866.393814,1235.605011 877.082565,1262.507965 877.082565C1289.410919 877.082565,1315.208771 866.393814,1334.230591 847.371994C1353.252411 828.350174,1363.941162 802.552322,1363.941162 775.649368Z" style="stroke:rgb(25.500488%,41.000366%,88.400269%); stroke-width: 2.500000;stroke-linecap: round;stroke-linejoin: round;stroke-miterlimit: 10.000000;fill: none;"></path>
  <path d="M1313.801987 604.989334C1313.801987 578.086380,1303.113235 552.288528,1284.091415 533.266708C1265.069595 514.244888,1239.271744 503.556137,1212.368790 503.556137C1185.465836 503.556137,1159.667984 514.244888,1140.646164 533.266708C1121.624344 552.288528,1110.935593 578.086380,1110.935593 604.989334C1110.935593 631.892288,1121.624344 657.690140,1140.646164 676.711960C1159.667984 695.733780,1185.465836 706.422531,1212.368790 706.422531C1239.271744 706.422531,1265.069595 695.733780,1284.091415 676.711960C1303.113235 657.690140,1313.801987 631.892288,1313.801987 604.989334Z" style="stroke:rgb(25.500488%,41.000366%,88.400269%); stroke-width: 2.500000;stroke-linecap: round;stroke-linejoin: round;stroke-miterlimit: 10.000000;fill: none;"></path>
  <path d="M1264.116974 433.745392C1264.116974 406.842438,1253.428223 381.044586,1234.406403 362.022766C1215.384583 343.000946,1189.586731 332.312195,1162.683777 332.312195C1135.780823 332.312195,1109.982971 343.000946,1090.961151 362.022766C1071.939331 381.044586,1061.250580 406.842438,1061.250580 433.745392C1061.250580 460.648346,1071.939331 486.446198,1090.961151 505.468018C1109.982971 524.489838,1135.780823 535.178589,1162.683777 535.178589C1189.586731 535.178589,1215.384583 524.489838,1234.406403 505.468018C1253.428223 486.446198,1264.116974 460.648346,1264.116974 433.745392Z" style="stroke:rgb(25.500488%,41.000366%,88.400269%); stroke-width: 2.500000;stroke-linecap: round;stroke-linejoin: round;stroke-miterlimit: 10.000000;fill: none;"></path>
  <path d="M1213.134369 264.979843C1213.134369 238.076889,1202.445618 212.279037,1183.423798 193.257217C1164.401978 174.235397,1138.604126 163.546646,1111.701172 163.546646C1084.798218 163.546646,1059.000366 174.235397,1039.978546 193.257217C1020.956726 212.279037,1010.267975 238.076889,1010.267975 264.979843C1010.267975 291.882797,1020.956726 317.680649,1039.978546 336.702469C1059.000366 355.724289,1084.798218 366.413040,1111.701172 366.413040C1138.604126 366.413040,1164.401978 355.724289,1183.423798 336.702469C1202.445618 317.680649,1213.134369 291.882797,1213.134369 264.979843Z" style="stroke:rgb(25.500488%,41.000366%,88.400269%); stroke-width: 2.500000;stroke-linecap: round;stroke-linejoin: round;stroke-miterlimit: 10.000000;fill: none;"></path>
  <path d="M1340.701187 1239.267990C1340.701187 1212.365036,1330.012436 1186.567184,1310.990616 1167.545364C1291.968796 1148.523544,1266.170944 1137.834793,1239.267990 1137.834793C1212.365036 1137.834793,1186.567184 1148.523544,1167.545364 1167.545364C1148.523544 1186.567184,1137.834793 1212.365036,1137.834793 1239.267990C1137.834793 1266.170944,1148.523544 1291.968796,1167.545364 1310.990616C1186.567184 1330.012436,1212.365036 1340.701187,1239.267990 1340.701187C1266.170944 1340.701187,1291.968796 1330.012436,1310.990616 1310.990616C1330.012436 1291.968796,1340.701187 1266.170944,1340.701187 1239.267990Z" style="stroke:rgb(25.500488%,41.000366%,88.400269%); stroke-width: 2.500000;stroke-linecap: round;stroke-linejoin: round;stroke-miterlimit: 10.000000;fill: none;"></path>
  <path d="M1292.054245 1068.776642C1292.054245 1041.873688,1281.365494 1016.075836,1262.343674 997.054016C1243.321854 978.032196,1217.524002 967.343445,1190.621048 967.343445C1163.718094 967.343445,1137.920242 978.032196,1118.898422 997.054016C1099.876602 1016.075836,1089.187851 1041.873688,1089.187851 1068.776642C1089.187851 1095.679596,1099.876602 1121.477448,1118.898422 1140.499268C1137.920242 1159.521088,1163.718094 1170.209839,1190.621048 1170.209839C1217.524002 1170.209839,1243.321854 1159.521088,1262.343674 1140.499268C1281.365494 1121.477448,1292.054245 1095.679596,1292.054245 1068.776642Z" style="stroke:rgb(25.500488%,41.000366%,88.400269%); stroke-width: 2.500000;stroke-linecap: round;stroke-linejoin: round;stroke-miterlimit: 10.000000;fill: none;"></path>
  <path d="M1243.186722 897.636505C1243.186722 870.733551,1232.497971 844.935699,1213.476151 825.913879C1194.454330 806.892059,1168.656479 796.203308,1141.753525 796.203308C1114.850571 796.203308,1089.052719 806.892059,1070.030899 825.913879C1051.009079 844.935699,1040.320328 870.733551,1040.320328 897.636505C1040.320328 924.539459,1051.009079 950.337311,1070.030899 969.359131C1089.052719 988.380951,1114.850571 999.069702,1141.753525 999.069702C1168.656479 999.069702,1194.454330 988.380951,1213.476151 969.359131C1232.497971 950.337311,1243.186722 924.539459,1243.186722 897.636505Z" style="stroke:rgb(25.500488%,41.000366%,88.400269%); stroke-width: 2.500000;stroke-linecap: round;stroke-linejoin: round;stroke-miterlimit: 10.000000;fill: none;"></path>
  <path d="M1193.268158 727.028381C1193.268158 700.125427,1182.579407 674.327576,1163.557587 655.305756C1144.535767 636.283936,1118.737915 625.595184,1091.834961 625.595184C1064.932007 625.595184,1039.134155 636.283936,1020.112335 655.305756C1001.090515 674.327576,990.401764 700.125427,990.401764 727.028381C990.401764 753.931335,1001.090515 779.729187,1020.112335 798.751007C1039.134155 817.772827,1064.932007 828.461578,1091.834961 828.461578C1118.737915 828.461578,1144.535767 817.772827,1163.557587 798.751007C1182.579407 779.729187,1193.268158 753.931335,1193.268158 727.028381Z" style="stroke:rgb(25.500488%,41.000366%,88.400269%); stroke-width: 2.500000;stroke-linecap: round;stroke-linejoin: round;stroke-miterlimit: 10.000000;fill: none;"></path>
  <path d="M1143.686951 555.810379C1143.686951 528.907425,1132.998199 503.109573,1113.976379 484.087753C1094.954559 465.065933,1069.156708 454.377182,1042.253754 454.377182C1015.350800 454.377182,989.552948 465.065933,970.531128 484.087753C951.509308 503.109573,940.820557 528.907425,940.820557 555.810379C940.820557 582.713333,951.509308 608.511185,970.531128 627.533005C989.552948 646.554825,1015.350800 657.243576,1042.253754 657.243576C1069.156708 657.243576,1094.954559 646.554825,1113.976379 627.533005C1132.998199 608.511185,1143.686951 582.713333,1143.686951 555.810379Z" style="stroke:rgb(25.500488%,41.000366%,88.400269%); stroke-width: 2.500000;stroke-linecap: round;stroke-linejoin: round;stroke-miterlimit: 10.000000;fill: none;"></path>
  <path d="M1091.783051 386.824265C1091.783051 359.921310,1081.094299 334.123459,1062.072479 315.101639C1043.050659 296.079819,1017.252808 285.391068,990.349854 285.391068C963.446899 285.391068,937.649048 296.079819,918.627228 315.101639C899.605408 334.123459,888.916656 359.921310,888.916656 386.824265C888.916656 413.727219,899.605408 439.525070,918.627228 458.546890C937.649048 477.568710,963.446899 488.257462,990.349854 488.257462C1017.252808 488.257462,1043.050659 477.568710,1062.072479 458.546890C1081.094299 439.525070,1091.783051 413.727219,1091.783051 386.824265Z" style="stroke:rgb(25.500488%,41.000366%,88.400269%); stroke-width: 2.500000;stroke-linecap: round;stroke-linejoin: round;stroke-miterlimit: 10.000000;fill: none;"></path>
  <path d="M1044.732162 215.528412C1044.732162 188.625458,1034.043411 162.827606,1015.021591 143.805786C995.999771 124.783966,970.201920 114.095215,943.298965 114.095215C916.396011 114.095215,890.598160 124.783966,871.576340 143.805786C852.554520 162.827606,841.865768 188.625458,841.865768 215.528412C841.865768 242.431366,852.554520 268.229218,871.576340 287.251038C890.598160 306.272858,916.396011 316.961609,943.298965 316.961609C970.201920 316.961609,995.999771 306.272858,1015.021591 287.251038C1034.043411 268.229218,1044.732162 242.431366,1044.732162 215.528412Z" style="stroke:rgb(25.500488%,41.000366%,88.400269%); stroke-width: 2.500000;stroke-linecap: round;stroke-linejoin: round;stroke-miterlimit: 10.000000;fill: none;"></path>
  <path d="M968.498306 101.910767C968.498306 75.007812,957.809555 49.209961,938.787735 30.188141C919.765915 11.166321,893.968063 0.477570,867.065109 0.477570C840.162155 0.477570,814.364304 11.166321,795.342484 30.188141C776.320663 49.209961,765.631912 75.007812,765.631912 101.910767C765.631912 128.813721,776.320663 154.611572,795.342484 173.633392C814.364304 192.655212,840.162155 203.343964,867.065109 203.343964C893.968063 203.343964,919.765915 192.655212,938.787735 173.633392C957.809555 154.611572,968.498306 128.813721,968.498306 101.910767Z" style="stroke:rgb(25.500488%,41.000366%,88.400269%); stroke-width: 2.500000;stroke-linecap: round;stroke-linejoin: round;stroke-miterlimit: 10.000000;fill: none;"></path>
  <path d="M1218.973557 1361.151321C1218.973557 1334.248367,1208.284805 1308.450516,1189.262985 1289.428696C1170.241165 1270.406876,1144.443314 1259.718124,1117.540359 1259.718124C1090.637405 1259.718124,1064.839554 1270.406876,1045.817734 1289.428696C1026.795914 1308.450516,1016.107162 1334.248367,1016.107162 1361.151321C1016.107162 1388.054276,1026.795914 1413.852127,1045.817734 1432.873947C1064.839554 1451.895767,1090.637405 1462.584518,1117.540359 1462.584518C1144.443314 1462.584518,1170.241165 1451.895767,1189.262985 1432.873947C1208.284805 1413.852127,1218.973557 1388.054276,1218.973557 1361.151321Z" style="stroke:rgb(25.500488%,41.000366%,88.400269%); stroke-width: 2.500000;stroke-linecap: round;stroke-linejoin: round;stroke-miterlimit: 10.000000;fill: none;"></path>
  <path d="M1170.209839 1190.621048C1170.209839 1163.718094,1159.521088 1137.920242,1140.499268 1118.898422C1121.477448 1099.876602,1095.679596 1089.187851,1068.776642 1089.187851C1041.873688 1089.187851,1016.075836 1099.876602,997.054016 1118.898422C978.032196 1137.920242,967.343445 1163.718094,967.343445 1190.621048C967.343445 1217.524002,978.032196 1243.321854,997.054016 1262.343674C1016.075836 1281.365494,1041.873688 1292.054245,1068.776642 1292.054245C1095.679596 1292.054245,1121.477448 1281.365494,1140.499268 1262.343674C1159.521088 1243.321854,1170.209839 1217.524002,1170.209839 1190.621048Z" style="stroke:rgb(25.500488%,41.000366%,88.400269%); stroke-width: 2.500000;stroke-linecap: round;stroke-linejoin: round;stroke-miterlimit: 10.000000;fill: none;"></path>
  <path d="M1122.315521 1020.882324C1122.315521 993.979370,1111.626770 968.181519,1092.604950 949.159698C1073.583130 930.137878,1047.785278 919.449127,1020.882324 919.449127C993.979370 919.449127,968.181519 930.137878,949.159698 949.159698C930.137878 968.181519,919.449127 993.979370,919.449127 1020.882324C919.449127 1047.785278,930.137878 1073.583130,949.159698 1092.604950C968.181519 1111.626770,993.979370 1122.315521,1020.882324 1122.315521C1047.785278 1122.315521,1073.583130 1111.626770,1092.604950 1092.604950C1111.626770 1073.583130,1122.315521 1047.785278,1122.315521 1020.882324Z" style="stroke:rgb(25.500488%,41.000366%,88.400269%); stroke-width: 2.500000;stroke-linecap: round;stroke-linejoin: round;stroke-miterlimit: 10.000000;fill: none;"></path>
  <path d="M1072.838120 850.352051C1072.838120 823.449097,1062.149368 797.651245,1043.127548 778.629425C1024.105728 759.607605,998.307877 748.918854,971.404922 748.918854C944.501968 748.918854,918.704117 759.607605,899.682297 778.629425C880.660477 797.651245,869.971725 823.449097,869.971725 850.352051C869.971725 877.255005,880.660477 903.052856,899.682297 922.074677C918.704117 941.096497,944.501968 951.785248,971.404922 951.785248C998.307877 951.785248,1024.105728 941.096497,1043.127548 922.074677C1062.149368 903.052856,1072.838120 877.255005,1072.838120 850.352051Z" style="stroke:rgb(25.500488%,41.000366%,88.400269%); stroke-width: 2.500000;stroke-linecap: round;stroke-linejoin: round;stroke-miterlimit: 10.000000;fill: none;"></path>
  <path d="M1023.594299 679.705002C1023.594299 652.802048,1012.905548 627.004196,993.883728 607.982376C974.861908 588.960556,949.064056 578.271805,922.161102 578.271805C895.258148 578.271805,869.460297 588.960556,850.438477 607.982376C831.416656 627.004196,820.727905 652.802048,820.727905 679.705002C820.727905 706.607956,831.416656 732.405807,850.438477 751.427628C869.460297 770.449448,895.258148 781.138199,922.161102 781.138199C949.064056 781.138199,974.861908 770.449448,993.883728 751.427628C1012.905548 732.405807,1023.594299 706.607956,1023.594299 679.705002Z" style="stroke:rgb(25.500488%,41.000366%,88.400269%); stroke-width: 2.500000;stroke-linecap: round;stroke-linejoin: round;stroke-miterlimit: 10.000000;fill: none;"></path>
  <path d="M971.807175 510.731842C971.807175 483.828888,961.118423 458.031036,942.096603 439.009216C923.074783 419.987396,897.276932 409.298645,870.373978 409.298645C843.471024 409.298645,817.673172 419.987396,798.651352 439.009216C779.629532 458.031036,768.940781 483.828888,768.940781 510.731842C768.940781 537.634796,779.629532 563.432648,798.651352 582.454468C817.673172 601.476288,843.471024 612.165039,870.373978 612.165039C897.276932 612.165039,923.074783 601.476288,942.096603 582.454468C961.118423 563.432648,971.807175 537.634796,971.807175 510.731842Z" style="stroke:rgb(25.500488%,41.000366%,88.400269%); stroke-width: 2.500000;stroke-linecap: round;stroke-linejoin: round;stroke-miterlimit: 10.000000;fill: none;"></path>
  <path d="M922.965607 340.162643C922.965607 313.259689,912.276855 287.461838,893.255035 268.440018C874.233215 249.418198,848.435364 238.729446,821.532410 238.729446C794.629456 238.729446,768.831604 249.418198,749.809784 268.440018C730.787964 287.461838,720.099213 313.259689,720.099213 340.162643C720.099213 367.065598,730.787964 392.863449,749.809784 411.885269C768.831604 430.907089,794.629456 441.595840,821.532410 441.595840C848.435364 441.595840,874.233215 430.907089,893.255035 411.885269C912.276855 392.863449,922.965607 367.065598,922.965607 340.162643Z" style="stroke:rgb(25.500488%,41.000366%,88.400269%); stroke-width: 2.500000;stroke-linecap: round;stroke-linejoin: round;stroke-miterlimit: 10.000000;fill: none;"></path>
  <path d="M860.538193 187.993393C860.538193 161.090439,849.849442 135.292587,830.827621 116.270767C811.805801 97.248947,786.007950 86.560196,759.104996 86.560196C732.202042 86.560196,706.404190 97.248947,687.382370 116.270767C668.360550 135.292587,657.671799 161.090439,657.671799 187.993393C657.671799 214.896347,668.360550 240.694199,687.382370 259.716019C706.404190 278.737839,732.202042 289.426590,759.104996 289.426590C786.007950 289.426590,811.805801 278.737839,830.827621 259.716019C849.849442 240.694199,860.538193 214.896347,860.538193 187.993393Z" style="stroke:rgb(25.500488%,41.000366%,88.400269%); stroke-width: 2.500000;stroke-linecap: round;stroke-linejoin: round;stroke-miterlimit: 10.000000;fill: none;"></path>
  <path d="M1096.947479 1482.320984C1096.947479 1455.418030,1086.258728 1429.620178,1067.236908 1410.598358C1048.215088 1391.576538,1022.417236 1380.887787,995.514282 1380.887787C968.611328 1380.887787,942.813477 1391.576538,923.791656 1410.598358C904.769836 1429.620178,894.081085 1455.418030,894.081085 1482.320984C894.081085 1509.223938,904.769836 1535.021790,923.791656 1554.043610C942.813477 1573.065430,968.611328 1583.754181,995.514282 1583.754181C1022.417236 1583.754181,1048.215088 1573.065430,1067.236908 1554.043610C1086.258728 1535.021790,1096.947479 1509.223938,1096.947479 1482.320984Z" style="stroke:rgb(25.500488%,41.000366%,88.400269%); stroke-width: 2.500000;stroke-linecap: round;stroke-linejoin: round;stroke-miterlimit: 10.000000;fill: none;"></path>
  <path d="M1048.326508 1311.803696C1048.326508 1284.900742,1037.637756 1259.102890,1018.615936 1240.081070C999.594116 1221.059250,973.796265 1210.370499,946.893311 1210.370499C919.990356 1210.370499,894.192505 1221.059250,875.170685 1240.081070C856.148865 1259.102890,845.460114 1284.900742,845.460114 1311.803696C845.460114 1338.706650,856.148865 1364.504501,875.170685 1383.526321C894.192505 1402.548141,919.990356 1413.236893,946.893311 1413.236893C973.796265 1413.236893,999.594116 1402.548141,1018.615936 1383.526321C1037.637756 1364.504501,1048.326508 1338.706650,1048.326508 1311.803696Z" style="stroke:rgb(25.500488%,41.000366%,88.400269%); stroke-width: 2.500000;stroke-linecap: round;stroke-linejoin: round;stroke-miterlimit: 10.000000;fill: none;"></path>
  <path d="M999.069702 1141.753525C999.069702 1114.850571,988.380951 1089.052719,969.359131 1070.030899C950.337311 1051.009079,924.539459 1040.320328,897.636505 1040.320328C870.733551 1040.320328,844.935699 1051.009079,825.913879 1070.030899C806.892059 1089.052719,796.203308 1114.850571,796.203308 1141.753525C796.203308 1168.656479,806.892059 1194.454330,825.913879 1213.476151C844.935699 1232.497971,870.733551 1243.186722,897.636505 1243.186722C924.539459 1243.186722,950.337311 1232.497971,969.359131 1213.476151C988.380951 1194.454330,999.069702 1168.656479,999.069702 1141.753525Z" style="stroke:rgb(25.500488%,41.000366%,88.400269%); stroke-width: 2.500000;stroke-linecap: round;stroke-linejoin: round;stroke-miterlimit: 10.000000;fill: none;"></path>
  <path d="M951.785248 971.404922C951.785248 944.501968,941.096497 918.704117,922.074677 899.682297C903.052856 880.660477,877.255005 869.971725,850.352051 869.971725C823.449097 869.971725,797.651245 880.660477,778.629425 899.682297C759.607605 918.704117,748.918854 944.501968,748.918854 971.404922C748.918854 998.307877,759.607605 1024.105728,778.629425 1043.127548C797.651245 1062.149368,823.449097 1072.838120,850.352051 1072.838120C877.255005 1072.838120,903.052856 1062.149368,922.074677 1043.127548C941.096497 1024.105728,951.785248 998.307877,951.785248 971.404922Z" style="stroke:rgb(25.500488%,41.000366%,88.400269%); stroke-width: 2.500000;stroke-linecap: round;stroke-linejoin: round;stroke-miterlimit: 10.000000;fill: none;"></path>
  <path d="M902.100235 800.667038C902.100235 773.764084,891.411484 747.966232,872.389664 728.944412C853.367844 709.922592,827.569992 699.233841,800.667038 699.233841C773.764084 699.233841,747.966232 709.922592,728.944412 728.944412C709.922592 747.966232,699.233841 773.764084,699.233841 800.667038C699.233841 827.569992,709.922592 853.367844,728.944412 872.389664C747.966232 891.411484,773.764084 902.100235,800.667038 902.100235C827.569992 902.100235,853.367844 891.411484,872.389664 872.389664C891.411484 853.367844,902.100235 827.569992,902.100235 800.667038Z" style="stroke:rgb(25.500488%,41.000366%,88.400269%); stroke-width: 2.500000;stroke-linecap: round;stroke-linejoin: round;stroke-miterlimit: 10.000000;fill: none;"></path>
  <path d="M851.883209 631.006165C851.883209 604.103210,841.194458 578.305359,822.172638 559.283539C803.150818 540.261719,777.352966 529.572968,750.450012 529.572968C723.547058 529.572968,697.749207 540.261719,678.727386 559.283539C659.705566 578.305359,649.016815 604.103210,649.016815 631.006165C649.016815 657.909119,659.705566 683.706970,678.727386 702.728790C697.749207 721.750610,723.547058 732.439362,750.450012 732.439362C777.352966 732.439362,803.150818 721.750610,822.172638 702.728790C841.194458 683.706970,851.883209 657.909119,851.883209 631.006165Z" style="stroke:rgb(25.500488%,41.000366%,88.400269%); stroke-width: 2.500000;stroke-linecap: round;stroke-linejoin: round;stroke-miterlimit: 10.000000;fill: none;"></path>
  <path d="M800.848709 459.969833C800.848709 433.066879,790.159958 407.269028,771.138138 388.247208C752.116318 369.225388,726.318466 358.536636,699.415512 358.536636C672.512558 358.536636,646.714706 369.225388,627.692886 388.247208C608.671066 407.269028,597.982315 433.066879,597.982315 459.969833C597.982315 486.872787,608.671066 512.670639,627.692886 531.692459C646.714706 550.714279,672.512558 561.403030,699.415512 561.403030C726.318466 561.403030,752.116318 550.714279,771.138138 531.692459C790.159958 512.670639,800.848709 486.872787,800.848709 459.969833Z" style="stroke:rgb(25.500488%,41.000366%,88.400269%); stroke-width: 2.500000;stroke-linecap: round;stroke-linejoin: round;stroke-miterlimit: 10.000000;fill: none;"></path>
  <path d="M745.830566 296.187073C745.830566 269.284119,735.141815 243.486267,716.119995 224.464447C697.098175 205.442627,671.300323 194.753876,644.397369 194.753876C617.494415 194.753876,591.696564 205.442627,572.674744 224.464447C553.652924 243.486267,542.964172 269.284119,542.964172 296.187073C542.964172 323.090027,553.652924 348.887878,572.674744 367.909698C591.696564 386.931519,617.494415 397.620270,644.397369 397.620270C671.300323 397.620270,697.098175 386.931519,716.119995 367.909698C735.141815 348.887878,745.830566 323.090027,745.830566 296.187073Z" style="stroke:rgb(25.500488%,41.000366%,88.400269%); stroke-width: 2.500000;stroke-linecap: round;stroke-linejoin: round;stroke-miterlimit: 10.000000;fill: none;"></path>
  <path d="M975.570206 1603.399811C975.570206 1576.496857,964.881454 1550.699005,945.859634 1531.677185C926.837814 1512.655365,901.039963 1501.966614,874.137009 1501.966614C847.234055 1501.966614,821.436203 1512.655365,802.414383 1531.677185C783.392563 1550.699005,772.703812 1576.496857,772.703812 1603.399811C772.703812 1630.302765,783.392563 1656.100616,802.414383 1675.122437C821.436203 1694.144257,847.234055 1704.833008,874.137009 1704.833008C901.039963 1704.833008,926.837814 1694.144257,945.859634 1675.122437C964.881454 1656.100616,975.570206 1630.302765,975.570206 1603.399811Z" style="stroke:rgb(25.500488%,41.000366%,88.400269%); stroke-width: 2.500000;stroke-linecap: round;stroke-linejoin: round;stroke-miterlimit: 10.000000;fill: none;"></path>
  <path d="M926.404236 1432.571091C926.404236 1405.668137,915.715485 1379.870285,896.693665 1360.848465C877.671844 1341.826645,851.873993 1331.137894,824.971039 1331.137894C798.068085 1331.137894,772.270233 1341.826645,753.248413 1360.848465C734.226593 1379.870285,723.537842 1405.668137,723.537842 1432.571091C723.537842 1459.474045,734.226593 1485.271896,753.248413 1504.293716C772.270233 1523.315536,798.068085 1534.004288,824.971039 1534.004288C851.873993 1534.004288,877.671844 1523.315536,896.693665 1504.293716C915.715485 1485.271896,926.404236 1459.474045,926.404236 1432.571091Z" style="stroke:rgb(25.500488%,41.000366%,88.400269%); stroke-width: 2.500000;stroke-linecap: round;stroke-linejoin: round;stroke-miterlimit: 10.000000;fill: none;"></path>
  <path d="M877.082565 1262.507965C877.082565 1235.605011,866.393814 1209.807159,847.371994 1190.785339C828.350174 1171.763519,802.552322 1161.074768,775.649368 1161.074768C748.746414 1161.074768,722.948563 1171.763519,703.926743 1190.785339C684.904922 1209.807159,674.216171 1235.605011,674.216171 1262.507965C674.216171 1289.410919,684.904922 1315.208771,703.926743 1334.230591C722.948563 1353.252411,748.746414 1363.941162,775.649368 1363.941162C802.552322 1363.941162,828.350174 1353.252411,847.371994 1334.230591C866.393814 1315.208771,877.082565 1289.410919,877.082565 1262.507965Z" style="stroke:rgb(25.500488%,41.000366%,88.400269%); stroke-width: 2.500000;stroke-linecap: round;stroke-linejoin: round;stroke-miterlimit: 10.000000;fill: none;"></path>
  <path d="M828.461578 1091.834961C828.461578 1064.932007,817.772827 1039.134155,798.751007 1020.112335C779.729187 1001.090515,753.931335 990.401764,727.028381 990.401764C700.125427 990.401764,674.327576 1001.090515,655.305756 1020.112335C636.283936 1039.134155,625.595184 1064.932007,625.595184 1091.834961C625.595184 1118.737915,636.283936 1144.535767,655.305756 1163.557587C674.327576 1182.579407,700.125427 1193.268158,727.028381 1193.268158C753.931335 1193.268158,779.729187 1182.579407,798.751007 1163.557587C817.772827 1144.535767,828.461578 1118.737915,828.461578 1091.834961Z" style="stroke:rgb(25.500488%,41.000366%,88.400269%); stroke-width: 2.500000;stroke-linecap: round;stroke-linejoin: round;stroke-miterlimit: 10.000000;fill: none;"></path>
  <path d="M781.138199 922.161102C781.138199 895.258148,770.449448 869.460297,751.427628 850.438477C732.405807 831.416656,706.607956 820.727905,679.705002 820.727905C652.802048 820.727905,627.004196 831.416656,607.982376 850.438477C588.960556 869.460297,578.271805 895.258148,578.271805 922.161102C578.271805 949.064056,588.960556 974.861908,607.982376 993.883728C627.004196 1012.905548,652.802048 1023.594299,679.705002 1023.594299C706.607956 1023.594299,732.405807 1012.905548,751.427628 993.883728C770.449448 974.861908,781.138199 949.064056,781.138199 922.161102Z" style="stroke:rgb(25.500488%,41.000366%,88.400269%); stroke-width: 2.500000;stroke-linecap: round;stroke-linejoin: round;stroke-miterlimit: 10.000000;fill: none;"></path>
  <path d="M732.439362 750.450012C732.439362 723.547058,721.750610 697.749207,702.728790 678.727386C683.706970 659.705566,657.909119 649.016815,631.006165 649.016815C604.103210 649.016815,578.305359 659.705566,559.283539 678.727386C540.261719 697.749207,529.572968 723.547058,529.572968 750.450012C529.572968 777.352966,540.261719 803.150818,559.283539 822.172638C578.305359 841.194458,604.103210 851.883209,631.006165 851.883209C657.909119 851.883209,683.706970 841.194458,702.728790 822.172638C721.750610 803.150818,732.439362 777.352966,732.439362 750.450012Z" style="stroke:rgb(25.500488%,41.000366%,88.400269%); stroke-width: 2.500000;stroke-linecap: round;stroke-linejoin: round;stroke-miterlimit: 10.000000;fill: none;"></path>
  <path d="M680.717117 579.283920C680.717117 552.380966,670.028366 526.583115,651.006546 507.561295C631.984726 488.539474,606.186874 477.850723,579.283920 477.850723C552.380966 477.850723,526.583115 488.539474,507.561295 507.561295C488.539474 526.583115,477.850723 552.380966,477.850723 579.283920C477.850723 606.186874,488.539474 631.984726,507.561295 651.006546C526.583115 670.028366,552.380966 680.717117,579.283920 680.717117C606.186874 680.717117,631.984726 670.028366,651.006546 651.006546C670.028366 631.984726,680.717117 606.186874,680.717117 579.283920Z" style="stroke:rgb(25.500488%,41.000366%,88.400269%); stroke-width: 2.500000;stroke-linecap: round;stroke-linejoin: round;stroke-miterlimit: 10.000000;fill: none;"></path>
  <path d="M628.229294 409.739838C628.229294 382.836884,617.540543 357.039032,598.518723 338.017212C579.496902 318.995392,553.699051 308.306641,526.796097 308.306641C499.893143 308.306641,474.095291 318.995392,455.073471 338.017212C436.051651 357.039032,425.362900 382.836884,425.362900 409.739838C425.362900 436.642792,436.051651 462.440643,455.073471 481.462463C474.095291 500.484283,499.893143 511.173035,526.796097 511.173035C553.699051 511.173035,579.496902 500.484283,598.518723 481.462463C617.540543 462.440643,628.229294 436.642792,628.229294 409.739838Z" style="stroke:rgb(25.500488%,41.000366%,88.400269%); stroke-width: 2.500000;stroke-linecap: round;stroke-linejoin: round;stroke-miterlimit: 10.000000;fill: none;"></path>
  <path d="M805.364334 1553.325516C805.364334 1526.422562,794.675583 1500.624710,775.653763 1481.602890C756.631943 1462.581070,730.834091 1451.892319,703.931137 1451.892319C677.028183 1451.892319,651.230331 1462.581070,632.208511 1481.602890C613.186691 1500.624710,602.497940 1526.422562,602.497940 1553.325516C602.497940 1580.228470,613.186691 1606.026321,632.208511 1625.048141C651.230331 1644.069962,677.028183 1654.758713,703.931137 1654.758713C730.834091 1654.758713,756.631943 1644.069962,775.653763 1625.048141C794.675583 1606.026321,805.364334 1580.228470,805.364334 1553.325516Z" style="stroke:rgb(25.500488%,41.000366%,88.400269%); stroke-width: 2.500000;stroke-linecap: round;stroke-linejoin: round;stroke-miterlimit: 10.000000;fill: none;"></path>
  <path d="M755.108383 1383.067749C755.108383 1356.164795,744.419632 1330.366943,725.397812 1311.345123C706.375992 1292.323303,680.578140 1281.634552,653.675186 1281.634552C626.772232 1281.634552,600.974380 1292.323303,581.952560 1311.345123C562.930740 1330.366943,552.241989 1356.164795,552.241989 1383.067749C552.241989 1409.970703,562.930740 1435.768555,581.952560 1454.790375C600.974380 1473.812195,626.772232 1484.500946,653.675186 1484.500946C680.578140 1484.500946,706.375992 1473.812195,725.397812 1454.790375C744.419632 1435.768555,755.108383 1409.970703,755.108383 1383.067749Z" style="stroke:rgb(25.500488%,41.000366%,88.400269%); stroke-width: 2.500000;stroke-linecap: round;stroke-linejoin: round;stroke-miterlimit: 10.000000;fill: none;"></path>
  <path d="M706.422531 1212.368790C706.422531 1185.465836,695.733780 1159.667984,676.711960 1140.646164C657.690140 1121.624344,631.892288 1110.935593,604.989334 1110.935593C578.086380 1110.935593,552.288528 1121.624344,533.266708 1140.646164C514.244888 1159.667984,503.556137 1185.465836,503.556137 1212.368790C503.556137 1239.271744,514.244888 1265.069595,533.266708 1284.091415C552.288528 1303.113235,578.086380 1313.801987,604.989334 1313.801987C631.892288 1313.801987,657.690140 1303.113235,676.711960 1284.091415C695.733780 1265.069595,706.422531 1239.271744,706.422531 1212.368790Z" style="stroke:rgb(25.500488%,41.000366%,88.400269%); stroke-width: 2.500000;stroke-linecap: round;stroke-linejoin: round;stroke-miterlimit: 10.000000;fill: none;"></path>
  <path d="M657.243576 1042.253754C657.243576 1015.350800,646.554825 989.552948,627.533005 970.531128C608.511185 951.509308,582.713333 940.820557,555.810379 940.820557C528.907425 940.820557,503.109573 951.509308,484.087753 970.531128C465.065933 989.552948,454.377182 1015.350800,454.377182 1042.253754C454.377182 1069.156708,465.065933 1094.954559,484.087753 1113.976379C503.109573 1132.998199,528.907425 1143.686951,555.810379 1143.686951C582.713333 1143.686951,608.511185 1132.998199,627.533005 1113.976379C646.554825 1094.954559,657.243576 1069.156708,657.243576 1042.253754Z" style="stroke:rgb(25.500488%,41.000366%,88.400269%); stroke-width: 2.500000;stroke-linecap: round;stroke-linejoin: round;stroke-miterlimit: 10.000000;fill: none;"></path>
  <path d="M612.165039 870.373978C612.165039 843.471024,601.476288 817.673172,582.454468 798.651352C563.432648 779.629532,537.634796 768.940781,510.731842 768.940781C483.828888 768.940781,458.031036 779.629532,439.009216 798.651352C419.987396 817.673172,409.298645 843.471024,409.298645 870.373978C409.298645 897.276932,419.987396 923.074783,439.009216 942.096603C458.031036 961.118423,483.828888 971.807175,510.731842 971.807175C537.634796 971.807175,563.432648 961.118423,582.454468 942.096603C601.476288 923.074783,612.165039 897.276932,612.165039 870.373978Z" style="stroke:rgb(25.500488%,41.000366%,88.400269%); stroke-width: 2.500000;stroke-linecap: round;stroke-linejoin: round;stroke-miterlimit: 10.000000;fill: none;"></path>
  <path d="M561.403030 699.415512C561.403030 672.512558,550.714279 646.714706,531.692459 627.692886C512.670639 608.671066,486.872787 597.982315,459.969833 597.982315C433.066879 597.982315,407.269028 608.671066,388.247208 627.692886C369.225388 646.714706,358.536636 672.512558,358.536636 699.415512C358.536636 726.318466,369.225388 752.116318,388.247208 771.138138C407.269028 790.159958,433.066879 800.848709,459.969833 800.848709C486.872787 800.848709,512.670639 790.159958,531.692459 771.138138C550.714279 752.116318,561.403030 726.318466,561.403030 699.415512Z" style="stroke:rgb(25.500488%,41.000366%,88.400269%); stroke-width: 2.500000;stroke-linecap: round;stroke-linejoin: round;stroke-miterlimit: 10.000000;fill: none;"></path>
  <path d="M511.173035 526.796097C511.173035 499.893143,500.484283 474.095291,481.462463 455.073471C462.440643 436.051651,436.642792 425.362900,409.739838 425.362900C382.836884 425.362900,357.039032 436.051651,338.017212 455.073471C318.995392 474.095291,308.306641 499.893143,308.306641 526.796097C308.306641 553.699051,318.995392 579.496902,338.017212 598.518723C357.039032 617.540543,382.836884 628.229294,409.739838 628.229294C436.642792 628.229294,462.440643 617.540543,481.462463 598.518723C500.484283 579.496902,511.173035 553.699051,511.173035 526.796097Z" style="stroke:rgb(25.500488%,41.000366%,88.400269%); stroke-width: 2.500000;stroke-linecap: round;stroke-linejoin: round;stroke-miterlimit: 10.000000;fill: none;"></path>
  <path d="M584.785736 1332.889648C584.785736 1305.986694,574.096985 1280.188843,555.075165 1261.167023C536.053345 1242.145203,510.255493 1231.456451,483.352539 1231.456451C456.449585 1231.456451,430.651733 1242.145203,411.629913 1261.167023C392.608093 1280.188843,381.919342 1305.986694,381.919342 1332.889648C381.919342 1359.792603,392.608093 1385.590454,411.629913 1404.612274C430.651733 1423.634094,456.449585 1434.322845,483.352539 1434.322845C510.255493 1434.322845,536.053345 1423.634094,555.075165 1404.612274C574.096985 1385.590454,584.785736 1359.792603,584.785736 1332.889648Z" style="stroke:rgb(25.500488%,41.000366%,88.400269%); stroke-width: 2.500000;stroke-linecap: round;stroke-linejoin: round;stroke-miterlimit: 10.000000;fill: none;"></path>
  <path d="M535.178589 1162.683777C535.178589 1135.780823,524.489838 1109.982971,505.468018 1090.961151C486.446198 1071.939331,460.648346 1061.250580,433.745392 1061.250580C406.842438 1061.250580,381.044586 1071.939331,362.022766 1090.961151C343.000946 1109.982971,332.312195 1135.780823,332.312195 1162.683777C332.312195 1189.586731,343.000946 1215.384583,362.022766 1234.406403C381.044586 1253.428223,406.842438 1264.116974,433.745392 1264.116974C460.648346 1264.116974,486.446198 1253.428223,505.468018 1234.406403C524.489838 1215.384583,535.178589 1189.586731,535.178589 1162.683777Z" style="stroke:rgb(25.500488%,41.000366%,88.400269%); stroke-width: 2.500000;stroke-linecap: round;stroke-linejoin: round;stroke-miterlimit: 10.000000;fill: none;"></path>
  <path d="M488.257462 990.349854C488.257462 963.446899,477.568710 937.649048,458.546890 918.627228C439.525070 899.605408,413.727219 888.916656,386.824265 888.916656C359.921310 888.916656,334.123459 899.605408,315.101639 918.627228C296.079819 937.649048,285.391068 963.446899,285.391068 990.349854C285.391068 1017.252808,296.079819 1043.050659,315.101639 1062.072479C334.123459 1081.094299,359.921310 1091.783051,386.824265 1091.783051C413.727219 1091.783051,439.525070 1081.094299,458.546890 1062.072479C477.568710 1043.050659,488.257462 1017.252808,488.257462 990.349854Z" style="stroke:rgb(25.500488%,41.000366%,88.400269%); stroke-width: 2.500000;stroke-linecap: round;stroke-linejoin: round;stroke-miterlimit: 10.000000;fill: none;"></path>
  <path d="M441.595840 821.532410C441.595840 794.629456,430.907089 768.831604,411.885269 749.809784C392.863449 730.787964,367.065598 720.099213,340.162643 720.099213C313.259689 720.099213,287.461838 730.787964,268.440018 749.809784C249.418198 768.831604,238.729446 794.629456,238.729446 821.532410C238.729446 848.435364,249.418198 874.233215,268.440018 893.255035C287.461838 912.276855,313.259689 922.965607,340.162643 922.965607C367.065598 922.965607,392.863449 912.276855,411.885269 893.255035C430.907089 874.233215,441.595840 848.435364,441.595840 821.532410Z" style="stroke:rgb(25.500488%,41.000366%,88.400269%); stroke-width: 2.500000;stroke-linecap: round;stroke-linejoin: round;stroke-miterlimit: 10.000000;fill: none;"></path>
  <path d="M397.620270 644.397369C397.620270 617.494415,386.931519 591.696564,367.909698 572.674744C348.887878 553.652924,323.090027 542.964172,296.187073 542.964172C269.284119 542.964172,243.486267 553.652924,224.464447 572.674744C205.442627 591.696564,194.753876 617.494415,194.753876 644.397369C194.753876 671.300323,205.442627 697.098175,224.464447 716.119995C243.486267 735.141815,269.284119 745.830566,296.187073 745.830566C323.090027 745.830566,348.887878 735.141815,367.909698 716.119995C386.931519 697.098175,397.620270 671.300323,397.620270 644.397369Z" style="stroke:rgb(25.500488%,41.000366%,88.400269%); stroke-width: 2.500000;stroke-linecap: round;stroke-linejoin: round;stroke-miterlimit: 10.000000;fill: none;"></path>
  <path d="M366.413040 1111.701172C366.413040 1084.798218,355.724289 1059.000366,336.702469 1039.978546C317.680649 1020.956726,291.882797 1010.267975,264.979843 1010.267975C238.076889 1010.267975,212.279037 1020.956726,193.257217 1039.978546C174.235397 1059.000366,163.546646 1084.798218,163.546646 1111.701172C163.546646 1138.604126,174.235397 1164.401978,193.257217 1183.423798C212.279037 1202.445618,238.076889 1213.134369,264.979843 1213.134369C291.882797 1213.134369,317.680649 1202.445618,336.702469 1183.423798C355.724289 1164.401978,366.413040 1138.604126,366.413040 1111.701172Z" style="stroke:rgb(25.500488%,41.000366%,88.400269%); stroke-width: 2.500000;stroke-linecap: round;stroke-linejoin: round;stroke-miterlimit: 10.000000;fill: none;"></path>
  <path d="M316.961609 943.298965C316.961609 916.396011,306.272858 890.598160,287.251038 871.576340C268.229218 852.554520,242.431366 841.865768,215.528412 841.865768C188.625458 841.865768,162.827606 852.554520,143.805786 871.576340C124.783966 890.598160,114.095215 916.396011,114.095215 943.298965C114.095215 970.201920,124.783966 995.999771,143.805786 1015.021591C162.827606 1034.043411,188.625458 1044.732162,215.528412 1044.732162C242.431366 1044.732162,268.229218 1034.043411,287.251038 1015.021591C306.272858 995.999771,316.961609 970.201920,316.961609 943.298965Z" style="stroke:rgb(25.500488%,41.000366%,88.400269%); stroke-width: 2.500000;stroke-linecap: round;stroke-linejoin: round;stroke-miterlimit: 10.000000;fill: none;"></path>
  <path d="M289.426590 759.104996C289.426590 732.202042,278.737839 706.404190,259.716019 687.382370C240.694199 668.360550,214.896347 657.671799,187.993393 657.671799C161.090439 657.671799,135.292587 668.360550,116.270767 687.382370C97.248947 706.404190,86.560196 732.202042,86.560196 759.104996C86.560196 786.007950,97.248947 811.805801,116.270767 830.827621C135.292587 849.849442,161.090439 860.538193,187.993393 860.538193C214.896347 860.538193,240.694199 849.849442,259.716019 830.827621C278.737839 811.805801,289.426590 786.007950,289.426590 759.104996Z" style="stroke:rgb(25.500488%,41.000366%,88.400269%); stroke-width: 2.500000;stroke-linecap: round;stroke-linejoin: round;stroke-miterlimit: 10.000000;fill: none;"></path>
  <path d="M203.343964 867.065109C203.343964 840.162155,192.655212 814.364304,173.633392 795.342484C154.611572 776.320663,128.813721 765.631912,101.910767 765.631912C75.007812 765.631912,49.209961 776.320663,30.188141 795.342484C11.166321 814.364304,0.477570 840.162155,0.477570 867.065109C0.477570 893.968063,11.166321 919.765915,30.188141 938.787735C49.209961 957.809555,75.007812 968.498306,101.910767 968.498306C128.813721 968.498306,154.611572 957.809555,173.633392 938.787735C192.655212 919.765915,203.343964 893.968063,203.343964 867.065109Z" style="stroke:rgb(25.500488%,41.000366%,88.400269%); stroke-width: 2.500000;stroke-linecap: round;stroke-linejoin: round;stroke-miterlimit: 10.000000;fill: none;"></path>
</svg>
