<?xml version="1.0"?>
<!-- Created by MetaPost 2.00 on 2022.03.02:1201 -->
<svg version="1.1" xmlns="http://www.w3.org/2000/svg" xmlns:xlink="http://www.w3.org/1999/xlink" width="1799.322220" height="1772.799332" viewBox="0 0 1799.322220 1772.799332">
<!-- Original BoundingBox: -880.060898 -886.380203 919.261322 886.419128 -->
  <path d="M880.000000 35.606476L333.374054 234.567108L42.530548 738.333405L143.535538 1311.196762L589.143509 1685.112473L1170.856491 1685.112473L1616.464462 1311.196762L1717.469452 738.333405L1426.625946 234.567108L880.000000 35.606476Z" style="fill: rgb(100.000000%,100.000000%,100.000000%);stroke: none;"></path>
  <path d="M880.000000 35.606476L333.374054 234.567108" style="stroke:rgb(0.000000%,0.000000%,0.000000%); stroke-width: 2.500000;stroke-linecap: round;stroke-linejoin: round;stroke-miterlimit: 10.000000;fill: none;"></path>
  <path d="M333.374054 234.567108L42.530548 738.333405" style="stroke:rgb(0.000000%,0.000000%,0.000000%); stroke-width: 2.500000;stroke-linecap: round;stroke-linejoin: round;stroke-miterlimit: 10.000000;fill: none;"></path>
  <path d="M42.530548 738.333405L143.535538 1311.196762" style="stroke:rgb(0.000000%,0.000000%,0.000000%); stroke-width: 2.500000;stroke-linecap: round;stroke-linejoin: round;stroke-miterlimit: 10.000000;fill: none;"></path>
  <path d="M143.535538 1311.196762L589.143509 1685.112473" style="stroke:rgb(0.000000%,0.000000%,0.000000%); stroke-width: 2.500000;stroke-linecap: round;stroke-linejoin: round;stroke-miterlimit: 10.000000;fill: none;"></path>
  <path d="M589.143509 1685.112473L1170.856491 1685.112473" style="stroke:rgb(0.000000%,0.000000%,0.000000%); stroke-width: 2.500000;stroke-linecap: round;stroke-linejoin: round;stroke-miterlimit: 10.000000;fill: none;"></path>
  <path d="M1170.856491 1685.112473L1616.464462 1311.196762" style="stroke:rgb(0.000000%,0.000000%,0.000000%); stroke-width: 2.500000;stroke-linecap: round;stroke-linejoin: round;stroke-miterlimit: 10.000000;fill: none;"></path>
  <path d="M1616.464462 1311.196762L1717.469452 738.333405" style="stroke:rgb(0.000000%,0.000000%,0.000000%); stroke-width: 2.500000;stroke-linecap: round;stroke-linejoin: round;stroke-miterlimit: 10.000000;fill: none;"></path>
  <path d="M1717.469452 738.333405L1426.625946 234.567108" style="stroke:rgb(0.000000%,0.000000%,0.000000%); stroke-width: 2.500000;stroke-linecap: round;stroke-linejoin: round;stroke-miterlimit: 10.000000;fill: none;"></path>
  <path d="M1426.625946 234.567108L880.000000 35.606476" style="stroke:rgb(0.000000%,0.000000%,0.000000%); stroke-width: 2.500000;stroke-linecap: round;stroke-linejoin: round;stroke-miterlimit: 10.000000;fill: none;"></path>
  <path d="M1798.011322 915.377609C1798.011322 882.823563,1785.077347 851.606735,1762.059906 828.589279C1739.042450 805.571838,1707.825623 792.637863,1675.271576 792.637863C1642.717529 792.637863,1611.500702 805.571838,1588.483246 828.589279C1565.465805 851.606735,1552.531830 882.823563,1552.531830 915.377609C1552.531830 947.931656,1565.465805 979.148483,1588.483246 1002.165939C1611.500702 1025.183380,1642.717529 1038.117355,1675.271576 1038.117355C1707.825623 1038.117355,1739.042450 1025.183380,1762.059906 1002.165939C1785.077347 979.148483,1798.011322 947.931656,1798.011322 915.377609Z" style="stroke:rgb(25.500488%,41.000366%,88.400269%); stroke-width: 2.500000;stroke-linecap: round;stroke-linejoin: round;stroke-miterlimit: 10.000000;fill: none;"></path>
  <path d="M1732.962769 721.555466C1732.962769 689.001419,1720.028793 657.784592,1697.011353 634.767136C1673.993896 611.749695,1642.777069 598.815720,1610.223022 598.815720C1577.668976 598.815720,1546.452148 611.749695,1523.434692 634.767136C1500.417252 657.784592,1487.483276 689.001419,1487.483276 721.555466C1487.483276 754.109512,1500.417252 785.326340,1523.434692 808.343796C1546.452148 831.361237,1577.668976 844.295212,1610.223022 844.295212C1642.777069 844.295212,1673.993896 831.361237,1697.011353 808.343796C1720.028793 785.326340,1732.962769 754.109512,1732.962769 721.555466Z" style="stroke:rgb(25.500488%,41.000366%,88.400269%); stroke-width: 2.500000;stroke-linecap: round;stroke-linejoin: round;stroke-miterlimit: 10.000000;fill: none;"></path>
  <path d="M1659.259216 534.454880C1659.259216 501.900833,1646.325241 470.684006,1623.307800 447.666550C1600.290344 424.649109,1569.073517 411.715134,1536.519470 411.715134C1503.965424 411.715134,1472.748596 424.649109,1449.731140 447.666550C1426.713699 470.684006,1413.779724 501.900833,1413.779724 534.454880C1413.779724 567.008926,1426.713699 598.225754,1449.731140 621.243210C1472.748596 644.260651,1503.965424 657.194626,1536.519470 657.194626C1569.073517 657.194626,1600.290344 644.260651,1623.307800 621.243210C1646.325241 598.225754,1659.259216 567.008926,1659.259216 534.454880Z" style="stroke:rgb(25.500488%,41.000366%,88.400269%); stroke-width: 2.500000;stroke-linecap: round;stroke-linejoin: round;stroke-miterlimit: 10.000000;fill: none;"></path>
  <path d="M1562.886658 327.293427C1562.886658 294.739380,1549.952682 263.522552,1526.935242 240.505096C1503.917786 217.487656,1472.700958 204.553680,1440.146912 204.553680C1407.592865 204.553680,1376.376038 217.487656,1353.358582 240.505096C1330.341141 263.522552,1317.407166 294.739380,1317.407166 327.293427C1317.407166 359.847473,1330.341141 391.064301,1353.358582 414.081757C1376.376038 437.099197,1407.592865 450.033173,1440.146912 450.033173C1472.700958 450.033173,1503.917786 437.099197,1526.935242 414.081757C1549.952682 391.064301,1562.886658 359.847473,1562.886658 327.293427Z" style="stroke:rgb(25.500488%,41.000366%,88.400269%); stroke-width: 2.500000;stroke-linecap: round;stroke-linejoin: round;stroke-miterlimit: 10.000000;fill: none;"></path>
  <path d="M1701.158646 1268.181396C1701.158646 1235.627350,1688.224670 1204.410522,1665.207230 1181.393066C1642.189774 1158.375626,1610.972946 1145.441650,1578.418900 1145.441650C1545.864853 1145.441650,1514.648026 1158.375626,1491.630569 1181.393066C1468.613129 1204.410522,1455.679153 1235.627350,1455.679153 1268.181396C1455.679153 1300.735443,1468.613129 1331.952271,1491.630569 1354.969727C1514.648026 1377.987167,1545.864853 1390.921143,1578.418900 1390.921143C1610.972946 1390.921143,1642.189774 1377.987167,1665.207230 1354.969727C1688.224670 1331.952271,1701.158646 1300.735443,1701.158646 1268.181396Z" style="stroke:rgb(25.500488%,41.000366%,88.400269%); stroke-width: 2.500000;stroke-linecap: round;stroke-linejoin: round;stroke-miterlimit: 10.000000;fill: none;"></path>
  <path d="M1673.130539 1082.378418C1673.130539 1049.824371,1660.196564 1018.607544,1637.179123 995.590088C1614.161667 972.572647,1582.944839 959.638672,1550.390793 959.638672C1517.836746 959.638672,1486.619919 972.572647,1463.602463 995.590088C1440.585022 1018.607544,1427.651047 1049.824371,1427.651047 1082.378418C1427.651047 1114.932465,1440.585022 1146.149292,1463.602463 1169.166748C1486.619919 1192.184189,1517.836746 1205.118164,1550.390793 1205.118164C1582.944839 1205.118164,1614.161667 1192.184189,1637.179123 1169.166748C1660.196564 1146.149292,1673.130539 1114.932465,1673.130539 1082.378418Z" style="stroke:rgb(25.500488%,41.000366%,88.400269%); stroke-width: 2.500000;stroke-linecap: round;stroke-linejoin: round;stroke-miterlimit: 10.000000;fill: none;"></path>
  <path d="M1589.604187 881.289719C1589.604187 848.735672,1576.670212 817.518845,1553.652771 794.501389C1530.635315 771.483948,1499.418488 758.549973,1466.864441 758.549973C1434.310394 758.549973,1403.093567 771.483948,1380.076111 794.501389C1357.058670 817.518845,1344.124695 848.735672,1344.124695 881.289719C1344.124695 913.843765,1357.058670 945.060593,1380.076111 968.078049C1403.093567 991.095490,1434.310394 1004.029465,1466.864441 1004.029465C1499.418488 1004.029465,1530.635315 991.095490,1553.652771 968.078049C1576.670212 945.060593,1589.604187 913.843765,1589.604187 881.289719Z" style="stroke:rgb(25.500488%,41.000366%,88.400269%); stroke-width: 2.500000;stroke-linecap: round;stroke-linejoin: round;stroke-miterlimit: 10.000000;fill: none;"></path>
  <path d="M1523.102310 682.510757C1523.102310 649.956711,1510.168335 618.739883,1487.150894 595.722427C1464.133438 572.704987,1432.916611 559.771011,1400.362564 559.771011C1367.808517 559.771011,1336.591690 572.704987,1313.574234 595.722427C1290.556793 618.739883,1277.622818 649.956711,1277.622818 682.510757C1277.622818 715.064804,1290.556793 746.281631,1313.574234 769.299088C1336.591690 792.316528,1367.808517 805.250504,1400.362564 805.250504C1432.916611 805.250504,1464.133438 792.316528,1487.150894 769.299088C1510.168335 746.281631,1523.102310 715.064804,1523.102310 682.510757Z" style="stroke:rgb(25.500488%,41.000366%,88.400269%); stroke-width: 2.500000;stroke-linecap: round;stroke-linejoin: round;stroke-miterlimit: 10.000000;fill: none;"></path>
  <path d="M1450.514709 476.205719C1450.514709 443.651672,1437.580734 412.434845,1414.563293 389.417389C1391.545837 366.399948,1360.329010 353.465973,1327.774963 353.465973C1295.220917 353.465973,1264.004089 366.399948,1240.986633 389.417389C1217.969193 412.434845,1205.035217 443.651672,1205.035217 476.205719C1205.035217 508.759766,1217.969193 539.976593,1240.986633 562.994049C1264.004089 586.011490,1295.220917 598.945465,1327.774963 598.945465C1360.329010 598.945465,1391.545837 586.011490,1414.563293 562.994049C1437.580734 539.976593,1450.514709 508.759766,1450.514709 476.205719Z" style="stroke:rgb(25.500488%,41.000366%,88.400269%); stroke-width: 2.500000;stroke-linecap: round;stroke-linejoin: round;stroke-miterlimit: 10.000000;fill: none;"></path>
  <path d="M1389.618454 258.494812C1389.618454 225.940765,1376.684479 194.723938,1353.667038 171.706482C1330.649582 148.689041,1299.432755 135.755066,1266.878708 135.755066C1234.324661 135.755066,1203.107834 148.689041,1180.090378 171.706482C1157.072937 194.723938,1144.138962 225.940765,1144.138962 258.494812C1144.138962 291.048859,1157.072937 322.265686,1180.090378 345.283142C1203.107834 368.300583,1234.324661 381.234558,1266.878708 381.234558C1299.432755 381.234558,1330.649582 368.300583,1353.667038 345.283142C1376.684479 322.265686,1389.618454 291.048859,1389.618454 258.494812Z" style="stroke:rgb(25.500488%,41.000366%,88.400269%); stroke-width: 2.500000;stroke-linecap: round;stroke-linejoin: round;stroke-miterlimit: 10.000000;fill: none;"></path>
  <path d="M1534.235703 1404.130692C1534.235703 1371.576645,1521.301727 1340.359818,1498.284286 1317.342361C1475.266830 1294.324921,1444.050003 1281.390945,1411.495956 1281.390945C1378.941910 1281.390945,1347.725082 1294.324921,1324.707626 1317.342361C1301.690186 1340.359818,1288.756210 1371.576645,1288.756210 1404.130692C1288.756210 1436.684738,1301.690186 1467.901566,1324.707626 1490.919022C1347.725082 1513.936462,1378.941910 1526.870438,1411.495956 1526.870438C1444.050003 1526.870438,1475.266830 1513.936462,1498.284286 1490.919022C1521.301727 1467.901566,1534.235703 1436.684738,1534.235703 1404.130692Z" style="stroke:rgb(25.500488%,41.000366%,88.400269%); stroke-width: 2.500000;stroke-linecap: round;stroke-linejoin: round;stroke-miterlimit: 10.000000;fill: none;"></path>
  <path d="M1488.832764 1208.738464C1488.832764 1176.184418,1475.898788 1144.967590,1452.881348 1121.950134C1429.863892 1098.932693,1398.647064 1085.998718,1366.093018 1085.998718C1333.538971 1085.998718,1302.322144 1098.932693,1279.304688 1121.950134C1256.287247 1144.967590,1243.353271 1176.184418,1243.353271 1208.738464C1243.353271 1241.292511,1256.287247 1272.509338,1279.304688 1295.526794C1302.322144 1318.544235,1333.538971 1331.478210,1366.093018 1331.478210C1398.647064 1331.478210,1429.863892 1318.544235,1452.881348 1295.526794C1475.898788 1272.509338,1488.832764 1241.292511,1488.832764 1208.738464Z" style="stroke:rgb(25.500488%,41.000366%,88.400269%); stroke-width: 2.500000;stroke-linecap: round;stroke-linejoin: round;stroke-miterlimit: 10.000000;fill: none;"></path>
  <path d="M1458.118622 1024.855911C1458.118622 992.301865,1445.184647 961.085037,1422.167206 938.067581C1399.149750 915.050140,1367.932922 902.116165,1335.378876 902.116165C1302.824829 902.116165,1271.608002 915.050140,1248.590546 938.067581C1225.573105 961.085037,1212.639130 992.301865,1212.639130 1024.855911C1212.639130 1057.409958,1225.573105 1088.626785,1248.590546 1111.644241C1271.608002 1134.661682,1302.824829 1147.595657,1335.378876 1147.595657C1367.932922 1147.595657,1399.149750 1134.661682,1422.167206 1111.644241C1445.184647 1088.626785,1458.118622 1057.409958,1458.118622 1024.855911Z" style="stroke:rgb(25.500488%,41.000366%,88.400269%); stroke-width: 2.500000;stroke-linecap: round;stroke-linejoin: round;stroke-miterlimit: 10.000000;fill: none;"></path>
  <path d="M1376.772232 821.288803C1376.772232 788.734756,1363.838257 757.517929,1340.820816 734.500473C1317.803360 711.483032,1286.586533 698.549057,1254.032486 698.549057C1221.478439 698.549057,1190.261612 711.483032,1167.244156 734.500473C1144.226715 757.517929,1131.292740 788.734756,1131.292740 821.288803C1131.292740 853.842850,1144.226715 885.059677,1167.244156 908.077133C1190.261612 931.094574,1221.478439 944.028549,1254.032486 944.028549C1286.586533 944.028549,1317.803360 931.094574,1340.820816 908.077133C1363.838257 885.059677,1376.772232 853.842850,1376.772232 821.288803Z" style="stroke:rgb(25.500488%,41.000366%,88.400269%); stroke-width: 2.500000;stroke-linecap: round;stroke-linejoin: round;stroke-miterlimit: 10.000000;fill: none;"></path>
  <path d="M1312.904480 616.463043C1312.904480 583.908997,1299.970505 552.692169,1276.953064 529.674713C1253.935608 506.657272,1222.718781 493.723297,1190.164734 493.723297C1157.610687 493.723297,1126.393860 506.657272,1103.376404 529.674713C1080.358963 552.692169,1067.424988 583.908997,1067.424988 616.463043C1067.424988 649.017090,1080.358963 680.233917,1103.376404 703.251373C1126.393860 726.268814,1157.610687 739.202789,1190.164734 739.202789C1222.718781 739.202789,1253.935608 726.268814,1276.953064 703.251373C1299.970505 680.233917,1312.904480 649.017090,1312.904480 616.463043Z" style="stroke:rgb(25.500488%,41.000366%,88.400269%); stroke-width: 2.500000;stroke-linecap: round;stroke-linejoin: round;stroke-miterlimit: 10.000000;fill: none;"></path>
  <path d="M1253.318802 402.657898C1253.318802 370.103851,1240.384827 338.887024,1217.367386 315.869568C1194.349930 292.852127,1163.133102 279.918152,1130.579056 279.918152C1098.025009 279.918152,1066.808182 292.852127,1043.790726 315.869568C1020.773285 338.887024,1007.839310 370.103851,1007.839310 402.657898C1007.839310 435.211945,1020.773285 466.428772,1043.790726 489.446228C1066.808182 512.463669,1098.025009 525.397644,1130.579056 525.397644C1163.133102 525.397644,1194.349930 512.463669,1217.367386 489.446228C1240.384827 466.428772,1253.318802 435.211945,1253.318802 402.657898Z" style="stroke:rgb(25.500488%,41.000366%,88.400269%); stroke-width: 2.500000;stroke-linecap: round;stroke-linejoin: round;stroke-miterlimit: 10.000000;fill: none;"></path>
  <path d="M1208.084564 186.465164C1208.084564 153.911118,1195.150589 122.694290,1172.133148 99.676834C1149.115692 76.659393,1117.898865 63.725418,1085.344818 63.725418C1052.790771 63.725418,1021.573944 76.659393,998.556488 99.676834C975.539047 122.694290,962.605072 153.911118,962.605072 186.465164C962.605072 219.019211,975.539047 250.236038,998.556488 273.253494C1021.573944 296.270935,1052.790771 309.204910,1085.344818 309.204910C1117.898865 309.204910,1149.115692 296.270935,1172.133148 273.253494C1195.150589 250.236038,1208.084564 219.019211,1208.084564 186.465164Z" style="stroke:rgb(25.500488%,41.000366%,88.400269%); stroke-width: 2.500000;stroke-linecap: round;stroke-linejoin: round;stroke-miterlimit: 10.000000;fill: none;"></path>
  <path d="M1369.181290 1530.776215C1369.181290 1498.222168,1356.247314 1467.005341,1333.229874 1443.987885C1310.212418 1420.970444,1278.995590 1408.036469,1246.441544 1408.036469C1213.887497 1408.036469,1182.670670 1420.970444,1159.653214 1443.987885C1136.635773 1467.005341,1123.701797 1498.222168,1123.701797 1530.776215C1123.701797 1563.330261,1136.635773 1594.547089,1159.653214 1617.564545C1182.670670 1640.581985,1213.887497 1653.515961,1246.441544 1653.515961C1278.995590 1653.515961,1310.212418 1640.581985,1333.229874 1617.564545C1356.247314 1594.547089,1369.181290 1563.330261,1369.181290 1530.776215Z" style="stroke:rgb(25.500488%,41.000366%,88.400269%); stroke-width: 2.500000;stroke-linecap: round;stroke-linejoin: round;stroke-miterlimit: 10.000000;fill: none;"></path>
  <path d="M1322.104446 1345.725830C1322.104446 1313.171783,1309.170471 1281.954956,1286.153030 1258.937500C1263.135574 1235.920059,1231.918747 1222.986084,1199.364700 1222.986084C1166.810654 1222.986084,1135.593826 1235.920059,1112.576370 1258.937500C1089.558929 1281.954956,1076.624954 1313.171783,1076.624954 1345.725830C1076.624954 1378.279877,1089.558929 1409.496704,1112.576370 1432.514160C1135.593826 1455.531601,1166.810654 1468.465576,1199.364700 1468.465576C1231.918747 1468.465576,1263.135574 1455.531601,1286.153030 1432.514160C1309.170471 1409.496704,1322.104446 1378.279877,1322.104446 1345.725830Z" style="stroke:rgb(25.500488%,41.000366%,88.400269%); stroke-width: 2.500000;stroke-linecap: round;stroke-linejoin: round;stroke-miterlimit: 10.000000;fill: none;"></path>
  <path d="M1274.210129 1153.240219C1274.210129 1120.686172,1261.276154 1089.469345,1238.258713 1066.451889C1215.241257 1043.434448,1184.024429 1030.500473,1151.470383 1030.500473C1118.916336 1030.500473,1087.699509 1043.434448,1064.682053 1066.451889C1041.664612 1089.469345,1028.730637 1120.686172,1028.730637 1153.240219C1028.730637 1185.794266,1041.664612 1217.011093,1064.682053 1240.028549C1087.699509 1263.045990,1118.916336 1275.979965,1151.470383 1275.979965C1184.024429 1275.979965,1215.241257 1263.045990,1238.258713 1240.028549C1261.276154 1217.011093,1274.210129 1185.794266,1274.210129 1153.240219Z" style="stroke:rgb(25.500488%,41.000366%,88.400269%); stroke-width: 2.500000;stroke-linecap: round;stroke-linejoin: round;stroke-miterlimit: 10.000000;fill: none;"></path>
  <path d="M1245.650009 966.840332C1245.650009 934.286285,1232.716034 903.069458,1209.698593 880.052002C1186.681137 857.034561,1155.464310 844.100586,1122.910263 844.100586C1090.356216 844.100586,1059.139389 857.034561,1036.121933 880.052002C1013.104492 903.069458,1000.170517 934.286285,1000.170517 966.840332C1000.170517 999.394379,1013.104492 1030.611206,1036.121933 1053.628662C1059.139389 1076.646103,1090.356216 1089.580078,1122.910263 1089.580078C1155.464310 1089.580078,1186.681137 1076.646103,1209.698593 1053.628662C1232.716034 1030.611206,1245.650009 999.394379,1245.650009 966.840332Z" style="stroke:rgb(25.500488%,41.000366%,88.400269%); stroke-width: 2.500000;stroke-linecap: round;stroke-linejoin: round;stroke-miterlimit: 10.000000;fill: none;"></path>
  <path d="M1167.378922 759.899475C1167.378922 727.345428,1154.444946 696.128601,1131.427505 673.111145C1108.410049 650.093704,1077.193222 637.159729,1044.639175 637.159729C1012.085129 637.159729,980.868301 650.093704,957.850845 673.111145C934.833405 696.128601,921.899429 727.345428,921.899429 759.899475C921.899429 792.453522,934.833405 823.670349,957.850845 846.687805C980.868301 869.705246,1012.085129 882.639221,1044.639175 882.639221C1077.193222 882.639221,1108.410049 869.705246,1131.427505 846.687805C1154.444946 823.670349,1167.378922 792.453522,1167.378922 759.899475Z" style="stroke:rgb(25.500488%,41.000366%,88.400269%); stroke-width: 2.500000;stroke-linecap: round;stroke-linejoin: round;stroke-miterlimit: 10.000000;fill: none;"></path>
  <path d="M1112.088287 546.911804C1112.088287 514.357758,1099.154312 483.140930,1076.136871 460.123474C1053.119415 437.106033,1021.902588 424.172058,989.348541 424.172058C956.794495 424.172058,925.577667 437.106033,902.560211 460.123474C879.542770 483.140930,866.608795 514.357758,866.608795 546.911804C866.608795 579.465851,879.542770 610.682678,902.560211 633.700134C925.577667 656.717575,956.794495 669.651550,989.348541 669.651550C1021.902588 669.651550,1053.119415 656.717575,1076.136871 633.700134C1099.154312 610.682678,1112.088287 579.465851,1112.088287 546.911804Z" style="stroke:rgb(25.500488%,41.000366%,88.400269%); stroke-width: 2.500000;stroke-linecap: round;stroke-linejoin: round;stroke-miterlimit: 10.000000;fill: none;"></path>
  <path d="M1060.262238 339.296204C1060.262238 306.742157,1047.328262 275.525330,1024.310822 252.507874C1001.293365 229.490433,970.076538 216.556458,937.522491 216.556458C904.968445 216.556458,873.751617 229.490433,850.734161 252.507874C827.716721 275.525330,814.782745 306.742157,814.782745 339.296204C814.782745 371.850250,827.716721 403.067078,850.734161 426.084534C873.751617 449.101974,904.968445 462.035950,937.522491 462.035950C970.076538 462.035950,1001.293365 449.101974,1024.310822 426.084534C1047.328262 403.067078,1060.262238 371.850250,1060.262238 339.296204Z" style="stroke:rgb(25.500488%,41.000366%,88.400269%); stroke-width: 2.500000;stroke-linecap: round;stroke-linejoin: round;stroke-miterlimit: 10.000000;fill: none;"></path>
  <path d="M1029.314545 140.595093C1029.314545 108.041046,1016.380569 76.824219,993.363129 53.806763C970.345673 30.789322,939.128845 17.855347,906.574799 17.855347C874.020752 17.855347,842.803925 30.789322,819.786469 53.806763C796.769028 76.824219,783.835052 108.041046,783.835052 140.595093C783.835052 173.149139,796.769028 204.365967,819.786469 227.383423C842.803925 250.400864,874.020752 263.334839,906.574799 263.334839C939.128845 263.334839,970.345673 250.400864,993.363129 227.383423C1016.380569 204.365967,1029.314545 173.149139,1029.314545 140.595093Z" style="stroke:rgb(25.500488%,41.000366%,88.400269%); stroke-width: 2.500000;stroke-linecap: round;stroke-linejoin: round;stroke-miterlimit: 10.000000;fill: none;"></path>
  <path d="M1213.781006 1648.390457C1213.781006 1615.836411,1200.847031 1584.619583,1177.829590 1561.602127C1154.812134 1538.584686,1123.595306 1525.650711,1091.041260 1525.650711C1058.487213 1525.650711,1027.270386 1538.584686,1004.252930 1561.602127C981.235489 1584.619583,968.301514 1615.836411,968.301514 1648.390457C968.301514 1680.944504,981.235489 1712.161331,1004.252930 1735.178787C1027.270386 1758.196228,1058.487213 1771.130203,1091.041260 1771.130203C1123.595306 1771.130203,1154.812134 1758.196228,1177.829590 1735.178787C1200.847031 1712.161331,1213.781006 1680.944504,1213.781006 1648.390457Z" style="stroke:rgb(25.500488%,41.000366%,88.400269%); stroke-width: 2.500000;stroke-linecap: round;stroke-linejoin: round;stroke-miterlimit: 10.000000;fill: none;"></path>
  <path d="M1150.873474 1483.011658C1150.873474 1450.457611,1137.939499 1419.240784,1114.922058 1396.223328C1091.904602 1373.205887,1060.687775 1360.271912,1028.133728 1360.271912C995.579681 1360.271912,964.362854 1373.205887,941.345398 1396.223328C918.327957 1419.240784,905.393982 1450.457611,905.393982 1483.011658C905.393982 1515.565704,918.327957 1546.782532,941.345398 1569.799988C964.362854 1592.817429,995.579681 1605.751404,1028.133728 1605.751404C1060.687775 1605.751404,1091.904602 1592.817429,1114.922058 1569.799988C1137.939499 1546.782532,1150.873474 1515.565704,1150.873474 1483.011658Z" style="stroke:rgb(25.500488%,41.000366%,88.400269%); stroke-width: 2.500000;stroke-linecap: round;stroke-linejoin: round;stroke-miterlimit: 10.000000;fill: none;"></path>
  <path d="M1108.182526 1293.627289C1108.182526 1261.073242,1095.248550 1229.856415,1072.231110 1206.838959C1049.213654 1183.821518,1017.996826 1170.887543,985.442780 1170.887543C952.888733 1170.887543,921.671906 1183.821518,898.654449 1206.838959C875.637009 1229.856415,862.703033 1261.073242,862.703033 1293.627289C862.703033 1326.181335,875.637009 1357.398163,898.654449 1380.415619C921.671906 1403.433060,952.888733 1416.367035,985.442780 1416.367035C1017.996826 1416.367035,1049.213654 1403.433060,1072.231110 1380.415619C1095.248550 1357.398163,1108.182526 1326.181335,1108.182526 1293.627289Z" style="stroke:rgb(25.500488%,41.000366%,88.400269%); stroke-width: 2.500000;stroke-linecap: round;stroke-linejoin: round;stroke-miterlimit: 10.000000;fill: none;"></path>
  <path d="M1065.971680 1094.809402C1065.971680 1062.255356,1053.037704 1031.038528,1030.020264 1008.021072C1007.002808 985.003632,975.785980 972.069656,943.231934 972.069656C910.677887 972.069656,879.461060 985.003632,856.443604 1008.021072C833.426163 1031.038528,820.492188 1062.255356,820.492188 1094.809402C820.492188 1127.363449,833.426163 1158.580276,856.443604 1181.597733C879.461060 1204.615173,910.677887 1217.549149,943.231934 1217.549149C975.785980 1217.549149,1007.002808 1204.615173,1030.020264 1181.597733C1053.037704 1158.580276,1065.971680 1127.363449,1065.971680 1094.809402Z" style="stroke:rgb(25.500488%,41.000366%,88.400269%); stroke-width: 2.500000;stroke-linecap: round;stroke-linejoin: round;stroke-miterlimit: 10.000000;fill: none;"></path>
  <path d="M1035.685745 902.310806C1035.685745 869.756760,1022.751770 838.539932,999.734329 815.522476C976.716873 792.505035,945.500046 779.571060,912.945999 779.571060C880.391953 779.571060,849.175125 792.505035,826.157669 815.522476C803.140228 838.539932,790.206253 869.756760,790.206253 902.310806C790.206253 934.864853,803.140228 966.081680,826.157669 989.099136C849.175125 1012.116577,880.391953 1025.050552,912.945999 1025.050552C945.500046 1025.050552,976.716873 1012.116577,999.734329 989.099136C1022.751770 966.081680,1035.685745 934.864853,1035.685745 902.310806Z" style="stroke:rgb(25.500488%,41.000366%,88.400269%); stroke-width: 2.500000;stroke-linecap: round;stroke-linejoin: round;stroke-miterlimit: 10.000000;fill: none;"></path>
  <path d="M967.821396 696.135529C967.821396 663.581482,954.887421 632.364655,931.869980 609.347198C908.852524 586.329758,877.635696 573.395782,845.081650 573.395782C812.527603 573.395782,781.310776 586.329758,758.293320 609.347198C735.275879 632.364655,722.341904 663.581482,722.341904 696.135529C722.341904 728.689575,735.275879 759.906403,758.293320 782.923859C781.310776 805.941299,812.527603 818.875275,845.081650 818.875275C877.635696 818.875275,908.852524 805.941299,931.869980 782.923859C954.887421 759.906403,967.821396 728.689575,967.821396 696.135529Z" style="stroke:rgb(25.500488%,41.000366%,88.400269%); stroke-width: 2.500000;stroke-linecap: round;stroke-linejoin: round;stroke-miterlimit: 10.000000;fill: none;"></path>
  <path d="M908.573090 486.742218C908.573090 454.188171,895.639114 422.971344,872.621674 399.953888C849.604218 376.936447,818.387390 364.002472,785.833344 364.002472C753.279297 364.002472,722.062469 376.936447,699.045013 399.953888C676.027573 422.971344,663.093597 454.188171,663.093597 486.742218C663.093597 519.296265,676.027573 550.513092,699.045013 573.530548C722.062469 596.547989,753.279297 609.481964,785.833344 609.481964C818.387390 609.481964,849.604218 596.547989,872.621674 573.530548C895.639114 550.513092,908.573090 519.296265,908.573090 486.742218Z" style="stroke:rgb(25.500488%,41.000366%,88.400269%); stroke-width: 2.500000;stroke-linecap: round;stroke-linejoin: round;stroke-miterlimit: 10.000000;fill: none;"></path>
  <path d="M858.343094 288.235748C858.343094 255.681702,845.409119 224.464874,822.391678 201.447418C799.374222 178.429977,768.157394 165.496002,735.603348 165.496002C703.049301 165.496002,671.832474 178.429977,648.815018 201.447418C625.797577 224.464874,612.863602 255.681702,612.863602 288.235748C612.863602 320.789795,625.797577 352.006622,648.815018 375.024078C671.832474 398.041519,703.049301 410.975494,735.603348 410.975494C768.157394 410.975494,799.374222 398.041519,822.391678 375.024078C845.409119 352.006622,858.343094 320.789795,858.343094 288.235748Z" style="stroke:rgb(25.500488%,41.000366%,88.400269%); stroke-width: 2.500000;stroke-linecap: round;stroke-linejoin: round;stroke-miterlimit: 10.000000;fill: none;"></path>
  <path d="M832.533875 123.570618C832.533875 91.016571,819.599899 59.799744,796.582458 36.782288C773.565002 13.764847,742.348175 0.830872,709.794128 0.830872C677.240082 0.830872,646.023254 13.764847,623.005798 36.782288C599.988358 59.799744,587.054382 91.016571,587.054382 123.570618C587.054382 156.124664,599.988358 187.341492,623.005798 210.358948C646.023254 233.376389,677.240082 246.310364,709.794128 246.310364C742.348175 246.310364,773.565002 233.376389,796.582458 210.358948C819.599899 187.341492,832.533875 156.124664,832.533875 123.570618Z" style="stroke:rgb(25.500488%,41.000366%,88.400269%); stroke-width: 2.500000;stroke-linecap: round;stroke-linejoin: round;stroke-miterlimit: 10.000000;fill: none;"></path>
  <path d="M985.689316 1632.663574C985.689316 1600.109528,972.755341 1568.892700,949.737900 1545.875244C926.720444 1522.857803,895.503616 1509.923828,862.949570 1509.923828C830.395523 1509.923828,799.178696 1522.857803,776.161240 1545.875244C753.143799 1568.892700,740.209824 1600.109528,740.209824 1632.663574C740.209824 1665.217621,753.143799 1696.434448,776.161240 1719.451904C799.178696 1742.469345,830.395523 1755.403320,862.949570 1755.403320C895.503616 1755.403320,926.720444 1742.469345,949.737900 1719.451904C972.755341 1696.434448,985.689316 1665.217621,985.689316 1632.663574Z" style="stroke:rgb(25.500488%,41.000366%,88.400269%); stroke-width: 2.500000;stroke-linecap: round;stroke-linejoin: round;stroke-miterlimit: 10.000000;fill: none;"></path>
  <path d="M939.131516 1441.540436C939.131516 1408.986389,926.197540 1377.769562,903.180099 1354.752106C880.162643 1331.734665,848.945816 1318.800690,816.391769 1318.800690C783.837723 1318.800690,752.620895 1331.734665,729.603439 1354.752106C706.585999 1377.769562,693.652023 1408.986389,693.652023 1441.540436C693.652023 1474.094482,706.585999 1505.311310,729.603439 1528.328766C752.620895 1551.346207,783.837723 1564.280182,816.391769 1564.280182C848.945816 1564.280182,880.162643 1551.346207,903.180099 1528.328766C926.197540 1505.311310,939.131516 1474.094482,939.131516 1441.540436Z" style="stroke:rgb(25.500488%,41.000366%,88.400269%); stroke-width: 2.500000;stroke-linecap: round;stroke-linejoin: round;stroke-miterlimit: 10.000000;fill: none;"></path>
  <path d="M905.861115 1241.969940C905.861115 1209.415894,892.927139 1178.199066,869.909698 1155.181610C846.892242 1132.164169,815.675415 1119.230194,783.121368 1119.230194C750.567322 1119.230194,719.350494 1132.164169,696.333038 1155.181610C673.315598 1178.199066,660.381622 1209.415894,660.381622 1241.969940C660.381622 1274.523987,673.315598 1305.740814,696.333038 1328.758270C719.350494 1351.775711,750.567322 1364.709686,783.121368 1364.709686C815.675415 1364.709686,846.892242 1351.775711,869.909698 1328.758270C892.927139 1305.740814,905.861115 1274.523987,905.861115 1241.969940Z" style="stroke:rgb(25.500488%,41.000366%,88.400269%); stroke-width: 2.500000;stroke-linecap: round;stroke-linejoin: round;stroke-miterlimit: 10.000000;fill: none;"></path>
  <path d="M866.946167 1033.731476C866.946167 1001.177429,854.012192 969.960602,830.994751 946.943146C807.977295 923.925705,776.760468 910.991730,744.206421 910.991730C711.652374 910.991730,680.435547 923.925705,657.418091 946.943146C634.400650 969.960602,621.466675 1001.177429,621.466675 1033.731476C621.466675 1066.285522,634.400650 1097.502350,657.418091 1120.519806C680.435547 1143.537247,711.652374 1156.471222,744.206421 1156.471222C776.760468 1156.471222,807.977295 1143.537247,830.994751 1120.519806C854.012192 1097.502350,866.946167 1066.285522,866.946167 1033.731476Z" style="stroke:rgb(25.500488%,41.000366%,88.400269%); stroke-width: 2.500000;stroke-linecap: round;stroke-linejoin: round;stroke-miterlimit: 10.000000;fill: none;"></path>
  <path d="M825.916122 835.341797C825.916122 802.787750,812.982147 771.570923,789.964706 748.553467C766.947250 725.536026,735.730423 712.602051,703.176376 712.602051C670.622330 712.602051,639.405502 725.536026,616.388046 748.553467C593.370605 771.570923,580.436630 802.787750,580.436630 835.341797C580.436630 867.895844,593.370605 899.112671,616.388046 922.130127C639.405502 945.147568,670.622330 958.081543,703.176376 958.081543C735.730423 958.081543,766.947250 945.147568,789.964706 922.130127C812.982147 899.112671,825.916122 867.895844,825.916122 835.341797Z" style="stroke:rgb(25.500488%,41.000366%,88.400269%); stroke-width: 2.500000;stroke-linecap: round;stroke-linejoin: round;stroke-miterlimit: 10.000000;fill: none;"></path>
  <path d="M762.178131 625.079086C762.178131 592.525040,749.244156 561.308212,726.226715 538.290756C703.209259 515.273315,671.992432 502.339340,639.438385 502.339340C606.884338 502.339340,575.667511 515.273315,552.650055 538.290756C529.632614 561.308212,516.698639 592.525040,516.698639 625.079086C516.698639 657.633133,529.632614 688.849960,552.650055 711.867416C575.667511 734.884857,606.884338 747.818832,639.438385 747.818832C671.992432 747.818832,703.209259 734.884857,726.226715 711.867416C749.244156 688.849960,762.178131 657.633133,762.178131 625.079086Z" style="stroke:rgb(25.500488%,41.000366%,88.400269%); stroke-width: 2.500000;stroke-linecap: round;stroke-linejoin: round;stroke-miterlimit: 10.000000;fill: none;"></path>
  <path d="M696.428864 422.277573C696.428864 389.723526,683.494888 358.506699,660.477448 335.489243C637.459991 312.471802,606.243164 299.537827,573.689117 299.537827C541.135071 299.537827,509.918243 312.471802,486.900787 335.489243C463.883347 358.506699,450.949371 389.723526,450.949371 422.277573C450.949371 454.831619,463.883347 486.048447,486.900787 509.065903C509.918243 532.083344,541.135071 545.017319,573.689117 545.017319C606.243164 545.017319,637.459991 532.083344,660.477448 509.065903C683.494888 486.048447,696.428864 454.831619,696.428864 422.277573Z" style="stroke:rgb(25.500488%,41.000366%,88.400269%); stroke-width: 2.500000;stroke-linecap: round;stroke-linejoin: round;stroke-miterlimit: 10.000000;fill: none;"></path>
  <path d="M635.039536 238.018723C635.039536 205.464676,622.105560 174.247849,599.088120 151.230392C576.070663 128.212952,544.853836 115.278976,512.299789 115.278976C479.745743 115.278976,448.528915 128.212952,425.511459 151.230392C402.494019 174.247849,389.560043 205.464676,389.560043 238.018723C389.560043 270.572769,402.494019 301.789597,425.511459 324.807053C448.528915 347.824493,479.745743 360.758469,512.299789 360.758469C544.853836 360.758469,576.070663 347.824493,599.088120 324.807053C622.105560 301.789597,635.039536 270.572769,635.039536 238.018723Z" style="stroke:rgb(25.500488%,41.000366%,88.400269%); stroke-width: 2.500000;stroke-linecap: round;stroke-linejoin: round;stroke-miterlimit: 10.000000;fill: none;"></path>
  <path d="M782.277924 1604.324051C782.277924 1571.770004,769.343948 1540.553177,746.326508 1517.535721C723.309052 1494.518280,692.092224 1481.584305,659.538177 1481.584305C626.984131 1481.584305,595.767303 1494.518280,572.749847 1517.535721C549.732407 1540.553177,536.798431 1571.770004,536.798431 1604.324051C536.798431 1636.878098,549.732407 1668.094925,572.749847 1691.112381C595.767303 1714.129822,626.984131 1727.063797,659.538177 1727.063797C692.092224 1727.063797,723.309052 1714.129822,746.326508 1691.112381C769.343948 1668.094925,782.277924 1636.878098,782.277924 1604.324051Z" style="stroke:rgb(25.500488%,41.000366%,88.400269%); stroke-width: 2.500000;stroke-linecap: round;stroke-linejoin: round;stroke-miterlimit: 10.000000;fill: none;"></path>
  <path d="M759.154739 1386.937531C759.154739 1354.383484,746.220764 1323.166656,723.203323 1300.149200C700.185867 1277.131760,668.969040 1264.197784,636.414993 1264.197784C603.860947 1264.197784,572.644119 1277.131760,549.626663 1300.149200C526.609222 1323.166656,513.675247 1354.383484,513.675247 1386.937531C513.675247 1419.491577,526.609222 1450.708405,549.626663 1473.725861C572.644119 1496.743301,603.860947 1509.677277,636.414993 1509.677277C668.969040 1509.677277,700.185867 1496.743301,723.203323 1473.725861C746.220764 1450.708405,759.154739 1419.491577,759.154739 1386.937531Z" style="stroke:rgb(25.500488%,41.000366%,88.400269%); stroke-width: 2.500000;stroke-linecap: round;stroke-linejoin: round;stroke-miterlimit: 10.000000;fill: none;"></path>
  <path d="M708.055344 1172.068359C708.055344 1139.514313,695.121368 1108.297485,672.103928 1085.280029C649.086472 1062.262589,617.869644 1049.328613,585.315598 1049.328613C552.761551 1049.328613,521.544724 1062.262589,498.527267 1085.280029C475.509827 1108.297485,462.575851 1139.514313,462.575851 1172.068359C462.575851 1204.622406,475.509827 1235.839233,498.527267 1258.856689C521.544724 1281.874130,552.761551 1294.808105,585.315598 1294.808105C617.869644 1294.808105,649.086472 1281.874130,672.103928 1258.856689C695.121368 1235.839233,708.055344 1204.622406,708.055344 1172.068359Z" style="stroke:rgb(25.500488%,41.000366%,88.400269%); stroke-width: 2.500000;stroke-linecap: round;stroke-linejoin: round;stroke-miterlimit: 10.000000;fill: none;"></path>
  <path d="M657.747482 970.214081C657.747482 937.660034,644.813507 906.443207,621.796066 883.425751C598.778610 860.408310,567.561783 847.474335,535.007736 847.474335C502.453690 847.474335,471.236862 860.408310,448.219406 883.425751C425.201965 906.443207,412.267990 937.660034,412.267990 970.214081C412.267990 1002.768127,425.201965 1033.984955,448.219406 1057.002411C471.236862 1080.019852,502.453690 1092.953827,535.007736 1092.953827C567.561783 1092.953827,598.778610 1080.019852,621.796066 1057.002411C644.813507 1033.984955,657.747482 1002.768127,657.747482 970.214081Z" style="stroke:rgb(25.500488%,41.000366%,88.400269%); stroke-width: 2.500000;stroke-linecap: round;stroke-linejoin: round;stroke-miterlimit: 10.000000;fill: none;"></path>
  <path d="M620.830841 767.723984C620.830841 735.169937,607.896866 703.953110,584.879425 680.935654C561.861969 657.918213,530.645142 644.984238,498.091095 644.984238C465.537048 644.984238,434.320221 657.918213,411.302765 680.935654C388.285324 703.953110,375.351349 735.169937,375.351349 767.723984C375.351349 800.278030,388.285324 831.494858,411.302765 854.512314C434.320221 877.529755,465.537048 890.463730,498.091095 890.463730C530.645142 890.463730,561.861969 877.529755,584.879425 854.512314C607.896866 831.494858,620.830841 800.278030,620.830841 767.723984Z" style="stroke:rgb(25.500488%,41.000366%,88.400269%); stroke-width: 2.500000;stroke-linecap: round;stroke-linejoin: round;stroke-miterlimit: 10.000000;fill: none;"></path>
  <path d="M564.255585 551.206863C564.255585 518.652817,551.321609 487.435989,528.304169 464.418533C505.286713 441.401093,474.069885 428.467117,441.515839 428.467117C408.961792 428.467117,377.744965 441.401093,354.727509 464.418533C331.710068 487.435989,318.776093 518.652817,318.776093 551.206863C318.776093 583.760910,331.710068 614.977737,354.727509 637.995193C377.744965 661.012634,408.961792 673.946609,441.515839 673.946609C474.069885 673.946609,505.286713 661.012634,528.304169 637.995193C551.321609 614.977737,564.255585 583.760910,564.255585 551.206863Z" style="stroke:rgb(25.500488%,41.000366%,88.400269%); stroke-width: 2.500000;stroke-linecap: round;stroke-linejoin: round;stroke-miterlimit: 10.000000;fill: none;"></path>
  <path d="M495.456970 334.404266C495.456970 301.850220,482.522995 270.633392,459.505554 247.615936C436.488098 224.598495,405.271271 211.664520,372.717224 211.664520C340.163177 211.664520,308.946350 224.598495,285.928894 247.615936C262.911453 270.633392,249.977478 301.850220,249.977478 334.404266C249.977478 366.958313,262.911453 398.175140,285.928894 421.192596C308.946350 444.210037,340.163177 457.144012,372.717224 457.144012C405.271271 457.144012,436.488098 444.210037,459.505554 421.192596C482.522995 398.175140,495.456970 366.958313,495.456970 334.404266Z" style="stroke:rgb(25.500488%,41.000366%,88.400269%); stroke-width: 2.500000;stroke-linecap: round;stroke-linejoin: round;stroke-miterlimit: 10.000000;fill: none;"></path>
  <path d="M629.524734 1531.165497C629.524734 1498.611450,616.590759 1467.394623,593.573318 1444.377167C570.555862 1421.359726,539.339035 1408.425751,506.784988 1408.425751C474.230942 1408.425751,443.014114 1421.359726,419.996658 1444.377167C396.979218 1467.394623,384.045242 1498.611450,384.045242 1531.165497C384.045242 1563.719543,396.979218 1594.936371,419.996658 1617.953827C443.014114 1640.971268,474.230942 1653.905243,506.784988 1653.905243C539.339035 1653.905243,570.555862 1640.971268,593.573318 1617.953827C616.590759 1594.936371,629.524734 1563.719543,629.524734 1531.165497Z" style="stroke:rgb(25.500488%,41.000366%,88.400269%); stroke-width: 2.500000;stroke-linecap: round;stroke-linejoin: round;stroke-miterlimit: 10.000000;fill: none;"></path>
  <path d="M560.687195 1313.701126C560.687195 1281.147079,547.753220 1249.930252,524.735779 1226.912796C501.718323 1203.895355,470.501495 1190.961380,437.947449 1190.961380C405.393402 1190.961380,374.176575 1203.895355,351.159119 1226.912796C328.141678 1249.930252,315.207703 1281.147079,315.207703 1313.701126C315.207703 1346.255173,328.141678 1377.472000,351.159119 1400.489456C374.176575 1423.506897,405.393402 1436.440872,437.947449 1436.440872C470.501495 1436.440872,501.718323 1423.506897,524.735779 1400.489456C547.753220 1377.472000,560.687195 1346.255173,560.687195 1313.701126Z" style="stroke:rgb(25.500488%,41.000366%,88.400269%); stroke-width: 2.500000;stroke-linecap: round;stroke-linejoin: round;stroke-miterlimit: 10.000000;fill: none;"></path>
  <path d="M500.102356 1114.662643C500.102356 1082.108597,487.168381 1050.891769,464.150940 1027.874313C441.133484 1004.856873,409.916656 991.922897,377.362610 991.922897C344.808563 991.922897,313.591736 1004.856873,290.574280 1027.874313C267.556839 1050.891769,254.622864 1082.108597,254.622864 1114.662643C254.622864 1147.216690,267.556839 1178.433517,290.574280 1201.450974C313.591736 1224.468414,344.808563 1237.402390,377.362610 1237.402390C409.916656 1237.402390,441.133484 1224.468414,464.150940 1201.450974C487.168381 1178.433517,500.102356 1147.216690,500.102356 1114.662643Z" style="stroke:rgb(25.500488%,41.000366%,88.400269%); stroke-width: 2.500000;stroke-linecap: round;stroke-linejoin: round;stroke-miterlimit: 10.000000;fill: none;"></path>
  <path d="M455.802383 915.883667C455.802383 883.329620,442.868408 852.112793,419.850967 829.095337C396.833511 806.077896,365.616684 793.143921,333.062637 793.143921C300.508591 793.143921,269.291763 806.077896,246.274307 829.095337C223.256866 852.112793,210.322891 883.329620,210.322891 915.883667C210.322891 948.437714,223.256866 979.654541,246.274307 1002.671997C269.291763 1025.689438,300.508591 1038.623413,333.062637 1038.623413C365.616684 1038.623413,396.833511 1025.689438,419.850967 1002.671997C442.868408 979.654541,455.802383 948.437714,455.802383 915.883667Z" style="stroke:rgb(25.500488%,41.000366%,88.400269%); stroke-width: 2.500000;stroke-linecap: round;stroke-linejoin: round;stroke-miterlimit: 10.000000;fill: none;"></path>
  <path d="M426.243118 707.749023C426.243118 675.194977,413.309143 643.978149,390.291702 620.960693C367.274246 597.943253,336.057419 585.009277,303.503372 585.009277C270.949326 585.009277,239.732498 597.943253,216.715042 620.960693C193.697601 643.978149,180.763626 675.194977,180.763626 707.749023C180.763626 740.303070,193.697601 771.519897,216.715042 794.537354C239.732498 817.554794,270.949326 830.488770,303.503372 830.488770C336.057419 830.488770,367.274246 817.554794,390.291702 794.537354C413.309143 771.519897,426.243118 740.303070,426.243118 707.749023Z" style="stroke:rgb(25.500488%,41.000366%,88.400269%); stroke-width: 2.500000;stroke-linecap: round;stroke-linejoin: round;stroke-miterlimit: 10.000000;fill: none;"></path>
  <path d="M368.383240 492.295929C368.383240 459.741882,355.449265 428.525055,332.431824 405.507599C309.414368 382.490158,278.197540 369.556183,245.643494 369.556183C213.089447 369.556183,181.872620 382.490158,158.855164 405.507599C135.837723 428.525055,122.903748 459.741882,122.903748 492.295929C122.903748 524.849976,135.837723 556.066803,158.855164 579.084259C181.872620 602.101700,213.089447 615.035675,245.643494 615.035675C278.197540 615.035675,309.414368 602.101700,332.431824 579.084259C355.449265 556.066803,368.383240 524.849976,368.383240 492.295929Z" style="stroke:rgb(25.500488%,41.000366%,88.400269%); stroke-width: 2.500000;stroke-linecap: round;stroke-linejoin: round;stroke-miterlimit: 10.000000;fill: none;"></path>
  <path d="M430.330536 1418.975220C430.330536 1386.421173,417.396561 1355.204346,394.379120 1332.186890C371.361664 1309.169449,340.144836 1296.235474,307.590790 1296.235474C275.036743 1296.235474,243.819916 1309.169449,220.802460 1332.186890C197.785019 1355.204346,184.851044 1386.421173,184.851044 1418.975220C184.851044 1451.529266,197.785019 1482.746094,220.802460 1505.763550C243.819916 1528.780991,275.036743 1541.714966,307.590790 1541.714966C340.144836 1541.714966,371.361664 1528.780991,394.379120 1505.763550C417.396561 1482.746094,430.330536 1451.529266,430.330536 1418.975220Z" style="stroke:rgb(25.500488%,41.000366%,88.400269%); stroke-width: 2.500000;stroke-linecap: round;stroke-linejoin: round;stroke-miterlimit: 10.000000;fill: none;"></path>
  <path d="M345.441711 1238.271774C345.441711 1205.717728,332.507736 1174.500900,309.490295 1151.483444C286.472839 1128.466003,255.256012 1115.532028,222.701965 1115.532028C190.147919 1115.532028,158.931091 1128.466003,135.913635 1151.483444C112.896194 1174.500900,99.962219 1205.717728,99.962219 1238.271774C99.962219 1270.825821,112.896194 1302.042648,135.913635 1325.060104C158.931091 1348.077545,190.147919 1361.011520,222.701965 1361.011520C255.256012 1361.011520,286.472839 1348.077545,309.490295 1325.060104C332.507736 1302.042648,345.441711 1270.825821,345.441711 1238.271774Z" style="stroke:rgb(25.500488%,41.000366%,88.400269%); stroke-width: 2.500000;stroke-linecap: round;stroke-linejoin: round;stroke-miterlimit: 10.000000;fill: none;"></path>
  <path d="M292.136398 1060.513901C292.136398 1027.959854,279.202423 996.743027,256.184982 973.725571C233.167526 950.708130,201.950699 937.774155,169.396652 937.774155C136.842606 937.774155,105.625778 950.708130,82.608322 973.725571C59.590881 996.743027,46.656906 1027.959854,46.656906 1060.513901C46.656906 1093.067947,59.590881 1124.284775,82.608322 1147.302231C105.625778 1170.319672,136.842606 1183.253647,169.396652 1183.253647C201.950699 1183.253647,233.167526 1170.319672,256.184982 1147.302231C279.202423 1124.284775,292.136398 1093.067947,292.136398 1060.513901Z" style="stroke:rgb(25.500488%,41.000366%,88.400269%); stroke-width: 2.500000;stroke-linecap: round;stroke-linejoin: round;stroke-miterlimit: 10.000000;fill: none;"></path>
  <path d="M263.277832 863.668350C263.277832 831.114304,250.343857 799.897476,227.326416 776.880020C204.308960 753.862579,173.092133 740.928604,140.538086 740.928604C107.984039 740.928604,76.767212 753.862579,53.749756 776.880020C30.732315 799.897476,17.798340 831.114304,17.798340 863.668350C17.798340 896.222397,30.732315 927.439224,53.749756 950.456680C76.767212 973.474121,107.984039 986.408096,140.538086 986.408096C173.092133 986.408096,204.308960 973.474121,227.326416 950.456680C250.343857 927.439224,263.277832 896.222397,263.277832 863.668350Z" style="stroke:rgb(25.500488%,41.000366%,88.400269%); stroke-width: 2.500000;stroke-linecap: round;stroke-linejoin: round;stroke-miterlimit: 10.000000;fill: none;"></path>
  <path d="M246.668594 682.783249C246.668594 650.229202,233.734619 619.012375,210.717178 595.994919C187.699722 572.977478,156.482895 560.043503,123.928848 560.043503C91.374802 560.043503,60.157974 572.977478,37.140518 595.994919C14.123077 619.012375,1.189102 650.229202,1.189102 682.783249C1.189102 715.337296,14.123077 746.554123,37.140518 769.571579C60.157974 792.589020,91.374802 805.522995,123.928848 805.522995C156.482895 805.522995,187.699722 792.589020,210.717178 769.571579C233.734619 746.554123,246.668594 715.337296,246.668594 682.783249Z" style="stroke:rgb(25.500488%,41.000366%,88.400269%); stroke-width: 2.500000;stroke-linecap: round;stroke-linejoin: round;stroke-miterlimit: 10.000000;fill: none;"></path>
</svg>
