<?xml version="1.0"?>
<!-- Created by MetaPost 2.00 on 2022.03.02:1201 -->
<svg version="1.1" xmlns="http://www.w3.org/2000/svg" xmlns:xlink="http://www.w3.org/1999/xlink" width="1766.272430" height="1771.397934" viewBox="0 0 1766.272430 1771.397934">
<!-- Original BoundingBox: -896.942657 -899.693558 869.329773 871.704376 -->
  <path d="M1746.393524 871.000000L1497.319672 269.680328L896.000000 20.606476L294.680328 269.680328L45.606476 871.000000L294.680328 1472.319672L896.000000 1721.393524L1497.319672 1472.319672L1746.393524 871.000000Z" style="fill: rgb(100.000000%,100.000000%,100.000000%);stroke: none;"></path>
  <path d="M1746.393524 871.000000L1497.319672 269.680328" style="stroke:rgb(0.000000%,0.000000%,0.000000%); stroke-width: 2.500000;stroke-linecap: round;stroke-linejoin: round;stroke-miterlimit: 10.000000;fill: none;"></path>
  <path d="M1497.319672 269.680328L896.000000 20.606476" style="stroke:rgb(0.000000%,0.000000%,0.000000%); stroke-width: 2.500000;stroke-linecap: round;stroke-linejoin: round;stroke-miterlimit: 10.000000;fill: none;"></path>
  <path d="M896.000000 20.606476L294.680328 269.680328" style="stroke:rgb(0.000000%,0.000000%,0.000000%); stroke-width: 2.500000;stroke-linecap: round;stroke-linejoin: round;stroke-miterlimit: 10.000000;fill: none;"></path>
  <path d="M294.680328 269.680328L45.606476 871.000000" style="stroke:rgb(0.000000%,0.000000%,0.000000%); stroke-width: 2.500000;stroke-linecap: round;stroke-linejoin: round;stroke-miterlimit: 10.000000;fill: none;"></path>
  <path d="M45.606476 871.000000L294.680328 1472.319672" style="stroke:rgb(0.000000%,0.000000%,0.000000%); stroke-width: 2.500000;stroke-linecap: round;stroke-linejoin: round;stroke-miterlimit: 10.000000;fill: none;"></path>
  <path d="M294.680328 1472.319672L896.000000 1721.393524" style="stroke:rgb(0.000000%,0.000000%,0.000000%); stroke-width: 2.500000;stroke-linecap: round;stroke-linejoin: round;stroke-miterlimit: 10.000000;fill: none;"></path>
  <path d="M896.000000 1721.393524L1497.319672 1472.319672" style="stroke:rgb(0.000000%,0.000000%,0.000000%); stroke-width: 2.500000;stroke-linecap: round;stroke-linejoin: round;stroke-miterlimit: 10.000000;fill: none;"></path>
  <path d="M1497.319672 1472.319672L1746.393524 871.000000" style="stroke:rgb(0.000000%,0.000000%,0.000000%); stroke-width: 2.500000;stroke-linecap: round;stroke-linejoin: round;stroke-miterlimit: 10.000000;fill: none;"></path>
  <path d="M944.231689 1671.371140C944.231689 1645.359558,933.897095 1620.416458,915.505524 1602.024887C897.113953 1583.633316,872.170853 1573.298721,846.159271 1573.298721C820.147690 1573.298721,795.204590 1583.633316,776.813019 1602.024887C758.421448 1620.416458,748.086853 1645.359558,748.086853 1671.371140C748.086853 1697.382721,758.421448 1722.325821,776.813019 1740.717392C795.204590 1759.108963,820.147690 1769.443558,846.159271 1769.443558C872.170853 1769.443558,897.113953 1759.108963,915.505524 1740.717392C933.897095 1722.325821,944.231689 1697.382721,944.231689 1671.371140Z" style="stroke:rgb(25.500488%,41.000366%,88.400269%); stroke-width: 2.500000;stroke-linecap: round;stroke-linejoin: round;stroke-miterlimit: 10.000000;fill: none;"></path>
  <path d="M1092.819595 1623.139435C1092.819595 1597.127853,1082.485001 1572.184753,1064.093430 1553.793182C1045.701859 1535.401611,1020.758759 1525.067017,994.747177 1525.067017C968.735596 1525.067017,943.792496 1535.401611,925.400925 1553.793182C907.009354 1572.184753,896.674759 1597.127853,896.674759 1623.139435C896.674759 1649.151016,907.009354 1674.094116,925.400925 1692.485687C943.792496 1710.877258,968.735596 1721.211853,994.747177 1721.211853C1020.758759 1721.211853,1045.701859 1710.877258,1064.093430 1692.485687C1082.485001 1674.094116,1092.819595 1649.151016,1092.819595 1623.139435Z" style="stroke:rgb(25.500488%,41.000366%,88.400269%); stroke-width: 2.500000;stroke-linecap: round;stroke-linejoin: round;stroke-miterlimit: 10.000000;fill: none;"></path>
  <path d="M1243.172211 1558.506104C1243.172211 1532.494522,1232.837616 1507.551422,1214.446045 1489.159851C1196.054474 1470.768280,1171.111374 1460.433685,1145.099792 1460.433685C1119.088211 1460.433685,1094.145111 1470.768280,1075.753540 1489.159851C1057.361969 1507.551422,1047.027374 1532.494522,1047.027374 1558.506104C1047.027374 1584.517685,1057.361969 1609.460785,1075.753540 1627.852356C1094.145111 1646.243927,1119.088211 1656.578522,1145.099792 1656.578522C1171.111374 1656.578522,1196.054474 1646.243927,1214.446045 1627.852356C1232.837616 1609.460785,1243.172211 1584.517685,1243.172211 1558.506104Z" style="stroke:rgb(25.500488%,41.000366%,88.400269%); stroke-width: 2.500000;stroke-linecap: round;stroke-linejoin: round;stroke-miterlimit: 10.000000;fill: none;"></path>
  <path d="M1396.483368 1498.803635C1396.483368 1472.792053,1386.148773 1447.848953,1367.757202 1429.457382C1349.365631 1411.065811,1324.422531 1400.731216,1298.410950 1400.731216C1272.399368 1400.731216,1247.456268 1411.065811,1229.064697 1429.457382C1210.673126 1447.848953,1200.338531 1472.792053,1200.338531 1498.803635C1200.338531 1524.815216,1210.673126 1549.758316,1229.064697 1568.149887C1247.456268 1586.541458,1272.399368 1596.876053,1298.410950 1596.876053C1324.422531 1596.876053,1349.365631 1586.541458,1367.757202 1568.149887C1386.148773 1549.758316,1396.483368 1524.815216,1396.483368 1498.803635Z" style="stroke:rgb(25.500488%,41.000366%,88.400269%); stroke-width: 2.500000;stroke-linecap: round;stroke-linejoin: round;stroke-miterlimit: 10.000000;fill: none;"></path>
  <path d="M1560.071487 1442.799332C1560.071487 1416.787750,1549.736893 1391.844650,1531.345322 1373.453079C1512.953751 1355.061508,1488.010651 1344.726913,1461.999069 1344.726913C1435.987488 1344.726913,1411.044388 1355.061508,1392.652817 1373.453079C1374.261246 1391.844650,1363.926651 1416.787750,1363.926651 1442.799332C1363.926651 1468.810913,1374.261246 1493.754013,1392.652817 1512.145584C1411.044388 1530.537155,1435.987488 1540.871750,1461.999069 1540.871750C1488.010651 1540.871750,1512.953751 1530.537155,1531.345322 1512.145584C1549.736893 1493.754013,1560.071487 1468.810913,1560.071487 1442.799332Z" style="stroke:rgb(25.500488%,41.000366%,88.400269%); stroke-width: 2.500000;stroke-linecap: round;stroke-linejoin: round;stroke-miterlimit: 10.000000;fill: none;"></path>
  <path d="M659.370102 1564.150650C659.370102 1538.139069,649.035507 1513.195969,630.643936 1494.804398C612.252365 1476.412827,587.309265 1466.078232,561.297684 1466.078232C535.286102 1466.078232,510.343002 1476.412827,491.951431 1494.804398C473.559860 1513.195969,463.225266 1538.139069,463.225266 1564.150650C463.225266 1590.162231,473.559860 1615.105331,491.951431 1633.496902C510.343002 1651.888474,535.286102 1662.223068,561.297684 1662.223068C587.309265 1662.223068,612.252365 1651.888474,630.643936 1633.496902C649.035507 1615.105331,659.370102 1590.162231,659.370102 1564.150650Z" style="stroke:rgb(25.500488%,41.000366%,88.400269%); stroke-width: 2.500000;stroke-linecap: round;stroke-linejoin: round;stroke-miterlimit: 10.000000;fill: none;"></path>
  <path d="M825.008438 1564.734573C825.008438 1538.722992,814.673843 1513.779892,796.282272 1495.388321C777.890701 1476.996750,752.947601 1466.662155,726.936020 1466.662155C700.924438 1466.662155,675.981339 1476.996750,657.589767 1495.388321C639.198196 1513.779892,628.863602 1538.722992,628.863602 1564.734573C628.863602 1590.746155,639.198196 1615.689255,657.589767 1634.080826C675.981339 1652.472397,700.924438 1662.806992,726.936020 1662.806992C752.947601 1662.806992,777.890701 1652.472397,796.282272 1634.080826C814.673843 1615.689255,825.008438 1590.746155,825.008438 1564.734573Z" style="stroke:rgb(25.500488%,41.000366%,88.400269%); stroke-width: 2.500000;stroke-linecap: round;stroke-linejoin: round;stroke-miterlimit: 10.000000;fill: none;"></path>
  <path d="M979.967529 1496.286301C979.967529 1470.274719,969.632935 1445.331619,951.241364 1426.940048C932.849792 1408.548477,907.906693 1398.213882,881.895111 1398.213882C855.883530 1398.213882,830.940430 1408.548477,812.548859 1426.940048C794.157288 1445.331619,783.822693 1470.274719,783.822693 1496.286301C783.822693 1522.297882,794.157288 1547.240982,812.548859 1565.632553C830.940430 1584.024124,855.883530 1594.358719,881.895111 1594.358719C907.906693 1594.358719,932.849792 1584.024124,951.241364 1565.632553C969.632935 1547.240982,979.967529 1522.297882,979.967529 1496.286301Z" style="stroke:rgb(25.500488%,41.000366%,88.400269%); stroke-width: 2.500000;stroke-linecap: round;stroke-linejoin: round;stroke-miterlimit: 10.000000;fill: none;"></path>
  <path d="M1126.933426 1445.057159C1126.933426 1419.045578,1116.598831 1394.102478,1098.207260 1375.710907C1079.815689 1357.319336,1054.872589 1346.984741,1028.861008 1346.984741C1002.849426 1346.984741,977.906326 1357.319336,959.514755 1375.710907C941.123184 1394.102478,930.788589 1419.045578,930.788589 1445.057159C930.788589 1471.068741,941.123184 1496.011841,959.514755 1514.403412C977.906326 1532.794983,1002.849426 1543.129578,1028.861008 1543.129578C1054.872589 1543.129578,1079.815689 1532.794983,1098.207260 1514.403412C1116.598831 1496.011841,1126.933426 1471.068741,1126.933426 1445.057159Z" style="stroke:rgb(25.500488%,41.000366%,88.400269%); stroke-width: 2.500000;stroke-linecap: round;stroke-linejoin: round;stroke-miterlimit: 10.000000;fill: none;"></path>
  <path d="M1283.021439 1384.498276C1283.021439 1358.486694,1272.686844 1333.543594,1254.295273 1315.152023C1235.903702 1296.760452,1210.960602 1286.425858,1184.949020 1286.425858C1158.937439 1286.425858,1133.994339 1296.760452,1115.602768 1315.152023C1097.211197 1333.543594,1086.876602 1358.486694,1086.876602 1384.498276C1086.876602 1410.509857,1097.211197 1435.452957,1115.602768 1453.844528C1133.994339 1472.236099,1158.937439 1482.570694,1184.949020 1482.570694C1210.960602 1482.570694,1235.903702 1472.236099,1254.295273 1453.844528C1272.686844 1435.452957,1283.021439 1410.509857,1283.021439 1384.498276Z" style="stroke:rgb(25.500488%,41.000366%,88.400269%); stroke-width: 2.500000;stroke-linecap: round;stroke-linejoin: round;stroke-miterlimit: 10.000000;fill: none;"></path>
  <path d="M1446.298141 1330.388458C1446.298141 1304.376877,1435.963547 1279.433777,1417.571976 1261.042206C1399.180405 1242.650635,1374.237305 1232.316040,1348.225723 1232.316040C1322.214142 1232.316040,1297.271042 1242.650635,1278.879471 1261.042206C1260.487900 1279.433777,1250.153305 1304.376877,1250.153305 1330.388458C1250.153305 1356.400040,1260.487900 1381.343140,1278.879471 1399.734711C1297.271042 1418.126282,1322.214142 1428.460876,1348.225723 1428.460876C1374.237305 1428.460876,1399.180405 1418.126282,1417.571976 1399.734711C1435.963547 1381.343140,1446.298141 1356.400040,1446.298141 1330.388458Z" style="stroke:rgb(25.500488%,41.000366%,88.400269%); stroke-width: 2.500000;stroke-linecap: round;stroke-linejoin: round;stroke-miterlimit: 10.000000;fill: none;"></path>
  <path d="M1613.130249 1282.792572C1613.130249 1256.780991,1602.795654 1231.837891,1584.404083 1213.446320C1566.012512 1195.054749,1541.069412 1184.720154,1515.057831 1184.720154C1489.046249 1184.720154,1464.103149 1195.054749,1445.711578 1213.446320C1427.320007 1231.837891,1416.985413 1256.780991,1416.985413 1282.792572C1416.985413 1308.804153,1427.320007 1333.747253,1445.711578 1352.138824C1464.103149 1370.530396,1489.046249 1380.864990,1515.057831 1380.864990C1541.069412 1380.864990,1566.012512 1370.530396,1584.404083 1352.138824C1602.795654 1333.747253,1613.130249 1308.804153,1613.130249 1282.792572Z" style="stroke:rgb(25.500488%,41.000366%,88.400269%); stroke-width: 2.500000;stroke-linecap: round;stroke-linejoin: round;stroke-miterlimit: 10.000000;fill: none;"></path>
  <path d="M523.174271 1453.712128C523.174271 1427.700546,512.839676 1402.757446,494.448105 1384.365875C476.056534 1365.974304,451.113434 1355.639709,425.101852 1355.639709C399.090271 1355.639709,374.147171 1365.974304,355.755600 1384.365875C337.364029 1402.757446,327.029434 1427.700546,327.029434 1453.712128C327.029434 1479.723709,337.364029 1504.666809,355.755600 1523.058380C374.147171 1541.449951,399.090271 1551.784546,425.101852 1551.784546C451.113434 1551.784546,476.056534 1541.449951,494.448105 1523.058380C512.839676 1504.666809,523.174271 1479.723709,523.174271 1453.712128Z" style="stroke:rgb(25.500488%,41.000366%,88.400269%); stroke-width: 2.500000;stroke-linecap: round;stroke-linejoin: round;stroke-miterlimit: 10.000000;fill: none;"></path>
  <path d="M703.579254 1425.190933C703.579254 1399.179352,693.244659 1374.236252,674.853088 1355.844681C656.461517 1337.453110,631.518417 1327.118515,605.506836 1327.118515C579.495255 1327.118515,554.552155 1337.453110,536.160583 1355.844681C517.769012 1374.236252,507.434418 1399.179352,507.434418 1425.190933C507.434418 1451.202515,517.769012 1476.145615,536.160583 1494.537186C554.552155 1512.928757,579.495255 1523.263351,605.506836 1523.263351C631.518417 1523.263351,656.461517 1512.928757,674.853088 1494.537186C693.244659 1476.145615,703.579254 1451.202515,703.579254 1425.190933Z" style="stroke:rgb(25.500488%,41.000366%,88.400269%); stroke-width: 2.500000;stroke-linecap: round;stroke-linejoin: round;stroke-miterlimit: 10.000000;fill: none;"></path>
  <path d="M846.457718 1394.061569C846.457718 1368.049988,836.123123 1343.106888,817.731552 1324.715317C799.339981 1306.323746,774.396881 1295.989151,748.385300 1295.989151C722.373718 1295.989151,697.430618 1306.323746,679.039047 1324.715317C660.647476 1343.106888,650.312881 1368.049988,650.312881 1394.061569C650.312881 1420.073151,660.647476 1445.016251,679.039047 1463.407822C697.430618 1481.799393,722.373718 1492.133987,748.385300 1492.133987C774.396881 1492.133987,799.339981 1481.799393,817.731552 1463.407822C836.123123 1445.016251,846.457718 1420.073151,846.457718 1394.061569Z" style="stroke:rgb(25.500488%,41.000366%,88.400269%); stroke-width: 2.500000;stroke-linecap: round;stroke-linejoin: round;stroke-miterlimit: 10.000000;fill: none;"></path>
  <path d="M1008.916931 1331.621170C1008.916931 1305.609589,998.582336 1280.666489,980.190765 1262.274918C961.799194 1243.883347,936.856094 1233.548752,910.844513 1233.548752C884.832932 1233.548752,859.889832 1243.883347,841.498260 1262.274918C823.106689 1280.666489,812.772095 1305.609589,812.772095 1331.621170C812.772095 1357.632751,823.106689 1382.575851,841.498260 1400.967422C859.889832 1419.358994,884.832932 1429.693588,910.844513 1429.693588C936.856094 1429.693588,961.799194 1419.358994,980.190765 1400.967422C998.582336 1382.575851,1008.916931 1357.632751,1008.916931 1331.621170Z" style="stroke:rgb(25.500488%,41.000366%,88.400269%); stroke-width: 2.500000;stroke-linecap: round;stroke-linejoin: round;stroke-miterlimit: 10.000000;fill: none;"></path>
  <path d="M1166.354446 1272.554535C1166.354446 1246.542953,1156.019852 1221.599854,1137.628281 1203.208282C1119.236710 1184.816711,1094.293610 1174.482117,1068.282028 1174.482117C1042.270447 1174.482117,1017.327347 1184.816711,998.935776 1203.208282C980.544205 1221.599854,970.209610 1246.542953,970.209610 1272.554535C970.209610 1298.566116,980.544205 1323.509216,998.935776 1341.900787C1017.327347 1360.292358,1042.270447 1370.626953,1068.282028 1370.626953C1094.293610 1370.626953,1119.236710 1360.292358,1137.628281 1341.900787C1156.019852 1323.509216,1166.354446 1298.566116,1166.354446 1272.554535Z" style="stroke:rgb(25.500488%,41.000366%,88.400269%); stroke-width: 2.500000;stroke-linecap: round;stroke-linejoin: round;stroke-miterlimit: 10.000000;fill: none;"></path>
  <path d="M1329.942566 1216.641052C1329.942566 1190.629471,1319.607971 1165.686371,1301.216400 1147.294800C1282.824829 1128.903229,1257.881729 1118.568634,1231.870148 1118.568634C1205.858566 1118.568634,1180.915466 1128.903229,1162.523895 1147.294800C1144.132324 1165.686371,1133.797729 1190.629471,1133.797729 1216.641052C1133.797729 1242.652634,1144.132324 1267.595734,1162.523895 1285.987305C1180.915466 1304.378876,1205.858566 1314.713470,1231.870148 1314.713470C1257.881729 1314.713470,1282.824829 1304.378876,1301.216400 1285.987305C1319.607971 1267.595734,1329.942566 1242.652634,1329.942566 1216.641052Z" style="stroke:rgb(25.500488%,41.000366%,88.400269%); stroke-width: 2.500000;stroke-linecap: round;stroke-linejoin: round;stroke-miterlimit: 10.000000;fill: none;"></path>
  <path d="M1497.267761 1166.527847C1497.267761 1140.516266,1486.933167 1115.573166,1468.541595 1097.181595C1450.150024 1078.790024,1425.206924 1068.455429,1399.195343 1068.455429C1373.183762 1068.455429,1348.240662 1078.790024,1329.849091 1097.181595C1311.457520 1115.573166,1301.122925 1140.516266,1301.122925 1166.527847C1301.122925 1192.539429,1311.457520 1217.482529,1329.849091 1235.874100C1348.240662 1254.265671,1373.183762 1264.600266,1399.195343 1264.600266C1425.206924 1264.600266,1450.150024 1254.265671,1468.541595 1235.874100C1486.933167 1217.482529,1497.267761 1192.539429,1497.267761 1166.527847Z" style="stroke:rgb(25.500488%,41.000366%,88.400269%); stroke-width: 2.500000;stroke-linecap: round;stroke-linejoin: round;stroke-miterlimit: 10.000000;fill: none;"></path>
  <path d="M1669.095642 1135.593109C1669.095642 1109.581528,1658.761047 1084.638428,1640.369476 1066.246857C1621.977905 1047.855286,1597.034805 1037.520691,1571.023224 1037.520691C1545.011642 1037.520691,1520.068542 1047.855286,1501.676971 1066.246857C1483.285400 1084.638428,1472.950806 1109.581528,1472.950806 1135.593109C1472.950806 1161.604691,1483.285400 1186.547791,1501.676971 1204.939362C1520.068542 1223.330933,1545.011642 1233.665527,1571.023224 1233.665527C1597.034805 1233.665527,1621.977905 1223.330933,1640.369476 1204.939362C1658.761047 1186.547791,1669.095642 1161.604691,1669.095642 1135.593109Z" style="stroke:rgb(25.500488%,41.000366%,88.400269%); stroke-width: 2.500000;stroke-linecap: round;stroke-linejoin: round;stroke-miterlimit: 10.000000;fill: none;"></path>
  <path d="M433.030167 1390.246628C433.030167 1364.235046,422.695572 1339.291946,404.304001 1320.900375C385.912430 1302.508804,360.969330 1292.174210,334.957748 1292.174210C308.946167 1292.174210,284.003067 1302.508804,265.611496 1320.900375C247.219925 1339.291946,236.885330 1364.235046,236.885330 1390.246628C236.885330 1416.258209,247.219925 1441.201309,265.611496 1459.592880C284.003067 1477.984451,308.946167 1488.319046,334.957748 1488.319046C360.969330 1488.319046,385.912430 1477.984451,404.304001 1459.592880C422.695572 1441.201309,433.030167 1416.258209,433.030167 1390.246628Z" style="stroke:rgb(25.500488%,41.000366%,88.400269%); stroke-width: 2.500000;stroke-linecap: round;stroke-linejoin: round;stroke-miterlimit: 10.000000;fill: none;"></path>
  <path d="M565.553802 1315.595840C565.553802 1289.584259,555.219208 1264.641159,536.827637 1246.249588C518.436066 1227.858017,493.492966 1217.523422,467.481384 1217.523422C441.469803 1217.523422,416.526703 1227.858017,398.135132 1246.249588C379.743561 1264.641159,369.408966 1289.584259,369.408966 1315.595840C369.408966 1341.607422,379.743561 1366.550522,398.135132 1384.942093C416.526703 1403.333664,441.469803 1413.668259,467.481384 1413.668259C493.492966 1413.668259,518.436066 1403.333664,536.827637 1384.942093C555.219208 1366.550522,565.553802 1341.607422,565.553802 1315.595840Z" style="stroke:rgb(25.500488%,41.000366%,88.400269%); stroke-width: 2.500000;stroke-linecap: round;stroke-linejoin: round;stroke-miterlimit: 10.000000;fill: none;"></path>
  <path d="M729.842636 1266.468796C729.842636 1240.457214,719.508041 1215.514114,701.116470 1197.122543C682.724899 1178.730972,657.781799 1168.396378,631.770218 1168.396378C605.758636 1168.396378,580.815536 1178.730972,562.423965 1197.122543C544.032394 1215.514114,533.697800 1240.457214,533.697800 1266.468796C533.697800 1292.480377,544.032394 1317.423477,562.423965 1335.815048C580.815536 1354.206619,605.758636 1364.541214,631.770218 1364.541214C657.781799 1364.541214,682.724899 1354.206619,701.116470 1335.815048C719.508041 1317.423477,729.842636 1292.480377,729.842636 1266.468796Z" style="stroke:rgb(25.500488%,41.000366%,88.400269%); stroke-width: 2.500000;stroke-linecap: round;stroke-linejoin: round;stroke-miterlimit: 10.000000;fill: none;"></path>
  <path d="M887.370972 1225.542572C887.370972 1199.530991,877.036377 1174.587891,858.644806 1156.196320C840.253235 1137.804749,815.310135 1127.470154,789.298553 1127.470154C763.286972 1127.470154,738.343872 1137.804749,719.952301 1156.196320C701.560730 1174.587891,691.226135 1199.530991,691.226135 1225.542572C691.226135 1251.554153,701.560730 1276.497253,719.952301 1294.888824C738.343872 1313.280396,763.286972 1323.614990,789.298553 1323.614990C815.310135 1323.614990,840.253235 1313.280396,858.644806 1294.888824C877.036377 1276.497253,887.370972 1251.554153,887.370972 1225.542572Z" style="stroke:rgb(25.500488%,41.000366%,88.400269%); stroke-width: 2.500000;stroke-linecap: round;stroke-linejoin: round;stroke-miterlimit: 10.000000;fill: none;"></path>
  <path d="M1050.933136 1164.075378C1050.933136 1138.063797,1040.598541 1113.120697,1022.206970 1094.729126C1003.815399 1076.337555,978.872299 1066.002960,952.860718 1066.002960C926.849136 1066.002960,901.906036 1076.337555,883.514465 1094.729126C865.122894 1113.120697,854.788300 1138.063797,854.788300 1164.075378C854.788300 1190.086960,865.122894 1215.030060,883.514465 1233.421631C901.906036 1251.813202,926.849136 1262.147797,952.860718 1262.147797C978.872299 1262.147797,1003.815399 1251.813202,1022.206970 1233.421631C1040.598541 1215.030060,1050.933136 1190.086960,1050.933136 1164.075378Z" style="stroke:rgb(25.500488%,41.000366%,88.400269%); stroke-width: 2.500000;stroke-linecap: round;stroke-linejoin: round;stroke-miterlimit: 10.000000;fill: none;"></path>
  <path d="M1215.079239 1104.346970C1215.079239 1078.335388,1204.744644 1053.392288,1186.353073 1035.000717C1167.961502 1016.609146,1143.018402 1006.274551,1117.006821 1006.274551C1090.995239 1006.274551,1066.052139 1016.609146,1047.660568 1035.000717C1029.268997 1053.392288,1018.934402 1078.335388,1018.934402 1104.346970C1018.934402 1130.358551,1029.268997 1155.301651,1047.660568 1173.693222C1066.052139 1192.084793,1090.995239 1202.419388,1117.006821 1202.419388C1143.018402 1202.419388,1167.961502 1192.084793,1186.353073 1173.693222C1204.744644 1155.301651,1215.079239 1130.358551,1215.079239 1104.346970Z" style="stroke:rgb(25.500488%,41.000366%,88.400269%); stroke-width: 2.500000;stroke-linecap: round;stroke-linejoin: round;stroke-miterlimit: 10.000000;fill: none;"></path>
  <path d="M1382.183838 1052.520920C1382.183838 1026.509338,1371.849243 1001.566238,1353.457672 983.174667C1335.066101 964.783096,1310.123001 954.448502,1284.111420 954.448502C1258.099838 954.448502,1233.156738 964.783096,1214.765167 983.174667C1196.373596 1001.566238,1186.039001 1026.509338,1186.039001 1052.520920C1186.039001 1078.532501,1196.373596 1103.475601,1214.765167 1121.867172C1233.156738 1140.258743,1258.099838 1150.593338,1284.111420 1150.593338C1310.123001 1150.593338,1335.066101 1140.258743,1353.457672 1121.867172C1371.849243 1103.475601,1382.183838 1078.532501,1382.183838 1052.520920Z" style="stroke:rgb(25.500488%,41.000366%,88.400269%); stroke-width: 2.500000;stroke-linecap: round;stroke-linejoin: round;stroke-miterlimit: 10.000000;fill: none;"></path>
  <path d="M1549.210602 1012.503006C1549.210602 986.491425,1538.876007 961.548325,1520.484436 943.156754C1502.092865 924.765182,1477.149765 914.430588,1451.138184 914.430588C1425.126602 914.430588,1400.183502 924.765182,1381.791931 943.156754C1363.400360 961.548325,1353.065765 986.491425,1353.065765 1012.503006C1353.065765 1038.514587,1363.400360 1063.457687,1381.791931 1081.849258C1400.183502 1100.240829,1425.126602 1110.575424,1451.138184 1110.575424C1477.149765 1110.575424,1502.092865 1100.240829,1520.484436 1081.849258C1538.876007 1063.457687,1549.210602 1038.514587,1549.210602 1012.503006Z" style="stroke:rgb(25.500488%,41.000366%,88.400269%); stroke-width: 2.500000;stroke-linecap: round;stroke-linejoin: round;stroke-miterlimit: 10.000000;fill: none;"></path>
  <path d="M1716.899124 997.204330C1716.899124 971.192749,1706.564529 946.249649,1688.172958 927.858078C1669.781387 909.466507,1644.838287 899.131912,1618.826706 899.131912C1592.815125 899.131912,1567.872025 909.466507,1549.480453 927.858078C1531.088882 946.249649,1520.754288 971.192749,1520.754288 997.204330C1520.754288 1023.215912,1531.088882 1048.159012,1549.480453 1066.550583C1567.872025 1084.942154,1592.815125 1095.276749,1618.826706 1095.276749C1644.838287 1095.276749,1669.781387 1084.942154,1688.172958 1066.550583C1706.564529 1048.159012,1716.899124 1023.215912,1716.899124 997.204330Z" style="stroke:rgb(25.500488%,41.000366%,88.400269%); stroke-width: 2.500000;stroke-linecap: round;stroke-linejoin: round;stroke-miterlimit: 10.000000;fill: none;"></path>
  <path d="M315.312119 1257.606216C315.312119 1231.594635,304.977524 1206.651535,286.585953 1188.259964C268.194382 1169.868393,243.251282 1159.533798,217.239700 1159.533798C191.228119 1159.533798,166.285019 1169.868393,147.893448 1188.259964C129.501877 1206.651535,119.167282 1231.594635,119.167282 1257.606216C119.167282 1283.617798,129.501877 1308.560898,147.893448 1326.952469C166.285019 1345.344040,191.228119 1355.678635,217.239700 1355.678635C243.251282 1355.678635,268.194382 1345.344040,286.585953 1326.952469C304.977524 1308.560898,315.312119 1283.617798,315.312119 1257.606216Z" style="stroke:rgb(25.500488%,41.000366%,88.400269%); stroke-width: 2.500000;stroke-linecap: round;stroke-linejoin: round;stroke-miterlimit: 10.000000;fill: none;"></path>
  <path d="M441.373718 1204.819946C441.373718 1178.808365,431.039124 1153.865265,412.647552 1135.473694C394.255981 1117.082123,369.312881 1106.747528,343.301300 1106.747528C317.289719 1106.747528,292.346619 1117.082123,273.955048 1135.473694C255.563477 1153.865265,245.228882 1178.808365,245.228882 1204.819946C245.228882 1230.831528,255.563477 1255.774628,273.955048 1274.166199C292.346619 1292.557770,317.289719 1302.892365,343.301300 1302.892365C369.312881 1302.892365,394.255981 1292.557770,412.647552 1274.166199C431.039124 1255.774628,441.373718 1230.831528,441.373718 1204.819946Z" style="stroke:rgb(25.500488%,41.000366%,88.400269%); stroke-width: 2.500000;stroke-linecap: round;stroke-linejoin: round;stroke-miterlimit: 10.000000;fill: none;"></path>
  <path d="M606.518967 1151.255112C606.518967 1125.243530,596.184372 1100.300430,577.792801 1081.908859C559.401230 1063.517288,534.458130 1053.182693,508.446548 1053.182693C482.434967 1053.182693,457.491867 1063.517288,439.100296 1081.908859C420.708725 1100.300430,410.374130 1125.243530,410.374130 1151.255112C410.374130 1177.266693,420.708725 1202.209793,439.100296 1220.601364C457.491867 1238.992935,482.434967 1249.327530,508.446548 1249.327530C534.458130 1249.327530,559.401230 1238.992935,577.792801 1220.601364C596.184372 1202.209793,606.518967 1177.266693,606.518967 1151.255112Z" style="stroke:rgb(25.500488%,41.000366%,88.400269%); stroke-width: 2.500000;stroke-linecap: round;stroke-linejoin: round;stroke-miterlimit: 10.000000;fill: none;"></path>
  <path d="M769.406387 1100.778580C769.406387 1074.766998,759.071793 1049.823898,740.680222 1031.432327C722.288651 1013.040756,697.345551 1002.706161,671.333969 1002.706161C645.322388 1002.706161,620.379288 1013.040756,601.987717 1031.432327C583.596146 1049.823898,573.261551 1074.766998,573.261551 1100.778580C573.261551 1126.790161,583.596146 1151.733261,601.987717 1170.124832C620.379288 1188.516403,645.322388 1198.850998,671.333969 1198.850998C697.345551 1198.850998,722.288651 1188.516403,740.680222 1170.124832C759.071793 1151.733261,769.406387 1126.790161,769.406387 1100.778580Z" style="stroke:rgb(25.500488%,41.000366%,88.400269%); stroke-width: 2.500000;stroke-linecap: round;stroke-linejoin: round;stroke-miterlimit: 10.000000;fill: none;"></path>
  <path d="M928.945999 1058.113571C928.945999 1032.101990,918.611404 1007.158890,900.219833 988.767319C881.828262 970.375748,856.885162 960.041153,830.873581 960.041153C804.862000 960.041153,779.918900 970.375748,761.527328 988.767319C743.135757 1007.158890,732.801163 1032.101990,732.801163 1058.113571C732.801163 1084.125153,743.135757 1109.068253,761.527328 1127.459824C779.918900 1145.851395,804.862000 1156.185989,830.873581 1156.185989C856.885162 1156.185989,881.828262 1145.851395,900.219833 1127.459824C918.611404 1109.068253,928.945999 1084.125153,928.945999 1058.113571Z" style="stroke:rgb(25.500488%,41.000366%,88.400269%); stroke-width: 2.500000;stroke-linecap: round;stroke-linejoin: round;stroke-miterlimit: 10.000000;fill: none;"></path>
  <path d="M1094.220993 998.255386C1094.220993 972.243805,1083.886398 947.300705,1065.494827 928.909134C1047.103256 910.517563,1022.160156 900.182968,996.148575 900.182968C970.136993 900.182968,945.193893 910.517563,926.802322 928.909134C908.410751 947.300705,898.076157 972.243805,898.076157 998.255386C898.076157 1024.266968,908.410751 1049.210068,926.802322 1067.601639C945.193893 1085.993210,970.136993 1096.327805,996.148575 1096.327805C1022.160156 1096.327805,1047.103256 1085.993210,1065.494827 1067.601639C1083.886398 1049.210068,1094.220993 1024.266968,1094.220993 998.255386Z" style="stroke:rgb(25.500488%,41.000366%,88.400269%); stroke-width: 2.500000;stroke-linecap: round;stroke-linejoin: round;stroke-miterlimit: 10.000000;fill: none;"></path>
  <path d="M1262.104172 940.810745C1262.104172 914.799164,1251.769577 889.856064,1233.378006 871.464493C1214.986435 853.072922,1190.043335 842.738327,1164.031754 842.738327C1138.020172 842.738327,1113.077072 853.072922,1094.685501 871.464493C1076.293930 889.856064,1065.959335 914.799164,1065.959335 940.810745C1065.959335 966.822327,1076.293930 991.765427,1094.685501 1010.156998C1113.077072 1028.548569,1138.020172 1038.883163,1164.031754 1038.883163C1190.043335 1038.883163,1214.986435 1028.548569,1233.378006 1010.156998C1251.769577 991.765427,1262.104172 966.822327,1262.104172 940.810745Z" style="stroke:rgb(25.500488%,41.000366%,88.400269%); stroke-width: 2.500000;stroke-linecap: round;stroke-linejoin: round;stroke-miterlimit: 10.000000;fill: none;"></path>
  <path d="M1427.677612 892.124893C1427.677612 866.113312,1417.343018 841.170212,1398.951447 822.778641C1380.559875 804.387070,1355.616776 794.052475,1329.605194 794.052475C1303.593613 794.052475,1278.650513 804.387070,1260.258942 822.778641C1241.867371 841.170212,1231.532776 866.113312,1231.532776 892.124893C1231.532776 918.136475,1241.867371 943.079575,1260.258942 961.471146C1278.650513 979.862717,1303.593613 990.197311,1329.605194 990.197311C1355.616776 990.197311,1380.559875 979.862717,1398.951447 961.471146C1417.343018 943.079575,1427.677612 918.136475,1427.677612 892.124893Z" style="stroke:rgb(25.500488%,41.000366%,88.400269%); stroke-width: 2.500000;stroke-linecap: round;stroke-linejoin: round;stroke-miterlimit: 10.000000;fill: none;"></path>
  <path d="M1596.157684 862.137405C1596.157684 836.125824,1585.823090 811.182724,1567.431519 792.791153C1549.039948 774.399582,1524.096848 764.064987,1498.085266 764.064987C1472.073685 764.064987,1447.130585 774.399582,1428.739014 792.791153C1410.347443 811.182724,1400.012848 836.125824,1400.012848 862.137405C1400.012848 888.148987,1410.347443 913.092087,1428.739014 931.483658C1447.130585 949.875229,1472.073685 960.209824,1498.085266 960.209824C1524.096848 960.209824,1549.039948 949.875229,1567.431519 931.483658C1585.823090 913.092087,1596.157684 888.148987,1596.157684 862.137405Z" style="stroke:rgb(25.500488%,41.000366%,88.400269%); stroke-width: 2.500000;stroke-linecap: round;stroke-linejoin: round;stroke-miterlimit: 10.000000;fill: none;"></path>
  <path d="M1764.079773 872.051056C1764.079773 846.039474,1753.745178 821.096375,1735.353607 802.704803C1716.962036 784.313232,1692.018936 773.978638,1666.007355 773.978638C1639.995773 773.978638,1615.052673 784.313232,1596.661102 802.704803C1578.269531 821.096375,1567.934937 846.039474,1567.934937 872.051056C1567.934937 898.062637,1578.269531 923.005737,1596.661102 941.397308C1615.052673 959.788879,1639.995773 970.123474,1666.007355 970.123474C1692.018936 970.123474,1716.962036 959.788879,1735.353607 941.397308C1753.745178 923.005737,1764.079773 898.062637,1764.079773 872.051056Z" style="stroke:rgb(25.500488%,41.000366%,88.400269%); stroke-width: 2.500000;stroke-linecap: round;stroke-linejoin: round;stroke-miterlimit: 10.000000;fill: none;"></path>
  <path d="M305.645020 1080.938309C305.645020 1054.926727,295.310425 1029.983627,276.918854 1011.592056C258.527283 993.200485,233.584183 982.865891,207.572601 982.865891C181.561020 982.865891,156.617920 993.200485,138.226349 1011.592056C119.834778 1029.983627,109.500183 1054.926727,109.500183 1080.938309C109.500183 1106.949890,119.834778 1131.892990,138.226349 1150.284561C156.617920 1168.676132,181.561020 1179.010727,207.572601 1179.010727C233.584183 1179.010727,258.527283 1168.676132,276.918854 1150.284561C295.310425 1131.892990,305.645020 1106.949890,305.645020 1080.938309Z" style="stroke:rgb(25.500488%,41.000366%,88.400269%); stroke-width: 2.500000;stroke-linecap: round;stroke-linejoin: round;stroke-miterlimit: 10.000000;fill: none;"></path>
  <path d="M467.351624 1049.523468C467.351624 1023.511887,457.017029 998.568787,438.625458 980.177216C420.233887 961.785645,395.290787 951.451050,369.279205 951.451050C343.267624 951.451050,318.324524 961.785645,299.932953 980.177216C281.541382 998.568787,271.206787 1023.511887,271.206787 1049.523468C271.206787 1075.535049,281.541382 1100.478149,299.932953 1118.869720C318.324524 1137.261292,343.267624 1147.595886,369.279205 1147.595886C395.290787 1147.595886,420.233887 1137.261292,438.625458 1118.869720C457.017029 1100.478149,467.351624 1075.535049,467.351624 1049.523468Z" style="stroke:rgb(25.500488%,41.000366%,88.400269%); stroke-width: 2.500000;stroke-linecap: round;stroke-linejoin: round;stroke-miterlimit: 10.000000;fill: none;"></path>
  <path d="M634.248627 993.584045C634.248627 967.572464,623.914032 942.629364,605.522461 924.237793C587.130890 905.846222,562.187790 895.511627,536.176208 895.511627C510.164627 895.511627,485.221527 905.846222,466.829956 924.237793C448.438385 942.629364,438.103790 967.572464,438.103790 993.584045C438.103790 1019.595627,448.438385 1044.538727,466.829956 1062.930298C485.221527 1081.321869,510.164627 1091.656464,536.176208 1091.656464C562.187790 1091.656464,587.130890 1081.321869,605.522461 1062.930298C623.914032 1044.538727,634.248627 1019.595627,634.248627 993.584045Z" style="stroke:rgb(25.500488%,41.000366%,88.400269%); stroke-width: 2.500000;stroke-linecap: round;stroke-linejoin: round;stroke-miterlimit: 10.000000;fill: none;"></path>
  <path d="M802.391312 943.496780C802.391312 917.485199,792.056717 892.542099,773.665146 874.150528C755.273575 855.758957,730.330475 845.424362,704.318893 845.424362C678.307312 845.424362,653.364212 855.758957,634.972641 874.150528C616.581070 892.542099,606.246475 917.485199,606.246475 943.496780C606.246475 969.508362,616.581070 994.451462,634.972641 1012.843033C653.364212 1031.234604,678.307312 1041.569199,704.318893 1041.569199C730.330475 1041.569199,755.273575 1031.234604,773.665146 1012.843033C792.056717 994.451462,802.391312 969.508362,802.391312 943.496780Z" style="stroke:rgb(25.500488%,41.000366%,88.400269%); stroke-width: 2.500000;stroke-linecap: round;stroke-linejoin: round;stroke-miterlimit: 10.000000;fill: none;"></path>
  <path d="M965.914551 894.149139C965.914551 868.137558,955.579956 843.194458,937.188385 824.802887C918.796814 806.411316,893.853714 796.076721,867.842133 796.076721C841.830551 796.076721,816.887451 806.411316,798.495880 824.802887C780.104309 843.194458,769.769714 868.137558,769.769714 894.149139C769.769714 920.160721,780.104309 945.103821,798.495880 963.495392C816.887451 981.886963,841.830551 992.221558,867.842133 992.221558C893.853714 992.221558,918.796814 981.886963,937.188385 963.495392C955.579956 945.103821,965.914551 920.160721,965.914551 894.149139Z" style="stroke:rgb(25.500488%,41.000366%,88.400269%); stroke-width: 2.500000;stroke-linecap: round;stroke-linejoin: round;stroke-miterlimit: 10.000000;fill: none;"></path>
  <path d="M1130.891098 837.859360C1130.891098 811.847778,1120.556503 786.904678,1102.164932 768.513107C1083.773361 750.121536,1058.830261 739.786942,1032.818680 739.786942C1006.807098 739.786942,981.863998 750.121536,963.472427 768.513107C945.080856 786.904678,934.746262 811.847778,934.746262 837.859360C934.746262 863.870941,945.080856 888.814041,963.472427 907.205612C981.863998 925.597183,1006.807098 935.931778,1032.818680 935.931778C1058.830261 935.931778,1083.773361 925.597183,1102.164932 907.205612C1120.556503 888.814041,1130.891098 863.870941,1130.891098 837.859360Z" style="stroke:rgb(25.500488%,41.000366%,88.400269%); stroke-width: 2.500000;stroke-linecap: round;stroke-linejoin: round;stroke-miterlimit: 10.000000;fill: none;"></path>
  <path d="M1297.995712 779.636154C1297.995712 753.624573,1287.661118 728.681473,1269.269547 710.289902C1250.877975 691.898331,1225.934875 681.563736,1199.923294 681.563736C1173.911713 681.563736,1148.968613 691.898331,1130.577042 710.289902C1112.185471 728.681473,1101.850876 753.624573,1101.850876 779.636154C1101.850876 805.647736,1112.185471 830.590836,1130.577042 848.982407C1148.968613 867.373978,1173.911713 877.708572,1199.923294 877.708572C1225.934875 877.708572,1250.877975 867.373978,1269.269547 848.982407C1287.661118 830.590836,1297.995712 805.647736,1297.995712 779.636154Z" style="stroke:rgb(25.500488%,41.000366%,88.400269%); stroke-width: 2.500000;stroke-linecap: round;stroke-linejoin: round;stroke-miterlimit: 10.000000;fill: none;"></path>
  <path d="M1457.016296 743.562943C1457.016296 717.551361,1446.681702 692.608261,1428.290131 674.216690C1409.898560 655.825119,1384.955460 645.490524,1358.943878 645.490524C1332.932297 645.490524,1307.989197 655.825119,1289.597626 674.216690C1271.206055 692.608261,1260.871460 717.551361,1260.871460 743.562943C1260.871460 769.574524,1271.206055 794.517624,1289.597626 812.909195C1307.989197 831.300766,1332.932297 841.635361,1358.943878 841.635361C1384.955460 841.635361,1409.898560 831.300766,1428.290131 812.909195C1446.681702 794.517624,1457.016296 769.574524,1457.016296 743.562943Z" style="stroke:rgb(25.500488%,41.000366%,88.400269%); stroke-width: 2.500000;stroke-linecap: round;stroke-linejoin: round;stroke-miterlimit: 10.000000;fill: none;"></path>
  <path d="M1594.068542 690.569061C1594.068542 664.557480,1583.733948 639.614380,1565.342377 621.222809C1546.950806 602.831238,1522.007706 592.496643,1495.996124 592.496643C1469.984543 592.496643,1445.041443 602.831238,1426.649872 621.222809C1408.258301 639.614380,1397.923706 664.557480,1397.923706 690.569061C1397.923706 716.580643,1408.258301 741.523743,1426.649872 759.915314C1445.041443 778.306885,1469.984543 788.641479,1495.996124 788.641479C1522.007706 788.641479,1546.950806 778.306885,1565.342377 759.915314C1583.733948 741.523743,1594.068542 716.580643,1594.068542 690.569061Z" style="stroke:rgb(25.500488%,41.000366%,88.400269%); stroke-width: 2.500000;stroke-linecap: round;stroke-linejoin: round;stroke-miterlimit: 10.000000;fill: none;"></path>
  <path d="M1727.747040 729.393173C1727.747040 703.381592,1717.412445 678.438492,1699.020874 660.046921C1680.629303 641.655350,1655.686203 631.320755,1629.674622 631.320755C1603.663040 631.320755,1578.719940 641.655350,1560.328369 660.046921C1541.936798 678.438492,1531.602203 703.381592,1531.602203 729.393173C1531.602203 755.404755,1541.936798 780.347855,1560.328369 798.739426C1578.719940 817.130997,1603.663040 827.465591,1629.674622 827.465591C1655.686203 827.465591,1680.629303 817.130997,1699.020874 798.739426C1717.412445 780.347855,1727.747040 755.404755,1727.747040 729.393173Z" style="stroke:rgb(25.500488%,41.000366%,88.400269%); stroke-width: 2.500000;stroke-linecap: round;stroke-linejoin: round;stroke-miterlimit: 10.000000;fill: none;"></path>
  <path d="M196.452179 947.013260C196.452179 921.001678,186.117584 896.058578,167.726013 877.667007C149.334442 859.275436,124.391342 848.940842,98.379761 848.940842C72.368179 848.940842,47.425079 859.275436,29.033508 877.667007C10.641937 896.058578,0.307343 921.001678,0.307343 947.013260C0.307343 973.024841,10.641937 997.967941,29.033508 1016.359512C47.425079 1034.751083,72.368179 1045.085678,98.379761 1045.085678C124.391342 1045.085678,149.334442 1034.751083,167.726013 1016.359512C186.117584 997.967941,196.452179 973.024841,196.452179 947.013260Z" style="stroke:rgb(25.500488%,41.000366%,88.400269%); stroke-width: 2.500000;stroke-linecap: round;stroke-linejoin: round;stroke-miterlimit: 10.000000;fill: none;"></path>
  <path d="M358.132843 917.090668C358.132843 891.079086,347.798248 866.135986,329.406677 847.744415C311.015106 829.352844,286.072006 819.018250,260.060425 819.018250C234.048843 819.018250,209.105743 829.352844,190.714172 847.744415C172.322601 866.135986,161.988007 891.079086,161.988007 917.090668C161.988007 943.102249,172.322601 968.045349,190.714172 986.436920C209.105743 1004.828491,234.048843 1015.163086,260.060425 1015.163086C286.072006 1015.163086,311.015106 1004.828491,329.406677 986.436920C347.798248 968.045349,358.132843 943.102249,358.132843 917.090668Z" style="stroke:rgb(25.500488%,41.000366%,88.400269%); stroke-width: 2.500000;stroke-linecap: round;stroke-linejoin: round;stroke-miterlimit: 10.000000;fill: none;"></path>
  <path d="M519.060883 884.105728C519.060883 858.094147,508.726288 833.151047,490.334717 814.759476C471.943146 796.367905,447.000046 786.033310,420.988464 786.033310C394.976883 786.033310,370.033783 796.367905,351.642212 814.759476C333.250641 833.151047,322.916046 858.094147,322.916046 884.105728C322.916046 910.117310,333.250641 935.060410,351.642212 953.451981C370.033783 971.843552,394.976883 982.178146,420.988464 982.178146C447.000046 982.178146,471.943146 971.843552,490.334717 953.451981C508.726288 935.060410,519.060883 910.117310,519.060883 884.105728Z" style="stroke:rgb(25.500488%,41.000366%,88.400269%); stroke-width: 2.500000;stroke-linecap: round;stroke-linejoin: round;stroke-miterlimit: 10.000000;fill: none;"></path>
  <path d="M687.826416 830.086746C687.826416 804.075165,677.491821 779.132065,659.100250 760.740494C640.708679 742.348923,615.765579 732.014328,589.753998 732.014328C563.742416 732.014328,538.799316 742.348923,520.407745 760.740494C502.016174 779.132065,491.681580 804.075165,491.681580 830.086746C491.681580 856.098328,502.016174 881.041428,520.407745 899.432999C538.799316 917.824570,563.742416 928.159164,589.753998 928.159164C615.765579 928.159164,640.708679 917.824570,659.100250 899.432999C677.491821 881.041428,687.826416 856.098328,687.826416 830.086746Z" style="stroke:rgb(25.500488%,41.000366%,88.400269%); stroke-width: 2.500000;stroke-linecap: round;stroke-linejoin: round;stroke-miterlimit: 10.000000;fill: none;"></path>
  <path d="M852.245010 776.223480C852.245010 750.211899,841.910416 725.268799,823.518845 706.877228C805.127274 688.485657,780.184174 678.151062,754.172592 678.151062C728.161011 678.151062,703.217911 688.485657,684.826340 706.877228C666.434769 725.268799,656.100174 750.211899,656.100174 776.223480C656.100174 802.235062,666.434769 827.178162,684.826340 845.569733C703.217911 863.961304,728.161011 874.295898,754.172592 874.295898C780.184174 874.295898,805.127274 863.961304,823.518845 845.569733C841.910416 827.178162,852.245010 802.235062,852.245010 776.223480Z" style="stroke:rgb(25.500488%,41.000366%,88.400269%); stroke-width: 2.500000;stroke-linecap: round;stroke-linejoin: round;stroke-miterlimit: 10.000000;fill: none;"></path>
  <path d="M1015.910980 727.018570C1015.910980 701.006989,1005.576385 676.063889,987.184814 657.672318C968.793243 639.280746,943.850143 628.946152,917.838562 628.946152C891.826981 628.946152,866.883881 639.280746,848.492310 657.672318C830.100739 676.063889,819.766144 701.006989,819.766144 727.018570C819.766144 753.030151,830.100739 777.973251,848.492310 796.364822C866.883881 814.756393,891.826981 825.090988,917.838562 825.090988C943.850143 825.090988,968.793243 814.756393,987.184814 796.364822C1005.576385 777.973251,1015.910980 753.030151,1015.910980 727.018570Z" style="stroke:rgb(25.500488%,41.000366%,88.400269%); stroke-width: 2.500000;stroke-linecap: round;stroke-linejoin: round;stroke-miterlimit: 10.000000;fill: none;"></path>
  <path d="M1182.548462 672.363770C1182.548462 646.352188,1172.213867 621.409088,1153.822296 603.017517C1135.430725 584.625946,1110.487625 574.291351,1084.476044 574.291351C1058.464462 574.291351,1033.521362 584.625946,1015.129791 603.017517C996.738220 621.409088,986.403625 646.352188,986.403625 672.363770C986.403625 698.375351,996.738220 723.318451,1015.129791 741.710022C1033.521362 760.101593,1058.464462 770.436188,1084.476044 770.436188C1110.487625 770.436188,1135.430725 760.101593,1153.822296 741.710022C1172.213867 723.318451,1182.548462 698.375351,1182.548462 672.363770Z" style="stroke:rgb(25.500488%,41.000366%,88.400269%); stroke-width: 2.500000;stroke-linecap: round;stroke-linejoin: round;stroke-miterlimit: 10.000000;fill: none;"></path>
  <path d="M1347.473114 612.012512C1347.473114 586.000931,1337.138519 561.057831,1318.746948 542.666260C1300.355377 524.274689,1275.412277 513.940094,1249.400696 513.940094C1223.389114 513.940094,1198.446014 524.274689,1180.054443 542.666260C1161.662872 561.057831,1151.328278 586.000931,1151.328278 612.012512C1151.328278 638.024094,1161.662872 662.967194,1180.054443 681.358765C1198.446014 699.750336,1223.389114 710.084930,1249.400696 710.084930C1275.412277 710.084930,1300.355377 699.750336,1318.746948 681.358765C1337.138519 662.967194,1347.473114 638.024094,1347.473114 612.012512Z" style="stroke:rgb(25.500488%,41.000366%,88.400269%); stroke-width: 2.500000;stroke-linecap: round;stroke-linejoin: round;stroke-miterlimit: 10.000000;fill: none;"></path>
  <path d="M1496.891464 567.933121C1496.891464 541.921539,1486.556870 516.978439,1468.165298 498.586868C1449.773727 480.195297,1424.830627 469.860703,1398.819046 469.860703C1372.807465 469.860703,1347.864365 480.195297,1329.472794 498.586868C1311.081223 516.978439,1300.746628 541.921539,1300.746628 567.933121C1300.746628 593.944702,1311.081223 618.887802,1329.472794 637.279373C1347.864365 655.670944,1372.807465 666.005539,1398.819046 666.005539C1424.830627 666.005539,1449.773727 655.670944,1468.165298 637.279373C1486.556870 618.887802,1496.891464 593.944702,1496.891464 567.933121Z" style="stroke:rgb(25.500488%,41.000366%,88.400269%); stroke-width: 2.500000;stroke-linecap: round;stroke-linejoin: round;stroke-miterlimit: 10.000000;fill: none;"></path>
  <path d="M1682.733383 557.941620C1682.733383 531.930038,1672.398788 506.986938,1654.007217 488.595367C1635.615646 470.203796,1610.672546 459.869202,1584.660965 459.869202C1558.649384 459.869202,1533.706284 470.203796,1515.314713 488.595367C1496.923141 506.986938,1486.588547 531.930038,1486.588547 557.941620C1486.588547 583.953201,1496.923141 608.896301,1515.314713 627.287872C1533.706284 645.679443,1558.649384 656.014038,1584.660965 656.014038C1610.672546 656.014038,1635.615646 645.679443,1654.007217 627.287872C1672.398788 608.896301,1682.733383 583.953201,1682.733383 557.941620Z" style="stroke:rgb(25.500488%,41.000366%,88.400269%); stroke-width: 2.500000;stroke-linecap: round;stroke-linejoin: round;stroke-miterlimit: 10.000000;fill: none;"></path>
  <path d="M227.944885 806.146072C227.944885 780.134491,217.610291 755.191391,199.218719 736.799820C180.827148 718.408249,155.884048 708.073654,129.872467 708.073654C103.860886 708.073654,78.917786 718.408249,60.526215 736.799820C42.134644 755.191391,31.800049 780.134491,31.800049 806.146072C31.800049 832.157654,42.134644 857.100754,60.526215 875.492325C78.917786 893.883896,103.860886 904.218491,129.872467 904.218491C155.884048 904.218491,180.827148 893.883896,199.218719 875.492325C217.610291 857.100754,227.944885 832.157654,227.944885 806.146072Z" style="stroke:rgb(25.500488%,41.000366%,88.400269%); stroke-width: 2.500000;stroke-linecap: round;stroke-linejoin: round;stroke-miterlimit: 10.000000;fill: none;"></path>
  <path d="M404.171600 768.295151C404.171600 742.283569,393.837006 717.340469,375.445435 698.948898C357.053864 680.557327,332.110764 670.222733,306.099182 670.222733C280.087601 670.222733,255.144501 680.557327,236.752930 698.948898C218.361359 717.340469,208.026764 742.283569,208.026764 768.295151C208.026764 794.306732,218.361359 819.249832,236.752930 837.641403C255.144501 856.032974,280.087601 866.367569,306.099182 866.367569C332.110764 866.367569,357.053864 856.032974,375.445435 837.641403C393.837006 819.249832,404.171600 794.306732,404.171600 768.295151Z" style="stroke:rgb(25.500488%,41.000366%,88.400269%); stroke-width: 2.500000;stroke-linecap: round;stroke-linejoin: round;stroke-miterlimit: 10.000000;fill: none;"></path>
  <path d="M573.053925 722.074738C573.053925 696.063156,562.719330 671.120056,544.327759 652.728485C525.936188 634.336914,500.993088 624.002319,474.981506 624.002319C448.969925 624.002319,424.026825 634.336914,405.635254 652.728485C387.243683 671.120056,376.909088 696.063156,376.909088 722.074738C376.909088 748.086319,387.243683 773.029419,405.635254 791.420990C424.026825 809.812561,448.969925 820.147156,474.981506 820.147156C500.993088 820.147156,525.936188 809.812561,544.327759 791.420990C562.719330 773.029419,573.053925 748.086319,573.053925 722.074738Z" style="stroke:rgb(25.500488%,41.000366%,88.400269%); stroke-width: 2.500000;stroke-linecap: round;stroke-linejoin: round;stroke-miterlimit: 10.000000;fill: none;"></path>
  <path d="M738.289993 662.709641C738.289993 636.698059,727.955399 611.754959,709.563828 593.363388C691.172256 574.971817,666.229156 564.637222,640.217575 564.637222C614.205994 564.637222,589.262894 574.971817,570.871323 593.363388C552.479752 611.754959,542.145157 636.698059,542.145157 662.709641C542.145157 688.721222,552.479752 713.664322,570.871323 732.055893C589.262894 750.447464,614.205994 760.782059,640.217575 760.782059C666.229156 760.782059,691.172256 750.447464,709.563828 732.055893C727.955399 713.664322,738.289993 688.721222,738.289993 662.709641Z" style="stroke:rgb(25.500488%,41.000366%,88.400269%); stroke-width: 2.500000;stroke-linecap: round;stroke-linejoin: round;stroke-miterlimit: 10.000000;fill: none;"></path>
  <path d="M902.851318 608.976135C902.851318 582.964554,892.516724 558.021454,874.125153 539.629883C855.733582 521.238312,830.790482 510.903717,804.778900 510.903717C778.767319 510.903717,753.824219 521.238312,735.432648 539.629883C717.041077 558.021454,706.706482 582.964554,706.706482 608.976135C706.706482 634.987717,717.041077 659.930817,735.432648 678.322388C753.824219 696.713959,778.767319 707.048553,804.778900 707.048553C830.790482 707.048553,855.733582 696.713959,874.125153 678.322388C892.516724 659.930817,902.851318 634.987717,902.851318 608.976135Z" style="stroke:rgb(25.500488%,41.000366%,88.400269%); stroke-width: 2.500000;stroke-linecap: round;stroke-linejoin: round;stroke-miterlimit: 10.000000;fill: none;"></path>
  <path d="M1068.165237 561.406204C1068.165237 535.394623,1057.830643 510.451523,1039.439072 492.059952C1021.047501 473.668381,996.104401 463.333786,970.092819 463.333786C944.081238 463.333786,919.138138 473.668381,900.746567 492.059952C882.354996 510.451523,872.020401 535.394623,872.020401 561.406204C872.020401 587.417786,882.354996 612.360886,900.746567 630.752457C919.138138 649.144028,944.081238 659.478622,970.092819 659.478622C996.104401 659.478622,1021.047501 649.144028,1039.439072 630.752457C1057.830643 612.360886,1068.165237 587.417786,1068.165237 561.406204Z" style="stroke:rgb(25.500488%,41.000366%,88.400269%); stroke-width: 2.500000;stroke-linecap: round;stroke-linejoin: round;stroke-miterlimit: 10.000000;fill: none;"></path>
  <path d="M1234.192841 506.141525C1234.192841 480.129944,1223.858246 455.186844,1205.466675 436.795273C1187.075104 418.403702,1162.132004 408.069107,1136.120422 408.069107C1110.108841 408.069107,1085.165741 418.403702,1066.774170 436.795273C1048.382599 455.186844,1038.048004 480.129944,1038.048004 506.141525C1038.048004 532.153107,1048.382599 557.096207,1066.774170 575.487778C1085.165741 593.879349,1110.108841 604.213943,1136.120422 604.213943C1162.132004 604.213943,1187.075104 593.879349,1205.466675 575.487778C1223.858246 557.096207,1234.192841 532.153107,1234.192841 506.141525Z" style="stroke:rgb(25.500488%,41.000366%,88.400269%); stroke-width: 2.500000;stroke-linecap: round;stroke-linejoin: round;stroke-miterlimit: 10.000000;fill: none;"></path>
  <path d="M1395.094940 440.197617C1395.094940 414.186035,1384.760345 389.242935,1366.368774 370.851364C1347.977203 352.459793,1323.034103 342.125198,1297.022522 342.125198C1271.010941 342.125198,1246.067841 352.459793,1227.676270 370.851364C1209.284698 389.242935,1198.950104 414.186035,1198.950104 440.197617C1198.950104 466.209198,1209.284698 491.152298,1227.676270 509.543869C1246.067841 527.935440,1271.010941 538.270035,1297.022522 538.270035C1323.034103 538.270035,1347.977203 527.935440,1366.368774 509.543869C1384.760345 491.152298,1395.094940 466.209198,1395.094940 440.197617Z" style="stroke:rgb(25.500488%,41.000366%,88.400269%); stroke-width: 2.500000;stroke-linecap: round;stroke-linejoin: round;stroke-miterlimit: 10.000000;fill: none;"></path>
  <path d="M1579.730087 434.267593C1579.730087 408.256012,1569.395493 383.312912,1551.003922 364.921341C1532.612350 346.529770,1507.669250 336.195175,1481.657669 336.195175C1455.646088 336.195175,1430.702988 346.529770,1412.311417 364.921341C1393.919846 383.312912,1383.585251 408.256012,1383.585251 434.267593C1383.585251 460.279175,1393.919846 485.222275,1412.311417 503.613846C1430.702988 522.005417,1455.646088 532.340012,1481.657669 532.340012C1507.669250 532.340012,1532.612350 522.005417,1551.003922 503.613846C1569.395493 485.222275,1579.730087 460.279175,1579.730087 434.267593Z" style="stroke:rgb(25.500488%,41.000366%,88.400269%); stroke-width: 2.500000;stroke-linecap: round;stroke-linejoin: round;stroke-miterlimit: 10.000000;fill: none;"></path>
  <path d="M290.515030 652.860870C290.515030 626.849289,280.180435 601.906189,261.788864 583.514618C243.397293 565.123047,218.454193 554.788452,192.442612 554.788452C166.431030 554.788452,141.487930 565.123047,123.096359 583.514618C104.704788 601.906189,94.370193 626.849289,94.370193 652.860870C94.370193 678.872452,104.704788 703.815552,123.096359 722.207123C141.487930 740.598694,166.431030 750.933289,192.442612 750.933289C218.454193 750.933289,243.397293 740.598694,261.788864 722.207123C280.180435 703.815552,290.515030 678.872452,290.515030 652.860870Z" style="stroke:rgb(25.500488%,41.000366%,88.400269%); stroke-width: 2.500000;stroke-linecap: round;stroke-linejoin: round;stroke-miterlimit: 10.000000;fill: none;"></path>
  <path d="M460.552216 607.159485C460.552216 581.147903,450.217621 556.204803,431.826050 537.813232C413.434479 519.421661,388.491379 509.087067,362.479797 509.087067C336.468216 509.087067,311.525116 519.421661,293.133545 537.813232C274.741974 556.204803,264.407379 581.147903,264.407379 607.159485C264.407379 633.171066,274.741974 658.114166,293.133545 676.505737C311.525116 694.897308,336.468216 705.231903,362.479797 705.231903C388.491379 705.231903,413.434479 694.897308,431.826050 676.505737C450.217621 658.114166,460.552216 633.171066,460.552216 607.159485Z" style="stroke:rgb(25.500488%,41.000366%,88.400269%); stroke-width: 2.500000;stroke-linecap: round;stroke-linejoin: round;stroke-miterlimit: 10.000000;fill: none;"></path>
  <path d="M624.763184 554.490005C624.763184 528.478424,614.428589 503.535324,596.037018 485.143753C577.645447 466.752182,552.702347 456.417587,526.690765 456.417587C500.679184 456.417587,475.736084 466.752182,457.344513 485.143753C438.952942 503.535324,428.618347 528.478424,428.618347 554.490005C428.618347 580.501587,438.952942 605.444687,457.344513 623.836258C475.736084 642.227829,500.679184 652.562424,526.690765 652.562424C552.702347 652.562424,577.645447 642.227829,596.037018 623.836258C614.428589 605.444687,624.763184 580.501587,624.763184 554.490005Z" style="stroke:rgb(25.500488%,41.000366%,88.400269%); stroke-width: 2.500000;stroke-linecap: round;stroke-linejoin: round;stroke-miterlimit: 10.000000;fill: none;"></path>
  <path d="M784.743988 496.292755C784.743988 470.281174,774.409393 445.338074,756.017822 426.946503C737.626251 408.554932,712.683151 398.220337,686.671570 398.220337C660.659988 398.220337,635.716888 408.554932,617.325317 426.946503C598.933746 445.338074,588.599152 470.281174,588.599152 496.292755C588.599152 522.304337,598.933746 547.247437,617.325317 565.639008C635.716888 584.030579,660.659988 594.365173,686.671570 594.365173C712.683151 594.365173,737.626251 584.030579,756.017822 565.639008C774.409393 547.247437,784.743988 522.304337,784.743988 496.292755Z" style="stroke:rgb(25.500488%,41.000366%,88.400269%); stroke-width: 2.500000;stroke-linecap: round;stroke-linejoin: round;stroke-miterlimit: 10.000000;fill: none;"></path>
  <path d="M941.415909 446.841309C941.415909 420.829727,931.081314 395.886627,912.689743 377.495056C894.298172 359.103485,869.355072 348.768890,843.343491 348.768890C817.331909 348.768890,792.388809 359.103485,773.997238 377.495056C755.605667 395.886627,745.271072 420.829727,745.271072 446.841309C745.271072 472.852890,755.605667 497.795990,773.997238 516.187561C792.388809 534.579132,817.331909 544.913727,843.343491 544.913727C869.355072 544.913727,894.298172 534.579132,912.689743 516.187561C931.081314 497.795990,941.415909 472.852890,941.415909 446.841309Z" style="stroke:rgb(25.500488%,41.000366%,88.400269%); stroke-width: 2.500000;stroke-linecap: round;stroke-linejoin: round;stroke-miterlimit: 10.000000;fill: none;"></path>
  <path d="M1097.036789 402.216934C1097.036789 376.205353,1086.702194 351.262253,1068.310623 332.870682C1049.919052 314.479111,1024.975952 304.144516,998.964371 304.144516C972.952789 304.144516,948.009689 314.479111,929.618118 332.870682C911.226547 351.262253,900.891953 376.205353,900.891953 402.216934C900.891953 428.228516,911.226547 453.171616,929.618118 471.563187C948.009689 489.954758,972.952789 500.289352,998.964371 500.289352C1024.975952 500.289352,1049.919052 489.954758,1068.310623 471.563187C1086.702194 453.171616,1097.036789 428.228516,1097.036789 402.216934Z" style="stroke:rgb(25.500488%,41.000366%,88.400269%); stroke-width: 2.500000;stroke-linecap: round;stroke-linejoin: round;stroke-miterlimit: 10.000000;fill: none;"></path>
  <path d="M1257.290085 341.696991C1257.290085 315.685410,1246.955490 290.742310,1228.563919 272.350739C1210.172348 253.959167,1185.229248 243.624573,1159.217667 243.624573C1133.206085 243.624573,1108.262985 253.959167,1089.871414 272.350739C1071.479843 290.742310,1061.145248 315.685410,1061.145248 341.696991C1061.145248 367.708572,1071.479843 392.651672,1089.871414 411.043243C1108.262985 429.434814,1133.206085 439.769409,1159.217667 439.769409C1185.229248 439.769409,1210.172348 429.434814,1228.563919 411.043243C1246.955490 392.651672,1257.290085 367.708572,1257.290085 341.696991Z" style="stroke:rgb(25.500488%,41.000366%,88.400269%); stroke-width: 2.500000;stroke-linecap: round;stroke-linejoin: round;stroke-miterlimit: 10.000000;fill: none;"></path>
  <path d="M1406.267258 267.111084C1406.267258 241.099503,1395.932663 216.156403,1377.541092 197.764832C1359.149521 179.373260,1334.206421 169.038666,1308.194839 169.038666C1282.183258 169.038666,1257.240158 179.373260,1238.848587 197.764832C1220.457016 216.156403,1210.122421 241.099503,1210.122421 267.111084C1210.122421 293.122665,1220.457016 318.065765,1238.848587 336.457336C1257.240158 354.848907,1282.183258 365.183502,1308.194839 365.183502C1334.206421 365.183502,1359.149521 354.848907,1377.541092 336.457336C1395.932663 318.065765,1406.267258 293.122665,1406.267258 267.111084Z" style="stroke:rgb(25.500488%,41.000366%,88.400269%); stroke-width: 2.500000;stroke-linecap: round;stroke-linejoin: round;stroke-miterlimit: 10.000000;fill: none;"></path>
  <path d="M1534.885117 319.014984C1534.885117 293.003403,1524.550522 268.060303,1506.158951 249.668732C1487.767380 231.277161,1462.824280 220.942566,1436.812698 220.942566C1410.801117 220.942566,1385.858017 231.277161,1367.466446 249.668732C1349.074875 268.060303,1338.740280 293.003403,1338.740280 319.014984C1338.740280 345.026566,1349.074875 369.969666,1367.466446 388.361237C1385.858017 406.752808,1410.801117 417.087402,1436.812698 417.087402C1462.824280 417.087402,1487.767380 406.752808,1506.158951 388.361237C1524.550522 369.969666,1534.885117 345.026566,1534.885117 319.014984Z" style="stroke:rgb(25.500488%,41.000366%,88.400269%); stroke-width: 2.500000;stroke-linecap: round;stroke-linejoin: round;stroke-miterlimit: 10.000000;fill: none;"></path>
  <path d="M349.244293 493.152573C349.244293 467.140991,338.909698 442.197891,320.518127 423.806320C302.126556 405.414749,277.183456 395.080154,251.171875 395.080154C225.160294 395.080154,200.217194 405.414749,181.825623 423.806320C163.434052 442.197891,153.099457 467.140991,153.099457 493.152573C153.099457 519.164154,163.434052 544.107254,181.825623 562.498825C200.217194 580.890396,225.160294 591.224991,251.171875 591.224991C277.183456 591.224991,302.126556 580.890396,320.518127 562.498825C338.909698 544.107254,349.244293 519.164154,349.244293 493.152573Z" style="stroke:rgb(25.500488%,41.000366%,88.400269%); stroke-width: 2.500000;stroke-linecap: round;stroke-linejoin: round;stroke-miterlimit: 10.000000;fill: none;"></path>
  <path d="M513.675858 439.354172C513.675858 413.342590,503.341263 388.399490,484.949692 370.007919C466.558121 351.616348,441.615021 341.281754,415.603439 341.281754C389.591858 341.281754,364.648758 351.616348,346.257187 370.007919C327.865616 388.399490,317.531021 413.342590,317.531021 439.354172C317.531021 465.365753,327.865616 490.308853,346.257187 508.700424C364.648758 527.091995,389.591858 537.426590,415.603439 537.426590C441.615021 537.426590,466.558121 527.091995,484.949692 508.700424C503.341263 490.308853,513.675858 465.365753,513.675858 439.354172Z" style="stroke:rgb(25.500488%,41.000366%,88.400269%); stroke-width: 2.500000;stroke-linecap: round;stroke-linejoin: round;stroke-miterlimit: 10.000000;fill: none;"></path>
  <path d="M671.022537 382.999512C671.022537 356.987930,660.687943 332.044830,642.296371 313.653259C623.904800 295.261688,598.961700 284.927094,572.950119 284.927094C546.938538 284.927094,521.995438 295.261688,503.603867 313.653259C485.212296 332.044830,474.877701 356.987930,474.877701 382.999512C474.877701 409.011093,485.212296 433.954193,503.603867 452.345764C521.995438 470.737335,546.938538 481.071930,572.950119 481.071930C598.961700 481.071930,623.904800 470.737335,642.296371 452.345764C660.687943 433.954193,671.022537 409.011093,671.022537 382.999512Z" style="stroke:rgb(25.500488%,41.000366%,88.400269%); stroke-width: 2.500000;stroke-linecap: round;stroke-linejoin: round;stroke-miterlimit: 10.000000;fill: none;"></path>
  <path d="M820.713394 325.957123C820.713394 299.945541,810.378799 275.002441,791.987228 256.610870C773.595657 238.219299,748.652557 227.884705,722.640976 227.884705C696.629395 227.884705,671.686295 238.219299,653.294724 256.610870C634.903152 275.002441,624.568558 299.945541,624.568558 325.957123C624.568558 351.968704,634.903152 376.911804,653.294724 395.303375C671.686295 413.694946,696.629395 424.029541,722.640976 424.029541C748.652557 424.029541,773.595657 413.694946,791.987228 395.303375C810.378799 376.911804,820.713394 351.968704,820.713394 325.957123Z" style="stroke:rgb(25.500488%,41.000366%,88.400269%); stroke-width: 2.500000;stroke-linecap: round;stroke-linejoin: round;stroke-miterlimit: 10.000000;fill: none;"></path>
  <path d="M963.955185 281.735001C963.955185 255.723419,953.620590 230.780319,935.229019 212.388748C916.837448 193.997177,891.894348 183.662582,865.882767 183.662582C839.871185 183.662582,814.928085 193.997177,796.536514 212.388748C778.144943 230.780319,767.810349 255.723419,767.810349 281.735001C767.810349 307.746582,778.144943 332.689682,796.536514 351.081253C814.928085 369.472824,839.871185 379.807419,865.882767 379.807419C891.894348 379.807419,916.837448 369.472824,935.229019 351.081253C953.620590 332.689682,963.955185 307.746582,963.955185 281.735001Z" style="stroke:rgb(25.500488%,41.000366%,88.400269%); stroke-width: 2.500000;stroke-linecap: round;stroke-linejoin: round;stroke-miterlimit: 10.000000;fill: none;"></path>
  <path d="M1104.640701 246.479279C1104.640701 220.467697,1094.306107 195.524597,1075.914536 177.133026C1057.522964 158.741455,1032.579865 148.406860,1006.568283 148.406860C980.556702 148.406860,955.613602 158.741455,937.222031 177.133026C918.830460 195.524597,908.495865 220.467697,908.495865 246.479279C908.495865 272.490860,918.830460 297.433960,937.222031 315.825531C955.613602 334.217102,980.556702 344.551697,1006.568283 344.551697C1032.579865 344.551697,1057.522964 334.217102,1075.914536 315.825531C1094.306107 297.433960,1104.640701 272.490860,1104.640701 246.479279Z" style="stroke:rgb(25.500488%,41.000366%,88.400269%); stroke-width: 2.500000;stroke-linecap: round;stroke-linejoin: round;stroke-miterlimit: 10.000000;fill: none;"></path>
  <path d="M1273.094818 193.718964C1273.094818 167.707382,1262.760223 142.764282,1244.368652 124.372711C1225.977081 105.981140,1201.033981 95.646545,1175.022400 95.646545C1149.010818 95.646545,1124.067719 105.981140,1105.676147 124.372711C1087.284576 142.764282,1076.949982 167.707382,1076.949982 193.718964C1076.949982 219.730545,1087.284576 244.673645,1105.676147 263.065216C1124.067719 281.456787,1149.010818 291.791382,1175.022400 291.791382C1201.033981 291.791382,1225.977081 281.456787,1244.368652 263.065216C1262.760223 244.673645,1273.094818 219.730545,1273.094818 193.718964Z" style="stroke:rgb(25.500488%,41.000366%,88.400269%); stroke-width: 2.500000;stroke-linecap: round;stroke-linejoin: round;stroke-miterlimit: 10.000000;fill: none;"></path>
  <path d="M408.505569 324.620605C408.505569 298.609024,398.170975 273.665924,379.779404 255.274353C361.387833 236.882782,336.444733 226.548187,310.433151 226.548187C284.421570 226.548187,259.478470 236.882782,241.086899 255.274353C222.695328 273.665924,212.360733 298.609024,212.360733 324.620605C212.360733 350.632187,222.695328 375.575287,241.086899 393.966858C259.478470 412.358429,284.421570 422.693024,310.433151 422.693024C336.444733 422.693024,361.387833 412.358429,379.779404 393.966858C398.170975 375.575287,408.505569 350.632187,408.505569 324.620605Z" style="stroke:rgb(25.500488%,41.000366%,88.400269%); stroke-width: 2.500000;stroke-linecap: round;stroke-linejoin: round;stroke-miterlimit: 10.000000;fill: none;"></path>
  <path d="M555.458496 266.721802C555.458496 240.710220,545.123901 215.767120,526.732330 197.375549C508.340759 178.983978,483.397659 168.649384,457.386078 168.649384C431.374496 168.649384,406.431396 178.983978,388.039825 197.375549C369.648254 215.767120,359.313660 240.710220,359.313660 266.721802C359.313660 292.733383,369.648254 317.676483,388.039825 336.068054C406.431396 354.459625,431.374496 364.794220,457.386078 364.794220C483.397659 364.794220,508.340759 354.459625,526.732330 336.068054C545.123901 317.676483,555.458496 292.733383,555.458496 266.721802Z" style="stroke:rgb(25.500488%,41.000366%,88.400269%); stroke-width: 2.500000;stroke-linecap: round;stroke-linejoin: round;stroke-miterlimit: 10.000000;fill: none;"></path>
  <path d="M699.491821 207.071243C699.491821 181.059662,689.157227 156.116562,670.765656 137.724991C652.374084 119.333420,627.430984 108.998825,601.419403 108.998825C575.407822 108.998825,550.464722 119.333420,532.073151 137.724991C513.681580 156.116562,503.346985 181.059662,503.346985 207.071243C503.346985 233.082825,513.681580 258.025925,532.073151 276.417496C550.464722 294.809067,575.407822 305.143661,601.419403 305.143661C627.430984 305.143661,652.374084 294.809067,670.765656 276.417496C689.157227 258.025925,699.491821 233.082825,699.491821 207.071243Z" style="stroke:rgb(25.500488%,41.000366%,88.400269%); stroke-width: 2.500000;stroke-linecap: round;stroke-linejoin: round;stroke-miterlimit: 10.000000;fill: none;"></path>
  <path d="M842.694687 150.340271C842.694687 124.328690,832.360092 99.385590,813.968521 80.994019C795.576950 62.602448,770.633850 52.267853,744.622269 52.267853C718.610687 52.267853,693.667587 62.602448,675.276016 80.994019C656.884445 99.385590,646.549850 124.328690,646.549850 150.340271C646.549850 176.351852,656.884445 201.294952,675.276016 219.686523C693.667587 238.078094,718.610687 248.412689,744.622269 248.412689C770.633850 248.412689,795.576950 238.078094,813.968521 219.686523C832.360092 201.294952,842.694687 176.351852,842.694687 150.340271Z" style="stroke:rgb(25.500488%,41.000366%,88.400269%); stroke-width: 2.500000;stroke-linecap: round;stroke-linejoin: round;stroke-miterlimit: 10.000000;fill: none;"></path>
  <path d="M974.751190 112.139008C974.751190 86.127426,964.416595 61.184326,946.025024 42.792755C927.633453 24.401184,902.690353 14.066589,876.678772 14.066589C850.667191 14.066589,825.724091 24.401184,807.332520 42.792755C788.940948 61.184326,778.606354 86.127426,778.606354 112.139008C778.606354 138.150589,788.940948 163.093689,807.332520 181.485260C825.724091 199.876831,850.667191 210.211426,876.678772 210.211426C902.690353 210.211426,927.633453 199.876831,946.025024 181.485260C964.416595 163.093689,974.751190 138.150589,974.751190 112.139008Z" style="stroke:rgb(25.500488%,41.000366%,88.400269%); stroke-width: 2.500000;stroke-linecap: round;stroke-linejoin: round;stroke-miterlimit: 10.000000;fill: none;"></path>
  <path d="M1120.263779 98.618042C1120.263779 72.606461,1109.929184 47.663361,1091.537613 29.271790C1073.146042 10.880219,1048.202942 0.545624,1022.191360 0.545624C996.179779 0.545624,971.236679 10.880219,952.845108 29.271790C934.453537 47.663361,924.118942 72.606461,924.118942 98.618042C924.118942 124.629623,934.453537 149.572723,952.845108 167.964294C971.236679 186.355865,996.179779 196.690460,1022.191360 196.690460C1048.202942 196.690460,1073.146042 186.355865,1091.537613 167.964294C1109.929184 149.572723,1120.263779 124.629623,1120.263779 98.618042Z" style="stroke:rgb(25.500488%,41.000366%,88.400269%); stroke-width: 2.500000;stroke-linecap: round;stroke-linejoin: round;stroke-miterlimit: 10.000000;fill: none;"></path>
</svg>
