<?xml version="1.0"?>
<!-- Created by MetaPost 2.00 on 2022.03.02:1201 -->
<svg version="1.1" xmlns="http://www.w3.org/2000/svg" xmlns:xlink="http://www.w3.org/1999/xlink" width="1801.683884" height="1798.907028" viewBox="0 0 1801.683884 1798.907028">
<!-- Original BoundingBox: -878.270233 -901.250687 923.413651 897.656342 -->
  <path d="M1728.393524 897.000000L1565.986221 397.152451L1140.789459 88.233398L615.210541 88.233398L190.013779 397.152451L27.606476 897.000000L190.013779 1396.847549L615.210541 1705.766602L1140.789459 1705.766602L1565.986221 1396.847549L1728.393524 897.000000Z" style="fill: rgb(100.000000%,100.000000%,100.000000%);stroke: none;"></path>
  <path d="M1728.393524 897.000000L1565.986221 397.152451" style="stroke:rgb(0.000000%,0.000000%,0.000000%); stroke-width: 2.500000;stroke-linecap: round;stroke-linejoin: round;stroke-miterlimit: 10.000000;fill: none;"></path>
  <path d="M1565.986221 397.152451L1140.789459 88.233398" style="stroke:rgb(0.000000%,0.000000%,0.000000%); stroke-width: 2.500000;stroke-linecap: round;stroke-linejoin: round;stroke-miterlimit: 10.000000;fill: none;"></path>
  <path d="M1140.789459 88.233398L615.210541 88.233398" style="stroke:rgb(0.000000%,0.000000%,0.000000%); stroke-width: 2.500000;stroke-linecap: round;stroke-linejoin: round;stroke-miterlimit: 10.000000;fill: none;"></path>
  <path d="M615.210541 88.233398L190.013779 397.152451" style="stroke:rgb(0.000000%,0.000000%,0.000000%); stroke-width: 2.500000;stroke-linecap: round;stroke-linejoin: round;stroke-miterlimit: 10.000000;fill: none;"></path>
  <path d="M190.013779 397.152451L27.606476 897.000000" style="stroke:rgb(0.000000%,0.000000%,0.000000%); stroke-width: 2.500000;stroke-linecap: round;stroke-linejoin: round;stroke-miterlimit: 10.000000;fill: none;"></path>
  <path d="M27.606476 897.000000L190.013779 1396.847549" style="stroke:rgb(0.000000%,0.000000%,0.000000%); stroke-width: 2.500000;stroke-linecap: round;stroke-linejoin: round;stroke-miterlimit: 10.000000;fill: none;"></path>
  <path d="M190.013779 1396.847549L615.210541 1705.766602" style="stroke:rgb(0.000000%,0.000000%,0.000000%); stroke-width: 2.500000;stroke-linecap: round;stroke-linejoin: round;stroke-miterlimit: 10.000000;fill: none;"></path>
  <path d="M615.210541 1705.766602L1140.789459 1705.766602" style="stroke:rgb(0.000000%,0.000000%,0.000000%); stroke-width: 2.500000;stroke-linecap: round;stroke-linejoin: round;stroke-miterlimit: 10.000000;fill: none;"></path>
  <path d="M1140.789459 1705.766602L1565.986221 1396.847549" style="stroke:rgb(0.000000%,0.000000%,0.000000%); stroke-width: 2.500000;stroke-linecap: round;stroke-linejoin: round;stroke-miterlimit: 10.000000;fill: none;"></path>
  <path d="M1565.986221 1396.847549L1728.393524 897.000000" style="stroke:rgb(0.000000%,0.000000%,0.000000%); stroke-width: 2.500000;stroke-linecap: round;stroke-linejoin: round;stroke-miterlimit: 10.000000;fill: none;"></path>
  <path d="M822.203308 1673.456421C822.203308 1640.688995,809.184555 1609.267548,786.016235 1586.099228C762.847916 1562.930908,731.426468 1549.912155,698.659042 1549.912155C665.891617 1549.912155,634.470169 1562.930908,611.301849 1586.099228C588.133530 1609.267548,575.114777 1640.688995,575.114777 1673.456421C575.114777 1706.223846,588.133530 1737.645294,611.301849 1760.813614C634.470169 1783.981934,665.891617 1797.000687,698.659042 1797.000687C731.426468 1797.000687,762.847916 1783.981934,786.016235 1760.813614C809.184555 1737.645294,822.203308 1706.223846,822.203308 1673.456421Z" style="stroke:rgb(25.500488%,41.000366%,88.400269%); stroke-width: 2.500000;stroke-linecap: round;stroke-linejoin: round;stroke-miterlimit: 10.000000;fill: none;"></path>
  <path d="M1049.282883 1645.506165C1049.282883 1612.738739,1036.264130 1581.317291,1013.095810 1558.148972C989.927490 1534.980652,958.506042 1521.961899,925.738617 1521.961899C892.971191 1521.961899,861.549744 1534.980652,838.381424 1558.148972C815.213104 1581.317291,802.194351 1612.738739,802.194351 1645.506165C802.194351 1678.273590,815.213104 1709.695038,838.381424 1732.863358C861.549744 1756.031677,892.971191 1769.050430,925.738617 1769.050430C958.506042 1769.050430,989.927490 1756.031677,1013.095810 1732.863358C1036.264130 1709.695038,1049.282883 1678.273590,1049.282883 1645.506165Z" style="stroke:rgb(25.500488%,41.000366%,88.400269%); stroke-width: 2.500000;stroke-linecap: round;stroke-linejoin: round;stroke-miterlimit: 10.000000;fill: none;"></path>
  <path d="M1238.524506 1612.819687C1238.524506 1580.052261,1225.505753 1548.630814,1202.337433 1525.462494C1179.169113 1502.294174,1147.747665 1489.275421,1114.980240 1489.275421C1082.212814 1489.275421,1050.791367 1502.294174,1027.623047 1525.462494C1004.454727 1548.630814,991.435974 1580.052261,991.435974 1612.819687C991.435974 1645.587112,1004.454727 1677.008560,1027.623047 1700.176880C1050.791367 1723.345200,1082.212814 1736.363953,1114.980240 1736.363953C1147.747665 1736.363953,1179.169113 1723.345200,1202.337433 1700.176880C1225.505753 1677.008560,1238.524506 1645.587112,1238.524506 1612.819687Z" style="stroke:rgb(25.500488%,41.000366%,88.400269%); stroke-width: 2.500000;stroke-linecap: round;stroke-linejoin: round;stroke-miterlimit: 10.000000;fill: none;"></path>
  <path d="M1409.197510 1523.168671C1409.197510 1490.401245,1396.178757 1458.979797,1373.010437 1435.811478C1349.842117 1412.643158,1318.420670 1399.624405,1285.653244 1399.624405C1252.885818 1399.624405,1221.464371 1412.643158,1198.296051 1435.811478C1175.127731 1458.979797,1162.108978 1490.401245,1162.108978 1523.168671C1162.108978 1555.936096,1175.127731 1587.357544,1198.296051 1610.525864C1221.464371 1633.694183,1252.885818 1646.712936,1285.653244 1646.712936C1318.420670 1646.712936,1349.842117 1633.694183,1373.010437 1610.525864C1396.178757 1587.357544,1409.197510 1555.936096,1409.197510 1523.168671Z" style="stroke:rgb(25.500488%,41.000366%,88.400269%); stroke-width: 2.500000;stroke-linecap: round;stroke-linejoin: round;stroke-miterlimit: 10.000000;fill: none;"></path>
  <path d="M1606.678879 1412.652283C1606.678879 1379.884857,1593.660126 1348.463409,1570.491806 1325.295090C1547.323486 1302.126770,1515.902039 1289.108017,1483.134613 1289.108017C1450.367188 1289.108017,1418.945740 1302.126770,1395.777420 1325.295090C1372.609100 1348.463409,1359.590347 1379.884857,1359.590347 1412.652283C1359.590347 1445.419708,1372.609100 1476.841156,1395.777420 1500.009476C1418.945740 1523.177795,1450.367188 1536.196548,1483.134613 1536.196548C1515.902039 1536.196548,1547.323486 1523.177795,1570.491806 1500.009476C1593.660126 1476.841156,1606.678879 1445.419708,1606.678879 1412.652283Z" style="stroke:rgb(25.500488%,41.000366%,88.400269%); stroke-width: 2.500000;stroke-linecap: round;stroke-linejoin: round;stroke-miterlimit: 10.000000;fill: none;"></path>
  <path d="M659.731125 1559.436523C659.731125 1526.669098,646.712372 1495.247650,623.544052 1472.079330C600.375732 1448.911011,568.954285 1435.892258,536.186859 1435.892258C503.419434 1435.892258,471.997986 1448.911011,448.829666 1472.079330C425.661346 1495.247650,412.642593 1526.669098,412.642593 1559.436523C412.642593 1592.203949,425.661346 1623.625397,448.829666 1646.793716C471.997986 1669.962036,503.419434 1682.980789,536.186859 1682.980789C568.954285 1682.980789,600.375732 1669.962036,623.544052 1646.793716C646.712372 1623.625397,659.731125 1592.203949,659.731125 1559.436523Z" style="stroke:rgb(25.500488%,41.000366%,88.400269%); stroke-width: 2.500000;stroke-linecap: round;stroke-linejoin: round;stroke-miterlimit: 10.000000;fill: none;"></path>
  <path d="M878.350357 1500.979752C878.350357 1468.212326,865.331604 1436.790878,842.163284 1413.622559C818.994965 1390.454239,787.573517 1377.435486,754.806091 1377.435486C722.038666 1377.435486,690.617218 1390.454239,667.448898 1413.622559C644.280579 1436.790878,631.261826 1468.212326,631.261826 1500.979752C631.261826 1533.747177,644.280579 1565.168625,667.448898 1588.336945C690.617218 1611.505264,722.038666 1624.524017,754.806091 1624.524017C787.573517 1624.524017,818.994965 1611.505264,842.163284 1588.336945C865.331604 1565.168625,878.350357 1533.747177,878.350357 1500.979752Z" style="stroke:rgb(25.500488%,41.000366%,88.400269%); stroke-width: 2.500000;stroke-linecap: round;stroke-linejoin: round;stroke-miterlimit: 10.000000;fill: none;"></path>
  <path d="M1086.822372 1447.843124C1086.822372 1415.075699,1073.803619 1383.654251,1050.635300 1360.485931C1027.466980 1337.317612,996.045532 1324.298859,963.278107 1324.298859C930.510681 1324.298859,899.089233 1337.317612,875.920914 1360.485931C852.752594 1383.654251,839.733841 1415.075699,839.733841 1447.843124C839.733841 1480.610550,852.752594 1512.031998,875.920914 1535.200317C899.089233 1558.368637,930.510681 1571.387390,963.278107 1571.387390C996.045532 1571.387390,1027.466980 1558.368637,1050.635300 1535.200317C1073.803619 1512.031998,1086.822372 1480.610550,1086.822372 1447.843124Z" style="stroke:rgb(25.500488%,41.000366%,88.400269%); stroke-width: 2.500000;stroke-linecap: round;stroke-linejoin: round;stroke-miterlimit: 10.000000;fill: none;"></path>
  <path d="M1265.280960 1389.645889C1265.280960 1356.878464,1252.262207 1325.457016,1229.093887 1302.288696C1205.925568 1279.120377,1174.504120 1266.101624,1141.736694 1266.101624C1108.969269 1266.101624,1077.547821 1279.120377,1054.379501 1302.288696C1031.211182 1325.457016,1018.192429 1356.878464,1018.192429 1389.645889C1018.192429 1422.413315,1031.211182 1453.834763,1054.379501 1477.003082C1077.547821 1500.171402,1108.969269 1513.190155,1141.736694 1513.190155C1174.504120 1513.190155,1205.925568 1500.171402,1229.093887 1477.003082C1252.262207 1453.834763,1265.280960 1422.413315,1265.280960 1389.645889Z" style="stroke:rgb(25.500488%,41.000366%,88.400269%); stroke-width: 2.500000;stroke-linecap: round;stroke-linejoin: round;stroke-miterlimit: 10.000000;fill: none;"></path>
  <path d="M1462.788284 1302.875534C1462.788284 1270.108109,1449.769531 1238.686661,1426.601212 1215.518341C1403.432892 1192.350021,1372.011444 1179.331268,1339.244019 1179.331268C1306.476593 1179.331268,1275.055145 1192.350021,1251.886826 1215.518341C1228.718506 1238.686661,1215.699753 1270.108109,1215.699753 1302.875534C1215.699753 1335.642960,1228.718506 1367.064407,1251.886826 1390.232727C1275.055145 1413.401047,1306.476593 1426.419800,1339.244019 1426.419800C1372.011444 1426.419800,1403.432892 1413.401047,1426.601212 1390.232727C1449.769531 1367.064407,1462.788284 1335.642960,1462.788284 1302.875534Z" style="stroke:rgb(25.500488%,41.000366%,88.400269%); stroke-width: 2.500000;stroke-linecap: round;stroke-linejoin: round;stroke-miterlimit: 10.000000;fill: none;"></path>
  <path d="M1671.701492 1223.112213C1671.701492 1190.344788,1658.682739 1158.923340,1635.514420 1135.755020C1612.346100 1112.586700,1580.924652 1099.567947,1548.157227 1099.567947C1515.389801 1099.567947,1483.968353 1112.586700,1460.800034 1135.755020C1437.631714 1158.923340,1424.612961 1190.344788,1424.612961 1223.112213C1424.612961 1255.879639,1437.631714 1287.301086,1460.800034 1310.469406C1483.968353 1333.637726,1515.389801 1346.656479,1548.157227 1346.656479C1580.924652 1346.656479,1612.346100 1333.637726,1635.514420 1310.469406C1658.682739 1287.301086,1671.701492 1255.879639,1671.701492 1223.112213Z" style="stroke:rgb(25.500488%,41.000366%,88.400269%); stroke-width: 2.500000;stroke-linecap: round;stroke-linejoin: round;stroke-miterlimit: 10.000000;fill: none;"></path>
  <path d="M500.866257 1440.200287C500.866257 1407.432861,487.847504 1376.011414,464.679184 1352.843094C441.510864 1329.674774,410.089417 1316.656021,377.321991 1316.656021C344.554565 1316.656021,313.133118 1329.674774,289.964798 1352.843094C266.796478 1376.011414,253.777725 1407.432861,253.777725 1440.200287C253.777725 1472.967712,266.796478 1504.389160,289.964798 1527.557480C313.133118 1550.725800,344.554565 1563.744553,377.321991 1563.744553C410.089417 1563.744553,441.510864 1550.725800,464.679184 1527.557480C487.847504 1504.389160,500.866257 1472.967712,500.866257 1440.200287Z" style="stroke:rgb(25.500488%,41.000366%,88.400269%); stroke-width: 2.500000;stroke-linecap: round;stroke-linejoin: round;stroke-miterlimit: 10.000000;fill: none;"></path>
  <path d="M708.144485 1368.495041C708.144485 1335.727615,695.125732 1304.306168,671.957413 1281.137848C648.789093 1257.969528,617.367645 1244.950775,584.600220 1244.950775C551.832794 1244.950775,520.411346 1257.969528,497.243027 1281.137848C474.074707 1304.306168,461.055954 1335.727615,461.055954 1368.495041C461.055954 1401.262466,474.074707 1432.683914,497.243027 1455.852234C520.411346 1479.020554,551.832794 1492.039307,584.600220 1492.039307C617.367645 1492.039307,648.789093 1479.020554,671.957413 1455.852234C695.125732 1432.683914,708.144485 1401.262466,708.144485 1368.495041Z" style="stroke:rgb(25.500488%,41.000366%,88.400269%); stroke-width: 2.500000;stroke-linecap: round;stroke-linejoin: round;stroke-miterlimit: 10.000000;fill: none;"></path>
  <path d="M919.497177 1301.746628C919.497177 1268.979202,906.478424 1237.557755,883.310104 1214.389435C860.141785 1191.221115,828.720337 1178.202362,795.952911 1178.202362C763.185486 1178.202362,731.764038 1191.221115,708.595718 1214.389435C685.427399 1237.557755,672.408646 1268.979202,672.408646 1301.746628C672.408646 1334.514053,685.427399 1365.935501,708.595718 1389.103821C731.764038 1412.272141,763.185486 1425.290894,795.952911 1425.290894C828.720337 1425.290894,860.141785 1412.272141,883.310104 1389.103821C906.478424 1365.935501,919.497177 1334.514053,919.497177 1301.746628Z" style="stroke:rgb(25.500488%,41.000366%,88.400269%); stroke-width: 2.500000;stroke-linecap: round;stroke-linejoin: round;stroke-miterlimit: 10.000000;fill: none;"></path>
  <path d="M1123.751999 1244.405792C1123.751999 1211.638367,1110.733246 1180.216919,1087.564926 1157.048599C1064.396606 1133.880280,1032.975159 1120.861526,1000.207733 1120.861526C967.440308 1120.861526,936.018860 1133.880280,912.850540 1157.048599C889.682220 1180.216919,876.663467 1211.638367,876.663467 1244.405792C876.663467 1277.173218,889.682220 1308.594666,912.850540 1331.762985C936.018860 1354.931305,967.440308 1367.950058,1000.207733 1367.950058C1032.975159 1367.950058,1064.396606 1354.931305,1087.564926 1331.762985C1110.733246 1308.594666,1123.751999 1277.173218,1123.751999 1244.405792Z" style="stroke:rgb(25.500488%,41.000366%,88.400269%); stroke-width: 2.500000;stroke-linecap: round;stroke-linejoin: round;stroke-miterlimit: 10.000000;fill: none;"></path>
  <path d="M1319.611374 1169.248947C1319.611374 1136.481522,1306.592621 1105.060074,1283.424301 1081.891754C1260.255981 1058.723434,1228.834534 1045.704681,1196.067108 1045.704681C1163.299683 1045.704681,1131.878235 1058.723434,1108.709915 1081.891754C1085.541595 1105.060074,1072.522842 1136.481522,1072.522842 1169.248947C1072.522842 1202.016373,1085.541595 1233.437820,1108.709915 1256.606140C1131.878235 1279.774460,1163.299683 1292.793213,1196.067108 1292.793213C1228.834534 1292.793213,1260.255981 1279.774460,1283.424301 1256.606140C1306.592621 1233.437820,1319.611374 1202.016373,1319.611374 1169.248947Z" style="stroke:rgb(25.500488%,41.000366%,88.400269%); stroke-width: 2.500000;stroke-linecap: round;stroke-linejoin: round;stroke-miterlimit: 10.000000;fill: none;"></path>
  <path d="M1528.303986 1092.028915C1528.303986 1059.261490,1515.285233 1027.840042,1492.116913 1004.671722C1468.948593 981.503403,1437.527145 968.484650,1404.759720 968.484650C1371.992294 968.484650,1340.570847 981.503403,1317.402527 1004.671722C1294.234207 1027.840042,1281.215454 1059.261490,1281.215454 1092.028915C1281.215454 1124.796341,1294.234207 1156.217789,1317.402527 1179.386108C1340.570847 1202.554428,1371.992294 1215.573181,1404.759720 1215.573181C1437.527145 1215.573181,1468.948593 1202.554428,1492.116913 1179.386108C1515.285233 1156.217789,1528.303986 1124.796341,1528.303986 1092.028915Z" style="stroke:rgb(25.500488%,41.000366%,88.400269%); stroke-width: 2.500000;stroke-linecap: round;stroke-linejoin: round;stroke-miterlimit: 10.000000;fill: none;"></path>
  <path d="M1736.568390 1029.666367C1736.568390 996.898941,1723.549637 965.477493,1700.381317 942.309174C1677.212997 919.140854,1645.791550 906.122101,1613.024124 906.122101C1580.256699 906.122101,1548.835251 919.140854,1525.666931 942.309174C1502.498611 965.477493,1489.479858 996.898941,1489.479858 1029.666367C1489.479858 1062.433792,1502.498611 1093.855240,1525.666931 1117.023560C1548.835251 1140.191879,1580.256699 1153.210632,1613.024124 1153.210632C1645.791550 1153.210632,1677.212997 1140.191879,1700.381317 1117.023560C1723.549637 1093.855240,1736.568390 1062.433792,1736.568390 1029.666367Z" style="stroke:rgb(25.500488%,41.000366%,88.400269%); stroke-width: 2.500000;stroke-linecap: round;stroke-linejoin: round;stroke-miterlimit: 10.000000;fill: none;"></path>
  <path d="M380.150757 1319.679428C380.150757 1286.912003,367.132004 1255.490555,343.963684 1232.322235C320.795364 1209.153915,289.373917 1196.135162,256.606491 1196.135162C223.839066 1196.135162,192.417618 1209.153915,169.249298 1232.322235C146.080978 1255.490555,133.062225 1286.912003,133.062225 1319.679428C133.062225 1352.446854,146.080978 1383.868301,169.249298 1407.036621C192.417618 1430.204941,223.839066 1443.223694,256.606491 1443.223694C289.373917 1443.223694,320.795364 1430.204941,343.963684 1407.036621C367.132004 1383.868301,380.150757 1352.446854,380.150757 1319.679428Z" style="stroke:rgb(25.500488%,41.000366%,88.400269%); stroke-width: 2.500000;stroke-linecap: round;stroke-linejoin: round;stroke-miterlimit: 10.000000;fill: none;"></path>
  <path d="M557.804840 1230.287933C557.804840 1197.520508,544.786087 1166.099060,521.617767 1142.930740C498.449448 1119.762421,467.028000 1106.743668,434.260574 1106.743668C401.493149 1106.743668,370.071701 1119.762421,346.903381 1142.930740C323.735062 1166.099060,310.716309 1197.520508,310.716309 1230.287933C310.716309 1263.055359,323.735062 1294.476807,346.903381 1317.645126C370.071701 1340.813446,401.493149 1353.832199,434.260574 1353.832199C467.028000 1353.832199,498.449448 1340.813446,521.617767 1317.645126C544.786087 1294.476807,557.804840 1263.055359,557.804840 1230.287933Z" style="stroke:rgb(25.500488%,41.000366%,88.400269%); stroke-width: 2.500000;stroke-linecap: round;stroke-linejoin: round;stroke-miterlimit: 10.000000;fill: none;"></path>
  <path d="M765.705917 1163.630341C765.705917 1130.862915,752.687164 1099.441467,729.518845 1076.273148C706.350525 1053.104828,674.929077 1040.086075,642.161652 1040.086075C609.394226 1040.086075,577.972778 1053.104828,554.804459 1076.273148C531.636139 1099.441467,518.617386 1130.862915,518.617386 1163.630341C518.617386 1196.397766,531.636139 1227.819214,554.804459 1250.987534C577.972778 1274.155853,609.394226 1287.174606,642.161652 1287.174606C674.929077 1287.174606,706.350525 1274.155853,729.518845 1250.987534C752.687164 1227.819214,765.705917 1196.397766,765.705917 1163.630341Z" style="stroke:rgb(25.500488%,41.000366%,88.400269%); stroke-width: 2.500000;stroke-linecap: round;stroke-linejoin: round;stroke-miterlimit: 10.000000;fill: none;"></path>
  <path d="M973.425323 1093.248657C973.425323 1060.481232,960.406570 1029.059784,937.238251 1005.891464C914.069931 982.723145,882.648483 969.704391,849.881058 969.704391C817.113632 969.704391,785.692184 982.723145,762.523865 1005.891464C739.355545 1029.059784,726.336792 1060.481232,726.336792 1093.248657C726.336792 1126.016083,739.355545 1157.437531,762.523865 1180.605850C785.692184 1203.774170,817.113632 1216.792923,849.881058 1216.792923C882.648483 1216.792923,914.069931 1203.774170,937.238251 1180.605850C960.406570 1157.437531,973.425323 1126.016083,973.425323 1093.248657Z" style="stroke:rgb(25.500488%,41.000366%,88.400269%); stroke-width: 2.500000;stroke-linecap: round;stroke-linejoin: round;stroke-miterlimit: 10.000000;fill: none;"></path>
  <path d="M1170.400635 1028.589371C1170.400635 995.821945,1157.381882 964.400497,1134.213562 941.232178C1111.045242 918.063858,1079.623795 905.045105,1046.856369 905.045105C1014.088943 905.045105,982.667496 918.063858,959.499176 941.232178C936.330856 964.400497,923.312103 995.821945,923.312103 1028.589371C923.312103 1061.356796,936.330856 1092.778244,959.499176 1115.946564C982.667496 1139.114883,1014.088943 1152.133636,1046.856369 1152.133636C1079.623795 1152.133636,1111.045242 1139.114883,1134.213562 1115.946564C1157.381882 1092.778244,1170.400635 1061.356796,1170.400635 1028.589371Z" style="stroke:rgb(25.500488%,41.000366%,88.400269%); stroke-width: 2.500000;stroke-linecap: round;stroke-linejoin: round;stroke-miterlimit: 10.000000;fill: none;"></path>
  <path d="M1377.990295 959.790741C1377.990295 927.023315,1364.971542 895.601868,1341.803223 872.433548C1318.634903 849.265228,1287.213455 836.246475,1254.446030 836.246475C1221.678604 836.246475,1190.257156 849.265228,1167.088837 872.433548C1143.920517 895.601868,1130.901764 927.023315,1130.901764 959.790741C1130.901764 992.558167,1143.920517 1023.979614,1167.088837 1047.147934C1190.257156 1070.316254,1221.678604 1083.335007,1254.446030 1083.335007C1287.213455 1083.335007,1318.634903 1070.316254,1341.803223 1047.147934C1364.971542 1023.979614,1377.990295 992.558167,1377.990295 959.790741Z" style="stroke:rgb(25.500488%,41.000366%,88.400269%); stroke-width: 2.500000;stroke-linecap: round;stroke-linejoin: round;stroke-miterlimit: 10.000000;fill: none;"></path>
  <path d="M1588.265976 884.127838C1588.265976 851.360413,1575.247223 819.938965,1552.078903 796.770645C1528.910583 773.602325,1497.489136 760.583572,1464.721710 760.583572C1431.954285 760.583572,1400.532837 773.602325,1377.364517 796.770645C1354.196198 819.938965,1341.177444 851.360413,1341.177444 884.127838C1341.177444 916.895264,1354.196198 948.316711,1377.364517 971.485031C1400.532837 994.653351,1431.954285 1007.672104,1464.721710 1007.672104C1497.489136 1007.672104,1528.910583 994.653351,1552.078903 971.485031C1575.247223 948.316711,1588.265976 916.895264,1588.265976 884.127838Z" style="stroke:rgb(25.500488%,41.000366%,88.400269%); stroke-width: 2.500000;stroke-linecap: round;stroke-linejoin: round;stroke-miterlimit: 10.000000;fill: none;"></path>
  <path d="M1800.163651 834.339020C1800.163651 801.571594,1787.144897 770.150146,1763.976578 746.981827C1740.808258 723.813507,1709.386810 710.794754,1676.619385 710.794754C1643.851959 710.794754,1612.430511 723.813507,1589.262192 746.981827C1566.093872 770.150146,1553.075119 801.571594,1553.075119 834.339020C1553.075119 867.106445,1566.093872 898.527893,1589.262192 921.696213C1612.430511 944.864532,1643.851959 957.883286,1676.619385 957.883286C1709.386810 957.883286,1740.808258 944.864532,1763.976578 921.696213C1787.144897 898.527893,1800.163651 867.106445,1800.163651 834.339020Z" style="stroke:rgb(25.500488%,41.000366%,88.400269%); stroke-width: 2.500000;stroke-linecap: round;stroke-linejoin: round;stroke-miterlimit: 10.000000;fill: none;"></path>
  <path d="M248.068298 1141.817734C248.068298 1109.050308,235.049545 1077.628860,211.881226 1054.460541C188.712906 1031.292221,157.291458 1018.273468,124.524033 1018.273468C91.756607 1018.273468,60.335159 1031.292221,37.166840 1054.460541C13.998520 1077.628860,0.979767 1109.050308,0.979767 1141.817734C0.979767 1174.585159,13.998520 1206.006607,37.166840 1229.174927C60.335159 1252.343246,91.756607 1265.362000,124.524033 1265.362000C157.291458 1265.362000,188.712906 1252.343246,211.881226 1229.174927C235.049545 1206.006607,248.068298 1174.585159,248.068298 1141.817734Z" style="stroke:rgb(25.500488%,41.000366%,88.400269%); stroke-width: 2.500000;stroke-linecap: round;stroke-linejoin: round;stroke-miterlimit: 10.000000;fill: none;"></path>
  <path d="M413.875320 1087.941483C413.875320 1055.174057,400.856567 1023.752609,377.688248 1000.584290C354.519928 977.415970,323.098480 964.397217,290.331055 964.397217C257.563629 964.397217,226.142181 977.415970,202.973862 1000.584290C179.805542 1023.752609,166.786789 1055.174057,166.786789 1087.941483C166.786789 1120.708908,179.805542 1152.130356,202.973862 1175.298676C226.142181 1198.466995,257.563629 1211.485748,290.331055 1211.485748C323.098480 1211.485748,354.519928 1198.466995,377.688248 1175.298676C400.856567 1152.130356,413.875320 1120.708908,413.875320 1087.941483Z" style="stroke:rgb(25.500488%,41.000366%,88.400269%); stroke-width: 2.500000;stroke-linecap: round;stroke-linejoin: round;stroke-miterlimit: 10.000000;fill: none;"></path>
  <path d="M621.945084 1020.336639C621.945084 987.569214,608.926331 956.147766,585.758011 932.979446C562.589691 909.811127,531.168243 896.792374,498.400818 896.792374C465.633392 896.792374,434.211945 909.811127,411.043625 932.979446C387.875305 956.147766,374.856552 987.569214,374.856552 1020.336639C374.856552 1053.104065,387.875305 1084.525513,411.043625 1107.693832C434.211945 1130.862152,465.633392 1143.880905,498.400818 1143.880905C531.168243 1143.880905,562.589691 1130.862152,585.758011 1107.693832C608.926331 1084.525513,621.945084 1053.104065,621.945084 1020.336639Z" style="stroke:rgb(25.500488%,41.000366%,88.400269%); stroke-width: 2.500000;stroke-linecap: round;stroke-linejoin: round;stroke-miterlimit: 10.000000;fill: none;"></path>
  <path d="M829.158432 953.004303C829.158432 920.236877,816.139679 888.815430,792.971359 865.647110C769.803040 842.478790,738.381592 829.460037,705.614166 829.460037C672.846741 829.460037,641.425293 842.478790,618.256973 865.647110C595.088654 888.815430,582.069901 920.236877,582.069901 953.004303C582.069901 985.771729,595.088654 1017.193176,618.256973 1040.361496C641.425293 1063.529816,672.846741 1076.548569,705.614166 1076.548569C738.381592 1076.548569,769.803040 1063.529816,792.971359 1040.361496C816.139679 1017.193176,829.158432 985.771729,829.158432 953.004303Z" style="stroke:rgb(25.500488%,41.000366%,88.400269%); stroke-width: 2.500000;stroke-linecap: round;stroke-linejoin: round;stroke-miterlimit: 10.000000;fill: none;"></path>
  <path d="M1039.083755 884.802582C1039.083755 852.035156,1026.065002 820.613708,1002.896683 797.445389C979.728363 774.277069,948.306915 761.258316,915.539490 761.258316C882.772064 761.258316,851.350616 774.277069,828.182297 797.445389C805.013977 820.613708,791.995224 852.035156,791.995224 884.802582C791.995224 917.570007,805.013977 948.991455,828.182297 972.159775C851.350616 995.328094,882.772064 1008.346848,915.539490 1008.346848C948.306915 1008.346848,979.728363 995.328094,1002.896683 972.159775C1026.065002 948.991455,1039.083755 917.570007,1039.083755 884.802582Z" style="stroke:rgb(25.500488%,41.000366%,88.400269%); stroke-width: 2.500000;stroke-linecap: round;stroke-linejoin: round;stroke-miterlimit: 10.000000;fill: none;"></path>
  <path d="M1247.335190 817.132874C1247.335190 784.365448,1234.316437 752.944000,1211.148117 729.775681C1187.979797 706.607361,1156.558350 693.588608,1123.790924 693.588608C1091.023499 693.588608,1059.602051 706.607361,1036.433731 729.775681C1013.265411 752.944000,1000.246658 784.365448,1000.246658 817.132874C1000.246658 849.900299,1013.265411 881.321747,1036.433731 904.490067C1059.602051 927.658386,1091.023499 940.677139,1123.790924 940.677139C1156.558350 940.677139,1187.979797 927.658386,1211.148117 904.490067C1234.316437 881.321747,1247.335190 849.900299,1247.335190 817.132874Z" style="stroke:rgb(25.500488%,41.000366%,88.400269%); stroke-width: 2.500000;stroke-linecap: round;stroke-linejoin: round;stroke-miterlimit: 10.000000;fill: none;"></path>
  <path d="M1456.637680 749.125778C1456.637680 716.358353,1443.618927 684.936905,1420.450607 661.768585C1397.282288 638.600266,1365.860840 625.581512,1333.093414 625.581512C1300.325989 625.581512,1268.904541 638.600266,1245.736221 661.768585C1222.567902 684.936905,1209.549149 716.358353,1209.549149 749.125778C1209.549149 781.893204,1222.567902 813.314651,1245.736221 836.482971C1268.904541 859.651291,1300.325989 872.670044,1333.093414 872.670044C1365.860840 872.670044,1397.282288 859.651291,1420.450607 836.482971C1443.618927 813.314651,1456.637680 781.893204,1456.637680 749.125778Z" style="stroke:rgb(25.500488%,41.000366%,88.400269%); stroke-width: 2.500000;stroke-linecap: round;stroke-linejoin: round;stroke-miterlimit: 10.000000;fill: none;"></path>
  <path d="M1672.207550 679.094452C1672.207550 646.327026,1659.188797 614.905579,1636.020477 591.737259C1612.852158 568.568939,1581.430710 555.550186,1548.663284 555.550186C1515.895859 555.550186,1484.474411 568.568939,1461.306091 591.737259C1438.137772 614.905579,1425.119019 646.327026,1425.119019 679.094452C1425.119019 711.861877,1438.137772 743.283325,1461.306091 766.451645C1484.474411 789.619965,1515.895859 802.638718,1548.663284 802.638718C1581.430710 802.638718,1612.852158 789.619965,1636.020477 766.451645C1659.188797 743.283325,1672.207550 711.861877,1672.207550 679.094452Z" style="stroke:rgb(25.500488%,41.000366%,88.400269%); stroke-width: 2.500000;stroke-linecap: round;stroke-linejoin: round;stroke-miterlimit: 10.000000;fill: none;"></path>
  <path d="M250.378021 920.291870C250.378021 887.524445,237.359268 856.102997,214.190948 832.934677C191.022629 809.766357,159.601181 796.747604,126.833755 796.747604C94.066330 796.747604,62.644882 809.766357,39.476562 832.934677C16.308243 856.102997,3.289490 887.524445,3.289490 920.291870C3.289490 953.059296,16.308243 984.480743,39.476562 1007.649063C62.644882 1030.817383,94.066330 1043.836136,126.833755 1043.836136C159.601181 1043.836136,191.022629 1030.817383,214.190948 1007.649063C237.359268 984.480743,250.378021 953.059296,250.378021 920.291870Z" style="stroke:rgb(25.500488%,41.000366%,88.400269%); stroke-width: 2.500000;stroke-linecap: round;stroke-linejoin: round;stroke-miterlimit: 10.000000;fill: none;"></path>
  <path d="M446.652634 888.189316C446.652634 855.421890,433.633881 824.000443,410.465561 800.832123C387.297241 777.663803,355.875793 764.645050,323.108368 764.645050C290.340942 764.645050,258.919495 777.663803,235.751175 800.832123C212.582855 824.000443,199.564102 855.421890,199.564102 888.189316C199.564102 920.956741,212.582855 952.378189,235.751175 975.546509C258.919495 998.714828,290.340942 1011.733582,323.108368 1011.733582C355.875793 1011.733582,387.297241 998.714828,410.465561 975.546509C433.633881 952.378189,446.652634 920.956741,446.652634 888.189316Z" style="stroke:rgb(25.500488%,41.000366%,88.400269%); stroke-width: 2.500000;stroke-linecap: round;stroke-linejoin: round;stroke-miterlimit: 10.000000;fill: none;"></path>
  <path d="M654.034668 819.909729C654.034668 787.142303,641.015915 755.720856,617.847595 732.552536C594.679276 709.384216,563.257828 696.365463,530.490402 696.365463C497.722977 696.365463,466.301529 709.384216,443.133209 732.552536C419.964890 755.720856,406.946136 787.142303,406.946136 819.909729C406.946136 852.677155,419.964890 884.098602,443.133209 907.266922C466.301529 930.435242,497.722977 943.453995,530.490402 943.453995C563.257828 943.453995,594.679276 930.435242,617.847595 907.266922C641.015915 884.098602,654.034668 852.677155,654.034668 819.909729Z" style="stroke:rgb(25.500488%,41.000366%,88.400269%); stroke-width: 2.500000;stroke-linecap: round;stroke-linejoin: round;stroke-miterlimit: 10.000000;fill: none;"></path>
  <path d="M863.440964 754.757355C863.440964 721.989929,850.422211 690.568481,827.253891 667.400162C804.085571 644.231842,772.664124 631.213089,739.896698 631.213089C707.129272 631.213089,675.707825 644.231842,652.539505 667.400162C629.371185 690.568481,616.352432 721.989929,616.352432 754.757355C616.352432 787.524780,629.371185 818.946228,652.539505 842.114548C675.707825 865.282867,707.129272 878.301620,739.896698 878.301620C772.664124 878.301620,804.085571 865.282867,827.253891 842.114548C850.422211 818.946228,863.440964 787.524780,863.440964 754.757355Z" style="stroke:rgb(25.500488%,41.000366%,88.400269%); stroke-width: 2.500000;stroke-linecap: round;stroke-linejoin: round;stroke-miterlimit: 10.000000;fill: none;"></path>
  <path d="M1060.805542 691.291855C1060.805542 658.524429,1047.786789 627.102982,1024.618469 603.934662C1001.450150 580.766342,970.028702 567.747589,937.261276 567.747589C904.493851 567.747589,873.072403 580.766342,849.904083 603.934662C826.735764 627.102982,813.717010 658.524429,813.717010 691.291855C813.717010 724.059280,826.735764 755.480728,849.904083 778.649048C873.072403 801.817368,904.493851 814.836121,937.261276 814.836121C970.028702 814.836121,1001.450150 801.817368,1024.618469 778.649048C1047.786789 755.480728,1060.805542 724.059280,1060.805542 691.291855Z" style="stroke:rgb(25.500488%,41.000366%,88.400269%); stroke-width: 2.500000;stroke-linecap: round;stroke-linejoin: round;stroke-miterlimit: 10.000000;fill: none;"></path>
  <path d="M1269.186737 624.932724C1269.186737 592.165298,1256.167984 560.743851,1232.999664 537.575531C1209.831345 514.407211,1178.409897 501.388458,1145.642471 501.388458C1112.875046 501.388458,1081.453598 514.407211,1058.285278 537.575531C1035.116959 560.743851,1022.098206 592.165298,1022.098206 624.932724C1022.098206 657.700150,1035.116959 689.121597,1058.285278 712.289917C1081.453598 735.458237,1112.875046 748.476990,1145.642471 748.476990C1178.409897 748.476990,1209.831345 735.458237,1232.999664 712.289917C1256.167984 689.121597,1269.186737 657.700150,1269.186737 624.932724Z" style="stroke:rgb(25.500488%,41.000366%,88.400269%); stroke-width: 2.500000;stroke-linecap: round;stroke-linejoin: round;stroke-miterlimit: 10.000000;fill: none;"></path>
  <path d="M1483.770447 562.544235C1483.770447 529.776810,1470.751694 498.355362,1447.583374 475.187042C1424.415054 452.018723,1392.993607 438.999969,1360.226181 438.999969C1327.458755 438.999969,1296.037308 452.018723,1272.868988 475.187042C1249.700668 498.355362,1236.681915 529.776810,1236.681915 562.544235C1236.681915 595.311661,1249.700668 626.733109,1272.868988 649.901428C1296.037308 673.069748,1327.458755 686.088501,1360.226181 686.088501C1392.993607 686.088501,1424.415054 673.069748,1447.583374 649.901428C1470.751694 626.733109,1483.770447 595.311661,1483.770447 562.544235Z" style="stroke:rgb(25.500488%,41.000366%,88.400269%); stroke-width: 2.500000;stroke-linecap: round;stroke-linejoin: round;stroke-miterlimit: 10.000000;fill: none;"></path>
  <path d="M1684.469849 478.278244C1684.469849 445.510818,1671.451096 414.089371,1648.282776 390.921051C1625.114456 367.752731,1593.693008 354.733978,1560.925583 354.733978C1528.158157 354.733978,1496.736710 367.752731,1473.568390 390.921051C1450.400070 414.089371,1437.381317 445.510818,1437.381317 478.278244C1437.381317 511.045670,1450.400070 542.467117,1473.568390 565.635437C1496.736710 588.803757,1528.158157 601.822510,1560.925583 601.822510C1593.693008 601.822510,1625.114456 588.803757,1648.282776 565.635437C1671.451096 542.467117,1684.469849 511.045670,1684.469849 478.278244Z" style="stroke:rgb(25.500488%,41.000366%,88.400269%); stroke-width: 2.500000;stroke-linecap: round;stroke-linejoin: round;stroke-miterlimit: 10.000000;fill: none;"></path>
  <path d="M277.199371 751.824783C277.199371 719.057358,264.180618 687.635910,241.012299 664.467590C217.843979 641.299271,186.422531 628.280518,153.655106 628.280518C120.887680 628.280518,89.466232 641.299271,66.297913 664.467590C43.129593 687.635910,30.110840 719.057358,30.110840 751.824783C30.110840 784.592209,43.129593 816.013657,66.297913 839.181976C89.466232 862.350296,120.887680 875.369049,153.655106 875.369049C186.422531 875.369049,217.843979 862.350296,241.012299 839.181976C264.180618 816.013657,277.199371 784.592209,277.199371 751.824783Z" style="stroke:rgb(25.500488%,41.000366%,88.400269%); stroke-width: 2.500000;stroke-linecap: round;stroke-linejoin: round;stroke-miterlimit: 10.000000;fill: none;"></path>
  <path d="M487.046844 688.008942C487.046844 655.241516,474.028091 623.820068,450.859772 600.651749C427.691452 577.483429,396.270004 564.464676,363.502579 564.464676C330.735153 564.464676,299.313705 577.483429,276.145386 600.651749C252.977066 623.820068,239.958313 655.241516,239.958313 688.008942C239.958313 720.776367,252.977066 752.197815,276.145386 775.366135C299.313705 798.534454,330.735153 811.553207,363.502579 811.553207C396.270004 811.553207,427.691452 798.534454,450.859772 775.366135C474.028091 752.197815,487.046844 720.776367,487.046844 688.008942Z" style="stroke:rgb(25.500488%,41.000366%,88.400269%); stroke-width: 2.500000;stroke-linecap: round;stroke-linejoin: round;stroke-miterlimit: 10.000000;fill: none;"></path>
  <path d="M697.257645 617.782959C697.257645 585.015533,684.238892 553.594086,661.070572 530.425766C637.902252 507.257446,606.480804 494.238693,573.713379 494.238693C540.945953 494.238693,509.524506 507.257446,486.356186 530.425766C463.187866 553.594086,450.169113 585.015533,450.169113 617.782959C450.169113 650.550385,463.187866 681.971832,486.356186 705.140152C509.524506 728.308472,540.945953 741.327225,573.713379 741.327225C606.480804 741.327225,637.902252 728.308472,661.070572 705.140152C684.238892 681.971832,697.257645 650.550385,697.257645 617.782959Z" style="stroke:rgb(25.500488%,41.000366%,88.400269%); stroke-width: 2.500000;stroke-linecap: round;stroke-linejoin: round;stroke-miterlimit: 10.000000;fill: none;"></path>
  <path d="M896.218277 544.118347C896.218277 511.350922,883.199524 479.929474,860.031204 456.761154C836.862885 433.592834,805.441437 420.574081,772.674011 420.574081C739.906586 420.574081,708.485138 433.592834,685.316818 456.761154C662.148499 479.929474,649.129745 511.350922,649.129745 544.118347C649.129745 576.885773,662.148499 608.307220,685.316818 631.475540C708.485138 654.643860,739.906586 667.662613,772.674011 667.662613C805.441437 667.662613,836.862885 654.643860,860.031204 631.475540C883.199524 608.307220,896.218277 576.885773,896.218277 544.118347Z" style="stroke:rgb(25.500488%,41.000366%,88.400269%); stroke-width: 2.500000;stroke-linecap: round;stroke-linejoin: round;stroke-miterlimit: 10.000000;fill: none;"></path>
  <path d="M1098.838135 489.800919C1098.838135 457.033493,1085.819382 425.612045,1062.651062 402.443726C1039.482742 379.275406,1008.061295 366.256653,975.293869 366.256653C942.526443 366.256653,911.104996 379.275406,887.936676 402.443726C864.768356 425.612045,851.749603 457.033493,851.749603 489.800919C851.749603 522.568344,864.768356 553.989792,887.936676 577.158112C911.104996 600.326431,942.526443 613.345184,975.293869 613.345184C1008.061295 613.345184,1039.482742 600.326431,1062.651062 577.158112C1085.819382 553.989792,1098.838135 522.568344,1098.838135 489.800919Z" style="stroke:rgb(25.500488%,41.000366%,88.400269%); stroke-width: 2.500000;stroke-linecap: round;stroke-linejoin: round;stroke-miterlimit: 10.000000;fill: none;"></path>
  <path d="M1313.058502 429.592392C1313.058502 396.824966,1300.039749 365.403519,1276.871429 342.235199C1253.703110 319.066879,1222.281662 306.048126,1189.514236 306.048126C1156.746811 306.048126,1125.325363 319.066879,1102.157043 342.235199C1078.988724 365.403519,1065.969971 396.824966,1065.969971 429.592392C1065.969971 462.359818,1078.988724 493.781265,1102.157043 516.949585C1125.325363 540.117905,1156.746811 553.136658,1189.514236 553.136658C1222.281662 553.136658,1253.703110 540.117905,1276.871429 516.949585C1300.039749 493.781265,1313.058502 462.359818,1313.058502 429.592392Z" style="stroke:rgb(25.500488%,41.000366%,88.400269%); stroke-width: 2.500000;stroke-linecap: round;stroke-linejoin: round;stroke-miterlimit: 10.000000;fill: none;"></path>
  <path d="M1518.208679 357.627625C1518.208679 324.860199,1505.189926 293.438751,1482.021606 270.270432C1458.853287 247.102112,1427.431839 234.083359,1394.664413 234.083359C1361.896988 234.083359,1330.475540 247.102112,1307.307220 270.270432C1284.138901 293.438751,1271.120148 324.860199,1271.120148 357.627625C1271.120148 390.395050,1284.138901 421.816498,1307.307220 444.984818C1330.475540 468.153137,1361.896988 481.171890,1394.664413 481.171890C1427.431839 481.171890,1458.853287 468.153137,1482.021606 444.984818C1505.189926 421.816498,1518.208679 390.395050,1518.208679 357.627625Z" style="stroke:rgb(25.500488%,41.000366%,88.400269%); stroke-width: 2.500000;stroke-linecap: round;stroke-linejoin: round;stroke-miterlimit: 10.000000;fill: none;"></path>
  <path d="M335.643158 561.999237C335.643158 529.231812,322.624405 497.810364,299.456085 474.642044C276.287766 451.473724,244.866318 438.454971,212.098892 438.454971C179.331467 438.454971,147.910019 451.473724,124.741699 474.642044C101.573380 497.810364,88.554626 529.231812,88.554626 561.999237C88.554626 594.766663,101.573380 626.188110,124.741699 649.356430C147.910019 672.524750,179.331467 685.543503,212.098892 685.543503C244.866318 685.543503,276.287766 672.524750,299.456085 649.356430C322.624405 626.188110,335.643158 594.766663,335.643158 561.999237Z" style="stroke:rgb(25.500488%,41.000366%,88.400269%); stroke-width: 2.500000;stroke-linecap: round;stroke-linejoin: round;stroke-miterlimit: 10.000000;fill: none;"></path>
  <path d="M546.866089 480.782608C546.866089 448.015182,533.847336 416.593735,510.679016 393.425415C487.510696 370.257095,456.089249 357.238342,423.321823 357.238342C390.554398 357.238342,359.132950 370.257095,335.964630 393.425415C312.796310 416.593735,299.777557 448.015182,299.777557 480.782608C299.777557 513.550034,312.796310 544.971481,335.964630 568.139801C359.132950 591.308121,390.554398 604.326874,423.321823 604.326874C456.089249 604.326874,487.510696 591.308121,510.679016 568.139801C533.847336 544.971481,546.866089 513.550034,546.866089 480.782608Z" style="stroke:rgb(25.500488%,41.000366%,88.400269%); stroke-width: 2.500000;stroke-linecap: round;stroke-linejoin: round;stroke-miterlimit: 10.000000;fill: none;"></path>
  <path d="M746.748016 401.239883C746.748016 368.472458,733.729263 337.051010,710.560944 313.882690C687.392624 290.714371,655.971176 277.695618,623.203751 277.695618C590.436325 277.695618,559.014877 290.714371,535.846558 313.882690C512.678238 337.051010,499.659485 368.472458,499.659485 401.239883C499.659485 434.007309,512.678238 465.428757,535.846558 488.597076C559.014877 511.765396,590.436325 524.784149,623.203751 524.784149C655.971176 524.784149,687.392624 511.765396,710.560944 488.597076C733.729263 465.428757,746.748016 434.007309,746.748016 401.239883Z" style="stroke:rgb(25.500488%,41.000366%,88.400269%); stroke-width: 2.500000;stroke-linecap: round;stroke-linejoin: round;stroke-miterlimit: 10.000000;fill: none;"></path>
  <path d="M925.349335 343.418930C925.349335 310.651505,912.330582 279.230057,889.162262 256.061737C865.993942 232.893417,834.572495 219.874664,801.805069 219.874664C769.037643 219.874664,737.616196 232.893417,714.447876 256.061737C691.279556 279.230057,678.260803 310.651505,678.260803 343.418930C678.260803 376.186356,691.279556 407.607803,714.447876 430.776123C737.616196 453.944443,769.037643 466.963196,801.805069 466.963196C834.572495 466.963196,865.993942 453.944443,889.162262 430.776123C912.330582 407.607803,925.349335 376.186356,925.349335 343.418930Z" style="stroke:rgb(25.500488%,41.000366%,88.400269%); stroke-width: 2.500000;stroke-linecap: round;stroke-linejoin: round;stroke-miterlimit: 10.000000;fill: none;"></path>
  <path d="M1136.131088 297.522919C1136.131088 264.755493,1123.112335 233.334045,1099.944016 210.165726C1076.775696 186.997406,1045.354248 173.978653,1012.586823 173.978653C979.819397 173.978653,948.397949 186.997406,925.229630 210.165726C902.061310 233.334045,889.042557 264.755493,889.042557 297.522919C889.042557 330.290344,902.061310 361.711792,925.229630 384.880112C948.397949 408.048431,979.819397 421.067184,1012.586823 421.067184C1045.354248 421.067184,1076.775696 408.048431,1099.944016 384.880112C1123.112335 361.711792,1136.131088 330.290344,1136.131088 297.522919Z" style="stroke:rgb(25.500488%,41.000366%,88.400269%); stroke-width: 2.500000;stroke-linecap: round;stroke-linejoin: round;stroke-miterlimit: 10.000000;fill: none;"></path>
  <path d="M1352.025360 239.247803C1352.025360 206.480377,1339.006607 175.058929,1315.838287 151.890610C1292.669968 128.722290,1261.248520 115.703537,1228.481094 115.703537C1195.713669 115.703537,1164.292221 128.722290,1141.123901 151.890610C1117.955582 175.058929,1104.936829 206.480377,1104.936829 239.247803C1104.936829 272.015228,1117.955582 303.436676,1141.123901 326.604996C1164.292221 349.773315,1195.713669 362.792068,1228.481094 362.792068C1261.248520 362.792068,1292.669968 349.773315,1315.838287 326.604996C1339.006607 303.436676,1352.025360 272.015228,1352.025360 239.247803Z" style="stroke:rgb(25.500488%,41.000366%,88.400269%); stroke-width: 2.500000;stroke-linecap: round;stroke-linejoin: round;stroke-miterlimit: 10.000000;fill: none;"></path>
  <path d="M400.068878 374.249847C400.068878 341.482422,387.050125 310.060974,363.881805 286.892654C340.713486 263.724335,309.292038 250.705582,276.524612 250.705582C243.757187 250.705582,212.335739 263.724335,189.167419 286.892654C165.999100 310.060974,152.980347 341.482422,152.980347 374.249847C152.980347 407.017273,165.999100 438.438721,189.167419 461.607040C212.335739 484.775360,243.757187 497.794113,276.524612 497.794113C309.292038 497.794113,340.713486 484.775360,363.881805 461.607040C387.050125 438.438721,400.068878 407.017273,400.068878 374.249847Z" style="stroke:rgb(25.500488%,41.000366%,88.400269%); stroke-width: 2.500000;stroke-linecap: round;stroke-linejoin: round;stroke-miterlimit: 10.000000;fill: none;"></path>
  <path d="M600.210327 263.396103C600.210327 230.628677,587.191574 199.207230,564.023254 176.038910C540.854935 152.870590,509.433487 139.851837,476.666061 139.851837C443.898636 139.851837,412.477188 152.870590,389.308868 176.038910C366.140549 199.207230,353.121796 230.628677,353.121796 263.396103C353.121796 296.163528,366.140549 327.584976,389.308868 350.753296C412.477188 373.921616,443.898636 386.940369,476.666061 386.940369C509.433487 386.940369,540.854935 373.921616,564.023254 350.753296C587.191574 327.584976,600.210327 296.163528,600.210327 263.396103Z" style="stroke:rgb(25.500488%,41.000366%,88.400269%); stroke-width: 2.500000;stroke-linecap: round;stroke-linejoin: round;stroke-miterlimit: 10.000000;fill: none;"></path>
  <path d="M772.518295 178.598099C772.518295 145.830673,759.499542 114.409225,736.331223 91.240906C713.162903 68.072586,681.741455 55.053833,648.974030 55.053833C616.206604 55.053833,584.785156 68.072586,561.616837 91.240906C538.448517 114.409225,525.429764 145.830673,525.429764 178.598099C525.429764 211.365524,538.448517 242.786972,561.616837 265.955292C584.785156 289.123611,616.206604 302.142365,648.974030 302.142365C681.741455 302.142365,713.162903 289.123611,736.331223 265.955292C759.499542 242.786972,772.518295 211.365524,772.518295 178.598099Z" style="stroke:rgb(25.500488%,41.000366%,88.400269%); stroke-width: 2.500000;stroke-linecap: round;stroke-linejoin: round;stroke-miterlimit: 10.000000;fill: none;"></path>
  <path d="M963.291092 150.816528C963.291092 118.049103,950.272339 86.627655,927.104019 63.459335C903.935699 40.291016,872.514252 27.272263,839.746826 27.272263C806.979401 27.272263,775.557953 40.291016,752.389633 63.459335C729.221313 86.627655,716.202560 118.049103,716.202560 150.816528C716.202560 183.583954,729.221313 215.005402,752.389633 238.173721C775.557953 261.342041,806.979401 274.360794,839.746826 274.360794C872.514252 274.360794,903.935699 261.342041,927.104019 238.173721C950.272339 215.005402,963.291092 183.583954,963.291092 150.816528Z" style="stroke:rgb(25.500488%,41.000366%,88.400269%); stroke-width: 2.500000;stroke-linecap: round;stroke-linejoin: round;stroke-miterlimit: 10.000000;fill: none;"></path>
  <path d="M1188.009033 124.137924C1188.009033 91.370499,1174.990280 59.949051,1151.821960 36.780731C1128.653641 13.612411,1097.232193 0.593658,1064.464767 0.593658C1031.697342 0.593658,1000.275894 13.612411,977.107574 36.780731C953.939255 59.949051,940.920502 91.370499,940.920502 124.137924C940.920502 156.905350,953.939255 188.326797,977.107574 211.495117C1000.275894 234.663437,1031.697342 247.682190,1064.464767 247.682190C1097.232193 247.682190,1128.653641 234.663437,1151.821960 211.495117C1174.990280 188.326797,1188.009033 156.905350,1188.009033 124.137924Z" style="stroke:rgb(25.500488%,41.000366%,88.400269%); stroke-width: 2.500000;stroke-linecap: round;stroke-linejoin: round;stroke-miterlimit: 10.000000;fill: none;"></path>
</svg>
