<?xml version="1.0"?>
<!-- Created by MetaPost 2.00 on 2022.03.02:1201 -->
<svg version="1.1" xmlns="http://www.w3.org/2000/svg" xmlns:xlink="http://www.w3.org/1999/xlink" width="1772.669586" height="1579.898483" viewBox="0 0 1772.669586 1579.898483">
<!-- Original BoundingBox: -886.172592 -793.459244 886.496994 786.439240 -->
  <path d="M1736.393524 786.000000L1311.196762 49.535538L460.803238 49.535538L35.606476 786.000000L460.803238 1522.464462L1311.196762 1522.464462L1736.393524 786.000000Z" style="fill: rgb(100.000000%,100.000000%,100.000000%);stroke: none;"></path>
  <path d="M1736.393524 786.000000L1311.196762 49.535538" style="stroke:rgb(0.000000%,0.000000%,0.000000%); stroke-width: 2.500000;stroke-linecap: round;stroke-linejoin: round;stroke-miterlimit: 10.000000;fill: none;"></path>
  <path d="M1311.196762 49.535538L460.803238 49.535538" style="stroke:rgb(0.000000%,0.000000%,0.000000%); stroke-width: 2.500000;stroke-linecap: round;stroke-linejoin: round;stroke-miterlimit: 10.000000;fill: none;"></path>
  <path d="M460.803238 49.535538L35.606476 786.000000" style="stroke:rgb(0.000000%,0.000000%,0.000000%); stroke-width: 2.500000;stroke-linecap: round;stroke-linejoin: round;stroke-miterlimit: 10.000000;fill: none;"></path>
  <path d="M35.606476 786.000000L460.803238 1522.464462" style="stroke:rgb(0.000000%,0.000000%,0.000000%); stroke-width: 2.500000;stroke-linecap: round;stroke-linejoin: round;stroke-miterlimit: 10.000000;fill: none;"></path>
  <path d="M460.803238 1522.464462L1311.196762 1522.464462" style="stroke:rgb(0.000000%,0.000000%,0.000000%); stroke-width: 2.500000;stroke-linecap: round;stroke-linejoin: round;stroke-miterlimit: 10.000000;fill: none;"></path>
  <path d="M1311.196762 1522.464462L1736.393524 786.000000" style="stroke:rgb(0.000000%,0.000000%,0.000000%); stroke-width: 2.500000;stroke-linecap: round;stroke-linejoin: round;stroke-miterlimit: 10.000000;fill: none;"></path>
  <path d="M317.872864 827.587997C317.872864 802.756882,308.007278 778.945770,290.450363 761.388840C272.893433 743.831924,249.082321 733.966339,224.251205 733.966339C199.420090 733.966339,175.608978 743.831924,158.052048 761.388840C140.495132 778.945770,130.629547 802.756882,130.629547 827.587997C130.629547 852.419113,140.495132 876.230225,158.052048 893.787155C175.608978 911.344070,199.420090 921.209656,224.251205 921.209656C249.082321 921.209656,272.893433 911.344070,290.450363 893.787155C308.007278 876.230225,317.872864 852.419113,317.872864 827.587997Z" style="stroke:rgb(25.500488%,41.000366%,88.400269%); stroke-width: 2.500000;stroke-linecap: round;stroke-linejoin: round;stroke-miterlimit: 10.000000;fill: none;"></path>
  <path d="M399.712341 965.600479C399.712341 940.769363,389.846756 916.958252,372.289841 899.401321C354.732910 881.844406,330.921799 871.978821,306.090683 871.978821C281.259567 871.978821,257.448456 881.844406,239.891525 899.401321C222.334610 916.958252,212.469025 940.769363,212.469025 965.600479C212.469025 990.431595,222.334610 1014.242706,239.891525 1031.799637C257.448456 1049.356552,281.259567 1059.222137,306.090683 1059.222137C330.921799 1059.222137,354.732910 1049.356552,372.289841 1031.799637C389.846756 1014.242706,399.712341 990.431595,399.712341 965.600479Z" style="stroke:rgb(25.500488%,41.000366%,88.400269%); stroke-width: 2.500000;stroke-linecap: round;stroke-linejoin: round;stroke-miterlimit: 10.000000;fill: none;"></path>
  <path d="M507.919006 1058.339767C507.919006 1033.508652,498.053421 1009.697540,480.496506 992.140610C462.939575 974.583694,439.128464 964.718109,414.297348 964.718109C389.466232 964.718109,365.655121 974.583694,348.098190 992.140610C330.541275 1009.697540,320.675690 1033.508652,320.675690 1058.339767C320.675690 1083.170883,330.541275 1106.981995,348.098190 1124.538925C365.655121 1142.095840,389.466232 1151.961426,414.297348 1151.961426C439.128464 1151.961426,462.939575 1142.095840,480.496506 1124.538925C498.053421 1106.981995,507.919006 1083.170883,507.919006 1058.339767Z" style="stroke:rgb(25.500488%,41.000366%,88.400269%); stroke-width: 2.500000;stroke-linecap: round;stroke-linejoin: round;stroke-miterlimit: 10.000000;fill: none;"></path>
  <path d="M534.130478 1198.415421C534.130478 1173.584305,524.264893 1149.773193,506.707977 1132.216263C489.151047 1114.659348,465.339935 1104.793762,440.508820 1104.793762C415.677704 1104.793762,391.866592 1114.659348,374.309662 1132.216263C356.752747 1149.773193,346.887161 1173.584305,346.887161 1198.415421C346.887161 1223.246536,356.752747 1247.057648,374.309662 1264.614578C391.866592 1282.171494,415.677704 1292.037079,440.508820 1292.037079C465.339935 1292.037079,489.151047 1282.171494,506.707977 1264.614578C524.264893 1247.057648,534.130478 1223.246536,534.130478 1198.415421Z" style="stroke:rgb(25.500488%,41.000366%,88.400269%); stroke-width: 2.500000;stroke-linecap: round;stroke-linejoin: round;stroke-miterlimit: 10.000000;fill: none;"></path>
  <path d="M612.738922 1338.296448C612.738922 1313.465332,602.873337 1289.654221,585.316422 1272.097290C567.759491 1254.540375,543.948380 1244.674789,519.117264 1244.674789C494.286148 1244.674789,470.475037 1254.540375,452.918106 1272.097290C435.361191 1289.654221,425.495605 1313.465332,425.495605 1338.296448C425.495605 1363.127563,435.361191 1386.938675,452.918106 1404.495605C470.475037 1422.052521,494.286148 1431.918106,519.117264 1431.918106C543.948380 1431.918106,567.759491 1422.052521,585.316422 1404.495605C602.873337 1386.938675,612.738922 1363.127563,612.738922 1338.296448Z" style="stroke:rgb(25.500488%,41.000366%,88.400269%); stroke-width: 2.500000;stroke-linecap: round;stroke-linejoin: round;stroke-miterlimit: 10.000000;fill: none;"></path>
  <path d="M388.358368 678.883316C388.358368 654.052200,378.492783 630.241089,360.935867 612.684158C343.378937 595.127243,319.567825 585.261658,294.736710 585.261658C269.905594 585.261658,246.094482 595.127243,228.537552 612.684158C210.980637 630.241089,201.115051 654.052200,201.115051 678.883316C201.115051 703.714432,210.980637 727.525543,228.537552 745.082474C246.094482 762.639389,269.905594 772.504974,294.736710 772.504974C319.567825 772.504974,343.378937 762.639389,360.935867 745.082474C378.492783 727.525543,388.358368 703.714432,388.358368 678.883316Z" style="stroke:rgb(25.500488%,41.000366%,88.400269%); stroke-width: 2.500000;stroke-linecap: round;stroke-linejoin: round;stroke-miterlimit: 10.000000;fill: none;"></path>
  <path d="M472.468643 812.302307C472.468643 787.471191,462.603058 763.660080,445.046143 746.103149C427.489212 728.546234,403.678101 718.680649,378.846985 718.680649C354.015869 718.680649,330.204758 728.546234,312.647827 746.103149C295.090912 763.660080,285.225327 787.471191,285.225327 812.302307C285.225327 837.133423,295.090912 860.944534,312.647827 878.501465C330.204758 896.058380,354.015869 905.923965,378.846985 905.923965C403.678101 905.923965,427.489212 896.058380,445.046143 878.501465C462.603058 860.944534,472.468643 837.133423,472.468643 812.302307Z" style="stroke:rgb(25.500488%,41.000366%,88.400269%); stroke-width: 2.500000;stroke-linecap: round;stroke-linejoin: round;stroke-miterlimit: 10.000000;fill: none;"></path>
  <path d="M560.783127 935.275620C560.783127 910.444504,550.917542 886.633392,533.360626 869.076462C515.803696 851.519547,491.992584 841.653961,467.161469 841.653961C442.330353 841.653961,418.519241 851.519547,400.962311 869.076462C383.405396 886.633392,373.539810 910.444504,373.539810 935.275620C373.539810 960.106735,383.405396 983.917847,400.962311 1001.474777C418.519241 1019.031693,442.330353 1028.897278,467.161469 1028.897278C491.992584 1028.897278,515.803696 1019.031693,533.360626 1001.474777C550.917542 983.917847,560.783127 960.106735,560.783127 935.275620Z" style="stroke:rgb(25.500488%,41.000366%,88.400269%); stroke-width: 2.500000;stroke-linecap: round;stroke-linejoin: round;stroke-miterlimit: 10.000000;fill: none;"></path>
  <path d="M640.935730 1074.092606C640.935730 1049.261490,631.070145 1025.450378,613.513229 1007.893448C595.956299 990.336533,572.145187 980.470947,547.314072 980.470947C522.482956 980.470947,498.671844 990.336533,481.114914 1007.893448C463.557999 1025.450378,453.692413 1049.261490,453.692413 1074.092606C453.692413 1098.923721,463.557999 1122.734833,481.114914 1140.291763C498.671844 1157.848679,522.482956 1167.714264,547.314072 1167.714264C572.145187 1167.714264,595.956299 1157.848679,613.513229 1140.291763C631.070145 1122.734833,640.935730 1098.923721,640.935730 1074.092606Z" style="stroke:rgb(25.500488%,41.000366%,88.400269%); stroke-width: 2.500000;stroke-linecap: round;stroke-linejoin: round;stroke-miterlimit: 10.000000;fill: none;"></path>
  <path d="M703.272308 1212.066147C703.272308 1187.235031,693.406723 1163.423920,675.849808 1145.866989C658.292877 1128.310074,634.481766 1118.444489,609.650650 1118.444489C584.819534 1118.444489,561.008423 1128.310074,543.451492 1145.866989C525.894577 1163.423920,516.028992 1187.235031,516.028992 1212.066147C516.028992 1236.897263,525.894577 1260.708374,543.451492 1278.265305C561.008423 1295.822220,584.819534 1305.687805,609.650650 1305.687805C634.481766 1305.687805,658.292877 1295.822220,675.849808 1278.265305C693.406723 1260.708374,703.272308 1236.897263,703.272308 1212.066147Z" style="stroke:rgb(25.500488%,41.000366%,88.400269%); stroke-width: 2.500000;stroke-linecap: round;stroke-linejoin: round;stroke-miterlimit: 10.000000;fill: none;"></path>
  <path d="M776.755264 1351.609787C776.755264 1326.778671,766.889679 1302.967560,749.332764 1285.410629C731.775833 1267.853714,707.964722 1257.988129,683.133606 1257.988129C658.302490 1257.988129,634.491379 1267.853714,616.934448 1285.410629C599.377533 1302.967560,589.511948 1326.778671,589.511948 1351.609787C589.511948 1376.440903,599.377533 1400.252014,616.934448 1417.808945C634.491379 1435.365860,658.302490 1445.231445,683.133606 1445.231445C707.964722 1445.231445,731.775833 1435.365860,749.332764 1417.808945C766.889679 1400.252014,776.755264 1376.440903,776.755264 1351.609787Z" style="stroke:rgb(25.500488%,41.000366%,88.400269%); stroke-width: 2.500000;stroke-linecap: round;stroke-linejoin: round;stroke-miterlimit: 10.000000;fill: none;"></path>
  <path d="M474.739426 534.032516C474.739426 509.201401,464.873840 485.390289,447.316925 467.833359C429.759995 450.276443,405.948883 440.410858,381.117767 440.410858C356.286652 440.410858,332.475540 450.276443,314.918610 467.833359C297.361694 485.390289,287.496109 509.201401,287.496109 534.032516C287.496109 558.863632,297.361694 582.674744,314.918610 600.231674C332.475540 617.788589,356.286652 627.654175,381.117767 627.654175C405.948883 627.654175,429.759995 617.788589,447.316925 600.231674C464.873840 582.674744,474.739426 558.863632,474.739426 534.032516Z" style="stroke:rgb(25.500488%,41.000366%,88.400269%); stroke-width: 2.500000;stroke-linecap: round;stroke-linejoin: round;stroke-miterlimit: 10.000000;fill: none;"></path>
  <path d="M551.258759 667.088165C551.258759 642.257050,541.393173 618.445938,523.836258 600.889008C506.279327 583.332092,482.468216 573.466507,457.637100 573.466507C432.805984 573.466507,408.994873 583.332092,391.437943 600.889008C373.881027 618.445938,364.015442 642.257050,364.015442 667.088165C364.015442 691.919281,373.881027 715.730392,391.437943 733.287323C408.994873 750.844238,432.805984 760.709824,457.637100 760.709824C482.468216 760.709824,506.279327 750.844238,523.836258 733.287323C541.393173 715.730392,551.258759 691.919281,551.258759 667.088165Z" style="stroke:rgb(25.500488%,41.000366%,88.400269%); stroke-width: 2.500000;stroke-linecap: round;stroke-linejoin: round;stroke-miterlimit: 10.000000;fill: none;"></path>
  <path d="M637.756607 794.927475C637.756607 770.096359,627.891022 746.285248,610.334106 728.728317C592.777176 711.171402,568.966064 701.305817,544.134949 701.305817C519.303833 701.305817,495.492722 711.171402,477.935791 728.728317C460.378876 746.285248,450.513290 770.096359,450.513290 794.927475C450.513290 819.758591,460.378876 843.569702,477.935791 861.126633C495.492722 878.683548,519.303833 888.549133,544.134949 888.549133C568.966064 888.549133,592.777176 878.683548,610.334106 861.126633C627.891022 843.569702,637.756607 819.758591,637.756607 794.927475Z" style="stroke:rgb(25.500488%,41.000366%,88.400269%); stroke-width: 2.500000;stroke-linecap: round;stroke-linejoin: round;stroke-miterlimit: 10.000000;fill: none;"></path>
  <path d="M723.865189 933.666595C723.865189 908.835480,713.999603 885.024368,696.442688 867.467438C678.885757 849.910522,655.074646 840.044937,630.243530 840.044937C605.412415 840.044937,581.601303 849.910522,564.044373 867.467438C546.487457 885.024368,536.621872 908.835480,536.621872 933.666595C536.621872 958.497711,546.487457 982.308823,564.044373 999.865753C581.601303 1017.422668,605.412415 1027.288254,630.243530 1027.288254C655.074646 1027.288254,678.885757 1017.422668,696.442688 999.865753C713.999603 982.308823,723.865189 958.497711,723.865189 933.666595Z" style="stroke:rgb(25.500488%,41.000366%,88.400269%); stroke-width: 2.500000;stroke-linecap: round;stroke-linejoin: round;stroke-miterlimit: 10.000000;fill: none;"></path>
  <path d="M800.955460 1077.609100C800.955460 1052.777985,791.089874 1028.966873,773.532959 1011.409943C755.976028 993.853027,732.164917 983.987442,707.333801 983.987442C682.502686 983.987442,658.691574 993.853027,641.134644 1011.409943C623.577728 1028.966873,613.712143 1052.777985,613.712143 1077.609100C613.712143 1102.440216,623.577728 1126.251328,641.134644 1143.808258C658.691574 1161.365173,682.502686 1171.230759,707.333801 1171.230759C732.164917 1171.230759,755.976028 1161.365173,773.532959 1143.808258C791.089874 1126.251328,800.955460 1102.440216,800.955460 1077.609100Z" style="stroke:rgb(25.500488%,41.000366%,88.400269%); stroke-width: 2.500000;stroke-linecap: round;stroke-linejoin: round;stroke-miterlimit: 10.000000;fill: none;"></path>
  <path d="M868.417542 1216.439056C868.417542 1191.607941,858.551956 1167.796829,840.995041 1150.239899C823.438110 1132.682983,799.626999 1122.817398,774.795883 1122.817398C749.964767 1122.817398,726.153656 1132.682983,708.596725 1150.239899C691.039810 1167.796829,681.174225 1191.607941,681.174225 1216.439056C681.174225 1241.270172,691.039810 1265.081284,708.596725 1282.638214C726.153656 1300.195129,749.964767 1310.060715,774.795883 1310.060715C799.626999 1310.060715,823.438110 1300.195129,840.995041 1282.638214C858.551956 1265.081284,868.417542 1241.270172,868.417542 1216.439056Z" style="stroke:rgb(25.500488%,41.000366%,88.400269%); stroke-width: 2.500000;stroke-linecap: round;stroke-linejoin: round;stroke-miterlimit: 10.000000;fill: none;"></path>
  <path d="M945.391037 1349.222214C945.391037 1324.391098,935.525452 1300.579987,917.968536 1283.023056C900.411606 1265.466141,876.600494 1255.600555,851.769379 1255.600555C826.938263 1255.600555,803.127151 1265.466141,785.570221 1283.023056C768.013306 1300.579987,758.147720 1324.391098,758.147720 1349.222214C758.147720 1374.053329,768.013306 1397.864441,785.570221 1415.421371C803.127151 1432.978287,826.938263 1442.843872,851.769379 1442.843872C876.600494 1442.843872,900.411606 1432.978287,917.968536 1415.421371C935.525452 1397.864441,945.391037 1374.053329,945.391037 1349.222214Z" style="stroke:rgb(25.500488%,41.000366%,88.400269%); stroke-width: 2.500000;stroke-linecap: round;stroke-linejoin: round;stroke-miterlimit: 10.000000;fill: none;"></path>
  <path d="M562.327271 389.934296C562.327271 365.103180,552.461685 341.292068,534.904770 323.735138C517.347839 306.178223,493.536728 296.312637,468.705612 296.312637C443.874496 296.312637,420.063385 306.178223,402.506454 323.735138C384.949539 341.292068,375.083954 365.103180,375.083954 389.934296C375.083954 414.765411,384.949539 438.576523,402.506454 456.133453C420.063385 473.690369,443.874496 483.555954,468.705612 483.555954C493.536728 483.555954,517.347839 473.690369,534.904770 456.133453C552.461685 438.576523,562.327271 414.765411,562.327271 389.934296Z" style="stroke:rgb(25.500488%,41.000366%,88.400269%); stroke-width: 2.500000;stroke-linecap: round;stroke-linejoin: round;stroke-miterlimit: 10.000000;fill: none;"></path>
  <path d="M636.809357 525.507294C636.809357 500.676178,626.943771 476.865067,609.386856 459.308136C591.829926 441.751221,568.018814 431.885635,543.187698 431.885635C518.356583 431.885635,494.545471 441.751221,476.988541 459.308136C459.431625 476.865067,449.566040 500.676178,449.566040 525.507294C449.566040 550.338409,459.431625 574.149521,476.988541 591.706451C494.545471 609.263367,518.356583 619.128952,543.187698 619.128952C568.018814 619.128952,591.829926 609.263367,609.386856 591.706451C626.943771 574.149521,636.809357 550.338409,636.809357 525.507294Z" style="stroke:rgb(25.500488%,41.000366%,88.400269%); stroke-width: 2.500000;stroke-linecap: round;stroke-linejoin: round;stroke-miterlimit: 10.000000;fill: none;"></path>
  <path d="M718.233612 654.475510C718.233612 629.644394,708.368027 605.833282,690.811111 588.276352C673.254181 570.719437,649.443069 560.853851,624.611954 560.853851C599.780838 560.853851,575.969727 570.719437,558.412796 588.276352C540.855881 605.833282,530.990295 629.644394,530.990295 654.475510C530.990295 679.306625,540.855881 703.117737,558.412796 720.674667C575.969727 738.231583,599.780838 748.097168,624.611954 748.097168C649.443069 748.097168,673.254181 738.231583,690.811111 720.674667C708.368027 703.117737,718.233612 679.306625,718.233612 654.475510Z" style="stroke:rgb(25.500488%,41.000366%,88.400269%); stroke-width: 2.500000;stroke-linecap: round;stroke-linejoin: round;stroke-miterlimit: 10.000000;fill: none;"></path>
  <path d="M800.825699 793.305481C800.825699 768.474365,790.960114 744.663254,773.403198 727.106323C755.846268 709.549408,732.035156 699.683823,707.204041 699.683823C682.372925 699.683823,658.561813 709.549408,641.004883 727.106323C623.447968 744.663254,613.582382 768.474365,613.582382 793.305481C613.582382 818.136597,623.447968 841.947708,641.004883 859.504639C658.561813 877.061554,682.372925 886.927139,707.204041 886.927139C732.035156 886.927139,755.846268 877.061554,773.403198 859.504639C790.960114 841.947708,800.825699 818.136597,800.825699 793.305481Z" style="stroke:rgb(25.500488%,41.000366%,88.400269%); stroke-width: 2.500000;stroke-linecap: round;stroke-linejoin: round;stroke-miterlimit: 10.000000;fill: none;"></path>
  <path d="M883.897888 937.183090C883.897888 912.351974,874.032303 888.540863,856.475388 870.983932C838.918457 853.427017,815.107346 843.561432,790.276230 843.561432C765.445114 843.561432,741.634003 853.427017,724.077072 870.983932C706.520157 888.540863,696.654572 912.351974,696.654572 937.183090C696.654572 962.014206,706.520157 985.825317,724.077072 1003.382248C741.634003 1020.939163,765.445114 1030.804749,790.276230 1030.804749C815.107346 1030.804749,838.918457 1020.939163,856.475388 1003.382248C874.032303 985.825317,883.897888 962.014206,883.897888 937.183090Z" style="stroke:rgb(25.500488%,41.000366%,88.400269%); stroke-width: 2.500000;stroke-linecap: round;stroke-linejoin: round;stroke-miterlimit: 10.000000;fill: none;"></path>
  <path d="M962.830750 1078.128128C962.830750 1053.297012,952.965164 1029.485901,935.408249 1011.928970C917.851318 994.372055,894.040207 984.506470,869.209091 984.506470C844.377975 984.506470,820.566864 994.372055,803.009933 1011.928970C785.453018 1029.485901,775.587433 1053.297012,775.587433 1078.128128C775.587433 1102.959244,785.453018 1126.770355,803.009933 1144.327286C820.566864 1161.884201,844.377975 1171.749786,869.209091 1171.749786C894.040207 1171.749786,917.851318 1161.884201,935.408249 1144.327286C952.965164 1126.770355,962.830750 1102.959244,962.830750 1078.128128Z" style="stroke:rgb(25.500488%,41.000366%,88.400269%); stroke-width: 2.500000;stroke-linecap: round;stroke-linejoin: round;stroke-miterlimit: 10.000000;fill: none;"></path>
  <path d="M1033.796356 1213.130188C1033.796356 1188.299072,1023.930771 1164.487961,1006.373856 1146.931030C988.816925 1129.374115,965.005814 1119.508530,940.174698 1119.508530C915.343582 1119.508530,891.532471 1129.374115,873.975540 1146.931030C856.418625 1164.487961,846.553040 1188.299072,846.553040 1213.130188C846.553040 1237.961304,856.418625 1261.772415,873.975540 1279.329346C891.532471 1296.886261,915.343582 1306.751846,940.174698 1306.751846C965.005814 1306.751846,988.816925 1296.886261,1006.373856 1279.329346C1023.930771 1261.772415,1033.796356 1237.961304,1033.796356 1213.130188Z" style="stroke:rgb(25.500488%,41.000366%,88.400269%); stroke-width: 2.500000;stroke-linecap: round;stroke-linejoin: round;stroke-miterlimit: 10.000000;fill: none;"></path>
  <path d="M1113.987885 1345.420258C1113.987885 1320.589142,1104.122299 1296.778030,1086.565384 1279.221100C1069.008453 1261.664185,1045.197342 1251.798599,1020.366226 1251.798599C995.535110 1251.798599,971.723999 1261.664185,954.167068 1279.221100C936.610153 1296.778030,926.744568 1320.589142,926.744568 1345.420258C926.744568 1370.251373,936.610153 1394.062485,954.167068 1411.619415C971.723999 1429.176331,995.535110 1439.041916,1020.366226 1439.041916C1045.197342 1439.041916,1069.008453 1429.176331,1086.565384 1411.619415C1104.122299 1394.062485,1113.987885 1370.251373,1113.987885 1345.420258Z" style="stroke:rgb(25.500488%,41.000366%,88.400269%); stroke-width: 2.500000;stroke-linecap: round;stroke-linejoin: round;stroke-miterlimit: 10.000000;fill: none;"></path>
  <path d="M647.631332 247.354279C647.631332 222.523163,637.765747 198.712051,620.208832 181.155121C602.651901 163.598206,578.840790 153.732620,554.009674 153.732620C529.178558 153.732620,505.367447 163.598206,487.810516 181.155121C470.253601 198.712051,460.388016 222.523163,460.388016 247.354279C460.388016 272.185394,470.253601 295.996506,487.810516 313.553436C505.367447 331.110352,529.178558 340.975937,554.009674 340.975937C578.840790 340.975937,602.651901 331.110352,620.208832 313.553436C637.765747 295.996506,647.631332 272.185394,647.631332 247.354279Z" style="stroke:rgb(25.500488%,41.000366%,88.400269%); stroke-width: 2.500000;stroke-linecap: round;stroke-linejoin: round;stroke-miterlimit: 10.000000;fill: none;"></path>
  <path d="M725.526108 383.199768C725.526108 358.368652,715.660522 334.557541,698.103607 317.000610C680.546677 299.443695,656.735565 289.578110,631.904449 289.578110C607.073334 289.578110,583.262222 299.443695,565.705292 317.000610C548.148376 334.557541,538.282791 358.368652,538.282791 383.199768C538.282791 408.030884,548.148376 431.841995,565.705292 449.398926C583.262222 466.955841,607.073334 476.821426,631.904449 476.821426C656.735565 476.821426,680.546677 466.955841,698.103607 449.398926C715.660522 431.841995,725.526108 408.030884,725.526108 383.199768Z" style="stroke:rgb(25.500488%,41.000366%,88.400269%); stroke-width: 2.500000;stroke-linecap: round;stroke-linejoin: round;stroke-miterlimit: 10.000000;fill: none;"></path>
  <path d="M801.954605 514.685333C801.954605 489.854218,792.089020 466.043106,774.532104 448.486176C756.975174 430.929260,733.164062 421.063675,708.332947 421.063675C683.501831 421.063675,659.690720 430.929260,642.133789 448.486176C624.576874 466.043106,614.711288 489.854218,614.711288 514.685333C614.711288 539.516449,624.576874 563.327560,642.133789 580.884491C659.690720 598.441406,683.501831 608.306992,708.332947 608.306992C733.164062 608.306992,756.975174 598.441406,774.532104 580.884491C792.089020 563.327560,801.954605 539.516449,801.954605 514.685333Z" style="stroke:rgb(25.500488%,41.000366%,88.400269%); stroke-width: 2.500000;stroke-linecap: round;stroke-linejoin: round;stroke-miterlimit: 10.000000;fill: none;"></path>
  <path d="M881.679001 653.489334C881.679001 628.658218,871.813416 604.847107,854.256500 587.290176C836.699570 569.733261,812.888458 559.867676,788.057343 559.867676C763.226227 559.867676,739.415115 569.733261,721.858185 587.290176C704.301270 604.847107,694.435684 628.658218,694.435684 653.489334C694.435684 678.320450,704.301270 702.131561,721.858185 719.688492C739.415115 737.245407,763.226227 747.110992,788.057343 747.110992C812.888458 747.110992,836.699570 737.245407,854.256500 719.688492C871.813416 702.131561,881.679001 678.320450,881.679001 653.489334Z" style="stroke:rgb(25.500488%,41.000366%,88.400269%); stroke-width: 2.500000;stroke-linecap: round;stroke-linejoin: round;stroke-miterlimit: 10.000000;fill: none;"></path>
  <path d="M960.858398 796.834946C960.858398 772.003830,950.992813 748.192719,933.435898 730.635788C915.878967 713.078873,892.067856 703.213287,867.236740 703.213287C842.405624 703.213287,818.594513 713.078873,801.037582 730.635788C783.480667 748.192719,773.615082 772.003830,773.615082 796.834946C773.615082 821.666061,783.480667 845.477173,801.037582 863.034103C818.594513 880.591019,842.405624 890.456604,867.236740 890.456604C892.067856 890.456604,915.878967 880.591019,933.435898 863.034103C950.992813 845.477173,960.858398 821.666061,960.858398 796.834946Z" style="stroke:rgb(25.500488%,41.000366%,88.400269%); stroke-width: 2.500000;stroke-linecap: round;stroke-linejoin: round;stroke-miterlimit: 10.000000;fill: none;"></path>
  <path d="M1045.409851 937.079285C1045.409851 912.248169,1035.544266 888.437057,1017.987350 870.880127C1000.430420 853.323212,976.619308 843.457626,951.788193 843.457626C926.957077 843.457626,903.145966 853.323212,885.589035 870.880127C868.032120 888.437057,858.166534 912.248169,858.166534 937.079285C858.166534 961.910400,868.032120 985.721512,885.589035 1003.278442C903.145966 1020.835358,926.957077 1030.700943,951.788193 1030.700943C976.619308 1030.700943,1000.430420 1020.835358,1017.987350 1003.278442C1035.544266 985.721512,1045.409851 961.910400,1045.409851 937.079285Z" style="stroke:rgb(25.500488%,41.000366%,88.400269%); stroke-width: 2.500000;stroke-linecap: round;stroke-linejoin: round;stroke-miterlimit: 10.000000;fill: none;"></path>
  <path d="M1125.757095 1075.519958C1125.757095 1050.688843,1115.891510 1026.877731,1098.334595 1009.320801C1080.777664 991.763885,1056.966553 981.898300,1032.135437 981.898300C1007.304321 981.898300,983.493210 991.763885,965.936279 1009.320801C948.379364 1026.877731,938.513779 1050.688843,938.513779 1075.519958C938.513779 1100.351074,948.379364 1124.162186,965.936279 1141.719116C983.493210 1159.276031,1007.304321 1169.141617,1032.135437 1169.141617C1056.966553 1169.141617,1080.777664 1159.276031,1098.334595 1141.719116C1115.891510 1124.162186,1125.757095 1100.351074,1125.757095 1075.519958Z" style="stroke:rgb(25.500488%,41.000366%,88.400269%); stroke-width: 2.500000;stroke-linecap: round;stroke-linejoin: round;stroke-miterlimit: 10.000000;fill: none;"></path>
  <path d="M1201.407028 1207.446701C1201.407028 1182.615585,1191.541443 1158.804474,1173.984528 1141.247543C1156.427597 1123.690628,1132.616486 1113.825043,1107.785370 1113.825043C1082.954254 1113.825043,1059.143143 1123.690628,1041.586212 1141.247543C1024.029297 1158.804474,1014.163712 1182.615585,1014.163712 1207.446701C1014.163712 1232.277817,1024.029297 1256.088928,1041.586212 1273.645859C1059.143143 1291.202774,1082.954254 1301.068359,1107.785370 1301.068359C1132.616486 1301.068359,1156.427597 1291.202774,1173.984528 1273.645859C1191.541443 1256.088928,1201.407028 1232.277817,1201.407028 1207.446701Z" style="stroke:rgb(25.500488%,41.000366%,88.400269%); stroke-width: 2.500000;stroke-linecap: round;stroke-linejoin: round;stroke-miterlimit: 10.000000;fill: none;"></path>
  <path d="M1280.106323 1342.838028C1280.106323 1318.006912,1270.240738 1294.195801,1252.683823 1276.638870C1235.126892 1259.081955,1211.315781 1249.216370,1186.484665 1249.216370C1161.653549 1249.216370,1137.842438 1259.081955,1120.285507 1276.638870C1102.728592 1294.195801,1092.863007 1318.006912,1092.863007 1342.838028C1092.863007 1367.669144,1102.728592 1391.480255,1120.285507 1409.037186C1137.842438 1426.594101,1161.653549 1436.459686,1186.484665 1436.459686C1211.315781 1436.459686,1235.126892 1426.594101,1252.683823 1409.037186C1270.240738 1391.480255,1280.106323 1367.669144,1280.106323 1342.838028Z" style="stroke:rgb(25.500488%,41.000366%,88.400269%); stroke-width: 2.500000;stroke-linecap: round;stroke-linejoin: round;stroke-miterlimit: 10.000000;fill: none;"></path>
  <path d="M803.044586 236.688034C803.044586 211.856918,793.179001 188.045807,775.622086 170.488876C758.065155 152.931961,734.254044 143.066376,709.422928 143.066376C684.591812 143.066376,660.780701 152.931961,643.223770 170.488876C625.666855 188.045807,615.801270 211.856918,615.801270 236.688034C615.801270 261.519150,625.666855 285.330261,643.223770 302.887192C660.780701 320.444107,684.591812 330.309692,709.422928 330.309692C734.254044 330.309692,758.065155 320.444107,775.622086 302.887192C793.179001 285.330261,803.044586 261.519150,803.044586 236.688034Z" style="stroke:rgb(25.500488%,41.000366%,88.400269%); stroke-width: 2.500000;stroke-linecap: round;stroke-linejoin: round;stroke-miterlimit: 10.000000;fill: none;"></path>
  <path d="M885.091675 374.985977C885.091675 350.154861,875.226089 326.343750,857.669174 308.786819C840.112244 291.229904,816.301132 281.364319,791.470016 281.364319C766.638901 281.364319,742.827789 291.229904,725.270859 308.786819C707.713943 326.343750,697.848358 350.154861,697.848358 374.985977C697.848358 399.817093,707.713943 423.628204,725.270859 441.185135C742.827789 458.742050,766.638901 468.607635,791.470016 468.607635C816.301132 468.607635,840.112244 458.742050,857.669174 441.185135C875.226089 423.628204,885.091675 399.817093,885.091675 374.985977Z" style="stroke:rgb(25.500488%,41.000366%,88.400269%); stroke-width: 2.500000;stroke-linecap: round;stroke-linejoin: round;stroke-miterlimit: 10.000000;fill: none;"></path>
  <path d="M965.451889 513.802963C965.451889 488.971848,955.586304 465.160736,938.029388 447.603806C920.472458 430.046890,896.661346 420.181305,871.830231 420.181305C846.999115 420.181305,823.188004 430.046890,805.631073 447.603806C788.074158 465.160736,778.208572 488.971848,778.208572 513.802963C778.208572 538.634079,788.074158 562.445190,805.631073 580.002121C823.188004 597.559036,846.999115 607.424622,871.830231 607.424622C896.661346 607.424622,920.472458 597.559036,938.029388 580.002121C955.586304 562.445190,965.451889 538.634079,965.451889 513.802963Z" style="stroke:rgb(25.500488%,41.000366%,88.400269%); stroke-width: 2.500000;stroke-linecap: round;stroke-linejoin: round;stroke-miterlimit: 10.000000;fill: none;"></path>
  <path d="M1042.516205 657.122620C1042.516205 632.291504,1032.650620 608.480392,1015.093704 590.923462C997.536774 573.366547,973.725662 563.500961,948.894547 563.500961C924.063431 563.500961,900.252319 573.366547,882.695389 590.923462C865.138474 608.480392,855.272888 632.291504,855.272888 657.122620C855.272888 681.953735,865.138474 705.764847,882.695389 723.321777C900.252319 740.878693,924.063431 750.744278,948.894547 750.744278C973.725662 750.744278,997.536774 740.878693,1015.093704 723.321777C1032.650620 705.764847,1042.516205 681.953735,1042.516205 657.122620Z" style="stroke:rgb(25.500488%,41.000366%,88.400269%); stroke-width: 2.500000;stroke-linecap: round;stroke-linejoin: round;stroke-miterlimit: 10.000000;fill: none;"></path>
  <path d="M1122.681793 795.965546C1122.681793 771.134430,1112.816208 747.323318,1095.259293 729.766388C1077.702362 712.209473,1053.891251 702.343887,1029.060135 702.343887C1004.229019 702.343887,980.417908 712.209473,962.860977 729.766388C945.304062 747.323318,935.438477 771.134430,935.438477 795.965546C935.438477 820.796661,945.304062 844.607773,962.860977 862.164703C980.417908 879.721619,1004.229019 889.587204,1029.060135 889.587204C1053.891251 889.587204,1077.702362 879.721619,1095.259293 862.164703C1112.816208 844.607773,1122.681793 820.796661,1122.681793 795.965546Z" style="stroke:rgb(25.500488%,41.000366%,88.400269%); stroke-width: 2.500000;stroke-linecap: round;stroke-linejoin: round;stroke-miterlimit: 10.000000;fill: none;"></path>
  <path d="M1208.271317 934.380280C1208.271317 909.549164,1198.405731 885.738052,1180.848816 868.181122C1163.291885 850.624207,1139.480774 840.758621,1114.649658 840.758621C1089.818542 840.758621,1066.007431 850.624207,1048.450500 868.181122C1030.893585 885.738052,1021.028000 909.549164,1021.028000 934.380280C1021.028000 959.211395,1030.893585 983.022507,1048.450500 1000.579437C1066.007431 1018.136353,1089.818542 1028.001938,1114.649658 1028.001938C1139.480774 1028.001938,1163.291885 1018.136353,1180.848816 1000.579437C1198.405731 983.022507,1208.271317 959.211395,1208.271317 934.380280Z" style="stroke:rgb(25.500488%,41.000366%,88.400269%); stroke-width: 2.500000;stroke-linecap: round;stroke-linejoin: round;stroke-miterlimit: 10.000000;fill: none;"></path>
  <path d="M1288.307144 1073.378922C1288.307144 1048.547806,1278.441559 1024.736694,1260.884644 1007.179764C1243.327713 989.622849,1219.516602 979.757263,1194.685486 979.757263C1169.854370 979.757263,1146.043259 989.622849,1128.486328 1007.179764C1110.929413 1024.736694,1101.063828 1048.547806,1101.063828 1073.378922C1101.063828 1098.210037,1110.929413 1122.021149,1128.486328 1139.578079C1146.043259 1157.134995,1169.854370 1167.000580,1194.685486 1167.000580C1219.516602 1167.000580,1243.327713 1157.134995,1260.884644 1139.578079C1278.441559 1122.021149,1288.307144 1098.210037,1288.307144 1073.378922Z" style="stroke:rgb(25.500488%,41.000366%,88.400269%); stroke-width: 2.500000;stroke-linecap: round;stroke-linejoin: round;stroke-miterlimit: 10.000000;fill: none;"></path>
  <path d="M1367.045349 1213.584335C1367.045349 1188.753220,1357.179764 1164.942108,1339.622849 1147.385178C1322.065918 1129.828262,1298.254807 1119.962677,1273.423691 1119.962677C1248.592575 1119.962677,1224.781464 1129.828262,1207.224533 1147.385178C1189.667618 1164.942108,1179.802032 1188.753220,1179.802032 1213.584335C1179.802032 1238.415451,1189.667618 1262.226562,1207.224533 1279.783493C1224.781464 1297.340408,1248.592575 1307.205994,1273.423691 1307.205994C1298.254807 1307.205994,1322.065918 1297.340408,1339.622849 1279.783493C1357.179764 1262.226562,1367.045349 1238.415451,1367.045349 1213.584335Z" style="stroke:rgb(25.500488%,41.000366%,88.400269%); stroke-width: 2.500000;stroke-linecap: round;stroke-linejoin: round;stroke-miterlimit: 10.000000;fill: none;"></path>
  <path d="M966.178543 234.546997C966.178543 209.715881,956.312958 185.904770,938.756042 168.347839C921.199112 150.790924,897.388000 140.925339,872.556885 140.925339C847.725769 140.925339,823.914658 150.790924,806.357727 168.347839C788.800812 185.904770,778.935226 209.715881,778.935226 234.546997C778.935226 259.378113,788.800812 283.189224,806.357727 300.746155C823.914658 318.303070,847.725769 328.168655,872.556885 328.168655C897.388000 328.168655,921.199112 318.303070,938.756042 300.746155C956.312958 283.189224,966.178543 259.378113,966.178543 234.546997Z" style="stroke:rgb(25.500488%,41.000366%,88.400269%); stroke-width: 2.500000;stroke-linecap: round;stroke-linejoin: round;stroke-miterlimit: 10.000000;fill: none;"></path>
  <path d="M1048.173737 373.376953C1048.173737 348.545837,1038.308151 324.734726,1020.751236 307.177795C1003.194305 289.620880,979.383194 279.755295,954.552078 279.755295C929.720963 279.755295,905.909851 289.620880,888.352921 307.177795C870.796005 324.734726,860.930420 348.545837,860.930420 373.376953C860.930420 398.208069,870.796005 422.019180,888.352921 439.576111C905.909851 457.133026,929.720963 466.998611,954.552078 466.998611C979.383194 466.998611,1003.194305 457.133026,1020.751236 439.576111C1038.308151 422.019180,1048.173737 398.208069,1048.173737 373.376953Z" style="stroke:rgb(25.500488%,41.000366%,88.400269%); stroke-width: 2.500000;stroke-linecap: round;stroke-linejoin: round;stroke-miterlimit: 10.000000;fill: none;"></path>
  <path d="M1125.873871 516.709579C1125.873871 491.878464,1116.008286 468.067352,1098.451370 450.510422C1080.894440 432.953506,1057.083328 423.087921,1032.252213 423.087921C1007.421097 423.087921,983.609985 432.953506,966.053055 450.510422C948.496140 468.067352,938.630554 491.878464,938.630554 516.709579C938.630554 541.540695,948.496140 565.351807,966.053055 582.908737C983.609985 600.465652,1007.421097 610.331238,1032.252213 610.331238C1057.083328 610.331238,1080.894440 600.465652,1098.451370 582.908737C1116.008286 565.351807,1125.873871 541.540695,1125.873871 516.709579Z" style="stroke:rgb(25.500488%,41.000366%,88.400269%); stroke-width: 2.500000;stroke-linecap: round;stroke-linejoin: round;stroke-miterlimit: 10.000000;fill: none;"></path>
  <path d="M1205.585297 655.539551C1205.585297 630.708435,1195.719711 606.897324,1178.162796 589.340393C1160.605865 571.783478,1136.794754 561.917892,1111.963638 561.917892C1087.132523 561.917892,1063.321411 571.783478,1045.764481 589.340393C1028.207565 606.897324,1018.341980 630.708435,1018.341980 655.539551C1018.341980 680.370667,1028.207565 704.181778,1045.764481 721.738708C1063.321411 739.295624,1087.132523 749.161209,1111.963638 749.161209C1136.794754 749.161209,1160.605865 739.295624,1178.162796 721.738708C1195.719711 704.181778,1205.585297 680.370667,1205.585297 655.539551Z" style="stroke:rgb(25.500488%,41.000366%,88.400269%); stroke-width: 2.500000;stroke-linecap: round;stroke-linejoin: round;stroke-miterlimit: 10.000000;fill: none;"></path>
  <path d="M1285.958481 793.993195C1285.958481 769.162079,1276.092896 745.350967,1258.535980 727.794037C1240.979050 710.237122,1217.167938 700.371536,1192.336823 700.371536C1167.505707 700.371536,1143.694595 710.237122,1126.137665 727.794037C1108.580750 745.350967,1098.715164 769.162079,1098.715164 793.993195C1098.715164 818.824310,1108.580750 842.635422,1126.137665 860.192352C1143.694595 877.749268,1167.505707 887.614853,1192.336823 887.614853C1217.167938 887.614853,1240.979050 877.749268,1258.535980 860.192352C1276.092896 842.635422,1285.958481 818.824310,1285.958481 793.993195Z" style="stroke:rgb(25.500488%,41.000366%,88.400269%); stroke-width: 2.500000;stroke-linecap: round;stroke-linejoin: round;stroke-miterlimit: 10.000000;fill: none;"></path>
  <path d="M1371.236603 932.939941C1371.236603 908.108826,1361.371017 884.297714,1343.814102 866.740784C1326.257172 849.183868,1302.446060 839.318283,1277.614944 839.318283C1252.783829 839.318283,1228.972717 849.183868,1211.415787 866.740784C1193.858871 884.297714,1183.993286 908.108826,1183.993286 932.939941C1183.993286 957.771057,1193.858871 981.582169,1211.415787 999.139099C1228.972717 1016.696014,1252.783829 1026.561600,1277.614944 1026.561600C1302.446060 1026.561600,1326.257172 1016.696014,1343.814102 999.139099C1361.371017 981.582169,1371.236603 957.771057,1371.236603 932.939941Z" style="stroke:rgb(25.500488%,41.000366%,88.400269%); stroke-width: 2.500000;stroke-linecap: round;stroke-linejoin: round;stroke-miterlimit: 10.000000;fill: none;"></path>
  <path d="M1450.467896 1073.365952C1450.467896 1048.534836,1440.602310 1024.723724,1423.045395 1007.166794C1405.488464 989.609879,1381.677353 979.744293,1356.846237 979.744293C1332.015121 979.744293,1308.204010 989.609879,1290.647079 1007.166794C1273.090164 1024.723724,1263.224579 1048.534836,1263.224579 1073.365952C1263.224579 1098.197067,1273.090164 1122.008179,1290.647079 1139.565109C1308.204010 1157.122025,1332.015121 1166.987610,1356.846237 1166.987610C1381.677353 1166.987610,1405.488464 1157.122025,1423.045395 1139.565109C1440.602310 1122.008179,1450.467896 1098.197067,1450.467896 1073.365952Z" style="stroke:rgb(25.500488%,41.000366%,88.400269%); stroke-width: 2.500000;stroke-linecap: round;stroke-linejoin: round;stroke-miterlimit: 10.000000;fill: none;"></path>
  <path d="M1529.595398 1213.337799C1529.595398 1188.506683,1519.729813 1164.695572,1502.172897 1147.138641C1484.615967 1129.581726,1460.804855 1119.716141,1435.973740 1119.716141C1411.142624 1119.716141,1387.331512 1129.581726,1369.774582 1147.138641C1352.217667 1164.695572,1342.352081 1188.506683,1342.352081 1213.337799C1342.352081 1238.168915,1352.217667 1261.980026,1369.774582 1279.536957C1387.331512 1297.093872,1411.142624 1306.959457,1435.973740 1306.959457C1460.804855 1306.959457,1484.615967 1297.093872,1502.172897 1279.536957C1519.729813 1261.980026,1529.595398 1238.168915,1529.595398 1213.337799Z" style="stroke:rgb(25.500488%,41.000366%,88.400269%); stroke-width: 2.500000;stroke-linecap: round;stroke-linejoin: round;stroke-miterlimit: 10.000000;fill: none;"></path>
  <path d="M1047.966125 94.432419C1047.966125 69.601303,1038.100540 45.790192,1020.543625 28.233261C1002.986694 10.676346,979.175583 0.810760,954.344467 0.810760C929.513351 0.810760,905.702240 10.676346,888.145309 28.233261C870.588394 45.790192,860.722809 69.601303,860.722809 94.432419C860.722809 119.263535,870.588394 143.074646,888.145309 160.631577C905.702240 178.188492,929.513351 188.054077,954.344467 188.054077C979.175583 188.054077,1002.986694 178.188492,1020.543625 160.631577C1038.100540 143.074646,1047.966125 119.263535,1047.966125 94.432419Z" style="stroke:rgb(25.500488%,41.000366%,88.400269%); stroke-width: 2.500000;stroke-linecap: round;stroke-linejoin: round;stroke-miterlimit: 10.000000;fill: none;"></path>
  <path d="M1129.442276 233.262375C1129.442276 208.431259,1119.576691 184.620148,1102.019775 167.063217C1084.462845 149.506302,1060.651733 139.640717,1035.820618 139.640717C1010.989502 139.640717,987.178391 149.506302,969.621460 167.063217C952.064545 184.620148,942.198959 208.431259,942.198959 233.262375C942.198959 258.093491,952.064545 281.904602,969.621460 299.461533C987.178391 317.018448,1010.989502 326.884033,1035.820618 326.884033C1060.651733 326.884033,1084.462845 317.018448,1102.019775 299.461533C1119.576691 281.904602,1129.442276 258.093491,1129.442276 233.262375Z" style="stroke:rgb(25.500488%,41.000366%,88.400269%); stroke-width: 2.500000;stroke-linecap: round;stroke-linejoin: round;stroke-miterlimit: 10.000000;fill: none;"></path>
  <path d="M1208.790359 376.620956C1208.790359 351.789841,1198.924774 327.978729,1181.367859 310.421799C1163.810928 292.864883,1139.999817 282.999298,1115.168701 282.999298C1090.337585 282.999298,1066.526474 292.864883,1048.969543 310.421799C1031.412628 327.978729,1021.547043 351.789841,1021.547043 376.620956C1021.547043 401.452072,1031.412628 425.263184,1048.969543 442.820114C1066.526474 460.377029,1090.337585 470.242615,1115.168701 470.242615C1139.999817 470.242615,1163.810928 460.377029,1181.367859 442.820114C1198.924774 425.263184,1208.790359 401.452072,1208.790359 376.620956Z" style="stroke:rgb(25.500488%,41.000366%,88.400269%); stroke-width: 2.500000;stroke-linecap: round;stroke-linejoin: round;stroke-miterlimit: 10.000000;fill: none;"></path>
  <path d="M1288.929977 515.126511C1288.929977 490.295395,1279.064392 466.484283,1261.507477 448.927353C1243.950546 431.370438,1220.139435 421.504852,1195.308319 421.504852C1170.477203 421.504852,1146.666092 431.370438,1129.109161 448.927353C1111.552246 466.484283,1101.686661 490.295395,1101.686661 515.126511C1101.686661 539.957626,1111.552246 563.768738,1129.109161 581.325668C1146.666092 598.882584,1170.477203 608.748169,1195.308319 608.748169C1220.139435 608.748169,1243.950546 598.882584,1261.507477 581.325668C1279.064392 563.768738,1288.929977 539.957626,1288.929977 515.126511Z" style="stroke:rgb(25.500488%,41.000366%,88.400269%); stroke-width: 2.500000;stroke-linecap: round;stroke-linejoin: round;stroke-miterlimit: 10.000000;fill: none;"></path>
  <path d="M1368.862000 653.567200C1368.862000 628.736084,1358.996414 604.924973,1341.439499 587.368042C1323.882568 569.811127,1300.071457 559.945541,1275.240341 559.945541C1250.409225 559.945541,1226.598114 569.811127,1209.041183 587.368042C1191.484268 604.924973,1181.618683 628.736084,1181.618683 653.567200C1181.618683 678.398315,1191.484268 702.209427,1209.041183 719.766357C1226.598114 737.323273,1250.409225 747.188858,1275.240341 747.188858C1300.071457 747.188858,1323.882568 737.323273,1341.439499 719.766357C1358.996414 702.209427,1368.862000 678.398315,1368.862000 653.567200Z" style="stroke:rgb(25.500488%,41.000366%,88.400269%); stroke-width: 2.500000;stroke-linecap: round;stroke-linejoin: round;stroke-miterlimit: 10.000000;fill: none;"></path>
  <path d="M1448.729126 792.228470C1448.729126 767.397354,1438.863541 743.586243,1421.306625 726.029312C1403.749695 708.472397,1379.938583 698.606812,1355.107468 698.606812C1330.276352 698.606812,1306.465240 708.472397,1288.908310 726.029312C1271.351395 743.586243,1261.485809 767.397354,1261.485809 792.228470C1261.485809 817.059586,1271.351395 840.870697,1288.908310 858.427628C1306.465240 875.984543,1330.276352 885.850128,1355.107468 885.850128C1379.938583 885.850128,1403.749695 875.984543,1421.306625 858.427628C1438.863541 840.870697,1448.729126 817.059586,1448.729126 792.228470Z" style="stroke:rgb(25.500488%,41.000366%,88.400269%); stroke-width: 2.500000;stroke-linecap: round;stroke-linejoin: round;stroke-miterlimit: 10.000000;fill: none;"></path>
  <path d="M1533.215698 932.615540C1533.215698 907.784424,1523.350113 883.973312,1505.793198 866.416382C1488.236267 848.859467,1464.425156 838.993881,1439.594040 838.993881C1414.762924 838.993881,1390.951813 848.859467,1373.394882 866.416382C1355.837967 883.973312,1345.972382 907.784424,1345.972382 932.615540C1345.972382 957.446655,1355.837967 981.257767,1373.394882 998.814697C1390.951813 1016.371613,1414.762924 1026.237198,1439.594040 1026.237198C1464.425156 1026.237198,1488.236267 1016.371613,1505.793198 998.814697C1523.350113 981.257767,1533.215698 957.446655,1533.215698 932.615540Z" style="stroke:rgb(25.500488%,41.000366%,88.400269%); stroke-width: 2.500000;stroke-linecap: round;stroke-linejoin: round;stroke-miterlimit: 10.000000;fill: none;"></path>
  <path d="M1212.125183 94.730865C1212.125183 69.899750,1202.259598 46.088638,1184.702682 28.531708C1167.145752 10.974792,1143.334641 1.109207,1118.503525 1.109207C1093.672409 1.109207,1069.861298 10.974792,1052.304367 28.531708C1034.747452 46.088638,1024.881866 69.899750,1024.881866 94.730865C1024.881866 119.561981,1034.747452 143.373093,1052.304367 160.930023C1069.861298 178.486938,1093.672409 188.352524,1118.503525 188.352524C1143.334641 188.352524,1167.145752 178.486938,1184.702682 160.930023C1202.259598 143.373093,1212.125183 119.561981,1212.125183 94.730865Z" style="stroke:rgb(25.500488%,41.000366%,88.400269%); stroke-width: 2.500000;stroke-linecap: round;stroke-linejoin: round;stroke-miterlimit: 10.000000;fill: none;"></path>
  <path d="M1290.928284 238.089432C1290.928284 213.258316,1281.062698 189.447205,1263.505783 171.890274C1245.948853 154.333359,1222.137741 144.467773,1197.306625 144.467773C1172.475510 144.467773,1148.664398 154.333359,1131.107468 171.890274C1113.550552 189.447205,1103.684967 213.258316,1103.684967 238.089432C1103.684967 262.920547,1113.550552 286.731659,1131.107468 304.288589C1148.664398 321.845505,1172.475510 331.711090,1197.306625 331.711090C1222.137741 331.711090,1245.948853 321.845505,1263.505783 304.288589C1281.062698 286.731659,1290.928284 262.920547,1290.928284 238.089432Z" style="stroke:rgb(25.500488%,41.000366%,88.400269%); stroke-width: 2.500000;stroke-linecap: round;stroke-linejoin: round;stroke-miterlimit: 10.000000;fill: none;"></path>
  <path d="M1372.041107 374.713486C1372.041107 349.882370,1362.175522 326.071259,1344.618607 308.514328C1327.061676 290.957413,1303.250565 281.091827,1278.419449 281.091827C1253.588333 281.091827,1229.777222 290.957413,1212.220291 308.514328C1194.663376 326.071259,1184.797791 349.882370,1184.797791 374.713486C1184.797791 399.544601,1194.663376 423.355713,1212.220291 440.912643C1229.777222 458.469559,1253.588333 468.335144,1278.419449 468.335144C1303.250565 468.335144,1327.061676 458.469559,1344.618607 440.912643C1362.175522 423.355713,1372.041107 399.544601,1372.041107 374.713486Z" style="stroke:rgb(25.500488%,41.000366%,88.400269%); stroke-width: 2.500000;stroke-linecap: round;stroke-linejoin: round;stroke-miterlimit: 10.000000;fill: none;"></path>
  <path d="M1452.206680 513.154160C1452.206680 488.323044,1442.341095 464.511932,1424.784180 446.955002C1407.227249 429.398087,1383.416138 419.532501,1358.585022 419.532501C1333.753906 419.532501,1309.942795 429.398087,1292.385864 446.955002C1274.828949 464.511932,1264.963364 488.323044,1264.963364 513.154160C1264.963364 537.985275,1274.828949 561.796387,1292.385864 579.353317C1309.942795 596.910233,1333.753906 606.775818,1358.585022 606.775818C1383.416138 606.775818,1407.227249 596.910233,1424.784180 579.353317C1442.341095 561.796387,1452.206680 537.985275,1452.206680 513.154160Z" style="stroke:rgb(25.500488%,41.000366%,88.400269%); stroke-width: 2.500000;stroke-linecap: round;stroke-linejoin: round;stroke-miterlimit: 10.000000;fill: none;"></path>
  <path d="M1532.021912 651.802460C1532.021912 626.971344,1522.156326 603.160233,1504.599411 585.603302C1487.042480 568.046387,1463.231369 558.180801,1438.400253 558.180801C1413.569138 558.180801,1389.758026 568.046387,1372.201096 585.603302C1354.644180 603.160233,1344.778595 626.971344,1344.778595 651.802460C1344.778595 676.633575,1354.644180 700.444687,1372.201096 718.001617C1389.758026 735.558533,1413.569138 745.424118,1438.400253 745.424118C1463.231369 745.424118,1487.042480 735.558533,1504.599411 718.001617C1522.156326 700.444687,1532.021912 676.633575,1532.021912 651.802460Z" style="stroke:rgb(25.500488%,41.000366%,88.400269%); stroke-width: 2.500000;stroke-linecap: round;stroke-linejoin: round;stroke-miterlimit: 10.000000;fill: none;"></path>
  <path d="M1609.773956 790.359924C1609.773956 765.528809,1599.908371 741.717697,1582.351456 724.160767C1564.794525 706.603851,1540.983414 696.738266,1516.152298 696.738266C1491.321182 696.738266,1467.510071 706.603851,1449.953140 724.160767C1432.396225 741.717697,1422.530640 765.528809,1422.530640 790.359924C1422.530640 815.191040,1432.396225 839.002151,1449.953140 856.559082C1467.510071 874.115997,1491.321182 883.981583,1516.152298 883.981583C1540.983414 883.981583,1564.794525 874.115997,1582.351456 856.559082C1599.908371 839.002151,1609.773956 815.191040,1609.773956 790.359924Z" style="stroke:rgb(25.500488%,41.000366%,88.400269%); stroke-width: 2.500000;stroke-linecap: round;stroke-linejoin: round;stroke-miterlimit: 10.000000;fill: none;"></path>
  <path d="M1373.455490 99.285431C1373.455490 74.454315,1363.589905 50.643204,1346.032990 33.086273C1328.476059 15.529358,1304.664948 5.663773,1279.833832 5.663773C1255.002716 5.663773,1231.191605 15.529358,1213.634674 33.086273C1196.077759 50.643204,1186.212173 74.454315,1186.212173 99.285431C1186.212173 124.116547,1196.077759 147.927658,1213.634674 165.484589C1231.191605 183.041504,1255.002716 192.907089,1279.833832 192.907089C1304.664948 192.907089,1328.476059 183.041504,1346.032990 165.484589C1363.589905 147.927658,1373.455490 124.116547,1373.455490 99.285431Z" style="stroke:rgb(25.500488%,41.000366%,88.400269%); stroke-width: 2.500000;stroke-linecap: round;stroke-linejoin: round;stroke-miterlimit: 10.000000;fill: none;"></path>
  <path d="M1615.366592 511.376450C1615.366592 486.545334,1605.501007 462.734222,1587.944092 445.177292C1570.387161 427.620377,1546.576050 417.754791,1521.744934 417.754791C1496.913818 417.754791,1473.102707 427.620377,1455.545776 445.177292C1437.988861 462.734222,1428.123276 486.545334,1428.123276 511.376450C1428.123276 536.207565,1437.988861 560.018677,1455.545776 577.575607C1473.102707 595.132523,1496.913818 604.998108,1521.744934 604.998108C1546.576050 604.998108,1570.387161 595.132523,1587.944092 577.575607C1605.501007 560.018677,1615.366592 536.207565,1615.366592 511.376450Z" style="stroke:rgb(25.500488%,41.000366%,88.400269%); stroke-width: 2.500000;stroke-linecap: round;stroke-linejoin: round;stroke-miterlimit: 10.000000;fill: none;"></path>
  <path d="M1695.194794 650.011780C1695.194794 625.180664,1685.329208 601.369553,1667.772293 583.812622C1650.215363 566.255707,1626.404251 556.390121,1601.573135 556.390121C1576.742020 556.390121,1552.930908 566.255707,1535.373978 583.812622C1517.817062 601.369553,1507.951477 625.180664,1507.951477 650.011780C1507.951477 674.842896,1517.817062 698.654007,1535.373978 716.210938C1552.930908 733.767853,1576.742020 743.633438,1601.573135 743.633438C1626.404251 743.633438,1650.215363 733.767853,1667.772293 716.210938C1685.329208 698.654007,1695.194794 674.842896,1695.194794 650.011780Z" style="stroke:rgb(25.500488%,41.000366%,88.400269%); stroke-width: 2.500000;stroke-linecap: round;stroke-linejoin: round;stroke-miterlimit: 10.000000;fill: none;"></path>
  <path d="M722.295090 96.560471C722.295090 71.729355,712.429504 47.918243,694.872589 30.361313C677.315659 12.804398,653.504547 2.938812,628.673431 2.938812C603.842316 2.938812,580.031204 12.804398,562.474274 30.361313C544.917358 47.918243,535.051773 71.729355,535.051773 96.560471C535.051773 121.391586,544.917358 145.202698,562.474274 162.759628C580.031204 180.316544,603.842316 190.182129,628.673431 190.182129C653.504547 190.182129,677.315659 180.316544,694.872589 162.759628C712.429504 145.202698,722.295090 121.391586,722.295090 96.560471Z" style="stroke:rgb(25.500488%,41.000366%,88.400269%); stroke-width: 2.500000;stroke-linecap: round;stroke-linejoin: round;stroke-miterlimit: 10.000000;fill: none;"></path>
  <path d="M1455.178177 234.287476C1455.178177 209.456360,1445.312592 185.645248,1427.755676 168.088318C1410.198746 150.531403,1386.387634 140.665817,1361.556519 140.665817C1336.725403 140.665817,1312.914291 150.531403,1295.357361 168.088318C1277.800446 185.645248,1267.934860 209.456360,1267.934860 234.287476C1267.934860 259.118591,1277.800446 282.929703,1295.357361 300.486633C1312.914291 318.043549,1336.725403 327.909134,1361.556519 327.909134C1386.387634 327.909134,1410.198746 318.043549,1427.755676 300.486633C1445.312592 282.929703,1455.178177 259.118591,1455.178177 234.287476Z" style="stroke:rgb(25.500488%,41.000366%,88.400269%); stroke-width: 2.500000;stroke-linecap: round;stroke-linejoin: round;stroke-miterlimit: 10.000000;fill: none;"></path>
  <path d="M1694.520050 930.279877C1694.520050 905.448761,1684.654465 881.637650,1667.097549 864.080719C1649.540619 846.523804,1625.729507 836.658218,1600.898392 836.658218C1576.067276 836.658218,1552.256165 846.523804,1534.699234 864.080719C1517.142319 881.637650,1507.276733 905.448761,1507.276733 930.279877C1507.276733 955.110992,1517.142319 978.922104,1534.699234 996.479034C1552.256165 1014.035950,1576.067276 1023.901535,1600.898392 1023.901535C1625.729507 1023.901535,1649.540619 1014.035950,1667.097549 996.479034C1684.654465 978.922104,1694.520050 955.110992,1694.520050 930.279877Z" style="stroke:rgb(25.500488%,41.000366%,88.400269%); stroke-width: 2.500000;stroke-linecap: round;stroke-linejoin: round;stroke-miterlimit: 10.000000;fill: none;"></path>
  <path d="M884.520737 96.041443C884.520737 71.210327,874.655151 47.399216,857.098236 29.842285C839.541306 12.285370,815.730194 2.419785,790.899078 2.419785C766.067963 2.419785,742.256851 12.285370,724.699921 29.842285C707.143005 47.399216,697.277420 71.210327,697.277420 96.041443C697.277420 120.872559,707.143005 144.683670,724.699921 162.240601C742.256851 179.797516,766.067963 189.663101,790.899078 189.663101C815.730194 189.663101,839.541306 179.797516,857.098236 162.240601C874.655151 144.683670,884.520737 120.872559,884.520737 96.041443Z" style="stroke:rgb(25.500488%,41.000366%,88.400269%); stroke-width: 2.500000;stroke-linecap: round;stroke-linejoin: round;stroke-miterlimit: 10.000000;fill: none;"></path>
  <path d="M313.097702 543.271408C313.097702 518.440292,303.232117 494.629181,285.675201 477.072250C268.118271 459.515335,244.307159 449.649750,219.476044 449.649750C194.644928 449.649750,170.833817 459.515335,153.276886 477.072250C135.719971 494.629181,125.854385 518.440292,125.854385 543.271408C125.854385 568.102524,135.719971 591.913635,153.276886 609.470566C170.833817 627.027481,194.644928 636.893066,219.476044 636.893066C244.307159 636.893066,268.118271 627.027481,285.675201 609.470566C303.232117 591.913635,313.097702 568.102524,313.097702 543.271408Z" style="stroke:rgb(25.500488%,41.000366%,88.400269%); stroke-width: 2.500000;stroke-linecap: round;stroke-linejoin: round;stroke-miterlimit: 10.000000;fill: none;"></path>
  <path d="M1025.945892 1480.578018C1025.945892 1455.746902,1016.080307 1431.935791,998.523392 1414.378860C980.966461 1396.821945,957.155350 1386.956360,932.324234 1386.956360C907.493118 1386.956360,883.682007 1396.821945,866.125076 1414.378860C848.568161 1431.935791,838.702576 1455.746902,838.702576 1480.578018C838.702576 1505.409134,848.568161 1529.220245,866.125076 1546.777176C883.682007 1564.334091,907.493118 1574.199677,932.324234 1574.199677C957.155350 1574.199677,980.966461 1564.334091,998.523392 1546.777176C1016.080307 1529.220245,1025.945892 1505.409134,1025.945892 1480.578018Z" style="stroke:rgb(25.500488%,41.000366%,88.400269%); stroke-width: 2.500000;stroke-linecap: round;stroke-linejoin: round;stroke-miterlimit: 10.000000;fill: none;"></path>
  <path d="M1612.706528 1072.600372C1612.706528 1047.769257,1602.840942 1023.958145,1585.284027 1006.401215C1567.727097 988.844299,1543.915985 978.978714,1519.084869 978.978714C1494.253754 978.978714,1470.442642 988.844299,1452.885712 1006.401215C1435.328796 1023.958145,1425.463211 1047.769257,1425.463211 1072.600372C1425.463211 1097.431488,1435.328796 1121.242599,1452.885712 1138.799530C1470.442642 1156.356445,1494.253754 1166.222031,1519.084869 1166.222031C1543.915985 1166.222031,1567.727097 1156.356445,1585.284027 1138.799530C1602.840942 1121.242599,1612.706528 1097.431488,1612.706528 1072.600372Z" style="stroke:rgb(25.500488%,41.000366%,88.400269%); stroke-width: 2.500000;stroke-linecap: round;stroke-linejoin: round;stroke-miterlimit: 10.000000;fill: none;"></path>
  <path d="M1535.330780 372.728165C1535.330780 347.897049,1525.465195 324.085938,1507.908279 306.529007C1490.351349 288.972092,1466.540237 279.106506,1441.709122 279.106506C1416.878006 279.106506,1393.066895 288.972092,1375.509964 306.529007C1357.953049 324.085938,1348.087463 347.897049,1348.087463 372.728165C1348.087463 397.559280,1357.953049 421.370392,1375.509964 438.927322C1393.066895 456.484238,1416.878006 466.349823,1441.709122 466.349823C1466.540237 466.349823,1490.351349 456.484238,1507.908279 438.927322C1525.465195 421.370392,1535.330780 397.559280,1535.330780 372.728165Z" style="stroke:rgb(25.500488%,41.000366%,88.400269%); stroke-width: 2.500000;stroke-linecap: round;stroke-linejoin: round;stroke-miterlimit: 10.000000;fill: none;"></path>
  <path d="M1448.028412 1353.582138C1448.028412 1328.751022,1438.162827 1304.939911,1420.605911 1287.382980C1403.048981 1269.826065,1379.237869 1259.960480,1354.406754 1259.960480C1329.575638 1259.960480,1305.764526 1269.826065,1288.207596 1287.382980C1270.650681 1304.939911,1260.785095 1328.751022,1260.785095 1353.582138C1260.785095 1378.413254,1270.650681 1402.224365,1288.207596 1419.781296C1305.764526 1437.338211,1329.575638 1447.203796,1354.406754 1447.203796C1379.237869 1447.203796,1403.048981 1437.338211,1420.605911 1419.781296C1438.162827 1402.224365,1448.028412 1378.413254,1448.028412 1353.582138Z" style="stroke:rgb(25.500488%,41.000366%,88.400269%); stroke-width: 2.500000;stroke-linecap: round;stroke-linejoin: round;stroke-miterlimit: 10.000000;fill: none;"></path>
  <path d="M188.320724 832.103638C188.320724 807.272522,178.455139 783.461411,160.898224 765.904480C143.341293 748.347565,119.530182 738.481979,94.699066 738.481979C69.867950 738.481979,46.056839 748.347565,28.499908 765.904480C10.942993 783.461411,1.077408 807.272522,1.077408 832.103638C1.077408 856.934753,10.942993 880.745865,28.499908 898.302795C46.056839 915.859711,69.867950 925.725296,94.699066 925.725296C119.530182 925.725296,143.341293 915.859711,160.898224 898.302795C178.455139 880.745865,188.320724 856.934753,188.320724 832.103638Z" style="stroke:rgb(25.500488%,41.000366%,88.400269%); stroke-width: 2.500000;stroke-linecap: round;stroke-linejoin: round;stroke-miterlimit: 10.000000;fill: none;"></path>
  <path d="M484.834747 253.297287C484.834747 228.466171,474.969162 204.655060,457.412247 187.098129C439.855316 169.541214,416.044205 159.675629,391.213089 159.675629C366.381973 159.675629,342.570862 169.541214,325.013931 187.098129C307.457016 204.655060,297.591431 228.466171,297.591431 253.297287C297.591431 278.128403,307.457016 301.939514,325.013931 319.496445C342.570862 337.053360,366.381973 346.918945,391.213089 346.918945C416.044205 346.918945,439.855316 337.053360,457.412247 319.496445C474.969162 301.939514,484.834747 278.128403,484.834747 253.297287Z" style="stroke:rgb(25.500488%,41.000366%,88.400269%); stroke-width: 2.500000;stroke-linecap: round;stroke-linejoin: round;stroke-miterlimit: 10.000000;fill: none;"></path>
  <path d="M373.410034 1136.000992C373.410034 1111.169876,363.544449 1087.358765,345.987534 1069.801834C328.430603 1052.244919,304.619492 1042.379333,279.788376 1042.379333C254.957260 1042.379333,231.146149 1052.244919,213.589218 1069.801834C196.032303 1087.358765,186.166718 1111.169876,186.166718 1136.000992C186.166718 1160.832108,196.032303 1184.643219,213.589218 1202.200150C231.146149 1219.757065,254.957260 1229.622650,279.788376 1229.622650C304.619492 1229.622650,328.430603 1219.757065,345.987534 1202.200150C363.544449 1184.643219,373.410034 1160.832108,373.410034 1136.000992Z" style="stroke:rgb(25.500488%,41.000366%,88.400269%); stroke-width: 2.500000;stroke-linecap: round;stroke-linejoin: round;stroke-miterlimit: 10.000000;fill: none;"></path>
  <path d="M1771.246994 788.296753C1771.246994 763.465637,1761.381409 739.654526,1743.824493 722.097595C1726.267563 704.540680,1702.456451 694.675095,1677.625336 694.675095C1652.794220 694.675095,1628.983109 704.540680,1611.426178 722.097595C1593.869263 739.654526,1584.003677 763.465637,1584.003677 788.296753C1584.003677 813.127869,1593.869263 836.938980,1611.426178 854.495911C1628.983109 872.052826,1652.794220 881.918411,1677.625336 881.918411C1702.456451 881.918411,1726.267563 872.052826,1743.824493 854.495911C1761.381409 836.938980,1771.246994 813.127869,1771.246994 788.296753Z" style="stroke:rgb(25.500488%,41.000366%,88.400269%); stroke-width: 2.500000;stroke-linecap: round;stroke-linejoin: round;stroke-miterlimit: 10.000000;fill: none;"></path>
  <path d="M229.233978 691.755493C229.233978 666.924377,219.368393 643.113266,201.811478 625.556335C184.254547 607.999420,160.443436 598.133835,135.612320 598.133835C110.781204 598.133835,86.970093 607.999420,69.413162 625.556335C51.856247 643.113266,41.990662 666.924377,41.990662 691.755493C41.990662 716.586609,51.856247 740.397720,69.413162 757.954651C86.970093 775.511566,110.781204 785.377151,135.612320 785.377151C160.443436 785.377151,184.254547 775.511566,201.811478 757.954651C219.368393 740.397720,229.233978 716.586609,229.233978 691.755493Z" style="stroke:rgb(25.500488%,41.000366%,88.400269%); stroke-width: 2.500000;stroke-linecap: round;stroke-linejoin: round;stroke-miterlimit: 10.000000;fill: none;"></path>
  <path d="M401.256485 398.589279C401.256485 373.758163,391.390900 349.947052,373.833984 332.390121C356.277054 314.833206,332.465942 304.967621,307.634827 304.967621C282.803711 304.967621,258.992599 314.833206,241.435669 332.390121C223.878754 349.947052,214.013168 373.758163,214.013168 398.589279C214.013168 423.420395,223.878754 447.231506,241.435669 464.788437C258.992599 482.345352,282.803711 492.210938,307.634827 492.210938C332.465942 492.210938,356.277054 482.345352,373.833984 464.788437C391.390900 447.231506,401.256485 423.420395,401.256485 398.589279Z" style="stroke:rgb(25.500488%,41.000366%,88.400269%); stroke-width: 2.500000;stroke-linecap: round;stroke-linejoin: round;stroke-miterlimit: 10.000000;fill: none;"></path>
  <path d="M452.096359 1294.178131C452.096359 1269.347015,442.230774 1245.535904,424.673859 1227.978973C407.116928 1210.422058,383.305817 1200.556473,358.474701 1200.556473C333.643585 1200.556473,309.832474 1210.422058,292.275543 1227.978973C274.718628 1245.535904,264.853043 1269.347015,264.853043 1294.178131C264.853043 1319.009247,274.718628 1342.820358,292.275543 1360.377289C309.832474 1377.934204,333.643585 1387.799789,358.474701 1387.799789C383.305817 1387.799789,407.116928 1377.934204,424.673859 1360.377289C442.230774 1342.820358,452.096359 1319.009247,452.096359 1294.178131Z" style="stroke:rgb(25.500488%,41.000366%,88.400269%); stroke-width: 2.500000;stroke-linecap: round;stroke-linejoin: round;stroke-miterlimit: 10.000000;fill: none;"></path>
  <path d="M1193.556564 1480.850510C1193.556564 1456.019394,1183.690979 1432.208282,1166.134064 1414.651352C1148.577133 1397.094437,1124.766022 1387.228851,1099.934906 1387.228851C1075.103790 1387.228851,1051.292679 1397.094437,1033.735748 1414.651352C1016.178833 1432.208282,1006.313248 1456.019394,1006.313248 1480.850510C1006.313248 1505.681625,1016.178833 1529.492737,1033.735748 1547.049667C1051.292679 1564.606583,1075.103790 1574.472168,1099.934906 1574.472168C1124.766022 1574.472168,1148.577133 1564.606583,1166.134064 1547.049667C1183.690979 1529.492737,1193.556564 1505.681625,1193.556564 1480.850510Z" style="stroke:rgb(25.500488%,41.000366%,88.400269%); stroke-width: 2.500000;stroke-linecap: round;stroke-linejoin: round;stroke-miterlimit: 10.000000;fill: none;"></path>
  <path d="M686.053192 1482.978561C686.053192 1458.147446,676.187607 1434.336334,658.630692 1416.779404C641.073761 1399.222488,617.262650 1389.356903,592.431534 1389.356903C567.600418 1389.356903,543.789307 1399.222488,526.232376 1416.779404C508.675461 1434.336334,498.809875 1458.147446,498.809875 1482.978561C498.809875 1507.809677,508.675461 1531.620789,526.232376 1549.177719C543.789307 1566.734634,567.600418 1576.600220,592.431534 1576.600220C617.262650 1576.600220,641.073761 1566.734634,658.630692 1549.177719C676.187607 1531.620789,686.053192 1507.809677,686.053192 1482.978561Z" style="stroke:rgb(25.500488%,41.000366%,88.400269%); stroke-width: 2.500000;stroke-linecap: round;stroke-linejoin: round;stroke-miterlimit: 10.000000;fill: none;"></path>
  <path d="M275.765823 988.762589C275.765823 963.931473,265.900238 940.120361,248.343323 922.563431C230.786392 905.006516,206.975281 895.140930,182.144165 895.140930C157.313049 895.140930,133.501938 905.006516,115.945007 922.563431C98.388092 940.120361,88.522507 963.931473,88.522507 988.762589C88.522507 1013.593704,98.388092 1037.404816,115.945007 1054.961746C133.501938 1072.518661,157.313049 1082.384247,182.144165 1082.384247C206.975281 1082.384247,230.786392 1072.518661,248.343323 1054.961746C265.900238 1037.404816,275.765823 1013.593704,275.765823 988.762589Z" style="stroke:rgb(25.500488%,41.000366%,88.400269%); stroke-width: 2.500000;stroke-linecap: round;stroke-linejoin: round;stroke-miterlimit: 10.000000;fill: none;"></path>
  <path d="M570.463196 110.743210C570.463196 85.912094,560.597610 62.100983,543.040695 44.544052C525.483765 26.987137,501.672653 17.121552,476.841537 17.121552C452.010422 17.121552,428.199310 26.987137,410.642380 44.544052C393.085464 62.100983,383.219879 85.912094,383.219879 110.743210C383.219879 135.574326,393.085464 159.385437,410.642380 176.942368C428.199310 194.499283,452.010422 204.364868,476.841537 204.364868C501.672653 204.364868,525.483765 194.499283,543.040695 176.942368C560.597610 159.385437,570.463196 135.574326,570.463196 110.743210Z" style="stroke:rgb(25.500488%,41.000366%,88.400269%); stroke-width: 2.500000;stroke-linecap: round;stroke-linejoin: round;stroke-miterlimit: 10.000000;fill: none;"></path>
  <path d="M856.570480 1484.587585C856.570480 1459.756470,846.704895 1435.945358,829.147980 1418.388428C811.591049 1400.831512,787.779938 1390.965927,762.948822 1390.965927C738.117706 1390.965927,714.306595 1400.831512,696.749664 1418.388428C679.192749 1435.945358,669.327164 1459.756470,669.327164 1484.587585C669.327164 1509.418701,679.192749 1533.229813,696.749664 1550.786743C714.306595 1568.343658,738.117706 1578.209244,762.948822 1578.209244C787.779938 1578.209244,811.591049 1568.343658,829.147980 1550.786743C846.704895 1533.229813,856.570480 1509.418701,856.570480 1484.587585Z" style="stroke:rgb(25.500488%,41.000366%,88.400269%); stroke-width: 2.500000;stroke-linecap: round;stroke-linejoin: round;stroke-miterlimit: 10.000000;fill: none;"></path>
  <path d="M544.044113 1448.241882C544.044113 1423.410767,534.178528 1399.599655,516.621613 1382.042725C499.064682 1364.485809,475.253571 1354.620224,450.422455 1354.620224C425.591339 1354.620224,401.780228 1364.485809,384.223297 1382.042725C366.666382 1399.599655,356.800797 1423.410767,356.800797 1448.241882C356.800797 1473.072998,366.666382 1496.884109,384.223297 1514.441040C401.780228 1531.997955,425.591339 1541.863541,450.422455 1541.863541C475.253571 1541.863541,499.064682 1531.997955,516.621613 1514.441040C534.178528 1496.884109,544.044113 1473.072998,544.044113 1448.241882Z" style="stroke:rgb(25.500488%,41.000366%,88.400269%); stroke-width: 2.500000;stroke-linecap: round;stroke-linejoin: round;stroke-miterlimit: 10.000000;fill: none;"></path>
  <path d="M1359.817734 1477.969833C1359.817734 1453.138718,1349.952148 1429.327606,1332.395233 1411.770676C1314.838303 1394.213760,1291.027191 1384.348175,1266.196075 1384.348175C1241.364960 1384.348175,1217.553848 1394.213760,1199.996918 1411.770676C1182.440002 1429.327606,1172.574417 1453.138718,1172.574417 1477.969833C1172.574417 1502.800949,1182.440002 1526.612061,1199.996918 1544.168991C1217.553848 1561.725906,1241.364960 1571.591492,1266.196075 1571.591492C1291.027191 1571.591492,1314.838303 1561.725906,1332.395233 1544.168991C1349.952148 1526.612061,1359.817734 1502.800949,1359.817734 1477.969833Z" style="stroke:rgb(25.500488%,41.000366%,88.400269%); stroke-width: 2.500000;stroke-linecap: round;stroke-linejoin: round;stroke-miterlimit: 10.000000;fill: none;"></path>
</svg>
