<?xml version="1.0"?>
<!-- Created by MetaPost 2.00 on 2022.03.02:1201 -->
<svg version="1.1" xmlns="http://www.w3.org/2000/svg" xmlns:xlink="http://www.w3.org/1999/xlink" width="1694.087067" height="1735.156036" viewBox="0 0 1694.087067 1735.156036">
<!-- Original BoundingBox: -840.315491 -844.130432 853.771576 891.025604 -->
  <path d="M840.000000 40.606476L175.136978 360.788666L10.926010 1080.228653L471.028137 1657.179443L1208.971863 1657.179443L1669.073990 1080.228653L1504.863022 360.788666L840.000000 40.606476Z" style="fill: rgb(100.000000%,100.000000%,100.000000%);stroke: none;"></path>
  <path d="M840.000000 40.606476L175.136978 360.788666" style="stroke:rgb(0.000000%,0.000000%,0.000000%); stroke-width: 2.500000;stroke-linecap: round;stroke-linejoin: round;stroke-miterlimit: 10.000000;fill: none;"></path>
  <path d="M175.136978 360.788666L10.926010 1080.228653" style="stroke:rgb(0.000000%,0.000000%,0.000000%); stroke-width: 2.500000;stroke-linecap: round;stroke-linejoin: round;stroke-miterlimit: 10.000000;fill: none;"></path>
  <path d="M10.926010 1080.228653L471.028137 1657.179443" style="stroke:rgb(0.000000%,0.000000%,0.000000%); stroke-width: 2.500000;stroke-linecap: round;stroke-linejoin: round;stroke-miterlimit: 10.000000;fill: none;"></path>
  <path d="M471.028137 1657.179443L1208.971863 1657.179443" style="stroke:rgb(0.000000%,0.000000%,0.000000%); stroke-width: 2.500000;stroke-linecap: round;stroke-linejoin: round;stroke-miterlimit: 10.000000;fill: none;"></path>
  <path d="M1208.971863 1657.179443L1669.073990 1080.228653" style="stroke:rgb(0.000000%,0.000000%,0.000000%); stroke-width: 2.500000;stroke-linecap: round;stroke-linejoin: round;stroke-miterlimit: 10.000000;fill: none;"></path>
  <path d="M1669.073990 1080.228653L1504.863022 360.788666" style="stroke:rgb(0.000000%,0.000000%,0.000000%); stroke-width: 2.500000;stroke-linecap: round;stroke-linejoin: round;stroke-miterlimit: 10.000000;fill: none;"></path>
  <path d="M1504.863022 360.788666L840.000000 40.606476" style="stroke:rgb(0.000000%,0.000000%,0.000000%); stroke-width: 2.500000;stroke-linecap: round;stroke-linejoin: round;stroke-miterlimit: 10.000000;fill: none;"></path>
  <path d="M1670.358612 1153.049820C1670.358612 1127.361755,1660.152542 1102.728867,1641.989716 1084.566040C1623.826889 1066.403214,1599.194000 1056.197144,1573.505936 1056.197144C1547.817871 1056.197144,1523.184982 1066.403214,1505.022156 1084.566040C1486.859329 1102.728867,1476.653259 1127.361755,1476.653259 1153.049820C1476.653259 1178.737885,1486.859329 1203.370773,1505.022156 1221.533600C1523.184982 1239.696426,1547.817871 1249.902496,1573.505936 1249.902496C1599.194000 1249.902496,1623.826889 1239.696426,1641.989716 1221.533600C1660.152542 1203.370773,1670.358612 1178.737885,1670.358612 1153.049820Z" style="stroke:rgb(25.500488%,41.000366%,88.400269%); stroke-width: 2.500000;stroke-linecap: round;stroke-linejoin: round;stroke-miterlimit: 10.000000;fill: none;"></path>
  <path d="M1692.521576 1021.823792C1692.521576 996.135727,1682.315506 971.502838,1664.152679 953.340012C1645.989853 935.177185,1621.356964 924.971115,1595.668900 924.971115C1569.980835 924.971115,1545.347946 935.177185,1527.185120 953.340012C1509.022293 971.502838,1498.816223 996.135727,1498.816223 1021.823792C1498.816223 1047.511856,1509.022293 1072.144745,1527.185120 1090.307571C1545.347946 1108.470398,1569.980835 1118.676468,1595.668900 1118.676468C1621.356964 1118.676468,1645.989853 1108.470398,1664.152679 1090.307571C1682.315506 1072.144745,1692.521576 1047.511856,1692.521576 1021.823792Z" style="stroke:rgb(25.500488%,41.000366%,88.400269%); stroke-width: 2.500000;stroke-linecap: round;stroke-linejoin: round;stroke-miterlimit: 10.000000;fill: none;"></path>
  <path d="M1663.092072 865.956360C1663.092072 840.268295,1652.886002 815.635406,1634.723175 797.472580C1616.560349 779.309753,1591.927460 769.103683,1566.239395 769.103683C1540.551331 769.103683,1515.918442 779.309753,1497.755615 797.472580C1479.592789 815.635406,1469.386719 840.268295,1469.386719 865.956360C1469.386719 891.644424,1479.592789 916.277313,1497.755615 934.440140C1515.918442 952.602966,1540.551331 962.809036,1566.239395 962.809036C1591.927460 962.809036,1616.560349 952.602966,1634.723175 934.440140C1652.886002 916.277313,1663.092072 891.644424,1663.092072 865.956360Z" style="stroke:rgb(25.500488%,41.000366%,88.400269%); stroke-width: 2.500000;stroke-linecap: round;stroke-linejoin: round;stroke-miterlimit: 10.000000;fill: none;"></path>
  <path d="M1628.173721 706.040451C1628.173721 680.352386,1617.967651 655.719498,1599.804825 637.556671C1581.641998 619.393845,1557.009109 609.187775,1531.321045 609.187775C1505.632980 609.187775,1481.000092 619.393845,1462.837265 637.556671C1444.674438 655.719498,1434.468369 680.352386,1434.468369 706.040451C1434.468369 731.728516,1444.674438 756.361404,1462.837265 774.524231C1481.000092 792.687057,1505.632980 802.893127,1531.321045 802.893127C1557.009109 802.893127,1581.641998 792.687057,1599.804825 774.524231C1617.967651 756.361404,1628.173721 731.728516,1628.173721 706.040451Z" style="stroke:rgb(25.500488%,41.000366%,88.400269%); stroke-width: 2.500000;stroke-linecap: round;stroke-linejoin: round;stroke-miterlimit: 10.000000;fill: none;"></path>
  <path d="M1592.788239 544.307892C1592.788239 518.619827,1582.582169 493.986938,1564.419342 475.824112C1546.256516 457.661285,1521.623627 447.455215,1495.935562 447.455215C1470.247498 447.455215,1445.614609 457.661285,1427.451782 475.824112C1409.288956 493.986938,1399.082886 518.619827,1399.082886 544.307892C1399.082886 569.995956,1409.288956 594.628845,1427.451782 612.791672C1445.614609 630.954498,1470.247498 641.160568,1495.935562 641.160568C1521.623627 641.160568,1546.256516 630.954498,1564.419342 612.791672C1582.582169 594.628845,1592.788239 569.995956,1592.788239 544.307892Z" style="stroke:rgb(25.500488%,41.000366%,88.400269%); stroke-width: 2.500000;stroke-linecap: round;stroke-linejoin: round;stroke-miterlimit: 10.000000;fill: none;"></path>
  <path d="M1550.188110 387.778702C1550.188110 362.090637,1539.982040 337.457748,1521.819214 319.294922C1503.656387 301.132095,1479.023499 290.926025,1453.335434 290.926025C1427.647369 290.926025,1403.014481 301.132095,1384.851654 319.294922C1366.688828 337.457748,1356.482758 362.090637,1356.482758 387.778702C1356.482758 413.466766,1366.688828 438.099655,1384.851654 456.262482C1403.014481 474.425308,1427.647369 484.631378,1453.335434 484.631378C1479.023499 484.631378,1503.656387 474.425308,1521.819214 456.262482C1539.982040 438.099655,1550.188110 413.466766,1550.188110 387.778702Z" style="stroke:rgb(25.500488%,41.000366%,88.400269%); stroke-width: 2.500000;stroke-linecap: round;stroke-linejoin: round;stroke-miterlimit: 10.000000;fill: none;"></path>
  <path d="M1547.138748 1282.640884C1547.138748 1256.952820,1536.932678 1232.319931,1518.769852 1214.157104C1500.607025 1195.994278,1475.974136 1185.788208,1450.286072 1185.788208C1424.598007 1185.788208,1399.965118 1195.994278,1381.802292 1214.157104C1363.639465 1232.319931,1353.433395 1256.952820,1353.433395 1282.640884C1353.433395 1308.328949,1363.639465 1332.961838,1381.802292 1351.124664C1399.965118 1369.287491,1424.598007 1379.493561,1450.286072 1379.493561C1475.974136 1379.493561,1500.607025 1369.287491,1518.769852 1351.124664C1536.932678 1332.961838,1547.138748 1308.328949,1547.138748 1282.640884Z" style="stroke:rgb(25.500488%,41.000366%,88.400269%); stroke-width: 2.500000;stroke-linecap: round;stroke-linejoin: round;stroke-miterlimit: 10.000000;fill: none;"></path>
  <path d="M1535.667984 1107.011063C1535.667984 1081.322998,1525.461914 1056.690109,1507.299088 1038.527283C1489.136261 1020.364456,1464.503372 1010.158386,1438.815308 1010.158386C1413.127243 1010.158386,1388.494354 1020.364456,1370.331528 1038.527283C1352.168701 1056.690109,1341.962631 1081.322998,1341.962631 1107.011063C1341.962631 1132.699127,1352.168701 1157.332016,1370.331528 1175.494843C1388.494354 1193.657669,1413.127243 1203.863739,1438.815308 1203.863739C1464.503372 1203.863739,1489.136261 1193.657669,1507.299088 1175.494843C1525.461914 1157.332016,1535.667984 1132.699127,1535.667984 1107.011063Z" style="stroke:rgb(25.500488%,41.000366%,88.400269%); stroke-width: 2.500000;stroke-linecap: round;stroke-linejoin: round;stroke-miterlimit: 10.000000;fill: none;"></path>
  <path d="M1526.792419 963.730347C1526.792419 938.042282,1516.586349 913.409393,1498.423523 895.246567C1480.260696 877.083740,1455.627808 866.877670,1429.939743 866.877670C1404.251678 866.877670,1379.618790 877.083740,1361.455963 895.246567C1343.293137 913.409393,1333.087067 938.042282,1333.087067 963.730347C1333.087067 989.418411,1343.293137 1014.051300,1361.455963 1032.214127C1379.618790 1050.376953,1404.251678 1060.583023,1429.939743 1060.583023C1455.627808 1060.583023,1480.260696 1050.376953,1498.423523 1032.214127C1516.586349 1014.051300,1526.792419 989.418411,1526.792419 963.730347Z" style="stroke:rgb(25.500488%,41.000366%,88.400269%); stroke-width: 2.500000;stroke-linecap: round;stroke-linejoin: round;stroke-miterlimit: 10.000000;fill: none;"></path>
  <path d="M1498.647537 806.565323C1498.647537 780.877258,1488.441467 756.244370,1470.278641 738.081543C1452.115814 719.918716,1427.482925 709.712646,1401.794861 709.712646C1376.106796 709.712646,1351.473907 719.918716,1333.311081 738.081543C1315.148254 756.244370,1304.942184 780.877258,1304.942184 806.565323C1304.942184 832.253387,1315.148254 856.886276,1333.311081 875.049103C1351.473907 893.211929,1376.106796 903.417999,1401.794861 903.417999C1427.482925 903.417999,1452.115814 893.211929,1470.278641 875.049103C1488.441467 856.886276,1498.647537 832.253387,1498.647537 806.565323Z" style="stroke:rgb(25.500488%,41.000366%,88.400269%); stroke-width: 2.500000;stroke-linecap: round;stroke-linejoin: round;stroke-miterlimit: 10.000000;fill: none;"></path>
  <path d="M1464.987854 645.429672C1464.987854 619.741608,1454.781784 595.108719,1436.618958 576.945892C1418.456131 558.783066,1393.823242 548.576996,1368.135178 548.576996C1342.447113 548.576996,1317.814224 558.783066,1299.651398 576.945892C1281.488571 595.108719,1271.282501 619.741608,1271.282501 645.429672C1271.282501 671.117737,1281.488571 695.750626,1299.651398 713.913452C1317.814224 732.076279,1342.447113 742.282349,1368.135178 742.282349C1393.823242 742.282349,1418.456131 732.076279,1436.618958 713.913452C1454.781784 695.750626,1464.987854 671.117737,1464.987854 645.429672Z" style="stroke:rgb(25.500488%,41.000366%,88.400269%); stroke-width: 2.500000;stroke-linecap: round;stroke-linejoin: round;stroke-miterlimit: 10.000000;fill: none;"></path>
  <path d="M1427.539185 485.708389C1427.539185 460.020325,1417.333115 435.387436,1399.170288 417.224609C1381.007462 399.061783,1356.374573 388.855713,1330.686508 388.855713C1304.998444 388.855713,1280.365555 399.061783,1262.202728 417.224609C1244.039902 435.387436,1233.833832 460.020325,1233.833832 485.708389C1233.833832 511.396454,1244.039902 536.029343,1262.202728 554.192169C1280.365555 572.354996,1304.998444 582.561066,1330.686508 582.561066C1356.374573 582.561066,1381.007462 572.354996,1399.170288 554.192169C1417.333115 536.029343,1427.539185 511.396454,1427.539185 485.708389Z" style="stroke:rgb(25.500488%,41.000366%,88.400269%); stroke-width: 2.500000;stroke-linecap: round;stroke-linejoin: round;stroke-miterlimit: 10.000000;fill: none;"></path>
  <path d="M1397.240280 313.530167C1397.240280 287.842102,1387.034210 263.209213,1368.871384 245.046387C1350.708557 226.883560,1326.075668 216.677490,1300.387604 216.677490C1274.699539 216.677490,1250.066650 226.883560,1231.903824 245.046387C1213.740997 263.209213,1203.534927 287.842102,1203.534927 313.530167C1203.534927 339.218231,1213.740997 363.851120,1231.903824 382.013947C1250.066650 400.176773,1274.699539 410.382843,1300.387604 410.382843C1326.075668 410.382843,1350.708557 400.176773,1368.871384 382.013947C1387.034210 363.851120,1397.240280 339.218231,1397.240280 313.530167Z" style="stroke:rgb(25.500488%,41.000366%,88.400269%); stroke-width: 2.500000;stroke-linecap: round;stroke-linejoin: round;stroke-miterlimit: 10.000000;fill: none;"></path>
  <path d="M1435.506439 1404.160904C1435.506439 1378.472839,1425.300369 1353.839951,1407.137543 1335.677124C1388.974716 1317.514297,1364.341827 1307.308228,1338.653763 1307.308228C1312.965698 1307.308228,1288.332809 1317.514297,1270.169983 1335.677124C1252.007156 1353.839951,1241.801086 1378.472839,1241.801086 1404.160904C1241.801086 1429.848969,1252.007156 1454.481857,1270.169983 1472.644684C1288.332809 1490.807510,1312.965698 1501.013580,1338.653763 1501.013580C1364.341827 1501.013580,1388.974716 1490.807510,1407.137543 1472.644684C1425.300369 1454.481857,1435.506439 1429.848969,1435.506439 1404.160904Z" style="stroke:rgb(25.500488%,41.000366%,88.400269%); stroke-width: 2.500000;stroke-linecap: round;stroke-linejoin: round;stroke-miterlimit: 10.000000;fill: none;"></path>
  <path d="M1408.672119 1226.584671C1408.672119 1200.896606,1398.466049 1176.263718,1380.303223 1158.100891C1362.140396 1139.938065,1337.507507 1129.731995,1311.819443 1129.731995C1286.131378 1129.731995,1261.498489 1139.938065,1243.335663 1158.100891C1225.172836 1176.263718,1214.966766 1200.896606,1214.966766 1226.584671C1214.966766 1252.272736,1225.172836 1276.905624,1243.335663 1295.068451C1261.498489 1313.231277,1286.131378 1323.437347,1311.819443 1323.437347C1337.507507 1323.437347,1362.140396 1313.231277,1380.303223 1295.068451C1398.466049 1276.905624,1408.672119 1252.272736,1408.672119 1226.584671Z" style="stroke:rgb(25.500488%,41.000366%,88.400269%); stroke-width: 2.500000;stroke-linecap: round;stroke-linejoin: round;stroke-miterlimit: 10.000000;fill: none;"></path>
  <path d="M1384.381088 1059.259476C1384.381088 1033.571411,1374.175018 1008.938522,1356.012192 990.775696C1337.849365 972.612869,1313.216476 962.406799,1287.528412 962.406799C1261.840347 962.406799,1237.207458 972.612869,1219.044632 990.775696C1200.881805 1008.938522,1190.675735 1033.571411,1190.675735 1059.259476C1190.675735 1084.947540,1200.881805 1109.580429,1219.044632 1127.743256C1237.207458 1145.906082,1261.840347 1156.112152,1287.528412 1156.112152C1313.216476 1156.112152,1337.849365 1145.906082,1356.012192 1127.743256C1374.175018 1109.580429,1384.381088 1084.947540,1384.381088 1059.259476Z" style="stroke:rgb(25.500488%,41.000366%,88.400269%); stroke-width: 2.500000;stroke-linecap: round;stroke-linejoin: round;stroke-miterlimit: 10.000000;fill: none;"></path>
  <path d="M1362.633362 904.975128C1362.633362 879.287064,1352.427292 854.654175,1334.264465 836.491348C1316.101639 818.328522,1291.468750 808.122452,1265.780685 808.122452C1240.092621 808.122452,1215.459732 818.328522,1197.296906 836.491348C1179.134079 854.654175,1168.928009 879.287064,1168.928009 904.975128C1168.928009 930.663193,1179.134079 955.296082,1197.296906 973.458908C1215.459732 991.621735,1240.092621 1001.827805,1265.780685 1001.827805C1291.468750 1001.827805,1316.101639 991.621735,1334.264465 973.458908C1352.427292 955.296082,1362.633362 930.663193,1362.633362 904.975128Z" style="stroke:rgb(25.500488%,41.000366%,88.400269%); stroke-width: 2.500000;stroke-linecap: round;stroke-linejoin: round;stroke-miterlimit: 10.000000;fill: none;"></path>
  <path d="M1335.850937 746.175140C1335.850937 720.487076,1325.644867 695.854187,1307.482040 677.691360C1289.319214 659.528534,1264.686325 649.322464,1238.998260 649.322464C1213.310196 649.322464,1188.677307 659.528534,1170.514481 677.691360C1152.351654 695.854187,1142.145584 720.487076,1142.145584 746.175140C1142.145584 771.863205,1152.351654 796.496094,1170.514481 814.658920C1188.677307 832.821747,1213.310196 843.027817,1238.998260 843.027817C1264.686325 843.027817,1289.319214 832.821747,1307.482040 814.658920C1325.644867 796.496094,1335.850937 771.863205,1335.850937 746.175140Z" style="stroke:rgb(25.500488%,41.000366%,88.400269%); stroke-width: 2.500000;stroke-linecap: round;stroke-linejoin: round;stroke-miterlimit: 10.000000;fill: none;"></path>
  <path d="M1301.464615 585.221146C1301.464615 559.533081,1291.258545 534.900192,1273.095718 516.737366C1254.932892 498.574539,1230.300003 488.368469,1204.611938 488.368469C1178.923874 488.368469,1154.290985 498.574539,1136.128159 516.737366C1117.965332 534.900192,1107.759262 559.533081,1107.759262 585.221146C1107.759262 610.909210,1117.965332 635.542099,1136.128159 653.704926C1154.290985 671.867752,1178.923874 682.073822,1204.611938 682.073822C1230.300003 682.073822,1254.932892 671.867752,1273.095718 653.704926C1291.258545 635.542099,1301.464615 610.909210,1301.464615 585.221146Z" style="stroke:rgb(25.500488%,41.000366%,88.400269%); stroke-width: 2.500000;stroke-linecap: round;stroke-linejoin: round;stroke-miterlimit: 10.000000;fill: none;"></path>
  <path d="M1274.734100 414.093979C1274.734100 388.405914,1264.528030 363.773026,1246.365204 345.610199C1228.202377 327.447372,1203.569489 317.241302,1177.881424 317.241302C1152.193359 317.241302,1127.560471 327.447372,1109.397644 345.610199C1091.234818 363.773026,1081.028748 388.405914,1081.028748 414.093979C1081.028748 439.782043,1091.234818 464.414932,1109.397644 482.577759C1127.560471 500.740585,1152.193359 510.946655,1177.881424 510.946655C1203.569489 510.946655,1228.202377 500.740585,1246.365204 482.577759C1264.528030 464.414932,1274.734100 439.782043,1274.734100 414.093979Z" style="stroke:rgb(25.500488%,41.000366%,88.400269%); stroke-width: 2.500000;stroke-linecap: round;stroke-linejoin: round;stroke-miterlimit: 10.000000;fill: none;"></path>
  <path d="M1243.942108 242.266113C1243.942108 216.578049,1233.736038 191.945160,1215.573212 173.782333C1197.410385 155.619507,1172.777496 145.413437,1147.089432 145.413437C1121.401367 145.413437,1096.768478 155.619507,1078.605652 173.782333C1060.442825 191.945160,1050.236755 216.578049,1050.236755 242.266113C1050.236755 267.954178,1060.442825 292.587067,1078.605652 310.749893C1096.768478 328.912720,1121.401367 339.118790,1147.089432 339.118790C1172.777496 339.118790,1197.410385 328.912720,1215.573212 310.749893C1233.736038 292.587067,1243.942108 267.954178,1243.942108 242.266113Z" style="stroke:rgb(25.500488%,41.000366%,88.400269%); stroke-width: 2.500000;stroke-linecap: round;stroke-linejoin: round;stroke-miterlimit: 10.000000;fill: none;"></path>
  <path d="M1294.898773 1610.920090C1294.898773 1585.232025,1284.692703 1560.599136,1266.529877 1542.436310C1248.367050 1524.273483,1223.734161 1514.067413,1198.046097 1514.067413C1172.358032 1514.067413,1147.725143 1524.273483,1129.562317 1542.436310C1111.399490 1560.599136,1101.193420 1585.232025,1101.193420 1610.920090C1101.193420 1636.608154,1111.399490 1661.241043,1129.562317 1679.403870C1147.725143 1697.566696,1172.358032 1707.772766,1198.046097 1707.772766C1223.734161 1707.772766,1248.367050 1697.566696,1266.529877 1679.403870C1284.692703 1661.241043,1294.898773 1636.608154,1294.898773 1610.920090Z" style="stroke:rgb(25.500488%,41.000366%,88.400269%); stroke-width: 2.500000;stroke-linecap: round;stroke-linejoin: round;stroke-miterlimit: 10.000000;fill: none;"></path>
  <path d="M1336.136414 1478.837631C1336.136414 1453.149567,1325.930344 1428.516678,1307.767517 1410.353851C1289.604691 1392.191025,1264.971802 1381.984955,1239.283737 1381.984955C1213.595673 1381.984955,1188.962784 1392.191025,1170.799957 1410.353851C1152.637131 1428.516678,1142.431061 1453.149567,1142.431061 1478.837631C1142.431061 1504.525696,1152.637131 1529.158585,1170.799957 1547.321411C1188.962784 1565.484238,1213.595673 1575.690308,1239.283737 1575.690308C1264.971802 1575.690308,1289.604691 1565.484238,1307.767517 1547.321411C1325.930344 1529.158585,1336.136414 1504.525696,1336.136414 1478.837631Z" style="stroke:rgb(25.500488%,41.000366%,88.400269%); stroke-width: 2.500000;stroke-linecap: round;stroke-linejoin: round;stroke-miterlimit: 10.000000;fill: none;"></path>
  <path d="M1289.345047 1320.634552C1289.345047 1294.946487,1279.138977 1270.313599,1260.976151 1252.150772C1242.813324 1233.987946,1218.180435 1223.781876,1192.492371 1223.781876C1166.804306 1223.781876,1142.171417 1233.987946,1124.008591 1252.150772C1105.845764 1270.313599,1095.639694 1294.946487,1095.639694 1320.634552C1095.639694 1346.322617,1105.845764 1370.955505,1124.008591 1389.118332C1142.171417 1407.281158,1166.804306 1417.487228,1192.492371 1417.487228C1218.180435 1417.487228,1242.813324 1407.281158,1260.976151 1389.118332C1279.138977 1370.955505,1289.345047 1346.322617,1289.345047 1320.634552Z" style="stroke:rgb(25.500488%,41.000366%,88.400269%); stroke-width: 2.500000;stroke-linecap: round;stroke-linejoin: round;stroke-miterlimit: 10.000000;fill: none;"></path>
  <path d="M1253.427551 1159.732452C1253.427551 1134.044388,1243.221481 1109.411499,1225.058655 1091.248672C1206.895828 1073.085846,1182.262939 1062.879776,1156.574875 1062.879776C1130.886810 1062.879776,1106.253922 1073.085846,1088.091095 1091.248672C1069.928268 1109.411499,1059.722198 1134.044388,1059.722198 1159.732452C1059.722198 1185.420517,1069.928268 1210.053406,1088.091095 1228.216232C1106.253922 1246.379059,1130.886810 1256.585129,1156.574875 1256.585129C1182.262939 1256.585129,1206.895828 1246.379059,1225.058655 1228.216232C1243.221481 1210.053406,1253.427551 1185.420517,1253.427551 1159.732452Z" style="stroke:rgb(25.500488%,41.000366%,88.400269%); stroke-width: 2.500000;stroke-linecap: round;stroke-linejoin: round;stroke-miterlimit: 10.000000;fill: none;"></path>
  <path d="M1220.637253 999.725693C1220.637253 974.037628,1210.431183 949.404739,1192.268356 931.241913C1174.105530 913.079086,1149.472641 902.873016,1123.784576 902.873016C1098.096512 902.873016,1073.463623 913.079086,1055.300797 931.241913C1037.137970 949.404739,1026.931900 974.037628,1026.931900 999.725693C1026.931900 1025.413757,1037.137970 1050.046646,1055.300797 1068.209473C1073.463623 1086.372299,1098.096512 1096.578369,1123.784576 1096.578369C1149.472641 1096.578369,1174.105530 1086.372299,1192.268356 1068.209473C1210.431183 1050.046646,1220.637253 1025.413757,1220.637253 999.725693Z" style="stroke:rgb(25.500488%,41.000366%,88.400269%); stroke-width: 2.500000;stroke-linecap: round;stroke-linejoin: round;stroke-miterlimit: 10.000000;fill: none;"></path>
  <path d="M1202.976959 840.912735C1202.976959 815.224670,1192.770889 790.591782,1174.608063 772.428955C1156.445236 754.266129,1131.812347 744.060059,1106.124283 744.060059C1080.436218 744.060059,1055.803329 754.266129,1037.640503 772.428955C1019.477676 790.591782,1009.271606 815.224670,1009.271606 840.912735C1009.271606 866.600800,1019.477676 891.233688,1037.640503 909.396515C1055.803329 927.559341,1080.436218 937.765411,1106.124283 937.765411C1131.812347 937.765411,1156.445236 927.559341,1174.608063 909.396515C1192.770889 891.233688,1202.976959 866.600800,1202.976959 840.912735Z" style="stroke:rgb(25.500488%,41.000366%,88.400269%); stroke-width: 2.500000;stroke-linecap: round;stroke-linejoin: round;stroke-miterlimit: 10.000000;fill: none;"></path>
  <path d="M1172.366623 680.880035C1172.366623 655.191971,1162.160553 630.559082,1143.997726 612.396255C1125.834900 594.233429,1101.202011 584.027359,1075.513947 584.027359C1049.825882 584.027359,1025.192993 594.233429,1007.030167 612.396255C988.867340 630.559082,978.661270 655.191971,978.661270 680.880035C978.661270 706.568100,988.867340 731.200989,1007.030167 749.363815C1025.192993 767.526642,1049.825882 777.732712,1075.513947 777.732712C1101.202011 777.732712,1125.834900 767.526642,1143.997726 749.363815C1162.160553 731.200989,1172.366623 706.568100,1172.366623 680.880035Z" style="stroke:rgb(25.500488%,41.000366%,88.400269%); stroke-width: 2.500000;stroke-linecap: round;stroke-linejoin: round;stroke-miterlimit: 10.000000;fill: none;"></path>
  <path d="M1148.503815 510.713089C1148.503815 485.025024,1138.297745 460.392136,1120.134918 442.229309C1101.972092 424.066483,1077.339203 413.860413,1051.651138 413.860413C1025.963074 413.860413,1001.330185 424.066483,983.167358 442.229309C965.004532 460.392136,954.798462 485.025024,954.798462 510.713089C954.798462 536.401154,965.004532 561.034042,983.167358 579.196869C1001.330185 597.359695,1025.963074 607.565765,1051.651138 607.565765C1077.339203 607.565765,1101.972092 597.359695,1120.134918 579.196869C1138.297745 561.034042,1148.503815 536.401154,1148.503815 510.713089Z" style="stroke:rgb(25.500488%,41.000366%,88.400269%); stroke-width: 2.500000;stroke-linecap: round;stroke-linejoin: round;stroke-miterlimit: 10.000000;fill: none;"></path>
  <path d="M1121.267242 339.936279C1121.267242 314.248215,1111.061172 289.615326,1092.898346 271.452499C1074.735519 253.289673,1050.102631 243.083603,1024.414566 243.083603C998.726501 243.083603,974.093613 253.289673,955.930786 271.452499C937.767960 289.615326,927.561890 314.248215,927.561890 339.936279C927.561890 365.624344,937.767960 390.257233,955.930786 408.420059C974.093613 426.582886,998.726501 436.788956,1024.414566 436.788956C1050.102631 436.788956,1074.735519 426.582886,1092.898346 408.420059C1111.061172 390.257233,1121.267242 365.624344,1121.267242 339.936279Z" style="stroke:rgb(25.500488%,41.000366%,88.400269%); stroke-width: 2.500000;stroke-linecap: round;stroke-linejoin: round;stroke-miterlimit: 10.000000;fill: none;"></path>
  <path d="M1092.642242 166.590225C1092.642242 140.902161,1082.436172 116.269272,1064.273346 98.106445C1046.110519 79.943619,1021.477631 69.737549,995.789566 69.737549C970.101501 69.737549,945.468613 79.943619,927.305786 98.106445C909.142960 116.269272,898.936890 140.902161,898.936890 166.590225C898.936890 192.278290,909.142960 216.911179,927.305786 235.074005C945.468613 253.236832,970.101501 263.442902,995.789566 263.442902C1021.477631 263.442902,1046.110519 253.236832,1064.273346 235.074005C1082.436172 216.911179,1092.642242 192.278290,1092.642242 166.590225Z" style="stroke:rgb(25.500488%,41.000366%,88.400269%); stroke-width: 2.500000;stroke-linecap: round;stroke-linejoin: round;stroke-miterlimit: 10.000000;fill: none;"></path>
  <path d="M1184.213699 1564.608841C1184.213699 1538.920776,1174.007629 1514.287888,1155.844803 1496.125061C1137.681976 1477.962234,1113.049088 1467.756165,1087.361023 1467.756165C1061.672958 1467.756165,1037.040070 1477.962234,1018.877243 1496.125061C1000.714417 1514.287888,990.508347 1538.920776,990.508347 1564.608841C990.508347 1590.296906,1000.714417 1614.929794,1018.877243 1633.092621C1037.040070 1651.255447,1061.672958 1661.461517,1087.361023 1661.461517C1113.049088 1661.461517,1137.681976 1651.255447,1155.844803 1633.092621C1174.007629 1614.929794,1184.213699 1590.296906,1184.213699 1564.608841Z" style="stroke:rgb(25.500488%,41.000366%,88.400269%); stroke-width: 2.500000;stroke-linecap: round;stroke-linejoin: round;stroke-miterlimit: 10.000000;fill: none;"></path>
  <path d="M1167.409805 1420.354919C1167.409805 1394.666855,1157.203735 1370.033966,1139.040909 1351.871140C1120.878082 1333.708313,1096.245193 1323.502243,1070.557129 1323.502243C1044.869064 1323.502243,1020.236176 1333.708313,1002.073349 1351.871140C983.910522 1370.033966,973.704453 1394.666855,973.704453 1420.354919C973.704453 1446.042984,983.910522 1470.675873,1002.073349 1488.838699C1020.236176 1507.001526,1044.869064 1517.207596,1070.557129 1517.207596C1096.245193 1517.207596,1120.878082 1507.001526,1139.040909 1488.838699C1157.203735 1470.675873,1167.409805 1446.042984,1167.409805 1420.354919Z" style="stroke:rgb(25.500488%,41.000366%,88.400269%); stroke-width: 2.500000;stroke-linecap: round;stroke-linejoin: round;stroke-miterlimit: 10.000000;fill: none;"></path>
  <path d="M1125.743958 1264.007385C1125.743958 1238.319321,1115.537888 1213.686432,1097.375061 1195.523605C1079.212234 1177.360779,1054.579346 1167.154709,1028.891281 1167.154709C1003.203217 1167.154709,978.570328 1177.360779,960.407501 1195.523605C942.244675 1213.686432,932.038605 1238.319321,932.038605 1264.007385C932.038605 1289.695450,942.244675 1314.328339,960.407501 1332.491165C978.570328 1350.653992,1003.203217 1360.860062,1028.891281 1360.860062C1054.579346 1360.860062,1079.212234 1350.653992,1097.375061 1332.491165C1115.537888 1314.328339,1125.743958 1289.695450,1125.743958 1264.007385Z" style="stroke:rgb(25.500488%,41.000366%,88.400269%); stroke-width: 2.500000;stroke-linecap: round;stroke-linejoin: round;stroke-miterlimit: 10.000000;fill: none;"></path>
  <path d="M1090.008118 1102.936600C1090.008118 1077.248535,1079.802048 1052.615646,1061.639221 1034.452820C1043.476395 1016.289993,1018.843506 1006.083923,993.155441 1006.083923C967.467377 1006.083923,942.834488 1016.289993,924.671661 1034.452820C906.508835 1052.615646,896.302765 1077.248535,896.302765 1102.936600C896.302765 1128.624664,906.508835 1153.257553,924.671661 1171.420380C942.834488 1189.583206,967.467377 1199.789276,993.155441 1199.789276C1018.843506 1199.789276,1043.476395 1189.583206,1061.639221 1171.420380C1079.802048 1153.257553,1090.008118 1128.624664,1090.008118 1102.936600Z" style="stroke:rgb(25.500488%,41.000366%,88.400269%); stroke-width: 2.500000;stroke-linecap: round;stroke-linejoin: round;stroke-miterlimit: 10.000000;fill: none;"></path>
  <path d="M1063.368439 937.441010C1063.368439 911.752945,1053.162369 887.120056,1034.999542 868.957230C1016.836716 850.794403,992.203827 840.588333,966.515762 840.588333C940.827698 840.588333,916.194809 850.794403,898.031982 868.957230C879.869156 887.120056,869.663086 911.752945,869.663086 937.441010C869.663086 963.129074,879.869156 987.761963,898.031982 1005.924789C916.194809 1024.087616,940.827698 1034.293686,966.515762 1034.293686C992.203827 1034.293686,1016.836716 1024.087616,1034.999542 1005.924789C1053.162369 987.761963,1063.368439 963.129074,1063.368439 937.441010Z" style="stroke:rgb(25.500488%,41.000366%,88.400269%); stroke-width: 2.500000;stroke-linecap: round;stroke-linejoin: round;stroke-miterlimit: 10.000000;fill: none;"></path>
  <path d="M1039.881927 780.587433C1039.881927 754.899368,1029.675858 730.266479,1011.513031 712.103653C993.350204 693.940826,968.717316 683.734756,943.029251 683.734756C917.341187 683.734756,892.708298 693.940826,874.545471 712.103653C856.382645 730.266479,846.176575 754.899368,846.176575 780.587433C846.176575 806.275497,856.382645 830.908386,874.545471 849.071213C892.708298 867.234039,917.341187 877.440109,943.029251 877.440109C968.717316 877.440109,993.350204 867.234039,1011.513031 849.071213C1029.675858 830.908386,1039.881927 806.275497,1039.881927 780.587433Z" style="stroke:rgb(25.500488%,41.000366%,88.400269%); stroke-width: 2.500000;stroke-linecap: round;stroke-linejoin: round;stroke-miterlimit: 10.000000;fill: none;"></path>
  <path d="M1019.808090 611.860825C1019.808090 586.172760,1009.602020 561.539871,991.439194 543.377045C973.276367 525.214218,948.643478 515.008148,922.955414 515.008148C897.267349 515.008148,872.634460 525.214218,854.471634 543.377045C836.308807 561.539871,826.102737 586.172760,826.102737 611.860825C826.102737 637.548889,836.308807 662.181778,854.471634 680.344604C872.634460 698.507431,897.267349 708.713501,922.955414 708.713501C948.643478 708.713501,973.276367 698.507431,991.439194 680.344604C1009.602020 662.181778,1019.808090 637.548889,1019.808090 611.860825Z" style="stroke:rgb(25.500488%,41.000366%,88.400269%); stroke-width: 2.500000;stroke-linecap: round;stroke-linejoin: round;stroke-miterlimit: 10.000000;fill: none;"></path>
  <path d="M995.439209 442.057205C995.439209 416.369141,985.233139 391.736252,967.070312 373.573425C948.907486 355.410599,924.274597 345.204529,898.586533 345.204529C872.898468 345.204529,848.265579 355.410599,830.102753 373.573425C811.939926 391.736252,801.733856 416.369141,801.733856 442.057205C801.733856 467.745270,811.939926 492.378159,830.102753 510.540985C848.265579 528.703812,872.898468 538.909882,898.586533 538.909882C924.274597 538.909882,948.907486 528.703812,967.070312 510.540985C985.233139 492.378159,995.439209 467.745270,995.439209 442.057205Z" style="stroke:rgb(25.500488%,41.000366%,88.400269%); stroke-width: 2.500000;stroke-linecap: round;stroke-linejoin: round;stroke-miterlimit: 10.000000;fill: none;"></path>
  <path d="M970.369614 269.762207C970.369614 244.074142,960.163544 219.441254,942.000717 201.278427C923.837891 183.115601,899.205002 172.909531,873.516937 172.909531C847.828873 172.909531,823.195984 183.115601,805.033157 201.278427C786.870331 219.441254,776.664261 244.074142,776.664261 269.762207C776.664261 295.450272,786.870331 320.083160,805.033157 338.245987C823.195984 356.408813,847.828873 366.614883,873.516937 366.614883C899.205002 366.614883,923.837891 356.408813,942.000717 338.245987C960.163544 320.083160,970.369614 295.450272,970.369614 269.762207Z" style="stroke:rgb(25.500488%,41.000366%,88.400269%); stroke-width: 2.500000;stroke-linecap: round;stroke-linejoin: round;stroke-miterlimit: 10.000000;fill: none;"></path>
  <path d="M939.357040 98.077072C939.357040 72.389008,929.150970 47.756119,910.988144 29.593292C892.825317 11.430466,868.192429 1.224396,842.504364 1.224396C816.816299 1.224396,792.183411 11.430466,774.020584 29.593292C755.857758 47.756119,745.651688 72.389008,745.651688 98.077072C745.651688 123.765137,755.857758 148.398026,774.020584 166.560852C792.183411 184.723679,816.816299 194.929749,842.504364 194.929749C868.192429 194.929749,892.825317 184.723679,910.988144 166.560852C929.150970 148.398026,939.357040 123.765137,939.357040 98.077072Z" style="stroke:rgb(25.500488%,41.000366%,88.400269%); stroke-width: 2.500000;stroke-linecap: round;stroke-linejoin: round;stroke-miterlimit: 10.000000;fill: none;"></path>
  <path d="M1060.993835 1637.027756C1060.993835 1611.339691,1050.787766 1586.706802,1032.624939 1568.543976C1014.462112 1550.381149,989.829224 1540.175079,964.141159 1540.175079C938.453094 1540.175079,913.820206 1550.381149,895.657379 1568.543976C877.494553 1586.706802,867.288483 1611.339691,867.288483 1637.027756C867.288483 1662.715820,877.494553 1687.348709,895.657379 1705.511536C913.820206 1723.674362,938.453094 1733.880432,964.141159 1733.880432C989.829224 1733.880432,1014.462112 1723.674362,1032.624939 1705.511536C1050.787766 1687.348709,1060.993835 1662.715820,1060.993835 1637.027756Z" style="stroke:rgb(25.500488%,41.000366%,88.400269%); stroke-width: 2.500000;stroke-linecap: round;stroke-linejoin: round;stroke-miterlimit: 10.000000;fill: none;"></path>
  <path d="M1015.409225 1495.148438C1015.409225 1469.460373,1005.203156 1444.827484,987.040329 1426.664658C968.877502 1408.501831,944.244614 1398.295761,918.556549 1398.295761C892.868484 1398.295761,868.235596 1408.501831,850.072769 1426.664658C831.909943 1444.827484,821.703873 1469.460373,821.703873 1495.148438C821.703873 1520.836502,831.909943 1545.469391,850.072769 1563.632217C868.235596 1581.795044,892.868484 1592.001114,918.556549 1592.001114C944.244614 1592.001114,968.877502 1581.795044,987.040329 1563.632217C1005.203156 1545.469391,1015.409225 1520.836502,1015.409225 1495.148438Z" style="stroke:rgb(25.500488%,41.000366%,88.400269%); stroke-width: 2.500000;stroke-linecap: round;stroke-linejoin: round;stroke-miterlimit: 10.000000;fill: none;"></path>
  <path d="M998.384750 1351.154037C998.384750 1325.465973,988.178680 1300.833084,970.015854 1282.670258C951.853027 1264.507431,927.220139 1254.301361,901.532074 1254.301361C875.844009 1254.301361,851.211121 1264.507431,833.048294 1282.670258C814.885468 1300.833084,804.679398 1325.465973,804.679398 1351.154037C804.679398 1376.842102,814.885468 1401.474991,833.048294 1419.637817C851.211121 1437.800644,875.844009 1448.006714,901.532074 1448.006714C927.220139 1448.006714,951.853027 1437.800644,970.015854 1419.637817C988.178680 1401.474991,998.384750 1376.842102,998.384750 1351.154037Z" style="stroke:rgb(25.500488%,41.000366%,88.400269%); stroke-width: 2.500000;stroke-linecap: round;stroke-linejoin: round;stroke-miterlimit: 10.000000;fill: none;"></path>
  <path d="M961.584885 1199.101562C961.584885 1173.413498,951.378815 1148.780609,933.215988 1130.617783C915.053162 1112.454956,890.420273 1102.248886,864.732208 1102.248886C839.044144 1102.248886,814.411255 1112.454956,796.248428 1130.617783C778.085602 1148.780609,767.879532 1173.413498,767.879532 1199.101562C767.879532 1224.789627,778.085602 1249.422516,796.248428 1267.585342C814.411255 1285.748169,839.044144 1295.954239,864.732208 1295.954239C890.420273 1295.954239,915.053162 1285.748169,933.215988 1267.585342C951.378815 1249.422516,961.584885 1224.789627,961.584885 1199.101562Z" style="stroke:rgb(25.500488%,41.000366%,88.400269%); stroke-width: 2.500000;stroke-linecap: round;stroke-linejoin: round;stroke-miterlimit: 10.000000;fill: none;"></path>
  <path d="M934.387238 1030.673401C934.387238 1004.985336,924.181168 980.352448,906.018341 962.189621C887.855515 944.026794,863.222626 933.820724,837.534561 933.820724C811.846497 933.820724,787.213608 944.026794,769.050781 962.189621C750.887955 980.352448,740.681885 1004.985336,740.681885 1030.673401C740.681885 1056.361465,750.887955 1080.994354,769.050781 1099.157181C787.213608 1117.320007,811.846497 1127.526077,837.534561 1127.526077C863.222626 1127.526077,887.855515 1117.320007,906.018341 1099.157181C924.181168 1080.994354,934.387238 1056.361465,934.387238 1030.673401Z" style="stroke:rgb(25.500488%,41.000366%,88.400269%); stroke-width: 2.500000;stroke-linecap: round;stroke-linejoin: round;stroke-miterlimit: 10.000000;fill: none;"></path>
  <path d="M899.806259 869.109528C899.806259 843.421463,889.600189 818.788574,871.437363 800.625748C853.274536 782.462921,828.641647 772.256851,802.953583 772.256851C777.265518 772.256851,752.632629 782.462921,734.469803 800.625748C716.306976 818.788574,706.100906 843.421463,706.100906 869.109528C706.100906 894.797592,716.306976 919.430481,734.469803 937.593307C752.632629 955.756134,777.265518 965.962204,802.953583 965.962204C828.641647 965.962204,853.274536 955.756134,871.437363 937.593307C889.600189 919.430481,899.806259 894.797592,899.806259 869.109528Z" style="stroke:rgb(25.500488%,41.000366%,88.400269%); stroke-width: 2.500000;stroke-linecap: round;stroke-linejoin: round;stroke-miterlimit: 10.000000;fill: none;"></path>
  <path d="M888.075989 702.692642C888.075989 677.004578,877.869919 652.371689,859.707092 634.208862C841.544266 616.046036,816.911377 605.839966,791.223312 605.839966C765.535248 605.839966,740.902359 616.046036,722.739532 634.208862C704.576706 652.371689,694.370636 677.004578,694.370636 702.692642C694.370636 728.380707,704.576706 753.013596,722.739532 771.176422C740.902359 789.339249,765.535248 799.545319,791.223312 799.545319C816.911377 799.545319,841.544266 789.339249,859.707092 771.176422C877.869919 753.013596,888.075989 728.380707,888.075989 702.692642Z" style="stroke:rgb(25.500488%,41.000366%,88.400269%); stroke-width: 2.500000;stroke-linecap: round;stroke-linejoin: round;stroke-miterlimit: 10.000000;fill: none;"></path>
  <path d="M866.250397 533.810318C866.250397 508.122253,856.044327 483.489365,837.881500 465.326538C819.718674 447.163712,795.085785 436.957642,769.397720 436.957642C743.709656 436.957642,719.076767 447.163712,700.913940 465.326538C682.751114 483.489365,672.545044 508.122253,672.545044 533.810318C672.545044 559.498383,682.751114 584.131271,700.913940 602.294098C719.076767 620.456924,743.709656 630.662994,769.397720 630.662994C795.085785 630.662994,819.718674 620.456924,837.881500 602.294098C856.044327 584.131271,866.250397 559.498383,866.250397 533.810318Z" style="stroke:rgb(25.500488%,41.000366%,88.400269%); stroke-width: 2.500000;stroke-linecap: round;stroke-linejoin: round;stroke-miterlimit: 10.000000;fill: none;"></path>
  <path d="M844.048508 362.475540C844.048508 336.787476,833.842438 312.154587,815.679611 293.991760C797.516785 275.828934,772.883896 265.622864,747.195831 265.622864C721.507767 265.622864,696.874878 275.828934,678.712051 293.991760C660.549225 312.154587,650.343155 336.787476,650.343155 362.475540C650.343155 388.163605,660.549225 412.796494,678.712051 430.959320C696.874878 449.122147,721.507767 459.328217,747.195831 459.328217C772.883896 459.328217,797.516785 449.122147,815.679611 430.959320C833.842438 412.796494,844.048508 388.163605,844.048508 362.475540Z" style="stroke:rgb(25.500488%,41.000366%,88.400269%); stroke-width: 2.500000;stroke-linecap: round;stroke-linejoin: round;stroke-miterlimit: 10.000000;fill: none;"></path>
  <path d="M833.473083 182.031631C833.473083 156.343567,823.267014 131.710678,805.104187 113.547852C786.941360 95.385025,762.308472 85.178955,736.620407 85.178955C710.932343 85.178955,686.299454 95.385025,668.136627 113.547852C649.973801 131.710678,639.767731 156.343567,639.767731 182.031631C639.767731 207.719696,649.973801 232.352585,668.136627 250.515411C686.299454 268.678238,710.932343 278.884308,736.620407 278.884308C762.308472 278.884308,786.941360 268.678238,805.104187 250.515411C823.267014 232.352585,833.473083 207.719696,833.473083 182.031631Z" style="stroke:rgb(25.500488%,41.000366%,88.400269%); stroke-width: 2.500000;stroke-linecap: round;stroke-linejoin: round;stroke-miterlimit: 10.000000;fill: none;"></path>
  <path d="M884.559494 1605.171738C884.559494 1579.483673,874.353424 1554.850784,856.190598 1536.687958C838.027771 1518.525131,813.394882 1508.319061,787.706818 1508.319061C762.018753 1508.319061,737.385864 1518.525131,719.223038 1536.687958C701.060211 1554.850784,690.854141 1579.483673,690.854141 1605.171738C690.854141 1630.859802,701.060211 1655.492691,719.223038 1673.655518C737.385864 1691.818344,762.018753 1702.024414,787.706818 1702.024414C813.394882 1702.024414,838.027771 1691.818344,856.190598 1673.655518C874.353424 1655.492691,884.559494 1630.859802,884.559494 1605.171738Z" style="stroke:rgb(25.500488%,41.000366%,88.400269%); stroke-width: 2.500000;stroke-linecap: round;stroke-linejoin: round;stroke-miterlimit: 10.000000;fill: none;"></path>
  <path d="M848.395447 1450.835480C848.395447 1425.147415,838.189377 1400.514526,820.026550 1382.351700C801.863724 1364.188873,777.230835 1353.982803,751.542770 1353.982803C725.854706 1353.982803,701.221817 1364.188873,683.058990 1382.351700C664.896164 1400.514526,654.690094 1425.147415,654.690094 1450.835480C654.690094 1476.523544,664.896164 1501.156433,683.058990 1519.319260C701.221817 1537.482086,725.854706 1547.688156,751.542770 1547.688156C777.230835 1547.688156,801.863724 1537.482086,820.026550 1519.319260C838.189377 1501.156433,848.395447 1476.523544,848.395447 1450.835480Z" style="stroke:rgb(25.500488%,41.000366%,88.400269%); stroke-width: 2.500000;stroke-linecap: round;stroke-linejoin: round;stroke-miterlimit: 10.000000;fill: none;"></path>
  <path d="M829.735992 1308.709625C829.735992 1283.021561,819.529922 1258.388672,801.367096 1240.225845C783.204269 1222.063019,758.571381 1211.856949,732.883316 1211.856949C707.195251 1211.856949,682.562363 1222.063019,664.399536 1240.225845C646.236710 1258.388672,636.030640 1283.021561,636.030640 1308.709625C636.030640 1334.397690,646.236710 1359.030579,664.399536 1377.193405C682.562363 1395.356232,707.195251 1405.562302,732.883316 1405.562302C758.571381 1405.562302,783.204269 1395.356232,801.367096 1377.193405C819.529922 1359.030579,829.735992 1334.397690,829.735992 1308.709625Z" style="stroke:rgb(25.500488%,41.000366%,88.400269%); stroke-width: 2.500000;stroke-linecap: round;stroke-linejoin: round;stroke-miterlimit: 10.000000;fill: none;"></path>
  <path d="M807.975296 1142.344650C807.975296 1116.656586,797.769226 1092.023697,779.606400 1073.860870C761.443573 1055.698044,736.810684 1045.491974,711.122620 1045.491974C685.434555 1045.491974,660.801666 1055.698044,642.638840 1073.860870C624.476013 1092.023697,614.269943 1116.656586,614.269943 1142.344650C614.269943 1168.032715,624.476013 1192.665604,642.638840 1210.828430C660.801666 1228.991257,685.434555 1239.197327,711.122620 1239.197327C736.810684 1239.197327,761.443573 1228.991257,779.606400 1210.828430C797.769226 1192.665604,807.975296 1168.032715,807.975296 1142.344650Z" style="stroke:rgb(25.500488%,41.000366%,88.400269%); stroke-width: 2.500000;stroke-linecap: round;stroke-linejoin: round;stroke-miterlimit: 10.000000;fill: none;"></path>
  <path d="M773.770615 984.258331C773.770615 958.570267,763.564545 933.937378,745.401718 915.774551C727.238892 897.611725,702.606003 887.405655,676.917938 887.405655C651.229874 887.405655,626.596985 897.611725,608.434158 915.774551C590.271332 933.937378,580.065262 958.570267,580.065262 984.258331C580.065262 1009.946396,590.271332 1034.579285,608.434158 1052.742111C626.596985 1070.904938,651.229874 1081.111008,676.917938 1081.111008C702.606003 1081.111008,727.238892 1070.904938,745.401718 1052.742111C763.564545 1034.579285,773.770615 1009.946396,773.770615 984.258331Z" style="stroke:rgb(25.500488%,41.000366%,88.400269%); stroke-width: 2.500000;stroke-linecap: round;stroke-linejoin: round;stroke-miterlimit: 10.000000;fill: none;"></path>
  <path d="M750.945877 813.144150C750.945877 787.456085,740.739807 762.823196,722.576981 744.660370C704.414154 726.497543,679.781265 716.291473,654.093201 716.291473C628.405136 716.291473,603.772247 726.497543,585.609421 744.660370C567.446594 762.823196,557.240524 787.456085,557.240524 813.144150C557.240524 838.832214,567.446594 863.465103,585.609421 881.627930C603.772247 899.790756,628.405136 909.996826,654.093201 909.996826C679.781265 909.996826,704.414154 899.790756,722.576981 881.627930C740.739807 863.465103,750.945877 838.832214,750.945877 813.144150Z" style="stroke:rgb(25.500488%,41.000366%,88.400269%); stroke-width: 2.500000;stroke-linecap: round;stroke-linejoin: round;stroke-miterlimit: 10.000000;fill: none;"></path>
  <path d="M738.774414 652.579422C738.774414 626.891357,728.568344 602.258469,710.405518 584.095642C692.242691 565.932816,667.609802 555.726746,641.921738 555.726746C616.233673 555.726746,591.600784 565.932816,573.437958 584.095642C555.275131 602.258469,545.069061 626.891357,545.069061 652.579422C545.069061 678.267487,555.275131 702.900375,573.437958 721.063202C591.600784 739.226028,616.233673 749.432098,641.921738 749.432098C667.609802 749.432098,692.242691 739.226028,710.405518 721.063202C728.568344 702.900375,738.774414 678.267487,738.774414 652.579422Z" style="stroke:rgb(25.500488%,41.000366%,88.400269%); stroke-width: 2.500000;stroke-linecap: round;stroke-linejoin: round;stroke-miterlimit: 10.000000;fill: none;"></path>
  <path d="M719.751633 484.177216C719.751633 458.489151,709.545563 433.856262,691.382736 415.693436C673.219910 397.530609,648.587021 387.324539,622.898956 387.324539C597.210892 387.324539,572.578003 397.530609,554.415176 415.693436C536.252350 433.856262,526.046280 458.489151,526.046280 484.177216C526.046280 509.865280,536.252350 534.498169,554.415176 552.660995C572.578003 570.823822,597.210892 581.029892,622.898956 581.029892C648.587021 581.029892,673.219910 570.823822,691.382736 552.660995C709.545563 534.498169,719.751633 509.865280,719.751633 484.177216Z" style="stroke:rgb(25.500488%,41.000366%,88.400269%); stroke-width: 2.500000;stroke-linecap: round;stroke-linejoin: round;stroke-miterlimit: 10.000000;fill: none;"></path>
  <path d="M719.985199 322.483597C719.985199 296.795532,709.779129 272.162643,691.616302 253.999817C673.453476 235.836990,648.820587 225.630920,623.132523 225.630920C597.444458 225.630920,572.811569 235.836990,554.648743 253.999817C536.485916 272.162643,526.279846 296.795532,526.279846 322.483597C526.279846 348.171661,536.485916 372.804550,554.648743 390.967377C572.811569 409.130203,597.444458 419.336273,623.132523 419.336273C648.820587 419.336273,673.453476 409.130203,691.616302 390.967377C709.779129 372.804550,719.985199 348.171661,719.985199 322.483597Z" style="stroke:rgb(25.500488%,41.000366%,88.400269%); stroke-width: 2.500000;stroke-linecap: round;stroke-linejoin: round;stroke-miterlimit: 10.000000;fill: none;"></path>
  <path d="M676.710327 190.504944C676.710327 164.816879,666.504257 140.183990,648.341431 122.021164C630.178604 103.858337,605.545715 93.652267,579.857651 93.652267C554.169586 93.652267,529.536697 103.858337,511.373871 122.021164C493.211044 140.183990,483.004974 164.816879,483.004974 190.504944C483.004974 216.193008,493.211044 240.825897,511.373871 258.988724C529.536697 277.151550,554.169586 287.357620,579.857651 287.357620C605.545715 287.357620,630.178604 277.151550,648.341431 258.988724C666.504257 240.825897,676.710327 216.193008,676.710327 190.504944Z" style="stroke:rgb(25.500488%,41.000366%,88.400269%); stroke-width: 2.500000;stroke-linecap: round;stroke-linejoin: round;stroke-miterlimit: 10.000000;fill: none;"></path>
  <path d="M742.602325 1581.347839C742.602325 1555.659775,732.396255 1531.026886,714.233429 1512.864059C696.070602 1494.701233,671.437714 1484.495163,645.749649 1484.495163C620.061584 1484.495163,595.428696 1494.701233,577.265869 1512.864059C559.103043 1531.026886,548.896973 1555.659775,548.896973 1581.347839C548.896973 1607.035904,559.103043 1631.668793,577.265869 1649.831619C595.428696 1667.994446,620.061584 1678.200516,645.749649 1678.200516C671.437714 1678.200516,696.070602 1667.994446,714.233429 1649.831619C732.396255 1631.668793,742.602325 1607.035904,742.602325 1581.347839Z" style="stroke:rgb(25.500488%,41.000366%,88.400269%); stroke-width: 2.500000;stroke-linecap: round;stroke-linejoin: round;stroke-miterlimit: 10.000000;fill: none;"></path>
  <path d="M690.516754 1416.280457C690.516754 1390.592392,680.310684 1365.959503,662.147858 1347.796677C643.985031 1329.633850,619.352142 1319.427780,593.664078 1319.427780C567.976013 1319.427780,543.343124 1329.633850,525.180298 1347.796677C507.017471 1365.959503,496.811401 1390.592392,496.811401 1416.280457C496.811401 1441.968521,507.017471 1466.601410,525.180298 1484.764236C543.343124 1502.927063,567.976013 1513.133133,593.664078 1513.133133C619.352142 1513.133133,643.985031 1502.927063,662.147858 1484.764236C680.310684 1466.601410,690.516754 1441.968521,690.516754 1416.280457Z" style="stroke:rgb(25.500488%,41.000366%,88.400269%); stroke-width: 2.500000;stroke-linecap: round;stroke-linejoin: round;stroke-miterlimit: 10.000000;fill: none;"></path>
  <path d="M676.463776 1253.509827C676.463776 1227.821762,666.257706 1203.188873,648.094879 1185.026047C629.932053 1166.863220,605.299164 1156.657150,579.611099 1156.657150C553.923035 1156.657150,529.290146 1166.863220,511.127319 1185.026047C492.964493 1203.188873,482.758423 1227.821762,482.758423 1253.509827C482.758423 1279.197891,492.964493 1303.830780,511.127319 1321.993607C529.290146 1340.156433,553.923035 1350.362503,579.611099 1350.362503C605.299164 1350.362503,629.932053 1340.156433,648.094879 1321.993607C666.257706 1303.830780,676.463776 1279.197891,676.463776 1253.509827Z" style="stroke:rgb(25.500488%,41.000366%,88.400269%); stroke-width: 2.500000;stroke-linecap: round;stroke-linejoin: round;stroke-miterlimit: 10.000000;fill: none;"></path>
  <path d="M644.400146 1096.279938C644.400146 1070.591873,634.194077 1045.958984,616.031250 1027.796158C597.868423 1009.633331,573.235535 999.427261,547.547470 999.427261C521.859406 999.427261,497.226517 1009.633331,479.063690 1027.796158C460.900864 1045.958984,450.694794 1070.591873,450.694794 1096.279938C450.694794 1121.968002,460.900864 1146.600891,479.063690 1164.763718C497.226517 1182.926544,521.859406 1193.132614,547.547470 1193.132614C573.235535 1193.132614,597.868423 1182.926544,616.031250 1164.763718C634.194077 1146.600891,644.400146 1121.968002,644.400146 1096.279938Z" style="stroke:rgb(25.500488%,41.000366%,88.400269%); stroke-width: 2.500000;stroke-linecap: round;stroke-linejoin: round;stroke-miterlimit: 10.000000;fill: none;"></path>
  <path d="M625.143799 925.736679C625.143799 900.048615,614.937729 875.415726,596.774902 857.252899C578.612076 839.090073,553.979187 828.884003,528.291122 828.884003C502.603058 828.884003,477.970169 839.090073,459.807343 857.252899C441.644516 875.415726,431.438446 900.048615,431.438446 925.736679C431.438446 951.424744,441.644516 976.057632,459.807343 994.220459C477.970169 1012.383286,502.603058 1022.589355,528.291122 1022.589355C553.979187 1022.589355,578.612076 1012.383286,596.774902 994.220459C614.937729 976.057632,625.143799 951.424744,625.143799 925.736679Z" style="stroke:rgb(25.500488%,41.000366%,88.400269%); stroke-width: 2.500000;stroke-linecap: round;stroke-linejoin: round;stroke-miterlimit: 10.000000;fill: none;"></path>
  <path d="M596.609619 757.840546C596.609619 732.152481,586.403549 707.519592,568.240723 689.356766C550.077896 671.193939,525.445007 660.987869,499.756943 660.987869C474.068878 660.987869,449.435989 671.193939,431.273163 689.356766C413.110336 707.519592,402.904266 732.152481,402.904266 757.840546C402.904266 783.528610,413.110336 808.161499,431.273163 826.324326C449.435989 844.487152,474.068878 854.693222,499.756943 854.693222C525.445007 854.693222,550.077896 844.487152,568.240723 826.324326C586.403549 808.161499,596.609619 783.528610,596.609619 757.840546Z" style="stroke:rgb(25.500488%,41.000366%,88.400269%); stroke-width: 2.500000;stroke-linecap: round;stroke-linejoin: round;stroke-miterlimit: 10.000000;fill: none;"></path>
  <path d="M588.071426 594.576813C588.071426 568.888748,577.865356 544.255859,559.702530 526.093033C541.539703 507.930206,516.906815 497.724136,491.218750 497.724136C465.530685 497.724136,440.897797 507.930206,422.734970 526.093033C404.572144 544.255859,394.366074 568.888748,394.366074 594.576813C394.366074 620.264877,404.572144 644.897766,422.734970 663.060593C440.897797 681.223419,465.530685 691.429489,491.218750 691.429489C516.906815 691.429489,541.539703 681.223419,559.702530 663.060593C577.865356 644.897766,588.071426 620.264877,588.071426 594.576813Z" style="stroke:rgb(25.500488%,41.000366%,88.400269%); stroke-width: 2.500000;stroke-linecap: round;stroke-linejoin: round;stroke-miterlimit: 10.000000;fill: none;"></path>
  <path d="M571.968246 424.176315C571.968246 398.488251,561.762177 373.855362,543.599350 355.692535C525.436523 337.529709,500.803635 327.323639,475.115570 327.323639C449.427505 327.323639,424.794617 337.529709,406.631790 355.692535C388.468964 373.855362,378.262894 398.488251,378.262894 424.176315C378.262894 449.864380,388.468964 474.497269,406.631790 492.660095C424.794617 510.822922,449.427505 521.028992,475.115570 521.028992C500.803635 521.028992,525.436523 510.822922,543.599350 492.660095C561.762177 474.497269,571.968246 449.864380,571.968246 424.176315Z" style="stroke:rgb(25.500488%,41.000366%,88.400269%); stroke-width: 2.500000;stroke-linecap: round;stroke-linejoin: round;stroke-miterlimit: 10.000000;fill: none;"></path>
  <path d="M539.632111 298.439102C539.632111 272.751038,529.426041 248.118149,511.263214 229.955322C493.100388 211.792496,468.467499 201.586426,442.779434 201.586426C417.091370 201.586426,392.458481 211.792496,374.295654 229.955322C356.132828 248.118149,345.926758 272.751038,345.926758 298.439102C345.926758 324.127167,356.132828 348.760056,374.295654 366.922882C392.458481 385.085709,417.091370 395.291779,442.779434 395.291779C468.467499 395.291779,493.100388 385.085709,511.263214 366.922882C529.426041 348.760056,539.632111 324.127167,539.632111 298.439102Z" style="stroke:rgb(25.500488%,41.000366%,88.400269%); stroke-width: 2.500000;stroke-linecap: round;stroke-linejoin: round;stroke-miterlimit: 10.000000;fill: none;"></path>
  <path d="M614.840866 1587.732025C614.840866 1562.043961,604.634796 1537.411072,586.471970 1519.248245C568.309143 1501.085419,543.676254 1490.879349,517.988190 1490.879349C492.300125 1490.879349,467.667236 1501.085419,449.504410 1519.248245C431.341583 1537.411072,421.135513 1562.043961,421.135513 1587.732025C421.135513 1613.420090,431.341583 1638.052979,449.504410 1656.215805C467.667236 1674.378632,492.300125 1684.584702,517.988190 1684.584702C543.676254 1684.584702,568.309143 1674.378632,586.471970 1656.215805C604.634796 1638.052979,614.840866 1613.420090,614.840866 1587.732025Z" style="stroke:rgb(25.500488%,41.000366%,88.400269%); stroke-width: 2.500000;stroke-linecap: round;stroke-linejoin: round;stroke-miterlimit: 10.000000;fill: none;"></path>
  <path d="M544.575958 1501.740234C544.575958 1476.052170,534.369888 1451.419281,516.207062 1433.256454C498.044235 1415.093628,473.411346 1404.887558,447.723282 1404.887558C422.035217 1404.887558,397.402328 1415.093628,379.239502 1433.256454C361.076675 1451.419281,350.870605 1476.052170,350.870605 1501.740234C350.870605 1527.428299,361.076675 1552.061188,379.239502 1570.224014C397.402328 1588.386841,422.035217 1598.592911,447.723282 1598.592911C473.411346 1598.592911,498.044235 1588.386841,516.207062 1570.224014C534.369888 1552.061188,544.575958 1527.428299,544.575958 1501.740234Z" style="stroke:rgb(25.500488%,41.000366%,88.400269%); stroke-width: 2.500000;stroke-linecap: round;stroke-linejoin: round;stroke-miterlimit: 10.000000;fill: none;"></path>
  <path d="M534.818024 1341.331223C534.818024 1315.643158,524.611954 1291.010269,506.449127 1272.847443C488.286301 1254.684616,463.653412 1244.478546,437.965347 1244.478546C412.277283 1244.478546,387.644394 1254.684616,369.481567 1272.847443C351.318741 1291.010269,341.112671 1315.643158,341.112671 1341.331223C341.112671 1367.019287,351.318741 1391.652176,369.481567 1409.815002C387.644394 1427.977829,412.277283 1438.183899,437.965347 1438.183899C463.653412 1438.183899,488.286301 1427.977829,506.449127 1409.815002C524.611954 1391.652176,534.818024 1367.019287,534.818024 1341.331223Z" style="stroke:rgb(25.500488%,41.000366%,88.400269%); stroke-width: 2.500000;stroke-linecap: round;stroke-linejoin: round;stroke-miterlimit: 10.000000;fill: none;"></path>
  <path d="M510.423203 1187.708649C510.423203 1162.020584,500.217133 1137.387695,482.054306 1119.224869C463.891479 1101.062042,439.258591 1090.855972,413.570526 1090.855972C387.882462 1090.855972,363.249573 1101.062042,345.086746 1119.224869C326.923920 1137.387695,316.717850 1162.020584,316.717850 1187.708649C316.717850 1213.396713,326.923920 1238.029602,345.086746 1256.192429C363.249573 1274.355255,387.882462 1284.561325,413.570526 1284.561325C439.258591 1284.561325,463.891479 1274.355255,482.054306 1256.192429C500.217133 1238.029602,510.423203 1213.396713,510.423203 1187.708649Z" style="stroke:rgb(25.500488%,41.000366%,88.400269%); stroke-width: 2.500000;stroke-linecap: round;stroke-linejoin: round;stroke-miterlimit: 10.000000;fill: none;"></path>
  <path d="M493.320862 1018.034805C493.320862 992.346741,483.114792 967.713852,464.951965 949.551025C446.789139 931.388199,422.156250 921.182129,396.468185 921.182129C370.780121 921.182129,346.147232 931.388199,327.984406 949.551025C309.821579 967.713852,299.615509 992.346741,299.615509 1018.034805C299.615509 1043.722870,309.821579 1068.355759,327.984406 1086.518585C346.147232 1104.681412,370.780121 1114.887482,396.468185 1114.887482C422.156250 1114.887482,446.789139 1104.681412,464.951965 1086.518585C483.114792 1068.355759,493.320862 1043.722870,493.320862 1018.034805Z" style="stroke:rgb(25.500488%,41.000366%,88.400269%); stroke-width: 2.500000;stroke-linecap: round;stroke-linejoin: round;stroke-miterlimit: 10.000000;fill: none;"></path>
  <path d="M468.575668 852.655991C468.575668 826.967926,458.369598 802.335037,440.206772 784.172211C422.043945 766.009384,397.411057 755.803314,371.722992 755.803314C346.034927 755.803314,321.402039 766.009384,303.239212 784.172211C285.076385 802.335037,274.870316 826.967926,274.870316 852.655991C274.870316 878.344055,285.076385 902.976944,303.239212 921.139771C321.402039 939.302597,346.034927 949.508667,371.722992 949.508667C397.411057 949.508667,422.043945 939.302597,440.206772 921.139771C458.369598 902.976944,468.575668 878.344055,468.575668 852.655991Z" style="stroke:rgb(25.500488%,41.000366%,88.400269%); stroke-width: 2.500000;stroke-linecap: round;stroke-linejoin: round;stroke-miterlimit: 10.000000;fill: none;"></path>
  <path d="M443.674774 682.047867C443.674774 656.359802,433.468704 631.726913,415.305878 613.564087C397.143051 595.401260,372.510162 585.195190,346.822098 585.195190C321.134033 585.195190,296.501144 595.401260,278.338318 613.564087C260.175491 631.726913,249.969421 656.359802,249.969421 682.047867C249.969421 707.735931,260.175491 732.368820,278.338318 750.531647C296.501144 768.694473,321.134033 778.900543,346.822098 778.900543C372.510162 778.900543,397.143051 768.694473,415.305878 750.531647C433.468704 732.368820,443.674774 707.735931,443.674774 682.047867Z" style="stroke:rgb(25.500488%,41.000366%,88.400269%); stroke-width: 2.500000;stroke-linecap: round;stroke-linejoin: round;stroke-miterlimit: 10.000000;fill: none;"></path>
  <path d="M440.716263 515.085999C440.716263 489.397934,430.510193 464.765045,412.347366 446.602219C394.184540 428.439392,369.551651 418.233322,343.863586 418.233322C318.175522 418.233322,293.542633 428.439392,275.379807 446.602219C257.216980 464.765045,247.010910 489.397934,247.010910 515.085999C247.010910 540.774063,257.216980 565.406952,275.379807 583.569778C293.542633 601.732605,318.175522 611.938675,343.863586 611.938675C369.551651 611.938675,394.184540 601.732605,412.347366 583.569778C430.510193 565.406952,440.716263 540.774063,440.716263 515.085999Z" style="stroke:rgb(25.500488%,41.000366%,88.400269%); stroke-width: 2.500000;stroke-linecap: round;stroke-linejoin: round;stroke-miterlimit: 10.000000;fill: none;"></path>
  <path d="M400.140381 363.228149C400.140381 337.540085,389.934311 312.907196,371.771484 294.744370C353.608658 276.581543,328.975769 266.375473,303.287704 266.375473C277.599640 266.375473,252.966751 276.581543,234.803925 294.744370C216.641098 312.907196,206.435028 337.540085,206.435028 363.228149C206.435028 388.916214,216.641098 413.549103,234.803925 431.711929C252.966751 449.874756,277.599640 460.080826,303.287704 460.080826C328.975769 460.080826,353.608658 449.874756,371.771484 431.711929C389.934311 413.549103,400.140381 388.916214,400.140381 363.228149Z" style="stroke:rgb(25.500488%,41.000366%,88.400269%); stroke-width: 2.500000;stroke-linecap: round;stroke-linejoin: round;stroke-miterlimit: 10.000000;fill: none;"></path>
  <path d="M397.220795 1424.104980C397.220795 1398.416916,387.014725 1373.784027,368.851898 1355.621201C350.689072 1337.458374,326.056183 1327.252304,300.368118 1327.252304C274.680054 1327.252304,250.047165 1337.458374,231.884338 1355.621201C213.721512 1373.784027,203.515442 1398.416916,203.515442 1424.104980C203.515442 1449.793045,213.721512 1474.425934,231.884338 1492.588760C250.047165 1510.751587,274.680054 1520.957657,300.368118 1520.957657C326.056183 1520.957657,350.689072 1510.751587,368.851898 1492.588760C387.014725 1474.425934,397.220795 1449.793045,397.220795 1424.104980Z" style="stroke:rgb(25.500488%,41.000366%,88.400269%); stroke-width: 2.500000;stroke-linecap: round;stroke-linejoin: round;stroke-miterlimit: 10.000000;fill: none;"></path>
  <path d="M368.881256 1268.574936C368.881256 1242.886871,358.675186 1218.253983,340.512360 1200.091156C322.349533 1181.928329,297.716644 1171.722260,272.028580 1171.722260C246.340515 1171.722260,221.707626 1181.928329,203.544800 1200.091156C185.381973 1218.253983,175.175903 1242.886871,175.175903 1268.574936C175.175903 1294.263000,185.381973 1318.895889,203.544800 1337.058716C221.707626 1355.221542,246.340515 1365.427612,272.028580 1365.427612C297.716644 1365.427612,322.349533 1355.221542,340.512360 1337.058716C358.675186 1318.895889,368.881256 1294.263000,368.881256 1268.574936Z" style="stroke:rgb(25.500488%,41.000366%,88.400269%); stroke-width: 2.500000;stroke-linecap: round;stroke-linejoin: round;stroke-miterlimit: 10.000000;fill: none;"></path>
  <path d="M359.447723 1102.469467C359.447723 1076.781403,349.241653 1052.148514,331.078827 1033.985687C312.916000 1015.822861,288.283112 1005.616791,262.595047 1005.616791C236.906982 1005.616791,212.274094 1015.822861,194.111267 1033.985687C175.948441 1052.148514,165.742371 1076.781403,165.742371 1102.469467C165.742371 1128.157532,175.948441 1152.790421,194.111267 1170.953247C212.274094 1189.116074,236.906982 1199.322144,262.595047 1199.322144C288.283112 1199.322144,312.916000 1189.116074,331.078827 1170.953247C349.241653 1152.790421,359.447723 1128.157532,359.447723 1102.469467Z" style="stroke:rgb(25.500488%,41.000366%,88.400269%); stroke-width: 2.500000;stroke-linecap: round;stroke-linejoin: round;stroke-miterlimit: 10.000000;fill: none;"></path>
  <path d="M335.974182 949.391891C335.974182 923.703827,325.768112 899.070938,307.605286 880.908112C289.442459 862.745285,264.809570 852.539215,239.121506 852.539215C213.433441 852.539215,188.800552 862.745285,170.637726 880.908112C152.474899 899.070938,142.268829 923.703827,142.268829 949.391891C142.268829 975.079956,152.474899 999.712845,170.637726 1017.875671C188.800552 1036.038498,213.433441 1046.244568,239.121506 1046.244568C264.809570 1046.244568,289.442459 1036.038498,307.605286 1017.875671C325.768112 999.712845,335.974182 975.079956,335.974182 949.391891Z" style="stroke:rgb(25.500488%,41.000366%,88.400269%); stroke-width: 2.500000;stroke-linecap: round;stroke-linejoin: round;stroke-miterlimit: 10.000000;fill: none;"></path>
  <path d="M324.295807 775.150497C324.295807 749.462433,314.089737 724.829544,295.926910 706.666718C277.764084 688.503891,253.131195 678.297821,227.443130 678.297821C201.755066 678.297821,177.122177 688.503891,158.959351 706.666718C140.796524 724.829544,130.590454 749.462433,130.590454 775.150497C130.590454 800.838562,140.796524 825.471451,158.959351 843.634277C177.122177 861.797104,201.755066 872.003174,227.443130 872.003174C253.131195 872.003174,277.764084 861.797104,295.926910 843.634277C314.089737 825.471451,324.295807 800.838562,324.295807 775.150497Z" style="stroke:rgb(25.500488%,41.000366%,88.400269%); stroke-width: 2.500000;stroke-linecap: round;stroke-linejoin: round;stroke-miterlimit: 10.000000;fill: none;"></path>
  <path d="M296.267700 598.326874C296.267700 572.638809,286.061630 548.005920,267.898804 529.843094C249.735977 511.680267,225.103088 501.474197,199.415024 501.474197C173.726959 501.474197,149.094070 511.680267,130.931244 529.843094C112.768417 548.005920,102.562347 572.638809,102.562347 598.326874C102.562347 624.014938,112.768417 648.647827,130.931244 666.810654C149.094070 684.973480,173.726959 695.179550,199.415024 695.179550C225.103088 695.179550,249.735977 684.973480,267.898804 666.810654C286.061630 648.647827,296.267700 624.014938,296.267700 598.326874Z" style="stroke:rgb(25.500488%,41.000366%,88.400269%); stroke-width: 2.500000;stroke-linecap: round;stroke-linejoin: round;stroke-miterlimit: 10.000000;fill: none;"></path>
  <path d="M282.487213 439.072723C282.487213 413.384659,272.281143 388.751770,254.118317 370.588943C235.955490 352.426117,211.322601 342.220047,185.634537 342.220047C159.946472 342.220047,135.313583 352.426117,117.150757 370.588943C98.987930 388.751770,88.781860 413.384659,88.781860 439.072723C88.781860 464.760788,98.987930 489.393677,117.150757 507.556503C135.313583 525.719330,159.946472 535.925400,185.634537 535.925400C211.322601 535.925400,235.955490 525.719330,254.118317 507.556503C272.281143 489.393677,282.487213 464.760788,282.487213 439.072723Z" style="stroke:rgb(25.500488%,41.000366%,88.400269%); stroke-width: 2.500000;stroke-linecap: round;stroke-linejoin: round;stroke-miterlimit: 10.000000;fill: none;"></path>
  <path d="M223.576279 1206.303223C223.576279 1180.615158,213.370209 1155.982269,195.207382 1137.819443C177.044556 1119.656616,152.411667 1109.450546,126.723602 1109.450546C101.035538 1109.450546,76.402649 1119.656616,58.239822 1137.819443C40.076996 1155.982269,29.870926 1180.615158,29.870926 1206.303223C29.870926 1231.991287,40.076996 1256.624176,58.239822 1274.787003C76.402649 1292.949829,101.035538 1303.155899,126.723602 1303.155899C152.411667 1303.155899,177.044556 1292.949829,195.207382 1274.787003C213.370209 1256.624176,223.576279 1231.991287,223.576279 1206.303223Z" style="stroke:rgb(25.500488%,41.000366%,88.400269%); stroke-width: 2.500000;stroke-linecap: round;stroke-linejoin: round;stroke-miterlimit: 10.000000;fill: none;"></path>
  <path d="M194.639862 1050.526642C194.639862 1024.838577,184.433792 1000.205688,166.270966 982.042862C148.108139 963.880035,123.475250 953.673965,97.787186 953.673965C72.099121 953.673965,47.466232 963.880035,29.303406 982.042862C11.140579 1000.205688,0.934509 1024.838577,0.934509 1050.526642C0.934509 1076.214706,11.140579 1100.847595,29.303406 1119.010422C47.466232 1137.173248,72.099121 1147.379318,97.787186 1147.379318C123.475250 1147.379318,148.108139 1137.173248,166.270966 1119.010422C184.433792 1100.847595,194.639862 1076.214706,194.639862 1050.526642Z" style="stroke:rgb(25.500488%,41.000366%,88.400269%); stroke-width: 2.500000;stroke-linecap: round;stroke-linejoin: round;stroke-miterlimit: 10.000000;fill: none;"></path>
  <path d="M204.916824 914.343781C204.916824 888.655716,194.710754 864.022827,176.547928 845.860001C158.385101 827.697174,133.752213 817.491104,108.064148 817.491104C82.376083 817.491104,57.743195 827.697174,39.580368 845.860001C21.417542 864.022827,11.211472 888.655716,11.211472 914.343781C11.211472 940.031845,21.417542 964.664734,39.580368 982.827560C57.743195 1000.990387,82.376083 1011.196457,108.064148 1011.196457C133.752213 1011.196457,158.385101 1000.990387,176.547928 982.827560C194.710754 964.664734,204.916824 940.031845,204.916824 914.343781Z" style="stroke:rgb(25.500488%,41.000366%,88.400269%); stroke-width: 2.500000;stroke-linecap: round;stroke-linejoin: round;stroke-miterlimit: 10.000000;fill: none;"></path>
  <path d="M201.867477 735.794357C201.867477 710.106293,191.661407 685.473404,173.498581 667.310577C155.335754 649.147751,130.702866 638.941681,105.014801 638.941681C79.326736 638.941681,54.693848 649.147751,36.531021 667.310577C18.368195 685.473404,8.162125 710.106293,8.162125 735.794357C8.162125 761.482422,18.368195 786.115311,36.531021 804.278137C54.693848 822.440964,79.326736 832.647034,105.014801 832.647034C130.702866 832.647034,155.335754 822.440964,173.498581 804.278137C191.661407 786.115311,201.867477 761.482422,201.867477 735.794357Z" style="stroke:rgb(25.500488%,41.000366%,88.400269%); stroke-width: 2.500000;stroke-linecap: round;stroke-linejoin: round;stroke-miterlimit: 10.000000;fill: none;"></path>
</svg>
