<?xml version="1.0"?>
<!-- Created by MetaPost 2.00 on 2022.03.02:1201 -->
<svg version="1.1" xmlns="http://www.w3.org/2000/svg" xmlns:xlink="http://www.w3.org/1999/xlink" width="1712.357254" height="1712.357254" viewBox="0 0 1712.357254 1712.357254">
<!-- Original BoundingBox: -860.545044 -851.812210 851.812210 860.545044 -->
  <path d="M1710.393524 860.000000L860.000000 9.606476L9.606476 860.000000L860.000000 1710.393524L1710.393524 860.000000Z" style="fill: rgb(100.000000%,100.000000%,100.000000%);stroke: none;"></path>
  <path d="M1710.393524 860.000000L860.000000 9.606476" style="stroke:rgb(0.000000%,0.000000%,0.000000%); stroke-width: 2.500000;stroke-linecap: round;stroke-linejoin: round;stroke-miterlimit: 10.000000;fill: none;"></path>
  <path d="M860.000000 9.606476L9.606476 860.000000" style="stroke:rgb(0.000000%,0.000000%,0.000000%); stroke-width: 2.500000;stroke-linecap: round;stroke-linejoin: round;stroke-miterlimit: 10.000000;fill: none;"></path>
  <path d="M9.606476 860.000000L860.000000 1710.393524" style="stroke:rgb(0.000000%,0.000000%,0.000000%); stroke-width: 2.500000;stroke-linecap: round;stroke-linejoin: round;stroke-miterlimit: 10.000000;fill: none;"></path>
  <path d="M860.000000 1710.393524L1710.393524 860.000000" style="stroke:rgb(0.000000%,0.000000%,0.000000%); stroke-width: 2.500000;stroke-linecap: round;stroke-linejoin: round;stroke-miterlimit: 10.000000;fill: none;"></path>
  <path d="M1710.562210 867.980225C1710.562210 819.419312,1691.268585 772.853134,1656.933441 738.517975C1622.598282 704.182831,1576.032104 684.889206,1527.471191 684.889206C1478.910278 684.889206,1432.344101 704.182831,1398.008942 738.517975C1363.673798 772.853134,1344.380173 819.419312,1344.380173 867.980225C1344.380173 916.541138,1363.673798 963.107315,1398.008942 997.442474C1432.344101 1031.777618,1478.910278 1051.071243,1527.471191 1051.071243C1576.032104 1051.071243,1622.598282 1031.777618,1656.933441 997.442474C1691.268585 963.107315,1710.562210 916.541138,1710.562210 867.980225Z" style="stroke:rgb(25.500488%,41.000366%,88.400269%); stroke-width: 2.500000;stroke-linecap: round;stroke-linejoin: round;stroke-miterlimit: 10.000000;fill: none;"></path>
  <path d="M1426.531097 1243.440079C1426.531097 1194.879166,1407.237473 1148.312988,1372.902328 1113.977829C1338.567169 1079.642685,1292.000992 1060.349060,1243.440079 1060.349060C1194.879166 1060.349060,1148.312988 1079.642685,1113.977829 1113.977829C1079.642685 1148.312988,1060.349060 1194.879166,1060.349060 1243.440079C1060.349060 1292.000992,1079.642685 1338.567169,1113.977829 1372.902328C1148.312988 1407.237473,1194.879166 1426.531097,1243.440079 1426.531097C1292.000992 1426.531097,1338.567169 1407.237473,1372.902328 1372.902328C1407.237473 1338.567169,1426.531097 1292.000992,1426.531097 1243.440079Z" style="stroke:rgb(25.500488%,41.000366%,88.400269%); stroke-width: 2.500000;stroke-linecap: round;stroke-linejoin: round;stroke-miterlimit: 10.000000;fill: none;"></path>
  <path d="M1529.910690 989.980347C1529.910690 941.419434,1510.617065 894.853256,1476.281921 860.518097C1441.946762 826.182953,1395.380585 806.889328,1346.819672 806.889328C1298.258759 806.889328,1251.692581 826.182953,1217.357422 860.518097C1183.022278 894.853256,1163.728653 941.419434,1163.728653 989.980347C1163.728653 1038.541260,1183.022278 1085.107437,1217.357422 1119.442596C1251.692581 1153.777740,1298.258759 1173.071365,1346.819672 1173.071365C1395.380585 1173.071365,1441.946762 1153.777740,1476.281921 1119.442596C1510.617065 1085.107437,1529.910690 1038.541260,1529.910690 989.980347Z" style="stroke:rgb(25.500488%,41.000366%,88.400269%); stroke-width: 2.500000;stroke-linecap: round;stroke-linejoin: round;stroke-miterlimit: 10.000000;fill: none;"></path>
  <path d="M1539.733505 645.649857C1539.733505 597.088943,1520.439880 550.522766,1486.104736 516.187607C1451.769577 481.852463,1405.203400 462.558838,1356.642487 462.558838C1308.081573 462.558838,1261.515396 481.852463,1227.180237 516.187607C1192.845093 550.522766,1173.551468 597.088943,1173.551468 645.649857C1173.551468 694.210770,1192.845093 740.776947,1227.180237 775.112106C1261.515396 809.447250,1308.081573 828.740875,1356.642487 828.740875C1405.203400 828.740875,1451.769577 809.447250,1486.104736 775.112106C1520.439880 740.776947,1539.733505 694.210770,1539.733505 645.649857Z" style="stroke:rgb(25.500488%,41.000366%,88.400269%); stroke-width: 2.500000;stroke-linecap: round;stroke-linejoin: round;stroke-miterlimit: 10.000000;fill: none;"></path>
  <path d="M1051.071243 1527.471191C1051.071243 1478.910278,1031.777618 1432.344101,997.442474 1398.008942C963.107315 1363.673798,916.541138 1344.380173,867.980225 1344.380173C819.419312 1344.380173,772.853134 1363.673798,738.517975 1398.008942C704.182831 1432.344101,684.889206 1478.910278,684.889206 1527.471191C684.889206 1576.032104,704.182831 1622.598282,738.517975 1656.933441C772.853134 1691.268585,819.419312 1710.562210,867.980225 1710.562210C916.541138 1710.562210,963.107315 1691.268585,997.442474 1656.933441C1031.777618 1622.598282,1051.071243 1576.032104,1051.071243 1527.471191Z" style="stroke:rgb(25.500488%,41.000366%,88.400269%); stroke-width: 2.500000;stroke-linecap: round;stroke-linejoin: round;stroke-miterlimit: 10.000000;fill: none;"></path>
  <path d="M1173.071365 1346.819672C1173.071365 1298.258759,1153.777740 1251.692581,1119.442596 1217.357422C1085.107437 1183.022278,1038.541260 1163.728653,989.980347 1163.728653C941.419434 1163.728653,894.853256 1183.022278,860.518097 1217.357422C826.182953 1251.692581,806.889328 1298.258759,806.889328 1346.819672C806.889328 1395.380585,826.182953 1441.946762,860.518097 1476.281921C894.853256 1510.617065,941.419434 1529.910690,989.980347 1529.910690C1038.541260 1529.910690,1085.107437 1510.617065,1119.442596 1476.281921C1153.777740 1441.946762,1173.071365 1395.380585,1173.071365 1346.819672Z" style="stroke:rgb(25.500488%,41.000366%,88.400269%); stroke-width: 2.500000;stroke-linecap: round;stroke-linejoin: round;stroke-miterlimit: 10.000000;fill: none;"></path>
  <path d="M1192.950562 1009.859543C1192.950562 961.298630,1173.656937 914.732452,1139.321793 880.397293C1104.986633 846.062149,1058.420456 826.768524,1009.859543 826.768524C961.298630 826.768524,914.732452 846.062149,880.397293 880.397293C846.062149 914.732452,826.768524 961.298630,826.768524 1009.859543C826.768524 1058.420456,846.062149 1104.986633,880.397293 1139.321793C914.732452 1173.656937,961.298630 1192.950562,1009.859543 1192.950562C1058.420456 1192.950562,1104.986633 1173.656937,1139.321793 1139.321793C1173.656937 1104.986633,1192.950562 1058.420456,1192.950562 1009.859543Z" style="stroke:rgb(25.500488%,41.000366%,88.400269%); stroke-width: 2.500000;stroke-linecap: round;stroke-linejoin: round;stroke-miterlimit: 10.000000;fill: none;"></path>
  <path d="M1300.067230 755.115189C1300.067230 706.554276,1280.773605 659.988098,1246.438461 625.652939C1212.103302 591.317795,1165.537125 572.024170,1116.976212 572.024170C1068.415298 572.024170,1021.849121 591.317795,987.513962 625.652939C953.178818 659.988098,933.885193 706.554276,933.885193 755.115189C933.885193 803.676102,953.178818 850.242279,987.513962 884.577438C1021.849121 918.912582,1068.415298 938.206207,1116.976212 938.206207C1165.537125 938.206207,1212.103302 918.912582,1246.438461 884.577438C1280.773605 850.242279,1300.067230 803.676102,1300.067230 755.115189Z" style="stroke:rgb(25.500488%,41.000366%,88.400269%); stroke-width: 2.500000;stroke-linecap: round;stroke-linejoin: round;stroke-miterlimit: 10.000000;fill: none;"></path>
  <path d="M1324.371231 416.182709C1324.371231 367.621796,1305.077606 321.055618,1270.742462 286.720459C1236.407303 252.385315,1189.841125 233.091690,1141.280212 233.091690C1092.719299 233.091690,1046.153122 252.385315,1011.817963 286.720459C977.482819 321.055618,958.189194 367.621796,958.189194 416.182709C958.189194 464.743622,977.482819 511.309799,1011.817963 545.644958C1046.153122 579.980103,1092.719299 599.273727,1141.280212 599.273727C1189.841125 599.273727,1236.407303 579.980103,1270.742462 545.644958C1305.077606 511.309799,1324.371231 464.743622,1324.371231 416.182709Z" style="stroke:rgb(25.500488%,41.000366%,88.400269%); stroke-width: 2.500000;stroke-linecap: round;stroke-linejoin: round;stroke-miterlimit: 10.000000;fill: none;"></path>
  <path d="M828.740875 1356.642487C828.740875 1308.081573,809.447250 1261.515396,775.112106 1227.180237C740.776947 1192.845093,694.210770 1173.551468,645.649857 1173.551468C597.088943 1173.551468,550.522766 1192.845093,516.187607 1227.180237C481.852463 1261.515396,462.558838 1308.081573,462.558838 1356.642487C462.558838 1405.203400,481.852463 1451.769577,516.187607 1486.104736C550.522766 1520.439880,597.088943 1539.733505,645.649857 1539.733505C694.210770 1539.733505,740.776947 1520.439880,775.112106 1486.104736C809.447250 1451.769577,828.740875 1405.203400,828.740875 1356.642487Z" style="stroke:rgb(25.500488%,41.000366%,88.400269%); stroke-width: 2.500000;stroke-linecap: round;stroke-linejoin: round;stroke-miterlimit: 10.000000;fill: none;"></path>
  <path d="M938.206207 1116.976212C938.206207 1068.415298,918.912582 1021.849121,884.577438 987.513962C850.242279 953.178818,803.676102 933.885193,755.115189 933.885193C706.554276 933.885193,659.988098 953.178818,625.652939 987.513962C591.317795 1021.849121,572.024170 1068.415298,572.024170 1116.976212C572.024170 1165.537125,591.317795 1212.103302,625.652939 1246.438461C659.988098 1280.773605,706.554276 1300.067230,755.115189 1300.067230C803.676102 1300.067230,850.242279 1280.773605,884.577438 1246.438461C918.912582 1212.103302,938.206207 1165.537125,938.206207 1116.976212Z" style="stroke:rgb(25.500488%,41.000366%,88.400269%); stroke-width: 2.500000;stroke-linecap: round;stroke-linejoin: round;stroke-miterlimit: 10.000000;fill: none;"></path>
  <path d="M961.835464 778.744446C961.835464 730.183533,942.541840 683.617355,908.206696 649.282196C873.871536 614.947052,827.305359 595.653427,778.744446 595.653427C730.183533 595.653427,683.617355 614.947052,649.282196 649.282196C614.947052 683.617355,595.653427 730.183533,595.653427 778.744446C595.653427 827.305359,614.947052 873.871536,649.282196 908.206696C683.617355 942.541840,730.183533 961.835464,778.744446 961.835464C827.305359 961.835464,873.871536 942.541840,908.206696 908.206696C942.541840 873.871536,961.835464 827.305359,961.835464 778.744446Z" style="stroke:rgb(25.500488%,41.000366%,88.400269%); stroke-width: 2.500000;stroke-linecap: round;stroke-linejoin: round;stroke-miterlimit: 10.000000;fill: none;"></path>
  <path d="M1069.951294 524.311523C1069.951294 475.750610,1050.657669 429.184433,1016.322525 394.849274C981.987366 360.514130,935.421188 341.220505,886.860275 341.220505C838.299362 341.220505,791.733185 360.514130,757.398026 394.849274C723.062881 429.184433,703.769257 475.750610,703.769257 524.311523C703.769257 572.872437,723.062881 619.438614,757.398026 653.773773C791.733185 688.108917,838.299362 707.402542,886.860275 707.402542C935.421188 707.402542,981.987366 688.108917,1016.322525 653.773773C1050.657669 619.438614,1069.951294 572.872437,1069.951294 524.311523Z" style="stroke:rgb(25.500488%,41.000366%,88.400269%); stroke-width: 2.500000;stroke-linecap: round;stroke-linejoin: round;stroke-miterlimit: 10.000000;fill: none;"></path>
  <path d="M1099.523529 183.795975C1099.523529 135.235062,1080.229904 88.668884,1045.894760 54.333725C1011.559601 19.998581,964.993423 0.704956,916.432510 0.704956C867.871597 0.704956,821.305420 19.998581,786.970261 54.333725C752.635117 88.668884,733.341492 135.235062,733.341492 183.795975C733.341492 232.356888,752.635117 278.923065,786.970261 313.258224C821.305420 347.593369,867.871597 366.886993,916.432510 366.886993C964.993423 366.886993,1011.559601 347.593369,1045.894760 313.258224C1080.229904 278.923065,1099.523529 232.356888,1099.523529 183.795975Z" style="stroke:rgb(25.500488%,41.000366%,88.400269%); stroke-width: 2.500000;stroke-linecap: round;stroke-linejoin: round;stroke-miterlimit: 10.000000;fill: none;"></path>
  <path d="M599.273727 1141.280212C599.273727 1092.719299,579.980103 1046.153122,545.644958 1011.817963C511.309799 977.482819,464.743622 958.189194,416.182709 958.189194C367.621796 958.189194,321.055618 977.482819,286.720459 1011.817963C252.385315 1046.153122,233.091690 1092.719299,233.091690 1141.280212C233.091690 1189.841125,252.385315 1236.407303,286.720459 1270.742462C321.055618 1305.077606,367.621796 1324.371231,416.182709 1324.371231C464.743622 1324.371231,511.309799 1305.077606,545.644958 1270.742462C579.980103 1236.407303,599.273727 1189.841125,599.273727 1141.280212Z" style="stroke:rgb(25.500488%,41.000366%,88.400269%); stroke-width: 2.500000;stroke-linecap: round;stroke-linejoin: round;stroke-miterlimit: 10.000000;fill: none;"></path>
  <path d="M707.402542 886.860275C707.402542 838.299362,688.108917 791.733185,653.773773 757.398026C619.438614 723.062881,572.872437 703.769257,524.311523 703.769257C475.750610 703.769257,429.184433 723.062881,394.849274 757.398026C360.514130 791.733185,341.220505 838.299362,341.220505 886.860275C341.220505 935.421188,360.514130 981.987366,394.849274 1016.322525C429.184433 1050.657669,475.750610 1069.951294,524.311523 1069.951294C572.872437 1069.951294,619.438614 1050.657669,653.773773 1016.322525C688.108917 981.987366,707.402542 935.421188,707.402542 886.860275Z" style="stroke:rgb(25.500488%,41.000366%,88.400269%); stroke-width: 2.500000;stroke-linecap: round;stroke-linejoin: round;stroke-miterlimit: 10.000000;fill: none;"></path>
  <path d="M731.200470 548.109451C731.200470 499.548538,711.906845 452.982361,677.571701 418.647202C643.236542 384.312057,596.670364 365.018433,548.109451 365.018433C499.548538 365.018433,452.982361 384.312057,418.647202 418.647202C384.312057 452.982361,365.018433 499.548538,365.018433 548.109451C365.018433 596.670364,384.312057 643.236542,418.647202 677.571701C452.982361 711.906845,499.548538 731.200470,548.109451 731.200470C596.670364 731.200470,643.236542 711.906845,677.571701 677.571701C711.906845 643.236542,731.200470 596.670364,731.200470 548.109451Z" style="stroke:rgb(25.500488%,41.000366%,88.400269%); stroke-width: 2.500000;stroke-linecap: round;stroke-linejoin: round;stroke-miterlimit: 10.000000;fill: none;"></path>
  <path d="M845.103592 291.937744C845.103592 243.376831,825.809967 196.810654,791.474823 162.475494C757.139664 128.140350,710.573486 108.846725,662.012573 108.846725C613.451660 108.846725,566.885483 128.140350,532.550323 162.475494C498.215179 196.810654,478.921555 243.376831,478.921555 291.937744C478.921555 340.498657,498.215179 387.064835,532.550323 421.399994C566.885483 455.735138,613.451660 475.028763,662.012573 475.028763C710.573486 475.028763,757.139664 455.735138,791.474823 421.399994C825.809967 387.064835,845.103592 340.498657,845.103592 291.937744Z" style="stroke:rgb(25.500488%,41.000366%,88.400269%); stroke-width: 2.500000;stroke-linecap: round;stroke-linejoin: round;stroke-miterlimit: 10.000000;fill: none;"></path>
  <path d="M366.886993 916.432510C366.886993 867.871597,347.593369 821.305420,313.258224 786.970261C278.923065 752.635117,232.356888 733.341492,183.795975 733.341492C135.235062 733.341492,88.668884 752.635117,54.333725 786.970261C19.998581 821.305420,0.704956 867.871597,0.704956 916.432510C0.704956 964.993423,19.998581 1011.559601,54.333725 1045.894760C88.668884 1080.229904,135.235062 1099.523529,183.795975 1099.523529C232.356888 1099.523529,278.923065 1080.229904,313.258224 1045.894760C347.593369 1011.559601,366.886993 964.993423,366.886993 916.432510Z" style="stroke:rgb(25.500488%,41.000366%,88.400269%); stroke-width: 2.500000;stroke-linecap: round;stroke-linejoin: round;stroke-miterlimit: 10.000000;fill: none;"></path>
  <path d="M475.028763 662.012573C475.028763 613.451660,455.735138 566.885483,421.399994 532.550323C387.064835 498.215179,340.498657 478.921555,291.937744 478.921555C243.376831 478.921555,196.810654 498.215179,162.475494 532.550323C128.140350 566.885483,108.846725 613.451660,108.846725 662.012573C108.846725 710.573486,128.140350 757.139664,162.475494 791.474823C196.810654 825.809967,243.376831 845.103592,291.937744 845.103592C340.498657 845.103592,387.064835 825.809967,421.399994 791.474823C455.735138 757.139664,475.028763 710.573486,475.028763 662.012573Z" style="stroke:rgb(25.500488%,41.000366%,88.400269%); stroke-width: 2.500000;stroke-linecap: round;stroke-linejoin: round;stroke-miterlimit: 10.000000;fill: none;"></path>
</svg>
