<?xml version="1.0"?>
<!-- Created by MetaPost 2.00 on 2022.03.02:1201 -->
<svg version="1.1" xmlns="http://www.w3.org/2000/svg" xmlns:xlink="http://www.w3.org/1999/xlink" width="1706.531052" height="1709.878860" viewBox="0 0 1706.531052 1709.878860">
<!-- Original BoundingBox: -851.916031 -854.420395 854.615021 855.458466 -->
  <path d="M1701.393524 855.000000L851.000000 4.606476L0.606476 855.000000L851.000000 1705.393524L1701.393524 855.000000Z" style="fill: rgb(100.000000%,100.000000%,100.000000%);stroke: none;"></path>
  <path d="M1701.393524 855.000000L851.000000 4.606476" style="stroke:rgb(0.000000%,0.000000%,0.000000%); stroke-width: 2.500000;stroke-linecap: round;stroke-linejoin: round;stroke-miterlimit: 10.000000;fill: none;"></path>
  <path d="M851.000000 4.606476L0.606476 855.000000" style="stroke:rgb(0.000000%,0.000000%,0.000000%); stroke-width: 2.500000;stroke-linecap: round;stroke-linejoin: round;stroke-miterlimit: 10.000000;fill: none;"></path>
  <path d="M0.606476 855.000000L851.000000 1705.393524" style="stroke:rgb(0.000000%,0.000000%,0.000000%); stroke-width: 2.500000;stroke-linecap: round;stroke-linejoin: round;stroke-miterlimit: 10.000000;fill: none;"></path>
  <path d="M851.000000 1705.393524L1701.393524 855.000000" style="stroke:rgb(0.000000%,0.000000%,0.000000%); stroke-width: 2.500000;stroke-linecap: round;stroke-linejoin: round;stroke-miterlimit: 10.000000;fill: none;"></path>
  <path d="M1704.365021 876.345474C1704.365021 855.630508,1696.134811 835.766449,1681.488220 821.119873C1666.841644 806.473282,1646.977585 798.243073,1626.262619 798.243073C1605.547653 798.243073,1585.683594 806.473282,1571.037018 821.119873C1556.390427 835.766449,1548.160217 855.630508,1548.160217 876.345474C1548.160217 897.060440,1556.390427 916.924500,1571.037018 931.571075C1585.683594 946.217667,1605.547653 954.447876,1626.262619 954.447876C1646.977585 954.447876,1666.841644 946.217667,1681.488220 931.571075C1696.134811 916.924500,1704.365021 897.060440,1704.365021 876.345474Z" style="stroke:rgb(25.500488%,41.000366%,88.400269%); stroke-width: 2.500000;stroke-linecap: round;stroke-linejoin: round;stroke-miterlimit: 10.000000;fill: none;"></path>
  <path d="M1666.280548 750.543396C1666.280548 729.828430,1658.050339 709.964371,1643.403748 695.317795C1628.757172 680.671204,1608.893112 672.440994,1588.178146 672.440994C1567.463181 672.440994,1547.599121 680.671204,1532.952545 695.317795C1518.305954 709.964371,1510.075745 729.828430,1510.075745 750.543396C1510.075745 771.258362,1518.305954 791.122421,1532.952545 805.768997C1547.599121 820.415588,1567.463181 828.645798,1588.178146 828.645798C1608.893112 828.645798,1628.757172 820.415588,1643.403748 805.768997C1658.050339 791.122421,1666.280548 771.258362,1666.280548 750.543396Z" style="stroke:rgb(25.500488%,41.000366%,88.400269%); stroke-width: 2.500000;stroke-linecap: round;stroke-linejoin: round;stroke-miterlimit: 10.000000;fill: none;"></path>
  <path d="M1607.719971 972.186035C1607.719971 951.471069,1599.489761 931.607010,1584.843170 916.960434C1570.196594 902.313843,1550.332535 894.083633,1529.617569 894.083633C1508.902603 894.083633,1489.038544 902.313843,1474.391968 916.960434C1459.745377 931.607010,1451.515167 951.471069,1451.515167 972.186035C1451.515167 992.901001,1459.745377 1012.765060,1474.391968 1027.411636C1489.038544 1042.058228,1508.902603 1050.288437,1529.617569 1050.288437C1550.332535 1050.288437,1570.196594 1042.058228,1584.843170 1027.411636C1599.489761 1012.765060,1607.719971 992.901001,1607.719971 972.186035Z" style="stroke:rgb(25.500488%,41.000366%,88.400269%); stroke-width: 2.500000;stroke-linecap: round;stroke-linejoin: round;stroke-miterlimit: 10.000000;fill: none;"></path>
  <path d="M1569.635483 846.383957C1569.635483 825.668991,1561.405273 805.804932,1546.758682 791.158356C1532.112106 776.511765,1512.248047 768.281555,1491.533081 768.281555C1470.818115 768.281555,1450.954056 776.511765,1436.307480 791.158356C1421.660889 805.804932,1413.430679 825.668991,1413.430679 846.383957C1413.430679 867.098923,1421.660889 886.962982,1436.307480 901.609558C1450.954056 916.256149,1470.818115 924.486359,1491.533081 924.486359C1512.248047 924.486359,1532.112106 916.256149,1546.758682 901.609558C1561.405273 886.962982,1569.635483 867.098923,1569.635483 846.383957Z" style="stroke:rgb(25.500488%,41.000366%,88.400269%); stroke-width: 2.500000;stroke-linecap: round;stroke-linejoin: round;stroke-miterlimit: 10.000000;fill: none;"></path>
  <path d="M1540.660126 713.081757C1540.660126 692.366791,1532.429916 672.502731,1517.783325 657.856155C1503.136749 643.209564,1483.272690 634.979355,1462.557724 634.979355C1441.842758 634.979355,1421.978699 643.209564,1407.332123 657.856155C1392.685532 672.502731,1384.455322 692.366791,1384.455322 713.081757C1384.455322 733.796722,1392.685532 753.660782,1407.332123 768.307358C1421.978699 782.953949,1441.842758 791.184158,1462.557724 791.184158C1483.272690 791.184158,1503.136749 782.953949,1517.783325 768.307358C1532.429916 753.660782,1540.660126 733.796722,1540.660126 713.081757Z" style="stroke:rgb(25.500488%,41.000366%,88.400269%); stroke-width: 2.500000;stroke-linecap: round;stroke-linejoin: round;stroke-miterlimit: 10.000000;fill: none;"></path>
  <path d="M1499.046173 592.794464C1499.046173 572.079498,1490.815964 552.215439,1476.169373 537.568863C1461.522797 522.922272,1441.658737 514.692062,1420.943771 514.692062C1400.228806 514.692062,1380.364746 522.922272,1365.718170 537.568863C1351.071579 552.215439,1342.841370 572.079498,1342.841370 592.794464C1342.841370 613.509430,1351.071579 633.373489,1365.718170 648.020065C1380.364746 662.666656,1400.228806 670.896866,1420.943771 670.896866C1441.658737 670.896866,1461.522797 662.666656,1476.169373 648.020065C1490.815964 633.373489,1499.046173 613.509430,1499.046173 592.794464Z" style="stroke:rgb(25.500488%,41.000366%,88.400269%); stroke-width: 2.500000;stroke-linecap: round;stroke-linejoin: round;stroke-miterlimit: 10.000000;fill: none;"></path>
  <path d="M1511.645844 1068.026581C1511.645844 1047.311615,1503.415634 1027.447556,1488.769043 1012.800980C1474.122467 998.154388,1454.258408 989.924179,1433.543442 989.924179C1412.828476 989.924179,1392.964417 998.154388,1378.317841 1012.800980C1363.671249 1027.447556,1355.441040 1047.311615,1355.441040 1068.026581C1355.441040 1088.741547,1363.671249 1108.605606,1378.317841 1123.252182C1392.964417 1137.898773,1412.828476 1146.128983,1433.543442 1146.128983C1454.258408 1146.128983,1474.122467 1137.898773,1488.769043 1123.252182C1503.415634 1108.605606,1511.645844 1088.741547,1511.645844 1068.026581Z" style="stroke:rgb(25.500488%,41.000366%,88.400269%); stroke-width: 2.500000;stroke-linecap: round;stroke-linejoin: round;stroke-miterlimit: 10.000000;fill: none;"></path>
  <path d="M1472.951477 942.042847C1472.951477 921.327881,1464.721268 901.463821,1450.074677 886.817245C1435.428101 872.170654,1415.564041 863.940445,1394.849075 863.940445C1374.134109 863.940445,1354.270050 872.170654,1339.623474 886.817245C1324.976883 901.463821,1316.746674 921.327881,1316.746674 942.042847C1316.746674 962.757812,1324.976883 982.621872,1339.623474 997.268448C1354.270050 1011.915039,1374.134109 1020.145248,1394.849075 1020.145248C1415.564041 1020.145248,1435.428101 1011.915039,1450.074677 997.268448C1464.721268 982.621872,1472.951477 962.757812,1472.951477 942.042847Z" style="stroke:rgb(25.500488%,41.000366%,88.400269%); stroke-width: 2.500000;stroke-linecap: round;stroke-linejoin: round;stroke-miterlimit: 10.000000;fill: none;"></path>
  <path d="M1443.132690 810.155029C1443.132690 789.440063,1434.902481 769.576004,1420.255890 754.929428C1405.609314 740.282837,1385.745255 732.052628,1365.030289 732.052628C1344.315323 732.052628,1324.451263 740.282837,1309.804688 754.929428C1295.158096 769.576004,1286.927887 789.440063,1286.927887 810.155029C1286.927887 830.869995,1295.158096 850.734055,1309.804688 865.380630C1324.451263 880.027222,1344.315323 888.257431,1365.030289 888.257431C1385.745255 888.257431,1405.609314 880.027222,1420.255890 865.380630C1434.902481 850.734055,1443.132690 830.869995,1443.132690 810.155029Z" style="stroke:rgb(25.500488%,41.000366%,88.400269%); stroke-width: 2.500000;stroke-linecap: round;stroke-linejoin: round;stroke-miterlimit: 10.000000;fill: none;"></path>
  <path d="M1402.245392 690.075348C1402.245392 669.360382,1394.015182 649.496323,1379.368591 634.849747C1364.722015 620.203156,1344.857956 611.972946,1324.142990 611.972946C1303.428024 611.972946,1283.563965 620.203156,1268.917389 634.849747C1254.270798 649.496323,1246.040588 669.360382,1246.040588 690.075348C1246.040588 710.790314,1254.270798 730.654373,1268.917389 745.300949C1283.563965 759.947540,1303.428024 768.177750,1324.142990 768.177750C1344.857956 768.177750,1364.722015 759.947540,1379.368591 745.300949C1394.015182 730.654373,1402.245392 710.790314,1402.245392 690.075348Z" style="stroke:rgb(25.500488%,41.000366%,88.400269%); stroke-width: 2.500000;stroke-linecap: round;stroke-linejoin: round;stroke-miterlimit: 10.000000;fill: none;"></path>
  <path d="M1379.822906 554.554260C1379.822906 533.839294,1371.592697 513.975235,1356.946106 499.328659C1342.299530 484.682068,1322.435471 476.451859,1301.720505 476.451859C1281.005539 476.451859,1261.141479 484.682068,1246.494904 499.328659C1231.848312 513.975235,1223.618103 533.839294,1223.618103 554.554260C1223.618103 575.269226,1231.848312 595.133286,1246.494904 609.779861C1261.141479 624.426453,1281.005539 632.656662,1301.720505 632.656662C1322.435471 632.656662,1342.299530 624.426453,1356.946106 609.779861C1371.592697 595.133286,1379.822906 575.269226,1379.822906 554.554260Z" style="stroke:rgb(25.500488%,41.000366%,88.400269%); stroke-width: 2.500000;stroke-linecap: round;stroke-linejoin: round;stroke-miterlimit: 10.000000;fill: none;"></path>
  <path d="M1342.971130 433.449493C1342.971130 412.734528,1334.740921 392.870468,1320.094330 378.223892C1305.447754 363.577301,1285.583694 355.347092,1264.868729 355.347092C1244.153763 355.347092,1224.289703 363.577301,1209.643127 378.223892C1194.996536 392.870468,1186.766327 412.734528,1186.766327 433.449493C1186.766327 454.164459,1194.996536 474.028519,1209.643127 488.675095C1224.289703 503.321686,1244.153763 511.551895,1264.868729 511.551895C1285.583694 511.551895,1305.447754 503.321686,1320.094330 488.675095C1334.740921 474.028519,1342.971130 454.164459,1342.971130 433.449493Z" style="stroke:rgb(25.500488%,41.000366%,88.400269%); stroke-width: 2.500000;stroke-linecap: round;stroke-linejoin: round;stroke-miterlimit: 10.000000;fill: none;"></path>
  <path d="M1415.584702 1163.231323C1415.584702 1142.516357,1407.354492 1122.652298,1392.707901 1108.005722C1378.061325 1093.359131,1358.197266 1085.128922,1337.482300 1085.128922C1316.767334 1085.128922,1296.903275 1093.359131,1282.256699 1108.005722C1267.610107 1122.652298,1259.379898 1142.516357,1259.379898 1163.231323C1259.379898 1183.946289,1267.610107 1203.810349,1282.256699 1218.456924C1296.903275 1233.103516,1316.767334 1241.333725,1337.482300 1241.333725C1358.197266 1241.333725,1378.061325 1233.103516,1392.707901 1218.456924C1407.354492 1203.810349,1415.584702 1183.946289,1415.584702 1163.231323Z" style="stroke:rgb(25.500488%,41.000366%,88.400269%); stroke-width: 2.500000;stroke-linecap: round;stroke-linejoin: round;stroke-miterlimit: 10.000000;fill: none;"></path>
  <path d="M1376.695694 1037.182693C1376.695694 1016.467728,1368.465485 996.603668,1353.818893 981.957092C1339.172318 967.310501,1319.308258 959.080292,1298.593292 959.080292C1277.878326 959.080292,1258.014267 967.310501,1243.367691 981.957092C1228.721100 996.603668,1220.490891 1016.467728,1220.490891 1037.182693C1220.490891 1057.897659,1228.721100 1077.761719,1243.367691 1092.408295C1258.014267 1107.054886,1277.878326 1115.285095,1298.593292 1115.285095C1319.308258 1115.285095,1339.172318 1107.054886,1353.818893 1092.408295C1368.465485 1077.761719,1376.695694 1057.897659,1376.695694 1037.182693Z" style="stroke:rgb(25.500488%,41.000366%,88.400269%); stroke-width: 2.500000;stroke-linecap: round;stroke-linejoin: round;stroke-miterlimit: 10.000000;fill: none;"></path>
  <path d="M1345.345734 908.006866C1345.345734 887.291901,1337.115524 867.427841,1322.468933 852.781265C1307.822357 838.134674,1287.958298 829.904465,1267.243332 829.904465C1246.528366 829.904465,1226.664307 838.134674,1212.017731 852.781265C1197.371140 867.427841,1189.140930 887.291901,1189.140930 908.006866C1189.140930 928.721832,1197.371140 948.585892,1212.017731 963.232468C1226.664307 977.879059,1246.528366 986.109268,1267.243332 986.109268C1287.958298 986.109268,1307.822357 977.879059,1322.468933 963.232468C1337.115524 948.585892,1345.345734 928.721832,1345.345734 908.006866Z" style="stroke:rgb(25.500488%,41.000366%,88.400269%); stroke-width: 2.500000;stroke-linecap: round;stroke-linejoin: round;stroke-miterlimit: 10.000000;fill: none;"></path>
  <path d="M1305.003433 788.095871C1305.003433 767.380905,1296.773224 747.516846,1282.126633 732.870270C1267.480057 718.223679,1247.615997 709.993469,1226.901031 709.993469C1206.186066 709.993469,1186.322006 718.223679,1171.675430 732.870270C1157.028839 747.516846,1148.798630 767.380905,1148.798630 788.095871C1148.798630 808.810837,1157.028839 828.674896,1171.675430 843.321472C1186.322006 857.968063,1206.186066 866.198273,1226.901031 866.198273C1247.615997 866.198273,1267.480057 857.968063,1282.126633 843.321472C1296.773224 828.674896,1305.003433 808.810837,1305.003433 788.095871Z" style="stroke:rgb(25.500488%,41.000366%,88.400269%); stroke-width: 2.500000;stroke-linecap: round;stroke-linejoin: round;stroke-miterlimit: 10.000000;fill: none;"></path>
  <path d="M1280.219315 652.964066C1280.219315 632.249100,1271.989105 612.385040,1257.342514 597.738464C1242.695938 583.091873,1222.831879 574.861664,1202.116913 574.861664C1181.401947 574.861664,1161.537888 583.091873,1146.891312 597.738464C1132.244720 612.385040,1124.014511 632.249100,1124.014511 652.964066C1124.014511 673.679031,1132.244720 693.543091,1146.891312 708.189667C1161.537888 722.836258,1181.401947 731.066467,1202.116913 731.066467C1222.831879 731.066467,1242.695938 722.836258,1257.342514 708.189667C1271.989105 693.543091,1280.219315 673.679031,1280.219315 652.964066Z" style="stroke:rgb(25.500488%,41.000366%,88.400269%); stroke-width: 2.500000;stroke-linecap: round;stroke-linejoin: round;stroke-miterlimit: 10.000000;fill: none;"></path>
  <path d="M1243.497314 531.898209C1243.497314 511.183243,1235.267105 491.319183,1220.620514 476.672607C1205.973938 462.026016,1186.109879 453.795807,1165.394913 453.795807C1144.679947 453.795807,1124.815887 462.026016,1110.169312 476.672607C1095.522720 491.319183,1087.292511 511.183243,1087.292511 531.898209C1087.292511 552.613174,1095.522720 572.477234,1110.169312 587.123810C1124.815887 601.770401,1144.679947 610.000610,1165.394913 610.000610C1186.109879 610.000610,1205.973938 601.770401,1220.620514 587.123810C1235.267105 572.477234,1243.497314 552.613174,1243.497314 531.898209Z" style="stroke:rgb(25.500488%,41.000366%,88.400269%); stroke-width: 2.500000;stroke-linecap: round;stroke-linejoin: round;stroke-miterlimit: 10.000000;fill: none;"></path>
  <path d="M1221.918259 396.753433C1221.918259 376.038467,1213.688049 356.174408,1199.041458 341.527832C1184.394882 326.881241,1164.530823 318.651031,1143.815857 318.651031C1123.100891 318.651031,1103.236832 326.881241,1088.590256 341.527832C1073.943665 356.174408,1065.713455 376.038467,1065.713455 396.753433C1065.713455 417.468399,1073.943665 437.332458,1088.590256 451.979034C1103.236832 466.625626,1123.100891 474.855835,1143.815857 474.855835C1164.530823 474.855835,1184.394882 466.625626,1199.041458 451.979034C1213.688049 437.332458,1221.918259 417.468399,1221.918259 396.753433Z" style="stroke:rgb(25.500488%,41.000366%,88.400269%); stroke-width: 2.500000;stroke-linecap: round;stroke-linejoin: round;stroke-miterlimit: 10.000000;fill: none;"></path>
  <path d="M1185.754227 275.012833C1185.754227 254.297867,1177.524017 234.433807,1162.877426 219.787231C1148.230850 205.140640,1128.366791 196.910431,1107.651825 196.910431C1086.936859 196.910431,1067.072800 205.140640,1052.426224 219.787231C1037.779633 234.433807,1029.549423 254.297867,1029.549423 275.012833C1029.549423 295.727798,1037.779633 315.591858,1052.426224 330.238434C1067.072800 344.885025,1086.936859 353.115234,1107.651825 353.115234C1128.366791 353.115234,1148.230850 344.885025,1162.877426 330.238434C1177.524017 315.591858,1185.754227 295.727798,1185.754227 275.012833Z" style="stroke:rgb(25.500488%,41.000366%,88.400269%); stroke-width: 2.500000;stroke-linecap: round;stroke-linejoin: round;stroke-miterlimit: 10.000000;fill: none;"></path>
  <path d="M1320.094498 1258.202484C1320.094498 1237.487518,1311.864288 1217.623459,1297.217697 1202.976883C1282.571121 1188.330292,1262.707062 1180.100082,1241.992096 1180.100082C1221.277130 1180.100082,1201.413071 1188.330292,1186.766495 1202.976883C1172.119904 1217.623459,1163.889694 1237.487518,1163.889694 1258.202484C1163.889694 1278.917450,1172.119904 1298.781509,1186.766495 1313.428085C1201.413071 1328.074677,1221.277130 1336.304886,1241.992096 1336.304886C1262.707062 1336.304886,1282.571121 1328.074677,1297.217697 1313.428085C1311.864288 1298.781509,1320.094498 1278.917450,1320.094498 1258.202484Z" style="stroke:rgb(25.500488%,41.000366%,88.400269%); stroke-width: 2.500000;stroke-linecap: round;stroke-linejoin: round;stroke-miterlimit: 10.000000;fill: none;"></path>
  <path d="M1280.517761 1131.985168C1280.517761 1111.270203,1272.287552 1091.406143,1257.640961 1076.759567C1242.994385 1062.112976,1223.130325 1053.882767,1202.415359 1053.882767C1181.700394 1053.882767,1161.836334 1062.112976,1147.189758 1076.759567C1132.543167 1091.406143,1124.312958 1111.270203,1124.312958 1131.985168C1124.312958 1152.700134,1132.543167 1172.564194,1147.189758 1187.210770C1161.836334 1201.857361,1181.700394 1210.087570,1202.415359 1210.087570C1223.130325 1210.087570,1242.994385 1201.857361,1257.640961 1187.210770C1272.287552 1172.564194,1280.517761 1152.700134,1280.517761 1131.985168Z" style="stroke:rgb(25.500488%,41.000366%,88.400269%); stroke-width: 2.500000;stroke-linecap: round;stroke-linejoin: round;stroke-miterlimit: 10.000000;fill: none;"></path>
  <path d="M1246.832138 1006.247971C1246.832138 985.533005,1238.601929 965.668945,1223.955338 951.022369C1209.308762 936.375778,1189.444702 928.145569,1168.729736 928.145569C1148.014771 928.145569,1128.150711 936.375778,1113.504135 951.022369C1098.857544 965.668945,1090.627335 985.533005,1090.627335 1006.247971C1090.627335 1026.962936,1098.857544 1046.826996,1113.504135 1061.473572C1128.150711 1076.120163,1148.014771 1084.350372,1168.729736 1084.350372C1189.444702 1084.350372,1209.308762 1076.120163,1223.955338 1061.473572C1238.601929 1046.826996,1246.832138 1026.962936,1246.832138 1006.247971Z" style="stroke:rgb(25.500488%,41.000366%,88.400269%); stroke-width: 2.500000;stroke-linecap: round;stroke-linejoin: round;stroke-miterlimit: 10.000000;fill: none;"></path>
  <path d="M1207.437073 886.635422C1207.437073 865.920456,1199.206863 846.056396,1184.560272 831.409821C1169.913696 816.763229,1150.049637 808.533020,1129.334671 808.533020C1108.619705 808.533020,1088.755646 816.763229,1074.109070 831.409821C1059.462479 846.056396,1051.232269 865.920456,1051.232269 886.635422C1051.232269 907.350388,1059.462479 927.214447,1074.109070 941.861023C1088.755646 956.507614,1108.619705 964.737823,1129.334671 964.737823C1150.049637 964.737823,1169.913696 956.507614,1184.560272 941.861023C1199.206863 927.214447,1207.437073 907.350388,1207.437073 886.635422Z" style="stroke:rgb(25.500488%,41.000366%,88.400269%); stroke-width: 2.500000;stroke-linecap: round;stroke-linejoin: round;stroke-miterlimit: 10.000000;fill: none;"></path>
  <path d="M1181.952255 751.840988C1181.952255 731.126022,1173.722046 711.261963,1159.075455 696.615387C1144.428879 681.968796,1124.564819 673.738586,1103.849854 673.738586C1083.134888 673.738586,1063.270828 681.968796,1048.624252 696.615387C1033.977661 711.261963,1025.747452 731.126022,1025.747452 751.840988C1025.747452 772.555954,1033.977661 792.420013,1048.624252 807.066589C1063.270828 821.713181,1083.134888 829.943390,1103.849854 829.943390C1124.564819 829.943390,1144.428879 821.713181,1159.075455 807.066589C1173.722046 792.420013,1181.952255 772.555954,1181.952255 751.840988Z" style="stroke:rgb(25.500488%,41.000366%,88.400269%); stroke-width: 2.500000;stroke-linecap: round;stroke-linejoin: round;stroke-miterlimit: 10.000000;fill: none;"></path>
  <path d="M1143.906693 630.346939C1143.906693 609.631973,1135.676483 589.767914,1121.029892 575.121338C1106.383316 560.474747,1086.519257 552.244537,1065.804291 552.244537C1045.089325 552.244537,1025.225266 560.474747,1010.578690 575.121338C995.932098 589.767914,987.701889 609.631973,987.701889 630.346939C987.701889 651.061905,995.932098 670.925964,1010.578690 685.572540C1025.225266 700.219131,1045.089325 708.449341,1065.804291 708.449341C1086.519257 708.449341,1106.383316 700.219131,1121.029892 685.572540C1135.676483 670.925964,1143.906693 651.061905,1143.906693 630.346939Z" style="stroke:rgb(25.500488%,41.000366%,88.400269%); stroke-width: 2.500000;stroke-linecap: round;stroke-linejoin: round;stroke-miterlimit: 10.000000;fill: none;"></path>
  <path d="M1121.419327 494.877762C1121.419327 474.162796,1113.189117 454.298737,1098.542526 439.652161C1083.895950 425.005569,1064.031891 416.775360,1043.316925 416.775360C1022.601959 416.775360,1002.737900 425.005569,988.091324 439.652161C973.444733 454.298737,965.214523 474.162796,965.214523 494.877762C965.214523 515.592728,973.444733 535.456787,988.091324 550.103363C1002.737900 564.749954,1022.601959 572.980164,1043.316925 572.980164C1064.031891 572.980164,1083.895950 564.749954,1098.542526 550.103363C1113.189117 535.456787,1121.419327 515.592728,1121.419327 494.877762Z" style="stroke:rgb(25.500488%,41.000366%,88.400269%); stroke-width: 2.500000;stroke-linecap: round;stroke-linejoin: round;stroke-miterlimit: 10.000000;fill: none;"></path>
  <path d="M1086.137650 373.448578C1086.137650 352.733612,1077.907440 332.869553,1063.260849 318.222977C1048.614273 303.576385,1028.750214 295.346176,1008.035248 295.346176C987.320282 295.346176,967.456223 303.576385,952.809647 318.222977C938.163055 332.869553,929.932846 352.733612,929.932846 373.448578C929.932846 394.163544,938.163055 414.027603,952.809647 428.674179C967.456223 443.320770,987.320282 451.550980,1008.035248 451.550980C1028.750214 451.550980,1048.614273 443.320770,1063.260849 428.674179C1077.907440 414.027603,1086.137650 394.163544,1086.137650 373.448578Z" style="stroke:rgb(25.500488%,41.000366%,88.400269%); stroke-width: 2.500000;stroke-linecap: round;stroke-linejoin: round;stroke-miterlimit: 10.000000;fill: none;"></path>
  <path d="M1063.831955 238.290817C1063.831955 217.575851,1055.601746 197.711792,1040.955154 183.065216C1026.308578 168.418625,1006.444519 160.188416,985.729553 160.188416C965.014587 160.188416,945.150528 168.418625,930.503952 183.065216C915.857361 197.711792,907.627151 217.575851,907.627151 238.290817C907.627151 259.005783,915.857361 278.869843,930.503952 293.516418C945.150528 308.163010,965.014587 316.393219,985.729553 316.393219C1006.444519 316.393219,1026.308578 308.163010,1040.955154 293.516418C1055.601746 278.869843,1063.831955 259.005783,1063.831955 238.290817Z" style="stroke:rgb(25.500488%,41.000366%,88.400269%); stroke-width: 2.500000;stroke-linecap: round;stroke-linejoin: round;stroke-miterlimit: 10.000000;fill: none;"></path>
  <path d="M1026.928284 116.615097C1026.928284 95.900131,1018.698074 76.036072,1004.051483 61.389496C989.404907 46.742905,969.540848 38.512695,948.825882 38.512695C928.110916 38.512695,908.246857 46.742905,893.600281 61.389496C878.953690 76.036072,870.723480 95.900131,870.723480 116.615097C870.723480 137.330063,878.953690 157.194122,893.600281 171.840698C908.246857 186.487289,928.110916 194.717499,948.825882 194.717499C969.540848 194.717499,989.404907 186.487289,1004.051483 171.840698C1018.698074 157.194122,1026.928284 137.330063,1026.928284 116.615097Z" style="stroke:rgb(25.500488%,41.000366%,88.400269%); stroke-width: 2.500000;stroke-linecap: round;stroke-linejoin: round;stroke-miterlimit: 10.000000;fill: none;"></path>
  <path d="M1224.863815 1352.732468C1224.863815 1332.017502,1216.633606 1312.153442,1201.987015 1297.506866C1187.340439 1282.860275,1167.476379 1274.630066,1146.761414 1274.630066C1126.046448 1274.630066,1106.182388 1282.860275,1091.535812 1297.506866C1076.889221 1312.153442,1068.659012 1332.017502,1068.659012 1352.732468C1068.659012 1373.447433,1076.889221 1393.311493,1091.535812 1407.958069C1106.182388 1422.604660,1126.046448 1430.834869,1146.761414 1430.834869C1167.476379 1430.834869,1187.340439 1422.604660,1201.987015 1407.958069C1216.633606 1393.311493,1224.863815 1373.447433,1224.863815 1352.732468Z" style="stroke:rgb(25.500488%,41.000366%,88.400269%); stroke-width: 2.500000;stroke-linecap: round;stroke-linejoin: round;stroke-miterlimit: 10.000000;fill: none;"></path>
  <path d="M1184.897812 1226.411346C1184.897812 1205.696381,1176.667603 1185.832321,1162.021011 1171.185745C1147.374435 1156.539154,1127.510376 1148.308945,1106.795410 1148.308945C1086.080444 1148.308945,1066.216385 1156.539154,1051.569809 1171.185745C1036.923218 1185.832321,1028.693008 1205.696381,1028.693008 1226.411346C1028.693008 1247.126312,1036.923218 1266.990372,1051.569809 1281.636948C1066.216385 1296.283539,1086.080444 1304.513748,1106.795410 1304.513748C1127.510376 1304.513748,1147.374435 1296.283539,1162.021011 1281.636948C1176.667603 1266.990372,1184.897812 1247.126312,1184.897812 1226.411346Z" style="stroke:rgb(25.500488%,41.000366%,88.400269%); stroke-width: 2.500000;stroke-linecap: round;stroke-linejoin: round;stroke-miterlimit: 10.000000;fill: none;"></path>
  <path d="M1147.124741 1102.581604C1147.124741 1081.866638,1138.894531 1062.002579,1124.247940 1047.356003C1109.601364 1032.709412,1089.737305 1024.479202,1069.022339 1024.479202C1048.307373 1024.479202,1028.443314 1032.709412,1013.796738 1047.356003C999.150146 1062.002579,990.919937 1081.866638,990.919937 1102.581604C990.919937 1123.296570,999.150146 1143.160629,1013.796738 1157.807205C1028.443314 1172.453796,1048.307373 1180.684006,1069.022339 1180.684006C1089.737305 1180.684006,1109.601364 1172.453796,1124.247940 1157.807205C1138.894531 1143.160629,1147.124741 1123.296570,1147.124741 1102.581604Z" style="stroke:rgb(25.500488%,41.000366%,88.400269%); stroke-width: 2.500000;stroke-linecap: round;stroke-linejoin: round;stroke-miterlimit: 10.000000;fill: none;"></path>
  <path d="M1109.014297 985.200943C1109.014297 964.485977,1100.784088 944.621918,1086.137497 929.975342C1071.490921 915.328751,1051.626862 907.098541,1030.911896 907.098541C1010.196930 907.098541,990.332870 915.328751,975.686295 929.975342C961.039703 944.621918,952.809494 964.485977,952.809494 985.200943C952.809494 1005.915909,961.039703 1025.779968,975.686295 1040.426544C990.332870 1055.073135,1010.196930 1063.303345,1030.911896 1063.303345C1051.626862 1063.303345,1071.490921 1055.073135,1086.137497 1040.426544C1100.784088 1025.779968,1109.014297 1005.915909,1109.014297 985.200943Z" style="stroke:rgb(25.500488%,41.000366%,88.400269%); stroke-width: 2.500000;stroke-linecap: round;stroke-linejoin: round;stroke-miterlimit: 10.000000;fill: none;"></path>
  <path d="M1083.776031 850.497330C1083.776031 829.782364,1075.545822 809.918304,1060.899231 795.271729C1046.252655 780.625137,1026.388596 772.394928,1005.673630 772.394928C984.958664 772.394928,965.094604 780.625137,950.448029 795.271729C935.801437 809.918304,927.571228 829.782364,927.571228 850.497330C927.571228 871.212296,935.801437 891.076355,950.448029 905.722931C965.094604 920.369522,984.958664 928.599731,1005.673630 928.599731C1026.388596 928.599731,1046.252655 920.369522,1060.899231 905.722931C1075.545822 891.076355,1083.776031 871.212296,1083.776031 850.497330Z" style="stroke:rgb(25.500488%,41.000366%,88.400269%); stroke-width: 2.500000;stroke-linecap: round;stroke-linejoin: round;stroke-miterlimit: 10.000000;fill: none;"></path>
  <path d="M1045.535828 728.925430C1045.535828 708.210464,1037.305618 688.346405,1022.659027 673.699829C1008.012451 659.053238,988.148392 650.823029,967.433426 650.823029C946.718460 650.823029,926.854401 659.053238,912.207825 673.699829C897.561234 688.346405,889.331024 708.210464,889.331024 728.925430C889.331024 749.640396,897.561234 769.504456,912.207825 784.151031C926.854401 798.797623,946.718460 807.027832,967.433426 807.027832C988.148392 807.027832,1008.012451 798.797623,1022.659027 784.151031C1037.305618 769.504456,1045.535828 749.640396,1045.535828 728.925430Z" style="stroke:rgb(25.500488%,41.000366%,88.400269%); stroke-width: 2.500000;stroke-linecap: round;stroke-linejoin: round;stroke-miterlimit: 10.000000;fill: none;"></path>
  <path d="M1021.724915 593.028030C1021.724915 572.313065,1013.494705 552.449005,998.848114 537.802429C984.201538 523.155838,964.337479 514.925629,943.622513 514.925629C922.907547 514.925629,903.043488 523.155838,888.396912 537.802429C873.750320 552.449005,865.520111 572.313065,865.520111 593.028030C865.520111 613.742996,873.750320 633.607056,888.396912 648.253632C903.043488 662.900223,922.907547 671.130432,943.622513 671.130432C964.337479 671.130432,984.201538 662.900223,998.848114 648.253632C1013.494705 633.607056,1021.724915 613.742996,1021.724915 593.028030Z" style="stroke:rgb(25.500488%,41.000366%,88.400269%); stroke-width: 2.500000;stroke-linecap: round;stroke-linejoin: round;stroke-miterlimit: 10.000000;fill: none;"></path>
  <path d="M985.534912 471.261475C985.534912 450.546509,977.304703 430.682449,962.658112 416.035873C948.011536 401.389282,928.147476 393.159073,907.432510 393.159073C886.717545 393.159073,866.853485 401.389282,852.206909 416.035873C837.560318 430.682449,829.330109 450.546509,829.330109 471.261475C829.330109 491.976440,837.560318 511.840500,852.206909 526.487076C866.853485 541.133667,886.717545 549.363876,907.432510 549.363876C928.147476 549.363876,948.011536 541.133667,962.658112 526.487076C977.304703 511.840500,985.534912 491.976440,985.534912 471.261475Z" style="stroke:rgb(25.500488%,41.000366%,88.400269%); stroke-width: 2.500000;stroke-linecap: round;stroke-linejoin: round;stroke-miterlimit: 10.000000;fill: none;"></path>
  <path d="M963.735275 336.298355C963.735275 315.583389,955.505066 295.719330,940.858475 281.072754C926.211899 266.426163,906.347839 258.195953,885.632874 258.195953C864.917908 258.195953,845.053848 266.426163,830.407272 281.072754C815.760681 295.719330,807.530472 315.583389,807.530472 336.298355C807.530472 357.013321,815.760681 376.877380,830.407272 391.523956C845.053848 406.170547,864.917908 414.400757,885.632874 414.400757C906.347839 414.400757,926.211899 406.170547,940.858475 391.523956C955.505066 376.877380,963.735275 357.013321,963.735275 336.298355Z" style="stroke:rgb(25.500488%,41.000366%,88.400269%); stroke-width: 2.500000;stroke-linecap: round;stroke-linejoin: round;stroke-miterlimit: 10.000000;fill: none;"></path>
  <path d="M927.856705 214.804306C927.856705 194.089340,919.626495 174.225281,904.979904 159.578705C890.333328 144.932114,870.469269 136.701904,849.754303 136.701904C829.039337 136.701904,809.175278 144.932114,794.528702 159.578705C779.882111 174.225281,771.651901 194.089340,771.651901 214.804306C771.651901 235.519272,779.882111 255.383331,794.528702 270.029907C809.175278 284.676498,829.039337 292.906708,849.754303 292.906708C870.469269 292.906708,890.333328 284.676498,904.979904 270.029907C919.626495 255.383331,927.856705 235.519272,927.856705 214.804306Z" style="stroke:rgb(25.500488%,41.000366%,88.400269%); stroke-width: 2.500000;stroke-linecap: round;stroke-linejoin: round;stroke-miterlimit: 10.000000;fill: none;"></path>
  <path d="M904.967087 78.893936C904.967087 58.178970,896.736877 38.314911,882.090286 23.668335C867.443710 9.021744,847.579651 0.791534,826.864685 0.791534C806.149719 0.791534,786.285660 9.021744,771.639084 23.668335C756.992493 38.314911,748.762283 58.178970,748.762283 78.893936C748.762283 99.608902,756.992493 119.472961,771.639084 134.119537C786.285660 148.766129,806.149719 156.996338,826.864685 156.996338C847.579651 156.996338,867.443710 148.766129,882.090286 134.119537C896.736877 119.472961,904.967087 99.608902,904.967087 78.893936Z" style="stroke:rgb(25.500488%,41.000366%,88.400269%); stroke-width: 2.500000;stroke-linecap: round;stroke-linejoin: round;stroke-miterlimit: 10.000000;fill: none;"></path>
  <path d="M1129.386581 1443.862747C1129.386581 1423.147781,1121.156372 1403.283722,1106.509781 1388.637146C1091.863205 1373.990555,1071.999146 1365.760345,1051.284180 1365.760345C1030.569214 1365.760345,1010.705154 1373.990555,996.058578 1388.637146C981.411987 1403.283722,973.181778 1423.147781,973.181778 1443.862747C973.181778 1464.577713,981.411987 1484.441772,996.058578 1499.088348C1010.705154 1513.734940,1030.569214 1521.965149,1051.284180 1521.965149C1071.999146 1521.965149,1091.863205 1513.734940,1106.509781 1499.088348C1121.156372 1484.441772,1129.386581 1464.577713,1129.386581 1443.862747Z" style="stroke:rgb(25.500488%,41.000366%,88.400269%); stroke-width: 2.500000;stroke-linecap: round;stroke-linejoin: round;stroke-miterlimit: 10.000000;fill: none;"></path>
  <path d="M1088.862610 1317.398880C1088.862610 1296.683914,1080.632401 1276.819855,1065.985809 1262.173279C1051.339233 1247.526688,1031.475174 1239.296478,1010.760208 1239.296478C990.045242 1239.296478,970.181183 1247.526688,955.534607 1262.173279C940.888016 1276.819855,932.657806 1296.683914,932.657806 1317.398880C932.657806 1338.113846,940.888016 1357.977905,955.534607 1372.624481C970.181183 1387.271072,990.045242 1395.501282,1010.760208 1395.501282C1031.475174 1395.501282,1051.339233 1387.271072,1065.985809 1372.624481C1080.632401 1357.977905,1088.862610 1338.113846,1088.862610 1317.398880Z" style="stroke:rgb(25.500488%,41.000366%,88.400269%); stroke-width: 2.500000;stroke-linecap: round;stroke-linejoin: round;stroke-miterlimit: 10.000000;fill: none;"></path>
  <path d="M1048.714951 1197.241348C1048.714951 1176.526382,1040.484741 1156.662323,1025.838150 1142.015747C1011.191574 1127.369156,991.327515 1119.138947,970.612549 1119.138947C949.897583 1119.138947,930.033524 1127.369156,915.386948 1142.015747C900.740356 1156.662323,892.510147 1176.526382,892.510147 1197.241348C892.510147 1217.956314,900.740356 1237.820374,915.386948 1252.466949C930.033524 1267.113541,949.897583 1275.343750,970.612549 1275.343750C991.327515 1275.343750,1011.191574 1267.113541,1025.838150 1252.466949C1040.484741 1237.820374,1048.714951 1217.956314,1048.714951 1197.241348Z" style="stroke:rgb(25.500488%,41.000366%,88.400269%); stroke-width: 2.500000;stroke-linecap: round;stroke-linejoin: round;stroke-miterlimit: 10.000000;fill: none;"></path>
  <path d="M1008.268829 1082.806229C1008.268829 1062.091263,1000.038620 1042.227203,985.392029 1027.580627C970.745453 1012.934036,950.881393 1004.703827,930.166428 1004.703827C909.451462 1004.703827,889.587402 1012.934036,874.940826 1027.580627C860.294235 1042.227203,852.064026 1062.091263,852.064026 1082.806229C852.064026 1103.521194,860.294235 1123.385254,874.940826 1138.031830C889.587402 1152.678421,909.451462 1160.908630,930.166428 1160.908630C950.881393 1160.908630,970.745453 1152.678421,985.392029 1138.031830C1000.038620 1123.385254,1008.268829 1103.521194,1008.268829 1082.806229Z" style="stroke:rgb(25.500488%,41.000366%,88.400269%); stroke-width: 2.500000;stroke-linecap: round;stroke-linejoin: round;stroke-miterlimit: 10.000000;fill: none;"></path>
  <path d="M985.288376 948.894165C985.288376 928.179199,977.058167 908.315140,962.411575 893.668564C947.764999 879.021973,927.900940 870.791763,907.185974 870.791763C886.471008 870.791763,866.606949 879.021973,851.960373 893.668564C837.313782 908.315140,829.083572 928.179199,829.083572 948.894165C829.083572 969.609131,837.313782 989.473190,851.960373 1004.119766C866.606949 1018.766357,886.471008 1026.996567,907.185974 1026.996567C927.900940 1026.996567,947.764999 1018.766357,962.411575 1004.119766C977.058167 989.473190,985.288376 969.609131,985.288376 948.894165Z" style="stroke:rgb(25.500488%,41.000366%,88.400269%); stroke-width: 2.500000;stroke-linecap: round;stroke-linejoin: round;stroke-miterlimit: 10.000000;fill: none;"></path>
  <path d="M947.307693 827.400101C947.307693 806.685135,939.077484 786.821075,924.430893 772.174500C909.784317 757.527908,889.920258 749.297699,869.205292 749.297699C848.490326 749.297699,828.626266 757.527908,813.979691 772.174500C799.333099 786.821075,791.102890 806.685135,791.102890 827.400101C791.102890 848.115067,799.333099 867.979126,813.979691 882.625702C828.626266 897.272293,848.490326 905.502502,869.205292 905.502502C889.920258 905.502502,909.784317 897.272293,924.430893 882.625702C939.077484 867.979126,947.307693 848.115067,947.307693 827.400101Z" style="stroke:rgb(25.500488%,41.000366%,88.400269%); stroke-width: 2.500000;stroke-linecap: round;stroke-linejoin: round;stroke-miterlimit: 10.000000;fill: none;"></path>
  <path d="M923.289169 691.437836C923.289169 670.722870,915.058960 650.858810,900.412369 636.212234C885.765793 621.565643,865.901733 613.335434,845.186768 613.335434C824.471802 613.335434,804.607742 621.565643,789.961166 636.212234C775.314575 650.858810,767.084366 670.722870,767.084366 691.437836C767.084366 712.152802,775.314575 732.016861,789.961166 746.663437C804.607742 761.310028,824.471802 769.540237,845.186768 769.540237C865.901733 769.540237,885.765793 761.310028,900.412369 746.663437C915.058960 732.016861,923.289169 712.152802,923.289169 691.437836Z" style="stroke:rgb(25.500488%,41.000366%,88.400269%); stroke-width: 2.500000;stroke-linecap: round;stroke-linejoin: round;stroke-miterlimit: 10.000000;fill: none;"></path>
  <path d="M885.788589 569.230087C885.788589 548.515121,877.558380 528.651062,862.911789 514.004486C848.265213 499.357895,828.401154 491.127686,807.686188 491.127686C786.971222 491.127686,767.107162 499.357895,752.460587 514.004486C737.813995 528.651062,729.583786 548.515121,729.583786 569.230087C729.583786 589.945053,737.813995 609.809113,752.460587 624.455688C767.107162 639.102280,786.971222 647.332489,807.686188 647.332489C828.401154 647.332489,848.265213 639.102280,862.911789 624.455688C877.558380 609.809113,885.788589 589.945053,885.788589 569.230087Z" style="stroke:rgb(25.500488%,41.000366%,88.400269%); stroke-width: 2.500000;stroke-linecap: round;stroke-linejoin: round;stroke-miterlimit: 10.000000;fill: none;"></path>
  <path d="M863.067657 433.955551C863.067657 413.240585,854.837448 393.376526,840.190857 378.729950C825.544281 364.083359,805.680222 355.853149,784.965256 355.853149C764.250290 355.853149,744.386230 364.083359,729.739655 378.729950C715.093063 393.376526,706.862854 413.240585,706.862854 433.955551C706.862854 454.670517,715.093063 474.534576,729.739655 489.181152C744.386230 503.827744,764.250290 512.057953,784.965256 512.057953C805.680222 512.057953,825.544281 503.827744,840.190857 489.181152C854.837448 474.534576,863.067657 454.670517,863.067657 433.955551Z" style="stroke:rgb(25.500488%,41.000366%,88.400269%); stroke-width: 2.500000;stroke-linecap: round;stroke-linejoin: round;stroke-miterlimit: 10.000000;fill: none;"></path>
  <path d="M827.708130 312.617203C827.708130 291.902237,819.477921 272.038177,804.831329 257.391602C790.184753 242.745010,770.320694 234.514801,749.605728 234.514801C728.890762 234.514801,709.026703 242.745010,694.380127 257.391602C679.733536 272.038177,671.503326 291.902237,671.503326 312.617203C671.503326 333.332169,679.733536 353.196228,694.380127 367.842804C709.026703 382.489395,728.890762 390.719604,749.605728 390.719604C770.320694 390.719604,790.184753 382.489395,804.831329 367.842804C819.477921 353.196228,827.708130 333.332169,827.708130 312.617203Z" style="stroke:rgb(25.500488%,41.000366%,88.400269%); stroke-width: 2.500000;stroke-linecap: round;stroke-linejoin: round;stroke-miterlimit: 10.000000;fill: none;"></path>
  <path d="M805.895508 177.083145C805.895508 156.368179,797.665298 136.504120,783.018707 121.857544C768.372131 107.210953,748.508072 98.980743,727.793106 98.980743C707.078140 98.980743,687.214081 107.210953,672.567505 121.857544C657.920914 136.504120,649.690704 156.368179,649.690704 177.083145C649.690704 197.798111,657.920914 217.662170,672.567505 232.308746C687.214081 246.955338,707.078140 255.185547,727.793106 255.185547C748.508072 255.185547,768.372131 246.955338,783.018707 232.308746C797.665298 217.662170,805.895508 197.798111,805.895508 177.083145Z" style="stroke:rgb(25.500488%,41.000366%,88.400269%); stroke-width: 2.500000;stroke-linecap: round;stroke-linejoin: round;stroke-miterlimit: 10.000000;fill: none;"></path>
  <path d="M1036.854904 1532.229126C1036.854904 1511.514160,1028.624695 1491.650101,1013.978104 1477.003525C999.331528 1462.356934,979.467468 1454.126724,958.752502 1454.126724C938.037537 1454.126724,918.173477 1462.356934,903.526901 1477.003525C888.880310 1491.650101,880.650101 1511.514160,880.650101 1532.229126C880.650101 1552.944092,888.880310 1572.808151,903.526901 1587.454727C918.173477 1602.101318,938.037537 1610.331528,958.752502 1610.331528C979.467468 1610.331528,999.331528 1602.101318,1013.978104 1587.454727C1028.624695 1572.808151,1036.854904 1552.944092,1036.854904 1532.229126Z" style="stroke:rgb(25.500488%,41.000366%,88.400269%); stroke-width: 2.500000;stroke-linecap: round;stroke-linejoin: round;stroke-miterlimit: 10.000000;fill: none;"></path>
  <path d="M992.775513 1404.973740C992.775513 1384.258774,984.545303 1364.394714,969.898712 1349.748138C955.252136 1335.101547,935.388077 1326.871338,914.673111 1326.871338C893.958145 1326.871338,874.094086 1335.101547,859.447510 1349.748138C844.800919 1364.394714,836.570709 1384.258774,836.570709 1404.973740C836.570709 1425.688705,844.800919 1445.552765,859.447510 1460.199341C874.094086 1474.845932,893.958145 1483.076141,914.673111 1483.076141C935.388077 1483.076141,955.252136 1474.845932,969.898712 1460.199341C984.545303 1445.552765,992.775513 1425.688705,992.775513 1404.973740Z" style="stroke:rgb(25.500488%,41.000366%,88.400269%); stroke-width: 2.500000;stroke-linecap: round;stroke-linejoin: round;stroke-miterlimit: 10.000000;fill: none;"></path>
  <path d="M949.137314 1288.397583C949.137314 1267.682617,940.907104 1247.818558,926.260513 1233.171982C911.613937 1218.525391,891.749878 1210.295181,871.034912 1210.295181C850.319946 1210.295181,830.455887 1218.525391,815.809311 1233.171982C801.162720 1247.818558,792.932510 1267.682617,792.932510 1288.397583C792.932510 1309.112549,801.162720 1328.976608,815.809311 1343.623184C830.455887 1358.269775,850.319946 1366.499985,871.034912 1366.499985C891.749878 1366.499985,911.613937 1358.269775,926.260513 1343.623184C940.907104 1328.976608,949.137314 1309.112549,949.137314 1288.397583Z" style="stroke:rgb(25.500488%,41.000366%,88.400269%); stroke-width: 2.500000;stroke-linecap: round;stroke-linejoin: round;stroke-miterlimit: 10.000000;fill: none;"></path>
  <path d="M908.094299 1181.229004C908.094299 1160.514038,899.864090 1140.649979,885.217499 1126.003403C870.570923 1111.356812,850.706863 1103.126602,829.991898 1103.126602C809.276932 1103.126602,789.412872 1111.356812,774.766296 1126.003403C760.119705 1140.649979,751.889496 1160.514038,751.889496 1181.229004C751.889496 1201.943970,760.119705 1221.808029,774.766296 1236.454605C789.412872 1251.101196,809.276932 1259.331406,829.991898 1259.331406C850.706863 1259.331406,870.570923 1251.101196,885.217499 1236.454605C899.864090 1221.808029,908.094299 1201.943970,908.094299 1181.229004Z" style="stroke:rgb(25.500488%,41.000366%,88.400269%); stroke-width: 2.500000;stroke-linecap: round;stroke-linejoin: round;stroke-miterlimit: 10.000000;fill: none;"></path>
  <path d="M884.763489 1047.187164C884.763489 1026.472198,876.533279 1006.608139,861.886688 991.961563C847.240112 977.314972,827.376053 969.084763,806.661087 969.084763C785.946121 969.084763,766.082062 977.314972,751.435486 991.961563C736.788895 1006.608139,728.558685 1026.472198,728.558685 1047.187164C728.558685 1067.902130,736.788895 1087.766190,751.435486 1102.412766C766.082062 1117.059357,785.946121 1125.289566,806.661087 1125.289566C827.376053 1125.289566,847.240112 1117.059357,861.886688 1102.412766C876.533279 1087.766190,884.763489 1067.902130,884.763489 1047.187164Z" style="stroke:rgb(25.500488%,41.000366%,88.400269%); stroke-width: 2.500000;stroke-linecap: round;stroke-linejoin: round;stroke-miterlimit: 10.000000;fill: none;"></path>
  <path d="M849.053604 926.484650C849.053604 905.769684,840.823395 885.905624,826.176804 871.259048C811.530228 856.612457,791.666168 848.382248,770.951202 848.382248C750.236237 848.382248,730.372177 856.612457,715.725601 871.259048C701.079010 885.905624,692.848801 905.769684,692.848801 926.484650C692.848801 947.199615,701.079010 967.063675,715.725601 981.710251C730.372177 996.356842,750.236237 1004.587051,770.951202 1004.587051C791.666168 1004.587051,811.530228 996.356842,826.176804 981.710251C840.823395 967.063675,849.053604 947.199615,849.053604 926.484650Z" style="stroke:rgb(25.500488%,41.000366%,88.400269%); stroke-width: 2.500000;stroke-linecap: round;stroke-linejoin: round;stroke-miterlimit: 10.000000;fill: none;"></path>
  <path d="M825.281616 790.600235C825.281616 769.885269,817.051407 750.021210,802.404816 735.374634C787.758240 720.728043,767.894180 712.497833,747.179214 712.497833C726.464249 712.497833,706.600189 720.728043,691.953613 735.374634C677.307022 750.021210,669.076813 769.885269,669.076813 790.600235C669.076813 811.315201,677.307022 831.179260,691.953613 845.825836C706.600189 860.472427,726.464249 868.702637,747.179214 868.702637C767.894180 868.702637,787.758240 860.472427,802.404816 845.825836C817.051407 831.179260,825.281616 811.315201,825.281616 790.600235Z" style="stroke:rgb(25.500488%,41.000366%,88.400269%); stroke-width: 2.500000;stroke-linecap: round;stroke-linejoin: round;stroke-miterlimit: 10.000000;fill: none;"></path>
  <path d="M787.586411 668.314636C787.586411 647.599670,779.356201 627.735611,764.709610 613.089035C750.063034 598.442444,730.198975 590.212234,709.484009 590.212234C688.769043 590.212234,668.904984 598.442444,654.258408 613.089035C639.611816 627.735611,631.381607 647.599670,631.381607 668.314636C631.381607 689.029602,639.611816 708.893661,654.258408 723.540237C668.904984 738.186829,688.769043 746.417038,709.484009 746.417038C730.198975 746.417038,750.063034 738.186829,764.709610 723.540237C779.356201 708.893661,787.586411 689.029602,787.586411 668.314636Z" style="stroke:rgb(25.500488%,41.000366%,88.400269%); stroke-width: 2.500000;stroke-linecap: round;stroke-linejoin: round;stroke-miterlimit: 10.000000;fill: none;"></path>
  <path d="M763.541931 532.598907C763.541931 511.883942,755.311722 492.019882,740.665131 477.373306C726.018555 462.726715,706.154495 454.496506,685.439529 454.496506C664.724564 454.496506,644.860504 462.726715,630.213928 477.373306C615.567337 492.019882,607.337128 511.883942,607.337128 532.598907C607.337128 553.313873,615.567337 573.177933,630.213928 587.824509C644.860504 602.471100,664.724564 610.701309,685.439529 610.701309C706.154495 610.701309,726.018555 602.471100,740.665131 587.824509C755.311722 573.177933,763.541931 553.313873,763.541931 532.598907Z" style="stroke:rgb(25.500488%,41.000366%,88.400269%); stroke-width: 2.500000;stroke-linecap: round;stroke-linejoin: round;stroke-miterlimit: 10.000000;fill: none;"></path>
  <path d="M727.274078 410.936172C727.274078 390.221207,719.043869 370.357147,704.397278 355.710571C689.750702 341.063980,669.886642 332.833771,649.171677 332.833771C628.456711 332.833771,608.592651 341.063980,593.946075 355.710571C579.299484 370.357147,571.069275 390.221207,571.069275 410.936172C571.069275 431.651138,579.299484 451.515198,593.946075 466.161774C608.592651 480.808365,628.456711 489.038574,649.171677 489.038574C669.886642 489.038574,689.750702 480.808365,704.397278 466.161774C719.043869 451.515198,727.274078 431.651138,727.274078 410.936172Z" style="stroke:rgb(25.500488%,41.000366%,88.400269%); stroke-width: 2.500000;stroke-linecap: round;stroke-linejoin: round;stroke-miterlimit: 10.000000;fill: none;"></path>
  <path d="M705.967529 275.570801C705.967529 254.855835,697.737320 234.991776,683.090729 220.345200C668.444153 205.698608,648.580093 197.468399,627.865128 197.468399C607.150162 197.468399,587.286102 205.698608,572.639526 220.345200C557.992935 234.991776,549.762726 254.855835,549.762726 275.570801C549.762726 296.285767,557.992935 316.149826,572.639526 330.796402C587.286102 345.442993,607.150162 353.673203,627.865128 353.673203C648.580093 353.673203,668.444153 345.442993,683.090729 330.796402C697.737320 316.149826,705.967529 296.285767,705.967529 275.570801Z" style="stroke:rgb(25.500488%,41.000366%,88.400269%); stroke-width: 2.500000;stroke-linecap: round;stroke-linejoin: round;stroke-miterlimit: 10.000000;fill: none;"></path>
  <path d="M949.734207 1630.067993C949.734207 1609.353027,941.503998 1589.488968,926.857407 1574.842392C912.210831 1560.195801,892.346771 1551.965591,871.631805 1551.965591C850.916840 1551.965591,831.052780 1560.195801,816.406204 1574.842392C801.759613 1589.488968,793.529404 1609.353027,793.529404 1630.067993C793.529404 1650.782959,801.759613 1670.647018,816.406204 1685.293594C831.052780 1699.940186,850.916840 1708.170395,871.631805 1708.170395C892.346771 1708.170395,912.210831 1699.940186,926.857407 1685.293594C941.503998 1670.647018,949.734207 1650.782959,949.734207 1630.067993Z" style="stroke:rgb(25.500488%,41.000366%,88.400269%); stroke-width: 2.500000;stroke-linecap: round;stroke-linejoin: round;stroke-miterlimit: 10.000000;fill: none;"></path>
  <path d="M902.307007 1501.943207C902.307007 1481.228241,894.076797 1461.364182,879.430206 1446.717606C864.783630 1432.071014,844.919571 1423.840805,824.204605 1423.840805C803.489639 1423.840805,783.625580 1432.071014,768.979004 1446.717606C754.332413 1461.364182,746.102203 1481.228241,746.102203 1501.943207C746.102203 1522.658173,754.332413 1542.522232,768.979004 1557.168808C783.625580 1571.815399,803.489639 1580.045609,824.204605 1580.045609C844.919571 1580.045609,864.783630 1571.815399,879.430206 1557.168808C894.076797 1542.522232,902.307007 1522.658173,902.307007 1501.943207Z" style="stroke:rgb(25.500488%,41.000366%,88.400269%); stroke-width: 2.500000;stroke-linecap: round;stroke-linejoin: round;stroke-miterlimit: 10.000000;fill: none;"></path>
  <path d="M851.363327 1383.563385C851.363327 1362.848419,843.133118 1342.984360,828.486526 1328.337784C813.839951 1313.691193,793.975891 1305.460983,773.260925 1305.460983C752.545959 1305.460983,732.681900 1313.691193,718.035324 1328.337784C703.388733 1342.984360,695.158524 1362.848419,695.158524 1383.563385C695.158524 1404.278351,703.388733 1424.142410,718.035324 1438.788986C732.681900 1453.435577,752.545959 1461.665787,773.260925 1461.665787C793.975891 1461.665787,813.839951 1453.435577,828.486526 1438.788986C843.133118 1424.142410,851.363327 1404.278351,851.363327 1383.563385Z" style="stroke:rgb(25.500488%,41.000366%,88.400269%); stroke-width: 2.500000;stroke-linecap: round;stroke-linejoin: round;stroke-miterlimit: 10.000000;fill: none;"></path>
  <path d="M805.623016 1280.170807C805.623016 1259.455841,797.392807 1239.591782,782.746216 1224.945206C768.099640 1210.298615,748.235580 1202.068405,727.520615 1202.068405C706.805649 1202.068405,686.941589 1210.298615,672.295013 1224.945206C657.648422 1239.591782,649.418213 1259.455841,649.418213 1280.170807C649.418213 1300.885773,657.648422 1320.749832,672.295013 1335.396408C686.941589 1350.042999,706.805649 1358.273209,727.520615 1358.273209C748.235580 1358.273209,768.099640 1350.042999,782.746216 1335.396408C797.392807 1320.749832,805.623016 1300.885773,805.623016 1280.170807Z" style="stroke:rgb(25.500488%,41.000366%,88.400269%); stroke-width: 2.500000;stroke-linecap: round;stroke-linejoin: round;stroke-miterlimit: 10.000000;fill: none;"></path>
  <path d="M785.133957 1147.180038C785.133957 1126.465073,776.903748 1106.601013,762.257156 1091.954437C747.610580 1077.307846,727.746521 1069.077637,707.031555 1069.077637C686.316589 1069.077637,666.452530 1077.307846,651.805954 1091.954437C637.159363 1106.601013,628.929153 1126.465073,628.929153 1147.180038C628.929153 1167.895004,637.159363 1187.759064,651.805954 1202.405640C666.452530 1217.052231,686.316589 1225.282440,707.031555 1225.282440C727.746521 1225.282440,747.610580 1217.052231,762.257156 1202.405640C776.903748 1187.759064,785.133957 1167.895004,785.133957 1147.180038Z" style="stroke:rgb(25.500488%,41.000366%,88.400269%); stroke-width: 2.500000;stroke-linecap: round;stroke-linejoin: round;stroke-miterlimit: 10.000000;fill: none;"></path>
  <path d="M749.060745 1026.347748C749.060745 1005.632782,740.830536 985.768723,726.183945 971.122147C711.537369 956.475555,691.673309 948.245346,670.958344 948.245346C650.243378 948.245346,630.379318 956.475555,615.732742 971.122147C601.086151 985.768723,592.855942 1005.632782,592.855942 1026.347748C592.855942 1047.062714,601.086151 1066.926773,615.732742 1081.573349C630.379318 1096.219940,650.243378 1104.450150,670.958344 1104.450150C691.673309 1104.450150,711.537369 1096.219940,726.183945 1081.573349C740.830536 1066.926773,749.060745 1047.062714,749.060745 1026.347748Z" style="stroke:rgb(25.500488%,41.000366%,88.400269%); stroke-width: 2.500000;stroke-linecap: round;stroke-linejoin: round;stroke-miterlimit: 10.000000;fill: none;"></path>
  <path d="M727.572525 891.241898C727.572525 870.526932,719.342316 850.662872,704.695724 836.016296C690.049149 821.369705,670.185089 813.139496,649.470123 813.139496C628.755157 813.139496,608.891098 821.369705,594.244522 836.016296C579.597931 850.662872,571.367722 870.526932,571.367722 891.241898C571.367722 911.956863,579.597931 931.820923,594.244522 946.467499C608.891098 961.114090,628.755157 969.344299,649.470123 969.344299C670.185089 969.344299,690.049149 961.114090,704.695724 946.467499C719.342316 931.820923,727.572525 911.956863,727.572525 891.241898Z" style="stroke:rgb(25.500488%,41.000366%,88.400269%); stroke-width: 2.500000;stroke-linecap: round;stroke-linejoin: round;stroke-miterlimit: 10.000000;fill: none;"></path>
  <path d="M690.136841 769.034164C690.136841 748.319199,681.906631 728.455139,667.260040 713.808563C652.613464 699.161972,632.749405 690.931763,612.034439 690.931763C591.319473 690.931763,571.455414 699.161972,556.808838 713.808563C542.162247 728.455139,533.932037 748.319199,533.932037 769.034164C533.932037 789.749130,542.162247 809.613190,556.808838 824.259766C571.455414 838.906357,591.319473 847.136566,612.034439 847.136566C632.749405 847.136566,652.613464 838.906357,667.260040 824.259766C681.906631 809.613190,690.136841 789.749130,690.136841 769.034164Z" style="stroke:rgb(25.500488%,41.000366%,88.400269%); stroke-width: 2.500000;stroke-linecap: round;stroke-linejoin: round;stroke-miterlimit: 10.000000;fill: none;"></path>
  <path d="M665.884735 633.227600C665.884735 612.512634,657.654526 592.648575,643.007935 578.001999C628.361359 563.355408,608.497299 555.125198,587.782333 555.125198C567.067368 555.125198,547.203308 563.355408,532.556732 578.001999C517.910141 592.648575,509.679932 612.512634,509.679932 633.227600C509.679932 653.942566,517.910141 673.806625,532.556732 688.453201C547.203308 703.099792,567.067368 711.330002,587.782333 711.330002C608.497299 711.330002,628.361359 703.099792,643.007935 688.453201C657.654526 673.806625,665.884735 653.942566,665.884735 633.227600Z" style="stroke:rgb(25.500488%,41.000366%,88.400269%); stroke-width: 2.500000;stroke-linecap: round;stroke-linejoin: round;stroke-miterlimit: 10.000000;fill: none;"></path>
  <path d="M628.552856 510.786301C628.552856 490.071335,620.322647 470.207275,605.676056 455.560699C591.029480 440.914108,571.165421 432.683899,550.450455 432.683899C529.735489 432.683899,509.871429 440.914108,495.224854 455.560699C480.578262 470.207275,472.348053 490.071335,472.348053 510.786301C472.348053 531.501266,480.578262 551.365326,495.224854 566.011902C509.871429 580.658493,529.735489 588.888702,550.450455 588.888702C571.165421 588.888702,591.029480 580.658493,605.676056 566.011902C620.322647 551.365326,628.552856 531.501266,628.552856 510.786301Z" style="stroke:rgb(25.500488%,41.000366%,88.400269%); stroke-width: 2.500000;stroke-linecap: round;stroke-linejoin: round;stroke-miterlimit: 10.000000;fill: none;"></path>
  <path d="M605.896805 374.953796C605.896805 354.238831,597.666595 334.374771,583.020004 319.728195C568.373428 305.081604,548.509369 296.851395,527.794403 296.851395C507.079437 296.851395,487.215378 305.081604,472.568802 319.728195C457.922211 334.374771,449.692001 354.238831,449.692001 374.953796C449.692001 395.668762,457.922211 415.532822,472.568802 430.179398C487.215378 444.825989,507.079437 453.056198,527.794403 453.056198C548.509369 453.056198,568.373428 444.825989,583.020004 430.179398C597.666595 415.532822,605.896805 395.668762,605.896805 374.953796Z" style="stroke:rgb(25.500488%,41.000366%,88.400269%); stroke-width: 2.500000;stroke-linecap: round;stroke-linejoin: round;stroke-miterlimit: 10.000000;fill: none;"></path>
  <path d="M832.664948 1584.690994C832.664948 1563.976028,824.434738 1544.111969,809.788147 1529.465393C795.141571 1514.818802,775.277512 1506.588593,754.562546 1506.588593C733.847580 1506.588593,713.983521 1514.818802,699.336945 1529.465393C684.690353 1544.111969,676.460144 1563.976028,676.460144 1584.690994C676.460144 1605.405960,684.690353 1625.270020,699.336945 1639.916595C713.983521 1654.563187,733.847580 1662.793396,754.562546 1662.793396C775.277512 1662.793396,795.141571 1654.563187,809.788147 1639.916595C824.434738 1625.270020,832.664948 1605.405960,832.664948 1584.690994Z" style="stroke:rgb(25.500488%,41.000366%,88.400269%); stroke-width: 2.500000;stroke-linecap: round;stroke-linejoin: round;stroke-miterlimit: 10.000000;fill: none;"></path>
  <path d="M758.364517 1465.299057C758.364517 1444.584091,750.134308 1424.720032,735.487717 1410.073456C720.841141 1395.426865,700.977081 1387.196655,680.262115 1387.196655C659.547150 1387.196655,639.683090 1395.426865,625.036514 1410.073456C610.389923 1424.720032,602.159714 1444.584091,602.159714 1465.299057C602.159714 1486.014023,610.389923 1505.878082,625.036514 1520.524658C639.683090 1535.171249,659.547150 1543.401459,680.262115 1543.401459C700.977081 1543.401459,720.841141 1535.171249,735.487717 1520.524658C750.134308 1505.878082,758.364517 1486.014023,758.364517 1465.299057Z" style="stroke:rgb(25.500488%,41.000366%,88.400269%); stroke-width: 2.500000;stroke-linecap: round;stroke-linejoin: round;stroke-miterlimit: 10.000000;fill: none;"></path>
  <path d="M707.018585 1383.459579C707.018585 1362.744614,698.788376 1342.880554,684.141785 1328.233978C669.495209 1313.587387,649.631149 1305.357178,628.916183 1305.357178C608.201218 1305.357178,588.337158 1313.587387,573.690582 1328.233978C559.043991 1342.880554,550.813782 1362.744614,550.813782 1383.459579C550.813782 1404.174545,559.043991 1424.038605,573.690582 1438.685181C588.337158 1453.331772,608.201218 1461.561981,628.916183 1461.561981C649.631149 1461.561981,669.495209 1453.331772,684.141785 1438.685181C698.788376 1424.038605,707.018585 1404.174545,707.018585 1383.459579Z" style="stroke:rgb(25.500488%,41.000366%,88.400269%); stroke-width: 2.500000;stroke-linecap: round;stroke-linejoin: round;stroke-miterlimit: 10.000000;fill: none;"></path>
  <path d="M685.997498 1247.912537C685.997498 1227.197571,677.767288 1207.333511,663.120697 1192.686935C648.474121 1178.040344,628.610062 1169.810135,607.895096 1169.810135C587.180130 1169.810135,567.316071 1178.040344,552.669495 1192.686935C538.022903 1207.333511,529.792694 1227.197571,529.792694 1247.912537C529.792694 1268.627502,538.022903 1288.491562,552.669495 1303.138138C567.316071 1317.784729,587.180130 1326.014938,607.895096 1326.014938C628.610062 1326.014938,648.474121 1317.784729,663.120697 1303.138138C677.767288 1288.491562,685.997498 1268.627502,685.997498 1247.912537Z" style="stroke:rgb(25.500488%,41.000366%,88.400269%); stroke-width: 2.500000;stroke-linecap: round;stroke-linejoin: round;stroke-miterlimit: 10.000000;fill: none;"></path>
  <path d="M649.677750 1126.989426C649.677750 1106.274460,641.447540 1086.410400,626.800949 1071.763824C612.154373 1057.117233,592.290314 1048.887024,571.575348 1048.887024C550.860382 1048.887024,530.996323 1057.117233,516.349747 1071.763824C501.703156 1086.410400,493.472946 1106.274460,493.472946 1126.989426C493.472946 1147.704391,501.703156 1167.568451,516.349747 1182.215027C530.996323 1196.861618,550.860382 1205.091827,571.575348 1205.091827C592.290314 1205.091827,612.154373 1196.861618,626.800949 1182.215027C641.447540 1167.568451,649.677750 1147.704391,649.677750 1126.989426Z" style="stroke:rgb(25.500488%,41.000366%,88.400269%); stroke-width: 2.500000;stroke-linecap: round;stroke-linejoin: round;stroke-miterlimit: 10.000000;fill: none;"></path>
  <path d="M627.826202 991.740829C627.826202 971.025864,619.595993 951.161804,604.949402 936.515228C590.302826 921.868637,570.438766 913.638428,549.723801 913.638428C529.008835 913.638428,509.144775 921.868637,494.498199 936.515228C479.851608 951.161804,471.621399 971.025864,471.621399 991.740829C471.621399 1012.455795,479.851608 1032.319855,494.498199 1046.966431C509.144775 1061.613022,529.008835 1069.843231,549.723801 1069.843231C570.438766 1069.843231,590.302826 1061.613022,604.949402 1046.966431C619.595993 1032.319855,627.826202 1012.455795,627.826202 991.740829Z" style="stroke:rgb(25.500488%,41.000366%,88.400269%); stroke-width: 2.500000;stroke-linecap: round;stroke-linejoin: round;stroke-miterlimit: 10.000000;fill: none;"></path>
  <path d="M592.661316 870.311646C592.661316 849.596680,584.431107 829.732620,569.784515 815.086044C555.137939 800.439453,535.273880 792.209244,514.558914 792.209244C493.843948 792.209244,473.979889 800.439453,459.333313 815.086044C444.686722 829.732620,436.456512 849.596680,436.456512 870.311646C436.456512 891.026611,444.686722 910.890671,459.333313 925.537247C473.979889 940.183838,493.843948 948.414047,514.558914 948.414047C535.273880 948.414047,555.137939 940.183838,569.784515 925.537247C584.431107 910.890671,592.661316 891.026611,592.661316 870.311646Z" style="stroke:rgb(25.500488%,41.000366%,88.400269%); stroke-width: 2.500000;stroke-linecap: round;stroke-linejoin: round;stroke-miterlimit: 10.000000;fill: none;"></path>
  <path d="M569.161819 734.206650C569.161819 713.491684,560.931610 693.627625,546.285019 678.981049C531.638443 664.334457,511.774384 656.104248,491.059418 656.104248C470.344452 656.104248,450.480392 664.334457,435.833817 678.981049C421.187225 693.627625,412.957016 713.491684,412.957016 734.206650C412.957016 754.921616,421.187225 774.785675,435.833817 789.432251C450.480392 804.078842,470.344452 812.309052,491.059418 812.309052C511.774384 812.309052,531.638443 804.078842,546.285019 789.432251C560.931610 774.785675,569.161819 754.921616,569.161819 734.206650Z" style="stroke:rgb(25.500488%,41.000366%,88.400269%); stroke-width: 2.500000;stroke-linecap: round;stroke-linejoin: round;stroke-miterlimit: 10.000000;fill: none;"></path>
  <path d="M530.908646 611.453918C530.908646 590.738953,522.678436 570.874893,508.031845 556.228317C493.385269 541.581726,473.521210 533.351517,452.806244 533.351517C432.091278 533.351517,412.227219 541.581726,397.580643 556.228317C382.934052 570.874893,374.703842 590.738953,374.703842 611.453918C374.703842 632.168884,382.934052 652.032944,397.580643 666.679520C412.227219 681.326111,432.091278 689.556320,452.806244 689.556320C473.521210 689.556320,493.385269 681.326111,508.031845 666.679520C522.678436 652.032944,530.908646 632.168884,530.908646 611.453918Z" style="stroke:rgb(25.500488%,41.000366%,88.400269%); stroke-width: 2.500000;stroke-linecap: round;stroke-linejoin: round;stroke-miterlimit: 10.000000;fill: none;"></path>
  <path d="M507.370224 475.309982C507.370224 454.595016,499.140015 434.730957,484.493423 420.084381C469.846848 405.437790,449.982788 397.207581,429.267822 397.207581C408.552856 397.207581,388.688797 405.437790,374.042221 420.084381C359.395630 434.730957,351.165421 454.595016,351.165421 475.309982C351.165421 496.024948,359.395630 515.889008,374.042221 530.535583C388.688797 545.182175,408.552856 553.412384,429.267822 553.412384C449.982788 553.412384,469.846848 545.182175,484.493423 530.535583C499.140015 515.889008,507.370224 496.024948,507.370224 475.309982Z" style="stroke:rgb(25.500488%,41.000366%,88.400269%); stroke-width: 2.500000;stroke-linecap: round;stroke-linejoin: round;stroke-miterlimit: 10.000000;fill: none;"></path>
  <path d="M586.264160 1347.568024C586.264160 1326.853058,578.033951 1306.988998,563.387360 1292.342422C548.740784 1277.695831,528.876724 1269.465622,508.161758 1269.465622C487.446793 1269.465622,467.582733 1277.695831,452.936157 1292.342422C438.289566 1306.988998,430.059357 1326.853058,430.059357 1347.568024C430.059357 1368.282990,438.289566 1388.147049,452.936157 1402.793625C467.582733 1417.440216,487.446793 1425.670425,508.161758 1425.670425C528.876724 1425.670425,548.740784 1417.440216,563.387360 1402.793625C578.033951 1388.147049,586.264160 1368.282990,586.264160 1347.568024Z" style="stroke:rgb(25.500488%,41.000366%,88.400269%); stroke-width: 2.500000;stroke-linecap: round;stroke-linejoin: round;stroke-miterlimit: 10.000000;fill: none;"></path>
  <path d="M550.177963 1226.748718C550.177963 1206.033752,541.947754 1186.169693,527.301163 1171.523117C512.654587 1156.876526,492.790527 1148.646317,472.075562 1148.646317C451.360596 1148.646317,431.496536 1156.876526,416.849960 1171.523117C402.203369 1186.169693,393.973160 1206.033752,393.973160 1226.748718C393.973160 1247.463684,402.203369 1267.327744,416.849960 1281.974319C431.496536 1296.620911,451.360596 1304.851120,472.075562 1304.851120C492.790527 1304.851120,512.654587 1296.620911,527.301163 1281.974319C541.947754 1267.327744,550.177963 1247.463684,550.177963 1226.748718Z" style="stroke:rgb(25.500488%,41.000366%,88.400269%); stroke-width: 2.500000;stroke-linecap: round;stroke-linejoin: round;stroke-miterlimit: 10.000000;fill: none;"></path>
  <path d="M528.092865 1091.409302C528.092865 1070.694336,519.862656 1050.830276,505.216064 1036.183701C490.569489 1021.537109,470.705429 1013.306900,449.990463 1013.306900C429.275497 1013.306900,409.411438 1021.537109,394.764862 1036.183701C380.118271 1050.830276,371.888062 1070.694336,371.888062 1091.409302C371.888062 1112.124268,380.118271 1131.988327,394.764862 1146.634903C409.411438 1161.281494,429.275497 1169.511703,449.990463 1169.511703C470.705429 1169.511703,490.569489 1161.281494,505.216064 1146.634903C519.862656 1131.988327,528.092865 1112.124268,528.092865 1091.409302Z" style="stroke:rgb(25.500488%,41.000366%,88.400269%); stroke-width: 2.500000;stroke-linecap: round;stroke-linejoin: round;stroke-miterlimit: 10.000000;fill: none;"></path>
  <path d="M492.551666 969.850357C492.551666 949.135391,484.321457 929.271332,469.674866 914.624756C455.028290 899.978165,435.164230 891.747955,414.449265 891.747955C393.734299 891.747955,373.870239 899.978165,359.223663 914.624756C344.577072 929.271332,336.346863 949.135391,336.346863 969.850357C336.346863 990.565323,344.577072 1010.429382,359.223663 1025.075958C373.870239 1039.722549,393.734299 1047.952759,414.449265 1047.952759C435.164230 1047.952759,455.028290 1039.722549,469.674866 1025.075958C484.321457 1010.429382,492.551666 990.565323,492.551666 969.850357Z" style="stroke:rgb(25.500488%,41.000366%,88.400269%); stroke-width: 2.500000;stroke-linecap: round;stroke-linejoin: round;stroke-miterlimit: 10.000000;fill: none;"></path>
  <path d="M471.348923 834.510941C471.348923 813.795975,463.118713 793.931915,448.472122 779.285339C433.825546 764.638748,413.961487 756.408539,393.246521 756.408539C372.531555 756.408539,352.667496 764.638748,338.020920 779.285339C323.374329 793.931915,315.144119 813.795975,315.144119 834.510941C315.144119 855.225906,323.374329 875.089966,338.020920 889.736542C352.667496 904.383133,372.531555 912.613342,393.246521 912.613342C413.961487 912.613342,433.825546 904.383133,448.472122 889.736542C463.118713 875.089966,471.348923 855.225906,471.348923 834.510941Z" style="stroke:rgb(25.500488%,41.000366%,88.400269%); stroke-width: 2.500000;stroke-linecap: round;stroke-linejoin: round;stroke-miterlimit: 10.000000;fill: none;"></path>
  <path d="M434.068939 712.082611C434.068939 691.367645,425.838730 671.503586,411.192139 656.857010C396.545563 642.210419,376.681503 633.980209,355.966537 633.980209C335.251572 633.980209,315.387512 642.210419,300.740936 656.857010C286.094345 671.503586,277.864136 691.367645,277.864136 712.082611C277.864136 732.797577,286.094345 752.661636,300.740936 767.308212C315.387512 781.954803,335.251572 790.185013,355.966537 790.185013C376.681503 790.185013,396.545563 781.954803,411.192139 767.308212C425.838730 752.661636,434.068939 732.797577,434.068939 712.082611Z" style="stroke:rgb(25.500488%,41.000366%,88.400269%); stroke-width: 2.500000;stroke-linecap: round;stroke-linejoin: round;stroke-miterlimit: 10.000000;fill: none;"></path>
  <path d="M410.465637 574.991425C410.465637 554.276459,402.235428 534.412399,387.588837 519.765823C372.942261 505.119232,353.078201 496.889023,332.363235 496.889023C311.648270 496.889023,291.784210 505.119232,277.137634 519.765823C262.491043 534.412399,254.260834 554.276459,254.260834 574.991425C254.260834 595.706390,262.491043 615.570450,277.137634 630.217026C291.784210 644.863617,311.648270 653.093826,332.363235 653.093826C353.078201 653.093826,372.942261 644.863617,387.588837 630.217026C402.235428 615.570450,410.465637 595.706390,410.465637 574.991425Z" style="stroke:rgb(25.500488%,41.000366%,88.400269%); stroke-width: 2.500000;stroke-linecap: round;stroke-linejoin: round;stroke-miterlimit: 10.000000;fill: none;"></path>
  <path d="M428.632004 1191.207520C428.632004 1170.492554,420.401794 1150.628494,405.755203 1135.981918C391.108627 1121.335327,371.244568 1113.105118,350.529602 1113.105118C329.814636 1113.105118,309.950577 1121.335327,295.304001 1135.981918C280.657410 1150.628494,272.427200 1170.492554,272.427200 1191.207520C272.427200 1211.922485,280.657410 1231.786545,295.304001 1246.433121C309.950577 1261.079712,329.814636 1269.309921,350.529602 1269.309921C371.244568 1269.309921,391.108627 1261.079712,405.755203 1246.433121C420.401794 1231.786545,428.632004 1211.922485,428.632004 1191.207520Z" style="stroke:rgb(25.500488%,41.000366%,88.400269%); stroke-width: 2.500000;stroke-linecap: round;stroke-linejoin: round;stroke-miterlimit: 10.000000;fill: none;"></path>
  <path d="M392.844269 1069.570724C392.844269 1048.855759,384.614059 1028.991699,369.967468 1014.345123C355.320892 999.698532,335.456833 991.468323,314.741867 991.468323C294.026901 991.468323,274.162842 999.698532,259.516266 1014.345123C244.869675 1028.991699,236.639465 1048.855759,236.639465 1069.570724C236.639465 1090.285690,244.869675 1110.149750,259.516266 1124.796326C274.162842 1139.442917,294.026901 1147.673126,314.741867 1147.673126C335.456833 1147.673126,355.320892 1139.442917,369.967468 1124.796326C384.614059 1110.149750,392.844269 1090.285690,392.844269 1069.570724Z" style="stroke:rgb(25.500488%,41.000366%,88.400269%); stroke-width: 2.500000;stroke-linecap: round;stroke-linejoin: round;stroke-miterlimit: 10.000000;fill: none;"></path>
  <path d="M371.278198 934.101547C371.278198 913.386581,363.047989 893.522522,348.401398 878.875946C333.754822 864.229355,313.890762 855.999146,293.175797 855.999146C272.460831 855.999146,252.596771 864.229355,237.950195 878.875946C223.303604 893.522522,215.073395 913.386581,215.073395 934.101547C215.073395 954.816513,223.303604 974.680573,237.950195 989.327148C252.596771 1003.973740,272.460831 1012.203949,293.175797 1012.203949C313.890762 1012.203949,333.754822 1003.973740,348.401398 989.327148C363.047989 974.680573,371.278198 954.816513,371.278198 934.101547Z" style="stroke:rgb(25.500488%,41.000366%,88.400269%); stroke-width: 2.500000;stroke-linecap: round;stroke-linejoin: round;stroke-miterlimit: 10.000000;fill: none;"></path>
  <path d="M336.281982 812.464752C336.281982 791.749786,328.051773 771.885727,313.405182 757.239151C298.758606 742.592560,278.894547 734.362350,258.179581 734.362350C237.464615 734.362350,217.600555 742.592560,202.953979 757.239151C188.307388 771.885727,180.077179 791.749786,180.077179 812.464752C180.077179 833.179718,188.307388 853.043777,202.953979 867.690353C217.600555 882.336945,237.464615 890.567154,258.179581 890.567154C278.894547 890.567154,298.758606 882.336945,313.405182 867.690353C328.051773 853.043777,336.281982 833.179718,336.281982 812.464752Z" style="stroke:rgb(25.500488%,41.000366%,88.400269%); stroke-width: 2.500000;stroke-linecap: round;stroke-linejoin: round;stroke-miterlimit: 10.000000;fill: none;"></path>
  <path d="M316.558502 673.608841C316.558502 652.893875,308.328293 633.029816,293.681702 618.383240C279.035126 603.736649,259.171066 595.506439,238.456100 595.506439C217.741135 595.506439,197.877075 603.736649,183.230499 618.383240C168.583908 633.029816,160.353699 652.893875,160.353699 673.608841C160.353699 694.323807,168.583908 714.187866,183.230499 728.834442C197.877075 743.481033,217.741135 751.711243,238.456100 751.711243C259.171066 751.711243,279.035126 743.481033,293.681702 728.834442C308.328293 714.187866,316.558502 694.323807,316.558502 673.608841Z" style="stroke:rgb(25.500488%,41.000366%,88.400269%); stroke-width: 2.500000;stroke-linecap: round;stroke-linejoin: round;stroke-miterlimit: 10.000000;fill: none;"></path>
  <path d="M271.492950 1033.588348C271.492950 1012.873383,263.262741 993.009323,248.616150 978.362747C233.969574 963.716156,214.105515 955.485947,193.390549 955.485947C172.675583 955.485947,152.811523 963.716156,138.164948 978.362747C123.518356 993.009323,115.288147 1012.873383,115.288147 1033.588348C115.288147 1054.303314,123.518356 1074.167374,138.164948 1088.813950C152.811523 1103.460541,172.675583 1111.690750,193.390549 1111.690750C214.105515 1111.690750,233.969574 1103.460541,248.616150 1088.813950C263.262741 1074.167374,271.492950 1054.303314,271.492950 1033.588348Z" style="stroke:rgb(25.500488%,41.000366%,88.400269%); stroke-width: 2.500000;stroke-linecap: round;stroke-linejoin: round;stroke-miterlimit: 10.000000;fill: none;"></path>
  <path d="M236.366974 912.535477C236.366974 891.820511,228.136765 871.956451,213.490173 857.309875C198.843597 842.663284,178.979538 834.433075,158.264572 834.433075C137.549606 834.433075,117.685547 842.663284,103.038971 857.309875C88.392380 871.956451,80.162170 891.820511,80.162170 912.535477C80.162170 933.250443,88.392380 953.114502,103.038971 967.761078C117.685547 982.407669,137.549606 990.637878,158.264572 990.637878C178.979538 990.637878,198.843597 982.407669,213.490173 967.761078C228.136765 953.114502,236.366974 933.250443,236.366974 912.535477Z" style="stroke:rgb(25.500488%,41.000366%,88.400269%); stroke-width: 2.500000;stroke-linecap: round;stroke-linejoin: round;stroke-miterlimit: 10.000000;fill: none;"></path>
  <path d="M226.959396 769.708908C226.959396 748.993942,218.729187 729.129883,204.082596 714.483307C189.436020 699.836716,169.571960 691.606506,148.856995 691.606506C128.142029 691.606506,108.277969 699.836716,93.631393 714.483307C78.984802 729.129883,70.754593 748.993942,70.754593 769.708908C70.754593 790.423874,78.984802 810.287933,93.631393 824.934509C108.277969 839.581100,128.142029 847.811310,148.856995 847.811310C169.571960 847.811310,189.436020 839.581100,204.082596 824.934509C218.729187 810.287933,226.959396 790.423874,226.959396 769.708908Z" style="stroke:rgb(25.500488%,41.000366%,88.400269%); stroke-width: 2.500000;stroke-linecap: round;stroke-linejoin: round;stroke-miterlimit: 10.000000;fill: none;"></path>
  <path d="M156.538773 861.449066C156.538773 840.734100,148.308563 820.870041,133.661972 806.223465C119.015396 791.576874,99.151337 783.346664,78.436371 783.346664C57.721405 783.346664,37.857346 791.576874,23.210770 806.223465C8.564178 820.870041,0.333969 840.734100,0.333969 861.449066C0.333969 882.164032,8.564178 902.028091,23.210770 916.674667C37.857346 931.321259,57.721405 939.551468,78.436371 939.551468C99.151337 939.551468,119.015396 931.321259,133.661972 916.674667C148.308563 902.028091,156.538773 882.164032,156.538773 861.449066Z" style="stroke:rgb(25.500488%,41.000366%,88.400269%); stroke-width: 2.500000;stroke-linecap: round;stroke-linejoin: round;stroke-miterlimit: 10.000000;fill: none;"></path>
</svg>
