<?xml version="1.0"?>
<!-- Created by MetaPost 2.00 on 2022.03.02:1201 -->
<svg version="1.1" xmlns="http://www.w3.org/2000/svg" xmlns:xlink="http://www.w3.org/1999/xlink" width="1709.723145" height="1709.930756" viewBox="0 0 1709.723145 1709.930756">
<!-- Original BoundingBox: -853.576950 -852.201492 856.146194 857.729263 -->
  <path d="M1703.393524 857.000000L853.000000 6.606476L2.606476 857.000000L853.000000 1707.393524L1703.393524 857.000000Z" style="fill: rgb(100.000000%,100.000000%,100.000000%);stroke: none;"></path>
  <path d="M1703.393524 857.000000L853.000000 6.606476" style="stroke:rgb(0.000000%,0.000000%,0.000000%); stroke-width: 2.500000;stroke-linecap: round;stroke-linejoin: round;stroke-miterlimit: 10.000000;fill: none;"></path>
  <path d="M853.000000 6.606476L2.606476 857.000000" style="stroke:rgb(0.000000%,0.000000%,0.000000%); stroke-width: 2.500000;stroke-linecap: round;stroke-linejoin: round;stroke-miterlimit: 10.000000;fill: none;"></path>
  <path d="M2.606476 857.000000L853.000000 1707.393524" style="stroke:rgb(0.000000%,0.000000%,0.000000%); stroke-width: 2.500000;stroke-linecap: round;stroke-linejoin: round;stroke-miterlimit: 10.000000;fill: none;"></path>
  <path d="M853.000000 1707.393524L1703.393524 857.000000" style="stroke:rgb(0.000000%,0.000000%,0.000000%); stroke-width: 2.500000;stroke-linecap: round;stroke-linejoin: round;stroke-miterlimit: 10.000000;fill: none;"></path>
  <path d="M1668.371368 982.698273C1668.371368 957.722610,1658.448349 933.772873,1640.789230 916.113754C1623.130112 898.454636,1599.180374 888.531616,1574.204712 888.531616C1549.229050 888.531616,1525.279312 898.454636,1507.620193 916.113754C1489.961075 933.772873,1480.038055 957.722610,1480.038055 982.698273C1480.038055 1007.673935,1489.961075 1031.623672,1507.620193 1049.282791C1525.279312 1066.941910,1549.229050 1076.864929,1574.204712 1076.864929C1599.180374 1076.864929,1623.130112 1066.941910,1640.789230 1049.282791C1658.448349 1031.623672,1668.371368 1007.673935,1668.371368 982.698273Z" style="stroke:rgb(25.500488%,41.000366%,88.400269%); stroke-width: 2.500000;stroke-linecap: round;stroke-linejoin: round;stroke-miterlimit: 10.000000;fill: none;"></path>
  <path d="M1707.896194 828.206314C1707.896194 803.230652,1697.973175 779.280914,1680.314056 761.621796C1662.654938 743.962677,1638.705200 734.039658,1613.729538 734.039658C1588.753876 734.039658,1564.804138 743.962677,1547.145020 761.621796C1529.485901 779.280914,1519.562881 803.230652,1519.562881 828.206314C1519.562881 853.181976,1529.485901 877.131714,1547.145020 894.790833C1564.804138 912.449951,1588.753876 922.372971,1613.729538 922.372971C1638.705200 922.372971,1662.654938 912.449951,1680.314056 894.790833C1697.973175 877.131714,1707.896194 853.181976,1707.896194 828.206314Z" style="stroke:rgb(25.500488%,41.000366%,88.400269%); stroke-width: 2.500000;stroke-linecap: round;stroke-linejoin: round;stroke-miterlimit: 10.000000;fill: none;"></path>
  <path d="M1362.099426 1262.434357C1362.099426 1237.458694,1352.176407 1213.508957,1334.517288 1195.849838C1316.858170 1178.190720,1292.908432 1168.267700,1267.932770 1168.267700C1242.957108 1168.267700,1219.007370 1178.190720,1201.348251 1195.849838C1183.689133 1213.508957,1173.766113 1237.458694,1173.766113 1262.434357C1173.766113 1287.410019,1183.689133 1311.359756,1201.348251 1329.018875C1219.007370 1346.677994,1242.957108 1356.601013,1267.932770 1356.601013C1292.908432 1356.601013,1316.858170 1346.677994,1334.517288 1329.018875C1352.176407 1311.359756,1362.099426 1287.410019,1362.099426 1262.434357Z" style="stroke:rgb(25.500488%,41.000366%,88.400269%); stroke-width: 2.500000;stroke-linecap: round;stroke-linejoin: round;stroke-miterlimit: 10.000000;fill: none;"></path>
  <path d="M1452.684708 1119.010895C1452.684708 1094.035233,1442.761688 1070.085495,1425.102570 1052.426376C1407.443451 1034.767258,1383.493713 1024.844238,1358.518051 1024.844238C1333.542389 1024.844238,1309.592651 1034.767258,1291.933533 1052.426376C1274.274414 1070.085495,1264.351395 1094.035233,1264.351395 1119.010895C1264.351395 1143.986557,1274.274414 1167.936295,1291.933533 1185.595413C1309.592651 1203.254532,1333.542389 1213.177551,1358.518051 1213.177551C1383.493713 1213.177551,1407.443451 1203.254532,1425.102570 1185.595413C1442.761688 1167.936295,1452.684708 1143.986557,1452.684708 1119.010895Z" style="stroke:rgb(25.500488%,41.000366%,88.400269%); stroke-width: 2.500000;stroke-linecap: round;stroke-linejoin: round;stroke-miterlimit: 10.000000;fill: none;"></path>
  <path d="M1514.787720 1019.550049C1514.787720 994.574387,1504.864700 970.624649,1487.205582 952.965530C1469.546463 935.306412,1445.596725 925.383392,1420.621063 925.383392C1395.645401 925.383392,1371.695663 935.306412,1354.036545 952.965530C1336.377426 970.624649,1326.454407 994.574387,1326.454407 1019.550049C1326.454407 1044.525711,1336.377426 1068.475449,1354.036545 1086.134567C1371.695663 1103.793686,1395.645401 1113.716705,1420.621063 1113.716705C1445.596725 1113.716705,1469.546463 1103.793686,1487.205582 1086.134567C1504.864700 1068.475449,1514.787720 1044.525711,1514.787720 1019.550049Z" style="stroke:rgb(25.500488%,41.000366%,88.400269%); stroke-width: 2.500000;stroke-linecap: round;stroke-linejoin: round;stroke-miterlimit: 10.000000;fill: none;"></path>
  <path d="M1550.796051 861.684326C1550.796051 836.708664,1540.873032 812.758926,1523.213913 795.099808C1505.554794 777.440689,1481.605057 767.517670,1456.629395 767.517670C1431.653732 767.517670,1407.703995 777.440689,1390.044876 795.099808C1372.385757 812.758926,1362.462738 836.708664,1362.462738 861.684326C1362.462738 886.659988,1372.385757 910.609726,1390.044876 928.268845C1407.703995 945.927963,1431.653732 955.850983,1456.629395 955.850983C1481.605057 955.850983,1505.554794 945.927963,1523.213913 928.268845C1540.873032 910.609726,1550.796051 886.659988,1550.796051 861.684326Z" style="stroke:rgb(25.500488%,41.000366%,88.400269%); stroke-width: 2.500000;stroke-linecap: round;stroke-linejoin: round;stroke-miterlimit: 10.000000;fill: none;"></path>
  <path d="M1590.307907 707.192368C1590.307907 682.216705,1580.384888 658.266968,1562.725769 640.607849C1545.066650 622.948730,1521.116913 613.025711,1496.141251 613.025711C1471.165588 613.025711,1447.215851 622.948730,1429.556732 640.607849C1411.897614 658.266968,1401.974594 682.216705,1401.974594 707.192368C1401.974594 732.168030,1411.897614 756.117767,1429.556732 773.776886C1447.215851 791.436005,1471.165588 801.359024,1496.141251 801.359024C1521.116913 801.359024,1545.066650 791.436005,1562.725769 773.776886C1580.384888 756.117767,1590.307907 732.168030,1590.307907 707.192368Z" style="stroke:rgb(25.500488%,41.000366%,88.400269%); stroke-width: 2.500000;stroke-linecap: round;stroke-linejoin: round;stroke-miterlimit: 10.000000;fill: none;"></path>
  <path d="M1173.506592 1462.809357C1173.506592 1437.833694,1163.583572 1413.883957,1145.924454 1396.224838C1128.265335 1378.565720,1104.315598 1368.642700,1079.339935 1368.642700C1054.364273 1368.642700,1030.414536 1378.565720,1012.755417 1396.224838C995.096298 1413.883957,985.173279 1437.833694,985.173279 1462.809357C985.173279 1487.785019,995.096298 1511.734756,1012.755417 1529.393875C1030.414536 1547.052994,1054.364273 1556.976013,1079.339935 1556.976013C1104.315598 1556.976013,1128.265335 1547.052994,1145.924454 1529.393875C1163.583572 1511.734756,1173.506592 1487.785019,1173.506592 1462.809357Z" style="stroke:rgb(25.500488%,41.000366%,88.400269%); stroke-width: 2.500000;stroke-linecap: round;stroke-linejoin: round;stroke-miterlimit: 10.000000;fill: none;"></path>
  <path d="M1221.919952 1315.648834C1221.919952 1290.673172,1211.996933 1266.723434,1194.337814 1249.064316C1176.678696 1231.405197,1152.728958 1221.482178,1127.753296 1221.482178C1102.777634 1221.482178,1078.827896 1231.405197,1061.168777 1249.064316C1043.509659 1266.723434,1033.586639 1290.673172,1033.586639 1315.648834C1033.586639 1340.624496,1043.509659 1364.574234,1061.168777 1382.233353C1078.827896 1399.892471,1102.777634 1409.815491,1127.753296 1409.815491C1152.728958 1409.815491,1176.678696 1399.892471,1194.337814 1382.233353C1211.996933 1364.574234,1221.919952 1340.624496,1221.919952 1315.648834Z" style="stroke:rgb(25.500488%,41.000366%,88.400269%); stroke-width: 2.500000;stroke-linecap: round;stroke-linejoin: round;stroke-miterlimit: 10.000000;fill: none;"></path>
  <path d="M1279.325668 1157.406799C1279.325668 1132.431137,1269.402649 1108.481400,1251.743530 1090.822281C1234.084412 1073.163162,1210.134674 1063.240143,1185.159012 1063.240143C1160.183350 1063.240143,1136.233612 1073.163162,1118.574493 1090.822281C1100.915375 1108.481400,1090.992355 1132.431137,1090.992355 1157.406799C1090.992355 1182.382462,1100.915375 1206.332199,1118.574493 1223.991318C1136.233612 1241.650436,1160.183350 1251.573456,1185.159012 1251.573456C1210.134674 1251.573456,1234.084412 1241.650436,1251.743530 1223.991318C1269.402649 1206.332199,1279.325668 1182.382462,1279.325668 1157.406799Z" style="stroke:rgb(25.500488%,41.000366%,88.400269%); stroke-width: 2.500000;stroke-linecap: round;stroke-linejoin: round;stroke-miterlimit: 10.000000;fill: none;"></path>
  <path d="M1342.272125 1014.904648C1342.272125 989.928986,1332.349106 965.979248,1314.689987 948.320129C1297.030869 930.661011,1273.081131 920.737991,1248.105469 920.737991C1223.129807 920.737991,1199.180069 930.661011,1181.520950 948.320129C1163.861832 965.979248,1153.938812 989.928986,1153.938812 1014.904648C1153.938812 1039.880310,1163.861832 1063.830048,1181.520950 1081.489166C1199.180069 1099.148285,1223.129807 1109.071304,1248.105469 1109.071304C1273.081131 1109.071304,1297.030869 1099.148285,1314.689987 1081.489166C1332.349106 1063.830048,1342.272125 1039.880310,1342.272125 1014.904648Z" style="stroke:rgb(25.500488%,41.000366%,88.400269%); stroke-width: 2.500000;stroke-linecap: round;stroke-linejoin: round;stroke-miterlimit: 10.000000;fill: none;"></path>
  <path d="M1400.638062 889.894104C1400.638062 864.918442,1390.715042 840.968704,1373.055923 823.309586C1355.396805 805.650467,1331.447067 795.727448,1306.471405 795.727448C1281.495743 795.727448,1257.546005 805.650467,1239.886887 823.309586C1222.227768 840.968704,1212.304749 864.918442,1212.304749 889.894104C1212.304749 914.869766,1222.227768 938.819504,1239.886887 956.478622C1257.546005 974.137741,1281.495743 984.060760,1306.471405 984.060760C1331.447067 984.060760,1355.396805 974.137741,1373.055923 956.478622C1390.715042 938.819504,1400.638062 914.869766,1400.638062 889.894104Z" style="stroke:rgb(25.500488%,41.000366%,88.400269%); stroke-width: 2.500000;stroke-linecap: round;stroke-linejoin: round;stroke-miterlimit: 10.000000;fill: none;"></path>
  <path d="M1434.777863 736.556992C1434.777863 711.581329,1424.854843 687.631592,1407.195724 669.972473C1389.536606 652.313354,1365.586868 642.390335,1340.611206 642.390335C1315.635544 642.390335,1291.685806 652.313354,1274.026688 669.972473C1256.367569 687.631592,1246.444550 711.581329,1246.444550 736.556992C1246.444550 761.532654,1256.367569 785.482391,1274.026688 803.141510C1291.685806 820.800629,1315.635544 830.723648,1340.611206 830.723648C1365.586868 830.723648,1389.536606 820.800629,1407.195724 803.141510C1424.854843 785.482391,1434.777863 761.532654,1434.777863 736.556992Z" style="stroke:rgb(25.500488%,41.000366%,88.400269%); stroke-width: 2.500000;stroke-linecap: round;stroke-linejoin: round;stroke-miterlimit: 10.000000;fill: none;"></path>
  <path d="M1471.707489 582.921448C1471.707489 557.945786,1461.784470 533.996048,1444.125351 516.336929C1426.466232 498.677811,1402.516495 488.754791,1377.540833 488.754791C1352.565170 488.754791,1328.615433 498.677811,1310.956314 516.336929C1293.297195 533.996048,1283.374176 557.945786,1283.374176 582.921448C1283.374176 607.897110,1293.297195 631.846848,1310.956314 649.505966C1328.615433 667.165085,1352.565170 677.088104,1377.540833 677.088104C1402.516495 677.088104,1426.466232 667.165085,1444.125351 649.505966C1461.784470 631.846848,1471.707489 607.897110,1471.707489 582.921448Z" style="stroke:rgb(25.500488%,41.000366%,88.400269%); stroke-width: 2.500000;stroke-linecap: round;stroke-linejoin: round;stroke-miterlimit: 10.000000;fill: none;"></path>
  <path d="M957.456604 1613.784836C957.456604 1588.809174,947.533585 1564.859436,929.874466 1547.200317C912.215347 1529.541199,888.265610 1519.618179,863.289948 1519.618179C838.314285 1519.618179,814.364548 1529.541199,796.705429 1547.200317C779.046310 1564.859436,769.123291 1588.809174,769.123291 1613.784836C769.123291 1638.760498,779.046310 1662.710236,796.705429 1680.369354C814.364548 1698.028473,838.314285 1707.951492,863.289948 1707.951492C888.265610 1707.951492,912.215347 1698.028473,929.874466 1680.369354C947.533585 1662.710236,957.456604 1638.760498,957.456604 1613.784836Z" style="stroke:rgb(25.500488%,41.000366%,88.400269%); stroke-width: 2.500000;stroke-linecap: round;stroke-linejoin: round;stroke-miterlimit: 10.000000;fill: none;"></path>
  <path d="M1025.917847 1512.740921C1025.917847 1487.765259,1015.994827 1463.815521,998.335709 1446.156403C980.676590 1428.497284,956.726852 1418.574265,931.751190 1418.574265C906.775528 1418.574265,882.825790 1428.497284,865.166672 1446.156403C847.507553 1463.815521,837.584534 1487.765259,837.584534 1512.740921C837.584534 1537.716583,847.507553 1561.666321,865.166672 1579.325439C882.825790 1596.984558,906.775528 1606.907578,931.751190 1606.907578C956.726852 1606.907578,980.676590 1596.984558,998.335709 1579.325439C1015.994827 1561.666321,1025.917847 1537.716583,1025.917847 1512.740921Z" style="stroke:rgb(25.500488%,41.000366%,88.400269%); stroke-width: 2.500000;stroke-linecap: round;stroke-linejoin: round;stroke-miterlimit: 10.000000;fill: none;"></path>
  <path d="M1055.866409 1348.179596C1055.866409 1323.203934,1045.943390 1299.254196,1028.284271 1281.595078C1010.625153 1263.935959,986.675415 1254.012939,961.699753 1254.012939C936.724091 1254.012939,912.774353 1263.935959,895.115234 1281.595078C877.456116 1299.254196,867.533096 1323.203934,867.533096 1348.179596C867.533096 1373.155258,877.456116 1397.104996,895.115234 1414.764114C912.774353 1432.423233,936.724091 1442.346252,961.699753 1442.346252C986.675415 1442.346252,1010.625153 1432.423233,1028.284271 1414.764114C1045.943390 1397.104996,1055.866409 1373.155258,1055.866409 1348.179596Z" style="stroke:rgb(25.500488%,41.000366%,88.400269%); stroke-width: 2.500000;stroke-linecap: round;stroke-linejoin: round;stroke-miterlimit: 10.000000;fill: none;"></path>
  <path d="M1119.941772 1197.813995C1119.941772 1172.838333,1110.018753 1148.888596,1092.359634 1131.229477C1074.700516 1113.570358,1050.750778 1103.647339,1025.775116 1103.647339C1000.799454 1103.647339,976.849716 1113.570358,959.190598 1131.229477C941.531479 1148.888596,931.608459 1172.838333,931.608459 1197.813995C931.608459 1222.789658,941.531479 1246.739395,959.190598 1264.398514C976.849716 1282.057632,1000.799454 1291.980652,1025.775116 1291.980652C1050.750778 1291.980652,1074.700516 1282.057632,1092.359634 1264.398514C1110.018753 1246.739395,1119.941772 1222.789658,1119.941772 1197.813995Z" style="stroke:rgb(25.500488%,41.000366%,88.400269%); stroke-width: 2.500000;stroke-linecap: round;stroke-linejoin: round;stroke-miterlimit: 10.000000;fill: none;"></path>
  <path d="M1171.417465 1040.467316C1171.417465 1015.491653,1161.494446 991.541916,1143.835327 973.882797C1126.176208 956.223679,1102.226471 946.300659,1077.250809 946.300659C1052.275146 946.300659,1028.325409 956.223679,1010.666290 973.882797C993.007172 991.541916,983.084152 1015.491653,983.084152 1040.467316C983.084152 1065.442978,993.007172 1089.392715,1010.666290 1107.051834C1028.325409 1124.710953,1052.275146 1134.633972,1077.250809 1134.633972C1102.226471 1134.633972,1126.176208 1124.710953,1143.835327 1107.051834C1161.494446 1089.392715,1171.417465 1065.442978,1171.417465 1040.467316Z" style="stroke:rgb(25.500488%,41.000366%,88.400269%); stroke-width: 2.500000;stroke-linecap: round;stroke-linejoin: round;stroke-miterlimit: 10.000000;fill: none;"></path>
  <path d="M1231.742767 898.471222C1231.742767 873.495560,1221.819748 849.545822,1204.160629 831.886703C1186.501511 814.227585,1162.551773 804.304565,1137.576111 804.304565C1112.600449 804.304565,1088.650711 814.227585,1070.991592 831.886703C1053.332474 849.545822,1043.409454 873.495560,1043.409454 898.471222C1043.409454 923.446884,1053.332474 947.396622,1070.991592 965.055740C1088.650711 982.714859,1112.600449 992.637878,1137.576111 992.637878C1162.551773 992.637878,1186.501511 982.714859,1204.160629 965.055740C1221.819748 947.396622,1231.742767 923.446884,1231.742767 898.471222Z" style="stroke:rgb(25.500488%,41.000366%,88.400269%); stroke-width: 2.500000;stroke-linecap: round;stroke-linejoin: round;stroke-miterlimit: 10.000000;fill: none;"></path>
  <path d="M1280.454590 764.818665C1280.454590 739.843002,1270.531570 715.893265,1252.872452 698.234146C1235.213333 680.575027,1211.263596 670.652008,1186.287933 670.652008C1161.312271 670.652008,1137.362534 680.575027,1119.703415 698.234146C1102.044296 715.893265,1092.121277 739.843002,1092.121277 764.818665C1092.121277 789.794327,1102.044296 813.744064,1119.703415 831.403183C1137.362534 849.062302,1161.312271 858.985321,1186.287933 858.985321C1211.263596 858.985321,1235.213333 849.062302,1252.872452 831.403183C1270.531570 813.744064,1280.454590 789.794327,1280.454590 764.818665Z" style="stroke:rgb(25.500488%,41.000366%,88.400269%); stroke-width: 2.500000;stroke-linecap: round;stroke-linejoin: round;stroke-miterlimit: 10.000000;fill: none;"></path>
  <path d="M1316.281250 612.078461C1316.281250 587.102798,1306.358231 563.153061,1288.699112 545.493942C1271.039993 527.834824,1247.090256 517.911804,1222.114594 517.911804C1197.138931 517.911804,1173.189194 527.834824,1155.530075 545.493942C1137.870956 563.153061,1127.947937 587.102798,1127.947937 612.078461C1127.947937 637.054123,1137.870956 661.003860,1155.530075 678.662979C1173.189194 696.322098,1197.138931 706.245117,1222.114594 706.245117C1247.090256 706.245117,1271.039993 696.322098,1288.699112 678.662979C1306.358231 661.003860,1316.281250 637.054123,1316.281250 612.078461Z" style="stroke:rgb(25.500488%,41.000366%,88.400269%); stroke-width: 2.500000;stroke-linecap: round;stroke-linejoin: round;stroke-miterlimit: 10.000000;fill: none;"></path>
  <path d="M1349.097488 459.987061C1349.097488 435.011398,1339.174469 411.061661,1321.515350 393.402542C1303.856232 375.743423,1279.906494 365.820404,1254.930832 365.820404C1229.955170 365.820404,1206.005432 375.743423,1188.346313 393.402542C1170.687195 411.061661,1160.764175 435.011398,1160.764175 459.987061C1160.764175 484.962723,1170.687195 508.912460,1188.346313 526.571579C1206.005432 544.230698,1229.955170 554.153717,1254.930832 554.153717C1279.906494 554.153717,1303.856232 544.230698,1321.515350 526.571579C1339.174469 508.912460,1349.097488 484.962723,1349.097488 459.987061Z" style="stroke:rgb(25.500488%,41.000366%,88.400269%); stroke-width: 2.500000;stroke-linecap: round;stroke-linejoin: round;stroke-miterlimit: 10.000000;fill: none;"></path>
  <path d="M854.427353 1530.388245C854.427353 1505.412582,844.504333 1481.462845,826.845215 1463.803726C809.186096 1446.144608,785.236359 1436.221588,760.260696 1436.221588C735.285034 1436.221588,711.335297 1446.144608,693.676178 1463.803726C676.017059 1481.462845,666.094040 1505.412582,666.094040 1530.388245C666.094040 1555.363907,676.017059 1579.313644,693.676178 1596.972763C711.335297 1614.631882,735.285034 1624.554901,760.260696 1624.554901C785.236359 1624.554901,809.186096 1614.631882,826.845215 1596.972763C844.504333 1579.313644,854.427353 1555.363907,854.427353 1530.388245Z" style="stroke:rgb(25.500488%,41.000366%,88.400269%); stroke-width: 2.500000;stroke-linecap: round;stroke-linejoin: round;stroke-miterlimit: 10.000000;fill: none;"></path>
  <path d="M908.679916 1393.816101C908.679916 1368.840439,898.756897 1344.890701,881.097778 1327.231583C863.438660 1309.572464,839.488922 1299.649445,814.513260 1299.649445C789.537598 1299.649445,765.587860 1309.572464,747.928741 1327.231583C730.269623 1344.890701,720.346603 1368.840439,720.346603 1393.816101C720.346603 1418.791763,730.269623 1442.741501,747.928741 1460.400620C765.587860 1478.059738,789.537598 1487.982758,814.513260 1487.982758C839.488922 1487.982758,863.438660 1478.059738,881.097778 1460.400620C898.756897 1442.741501,908.679916 1418.791763,908.679916 1393.816101Z" style="stroke:rgb(25.500488%,41.000366%,88.400269%); stroke-width: 2.500000;stroke-linecap: round;stroke-linejoin: round;stroke-miterlimit: 10.000000;fill: none;"></path>
  <path d="M953.732498 1230.889755C953.732498 1205.914093,943.809479 1181.964355,926.150360 1164.305237C908.491241 1146.646118,884.541504 1136.723099,859.565842 1136.723099C834.590179 1136.723099,810.640442 1146.646118,792.981323 1164.305237C775.322205 1181.964355,765.399185 1205.914093,765.399185 1230.889755C765.399185 1255.865417,775.322205 1279.815155,792.981323 1297.474274C810.640442 1315.133392,834.590179 1325.056412,859.565842 1325.056412C884.541504 1325.056412,908.491241 1315.133392,926.150360 1297.474274C943.809479 1279.815155,953.732498 1255.865417,953.732498 1230.889755Z" style="stroke:rgb(25.500488%,41.000366%,88.400269%); stroke-width: 2.500000;stroke-linecap: round;stroke-linejoin: round;stroke-miterlimit: 10.000000;fill: none;"></path>
  <path d="M1011.877853 1081.419495C1011.877853 1056.443832,1001.954834 1032.494095,984.295715 1014.834976C966.636597 997.175858,942.686859 987.252838,917.711197 987.252838C892.735535 987.252838,868.785797 997.175858,851.126678 1014.834976C833.467560 1032.494095,823.544540 1056.443832,823.544540 1081.419495C823.544540 1106.395157,833.467560 1130.344894,851.126678 1148.004013C868.785797 1165.663132,892.735535 1175.586151,917.711197 1175.586151C942.686859 1175.586151,966.636597 1165.663132,984.295715 1148.004013C1001.954834 1130.344894,1011.877853 1106.395157,1011.877853 1081.419495Z" style="stroke:rgb(25.500488%,41.000366%,88.400269%); stroke-width: 2.500000;stroke-linecap: round;stroke-linejoin: round;stroke-miterlimit: 10.000000;fill: none;"></path>
  <path d="M1061.329285 924.462097C1061.329285 899.486435,1051.406265 875.536697,1033.747147 857.877579C1016.088028 840.218460,992.138290 830.295441,967.162628 830.295441C942.186966 830.295441,918.237228 840.218460,900.578110 857.877579C882.918991 875.536697,872.995972 899.486435,872.995972 924.462097C872.995972 949.437759,882.918991 973.387497,900.578110 991.046616C918.237228 1008.705734,942.186966 1018.628754,967.162628 1018.628754C992.138290 1018.628754,1016.088028 1008.705734,1033.747147 991.046616C1051.406265 973.387497,1061.329285 949.437759,1061.329285 924.462097Z" style="stroke:rgb(25.500488%,41.000366%,88.400269%); stroke-width: 2.500000;stroke-linecap: round;stroke-linejoin: round;stroke-miterlimit: 10.000000;fill: none;"></path>
  <path d="M1115.828384 783.179672C1115.828384 758.204010,1105.905365 734.254272,1088.246246 716.595154C1070.587128 698.936035,1046.637390 689.013016,1021.661728 689.013016C996.686066 689.013016,972.736328 698.936035,955.077209 716.595154C937.418091 734.254272,927.495071 758.204010,927.495071 783.179672C927.495071 808.155334,937.418091 832.105072,955.077209 849.764191C972.736328 867.423309,996.686066 877.346329,1021.661728 877.346329C1046.637390 877.346329,1070.587128 867.423309,1088.246246 849.764191C1105.905365 832.105072,1115.828384 808.155334,1115.828384 783.179672Z" style="stroke:rgb(25.500488%,41.000366%,88.400269%); stroke-width: 2.500000;stroke-linecap: round;stroke-linejoin: round;stroke-miterlimit: 10.000000;fill: none;"></path>
  <path d="M1160.361938 641.183578C1160.361938 616.207916,1150.438919 592.258179,1132.779800 574.599060C1115.120682 556.939941,1091.170944 547.016922,1066.195282 547.016922C1041.219620 547.016922,1017.269882 556.939941,999.610764 574.599060C981.951645 592.258179,972.028625 616.207916,972.028625 641.183578C972.028625 666.159241,981.951645 690.108978,999.610764 707.768097C1017.269882 725.427216,1041.219620 735.350235,1066.195282 735.350235C1091.170944 735.350235,1115.120682 725.427216,1132.779800 707.768097C1150.438919 690.108978,1160.361938 666.159241,1160.361938 641.183578Z" style="stroke:rgb(25.500488%,41.000366%,88.400269%); stroke-width: 2.500000;stroke-linecap: round;stroke-linejoin: round;stroke-miterlimit: 10.000000;fill: none;"></path>
  <path d="M1193.801025 489.377640C1193.801025 464.401978,1183.878006 440.452240,1166.218887 422.793121C1148.559769 405.134003,1124.610031 395.210983,1099.634369 395.210983C1074.658707 395.210983,1050.708969 405.134003,1033.049850 422.793121C1015.390732 440.452240,1005.467712 464.401978,1005.467712 489.377640C1005.467712 514.353302,1015.390732 538.303040,1033.049850 555.962158C1050.708969 573.621277,1074.658707 583.544296,1099.634369 583.544296C1124.610031 583.544296,1148.559769 573.621277,1166.218887 555.962158C1183.878006 538.303040,1193.801025 514.353302,1193.801025 489.377640Z" style="stroke:rgb(25.500488%,41.000366%,88.400269%); stroke-width: 2.500000;stroke-linecap: round;stroke-linejoin: round;stroke-miterlimit: 10.000000;fill: none;"></path>
  <path d="M1226.227982 337.208374C1226.227982 312.232712,1216.304962 288.282974,1198.645844 270.623856C1180.986725 252.964737,1157.036987 243.041718,1132.061325 243.041718C1107.085663 243.041718,1083.135925 252.964737,1065.476807 270.623856C1047.817688 288.282974,1037.894669 312.232712,1037.894669 337.208374C1037.894669 362.184036,1047.817688 386.133774,1065.476807 403.792892C1083.135925 421.452011,1107.085663 431.375031,1132.061325 431.375031C1157.036987 431.375031,1180.986725 421.452011,1198.645844 403.792892C1216.304962 386.133774,1226.227982 362.184036,1226.227982 337.208374Z" style="stroke:rgb(25.500488%,41.000366%,88.400269%); stroke-width: 2.500000;stroke-linecap: round;stroke-linejoin: round;stroke-miterlimit: 10.000000;fill: none;"></path>
  <path d="M741.821838 1428.695526C741.821838 1403.719864,731.898819 1379.770126,714.239700 1362.111008C696.580582 1344.451889,672.630844 1334.528870,647.655182 1334.528870C622.679520 1334.528870,598.729782 1344.451889,581.070663 1362.111008C563.411545 1379.770126,553.488525 1403.719864,553.488525 1428.695526C553.488525 1453.671188,563.411545 1477.620926,581.070663 1495.280045C598.729782 1512.939163,622.679520 1522.862183,647.655182 1522.862183C672.630844 1522.862183,696.580582 1512.939163,714.239700 1495.280045C731.898819 1477.620926,741.821838 1453.671188,741.821838 1428.695526Z" style="stroke:rgb(25.500488%,41.000366%,88.400269%); stroke-width: 2.500000;stroke-linecap: round;stroke-linejoin: round;stroke-miterlimit: 10.000000;fill: none;"></path>
  <path d="M799.564941 1279.523712C799.564941 1254.548050,789.641922 1230.598312,771.982803 1212.939194C754.323685 1195.280075,730.373947 1185.357056,705.398285 1185.357056C680.422623 1185.357056,656.472885 1195.280075,638.813766 1212.939194C621.154648 1230.598312,611.231628 1254.548050,611.231628 1279.523712C611.231628 1304.499374,621.154648 1328.449112,638.813766 1346.108231C656.472885 1363.767349,680.422623 1373.690369,705.398285 1373.690369C730.373947 1373.690369,754.323685 1363.767349,771.982803 1346.108231C789.641922 1328.449112,799.564941 1304.499374,799.564941 1279.523712Z" style="stroke:rgb(25.500488%,41.000366%,88.400269%); stroke-width: 2.500000;stroke-linecap: round;stroke-linejoin: round;stroke-miterlimit: 10.000000;fill: none;"></path>
  <path d="M845.188461 1116.493561C845.188461 1091.517899,835.265442 1067.568161,817.606323 1049.909042C799.947205 1032.249924,775.997467 1022.326904,751.021805 1022.326904C726.046143 1022.326904,702.096405 1032.249924,684.437286 1049.909042C666.778168 1067.568161,656.855148 1091.517899,656.855148 1116.493561C656.855148 1141.469223,666.778168 1165.418961,684.437286 1183.078079C702.096405 1200.737198,726.046143 1210.660217,751.021805 1210.660217C775.997467 1210.660217,799.947205 1200.737198,817.606323 1183.078079C835.265442 1165.418961,845.188461 1141.469223,845.188461 1116.493561Z" style="stroke:rgb(25.500488%,41.000366%,88.400269%); stroke-width: 2.500000;stroke-linecap: round;stroke-linejoin: round;stroke-miterlimit: 10.000000;fill: none;"></path>
  <path d="M901.309555 967.412567C901.309555 942.436905,891.386536 918.487167,873.727417 900.828049C856.068298 883.168930,832.118561 873.245911,807.142899 873.245911C782.167236 873.245911,758.217499 883.168930,740.558380 900.828049C722.899261 918.487167,712.976242 942.436905,712.976242 967.412567C712.976242 992.388229,722.899261 1016.337967,740.558380 1033.997086C758.217499 1051.656204,782.167236 1061.579224,807.142899 1061.579224C832.118561 1061.579224,856.068298 1051.656204,873.727417 1033.997086C891.386536 1016.337967,901.309555 992.388229,901.309555 967.412567Z" style="stroke:rgb(25.500488%,41.000366%,88.400269%); stroke-width: 2.500000;stroke-linecap: round;stroke-linejoin: round;stroke-miterlimit: 10.000000;fill: none;"></path>
  <path d="M946.465958 811.441345C946.465958 786.465683,936.542938 762.515945,918.883820 744.856827C901.224701 727.197708,877.274963 717.274689,852.299301 717.274689C827.323639 717.274689,803.373901 727.197708,785.714783 744.856827C768.055664 762.515945,758.132645 786.465683,758.132645 811.441345C758.132645 836.417007,768.055664 860.366745,785.714783 878.025864C803.373901 895.684982,827.323639 905.608002,852.299301 905.608002C877.274963 905.608002,901.224701 895.684982,918.883820 878.025864C936.542938 860.366745,946.465958 836.417007,946.465958 811.441345Z" style="stroke:rgb(25.500488%,41.000366%,88.400269%); stroke-width: 2.500000;stroke-linecap: round;stroke-linejoin: round;stroke-miterlimit: 10.000000;fill: none;"></path>
  <path d="M999.498764 668.420151C999.498764 643.444489,989.575745 619.494751,971.916626 601.835632C954.257507 584.176514,930.307770 574.253494,905.332108 574.253494C880.356445 574.253494,856.406708 584.176514,838.747589 601.835632C821.088470 619.494751,811.165451 643.444489,811.165451 668.420151C811.165451 693.395813,821.088470 717.345551,838.747589 735.004669C856.406708 752.663788,880.356445 762.586807,905.332108 762.586807C930.307770 762.586807,954.257507 752.663788,971.916626 735.004669C989.575745 717.345551,999.498764 693.395813,999.498764 668.420151Z" style="stroke:rgb(25.500488%,41.000366%,88.400269%); stroke-width: 2.500000;stroke-linecap: round;stroke-linejoin: round;stroke-miterlimit: 10.000000;fill: none;"></path>
  <path d="M1036.869568 521.064972C1036.869568 496.089310,1026.946548 472.139572,1009.287430 454.480453C991.628311 436.821335,967.678574 426.898315,942.702911 426.898315C917.727249 426.898315,893.777512 436.821335,876.118393 454.480453C858.459274 472.139572,848.536255 496.089310,848.536255 521.064972C848.536255 546.040634,858.459274 569.990372,876.118393 587.649490C893.777512 605.308609,917.727249 615.231628,942.702911 615.231628C967.678574 615.231628,991.628311 605.308609,1009.287430 587.649490C1026.946548 569.990372,1036.869568 546.040634,1036.869568 521.064972Z" style="stroke:rgb(25.500488%,41.000366%,88.400269%); stroke-width: 2.500000;stroke-linecap: round;stroke-linejoin: round;stroke-miterlimit: 10.000000;fill: none;"></path>
  <path d="M1071.359711 368.856781C1071.359711 343.881119,1061.436691 319.931381,1043.777573 302.272263C1026.118454 284.613144,1002.168716 274.690125,977.193054 274.690125C952.217392 274.690125,928.267654 284.613144,910.608536 302.272263C892.949417 319.931381,883.026398 343.881119,883.026398 368.856781C883.026398 393.832443,892.949417 417.782181,910.608536 435.441299C928.267654 453.100418,952.217392 463.023438,977.193054 463.023438C1002.168716 463.023438,1026.118454 453.100418,1043.777573 435.441299C1061.436691 417.782181,1071.359711 393.832443,1071.359711 368.856781Z" style="stroke:rgb(25.500488%,41.000366%,88.400269%); stroke-width: 2.500000;stroke-linecap: round;stroke-linejoin: round;stroke-miterlimit: 10.000000;fill: none;"></path>
  <path d="M1102.917282 215.688370C1102.917282 190.712708,1092.994263 166.762970,1075.335144 149.103851C1057.676025 131.444733,1033.726288 121.521713,1008.750626 121.521713C983.774963 121.521713,959.825226 131.444733,942.166107 149.103851C924.506989 166.762970,914.583969 190.712708,914.583969 215.688370C914.583969 240.664032,924.506989 264.613770,942.166107 282.272888C959.825226 299.932007,983.774963 309.855026,1008.750626 309.855026C1033.726288 309.855026,1057.676025 299.932007,1075.335144 282.272888C1092.994263 264.613770,1102.917282 240.664032,1102.917282 215.688370Z" style="stroke:rgb(25.500488%,41.000366%,88.400269%); stroke-width: 2.500000;stroke-linecap: round;stroke-linejoin: round;stroke-miterlimit: 10.000000;fill: none;"></path>
  <path d="M632.421402 1317.192963C632.421402 1292.217300,622.498383 1268.267563,604.839264 1250.608444C587.180145 1232.949326,563.230408 1223.026306,538.254745 1223.026306C513.279083 1223.026306,489.329346 1232.949326,471.670227 1250.608444C454.011108 1268.267563,444.088089 1292.217300,444.088089 1317.192963C444.088089 1342.168625,454.011108 1366.118362,471.670227 1383.777481C489.329346 1401.436600,513.279083 1411.359619,538.254745 1411.359619C563.230408 1411.359619,587.180145 1401.436600,604.839264 1383.777481C622.498383 1366.118362,632.421402 1342.168625,632.421402 1317.192963Z" style="stroke:rgb(25.500488%,41.000366%,88.400269%); stroke-width: 2.500000;stroke-linecap: round;stroke-linejoin: round;stroke-miterlimit: 10.000000;fill: none;"></path>
  <path d="M690.462936 1167.567001C690.462936 1142.591339,680.539917 1118.641602,662.880798 1100.982483C645.221680 1083.323364,621.271942 1073.400345,596.296280 1073.400345C571.320618 1073.400345,547.370880 1083.323364,529.711761 1100.982483C512.052643 1118.641602,502.129623 1142.591339,502.129623 1167.567001C502.129623 1192.542664,512.052643 1216.492401,529.711761 1234.151520C547.370880 1251.810638,571.320618 1261.733658,596.296280 1261.733658C621.271942 1261.733658,645.221680 1251.810638,662.880798 1234.151520C680.539917 1216.492401,690.462936 1192.542664,690.462936 1167.567001Z" style="stroke:rgb(25.500488%,41.000366%,88.400269%); stroke-width: 2.500000;stroke-linecap: round;stroke-linejoin: round;stroke-miterlimit: 10.000000;fill: none;"></path>
  <path d="M734.062210 1004.926117C734.062210 979.950455,724.139191 956.000717,706.480072 938.341599C688.820953 920.682480,664.871216 910.759460,639.895554 910.759460C614.919891 910.759460,590.970154 920.682480,573.311035 938.341599C555.651917 956.000717,545.728897 979.950455,545.728897 1004.926117C545.728897 1029.901779,555.651917 1053.851517,573.311035 1071.510635C590.970154 1089.169754,614.919891 1099.092773,639.895554 1099.092773C664.871216 1099.092773,688.820953 1089.169754,706.480072 1071.510635C724.139191 1053.851517,734.062210 1029.901779,734.062210 1004.926117Z" style="stroke:rgb(25.500488%,41.000366%,88.400269%); stroke-width: 2.500000;stroke-linecap: round;stroke-linejoin: round;stroke-miterlimit: 10.000000;fill: none;"></path>
  <path d="M788.146072 856.273346C788.146072 831.297684,778.223053 807.347946,760.563934 789.688828C742.904816 772.029709,718.955078 762.106689,693.979416 762.106689C669.003754 762.106689,645.054016 772.029709,627.394897 789.688828C609.735779 807.347946,599.812759 831.297684,599.812759 856.273346C599.812759 881.249008,609.735779 905.198746,627.394897 922.857864C645.054016 940.516983,669.003754 950.440002,693.979416 950.440002C718.955078 950.440002,742.904816 940.516983,760.563934 922.857864C778.223053 905.198746,788.146072 881.249008,788.146072 856.273346Z" style="stroke:rgb(25.500488%,41.000366%,88.400269%); stroke-width: 2.500000;stroke-linecap: round;stroke-linejoin: round;stroke-miterlimit: 10.000000;fill: none;"></path>
  <path d="M829.552414 699.056427C829.552414 674.080765,819.629395 650.131027,801.970276 632.471909C784.311157 614.812790,760.361420 604.889771,735.385757 604.889771C710.410095 604.889771,686.460358 614.812790,668.801239 632.471909C651.142120 650.131027,641.219101 674.080765,641.219101 699.056427C641.219101 724.032089,651.142120 747.981827,668.801239 765.640945C686.460358 783.300064,710.410095 793.223083,735.385757 793.223083C760.361420 793.223083,784.311157 783.300064,801.970276 765.640945C819.629395 747.981827,829.552414 724.032089,829.552414 699.056427Z" style="stroke:rgb(25.500488%,41.000366%,88.400269%); stroke-width: 2.500000;stroke-linecap: round;stroke-linejoin: round;stroke-miterlimit: 10.000000;fill: none;"></path>
  <path d="M881.871552 556.216888C881.871552 531.241226,871.948532 507.291489,854.289413 489.632370C836.630295 471.973251,812.680557 462.050232,787.704895 462.050232C762.729233 462.050232,738.779495 471.973251,721.120377 489.632370C703.461258 507.291489,693.538239 531.241226,693.538239 556.216888C693.538239 581.192551,703.461258 605.142288,721.120377 622.801407C738.779495 640.460526,762.729233 650.383545,787.704895 650.383545C812.680557 650.383545,836.630295 640.460526,854.289413 622.801407C871.948532 605.142288,881.871552 581.192551,881.871552 556.216888Z" style="stroke:rgb(25.500488%,41.000366%,88.400269%); stroke-width: 2.500000;stroke-linecap: round;stroke-linejoin: round;stroke-miterlimit: 10.000000;fill: none;"></path>
  <path d="M914.038986 401.608139C914.038986 376.632477,904.115967 352.682739,886.456848 335.023621C868.797729 317.364502,844.847992 307.441483,819.872330 307.441483C794.896667 307.441483,770.946930 317.364502,753.287811 335.023621C735.628693 352.682739,725.705673 376.632477,725.705673 401.608139C725.705673 426.583801,735.628693 450.533539,753.287811 468.192657C770.946930 485.851776,794.896667 495.774796,819.872330 495.774796C844.847992 495.774796,868.797729 485.851776,886.456848 468.192657C904.115967 450.533539,914.038986 426.583801,914.038986 401.608139Z" style="stroke:rgb(25.500488%,41.000366%,88.400269%); stroke-width: 2.500000;stroke-linecap: round;stroke-linejoin: round;stroke-miterlimit: 10.000000;fill: none;"></path>
  <path d="M948.645920 249.361023C948.645920 224.385361,938.722900 200.435623,921.063782 182.776505C903.404663 165.117386,879.454926 155.194366,854.479263 155.194366C829.503601 155.194366,805.553864 165.117386,787.894745 182.776505C770.235626 200.435623,760.312607 224.385361,760.312607 249.361023C760.312607 274.336685,770.235626 298.286423,787.894745 315.945541C805.553864 333.604660,829.503601 343.527679,854.479263 343.527679C879.454926 343.527679,903.404663 333.604660,921.063782 315.945541C938.722900 298.286423,948.645920 274.336685,948.645920 249.361023Z" style="stroke:rgb(25.500488%,41.000366%,88.400269%); stroke-width: 2.500000;stroke-linecap: round;stroke-linejoin: round;stroke-miterlimit: 10.000000;fill: none;"></path>
  <path d="M980.488968 94.687393C980.488968 69.711731,970.565948 45.761993,952.906830 28.102875C935.247711 10.443756,911.297974 0.520737,886.322311 0.520737C861.346649 0.520737,837.396912 10.443756,819.737793 28.102875C802.078674 45.761993,792.155655 69.711731,792.155655 94.687393C792.155655 119.663055,802.078674 143.612793,819.737793 161.271912C837.396912 178.931030,861.346649 188.854050,886.322311 188.854050C911.297974 188.854050,935.247711 178.931030,952.906830 161.271912C970.565948 143.612793,980.488968 119.663055,980.488968 94.687393Z" style="stroke:rgb(25.500488%,41.000366%,88.400269%); stroke-width: 2.500000;stroke-linecap: round;stroke-linejoin: round;stroke-miterlimit: 10.000000;fill: none;"></path>
  <path d="M522.904160 1207.416214C522.904160 1182.440552,512.981140 1158.490814,495.322021 1140.831696C477.662903 1123.172577,453.713165 1113.249557,428.737503 1113.249557C403.761841 1113.249557,379.812103 1123.172577,362.152985 1140.831696C344.493866 1158.490814,334.570847 1182.440552,334.570847 1207.416214C334.570847 1232.391876,344.493866 1256.341614,362.152985 1274.000732C379.812103 1291.659851,403.761841 1301.582870,428.737503 1301.582870C453.713165 1301.582870,477.662903 1291.659851,495.322021 1274.000732C512.981140 1256.341614,522.904160 1232.391876,522.904160 1207.416214Z" style="stroke:rgb(25.500488%,41.000366%,88.400269%); stroke-width: 2.500000;stroke-linecap: round;stroke-linejoin: round;stroke-miterlimit: 10.000000;fill: none;"></path>
  <path d="M578.921448 1058.153564C578.921448 1033.177902,568.998428 1009.228165,551.339310 991.569046C533.680191 973.909927,509.730453 963.986908,484.754791 963.986908C459.779129 963.986908,435.829391 973.909927,418.170273 991.569046C400.511154 1009.228165,390.588135 1033.177902,390.588135 1058.153564C390.588135 1083.129227,400.511154 1107.078964,418.170273 1124.738083C435.829391 1142.397202,459.779129 1152.320221,484.754791 1152.320221C509.730453 1152.320221,533.680191 1142.397202,551.339310 1124.738083C568.998428 1107.078964,578.921448 1083.129227,578.921448 1058.153564Z" style="stroke:rgb(25.500488%,41.000366%,88.400269%); stroke-width: 2.500000;stroke-linecap: round;stroke-linejoin: round;stroke-miterlimit: 10.000000;fill: none;"></path>
  <path d="M620.496475 895.953873C620.496475 870.978210,610.573456 847.028473,592.914337 829.369354C575.255219 811.710236,551.305481 801.787216,526.329819 801.787216C501.354156 801.787216,477.404419 811.710236,459.745300 829.369354C442.086182 847.028473,432.163162 870.978210,432.163162 895.953873C432.163162 920.929535,442.086182 944.879272,459.745300 962.538391C477.404419 980.197510,501.354156 990.120529,526.329819 990.120529C551.305481 990.120529,575.255219 980.197510,592.914337 962.538391C610.573456 944.879272,620.496475 920.929535,620.496475 895.953873Z" style="stroke:rgb(25.500488%,41.000366%,88.400269%); stroke-width: 2.500000;stroke-linecap: round;stroke-linejoin: round;stroke-miterlimit: 10.000000;fill: none;"></path>
  <path d="M675.332947 747.119446C675.332947 722.143784,665.409927 698.194046,647.750809 680.534927C630.091690 662.875809,606.141953 652.952789,581.166290 652.952789C556.190628 652.952789,532.240891 662.875809,514.581772 680.534927C496.922653 698.194046,486.999634 722.143784,486.999634 747.119446C486.999634 772.095108,496.922653 796.044846,514.581772 813.703964C532.240891 831.363083,556.190628 841.286102,581.166290 841.286102C606.141953 841.286102,630.091690 831.363083,647.750809 813.703964C665.409927 796.044846,675.332947 772.095108,675.332947 747.119446Z" style="stroke:rgb(25.500488%,41.000366%,88.400269%); stroke-width: 2.500000;stroke-linecap: round;stroke-linejoin: round;stroke-miterlimit: 10.000000;fill: none;"></path>
  <path d="M712.054962 586.334122C712.054962 561.358459,702.131943 537.408722,684.472824 519.749603C666.813705 502.090485,642.863968 492.167465,617.888306 492.167465C592.912643 492.167465,568.962906 502.090485,551.303787 519.749603C533.644669 537.408722,523.721649 561.358459,523.721649 586.334122C523.721649 611.309784,533.644669 635.259521,551.303787 652.918640C568.962906 670.577759,592.912643 680.500778,617.888306 680.500778C642.863968 680.500778,666.813705 670.577759,684.472824 652.918640C702.131943 635.259521,712.054962 611.309784,712.054962 586.334122Z" style="stroke:rgb(25.500488%,41.000366%,88.400269%); stroke-width: 2.500000;stroke-linecap: round;stroke-linejoin: round;stroke-miterlimit: 10.000000;fill: none;"></path>
  <path d="M764.776352 443.390778C764.776352 418.415115,754.853333 394.465378,737.194214 376.806259C719.535095 359.147141,695.585358 349.224121,670.609695 349.224121C645.634033 349.224121,621.684296 359.147141,604.025177 376.806259C586.366058 394.465378,576.443039 418.415115,576.443039 443.390778C576.443039 468.366440,586.366058 492.316177,604.025177 509.975296C621.684296 527.634415,645.634033 537.557434,670.609695 537.557434C695.585358 537.557434,719.535095 527.634415,737.194214 509.975296C754.853333 492.316177,764.776352 468.366440,764.776352 443.390778Z" style="stroke:rgb(25.500488%,41.000366%,88.400269%); stroke-width: 2.500000;stroke-linecap: round;stroke-linejoin: round;stroke-miterlimit: 10.000000;fill: none;"></path>
  <path d="M790.922943 283.176422C790.922943 258.200760,780.999924 234.251022,763.340805 216.591904C745.681686 198.932785,721.731949 189.009766,696.756287 189.009766C671.780624 189.009766,647.830887 198.932785,630.171768 216.591904C612.512650 234.251022,602.589630 258.200760,602.589630 283.176422C602.589630 308.152084,612.512650 332.101822,630.171768 349.760941C647.830887 367.420059,671.780624 377.343079,696.756287 377.343079C721.731949 377.343079,745.681686 367.420059,763.340805 349.760941C780.999924 332.101822,790.922943 308.152084,790.922943 283.176422Z" style="stroke:rgb(25.500488%,41.000366%,88.400269%); stroke-width: 2.500000;stroke-linecap: round;stroke-linejoin: round;stroke-miterlimit: 10.000000;fill: none;"></path>
  <path d="M827.969345 130.046936C827.969345 105.071274,818.046326 81.121536,800.387207 63.462418C782.728088 45.803299,758.778351 35.880280,733.802689 35.880280C708.827026 35.880280,684.877289 45.803299,667.218170 63.462418C649.559052 81.121536,639.636032 105.071274,639.636032 130.046936C639.636032 155.022598,649.559052 178.972336,667.218170 196.631454C684.877289 214.290573,708.827026 224.213593,733.802689 224.213593C758.778351 224.213593,782.728088 214.290573,800.387207 196.631454C818.046326 178.972336,827.969345 155.022598,827.969345 130.046936Z" style="stroke:rgb(25.500488%,41.000366%,88.400269%); stroke-width: 2.500000;stroke-linecap: round;stroke-linejoin: round;stroke-miterlimit: 10.000000;fill: none;"></path>
  <path d="M411.336731 1098.236359C411.336731 1073.260696,401.413712 1049.310959,383.754593 1031.651840C366.095474 1013.992722,342.145737 1004.069702,317.170074 1004.069702C292.194412 1004.069702,268.244675 1013.992722,250.585556 1031.651840C232.926437 1049.310959,223.003418 1073.260696,223.003418 1098.236359C223.003418 1123.212021,232.926437 1147.161758,250.585556 1164.820877C268.244675 1182.479996,292.194412 1192.403015,317.170074 1192.403015C342.145737 1192.403015,366.095474 1182.479996,383.754593 1164.820877C401.413712 1147.161758,411.336731 1123.212021,411.336731 1098.236359Z" style="stroke:rgb(25.500488%,41.000366%,88.400269%); stroke-width: 2.500000;stroke-linecap: round;stroke-linejoin: round;stroke-miterlimit: 10.000000;fill: none;"></path>
  <path d="M467.522705 948.947769C467.522705 923.972107,457.599686 900.022369,439.940567 882.363251C422.281448 864.704132,398.331711 854.781113,373.356049 854.781113C348.380386 854.781113,324.430649 864.704132,306.771530 882.363251C289.112411 900.022369,279.189392 923.972107,279.189392 948.947769C279.189392 973.923431,289.112411 997.873169,306.771530 1015.532288C324.430649 1033.191406,348.380386 1043.114426,373.356049 1043.114426C398.331711 1043.114426,422.281448 1033.191406,439.940567 1015.532288C457.599686 997.873169,467.522705 973.923431,467.522705 948.947769Z" style="stroke:rgb(25.500488%,41.000366%,88.400269%); stroke-width: 2.500000;stroke-linecap: round;stroke-linejoin: round;stroke-miterlimit: 10.000000;fill: none;"></path>
  <path d="M508.033691 784.996307C508.033691 760.020645,498.110672 736.070908,480.451553 718.411789C462.792435 700.752670,438.842697 690.829651,413.867035 690.829651C388.891373 690.829651,364.941635 700.752670,347.282516 718.411789C329.623398 736.070908,319.700378 760.020645,319.700378 784.996307C319.700378 809.971970,329.623398 833.921707,347.282516 851.580826C364.941635 869.239944,388.891373 879.162964,413.867035 879.162964C438.842697 879.162964,462.792435 869.239944,480.451553 851.580826C498.110672 833.921707,508.033691 809.971970,508.033691 784.996307Z" style="stroke:rgb(25.500488%,41.000366%,88.400269%); stroke-width: 2.500000;stroke-linecap: round;stroke-linejoin: round;stroke-miterlimit: 10.000000;fill: none;"></path>
  <path d="M560.651276 636.680908C560.651276 611.705246,550.728256 587.755508,533.069138 570.096390C515.410019 552.437271,491.460281 542.514252,466.484619 542.514252C441.508957 542.514252,417.559219 552.437271,399.900101 570.096390C382.240982 587.755508,372.317963 611.705246,372.317963 636.680908C372.317963 661.656570,382.240982 685.606308,399.900101 703.265427C417.559219 720.924545,441.508957 730.847565,466.484619 730.847565C491.460281 730.847565,515.410019 720.924545,533.069138 703.265427C550.728256 685.606308,560.651276 661.656570,560.651276 636.680908Z" style="stroke:rgb(25.500488%,41.000366%,88.400269%); stroke-width: 2.500000;stroke-linecap: round;stroke-linejoin: round;stroke-miterlimit: 10.000000;fill: none;"></path>
  <path d="M594.985703 473.391235C594.985703 448.415573,585.062683 424.465836,567.403564 406.806717C549.744446 389.147598,525.794708 379.224579,500.819046 379.224579C475.843384 379.224579,451.893646 389.147598,434.234528 406.806717C416.575409 424.465836,406.652390 448.415573,406.652390 473.391235C406.652390 498.366898,416.575409 522.316635,434.234528 539.975754C451.893646 557.634872,475.843384 567.557892,500.819046 567.557892C525.794708 567.557892,549.744446 557.634872,567.403564 539.975754C585.062683 522.316635,594.985703 498.366898,594.985703 473.391235Z" style="stroke:rgb(25.500488%,41.000366%,88.400269%); stroke-width: 2.500000;stroke-linecap: round;stroke-linejoin: round;stroke-miterlimit: 10.000000;fill: none;"></path>
  <path d="M649.913010 329.850998C649.913010 304.875336,639.989990 280.925598,622.330872 263.266479C604.671753 245.607361,580.722015 235.684341,555.746353 235.684341C530.770691 235.684341,506.820953 245.607361,489.161835 263.266479C471.502716 280.925598,461.579697 304.875336,461.579697 329.850998C461.579697 354.826660,471.502716 378.776398,489.161835 396.435516C506.820953 414.094635,530.770691 424.017654,555.746353 424.017654C580.722015 424.017654,604.671753 414.094635,622.330872 396.435516C639.989990 378.776398,649.913010 354.826660,649.913010 329.850998Z" style="stroke:rgb(25.500488%,41.000366%,88.400269%); stroke-width: 2.500000;stroke-linecap: round;stroke-linejoin: round;stroke-miterlimit: 10.000000;fill: none;"></path>
  <path d="M300.327255 987.032257C300.327255 962.056595,290.404236 938.106857,272.745117 920.447739C255.085999 902.788620,231.136261 892.865601,206.160599 892.865601C181.184937 892.865601,157.235199 902.788620,139.576080 920.447739C121.916962 938.106857,111.993942 962.056595,111.993942 987.032257C111.993942 1012.007919,121.916962 1035.957657,139.576080 1053.616776C157.235199 1071.275894,181.184937 1081.198914,206.160599 1081.198914C231.136261 1081.198914,255.085999 1071.275894,272.745117 1053.616776C290.404236 1035.957657,300.327255 1012.007919,300.327255 987.032257Z" style="stroke:rgb(25.500488%,41.000366%,88.400269%); stroke-width: 2.500000;stroke-linecap: round;stroke-linejoin: round;stroke-miterlimit: 10.000000;fill: none;"></path>
  <path d="M356.227768 837.795563C356.227768 812.819901,346.304749 788.870163,328.645630 771.211044C310.986511 753.551926,287.036774 743.628906,262.061111 743.628906C237.085449 743.628906,213.135712 753.551926,195.476593 771.211044C177.817474 788.870163,167.894455 812.819901,167.894455 837.795563C167.894455 862.771225,177.817474 886.720963,195.476593 904.380081C213.135712 922.039200,237.085449 931.962219,262.061111 931.962219C287.036774 931.962219,310.986511 922.039200,328.645630 904.380081C346.304749 886.720963,356.227768 862.771225,356.227768 837.795563Z" style="stroke:rgb(25.500488%,41.000366%,88.400269%); stroke-width: 2.500000;stroke-linecap: round;stroke-linejoin: round;stroke-miterlimit: 10.000000;fill: none;"></path>
  <path d="M393.559647 673.558640C393.559647 648.582977,383.636627 624.633240,365.977509 606.974121C348.318390 589.315002,324.368652 579.391983,299.392990 579.391983C274.417328 579.391983,250.467590 589.315002,232.808472 606.974121C215.149353 624.633240,205.226334 648.582977,205.226334 673.558640C205.226334 698.534302,215.149353 722.484039,232.808472 740.143158C250.467590 757.802277,274.417328 767.725296,299.392990 767.725296C324.368652 767.725296,348.318390 757.802277,365.977509 740.143158C383.636627 722.484039,393.559647 698.534302,393.559647 673.558640Z" style="stroke:rgb(25.500488%,41.000366%,88.400269%); stroke-width: 2.500000;stroke-linecap: round;stroke-linejoin: round;stroke-miterlimit: 10.000000;fill: none;"></path>
  <path d="M446.916855 525.074554C446.916855 500.098892,436.993835 476.149155,419.334717 458.490036C401.675598 440.830917,377.725861 430.907898,352.750198 430.907898C327.774536 430.907898,303.824799 440.830917,286.165680 458.490036C268.506561 476.149155,258.583542 500.098892,258.583542 525.074554C258.583542 550.050217,268.506561 573.999954,286.165680 591.659073C303.824799 609.318192,327.774536 619.241211,352.750198 619.241211C377.725861 619.241211,401.675598 609.318192,419.334717 591.659073C436.993835 573.999954,446.916855 550.050217,446.916855 525.074554Z" style="stroke:rgb(25.500488%,41.000366%,88.400269%); stroke-width: 2.500000;stroke-linecap: round;stroke-linejoin: round;stroke-miterlimit: 10.000000;fill: none;"></path>
  <path d="M189.006363 876.035751C189.006363 851.060089,179.083344 827.110352,161.424225 809.451233C143.765106 791.792114,119.815369 781.869095,94.839706 781.869095C69.864044 781.869095,45.914307 791.792114,28.255188 809.451233C10.596069 827.110352,0.673050 851.060089,0.673050 876.035751C0.673050 901.011414,10.596069 924.961151,28.255188 942.620270C45.914307 960.279388,69.864044 970.202408,94.839706 970.202408C119.815369 970.202408,143.765106 960.279388,161.424225 942.620270C179.083344 924.961151,189.006363 901.011414,189.006363 876.035751Z" style="stroke:rgb(25.500488%,41.000366%,88.400269%); stroke-width: 2.500000;stroke-linecap: round;stroke-linejoin: round;stroke-miterlimit: 10.000000;fill: none;"></path>
  <path d="M244.919846 726.799057C244.919846 701.823395,234.996826 677.873657,217.337708 660.214539C199.678589 642.555420,175.728851 632.632401,150.753189 632.632401C125.777527 632.632401,101.827789 642.555420,84.168671 660.214539C66.509552 677.873657,56.586533 701.823395,56.586533 726.799057C56.586533 751.774719,66.509552 775.724457,84.168671 793.383575C101.827789 811.042694,125.777527 820.965714,150.753189 820.965714C175.728851 820.965714,199.678589 811.042694,217.337708 793.383575C234.996826 775.724457,244.919846 751.774719,244.919846 726.799057Z" style="stroke:rgb(25.500488%,41.000366%,88.400269%); stroke-width: 2.500000;stroke-linecap: round;stroke-linejoin: round;stroke-miterlimit: 10.000000;fill: none;"></path>
</svg>
