<?xml version="1.0"?>
<!-- Created by MetaPost 2.00 on 2022.03.02:1201 -->
<svg version="1.1" xmlns="http://www.w3.org/2000/svg" xmlns:xlink="http://www.w3.org/1999/xlink" width="1498.915436" height="1312.489594" viewBox="0 0 1498.915436 1312.489594">
<!-- Original BoundingBox: -751.326263 -460.846069 747.589172 851.643524 -->
  <path d="M751.000000 0.606476L14.535538 1276.196762L1487.464462 1276.196762L751.000000 0.606476Z" style="fill: rgb(100.000000%,100.000000%,100.000000%);stroke: none;"></path>
  <path d="M751.000000 0.606476L14.535538 1276.196762" style="stroke:rgb(0.000000%,0.000000%,0.000000%); stroke-width: 2.500000;stroke-linecap: round;stroke-linejoin: round;stroke-miterlimit: 10.000000;fill: none;"></path>
  <path d="M14.535538 1276.196762L1487.464462 1276.196762" style="stroke:rgb(0.000000%,0.000000%,0.000000%); stroke-width: 2.500000;stroke-linecap: round;stroke-linejoin: round;stroke-miterlimit: 10.000000;fill: none;"></path>
  <path d="M1487.464462 1276.196762L751.000000 0.606476" style="stroke:rgb(0.000000%,0.000000%,0.000000%); stroke-width: 2.500000;stroke-linecap: round;stroke-linejoin: round;stroke-miterlimit: 10.000000;fill: none;"></path>
  <path d="M1497.339172 1240.227356C1497.339172 1221.563583,1489.923920 1203.666458,1476.727631 1190.470184C1463.531357 1177.273895,1445.634232 1169.858643,1426.970459 1169.858643C1408.306686 1169.858643,1390.409561 1177.273895,1377.213287 1190.470184C1364.016998 1203.666458,1356.601746 1221.563583,1356.601746 1240.227356C1356.601746 1258.891129,1364.016998 1276.788254,1377.213287 1289.984528C1390.409561 1303.180817,1408.306686 1310.596069,1426.970459 1310.596069C1445.634232 1310.596069,1463.531357 1303.180817,1476.727631 1289.984528C1489.923920 1276.788254,1497.339172 1258.891129,1497.339172 1240.227356Z" style="stroke:rgb(25.500488%,41.000366%,88.400269%); stroke-width: 2.500000;stroke-linecap: round;stroke-linejoin: round;stroke-miterlimit: 10.000000;fill: none;"></path>
  <path d="M1376.714508 1239.669388C1376.714508 1221.005615,1369.299255 1203.108490,1356.102966 1189.912216C1342.906693 1176.715927,1325.009567 1169.300674,1306.345795 1169.300674C1287.682022 1169.300674,1269.784897 1176.715927,1256.588623 1189.912216C1243.392334 1203.108490,1235.977081 1221.005615,1235.977081 1239.669388C1235.977081 1258.333160,1243.392334 1276.230286,1256.588623 1289.426559C1269.784897 1302.622849,1287.682022 1310.038101,1306.345795 1310.038101C1325.009567 1310.038101,1342.906693 1302.622849,1356.102966 1289.426559C1369.299255 1276.230286,1376.714508 1258.333160,1376.714508 1239.669388Z" style="stroke:rgb(25.500488%,41.000366%,88.400269%); stroke-width: 2.500000;stroke-linecap: round;stroke-linejoin: round;stroke-miterlimit: 10.000000;fill: none;"></path>
  <path d="M1436.274231 1133.357224C1436.274231 1114.693451,1428.858978 1096.796326,1415.662689 1083.600052C1402.466415 1070.403763,1384.569290 1062.988510,1365.905518 1062.988510C1347.241745 1062.988510,1329.344620 1070.403763,1316.148346 1083.600052C1302.952057 1096.796326,1295.536804 1114.693451,1295.536804 1133.357224C1295.536804 1152.020996,1302.952057 1169.918121,1316.148346 1183.114395C1329.344620 1196.310684,1347.241745 1203.725937,1365.905518 1203.725937C1384.569290 1203.725937,1402.466415 1196.310684,1415.662689 1183.114395C1428.858978 1169.918121,1436.274231 1152.020996,1436.274231 1133.357224Z" style="stroke:rgb(25.500488%,41.000366%,88.400269%); stroke-width: 2.500000;stroke-linecap: round;stroke-linejoin: round;stroke-miterlimit: 10.000000;fill: none;"></path>
  <path d="M1256.686737 1239.241180C1256.686737 1220.577408,1249.271484 1202.680283,1236.075195 1189.484009C1222.878922 1176.287720,1204.981796 1168.872467,1186.318024 1168.872467C1167.654251 1168.872467,1149.757126 1176.287720,1136.560852 1189.484009C1123.364563 1202.680283,1115.949310 1220.577408,1115.949310 1239.241180C1115.949310 1257.904953,1123.364563 1275.802078,1136.560852 1288.998352C1149.757126 1302.194641,1167.654251 1309.609894,1186.318024 1309.609894C1204.981796 1309.609894,1222.878922 1302.194641,1236.075195 1288.998352C1249.271484 1275.802078,1256.686737 1257.904953,1256.686737 1239.241180Z" style="stroke:rgb(25.500488%,41.000366%,88.400269%); stroke-width: 2.500000;stroke-linecap: round;stroke-linejoin: round;stroke-miterlimit: 10.000000;fill: none;"></path>
  <path d="M1315.896118 1132.371048C1315.896118 1113.707275,1308.480865 1095.810150,1295.284576 1082.613876C1282.088303 1069.417587,1264.191177 1062.002335,1245.527405 1062.002335C1226.863632 1062.002335,1208.966507 1069.417587,1195.770233 1082.613876C1182.573944 1095.810150,1175.158691 1113.707275,1175.158691 1132.371048C1175.158691 1151.034821,1182.573944 1168.931946,1195.770233 1182.128220C1208.966507 1195.324509,1226.863632 1202.739761,1245.527405 1202.739761C1264.191177 1202.739761,1282.088303 1195.324509,1295.284576 1182.128220C1308.480865 1168.931946,1315.896118 1151.034821,1315.896118 1132.371048Z" style="stroke:rgb(25.500488%,41.000366%,88.400269%); stroke-width: 2.500000;stroke-linecap: round;stroke-linejoin: round;stroke-miterlimit: 10.000000;fill: none;"></path>
  <path d="M1374.845963 1026.071854C1374.845963 1007.408081,1367.430710 989.510956,1354.234421 976.314682C1341.038147 963.118393,1323.141022 955.703140,1304.477249 955.703140C1285.813477 955.703140,1267.916351 963.118393,1254.720078 976.314682C1241.523788 989.510956,1234.108536 1007.408081,1234.108536 1026.071854C1234.108536 1044.735626,1241.523788 1062.632751,1254.720078 1075.829025C1267.916351 1089.025314,1285.813477 1096.440567,1304.477249 1096.440567C1323.141022 1096.440567,1341.038147 1089.025314,1354.234421 1075.829025C1367.430710 1062.632751,1374.845963 1044.735626,1374.845963 1026.071854Z" style="stroke:rgb(25.500488%,41.000366%,88.400269%); stroke-width: 2.500000;stroke-linecap: round;stroke-linejoin: round;stroke-miterlimit: 10.000000;fill: none;"></path>
  <path d="M1137.139069 1238.877853C1137.139069 1220.214081,1129.723816 1202.316956,1116.527527 1189.120682C1103.331253 1175.924393,1085.434128 1168.509140,1066.770355 1168.509140C1048.106583 1168.509140,1030.209457 1175.924393,1017.013184 1189.120682C1003.816895 1202.316956,996.401642 1220.214081,996.401642 1238.877853C996.401642 1257.541626,1003.816895 1275.438751,1017.013184 1288.635025C1030.209457 1301.831314,1048.106583 1309.246567,1066.770355 1309.246567C1085.434128 1309.246567,1103.331253 1301.831314,1116.527527 1288.635025C1129.723816 1275.438751,1137.139069 1257.541626,1137.139069 1238.877853Z" style="stroke:rgb(25.500488%,41.000366%,88.400269%); stroke-width: 2.500000;stroke-linecap: round;stroke-linejoin: round;stroke-miterlimit: 10.000000;fill: none;"></path>
  <path d="M1196.075958 1131.566544C1196.075958 1112.902771,1188.660706 1095.005646,1175.464417 1081.809372C1162.268143 1068.613083,1144.371017 1061.197830,1125.707245 1061.197830C1107.043472 1061.197830,1089.146347 1068.613083,1075.950073 1081.809372C1062.753784 1095.005646,1055.338531 1112.902771,1055.338531 1131.566544C1055.338531 1150.230316,1062.753784 1168.127441,1075.950073 1181.323715C1089.146347 1194.520004,1107.043472 1201.935257,1125.707245 1201.935257C1144.371017 1201.935257,1162.268143 1194.520004,1175.464417 1181.323715C1188.660706 1168.127441,1196.075958 1150.230316,1196.075958 1131.566544Z" style="stroke:rgb(25.500488%,41.000366%,88.400269%); stroke-width: 2.500000;stroke-linecap: round;stroke-linejoin: round;stroke-miterlimit: 10.000000;fill: none;"></path>
  <path d="M1254.675461 1024.722366C1254.675461 1006.058594,1247.260208 988.161469,1234.063919 974.965195C1220.867645 961.768906,1202.970520 954.353653,1184.306747 954.353653C1165.642975 954.353653,1147.745850 961.768906,1134.549576 974.965195C1121.353287 988.161469,1113.938034 1006.058594,1113.938034 1024.722366C1113.938034 1043.386139,1121.353287 1061.283264,1134.549576 1074.479538C1147.745850 1087.675827,1165.642975 1095.091080,1184.306747 1095.091080C1202.970520 1095.091080,1220.867645 1087.675827,1234.063919 1074.479538C1247.260208 1061.283264,1254.675461 1043.386139,1254.675461 1024.722366Z" style="stroke:rgb(25.500488%,41.000366%,88.400269%); stroke-width: 2.500000;stroke-linecap: round;stroke-linejoin: round;stroke-miterlimit: 10.000000;fill: none;"></path>
  <path d="M1313.119247 918.449127C1313.119247 899.785355,1305.703995 881.888229,1292.507706 868.691956C1279.311432 855.495667,1261.414307 848.080414,1242.750534 848.080414C1224.086761 848.080414,1206.189636 855.495667,1192.993362 868.691956C1179.797073 881.888229,1172.381821 899.785355,1172.381821 918.449127C1172.381821 937.112900,1179.797073 955.010025,1192.993362 968.206299C1206.189636 981.402588,1224.086761 988.817841,1242.750534 988.817841C1261.414307 988.817841,1279.311432 981.402588,1292.507706 968.206299C1305.703995 955.010025,1313.119247 937.112900,1313.119247 918.449127Z" style="stroke:rgb(25.500488%,41.000366%,88.400269%); stroke-width: 2.500000;stroke-linecap: round;stroke-linejoin: round;stroke-miterlimit: 10.000000;fill: none;"></path>
  <path d="M1018.058548 1238.501556C1018.058548 1219.837784,1010.643295 1201.940659,997.447006 1188.744385C984.250732 1175.548096,966.353607 1168.132843,947.689835 1168.132843C929.026062 1168.132843,911.128937 1175.548096,897.932663 1188.744385C884.736374 1201.940659,877.321121 1219.837784,877.321121 1238.501556C877.321121 1257.165329,884.736374 1275.062454,897.932663 1288.258728C911.128937 1301.455017,929.026062 1308.870270,947.689835 1308.870270C966.353607 1308.870270,984.250732 1301.455017,997.447006 1288.258728C1010.643295 1275.062454,1018.058548 1257.165329,1018.058548 1238.501556Z" style="stroke:rgb(25.500488%,41.000366%,88.400269%); stroke-width: 2.500000;stroke-linecap: round;stroke-linejoin: round;stroke-miterlimit: 10.000000;fill: none;"></path>
  <path d="M1076.567215 1131.125351C1076.567215 1112.461578,1069.151962 1094.564453,1055.955673 1081.368179C1042.759399 1068.171890,1024.862274 1060.756638,1006.198502 1060.756638C987.534729 1060.756638,969.637604 1068.171890,956.441330 1081.368179C943.245041 1094.564453,935.829788 1112.461578,935.829788 1131.125351C935.829788 1149.789124,943.245041 1167.686249,956.441330 1180.882523C969.637604 1194.078812,987.534729 1201.494064,1006.198502 1201.494064C1024.862274 1201.494064,1042.759399 1194.078812,1055.955673 1180.882523C1069.151962 1167.686249,1076.567215 1149.789124,1076.567215 1131.125351Z" style="stroke:rgb(25.500488%,41.000366%,88.400269%); stroke-width: 2.500000;stroke-linecap: round;stroke-linejoin: round;stroke-miterlimit: 10.000000;fill: none;"></path>
  <path d="M1134.621735 1024.268204C1134.621735 1005.604431,1127.206482 987.707306,1114.010193 974.511032C1100.813919 961.314743,1082.916794 953.899490,1064.253021 953.899490C1045.589249 953.899490,1027.692123 961.314743,1014.495850 974.511032C1001.299561 987.707306,993.884308 1005.604431,993.884308 1024.268204C993.884308 1042.931976,1001.299561 1060.829102,1014.495850 1074.025375C1027.692123 1087.221664,1045.589249 1094.636917,1064.253021 1094.636917C1082.916794 1094.636917,1100.813919 1087.221664,1114.010193 1074.025375C1127.206482 1060.829102,1134.621735 1042.931976,1134.621735 1024.268204Z" style="stroke:rgb(25.500488%,41.000366%,88.400269%); stroke-width: 2.500000;stroke-linecap: round;stroke-linejoin: round;stroke-miterlimit: 10.000000;fill: none;"></path>
  <path d="M1192.728149 917.449966C1192.728149 898.786194,1185.312897 880.889069,1172.116608 867.692795C1158.920334 854.496506,1141.023209 847.081253,1122.359436 847.081253C1103.695663 847.081253,1085.798538 854.496506,1072.602264 867.692795C1059.405975 880.889069,1051.990723 898.786194,1051.990723 917.449966C1051.990723 936.113739,1059.405975 954.010864,1072.602264 967.207138C1085.798538 980.403427,1103.695663 987.818680,1122.359436 987.818680C1141.023209 987.818680,1158.920334 980.403427,1172.116608 967.207138C1185.312897 954.010864,1192.728149 936.113739,1192.728149 917.449966Z" style="stroke:rgb(25.500488%,41.000366%,88.400269%); stroke-width: 2.500000;stroke-linecap: round;stroke-linejoin: round;stroke-miterlimit: 10.000000;fill: none;"></path>
  <path d="M1250.665878 811.371368C1250.665878 792.707596,1243.250626 774.810471,1230.054337 761.614197C1216.858063 748.417908,1198.960938 741.002655,1180.297165 741.002655C1161.633392 741.002655,1143.736267 748.417908,1130.539993 761.614197C1117.343704 774.810471,1109.928452 792.707596,1109.928452 811.371368C1109.928452 830.035141,1117.343704 847.932266,1130.539993 861.128540C1143.736267 874.324829,1161.633392 881.740082,1180.297165 881.740082C1198.960938 881.740082,1216.858063 874.324829,1230.054337 861.128540C1243.250626 847.932266,1250.665878 830.035141,1250.665878 811.371368Z" style="stroke:rgb(25.500488%,41.000366%,88.400269%); stroke-width: 2.500000;stroke-linecap: round;stroke-linejoin: round;stroke-miterlimit: 10.000000;fill: none;"></path>
  <path d="M899.899323 1237.437531C899.899323 1218.773758,892.484070 1200.876633,879.287781 1187.680359C866.091507 1174.484070,848.194382 1167.068817,829.530609 1167.068817C810.866837 1167.068817,792.969711 1174.484070,779.773438 1187.680359C766.577148 1200.876633,759.161896 1218.773758,759.161896 1237.437531C759.161896 1256.101303,766.577148 1273.998428,779.773438 1287.194702C792.969711 1300.390991,810.866837 1307.806244,829.530609 1307.806244C848.194382 1307.806244,866.091507 1300.390991,879.287781 1287.194702C892.484070 1273.998428,899.899323 1256.101303,899.899323 1237.437531Z" style="stroke:rgb(25.500488%,41.000366%,88.400269%); stroke-width: 2.500000;stroke-linecap: round;stroke-linejoin: round;stroke-miterlimit: 10.000000;fill: none;"></path>
  <path d="M957.681335 1129.853714C957.681335 1111.189941,950.266083 1093.292816,937.069794 1080.096542C923.873520 1066.900253,905.976395 1059.485001,887.312622 1059.485001C868.648849 1059.485001,850.751724 1066.900253,837.555450 1080.096542C824.359161 1093.292816,816.943909 1111.189941,816.943909 1129.853714C816.943909 1148.517487,824.359161 1166.414612,837.555450 1179.610886C850.751724 1192.807175,868.648849 1200.222427,887.312622 1200.222427C905.976395 1200.222427,923.873520 1192.807175,937.069794 1179.610886C950.266083 1166.414612,957.681335 1148.517487,957.681335 1129.853714Z" style="stroke:rgb(25.500488%,41.000366%,88.400269%); stroke-width: 2.500000;stroke-linecap: round;stroke-linejoin: round;stroke-miterlimit: 10.000000;fill: none;"></path>
  <path d="M1014.801575 1023.489639C1014.801575 1004.825867,1007.386322 986.928741,994.190033 973.732468C980.993759 960.536179,963.096634 953.120926,944.432861 953.120926C925.769089 953.120926,907.871964 960.536179,894.675690 973.732468C881.479401 986.928741,874.064148 1004.825867,874.064148 1023.489639C874.064148 1042.153412,881.479401 1060.050537,894.675690 1073.246811C907.871964 1086.443100,925.769089 1093.858353,944.432861 1093.858353C963.096634 1093.858353,980.993759 1086.443100,994.190033 1073.246811C1007.386322 1060.050537,1014.801575 1042.153412,1014.801575 1023.489639Z" style="stroke:rgb(25.500488%,41.000366%,88.400269%); stroke-width: 2.500000;stroke-linecap: round;stroke-linejoin: round;stroke-miterlimit: 10.000000;fill: none;"></path>
  <path d="M1072.661453 916.982834C1072.661453 898.319061,1065.246201 880.421936,1052.049911 867.225662C1038.853638 854.029373,1020.956512 846.614120,1002.292740 846.614120C983.628967 846.614120,965.731842 854.029373,952.535568 867.225662C939.339279 880.421936,931.924026 898.319061,931.924026 916.982834C931.924026 935.646606,939.339279 953.543732,952.535568 966.740005C965.731842 979.936295,983.628967 987.351547,1002.292740 987.351547C1020.956512 987.351547,1038.853638 979.936295,1052.049911 966.740005C1065.246201 953.543732,1072.661453 935.646606,1072.661453 916.982834Z" style="stroke:rgb(25.500488%,41.000366%,88.400269%); stroke-width: 2.500000;stroke-linecap: round;stroke-linejoin: round;stroke-miterlimit: 10.000000;fill: none;"></path>
  <path d="M1130.170975 810.190552C1130.170975 791.526779,1122.755722 773.629654,1109.559433 760.433380C1096.363159 747.237091,1078.466034 739.821838,1059.802261 739.821838C1041.138489 739.821838,1023.241364 747.237091,1010.045090 760.433380C996.848801 773.629654,989.433548 791.526779,989.433548 810.190552C989.433548 828.854324,996.848801 846.751450,1010.045090 859.947723C1023.241364 873.144012,1041.138489 880.559265,1059.802261 880.559265C1078.466034 880.559265,1096.363159 873.144012,1109.559433 859.947723C1122.755722 846.751450,1130.170975 828.854324,1130.170975 810.190552Z" style="stroke:rgb(25.500488%,41.000366%,88.400269%); stroke-width: 2.500000;stroke-linecap: round;stroke-linejoin: round;stroke-miterlimit: 10.000000;fill: none;"></path>
  <path d="M1188.952148 704.098984C1188.952148 685.435211,1181.536896 667.538086,1168.340607 654.341812C1155.144333 641.145523,1137.247208 633.730270,1118.583435 633.730270C1099.919662 633.730270,1082.022537 641.145523,1068.826263 654.341812C1055.629974 667.538086,1048.214722 685.435211,1048.214722 704.098984C1048.214722 722.762756,1055.629974 740.659882,1068.826263 753.856155C1082.022537 767.052444,1099.919662 774.467697,1118.583435 774.467697C1137.247208 774.467697,1155.144333 767.052444,1168.340607 753.856155C1181.536896 740.659882,1188.952148 722.762756,1188.952148 704.098984Z" style="stroke:rgb(25.500488%,41.000366%,88.400269%); stroke-width: 2.500000;stroke-linecap: round;stroke-linejoin: round;stroke-miterlimit: 10.000000;fill: none;"></path>
  <path d="M783.881119 1235.335419C783.881119 1216.671646,776.465866 1198.774521,763.269577 1185.578247C750.073303 1172.381958,732.176178 1164.966705,713.512405 1164.966705C694.848633 1164.966705,676.951508 1172.381958,663.755234 1185.578247C650.558945 1198.774521,643.143692 1216.671646,643.143692 1235.335419C643.143692 1253.999191,650.558945 1271.896317,663.755234 1285.092590C676.951508 1298.288879,694.848633 1305.704132,713.512405 1305.704132C732.176178 1305.704132,750.073303 1298.288879,763.269577 1285.092590C776.465866 1271.896317,783.881119 1253.999191,783.881119 1235.335419Z" style="stroke:rgb(25.500488%,41.000366%,88.400269%); stroke-width: 2.500000;stroke-linecap: round;stroke-linejoin: round;stroke-miterlimit: 10.000000;fill: none;"></path>
  <path d="M840.106018 1127.050903C840.106018 1108.387131,832.690765 1090.490005,819.494476 1077.293732C806.298203 1064.097443,788.401077 1056.682190,769.737305 1056.682190C751.073532 1056.682190,733.176407 1064.097443,719.980133 1077.293732C706.783844 1090.490005,699.368591 1108.387131,699.368591 1127.050903C699.368591 1145.714676,706.783844 1163.611801,719.980133 1176.808075C733.176407 1190.004364,751.073532 1197.419617,769.737305 1197.419617C788.401077 1197.419617,806.298203 1190.004364,819.494476 1176.808075C832.690765 1163.611801,840.106018 1145.714676,840.106018 1127.050903Z" style="stroke:rgb(25.500488%,41.000366%,88.400269%); stroke-width: 2.500000;stroke-linecap: round;stroke-linejoin: round;stroke-miterlimit: 10.000000;fill: none;"></path>
  <path d="M894.760834 1022.205017C894.760834 1003.541245,887.345581 985.644119,874.149292 972.447845C860.953018 959.251556,843.055893 951.836304,824.392120 951.836304C805.728348 951.836304,787.831223 959.251556,774.634949 972.447845C761.438660 985.644119,754.023407 1003.541245,754.023407 1022.205017C754.023407 1040.868790,761.438660 1058.765915,774.634949 1071.962189C787.831223 1085.158478,805.728348 1092.573730,824.392120 1092.573730C843.055893 1092.573730,860.953018 1085.158478,874.149292 1071.962189C887.345581 1058.765915,894.760834 1040.868790,894.760834 1022.205017Z" style="stroke:rgb(25.500488%,41.000366%,88.400269%); stroke-width: 2.500000;stroke-linecap: round;stroke-linejoin: round;stroke-miterlimit: 10.000000;fill: none;"></path>
  <path d="M952.244400 916.541656C952.244400 897.877884,944.829147 879.980759,931.632858 866.784485C918.436584 853.588196,900.539459 846.172943,881.875687 846.172943C863.211914 846.172943,845.314789 853.588196,832.118515 866.784485C818.922226 879.980759,811.506973 897.877884,811.506973 916.541656C811.506973 935.205429,818.922226 953.102554,832.118515 966.298828C845.314789 979.495117,863.211914 986.910370,881.875687 986.910370C900.539459 986.910370,918.436584 979.495117,931.632858 966.298828C944.829147 953.102554,952.244400 935.205429,952.244400 916.541656Z" style="stroke:rgb(25.500488%,41.000366%,88.400269%); stroke-width: 2.500000;stroke-linecap: round;stroke-linejoin: round;stroke-miterlimit: 10.000000;fill: none;"></path>
  <path d="M1009.740952 810.307343C1009.740952 791.643570,1002.325699 773.746445,989.129410 760.550171C975.933136 747.353882,958.036011 739.938629,939.372238 739.938629C920.708466 739.938629,902.811340 747.353882,889.615067 760.550171C876.418777 773.746445,869.003525 791.643570,869.003525 810.307343C869.003525 828.971115,876.418777 846.868240,889.615067 860.064514C902.811340 873.260803,920.708466 880.676056,939.372238 880.676056C958.036011 880.676056,975.933136 873.260803,989.129410 860.064514C1002.325699 846.868240,1009.740952 828.971115,1009.740952 810.307343Z" style="stroke:rgb(25.500488%,41.000366%,88.400269%); stroke-width: 2.500000;stroke-linecap: round;stroke-linejoin: round;stroke-miterlimit: 10.000000;fill: none;"></path>
  <path d="M1068.080933 703.515060C1068.080933 684.851288,1060.665680 666.954163,1047.469391 653.757889C1034.273117 640.561600,1016.375992 633.146347,997.712219 633.146347C979.048447 633.146347,961.151321 640.561600,947.955048 653.757889C934.758759 666.954163,927.343506 684.851288,927.343506 703.515060C927.343506 722.178833,934.758759 740.075958,947.955048 753.272232C961.151321 766.468521,979.048447 773.883774,997.712219 773.883774C1016.375992 773.883774,1034.273117 766.468521,1047.469391 753.272232C1060.665680 740.075958,1068.080933 722.178833,1068.080933 703.515060Z" style="stroke:rgb(25.500488%,41.000366%,88.400269%); stroke-width: 2.500000;stroke-linecap: round;stroke-linejoin: round;stroke-miterlimit: 10.000000;fill: none;"></path>
  <path d="M1126.654480 597.436462C1126.654480 578.772690,1119.239227 560.875565,1106.042938 547.679291C1092.846664 534.483002,1074.949539 527.067749,1056.285767 527.067749C1037.621994 527.067749,1019.724869 534.483002,1006.528595 547.679291C993.332306 560.875565,985.917053 578.772690,985.917053 597.436462C985.917053 616.100235,993.332306 633.997360,1006.528595 647.193634C1019.724869 660.389923,1037.621994 667.805176,1056.285767 667.805176C1074.949539 667.805176,1092.846664 660.389923,1106.042938 647.193634C1119.239227 633.997360,1126.654480 616.100235,1126.654480 597.436462Z" style="stroke:rgb(25.500488%,41.000366%,88.400269%); stroke-width: 2.500000;stroke-linecap: round;stroke-linejoin: round;stroke-miterlimit: 10.000000;fill: none;"></path>
  <path d="M669.731461 1234.725540C669.731461 1216.061768,662.316208 1198.164642,649.119919 1184.968369C635.923645 1171.772079,618.026520 1164.356827,599.362747 1164.356827C580.698975 1164.356827,562.801849 1171.772079,549.605576 1184.968369C536.409286 1198.164642,528.994034 1216.061768,528.994034 1234.725540C528.994034 1253.389313,536.409286 1271.286438,549.605576 1284.482712C562.801849 1297.679001,580.698975 1305.094254,599.362747 1305.094254C618.026520 1305.094254,635.923645 1297.679001,649.119919 1284.482712C662.316208 1271.286438,669.731461 1253.389313,669.731461 1234.725540Z" style="stroke:rgb(25.500488%,41.000366%,88.400269%); stroke-width: 2.500000;stroke-linecap: round;stroke-linejoin: round;stroke-miterlimit: 10.000000;fill: none;"></path>
  <path d="M724.022949 1123.573334C724.022949 1104.909561,716.607697 1087.012436,703.411407 1073.816162C690.215134 1060.619873,672.318008 1053.204620,653.654236 1053.204620C634.990463 1053.204620,617.093338 1060.619873,603.897064 1073.816162C590.700775 1087.012436,583.285522 1104.909561,583.285522 1123.573334C583.285522 1142.237106,590.700775 1160.134232,603.897064 1173.330505C617.093338 1186.526794,634.990463 1193.942047,653.654236 1193.942047C672.318008 1193.942047,690.215134 1186.526794,703.411407 1173.330505C716.607697 1160.134232,724.022949 1142.237106,724.022949 1123.573334Z" style="stroke:rgb(25.500488%,41.000366%,88.400269%); stroke-width: 2.500000;stroke-linecap: round;stroke-linejoin: round;stroke-miterlimit: 10.000000;fill: none;"></path>
  <path d="M773.591171 1020.219696C773.591171 1001.555923,766.175919 983.658798,752.979630 970.462524C739.783356 957.266235,721.886230 949.850983,703.222458 949.850983C684.558685 949.850983,666.661560 957.266235,653.465286 970.462524C640.268997 983.658798,632.853745 1001.555923,632.853745 1020.219696C632.853745 1038.883469,640.268997 1056.780594,653.465286 1069.976868C666.661560 1083.173157,684.558685 1090.588409,703.222458 1090.588409C721.886230 1090.588409,739.783356 1083.173157,752.979630 1069.976868C766.175919 1056.780594,773.591171 1038.883469,773.591171 1020.219696Z" style="stroke:rgb(25.500488%,41.000366%,88.400269%); stroke-width: 2.500000;stroke-linecap: round;stroke-linejoin: round;stroke-miterlimit: 10.000000;fill: none;"></path>
  <path d="M831.386169 915.205124C831.386169 896.541351,823.970917 878.644226,810.774628 865.447952C797.578354 852.251663,779.681229 844.836411,761.017456 844.836411C742.353683 844.836411,724.456558 852.251663,711.260284 865.447952C698.063995 878.644226,690.648743 896.541351,690.648743 915.205124C690.648743 933.868896,698.063995 951.766022,711.260284 964.962296C724.456558 978.158585,742.353683 985.573837,761.017456 985.573837C779.681229 985.573837,797.578354 978.158585,810.774628 964.962296C823.970917 951.766022,831.386169 933.868896,831.386169 915.205124Z" style="stroke:rgb(25.500488%,41.000366%,88.400269%); stroke-width: 2.500000;stroke-linecap: round;stroke-linejoin: round;stroke-miterlimit: 10.000000;fill: none;"></path>
  <path d="M888.765930 810.242462C888.765930 791.578690,881.350677 773.681564,868.154388 760.485291C854.958115 747.289001,837.060989 739.873749,818.397217 739.873749C799.733444 739.873749,781.836319 747.289001,768.640045 760.485291C755.443756 773.681564,748.028503 791.578690,748.028503 810.242462C748.028503 828.906235,755.443756 846.803360,768.640045 859.999634C781.836319 873.195923,799.733444 880.611176,818.397217 880.611176C837.060989 880.611176,854.958115 873.195923,868.154388 859.999634C881.350677 846.803360,888.765930 828.906235,888.765930 810.242462Z" style="stroke:rgb(25.500488%,41.000366%,88.400269%); stroke-width: 2.500000;stroke-linecap: round;stroke-linejoin: round;stroke-miterlimit: 10.000000;fill: none;"></path>
  <path d="M947.417343 703.982193C947.417343 685.318420,940.002090 667.421295,926.805801 654.225021C913.609528 641.028732,895.712402 633.613480,877.048630 633.613480C858.384857 633.613480,840.487732 641.028732,827.291458 654.225021C814.095169 667.421295,806.679916 685.318420,806.679916 703.982193C806.679916 722.645966,814.095169 740.543091,827.291458 753.739365C840.487732 766.935654,858.384857 774.350906,877.048630 774.350906C895.712402 774.350906,913.609528 766.935654,926.805801 753.739365C940.002090 740.543091,947.417343 722.645966,947.417343 703.982193Z" style="stroke:rgb(25.500488%,41.000366%,88.400269%); stroke-width: 2.500000;stroke-linecap: round;stroke-linejoin: round;stroke-miterlimit: 10.000000;fill: none;"></path>
  <path d="M1005.562683 597.202896C1005.562683 578.539124,998.147430 560.641998,984.951141 547.445724C971.754868 534.249435,953.857742 526.834183,935.193970 526.834183C916.530197 526.834183,898.633072 534.249435,885.436798 547.445724C872.240509 560.641998,864.825256 578.539124,864.825256 597.202896C864.825256 615.866669,872.240509 633.763794,885.436798 646.960068C898.633072 660.156357,916.530197 667.571609,935.193970 667.571609C953.857742 667.571609,971.754868 660.156357,984.951141 646.960068C998.147430 633.763794,1005.562683 615.866669,1005.562683 597.202896Z" style="stroke:rgb(25.500488%,41.000366%,88.400269%); stroke-width: 2.500000;stroke-linecap: round;stroke-linejoin: round;stroke-miterlimit: 10.000000;fill: none;"></path>
  <path d="M1064.836945 491.124298C1064.836945 472.460526,1057.421692 454.563400,1044.225403 441.367126C1031.029129 428.170837,1013.132004 420.755585,994.468231 420.755585C975.804459 420.755585,957.907333 428.170837,944.711060 441.367126C931.514771 454.563400,924.099518 472.460526,924.099518 491.124298C924.099518 509.788071,931.514771 527.685196,944.711060 540.881470C957.907333 554.077759,975.804459 561.493011,994.468231 561.493011C1013.132004 561.493011,1031.029129 554.077759,1044.225403 540.881470C1057.421692 527.685196,1064.836945 509.788071,1064.836945 491.124298Z" style="stroke:rgb(25.500488%,41.000366%,88.400269%); stroke-width: 2.500000;stroke-linecap: round;stroke-linejoin: round;stroke-miterlimit: 10.000000;fill: none;"></path>
  <path d="M565.404617 1224.266907C565.404617 1205.603134,557.989365 1187.706009,544.793076 1174.509735C531.596802 1161.313446,513.699677 1153.898193,495.035904 1153.898193C476.372131 1153.898193,458.475006 1161.313446,445.278732 1174.509735C432.082443 1187.706009,424.667191 1205.603134,424.667191 1224.266907C424.667191 1242.930679,432.082443 1260.827805,445.278732 1274.024078C458.475006 1287.220367,476.372131 1294.635620,495.035904 1294.635620C513.699677 1294.635620,531.596802 1287.220367,544.793076 1274.024078C557.989365 1260.827805,565.404617 1242.930679,565.404617 1224.266907Z" style="stroke:rgb(25.500488%,41.000366%,88.400269%); stroke-width: 2.500000;stroke-linecap: round;stroke-linejoin: round;stroke-miterlimit: 10.000000;fill: none;"></path>
  <path d="M614.362976 1117.396774C614.362976 1098.733002,606.947723 1080.835876,593.751434 1067.639603C580.555161 1054.443314,562.658035 1047.028061,543.994263 1047.028061C525.330490 1047.028061,507.433365 1054.443314,494.237091 1067.639603C481.040802 1080.835876,473.625549 1098.733002,473.625549 1117.396774C473.625549 1136.060547,481.040802 1153.957672,494.237091 1167.153946C507.433365 1180.350235,525.330490 1187.765488,543.994263 1187.765488C562.658035 1187.765488,580.555161 1180.350235,593.751434 1167.153946C606.947723 1153.957672,614.362976 1136.060547,614.362976 1117.396774Z" style="stroke:rgb(25.500488%,41.000366%,88.400269%); stroke-width: 2.500000;stroke-linecap: round;stroke-linejoin: round;stroke-miterlimit: 10.000000;fill: none;"></path>
  <path d="M651.578079 1018.156509C651.578079 999.492737,644.162827 981.595612,630.966537 968.399338C617.770264 955.203049,599.873138 947.787796,581.209366 947.787796C562.545593 947.787796,544.648468 955.203049,531.452194 968.399338C518.255905 981.595612,510.840652 999.492737,510.840652 1018.156509C510.840652 1036.820282,518.255905 1054.717407,531.452194 1067.913681C544.648468 1081.109970,562.545593 1088.525223,581.209366 1088.525223C599.873138 1088.525223,617.770264 1081.109970,630.966537 1067.913681C644.162827 1054.717407,651.578079 1036.820282,651.578079 1018.156509Z" style="stroke:rgb(25.500488%,41.000366%,88.400269%); stroke-width: 2.500000;stroke-linecap: round;stroke-linejoin: round;stroke-miterlimit: 10.000000;fill: none;"></path>
  <path d="M709.762344 913.855621C709.762344 895.191849,702.347092 877.294724,689.150803 864.098450C675.954529 850.902161,658.057404 843.486908,639.393631 843.486908C620.729858 843.486908,602.832733 850.902161,589.636459 864.098450C576.440170 877.294724,569.024918 895.191849,569.024918 913.855621C569.024918 932.519394,576.440170 950.416519,589.636459 963.612793C602.832733 976.809082,620.729858 984.224335,639.393631 984.224335C658.057404 984.224335,675.954529 976.809082,689.150803 963.612793C702.347092 950.416519,709.762344 932.519394,709.762344 913.855621Z" style="stroke:rgb(25.500488%,41.000366%,88.400269%); stroke-width: 2.500000;stroke-linecap: round;stroke-linejoin: round;stroke-miterlimit: 10.000000;fill: none;"></path>
  <path d="M766.908539 809.217361C766.908539 790.553589,759.493286 772.656464,746.296997 759.460190C733.100723 746.263901,715.203598 738.848648,696.539825 738.848648C677.876053 738.848648,659.978928 746.263901,646.782654 759.460190C633.586365 772.656464,626.171112 790.553589,626.171112 809.217361C626.171112 827.881134,633.586365 845.778259,646.782654 858.974533C659.978928 872.170822,677.876053 879.586075,696.539825 879.586075C715.203598 879.586075,733.100723 872.170822,746.296997 858.974533C759.493286 845.778259,766.908539 827.881134,766.908539 809.217361Z" style="stroke:rgb(25.500488%,41.000366%,88.400269%); stroke-width: 2.500000;stroke-linecap: round;stroke-linejoin: round;stroke-miterlimit: 10.000000;fill: none;"></path>
  <path d="M826.273636 704.189819C826.273636 685.526047,818.858383 667.628922,805.662094 654.432648C792.465820 641.236359,774.568695 633.821106,755.904922 633.821106C737.241150 633.821106,719.344025 641.236359,706.147751 654.432648C692.951462 667.628922,685.536209 685.526047,685.536209 704.189819C685.536209 722.853592,692.951462 740.750717,706.147751 753.946991C719.344025 767.143280,737.241150 774.558533,755.904922 774.558533C774.568695 774.558533,792.465820 767.143280,805.662094 753.946991C818.858383 740.750717,826.273636 722.853592,826.273636 704.189819Z" style="stroke:rgb(25.500488%,41.000366%,88.400269%); stroke-width: 2.500000;stroke-linecap: round;stroke-linejoin: round;stroke-miterlimit: 10.000000;fill: none;"></path>
  <path d="M884.730408 597.955505C884.730408 579.291733,877.315155 561.394608,864.118866 548.198334C850.922592 535.002045,833.025467 527.586792,814.361694 527.586792C795.697922 527.586792,777.800797 535.002045,764.604523 548.198334C751.408234 561.394608,743.992981 579.291733,743.992981 597.955505C743.992981 616.619278,751.408234 634.516403,764.604523 647.712677C777.800797 660.908966,795.697922 668.324219,814.361694 668.324219C833.025467 668.324219,850.922592 660.908966,864.118866 647.712677C877.315155 634.516403,884.730408 616.619278,884.730408 597.955505Z" style="stroke:rgb(25.500488%,41.000366%,88.400269%); stroke-width: 2.500000;stroke-linecap: round;stroke-linejoin: round;stroke-miterlimit: 10.000000;fill: none;"></path>
  <path d="M943.563477 491.150253C943.563477 472.486481,936.148224 454.589355,922.951935 441.393082C909.755661 428.196793,891.858536 420.781540,873.194763 420.781540C854.530991 420.781540,836.633865 428.196793,823.437592 441.393082C810.241302 454.589355,802.826050 472.486481,802.826050 491.150253C802.826050 509.814026,810.241302 527.711151,823.437592 540.907425C836.633865 554.103714,854.530991 561.518967,873.194763 561.518967C891.858536 561.518967,909.755661 554.103714,922.951935 540.907425C936.148224 527.711151,943.563477 509.814026,943.563477 491.150253Z" style="stroke:rgb(25.500488%,41.000366%,88.400269%); stroke-width: 2.500000;stroke-linecap: round;stroke-linejoin: round;stroke-miterlimit: 10.000000;fill: none;"></path>
  <path d="M1003.291885 385.071655C1003.291885 366.407883,995.876633 348.510757,982.680344 335.314484C969.484070 322.118195,951.586945 314.702942,932.923172 314.702942C914.259399 314.702942,896.362274 322.118195,883.166000 335.314484C869.969711 348.510757,862.554459 366.407883,862.554459 385.071655C862.554459 403.735428,869.969711 421.632553,883.166000 434.828827C896.362274 448.025116,914.259399 455.440369,932.923172 455.440369C951.586945 455.440369,969.484070 448.025116,982.680344 434.828827C995.876633 421.632553,1003.291885 403.735428,1003.291885 385.071655Z" style="stroke:rgb(25.500488%,41.000366%,88.400269%); stroke-width: 2.500000;stroke-linecap: round;stroke-linejoin: round;stroke-miterlimit: 10.000000;fill: none;"></path>
  <path d="M460.688507 1235.270538C460.688507 1216.606766,453.273254 1198.709641,440.076965 1185.513367C426.880692 1172.317078,408.983566 1164.901825,390.319794 1164.901825C371.656021 1164.901825,353.758896 1172.317078,340.562622 1185.513367C327.366333 1198.709641,319.951080 1216.606766,319.951080 1235.270538C319.951080 1253.934311,327.366333 1271.831436,340.562622 1285.027710C353.758896 1298.223999,371.656021 1305.639252,390.319794 1305.639252C408.983566 1305.639252,426.880692 1298.223999,440.076965 1285.027710C453.273254 1271.831436,460.688507 1253.934311,460.688507 1235.270538Z" style="stroke:rgb(25.500488%,41.000366%,88.400269%); stroke-width: 2.500000;stroke-linecap: round;stroke-linejoin: round;stroke-miterlimit: 10.000000;fill: none;"></path>
  <path d="M497.475388 1113.776474C497.475388 1095.112701,490.060135 1077.215576,476.863846 1064.019302C463.667572 1050.823013,445.770447 1043.407761,427.106674 1043.407761C408.442902 1043.407761,390.545776 1050.823013,377.349503 1064.019302C364.153214 1077.215576,356.737961 1095.112701,356.737961 1113.776474C356.737961 1132.440247,364.153214 1150.337372,377.349503 1163.533646C390.545776 1176.729935,408.442902 1184.145187,427.106674 1184.145187C445.770447 1184.145187,463.667572 1176.729935,476.863846 1163.533646C490.060135 1150.337372,497.475388 1132.440247,497.475388 1113.776474Z" style="stroke:rgb(25.500488%,41.000366%,88.400269%); stroke-width: 2.500000;stroke-linecap: round;stroke-linejoin: round;stroke-miterlimit: 10.000000;fill: none;"></path>
  <path d="M528.280350 1017.053558C528.280350 998.389786,520.865097 980.492661,507.668808 967.296387C494.472534 954.100098,476.575409 946.684845,457.911636 946.684845C439.247864 946.684845,421.350739 954.100098,408.154465 967.296387C394.958176 980.492661,387.542923 998.389786,387.542923 1017.053558C387.542923 1035.717331,394.958176 1053.614456,408.154465 1066.810730C421.350739 1080.007019,439.247864 1087.422272,457.911636 1087.422272C476.575409 1087.422272,494.472534 1080.007019,507.668808 1066.810730C520.865097 1053.614456,528.280350 1035.717331,528.280350 1017.053558Z" style="stroke:rgb(25.500488%,41.000366%,88.400269%); stroke-width: 2.500000;stroke-linecap: round;stroke-linejoin: round;stroke-miterlimit: 10.000000;fill: none;"></path>
  <path d="M586.814987 913.401459C586.814987 894.737686,579.399734 876.840561,566.203445 863.644287C553.007172 850.447998,535.110046 843.032745,516.446274 843.032745C497.782501 843.032745,479.885376 850.447998,466.689102 863.644287C453.492813 876.840561,446.077560 894.737686,446.077560 913.401459C446.077560 932.065231,453.492813 949.962357,466.689102 963.158630C479.885376 976.354919,497.782501 983.770172,516.446274 983.770172C535.110046 983.770172,553.007172 976.354919,566.203445 963.158630C579.399734 949.962357,586.814987 932.065231,586.814987 913.401459Z" style="stroke:rgb(25.500488%,41.000366%,88.400269%); stroke-width: 2.500000;stroke-linecap: round;stroke-linejoin: round;stroke-miterlimit: 10.000000;fill: none;"></path>
  <path d="M644.181763 809.165451C644.181763 790.501678,636.766510 772.604553,623.570221 759.408279C610.373947 746.211990,592.476822 738.796738,573.813049 738.796738C555.149277 738.796738,537.252151 746.211990,524.055878 759.408279C510.859589 772.604553,503.444336 790.501678,503.444336 809.165451C503.444336 827.829224,510.859589 845.726349,524.055878 858.922623C537.252151 872.118912,555.149277 879.534164,573.813049 879.534164C592.476822 879.534164,610.373947 872.118912,623.570221 858.922623C636.766510 845.726349,644.181763 827.829224,644.181763 809.165451Z" style="stroke:rgb(25.500488%,41.000366%,88.400269%); stroke-width: 2.500000;stroke-linecap: round;stroke-linejoin: round;stroke-miterlimit: 10.000000;fill: none;"></path>
  <path d="M703.702576 704.423386C703.702576 685.759613,696.287323 667.862488,683.091034 654.666214C669.894760 641.469925,651.997635 634.054672,633.333862 634.054672C614.670090 634.054672,596.772964 641.469925,583.576691 654.666214C570.380402 667.862488,562.965149 685.759613,562.965149 704.423386C562.965149 723.087158,570.380402 740.984283,583.576691 754.180557C596.772964 767.376846,614.670090 774.792099,633.333862 774.792099C651.997635 774.792099,669.894760 767.376846,683.091034 754.180557C696.287323 740.984283,703.702576 723.087158,703.702576 704.423386Z" style="stroke:rgb(25.500488%,41.000366%,88.400269%); stroke-width: 2.500000;stroke-linecap: round;stroke-linejoin: round;stroke-miterlimit: 10.000000;fill: none;"></path>
  <path d="M762.847061 599.408813C762.847061 580.745041,755.431808 562.847916,742.235519 549.651642C729.039246 536.455353,711.142120 529.040100,692.478348 529.040100C673.814575 529.040100,655.917450 536.455353,642.721176 549.651642C629.524887 562.847916,622.109634 580.745041,622.109634 599.408813C622.109634 618.072586,629.524887 635.969711,642.721176 649.165985C655.917450 662.362274,673.814575 669.777527,692.478348 669.777527C711.142120 669.777527,729.039246 662.362274,742.235519 649.165985C755.431808 635.969711,762.847061 618.072586,762.847061 599.408813Z" style="stroke:rgb(25.500488%,41.000366%,88.400269%); stroke-width: 2.500000;stroke-linecap: round;stroke-linejoin: round;stroke-miterlimit: 10.000000;fill: none;"></path>
  <path d="M822.017517 493.148544C822.017517 474.484772,814.602264 456.587646,801.405975 443.391373C788.209702 430.195084,770.312576 422.779831,751.648804 422.779831C732.985031 422.779831,715.087906 430.195084,701.891632 443.391373C688.695343 456.587646,681.280090 474.484772,681.280090 493.148544C681.280090 511.812317,688.695343 529.709442,701.891632 542.905716C715.087906 556.102005,732.985031 563.517258,751.648804 563.517258C770.312576 563.517258,788.209702 556.102005,801.405975 542.905716C814.602264 529.709442,822.017517 511.812317,822.017517 493.148544Z" style="stroke:rgb(25.500488%,41.000366%,88.400269%); stroke-width: 2.500000;stroke-linecap: round;stroke-linejoin: round;stroke-miterlimit: 10.000000;fill: none;"></path>
  <path d="M881.304749 386.343292C881.304749 367.679520,873.889496 349.782394,860.693207 336.586121C847.496933 323.389832,829.599808 315.974579,810.936035 315.974579C792.272263 315.974579,774.375137 323.389832,761.178864 336.586121C747.982574 349.782394,740.567322 367.679520,740.567322 386.343292C740.567322 405.007065,747.982574 422.904190,761.178864 436.100464C774.375137 449.296753,792.272263 456.712006,810.936035 456.712006C829.599808 456.712006,847.496933 449.296753,860.693207 436.100464C873.889496 422.904190,881.304749 405.007065,881.304749 386.343292Z" style="stroke:rgb(25.500488%,41.000366%,88.400269%); stroke-width: 2.500000;stroke-linecap: round;stroke-linejoin: round;stroke-miterlimit: 10.000000;fill: none;"></path>
  <path d="M941.357559 280.264694C941.357559 261.600922,933.942307 243.703796,920.746017 230.507523C907.549744 217.311234,889.652618 209.895981,870.988846 209.895981C852.325073 209.895981,834.427948 217.311234,821.231674 230.507523C808.035385 243.703796,800.620132 261.600922,800.620132 280.264694C800.620132 298.928467,808.035385 316.825592,821.231674 330.021866C834.427948 343.218155,852.325073 350.633408,870.988846 350.633408C889.652618 350.633408,907.549744 343.218155,920.746017 330.021866C933.942307 316.825592,941.357559 298.928467,941.357559 280.264694Z" style="stroke:rgb(25.500488%,41.000366%,88.400269%); stroke-width: 2.500000;stroke-linecap: round;stroke-linejoin: round;stroke-miterlimit: 10.000000;fill: none;"></path>
  <path d="M346.642654 1234.660660C346.642654 1215.996887,339.227402 1198.099762,326.031113 1184.903488C312.834839 1171.707199,294.937714 1164.291946,276.273941 1164.291946C257.610168 1164.291946,239.713043 1171.707199,226.516769 1184.903488C213.320480 1198.099762,205.905228 1215.996887,205.905228 1234.660660C205.905228 1253.324432,213.320480 1271.221558,226.516769 1284.417831C239.713043 1297.614120,257.610168 1305.029373,276.273941 1305.029373C294.937714 1305.029373,312.834839 1297.614120,326.031113 1284.417831C339.227402 1271.221558,346.642654 1253.324432,346.642654 1234.660660Z" style="stroke:rgb(25.500488%,41.000366%,88.400269%); stroke-width: 2.500000;stroke-linecap: round;stroke-linejoin: round;stroke-miterlimit: 10.000000;fill: none;"></path>
  <path d="M410.134094 1135.589096C410.134094 1116.925323,402.718842 1099.028198,389.522552 1085.831924C376.326279 1072.635635,358.429153 1065.220383,339.765381 1065.220383C321.101608 1065.220383,303.204483 1072.635635,290.008209 1085.831924C276.811920 1099.028198,269.396667 1116.925323,269.396667 1135.589096C269.396667 1154.252869,276.811920 1172.149994,290.008209 1185.346268C303.204483 1198.542557,321.101608 1205.957809,339.765381 1205.957809C358.429153 1205.957809,376.326279 1198.542557,389.522552 1185.346268C402.718842 1172.149994,410.134094 1154.252869,410.134094 1135.589096Z" style="stroke:rgb(25.500488%,41.000366%,88.400269%); stroke-width: 2.500000;stroke-linecap: round;stroke-linejoin: round;stroke-miterlimit: 10.000000;fill: none;"></path>
  <path d="M404.684189 1016.897842C404.684189 998.234070,397.268936 980.336945,384.072647 967.140671C370.876373 953.944382,352.979248 946.529129,334.315475 946.529129C315.651703 946.529129,297.754578 953.944382,284.558304 967.140671C271.362015 980.336945,263.946762 998.234070,263.946762 1016.897842C263.946762 1035.561615,271.362015 1053.458740,284.558304 1066.655014C297.754578 1079.851303,315.651703 1087.266556,334.315475 1087.266556C352.979248 1087.266556,370.876373 1079.851303,384.072647 1066.655014C397.268936 1053.458740,404.684189 1035.561615,404.684189 1016.897842Z" style="stroke:rgb(25.500488%,41.000366%,88.400269%); stroke-width: 2.500000;stroke-linecap: round;stroke-linejoin: round;stroke-miterlimit: 10.000000;fill: none;"></path>
  <path d="M463.115005 913.051117C463.115005 894.387344,455.699753 876.490219,442.503464 863.293945C429.307190 850.097656,411.410065 842.682404,392.746292 842.682404C374.082520 842.682404,356.185394 850.097656,342.989120 863.293945C329.792831 876.490219,322.377579 894.387344,322.377579 913.051117C322.377579 931.714890,329.792831 949.612015,342.989120 962.808289C356.185394 976.004578,374.082520 983.419830,392.746292 983.419830C411.410065 983.419830,429.307190 976.004578,442.503464 962.808289C455.699753 949.612015,463.115005 931.714890,463.115005 913.051117Z" style="stroke:rgb(25.500488%,41.000366%,88.400269%); stroke-width: 2.500000;stroke-linecap: round;stroke-linejoin: round;stroke-miterlimit: 10.000000;fill: none;"></path>
  <path d="M520.819168 809.437958C520.819168 790.774185,513.403915 772.877060,500.207626 759.680786C487.011353 746.484497,469.114227 739.069244,450.450455 739.069244C431.786682 739.069244,413.889557 746.484497,400.693283 759.680786C387.496994 772.877060,380.081741 790.774185,380.081741 809.437958C380.081741 828.101730,387.496994 845.998856,400.693283 859.195129C413.889557 872.391418,431.786682 879.806671,450.450455 879.806671C469.114227 879.806671,487.011353 872.391418,500.207626 859.195129C513.403915 845.998856,520.819168 828.101730,520.819168 809.437958Z" style="stroke:rgb(25.500488%,41.000366%,88.400269%); stroke-width: 2.500000;stroke-linecap: round;stroke-linejoin: round;stroke-miterlimit: 10.000000;fill: none;"></path>
  <path d="M580.560562 705.085159C580.560562 686.421387,573.145309 668.524261,559.949020 655.327988C546.752747 642.131699,528.855621 634.716446,510.191849 634.716446C491.528076 634.716446,473.630951 642.131699,460.434677 655.327988C447.238388 668.524261,439.823135 686.421387,439.823135 705.085159C439.823135 723.748932,447.238388 741.646057,460.434677 754.842331C473.630951 768.038620,491.528076 775.453873,510.191849 775.453873C528.855621 775.453873,546.752747 768.038620,559.949020 754.842331C573.145309 741.646057,580.560562 723.748932,580.560562 705.085159Z" style="stroke:rgb(25.500488%,41.000366%,88.400269%); stroke-width: 2.500000;stroke-linecap: round;stroke-linejoin: round;stroke-miterlimit: 10.000000;fill: none;"></path>
  <path d="M639.873749 600.356064C639.873749 581.692291,632.458496 563.795166,619.262207 550.598892C606.065933 537.402603,588.168808 529.987350,569.505035 529.987350C550.841263 529.987350,532.944138 537.402603,519.747864 550.598892C506.551575 563.795166,499.136322 581.692291,499.136322 600.356064C499.136322 619.019836,506.551575 636.916962,519.747864 650.113235C532.944138 663.309525,550.841263 670.724777,569.505035 670.724777C588.168808 670.724777,606.065933 663.309525,619.262207 650.113235C632.458496 636.916962,639.873749 619.019836,639.873749 600.356064Z" style="stroke:rgb(25.500488%,41.000366%,88.400269%); stroke-width: 2.500000;stroke-linecap: round;stroke-linejoin: round;stroke-miterlimit: 10.000000;fill: none;"></path>
  <path d="M699.744888 495.315536C699.744888 476.651764,692.329636 458.754639,679.133347 445.558365C665.937073 432.362076,648.039948 424.946823,629.376175 424.946823C610.712402 424.946823,592.815277 432.362076,579.619003 445.558365C566.422714 458.754639,559.007462 476.651764,559.007462 495.315536C559.007462 513.979309,566.422714 531.876434,579.619003 545.072708C592.815277 558.268997,610.712402 565.684250,629.376175 565.684250C648.039948 565.684250,665.937073 558.268997,679.133347 545.072708C692.329636 531.876434,699.744888 513.979309,699.744888 495.315536Z" style="stroke:rgb(25.500488%,41.000366%,88.400269%); stroke-width: 2.500000;stroke-linecap: round;stroke-linejoin: round;stroke-miterlimit: 10.000000;fill: none;"></path>
  <path d="M759.356522 389.055283C759.356522 370.391510,751.941269 352.494385,738.744980 339.298111C725.548706 326.101822,707.651581 318.686569,688.987808 318.686569C670.324036 318.686569,652.426910 326.101822,639.230637 339.298111C626.034348 352.494385,618.619095 370.391510,618.619095 389.055283C618.619095 407.719055,626.034348 425.616180,639.230637 438.812454C652.426910 452.008743,670.324036 459.423996,688.987808 459.423996C707.651581 459.423996,725.548706 452.008743,738.744980 438.812454C751.941269 425.616180,759.356522 407.719055,759.356522 389.055283Z" style="stroke:rgb(25.500488%,41.000366%,88.400269%); stroke-width: 2.500000;stroke-linecap: round;stroke-linejoin: round;stroke-miterlimit: 10.000000;fill: none;"></path>
  <path d="M818.968155 282.250015C818.968155 263.586243,811.552902 245.689117,798.356613 232.492844C785.160339 219.296555,767.263214 211.881302,748.599442 211.881302C729.935669 211.881302,712.038544 219.296555,698.842270 232.492844C685.645981 245.689117,678.230728 263.586243,678.230728 282.250015C678.230728 300.913788,685.645981 318.810913,698.842270 332.007187C712.038544 345.203476,729.935669 352.618729,748.599442 352.618729C767.263214 352.618729,785.160339 345.203476,798.356613 332.007187C811.552902 318.810913,818.968155 300.913788,818.968155 282.250015Z" style="stroke:rgb(25.500488%,41.000366%,88.400269%); stroke-width: 2.500000;stroke-linecap: round;stroke-linejoin: round;stroke-miterlimit: 10.000000;fill: none;"></path>
  <path d="M880.448334 176.171417C880.448334 157.507645,873.033081 139.610519,859.836792 126.414246C846.640518 113.217957,828.743393 105.802704,810.079620 105.802704C791.415848 105.802704,773.518723 113.217957,760.322449 126.414246C747.126160 139.610519,739.710907 157.507645,739.710907 176.171417C739.710907 194.835190,747.126160 212.732315,760.322449 225.928589C773.518723 239.124878,791.415848 246.540131,810.079620 246.540131C828.743393 246.540131,846.640518 239.124878,859.836792 225.928589C873.033081 212.732315,880.448334 194.835190,880.448334 176.171417Z" style="stroke:rgb(25.500488%,41.000366%,88.400269%); stroke-width: 2.500000;stroke-linecap: round;stroke-linejoin: round;stroke-miterlimit: 10.000000;fill: none;"></path>
  <path d="M244.119476 1222.709793C244.119476 1204.046021,236.704224 1186.148895,223.507935 1172.952621C210.311661 1159.756332,192.414536 1152.341080,173.750763 1152.341080C155.086990 1152.341080,137.189865 1159.756332,123.993591 1172.952621C110.797302 1186.148895,103.382050 1204.046021,103.382050 1222.709793C103.382050 1241.373566,110.797302 1259.270691,123.993591 1272.466965C137.189865 1285.663254,155.086990 1293.078506,173.750763 1293.078506C192.414536 1293.078506,210.311661 1285.663254,223.507935 1272.466965C236.704224 1259.270691,244.119476 1241.373566,244.119476 1222.709793Z" style="stroke:rgb(25.500488%,41.000366%,88.400269%); stroke-width: 2.500000;stroke-linecap: round;stroke-linejoin: round;stroke-miterlimit: 10.000000;fill: none;"></path>
  <path d="M310.686218 1111.492706C310.686218 1092.828934,303.270966 1074.931808,290.074677 1061.735535C276.878403 1048.539246,258.981277 1041.123993,240.317505 1041.123993C221.653732 1041.123993,203.756607 1048.539246,190.560333 1061.735535C177.364044 1074.931808,169.948792 1092.828934,169.948792 1111.492706C169.948792 1130.156479,177.364044 1148.053604,190.560333 1161.249878C203.756607 1174.446167,221.653732 1181.861420,240.317505 1181.861420C258.981277 1181.861420,276.878403 1174.446167,290.074677 1161.249878C303.270966 1148.053604,310.686218 1130.156479,310.686218 1111.492706Z" style="stroke:rgb(25.500488%,41.000366%,88.400269%); stroke-width: 2.500000;stroke-linecap: round;stroke-linejoin: round;stroke-miterlimit: 10.000000;fill: none;"></path>
  <path d="M280.724701 1013.251602C280.724701 994.587830,273.309448 976.690704,260.113159 963.494431C246.916885 950.298141,229.019760 942.882889,210.355988 942.882889C191.692215 942.882889,173.795090 950.298141,160.598816 963.494431C147.402527 976.690704,139.987274 994.587830,139.987274 1013.251602C139.987274 1031.915375,147.402527 1049.812500,160.598816 1063.008774C173.795090 1076.205063,191.692215 1083.620316,210.355988 1083.620316C229.019760 1083.620316,246.916885 1076.205063,260.113159 1063.008774C273.309448 1049.812500,280.724701 1031.915375,280.724701 1013.251602Z" style="stroke:rgb(25.500488%,41.000366%,88.400269%); stroke-width: 2.500000;stroke-linecap: round;stroke-linejoin: round;stroke-miterlimit: 10.000000;fill: none;"></path>
  <path d="M340.258469 911.532928C340.258469 892.869156,332.843216 874.972031,319.646927 861.775757C306.450653 848.579468,288.553528 841.164215,269.889755 841.164215C251.225983 841.164215,233.328857 848.579468,220.132584 861.775757C206.936295 874.972031,199.521042 892.869156,199.521042 911.532928C199.521042 930.196701,206.936295 948.093826,220.132584 961.290100C233.328857 974.486389,251.225983 981.901642,269.889755 981.901642C288.553528 981.901642,306.450653 974.486389,319.646927 961.290100C332.843216 948.093826,340.258469 930.196701,340.258469 911.532928Z" style="stroke:rgb(25.500488%,41.000366%,88.400269%); stroke-width: 2.500000;stroke-linecap: round;stroke-linejoin: round;stroke-miterlimit: 10.000000;fill: none;"></path>
  <path d="M397.858826 807.751068C397.858826 789.087296,390.443573 771.190170,377.247284 757.993896C364.051010 744.797607,346.153885 737.382355,327.490112 737.382355C308.826340 737.382355,290.929214 744.797607,277.732941 757.993896C264.536652 771.190170,257.121399 789.087296,257.121399 807.751068C257.121399 826.414841,264.536652 844.311966,277.732941 857.508240C290.929214 870.704529,308.826340 878.119781,327.490112 878.119781C346.153885 878.119781,364.051010 870.704529,377.247284 857.508240C390.443573 844.311966,397.858826 826.414841,397.858826 807.751068Z" style="stroke:rgb(25.500488%,41.000366%,88.400269%); stroke-width: 2.500000;stroke-linecap: round;stroke-linejoin: round;stroke-miterlimit: 10.000000;fill: none;"></path>
  <path d="M457.937592 704.034103C457.937592 685.370331,450.522339 667.473206,437.326050 654.276932C424.129776 641.080643,406.232651 633.665390,387.568878 633.665390C368.905106 633.665390,351.007980 641.080643,337.811707 654.276932C324.615417 667.473206,317.200165 685.370331,317.200165 704.034103C317.200165 722.697876,324.615417 740.595001,337.811707 753.791275C351.007980 766.987564,368.905106 774.402817,387.568878 774.402817C406.232651 774.402817,424.129776 766.987564,437.326050 753.791275C450.522339 740.595001,457.937592 722.697876,457.937592 704.034103Z" style="stroke:rgb(25.500488%,41.000366%,88.400269%); stroke-width: 2.500000;stroke-linecap: round;stroke-linejoin: round;stroke-miterlimit: 10.000000;fill: none;"></path>
  <path d="M517.471375 599.707260C517.471375 581.043488,510.056122 563.146362,496.859833 549.950089C483.663559 536.753799,465.766434 529.338547,447.102661 529.338547C428.438889 529.338547,410.541763 536.753799,397.345490 549.950089C384.149200 563.146362,376.733948 581.043488,376.733948 599.707260C376.733948 618.371033,384.149200 636.268158,397.345490 649.464432C410.541763 662.660721,428.438889 670.075974,447.102661 670.075974C465.766434 670.075974,483.663559 662.660721,496.859833 649.464432C510.056122 636.268158,517.471375 618.371033,517.471375 599.707260Z" style="stroke:rgb(25.500488%,41.000366%,88.400269%); stroke-width: 2.500000;stroke-linecap: round;stroke-linejoin: round;stroke-miterlimit: 10.000000;fill: none;"></path>
  <path d="M577.498230 494.965179C577.498230 476.301407,570.082977 458.404282,556.886688 445.208008C543.690414 432.011719,525.793289 424.596466,507.129517 424.596466C488.465744 424.596466,470.568619 432.011719,457.372345 445.208008C444.176056 458.404282,436.760803 476.301407,436.760803 494.965179C436.760803 513.628952,444.176056 531.526077,457.372345 544.722351C470.568619 557.918640,488.465744 565.333893,507.129517 565.333893C525.793289 565.333893,543.690414 557.918640,556.886688 544.722351C570.082977 531.526077,577.498230 513.628952,577.498230 494.965179Z" style="stroke:rgb(25.500488%,41.000366%,88.400269%); stroke-width: 2.500000;stroke-linecap: round;stroke-linejoin: round;stroke-miterlimit: 10.000000;fill: none;"></path>
  <path d="M637.810562 389.924667C637.810562 371.260895,630.395309 353.363770,617.199020 340.167496C604.002747 326.971207,586.105621 319.555954,567.441849 319.555954C548.778076 319.555954,530.880951 326.971207,517.684677 340.167496C504.488388 353.363770,497.073135 371.260895,497.073135 389.924667C497.073135 408.588440,504.488388 426.485565,517.684677 439.681839C530.880951 452.878128,548.778076 460.293381,567.441849 460.293381C586.105621 460.293381,604.002747 452.878128,617.199020 439.681839C630.395309 426.485565,637.810562 408.588440,637.810562 389.924667Z" style="stroke:rgb(25.500488%,41.000366%,88.400269%); stroke-width: 2.500000;stroke-linecap: round;stroke-linejoin: round;stroke-miterlimit: 10.000000;fill: none;"></path>
  <path d="M697.746597 283.664398C697.746597 265.000626,690.331345 247.103500,677.135056 233.907227C663.938782 220.710938,646.041656 213.295685,627.377884 213.295685C608.714111 213.295685,590.816986 220.710938,577.620712 233.907227C564.424423 247.103500,557.009171 265.000626,557.009171 283.664398C557.009171 302.328171,564.424423 320.225296,577.620712 333.421570C590.816986 346.617859,608.714111 354.033112,627.377884 354.033112C646.041656 354.033112,663.938782 346.617859,677.135056 333.421570C690.331345 320.225296,697.746597 302.328171,697.746597 283.664398Z" style="stroke:rgb(25.500488%,41.000366%,88.400269%); stroke-width: 2.500000;stroke-linecap: round;stroke-linejoin: round;stroke-miterlimit: 10.000000;fill: none;"></path>
  <path d="M758.772614 176.859146C758.772614 158.195374,751.357361 140.298248,738.161072 127.101974C724.964798 113.905685,707.067673 106.490433,688.403900 106.490433C669.740128 106.490433,651.843002 113.905685,638.646729 127.101974C625.450439 140.298248,618.035187 158.195374,618.035187 176.859146C618.035187 195.522919,625.450439 213.420044,638.646729 226.616318C651.843002 239.812607,669.740128 247.227859,688.403900 247.227859C707.067673 247.227859,724.964798 239.812607,738.161072 226.616318C751.357361 213.420044,758.772614 195.522919,758.772614 176.859146Z" style="stroke:rgb(25.500488%,41.000366%,88.400269%); stroke-width: 2.500000;stroke-linecap: round;stroke-linejoin: round;stroke-miterlimit: 10.000000;fill: none;"></path>
  <path d="M820.979431 70.988159C820.979431 52.324387,813.564178 34.427261,800.367889 21.230988C787.171616 8.034698,769.274490 0.619446,750.610718 0.619446C731.946945 0.619446,714.049820 8.034698,700.853546 21.230988C687.657257 34.427261,680.242004 52.324387,680.242004 70.988159C680.242004 89.651932,687.657257 107.549057,700.853546 120.745331C714.049820 133.941620,731.946945 141.356873,750.610718 141.356873C769.274490 141.356873,787.171616 133.941620,800.367889 120.745331C813.564178 107.549057,820.979431 89.651932,820.979431 70.988159Z" style="stroke:rgb(25.500488%,41.000366%,88.400269%); stroke-width: 2.500000;stroke-linecap: round;stroke-linejoin: round;stroke-miterlimit: 10.000000;fill: none;"></path>
  <path d="M141.661163 1234.569839C141.661163 1215.906067,134.245911 1198.008942,121.049622 1184.812668C107.853348 1171.616379,89.956223 1164.201126,71.292450 1164.201126C52.628677 1164.201126,34.731552 1171.616379,21.535278 1184.812668C8.338989 1198.008942,0.923737 1215.906067,0.923737 1234.569839C0.923737 1253.233612,8.338989 1271.130737,21.535278 1284.327011C34.731552 1297.523300,52.628677 1304.938553,71.292450 1304.938553C89.956223 1304.938553,107.853348 1297.523300,121.049622 1284.327011C134.245911 1271.130737,141.661163 1253.233612,141.661163 1234.569839Z" style="stroke:rgb(25.500488%,41.000366%,88.400269%); stroke-width: 2.500000;stroke-linecap: round;stroke-linejoin: round;stroke-miterlimit: 10.000000;fill: none;"></path>
  <path d="M196.445740 1112.375076C196.445740 1093.711304,189.030487 1075.814178,175.834198 1062.617905C162.637924 1049.421616,144.740799 1042.006363,126.077026 1042.006363C107.413254 1042.006363,89.516129 1049.421616,76.319855 1062.617905C63.123566 1075.814178,55.708313 1093.711304,55.708313 1112.375076C55.708313 1131.038849,63.123566 1148.935974,76.319855 1162.132248C89.516129 1175.328537,107.413254 1182.743790,126.077026 1182.743790C144.740799 1182.743790,162.637924 1175.328537,175.834198 1162.132248C189.030487 1148.935974,196.445740 1131.038849,196.445740 1112.375076Z" style="stroke:rgb(25.500488%,41.000366%,88.400269%); stroke-width: 2.500000;stroke-linecap: round;stroke-linejoin: round;stroke-miterlimit: 10.000000;fill: none;"></path>
</svg>
