<?xml version="1.0"?>
<!-- Created by MetaPost 2.00 on 2022.03.02:1201 -->
<svg version="1.1" xmlns="http://www.w3.org/2000/svg" xmlns:xlink="http://www.w3.org/1999/xlink" width="1755.839767" height="1835.849625" viewBox="0 0 1755.839767 1835.849625">
<!-- Original BoundingBox: -883.707169 -912.942032 872.132599 922.907593 -->
  <path d="M883.000000 71.606476L423.248215 206.608521L109.450195 568.729065L41.261444 1043.026917L240.312912 1478.889938L643.411591 1737.942307L1122.588409 1737.942307L1525.687088 1478.889938L1724.738556 1043.026917L1656.549805 568.729065L1342.751785 206.608521L883.000000 71.606476Z" style="fill: rgb(100.000000%,100.000000%,100.000000%);stroke: none;"></path>
  <path d="M883.000000 71.606476L423.248215 206.608521" style="stroke:rgb(0.000000%,0.000000%,0.000000%); stroke-width: 2.500000;stroke-linecap: round;stroke-linejoin: round;stroke-miterlimit: 10.000000;fill: none;"></path>
  <path d="M423.248215 206.608521L109.450195 568.729065" style="stroke:rgb(0.000000%,0.000000%,0.000000%); stroke-width: 2.500000;stroke-linecap: round;stroke-linejoin: round;stroke-miterlimit: 10.000000;fill: none;"></path>
  <path d="M109.450195 568.729065L41.261444 1043.026917" style="stroke:rgb(0.000000%,0.000000%,0.000000%); stroke-width: 2.500000;stroke-linecap: round;stroke-linejoin: round;stroke-miterlimit: 10.000000;fill: none;"></path>
  <path d="M41.261444 1043.026917L240.312912 1478.889938" style="stroke:rgb(0.000000%,0.000000%,0.000000%); stroke-width: 2.500000;stroke-linecap: round;stroke-linejoin: round;stroke-miterlimit: 10.000000;fill: none;"></path>
  <path d="M240.312912 1478.889938L643.411591 1737.942307" style="stroke:rgb(0.000000%,0.000000%,0.000000%); stroke-width: 2.500000;stroke-linecap: round;stroke-linejoin: round;stroke-miterlimit: 10.000000;fill: none;"></path>
  <path d="M643.411591 1737.942307L1122.588409 1737.942307" style="stroke:rgb(0.000000%,0.000000%,0.000000%); stroke-width: 2.500000;stroke-linecap: round;stroke-linejoin: round;stroke-miterlimit: 10.000000;fill: none;"></path>
  <path d="M1122.588409 1737.942307L1525.687088 1478.889938" style="stroke:rgb(0.000000%,0.000000%,0.000000%); stroke-width: 2.500000;stroke-linecap: round;stroke-linejoin: round;stroke-miterlimit: 10.000000;fill: none;"></path>
  <path d="M1525.687088 1478.889938L1724.738556 1043.026917" style="stroke:rgb(0.000000%,0.000000%,0.000000%); stroke-width: 2.500000;stroke-linecap: round;stroke-linejoin: round;stroke-miterlimit: 10.000000;fill: none;"></path>
  <path d="M1724.738556 1043.026917L1656.549805 568.729065" style="stroke:rgb(0.000000%,0.000000%,0.000000%); stroke-width: 2.500000;stroke-linecap: round;stroke-linejoin: round;stroke-miterlimit: 10.000000;fill: none;"></path>
  <path d="M1656.549805 568.729065L1342.751785 206.608521" style="stroke:rgb(0.000000%,0.000000%,0.000000%); stroke-width: 2.500000;stroke-linecap: round;stroke-linejoin: round;stroke-miterlimit: 10.000000;fill: none;"></path>
  <path d="M1342.751785 206.608521L883.000000 71.606476" style="stroke:rgb(0.000000%,0.000000%,0.000000%); stroke-width: 2.500000;stroke-linecap: round;stroke-linejoin: round;stroke-miterlimit: 10.000000;fill: none;"></path>
  <path d="M290.192566 651.373062C290.192566 620.828903,278.057144 591.539398,256.460785 569.943054C234.864441 548.346695,205.574936 536.211273,175.030777 536.211273C144.486618 536.211273,115.197113 548.346695,93.600769 569.943054C72.004410 591.539398,59.868988 620.828903,59.868988 651.373062C59.868988 681.917221,72.004410 711.206726,93.600769 732.803070C115.197113 754.399429,144.486618 766.534851,175.030777 766.534851C205.574936 766.534851,234.864441 754.399429,256.460785 732.803070C278.057144 711.206726,290.192566 681.917221,290.192566 651.373062Z" style="stroke:rgb(25.500488%,41.000366%,88.400269%); stroke-width: 2.500000;stroke-linecap: round;stroke-linejoin: round;stroke-miterlimit: 10.000000;fill: none;"></path>
  <path d="M276.502914 813.404068C276.502914 782.859909,264.367493 753.570404,242.771133 731.974060C221.174789 710.377701,191.885284 698.242279,161.341125 698.242279C130.796967 698.242279,101.507462 710.377701,79.911118 731.974060C58.314758 753.570404,46.179337 782.859909,46.179337 813.404068C46.179337 843.948227,58.314758 873.237732,79.911118 894.834076C101.507462 916.430435,130.796967 928.565857,161.341125 928.565857C191.885284 928.565857,221.174789 916.430435,242.771133 894.834076C264.367493 873.237732,276.502914 843.948227,276.502914 813.404068Z" style="stroke:rgb(25.500488%,41.000366%,88.400269%); stroke-width: 2.500000;stroke-linecap: round;stroke-linejoin: round;stroke-miterlimit: 10.000000;fill: none;"></path>
  <path d="M287.493561 1094.814041C287.493561 1064.269882,275.358139 1034.980377,253.761780 1013.384033C232.165436 991.787674,202.875931 979.652252,172.331772 979.652252C141.787613 979.652252,112.498108 991.787674,90.901764 1013.384033C69.305405 1034.980377,57.169983 1064.269882,57.169983 1094.814041C57.169983 1125.358200,69.305405 1154.647705,90.901764 1176.244049C112.498108 1197.840408,141.787613 1209.975830,172.331772 1209.975830C202.875931 1209.975830,232.165436 1197.840408,253.761780 1176.244049C275.358139 1154.647705,287.493561 1125.358200,287.493561 1094.814041Z" style="stroke:rgb(25.500488%,41.000366%,88.400269%); stroke-width: 2.500000;stroke-linecap: round;stroke-linejoin: round;stroke-miterlimit: 10.000000;fill: none;"></path>
  <path d="M326.421494 1243.363007C326.421494 1212.818848,314.286072 1183.529343,292.689713 1161.932999C271.093369 1140.336639,241.803864 1128.201218,211.259705 1128.201218C180.715546 1128.201218,151.426041 1140.336639,129.829697 1161.932999C108.233337 1183.529343,96.097916 1212.818848,96.097916 1243.363007C96.097916 1273.907166,108.233337 1303.196671,129.829697 1324.793015C151.426041 1346.389374,180.715546 1358.524796,211.259705 1358.524796C241.803864 1358.524796,271.093369 1346.389374,292.689713 1324.793015C314.286072 1303.196671,326.421494 1273.907166,326.421494 1243.363007Z" style="stroke:rgb(25.500488%,41.000366%,88.400269%); stroke-width: 2.500000;stroke-linecap: round;stroke-linejoin: round;stroke-miterlimit: 10.000000;fill: none;"></path>
  <path d="M505.827332 347.839035C505.827332 317.294876,493.691910 288.005371,472.095551 266.409027C450.499207 244.812668,421.209702 232.677246,390.665543 232.677246C360.121384 232.677246,330.831879 244.812668,309.235535 266.409027C287.639175 288.005371,275.503754 317.294876,275.503754 347.839035C275.503754 378.383194,287.639175 407.672699,309.235535 429.269043C330.831879 450.865402,360.121384 463.000824,390.665543 463.000824C421.209702 463.000824,450.499207 450.865402,472.095551 429.269043C493.691910 407.672699,505.827332 378.383194,505.827332 347.839035Z" style="stroke:rgb(25.500488%,41.000366%,88.400269%); stroke-width: 2.500000;stroke-linecap: round;stroke-linejoin: round;stroke-miterlimit: 10.000000;fill: none;"></path>
  <path d="M478.902176 555.753098C478.902176 525.208939,466.766754 495.919434,445.170395 474.323090C423.574051 452.726730,394.284546 440.591309,363.740387 440.591309C333.196228 440.591309,303.906723 452.726730,282.310379 474.323090C260.714020 495.919434,248.578598 525.208939,248.578598 555.753098C248.578598 586.297256,260.714020 615.586761,282.310379 637.183105C303.906723 658.779465,333.196228 670.914886,363.740387 670.914886C394.284546 670.914886,423.574051 658.779465,445.170395 637.183105C466.766754 615.586761,478.902176 586.297256,478.902176 555.753098Z" style="stroke:rgb(25.500488%,41.000366%,88.400269%); stroke-width: 2.500000;stroke-linecap: round;stroke-linejoin: round;stroke-miterlimit: 10.000000;fill: none;"></path>
  <path d="M460.203796 745.319122C460.203796 714.774963,448.068375 685.485458,426.472015 663.889114C404.875671 642.292755,375.586166 630.157333,345.042007 630.157333C314.497849 630.157333,285.208344 642.292755,263.612000 663.889114C242.015640 685.485458,229.880219 714.774963,229.880219 745.319122C229.880219 775.863281,242.015640 805.152786,263.612000 826.749130C285.208344 848.345490,314.497849 860.480911,345.042007 860.480911C375.586166 860.480911,404.875671 848.345490,426.472015 826.749130C448.068375 805.152786,460.203796 775.863281,460.203796 745.319122Z" style="stroke:rgb(25.500488%,41.000366%,88.400269%); stroke-width: 2.500000;stroke-linecap: round;stroke-linejoin: round;stroke-miterlimit: 10.000000;fill: none;"></path>
  <path d="M439.935333 939.621368C439.935333 909.077209,427.799911 879.787704,406.203552 858.191360C384.607208 836.595001,355.317703 824.459579,324.773544 824.459579C294.229385 824.459579,264.939880 836.595001,243.343536 858.191360C221.747177 879.787704,209.611755 909.077209,209.611755 939.621368C209.611755 970.165527,221.747177 999.455032,243.343536 1021.051376C264.939880 1042.647736,294.229385 1054.783157,324.773544 1054.783157C355.317703 1054.783157,384.607208 1042.647736,406.203552 1021.051376C427.799911 999.455032,439.935333 970.165527,439.935333 939.621368Z" style="stroke:rgb(25.500488%,41.000366%,88.400269%); stroke-width: 2.500000;stroke-linecap: round;stroke-linejoin: round;stroke-miterlimit: 10.000000;fill: none;"></path>
  <path d="M475.320816 1121.855972C475.320816 1091.311813,463.185394 1062.022308,441.589035 1040.425964C419.992691 1018.829605,390.703186 1006.694183,360.159027 1006.694183C329.614868 1006.694183,300.325363 1018.829605,278.729019 1040.425964C257.132660 1062.022308,244.997238 1091.311813,244.997238 1121.855972C244.997238 1152.400131,257.132660 1181.689636,278.729019 1203.285980C300.325363 1224.882339,329.614868 1237.017761,360.159027 1237.017761C390.703186 1237.017761,419.992691 1224.882339,441.589035 1203.285980C463.185394 1181.689636,475.320816 1152.400131,475.320816 1121.855972Z" style="stroke:rgb(25.500488%,41.000366%,88.400269%); stroke-width: 2.500000;stroke-linecap: round;stroke-linejoin: round;stroke-miterlimit: 10.000000;fill: none;"></path>
  <path d="M520.944336 1314.665985C520.944336 1284.121826,508.808914 1254.832321,487.212555 1233.235977C465.616211 1211.639618,436.326706 1199.504196,405.782547 1199.504196C375.238388 1199.504196,345.948883 1211.639618,324.352539 1233.235977C302.756180 1254.832321,290.620758 1284.121826,290.620758 1314.665985C290.620758 1345.210144,302.756180 1374.499649,324.352539 1396.095993C345.948883 1417.692352,375.238388 1429.827774,405.782547 1429.827774C436.326706 1429.827774,465.616211 1417.692352,487.212555 1396.095993C508.808914 1374.499649,520.944336 1345.210144,520.944336 1314.665985Z" style="stroke:rgb(25.500488%,41.000366%,88.400269%); stroke-width: 2.500000;stroke-linecap: round;stroke-linejoin: round;stroke-miterlimit: 10.000000;fill: none;"></path>
  <path d="M628.411377 255.566879C628.411377 225.022720,616.275955 195.733215,594.679596 174.136871C573.083252 152.540512,543.793747 140.405090,513.249588 140.405090C482.705429 140.405090,453.415924 152.540512,431.819580 174.136871C410.223221 195.733215,398.087799 225.022720,398.087799 255.566879C398.087799 286.111038,410.223221 315.400543,431.819580 336.996887C453.415924 358.593246,482.705429 370.728668,513.249588 370.728668C543.793747 370.728668,573.083252 358.593246,594.679596 336.996887C616.275955 315.400543,628.411377 286.111038,628.411377 255.566879Z" style="stroke:rgb(25.500488%,41.000366%,88.400269%); stroke-width: 2.500000;stroke-linecap: round;stroke-linejoin: round;stroke-miterlimit: 10.000000;fill: none;"></path>
  <path d="M654.713669 452.970398C654.713669 422.426239,642.578247 393.136734,620.981888 371.540390C599.385544 349.944031,570.096039 337.808609,539.551880 337.808609C509.007721 337.808609,479.718216 349.944031,458.121872 371.540390C436.525513 393.136734,424.390091 422.426239,424.390091 452.970398C424.390091 483.514557,436.525513 512.804062,458.121872 534.400406C479.718216 555.996765,509.007721 568.132187,539.551880 568.132187C570.096039 568.132187,599.385544 555.996765,620.981888 534.400406C642.578247 512.804062,654.713669 483.514557,654.713669 452.970398Z" style="stroke:rgb(25.500488%,41.000366%,88.400269%); stroke-width: 2.500000;stroke-linecap: round;stroke-linejoin: round;stroke-miterlimit: 10.000000;fill: none;"></path>
  <path d="M649.017212 651.918045C649.017212 621.373886,636.881790 592.084381,615.285431 570.488037C593.689087 548.891678,564.399582 536.756256,533.855423 536.756256C503.311264 536.756256,474.021759 548.891678,452.425415 570.488037C430.829056 592.084381,418.693634 621.373886,418.693634 651.918045C418.693634 682.462204,430.829056 711.751709,452.425415 733.348053C474.021759 754.944412,503.311264 767.079834,533.855423 767.079834C564.399582 767.079834,593.689087 754.944412,615.285431 733.348053C636.881790 711.751709,649.017212 682.462204,649.017212 651.918045Z" style="stroke:rgb(25.500488%,41.000366%,88.400269%); stroke-width: 2.500000;stroke-linecap: round;stroke-linejoin: round;stroke-miterlimit: 10.000000;fill: none;"></path>
  <path d="M625.790222 843.832718C625.790222 813.288559,613.654800 783.999054,592.058441 762.402710C570.462097 740.806351,541.172592 728.670929,510.628433 728.670929C480.084274 728.670929,450.794769 740.806351,429.198425 762.402710C407.602066 783.999054,395.466644 813.288559,395.466644 843.832718C395.466644 874.376877,407.602066 903.666382,429.198425 925.262726C450.794769 946.859085,480.084274 958.994507,510.628433 958.994507C541.172592 958.994507,570.462097 946.859085,592.058441 925.262726C613.654800 903.666382,625.790222 874.376877,625.790222 843.832718Z" style="stroke:rgb(25.500488%,41.000366%,88.400269%); stroke-width: 2.500000;stroke-linecap: round;stroke-linejoin: round;stroke-miterlimit: 10.000000;fill: none;"></path>
  <path d="M636.417542 1016.114746C636.417542 985.570587,624.282120 956.281082,602.685760 934.684738C581.089417 913.088379,551.799911 900.952957,521.255753 900.952957C490.711594 900.952957,461.422089 913.088379,439.825745 934.684738C418.229385 956.281082,406.093964 985.570587,406.093964 1016.114746C406.093964 1046.658905,418.229385 1075.948410,439.825745 1097.544754C461.422089 1119.141113,490.711594 1131.276535,521.255753 1131.276535C551.799911 1131.276535,581.089417 1119.141113,602.685760 1097.544754C624.282120 1075.948410,636.417542 1046.658905,636.417542 1016.114746Z" style="stroke:rgb(25.500488%,41.000366%,88.400269%); stroke-width: 2.500000;stroke-linecap: round;stroke-linejoin: round;stroke-miterlimit: 10.000000;fill: none;"></path>
  <path d="M670.414597 1204.603775C670.414597 1174.059616,658.279175 1144.770111,636.682816 1123.173767C615.086472 1101.577408,585.796967 1089.441986,555.252808 1089.441986C524.708649 1089.441986,495.419144 1101.577408,473.822800 1123.173767C452.226440 1144.770111,440.091019 1174.059616,440.091019 1204.603775C440.091019 1235.147934,452.226440 1264.437439,473.822800 1286.033783C495.419144 1307.630142,524.708649 1319.765564,555.252808 1319.765564C585.796967 1319.765564,615.086472 1307.630142,636.682816 1286.033783C658.279175 1264.437439,670.414597 1235.147934,670.414597 1204.603775Z" style="stroke:rgb(25.500488%,41.000366%,88.400269%); stroke-width: 2.500000;stroke-linecap: round;stroke-linejoin: round;stroke-miterlimit: 10.000000;fill: none;"></path>
  <path d="M702.672882 1408.495270C702.672882 1377.951111,690.537460 1348.661606,668.941101 1327.065262C647.344757 1305.468903,618.055252 1293.333481,587.511093 1293.333481C556.966934 1293.333481,527.677429 1305.468903,506.081085 1327.065262C484.484726 1348.661606,472.349304 1377.951111,472.349304 1408.495270C472.349304 1439.039429,484.484726 1468.328934,506.081085 1489.925278C527.677429 1511.521637,556.966934 1523.657059,587.511093 1523.657059C618.055252 1523.657059,647.344757 1511.521637,668.941101 1489.925278C690.537460 1468.328934,702.672882 1439.039429,702.672882 1408.495270Z" style="stroke:rgb(25.500488%,41.000366%,88.400269%); stroke-width: 2.500000;stroke-linecap: round;stroke-linejoin: round;stroke-miterlimit: 10.000000;fill: none;"></path>
  <path d="M811.930588 368.782257C811.930588 338.238098,799.795166 308.948593,778.198807 287.352249C756.602463 265.755890,727.312958 253.620468,696.768799 253.620468C666.224640 253.620468,636.935135 265.755890,615.338791 287.352249C593.742432 308.948593,581.607010 338.238098,581.607010 368.782257C581.607010 399.326416,593.742432 428.615921,615.338791 450.212265C636.935135 471.808624,666.224640 483.944046,696.768799 483.944046C727.312958 483.944046,756.602463 471.808624,778.198807 450.212265C799.795166 428.615921,811.930588 399.326416,811.930588 368.782257Z" style="stroke:rgb(25.500488%,41.000366%,88.400269%); stroke-width: 2.500000;stroke-linecap: round;stroke-linejoin: round;stroke-miterlimit: 10.000000;fill: none;"></path>
  <path d="M824.945496 555.506546C824.945496 524.962387,812.810074 495.672882,791.213715 474.076538C769.617371 452.480179,740.327866 440.344757,709.783707 440.344757C679.239548 440.344757,649.950043 452.480179,628.353699 474.076538C606.757339 495.672882,594.621918 524.962387,594.621918 555.506546C594.621918 586.050705,606.757339 615.340210,628.353699 636.936554C649.950043 658.532913,679.239548 670.668335,709.783707 670.668335C740.327866 670.668335,769.617371 658.532913,791.213715 636.936554C812.810074 615.340210,824.945496 586.050705,824.945496 555.506546Z" style="stroke:rgb(25.500488%,41.000366%,88.400269%); stroke-width: 2.500000;stroke-linecap: round;stroke-linejoin: round;stroke-miterlimit: 10.000000;fill: none;"></path>
  <path d="M814.564713 749.705002C814.564713 719.160843,802.429291 689.871338,780.832932 668.274994C759.236588 646.678635,729.947083 634.543213,699.402924 634.543213C668.858765 634.543213,639.569260 646.678635,617.972916 668.274994C596.376556 689.871338,584.241135 719.160843,584.241135 749.705002C584.241135 780.249161,596.376556 809.538666,617.972916 831.135010C639.569260 852.731369,668.858765 864.866791,699.402924 864.866791C729.947083 864.866791,759.236588 852.731369,780.832932 831.135010C802.429291 809.538666,814.564713 780.249161,814.564713 749.705002Z" style="stroke:rgb(25.500488%,41.000366%,88.400269%); stroke-width: 2.500000;stroke-linecap: round;stroke-linejoin: round;stroke-miterlimit: 10.000000;fill: none;"></path>
  <path d="M814.577682 926.580521C814.577682 896.036362,802.442261 866.746857,780.845901 845.150513C759.249557 823.554153,729.960052 811.418732,699.415894 811.418732C668.871735 811.418732,639.582230 823.554153,617.985886 845.150513C596.389526 866.746857,584.254105 896.036362,584.254105 926.580521C584.254105 957.124680,596.389526 986.414185,617.985886 1008.010529C639.582230 1029.606888,668.871735 1041.742310,699.415894 1041.742310C729.960052 1041.742310,759.249557 1029.606888,780.845901 1008.010529C802.442261 986.414185,814.577682 957.124680,814.577682 926.580521Z" style="stroke:rgb(25.500488%,41.000366%,88.400269%); stroke-width: 2.500000;stroke-linecap: round;stroke-linejoin: round;stroke-miterlimit: 10.000000;fill: none;"></path>
  <path d="M831.316696 1105.739807C831.316696 1075.195648,819.181274 1045.906143,797.584915 1024.309799C775.988571 1002.713440,746.699066 990.578018,716.154907 990.578018C685.610748 990.578018,656.321243 1002.713440,634.724899 1024.309799C613.128540 1045.906143,600.993118 1075.195648,600.993118 1105.739807C600.993118 1136.283966,613.128540 1165.573471,634.724899 1187.169815C656.321243 1208.766174,685.610748 1220.901596,716.154907 1220.901596C746.699066 1220.901596,775.988571 1208.766174,797.584915 1187.169815C819.181274 1165.573471,831.316696 1136.283966,831.316696 1105.739807Z" style="stroke:rgb(25.500488%,41.000366%,88.400269%); stroke-width: 2.500000;stroke-linecap: round;stroke-linejoin: round;stroke-miterlimit: 10.000000;fill: none;"></path>
  <path d="M851.961472 1305.297333C851.961472 1274.753174,839.826050 1245.463669,818.229691 1223.867325C796.633347 1202.270966,767.343842 1190.135544,736.799683 1190.135544C706.255524 1190.135544,676.966019 1202.270966,655.369675 1223.867325C633.773315 1245.463669,621.637894 1274.753174,621.637894 1305.297333C621.637894 1335.841492,633.773315 1365.130997,655.369675 1386.727341C676.966019 1408.323700,706.255524 1420.459122,736.799683 1420.459122C767.343842 1420.459122,796.633347 1408.323700,818.229691 1386.727341C839.826050 1365.130997,851.961472 1335.841492,851.961472 1305.297333Z" style="stroke:rgb(25.500488%,41.000366%,88.400269%); stroke-width: 2.500000;stroke-linecap: round;stroke-linejoin: round;stroke-miterlimit: 10.000000;fill: none;"></path>
  <path d="M869.427139 1510.966553C869.427139 1480.422394,857.291718 1451.132889,835.695358 1429.536545C814.099014 1407.940186,784.809509 1395.804764,754.265350 1395.804764C723.721191 1395.804764,694.431686 1407.940186,672.835342 1429.536545C651.238983 1451.132889,639.103561 1480.422394,639.103561 1510.966553C639.103561 1541.510712,651.238983 1570.800217,672.835342 1592.396561C694.431686 1613.992920,723.721191 1626.128342,754.265350 1626.128342C784.809509 1626.128342,814.099014 1613.992920,835.695358 1592.396561C857.291718 1570.800217,869.427139 1541.510712,869.427139 1510.966553Z" style="stroke:rgb(25.500488%,41.000366%,88.400269%); stroke-width: 2.500000;stroke-linecap: round;stroke-linejoin: round;stroke-miterlimit: 10.000000;fill: none;"></path>
  <path d="M996.916092 286.916840C996.916092 256.372681,984.780670 227.083176,963.184311 205.486832C941.587967 183.890472,912.298462 171.755051,881.754303 171.755051C851.210144 171.755051,821.920639 183.890472,800.324295 205.486832C778.727936 227.083176,766.592514 256.372681,766.592514 286.916840C766.592514 317.460999,778.727936 346.750504,800.324295 368.346848C821.920639 389.943207,851.210144 402.078629,881.754303 402.078629C912.298462 402.078629,941.587967 389.943207,963.184311 368.346848C984.780670 346.750504,996.916092 317.460999,996.916092 286.916840Z" style="stroke:rgb(25.500488%,41.000366%,88.400269%); stroke-width: 2.500000;stroke-linecap: round;stroke-linejoin: round;stroke-miterlimit: 10.000000;fill: none;"></path>
  <path d="M1000.160095 466.880646C1000.160095 436.336487,988.024673 407.046982,966.428314 385.450638C944.831970 363.854279,915.542465 351.718857,884.998306 351.718857C854.454147 351.718857,825.164642 363.854279,803.568298 385.450638C781.971939 407.046982,769.836517 436.336487,769.836517 466.880646C769.836517 497.424805,781.971939 526.714310,803.568298 548.310654C825.164642 569.907013,854.454147 582.042435,884.998306 582.042435C915.542465 582.042435,944.831970 569.907013,966.428314 548.310654C988.024673 526.714310,1000.160095 497.424805,1000.160095 466.880646Z" style="stroke:rgb(25.500488%,41.000366%,88.400269%); stroke-width: 2.500000;stroke-linecap: round;stroke-linejoin: round;stroke-miterlimit: 10.000000;fill: none;"></path>
  <path d="M996.137543 665.283310C996.137543 634.739151,984.002121 605.449646,962.405762 583.853302C940.809418 562.256943,911.519913 550.121521,880.975754 550.121521C850.431595 550.121521,821.142090 562.256943,799.545746 583.853302C777.949387 605.449646,765.813965 634.739151,765.813965 665.283310C765.813965 695.827469,777.949387 725.116974,799.545746 746.713318C821.142090 768.309677,850.431595 780.445099,880.975754 780.445099C911.519913 780.445099,940.809418 768.309677,962.405762 746.713318C984.002121 725.116974,996.137543 695.827469,996.137543 665.283310Z" style="stroke:rgb(25.500488%,41.000366%,88.400269%); stroke-width: 2.500000;stroke-linecap: round;stroke-linejoin: round;stroke-miterlimit: 10.000000;fill: none;"></path>
  <path d="M998.836533 850.930588C998.836533 820.386429,986.701111 791.096924,965.104752 769.500580C943.508408 747.904221,914.218903 735.768799,883.674744 735.768799C853.130585 735.768799,823.841080 747.904221,802.244736 769.500580C780.648376 791.096924,768.512955 820.386429,768.512955 850.930588C768.512955 881.474747,780.648376 910.764252,802.244736 932.360596C823.841080 953.956955,853.130585 966.092377,883.674744 966.092377C914.218903 966.092377,943.508408 953.956955,965.104752 932.360596C986.701111 910.764252,998.836533 881.474747,998.836533 850.930588Z" style="stroke:rgb(25.500488%,41.000366%,88.400269%); stroke-width: 2.500000;stroke-linecap: round;stroke-linejoin: round;stroke-miterlimit: 10.000000;fill: none;"></path>
  <path d="M1005.999283 1027.572540C1005.999283 997.028381,993.863861 967.738876,972.267502 946.142532C950.671158 924.546173,921.381653 912.410751,890.837494 912.410751C860.293335 912.410751,831.003830 924.546173,809.407486 946.142532C787.811127 967.738876,775.675705 997.028381,775.675705 1027.572540C775.675705 1058.116699,787.811127 1087.406204,809.407486 1109.002548C831.003830 1130.598907,860.293335 1142.734329,890.837494 1142.734329C921.381653 1142.734329,950.671158 1130.598907,972.267502 1109.002548C993.863861 1087.406204,1005.999283 1058.116699,1005.999283 1027.572540Z" style="stroke:rgb(25.500488%,41.000366%,88.400269%); stroke-width: 2.500000;stroke-linecap: round;stroke-linejoin: round;stroke-miterlimit: 10.000000;fill: none;"></path>
  <path d="M1011.410263 1219.097931C1011.410263 1188.553772,999.274841 1159.264267,977.678482 1137.667923C956.082138 1116.071564,926.792633 1103.936142,896.248474 1103.936142C865.704315 1103.936142,836.414810 1116.071564,814.818466 1137.667923C793.222107 1159.264267,781.086685 1188.553772,781.086685 1219.097931C781.086685 1249.642090,793.222107 1278.931595,814.818466 1300.527939C836.414810 1322.124298,865.704315 1334.259720,896.248474 1334.259720C926.792633 1334.259720,956.082138 1322.124298,977.678482 1300.527939C999.274841 1278.931595,1011.410263 1249.642090,1011.410263 1219.097931Z" style="stroke:rgb(25.500488%,41.000366%,88.400269%); stroke-width: 2.500000;stroke-linecap: round;stroke-linejoin: round;stroke-miterlimit: 10.000000;fill: none;"></path>
  <path d="M1025.112885 1423.210022C1025.112885 1392.665863,1012.977463 1363.376358,991.381104 1341.780014C969.784760 1320.183655,940.495255 1308.048233,909.951096 1308.048233C879.406937 1308.048233,850.117432 1320.183655,828.521088 1341.780014C806.924728 1363.376358,794.789307 1392.665863,794.789307 1423.210022C794.789307 1453.754181,806.924728 1483.043686,828.521088 1504.640030C850.117432 1526.236389,879.406937 1538.371811,909.951096 1538.371811C940.495255 1538.371811,969.784760 1526.236389,991.381104 1504.640030C1012.977463 1483.043686,1025.112885 1453.754181,1025.112885 1423.210022Z" style="stroke:rgb(25.500488%,41.000366%,88.400269%); stroke-width: 2.500000;stroke-linecap: round;stroke-linejoin: round;stroke-miterlimit: 10.000000;fill: none;"></path>
  <path d="M1024.087784 1637.923492C1024.087784 1607.379333,1011.952362 1578.089828,990.356003 1556.493484C968.759659 1534.897125,939.470154 1522.761703,908.925995 1522.761703C878.381836 1522.761703,849.092331 1534.897125,827.495987 1556.493484C805.899628 1578.089828,793.764206 1607.379333,793.764206 1637.923492C793.764206 1668.467651,805.899628 1697.757156,827.495987 1719.353500C849.092331 1740.949860,878.381836 1753.085281,908.925995 1753.085281C939.470154 1753.085281,968.759659 1740.949860,990.356003 1719.353500C1011.952362 1697.757156,1024.087784 1668.467651,1024.087784 1637.923492Z" style="stroke:rgb(25.500488%,41.000366%,88.400269%); stroke-width: 2.500000;stroke-linecap: round;stroke-linejoin: round;stroke-miterlimit: 10.000000;fill: none;"></path>
  <path d="M1185.015839 364.759705C1185.015839 334.215546,1172.880417 304.926041,1151.284058 283.329697C1129.687714 261.733337,1100.398209 249.597916,1069.854050 249.597916C1039.309891 249.597916,1010.020386 261.733337,988.424042 283.329697C966.827682 304.926041,954.692261 334.215546,954.692261 364.759705C954.692261 395.303864,966.827682 424.593369,988.424042 446.189713C1010.020386 467.786072,1039.309891 479.921494,1069.854050 479.921494C1100.398209 479.921494,1129.687714 467.786072,1151.284058 446.189713C1172.880417 424.593369,1185.015839 395.303864,1185.015839 364.759705Z" style="stroke:rgb(25.500488%,41.000366%,88.400269%); stroke-width: 2.500000;stroke-linecap: round;stroke-linejoin: round;stroke-miterlimit: 10.000000;fill: none;"></path>
  <path d="M1171.235352 556.427841C1171.235352 525.883682,1159.099930 496.594177,1137.503571 474.997833C1115.907227 453.401474,1086.617722 441.266052,1056.073563 441.266052C1025.529404 441.266052,996.239899 453.401474,974.643555 474.997833C953.047195 496.594177,940.911774 525.883682,940.911774 556.427841C940.911774 586.972000,953.047195 616.261505,974.643555 637.857849C996.239899 659.454208,1025.529404 671.589630,1056.073563 671.589630C1086.617722 671.589630,1115.907227 659.454208,1137.503571 637.857849C1159.099930 616.261505,1171.235352 586.972000,1171.235352 556.427841Z" style="stroke:rgb(25.500488%,41.000366%,88.400269%); stroke-width: 2.500000;stroke-linecap: round;stroke-linejoin: round;stroke-miterlimit: 10.000000;fill: none;"></path>
  <path d="M1180.279602 746.292313C1180.279602 715.748154,1168.144180 686.458649,1146.547821 664.862305C1124.951477 643.265945,1095.661972 631.130524,1065.117813 631.130524C1034.573654 631.130524,1005.284149 643.265945,983.687805 664.862305C962.091446 686.458649,949.956024 715.748154,949.956024 746.292313C949.956024 776.836472,962.091446 806.125977,983.687805 827.722321C1005.284149 849.318680,1034.573654 861.454102,1065.117813 861.454102C1095.661972 861.454102,1124.951477 849.318680,1146.547821 827.722321C1168.144180 806.125977,1180.279602 776.836472,1180.279602 746.292313Z" style="stroke:rgb(25.500488%,41.000366%,88.400269%); stroke-width: 2.500000;stroke-linecap: round;stroke-linejoin: round;stroke-miterlimit: 10.000000;fill: none;"></path>
  <path d="M1190.608475 923.375458C1190.608475 892.831299,1178.473053 863.541794,1156.876694 841.945450C1135.280350 820.349091,1105.990845 808.213669,1075.446686 808.213669C1044.902527 808.213669,1015.613022 820.349091,994.016678 841.945450C972.420319 863.541794,960.284897 892.831299,960.284897 923.375458C960.284897 953.919617,972.420319 983.209122,994.016678 1004.805466C1015.613022 1026.401825,1044.902527 1038.537247,1075.446686 1038.537247C1105.990845 1038.537247,1135.280350 1026.401825,1156.876694 1004.805466C1178.473053 983.209122,1190.608475 953.919617,1190.608475 923.375458Z" style="stroke:rgb(25.500488%,41.000366%,88.400269%); stroke-width: 2.500000;stroke-linecap: round;stroke-linejoin: round;stroke-miterlimit: 10.000000;fill: none;"></path>
  <path d="M1185.690582 1099.887650C1185.690582 1069.343491,1173.555161 1040.053986,1151.958801 1018.457642C1130.362457 996.861282,1101.072952 984.725861,1070.528793 984.725861C1039.984634 984.725861,1010.695129 996.861282,989.098785 1018.457642C967.502426 1040.053986,955.367004 1069.343491,955.367004 1099.887650C955.367004 1130.431808,967.502426 1159.721313,989.098785 1181.317657C1010.695129 1202.914017,1039.984634 1215.049438,1070.528793 1215.049438C1101.072952 1215.049438,1130.362457 1202.914017,1151.958801 1181.317657C1173.555161 1159.721313,1185.690582 1130.431808,1185.690582 1099.887650Z" style="stroke:rgb(25.500488%,41.000366%,88.400269%); stroke-width: 2.500000;stroke-linecap: round;stroke-linejoin: round;stroke-miterlimit: 10.000000;fill: none;"></path>
  <path d="M1183.471695 1292.593857C1183.471695 1262.049698,1171.336273 1232.760193,1149.739914 1211.163849C1128.143570 1189.567490,1098.854065 1177.432068,1068.309906 1177.432068C1037.765747 1177.432068,1008.476242 1189.567490,986.879898 1211.163849C965.283539 1232.760193,953.148117 1262.049698,953.148117 1292.593857C953.148117 1323.138016,965.283539 1352.427521,986.879898 1374.023865C1008.476242 1395.620224,1037.765747 1407.755646,1068.309906 1407.755646C1098.854065 1407.755646,1128.143570 1395.620224,1149.739914 1374.023865C1171.336273 1352.427521,1183.471695 1323.138016,1183.471695 1292.593857Z" style="stroke:rgb(25.500488%,41.000366%,88.400269%); stroke-width: 2.500000;stroke-linecap: round;stroke-linejoin: round;stroke-miterlimit: 10.000000;fill: none;"></path>
  <path d="M1177.217270 1499.898041C1177.217270 1469.353882,1165.081848 1440.064377,1143.485489 1418.468033C1121.889145 1396.871674,1092.599640 1384.736252,1062.055481 1384.736252C1031.511322 1384.736252,1002.221817 1396.871674,980.625473 1418.468033C959.029114 1440.064377,946.893692 1469.353882,946.893692 1499.898041C946.893692 1530.442200,959.029114 1559.731705,980.625473 1581.328049C1002.221817 1602.924408,1031.511322 1615.059830,1062.055481 1615.059830C1092.599640 1615.059830,1121.889145 1602.924408,1143.485489 1581.328049C1165.081848 1559.731705,1177.217270 1530.442200,1177.217270 1499.898041Z" style="stroke:rgb(25.500488%,41.000366%,88.400269%); stroke-width: 2.500000;stroke-linecap: round;stroke-linejoin: round;stroke-miterlimit: 10.000000;fill: none;"></path>
  <path d="M1367.406143 252.828949C1367.406143 222.284790,1355.270721 192.995285,1333.674362 171.398941C1312.078018 149.802582,1282.788513 137.667160,1252.244354 137.667160C1221.700195 137.667160,1192.410690 149.802582,1170.814346 171.398941C1149.217987 192.995285,1137.082565 222.284790,1137.082565 252.828949C1137.082565 283.373108,1149.217987 312.662613,1170.814346 334.258957C1192.410690 355.855316,1221.700195 367.990738,1252.244354 367.990738C1282.788513 367.990738,1312.078018 355.855316,1333.674362 334.258957C1355.270721 312.662613,1367.406143 283.373108,1367.406143 252.828949Z" style="stroke:rgb(25.500488%,41.000366%,88.400269%); stroke-width: 2.500000;stroke-linecap: round;stroke-linejoin: round;stroke-miterlimit: 10.000000;fill: none;"></path>
  <path d="M1340.130646 452.464325C1340.130646 421.920166,1327.995224 392.630661,1306.398865 371.034317C1284.802521 349.437958,1255.513016 337.302536,1224.968857 337.302536C1194.424698 337.302536,1165.135193 349.437958,1143.538849 371.034317C1121.942490 392.630661,1109.807068 421.920166,1109.807068 452.464325C1109.807068 483.008484,1121.942490 512.297989,1143.538849 533.894333C1165.135193 555.490692,1194.424698 567.626114,1224.968857 567.626114C1255.513016 567.626114,1284.802521 555.490692,1306.398865 533.894333C1327.995224 512.297989,1340.130646 483.008484,1340.130646 452.464325Z" style="stroke:rgb(25.500488%,41.000366%,88.400269%); stroke-width: 2.500000;stroke-linecap: round;stroke-linejoin: round;stroke-miterlimit: 10.000000;fill: none;"></path>
  <path d="M1355.857529 646.156708C1355.857529 615.612549,1343.722107 586.323044,1322.125748 564.726700C1300.529404 543.130341,1271.239899 530.994919,1240.695740 530.994919C1210.151581 530.994919,1180.862076 543.130341,1159.265732 564.726700C1137.669373 586.323044,1125.533951 615.612549,1125.533951 646.156708C1125.533951 676.700867,1137.669373 705.990372,1159.265732 727.586716C1180.862076 749.183075,1210.151581 761.318497,1240.695740 761.318497C1271.239899 761.318497,1300.529404 749.183075,1322.125748 727.586716C1343.722107 705.990372,1355.857529 676.700867,1355.857529 646.156708Z" style="stroke:rgb(25.500488%,41.000366%,88.400269%); stroke-width: 2.500000;stroke-linecap: round;stroke-linejoin: round;stroke-miterlimit: 10.000000;fill: none;"></path>
  <path d="M1373.907104 828.456192C1373.907104 797.912033,1361.771683 768.622528,1340.175323 747.026184C1318.578979 725.429825,1289.289474 713.294403,1258.745316 713.294403C1228.201157 713.294403,1198.911652 725.429825,1177.315308 747.026184C1155.718948 768.622528,1143.583527 797.912033,1143.583527 828.456192C1143.583527 859.000351,1155.718948 888.289856,1177.315308 909.886200C1198.911652 931.482559,1228.201157 943.617981,1258.745316 943.617981C1289.289474 943.617981,1318.578979 931.482559,1340.175323 909.886200C1361.771683 888.289856,1373.907104 859.000351,1373.907104 828.456192Z" style="stroke:rgb(25.500488%,41.000366%,88.400269%); stroke-width: 2.500000;stroke-linecap: round;stroke-linejoin: round;stroke-miterlimit: 10.000000;fill: none;"></path>
  <path d="M1376.606110 1001.841171C1376.606110 971.297012,1364.470688 942.007507,1342.874329 920.411163C1321.277985 898.814804,1291.988480 886.679382,1261.444321 886.679382C1230.900162 886.679382,1201.610657 898.814804,1180.014313 920.411163C1158.417953 942.007507,1146.282532 971.297012,1146.282532 1001.841171C1146.282532 1032.385330,1158.417953 1061.674835,1180.014313 1083.271179C1201.610657 1104.867538,1230.900162 1117.002960,1261.444321 1117.002960C1291.988480 1117.002960,1321.277985 1104.867538,1342.874329 1083.271179C1364.470688 1061.674835,1376.606110 1032.385330,1376.606110 1001.841171Z" style="stroke:rgb(25.500488%,41.000366%,88.400269%); stroke-width: 2.500000;stroke-linecap: round;stroke-linejoin: round;stroke-miterlimit: 10.000000;fill: none;"></path>
  <path d="M1362.189804 1185.100876C1362.189804 1154.556717,1350.054382 1125.267212,1328.458023 1103.670868C1306.861679 1082.074509,1277.572174 1069.939087,1247.028015 1069.939087C1216.483856 1069.939087,1187.194351 1082.074509,1165.598007 1103.670868C1144.001648 1125.267212,1131.866226 1154.556717,1131.866226 1185.100876C1131.866226 1215.645035,1144.001648 1244.934540,1165.598007 1266.530884C1187.194351 1288.127243,1216.483856 1300.262665,1247.028015 1300.262665C1277.572174 1300.262665,1306.861679 1288.127243,1328.458023 1266.530884C1350.054382 1244.934540,1362.189804 1215.645035,1362.189804 1185.100876Z" style="stroke:rgb(25.500488%,41.000366%,88.400269%); stroke-width: 2.500000;stroke-linecap: round;stroke-linejoin: round;stroke-miterlimit: 10.000000;fill: none;"></path>
  <path d="M1344.944733 1385.891113C1344.944733 1355.346954,1332.809311 1326.057449,1311.212952 1304.461105C1289.616608 1282.864746,1260.327103 1270.729324,1229.782944 1270.729324C1199.238785 1270.729324,1169.949280 1282.864746,1148.352936 1304.461105C1126.756577 1326.057449,1114.621155 1355.346954,1114.621155 1385.891113C1114.621155 1416.435272,1126.756577 1445.724777,1148.352936 1467.321121C1169.949280 1488.917480,1199.238785 1501.052902,1229.782944 1501.052902C1260.327103 1501.052902,1289.616608 1488.917480,1311.212952 1467.321121C1332.809311 1445.724777,1344.944733 1416.435272,1344.944733 1385.891113Z" style="stroke:rgb(25.500488%,41.000366%,88.400269%); stroke-width: 2.500000;stroke-linecap: round;stroke-linejoin: round;stroke-miterlimit: 10.000000;fill: none;"></path>
  <path d="M1489.510071 347.916901C1489.510071 317.372742,1477.374649 288.083237,1455.778290 266.486893C1434.181946 244.890533,1404.892441 232.755112,1374.348282 232.755112C1343.804123 232.755112,1314.514618 244.890533,1292.918274 266.486893C1271.321915 288.083237,1259.186493 317.372742,1259.186493 347.916901C1259.186493 378.461060,1271.321915 407.750565,1292.918274 429.346909C1314.514618 450.943268,1343.804123 463.078690,1374.348282 463.078690C1404.892441 463.078690,1434.181946 450.943268,1455.778290 429.346909C1477.374649 407.750565,1489.510071 378.461060,1489.510071 347.916901Z" style="stroke:rgb(25.500488%,41.000366%,88.400269%); stroke-width: 2.500000;stroke-linecap: round;stroke-linejoin: round;stroke-miterlimit: 10.000000;fill: none;"></path>
  <path d="M1519.821945 553.131943C1519.821945 522.587784,1507.686523 493.298279,1486.090164 471.701935C1464.493820 450.105576,1435.204315 437.970154,1404.660156 437.970154C1374.115997 437.970154,1344.826492 450.105576,1323.230148 471.701935C1301.633789 493.298279,1289.498367 522.587784,1289.498367 553.131943C1289.498367 583.676102,1301.633789 612.965607,1323.230148 634.561951C1344.826492 656.158310,1374.115997 668.293732,1404.660156 668.293732C1435.204315 668.293732,1464.493820 656.158310,1486.090164 634.561951C1507.686523 612.965607,1519.821945 583.676102,1519.821945 553.131943Z" style="stroke:rgb(25.500488%,41.000366%,88.400269%); stroke-width: 2.500000;stroke-linecap: round;stroke-linejoin: round;stroke-miterlimit: 10.000000;fill: none;"></path>
  <path d="M1548.978973 741.452286C1548.978973 710.908127,1536.843552 681.618622,1515.247192 660.022278C1493.650848 638.425919,1464.361343 626.290497,1433.817184 626.290497C1403.273026 626.290497,1373.983521 638.425919,1352.387177 660.022278C1330.790817 681.618622,1318.655396 710.908127,1318.655396 741.452286C1318.655396 771.996445,1330.790817 801.285950,1352.387177 822.882294C1373.983521 844.478653,1403.273026 856.614075,1433.817184 856.614075C1464.361343 856.614075,1493.650848 844.478653,1515.247192 822.882294C1536.843552 801.285950,1548.978973 771.996445,1548.978973 741.452286Z" style="stroke:rgb(25.500488%,41.000366%,88.400269%); stroke-width: 2.500000;stroke-linecap: round;stroke-linejoin: round;stroke-miterlimit: 10.000000;fill: none;"></path>
  <path d="M1565.964523 921.325256C1565.964523 890.781097,1553.829102 861.491592,1532.232742 839.895248C1510.636398 818.298889,1481.346893 806.163467,1450.802734 806.163467C1420.258575 806.163467,1390.969070 818.298889,1369.372726 839.895248C1347.776367 861.491592,1335.640945 890.781097,1335.640945 921.325256C1335.640945 951.869415,1347.776367 981.158920,1369.372726 1002.755264C1390.969070 1024.351624,1420.258575 1036.487045,1450.802734 1036.487045C1481.346893 1036.487045,1510.636398 1024.351624,1532.232742 1002.755264C1553.829102 981.158920,1565.964523 951.869415,1565.964523 921.325256Z" style="stroke:rgb(25.500488%,41.000366%,88.400269%); stroke-width: 2.500000;stroke-linecap: round;stroke-linejoin: round;stroke-miterlimit: 10.000000;fill: none;"></path>
  <path d="M1553.170212 1087.651306C1553.170212 1057.107147,1541.034790 1027.817642,1519.438431 1006.221298C1497.842087 984.624939,1468.552582 972.489517,1438.008423 972.489517C1407.464264 972.489517,1378.174759 984.624939,1356.578415 1006.221298C1334.982056 1027.817642,1322.846634 1057.107147,1322.846634 1087.651306C1322.846634 1118.195465,1334.982056 1147.484970,1356.578415 1169.081314C1378.174759 1190.677673,1407.464264 1202.813095,1438.008423 1202.813095C1468.552582 1202.813095,1497.842087 1190.677673,1519.438431 1169.081314C1541.034790 1147.484970,1553.170212 1118.195465,1553.170212 1087.651306Z" style="stroke:rgb(25.500488%,41.000366%,88.400269%); stroke-width: 2.500000;stroke-linecap: round;stroke-linejoin: round;stroke-miterlimit: 10.000000;fill: none;"></path>
  <path d="M1523.714752 1279.008011C1523.714752 1248.463852,1511.579330 1219.174347,1489.982971 1197.578003C1468.386627 1175.981644,1439.097122 1163.846222,1408.552963 1163.846222C1378.008804 1163.846222,1348.719299 1175.981644,1327.122955 1197.578003C1305.526596 1219.174347,1293.391174 1248.463852,1293.391174 1279.008011C1293.391174 1309.552170,1305.526596 1338.841675,1327.122955 1360.438019C1348.719299 1382.034378,1378.008804 1394.169800,1408.552963 1394.169800C1439.097122 1394.169800,1468.386627 1382.034378,1489.982971 1360.438019C1511.579330 1338.841675,1523.714752 1309.552170,1523.714752 1279.008011Z" style="stroke:rgb(25.500488%,41.000366%,88.400269%); stroke-width: 2.500000;stroke-linecap: round;stroke-linejoin: round;stroke-miterlimit: 10.000000;fill: none;"></path>
  <path d="M1712.294601 653.877426C1712.294601 623.333267,1700.159180 594.043762,1678.562820 572.447418C1656.966476 550.851059,1627.676971 538.715637,1597.132812 538.715637C1566.588654 538.715637,1537.299149 550.851059,1515.702805 572.447418C1494.106445 594.043762,1481.971024 623.333267,1481.971024 653.877426C1481.971024 684.421585,1494.106445 713.711090,1515.702805 735.307434C1537.299149 756.903793,1566.588654 769.039215,1597.132812 769.039215C1627.676971 769.039215,1656.966476 756.903793,1678.562820 735.307434C1700.159180 713.711090,1712.294601 684.421585,1712.294601 653.877426Z" style="stroke:rgb(25.500488%,41.000366%,88.400269%); stroke-width: 2.500000;stroke-linecap: round;stroke-linejoin: round;stroke-miterlimit: 10.000000;fill: none;"></path>
  <path d="M1743.164444 836.228806C1743.164444 805.684647,1731.029022 776.395142,1709.432663 754.798798C1687.836319 733.202438,1658.546814 721.067017,1628.002655 721.067017C1597.458496 721.067017,1568.168991 733.202438,1546.572647 754.798798C1524.976288 776.395142,1512.840866 805.684647,1512.840866 836.228806C1512.840866 866.772964,1524.976288 896.062469,1546.572647 917.658813C1568.168991 939.255173,1597.458496 951.390594,1628.002655 951.390594C1658.546814 951.390594,1687.836319 939.255173,1709.432663 917.658813C1731.029022 896.062469,1743.164444 866.772964,1743.164444 836.228806Z" style="stroke:rgb(25.500488%,41.000366%,88.400269%); stroke-width: 2.500000;stroke-linecap: round;stroke-linejoin: round;stroke-miterlimit: 10.000000;fill: none;"></path>
  <path d="M1753.882599 1012.689087C1753.882599 982.144928,1741.747177 952.855423,1720.150818 931.259079C1698.554474 909.662720,1669.264969 897.527298,1638.720810 897.527298C1608.176651 897.527298,1578.887146 909.662720,1557.290802 931.259079C1535.694443 952.855423,1523.559021 982.144928,1523.559021 1012.689087C1523.559021 1043.233246,1535.694443 1072.522751,1557.290802 1094.119095C1578.887146 1115.715454,1608.176651 1127.850876,1638.720810 1127.850876C1669.264969 1127.850876,1698.554474 1115.715454,1720.150818 1094.119095C1741.747177 1072.522751,1753.882599 1043.233246,1753.882599 1012.689087Z" style="stroke:rgb(25.500488%,41.000366%,88.400269%); stroke-width: 2.500000;stroke-linecap: round;stroke-linejoin: round;stroke-miterlimit: 10.000000;fill: none;"></path>
  <path d="M1714.889786 1183.803284C1714.889786 1153.259125,1702.754364 1123.969620,1681.158005 1102.373276C1659.561661 1080.776917,1630.272156 1068.641495,1599.727997 1068.641495C1569.183838 1068.641495,1539.894333 1080.776917,1518.297989 1102.373276C1496.701630 1123.969620,1484.566208 1153.259125,1484.566208 1183.803284C1484.566208 1214.347443,1496.701630 1243.636948,1518.297989 1265.233292C1539.894333 1286.829651,1569.183838 1298.965073,1599.727997 1298.965073C1630.272156 1298.965073,1659.561661 1286.829651,1681.158005 1265.233292C1702.754364 1243.636948,1714.889786 1214.347443,1714.889786 1183.803284Z" style="stroke:rgb(25.500488%,41.000366%,88.400269%); stroke-width: 2.500000;stroke-linecap: round;stroke-linejoin: round;stroke-miterlimit: 10.000000;fill: none;"></path>
  <path d="M1188.026260 189.960342C1188.026260 159.416183,1175.890839 130.126678,1154.294479 108.530334C1132.698135 86.933975,1103.408630 74.798553,1072.864471 74.798553C1042.320312 74.798553,1013.030807 86.933975,991.434464 108.530334C969.838104 130.126678,957.702682 159.416183,957.702682 189.960342C957.702682 220.504501,969.838104 249.794006,991.434464 271.390350C1013.030807 292.986710,1042.320312 305.122131,1072.864471 305.122131C1103.408630 305.122131,1132.698135 292.986710,1154.294479 271.390350C1175.890839 249.794006,1188.026260 220.504501,1188.026260 189.960342Z" style="stroke:rgb(25.500488%,41.000366%,88.400269%); stroke-width: 2.500000;stroke-linecap: round;stroke-linejoin: round;stroke-miterlimit: 10.000000;fill: none;"></path>
  <path d="M704.152145 1615.137680C704.152145 1584.593521,692.016724 1555.304016,670.420364 1533.707672C648.824020 1512.111313,619.534515 1499.975891,588.990356 1499.975891C558.446198 1499.975891,529.156693 1512.111313,507.560349 1533.707672C485.963989 1555.304016,473.828568 1584.593521,473.828568 1615.137680C473.828568 1645.681839,485.963989 1674.971344,507.560349 1696.567688C529.156693 1718.164047,558.446198 1730.299469,588.990356 1730.299469C619.534515 1730.299469,648.824020 1718.164047,670.420364 1696.567688C692.016724 1674.971344,704.152145 1645.681839,704.152145 1615.137680Z" style="stroke:rgb(25.500488%,41.000366%,88.400269%); stroke-width: 2.500000;stroke-linecap: round;stroke-linejoin: round;stroke-miterlimit: 10.000000;fill: none;"></path>
  <path d="M1350.044296 1587.369095C1350.044296 1556.824936,1337.908875 1527.535431,1316.312515 1505.939087C1294.716171 1484.342728,1265.426666 1472.207306,1234.882507 1472.207306C1204.338348 1472.207306,1175.048843 1484.342728,1153.452499 1505.939087C1131.856140 1527.535431,1119.720718 1556.824936,1119.720718 1587.369095C1119.720718 1617.913254,1131.856140 1647.202759,1153.452499 1668.799103C1175.048843 1690.395462,1204.338348 1702.530884,1234.882507 1702.530884C1265.426666 1702.530884,1294.716171 1690.395462,1316.312515 1668.799103C1337.908875 1647.202759,1350.044296 1617.913254,1350.044296 1587.369095Z" style="stroke:rgb(25.500488%,41.000366%,88.400269%); stroke-width: 2.500000;stroke-linecap: round;stroke-linejoin: round;stroke-miterlimit: 10.000000;fill: none;"></path>
  <path d="M804.884628 192.101379C804.884628 161.557220,792.749207 132.267715,771.152847 110.671371C749.556503 89.075012,720.266998 76.939590,689.722839 76.939590C659.178680 76.939590,629.889175 89.075012,608.292831 110.671371C586.696472 132.267715,574.561050 161.557220,574.561050 192.101379C574.561050 222.645538,586.696472 251.935043,608.292831 273.531387C629.889175 295.127747,659.178680 307.263168,689.722839 307.263168C720.266998 307.263168,749.556503 295.127747,771.152847 273.531387C792.749207 251.935043,804.884628 222.645538,804.884628 192.101379Z" style="stroke:rgb(25.500488%,41.000366%,88.400269%); stroke-width: 2.500000;stroke-linecap: round;stroke-linejoin: round;stroke-miterlimit: 10.000000;fill: none;"></path>
  <path d="M556.135193 1519.439865C556.135193 1488.895706,543.999771 1459.606201,522.403412 1438.009857C500.807068 1416.413498,471.517563 1404.278076,440.973404 1404.278076C410.429245 1404.278076,381.139740 1416.413498,359.543396 1438.009857C337.947037 1459.606201,325.811615 1488.895706,325.811615 1519.439865C325.811615 1549.984024,337.947037 1579.273529,359.543396 1600.869873C381.139740 1622.466232,410.429245 1634.601654,440.973404 1634.601654C471.517563 1634.601654,500.807068 1622.466232,522.403412 1600.869873C543.999771 1579.273529,556.135193 1549.984024,556.135193 1519.439865Z" style="stroke:rgb(25.500488%,41.000366%,88.400269%); stroke-width: 2.500000;stroke-linecap: round;stroke-linejoin: round;stroke-miterlimit: 10.000000;fill: none;"></path>
  <path d="M1500.565598 1482.250717C1500.565598 1451.706558,1488.430176 1422.417053,1466.833817 1400.820709C1445.237473 1379.224350,1415.947968 1367.088928,1385.403809 1367.088928C1354.859650 1367.088928,1325.570145 1379.224350,1303.973801 1400.820709C1282.377441 1422.417053,1270.242020 1451.706558,1270.242020 1482.250717C1270.242020 1512.794876,1282.377441 1542.084381,1303.973801 1563.680725C1325.570145 1585.277084,1354.859650 1597.412506,1385.403809 1597.412506C1415.947968 1597.412506,1445.237473 1585.277084,1466.833817 1563.680725C1488.430176 1542.084381,1500.565598 1512.794876,1500.565598 1482.250717Z" style="stroke:rgb(25.500488%,41.000366%,88.400269%); stroke-width: 2.500000;stroke-linecap: round;stroke-linejoin: round;stroke-miterlimit: 10.000000;fill: none;"></path>
  <path d="M853.492645 1718.530243C853.492645 1687.986084,841.357224 1658.696579,819.760864 1637.100235C798.164520 1615.503876,768.875015 1603.368454,738.330856 1603.368454C707.786697 1603.368454,678.497192 1615.503876,656.900848 1637.100235C635.304489 1658.696579,623.169067 1687.986084,623.169067 1718.530243C623.169067 1749.074402,635.304489 1778.363907,656.900848 1799.960251C678.497192 1821.556610,707.786697 1833.692032,738.330856 1833.692032C768.875015 1833.692032,798.164520 1821.556610,819.760864 1799.960251C841.357224 1778.363907,853.492645 1749.074402,853.492645 1718.530243Z" style="stroke:rgb(25.500488%,41.000366%,88.400269%); stroke-width: 2.500000;stroke-linecap: round;stroke-linejoin: round;stroke-miterlimit: 10.000000;fill: none;"></path>
  <path d="M1666.593216 468.113358C1666.593216 437.569199,1654.457794 408.279694,1632.861435 386.683350C1611.265091 365.086990,1581.975586 352.951569,1551.431427 352.951569C1520.887268 352.951569,1491.597763 365.086990,1470.001419 386.683350C1448.405060 408.279694,1436.269638 437.569199,1436.269638 468.113358C1436.269638 498.657516,1448.405060 527.947021,1470.001419 549.543365C1491.597763 571.139725,1520.887268 583.275146,1551.431427 583.275146C1581.975586 583.275146,1611.265091 571.139725,1632.861435 549.543365C1654.457794 527.947021,1666.593216 498.657516,1666.593216 468.113358Z" style="stroke:rgb(25.500488%,41.000366%,88.400269%); stroke-width: 2.500000;stroke-linecap: round;stroke-linejoin: round;stroke-miterlimit: 10.000000;fill: none;"></path>
  <path d="M378.935272 1438.093475C378.935272 1407.549316,366.799850 1378.259811,345.203491 1356.663467C323.607147 1335.067108,294.317642 1322.931686,263.773483 1322.931686C233.229324 1322.931686,203.939819 1335.067108,182.343475 1356.663467C160.747116 1378.259811,148.611694 1407.549316,148.611694 1438.093475C148.611694 1468.637634,160.747116 1497.927139,182.343475 1519.523483C203.939819 1541.119843,233.229324 1553.255264,263.773483 1553.255264C294.317642 1553.255264,323.607147 1541.119843,345.203491 1519.523483C366.799850 1497.927139,378.935272 1468.637634,378.935272 1438.093475Z" style="stroke:rgb(25.500488%,41.000366%,88.400269%); stroke-width: 2.500000;stroke-linecap: round;stroke-linejoin: round;stroke-miterlimit: 10.000000;fill: none;"></path>
  <path d="M1191.737396 1705.735931C1191.737396 1675.191772,1179.601974 1645.902267,1158.005615 1624.305923C1136.409271 1602.709564,1107.119766 1590.574142,1076.575607 1590.574142C1046.031448 1590.574142,1016.741943 1602.709564,995.145599 1624.305923C973.549240 1645.902267,961.413818 1675.191772,961.413818 1705.735931C961.413818 1736.280090,973.549240 1765.569595,995.145599 1787.165939C1016.741943 1808.762299,1046.031448 1820.897720,1076.575607 1820.897720C1107.119766 1820.897720,1136.409271 1808.762299,1158.005615 1787.165939C1179.601974 1765.569595,1191.737396 1736.280090,1191.737396 1705.735931Z" style="stroke:rgb(25.500488%,41.000366%,88.400269%); stroke-width: 2.500000;stroke-linecap: round;stroke-linejoin: round;stroke-miterlimit: 10.000000;fill: none;"></path>
  <path d="M332.857574 471.526031C332.857574 440.981873,320.722153 411.692368,299.125793 390.096024C277.529449 368.499664,248.239944 356.364243,217.695786 356.364243C187.151627 356.364243,157.862122 368.499664,136.265778 390.096024C114.669418 411.692368,102.533997 440.981873,102.533997 471.526031C102.533997 502.070190,114.669418 531.359695,136.265778 552.956039C157.862122 574.552399,187.151627 586.687820,217.695786 586.687820C248.239944 586.687820,277.529449 574.552399,299.125793 552.956039C320.722153 531.359695,332.857574 502.070190,332.857574 471.526031Z" style="stroke:rgb(25.500488%,41.000366%,88.400269%); stroke-width: 2.500000;stroke-linecap: round;stroke-linejoin: round;stroke-miterlimit: 10.000000;fill: none;"></path>
  <path d="M230.866409 980.223206C230.866409 949.679047,218.730988 920.389542,197.134628 898.793198C175.538284 877.196838,146.248779 865.061417,115.704620 865.061417C85.160461 865.061417,55.870956 877.196838,34.274612 898.793198C12.678253 920.389542,0.542831 949.679047,0.542831 980.223206C0.542831 1010.767365,12.678253 1040.056870,34.274612 1061.653214C55.870956 1083.249573,85.160461 1095.384995,115.704620 1095.384995C146.248779 1095.384995,175.538284 1083.249573,197.134628 1061.653214C218.730988 1040.056870,230.866409 1010.767365,230.866409 980.223206Z" style="stroke:rgb(25.500488%,41.000366%,88.400269%); stroke-width: 2.500000;stroke-linecap: round;stroke-linejoin: round;stroke-miterlimit: 10.000000;fill: none;"></path>
  <path d="M996.033722 115.504196C996.033722 84.960037,983.898300 55.670532,962.301941 34.074188C940.705597 12.477829,911.416092 0.342407,880.871933 0.342407C850.327774 0.342407,821.038269 12.477829,799.441925 34.074188C777.845566 55.670532,765.710144 84.960037,765.710144 115.504196C765.710144 146.048355,777.845566 175.337860,799.441925 196.934204C821.038269 218.530563,850.327774 230.665985,880.871933 230.665985C911.416092 230.665985,940.705597 218.530563,962.301941 196.934204C983.898300 175.337860,996.033722 146.048355,996.033722 115.504196Z" style="stroke:rgb(25.500488%,41.000366%,88.400269%); stroke-width: 2.500000;stroke-linecap: round;stroke-linejoin: round;stroke-miterlimit: 10.000000;fill: none;"></path>
  <path d="M1646.778900 1384.853043C1646.778900 1354.308884,1634.643478 1325.019379,1613.047119 1303.423035C1591.450775 1281.826675,1562.161270 1269.691254,1531.617111 1269.691254C1501.072952 1269.691254,1471.783447 1281.826675,1450.187103 1303.423035C1428.590744 1325.019379,1416.455322 1354.308884,1416.455322 1384.853043C1416.455322 1415.397202,1428.590744 1444.686707,1450.187103 1466.283051C1471.783447 1487.879410,1501.072952 1500.014832,1531.617111 1500.014832C1562.161270 1500.014832,1591.450775 1487.879410,1613.047119 1466.283051C1634.643478 1444.686707,1646.778900 1415.397202,1646.778900 1384.853043Z" style="stroke:rgb(25.500488%,41.000366%,88.400269%); stroke-width: 2.500000;stroke-linecap: round;stroke-linejoin: round;stroke-miterlimit: 10.000000;fill: none;"></path>
</svg>
