<?xml version="1.0"?>
<!-- Created by MetaPost 2.00 on 2022.03.02:1201 -->
<svg version="1.1" xmlns="http://www.w3.org/2000/svg" xmlns:xlink="http://www.w3.org/1999/xlink" width="1832.579681" height="1709.398727" viewBox="0 0 1832.579681 1709.398727">
<!-- Original BoundingBox: -916.289841 -829.026398 916.289841 880.372330 -->
  <path d="M916.000000 29.606476L251.136978 349.788666L86.926010 1069.228653L547.028137 1646.179443L1284.971863 1646.179443L1745.073990 1069.228653L1580.863022 349.788666L916.000000 29.606476Z" style="fill: rgb(100.000000%,100.000000%,100.000000%);stroke: none;"></path>
  <path d="M916.000000 29.606476L251.136978 349.788666" style="stroke:rgb(0.000000%,0.000000%,0.000000%); stroke-width: 2.500000;stroke-linecap: round;stroke-linejoin: round;stroke-miterlimit: 10.000000;fill: none;"></path>
  <path d="M251.136978 349.788666L86.926010 1069.228653" style="stroke:rgb(0.000000%,0.000000%,0.000000%); stroke-width: 2.500000;stroke-linecap: round;stroke-linejoin: round;stroke-miterlimit: 10.000000;fill: none;"></path>
  <path d="M86.926010 1069.228653L547.028137 1646.179443" style="stroke:rgb(0.000000%,0.000000%,0.000000%); stroke-width: 2.500000;stroke-linecap: round;stroke-linejoin: round;stroke-miterlimit: 10.000000;fill: none;"></path>
  <path d="M547.028137 1646.179443L1284.971863 1646.179443" style="stroke:rgb(0.000000%,0.000000%,0.000000%); stroke-width: 2.500000;stroke-linecap: round;stroke-linejoin: round;stroke-miterlimit: 10.000000;fill: none;"></path>
  <path d="M1284.971863 1646.179443L1745.073990 1069.228653" style="stroke:rgb(0.000000%,0.000000%,0.000000%); stroke-width: 2.500000;stroke-linecap: round;stroke-linejoin: round;stroke-miterlimit: 10.000000;fill: none;"></path>
  <path d="M1745.073990 1069.228653L1580.863022 349.788666" style="stroke:rgb(0.000000%,0.000000%,0.000000%); stroke-width: 2.500000;stroke-linecap: round;stroke-linejoin: round;stroke-miterlimit: 10.000000;fill: none;"></path>
  <path d="M1580.863022 349.788666L916.000000 29.606476" style="stroke:rgb(0.000000%,0.000000%,0.000000%); stroke-width: 2.500000;stroke-linecap: round;stroke-linejoin: round;stroke-miterlimit: 10.000000;fill: none;"></path>
  <path d="M1722.171402 452.078278C1722.171402 412.740845,1706.542343 375.019272,1678.728683 347.205597C1650.915009 319.391937,1613.193436 303.762878,1573.856003 303.762878C1534.518570 303.762878,1496.796997 319.391937,1468.983322 347.205597C1441.169662 375.019272,1425.540604 412.740845,1425.540604 452.078278C1425.540604 491.415710,1441.169662 529.137283,1468.983322 556.950958C1496.796997 584.764618,1534.518570 600.393677,1573.856003 600.393677C1613.193436 600.393677,1650.915009 584.764618,1678.728683 556.950958C1706.542343 529.137283,1722.171402 491.415710,1722.171402 452.078278Z" style="stroke:rgb(25.500488%,41.000366%,88.400269%); stroke-width: 2.500000;stroke-linecap: round;stroke-linejoin: round;stroke-miterlimit: 10.000000;fill: none;"></path>
  <path d="M1831.039841 972.116455C1831.039841 932.779022,1815.410782 895.057449,1787.597122 867.243774C1759.783447 839.430115,1722.061874 823.801056,1682.724442 823.801056C1643.387009 823.801056,1605.665436 839.430115,1577.851761 867.243774C1550.038101 895.057449,1534.409042 932.779022,1534.409042 972.116455C1534.409042 1011.453888,1550.038101 1049.175461,1577.851761 1076.989136C1605.665436 1104.802795,1643.387009 1120.431854,1682.724442 1120.431854C1722.061874 1120.431854,1759.783447 1104.802795,1787.597122 1076.989136C1815.410782 1049.175461,1831.039841 1011.453888,1831.039841 972.116455Z" style="stroke:rgb(25.500488%,41.000366%,88.400269%); stroke-width: 2.500000;stroke-linecap: round;stroke-linejoin: round;stroke-miterlimit: 10.000000;fill: none;"></path>
  <path d="M1727.309891 724.521866C1727.309891 685.184433,1711.680832 647.462860,1683.867172 619.649185C1656.053497 591.835526,1618.331924 576.206467,1578.994492 576.206467C1539.657059 576.206467,1501.935486 591.835526,1474.121811 619.649185C1446.308151 647.462860,1430.679092 685.184433,1430.679092 724.521866C1430.679092 763.859299,1446.308151 801.580872,1474.121811 829.394547C1501.935486 857.208206,1539.657059 872.837265,1578.994492 872.837265C1618.331924 872.837265,1656.053497 857.208206,1683.867172 829.394547C1711.680832 801.580872,1727.309891 763.859299,1727.309891 724.521866Z" style="stroke:rgb(25.500488%,41.000366%,88.400269%); stroke-width: 2.500000;stroke-linecap: round;stroke-linejoin: round;stroke-miterlimit: 10.000000;fill: none;"></path>
  <path d="M1536.005081 541.820129C1536.005081 502.482697,1520.376022 464.761124,1492.562363 436.947449C1464.748688 409.133789,1427.027115 393.504730,1387.689682 393.504730C1348.352249 393.504730,1310.630676 409.133789,1282.817001 436.947449C1255.003342 464.761124,1239.374283 502.482697,1239.374283 541.820129C1239.374283 581.157562,1255.003342 618.879135,1282.817001 646.692810C1310.630676 674.506470,1348.352249 690.135529,1387.689682 690.135529C1427.027115 690.135529,1464.748688 674.506470,1492.562363 646.692810C1520.376022 618.879135,1536.005081 581.157562,1536.005081 541.820129Z" style="stroke:rgb(25.500488%,41.000366%,88.400269%); stroke-width: 2.500000;stroke-linecap: round;stroke-linejoin: round;stroke-miterlimit: 10.000000;fill: none;"></path>
  <path d="M1514.620667 293.031754C1514.620667 253.694321,1498.991608 215.972748,1471.177948 188.159073C1443.364273 160.345413,1405.642700 144.716354,1366.305267 144.716354C1326.967834 144.716354,1289.246262 160.345413,1261.432587 188.159073C1233.618927 215.972748,1217.989868 253.694321,1217.989868 293.031754C1217.989868 332.369186,1233.618927 370.090759,1261.432587 397.904434C1289.246262 425.718094,1326.967834 441.347153,1366.305267 441.347153C1405.642700 441.347153,1443.364273 425.718094,1471.177948 397.904434C1498.991608 370.090759,1514.620667 332.369186,1514.620667 293.031754Z" style="stroke:rgb(25.500488%,41.000366%,88.400269%); stroke-width: 2.500000;stroke-linecap: round;stroke-linejoin: round;stroke-miterlimit: 10.000000;fill: none;"></path>
  <path d="M1709.351135 1151.652039C1709.351135 1112.314606,1693.722076 1074.593033,1665.908417 1046.779358C1638.094742 1018.965698,1600.373169 1003.336639,1561.035736 1003.336639C1521.698303 1003.336639,1483.976730 1018.965698,1456.163055 1046.779358C1428.349396 1074.593033,1412.720337 1112.314606,1412.720337 1151.652039C1412.720337 1190.989471,1428.349396 1228.711044,1456.163055 1256.524719C1483.976730 1284.338379,1521.698303 1299.967438,1561.035736 1299.967438C1600.373169 1299.967438,1638.094742 1284.338379,1665.908417 1256.524719C1693.722076 1228.711044,1709.351135 1190.989471,1709.351135 1151.652039Z" style="stroke:rgb(25.500488%,41.000366%,88.400269%); stroke-width: 2.500000;stroke-linecap: round;stroke-linejoin: round;stroke-miterlimit: 10.000000;fill: none;"></path>
  <path d="M1579.241028 916.436539C1579.241028 877.099106,1563.611969 839.377533,1535.798309 811.563858C1507.984634 783.750198,1470.263062 768.121140,1430.925629 768.121140C1391.588196 768.121140,1353.866623 783.750198,1326.052948 811.563858C1298.239288 839.377533,1282.610229 877.099106,1282.610229 916.436539C1282.610229 955.773972,1298.239288 993.495544,1326.052948 1021.309219C1353.866623 1049.122879,1391.588196 1064.751938,1430.925629 1064.751938C1470.263062 1064.751938,1507.984634 1049.122879,1535.798309 1021.309219C1563.611969 993.495544,1579.241028 955.773972,1579.241028 916.436539Z" style="stroke:rgb(25.500488%,41.000366%,88.400269%); stroke-width: 2.500000;stroke-linecap: round;stroke-linejoin: round;stroke-miterlimit: 10.000000;fill: none;"></path>
  <path d="M1449.792694 708.561417C1449.792694 669.223984,1434.163635 631.502411,1406.349976 603.688736C1378.536301 575.875076,1340.814728 560.246017,1301.477295 560.246017C1262.139862 560.246017,1224.418289 575.875076,1196.604614 603.688736C1168.790955 631.502411,1153.161896 669.223984,1153.161896 708.561417C1153.161896 747.898849,1168.790955 785.620422,1196.604614 813.434097C1224.418289 841.247757,1262.139862 856.876816,1301.477295 856.876816C1340.814728 856.876816,1378.536301 841.247757,1406.349976 813.434097C1434.163635 785.620422,1449.792694 747.898849,1449.792694 708.561417Z" style="stroke:rgb(25.500488%,41.000366%,88.400269%); stroke-width: 2.500000;stroke-linecap: round;stroke-linejoin: round;stroke-miterlimit: 10.000000;fill: none;"></path>
  <path d="M1312.883179 468.337173C1312.883179 428.999741,1297.254120 391.278168,1269.440460 363.464493C1241.626785 335.650833,1203.905212 320.021774,1164.567780 320.021774C1125.230347 320.021774,1087.508774 335.650833,1059.695099 363.464493C1031.881439 391.278168,1016.252380 428.999741,1016.252380 468.337173C1016.252380 507.674606,1031.881439 545.396179,1059.695099 573.209854C1087.508774 601.023514,1125.230347 616.652573,1164.567780 616.652573C1203.905212 616.652573,1241.626785 601.023514,1269.440460 573.209854C1297.254120 545.396179,1312.883179 507.674606,1312.883179 468.337173Z" style="stroke:rgb(25.500488%,41.000366%,88.400269%); stroke-width: 2.500000;stroke-linecap: round;stroke-linejoin: round;stroke-miterlimit: 10.000000;fill: none;"></path>
  <path d="M1261.563202 232.589661C1261.563202 193.252228,1245.934143 155.530655,1218.120483 127.716980C1190.306808 99.903320,1152.585236 84.274261,1113.247803 84.274261C1073.910370 84.274261,1036.188797 99.903320,1008.375122 127.716980C980.561462 155.530655,964.932404 193.252228,964.932404 232.589661C964.932404 271.927094,980.561462 309.648666,1008.375122 337.462341C1036.188797 365.276001,1073.910370 380.905060,1113.247803 380.905060C1152.585236 380.905060,1190.306808 365.276001,1218.120483 337.462341C1245.934143 309.648666,1261.563202 271.927094,1261.563202 232.589661Z" style="stroke:rgb(25.500488%,41.000366%,88.400269%); stroke-width: 2.500000;stroke-linecap: round;stroke-linejoin: round;stroke-miterlimit: 10.000000;fill: none;"></path>
  <path d="M1064.315399 149.193069C1064.315399 109.855637,1048.686340 72.134064,1020.872681 44.320389C993.059006 16.506729,955.337433 0.877670,916.000000 0.877670C876.662567 0.877670,838.940994 16.506729,811.127319 44.320389C783.313660 72.134064,767.684601 109.855637,767.684601 149.193069C767.684601 188.530502,783.313660 226.252075,811.127319 254.065750C838.940994 281.879410,876.662567 297.508469,916.000000 297.508469C955.337433 297.508469,993.059006 281.879410,1020.872681 254.065750C1048.686340 226.252075,1064.315399 188.530502,1064.315399 149.193069Z" style="stroke:rgb(25.500488%,41.000366%,88.400269%); stroke-width: 2.500000;stroke-linecap: round;stroke-linejoin: round;stroke-miterlimit: 10.000000;fill: none;"></path>
  <path d="M1568.055740 1345.045990C1568.055740 1305.708557,1552.426682 1267.986984,1524.613022 1240.173309C1496.799347 1212.359650,1459.077774 1196.730591,1419.740341 1196.730591C1380.402908 1196.730591,1342.681335 1212.359650,1314.867661 1240.173309C1287.054001 1267.986984,1271.424942 1305.708557,1271.424942 1345.045990C1271.424942 1384.383423,1287.054001 1422.104996,1314.867661 1449.918671C1342.681335 1477.732330,1380.402908 1493.361389,1419.740341 1493.361389C1459.077774 1493.361389,1496.799347 1477.732330,1524.613022 1449.918671C1552.426682 1422.104996,1568.055740 1384.383423,1568.055740 1345.045990Z" style="stroke:rgb(25.500488%,41.000366%,88.400269%); stroke-width: 2.500000;stroke-linecap: round;stroke-linejoin: round;stroke-miterlimit: 10.000000;fill: none;"></path>
  <path d="M1448.092850 1109.493103C1448.092850 1070.155670,1432.463791 1032.434097,1404.650131 1004.620422C1376.836456 976.806763,1339.114883 961.177704,1299.777451 961.177704C1260.440018 961.177704,1222.718445 976.806763,1194.904770 1004.620422C1167.091110 1032.434097,1151.462051 1070.155670,1151.462051 1109.493103C1151.462051 1148.830536,1167.091110 1186.552109,1194.904770 1214.365784C1222.718445 1242.179443,1260.440018 1257.808502,1299.777451 1257.808502C1339.114883 1257.808502,1376.836456 1242.179443,1404.650131 1214.365784C1432.463791 1186.552109,1448.092850 1148.830536,1448.092850 1109.493103Z" style="stroke:rgb(25.500488%,41.000366%,88.400269%); stroke-width: 2.500000;stroke-linecap: round;stroke-linejoin: round;stroke-miterlimit: 10.000000;fill: none;"></path>
  <path d="M1307.848511 890.289948C1307.848511 850.952515,1292.219452 813.230942,1264.405792 785.417267C1236.592117 757.603607,1198.870544 741.974548,1159.533112 741.974548C1120.195679 741.974548,1082.474106 757.603607,1054.660431 785.417267C1026.846771 813.230942,1011.217712 850.952515,1011.217712 890.289948C1011.217712 929.627380,1026.846771 967.348953,1054.660431 995.162628C1082.474106 1022.976288,1120.195679 1038.605347,1159.533112 1038.605347C1198.870544 1038.605347,1236.592117 1022.976288,1264.405792 995.162628C1292.219452 967.348953,1307.848511 929.627380,1307.848511 890.289948Z" style="stroke:rgb(25.500488%,41.000366%,88.400269%); stroke-width: 2.500000;stroke-linecap: round;stroke-linejoin: round;stroke-miterlimit: 10.000000;fill: none;"></path>
  <path d="M1190.156403 648.495621C1190.156403 609.158188,1174.527344 571.436615,1146.713684 543.622940C1118.900009 515.809280,1081.178436 500.180222,1041.841003 500.180222C1002.503571 500.180222,964.781998 515.809280,936.968323 543.622940C909.154663 571.436615,893.525604 609.158188,893.525604 648.495621C893.525604 687.833054,909.154663 725.554626,936.968323 753.368301C964.781998 781.181961,1002.503571 796.811020,1041.841003 796.811020C1081.178436 796.811020,1118.900009 781.181961,1146.713684 753.368301C1174.527344 725.554626,1190.156403 687.833054,1190.156403 648.495621Z" style="stroke:rgb(25.500488%,41.000366%,88.400269%); stroke-width: 2.500000;stroke-linecap: round;stroke-linejoin: round;stroke-miterlimit: 10.000000;fill: none;"></path>
  <path d="M1064.315399 421.649628C1064.315399 382.312195,1048.686340 344.590622,1020.872681 316.776947C993.059006 288.963287,955.337433 273.334229,916.000000 273.334229C876.662567 273.334229,838.940994 288.963287,811.127319 316.776947C783.313660 344.590622,767.684601 382.312195,767.684601 421.649628C767.684601 460.987061,783.313660 498.708633,811.127319 526.522308C838.940994 554.335968,876.662567 569.965027,916.000000 569.965027C955.337433 569.965027,993.059006 554.335968,1020.872681 526.522308C1048.686340 498.708633,1064.315399 460.987061,1064.315399 421.649628Z" style="stroke:rgb(25.500488%,41.000366%,88.400269%); stroke-width: 2.500000;stroke-linecap: round;stroke-linejoin: round;stroke-miterlimit: 10.000000;fill: none;"></path>
  <path d="M867.067596 232.589661C867.067596 193.252228,851.438538 155.530655,823.624878 127.716980C795.811203 99.903320,758.089630 84.274261,718.752197 84.274261C679.414764 84.274261,641.693192 99.903320,613.879517 127.716980C586.065857 155.530655,570.436798 193.252228,570.436798 232.589661C570.436798 271.927094,586.065857 309.648666,613.879517 337.462341C641.693192 365.276001,679.414764 380.905060,718.752197 380.905060C758.089630 380.905060,795.811203 365.276001,823.624878 337.462341C851.438538 309.648666,867.067596 271.927094,867.067596 232.589661Z" style="stroke:rgb(25.500488%,41.000366%,88.400269%); stroke-width: 2.500000;stroke-linecap: round;stroke-linejoin: round;stroke-miterlimit: 10.000000;fill: none;"></path>
  <path d="M1423.049210 1559.460999C1423.049210 1520.123566,1407.420151 1482.401993,1379.606491 1454.588318C1351.792816 1426.774658,1314.071243 1411.145599,1274.733810 1411.145599C1235.396378 1411.145599,1197.674805 1426.774658,1169.861130 1454.588318C1142.047470 1482.401993,1126.418411 1520.123566,1126.418411 1559.460999C1126.418411 1598.798431,1142.047470 1636.520004,1169.861130 1664.333679C1197.674805 1692.147339,1235.396378 1707.776398,1274.733810 1707.776398C1314.071243 1707.776398,1351.792816 1692.147339,1379.606491 1664.333679C1407.420151 1636.520004,1423.049210 1598.798431,1423.049210 1559.460999Z" style="stroke:rgb(25.500488%,41.000366%,88.400269%); stroke-width: 2.500000;stroke-linecap: round;stroke-linejoin: round;stroke-miterlimit: 10.000000;fill: none;"></path>
  <path d="M1315.582184 1324.453110C1315.582184 1285.115677,1299.953125 1247.394104,1272.139465 1219.580429C1244.325790 1191.766769,1206.604218 1176.137711,1167.266785 1176.137711C1127.929352 1176.137711,1090.207779 1191.766769,1062.394104 1219.580429C1034.580444 1247.394104,1018.951385 1285.115677,1018.951385 1324.453110C1018.951385 1363.790543,1034.580444 1401.512115,1062.394104 1429.325790C1090.207779 1457.139450,1127.929352 1472.768509,1167.266785 1472.768509C1206.604218 1472.768509,1244.325790 1457.139450,1272.139465 1429.325790C1299.953125 1401.512115,1315.582184 1363.790543,1315.582184 1324.453110Z" style="stroke:rgb(25.500488%,41.000366%,88.400269%); stroke-width: 2.500000;stroke-linecap: round;stroke-linejoin: round;stroke-miterlimit: 10.000000;fill: none;"></path>
  <path d="M1185.498032 1104.912582C1185.498032 1065.575150,1169.868973 1027.853577,1142.055313 1000.039902C1114.241638 972.226242,1076.520065 956.597183,1037.182632 956.597183C997.845200 956.597183,960.123627 972.226242,932.309952 1000.039902C904.496292 1027.853577,888.867233 1065.575150,888.867233 1104.912582C888.867233 1144.250015,904.496292 1181.971588,932.309952 1209.785263C960.123627 1237.598923,997.845200 1253.227982,1037.182632 1253.227982C1076.520065 1253.227982,1114.241638 1237.598923,1142.055313 1209.785263C1169.868973 1181.971588,1185.498032 1144.250015,1185.498032 1104.912582Z" style="stroke:rgb(25.500488%,41.000366%,88.400269%); stroke-width: 2.500000;stroke-linecap: round;stroke-linejoin: round;stroke-miterlimit: 10.000000;fill: none;"></path>
  <path d="M1064.315399 871.059555C1064.315399 831.722122,1048.686340 794.000549,1020.872681 766.186874C993.059006 738.373215,955.337433 722.744156,916.000000 722.744156C876.662567 722.744156,838.940994 738.373215,811.127319 766.186874C783.313660 794.000549,767.684601 831.722122,767.684601 871.059555C767.684601 910.396988,783.313660 948.118561,811.127319 975.932236C838.940994 1003.745895,876.662567 1019.374954,916.000000 1019.374954C955.337433 1019.374954,993.059006 1003.745895,1020.872681 975.932236C1048.686340 948.118561,1064.315399 910.396988,1064.315399 871.059555Z" style="stroke:rgb(25.500488%,41.000366%,88.400269%); stroke-width: 2.500000;stroke-linecap: round;stroke-linejoin: round;stroke-miterlimit: 10.000000;fill: none;"></path>
  <path d="M938.474396 648.495621C938.474396 609.158188,922.845337 571.436615,895.031677 543.622940C867.218002 515.809280,829.496429 500.180222,790.158997 500.180222C750.821564 500.180222,713.099991 515.809280,685.286316 543.622940C657.472656 571.436615,641.843597 609.158188,641.843597 648.495621C641.843597 687.833054,657.472656 725.554626,685.286316 753.368301C713.099991 781.181961,750.821564 796.811020,790.158997 796.811020C829.496429 796.811020,867.218002 781.181961,895.031677 753.368301C922.845337 725.554626,938.474396 687.833054,938.474396 648.495621Z" style="stroke:rgb(25.500488%,41.000366%,88.400269%); stroke-width: 2.500000;stroke-linecap: round;stroke-linejoin: round;stroke-miterlimit: 10.000000;fill: none;"></path>
  <path d="M815.747620 468.337173C815.747620 428.999741,800.118561 391.278168,772.304901 363.464493C744.491226 335.650833,706.769653 320.021774,667.432220 320.021774C628.094788 320.021774,590.373215 335.650833,562.559540 363.464493C534.745880 391.278168,519.116821 428.999741,519.116821 468.337173C519.116821 507.674606,534.745880 545.396179,562.559540 573.209854C590.373215 601.023514,628.094788 616.652573,667.432220 616.652573C706.769653 616.652573,744.491226 601.023514,772.304901 573.209854C800.118561 545.396179,815.747620 507.674606,815.747620 468.337173Z" style="stroke:rgb(25.500488%,41.000366%,88.400269%); stroke-width: 2.500000;stroke-linecap: round;stroke-linejoin: round;stroke-miterlimit: 10.000000;fill: none;"></path>
  <path d="M614.010132 293.031754C614.010132 253.694321,598.381073 215.972748,570.567413 188.159073C542.753738 160.345413,505.032166 144.716354,465.694733 144.716354C426.357300 144.716354,388.635727 160.345413,360.822052 188.159073C333.008392 215.972748,317.379333 253.694321,317.379333 293.031754C317.379333 332.369186,333.008392 370.090759,360.822052 397.904434C388.635727 425.718094,426.357300 441.347153,465.694733 441.347153C505.032166 441.347153,542.753738 425.718094,570.567413 397.904434C598.381073 370.090759,614.010132 332.369186,614.010132 293.031754Z" style="stroke:rgb(25.500488%,41.000366%,88.400269%); stroke-width: 2.500000;stroke-linecap: round;stroke-linejoin: round;stroke-miterlimit: 10.000000;fill: none;"></path>
  <path d="M1183.512711 1557.916855C1183.512711 1518.579422,1167.883652 1480.857849,1140.069992 1453.044174C1112.256317 1425.230515,1074.534744 1409.601456,1035.197311 1409.601456C995.859879 1409.601456,958.138306 1425.230515,930.324631 1453.044174C902.510971 1480.857849,886.881912 1518.579422,886.881912 1557.916855C886.881912 1597.254288,902.510971 1634.975861,930.324631 1662.789536C958.138306 1690.603195,995.859879 1706.232254,1035.197311 1706.232254C1074.534744 1706.232254,1112.256317 1690.603195,1140.069992 1662.789536C1167.883652 1634.975861,1183.512711 1597.254288,1183.512711 1557.916855Z" style="stroke:rgb(25.500488%,41.000366%,88.400269%); stroke-width: 2.500000;stroke-linecap: round;stroke-linejoin: round;stroke-miterlimit: 10.000000;fill: none;"></path>
  <path d="M1064.315399 1338.752640C1064.315399 1299.415207,1048.686340 1261.693634,1020.872681 1233.879959C993.059006 1206.066299,955.337433 1190.437241,916.000000 1190.437241C876.662567 1190.437241,838.940994 1206.066299,811.127319 1233.879959C783.313660 1261.693634,767.684601 1299.415207,767.684601 1338.752640C767.684601 1378.090073,783.313660 1415.811646,811.127319 1443.625320C838.940994 1471.438980,876.662567 1487.068039,916.000000 1487.068039C955.337433 1487.068039,993.059006 1471.438980,1020.872681 1443.625320C1048.686340 1415.811646,1064.315399 1378.090073,1064.315399 1338.752640Z" style="stroke:rgb(25.500488%,41.000366%,88.400269%); stroke-width: 2.500000;stroke-linecap: round;stroke-linejoin: round;stroke-miterlimit: 10.000000;fill: none;"></path>
  <path d="M943.132767 1104.912582C943.132767 1065.575150,927.503708 1027.853577,899.690048 1000.039902C871.876373 972.226242,834.154800 956.597183,794.817368 956.597183C755.479935 956.597183,717.758362 972.226242,689.944687 1000.039902C662.131027 1027.853577,646.501968 1065.575150,646.501968 1104.912582C646.501968 1144.250015,662.131027 1181.971588,689.944687 1209.785263C717.758362 1237.598923,755.479935 1253.227982,794.817368 1253.227982C834.154800 1253.227982,871.876373 1237.598923,899.690048 1209.785263C927.503708 1181.971588,943.132767 1144.250015,943.132767 1104.912582Z" style="stroke:rgb(25.500488%,41.000366%,88.400269%); stroke-width: 2.500000;stroke-linecap: round;stroke-linejoin: round;stroke-miterlimit: 10.000000;fill: none;"></path>
  <path d="M820.782288 890.289948C820.782288 850.952515,805.153229 813.230942,777.339569 785.417267C749.525894 757.603607,711.804321 741.974548,672.466888 741.974548C633.129456 741.974548,595.407883 757.603607,567.594208 785.417267C539.780548 813.230942,524.151489 850.952515,524.151489 890.289948C524.151489 929.627380,539.780548 967.348953,567.594208 995.162628C595.407883 1022.976288,633.129456 1038.605347,672.466888 1038.605347C711.804321 1038.605347,749.525894 1022.976288,777.339569 995.162628C805.153229 967.348953,820.782288 929.627380,820.782288 890.289948Z" style="stroke:rgb(25.500488%,41.000366%,88.400269%); stroke-width: 2.500000;stroke-linecap: round;stroke-linejoin: round;stroke-miterlimit: 10.000000;fill: none;"></path>
  <path d="M678.838104 708.561417C678.838104 669.223984,663.209045 631.502411,635.395386 603.688736C607.581711 575.875076,569.860138 560.246017,530.522705 560.246017C491.185272 560.246017,453.463699 575.875076,425.650024 603.688736C397.836365 631.502411,382.207306 669.223984,382.207306 708.561417C382.207306 747.898849,397.836365 785.620422,425.650024 813.434097C453.463699 841.247757,491.185272 856.876816,530.522705 856.876816C569.860138 856.876816,607.581711 841.247757,635.395386 813.434097C663.209045 785.620422,678.838104 747.898849,678.838104 708.561417Z" style="stroke:rgb(25.500488%,41.000366%,88.400269%); stroke-width: 2.500000;stroke-linecap: round;stroke-linejoin: round;stroke-miterlimit: 10.000000;fill: none;"></path>
  <path d="M592.625717 541.820129C592.625717 502.482697,576.996658 464.761124,549.182999 436.947449C521.369324 409.133789,483.647751 393.504730,444.310318 393.504730C404.972885 393.504730,367.251312 409.133789,339.437637 436.947449C311.623978 464.761124,295.994919 502.482697,295.994919 541.820129C295.994919 581.157562,311.623978 618.879135,339.437637 646.692810C367.251312 674.506470,404.972885 690.135529,444.310318 690.135529C483.647751 690.135529,521.369324 674.506470,549.182999 646.692810C576.996658 618.879135,592.625717 581.157562,592.625717 541.820129Z" style="stroke:rgb(25.500488%,41.000366%,88.400269%); stroke-width: 2.500000;stroke-linecap: round;stroke-linejoin: round;stroke-miterlimit: 10.000000;fill: none;"></path>
  <path d="M406.459396 452.078278C406.459396 412.740845,390.830338 375.019272,363.016678 347.205597C335.203003 319.391937,297.481430 303.762878,258.143997 303.762878C218.806564 303.762878,181.084991 319.391937,153.271317 347.205597C125.457657 375.019272,109.828598 412.740845,109.828598 452.078278C109.828598 491.415710,125.457657 529.137283,153.271317 556.950958C181.084991 584.764618,218.806564 600.393677,258.143997 600.393677C297.481430 600.393677,335.203003 584.764618,363.016678 556.950958C390.830338 529.137283,406.459396 491.415710,406.459396 452.078278Z" style="stroke:rgb(25.500488%,41.000366%,88.400269%); stroke-width: 2.500000;stroke-linecap: round;stroke-linejoin: round;stroke-miterlimit: 10.000000;fill: none;"></path>
  <path d="M945.118088 1557.916855C945.118088 1518.579422,929.489029 1480.857849,901.675369 1453.044174C873.861694 1425.230515,836.140121 1409.601456,796.802689 1409.601456C757.465256 1409.601456,719.743683 1425.230515,691.930008 1453.044174C664.116348 1480.857849,648.487289 1518.579422,648.487289 1557.916855C648.487289 1597.254288,664.116348 1634.975861,691.930008 1662.789536C719.743683 1690.603195,757.465256 1706.232254,796.802689 1706.232254C836.140121 1706.232254,873.861694 1690.603195,901.675369 1662.789536C929.489029 1634.975861,945.118088 1597.254288,945.118088 1557.916855Z" style="stroke:rgb(25.500488%,41.000366%,88.400269%); stroke-width: 2.500000;stroke-linecap: round;stroke-linejoin: round;stroke-miterlimit: 10.000000;fill: none;"></path>
  <path d="M813.048615 1324.453110C813.048615 1285.115677,797.419556 1247.394104,769.605896 1219.580429C741.792221 1191.766769,704.070648 1176.137711,664.733215 1176.137711C625.395782 1176.137711,587.674210 1191.766769,559.860535 1219.580429C532.046875 1247.394104,516.417816 1285.115677,516.417816 1324.453110C516.417816 1363.790543,532.046875 1401.512115,559.860535 1429.325790C587.674210 1457.139450,625.395782 1472.768509,664.733215 1472.768509C704.070648 1472.768509,741.792221 1457.139450,769.605896 1429.325790C797.419556 1401.512115,813.048615 1363.790543,813.048615 1324.453110Z" style="stroke:rgb(25.500488%,41.000366%,88.400269%); stroke-width: 2.500000;stroke-linecap: round;stroke-linejoin: round;stroke-miterlimit: 10.000000;fill: none;"></path>
  <path d="M680.537949 1109.493103C680.537949 1070.155670,664.908890 1032.434097,637.095230 1004.620422C609.281555 976.806763,571.559982 961.177704,532.222549 961.177704C492.885117 961.177704,455.163544 976.806763,427.349869 1004.620422C399.536209 1032.434097,383.907150 1070.155670,383.907150 1109.493103C383.907150 1148.830536,399.536209 1186.552109,427.349869 1214.365784C455.163544 1242.179443,492.885117 1257.808502,532.222549 1257.808502C571.559982 1257.808502,609.281555 1242.179443,637.095230 1214.365784C664.908890 1186.552109,680.537949 1148.830536,680.537949 1109.493103Z" style="stroke:rgb(25.500488%,41.000366%,88.400269%); stroke-width: 2.500000;stroke-linecap: round;stroke-linejoin: round;stroke-miterlimit: 10.000000;fill: none;"></path>
  <path d="M549.389771 916.436539C549.389771 877.099106,533.760712 839.377533,505.947052 811.563858C478.133377 783.750198,440.411804 768.121140,401.074371 768.121140C361.736938 768.121140,324.015366 783.750198,296.201691 811.563858C268.388031 839.377533,252.758972 877.099106,252.758972 916.436539C252.758972 955.773972,268.388031 993.495544,296.201691 1021.309219C324.015366 1049.122879,361.736938 1064.751938,401.074371 1064.751938C440.411804 1064.751938,478.133377 1049.122879,505.947052 1021.309219C533.760712 993.495544,549.389771 955.773972,549.389771 916.436539Z" style="stroke:rgb(25.500488%,41.000366%,88.400269%); stroke-width: 2.500000;stroke-linecap: round;stroke-linejoin: round;stroke-miterlimit: 10.000000;fill: none;"></path>
  <path d="M401.320908 724.521866C401.320908 685.184433,385.691849 647.462860,357.878189 619.649185C330.064514 591.835526,292.342941 576.206467,253.005508 576.206467C213.668076 576.206467,175.946503 591.835526,148.132828 619.649185C120.319168 647.462860,104.690109 685.184433,104.690109 724.521866C104.690109 763.859299,120.319168 801.580872,148.132828 829.394547C175.946503 857.208206,213.668076 872.837265,253.005508 872.837265C292.342941 872.837265,330.064514 857.208206,357.878189 829.394547C385.691849 801.580872,401.320908 763.859299,401.320908 724.521866Z" style="stroke:rgb(25.500488%,41.000366%,88.400269%); stroke-width: 2.500000;stroke-linecap: round;stroke-linejoin: round;stroke-miterlimit: 10.000000;fill: none;"></path>
  <path d="M705.581589 1559.460999C705.581589 1520.123566,689.952530 1482.401993,662.138870 1454.588318C634.325195 1426.774658,596.603622 1411.145599,557.266190 1411.145599C517.928757 1411.145599,480.207184 1426.774658,452.393509 1454.588318C424.579849 1482.401993,408.950790 1520.123566,408.950790 1559.460999C408.950790 1598.798431,424.579849 1636.520004,452.393509 1664.333679C480.207184 1692.147339,517.928757 1707.776398,557.266190 1707.776398C596.603622 1707.776398,634.325195 1692.147339,662.138870 1664.333679C689.952530 1636.520004,705.581589 1598.798431,705.581589 1559.460999Z" style="stroke:rgb(25.500488%,41.000366%,88.400269%); stroke-width: 2.500000;stroke-linecap: round;stroke-linejoin: round;stroke-miterlimit: 10.000000;fill: none;"></path>
  <path d="M560.575058 1345.045990C560.575058 1305.708557,544.945999 1267.986984,517.132339 1240.173309C489.318665 1212.359650,451.597092 1196.730591,412.259659 1196.730591C372.922226 1196.730591,335.200653 1212.359650,307.386978 1240.173309C279.573318 1267.986984,263.944260 1305.708557,263.944260 1345.045990C263.944260 1384.383423,279.573318 1422.104996,307.386978 1449.918671C335.200653 1477.732330,372.922226 1493.361389,412.259659 1493.361389C451.597092 1493.361389,489.318665 1477.732330,517.132339 1449.918671C544.945999 1422.104996,560.575058 1384.383423,560.575058 1345.045990Z" style="stroke:rgb(25.500488%,41.000366%,88.400269%); stroke-width: 2.500000;stroke-linecap: round;stroke-linejoin: round;stroke-miterlimit: 10.000000;fill: none;"></path>
  <path d="M419.279663 1151.652039C419.279663 1112.314606,403.650604 1074.593033,375.836945 1046.779358C348.023270 1018.965698,310.301697 1003.336639,270.964264 1003.336639C231.626831 1003.336639,193.905258 1018.965698,166.091583 1046.779358C138.277924 1074.593033,122.648865 1112.314606,122.648865 1151.652039C122.648865 1190.989471,138.277924 1228.711044,166.091583 1256.524719C193.905258 1284.338379,231.626831 1299.967438,270.964264 1299.967438C310.301697 1299.967438,348.023270 1284.338379,375.836945 1256.524719C403.650604 1228.711044,419.279663 1190.989471,419.279663 1151.652039Z" style="stroke:rgb(25.500488%,41.000366%,88.400269%); stroke-width: 2.500000;stroke-linecap: round;stroke-linejoin: round;stroke-miterlimit: 10.000000;fill: none;"></path>
  <path d="M297.590958 972.116455C297.590958 932.779022,281.961899 895.057449,254.148239 867.243774C226.334564 839.430115,188.612991 823.801056,149.275558 823.801056C109.938126 823.801056,72.216553 839.430115,44.402878 867.243774C16.589218 895.057449,0.960159 932.779022,0.960159 972.116455C0.960159 1011.453888,16.589218 1049.175461,44.402878 1076.989136C72.216553 1104.802795,109.938126 1120.431854,149.275558 1120.431854C188.612991 1120.431854,226.334564 1104.802795,254.148239 1076.989136C281.961899 1049.175461,297.590958 1011.453888,297.590958 972.116455Z" style="stroke:rgb(25.500488%,41.000366%,88.400269%); stroke-width: 2.500000;stroke-linecap: round;stroke-linejoin: round;stroke-miterlimit: 10.000000;fill: none;"></path>
</svg>
