<?xml version="1.0"?>
<!-- Created by MetaPost 2.00 on 2022.03.02:1201 -->
<svg version="1.1" xmlns="http://www.w3.org/2000/svg" xmlns:xlink="http://www.w3.org/1999/xlink" width="1810.170151" height="1823.872787" viewBox="0 0 1810.170151 1823.872787">
<!-- Original BoundingBox: -903.975632 -910.204102 906.194519 913.668686 -->
  <path d="M1753.393524 913.000000L1639.464462 487.803238L1328.196762 176.535538L903.000000 62.606476L477.803238 176.535538L166.535538 487.803238L52.606476 913.000000L166.535538 1338.196762L477.803238 1649.464462L903.000000 1763.393524L1328.196762 1649.464462L1639.464462 1338.196762L1753.393524 913.000000Z" style="fill: rgb(100.000000%,100.000000%,100.000000%);stroke: none;"></path>
  <path d="M1753.393524 913.000000L1639.464462 487.803238" style="stroke:rgb(0.000000%,0.000000%,0.000000%); stroke-width: 2.500000;stroke-linecap: round;stroke-linejoin: round;stroke-miterlimit: 10.000000;fill: none;"></path>
  <path d="M1639.464462 487.803238L1328.196762 176.535538" style="stroke:rgb(0.000000%,0.000000%,0.000000%); stroke-width: 2.500000;stroke-linecap: round;stroke-linejoin: round;stroke-miterlimit: 10.000000;fill: none;"></path>
  <path d="M1328.196762 176.535538L903.000000 62.606476" style="stroke:rgb(0.000000%,0.000000%,0.000000%); stroke-width: 2.500000;stroke-linecap: round;stroke-linejoin: round;stroke-miterlimit: 10.000000;fill: none;"></path>
  <path d="M903.000000 62.606476L477.803238 176.535538" style="stroke:rgb(0.000000%,0.000000%,0.000000%); stroke-width: 2.500000;stroke-linecap: round;stroke-linejoin: round;stroke-miterlimit: 10.000000;fill: none;"></path>
  <path d="M477.803238 176.535538L166.535538 487.803238" style="stroke:rgb(0.000000%,0.000000%,0.000000%); stroke-width: 2.500000;stroke-linecap: round;stroke-linejoin: round;stroke-miterlimit: 10.000000;fill: none;"></path>
  <path d="M166.535538 487.803238L52.606476 913.000000" style="stroke:rgb(0.000000%,0.000000%,0.000000%); stroke-width: 2.500000;stroke-linecap: round;stroke-linejoin: round;stroke-miterlimit: 10.000000;fill: none;"></path>
  <path d="M52.606476 913.000000L166.535538 1338.196762" style="stroke:rgb(0.000000%,0.000000%,0.000000%); stroke-width: 2.500000;stroke-linecap: round;stroke-linejoin: round;stroke-miterlimit: 10.000000;fill: none;"></path>
  <path d="M166.535538 1338.196762L477.803238 1649.464462" style="stroke:rgb(0.000000%,0.000000%,0.000000%); stroke-width: 2.500000;stroke-linecap: round;stroke-linejoin: round;stroke-miterlimit: 10.000000;fill: none;"></path>
  <path d="M477.803238 1649.464462L903.000000 1763.393524" style="stroke:rgb(0.000000%,0.000000%,0.000000%); stroke-width: 2.500000;stroke-linecap: round;stroke-linejoin: round;stroke-miterlimit: 10.000000;fill: none;"></path>
  <path d="M903.000000 1763.393524L1328.196762 1649.464462" style="stroke:rgb(0.000000%,0.000000%,0.000000%); stroke-width: 2.500000;stroke-linecap: round;stroke-linejoin: round;stroke-miterlimit: 10.000000;fill: none;"></path>
  <path d="M1328.196762 1649.464462L1639.464462 1338.196762" style="stroke:rgb(0.000000%,0.000000%,0.000000%); stroke-width: 2.500000;stroke-linecap: round;stroke-linejoin: round;stroke-miterlimit: 10.000000;fill: none;"></path>
  <path d="M1639.464462 1338.196762L1753.393524 913.000000" style="stroke:rgb(0.000000%,0.000000%,0.000000%); stroke-width: 2.500000;stroke-linecap: round;stroke-linejoin: round;stroke-miterlimit: 10.000000;fill: none;"></path>
  <path d="M348.822037 528.716492C348.822037 503.317520,338.730835 478.961853,320.772400 461.003433C302.813980 443.044998,278.458313 432.953796,253.059341 432.953796C227.660370 432.953796,203.304703 443.044998,185.346283 461.003433C167.387848 478.961853,157.296646 503.317520,157.296646 528.716492C157.296646 554.115463,167.387848 578.471130,185.346283 596.429550C203.304703 614.387985,227.660370 624.479187,253.059341 624.479187C278.458313 624.479187,302.813980 614.387985,320.772400 596.429550C338.730835 578.471130,348.822037 554.115463,348.822037 528.716492Z" style="stroke:rgb(25.500488%,41.000366%,88.400269%); stroke-width: 2.500000;stroke-linecap: round;stroke-linejoin: round;stroke-miterlimit: 10.000000;fill: none;"></path>
  <path d="M373.372589 711.301437C373.372589 685.902466,363.281387 661.546799,345.322952 643.588379C327.364532 625.629944,303.008865 615.538742,277.609894 615.538742C252.210922 615.538742,227.855255 625.629944,209.896835 643.588379C191.938400 661.546799,181.847198 685.902466,181.847198 711.301437C181.847198 736.700409,191.938400 761.056076,209.896835 779.014496C227.855255 796.972931,252.210922 807.064133,277.609894 807.064133C303.008865 807.064133,327.364532 796.972931,345.322952 779.014496C363.281387 761.056076,373.372589 736.700409,373.372589 711.301437Z" style="stroke:rgb(25.500488%,41.000366%,88.400269%); stroke-width: 2.500000;stroke-linecap: round;stroke-linejoin: round;stroke-miterlimit: 10.000000;fill: none;"></path>
  <path d="M347.057312 892.523911C347.057312 867.124939,336.966110 842.769272,319.007675 824.810852C301.049255 806.852417,276.693588 796.761215,251.294617 796.761215C225.895645 796.761215,201.539978 806.852417,183.581558 824.810852C165.623123 842.769272,155.531921 867.124939,155.531921 892.523911C155.531921 917.922882,165.623123 942.278549,183.581558 960.236969C201.539978 978.195404,225.895645 988.286606,251.294617 988.286606C276.693588 988.286606,301.049255 978.195404,319.007675 960.236969C336.966110 942.278549,347.057312 917.922882,347.057312 892.523911Z" style="stroke:rgb(25.500488%,41.000366%,88.400269%); stroke-width: 2.500000;stroke-linecap: round;stroke-linejoin: round;stroke-miterlimit: 10.000000;fill: none;"></path>
  <path d="M533.145767 338.138336C533.145767 312.739365,523.054565 288.383698,505.096130 270.425278C487.137711 252.466843,462.782043 242.375641,437.383072 242.375641C411.984100 242.375641,387.628433 252.466843,369.670013 270.425278C351.711578 288.383698,341.620377 312.739365,341.620377 338.138336C341.620377 363.537308,351.711578 387.892975,369.670013 405.851395C387.628433 423.809830,411.984100 433.901031,437.383072 433.901031C462.782043 433.901031,487.137711 423.809830,505.096130 405.851395C523.054565 387.892975,533.145767 363.537308,533.145767 338.138336Z" style="stroke:rgb(25.500488%,41.000366%,88.400269%); stroke-width: 2.500000;stroke-linecap: round;stroke-linejoin: round;stroke-miterlimit: 10.000000;fill: none;"></path>
  <path d="M509.218079 503.685837C509.218079 478.286865,499.126877 453.931198,481.168442 435.972778C463.210022 418.014343,438.854355 407.923141,413.455383 407.923141C388.056412 407.923141,363.700745 418.014343,345.742325 435.972778C327.783890 453.931198,317.692688 478.286865,317.692688 503.685837C317.692688 529.084808,327.783890 553.440475,345.742325 571.398895C363.700745 589.357330,388.056412 599.448532,413.455383 599.448532C438.854355 599.448532,463.210022 589.357330,481.168442 571.398895C499.126877 553.440475,509.218079 529.084808,509.218079 503.685837Z" style="stroke:rgb(25.500488%,41.000366%,88.400269%); stroke-width: 2.500000;stroke-linecap: round;stroke-linejoin: round;stroke-miterlimit: 10.000000;fill: none;"></path>
  <path d="M475.104233 654.233093C475.104233 628.834122,465.013031 604.478455,447.054596 586.520035C429.096176 568.561600,404.740509 558.470398,379.341537 558.470398C353.942566 558.470398,329.586899 568.561600,311.628479 586.520035C293.670044 604.478455,283.578842 628.834122,283.578842 654.233093C283.578842 679.632065,293.670044 703.987732,311.628479 721.946152C329.586899 739.904587,353.942566 749.995789,379.341537 749.995789C404.740509 749.995789,429.096176 739.904587,447.054596 721.946152C465.013031 703.987732,475.104233 679.632065,475.104233 654.233093Z" style="stroke:rgb(25.500488%,41.000366%,88.400269%); stroke-width: 2.500000;stroke-linecap: round;stroke-linejoin: round;stroke-miterlimit: 10.000000;fill: none;"></path>
  <path d="M479.684753 833.664886C479.684753 808.265915,469.593552 783.910248,451.635117 765.951828C433.676697 747.993393,409.321030 737.902191,383.922058 737.902191C358.523087 737.902191,334.167419 747.993393,316.209000 765.951828C298.250565 783.910248,288.159363 808.265915,288.159363 833.664886C288.159363 859.063858,298.250565 883.419525,316.209000 901.377945C334.167419 919.336380,358.523087 929.427582,383.922058 929.427582C409.321030 929.427582,433.676697 919.336380,451.635117 901.377945C469.593552 883.419525,479.684753 859.063858,479.684753 833.664886Z" style="stroke:rgb(25.500488%,41.000366%,88.400269%); stroke-width: 2.500000;stroke-linecap: round;stroke-linejoin: round;stroke-miterlimit: 10.000000;fill: none;"></path>
  <path d="M431.894241 1008.256638C431.894241 982.857666,421.803040 958.501999,403.844604 940.543579C385.886185 922.585144,361.530518 912.493942,336.131546 912.493942C310.732574 912.493942,286.376907 922.585144,268.418488 940.543579C250.460052 958.501999,240.368851 982.857666,240.368851 1008.256638C240.368851 1033.655609,250.460052 1058.011276,268.418488 1075.969696C286.376907 1093.928131,310.732574 1104.019333,336.131546 1104.019333C361.530518 1104.019333,385.886185 1093.928131,403.844604 1075.969696C421.803040 1058.011276,431.894241 1033.655609,431.894241 1008.256638Z" style="stroke:rgb(25.500488%,41.000366%,88.400269%); stroke-width: 2.500000;stroke-linecap: round;stroke-linejoin: round;stroke-miterlimit: 10.000000;fill: none;"></path>
  <path d="M397.806351 1173.557587C397.806351 1148.158615,387.715149 1123.802948,369.756714 1105.844528C351.798294 1087.886093,327.442627 1077.794891,302.043655 1077.794891C276.644684 1077.794891,252.289017 1087.886093,234.330597 1105.844528C216.372162 1123.802948,206.280960 1148.158615,206.280960 1173.557587C206.280960 1198.956558,216.372162 1223.312225,234.330597 1241.270645C252.289017 1259.229080,276.644684 1269.320282,302.043655 1269.320282C327.442627 1269.320282,351.798294 1259.229080,369.756714 1241.270645C387.715149 1223.312225,397.806351 1198.956558,397.806351 1173.557587Z" style="stroke:rgb(25.500488%,41.000366%,88.400269%); stroke-width: 2.500000;stroke-linecap: round;stroke-linejoin: round;stroke-miterlimit: 10.000000;fill: none;"></path>
  <path d="M706.738373 332.286179C706.738373 306.887207,696.647171 282.531540,678.688736 264.573120C660.730316 246.614685,636.374649 236.523483,610.975677 236.523483C585.576706 236.523483,561.221039 246.614685,543.262619 264.573120C525.304184 282.531540,515.212982 306.887207,515.212982 332.286179C515.212982 357.685150,525.304184 382.040817,543.262619 399.999237C561.221039 417.957672,585.576706 428.048874,610.975677 428.048874C636.374649 428.048874,660.730316 417.957672,678.688736 399.999237C696.647171 382.040817,706.738373 357.685150,706.738373 332.286179Z" style="stroke:rgb(25.500488%,41.000366%,88.400269%); stroke-width: 2.500000;stroke-linecap: round;stroke-linejoin: round;stroke-miterlimit: 10.000000;fill: none;"></path>
  <path d="M655.522186 465.004456C655.522186 439.605484,645.430984 415.249817,627.472549 397.291397C609.514130 379.332962,585.158463 369.241760,559.759491 369.241760C534.360519 369.241760,510.004852 379.332962,492.046432 397.291397C474.087997 415.249817,463.996796 439.605484,463.996796 465.004456C463.996796 490.403427,474.087997 514.759094,492.046432 532.717514C510.004852 550.675949,534.360519 560.767151,559.759491 560.767151C585.158463 560.767151,609.514130 550.675949,627.472549 532.717514C645.430984 514.759094,655.522186 490.403427,655.522186 465.004456Z" style="stroke:rgb(25.500488%,41.000366%,88.400269%); stroke-width: 2.500000;stroke-linecap: round;stroke-linejoin: round;stroke-miterlimit: 10.000000;fill: none;"></path>
  <path d="M635.487289 628.968872C635.487289 603.569901,625.396088 579.214233,607.437653 561.255814C589.479233 543.297379,565.123566 533.206177,539.724594 533.206177C514.325623 533.206177,489.969955 543.297379,472.011536 561.255814C454.053101 579.214233,443.961899 603.569901,443.961899 628.968872C443.961899 654.367844,454.053101 678.723511,472.011536 696.681931C489.969955 714.640366,514.325623 724.731567,539.724594 724.731567C565.123566 724.731567,589.479233 714.640366,607.437653 696.681931C625.396088 678.723511,635.487289 654.367844,635.487289 628.968872Z" style="stroke:rgb(25.500488%,41.000366%,88.400269%); stroke-width: 2.500000;stroke-linecap: round;stroke-linejoin: round;stroke-miterlimit: 10.000000;fill: none;"></path>
  <path d="M598.920990 780.671005C598.920990 755.272034,588.829788 730.916367,570.871353 712.957947C552.912933 694.999512,528.557266 684.908310,503.158295 684.908310C477.759323 684.908310,453.403656 694.999512,435.445236 712.957947C417.486801 730.916367,407.395599 755.272034,407.395599 780.671005C407.395599 806.069977,417.486801 830.425644,435.445236 848.384064C453.403656 866.342499,477.759323 876.433701,503.158295 876.433701C528.557266 876.433701,552.912933 866.342499,570.871353 848.384064C588.829788 830.425644,598.920990 806.069977,598.920990 780.671005Z" style="stroke:rgb(25.500488%,41.000366%,88.400269%); stroke-width: 2.500000;stroke-linecap: round;stroke-linejoin: round;stroke-miterlimit: 10.000000;fill: none;"></path>
  <path d="M579.677612 949.177017C579.677612 923.778046,569.586411 899.422379,551.627975 881.463959C533.669556 863.505524,509.313889 853.414322,483.914917 853.414322C458.515945 853.414322,434.160278 863.505524,416.201859 881.463959C398.243423 899.422379,388.152222 923.778046,388.152222 949.177017C388.152222 974.575989,398.243423 998.931656,416.201859 1016.890076C434.160278 1034.848511,458.515945 1044.939713,483.914917 1044.939713C509.313889 1044.939713,533.669556 1034.848511,551.627975 1016.890076C569.586411 998.931656,579.677612 974.575989,579.677612 949.177017Z" style="stroke:rgb(25.500488%,41.000366%,88.400269%); stroke-width: 2.500000;stroke-linecap: round;stroke-linejoin: round;stroke-miterlimit: 10.000000;fill: none;"></path>
  <path d="M552.869247 1119.992752C552.869247 1094.593781,542.778046 1070.238113,524.819611 1052.279694C506.861191 1034.321259,482.505524 1024.230057,457.106552 1024.230057C431.707581 1024.230057,407.351913 1034.321259,389.393494 1052.279694C371.435059 1070.238113,361.343857 1094.593781,361.343857 1119.992752C361.343857 1145.391724,371.435059 1169.747391,389.393494 1187.705811C407.351913 1205.664246,431.707581 1215.755447,457.106552 1215.755447C482.505524 1215.755447,506.861191 1205.664246,524.819611 1187.705811C542.778046 1169.747391,552.869247 1145.391724,552.869247 1119.992752Z" style="stroke:rgb(25.500488%,41.000366%,88.400269%); stroke-width: 2.500000;stroke-linecap: round;stroke-linejoin: round;stroke-miterlimit: 10.000000;fill: none;"></path>
  <path d="M503.858994 1288.472824C503.858994 1263.073853,493.767792 1238.718185,475.809357 1220.759766C457.850937 1202.801331,433.495270 1192.710129,408.096298 1192.710129C382.697327 1192.710129,358.341660 1202.801331,340.383240 1220.759766C322.424805 1238.718185,312.333603 1263.073853,312.333603 1288.472824C312.333603 1313.871796,322.424805 1338.227463,340.383240 1356.185883C358.341660 1374.144318,382.697327 1384.235519,408.096298 1384.235519C433.495270 1384.235519,457.850937 1374.144318,475.809357 1356.185883C493.767792 1338.227463,503.858994 1313.871796,503.858994 1288.472824Z" style="stroke:rgb(25.500488%,41.000366%,88.400269%); stroke-width: 2.500000;stroke-linecap: round;stroke-linejoin: round;stroke-miterlimit: 10.000000;fill: none;"></path>
  <path d="M874.362015 294.941315C874.362015 269.542343,864.270813 245.186676,846.312378 227.228256C828.353958 209.269821,803.998291 199.178619,778.599319 199.178619C753.200348 199.178619,728.844681 209.269821,710.886261 227.228256C692.927826 245.186676,682.836624 269.542343,682.836624 294.941315C682.836624 320.340286,692.927826 344.695953,710.886261 362.654373C728.844681 380.612808,753.200348 390.704010,778.599319 390.704010C803.998291 390.704010,828.353958 380.612808,846.312378 362.654373C864.270813 344.695953,874.362015 320.340286,874.362015 294.941315Z" style="stroke:rgb(25.500488%,41.000366%,88.400269%); stroke-width: 2.500000;stroke-linecap: round;stroke-linejoin: round;stroke-miterlimit: 10.000000;fill: none;"></path>
  <path d="M827.869095 446.565582C827.869095 421.166611,817.777893 396.810944,799.819458 378.852524C781.861038 360.894089,757.505371 350.802887,732.106400 350.802887C706.707428 350.802887,682.351761 360.894089,664.393341 378.852524C646.434906 396.810944,636.343704 421.166611,636.343704 446.565582C636.343704 471.964554,646.434906 496.320221,664.393341 514.278641C682.351761 532.237076,706.707428 542.328278,732.106400 542.328278C757.505371 542.328278,781.861038 532.237076,799.819458 514.278641C817.777893 496.320221,827.869095 471.964554,827.869095 446.565582Z" style="stroke:rgb(25.500488%,41.000366%,88.400269%); stroke-width: 2.500000;stroke-linecap: round;stroke-linejoin: round;stroke-miterlimit: 10.000000;fill: none;"></path>
  <path d="M784.140060 584.175812C784.140060 558.776840,774.048859 534.421173,756.090424 516.462753C738.132004 498.504318,713.776337 488.413116,688.377365 488.413116C662.978394 488.413116,638.622726 498.504318,620.664307 516.462753C602.705872 534.421173,592.614670 558.776840,592.614670 584.175812C592.614670 609.574783,602.705872 633.930450,620.664307 651.888870C638.622726 669.847305,662.978394 679.938507,688.377365 679.938507C713.776337 679.938507,738.132004 669.847305,756.090424 651.888870C774.048859 633.930450,784.140060 609.574783,784.140060 584.175812Z" style="stroke:rgb(25.500488%,41.000366%,88.400269%); stroke-width: 2.500000;stroke-linecap: round;stroke-linejoin: round;stroke-miterlimit: 10.000000;fill: none;"></path>
  <path d="M762.210663 747.634171C762.210663 722.235199,752.119461 697.879532,734.161026 679.921112C716.202606 661.962677,691.846939 651.871475,666.447968 651.871475C641.048996 651.871475,616.693329 661.962677,598.734909 679.921112C580.776474 697.879532,570.685272 722.235199,570.685272 747.634171C570.685272 773.033142,580.776474 797.388809,598.734909 815.347229C616.693329 833.305664,641.048996 843.396866,666.447968 843.396866C691.846939 843.396866,716.202606 833.305664,734.161026 815.347229C752.119461 797.388809,762.210663 773.033142,762.210663 747.634171Z" style="stroke:rgb(25.500488%,41.000366%,88.400269%); stroke-width: 2.500000;stroke-linecap: round;stroke-linejoin: round;stroke-miterlimit: 10.000000;fill: none;"></path>
  <path d="M724.541412 899.764511C724.541412 874.365540,714.450211 850.009872,696.491776 832.051453C678.533356 814.093018,654.177689 804.001816,628.778717 804.001816C603.379745 804.001816,579.024078 814.093018,561.065659 832.051453C543.107224 850.009872,533.016022 874.365540,533.016022 899.764511C533.016022 925.163483,543.107224 949.519150,561.065659 967.477570C579.024078 985.436005,603.379745 995.527206,628.778717 995.527206C654.177689 995.527206,678.533356 985.436005,696.491776 967.477570C714.450211 949.519150,724.541412 925.163483,724.541412 899.764511Z" style="stroke:rgb(25.500488%,41.000366%,88.400269%); stroke-width: 2.500000;stroke-linecap: round;stroke-linejoin: round;stroke-miterlimit: 10.000000;fill: none;"></path>
  <path d="M698.005539 1070.748932C698.005539 1045.349960,687.914337 1020.994293,669.955902 1003.035873C651.997482 985.077438,627.641815 974.986237,602.242844 974.986237C576.843872 974.986237,552.488205 985.077438,534.529785 1003.035873C516.571350 1020.994293,506.480148 1045.349960,506.480148 1070.748932C506.480148 1096.147903,516.571350 1120.503571,534.529785 1138.461990C552.488205 1156.420425,576.843872 1166.511627,602.242844 1166.511627C627.641815 1166.511627,651.997482 1156.420425,669.955902 1138.461990C687.914337 1120.503571,698.005539 1096.147903,698.005539 1070.748932Z" style="stroke:rgb(25.500488%,41.000366%,88.400269%); stroke-width: 2.500000;stroke-linecap: round;stroke-linejoin: round;stroke-miterlimit: 10.000000;fill: none;"></path>
  <path d="M658.350952 1237.425339C658.350952 1212.026367,648.259750 1187.670700,630.301315 1169.712280C612.342896 1151.753845,587.987228 1141.662643,562.588257 1141.662643C537.189285 1141.662643,512.833618 1151.753845,494.875198 1169.712280C476.916763 1187.670700,466.825562 1212.026367,466.825562 1237.425339C466.825562 1262.824310,476.916763 1287.179977,494.875198 1305.138397C512.833618 1323.096832,537.189285 1333.188034,562.588257 1333.188034C587.987228 1333.188034,612.342896 1323.096832,630.301315 1305.138397C648.259750 1287.179977,658.350952 1262.824310,658.350952 1237.425339Z" style="stroke:rgb(25.500488%,41.000366%,88.400269%); stroke-width: 2.500000;stroke-linecap: round;stroke-linejoin: round;stroke-miterlimit: 10.000000;fill: none;"></path>
  <path d="M612.506836 1402.583557C612.506836 1377.184586,602.415634 1352.828918,584.457199 1334.870499C566.498779 1316.912064,542.143112 1306.820862,516.744141 1306.820862C491.345169 1306.820862,466.989502 1316.912064,449.031082 1334.870499C431.072647 1352.828918,420.981445 1377.184586,420.981445 1402.583557C420.981445 1427.982529,431.072647 1452.338196,449.031082 1470.296616C466.989502 1488.255051,491.345169 1498.346252,516.744141 1498.346252C542.143112 1498.346252,566.498779 1488.255051,584.457199 1470.296616C602.415634 1452.338196,612.506836 1427.982529,612.506836 1402.583557Z" style="stroke:rgb(25.500488%,41.000366%,88.400269%); stroke-width: 2.500000;stroke-linecap: round;stroke-linejoin: round;stroke-miterlimit: 10.000000;fill: none;"></path>
  <path d="M1036.406006 256.610291C1036.406006 231.211319,1026.314804 206.855652,1008.356369 188.897232C990.397949 170.938797,966.042282 160.847595,940.643311 160.847595C915.244339 160.847595,890.888672 170.938797,872.930252 188.897232C854.971817 206.855652,844.880615 231.211319,844.880615 256.610291C844.880615 282.009262,854.971817 306.364929,872.930252 324.323349C890.888672 342.281784,915.244339 352.372986,940.643311 352.372986C966.042282 352.372986,990.397949 342.281784,1008.356369 324.323349C1026.314804 306.364929,1036.406006 282.009262,1036.406006 256.610291Z" style="stroke:rgb(25.500488%,41.000366%,88.400269%); stroke-width: 2.500000;stroke-linecap: round;stroke-linejoin: round;stroke-miterlimit: 10.000000;fill: none;"></path>
  <path d="M994.376816 413.386017C994.376816 387.987045,984.285614 363.631378,966.327179 345.672958C948.368759 327.714523,924.013092 317.623322,898.614120 317.623322C873.215149 317.623322,848.859482 327.714523,830.901062 345.672958C812.942627 363.631378,802.851425 387.987045,802.851425 413.386017C802.851425 438.784988,812.942627 463.140656,830.901062 481.099075C848.859482 499.057510,873.215149 509.148712,898.614120 509.148712C924.013092 509.148712,948.368759 499.057510,966.327179 481.099075C984.285614 463.140656,994.376816 438.784988,994.376816 413.386017Z" style="stroke:rgb(25.500488%,41.000366%,88.400269%); stroke-width: 2.500000;stroke-linecap: round;stroke-linejoin: round;stroke-miterlimit: 10.000000;fill: none;"></path>
  <path d="M955.345078 562.389145C955.345078 536.990173,945.253876 512.634506,927.295441 494.676086C909.337021 476.717651,884.981354 466.626450,859.582382 466.626450C834.183411 466.626450,809.827744 476.717651,791.869324 494.676086C773.910889 512.634506,763.819687 536.990173,763.819687 562.389145C763.819687 587.788116,773.910889 612.143784,791.869324 630.102203C809.827744 648.060638,834.183411 658.151840,859.582382 658.151840C884.981354 658.151840,909.337021 648.060638,927.295441 630.102203C945.253876 612.143784,955.345078 587.788116,955.345078 562.389145Z" style="stroke:rgb(25.500488%,41.000366%,88.400269%); stroke-width: 2.500000;stroke-linecap: round;stroke-linejoin: round;stroke-miterlimit: 10.000000;fill: none;"></path>
  <path d="M912.303772 702.685394C912.303772 677.286423,902.212570 652.930756,884.254135 634.972336C866.295715 617.013901,841.940048 606.922699,816.541077 606.922699C791.142105 606.922699,766.786438 617.013901,748.828018 634.972336C730.869583 652.930756,720.778381 677.286423,720.778381 702.685394C720.778381 728.084366,730.869583 752.440033,748.828018 770.398453C766.786438 788.356888,791.142105 798.448090,816.541077 798.448090C841.940048 798.448090,866.295715 788.356888,884.254135 770.398453C902.212570 752.440033,912.303772 728.084366,912.303772 702.685394Z" style="stroke:rgb(25.500488%,41.000366%,88.400269%); stroke-width: 2.500000;stroke-linecap: round;stroke-linejoin: round;stroke-miterlimit: 10.000000;fill: none;"></path>
  <path d="M888.207382 865.585785C888.207382 840.186813,878.116180 815.831146,860.157745 797.872726C842.199326 779.914291,817.843658 769.823090,792.444687 769.823090C767.045715 769.823090,742.690048 779.914291,724.731628 797.872726C706.773193 815.831146,696.681992 840.186813,696.681992 865.585785C696.681992 890.984756,706.773193 915.340424,724.731628 933.298843C742.690048 951.257278,767.045715 961.348480,792.444687 961.348480C817.843658 961.348480,842.199326 951.257278,860.157745 933.298843C878.116180 915.340424,888.207382 890.984756,888.207382 865.585785Z" style="stroke:rgb(25.500488%,41.000366%,88.400269%); stroke-width: 2.500000;stroke-linecap: round;stroke-linejoin: round;stroke-miterlimit: 10.000000;fill: none;"></path>
  <path d="M843.232651 1020.207504C843.232651 994.808533,833.141449 970.452866,815.183014 952.494446C797.224594 934.536011,772.868927 924.444809,747.469955 924.444809C722.070984 924.444809,697.715317 934.536011,679.756897 952.494446C661.798462 970.452866,651.707260 994.808533,651.707260 1020.207504C651.707260 1045.606476,661.798462 1069.962143,679.756897 1087.920563C697.715317 1105.878998,722.070984 1115.970200,747.469955 1115.970200C772.868927 1115.970200,797.224594 1105.878998,815.183014 1087.920563C833.141449 1069.962143,843.232651 1045.606476,843.232651 1020.207504Z" style="stroke:rgb(25.500488%,41.000366%,88.400269%); stroke-width: 2.500000;stroke-linecap: round;stroke-linejoin: round;stroke-miterlimit: 10.000000;fill: none;"></path>
  <path d="M813.673386 1183.198730C813.673386 1157.799759,803.582184 1133.444092,785.623749 1115.485672C767.665329 1097.527237,743.309662 1087.436035,717.910690 1087.436035C692.511719 1087.436035,668.156052 1097.527237,650.197632 1115.485672C632.239197 1133.444092,622.147995 1157.799759,622.147995 1183.198730C622.147995 1208.597702,632.239197 1232.953369,650.197632 1250.911789C668.156052 1268.870224,692.511719 1278.961426,717.910690 1278.961426C743.309662 1278.961426,767.665329 1268.870224,785.623749 1250.911789C803.582184 1232.953369,813.673386 1208.597702,813.673386 1183.198730Z" style="stroke:rgb(25.500488%,41.000366%,88.400269%); stroke-width: 2.500000;stroke-linecap: round;stroke-linejoin: round;stroke-miterlimit: 10.000000;fill: none;"></path>
  <path d="M770.891586 1348.318024C770.891586 1322.919052,760.800385 1298.563385,742.841949 1280.604965C724.883530 1262.646530,700.527863 1252.555328,675.128891 1252.555328C649.729919 1252.555328,625.374252 1262.646530,607.415833 1280.604965C589.457397 1298.563385,579.366196 1322.919052,579.366196 1348.318024C579.366196 1373.716995,589.457397 1398.072662,607.415833 1416.031082C625.374252 1433.989517,649.729919 1444.080719,675.128891 1444.080719C700.527863 1444.080719,724.883530 1433.989517,742.841949 1416.031082C760.800385 1398.072662,770.891586 1373.716995,770.891586 1348.318024Z" style="stroke:rgb(25.500488%,41.000366%,88.400269%); stroke-width: 2.500000;stroke-linecap: round;stroke-linejoin: round;stroke-miterlimit: 10.000000;fill: none;"></path>
  <path d="M727.655640 1512.931244C727.655640 1487.532272,717.564438 1463.176605,699.606003 1445.218185C681.647583 1427.259750,657.291916 1417.168549,631.892944 1417.168549C606.493973 1417.168549,582.138306 1427.259750,564.179886 1445.218185C546.221451 1463.176605,536.130249 1487.532272,536.130249 1512.931244C536.130249 1538.330215,546.221451 1562.685883,564.179886 1580.644302C582.138306 1598.602737,606.493973 1608.693939,631.892944 1608.693939C657.291916 1608.693939,681.647583 1598.602737,699.606003 1580.644302C717.564438 1562.685883,727.655640 1538.330215,727.655640 1512.931244Z" style="stroke:rgb(25.500488%,41.000366%,88.400269%); stroke-width: 2.500000;stroke-linecap: round;stroke-linejoin: round;stroke-miterlimit: 10.000000;fill: none;"></path>
  <path d="M1157.316132 359.912018C1157.316132 334.513046,1147.224930 310.157379,1129.266495 292.198959C1111.308075 274.240524,1086.952408 264.149323,1061.553436 264.149323C1036.154465 264.149323,1011.798798 274.240524,993.840378 292.198959C975.881943 310.157379,965.790741 334.513046,965.790741 359.912018C965.790741 385.310989,975.881943 409.666656,993.840378 427.625076C1011.798798 445.583511,1036.154465 455.674713,1061.553436 455.674713C1086.952408 455.674713,1111.308075 445.583511,1129.266495 427.625076C1147.224930 409.666656,1157.316132 385.310989,1157.316132 359.912018Z" style="stroke:rgb(25.500488%,41.000366%,88.400269%); stroke-width: 2.500000;stroke-linecap: round;stroke-linejoin: round;stroke-miterlimit: 10.000000;fill: none;"></path>
  <path d="M1118.427139 518.374634C1118.427139 492.975662,1108.335938 468.619995,1090.377502 450.661575C1072.419083 432.703140,1048.063416 422.611938,1022.664444 422.611938C997.265472 422.611938,972.909805 432.703140,954.951385 450.661575C936.992950 468.619995,926.901749 492.975662,926.901749 518.374634C926.901749 543.773605,936.992950 568.129272,954.951385 586.087692C972.909805 604.046127,997.265472 614.137329,1022.664444 614.137329C1048.063416 614.137329,1072.419083 604.046127,1090.377502 586.087692C1108.335938 568.129272,1118.427139 543.773605,1118.427139 518.374634Z" style="stroke:rgb(25.500488%,41.000366%,88.400269%); stroke-width: 2.500000;stroke-linecap: round;stroke-linejoin: round;stroke-miterlimit: 10.000000;fill: none;"></path>
  <path d="M1079.148865 674.761093C1079.148865 649.362122,1069.057663 625.006454,1051.099228 607.048035C1033.140808 589.089600,1008.785141 578.998398,983.386169 578.998398C957.987198 578.998398,933.631531 589.089600,915.673111 607.048035C897.714676 625.006454,887.623474 649.362122,887.623474 674.761093C887.623474 700.160065,897.714676 724.515732,915.673111 742.474152C933.631531 760.432587,957.987198 770.523788,983.386169 770.523788C1008.785141 770.523788,1033.140808 760.432587,1051.099228 742.474152C1069.057663 724.515732,1079.148865 700.160065,1079.148865 674.761093Z" style="stroke:rgb(25.500488%,41.000366%,88.400269%); stroke-width: 2.500000;stroke-linecap: round;stroke-linejoin: round;stroke-miterlimit: 10.000000;fill: none;"></path>
  <path d="M1039.481308 821.649139C1039.481308 796.250168,1029.390106 771.894501,1011.431671 753.936081C993.473251 735.977646,969.117584 725.886444,943.718613 725.886444C918.319641 725.886444,893.963974 735.977646,876.005554 753.936081C858.047119 771.894501,847.955917 796.250168,847.955917 821.649139C847.955917 847.048111,858.047119 871.403778,876.005554 889.362198C893.963974 907.320633,918.319641 917.411835,943.718613 917.411835C969.117584 917.411835,993.473251 907.320633,1011.431671 889.362198C1029.390106 871.403778,1039.481308 847.048111,1039.481308 821.649139Z" style="stroke:rgb(25.500488%,41.000366%,88.400269%); stroke-width: 2.500000;stroke-linecap: round;stroke-linejoin: round;stroke-miterlimit: 10.000000;fill: none;"></path>
  <path d="M1006.340668 987.741623C1006.340668 962.342651,996.249466 937.986984,978.291031 920.028564C960.332611 902.070129,935.976944 891.978928,910.577972 891.978928C885.179001 891.978928,860.823334 902.070129,842.864914 920.028564C824.906479 937.986984,814.815277 962.342651,814.815277 987.741623C814.815277 1013.140594,824.906479 1037.496262,842.864914 1055.454681C860.823334 1073.413116,885.179001 1083.504318,910.577972 1083.504318C935.976944 1083.504318,960.332611 1073.413116,978.291031 1055.454681C996.249466 1037.496262,1006.340668 1013.140594,1006.340668 987.741623Z" style="stroke:rgb(25.500488%,41.000366%,88.400269%); stroke-width: 2.500000;stroke-linecap: round;stroke-linejoin: round;stroke-miterlimit: 10.000000;fill: none;"></path>
  <path d="M966.595245 1140.650513C966.595245 1115.251541,956.504044 1090.895874,938.545609 1072.937454C920.587189 1054.979019,896.231522 1044.887817,870.832550 1044.887817C845.433578 1044.887817,821.077911 1054.979019,803.119492 1072.937454C785.161057 1090.895874,775.069855 1115.251541,775.069855 1140.650513C775.069855 1166.049484,785.161057 1190.405151,803.119492 1208.363571C821.077911 1226.322006,845.433578 1236.413208,870.832550 1236.413208C896.231522 1236.413208,920.587189 1226.322006,938.545609 1208.363571C956.504044 1190.405151,966.595245 1166.049484,966.595245 1140.650513Z" style="stroke:rgb(25.500488%,41.000366%,88.400269%); stroke-width: 2.500000;stroke-linecap: round;stroke-linejoin: round;stroke-miterlimit: 10.000000;fill: none;"></path>
  <path d="M925.292725 1307.041443C925.292725 1281.642471,915.201523 1257.286804,897.243088 1239.328384C879.284668 1221.369949,854.929001 1211.278748,829.530029 1211.278748C804.131058 1211.278748,779.775391 1221.369949,761.816971 1239.328384C743.858536 1257.286804,733.767334 1281.642471,733.767334 1307.041443C733.767334 1332.440414,743.858536 1356.796082,761.816971 1374.754501C779.775391 1392.712936,804.131058 1402.804138,829.530029 1402.804138C854.929001 1402.804138,879.284668 1392.712936,897.243088 1374.754501C915.201523 1356.796082,925.292725 1332.440414,925.292725 1307.041443Z" style="stroke:rgb(25.500488%,41.000366%,88.400269%); stroke-width: 2.500000;stroke-linecap: round;stroke-linejoin: round;stroke-miterlimit: 10.000000;fill: none;"></path>
  <path d="M882.588791 1472.147751C882.588791 1446.748779,872.497589 1422.393112,854.539154 1404.434692C836.580734 1386.476257,812.225067 1376.385056,786.826096 1376.385056C761.427124 1376.385056,737.071457 1386.476257,719.113037 1404.434692C701.154602 1422.393112,691.063400 1446.748779,691.063400 1472.147751C691.063400 1497.546722,701.154602 1521.902390,719.113037 1539.860809C737.071457 1557.819244,761.427124 1567.910446,786.826096 1567.910446C812.225067 1567.910446,836.580734 1557.819244,854.539154 1539.860809C872.497589 1521.902390,882.588791 1497.546722,882.588791 1472.147751Z" style="stroke:rgb(25.500488%,41.000366%,88.400269%); stroke-width: 2.500000;stroke-linecap: round;stroke-linejoin: round;stroke-miterlimit: 10.000000;fill: none;"></path>
  <path d="M1309.381592 331.416779C1309.381592 306.017807,1299.290390 281.662140,1281.331955 263.703720C1263.373535 245.745285,1239.017868 235.654083,1213.618896 235.654083C1188.219925 235.654083,1163.864258 245.745285,1145.905838 263.703720C1127.947403 281.662140,1117.856201 306.017807,1117.856201 331.416779C1117.856201 356.815750,1127.947403 381.171417,1145.905838 399.129837C1163.864258 417.088272,1188.219925 427.179474,1213.618896 427.179474C1239.017868 427.179474,1263.373535 417.088272,1281.331955 399.129837C1299.290390 381.171417,1309.381592 356.815750,1309.381592 331.416779Z" style="stroke:rgb(25.500488%,41.000366%,88.400269%); stroke-width: 2.500000;stroke-linecap: round;stroke-linejoin: round;stroke-miterlimit: 10.000000;fill: none;"></path>
  <path d="M1273.022919 492.331848C1273.022919 466.932877,1262.931717 442.577209,1244.973282 424.618790C1227.014862 406.660355,1202.659195 396.569153,1177.260223 396.569153C1151.861252 396.569153,1127.505585 406.660355,1109.547165 424.618790C1091.588730 442.577209,1081.497528 466.932877,1081.497528 492.331848C1081.497528 517.730820,1091.588730 542.086487,1109.547165 560.044907C1127.505585 578.003342,1151.861252 588.094543,1177.260223 588.094543C1202.659195 588.094543,1227.014862 578.003342,1244.973282 560.044907C1262.931717 542.086487,1273.022919 517.730820,1273.022919 492.331848Z" style="stroke:rgb(25.500488%,41.000366%,88.400269%); stroke-width: 2.500000;stroke-linecap: round;stroke-linejoin: round;stroke-miterlimit: 10.000000;fill: none;"></path>
  <path d="M1236.768036 647.290955C1236.768036 621.891983,1226.676834 597.536316,1208.718399 579.577896C1190.759979 561.619461,1166.404312 551.528259,1141.005341 551.528259C1115.606369 551.528259,1091.250702 561.619461,1073.292282 579.577896C1055.333847 597.536316,1045.242645 621.891983,1045.242645 647.290955C1045.242645 672.689926,1055.333847 697.045593,1073.292282 715.004013C1091.250702 732.962448,1115.606369 743.053650,1141.005341 743.053650C1166.404312 743.053650,1190.759979 732.962448,1208.718399 715.004013C1226.676834 697.045593,1236.768036 672.689926,1236.768036 647.290955Z" style="stroke:rgb(25.500488%,41.000366%,88.400269%); stroke-width: 2.500000;stroke-linecap: round;stroke-linejoin: round;stroke-miterlimit: 10.000000;fill: none;"></path>
  <path d="M1207.027100 791.518921C1207.027100 766.119949,1196.935898 741.764282,1178.977463 723.805862C1161.019043 705.847427,1136.663376 695.756226,1111.264404 695.756226C1085.865433 695.756226,1061.509766 705.847427,1043.551346 723.805862C1025.592911 741.764282,1015.501709 766.119949,1015.501709 791.518921C1015.501709 816.917892,1025.592911 841.273560,1043.551346 859.231979C1061.509766 877.190414,1085.865433 887.281616,1111.264404 887.281616C1136.663376 887.281616,1161.019043 877.190414,1178.977463 859.231979C1196.935898 841.273560,1207.027100 816.917892,1207.027100 791.518921Z" style="stroke:rgb(25.500488%,41.000366%,88.400269%); stroke-width: 2.500000;stroke-linecap: round;stroke-linejoin: round;stroke-miterlimit: 10.000000;fill: none;"></path>
  <path d="M1158.328262 941.586075C1158.328262 916.187103,1148.237061 891.831436,1130.278625 873.873016C1112.320206 855.914581,1087.964539 845.823380,1062.565567 845.823380C1037.166595 845.823380,1012.810928 855.914581,994.852509 873.873016C976.894073 891.831436,966.802872 916.187103,966.802872 941.586075C966.802872 966.985046,976.894073 991.340714,994.852509 1009.299133C1012.810928 1027.257568,1037.166595 1037.348770,1062.565567 1037.348770C1087.964539 1037.348770,1112.320206 1027.257568,1130.278625 1009.299133C1148.237061 991.340714,1158.328262 966.985046,1158.328262 941.586075Z" style="stroke:rgb(25.500488%,41.000366%,88.400269%); stroke-width: 2.500000;stroke-linecap: round;stroke-linejoin: round;stroke-miterlimit: 10.000000;fill: none;"></path>
  <path d="M1130.416946 1105.952759C1130.416946 1080.553787,1120.325745 1056.198120,1102.367310 1038.239700C1084.408890 1020.281265,1060.053223 1010.190063,1034.654251 1010.190063C1009.255280 1010.190063,984.899612 1020.281265,966.941193 1038.239700C948.982758 1056.198120,938.891556 1080.553787,938.891556 1105.952759C938.891556 1131.351730,948.982758 1155.707397,966.941193 1173.665817C984.899612 1191.624252,1009.255280 1201.715454,1034.654251 1201.715454C1060.053223 1201.715454,1084.408890 1191.624252,1102.367310 1173.665817C1120.325745 1155.707397,1130.416946 1131.351730,1130.416946 1105.952759Z" style="stroke:rgb(25.500488%,41.000366%,88.400269%); stroke-width: 2.500000;stroke-linecap: round;stroke-linejoin: round;stroke-miterlimit: 10.000000;fill: none;"></path>
  <path d="M1082.418808 1246.106262C1082.418808 1220.707291,1072.327606 1196.351624,1054.369171 1178.393204C1036.410751 1160.434769,1012.055084 1150.343567,986.656113 1150.343567C961.257141 1150.343567,936.901474 1160.434769,918.943054 1178.393204C900.984619 1196.351624,890.893417 1220.707291,890.893417 1246.106262C890.893417 1271.505234,900.984619 1295.860901,918.943054 1313.819321C936.901474 1331.777756,961.257141 1341.868958,986.656113 1341.868958C1012.055084 1341.868958,1036.410751 1331.777756,1054.369171 1313.819321C1072.327606 1295.860901,1082.418808 1271.505234,1082.418808 1246.106262Z" style="stroke:rgb(25.500488%,41.000366%,88.400269%); stroke-width: 2.500000;stroke-linecap: round;stroke-linejoin: round;stroke-miterlimit: 10.000000;fill: none;"></path>
  <path d="M1041.894836 1403.141525C1041.894836 1377.742554,1031.803635 1353.386887,1013.845200 1335.428467C995.886780 1317.470032,971.531113 1307.378830,946.132141 1307.378830C920.733170 1307.378830,896.377502 1317.470032,878.419083 1335.428467C860.460648 1353.386887,850.369446 1377.742554,850.369446 1403.141525C850.369446 1428.540497,860.460648 1452.896164,878.419083 1470.854584C896.377502 1488.813019,920.733170 1498.904221,946.132141 1498.904221C971.531113 1498.904221,995.886780 1488.813019,1013.845200 1470.854584C1031.803635 1452.896164,1041.894836 1428.540497,1041.894836 1403.141525Z" style="stroke:rgb(25.500488%,41.000366%,88.400269%); stroke-width: 2.500000;stroke-linecap: round;stroke-linejoin: round;stroke-miterlimit: 10.000000;fill: none;"></path>
  <path d="M1002.979889 1564.666458C1002.979889 1539.267487,992.888687 1514.911819,974.930252 1496.953400C956.971832 1478.994965,932.616165 1468.903763,907.217194 1468.903763C881.818222 1468.903763,857.462555 1478.994965,839.504135 1496.953400C821.545700 1514.911819,811.454498 1539.267487,811.454498 1564.666458C811.454498 1590.065430,821.545700 1614.421097,839.504135 1632.379517C857.462555 1650.337952,881.818222 1660.429153,907.217194 1660.429153C932.616165 1660.429153,956.971832 1650.337952,974.930252 1632.379517C992.888687 1614.421097,1002.979889 1590.065430,1002.979889 1564.666458Z" style="stroke:rgb(25.500488%,41.000366%,88.400269%); stroke-width: 2.500000;stroke-linecap: round;stroke-linejoin: round;stroke-miterlimit: 10.000000;fill: none;"></path>
  <path d="M1430.421494 450.004227C1430.421494 424.605255,1420.330292 400.249588,1402.371857 382.291168C1384.413437 364.332733,1360.057770 354.241531,1334.658798 354.241531C1309.259827 354.241531,1284.904160 364.332733,1266.945740 382.291168C1248.987305 400.249588,1238.896103 424.605255,1238.896103 450.004227C1238.896103 475.403198,1248.987305 499.758865,1266.945740 517.717285C1284.904160 535.675720,1309.259827 545.766922,1334.658798 545.766922C1360.057770 545.766922,1384.413437 535.675720,1402.371857 517.717285C1420.330292 499.758865,1430.421494 475.403198,1430.421494 450.004227Z" style="stroke:rgb(25.500488%,41.000366%,88.400269%); stroke-width: 2.500000;stroke-linecap: round;stroke-linejoin: round;stroke-miterlimit: 10.000000;fill: none;"></path>
  <path d="M1398.565475 609.362183C1398.565475 583.963211,1388.474274 559.607544,1370.515839 541.649124C1352.557419 523.690689,1328.201752 513.599487,1302.802780 513.599487C1277.403809 513.599487,1253.048141 523.690689,1235.089722 541.649124C1217.131287 559.607544,1207.040085 583.963211,1207.040085 609.362183C1207.040085 634.761154,1217.131287 659.116821,1235.089722 677.075241C1253.048141 695.033676,1277.403809 705.124878,1302.802780 705.124878C1328.201752 705.124878,1352.557419 695.033676,1370.515839 677.075241C1388.474274 659.116821,1398.565475 634.761154,1398.565475 609.362183Z" style="stroke:rgb(25.500488%,41.000366%,88.400269%); stroke-width: 2.500000;stroke-linecap: round;stroke-linejoin: round;stroke-miterlimit: 10.000000;fill: none;"></path>
  <path d="M1374.430161 756.405930C1374.430161 731.006958,1364.338959 706.651291,1346.380524 688.692871C1328.422104 670.734436,1304.066437 660.643234,1278.667465 660.643234C1253.268494 660.643234,1228.912827 670.734436,1210.954407 688.692871C1192.995972 706.651291,1182.904770 731.006958,1182.904770 756.405930C1182.904770 781.804901,1192.995972 806.160568,1210.954407 824.118988C1228.912827 842.077423,1253.268494 852.168625,1278.667465 852.168625C1304.066437 852.168625,1328.422104 842.077423,1346.380524 824.118988C1364.338959 806.160568,1374.430161 781.804901,1374.430161 756.405930Z" style="stroke:rgb(25.500488%,41.000366%,88.400269%); stroke-width: 2.500000;stroke-linecap: round;stroke-linejoin: round;stroke-miterlimit: 10.000000;fill: none;"></path>
  <path d="M1326.873215 907.952347C1326.873215 882.553375,1316.782013 858.197708,1298.823578 840.239288C1280.865158 822.280853,1256.509491 812.189651,1231.110519 812.189651C1205.711548 812.189651,1181.355881 822.280853,1163.397461 840.239288C1145.439026 858.197708,1135.347824 882.553375,1135.347824 907.952347C1135.347824 933.351318,1145.439026 957.706985,1163.397461 975.665405C1181.355881 993.623840,1205.711548 1003.715042,1231.110519 1003.715042C1256.509491 1003.715042,1280.865158 993.623840,1298.823578 975.665405C1316.782013 957.706985,1326.873215 933.351318,1326.873215 907.952347Z" style="stroke:rgb(25.500488%,41.000366%,88.400269%); stroke-width: 2.500000;stroke-linecap: round;stroke-linejoin: round;stroke-miterlimit: 10.000000;fill: none;"></path>
  <path d="M1283.403687 1056.306671C1283.403687 1030.907700,1273.312485 1006.552032,1255.354050 988.593613C1237.395630 970.635178,1213.039963 960.543976,1187.640991 960.543976C1162.242020 960.543976,1137.886353 970.635178,1119.927933 988.593613C1101.969498 1006.552032,1091.878296 1030.907700,1091.878296 1056.306671C1091.878296 1081.705643,1101.969498 1106.061310,1119.927933 1124.019730C1137.886353 1141.978165,1162.242020 1152.069366,1187.640991 1152.069366C1213.039963 1152.069366,1237.395630 1141.978165,1255.354050 1124.019730C1273.312485 1106.061310,1283.403687 1081.705643,1283.403687 1056.306671Z" style="stroke:rgb(25.500488%,41.000366%,88.400269%); stroke-width: 2.500000;stroke-linecap: round;stroke-linejoin: round;stroke-miterlimit: 10.000000;fill: none;"></path>
  <path d="M1256.400681 1220.335983C1256.400681 1194.937012,1246.309479 1170.581345,1228.351044 1152.622925C1210.392624 1134.664490,1186.036957 1124.573288,1160.637985 1124.573288C1135.239014 1124.573288,1110.883347 1134.664490,1092.924927 1152.622925C1074.966492 1170.581345,1064.875290 1194.937012,1064.875290 1220.335983C1064.875290 1245.734955,1074.966492 1270.090622,1092.924927 1288.049042C1110.883347 1306.007477,1135.239014 1316.098679,1160.637985 1316.098679C1186.036957 1316.098679,1210.392624 1306.007477,1228.351044 1288.049042C1246.309479 1270.090622,1256.400681 1245.734955,1256.400681 1220.335983Z" style="stroke:rgb(25.500488%,41.000366%,88.400269%); stroke-width: 2.500000;stroke-linecap: round;stroke-linejoin: round;stroke-miterlimit: 10.000000;fill: none;"></path>
  <path d="M1204.795227 1358.945343C1204.795227 1333.546371,1194.704025 1309.190704,1176.745590 1291.232285C1158.787170 1273.273849,1134.431503 1263.182648,1109.032532 1263.182648C1083.633560 1263.182648,1059.277893 1273.273849,1041.319473 1291.232285C1023.361038 1309.190704,1013.269836 1333.546371,1013.269836 1358.945343C1013.269836 1384.344315,1023.361038 1408.699982,1041.319473 1426.658401C1059.277893 1444.616837,1083.633560 1454.708038,1109.032532 1454.708038C1134.431503 1454.708038,1158.787170 1444.616837,1176.745590 1426.658401C1194.704025 1408.699982,1204.795227 1384.344315,1204.795227 1358.945343Z" style="stroke:rgb(25.500488%,41.000366%,88.400269%); stroke-width: 2.500000;stroke-linecap: round;stroke-linejoin: round;stroke-miterlimit: 10.000000;fill: none;"></path>
  <path d="M1162.065353 1516.655350C1162.065353 1491.256378,1151.974152 1466.900711,1134.015717 1448.942291C1116.057297 1430.983856,1091.701630 1420.892654,1066.302658 1420.892654C1040.903687 1420.892654,1016.548019 1430.983856,998.589600 1448.942291C980.631165 1466.900711,970.539963 1491.256378,970.539963 1516.655350C970.539963 1542.054321,980.631165 1566.409988,998.589600 1584.368408C1016.548019 1602.326843,1040.903687 1612.418045,1066.302658 1612.418045C1091.701630 1612.418045,1116.057297 1602.326843,1134.015717 1584.368408C1151.974152 1566.409988,1162.065353 1542.054321,1162.065353 1516.655350Z" style="stroke:rgb(25.500488%,41.000366%,88.400269%); stroke-width: 2.500000;stroke-linecap: round;stroke-linejoin: round;stroke-miterlimit: 10.000000;fill: none;"></path>
  <path d="M1555.769409 567.670364C1555.769409 542.271393,1545.678207 517.915726,1527.719772 499.957306C1509.761353 481.998871,1485.405685 471.907669,1460.006714 471.907669C1434.607742 471.907669,1410.252075 481.998871,1392.293655 499.957306C1374.335220 517.915726,1364.244019 542.271393,1364.244019 567.670364C1364.244019 593.069336,1374.335220 617.425003,1392.293655 635.383423C1410.252075 653.341858,1434.607742 663.433060,1460.006714 663.433060C1485.405685 663.433060,1509.761353 653.341858,1527.719772 635.383423C1545.678207 617.425003,1555.769409 593.069336,1555.769409 567.670364Z" style="stroke:rgb(25.500488%,41.000366%,88.400269%); stroke-width: 2.500000;stroke-linecap: round;stroke-linejoin: round;stroke-miterlimit: 10.000000;fill: none;"></path>
  <path d="M1538.251846 717.919189C1538.251846 692.520218,1528.160645 668.164551,1510.202209 650.206131C1492.243790 632.247696,1467.888123 622.156494,1442.489151 622.156494C1417.090179 622.156494,1392.734512 632.247696,1374.776093 650.206131C1356.817657 668.164551,1346.726456 692.520218,1346.726456 717.919189C1346.726456 743.318161,1356.817657 767.673828,1374.776093 785.632248C1392.734512 803.590683,1417.090179 813.681885,1442.489151 813.681885C1467.888123 813.681885,1492.243790 803.590683,1510.202209 785.632248C1528.160645 767.673828,1538.251846 743.318161,1538.251846 717.919189Z" style="stroke:rgb(25.500488%,41.000366%,88.400269%); stroke-width: 2.500000;stroke-linecap: round;stroke-linejoin: round;stroke-miterlimit: 10.000000;fill: none;"></path>
  <path d="M1493.199265 873.747681C1493.199265 848.348709,1483.108063 823.993042,1465.149628 806.034622C1447.191208 788.076187,1422.835541 777.984985,1397.436569 777.984985C1372.037598 777.984985,1347.681931 788.076187,1329.723511 806.034622C1311.765076 823.993042,1301.673874 848.348709,1301.673874 873.747681C1301.673874 899.146652,1311.765076 923.502319,1329.723511 941.460739C1347.681931 959.419174,1372.037598 969.510376,1397.436569 969.510376C1422.835541 969.510376,1447.191208 959.419174,1465.149628 941.460739C1483.108063 923.502319,1493.199265 899.146652,1493.199265 873.747681Z" style="stroke:rgb(25.500488%,41.000366%,88.400269%); stroke-width: 2.500000;stroke-linecap: round;stroke-linejoin: round;stroke-miterlimit: 10.000000;fill: none;"></path>
  <path d="M1451.494476 1024.320892C1451.494476 998.921921,1441.403275 974.566254,1423.444839 956.607834C1405.486420 938.649399,1381.130753 928.558197,1355.731781 928.558197C1330.332809 928.558197,1305.977142 938.649399,1288.018723 956.607834C1270.060287 974.566254,1259.969086 998.921921,1259.969086 1024.320892C1259.969086 1049.719864,1270.060287 1074.075531,1288.018723 1092.033951C1305.977142 1109.992386,1330.332809 1120.083588,1355.731781 1120.083588C1381.130753 1120.083588,1405.486420 1109.992386,1423.444839 1092.033951C1441.403275 1074.075531,1451.494476 1049.719864,1451.494476 1024.320892Z" style="stroke:rgb(25.500488%,41.000366%,88.400269%); stroke-width: 2.500000;stroke-linecap: round;stroke-linejoin: round;stroke-miterlimit: 10.000000;fill: none;"></path>
  <path d="M1408.933273 1172.337845C1408.933273 1146.938873,1398.842072 1122.583206,1380.883636 1104.624786C1362.925217 1086.666351,1338.569550 1076.575150,1313.170578 1076.575150C1287.771606 1076.575150,1263.415939 1086.666351,1245.457520 1104.624786C1227.499084 1122.583206,1217.407883 1146.938873,1217.407883 1172.337845C1217.407883 1197.736816,1227.499084 1222.092484,1245.457520 1240.050903C1263.415939 1258.009338,1287.771606 1268.100540,1313.170578 1268.100540C1338.569550 1268.100540,1362.925217 1258.009338,1380.883636 1240.050903C1398.842072 1222.092484,1408.933273 1197.736816,1408.933273 1172.337845Z" style="stroke:rgb(25.500488%,41.000366%,88.400269%); stroke-width: 2.500000;stroke-linecap: round;stroke-linejoin: round;stroke-miterlimit: 10.000000;fill: none;"></path>
  <path d="M1379.724350 1337.171661C1379.724350 1311.772690,1369.633148 1287.417023,1351.674713 1269.458603C1333.716293 1251.500168,1309.360626 1241.408966,1283.961655 1241.408966C1258.562683 1241.408966,1234.207016 1251.500168,1216.248596 1269.458603C1198.290161 1287.417023,1188.198959 1311.772690,1188.198959 1337.171661C1188.198959 1362.570633,1198.290161 1386.926300,1216.248596 1404.884720C1234.207016 1422.843155,1258.562683 1432.934357,1283.961655 1432.934357C1309.360626 1432.934357,1333.716293 1422.843155,1351.674713 1404.884720C1369.633148 1386.926300,1379.724350 1362.570633,1379.724350 1337.171661Z" style="stroke:rgb(25.500488%,41.000366%,88.400269%); stroke-width: 2.500000;stroke-linecap: round;stroke-linejoin: round;stroke-miterlimit: 10.000000;fill: none;"></path>
  <path d="M1323.758972 1477.156479C1323.758972 1451.757507,1313.667770 1427.401840,1295.709335 1409.443420C1277.750916 1391.484985,1253.395248 1381.393784,1227.996277 1381.393784C1202.597305 1381.393784,1178.241638 1391.484985,1160.283218 1409.443420C1142.324783 1427.401840,1132.233582 1451.757507,1132.233582 1477.156479C1132.233582 1502.555450,1142.324783 1526.911118,1160.283218 1544.869537C1178.241638 1562.827972,1202.597305 1572.919174,1227.996277 1572.919174C1253.395248 1572.919174,1277.750916 1562.827972,1295.709335 1544.869537C1313.667770 1526.911118,1323.758972 1502.555450,1323.758972 1477.156479Z" style="stroke:rgb(25.500488%,41.000366%,88.400269%); stroke-width: 2.500000;stroke-linecap: round;stroke-linejoin: round;stroke-miterlimit: 10.000000;fill: none;"></path>
  <path d="M1653.556366 833.651917C1653.556366 808.252945,1643.465164 783.897278,1625.506729 765.938858C1607.548309 747.980423,1583.192642 737.889221,1557.793671 737.889221C1532.394699 737.889221,1508.039032 747.980423,1490.080612 765.938858C1472.122177 783.897278,1462.030975 808.252945,1462.030975 833.651917C1462.030975 859.050888,1472.122177 883.406555,1490.080612 901.364975C1508.039032 919.323410,1532.394699 929.414612,1557.793671 929.414612C1583.192642 929.414612,1607.548309 919.323410,1625.506729 901.364975C1643.465164 883.406555,1653.556366 859.050888,1653.556366 833.651917Z" style="stroke:rgb(25.500488%,41.000366%,88.400269%); stroke-width: 2.500000;stroke-linecap: round;stroke-linejoin: round;stroke-miterlimit: 10.000000;fill: none;"></path>
  <path d="M1617.664825 990.700134C1617.664825 965.301163,1607.573624 940.945496,1589.615189 922.987076C1571.656769 905.028641,1547.301102 894.937439,1521.902130 894.937439C1496.503159 894.937439,1472.147491 905.028641,1454.189072 922.987076C1436.230637 940.945496,1426.139435 965.301163,1426.139435 990.700134C1426.139435 1016.099106,1436.230637 1040.454773,1454.189072 1058.413193C1472.147491 1076.371628,1496.503159 1086.462830,1521.902130 1086.462830C1547.301102 1086.462830,1571.656769 1076.371628,1589.615189 1058.413193C1607.573624 1040.454773,1617.664825 1016.099106,1617.664825 990.700134Z" style="stroke:rgb(25.500488%,41.000366%,88.400269%); stroke-width: 2.500000;stroke-linecap: round;stroke-linejoin: round;stroke-miterlimit: 10.000000;fill: none;"></path>
  <path d="M1576.855377 1140.948959C1576.855377 1115.549988,1566.764175 1091.194321,1548.805740 1073.235901C1530.847321 1055.277466,1506.491653 1045.186264,1481.092682 1045.186264C1455.693710 1045.186264,1431.338043 1055.277466,1413.379623 1073.235901C1395.421188 1091.194321,1385.329987 1115.549988,1385.329987 1140.948959C1385.329987 1166.347931,1395.421188 1190.703598,1413.379623 1208.662018C1431.338043 1226.620453,1455.693710 1236.711655,1481.092682 1236.711655C1506.491653 1236.711655,1530.847321 1226.620453,1548.805740 1208.662018C1566.764175 1190.703598,1576.855377 1166.347931,1576.855377 1140.948959Z" style="stroke:rgb(25.500488%,41.000366%,88.400269%); stroke-width: 2.500000;stroke-linecap: round;stroke-linejoin: round;stroke-miterlimit: 10.000000;fill: none;"></path>
  <path d="M1530.466263 1290.289459C1530.466263 1264.890488,1520.375061 1240.534821,1502.416626 1222.576401C1484.458206 1204.617966,1460.102539 1194.526764,1434.703568 1194.526764C1409.304596 1194.526764,1384.948929 1204.617966,1366.990509 1222.576401C1349.032074 1240.534821,1338.940872 1264.890488,1338.940872 1290.289459C1338.940872 1315.688431,1349.032074 1340.044098,1366.990509 1358.002518C1384.948929 1375.960953,1409.304596 1386.052155,1434.703568 1386.052155C1460.102539 1386.052155,1484.458206 1375.960953,1502.416626 1358.002518C1520.375061 1340.044098,1530.466263 1315.688431,1530.466263 1290.289459Z" style="stroke:rgb(25.500488%,41.000366%,88.400269%); stroke-width: 2.500000;stroke-linecap: round;stroke-linejoin: round;stroke-miterlimit: 10.000000;fill: none;"></path>
  <path d="M1197.178329 197.919952C1197.178329 172.520981,1187.087128 148.165314,1169.128693 130.206894C1151.170273 112.248459,1126.814606 102.157257,1101.415634 102.157257C1076.016663 102.157257,1051.660995 112.248459,1033.702576 130.206894C1015.744141 148.165314,1005.652939 172.520981,1005.652939 197.919952C1005.652939 223.318924,1015.744141 247.674591,1033.702576 265.633011C1051.660995 283.591446,1076.016663 293.682648,1101.415634 293.682648C1126.814606 293.682648,1151.170273 283.591446,1169.128693 265.633011C1187.087128 247.674591,1197.178329 223.318924,1197.178329 197.919952Z" style="stroke:rgb(25.500488%,41.000366%,88.400269%); stroke-width: 2.500000;stroke-linecap: round;stroke-linejoin: round;stroke-miterlimit: 10.000000;fill: none;"></path>
  <path d="M276.922165 1061.393250C276.922165 1035.994278,266.830963 1011.638611,248.872528 993.680191C230.914108 975.721756,206.558441 965.630554,181.159470 965.630554C155.760498 965.630554,131.404831 975.721756,113.446411 993.680191C95.487976 1011.638611,85.396774 1035.994278,85.396774 1061.393250C85.396774 1086.792221,95.487976 1111.147888,113.446411 1129.106308C131.404831 1147.064743,155.760498 1157.155945,181.159470 1157.155945C206.558441 1157.155945,230.914108 1147.064743,248.872528 1129.106308C266.830963 1111.147888,276.922165 1086.792221,276.922165 1061.393250Z" style="stroke:rgb(25.500488%,41.000366%,88.400269%); stroke-width: 2.500000;stroke-linecap: round;stroke-linejoin: round;stroke-miterlimit: 10.000000;fill: none;"></path>
  <path d="M1743.687485 1104.927658C1743.687485 1079.528687,1733.596283 1055.173019,1715.637848 1037.214600C1697.679428 1019.256165,1673.323761 1009.164963,1647.924789 1009.164963C1622.525818 1009.164963,1598.170151 1019.256165,1580.211731 1037.214600C1562.253296 1055.173019,1552.162094 1079.528687,1552.162094 1104.927658C1552.162094 1130.326630,1562.253296 1154.682297,1580.211731 1172.640717C1598.170151 1190.599152,1622.525818 1200.690353,1647.924789 1200.690353C1673.323761 1200.690353,1697.679428 1190.599152,1715.637848 1172.640717C1733.596283 1154.682297,1743.687485 1130.326630,1743.687485 1104.927658Z" style="stroke:rgb(25.500488%,41.000366%,88.400269%); stroke-width: 2.500000;stroke-linecap: round;stroke-linejoin: round;stroke-miterlimit: 10.000000;fill: none;"></path>
  <path d="M843.102890 1635.852661C843.102890 1610.453690,833.011688 1586.098022,815.053253 1568.139603C797.094833 1550.181168,772.739166 1540.089966,747.340195 1540.089966C721.941223 1540.089966,697.585556 1550.181168,679.627136 1568.139603C661.668701 1586.098022,651.577499 1610.453690,651.577499 1635.852661C651.577499 1661.251633,661.668701 1685.607300,679.627136 1703.565720C697.585556 1721.524155,721.941223 1731.615356,747.340195 1731.615356C772.739166 1731.615356,797.094833 1721.524155,815.053253 1703.565720C833.011688 1685.607300,843.102890 1661.251633,843.102890 1635.852661Z" style="stroke:rgb(25.500488%,41.000366%,88.400269%); stroke-width: 2.500000;stroke-linecap: round;stroke-linejoin: round;stroke-miterlimit: 10.000000;fill: none;"></path>
  <path d="M451.825333 1451.593811C451.825333 1426.194839,441.734131 1401.839172,423.775696 1383.880753C405.817276 1365.922318,381.461609 1355.831116,356.062637 1355.831116C330.663666 1355.831116,306.307999 1365.922318,288.349579 1383.880753C270.391144 1401.839172,260.299942 1426.194839,260.299942 1451.593811C260.299942 1476.992783,270.391144 1501.348450,288.349579 1519.306870C306.307999 1537.265305,330.663666 1547.356506,356.062637 1547.356506C381.461609 1547.356506,405.817276 1537.265305,423.775696 1519.306870C441.734131 1501.348450,451.825333 1476.992783,451.825333 1451.593811Z" style="stroke:rgb(25.500488%,41.000366%,88.400269%); stroke-width: 2.500000;stroke-linecap: round;stroke-linejoin: round;stroke-miterlimit: 10.000000;fill: none;"></path>
  <path d="M1698.453247 672.165894C1698.453247 646.766922,1688.362045 622.411255,1670.403610 604.452835C1652.445190 586.494400,1628.089523 576.403198,1602.690552 576.403198C1577.291580 576.403198,1552.935913 586.494400,1534.977493 604.452835C1517.019058 622.411255,1506.927856 646.766922,1506.927856 672.165894C1506.927856 697.564865,1517.019058 721.920532,1534.977493 739.878952C1552.935913 757.837387,1577.291580 767.928589,1602.690552 767.928589C1628.089523 767.928589,1652.445190 757.837387,1670.403610 739.878952C1688.362045 721.920532,1698.453247 697.564865,1698.453247 672.165894Z" style="stroke:rgb(25.500488%,41.000366%,88.400269%); stroke-width: 2.500000;stroke-linecap: round;stroke-linejoin: round;stroke-miterlimit: 10.000000;fill: none;"></path>
  <path d="M1498.078232 1457.458954C1498.078232 1432.059982,1487.987030 1407.704315,1470.028595 1389.745895C1452.070175 1371.787460,1427.714508 1361.696259,1402.315536 1361.696259C1376.916565 1361.696259,1352.560898 1371.787460,1334.602478 1389.745895C1316.644043 1407.704315,1306.552841 1432.059982,1306.552841 1457.458954C1306.552841 1482.857925,1316.644043 1507.213593,1334.602478 1525.172012C1352.560898 1543.130447,1376.916565 1553.221649,1402.315536 1553.221649C1427.714508 1553.221649,1452.070175 1543.130447,1470.028595 1525.172012C1487.987030 1507.213593,1498.078232 1482.857925,1498.078232 1457.458954Z" style="stroke:rgb(25.500488%,41.000366%,88.400269%); stroke-width: 2.500000;stroke-linecap: round;stroke-linejoin: round;stroke-miterlimit: 10.000000;fill: none;"></path>
  <path d="M384.155624 383.917572C384.155624 358.518600,374.064423 334.162933,356.105988 316.204514C338.147568 298.246078,313.791901 288.154877,288.392929 288.154877C262.993958 288.154877,238.638290 298.246078,220.679871 316.204514C202.721436 334.162933,192.630234 358.518600,192.630234 383.917572C192.630234 409.316544,202.721436 433.672211,220.679871 451.630630C238.638290 469.589066,262.993958 479.680267,288.392929 479.680267C313.791901 479.680267,338.147568 469.589066,356.105988 451.630630C374.064423 433.672211,384.155624 409.316544,384.155624 383.917572Z" style="stroke:rgb(25.500488%,41.000366%,88.400269%); stroke-width: 2.500000;stroke-linecap: round;stroke-linejoin: round;stroke-miterlimit: 10.000000;fill: none;"></path>
  <path d="M564.119431 1562.201019C564.119431 1536.802048,554.028229 1512.446381,536.069794 1494.487961C518.111374 1476.529526,493.755707 1466.438324,468.356735 1466.438324C442.957764 1466.438324,418.602097 1476.529526,400.643677 1494.487961C382.685242 1512.446381,372.594040 1536.802048,372.594040 1562.201019C372.594040 1587.599991,382.685242 1611.955658,400.643677 1629.914078C418.602097 1647.872513,442.957764 1657.963715,468.356735 1657.963715C493.755707 1657.963715,518.111374 1647.872513,536.069794 1629.914078C554.028229 1611.955658,564.119431 1587.599991,564.119431 1562.201019Z" style="stroke:rgb(25.500488%,41.000366%,88.400269%); stroke-width: 2.500000;stroke-linecap: round;stroke-linejoin: round;stroke-miterlimit: 10.000000;fill: none;"></path>
  <path d="M345.033051 1338.715805C345.033051 1313.316833,334.941849 1288.961166,316.983414 1271.002747C299.024994 1253.044312,274.669327 1242.953110,249.270355 1242.953110C223.871384 1242.953110,199.515717 1253.044312,181.557297 1271.002747C163.598862 1288.961166,153.507660 1313.316833,153.507660 1338.715805C153.507660 1364.114777,163.598862 1388.470444,181.557297 1406.428864C199.515717 1424.387299,223.871384 1434.478500,249.270355 1434.478500C274.669327 1434.478500,299.024994 1424.387299,316.983414 1406.428864C334.941849 1388.470444,345.033051 1364.114777,345.033051 1338.715805Z" style="stroke:rgb(25.500488%,41.000366%,88.400269%); stroke-width: 2.500000;stroke-linecap: round;stroke-linejoin: round;stroke-miterlimit: 10.000000;fill: none;"></path>
  <path d="M1777.373123 952.745407C1777.373123 927.346436,1767.281921 902.990768,1749.323486 885.032349C1731.365067 867.073914,1707.009399 856.982712,1681.610428 856.982712C1656.211456 856.982712,1631.855789 867.073914,1613.897369 885.032349C1595.938934 902.990768,1585.847733 927.346436,1585.847733 952.745407C1585.847733 978.144379,1595.938934 1002.500046,1613.897369 1020.458466C1631.855789 1038.416901,1656.211456 1048.508102,1681.610428 1048.508102C1707.009399 1048.508102,1731.365067 1038.416901,1749.323486 1020.458466C1767.281921 1002.500046,1777.373123 978.144379,1777.373123 952.745407Z" style="stroke:rgb(25.500488%,41.000366%,88.400269%); stroke-width: 2.500000;stroke-linecap: round;stroke-linejoin: round;stroke-miterlimit: 10.000000;fill: none;"></path>
  <path d="M914.873016 138.632721C914.873016 113.233749,904.781815 88.878082,886.823380 70.919662C868.864960 52.961227,844.509293 42.870026,819.110321 42.870026C793.711349 42.870026,769.355682 52.961227,751.397263 70.919662C733.438828 88.878082,723.347626 113.233749,723.347626 138.632721C723.347626 164.031693,733.438828 188.387360,751.397263 206.345779C769.355682 224.304214,793.711349 234.395416,819.110321 234.395416C844.509293 234.395416,868.864960 224.304214,886.823380 206.345779C904.781815 188.387360,914.873016 164.031693,914.873016 138.632721Z" style="stroke:rgb(25.500488%,41.000366%,88.400269%); stroke-width: 2.500000;stroke-linecap: round;stroke-linejoin: round;stroke-miterlimit: 10.000000;fill: none;"></path>
  <path d="M758.032394 179.312393C758.032394 153.913422,747.941193 129.557755,729.982758 111.599335C712.024338 93.640900,687.668671 83.549698,662.269699 83.549698C636.870728 83.549698,612.515060 93.640900,594.556641 111.599335C576.598206 129.557755,566.507004 153.913422,566.507004 179.312393C566.507004 204.711365,576.598206 229.067032,594.556641 247.025452C612.515060 264.983887,636.870728 275.075089,662.269699 275.075089C687.668671 275.075089,712.024338 264.983887,729.982758 247.025452C747.941193 229.067032,758.032394 204.711365,758.032394 179.312393Z" style="stroke:rgb(25.500488%,41.000366%,88.400269%); stroke-width: 2.500000;stroke-linecap: round;stroke-linejoin: round;stroke-miterlimit: 10.000000;fill: none;"></path>
  <path d="M1699.063110 1256.487045C1699.063110 1231.088074,1688.971909 1206.732407,1671.013474 1188.773987C1653.055054 1170.815552,1628.699387 1160.724350,1603.300415 1160.724350C1577.901443 1160.724350,1553.545776 1170.815552,1535.587357 1188.773987C1517.628922 1206.732407,1507.537720 1231.088074,1507.537720 1256.487045C1507.537720 1281.886017,1517.628922 1306.241684,1535.587357 1324.200104C1553.545776 1342.158539,1577.901443 1352.249741,1603.300415 1352.249741C1628.699387 1352.249741,1653.055054 1342.158539,1671.013474 1324.200104C1688.971909 1306.241684,1699.063110 1281.886017,1699.063110 1256.487045Z" style="stroke:rgb(25.500488%,41.000366%,88.400269%); stroke-width: 2.500000;stroke-linecap: round;stroke-linejoin: round;stroke-miterlimit: 10.000000;fill: none;"></path>
  <path d="M591.758255 211.752335C591.758255 186.353363,581.667053 161.997696,563.708618 144.039276C545.750198 126.080841,521.394531 115.989639,495.995560 115.989639C470.596588 115.989639,446.240921 126.080841,428.282501 144.039276C410.324066 161.997696,400.232864 186.353363,400.232864 211.752335C400.232864 237.151306,410.324066 261.506973,428.282501 279.465393C446.240921 297.423828,470.596588 307.515030,495.995560 307.515030C521.394531 307.515030,545.750198 297.423828,563.708618 279.465393C581.667053 261.506973,591.758255 237.151306,591.758255 211.752335Z" style="stroke:rgb(25.500488%,41.000366%,88.400269%); stroke-width: 2.500000;stroke-linecap: round;stroke-linejoin: round;stroke-miterlimit: 10.000000;fill: none;"></path>
  <path d="M1279.744461 1635.229813C1279.744461 1609.830841,1269.653259 1585.475174,1251.694824 1567.516754C1233.736404 1549.558319,1209.380737 1539.467117,1183.981766 1539.467117C1158.582794 1539.467117,1134.227127 1549.558319,1116.268707 1567.516754C1098.310272 1585.475174,1088.219070 1609.830841,1088.219070 1635.229813C1088.219070 1660.628784,1098.310272 1684.984451,1116.268707 1702.942871C1134.227127 1720.901306,1158.582794 1730.992508,1183.981766 1730.992508C1209.380737 1730.992508,1233.736404 1720.901306,1251.694824 1702.942871C1269.653259 1684.984451,1279.744461 1660.628784,1279.744461 1635.229813Z" style="stroke:rgb(25.500488%,41.000366%,88.400269%); stroke-width: 2.500000;stroke-linecap: round;stroke-linejoin: round;stroke-miterlimit: 10.000000;fill: none;"></path>
  <path d="M1471.646164 294.007050C1471.646164 268.608078,1461.554962 244.252411,1443.596527 226.293991C1425.638107 208.335556,1401.282440 198.244354,1375.883469 198.244354C1350.484497 198.244354,1326.128830 208.335556,1308.170410 226.293991C1290.211975 244.252411,1280.120773 268.608078,1280.120773 294.007050C1280.120773 319.406021,1290.211975 343.761688,1308.170410 361.720108C1326.128830 379.678543,1350.484497 389.769745,1375.883469 389.769745C1401.282440 389.769745,1425.638107 379.678543,1443.596527 361.720108C1461.554962 343.761688,1471.646164 319.406021,1471.646164 294.007050Z" style="stroke:rgb(25.500488%,41.000366%,88.400269%); stroke-width: 2.500000;stroke-linecap: round;stroke-linejoin: round;stroke-miterlimit: 10.000000;fill: none;"></path>
  <path d="M1122.890869 1678.258148C1122.890869 1652.859177,1112.799667 1628.503510,1094.841232 1610.545090C1076.882812 1592.586655,1052.527145 1582.495453,1027.128174 1582.495453C1001.729202 1582.495453,977.373535 1592.586655,959.415115 1610.545090C941.456680 1628.503510,931.365479 1652.859177,931.365479 1678.258148C931.365479 1703.657120,941.456680 1728.012787,959.415115 1745.971207C977.373535 1763.929642,1001.729202 1774.020844,1027.128174 1774.020844C1052.527145 1774.020844,1076.882812 1763.929642,1094.841232 1745.971207C1112.799667 1728.012787,1122.890869 1703.657120,1122.890869 1678.258148Z" style="stroke:rgb(25.500488%,41.000366%,88.400269%); stroke-width: 2.500000;stroke-linecap: round;stroke-linejoin: round;stroke-miterlimit: 10.000000;fill: none;"></path>
  <path d="M1589.104691 409.739777C1589.104691 384.340805,1579.013489 359.985138,1561.055054 342.026718C1543.096634 324.068283,1518.740967 313.977081,1493.341995 313.977081C1467.943024 313.977081,1443.587357 324.068283,1425.628937 342.026718C1407.670502 359.985138,1397.579300 384.340805,1397.579300 409.739777C1397.579300 435.138748,1407.670502 459.494415,1425.628937 477.452835C1443.587357 495.411270,1467.943024 505.502472,1493.341995 505.502472C1518.740967 505.502472,1543.096634 495.411270,1561.055054 477.452835C1579.013489 459.494415,1589.104691 435.138748,1589.104691 409.739777Z" style="stroke:rgb(25.500488%,41.000366%,88.400269%); stroke-width: 2.500000;stroke-linecap: round;stroke-linejoin: round;stroke-miterlimit: 10.000000;fill: none;"></path>
  <path d="M1070.766388 96.344009C1070.766388 70.945038,1060.675186 46.589371,1042.716751 28.630951C1024.758331 10.672516,1000.402664 0.581314,975.003693 0.581314C949.604721 0.581314,925.249054 10.672516,907.290634 28.630951C889.332199 46.589371,879.240997 70.945038,879.240997 96.344009C879.240997 121.742981,889.332199 146.098648,907.290634 164.057068C925.249054 182.015503,949.604721 192.106705,975.003693 192.106705C1000.402664 192.106705,1024.758331 182.015503,1042.716751 164.057068C1060.675186 146.098648,1070.766388 121.742981,1070.766388 96.344009Z" style="stroke:rgb(25.500488%,41.000366%,88.400269%); stroke-width: 2.500000;stroke-linecap: round;stroke-linejoin: round;stroke-miterlimit: 10.000000;fill: none;"></path>
  <path d="M1648.625488 1407.047287C1648.625488 1381.648315,1638.534286 1357.292648,1620.575851 1339.334229C1602.617432 1321.375793,1578.261765 1311.284592,1552.862793 1311.284592C1527.463821 1311.284592,1503.108154 1321.375793,1485.149734 1339.334229C1467.191299 1357.292648,1457.100098 1381.648315,1457.100098 1407.047287C1457.100098 1432.446259,1467.191299 1456.801926,1485.149734 1474.760345C1503.108154 1492.718781,1527.463821 1502.809982,1552.862793 1502.809982C1578.261765 1502.809982,1602.617432 1492.718781,1620.575851 1474.760345C1638.534286 1456.801926,1648.625488 1432.446259,1648.625488 1407.047287Z" style="stroke:rgb(25.500488%,41.000366%,88.400269%); stroke-width: 2.500000;stroke-linecap: round;stroke-linejoin: round;stroke-miterlimit: 10.000000;fill: none;"></path>
  <path d="M1807.944519 790.662506C1807.944519 765.263535,1797.853317 740.907867,1779.894882 722.949448C1761.936462 704.991013,1737.580795 694.899811,1712.181824 694.899811C1686.782852 694.899811,1662.427185 704.991013,1644.468765 722.949448C1626.510330 740.907867,1616.419128 765.263535,1616.419128 790.662506C1616.419128 816.061478,1626.510330 840.417145,1644.468765 858.375565C1662.427185 876.334000,1686.782852 886.425201,1712.181824 886.425201C1737.580795 886.425201,1761.936462 876.334000,1779.894882 858.375565C1797.853317 840.417145,1807.944519 816.061478,1807.944519 790.662506Z" style="stroke:rgb(25.500488%,41.000366%,88.400269%); stroke-width: 2.500000;stroke-linecap: round;stroke-linejoin: round;stroke-miterlimit: 10.000000;fill: none;"></path>
  <path d="M1715.451767 523.889420C1715.451767 498.490448,1705.360565 474.134781,1687.402130 456.176361C1669.443710 438.217926,1645.088043 428.126724,1619.689072 428.126724C1594.290100 428.126724,1569.934433 438.217926,1551.976013 456.176361C1534.017578 474.134781,1523.926376 498.490448,1523.926376 523.889420C1523.926376 549.288391,1534.017578 573.644058,1551.976013 591.602478C1569.934433 609.560913,1594.290100 619.652115,1619.689072 619.652115C1645.088043 619.652115,1669.443710 609.560913,1687.402130 591.602478C1705.360565 573.644058,1715.451767 549.288391,1715.451767 523.889420Z" style="stroke:rgb(25.500488%,41.000366%,88.400269%); stroke-width: 2.500000;stroke-linecap: round;stroke-linejoin: round;stroke-miterlimit: 10.000000;fill: none;"></path>
  <path d="M685.250153 1670.991608C685.250153 1645.592636,675.158951 1621.236969,657.200516 1603.278549C639.242096 1585.320114,614.886429 1575.228912,589.487457 1575.228912C564.088486 1575.228912,539.732819 1585.320114,521.774399 1603.278549C503.815964 1621.236969,493.724762 1645.592636,493.724762 1670.991608C493.724762 1696.390579,503.815964 1720.746246,521.774399 1738.704666C539.732819 1756.663101,564.088486 1766.754303,589.487457 1766.754303C614.886429 1766.754303,639.242096 1756.663101,657.200516 1738.704666C675.158951 1720.746246,685.250153 1696.390579,685.250153 1670.991608Z" style="stroke:rgb(25.500488%,41.000366%,88.400269%); stroke-width: 2.500000;stroke-linecap: round;stroke-linejoin: round;stroke-miterlimit: 10.000000;fill: none;"></path>
  <path d="M1440.815247 1597.794128C1440.815247 1572.395157,1430.724045 1548.039490,1412.765610 1530.081070C1394.807190 1512.122635,1370.451523 1502.031433,1345.052551 1502.031433C1319.653580 1502.031433,1295.297913 1512.122635,1277.339493 1530.081070C1259.381058 1548.039490,1249.289856 1572.395157,1249.289856 1597.794128C1249.289856 1623.193100,1259.381058 1647.548767,1277.339493 1665.507187C1295.297913 1683.465622,1319.653580 1693.556824,1345.052551 1693.556824C1370.451523 1693.556824,1394.807190 1683.465622,1412.765610 1665.507187C1430.724045 1647.548767,1440.815247 1623.193100,1440.815247 1597.794128Z" style="stroke:rgb(25.500488%,41.000366%,88.400269%); stroke-width: 2.500000;stroke-linecap: round;stroke-linejoin: round;stroke-miterlimit: 10.000000;fill: none;"></path>
  <path d="M241.900009 1213.199188C241.900009 1187.800217,231.808807 1163.444550,213.850372 1145.486130C195.891953 1127.527695,171.536285 1117.436493,146.137314 1117.436493C120.738342 1117.436493,96.382675 1127.527695,78.424255 1145.486130C60.465820 1163.444550,50.374619 1187.800217,50.374619 1213.199188C50.374619 1238.598160,60.465820 1262.953827,78.424255 1280.912247C96.382675 1298.870682,120.738342 1308.961884,146.137314 1308.961884C171.536285 1308.961884,195.891953 1298.870682,213.850372 1280.912247C231.808807 1262.953827,241.900009 1238.598160,241.900009 1213.199188Z" style="stroke:rgb(25.500488%,41.000366%,88.400269%); stroke-width: 2.500000;stroke-linecap: round;stroke-linejoin: round;stroke-miterlimit: 10.000000;fill: none;"></path>
  <path d="M236.748535 793.439362C236.748535 768.040390,226.657333 743.684723,208.698898 725.726303C190.740479 707.767868,166.384811 697.676666,140.985840 697.676666C115.586868 697.676666,91.231201 707.767868,73.272781 725.726303C55.314346 743.684723,45.223145 768.040390,45.223145 793.439362C45.223145 818.838333,55.314346 843.194000,73.272781 861.152420C91.231201 879.110855,115.586868 889.202057,140.985840 889.202057C166.384811 889.202057,190.740479 879.110855,208.698898 861.152420C226.657333 843.194000,236.748535 818.838333,236.748535 793.439362Z" style="stroke:rgb(25.500488%,41.000366%,88.400269%); stroke-width: 2.500000;stroke-linecap: round;stroke-linejoin: round;stroke-miterlimit: 10.000000;fill: none;"></path>
  <path d="M245.533279 616.667648C245.533279 591.268677,235.442078 566.913010,217.483643 548.954590C199.525223 530.996155,175.169556 520.904953,149.770584 520.904953C124.371613 520.904953,100.015945 530.996155,82.057526 548.954590C64.099091 566.913010,54.007889 591.268677,54.007889 616.667648C54.007889 642.066620,64.099091 666.422287,82.057526 684.380707C100.015945 702.339142,124.371613 712.430344,149.770584 712.430344C175.169556 712.430344,199.525223 702.339142,217.483643 684.380707C235.442078 666.422287,245.533279 642.066620,245.533279 616.667648Z" style="stroke:rgb(25.500488%,41.000366%,88.400269%); stroke-width: 2.500000;stroke-linecap: round;stroke-linejoin: round;stroke-miterlimit: 10.000000;fill: none;"></path>
  <path d="M963.714584 1726.191406C963.714584 1700.792435,953.623383 1676.436768,935.664948 1658.478348C917.706528 1640.519913,893.350861 1630.428711,867.951889 1630.428711C842.552917 1630.428711,818.197250 1640.519913,800.238831 1658.478348C782.280396 1676.436768,772.189194 1700.792435,772.189194 1726.191406C772.189194 1751.590378,782.280396 1775.946045,800.238831 1793.904465C818.197250 1811.862900,842.552917 1821.954102,867.951889 1821.954102C893.350861 1821.954102,917.706528 1811.862900,935.664948 1793.904465C953.623383 1775.946045,963.714584 1751.590378,963.714584 1726.191406Z" style="stroke:rgb(25.500488%,41.000366%,88.400269%); stroke-width: 2.500000;stroke-linecap: round;stroke-linejoin: round;stroke-miterlimit: 10.000000;fill: none;"></path>
  <path d="M191.799759 947.048965C191.799759 921.649994,181.708557 897.294327,163.750122 879.335907C145.791702 861.377472,121.436035 851.286270,96.037064 851.286270C70.638092 851.286270,46.282425 861.377472,28.324005 879.335907C10.365570 897.294327,0.274368 921.649994,0.274368 947.048965C0.274368 972.447937,10.365570 996.803604,28.324005 1014.762024C46.282425 1032.720459,70.638092 1042.811661,96.037064 1042.811661C121.436035 1042.811661,145.791702 1032.720459,163.750122 1014.762024C181.708557 996.803604,191.799759 972.447937,191.799759 947.048965Z" style="stroke:rgb(25.500488%,41.000366%,88.400269%); stroke-width: 2.500000;stroke-linecap: round;stroke-linejoin: round;stroke-miterlimit: 10.000000;fill: none;"></path>
  <path d="M1355.939392 176.418762C1355.939392 151.019791,1345.848190 126.664124,1327.889755 108.705704C1309.931335 90.747269,1285.575668 80.656067,1260.176697 80.656067C1234.777725 80.656067,1210.422058 90.747269,1192.463638 108.705704C1174.505203 126.664124,1164.414001 151.019791,1164.414001 176.418762C1164.414001 201.817734,1174.505203 226.173401,1192.463638 244.131821C1210.422058 262.090256,1234.777725 272.181458,1260.176697 272.181458C1285.575668 272.181458,1309.931335 262.090256,1327.889755 244.131821C1345.848190 226.173401,1355.939392 201.817734,1355.939392 176.418762Z" style="stroke:rgb(25.500488%,41.000366%,88.400269%); stroke-width: 2.500000;stroke-linecap: round;stroke-linejoin: round;stroke-miterlimit: 10.000000;fill: none;"></path>
</svg>
