<?xml version="1.0"?>
<!-- Created by MetaPost 2.00 on 2022.03.02:1201 -->
<svg version="1.1" xmlns="http://www.w3.org/2000/svg" xmlns:xlink="http://www.w3.org/1999/xlink" width="1681.487411" height="1648.671173" viewBox="0 0 1681.487411 1648.671173">
<!-- Original BoundingBox: -851.254242 -784.869156 830.233170 863.802017 -->
  <path d="M851.000000 12.606476L42.233398 600.210541L351.152451 1550.986221L1350.847549 1550.986221L1659.766602 600.210541L851.000000 12.606476Z" style="fill: rgb(100.000000%,100.000000%,100.000000%);stroke: none;"></path>
  <path d="M851.000000 12.606476L42.233398 600.210541" style="stroke:rgb(0.000000%,0.000000%,0.000000%); stroke-width: 2.500000;stroke-linecap: round;stroke-linejoin: round;stroke-miterlimit: 10.000000;fill: none;"></path>
  <path d="M42.233398 600.210541L351.152451 1550.986221" style="stroke:rgb(0.000000%,0.000000%,0.000000%); stroke-width: 2.500000;stroke-linecap: round;stroke-linejoin: round;stroke-miterlimit: 10.000000;fill: none;"></path>
  <path d="M351.152451 1550.986221L1350.847549 1550.986221" style="stroke:rgb(0.000000%,0.000000%,0.000000%); stroke-width: 2.500000;stroke-linecap: round;stroke-linejoin: round;stroke-miterlimit: 10.000000;fill: none;"></path>
  <path d="M1350.847549 1550.986221L1659.766602 600.210541" style="stroke:rgb(0.000000%,0.000000%,0.000000%); stroke-width: 2.500000;stroke-linecap: round;stroke-linejoin: round;stroke-miterlimit: 10.000000;fill: none;"></path>
  <path d="M1659.766602 600.210541L851.000000 12.606476" style="stroke:rgb(0.000000%,0.000000%,0.000000%); stroke-width: 2.500000;stroke-linecap: round;stroke-linejoin: round;stroke-miterlimit: 10.000000;fill: none;"></path>
  <path d="M1555.141296 1176.940750C1555.141296 1147.274200,1543.354553 1118.826263,1522.378723 1097.850418C1501.402878 1076.874588,1472.954941 1065.087845,1443.288391 1065.087845C1413.621841 1065.087845,1385.173904 1076.874588,1364.198059 1097.850418C1343.222229 1118.826263,1331.435486 1147.274200,1331.435486 1176.940750C1331.435486 1206.607300,1343.222229 1235.055237,1364.198059 1256.031082C1385.173904 1277.006912,1413.621841 1288.793655,1443.288391 1288.793655C1472.954941 1288.793655,1501.402878 1277.006912,1522.378723 1256.031082C1543.354553 1235.055237,1555.141296 1206.607300,1555.141296 1176.940750Z" style="stroke:rgb(25.500488%,41.000366%,88.400269%); stroke-width: 2.500000;stroke-linecap: round;stroke-linejoin: round;stroke-miterlimit: 10.000000;fill: none;"></path>
  <path d="M1579.224716 976.423004C1579.224716 946.756454,1567.437973 918.308517,1546.462143 897.332672C1525.486298 876.356842,1497.038361 864.570099,1467.371811 864.570099C1437.705261 864.570099,1409.257324 876.356842,1388.281479 897.332672C1367.305649 918.308517,1355.518906 946.756454,1355.518906 976.423004C1355.518906 1006.089554,1367.305649 1034.537491,1388.281479 1055.513336C1409.257324 1076.489166,1437.705261 1088.275909,1467.371811 1088.275909C1497.038361 1088.275909,1525.486298 1076.489166,1546.462143 1055.513336C1567.437973 1034.537491,1579.224716 1006.089554,1579.224716 976.423004Z" style="stroke:rgb(25.500488%,41.000366%,88.400269%); stroke-width: 2.500000;stroke-linecap: round;stroke-linejoin: round;stroke-miterlimit: 10.000000;fill: none;"></path>
  <path d="M1643.429840 803.115875C1643.429840 773.449326,1631.643097 745.001389,1610.667267 724.025543C1589.691422 703.049713,1561.243484 691.262970,1531.576935 691.262970C1501.910385 691.262970,1473.462448 703.049713,1452.486603 724.025543C1431.510773 745.001389,1419.724030 773.449326,1419.724030 803.115875C1419.724030 832.782425,1431.510773 861.230362,1452.486603 882.206207C1473.462448 903.182037,1501.910385 914.968781,1531.576935 914.968781C1561.243484 914.968781,1589.691422 903.182037,1610.667267 882.206207C1631.643097 861.230362,1643.429840 832.782425,1643.429840 803.115875Z" style="stroke:rgb(25.500488%,41.000366%,88.400269%); stroke-width: 2.500000;stroke-linecap: round;stroke-linejoin: round;stroke-miterlimit: 10.000000;fill: none;"></path>
  <path d="M1679.983170 630.639206C1679.983170 600.972656,1668.196426 572.524719,1647.220596 551.548874C1626.244751 530.573044,1597.796814 518.786301,1568.130264 518.786301C1538.463715 518.786301,1510.015778 530.573044,1489.039932 551.548874C1468.064102 572.524719,1456.277359 600.972656,1456.277359 630.639206C1456.277359 660.305756,1468.064102 688.753693,1489.039932 709.729538C1510.015778 730.705368,1538.463715 742.492111,1568.130264 742.492111C1597.796814 742.492111,1626.244751 730.705368,1647.220596 709.729538C1668.196426 688.753693,1679.983170 660.305756,1679.983170 630.639206Z" style="stroke:rgb(25.500488%,41.000366%,88.400269%); stroke-width: 2.500000;stroke-linecap: round;stroke-linejoin: round;stroke-miterlimit: 10.000000;fill: none;"></path>
  <path d="M1421.839111 1461.477936C1421.839111 1431.811386,1410.052368 1403.363449,1389.076538 1382.387604C1368.100693 1361.411774,1339.652756 1349.625031,1309.986206 1349.625031C1280.319656 1349.625031,1251.871719 1361.411774,1230.895874 1382.387604C1209.920044 1403.363449,1198.133301 1431.811386,1198.133301 1461.477936C1198.133301 1491.144485,1209.920044 1519.592422,1230.895874 1540.568268C1251.871719 1561.544098,1280.319656 1573.330841,1309.986206 1573.330841C1339.652756 1573.330841,1368.100693 1561.544098,1389.076538 1540.568268C1410.052368 1519.592422,1421.839111 1491.144485,1421.839111 1461.477936Z" style="stroke:rgb(25.500488%,41.000366%,88.400269%); stroke-width: 2.500000;stroke-linecap: round;stroke-linejoin: round;stroke-miterlimit: 10.000000;fill: none;"></path>
  <path d="M1438.746796 1312.734329C1438.746796 1283.067780,1426.960052 1254.619843,1405.984222 1233.643997C1385.008377 1212.668167,1356.560440 1200.881424,1326.893890 1200.881424C1297.227341 1200.881424,1268.779404 1212.668167,1247.803558 1233.643997C1226.827728 1254.619843,1215.040985 1283.067780,1215.040985 1312.734329C1215.040985 1342.400879,1226.827728 1370.848816,1247.803558 1391.824661C1268.779404 1412.800491,1297.227341 1424.587234,1326.893890 1424.587234C1356.560440 1424.587234,1385.008377 1412.800491,1405.984222 1391.824661C1426.960052 1370.848816,1438.746796 1342.400879,1438.746796 1312.734329Z" style="stroke:rgb(25.500488%,41.000366%,88.400269%); stroke-width: 2.500000;stroke-linecap: round;stroke-linejoin: round;stroke-miterlimit: 10.000000;fill: none;"></path>
  <path d="M1413.313889 1106.364426C1413.313889 1076.697876,1401.527145 1048.249939,1380.551315 1027.274094C1359.575470 1006.298264,1331.127533 994.511520,1301.460983 994.511520C1271.794434 994.511520,1243.346497 1006.298264,1222.370651 1027.274094C1201.394821 1048.249939,1189.608078 1076.697876,1189.608078 1106.364426C1189.608078 1136.030975,1201.394821 1164.478912,1222.370651 1185.454758C1243.346497 1206.430588,1271.794434 1218.217331,1301.460983 1218.217331C1331.127533 1218.217331,1359.575470 1206.430588,1380.551315 1185.454758C1401.527145 1164.478912,1413.313889 1136.030975,1413.313889 1106.364426Z" style="stroke:rgb(25.500488%,41.000366%,88.400269%); stroke-width: 2.500000;stroke-linecap: round;stroke-linejoin: round;stroke-miterlimit: 10.000000;fill: none;"></path>
  <path d="M1457.120789 901.136398C1457.120789 871.469849,1445.334045 843.021912,1424.358215 822.046066C1403.382370 801.070236,1374.934433 789.283493,1345.267883 789.283493C1315.601334 789.283493,1287.153397 801.070236,1266.177551 822.046066C1245.201721 843.021912,1233.414978 871.469849,1233.414978 901.136398C1233.414978 930.802948,1245.201721 959.250885,1266.177551 980.226730C1287.153397 1001.202560,1315.601334 1012.989304,1345.267883 1012.989304C1374.934433 1012.989304,1403.382370 1001.202560,1424.358215 980.226730C1445.334045 959.250885,1457.120789 930.802948,1457.120789 901.136398Z" style="stroke:rgb(25.500488%,41.000366%,88.400269%); stroke-width: 2.500000;stroke-linecap: round;stroke-linejoin: round;stroke-miterlimit: 10.000000;fill: none;"></path>
  <path d="M1491.052963 714.775436C1491.052963 685.108887,1479.266220 656.660950,1458.290390 635.685104C1437.314545 614.709274,1408.866608 602.922531,1379.200058 602.922531C1349.533508 602.922531,1321.085571 614.709274,1300.109726 635.685104C1279.133896 656.660950,1267.347153 685.108887,1267.347153 714.775436C1267.347153 744.441986,1279.133896 772.889923,1300.109726 793.865768C1321.085571 814.841599,1349.533508 826.628342,1379.200058 826.628342C1408.866608 826.628342,1437.314545 814.841599,1458.290390 793.865768C1479.266220 772.889923,1491.052963 744.441986,1491.052963 714.775436Z" style="stroke:rgb(25.500488%,41.000366%,88.400269%); stroke-width: 2.500000;stroke-linecap: round;stroke-linejoin: round;stroke-miterlimit: 10.000000;fill: none;"></path>
  <path d="M1549.808182 523.418716C1549.808182 493.752167,1538.021439 465.304230,1517.045609 444.328384C1496.069763 423.352554,1467.621826 411.565811,1437.955276 411.565811C1408.288727 411.565811,1379.840790 423.352554,1358.864944 444.328384C1337.889114 465.304230,1326.102371 493.752167,1326.102371 523.418716C1326.102371 553.085266,1337.889114 581.533203,1358.864944 602.509048C1379.840790 623.484879,1408.288727 635.271622,1437.955276 635.271622C1467.621826 635.271622,1496.069763 623.484879,1517.045609 602.509048C1538.021439 581.533203,1549.808182 553.085266,1549.808182 523.418716Z" style="stroke:rgb(25.500488%,41.000366%,88.400269%); stroke-width: 2.500000;stroke-linecap: round;stroke-linejoin: round;stroke-miterlimit: 10.000000;fill: none;"></path>
  <path d="M1244.055267 1534.766251C1244.055267 1505.099701,1232.268524 1476.651764,1211.292694 1455.675919C1190.316849 1434.700089,1161.868912 1422.913345,1132.202362 1422.913345C1102.535812 1422.913345,1074.087875 1434.700089,1053.112030 1455.675919C1032.136200 1476.651764,1020.349457 1505.099701,1020.349457 1534.766251C1020.349457 1564.432800,1032.136200 1592.880737,1053.112030 1613.856583C1074.087875 1634.832413,1102.535812 1646.619156,1132.202362 1646.619156C1161.868912 1646.619156,1190.316849 1634.832413,1211.292694 1613.856583C1232.268524 1592.880737,1244.055267 1564.432800,1244.055267 1534.766251Z" style="stroke:rgb(25.500488%,41.000366%,88.400269%); stroke-width: 2.500000;stroke-linecap: round;stroke-linejoin: round;stroke-miterlimit: 10.000000;fill: none;"></path>
  <path d="M1237.035263 1361.511017C1237.035263 1331.844467,1225.248520 1303.396530,1204.272690 1282.420685C1183.296844 1261.444855,1154.848907 1249.658112,1125.182358 1249.658112C1095.515808 1249.658112,1067.067871 1261.444855,1046.092026 1282.420685C1025.116196 1303.396530,1013.329453 1331.844467,1013.329453 1361.511017C1013.329453 1391.177567,1025.116196 1419.625504,1046.092026 1440.601349C1067.067871 1461.577179,1095.515808 1473.363922,1125.182358 1473.363922C1154.848907 1473.363922,1183.296844 1461.577179,1204.272690 1440.601349C1225.248520 1419.625504,1237.035263 1391.177567,1237.035263 1361.511017Z" style="stroke:rgb(25.500488%,41.000366%,88.400269%); stroke-width: 2.500000;stroke-linecap: round;stroke-linejoin: round;stroke-miterlimit: 10.000000;fill: none;"></path>
  <path d="M1274.367142 1198.390030C1274.367142 1168.723480,1262.580399 1140.275543,1241.604568 1119.299698C1220.628723 1098.323868,1192.180786 1086.537125,1162.514236 1086.537125C1132.847687 1086.537125,1104.399750 1098.323868,1083.423904 1119.299698C1062.448074 1140.275543,1050.661331 1168.723480,1050.661331 1198.390030C1050.661331 1228.056580,1062.448074 1256.504517,1083.423904 1277.480362C1104.399750 1298.456192,1132.847687 1310.242935,1162.514236 1310.242935C1192.180786 1310.242935,1220.628723 1298.456192,1241.604568 1277.480362C1262.580399 1256.504517,1274.367142 1228.056580,1274.367142 1198.390030Z" style="stroke:rgb(25.500488%,41.000366%,88.400269%); stroke-width: 2.500000;stroke-linecap: round;stroke-linejoin: round;stroke-miterlimit: 10.000000;fill: none;"></path>
  <path d="M1285.461609 996.444931C1285.461609 966.778381,1273.674866 938.330444,1252.699036 917.354599C1231.723190 896.378769,1203.275253 884.592026,1173.608704 884.592026C1143.942154 884.592026,1115.494217 896.378769,1094.518372 917.354599C1073.542542 938.330444,1061.755798 966.778381,1061.755798 996.444931C1061.755798 1026.111481,1073.542542 1054.559418,1094.518372 1075.535263C1115.494217 1096.511093,1143.942154 1108.297836,1173.608704 1108.297836C1203.275253 1108.297836,1231.723190 1096.511093,1252.699036 1075.535263C1273.674866 1054.559418,1285.461609 1026.111481,1285.461609 996.444931Z" style="stroke:rgb(25.500488%,41.000366%,88.400269%); stroke-width: 2.500000;stroke-linecap: round;stroke-linejoin: round;stroke-miterlimit: 10.000000;fill: none;"></path>
  <path d="M1303.666901 798.094177C1303.666901 768.427628,1291.880157 739.979691,1270.904327 719.003845C1249.928482 698.028015,1221.480545 686.241272,1191.813995 686.241272C1162.147446 686.241272,1133.699509 698.028015,1112.723663 719.003845C1091.747833 739.979691,1079.961090 768.427628,1079.961090 798.094177C1079.961090 827.760727,1091.747833 856.208664,1112.723663 877.184509C1133.699509 898.160339,1162.147446 909.947083,1191.813995 909.947083C1221.480545 909.947083,1249.928482 898.160339,1270.904327 877.184509C1291.880157 856.208664,1303.666901 827.760727,1303.666901 798.094177Z" style="stroke:rgb(25.500488%,41.000366%,88.400269%); stroke-width: 2.500000;stroke-linecap: round;stroke-linejoin: round;stroke-miterlimit: 10.000000;fill: none;"></path>
  <path d="M1360.865005 607.632797C1360.865005 577.966248,1349.078262 549.518311,1328.102432 528.542465C1307.126587 507.566635,1278.678650 495.779892,1249.012100 495.779892C1219.345551 495.779892,1190.897614 507.566635,1169.921768 528.542465C1148.945938 549.518311,1137.159195 577.966248,1137.159195 607.632797C1137.159195 637.299347,1148.945938 665.747284,1169.921768 686.723129C1190.897614 707.698959,1219.345551 719.485703,1249.012100 719.485703C1278.678650 719.485703,1307.126587 707.698959,1328.102432 686.723129C1349.078262 665.747284,1360.865005 637.299347,1360.865005 607.632797Z" style="stroke:rgb(25.500488%,41.000366%,88.400269%); stroke-width: 2.500000;stroke-linecap: round;stroke-linejoin: round;stroke-miterlimit: 10.000000;fill: none;"></path>
  <path d="M1406.410675 419.312469C1406.410675 389.645920,1394.623932 361.197983,1373.648102 340.222137C1352.672256 319.246307,1324.224319 307.459564,1294.557770 307.459564C1264.891220 307.459564,1236.443283 319.246307,1215.467438 340.222137C1194.491608 361.197983,1182.704865 389.645920,1182.704865 419.312469C1182.704865 448.979019,1194.491608 477.426956,1215.467438 498.402802C1236.443283 519.378632,1264.891220 531.165375,1294.557770 531.165375C1324.224319 531.165375,1352.672256 519.378632,1373.648102 498.402802C1394.623932 477.426956,1406.410675 448.979019,1406.410675 419.312469Z" style="stroke:rgb(25.500488%,41.000366%,88.400269%); stroke-width: 2.500000;stroke-linecap: round;stroke-linejoin: round;stroke-miterlimit: 10.000000;fill: none;"></path>
  <path d="M1060.613907 1466.019531C1060.613907 1436.352982,1048.827164 1407.905045,1027.851334 1386.929199C1006.875488 1365.953369,978.427551 1354.166626,948.761002 1354.166626C919.094452 1354.166626,890.646515 1365.953369,869.670670 1386.929199C848.694839 1407.905045,836.908096 1436.352982,836.908096 1466.019531C836.908096 1495.686081,848.694839 1524.134018,869.670670 1545.109863C890.646515 1566.085693,919.094452 1577.872437,948.761002 1577.872437C978.427551 1577.872437,1006.875488 1566.085693,1027.851334 1545.109863C1048.827164 1524.134018,1060.613907 1495.686081,1060.613907 1466.019531Z" style="stroke:rgb(25.500488%,41.000366%,88.400269%); stroke-width: 2.500000;stroke-linecap: round;stroke-linejoin: round;stroke-miterlimit: 10.000000;fill: none;"></path>
  <path d="M1080.116791 1273.274384C1080.116791 1243.607834,1068.330048 1215.159897,1047.354218 1194.184052C1026.378372 1173.208221,997.930435 1161.421478,968.263885 1161.421478C938.597336 1161.421478,910.149399 1173.208221,889.173553 1194.184052C868.197723 1215.159897,856.410980 1243.607834,856.410980 1273.274384C856.410980 1302.940933,868.197723 1331.388870,889.173553 1352.364716C910.149399 1373.340546,938.597336 1385.127289,968.263885 1385.127289C997.930435 1385.127289,1026.378372 1373.340546,1047.354218 1352.364716C1068.330048 1331.388870,1080.116791 1302.940933,1080.116791 1273.274384Z" style="stroke:rgb(25.500488%,41.000366%,88.400269%); stroke-width: 2.500000;stroke-linecap: round;stroke-linejoin: round;stroke-miterlimit: 10.000000;fill: none;"></path>
  <path d="M1120.303391 1093.998322C1120.303391 1064.331772,1108.516647 1035.883835,1087.540817 1014.907990C1066.564972 993.932159,1038.117035 982.145416,1008.450485 982.145416C978.783936 982.145416,950.335999 993.932159,929.360153 1014.907990C908.384323 1035.883835,896.597580 1064.331772,896.597580 1093.998322C896.597580 1123.664871,908.384323 1152.112808,929.360153 1173.088654C950.335999 1194.064484,978.783936 1205.851227,1008.450485 1205.851227C1038.117035 1205.851227,1066.564972 1194.064484,1087.540817 1173.088654C1108.516647 1152.112808,1120.303391 1123.664871,1120.303391 1093.998322Z" style="stroke:rgb(25.500488%,41.000366%,88.400269%); stroke-width: 2.500000;stroke-linecap: round;stroke-linejoin: round;stroke-miterlimit: 10.000000;fill: none;"></path>
  <path d="M1131.994751 892.312729C1131.994751 862.646179,1120.208008 834.198242,1099.232178 813.222397C1078.256332 792.246567,1049.808395 780.459824,1020.141846 780.459824C990.475296 780.459824,962.027359 792.246567,941.051514 813.222397C920.075684 834.198242,908.288940 862.646179,908.288940 892.312729C908.288940 921.979279,920.075684 950.427216,941.051514 971.403061C962.027359 992.378891,990.475296 1004.165634,1020.141846 1004.165634C1049.808395 1004.165634,1078.256332 992.378891,1099.232178 971.403061C1120.208008 950.427216,1131.994751 921.979279,1131.994751 892.312729Z" style="stroke:rgb(25.500488%,41.000366%,88.400269%); stroke-width: 2.500000;stroke-linecap: round;stroke-linejoin: round;stroke-miterlimit: 10.000000;fill: none;"></path>
  <path d="M1171.324921 687.824326C1171.324921 658.157776,1159.538177 629.709839,1138.562347 608.733994C1117.586502 587.758163,1089.138565 575.971420,1059.472015 575.971420C1029.805466 575.971420,1001.357529 587.758163,980.381683 608.733994C959.405853 629.709839,947.619110 658.157776,947.619110 687.824326C947.619110 717.490875,959.405853 745.938812,980.381683 766.914658C1001.357529 787.890488,1029.805466 799.677231,1059.472015 799.677231C1089.138565 799.677231,1117.586502 787.890488,1138.562347 766.914658C1159.538177 745.938812,1171.324921 717.490875,1171.324921 687.824326Z" style="stroke:rgb(25.500488%,41.000366%,88.400269%); stroke-width: 2.500000;stroke-linecap: round;stroke-linejoin: round;stroke-miterlimit: 10.000000;fill: none;"></path>
  <path d="M1217.545349 505.849258C1217.545349 476.182709,1205.758606 447.734772,1184.782776 426.758926C1163.806931 405.783096,1135.358994 393.996353,1105.692444 393.996353C1076.025894 393.996353,1047.577957 405.783096,1026.602112 426.758926C1005.626282 447.734772,993.839539 476.182709,993.839539 505.849258C993.839539 535.515808,1005.626282 563.963745,1026.602112 584.939590C1047.577957 605.915421,1076.025894 617.702164,1105.692444 617.702164C1135.358994 617.702164,1163.806931 605.915421,1184.782776 584.939590C1205.758606 563.963745,1217.545349 535.515808,1217.545349 505.849258Z" style="stroke:rgb(25.500488%,41.000366%,88.400269%); stroke-width: 2.500000;stroke-linecap: round;stroke-linejoin: round;stroke-miterlimit: 10.000000;fill: none;"></path>
  <path d="M1263.181854 317.528915C1263.181854 287.862366,1251.395111 259.414429,1230.419281 238.438583C1209.443436 217.462753,1180.995499 205.676010,1151.328949 205.676010C1121.662399 205.676010,1093.214462 217.462753,1072.238617 238.438583C1051.262787 259.414429,1039.476044 287.862366,1039.476044 317.528915C1039.476044 347.195465,1051.262787 375.643402,1072.238617 396.619247C1093.214462 417.595078,1121.662399 429.381821,1151.328949 429.381821C1180.995499 429.381821,1209.443436 417.595078,1230.419281 396.619247C1251.395111 375.643402,1263.181854 347.195465,1263.181854 317.528915Z" style="stroke:rgb(25.500488%,41.000366%,88.400269%); stroke-width: 2.500000;stroke-linecap: round;stroke-linejoin: round;stroke-miterlimit: 10.000000;fill: none;"></path>
  <path d="M898.699677 1483.394363C898.699677 1453.727814,886.912933 1425.279877,865.937103 1404.304031C844.961258 1383.328201,816.513321 1371.541458,786.846771 1371.541458C757.180222 1371.541458,728.732285 1383.328201,707.756439 1404.304031C686.780609 1425.279877,674.993866 1453.727814,674.993866 1483.394363C674.993866 1513.060913,686.780609 1541.508850,707.756439 1562.484695C728.732285 1583.460526,757.180222 1595.247269,786.846771 1595.247269C816.513321 1595.247269,844.961258 1583.460526,865.937103 1562.484695C886.912933 1541.508850,898.699677 1513.060913,898.699677 1483.394363Z" style="stroke:rgb(25.500488%,41.000366%,88.400269%); stroke-width: 2.500000;stroke-linecap: round;stroke-linejoin: round;stroke-miterlimit: 10.000000;fill: none;"></path>
  <path d="M907.990479 1330.485458C907.990479 1300.818909,896.203735 1272.370972,875.227905 1251.395126C854.252060 1230.419296,825.804123 1218.632553,796.137573 1218.632553C766.471024 1218.632553,738.023087 1230.419296,717.047241 1251.395126C696.071411 1272.370972,684.284668 1300.818909,684.284668 1330.485458C684.284668 1360.152008,696.071411 1388.599945,717.047241 1409.575790C738.023087 1430.551620,766.471024 1442.338364,796.137573 1442.338364C825.804123 1442.338364,854.252060 1430.551620,875.227905 1409.575790C896.203735 1388.599945,907.990479 1360.152008,907.990479 1330.485458Z" style="stroke:rgb(25.500488%,41.000366%,88.400269%); stroke-width: 2.500000;stroke-linecap: round;stroke-linejoin: round;stroke-miterlimit: 10.000000;fill: none;"></path>
  <path d="M931.204498 1136.157257C931.204498 1106.490707,919.417755 1078.042770,898.441925 1057.066925C877.466080 1036.091095,849.018143 1024.304352,819.351593 1024.304352C789.685043 1024.304352,761.237106 1036.091095,740.261261 1057.066925C719.285431 1078.042770,707.498688 1106.490707,707.498688 1136.157257C707.498688 1165.823807,719.285431 1194.271744,740.261261 1215.247589C761.237106 1236.223419,789.685043 1248.010162,819.351593 1248.010162C849.018143 1248.010162,877.466080 1236.223419,898.441925 1215.247589C919.417755 1194.271744,931.204498 1165.823807,931.204498 1136.157257Z" style="stroke:rgb(25.500488%,41.000366%,88.400269%); stroke-width: 2.500000;stroke-linecap: round;stroke-linejoin: round;stroke-miterlimit: 10.000000;fill: none;"></path>
  <path d="M969.120300 965.458298C969.120300 935.791748,957.333557 907.343811,936.357727 886.367966C915.381882 865.392136,886.933945 853.605392,857.267395 853.605392C827.600845 853.605392,799.152908 865.392136,778.177063 886.367966C757.201233 907.343811,745.414490 935.791748,745.414490 965.458298C745.414490 995.124847,757.201233 1023.572784,778.177063 1044.548630C799.152908 1065.524460,827.600845 1077.311203,857.267395 1077.311203C886.933945 1077.311203,915.381882 1065.524460,936.357727 1044.548630C957.333557 1023.572784,969.120300 995.124847,969.120300 965.458298Z" style="stroke:rgb(25.500488%,41.000366%,88.400269%); stroke-width: 2.500000;stroke-linecap: round;stroke-linejoin: round;stroke-miterlimit: 10.000000;fill: none;"></path>
  <path d="M1000.690857 767.016708C1000.690857 737.350159,988.904114 708.902222,967.928284 687.926376C946.952438 666.950546,918.504501 655.163803,888.837952 655.163803C859.171402 655.163803,830.723465 666.950546,809.747620 687.926376C788.771790 708.902222,776.985046 737.350159,776.985046 767.016708C776.985046 796.683258,788.771790 825.131195,809.747620 846.107040C830.723465 867.082870,859.171402 878.869614,888.837952 878.869614C918.504501 878.869614,946.952438 867.082870,967.928284 846.107040C988.904114 825.131195,1000.690857 796.683258,1000.690857 767.016708Z" style="stroke:rgb(25.500488%,41.000366%,88.400269%); stroke-width: 2.500000;stroke-linecap: round;stroke-linejoin: round;stroke-miterlimit: 10.000000;fill: none;"></path>
  <path d="M1024.229263 570.119263C1024.229263 540.452713,1012.442520 512.004776,991.466690 491.028931C970.490845 470.053101,942.042908 458.266357,912.376358 458.266357C882.709808 458.266357,854.261871 470.053101,833.286026 491.028931C812.310196 512.004776,800.523453 540.452713,800.523453 570.119263C800.523453 599.785812,812.310196 628.233749,833.286026 649.209595C854.261871 670.185425,882.709808 681.972168,912.376358 681.972168C942.042908 681.972168,970.490845 670.185425,991.466690 649.209595C1012.442520 628.233749,1024.229263 599.785812,1024.229263 570.119263Z" style="stroke:rgb(25.500488%,41.000366%,88.400269%); stroke-width: 2.500000;stroke-linecap: round;stroke-linejoin: round;stroke-miterlimit: 10.000000;fill: none;"></path>
  <path d="M1074.238678 402.275024C1074.238678 372.608475,1062.451935 344.160538,1041.476105 323.184692C1020.500259 302.208862,992.052322 290.422119,962.385773 290.422119C932.719223 290.422119,904.271286 302.208862,883.295441 323.184692C862.319611 344.160538,850.532867 372.608475,850.532867 402.275024C850.532867 431.941574,862.319611 460.389511,883.295441 481.365356C904.271286 502.341187,932.719223 514.127930,962.385773 514.127930C992.052322 514.127930,1020.500259 502.341187,1041.476105 481.365356C1062.451935 460.389511,1074.238678 431.941574,1074.238678 402.275024Z" style="stroke:rgb(25.500488%,41.000366%,88.400269%); stroke-width: 2.500000;stroke-linecap: round;stroke-linejoin: round;stroke-miterlimit: 10.000000;fill: none;"></path>
  <path d="M1122.275742 216.497971C1122.275742 186.831421,1110.488998 158.383484,1089.513168 137.407639C1068.537323 116.431808,1040.089386 104.645065,1010.422836 104.645065C980.756287 104.645065,952.308350 116.431808,931.332504 137.407639C910.356674 158.383484,898.569931 186.831421,898.569931 216.497971C898.569931 246.164520,910.356674 274.612457,931.332504 295.588303C952.308350 316.564133,980.756287 328.350876,1010.422836 328.350876C1040.089386 328.350876,1068.537323 316.564133,1089.513168 295.588303C1110.488998 274.612457,1122.275742 246.164520,1122.275742 216.497971Z" style="stroke:rgb(25.500488%,41.000366%,88.400269%); stroke-width: 2.500000;stroke-linecap: round;stroke-linejoin: round;stroke-miterlimit: 10.000000;fill: none;"></path>
  <path d="M700.854980 1524.670944C700.854980 1495.004395,689.068237 1466.556458,668.092407 1445.580612C647.116562 1424.604782,618.668625 1412.818039,589.002075 1412.818039C559.335526 1412.818039,530.887589 1424.604782,509.911743 1445.580612C488.935913 1466.556458,477.149170 1495.004395,477.149170 1524.670944C477.149170 1554.337494,488.935913 1582.785431,509.911743 1603.761276C530.887589 1624.737106,559.335526 1636.523849,589.002075 1636.523849C618.668625 1636.523849,647.116562 1624.737106,668.092407 1603.761276C689.068237 1582.785431,700.854980 1554.337494,700.854980 1524.670944Z" style="stroke:rgb(25.500488%,41.000366%,88.400269%); stroke-width: 2.500000;stroke-linecap: round;stroke-linejoin: round;stroke-miterlimit: 10.000000;fill: none;"></path>
  <path d="M713.247040 1375.693771C713.247040 1346.027222,701.460297 1317.579285,680.484467 1296.603439C659.508621 1275.627609,631.060684 1263.840866,601.394135 1263.840866C571.727585 1263.840866,543.279648 1275.627609,522.303802 1296.603439C501.327972 1317.579285,489.541229 1346.027222,489.541229 1375.693771C489.541229 1405.360321,501.327972 1433.808258,522.303802 1454.784103C543.279648 1475.759933,571.727585 1487.546677,601.394135 1487.546677C631.060684 1487.546677,659.508621 1475.759933,680.484467 1454.784103C701.460297 1433.808258,713.247040 1405.360321,713.247040 1375.693771Z" style="stroke:rgb(25.500488%,41.000366%,88.400269%); stroke-width: 2.500000;stroke-linecap: round;stroke-linejoin: round;stroke-miterlimit: 10.000000;fill: none;"></path>
  <path d="M757.066910 1200.595947C757.066910 1170.929398,745.280167 1142.481461,724.304337 1121.505615C703.328491 1100.529785,674.880554 1088.743042,645.214005 1088.743042C615.547455 1088.743042,587.099518 1100.529785,566.123672 1121.505615C545.147842 1142.481461,533.361099 1170.929398,533.361099 1200.595947C533.361099 1230.262497,545.147842 1258.710434,566.123672 1279.686279C587.099518 1300.662109,615.547455 1312.448853,645.214005 1312.448853C674.880554 1312.448853,703.328491 1300.662109,724.304337 1279.686279C745.280167 1258.710434,757.066910 1230.262497,757.066910 1200.595947Z" style="stroke:rgb(25.500488%,41.000366%,88.400269%); stroke-width: 2.500000;stroke-linecap: round;stroke-linejoin: round;stroke-miterlimit: 10.000000;fill: none;"></path>
  <path d="M773.325806 1009.381973C773.325806 979.715424,761.539062 951.267487,740.563232 930.291641C719.587387 909.315811,691.139450 897.529068,661.472900 897.529068C631.806351 897.529068,603.358414 909.315811,582.382568 930.291641C561.406738 951.267487,549.619995 979.715424,549.619995 1009.381973C549.619995 1039.048523,561.406738 1067.496460,582.382568 1088.472305C603.358414 1109.448135,631.806351 1121.234879,661.472900 1121.234879C691.139450 1121.234879,719.587387 1109.448135,740.563232 1088.472305C761.539062 1067.496460,773.325806 1039.048523,773.325806 1009.381973Z" style="stroke:rgb(25.500488%,41.000366%,88.400269%); stroke-width: 2.500000;stroke-linecap: round;stroke-linejoin: round;stroke-miterlimit: 10.000000;fill: none;"></path>
  <path d="M827.617294 832.220993C827.617294 802.554443,815.830551 774.106506,794.854721 753.130661C773.878876 732.154831,745.430939 720.368088,715.764389 720.368088C686.097839 720.368088,657.649902 732.154831,636.674057 753.130661C615.698227 774.106506,603.911484 802.554443,603.911484 832.220993C603.911484 861.887543,615.698227 890.335480,636.674057 911.311325C657.649902 932.287155,686.097839 944.073898,715.764389 944.073898C745.430939 944.073898,773.878876 932.287155,794.854721 911.311325C815.830551 890.335480,827.617294 861.887543,827.617294 832.220993Z" style="stroke:rgb(25.500488%,41.000366%,88.400269%); stroke-width: 2.500000;stroke-linecap: round;stroke-linejoin: round;stroke-miterlimit: 10.000000;fill: none;"></path>
  <path d="M850.909164 642.797699C850.909164 613.131149,839.122421 584.683212,818.146591 563.707367C797.170746 542.731537,768.722809 530.944794,739.056259 530.944794C709.389709 530.944794,680.941772 542.731537,659.965927 563.707367C638.990097 584.683212,627.203354 613.131149,627.203354 642.797699C627.203354 672.464249,638.990097 700.912186,659.965927 721.888031C680.941772 742.863861,709.389709 754.650604,739.056259 754.650604C768.722809 754.650604,797.170746 742.863861,818.146591 721.888031C839.122421 700.912186,850.909164 672.464249,850.909164 642.797699Z" style="stroke:rgb(25.500488%,41.000366%,88.400269%); stroke-width: 2.500000;stroke-linecap: round;stroke-linejoin: round;stroke-miterlimit: 10.000000;fill: none;"></path>
  <path d="M872.410355 446.704758C872.410355 417.038208,860.623611 388.590271,839.647781 367.614426C818.671936 346.638596,790.223999 334.851852,760.557449 334.851852C730.890900 334.851852,702.442963 346.638596,681.467117 367.614426C660.491287 388.590271,648.704544 417.038208,648.704544 446.704758C648.704544 476.371307,660.491287 504.819244,681.467117 525.795090C702.442963 546.770920,730.890900 558.557663,760.557449 558.557663C790.223999 558.557663,818.671936 546.770920,839.647781 525.795090C860.623611 504.819244,872.410355 476.371307,872.410355 446.704758Z" style="stroke:rgb(25.500488%,41.000366%,88.400269%); stroke-width: 2.500000;stroke-linecap: round;stroke-linejoin: round;stroke-miterlimit: 10.000000;fill: none;"></path>
  <path d="M930.802246 299.103043C930.802246 269.436493,919.015503 240.988556,898.039673 220.012711C877.063828 199.036880,848.615891 187.250137,818.949341 187.250137C789.282791 187.250137,760.834854 199.036880,739.859009 220.012711C718.883179 240.988556,707.096436 269.436493,707.096436 299.103043C707.096436 328.769592,718.883179 357.217529,739.859009 378.193375C760.834854 399.169205,789.282791 410.955948,818.949341 410.955948C848.615891 410.955948,877.063828 399.169205,898.039673 378.193375C919.015503 357.217529,930.802246 328.769592,930.802246 299.103043Z" style="stroke:rgb(25.500488%,41.000366%,88.400269%); stroke-width: 2.500000;stroke-linecap: round;stroke-linejoin: round;stroke-miterlimit: 10.000000;fill: none;"></path>
  <path d="M982.602341 112.300888C982.602341 82.634338,970.815598 54.186401,949.839767 33.210556C928.863922 12.234726,900.415985 0.447983,870.749435 0.447983C841.082886 0.447983,812.634949 12.234726,791.659103 33.210556C770.683273 54.186401,758.896530 82.634338,758.896530 112.300888C758.896530 141.967438,770.683273 170.415375,791.659103 191.391220C812.634949 212.367050,841.082886 224.153793,870.749435 224.153793C900.415985 224.153793,928.863922 212.367050,949.839767 191.391220C970.815598 170.415375,982.602341 141.967438,982.602341 112.300888Z" style="stroke:rgb(25.500488%,41.000366%,88.400269%); stroke-width: 2.500000;stroke-linecap: round;stroke-linejoin: round;stroke-miterlimit: 10.000000;fill: none;"></path>
  <path d="M527.573807 1459.635345C527.573807 1429.968796,515.787064 1401.520859,494.811234 1380.545013C473.835388 1359.569183,445.387451 1347.782440,415.720901 1347.782440C386.054352 1347.782440,357.606415 1359.569183,336.630569 1380.545013C315.654739 1401.520859,303.867996 1429.968796,303.867996 1459.635345C303.867996 1489.301895,315.654739 1517.749832,336.630569 1538.725677C357.606415 1559.701508,386.054352 1571.488251,415.720901 1571.488251C445.387451 1571.488251,473.835388 1559.701508,494.811234 1538.725677C515.787064 1517.749832,527.573807 1489.301895,527.573807 1459.635345Z" style="stroke:rgb(25.500488%,41.000366%,88.400269%); stroke-width: 2.500000;stroke-linecap: round;stroke-linejoin: round;stroke-miterlimit: 10.000000;fill: none;"></path>
  <path d="M579.373901 1265.904037C579.373901 1236.237488,567.587158 1207.789551,546.611328 1186.813705C525.635483 1165.837875,497.187546 1154.051132,467.520996 1154.051132C437.854446 1154.051132,409.406509 1165.837875,388.430664 1186.813705C367.454834 1207.789551,355.668091 1236.237488,355.668091 1265.904037C355.668091 1295.570587,367.454834 1324.018524,388.430664 1344.994370C409.406509 1365.970200,437.854446 1377.756943,467.520996 1377.756943C497.187546 1377.756943,525.635483 1365.970200,546.611328 1344.994370C567.587158 1324.018524,579.373901 1295.570587,579.373901 1265.904037Z" style="stroke:rgb(25.500488%,41.000366%,88.400269%); stroke-width: 2.500000;stroke-linecap: round;stroke-linejoin: round;stroke-miterlimit: 10.000000;fill: none;"></path>
  <path d="M598.500488 1076.831100C598.500488 1047.164551,586.713745 1018.716614,565.737915 997.740768C544.762070 976.764938,516.314133 964.978195,486.647583 964.978195C456.981033 964.978195,428.533096 976.764938,407.557251 997.740768C386.581421 1018.716614,374.794678 1047.164551,374.794678 1076.831100C374.794678 1106.497650,386.581421 1134.945587,407.557251 1155.921432C428.533096 1176.897263,456.981033 1188.684006,486.647583 1188.684006C516.314133 1188.684006,544.762070 1176.897263,565.737915 1155.921432C586.713745 1134.945587,598.500488 1106.497650,598.500488 1076.831100Z" style="stroke:rgb(25.500488%,41.000366%,88.400269%); stroke-width: 2.500000;stroke-linecap: round;stroke-linejoin: round;stroke-miterlimit: 10.000000;fill: none;"></path>
  <path d="M631.135071 879.142120C631.135071 849.475571,619.348328 821.027634,598.372498 800.051788C577.396652 779.075958,548.948715 767.289215,519.282166 767.289215C489.615616 767.289215,461.167679 779.075958,440.191833 800.051788C419.216003 821.027634,407.429260 849.475571,407.429260 879.142120C407.429260 908.808670,419.216003 937.256607,440.191833 958.232452C461.167679 979.208282,489.615616 990.995026,519.282166 990.995026C548.948715 990.995026,577.396652 979.208282,598.372498 958.232452C619.348328 937.256607,631.135071 908.808670,631.135071 879.142120Z" style="stroke:rgb(25.500488%,41.000366%,88.400269%); stroke-width: 2.500000;stroke-linecap: round;stroke-linejoin: round;stroke-miterlimit: 10.000000;fill: none;"></path>
  <path d="M671.892609 707.210434C671.892609 677.543884,660.105865 649.095947,639.130035 628.120102C618.154190 607.144272,589.706253 595.357529,560.039703 595.357529C530.373154 595.357529,501.925217 607.144272,480.949371 628.120102C459.973541 649.095947,448.186798 677.543884,448.186798 707.210434C448.186798 736.876984,459.973541 765.324921,480.949371 786.300766C501.925217 807.276596,530.373154 819.063339,560.039703 819.063339C589.706253 819.063339,618.154190 807.276596,639.130035 786.300766C660.105865 765.324921,671.892609 736.876984,671.892609 707.210434Z" style="stroke:rgb(25.500488%,41.000366%,88.400269%); stroke-width: 2.500000;stroke-linecap: round;stroke-linejoin: round;stroke-miterlimit: 10.000000;fill: none;"></path>
  <path d="M708.523788 512.726517C708.523788 483.059967,696.737045 454.612030,675.761215 433.636185C654.785370 412.660355,626.337433 400.873611,596.670883 400.873611C567.004333 400.873611,538.556396 412.660355,517.580551 433.636185C496.604721 454.612030,484.817978 483.059967,484.817978 512.726517C484.817978 542.393066,496.604721 570.841003,517.580551 591.816849C538.556396 612.792679,567.004333 624.579422,596.670883 624.579422C626.337433 624.579422,654.785370 612.792679,675.761215 591.816849C696.737045 570.841003,708.523788 542.393066,708.523788 512.726517Z" style="stroke:rgb(25.500488%,41.000366%,88.400269%); stroke-width: 2.500000;stroke-linecap: round;stroke-linejoin: round;stroke-miterlimit: 10.000000;fill: none;"></path>
  <path d="M720.721207 313.272797C720.721207 283.606247,708.934464 255.158310,687.958633 234.182465C666.982788 213.206635,638.534851 201.419891,608.868301 201.419891C579.201752 201.419891,550.753815 213.206635,529.777969 234.182465C508.802139 255.158310,497.015396 283.606247,497.015396 313.272797C497.015396 342.939346,508.802139 371.387283,529.777969 392.363129C550.753815 413.338959,579.201752 425.125702,608.868301 425.125702C638.534851 425.125702,666.982788 413.338959,687.958633 392.363129C708.934464 371.387283,720.721207 342.939346,720.721207 313.272797Z" style="stroke:rgb(25.500488%,41.000366%,88.400269%); stroke-width: 2.500000;stroke-linecap: round;stroke-linejoin: round;stroke-miterlimit: 10.000000;fill: none;"></path>
  <path d="M802.924011 158.469421C802.924011 128.802872,791.137268 100.354935,770.161438 79.379089C749.185593 58.403259,720.737656 46.616516,691.071106 46.616516C661.404556 46.616516,632.956619 58.403259,611.980774 79.379089C591.004944 100.354935,579.218201 128.802872,579.218201 158.469421C579.218201 188.135971,591.004944 216.583908,611.980774 237.559753C632.956619 258.535583,661.404556 270.322327,691.071106 270.322327C720.737656 270.322327,749.185593 258.535583,770.161438 237.559753C791.137268 216.583908,802.924011 188.135971,802.924011 158.469421Z" style="stroke:rgb(25.500488%,41.000366%,88.400269%); stroke-width: 2.500000;stroke-linecap: round;stroke-linejoin: round;stroke-miterlimit: 10.000000;fill: none;"></path>
  <path d="M402.368622 1313.512894C402.368622 1283.846344,390.581879 1255.398407,369.606049 1234.422562C348.630203 1213.446732,320.182266 1201.659988,290.515717 1201.659988C260.849167 1201.659988,232.401230 1213.446732,211.425385 1234.422562C190.449554 1255.398407,178.662811 1283.846344,178.662811 1313.512894C178.662811 1343.179443,190.449554 1371.627380,211.425385 1392.603226C232.401230 1413.579056,260.849167 1425.365799,290.515717 1425.365799C320.182266 1425.365799,348.630203 1413.579056,369.606049 1392.603226C390.581879 1371.627380,402.368622 1343.179443,402.368622 1313.512894Z" style="stroke:rgb(25.500488%,41.000366%,88.400269%); stroke-width: 2.500000;stroke-linecap: round;stroke-linejoin: round;stroke-miterlimit: 10.000000;fill: none;"></path>
  <path d="M425.037659 1127.307648C425.037659 1097.641098,413.250916 1069.193161,392.275085 1048.217316C371.299240 1027.241486,342.851303 1015.454742,313.184753 1015.454742C283.518204 1015.454742,255.070267 1027.241486,234.094421 1048.217316C213.118591 1069.193161,201.331848 1097.641098,201.331848 1127.307648C201.331848 1156.974197,213.118591 1185.422134,234.094421 1206.397980C255.070267 1227.373810,283.518204 1239.160553,313.184753 1239.160553C342.851303 1239.160553,371.299240 1227.373810,392.275085 1206.397980C413.250916 1185.422134,425.037659 1156.974197,425.037659 1127.307648Z" style="stroke:rgb(25.500488%,41.000366%,88.400269%); stroke-width: 2.500000;stroke-linecap: round;stroke-linejoin: round;stroke-miterlimit: 10.000000;fill: none;"></path>
  <path d="M460.565872 931.759689C460.565872 902.093140,448.779129 873.645203,427.803299 852.669357C406.827454 831.693527,378.379517 819.906784,348.712967 819.906784C319.046417 819.906784,290.598480 831.693527,269.622635 852.669357C248.646805 873.645203,236.860062 902.093140,236.860062 931.759689C236.860062 961.426239,248.646805 989.874176,269.622635 1010.850021C290.598480 1031.825851,319.046417 1043.612595,348.712967 1043.612595C378.379517 1043.612595,406.827454 1031.825851,427.803299 1010.850021C448.779129 989.874176,460.565872 961.426239,460.565872 931.759689Z" style="stroke:rgb(25.500488%,41.000366%,88.400269%); stroke-width: 2.500000;stroke-linecap: round;stroke-linejoin: round;stroke-miterlimit: 10.000000;fill: none;"></path>
  <path d="M479.575684 739.235153C479.575684 709.568604,467.788940 681.120667,446.813110 660.144821C425.837265 639.168991,397.389328 627.382248,367.722778 627.382248C338.056229 627.382248,309.608292 639.168991,288.632446 660.144821C267.656616 681.120667,255.869873 709.568604,255.869873 739.235153C255.869873 768.901703,267.656616 797.349640,288.632446 818.325485C309.608292 839.301315,338.056229 851.088058,367.722778 851.088058C397.389328 851.088058,425.837265 839.301315,446.813110 818.325485C467.788940 797.349640,479.575684 768.901703,479.575684 739.235153Z" style="stroke:rgb(25.500488%,41.000366%,88.400269%); stroke-width: 2.500000;stroke-linecap: round;stroke-linejoin: round;stroke-miterlimit: 10.000000;fill: none;"></path>
  <path d="M532.452774 566.083725C532.452774 536.417175,520.666031 507.969238,499.690201 486.993393C478.714355 466.017563,450.266418 454.230820,420.599869 454.230820C390.933319 454.230820,362.485382 466.017563,341.509537 486.993393C320.533707 507.969238,308.746964 536.417175,308.746964 566.083725C308.746964 595.750275,320.533707 624.198212,341.509537 645.174057C362.485382 666.149887,390.933319 677.936630,420.599869 677.936630C450.266418 677.936630,478.714355 666.149887,499.690201 645.174057C520.666031 624.198212,532.452774 595.750275,532.452774 566.083725Z" style="stroke:rgb(25.500488%,41.000366%,88.400269%); stroke-width: 2.500000;stroke-linecap: round;stroke-linejoin: round;stroke-miterlimit: 10.000000;fill: none;"></path>
  <path d="M590.559189 367.226913C590.559189 337.560364,578.772446 309.112427,557.796616 288.136581C536.820770 267.160751,508.372833 255.374008,478.706284 255.374008C449.039734 255.374008,420.591797 267.160751,399.615952 288.136581C378.640121 309.112427,366.853378 337.560364,366.853378 367.226913C366.853378 396.893463,378.640121 425.341400,399.615952 446.317245C420.591797 467.293076,449.039734 479.079819,478.706284 479.079819C508.372833 479.079819,536.820770 467.293076,557.796616 446.317245C578.772446 425.341400,590.559189 396.893463,590.559189 367.226913Z" style="stroke:rgb(25.500488%,41.000366%,88.400269%); stroke-width: 2.500000;stroke-linecap: round;stroke-linejoin: round;stroke-miterlimit: 10.000000;fill: none;"></path>
  <path d="M294.239822 990.540863C294.239822 960.874313,282.453079 932.426376,261.477249 911.450531C240.501404 890.474701,212.053467 878.687958,182.386917 878.687958C152.720367 878.687958,124.272430 890.474701,103.296585 911.450531C82.320755 932.426376,70.534012 960.874313,70.534012 990.540863C70.534012 1020.207413,82.320755 1048.655350,103.296585 1069.631195C124.272430 1090.607025,152.720367 1102.393768,182.386917 1102.393768C212.053467 1102.393768,240.501404 1090.607025,261.477249 1069.631195C282.453079 1048.655350,294.239822 1020.207413,294.239822 990.540863Z" style="stroke:rgb(25.500488%,41.000366%,88.400269%); stroke-width: 2.500000;stroke-linecap: round;stroke-linejoin: round;stroke-miterlimit: 10.000000;fill: none;"></path>
  <path d="M308.085190 794.512802C308.085190 764.846252,296.298447 736.398315,275.322617 715.422470C254.346771 694.446640,225.898834 682.659897,196.232285 682.659897C166.565735 682.659897,138.117798 694.446640,117.141953 715.422470C96.166122 736.398315,84.379379 764.846252,84.379379 794.512802C84.379379 824.179352,96.166122 852.627289,117.141953 873.603134C138.117798 894.578964,166.565735 906.365707,196.232285 906.365707C225.898834 906.365707,254.346771 894.578964,275.322617 873.603134C296.298447 852.627289,308.085190 824.179352,308.085190 794.512802Z" style="stroke:rgb(25.500488%,41.000366%,88.400269%); stroke-width: 2.500000;stroke-linecap: round;stroke-linejoin: round;stroke-miterlimit: 10.000000;fill: none;"></path>
  <path d="M337.073517 597.991653C337.073517 568.325104,325.286774 539.877167,304.310944 518.901321C283.335098 497.925491,254.887161 486.138748,225.220612 486.138748C195.554062 486.138748,167.106125 497.925491,146.130280 518.901321C125.154449 539.877167,113.367706 568.325104,113.367706 597.991653C113.367706 627.658203,125.154449 656.106140,146.130280 677.081985C167.106125 698.057816,195.554062 709.844559,225.220612 709.844559C254.887161 709.844559,283.335098 698.057816,304.310944 677.081985C325.286774 656.106140,337.073517 627.658203,337.073517 597.991653Z" style="stroke:rgb(25.500488%,41.000366%,88.400269%); stroke-width: 2.500000;stroke-linecap: round;stroke-linejoin: round;stroke-miterlimit: 10.000000;fill: none;"></path>
  <path d="M409.168030 451.921097C409.168030 422.254547,397.381287 393.806610,376.405457 372.830765C355.429611 351.854935,326.981674 340.068192,297.315125 340.068192C267.648575 340.068192,239.200638 351.854935,218.224792 372.830765C197.248962 393.806610,185.462219 422.254547,185.462219 451.921097C185.462219 481.587646,197.248962 510.035583,218.224792 531.011429C239.200638 551.987259,267.648575 563.774002,297.315125 563.774002C326.981674 563.774002,355.429611 551.987259,376.405457 531.011429C397.381287 510.035583,409.168030 481.587646,409.168030 451.921097Z" style="stroke:rgb(25.500488%,41.000366%,88.400269%); stroke-width: 2.500000;stroke-linecap: round;stroke-linejoin: round;stroke-miterlimit: 10.000000;fill: none;"></path>
  <path d="M224.701569 643.757919C224.701569 614.091370,212.914825 585.643433,191.938995 564.667587C170.963150 543.691757,142.515213 531.905014,112.848663 531.905014C83.182114 531.905014,54.734177 543.691757,33.758331 564.667587C12.782501 585.643433,0.995758 614.091370,0.995758 643.757919C0.995758 673.424469,12.782501 701.872406,33.758331 722.848251C54.734177 743.824081,83.182114 755.610825,112.848663 755.610825C142.515213 755.610825,170.963150 743.824081,191.938995 722.848251C212.914825 701.872406,224.701569 673.424469,224.701569 643.757919Z" style="stroke:rgb(25.500488%,41.000366%,88.400269%); stroke-width: 2.500000;stroke-linecap: round;stroke-linejoin: round;stroke-miterlimit: 10.000000;fill: none;"></path>
</svg>
