<?xml version="1.0"?>
<!-- Created by MetaPost 2.00 on 2022.03.02:1201 -->
<svg version="1.1" xmlns="http://www.w3.org/2000/svg" xmlns:xlink="http://www.w3.org/1999/xlink" width="1884.743103" height="1834.668808" viewBox="0 0 1884.743103 1834.668808">
<!-- Original BoundingBox: -936.778900 -886.756516 947.964203 947.912292 -->
  <path d="M1786.393524 947.000000L1672.464462 521.803238L1361.196762 210.535538L936.000000 96.606476L510.803238 210.535538L199.535538 521.803238L85.606476 947.000000L199.535538 1372.196762L510.803238 1683.464462L936.000000 1797.393524L1361.196762 1683.464462L1672.464462 1372.196762L1786.393524 947.000000Z" style="fill: rgb(100.000000%,100.000000%,100.000000%);stroke: none;"></path>
  <path d="M1786.393524 947.000000L1672.464462 521.803238" style="stroke:rgb(0.000000%,0.000000%,0.000000%); stroke-width: 2.500000;stroke-linecap: round;stroke-linejoin: round;stroke-miterlimit: 10.000000;fill: none;"></path>
  <path d="M1672.464462 521.803238L1361.196762 210.535538" style="stroke:rgb(0.000000%,0.000000%,0.000000%); stroke-width: 2.500000;stroke-linecap: round;stroke-linejoin: round;stroke-miterlimit: 10.000000;fill: none;"></path>
  <path d="M1361.196762 210.535538L936.000000 96.606476" style="stroke:rgb(0.000000%,0.000000%,0.000000%); stroke-width: 2.500000;stroke-linecap: round;stroke-linejoin: round;stroke-miterlimit: 10.000000;fill: none;"></path>
  <path d="M936.000000 96.606476L510.803238 210.535538" style="stroke:rgb(0.000000%,0.000000%,0.000000%); stroke-width: 2.500000;stroke-linecap: round;stroke-linejoin: round;stroke-miterlimit: 10.000000;fill: none;"></path>
  <path d="M510.803238 210.535538L199.535538 521.803238" style="stroke:rgb(0.000000%,0.000000%,0.000000%); stroke-width: 2.500000;stroke-linecap: round;stroke-linejoin: round;stroke-miterlimit: 10.000000;fill: none;"></path>
  <path d="M199.535538 521.803238L85.606476 947.000000" style="stroke:rgb(0.000000%,0.000000%,0.000000%); stroke-width: 2.500000;stroke-linecap: round;stroke-linejoin: round;stroke-miterlimit: 10.000000;fill: none;"></path>
  <path d="M85.606476 947.000000L199.535538 1372.196762" style="stroke:rgb(0.000000%,0.000000%,0.000000%); stroke-width: 2.500000;stroke-linecap: round;stroke-linejoin: round;stroke-miterlimit: 10.000000;fill: none;"></path>
  <path d="M199.535538 1372.196762L510.803238 1683.464462" style="stroke:rgb(0.000000%,0.000000%,0.000000%); stroke-width: 2.500000;stroke-linecap: round;stroke-linejoin: round;stroke-miterlimit: 10.000000;fill: none;"></path>
  <path d="M510.803238 1683.464462L936.000000 1797.393524" style="stroke:rgb(0.000000%,0.000000%,0.000000%); stroke-width: 2.500000;stroke-linecap: round;stroke-linejoin: round;stroke-miterlimit: 10.000000;fill: none;"></path>
  <path d="M936.000000 1797.393524L1361.196762 1683.464462" style="stroke:rgb(0.000000%,0.000000%,0.000000%); stroke-width: 2.500000;stroke-linecap: round;stroke-linejoin: round;stroke-miterlimit: 10.000000;fill: none;"></path>
  <path d="M1361.196762 1683.464462L1672.464462 1372.196762" style="stroke:rgb(0.000000%,0.000000%,0.000000%); stroke-width: 2.500000;stroke-linecap: round;stroke-linejoin: round;stroke-miterlimit: 10.000000;fill: none;"></path>
  <path d="M1672.464462 1372.196762L1786.393524 947.000000" style="stroke:rgb(0.000000%,0.000000%,0.000000%); stroke-width: 2.500000;stroke-linecap: round;stroke-linejoin: round;stroke-miterlimit: 10.000000;fill: none;"></path>
  <path d="M1718.970367 1426.760742C1718.970367 1385.100220,1702.418335 1345.151001,1672.962128 1315.694794C1643.505920 1286.238586,1603.556702 1269.686554,1561.896179 1269.686554C1520.235657 1269.686554,1480.286438 1286.238586,1450.830231 1315.694794C1421.374023 1345.151001,1404.821991 1385.100220,1404.821991 1426.760742C1404.821991 1468.421265,1421.374023 1508.370483,1450.830231 1537.826691C1480.286438 1567.282898,1520.235657 1583.834930,1561.896179 1583.834930C1603.556702 1583.834930,1643.505920 1567.282898,1672.962128 1537.826691C1702.418335 1508.370483,1718.970367 1468.421265,1718.970367 1426.760742Z" style="stroke:rgb(25.500488%,41.000366%,88.400269%); stroke-width: 2.500000;stroke-linecap: round;stroke-linejoin: round;stroke-miterlimit: 10.000000;fill: none;"></path>
  <path d="M1788.067429 1180.476730C1788.067429 1138.816208,1771.515396 1098.866989,1742.059189 1069.410782C1712.602982 1039.954575,1672.653763 1023.402542,1630.993240 1023.402542C1589.332718 1023.402542,1549.383499 1039.954575,1519.927292 1069.410782C1490.471085 1098.866989,1473.919052 1138.816208,1473.919052 1180.476730C1473.919052 1222.137253,1490.471085 1262.086472,1519.927292 1291.542679C1549.383499 1320.998886,1589.332718 1337.550919,1630.993240 1337.550919C1672.653763 1337.550919,1712.602982 1320.998886,1742.059189 1291.542679C1771.515396 1262.086472,1788.067429 1222.137253,1788.067429 1180.476730Z" style="stroke:rgb(25.500488%,41.000366%,88.400269%); stroke-width: 2.500000;stroke-linecap: round;stroke-linejoin: round;stroke-miterlimit: 10.000000;fill: none;"></path>
  <path d="M1882.714203 924.097397C1882.714203 882.436874,1866.162170 842.487656,1836.705963 813.031448C1807.249756 783.575241,1767.300537 767.023209,1725.640015 767.023209C1683.979492 767.023209,1644.030273 783.575241,1614.574066 813.031448C1585.117859 842.487656,1568.565826 882.436874,1568.565826 924.097397C1568.565826 965.757919,1585.117859 1005.707138,1614.574066 1035.163345C1644.030273 1064.619553,1683.979492 1081.171585,1725.640015 1081.171585C1767.300537 1081.171585,1807.249756 1064.619553,1836.705963 1035.163345C1866.162170 1005.707138,1882.714203 965.757919,1882.714203 924.097397Z" style="stroke:rgb(25.500488%,41.000366%,88.400269%); stroke-width: 2.500000;stroke-linecap: round;stroke-linejoin: round;stroke-miterlimit: 10.000000;fill: none;"></path>
  <path d="M1482.418335 1563.229065C1482.418335 1521.568542,1465.866302 1481.619324,1436.410095 1452.163116C1406.953888 1422.706909,1367.004669 1406.154877,1325.344147 1406.154877C1283.683624 1406.154877,1243.734406 1422.706909,1214.278198 1452.163116C1184.821991 1481.619324,1168.269958 1521.568542,1168.269958 1563.229065C1168.269958 1604.889587,1184.821991 1644.838806,1214.278198 1674.295013C1243.734406 1703.751221,1283.683624 1720.303253,1325.344147 1720.303253C1367.004669 1720.303253,1406.953888 1703.751221,1436.410095 1674.295013C1465.866302 1644.838806,1482.418335 1604.889587,1482.418335 1563.229065Z" style="stroke:rgb(25.500488%,41.000366%,88.400269%); stroke-width: 2.500000;stroke-linecap: round;stroke-linejoin: round;stroke-miterlimit: 10.000000;fill: none;"></path>
  <path d="M1530.611099 1273.812912C1530.611099 1232.152390,1514.059067 1192.203171,1484.602859 1162.746964C1455.146652 1133.290756,1415.197433 1116.738724,1373.536911 1116.738724C1331.876389 1116.738724,1291.927170 1133.290756,1262.470963 1162.746964C1233.014755 1192.203171,1216.462723 1232.152390,1216.462723 1273.812912C1216.462723 1315.473434,1233.014755 1355.422653,1262.470963 1384.878860C1291.927170 1414.335068,1331.876389 1430.887100,1373.536911 1430.887100C1415.197433 1430.887100,1455.146652 1414.335068,1484.602859 1384.878860C1514.059067 1355.422653,1530.611099 1315.473434,1530.611099 1273.812912Z" style="stroke:rgb(25.500488%,41.000366%,88.400269%); stroke-width: 2.500000;stroke-linecap: round;stroke-linejoin: round;stroke-miterlimit: 10.000000;fill: none;"></path>
  <path d="M1607.766251 999.773285C1607.766251 958.112762,1591.214218 918.163544,1561.758011 888.707336C1532.301804 859.251129,1492.352585 842.699097,1450.692062 842.699097C1409.031540 842.699097,1369.082321 859.251129,1339.626114 888.707336C1310.169907 918.163544,1293.617874 958.112762,1293.617874 999.773285C1293.617874 1041.433807,1310.169907 1081.383026,1339.626114 1110.839233C1369.082321 1140.295441,1409.031540 1156.847473,1450.692062 1156.847473C1492.352585 1156.847473,1532.301804 1140.295441,1561.758011 1110.839233C1591.214218 1081.383026,1607.766251 1041.433807,1607.766251 999.773285Z" style="stroke:rgb(25.500488%,41.000366%,88.400269%); stroke-width: 2.500000;stroke-linecap: round;stroke-linejoin: round;stroke-miterlimit: 10.000000;fill: none;"></path>
  <path d="M1740.419647 741.862808C1740.419647 700.202286,1723.867615 660.253067,1694.411407 630.796860C1664.955200 601.340652,1625.005981 584.788620,1583.345459 584.788620C1541.684937 584.788620,1501.735718 601.340652,1472.279510 630.796860C1442.823303 660.253067,1426.271271 700.202286,1426.271271 741.862808C1426.271271 783.523331,1442.823303 823.472549,1472.279510 852.928757C1501.735718 882.384964,1541.684937 898.936996,1583.345459 898.936996C1625.005981 898.936996,1664.955200 882.384964,1694.411407 852.928757C1723.867615 823.472549,1740.419647 783.523331,1740.419647 741.862808Z" style="stroke:rgb(25.500488%,41.000366%,88.400269%); stroke-width: 2.500000;stroke-linecap: round;stroke-linejoin: round;stroke-miterlimit: 10.000000;fill: none;"></path>
  <path d="M1751.410294 530.380356C1751.410294 488.719833,1734.858261 448.770615,1705.402054 419.314407C1675.945847 389.858200,1635.996628 373.306168,1594.336105 373.306168C1552.675583 373.306168,1512.726364 389.858200,1483.270157 419.314407C1453.813950 448.770615,1437.261917 488.719833,1437.261917 530.380356C1437.261917 572.040878,1453.813950 611.990097,1483.270157 641.446304C1512.726364 670.902512,1552.675583 687.454544,1594.336105 687.454544C1635.996628 687.454544,1675.945847 670.902512,1705.402054 641.446304C1734.858261 611.990097,1751.410294 572.040878,1751.410294 530.380356Z" style="stroke:rgb(25.500488%,41.000366%,88.400269%); stroke-width: 2.500000;stroke-linecap: round;stroke-linejoin: round;stroke-miterlimit: 10.000000;fill: none;"></path>
  <path d="M1280.070969 1644.860931C1280.070969 1603.200409,1263.518936 1563.251190,1234.062729 1533.794983C1204.606522 1504.338776,1164.657303 1487.786743,1122.996780 1487.786743C1081.336258 1487.786743,1041.387039 1504.338776,1011.930832 1533.794983C982.474625 1563.251190,965.922592 1603.200409,965.922592 1644.860931C965.922592 1686.521454,982.474625 1726.470673,1011.930832 1755.926880C1041.387039 1785.383087,1081.336258 1801.935120,1122.996780 1801.935120C1164.657303 1801.935120,1204.606522 1785.383087,1234.062729 1755.926880C1263.518936 1726.470673,1280.070969 1686.521454,1280.070969 1644.860931Z" style="stroke:rgb(25.500488%,41.000366%,88.400269%); stroke-width: 2.500000;stroke-linecap: round;stroke-linejoin: round;stroke-miterlimit: 10.000000;fill: none;"></path>
  <path d="M1305.426025 1350.604736C1305.426025 1308.944214,1288.873993 1268.994995,1259.417786 1239.538788C1229.961578 1210.082581,1190.012360 1193.530548,1148.351837 1193.530548C1106.691315 1193.530548,1066.742096 1210.082581,1037.285889 1239.538788C1007.829681 1268.994995,991.277649 1308.944214,991.277649 1350.604736C991.277649 1392.265259,1007.829681 1432.214478,1037.285889 1461.670685C1066.742096 1491.126892,1106.691315 1507.678925,1148.351837 1507.678925C1190.012360 1507.678925,1229.961578 1491.126892,1259.417786 1461.670685C1288.873993 1432.214478,1305.426025 1392.265259,1305.426025 1350.604736Z" style="stroke:rgb(25.500488%,41.000366%,88.400269%); stroke-width: 2.500000;stroke-linecap: round;stroke-linejoin: round;stroke-miterlimit: 10.000000;fill: none;"></path>
  <path d="M1356.421616 1068.649765C1356.421616 1026.989243,1339.869583 987.040024,1310.413376 957.583817C1280.957169 928.127609,1241.007950 911.575577,1199.347427 911.575577C1157.686905 911.575577,1117.737686 928.127609,1088.281479 957.583817C1058.825272 987.040024,1042.273239 1026.989243,1042.273239 1068.649765C1042.273239 1110.310287,1058.825272 1150.259506,1088.281479 1179.715714C1117.737686 1209.171921,1157.686905 1225.723953,1199.347427 1225.723953C1241.007950 1225.723953,1280.957169 1209.171921,1310.413376 1179.715714C1339.869583 1150.259506,1356.421616 1110.310287,1356.421616 1068.649765Z" style="stroke:rgb(25.500488%,41.000366%,88.400269%); stroke-width: 2.500000;stroke-linecap: round;stroke-linejoin: round;stroke-miterlimit: 10.000000;fill: none;"></path>
  <path d="M1469.688904 798.996017C1469.688904 757.335495,1453.136871 717.386276,1423.680664 687.930069C1394.224457 658.473862,1354.275238 641.921829,1312.614716 641.921829C1270.954193 641.921829,1231.004974 658.473862,1201.548767 687.930069C1172.092560 717.386276,1155.540527 757.335495,1155.540527 798.996017C1155.540527 840.656540,1172.092560 880.605759,1201.548767 910.061966C1231.004974 939.518173,1270.954193 956.070206,1312.614716 956.070206C1354.275238 956.070206,1394.224457 939.518173,1423.680664 910.061966C1453.136871 880.605759,1469.688904 840.656540,1469.688904 798.996017Z" style="stroke:rgb(25.500488%,41.000366%,88.400269%); stroke-width: 2.500000;stroke-linecap: round;stroke-linejoin: round;stroke-miterlimit: 10.000000;fill: none;"></path>
  <path d="M1499.364960 569.139603C1499.364960 527.479080,1482.812927 487.529861,1453.356720 458.073654C1423.900513 428.617447,1383.951294 412.065414,1342.290771 412.065414C1300.630249 412.065414,1260.681030 428.617447,1231.224823 458.073654C1201.768616 487.529861,1185.216583 527.479080,1185.216583 569.139603C1185.216583 610.800125,1201.768616 650.749344,1231.224823 680.205551C1260.681030 709.661758,1300.630249 726.213791,1342.290771 726.213791C1383.951294 726.213791,1423.900513 709.661758,1453.356720 680.205551C1482.812927 650.749344,1499.364960 610.800125,1499.364960 569.139603Z" style="stroke:rgb(25.500488%,41.000366%,88.400269%); stroke-width: 2.500000;stroke-linecap: round;stroke-linejoin: round;stroke-miterlimit: 10.000000;fill: none;"></path>
  <path d="M1552.540497 313.486923C1552.540497 271.826401,1535.988464 231.877182,1506.532257 202.420975C1477.076050 172.964767,1437.126831 156.412735,1395.466309 156.412735C1353.805786 156.412735,1313.856567 172.964767,1284.400360 202.420975C1254.944153 231.877182,1238.392120 271.826401,1238.392120 313.486923C1238.392120 355.147446,1254.944153 395.096664,1284.400360 424.552872C1313.856567 454.009079,1353.805786 470.561111,1395.466309 470.561111C1437.126831 470.561111,1477.076050 454.009079,1506.532257 424.552872C1535.988464 395.096664,1552.540497 355.147446,1552.540497 313.486923Z" style="stroke:rgb(25.500488%,41.000366%,88.400269%); stroke-width: 2.500000;stroke-linecap: round;stroke-linejoin: round;stroke-miterlimit: 10.000000;fill: none;"></path>
  <path d="M1064.008011 1675.341507C1064.008011 1633.680984,1047.455978 1593.731766,1017.999771 1564.275558C988.543564 1534.819351,948.594345 1518.267319,906.933823 1518.267319C865.273300 1518.267319,825.324081 1534.819351,795.867874 1564.275558C766.411667 1593.731766,749.859634 1633.680984,749.859634 1675.341507C749.859634 1717.002029,766.411667 1756.951248,795.867874 1786.407455C825.324081 1815.863663,865.273300 1832.415695,906.933823 1832.415695C948.594345 1832.415695,988.543564 1815.863663,1017.999771 1786.407455C1047.455978 1756.951248,1064.008011 1717.002029,1064.008011 1675.341507Z" style="stroke:rgb(25.500488%,41.000366%,88.400269%); stroke-width: 2.500000;stroke-linecap: round;stroke-linejoin: round;stroke-miterlimit: 10.000000;fill: none;"></path>
  <path d="M1110.981033 1402.703278C1110.981033 1361.042755,1094.429001 1321.093536,1064.972794 1291.637329C1035.516586 1262.181122,995.567368 1245.629089,953.906845 1245.629089C912.246323 1245.629089,872.297104 1262.181122,842.840897 1291.637329C813.384689 1321.093536,796.832657 1361.042755,796.832657 1402.703278C796.832657 1444.363800,813.384689 1484.313019,842.840897 1513.769226C872.297104 1543.225433,912.246323 1559.777466,953.906845 1559.777466C995.567368 1559.777466,1035.516586 1543.225433,1064.972794 1513.769226C1094.429001 1484.313019,1110.981033 1444.363800,1110.981033 1402.703278Z" style="stroke:rgb(25.500488%,41.000366%,88.400269%); stroke-width: 2.500000;stroke-linecap: round;stroke-linejoin: round;stroke-miterlimit: 10.000000;fill: none;"></path>
  <path d="M1136.984894 1110.847641C1136.984894 1069.187119,1120.432861 1029.237900,1090.976654 999.781693C1061.520447 970.325485,1021.571228 953.773453,979.910706 953.773453C938.250183 953.773453,898.300964 970.325485,868.844757 999.781693C839.388550 1029.237900,822.836517 1069.187119,822.836517 1110.847641C822.836517 1152.508163,839.388550 1192.457382,868.844757 1221.913589C898.300964 1251.369797,938.250183 1267.921829,979.910706 1267.921829C1021.571228 1267.921829,1061.520447 1251.369797,1090.976654 1221.913589C1120.432861 1192.457382,1136.984894 1152.508163,1136.984894 1110.847641Z" style="stroke:rgb(25.500488%,41.000366%,88.400269%); stroke-width: 2.500000;stroke-linecap: round;stroke-linejoin: round;stroke-miterlimit: 10.000000;fill: none;"></path>
  <path d="M1213.750763 854.805695C1213.750763 813.145172,1197.198730 773.195953,1167.742523 743.739746C1138.286316 714.283539,1098.337097 697.731506,1056.676575 697.731506C1015.016052 697.731506,975.066833 714.283539,945.610626 743.739746C916.154419 773.195953,899.602386 813.145172,899.602386 854.805695C899.602386 896.466217,916.154419 936.415436,945.610626 965.871643C975.066833 995.327850,1015.016052 1011.879883,1056.676575 1011.879883C1098.337097 1011.879883,1138.286316 995.327850,1167.742523 965.871643C1197.198730 936.415436,1213.750763 896.466217,1213.750763 854.805695Z" style="stroke:rgb(25.500488%,41.000366%,88.400269%); stroke-width: 2.500000;stroke-linecap: round;stroke-linejoin: round;stroke-miterlimit: 10.000000;fill: none;"></path>
  <path d="M1289.906754 588.681412C1289.906754 547.020889,1273.354721 507.071671,1243.898514 477.615463C1214.442307 448.159256,1174.493088 431.607224,1132.832565 431.607224C1091.172043 431.607224,1051.222824 448.159256,1021.766617 477.615463C992.310410 507.071671,975.758377 547.020889,975.758377 588.681412C975.758377 630.341934,992.310410 670.291153,1021.766617 699.747360C1051.222824 729.203568,1091.172043 745.755600,1132.832565 745.755600C1174.493088 745.755600,1214.442307 729.203568,1243.898514 699.747360C1273.354721 670.291153,1289.906754 630.341934,1289.906754 588.681412Z" style="stroke:rgb(25.500488%,41.000366%,88.400269%); stroke-width: 2.500000;stroke-linecap: round;stroke-linejoin: round;stroke-miterlimit: 10.000000;fill: none;"></path>
  <path d="M1347.403305 309.957458C1347.403305 268.296936,1330.851273 228.347717,1301.395065 198.891510C1271.938858 169.435303,1231.989639 152.883270,1190.329117 152.883270C1148.668594 152.883270,1108.719376 169.435303,1079.263168 198.891510C1049.806961 228.347717,1033.254929 268.296936,1033.254929 309.957458C1033.254929 351.617981,1049.806961 391.567200,1079.263168 421.023407C1108.719376 450.479614,1148.668594 467.031647,1190.329117 467.031647C1231.989639 467.031647,1271.938858 450.479614,1301.395065 421.023407C1330.851273 391.567200,1347.403305 351.617981,1347.403305 309.957458Z" style="stroke:rgb(25.500488%,41.000366%,88.400269%); stroke-width: 2.500000;stroke-linecap: round;stroke-linejoin: round;stroke-miterlimit: 10.000000;fill: none;"></path>
  <path d="M790.915619 1675.432327C790.915619 1633.771805,774.363586 1593.822586,744.907379 1564.366379C715.451172 1534.910172,675.501953 1518.358139,633.841431 1518.358139C592.180908 1518.358139,552.231689 1534.910172,522.775482 1564.366379C493.319275 1593.822586,476.767242 1633.771805,476.767242 1675.432327C476.767242 1717.092850,493.319275 1757.042068,522.775482 1786.498276C552.231689 1815.954483,592.180908 1832.506516,633.841431 1832.506516C675.501953 1832.506516,715.451172 1815.954483,744.907379 1786.498276C774.363586 1757.042068,790.915619 1717.092850,790.915619 1675.432327Z" style="stroke:rgb(25.500488%,41.000366%,88.400269%); stroke-width: 2.500000;stroke-linecap: round;stroke-linejoin: round;stroke-miterlimit: 10.000000;fill: none;"></path>
  <path d="M877.569183 1448.806915C877.569183 1407.146393,861.017151 1367.197174,831.560944 1337.740967C802.104736 1308.284760,762.155518 1291.732727,720.494995 1291.732727C678.834473 1291.732727,638.885254 1308.284760,609.429047 1337.740967C579.972839 1367.197174,563.420807 1407.146393,563.420807 1448.806915C563.420807 1490.467438,579.972839 1530.416656,609.429047 1559.872864C638.885254 1589.329071,678.834473 1605.881104,720.494995 1605.881104C762.155518 1605.881104,802.104736 1589.329071,831.560944 1559.872864C861.017151 1530.416656,877.569183 1490.467438,877.569183 1448.806915Z" style="stroke:rgb(25.500488%,41.000366%,88.400269%); stroke-width: 2.500000;stroke-linecap: round;stroke-linejoin: round;stroke-miterlimit: 10.000000;fill: none;"></path>
  <path d="M925.826843 1184.019165C925.826843 1142.358643,909.274811 1102.409424,879.818604 1072.953217C850.362396 1043.497009,810.413177 1026.944977,768.752655 1026.944977C727.092133 1026.944977,687.142914 1043.497009,657.686707 1072.953217C628.230499 1102.409424,611.678467 1142.358643,611.678467 1184.019165C611.678467 1225.679688,628.230499 1265.628906,657.686707 1295.085114C687.142914 1324.541321,727.092133 1341.093353,768.752655 1341.093353C810.413177 1341.093353,850.362396 1324.541321,879.818604 1295.085114C909.274811 1265.628906,925.826843 1225.679688,925.826843 1184.019165Z" style="stroke:rgb(25.500488%,41.000366%,88.400269%); stroke-width: 2.500000;stroke-linecap: round;stroke-linejoin: round;stroke-miterlimit: 10.000000;fill: none;"></path>
  <path d="M942.462036 927.497116C942.462036 885.836594,925.910004 845.887375,896.453796 816.431168C866.997589 786.974960,827.048370 770.422928,785.387848 770.422928C743.727325 770.422928,703.778107 786.974960,674.321899 816.431168C644.865692 845.887375,628.313660 885.836594,628.313660 927.497116C628.313660 969.157639,644.865692 1009.106857,674.321899 1038.563065C703.778107 1068.019272,743.727325 1084.571304,785.387848 1084.571304C827.048370 1084.571304,866.997589 1068.019272,896.453796 1038.563065C925.910004 1009.106857,942.462036 969.157639,942.462036 927.497116Z" style="stroke:rgb(25.500488%,41.000366%,88.400269%); stroke-width: 2.500000;stroke-linecap: round;stroke-linejoin: round;stroke-miterlimit: 10.000000;fill: none;"></path>
  <path d="M1023.860336 688.661301C1023.860336 647.000778,1007.308304 607.051559,977.852097 577.595352C948.395889 548.139145,908.446671 531.587112,866.786148 531.587112C825.125626 531.587112,785.176407 548.139145,755.720200 577.595352C726.263992 607.051559,709.711960 647.000778,709.711960 688.661301C709.711960 730.321823,726.263992 770.271042,755.720200 799.727249C785.176407 829.183456,825.125626 845.735489,866.786148 845.735489C908.446671 845.735489,948.395889 829.183456,977.852097 799.727249C1007.308304 770.271042,1023.860336 730.321823,1023.860336 688.661301Z" style="stroke:rgb(25.500488%,41.000366%,88.400269%); stroke-width: 2.500000;stroke-linecap: round;stroke-linejoin: round;stroke-miterlimit: 10.000000;fill: none;"></path>
  <path d="M1096.616623 428.272400C1096.616623 386.611877,1080.064590 346.662659,1050.608383 317.206451C1021.152176 287.750244,981.202957 271.198212,939.542435 271.198212C897.881912 271.198212,857.932693 287.750244,828.476486 317.206451C799.020279 346.662659,782.468246 386.611877,782.468246 428.272400C782.468246 469.932922,799.020279 509.882141,828.476486 539.338348C857.932693 568.794556,897.881912 585.346588,939.542435 585.346588C981.202957 585.346588,1021.152176 568.794556,1050.608383 539.338348C1080.064590 509.882141,1096.616623 469.932922,1096.616623 428.272400Z" style="stroke:rgb(25.500488%,41.000366%,88.400269%); stroke-width: 2.500000;stroke-linecap: round;stroke-linejoin: round;stroke-miterlimit: 10.000000;fill: none;"></path>
  <path d="M1158.317398 157.411896C1158.317398 115.751373,1141.765366 75.802155,1112.309158 46.345947C1082.852951 16.889740,1042.903732 0.337708,1001.243210 0.337708C959.582687 0.337708,919.633469 16.889740,890.177261 46.345947C860.721054 75.802155,844.169022 115.751373,844.169022 157.411896C844.169022 199.072418,860.721054 239.021637,890.177261 268.477844C919.633469 297.934052,959.582687 314.486084,1001.243210 314.486084C1042.903732 314.486084,1082.852951 297.934052,1112.309158 268.477844C1141.765366 239.021637,1158.317398 199.072418,1158.317398 157.411896Z" style="stroke:rgb(25.500488%,41.000366%,88.400269%); stroke-width: 2.500000;stroke-linecap: round;stroke-linejoin: round;stroke-miterlimit: 10.000000;fill: none;"></path>
  <path d="M607.928421 1496.688263C607.928421 1455.027740,591.376389 1415.078522,561.920181 1385.622314C532.463974 1356.166107,492.514755 1339.614075,450.854233 1339.614075C409.193710 1339.614075,369.244492 1356.166107,339.788284 1385.622314C310.332077 1415.078522,293.780045 1455.027740,293.780045 1496.688263C293.780045 1538.348785,310.332077 1578.298004,339.788284 1607.754211C369.244492 1637.210419,409.193710 1653.762451,450.854233 1653.762451C492.514755 1653.762451,532.463974 1637.210419,561.920181 1607.754211C591.376389 1578.298004,607.928421 1538.348785,607.928421 1496.688263Z" style="stroke:rgb(25.500488%,41.000366%,88.400269%); stroke-width: 2.500000;stroke-linecap: round;stroke-linejoin: round;stroke-miterlimit: 10.000000;fill: none;"></path>
  <path d="M673.729584 1250.053909C673.729584 1208.393387,657.177551 1168.444168,627.721344 1138.987961C598.265137 1109.531754,558.315918 1092.979721,516.655396 1092.979721C474.994873 1092.979721,435.045654 1109.531754,405.589447 1138.987961C376.133240 1168.444168,359.581207 1208.393387,359.581207 1250.053909C359.581207 1291.714432,376.133240 1331.663651,405.589447 1361.119858C435.045654 1390.576065,474.994873 1407.128098,516.655396 1407.128098C558.315918 1407.128098,598.265137 1390.576065,627.721344 1361.119858C657.177551 1331.663651,673.729584 1291.714432,673.729584 1250.053909Z" style="stroke:rgb(25.500488%,41.000366%,88.400269%); stroke-width: 2.500000;stroke-linecap: round;stroke-linejoin: round;stroke-miterlimit: 10.000000;fill: none;"></path>
  <path d="M692.921066 1007.130676C692.921066 965.470154,676.369034 925.520935,646.912827 896.064728C617.456619 866.608521,577.507401 850.056488,535.846878 850.056488C494.186356 850.056488,454.237137 866.608521,424.780930 896.064728C395.324722 925.520935,378.772690 965.470154,378.772690 1007.130676C378.772690 1048.791199,395.324722 1088.740417,424.780930 1118.196625C454.237137 1147.652832,494.186356 1164.204865,535.846878 1164.204865C577.507401 1164.204865,617.456619 1147.652832,646.912827 1118.196625C676.369034 1088.740417,692.921066 1048.791199,692.921066 1007.130676Z" style="stroke:rgb(25.500488%,41.000366%,88.400269%); stroke-width: 2.500000;stroke-linecap: round;stroke-linejoin: round;stroke-miterlimit: 10.000000;fill: none;"></path>
  <path d="M743.462479 735.102325C743.462479 693.441803,726.910446 653.492584,697.454239 624.036377C667.998032 594.580170,628.048813 578.028137,586.388290 578.028137C544.727768 578.028137,504.778549 594.580170,475.322342 624.036377C445.866135 653.492584,429.314102 693.441803,429.314102 735.102325C429.314102 776.762848,445.866135 816.712067,475.322342 846.168274C504.778549 875.624481,544.727768 892.176514,586.388290 892.176514C628.048813 892.176514,667.998032 875.624481,697.454239 846.168274C726.910446 816.712067,743.462479 776.762848,743.462479 735.102325Z" style="stroke:rgb(25.500488%,41.000366%,88.400269%); stroke-width: 2.500000;stroke-linecap: round;stroke-linejoin: round;stroke-miterlimit: 10.000000;fill: none;"></path>
  <path d="M830.648056 499.549438C830.648056 457.888916,814.096024 417.939697,784.639816 388.483490C755.183609 359.027283,715.234390 342.475250,673.573868 342.475250C631.913345 342.475250,591.964127 359.027283,562.507919 388.483490C533.051712 417.939697,516.499680 457.888916,516.499680 499.549438C516.499680 541.209961,533.051712 581.159180,562.507919 610.615387C591.964127 640.071594,631.913345 656.623627,673.573868 656.623627C715.234390 656.623627,755.183609 640.071594,784.639816 610.615387C814.096024 581.159180,830.648056 541.209961,830.648056 499.549438Z" style="stroke:rgb(25.500488%,41.000366%,88.400269%); stroke-width: 2.500000;stroke-linecap: round;stroke-linejoin: round;stroke-miterlimit: 10.000000;fill: none;"></path>
  <path d="M903.404358 239.147568C903.404358 197.487045,886.852325 157.537827,857.396118 128.081619C827.939911 98.625412,787.990692 82.073380,746.330170 82.073380C704.669647 82.073380,664.720428 98.625412,635.264221 128.081619C605.808014 157.537827,589.255981 197.487045,589.255981 239.147568C589.255981 280.808090,605.808014 320.757309,635.264221 350.213516C664.720428 379.669724,704.669647 396.221756,746.330170 396.221756C787.990692 396.221756,827.939911 379.669724,857.396118 350.213516C886.852325 320.757309,903.404358 280.808090,903.404358 239.147568Z" style="stroke:rgb(25.500488%,41.000366%,88.400269%); stroke-width: 2.500000;stroke-linecap: round;stroke-linejoin: round;stroke-miterlimit: 10.000000;fill: none;"></path>
  <path d="M397.782501 1321.992706C397.782501 1280.332184,381.230469 1240.382965,351.774261 1210.926758C322.318054 1181.470551,282.368835 1164.918518,240.708313 1164.918518C199.047791 1164.918518,159.098572 1181.470551,129.642365 1210.926758C100.186157 1240.382965,83.634125 1280.332184,83.634125 1321.992706C83.634125 1363.653229,100.186157 1403.602448,129.642365 1433.058655C159.098572 1462.514862,199.047791 1479.066895,240.708313 1479.066895C282.368835 1479.066895,322.318054 1462.514862,351.774261 1433.058655C381.230469 1403.602448,397.782501 1363.653229,397.782501 1321.992706Z" style="stroke:rgb(25.500488%,41.000366%,88.400269%); stroke-width: 2.500000;stroke-linecap: round;stroke-linejoin: round;stroke-miterlimit: 10.000000;fill: none;"></path>
  <path d="M429.885056 1093.018646C429.885056 1051.358124,413.333023 1011.408905,383.876816 981.952698C354.420609 952.496490,314.471390 935.944458,272.810867 935.944458C231.150345 935.944458,191.201126 952.496490,161.744919 981.952698C132.288712 1011.408905,115.736679 1051.358124,115.736679 1093.018646C115.736679 1134.679169,132.288712 1174.628387,161.744919 1204.084595C191.201126 1233.540802,231.150345 1250.092834,272.810867 1250.092834C314.471390 1250.092834,354.420609 1233.540802,383.876816 1204.084595C413.333023 1174.628387,429.885056 1134.679169,429.885056 1093.018646Z" style="stroke:rgb(25.500488%,41.000366%,88.400269%); stroke-width: 2.500000;stroke-linecap: round;stroke-linejoin: round;stroke-miterlimit: 10.000000;fill: none;"></path>
  <path d="M552.287430 822.910751C552.287430 781.250229,535.735397 741.301010,506.279190 711.844803C476.822983 682.388596,436.873764 665.836563,395.213242 665.836563C353.552719 665.836563,313.603500 682.388596,284.147293 711.844803C254.691086 741.301010,238.139053 781.250229,238.139053 822.910751C238.139053 864.571274,254.691086 904.520493,284.147293 933.976700C313.603500 963.432907,353.552719 979.984940,395.213242 979.984940C436.873764 979.984940,476.822983 963.432907,506.279190 933.976700C535.735397 904.520493,552.287430 864.571274,552.287430 822.910751Z" style="stroke:rgb(25.500488%,41.000366%,88.400269%); stroke-width: 2.500000;stroke-linecap: round;stroke-linejoin: round;stroke-miterlimit: 10.000000;fill: none;"></path>
  <path d="M554.298706 522.465012C554.298706 480.804489,537.746674 440.855270,508.290466 411.399063C478.834259 381.942856,438.885040 365.390823,397.224518 365.390823C355.563995 365.390823,315.614777 381.942856,286.158569 411.399063C256.702362 440.855270,240.150330 480.804489,240.150330 522.465012C240.150330 564.125534,256.702362 604.074753,286.158569 633.530960C315.614777 662.987167,355.563995 679.539200,397.224518 679.539200C438.885040 679.539200,478.834259 662.987167,508.290466 633.530960C537.746674 604.074753,554.298706 564.125534,554.298706 522.465012Z" style="stroke:rgb(25.500488%,41.000366%,88.400269%); stroke-width: 2.500000;stroke-linecap: round;stroke-linejoin: round;stroke-miterlimit: 10.000000;fill: none;"></path>
  <path d="M641.782745 295.826630C641.782745 254.166107,625.230713 214.216888,595.774506 184.760681C566.318298 155.304474,526.369080 138.752441,484.708557 138.752441C443.048035 138.752441,403.098816 155.304474,373.642609 184.760681C344.186401 214.216888,327.634369 254.166107,327.634369 295.826630C327.634369 337.487152,344.186401 377.436371,373.642609 406.892578C403.098816 436.348785,443.048035 452.900818,484.708557 452.900818C526.369080 452.900818,566.318298 436.348785,595.774506 406.892578C625.230713 377.436371,641.782745 337.487152,641.782745 295.826630Z" style="stroke:rgb(25.500488%,41.000366%,88.400269%); stroke-width: 2.500000;stroke-linecap: round;stroke-linejoin: round;stroke-miterlimit: 10.000000;fill: none;"></path>
  <path d="M314.619476 915.364578C314.619476 873.704056,298.067444 833.754837,268.611237 804.298630C239.155029 774.842422,199.205811 758.290390,157.545288 758.290390C115.884766 758.290390,75.935547 774.842422,46.479340 804.298630C17.023132 833.754837,0.471100 873.704056,0.471100 915.364578C0.471100 957.025101,17.023132 996.974319,46.479340 1026.430527C75.935547 1055.886734,115.884766 1072.438766,157.545288 1072.438766C199.205811 1072.438766,239.155029 1055.886734,268.611237 1026.430527C298.067444 996.974319,314.619476 957.025101,314.619476 915.364578Z" style="stroke:rgb(25.500488%,41.000366%,88.400269%); stroke-width: 2.500000;stroke-linecap: round;stroke-linejoin: round;stroke-miterlimit: 10.000000;fill: none;"></path>
  <path d="M378.409363 628.089447C378.409363 586.428925,361.857330 546.479706,332.401123 517.023499C302.944916 487.567291,262.995697 471.015259,221.335175 471.015259C179.674652 471.015259,139.725433 487.567291,110.269226 517.023499C80.813019 546.479706,64.260986 586.428925,64.260986 628.089447C64.260986 669.749969,80.813019 709.699188,110.269226 739.155396C139.725433 768.611603,179.674652 785.163635,221.335175 785.163635C262.995697 785.163635,302.944916 768.611603,332.401123 739.155396C361.857330 709.699188,378.409363 669.749969,378.409363 628.089447Z" style="stroke:rgb(25.500488%,41.000366%,88.400269%); stroke-width: 2.500000;stroke-linecap: round;stroke-linejoin: round;stroke-miterlimit: 10.000000;fill: none;"></path>
</svg>
