<?xml version="1.0"?>
<!-- Created by MetaPost 2.00 on 2022.03.02:1201 -->
<svg version="1.1" xmlns="http://www.w3.org/2000/svg" xmlns:xlink="http://www.w3.org/1999/xlink" width="1811.402878" height="1781.895508" viewBox="0 0 1811.402878 1781.895508">
<!-- Original BoundingBox: -892.102615 -896.890747 919.300262 885.004761 -->
  <path d="M1742.393524 885.000000L1579.986221 385.152451L1154.789459 76.233398L629.210541 76.233398L204.013779 385.152451L41.606476 885.000000L204.013779 1384.847549L629.210541 1693.766602L1154.789459 1693.766602L1579.986221 1384.847549L1742.393524 885.000000Z" style="fill: rgb(100.000000%,100.000000%,100.000000%);stroke: none;"></path>
  <path d="M1742.393524 885.000000L1579.986221 385.152451" style="stroke:rgb(0.000000%,0.000000%,0.000000%); stroke-width: 2.500000;stroke-linecap: round;stroke-linejoin: round;stroke-miterlimit: 10.000000;fill: none;"></path>
  <path d="M1579.986221 385.152451L1154.789459 76.233398" style="stroke:rgb(0.000000%,0.000000%,0.000000%); stroke-width: 2.500000;stroke-linecap: round;stroke-linejoin: round;stroke-miterlimit: 10.000000;fill: none;"></path>
  <path d="M1154.789459 76.233398L629.210541 76.233398" style="stroke:rgb(0.000000%,0.000000%,0.000000%); stroke-width: 2.500000;stroke-linecap: round;stroke-linejoin: round;stroke-miterlimit: 10.000000;fill: none;"></path>
  <path d="M629.210541 76.233398L204.013779 385.152451" style="stroke:rgb(0.000000%,0.000000%,0.000000%); stroke-width: 2.500000;stroke-linecap: round;stroke-linejoin: round;stroke-miterlimit: 10.000000;fill: none;"></path>
  <path d="M204.013779 385.152451L41.606476 885.000000" style="stroke:rgb(0.000000%,0.000000%,0.000000%); stroke-width: 2.500000;stroke-linecap: round;stroke-linejoin: round;stroke-miterlimit: 10.000000;fill: none;"></path>
  <path d="M41.606476 885.000000L204.013779 1384.847549" style="stroke:rgb(0.000000%,0.000000%,0.000000%); stroke-width: 2.500000;stroke-linecap: round;stroke-linejoin: round;stroke-miterlimit: 10.000000;fill: none;"></path>
  <path d="M204.013779 1384.847549L629.210541 1693.766602" style="stroke:rgb(0.000000%,0.000000%,0.000000%); stroke-width: 2.500000;stroke-linecap: round;stroke-linejoin: round;stroke-miterlimit: 10.000000;fill: none;"></path>
  <path d="M629.210541 1693.766602L1154.789459 1693.766602" style="stroke:rgb(0.000000%,0.000000%,0.000000%); stroke-width: 2.500000;stroke-linecap: round;stroke-linejoin: round;stroke-miterlimit: 10.000000;fill: none;"></path>
  <path d="M1154.789459 1693.766602L1579.986221 1384.847549" style="stroke:rgb(0.000000%,0.000000%,0.000000%); stroke-width: 2.500000;stroke-linecap: round;stroke-linejoin: round;stroke-miterlimit: 10.000000;fill: none;"></path>
  <path d="M1579.986221 1384.847549L1742.393524 885.000000" style="stroke:rgb(0.000000%,0.000000%,0.000000%); stroke-width: 2.500000;stroke-linecap: round;stroke-linejoin: round;stroke-miterlimit: 10.000000;fill: none;"></path>
  <path d="M454.268448 1469.931015C454.268448 1443.344696,443.705505 1417.850449,424.907547 1399.052505C406.109604 1380.254547,380.615356 1369.691605,354.029037 1369.691605C327.442719 1369.691605,301.948471 1380.254547,283.150528 1399.052505C264.352570 1417.850449,253.789627 1443.344696,253.789627 1469.931015C253.789627 1496.517334,264.352570 1522.011581,283.150528 1540.809525C301.948471 1559.607483,327.442719 1570.170425,354.029037 1570.170425C380.615356 1570.170425,406.109604 1559.607483,424.907547 1540.809525C443.705505 1522.011581,454.268448 1496.517334,454.268448 1469.931015Z" style="stroke:rgb(25.500488%,41.000366%,88.400269%); stroke-width: 2.500000;stroke-linecap: round;stroke-linejoin: round;stroke-miterlimit: 10.000000;fill: none;"></path>
  <path d="M622.696609 1542.401840C622.696609 1515.815521,612.133667 1490.321274,593.335709 1471.523331C574.537766 1452.725372,549.043518 1442.162430,522.457199 1442.162430C495.870880 1442.162430,470.376633 1452.725372,451.578690 1471.523331C432.780731 1490.321274,422.217789 1515.815521,422.217789 1542.401840C422.217789 1568.988159,432.780731 1594.482407,451.578690 1613.280350C470.376633 1632.078308,495.870880 1642.641251,522.457199 1642.641251C549.043518 1642.641251,574.537766 1632.078308,593.335709 1613.280350C612.133667 1594.482407,622.696609 1568.988159,622.696609 1542.401840Z" style="stroke:rgb(25.500488%,41.000366%,88.400269%); stroke-width: 2.500000;stroke-linecap: round;stroke-linejoin: round;stroke-miterlimit: 10.000000;fill: none;"></path>
  <path d="M749.926041 1613.510193C749.926041 1586.923874,739.363098 1561.429626,720.565140 1542.631683C701.767197 1523.833725,676.272949 1513.270782,649.686630 1513.270782C623.100311 1513.270782,597.606064 1523.833725,578.808121 1542.631683C560.010162 1561.429626,549.447220 1586.923874,549.447220 1613.510193C549.447220 1640.096512,560.010162 1665.590759,578.808121 1684.388702C597.606064 1703.186661,623.100311 1713.749603,649.686630 1713.749603C676.272949 1713.749603,701.767197 1703.186661,720.565140 1684.388702C739.363098 1665.590759,749.926041 1640.096512,749.926041 1613.510193Z" style="stroke:rgb(25.500488%,41.000366%,88.400269%); stroke-width: 2.500000;stroke-linecap: round;stroke-linejoin: round;stroke-miterlimit: 10.000000;fill: none;"></path>
  <path d="M909.309952 1680.401337C909.309952 1653.815018,898.747009 1628.320770,879.949051 1609.522827C861.151108 1590.724869,835.656860 1580.161926,809.070541 1580.161926C782.484222 1580.161926,756.989975 1590.724869,738.192032 1609.522827C719.394073 1628.320770,708.831131 1653.815018,708.831131 1680.401337C708.831131 1706.987656,719.394073 1732.481903,738.192032 1751.279846C756.989975 1770.077805,782.484222 1780.640747,809.070541 1780.640747C835.656860 1780.640747,861.151108 1770.077805,879.949051 1751.279846C898.747009 1732.481903,909.309952 1706.987656,909.309952 1680.401337Z" style="stroke:rgb(25.500488%,41.000366%,88.400269%); stroke-width: 2.500000;stroke-linecap: round;stroke-linejoin: round;stroke-miterlimit: 10.000000;fill: none;"></path>
  <path d="M279.092773 1236.869522C279.092773 1210.283203,268.529831 1184.788956,249.731873 1165.991013C230.933929 1147.193054,205.439682 1136.630112,178.853363 1136.630112C152.267044 1136.630112,126.772797 1147.193054,107.974854 1165.991013C89.176895 1184.788956,78.613953 1210.283203,78.613953 1236.869522C78.613953 1263.455841,89.176895 1288.950089,107.974854 1307.748032C126.772797 1326.545990,152.267044 1337.108932,178.853363 1337.108932C205.439682 1337.108932,230.933929 1326.545990,249.731873 1307.748032C268.529831 1288.950089,279.092773 1263.455841,279.092773 1236.869522Z" style="stroke:rgb(25.500488%,41.000366%,88.400269%); stroke-width: 2.500000;stroke-linecap: round;stroke-linejoin: round;stroke-miterlimit: 10.000000;fill: none;"></path>
  <path d="M388.661911 1330.789642C388.661911 1304.203323,378.098969 1278.709076,359.301010 1259.911133C340.503067 1241.113174,315.008820 1230.550232,288.422501 1230.550232C261.836182 1230.550232,236.341934 1241.113174,217.543991 1259.911133C198.746033 1278.709076,188.183090 1304.203323,188.183090 1330.789642C188.183090 1357.375961,198.746033 1382.870209,217.543991 1401.668152C236.341934 1420.466110,261.836182 1431.029053,288.422501 1431.029053C315.008820 1431.029053,340.503067 1420.466110,359.301010 1401.668152C378.098969 1382.870209,388.661911 1357.375961,388.661911 1330.789642Z" style="stroke:rgb(25.500488%,41.000366%,88.400269%); stroke-width: 2.500000;stroke-linecap: round;stroke-linejoin: round;stroke-miterlimit: 10.000000;fill: none;"></path>
  <path d="M572.142212 1370.262558C572.142212 1343.676239,561.579269 1318.181992,542.781311 1299.384048C523.983368 1280.586090,498.489120 1270.023148,471.902802 1270.023148C445.316483 1270.023148,419.822235 1280.586090,401.024292 1299.384048C382.226334 1318.181992,371.663391 1343.676239,371.663391 1370.262558C371.663391 1396.848877,382.226334 1422.343124,401.024292 1441.141068C419.822235 1459.939026,445.316483 1470.501968,471.902802 1470.501968C498.489120 1470.501968,523.983368 1459.939026,542.781311 1441.141068C561.579269 1422.343124,572.142212 1396.848877,572.142212 1370.262558Z" style="stroke:rgb(25.500488%,41.000366%,88.400269%); stroke-width: 2.500000;stroke-linecap: round;stroke-linejoin: round;stroke-miterlimit: 10.000000;fill: none;"></path>
  <path d="M740.557388 1445.990341C740.557388 1419.404022,729.994446 1393.909775,711.196487 1375.111832C692.398544 1356.313873,666.904297 1345.750931,640.317978 1345.750931C613.731659 1345.750931,588.237411 1356.313873,569.439468 1375.111832C550.641510 1393.909775,540.078568 1419.404022,540.078568 1445.990341C540.078568 1472.576660,550.641510 1498.070908,569.439468 1516.868851C588.237411 1535.666809,613.731659 1546.229752,640.317978 1546.229752C666.904297 1546.229752,692.398544 1535.666809,711.196487 1516.868851C729.994446 1498.070908,740.557388 1472.576660,740.557388 1445.990341Z" style="stroke:rgb(25.500488%,41.000366%,88.400269%); stroke-width: 2.500000;stroke-linecap: round;stroke-linejoin: round;stroke-miterlimit: 10.000000;fill: none;"></path>
  <path d="M899.993195 1519.343536C899.993195 1492.757217,889.430252 1467.262970,870.632294 1448.465027C851.834351 1429.667068,826.340103 1419.104126,799.753784 1419.104126C773.167465 1419.104126,747.673218 1429.667068,728.875275 1448.465027C710.077316 1467.262970,699.514374 1492.757217,699.514374 1519.343536C699.514374 1545.929855,710.077316 1571.424103,728.875275 1590.222046C747.673218 1609.020004,773.167465 1619.582947,799.753784 1619.582947C826.340103 1619.582947,851.834351 1609.020004,870.632294 1590.222046C889.430252 1571.424103,899.993195 1545.929855,899.993195 1519.343536Z" style="stroke:rgb(25.500488%,41.000366%,88.400269%); stroke-width: 2.500000;stroke-linecap: round;stroke-linejoin: round;stroke-miterlimit: 10.000000;fill: none;"></path>
  <path d="M1063.399658 1609.799057C1063.399658 1583.212738,1052.836716 1557.718491,1034.038757 1538.920547C1015.240814 1520.122589,989.746567 1509.559647,963.160248 1509.559647C936.573929 1509.559647,911.079681 1520.122589,892.281738 1538.920547C873.483780 1557.718491,862.920837 1583.212738,862.920837 1609.799057C862.920837 1636.385376,873.483780 1661.879623,892.281738 1680.677567C911.079681 1699.475525,936.573929 1710.038467,963.160248 1710.038467C989.746567 1710.038467,1015.240814 1699.475525,1034.038757 1680.677567C1052.836716 1661.879623,1063.399658 1636.385376,1063.399658 1609.799057Z" style="stroke:rgb(25.500488%,41.000366%,88.400269%); stroke-width: 2.500000;stroke-linecap: round;stroke-linejoin: round;stroke-miterlimit: 10.000000;fill: none;"></path>
  <path d="M1214.504898 1666.114792C1214.504898 1639.528473,1203.941956 1614.034225,1185.143997 1595.236282C1166.346054 1576.438324,1140.851807 1565.875381,1114.265488 1565.875381C1087.679169 1565.875381,1062.184921 1576.438324,1043.386978 1595.236282C1024.589020 1614.034225,1014.026077 1639.528473,1014.026077 1666.114792C1014.026077 1692.701111,1024.589020 1718.195358,1043.386978 1736.993301C1062.184921 1755.791260,1087.679169 1766.354202,1114.265488 1766.354202C1140.851807 1766.354202,1166.346054 1755.791260,1185.143997 1736.993301C1203.941956 1718.195358,1214.504898 1692.701111,1214.504898 1666.114792Z" style="stroke:rgb(25.500488%,41.000366%,88.400269%); stroke-width: 2.500000;stroke-linecap: round;stroke-linejoin: round;stroke-miterlimit: 10.000000;fill: none;"></path>
  <path d="M257.915985 1054.855515C257.915985 1028.269196,247.353043 1002.774948,228.555084 983.977005C209.757141 965.179047,184.262894 954.616104,157.676575 954.616104C131.090256 954.616104,105.596008 965.179047,86.798065 983.977005C68.000107 1002.774948,57.437164 1028.269196,57.437164 1054.855515C57.437164 1081.441833,68.000107 1106.936081,86.798065 1125.734024C105.596008 1144.531982,131.090256 1155.094925,157.676575 1155.094925C184.262894 1155.094925,209.757141 1144.531982,228.555084 1125.734024C247.353043 1106.936081,257.915985 1081.441833,257.915985 1054.855515Z" style="stroke:rgb(25.500488%,41.000366%,88.400269%); stroke-width: 2.500000;stroke-linecap: round;stroke-linejoin: round;stroke-miterlimit: 10.000000;fill: none;"></path>
  <path d="M408.891464 1147.880280C408.891464 1121.293961,398.328522 1095.799713,379.530563 1077.001770C360.732620 1058.203812,335.238373 1047.640869,308.652054 1047.640869C282.065735 1047.640869,256.571487 1058.203812,237.773544 1077.001770C218.975586 1095.799713,208.412643 1121.293961,208.412643 1147.880280C208.412643 1174.466599,218.975586 1199.960846,237.773544 1218.758789C256.571487 1237.556747,282.065735 1248.119690,308.652054 1248.119690C335.238373 1248.119690,360.732620 1237.556747,379.530563 1218.758789C398.328522 1199.960846,408.891464 1174.466599,408.891464 1147.880280Z" style="stroke:rgb(25.500488%,41.000366%,88.400269%); stroke-width: 2.500000;stroke-linecap: round;stroke-linejoin: round;stroke-miterlimit: 10.000000;fill: none;"></path>
  <path d="M537.470398 1228.980133C537.470398 1202.393814,526.907455 1176.899567,508.109497 1158.101624C489.311554 1139.303665,463.817307 1128.740723,437.230988 1128.740723C410.644669 1128.740723,385.150421 1139.303665,366.352478 1158.101624C347.554520 1176.899567,336.991577 1202.393814,336.991577 1228.980133C336.991577 1255.566452,347.554520 1281.060699,366.352478 1299.858643C385.150421 1318.656601,410.644669 1329.219543,437.230988 1329.219543C463.817307 1329.219543,489.311554 1318.656601,508.109497 1299.858643C526.907455 1281.060699,537.470398 1255.566452,537.470398 1228.980133Z" style="stroke:rgb(25.500488%,41.000366%,88.400269%); stroke-width: 2.500000;stroke-linecap: round;stroke-linejoin: round;stroke-miterlimit: 10.000000;fill: none;"></path>
  <path d="M712.684998 1280.767242C712.684998 1254.180923,702.122055 1228.686676,683.324097 1209.888733C664.526154 1191.090775,639.031906 1180.527832,612.445587 1180.527832C585.859268 1180.527832,560.365021 1191.090775,541.567078 1209.888733C522.769119 1228.686676,512.206177 1254.180923,512.206177 1280.767242C512.206177 1307.353561,522.769119 1332.847809,541.567078 1351.645752C560.365021 1370.443710,585.859268 1381.006653,612.445587 1381.006653C639.031906 1381.006653,664.526154 1370.443710,683.324097 1351.645752C702.122055 1332.847809,712.684998 1307.353561,712.684998 1280.767242Z" style="stroke:rgb(25.500488%,41.000366%,88.400269%); stroke-width: 2.500000;stroke-linecap: round;stroke-linejoin: round;stroke-miterlimit: 10.000000;fill: none;"></path>
  <path d="M880.853638 1346.892822C880.853638 1320.306503,870.290695 1294.812256,851.492737 1276.014313C832.694794 1257.216354,807.200546 1246.653412,780.614227 1246.653412C754.027908 1246.653412,728.533661 1257.216354,709.735718 1276.014313C690.937759 1294.812256,680.374817 1320.306503,680.374817 1346.892822C680.374817 1373.479141,690.937759 1398.973389,709.735718 1417.771332C728.533661 1436.569290,754.027908 1447.132233,780.614227 1447.132233C807.200546 1447.132233,832.694794 1436.569290,851.492737 1417.771332C870.290695 1398.973389,880.853638 1373.479141,880.853638 1346.892822Z" style="stroke:rgb(25.500488%,41.000366%,88.400269%); stroke-width: 2.500000;stroke-linecap: round;stroke-linejoin: round;stroke-miterlimit: 10.000000;fill: none;"></path>
  <path d="M1035.306671 1439.126053C1035.306671 1412.539734,1024.743729 1387.045486,1005.945770 1368.247543C987.147827 1349.449585,961.653580 1338.886642,935.067261 1338.886642C908.480942 1338.886642,882.986694 1349.449585,864.188751 1368.247543C845.390793 1387.045486,834.827850 1412.539734,834.827850 1439.126053C834.827850 1465.712372,845.390793 1491.206619,864.188751 1510.004562C882.986694 1528.802521,908.480942 1539.365463,935.067261 1539.365463C961.653580 1539.365463,987.147827 1528.802521,1005.945770 1510.004562C1024.743729 1491.206619,1035.306671 1465.712372,1035.306671 1439.126053Z" style="stroke:rgb(25.500488%,41.000366%,88.400269%); stroke-width: 2.500000;stroke-linecap: round;stroke-linejoin: round;stroke-miterlimit: 10.000000;fill: none;"></path>
  <path d="M1196.338531 1490.887222C1196.338531 1464.300903,1185.775589 1438.806656,1166.977631 1420.008713C1148.179688 1401.210754,1122.685440 1390.647812,1096.099121 1390.647812C1069.512802 1390.647812,1044.018555 1401.210754,1025.220612 1420.008713C1006.422653 1438.806656,995.859711 1464.300903,995.859711 1490.887222C995.859711 1517.473541,1006.422653 1542.967789,1025.220612 1561.765732C1044.018555 1580.563690,1069.512802 1591.126633,1096.099121 1591.126633C1122.685440 1591.126633,1148.179688 1580.563690,1166.977631 1561.765732C1185.775589 1542.967789,1196.338531 1517.473541,1196.338531 1490.887222Z" style="stroke:rgb(25.500488%,41.000366%,88.400269%); stroke-width: 2.500000;stroke-linecap: round;stroke-linejoin: round;stroke-miterlimit: 10.000000;fill: none;"></path>
  <path d="M1352.128082 1558.634781C1352.128082 1532.048462,1341.565140 1506.554214,1322.767181 1487.756271C1303.969238 1468.958313,1278.474991 1458.395370,1251.888672 1458.395370C1225.302353 1458.395370,1199.808105 1468.958313,1181.010162 1487.756271C1162.212204 1506.554214,1151.649261 1532.048462,1151.649261 1558.634781C1151.649261 1585.221100,1162.212204 1610.715347,1181.010162 1629.513290C1199.808105 1648.311249,1225.302353 1658.874191,1251.888672 1658.874191C1278.474991 1658.874191,1303.969238 1648.311249,1322.767181 1629.513290C1341.565140 1610.715347,1352.128082 1585.221100,1352.128082 1558.634781Z" style="stroke:rgb(25.500488%,41.000366%,88.400269%); stroke-width: 2.500000;stroke-linecap: round;stroke-linejoin: round;stroke-miterlimit: 10.000000;fill: none;"></path>
  <path d="M226.540085 907.461411C226.540085 880.875092,215.977142 855.380844,197.179184 836.582901C178.381241 817.784943,152.886993 807.222000,126.300674 807.222000C99.714355 807.222000,74.220108 817.784943,55.422165 836.582901C36.624207 855.380844,26.061264 880.875092,26.061264 907.461411C26.061264 934.047729,36.624207 959.541977,55.422165 978.339920C74.220108 997.137878,99.714355 1007.700821,126.300674 1007.700821C152.886993 1007.700821,178.381241 997.137878,197.179184 978.339920C215.977142 959.541977,226.540085 934.047729,226.540085 907.461411Z" style="stroke:rgb(25.500488%,41.000366%,88.400269%); stroke-width: 2.500000;stroke-linecap: round;stroke-linejoin: round;stroke-miterlimit: 10.000000;fill: none;"></path>
  <path d="M389.699997 966.502106C389.699997 939.915787,379.137054 914.421539,360.339096 895.623596C341.541153 876.825638,316.046906 866.262695,289.460587 866.262695C262.874268 866.262695,237.380020 876.825638,218.582077 895.623596C199.784119 914.421539,189.221176 939.915787,189.221176 966.502106C189.221176 993.088425,199.784119 1018.582672,218.582077 1037.380615C237.380020 1056.178574,262.874268 1066.741516,289.460587 1066.741516C316.046906 1066.741516,341.541153 1056.178574,360.339096 1037.380615C379.137054 1018.582672,389.699997 993.088425,389.699997 966.502106Z" style="stroke:rgb(25.500488%,41.000366%,88.400269%); stroke-width: 2.500000;stroke-linecap: round;stroke-linejoin: round;stroke-miterlimit: 10.000000;fill: none;"></path>
  <path d="M540.779282 1048.095032C540.779282 1021.508713,530.216339 996.014465,511.418381 977.216522C492.620438 958.418564,467.126190 947.855621,440.539871 947.855621C413.953552 947.855621,388.459305 958.418564,369.661362 977.216522C350.863403 996.014465,340.300461 1021.508713,340.300461 1048.095032C340.300461 1074.681351,350.863403 1100.175598,369.661362 1118.973541C388.459305 1137.771500,413.953552 1148.334442,440.539871 1148.334442C467.126190 1148.334442,492.620438 1137.771500,511.418381 1118.973541C530.216339 1100.175598,540.779282 1074.681351,540.779282 1048.095032Z" style="stroke:rgb(25.500488%,41.000366%,88.400269%); stroke-width: 2.500000;stroke-linecap: round;stroke-linejoin: round;stroke-miterlimit: 10.000000;fill: none;"></path>
  <path d="M681.620514 1125.665421C681.620514 1099.079102,671.057571 1073.584854,652.259613 1054.786911C633.461670 1035.988953,607.967422 1025.426010,581.381104 1025.426010C554.794785 1025.426010,529.300537 1035.988953,510.502594 1054.786911C491.704636 1073.584854,481.141693 1099.079102,481.141693 1125.665421C481.141693 1152.251740,491.704636 1177.745987,510.502594 1196.543930C529.300537 1215.341888,554.794785 1225.904831,581.381104 1225.904831C607.967422 1225.904831,633.461670 1215.341888,652.259613 1196.543930C671.057571 1177.745987,681.620514 1152.251740,681.620514 1125.665421Z" style="stroke:rgb(25.500488%,41.000366%,88.400269%); stroke-width: 2.500000;stroke-linecap: round;stroke-linejoin: round;stroke-miterlimit: 10.000000;fill: none;"></path>
  <path d="M854.200989 1182.201736C854.200989 1155.615417,843.638046 1130.121170,824.840088 1111.323227C806.042145 1092.525269,780.547897 1081.962326,753.961578 1081.962326C727.375259 1081.962326,701.881012 1092.525269,683.083069 1111.323227C664.285110 1130.121170,653.722168 1155.615417,653.722168 1182.201736C653.722168 1208.788055,664.285110 1234.282303,683.083069 1253.080246C701.881012 1271.878204,727.375259 1282.441147,753.961578 1282.441147C780.547897 1282.441147,806.042145 1271.878204,824.840088 1253.080246C843.638046 1234.282303,854.200989 1208.788055,854.200989 1182.201736Z" style="stroke:rgb(25.500488%,41.000366%,88.400269%); stroke-width: 2.500000;stroke-linecap: round;stroke-linejoin: round;stroke-miterlimit: 10.000000;fill: none;"></path>
  <path d="M1017.620422 1261.809357C1017.620422 1235.223038,1007.057480 1209.728790,988.259521 1190.930847C969.461578 1172.132889,943.967331 1161.569946,917.381012 1161.569946C890.794693 1161.569946,865.300446 1172.132889,846.502502 1190.930847C827.704544 1209.728790,817.141602 1235.223038,817.141602 1261.809357C817.141602 1288.395676,827.704544 1313.889923,846.502502 1332.687866C865.300446 1351.485825,890.794693 1362.048767,917.381012 1362.048767C943.967331 1362.048767,969.461578 1351.485825,988.259521 1332.687866C1007.057480 1313.889923,1017.620422 1288.395676,1017.620422 1261.809357Z" style="stroke:rgb(25.500488%,41.000366%,88.400269%); stroke-width: 2.500000;stroke-linecap: round;stroke-linejoin: round;stroke-miterlimit: 10.000000;fill: none;"></path>
  <path d="M1169.166840 1320.655396C1169.166840 1294.069077,1158.603897 1268.574829,1139.805939 1249.776886C1121.007996 1230.978928,1095.513748 1220.415985,1068.927429 1220.415985C1042.341110 1220.415985,1016.846863 1230.978928,998.048920 1249.776886C979.250961 1268.574829,968.688019 1294.069077,968.688019 1320.655396C968.688019 1347.241714,979.250961 1372.735962,998.048920 1391.533905C1016.846863 1410.331863,1042.341110 1420.894806,1068.927429 1420.894806C1095.513748 1420.894806,1121.007996 1410.331863,1139.805939 1391.533905C1158.603897 1372.735962,1169.166840 1347.241714,1169.166840 1320.655396Z" style="stroke:rgb(25.500488%,41.000366%,88.400269%); stroke-width: 2.500000;stroke-linecap: round;stroke-linejoin: round;stroke-miterlimit: 10.000000;fill: none;"></path>
  <path d="M1332.391632 1382.758423C1332.391632 1356.172104,1321.828690 1330.677856,1303.030731 1311.879913C1284.232788 1293.081955,1258.738541 1282.519012,1232.152222 1282.519012C1205.565903 1282.519012,1180.071655 1293.081955,1161.273712 1311.879913C1142.475754 1330.677856,1131.912811 1356.172104,1131.912811 1382.758423C1131.912811 1409.344742,1142.475754 1434.838989,1161.273712 1453.636932C1180.071655 1472.434891,1205.565903 1482.997833,1232.152222 1482.997833C1258.738541 1482.997833,1284.232788 1472.434891,1303.030731 1453.636932C1321.828690 1434.838989,1332.391632 1409.344742,1332.391632 1382.758423Z" style="stroke:rgb(25.500488%,41.000366%,88.400269%); stroke-width: 2.500000;stroke-linecap: round;stroke-linejoin: round;stroke-miterlimit: 10.000000;fill: none;"></path>
  <path d="M1488.959747 1457.435150C1488.959747 1430.848831,1478.396805 1405.354584,1459.598846 1386.556641C1440.800903 1367.758682,1415.306656 1357.195740,1388.720337 1357.195740C1362.134018 1357.195740,1336.639771 1367.758682,1317.841827 1386.556641C1299.043869 1405.354584,1288.480927 1430.848831,1288.480927 1457.435150C1288.480927 1484.021469,1299.043869 1509.515717,1317.841827 1528.313660C1336.639771 1547.111618,1362.134018 1557.674561,1388.720337 1557.674561C1415.306656 1557.674561,1440.800903 1547.111618,1459.598846 1528.313660C1478.396805 1509.515717,1488.959747 1484.021469,1488.959747 1457.435150Z" style="stroke:rgb(25.500488%,41.000366%,88.400269%); stroke-width: 2.500000;stroke-linecap: round;stroke-linejoin: round;stroke-miterlimit: 10.000000;fill: none;"></path>
  <path d="M201.626205 743.419128C201.626205 716.832809,191.063263 691.338562,172.265305 672.540619C153.467361 653.742661,127.973114 643.179718,101.386795 643.179718C74.800476 643.179718,49.306229 653.742661,30.508286 672.540619C11.710327 691.338562,1.147385 716.832809,1.147385 743.419128C1.147385 770.005447,11.710327 795.499695,30.508286 814.297638C49.306229 833.095596,74.800476 843.658539,101.386795 843.658539C127.973114 843.658539,153.467361 833.095596,172.265305 814.297638C191.063263 795.499695,201.626205 770.005447,201.626205 743.419128Z" style="stroke:rgb(25.500488%,41.000366%,88.400269%); stroke-width: 2.500000;stroke-linecap: round;stroke-linejoin: round;stroke-miterlimit: 10.000000;fill: none;"></path>
  <path d="M363.501495 797.126694C363.501495 770.540375,352.938553 745.046127,334.140594 726.248184C315.342651 707.450226,289.848404 696.887283,263.262085 696.887283C236.675766 696.887283,211.181519 707.450226,192.383575 726.248184C173.585617 745.046127,163.022675 770.540375,163.022675 797.126694C163.022675 823.713013,173.585617 849.207260,192.383575 868.005203C211.181519 886.803162,236.675766 897.366104,263.262085 897.366104C289.848404 897.366104,315.342651 886.803162,334.140594 868.005203C352.938553 849.207260,363.501495 823.713013,363.501495 797.126694Z" style="stroke:rgb(25.500488%,41.000366%,88.400269%); stroke-width: 2.500000;stroke-linecap: round;stroke-linejoin: round;stroke-miterlimit: 10.000000;fill: none;"></path>
  <path d="M528.114716 869.143356C528.114716 842.557037,517.551773 817.062790,498.753815 798.264847C479.955872 779.466888,454.461624 768.903946,427.875305 768.903946C401.288986 768.903946,375.794739 779.466888,356.996796 798.264847C338.198837 817.062790,327.635895 842.557037,327.635895 869.143356C327.635895 895.729675,338.198837 921.223923,356.996796 940.021866C375.794739 958.819824,401.288986 969.382767,427.875305 969.382767C454.461624 969.382767,479.955872 958.819824,498.753815 940.021866C517.551773 921.223923,528.114716 895.729675,528.114716 869.143356Z" style="stroke:rgb(25.500488%,41.000366%,88.400269%); stroke-width: 2.500000;stroke-linecap: round;stroke-linejoin: round;stroke-miterlimit: 10.000000;fill: none;"></path>
  <path d="M678.843658 945.779465C678.843658 919.193146,668.280716 893.698898,649.482758 874.900955C630.684814 856.102997,605.190567 845.540054,578.604248 845.540054C552.017929 845.540054,526.523682 856.102997,507.725739 874.900955C488.927780 893.698898,478.364838 919.193146,478.364838 945.779465C478.364838 972.365784,488.927780 997.860031,507.725739 1016.657974C526.523682 1035.455933,552.017929 1046.018875,578.604248 1046.018875C605.190567 1046.018875,630.684814 1035.455933,649.482758 1016.657974C668.280716 997.860031,678.843658 972.365784,678.843658 945.779465Z" style="stroke:rgb(25.500488%,41.000366%,88.400269%); stroke-width: 2.500000;stroke-linecap: round;stroke-linejoin: round;stroke-miterlimit: 10.000000;fill: none;"></path>
  <path d="M823.979935 1022.973541C823.979935 996.387222,813.416992 970.892975,794.619034 952.095032C775.821091 933.297073,750.326843 922.734131,723.740524 922.734131C697.154205 922.734131,671.659958 933.297073,652.862015 952.095032C634.064056 970.892975,623.501114 996.387222,623.501114 1022.973541C623.501114 1049.559860,634.064056 1075.054108,652.862015 1093.852051C671.659958 1112.650009,697.154205 1123.212952,723.740524 1123.212952C750.326843 1123.212952,775.821091 1112.650009,794.619034 1093.852051C813.416992 1075.054108,823.979935 1049.559860,823.979935 1022.973541Z" style="stroke:rgb(25.500488%,41.000366%,88.400269%); stroke-width: 2.500000;stroke-linecap: round;stroke-linejoin: round;stroke-miterlimit: 10.000000;fill: none;"></path>
  <path d="M990.124329 1090.344818C990.124329 1063.758499,979.561386 1038.264252,960.763428 1019.466309C941.965485 1000.668350,916.471237 990.105408,889.884918 990.105408C863.298599 990.105408,837.804352 1000.668350,819.006409 1019.466309C800.208450 1038.264252,789.645508 1063.758499,789.645508 1090.344818C789.645508 1116.931137,800.208450 1142.425385,819.006409 1161.223328C837.804352 1180.021286,863.298599 1190.584229,889.884918 1190.584229C916.471237 1190.584229,941.965485 1180.021286,960.763428 1161.223328C979.561386 1142.425385,990.124329 1116.931137,990.124329 1090.344818Z" style="stroke:rgb(25.500488%,41.000366%,88.400269%); stroke-width: 2.500000;stroke-linecap: round;stroke-linejoin: round;stroke-miterlimit: 10.000000;fill: none;"></path>
  <path d="M1150.325714 1142.884537C1150.325714 1116.298218,1139.762772 1090.803970,1120.964813 1072.006027C1102.166870 1053.208069,1076.672623 1042.645126,1050.086304 1042.645126C1023.499985 1042.645126,998.005737 1053.208069,979.207794 1072.006027C960.409836 1090.803970,949.846893 1116.298218,949.846893 1142.884537C949.846893 1169.470856,960.409836 1194.965103,979.207794 1213.763046C998.005737 1232.561005,1023.499985 1243.123947,1050.086304 1243.123947C1076.672623 1243.123947,1102.166870 1232.561005,1120.964813 1213.763046C1139.762772 1194.965103,1150.325714 1169.470856,1150.325714 1142.884537Z" style="stroke:rgb(25.500488%,41.000366%,88.400269%); stroke-width: 2.500000;stroke-linecap: round;stroke-linejoin: round;stroke-miterlimit: 10.000000;fill: none;"></path>
  <path d="M1298.018265 1209.983307C1298.018265 1183.396988,1287.455322 1157.902740,1268.657364 1139.104797C1249.859421 1120.306839,1224.365173 1109.743896,1197.778854 1109.743896C1171.192535 1109.743896,1145.698288 1120.306839,1126.900345 1139.104797C1108.102386 1157.902740,1097.539444 1183.396988,1097.539444 1209.983307C1097.539444 1236.569626,1108.102386 1262.063873,1126.900345 1280.861816C1145.698288 1299.659775,1171.192535 1310.222717,1197.778854 1310.222717C1224.365173 1310.222717,1249.859421 1299.659775,1268.657364 1280.861816C1287.455322 1262.063873,1298.018265 1236.569626,1298.018265 1209.983307Z" style="stroke:rgb(25.500488%,41.000366%,88.400269%); stroke-width: 2.500000;stroke-linecap: round;stroke-linejoin: round;stroke-miterlimit: 10.000000;fill: none;"></path>
  <path d="M1462.047577 1279.002518C1462.047577 1252.416199,1451.484634 1226.921951,1432.686676 1208.124008C1413.888733 1189.326050,1388.394485 1178.763107,1361.808167 1178.763107C1335.221848 1178.763107,1309.727600 1189.326050,1290.929657 1208.124008C1272.131699 1226.921951,1261.568756 1252.416199,1261.568756 1279.002518C1261.568756 1305.588837,1272.131699 1331.083084,1290.929657 1349.881027C1309.727600 1368.678986,1335.221848 1379.241928,1361.808167 1379.241928C1388.394485 1379.241928,1413.888733 1368.678986,1432.686676 1349.881027C1451.484634 1331.083084,1462.047577 1305.588837,1462.047577 1279.002518Z" style="stroke:rgb(25.500488%,41.000366%,88.400269%); stroke-width: 2.500000;stroke-linecap: round;stroke-linejoin: round;stroke-miterlimit: 10.000000;fill: none;"></path>
  <path d="M1602.538467 1351.797745C1602.538467 1325.211426,1591.975525 1299.717178,1573.177567 1280.919235C1554.379623 1262.121277,1528.885376 1251.558334,1502.299057 1251.558334C1475.712738 1251.558334,1450.218491 1262.121277,1431.420547 1280.919235C1412.622589 1299.717178,1402.059647 1325.211426,1402.059647 1351.797745C1402.059647 1378.384064,1412.622589 1403.878311,1431.420547 1422.676254C1450.218491 1441.474213,1475.712738 1452.037155,1502.299057 1452.037155C1528.885376 1452.037155,1554.379623 1441.474213,1573.177567 1422.676254C1591.975525 1403.878311,1602.538467 1378.384064,1602.538467 1351.797745Z" style="stroke:rgb(25.500488%,41.000366%,88.400269%); stroke-width: 2.500000;stroke-linecap: round;stroke-linejoin: round;stroke-miterlimit: 10.000000;fill: none;"></path>
  <path d="M317.397858 621.717453C317.397858 595.131134,306.834915 569.636887,288.036957 550.838943C269.239014 532.040985,243.744766 521.478043,217.158447 521.478043C190.572128 521.478043,165.077881 532.040985,146.279938 550.838943C127.481979 569.636887,116.919037 595.131134,116.919037 621.717453C116.919037 648.303772,127.481979 673.798019,146.279938 692.595963C165.077881 711.393921,190.572128 721.956863,217.158447 721.956863C243.744766 721.956863,269.239014 711.393921,288.036957 692.595963C306.834915 673.798019,317.397858 648.303772,317.397858 621.717453Z" style="stroke:rgb(25.500488%,41.000366%,88.400269%); stroke-width: 2.500000;stroke-linecap: round;stroke-linejoin: round;stroke-miterlimit: 10.000000;fill: none;"></path>
  <path d="M481.998108 697.497162C481.998108 670.910843,471.435165 645.416595,452.637207 626.618652C433.839264 607.820694,408.345016 597.257751,381.758698 597.257751C355.172379 597.257751,329.678131 607.820694,310.880188 626.618652C292.082230 645.416595,281.519287 670.910843,281.519287 697.497162C281.519287 724.083481,292.082230 749.577728,310.880188 768.375671C329.678131 787.173630,355.172379 797.736572,381.758698 797.736572C408.345016 797.736572,433.839264 787.173630,452.637207 768.375671C471.435165 749.577728,481.998108 724.083481,481.998108 697.497162Z" style="stroke:rgb(25.500488%,41.000366%,88.400269%); stroke-width: 2.500000;stroke-linecap: round;stroke-linejoin: round;stroke-miterlimit: 10.000000;fill: none;"></path>
  <path d="M649.868301 764.985199C649.868301 738.398880,639.305359 712.904633,620.507401 694.106689C601.709457 675.308731,576.215210 664.745789,549.628891 664.745789C523.042572 664.745789,497.548325 675.308731,478.750381 694.106689C459.952423 712.904633,449.389481 738.398880,449.389481 764.985199C449.389481 791.571518,459.952423 817.065765,478.750381 835.863708C497.548325 854.661667,523.042572 865.224609,549.628891 865.224609C576.215210 865.224609,601.709457 854.661667,620.507401 835.863708C639.305359 817.065765,649.868301 791.571518,649.868301 764.985199Z" style="stroke:rgb(25.500488%,41.000366%,88.400269%); stroke-width: 2.500000;stroke-linecap: round;stroke-linejoin: round;stroke-miterlimit: 10.000000;fill: none;"></path>
  <path d="M804.606812 841.257980C804.606812 814.671661,794.043869 789.177414,775.245911 770.379471C756.447968 751.581512,730.953720 741.018570,704.367401 741.018570C677.781082 741.018570,652.286835 751.581512,633.488892 770.379471C614.690933 789.177414,604.127991 814.671661,604.127991 841.257980C604.127991 867.844299,614.690933 893.338547,633.488892 912.136490C652.286835 930.934448,677.781082 941.497391,704.367401 941.497391C730.953720 941.497391,756.447968 930.934448,775.245911 912.136490C794.043869 893.338547,804.606812 867.844299,804.606812 841.257980Z" style="stroke:rgb(25.500488%,41.000366%,88.400269%); stroke-width: 2.500000;stroke-linecap: round;stroke-linejoin: round;stroke-miterlimit: 10.000000;fill: none;"></path>
  <path d="M955.205978 919.853470C955.205978 893.267151,944.643036 867.772903,925.845078 848.974960C907.047134 830.177002,881.552887 819.614059,854.966568 819.614059C828.380249 819.614059,802.886002 830.177002,784.088058 848.974960C765.290100 867.772903,754.727158 893.267151,754.727158 919.853470C754.727158 946.439789,765.290100 971.934036,784.088058 990.731979C802.886002 1009.529938,828.380249 1020.092880,854.966568 1020.092880C881.552887 1020.092880,907.047134 1009.529938,925.845078 990.731979C944.643036 971.934036,955.205978 946.439789,955.205978 919.853470Z" style="stroke:rgb(25.500488%,41.000366%,88.400269%); stroke-width: 2.500000;stroke-linecap: round;stroke-linejoin: round;stroke-miterlimit: 10.000000;fill: none;"></path>
  <path d="M1118.417801 969.862885C1118.417801 943.276566,1107.854858 917.782318,1089.056900 898.984375C1070.258957 880.186417,1044.764709 869.623474,1018.178391 869.623474C991.592072 869.623474,966.097824 880.186417,947.299881 898.984375C928.501923 917.782318,917.938980 943.276566,917.938980 969.862885C917.938980 996.449203,928.501923 1021.943451,947.299881 1040.741394C966.097824 1059.539352,991.592072 1070.102295,1018.178391 1070.102295C1044.764709 1070.102295,1070.258957 1059.539352,1089.056900 1040.741394C1107.854858 1021.943451,1118.417801 996.449203,1118.417801 969.862885Z" style="stroke:rgb(25.500488%,41.000366%,88.400269%); stroke-width: 2.500000;stroke-linecap: round;stroke-linejoin: round;stroke-miterlimit: 10.000000;fill: none;"></path>
  <path d="M1279.825958 1027.580017C1279.825958 1000.993698,1269.263016 975.499451,1250.465057 956.701508C1231.667114 937.903549,1206.172867 927.340607,1179.586548 927.340607C1153.000229 927.340607,1127.505981 937.903549,1108.708038 956.701508C1089.910080 975.499451,1079.347137 1000.993698,1079.347137 1027.580017C1079.347137 1054.166336,1089.910080 1079.660583,1108.708038 1098.458527C1127.505981 1117.256485,1153.000229 1127.819427,1179.586548 1127.819427C1206.172867 1127.819427,1231.667114 1117.256485,1250.465057 1098.458527C1269.263016 1079.660583,1279.825958 1054.166336,1279.825958 1027.580017Z" style="stroke:rgb(25.500488%,41.000366%,88.400269%); stroke-width: 2.500000;stroke-linecap: round;stroke-linejoin: round;stroke-miterlimit: 10.000000;fill: none;"></path>
  <path d="M1427.181137 1106.071686C1427.181137 1079.485367,1416.618195 1053.991119,1397.820236 1035.193176C1379.022293 1016.395218,1353.528046 1005.832275,1326.941727 1005.832275C1300.355408 1005.832275,1274.861160 1016.395218,1256.063217 1035.193176C1237.265259 1053.991119,1226.702316 1079.485367,1226.702316 1106.071686C1226.702316 1132.658005,1237.265259 1158.152252,1256.063217 1176.950195C1274.861160 1195.748154,1300.355408 1206.311096,1326.941727 1206.311096C1353.528046 1206.311096,1379.022293 1195.748154,1397.820236 1176.950195C1416.618195 1158.152252,1427.181137 1132.658005,1427.181137 1106.071686Z" style="stroke:rgb(25.500488%,41.000366%,88.400269%); stroke-width: 2.500000;stroke-linecap: round;stroke-linejoin: round;stroke-miterlimit: 10.000000;fill: none;"></path>
  <path d="M1589.847961 1164.865845C1589.847961 1138.279526,1579.285019 1112.785278,1560.487061 1093.987335C1541.689117 1075.189377,1516.194870 1064.626434,1489.608551 1064.626434C1463.022232 1064.626434,1437.527985 1075.189377,1418.730042 1093.987335C1399.932083 1112.785278,1389.369141 1138.279526,1389.369141 1164.865845C1389.369141 1191.452164,1399.932083 1216.946411,1418.730042 1235.744354C1437.527985 1254.542313,1463.022232 1265.105255,1489.608551 1265.105255C1516.194870 1265.105255,1541.689117 1254.542313,1560.487061 1235.744354C1579.285019 1216.946411,1589.847961 1191.452164,1589.847961 1164.865845Z" style="stroke:rgb(25.500488%,41.000366%,88.400269%); stroke-width: 2.500000;stroke-linecap: round;stroke-linejoin: round;stroke-miterlimit: 10.000000;fill: none;"></path>
  <path d="M1715.403488 1226.942902C1715.403488 1200.356583,1704.840546 1174.862335,1686.042587 1156.064392C1667.244644 1137.266434,1641.750397 1126.703491,1615.164078 1126.703491C1588.577759 1126.703491,1563.083511 1137.266434,1544.285568 1156.064392C1525.487610 1174.862335,1514.924667 1200.356583,1514.924667 1226.942902C1514.924667 1253.529221,1525.487610 1279.023468,1544.285568 1297.821411C1563.083511 1316.619370,1588.577759 1327.182312,1615.164078 1327.182312C1641.750397 1327.182312,1667.244644 1316.619370,1686.042587 1297.821411C1704.840546 1279.023468,1715.403488 1253.529221,1715.403488 1226.942902Z" style="stroke:rgb(25.500488%,41.000366%,88.400269%); stroke-width: 2.500000;stroke-linecap: round;stroke-linejoin: round;stroke-miterlimit: 10.000000;fill: none;"></path>
  <path d="M301.022171 458.168259C301.022171 431.581940,290.459229 406.087692,271.661270 387.289749C252.863327 368.491791,227.369080 357.928848,200.782761 357.928848C174.196442 357.928848,148.702194 368.491791,129.904251 387.289749C111.106293 406.087692,100.543350 431.581940,100.543350 458.168259C100.543350 484.754578,111.106293 510.248825,129.904251 529.046768C148.702194 547.844727,174.196442 558.407669,200.782761 558.407669C227.369080 558.407669,252.863327 547.844727,271.661270 529.046768C290.459229 510.248825,301.022171 484.754578,301.022171 458.168259Z" style="stroke:rgb(25.500488%,41.000366%,88.400269%); stroke-width: 2.500000;stroke-linecap: round;stroke-linejoin: round;stroke-miterlimit: 10.000000;fill: none;"></path>
  <path d="M466.543716 533.143448C466.543716 506.557129,455.980774 481.062881,437.182816 462.264938C418.384872 443.466980,392.890625 432.904037,366.304306 432.904037C339.717987 432.904037,314.223740 443.466980,295.425797 462.264938C276.627838 481.062881,266.064896 506.557129,266.064896 533.143448C266.064896 559.729767,276.627838 585.224014,295.425797 604.021957C314.223740 622.819916,339.717987 633.382858,366.304306 633.382858C392.890625 633.382858,418.384872 622.819916,437.182816 604.021957C455.980774 585.224014,466.543716 559.729767,466.543716 533.143448Z" style="stroke:rgb(25.500488%,41.000366%,88.400269%); stroke-width: 2.500000;stroke-linecap: round;stroke-linejoin: round;stroke-miterlimit: 10.000000;fill: none;"></path>
  <path d="M630.936356 603.693832C630.936356 577.107513,620.373413 551.613266,601.575455 532.815323C582.777512 514.017365,557.283264 503.454422,530.696945 503.454422C504.110626 503.454422,478.616379 514.017365,459.818436 532.815323C441.020477 551.613266,430.457535 577.107513,430.457535 603.693832C430.457535 630.280151,441.020477 655.774399,459.818436 674.572342C478.616379 693.370300,504.110626 703.933243,530.696945 703.933243C557.283264 703.933243,582.777512 693.370300,601.575455 674.572342C620.373413 655.774399,630.936356 630.280151,630.936356 603.693832Z" style="stroke:rgb(25.500488%,41.000366%,88.400269%); stroke-width: 2.500000;stroke-linecap: round;stroke-linejoin: round;stroke-miterlimit: 10.000000;fill: none;"></path>
  <path d="M798.715714 669.806427C798.715714 643.220108,788.152771 617.725861,769.354813 598.927917C750.556870 580.129959,725.062622 569.567017,698.476303 569.567017C671.889984 569.567017,646.395737 580.129959,627.597794 598.927917C608.799835 617.725861,598.236893 643.220108,598.236893 669.806427C598.236893 696.392746,608.799835 721.886993,627.597794 740.684937C646.395737 759.482895,671.889984 770.045837,698.476303 770.045837C725.062622 770.045837,750.556870 759.482895,769.354813 740.684937C788.152771 721.886993,798.715714 696.392746,798.715714 669.806427Z" style="stroke:rgb(25.500488%,41.000366%,88.400269%); stroke-width: 2.500000;stroke-linecap: round;stroke-linejoin: round;stroke-miterlimit: 10.000000;fill: none;"></path>
  <path d="M953.428268 745.858612C953.428268 719.272293,942.865326 693.778046,924.067368 674.980103C905.269424 656.182144,879.775177 645.619202,853.188858 645.619202C826.602539 645.619202,801.108292 656.182144,782.310349 674.980103C763.512390 693.778046,752.949448 719.272293,752.949448 745.858612C752.949448 772.444931,763.512390 797.939178,782.310349 816.737122C801.108292 835.535080,826.602539 846.098022,853.188858 846.098022C879.775177 846.098022,905.269424 835.535080,924.067368 816.737122C942.865326 797.939178,953.428268 772.444931,953.428268 745.858612Z" style="stroke:rgb(25.500488%,41.000366%,88.400269%); stroke-width: 2.500000;stroke-linecap: round;stroke-linejoin: round;stroke-miterlimit: 10.000000;fill: none;"></path>
  <path d="M1101.094864 807.092239C1101.094864 780.505920,1090.531921 755.011673,1071.733963 736.213730C1052.936020 717.415771,1027.441772 706.852829,1000.855453 706.852829C974.269135 706.852829,948.774887 717.415771,929.976944 736.213730C911.178986 755.011673,900.616043 780.505920,900.616043 807.092239C900.616043 833.678558,911.178986 859.172806,929.976944 877.970749C948.774887 896.768707,974.269135 907.331650,1000.855453 907.331650C1027.441772 907.331650,1052.936020 896.768707,1071.733963 877.970749C1090.531921 859.172806,1101.094864 833.678558,1101.094864 807.092239Z" style="stroke:rgb(25.500488%,41.000366%,88.400269%); stroke-width: 2.500000;stroke-linecap: round;stroke-linejoin: round;stroke-miterlimit: 10.000000;fill: none;"></path>
  <path d="M1261.802322 860.293747C1261.802322 833.707428,1251.239380 808.213181,1232.441422 789.415237C1213.643478 770.617279,1188.149231 760.054337,1161.562912 760.054337C1134.976593 760.054337,1109.482346 770.617279,1090.684402 789.415237C1071.886444 808.213181,1061.323502 833.707428,1061.323502 860.293747C1061.323502 886.880066,1071.886444 912.374313,1090.684402 931.172256C1109.482346 949.970215,1134.976593 960.533157,1161.562912 960.533157C1188.149231 960.533157,1213.643478 949.970215,1232.441422 931.172256C1251.239380 912.374313,1261.802322 886.880066,1261.802322 860.293747Z" style="stroke:rgb(25.500488%,41.000366%,88.400269%); stroke-width: 2.500000;stroke-linecap: round;stroke-linejoin: round;stroke-miterlimit: 10.000000;fill: none;"></path>
  <path d="M1424.767593 928.378693C1424.767593 901.792374,1414.204651 876.298126,1395.406693 857.500183C1376.608749 838.702225,1351.114502 828.139282,1324.528183 828.139282C1297.941864 828.139282,1272.447617 838.702225,1253.649673 857.500183C1234.851715 876.298126,1224.288773 901.792374,1224.288773 928.378693C1224.288773 954.965012,1234.851715 980.459259,1253.649673 999.257202C1272.447617 1018.055161,1297.941864 1028.618103,1324.528183 1028.618103C1351.114502 1028.618103,1376.608749 1018.055161,1395.406693 999.257202C1414.204651 980.459259,1424.767593 954.965012,1424.767593 928.378693Z" style="stroke:rgb(25.500488%,41.000366%,88.400269%); stroke-width: 2.500000;stroke-linecap: round;stroke-linejoin: round;stroke-miterlimit: 10.000000;fill: none;"></path>
  <path d="M1570.903030 998.332169C1570.903030 971.745850,1560.340088 946.251602,1541.542130 927.453659C1522.744186 908.655701,1497.249939 898.092758,1470.663620 898.092758C1444.077301 898.092758,1418.583054 908.655701,1399.785110 927.453659C1380.987152 946.251602,1370.424210 971.745850,1370.424210 998.332169C1370.424210 1024.918488,1380.987152 1050.412735,1399.785110 1069.210678C1418.583054 1088.008636,1444.077301 1098.571579,1470.663620 1098.571579C1497.249939 1098.571579,1522.744186 1088.008636,1541.542130 1069.210678C1560.340088 1050.412735,1570.903030 1024.918488,1570.903030 998.332169Z" style="stroke:rgb(25.500488%,41.000366%,88.400269%); stroke-width: 2.500000;stroke-linecap: round;stroke-linejoin: round;stroke-miterlimit: 10.000000;fill: none;"></path>
  <path d="M1729.599213 1042.152039C1729.599213 1015.565720,1719.036270 990.071472,1700.238312 971.273529C1681.440369 952.475571,1655.946121 941.912628,1629.359802 941.912628C1602.773483 941.912628,1577.279236 952.475571,1558.481293 971.273529C1539.683334 990.071472,1529.120392 1015.565720,1529.120392 1042.152039C1529.120392 1068.738358,1539.683334 1094.232605,1558.481293 1113.030548C1577.279236 1131.828506,1602.773483 1142.391449,1629.359802 1142.391449C1655.946121 1142.391449,1681.440369 1131.828506,1700.238312 1113.030548C1719.036270 1094.232605,1729.599213 1068.738358,1729.599213 1042.152039Z" style="stroke:rgb(25.500488%,41.000366%,88.400269%); stroke-width: 2.500000;stroke-linecap: round;stroke-linejoin: round;stroke-miterlimit: 10.000000;fill: none;"></path>
  <path d="M434.272461 362.444489C434.272461 335.858170,423.709518 310.363922,404.911560 291.565979C386.113617 272.768021,360.619370 262.205078,334.033051 262.205078C307.446732 262.205078,281.952484 272.768021,263.154541 291.565979C244.356583 310.363922,233.793640 335.858170,233.793640 362.444489C233.793640 389.030807,244.356583 414.525055,263.154541 433.322998C281.952484 452.120956,307.446732 462.683899,334.033051 462.683899C360.619370 462.683899,386.113617 452.120956,404.911560 433.322998C423.709518 414.525055,434.272461 389.030807,434.272461 362.444489Z" style="stroke:rgb(25.500488%,41.000366%,88.400269%); stroke-width: 2.500000;stroke-linecap: round;stroke-linejoin: round;stroke-miterlimit: 10.000000;fill: none;"></path>
  <path d="M599.794006 437.173141C599.794006 410.586823,589.231064 385.092575,570.433105 366.294632C551.635162 347.496674,526.140915 336.933731,499.554596 336.933731C472.968277 336.933731,447.474030 347.496674,428.676086 366.294632C409.878128 385.092575,399.315186 410.586823,399.315186 437.173141C399.315186 463.759460,409.878128 489.253708,428.676086 508.051651C447.474030 526.849609,472.968277 537.412552,499.554596 537.412552C526.140915 537.412552,551.635162 526.849609,570.433105 508.051651C589.231064 489.253708,599.794006 463.759460,599.794006 437.173141Z" style="stroke:rgb(25.500488%,41.000366%,88.400269%); stroke-width: 2.500000;stroke-linecap: round;stroke-linejoin: round;stroke-miterlimit: 10.000000;fill: none;"></path>
  <path d="M767.988602 502.909424C767.988602 476.323105,757.425659 450.828857,738.627701 432.030914C719.829758 413.232956,694.335510 402.670013,667.749191 402.670013C641.162872 402.670013,615.668625 413.232956,596.870682 432.030914C578.072723 450.828857,567.509781 476.323105,567.509781 502.909424C567.509781 529.495743,578.072723 554.989990,596.870682 573.787933C615.668625 592.585892,641.162872 603.148834,667.749191 603.148834C694.335510 603.148834,719.829758 592.585892,738.627701 573.787933C757.425659 554.989990,767.988602 529.495743,767.988602 502.909424Z" style="stroke:rgb(25.500488%,41.000366%,88.400269%); stroke-width: 2.500000;stroke-linecap: round;stroke-linejoin: round;stroke-miterlimit: 10.000000;fill: none;"></path>
  <path d="M935.767960 568.814407C935.767960 542.228088,925.205017 516.733841,906.407059 497.935898C887.609116 479.137939,862.114868 468.574997,835.528549 468.574997C808.942230 468.574997,783.447983 479.137939,764.650040 497.935898C745.852081 516.733841,735.289139 542.228088,735.289139 568.814407C735.289139 595.400726,745.852081 620.894974,764.650040 639.692917C783.447983 658.490875,808.942230 669.053818,835.528549 669.053818C862.114868 669.053818,887.609116 658.490875,906.407059 639.692917C925.205017 620.894974,935.767960 595.400726,935.767960 568.814407Z" style="stroke:rgb(25.500488%,41.000366%,88.400269%); stroke-width: 2.500000;stroke-linecap: round;stroke-linejoin: round;stroke-miterlimit: 10.000000;fill: none;"></path>
  <path d="M1087.547943 627.491776C1087.547943 600.905457,1076.985001 575.411209,1058.187042 556.613266C1039.389099 537.815308,1013.894852 527.252365,987.308533 527.252365C960.722214 527.252365,935.227966 537.815308,916.430023 556.613266C897.632065 575.411209,887.069122 600.905457,887.069122 627.491776C887.069122 654.078094,897.632065 679.572342,916.430023 698.370285C935.227966 717.168243,960.722214 727.731186,987.308533 727.731186C1013.894852 727.731186,1039.389099 717.168243,1058.187042 698.370285C1076.985001 679.572342,1087.547943 654.078094,1087.547943 627.491776Z" style="stroke:rgb(25.500488%,41.000366%,88.400269%); stroke-width: 2.500000;stroke-linecap: round;stroke-linejoin: round;stroke-miterlimit: 10.000000;fill: none;"></path>
  <path d="M1235.435135 689.594788C1235.435135 663.008469,1224.872192 637.514221,1206.074234 618.716278C1187.276291 599.918320,1161.782043 589.355377,1135.195724 589.355377C1108.609406 589.355377,1083.115158 599.918320,1064.317215 618.716278C1045.519257 637.514221,1034.956314 663.008469,1034.956314 689.594788C1034.956314 716.181107,1045.519257 741.675354,1064.317215 760.473297C1083.115158 779.271255,1108.609406 789.834198,1135.195724 789.834198C1161.782043 789.834198,1187.276291 779.271255,1206.074234 760.473297C1224.872192 741.675354,1235.435135 716.181107,1235.435135 689.594788Z" style="stroke:rgb(25.500488%,41.000366%,88.400269%); stroke-width: 2.500000;stroke-linecap: round;stroke-linejoin: round;stroke-miterlimit: 10.000000;fill: none;"></path>
  <path d="M1398.672913 757.459137C1398.672913 730.872818,1388.109970 705.378571,1369.312012 686.580627C1350.514069 667.782669,1325.019821 657.219727,1298.433502 657.219727C1271.847183 657.219727,1246.352936 667.782669,1227.554993 686.580627C1208.757034 705.378571,1198.194092 730.872818,1198.194092 757.459137C1198.194092 784.045456,1208.757034 809.539703,1227.554993 828.337646C1246.352936 847.135605,1271.847183 857.698547,1298.433502 857.698547C1325.019821 857.698547,1350.514069 847.135605,1369.312012 828.337646C1388.109970 809.539703,1398.672913 784.045456,1398.672913 757.459137Z" style="stroke:rgb(25.500488%,41.000366%,88.400269%); stroke-width: 2.500000;stroke-linecap: round;stroke-linejoin: round;stroke-miterlimit: 10.000000;fill: none;"></path>
  <path d="M1560.431427 816.992920C1560.431427 790.406601,1549.868484 764.912354,1531.070526 746.114410C1512.272583 727.316452,1486.778336 716.753510,1460.192017 716.753510C1433.605698 716.753510,1408.111450 727.316452,1389.313507 746.114410C1370.515549 764.912354,1359.952606 790.406601,1359.952606 816.992920C1359.952606 843.579239,1370.515549 869.073486,1389.313507 887.871429C1408.111450 906.669388,1433.605698 917.232330,1460.192017 917.232330C1486.778336 917.232330,1512.272583 906.669388,1531.070526 887.871429C1549.868484 869.073486,1560.431427 843.579239,1560.431427 816.992920Z" style="stroke:rgb(25.500488%,41.000366%,88.400269%); stroke-width: 2.500000;stroke-linecap: round;stroke-linejoin: round;stroke-miterlimit: 10.000000;fill: none;"></path>
  <path d="M1672.024811 896.847061C1672.024811 870.260742,1661.461868 844.766495,1642.663910 825.968552C1623.865967 807.170593,1598.371719 796.607651,1571.785400 796.607651C1545.199081 796.607651,1519.704834 807.170593,1500.906891 825.968552C1482.108932 844.766495,1471.545990 870.260742,1471.545990 896.847061C1471.545990 923.433380,1482.108932 948.927628,1500.906891 967.725571C1519.704834 986.523529,1545.199081 997.086472,1571.785400 997.086472C1598.371719 997.086472,1623.865967 986.523529,1642.663910 967.725571C1661.461868 948.927628,1672.024811 923.433380,1672.024811 896.847061Z" style="stroke:rgb(25.500488%,41.000366%,88.400269%); stroke-width: 2.500000;stroke-linecap: round;stroke-linejoin: round;stroke-miterlimit: 10.000000;fill: none;"></path>
  <path d="M566.406830 271.781357C566.406830 245.195038,555.843887 219.700790,537.045929 200.902847C518.247986 182.104889,492.753738 171.541946,466.167419 171.541946C439.581100 171.541946,414.086853 182.104889,395.288910 200.902847C376.490952 219.700790,365.928009 245.195038,365.928009 271.781357C365.928009 298.367676,376.490952 323.861923,395.288910 342.659866C414.086853 361.457825,439.581100 372.020767,466.167419 372.020767C492.753738 372.020767,518.247986 361.457825,537.045929 342.659866C555.843887 323.861923,566.406830 298.367676,566.406830 271.781357Z" style="stroke:rgb(25.500488%,41.000366%,88.400269%); stroke-width: 2.500000;stroke-linecap: round;stroke-linejoin: round;stroke-miterlimit: 10.000000;fill: none;"></path>
  <path d="M736.327225 347.885452C736.327225 321.299133,725.764282 295.804886,706.966324 277.006943C688.168381 258.208984,662.674133 247.646042,636.087814 247.646042C609.501495 247.646042,584.007248 258.208984,565.209305 277.006943C546.411346 295.804886,535.848404 321.299133,535.848404 347.885452C535.848404 374.471771,546.411346 399.966019,565.209305 418.763962C584.007248 437.561920,609.501495 448.124863,636.087814 448.124863C662.674133 448.124863,688.168381 437.561920,706.966324 418.763962C725.764282 399.966019,736.327225 374.471771,736.327225 347.885452Z" style="stroke:rgb(25.500488%,41.000366%,88.400269%); stroke-width: 2.500000;stroke-linecap: round;stroke-linejoin: round;stroke-miterlimit: 10.000000;fill: none;"></path>
  <path d="M912.424179 405.628540C912.424179 379.042221,901.861237 353.547974,883.063278 334.750031C864.265335 315.952072,838.771088 305.389130,812.184769 305.389130C785.598450 305.389130,760.104202 315.952072,741.306259 334.750031C722.508301 353.547974,711.945358 379.042221,711.945358 405.628540C711.945358 432.214859,722.508301 457.709106,741.306259 476.507050C760.104202 495.305008,785.598450 505.867950,812.184769 505.867950C838.771088 505.867950,864.265335 495.305008,883.063278 476.507050C901.861237 457.709106,912.424179 432.214859,912.424179 405.628540Z" style="stroke:rgb(25.500488%,41.000366%,88.400269%); stroke-width: 2.500000;stroke-linecap: round;stroke-linejoin: round;stroke-miterlimit: 10.000000;fill: none;"></path>
  <path d="M1077.582397 453.886200C1077.582397 427.299881,1067.019455 401.805634,1048.221497 383.007690C1029.423553 364.209732,1003.929306 353.646790,977.342987 353.646790C950.756668 353.646790,925.262421 364.209732,906.464478 383.007690C887.666519 401.805634,877.103577 427.299881,877.103577 453.886200C877.103577 480.472519,887.666519 505.966766,906.464478 524.764709C925.262421 543.562668,950.756668 554.125610,977.342987 554.125610C1003.929306 554.125610,1029.423553 543.562668,1048.221497 524.764709C1067.019455 505.966766,1077.582397 480.472519,1077.582397 453.886200Z" style="stroke:rgb(25.500488%,41.000366%,88.400269%); stroke-width: 2.500000;stroke-linecap: round;stroke-linejoin: round;stroke-miterlimit: 10.000000;fill: none;"></path>
  <path d="M1227.312180 512.329987C1227.312180 485.743668,1216.749237 460.249420,1197.951279 441.451477C1179.153336 422.653519,1153.659088 412.090576,1127.072769 412.090576C1100.486450 412.090576,1074.992203 422.653519,1056.194260 441.451477C1037.396301 460.249420,1026.833359 485.743668,1026.833359 512.329987C1026.833359 538.916306,1037.396301 564.410553,1056.194260 583.208496C1074.992203 602.006454,1100.486450 612.569397,1127.072769 612.569397C1153.659088 612.569397,1179.153336 602.006454,1197.951279 583.208496C1216.749237 564.410553,1227.312180 538.916306,1227.312180 512.329987Z" style="stroke:rgb(25.500488%,41.000366%,88.400269%); stroke-width: 2.500000;stroke-linecap: round;stroke-linejoin: round;stroke-miterlimit: 10.000000;fill: none;"></path>
  <path d="M1378.209793 597.647018C1378.209793 571.060699,1367.646851 545.566452,1348.848892 526.768509C1330.050949 507.970551,1304.556702 497.407608,1277.970383 497.407608C1251.384064 497.407608,1225.889816 507.970551,1207.091873 526.768509C1188.293915 545.566452,1177.730972 571.060699,1177.730972 597.647018C1177.730972 624.233337,1188.293915 649.727585,1207.091873 668.525528C1225.889816 687.323486,1251.384064 697.886429,1277.970383 697.886429C1304.556702 697.886429,1330.050949 687.323486,1348.848892 668.525528C1367.646851 649.727585,1378.209793 624.233337,1378.209793 597.647018Z" style="stroke:rgb(25.500488%,41.000366%,88.400269%); stroke-width: 2.500000;stroke-linecap: round;stroke-linejoin: round;stroke-miterlimit: 10.000000;fill: none;"></path>
  <path d="M1547.805801 672.803879C1547.805801 646.217560,1537.242859 620.723312,1518.444901 601.925369C1499.646957 583.127411,1474.152710 572.564468,1447.566391 572.564468C1420.980072 572.564468,1395.485825 583.127411,1376.687881 601.925369C1357.889923 620.723312,1347.326981 646.217560,1347.326981 672.803879C1347.326981 699.390198,1357.889923 724.884445,1376.687881 743.682388C1395.485825 762.480347,1420.980072 773.043289,1447.566391 773.043289C1474.152710 773.043289,1499.646957 762.480347,1518.444901 743.682388C1537.242859 724.884445,1547.805801 699.390198,1547.805801 672.803879Z" style="stroke:rgb(25.500488%,41.000366%,88.400269%); stroke-width: 2.500000;stroke-linecap: round;stroke-linejoin: round;stroke-miterlimit: 10.000000;fill: none;"></path>
  <path d="M1723.202057 731.598022C1723.202057 705.011703,1712.639114 679.517456,1693.841156 660.719513C1675.043213 641.921555,1649.548965 631.358612,1622.962646 631.358612C1596.376328 631.358612,1570.882080 641.921555,1552.084137 660.719513C1533.286179 679.517456,1522.723236 705.011703,1522.723236 731.598022C1522.723236 758.184341,1533.286179 783.678589,1552.084137 802.476532C1570.882080 821.274490,1596.376328 831.837433,1622.962646 831.837433C1649.548965 831.837433,1675.043213 821.274490,1693.841156 802.476532C1712.639114 783.678589,1723.202057 758.184341,1723.202057 731.598022Z" style="stroke:rgb(25.500488%,41.000366%,88.400269%); stroke-width: 2.500000;stroke-linecap: round;stroke-linejoin: round;stroke-miterlimit: 10.000000;fill: none;"></path>
  <path d="M1810.050262 883.001694C1810.050262 856.415375,1799.487320 830.921127,1780.689362 812.123184C1761.891418 793.325226,1736.397171 782.762283,1709.810852 782.762283C1683.224533 782.762283,1657.730286 793.325226,1638.932343 812.123184C1620.134384 830.921127,1609.571442 856.415375,1609.571442 883.001694C1609.571442 909.588013,1620.134384 935.082260,1638.932343 953.880203C1657.730286 972.678162,1683.224533 983.241104,1709.810852 983.241104C1736.397171 983.241104,1761.891418 972.678162,1780.689362 953.880203C1799.487320 935.082260,1810.050262 909.588013,1810.050262 883.001694Z" style="stroke:rgb(25.500488%,41.000366%,88.400269%); stroke-width: 2.500000;stroke-linecap: round;stroke-linejoin: round;stroke-miterlimit: 10.000000;fill: none;"></path>
  <path d="M692.442474 189.565567C692.442474 162.979248,681.879532 137.485001,663.081573 118.687057C644.283630 99.889099,618.789383 89.326157,592.203064 89.326157C565.616745 89.326157,540.122498 99.889099,521.324554 118.687057C502.526596 137.485001,491.963654 162.979248,491.963654 189.565567C491.963654 216.151886,502.526596 241.646133,521.324554 260.444077C540.122498 279.242035,565.616745 289.804977,592.203064 289.804977C618.789383 289.804977,644.283630 279.242035,663.081573 260.444077C681.879532 241.646133,692.442474 216.151886,692.442474 189.565567Z" style="stroke:rgb(25.500488%,41.000366%,88.400269%); stroke-width: 2.500000;stroke-linecap: round;stroke-linejoin: round;stroke-miterlimit: 10.000000;fill: none;"></path>
  <path d="M869.901917 249.462677C869.901917 222.876358,859.338974 197.382111,840.541016 178.584167C821.743073 159.786209,796.248825 149.223267,769.662506 149.223267C743.076187 149.223267,717.581940 159.786209,698.783997 178.584167C679.986038 197.382111,669.423096 222.876358,669.423096 249.462677C669.423096 276.048996,679.986038 301.543243,698.783997 320.341187C717.581940 339.139145,743.076187 349.702087,769.662506 349.702087C796.248825 349.702087,821.743073 339.139145,840.541016 320.341187C859.338974 301.543243,869.901917 276.048996,869.901917 249.462677Z" style="stroke:rgb(25.500488%,41.000366%,88.400269%); stroke-width: 2.500000;stroke-linecap: round;stroke-linejoin: round;stroke-miterlimit: 10.000000;fill: none;"></path>
  <path d="M1045.233292 286.755630C1045.233292 260.169312,1034.670349 234.675064,1015.872391 215.877121C997.074448 197.079163,971.580200 186.516220,944.993881 186.516220C918.407562 186.516220,892.913315 197.079163,874.115372 215.877121C855.317413 234.675064,844.754471 260.169312,844.754471 286.755630C844.754471 313.341949,855.317413 338.836197,874.115372 357.634140C892.913315 376.432098,918.407562 386.995041,944.993881 386.995041C971.580200 386.995041,997.074448 376.432098,1015.872391 357.634140C1034.670349 338.836197,1045.233292 313.341949,1045.233292 286.755630Z" style="stroke:rgb(25.500488%,41.000366%,88.400269%); stroke-width: 2.500000;stroke-linecap: round;stroke-linejoin: round;stroke-miterlimit: 10.000000;fill: none;"></path>
  <path d="M1208.432144 333.079865C1208.432144 306.493546,1197.869202 280.999298,1179.071243 262.201355C1160.273300 243.403397,1134.779053 232.840454,1108.192734 232.840454C1081.606415 232.840454,1056.112167 243.403397,1037.314224 262.201355C1018.516266 280.999298,1007.953323 306.493546,1007.953323 333.079865C1007.953323 359.666183,1018.516266 385.160431,1037.314224 403.958374C1056.112167 422.756332,1081.606415 433.319275,1108.192734 433.319275C1134.779053 433.319275,1160.273300 422.756332,1179.071243 403.958374C1197.869202 385.160431,1208.432144 359.666183,1208.432144 333.079865Z" style="stroke:rgb(25.500488%,41.000366%,88.400269%); stroke-width: 2.500000;stroke-linecap: round;stroke-linejoin: round;stroke-miterlimit: 10.000000;fill: none;"></path>
  <path d="M1361.730316 416.930618C1361.730316 390.344299,1351.167374 364.850052,1332.369415 346.052109C1313.571472 327.254150,1288.077225 316.691208,1261.490906 316.691208C1234.904587 316.691208,1209.410339 327.254150,1190.612396 346.052109C1171.814438 364.850052,1161.251495 390.344299,1161.251495 416.930618C1161.251495 443.516937,1171.814438 469.011185,1190.612396 487.809128C1209.410339 506.607086,1234.904587 517.170029,1261.490906 517.170029C1288.077225 517.170029,1313.571472 506.607086,1332.369415 487.809128C1351.167374 469.011185,1361.730316 443.516937,1361.730316 416.930618Z" style="stroke:rgb(25.500488%,41.000366%,88.400269%); stroke-width: 2.500000;stroke-linecap: round;stroke-linejoin: round;stroke-miterlimit: 10.000000;fill: none;"></path>
  <path d="M1512.589005 506.257233C1512.589005 479.670914,1502.026062 454.176666,1483.228104 435.378723C1464.430161 416.580765,1438.935913 406.017822,1412.349594 406.017822C1385.763275 406.017822,1360.269028 416.580765,1341.471085 435.378723C1322.673126 454.176666,1312.110184 479.670914,1312.110184 506.257233C1312.110184 532.843552,1322.673126 558.337799,1341.471085 577.135742C1360.269028 595.933701,1385.763275 606.496643,1412.349594 606.496643C1438.935913 606.496643,1464.430161 595.933701,1483.228104 577.135742C1502.026062 558.337799,1512.589005 532.843552,1512.589005 506.257233Z" style="stroke:rgb(25.500488%,41.000366%,88.400269%); stroke-width: 2.500000;stroke-linecap: round;stroke-linejoin: round;stroke-miterlimit: 10.000000;fill: none;"></path>
  <path d="M1682.223923 580.012680C1682.223923 553.426361,1671.660980 527.932114,1652.863022 509.134171C1634.065079 490.336212,1608.570831 479.773270,1581.984512 479.773270C1555.398193 479.773270,1529.903946 490.336212,1511.106003 509.134171C1492.308044 527.932114,1481.745102 553.426361,1481.745102 580.012680C1481.745102 606.598999,1492.308044 632.093246,1511.106003 650.891190C1529.903946 669.689148,1555.398193 680.252090,1581.984512 680.252090C1608.570831 680.252090,1634.065079 669.689148,1652.863022 650.891190C1671.660980 632.093246,1682.223923 606.598999,1682.223923 580.012680Z" style="stroke:rgb(25.500488%,41.000366%,88.400269%); stroke-width: 2.500000;stroke-linecap: round;stroke-linejoin: round;stroke-miterlimit: 10.000000;fill: none;"></path>
  <path d="M809.096497 101.484650C809.096497 74.898331,798.533554 49.404083,779.735596 30.606140C760.937653 11.808182,735.443405 1.245239,708.857086 1.245239C682.270767 1.245239,656.776520 11.808182,637.978577 30.606140C619.180618 49.404083,608.617676 74.898331,608.617676 101.484650C608.617676 128.070969,619.180618 153.565216,637.978577 172.363159C656.776520 191.161118,682.270767 201.724060,708.857086 201.724060C735.443405 201.724060,760.937653 191.161118,779.735596 172.363159C798.533554 153.565216,809.096497 128.070969,809.096497 101.484650Z" style="stroke:rgb(25.500488%,41.000366%,88.400269%); stroke-width: 2.500000;stroke-linecap: round;stroke-linejoin: round;stroke-miterlimit: 10.000000;fill: none;"></path>
  <path d="M992.369171 127.254944C992.369171 100.668625,981.806229 75.174377,963.008270 56.376434C944.210327 37.578476,918.716080 27.015533,892.129761 27.015533C865.543442 27.015533,840.049194 37.578476,821.251251 56.376434C802.453293 75.174377,791.890350 100.668625,791.890350 127.254944C791.890350 153.841263,802.453293 179.335510,821.251251 198.133453C840.049194 216.931412,865.543442 227.494354,892.129761 227.494354C918.716080 227.494354,944.210327 216.931412,963.008270 198.133453C981.806229 179.335510,992.369171 153.841263,992.369171 127.254944Z" style="stroke:rgb(25.500488%,41.000366%,88.400269%); stroke-width: 2.500000;stroke-linecap: round;stroke-linejoin: round;stroke-miterlimit: 10.000000;fill: none;"></path>
  <path d="M1136.013214 158.436203C1136.013214 131.849884,1125.450272 106.355637,1106.652313 87.557693C1087.854370 68.759735,1062.360123 58.196793,1035.773804 58.196793C1009.187485 58.196793,983.693237 68.759735,964.895294 87.557693C946.097336 106.355637,935.534393 131.849884,935.534393 158.436203C935.534393 185.022522,946.097336 210.516769,964.895294 229.314713C983.693237 248.112671,1009.187485 258.675613,1035.773804 258.675613C1062.360123 258.675613,1087.854370 248.112671,1106.652313 229.314713C1125.450272 210.516769,1136.013214 185.022522,1136.013214 158.436203Z" style="stroke:rgb(25.500488%,41.000366%,88.400269%); stroke-width: 2.500000;stroke-linecap: round;stroke-linejoin: round;stroke-miterlimit: 10.000000;fill: none;"></path>
  <path d="M1368.140442 251.201462C1368.140442 224.615143,1357.577499 199.120895,1338.779541 180.322952C1319.981598 161.524994,1294.487350 150.962051,1267.901031 150.962051C1241.314713 150.962051,1215.820465 161.524994,1197.022522 180.322952C1178.224564 199.120895,1167.661621 224.615143,1167.661621 251.201462C1167.661621 277.787781,1178.224564 303.282028,1197.022522 322.079971C1215.820465 340.877930,1241.314713 351.440872,1267.901031 351.440872C1294.487350 351.440872,1319.981598 340.877930,1338.779541 322.079971C1357.577499 303.282028,1368.140442 277.787781,1368.140442 251.201462Z" style="stroke:rgb(25.500488%,41.000366%,88.400269%); stroke-width: 2.500000;stroke-linecap: round;stroke-linejoin: round;stroke-miterlimit: 10.000000;fill: none;"></path>
  <path d="M1495.512619 325.320236C1495.512619 298.733917,1484.949677 273.239670,1466.151718 254.441727C1447.353775 235.643768,1421.859528 225.080826,1395.273209 225.080826C1368.686890 225.080826,1343.192642 235.643768,1324.394699 254.441727C1305.596741 273.239670,1295.033798 298.733917,1295.033798 325.320236C1295.033798 351.906555,1305.596741 377.400803,1324.394699 396.198746C1343.192642 414.996704,1368.686890 425.559647,1395.273209 425.559647C1421.859528 425.559647,1447.353775 414.996704,1466.151718 396.198746C1484.949677 377.400803,1495.512619 351.906555,1495.512619 325.320236Z" style="stroke:rgb(25.500488%,41.000366%,88.400269%); stroke-width: 2.500000;stroke-linecap: round;stroke-linejoin: round;stroke-miterlimit: 10.000000;fill: none;"></path>
  <path d="M1643.062439 412.142487C1643.062439 385.556168,1632.499496 360.061920,1613.701538 341.263977C1594.903595 322.466019,1569.409348 311.903076,1542.823029 311.903076C1516.236710 311.903076,1490.742462 322.466019,1471.944519 341.263977C1453.146561 360.061920,1442.583618 385.556168,1442.583618 412.142487C1442.583618 438.728806,1453.146561 464.223053,1471.944519 483.020996C1490.742462 501.818954,1516.236710 512.381897,1542.823029 512.381897C1569.409348 512.381897,1594.903595 501.818954,1613.701538 483.020996C1632.499496 464.223053,1643.062439 438.728806,1643.062439 412.142487Z" style="stroke:rgb(25.500488%,41.000366%,88.400269%); stroke-width: 2.500000;stroke-linecap: round;stroke-linejoin: round;stroke-miterlimit: 10.000000;fill: none;"></path>
  <path d="M1258.285828 152.610001C1258.285828 126.023682,1247.722885 100.529434,1228.924927 81.731491C1210.126984 62.933533,1184.632736 52.370590,1158.046417 52.370590C1131.460098 52.370590,1105.965851 62.933533,1087.167908 81.731491C1068.369949 100.529434,1057.807007 126.023682,1057.807007 152.610001C1057.807007 179.196320,1068.369949 204.690567,1087.167908 223.488510C1105.965851 242.286469,1131.460098 252.849411,1158.046417 252.849411C1184.632736 252.849411,1210.126984 242.286469,1228.924927 223.488510C1247.722885 204.690567,1258.285828 179.196320,1258.285828 152.610001Z" style="stroke:rgb(25.500488%,41.000366%,88.400269%); stroke-width: 2.500000;stroke-linecap: round;stroke-linejoin: round;stroke-miterlimit: 10.000000;fill: none;"></path>
</svg>
