<?xml version="1.0"?>
<!-- Created by MetaPost 2.00 on 2022.03.02:1201 -->
<svg version="1.1" xmlns="http://www.w3.org/2000/svg" xmlns:xlink="http://www.w3.org/1999/xlink" width="1787.617905" height="1737.803131" viewBox="0 0 1787.617905 1737.803131">
<!-- Original BoundingBox: -882.967529 -855.147034 904.650375 882.656097 -->
  <path d="M882.000000 31.606476L335.374054 230.567108L44.530548 734.333405L145.535538 1307.196762L591.143509 1681.112473L1172.856491 1681.112473L1618.464462 1307.196762L1719.469452 734.333405L1428.625946 230.567108L882.000000 31.606476Z" style="fill: rgb(100.000000%,100.000000%,100.000000%);stroke: none;"></path>
  <path d="M882.000000 31.606476L335.374054 230.567108" style="stroke:rgb(0.000000%,0.000000%,0.000000%); stroke-width: 2.500000;stroke-linecap: round;stroke-linejoin: round;stroke-miterlimit: 10.000000;fill: none;"></path>
  <path d="M335.374054 230.567108L44.530548 734.333405" style="stroke:rgb(0.000000%,0.000000%,0.000000%); stroke-width: 2.500000;stroke-linecap: round;stroke-linejoin: round;stroke-miterlimit: 10.000000;fill: none;"></path>
  <path d="M44.530548 734.333405L145.535538 1307.196762" style="stroke:rgb(0.000000%,0.000000%,0.000000%); stroke-width: 2.500000;stroke-linecap: round;stroke-linejoin: round;stroke-miterlimit: 10.000000;fill: none;"></path>
  <path d="M145.535538 1307.196762L591.143509 1681.112473" style="stroke:rgb(0.000000%,0.000000%,0.000000%); stroke-width: 2.500000;stroke-linecap: round;stroke-linejoin: round;stroke-miterlimit: 10.000000;fill: none;"></path>
  <path d="M591.143509 1681.112473L1172.856491 1681.112473" style="stroke:rgb(0.000000%,0.000000%,0.000000%); stroke-width: 2.500000;stroke-linecap: round;stroke-linejoin: round;stroke-miterlimit: 10.000000;fill: none;"></path>
  <path d="M1172.856491 1681.112473L1618.464462 1307.196762" style="stroke:rgb(0.000000%,0.000000%,0.000000%); stroke-width: 2.500000;stroke-linecap: round;stroke-linejoin: round;stroke-miterlimit: 10.000000;fill: none;"></path>
  <path d="M1618.464462 1307.196762L1719.469452 734.333405" style="stroke:rgb(0.000000%,0.000000%,0.000000%); stroke-width: 2.500000;stroke-linecap: round;stroke-linejoin: round;stroke-miterlimit: 10.000000;fill: none;"></path>
  <path d="M1719.469452 734.333405L1428.625946 230.567108" style="stroke:rgb(0.000000%,0.000000%,0.000000%); stroke-width: 2.500000;stroke-linecap: round;stroke-linejoin: round;stroke-miterlimit: 10.000000;fill: none;"></path>
  <path d="M1428.625946 230.567108L882.000000 31.606476" style="stroke:rgb(0.000000%,0.000000%,0.000000%); stroke-width: 2.500000;stroke-linecap: round;stroke-linejoin: round;stroke-miterlimit: 10.000000;fill: none;"></path>
  <path d="M1785.400375 895.144669C1785.400375 867.068130,1774.245361 840.144897,1754.393753 820.293289C1734.542145 800.441681,1707.618912 789.286667,1679.542374 789.286667C1651.465836 789.286667,1624.542603 800.441681,1604.690994 820.293289C1584.839386 840.144897,1573.684372 867.068130,1573.684372 895.144669C1573.684372 923.221207,1584.839386 950.144440,1604.690994 969.996048C1624.542603 989.847656,1651.465836 1001.002670,1679.542374 1001.002670C1707.618912 1001.002670,1734.542145 989.847656,1754.393753 969.996048C1774.245361 950.144440,1785.400375 923.221207,1785.400375 895.144669Z" style="stroke:rgb(25.500488%,41.000366%,88.400269%); stroke-width: 2.500000;stroke-linecap: round;stroke-linejoin: round;stroke-miterlimit: 10.000000;fill: none;"></path>
  <path d="M1733.133148 726.223419C1733.133148 698.146881,1721.978134 671.223648,1702.126526 651.372040C1682.274918 631.520432,1655.351685 620.365417,1627.275146 620.365417C1599.198608 620.365417,1572.275375 631.520432,1552.423767 651.372040C1532.572159 671.223648,1521.417145 698.146881,1521.417145 726.223419C1521.417145 754.299957,1532.572159 781.223190,1552.423767 801.074799C1572.275375 820.926407,1599.198608 832.081421,1627.275146 832.081421C1655.351685 832.081421,1682.274918 820.926407,1702.126526 801.074799C1721.978134 781.223190,1733.133148 754.299957,1733.133148 726.223419Z" style="stroke:rgb(25.500488%,41.000366%,88.400269%); stroke-width: 2.500000;stroke-linecap: round;stroke-linejoin: round;stroke-miterlimit: 10.000000;fill: none;"></path>
  <path d="M1666.449615 578.310272C1666.449615 550.233734,1655.294601 523.310501,1635.442993 503.458893C1615.591385 483.607285,1588.668152 472.452271,1560.591614 472.452271C1532.515076 472.452271,1505.591843 483.607285,1485.740234 503.458893C1465.888626 523.310501,1454.733612 550.233734,1454.733612 578.310272C1454.733612 606.386810,1465.888626 633.310043,1485.740234 653.161652C1505.591843 673.013260,1532.515076 684.168274,1560.591614 684.168274C1588.668152 684.168274,1615.591385 673.013260,1635.442993 653.161652C1655.294601 633.310043,1666.449615 606.386810,1666.449615 578.310272Z" style="stroke:rgb(25.500488%,41.000366%,88.400269%); stroke-width: 2.500000;stroke-linecap: round;stroke-linejoin: round;stroke-miterlimit: 10.000000;fill: none;"></path>
  <path d="M1578.524399 427.633240C1578.524399 399.556702,1567.369385 372.633469,1547.517776 352.781860C1527.666168 332.930252,1500.742935 321.775238,1472.666397 321.775238C1444.589859 321.775238,1417.666626 332.930252,1397.815018 352.781860C1377.963409 372.633469,1366.808395 399.556702,1366.808395 427.633240C1366.808395 455.709778,1377.963409 482.633011,1397.815018 502.484619C1417.666626 522.336227,1444.589859 533.491241,1472.666397 533.491241C1500.742935 533.491241,1527.666168 522.336227,1547.517776 502.484619C1567.369385 482.633011,1578.524399 455.709778,1578.524399 427.633240Z" style="stroke:rgb(25.500488%,41.000366%,88.400269%); stroke-width: 2.500000;stroke-linecap: round;stroke-linejoin: round;stroke-miterlimit: 10.000000;fill: none;"></path>
  <path d="M1497.956573 265.433548C1497.956573 237.357010,1486.801559 210.433777,1466.949951 190.582169C1447.098343 170.730560,1420.175110 159.575546,1392.098572 159.575546C1364.022034 159.575546,1337.098801 170.730560,1317.247192 190.582169C1297.395584 210.433777,1286.240570 237.357010,1286.240570 265.433548C1286.240570 293.510086,1297.395584 320.433319,1317.247192 340.284927C1337.098801 360.136536,1364.022034 371.291550,1392.098572 371.291550C1420.175110 371.291550,1447.098343 360.136536,1466.949951 340.284927C1486.801559 320.433319,1497.956573 293.510086,1497.956573 265.433548Z" style="stroke:rgb(25.500488%,41.000366%,88.400269%); stroke-width: 2.500000;stroke-linecap: round;stroke-linejoin: round;stroke-miterlimit: 10.000000;fill: none;"></path>
  <path d="M1714.940826 1206.931396C1714.940826 1178.854858,1703.785812 1151.931625,1683.934204 1132.080017C1664.082596 1112.228409,1637.159363 1101.073395,1609.082825 1101.073395C1581.006287 1101.073395,1554.083054 1112.228409,1534.231445 1132.080017C1514.379837 1151.931625,1503.224823 1178.854858,1503.224823 1206.931396C1503.224823 1235.007935,1514.379837 1261.931168,1534.231445 1281.782776C1554.083054 1301.634384,1581.006287 1312.789398,1609.082825 1312.789398C1637.159363 1312.789398,1664.082596 1301.634384,1683.934204 1281.782776C1703.785812 1261.931168,1714.940826 1235.007935,1714.940826 1206.931396Z" style="stroke:rgb(25.500488%,41.000366%,88.400269%); stroke-width: 2.500000;stroke-linecap: round;stroke-linejoin: round;stroke-miterlimit: 10.000000;fill: none;"></path>
  <path d="M1680.048431 1040.086304C1680.048431 1012.009766,1668.893417 985.086533,1649.041809 965.234924C1629.190201 945.383316,1602.266968 934.228302,1574.190430 934.228302C1546.113892 934.228302,1519.190659 945.383316,1499.339050 965.234924C1479.487442 985.086533,1468.332428 1012.009766,1468.332428 1040.086304C1468.332428 1068.162842,1479.487442 1095.086075,1499.339050 1114.937683C1519.190659 1134.789291,1546.113892 1145.944305,1574.190430 1145.944305C1602.266968 1145.944305,1629.190201 1134.789291,1649.041809 1114.937683C1668.893417 1095.086075,1680.048431 1068.162842,1680.048431 1040.086304Z" style="stroke:rgb(25.500488%,41.000366%,88.400269%); stroke-width: 2.500000;stroke-linecap: round;stroke-linejoin: round;stroke-miterlimit: 10.000000;fill: none;"></path>
  <path d="M1606.461670 869.906387C1606.461670 841.829849,1595.306656 814.906616,1575.455048 795.055008C1555.603439 775.203400,1528.680206 764.048386,1500.603668 764.048386C1472.527130 764.048386,1445.603897 775.203400,1425.752289 795.055008C1405.900681 814.906616,1394.745667 841.829849,1394.745667 869.906387C1394.745667 897.982925,1405.900681 924.906158,1425.752289 944.757767C1445.603897 964.609375,1472.527130 975.764389,1500.603668 975.764389C1528.680206 975.764389,1555.603439 964.609375,1575.455048 944.757767C1595.306656 924.906158,1606.461670 897.982925,1606.461670 869.906387Z" style="stroke:rgb(25.500488%,41.000366%,88.400269%); stroke-width: 2.500000;stroke-linecap: round;stroke-linejoin: round;stroke-miterlimit: 10.000000;fill: none;"></path>
  <path d="M1546.214218 712.053650C1546.214218 683.977112,1535.059204 657.053879,1515.207596 637.202271C1495.355988 617.350662,1468.432755 606.195648,1440.356216 606.195648C1412.279678 606.195648,1385.356445 617.350662,1365.504837 637.202271C1345.653229 657.053879,1334.498215 683.977112,1334.498215 712.053650C1334.498215 740.130188,1345.653229 767.053421,1365.504837 786.905029C1385.356445 806.756638,1412.279678 817.911652,1440.356216 817.911652C1468.432755 817.911652,1495.355988 806.756638,1515.207596 786.905029C1535.059204 767.053421,1546.214218 740.130188,1546.214218 712.053650Z" style="stroke:rgb(25.500488%,41.000366%,88.400269%); stroke-width: 2.500000;stroke-linecap: round;stroke-linejoin: round;stroke-miterlimit: 10.000000;fill: none;"></path>
  <path d="M1471.952713 556.925858C1471.952713 528.849319,1460.797699 501.926086,1440.946091 482.074478C1421.094482 462.222870,1394.171249 451.067856,1366.094711 451.067856C1338.018173 451.067856,1311.094940 462.222870,1291.243332 482.074478C1271.391724 501.926086,1260.236710 528.849319,1260.236710 556.925858C1260.236710 585.002396,1271.391724 611.925629,1291.243332 631.777237C1311.094940 651.628845,1338.018173 662.783859,1366.094711 662.783859C1394.171249 662.783859,1421.094482 651.628845,1440.946091 631.777237C1460.797699 611.925629,1471.952713 585.002396,1471.952713 556.925858Z" style="stroke:rgb(25.500488%,41.000366%,88.400269%); stroke-width: 2.500000;stroke-linecap: round;stroke-linejoin: round;stroke-miterlimit: 10.000000;fill: none;"></path>
  <path d="M1389.295746 389.367096C1389.295746 361.290558,1378.140732 334.367325,1358.289124 314.515717C1338.437515 294.664108,1311.514282 283.509094,1283.437744 283.509094C1255.361206 283.509094,1228.437973 294.664108,1208.586365 314.515717C1188.734756 334.367325,1177.579742 361.290558,1177.579742 389.367096C1177.579742 417.443634,1188.734756 444.366867,1208.586365 464.218475C1228.437973 484.070084,1255.361206 495.225098,1283.437744 495.225098C1311.514282 495.225098,1338.437515 484.070084,1358.289124 464.218475C1378.140732 444.366867,1389.295746 417.443634,1389.295746 389.367096Z" style="stroke:rgb(25.500488%,41.000366%,88.400269%); stroke-width: 2.500000;stroke-linecap: round;stroke-linejoin: round;stroke-miterlimit: 10.000000;fill: none;"></path>
  <path d="M1319.212509 208.326279C1319.212509 180.249741,1308.057495 153.326508,1288.205887 133.474899C1268.354279 113.623291,1241.431046 102.468277,1213.354507 102.468277C1185.277969 102.468277,1158.354736 113.623291,1138.503128 133.474899C1118.651520 153.326508,1107.496506 180.249741,1107.496506 208.326279C1107.496506 236.402817,1118.651520 263.326050,1138.503128 283.177658C1158.354736 303.029266,1185.277969 314.184280,1213.354507 314.184280C1241.431046 314.184280,1268.354279 303.029266,1288.205887 283.177658C1308.057495 263.326050,1319.212509 236.402817,1319.212509 208.326279Z" style="stroke:rgb(25.500488%,41.000366%,88.400269%); stroke-width: 2.500000;stroke-linecap: round;stroke-linejoin: round;stroke-miterlimit: 10.000000;fill: none;"></path>
  <path d="M1612.002426 1306.638794C1612.002426 1278.562256,1600.847412 1251.639023,1580.995804 1231.787415C1561.144196 1211.935806,1534.220963 1200.780792,1506.144424 1200.780792C1478.067886 1200.780792,1451.144653 1211.935806,1431.293045 1231.787415C1411.441437 1251.639023,1400.286423 1278.562256,1400.286423 1306.638794C1400.286423 1334.715332,1411.441437 1361.638565,1431.293045 1381.490173C1451.144653 1401.341782,1478.067886 1412.496796,1506.144424 1412.496796C1534.220963 1412.496796,1561.144196 1401.341782,1580.995804 1381.490173C1600.847412 1361.638565,1612.002426 1334.715332,1612.002426 1306.638794Z" style="stroke:rgb(25.500488%,41.000366%,88.400269%); stroke-width: 2.500000;stroke-linecap: round;stroke-linejoin: round;stroke-miterlimit: 10.000000;fill: none;"></path>
  <path d="M1536.015106 1171.078781C1536.015106 1143.002243,1524.860092 1116.079010,1505.008484 1096.227402C1485.156876 1076.375793,1458.233643 1065.220779,1430.157104 1065.220779C1402.080566 1065.220779,1375.157333 1076.375793,1355.305725 1096.227402C1335.454117 1116.079010,1324.299103 1143.002243,1324.299103 1171.078781C1324.299103 1199.155319,1335.454117 1226.078552,1355.305725 1245.930161C1375.157333 1265.781769,1402.080566 1276.936783,1430.157104 1276.936783C1458.233643 1276.936783,1485.156876 1265.781769,1505.008484 1245.930161C1524.860092 1226.078552,1536.015106 1199.155319,1536.015106 1171.078781Z" style="stroke:rgb(25.500488%,41.000366%,88.400269%); stroke-width: 2.500000;stroke-linecap: round;stroke-linejoin: round;stroke-miterlimit: 10.000000;fill: none;"></path>
  <path d="M1496.321594 1009.995026C1496.321594 981.918488,1485.166580 954.995255,1465.314972 935.143646C1445.463364 915.292038,1418.540131 904.137024,1390.463593 904.137024C1362.387054 904.137024,1335.463821 915.292038,1315.612213 935.143646C1295.760605 954.995255,1284.605591 981.918488,1284.605591 1009.995026C1284.605591 1038.071564,1295.760605 1064.994797,1315.612213 1084.846405C1335.463821 1104.698013,1362.387054 1115.853027,1390.463593 1115.853027C1418.540131 1115.853027,1445.463364 1104.698013,1465.314972 1084.846405C1485.166580 1064.994797,1496.321594 1038.071564,1496.321594 1009.995026Z" style="stroke:rgb(25.500488%,41.000366%,88.400269%); stroke-width: 2.500000;stroke-linecap: round;stroke-linejoin: round;stroke-miterlimit: 10.000000;fill: none;"></path>
  <path d="M1418.193253 846.160355C1418.193253 818.083817,1407.038239 791.160583,1387.186630 771.308975C1367.335022 751.457367,1340.411789 740.302353,1312.335251 740.302353C1284.258713 740.302353,1257.335480 751.457367,1237.483871 771.308975C1217.632263 791.160583,1206.477249 818.083817,1206.477249 846.160355C1206.477249 874.236893,1217.632263 901.160126,1237.483871 921.011734C1257.335480 940.863342,1284.258713 952.018356,1312.335251 952.018356C1340.411789 952.018356,1367.335022 940.863342,1387.186630 921.011734C1407.038239 901.160126,1418.193253 874.236893,1418.193253 846.160355Z" style="stroke:rgb(25.500488%,41.000366%,88.400269%); stroke-width: 2.500000;stroke-linecap: round;stroke-linejoin: round;stroke-miterlimit: 10.000000;fill: none;"></path>
  <path d="M1357.296997 684.804108C1357.296997 656.727570,1346.141983 629.804337,1326.290375 609.952728C1306.438766 590.101120,1279.515533 578.946106,1251.438995 578.946106C1223.362457 578.946106,1196.439224 590.101120,1176.587616 609.952728C1156.736008 629.804337,1145.580994 656.727570,1145.580994 684.804108C1145.580994 712.880646,1156.736008 739.803879,1176.587616 759.655487C1196.439224 779.507095,1223.362457 790.662109,1251.438995 790.662109C1279.515533 790.662109,1306.438766 779.507095,1326.290375 759.655487C1346.141983 739.803879,1357.296997 712.880646,1357.296997 684.804108Z" style="stroke:rgb(25.500488%,41.000366%,88.400269%); stroke-width: 2.500000;stroke-linecap: round;stroke-linejoin: round;stroke-miterlimit: 10.000000;fill: none;"></path>
  <path d="M1283.827026 516.025589C1283.827026 487.949051,1272.672012 461.025818,1252.820404 441.174210C1232.968796 421.322601,1206.045563 410.167587,1177.969025 410.167587C1149.892487 410.167587,1122.969254 421.322601,1103.117645 441.174210C1083.266037 461.025818,1072.111023 487.949051,1072.111023 516.025589C1072.111023 544.102127,1083.266037 571.025360,1103.117645 590.876968C1122.969254 610.728577,1149.892487 621.883591,1177.969025 621.883591C1206.045563 621.883591,1232.968796 610.728577,1252.820404 590.876968C1272.672012 571.025360,1283.827026 544.102127,1283.827026 516.025589Z" style="stroke:rgb(25.500488%,41.000366%,88.400269%); stroke-width: 2.500000;stroke-linecap: round;stroke-linejoin: round;stroke-miterlimit: 10.000000;fill: none;"></path>
  <path d="M1211.031799 334.932877C1211.031799 306.856339,1199.876785 279.933105,1180.025177 260.081497C1160.173569 240.229889,1133.250336 229.074875,1105.173798 229.074875C1077.097260 229.074875,1050.174026 240.229889,1030.322418 260.081497C1010.470810 279.933105,999.315796 306.856339,999.315796 334.932877C999.315796 363.009415,1010.470810 389.932648,1030.322418 409.784256C1050.174026 429.635864,1077.097260 440.790878,1105.173798 440.790878C1133.250336 440.790878,1160.173569 429.635864,1180.025177 409.784256C1199.876785 389.932648,1211.031799 363.009415,1211.031799 334.932877Z" style="stroke:rgb(25.500488%,41.000366%,88.400269%); stroke-width: 2.500000;stroke-linecap: round;stroke-linejoin: round;stroke-miterlimit: 10.000000;fill: none;"></path>
  <path d="M1148.215103 152.789108C1148.215103 124.712570,1137.060089 97.789337,1117.208481 77.937729C1097.356873 58.086121,1070.433640 46.931107,1042.357101 46.931107C1014.280563 46.931107,987.357330 58.086121,967.505722 77.937729C947.654114 97.789337,936.499100 124.712570,936.499100 152.789108C936.499100 180.865646,947.654114 207.788879,967.505722 227.640488C987.357330 247.492096,1014.280563 258.647110,1042.357101 258.647110C1070.433640 258.647110,1097.356873 247.492096,1117.208481 227.640488C1137.060089 207.788879,1148.215103 180.865646,1148.215103 152.789108Z" style="stroke:rgb(25.500488%,41.000366%,88.400269%); stroke-width: 2.500000;stroke-linecap: round;stroke-linejoin: round;stroke-miterlimit: 10.000000;fill: none;"></path>
  <path d="M1506.014648 1461.117783C1506.014648 1433.041245,1494.859634 1406.118011,1475.008026 1386.266403C1455.156418 1366.414795,1428.233185 1355.259781,1400.156647 1355.259781C1372.080109 1355.259781,1345.156876 1366.414795,1325.305267 1386.266403C1305.453659 1406.118011,1294.298645 1433.041245,1294.298645 1461.117783C1294.298645 1489.194321,1305.453659 1516.117554,1325.305267 1535.969162C1345.156876 1555.820770,1372.080109 1566.975784,1400.156647 1566.975784C1428.233185 1566.975784,1455.156418 1555.820770,1475.008026 1535.969162C1494.859634 1516.117554,1506.014648 1489.194321,1506.014648 1461.117783Z" style="stroke:rgb(25.500488%,41.000366%,88.400269%); stroke-width: 2.500000;stroke-linecap: round;stroke-linejoin: round;stroke-miterlimit: 10.000000;fill: none;"></path>
  <path d="M1417.622314 1323.351852C1417.622314 1295.275314,1406.467300 1268.352081,1386.615692 1248.500473C1366.764084 1228.648865,1339.840851 1217.493851,1311.764313 1217.493851C1283.687775 1217.493851,1256.764542 1228.648865,1236.912933 1248.500473C1217.061325 1268.352081,1205.906311 1295.275314,1205.906311 1323.351852C1205.906311 1351.428391,1217.061325 1378.351624,1236.912933 1398.203232C1256.764542 1418.054840,1283.687775 1429.209854,1311.764313 1429.209854C1339.840851 1429.209854,1366.764084 1418.054840,1386.615692 1398.203232C1406.467300 1378.351624,1417.622314 1351.428391,1417.622314 1323.351852Z" style="stroke:rgb(25.500488%,41.000366%,88.400269%); stroke-width: 2.500000;stroke-linecap: round;stroke-linejoin: round;stroke-miterlimit: 10.000000;fill: none;"></path>
  <path d="M1359.528870 1154.456558C1359.528870 1126.380020,1348.373856 1099.456787,1328.522247 1079.605179C1308.670639 1059.753571,1281.747406 1048.598557,1253.670868 1048.598557C1225.594330 1048.598557,1198.671097 1059.753571,1178.819489 1079.605179C1158.967880 1099.456787,1147.812866 1126.380020,1147.812866 1154.456558C1147.812866 1182.533096,1158.967880 1209.456329,1178.819489 1229.307938C1198.671097 1249.159546,1225.594330 1260.314560,1253.670868 1260.314560C1281.747406 1260.314560,1308.670639 1249.159546,1328.522247 1229.307938C1348.373856 1209.456329,1359.528870 1182.533096,1359.528870 1154.456558Z" style="stroke:rgb(25.500488%,41.000366%,88.400269%); stroke-width: 2.500000;stroke-linecap: round;stroke-linejoin: round;stroke-miterlimit: 10.000000;fill: none;"></path>
  <path d="M1313.360352 998.848663C1313.360352 970.772125,1302.205338 943.848892,1282.353729 923.997284C1262.502121 904.145676,1235.578888 892.990662,1207.502350 892.990662C1179.425812 892.990662,1152.502579 904.145676,1132.650970 923.997284C1112.799362 943.848892,1101.644348 970.772125,1101.644348 998.848663C1101.644348 1026.925201,1112.799362 1053.848434,1132.650970 1073.700043C1152.502579 1093.551651,1179.425812 1104.706665,1207.502350 1104.706665C1235.578888 1104.706665,1262.502121 1093.551651,1282.353729 1073.700043C1302.205338 1053.848434,1313.360352 1026.925201,1313.360352 998.848663Z" style="stroke:rgb(25.500488%,41.000366%,88.400269%); stroke-width: 2.500000;stroke-linecap: round;stroke-linejoin: round;stroke-miterlimit: 10.000000;fill: none;"></path>
  <path d="M1239.682755 828.785522C1239.682755 800.708984,1228.527740 773.785751,1208.676132 753.934143C1188.824524 734.082535,1161.901291 722.927521,1133.824753 722.927521C1105.748215 722.927521,1078.824982 734.082535,1058.973373 753.934143C1039.121765 773.785751,1027.966751 800.708984,1027.966751 828.785522C1027.966751 856.862061,1039.121765 883.785294,1058.973373 903.636902C1078.824982 923.488510,1105.748215 934.643524,1133.824753 934.643524C1161.901291 934.643524,1188.824524 923.488510,1208.676132 903.636902C1228.527740 883.785294,1239.682755 856.862061,1239.682755 828.785522Z" style="stroke:rgb(25.500488%,41.000366%,88.400269%); stroke-width: 2.500000;stroke-linecap: round;stroke-linejoin: round;stroke-miterlimit: 10.000000;fill: none;"></path>
  <path d="M1177.177490 657.878952C1177.177490 629.802414,1166.022476 602.879181,1146.170868 583.027573C1126.319260 563.175964,1099.396027 552.020950,1071.319489 552.020950C1043.242950 552.020950,1016.319717 563.175964,996.468109 583.027573C976.616501 602.879181,965.461487 629.802414,965.461487 657.878952C965.461487 685.955490,976.616501 712.878723,996.468109 732.730331C1016.319717 752.581940,1043.242950 763.736954,1071.319489 763.736954C1099.396027 763.736954,1126.319260 752.581940,1146.170868 732.730331C1166.022476 712.878723,1177.177490 685.955490,1177.177490 657.878952Z" style="stroke:rgb(25.500488%,41.000366%,88.400269%); stroke-width: 2.500000;stroke-linecap: round;stroke-linejoin: round;stroke-miterlimit: 10.000000;fill: none;"></path>
  <path d="M1109.884079 476.993851C1109.884079 448.917313,1098.729065 421.994080,1078.877457 402.142471C1059.025848 382.290863,1032.102615 371.135849,1004.026077 371.135849C975.949539 371.135849,949.026306 382.290863,929.174698 402.142471C909.323090 421.994080,898.168076 448.917313,898.168076 476.993851C898.168076 505.070389,909.323090 531.993622,929.174698 551.845230C949.026306 571.696838,975.949539 582.851852,1004.026077 582.851852C1032.102615 582.851852,1059.025848 571.696838,1078.877457 551.845230C1098.729065 531.993622,1109.884079 505.070389,1109.884079 476.993851Z" style="stroke:rgb(25.500488%,41.000366%,88.400269%); stroke-width: 2.500000;stroke-linecap: round;stroke-linejoin: round;stroke-miterlimit: 10.000000;fill: none;"></path>
  <path d="M1039.359650 296.329346C1039.359650 268.252808,1028.204636 241.329575,1008.353027 221.477966C988.501419 201.626358,961.578186 190.471344,933.501648 190.471344C905.425110 190.471344,878.501877 201.626358,858.650269 221.477966C838.798660 241.329575,827.643646 268.252808,827.643646 296.329346C827.643646 324.405884,838.798660 351.329117,858.650269 371.180725C878.501877 391.032333,905.425110 402.187347,933.501648 402.187347C961.578186 402.187347,988.501419 391.032333,1008.353027 371.180725C1028.204636 351.329117,1039.359650 324.405884,1039.359650 296.329346Z" style="stroke:rgb(25.500488%,41.000366%,88.400269%); stroke-width: 2.500000;stroke-linecap: round;stroke-linejoin: round;stroke-miterlimit: 10.000000;fill: none;"></path>
  <path d="M994.903961 121.517014C994.903961 93.440475,983.748947 66.517242,963.897339 46.665634C944.045731 26.814026,917.122498 15.659012,889.045959 15.659012C860.969421 15.659012,834.046188 26.814026,814.194580 46.665634C794.342972 66.517242,783.187958 93.440475,783.187958 121.517014C783.187958 149.593552,794.342972 176.516785,814.194580 196.368393C834.046188 216.220001,860.969421 227.375015,889.045959 227.375015C917.122498 227.375015,944.045731 216.220001,963.897339 196.368393C983.748947 176.516785,994.903961 149.593552,994.903961 121.517014Z" style="stroke:rgb(25.500488%,41.000366%,88.400269%); stroke-width: 2.500000;stroke-linecap: round;stroke-linejoin: round;stroke-miterlimit: 10.000000;fill: none;"></path>
  <path d="M1341.764755 1508.376282C1341.764755 1480.299744,1330.609741 1453.376511,1310.758133 1433.524902C1290.906525 1413.673294,1263.983292 1402.518280,1235.906754 1402.518280C1207.830215 1402.518280,1180.906982 1413.673294,1161.055374 1433.524902C1141.203766 1453.376511,1130.048752 1480.299744,1130.048752 1508.376282C1130.048752 1536.452820,1141.203766 1563.376053,1161.055374 1583.227661C1180.906982 1603.079269,1207.830215 1614.234283,1235.906754 1614.234283C1263.983292 1614.234283,1290.906525 1603.079269,1310.758133 1583.227661C1330.609741 1563.376053,1341.764755 1536.452820,1341.764755 1508.376282Z" style="stroke:rgb(25.500488%,41.000366%,88.400269%); stroke-width: 2.500000;stroke-linecap: round;stroke-linejoin: round;stroke-miterlimit: 10.000000;fill: none;"></path>
  <path d="M1270.435822 1330.060425C1270.435822 1301.983887,1259.280807 1275.060654,1239.429199 1255.209045C1219.577591 1235.357437,1192.654358 1224.202423,1164.577820 1224.202423C1136.501282 1224.202423,1109.578049 1235.357437,1089.726440 1255.209045C1069.874832 1275.060654,1058.719818 1301.983887,1058.719818 1330.060425C1058.719818 1358.136963,1069.874832 1385.060196,1089.726440 1404.911804C1109.578049 1424.763412,1136.501282 1435.918427,1164.577820 1435.918427C1192.654358 1435.918427,1219.577591 1424.763412,1239.429199 1404.911804C1259.280807 1385.060196,1270.435822 1358.136963,1270.435822 1330.060425Z" style="stroke:rgb(25.500488%,41.000366%,88.400269%); stroke-width: 2.500000;stroke-linecap: round;stroke-linejoin: round;stroke-miterlimit: 10.000000;fill: none;"></path>
  <path d="M1201.663147 1153.729904C1201.663147 1125.653366,1190.508133 1098.730133,1170.656525 1078.878525C1150.804916 1059.026917,1123.881683 1047.871902,1095.805145 1047.871902C1067.728607 1047.871902,1040.805374 1059.026917,1020.953766 1078.878525C1001.102158 1098.730133,989.947144 1125.653366,989.947144 1153.729904C989.947144 1181.806442,1001.102158 1208.729675,1020.953766 1228.581284C1040.805374 1248.432892,1067.728607 1259.587906,1095.805145 1259.587906C1123.881683 1259.587906,1150.804916 1248.432892,1170.656525 1228.581284C1190.508133 1208.729675,1201.663147 1181.806442,1201.663147 1153.729904Z" style="stroke:rgb(25.500488%,41.000366%,88.400269%); stroke-width: 2.500000;stroke-linecap: round;stroke-linejoin: round;stroke-miterlimit: 10.000000;fill: none;"></path>
  <path d="M1136.614578 984.847580C1136.614578 956.771042,1125.459564 929.847809,1105.607956 909.996201C1085.756348 890.144592,1058.833115 878.989578,1030.756577 878.989578C1002.680038 878.989578,975.756805 890.144592,955.905197 909.996201C936.053589 929.847809,924.898575 956.771042,924.898575 984.847580C924.898575 1012.924118,936.053589 1039.847351,955.905197 1059.698959C975.756805 1079.550568,1002.680038 1090.705582,1030.756577 1090.705582C1058.833115 1090.705582,1085.756348 1079.550568,1105.607956 1059.698959C1125.459564 1039.847351,1136.614578 1012.924118,1136.614578 984.847580Z" style="stroke:rgb(25.500488%,41.000366%,88.400269%); stroke-width: 2.500000;stroke-linecap: round;stroke-linejoin: round;stroke-miterlimit: 10.000000;fill: none;"></path>
  <path d="M1067.984650 808.711685C1067.984650 780.635147,1056.829636 753.711914,1036.978027 733.860306C1017.126419 714.008698,990.203186 702.853683,962.126648 702.853683C934.050110 702.853683,907.126877 714.008698,887.275269 733.860306C867.423660 753.711914,856.268646 780.635147,856.268646 808.711685C856.268646 836.788223,867.423660 863.711456,887.275269 883.563065C907.126877 903.414673,934.050110 914.569687,962.126648 914.569687C990.203186 914.569687,1017.126419 903.414673,1036.978027 883.563065C1056.829636 863.711456,1067.984650 836.788223,1067.984650 808.711685Z" style="stroke:rgb(25.500488%,41.000366%,88.400269%); stroke-width: 2.500000;stroke-linecap: round;stroke-linejoin: round;stroke-miterlimit: 10.000000;fill: none;"></path>
  <path d="M1007.308990 628.501343C1007.308990 600.424805,996.153976 573.501572,976.302368 553.649963C956.450760 533.798355,929.527527 522.643341,901.450989 522.643341C873.374451 522.643341,846.451218 533.798355,826.599609 553.649963C806.748001 573.501572,795.592987 600.424805,795.592987 628.501343C795.592987 656.577881,806.748001 683.501114,826.599609 703.352722C846.451218 723.204330,873.374451 734.359344,901.450989 734.359344C929.527527 734.359344,956.450760 723.204330,976.302368 703.352722C996.153976 683.501114,1007.308990 656.577881,1007.308990 628.501343Z" style="stroke:rgb(25.500488%,41.000366%,88.400269%); stroke-width: 2.500000;stroke-linecap: round;stroke-linejoin: round;stroke-miterlimit: 10.000000;fill: none;"></path>
  <path d="M939.639282 447.992554C939.639282 419.916016,928.484268 392.992783,908.632660 373.141174C888.781052 353.289566,861.857819 342.134552,833.781281 342.134552C805.704742 342.134552,778.781509 353.289566,758.929901 373.141174C739.078293 392.992783,727.923279 419.916016,727.923279 447.992554C727.923279 476.069092,739.078293 502.992325,758.929901 522.843933C778.781509 542.695541,805.704742 553.850555,833.781281 553.850555C861.857819 553.850555,888.781052 542.695541,908.632660 522.843933C928.484268 502.992325,939.639282 476.069092,939.639282 447.992554Z" style="stroke:rgb(25.500488%,41.000366%,88.400269%); stroke-width: 2.500000;stroke-linecap: round;stroke-linejoin: round;stroke-miterlimit: 10.000000;fill: none;"></path>
  <path d="M867.985947 268.482910C867.985947 240.406372,856.830933 213.483139,836.979324 193.631531C817.127716 173.779922,790.204483 162.624908,762.127945 162.624908C734.051407 162.624908,707.128174 173.779922,687.276566 193.631531C667.424957 213.483139,656.269943 240.406372,656.269943 268.482910C656.269943 296.559448,667.424957 323.482681,687.276566 343.334290C707.128174 363.185898,734.051407 374.340912,762.127945 374.340912C790.204483 374.340912,817.127716 363.185898,836.979324 343.334290C856.830933 323.482681,867.985947 296.559448,867.985947 268.482910Z" style="stroke:rgb(25.500488%,41.000366%,88.400269%); stroke-width: 2.500000;stroke-linecap: round;stroke-linejoin: round;stroke-miterlimit: 10.000000;fill: none;"></path>
  <path d="M812.967804 106.451904C812.967804 78.375366,801.812790 51.452133,781.961182 31.600525C762.109573 11.748917,735.186340 0.593903,707.109802 0.593903C679.033264 0.593903,652.110031 11.748917,632.258423 31.600525C612.406815 51.452133,601.251801 78.375366,601.251801 106.451904C601.251801 134.528442,612.406815 161.451675,632.258423 181.303284C652.110031 201.154892,679.033264 212.309906,707.109802 212.309906C735.186340 212.309906,762.109573 201.154892,781.961182 181.303284C801.812790 161.451675,812.967804 134.528442,812.967804 106.451904Z" style="stroke:rgb(25.500488%,41.000366%,88.400269%); stroke-width: 2.500000;stroke-linecap: round;stroke-linejoin: round;stroke-miterlimit: 10.000000;fill: none;"></path>
  <path d="M1255.928680 1630.039032C1255.928680 1601.962494,1244.773666 1575.039261,1224.922058 1555.187653C1205.070450 1535.336044,1178.147217 1524.181030,1150.070679 1524.181030C1121.994141 1524.181030,1095.070908 1535.336044,1075.219299 1555.187653C1055.367691 1575.039261,1044.212677 1601.962494,1044.212677 1630.039032C1044.212677 1658.115570,1055.367691 1685.038803,1075.219299 1704.890411C1095.070908 1724.742020,1121.994141 1735.897034,1150.070679 1735.897034C1178.147217 1735.897034,1205.070450 1724.742020,1224.922058 1704.890411C1244.773666 1685.038803,1255.928680 1658.115570,1255.928680 1630.039032Z" style="stroke:rgb(25.500488%,41.000366%,88.400269%); stroke-width: 2.500000;stroke-linecap: round;stroke-linejoin: round;stroke-miterlimit: 10.000000;fill: none;"></path>
  <path d="M1163.435928 1466.632568C1163.435928 1438.556030,1152.280914 1411.632797,1132.429306 1391.781189C1112.577698 1371.929581,1085.654465 1360.774567,1057.577927 1360.774567C1029.501389 1360.774567,1002.578156 1371.929581,982.726547 1391.781189C962.874939 1411.632797,951.719925 1438.556030,951.719925 1466.632568C951.719925 1494.709106,962.874939 1521.632339,982.726547 1541.483948C1002.578156 1561.335556,1029.501389 1572.490570,1057.577927 1572.490570C1085.654465 1572.490570,1112.577698 1561.335556,1132.429306 1541.483948C1152.280914 1521.632339,1163.435928 1494.709106,1163.435928 1466.632568Z" style="stroke:rgb(25.500488%,41.000366%,88.400269%); stroke-width: 2.500000;stroke-linecap: round;stroke-linejoin: round;stroke-miterlimit: 10.000000;fill: none;"></path>
  <path d="M1090.562851 1290.003601C1090.562851 1261.927063,1079.407837 1235.003830,1059.556229 1215.152222C1039.704620 1195.300613,1012.781387 1184.145599,984.704849 1184.145599C956.628311 1184.145599,929.705078 1195.300613,909.853470 1215.152222C890.001862 1235.003830,878.846848 1261.927063,878.846848 1290.003601C878.846848 1318.080139,890.001862 1345.003372,909.853470 1364.854980C929.705078 1384.706589,956.628311 1395.861603,984.704849 1395.861603C1012.781387 1395.861603,1039.704620 1384.706589,1059.556229 1364.854980C1079.407837 1345.003372,1090.562851 1318.080139,1090.562851 1290.003601Z" style="stroke:rgb(25.500488%,41.000366%,88.400269%); stroke-width: 2.500000;stroke-linecap: round;stroke-linejoin: round;stroke-miterlimit: 10.000000;fill: none;"></path>
  <path d="M1016.599792 1119.888550C1016.599792 1091.812012,1005.444778 1064.888779,985.593170 1045.037170C965.741562 1025.185562,938.818329 1014.030548,910.741791 1014.030548C882.665253 1014.030548,855.742020 1025.185562,835.890411 1045.037170C816.038803 1064.888779,804.883789 1091.812012,804.883789 1119.888550C804.883789 1147.965088,816.038803 1174.888321,835.890411 1194.739929C855.742020 1214.591537,882.665253 1225.746552,910.741791 1225.746552C938.818329 1225.746552,965.741562 1214.591537,985.593170 1194.739929C1005.444778 1174.888321,1016.599792 1147.965088,1016.599792 1119.888550Z" style="stroke:rgb(25.500488%,41.000366%,88.400269%); stroke-width: 2.500000;stroke-linecap: round;stroke-linejoin: round;stroke-miterlimit: 10.000000;fill: none;"></path>
  <path d="M956.598877 944.933487C956.598877 916.856949,945.443863 889.933716,925.592255 870.082108C905.740646 850.230499,878.817413 839.075485,850.740875 839.075485C822.664337 839.075485,795.741104 850.230499,775.889496 870.082108C756.037888 889.933716,744.882874 916.856949,744.882874 944.933487C744.882874 973.010025,756.037888 999.933258,775.889496 1019.784866C795.741104 1039.636475,822.664337 1050.791489,850.740875 1050.791489C878.817413 1050.791489,905.740646 1039.636475,925.592255 1019.784866C945.443863 999.933258,956.598877 973.010025,956.598877 944.933487Z" style="stroke:rgb(25.500488%,41.000366%,88.400269%); stroke-width: 2.500000;stroke-linecap: round;stroke-linejoin: round;stroke-miterlimit: 10.000000;fill: none;"></path>
  <path d="M892.251022 764.281952C892.251022 736.205414,881.096008 709.282181,861.244400 689.430573C841.392792 669.578964,814.469559 658.423950,786.393021 658.423950C758.316483 658.423950,731.393250 669.578964,711.541641 689.430573C691.690033 709.282181,680.535019 736.205414,680.535019 764.281952C680.535019 792.358490,691.690033 819.281723,711.541641 839.133331C731.393250 858.984940,758.316483 870.139954,786.393021 870.139954C814.469559 870.139954,841.392792 858.984940,861.244400 839.133331C881.096008 819.281723,892.251022 792.358490,892.251022 764.281952Z" style="stroke:rgb(25.500488%,41.000366%,88.400269%); stroke-width: 2.500000;stroke-linecap: round;stroke-linejoin: round;stroke-miterlimit: 10.000000;fill: none;"></path>
  <path d="M831.199051 584.434937C831.199051 556.358398,820.044037 529.435165,800.192429 509.583557C780.340820 489.731949,753.417587 478.576935,725.341049 478.576935C697.264511 478.576935,670.341278 489.731949,650.489670 509.583557C630.638062 529.435165,619.483047 556.358398,619.483047 584.434937C619.483047 612.511475,630.638062 639.434708,650.489670 659.286316C670.341278 679.137924,697.264511 690.292938,725.341049 690.292938C753.417587 690.292938,780.340820 679.137924,800.192429 659.286316C820.044037 639.434708,831.199051 612.511475,831.199051 584.434937Z" style="stroke:rgb(25.500488%,41.000366%,88.400269%); stroke-width: 2.500000;stroke-linecap: round;stroke-linejoin: round;stroke-miterlimit: 10.000000;fill: none;"></path>
  <path d="M762.387451 405.080994C762.387451 377.004456,751.232437 350.081223,731.380829 330.229614C711.529221 310.378006,684.605988 299.222992,656.529449 299.222992C628.452911 299.222992,601.529678 310.378006,581.678070 330.229614C561.826462 350.081223,550.671448 377.004456,550.671448 405.080994C550.671448 433.157532,561.826462 460.080765,581.678070 479.932373C601.529678 499.783981,628.452911 510.938995,656.529449 510.938995C684.605988 510.938995,711.529221 499.783981,731.380829 479.932373C751.232437 460.080765,762.387451 433.157532,762.387451 405.080994Z" style="stroke:rgb(25.500488%,41.000366%,88.400269%); stroke-width: 2.500000;stroke-linecap: round;stroke-linejoin: round;stroke-miterlimit: 10.000000;fill: none;"></path>
  <path d="M682.740921 234.797272C682.740921 206.720734,671.585907 179.797501,651.734299 159.945892C631.882690 140.094284,604.959457 128.939270,576.882919 128.939270C548.806381 128.939270,521.883148 140.094284,502.031540 159.945892C482.179932 179.797501,471.024918 206.720734,471.024918 234.797272C471.024918 262.873810,482.179932 289.797043,502.031540 309.648651C521.883148 329.500259,548.806381 340.655273,576.882919 340.655273C604.959457 340.655273,631.882690 329.500259,651.734299 309.648651C671.585907 289.797043,682.740921 262.873810,682.740921 234.797272Z" style="stroke:rgb(25.500488%,41.000366%,88.400269%); stroke-width: 2.500000;stroke-linecap: round;stroke-linejoin: round;stroke-miterlimit: 10.000000;fill: none;"></path>
  <path d="M1074.368835 1623.486160C1074.368835 1595.409622,1063.213821 1568.486389,1043.362213 1548.634781C1023.510605 1528.783173,996.587372 1517.628159,968.510834 1517.628159C940.434296 1517.628159,913.511063 1528.783173,893.659454 1548.634781C873.807846 1568.486389,862.652832 1595.409622,862.652832 1623.486160C862.652832 1651.562698,873.807846 1678.485931,893.659454 1698.337540C913.511063 1718.189148,940.434296 1729.344162,968.510834 1729.344162C996.587372 1729.344162,1023.510605 1718.189148,1043.362213 1698.337540C1063.213821 1678.485931,1074.368835 1651.562698,1074.368835 1623.486160Z" style="stroke:rgb(25.500488%,41.000366%,88.400269%); stroke-width: 2.500000;stroke-linecap: round;stroke-linejoin: round;stroke-miterlimit: 10.000000;fill: none;"></path>
  <path d="M992.101151 1446.753372C992.101151 1418.676834,980.946136 1391.753601,961.094528 1371.901993C941.242920 1352.050385,914.319687 1340.895370,886.243149 1340.895370C858.166611 1340.895370,831.243378 1352.050385,811.391769 1371.901993C791.540161 1391.753601,780.385147 1418.676834,780.385147 1446.753372C780.385147 1474.829910,791.540161 1501.753143,811.391769 1521.604752C831.243378 1541.456360,858.166611 1552.611374,886.243149 1552.611374C914.319687 1552.611374,941.242920 1541.456360,961.094528 1521.604752C980.946136 1501.753143,992.101151 1474.829910,992.101151 1446.753372Z" style="stroke:rgb(25.500488%,41.000366%,88.400269%); stroke-width: 2.500000;stroke-linecap: round;stroke-linejoin: round;stroke-miterlimit: 10.000000;fill: none;"></path>
  <path d="M914.024704 1276.339890C914.024704 1248.263351,902.869690 1221.340118,883.018082 1201.488510C863.166473 1181.636902,836.243240 1170.481888,808.166702 1170.481888C780.090164 1170.481888,753.166931 1181.636902,733.315323 1201.488510C713.463715 1221.340118,702.308701 1248.263351,702.308701 1276.339890C702.308701 1304.416428,713.463715 1331.339661,733.315323 1351.191269C753.166931 1371.042877,780.090164 1382.197891,808.166702 1382.197891C836.243240 1382.197891,863.166473 1371.042877,883.018082 1351.191269C902.869690 1331.339661,914.024704 1304.416428,914.024704 1276.339890Z" style="stroke:rgb(25.500488%,41.000366%,88.400269%); stroke-width: 2.500000;stroke-linecap: round;stroke-linejoin: round;stroke-miterlimit: 10.000000;fill: none;"></path>
  <path d="M845.109299 1100.152100C845.109299 1072.075562,833.954285 1045.152328,814.102676 1025.300720C794.251068 1005.449112,767.327835 994.294098,739.251297 994.294098C711.174759 994.294098,684.251526 1005.449112,664.399918 1025.300720C644.548309 1045.152328,633.393295 1072.075562,633.393295 1100.152100C633.393295 1128.228638,644.548309 1155.151871,664.399918 1175.003479C684.251526 1194.855087,711.174759 1206.010101,739.251297 1206.010101C767.327835 1206.010101,794.251068 1194.855087,814.102676 1175.003479C833.954285 1155.151871,845.109299 1128.228638,845.109299 1100.152100Z" style="stroke:rgb(25.500488%,41.000366%,88.400269%); stroke-width: 2.500000;stroke-linecap: round;stroke-linejoin: round;stroke-miterlimit: 10.000000;fill: none;"></path>
  <path d="M789.390457 920.694351C789.390457 892.617813,778.235443 865.694580,758.383835 845.842972C738.532227 825.991364,711.608994 814.836349,683.532455 814.836349C655.455917 814.836349,628.532684 825.991364,608.681076 845.842972C588.829468 865.694580,577.674454 892.617813,577.674454 920.694351C577.674454 948.770889,588.829468 975.694122,608.681076 995.545731C628.532684 1015.397339,655.455917 1026.552353,683.532455 1026.552353C711.608994 1026.552353,738.532227 1015.397339,758.383835 995.545731C778.235443 975.694122,789.390457 948.770889,789.390457 920.694351Z" style="stroke:rgb(25.500488%,41.000366%,88.400269%); stroke-width: 2.500000;stroke-linecap: round;stroke-linejoin: round;stroke-miterlimit: 10.000000;fill: none;"></path>
  <path d="M730.764999 750.228973C730.764999 722.152435,719.609985 695.229202,699.758377 675.377594C679.906769 655.525986,652.983536 644.370972,624.906998 644.370972C596.830460 644.370972,569.907227 655.525986,550.055618 675.377594C530.204010 695.229202,519.048996 722.152435,519.048996 750.228973C519.048996 778.305511,530.204010 805.228745,550.055618 825.080353C569.907227 844.931961,596.830460 856.086975,624.906998 856.086975C652.983536 856.086975,679.906769 844.931961,699.758377 825.080353C719.609985 805.228745,730.764999 778.305511,730.764999 750.228973Z" style="stroke:rgb(25.500488%,41.000366%,88.400269%); stroke-width: 2.500000;stroke-linecap: round;stroke-linejoin: round;stroke-miterlimit: 10.000000;fill: none;"></path>
  <path d="M670.465637 574.132004C670.465637 546.055466,659.310623 519.132233,639.459015 499.280624C619.607407 479.429016,592.684174 468.274002,564.607635 468.274002C536.531097 468.274002,509.607864 479.429016,489.756256 499.280624C469.904648 519.132233,458.749634 546.055466,458.749634 574.132004C458.749634 602.208542,469.904648 629.131775,489.756256 648.983383C509.607864 668.834991,536.531097 679.990005,564.607635 679.990005C592.684174 679.990005,619.607407 668.834991,639.459015 648.983383C659.310623 629.131775,670.465637 602.208542,670.465637 574.132004Z" style="stroke:rgb(25.500488%,41.000366%,88.400269%); stroke-width: 2.500000;stroke-linecap: round;stroke-linejoin: round;stroke-miterlimit: 10.000000;fill: none;"></path>
  <path d="M593.686798 404.016968C593.686798 375.940430,582.531784 349.017197,562.680176 329.165588C542.828568 309.313980,515.905334 298.158966,487.828796 298.158966C459.752258 298.158966,432.829025 309.313980,412.977417 329.165588C393.125809 349.017197,381.970795 375.940430,381.970795 404.016968C381.970795 432.093506,393.125809 459.016739,412.977417 478.868347C432.829025 498.719955,459.752258 509.874969,487.828796 509.874969C515.905334 509.874969,542.828568 498.719955,562.680176 478.868347C582.531784 459.016739,593.686798 432.093506,593.686798 404.016968Z" style="stroke:rgb(25.500488%,41.000366%,88.400269%); stroke-width: 2.500000;stroke-linecap: round;stroke-linejoin: round;stroke-miterlimit: 10.000000;fill: none;"></path>
  <path d="M511.120667 237.729843C511.120667 209.653305,499.965652 182.730072,480.114044 162.878464C460.262436 143.026855,433.339203 131.871841,405.262665 131.871841C377.186127 131.871841,350.262894 143.026855,330.411285 162.878464C310.559677 182.730072,299.404663 209.653305,299.404663 237.729843C299.404663 265.806381,310.559677 292.729614,330.411285 312.581223C350.262894 332.432831,377.186127 343.587845,405.262665 343.587845C433.339203 343.587845,460.262436 332.432831,480.114044 312.581223C499.965652 292.729614,511.120667 265.806381,511.120667 237.729843Z" style="stroke:rgb(25.500488%,41.000366%,88.400269%); stroke-width: 2.500000;stroke-linecap: round;stroke-linejoin: round;stroke-miterlimit: 10.000000;fill: none;"></path>
  <path d="M909.015976 1607.953918C909.015976 1579.877380,897.860962 1552.954147,878.009354 1533.102539C858.157745 1513.250931,831.234512 1502.095917,803.157974 1502.095917C775.081436 1502.095917,748.158203 1513.250931,728.306595 1533.102539C708.454987 1552.954147,697.299973 1579.877380,697.299973 1607.953918C697.299973 1636.030457,708.454987 1662.953690,728.306595 1682.805298C748.158203 1702.656906,775.081436 1713.811920,803.157974 1713.811920C831.234512 1713.811920,858.157745 1702.656906,878.009354 1682.805298C897.860962 1662.953690,909.015976 1636.030457,909.015976 1607.953918Z" style="stroke:rgb(25.500488%,41.000366%,88.400269%); stroke-width: 2.500000;stroke-linecap: round;stroke-linejoin: round;stroke-miterlimit: 10.000000;fill: none;"></path>
  <path d="M818.197128 1437.605316C818.197128 1409.528778,807.042114 1382.605545,787.190506 1362.753937C767.338898 1342.902328,740.415665 1331.747314,712.339127 1331.747314C684.262589 1331.747314,657.339355 1342.902328,637.487747 1362.753937C617.636139 1382.605545,606.481125 1409.528778,606.481125 1437.605316C606.481125 1465.681854,617.636139 1492.605087,637.487747 1512.456696C657.339355 1532.308304,684.262589 1543.463318,712.339127 1543.463318C740.415665 1543.463318,767.338898 1532.308304,787.190506 1512.456696C807.042114 1492.605087,818.197128 1465.681854,818.197128 1437.605316Z" style="stroke:rgb(25.500488%,41.000366%,88.400269%); stroke-width: 2.500000;stroke-linecap: round;stroke-linejoin: round;stroke-miterlimit: 10.000000;fill: none;"></path>
  <path d="M764.294922 1244.393036C764.294922 1216.316498,753.139908 1189.393265,733.288300 1169.541656C713.436691 1149.690048,686.513458 1138.535034,658.436920 1138.535034C630.360382 1138.535034,603.437149 1149.690048,583.585541 1169.541656C563.733932 1189.393265,552.578918 1216.316498,552.578918 1244.393036C552.578918 1272.469574,563.733932 1299.392807,583.585541 1319.244415C603.437149 1339.096024,630.360382 1350.251038,658.436920 1350.251038C686.513458 1350.251038,713.436691 1339.096024,733.288300 1319.244415C753.139908 1299.392807,764.294922 1272.469574,764.294922 1244.393036Z" style="stroke:rgb(25.500488%,41.000366%,88.400269%); stroke-width: 2.500000;stroke-linecap: round;stroke-linejoin: round;stroke-miterlimit: 10.000000;fill: none;"></path>
  <path d="M672.554779 1064.675781C672.554779 1036.599243,661.399765 1009.676010,641.548157 989.824402C621.696548 969.972794,594.773315 958.817780,566.696777 958.817780C538.620239 958.817780,511.697006 969.972794,491.845398 989.824402C471.993790 1009.676010,460.838776 1036.599243,460.838776 1064.675781C460.838776 1092.752319,471.993790 1119.675552,491.845398 1139.527161C511.697006 1159.378769,538.620239 1170.533783,566.696777 1170.533783C594.773315 1170.533783,621.696548 1159.378769,641.548157 1139.527161C661.399765 1119.675552,672.554779 1092.752319,672.554779 1064.675781Z" style="stroke:rgb(25.500488%,41.000366%,88.400269%); stroke-width: 2.500000;stroke-linecap: round;stroke-linejoin: round;stroke-miterlimit: 10.000000;fill: none;"></path>
  <path d="M609.582367 893.613495C609.582367 865.536957,598.427353 838.613724,578.575745 818.762115C558.724136 798.910507,531.800903 787.755493,503.724365 787.755493C475.647827 787.755493,448.724594 798.910507,428.872986 818.762115C409.021378 838.613724,397.866364 865.536957,397.866364 893.613495C397.866364 921.690033,409.021378 948.613266,428.872986 968.464874C448.724594 988.316483,475.647827 999.471497,503.724365 999.471497C531.800903 999.471497,558.724136 988.316483,578.575745 968.464874C598.427353 948.613266,609.582367 921.690033,609.582367 893.613495Z" style="stroke:rgb(25.500488%,41.000366%,88.400269%); stroke-width: 2.500000;stroke-linecap: round;stroke-linejoin: round;stroke-miterlimit: 10.000000;fill: none;"></path>
  <path d="M557.989883 725.496765C557.989883 697.420227,546.834869 670.496994,526.983261 650.645386C507.131653 630.793777,480.208420 619.638763,452.131882 619.638763C424.055344 619.638763,397.132111 630.793777,377.280502 650.645386C357.428894 670.496994,346.273880 697.420227,346.273880 725.496765C346.273880 753.573303,357.428894 780.496536,377.280502 800.348145C397.132111 820.199753,424.055344 831.354767,452.131882 831.354767C480.208420 831.354767,507.131653 820.199753,526.983261 800.348145C546.834869 780.496536,557.989883 753.573303,557.989883 725.496765Z" style="stroke:rgb(25.500488%,41.000366%,88.400269%); stroke-width: 2.500000;stroke-linecap: round;stroke-linejoin: round;stroke-miterlimit: 10.000000;fill: none;"></path>
  <path d="M491.643723 556.601471C491.643723 528.524933,480.488708 501.601700,460.637100 481.750092C440.785492 461.898483,413.862259 450.743469,385.785721 450.743469C357.709183 450.743469,330.785950 461.898483,310.934341 481.750092C291.082733 501.601700,279.927719 528.524933,279.927719 556.601471C279.927719 584.678009,291.082733 611.601242,310.934341 631.452850C330.785950 651.304459,357.709183 662.459473,385.785721 662.459473C413.862259 662.459473,440.785492 651.304459,460.637100 631.452850C480.488708 611.601242,491.643723 584.678009,491.643723 556.601471Z" style="stroke:rgb(25.500488%,41.000366%,88.400269%); stroke-width: 2.500000;stroke-linecap: round;stroke-linejoin: round;stroke-miterlimit: 10.000000;fill: none;"></path>
  <path d="M416.434967 384.475143C416.434967 356.398605,405.279953 329.475372,385.428345 309.623764C365.576736 289.772156,338.653503 278.617142,310.576965 278.617142C282.500427 278.617142,255.577194 289.772156,235.725586 309.623764C215.873978 329.475372,204.718964 356.398605,204.718964 384.475143C204.718964 412.551682,215.873978 439.474915,235.725586 459.326523C255.577194 479.178131,282.500427 490.333145,310.576965 490.333145C338.653503 490.333145,365.576736 479.178131,385.428345 459.326523C405.279953 439.474915,416.434967 412.551682,416.434967 384.475143Z" style="stroke:rgb(25.500488%,41.000366%,88.400269%); stroke-width: 2.500000;stroke-linecap: round;stroke-linejoin: round;stroke-miterlimit: 10.000000;fill: none;"></path>
  <path d="M748.710770 1616.388306C748.710770 1588.311768,737.555756 1561.388535,717.704147 1541.536926C697.852539 1521.685318,670.929306 1510.530304,642.852768 1510.530304C614.776230 1510.530304,587.852997 1521.685318,568.001389 1541.536926C548.149780 1561.388535,536.994766 1588.311768,536.994766 1616.388306C536.994766 1644.464844,548.149780 1671.388077,568.001389 1691.239685C587.852997 1711.091293,614.776230 1722.246307,642.852768 1722.246307C670.929306 1722.246307,697.852539 1711.091293,717.704147 1691.239685C737.555756 1671.388077,748.710770 1644.464844,748.710770 1616.388306Z" style="stroke:rgb(25.500488%,41.000366%,88.400269%); stroke-width: 2.500000;stroke-linecap: round;stroke-linejoin: round;stroke-miterlimit: 10.000000;fill: none;"></path>
  <path d="M637.947845 1531.797928C637.947845 1503.721390,626.792831 1476.798157,606.941223 1456.946548C587.089615 1437.094940,560.166382 1425.939926,532.089844 1425.939926C504.013306 1425.939926,477.090073 1437.094940,457.238464 1456.946548C437.386856 1476.798157,426.231842 1503.721390,426.231842 1531.797928C426.231842 1559.874466,437.386856 1586.797699,457.238464 1606.649307C477.090073 1626.500916,504.013306 1637.655930,532.089844 1637.655930C560.166382 1637.655930,587.089615 1626.500916,606.941223 1606.649307C626.792831 1586.797699,637.947845 1559.874466,637.947845 1531.797928Z" style="stroke:rgb(25.500488%,41.000366%,88.400269%); stroke-width: 2.500000;stroke-linecap: round;stroke-linejoin: round;stroke-miterlimit: 10.000000;fill: none;"></path>
  <path d="M656.931702 1369.702042C656.931702 1341.625504,645.776688 1314.702271,625.925079 1294.850662C606.073471 1274.999054,579.150238 1263.844040,551.073700 1263.844040C522.997162 1263.844040,496.073929 1274.999054,476.222321 1294.850662C456.370712 1314.702271,445.215698 1341.625504,445.215698 1369.702042C445.215698 1397.778580,456.370712 1424.701813,476.222321 1444.553421C496.073929 1464.405029,522.997162 1475.560043,551.073700 1475.560043C579.150238 1475.560043,606.073471 1464.405029,625.925079 1444.553421C645.776688 1424.701813,656.931702 1397.778580,656.931702 1369.702042Z" style="stroke:rgb(25.500488%,41.000366%,88.400269%); stroke-width: 2.500000;stroke-linecap: round;stroke-linejoin: round;stroke-miterlimit: 10.000000;fill: none;"></path>
  <path d="M594.400482 1180.992432C594.400482 1152.915894,583.245468 1125.992661,563.393860 1106.141052C543.542252 1086.289444,516.619019 1075.134430,488.542480 1075.134430C460.465942 1075.134430,433.542709 1086.289444,413.691101 1106.141052C393.839493 1125.992661,382.684479 1152.915894,382.684479 1180.992432C382.684479 1209.068970,393.839493 1235.992203,413.691101 1255.843811C433.542709 1275.695419,460.465942 1286.850433,488.542480 1286.850433C516.619019 1286.850433,543.542252 1275.695419,563.393860 1255.843811C583.245468 1235.992203,594.400482 1209.068970,594.400482 1180.992432Z" style="stroke:rgb(25.500488%,41.000366%,88.400269%); stroke-width: 2.500000;stroke-linecap: round;stroke-linejoin: round;stroke-miterlimit: 10.000000;fill: none;"></path>
  <path d="M485.570969 1011.655945C485.570969 983.579407,474.415955 956.656174,454.564346 936.804565C434.712738 916.952957,407.789505 905.797943,379.712967 905.797943C351.636429 905.797943,324.713196 916.952957,304.861588 936.804565C285.009979 956.656174,273.854965 983.579407,273.854965 1011.655945C273.854965 1039.732483,285.009979 1066.655716,304.861588 1086.507324C324.713196 1106.358932,351.636429 1117.513947,379.712967 1117.513947C407.789505 1117.513947,434.712738 1106.358932,454.564346 1086.507324C474.415955 1066.655716,485.570969 1039.732483,485.570969 1011.655945Z" style="stroke:rgb(25.500488%,41.000366%,88.400269%); stroke-width: 2.500000;stroke-linecap: round;stroke-linejoin: round;stroke-miterlimit: 10.000000;fill: none;"></path>
  <path d="M430.293320 868.985092C430.293320 840.908554,419.138306 813.985321,399.286697 794.133713C379.435089 774.282104,352.511856 763.127090,324.435318 763.127090C296.358780 763.127090,269.435547 774.282104,249.583939 794.133713C229.732330 813.985321,218.577316 840.908554,218.577316 868.985092C218.577316 897.061630,229.732330 923.984863,249.583939 943.836472C269.435547 963.688080,296.358780 974.843094,324.435318 974.843094C352.511856 974.843094,379.435089 963.688080,399.286697 943.836472C419.138306 923.984863,430.293320 897.061630,430.293320 868.985092Z" style="stroke:rgb(25.500488%,41.000366%,88.400269%); stroke-width: 2.500000;stroke-linecap: round;stroke-linejoin: round;stroke-miterlimit: 10.000000;fill: none;"></path>
  <path d="M382.165421 713.571838C382.165421 685.495300,371.010406 658.572067,351.158798 638.720459C331.307190 618.868851,304.383957 607.713837,276.307419 607.713837C248.230881 607.713837,221.307648 618.868851,201.456039 638.720459C181.604431 658.572067,170.449417 685.495300,170.449417 713.571838C170.449417 741.648376,181.604431 768.571609,201.456039 788.423218C221.307648 808.274826,248.230881 819.429840,276.307419 819.429840C304.383957 819.429840,331.307190 808.274826,351.158798 788.423218C371.010406 768.571609,382.165421 741.648376,382.165421 713.571838Z" style="stroke:rgb(25.500488%,41.000366%,88.400269%); stroke-width: 2.500000;stroke-linecap: round;stroke-linejoin: round;stroke-miterlimit: 10.000000;fill: none;"></path>
  <path d="M319.102188 540.615067C319.102188 512.538528,307.947174 485.615295,288.095566 465.763687C268.243958 445.912079,241.320724 434.757065,213.244186 434.757065C185.167648 434.757065,158.244415 445.912079,138.392807 465.763687C118.541199 485.615295,107.386185 512.538528,107.386185 540.615067C107.386185 568.691605,118.541199 595.614838,138.392807 615.466446C158.244415 635.318054,185.167648 646.473068,213.244186 646.473068C241.320724 646.473068,268.243958 635.318054,288.095566 615.466446C307.947174 595.614838,319.102188 568.691605,319.102188 540.615067Z" style="stroke:rgb(25.500488%,41.000366%,88.400269%); stroke-width: 2.500000;stroke-linecap: round;stroke-linejoin: round;stroke-miterlimit: 10.000000;fill: none;"></path>
  <path d="M475.203171 1454.344330C475.203171 1426.267792,464.048157 1399.344559,444.196548 1379.492950C424.344940 1359.641342,397.421707 1348.486328,369.345169 1348.486328C341.268631 1348.486328,314.345398 1359.641342,294.493790 1379.492950C274.642181 1399.344559,263.487167 1426.267792,263.487167 1454.344330C263.487167 1482.420868,274.642181 1509.344101,294.493790 1529.195709C314.345398 1549.047318,341.268631 1560.202332,369.345169 1560.202332C397.421707 1560.202332,424.344940 1549.047318,444.196548 1529.195709C464.048157 1509.344101,475.203171 1482.420868,475.203171 1454.344330Z" style="stroke:rgb(25.500488%,41.000366%,88.400269%); stroke-width: 2.500000;stroke-linecap: round;stroke-linejoin: round;stroke-miterlimit: 10.000000;fill: none;"></path>
  <path d="M486.998322 1298.736420C486.998322 1270.659882,475.843307 1243.736649,455.991699 1223.885040C436.140091 1204.033432,409.216858 1192.878418,381.140320 1192.878418C353.063782 1192.878418,326.140549 1204.033432,306.288940 1223.885040C286.437332 1243.736649,275.282318 1270.659882,275.282318 1298.736420C275.282318 1326.812958,286.437332 1353.736191,306.288940 1373.587799C326.140549 1393.439407,353.063782 1404.594421,381.140320 1404.594421C409.216858 1404.594421,436.140091 1393.439407,455.991699 1373.587799C475.843307 1353.736191,486.998322 1326.812958,486.998322 1298.736420Z" style="stroke:rgb(25.500488%,41.000366%,88.400269%); stroke-width: 2.500000;stroke-linecap: round;stroke-linejoin: round;stroke-miterlimit: 10.000000;fill: none;"></path>
  <path d="M408.208206 1133.007263C408.208206 1104.930725,397.053192 1078.007492,377.201584 1058.155884C357.349976 1038.304276,330.426743 1027.149261,302.350204 1027.149261C274.273666 1027.149261,247.350433 1038.304276,227.498825 1058.155884C207.647217 1078.007492,196.492203 1104.930725,196.492203 1133.007263C196.492203 1161.083801,207.647217 1188.007034,227.498825 1207.858643C247.350433 1227.710251,274.273666 1238.865265,302.350204 1238.865265C330.426743 1238.865265,357.349976 1227.710251,377.201584 1207.858643C397.053192 1188.007034,408.208206 1161.083801,408.208206 1133.007263Z" style="stroke:rgb(25.500488%,41.000366%,88.400269%); stroke-width: 2.500000;stroke-linecap: round;stroke-linejoin: round;stroke-miterlimit: 10.000000;fill: none;"></path>
  <path d="M285.533340 985.691025C285.533340 957.614487,274.378326 930.691254,254.526718 910.839645C234.675110 890.988037,207.751877 879.833023,179.675339 879.833023C151.598801 879.833023,124.675568 890.988037,104.823959 910.839645C84.972351 930.691254,73.817337 957.614487,73.817337 985.691025C73.817337 1013.767563,84.972351 1040.690796,104.823959 1060.542404C124.675568 1080.394012,151.598801 1091.549026,179.675339 1091.549026C207.751877 1091.549026,234.675110 1080.394012,254.526718 1060.542404C274.378326 1040.690796,285.533340 1013.767563,285.533340 985.691025Z" style="stroke:rgb(25.500488%,41.000366%,88.400269%); stroke-width: 2.500000;stroke-linecap: round;stroke-linejoin: round;stroke-miterlimit: 10.000000;fill: none;"></path>
  <path d="M246.099350 857.202911C246.099350 829.126373,234.944336 802.203140,215.092728 782.351532C195.241119 762.499924,168.317886 751.344910,140.241348 751.344910C112.164810 751.344910,85.241577 762.499924,65.389969 782.351532C45.538361 802.203140,34.383347 829.126373,34.383347 857.202911C34.383347 885.279449,45.538361 912.202682,65.389969 932.054291C85.241577 951.905899,112.164810 963.060913,140.241348 963.060913C168.317886 963.060913,195.241119 951.905899,215.092728 932.054291C234.944336 912.202682,246.099350 885.279449,246.099350 857.202911Z" style="stroke:rgb(25.500488%,41.000366%,88.400269%); stroke-width: 2.500000;stroke-linecap: round;stroke-linejoin: round;stroke-miterlimit: 10.000000;fill: none;"></path>
  <path d="M211.998474 701.530136C211.998474 673.453598,200.843460 646.530365,180.991852 626.678757C161.140244 606.827148,134.217010 595.672134,106.140472 595.672134C78.063934 595.672134,51.140701 606.827148,31.289093 626.678757C11.437485 646.530365,0.282471 673.453598,0.282471 701.530136C0.282471 729.606674,11.437485 756.529907,31.289093 776.381516C51.140701 796.233124,78.063934 807.388138,106.140472 807.388138C134.217010 807.388138,161.140244 796.233124,180.991852 776.381516C200.843460 756.529907,211.998474 729.606674,211.998474 701.530136Z" style="stroke:rgb(25.500488%,41.000366%,88.400269%); stroke-width: 2.500000;stroke-linecap: round;stroke-linejoin: round;stroke-miterlimit: 10.000000;fill: none;"></path>
  <path d="M331.091980 1318.096588C331.091980 1290.020050,319.936966 1263.096817,300.085358 1243.245209C280.233749 1223.393600,253.310516 1212.238586,225.233978 1212.238586C197.157440 1212.238586,170.234207 1223.393600,150.382599 1243.245209C130.530991 1263.096817,119.375977 1290.020050,119.375977 1318.096588C119.375977 1346.173126,130.530991 1373.096359,150.382599 1392.947968C170.234207 1412.799576,197.157440 1423.954590,225.233978 1423.954590C253.310516 1423.954590,280.233749 1412.799576,300.085358 1392.947968C319.936966 1373.096359,331.091980 1346.173126,331.091980 1318.096588Z" style="stroke:rgb(25.500488%,41.000366%,88.400269%); stroke-width: 2.500000;stroke-linecap: round;stroke-linejoin: round;stroke-miterlimit: 10.000000;fill: none;"></path>
  <path d="M250.160828 1153.794785C250.160828 1125.718246,239.005814 1098.795013,219.154205 1078.943405C199.302597 1059.091797,172.379364 1047.936783,144.302826 1047.936783C116.226288 1047.936783,89.303055 1059.091797,69.451447 1078.943405C49.599838 1098.795013,38.444824 1125.718246,38.444824 1153.794785C38.444824 1181.871323,49.599838 1208.794556,69.451447 1228.646164C89.303055 1248.497772,116.226288 1259.652786,144.302826 1259.652786C172.379364 1259.652786,199.302597 1248.497772,219.154205 1228.646164C239.005814 1208.794556,250.160828 1181.871323,250.160828 1153.794785Z" style="stroke:rgb(25.500488%,41.000366%,88.400269%); stroke-width: 2.500000;stroke-linecap: round;stroke-linejoin: round;stroke-miterlimit: 10.000000;fill: none;"></path>
</svg>
