<?xml version="1.0"?>
<!-- Created by MetaPost 2.00 on 2022.03.02:1201 -->
<svg version="1.1" xmlns="http://www.w3.org/2000/svg" xmlns:xlink="http://www.w3.org/1999/xlink" width="1803.279907" height="1856.066193" viewBox="0 0 1803.279907 1856.066193">
<!-- Original BoundingBox: -901.639954 -928.033096 901.639954 928.033096 -->
  <path d="M1751.393524 928.000000L1502.319672 326.680328L901.000000 77.606476L299.680328 326.680328L50.606476 928.000000L299.680328 1529.319672L901.000000 1778.393524L1502.319672 1529.319672L1751.393524 928.000000Z" style="fill: rgb(100.000000%,100.000000%,100.000000%);stroke: none;"></path>
  <path d="M1751.393524 928.000000L1502.319672 326.680328" style="stroke:rgb(0.000000%,0.000000%,0.000000%); stroke-width: 2.500000;stroke-linecap: round;stroke-linejoin: round;stroke-miterlimit: 10.000000;fill: none;"></path>
  <path d="M1502.319672 326.680328L901.000000 77.606476" style="stroke:rgb(0.000000%,0.000000%,0.000000%); stroke-width: 2.500000;stroke-linecap: round;stroke-linejoin: round;stroke-miterlimit: 10.000000;fill: none;"></path>
  <path d="M901.000000 77.606476L299.680328 326.680328" style="stroke:rgb(0.000000%,0.000000%,0.000000%); stroke-width: 2.500000;stroke-linecap: round;stroke-linejoin: round;stroke-miterlimit: 10.000000;fill: none;"></path>
  <path d="M299.680328 326.680328L50.606476 928.000000" style="stroke:rgb(0.000000%,0.000000%,0.000000%); stroke-width: 2.500000;stroke-linecap: round;stroke-linejoin: round;stroke-miterlimit: 10.000000;fill: none;"></path>
  <path d="M50.606476 928.000000L299.680328 1529.319672" style="stroke:rgb(0.000000%,0.000000%,0.000000%); stroke-width: 2.500000;stroke-linecap: round;stroke-linejoin: round;stroke-miterlimit: 10.000000;fill: none;"></path>
  <path d="M299.680328 1529.319672L901.000000 1778.393524" style="stroke:rgb(0.000000%,0.000000%,0.000000%); stroke-width: 2.500000;stroke-linecap: round;stroke-linejoin: round;stroke-miterlimit: 10.000000;fill: none;"></path>
  <path d="M901.000000 1778.393524L1502.319672 1529.319672" style="stroke:rgb(0.000000%,0.000000%,0.000000%); stroke-width: 2.500000;stroke-linecap: round;stroke-linejoin: round;stroke-miterlimit: 10.000000;fill: none;"></path>
  <path d="M1502.319672 1529.319672L1751.393524 928.000000" style="stroke:rgb(0.000000%,0.000000%,0.000000%); stroke-width: 2.500000;stroke-linecap: round;stroke-linejoin: round;stroke-miterlimit: 10.000000;fill: none;"></path>
  <path d="M542.149399 1458.315140C542.149399 1412.008469,523.751404 1367.603943,491.010132 1334.862656C458.268845 1302.121384,413.864319 1283.723389,367.557648 1283.723389C321.250977 1283.723389,276.846451 1302.121384,244.105164 1334.862656C211.363892 1367.603943,192.965897 1412.008469,192.965897 1458.315140C192.965897 1504.621811,211.363892 1549.026337,244.105164 1581.767624C276.846451 1614.508896,321.250977 1632.906891,367.557648 1632.906891C413.864319 1632.906891,458.268845 1614.508896,491.010132 1581.767624C523.751404 1549.026337,542.149399 1504.621811,542.149399 1458.315140Z" style="stroke:rgb(25.500488%,41.000366%,88.400269%); stroke-width: 2.500000;stroke-linecap: round;stroke-linejoin: round;stroke-miterlimit: 10.000000;fill: none;"></path>
  <path d="M814.203705 1559.034653C814.203705 1512.727982,795.805710 1468.323456,763.064438 1435.582169C730.323151 1402.840897,685.918625 1384.442902,639.611954 1384.442902C593.305283 1384.442902,548.900757 1402.840897,516.159470 1435.582169C483.418198 1468.323456,465.020203 1512.727982,465.020203 1559.034653C465.020203 1605.341324,483.418198 1649.745850,516.159470 1682.487137C548.900757 1715.228409,593.305283 1733.626404,639.611954 1733.626404C685.918625 1733.626404,730.323151 1715.228409,763.064438 1682.487137C795.805710 1649.745850,814.203705 1605.341324,814.203705 1559.034653Z" style="stroke:rgb(25.500488%,41.000366%,88.400269%); stroke-width: 2.500000;stroke-linecap: round;stroke-linejoin: round;stroke-miterlimit: 10.000000;fill: none;"></path>
  <path d="M1077.797668 1680.191345C1077.797668 1633.884674,1059.399673 1589.480148,1026.658401 1556.738861C993.917114 1523.997589,949.512589 1505.599594,903.205917 1505.599594C856.899246 1505.599594,812.494720 1523.997589,779.753433 1556.738861C747.012161 1589.480148,728.614166 1633.884674,728.614166 1680.191345C728.614166 1726.498016,747.012161 1770.902542,779.753433 1803.643829C812.494720 1836.385101,856.899246 1854.783096,903.205917 1854.783096C949.512589 1854.783096,993.917114 1836.385101,1026.658401 1803.643829C1059.399673 1770.902542,1077.797668 1726.498016,1077.797668 1680.191345Z" style="stroke:rgb(25.500488%,41.000366%,88.400269%); stroke-width: 2.500000;stroke-linecap: round;stroke-linejoin: round;stroke-miterlimit: 10.000000;fill: none;"></path>
  <path d="M437.394348 1183.496948C437.394348 1137.190277,418.996353 1092.785751,386.255081 1060.044464C353.513794 1027.303192,309.109268 1008.905197,262.802597 1008.905197C216.495926 1008.905197,172.091400 1027.303192,139.350113 1060.044464C106.608841 1092.785751,88.210846 1137.190277,88.210846 1183.496948C88.210846 1229.803619,106.608841 1274.208145,139.350113 1306.949432C172.091400 1339.690704,216.495926 1358.088699,262.802597 1358.088699C309.109268 1358.088699,353.513794 1339.690704,386.255081 1306.949432C418.996353 1274.208145,437.394348 1229.803619,437.394348 1183.496948Z" style="stroke:rgb(25.500488%,41.000366%,88.400269%); stroke-width: 2.500000;stroke-linecap: round;stroke-linejoin: round;stroke-miterlimit: 10.000000;fill: none;"></path>
  <path d="M752.126633 1279.960358C752.126633 1233.653687,733.728638 1189.249161,700.987366 1156.507874C668.246078 1123.766602,623.841553 1105.368607,577.534882 1105.368607C531.228210 1105.368607,486.823685 1123.766602,454.082397 1156.507874C421.341125 1189.249161,402.943130 1233.653687,402.943130 1279.960358C402.943130 1326.267029,421.341125 1370.671555,454.082397 1403.412842C486.823685 1436.154114,531.228210 1454.552109,577.534882 1454.552109C623.841553 1454.552109,668.246078 1436.154114,700.987366 1403.412842C733.728638 1370.671555,752.126633 1326.267029,752.126633 1279.960358Z" style="stroke:rgb(25.500488%,41.000366%,88.400269%); stroke-width: 2.500000;stroke-linecap: round;stroke-linejoin: round;stroke-miterlimit: 10.000000;fill: none;"></path>
  <path d="M1055.440063 1405.593750C1055.440063 1359.287079,1037.042068 1314.882553,1004.300797 1282.141266C971.559509 1249.399994,927.154984 1231.001999,880.848312 1231.001999C834.541641 1231.001999,790.137115 1249.399994,757.395828 1282.141266C724.654556 1314.882553,706.256561 1359.287079,706.256561 1405.593750C706.256561 1451.900421,724.654556 1496.304947,757.395828 1529.046234C790.137115 1561.787506,834.541641 1580.185501,880.848312 1580.185501C927.154984 1580.185501,971.559509 1561.787506,1004.300797 1529.046234C1037.042068 1496.304947,1055.440063 1451.900421,1055.440063 1405.593750Z" style="stroke:rgb(25.500488%,41.000366%,88.400269%); stroke-width: 2.500000;stroke-linecap: round;stroke-linejoin: round;stroke-miterlimit: 10.000000;fill: none;"></path>
  <path d="M1346.205719 1559.942978C1346.205719 1513.636307,1327.807724 1469.231781,1295.066452 1436.490494C1262.325165 1403.749222,1217.920639 1385.351227,1171.613968 1385.351227C1125.307297 1385.351227,1080.902771 1403.749222,1048.161484 1436.490494C1015.420212 1469.231781,997.022217 1513.636307,997.022217 1559.942978C997.022217 1606.249649,1015.420212 1650.654175,1048.161484 1683.395462C1080.902771 1716.136734,1125.307297 1734.534729,1171.613968 1734.534729C1217.920639 1734.534729,1262.325165 1716.136734,1295.066452 1683.395462C1327.807724 1650.654175,1346.205719 1606.249649,1346.205719 1559.942978Z" style="stroke:rgb(25.500488%,41.000366%,88.400269%); stroke-width: 2.500000;stroke-linecap: round;stroke-linejoin: round;stroke-miterlimit: 10.000000;fill: none;"></path>
  <path d="M377.107971 935.655823C377.107971 889.349152,358.709976 844.944626,325.968704 812.203339C293.227417 779.462067,248.822891 761.064072,202.516220 761.064072C156.209549 761.064072,111.805023 779.462067,79.063736 812.203339C46.322464 844.944626,27.924469 889.349152,27.924469 935.655823C27.924469 981.962494,46.322464 1026.367020,79.063736 1059.108307C111.805023 1091.849579,156.209549 1110.247574,202.516220 1110.247574C248.822891 1110.247574,293.227417 1091.849579,325.968704 1059.108307C358.709976 1026.367020,377.107971 981.962494,377.107971 935.655823Z" style="stroke:rgb(25.500488%,41.000366%,88.400269%); stroke-width: 2.500000;stroke-linecap: round;stroke-linejoin: round;stroke-miterlimit: 10.000000;fill: none;"></path>
  <path d="M677.981918 1014.497849C677.981918 968.191177,659.583923 923.786652,626.842651 891.045364C594.101364 858.304092,549.696838 839.906097,503.390167 839.906097C457.083496 839.906097,412.678970 858.304092,379.937683 891.045364C347.196411 923.786652,328.798416 968.191177,328.798416 1014.497849C328.798416 1060.804520,347.196411 1105.209045,379.937683 1137.950333C412.678970 1170.691605,457.083496 1189.089600,503.390167 1189.089600C549.696838 1189.089600,594.101364 1170.691605,626.842651 1137.950333C659.583923 1105.209045,677.981918 1060.804520,677.981918 1014.497849Z" style="stroke:rgb(25.500488%,41.000366%,88.400269%); stroke-width: 2.500000;stroke-linecap: round;stroke-linejoin: round;stroke-miterlimit: 10.000000;fill: none;"></path>
  <path d="M992.597412 1128.375015C992.597412 1082.068344,974.199417 1037.663818,941.458145 1004.922531C908.716858 972.181259,864.312332 953.783264,818.005661 953.783264C771.698990 953.783264,727.294464 972.181259,694.553177 1004.922531C661.811905 1037.663818,643.413910 1082.068344,643.413910 1128.375015C643.413910 1174.681686,661.811905 1219.086212,694.553177 1251.827499C727.294464 1284.568771,771.698990 1302.966766,818.005661 1302.966766C864.312332 1302.966766,908.716858 1284.568771,941.458145 1251.827499C974.199417 1219.086212,992.597412 1174.681686,992.597412 1128.375015Z" style="stroke:rgb(25.500488%,41.000366%,88.400269%); stroke-width: 2.500000;stroke-linecap: round;stroke-linejoin: round;stroke-miterlimit: 10.000000;fill: none;"></path>
  <path d="M1295.586441 1270.319214C1295.586441 1224.012543,1277.188446 1179.608017,1244.447174 1146.866730C1211.705887 1114.125458,1167.301361 1095.727463,1120.994690 1095.727463C1074.688019 1095.727463,1030.283493 1114.125458,997.542206 1146.866730C964.800934 1179.608017,946.402939 1224.012543,946.402939 1270.319214C946.402939 1316.625885,964.800934 1361.030411,997.542206 1393.771698C1030.283493 1426.512970,1074.688019 1444.910965,1120.994690 1444.910965C1167.301361 1444.910965,1211.705887 1426.512970,1244.447174 1393.771698C1277.188446 1361.030411,1295.586441 1316.625885,1295.586441 1270.319214Z" style="stroke:rgb(25.500488%,41.000366%,88.400269%); stroke-width: 2.500000;stroke-linecap: round;stroke-linejoin: round;stroke-miterlimit: 10.000000;fill: none;"></path>
  <path d="M1564.085327 1427.315536C1564.085327 1381.008865,1545.687332 1336.604340,1512.946060 1303.863052C1480.204773 1271.121780,1435.800247 1252.723785,1389.493576 1252.723785C1343.186905 1252.723785,1298.782379 1271.121780,1266.041092 1303.863052C1233.299820 1336.604340,1214.901825 1381.008865,1214.901825 1427.315536C1214.901825 1473.622208,1233.299820 1518.026733,1266.041092 1550.768021C1298.782379 1583.509293,1343.186905 1601.907288,1389.493576 1601.907288C1435.800247 1601.907288,1480.204773 1583.509293,1512.946060 1550.768021C1545.687332 1518.026733,1564.085327 1473.622208,1564.085327 1427.315536Z" style="stroke:rgb(25.500488%,41.000366%,88.400269%); stroke-width: 2.500000;stroke-linecap: round;stroke-linejoin: round;stroke-miterlimit: 10.000000;fill: none;"></path>
  <path d="M349.793549 627.359619C349.793549 581.052948,331.395554 536.648422,298.654282 503.907135C265.912994 471.165863,221.508469 452.767868,175.201797 452.767868C128.895126 452.767868,84.490601 471.165863,51.749313 503.907135C19.008041 536.648422,0.610046 581.052948,0.610046 627.359619C0.610046 673.666290,19.008041 718.070816,51.749313 750.812103C84.490601 783.553375,128.895126 801.951370,175.201797 801.951370C221.508469 801.951370,265.912994 783.553375,298.654282 750.812103C331.395554 718.070816,349.793549 673.666290,349.793549 627.359619Z" style="stroke:rgb(25.500488%,41.000366%,88.400269%); stroke-width: 2.500000;stroke-linecap: round;stroke-linejoin: round;stroke-miterlimit: 10.000000;fill: none;"></path>
  <path d="M614.490463 737.006622C614.490463 690.699951,596.092468 646.295425,563.351196 613.554138C530.609909 580.812866,486.205383 562.414871,439.898712 562.414871C393.592041 562.414871,349.187515 580.812866,316.446228 613.554138C283.704956 646.295425,265.306961 690.699951,265.306961 737.006622C265.306961 783.313293,283.704956 827.717819,316.446228 860.459106C349.187515 893.200378,393.592041 911.598373,439.898712 911.598373C486.205383 911.598373,530.609909 893.200378,563.351196 860.459106C596.092468 827.717819,614.490463 783.313293,614.490463 737.006622Z" style="stroke:rgb(25.500488%,41.000366%,88.400269%); stroke-width: 2.500000;stroke-linecap: round;stroke-linejoin: round;stroke-miterlimit: 10.000000;fill: none;"></path>
  <path d="M919.101486 863.184998C919.101486 816.878326,900.703491 772.473801,867.962219 739.732513C835.220932 706.991241,790.816406 688.593246,744.509735 688.593246C698.203064 688.593246,653.798538 706.991241,621.057251 739.732513C588.315979 772.473801,569.917984 816.878326,569.917984 863.184998C569.917984 909.491669,588.315979 953.896194,621.057251 986.637482C653.798538 1019.378754,698.203064 1037.776749,744.509735 1037.776749C790.816406 1037.776749,835.220932 1019.378754,867.962219 986.637482C900.703491 953.896194,919.101486 909.491669,919.101486 863.184998Z" style="stroke:rgb(25.500488%,41.000366%,88.400269%); stroke-width: 2.500000;stroke-linecap: round;stroke-linejoin: round;stroke-miterlimit: 10.000000;fill: none;"></path>
  <path d="M1232.082016 992.815002C1232.082016 946.508331,1213.684021 902.103806,1180.942749 869.362518C1148.201462 836.621246,1103.796936 818.223251,1057.490265 818.223251C1011.183594 818.223251,966.779068 836.621246,934.037781 869.362518C901.296509 902.103806,882.898514 946.508331,882.898514 992.815002C882.898514 1039.121674,901.296509 1083.526199,934.037781 1116.267487C966.779068 1149.008759,1011.183594 1167.406754,1057.490265 1167.406754C1103.796936 1167.406754,1148.201462 1149.008759,1180.942749 1116.267487C1213.684021 1083.526199,1232.082016 1039.121674,1232.082016 992.815002Z" style="stroke:rgb(25.500488%,41.000366%,88.400269%); stroke-width: 2.500000;stroke-linecap: round;stroke-linejoin: round;stroke-miterlimit: 10.000000;fill: none;"></path>
  <path d="M1536.693039 1118.993378C1536.693039 1072.686707,1518.295044 1028.282181,1485.553772 995.540894C1452.812485 962.799622,1408.407959 944.401627,1362.101288 944.401627C1315.794617 944.401627,1271.390091 962.799622,1238.648804 995.540894C1205.907532 1028.282181,1187.509537 1072.686707,1187.509537 1118.993378C1187.509537 1165.300049,1205.907532 1209.704575,1238.648804 1242.445862C1271.390091 1275.187134,1315.794617 1293.585129,1362.101288 1293.585129C1408.407959 1293.585129,1452.812485 1275.187134,1485.553772 1242.445862C1518.295044 1209.704575,1536.693039 1165.300049,1536.693039 1118.993378Z" style="stroke:rgb(25.500488%,41.000366%,88.400269%); stroke-width: 2.500000;stroke-linecap: round;stroke-linejoin: round;stroke-miterlimit: 10.000000;fill: none;"></path>
  <path d="M1801.389954 1228.640381C1801.389954 1182.333710,1782.991959 1137.929184,1750.250687 1105.187897C1717.509399 1072.446625,1673.104874 1054.048630,1626.798203 1054.048630C1580.491531 1054.048630,1536.087006 1072.446625,1503.345718 1105.187897C1470.604446 1137.929184,1452.206451 1182.333710,1452.206451 1228.640381C1452.206451 1274.947052,1470.604446 1319.351578,1503.345718 1352.092865C1536.087006 1384.834137,1580.491531 1403.232132,1626.798203 1403.232132C1673.104874 1403.232132,1717.509399 1384.834137,1750.250687 1352.092865C1782.991959 1319.351578,1801.389954 1274.947052,1801.389954 1228.640381Z" style="stroke:rgb(25.500488%,41.000366%,88.400269%); stroke-width: 2.500000;stroke-linecap: round;stroke-linejoin: round;stroke-miterlimit: 10.000000;fill: none;"></path>
  <path d="M587.098175 428.684464C587.098175 382.377792,568.700180 337.973267,535.958908 305.231979C503.217621 272.490707,458.813095 254.092712,412.506424 254.092712C366.199753 254.092712,321.795227 272.490707,289.053940 305.231979C256.312668 337.973267,237.914673 382.377792,237.914673 428.684464C237.914673 474.991135,256.312668 519.395660,289.053940 552.136948C321.795227 584.878220,366.199753 603.276215,412.506424 603.276215C458.813095 603.276215,503.217621 584.878220,535.958908 552.136948C568.700180 519.395660,587.098175 474.991135,587.098175 428.684464Z" style="stroke:rgb(25.500488%,41.000366%,88.400269%); stroke-width: 2.500000;stroke-linecap: round;stroke-linejoin: round;stroke-miterlimit: 10.000000;fill: none;"></path>
  <path d="M855.597061 585.680786C855.597061 539.374115,837.199066 494.969589,804.457794 462.228302C771.716507 429.487030,727.311981 411.089035,681.005310 411.089035C634.698639 411.089035,590.294113 429.487030,557.552826 462.228302C524.811554 494.969589,506.413559 539.374115,506.413559 585.680786C506.413559 631.987457,524.811554 676.391983,557.552826 709.133270C590.294113 741.874542,634.698639 760.272537,681.005310 760.272537C727.311981 760.272537,771.716507 741.874542,804.457794 709.133270C837.199066 676.391983,855.597061 631.987457,855.597061 585.680786Z" style="stroke:rgb(25.500488%,41.000366%,88.400269%); stroke-width: 2.500000;stroke-linecap: round;stroke-linejoin: round;stroke-miterlimit: 10.000000;fill: none;"></path>
  <path d="M1158.586090 727.624985C1158.586090 681.318314,1140.188095 636.913788,1107.446823 604.172501C1074.705536 571.431229,1030.301010 553.033234,983.994339 553.033234C937.687668 553.033234,893.283142 571.431229,860.541855 604.172501C827.800583 636.913788,809.402588 681.318314,809.402588 727.624985C809.402588 773.931656,827.800583 818.336182,860.541855 851.077469C893.283142 883.818741,937.687668 902.216736,983.994339 902.216736C1030.301010 902.216736,1074.705536 883.818741,1107.446823 851.077469C1140.188095 818.336182,1158.586090 773.931656,1158.586090 727.624985Z" style="stroke:rgb(25.500488%,41.000366%,88.400269%); stroke-width: 2.500000;stroke-linecap: round;stroke-linejoin: round;stroke-miterlimit: 10.000000;fill: none;"></path>
  <path d="M1473.201584 841.502151C1473.201584 795.195480,1454.803589 750.790955,1422.062317 718.049667C1389.321030 685.308395,1344.916504 666.910400,1298.609833 666.910400C1252.303162 666.910400,1207.898636 685.308395,1175.157349 718.049667C1142.416077 750.790955,1124.018082 795.195480,1124.018082 841.502151C1124.018082 887.808823,1142.416077 932.213348,1175.157349 964.954636C1207.898636 997.695908,1252.303162 1016.093903,1298.609833 1016.093903C1344.916504 1016.093903,1389.321030 997.695908,1422.062317 964.954636C1454.803589 932.213348,1473.201584 887.808823,1473.201584 841.502151Z" style="stroke:rgb(25.500488%,41.000366%,88.400269%); stroke-width: 2.500000;stroke-linecap: round;stroke-linejoin: round;stroke-miterlimit: 10.000000;fill: none;"></path>
  <path d="M1774.075531 920.344177C1774.075531 874.037506,1755.677536 829.632980,1722.936264 796.891693C1690.194977 764.150421,1645.790451 745.752426,1599.483780 745.752426C1553.177109 745.752426,1508.772583 764.150421,1476.031296 796.891693C1443.290024 829.632980,1424.892029 874.037506,1424.892029 920.344177C1424.892029 966.650848,1443.290024 1011.055374,1476.031296 1043.796661C1508.772583 1076.537933,1553.177109 1094.935928,1599.483780 1094.935928C1645.790451 1094.935928,1690.194977 1076.537933,1722.936264 1043.796661C1755.677536 1011.055374,1774.075531 966.650848,1774.075531 920.344177Z" style="stroke:rgb(25.500488%,41.000366%,88.400269%); stroke-width: 2.500000;stroke-linecap: round;stroke-linejoin: round;stroke-miterlimit: 10.000000;fill: none;"></path>
  <path d="M804.977783 296.057022C804.977783 249.750351,786.579788 205.345825,753.838516 172.604538C721.097229 139.863266,676.692703 121.465271,630.386032 121.465271C584.079361 121.465271,539.674835 139.863266,506.933548 172.604538C474.192276 205.345825,455.794281 249.750351,455.794281 296.057022C455.794281 342.363693,474.192276 386.768219,506.933548 419.509506C539.674835 452.250778,584.079361 470.648773,630.386032 470.648773C676.692703 470.648773,721.097229 452.250778,753.838516 419.509506C786.579788 386.768219,804.977783 342.363693,804.977783 296.057022Z" style="stroke:rgb(25.500488%,41.000366%,88.400269%); stroke-width: 2.500000;stroke-linecap: round;stroke-linejoin: round;stroke-miterlimit: 10.000000;fill: none;"></path>
  <path d="M1095.743439 450.406250C1095.743439 404.099579,1077.345444 359.695053,1044.604172 326.953766C1011.862885 294.212494,967.458359 275.814499,921.151688 275.814499C874.845016 275.814499,830.440491 294.212494,797.699203 326.953766C764.957932 359.695053,746.559937 404.099579,746.559937 450.406250C746.559937 496.712921,764.957932 541.117447,797.699203 573.858734C830.440491 606.600006,874.845016 624.998001,921.151688 624.998001C967.458359 624.998001,1011.862885 606.600006,1044.604172 573.858734C1077.345444 541.117447,1095.743439 496.712921,1095.743439 450.406250Z" style="stroke:rgb(25.500488%,41.000366%,88.400269%); stroke-width: 2.500000;stroke-linecap: round;stroke-linejoin: round;stroke-miterlimit: 10.000000;fill: none;"></path>
  <path d="M1399.056870 576.039642C1399.056870 529.732971,1380.658875 485.328445,1347.917603 452.587158C1315.176315 419.845886,1270.771790 401.447891,1224.465118 401.447891C1178.158447 401.447891,1133.753922 419.845886,1101.012634 452.587158C1068.271362 485.328445,1049.873367 529.732971,1049.873367 576.039642C1049.873367 622.346313,1068.271362 666.750839,1101.012634 699.492126C1133.753922 732.233398,1178.158447 750.631393,1224.465118 750.631393C1270.771790 750.631393,1315.176315 732.233398,1347.917603 699.492126C1380.658875 666.750839,1399.056870 622.346313,1399.056870 576.039642Z" style="stroke:rgb(25.500488%,41.000366%,88.400269%); stroke-width: 2.500000;stroke-linecap: round;stroke-linejoin: round;stroke-miterlimit: 10.000000;fill: none;"></path>
  <path d="M1713.789154 672.503052C1713.789154 626.196381,1695.391159 581.791855,1662.649887 549.050568C1629.908600 516.309296,1585.504074 497.911301,1539.197403 497.911301C1492.890732 497.911301,1448.486206 516.309296,1415.744919 549.050568C1383.003647 581.791855,1364.605652 626.196381,1364.605652 672.503052C1364.605652 718.809723,1383.003647 763.214249,1415.744919 795.955536C1448.486206 828.696808,1492.890732 847.094803,1539.197403 847.094803C1585.504074 847.094803,1629.908600 828.696808,1662.649887 795.955536C1695.391159 763.214249,1713.789154 718.809723,1713.789154 672.503052Z" style="stroke:rgb(25.500488%,41.000366%,88.400269%); stroke-width: 2.500000;stroke-linecap: round;stroke-linejoin: round;stroke-miterlimit: 10.000000;fill: none;"></path>
  <path d="M1073.385834 175.808655C1073.385834 129.501984,1054.987839 85.097458,1022.246567 52.356171C989.505280 19.614899,945.100754 1.216904,898.794083 1.216904C852.487411 1.216904,808.082886 19.614899,775.341599 52.356171C742.600327 85.097458,724.202332 129.501984,724.202332 175.808655C724.202332 222.115326,742.600327 266.519852,775.341599 299.261139C808.082886 332.002411,852.487411 350.400406,898.794083 350.400406C945.100754 350.400406,989.505280 332.002411,1022.246567 299.261139C1054.987839 266.519852,1073.385834 222.115326,1073.385834 175.808655Z" style="stroke:rgb(25.500488%,41.000366%,88.400269%); stroke-width: 2.500000;stroke-linecap: round;stroke-linejoin: round;stroke-miterlimit: 10.000000;fill: none;"></path>
  <path d="M1336.979797 296.965347C1336.979797 250.658676,1318.581802 206.254150,1285.840530 173.512863C1253.099243 140.771591,1208.694717 122.373596,1162.388046 122.373596C1116.081375 122.373596,1071.676849 140.771591,1038.935562 173.512863C1006.194290 206.254150,987.796295 250.658676,987.796295 296.965347C987.796295 343.272018,1006.194290 387.676544,1038.935562 420.417831C1071.676849 453.159103,1116.081375 471.557098,1162.388046 471.557098C1208.694717 471.557098,1253.099243 453.159103,1285.840530 420.417831C1318.581802 387.676544,1336.979797 343.272018,1336.979797 296.965347Z" style="stroke:rgb(25.500488%,41.000366%,88.400269%); stroke-width: 2.500000;stroke-linecap: round;stroke-linejoin: round;stroke-miterlimit: 10.000000;fill: none;"></path>
  <path d="M1609.034103 397.684860C1609.034103 351.378189,1590.636108 306.973663,1557.894836 274.232376C1525.153549 241.491104,1480.749023 223.093109,1434.442352 223.093109C1388.135681 223.093109,1343.731155 241.491104,1310.989868 274.232376C1278.248596 306.973663,1259.850601 351.378189,1259.850601 397.684860C1259.850601 443.991531,1278.248596 488.396057,1310.989868 521.137344C1343.731155 553.878616,1388.135681 572.276611,1434.442352 572.276611C1480.749023 572.276611,1525.153549 553.878616,1557.894836 521.137344C1590.636108 488.396057,1609.034103 443.991531,1609.034103 397.684860Z" style="stroke:rgb(25.500488%,41.000366%,88.400269%); stroke-width: 2.500000;stroke-linecap: round;stroke-linejoin: round;stroke-miterlimit: 10.000000;fill: none;"></path>
</svg>
