<?xml version="1.0"?>
<!-- Created by MetaPost 2.00 on 2022.03.02:1201 -->
<svg version="1.1" xmlns="http://www.w3.org/2000/svg" xmlns:xlink="http://www.w3.org/1999/xlink" width="1879.941956" height="1835.512238" viewBox="0 0 1879.941956 1835.512238">
<!-- Original BoundingBox: -939.970978 -917.756119 939.970978 917.756119 -->
  <path d="M1789.393524 917.000000L1364.196762 180.535538L513.803238 180.535538L88.606476 917.000000L513.803238 1653.464462L1364.196762 1653.464462L1789.393524 917.000000Z" style="fill: rgb(100.000000%,100.000000%,100.000000%);stroke: none;"></path>
  <path d="M1789.393524 917.000000L1364.196762 180.535538" style="stroke:rgb(0.000000%,0.000000%,0.000000%); stroke-width: 2.500000;stroke-linecap: round;stroke-linejoin: round;stroke-miterlimit: 10.000000;fill: none;"></path>
  <path d="M1364.196762 180.535538L513.803238 180.535538" style="stroke:rgb(0.000000%,0.000000%,0.000000%); stroke-width: 2.500000;stroke-linecap: round;stroke-linejoin: round;stroke-miterlimit: 10.000000;fill: none;"></path>
  <path d="M513.803238 180.535538L88.606476 917.000000" style="stroke:rgb(0.000000%,0.000000%,0.000000%); stroke-width: 2.500000;stroke-linecap: round;stroke-linejoin: round;stroke-miterlimit: 10.000000;fill: none;"></path>
  <path d="M88.606476 917.000000L513.803238 1653.464462" style="stroke:rgb(0.000000%,0.000000%,0.000000%); stroke-width: 2.500000;stroke-linecap: round;stroke-linejoin: round;stroke-miterlimit: 10.000000;fill: none;"></path>
  <path d="M513.803238 1653.464462L1364.196762 1653.464462" style="stroke:rgb(0.000000%,0.000000%,0.000000%); stroke-width: 2.500000;stroke-linecap: round;stroke-linejoin: round;stroke-miterlimit: 10.000000;fill: none;"></path>
  <path d="M1364.196762 1653.464462L1789.393524 917.000000" style="stroke:rgb(0.000000%,0.000000%,0.000000%); stroke-width: 2.500000;stroke-linecap: round;stroke-linejoin: round;stroke-miterlimit: 10.000000;fill: none;"></path>
  <path d="M1877.720978 1041.984589C1877.720978 960.700989,1845.426392 882.756271,1787.954544 825.284439C1730.482712 767.812592,1652.537994 735.518005,1571.254395 735.518005C1489.970795 735.518005,1412.026077 767.812592,1354.554245 825.284439C1297.082397 882.756271,1264.787811 960.700989,1264.787811 1041.984589C1264.787811 1123.268188,1297.082397 1201.212906,1354.554245 1258.684738C1412.026077 1316.156586,1489.970795 1348.451172,1571.254395 1348.451172C1652.537994 1348.451172,1730.482712 1316.156586,1787.954544 1258.684738C1845.426392 1201.212906,1877.720978 1123.268188,1877.720978 1041.984589Z" style="stroke:rgb(25.500488%,41.000366%,88.400269%); stroke-width: 2.500000;stroke-linecap: round;stroke-linejoin: round;stroke-miterlimit: 10.000000;fill: none;"></path>
  <path d="M1728.588104 638.068436C1728.588104 556.784836,1696.293518 478.840118,1638.821671 421.368286C1581.349838 363.896439,1503.405121 331.601852,1422.121521 331.601852C1340.837921 331.601852,1262.893204 363.896439,1205.421371 421.368286C1147.949524 478.840118,1115.654938 556.784836,1115.654938 638.068436C1115.654938 719.352036,1147.949524 797.296753,1205.421371 854.768585C1262.893204 912.240433,1340.837921 944.535019,1422.121521 944.535019C1503.405121 944.535019,1581.349838 912.240433,1638.821671 854.768585C1696.293518 797.296753,1728.588104 719.352036,1728.588104 638.068436Z" style="stroke:rgb(25.500488%,41.000366%,88.400269%); stroke-width: 2.500000;stroke-linecap: round;stroke-linejoin: round;stroke-miterlimit: 10.000000;fill: none;"></path>
  <path d="M1453.367661 306.960464C1453.367661 225.676865,1421.073074 147.732147,1363.601227 90.260315C1306.129395 32.788467,1228.184677 0.493881,1146.901077 0.493881C1065.617477 0.493881,987.672760 32.788467,930.200928 90.260315C872.729080 147.732147,840.434494 225.676865,840.434494 306.960464C840.434494 388.244064,872.729080 466.188782,930.200928 523.660614C987.672760 581.132462,1065.617477 613.427048,1146.901077 613.427048C1228.184677 613.427048,1306.129395 581.132462,1363.601227 523.660614C1421.073074 466.188782,1453.367661 388.244064,1453.367661 306.960464Z" style="stroke:rgb(25.500488%,41.000366%,88.400269%); stroke-width: 2.500000;stroke-linecap: round;stroke-linejoin: round;stroke-miterlimit: 10.000000;fill: none;"></path>
  <path d="M1582.167191 1500.179260C1582.167191 1418.895660,1549.872604 1340.950943,1492.400757 1283.479111C1434.928925 1226.007263,1356.984207 1193.712677,1275.700607 1193.712677C1194.417007 1193.712677,1116.472290 1226.007263,1059.000458 1283.479111C1001.528610 1340.950943,969.234024 1418.895660,969.234024 1500.179260C969.234024 1581.462860,1001.528610 1659.407578,1059.000458 1716.879410C1116.472290 1774.351257,1194.417007 1806.645844,1275.700607 1806.645844C1356.984207 1806.645844,1434.928925 1774.351257,1492.400757 1716.879410C1549.872604 1659.407578,1582.167191 1581.462860,1582.167191 1500.179260Z" style="stroke:rgb(25.500488%,41.000366%,88.400269%); stroke-width: 2.500000;stroke-linecap: round;stroke-linejoin: round;stroke-miterlimit: 10.000000;fill: none;"></path>
  <path d="M1333.106323 1068.805939C1333.106323 987.522339,1300.811737 909.577621,1243.339890 852.105789C1185.868057 794.633942,1107.923340 762.339355,1026.639740 762.339355C945.356140 762.339355,867.411423 794.633942,809.939590 852.105789C752.467743 909.577621,720.173157 987.522339,720.173157 1068.805939C720.173157 1150.089539,752.467743 1228.034256,809.939590 1285.506088C867.411423 1342.977936,945.356140 1375.272522,1026.639740 1375.272522C1107.923340 1375.272522,1185.868057 1342.977936,1243.339890 1285.506088C1300.811737 1228.034256,1333.106323 1150.089539,1333.106323 1068.805939Z" style="stroke:rgb(25.500488%,41.000366%,88.400269%); stroke-width: 2.500000;stroke-linecap: round;stroke-linejoin: round;stroke-miterlimit: 10.000000;fill: none;"></path>
  <path d="M1157.826843 765.194061C1157.826843 683.910461,1125.532257 605.965744,1068.060410 548.493912C1010.588577 491.022064,932.643860 458.727478,851.360260 458.727478C770.076660 458.727478,692.131943 491.022064,634.660110 548.493912C577.188263 605.965744,544.893677 683.910461,544.893677 765.194061C544.893677 846.477661,577.188263 924.422379,634.660110 981.894211C692.131943 1039.366058,770.076660 1071.660645,851.360260 1071.660645C932.643860 1071.660645,1010.588577 1039.366058,1068.060410 981.894211C1125.532257 924.422379,1157.826843 846.477661,1157.826843 765.194061Z" style="stroke:rgb(25.500488%,41.000366%,88.400269%); stroke-width: 2.500000;stroke-linecap: round;stroke-linejoin: round;stroke-miterlimit: 10.000000;fill: none;"></path>
  <path d="M908.765976 333.820740C908.765976 252.537140,876.471390 174.592422,818.999542 117.120590C761.527710 59.648743,683.582993 27.354156,602.299393 27.354156C521.015793 27.354156,443.071075 59.648743,385.599243 117.120590C328.127396 174.592422,295.832809 252.537140,295.832809 333.820740C295.832809 415.104340,328.127396 493.049057,385.599243 550.520889C443.071075 607.992737,521.015793 640.287323,602.299393 640.287323C683.582993 640.287323,761.527710 607.992737,818.999542 550.520889C876.471390 493.049057,908.765976 415.104340,908.765976 333.820740Z" style="stroke:rgb(25.500488%,41.000366%,88.400269%); stroke-width: 2.500000;stroke-linecap: round;stroke-linejoin: round;stroke-miterlimit: 10.000000;fill: none;"></path>
  <path d="M1037.565506 1527.039536C1037.565506 1445.755936,1005.270920 1367.811218,947.799072 1310.339386C890.327240 1252.867538,812.382523 1220.572952,731.098923 1220.572952C649.815323 1220.572952,571.870605 1252.867538,514.398773 1310.339386C456.926926 1367.811218,424.632339 1445.755936,424.632339 1527.039536C424.632339 1608.323135,456.926926 1686.267853,514.398773 1743.739685C571.870605 1801.211533,649.815323 1833.506119,731.098923 1833.506119C812.382523 1833.506119,890.327240 1801.211533,947.799072 1743.739685C1005.270920 1686.267853,1037.565506 1608.323135,1037.565506 1527.039536Z" style="stroke:rgb(25.500488%,41.000366%,88.400269%); stroke-width: 2.500000;stroke-linecap: round;stroke-linejoin: round;stroke-miterlimit: 10.000000;fill: none;"></path>
  <path d="M762.345062 1195.931564C762.345062 1114.647964,730.050476 1036.703247,672.578629 979.231415C615.106796 921.759567,537.162079 889.464981,455.878479 889.464981C374.594879 889.464981,296.650162 921.759567,239.178329 979.231415C181.706482 1036.703247,149.411896 1114.647964,149.411896 1195.931564C149.411896 1277.215164,181.706482 1355.159882,239.178329 1412.631714C296.650162 1470.103561,374.594879 1502.398148,455.878479 1502.398148C537.162079 1502.398148,615.106796 1470.103561,672.578629 1412.631714C730.050476 1355.159882,762.345062 1277.215164,762.345062 1195.931564Z" style="stroke:rgb(25.500488%,41.000366%,88.400269%); stroke-width: 2.500000;stroke-linecap: round;stroke-linejoin: round;stroke-miterlimit: 10.000000;fill: none;"></path>
  <path d="M613.212189 792.015411C613.212189 710.731812,580.917603 632.787094,523.445755 575.315262C465.973923 517.843414,388.029205 485.548828,306.745605 485.548828C225.462006 485.548828,147.517288 517.843414,90.045456 575.315262C32.573608 632.787094,0.279022 710.731812,0.279022 792.015411C0.279022 873.299011,32.573608 951.243729,90.045456 1008.715561C147.517288 1066.187408,225.462006 1098.481995,306.745605 1098.481995C388.029205 1098.481995,465.973923 1066.187408,523.445755 1008.715561C580.917603 951.243729,613.212189 873.299011,613.212189 792.015411Z" style="stroke:rgb(25.500488%,41.000366%,88.400269%); stroke-width: 2.500000;stroke-linecap: round;stroke-linejoin: round;stroke-miterlimit: 10.000000;fill: none;"></path>
</svg>
