<?xml version="1.0"?>
<!-- Created by MetaPost 2.00 on 2022.03.02:1201 -->
<svg version="1.1" xmlns="http://www.w3.org/2000/svg" xmlns:xlink="http://www.w3.org/1999/xlink" width="1757.383896" height="1794.002090" viewBox="0 0 1757.383896 1794.002090">
<!-- Original BoundingBox: -877.193222 -873.495071 880.190674 920.507019 -->
  <path d="M877.000000 69.606476L212.136978 389.788666L47.926010 1109.228653L508.028137 1686.179443L1245.971863 1686.179443L1706.073990 1109.228653L1541.863022 389.788666L877.000000 69.606476Z" style="fill: rgb(100.000000%,100.000000%,100.000000%);stroke: none;"></path>
  <path d="M877.000000 69.606476L212.136978 389.788666" style="stroke:rgb(0.000000%,0.000000%,0.000000%); stroke-width: 2.500000;stroke-linecap: round;stroke-linejoin: round;stroke-miterlimit: 10.000000;fill: none;"></path>
  <path d="M212.136978 389.788666L47.926010 1109.228653" style="stroke:rgb(0.000000%,0.000000%,0.000000%); stroke-width: 2.500000;stroke-linecap: round;stroke-linejoin: round;stroke-miterlimit: 10.000000;fill: none;"></path>
  <path d="M47.926010 1109.228653L508.028137 1686.179443" style="stroke:rgb(0.000000%,0.000000%,0.000000%); stroke-width: 2.500000;stroke-linecap: round;stroke-linejoin: round;stroke-miterlimit: 10.000000;fill: none;"></path>
  <path d="M508.028137 1686.179443L1245.971863 1686.179443" style="stroke:rgb(0.000000%,0.000000%,0.000000%); stroke-width: 2.500000;stroke-linecap: round;stroke-linejoin: round;stroke-miterlimit: 10.000000;fill: none;"></path>
  <path d="M1245.971863 1686.179443L1706.073990 1109.228653" style="stroke:rgb(0.000000%,0.000000%,0.000000%); stroke-width: 2.500000;stroke-linecap: round;stroke-linejoin: round;stroke-miterlimit: 10.000000;fill: none;"></path>
  <path d="M1706.073990 1109.228653L1541.863022 389.788666" style="stroke:rgb(0.000000%,0.000000%,0.000000%); stroke-width: 2.500000;stroke-linecap: round;stroke-linejoin: round;stroke-miterlimit: 10.000000;fill: none;"></path>
  <path d="M1541.863022 389.788666L877.000000 69.606476" style="stroke:rgb(0.000000%,0.000000%,0.000000%); stroke-width: 2.500000;stroke-linecap: round;stroke-linejoin: round;stroke-miterlimit: 10.000000;fill: none;"></path>
  <path d="M1101.341644 1618.769257C1101.341644 1572.758560,1083.061249 1528.637863,1050.529236 1496.105850C1017.997223 1463.573837,973.876526 1445.293442,927.865829 1445.293442C881.855133 1445.293442,837.734436 1463.573837,805.202423 1496.105850C772.670410 1528.637863,754.390015 1572.758560,754.390015 1618.769257C754.390015 1664.779953,772.670410 1708.900650,805.202423 1741.432663C837.734436 1773.964676,881.855133 1792.245071,927.865829 1792.245071C973.876526 1792.245071,1017.997223 1773.964676,1050.529236 1741.432663C1083.061249 1708.900650,1101.341644 1664.779953,1101.341644 1618.769257Z" style="stroke:rgb(25.500488%,41.000366%,88.400269%); stroke-width: 2.500000;stroke-linecap: round;stroke-linejoin: round;stroke-miterlimit: 10.000000;fill: none;"></path>
  <path d="M1389.966263 1569.927673C1389.966263 1523.916977,1371.685867 1479.796280,1339.153854 1447.264267C1306.621841 1414.732254,1262.501144 1396.451859,1216.490448 1396.451859C1170.479752 1396.451859,1126.359055 1414.732254,1093.827042 1447.264267C1061.295029 1479.796280,1043.014633 1523.916977,1043.014633 1569.927673C1043.014633 1615.938370,1061.295029 1660.059067,1093.827042 1692.591080C1126.359055 1725.123093,1170.479752 1743.403488,1216.490448 1743.403488C1262.501144 1743.403488,1306.621841 1725.123093,1339.153854 1692.591080C1371.685867 1660.059067,1389.966263 1615.938370,1389.966263 1569.927673Z" style="stroke:rgb(25.500488%,41.000366%,88.400269%); stroke-width: 2.500000;stroke-linecap: round;stroke-linejoin: round;stroke-miterlimit: 10.000000;fill: none;"></path>
  <path d="M785.843765 1609.556305C785.843765 1563.545609,767.563370 1519.424911,735.031357 1486.892899C702.499344 1454.360886,658.378647 1436.080490,612.367950 1436.080490C566.357254 1436.080490,522.236557 1454.360886,489.704544 1486.892899C457.172531 1519.424911,438.892136 1563.545609,438.892136 1609.556305C438.892136 1655.567001,457.172531 1699.687698,489.704544 1732.219711C522.236557 1764.751724,566.357254 1783.032120,612.367950 1783.032120C658.378647 1783.032120,702.499344 1764.751724,735.031357 1732.219711C767.563370 1699.687698,785.843765 1655.567001,785.843765 1609.556305Z" style="stroke:rgb(25.500488%,41.000366%,88.400269%); stroke-width: 2.500000;stroke-linecap: round;stroke-linejoin: round;stroke-miterlimit: 10.000000;fill: none;"></path>
  <path d="M1035.735107 1396.075562C1035.735107 1350.064865,1017.454712 1305.944168,984.922699 1273.412155C952.390686 1240.880142,908.269989 1222.599747,862.259293 1222.599747C816.248596 1222.599747,772.127899 1240.880142,739.595886 1273.412155C707.063873 1305.944168,688.783478 1350.064865,688.783478 1396.075562C688.783478 1442.086258,707.063873 1486.206955,739.595886 1518.738968C772.127899 1551.270981,816.248596 1569.551376,862.259293 1569.551376C908.269989 1569.551376,952.390686 1551.270981,984.922699 1518.738968C1017.454712 1486.206955,1035.735107 1442.086258,1035.735107 1396.075562Z" style="stroke:rgb(25.500488%,41.000366%,88.400269%); stroke-width: 2.500000;stroke-linecap: round;stroke-linejoin: round;stroke-miterlimit: 10.000000;fill: none;"></path>
  <path d="M1309.333542 1348.194214C1309.333542 1302.183517,1291.053146 1258.062820,1258.521133 1225.530807C1225.989120 1192.998795,1181.868423 1174.718399,1135.857727 1174.718399C1089.847031 1174.718399,1045.726334 1192.998795,1013.194321 1225.530807C980.662308 1258.062820,962.381912 1302.183517,962.381912 1348.194214C962.381912 1394.204910,980.662308 1438.325607,1013.194321 1470.857620C1045.726334 1503.389633,1089.847031 1521.670029,1135.857727 1521.670029C1181.868423 1521.670029,1225.989120 1503.389633,1258.521133 1470.857620C1291.053146 1438.325607,1309.333542 1394.204910,1309.333542 1348.194214Z" style="stroke:rgb(25.500488%,41.000366%,88.400269%); stroke-width: 2.500000;stroke-linecap: round;stroke-linejoin: round;stroke-miterlimit: 10.000000;fill: none;"></path>
  <path d="M1582.231293 1344.950226C1582.231293 1298.939529,1563.950897 1254.818832,1531.418884 1222.286819C1498.886871 1189.754807,1454.766174 1171.474411,1408.755478 1171.474411C1362.744781 1171.474411,1318.624084 1189.754807,1286.092072 1222.286819C1253.560059 1254.818832,1235.279663 1298.939529,1235.279663 1344.950226C1235.279663 1390.960922,1253.560059 1435.081619,1286.092072 1467.613632C1318.624084 1500.145645,1362.744781 1518.426041,1408.755478 1518.426041C1454.766174 1518.426041,1498.886871 1500.145645,1531.418884 1467.613632C1563.950897 1435.081619,1582.231293 1390.960922,1582.231293 1344.950226Z" style="stroke:rgb(25.500488%,41.000366%,88.400269%); stroke-width: 2.500000;stroke-linecap: round;stroke-linejoin: round;stroke-miterlimit: 10.000000;fill: none;"></path>
  <path d="M1755.940674 1107.217377C1755.940674 1061.206680,1737.660278 1017.085983,1705.128265 984.553970C1672.596252 952.021957,1628.475555 933.741562,1582.464859 933.741562C1536.454163 933.741562,1492.333466 952.021957,1459.801453 984.553970C1427.269440 1017.085983,1408.989044 1061.206680,1408.989044 1107.217377C1408.989044 1153.228073,1427.269440 1197.348770,1459.801453 1229.880783C1492.333466 1262.412796,1536.454163 1280.693192,1582.464859 1280.693192C1628.475555 1280.693192,1672.596252 1262.412796,1705.128265 1229.880783C1737.660278 1197.348770,1755.940674 1153.228073,1755.940674 1107.217377Z" style="stroke:rgb(25.500488%,41.000366%,88.400269%); stroke-width: 2.500000;stroke-linecap: round;stroke-linejoin: round;stroke-miterlimit: 10.000000;fill: none;"></path>
  <path d="M573.024796 1430.903076C573.024796 1384.892380,554.744400 1340.771683,522.212387 1308.239670C489.680374 1275.707657,445.559677 1257.427261,399.548981 1257.427261C353.538284 1257.427261,309.417587 1275.707657,276.885574 1308.239670C244.353561 1340.771683,226.073166 1384.892380,226.073166 1430.903076C226.073166 1476.913773,244.353561 1521.034470,276.885574 1553.566483C309.417587 1586.098495,353.538284 1604.378891,399.548981 1604.378891C445.559677 1604.378891,489.680374 1586.098495,522.212387 1553.566483C554.744400 1521.034470,573.024796 1476.913773,573.024796 1430.903076Z" style="stroke:rgb(25.500488%,41.000366%,88.400269%); stroke-width: 2.500000;stroke-linecap: round;stroke-linejoin: round;stroke-miterlimit: 10.000000;fill: none;"></path>
  <path d="M841.264160 1295.550674C841.264160 1249.539978,822.983765 1205.419281,790.451752 1172.887268C757.919739 1140.355255,713.799042 1122.074860,667.788345 1122.074860C621.777649 1122.074860,577.656952 1140.355255,545.124939 1172.887268C512.592926 1205.419281,494.312531 1249.539978,494.312531 1295.550674C494.312531 1341.561371,512.592926 1385.682068,545.124939 1418.214081C577.656952 1450.746094,621.777649 1469.026489,667.788345 1469.026489C713.799042 1469.026489,757.919739 1450.746094,790.451752 1418.214081C822.983765 1385.682068,841.264160 1341.561371,841.264160 1295.550674Z" style="stroke:rgb(25.500488%,41.000366%,88.400269%); stroke-width: 2.500000;stroke-linecap: round;stroke-linejoin: round;stroke-miterlimit: 10.000000;fill: none;"></path>
  <path d="M1149.274887 1160.302094C1149.274887 1114.291397,1130.994492 1070.170700,1098.462479 1037.638687C1065.930466 1005.106674,1021.809769 986.826279,975.799072 986.826279C929.788376 986.826279,885.667679 1005.106674,853.135666 1037.638687C820.603653 1070.170700,802.323257 1114.291397,802.323257 1160.302094C802.323257 1206.312790,820.603653 1250.433487,853.135666 1282.965500C885.667679 1315.497513,929.788376 1333.777908,975.799072 1333.777908C1021.809769 1333.777908,1065.930466 1315.497513,1098.462479 1282.965500C1130.994492 1250.433487,1149.274887 1206.312790,1149.274887 1160.302094Z" style="stroke:rgb(25.500488%,41.000366%,88.400269%); stroke-width: 2.500000;stroke-linecap: round;stroke-linejoin: round;stroke-miterlimit: 10.000000;fill: none;"></path>
  <path d="M1457.285614 1066.472809C1457.285614 1020.462112,1439.005219 976.341415,1406.473206 943.809402C1373.941193 911.277390,1329.820496 892.996994,1283.809799 892.996994C1237.799103 892.996994,1193.678406 911.277390,1161.146393 943.809402C1128.614380 976.341415,1110.333984 1020.462112,1110.333984 1066.472809C1110.333984 1112.483505,1128.614380 1156.604202,1161.146393 1189.136215C1193.678406 1221.668228,1237.799103 1239.948624,1283.809799 1239.948624C1329.820496 1239.948624,1373.941193 1221.668228,1406.473206 1189.136215C1439.005219 1156.604202,1457.285614 1112.483505,1457.285614 1066.472809Z" style="stroke:rgb(25.500488%,41.000366%,88.400269%); stroke-width: 2.500000;stroke-linecap: round;stroke-linejoin: round;stroke-miterlimit: 10.000000;fill: none;"></path>
  <path d="M1707.397552 852.940155C1707.397552 806.929459,1689.117157 762.808762,1656.585144 730.276749C1624.053131 697.744736,1579.932434 679.464340,1533.921738 679.464340C1487.911041 679.464340,1443.790344 697.744736,1411.258331 730.276749C1378.726318 762.808762,1360.445923 806.929459,1360.445923 852.940155C1360.445923 898.950851,1378.726318 943.071548,1411.258331 975.603561C1443.790344 1008.135574,1487.911041 1026.415970,1533.921738 1026.415970C1579.932434 1026.415970,1624.053131 1008.135574,1656.585144 975.603561C1689.117157 943.071548,1707.397552 898.950851,1707.397552 852.940155Z" style="stroke:rgb(25.500488%,41.000366%,88.400269%); stroke-width: 2.500000;stroke-linecap: round;stroke-linejoin: round;stroke-miterlimit: 10.000000;fill: none;"></path>
  <path d="M348.008408 1195.622696C348.008408 1149.612000,329.728012 1105.491302,297.195999 1072.959290C264.663986 1040.427277,220.543289 1022.146881,174.532593 1022.146881C128.521896 1022.146881,84.401199 1040.427277,51.869186 1072.959290C19.337173 1105.491302,1.056778 1149.612000,1.056778 1195.622696C1.056778 1241.633392,19.337173 1285.754089,51.869186 1318.286102C84.401199 1350.818115,128.521896 1369.098511,174.532593 1369.098511C220.543289 1369.098511,264.663986 1350.818115,297.195999 1318.286102C329.728012 1285.754089,348.008408 1241.633392,348.008408 1195.622696Z" style="stroke:rgb(25.500488%,41.000366%,88.400269%); stroke-width: 2.500000;stroke-linecap: round;stroke-linejoin: round;stroke-miterlimit: 10.000000;fill: none;"></path>
  <path d="M598.898895 1126.707291C598.898895 1080.696594,580.618500 1036.575897,548.086487 1004.043884C515.554474 971.511871,471.433777 953.231476,425.423080 953.231476C379.412384 953.231476,335.291687 971.511871,302.759674 1004.043884C270.227661 1036.575897,251.947266 1080.696594,251.947266 1126.707291C251.947266 1172.717987,270.227661 1216.838684,302.759674 1249.370697C335.291687 1281.902710,379.412384 1300.183105,425.423080 1300.183105C471.433777 1300.183105,515.554474 1281.902710,548.086487 1249.370697C580.618500 1216.838684,598.898895 1172.717987,598.898895 1126.707291Z" style="stroke:rgb(25.500488%,41.000366%,88.400269%); stroke-width: 2.500000;stroke-linecap: round;stroke-linejoin: round;stroke-miterlimit: 10.000000;fill: none;"></path>
  <path d="M909.024704 1029.958420C909.024704 983.947723,890.744308 939.827026,858.212296 907.295013C825.680283 874.763000,781.559586 856.482605,735.548889 856.482605C689.538193 856.482605,645.417496 874.763000,612.885483 907.295013C580.353470 939.827026,562.073074 983.947723,562.073074 1029.958420C562.073074 1075.969116,580.353470 1120.089813,612.885483 1152.621826C645.417496 1185.153839,689.538193 1203.434235,735.548889 1203.434235C781.559586 1203.434235,825.680283 1185.153839,858.212296 1152.621826C890.744308 1120.089813,909.024704 1075.969116,909.024704 1029.958420Z" style="stroke:rgb(25.500488%,41.000366%,88.400269%); stroke-width: 2.500000;stroke-linecap: round;stroke-linejoin: round;stroke-miterlimit: 10.000000;fill: none;"></path>
  <path d="M1215.283676 892.516891C1215.283676 846.506195,1197.003281 802.385498,1164.471268 769.853485C1131.939255 737.321472,1087.818558 719.041077,1041.807861 719.041077C995.797165 719.041077,951.676468 737.321472,919.144455 769.853485C886.612442 802.385498,868.332047 846.506195,868.332047 892.516891C868.332047 938.527588,886.612442 982.648285,919.144455 1015.180298C951.676468 1047.712311,995.797165 1065.992706,1041.807861 1065.992706C1087.818558 1065.992706,1131.939255 1047.712311,1164.471268 1015.180298C1197.003281 982.648285,1215.283676 938.527588,1215.283676 892.516891Z" style="stroke:rgb(25.500488%,41.000366%,88.400269%); stroke-width: 2.500000;stroke-linecap: round;stroke-linejoin: round;stroke-miterlimit: 10.000000;fill: none;"></path>
  <path d="M1477.255646 758.565887C1477.255646 712.555191,1458.975250 668.434494,1426.443237 635.902481C1393.911224 603.370468,1349.790527 585.090073,1303.779831 585.090073C1257.769135 585.090073,1213.648438 603.370468,1181.116425 635.902481C1148.584412 668.434494,1130.304016 712.555191,1130.304016 758.565887C1130.304016 804.576584,1148.584412 848.697281,1181.116425 881.229294C1213.648438 913.761307,1257.769135 932.041702,1303.779831 932.041702C1349.790527 932.041702,1393.911224 913.761307,1426.443237 881.229294C1458.975250 848.697281,1477.255646 804.576584,1477.255646 758.565887Z" style="stroke:rgb(25.500488%,41.000366%,88.400269%); stroke-width: 2.500000;stroke-linecap: round;stroke-linejoin: round;stroke-miterlimit: 10.000000;fill: none;"></path>
  <path d="M1716.519653 539.077271C1716.519653 493.066574,1698.239258 448.945877,1665.707245 416.413864C1633.175232 383.881851,1589.054535 365.601456,1543.043839 365.601456C1497.033142 365.601456,1452.912445 383.881851,1420.380432 416.413864C1387.848419 448.945877,1369.568024 493.066574,1369.568024 539.077271C1369.568024 585.087967,1387.848419 629.208664,1420.380432 661.740677C1452.912445 694.272690,1497.033142 712.553085,1543.043839 712.553085C1589.054535 712.553085,1633.175232 694.272690,1665.707245 661.740677C1698.239258 629.208664,1716.519653 585.087967,1716.519653 539.077271Z" style="stroke:rgb(25.500488%,41.000366%,88.400269%); stroke-width: 2.500000;stroke-linecap: round;stroke-linejoin: round;stroke-miterlimit: 10.000000;fill: none;"></path>
  <path d="M360.517258 952.323151C360.517258 906.312454,342.236862 862.191757,309.704849 829.659744C277.172836 797.127731,233.052139 778.847336,187.041443 778.847336C141.030746 778.847336,96.910049 797.127731,64.378036 829.659744C31.846024 862.191757,13.565628 906.312454,13.565628 952.323151C13.565628 998.333847,31.846024 1042.454544,64.378036 1074.986557C96.910049 1107.518570,141.030746 1125.798965,187.041443 1125.798965C233.052139 1125.798965,277.172836 1107.518570,309.704849 1074.986557C342.236862 1042.454544,360.517258 998.333847,360.517258 952.323151Z" style="stroke:rgb(25.500488%,41.000366%,88.400269%); stroke-width: 2.500000;stroke-linecap: round;stroke-linejoin: round;stroke-miterlimit: 10.000000;fill: none;"></path>
  <path d="M670.370560 859.557907C670.370560 813.547211,652.090164 769.426514,619.558151 736.894501C587.026138 704.362488,542.905441 686.082092,496.894745 686.082092C450.884048 686.082092,406.763351 704.362488,374.231339 736.894501C341.699326 769.426514,323.418930 813.547211,323.418930 859.557907C323.418930 905.568604,341.699326 949.689301,374.231339 982.221313C406.763351 1014.753326,450.884048 1033.033722,496.894745 1033.033722C542.905441 1033.033722,587.026138 1014.753326,619.558151 982.221313C652.090164 949.689301,670.370560 905.568604,670.370560 859.557907Z" style="stroke:rgb(25.500488%,41.000366%,88.400269%); stroke-width: 2.500000;stroke-linecap: round;stroke-linejoin: round;stroke-miterlimit: 10.000000;fill: none;"></path>
  <path d="M978.757599 760.590149C978.757599 714.579453,960.477203 670.458755,927.945190 637.926743C895.413177 605.394730,851.292480 587.114334,805.281784 587.114334C759.271088 587.114334,715.150391 605.394730,682.618378 637.926743C650.086365 670.458755,631.805969 714.579453,631.805969 760.590149C631.805969 806.600845,650.086365 850.721542,682.618378 883.253555C715.150391 915.785568,759.271088 934.065964,805.281784 934.065964C851.292480 934.065964,895.413177 915.785568,927.945190 883.253555C960.477203 850.721542,978.757599 806.600845,978.757599 760.590149Z" style="stroke:rgb(25.500488%,41.000366%,88.400269%); stroke-width: 2.500000;stroke-linecap: round;stroke-linejoin: round;stroke-miterlimit: 10.000000;fill: none;"></path>
  <path d="M1262.905502 600.297913C1262.905502 554.287216,1244.625107 510.166519,1212.093094 477.634506C1179.561081 445.102493,1135.440384 426.822098,1089.429688 426.822098C1043.418991 426.822098,999.298294 445.102493,966.766281 477.634506C934.234268 510.166519,915.953873 554.287216,915.953873 600.297913C915.953873 646.308609,934.234268 690.429306,966.766281 722.961319C999.298294 755.493332,1043.418991 773.773727,1089.429688 773.773727C1135.440384 773.773727,1179.561081 755.493332,1212.093094 722.961319C1244.625107 690.429306,1262.905502 646.308609,1262.905502 600.297913Z" style="stroke:rgb(25.500488%,41.000366%,88.400269%); stroke-width: 2.500000;stroke-linecap: round;stroke-linejoin: round;stroke-miterlimit: 10.000000;fill: none;"></path>
  <path d="M1514.418839 435.256485C1514.418839 389.245789,1496.138443 345.125092,1463.606430 312.593079C1431.074417 280.061066,1386.953720 261.780670,1340.943024 261.780670C1294.932327 261.780670,1250.811630 280.061066,1218.279617 312.593079C1185.747604 345.125092,1167.467209 389.245789,1167.467209 435.256485C1167.467209 481.267181,1185.747604 525.387878,1218.279617 557.919891C1250.811630 590.451904,1294.932327 608.732300,1340.943024 608.732300C1386.953720 608.732300,1431.074417 590.451904,1463.606430 557.919891C1496.138443 525.387878,1514.418839 481.267181,1514.418839 435.256485Z" style="stroke:rgb(25.500488%,41.000366%,88.400269%); stroke-width: 2.500000;stroke-linecap: round;stroke-linejoin: round;stroke-miterlimit: 10.000000;fill: none;"></path>
  <path d="M430.704300 685.705795C430.704300 639.695099,412.423904 595.574402,379.891891 563.042389C347.359879 530.510376,303.239182 512.229980,257.228485 512.229980C211.217789 512.229980,167.097092 530.510376,134.565079 563.042389C102.033066 595.574402,83.752670 639.695099,83.752670 685.705795C83.752670 731.716492,102.033066 775.837189,134.565079 808.369202C167.097092 840.901215,211.217789 859.181610,257.228485 859.181610C303.239182 859.181610,347.359879 840.901215,379.891891 808.369202C412.423904 775.837189,430.704300 731.716492,430.704300 685.705795Z" style="stroke:rgb(25.500488%,41.000366%,88.400269%); stroke-width: 2.500000;stroke-linecap: round;stroke-linejoin: round;stroke-miterlimit: 10.000000;fill: none;"></path>
  <path d="M738.831818 590.734619C738.831818 544.723923,720.551422 500.603226,688.019409 468.071213C655.487396 435.539200,611.366699 417.258804,565.356003 417.258804C519.345306 417.258804,475.224609 435.539200,442.692596 468.071213C410.160583 500.603226,391.880188 544.723923,391.880188 590.734619C391.880188 636.745316,410.160583 680.866013,442.692596 713.398026C475.224609 745.930038,519.345306 764.210434,565.356003 764.210434C611.366699 764.210434,655.487396 745.930038,688.019409 713.398026C720.551422 680.866013,738.831818 636.745316,738.831818 590.734619Z" style="stroke:rgb(25.500488%,41.000366%,88.400269%); stroke-width: 2.500000;stroke-linecap: round;stroke-linejoin: round;stroke-miterlimit: 10.000000;fill: none;"></path>
  <path d="M1025.094803 468.916168C1025.094803 422.905472,1006.814407 378.784775,974.282394 346.252762C941.750381 313.720749,897.629684 295.440353,851.618988 295.440353C805.608292 295.440353,761.487595 313.720749,728.955582 346.252762C696.423569 378.784775,678.143173 422.905472,678.143173 468.916168C678.143173 514.926865,696.423569 559.047562,728.955582 591.579575C761.487595 624.111588,805.608292 642.391983,851.618988 642.391983C897.629684 642.391983,941.750381 624.111588,974.282394 591.579575C1006.814407 559.047562,1025.094803 514.926865,1025.094803 468.916168Z" style="stroke:rgb(25.500488%,41.000366%,88.400269%); stroke-width: 2.500000;stroke-linecap: round;stroke-linejoin: round;stroke-miterlimit: 10.000000;fill: none;"></path>
  <path d="M1293.360123 296.478424C1293.360123 250.467728,1275.079727 206.347031,1242.547714 173.815018C1210.015701 141.283005,1165.895004 123.002609,1119.884308 123.002609C1073.873611 123.002609,1029.752914 141.283005,997.220901 173.815018C964.688889 206.347031,946.408493 250.467728,946.408493 296.478424C946.408493 342.489120,964.688889 386.609818,997.220901 419.141830C1029.752914 451.673843,1073.873611 469.954239,1119.884308 469.954239C1165.895004 469.954239,1210.015701 451.673843,1242.547714 419.141830C1275.079727 386.609818,1293.360123 342.489120,1293.360123 296.478424Z" style="stroke:rgb(25.500488%,41.000366%,88.400269%); stroke-width: 2.500000;stroke-linecap: round;stroke-linejoin: round;stroke-miterlimit: 10.000000;fill: none;"></path>
  <path d="M488.732864 421.657669C488.732864 375.646973,470.452469 331.526276,437.920456 298.994263C405.388443 266.462250,361.267746 248.181854,315.257050 248.181854C269.246353 248.181854,225.125656 266.462250,192.593643 298.994263C160.061630 331.526276,141.781235 375.646973,141.781235 421.657669C141.781235 467.668365,160.061630 511.789062,192.593643 544.321075C225.125656 576.853088,269.246353 595.133484,315.257050 595.133484C361.267746 595.133484,405.388443 576.853088,437.920456 544.321075C470.452469 511.789062,488.732864 467.668365,488.732864 421.657669Z" style="stroke:rgb(25.500488%,41.000366%,88.400269%); stroke-width: 2.500000;stroke-linecap: round;stroke-linejoin: round;stroke-miterlimit: 10.000000;fill: none;"></path>
  <path d="M770.947357 305.730301C770.947357 259.719604,752.666962 215.598907,720.134949 183.066895C687.602936 150.534882,643.482239 132.254486,597.471542 132.254486C551.460846 132.254486,507.340149 150.534882,474.808136 183.066895C442.276123 215.598907,423.995728 259.719604,423.995728 305.730301C423.995728 351.740997,442.276123 395.861694,474.808136 428.393707C507.340149 460.925720,551.460846 479.206116,597.471542 479.206116C643.482239 479.206116,687.602936 460.925720,720.134949 428.393707C752.666962 395.861694,770.947357 351.740997,770.947357 305.730301Z" style="stroke:rgb(25.500488%,41.000366%,88.400269%); stroke-width: 2.500000;stroke-linecap: round;stroke-linejoin: round;stroke-miterlimit: 10.000000;fill: none;"></path>
  <path d="M1036.915924 174.218796C1036.915924 128.208099,1018.635529 84.087402,986.103516 51.555389C953.571503 19.023376,909.450806 0.742981,863.440109 0.742981C817.429413 0.742981,773.308716 19.023376,740.776703 51.555389C708.244690 84.087402,689.964294 128.208099,689.964294 174.218796C689.964294 220.229492,708.244690 264.350189,740.776703 296.882202C773.308716 329.414215,817.429413 347.694611,863.440109 347.694611C909.450806 347.694611,953.571503 329.414215,986.103516 296.882202C1018.635529 264.350189,1036.915924 220.229492,1036.915924 174.218796Z" style="stroke:rgb(25.500488%,41.000366%,88.400269%); stroke-width: 2.500000;stroke-linecap: round;stroke-linejoin: round;stroke-miterlimit: 10.000000;fill: none;"></path>
</svg>
