<?xml version="1.0"?>
<!-- Created by MetaPost 2.00 on 2022.03.02:1201 -->
<svg version="1.1" xmlns="http://www.w3.org/2000/svg" xmlns:xlink="http://www.w3.org/1999/xlink" width="1790.161209" height="1712.824387" viewBox="0 0 1790.161209 1712.824387">
<!-- Original BoundingBox: -902.989456 -830.181259 887.171753 882.643127 -->
  <path d="M902.000000 31.606476L237.136978 351.788666L72.926010 1071.228653L533.028137 1648.179443L1270.971863 1648.179443L1731.073990 1071.228653L1566.863022 351.788666L902.000000 31.606476Z" style="fill: rgb(100.000000%,100.000000%,100.000000%);stroke: none;"></path>
  <path d="M902.000000 31.606476L237.136978 351.788666" style="stroke:rgb(0.000000%,0.000000%,0.000000%); stroke-width: 2.500000;stroke-linecap: round;stroke-linejoin: round;stroke-miterlimit: 10.000000;fill: none;"></path>
  <path d="M237.136978 351.788666L72.926010 1071.228653" style="stroke:rgb(0.000000%,0.000000%,0.000000%); stroke-width: 2.500000;stroke-linecap: round;stroke-linejoin: round;stroke-miterlimit: 10.000000;fill: none;"></path>
  <path d="M72.926010 1071.228653L533.028137 1648.179443" style="stroke:rgb(0.000000%,0.000000%,0.000000%); stroke-width: 2.500000;stroke-linecap: round;stroke-linejoin: round;stroke-miterlimit: 10.000000;fill: none;"></path>
  <path d="M533.028137 1648.179443L1270.971863 1648.179443" style="stroke:rgb(0.000000%,0.000000%,0.000000%); stroke-width: 2.500000;stroke-linecap: round;stroke-linejoin: round;stroke-miterlimit: 10.000000;fill: none;"></path>
  <path d="M1270.971863 1648.179443L1731.073990 1071.228653" style="stroke:rgb(0.000000%,0.000000%,0.000000%); stroke-width: 2.500000;stroke-linecap: round;stroke-linejoin: round;stroke-miterlimit: 10.000000;fill: none;"></path>
  <path d="M1731.073990 1071.228653L1566.863022 351.788666" style="stroke:rgb(0.000000%,0.000000%,0.000000%); stroke-width: 2.500000;stroke-linecap: round;stroke-linejoin: round;stroke-miterlimit: 10.000000;fill: none;"></path>
  <path d="M1566.863022 351.788666L902.000000 31.606476" style="stroke:rgb(0.000000%,0.000000%,0.000000%); stroke-width: 2.500000;stroke-linecap: round;stroke-linejoin: round;stroke-miterlimit: 10.000000;fill: none;"></path>
  <path d="M1787.921753 1057.681732C1787.921753 1022.876877,1774.093521 989.501694,1749.484634 964.892807C1724.875748 940.283920,1691.500565 926.455688,1656.695709 926.455688C1621.890854 926.455688,1588.515671 940.283920,1563.906784 964.892807C1539.297897 989.501694,1525.469666 1022.876877,1525.469666 1057.681732C1525.469666 1092.486588,1539.297897 1125.861771,1563.906784 1150.470657C1588.515671 1175.079544,1621.890854 1188.907776,1656.695709 1188.907776C1691.500565 1188.907776,1724.875748 1175.079544,1749.484634 1150.470657C1774.093521 1125.861771,1787.921753 1092.486588,1787.921753 1057.681732Z" style="stroke:rgb(25.500488%,41.000366%,88.400269%); stroke-width: 2.500000;stroke-linecap: round;stroke-linejoin: round;stroke-miterlimit: 10.000000;fill: none;"></path>
  <path d="M1734.395844 844.758957C1734.395844 809.954102,1720.567612 776.578918,1695.958725 751.970032C1671.349838 727.361145,1637.974655 713.532913,1603.169800 713.532913C1568.364944 713.532913,1534.989761 727.361145,1510.380875 751.970032C1485.771988 776.578918,1471.943756 809.954102,1471.943756 844.758957C1471.943756 879.563812,1485.771988 912.938995,1510.380875 937.547882C1534.989761 962.156769,1568.364944 975.985001,1603.169800 975.985001C1637.974655 975.985001,1671.349838 962.156769,1695.958725 937.547882C1720.567612 912.938995,1734.395844 879.563812,1734.395844 844.758957Z" style="stroke:rgb(25.500488%,41.000366%,88.400269%); stroke-width: 2.500000;stroke-linecap: round;stroke-linejoin: round;stroke-miterlimit: 10.000000;fill: none;"></path>
  <path d="M1683.815506 636.533478C1683.815506 601.728622,1669.987274 568.353439,1645.378387 543.744553C1620.769501 519.135666,1587.394318 505.307434,1552.589462 505.307434C1517.784607 505.307434,1484.409424 519.135666,1459.800537 543.744553C1435.191650 568.353439,1421.363419 601.728622,1421.363419 636.533478C1421.363419 671.338333,1435.191650 704.713516,1459.800537 729.322403C1484.409424 753.931290,1517.784607 767.759521,1552.589462 767.759521C1587.394318 767.759521,1620.769501 753.931290,1645.378387 729.322403C1669.987274 704.713516,1683.815506 671.338333,1683.815506 636.533478Z" style="stroke:rgb(25.500488%,41.000366%,88.400269%); stroke-width: 2.500000;stroke-linecap: round;stroke-linejoin: round;stroke-miterlimit: 10.000000;fill: none;"></path>
  <path d="M1623.049011 448.329926C1623.049011 413.525070,1609.220779 380.149887,1584.611893 355.541000C1560.003006 330.932114,1526.627823 317.103882,1491.822968 317.103882C1457.018112 317.103882,1423.642929 330.932114,1399.034042 355.541000C1374.425156 380.149887,1360.596924 413.525070,1360.596924 448.329926C1360.596924 483.134781,1374.425156 516.509964,1399.034042 541.118851C1423.642929 565.727737,1457.018112 579.555969,1491.822968 579.555969C1526.627823 579.555969,1560.003006 565.727737,1584.611893 541.118851C1609.220779 516.509964,1623.049011 483.134781,1623.049011 448.329926Z" style="stroke:rgb(25.500488%,41.000366%,88.400269%); stroke-width: 2.500000;stroke-linecap: round;stroke-linejoin: round;stroke-miterlimit: 10.000000;fill: none;"></path>
  <path d="M1497.986557 288.790314C1497.986557 253.985458,1484.158325 220.610275,1459.549438 196.001389C1434.940552 171.392502,1401.565369 157.564270,1366.760513 157.564270C1331.955658 157.564270,1298.580475 171.392502,1273.971588 196.001389C1249.362701 220.610275,1235.534470 253.985458,1235.534470 288.790314C1235.534470 323.595169,1249.362701 356.970352,1273.971588 381.579239C1298.580475 406.188126,1331.955658 420.016357,1366.760513 420.016357C1401.565369 420.016357,1434.940552 406.188126,1459.549438 381.579239C1484.158325 356.970352,1497.986557 323.595169,1497.986557 288.790314Z" style="stroke:rgb(25.500488%,41.000366%,88.400269%); stroke-width: 2.500000;stroke-linecap: round;stroke-linejoin: round;stroke-miterlimit: 10.000000;fill: none;"></path>
  <path d="M1645.873749 1231.702530C1645.873749 1196.897675,1632.045517 1163.522491,1607.436630 1138.913605C1582.827744 1114.304718,1549.452560 1100.476486,1514.647705 1100.476486C1479.842850 1100.476486,1446.467667 1114.304718,1421.858780 1138.913605C1397.249893 1163.522491,1383.421661 1196.897675,1383.421661 1231.702530C1383.421661 1266.507385,1397.249893 1299.882568,1421.858780 1324.491455C1446.467667 1349.100342,1479.842850 1362.928574,1514.647705 1362.928574C1549.452560 1362.928574,1582.827744 1349.100342,1607.436630 1324.491455C1632.045517 1299.882568,1645.873749 1266.507385,1645.873749 1231.702530Z" style="stroke:rgb(25.500488%,41.000366%,88.400269%); stroke-width: 2.500000;stroke-linecap: round;stroke-linejoin: round;stroke-miterlimit: 10.000000;fill: none;"></path>
  <path d="M1570.405472 1019.493439C1570.405472 984.688583,1556.577240 951.313400,1531.968353 926.704514C1507.359467 902.095627,1473.984283 888.267395,1439.179428 888.267395C1404.374573 888.267395,1370.999390 902.095627,1346.390503 926.704514C1321.781616 951.313400,1307.953384 984.688583,1307.953384 1019.493439C1307.953384 1054.298294,1321.781616 1087.673477,1346.390503 1112.282364C1370.999390 1136.891251,1404.374573 1150.719482,1439.179428 1150.719482C1473.984283 1150.719482,1507.359467 1136.891251,1531.968353 1112.282364C1556.577240 1087.673477,1570.405472 1054.298294,1570.405472 1019.493439Z" style="stroke:rgb(25.500488%,41.000366%,88.400269%); stroke-width: 2.500000;stroke-linecap: round;stroke-linejoin: round;stroke-miterlimit: 10.000000;fill: none;"></path>
  <path d="M1514.440094 809.269653C1514.440094 774.464798,1500.611862 741.089615,1476.002975 716.480728C1451.394089 691.871841,1418.018906 678.043610,1383.214050 678.043610C1348.409195 678.043610,1315.034012 691.871841,1290.425125 716.480728C1265.816238 741.089615,1251.988007 774.464798,1251.988007 809.269653C1251.988007 844.074509,1265.816238 877.449692,1290.425125 902.058578C1315.034012 926.667465,1348.409195 940.495697,1383.214050 940.495697C1418.018906 940.495697,1451.394089 926.667465,1476.002975 902.058578C1500.611862 877.449692,1514.440094 844.074509,1514.440094 809.269653Z" style="stroke:rgb(25.500488%,41.000366%,88.400269%); stroke-width: 2.500000;stroke-linecap: round;stroke-linejoin: round;stroke-miterlimit: 10.000000;fill: none;"></path>
  <path d="M1458.915894 607.078003C1458.915894 572.273148,1445.087662 538.897964,1420.478775 514.289078C1395.869888 489.680191,1362.494705 475.851959,1327.689850 475.851959C1292.884995 475.851959,1259.509811 489.680191,1234.900925 514.289078C1210.292038 538.897964,1196.463806 572.273148,1196.463806 607.078003C1196.463806 641.882858,1210.292038 675.258041,1234.900925 699.866928C1259.509811 724.475815,1292.884995 738.304047,1327.689850 738.304047C1362.494705 738.304047,1395.869888 724.475815,1420.478775 699.866928C1445.087662 675.258041,1458.915894 641.882858,1458.915894 607.078003Z" style="stroke:rgb(25.500488%,41.000366%,88.400269%); stroke-width: 2.500000;stroke-linecap: round;stroke-linejoin: round;stroke-miterlimit: 10.000000;fill: none;"></path>
  <path d="M1378.581635 422.559631C1378.581635 387.754776,1364.753403 354.379593,1340.144516 329.770706C1315.535629 305.161819,1282.160446 291.333588,1247.355591 291.333588C1212.550735 291.333588,1179.175552 305.161819,1154.566666 329.770706C1129.957779 354.379593,1116.129547 387.754776,1116.129547 422.559631C1116.129547 457.364487,1129.957779 490.739670,1154.566666 515.348557C1179.175552 539.957443,1212.550735 553.785675,1247.355591 553.785675C1282.160446 553.785675,1315.535629 539.957443,1340.144516 515.348557C1364.753403 490.739670,1378.581635 457.364487,1378.581635 422.559631Z" style="stroke:rgb(25.500488%,41.000366%,88.400269%); stroke-width: 2.500000;stroke-linecap: round;stroke-linejoin: round;stroke-miterlimit: 10.000000;fill: none;"></path>
  <path d="M1264.743393 209.338409C1264.743393 174.533554,1250.915161 141.158371,1226.306274 116.549484C1201.697388 91.940598,1168.322205 78.112366,1133.517349 78.112366C1098.712494 78.112366,1065.337311 91.940598,1040.728424 116.549484C1016.119537 141.158371,1002.291306 174.533554,1002.291306 209.338409C1002.291306 244.143265,1016.119537 277.518448,1040.728424 302.127335C1065.337311 326.736221,1098.712494 340.564453,1133.517349 340.564453C1168.322205 340.564453,1201.697388 326.736221,1226.306274 302.127335C1250.915161 277.518448,1264.743393 244.143265,1264.743393 209.338409Z" style="stroke:rgb(25.500488%,41.000366%,88.400269%); stroke-width: 2.500000;stroke-linecap: round;stroke-linejoin: round;stroke-miterlimit: 10.000000;fill: none;"></path>
  <path d="M1506.524750 1405.360016C1506.524750 1370.555161,1492.696518 1337.179977,1468.087631 1312.571091C1443.478745 1287.962204,1410.103561 1274.133972,1375.298706 1274.133972C1340.493851 1274.133972,1307.118668 1287.962204,1282.509781 1312.571091C1257.900894 1337.179977,1244.072662 1370.555161,1244.072662 1405.360016C1244.072662 1440.164871,1257.900894 1473.540054,1282.509781 1498.148941C1307.118668 1522.757828,1340.493851 1536.586060,1375.298706 1536.586060C1410.103561 1536.586060,1443.478745 1522.757828,1468.087631 1498.148941C1492.696518 1473.540054,1506.524750 1440.164871,1506.524750 1405.360016Z" style="stroke:rgb(25.500488%,41.000366%,88.400269%); stroke-width: 2.500000;stroke-linecap: round;stroke-linejoin: round;stroke-miterlimit: 10.000000;fill: none;"></path>
  <path d="M1422.414474 1195.927780C1422.414474 1161.122925,1408.586243 1127.747742,1383.977356 1103.138855C1359.368469 1078.529968,1325.993286 1064.701736,1291.188431 1064.701736C1256.383575 1064.701736,1223.008392 1078.529968,1198.399506 1103.138855C1173.790619 1127.747742,1159.962387 1161.122925,1159.962387 1195.927780C1159.962387 1230.732635,1173.790619 1264.107819,1198.399506 1288.716705C1223.008392 1313.325592,1256.383575 1327.153824,1291.188431 1327.153824C1325.993286 1327.153824,1359.368469 1313.325592,1383.977356 1288.716705C1408.586243 1264.107819,1422.414474 1230.732635,1422.414474 1195.927780Z" style="stroke:rgb(25.500488%,41.000366%,88.400269%); stroke-width: 2.500000;stroke-linecap: round;stroke-linejoin: round;stroke-miterlimit: 10.000000;fill: none;"></path>
  <path d="M1351.695404 986.910767C1351.695404 952.105911,1337.867172 918.730728,1313.258286 894.121841C1288.649399 869.512955,1255.274216 855.684723,1220.469360 855.684723C1185.664505 855.684723,1152.289322 869.512955,1127.680435 894.121841C1103.071548 918.730728,1089.243317 952.105911,1089.243317 986.910767C1089.243317 1021.715622,1103.071548 1055.090805,1127.680435 1079.699692C1152.289322 1104.308578,1185.664505 1118.136810,1220.469360 1118.136810C1255.274216 1118.136810,1288.649399 1104.308578,1313.258286 1079.699692C1337.867172 1055.090805,1351.695404 1021.715622,1351.695404 986.910767Z" style="stroke:rgb(25.500488%,41.000366%,88.400269%); stroke-width: 2.500000;stroke-linecap: round;stroke-linejoin: round;stroke-miterlimit: 10.000000;fill: none;"></path>
  <path d="M1292.057831 781.072861C1292.057831 746.268005,1278.229599 712.892822,1253.620712 688.283936C1229.011826 663.675049,1195.636642 649.846817,1160.831787 649.846817C1126.026932 649.846817,1092.651749 663.675049,1068.042862 688.283936C1043.433975 712.892822,1029.605743 746.268005,1029.605743 781.072861C1029.605743 815.877716,1043.433975 849.252899,1068.042862 873.861786C1092.651749 898.470673,1126.026932 912.298904,1160.831787 912.298904C1195.636642 912.298904,1229.011826 898.470673,1253.620712 873.861786C1278.229599 849.252899,1292.057831 815.877716,1292.057831 781.072861Z" style="stroke:rgb(25.500488%,41.000366%,88.400269%); stroke-width: 2.500000;stroke-linecap: round;stroke-linejoin: round;stroke-miterlimit: 10.000000;fill: none;"></path>
  <path d="M1229.267075 584.720398C1229.267075 549.915543,1215.438843 516.540359,1190.829956 491.931473C1166.221069 467.322586,1132.845886 453.494354,1098.041031 453.494354C1063.236176 453.494354,1029.860992 467.322586,1005.252106 491.931473C980.643219 516.540359,966.814987 549.915543,966.814987 584.720398C966.814987 619.525253,980.643219 652.900436,1005.252106 677.509323C1029.860992 702.118210,1063.236176 715.946442,1098.041031 715.946442C1132.845886 715.946442,1166.221069 702.118210,1190.829956 677.509323C1215.438843 652.900436,1229.267075 619.525253,1229.267075 584.720398Z" style="stroke:rgb(25.500488%,41.000366%,88.400269%); stroke-width: 2.500000;stroke-linecap: round;stroke-linejoin: round;stroke-miterlimit: 10.000000;fill: none;"></path>
  <path d="M1149.477814 372.874634C1149.477814 338.069778,1135.649582 304.694595,1111.040695 280.085709C1086.431808 255.476822,1053.056625 241.648590,1018.251770 241.648590C983.446915 241.648590,950.071732 255.476822,925.462845 280.085709C900.853958 304.694595,887.025726 338.069778,887.025726 372.874634C887.025726 407.679489,900.853958 441.054672,925.462845 465.663559C950.071732 490.272446,983.446915 504.100677,1018.251770 504.100677C1053.056625 504.100677,1086.431808 490.272446,1111.040695 465.663559C1135.649582 441.054672,1149.477814 407.679489,1149.477814 372.874634Z" style="stroke:rgb(25.500488%,41.000366%,88.400269%); stroke-width: 2.500000;stroke-linecap: round;stroke-linejoin: round;stroke-miterlimit: 10.000000;fill: none;"></path>
  <path d="M1062.928055 152.205185C1062.928055 117.400330,1049.099823 84.025146,1024.490936 59.416260C999.882050 34.807373,966.506866 20.979141,931.702011 20.979141C896.897156 20.979141,863.521973 34.807373,838.913086 59.416260C814.304199 84.025146,800.475967 117.400330,800.475967 152.205185C800.475967 187.010040,814.304199 220.385223,838.913086 244.994110C863.521973 269.602997,896.897156 283.431229,931.702011 283.431229C966.506866 283.431229,999.882050 269.602997,1024.490936 244.994110C1049.099823 220.385223,1062.928055 187.010040,1062.928055 152.205185Z" style="stroke:rgb(25.500488%,41.000366%,88.400269%); stroke-width: 2.500000;stroke-linecap: round;stroke-linejoin: round;stroke-miterlimit: 10.000000;fill: none;"></path>
  <path d="M1368.174896 1579.705215C1368.174896 1544.900360,1354.346664 1511.525177,1329.737778 1486.916290C1305.128891 1462.307404,1271.753708 1448.479172,1236.948853 1448.479172C1202.143997 1448.479172,1168.768814 1462.307404,1144.159927 1486.916290C1119.551041 1511.525177,1105.722809 1544.900360,1105.722809 1579.705215C1105.722809 1614.510071,1119.551041 1647.885254,1144.159927 1672.494141C1168.768814 1697.103027,1202.143997 1710.931259,1236.948853 1710.931259C1271.753708 1710.931259,1305.128891 1697.103027,1329.737778 1672.494141C1354.346664 1647.885254,1368.174896 1614.510071,1368.174896 1579.705215Z" style="stroke:rgb(25.500488%,41.000366%,88.400269%); stroke-width: 2.500000;stroke-linecap: round;stroke-linejoin: round;stroke-miterlimit: 10.000000;fill: none;"></path>
  <path d="M1281.780853 1377.565475C1281.780853 1342.760620,1267.952621 1309.385437,1243.343735 1284.776550C1218.734848 1260.167664,1185.359665 1246.339432,1150.554810 1246.339432C1115.749954 1246.339432,1082.374771 1260.167664,1057.765884 1284.776550C1033.156998 1309.385437,1019.328766 1342.760620,1019.328766 1377.565475C1019.328766 1412.370331,1033.156998 1445.745514,1057.765884 1470.354401C1082.374771 1494.963287,1115.749954 1508.791519,1150.554810 1508.791519C1185.359665 1508.791519,1218.734848 1494.963287,1243.343735 1470.354401C1267.952621 1445.745514,1281.780853 1412.370331,1281.780853 1377.565475Z" style="stroke:rgb(25.500488%,41.000366%,88.400269%); stroke-width: 2.500000;stroke-linecap: round;stroke-linejoin: round;stroke-miterlimit: 10.000000;fill: none;"></path>
  <path d="M1201.991577 1172.129837C1201.991577 1137.324982,1188.163345 1103.949799,1163.554459 1079.340912C1138.945572 1054.732025,1105.570389 1040.903793,1070.765533 1040.903793C1035.960678 1040.903793,1002.585495 1054.732025,977.976608 1079.340912C953.367722 1103.949799,939.539490 1137.324982,939.539490 1172.129837C939.539490 1206.934692,953.367722 1240.309875,977.976608 1264.918762C1002.585495 1289.527649,1035.960678 1303.355881,1070.765533 1303.355881C1105.570389 1303.355881,1138.945572 1289.527649,1163.554459 1264.918762C1188.163345 1240.309875,1201.991577 1206.934692,1201.991577 1172.129837Z" style="stroke:rgb(25.500488%,41.000366%,88.400269%); stroke-width: 2.500000;stroke-linecap: round;stroke-linejoin: round;stroke-miterlimit: 10.000000;fill: none;"></path>
  <path d="M1131.363342 963.021988C1131.363342 928.217133,1117.535110 894.841949,1092.926224 870.233063C1068.317337 845.624176,1034.942154 831.795944,1000.137299 831.795944C965.332443 831.795944,931.957260 845.624176,907.348373 870.233063C882.739487 894.841949,868.911255 928.217133,868.911255 963.021988C868.911255 997.826843,882.739487 1031.202026,907.348373 1055.810913C931.957260 1080.419800,965.332443 1094.248032,1000.137299 1094.248032C1034.942154 1094.248032,1068.317337 1080.419800,1092.926224 1055.810913C1117.535110 1031.202026,1131.363342 997.826843,1131.363342 963.021988Z" style="stroke:rgb(25.500488%,41.000366%,88.400269%); stroke-width: 2.500000;stroke-linecap: round;stroke-linejoin: round;stroke-miterlimit: 10.000000;fill: none;"></path>
  <path d="M1065.549194 765.579544C1065.549194 730.774689,1051.720963 697.399506,1027.112076 672.790619C1002.503189 648.181732,969.128006 634.353500,934.323151 634.353500C899.518295 634.353500,866.143112 648.181732,841.534225 672.790619C816.925339 697.399506,803.097107 730.774689,803.097107 765.579544C803.097107 800.384399,816.925339 833.759583,841.534225 858.368469C866.143112 882.977356,899.518295 896.805588,934.323151 896.805588C969.128006 896.805588,1002.503189 882.977356,1027.112076 858.368469C1051.720963 833.759583,1065.549194 800.384399,1065.549194 765.579544Z" style="stroke:rgb(25.500488%,41.000366%,88.400269%); stroke-width: 2.500000;stroke-linecap: round;stroke-linejoin: round;stroke-miterlimit: 10.000000;fill: none;"></path>
  <path d="M1009.467026 560.143906C1009.467026 525.339050,995.638794 491.963867,971.029907 467.354980C946.421021 442.746094,913.045837 428.917862,878.240982 428.917862C843.436127 428.917862,810.060944 442.746094,785.452057 467.354980C760.843170 491.963867,747.014938 525.339050,747.014938 560.143906C747.014938 594.948761,760.843170 628.323944,785.452057 652.932831C810.060944 677.541718,843.436127 691.369949,878.240982 691.369949C913.045837 691.369949,946.421021 677.541718,971.029907 652.932831C995.638794 628.323944,1009.467026 594.948761,1009.467026 560.143906Z" style="stroke:rgb(25.500488%,41.000366%,88.400269%); stroke-width: 2.500000;stroke-linecap: round;stroke-linejoin: round;stroke-miterlimit: 10.000000;fill: none;"></path>
  <path d="M941.265305 350.763565C941.265305 315.958710,927.437073 282.583527,902.828186 257.974640C878.219299 233.365753,844.844116 219.537521,810.039261 219.537521C775.234406 219.537521,741.859222 233.365753,717.250336 257.974640C692.641449 282.583527,678.813217 315.958710,678.813217 350.763565C678.813217 385.568420,692.641449 418.943604,717.250336 443.552490C741.859222 468.161377,775.234406 481.989609,810.039261 481.989609C844.844116 481.989609,878.219299 468.161377,902.828186 443.552490C927.437073 418.943604,941.265305 385.568420,941.265305 350.763565Z" style="stroke:rgb(25.500488%,41.000366%,88.400269%); stroke-width: 2.500000;stroke-linecap: round;stroke-linejoin: round;stroke-miterlimit: 10.000000;fill: none;"></path>
  <path d="M853.145462 131.832916C853.145462 97.028061,839.317230 63.652878,814.708344 39.043991C790.099457 14.435104,756.724274 0.606873,721.919418 0.606873C687.114563 0.606873,653.739380 14.435104,629.130493 39.043991C604.521606 63.652878,590.693375 97.028061,590.693375 131.832916C590.693375 166.637772,604.521606 200.012955,629.130493 224.621841C653.739380 249.230728,687.114563 263.058960,721.919418 263.058960C756.724274 263.058960,790.099457 249.230728,814.708344 224.621841C839.317230 200.012955,853.145462 166.637772,853.145462 131.832916Z" style="stroke:rgb(25.500488%,41.000366%,88.400269%); stroke-width: 2.500000;stroke-linecap: round;stroke-linejoin: round;stroke-miterlimit: 10.000000;fill: none;"></path>
  <path d="M1147.103210 1575.280411C1147.103210 1540.475555,1133.274979 1507.100372,1108.666092 1482.491486C1084.057205 1457.882599,1050.682022 1444.054367,1015.877167 1444.054367C981.072311 1444.054367,947.697128 1457.882599,923.088242 1482.491486C898.479355 1507.100372,884.651123 1540.475555,884.651123 1575.280411C884.651123 1610.085266,898.479355 1643.460449,923.088242 1668.069336C947.697128 1692.678223,981.072311 1706.506454,1015.877167 1706.506454C1050.682022 1706.506454,1084.057205 1692.678223,1108.666092 1668.069336C1133.274979 1643.460449,1147.103210 1610.085266,1147.103210 1575.280411Z" style="stroke:rgb(25.500488%,41.000366%,88.400269%); stroke-width: 2.500000;stroke-linecap: round;stroke-linejoin: round;stroke-miterlimit: 10.000000;fill: none;"></path>
  <path d="M1063.498993 1369.118118C1063.498993 1334.313263,1049.670761 1300.938080,1025.061874 1276.329193C1000.452988 1251.720306,967.077805 1237.892075,932.272949 1237.892075C897.468094 1237.892075,864.092911 1251.720306,839.484024 1276.329193C814.875137 1300.938080,801.046906 1334.313263,801.046906 1369.118118C801.046906 1403.922974,814.875137 1437.298157,839.484024 1461.907043C864.092911 1486.515930,897.468094 1500.344162,932.272949 1500.344162C967.077805 1500.344162,1000.452988 1486.515930,1025.061874 1461.907043C1049.670761 1437.298157,1063.498993 1403.922974,1063.498993 1369.118118Z" style="stroke:rgb(25.500488%,41.000366%,88.400269%); stroke-width: 2.500000;stroke-linecap: round;stroke-linejoin: round;stroke-miterlimit: 10.000000;fill: none;"></path>
  <path d="M987.433823 1158.751602C987.433823 1123.946747,973.605591 1090.571564,948.996704 1065.962677C924.387817 1041.353790,891.012634 1027.525558,856.207779 1027.525558C821.402924 1027.525558,788.027740 1041.353790,763.418854 1065.962677C738.809967 1090.571564,724.981735 1123.946747,724.981735 1158.751602C724.981735 1193.556458,738.809967 1226.931641,763.418854 1251.540527C788.027740 1276.149414,821.402924 1289.977646,856.207779 1289.977646C891.012634 1289.977646,924.387817 1276.149414,948.996704 1251.540527C973.605591 1226.931641,987.433823 1193.556458,987.433823 1158.751602Z" style="stroke:rgb(25.500488%,41.000366%,88.400269%); stroke-width: 2.500000;stroke-linecap: round;stroke-linejoin: round;stroke-miterlimit: 10.000000;fill: none;"></path>
  <path d="M923.851547 941.507828C923.851547 906.702972,910.023315 873.327789,885.414429 848.718903C860.805542 824.110016,827.430359 810.281784,792.625504 810.281784C757.820648 810.281784,724.445465 824.110016,699.836578 848.718903C675.227692 873.327789,661.399460 906.702972,661.399460 941.507828C661.399460 976.312683,675.227692 1009.687866,699.836578 1034.296753C724.445465 1058.905640,757.820648 1072.733871,792.625504 1072.733871C827.430359 1072.733871,860.805542 1058.905640,885.414429 1034.296753C910.023315 1009.687866,923.851547 976.312683,923.851547 941.507828Z" style="stroke:rgb(25.500488%,41.000366%,88.400269%); stroke-width: 2.500000;stroke-linecap: round;stroke-linejoin: round;stroke-miterlimit: 10.000000;fill: none;"></path>
  <path d="M840.623642 729.117050C840.623642 694.312195,826.795410 660.937012,802.186523 636.328125C777.577637 611.719238,744.202454 597.891006,709.397598 597.891006C674.592743 597.891006,641.217560 611.719238,616.608673 636.328125C591.999786 660.937012,578.171555 694.312195,578.171555 729.117050C578.171555 763.921906,591.999786 797.297089,616.608673 821.905975C641.217560 846.514862,674.592743 860.343094,709.397598 860.343094C744.202454 860.343094,777.577637 846.514862,802.186523 821.905975C826.795410 797.297089,840.623642 763.921906,840.623642 729.117050Z" style="stroke:rgb(25.500488%,41.000366%,88.400269%); stroke-width: 2.500000;stroke-linecap: round;stroke-linejoin: round;stroke-miterlimit: 10.000000;fill: none;"></path>
  <path d="M784.593384 523.616531C784.593384 488.811676,770.765152 455.436493,746.156265 430.827606C721.547379 406.218719,688.172195 392.390488,653.367340 392.390488C618.562485 392.390488,585.187302 406.218719,560.578415 430.827606C535.969528 455.436493,522.141296 488.811676,522.141296 523.616531C522.141296 558.421387,535.969528 591.796570,560.578415 616.405457C585.187302 641.014343,618.562485 654.842575,653.367340 654.842575C688.172195 654.842575,721.547379 641.014343,746.156265 616.405457C770.765152 591.796570,784.593384 558.421387,784.593384 523.616531Z" style="stroke:rgb(25.500488%,41.000366%,88.400269%); stroke-width: 2.500000;stroke-linecap: round;stroke-linejoin: round;stroke-miterlimit: 10.000000;fill: none;"></path>
  <path d="M721.296570 308.500809C721.296570 273.695953,707.468338 240.320770,682.859451 215.711884C658.250565 191.102997,624.875381 177.274765,590.070526 177.274765C555.265671 177.274765,521.890488 191.102997,497.281601 215.711884C472.672714 240.320770,458.844482 273.695953,458.844482 308.500809C458.844482 343.305664,472.672714 376.680847,497.281601 401.289734C521.890488 425.898621,555.265671 439.726852,590.070526 439.726852C624.875381 439.726852,658.250565 425.898621,682.859451 401.289734C707.468338 376.680847,721.296570 343.305664,721.296570 308.500809Z" style="stroke:rgb(25.500488%,41.000366%,88.400269%); stroke-width: 2.500000;stroke-linecap: round;stroke-linejoin: round;stroke-miterlimit: 10.000000;fill: none;"></path>
  <path d="M931.637131 1571.257858C931.637131 1536.453003,917.808899 1503.077820,893.200012 1478.468933C868.591125 1453.860046,835.215942 1440.031815,800.411087 1440.031815C765.606232 1440.031815,732.231049 1453.860046,707.622162 1478.468933C683.013275 1503.077820,669.185043 1536.453003,669.185043 1571.257858C669.185043 1606.062714,683.013275 1639.437897,707.622162 1664.046783C732.231049 1688.655670,765.606232 1702.483902,800.411087 1702.483902C835.215942 1702.483902,868.591125 1688.655670,893.200012 1664.046783C917.808899 1639.437897,931.637131 1606.062714,931.637131 1571.257858Z" style="stroke:rgb(25.500488%,41.000366%,88.400269%); stroke-width: 2.500000;stroke-linecap: round;stroke-linejoin: round;stroke-miterlimit: 10.000000;fill: none;"></path>
  <path d="M853.949966 1357.504623C853.949966 1322.699768,840.121735 1289.324585,815.512848 1264.715698C790.903961 1240.106812,757.528778 1226.278580,722.723923 1226.278580C687.919067 1226.278580,654.543884 1240.106812,629.934998 1264.715698C605.326111 1289.324585,591.497879 1322.699768,591.497879 1357.504623C591.497879 1392.309479,605.326111 1425.684662,629.934998 1450.293549C654.543884 1474.902435,687.919067 1488.730667,722.723923 1488.730667C757.528778 1488.730667,790.903961 1474.902435,815.512848 1450.293549C840.121735 1425.684662,853.949966 1392.309479,853.949966 1357.504623Z" style="stroke:rgb(25.500488%,41.000366%,88.400269%); stroke-width: 2.500000;stroke-linecap: round;stroke-linejoin: round;stroke-miterlimit: 10.000000;fill: none;"></path>
  <path d="M780.505951 1138.171707C780.505951 1103.366852,766.677719 1069.991669,742.068832 1045.382782C717.459946 1020.773895,684.084763 1006.945663,649.279907 1006.945663C614.475052 1006.945663,581.099869 1020.773895,556.490982 1045.382782C531.882095 1069.991669,518.053864 1103.366852,518.053864 1138.171707C518.053864 1172.976562,531.882095 1206.351746,556.490982 1230.960632C581.099869 1255.569519,614.475052 1269.397751,649.279907 1269.397751C684.084763 1269.397751,717.459946 1255.569519,742.068832 1230.960632C766.677719 1206.351746,780.505951 1172.976562,780.505951 1138.171707Z" style="stroke:rgb(25.500488%,41.000366%,88.400269%); stroke-width: 2.500000;stroke-linecap: round;stroke-linejoin: round;stroke-miterlimit: 10.000000;fill: none;"></path>
  <path d="M710.422699 928.376129C710.422699 893.571274,696.594467 860.196091,671.985580 835.587204C647.376694 810.978317,614.001511 797.150085,579.196655 797.150085C544.391800 797.150085,511.016617 810.978317,486.407730 835.587204C461.798843 860.196091,447.970612 893.571274,447.970612 928.376129C447.970612 963.180984,461.798843 996.556168,486.407730 1021.165054C511.016617 1045.773941,544.391800 1059.602173,579.196655 1059.602173C614.001511 1059.602173,647.376694 1045.773941,671.985580 1021.165054C696.594467 996.556168,710.422699 963.180984,710.422699 928.376129Z" style="stroke:rgb(25.500488%,41.000366%,88.400269%); stroke-width: 2.500000;stroke-linecap: round;stroke-linejoin: round;stroke-miterlimit: 10.000000;fill: none;"></path>
  <path d="M627.233719 715.933472C627.233719 681.128616,613.405487 647.753433,588.796600 623.144547C564.187714 598.535660,530.812531 584.707428,496.007675 584.707428C461.202820 584.707428,427.827637 598.535660,403.218750 623.144547C378.609863 647.753433,364.781631 681.128616,364.781631 715.933472C364.781631 750.738327,378.609863 784.113510,403.218750 808.722397C427.827637 833.331284,461.202820 847.159515,496.007675 847.159515C530.812531 847.159515,564.187714 833.331284,588.796600 808.722397C613.405487 784.113510,627.233719 750.738327,627.233719 715.933472Z" style="stroke:rgb(25.500488%,41.000366%,88.400269%); stroke-width: 2.500000;stroke-linecap: round;stroke-linejoin: round;stroke-miterlimit: 10.000000;fill: none;"></path>
  <path d="M585.217514 517.517822C585.217514 482.712967,571.389282 449.337784,546.780396 424.728897C522.171509 400.120010,488.796326 386.291779,453.991470 386.291779C419.186615 386.291779,385.811432 400.120010,361.202545 424.728897C336.593658 449.337784,322.765427 482.712967,322.765427 517.517822C322.765427 552.322678,336.593658 585.697861,361.202545 610.306747C385.811432 634.915634,419.186615 648.743866,453.991470 648.743866C488.796326 648.743866,522.171509 634.915634,546.780396 610.306747C571.389282 585.697861,585.217514 552.322678,585.217514 517.517822Z" style="stroke:rgb(25.500488%,41.000366%,88.400269%); stroke-width: 2.500000;stroke-linecap: round;stroke-linejoin: round;stroke-miterlimit: 10.000000;fill: none;"></path>
  <path d="M511.124695 315.987946C511.124695 281.183090,497.296463 247.807907,472.687576 223.199020C448.078690 198.590134,414.703506 184.761902,379.898651 184.761902C345.093796 184.761902,311.718613 198.590134,287.109726 223.199020C262.500839 247.807907,248.672607 281.183090,248.672607 315.987946C248.672607 350.792801,262.500839 384.167984,287.109726 408.776871C311.718613 433.385757,345.093796 447.213989,379.898651 447.213989C414.703506 447.213989,448.078690 433.385757,472.687576 408.776871C497.296463 384.167984,511.124695 350.792801,511.124695 315.987946Z" style="stroke:rgb(25.500488%,41.000366%,88.400269%); stroke-width: 2.500000;stroke-linecap: round;stroke-linejoin: round;stroke-miterlimit: 10.000000;fill: none;"></path>
  <path d="M737.750107 1550.405472C737.750107 1515.600616,723.921875 1482.225433,699.312988 1457.616547C674.704102 1433.007660,641.328918 1419.179428,606.524063 1419.179428C571.719208 1419.179428,538.344025 1433.007660,513.735138 1457.616547C489.126251 1482.225433,475.298019 1515.600616,475.298019 1550.405472C475.298019 1585.210327,489.126251 1618.585510,513.735138 1643.194397C538.344025 1667.803284,571.719208 1681.631516,606.524063 1681.631516C641.328918 1681.631516,674.704102 1667.803284,699.312988 1643.194397C723.921875 1618.585510,737.750107 1585.210327,737.750107 1550.405472Z" style="stroke:rgb(25.500488%,41.000366%,88.400269%); stroke-width: 2.500000;stroke-linecap: round;stroke-linejoin: round;stroke-miterlimit: 10.000000;fill: none;"></path>
  <path d="M656.403717 1316.474579C656.403717 1281.669724,642.575485 1248.294540,617.966599 1223.685654C593.357712 1199.076767,559.982529 1185.248535,525.177673 1185.248535C490.372818 1185.248535,456.997635 1199.076767,432.388748 1223.685654C407.779861 1248.294540,393.951630 1281.669724,393.951630 1316.474579C393.951630 1351.279434,407.779861 1384.654617,432.388748 1409.263504C456.997635 1433.872391,490.372818 1447.700623,525.177673 1447.700623C559.982529 1447.700623,593.357712 1433.872391,617.966599 1409.263504C642.575485 1384.654617,656.403717 1351.279434,656.403717 1316.474579Z" style="stroke:rgb(25.500488%,41.000366%,88.400269%); stroke-width: 2.500000;stroke-linecap: round;stroke-linejoin: round;stroke-miterlimit: 10.000000;fill: none;"></path>
  <path d="M555.956696 1102.721344C555.956696 1067.916489,542.128464 1034.541306,517.519577 1009.932419C492.910690 985.323532,459.535507 971.495300,424.730652 971.495300C389.925797 971.495300,356.550613 985.323532,331.941727 1009.932419C307.332840 1034.541306,293.504608 1067.916489,293.504608 1102.721344C293.504608 1137.526199,307.332840 1170.901382,331.941727 1195.510269C356.550613 1220.119156,389.925797 1233.947388,424.730652 1233.947388C459.535507 1233.947388,492.910690 1220.119156,517.519577 1195.510269C542.128464 1170.901382,555.956696 1137.526199,555.956696 1102.721344Z" style="stroke:rgb(25.500488%,41.000366%,88.400269%); stroke-width: 2.500000;stroke-linecap: round;stroke-linejoin: round;stroke-miterlimit: 10.000000;fill: none;"></path>
  <path d="M488.222107 898.466507C488.222107 863.661652,474.393875 830.286469,449.784988 805.677582C425.176102 781.068695,391.800919 767.240463,356.996063 767.240463C322.191208 767.240463,288.816025 781.068695,264.207138 805.677582C239.598251 830.286469,225.770020 863.661652,225.770020 898.466507C225.770020 933.271362,239.598251 966.646545,264.207138 991.255432C288.816025 1015.864319,322.191208 1029.692551,356.996063 1029.692551C391.800919 1029.692551,425.176102 1015.864319,449.784988 991.255432C474.393875 966.646545,488.222107 933.271362,488.222107 898.466507Z" style="stroke:rgb(25.500488%,41.000366%,88.400269%); stroke-width: 2.500000;stroke-linecap: round;stroke-linejoin: round;stroke-miterlimit: 10.000000;fill: none;"></path>
  <path d="M404.527054 686.633713C404.527054 651.828857,390.698822 618.453674,366.089935 593.844788C341.481049 569.235901,308.105865 555.407669,273.301010 555.407669C238.496155 555.407669,205.120972 569.235901,180.512085 593.844788C155.903198 618.453674,142.074966 651.828857,142.074966 686.633713C142.074966 721.438568,155.903198 754.813751,180.512085 779.422638C205.120972 804.031525,238.496155 817.859756,273.301010 817.859756C308.105865 817.859756,341.481049 804.031525,366.089935 779.422638C390.698822 754.813751,404.527054 721.438568,404.527054 686.633713Z" style="stroke:rgb(25.500488%,41.000366%,88.400269%); stroke-width: 2.500000;stroke-linecap: round;stroke-linejoin: round;stroke-miterlimit: 10.000000;fill: none;"></path>
  <path d="M374.020538 475.618408C374.020538 440.813553,360.192307 407.438370,335.583420 382.829483C310.974533 358.220596,277.599350 344.392365,242.794495 344.392365C207.989639 344.392365,174.614456 358.220596,150.005569 382.829483C125.396683 407.438370,111.568451 440.813553,111.568451 475.618408C111.568451 510.423264,125.396683 543.798447,150.005569 568.407333C174.614456 593.016220,207.989639 606.844452,242.794495 606.844452C277.599350 606.844452,310.974533 593.016220,335.583420 568.407333C360.192307 543.798447,374.020538 510.423264,374.020538 475.618408Z" style="stroke:rgb(25.500488%,41.000366%,88.400269%); stroke-width: 2.500000;stroke-linecap: round;stroke-linejoin: round;stroke-miterlimit: 10.000000;fill: none;"></path>
  <path d="M552.154724 1462.181808C552.154724 1427.376953,538.326492 1394.001770,513.717606 1369.392883C489.108719 1344.783997,455.733536 1330.955765,420.928680 1330.955765C386.123825 1330.955765,352.748642 1344.783997,328.139755 1369.392883C303.530869 1394.001770,289.702637 1427.376953,289.702637 1462.181808C289.702637 1496.986664,303.530869 1530.361847,328.139755 1554.970734C352.748642 1579.579620,386.123825 1593.407852,420.928680 1593.407852C455.733536 1593.407852,489.108719 1579.579620,513.717606 1554.970734C538.326492 1530.361847,552.154724 1496.986664,552.154724 1462.181808Z" style="stroke:rgb(25.500488%,41.000366%,88.400269%); stroke-width: 2.500000;stroke-linecap: round;stroke-linejoin: round;stroke-miterlimit: 10.000000;fill: none;"></path>
  <path d="M424.237564 1251.010788C424.237564 1216.205933,410.409332 1182.830750,385.800446 1158.221863C361.191559 1133.612976,327.816376 1119.784744,293.011520 1119.784744C258.206665 1119.784744,224.831482 1133.612976,200.222595 1158.221863C175.613708 1182.830750,161.785477 1216.205933,161.785477 1251.010788C161.785477 1285.815643,175.613708 1319.190826,200.222595 1343.799713C224.831482 1368.408600,258.206665 1382.236832,293.011520 1382.236832C327.816376 1382.236832,361.191559 1368.408600,385.800446 1343.799713C410.409332 1319.190826,424.237564 1285.815643,424.237564 1251.010788Z" style="stroke:rgb(25.500488%,41.000366%,88.400269%); stroke-width: 2.500000;stroke-linecap: round;stroke-linejoin: round;stroke-miterlimit: 10.000000;fill: none;"></path>
  <path d="M326.982635 1067.828949C326.982635 1033.024094,313.154404 999.648911,288.545517 975.040024C263.936630 950.431137,230.561447 936.602905,195.756592 936.602905C160.951736 936.602905,127.576553 950.431137,102.967667 975.040024C78.358780 999.648911,64.530548 1033.024094,64.530548 1067.828949C64.530548 1102.633804,78.358780 1136.008987,102.967667 1160.617874C127.576553 1185.226761,160.951736 1199.054993,195.756592 1199.054993C230.561447 1199.054993,263.936630 1185.226761,288.545517 1160.617874C313.154404 1136.008987,326.982635 1102.633804,326.982635 1067.828949Z" style="stroke:rgb(25.500488%,41.000366%,88.400269%); stroke-width: 2.500000;stroke-linecap: round;stroke-linejoin: round;stroke-miterlimit: 10.000000;fill: none;"></path>
  <path d="M262.712631 862.224609C262.712631 827.419754,248.884399 794.044571,224.275513 769.435684C199.666626 744.826797,166.291443 730.998566,131.486588 730.998566C96.681732 730.998566,63.306549 744.826797,38.697662 769.435684C14.088776 794.044571,0.260544 827.419754,0.260544 862.224609C0.260544 897.029465,14.088776 930.404648,38.697662 955.013535C63.306549 979.622421,96.681732 993.450653,131.486588 993.450653C166.291443 993.450653,199.666626 979.622421,224.275513 955.013535C248.884399 930.404648,262.712631 897.029465,262.712631 862.224609Z" style="stroke:rgb(25.500488%,41.000366%,88.400269%); stroke-width: 2.500000;stroke-linecap: round;stroke-linejoin: round;stroke-miterlimit: 10.000000;fill: none;"></path>
</svg>
