<?xml version="1.0"?>
<!-- Created by MetaPost 2.00 on 2022.03.02:1201 -->
<svg version="1.1" xmlns="http://www.w3.org/2000/svg" xmlns:xlink="http://www.w3.org/1999/xlink" width="1848.592026" height="1820.823441" viewBox="0 0 1848.592026 1820.823441">
<!-- Original BoundingBox: -936.259857 -893.542953 912.332169 927.280487 -->
  <path d="M1786.393524 927.000000L1623.986221 427.152451L1198.789459 118.233398L673.210541 118.233398L248.013779 427.152451L85.606476 927.000000L248.013779 1426.847549L673.210541 1735.766602L1198.789459 1735.766602L1623.986221 1426.847549L1786.393524 927.000000Z" style="fill: rgb(100.000000%,100.000000%,100.000000%);stroke: none;"></path>
  <path d="M1786.393524 927.000000L1623.986221 427.152451" style="stroke:rgb(0.000000%,0.000000%,0.000000%); stroke-width: 2.500000;stroke-linecap: round;stroke-linejoin: round;stroke-miterlimit: 10.000000;fill: none;"></path>
  <path d="M1623.986221 427.152451L1198.789459 118.233398" style="stroke:rgb(0.000000%,0.000000%,0.000000%); stroke-width: 2.500000;stroke-linecap: round;stroke-linejoin: round;stroke-miterlimit: 10.000000;fill: none;"></path>
  <path d="M1198.789459 118.233398L673.210541 118.233398" style="stroke:rgb(0.000000%,0.000000%,0.000000%); stroke-width: 2.500000;stroke-linecap: round;stroke-linejoin: round;stroke-miterlimit: 10.000000;fill: none;"></path>
  <path d="M673.210541 118.233398L248.013779 427.152451" style="stroke:rgb(0.000000%,0.000000%,0.000000%); stroke-width: 2.500000;stroke-linecap: round;stroke-linejoin: round;stroke-miterlimit: 10.000000;fill: none;"></path>
  <path d="M248.013779 427.152451L85.606476 927.000000" style="stroke:rgb(0.000000%,0.000000%,0.000000%); stroke-width: 2.500000;stroke-linecap: round;stroke-linejoin: round;stroke-miterlimit: 10.000000;fill: none;"></path>
  <path d="M85.606476 927.000000L248.013779 1426.847549" style="stroke:rgb(0.000000%,0.000000%,0.000000%); stroke-width: 2.500000;stroke-linecap: round;stroke-linejoin: round;stroke-miterlimit: 10.000000;fill: none;"></path>
  <path d="M248.013779 1426.847549L673.210541 1735.766602" style="stroke:rgb(0.000000%,0.000000%,0.000000%); stroke-width: 2.500000;stroke-linecap: round;stroke-linejoin: round;stroke-miterlimit: 10.000000;fill: none;"></path>
  <path d="M673.210541 1735.766602L1198.789459 1735.766602" style="stroke:rgb(0.000000%,0.000000%,0.000000%); stroke-width: 2.500000;stroke-linecap: round;stroke-linejoin: round;stroke-miterlimit: 10.000000;fill: none;"></path>
  <path d="M1198.789459 1735.766602L1623.986221 1426.847549" style="stroke:rgb(0.000000%,0.000000%,0.000000%); stroke-width: 2.500000;stroke-linecap: round;stroke-linejoin: round;stroke-miterlimit: 10.000000;fill: none;"></path>
  <path d="M1623.986221 1426.847549L1786.393524 927.000000" style="stroke:rgb(0.000000%,0.000000%,0.000000%); stroke-width: 2.500000;stroke-linecap: round;stroke-linejoin: round;stroke-miterlimit: 10.000000;fill: none;"></path>
  <path d="M844.688065 1658.793106C844.688065 1617.514603,828.287811 1577.931702,799.101715 1548.745605C769.915619 1519.559509,730.332718 1503.159256,689.054214 1503.159256C647.775711 1503.159256,608.192810 1519.559509,579.006714 1548.745605C549.820618 1577.931702,533.420364 1617.514603,533.420364 1658.793106C533.420364 1700.071609,549.820618 1739.654510,579.006714 1768.840607C608.192810 1798.026703,647.775711 1814.426956,689.054214 1814.426956C730.332718 1814.426956,769.915619 1798.026703,799.101715 1768.840607C828.287811 1739.654510,844.688065 1700.071609,844.688065 1658.793106Z" style="stroke:rgb(25.500488%,41.000366%,88.400269%); stroke-width: 2.500000;stroke-linecap: round;stroke-linejoin: round;stroke-miterlimit: 10.000000;fill: none;"></path>
  <path d="M1097.434113 1633.684601C1097.434113 1592.406097,1081.033859 1552.823196,1051.847763 1523.637100C1022.661667 1494.451004,983.078766 1478.050751,941.800262 1478.050751C900.521759 1478.050751,860.938858 1494.451004,831.752762 1523.637100C802.566666 1552.823196,786.166412 1592.406097,786.166412 1633.684601C786.166412 1674.963104,802.566666 1714.546005,831.752762 1743.732101C860.938858 1772.918198,900.521759 1789.318451,941.800262 1789.318451C983.078766 1789.318451,1022.661667 1772.918198,1051.847763 1743.732101C1081.033859 1714.546005,1097.434113 1674.963104,1097.434113 1633.684601Z" style="stroke:rgb(25.500488%,41.000366%,88.400269%); stroke-width: 2.500000;stroke-linecap: round;stroke-linejoin: round;stroke-miterlimit: 10.000000;fill: none;"></path>
  <path d="M1352.827255 1663.659103C1352.827255 1622.380600,1336.427002 1582.797699,1307.240906 1553.611603C1278.054810 1524.425507,1238.471909 1508.025253,1197.193405 1508.025253C1155.914902 1508.025253,1116.332001 1524.425507,1087.145905 1553.611603C1057.959808 1582.797699,1041.559555 1622.380600,1041.559555 1663.659103C1041.559555 1704.937607,1057.959808 1744.520508,1087.145905 1773.706604C1116.332001 1802.892700,1155.914902 1819.292953,1197.193405 1819.292953C1238.471909 1819.292953,1278.054810 1802.892700,1307.240906 1773.706604C1336.427002 1744.520508,1352.827255 1704.937607,1352.827255 1663.659103Z" style="stroke:rgb(25.500488%,41.000366%,88.400269%); stroke-width: 2.500000;stroke-linecap: round;stroke-linejoin: round;stroke-miterlimit: 10.000000;fill: none;"></path>
  <path d="M656.808914 1483.604462C656.808914 1442.325958,640.408661 1402.743057,611.222565 1373.556961C582.036469 1344.370865,542.453568 1327.970612,501.175064 1327.970612C459.896561 1327.970612,420.313660 1344.370865,391.127563 1373.556961C361.941467 1402.743057,345.541214 1442.325958,345.541214 1483.604462C345.541214 1524.882965,361.941467 1564.465866,391.127563 1593.651962C420.313660 1622.838058,459.896561 1639.238312,501.175064 1639.238312C542.453568 1639.238312,582.036469 1622.838058,611.222565 1593.651962C640.408661 1564.465866,656.808914 1524.882965,656.808914 1483.604462Z" style="stroke:rgb(25.500488%,41.000366%,88.400269%); stroke-width: 2.500000;stroke-linecap: round;stroke-linejoin: round;stroke-miterlimit: 10.000000;fill: none;"></path>
  <path d="M943.422256 1425.666733C943.422256 1384.388229,927.022003 1344.805328,897.835907 1315.619232C868.649811 1286.433136,829.066910 1270.032883,787.788406 1270.032883C746.509903 1270.032883,706.927002 1286.433136,677.740906 1315.619232C648.554810 1344.805328,632.154556 1384.388229,632.154556 1425.666733C632.154556 1466.945236,648.554810 1506.528137,677.740906 1535.714233C706.927002 1564.900330,746.509903 1581.300583,787.788406 1581.300583C829.066910 1581.300583,868.649811 1564.900330,897.835907 1535.714233C927.022003 1506.528137,943.422256 1466.945236,943.422256 1425.666733Z" style="stroke:rgb(25.500488%,41.000366%,88.400269%); stroke-width: 2.500000;stroke-linecap: round;stroke-linejoin: round;stroke-miterlimit: 10.000000;fill: none;"></path>
  <path d="M1227.842667 1406.124908C1227.842667 1364.846405,1211.442413 1325.263504,1182.256317 1296.077408C1153.070221 1266.891312,1113.487320 1250.491058,1072.208817 1250.491058C1030.930313 1250.491058,991.347412 1266.891312,962.161316 1296.077408C932.975220 1325.263504,916.574966 1364.846405,916.574966 1406.124908C916.574966 1447.403412,932.975220 1486.986313,962.161316 1516.172409C991.347412 1545.358505,1030.930313 1561.758759,1072.208817 1561.758759C1113.487320 1561.758759,1153.070221 1545.358505,1182.256317 1516.172409C1211.442413 1486.986313,1227.842667 1447.403412,1227.842667 1406.124908Z" style="stroke:rgb(25.500488%,41.000366%,88.400269%); stroke-width: 2.500000;stroke-linecap: round;stroke-linejoin: round;stroke-miterlimit: 10.000000;fill: none;"></path>
  <path d="M1496.575119 1471.575729C1496.575119 1430.297226,1480.174866 1390.714325,1450.988770 1361.528229C1421.802673 1332.342133,1382.219772 1315.941879,1340.941269 1315.941879C1299.662766 1315.941879,1260.079865 1332.342133,1230.893768 1361.528229C1201.707672 1390.714325,1185.307419 1430.297226,1185.307419 1471.575729C1185.307419 1512.854233,1201.707672 1552.437134,1230.893768 1581.623230C1260.079865 1610.809326,1299.662766 1627.209579,1340.941269 1627.209579C1382.219772 1627.209579,1421.802673 1610.809326,1450.988770 1581.623230C1480.174866 1552.437134,1496.575119 1512.854233,1496.575119 1471.575729Z" style="stroke:rgb(25.500488%,41.000366%,88.400269%); stroke-width: 2.500000;stroke-linecap: round;stroke-linejoin: round;stroke-miterlimit: 10.000000;fill: none;"></path>
  <path d="M1735.164368 1401.998550C1735.164368 1360.720047,1718.764114 1321.137146,1689.578018 1291.951050C1660.391922 1262.764954,1620.809021 1246.364700,1579.530518 1246.364700C1538.252014 1246.364700,1498.669113 1262.764954,1469.483017 1291.951050C1440.296921 1321.137146,1423.896667 1360.720047,1423.896667 1401.998550C1423.896667 1443.277054,1440.296921 1482.859955,1469.483017 1512.046051C1498.669113 1541.232147,1538.252014 1557.632401,1579.530518 1557.632401C1620.809021 1557.632401,1660.391922 1541.232147,1689.578018 1512.046051C1718.764114 1482.859955,1735.164368 1443.277054,1735.164368 1401.998550Z" style="stroke:rgb(25.500488%,41.000366%,88.400269%); stroke-width: 2.500000;stroke-linecap: round;stroke-linejoin: round;stroke-miterlimit: 10.000000;fill: none;"></path>
  <path d="M507.001282 1342.633469C507.001282 1301.354965,490.601028 1261.772064,461.414932 1232.585968C432.228836 1203.399872,392.645935 1186.999619,351.367432 1186.999619C310.088928 1186.999619,270.506027 1203.399872,241.319931 1232.585968C212.133835 1261.772064,195.733582 1301.354965,195.733582 1342.633469C195.733582 1383.911972,212.133835 1423.494873,241.319931 1452.680969C270.506027 1481.867065,310.088928 1498.267319,351.367432 1498.267319C392.645935 1498.267319,432.228836 1481.867065,461.414932 1452.680969C490.601028 1423.494873,507.001282 1383.911972,507.001282 1342.633469Z" style="stroke:rgb(25.500488%,41.000366%,88.400269%); stroke-width: 2.500000;stroke-linecap: round;stroke-linejoin: round;stroke-miterlimit: 10.000000;fill: none;"></path>
  <path d="M784.168106 1246.805893C784.168106 1205.527390,767.767853 1165.944489,738.581757 1136.758392C709.395660 1107.572296,669.812759 1091.172043,628.534256 1091.172043C587.255753 1091.172043,547.672852 1107.572296,518.486755 1136.758392C489.300659 1165.944489,472.900406 1205.527390,472.900406 1246.805893C472.900406 1288.084396,489.300659 1327.667297,518.486755 1356.853394C547.672852 1386.039490,587.255753 1402.439743,628.534256 1402.439743C669.812759 1402.439743,709.395660 1386.039490,738.581757 1356.853394C767.767853 1327.667297,784.168106 1288.084396,784.168106 1246.805893Z" style="stroke:rgb(25.500488%,41.000366%,88.400269%); stroke-width: 2.500000;stroke-linecap: round;stroke-linejoin: round;stroke-miterlimit: 10.000000;fill: none;"></path>
  <path d="M1061.905884 1199.145126C1061.905884 1157.866623,1045.505630 1118.283722,1016.319534 1089.097626C987.133438 1059.911530,947.550537 1043.511276,906.272034 1043.511276C864.993530 1043.511276,825.410629 1059.911530,796.224533 1089.097626C767.038437 1118.283722,750.638184 1157.866623,750.638184 1199.145126C750.638184 1240.423630,767.038437 1280.006531,796.224533 1309.192627C825.410629 1338.378723,864.993530 1354.778976,906.272034 1354.778976C947.550537 1354.778976,987.133438 1338.378723,1016.319534 1309.192627C1045.505630 1280.006531,1061.905884 1240.423630,1061.905884 1199.145126Z" style="stroke:rgb(25.500488%,41.000366%,88.400269%); stroke-width: 2.500000;stroke-linecap: round;stroke-linejoin: round;stroke-miterlimit: 10.000000;fill: none;"></path>
  <path d="M1347.727707 1217.039001C1347.727707 1175.760498,1331.327454 1136.177597,1302.141357 1106.991501C1272.955261 1077.805405,1233.372360 1061.405151,1192.093857 1061.405151C1150.815353 1061.405151,1111.232452 1077.805405,1082.046356 1106.991501C1052.860260 1136.177597,1036.460007 1175.760498,1036.460007 1217.039001C1036.460007 1258.317505,1052.860260 1297.900406,1082.046356 1327.086502C1111.232452 1356.272598,1150.815353 1372.672852,1192.093857 1372.672852C1233.372360 1372.672852,1272.955261 1356.272598,1302.141357 1327.086502C1331.327454 1297.900406,1347.727707 1258.317505,1347.727707 1217.039001Z" style="stroke:rgb(25.500488%,41.000366%,88.400269%); stroke-width: 2.500000;stroke-linecap: round;stroke-linejoin: round;stroke-miterlimit: 10.000000;fill: none;"></path>
  <path d="M1548.972107 1205.062180C1548.972107 1163.783676,1532.571854 1124.200775,1503.385757 1095.014679C1474.199661 1065.828583,1434.616760 1049.428329,1393.338257 1049.428329C1352.059753 1049.428329,1312.476852 1065.828583,1283.290756 1095.014679C1254.104660 1124.200775,1237.704407 1163.783676,1237.704407 1205.062180C1237.704407 1246.340683,1254.104660 1285.923584,1283.290756 1315.109680C1312.476852 1344.295776,1352.059753 1360.696030,1393.338257 1360.696030C1434.616760 1360.696030,1474.199661 1344.295776,1503.385757 1315.109680C1532.571854 1285.923584,1548.972107 1246.340683,1548.972107 1205.062180Z" style="stroke:rgb(25.500488%,41.000366%,88.400269%); stroke-width: 2.500000;stroke-linecap: round;stroke-linejoin: round;stroke-miterlimit: 10.000000;fill: none;"></path>
  <path d="M1777.751526 1130.022110C1777.751526 1088.743607,1761.351273 1049.160706,1732.165176 1019.974609C1702.979080 990.788513,1663.396179 974.388260,1622.117676 974.388260C1580.839172 974.388260,1541.256271 990.788513,1512.070175 1019.974609C1482.884079 1049.160706,1466.483826 1088.743607,1466.483826 1130.022110C1466.483826 1171.300613,1482.884079 1210.883514,1512.070175 1240.069611C1541.256271 1269.255707,1580.839172 1285.655960,1622.117676 1285.655960C1663.396179 1285.655960,1702.979080 1269.255707,1732.165176 1240.069611C1761.351273 1210.883514,1777.751526 1171.300613,1777.751526 1130.022110Z" style="stroke:rgb(25.500488%,41.000366%,88.400269%); stroke-width: 2.500000;stroke-linecap: round;stroke-linejoin: round;stroke-miterlimit: 10.000000;fill: none;"></path>
  <path d="M413.898651 1146.034470C413.898651 1104.755966,397.498398 1065.173065,368.312302 1035.986969C339.126205 1006.800873,299.543304 990.400620,258.264801 990.400620C216.986298 990.400620,177.403397 1006.800873,148.217300 1035.986969C119.031204 1065.173065,102.630951 1104.755966,102.630951 1146.034470C102.630951 1187.312973,119.031204 1226.895874,148.217300 1256.081970C177.403397 1285.268066,216.986298 1301.668320,258.264801 1301.668320C299.543304 1301.668320,339.126205 1285.268066,368.312302 1256.081970C397.498398 1226.895874,413.898651 1187.312973,413.898651 1146.034470Z" style="stroke:rgb(25.500488%,41.000366%,88.400269%); stroke-width: 2.500000;stroke-linecap: round;stroke-linejoin: round;stroke-miterlimit: 10.000000;fill: none;"></path>
  <path d="M682.579208 1099.463684C682.579208 1058.185181,666.178955 1018.602280,636.992859 989.416183C607.806763 960.230087,568.223862 943.829834,526.945358 943.829834C485.666855 943.829834,446.083954 960.230087,416.897858 989.416183C387.711761 1018.602280,371.311508 1058.185181,371.311508 1099.463684C371.311508 1140.742188,387.711761 1180.325089,416.897858 1209.511185C446.083954 1238.697281,485.666855 1255.097534,526.945358 1255.097534C568.223862 1255.097534,607.806763 1238.697281,636.992859 1209.511185C666.178955 1180.325089,682.579208 1140.742188,682.579208 1099.463684Z" style="stroke:rgb(25.500488%,41.000366%,88.400269%); stroke-width: 2.500000;stroke-linecap: round;stroke-linejoin: round;stroke-miterlimit: 10.000000;fill: none;"></path>
  <path d="M962.237427 1010.565277C962.237427 969.286774,945.837173 929.703873,916.651077 900.517776C887.464981 871.331680,847.882080 854.931427,806.603577 854.931427C765.325073 854.931427,725.742172 871.331680,696.556076 900.517776C667.369980 929.703873,650.969727 969.286774,650.969727 1010.565277C650.969727 1051.843781,667.369980 1091.426682,696.556076 1120.612778C725.742172 1149.798874,765.325073 1166.199127,806.603577 1166.199127C847.882080 1166.199127,887.464981 1149.798874,916.651077 1120.612778C945.837173 1091.426682,962.237427 1051.843781,962.237427 1010.565277Z" style="stroke:rgb(25.500488%,41.000366%,88.400269%); stroke-width: 2.500000;stroke-linecap: round;stroke-linejoin: round;stroke-miterlimit: 10.000000;fill: none;"></path>
  <path d="M1236.017532 994.020920C1236.017532 952.742416,1219.617279 913.159515,1190.431183 883.973419C1161.245087 854.787323,1121.662186 838.387070,1080.383682 838.387070C1039.105179 838.387070,999.522278 854.787323,970.336182 883.973419C941.150085 913.159515,924.749832 952.742416,924.749832 994.020920C924.749832 1035.299423,941.150085 1074.882324,970.336182 1104.068420C999.522278 1133.254517,1039.105179 1149.654770,1080.383682 1149.654770C1121.662186 1149.654770,1161.245087 1133.254517,1190.431183 1104.068420C1219.617279 1074.882324,1236.017532 1035.299423,1236.017532 994.020920Z" style="stroke:rgb(25.500488%,41.000366%,88.400269%); stroke-width: 2.500000;stroke-linecap: round;stroke-linejoin: round;stroke-miterlimit: 10.000000;fill: none;"></path>
  <path d="M1510.757858 987.481018C1510.757858 946.202515,1494.357605 906.619614,1465.171509 877.433517C1435.985413 848.247421,1396.402512 831.847168,1355.124008 831.847168C1313.845505 831.847168,1274.262604 848.247421,1245.076508 877.433517C1215.890411 906.619614,1199.490158 946.202515,1199.490158 987.481018C1199.490158 1028.759521,1215.890411 1068.342422,1245.076508 1097.528519C1274.262604 1126.714615,1313.845505 1143.114868,1355.124008 1143.114868C1396.402512 1143.114868,1435.985413 1126.714615,1465.171509 1097.528519C1494.357605 1068.342422,1510.757858 1028.759521,1510.757858 987.481018Z" style="stroke:rgb(25.500488%,41.000366%,88.400269%); stroke-width: 2.500000;stroke-linecap: round;stroke-linejoin: round;stroke-miterlimit: 10.000000;fill: none;"></path>
  <path d="M1788.742172 937.238037C1788.742172 895.959534,1772.341919 856.376633,1743.155823 827.190536C1713.969727 798.004440,1674.386826 781.604187,1633.108322 781.604187C1591.829819 781.604187,1552.246918 798.004440,1523.060822 827.190536C1493.874725 856.376633,1477.474472 895.959534,1477.474472 937.238037C1477.474472 978.516541,1493.874725 1018.099442,1523.060822 1047.285538C1552.246918 1076.471634,1591.829819 1092.871887,1633.108322 1092.871887C1674.386826 1092.871887,1713.969727 1076.471634,1743.155823 1047.285538C1772.341919 1018.099442,1788.742172 978.516541,1788.742172 937.238037Z" style="stroke:rgb(25.500488%,41.000366%,88.400269%); stroke-width: 2.500000;stroke-linecap: round;stroke-linejoin: round;stroke-miterlimit: 10.000000;fill: none;"></path>
  <path d="M312.257843 906.627716C312.257843 865.349213,295.857590 825.766312,266.671494 796.580215C237.485397 767.394119,197.902496 750.993866,156.623993 750.993866C115.345490 750.993866,75.762589 767.394119,46.576492 796.580215C17.390396 825.766312,0.990143 865.349213,0.990143 906.627716C0.990143 947.906219,17.390396 987.489120,46.576492 1016.675217C75.762589 1045.861313,115.345490 1062.261566,156.623993 1062.261566C197.902496 1062.261566,237.485397 1045.861313,266.671494 1016.675217C295.857590 987.489120,312.257843 947.906219,312.257843 906.627716Z" style="stroke:rgb(25.500488%,41.000366%,88.400269%); stroke-width: 2.500000;stroke-linecap: round;stroke-linejoin: round;stroke-miterlimit: 10.000000;fill: none;"></path>
  <path d="M559.073868 894.962311C559.073868 853.683807,542.673615 814.100906,513.487518 784.914810C484.301422 755.728714,444.718521 739.328461,403.440018 739.328461C362.161514 739.328461,322.578613 755.728714,293.392517 784.914810C264.206421 814.100906,247.806168 853.683807,247.806168 894.962311C247.806168 936.240814,264.206421 975.823715,293.392517 1005.009811C322.578613 1034.195908,362.161514 1050.596161,403.440018 1050.596161C444.718521 1050.596161,484.301422 1034.195908,513.487518 1005.009811C542.673615 975.823715,559.073868 936.240814,559.073868 894.962311Z" style="stroke:rgb(25.500488%,41.000366%,88.400269%); stroke-width: 2.500000;stroke-linecap: round;stroke-linejoin: round;stroke-miterlimit: 10.000000;fill: none;"></path>
  <path d="M830.323654 851.713394C830.323654 810.434891,813.923401 770.851990,784.737305 741.665894C755.551208 712.479797,715.968307 696.079544,674.689804 696.079544C633.411301 696.079544,593.828400 712.479797,564.642303 741.665894C535.456207 770.851990,519.055954 810.434891,519.055954 851.713394C519.055954 892.991898,535.456207 932.574799,564.642303 961.760895C593.828400 990.946991,633.411301 1007.347244,674.689804 1007.347244C715.968307 1007.347244,755.551208 990.946991,784.737305 961.760895C813.923401 932.574799,830.323654 892.991898,830.323654 851.713394Z" style="stroke:rgb(25.500488%,41.000366%,88.400269%); stroke-width: 2.500000;stroke-linecap: round;stroke-linejoin: round;stroke-miterlimit: 10.000000;fill: none;"></path>
  <path d="M1075.919937 774.324677C1075.919937 733.046173,1059.519684 693.463272,1030.333588 664.277176C1001.147491 635.091080,961.564590 618.690826,920.286087 618.690826C879.007584 618.690826,839.424683 635.091080,810.238586 664.277176C781.052490 693.463272,764.652237 733.046173,764.652237 774.324677C764.652237 815.603180,781.052490 855.186081,810.238586 884.372177C839.424683 913.558273,879.007584 929.958527,920.286087 929.958527C961.564590 929.958527,1001.147491 913.558273,1030.333588 884.372177C1059.519684 855.186081,1075.919937 815.603180,1075.919937 774.324677Z" style="stroke:rgb(25.500488%,41.000366%,88.400269%); stroke-width: 2.500000;stroke-linecap: round;stroke-linejoin: round;stroke-miterlimit: 10.000000;fill: none;"></path>
  <path d="M1314.093979 773.091949C1314.093979 731.813446,1297.693726 692.230545,1268.507629 663.044449C1239.321533 633.858353,1199.738632 617.458099,1158.460129 617.458099C1117.181625 617.458099,1077.598724 633.858353,1048.412628 663.044449C1019.226532 692.230545,1002.826279 731.813446,1002.826279 773.091949C1002.826279 814.370453,1019.226532 853.953354,1048.412628 883.139450C1077.598724 912.325546,1117.181625 928.725800,1158.460129 928.725800C1199.738632 928.725800,1239.321533 912.325546,1268.507629 883.139450C1297.693726 853.953354,1314.093979 814.370453,1314.093979 773.091949Z" style="stroke:rgb(25.500488%,41.000366%,88.400269%); stroke-width: 2.500000;stroke-linecap: round;stroke-linejoin: round;stroke-miterlimit: 10.000000;fill: none;"></path>
  <path d="M1576.559021 755.094284C1576.559021 713.815781,1560.158768 674.232880,1530.972672 645.046783C1501.786575 615.860687,1462.203674 599.460434,1420.925171 599.460434C1379.646667 599.460434,1340.063766 615.860687,1310.877670 645.046783C1281.691574 674.232880,1265.291321 713.815781,1265.291321 755.094284C1265.291321 796.372787,1281.691574 835.955688,1310.877670 865.141785C1340.063766 894.327881,1379.646667 910.728134,1420.925171 910.728134C1462.203674 910.728134,1501.786575 894.327881,1530.972672 865.141785C1560.158768 835.955688,1576.559021 796.372787,1576.559021 755.094284Z" style="stroke:rgb(25.500488%,41.000366%,88.400269%); stroke-width: 2.500000;stroke-linecap: round;stroke-linejoin: round;stroke-miterlimit: 10.000000;fill: none;"></path>
  <path d="M1847.082169 708.951706C1847.082169 667.673203,1830.681915 628.090302,1801.495819 598.904205C1772.309723 569.718109,1732.726822 553.317856,1691.448318 553.317856C1650.169815 553.317856,1610.586914 569.718109,1581.400818 598.904205C1552.214722 628.090302,1535.814468 667.673203,1535.814468 708.951706C1535.814468 750.230209,1552.214722 789.813110,1581.400818 818.999207C1610.586914 848.185303,1650.169815 864.585556,1691.448318 864.585556C1732.726822 864.585556,1772.309723 848.185303,1801.495819 818.999207C1830.681915 789.813110,1847.082169 750.230209,1847.082169 708.951706Z" style="stroke:rgb(25.500488%,41.000366%,88.400269%); stroke-width: 2.500000;stroke-linecap: round;stroke-linejoin: round;stroke-miterlimit: 10.000000;fill: none;"></path>
  <path d="M417.168594 651.260529C417.168594 609.982025,400.768341 570.399124,371.582245 541.213028C342.396149 512.026932,302.813248 495.626678,261.534744 495.626678C220.256241 495.626678,180.673340 512.026932,151.487244 541.213028C122.301147 570.399124,105.900894 609.982025,105.900894 651.260529C105.900894 692.539032,122.301147 732.121933,151.487244 761.308029C180.673340 790.494125,220.256241 806.894379,261.534744 806.894379C302.813248 806.894379,342.396149 790.494125,371.582245 761.308029C400.768341 732.121933,417.168594 692.539032,417.168594 651.260529Z" style="stroke:rgb(25.500488%,41.000366%,88.400269%); stroke-width: 2.500000;stroke-linecap: round;stroke-linejoin: round;stroke-miterlimit: 10.000000;fill: none;"></path>
  <path d="M669.149063 646.031204C669.149063 604.752701,652.748810 565.169800,623.562714 535.983704C594.376617 506.797607,554.793716 490.397354,513.515213 490.397354C472.236710 490.397354,432.653809 506.797607,403.467712 535.983704C374.281616 565.169800,357.881363 604.752701,357.881363 646.031204C357.881363 687.309708,374.281616 726.892609,403.467712 756.078705C432.653809 785.264801,472.236710 801.665054,513.515213 801.665054C554.793716 801.665054,594.376617 785.264801,623.562714 756.078705C652.748810 726.892609,669.149063 687.309708,669.149063 646.031204Z" style="stroke:rgb(25.500488%,41.000366%,88.400269%); stroke-width: 2.500000;stroke-linecap: round;stroke-linejoin: round;stroke-miterlimit: 10.000000;fill: none;"></path>
  <path d="M912.811935 574.611435C912.811935 533.332932,896.411682 493.750031,867.225586 464.563934C838.039490 435.377838,798.456589 418.977585,757.178085 418.977585C715.899582 418.977585,676.316681 435.377838,647.130585 464.563934C617.944489 493.750031,601.544235 533.332932,601.544235 574.611435C601.544235 615.889938,617.944489 655.472839,647.130585 684.658936C676.316681 713.845032,715.899582 730.245285,757.178085 730.245285C798.456589 730.245285,838.039490 713.845032,867.225586 684.658936C896.411682 655.472839,912.811935 615.889938,912.811935 574.611435Z" style="stroke:rgb(25.500488%,41.000366%,88.400269%); stroke-width: 2.500000;stroke-linecap: round;stroke-linejoin: round;stroke-miterlimit: 10.000000;fill: none;"></path>
  <path d="M1180.454407 518.503311C1180.454407 477.224808,1164.054153 437.641907,1134.868057 408.455811C1105.681961 379.269714,1066.099060 362.869461,1024.820557 362.869461C983.542053 362.869461,943.959152 379.269714,914.773056 408.455811C885.586960 437.641907,869.186707 477.224808,869.186707 518.503311C869.186707 559.781815,885.586960 599.364716,914.773056 628.550812C943.959152 657.736908,983.542053 674.137161,1024.820557 674.137161C1066.099060 674.137161,1105.681961 657.736908,1134.868057 628.550812C1164.054153 599.364716,1180.454407 559.781815,1180.454407 518.503311Z" style="stroke:rgb(25.500488%,41.000366%,88.400269%); stroke-width: 2.500000;stroke-linecap: round;stroke-linejoin: round;stroke-miterlimit: 10.000000;fill: none;"></path>
  <path d="M1413.866241 527.612457C1413.866241 486.333954,1397.465988 446.751053,1368.279892 417.564957C1339.093796 388.378860,1299.510895 371.978607,1258.232391 371.978607C1216.953888 371.978607,1177.370987 388.378860,1148.184891 417.564957C1118.998795 446.751053,1102.598541 486.333954,1102.598541 527.612457C1102.598541 568.890961,1118.998795 608.473862,1148.184891 637.659958C1177.370987 666.846054,1216.953888 683.246307,1258.232391 683.246307C1299.510895 683.246307,1339.093796 666.846054,1368.279892 637.659958C1397.465988 608.473862,1413.866241 568.890961,1413.866241 527.612457Z" style="stroke:rgb(25.500488%,41.000366%,88.400269%); stroke-width: 2.500000;stroke-linecap: round;stroke-linejoin: round;stroke-miterlimit: 10.000000;fill: none;"></path>
  <path d="M1673.697174 506.150192C1673.697174 464.871689,1657.296921 425.288788,1628.110825 396.102692C1598.924728 366.916595,1559.341827 350.516342,1518.063324 350.516342C1476.784821 350.516342,1437.201920 366.916595,1408.015823 396.102692C1378.829727 425.288788,1362.429474 464.871689,1362.429474 506.150192C1362.429474 547.428696,1378.829727 587.011597,1408.015823 616.197693C1437.201920 645.383789,1476.784821 661.784042,1518.063324 661.784042C1559.341827 661.784042,1598.924728 645.383789,1628.110825 616.197693C1657.296921 587.011597,1673.697174 547.428696,1673.697174 506.150192Z" style="stroke:rgb(25.500488%,41.000366%,88.400269%); stroke-width: 2.500000;stroke-linecap: round;stroke-linejoin: round;stroke-miterlimit: 10.000000;fill: none;"></path>
  <path d="M504.042755 406.222198C504.042755 364.943695,487.642502 325.360794,458.456406 296.174698C429.270309 266.988602,389.687408 250.588348,348.408905 250.588348C307.130402 250.588348,267.547501 266.988602,238.361404 296.174698C209.175308 325.360794,192.775055 364.943695,192.775055 406.222198C192.775055 447.500702,209.175308 487.083603,238.361404 516.269699C267.547501 545.455795,307.130402 561.856049,348.408905 561.856049C389.687408 561.856049,429.270309 545.455795,458.456406 516.269699C487.642502 487.083603,504.042755 447.500702,504.042755 406.222198Z" style="stroke:rgb(25.500488%,41.000366%,88.400269%); stroke-width: 2.500000;stroke-linecap: round;stroke-linejoin: round;stroke-miterlimit: 10.000000;fill: none;"></path>
  <path d="M728.423325 372.822037C728.423325 331.543533,712.023071 291.960632,682.836975 262.774536C653.650879 233.588440,614.067978 217.188187,572.789474 217.188187C531.510971 217.188187,491.928070 233.588440,462.741974 262.774536C433.555878 291.960632,417.155624 331.543533,417.155624 372.822037C417.155624 414.100540,433.555878 453.683441,462.741974 482.869537C491.928070 512.055634,531.510971 528.455887,572.789474 528.455887C614.067978 528.455887,653.650879 512.055634,682.836975 482.869537C712.023071 453.683441,728.423325 414.100540,728.423325 372.822037Z" style="stroke:rgb(25.500488%,41.000366%,88.400269%); stroke-width: 2.500000;stroke-linecap: round;stroke-linejoin: round;stroke-miterlimit: 10.000000;fill: none;"></path>
  <path d="M1028.233231 393.168365C1028.233231 351.889862,1011.832977 312.306961,982.646881 283.120865C953.460785 253.934769,913.877884 237.534515,872.599380 237.534515C831.320877 237.534515,791.737976 253.934769,762.551880 283.120865C733.365784 312.306961,716.965530 351.889862,716.965530 393.168365C716.965530 434.446869,733.365784 474.029770,762.551880 503.215866C791.737976 532.401962,831.320877 548.802216,872.599380 548.802216C913.877884 548.802216,953.460785 532.401962,982.646881 503.215866C1011.832977 474.029770,1028.233231 434.446869,1028.233231 393.168365Z" style="stroke:rgb(25.500488%,41.000366%,88.400269%); stroke-width: 2.500000;stroke-linecap: round;stroke-linejoin: round;stroke-miterlimit: 10.000000;fill: none;"></path>
  <path d="M1301.611084 264.628357C1301.611084 223.349854,1285.210831 183.766953,1256.024734 154.580856C1226.838638 125.394760,1187.255737 108.994507,1145.977234 108.994507C1104.698730 108.994507,1065.115829 125.394760,1035.929733 154.580856C1006.743637 183.766953,990.343384 223.349854,990.343384 264.628357C990.343384 305.906860,1006.743637 345.489761,1035.929733 374.675858C1065.115829 403.861954,1104.698730 420.262207,1145.977234 420.262207C1187.255737 420.262207,1226.838638 403.861954,1256.024734 374.675858C1285.210831 345.489761,1301.611084 305.906860,1301.611084 264.628357Z" style="stroke:rgb(25.500488%,41.000366%,88.400269%); stroke-width: 2.500000;stroke-linecap: round;stroke-linejoin: round;stroke-miterlimit: 10.000000;fill: none;"></path>
  <path d="M1537.215866 276.527328C1537.215866 235.248825,1520.815613 195.665924,1491.629517 166.479828C1462.443420 137.293732,1422.860519 120.893478,1381.582016 120.893478C1340.303513 120.893478,1300.720612 137.293732,1271.534515 166.479828C1242.348419 195.665924,1225.948166 235.248825,1225.948166 276.527328C1225.948166 317.805832,1242.348419 357.388733,1271.534515 386.574829C1300.720612 415.760925,1340.303513 432.161179,1381.582016 432.161179C1422.860519 432.161179,1462.443420 415.760925,1491.629517 386.574829C1520.815613 357.388733,1537.215866 317.805832,1537.215866 276.527328Z" style="stroke:rgb(25.500488%,41.000366%,88.400269%); stroke-width: 2.500000;stroke-linecap: round;stroke-linejoin: round;stroke-miterlimit: 10.000000;fill: none;"></path>
  <path d="M831.608276 207.780609C831.608276 166.502106,815.208023 126.919205,786.021927 97.733109C756.835831 68.547012,717.252930 52.146759,675.974426 52.146759C634.695923 52.146759,595.113022 68.547012,565.926926 97.733109C536.740829 126.919205,520.340576 166.502106,520.340576 207.780609C520.340576 249.059113,536.740829 288.642014,565.926926 317.828110C595.113022 347.014206,634.695923 363.414459,675.974426 363.414459C717.252930 363.414459,756.835831 347.014206,786.021927 317.828110C815.208023 288.642014,831.608276 249.059113,831.608276 207.780609Z" style="stroke:rgb(25.500488%,41.000366%,88.400269%); stroke-width: 2.500000;stroke-linecap: round;stroke-linejoin: round;stroke-miterlimit: 10.000000;fill: none;"></path>
  <path d="M1106.673004 156.603363C1106.673004 115.324860,1090.272751 75.741959,1061.086655 46.555862C1031.900558 17.369766,992.317657 0.969513,951.039154 0.969513C909.760651 0.969513,870.177750 17.369766,840.991653 46.555862C811.805557 75.741959,795.405304 115.324860,795.405304 156.603363C795.405304 197.881866,811.805557 237.464767,840.991653 266.650864C870.177750 295.836960,909.760651 312.237213,951.039154 312.237213C992.317657 312.237213,1031.900558 295.836960,1061.086655 266.650864C1090.272751 237.464767,1106.673004 197.881866,1106.673004 156.603363Z" style="stroke:rgb(25.500488%,41.000366%,88.400269%); stroke-width: 2.500000;stroke-linecap: round;stroke-linejoin: round;stroke-miterlimit: 10.000000;fill: none;"></path>
</svg>
