<?xml version="1.0"?>
<!-- Created by MetaPost 2.00 on 2022.03.02:1201 -->
<svg version="1.1" xmlns="http://www.w3.org/2000/svg" xmlns:xlink="http://www.w3.org/1999/xlink" width="1491.973312" height="1318.744019" viewBox="0 0 1491.973312 1318.744019">
<!-- Original BoundingBox: -745.642792 -467.100494 746.330521 851.643524 -->
  <path d="M745.000000 0.606476L8.535538 1276.196762L1481.464462 1276.196762L745.000000 0.606476Z" style="fill: rgb(100.000000%,100.000000%,100.000000%);stroke: none;"></path>
  <path d="M745.000000 0.606476L8.535538 1276.196762" style="stroke:rgb(0.000000%,0.000000%,0.000000%); stroke-width: 2.500000;stroke-linecap: round;stroke-linejoin: round;stroke-miterlimit: 10.000000;fill: none;"></path>
  <path d="M8.535538 1276.196762L1481.464462 1276.196762" style="stroke:rgb(0.000000%,0.000000%,0.000000%); stroke-width: 2.500000;stroke-linecap: round;stroke-linejoin: round;stroke-miterlimit: 10.000000;fill: none;"></path>
  <path d="M1481.464462 1276.196762L745.000000 0.606476" style="stroke:rgb(0.000000%,0.000000%,0.000000%); stroke-width: 2.500000;stroke-linecap: round;stroke-linejoin: round;stroke-miterlimit: 10.000000;fill: none;"></path>
  <path d="M126.474182 1245.573456C126.474182 1228.881714,119.842422 1212.875626,108.040482 1201.073669C96.238525 1189.271729,80.232437 1182.639969,63.540695 1182.639969C46.848953 1182.639969,30.842865 1189.271729,19.040909 1201.073669C7.238968 1212.875626,0.607208 1228.881714,0.607208 1245.573456C0.607208 1262.265198,7.238968 1278.271286,19.040909 1290.073242C30.842865 1301.875183,46.848953 1308.506943,63.540695 1308.506943C80.232437 1308.506943,96.238525 1301.875183,108.040482 1290.073242C119.842422 1278.271286,126.474182 1262.265198,126.474182 1245.573456Z" style="stroke:rgb(25.500488%,41.000366%,88.400269%); stroke-width: 2.500000;stroke-linecap: round;stroke-linejoin: round;stroke-miterlimit: 10.000000;fill: none;"></path>
  <path d="M237.185211 1246.922958C237.185211 1230.231216,230.553452 1214.225128,218.751511 1202.423172C206.949554 1190.621231,190.943466 1183.989471,174.251724 1183.989471C157.559982 1183.989471,141.553894 1190.621231,129.751938 1202.423172C117.949997 1214.225128,111.318237 1230.231216,111.318237 1246.922958C111.318237 1263.614700,117.949997 1279.620789,129.751938 1291.422745C141.553894 1303.224686,157.559982 1309.856445,174.251724 1309.856445C190.943466 1309.856445,206.949554 1303.224686,218.751511 1291.422745C230.553452 1279.620789,237.185211 1263.614700,237.185211 1246.922958Z" style="stroke:rgb(25.500488%,41.000366%,88.400269%); stroke-width: 2.500000;stroke-linecap: round;stroke-linejoin: round;stroke-miterlimit: 10.000000;fill: none;"></path>
  <path d="M349.336563 1248.298416C349.336563 1231.606674,342.704803 1215.600586,330.902863 1203.798630C319.100906 1191.996689,303.094818 1185.364929,286.403076 1185.364929C269.711334 1185.364929,253.705246 1191.996689,241.903290 1203.798630C230.101349 1215.600586,223.469589 1231.606674,223.469589 1248.298416C223.469589 1264.990158,230.101349 1280.996246,241.903290 1292.798203C253.705246 1304.600143,269.711334 1311.231903,286.403076 1311.231903C303.094818 1311.231903,319.100906 1304.600143,330.902863 1292.798203C342.704803 1280.996246,349.336563 1264.990158,349.336563 1248.298416Z" style="stroke:rgb(25.500488%,41.000366%,88.400269%); stroke-width: 2.500000;stroke-linecap: round;stroke-linejoin: round;stroke-miterlimit: 10.000000;fill: none;"></path>
  <path d="M462.837418 1249.673874C462.837418 1232.982132,456.205658 1216.976044,444.403717 1205.174088C432.601761 1193.372147,416.595673 1186.740387,399.903931 1186.740387C383.212189 1186.740387,367.206100 1193.372147,355.404144 1205.174088C343.602203 1216.976044,336.970444 1232.982132,336.970444 1249.673874C336.970444 1266.365616,343.602203 1282.371704,355.404144 1294.173660C367.206100 1305.975601,383.212189 1312.607361,399.903931 1312.607361C416.595673 1312.607361,432.601761 1305.975601,444.403717 1294.173660C456.205658 1282.371704,462.837418 1266.365616,462.837418 1249.673874Z" style="stroke:rgb(25.500488%,41.000366%,88.400269%); stroke-width: 2.500000;stroke-linecap: round;stroke-linejoin: round;stroke-miterlimit: 10.000000;fill: none;"></path>
  <path d="M578.193848 1252.424774C578.193848 1235.733032,571.562088 1219.726944,559.760147 1207.924988C547.958191 1196.123047,531.952103 1189.491287,515.260361 1189.491287C498.568619 1189.491287,482.562531 1196.123047,470.760574 1207.924988C458.958633 1219.726944,452.326874 1235.733032,452.326874 1252.424774C452.326874 1269.116516,458.958633 1285.122604,470.760574 1296.924561C482.562531 1308.726501,498.568619 1315.358261,515.260361 1315.358261C531.952103 1315.358261,547.958191 1308.726501,559.760147 1296.924561C571.562088 1285.122604,578.193848 1269.116516,578.193848 1252.424774Z" style="stroke:rgb(25.500488%,41.000366%,88.400269%); stroke-width: 2.500000;stroke-linecap: round;stroke-linejoin: round;stroke-miterlimit: 10.000000;fill: none;"></path>
  <path d="M695.340942 1253.917007C695.340942 1237.225266,688.709183 1221.219177,676.907242 1209.417221C665.105286 1197.615280,649.099197 1190.983521,632.407455 1190.983521C615.715714 1190.983521,599.709625 1197.615280,587.907669 1209.417221C576.105728 1221.219177,569.473969 1237.225266,569.473969 1253.917007C569.473969 1270.608749,576.105728 1286.614838,587.907669 1298.416794C599.709625 1310.218735,615.715714 1316.850494,632.407455 1316.850494C649.099197 1316.850494,665.105286 1310.218735,676.907242 1298.416794C688.709183 1286.614838,695.340942 1270.608749,695.340942 1253.917007Z" style="stroke:rgb(25.500488%,41.000366%,88.400269%); stroke-width: 2.500000;stroke-linecap: round;stroke-linejoin: round;stroke-miterlimit: 10.000000;fill: none;"></path>
  <path d="M812.838409 1253.320114C812.838409 1236.628372,806.206650 1220.622284,794.404709 1208.820328C782.602753 1197.018387,766.596664 1190.386627,749.904922 1190.386627C733.213181 1190.386627,717.207092 1197.018387,705.405136 1208.820328C693.603195 1220.622284,686.971436 1236.628372,686.971436 1253.320114C686.971436 1270.011856,693.603195 1286.017944,705.405136 1297.819901C717.207092 1309.621841,733.213181 1316.253601,749.904922 1316.253601C766.596664 1316.253601,782.602753 1309.621841,794.404709 1297.819901C806.206650 1286.017944,812.838409 1270.011856,812.838409 1253.320114Z" style="stroke:rgb(25.500488%,41.000366%,88.400269%); stroke-width: 2.500000;stroke-linecap: round;stroke-linejoin: round;stroke-miterlimit: 10.000000;fill: none;"></path>
  <path d="M929.414566 1251.594315C929.414566 1234.902573,922.782806 1218.896484,910.980865 1207.094528C899.178909 1195.292587,883.172821 1188.660828,866.481079 1188.660828C849.789337 1188.660828,833.783249 1195.292587,821.981293 1207.094528C810.179352 1218.896484,803.547592 1234.902573,803.547592 1251.594315C803.547592 1268.286057,810.179352 1284.292145,821.981293 1296.094101C833.783249 1307.896042,849.789337 1314.527802,866.481079 1314.527802C883.172821 1314.527802,899.178909 1307.896042,910.980865 1296.094101C922.782806 1284.292145,929.414566 1268.286057,929.414566 1251.594315Z" style="stroke:rgb(25.500488%,41.000366%,88.400269%); stroke-width: 2.500000;stroke-linecap: round;stroke-linejoin: round;stroke-miterlimit: 10.000000;fill: none;"></path>
  <path d="M1045.095383 1251.153122C1045.095383 1234.461380,1038.463623 1218.455292,1026.661682 1206.653336C1014.859726 1194.851395,998.853638 1188.219635,982.161896 1188.219635C965.470154 1188.219635,949.464066 1194.851395,937.662109 1206.653336C925.860168 1218.455292,919.228409 1234.461380,919.228409 1251.153122C919.228409 1267.844864,925.860168 1283.850952,937.662109 1295.652908C949.464066 1307.454849,965.470154 1314.086609,982.161896 1314.086609C998.853638 1314.086609,1014.859726 1307.454849,1026.661682 1295.652908C1038.463623 1283.850952,1045.095383 1267.844864,1045.095383 1251.153122Z" style="stroke:rgb(25.500488%,41.000366%,88.400269%); stroke-width: 2.500000;stroke-linecap: round;stroke-linejoin: round;stroke-miterlimit: 10.000000;fill: none;"></path>
  <path d="M1159.219086 1248.194611C1159.219086 1231.502869,1152.587326 1215.496780,1140.785385 1203.694824C1128.983429 1191.892883,1112.977341 1185.261124,1096.285599 1185.261124C1079.593857 1185.261124,1063.587769 1191.892883,1051.785812 1203.694824C1039.983871 1215.496780,1033.352112 1231.502869,1033.352112 1248.194611C1033.352112 1264.886353,1039.983871 1280.892441,1051.785812 1292.694397C1063.587769 1304.496338,1079.593857 1311.128098,1096.285599 1311.128098C1112.977341 1311.128098,1128.983429 1304.496338,1140.785385 1292.694397C1152.587326 1280.892441,1159.219086 1264.886353,1159.219086 1248.194611Z" style="stroke:rgb(25.500488%,41.000366%,88.400269%); stroke-width: 2.500000;stroke-linecap: round;stroke-linejoin: round;stroke-miterlimit: 10.000000;fill: none;"></path>
  <path d="M1270.942245 1246.235229C1270.942245 1229.543488,1264.310486 1213.537399,1252.508545 1201.735443C1240.706589 1189.933502,1224.700500 1183.301743,1208.008759 1183.301743C1191.317017 1183.301743,1175.310928 1189.933502,1163.508972 1201.735443C1151.707031 1213.537399,1145.075272 1229.543488,1145.075272 1246.235229C1145.075272 1262.926971,1151.707031 1278.933060,1163.508972 1290.735016C1175.310928 1302.536957,1191.317017 1309.168716,1208.008759 1309.168716C1224.700500 1309.168716,1240.706589 1302.536957,1252.508545 1290.735016C1264.310486 1278.933060,1270.942245 1262.926971,1270.942245 1246.235229Z" style="stroke:rgb(25.500488%,41.000366%,88.400269%); stroke-width: 2.500000;stroke-linecap: round;stroke-linejoin: round;stroke-miterlimit: 10.000000;fill: none;"></path>
  <path d="M1381.030411 1245.119308C1381.030411 1228.427567,1374.398651 1212.421478,1362.596710 1200.619522C1350.794754 1188.817581,1334.788666 1182.185822,1318.096924 1182.185822C1301.405182 1182.185822,1285.399094 1188.817581,1273.597137 1200.619522C1261.795197 1212.421478,1255.163437 1228.427567,1255.163437 1245.119308C1255.163437 1261.811050,1261.795197 1277.817139,1273.597137 1289.619095C1285.399094 1301.421036,1301.405182 1308.052795,1318.096924 1308.052795C1334.788666 1308.052795,1350.794754 1301.421036,1362.596710 1289.619095C1374.398651 1277.817139,1381.030411 1261.811050,1381.030411 1245.119308Z" style="stroke:rgb(25.500488%,41.000366%,88.400269%); stroke-width: 2.500000;stroke-linecap: round;stroke-linejoin: round;stroke-miterlimit: 10.000000;fill: none;"></path>
  <path d="M1490.080521 1244.366699C1490.080521 1227.674957,1483.448761 1211.668869,1471.646820 1199.866913C1459.844864 1188.064972,1443.838776 1181.433212,1427.147034 1181.433212C1410.455292 1181.433212,1394.449203 1188.064972,1382.647247 1199.866913C1370.845306 1211.668869,1364.213547 1227.674957,1364.213547 1244.366699C1364.213547 1261.058441,1370.845306 1277.064529,1382.647247 1288.866486C1394.449203 1300.668427,1410.455292 1307.300186,1427.147034 1307.300186C1443.838776 1307.300186,1459.844864 1300.668427,1471.646820 1288.866486C1483.448761 1277.064529,1490.080521 1261.058441,1490.080521 1244.366699Z" style="stroke:rgb(25.500488%,41.000366%,88.400269%); stroke-width: 2.500000;stroke-linecap: round;stroke-linejoin: round;stroke-miterlimit: 10.000000;fill: none;"></path>
  <path d="M181.219833 1153.392136C181.219833 1136.700394,174.588074 1120.694305,162.786133 1108.892349C150.984177 1097.090408,134.978088 1090.458649,118.286346 1090.458649C101.594604 1090.458649,85.588516 1097.090408,73.786560 1108.892349C61.984619 1120.694305,55.352859 1136.700394,55.352859 1153.392136C55.352859 1170.083878,61.984619 1186.089966,73.786560 1197.891922C85.588516 1209.693863,101.594604 1216.325623,118.286346 1216.325623C134.978088 1216.325623,150.984177 1209.693863,162.786133 1197.891922C174.588074 1186.089966,181.219833 1170.083878,181.219833 1153.392136Z" style="stroke:rgb(25.500488%,41.000366%,88.400269%); stroke-width: 2.500000;stroke-linecap: round;stroke-linejoin: round;stroke-miterlimit: 10.000000;fill: none;"></path>
  <path d="M292.631546 1156.104111C292.631546 1139.412369,285.999786 1123.406281,274.197845 1111.604324C262.395889 1099.802383,246.389801 1093.170624,229.698059 1093.170624C213.006317 1093.170624,197.000229 1099.802383,185.198273 1111.604324C173.396332 1123.406281,166.764572 1139.412369,166.764572 1156.104111C166.764572 1172.795853,173.396332 1188.801941,185.198273 1200.603897C197.000229 1212.405838,213.006317 1219.037598,229.698059 1219.037598C246.389801 1219.037598,262.395889 1212.405838,274.197845 1200.603897C285.999786 1188.801941,292.631546 1172.795853,292.631546 1156.104111Z" style="stroke:rgb(25.500488%,41.000366%,88.400269%); stroke-width: 2.500000;stroke-linecap: round;stroke-linejoin: round;stroke-miterlimit: 10.000000;fill: none;"></path>
  <path d="M405.444687 1158.855011C405.444687 1142.163269,398.812927 1126.157181,387.010986 1114.355225C375.209030 1102.553284,359.202942 1095.921524,342.511200 1095.921524C325.819458 1095.921524,309.813370 1102.553284,298.011414 1114.355225C286.209473 1126.157181,279.577713 1142.163269,279.577713 1158.855011C279.577713 1175.546753,286.209473 1191.552841,298.011414 1203.354797C309.813370 1215.156738,325.819458 1221.788498,342.511200 1221.788498C359.202942 1221.788498,375.209030 1215.156738,387.010986 1203.354797C398.812927 1191.552841,405.444687 1175.546753,405.444687 1158.855011Z" style="stroke:rgb(25.500488%,41.000366%,88.400269%); stroke-width: 2.500000;stroke-linecap: round;stroke-linejoin: round;stroke-miterlimit: 10.000000;fill: none;"></path>
  <path d="M520.243134 1163.201965C520.243134 1146.510223,513.611374 1130.504135,501.809433 1118.702179C490.007477 1106.900238,474.001389 1100.268478,457.309647 1100.268478C440.617905 1100.268478,424.611816 1106.900238,412.809860 1118.702179C401.007919 1130.504135,394.376160 1146.510223,394.376160 1163.201965C394.376160 1179.893707,401.007919 1195.899796,412.809860 1207.701752C424.611816 1219.503693,440.617905 1226.135452,457.309647 1226.135452C474.001389 1226.135452,490.007477 1219.503693,501.809433 1207.701752C513.611374 1195.899796,520.243134 1179.893707,520.243134 1163.201965Z" style="stroke:rgb(25.500488%,41.000366%,88.400269%); stroke-width: 2.500000;stroke-linecap: round;stroke-linejoin: round;stroke-miterlimit: 10.000000;fill: none;"></path>
  <path d="M636.300262 1167.224518C636.300262 1150.532776,629.668503 1134.526688,617.866562 1122.724731C606.064606 1110.922791,590.058517 1104.291031,573.366776 1104.291031C556.675034 1104.291031,540.668945 1110.922791,528.866989 1122.724731C517.065048 1134.526688,510.433289 1150.532776,510.433289 1167.224518C510.433289 1183.916260,517.065048 1199.922348,528.866989 1211.724304C540.668945 1223.526245,556.675034 1230.158005,573.366776 1230.158005C590.058517 1230.158005,606.064606 1223.526245,617.866562 1211.724304C629.668503 1199.922348,636.300262 1183.916260,636.300262 1167.224518Z" style="stroke:rgb(25.500488%,41.000366%,88.400269%); stroke-width: 2.500000;stroke-linecap: round;stroke-linejoin: round;stroke-miterlimit: 10.000000;fill: none;"></path>
  <path d="M753.226776 1168.119858C753.226776 1151.428116,746.595016 1135.422028,734.793076 1123.620071C722.991119 1111.818130,706.985031 1105.186371,690.293289 1105.186371C673.601547 1105.186371,657.595459 1111.818130,645.793503 1123.620071C633.991562 1135.422028,627.359802 1151.428116,627.359802 1168.119858C627.359802 1184.811600,633.991562 1200.817688,645.793503 1212.619644C657.595459 1224.421585,673.601547 1231.053345,690.293289 1231.053345C706.985031 1231.053345,722.991119 1224.421585,734.793076 1212.619644C746.595016 1200.817688,753.226776 1184.811600,753.226776 1168.119858Z" style="stroke:rgb(25.500488%,41.000366%,88.400269%); stroke-width: 2.500000;stroke-linecap: round;stroke-linejoin: round;stroke-miterlimit: 10.000000;fill: none;"></path>
  <path d="M870.036499 1165.797165C870.036499 1149.105423,863.404739 1133.099335,851.602798 1121.297379C839.800842 1109.495438,823.794754 1102.863678,807.103012 1102.863678C790.411270 1102.863678,774.405182 1109.495438,762.603226 1121.297379C750.801285 1133.099335,744.169525 1149.105423,744.169525 1165.797165C744.169525 1182.488907,750.801285 1198.494995,762.603226 1210.296951C774.405182 1222.098892,790.411270 1228.730652,807.103012 1228.730652C823.794754 1228.730652,839.800842 1222.098892,851.602798 1210.296951C863.404739 1198.494995,870.036499 1182.488907,870.036499 1165.797165Z" style="stroke:rgb(25.500488%,41.000366%,88.400269%); stroke-width: 2.500000;stroke-linecap: round;stroke-linejoin: round;stroke-miterlimit: 10.000000;fill: none;"></path>
  <path d="M986.418030 1163.630173C986.418030 1146.938431,979.786270 1130.932343,967.984329 1119.130386C956.182373 1107.328445,940.176285 1100.696686,923.484543 1100.696686C906.792801 1100.696686,890.786713 1107.328445,878.984756 1119.130386C867.182816 1130.932343,860.551056 1146.938431,860.551056 1163.630173C860.551056 1180.321915,867.182816 1196.328003,878.984756 1208.129959C890.786713 1219.931900,906.792801 1226.563660,923.484543 1226.563660C940.176285 1226.563660,956.182373 1219.931900,967.984329 1208.129959C979.786270 1196.328003,986.418030 1180.321915,986.418030 1163.630173Z" style="stroke:rgb(25.500488%,41.000366%,88.400269%); stroke-width: 2.500000;stroke-linecap: round;stroke-linejoin: round;stroke-miterlimit: 10.000000;fill: none;"></path>
  <path d="M1100.892090 1160.554871C1100.892090 1143.863129,1094.260330 1127.857040,1082.458389 1116.055084C1070.656433 1104.253143,1054.650345 1097.621384,1037.958603 1097.621384C1021.266861 1097.621384,1005.260773 1104.253143,993.458817 1116.055084C981.656876 1127.857040,975.025116 1143.863129,975.025116 1160.554871C975.025116 1177.246613,981.656876 1193.252701,993.458817 1205.054657C1005.260773 1216.856598,1021.266861 1223.488358,1037.958603 1223.488358C1054.650345 1223.488358,1070.656433 1216.856598,1082.458389 1205.054657C1094.260330 1193.252701,1100.892090 1177.246613,1100.892090 1160.554871Z" style="stroke:rgb(25.500488%,41.000366%,88.400269%); stroke-width: 2.500000;stroke-linecap: round;stroke-linejoin: round;stroke-miterlimit: 10.000000;fill: none;"></path>
  <path d="M1214.146393 1155.312576C1214.146393 1138.620834,1207.514633 1122.614746,1195.712692 1110.812790C1183.910736 1099.010849,1167.904648 1092.379089,1151.212906 1092.379089C1134.521164 1092.379089,1118.515076 1099.010849,1106.713120 1110.812790C1094.911179 1122.614746,1088.279419 1138.620834,1088.279419 1155.312576C1088.279419 1172.004318,1094.911179 1188.010406,1106.713120 1199.812363C1118.515076 1211.614304,1134.521164 1218.246063,1151.212906 1218.246063C1167.904648 1218.246063,1183.910736 1211.614304,1195.712692 1199.812363C1207.514633 1188.010406,1214.146393 1172.004318,1214.146393 1155.312576Z" style="stroke:rgb(25.500488%,41.000366%,88.400269%); stroke-width: 2.500000;stroke-linecap: round;stroke-linejoin: round;stroke-miterlimit: 10.000000;fill: none;"></path>
  <path d="M1325.272644 1152.237274C1325.272644 1135.545532,1318.640884 1119.539444,1306.838943 1107.737488C1295.036987 1095.935547,1279.030899 1089.303787,1262.339157 1089.303787C1245.647415 1089.303787,1229.641327 1095.935547,1217.839371 1107.737488C1206.037430 1119.539444,1199.405670 1135.545532,1199.405670 1152.237274C1199.405670 1168.929016,1206.037430 1184.935104,1217.839371 1196.737061C1229.641327 1208.539001,1245.647415 1215.170761,1262.339157 1215.170761C1279.030899 1215.170761,1295.036987 1208.539001,1306.838943 1196.737061C1318.640884 1184.935104,1325.272644 1168.929016,1325.272644 1152.237274Z" style="stroke:rgb(25.500488%,41.000366%,88.400269%); stroke-width: 2.500000;stroke-linecap: round;stroke-linejoin: round;stroke-miterlimit: 10.000000;fill: none;"></path>
  <path d="M1434.932617 1150.368729C1434.932617 1133.676987,1428.300858 1117.670898,1416.498917 1105.868942C1404.696960 1094.067001,1388.690872 1087.435242,1371.999130 1087.435242C1355.307388 1087.435242,1339.301300 1094.067001,1327.499344 1105.868942C1315.697403 1117.670898,1309.065643 1133.676987,1309.065643 1150.368729C1309.065643 1167.060471,1315.697403 1183.066559,1327.499344 1194.868515C1339.301300 1206.670456,1355.307388 1213.302216,1371.999130 1213.302216C1388.690872 1213.302216,1404.696960 1206.670456,1416.498917 1194.868515C1428.300858 1183.066559,1434.932617 1167.060471,1434.932617 1150.368729Z" style="stroke:rgb(25.500488%,41.000366%,88.400269%); stroke-width: 2.500000;stroke-linecap: round;stroke-linejoin: round;stroke-miterlimit: 10.000000;fill: none;"></path>
  <path d="M235.122025 1062.612213C235.122025 1045.920471,228.490265 1029.914383,216.688324 1018.112427C204.886368 1006.310486,188.880280 999.678726,172.188538 999.678726C155.496796 999.678726,139.490707 1006.310486,127.688751 1018.112427C115.886810 1029.914383,109.255051 1045.920471,109.255051 1062.612213C109.255051 1079.303955,115.886810 1095.310043,127.688751 1107.112000C139.490707 1118.913940,155.496796 1125.545700,172.188538 1125.545700C188.880280 1125.545700,204.886368 1118.913940,216.688324 1107.112000C228.490265 1095.310043,235.122025 1079.303955,235.122025 1062.612213Z" style="stroke:rgb(25.500488%,41.000366%,88.400269%); stroke-width: 2.500000;stroke-linecap: round;stroke-linejoin: round;stroke-miterlimit: 10.000000;fill: none;"></path>
  <path d="M347.195526 1066.712616C347.195526 1050.020874,340.563766 1034.014786,328.761826 1022.212830C316.959869 1010.410889,300.953781 1003.779129,284.262039 1003.779129C267.570297 1003.779129,251.564209 1010.410889,239.762253 1022.212830C227.960312 1034.014786,221.328552 1050.020874,221.328552 1066.712616C221.328552 1083.404358,227.960312 1099.410446,239.762253 1111.212402C251.564209 1123.014343,267.570297 1129.646103,284.262039 1129.646103C300.953781 1129.646103,316.959869 1123.014343,328.761826 1111.212402C340.563766 1099.410446,347.195526 1083.404358,347.195526 1066.712616Z" style="stroke:rgb(25.500488%,41.000366%,88.400269%); stroke-width: 2.500000;stroke-linecap: round;stroke-linejoin: round;stroke-miterlimit: 10.000000;fill: none;"></path>
  <path d="M461.526840 1072.980011C461.526840 1056.288269,454.895081 1040.282181,443.093140 1028.480225C431.291183 1016.678284,415.285095 1010.046524,398.593353 1010.046524C381.901611 1010.046524,365.895523 1016.678284,354.093567 1028.480225C342.291626 1040.282181,335.659866 1056.288269,335.659866 1072.980011C335.659866 1089.671753,342.291626 1105.677841,354.093567 1117.479797C365.895523 1129.281738,381.901611 1135.913498,398.593353 1135.913498C415.285095 1135.913498,431.291183 1129.281738,443.093140 1117.479797C454.895081 1105.677841,461.526840 1089.671753,461.526840 1072.980011Z" style="stroke:rgb(25.500488%,41.000366%,88.400269%); stroke-width: 2.500000;stroke-linecap: round;stroke-linejoin: round;stroke-miterlimit: 10.000000;fill: none;"></path>
  <path d="M577.103867 1078.040634C577.103867 1061.348892,570.472107 1045.342804,558.670166 1033.540848C546.868210 1021.738907,530.862122 1015.107147,514.170380 1015.107147C497.478638 1015.107147,481.472549 1021.738907,469.670593 1033.540848C457.868652 1045.342804,451.236893 1061.348892,451.236893 1078.040634C451.236893 1094.732376,457.868652 1110.738464,469.670593 1122.540421C481.472549 1134.342361,497.478638 1140.974121,514.170380 1140.974121C530.862122 1140.974121,546.868210 1134.342361,558.670166 1122.540421C570.472107 1110.738464,577.103867 1094.732376,577.103867 1078.040634Z" style="stroke:rgb(25.500488%,41.000366%,88.400269%); stroke-width: 2.500000;stroke-linecap: round;stroke-linejoin: round;stroke-miterlimit: 10.000000;fill: none;"></path>
  <path d="M692.940399 1081.466293C692.940399 1064.774551,686.308640 1048.768463,674.506699 1036.966507C662.704742 1025.164566,646.698654 1018.532806,630.006912 1018.532806C613.315170 1018.532806,597.309082 1025.164566,585.507126 1036.966507C573.705185 1048.768463,567.073425 1064.774551,567.073425 1081.466293C567.073425 1098.158035,573.705185 1114.164124,585.507126 1125.966080C597.309082 1137.768021,613.315170 1144.399780,630.006912 1144.399780C646.698654 1144.399780,662.704742 1137.768021,674.506699 1125.966080C686.308640 1114.164124,692.940399 1098.158035,692.940399 1081.466293Z" style="stroke:rgb(25.500488%,41.000366%,88.400269%); stroke-width: 2.500000;stroke-linecap: round;stroke-linejoin: round;stroke-miterlimit: 10.000000;fill: none;"></path>
  <path d="M809.166199 1080.635834C809.166199 1063.944092,802.534439 1047.938004,790.732498 1036.136047C778.930542 1024.334106,762.924454 1017.702347,746.232712 1017.702347C729.540970 1017.702347,713.534882 1024.334106,701.732925 1036.136047C689.930984 1047.938004,683.299225 1063.944092,683.299225 1080.635834C683.299225 1097.327576,689.930984 1113.333664,701.732925 1125.135620C713.534882 1136.937561,729.540970 1143.569321,746.232712 1143.569321C762.924454 1143.569321,778.930542 1136.937561,790.732498 1125.135620C802.534439 1113.333664,809.166199 1097.327576,809.166199 1080.635834Z" style="stroke:rgb(25.500488%,41.000366%,88.400269%); stroke-width: 2.500000;stroke-linecap: round;stroke-linejoin: round;stroke-miterlimit: 10.000000;fill: none;"></path>
  <path d="M925.794266 1077.871948C925.794266 1061.180206,919.162506 1045.174118,907.360565 1033.372162C895.558609 1021.570221,879.552521 1014.938461,862.860779 1014.938461C846.169037 1014.938461,830.162949 1021.570221,818.360992 1033.372162C806.559052 1045.174118,799.927292 1061.180206,799.927292 1077.871948C799.927292 1094.563690,806.559052 1110.569778,818.360992 1122.371735C830.162949 1134.173676,846.169037 1140.805435,862.860779 1140.805435C879.552521 1140.805435,895.558609 1134.173676,907.360565 1122.371735C919.162506 1110.569778,925.794266 1094.563690,925.794266 1077.871948Z" style="stroke:rgb(25.500488%,41.000366%,88.400269%); stroke-width: 2.500000;stroke-linecap: round;stroke-linejoin: round;stroke-miterlimit: 10.000000;fill: none;"></path>
  <path d="M1041.423187 1073.979156C1041.423187 1057.287415,1034.791428 1041.281326,1022.989487 1029.479370C1011.187531 1017.677429,995.181442 1011.045670,978.489700 1011.045670C961.797958 1011.045670,945.791870 1017.677429,933.989914 1029.479370C922.187973 1041.281326,915.556213 1057.287415,915.556213 1073.979156C915.556213 1090.670898,922.187973 1106.676987,933.989914 1118.478943C945.791870 1130.280884,961.797958 1136.912643,978.489700 1136.912643C995.181442 1136.912643,1011.187531 1130.280884,1022.989487 1118.478943C1034.791428 1106.676987,1041.423187 1090.670898,1041.423187 1073.979156Z" style="stroke:rgb(25.500488%,41.000366%,88.400269%); stroke-width: 2.500000;stroke-linecap: round;stroke-linejoin: round;stroke-miterlimit: 10.000000;fill: none;"></path>
  <path d="M1156.001053 1069.398636C1156.001053 1052.706894,1149.369293 1036.700806,1137.567352 1024.898849C1125.765396 1013.096909,1109.759308 1006.465149,1093.067566 1006.465149C1076.375824 1006.465149,1060.369736 1013.096909,1048.567780 1024.898849C1036.765839 1036.700806,1030.134079 1052.706894,1030.134079 1069.398636C1030.134079 1086.090378,1036.765839 1102.096466,1048.567780 1113.898422C1060.369736 1125.700363,1076.375824 1132.332123,1093.067566 1132.332123C1109.759308 1132.332123,1125.765396 1125.700363,1137.567352 1113.898422C1149.369293 1102.096466,1156.001053 1086.090378,1156.001053 1069.398636Z" style="stroke:rgb(25.500488%,41.000366%,88.400269%); stroke-width: 2.500000;stroke-linecap: round;stroke-linejoin: round;stroke-miterlimit: 10.000000;fill: none;"></path>
  <path d="M1269.359177 1061.327591C1269.359177 1044.635849,1262.727417 1028.629761,1250.925476 1016.827805C1239.123520 1005.025864,1223.117432 998.394104,1206.425690 998.394104C1189.733948 998.394104,1173.727859 1005.025864,1161.925903 1016.827805C1150.123962 1028.629761,1143.492203 1044.635849,1143.492203 1061.327591C1143.492203 1078.019333,1150.123962 1094.025421,1161.925903 1105.827377C1173.727859 1117.629318,1189.733948 1124.261078,1206.425690 1124.261078C1223.117432 1124.261078,1239.123520 1117.629318,1250.925476 1105.827377C1262.727417 1094.025421,1269.359177 1078.019333,1269.359177 1061.327591Z" style="stroke:rgb(25.500488%,41.000366%,88.400269%); stroke-width: 2.500000;stroke-linecap: round;stroke-linejoin: round;stroke-miterlimit: 10.000000;fill: none;"></path>
  <path d="M1380.044235 1057.499680C1380.044235 1040.807938,1373.412476 1024.801849,1361.610535 1012.999893C1349.808578 1001.197952,1333.802490 994.566193,1317.110748 994.566193C1300.419006 994.566193,1284.412918 1001.197952,1272.610962 1012.999893C1260.809021 1024.801849,1254.177261 1040.807938,1254.177261 1057.499680C1254.177261 1074.191422,1260.809021 1090.197510,1272.610962 1101.999466C1284.412918 1113.801407,1300.419006 1120.433167,1317.110748 1120.433167C1333.802490 1120.433167,1349.808578 1113.801407,1361.610535 1101.999466C1373.412476 1090.197510,1380.044235 1074.191422,1380.044235 1057.499680Z" style="stroke:rgb(25.500488%,41.000366%,88.400269%); stroke-width: 2.500000;stroke-linecap: round;stroke-linejoin: round;stroke-miterlimit: 10.000000;fill: none;"></path>
  <path d="M288.141861 973.311539C288.141861 956.619797,281.510101 940.613708,269.708160 928.811752C257.906204 917.009811,241.900116 910.378052,225.208374 910.378052C208.516632 910.378052,192.510544 917.009811,180.708588 928.811752C168.906647 940.613708,162.274887 956.619797,162.274887 973.311539C162.274887 990.003281,168.906647 1006.009369,180.708588 1017.811325C192.510544 1029.613266,208.516632 1036.245026,225.208374 1036.245026C241.900116 1036.245026,257.906204 1029.613266,269.708160 1017.811325C281.510101 1006.009369,288.141861 990.003281,288.141861 973.311539Z" style="stroke:rgb(25.500488%,41.000366%,88.400269%); stroke-width: 2.500000;stroke-linecap: round;stroke-linejoin: round;stroke-miterlimit: 10.000000;fill: none;"></path>
  <path d="M401.993073 981.577240C401.993073 964.885498,395.361313 948.879410,383.559372 937.077454C371.757416 925.275513,355.751328 918.643753,339.059586 918.643753C322.367844 918.643753,306.361755 925.275513,294.559799 937.077454C282.757858 948.879410,276.126099 964.885498,276.126099 981.577240C276.126099 998.268982,282.757858 1014.275070,294.559799 1026.077026C306.361755 1037.878967,322.367844 1044.510727,339.059586 1044.510727C355.751328 1044.510727,371.757416 1037.878967,383.559372 1026.077026C395.361313 1014.275070,401.993073 998.268982,401.993073 981.577240Z" style="stroke:rgb(25.500488%,41.000366%,88.400269%); stroke-width: 2.500000;stroke-linecap: round;stroke-linejoin: round;stroke-miterlimit: 10.000000;fill: none;"></path>
  <path d="M516.960220 987.896545C516.960220 971.204803,510.328461 955.198715,498.526520 943.396759C486.724564 931.594818,470.718475 924.963058,454.026733 924.963058C437.334991 924.963058,421.328903 931.594818,409.526947 943.396759C397.725006 955.198715,391.093246 971.204803,391.093246 987.896545C391.093246 1004.588287,397.725006 1020.594376,409.526947 1032.396332C421.328903 1044.198273,437.334991 1050.830032,454.026733 1050.830032C470.718475 1050.830032,486.724564 1044.198273,498.526520 1032.396332C510.328461 1020.594376,516.960220 1004.588287,516.960220 987.896545Z" style="stroke:rgb(25.500488%,41.000366%,88.400269%); stroke-width: 2.500000;stroke-linecap: round;stroke-linejoin: round;stroke-miterlimit: 10.000000;fill: none;"></path>
  <path d="M632.316635 992.347305C632.316635 975.655563,625.684875 959.649475,613.882935 947.847519C602.080978 936.045578,586.074890 929.413818,569.383148 929.413818C552.691406 929.413818,536.685318 936.045578,524.883362 947.847519C513.081421 959.649475,506.449661 975.655563,506.449661 992.347305C506.449661 1009.039047,513.081421 1025.045135,524.883362 1036.847092C536.685318 1048.649033,552.691406 1055.280792,569.383148 1055.280792C586.074890 1055.280792,602.080978 1048.649033,613.882935 1036.847092C625.684875 1025.045135,632.316635 1009.039047,632.316635 992.347305Z" style="stroke:rgb(25.500488%,41.000366%,88.400269%); stroke-width: 2.500000;stroke-linecap: round;stroke-linejoin: round;stroke-miterlimit: 10.000000;fill: none;"></path>
  <path d="M747.452469 994.034180C747.452469 977.342438,740.820709 961.336349,729.018768 949.534393C717.216812 937.732452,701.210724 931.100693,684.518982 931.100693C667.827240 931.100693,651.821152 937.732452,640.019196 949.534393C628.217255 961.336349,621.585495 977.342438,621.585495 994.034180C621.585495 1010.725922,628.217255 1026.732010,640.019196 1038.533966C651.821152 1050.335907,667.827240 1056.967667,684.518982 1056.967667C701.210724 1056.967667,717.216812 1050.335907,729.018768 1038.533966C740.820709 1026.732010,747.452469 1010.725922,747.452469 994.034180Z" style="stroke:rgb(25.500488%,41.000366%,88.400269%); stroke-width: 2.500000;stroke-linecap: round;stroke-linejoin: round;stroke-miterlimit: 10.000000;fill: none;"></path>
  <path d="M863.496613 992.788483C863.496613 976.096741,856.864853 960.090652,845.062912 948.288696C833.260956 936.486755,817.254868 929.854996,800.563126 929.854996C783.871384 929.854996,767.865295 936.486755,756.063339 948.288696C744.261398 960.090652,737.629639 976.096741,737.629639 992.788483C737.629639 1009.480225,744.261398 1025.486313,756.063339 1037.288269C767.865295 1049.090210,783.871384 1055.721970,800.563126 1055.721970C817.254868 1055.721970,833.260956 1049.090210,845.062912 1037.288269C856.864853 1025.486313,863.496613 1009.480225,863.496613 992.788483Z" style="stroke:rgb(25.500488%,41.000366%,88.400269%); stroke-width: 2.500000;stroke-linecap: round;stroke-linejoin: round;stroke-miterlimit: 10.000000;fill: none;"></path>
  <path d="M979.735397 989.103302C979.735397 972.411560,973.103638 956.405472,961.301697 944.603516C949.499741 932.801575,933.493652 926.169815,916.801910 926.169815C900.110168 926.169815,884.104080 932.801575,872.302124 944.603516C860.500183 956.405472,853.868423 972.411560,853.868423 989.103302C853.868423 1005.795044,860.500183 1021.801132,872.302124 1033.603088C884.104080 1045.405029,900.110168 1052.036789,916.801910 1052.036789C933.493652 1052.036789,949.499741 1045.405029,961.301697 1033.603088C973.103638 1021.801132,979.735397 1005.795044,979.735397 989.103302Z" style="stroke:rgb(25.500488%,41.000366%,88.400269%); stroke-width: 2.500000;stroke-linecap: round;stroke-linejoin: round;stroke-miterlimit: 10.000000;fill: none;"></path>
  <path d="M1095.662766 984.302200C1095.662766 967.610458,1089.031006 951.604370,1077.229065 939.802414C1065.427109 928.000473,1049.421021 921.368713,1032.729279 921.368713C1016.037537 921.368713,1000.031448 928.000473,988.229492 939.802414C976.427551 951.604370,969.795792 967.610458,969.795792 984.302200C969.795792 1000.993942,976.427551 1017.000031,988.229492 1028.801987C1000.031448 1040.603928,1016.037537 1047.235687,1032.729279 1047.235687C1049.421021 1047.235687,1065.427109 1040.603928,1077.229065 1028.801987C1089.031006 1017.000031,1095.662766 1000.993942,1095.662766 984.302200Z" style="stroke:rgb(25.500488%,41.000366%,88.400269%); stroke-width: 2.500000;stroke-linecap: round;stroke-linejoin: round;stroke-miterlimit: 10.000000;fill: none;"></path>
  <path d="M1211.200851 979.033951C1211.200851 962.342209,1204.569092 946.336121,1192.767151 934.534164C1180.965195 922.732224,1164.959106 916.100464,1148.267365 916.100464C1131.575623 916.100464,1115.569534 922.732224,1103.767578 934.534164C1091.965637 946.336121,1085.333878 962.342209,1085.333878 979.033951C1085.333878 995.725693,1091.965637 1011.731781,1103.767578 1023.533737C1115.569534 1035.335678,1131.575623 1041.967438,1148.267365 1041.967438C1164.959106 1041.967438,1180.965195 1035.335678,1192.767151 1023.533737C1204.569092 1011.731781,1211.200851 995.725693,1211.200851 979.033951Z" style="stroke:rgb(25.500488%,41.000366%,88.400269%); stroke-width: 2.500000;stroke-linecap: round;stroke-linejoin: round;stroke-miterlimit: 10.000000;fill: none;"></path>
  <path d="M1325.415390 966.602966C1325.415390 949.911224,1318.783630 933.905136,1306.981689 922.103180C1295.179733 910.301239,1279.173645 903.669479,1262.481903 903.669479C1245.790161 903.669479,1229.784073 910.301239,1217.982117 922.103180C1206.180176 933.905136,1199.548416 949.911224,1199.548416 966.602966C1199.548416 983.294708,1206.180176 999.300797,1217.982117 1011.102753C1229.784073 1022.904694,1245.790161 1029.536453,1262.481903 1029.536453C1279.173645 1029.536453,1295.179733 1022.904694,1306.981689 1011.102753C1318.783630 999.300797,1325.415390 983.294708,1325.415390 966.602966Z" style="stroke:rgb(25.500488%,41.000366%,88.400269%); stroke-width: 2.500000;stroke-linecap: round;stroke-linejoin: round;stroke-miterlimit: 10.000000;fill: none;"></path>
  <path d="M341.473129 888.487595C341.473129 871.795853,334.841370 855.789764,323.039429 843.987808C311.237473 832.185867,295.231384 825.554108,278.539642 825.554108C261.847900 825.554108,245.841812 832.185867,234.039856 843.987808C222.237915 855.789764,215.606155 871.795853,215.606155 888.487595C215.606155 905.179337,222.237915 921.185425,234.039856 932.987381C245.841812 944.789322,261.847900 951.421082,278.539642 951.421082C295.231384 951.421082,311.237473 944.789322,323.039429 932.987381C334.841370 921.185425,341.473129 905.179337,341.473129 888.487595Z" style="stroke:rgb(25.500488%,41.000366%,88.400269%); stroke-width: 2.500000;stroke-linecap: round;stroke-linejoin: round;stroke-miterlimit: 10.000000;fill: none;"></path>
  <path d="M455.467072 896.636505C455.467072 879.944763,448.835312 863.938675,437.033371 852.136719C425.231415 840.334778,409.225327 833.703018,392.533585 833.703018C375.841843 833.703018,359.835754 840.334778,348.033798 852.136719C336.231857 863.938675,329.600098 879.944763,329.600098 896.636505C329.600098 913.328247,336.231857 929.334335,348.033798 941.136292C359.835754 952.938232,375.841843 959.569992,392.533585 959.569992C409.225327 959.569992,425.231415 952.938232,437.033371 941.136292C448.835312 929.334335,455.467072 913.328247,455.467072 896.636505Z" style="stroke:rgb(25.500488%,41.000366%,88.400269%); stroke-width: 2.500000;stroke-linecap: round;stroke-linejoin: round;stroke-miterlimit: 10.000000;fill: none;"></path>
  <path d="M570.213623 902.345932C570.213623 885.654190,563.581863 869.648102,551.779922 857.846146C539.977966 846.044205,523.971878 839.412445,507.280136 839.412445C490.588394 839.412445,474.582306 846.044205,462.780350 857.846146C450.978409 869.648102,444.346649 885.654190,444.346649 902.345932C444.346649 919.037674,450.978409 935.043762,462.780350 946.845718C474.582306 958.647659,490.588394 965.279419,507.280136 965.279419C523.971878 965.279419,539.977966 958.647659,551.779922 946.845718C563.581863 935.043762,570.213623 919.037674,570.213623 902.345932Z" style="stroke:rgb(25.500488%,41.000366%,88.400269%); stroke-width: 2.500000;stroke-linecap: round;stroke-linejoin: round;stroke-miterlimit: 10.000000;fill: none;"></path>
  <path d="M684.882309 905.070892C684.882309 888.379150,678.250549 872.373062,666.448608 860.571106C654.646652 848.769165,638.640564 842.137405,621.948822 842.137405C605.257080 842.137405,589.250992 848.769165,577.449036 860.571106C565.647095 872.373062,559.015335 888.379150,559.015335 905.070892C559.015335 921.762634,565.647095 937.768723,577.449036 949.570679C589.250992 961.372620,605.257080 968.004379,621.948822 968.004379C638.640564 968.004379,654.646652 961.372620,666.448608 949.570679C678.250549 937.768723,684.882309 921.762634,684.882309 905.070892Z" style="stroke:rgb(25.500488%,41.000366%,88.400269%); stroke-width: 2.500000;stroke-linecap: round;stroke-linejoin: round;stroke-miterlimit: 10.000000;fill: none;"></path>
  <path d="M799.836472 906.329559C799.836472 889.637817,793.204712 873.631729,781.402771 861.829773C769.600815 850.027832,753.594727 843.396072,736.902985 843.396072C720.211243 843.396072,704.205154 850.027832,692.403198 861.829773C680.601257 873.631729,673.969498 889.637817,673.969498 906.329559C673.969498 923.021301,680.601257 939.027390,692.403198 950.829346C704.205154 962.631287,720.211243 969.263046,736.902985 969.263046C753.594727 969.263046,769.600815 962.631287,781.402771 950.829346C793.204712 939.027390,799.836472 923.021301,799.836472 906.329559Z" style="stroke:rgb(25.500488%,41.000366%,88.400269%); stroke-width: 2.500000;stroke-linecap: round;stroke-linejoin: round;stroke-miterlimit: 10.000000;fill: none;"></path>
  <path d="M915.543243 904.279358C915.543243 887.587616,908.911484 871.581528,897.109543 859.779572C885.307587 847.977631,869.301498 841.345871,852.609756 841.345871C835.918015 841.345871,819.911926 847.977631,808.109970 859.779572C796.308029 871.581528,789.676270 887.587616,789.676270 904.279358C789.676270 920.971100,796.308029 936.977188,808.109970 948.779144C819.911926 960.581085,835.918015 967.212845,852.609756 967.212845C869.301498 967.212845,885.307587 960.581085,897.109543 948.779144C908.911484 936.977188,915.543243 920.971100,915.543243 904.279358Z" style="stroke:rgb(25.500488%,41.000366%,88.400269%); stroke-width: 2.500000;stroke-linecap: round;stroke-linejoin: round;stroke-miterlimit: 10.000000;fill: none;"></path>
  <path d="M1032.041565 900.931549C1032.041565 884.239807,1025.409805 868.233719,1013.607864 856.431763C1001.805908 844.629822,985.799820 837.998062,969.108078 837.998062C952.416336 837.998062,936.410248 844.629822,924.608292 856.431763C912.806351 868.233719,906.174591 884.239807,906.174591 900.931549C906.174591 917.623291,912.806351 933.629379,924.608292 945.431335C936.410248 957.233276,952.416336 963.865036,969.108078 963.865036C985.799820 963.865036,1001.805908 957.233276,1013.607864 945.431335C1025.409805 933.629379,1032.041565 917.623291,1032.041565 900.931549Z" style="stroke:rgb(25.500488%,41.000366%,88.400269%); stroke-width: 2.500000;stroke-linecap: round;stroke-linejoin: round;stroke-miterlimit: 10.000000;fill: none;"></path>
  <path d="M1148.176544 894.067261C1148.176544 877.375519,1141.544785 861.369431,1129.742844 849.567474C1117.940887 837.765533,1101.934799 831.133774,1085.243057 831.133774C1068.551315 831.133774,1052.545227 837.765533,1040.743271 849.567474C1028.941330 861.369431,1022.309570 877.375519,1022.309570 894.067261C1022.309570 910.759003,1028.941330 926.765091,1040.743271 938.567047C1052.545227 950.368988,1068.551315 957.000748,1085.243057 957.000748C1101.934799 957.000748,1117.940887 950.368988,1129.742844 938.567047C1141.544785 926.765091,1148.176544 910.759003,1148.176544 894.067261Z" style="stroke:rgb(25.500488%,41.000366%,88.400269%); stroke-width: 2.500000;stroke-linecap: round;stroke-linejoin: round;stroke-miterlimit: 10.000000;fill: none;"></path>
  <path d="M1266.854813 896.519714C1266.854813 879.827972,1260.223053 863.821884,1248.421112 852.019928C1236.619156 840.217987,1220.613068 833.586227,1203.921326 833.586227C1187.229584 833.586227,1171.223495 840.217987,1159.421539 852.019928C1147.619598 863.821884,1140.987839 879.827972,1140.987839 896.519714C1140.987839 913.211456,1147.619598 929.217545,1159.421539 941.019501C1171.223495 952.821442,1187.229584 959.453201,1203.921326 959.453201C1220.613068 959.453201,1236.619156 952.821442,1248.421112 941.019501C1260.223053 929.217545,1266.854813 913.211456,1266.854813 896.519714Z" style="stroke:rgb(25.500488%,41.000366%,88.400269%); stroke-width: 2.500000;stroke-linecap: round;stroke-linejoin: round;stroke-miterlimit: 10.000000;fill: none;"></path>
  <path d="M390.055176 804.169708C390.055176 787.477966,383.423416 771.471878,371.621475 759.669922C359.819519 747.867981,343.813431 741.236221,327.121689 741.236221C310.429947 741.236221,294.423859 747.867981,282.621902 759.669922C270.819962 771.471878,264.188202 787.477966,264.188202 804.169708C264.188202 820.861450,270.819962 836.867538,282.621902 848.669495C294.423859 860.471436,310.429947 867.103195,327.121689 867.103195C343.813431 867.103195,359.819519 860.471436,371.621475 848.669495C383.423416 836.867538,390.055176 820.861450,390.055176 804.169708Z" style="stroke:rgb(25.500488%,41.000366%,88.400269%); stroke-width: 2.500000;stroke-linecap: round;stroke-linejoin: round;stroke-miterlimit: 10.000000;fill: none;"></path>
  <path d="M503.828522 811.721725C503.828522 795.029984,497.196762 779.023895,485.394821 767.221939C473.592865 755.419998,457.586777 748.788239,440.895035 748.788239C424.203293 748.788239,408.197205 755.419998,396.395248 767.221939C384.593307 779.023895,377.961548 795.029984,377.961548 811.721725C377.961548 828.413467,384.593307 844.419556,396.395248 856.221512C408.197205 868.023453,424.203293 874.655212,440.895035 874.655212C457.586777 874.655212,473.592865 868.023453,485.394821 856.221512C497.196762 844.419556,503.828522 828.413467,503.828522 811.721725Z" style="stroke:rgb(25.500488%,41.000366%,88.400269%); stroke-width: 2.500000;stroke-linecap: round;stroke-linejoin: round;stroke-miterlimit: 10.000000;fill: none;"></path>
  <path d="M616.745468 815.874039C616.745468 799.182297,610.113708 783.176208,598.311768 771.374252C586.509811 759.572311,570.503723 752.940552,553.811981 752.940552C537.120239 752.940552,521.114151 759.572311,509.312195 771.374252C497.510254 783.176208,490.878494 799.182297,490.878494 815.874039C490.878494 832.565781,497.510254 848.571869,509.312195 860.373825C521.114151 872.175766,537.120239 878.807526,553.811981 878.807526C570.503723 878.807526,586.509811 872.175766,598.311768 860.373825C610.113708 848.571869,616.745468 832.565781,616.745468 815.874039Z" style="stroke:rgb(25.500488%,41.000366%,88.400269%); stroke-width: 2.500000;stroke-linecap: round;stroke-linejoin: round;stroke-miterlimit: 10.000000;fill: none;"></path>
  <path d="M728.403732 818.754700C728.403732 802.062958,721.771973 786.056870,709.970032 774.254913C698.168076 762.452972,682.161987 755.821213,665.470245 755.821213C648.778503 755.821213,632.772415 762.452972,620.970459 774.254913C609.168518 786.056870,602.536758 802.062958,602.536758 818.754700C602.536758 835.446442,609.168518 851.452530,620.970459 863.254486C632.772415 875.056427,648.778503 881.688187,665.470245 881.688187C682.161987 881.688187,698.168076 875.056427,709.970032 863.254486C721.771973 851.452530,728.403732 835.446442,728.403732 818.754700Z" style="stroke:rgb(25.500488%,41.000366%,88.400269%); stroke-width: 2.500000;stroke-linecap: round;stroke-linejoin: round;stroke-miterlimit: 10.000000;fill: none;"></path>
  <path d="M838.686554 820.402649C838.686554 803.710907,832.054794 787.704819,820.252853 775.902863C808.450897 764.100922,792.444809 757.469162,775.753067 757.469162C759.061325 757.469162,743.055237 764.100922,731.253281 775.902863C719.451340 787.704819,712.819580 803.710907,712.819580 820.402649C712.819580 837.094391,719.451340 853.100479,731.253281 864.902435C743.055237 876.704376,759.061325 883.336136,775.753067 883.336136C792.444809 883.336136,808.450897 876.704376,820.252853 864.902435C832.054794 853.100479,838.686554 837.094391,838.686554 820.402649Z" style="stroke:rgb(25.500488%,41.000366%,88.400269%); stroke-width: 2.500000;stroke-linecap: round;stroke-linejoin: round;stroke-miterlimit: 10.000000;fill: none;"></path>
  <path d="M946.672623 821.713226C946.672623 805.021484,940.040863 789.015396,928.238922 777.213440C916.436966 765.411499,900.430878 758.779739,883.739136 758.779739C867.047394 758.779739,851.041306 765.411499,839.239349 777.213440C827.437408 789.015396,820.805649 805.021484,820.805649 821.713226C820.805649 838.404968,827.437408 854.411057,839.239349 866.213013C851.041306 878.014954,867.047394 884.646713,883.739136 884.646713C900.430878 884.646713,916.436966 878.014954,928.238922 866.213013C940.040863 854.411057,946.672623 838.404968,946.672623 821.713226Z" style="stroke:rgb(25.500488%,41.000366%,88.400269%); stroke-width: 2.500000;stroke-linecap: round;stroke-linejoin: round;stroke-miterlimit: 10.000000;fill: none;"></path>
  <path d="M1054.113693 820.908707C1054.113693 804.216965,1047.481934 788.210876,1035.679993 776.408920C1023.878036 764.606979,1007.871948 757.975220,991.180206 757.975220C974.488464 757.975220,958.482376 764.606979,946.680420 776.408920C934.878479 788.210876,928.246719 804.216965,928.246719 820.908707C928.246719 837.600449,934.878479 853.606537,946.680420 865.408493C958.482376 877.210434,974.488464 883.842194,991.180206 883.842194C1007.871948 883.842194,1023.878036 877.210434,1035.679993 865.408493C1047.481934 853.606537,1054.113693 837.600449,1054.113693 820.908707Z" style="stroke:rgb(25.500488%,41.000366%,88.400269%); stroke-width: 2.500000;stroke-linecap: round;stroke-linejoin: round;stroke-miterlimit: 10.000000;fill: none;"></path>
  <path d="M1138.522415 792.296692C1138.522415 775.604950,1131.890656 759.598862,1120.088715 747.796906C1108.286758 735.994965,1092.280670 729.363205,1075.588928 729.363205C1058.897186 729.363205,1042.891098 735.994965,1031.089142 747.796906C1019.287201 759.598862,1012.655441 775.604950,1012.655441 792.296692C1012.655441 808.988434,1019.287201 824.994522,1031.089142 836.796478C1042.891098 848.598419,1058.897186 855.230179,1075.588928 855.230179C1092.280670 855.230179,1108.286758 848.598419,1120.088715 836.796478C1131.890656 824.994522,1138.522415 808.988434,1138.522415 792.296692Z" style="stroke:rgb(25.500488%,41.000366%,88.400269%); stroke-width: 2.500000;stroke-linecap: round;stroke-linejoin: round;stroke-miterlimit: 10.000000;fill: none;"></path>
  <path d="M1232.922638 816.587708C1232.922638 799.895966,1226.290878 783.889877,1214.488937 772.087921C1202.686981 760.285980,1186.680893 753.654221,1169.989151 753.654221C1153.297409 753.654221,1137.291321 760.285980,1125.489365 772.087921C1113.687424 783.889877,1107.055664 799.895966,1107.055664 816.587708C1107.055664 833.279449,1113.687424 849.285538,1125.489365 861.087494C1137.291321 872.889435,1153.297409 879.521194,1169.989151 879.521194C1186.680893 879.521194,1202.686981 872.889435,1214.488937 861.087494C1226.290878 849.285538,1232.922638 833.279449,1232.922638 816.587708Z" style="stroke:rgb(25.500488%,41.000366%,88.400269%); stroke-width: 2.500000;stroke-linecap: round;stroke-linejoin: round;stroke-miterlimit: 10.000000;fill: none;"></path>
  <path d="M438.507462 719.228973C438.507462 702.537231,431.875702 686.531143,420.073761 674.729187C408.271805 662.927246,392.265717 656.295486,375.573975 656.295486C358.882233 656.295486,342.876144 662.927246,331.074188 674.729187C319.272247 686.531143,312.640488 702.537231,312.640488 719.228973C312.640488 735.920715,319.272247 751.926804,331.074188 763.728760C342.876144 775.530701,358.882233 782.162460,375.573975 782.162460C392.265717 782.162460,408.271805 775.530701,420.073761 763.728760C431.875702 751.926804,438.507462 735.920715,438.507462 719.228973Z" style="stroke:rgb(25.500488%,41.000366%,88.400269%); stroke-width: 2.500000;stroke-linecap: round;stroke-linejoin: round;stroke-miterlimit: 10.000000;fill: none;"></path>
  <path d="M551.100006 723.978180C551.100006 707.286438,544.468246 691.280350,532.666306 679.478394C520.864349 667.676453,504.858261 661.044693,488.166519 661.044693C471.474777 661.044693,455.468689 667.676453,443.666733 679.478394C431.864792 691.280350,425.233032 707.286438,425.233032 723.978180C425.233032 740.669922,431.864792 756.676010,443.666733 768.477966C455.468689 780.279907,471.474777 786.911667,488.166519 786.911667C504.858261 786.911667,520.864349 780.279907,532.666306 768.477966C544.468246 756.676010,551.100006 740.669922,551.100006 723.978180Z" style="stroke:rgb(25.500488%,41.000366%,88.400269%); stroke-width: 2.500000;stroke-linecap: round;stroke-linejoin: round;stroke-miterlimit: 10.000000;fill: none;"></path>
  <path d="M662.732315 726.248978C662.732315 709.557236,656.100555 693.551147,644.298615 681.749191C632.496658 669.947250,616.490570 663.315491,599.798828 663.315491C583.107086 663.315491,567.100998 669.947250,555.299042 681.749191C543.497101 693.551147,536.865341 709.557236,536.865341 726.248978C536.865341 742.940720,543.497101 758.946808,555.299042 770.748764C567.100998 782.550705,583.107086 789.182465,599.798828 789.182465C616.490570 789.182465,632.496658 782.550705,644.298615 770.748764C656.100555 758.946808,662.732315 742.940720,662.732315 726.248978Z" style="stroke:rgb(25.500488%,41.000366%,88.400269%); stroke-width: 2.500000;stroke-linecap: round;stroke-linejoin: round;stroke-miterlimit: 10.000000;fill: none;"></path>
  <path d="M772.054916 727.442764C772.054916 710.751022,765.423157 694.744934,753.621216 682.942978C741.819260 671.141037,725.813171 664.509277,709.121429 664.509277C692.429688 664.509277,676.423599 671.141037,664.621643 682.942978C652.819702 694.744934,646.187943 710.751022,646.187943 727.442764C646.187943 744.134506,652.819702 760.140594,664.621643 771.942551C676.423599 783.744492,692.429688 790.376251,709.121429 790.376251C725.813171 790.376251,741.819260 783.744492,753.621216 771.942551C765.423157 760.140594,772.054916 744.134506,772.054916 727.442764Z" style="stroke:rgb(25.500488%,41.000366%,88.400269%); stroke-width: 2.500000;stroke-linecap: round;stroke-linejoin: round;stroke-miterlimit: 10.000000;fill: none;"></path>
  <path d="M880.832520 726.988602C880.832520 710.296860,874.200760 694.290771,862.398819 682.488815C850.596863 670.686874,834.590775 664.055115,817.899033 664.055115C801.207291 664.055115,785.201202 670.686874,773.399246 682.488815C761.597305 694.290771,754.965546 710.296860,754.965546 726.988602C754.965546 743.680344,761.597305 759.686432,773.399246 771.488388C785.201202 783.290329,801.207291 789.922089,817.899033 789.922089C834.590775 789.922089,850.596863 783.290329,862.398819 771.488388C874.200760 759.686432,880.832520 743.680344,880.832520 726.988602Z" style="stroke:rgb(25.500488%,41.000366%,88.400269%); stroke-width: 2.500000;stroke-linecap: round;stroke-linejoin: round;stroke-miterlimit: 10.000000;fill: none;"></path>
  <path d="M987.469086 726.871826C987.469086 710.180084,980.837326 694.173996,969.035385 682.372040C957.233429 670.570099,941.227341 663.938339,924.535599 663.938339C907.843857 663.938339,891.837769 670.570099,880.035812 682.372040C868.233871 694.173996,861.602112 710.180084,861.602112 726.871826C861.602112 743.563568,868.233871 759.569656,880.035812 771.371613C891.837769 783.173553,907.843857 789.805313,924.535599 789.805313C941.227341 789.805313,957.233429 783.173553,969.035385 771.371613C980.837326 759.569656,987.469086 743.563568,987.469086 726.871826Z" style="stroke:rgb(25.500488%,41.000366%,88.400269%); stroke-width: 2.500000;stroke-linecap: round;stroke-linejoin: round;stroke-miterlimit: 10.000000;fill: none;"></path>
  <path d="M1086.333038 715.154510C1086.333038 698.462769,1079.701279 682.456680,1067.899338 670.654724C1056.097382 658.852783,1040.091293 652.221024,1023.399551 652.221024C1006.707809 652.221024,990.701721 658.852783,978.899765 670.654724C967.097824 682.456680,960.466064 698.462769,960.466064 715.154510C960.466064 731.846252,967.097824 747.852341,978.899765 759.654297C990.701721 771.456238,1006.707809 778.087997,1023.399551 778.087997C1040.091293 778.087997,1056.097382 771.456238,1067.899338 759.654297C1079.701279 747.852341,1086.333038 731.846252,1086.333038 715.154510Z" style="stroke:rgb(25.500488%,41.000366%,88.400269%); stroke-width: 2.500000;stroke-linecap: round;stroke-linejoin: round;stroke-miterlimit: 10.000000;fill: none;"></path>
  <path d="M1194.111496 715.076660C1194.111496 698.384918,1187.479736 682.378830,1175.677795 670.576874C1163.875839 658.774933,1147.869751 652.143173,1131.178009 652.143173C1114.486267 652.143173,1098.480179 658.774933,1086.678223 670.576874C1074.876282 682.378830,1068.244522 698.384918,1068.244522 715.076660C1068.244522 731.768402,1074.876282 747.774490,1086.678223 759.576447C1098.480179 771.378387,1114.486267 778.010147,1131.178009 778.010147C1147.869751 778.010147,1163.875839 771.378387,1175.677795 759.576447C1187.479736 747.774490,1194.111496 731.768402,1194.111496 715.076660Z" style="stroke:rgb(25.500488%,41.000366%,88.400269%); stroke-width: 2.500000;stroke-linecap: round;stroke-linejoin: round;stroke-miterlimit: 10.000000;fill: none;"></path>
  <path d="M486.440720 631.368637C486.440720 614.676895,479.808960 598.670807,468.007019 586.868851C456.205063 575.066910,440.198975 568.435150,423.507233 568.435150C406.815491 568.435150,390.809402 575.066910,379.007446 586.868851C367.205505 598.670807,360.573746 614.676895,360.573746 631.368637C360.573746 648.060379,367.205505 664.066467,379.007446 675.868423C390.809402 687.670364,406.815491 694.302124,423.507233 694.302124C440.198975 694.302124,456.205063 687.670364,468.007019 675.868423C479.808960 664.066467,486.440720 648.060379,486.440720 631.368637Z" style="stroke:rgb(25.500488%,41.000366%,88.400269%); stroke-width: 2.500000;stroke-linecap: round;stroke-linejoin: round;stroke-miterlimit: 10.000000;fill: none;"></path>
  <path d="M597.943283 633.847046C597.943283 617.155304,591.311523 601.149216,579.509583 589.347260C567.707626 577.545319,551.701538 570.913559,535.009796 570.913559C518.318054 570.913559,502.311966 577.545319,490.510010 589.347260C478.708069 601.149216,472.076309 617.155304,472.076309 633.847046C472.076309 650.538788,478.708069 666.544876,490.510010 678.346832C502.311966 690.148773,518.318054 696.780533,535.009796 696.780533C551.701538 696.780533,567.707626 690.148773,579.509583 678.346832C591.311523 666.544876,597.943283 650.538788,597.943283 633.847046Z" style="stroke:rgb(25.500488%,41.000366%,88.400269%); stroke-width: 2.500000;stroke-linecap: round;stroke-linejoin: round;stroke-miterlimit: 10.000000;fill: none;"></path>
  <path d="M708.161209 633.457779C708.161209 616.766037,701.529449 600.759949,689.727509 588.957993C677.925552 577.156052,661.919464 570.524292,645.227722 570.524292C628.535980 570.524292,612.529892 577.156052,600.727936 588.957993C588.925995 600.759949,582.294235 616.766037,582.294235 633.457779C582.294235 650.149521,588.925995 666.155609,600.727936 677.957565C612.529892 689.759506,628.535980 696.391266,645.227722 696.391266C661.919464 696.391266,677.925552 689.759506,689.727509 677.957565C701.529449 666.155609,708.161209 650.149521,708.161209 633.457779Z" style="stroke:rgb(25.500488%,41.000366%,88.400269%); stroke-width: 2.500000;stroke-linecap: round;stroke-linejoin: round;stroke-miterlimit: 10.000000;fill: none;"></path>
  <path d="M816.731201 633.340988C816.731201 616.649246,810.099442 600.643158,798.297501 588.841202C786.495544 577.039261,770.489456 570.407501,753.797714 570.407501C737.105972 570.407501,721.099884 577.039261,709.297928 588.841202C697.495987 600.643158,690.864227 616.649246,690.864227 633.340988C690.864227 650.032730,697.495987 666.038818,709.297928 677.840775C721.099884 689.642715,737.105972 696.274475,753.797714 696.274475C770.489456 696.274475,786.495544 689.642715,798.297501 677.840775C810.099442 666.038818,816.731201 650.032730,816.731201 633.340988Z" style="stroke:rgb(25.500488%,41.000366%,88.400269%); stroke-width: 2.500000;stroke-linecap: round;stroke-linejoin: round;stroke-miterlimit: 10.000000;fill: none;"></path>
  <path d="M924.535599 631.277802C924.535599 614.586060,917.903839 598.579971,906.101898 586.778015C894.299942 574.976074,878.293854 568.344315,861.602112 568.344315C844.910370 568.344315,828.904282 574.976074,817.102325 586.778015C805.300385 598.579971,798.668625 614.586060,798.668625 631.277802C798.668625 647.969543,805.300385 663.975632,817.102325 675.777588C828.904282 687.579529,844.910370 694.211288,861.602112 694.211288C878.293854 694.211288,894.299942 687.579529,906.101898 675.777588C917.903839 663.975632,924.535599 647.969543,924.535599 631.277802Z" style="stroke:rgb(25.500488%,41.000366%,88.400269%); stroke-width: 2.500000;stroke-linecap: round;stroke-linejoin: round;stroke-miterlimit: 10.000000;fill: none;"></path>
  <path d="M1022.776718 620.559647C1022.776718 603.867905,1016.144958 587.861816,1004.343018 576.059860C992.541061 564.257919,976.534973 557.626160,959.843231 557.626160C943.151489 557.626160,927.145401 564.257919,915.343445 576.059860C903.541504 587.861816,896.909744 603.867905,896.909744 620.559647C896.909744 637.251389,903.541504 653.257477,915.343445 665.059433C927.145401 676.861374,943.151489 683.493134,959.843231 683.493134C976.534973 683.493134,992.541061 676.861374,1004.343018 665.059433C1016.144958 653.257477,1022.776718 637.251389,1022.776718 620.559647Z" style="stroke:rgb(25.500488%,41.000366%,88.400269%); stroke-width: 2.500000;stroke-linecap: round;stroke-linejoin: round;stroke-miterlimit: 10.000000;fill: none;"></path>
  <path d="M1130.607071 620.390961C1130.607071 603.699219,1123.975311 587.693130,1112.173370 575.891174C1100.371414 564.089233,1084.365326 557.457474,1067.673584 557.457474C1050.981842 557.457474,1034.975754 564.089233,1023.173798 575.891174C1011.371857 587.693130,1004.740097 603.699219,1004.740097 620.390961C1004.740097 637.082703,1011.371857 653.088791,1023.173798 664.890747C1034.975754 676.692688,1050.981842 683.324448,1067.673584 683.324448C1084.365326 683.324448,1100.371414 676.692688,1112.173370 664.890747C1123.975311 653.088791,1130.607071 637.082703,1130.607071 620.390961Z" style="stroke:rgb(25.500488%,41.000366%,88.400269%); stroke-width: 2.500000;stroke-linecap: round;stroke-linejoin: round;stroke-miterlimit: 10.000000;fill: none;"></path>
  <path d="M536.307388 540.848236C536.307388 524.156494,529.675629 508.150406,517.873688 496.348450C506.071732 484.546509,490.065643 477.914749,473.373901 477.914749C456.682159 477.914749,440.676071 484.546509,428.874115 496.348450C417.072174 508.150406,410.440414 524.156494,410.440414 540.848236C410.440414 557.539978,417.072174 573.546066,428.874115 585.348022C440.676071 597.149963,456.682159 603.781723,473.373901 603.781723C490.065643 603.781723,506.071732 597.149963,517.873688 585.348022C529.675629 573.546066,536.307388 557.539978,536.307388 540.848236Z" style="stroke:rgb(25.500488%,41.000366%,88.400269%); stroke-width: 2.500000;stroke-linecap: round;stroke-linejoin: round;stroke-miterlimit: 10.000000;fill: none;"></path>
  <path d="M646.421524 540.653595C646.421524 523.961853,639.789764 507.955765,627.987823 496.153809C616.185867 484.351868,600.179779 477.720108,583.488037 477.720108C566.796295 477.720108,550.790207 484.351868,538.988251 496.153809C527.186310 507.955765,520.554550 523.961853,520.554550 540.653595C520.554550 557.345337,527.186310 573.351425,538.988251 585.153381C550.790207 596.955322,566.796295 603.587082,583.488037 603.587082C600.179779 603.587082,616.185867 596.955322,627.987823 585.153381C639.789764 573.351425,646.421524 557.345337,646.421524 540.653595Z" style="stroke:rgb(25.500488%,41.000366%,88.400269%); stroke-width: 2.500000;stroke-linecap: round;stroke-linejoin: round;stroke-miterlimit: 10.000000;fill: none;"></path>
  <path d="M755.886856 538.953751C755.886856 522.262009,749.255096 506.255920,737.453156 494.453964C725.651199 482.652023,709.645111 476.020264,692.953369 476.020264C676.261627 476.020264,660.255539 482.652023,648.453583 494.453964C636.651642 506.255920,630.019882 522.262009,630.019882 538.953751C630.019882 555.645493,636.651642 571.651581,648.453583 583.453537C660.255539 595.255478,676.261627 601.887238,692.953369 601.887238C709.645111 601.887238,725.651199 595.255478,737.453156 583.453537C749.255096 571.651581,755.886856 555.645493,755.886856 538.953751Z" style="stroke:rgb(25.500488%,41.000366%,88.400269%); stroke-width: 2.500000;stroke-linecap: round;stroke-linejoin: round;stroke-miterlimit: 10.000000;fill: none;"></path>
  <path d="M863.483643 537.240921C863.483643 520.549179,856.851883 504.543091,845.049942 492.741135C833.247986 480.939194,817.241898 474.307434,800.550156 474.307434C783.858414 474.307434,767.852325 480.939194,756.050369 492.741135C744.248428 504.543091,737.616669 520.549179,737.616669 537.240921C737.616669 553.932663,744.248428 569.938751,756.050369 581.740707C767.852325 593.542648,783.858414 600.174408,800.550156 600.174408C817.241898 600.174408,833.247986 593.542648,845.049942 581.740707C856.851883 569.938751,863.483643 553.932663,863.483643 537.240921Z" style="stroke:rgb(25.500488%,41.000366%,88.400269%); stroke-width: 2.500000;stroke-linecap: round;stroke-linejoin: round;stroke-miterlimit: 10.000000;fill: none;"></path>
  <path d="M966.058716 528.027969C966.058716 511.336227,959.426956 495.330139,947.625015 483.528183C935.823059 471.726242,919.816971 465.094482,903.125229 465.094482C886.433487 465.094482,870.427399 471.726242,858.625443 483.528183C846.823502 495.330139,840.191742 511.336227,840.191742 528.027969C840.191742 544.719711,846.823502 560.725800,858.625443 572.527756C870.427399 584.329697,886.433487 590.961456,903.125229 590.961456C919.816971 590.961456,935.823059 584.329697,947.625015 572.527756C959.426956 560.725800,966.058716 544.719711,966.058716 528.027969Z" style="stroke:rgb(25.500488%,41.000366%,88.400269%); stroke-width: 2.500000;stroke-linecap: round;stroke-linejoin: round;stroke-miterlimit: 10.000000;fill: none;"></path>
  <path d="M1075.472153 525.069443C1075.472153 508.377701,1068.840393 492.371613,1057.038452 480.569656C1045.236496 468.767715,1029.230408 462.135956,1012.538666 462.135956C995.846924 462.135956,979.840836 468.767715,968.038879 480.569656C956.236938 492.371613,949.605179 508.377701,949.605179 525.069443C949.605179 541.761185,956.236938 557.767273,968.038879 569.569229C979.840836 581.371170,995.846924 588.002930,1012.538666 588.002930C1029.230408 588.002930,1045.236496 581.371170,1057.038452 569.569229C1068.840393 557.767273,1075.472153 541.761185,1075.472153 525.069443Z" style="stroke:rgb(25.500488%,41.000366%,88.400269%); stroke-width: 2.500000;stroke-linecap: round;stroke-linejoin: round;stroke-miterlimit: 10.000000;fill: none;"></path>
  <path d="M587.302979 447.434189C587.302979 430.742447,580.671219 414.736359,568.869278 402.934402C557.067322 391.132462,541.061234 384.500702,524.369492 384.500702C507.677750 384.500702,491.671661 391.132462,479.869705 402.934402C468.067764 414.736359,461.436005 430.742447,461.436005 447.434189C461.436005 464.125931,468.067764 480.132019,479.869705 491.933975C491.671661 503.735916,507.677750 510.367676,524.369492 510.367676C541.061234 510.367676,557.067322 503.735916,568.869278 491.933975C580.671219 480.132019,587.302979 464.125931,587.302979 447.434189Z" style="stroke:rgb(25.500488%,41.000366%,88.400269%); stroke-width: 2.500000;stroke-linecap: round;stroke-linejoin: round;stroke-miterlimit: 10.000000;fill: none;"></path>
  <path d="M696.664505 445.941956C696.664505 429.250214,690.032745 413.244125,678.230804 401.442169C666.428848 389.640228,650.422760 383.008469,633.731018 383.008469C617.039276 383.008469,601.033188 389.640228,589.231232 401.442169C577.429291 413.244125,570.797531 429.250214,570.797531 445.941956C570.797531 462.633698,577.429291 478.639786,589.231232 490.441742C601.033188 502.243683,617.039276 508.875443,633.731018 508.875443C650.422760 508.875443,666.428848 502.243683,678.230804 490.441742C690.032745 478.639786,696.664505 462.633698,696.664505 445.941956Z" style="stroke:rgb(25.500488%,41.000366%,88.400269%); stroke-width: 2.500000;stroke-linecap: round;stroke-linejoin: round;stroke-miterlimit: 10.000000;fill: none;"></path>
  <path d="M805.156631 442.633072C805.156631 425.941330,798.524872 409.935242,786.722931 398.133286C774.920975 386.331345,758.914886 379.699585,742.223145 379.699585C725.531403 379.699585,709.525314 386.331345,697.723358 398.133286C685.921417 409.935242,679.289658 425.941330,679.289658 442.633072C679.289658 459.324814,685.921417 475.330902,697.723358 487.132858C709.525314 498.934799,725.531403 505.566559,742.223145 505.566559C758.914886 505.566559,774.920975 498.934799,786.722931 487.132858C798.524872 475.330902,805.156631 459.324814,805.156631 442.633072Z" style="stroke:rgb(25.500488%,41.000366%,88.400269%); stroke-width: 2.500000;stroke-linecap: round;stroke-linejoin: round;stroke-miterlimit: 10.000000;fill: none;"></path>
  <path d="M909.249908 435.885574C909.249908 419.193832,902.618149 403.187744,890.816208 391.385788C879.014252 379.583847,863.008163 372.952087,846.316422 372.952087C829.624680 372.952087,813.618591 379.583847,801.816635 391.385788C790.014694 403.187744,783.382935 419.193832,783.382935 435.885574C783.382935 452.577316,790.014694 468.583405,801.816635 480.385361C813.618591 492.187302,829.624680 498.819061,846.316422 498.819061C863.008163 498.819061,879.014252 492.187302,890.816208 480.385361C902.618149 468.583405,909.249908 452.577316,909.249908 435.885574Z" style="stroke:rgb(25.500488%,41.000366%,88.400269%); stroke-width: 2.500000;stroke-linecap: round;stroke-linejoin: round;stroke-miterlimit: 10.000000;fill: none;"></path>
  <path d="M1018.857971 432.550751C1018.857971 415.859009,1012.226212 399.852921,1000.424271 388.050964C988.622314 376.249023,972.616226 369.617264,955.924484 369.617264C939.232742 369.617264,923.226654 376.249023,911.424698 388.050964C899.622757 399.852921,892.990997 415.859009,892.990997 432.550751C892.990997 449.242493,899.622757 465.248581,911.424698 477.050537C923.226654 488.852478,939.232742 495.484238,955.924484 495.484238C972.616226 495.484238,988.622314 488.852478,1000.424271 477.050537C1012.226212 465.248581,1018.857971 449.242493,1018.857971 432.550751Z" style="stroke:rgb(25.500488%,41.000366%,88.400269%); stroke-width: 2.500000;stroke-linecap: round;stroke-linejoin: round;stroke-miterlimit: 10.000000;fill: none;"></path>
  <path d="M640.556381 352.605759C640.556381 335.914017,633.924622 319.907928,622.122681 308.105972C610.320724 296.304031,594.314636 289.672272,577.622894 289.672272C560.931152 289.672272,544.925064 296.304031,533.123108 308.105972C521.321167 319.907928,514.689407 335.914017,514.689407 352.605759C514.689407 369.297501,521.321167 385.303589,533.123108 397.105545C544.925064 408.907486,560.931152 415.539246,577.622894 415.539246C594.314636 415.539246,610.320724 408.907486,622.122681 397.105545C633.924622 385.303589,640.556381 369.297501,640.556381 352.605759Z" style="stroke:rgb(25.500488%,41.000366%,88.400269%); stroke-width: 2.500000;stroke-linecap: round;stroke-linejoin: round;stroke-miterlimit: 10.000000;fill: none;"></path>
  <path d="M748.944702 349.504501C748.944702 332.812759,742.312943 316.806671,730.511002 305.004715C718.709045 293.202774,702.702957 286.571014,686.011215 286.571014C669.319473 286.571014,653.313385 293.202774,641.511429 305.004715C629.709488 316.806671,623.077728 332.812759,623.077728 349.504501C623.077728 366.196243,629.709488 382.202332,641.511429 394.004288C653.313385 405.806229,669.319473 412.437988,686.011215 412.437988C702.702957 412.437988,718.709045 405.806229,730.511002 394.004288C742.312943 382.202332,748.944702 366.196243,748.944702 349.504501Z" style="stroke:rgb(25.500488%,41.000366%,88.400269%); stroke-width: 2.500000;stroke-linecap: round;stroke-linejoin: round;stroke-miterlimit: 10.000000;fill: none;"></path>
  <path d="M855.723999 343.600433C855.723999 326.908691,849.092239 310.902603,837.290298 299.100647C825.488342 287.298706,809.482254 280.666946,792.790512 280.666946C776.098770 280.666946,760.092682 287.298706,748.290726 299.100647C736.488785 310.902603,729.857025 326.908691,729.857025 343.600433C729.857025 360.292175,736.488785 376.298264,748.290726 388.100220C760.092682 399.902161,776.098770 406.533920,792.790512 406.533920C809.482254 406.533920,825.488342 399.902161,837.290298 388.100220C849.092239 376.298264,855.723999 360.292175,855.723999 343.600433Z" style="stroke:rgb(25.500488%,41.000366%,88.400269%); stroke-width: 2.500000;stroke-linecap: round;stroke-linejoin: round;stroke-miterlimit: 10.000000;fill: none;"></path>
  <path d="M965.254211 340.434296C965.254211 323.742554,958.622452 307.736465,946.820511 295.934509C935.018555 284.132568,919.012466 277.500809,902.320724 277.500809C885.628983 277.500809,869.622894 284.132568,857.820938 295.934509C846.018997 307.736465,839.387238 323.742554,839.387238 340.434296C839.387238 357.126038,846.018997 373.132126,857.820938 384.934082C869.622894 396.736023,885.628983 403.367783,902.320724 403.367783C919.012466 403.367783,935.018555 396.736023,946.820511 384.934082C958.622452 373.132126,965.254211 357.126038,965.254211 340.434296Z" style="stroke:rgb(25.500488%,41.000366%,88.400269%); stroke-width: 2.500000;stroke-linecap: round;stroke-linejoin: round;stroke-miterlimit: 10.000000;fill: none;"></path>
  <path d="M694.328827 256.181290C694.328827 239.489548,687.697067 223.483459,675.895126 211.681503C664.093170 199.879562,648.087082 193.247803,631.395340 193.247803C614.703598 193.247803,598.697510 199.879562,586.895554 211.681503C575.093613 223.483459,568.461853 239.489548,568.461853 256.181290C568.461853 272.873032,575.093613 288.879120,586.895554 300.681076C598.697510 312.483017,614.703598 319.114777,631.395340 319.114777C648.087082 319.114777,664.093170 312.483017,675.895126 300.681076C687.697067 288.879120,694.328827 272.873032,694.328827 256.181290Z" style="stroke:rgb(25.500488%,41.000366%,88.400269%); stroke-width: 2.500000;stroke-linecap: round;stroke-linejoin: round;stroke-miterlimit: 10.000000;fill: none;"></path>
  <path d="M802.172150 252.210632C802.172150 235.518890,795.540390 219.512802,783.738449 207.710846C771.936493 195.908905,755.930405 189.277145,739.238663 189.277145C722.546921 189.277145,706.540833 195.908905,694.738876 207.710846C682.936935 219.512802,676.305176 235.518890,676.305176 252.210632C676.305176 268.902374,682.936935 284.908463,694.738876 296.710419C706.540833 308.512360,722.546921 315.144119,739.238663 315.144119C755.930405 315.144119,771.936493 308.512360,783.738449 296.710419C795.540390 284.908463,802.172150 268.902374,802.172150 252.210632Z" style="stroke:rgb(25.500488%,41.000366%,88.400269%); stroke-width: 2.500000;stroke-linecap: round;stroke-linejoin: round;stroke-miterlimit: 10.000000;fill: none;"></path>
  <path d="M912.156525 248.162140C912.156525 231.470398,905.524765 215.464310,893.722824 203.662354C881.920868 191.860413,865.914780 185.228653,849.223038 185.228653C832.531296 185.228653,816.525208 191.860413,804.723251 203.662354C792.921310 215.464310,786.289551 231.470398,786.289551 248.162140C786.289551 264.853882,792.921310 280.859970,804.723251 292.661926C816.525208 304.463867,832.531296 311.095627,849.223038 311.095627C865.914780 311.095627,881.920868 304.463867,893.722824 292.661926C905.524765 280.859970,912.156525 264.853882,912.156525 248.162140Z" style="stroke:rgb(25.500488%,41.000366%,88.400269%); stroke-width: 2.500000;stroke-linecap: round;stroke-linejoin: round;stroke-miterlimit: 10.000000;fill: none;"></path>
  <path d="M749.437790 158.926346C749.437790 142.234604,742.806030 126.228516,731.004089 114.426559C719.202133 102.624619,703.196045 95.992859,686.504303 95.992859C669.812561 95.992859,653.806473 102.624619,642.004517 114.426559C630.202576 126.228516,623.570816 142.234604,623.570816 158.926346C623.570816 175.618088,630.202576 191.624176,642.004517 203.426132C653.806473 215.228073,669.812561 221.859833,686.504303 221.859833C703.196045 221.859833,719.202133 215.228073,731.004089 203.426132C742.806030 191.624176,749.437790 175.618088,749.437790 158.926346Z" style="stroke:rgb(25.500488%,41.000366%,88.400269%); stroke-width: 2.500000;stroke-linecap: round;stroke-linejoin: round;stroke-miterlimit: 10.000000;fill: none;"></path>
  <path d="M858.423004 156.772339C858.423004 140.080597,851.791245 124.074509,839.989304 112.272552C828.187347 100.470612,812.181259 93.838852,795.489517 93.838852C778.797775 93.838852,762.791687 100.470612,750.989731 112.272552C739.187790 124.074509,732.556030 140.080597,732.556030 156.772339C732.556030 173.464081,739.187790 189.470169,750.989731 201.272125C762.791687 213.074066,778.797775 219.705826,795.489517 219.705826C812.181259 219.705826,828.187347 213.074066,839.989304 201.272125C851.791245 189.470169,858.423004 173.464081,858.423004 156.772339Z" style="stroke:rgb(25.500488%,41.000366%,88.400269%); stroke-width: 2.500000;stroke-linecap: round;stroke-linejoin: round;stroke-miterlimit: 10.000000;fill: none;"></path>
  <path d="M806.687790 63.539963C806.687790 46.848221,800.056030 30.842133,788.254089 19.040176C776.452133 7.238235,760.446045 0.606476,743.754303 0.606476C727.062561 0.606476,711.056473 7.238235,699.254517 19.040176C687.452576 30.842133,680.820816 46.848221,680.820816 63.539963C680.820816 80.231705,687.452576 96.237793,699.254517 108.039749C711.056473 119.841690,727.062561 126.473450,743.754303 126.473450C760.446045 126.473450,776.452133 119.841690,788.254089 108.039749C800.056030 96.237793,806.687790 80.231705,806.687790 63.539963Z" style="stroke:rgb(25.500488%,41.000366%,88.400269%); stroke-width: 2.500000;stroke-linecap: round;stroke-linejoin: round;stroke-miterlimit: 10.000000;fill: none;"></path>
</svg>
