<?xml version="1.0"?>
<!-- Created by MetaPost 2.00 on 2022.03.02:1201 -->
<svg version="1.1" xmlns="http://www.w3.org/2000/svg" xmlns:xlink="http://www.w3.org/1999/xlink" width="1832.021698" height="1804.175247" viewBox="0 0 1832.021698 1804.175247">
<!-- Original BoundingBox: -914.693787 -884.239166 917.327911 919.936081 -->
  <path d="M1764.393524 919.000000L1650.464462 493.803238L1339.196762 182.535538L914.000000 68.606476L488.803238 182.535538L177.535538 493.803238L63.606476 919.000000L177.535538 1344.196762L488.803238 1655.464462L914.000000 1769.393524L1339.196762 1655.464462L1650.464462 1344.196762L1764.393524 919.000000Z" style="fill: rgb(100.000000%,100.000000%,100.000000%);stroke: none;"></path>
  <path d="M1764.393524 919.000000L1650.464462 493.803238" style="stroke:rgb(0.000000%,0.000000%,0.000000%); stroke-width: 2.500000;stroke-linecap: round;stroke-linejoin: round;stroke-miterlimit: 10.000000;fill: none;"></path>
  <path d="M1650.464462 493.803238L1339.196762 182.535538" style="stroke:rgb(0.000000%,0.000000%,0.000000%); stroke-width: 2.500000;stroke-linecap: round;stroke-linejoin: round;stroke-miterlimit: 10.000000;fill: none;"></path>
  <path d="M1339.196762 182.535538L914.000000 68.606476" style="stroke:rgb(0.000000%,0.000000%,0.000000%); stroke-width: 2.500000;stroke-linecap: round;stroke-linejoin: round;stroke-miterlimit: 10.000000;fill: none;"></path>
  <path d="M914.000000 68.606476L488.803238 182.535538" style="stroke:rgb(0.000000%,0.000000%,0.000000%); stroke-width: 2.500000;stroke-linecap: round;stroke-linejoin: round;stroke-miterlimit: 10.000000;fill: none;"></path>
  <path d="M488.803238 182.535538L177.535538 493.803238" style="stroke:rgb(0.000000%,0.000000%,0.000000%); stroke-width: 2.500000;stroke-linecap: round;stroke-linejoin: round;stroke-miterlimit: 10.000000;fill: none;"></path>
  <path d="M177.535538 493.803238L63.606476 919.000000" style="stroke:rgb(0.000000%,0.000000%,0.000000%); stroke-width: 2.500000;stroke-linecap: round;stroke-linejoin: round;stroke-miterlimit: 10.000000;fill: none;"></path>
  <path d="M63.606476 919.000000L177.535538 1344.196762" style="stroke:rgb(0.000000%,0.000000%,0.000000%); stroke-width: 2.500000;stroke-linecap: round;stroke-linejoin: round;stroke-miterlimit: 10.000000;fill: none;"></path>
  <path d="M177.535538 1344.196762L488.803238 1655.464462" style="stroke:rgb(0.000000%,0.000000%,0.000000%); stroke-width: 2.500000;stroke-linecap: round;stroke-linejoin: round;stroke-miterlimit: 10.000000;fill: none;"></path>
  <path d="M488.803238 1655.464462L914.000000 1769.393524" style="stroke:rgb(0.000000%,0.000000%,0.000000%); stroke-width: 2.500000;stroke-linecap: round;stroke-linejoin: round;stroke-miterlimit: 10.000000;fill: none;"></path>
  <path d="M914.000000 1769.393524L1339.196762 1655.464462" style="stroke:rgb(0.000000%,0.000000%,0.000000%); stroke-width: 2.500000;stroke-linecap: round;stroke-linejoin: round;stroke-miterlimit: 10.000000;fill: none;"></path>
  <path d="M1339.196762 1655.464462L1650.464462 1344.196762" style="stroke:rgb(0.000000%,0.000000%,0.000000%); stroke-width: 2.500000;stroke-linecap: round;stroke-linejoin: round;stroke-miterlimit: 10.000000;fill: none;"></path>
  <path d="M1650.464462 1344.196762L1764.393524 919.000000" style="stroke:rgb(0.000000%,0.000000%,0.000000%); stroke-width: 2.500000;stroke-linecap: round;stroke-linejoin: round;stroke-miterlimit: 10.000000;fill: none;"></path>
  <path d="M1457.602539 1582.163177C1457.602539 1553.591049,1446.250610 1526.192581,1426.048599 1505.990570C1405.846588 1485.788559,1378.448120 1474.436630,1349.875992 1474.436630C1321.303864 1474.436630,1293.905396 1485.788559,1273.703384 1505.990570C1253.501373 1526.192581,1242.149445 1553.591049,1242.149445 1582.163177C1242.149445 1610.735306,1253.501373 1638.133774,1273.703384 1658.335785C1293.905396 1678.537796,1321.303864 1689.889725,1349.875992 1689.889725C1378.448120 1689.889725,1405.846588 1678.537796,1426.048599 1658.335785C1446.250610 1638.133774,1457.602539 1610.735306,1457.602539 1582.163177Z" style="stroke:rgb(25.500488%,41.000366%,88.400269%); stroke-width: 2.500000;stroke-linecap: round;stroke-linejoin: round;stroke-miterlimit: 10.000000;fill: none;"></path>
  <path d="M1594.382294 1442.489777C1594.382294 1413.917648,1583.030365 1386.519180,1562.828354 1366.317169C1542.626343 1346.115158,1515.227875 1334.763229,1486.655746 1334.763229C1458.083618 1334.763229,1430.685150 1346.115158,1410.483139 1366.317169C1390.281128 1386.519180,1378.929199 1413.917648,1378.929199 1442.489777C1378.929199 1471.061905,1390.281128 1498.460373,1410.483139 1518.662384C1430.685150 1538.864395,1458.083618 1550.216324,1486.655746 1550.216324C1515.227875 1550.216324,1542.626343 1538.864395,1562.828354 1518.662384C1583.030365 1498.460373,1594.382294 1471.061905,1594.382294 1442.489777Z" style="stroke:rgb(25.500488%,41.000366%,88.400269%); stroke-width: 2.500000;stroke-linecap: round;stroke-linejoin: round;stroke-miterlimit: 10.000000;fill: none;"></path>
  <path d="M1729.449219 1304.088028C1729.449219 1275.515900,1718.097290 1248.117432,1697.895279 1227.915421C1677.693268 1207.713409,1650.294800 1196.361481,1621.722672 1196.361481C1593.150543 1196.361481,1565.752075 1207.713409,1545.550064 1227.915421C1525.348053 1248.117432,1513.996124 1275.515900,1513.996124 1304.088028C1513.996124 1332.660156,1525.348053 1360.058624,1545.550064 1380.260635C1565.752075 1400.462646,1593.150543 1411.814575,1621.722672 1411.814575C1650.294800 1411.814575,1677.693268 1400.462646,1697.895279 1380.260635C1718.097290 1360.058624,1729.449219 1332.660156,1729.449219 1304.088028Z" style="stroke:rgb(25.500488%,41.000366%,88.400269%); stroke-width: 2.500000;stroke-linecap: round;stroke-linejoin: round;stroke-miterlimit: 10.000000;fill: none;"></path>
  <path d="M1287.033340 1662.134109C1287.033340 1633.561981,1275.681412 1606.163513,1255.479401 1585.961502C1235.277390 1565.759491,1207.878922 1554.407562,1179.306793 1554.407562C1150.734665 1554.407562,1123.336197 1565.759491,1103.134186 1585.961502C1082.932175 1606.163513,1071.580246 1633.561981,1071.580246 1662.134109C1071.580246 1690.706238,1082.932175 1718.104706,1103.134186 1738.306717C1123.336197 1758.508728,1150.734665 1769.860657,1179.306793 1769.860657C1207.878922 1769.860657,1235.277390 1758.508728,1255.479401 1738.306717C1275.681412 1718.104706,1287.033340 1690.706238,1287.033340 1662.134109Z" style="stroke:rgb(25.500488%,41.000366%,88.400269%); stroke-width: 2.500000;stroke-linecap: round;stroke-linejoin: round;stroke-miterlimit: 10.000000;fill: none;"></path>
  <path d="M1319.732803 1507.019302C1319.732803 1478.447174,1308.380875 1451.048706,1288.178864 1430.846695C1267.976852 1410.644684,1240.578384 1399.292755,1212.006256 1399.292755C1183.434128 1399.292755,1156.035660 1410.644684,1135.833649 1430.846695C1115.631638 1451.048706,1104.279709 1478.447174,1104.279709 1507.019302C1104.279709 1535.591431,1115.631638 1562.989899,1135.833649 1583.191910C1156.035660 1603.393921,1183.434128 1614.745850,1212.006256 1614.745850C1240.578384 1614.745850,1267.976852 1603.393921,1288.178864 1583.191910C1308.380875 1562.989899,1319.732803 1535.591431,1319.732803 1507.019302Z" style="stroke:rgb(25.500488%,41.000366%,88.400269%); stroke-width: 2.500000;stroke-linecap: round;stroke-linejoin: round;stroke-miterlimit: 10.000000;fill: none;"></path>
  <path d="M1447.403427 1383.306351C1447.403427 1354.734222,1436.051498 1327.335754,1415.849487 1307.133743C1395.647476 1286.931732,1368.249008 1275.579803,1339.676880 1275.579803C1311.104752 1275.579803,1283.706284 1286.931732,1263.504272 1307.133743C1243.302261 1327.335754,1231.950333 1354.734222,1231.950333 1383.306351C1231.950333 1411.878479,1243.302261 1439.276947,1263.504272 1459.478958C1283.706284 1479.680969,1311.104752 1491.032898,1339.676880 1491.032898C1368.249008 1491.032898,1395.647476 1479.680969,1415.849487 1459.478958C1436.051498 1439.276947,1447.403427 1411.878479,1447.403427 1383.306351Z" style="stroke:rgb(25.500488%,41.000366%,88.400269%); stroke-width: 2.500000;stroke-linecap: round;stroke-linejoin: round;stroke-miterlimit: 10.000000;fill: none;"></path>
  <path d="M1577.098297 1245.125183C1577.098297 1216.553055,1565.746368 1189.154587,1545.544357 1168.952576C1525.342346 1148.750565,1497.943878 1137.398636,1469.371750 1137.398636C1440.799622 1137.398636,1413.401154 1148.750565,1393.199142 1168.952576C1372.997131 1189.154587,1361.645203 1216.553055,1361.645203 1245.125183C1361.645203 1273.697311,1372.997131 1301.095779,1393.199142 1321.297791C1413.401154 1341.499802,1440.799622 1352.851730,1469.371750 1352.851730C1497.943878 1352.851730,1525.342346 1341.499802,1545.544357 1321.297791C1565.746368 1301.095779,1577.098297 1273.697311,1577.098297 1245.125183Z" style="stroke:rgb(25.500488%,41.000366%,88.400269%); stroke-width: 2.500000;stroke-linecap: round;stroke-linejoin: round;stroke-miterlimit: 10.000000;fill: none;"></path>
  <path d="M1727.334137 1130.741974C1727.334137 1102.169846,1715.982208 1074.771378,1695.780197 1054.569366C1675.578186 1034.367355,1648.179718 1023.015427,1619.607590 1023.015427C1591.035461 1023.015427,1563.636993 1034.367355,1543.434982 1054.569366C1523.232971 1074.771378,1511.881042 1102.169846,1511.881042 1130.741974C1511.881042 1159.314102,1523.232971 1186.712570,1543.434982 1206.914581C1563.636993 1227.116592,1591.035461 1238.468521,1619.607590 1238.468521C1648.179718 1238.468521,1675.578186 1227.116592,1695.780197 1206.914581C1715.982208 1186.712570,1727.334137 1159.314102,1727.334137 1130.741974Z" style="stroke:rgb(25.500488%,41.000366%,88.400269%); stroke-width: 2.500000;stroke-linecap: round;stroke-linejoin: round;stroke-miterlimit: 10.000000;fill: none;"></path>
  <path d="M1830.077911 981.206833C1830.077911 952.634705,1818.725983 925.236237,1798.523972 905.034225C1778.321960 884.832214,1750.923492 873.480286,1722.351364 873.480286C1693.779236 873.480286,1666.380768 884.832214,1646.178757 905.034225C1625.976746 925.236237,1614.624817 952.634705,1614.624817 981.206833C1614.624817 1009.778961,1625.976746 1037.177429,1646.178757 1057.379440C1666.380768 1077.581451,1693.779236 1088.933380,1722.351364 1088.933380C1750.923492 1088.933380,1778.321960 1077.581451,1798.523972 1057.379440C1818.725983 1037.177429,1830.077911 1009.778961,1830.077911 981.206833Z" style="stroke:rgb(25.500488%,41.000366%,88.400269%); stroke-width: 2.500000;stroke-linecap: round;stroke-linejoin: round;stroke-miterlimit: 10.000000;fill: none;"></path>
  <path d="M978.918808 1694.262619C978.918808 1665.690491,967.566879 1638.292023,947.364868 1618.090012C927.162857 1597.888000,899.764389 1586.536072,871.192261 1586.536072C842.620132 1586.536072,815.221664 1597.888000,795.019653 1618.090012C774.817642 1638.292023,763.465714 1665.690491,763.465714 1694.262619C763.465714 1722.834747,774.817642 1750.233215,795.019653 1770.435226C815.221664 1790.637238,842.620132 1801.989166,871.192261 1801.989166C899.764389 1801.989166,927.162857 1790.637238,947.364868 1770.435226C967.566879 1750.233215,978.918808 1722.834747,978.918808 1694.262619Z" style="stroke:rgb(25.500488%,41.000366%,88.400269%); stroke-width: 2.500000;stroke-linecap: round;stroke-linejoin: round;stroke-miterlimit: 10.000000;fill: none;"></path>
  <path d="M1110.274597 1659.201538C1110.274597 1630.629410,1098.922668 1603.230942,1078.720657 1583.028931C1058.518646 1562.826920,1031.120178 1551.474991,1002.548050 1551.474991C973.975922 1551.474991,946.577454 1562.826920,926.375443 1583.028931C906.173431 1603.230942,894.821503 1630.629410,894.821503 1659.201538C894.821503 1687.773666,906.173431 1715.172134,926.375443 1735.374146C946.577454 1755.576157,973.975922 1766.928085,1002.548050 1766.928085C1031.120178 1766.928085,1058.518646 1755.576157,1078.720657 1735.374146C1098.922668 1715.172134,1110.274597 1687.773666,1110.274597 1659.201538Z" style="stroke:rgb(25.500488%,41.000366%,88.400269%); stroke-width: 2.500000;stroke-linecap: round;stroke-linejoin: round;stroke-miterlimit: 10.000000;fill: none;"></path>
  <path d="M1145.154022 1506.162888C1145.154022 1477.590759,1133.802094 1450.192291,1113.600082 1429.990280C1093.398071 1409.788269,1065.999603 1398.436340,1037.427475 1398.436340C1008.855347 1398.436340,981.456879 1409.788269,961.254868 1429.990280C941.052856 1450.192291,929.700928 1477.590759,929.700928 1506.162888C929.700928 1534.735016,941.052856 1562.133484,961.254868 1582.335495C981.456879 1602.537506,1008.855347 1613.889435,1037.427475 1613.889435C1065.999603 1613.889435,1093.398071 1602.537506,1113.600082 1582.335495C1133.802094 1562.133484,1145.154022 1534.735016,1145.154022 1506.162888Z" style="stroke:rgb(25.500488%,41.000366%,88.400269%); stroke-width: 2.500000;stroke-linecap: round;stroke-linejoin: round;stroke-miterlimit: 10.000000;fill: none;"></path>
  <path d="M1261.782089 1344.741760C1261.782089 1316.169632,1250.430161 1288.771164,1230.228149 1268.569153C1210.026138 1248.367142,1182.627670 1237.015213,1154.055542 1237.015213C1125.483414 1237.015213,1098.084946 1248.367142,1077.882935 1268.569153C1057.680923 1288.771164,1046.328995 1316.169632,1046.328995 1344.741760C1046.328995 1373.313889,1057.680923 1400.712357,1077.882935 1420.914368C1098.084946 1441.116379,1125.483414 1452.468307,1154.055542 1452.468307C1182.627670 1452.468307,1210.026138 1441.116379,1230.228149 1420.914368C1250.430161 1400.712357,1261.782089 1373.313889,1261.782089 1344.741760Z" style="stroke:rgb(25.500488%,41.000366%,88.400269%); stroke-width: 2.500000;stroke-linecap: round;stroke-linejoin: round;stroke-miterlimit: 10.000000;fill: none;"></path>
  <path d="M1392.489090 1209.726730C1392.489090 1181.154602,1381.137161 1153.756134,1360.935150 1133.554123C1340.733139 1113.352112,1313.334671 1102.000183,1284.762543 1102.000183C1256.190414 1102.000183,1228.791946 1113.352112,1208.589935 1133.554123C1188.387924 1153.756134,1177.035995 1181.154602,1177.035995 1209.726730C1177.035995 1238.298859,1188.387924 1265.697327,1208.589935 1285.899338C1228.791946 1306.101349,1256.190414 1317.453278,1284.762543 1317.453278C1313.334671 1317.453278,1340.733139 1306.101349,1360.935150 1285.899338C1381.137161 1265.697327,1392.489090 1238.298859,1392.489090 1209.726730Z" style="stroke:rgb(25.500488%,41.000366%,88.400269%); stroke-width: 2.500000;stroke-linecap: round;stroke-linejoin: round;stroke-miterlimit: 10.000000;fill: none;"></path>
  <path d="M1538.377991 1077.229050C1538.377991 1048.656921,1527.026062 1021.258453,1506.824051 1001.056442C1486.622040 980.854431,1459.223572 969.502502,1430.651443 969.502502C1402.079315 969.502502,1374.680847 980.854431,1354.478836 1001.056442C1334.276825 1021.258453,1322.924896 1048.656921,1322.924896 1077.229050C1322.924896 1105.801178,1334.276825 1133.199646,1354.478836 1153.401657C1374.680847 1173.603668,1402.079315 1184.955597,1430.651443 1184.955597C1459.223572 1184.955597,1486.622040 1173.603668,1506.824051 1153.401657C1527.026062 1133.199646,1538.377991 1105.801178,1538.377991 1077.229050Z" style="stroke:rgb(25.500488%,41.000366%,88.400269%); stroke-width: 2.500000;stroke-linecap: round;stroke-linejoin: round;stroke-miterlimit: 10.000000;fill: none;"></path>
  <path d="M1648.427231 953.645859C1648.427231 925.073730,1637.075302 897.675262,1616.873291 877.473251C1596.671280 857.271240,1569.272812 845.919312,1540.700684 845.919312C1512.128555 845.919312,1484.730087 857.271240,1464.528076 877.473251C1444.326065 897.675262,1432.974136 925.073730,1432.974136 953.645859C1432.974136 982.217987,1444.326065 1009.616455,1464.528076 1029.818466C1484.730087 1050.020477,1512.128555 1061.372406,1540.700684 1061.372406C1569.272812 1061.372406,1596.671280 1050.020477,1616.873291 1029.818466C1637.075302 1009.616455,1648.427231 982.217987,1648.427231 953.645859Z" style="stroke:rgb(25.500488%,41.000366%,88.400269%); stroke-width: 2.500000;stroke-linecap: round;stroke-linejoin: round;stroke-miterlimit: 10.000000;fill: none;"></path>
  <path d="M1777.512238 810.131561C1777.512238 781.559433,1766.160309 754.160965,1745.958298 733.958954C1725.756287 713.756943,1698.357819 702.405014,1669.785690 702.405014C1641.213562 702.405014,1613.815094 713.756943,1593.613083 733.958954C1573.411072 754.160965,1562.059143 781.559433,1562.059143 810.131561C1562.059143 838.703690,1573.411072 866.102158,1593.613083 886.304169C1613.815094 906.506180,1641.213562 917.858109,1669.785690 917.858109C1698.357819 917.858109,1725.756287 906.506180,1745.958298 886.304169C1766.160309 866.102158,1777.512238 838.703690,1777.512238 810.131561Z" style="stroke:rgb(25.500488%,41.000366%,88.400269%); stroke-width: 2.500000;stroke-linecap: round;stroke-linejoin: round;stroke-miterlimit: 10.000000;fill: none;"></path>
  <path d="M823.025436 1637.856064C823.025436 1609.283936,811.673508 1581.885468,791.471497 1561.683456C771.269485 1541.481445,743.871017 1530.129517,715.298889 1530.129517C686.726761 1530.129517,659.328293 1541.481445,639.126282 1561.683456C618.924271 1581.885468,607.572342 1609.283936,607.572342 1637.856064C607.572342 1666.428192,618.924271 1693.826660,639.126282 1714.028671C659.328293 1734.230682,686.726761 1745.582611,715.298889 1745.582611C743.871017 1745.582611,771.269485 1734.230682,791.471497 1714.028671C811.673508 1693.826660,823.025436 1666.428192,823.025436 1637.856064Z" style="stroke:rgb(25.500488%,41.000366%,88.400269%); stroke-width: 2.500000;stroke-linecap: round;stroke-linejoin: round;stroke-miterlimit: 10.000000;fill: none;"></path>
  <path d="M968.512070 1503.074600C968.512070 1474.502472,957.160141 1447.104004,936.958130 1426.901993C916.756119 1406.699982,889.357651 1395.348053,860.785522 1395.348053C832.213394 1395.348053,804.814926 1406.699982,784.612915 1426.901993C764.410904 1447.104004,753.058975 1474.502472,753.058975 1503.074600C753.058975 1531.646729,764.410904 1559.045197,784.612915 1579.247208C804.814926 1599.449219,832.213394 1610.801147,860.785522 1610.801147C889.357651 1610.801147,916.756119 1599.449219,936.958130 1579.247208C957.160141 1559.045197,968.512070 1531.646729,968.512070 1503.074600Z" style="stroke:rgb(25.500488%,41.000366%,88.400269%); stroke-width: 2.500000;stroke-linecap: round;stroke-linejoin: round;stroke-miterlimit: 10.000000;fill: none;"></path>
  <path d="M1082.895294 1338.162933C1082.895294 1309.590805,1071.543365 1282.192337,1051.341354 1261.990326C1031.139343 1241.788315,1003.740875 1230.436386,975.168747 1230.436386C946.596619 1230.436386,919.198151 1241.788315,898.996140 1261.990326C878.794128 1282.192337,867.442200 1309.590805,867.442200 1338.162933C867.442200 1366.735062,878.794128 1394.133530,898.996140 1414.335541C919.198151 1434.537552,946.596619 1445.889481,975.168747 1445.889481C1003.740875 1445.889481,1031.139343 1434.537552,1051.341354 1414.335541C1071.543365 1394.133530,1082.895294 1366.735062,1082.895294 1338.162933Z" style="stroke:rgb(25.500488%,41.000366%,88.400269%); stroke-width: 2.500000;stroke-linecap: round;stroke-linejoin: round;stroke-miterlimit: 10.000000;fill: none;"></path>
  <path d="M1202.027725 1177.364639C1202.027725 1148.792511,1190.675797 1121.394043,1170.473785 1101.192032C1150.271774 1080.990021,1122.873306 1069.638092,1094.301178 1069.638092C1065.729050 1069.638092,1038.330582 1080.990021,1018.128571 1101.192032C997.926559 1121.394043,986.574631 1148.792511,986.574631 1177.364639C986.574631 1205.936768,997.926559 1233.335236,1018.128571 1253.537247C1038.330582 1273.739258,1065.729050 1285.091187,1094.301178 1285.091187C1122.873306 1285.091187,1150.271774 1273.739258,1170.473785 1253.537247C1190.675797 1233.335236,1202.027725 1205.936768,1202.027725 1177.364639Z" style="stroke:rgb(25.500488%,41.000366%,88.400269%); stroke-width: 2.500000;stroke-linecap: round;stroke-linejoin: round;stroke-miterlimit: 10.000000;fill: none;"></path>
  <path d="M1348.915771 1048.033096C1348.915771 1019.460968,1337.563843 992.062500,1317.361832 971.860489C1297.159821 951.658478,1269.761353 940.306549,1241.189224 940.306549C1212.617096 940.306549,1185.218628 951.658478,1165.016617 971.860489C1144.814606 992.062500,1133.462677 1019.460968,1133.462677 1048.033096C1133.462677 1076.605225,1144.814606 1104.003693,1165.016617 1124.205704C1185.218628 1144.407715,1212.617096 1155.759644,1241.189224 1155.759644C1269.761353 1155.759644,1297.159821 1144.407715,1317.361832 1124.205704C1337.563843 1104.003693,1348.915771 1076.605225,1348.915771 1048.033096Z" style="stroke:rgb(25.500488%,41.000366%,88.400269%); stroke-width: 2.500000;stroke-linecap: round;stroke-linejoin: round;stroke-miterlimit: 10.000000;fill: none;"></path>
  <path d="M1470.267090 907.996368C1470.267090 879.424240,1458.915161 852.025772,1438.713150 831.823761C1418.511139 811.621750,1391.112671 800.269821,1362.540543 800.269821C1333.968414 800.269821,1306.569946 811.621750,1286.367935 831.823761C1266.165924 852.025772,1254.813995 879.424240,1254.813995 907.996368C1254.813995 936.568497,1266.165924 963.966965,1286.367935 984.168976C1306.569946 1004.370987,1333.968414 1015.722916,1362.540543 1015.722916C1391.112671 1015.722916,1418.511139 1004.370987,1438.713150 984.168976C1458.915161 963.966965,1470.267090 936.568497,1470.267090 907.996368Z" style="stroke:rgb(25.500488%,41.000366%,88.400269%); stroke-width: 2.500000;stroke-linecap: round;stroke-linejoin: round;stroke-miterlimit: 10.000000;fill: none;"></path>
  <path d="M1602.206802 772.682907C1602.206802 744.110779,1590.854874 716.712311,1570.652863 696.510300C1550.450851 676.308289,1523.052383 664.956360,1494.480255 664.956360C1465.908127 664.956360,1438.509659 676.308289,1418.307648 696.510300C1398.105637 716.712311,1386.753708 744.110779,1386.753708 772.682907C1386.753708 801.255035,1398.105637 828.653503,1418.307648 848.855515C1438.509659 869.057526,1465.908127 880.409454,1494.480255 880.409454C1523.052383 880.409454,1550.450851 869.057526,1570.652863 848.855515C1590.854874 828.653503,1602.206802 801.255035,1602.206802 772.682907Z" style="stroke:rgb(25.500488%,41.000366%,88.400269%); stroke-width: 2.500000;stroke-linecap: round;stroke-linejoin: round;stroke-miterlimit: 10.000000;fill: none;"></path>
  <path d="M1734.250336 639.315826C1734.250336 610.743698,1722.898407 583.345230,1702.696396 563.143219C1682.494385 542.941208,1655.095917 531.589279,1626.523788 531.589279C1597.951660 531.589279,1570.553192 542.941208,1550.351181 563.143219C1530.149170 583.345230,1518.797241 610.743698,1518.797241 639.315826C1518.797241 667.887955,1530.149170 695.286423,1550.351181 715.488434C1570.553192 735.690445,1597.951660 747.042374,1626.523788 747.042374C1655.095917 747.042374,1682.494385 735.690445,1702.696396 715.488434C1722.898407 695.286423,1734.250336 667.887955,1734.250336 639.315826Z" style="stroke:rgb(25.500488%,41.000366%,88.400269%); stroke-width: 2.500000;stroke-linecap: round;stroke-linejoin: round;stroke-miterlimit: 10.000000;fill: none;"></path>
  <path d="M673.347565 1598.993011C673.347565 1570.420883,661.995636 1543.022415,641.793625 1522.820404C621.591614 1502.618393,594.193146 1491.266464,565.621017 1491.266464C537.048889 1491.266464,509.650421 1502.618393,489.448410 1522.820404C469.246399 1543.022415,457.894470 1570.420883,457.894470 1598.993011C457.894470 1627.565140,469.246399 1654.963608,489.448410 1675.165619C509.650421 1695.367630,537.048889 1706.719559,565.621017 1706.719559C594.193146 1706.719559,621.591614 1695.367630,641.793625 1675.165619C661.995636 1654.963608,673.347565 1627.565140,673.347565 1598.993011Z" style="stroke:rgb(25.500488%,41.000366%,88.400269%); stroke-width: 2.500000;stroke-linecap: round;stroke-linejoin: round;stroke-miterlimit: 10.000000;fill: none;"></path>
  <path d="M800.849487 1454.648270C800.849487 1426.076141,789.497559 1398.677673,769.295547 1378.475662C749.093536 1358.273651,721.695068 1346.921722,693.122940 1346.921722C664.550812 1346.921722,637.152344 1358.273651,616.950333 1378.475662C596.748322 1398.677673,585.396393 1426.076141,585.396393 1454.648270C585.396393 1483.220398,596.748322 1510.618866,616.950333 1530.820877C637.152344 1551.022888,664.550812 1562.374817,693.122940 1562.374817C721.695068 1562.374817,749.093536 1551.022888,769.295547 1530.820877C789.497559 1510.618866,800.849487 1483.220398,800.849487 1454.648270Z" style="stroke:rgb(25.500488%,41.000366%,88.400269%); stroke-width: 2.500000;stroke-linecap: round;stroke-linejoin: round;stroke-miterlimit: 10.000000;fill: none;"></path>
  <path d="M927.196564 1313.352875C927.196564 1284.780746,915.844635 1257.382278,895.642624 1237.180267C875.440613 1216.978256,848.042145 1205.626328,819.470016 1205.626328C790.897888 1205.626328,763.499420 1216.978256,743.297409 1237.180267C723.095398 1257.382278,711.743469 1284.780746,711.743469 1313.352875C711.743469 1341.925003,723.095398 1369.323471,743.297409 1389.525482C763.499420 1409.727493,790.897888 1421.079422,819.470016 1421.079422C848.042145 1421.079422,875.440613 1409.727493,895.642624 1389.525482C915.844635 1369.323471,927.196564 1341.925003,927.196564 1313.352875Z" style="stroke:rgb(25.500488%,41.000366%,88.400269%); stroke-width: 2.500000;stroke-linecap: round;stroke-linejoin: round;stroke-miterlimit: 10.000000;fill: none;"></path>
  <path d="M1042.137756 1150.608185C1042.137756 1122.036057,1030.785828 1094.637589,1010.583817 1074.435577C990.381805 1054.233566,962.983337 1042.881638,934.411209 1042.881638C905.839081 1042.881638,878.440613 1054.233566,858.238602 1074.435577C838.036591 1094.637589,826.684662 1122.036057,826.684662 1150.608185C826.684662 1179.180313,838.036591 1206.578781,858.238602 1226.780792C878.440613 1246.982803,905.839081 1258.334732,934.411209 1258.334732C962.983337 1258.334732,990.381805 1246.982803,1010.583817 1226.780792C1030.785828 1206.578781,1042.137756 1179.180313,1042.137756 1150.608185Z" style="stroke:rgb(25.500488%,41.000366%,88.400269%); stroke-width: 2.500000;stroke-linecap: round;stroke-linejoin: round;stroke-miterlimit: 10.000000;fill: none;"></path>
  <path d="M1166.655212 1005.679520C1166.655212 977.107391,1155.303284 949.708923,1135.101273 929.506912C1114.899261 909.304901,1087.500793 897.952972,1058.928665 897.952972C1030.356537 897.952972,1002.958069 909.304901,982.756058 929.506912C962.554047 949.708923,951.202118 977.107391,951.202118 1005.679520C951.202118 1034.251648,962.554047 1061.650116,982.756058 1081.852127C1002.958069 1102.054138,1030.356537 1113.406067,1058.928665 1113.406067C1087.500793 1113.406067,1114.899261 1102.054138,1135.101273 1081.852127C1155.303284 1061.650116,1166.655212 1034.251648,1166.655212 1005.679520Z" style="stroke:rgb(25.500488%,41.000366%,88.400269%); stroke-width: 2.500000;stroke-linecap: round;stroke-linejoin: round;stroke-miterlimit: 10.000000;fill: none;"></path>
  <path d="M1292.833603 869.561539C1292.833603 840.989410,1281.481674 813.590942,1261.279663 793.388931C1241.077652 773.186920,1213.679184 761.834991,1185.107056 761.834991C1156.534927 761.834991,1129.136459 773.186920,1108.934448 793.388931C1088.732437 813.590942,1077.380508 840.989410,1077.380508 869.561539C1077.380508 898.133667,1088.732437 925.532135,1108.934448 945.734146C1129.136459 965.936157,1156.534927 977.288086,1185.107056 977.288086C1213.679184 977.288086,1241.077652 965.936157,1261.279663 945.734146C1281.481674 925.532135,1292.833603 898.133667,1292.833603 869.561539Z" style="stroke:rgb(25.500488%,41.000366%,88.400269%); stroke-width: 2.500000;stroke-linecap: round;stroke-linejoin: round;stroke-miterlimit: 10.000000;fill: none;"></path>
  <path d="M1422.762039 728.292084C1422.762039 699.719955,1411.410110 672.321487,1391.208099 652.119476C1371.006088 631.917465,1343.607620 620.565536,1315.035492 620.565536C1286.463364 620.565536,1259.064896 631.917465,1238.862885 652.119476C1218.660873 672.321487,1207.308945 699.719955,1207.308945 728.292084C1207.308945 756.864212,1218.660873 784.262680,1238.862885 804.464691C1259.064896 824.666702,1286.463364 836.018631,1315.035492 836.018631C1343.607620 836.018631,1371.006088 824.666702,1391.208099 804.464691C1411.410110 784.262680,1422.762039 756.864212,1422.762039 728.292084Z" style="stroke:rgb(25.500488%,41.000366%,88.400269%); stroke-width: 2.500000;stroke-linecap: round;stroke-linejoin: round;stroke-miterlimit: 10.000000;fill: none;"></path>
  <path d="M1554.182724 592.835876C1554.182724 564.263748,1542.830795 536.865280,1522.628784 516.663269C1502.426773 496.461258,1475.028305 485.109329,1446.456177 485.109329C1417.884048 485.109329,1390.485580 496.461258,1370.283569 516.663269C1350.081558 536.865280,1338.729630 564.263748,1338.729630 592.835876C1338.729630 621.408005,1350.081558 648.806473,1370.283569 669.008484C1390.485580 689.210495,1417.884048 700.562424,1446.456177 700.562424C1475.028305 700.562424,1502.426773 689.210495,1522.628784 669.008484C1542.830795 648.806473,1554.182724 621.408005,1554.182724 592.835876Z" style="stroke:rgb(25.500488%,41.000366%,88.400269%); stroke-width: 2.500000;stroke-linecap: round;stroke-linejoin: round;stroke-miterlimit: 10.000000;fill: none;"></path>
  <path d="M1692.895905 462.349472C1692.895905 433.777344,1681.543976 406.378876,1661.341965 386.176865C1641.139954 365.974854,1613.741486 354.622925,1585.169357 354.622925C1556.597229 354.622925,1529.198761 365.974854,1508.996750 386.176865C1488.794739 406.378876,1477.442810 433.777344,1477.442810 462.349472C1477.442810 490.921600,1488.794739 518.320068,1508.996750 538.522079C1529.198761 558.724091,1556.597229 570.076019,1585.169357 570.076019C1613.741486 570.076019,1641.139954 558.724091,1661.341965 538.522079C1681.543976 518.320068,1692.895905 490.921600,1692.895905 462.349472Z" style="stroke:rgb(25.500488%,41.000366%,88.400269%); stroke-width: 2.500000;stroke-linecap: round;stroke-linejoin: round;stroke-miterlimit: 10.000000;fill: none;"></path>
  <path d="M505.503311 1542.288010C505.503311 1513.715881,494.151382 1486.317413,473.949371 1466.115402C453.747360 1445.913391,426.348892 1434.561462,397.776764 1434.561462C369.204636 1434.561462,341.806168 1445.913391,321.604156 1466.115402C301.402145 1486.317413,290.050217 1513.715881,290.050217 1542.288010C290.050217 1570.860138,301.402145 1598.258606,321.604156 1618.460617C341.806168 1638.662628,369.204636 1650.014557,397.776764 1650.014557C426.348892 1650.014557,453.747360 1638.662628,473.949371 1618.460617C494.151382 1598.258606,505.503311 1570.860138,505.503311 1542.288010Z" style="stroke:rgb(25.500488%,41.000366%,88.400269%); stroke-width: 2.500000;stroke-linecap: round;stroke-linejoin: round;stroke-miterlimit: 10.000000;fill: none;"></path>
  <path d="M636.586624 1408.401886C636.586624 1379.829758,625.234695 1352.431290,605.032684 1332.229279C584.830673 1312.027267,557.432205 1300.675339,528.860077 1300.675339C500.287949 1300.675339,472.889481 1312.027267,452.687469 1332.229279C432.485458 1352.431290,421.133530 1379.829758,421.133530 1408.401886C421.133530 1436.974014,432.485458 1464.372482,452.687469 1484.574493C472.889481 1504.776505,500.287949 1516.128433,528.860077 1516.128433C557.432205 1516.128433,584.830673 1504.776505,605.032684 1484.574493C625.234695 1464.372482,636.586624 1436.974014,636.586624 1408.401886Z" style="stroke:rgb(25.500488%,41.000366%,88.400269%); stroke-width: 2.500000;stroke-linecap: round;stroke-linejoin: round;stroke-miterlimit: 10.000000;fill: none;"></path>
  <path d="M761.532288 1263.421310C761.532288 1234.849182,750.180359 1207.450714,729.978348 1187.248703C709.776337 1167.046692,682.377869 1155.694763,653.805740 1155.694763C625.233612 1155.694763,597.835144 1167.046692,577.633133 1187.248703C557.431122 1207.450714,546.079193 1234.849182,546.079193 1263.421310C546.079193 1291.993439,557.431122 1319.391907,577.633133 1339.593918C597.835144 1359.795929,625.233612 1371.147858,653.805740 1371.147858C682.377869 1371.147858,709.776337 1359.795929,729.978348 1339.593918C750.180359 1319.391907,761.532288 1291.993439,761.532288 1263.421310Z" style="stroke:rgb(25.500488%,41.000366%,88.400269%); stroke-width: 2.500000;stroke-linecap: round;stroke-linejoin: round;stroke-miterlimit: 10.000000;fill: none;"></path>
  <path d="M886.841278 1121.892349C886.841278 1093.320221,875.489349 1065.921753,855.287338 1045.719742C835.085327 1025.517731,807.686859 1014.165802,779.114731 1014.165802C750.542603 1014.165802,723.144135 1025.517731,702.942123 1045.719742C682.740112 1065.921753,671.388184 1093.320221,671.388184 1121.892349C671.388184 1150.464478,682.740112 1177.862946,702.942123 1198.064957C723.144135 1218.266968,750.542603 1229.618896,779.114731 1229.618896C807.686859 1229.618896,835.085327 1218.266968,855.287338 1198.064957C875.489349 1177.862946,886.841278 1150.464478,886.841278 1121.892349Z" style="stroke:rgb(25.500488%,41.000366%,88.400269%); stroke-width: 2.500000;stroke-linecap: round;stroke-linejoin: round;stroke-miterlimit: 10.000000;fill: none;"></path>
  <path d="M1001.847351 959.614807C1001.847351 931.042679,990.495422 903.644211,970.293411 883.442200C950.091400 863.240189,922.692932 851.888260,894.120804 851.888260C865.548676 851.888260,838.150208 863.240189,817.948196 883.442200C797.746185 903.644211,786.394257 931.042679,786.394257 959.614807C786.394257 988.186935,797.746185 1015.585403,817.948196 1035.787415C838.150208 1055.989426,865.548676 1067.341354,894.120804 1067.341354C922.692932 1067.341354,950.091400 1055.989426,970.293411 1035.787415C990.495422 1015.585403,1001.847351 988.186935,1001.847351 959.614807Z" style="stroke:rgb(25.500488%,41.000366%,88.400269%); stroke-width: 2.500000;stroke-linecap: round;stroke-linejoin: round;stroke-miterlimit: 10.000000;fill: none;"></path>
  <path d="M1130.543076 815.750168C1130.543076 787.178040,1119.191147 759.779572,1098.989136 739.577560C1078.787125 719.375549,1051.388657 708.023621,1022.816528 708.023621C994.244400 708.023621,966.845932 719.375549,946.643921 739.577560C926.441910 759.779572,915.089981 787.178040,915.089981 815.750168C915.089981 844.322296,926.441910 871.720764,946.643921 891.922775C966.845932 912.124786,994.244400 923.476715,1022.816528 923.476715C1051.388657 923.476715,1078.787125 912.124786,1098.989136 891.922775C1119.191147 871.720764,1130.543076 844.322296,1130.543076 815.750168Z" style="stroke:rgb(25.500488%,41.000366%,88.400269%); stroke-width: 2.500000;stroke-linecap: round;stroke-linejoin: round;stroke-miterlimit: 10.000000;fill: none;"></path>
  <path d="M1261.276031 676.660690C1261.276031 648.088562,1249.924103 620.690094,1229.722092 600.488083C1209.520081 580.286072,1182.121613 568.934143,1153.549484 568.934143C1124.977356 568.934143,1097.578888 580.286072,1077.376877 600.488083C1057.174866 620.690094,1045.822937 648.088562,1045.822937 676.660690C1045.822937 705.232819,1057.174866 732.631287,1077.376877 752.833298C1097.578888 773.035309,1124.977356 784.387238,1153.549484 784.387238C1182.121613 784.387238,1209.520081 773.035309,1229.722092 752.833298C1249.924103 732.631287,1261.276031 705.232819,1261.276031 676.660690Z" style="stroke:rgb(25.500488%,41.000366%,88.400269%); stroke-width: 2.500000;stroke-linecap: round;stroke-linejoin: round;stroke-miterlimit: 10.000000;fill: none;"></path>
  <path d="M1394.850723 536.455276C1394.850723 507.883148,1383.498795 480.484680,1363.296783 460.282669C1343.094772 440.080658,1315.696304 428.728729,1287.124176 428.728729C1258.552048 428.728729,1231.153580 440.080658,1210.951569 460.282669C1190.749557 480.484680,1179.397629 507.883148,1179.397629 536.455276C1179.397629 565.027405,1190.749557 592.425873,1210.951569 612.627884C1231.153580 632.829895,1258.552048 644.181824,1287.124176 644.181824C1315.696304 644.181824,1343.094772 632.829895,1363.296783 612.627884C1383.498795 592.425873,1394.850723 565.027405,1394.850723 536.455276Z" style="stroke:rgb(25.500488%,41.000366%,88.400269%); stroke-width: 2.500000;stroke-linecap: round;stroke-linejoin: round;stroke-miterlimit: 10.000000;fill: none;"></path>
  <path d="M1531.656433 399.701462C1531.656433 371.129333,1520.304504 343.730865,1500.102493 323.528854C1479.900482 303.326843,1452.502014 291.974915,1423.929886 291.974915C1395.357758 291.974915,1367.959290 303.326843,1347.757278 323.528854C1327.555267 343.730865,1316.203339 371.129333,1316.203339 399.701462C1316.203339 428.273590,1327.555267 455.672058,1347.757278 475.874069C1367.959290 496.076080,1395.357758 507.428009,1423.929886 507.428009C1452.502014 507.428009,1479.900482 496.076080,1500.102493 475.874069C1520.304504 455.672058,1531.656433 428.273590,1531.656433 399.701462Z" style="stroke:rgb(25.500488%,41.000366%,88.400269%); stroke-width: 2.500000;stroke-linecap: round;stroke-linejoin: round;stroke-miterlimit: 10.000000;fill: none;"></path>
  <path d="M451.536240 1375.261246C451.536240 1346.689117,440.184311 1319.290649,419.982300 1299.088638C399.780289 1278.886627,372.381821 1267.534698,343.809692 1267.534698C315.237564 1267.534698,287.839096 1278.886627,267.637085 1299.088638C247.435074 1319.290649,236.083145 1346.689117,236.083145 1375.261246C236.083145 1403.833374,247.435074 1431.231842,267.637085 1451.433853C287.839096 1471.635864,315.237564 1482.987793,343.809692 1482.987793C372.381821 1482.987793,399.780289 1471.635864,419.982300 1451.433853C440.184311 1431.231842,451.536240 1403.833374,451.536240 1375.261246Z" style="stroke:rgb(25.500488%,41.000366%,88.400269%); stroke-width: 2.500000;stroke-linecap: round;stroke-linejoin: round;stroke-miterlimit: 10.000000;fill: none;"></path>
  <path d="M579.972443 1235.613800C579.972443 1207.041672,568.620514 1179.643204,548.418503 1159.441193C528.216492 1139.239182,500.818024 1127.887253,472.245895 1127.887253C443.673767 1127.887253,416.275299 1139.239182,396.073288 1159.441193C375.871277 1179.643204,364.519348 1207.041672,364.519348 1235.613800C364.519348 1264.185928,375.871277 1291.584396,396.073288 1311.786407C416.275299 1331.988419,443.673767 1343.340347,472.245895 1343.340347C500.818024 1343.340347,528.216492 1331.988419,548.418503 1311.786407C568.620514 1291.584396,579.972443 1264.185928,579.972443 1235.613800Z" style="stroke:rgb(25.500488%,41.000366%,88.400269%); stroke-width: 2.500000;stroke-linecap: round;stroke-linejoin: round;stroke-miterlimit: 10.000000;fill: none;"></path>
  <path d="M703.244202 1088.803619C703.244202 1060.231491,691.892273 1032.833023,671.690262 1012.631012C651.488251 992.429001,624.089783 981.077072,595.517654 981.077072C566.945526 981.077072,539.547058 992.429001,519.345047 1012.631012C499.143036 1032.833023,487.791107 1060.231491,487.791107 1088.803619C487.791107 1117.375748,499.143036 1144.774216,519.345047 1164.976227C539.547058 1185.178238,566.945526 1196.530167,595.517654 1196.530167C624.089783 1196.530167,651.488251 1185.178238,671.690262 1164.976227C691.892273 1144.774216,703.244202 1117.375748,703.244202 1088.803619Z" style="stroke:rgb(25.500488%,41.000366%,88.400269%); stroke-width: 2.500000;stroke-linecap: round;stroke-linejoin: round;stroke-miterlimit: 10.000000;fill: none;"></path>
  <path d="M828.293686 947.209778C828.293686 918.637650,816.941757 891.239182,796.739746 871.037170C776.537735 850.835159,749.139267 839.483231,720.567139 839.483231C691.995010 839.483231,664.596542 850.835159,644.394531 871.037170C624.192520 891.239182,612.840591 918.637650,612.840591 947.209778C612.840591 975.781906,624.192520 1003.180374,644.394531 1023.382385C664.596542 1043.584396,691.995010 1054.936325,720.567139 1054.936325C749.139267 1054.936325,776.537735 1043.584396,796.739746 1023.382385C816.941757 1003.180374,828.293686 975.781906,828.293686 947.209778Z" style="stroke:rgb(25.500488%,41.000366%,88.400269%); stroke-width: 2.500000;stroke-linecap: round;stroke-linejoin: round;stroke-miterlimit: 10.000000;fill: none;"></path>
  <path d="M948.269547 786.177917C948.269547 757.605789,936.917618 730.207321,916.715607 710.005310C896.513596 689.803299,869.115128 678.451370,840.542999 678.451370C811.970871 678.451370,784.572403 689.803299,764.370392 710.005310C744.168381 730.207321,732.816452 757.605789,732.816452 786.177917C732.816452 814.750046,744.168381 842.148514,764.370392 862.350525C784.572403 882.552536,811.970871 893.904465,840.542999 893.904465C869.115128 893.904465,896.513596 882.552536,916.715607 862.350525C936.917618 842.148514,948.269547 814.750046,948.269547 786.177917Z" style="stroke:rgb(25.500488%,41.000366%,88.400269%); stroke-width: 2.500000;stroke-linecap: round;stroke-linejoin: round;stroke-miterlimit: 10.000000;fill: none;"></path>
  <path d="M1070.697876 650.968246C1070.697876 622.396118,1059.345947 594.997650,1039.143936 574.795639C1018.941925 554.593628,991.543457 543.241699,962.971329 543.241699C934.399200 543.241699,907.000732 554.593628,886.798721 574.795639C866.596710 594.997650,855.244781 622.396118,855.244781 650.968246C855.244781 679.540375,866.596710 706.938843,886.798721 727.140854C907.000732 747.342865,934.399200 758.694794,962.971329 758.694794C991.543457 758.694794,1018.941925 747.342865,1039.143936 727.140854C1059.345947 706.938843,1070.697876 679.540375,1070.697876 650.968246Z" style="stroke:rgb(25.500488%,41.000366%,88.400269%); stroke-width: 2.500000;stroke-linecap: round;stroke-linejoin: round;stroke-miterlimit: 10.000000;fill: none;"></path>
  <path d="M1204.558044 513.695404C1204.558044 485.123276,1193.206116 457.724808,1173.004105 437.522797C1152.802094 417.320786,1125.403625 405.968857,1096.831497 405.968857C1068.259369 405.968857,1040.860901 417.320786,1020.658890 437.522797C1000.456879 457.724808,989.104950 485.123276,989.104950 513.695404C989.104950 542.267532,1000.456879 569.666000,1020.658890 589.868011C1040.860901 610.070023,1068.259369 621.421951,1096.831497 621.421951C1125.403625 621.421951,1152.802094 610.070023,1173.004105 589.868011C1193.206116 569.666000,1204.558044 542.267532,1204.558044 513.695404Z" style="stroke:rgb(25.500488%,41.000366%,88.400269%); stroke-width: 2.500000;stroke-linecap: round;stroke-linejoin: round;stroke-miterlimit: 10.000000;fill: none;"></path>
  <path d="M1336.770248 379.990952C1336.770248 351.418823,1325.418320 324.020355,1305.216309 303.818344C1285.014297 283.616333,1257.615829 272.264404,1229.043701 272.264404C1200.471573 272.264404,1173.073105 283.616333,1152.871094 303.818344C1132.669083 324.020355,1121.317154 351.418823,1121.317154 379.990952C1121.317154 408.563080,1132.669083 435.961548,1152.871094 456.163559C1173.073105 476.365570,1200.471573 487.717499,1229.043701 487.717499C1257.615829 487.717499,1285.014297 476.365570,1305.216309 456.163559C1325.418320 435.961548,1336.770248 408.563080,1336.770248 379.990952Z" style="stroke:rgb(25.500488%,41.000366%,88.400269%); stroke-width: 2.500000;stroke-linecap: round;stroke-linejoin: round;stroke-miterlimit: 10.000000;fill: none;"></path>
  <path d="M1466.672745 242.302887C1466.672745 213.730759,1455.320816 186.332291,1435.118805 166.130280C1414.916794 145.928268,1387.518326 134.576340,1358.946198 134.576340C1330.374069 134.576340,1302.975601 145.928268,1282.773590 166.130280C1262.571579 186.332291,1251.219650 213.730759,1251.219650 242.302887C1251.219650 270.875015,1262.571579 298.273483,1282.773590 318.475494C1302.975601 338.677505,1330.374069 350.029434,1358.946198 350.029434C1387.518326 350.029434,1414.916794 338.677505,1435.118805 318.475494C1455.320816 298.273483,1466.672745 270.875015,1466.672745 242.302887Z" style="stroke:rgb(25.500488%,41.000366%,88.400269%); stroke-width: 2.500000;stroke-linecap: round;stroke-linejoin: round;stroke-miterlimit: 10.000000;fill: none;"></path>
  <path d="M314.185532 1305.722992C314.185532 1277.150864,302.833603 1249.752396,282.631592 1229.550385C262.429581 1209.348373,235.031113 1197.996445,206.458984 1197.996445C177.886856 1197.996445,150.488388 1209.348373,130.286377 1229.550385C110.084366 1249.752396,98.732437 1277.150864,98.732437 1305.722992C98.732437 1334.295120,110.084366 1361.693588,130.286377 1381.895599C150.488388 1402.097610,177.886856 1413.449539,206.458984 1413.449539C235.031113 1413.449539,262.429581 1402.097610,282.631592 1381.895599C302.833603 1361.693588,314.185532 1334.295120,314.185532 1305.722992Z" style="stroke:rgb(25.500488%,41.000366%,88.400269%); stroke-width: 2.500000;stroke-linecap: round;stroke-linejoin: round;stroke-miterlimit: 10.000000;fill: none;"></path>
  <path d="M439.364777 1170.370590C439.364777 1141.798462,428.012848 1114.399994,407.810837 1094.197983C387.608826 1073.995972,360.210358 1062.644043,331.638229 1062.644043C303.066101 1062.644043,275.667633 1073.995972,255.465622 1094.197983C235.263611 1114.399994,223.911682 1141.798462,223.911682 1170.370590C223.911682 1198.942719,235.263611 1226.341187,255.465622 1246.543198C275.667633 1266.745209,303.066101 1278.097137,331.638229 1278.097137C360.210358 1278.097137,387.608826 1266.745209,407.810837 1246.543198C428.012848 1226.341187,439.364777 1198.942719,439.364777 1170.370590Z" style="stroke:rgb(25.500488%,41.000366%,88.400269%); stroke-width: 2.500000;stroke-linecap: round;stroke-linejoin: round;stroke-miterlimit: 10.000000;fill: none;"></path>
  <path d="M557.199600 1033.500000C557.199600 1004.927872,545.847672 977.529404,525.645660 957.327393C505.443649 937.125381,478.045181 925.773453,449.473053 925.773453C420.900925 925.773453,393.502457 937.125381,373.300446 957.327393C353.098434 977.529404,341.746506 1004.927872,341.746506 1033.500000C341.746506 1062.072128,353.098434 1089.470596,373.300446 1109.672607C393.502457 1129.874619,420.900925 1141.226547,449.473053 1141.226547C478.045181 1141.226547,505.443649 1129.874619,525.645660 1109.672607C545.847672 1089.470596,557.199600 1062.072128,557.199600 1033.500000Z" style="stroke:rgb(25.500488%,41.000366%,88.400269%); stroke-width: 2.500000;stroke-linecap: round;stroke-linejoin: round;stroke-miterlimit: 10.000000;fill: none;"></path>
  <path d="M659.190765 899.925323C659.190765 871.353195,647.838837 843.954727,627.636826 823.752716C607.434814 803.550705,580.036346 792.198776,551.464218 792.198776C522.892090 792.198776,495.493622 803.550705,475.291611 823.752716C455.089600 843.954727,443.737671 871.353195,443.737671 899.925323C443.737671 928.497452,455.089600 955.895920,475.291611 976.097931C495.493622 996.299942,522.892090 1007.651871,551.464218 1007.651871C580.036346 1007.651871,607.434814 996.299942,627.636826 976.097931C647.838837 955.895920,659.190765 928.497452,659.190765 899.925323Z" style="stroke:rgb(25.500488%,41.000366%,88.400269%); stroke-width: 2.500000;stroke-linecap: round;stroke-linejoin: round;stroke-miterlimit: 10.000000;fill: none;"></path>
  <path d="M789.235992 759.590149C789.235992 731.018021,777.884064 703.619553,757.682053 683.417542C737.480042 663.215530,710.081573 651.863602,681.509445 651.863602C652.937317 651.863602,625.538849 663.215530,605.336838 683.417542C585.134827 703.619553,573.782898 731.018021,573.782898 759.590149C573.782898 788.162277,585.134827 815.560745,605.336838 835.762756C625.538849 855.964767,652.937317 867.316696,681.509445 867.316696C710.081573 867.316696,737.480042 855.964767,757.682053 835.762756C777.884064 815.560745,789.235992 788.162277,789.235992 759.590149Z" style="stroke:rgb(25.500488%,41.000366%,88.400269%); stroke-width: 2.500000;stroke-linecap: round;stroke-linejoin: round;stroke-miterlimit: 10.000000;fill: none;"></path>
  <path d="M899.233337 596.300461C899.233337 567.728333,887.881409 540.329865,867.679398 520.127853C847.477386 499.925842,820.078918 488.573914,791.506790 488.573914C762.934662 488.573914,735.536194 499.925842,715.334183 520.127853C695.132172 540.329865,683.780243 567.728333,683.780243 596.300461C683.780243 624.872589,695.132172 652.271057,715.334183 672.473068C735.536194 692.675079,762.934662 704.027008,791.506790 704.027008C820.078918 704.027008,847.477386 692.675079,867.679398 672.473068C887.881409 652.271057,899.233337 624.872589,899.233337 596.300461Z" style="stroke:rgb(25.500488%,41.000366%,88.400269%); stroke-width: 2.500000;stroke-linecap: round;stroke-linejoin: round;stroke-miterlimit: 10.000000;fill: none;"></path>
  <path d="M1025.243042 472.860016C1025.243042 444.287888,1013.891113 416.889420,993.689102 396.687408C973.487091 376.485397,946.088623 365.133469,917.516495 365.133469C888.944366 365.133469,861.545898 376.485397,841.343887 396.687408C821.141876 416.889420,809.789948 444.287888,809.789948 472.860016C809.789948 501.432144,821.141876 528.830612,841.343887 549.032623C861.545898 569.234634,888.944366 580.586563,917.516495 580.586563C946.088623 580.586563,973.487091 569.234634,993.689102 549.032623C1013.891113 528.830612,1025.243042 501.432144,1025.243042 472.860016Z" style="stroke:rgb(25.500488%,41.000366%,88.400269%); stroke-width: 2.500000;stroke-linecap: round;stroke-linejoin: round;stroke-miterlimit: 10.000000;fill: none;"></path>
  <path d="M1156.066818 334.717773C1156.066818 306.145645,1144.714890 278.747177,1124.512878 258.545166C1104.310867 238.343155,1076.912399 226.991226,1048.340271 226.991226C1019.768143 226.991226,992.369675 238.343155,972.167664 258.545166C951.965652 278.747177,940.613724 306.145645,940.613724 334.717773C940.613724 363.289902,951.965652 390.688370,972.167664 410.890381C992.369675 431.092392,1019.768143 442.444321,1048.340271 442.444321C1076.912399 442.444321,1104.310867 431.092392,1124.512878 410.890381C1144.714890 390.688370,1156.066818 363.289902,1156.066818 334.717773Z" style="stroke:rgb(25.500488%,41.000366%,88.400269%); stroke-width: 2.500000;stroke-linecap: round;stroke-linejoin: round;stroke-miterlimit: 10.000000;fill: none;"></path>
  <path d="M1287.098221 200.675949C1287.098221 172.103821,1275.746292 144.705353,1255.544281 124.503342C1235.342270 104.301331,1207.943802 92.949402,1179.371674 92.949402C1150.799545 92.949402,1123.401077 104.301331,1103.199066 124.503342C1082.997055 144.705353,1071.645126 172.103821,1071.645126 200.675949C1071.645126 229.248077,1082.997055 256.646545,1103.199066 276.848557C1123.401077 297.050568,1150.799545 308.402496,1179.371674 308.402496C1207.943802 308.402496,1235.342270 297.050568,1255.544281 276.848557C1275.746292 256.646545,1287.098221 229.248077,1287.098221 200.675949Z" style="stroke:rgb(25.500488%,41.000366%,88.400269%); stroke-width: 2.500000;stroke-linecap: round;stroke-linejoin: round;stroke-miterlimit: 10.000000;fill: none;"></path>
  <path d="M273.155502 1112.588577C273.155502 1084.016449,261.803574 1056.617981,241.601562 1036.415970C221.399551 1016.213959,194.001083 1004.862030,165.428955 1004.862030C136.856827 1004.862030,109.458359 1016.213959,89.256348 1036.415970C69.054337 1056.617981,57.702408 1084.016449,57.702408 1112.588577C57.702408 1141.160706,69.054337 1168.559174,89.256348 1188.761185C109.458359 1208.963196,136.856827 1220.315125,165.428955 1220.315125C194.001083 1220.315125,221.399551 1208.963196,241.601562 1188.761185C261.803574 1168.559174,273.155502 1141.160706,273.155502 1112.588577Z" style="stroke:rgb(25.500488%,41.000366%,88.400269%); stroke-width: 2.500000;stroke-linecap: round;stroke-linejoin: round;stroke-miterlimit: 10.000000;fill: none;"></path>
  <path d="M391.055222 975.990479C391.055222 947.418350,379.703293 920.019882,359.501282 899.817871C339.299271 879.615860,311.900803 868.263931,283.328674 868.263931C254.756546 868.263931,227.358078 879.615860,207.156067 899.817871C186.954056 920.019882,175.602127 947.418350,175.602127 975.990479C175.602127 1004.562607,186.954056 1031.961075,207.156067 1052.163086C227.358078 1072.365097,254.756546 1083.717026,283.328674 1083.717026C311.900803 1083.717026,339.299271 1072.365097,359.501282 1052.163086C379.703293 1031.961075,391.055222 1004.562607,391.055222 975.990479Z" style="stroke:rgb(25.500488%,41.000366%,88.400269%); stroke-width: 2.500000;stroke-linecap: round;stroke-linejoin: round;stroke-miterlimit: 10.000000;fill: none;"></path>
  <path d="M485.066162 843.518753C485.066162 814.946625,473.714233 787.548157,453.512222 767.346146C433.310211 747.144135,405.911743 735.792206,377.339615 735.792206C348.767487 735.792206,321.369019 747.144135,301.167007 767.346146C280.964996 787.548157,269.613068 814.946625,269.613068 843.518753C269.613068 872.090881,280.964996 899.489349,301.167007 919.691360C321.369019 939.893372,348.767487 951.245300,377.339615 951.245300C405.911743 951.245300,433.310211 939.893372,453.512222 919.691360C473.714233 899.489349,485.066162 872.090881,485.066162 843.518753Z" style="stroke:rgb(25.500488%,41.000366%,88.400269%); stroke-width: 2.500000;stroke-linecap: round;stroke-linejoin: round;stroke-miterlimit: 10.000000;fill: none;"></path>
  <path d="M618.342407 713.797928C618.342407 685.225800,606.990479 657.827332,586.788467 637.625320C566.586456 617.423309,539.187988 606.071381,510.615860 606.071381C482.043732 606.071381,454.645264 617.423309,434.443253 637.625320C414.241241 657.827332,402.889313 685.225800,402.889313 713.797928C402.889313 742.370056,414.241241 769.768524,434.443253 789.970535C454.645264 810.172546,482.043732 821.524475,510.615860 821.524475C539.187988 821.524475,566.586456 810.172546,586.788467 789.970535C606.990479 769.768524,618.342407 742.370056,618.342407 713.797928Z" style="stroke:rgb(25.500488%,41.000366%,88.400269%); stroke-width: 2.500000;stroke-linecap: round;stroke-linejoin: round;stroke-miterlimit: 10.000000;fill: none;"></path>
  <path d="M738.396118 571.191956C738.396118 542.619827,727.044189 515.221359,706.842178 495.019348C686.640167 474.817337,659.241699 463.465408,630.669571 463.465408C602.097443 463.465408,574.698975 474.817337,554.496964 495.019348C534.294952 515.221359,522.943024 542.619827,522.943024 571.191956C522.943024 599.764084,534.294952 627.162552,554.496964 647.364563C574.698975 667.566574,602.097443 678.918503,630.669571 678.918503C659.241699 678.918503,686.640167 667.566574,706.842178 647.364563C727.044189 627.162552,738.396118 599.764084,738.396118 571.191956Z" style="stroke:rgb(25.500488%,41.000366%,88.400269%); stroke-width: 2.500000;stroke-linecap: round;stroke-linejoin: round;stroke-miterlimit: 10.000000;fill: none;"></path>
  <path d="M849.405594 408.096924C849.405594 379.524796,838.053665 352.126328,817.851654 331.924316C797.649643 311.722305,770.251175 300.370377,741.679047 300.370377C713.106918 300.370377,685.708450 311.722305,665.506439 331.924316C645.304428 352.126328,633.952499 379.524796,633.952499 408.096924C633.952499 436.669052,645.304428 464.067520,665.506439 484.269531C685.708450 504.471542,713.106918 515.823471,741.679047 515.823471C770.251175 515.823471,797.649643 504.471542,817.851654 484.269531C838.053665 464.067520,849.405594 436.669052,849.405594 408.096924Z" style="stroke:rgb(25.500488%,41.000366%,88.400269%); stroke-width: 2.500000;stroke-linecap: round;stroke-linejoin: round;stroke-miterlimit: 10.000000;fill: none;"></path>
  <path d="M979.398911 291.261230C979.398911 262.689102,968.046982 235.290634,947.844971 215.088623C927.642960 194.886612,900.244492 183.534683,871.672363 183.534683C843.100235 183.534683,815.701767 194.886612,795.499756 215.088623C775.297745 235.290634,763.945816 262.689102,763.945816 291.261230C763.945816 319.833359,775.297745 347.231827,795.499756 367.433838C815.701767 387.635849,843.100235 398.987778,871.672363 398.987778C900.244492 398.987778,927.642960 387.635849,947.844971 367.433838C968.046982 347.231827,979.398911 319.833359,979.398911 291.261230Z" style="stroke:rgb(25.500488%,41.000366%,88.400269%); stroke-width: 2.500000;stroke-linecap: round;stroke-linejoin: round;stroke-miterlimit: 10.000000;fill: none;"></path>
  <path d="M1112.765991 153.832687C1112.765991 125.260559,1101.414062 97.862091,1081.212051 77.660080C1061.010040 57.458069,1033.611572 46.106140,1005.039444 46.106140C976.467316 46.106140,949.068848 57.458069,928.866837 77.660080C908.664825 97.862091,897.312897 125.260559,897.312897 153.832687C897.312897 182.404816,908.664825 209.803284,928.866837 230.005295C949.068848 250.207306,976.467316 261.559235,1005.039444 261.559235C1033.611572 261.559235,1061.010040 250.207306,1081.212051 230.005295C1101.414062 209.803284,1112.765991 182.404816,1112.765991 153.832687Z" style="stroke:rgb(25.500488%,41.000366%,88.400269%); stroke-width: 2.500000;stroke-linecap: round;stroke-linejoin: round;stroke-miterlimit: 10.000000;fill: none;"></path>
  <path d="M216.009308 925.267395C216.009308 896.695267,204.657379 869.296799,184.455368 849.094788C164.253357 828.892776,136.854889 817.540848,108.282761 817.540848C79.710632 817.540848,52.312164 828.892776,32.110153 849.094788C11.908142 869.296799,0.556213 896.695267,0.556213 925.267395C0.556213 953.839523,11.908142 981.237991,32.110153 1001.440002C52.312164 1021.642014,79.710632 1032.993942,108.282761 1032.993942C136.854889 1032.993942,164.253357 1021.642014,184.455368 1001.440002C204.657379 981.237991,216.009308 953.839523,216.009308 925.267395Z" style="stroke:rgb(25.500488%,41.000366%,88.400269%); stroke-width: 2.500000;stroke-linecap: round;stroke-linejoin: round;stroke-miterlimit: 10.000000;fill: none;"></path>
  <path d="M302.896439 793.911591C302.896439 765.339462,291.544510 737.940994,271.342499 717.738983C251.140488 697.536972,223.742020 686.185043,195.169891 686.185043C166.597763 686.185043,139.199295 697.536972,118.997284 717.738983C98.795273 737.940994,87.443344 765.339462,87.443344 793.911591C87.443344 822.483719,98.795273 849.882187,118.997284 870.084198C139.199295 890.286209,166.597763 901.638138,195.169891 901.638138C223.742020 901.638138,251.140488 890.286209,271.342499 870.084198C291.544510 849.882187,302.896439 822.483719,302.896439 793.911591Z" style="stroke:rgb(25.500488%,41.000366%,88.400269%); stroke-width: 2.500000;stroke-linecap: round;stroke-linejoin: round;stroke-miterlimit: 10.000000;fill: none;"></path>
  <path d="M441.946991 666.500488C441.946991 637.928360,430.595062 610.529892,410.393051 590.327881C390.191040 570.125870,362.792572 558.773941,334.220444 558.773941C305.648315 558.773941,278.249847 570.125870,258.047836 590.327881C237.845825 610.529892,226.493896 637.928360,226.493896 666.500488C226.493896 695.072617,237.845825 722.471085,258.047836 742.673096C278.249847 762.875107,305.648315 774.227036,334.220444 774.227036C362.792572 774.227036,390.191040 762.875107,410.393051 742.673096C430.595062 722.471085,441.946991 695.072617,441.946991 666.500488Z" style="stroke:rgb(25.500488%,41.000366%,88.400269%); stroke-width: 2.500000;stroke-linecap: round;stroke-linejoin: round;stroke-miterlimit: 10.000000;fill: none;"></path>
  <path d="M563.648666 528.838379C563.648666 500.266251,552.296738 472.867783,532.094727 452.665771C511.892715 432.463760,484.494247 421.111832,455.922119 421.111832C427.349991 421.111832,399.951523 432.463760,379.749512 452.665771C359.547501 472.867783,348.195572 500.266251,348.195572 528.838379C348.195572 557.410507,359.547501 584.808975,379.749512 605.010986C399.951523 625.212997,427.349991 636.564926,455.922119 636.564926C484.494247 636.564926,511.892715 625.212997,532.094727 605.010986C552.296738 584.808975,563.648666 557.410507,563.648666 528.838379Z" style="stroke:rgb(25.500488%,41.000366%,88.400269%); stroke-width: 2.500000;stroke-linecap: round;stroke-linejoin: round;stroke-miterlimit: 10.000000;fill: none;"></path>
  <path d="M687.218872 386.920135C687.218872 358.348007,675.866943 330.949539,655.664932 310.747528C635.462921 290.545517,608.064453 279.193588,579.492325 279.193588C550.920197 279.193588,523.521729 290.545517,503.319717 310.747528C483.117706 330.949539,471.765778 358.348007,471.765778 386.920135C471.765778 415.492264,483.117706 442.890732,503.319717 463.092743C523.521729 483.294754,550.920197 494.646683,579.492325 494.646683C608.064453 494.646683,635.462921 483.294754,655.664932 463.092743C675.866943 442.890732,687.218872 415.492264,687.218872 386.920135Z" style="stroke:rgb(25.500488%,41.000366%,88.400269%); stroke-width: 2.500000;stroke-linecap: round;stroke-linejoin: round;stroke-miterlimit: 10.000000;fill: none;"></path>
  <path d="M800.265579 222.683212C800.265579 194.111084,788.913651 166.712616,768.711639 146.510605C748.509628 126.308594,721.111160 114.956665,692.539032 114.956665C663.966904 114.956665,636.568436 126.308594,616.366425 146.510605C596.164413 166.712616,584.812485 194.111084,584.812485 222.683212C584.812485 251.255341,596.164413 278.653809,616.366425 298.855820C636.568436 319.057831,663.966904 330.409760,692.539032 330.409760C721.111160 330.409760,748.509628 319.057831,768.711639 298.855820C788.913651 278.653809,800.265579 251.255341,800.265579 222.683212Z" style="stroke:rgb(25.500488%,41.000366%,88.400269%); stroke-width: 2.500000;stroke-linecap: round;stroke-linejoin: round;stroke-miterlimit: 10.000000;fill: none;"></path>
  <path d="M938.628403 108.040466C938.628403 79.468338,927.276474 52.069870,907.074463 31.867859C886.872452 11.665848,859.473984 0.313919,830.901855 0.313919C802.329727 0.313919,774.931259 11.665848,754.729248 31.867859C734.527237 52.069870,723.175308 79.468338,723.175308 108.040466C723.175308 136.612595,734.527237 164.011063,754.729248 184.213074C774.931259 204.415085,802.329727 215.767014,830.901855 215.767014C859.473984 215.767014,886.872452 204.415085,907.074463 184.213074C927.276474 164.011063,938.628403 136.612595,938.628403 108.040466Z" style="stroke:rgb(25.500488%,41.000366%,88.400269%); stroke-width: 2.500000;stroke-linecap: round;stroke-linejoin: round;stroke-miterlimit: 10.000000;fill: none;"></path>
  <path d="M261.593903 618.554260C261.593903 589.982132,250.241974 562.583664,230.039963 542.381653C209.837952 522.179642,182.439484 510.827713,153.867355 510.827713C125.295227 510.827713,97.896759 522.179642,77.694748 542.381653C57.492737 562.583664,46.140808 589.982132,46.140808 618.554260C46.140808 647.126389,57.492737 674.524857,77.694748 694.726868C97.896759 714.928879,125.295227 726.280807,153.867355 726.280807C182.439484 726.280807,209.837952 714.928879,230.039963 694.726868C250.241974 674.524857,261.593903 647.126389,261.593903 618.554260Z" style="stroke:rgb(25.500488%,41.000366%,88.400269%); stroke-width: 2.500000;stroke-linecap: round;stroke-linejoin: round;stroke-miterlimit: 10.000000;fill: none;"></path>
  <path d="M384.281754 484.395660C384.281754 455.823532,372.929825 428.425064,352.727814 408.223053C332.525803 388.021042,305.127335 376.669113,276.555206 376.669113C247.983078 376.669113,220.584610 388.021042,200.382599 408.223053C180.180588 428.425064,168.828659 455.823532,168.828659 484.395660C168.828659 512.967789,180.180588 540.366257,200.382599 560.568268C220.584610 580.770279,247.983078 592.122208,276.555206 592.122208C305.127335 592.122208,332.525803 580.770279,352.727814 560.568268C372.929825 540.366257,384.281754 512.967789,384.281754 484.395660Z" style="stroke:rgb(25.500488%,41.000366%,88.400269%); stroke-width: 2.500000;stroke-linecap: round;stroke-linejoin: round;stroke-miterlimit: 10.000000;fill: none;"></path>
  <path d="M505.555222 351.599518C505.555222 323.027390,494.203293 295.628922,474.001282 275.426910C453.799271 255.224899,426.400803 243.872971,397.828674 243.872971C369.256546 243.872971,341.858078 255.224899,321.656067 275.426910C301.454056 295.628922,290.102127 323.027390,290.102127 351.599518C290.102127 380.171646,301.454056 407.570114,321.656067 427.772125C341.858078 447.974136,369.256546 459.326065,397.828674 459.326065C426.400803 459.326065,453.799271 447.974136,474.001282 427.772125C494.203293 407.570114,505.555222 380.171646,505.555222 351.599518Z" style="stroke:rgb(25.500488%,41.000366%,88.400269%); stroke-width: 2.500000;stroke-linecap: round;stroke-linejoin: round;stroke-miterlimit: 10.000000;fill: none;"></path>
  <path d="M633.290726 210.654480C633.290726 182.082352,621.938797 154.683884,601.736786 134.481873C581.534775 114.279861,554.136307 102.927933,525.564178 102.927933C496.992050 102.927933,469.593582 114.279861,449.391571 134.481873C429.189560 154.683884,417.837631 182.082352,417.837631 210.654480C417.837631 239.226608,429.189560 266.625076,449.391571 286.827087C469.593582 307.029099,496.992050 318.381027,525.564178 318.381027C554.136307 318.381027,581.534775 307.029099,601.736786 286.827087C621.938797 266.625076,633.290726 239.226608,633.290726 210.654480Z" style="stroke:rgb(25.500488%,41.000366%,88.400269%); stroke-width: 2.500000;stroke-linecap: round;stroke-linejoin: round;stroke-miterlimit: 10.000000;fill: none;"></path>
</svg>
