<?xml version="1.0"?>
<!-- Created by MetaPost 2.00 on 2022.03.02:1201 -->
<svg version="1.1" xmlns="http://www.w3.org/2000/svg" xmlns:xlink="http://www.w3.org/1999/xlink" width="1812.570740" height="1742.163086" viewBox="0 0 1812.570740 1742.163086">
<!-- Original BoundingBox: -912.319199 -865.177475 900.251541 876.985611 -->
  <path d="M912.000000 25.606476L452.248215 160.608521L138.450195 522.729065L70.261444 997.026917L269.312912 1432.889938L672.411591 1691.942307L1151.588409 1691.942307L1554.687088 1432.889938L1753.738556 997.026917L1685.549805 522.729065L1371.751785 160.608521L912.000000 25.606476Z" style="fill: rgb(100.000000%,100.000000%,100.000000%);stroke: none;"></path>
  <path d="M912.000000 25.606476L452.248215 160.608521" style="stroke:rgb(0.000000%,0.000000%,0.000000%); stroke-width: 2.500000;stroke-linecap: round;stroke-linejoin: round;stroke-miterlimit: 10.000000;fill: none;"></path>
  <path d="M452.248215 160.608521L138.450195 522.729065" style="stroke:rgb(0.000000%,0.000000%,0.000000%); stroke-width: 2.500000;stroke-linecap: round;stroke-linejoin: round;stroke-miterlimit: 10.000000;fill: none;"></path>
  <path d="M138.450195 522.729065L70.261444 997.026917" style="stroke:rgb(0.000000%,0.000000%,0.000000%); stroke-width: 2.500000;stroke-linecap: round;stroke-linejoin: round;stroke-miterlimit: 10.000000;fill: none;"></path>
  <path d="M70.261444 997.026917L269.312912 1432.889938" style="stroke:rgb(0.000000%,0.000000%,0.000000%); stroke-width: 2.500000;stroke-linecap: round;stroke-linejoin: round;stroke-miterlimit: 10.000000;fill: none;"></path>
  <path d="M269.312912 1432.889938L672.411591 1691.942307" style="stroke:rgb(0.000000%,0.000000%,0.000000%); stroke-width: 2.500000;stroke-linecap: round;stroke-linejoin: round;stroke-miterlimit: 10.000000;fill: none;"></path>
  <path d="M672.411591 1691.942307L1151.588409 1691.942307" style="stroke:rgb(0.000000%,0.000000%,0.000000%); stroke-width: 2.500000;stroke-linecap: round;stroke-linejoin: round;stroke-miterlimit: 10.000000;fill: none;"></path>
  <path d="M1151.588409 1691.942307L1554.687088 1432.889938" style="stroke:rgb(0.000000%,0.000000%,0.000000%); stroke-width: 2.500000;stroke-linecap: round;stroke-linejoin: round;stroke-miterlimit: 10.000000;fill: none;"></path>
  <path d="M1554.687088 1432.889938L1753.738556 997.026917" style="stroke:rgb(0.000000%,0.000000%,0.000000%); stroke-width: 2.500000;stroke-linecap: round;stroke-linejoin: round;stroke-miterlimit: 10.000000;fill: none;"></path>
  <path d="M1753.738556 997.026917L1685.549805 522.729065" style="stroke:rgb(0.000000%,0.000000%,0.000000%); stroke-width: 2.500000;stroke-linecap: round;stroke-linejoin: round;stroke-miterlimit: 10.000000;fill: none;"></path>
  <path d="M1685.549805 522.729065L1371.751785 160.608521" style="stroke:rgb(0.000000%,0.000000%,0.000000%); stroke-width: 2.500000;stroke-linecap: round;stroke-linejoin: round;stroke-miterlimit: 10.000000;fill: none;"></path>
  <path d="M1371.751785 160.608521L912.000000 25.606476" style="stroke:rgb(0.000000%,0.000000%,0.000000%); stroke-width: 2.500000;stroke-linecap: round;stroke-linejoin: round;stroke-miterlimit: 10.000000;fill: none;"></path>
  <path d="M1807.666702 698.462708C1807.666702 669.955963,1796.340759 642.620209,1776.184982 622.464417C1756.029190 602.308640,1728.693436 590.982697,1700.186691 590.982697C1671.679947 590.982697,1644.344193 602.308640,1624.188400 622.464417C1604.032623 642.620209,1592.706680 669.955963,1592.706680 698.462708C1592.706680 726.969452,1604.032623 754.305206,1624.188400 774.460999C1644.344193 794.616776,1671.679947 805.942719,1700.186691 805.942719C1728.693436 805.942719,1756.029190 794.616776,1776.184982 774.460999C1796.340759 754.305206,1807.666702 726.969452,1807.666702 698.462708Z" style="stroke:rgb(25.500488%,41.000366%,88.400269%); stroke-width: 2.500000;stroke-linecap: round;stroke-linejoin: round;stroke-miterlimit: 10.000000;fill: none;"></path>
  <path d="M1706.583862 543.270035C1706.583862 514.763290,1695.257919 487.427536,1675.102142 467.271744C1654.946350 447.115967,1627.610596 435.790024,1599.103851 435.790024C1570.597107 435.790024,1543.261353 447.115967,1523.105560 467.271744C1502.949783 487.427536,1491.623840 514.763290,1491.623840 543.270035C1491.623840 571.776779,1502.949783 599.112534,1523.105560 619.268326C1543.261353 639.424103,1570.597107 650.750046,1599.103851 650.750046C1627.610596 650.750046,1654.946350 639.424103,1675.102142 619.268326C1695.257919 599.112534,1706.583862 571.776779,1706.583862 543.270035Z" style="stroke:rgb(25.500488%,41.000366%,88.400269%); stroke-width: 2.500000;stroke-linecap: round;stroke-linejoin: round;stroke-miterlimit: 10.000000;fill: none;"></path>
  <path d="M1613.533142 411.953171C1613.533142 383.446426,1602.207199 356.110672,1582.051422 335.954880C1561.895630 315.799103,1534.559875 304.473160,1506.053131 304.473160C1477.546387 304.473160,1450.210632 315.799103,1430.054840 335.954880C1409.899063 356.110672,1398.573120 383.446426,1398.573120 411.953171C1398.573120 440.459915,1409.899063 467.795670,1430.054840 487.951462C1450.210632 508.107239,1477.546387 519.433182,1506.053131 519.433182C1534.559875 519.433182,1561.895630 508.107239,1582.051422 487.951462C1602.207199 467.795670,1613.533142 440.459915,1613.533142 411.953171Z" style="stroke:rgb(25.500488%,41.000366%,88.400269%); stroke-width: 2.500000;stroke-linecap: round;stroke-linejoin: round;stroke-miterlimit: 10.000000;fill: none;"></path>
  <path d="M1498.942307 283.257446C1498.942307 254.750702,1487.616364 227.414948,1467.460587 207.259155C1447.304794 187.103378,1419.969040 175.777435,1391.462296 175.777435C1362.955551 175.777435,1335.619797 187.103378,1315.464005 207.259155C1295.308228 227.414948,1283.982285 254.750702,1283.982285 283.257446C1283.982285 311.764191,1295.308228 339.099945,1315.464005 359.255737C1335.619797 379.411514,1362.955551 390.737457,1391.462296 390.737457C1419.969040 390.737457,1447.304794 379.411514,1467.460587 359.255737C1487.616364 339.099945,1498.942307 311.764191,1498.942307 283.257446Z" style="stroke:rgb(25.500488%,41.000366%,88.400269%); stroke-width: 2.500000;stroke-linecap: round;stroke-linejoin: round;stroke-miterlimit: 10.000000;fill: none;"></path>
  <path d="M1386.531433 158.194992C1386.531433 129.688248,1375.205490 102.352493,1355.049713 82.196701C1334.893921 62.040924,1307.558167 50.714981,1279.051422 50.714981C1250.544678 50.714981,1223.208923 62.040924,1203.053131 82.196701C1182.897354 102.352493,1171.571411 129.688248,1171.571411 158.194992C1171.571411 186.701736,1182.897354 214.037491,1203.053131 234.193283C1223.208923 254.349060,1250.544678 265.675003,1279.051422 265.675003C1307.558167 265.675003,1334.893921 254.349060,1355.049713 234.193283C1375.205490 214.037491,1386.531433 186.701736,1386.531433 158.194992Z" style="stroke:rgb(25.500488%,41.000366%,88.400269%); stroke-width: 2.500000;stroke-linecap: round;stroke-linejoin: round;stroke-miterlimit: 10.000000;fill: none;"></path>
  <path d="M1811.001541 1011.728699C1811.001541 983.221954,1799.675598 955.886200,1779.519821 935.730408C1759.364029 915.574631,1732.028275 904.248688,1703.521530 904.248688C1675.014786 904.248688,1647.679031 915.574631,1627.523239 935.730408C1607.367462 955.886200,1596.041519 983.221954,1596.041519 1011.728699C1596.041519 1040.235443,1607.367462 1067.571198,1627.523239 1087.726990C1647.679031 1107.882767,1675.014786 1119.208710,1703.521530 1119.208710C1732.028275 1119.208710,1759.364029 1107.882767,1779.519821 1087.726990C1799.675598 1067.571198,1811.001541 1040.235443,1811.001541 1011.728699Z" style="stroke:rgb(25.500488%,41.000366%,88.400269%); stroke-width: 2.500000;stroke-linecap: round;stroke-linejoin: round;stroke-miterlimit: 10.000000;fill: none;"></path>
  <path d="M1749.495407 870.160812C1749.495407 841.654068,1738.169464 814.318314,1718.013687 794.162521C1697.857895 774.006744,1670.522141 762.680801,1642.015396 762.680801C1613.508652 762.680801,1586.172897 774.006744,1566.017105 794.162521C1545.861328 814.318314,1534.535385 841.654068,1534.535385 870.160812C1534.535385 898.667557,1545.861328 926.003311,1566.017105 946.159103C1586.172897 966.314880,1613.508652 977.640823,1642.015396 977.640823C1670.522141 977.640823,1697.857895 966.314880,1718.013687 946.159103C1738.169464 926.003311,1749.495407 898.667557,1749.495407 870.160812Z" style="stroke:rgb(25.500488%,41.000366%,88.400269%); stroke-width: 2.500000;stroke-linecap: round;stroke-linejoin: round;stroke-miterlimit: 10.000000;fill: none;"></path>
  <path d="M1631.660583 722.714798C1631.660583 694.208054,1620.334641 666.872299,1600.178864 646.716507C1580.023071 626.560730,1552.687317 615.234787,1524.180573 615.234787C1495.673828 615.234787,1468.338074 626.560730,1448.182281 646.716507C1428.026505 666.872299,1416.700562 694.208054,1416.700562 722.714798C1416.700562 751.221542,1428.026505 778.557297,1448.182281 798.713089C1468.338074 818.868866,1495.673828 830.194809,1524.180573 830.194809C1552.687317 830.194809,1580.023071 818.868866,1600.178864 798.713089C1620.334641 778.557297,1631.660583 751.221542,1631.660583 722.714798Z" style="stroke:rgb(25.500488%,41.000366%,88.400269%); stroke-width: 2.500000;stroke-linecap: round;stroke-linejoin: round;stroke-miterlimit: 10.000000;fill: none;"></path>
  <path d="M1526.814697 575.943542C1526.814697 547.436798,1515.488754 520.101044,1495.332977 499.945251C1475.177185 479.789474,1447.841431 468.463531,1419.334686 468.463531C1390.827942 468.463531,1363.492188 479.789474,1343.336395 499.945251C1323.180618 520.101044,1311.854675 547.436798,1311.854675 575.943542C1311.854675 604.450287,1323.180618 631.786041,1343.336395 651.941833C1363.492188 672.097610,1390.827942 683.423553,1419.334686 683.423553C1447.841431 683.423553,1475.177185 672.097610,1495.332977 651.941833C1515.488754 631.786041,1526.814697 604.450287,1526.814697 575.943542Z" style="stroke:rgb(25.500488%,41.000366%,88.400269%); stroke-width: 2.500000;stroke-linecap: round;stroke-linejoin: round;stroke-miterlimit: 10.000000;fill: none;"></path>
  <path d="M1420.619308 433.285675C1420.619308 404.778931,1409.293365 377.443176,1389.137589 357.287384C1368.981796 337.131607,1341.646042 325.805664,1313.139297 325.805664C1284.632553 325.805664,1257.296799 337.131607,1237.141006 357.287384C1216.985229 377.443176,1205.659286 404.778931,1205.659286 433.285675C1205.659286 461.792419,1216.985229 489.128174,1237.141006 509.283966C1257.296799 529.439743,1284.632553 540.765686,1313.139297 540.765686C1341.646042 540.765686,1368.981796 529.439743,1389.137589 509.283966C1409.293365 489.128174,1420.619308 461.792419,1420.619308 433.285675Z" style="stroke:rgb(25.500488%,41.000366%,88.400269%); stroke-width: 2.500000;stroke-linecap: round;stroke-linejoin: round;stroke-miterlimit: 10.000000;fill: none;"></path>
  <path d="M1303.342453 282.725433C1303.342453 254.218689,1292.016510 226.882935,1271.860733 206.727142C1251.704941 186.571365,1224.369186 175.245422,1195.862442 175.245422C1167.355698 175.245422,1140.019943 186.571365,1119.864151 206.727142C1099.708374 226.882935,1088.382431 254.218689,1088.382431 282.725433C1088.382431 311.232178,1099.708374 338.567932,1119.864151 358.723724C1140.019943 378.879501,1167.355698 390.205444,1195.862442 390.205444C1224.369186 390.205444,1251.704941 378.879501,1271.860733 358.723724C1292.016510 338.567932,1303.342453 311.232178,1303.342453 282.725433Z" style="stroke:rgb(25.500488%,41.000366%,88.400269%); stroke-width: 2.500000;stroke-linecap: round;stroke-linejoin: round;stroke-miterlimit: 10.000000;fill: none;"></path>
  <path d="M1186.947952 125.248993C1186.947952 96.742249,1175.622009 69.406494,1155.466232 49.250702C1135.310440 29.094925,1107.974686 17.768982,1079.467941 17.768982C1050.961197 17.768982,1023.625443 29.094925,1003.469650 49.250702C983.313873 69.406494,971.987930 96.742249,971.987930 125.248993C971.987930 153.755737,983.313873 181.091492,1003.469650 201.247284C1023.625443 221.403061,1050.961197 232.729004,1079.467941 232.729004C1107.974686 232.729004,1135.310440 221.403061,1155.466232 201.247284C1175.622009 181.091492,1186.947952 153.755737,1186.947952 125.248993Z" style="stroke:rgb(25.500488%,41.000366%,88.400269%); stroke-width: 2.500000;stroke-linecap: round;stroke-linejoin: round;stroke-miterlimit: 10.000000;fill: none;"></path>
  <path d="M1724.192261 1189.408737C1724.192261 1160.901993,1712.866318 1133.566238,1692.710541 1113.410446C1672.554749 1093.254669,1645.218994 1081.928726,1616.712250 1081.928726C1588.205505 1081.928726,1560.869751 1093.254669,1540.713959 1113.410446C1520.558182 1133.566238,1509.232239 1160.901993,1509.232239 1189.408737C1509.232239 1217.915482,1520.558182 1245.251236,1540.713959 1265.407028C1560.869751 1285.562805,1588.205505 1296.888748,1616.712250 1296.888748C1645.218994 1296.888748,1672.554749 1285.562805,1692.710541 1265.407028C1712.866318 1245.251236,1724.192261 1217.915482,1724.192261 1189.408737Z" style="stroke:rgb(25.500488%,41.000366%,88.400269%); stroke-width: 2.500000;stroke-linecap: round;stroke-linejoin: round;stroke-miterlimit: 10.000000;fill: none;"></path>
  <path d="M1633.139847 1034.864868C1633.139847 1006.358124,1621.813904 979.022369,1601.658127 958.866577C1581.502335 938.710800,1554.166580 927.384857,1525.659836 927.384857C1497.153091 927.384857,1469.817337 938.710800,1449.661545 958.866577C1429.505768 979.022369,1418.179825 1006.358124,1418.179825 1034.864868C1418.179825 1063.371613,1429.505768 1090.707367,1449.661545 1110.863159C1469.817337 1131.018936,1497.153091 1142.344879,1525.659836 1142.344879C1554.166580 1142.344879,1581.502335 1131.018936,1601.658127 1110.863159C1621.813904 1090.707367,1633.139847 1063.371613,1633.139847 1034.864868Z" style="stroke:rgb(25.500488%,41.000366%,88.400269%); stroke-width: 2.500000;stroke-linecap: round;stroke-linejoin: round;stroke-miterlimit: 10.000000;fill: none;"></path>
  <path d="M1561.771973 889.430130C1561.771973 860.923386,1550.446030 833.587631,1530.290253 813.431839C1510.134460 793.276062,1482.798706 781.950119,1454.291962 781.950119C1425.785217 781.950119,1398.449463 793.276062,1378.293671 813.431839C1358.137894 833.587631,1346.811951 860.923386,1346.811951 889.430130C1346.811951 917.936874,1358.137894 945.272629,1378.293671 965.428421C1398.449463 985.584198,1425.785217 996.910141,1454.291962 996.910141C1482.798706 996.910141,1510.134460 985.584198,1530.290253 965.428421C1550.446030 945.272629,1561.771973 917.936874,1561.771973 889.430130Z" style="stroke:rgb(25.500488%,41.000366%,88.400269%); stroke-width: 2.500000;stroke-linecap: round;stroke-linejoin: round;stroke-miterlimit: 10.000000;fill: none;"></path>
  <path d="M1443.067749 744.177063C1443.067749 715.670319,1431.741806 688.334564,1411.586029 668.178772C1391.430237 648.022995,1364.094482 636.697052,1335.587738 636.697052C1307.080994 636.697052,1279.745239 648.022995,1259.589447 668.178772C1239.433670 688.334564,1228.107727 715.670319,1228.107727 744.177063C1228.107727 772.683807,1239.433670 800.019562,1259.589447 820.175354C1279.745239 840.331131,1307.080994 851.657074,1335.587738 851.657074C1364.094482 851.657074,1391.430237 840.331131,1411.586029 820.175354C1431.741806 800.019562,1443.067749 772.683807,1443.067749 744.177063Z" style="stroke:rgb(25.500488%,41.000366%,88.400269%); stroke-width: 2.500000;stroke-linecap: round;stroke-linejoin: round;stroke-miterlimit: 10.000000;fill: none;"></path>
  <path d="M1341.245270 590.437714C1341.245270 561.930969,1329.919327 534.595215,1309.763550 514.439423C1289.607758 494.283646,1262.272003 482.957703,1233.765259 482.957703C1205.258514 482.957703,1177.922760 494.283646,1157.766968 514.439423C1137.611191 534.595215,1126.285248 561.930969,1126.285248 590.437714C1126.285248 618.944458,1137.611191 646.280212,1157.766968 666.436005C1177.922760 686.591782,1205.258514 697.917725,1233.765259 697.917725C1262.272003 697.917725,1289.607758 686.591782,1309.763550 666.436005C1329.919327 646.280212,1341.245270 618.944458,1341.245270 590.437714Z" style="stroke:rgb(25.500488%,41.000366%,88.400269%); stroke-width: 2.500000;stroke-linecap: round;stroke-linejoin: round;stroke-miterlimit: 10.000000;fill: none;"></path>
  <path d="M1228.367264 438.787491C1228.367264 410.280746,1217.041321 382.944992,1196.885544 362.789200C1176.729752 342.633423,1149.393997 331.307480,1120.887253 331.307480C1092.380508 331.307480,1065.044754 342.633423,1044.888962 362.789200C1024.733185 382.944992,1013.407242 410.280746,1013.407242 438.787491C1013.407242 467.294235,1024.733185 494.629990,1044.888962 514.785782C1065.044754 534.941559,1092.380508 546.267502,1120.887253 546.267502C1149.393997 546.267502,1176.729752 534.941559,1196.885544 514.785782C1217.041321 494.629990,1228.367264 467.294235,1228.367264 438.787491Z" style="stroke:rgb(25.500488%,41.000366%,88.400269%); stroke-width: 2.500000;stroke-linecap: round;stroke-linejoin: round;stroke-miterlimit: 10.000000;fill: none;"></path>
  <path d="M1114.567963 280.804977C1114.567963 252.298233,1103.242020 224.962479,1083.086243 204.806686C1062.930450 184.650909,1035.594696 173.324966,1007.087952 173.324966C978.581207 173.324966,951.245453 184.650909,931.089661 204.806686C910.933884 224.962479,899.607941 252.298233,899.607941 280.804977C899.607941 309.311722,910.933884 336.647476,931.089661 356.803268C951.245453 376.959045,978.581207 388.284988,1007.087952 388.284988C1035.594696 388.284988,1062.930450 376.959045,1083.086243 356.803268C1103.242020 336.647476,1114.567963 309.311722,1114.567963 280.804977Z" style="stroke:rgb(25.500488%,41.000366%,88.400269%); stroke-width: 2.500000;stroke-linecap: round;stroke-linejoin: round;stroke-miterlimit: 10.000000;fill: none;"></path>
  <path d="M1016.755051 107.744400C1016.755051 79.237656,1005.429108 51.901901,985.273331 31.746109C965.117538 11.590332,937.781784 0.264389,909.275040 0.264389C880.768295 0.264389,853.432541 11.590332,833.276749 31.746109C813.120972 51.901901,801.795029 79.237656,801.795029 107.744400C801.795029 136.251144,813.120972 163.586899,833.276749 183.742691C853.432541 203.898468,880.768295 215.224411,909.275040 215.224411C937.781784 215.224411,965.117538 203.898468,985.273331 183.742691C1005.429108 163.586899,1016.755051 136.251144,1016.755051 107.744400Z" style="stroke:rgb(25.500488%,41.000366%,88.400269%); stroke-width: 2.500000;stroke-linecap: round;stroke-linejoin: round;stroke-miterlimit: 10.000000;fill: none;"></path>
  <path d="M1650.605499 1375.172791C1650.605499 1346.666046,1639.279556 1319.330292,1619.123779 1299.174500C1598.967987 1279.018723,1571.632233 1267.692780,1543.125488 1267.692780C1514.618744 1267.692780,1487.282990 1279.018723,1467.127197 1299.174500C1446.971420 1319.330292,1435.645477 1346.666046,1435.645477 1375.172791C1435.645477 1403.679535,1446.971420 1431.015289,1467.127197 1451.171082C1487.282990 1471.326859,1514.618744 1482.652802,1543.125488 1482.652802C1571.632233 1482.652802,1598.967987 1471.326859,1619.123779 1451.171082C1639.279556 1431.015289,1650.605499 1403.679535,1650.605499 1375.172791Z" style="stroke:rgb(25.500488%,41.000366%,88.400269%); stroke-width: 2.500000;stroke-linecap: round;stroke-linejoin: round;stroke-miterlimit: 10.000000;fill: none;"></path>
  <path d="M1553.947464 1220.486191C1553.947464 1191.979446,1542.621521 1164.643692,1522.465744 1144.487900C1502.309952 1124.332123,1474.974197 1113.006180,1446.467453 1113.006180C1417.960709 1113.006180,1390.624954 1124.332123,1370.469162 1144.487900C1350.313385 1164.643692,1338.987442 1191.979446,1338.987442 1220.486191C1338.987442 1248.992935,1350.313385 1276.328690,1370.469162 1296.484482C1390.624954 1316.640259,1417.960709 1327.966202,1446.467453 1327.966202C1474.974197 1327.966202,1502.309952 1316.640259,1522.465744 1296.484482C1542.621521 1276.328690,1553.947464 1248.992935,1553.947464 1220.486191Z" style="stroke:rgb(25.500488%,41.000366%,88.400269%); stroke-width: 2.500000;stroke-linecap: round;stroke-linejoin: round;stroke-miterlimit: 10.000000;fill: none;"></path>
  <path d="M1462.583618 1066.604095C1462.583618 1038.097351,1451.257675 1010.761597,1431.101898 990.605804C1410.946106 970.450027,1383.610352 959.124084,1355.103607 959.124084C1326.596863 959.124084,1299.261108 970.450027,1279.105316 990.605804C1258.949539 1010.761597,1247.623596 1038.097351,1247.623596 1066.604095C1247.623596 1095.110840,1258.949539 1122.446594,1279.105316 1142.602386C1299.261108 1162.758163,1326.596863 1174.084106,1355.103607 1174.084106C1383.610352 1174.084106,1410.946106 1162.758163,1431.101898 1142.602386C1451.257675 1122.446594,1462.583618 1095.110840,1462.583618 1066.604095Z" style="stroke:rgb(25.500488%,41.000366%,88.400269%); stroke-width: 2.500000;stroke-linecap: round;stroke-linejoin: round;stroke-miterlimit: 10.000000;fill: none;"></path>
  <path d="M1381.366989 921.376984C1381.366989 892.870239,1370.041046 865.534485,1349.885269 845.378693C1329.729477 825.222916,1302.393723 813.896973,1273.886978 813.896973C1245.380234 813.896973,1218.044479 825.222916,1197.888687 845.378693C1177.732910 865.534485,1166.406967 892.870239,1166.406967 921.376984C1166.406967 949.883728,1177.732910 977.219482,1197.888687 997.375275C1218.044479 1017.531052,1245.380234 1028.856995,1273.886978 1028.856995C1302.393723 1028.856995,1329.729477 1017.531052,1349.885269 997.375275C1370.041046 977.219482,1381.366989 949.883728,1381.366989 921.376984Z" style="stroke:rgb(25.500488%,41.000366%,88.400269%); stroke-width: 2.500000;stroke-linecap: round;stroke-linejoin: round;stroke-miterlimit: 10.000000;fill: none;"></path>
  <path d="M1268.112671 764.406616C1268.112671 735.899872,1256.786728 708.564117,1236.630951 688.408325C1216.475159 668.252548,1189.139404 656.926605,1160.632660 656.926605C1132.125916 656.926605,1104.790161 668.252548,1084.634369 688.408325C1064.478592 708.564117,1053.152649 735.899872,1053.152649 764.406616C1053.152649 792.913361,1064.478592 820.249115,1084.634369 840.404907C1104.790161 860.560684,1132.125916 871.886627,1160.632660 871.886627C1189.139404 871.886627,1216.475159 860.560684,1236.630951 840.404907C1256.786728 820.249115,1268.112671 792.913361,1268.112671 764.406616Z" style="stroke:rgb(25.500488%,41.000366%,88.400269%); stroke-width: 2.500000;stroke-linecap: round;stroke-linejoin: round;stroke-miterlimit: 10.000000;fill: none;"></path>
  <path d="M1159.724350 612.198425C1159.724350 583.691681,1148.398407 556.355927,1128.242630 536.200134C1108.086838 516.044357,1080.751083 504.718414,1052.244339 504.718414C1023.737595 504.718414,996.401840 516.044357,976.246048 536.200134C956.090271 556.355927,944.764328 583.691681,944.764328 612.198425C944.764328 640.705170,956.090271 668.040924,976.246048 688.196716C996.401840 708.352493,1023.737595 719.678436,1052.244339 719.678436C1080.751083 719.678436,1108.086838 708.352493,1128.242630 688.196716C1148.398407 668.040924,1159.724350 640.705170,1159.724350 612.198425Z" style="stroke:rgb(25.500488%,41.000366%,88.400269%); stroke-width: 2.500000;stroke-linecap: round;stroke-linejoin: round;stroke-miterlimit: 10.000000;fill: none;"></path>
  <path d="M1050.466644 453.463318C1050.466644 424.956573,1039.140701 397.620819,1018.984924 377.465027C998.829132 357.309250,971.493378 345.983307,942.986633 345.983307C914.479889 345.983307,887.144135 357.309250,866.988342 377.465027C846.832565 397.620819,835.506622 424.956573,835.506622 453.463318C835.506622 481.970062,846.832565 509.305817,866.988342 529.461609C887.144135 549.617386,914.479889 560.943329,942.986633 560.943329C971.493378 560.943329,998.829132 549.617386,1018.984924 529.461609C1039.140701 509.305817,1050.466644 481.970062,1050.466644 453.463318Z" style="stroke:rgb(25.500488%,41.000366%,88.400269%); stroke-width: 2.500000;stroke-linecap: round;stroke-linejoin: round;stroke-miterlimit: 10.000000;fill: none;"></path>
  <path d="M953.354446 289.758408C953.354446 261.251663,942.028503 233.915909,921.872726 213.760117C901.716934 193.604340,874.381180 182.278397,845.874435 182.278397C817.367691 182.278397,790.031937 193.604340,769.876144 213.760117C749.720367 233.915909,738.394424 261.251663,738.394424 289.758408C738.394424 318.265152,749.720367 345.600906,769.876144 365.756699C790.031937 385.912476,817.367691 397.238419,845.874435 397.238419C874.381180 397.238419,901.716934 385.912476,921.872726 365.756699C942.028503 345.600906,953.354446 318.265152,953.354446 289.758408Z" style="stroke:rgb(25.500488%,41.000366%,88.400269%); stroke-width: 2.500000;stroke-linecap: round;stroke-linejoin: round;stroke-miterlimit: 10.000000;fill: none;"></path>
  <path d="M853.387527 134.890137C853.387527 106.383392,842.061584 79.047638,821.905807 58.891846C801.750015 38.736069,774.414261 27.410126,745.907516 27.410126C717.400772 27.410126,690.065018 38.736069,669.909225 58.891846C649.753448 79.047638,638.427505 106.383392,638.427505 134.890137C638.427505 163.396881,649.753448 190.732635,669.909225 210.888428C690.065018 231.044205,717.400772 242.370148,745.907516 242.370148C774.414261 242.370148,801.750015 231.044205,821.905807 210.888428C842.061584 190.732635,853.387527 163.396881,853.387527 134.890137Z" style="stroke:rgb(25.500488%,41.000366%,88.400269%); stroke-width: 2.500000;stroke-linecap: round;stroke-linejoin: round;stroke-miterlimit: 10.000000;fill: none;"></path>
  <path d="M1507.285858 1421.263458C1507.285858 1392.756714,1495.959915 1365.420959,1475.804138 1345.265167C1455.648346 1325.109390,1428.312592 1313.783447,1399.805847 1313.783447C1371.299103 1313.783447,1343.963348 1325.109390,1323.807556 1345.265167C1303.651779 1365.420959,1292.325836 1392.756714,1292.325836 1421.263458C1292.325836 1449.770203,1303.651779 1477.105957,1323.807556 1497.261749C1343.963348 1517.417526,1371.299103 1528.743469,1399.805847 1528.743469C1428.312592 1528.743469,1455.648346 1517.417526,1475.804138 1497.261749C1495.959915 1477.105957,1507.285858 1449.770203,1507.285858 1421.263458Z" style="stroke:rgb(25.500488%,41.000366%,88.400269%); stroke-width: 2.500000;stroke-linecap: round;stroke-linejoin: round;stroke-miterlimit: 10.000000;fill: none;"></path>
  <path d="M1405.632065 1264.176300C1405.632065 1235.669556,1394.306122 1208.333801,1374.150345 1188.178009C1353.994553 1168.022232,1326.658798 1156.696289,1298.152054 1156.696289C1269.645309 1156.696289,1242.309555 1168.022232,1222.153763 1188.178009C1201.997986 1208.333801,1190.672043 1235.669556,1190.672043 1264.176300C1190.672043 1292.683044,1201.997986 1320.018799,1222.153763 1340.174591C1242.309555 1360.330368,1269.645309 1371.656311,1298.152054 1371.656311C1326.658798 1371.656311,1353.994553 1360.330368,1374.150345 1340.174591C1394.306122 1320.018799,1405.632065 1292.683044,1405.632065 1264.176300Z" style="stroke:rgb(25.500488%,41.000366%,88.400269%); stroke-width: 2.500000;stroke-linecap: round;stroke-linejoin: round;stroke-miterlimit: 10.000000;fill: none;"></path>
  <path d="M1310.881485 1102.910889C1310.881485 1074.404144,1299.555542 1047.068390,1279.399765 1026.912598C1259.243973 1006.756821,1231.908218 995.430878,1203.401474 995.430878C1174.894730 995.430878,1147.558975 1006.756821,1127.403183 1026.912598C1107.247406 1047.068390,1095.921463 1074.404144,1095.921463 1102.910889C1095.921463 1131.417633,1107.247406 1158.753387,1127.403183 1178.909180C1147.558975 1199.064957,1174.894730 1210.390900,1203.401474 1210.390900C1231.908218 1210.390900,1259.243973 1199.064957,1279.399765 1178.909180C1299.555542 1158.753387,1310.881485 1131.417633,1310.881485 1102.910889Z" style="stroke:rgb(25.500488%,41.000366%,88.400269%); stroke-width: 2.500000;stroke-linecap: round;stroke-linejoin: round;stroke-miterlimit: 10.000000;fill: none;"></path>
  <path d="M1209.123886 944.539108C1209.123886 916.032364,1197.797943 888.696609,1177.642166 868.540817C1157.486374 848.385040,1130.150620 837.059097,1101.643875 837.059097C1073.137131 837.059097,1045.801376 848.385040,1025.645584 868.540817C1005.489807 888.696609,994.163864 916.032364,994.163864 944.539108C994.163864 973.045853,1005.489807 1000.381607,1025.645584 1020.537399C1045.801376 1040.693176,1073.137131 1052.019119,1101.643875 1052.019119C1130.150620 1052.019119,1157.486374 1040.693176,1177.642166 1020.537399C1197.797943 1000.381607,1209.123886 973.045853,1209.123886 944.539108Z" style="stroke:rgb(25.500488%,41.000366%,88.400269%); stroke-width: 2.500000;stroke-linecap: round;stroke-linejoin: round;stroke-miterlimit: 10.000000;fill: none;"></path>
  <path d="M1092.937012 793.407913C1092.937012 764.901169,1081.611069 737.565414,1061.455292 717.409622C1041.299500 697.253845,1013.963745 685.927902,985.457001 685.927902C956.950256 685.927902,929.614502 697.253845,909.458710 717.409622C889.302933 737.565414,877.976990 764.901169,877.976990 793.407913C877.976990 821.914658,889.302933 849.250412,909.458710 869.406204C929.614502 889.561981,956.950256 900.887924,985.457001 900.887924C1013.963745 900.887924,1041.299500 889.561981,1061.455292 869.406204C1081.611069 849.250412,1092.937012 821.914658,1092.937012 793.407913Z" style="stroke:rgb(25.500488%,41.000366%,88.400269%); stroke-width: 2.500000;stroke-linecap: round;stroke-linejoin: round;stroke-miterlimit: 10.000000;fill: none;"></path>
  <path d="M988.156006 634.127823C988.156006 605.621078,976.830063 578.285324,956.674286 558.129532C936.518494 537.973755,909.182739 526.647812,880.675995 526.647812C852.169250 526.647812,824.833496 537.973755,804.677704 558.129532C784.521927 578.285324,773.195984 605.621078,773.195984 634.127823C773.195984 662.634567,784.521927 689.970322,804.677704 710.126114C824.833496 730.281891,852.169250 741.607834,880.675995 741.607834C909.182739 741.607834,936.518494 730.281891,956.674286 710.126114C976.830063 689.970322,988.156006 662.634567,988.156006 634.127823Z" style="stroke:rgb(25.500488%,41.000366%,88.400269%); stroke-width: 2.500000;stroke-linecap: round;stroke-linejoin: round;stroke-miterlimit: 10.000000;fill: none;"></path>
  <path d="M881.246948 471.383133C881.246948 442.876389,869.921005 415.540634,849.765228 395.384842C829.609436 375.229065,802.273682 363.903122,773.766937 363.903122C745.260193 363.903122,717.924438 375.229065,697.768646 395.384842C677.612869 415.540634,666.286926 442.876389,666.286926 471.383133C666.286926 499.889877,677.612869 527.225632,697.768646 547.381424C717.924438 567.537201,745.260193 578.863144,773.766937 578.863144C802.273682 578.863144,829.609436 567.537201,849.765228 547.381424C869.921005 527.225632,881.246948 499.889877,881.246948 471.383133Z" style="stroke:rgb(25.500488%,41.000366%,88.400269%); stroke-width: 2.500000;stroke-linecap: round;stroke-linejoin: round;stroke-miterlimit: 10.000000;fill: none;"></path>
  <path d="M782.434891 319.836716C782.434891 291.329971,771.108948 263.994217,750.953171 243.838425C730.797379 223.682648,703.461624 212.356705,674.954880 212.356705C646.448135 212.356705,619.112381 223.682648,598.956589 243.838425C578.800812 263.994217,567.474869 291.329971,567.474869 319.836716C567.474869 348.343460,578.800812 375.679214,598.956589 395.835007C619.112381 415.990784,646.448135 427.316727,674.954880 427.316727C703.461624 427.316727,730.797379 415.990784,750.953171 395.835007C771.108948 375.679214,782.434891 348.343460,782.434891 319.836716Z" style="stroke:rgb(25.500488%,41.000366%,88.400269%); stroke-width: 2.500000;stroke-linecap: round;stroke-linejoin: round;stroke-miterlimit: 10.000000;fill: none;"></path>
  <path d="M683.908310 189.259476C683.908310 160.752731,672.582367 133.416977,652.426590 113.261185C632.270798 93.105408,604.935043 81.779465,576.428299 81.779465C547.921555 81.779465,520.585800 93.105408,500.430008 113.261185C480.274231 133.416977,468.948288 160.752731,468.948288 189.259476C468.948288 217.766220,480.274231 245.101974,500.430008 265.257767C520.585800 285.413544,547.921555 296.739487,576.428299 296.739487C604.935043 296.739487,632.270798 285.413544,652.426590 265.257767C672.582367 245.101974,683.908310 217.766220,683.908310 189.259476Z" style="stroke:rgb(25.500488%,41.000366%,88.400269%); stroke-width: 2.500000;stroke-linecap: round;stroke-linejoin: round;stroke-miterlimit: 10.000000;fill: none;"></path>
  <path d="M1414.922867 1572.018341C1414.922867 1543.511597,1403.596924 1516.175842,1383.441147 1496.020050C1363.285355 1475.864273,1335.949600 1464.538330,1307.442856 1464.538330C1278.936111 1464.538330,1251.600357 1475.864273,1231.444565 1496.020050C1211.288788 1516.175842,1199.962845 1543.511597,1199.962845 1572.018341C1199.962845 1600.525085,1211.288788 1627.860840,1231.444565 1648.016632C1251.600357 1668.172409,1278.936111 1679.498352,1307.442856 1679.498352C1335.949600 1679.498352,1363.285355 1668.172409,1383.441147 1648.016632C1403.596924 1627.860840,1414.922867 1600.525085,1414.922867 1572.018341Z" style="stroke:rgb(25.500488%,41.000366%,88.400269%); stroke-width: 2.500000;stroke-linecap: round;stroke-linejoin: round;stroke-miterlimit: 10.000000;fill: none;"></path>
  <path d="M1323.701752 1432.747208C1323.701752 1404.240463,1312.375809 1376.904709,1292.220032 1356.748917C1272.064240 1336.593140,1244.728485 1325.267197,1216.221741 1325.267197C1187.714996 1325.267197,1160.379242 1336.593140,1140.223450 1356.748917C1120.067673 1376.904709,1108.741730 1404.240463,1108.741730 1432.747208C1108.741730 1461.253952,1120.067673 1488.589706,1140.223450 1508.745499C1160.379242 1528.901276,1187.714996 1540.227219,1216.221741 1540.227219C1244.728485 1540.227219,1272.064240 1528.901276,1292.220032 1508.745499C1312.375809 1488.589706,1323.701752 1461.253952,1323.701752 1432.747208Z" style="stroke:rgb(25.500488%,41.000366%,88.400269%); stroke-width: 2.500000;stroke-linecap: round;stroke-linejoin: round;stroke-miterlimit: 10.000000;fill: none;"></path>
  <path d="M1225.356842 1273.233536C1225.356842 1244.726791,1214.030899 1217.391037,1193.875122 1197.235245C1173.719330 1177.079468,1146.383575 1165.753525,1117.876831 1165.753525C1089.370087 1165.753525,1062.034332 1177.079468,1041.878540 1197.235245C1021.722763 1217.391037,1010.396820 1244.726791,1010.396820 1273.233536C1010.396820 1301.740280,1021.722763 1329.076035,1041.878540 1349.231827C1062.034332 1369.387604,1089.370087 1380.713547,1117.876831 1380.713547C1146.383575 1380.713547,1173.719330 1369.387604,1193.875122 1349.231827C1214.030899 1329.076035,1225.356842 1301.740280,1225.356842 1273.233536Z" style="stroke:rgb(25.500488%,41.000366%,88.400269%); stroke-width: 2.500000;stroke-linecap: round;stroke-linejoin: round;stroke-miterlimit: 10.000000;fill: none;"></path>
  <path d="M1129.126999 1114.615219C1129.126999 1086.108475,1117.801056 1058.772720,1097.645279 1038.616928C1077.489487 1018.461151,1050.153732 1007.135208,1021.646988 1007.135208C993.140244 1007.135208,965.804489 1018.461151,945.648697 1038.616928C925.492920 1058.772720,914.166977 1086.108475,914.166977 1114.615219C914.166977 1143.121964,925.492920 1170.457718,945.648697 1190.613510C965.804489 1210.769287,993.140244 1222.095230,1021.646988 1222.095230C1050.153732 1222.095230,1077.489487 1210.769287,1097.645279 1190.613510C1117.801056 1170.457718,1129.126999 1143.121964,1129.126999 1114.615219Z" style="stroke:rgb(25.500488%,41.000366%,88.400269%); stroke-width: 2.500000;stroke-linecap: round;stroke-linejoin: round;stroke-miterlimit: 10.000000;fill: none;"></path>
  <path d="M1024.423859 962.095596C1024.423859 933.588852,1013.097916 906.253098,992.942139 886.097305C972.786346 865.941528,945.450592 854.615585,916.943848 854.615585C888.437103 854.615585,861.101349 865.941528,840.945557 886.097305C820.789780 906.253098,809.463837 933.588852,809.463837 962.095596C809.463837 990.602341,820.789780 1017.938095,840.945557 1038.093887C861.101349 1058.249664,888.437103 1069.575607,916.943848 1069.575607C945.450592 1069.575607,972.786346 1058.249664,992.942139 1038.093887C1013.097916 1017.938095,1024.423859 990.602341,1024.423859 962.095596Z" style="stroke:rgb(25.500488%,41.000366%,88.400269%); stroke-width: 2.500000;stroke-linecap: round;stroke-linejoin: round;stroke-miterlimit: 10.000000;fill: none;"></path>
  <path d="M916.230179 809.563004C916.230179 781.056259,904.904236 753.720505,884.748459 733.564713C864.592667 713.408936,837.256912 702.082993,808.750168 702.082993C780.243423 702.082993,752.907669 713.408936,732.751877 733.564713C712.596100 753.720505,701.270157 781.056259,701.270157 809.563004C701.270157 838.069748,712.596100 865.405502,732.751877 885.561295C752.907669 905.717072,780.243423 917.043015,808.750168 917.043015C837.256912 917.043015,864.592667 905.717072,884.748459 885.561295C904.904236 865.405502,916.230179 838.069748,916.230179 809.563004Z" style="stroke:rgb(25.500488%,41.000366%,88.400269%); stroke-width: 2.500000;stroke-linecap: round;stroke-linejoin: round;stroke-miterlimit: 10.000000;fill: none;"></path>
  <path d="M813.797821 646.286301C813.797821 617.779556,802.471878 590.443802,782.316101 570.288010C762.160309 550.132233,734.824554 538.806290,706.317810 538.806290C677.811066 538.806290,650.475311 550.132233,630.319519 570.288010C610.163742 590.443802,598.837799 617.779556,598.837799 646.286301C598.837799 674.793045,610.163742 702.128799,630.319519 722.284592C650.475311 742.440369,677.811066 753.766312,706.317810 753.766312C734.824554 753.766312,762.160309 742.440369,782.316101 722.284592C802.471878 702.128799,813.797821 674.793045,813.797821 646.286301Z" style="stroke:rgb(25.500488%,41.000366%,88.400269%); stroke-width: 2.500000;stroke-linecap: round;stroke-linejoin: round;stroke-miterlimit: 10.000000;fill: none;"></path>
  <path d="M700.387802 495.842850C700.387802 467.336105,689.061859 440.000351,668.906082 419.844559C648.750290 399.688782,621.414536 388.362839,592.907791 388.362839C564.401047 388.362839,537.065292 399.688782,516.909500 419.844559C496.753723 440.000351,485.427780 467.336105,485.427780 495.842850C485.427780 524.349594,496.753723 551.685349,516.909500 571.841141C537.065292 591.996918,564.401047 603.322861,592.907791 603.322861C621.414536 603.322861,648.750290 591.996918,668.906082 571.841141C689.061859 551.685349,700.387802 524.349594,700.387802 495.842850Z" style="stroke:rgb(25.500488%,41.000366%,88.400269%); stroke-width: 2.500000;stroke-linecap: round;stroke-linejoin: round;stroke-miterlimit: 10.000000;fill: none;"></path>
  <path d="M597.112015 367.938660C597.112015 339.431915,585.786072 312.096161,565.630295 291.940369C545.474503 271.784592,518.138748 260.458649,489.632004 260.458649C461.125259 260.458649,433.789505 271.784592,413.633713 291.940369C393.477936 312.096161,382.151993 339.431915,382.151993 367.938660C382.151993 396.445404,393.477936 423.781158,413.633713 443.936951C433.789505 464.092728,461.125259 475.418671,489.632004 475.418671C518.138748 475.418671,545.474503 464.092728,565.630295 443.936951C585.786072 423.781158,597.112015 396.445404,597.112015 367.938660Z" style="stroke:rgb(25.500488%,41.000366%,88.400269%); stroke-width: 2.500000;stroke-linecap: round;stroke-linejoin: round;stroke-miterlimit: 10.000000;fill: none;"></path>
  <path d="M520.968994 242.162537C520.968994 213.655792,509.643051 186.320038,489.487274 166.164246C469.331482 146.008469,441.995728 134.682526,413.488983 134.682526C384.982239 134.682526,357.646484 146.008469,337.490692 166.164246C317.334915 186.320038,306.008972 213.655792,306.008972 242.162537C306.008972 270.669281,317.334915 298.005035,337.490692 318.160828C357.646484 338.316605,384.982239 349.642548,413.488983 349.642548C441.995728 349.642548,469.331482 338.316605,489.487274 318.160828C509.643051 298.005035,520.968994 270.669281,520.968994 242.162537Z" style="stroke:rgb(25.500488%,41.000366%,88.400269%); stroke-width: 2.500000;stroke-linecap: round;stroke-linejoin: round;stroke-miterlimit: 10.000000;fill: none;"></path>
  <path d="M1232.078400 1611.037109C1232.078400 1582.530365,1220.752457 1555.194611,1200.596680 1535.038818C1180.440887 1514.883041,1153.105133 1503.557098,1124.598389 1503.557098C1096.091644 1503.557098,1068.755890 1514.883041,1048.600098 1535.038818C1028.444321 1555.194611,1017.118378 1582.530365,1017.118378 1611.037109C1017.118378 1639.543854,1028.444321 1666.879608,1048.600098 1687.035400C1068.755890 1707.191177,1096.091644 1718.517120,1124.598389 1718.517120C1153.105133 1718.517120,1180.440887 1707.191177,1200.596680 1687.035400C1220.752457 1666.879608,1232.078400 1639.543854,1232.078400 1611.037109Z" style="stroke:rgb(25.500488%,41.000366%,88.400269%); stroke-width: 2.500000;stroke-linecap: round;stroke-linejoin: round;stroke-miterlimit: 10.000000;fill: none;"></path>
  <path d="M1149.343567 1452.016525C1149.343567 1423.509781,1138.017624 1396.174026,1117.861847 1376.018234C1097.706055 1355.862457,1070.370300 1344.536514,1041.863556 1344.536514C1013.356812 1344.536514,986.021057 1355.862457,965.865265 1376.018234C945.709488 1396.174026,934.383545 1423.509781,934.383545 1452.016525C934.383545 1480.523270,945.709488 1507.859024,965.865265 1528.014816C986.021057 1548.170593,1013.356812 1559.496536,1041.863556 1559.496536C1070.370300 1559.496536,1097.706055 1548.170593,1117.861847 1528.014816C1138.017624 1507.859024,1149.343567 1480.523270,1149.343567 1452.016525Z" style="stroke:rgb(25.500488%,41.000366%,88.400269%); stroke-width: 2.500000;stroke-linecap: round;stroke-linejoin: round;stroke-miterlimit: 10.000000;fill: none;"></path>
  <path d="M1050.453659 1293.476059C1050.453659 1264.969315,1039.127716 1237.633560,1018.971939 1217.477768C998.816147 1197.321991,971.480392 1185.996048,942.973648 1185.996048C914.466904 1185.996048,887.131149 1197.321991,866.975357 1217.477768C846.819580 1237.633560,835.493637 1264.969315,835.493637 1293.476059C835.493637 1321.982803,846.819580 1349.318558,866.975357 1369.474350C887.131149 1389.630127,914.466904 1400.956070,942.973648 1400.956070C971.480392 1400.956070,998.816147 1389.630127,1018.971939 1369.474350C1039.127716 1349.318558,1050.453659 1321.982803,1050.453659 1293.476059Z" style="stroke:rgb(25.500488%,41.000366%,88.400269%); stroke-width: 2.500000;stroke-linecap: round;stroke-linejoin: round;stroke-miterlimit: 10.000000;fill: none;"></path>
  <path d="M956.209152 1131.341248C956.209152 1102.834503,944.883209 1075.498749,924.727432 1055.342957C904.571640 1035.187180,877.235886 1023.861237,848.729141 1023.861237C820.222397 1023.861237,792.886642 1035.187180,772.730850 1055.342957C752.575073 1075.498749,741.249130 1102.834503,741.249130 1131.341248C741.249130 1159.847992,752.575073 1187.183746,772.730850 1207.339539C792.886642 1227.495316,820.222397 1238.821259,848.729141 1238.821259C877.235886 1238.821259,904.571640 1227.495316,924.727432 1207.339539C944.883209 1187.183746,956.209152 1159.847992,956.209152 1131.341248Z" style="stroke:rgb(25.500488%,41.000366%,88.400269%); stroke-width: 2.500000;stroke-linecap: round;stroke-linejoin: round;stroke-miterlimit: 10.000000;fill: none;"></path>
  <path d="M840.268814 979.885666C840.268814 951.378922,828.942871 924.043167,808.787094 903.887375C788.631302 883.731598,761.295547 872.405655,732.788803 872.405655C704.282059 872.405655,676.946304 883.731598,656.790512 903.887375C636.634735 924.043167,625.308792 951.378922,625.308792 979.885666C625.308792 1008.392410,636.634735 1035.728165,656.790512 1055.883957C676.946304 1076.039734,704.282059 1087.365677,732.788803 1087.365677C761.295547 1087.365677,788.631302 1076.039734,808.787094 1055.883957C828.942871 1035.728165,840.268814 1008.392410,840.268814 979.885666Z" style="stroke:rgb(25.500488%,41.000366%,88.400269%); stroke-width: 2.500000;stroke-linecap: round;stroke-linejoin: round;stroke-miterlimit: 10.000000;fill: none;"></path>
  <path d="M737.875397 816.595978C737.875397 788.089233,726.549454 760.753479,706.393677 740.597687C686.237885 720.441910,658.902130 709.115967,630.395386 709.115967C601.888641 709.115967,574.552887 720.441910,554.397095 740.597687C534.241318 760.753479,522.915375 788.089233,522.915375 816.595978C522.915375 845.102722,534.241318 872.438477,554.397095 892.594269C574.552887 912.750046,601.888641 924.075989,630.395386 924.075989C658.902130 924.075989,686.237885 912.750046,706.393677 892.594269C726.549454 872.438477,737.875397 845.102722,737.875397 816.595978Z" style="stroke:rgb(25.500488%,41.000366%,88.400269%); stroke-width: 2.500000;stroke-linecap: round;stroke-linejoin: round;stroke-miterlimit: 10.000000;fill: none;"></path>
  <path d="M628.929108 665.607529C628.929108 637.100784,617.603165 609.765030,597.447388 589.609238C577.291595 569.453461,549.955841 558.127518,521.449097 558.127518C492.942352 558.127518,465.606598 569.453461,445.450806 589.609238C425.295029 609.765030,413.969086 637.100784,413.969086 665.607529C413.969086 694.114273,425.295029 721.450027,445.450806 741.605820C465.606598 761.761597,492.942352 773.087540,521.449097 773.087540C549.955841 773.087540,577.291595 761.761597,597.447388 741.605820C617.603165 721.450027,628.929108 694.114273,628.929108 665.607529Z" style="stroke:rgb(25.500488%,41.000366%,88.400269%); stroke-width: 2.500000;stroke-linecap: round;stroke-linejoin: round;stroke-miterlimit: 10.000000;fill: none;"></path>
  <path d="M508.044922 538.767380C508.044922 510.260635,496.718979 482.924881,476.563202 462.769089C456.407410 442.613312,429.071655 431.287369,400.564911 431.287369C372.058167 431.287369,344.722412 442.613312,324.566620 462.769089C304.410843 482.924881,293.084900 510.260635,293.084900 538.767380C293.084900 567.274124,304.410843 594.609879,324.566620 614.765671C344.722412 634.921448,372.058167 646.247391,400.564911 646.247391C429.071655 646.247391,456.407410 634.921448,476.563202 614.765671C496.718979 594.609879,508.044922 567.274124,508.044922 538.767380Z" style="stroke:rgb(25.500488%,41.000366%,88.400269%); stroke-width: 2.500000;stroke-linecap: round;stroke-linejoin: round;stroke-miterlimit: 10.000000;fill: none;"></path>
  <path d="M405.132462 409.020599C405.132462 380.513855,393.806519 353.178101,373.650742 333.022308C353.494949 312.866531,326.159195 301.540588,297.652451 301.540588C269.145706 301.540588,241.809952 312.866531,221.654160 333.022308C201.498383 353.178101,190.172440 380.513855,190.172440 409.020599C190.172440 437.527344,201.498383 464.863098,221.654160 485.018890C241.809952 505.174667,269.145706 516.500610,297.652451 516.500610C326.159195 516.500610,353.494949 505.174667,373.650742 485.018890C393.806519 464.863098,405.132462 437.527344,405.132462 409.020599Z" style="stroke:rgb(25.500488%,41.000366%,88.400269%); stroke-width: 2.500000;stroke-linecap: round;stroke-linejoin: round;stroke-miterlimit: 10.000000;fill: none;"></path>
  <path d="M1076.846802 1625.440430C1076.846802 1596.933685,1065.520859 1569.597931,1045.365082 1549.442139C1025.209290 1529.286362,997.873535 1517.960419,969.366791 1517.960419C940.860046 1517.960419,913.524292 1529.286362,893.368500 1549.442139C873.212723 1569.597931,861.886780 1596.933685,861.886780 1625.440430C861.886780 1653.947174,873.212723 1681.282928,893.368500 1701.438721C913.524292 1721.594498,940.860046 1732.920441,969.366791 1732.920441C997.873535 1732.920441,1025.209290 1721.594498,1045.365082 1701.438721C1065.520859 1681.282928,1076.846802 1653.947174,1076.846802 1625.440430Z" style="stroke:rgb(25.500488%,41.000366%,88.400269%); stroke-width: 2.500000;stroke-linecap: round;stroke-linejoin: round;stroke-miterlimit: 10.000000;fill: none;"></path>
  <path d="M971.806274 1464.966553C971.806274 1436.459808,960.480331 1409.124054,940.324554 1388.968262C920.168762 1368.812485,892.833008 1357.486542,864.326263 1357.486542C835.819519 1357.486542,808.483765 1368.812485,788.327972 1388.968262C768.172195 1409.124054,756.846252 1436.459808,756.846252 1464.966553C756.846252 1493.473297,768.172195 1520.809052,788.327972 1540.964844C808.483765 1561.120621,835.819519 1572.446564,864.326263 1572.446564C892.833008 1572.446564,920.168762 1561.120621,940.324554 1540.964844C960.480331 1520.809052,971.806274 1493.473297,971.806274 1464.966553Z" style="stroke:rgb(25.500488%,41.000366%,88.400269%); stroke-width: 2.500000;stroke-linecap: round;stroke-linejoin: round;stroke-miterlimit: 10.000000;fill: none;"></path>
  <path d="M872.111862 1302.481384C872.111862 1273.974640,860.785919 1246.638885,840.630142 1226.483093C820.474350 1206.327316,793.138596 1195.001373,764.631851 1195.001373C736.125107 1195.001373,708.789352 1206.327316,688.633560 1226.483093C668.477783 1246.638885,657.151840 1273.974640,657.151840 1302.481384C657.151840 1330.988129,668.477783 1358.323883,688.633560 1378.479675C708.789352 1398.635452,736.125107 1409.961395,764.631851 1409.961395C793.138596 1409.961395,820.474350 1398.635452,840.630142 1378.479675C860.785919 1358.323883,872.111862 1330.988129,872.111862 1302.481384Z" style="stroke:rgb(25.500488%,41.000366%,88.400269%); stroke-width: 2.500000;stroke-linecap: round;stroke-linejoin: round;stroke-miterlimit: 10.000000;fill: none;"></path>
  <path d="M772.274704 1149.429749C772.274704 1120.923004,760.948761 1093.587250,740.792984 1073.431458C720.637192 1053.275681,693.301437 1041.949738,664.794693 1041.949738C636.287949 1041.949738,608.952194 1053.275681,588.796402 1073.431458C568.640625 1093.587250,557.314682 1120.923004,557.314682 1149.429749C557.314682 1177.936493,568.640625 1205.272247,588.796402 1225.428040C608.952194 1245.583817,636.287949 1256.909760,664.794693 1256.909760C693.301437 1256.909760,720.637192 1245.583817,740.792984 1225.428040C760.948761 1205.272247,772.274704 1177.936493,772.274704 1149.429749Z" style="stroke:rgb(25.500488%,41.000366%,88.400269%); stroke-width: 2.500000;stroke-linecap: round;stroke-linejoin: round;stroke-miterlimit: 10.000000;fill: none;"></path>
  <path d="M662.134628 987.204117C662.134628 958.697372,650.808685 931.361618,630.652908 911.205826C610.497116 891.050049,583.161362 879.724106,554.654617 879.724106C526.147873 879.724106,498.812119 891.050049,478.656326 911.205826C458.500549 931.361618,447.174606 958.697372,447.174606 987.204117C447.174606 1015.710861,458.500549 1043.046616,478.656326 1063.202408C498.812119 1083.358185,526.147873 1094.684128,554.654617 1094.684128C583.161362 1094.684128,610.497116 1083.358185,630.652908 1063.202408C650.808685 1043.046616,662.134628 1015.710861,662.134628 987.204117Z" style="stroke:rgb(25.500488%,41.000366%,88.400269%); stroke-width: 2.500000;stroke-linecap: round;stroke-linejoin: round;stroke-miterlimit: 10.000000;fill: none;"></path>
  <path d="M553.668442 835.255432C553.668442 806.748688,542.342499 779.412933,522.186722 759.257141C502.030930 739.101364,474.695175 727.775421,446.188431 727.775421C417.681686 727.775421,390.345932 739.101364,370.190140 759.257141C350.034363 779.412933,338.708420 806.748688,338.708420 835.255432C338.708420 863.762177,350.034363 891.097931,370.190140 911.253723C390.345932 931.409500,417.681686 942.735443,446.188431 942.735443C474.695175 942.735443,502.030930 931.409500,522.186722 911.253723C542.342499 891.097931,553.668442 863.762177,553.668442 835.255432Z" style="stroke:rgb(25.500488%,41.000366%,88.400269%); stroke-width: 2.500000;stroke-linecap: round;stroke-linejoin: round;stroke-miterlimit: 10.000000;fill: none;"></path>
  <path d="M437.429657 702.381454C437.429657 673.874710,426.103714 646.538956,405.947937 626.383163C385.792145 606.227386,358.456390 594.901443,329.949646 594.901443C301.442902 594.901443,274.107147 606.227386,253.951355 626.383163C233.795578 646.538956,222.469635 673.874710,222.469635 702.381454C222.469635 730.888199,233.795578 758.223953,253.951355 778.379745C274.107147 798.535522,301.442902 809.861465,329.949646 809.861465C358.456390 809.861465,385.792145 798.535522,405.947937 778.379745C426.103714 758.223953,437.429657 730.888199,437.429657 702.381454Z" style="stroke:rgb(25.500488%,41.000366%,88.400269%); stroke-width: 2.500000;stroke-linecap: round;stroke-linejoin: round;stroke-miterlimit: 10.000000;fill: none;"></path>
  <path d="M316.688202 559.515961C316.688202 531.009216,305.362259 503.673462,285.206482 483.517670C265.050690 463.361893,237.714935 452.035950,209.208191 452.035950C180.701447 452.035950,153.365692 463.361893,133.209900 483.517670C113.054123 503.673462,101.728180 531.009216,101.728180 559.515961C101.728180 588.022705,113.054123 615.358459,133.209900 635.514252C153.365692 655.670029,180.701447 666.995972,209.208191 666.995972C237.714935 666.995972,265.050690 655.670029,285.206482 635.514252C305.362259 615.358459,316.688202 588.022705,316.688202 559.515961Z" style="stroke:rgb(25.500488%,41.000366%,88.400269%); stroke-width: 2.500000;stroke-linecap: round;stroke-linejoin: round;stroke-miterlimit: 10.000000;fill: none;"></path>
  <path d="M904.525848 1630.046906C904.525848 1601.540161,893.199905 1574.204407,873.044128 1554.048615C852.888336 1533.892838,825.552582 1522.566895,797.045837 1522.566895C768.539093 1522.566895,741.203339 1533.892838,721.047546 1554.048615C700.891769 1574.204407,689.565826 1601.540161,689.565826 1630.046906C689.565826 1658.553650,700.891769 1685.889404,721.047546 1706.045197C741.203339 1726.200974,768.539093 1737.526917,797.045837 1737.526917C825.552582 1737.526917,852.888336 1726.200974,873.044128 1706.045197C893.199905 1685.889404,904.525848 1658.553650,904.525848 1630.046906Z" style="stroke:rgb(25.500488%,41.000366%,88.400269%); stroke-width: 2.500000;stroke-linecap: round;stroke-linejoin: round;stroke-miterlimit: 10.000000;fill: none;"></path>
  <path d="M790.337265 1469.560043C790.337265 1441.053299,779.011322 1413.717545,758.855545 1393.561752C738.699753 1373.405975,711.363998 1362.080032,682.857254 1362.080032C654.350510 1362.080032,627.014755 1373.405975,606.858963 1393.561752C586.703186 1413.717545,575.377243 1441.053299,575.377243 1469.560043C575.377243 1498.066788,586.703186 1525.402542,606.858963 1545.558334C627.014755 1565.714111,654.350510 1577.040054,682.857254 1577.040054C711.363998 1577.040054,738.699753 1565.714111,758.855545 1545.558334C779.011322 1525.402542,790.337265 1498.066788,790.337265 1469.560043Z" style="stroke:rgb(25.500488%,41.000366%,88.400269%); stroke-width: 2.500000;stroke-linecap: round;stroke-linejoin: round;stroke-miterlimit: 10.000000;fill: none;"></path>
  <path d="M690.188690 1323.229965C690.188690 1294.723221,678.862747 1267.387466,658.706970 1247.231674C638.551178 1227.075897,611.215424 1215.749954,582.708679 1215.749954C554.201935 1215.749954,526.866180 1227.075897,506.710388 1247.231674C486.554611 1267.387466,475.228668 1294.723221,475.228668 1323.229965C475.228668 1351.736710,486.554611 1379.072464,506.710388 1399.228256C526.866180 1419.384033,554.201935 1430.709976,582.708679 1430.709976C611.215424 1430.709976,638.551178 1419.384033,658.706970 1399.228256C678.862747 1379.072464,690.188690 1351.736710,690.188690 1323.229965Z" style="stroke:rgb(25.500488%,41.000366%,88.400269%); stroke-width: 2.500000;stroke-linecap: round;stroke-linejoin: round;stroke-miterlimit: 10.000000;fill: none;"></path>
  <path d="M605.624252 1146.367416C605.624252 1117.860672,594.298309 1090.524918,574.142532 1070.369125C553.986740 1050.213348,526.650986 1038.887405,498.144241 1038.887405C469.637497 1038.887405,442.301743 1050.213348,422.145950 1070.369125C401.990173 1090.524918,390.664230 1117.860672,390.664230 1146.367416C390.664230 1174.874161,401.990173 1202.209915,422.145950 1222.365707C442.301743 1242.521484,469.637497 1253.847427,498.144241 1253.847427C526.650986 1253.847427,553.986740 1242.521484,574.142532 1222.365707C594.298309 1202.209915,605.624252 1174.874161,605.624252 1146.367416Z" style="stroke:rgb(25.500488%,41.000366%,88.400269%); stroke-width: 2.500000;stroke-linecap: round;stroke-linejoin: round;stroke-miterlimit: 10.000000;fill: none;"></path>
  <path d="M473.593704 999.518311C473.593704 971.011566,462.267761 943.675812,442.111984 923.520020C421.956192 903.364243,394.620438 892.038300,366.113693 892.038300C337.606949 892.038300,310.271194 903.364243,290.115402 923.520020C269.959625 943.675812,258.633682 971.011566,258.633682 999.518311C258.633682 1028.025055,269.959625 1055.360809,290.115402 1075.516602C310.271194 1095.672379,337.606949 1106.998322,366.113693 1106.998322C394.620438 1106.998322,421.956192 1095.672379,442.111984 1075.516602C462.267761 1055.360809,473.593704 1028.025055,473.593704 999.518311Z" style="stroke:rgb(25.500488%,41.000366%,88.400269%); stroke-width: 2.500000;stroke-linecap: round;stroke-linejoin: round;stroke-miterlimit: 10.000000;fill: none;"></path>
  <path d="M372.238358 884.045105C372.238358 855.538361,360.912415 828.202606,340.756638 808.046814C320.600845 787.891037,293.265091 776.565094,264.758347 776.565094C236.251602 776.565094,208.915848 787.891037,188.760056 808.046814C168.604279 828.202606,157.278336 855.538361,157.278336 884.045105C157.278336 912.551849,168.604279 939.887604,188.760056 960.043396C208.915848 980.199173,236.251602 991.525116,264.758347 991.525116C293.265091 991.525116,320.600845 980.199173,340.756638 960.043396C360.912415 939.887604,372.238358 912.551849,372.238358 884.045105Z" style="stroke:rgb(25.500488%,41.000366%,88.400269%); stroke-width: 2.500000;stroke-linecap: round;stroke-linejoin: round;stroke-miterlimit: 10.000000;fill: none;"></path>
  <path d="M265.407150 726.698425C265.407150 698.191681,254.081207 670.855927,233.925430 650.700134C213.769638 630.544357,186.433884 619.218414,157.927139 619.218414C129.420395 619.218414,102.084641 630.544357,81.928848 650.700134C61.773071 670.855927,50.447128 698.191681,50.447128 726.698425C50.447128 755.205170,61.773071 782.540924,81.928848 802.696716C102.084641 822.852493,129.420395 834.178436,157.927139 834.178436C186.433884 834.178436,213.769638 822.852493,233.925430 802.696716C254.081207 782.540924,265.407150 755.205170,265.407150 726.698425Z" style="stroke:rgb(25.500488%,41.000366%,88.400269%); stroke-width: 2.500000;stroke-linecap: round;stroke-linejoin: round;stroke-miterlimit: 10.000000;fill: none;"></path>
  <path d="M727.118317 1632.447464C727.118317 1603.940720,715.792374 1576.604965,695.636597 1556.449173C675.480804 1536.293396,648.145050 1524.967453,619.638306 1524.967453C591.131561 1524.967453,563.795807 1536.293396,543.640015 1556.449173C523.484238 1576.604965,512.158295 1603.940720,512.158295 1632.447464C512.158295 1660.954208,523.484238 1688.289963,543.640015 1708.445755C563.795807 1728.601532,591.131561 1739.927475,619.638306 1739.927475C648.145050 1739.927475,675.480804 1728.601532,695.636597 1708.445755C715.792374 1688.289963,727.118317 1660.954208,727.118317 1632.447464Z" style="stroke:rgb(25.500488%,41.000366%,88.400269%); stroke-width: 2.500000;stroke-linecap: round;stroke-linejoin: round;stroke-miterlimit: 10.000000;fill: none;"></path>
  <path d="M600.122437 1489.504120C600.122437 1460.997375,588.796494 1433.661621,568.640717 1413.505829C548.484924 1393.350052,521.149170 1382.024109,492.642426 1382.024109C464.135681 1382.024109,436.799927 1393.350052,416.644135 1413.505829C396.488358 1433.661621,385.162415 1460.997375,385.162415 1489.504120C385.162415 1518.010864,396.488358 1545.346619,416.644135 1565.502411C436.799927 1585.658188,464.135681 1596.984131,492.642426 1596.984131C521.149170 1596.984131,548.484924 1585.658188,568.640717 1565.502411C588.796494 1545.346619,600.122437 1518.010864,600.122437 1489.504120Z" style="stroke:rgb(25.500488%,41.000366%,88.400269%); stroke-width: 2.500000;stroke-linecap: round;stroke-linejoin: round;stroke-miterlimit: 10.000000;fill: none;"></path>
  <path d="M518.127243 1312.628601C518.127243 1284.121857,506.801300 1256.786102,486.645523 1236.630310C466.489731 1216.474533,439.153976 1205.148590,410.647232 1205.148590C382.140488 1205.148590,354.804733 1216.474533,334.648941 1236.630310C314.493164 1256.786102,303.167221 1284.121857,303.167221 1312.628601C303.167221 1341.135345,314.493164 1368.471100,334.648941 1388.626892C354.804733 1408.782669,382.140488 1420.108612,410.647232 1420.108612C439.153976 1420.108612,466.489731 1408.782669,486.645523 1388.626892C506.801300 1368.471100,518.127243 1341.135345,518.127243 1312.628601Z" style="stroke:rgb(25.500488%,41.000366%,88.400269%); stroke-width: 2.500000;stroke-linecap: round;stroke-linejoin: round;stroke-miterlimit: 10.000000;fill: none;"></path>
  <path d="M437.403702 1161.341705C437.403702 1132.834961,426.077759 1105.499207,405.921982 1085.343414C385.766190 1065.187637,358.430435 1053.861694,329.923691 1053.861694C301.416946 1053.861694,274.081192 1065.187637,253.925400 1085.343414C233.769623 1105.499207,222.443680 1132.834961,222.443680 1161.341705C222.443680 1189.848450,233.769623 1217.184204,253.925400 1237.339996C274.081192 1257.495773,301.416946 1268.821716,329.923691 1268.821716C358.430435 1268.821716,385.766190 1257.495773,405.921982 1237.339996C426.077759 1217.184204,437.403702 1189.848450,437.403702 1161.341705Z" style="stroke:rgb(25.500488%,41.000366%,88.400269%); stroke-width: 2.500000;stroke-linecap: round;stroke-linejoin: round;stroke-miterlimit: 10.000000;fill: none;"></path>
  <path d="M290.424835 1067.408615C290.424835 1038.901871,279.098892 1011.566116,258.943115 991.410324C238.787323 971.254547,211.451569 959.928604,182.944824 959.928604C154.438080 959.928604,127.102325 971.254547,106.946533 991.410324C86.790756 1011.566116,75.464813 1038.901871,75.464813 1067.408615C75.464813 1095.915359,86.790756 1123.251114,106.946533 1143.406906C127.102325 1163.562683,154.438080 1174.888626,182.944824 1174.888626C211.451569 1174.888626,238.787323 1163.562683,258.943115 1143.406906C279.098892 1123.251114,290.424835 1095.915359,290.424835 1067.408615Z" style="stroke:rgb(25.500488%,41.000366%,88.400269%); stroke-width: 2.500000;stroke-linecap: round;stroke-linejoin: round;stroke-miterlimit: 10.000000;fill: none;"></path>
  <path d="M215.890823 921.688416C215.890823 893.181671,204.564880 865.845917,184.409103 845.690125C164.253311 825.534348,136.917557 814.208405,108.410812 814.208405C79.904068 814.208405,52.568314 825.534348,32.412521 845.690125C12.256744 865.845917,0.930801 893.181671,0.930801 921.688416C0.930801 950.195160,12.256744 977.530914,32.412521 997.686707C52.568314 1017.842484,79.904068 1029.168427,108.410812 1029.168427C136.917557 1029.168427,164.253311 1017.842484,184.409103 997.686707C204.564880 977.530914,215.890823 950.195160,215.890823 921.688416Z" style="stroke:rgb(25.500488%,41.000366%,88.400269%); stroke-width: 2.500000;stroke-linecap: round;stroke-linejoin: round;stroke-miterlimit: 10.000000;fill: none;"></path>
  <path d="M431.590469 1421.094772C431.590469 1392.588028,420.264526 1365.252274,400.108749 1345.096481C379.952957 1324.940704,352.617203 1313.614761,324.110458 1313.614761C295.603714 1313.614761,268.267960 1324.940704,248.112167 1345.096481C227.956390 1365.252274,216.630447 1392.588028,216.630447 1421.094772C216.630447 1449.601517,227.956390 1476.937271,248.112167 1497.093063C268.267960 1517.248840,295.603714 1528.574783,324.110458 1528.574783C352.617203 1528.574783,379.952957 1517.248840,400.108749 1497.093063C420.264526 1476.937271,431.590469 1449.601517,431.590469 1421.094772Z" style="stroke:rgb(25.500488%,41.000366%,88.400269%); stroke-width: 2.500000;stroke-linecap: round;stroke-linejoin: round;stroke-miterlimit: 10.000000;fill: none;"></path>
  <path d="M322.462509 1254.262665C322.462509 1225.755920,311.136566 1198.420166,290.980789 1178.264374C270.824997 1158.108597,243.489243 1146.782654,214.982498 1146.782654C186.475754 1146.782654,159.139999 1158.108597,138.984207 1178.264374C118.828430 1198.420166,107.502487 1225.755920,107.502487 1254.262665C107.502487 1282.769409,118.828430 1310.105164,138.984207 1330.260956C159.139999 1350.416733,186.475754 1361.742676,214.982498 1361.742676C243.489243 1361.742676,270.824997 1350.416733,290.980789 1330.260956C311.136566 1310.105164,322.462509 1282.769409,322.462509 1254.262665Z" style="stroke:rgb(25.500488%,41.000366%,88.400269%); stroke-width: 2.500000;stroke-linecap: round;stroke-linejoin: round;stroke-miterlimit: 10.000000;fill: none;"></path>
</svg>
