<?xml version="1.0"?>
<!-- Created by MetaPost 2.00 on 2022.03.02:1201 -->
<svg version="1.1" xmlns="http://www.w3.org/2000/svg" xmlns:xlink="http://www.w3.org/1999/xlink" width="1744.628510" height="1698.927139" viewBox="0 0 1744.628510 1698.927139">
<!-- Original BoundingBox: -877.024536 -834.216797 867.603973 864.710342 -->
  <path d="M877.000000 13.606476L212.136978 333.788666L47.926010 1053.228653L508.028137 1630.179443L1245.971863 1630.179443L1706.073990 1053.228653L1541.863022 333.788666L877.000000 13.606476Z" style="fill: rgb(100.000000%,100.000000%,100.000000%);stroke: none;"></path>
  <path d="M877.000000 13.606476L212.136978 333.788666" style="stroke:rgb(0.000000%,0.000000%,0.000000%); stroke-width: 2.500000;stroke-linecap: round;stroke-linejoin: round;stroke-miterlimit: 10.000000;fill: none;"></path>
  <path d="M212.136978 333.788666L47.926010 1053.228653" style="stroke:rgb(0.000000%,0.000000%,0.000000%); stroke-width: 2.500000;stroke-linecap: round;stroke-linejoin: round;stroke-miterlimit: 10.000000;fill: none;"></path>
  <path d="M47.926010 1053.228653L508.028137 1630.179443" style="stroke:rgb(0.000000%,0.000000%,0.000000%); stroke-width: 2.500000;stroke-linecap: round;stroke-linejoin: round;stroke-miterlimit: 10.000000;fill: none;"></path>
  <path d="M508.028137 1630.179443L1245.971863 1630.179443" style="stroke:rgb(0.000000%,0.000000%,0.000000%); stroke-width: 2.500000;stroke-linecap: round;stroke-linejoin: round;stroke-miterlimit: 10.000000;fill: none;"></path>
  <path d="M1245.971863 1630.179443L1706.073990 1053.228653" style="stroke:rgb(0.000000%,0.000000%,0.000000%); stroke-width: 2.500000;stroke-linecap: round;stroke-linejoin: round;stroke-miterlimit: 10.000000;fill: none;"></path>
  <path d="M1706.073990 1053.228653L1541.863022 333.788666" style="stroke:rgb(0.000000%,0.000000%,0.000000%); stroke-width: 2.500000;stroke-linecap: round;stroke-linejoin: round;stroke-miterlimit: 10.000000;fill: none;"></path>
  <path d="M1541.863022 333.788666L877.000000 13.606476" style="stroke:rgb(0.000000%,0.000000%,0.000000%); stroke-width: 2.500000;stroke-linecap: round;stroke-linejoin: round;stroke-miterlimit: 10.000000;fill: none;"></path>
  <path d="M1675.943787 505.279160C1675.943787 478.056137,1665.127869 451.951355,1645.879745 432.703232C1626.631622 413.455109,1600.526840 402.639191,1573.303818 402.639191C1546.080795 402.639191,1519.976013 413.455109,1500.727890 432.703232C1481.479767 451.951355,1470.663849 478.056137,1470.663849 505.279160C1470.663849 532.502182,1481.479767 558.606964,1500.727890 577.855087C1519.976013 597.103210,1546.080795 607.919128,1573.303818 607.919128C1600.526840 607.919128,1626.631622 597.103210,1645.879745 577.855087C1665.127869 558.606964,1675.943787 532.502182,1675.943787 505.279160Z" style="stroke:rgb(25.500488%,41.000366%,88.400269%); stroke-width: 2.500000;stroke-linecap: round;stroke-linejoin: round;stroke-miterlimit: 10.000000;fill: none;"></path>
  <path d="M1560.353790 381.241806C1560.353790 354.018784,1549.537872 327.914001,1530.289749 308.665878C1511.041626 289.417755,1484.936844 278.601837,1457.713821 278.601837C1430.490799 278.601837,1404.386017 289.417755,1385.137894 308.665878C1365.889771 327.914001,1355.073853 354.018784,1355.073853 381.241806C1355.073853 408.464828,1365.889771 434.569611,1385.137894 453.817734C1404.386017 473.065857,1430.490799 483.881775,1457.713821 483.881775C1484.936844 483.881775,1511.041626 473.065857,1530.289749 453.817734C1549.537872 434.569611,1560.353790 408.464828,1560.353790 381.241806Z" style="stroke:rgb(25.500488%,41.000366%,88.400269%); stroke-width: 2.500000;stroke-linecap: round;stroke-linejoin: round;stroke-miterlimit: 10.000000;fill: none;"></path>
  <path d="M1434.266251 295.379776C1434.266251 268.156754,1423.450333 242.051971,1404.202209 222.803848C1384.954086 203.555725,1358.849304 192.739807,1331.626282 192.739807C1304.403259 192.739807,1278.298477 203.555725,1259.050354 222.803848C1239.802231 242.051971,1228.986313 268.156754,1228.986313 295.379776C1228.986313 322.602798,1239.802231 348.707581,1259.050354 367.955704C1278.298477 387.203827,1304.403259 398.019745,1331.626282 398.019745C1358.849304 398.019745,1384.954086 387.203827,1404.202209 367.955704C1423.450333 348.707581,1434.266251 322.602798,1434.266251 295.379776Z" style="stroke:rgb(25.500488%,41.000366%,88.400269%); stroke-width: 2.500000;stroke-linecap: round;stroke-linejoin: round;stroke-miterlimit: 10.000000;fill: none;"></path>
  <path d="M1279.047623 208.336945C1279.047623 181.113922,1268.231705 155.009140,1248.983582 135.761017C1229.735458 116.512894,1203.630676 105.696976,1176.407654 105.696976C1149.184631 105.696976,1123.079849 116.512894,1103.831726 135.761017C1084.583603 155.009140,1073.767685 181.113922,1073.767685 208.336945C1073.767685 235.559967,1084.583603 261.664749,1103.831726 280.912872C1123.079849 300.160995,1149.184631 310.976913,1176.407654 310.976913C1203.630676 310.976913,1229.735458 300.160995,1248.983582 280.912872C1268.231705 261.664749,1279.047623 235.559967,1279.047623 208.336945Z" style="stroke:rgb(25.500488%,41.000366%,88.400269%); stroke-width: 2.500000;stroke-linecap: round;stroke-linejoin: round;stroke-miterlimit: 10.000000;fill: none;"></path>
  <path d="M1116.186157 103.179626C1116.186157 75.956604,1105.370239 49.851822,1086.122116 30.603699C1066.873993 11.355576,1040.769211 0.539658,1013.546188 0.539658C986.323166 0.539658,960.218384 11.355576,940.970261 30.603699C921.722137 49.851822,910.906219 75.956604,910.906219 103.179626C910.906219 130.402649,921.722137 156.507431,940.970261 175.755554C960.218384 195.003677,986.323166 205.819595,1013.546188 205.819595C1040.769211 205.819595,1066.873993 195.003677,1086.122116 175.755554C1105.370239 156.507431,1116.186157 130.402649,1116.186157 103.179626Z" style="stroke:rgb(25.500488%,41.000366%,88.400269%); stroke-width: 2.500000;stroke-linecap: round;stroke-linejoin: round;stroke-miterlimit: 10.000000;fill: none;"></path>
  <path d="M1743.353973 828.367966C1743.353973 801.144943,1732.538055 775.040161,1713.289932 755.792038C1694.041809 736.543915,1667.937027 725.727997,1640.714005 725.727997C1613.490982 725.727997,1587.386200 736.543915,1568.138077 755.792038C1548.889954 775.040161,1538.074036 801.144943,1538.074036 828.367966C1538.074036 855.590988,1548.889954 881.695770,1568.138077 900.943893C1587.386200 920.192017,1613.490982 931.007935,1640.714005 931.007935C1667.937027 931.007935,1694.041809 920.192017,1713.289932 900.943893C1732.538055 881.695770,1743.353973 855.590988,1743.353973 828.367966Z" style="stroke:rgb(25.500488%,41.000366%,88.400269%); stroke-width: 2.500000;stroke-linecap: round;stroke-linejoin: round;stroke-miterlimit: 10.000000;fill: none;"></path>
  <path d="M1641.012466 682.816452C1641.012466 655.593430,1630.196548 629.488647,1610.948425 610.240524C1591.700302 590.992401,1565.595520 580.176483,1538.372498 580.176483C1511.149475 580.176483,1485.044693 590.992401,1465.796570 610.240524C1446.548447 629.488647,1435.732529 655.593430,1435.732529 682.816452C1435.732529 710.039474,1446.548447 736.144257,1465.796570 755.392380C1485.044693 774.640503,1511.149475 785.456421,1538.372498 785.456421C1565.595520 785.456421,1591.700302 774.640503,1610.948425 755.392380C1630.196548 736.144257,1641.012466 710.039474,1641.012466 682.816452Z" style="stroke:rgb(25.500488%,41.000366%,88.400269%); stroke-width: 2.500000;stroke-linecap: round;stroke-linejoin: round;stroke-miterlimit: 10.000000;fill: none;"></path>
  <path d="M1511.654953 562.801666C1511.654953 535.578644,1500.839035 509.473862,1481.590912 490.225739C1462.342789 470.977615,1436.238007 460.161697,1409.014984 460.161697C1381.791962 460.161697,1355.687180 470.977615,1336.439056 490.225739C1317.190933 509.473862,1306.375015 535.578644,1306.375015 562.801666C1306.375015 590.024689,1317.190933 616.129471,1336.439056 635.377594C1355.687180 654.625717,1381.791962 665.441635,1409.014984 665.441635C1436.238007 665.441635,1462.342789 654.625717,1481.590912 635.377594C1500.839035 616.129471,1511.654953 590.024689,1511.654953 562.801666Z" style="stroke:rgb(25.500488%,41.000366%,88.400269%); stroke-width: 2.500000;stroke-linecap: round;stroke-linejoin: round;stroke-miterlimit: 10.000000;fill: none;"></path>
  <path d="M1393.534653 461.926422C1393.534653 434.703400,1382.718735 408.598618,1363.470612 389.350494C1344.222488 370.102371,1318.117706 359.286453,1290.894684 359.286453C1263.671661 359.286453,1237.566879 370.102371,1218.318756 389.350494C1199.070633 408.598618,1188.254715 434.703400,1188.254715 461.926422C1188.254715 489.149445,1199.070633 515.254227,1218.318756 534.502350C1237.566879 553.750473,1263.671661 564.566391,1290.894684 564.566391C1318.117706 564.566391,1344.222488 553.750473,1363.470612 534.502350C1382.718735 515.254227,1393.534653 489.149445,1393.534653 461.926422Z" style="stroke:rgb(25.500488%,41.000366%,88.400269%); stroke-width: 2.500000;stroke-linecap: round;stroke-linejoin: round;stroke-miterlimit: 10.000000;fill: none;"></path>
  <path d="M1257.157150 353.057999C1257.157150 325.834976,1246.341232 299.730194,1227.093109 280.482071C1207.844986 261.233948,1181.740204 250.418030,1154.517181 250.418030C1127.294159 250.418030,1101.189377 261.233948,1081.941254 280.482071C1062.693130 299.730194,1051.877213 325.834976,1051.877213 353.057999C1051.877213 380.281021,1062.693130 406.385803,1081.941254 425.633926C1101.189377 444.882050,1127.294159 455.697968,1154.517181 455.697968C1181.740204 455.697968,1207.844986 444.882050,1227.093109 425.633926C1246.341232 406.385803,1257.157150 380.281021,1257.157150 353.057999Z" style="stroke:rgb(25.500488%,41.000366%,88.400269%); stroke-width: 2.500000;stroke-linecap: round;stroke-linejoin: round;stroke-miterlimit: 10.000000;fill: none;"></path>
  <path d="M1097.215286 245.720718C1097.215286 218.497696,1086.399368 192.392914,1067.151245 173.144791C1047.903122 153.896667,1021.798340 143.080750,994.575317 143.080750C967.352295 143.080750,941.247513 153.896667,921.999390 173.144791C902.751266 192.392914,891.935349 218.497696,891.935349 245.720718C891.935349 272.943741,902.751266 299.048523,921.999390 318.296646C941.247513 337.544769,967.352295 348.360687,994.575317 348.360687C1021.798340 348.360687,1047.903122 337.544769,1067.151245 318.296646C1086.399368 299.048523,1097.215286 272.943741,1097.215286 245.720718Z" style="stroke:rgb(25.500488%,41.000366%,88.400269%); stroke-width: 2.500000;stroke-linecap: round;stroke-linejoin: round;stroke-miterlimit: 10.000000;fill: none;"></path>
  <path d="M958.657822 108.824188C958.657822 81.601166,947.841904 55.496384,928.593781 36.248260C909.345657 17.000137,883.240875 6.184219,856.017853 6.184219C828.794830 6.184219,802.690048 17.000137,783.441925 36.248260C764.193802 55.496384,753.377884 81.601166,753.377884 108.824188C753.377884 136.047211,764.193802 162.151993,783.441925 181.400116C802.690048 200.648239,828.794830 211.464157,856.017853 211.464157C883.240875 211.464157,909.345657 200.648239,928.593781 181.400116C947.841904 162.151993,958.657822 136.047211,958.657822 108.824188Z" style="stroke:rgb(25.500488%,41.000366%,88.400269%); stroke-width: 2.500000;stroke-linecap: round;stroke-linejoin: round;stroke-miterlimit: 10.000000;fill: none;"></path>
  <path d="M1723.461807 1010.589600C1723.461807 983.366577,1712.645889 957.261795,1693.397766 938.013672C1674.149643 918.765549,1648.044861 907.949631,1620.821838 907.949631C1593.598816 907.949631,1567.494034 918.765549,1548.245911 938.013672C1528.997787 957.261795,1518.181870 983.366577,1518.181870 1010.589600C1518.181870 1037.812622,1528.997787 1063.917404,1548.245911 1083.165527C1567.494034 1102.413651,1593.598816 1113.229568,1620.821838 1113.229568C1648.044861 1113.229568,1674.149643 1102.413651,1693.397766 1083.165527C1712.645889 1063.917404,1723.461807 1037.812622,1723.461807 1010.589600Z" style="stroke:rgb(25.500488%,41.000366%,88.400269%); stroke-width: 2.500000;stroke-linecap: round;stroke-linejoin: round;stroke-miterlimit: 10.000000;fill: none;"></path>
  <path d="M1595.518692 868.904922C1595.518692 841.681900,1584.702774 815.577118,1565.454651 796.328995C1546.206528 777.080872,1520.101746 766.264954,1492.878723 766.264954C1465.655701 766.264954,1439.550919 777.080872,1420.302795 796.328995C1401.054672 815.577118,1390.238754 841.681900,1390.238754 868.904922C1390.238754 896.127945,1401.054672 922.232727,1420.302795 941.480850C1439.550919 960.728973,1465.655701 971.544891,1492.878723 971.544891C1520.101746 971.544891,1546.206528 960.728973,1565.454651 941.480850C1584.702774 922.232727,1595.518692 896.127945,1595.518692 868.904922Z" style="stroke:rgb(25.500488%,41.000366%,88.400269%); stroke-width: 2.500000;stroke-linecap: round;stroke-linejoin: round;stroke-miterlimit: 10.000000;fill: none;"></path>
  <path d="M1482.082718 745.555298C1482.082718 718.332275,1471.266800 692.227493,1452.018677 672.979370C1432.770554 653.731247,1406.665771 642.915329,1379.442749 642.915329C1352.219727 642.915329,1326.114944 653.731247,1306.866821 672.979370C1287.618698 692.227493,1276.802780 718.332275,1276.802780 745.555298C1276.802780 772.778320,1287.618698 798.883102,1306.866821 818.131226C1326.114944 837.379349,1352.219727 848.195267,1379.442749 848.195267C1406.665771 848.195267,1432.770554 837.379349,1452.018677 818.131226C1471.266800 798.883102,1482.082718 772.778320,1482.082718 745.555298Z" style="stroke:rgb(25.500488%,41.000366%,88.400269%); stroke-width: 2.500000;stroke-linecap: round;stroke-linejoin: round;stroke-miterlimit: 10.000000;fill: none;"></path>
  <path d="M1350.623108 641.085724C1350.623108 613.862701,1339.807190 587.757919,1320.559067 568.509796C1301.310944 549.261673,1275.206161 538.445755,1247.983139 538.445755C1220.760117 538.445755,1194.655334 549.261673,1175.407211 568.509796C1156.159088 587.757919,1145.343170 613.862701,1145.343170 641.085724C1145.343170 668.308746,1156.159088 694.413528,1175.407211 713.661652C1194.655334 732.909775,1220.760117 743.725693,1247.983139 743.725693C1275.206161 743.725693,1301.310944 732.909775,1320.559067 713.661652C1339.807190 694.413528,1350.623108 668.308746,1350.623108 641.085724Z" style="stroke:rgb(25.500488%,41.000366%,88.400269%); stroke-width: 2.500000;stroke-linecap: round;stroke-linejoin: round;stroke-miterlimit: 10.000000;fill: none;"></path>
  <path d="M1226.209457 528.090927C1226.209457 500.867905,1215.393539 474.763123,1196.145416 455.514999C1176.897293 436.266876,1150.792511 425.450958,1123.569489 425.450958C1096.346466 425.450958,1070.241684 436.266876,1050.993561 455.514999C1031.745438 474.763123,1020.929520 500.867905,1020.929520 528.090927C1020.929520 555.313950,1031.745438 581.418732,1050.993561 600.666855C1070.241684 619.914978,1096.346466 630.730896,1123.569489 630.730896C1150.792511 630.730896,1176.897293 619.914978,1196.145416 600.666855C1215.393539 581.418732,1226.209457 555.313950,1226.209457 528.090927Z" style="stroke:rgb(25.500488%,41.000366%,88.400269%); stroke-width: 2.500000;stroke-linecap: round;stroke-linejoin: round;stroke-miterlimit: 10.000000;fill: none;"></path>
  <path d="M1091.376099 407.427322C1091.376099 380.204300,1080.560181 354.099518,1061.312057 334.851395C1042.063934 315.603271,1015.959152 304.787354,988.736130 304.787354C961.513107 304.787354,935.408325 315.603271,916.160202 334.851395C896.912079 354.099518,886.096161 380.204300,886.096161 407.427322C886.096161 434.650345,896.912079 460.755127,916.160202 480.003250C935.408325 499.251373,961.513107 510.067291,988.736130 510.067291C1015.959152 510.067291,1042.063934 499.251373,1061.312057 480.003250C1080.560181 460.755127,1091.376099 434.650345,1091.376099 407.427322Z" style="stroke:rgb(25.500488%,41.000366%,88.400269%); stroke-width: 2.500000;stroke-linecap: round;stroke-linejoin: round;stroke-miterlimit: 10.000000;fill: none;"></path>
  <path d="M948.160248 285.699707C948.160248 258.476685,937.344330 232.371902,918.096207 213.123779C898.848083 193.875656,872.743301 183.059738,845.520279 183.059738C818.297256 183.059738,792.192474 193.875656,772.944351 213.123779C753.696228 232.371902,742.880310 258.476685,742.880310 285.699707C742.880310 312.922729,753.696228 339.027512,772.944351 358.275635C792.192474 377.523758,818.297256 388.339676,845.520279 388.339676C872.743301 388.339676,898.848083 377.523758,918.096207 358.275635C937.344330 339.027512,948.160248 312.922729,948.160248 285.699707Z" style="stroke:rgb(25.500488%,41.000366%,88.400269%); stroke-width: 2.500000;stroke-linecap: round;stroke-linejoin: round;stroke-miterlimit: 10.000000;fill: none;"></path>
  <path d="M816.129700 160.196075C816.129700 132.973053,805.313782 106.868271,786.065659 87.620148C766.817535 68.372025,740.712753 57.556107,713.489731 57.556107C686.266708 57.556107,660.161926 68.372025,640.913803 87.620148C621.665680 106.868271,610.849762 132.973053,610.849762 160.196075C610.849762 187.419098,621.665680 213.523880,640.913803 232.772003C660.161926 252.020126,686.266708 262.836044,713.489731 262.836044C740.712753 262.836044,766.817535 252.020126,786.065659 232.772003C805.313782 213.523880,816.129700 187.419098,816.129700 160.196075Z" style="stroke:rgb(25.500488%,41.000366%,88.400269%); stroke-width: 2.500000;stroke-linecap: round;stroke-linejoin: round;stroke-miterlimit: 10.000000;fill: none;"></path>
  <path d="M1692.825531 1170.427658C1692.825531 1143.204636,1682.009613 1117.099854,1662.761490 1097.851730C1643.513367 1078.603607,1617.408585 1067.787689,1590.185562 1067.787689C1562.962540 1067.787689,1536.857758 1078.603607,1517.609634 1097.851730C1498.361511 1117.099854,1487.545593 1143.204636,1487.545593 1170.427658C1487.545593 1197.650681,1498.361511 1223.755463,1517.609634 1243.003586C1536.857758 1262.251709,1562.962540 1273.067627,1590.185562 1273.067627C1617.408585 1273.067627,1643.513367 1262.251709,1662.761490 1243.003586C1682.009613 1223.755463,1692.825531 1197.650681,1692.825531 1170.427658Z" style="stroke:rgb(25.500488%,41.000366%,88.400269%); stroke-width: 2.500000;stroke-linecap: round;stroke-linejoin: round;stroke-miterlimit: 10.000000;fill: none;"></path>
  <path d="M1563.597794 1042.017410C1563.597794 1014.794388,1552.781876 988.689606,1533.533752 969.441483C1514.285629 950.193359,1488.180847 939.377441,1460.957825 939.377441C1433.734802 939.377441,1407.630020 950.193359,1388.381897 969.441483C1369.133774 988.689606,1358.317856 1014.794388,1358.317856 1042.017410C1358.317856 1069.240433,1369.133774 1095.345215,1388.381897 1114.593338C1407.630020 1133.841461,1433.734802 1144.657379,1460.957825 1144.657379C1488.180847 1144.657379,1514.285629 1133.841461,1533.533752 1114.593338C1552.781876 1095.345215,1563.597794 1069.240433,1563.597794 1042.017410Z" style="stroke:rgb(25.500488%,41.000366%,88.400269%); stroke-width: 2.500000;stroke-linecap: round;stroke-linejoin: round;stroke-miterlimit: 10.000000;fill: none;"></path>
  <path d="M1435.239441 930.683533C1435.239441 903.460510,1424.423523 877.355728,1405.175400 858.107605C1385.927277 838.859482,1359.822495 828.043564,1332.599472 828.043564C1305.376450 828.043564,1279.271667 838.859482,1260.023544 858.107605C1240.775421 877.355728,1229.959503 903.460510,1229.959503 930.683533C1229.959503 957.906555,1240.775421 984.011337,1260.023544 1003.259460C1279.271667 1022.507584,1305.376450 1033.323502,1332.599472 1033.323502C1359.822495 1033.323502,1385.927277 1022.507584,1405.175400 1003.259460C1424.423523 984.011337,1435.239441 957.906555,1435.239441 930.683533Z" style="stroke:rgb(25.500488%,41.000366%,88.400269%); stroke-width: 2.500000;stroke-linecap: round;stroke-linejoin: round;stroke-miterlimit: 10.000000;fill: none;"></path>
  <path d="M1319.688385 822.879135C1319.688385 795.656113,1308.872467 769.551331,1289.624344 750.303207C1270.376221 731.055084,1244.271439 720.239166,1217.048416 720.239166C1189.825394 720.239166,1163.720612 731.055084,1144.472488 750.303207C1125.224365 769.551331,1114.408447 795.656113,1114.408447 822.879135C1114.408447 850.102158,1125.224365 876.206940,1144.472488 895.455063C1163.720612 914.703186,1189.825394 925.519104,1217.048416 925.519104C1244.271439 925.519104,1270.376221 914.703186,1289.624344 895.455063C1308.872467 876.206940,1319.688385 850.102158,1319.688385 822.879135Z" style="stroke:rgb(25.500488%,41.000366%,88.400269%); stroke-width: 2.500000;stroke-linecap: round;stroke-linejoin: round;stroke-miterlimit: 10.000000;fill: none;"></path>
  <path d="M1189.435532 707.626526C1189.435532 680.403503,1178.619614 654.298721,1159.371490 635.050598C1140.123367 615.802475,1114.018585 604.986557,1086.795563 604.986557C1059.572540 604.986557,1033.467758 615.802475,1014.219635 635.050598C994.971512 654.298721,984.155594 680.403503,984.155594 707.626526C984.155594 734.849548,994.971512 760.954330,1014.219635 780.202454C1033.467758 799.450577,1059.572540 810.266495,1086.795563 810.266495C1114.018585 810.266495,1140.123367 799.450577,1159.371490 780.202454C1178.619614 760.954330,1189.435532 734.849548,1189.435532 707.626526Z" style="stroke:rgb(25.500488%,41.000366%,88.400269%); stroke-width: 2.500000;stroke-linecap: round;stroke-linejoin: round;stroke-miterlimit: 10.000000;fill: none;"></path>
  <path d="M1062.777039 584.367737C1062.777039 557.144714,1051.961121 531.039932,1032.712997 511.791809C1013.464874 492.543686,987.360092 481.727768,960.137070 481.727768C932.914047 481.727768,906.809265 492.543686,887.561142 511.791809C868.313019 531.039932,857.497101 557.144714,857.497101 584.367737C857.497101 611.590759,868.313019 637.695541,887.561142 656.943665C906.809265 676.191788,932.914047 687.007706,960.137070 687.007706C987.360092 687.007706,1013.464874 676.191788,1032.712997 656.943665C1051.961121 637.695541,1062.777039 611.590759,1062.777039 584.367737Z" style="stroke:rgb(25.500488%,41.000366%,88.400269%); stroke-width: 2.500000;stroke-linecap: round;stroke-linejoin: round;stroke-miterlimit: 10.000000;fill: none;"></path>
  <path d="M930.344238 459.266357C930.344238 432.043335,919.528320 405.938553,900.280197 386.690430C881.032074 367.442307,854.927292 356.626389,827.704269 356.626389C800.481247 356.626389,774.376465 367.442307,755.128342 386.690430C735.880219 405.938553,725.064301 432.043335,725.064301 459.266357C725.064301 486.489380,735.880219 512.594162,755.128342 531.842285C774.376465 551.090408,800.481247 561.906326,827.704269 561.906326C854.927292 561.906326,881.032074 551.090408,900.280197 531.842285C919.528320 512.594162,930.344238 486.489380,930.344238 459.266357Z" style="stroke:rgb(25.500488%,41.000366%,88.400269%); stroke-width: 2.500000;stroke-linecap: round;stroke-linejoin: round;stroke-miterlimit: 10.000000;fill: none;"></path>
  <path d="M799.066299 346.621902C799.066299 319.398880,788.250381 293.294098,769.002258 274.045975C749.754135 254.797852,723.649353 243.981934,696.426331 243.981934C669.203308 243.981934,643.098526 254.797852,623.850403 274.045975C604.602280 293.294098,593.786362 319.398880,593.786362 346.621902C593.786362 373.844925,604.602280 399.949707,623.850403 419.197830C643.098526 438.445953,669.203308 449.261871,696.426331 449.261871C723.649353 449.261871,749.754135 438.445953,769.002258 419.197830C788.250381 399.949707,799.066299 373.844925,799.066299 346.621902Z" style="stroke:rgb(25.500488%,41.000366%,88.400269%); stroke-width: 2.500000;stroke-linecap: round;stroke-linejoin: round;stroke-miterlimit: 10.000000;fill: none;"></path>
  <path d="M664.868759 230.279312C664.868759 203.056290,654.052841 176.951508,634.804718 157.703384C615.556595 138.455261,589.451813 127.639343,562.228790 127.639343C535.005768 127.639343,508.900986 138.455261,489.652863 157.703384C470.404739 176.951508,459.588821 203.056290,459.588821 230.279312C459.588821 257.502335,470.404739 283.607117,489.652863 302.855240C508.900986 322.103363,535.005768 332.919281,562.228790 332.919281C589.451813 332.919281,615.556595 322.103363,634.804718 302.855240C654.052841 283.607117,664.868759 257.502335,664.868759 230.279312Z" style="stroke:rgb(25.500488%,41.000366%,88.400269%); stroke-width: 2.500000;stroke-linecap: round;stroke-linejoin: round;stroke-miterlimit: 10.000000;fill: none;"></path>
  <path d="M1545.522263 1229.766800C1545.522263 1202.543777,1534.706345 1176.438995,1515.458221 1157.190872C1496.210098 1137.942749,1470.105316 1127.126831,1442.882294 1127.126831C1415.659271 1127.126831,1389.554489 1137.942749,1370.306366 1157.190872C1351.058243 1176.438995,1340.242325 1202.543777,1340.242325 1229.766800C1340.242325 1256.989822,1351.058243 1283.094604,1370.306366 1302.342728C1389.554489 1321.590851,1415.659271 1332.406769,1442.882294 1332.406769C1470.105316 1332.406769,1496.210098 1321.590851,1515.458221 1302.342728C1534.706345 1283.094604,1545.522263 1256.989822,1545.522263 1229.766800Z" style="stroke:rgb(25.500488%,41.000366%,88.400269%); stroke-width: 2.500000;stroke-linecap: round;stroke-linejoin: round;stroke-miterlimit: 10.000000;fill: none;"></path>
  <path d="M1412.323868 1119.847305C1412.323868 1092.624283,1401.507950 1066.519501,1382.259827 1047.271378C1363.011703 1028.023254,1336.906921 1017.207336,1309.683899 1017.207336C1282.460876 1017.207336,1256.356094 1028.023254,1237.107971 1047.271378C1217.859848 1066.519501,1207.043930 1092.624283,1207.043930 1119.847305C1207.043930 1147.070328,1217.859848 1173.175110,1237.107971 1192.423233C1256.356094 1211.671356,1282.460876 1222.487274,1309.683899 1222.487274C1336.906921 1222.487274,1363.011703 1211.671356,1382.259827 1192.423233C1401.507950 1173.175110,1412.323868 1147.070328,1412.323868 1119.847305Z" style="stroke:rgb(25.500488%,41.000366%,88.400269%); stroke-width: 2.500000;stroke-linecap: round;stroke-linejoin: round;stroke-miterlimit: 10.000000;fill: none;"></path>
  <path d="M1283.693024 1010.991852C1283.693024 983.768829,1272.877106 957.664047,1253.628983 938.415924C1234.380859 919.167801,1208.276077 908.351883,1181.053055 908.351883C1153.830032 908.351883,1127.725250 919.167801,1108.477127 938.415924C1089.229004 957.664047,1078.413086 983.768829,1078.413086 1010.991852C1078.413086 1038.214874,1089.229004 1064.319656,1108.477127 1083.567780C1127.725250 1102.815903,1153.830032 1113.631821,1181.053055 1113.631821C1208.276077 1113.631821,1234.380859 1102.815903,1253.628983 1083.567780C1272.877106 1064.319656,1283.693024 1038.214874,1283.693024 1010.991852Z" style="stroke:rgb(25.500488%,41.000366%,88.400269%); stroke-width: 2.500000;stroke-linecap: round;stroke-linejoin: round;stroke-miterlimit: 10.000000;fill: none;"></path>
  <path d="M1164.145370 893.195938C1164.145370 865.972916,1153.329453 839.868134,1134.081329 820.620010C1114.833206 801.371887,1088.728424 790.555969,1061.505402 790.555969C1034.282379 790.555969,1008.177597 801.371887,988.929474 820.620010C969.681351 839.868134,958.865433 865.972916,958.865433 893.195938C958.865433 920.418961,969.681351 946.523743,988.929474 965.771866C1008.177597 985.019989,1034.282379 995.835907,1061.505402 995.835907C1088.728424 995.835907,1114.833206 985.019989,1134.081329 965.771866C1153.329453 946.523743,1164.145370 920.418961,1164.145370 893.195938Z" style="stroke:rgb(25.500488%,41.000366%,88.400269%); stroke-width: 2.500000;stroke-linecap: round;stroke-linejoin: round;stroke-miterlimit: 10.000000;fill: none;"></path>
  <path d="M1035.410706 770.521072C1035.410706 743.298050,1024.594788 717.193268,1005.346664 697.945145C986.098541 678.697021,959.993759 667.881104,932.770737 667.881104C905.547714 667.881104,879.442932 678.697021,860.194809 697.945145C840.946686 717.193268,830.130768 743.298050,830.130768 770.521072C830.130768 797.744095,840.946686 823.848877,860.194809 843.097000C879.442932 862.345123,905.547714 873.161041,932.770737 873.161041C959.993759 873.161041,986.098541 862.345123,1005.346664 843.097000C1024.594788 823.848877,1035.410706 797.744095,1035.410706 770.521072Z" style="stroke:rgb(25.500488%,41.000366%,88.400269%); stroke-width: 2.500000;stroke-linecap: round;stroke-linejoin: round;stroke-miterlimit: 10.000000;fill: none;"></path>
  <path d="M909.790298 643.317581C909.790298 616.094559,898.974380 589.989777,879.726257 570.741653C860.478134 551.493530,834.373352 540.677612,807.150330 540.677612C779.927307 540.677612,753.822525 551.493530,734.574402 570.741653C715.326279 589.989777,704.510361 616.094559,704.510361 643.317581C704.510361 670.540604,715.326279 696.645386,734.574402 715.893509C753.822525 735.141632,779.927307 745.957550,807.150330 745.957550C834.373352 745.957550,860.478134 735.141632,879.726257 715.893509C898.974380 696.645386,909.790298 670.540604,909.790298 643.317581Z" style="stroke:rgb(25.500488%,41.000366%,88.400269%); stroke-width: 2.500000;stroke-linecap: round;stroke-linejoin: round;stroke-miterlimit: 10.000000;fill: none;"></path>
  <path d="M777.617004 533.904160C777.617004 506.681137,766.801086 480.576355,747.552963 461.328232C728.304840 442.080109,702.200058 431.264191,674.977036 431.264191C647.754013 431.264191,621.649231 442.080109,602.401108 461.328232C583.152985 480.576355,572.337067 506.681137,572.337067 533.904160C572.337067 561.127182,583.152985 587.231964,602.401108 606.480087C621.649231 625.728210,647.754013 636.544128,674.977036 636.544128C702.200058 636.544128,728.304840 625.728210,747.552963 606.480087C766.801086 587.231964,777.617004 561.127182,777.617004 533.904160Z" style="stroke:rgb(25.500488%,41.000366%,88.400269%); stroke-width: 2.500000;stroke-linecap: round;stroke-linejoin: round;stroke-miterlimit: 10.000000;fill: none;"></path>
  <path d="M647.169525 416.354797C647.169525 389.131775,636.353607 363.026993,617.105484 343.778870C597.857361 324.530746,571.752579 313.714828,544.529556 313.714828C517.306534 313.714828,491.201752 324.530746,471.953629 343.778870C452.705505 363.026993,441.889587 389.131775,441.889587 416.354797C441.889587 443.577820,452.705505 469.682602,471.953629 488.930725C491.201752 508.178848,517.306534 518.994766,544.529556 518.994766C571.752579 518.994766,597.857361 508.178848,617.105484 488.930725C636.353607 469.682602,647.169525 443.577820,647.169525 416.354797Z" style="stroke:rgb(25.500488%,41.000366%,88.400269%); stroke-width: 2.500000;stroke-linecap: round;stroke-linejoin: round;stroke-miterlimit: 10.000000;fill: none;"></path>
  <path d="M512.452957 303.035614C512.452957 275.812592,501.637039 249.707809,482.388916 230.459686C463.140793 211.211563,437.036011 200.395645,409.812988 200.395645C382.589966 200.395645,356.485184 211.211563,337.237061 230.459686C317.988937 249.707809,307.173019 275.812592,307.173019 303.035614C307.173019 330.258636,317.988937 356.363419,337.237061 375.611542C356.485184 394.859665,382.589966 405.675583,409.812988 405.675583C437.036011 405.675583,463.140793 394.859665,482.388916 375.611542C501.637039 356.363419,512.452957 330.258636,512.452957 303.035614Z" style="stroke:rgb(25.500488%,41.000366%,88.400269%); stroke-width: 2.500000;stroke-linecap: round;stroke-linejoin: round;stroke-miterlimit: 10.000000;fill: none;"></path>
  <path d="M1520.725174 1386.879898C1520.725174 1359.656876,1509.909256 1333.552094,1490.661133 1314.303970C1471.413010 1295.055847,1445.308228 1284.239929,1418.085205 1284.239929C1390.862183 1284.239929,1364.757401 1295.055847,1345.509277 1314.303970C1326.261154 1333.552094,1315.445236 1359.656876,1315.445236 1386.879898C1315.445236 1414.102921,1326.261154 1440.207703,1345.509277 1459.455826C1364.757401 1478.703949,1390.862183 1489.519867,1418.085205 1489.519867C1445.308228 1489.519867,1471.413010 1478.703949,1490.661133 1459.455826C1509.909256 1440.207703,1520.725174 1414.102921,1520.725174 1386.879898Z" style="stroke:rgb(25.500488%,41.000366%,88.400269%); stroke-width: 2.500000;stroke-linecap: round;stroke-linejoin: round;stroke-miterlimit: 10.000000;fill: none;"></path>
  <path d="M1371.475494 1290.624115C1371.475494 1263.401093,1360.659576 1237.296310,1341.411453 1218.048187C1322.163330 1198.800064,1296.058548 1187.984146,1268.835526 1187.984146C1241.612503 1187.984146,1215.507721 1198.800064,1196.259598 1218.048187C1177.011475 1237.296310,1166.195557 1263.401093,1166.195557 1290.624115C1166.195557 1317.847137,1177.011475 1343.951920,1196.259598 1363.200043C1215.507721 1382.448166,1241.612503 1393.264084,1268.835526 1393.264084C1296.058548 1393.264084,1322.163330 1382.448166,1341.411453 1363.200043C1360.659576 1343.951920,1371.475494 1317.847137,1371.475494 1290.624115Z" style="stroke:rgb(25.500488%,41.000366%,88.400269%); stroke-width: 2.500000;stroke-linecap: round;stroke-linejoin: round;stroke-miterlimit: 10.000000;fill: none;"></path>
  <path d="M1249.267761 1192.798248C1249.267761 1165.575226,1238.451843 1139.470444,1219.203720 1120.222321C1199.955597 1100.974197,1173.850815 1090.158279,1146.627792 1090.158279C1119.404770 1090.158279,1093.299988 1100.974197,1074.051865 1120.222321C1054.803741 1139.470444,1043.987823 1165.575226,1043.987823 1192.798248C1043.987823 1220.021271,1054.803741 1246.126053,1074.051865 1265.374176C1093.299988 1284.622299,1119.404770 1295.438217,1146.627792 1295.438217C1173.850815 1295.438217,1199.955597 1284.622299,1219.203720 1265.374176C1238.451843 1246.126053,1249.267761 1220.021271,1249.267761 1192.798248Z" style="stroke:rgb(25.500488%,41.000366%,88.400269%); stroke-width: 2.500000;stroke-linecap: round;stroke-linejoin: round;stroke-miterlimit: 10.000000;fill: none;"></path>
  <path d="M1121.558212 1076.818970C1121.558212 1049.595947,1110.742294 1023.491165,1091.494171 1004.243042C1072.246048 984.994919,1046.141266 974.179001,1018.918243 974.179001C991.695221 974.179001,965.590439 984.994919,946.342316 1004.243042C927.094193 1023.491165,916.278275 1049.595947,916.278275 1076.818970C916.278275 1104.041992,927.094193 1130.146774,946.342316 1149.394897C965.590439 1168.643021,991.695221 1179.458939,1018.918243 1179.458939C1046.141266 1179.458939,1072.246048 1168.643021,1091.494171 1149.394897C1110.742294 1130.146774,1121.558212 1104.041992,1121.558212 1076.818970Z" style="stroke:rgb(25.500488%,41.000366%,88.400269%); stroke-width: 2.500000;stroke-linecap: round;stroke-linejoin: round;stroke-miterlimit: 10.000000;fill: none;"></path>
  <path d="M1003.515762 951.600815C1003.515762 924.377792,992.699844 898.273010,973.451721 879.024887C954.203598 859.776764,928.098816 848.960846,900.875793 848.960846C873.652771 848.960846,847.547989 859.776764,828.299866 879.024887C809.051743 898.273010,798.235825 924.377792,798.235825 951.600815C798.235825 978.823837,809.051743 1004.928619,828.299866 1024.176743C847.547989 1043.424866,873.652771 1054.240784,900.875793 1054.240784C928.098816 1054.240784,954.203598 1043.424866,973.451721 1024.176743C992.699844 1004.928619,1003.515762 978.823837,1003.515762 951.600815Z" style="stroke:rgb(25.500488%,41.000366%,88.400269%); stroke-width: 2.500000;stroke-linecap: round;stroke-linejoin: round;stroke-miterlimit: 10.000000;fill: none;"></path>
  <path d="M880.075302 827.952744C880.075302 800.729721,869.259384 774.624939,850.011261 755.376816C830.763138 736.128693,804.658356 725.312775,777.435333 725.312775C750.212311 725.312775,724.107529 736.128693,704.859406 755.376816C685.611282 774.624939,674.795364 800.729721,674.795364 827.952744C674.795364 855.175766,685.611282 881.280548,704.859406 900.528671C724.107529 919.776794,750.212311 930.592712,777.435333 930.592712C804.658356 930.592712,830.763138 919.776794,850.011261 900.528671C869.259384 881.280548,880.075302 855.175766,880.075302 827.952744Z" style="stroke:rgb(25.500488%,41.000366%,88.400269%); stroke-width: 2.500000;stroke-linecap: round;stroke-linejoin: round;stroke-miterlimit: 10.000000;fill: none;"></path>
  <path d="M751.133041 717.630997C751.133041 690.407974,740.317123 664.303192,721.069000 645.055069C701.820877 625.806946,675.716095 614.991028,648.493073 614.991028C621.270050 614.991028,595.165268 625.806946,575.917145 645.055069C556.669022 664.303192,545.853104 690.407974,545.853104 717.630997C545.853104 744.854019,556.669022 770.958801,575.917145 790.206924C595.165268 809.455048,621.270050 820.270966,648.493073 820.270966C675.716095 820.270966,701.820877 809.455048,721.069000 790.206924C740.317123 770.958801,751.133041 744.854019,751.133041 717.630997Z" style="stroke:rgb(25.500488%,41.000366%,88.400269%); stroke-width: 2.500000;stroke-linecap: round;stroke-linejoin: round;stroke-miterlimit: 10.000000;fill: none;"></path>
  <path d="M620.179504 600.237350C620.179504 573.014328,609.363586 546.909546,590.115463 527.661423C570.867340 508.413300,544.762558 497.597382,517.539536 497.597382C490.316513 497.597382,464.211731 508.413300,444.963608 527.661423C425.715485 546.909546,414.899567 573.014328,414.899567 600.237350C414.899567 627.460373,425.715485 653.565155,444.963608 672.813278C464.211731 692.061401,490.316513 702.877319,517.539536 702.877319C544.762558 702.877319,570.867340 692.061401,590.115463 672.813278C609.363586 653.565155,620.179504 627.460373,620.179504 600.237350Z" style="stroke:rgb(25.500488%,41.000366%,88.400269%); stroke-width: 2.500000;stroke-linecap: round;stroke-linejoin: round;stroke-miterlimit: 10.000000;fill: none;"></path>
  <path d="M489.212982 485.698410C489.212982 458.475388,478.397064 432.370605,459.148941 413.122482C439.900818 393.874359,413.796036 383.058441,386.573013 383.058441C359.349991 383.058441,333.245209 393.874359,313.997086 413.122482C294.748962 432.370605,283.933044 458.475388,283.933044 485.698410C283.933044 512.921432,294.748962 539.026215,313.997086 558.274338C333.245209 577.522461,359.349991 588.338379,386.573013 588.338379C413.796036 588.338379,439.900818 577.522461,459.148941 558.274338C478.397064 539.026215,489.212982 512.921432,489.212982 485.698410Z" style="stroke:rgb(25.500488%,41.000366%,88.400269%); stroke-width: 2.500000;stroke-linecap: round;stroke-linejoin: round;stroke-miterlimit: 10.000000;fill: none;"></path>
  <path d="M354.392593 373.066940C354.392593 345.843918,343.576675 319.739136,324.328552 300.491013C305.080429 281.242889,278.975647 270.426971,251.752625 270.426971C224.529602 270.426971,198.424820 281.242889,179.176697 300.491013C159.928574 319.739136,149.112656 345.843918,149.112656 373.066940C149.112656 400.289963,159.928574 426.394745,179.176697 445.642868C198.424820 464.890991,224.529602 475.706909,251.752625 475.706909C278.975647 475.706909,305.080429 464.890991,324.328552 445.642868C343.576675 426.394745,354.392593 400.289963,354.392593 373.066940Z" style="stroke:rgb(25.500488%,41.000366%,88.400269%); stroke-width: 2.500000;stroke-linecap: round;stroke-linejoin: round;stroke-miterlimit: 10.000000;fill: none;"></path>
  <path d="M1368.503998 1471.807663C1368.503998 1444.584641,1357.688080 1418.479858,1338.439957 1399.231735C1319.191833 1379.983612,1293.087051 1369.167694,1265.864029 1369.167694C1238.641006 1369.167694,1212.536224 1379.983612,1193.288101 1399.231735C1174.039978 1418.479858,1163.224060 1444.584641,1163.224060 1471.807663C1163.224060 1499.030685,1174.039978 1525.135468,1193.288101 1544.383591C1212.536224 1563.631714,1238.641006 1574.447632,1265.864029 1574.447632C1293.087051 1574.447632,1319.191833 1563.631714,1338.439957 1544.383591C1357.688080 1525.135468,1368.503998 1499.030685,1368.503998 1471.807663Z" style="stroke:rgb(25.500488%,41.000366%,88.400269%); stroke-width: 2.500000;stroke-linecap: round;stroke-linejoin: round;stroke-miterlimit: 10.000000;fill: none;"></path>
  <path d="M1219.163498 1383.337463C1219.163498 1356.114441,1208.347580 1330.009659,1189.099457 1310.761536C1169.851334 1291.513412,1143.746552 1280.697495,1116.523529 1280.697495C1089.300507 1280.697495,1063.195724 1291.513412,1043.947601 1310.761536C1024.699478 1330.009659,1013.883560 1356.114441,1013.883560 1383.337463C1013.883560 1410.560486,1024.699478 1436.665268,1043.947601 1455.913391C1063.195724 1475.161514,1089.300507 1485.977432,1116.523529 1485.977432C1143.746552 1485.977432,1169.851334 1475.161514,1189.099457 1455.913391C1208.347580 1436.665268,1219.163498 1410.560486,1219.163498 1383.337463Z" style="stroke:rgb(25.500488%,41.000366%,88.400269%); stroke-width: 2.500000;stroke-linecap: round;stroke-linejoin: round;stroke-miterlimit: 10.000000;fill: none;"></path>
  <path d="M1103.210190 1247.167572C1103.210190 1219.944550,1092.394272 1193.839767,1073.146149 1174.591644C1053.898026 1155.343521,1027.793243 1144.527603,1000.570221 1144.527603C973.347198 1144.527603,947.242416 1155.343521,927.994293 1174.591644C908.746170 1193.839767,897.930252 1219.944550,897.930252 1247.167572C897.930252 1274.390594,908.746170 1300.495377,927.994293 1319.743500C947.242416 1338.991623,973.347198 1349.807541,1000.570221 1349.807541C1027.793243 1349.807541,1053.898026 1338.991623,1073.146149 1319.743500C1092.394272 1300.495377,1103.210190 1274.390594,1103.210190 1247.167572Z" style="stroke:rgb(25.500488%,41.000366%,88.400269%); stroke-width: 2.500000;stroke-linecap: round;stroke-linejoin: round;stroke-miterlimit: 10.000000;fill: none;"></path>
  <path d="M957.165573 1128.904541C957.165573 1101.681519,946.349655 1075.576736,927.101532 1056.328613C907.853409 1037.080490,881.748627 1026.264572,854.525604 1026.264572C827.302582 1026.264572,801.197800 1037.080490,781.949677 1056.328613C762.701553 1075.576736,751.885635 1101.681519,751.885635 1128.904541C751.885635 1156.127563,762.701553 1182.232346,781.949677 1201.480469C801.197800 1220.728592,827.302582 1231.544510,854.525604 1231.544510C881.748627 1231.544510,907.853409 1220.728592,927.101532 1201.480469C946.349655 1182.232346,957.165573 1156.127563,957.165573 1128.904541Z" style="stroke:rgb(25.500488%,41.000366%,88.400269%); stroke-width: 2.500000;stroke-linecap: round;stroke-linejoin: round;stroke-miterlimit: 10.000000;fill: none;"></path>
  <path d="M835.749374 1004.802307C835.749374 977.579285,824.933456 951.474503,805.685333 932.226379C786.437210 912.978256,760.332428 902.162338,733.109406 902.162338C705.886383 902.162338,679.781601 912.978256,660.533478 932.226379C641.285355 951.474503,630.469437 977.579285,630.469437 1004.802307C630.469437 1032.025330,641.285355 1058.130112,660.533478 1077.378235C679.781601 1096.626358,705.886383 1107.442276,733.109406 1107.442276C760.332428 1107.442276,786.437210 1096.626358,805.685333 1077.378235C824.933456 1058.130112,835.749374 1032.025330,835.749374 1004.802307Z" style="stroke:rgb(25.500488%,41.000366%,88.400269%); stroke-width: 2.500000;stroke-linecap: round;stroke-linejoin: round;stroke-miterlimit: 10.000000;fill: none;"></path>
  <path d="M713.917938 896.803268C713.917938 869.580246,703.102020 843.475464,683.853897 824.227341C664.605774 804.979218,638.500992 794.163300,611.277969 794.163300C584.054947 794.163300,557.950165 804.979218,538.702042 824.227341C519.453918 843.475464,508.638000 869.580246,508.638000 896.803268C508.638000 924.026291,519.453918 950.131073,538.702042 969.379196C557.950165 988.627319,584.054947 999.443237,611.277969 999.443237C638.500992 999.443237,664.605774 988.627319,683.853897 969.379196C703.102020 950.131073,713.917938 924.026291,713.917938 896.803268Z" style="stroke:rgb(25.500488%,41.000366%,88.400269%); stroke-width: 2.500000;stroke-linecap: round;stroke-linejoin: round;stroke-miterlimit: 10.000000;fill: none;"></path>
  <path d="M586.169464 778.462372C586.169464 751.239349,575.353546 725.134567,556.105423 705.886444C536.857300 686.638321,510.752518 675.822403,483.529495 675.822403C456.306473 675.822403,430.201691 686.638321,410.953568 705.886444C391.705444 725.134567,380.889526 751.239349,380.889526 778.462372C380.889526 805.685394,391.705444 831.790176,410.953568 851.038300C430.201691 870.286423,456.306473 881.102341,483.529495 881.102341C510.752518 881.102341,536.857300 870.286423,556.105423 851.038300C575.353546 831.790176,586.169464 805.685394,586.169464 778.462372Z" style="stroke:rgb(25.500488%,41.000366%,88.400269%); stroke-width: 2.500000;stroke-linecap: round;stroke-linejoin: round;stroke-miterlimit: 10.000000;fill: none;"></path>
  <path d="M454.982361 662.314407C454.982361 635.091385,444.166443 608.986603,424.918320 589.738480C405.670197 570.490356,379.565414 559.674438,352.342392 559.674438C325.119370 559.674438,299.014587 570.490356,279.766464 589.738480C260.518341 608.986603,249.702423 635.091385,249.702423 662.314407C249.702423 689.537430,260.518341 715.642212,279.766464 734.890335C299.014587 754.138458,325.119370 764.954376,352.342392 764.954376C379.565414 764.954376,405.670197 754.138458,424.918320 734.890335C444.166443 715.642212,454.982361 689.537430,454.982361 662.314407Z" style="stroke:rgb(25.500488%,41.000366%,88.400269%); stroke-width: 2.500000;stroke-linecap: round;stroke-linejoin: round;stroke-miterlimit: 10.000000;fill: none;"></path>
  <path d="M322.264084 548.047974C322.264084 520.824951,311.448166 494.720169,292.200043 475.472046C272.951920 456.223923,246.847137 445.408005,219.624115 445.408005C192.401093 445.408005,166.296310 456.223923,147.048187 475.472046C127.800064 494.720169,116.984146 520.824951,116.984146 548.047974C116.984146 575.270996,127.800064 601.375778,147.048187 620.623901C166.296310 639.872025,192.401093 650.687943,219.624115 650.687943C246.847137 650.687943,272.951920 639.872025,292.200043 620.623901C311.448166 601.375778,322.264084 575.270996,322.264084 548.047974Z" style="stroke:rgb(25.500488%,41.000366%,88.400269%); stroke-width: 2.500000;stroke-linecap: round;stroke-linejoin: round;stroke-miterlimit: 10.000000;fill: none;"></path>
  <path d="M1294.099762 1558.863480C1294.099762 1531.640457,1283.283844 1505.535675,1264.035721 1486.287552C1244.787598 1467.039429,1218.682816 1456.223511,1191.459793 1456.223511C1164.236771 1456.223511,1138.131989 1467.039429,1118.883865 1486.287552C1099.635742 1505.535675,1088.819824 1531.640457,1088.819824 1558.863480C1088.819824 1586.086502,1099.635742 1612.191284,1118.883865 1631.439407C1138.131989 1650.687531,1164.236771 1661.503448,1191.459793 1661.503448C1218.682816 1661.503448,1244.787598 1650.687531,1264.035721 1631.439407C1283.283844 1612.191284,1294.099762 1586.086502,1294.099762 1558.863480Z" style="stroke:rgb(25.500488%,41.000366%,88.400269%); stroke-width: 2.500000;stroke-linecap: round;stroke-linejoin: round;stroke-miterlimit: 10.000000;fill: none;"></path>
  <path d="M1148.042175 1557.254456C1148.042175 1530.031433,1137.226257 1503.926651,1117.978134 1484.678528C1098.730011 1465.430405,1072.625229 1454.614487,1045.402206 1454.614487C1018.179184 1454.614487,992.074402 1465.430405,972.826279 1484.678528C953.578156 1503.926651,942.762238 1530.031433,942.762238 1557.254456C942.762238 1584.477478,953.578156 1610.582260,972.826279 1629.830383C992.074402 1649.078506,1018.179184 1659.894424,1045.402206 1659.894424C1072.625229 1659.894424,1098.730011 1649.078506,1117.978134 1629.830383C1137.226257 1610.582260,1148.042175 1584.477478,1148.042175 1557.254456Z" style="stroke:rgb(25.500488%,41.000366%,88.400269%); stroke-width: 2.500000;stroke-linecap: round;stroke-linejoin: round;stroke-miterlimit: 10.000000;fill: none;"></path>
  <path d="M1049.009537 1419.229019C1049.009537 1392.005997,1038.193619 1365.901215,1018.945496 1346.653091C999.697372 1327.404968,973.592590 1316.589050,946.369568 1316.589050C919.146545 1316.589050,893.041763 1327.404968,873.793640 1346.653091C854.545517 1365.901215,843.729599 1392.005997,843.729599 1419.229019C843.729599 1446.452042,854.545517 1472.556824,873.793640 1491.804947C893.041763 1511.053070,919.146545 1521.868988,946.369568 1521.868988C973.592590 1521.868988,999.697372 1511.053070,1018.945496 1491.804947C1038.193619 1472.556824,1049.009537 1446.452042,1049.009537 1419.229019Z" style="stroke:rgb(25.500488%,41.000366%,88.400269%); stroke-width: 2.500000;stroke-linecap: round;stroke-linejoin: round;stroke-miterlimit: 10.000000;fill: none;"></path>
  <path d="M932.446350 1284.797913C932.446350 1257.574890,921.630432 1231.470108,902.382309 1212.221985C883.134186 1192.973862,857.029404 1182.157944,829.806381 1182.157944C802.583359 1182.157944,776.478577 1192.973862,757.230453 1212.221985C737.982330 1231.470108,727.166412 1257.574890,727.166412 1284.797913C727.166412 1312.020935,737.982330 1338.125717,757.230453 1357.373840C776.478577 1376.621964,802.583359 1387.437881,829.806381 1387.437881C857.029404 1387.437881,883.134186 1376.621964,902.382309 1357.373840C921.630432 1338.125717,932.446350 1312.020935,932.446350 1284.797913Z" style="stroke:rgb(25.500488%,41.000366%,88.400269%); stroke-width: 2.500000;stroke-linecap: round;stroke-linejoin: round;stroke-miterlimit: 10.000000;fill: none;"></path>
  <path d="M780.134354 1172.815231C780.134354 1145.592209,769.318436 1119.487427,750.070312 1100.239304C730.822189 1080.991180,704.717407 1070.175262,677.494385 1070.175262C650.271362 1070.175262,624.166580 1080.991180,604.918457 1100.239304C585.670334 1119.487427,574.854416 1145.592209,574.854416 1172.815231C574.854416 1200.038254,585.670334 1226.143036,604.918457 1245.391159C624.166580 1264.639282,650.271362 1275.455200,677.494385 1275.455200C704.717407 1275.455200,730.822189 1264.639282,750.070312 1245.391159C769.318436 1226.143036,780.134354 1200.038254,780.134354 1172.815231Z" style="stroke:rgb(25.500488%,41.000366%,88.400269%); stroke-width: 2.500000;stroke-linecap: round;stroke-linejoin: round;stroke-miterlimit: 10.000000;fill: none;"></path>
  <path d="M667.321213 1076.157196C667.321213 1048.934174,656.505295 1022.829391,637.257172 1003.581268C618.009048 984.333145,591.904266 973.517227,564.681244 973.517227C537.458221 973.517227,511.353439 984.333145,492.105316 1003.581268C472.857193 1022.829391,462.041275 1048.934174,462.041275 1076.157196C462.041275 1103.380219,472.857193 1129.485001,492.105316 1148.733124C511.353439 1167.981247,537.458221 1178.797165,564.681244 1178.797165C591.904266 1178.797165,618.009048 1167.981247,637.257172 1148.733124C656.505295 1129.485001,667.321213 1103.380219,667.321213 1076.157196Z" style="stroke:rgb(25.500488%,41.000366%,88.400269%); stroke-width: 2.500000;stroke-linecap: round;stroke-linejoin: round;stroke-miterlimit: 10.000000;fill: none;"></path>
  <path d="M547.098801 955.947769C547.098801 928.724747,536.282883 902.619965,517.034760 883.371841C497.786636 864.123718,471.681854 853.307800,444.458832 853.307800C417.235809 853.307800,391.131027 864.123718,371.882904 883.371841C352.634781 902.619965,341.818863 928.724747,341.818863 955.947769C341.818863 983.170792,352.634781 1009.275574,371.882904 1028.523697C391.131027 1047.771820,417.235809 1058.587738,444.458832 1058.587738C471.681854 1058.587738,497.786636 1047.771820,517.034760 1028.523697C536.282883 1009.275574,547.098801 983.170792,547.098801 955.947769Z" style="stroke:rgb(25.500488%,41.000366%,88.400269%); stroke-width: 2.500000;stroke-linecap: round;stroke-linejoin: round;stroke-miterlimit: 10.000000;fill: none;"></path>
  <path d="M419.661743 835.387970C419.661743 808.164948,408.845825 782.060165,389.597702 762.812042C370.349579 743.563919,344.244797 732.748001,317.021774 732.748001C289.798752 732.748001,263.693970 743.563919,244.445847 762.812042C225.197723 782.060165,214.381805 808.164948,214.381805 835.387970C214.381805 862.610992,225.197723 888.715775,244.445847 907.963898C263.693970 927.212021,289.798752 938.027939,317.021774 938.027939C344.244797 938.027939,370.349579 927.212021,389.597702 907.963898C408.845825 888.715775,419.661743 862.610992,419.661743 835.387970Z" style="stroke:rgb(25.500488%,41.000366%,88.400269%); stroke-width: 2.500000;stroke-linecap: round;stroke-linejoin: round;stroke-miterlimit: 10.000000;fill: none;"></path>
  <path d="M285.853485 716.255539C285.853485 689.032516,275.037567 662.927734,255.789444 643.679611C236.541321 624.431488,210.436539 613.615570,183.213516 613.615570C155.990494 613.615570,129.885712 624.431488,110.637589 643.679611C91.389465 662.927734,80.573547 689.032516,80.573547 716.255539C80.573547 743.478561,91.389465 769.583344,110.637589 788.831467C129.885712 808.079590,155.990494 818.895508,183.213516 818.895508C210.436539 818.895508,236.541321 808.079590,255.789444 788.831467C275.037567 769.583344,285.853485 743.478561,285.853485 716.255539Z" style="stroke:rgb(25.500488%,41.000366%,88.400269%); stroke-width: 2.500000;stroke-linecap: round;stroke-linejoin: round;stroke-miterlimit: 10.000000;fill: none;"></path>
  <path d="M979.614014 1594.326828C979.614014 1567.103806,968.798096 1540.999023,949.549973 1521.750900C930.301849 1502.502777,904.197067 1491.686859,876.974045 1491.686859C849.751022 1491.686859,823.646240 1502.502777,804.398117 1521.750900C785.149994 1540.999023,774.334076 1567.103806,774.334076 1594.326828C774.334076 1621.549850,785.149994 1647.654633,804.398117 1666.902756C823.646240 1686.150879,849.751022 1696.966797,876.974045 1696.966797C904.197067 1696.966797,930.301849 1686.150879,949.549973 1666.902756C968.798096 1647.654633,979.614014 1621.549850,979.614014 1594.326828Z" style="stroke:rgb(25.500488%,41.000366%,88.400269%); stroke-width: 2.500000;stroke-linecap: round;stroke-linejoin: round;stroke-miterlimit: 10.000000;fill: none;"></path>
  <path d="M879.413528 1458.053131C879.413528 1430.830109,868.597610 1404.725327,849.349487 1385.477203C830.101364 1366.229080,803.996582 1355.413162,776.773560 1355.413162C749.550537 1355.413162,723.445755 1366.229080,704.197632 1385.477203C684.949509 1404.725327,674.133591 1430.830109,674.133591 1458.053131C674.133591 1485.276154,684.949509 1511.380936,704.197632 1530.629059C723.445755 1549.877182,749.550537 1560.693100,776.773560 1560.693100C803.996582 1560.693100,830.101364 1549.877182,849.349487 1530.629059C868.597610 1511.380936,879.413528 1485.276154,879.413528 1458.053131Z" style="stroke:rgb(25.500488%,41.000366%,88.400269%); stroke-width: 2.500000;stroke-linecap: round;stroke-linejoin: round;stroke-miterlimit: 10.000000;fill: none;"></path>
  <path d="M778.849731 1303.094025C778.849731 1275.871002,768.033813 1249.766220,748.785690 1230.518097C729.537567 1211.269974,703.432785 1200.454056,676.209763 1200.454056C648.986740 1200.454056,622.881958 1211.269974,603.633835 1230.518097C584.385712 1249.766220,573.569794 1275.871002,573.569794 1303.094025C573.569794 1330.317047,584.385712 1356.421829,603.633835 1375.669952C622.881958 1394.918076,648.986740 1405.733994,676.209763 1405.733994C703.432785 1405.733994,729.537567 1394.918076,748.785690 1375.669952C768.033813 1356.421829,778.849731 1330.317047,778.849731 1303.094025Z" style="stroke:rgb(25.500488%,41.000366%,88.400269%); stroke-width: 2.500000;stroke-linecap: round;stroke-linejoin: round;stroke-miterlimit: 10.000000;fill: none;"></path>
  <path d="M610.655136 1256.056122C610.655136 1228.833099,599.839218 1202.728317,580.591095 1183.480194C561.342972 1164.232071,535.238190 1153.416153,508.015167 1153.416153C480.792145 1153.416153,454.687363 1164.232071,435.439240 1183.480194C416.191116 1202.728317,405.375198 1228.833099,405.375198 1256.056122C405.375198 1283.279144,416.191116 1309.383926,435.439240 1328.632050C454.687363 1347.880173,480.792145 1358.696091,508.015167 1358.696091C535.238190 1358.696091,561.342972 1347.880173,580.591095 1328.632050C599.839218 1309.383926,610.655136 1283.279144,610.655136 1256.056122Z" style="stroke:rgb(25.500488%,41.000366%,88.400269%); stroke-width: 2.500000;stroke-linecap: round;stroke-linejoin: round;stroke-miterlimit: 10.000000;fill: none;"></path>
  <path d="M499.567810 1134.510162C499.567810 1107.287140,488.751892 1081.182358,469.503769 1061.934235C450.255646 1042.686111,424.150864 1031.870193,396.927841 1031.870193C369.704819 1031.870193,343.600037 1042.686111,324.351913 1061.934235C305.103790 1081.182358,294.287872 1107.287140,294.287872 1134.510162C294.287872 1161.733185,305.103790 1187.837967,324.351913 1207.086090C343.600037 1226.334213,369.704819 1237.150131,396.927841 1237.150131C424.150864 1237.150131,450.255646 1226.334213,469.503769 1207.086090C488.751892 1187.837967,499.567810 1161.733185,499.567810 1134.510162Z" style="stroke:rgb(25.500488%,41.000366%,88.400269%); stroke-width: 2.500000;stroke-linecap: round;stroke-linejoin: round;stroke-miterlimit: 10.000000;fill: none;"></path>
  <path d="M380.707870 1008.240936C380.707870 981.017914,369.891953 954.913132,350.643829 935.665009C331.395706 916.416885,305.290924 905.600967,278.067902 905.600967C250.844879 905.600967,224.740097 916.416885,205.491974 935.665009C186.243851 954.913132,175.427933 981.017914,175.427933 1008.240936C175.427933 1035.463959,186.243851 1061.568741,205.491974 1080.816864C224.740097 1100.064987,250.844879 1110.880905,278.067902 1110.880905C305.290924 1110.880905,331.395706 1100.064987,350.643829 1080.816864C369.891953 1061.568741,380.707870 1035.463959,380.707870 1008.240936Z" style="stroke:rgb(25.500488%,41.000366%,88.400269%); stroke-width: 2.500000;stroke-linecap: round;stroke-linejoin: round;stroke-miterlimit: 10.000000;fill: none;"></path>
  <path d="M251.142761 881.491608C251.142761 854.268585,240.326843 828.163803,221.078720 808.915680C201.830597 789.667557,175.725815 778.851639,148.502792 778.851639C121.279770 778.851639,95.174988 789.667557,75.926865 808.915680C56.678741 828.163803,45.862823 854.268585,45.862823 881.491608C45.862823 908.714630,56.678741 934.819412,75.926865 954.067535C95.174988 973.315659,121.279770 984.131577,148.502792 984.131577C175.725815 984.131577,201.830597 973.315659,221.078720 954.067535C240.326843 934.819412,251.142761 908.714630,251.142761 881.491608Z" style="stroke:rgb(25.500488%,41.000366%,88.400269%); stroke-width: 2.500000;stroke-linecap: round;stroke-linejoin: round;stroke-miterlimit: 10.000000;fill: none;"></path>
  <path d="M794.459824 1579.002197C794.459824 1551.779175,783.643906 1525.674393,764.395782 1506.426270C745.147659 1487.178146,719.042877 1476.362228,691.819855 1476.362228C664.596832 1476.362228,638.492050 1487.178146,619.243927 1506.426270C599.995804 1525.674393,589.179886 1551.779175,589.179886 1579.002197C589.179886 1606.225220,599.995804 1632.330002,619.243927 1651.578125C638.492050 1670.826248,664.596832 1681.642166,691.819855 1681.642166C719.042877 1681.642166,745.147659 1670.826248,764.395782 1651.578125C783.643906 1632.330002,794.459824 1606.225220,794.459824 1579.002197Z" style="stroke:rgb(25.500488%,41.000366%,88.400269%); stroke-width: 2.500000;stroke-linecap: round;stroke-linejoin: round;stroke-miterlimit: 10.000000;fill: none;"></path>
  <path d="M692.909836 1421.149460C692.909836 1393.926437,682.093918 1367.821655,662.845795 1348.573532C643.597672 1329.325409,617.492889 1318.509491,590.269867 1318.509491C563.046844 1318.509491,536.942062 1329.325409,517.693939 1348.573532C498.445816 1367.821655,487.629898 1393.926437,487.629898 1421.149460C487.629898 1448.372482,498.445816 1474.477264,517.693939 1493.725388C536.942062 1512.973511,563.046844 1523.789429,590.269867 1523.789429C617.492889 1523.789429,643.597672 1512.973511,662.845795 1493.725388C682.093918 1474.477264,692.909836 1448.372482,692.909836 1421.149460Z" style="stroke:rgb(25.500488%,41.000366%,88.400269%); stroke-width: 2.500000;stroke-linecap: round;stroke-linejoin: round;stroke-miterlimit: 10.000000;fill: none;"></path>
  <path d="M532.630585 1424.432373C532.630585 1397.209351,521.814667 1371.104568,502.566544 1351.856445C483.318420 1332.608322,457.213638 1321.792404,429.990616 1321.792404C402.767593 1321.792404,376.662811 1332.608322,357.414688 1351.856445C338.166565 1371.104568,327.350647 1397.209351,327.350647 1424.432373C327.350647 1451.655396,338.166565 1477.760178,357.414688 1497.008301C376.662811 1516.256424,402.767593 1527.072342,429.990616 1527.072342C457.213638 1527.072342,483.318420 1516.256424,502.566544 1497.008301C521.814667 1477.760178,532.630585 1451.655396,532.630585 1424.432373Z" style="stroke:rgb(25.500488%,41.000366%,88.400269%); stroke-width: 2.500000;stroke-linecap: round;stroke-linejoin: round;stroke-miterlimit: 10.000000;fill: none;"></path>
  <path d="M431.664520 1303.119980C431.664520 1275.896957,420.848602 1249.792175,401.600479 1230.544052C382.352356 1211.295929,356.247574 1200.480011,329.024551 1200.480011C301.801529 1200.480011,275.696747 1211.295929,256.448624 1230.544052C237.200500 1249.792175,226.384583 1275.896957,226.384583 1303.119980C226.384583 1330.343002,237.200500 1356.447784,256.448624 1375.695908C275.696747 1394.944031,301.801529 1405.759949,329.024551 1405.759949C356.247574 1405.759949,382.352356 1394.944031,401.600479 1375.695908C420.848602 1356.447784,431.664520 1330.343002,431.664520 1303.119980Z" style="stroke:rgb(25.500488%,41.000366%,88.400269%); stroke-width: 2.500000;stroke-linecap: round;stroke-linejoin: round;stroke-miterlimit: 10.000000;fill: none;"></path>
  <path d="M324.015839 1177.875870C324.015839 1150.652847,313.199921 1124.548065,293.951797 1105.299942C274.703674 1086.051819,248.598892 1075.235901,221.375870 1075.235901C194.152847 1075.235901,168.048065 1086.051819,148.799942 1105.299942C129.551819 1124.548065,118.735901 1150.652847,118.735901 1177.875870C118.735901 1205.098892,129.551819 1231.203674,148.799942 1250.451797C168.048065 1269.699921,194.152847 1280.515839,221.375870 1280.515839C248.598892 1280.515839,274.703674 1269.699921,293.951797 1250.451797C313.199921 1231.203674,324.015839 1205.098892,324.015839 1177.875870Z" style="stroke:rgb(25.500488%,41.000366%,88.400269%); stroke-width: 2.500000;stroke-linecap: round;stroke-linejoin: round;stroke-miterlimit: 10.000000;fill: none;"></path>
  <path d="M206.505402 1046.922333C206.505402 1019.699310,195.689484 993.594528,176.441360 974.346405C157.193237 955.098282,131.088455 944.282364,103.865433 944.282364C76.642410 944.282364,50.537628 955.098282,31.289505 974.346405C12.041382 993.594528,1.225464 1019.699310,1.225464 1046.922333C1.225464 1074.145355,12.041382 1100.250137,31.289505 1119.498260C50.537628 1138.746384,76.642410 1149.562302,103.865433 1149.562302C131.088455 1149.562302,157.193237 1138.746384,176.441360 1119.498260C195.689484 1100.250137,206.505402 1074.145355,206.505402 1046.922333Z" style="stroke:rgb(25.500488%,41.000366%,88.400269%); stroke-width: 2.500000;stroke-linecap: round;stroke-linejoin: round;stroke-miterlimit: 10.000000;fill: none;"></path>
  <path d="M619.764267 1573.720978C619.764267 1546.497955,608.948349 1520.393173,589.700226 1501.145050C570.452103 1481.896927,544.347321 1471.081009,517.124298 1471.081009C489.901276 1471.081009,463.796494 1481.896927,444.548370 1501.145050C425.300247 1520.393173,414.484329 1546.497955,414.484329 1573.720978C414.484329 1600.944000,425.300247 1627.048782,444.548370 1646.296906C463.796494 1665.545029,489.901276 1676.360947,517.124298 1676.360947C544.347321 1676.360947,570.452103 1665.545029,589.700226 1646.296906C608.948349 1627.048782,619.764267 1600.944000,619.764267 1573.720978Z" style="stroke:rgb(25.500488%,41.000366%,88.400269%); stroke-width: 2.500000;stroke-linecap: round;stroke-linejoin: round;stroke-miterlimit: 10.000000;fill: none;"></path>
</svg>
