<?xml version="1.0"?>
<!-- Created by MetaPost 2.00 on 2022.03.02:1201 -->
<svg version="1.1" xmlns="http://www.w3.org/2000/svg" xmlns:xlink="http://www.w3.org/1999/xlink" width="1763.703171" height="1767.180740" viewBox="0 0 1763.703171 1767.180740">
<!-- Original BoundingBox: -886.445084 -888.261719 877.258087 878.919022 -->
  <path d="M886.000000 27.606476L221.136978 347.788666L56.926010 1067.228653L517.028137 1644.179443L1254.971863 1644.179443L1715.073990 1067.228653L1550.863022 347.788666L886.000000 27.606476Z" style="fill: rgb(100.000000%,100.000000%,100.000000%);stroke: none;"></path>
  <path d="M886.000000 27.606476L221.136978 347.788666" style="stroke:rgb(0.000000%,0.000000%,0.000000%); stroke-width: 2.500000;stroke-linecap: round;stroke-linejoin: round;stroke-miterlimit: 10.000000;fill: none;"></path>
  <path d="M221.136978 347.788666L56.926010 1067.228653" style="stroke:rgb(0.000000%,0.000000%,0.000000%); stroke-width: 2.500000;stroke-linecap: round;stroke-linejoin: round;stroke-miterlimit: 10.000000;fill: none;"></path>
  <path d="M56.926010 1067.228653L517.028137 1644.179443" style="stroke:rgb(0.000000%,0.000000%,0.000000%); stroke-width: 2.500000;stroke-linecap: round;stroke-linejoin: round;stroke-miterlimit: 10.000000;fill: none;"></path>
  <path d="M517.028137 1644.179443L1254.971863 1644.179443" style="stroke:rgb(0.000000%,0.000000%,0.000000%); stroke-width: 2.500000;stroke-linecap: round;stroke-linejoin: round;stroke-miterlimit: 10.000000;fill: none;"></path>
  <path d="M1254.971863 1644.179443L1715.073990 1067.228653" style="stroke:rgb(0.000000%,0.000000%,0.000000%); stroke-width: 2.500000;stroke-linecap: round;stroke-linejoin: round;stroke-miterlimit: 10.000000;fill: none;"></path>
  <path d="M1715.073990 1067.228653L1550.863022 347.788666" style="stroke:rgb(0.000000%,0.000000%,0.000000%); stroke-width: 2.500000;stroke-linecap: round;stroke-linejoin: round;stroke-miterlimit: 10.000000;fill: none;"></path>
  <path d="M1550.863022 347.788666L886.000000 27.606476" style="stroke:rgb(0.000000%,0.000000%,0.000000%); stroke-width: 2.500000;stroke-linecap: round;stroke-linejoin: round;stroke-miterlimit: 10.000000;fill: none;"></path>
  <path d="M1727.673660 614.509842C1727.673660 531.808304,1694.815720 452.503891,1636.341324 394.029495C1577.866928 335.555099,1498.562515 302.697159,1415.860977 302.697159C1333.159439 302.697159,1253.855026 335.555099,1195.380630 394.029495C1136.906235 452.503891,1104.048294 531.808304,1104.048294 614.509842C1104.048294 697.211380,1136.906235 776.515793,1195.380630 834.990189C1253.855026 893.464584,1333.159439 926.322525,1415.860977 926.322525C1498.562515 926.322525,1577.866928 893.464584,1636.341324 834.990189C1694.815720 776.515793,1727.673660 697.211380,1727.673660 614.509842Z" style="stroke:rgb(25.500488%,41.000366%,88.400269%); stroke-width: 2.500000;stroke-linecap: round;stroke-linejoin: round;stroke-miterlimit: 10.000000;fill: none;"></path>
  <path d="M1468.543427 350.552551C1468.543427 267.851013,1435.685486 188.546600,1377.211090 130.072205C1318.736694 71.597809,1239.432281 38.739868,1156.730743 38.739868C1074.029205 38.739868,994.724792 71.597809,936.250397 130.072205C877.776001 188.546600,844.918060 267.851013,844.918060 350.552551C844.918060 433.254089,877.776001 512.558502,936.250397 571.032898C994.724792 629.507294,1074.029205 662.365234,1156.730743 662.365234C1239.432281 662.365234,1318.736694 629.507294,1377.211090 571.032898C1435.685486 512.558502,1468.543427 433.254089,1468.543427 350.552551Z" style="stroke:rgb(25.500488%,41.000366%,88.400269%); stroke-width: 2.500000;stroke-linecap: round;stroke-linejoin: round;stroke-miterlimit: 10.000000;fill: none;"></path>
  <path d="M1762.008087 1045.818283C1762.008087 963.116745,1729.150146 883.812332,1670.675751 825.337936C1612.201355 766.863541,1532.896942 734.005600,1450.195404 734.005600C1367.493866 734.005600,1288.189453 766.863541,1229.715057 825.337936C1171.240662 883.812332,1138.382721 963.116745,1138.382721 1045.818283C1138.382721 1128.519821,1171.240662 1207.824234,1229.715057 1266.298630C1288.189453 1324.773026,1367.493866 1357.630966,1450.195404 1357.630966C1532.896942 1357.630966,1612.201355 1324.773026,1670.675751 1266.298630C1729.150146 1207.824234,1762.008087 1128.519821,1762.008087 1045.818283Z" style="stroke:rgb(25.500488%,41.000366%,88.400269%); stroke-width: 2.500000;stroke-linecap: round;stroke-linejoin: round;stroke-miterlimit: 10.000000;fill: none;"></path>
  <path d="M1211.878647 889.224213C1211.878647 806.522675,1179.020706 727.218262,1120.546310 668.743866C1062.071915 610.269470,982.767502 577.411530,900.065964 577.411530C817.364426 577.411530,738.060013 610.269470,679.585617 668.743866C621.111221 727.218262,588.253281 806.522675,588.253281 889.224213C588.253281 971.925751,621.111221 1051.230164,679.585617 1109.704559C738.060013 1168.178955,817.364426 1201.036896,900.065964 1201.036896C982.767502 1201.036896,1062.071915 1168.178955,1120.546310 1109.704559C1179.020706 1051.230164,1211.878647 971.925751,1211.878647 889.224213Z" style="stroke:rgb(25.500488%,41.000366%,88.400269%); stroke-width: 2.500000;stroke-linecap: round;stroke-linejoin: round;stroke-miterlimit: 10.000000;fill: none;"></path>
  <path d="M1100.194427 312.143661C1100.194427 229.442123,1067.336487 150.137711,1008.862091 91.663315C950.387695 33.188919,871.083282 0.330978,788.381744 0.330978C705.680206 0.330978,626.375793 33.188919,567.901398 91.663315C509.427002 150.137711,476.569061 229.442123,476.569061 312.143661C476.569061 394.845200,509.427002 474.149612,567.901398 532.624008C626.375793 591.098404,705.680206 623.956345,788.381744 623.956345C871.083282 623.956345,950.387695 591.098404,1008.862091 532.624008C1067.336487 474.149612,1100.194427 394.845200,1100.194427 312.143661Z" style="stroke:rgb(25.500488%,41.000366%,88.400269%); stroke-width: 2.500000;stroke-linecap: round;stroke-linejoin: round;stroke-miterlimit: 10.000000;fill: none;"></path>
  <path d="M1486.969315 1390.706741C1486.969315 1308.005203,1454.111374 1228.700790,1395.636978 1170.226395C1337.162582 1111.751999,1257.858170 1078.894058,1175.156631 1078.894058C1092.455093 1078.894058,1013.150681 1111.751999,954.676285 1170.226395C896.201889 1228.700790,863.343948 1308.005203,863.343948 1390.706741C863.343948 1473.408279,896.201889 1552.712692,954.676285 1611.187088C1013.150681 1669.661484,1092.455093 1702.519424,1175.156631 1702.519424C1257.858170 1702.519424,1337.162582 1669.661484,1395.636978 1611.187088C1454.111374 1552.712692,1486.969315 1473.408279,1486.969315 1390.706741Z" style="stroke:rgb(25.500488%,41.000366%,88.400269%); stroke-width: 2.500000;stroke-linecap: round;stroke-linejoin: round;stroke-miterlimit: 10.000000;fill: none;"></path>
  <path d="M756.525711 526.091553C756.525711 443.390015,723.667770 364.085602,665.193375 305.611206C606.718979 247.136810,527.414566 214.278870,444.713028 214.278870C362.011490 214.278870,282.707077 247.136810,224.232681 305.611206C165.758286 364.085602,132.900345 443.390015,132.900345 526.091553C132.900345 608.793091,165.758286 688.097504,224.232681 746.571899C282.707077 805.046295,362.011490 837.904236,444.713028 837.904236C527.414566 837.904236,606.718979 805.046295,665.193375 746.571899C723.667770 688.097504,756.525711 608.793091,756.525711 526.091553Z" style="stroke:rgb(25.500488%,41.000366%,88.400269%); stroke-width: 2.500000;stroke-linecap: round;stroke-linejoin: round;stroke-miterlimit: 10.000000;fill: none;"></path>
  <path d="M624.430283 908.740082C624.430283 826.038544,591.572342 746.734131,533.097946 688.259735C474.623550 629.785339,395.319138 596.927399,312.617599 596.927399C229.916061 596.927399,150.611649 629.785339,92.137253 688.259735C33.662857 746.734131,0.804916 826.038544,0.804916 908.740082C0.804916 991.441620,33.662857 1070.746033,92.137253 1129.220428C150.611649 1187.694824,229.916061 1220.552765,312.617599 1220.552765C395.319138 1220.552765,474.623550 1187.694824,533.097946 1129.220428C591.572342 1070.746033,624.430283 991.441620,624.430283 908.740082Z" style="stroke:rgb(25.500488%,41.000366%,88.400269%); stroke-width: 2.500000;stroke-linecap: round;stroke-linejoin: round;stroke-miterlimit: 10.000000;fill: none;"></path>
  <path d="M1058.839981 1453.199036C1058.839981 1370.497498,1025.982040 1291.193085,967.507645 1232.718689C909.033249 1174.244293,829.728836 1141.386353,747.027298 1141.386353C664.325760 1141.386353,585.021347 1174.244293,526.546951 1232.718689C468.072556 1291.193085,435.214615 1370.497498,435.214615 1453.199036C435.214615 1535.900574,468.072556 1615.204987,526.546951 1673.679382C585.021347 1732.153778,664.325760 1765.011719,747.027298 1765.011719C829.728836 1765.011719,909.033249 1732.153778,967.507645 1673.679382C1025.982040 1615.204987,1058.839981 1535.900574,1058.839981 1453.199036Z" style="stroke:rgb(25.500488%,41.000366%,88.400269%); stroke-width: 2.500000;stroke-linecap: round;stroke-linejoin: round;stroke-miterlimit: 10.000000;fill: none;"></path>
  <path d="M743.835205 1259.312012C743.835205 1176.610474,710.977264 1097.306061,652.502869 1038.831665C594.028473 980.357269,514.724060 947.499329,432.022522 947.499329C349.320984 947.499329,270.016571 980.357269,211.542175 1038.831665C153.067780 1097.306061,120.209839 1176.610474,120.209839 1259.312012C120.209839 1342.013550,153.067780 1421.317963,211.542175 1479.792358C270.016571 1538.266754,349.320984 1571.124695,432.022522 1571.124695C514.724060 1571.124695,594.028473 1538.266754,652.502869 1479.792358C710.977264 1421.317963,743.835205 1342.013550,743.835205 1259.312012Z" style="stroke:rgb(25.500488%,41.000366%,88.400269%); stroke-width: 2.500000;stroke-linecap: round;stroke-linejoin: round;stroke-miterlimit: 10.000000;fill: none;"></path>
</svg>
