<?xml version="1.0"?>
<!-- Created by MetaPost 2.00 on 2022.03.02:1201 -->
<svg version="1.1" xmlns="http://www.w3.org/2000/svg" xmlns:xlink="http://www.w3.org/1999/xlink" width="1893.709503" height="1932.858017" viewBox="0 0 1893.709503 1932.858017">
<!-- Original BoundingBox: -963.613220 -961.160767 930.096283 971.697250 -->
  <path d="M1813.393524 971.000000L1699.464462 545.803238L1388.196762 234.535538L963.000000 120.606476L537.803238 234.535538L226.535538 545.803238L112.606476 971.000000L226.535538 1396.196762L537.803238 1707.464462L963.000000 1821.393524L1388.196762 1707.464462L1699.464462 1396.196762L1813.393524 971.000000Z" style="fill: rgb(100.000000%,100.000000%,100.000000%);stroke: none;"></path>
  <path d="M1813.393524 971.000000L1699.464462 545.803238" style="stroke:rgb(0.000000%,0.000000%,0.000000%); stroke-width: 2.500000;stroke-linecap: round;stroke-linejoin: round;stroke-miterlimit: 10.000000;fill: none;"></path>
  <path d="M1699.464462 545.803238L1388.196762 234.535538" style="stroke:rgb(0.000000%,0.000000%,0.000000%); stroke-width: 2.500000;stroke-linecap: round;stroke-linejoin: round;stroke-miterlimit: 10.000000;fill: none;"></path>
  <path d="M1388.196762 234.535538L963.000000 120.606476" style="stroke:rgb(0.000000%,0.000000%,0.000000%); stroke-width: 2.500000;stroke-linecap: round;stroke-linejoin: round;stroke-miterlimit: 10.000000;fill: none;"></path>
  <path d="M963.000000 120.606476L537.803238 234.535538" style="stroke:rgb(0.000000%,0.000000%,0.000000%); stroke-width: 2.500000;stroke-linecap: round;stroke-linejoin: round;stroke-miterlimit: 10.000000;fill: none;"></path>
  <path d="M537.803238 234.535538L226.535538 545.803238" style="stroke:rgb(0.000000%,0.000000%,0.000000%); stroke-width: 2.500000;stroke-linecap: round;stroke-linejoin: round;stroke-miterlimit: 10.000000;fill: none;"></path>
  <path d="M226.535538 545.803238L112.606476 971.000000" style="stroke:rgb(0.000000%,0.000000%,0.000000%); stroke-width: 2.500000;stroke-linecap: round;stroke-linejoin: round;stroke-miterlimit: 10.000000;fill: none;"></path>
  <path d="M112.606476 971.000000L226.535538 1396.196762" style="stroke:rgb(0.000000%,0.000000%,0.000000%); stroke-width: 2.500000;stroke-linecap: round;stroke-linejoin: round;stroke-miterlimit: 10.000000;fill: none;"></path>
  <path d="M226.535538 1396.196762L537.803238 1707.464462" style="stroke:rgb(0.000000%,0.000000%,0.000000%); stroke-width: 2.500000;stroke-linecap: round;stroke-linejoin: round;stroke-miterlimit: 10.000000;fill: none;"></path>
  <path d="M537.803238 1707.464462L963.000000 1821.393524" style="stroke:rgb(0.000000%,0.000000%,0.000000%); stroke-width: 2.500000;stroke-linecap: round;stroke-linejoin: round;stroke-miterlimit: 10.000000;fill: none;"></path>
  <path d="M963.000000 1821.393524L1388.196762 1707.464462" style="stroke:rgb(0.000000%,0.000000%,0.000000%); stroke-width: 2.500000;stroke-linecap: round;stroke-linejoin: round;stroke-miterlimit: 10.000000;fill: none;"></path>
  <path d="M1388.196762 1707.464462L1699.464462 1396.196762" style="stroke:rgb(0.000000%,0.000000%,0.000000%); stroke-width: 2.500000;stroke-linecap: round;stroke-linejoin: round;stroke-miterlimit: 10.000000;fill: none;"></path>
  <path d="M1699.464462 1396.196762L1813.393524 971.000000" style="stroke:rgb(0.000000%,0.000000%,0.000000%); stroke-width: 2.500000;stroke-linecap: round;stroke-linejoin: round;stroke-miterlimit: 10.000000;fill: none;"></path>
  <path d="M789.121933 1638.107864C789.121933 1589.189026,769.686111 1542.279617,735.097885 1507.691391C700.509659 1473.103165,653.600250 1453.667343,604.681412 1453.667343C555.762573 1453.667343,508.853165 1473.103165,474.264938 1507.691391C439.676712 1542.279617,420.240891 1589.189026,420.240891 1638.107864C420.240891 1687.026703,439.676712 1733.936111,474.264938 1768.524338C508.853165 1803.112564,555.762573 1822.548386,604.681412 1822.548386C653.600250 1822.548386,700.509659 1803.112564,735.097885 1768.524338C769.686111 1733.936111,789.121933 1687.026703,789.121933 1638.107864Z" style="stroke:rgb(25.500488%,41.000366%,88.400269%); stroke-width: 2.500000;stroke-linecap: round;stroke-linejoin: round;stroke-miterlimit: 10.000000;fill: none;"></path>
  <path d="M1109.550674 1746.470245C1109.550674 1697.551407,1090.114853 1650.641998,1055.526627 1616.053772C1020.938400 1581.465546,974.028992 1562.029724,925.110153 1562.029724C876.191315 1562.029724,829.281906 1581.465546,794.693680 1616.053772C760.105453 1650.641998,740.669632 1697.551407,740.669632 1746.470245C740.669632 1795.389084,760.105453 1842.298492,794.693680 1876.886719C829.281906 1911.474945,876.191315 1930.910767,925.110153 1930.910767C974.028992 1930.910767,1020.938400 1911.474945,1055.526627 1876.886719C1090.114853 1842.298492,1109.550674 1795.389084,1109.550674 1746.470245Z" style="stroke:rgb(25.500488%,41.000366%,88.400269%); stroke-width: 2.500000;stroke-linecap: round;stroke-linejoin: round;stroke-miterlimit: 10.000000;fill: none;"></path>
  <path d="M447.243912 1321.688705C447.243912 1272.769867,427.808090 1225.860458,393.219864 1191.272232C358.631638 1156.684006,311.722229 1137.248184,262.803391 1137.248184C213.884552 1137.248184,166.975143 1156.684006,132.386917 1191.272232C97.798691 1225.860458,78.362869 1272.769867,78.362869 1321.688705C78.362869 1370.607544,97.798691 1417.516953,132.386917 1452.105179C166.975143 1486.693405,213.884552 1506.129227,262.803391 1506.129227C311.722229 1506.129227,358.631638 1486.693405,393.219864 1452.105179C427.808090 1417.516953,447.243912 1370.607544,447.243912 1321.688705Z" style="stroke:rgb(25.500488%,41.000366%,88.400269%); stroke-width: 2.500000;stroke-linecap: round;stroke-linejoin: round;stroke-miterlimit: 10.000000;fill: none;"></path>
  <path d="M680.357315 1424.588196C680.357315 1375.669357,660.921494 1328.759949,626.333267 1294.171722C591.745041 1259.583496,544.835632 1240.147675,495.916794 1240.147675C446.997955 1240.147675,400.088547 1259.583496,365.500320 1294.171722C330.912094 1328.759949,311.476273 1375.669357,311.476273 1424.588196C311.476273 1473.507034,330.912094 1520.416443,365.500320 1555.004669C400.088547 1589.592896,446.997955 1609.028717,495.916794 1609.028717C544.835632 1609.028717,591.745041 1589.592896,626.333267 1555.004669C660.921494 1520.416443,680.357315 1473.507034,680.357315 1424.588196Z" style="stroke:rgb(25.500488%,41.000366%,88.400269%); stroke-width: 2.500000;stroke-linecap: round;stroke-linejoin: round;stroke-miterlimit: 10.000000;fill: none;"></path>
  <path d="M1043.489975 1452.175125C1043.489975 1403.256287,1024.054153 1356.346878,989.465927 1321.758652C954.877701 1287.170425,907.968292 1267.734604,859.049454 1267.734604C810.130615 1267.734604,763.221207 1287.170425,728.632980 1321.758652C694.044754 1356.346878,674.608932 1403.256287,674.608932 1452.175125C674.608932 1501.093964,694.044754 1548.003372,728.632980 1582.591599C763.221207 1617.179825,810.130615 1636.615646,859.049454 1636.615646C907.968292 1636.615646,954.877701 1617.179825,989.465927 1582.591599C1024.054153 1548.003372,1043.489975 1501.093964,1043.489975 1452.175125Z" style="stroke:rgb(25.500488%,41.000366%,88.400269%); stroke-width: 2.500000;stroke-linecap: round;stroke-linejoin: round;stroke-miterlimit: 10.000000;fill: none;"></path>
  <path d="M1355.328629 1610.482025C1355.328629 1561.563187,1335.892807 1514.653778,1301.304581 1480.065552C1266.716354 1445.477325,1219.806946 1426.041504,1170.888107 1426.041504C1121.969269 1426.041504,1075.059860 1445.477325,1040.471634 1480.065552C1005.883408 1514.653778,986.447586 1561.563187,986.447586 1610.482025C986.447586 1659.400864,1005.883408 1706.310272,1040.471634 1740.898499C1075.059860 1775.486725,1121.969269 1794.922546,1170.888107 1794.922546C1219.806946 1794.922546,1266.716354 1775.486725,1301.304581 1740.898499C1335.892807 1706.310272,1355.328629 1659.400864,1355.328629 1610.482025Z" style="stroke:rgb(25.500488%,41.000366%,88.400269%); stroke-width: 2.500000;stroke-linecap: round;stroke-linejoin: round;stroke-miterlimit: 10.000000;fill: none;"></path>
  <path d="M1604.687943 1577.029953C1604.687943 1528.111115,1585.252121 1481.201706,1550.663895 1446.613480C1516.075668 1412.025253,1469.166260 1392.589432,1420.247421 1392.589432C1371.328583 1392.589432,1324.419174 1412.025253,1289.830948 1446.613480C1255.242722 1481.201706,1235.806900 1528.111115,1235.806900 1577.029953C1235.806900 1625.948792,1255.242722 1672.858200,1289.830948 1707.446426C1324.419174 1742.034653,1371.328583 1761.470474,1420.247421 1761.470474C1469.166260 1761.470474,1516.075668 1742.034653,1550.663895 1707.446426C1585.252121 1672.858200,1604.687943 1625.948792,1604.687943 1577.029953Z" style="stroke:rgb(25.500488%,41.000366%,88.400269%); stroke-width: 2.500000;stroke-linecap: round;stroke-linejoin: round;stroke-miterlimit: 10.000000;fill: none;"></path>
  <path d="M369.517822 982.159332C369.517822 933.240494,350.082001 886.331085,315.493774 851.742859C280.905548 817.154633,233.996140 797.718811,185.077301 797.718811C136.158463 797.718811,89.249054 817.154633,54.660828 851.742859C20.072601 886.331085,0.636780 933.240494,0.636780 982.159332C0.636780 1031.078171,20.072601 1077.987579,54.660828 1112.575806C89.249054 1147.164032,136.158463 1166.599854,185.077301 1166.599854C233.996140 1166.599854,280.905548 1147.164032,315.493774 1112.575806C350.082001 1077.987579,369.517822 1031.078171,369.517822 982.159332Z" style="stroke:rgb(25.500488%,41.000366%,88.400269%); stroke-width: 2.500000;stroke-linecap: round;stroke-linejoin: round;stroke-miterlimit: 10.000000;fill: none;"></path>
  <path d="M638.016708 1067.800781C638.016708 1018.881943,618.580887 971.972534,583.992661 937.384308C549.404434 902.796082,502.495026 883.360260,453.576187 883.360260C404.657349 883.360260,357.747940 902.796082,323.159714 937.384308C288.571487 971.972534,269.135666 1018.881943,269.135666 1067.800781C269.135666 1116.719620,288.571487 1163.629028,323.159714 1198.217255C357.747940 1232.805481,404.657349 1252.241302,453.576187 1252.241302C502.495026 1252.241302,549.404434 1232.805481,583.992661 1198.217255C618.580887 1163.629028,638.016708 1116.719620,638.016708 1067.800781Z" style="stroke:rgb(25.500488%,41.000366%,88.400269%); stroke-width: 2.500000;stroke-linecap: round;stroke-linejoin: round;stroke-miterlimit: 10.000000;fill: none;"></path>
  <path d="M884.534286 1225.718399C884.534286 1176.799561,865.098465 1129.890152,830.510239 1095.301926C795.922012 1060.713699,749.012604 1041.277878,700.093765 1041.277878C651.174927 1041.277878,604.265518 1060.713699,569.677292 1095.301926C535.089066 1129.890152,515.653244 1176.799561,515.653244 1225.718399C515.653244 1274.637238,535.089066 1321.546646,569.677292 1356.134872C604.265518 1390.723099,651.174927 1410.158920,700.093765 1410.158920C749.012604 1410.158920,795.922012 1390.723099,830.510239 1356.134872C865.098465 1321.546646,884.534286 1274.637238,884.534286 1225.718399Z" style="stroke:rgb(25.500488%,41.000366%,88.400269%); stroke-width: 2.500000;stroke-linecap: round;stroke-linejoin: round;stroke-miterlimit: 10.000000;fill: none;"></path>
  <path d="M1243.735229 1295.373428C1243.735229 1246.454590,1224.299408 1199.545181,1189.711182 1164.956955C1155.122955 1130.368729,1108.213547 1110.932907,1059.294708 1110.932907C1010.375870 1110.932907,963.466461 1130.368729,928.878235 1164.956955C894.290009 1199.545181,874.854187 1246.454590,874.854187 1295.373428C874.854187 1344.292267,894.290009 1391.201675,928.878235 1425.789902C963.466461 1460.378128,1010.375870 1479.813950,1059.294708 1479.813950C1108.213547 1479.813950,1155.122955 1460.378128,1189.711182 1425.789902C1224.299408 1391.201675,1243.735229 1344.292267,1243.735229 1295.373428Z" style="stroke:rgb(25.500488%,41.000366%,88.400269%); stroke-width: 2.500000;stroke-linecap: round;stroke-linejoin: round;stroke-miterlimit: 10.000000;fill: none;"></path>
  <path d="M1493.989899 1287.626770C1493.989899 1238.707932,1474.554077 1191.798523,1439.965851 1157.210297C1405.377625 1122.622070,1358.468216 1103.186249,1309.549377 1103.186249C1260.630539 1103.186249,1213.721130 1122.622070,1179.132904 1157.210297C1144.544678 1191.798523,1125.108856 1238.707932,1125.108856 1287.626770C1125.108856 1336.545609,1144.544678 1383.455017,1179.132904 1418.043243C1213.721130 1452.631470,1260.630539 1472.067291,1309.549377 1472.067291C1358.468216 1472.067291,1405.377625 1452.631470,1439.965851 1418.043243C1474.554077 1383.455017,1493.989899 1336.545609,1493.989899 1287.626770Z" style="stroke:rgb(25.500488%,41.000366%,88.400269%); stroke-width: 2.500000;stroke-linecap: round;stroke-linejoin: round;stroke-miterlimit: 10.000000;fill: none;"></path>
  <path d="M1812.822586 1324.958664C1812.822586 1276.039825,1793.386765 1229.130417,1758.798538 1194.542191C1724.210312 1159.953964,1677.300903 1140.518143,1628.382065 1140.518143C1579.463226 1140.518143,1532.553818 1159.953964,1497.965591 1194.542191C1463.377365 1229.130417,1443.941544 1276.039825,1443.941544 1324.958664C1443.941544 1373.877502,1463.377365 1420.786911,1497.965591 1455.375137C1532.553818 1489.963364,1579.463226 1509.399185,1628.382065 1509.399185C1677.300903 1509.399185,1724.210312 1489.963364,1758.798538 1455.375137C1793.386765 1420.786911,1812.822586 1373.877502,1812.822586 1324.958664Z" style="stroke:rgb(25.500488%,41.000366%,88.400269%); stroke-width: 2.500000;stroke-linecap: round;stroke-linejoin: round;stroke-miterlimit: 10.000000;fill: none;"></path>
  <path d="M513.395432 729.062943C513.395432 680.144104,493.959610 633.234695,459.371384 598.646469C424.783157 564.058243,377.873749 544.622421,328.954910 544.622421C280.036072 544.622421,233.126663 564.058243,198.538437 598.646469C163.950211 633.234695,144.514389 680.144104,144.514389 729.062943C144.514389 777.981781,163.950211 824.891190,198.538437 859.479416C233.126663 894.067642,280.036072 913.503464,328.954910 913.503464C377.873749 913.503464,424.783157 894.067642,459.371384 859.479416C493.959610 824.891190,513.395432 777.981781,513.395432 729.062943Z" style="stroke:rgb(25.500488%,41.000366%,88.400269%); stroke-width: 2.500000;stroke-linecap: round;stroke-linejoin: round;stroke-miterlimit: 10.000000;fill: none;"></path>
  <path d="M795.661835 875.081589C795.661835 826.162750,776.226013 779.253342,741.637787 744.665115C707.049561 710.076889,660.140152 690.641068,611.221313 690.641068C562.302475 690.641068,515.393066 710.076889,480.804840 744.665115C446.216614 779.253342,426.780792 826.162750,426.780792 875.081589C426.780792 924.000427,446.216614 970.909836,480.804840 1005.498062C515.393066 1040.086288,562.302475 1059.522110,611.221313 1059.522110C660.140152 1059.522110,707.049561 1040.086288,741.637787 1005.498062C776.226013 970.909836,795.661835 924.000427,795.661835 875.081589Z" style="stroke:rgb(25.500488%,41.000366%,88.400269%); stroke-width: 2.500000;stroke-linecap: round;stroke-linejoin: round;stroke-miterlimit: 10.000000;fill: none;"></path>
  <path d="M1059.255798 1053.319595C1059.255798 1004.400757,1039.819977 957.491348,1005.231750 922.903122C970.643524 888.314896,923.734116 868.879074,874.815277 868.879074C825.896439 868.879074,778.987030 888.314896,744.398804 922.903122C709.810577 957.491348,690.374756 1004.400757,690.374756 1053.319595C690.374756 1102.238434,709.810577 1149.147842,744.398804 1183.736069C778.987030 1218.324295,825.896439 1237.760117,874.815277 1237.760117C923.734116 1237.760117,970.643524 1218.324295,1005.231750 1183.736069C1039.819977 1149.147842,1059.255798 1102.238434,1059.255798 1053.319595Z" style="stroke:rgb(25.500488%,41.000366%,88.400269%); stroke-width: 2.500000;stroke-linecap: round;stroke-linejoin: round;stroke-miterlimit: 10.000000;fill: none;"></path>
  <path d="M1355.328629 971.882370C1355.328629 922.963531,1335.892807 876.054123,1301.304581 841.465897C1266.716354 806.877670,1219.806946 787.441849,1170.888107 787.441849C1121.969269 787.441849,1075.059860 806.877670,1040.471634 841.465897C1005.883408 876.054123,986.447586 922.963531,986.447586 971.882370C986.447586 1020.801208,1005.883408 1067.710617,1040.471634 1102.298843C1075.059860 1136.887070,1121.969269 1156.322891,1170.888107 1156.322891C1219.806946 1156.322891,1266.716354 1136.887070,1301.304581 1102.298843C1335.892807 1067.710617,1355.328629 1020.801208,1355.328629 971.882370Z" style="stroke:rgb(25.500488%,41.000366%,88.400269%); stroke-width: 2.500000;stroke-linecap: round;stroke-linejoin: round;stroke-miterlimit: 10.000000;fill: none;"></path>
  <path d="M1620.635422 1060.119003C1620.635422 1011.200165,1601.199600 964.290756,1566.611374 929.702530C1532.023148 895.114304,1485.113739 875.678482,1436.194901 875.678482C1387.276062 875.678482,1340.366653 895.114304,1305.778427 929.702530C1271.190201 964.290756,1251.754379 1011.200165,1251.754379 1060.119003C1251.754379 1109.037842,1271.190201 1155.947250,1305.778427 1190.535477C1340.366653 1225.123703,1387.276062 1244.559525,1436.194901 1244.559525C1485.113739 1244.559525,1532.023148 1225.123703,1566.611374 1190.535477C1601.199600 1155.947250,1620.635422 1109.037842,1620.635422 1060.119003Z" style="stroke:rgb(25.500488%,41.000366%,88.400269%); stroke-width: 2.500000;stroke-linecap: round;stroke-linejoin: round;stroke-miterlimit: 10.000000;fill: none;"></path>
  <path d="M539.775589 461.122025C539.775589 412.203186,520.339767 365.293777,485.751541 330.705551C451.163315 296.117325,404.253906 276.681503,355.335068 276.681503C306.416229 276.681503,259.506821 296.117325,224.918594 330.705551C190.330368 365.293777,170.894547 412.203186,170.894547 461.122025C170.894547 510.040863,190.330368 556.950272,224.918594 591.538498C259.506821 626.126724,306.416229 645.562546,355.335068 645.562546C404.253906 645.562546,451.163315 626.126724,485.751541 591.538498C520.339767 556.950272,539.775589 510.040863,539.775589 461.122025Z" style="stroke:rgb(25.500488%,41.000366%,88.400269%); stroke-width: 2.500000;stroke-linecap: round;stroke-linejoin: round;stroke-miterlimit: 10.000000;fill: none;"></path>
  <path d="M836.237701 597.252975C836.237701 548.334137,816.801880 501.424728,782.213654 466.836502C747.625427 432.248276,700.716019 412.812454,651.797180 412.812454C602.878342 412.812454,555.968933 432.248276,521.380707 466.836502C486.792480 501.424728,467.356659 548.334137,467.356659 597.252975C467.356659 646.171814,486.792480 693.081223,521.380707 727.669449C555.968933 762.257675,602.878342 781.693497,651.797180 781.693497C700.716019 781.693497,747.625427 762.257675,782.213654 727.669449C816.801880 693.081223,836.237701 646.171814,836.237701 597.252975Z" style="stroke:rgb(25.500488%,41.000366%,88.400269%); stroke-width: 2.500000;stroke-linecap: round;stroke-linejoin: round;stroke-miterlimit: 10.000000;fill: none;"></path>
  <path d="M1118.387314 765.265915C1118.387314 716.347076,1098.951492 669.437668,1064.363266 634.849442C1029.775040 600.261215,982.865631 580.825394,933.946793 580.825394C885.027954 580.825394,838.118546 600.261215,803.530319 634.849442C768.942093 669.437668,749.506271 716.347076,749.506271 765.265915C749.506271 814.184753,768.942093 861.094162,803.530319 895.682388C838.118546 930.270615,885.027954 949.706436,933.946793 949.706436C982.865631 949.706436,1029.775040 930.270615,1064.363266 895.682388C1098.951492 861.094162,1118.387314 814.184753,1118.387314 765.265915Z" style="stroke:rgb(25.500488%,41.000366%,88.400269%); stroke-width: 2.500000;stroke-linecap: round;stroke-linejoin: round;stroke-miterlimit: 10.000000;fill: none;"></path>
  <path d="M1387.028931 633.053696C1387.028931 584.134857,1367.593109 537.225449,1333.004883 502.637222C1298.416656 468.048996,1251.507248 448.613174,1202.588409 448.613174C1153.669571 448.613174,1106.760162 468.048996,1072.171936 502.637222C1037.583710 537.225449,1018.147888 584.134857,1018.147888 633.053696C1018.147888 681.972534,1037.583710 728.881943,1072.171936 763.470169C1106.760162 798.058395,1153.669571 817.494217,1202.588409 817.494217C1251.507248 817.494217,1298.416656 798.058395,1333.004883 763.470169C1367.593109 728.881943,1387.028931 681.972534,1387.028931 633.053696Z" style="stroke:rgb(25.500488%,41.000366%,88.400269%); stroke-width: 2.500000;stroke-linecap: round;stroke-linejoin: round;stroke-miterlimit: 10.000000;fill: none;"></path>
  <path d="M1623.555008 776.165726C1623.555008 727.246887,1604.119186 680.337479,1569.530960 645.749252C1534.942734 611.161026,1488.033325 591.725204,1439.114487 591.725204C1390.195648 591.725204,1343.286240 611.161026,1308.698013 645.749252C1274.109787 680.337479,1254.673965 727.246887,1254.673965 776.165726C1254.673965 825.084564,1274.109787 871.993973,1308.698013 906.582199C1343.286240 941.170425,1390.195648 960.606247,1439.114487 960.606247C1488.033325 960.606247,1534.942734 941.170425,1569.530960 906.582199C1604.119186 871.993973,1623.555008 825.084564,1623.555008 776.165726Z" style="stroke:rgb(25.500488%,41.000366%,88.400269%); stroke-width: 2.500000;stroke-linecap: round;stroke-linejoin: round;stroke-miterlimit: 10.000000;fill: none;"></path>
  <path d="M1891.846283 1012.107895C1891.846283 963.189056,1872.410461 916.279648,1837.822235 881.691422C1803.234009 847.103195,1756.324600 827.667374,1707.405762 827.667374C1658.486923 827.667374,1611.577515 847.103195,1576.989288 881.691422C1542.401062 916.279648,1522.965240 963.189056,1522.965240 1012.107895C1522.965240 1061.026733,1542.401062 1107.936142,1576.989288 1142.524368C1611.577515 1177.112595,1658.486923 1196.548416,1707.405762 1196.548416C1756.324600 1196.548416,1803.234009 1177.112595,1837.822235 1142.524368C1872.410461 1107.936142,1891.846283 1061.026733,1891.846283 1012.107895Z" style="stroke:rgb(25.500488%,41.000366%,88.400269%); stroke-width: 2.500000;stroke-linecap: round;stroke-linejoin: round;stroke-miterlimit: 10.000000;fill: none;"></path>
  <path d="M830.709930 312.754715C830.709930 263.835876,811.274109 216.926468,776.685883 182.338242C742.097656 147.750015,695.188248 128.314194,646.269409 128.314194C597.350571 128.314194,550.441162 147.750015,515.852936 182.338242C481.264709 216.926468,461.828888 263.835876,461.828888 312.754715C461.828888 361.673553,481.264709 408.582962,515.852936 443.171188C550.441162 477.759415,597.350571 497.195236,646.269409 497.195236C695.188248 497.195236,742.097656 477.759415,776.685883 443.171188C811.274109 408.582962,830.709930 361.673553,830.709930 312.754715Z" style="stroke:rgb(25.500488%,41.000366%,88.400269%); stroke-width: 2.500000;stroke-linecap: round;stroke-linejoin: round;stroke-miterlimit: 10.000000;fill: none;"></path>
  <path d="M1134.905731 464.534698C1134.905731 415.615860,1115.469910 368.706451,1080.881683 334.118225C1046.293457 299.529999,999.384048 280.094177,950.465210 280.094177C901.546371 280.094177,854.636963 299.529999,820.048737 334.118225C785.460510 368.706451,766.024689 415.615860,766.024689 464.534698C766.024689 513.453537,785.460510 560.362946,820.048737 594.951172C854.636963 629.539398,901.546371 648.975220,950.465210 648.975220C999.384048 648.975220,1046.293457 629.539398,1080.881683 594.951172C1115.469910 560.362946,1134.905731 513.453537,1134.905731 464.534698Z" style="stroke:rgb(25.500488%,41.000366%,88.400269%); stroke-width: 2.500000;stroke-linecap: round;stroke-linejoin: round;stroke-miterlimit: 10.000000;fill: none;"></path>
  <path d="M1669.476990 445.758469C1669.476990 396.839630,1650.041168 349.930222,1615.452942 315.341995C1580.864716 280.753769,1533.955307 261.317947,1485.036469 261.317947C1436.117630 261.317947,1389.208221 280.753769,1354.619995 315.341995C1320.031769 349.930222,1300.595947 396.839630,1300.595947 445.758469C1300.595947 494.677307,1320.031769 541.586716,1354.619995 576.174942C1389.208221 610.763168,1436.117630 630.198990,1485.036469 630.198990C1533.955307 630.198990,1580.864716 610.763168,1615.452942 576.174942C1650.041168 541.586716,1669.476990 494.677307,1669.476990 445.758469Z" style="stroke:rgb(25.500488%,41.000366%,88.400269%); stroke-width: 2.500000;stroke-linecap: round;stroke-linejoin: round;stroke-miterlimit: 10.000000;fill: none;"></path>
  <path d="M1859.458237 689.590027C1859.458237 640.671188,1840.022415 593.761780,1805.434189 559.173553C1770.845963 524.585327,1723.936554 505.149506,1675.017715 505.149506C1626.098877 505.149506,1579.189468 524.585327,1544.601242 559.173553C1510.013016 593.761780,1490.577194 640.671188,1490.577194 689.590027C1490.577194 738.508865,1510.013016 785.418274,1544.601242 820.006500C1579.189468 854.594727,1626.098877 874.030548,1675.017715 874.030548C1723.936554 874.030548,1770.845963 854.594727,1805.434189 820.006500C1840.022415 785.418274,1859.458237 738.508865,1859.458237 689.590027Z" style="stroke:rgb(25.500488%,41.000366%,88.400269%); stroke-width: 2.500000;stroke-linecap: round;stroke-linejoin: round;stroke-miterlimit: 10.000000;fill: none;"></path>
  <path d="M1135.372864 184.993271C1135.372864 136.074432,1115.937042 89.165024,1081.348816 54.576797C1046.760590 19.988571,999.851181 0.552750,950.932343 0.552750C902.013504 0.552750,855.104095 19.988571,820.515869 54.576797C785.927643 89.165024,766.491821 136.074432,766.491821 184.993271C766.491821 233.912109,785.927643 280.821518,820.515869 315.409744C855.104095 349.997971,902.013504 369.433792,950.932343 369.433792C999.851181 369.433792,1046.760590 349.997971,1081.348816 315.409744C1115.937042 280.821518,1135.372864 233.912109,1135.372864 184.993271Z" style="stroke:rgb(25.500488%,41.000366%,88.400269%); stroke-width: 2.500000;stroke-linecap: round;stroke-linejoin: round;stroke-miterlimit: 10.000000;fill: none;"></path>
  <path d="M1429.940475 313.844696C1429.940475 264.925858,1410.504654 218.016449,1375.916428 183.428223C1341.328201 148.839996,1294.418793 129.404175,1245.499954 129.404175C1196.581116 129.404175,1149.671707 148.839996,1115.083481 183.428223C1080.495255 218.016449,1061.059433 264.925858,1061.059433 313.844696C1061.059433 362.763535,1080.495255 409.672943,1115.083481 444.261169C1149.671707 478.849396,1196.581116 498.285217,1245.499954 498.285217C1294.418793 498.285217,1341.328201 478.849396,1375.916428 444.261169C1410.504654 409.672943,1429.940475 362.763535,1429.940475 313.844696Z" style="stroke:rgb(25.500488%,41.000366%,88.400269%); stroke-width: 2.500000;stroke-linecap: round;stroke-linejoin: round;stroke-miterlimit: 10.000000;fill: none;"></path>
</svg>
