<?xml version="1.0"?>
<!-- Created by MetaPost 2.00 on 2022.03.02:1201 -->
<svg version="1.1" xmlns="http://www.w3.org/2000/svg" xmlns:xlink="http://www.w3.org/1999/xlink" width="1704.325104" height="1706.375305" viewBox="0 0 1704.325104 1706.375305">
<!-- Original BoundingBox: -851.669464 -852.097672 852.655640 854.277634 -->
  <path d="M1701.393524 854.000000L851.000000 3.606476L0.606476 854.000000L851.000000 1704.393524L1701.393524 854.000000Z" style="fill: rgb(100.000000%,100.000000%,100.000000%);stroke: none;"></path>
  <path d="M1701.393524 854.000000L851.000000 3.606476" style="stroke:rgb(0.000000%,0.000000%,0.000000%); stroke-width: 2.500000;stroke-linecap: round;stroke-linejoin: round;stroke-miterlimit: 10.000000;fill: none;"></path>
  <path d="M851.000000 3.606476L0.606476 854.000000" style="stroke:rgb(0.000000%,0.000000%,0.000000%); stroke-width: 2.500000;stroke-linecap: round;stroke-linejoin: round;stroke-miterlimit: 10.000000;fill: none;"></path>
  <path d="M0.606476 854.000000L851.000000 1704.393524" style="stroke:rgb(0.000000%,0.000000%,0.000000%); stroke-width: 2.500000;stroke-linecap: round;stroke-linejoin: round;stroke-miterlimit: 10.000000;fill: none;"></path>
  <path d="M851.000000 1704.393524L1701.393524 854.000000" style="stroke:rgb(0.000000%,0.000000%,0.000000%); stroke-width: 2.500000;stroke-linecap: round;stroke-linejoin: round;stroke-miterlimit: 10.000000;fill: none;"></path>
  <path d="M591.532394 747.960327C591.532394 714.198273,578.118469 681.823074,554.246902 657.951508C530.375336 634.079941,498.000137 620.666016,464.238083 620.666016C430.476028 620.666016,398.100830 634.079941,374.229263 657.951508C350.357697 681.823074,336.943771 714.198273,336.943771 747.960327C336.943771 781.722382,350.357697 814.097580,374.229263 837.969147C398.100830 861.840714,430.476028 875.254639,464.238083 875.254639C498.000137 875.254639,530.375336 861.840714,554.246902 837.969147C578.118469 814.097580,591.532394 781.722382,591.532394 747.960327Z" style="stroke:rgb(25.500488%,41.000366%,88.400269%); stroke-width: 2.500000;stroke-linecap: round;stroke-linejoin: round;stroke-miterlimit: 10.000000;fill: none;"></path>
  <path d="M546.570633 937.279816C546.570633 903.517761,533.156708 871.142563,509.285141 847.270996C485.413574 823.399429,453.038376 809.985504,419.276321 809.985504C385.514267 809.985504,353.139069 823.399429,329.267502 847.270996C305.395935 871.142563,291.982010 903.517761,291.982010 937.279816C291.982010 971.041870,305.395935 1003.417068,329.267502 1027.288635C353.139069 1051.160202,385.514267 1064.574127,419.276321 1064.574127C453.038376 1064.574127,485.413574 1051.160202,509.285141 1027.288635C533.156708 1003.417068,546.570633 971.041870,546.570633 937.279816Z" style="stroke:rgb(25.500488%,41.000366%,88.400269%); stroke-width: 2.500000;stroke-linecap: round;stroke-linejoin: round;stroke-miterlimit: 10.000000;fill: none;"></path>
  <path d="M843.694519 467.523544C843.694519 433.761490,830.280594 401.386292,806.409027 377.514725C782.537460 353.643158,750.162262 340.229233,716.400208 340.229233C682.638153 340.229233,650.262955 353.643158,626.391388 377.514725C602.519821 401.386292,589.105896 433.761490,589.105896 467.523544C589.105896 501.285599,602.519821 533.660797,626.391388 557.532364C650.262955 581.403931,682.638153 594.817856,716.400208 594.817856C750.162262 594.817856,782.537460 581.403931,806.409027 557.532364C830.280594 533.660797,843.694519 501.285599,843.694519 467.523544Z" style="stroke:rgb(25.500488%,41.000366%,88.400269%); stroke-width: 2.500000;stroke-linecap: round;stroke-linejoin: round;stroke-miterlimit: 10.000000;fill: none;"></path>
  <path d="M792.218826 668.197006C792.218826 634.434952,778.804901 602.059753,754.933334 578.188187C731.061768 554.316620,698.686569 540.902695,664.924515 540.902695C631.162460 540.902695,598.787262 554.316620,574.915695 578.188187C551.044128 602.059753,537.630203 634.434952,537.630203 668.197006C537.630203 701.959061,551.044128 734.334259,574.915695 758.205826C598.787262 782.077393,631.162460 795.491318,664.924515 795.491318C698.686569 795.491318,731.061768 782.077393,754.933334 758.205826C778.804901 734.334259,792.218826 701.959061,792.218826 668.197006Z" style="stroke:rgb(25.500488%,41.000366%,88.400269%); stroke-width: 2.500000;stroke-linecap: round;stroke-linejoin: round;stroke-miterlimit: 10.000000;fill: none;"></path>
  <path d="M774.169235 884.350800C774.169235 850.588745,760.755310 818.213547,736.883743 794.341980C713.012177 770.470413,680.636978 757.056488,646.874924 757.056488C613.112869 757.056488,580.737671 770.470413,556.866104 794.341980C532.994537 818.213547,519.580612 850.588745,519.580612 884.350800C519.580612 918.112854,532.994537 950.488052,556.866104 974.359619C580.737671 998.231186,613.112869 1011.645111,646.874924 1011.645111C680.636978 1011.645111,713.012177 998.231186,736.883743 974.359619C760.755310 950.488052,774.169235 918.112854,774.169235 884.350800Z" style="stroke:rgb(25.500488%,41.000366%,88.400269%); stroke-width: 2.500000;stroke-linecap: round;stroke-linejoin: round;stroke-miterlimit: 10.000000;fill: none;"></path>
  <path d="M723.524017 1076.369293C723.524017 1042.607239,710.110092 1010.232040,686.238525 986.360474C662.366959 962.488907,629.991760 949.074982,596.229706 949.074982C562.467651 949.074982,530.092453 962.488907,506.220886 986.360474C482.349319 1010.232040,468.935394 1042.607239,468.935394 1076.369293C468.935394 1110.131348,482.349319 1142.506546,506.220886 1166.378113C530.092453 1190.249680,562.467651 1203.663605,596.229706 1203.663605C629.991760 1203.663605,662.366959 1190.249680,686.238525 1166.378113C710.110092 1142.506546,723.524017 1110.131348,723.524017 1076.369293Z" style="stroke:rgb(25.500488%,41.000366%,88.400269%); stroke-width: 2.500000;stroke-linecap: round;stroke-linejoin: round;stroke-miterlimit: 10.000000;fill: none;"></path>
  <path d="M1024.955917 377.522186C1024.955917 343.760132,1011.541992 311.384933,987.670425 287.513367C963.798859 263.641800,931.423660 250.227875,897.661606 250.227875C863.899551 250.227875,831.524353 263.641800,807.652786 287.513367C783.781219 311.384933,770.367294 343.760132,770.367294 377.522186C770.367294 411.284241,783.781219 443.659439,807.652786 467.531006C831.524353 491.402573,863.899551 504.816498,897.661606 504.816498C931.423660 504.816498,963.798859 491.402573,987.670425 467.531006C1011.541992 443.659439,1024.955917 411.284241,1024.955917 377.522186Z" style="stroke:rgb(25.500488%,41.000366%,88.400269%); stroke-width: 2.500000;stroke-linecap: round;stroke-linejoin: round;stroke-miterlimit: 10.000000;fill: none;"></path>
  <path d="M1014.601089 610.440948C1014.601089 576.678894,1001.187164 544.303696,977.315598 520.432129C953.444031 496.560562,921.068832 483.146637,887.306778 483.146637C853.544724 483.146637,821.169525 496.560562,797.297958 520.432129C773.426392 544.303696,760.012466 576.678894,760.012466 610.440948C760.012466 644.203003,773.426392 676.578201,797.297958 700.449768C821.169525 724.321335,853.544724 737.735260,887.306778 737.735260C921.068832 737.735260,953.444031 724.321335,977.315598 700.449768C1001.187164 676.578201,1014.601089 644.203003,1014.601089 610.440948Z" style="stroke:rgb(25.500488%,41.000366%,88.400269%); stroke-width: 2.500000;stroke-linecap: round;stroke-linejoin: round;stroke-miterlimit: 10.000000;fill: none;"></path>
  <path d="M974.596161 806.014847C974.596161 772.252792,961.182236 739.877594,937.310669 716.006027C913.439102 692.134460,881.063904 678.720535,847.301849 678.720535C813.539795 678.720535,781.164597 692.134460,757.293030 716.006027C733.421463 739.877594,720.007538 772.252792,720.007538 806.014847C720.007538 839.776901,733.421463 872.152100,757.293030 896.023666C781.164597 919.895233,813.539795 933.309158,847.301849 933.309158C881.063904 933.309158,913.439102 919.895233,937.310669 896.023666C961.182236 872.152100,974.596161 839.776901,974.596161 806.014847Z" style="stroke:rgb(25.500488%,41.000366%,88.400269%); stroke-width: 2.500000;stroke-linecap: round;stroke-linejoin: round;stroke-miterlimit: 10.000000;fill: none;"></path>
  <path d="M952.459137 1014.149490C952.459137 980.387436,939.045212 948.012238,915.173645 924.140671C891.302078 900.269104,858.926880 886.855179,825.164825 886.855179C791.402771 886.855179,759.027573 900.269104,735.156006 924.140671C711.284439 948.012238,697.870514 980.387436,697.870514 1014.149490C697.870514 1047.911545,711.284439 1080.286743,735.156006 1104.158310C759.027573 1128.029877,791.402771 1141.443802,825.164825 1141.443802C858.926880 1141.443802,891.302078 1128.029877,915.173645 1104.158310C939.045212 1080.286743,952.459137 1047.911545,952.459137 1014.149490Z" style="stroke:rgb(25.500488%,41.000366%,88.400269%); stroke-width: 2.500000;stroke-linecap: round;stroke-linejoin: round;stroke-miterlimit: 10.000000;fill: none;"></path>
  <path d="M888.085327 1211.332413C888.085327 1177.570358,874.671402 1145.195160,850.799835 1121.323593C826.928268 1097.452026,794.553070 1084.038101,760.791016 1084.038101C727.028961 1084.038101,694.653763 1097.452026,670.782196 1121.323593C646.910629 1145.195160,633.496704 1177.570358,633.496704 1211.332413C633.496704 1245.094467,646.910629 1277.469666,670.782196 1301.341232C694.653763 1325.212799,727.028961 1338.626724,760.791016 1338.626724C794.553070 1338.626724,826.928268 1325.212799,850.799835 1301.341232C874.671402 1277.469666,888.085327 1245.094467,888.085327 1211.332413Z" style="stroke:rgb(25.500488%,41.000366%,88.400269%); stroke-width: 2.500000;stroke-linecap: round;stroke-linejoin: round;stroke-miterlimit: 10.000000;fill: none;"></path>
  <path d="M1195.538086 522.061569C1195.538086 488.299515,1182.124161 455.924316,1158.252594 432.052750C1134.381027 408.181183,1102.005829 394.767258,1068.243774 394.767258C1034.481720 394.767258,1002.106522 408.181183,978.234955 432.052750C954.363388 455.924316,940.949463 488.299515,940.949463 522.061569C940.949463 555.823624,954.363388 588.198822,978.234955 612.070389C1002.106522 635.941956,1034.481720 649.355881,1068.243774 649.355881C1102.005829 649.355881,1134.381027 635.941956,1158.252594 612.070389C1182.124161 588.198822,1195.538086 555.823624,1195.538086 522.061569Z" style="stroke:rgb(25.500488%,41.000366%,88.400269%); stroke-width: 2.500000;stroke-linecap: round;stroke-linejoin: round;stroke-miterlimit: 10.000000;fill: none;"></path>
  <path d="M1196.667007 749.854828C1196.667007 716.092773,1183.253082 683.717575,1159.381516 659.846008C1135.509949 635.974442,1103.134750 622.560516,1069.372696 622.560516C1035.610641 622.560516,1003.235443 635.974442,979.363876 659.846008C955.492310 683.717575,942.078384 716.092773,942.078384 749.854828C942.078384 783.616882,955.492310 815.992081,979.363876 839.863647C1003.235443 863.735214,1035.610641 877.149139,1069.372696 877.149139C1103.134750 877.149139,1135.509949 863.735214,1159.381516 839.863647C1183.253082 815.992081,1196.667007 783.616882,1196.667007 749.854828Z" style="stroke:rgb(25.500488%,41.000366%,88.400269%); stroke-width: 2.500000;stroke-linecap: round;stroke-linejoin: round;stroke-miterlimit: 10.000000;fill: none;"></path>
  <path d="M1162.436386 928.598877C1162.436386 894.836823,1149.022461 862.461624,1125.150894 838.590057C1101.279327 814.718491,1068.904129 801.304565,1035.142075 801.304565C1001.380020 801.304565,969.004822 814.718491,945.133255 838.590057C921.261688 862.461624,907.847763 894.836823,907.847763 928.598877C907.847763 962.360931,921.261688 994.736130,945.133255 1018.607697C969.004822 1042.479263,1001.380020 1055.893188,1035.142075 1055.893188C1068.904129 1055.893188,1101.279327 1042.479263,1125.150894 1018.607697C1149.022461 994.736130,1162.436386 962.360931,1162.436386 928.598877Z" style="stroke:rgb(25.500488%,41.000366%,88.400269%); stroke-width: 2.500000;stroke-linecap: round;stroke-linejoin: round;stroke-miterlimit: 10.000000;fill: none;"></path>
  <path d="M1117.292953 1146.491455C1117.292953 1112.729401,1103.879028 1080.354202,1080.007462 1056.482635C1056.135895 1032.611069,1023.760696 1019.197144,989.998642 1019.197144C956.236588 1019.197144,923.861389 1032.611069,899.989822 1056.482635C876.118256 1080.354202,862.704330 1112.729401,862.704330 1146.491455C862.704330 1180.253510,876.118256 1212.628708,899.989822 1236.500275C923.861389 1260.371841,956.236588 1273.785767,989.998642 1273.785767C1023.760696 1273.785767,1056.135895 1260.371841,1080.007462 1236.500275C1103.879028 1212.628708,1117.292953 1180.253510,1117.292953 1146.491455Z" style="stroke:rgb(25.500488%,41.000366%,88.400269%); stroke-width: 2.500000;stroke-linecap: round;stroke-linejoin: round;stroke-miterlimit: 10.000000;fill: none;"></path>
  <path d="M1029.679169 1348.605255C1029.679169 1314.843201,1016.265244 1282.468002,992.393677 1258.596436C968.522110 1234.724869,936.146912 1221.310944,902.384857 1221.310944C868.622803 1221.310944,836.247604 1234.724869,812.376038 1258.596436C788.504471 1282.468002,775.090546 1314.843201,775.090546 1348.605255C775.090546 1382.367310,788.504471 1414.742508,812.376038 1438.614075C836.247604 1462.485641,868.622803 1475.899567,902.384857 1475.899567C936.146912 1475.899567,968.522110 1462.485641,992.393677 1438.614075C1016.265244 1414.742508,1029.679169 1382.367310,1029.679169 1348.605255Z" style="stroke:rgb(25.500488%,41.000366%,88.400269%); stroke-width: 2.500000;stroke-linecap: round;stroke-linejoin: round;stroke-miterlimit: 10.000000;fill: none;"></path>
  <path d="M1374.606552 673.179779C1374.606552 639.417725,1361.192627 607.042526,1337.321060 583.170959C1313.449493 559.299393,1281.074295 545.885468,1247.312241 545.885468C1213.550186 545.885468,1181.174988 559.299393,1157.303421 583.170959C1133.431854 607.042526,1120.017929 639.417725,1120.017929 673.179779C1120.017929 706.941833,1133.431854 739.317032,1157.303421 763.188599C1181.174988 787.060165,1213.550186 800.474091,1247.312241 800.474091C1281.074295 800.474091,1313.449493 787.060165,1337.321060 763.188599C1361.192627 739.317032,1374.606552 706.941833,1374.606552 673.179779Z" style="stroke:rgb(25.500488%,41.000366%,88.400269%); stroke-width: 2.500000;stroke-linecap: round;stroke-linejoin: round;stroke-miterlimit: 10.000000;fill: none;"></path>
  <path d="M1393.836945 866.807281C1393.836945 833.045227,1380.423019 800.670029,1356.551453 776.798462C1332.679886 752.926895,1300.304688 739.512970,1266.542633 739.512970C1232.780579 739.512970,1200.405380 752.926895,1176.533813 776.798462C1152.662247 800.670029,1139.248322 833.045227,1139.248322 866.807281C1139.248322 900.569336,1152.662247 932.944534,1176.533813 956.816101C1200.405380 980.687668,1232.780579 994.101593,1266.542633 994.101593C1300.304688 994.101593,1332.679886 980.687668,1356.551453 956.816101C1380.423019 932.944534,1393.836945 900.569336,1393.836945 866.807281Z" style="stroke:rgb(25.500488%,41.000366%,88.400269%); stroke-width: 2.500000;stroke-linecap: round;stroke-linejoin: round;stroke-miterlimit: 10.000000;fill: none;"></path>
  <path d="M1327.283173 1060.901932C1327.283173 1027.139877,1313.869247 994.764679,1289.997681 970.893112C1266.126114 947.021545,1233.750916 933.607620,1199.988861 933.607620C1166.226807 933.607620,1133.851608 947.021545,1109.980042 970.893112C1086.108475 994.764679,1072.694550 1027.139877,1072.694550 1060.901932C1072.694550 1094.663986,1086.108475 1127.039185,1109.980042 1150.910751C1133.851608 1174.782318,1166.226807 1188.196243,1199.988861 1188.196243C1233.750916 1188.196243,1266.126114 1174.782318,1289.997681 1150.910751C1313.869247 1127.039185,1327.283173 1094.663986,1327.283173 1060.901932Z" style="stroke:rgb(25.500488%,41.000366%,88.400269%); stroke-width: 2.500000;stroke-linecap: round;stroke-linejoin: round;stroke-miterlimit: 10.000000;fill: none;"></path>
  <path d="M1593.147934 766.373245C1593.147934 732.611191,1579.734009 700.235992,1555.862442 676.364426C1531.990875 652.492859,1499.615677 639.078934,1465.853622 639.078934C1432.091568 639.078934,1399.716370 652.492859,1375.844803 676.364426C1351.973236 700.235992,1338.559311 732.611191,1338.559311 766.373245C1338.559311 800.135300,1351.973236 832.510498,1375.844803 856.382065C1399.716370 880.253632,1432.091568 893.667557,1465.853622 893.667557C1499.615677 893.667557,1531.990875 880.253632,1555.862442 856.382065C1579.734009 832.510498,1593.147934 800.135300,1593.147934 766.373245Z" style="stroke:rgb(25.500488%,41.000366%,88.400269%); stroke-width: 2.500000;stroke-linecap: round;stroke-linejoin: round;stroke-miterlimit: 10.000000;fill: none;"></path>
  <path d="M371.369019 775.404510C371.369019 741.642456,357.955093 709.267258,334.083527 685.395691C310.211960 661.524124,277.836761 648.110199,244.074707 648.110199C210.312653 648.110199,177.937454 661.524124,154.065887 685.395691C130.194321 709.267258,116.780396 741.642456,116.780396 775.404510C116.780396 809.166565,130.194321 841.541763,154.065887 865.413330C177.937454 889.284897,210.312653 902.698822,244.074707 902.698822C277.836761 902.698822,310.211960 889.284897,334.083527 865.413330C357.955093 841.541763,371.369019 809.166565,371.369019 775.404510Z" style="stroke:rgb(25.500488%,41.000366%,88.400269%); stroke-width: 2.500000;stroke-linecap: round;stroke-linejoin: round;stroke-miterlimit: 10.000000;fill: none;"></path>
  <path d="M621.026779 526.694000C621.026779 492.931946,607.612854 460.556747,583.741287 436.685181C559.869720 412.813614,527.494522 399.399689,493.732468 399.399689C459.970413 399.399689,427.595215 412.813614,403.723648 436.685181C379.852081 460.556747,366.438156 492.931946,366.438156 526.694000C366.438156 560.456055,379.852081 592.831253,403.723648 616.702820C427.595215 640.574387,459.970413 653.988312,493.732468 653.988312C527.494522 653.988312,559.869720 640.574387,583.741287 616.702820C607.612854 592.831253,621.026779 560.456055,621.026779 526.694000Z" style="stroke:rgb(25.500488%,41.000366%,88.400269%); stroke-width: 2.500000;stroke-linecap: round;stroke-linejoin: round;stroke-miterlimit: 10.000000;fill: none;"></path>
  <path d="M1258.886810 1283.751328C1258.886810 1249.989273,1245.472885 1217.614075,1221.601318 1193.742508C1197.729752 1169.870941,1165.354553 1156.457016,1131.592499 1156.457016C1097.830444 1156.457016,1065.455246 1169.870941,1041.583679 1193.742508C1017.712112 1217.614075,1004.298187 1249.989273,1004.298187 1283.751328C1004.298187 1317.513382,1017.712112 1349.888580,1041.583679 1373.760147C1065.455246 1397.631714,1097.830444 1411.045639,1131.592499 1411.045639C1165.354553 1411.045639,1197.729752 1397.631714,1221.601318 1373.760147C1245.472885 1349.888580,1258.886810 1317.513382,1258.886810 1283.751328Z" style="stroke:rgb(25.500488%,41.000366%,88.400269%); stroke-width: 2.500000;stroke-linecap: round;stroke-linejoin: round;stroke-miterlimit: 10.000000;fill: none;"></path>
  <path d="M870.619675 229.466309C870.619675 195.704254,857.205750 163.329056,833.334183 139.457489C809.462616 115.585922,777.087418 102.171997,743.325363 102.171997C709.563309 102.171997,677.188110 115.585922,653.316544 139.457489C629.444977 163.329056,616.031052 195.704254,616.031052 229.466309C616.031052 263.228363,629.444977 295.603561,653.316544 319.475128C677.188110 343.346695,709.563309 356.760620,743.325363 356.760620C777.087418 356.760620,809.462616 343.346695,833.334183 319.475128C857.205750 295.603561,870.619675 263.228363,870.619675 229.466309Z" style="stroke:rgb(25.500488%,41.000366%,88.400269%); stroke-width: 2.500000;stroke-linecap: round;stroke-linejoin: round;stroke-miterlimit: 10.000000;fill: none;"></path>
  <path d="M1559.073013 992.791031C1559.073013 959.028976,1545.659088 926.653778,1521.787521 902.782211C1497.915955 878.910645,1465.540756 865.496719,1431.778702 865.496719C1398.016647 865.496719,1365.641449 878.910645,1341.769882 902.782211C1317.898315 926.653778,1304.484390 959.028976,1304.484390 992.791031C1304.484390 1026.553085,1317.898315 1058.928284,1341.769882 1082.799850C1365.641449 1106.671417,1398.016647 1120.085342,1431.778702 1120.085342C1465.540756 1120.085342,1497.915955 1106.671417,1521.787521 1082.799850C1545.659088 1058.928284,1559.073013 1026.553085,1559.073013 992.791031Z" style="stroke:rgb(25.500488%,41.000366%,88.400269%); stroke-width: 2.500000;stroke-linecap: round;stroke-linejoin: round;stroke-miterlimit: 10.000000;fill: none;"></path>
  <path d="M827.163132 1440.124802C827.163132 1406.362747,813.749207 1373.987549,789.877640 1350.115982C766.006073 1326.244415,733.630875 1312.830490,699.868820 1312.830490C666.106766 1312.830490,633.731567 1326.244415,609.860001 1350.115982C585.988434 1373.987549,572.574509 1406.362747,572.574509 1440.124802C572.574509 1473.886856,585.988434 1506.262054,609.860001 1530.133621C633.731567 1554.005188,666.106766 1567.419113,699.868820 1567.419113C733.630875 1567.419113,766.006073 1554.005188,789.877640 1530.133621C813.749207 1506.262054,827.163132 1473.886856,827.163132 1440.124802Z" style="stroke:rgb(25.500488%,41.000366%,88.400269%); stroke-width: 2.500000;stroke-linecap: round;stroke-linejoin: round;stroke-miterlimit: 10.000000;fill: none;"></path>
  <path d="M530.610184 1161.439789C530.610184 1127.677734,517.196259 1095.302536,493.324692 1071.430969C469.453125 1047.559402,437.077927 1034.145477,403.315872 1034.145477C369.553818 1034.145477,337.178619 1047.559402,313.307053 1071.430969C289.435486 1095.302536,276.021561 1127.677734,276.021561 1161.439789C276.021561 1195.201843,289.435486 1227.577042,313.307053 1251.448608C337.178619 1275.320175,369.553818 1288.734100,403.315872 1288.734100C437.077927 1288.734100,469.453125 1275.320175,493.324692 1251.448608C517.196259 1227.577042,530.610184 1195.201843,530.610184 1161.439789Z" style="stroke:rgb(25.500488%,41.000366%,88.400269%); stroke-width: 2.500000;stroke-linecap: round;stroke-linejoin: round;stroke-miterlimit: 10.000000;fill: none;"></path>
  <path d="M382.593231 1007.674484C382.593231 973.912430,369.179306 941.537231,345.307739 917.665665C321.436172 893.794098,289.060974 880.380173,255.298920 880.380173C221.536865 880.380173,189.161667 893.794098,165.290100 917.665665C141.418533 941.537231,128.004608 973.912430,128.004608 1007.674484C128.004608 1041.436539,141.418533 1073.811737,165.290100 1097.683304C189.161667 1121.554871,221.536865 1134.968796,255.298920 1134.968796C289.060974 1134.968796,321.436172 1121.554871,345.307739 1097.683304C369.179306 1073.811737,382.593231 1041.436539,382.593231 1007.674484Z" style="stroke:rgb(25.500488%,41.000366%,88.400269%); stroke-width: 2.500000;stroke-linecap: round;stroke-linejoin: round;stroke-miterlimit: 10.000000;fill: none;"></path>
  <path d="M685.815826 1300.217850C685.815826 1266.455795,672.401901 1234.080597,648.530334 1210.209030C624.658768 1186.337463,592.283569 1172.923538,558.521515 1172.923538C524.759460 1172.923538,492.384262 1186.337463,468.512695 1210.209030C444.641129 1234.080597,431.227203 1266.455795,431.227203 1300.217850C431.227203 1333.979904,444.641129 1366.355103,468.512695 1390.226669C492.384262 1414.098236,524.759460 1427.512161,558.521515 1427.512161C592.283569 1427.512161,624.658768 1414.098236,648.530334 1390.226669C672.401901 1366.355103,685.815826 1333.979904,685.815826 1300.217850Z" style="stroke:rgb(25.500488%,41.000366%,88.400269%); stroke-width: 2.500000;stroke-linecap: round;stroke-linejoin: round;stroke-miterlimit: 10.000000;fill: none;"></path>
  <path d="M967.472351 1577.553360C967.472351 1543.791306,954.058426 1511.416107,930.186859 1487.544540C906.315292 1463.672974,873.940094 1450.259048,840.178040 1450.259048C806.415985 1450.259048,774.040787 1463.672974,750.169220 1487.544540C726.297653 1511.416107,712.883728 1543.791306,712.883728 1577.553360C712.883728 1611.315414,726.297653 1643.690613,750.169220 1667.562180C774.040787 1691.433746,806.415985 1704.847672,840.178040 1704.847672C873.940094 1704.847672,906.315292 1691.433746,930.186859 1667.562180C954.058426 1643.690613,967.472351 1611.315414,967.472351 1577.553360Z" style="stroke:rgb(25.500488%,41.000366%,88.400269%); stroke-width: 2.500000;stroke-linecap: round;stroke-linejoin: round;stroke-miterlimit: 10.000000;fill: none;"></path>
  <path d="M427.632843 581.387726C427.632843 547.625671,414.218918 515.250473,390.347351 491.378906C366.475784 467.507339,334.100586 454.093414,300.338531 454.093414C266.576477 454.093414,234.201279 467.507339,210.329712 491.378906C186.458145 515.250473,173.044220 547.625671,173.044220 581.387726C173.044220 615.149780,186.458145 647.524979,210.329712 671.396545C234.201279 695.268112,266.576477 708.682037,300.338531 708.682037C334.100586 708.682037,366.475784 695.268112,390.347351 671.396545C414.218918 647.524979,427.632843 615.149780,427.632843 581.387726Z" style="stroke:rgb(25.500488%,41.000366%,88.400269%); stroke-width: 2.500000;stroke-linecap: round;stroke-linejoin: round;stroke-miterlimit: 10.000000;fill: none;"></path>
  <path d="M687.346985 352.452606C687.346985 318.690552,673.933060 286.315353,650.061493 262.443787C626.189926 238.572220,593.814728 225.158295,560.052673 225.158295C526.290619 225.158295,493.915421 238.572220,470.043854 262.443787C446.172287 286.315353,432.758362 318.690552,432.758362 352.452606C432.758362 386.214661,446.172287 418.589859,470.043854 442.461426C493.915421 466.332993,526.290619 479.746918,560.052673 479.746918C593.814728 479.746918,626.189926 466.332993,650.061493 442.461426C673.933060 418.589859,687.346985 386.214661,687.346985 352.452606Z" style="stroke:rgb(25.500488%,41.000366%,88.400269%); stroke-width: 2.500000;stroke-linecap: round;stroke-linejoin: round;stroke-miterlimit: 10.000000;fill: none;"></path>
  <path d="M1004.090546 128.266678C1004.090546 94.504623,990.676620 62.129425,966.805054 38.257858C942.933487 14.386292,910.558289 0.972366,876.796234 0.972366C843.034180 0.972366,810.658981 14.386292,786.787415 38.257858C762.915848 62.129425,749.501923 94.504623,749.501923 128.266678C749.501923 162.028732,762.915848 194.403931,786.787415 218.275497C810.658981 242.147064,843.034180 255.560989,876.796234 255.560989C910.558289 255.560989,942.933487 242.147064,966.805054 218.275497C990.676620 194.403931,1004.090546 162.028732,1004.090546 128.266678Z" style="stroke:rgb(25.500488%,41.000366%,88.400269%); stroke-width: 2.500000;stroke-linecap: round;stroke-linejoin: round;stroke-miterlimit: 10.000000;fill: none;"></path>
  <path d="M1162.851608 276.724808C1162.851608 242.962753,1149.437683 210.587555,1125.566116 186.715988C1101.694550 162.844421,1069.319351 149.430496,1035.557297 149.430496C1001.795242 149.430496,969.420044 162.844421,945.548477 186.715988C921.676910 210.587555,908.262985 242.962753,908.262985 276.724808C908.262985 310.486862,921.676910 342.862061,945.548477 366.733627C969.420044 390.605194,1001.795242 404.019119,1035.557297 404.019119C1069.319351 404.019119,1101.694550 390.605194,1125.566116 366.733627C1149.437683 342.862061,1162.851608 310.486862,1162.851608 276.724808Z" style="stroke:rgb(25.500488%,41.000366%,88.400269%); stroke-width: 2.500000;stroke-linecap: round;stroke-linejoin: round;stroke-miterlimit: 10.000000;fill: none;"></path>
  <path d="M1458.068024 1192.634033C1458.068024 1158.871979,1444.654099 1126.496780,1420.782532 1102.625214C1396.910965 1078.753647,1364.535767 1065.339722,1330.773712 1065.339722C1297.011658 1065.339722,1264.636459 1078.753647,1240.764893 1102.625214C1216.893326 1126.496780,1203.479401 1158.871979,1203.479401 1192.634033C1203.479401 1226.396088,1216.893326 1258.771286,1240.764893 1282.642853C1264.636459 1306.514420,1297.011658 1319.928345,1330.773712 1319.928345C1364.535767 1319.928345,1396.910965 1306.514420,1420.782532 1282.642853C1444.654099 1258.771286,1458.068024 1226.396088,1458.068024 1192.634033Z" style="stroke:rgb(25.500488%,41.000366%,88.400269%); stroke-width: 2.500000;stroke-linecap: round;stroke-linejoin: round;stroke-miterlimit: 10.000000;fill: none;"></path>
  <path d="M1702.405640 870.051285C1702.405640 836.289230,1688.991714 803.914032,1665.120148 780.042465C1641.248581 756.170898,1608.873383 742.756973,1575.111328 742.756973C1541.349274 742.756973,1508.974075 756.170898,1485.102509 780.042465C1461.230942 803.914032,1447.817017 836.289230,1447.817017 870.051285C1447.817017 903.813339,1461.230942 936.188538,1485.102509 960.060104C1508.974075 983.931671,1541.349274 997.345596,1575.111328 997.345596C1608.873383 997.345596,1641.248581 983.931671,1665.120148 960.060104C1688.991714 936.188538,1702.405640 903.813339,1702.405640 870.051285Z" style="stroke:rgb(25.500488%,41.000366%,88.400269%); stroke-width: 2.500000;stroke-linecap: round;stroke-linejoin: round;stroke-miterlimit: 10.000000;fill: none;"></path>
  <path d="M1502.186340 583.684479C1502.186340 549.922424,1488.772415 517.547226,1464.900848 493.675659C1441.029282 469.804092,1408.654083 456.390167,1374.892029 456.390167C1341.129974 456.390167,1308.754776 469.804092,1284.883209 493.675659C1261.011642 517.547226,1247.597717 549.922424,1247.597717 583.684479C1247.597717 617.446533,1261.011642 649.821732,1284.883209 673.693298C1308.754776 697.564865,1341.129974 710.978790,1374.892029 710.978790C1408.654083 710.978790,1441.029282 697.564865,1464.900848 673.693298C1488.772415 649.821732,1502.186340 617.446533,1502.186340 583.684479Z" style="stroke:rgb(25.500488%,41.000366%,88.400269%); stroke-width: 2.500000;stroke-linecap: round;stroke-linejoin: round;stroke-miterlimit: 10.000000;fill: none;"></path>
  <path d="M255.169159 856.400558C255.169159 822.638504,241.755234 790.263306,217.883667 766.391739C194.012100 742.520172,161.636902 729.106247,127.874847 729.106247C94.112793 729.106247,61.737595 742.520172,37.866028 766.391739C13.994461 790.263306,0.580536 822.638504,0.580536 856.400558C0.580536 890.162613,13.994461 922.537811,37.866028 946.409378C61.737595 970.280945,94.112793 983.694870,127.874847 983.694870C161.636902 983.694870,194.012100 970.280945,217.883667 946.409378C241.755234 922.537811,255.169159 890.162613,255.169159 856.400558Z" style="stroke:rgb(25.500488%,41.000366%,88.400269%); stroke-width: 2.500000;stroke-linecap: round;stroke-linejoin: round;stroke-miterlimit: 10.000000;fill: none;"></path>
  <path d="M1323.156815 432.410553C1323.156815 398.648499,1309.742889 366.273300,1285.871323 342.401733C1261.999756 318.530167,1229.624557 305.116241,1195.862503 305.116241C1162.100449 305.116241,1129.725250 318.530167,1105.853683 342.401733C1081.982117 366.273300,1068.568192 398.648499,1068.568192 432.410553C1068.568192 466.172607,1081.982117 498.547806,1105.853683 522.419373C1129.725250 546.290939,1162.100449 559.704865,1195.862503 559.704865C1229.624557 559.704865,1261.999756 546.290939,1285.871323 522.419373C1309.742889 498.547806,1323.156815 466.172607,1323.156815 432.410553Z" style="stroke:rgb(25.500488%,41.000366%,88.400269%); stroke-width: 2.500000;stroke-linecap: round;stroke-linejoin: round;stroke-miterlimit: 10.000000;fill: none;"></path>
  <path d="M1169.975418 1486.007858C1169.975418 1452.245804,1156.561493 1419.870605,1132.689926 1395.999039C1108.818359 1372.127472,1076.443161 1358.713547,1042.681107 1358.713547C1008.919052 1358.713547,976.543854 1372.127472,952.672287 1395.999039C928.800720 1419.870605,915.386795 1452.245804,915.386795 1486.007858C915.386795 1519.769913,928.800720 1552.145111,952.672287 1576.016678C976.543854 1599.888245,1008.919052 1613.302170,1042.681107 1613.302170C1076.443161 1613.302170,1108.818359 1599.888245,1132.689926 1576.016678C1156.561493 1552.145111,1169.975418 1519.769913,1169.975418 1486.007858Z" style="stroke:rgb(25.500488%,41.000366%,88.400269%); stroke-width: 2.500000;stroke-linecap: round;stroke-linejoin: round;stroke-miterlimit: 10.000000;fill: none;"></path>
</svg>
