<?xml version="1.0"?>
<!-- Created by MetaPost 2.00 on 2022.03.02:1201 -->
<svg version="1.1" xmlns="http://www.w3.org/2000/svg" xmlns:xlink="http://www.w3.org/1999/xlink" width="1771.774231" height="1597.195465" viewBox="0 0 1771.774231 1597.195465">
<!-- Original BoundingBox: -885.887115 -798.597733 885.887115 798.597733 -->
  <path d="M1735.393524 798.000000L1310.196762 61.535538L459.803238 61.535538L34.606476 798.000000L459.803238 1534.464462L1310.196762 1534.464462L1735.393524 798.000000Z" style="fill: rgb(100.000000%,100.000000%,100.000000%);stroke: none;"></path>
  <path d="M1735.393524 798.000000L1310.196762 61.535538" style="stroke:rgb(0.000000%,0.000000%,0.000000%); stroke-width: 2.500000;stroke-linecap: round;stroke-linejoin: round;stroke-miterlimit: 10.000000;fill: none;"></path>
  <path d="M1310.196762 61.535538L459.803238 61.535538" style="stroke:rgb(0.000000%,0.000000%,0.000000%); stroke-width: 2.500000;stroke-linecap: round;stroke-linejoin: round;stroke-miterlimit: 10.000000;fill: none;"></path>
  <path d="M459.803238 61.535538L34.606476 798.000000" style="stroke:rgb(0.000000%,0.000000%,0.000000%); stroke-width: 2.500000;stroke-linecap: round;stroke-linejoin: round;stroke-miterlimit: 10.000000;fill: none;"></path>
  <path d="M34.606476 798.000000L459.803238 1534.464462" style="stroke:rgb(0.000000%,0.000000%,0.000000%); stroke-width: 2.500000;stroke-linecap: round;stroke-linejoin: round;stroke-miterlimit: 10.000000;fill: none;"></path>
  <path d="M459.803238 1534.464462L1310.196762 1534.464462" style="stroke:rgb(0.000000%,0.000000%,0.000000%); stroke-width: 2.500000;stroke-linecap: round;stroke-linejoin: round;stroke-miterlimit: 10.000000;fill: none;"></path>
  <path d="M1310.196762 1534.464462L1735.393524 798.000000" style="stroke:rgb(0.000000%,0.000000%,0.000000%); stroke-width: 2.500000;stroke-linecap: round;stroke-linejoin: round;stroke-miterlimit: 10.000000;fill: none;"></path>
  <path d="M630.787659 1488.983673C630.787659 1460.848633,619.609390 1433.869293,599.716415 1413.976318C579.823441 1394.083344,552.844101 1382.905075,524.709061 1382.905075C496.574020 1382.905075,469.594681 1394.083344,449.701706 1413.976318C429.808731 1433.869293,418.630463 1460.848633,418.630463 1488.983673C418.630463 1517.118713,429.808731 1544.098053,449.701706 1563.991028C469.594681 1583.884003,496.574020 1595.062271,524.709061 1595.062271C552.844101 1595.062271,579.823441 1583.884003,599.716415 1563.991028C619.609390 1544.098053,630.787659 1517.118713,630.787659 1488.983673Z" style="stroke:rgb(25.500488%,41.000366%,88.400269%); stroke-width: 2.500000;stroke-linecap: round;stroke-linejoin: round;stroke-miterlimit: 10.000000;fill: none;"></path>
  <path d="M822.585556 1489.269135C822.585556 1461.134094,811.407288 1434.154755,791.514313 1414.261780C771.621338 1394.368805,744.641998 1383.190536,716.506958 1383.190536C688.371918 1383.190536,661.392578 1394.368805,641.499603 1414.261780C621.606628 1434.154755,610.428360 1461.134094,610.428360 1489.269135C610.428360 1517.404175,621.606628 1544.383514,641.499603 1564.276489C661.392578 1584.169464,688.371918 1595.347733,716.506958 1595.347733C744.641998 1595.347733,771.621338 1584.169464,791.514313 1564.276489C811.407288 1544.383514,822.585556 1517.404175,822.585556 1489.269135Z" style="stroke:rgb(25.500488%,41.000366%,88.400269%); stroke-width: 2.500000;stroke-linecap: round;stroke-linejoin: round;stroke-miterlimit: 10.000000;fill: none;"></path>
  <path d="M1013.189667 1486.518234C1013.189667 1458.383194,1002.011398 1431.403854,982.118423 1411.510880C962.225449 1391.617905,935.246109 1380.439636,907.111069 1380.439636C878.976028 1380.439636,851.996689 1391.617905,832.103714 1411.510880C812.210739 1431.403854,801.032471 1458.383194,801.032471 1486.518234C801.032471 1514.653275,812.210739 1541.632614,832.103714 1561.525589C851.996689 1581.418564,878.976028 1592.596832,907.111069 1592.596832C935.246109 1592.596832,962.225449 1581.418564,982.118423 1561.525589C1002.011398 1541.632614,1013.189667 1514.653275,1013.189667 1486.518234Z" style="stroke:rgb(25.500488%,41.000366%,88.400269%); stroke-width: 2.500000;stroke-linecap: round;stroke-linejoin: round;stroke-miterlimit: 10.000000;fill: none;"></path>
  <path d="M1200.796310 1483.403992C1200.796310 1455.268951,1189.618042 1428.289612,1169.725067 1408.396637C1149.832092 1388.503662,1122.852753 1377.325394,1094.717712 1377.325394C1066.582672 1377.325394,1039.603333 1388.503662,1019.710358 1408.396637C999.817383 1428.289612,988.639114 1455.268951,988.639114 1483.403992C988.639114 1511.539032,999.817383 1538.518372,1019.710358 1558.411346C1039.603333 1578.304321,1066.582672 1589.482590,1094.717712 1589.482590C1122.852753 1589.482590,1149.832092 1578.304321,1169.725067 1558.411346C1189.618042 1538.518372,1200.796310 1511.539032,1200.796310 1483.403992Z" style="stroke:rgb(25.500488%,41.000366%,88.400269%); stroke-width: 2.500000;stroke-linecap: round;stroke-linejoin: round;stroke-miterlimit: 10.000000;fill: none;"></path>
  <path d="M1385.626099 1481.366776C1385.626099 1453.231735,1374.447830 1426.252396,1354.554855 1406.359421C1334.661880 1386.466446,1307.682541 1375.288177,1279.547501 1375.288177C1251.412460 1375.288177,1224.433121 1386.466446,1204.540146 1406.359421C1184.647171 1426.252396,1173.468903 1453.231735,1173.468903 1481.366776C1173.468903 1509.501816,1184.647171 1536.481155,1204.540146 1556.374130C1224.433121 1576.267105,1251.412460 1587.445374,1279.547501 1587.445374C1307.682541 1587.445374,1334.661880 1576.267105,1354.554855 1556.374130C1374.447830 1536.481155,1385.626099 1509.501816,1385.626099 1481.366776Z" style="stroke:rgb(25.500488%,41.000366%,88.400269%); stroke-width: 2.500000;stroke-linecap: round;stroke-linejoin: round;stroke-miterlimit: 10.000000;fill: none;"></path>
  <path d="M535.544006 1361.364944C535.544006 1333.229904,524.365738 1306.250565,504.472763 1286.357590C484.579788 1266.464615,457.600449 1255.286346,429.465408 1255.286346C401.330368 1255.286346,374.351028 1266.464615,354.458054 1286.357590C334.565079 1306.250565,323.386810 1333.229904,323.386810 1361.364944C323.386810 1389.499985,334.565079 1416.479324,354.458054 1436.372299C374.351028 1456.265274,401.330368 1467.443542,429.465408 1467.443542C457.600449 1467.443542,484.579788 1456.265274,504.472763 1436.372299C524.365738 1416.479324,535.544006 1389.499985,535.544006 1361.364944Z" style="stroke:rgb(25.500488%,41.000366%,88.400269%); stroke-width: 2.500000;stroke-linecap: round;stroke-linejoin: round;stroke-miterlimit: 10.000000;fill: none;"></path>
  <path d="M729.327225 1337.761642C729.327225 1309.626602,718.148956 1282.647263,698.255981 1262.754288C678.363007 1242.861313,651.383667 1231.683044,623.248627 1231.683044C595.113586 1231.683044,568.134247 1242.861313,548.241272 1262.754288C528.348297 1282.647263,517.170029 1309.626602,517.170029 1337.761642C517.170029 1365.896683,528.348297 1392.876022,548.241272 1412.768997C568.134247 1432.661972,595.113586 1443.840240,623.248627 1443.840240C651.383667 1443.840240,678.363007 1432.661972,698.255981 1412.768997C718.148956 1392.876022,729.327225 1365.896683,729.327225 1337.761642Z" style="stroke:rgb(25.500488%,41.000366%,88.400269%); stroke-width: 2.500000;stroke-linecap: round;stroke-linejoin: round;stroke-miterlimit: 10.000000;fill: none;"></path>
  <path d="M919.775620 1335.283234C919.775620 1307.148193,908.597351 1280.168854,888.704376 1260.275879C868.811401 1240.382904,841.832062 1229.204636,813.697021 1229.204636C785.561981 1229.204636,758.582642 1240.382904,738.689667 1260.275879C718.796692 1280.168854,707.618423 1307.148193,707.618423 1335.283234C707.618423 1363.418274,718.796692 1390.397614,738.689667 1410.290588C758.582642 1430.183563,785.561981 1441.361832,813.697021 1441.361832C841.832062 1441.361832,868.811401 1430.183563,888.704376 1410.290588C908.597351 1390.397614,919.775620 1363.418274,919.775620 1335.283234Z" style="stroke:rgb(25.500488%,41.000366%,88.400269%); stroke-width: 2.500000;stroke-linecap: round;stroke-linejoin: round;stroke-miterlimit: 10.000000;fill: none;"></path>
  <path d="M1108.459274 1329.418091C1108.459274 1301.283051,1097.281006 1274.303711,1077.388031 1254.410736C1057.495056 1234.517761,1030.515717 1223.339493,1002.380676 1223.339493C974.245636 1223.339493,947.266296 1234.517761,927.373322 1254.410736C907.480347 1274.303711,896.302078 1301.283051,896.302078 1329.418091C896.302078 1357.553131,907.480347 1384.532471,927.373322 1404.425446C947.266296 1424.318420,974.245636 1435.496689,1002.380676 1435.496689C1030.515717 1435.496689,1057.495056 1424.318420,1077.388031 1404.425446C1097.281006 1384.532471,1108.459274 1357.553131,1108.459274 1329.418091Z" style="stroke:rgb(25.500488%,41.000366%,88.400269%); stroke-width: 2.500000;stroke-linecap: round;stroke-linejoin: round;stroke-miterlimit: 10.000000;fill: none;"></path>
  <path d="M1294.924042 1324.279617C1294.924042 1296.144577,1283.745773 1269.165237,1263.852798 1249.272263C1243.959824 1229.379288,1216.980484 1218.201019,1188.845444 1218.201019C1160.710403 1218.201019,1133.731064 1229.379288,1113.838089 1249.272263C1093.945114 1269.165237,1082.766846 1296.144577,1082.766846 1324.279617C1082.766846 1352.414658,1093.945114 1379.393997,1113.838089 1399.286972C1133.731064 1419.179947,1160.710403 1430.358215,1188.845444 1430.358215C1216.980484 1430.358215,1243.959824 1419.179947,1263.852798 1399.286972C1283.745773 1379.393997,1294.924042 1352.414658,1294.924042 1324.279617Z" style="stroke:rgb(25.500488%,41.000366%,88.400269%); stroke-width: 2.500000;stroke-linecap: round;stroke-linejoin: round;stroke-miterlimit: 10.000000;fill: none;"></path>
  <path d="M1479.805740 1322.320236C1479.805740 1294.185196,1468.627472 1267.205856,1448.734497 1247.312881C1428.841522 1227.419907,1401.862183 1216.241638,1373.727142 1216.241638C1345.592102 1216.241638,1318.612762 1227.419907,1298.719788 1247.312881C1278.826813 1267.205856,1267.648544 1294.185196,1267.648544 1322.320236C1267.648544 1350.455276,1278.826813 1377.434616,1298.719788 1397.327591C1318.612762 1417.220566,1345.592102 1428.398834,1373.727142 1428.398834C1401.862183 1428.398834,1428.841522 1417.220566,1448.734497 1397.327591C1468.627472 1377.434616,1479.805740 1350.455276,1479.805740 1322.320236Z" style="stroke:rgb(25.500488%,41.000366%,88.400269%); stroke-width: 2.500000;stroke-linecap: round;stroke-linejoin: round;stroke-miterlimit: 10.000000;fill: none;"></path>
  <path d="M449.772812 1210.311615C449.772812 1182.176575,438.594543 1155.197235,418.701569 1135.304260C398.808594 1115.411285,371.829254 1104.233017,343.694214 1104.233017C315.559174 1104.233017,288.579834 1115.411285,268.686859 1135.304260C248.793884 1155.197235,237.615616 1182.176575,237.615616 1210.311615C237.615616 1238.446655,248.793884 1265.425995,268.686859 1285.318970C288.579834 1305.211945,315.559174 1316.390213,343.694214 1316.390213C371.829254 1316.390213,398.808594 1305.211945,418.701569 1285.318970C438.594543 1265.425995,449.772812 1238.446655,449.772812 1210.311615Z" style="stroke:rgb(25.500488%,41.000366%,88.400269%); stroke-width: 2.500000;stroke-linecap: round;stroke-linejoin: round;stroke-miterlimit: 10.000000;fill: none;"></path>
  <path d="M637.470291 1202.733643C637.470291 1174.598602,626.292023 1147.619263,606.399048 1127.726288C586.506073 1107.833313,559.526733 1096.655045,531.391693 1096.655045C503.256653 1096.655045,476.277313 1107.833313,456.384338 1127.726288C436.491364 1147.619263,425.313095 1174.598602,425.313095 1202.733643C425.313095 1230.868683,436.491364 1257.848022,456.384338 1277.740997C476.277313 1297.633972,503.256653 1308.812241,531.391693 1308.812241C559.526733 1308.812241,586.506073 1297.633972,606.399048 1277.740997C626.292023 1257.848022,637.470291 1230.868683,637.470291 1202.733643Z" style="stroke:rgb(25.500488%,41.000366%,88.400269%); stroke-width: 2.500000;stroke-linecap: round;stroke-linejoin: round;stroke-miterlimit: 10.000000;fill: none;"></path>
  <path d="M829.748291 1183.905502C829.748291 1155.770462,818.570023 1128.791122,798.677048 1108.898148C778.784073 1089.005173,751.804733 1077.826904,723.669693 1077.826904C695.534653 1077.826904,668.555313 1089.005173,648.662338 1108.898148C628.769363 1128.791122,617.591095 1155.770462,617.591095 1183.905502C617.591095 1212.040543,628.769363 1239.019882,648.662338 1258.912857C668.555313 1278.805832,695.534653 1289.984100,723.669693 1289.984100C751.804733 1289.984100,778.784073 1278.805832,798.677048 1258.912857C818.570023 1239.019882,829.748291 1212.040543,829.748291 1183.905502Z" style="stroke:rgb(25.500488%,41.000366%,88.400269%); stroke-width: 2.500000;stroke-linecap: round;stroke-linejoin: round;stroke-miterlimit: 10.000000;fill: none;"></path>
  <path d="M1018.418976 1178.053345C1018.418976 1149.918304,1007.240707 1122.938965,987.347733 1103.045990C967.454758 1083.153015,940.475418 1071.974747,912.340378 1071.974747C884.205338 1071.974747,857.225998 1083.153015,837.333023 1103.045990C817.440048 1122.938965,806.261780 1149.918304,806.261780 1178.053345C806.261780 1206.188385,817.440048 1233.167725,837.333023 1253.060699C857.225998 1272.953674,884.205338 1284.131943,912.340378 1284.131943C940.475418 1284.131943,967.454758 1272.953674,987.347733 1253.060699C1007.240707 1233.167725,1018.418976 1206.188385,1018.418976 1178.053345Z" style="stroke:rgb(25.500488%,41.000366%,88.400269%); stroke-width: 2.500000;stroke-linecap: round;stroke-linejoin: round;stroke-miterlimit: 10.000000;fill: none;"></path>
  <path d="M1206.103485 1170.436447C1206.103485 1142.301407,1194.925217 1115.322067,1175.032242 1095.429092C1155.139267 1075.536118,1128.159927 1064.357849,1100.024887 1064.357849C1071.889847 1064.357849,1044.910507 1075.536118,1025.017532 1095.429092C1005.124557 1115.322067,993.946289 1142.301407,993.946289 1170.436447C993.946289 1198.571487,1005.124557 1225.550827,1025.017532 1245.443802C1044.910507 1265.336777,1071.889847 1276.515045,1100.024887 1276.515045C1128.159927 1276.515045,1155.139267 1265.336777,1175.032242 1245.443802C1194.925217 1225.550827,1206.103485 1198.571487,1206.103485 1170.436447Z" style="stroke:rgb(25.500488%,41.000366%,88.400269%); stroke-width: 2.500000;stroke-linecap: round;stroke-linejoin: round;stroke-miterlimit: 10.000000;fill: none;"></path>
  <path d="M1392.607178 1165.362839C1392.607178 1137.227798,1381.428909 1110.248459,1361.535934 1090.355484C1341.642960 1070.462509,1314.663620 1059.284241,1286.528580 1059.284241C1258.393539 1059.284241,1231.414200 1070.462509,1211.521225 1090.355484C1191.628250 1110.248459,1180.449982 1137.227798,1180.449982 1165.362839C1180.449982 1193.497879,1191.628250 1220.477219,1211.521225 1240.370193C1231.414200 1260.263168,1258.393539 1271.441437,1286.528580 1271.441437C1314.663620 1271.441437,1341.642960 1260.263168,1361.535934 1240.370193C1381.428909 1220.477219,1392.607178 1193.497879,1392.607178 1165.362839Z" style="stroke:rgb(25.500488%,41.000366%,88.400269%); stroke-width: 2.500000;stroke-linecap: round;stroke-linejoin: round;stroke-miterlimit: 10.000000;fill: none;"></path>
  <path d="M1576.308060 1161.405167C1576.308060 1133.270126,1565.129791 1106.290787,1545.236816 1086.397812C1525.343842 1066.504837,1498.364502 1055.326569,1470.229462 1055.326569C1442.094421 1055.326569,1415.115082 1066.504837,1395.222107 1086.397812C1375.329132 1106.290787,1364.150864 1133.270126,1364.150864 1161.405167C1364.150864 1189.540207,1375.329132 1216.519547,1395.222107 1236.412521C1415.115082 1256.305496,1442.094421 1267.483765,1470.229462 1267.483765C1498.364502 1267.483765,1525.343842 1256.305496,1545.236816 1236.412521C1565.129791 1216.519547,1576.308060 1189.540207,1576.308060 1161.405167Z" style="stroke:rgb(25.500488%,41.000366%,88.400269%); stroke-width: 2.500000;stroke-linecap: round;stroke-linejoin: round;stroke-miterlimit: 10.000000;fill: none;"></path>
  <path d="M363.352814 1060.633743C363.352814 1032.498703,352.174545 1005.519363,332.281570 985.626389C312.388596 965.733414,285.409256 954.555145,257.274216 954.555145C229.139175 954.555145,202.159836 965.733414,182.266861 985.626389C162.373886 1005.519363,151.195618 1032.498703,151.195618 1060.633743C151.195618 1088.768784,162.373886 1115.748123,182.266861 1135.641098C202.159836 1155.534073,229.139175 1166.712341,257.274216 1166.712341C285.409256 1166.712341,312.388596 1155.534073,332.281570 1135.641098C352.174545 1115.748123,363.352814 1088.768784,363.352814 1060.633743Z" style="stroke:rgb(25.500488%,41.000366%,88.400269%); stroke-width: 2.500000;stroke-linecap: round;stroke-linejoin: round;stroke-miterlimit: 10.000000;fill: none;"></path>
  <path d="M551.699097 1051.667343C551.699097 1023.532303,540.520828 996.552963,520.627853 976.659988C500.734879 956.767014,473.755539 945.588745,445.620499 945.588745C417.485458 945.588745,390.506119 956.767014,370.613144 976.659988C350.720169 996.552963,339.541901 1023.532303,339.541901 1051.667343C339.541901 1079.802383,350.720169 1106.781723,370.613144 1126.674698C390.506119 1146.567673,417.485458 1157.745941,445.620499 1157.745941C473.755539 1157.745941,500.734879 1146.567673,520.627853 1126.674698C540.520828 1106.781723,551.699097 1079.802383,551.699097 1051.667343Z" style="stroke:rgb(25.500488%,41.000366%,88.400269%); stroke-width: 2.500000;stroke-linecap: round;stroke-linejoin: round;stroke-miterlimit: 10.000000;fill: none;"></path>
  <path d="M739.409561 1044.102356C739.409561 1015.967316,728.231293 988.987976,708.338318 969.095001C688.445343 949.202026,661.466003 938.023758,633.330963 938.023758C605.195923 938.023758,578.216583 949.202026,558.323608 969.095001C538.430634 988.987976,527.252365 1015.967316,527.252365 1044.102356C527.252365 1072.237396,538.430634 1099.216736,558.323608 1119.109711C578.216583 1139.002686,605.195923 1150.180954,633.330963 1150.180954C661.466003 1150.180954,688.445343 1139.002686,708.338318 1119.109711C728.231293 1099.216736,739.409561 1072.237396,739.409561 1044.102356Z" style="stroke:rgb(25.500488%,41.000366%,88.400269%); stroke-width: 2.500000;stroke-linecap: round;stroke-linejoin: round;stroke-miterlimit: 10.000000;fill: none;"></path>
  <path d="M931.129593 1026.844299C931.129593 998.709259,919.951324 971.729919,900.058350 951.836945C880.165375 931.943970,853.186035 920.765701,825.050995 920.765701C796.915955 920.765701,769.936615 931.943970,750.043640 951.836945C730.150665 971.729919,718.972397 998.709259,718.972397 1026.844299C718.972397 1054.979340,730.150665 1081.958679,750.043640 1101.851654C769.936615 1121.744629,796.915955 1132.922897,825.050995 1132.922897C853.186035 1132.922897,880.165375 1121.744629,900.058350 1101.851654C919.951324 1081.958679,931.129593 1054.979340,931.129593 1026.844299Z" style="stroke:rgb(25.500488%,41.000366%,88.400269%); stroke-width: 2.500000;stroke-linecap: round;stroke-linejoin: round;stroke-miterlimit: 10.000000;fill: none;"></path>
  <path d="M1118.827072 1019.266327C1118.827072 991.131287,1107.648804 964.151947,1087.755829 944.258972C1067.862854 924.365997,1040.883514 913.187729,1012.748474 913.187729C984.613434 913.187729,957.634094 924.365997,937.741119 944.258972C917.848145 964.151947,906.669876 991.131287,906.669876 1019.266327C906.669876 1047.401367,917.848145 1074.380707,937.741119 1094.273682C957.634094 1114.166656,984.613434 1125.344925,1012.748474 1125.344925C1040.883514 1125.344925,1067.862854 1114.166656,1087.755829 1094.273682C1107.648804 1074.380707,1118.827072 1047.401367,1118.827072 1019.266327Z" style="stroke:rgb(25.500488%,41.000366%,88.400269%); stroke-width: 2.500000;stroke-linecap: round;stroke-linejoin: round;stroke-miterlimit: 10.000000;fill: none;"></path>
  <path d="M1306.537537 1011.701340C1306.537537 983.566299,1295.359268 956.586960,1275.466293 936.693985C1255.573318 916.801010,1228.593979 905.622742,1200.458939 905.622742C1172.323898 905.622742,1145.344559 916.801010,1125.451584 936.693985C1105.558609 956.586960,1094.380341 983.566299,1094.380341 1011.701340C1094.380341 1039.836380,1105.558609 1066.815720,1125.451584 1086.708694C1145.344559 1106.601669,1172.323898 1117.779938,1200.458939 1117.779938C1228.593979 1117.779938,1255.573318 1106.601669,1275.466293 1086.708694C1295.359268 1066.815720,1306.537537 1039.836380,1306.537537 1011.701340Z" style="stroke:rgb(25.500488%,41.000366%,88.400269%); stroke-width: 2.500000;stroke-linecap: round;stroke-linejoin: round;stroke-miterlimit: 10.000000;fill: none;"></path>
  <path d="M1492.029099 1004.901932C1492.029099 976.766891,1480.850830 949.787552,1460.957855 929.894577C1441.064880 910.001602,1414.085541 898.823334,1385.950500 898.823334C1357.815460 898.823334,1330.836121 910.001602,1310.943146 929.894577C1291.050171 949.787552,1279.871902 976.766891,1279.871902 1004.901932C1279.871902 1033.036972,1291.050171 1060.016312,1310.943146 1079.909286C1330.836121 1099.802261,1357.815460 1110.980530,1385.950500 1110.980530C1414.085541 1110.980530,1441.064880 1099.802261,1460.957855 1079.909286C1480.850830 1060.016312,1492.029099 1033.036972,1492.029099 1004.901932Z" style="stroke:rgb(25.500488%,41.000366%,88.400269%); stroke-width: 2.500000;stroke-linecap: round;stroke-linejoin: round;stroke-miterlimit: 10.000000;fill: none;"></path>
  <path d="M1673.978226 997.726212C1673.978226 969.591171,1662.799957 942.611832,1642.906982 922.718857C1623.014008 902.825882,1596.034668 891.647614,1567.899628 891.647614C1539.764587 891.647614,1512.785248 902.825882,1492.892273 922.718857C1472.999298 942.611832,1461.821030 969.591171,1461.821030 997.726212C1461.821030 1025.861252,1472.999298 1052.840591,1492.892273 1072.733566C1512.785248 1092.626541,1539.764587 1103.804810,1567.899628 1103.804810C1596.034668 1103.804810,1623.014008 1092.626541,1642.906982 1072.733566C1662.799957 1052.840591,1673.978226 1025.861252,1673.978226 997.726212Z" style="stroke:rgb(25.500488%,41.000366%,88.400269%); stroke-width: 2.500000;stroke-linecap: round;stroke-linejoin: round;stroke-miterlimit: 10.000000;fill: none;"></path>
  <path d="M275.427597 910.826111C275.427597 882.691071,264.249329 855.711731,244.356354 835.818756C224.463379 815.925781,197.484039 804.747513,169.348999 804.747513C141.213959 804.747513,114.234619 815.925781,94.341644 835.818756C74.448669 855.711731,63.270401 882.691071,63.270401 910.826111C63.270401 938.961151,74.448669 965.940491,94.341644 985.833466C114.234619 1005.726440,141.213959 1016.904709,169.348999 1016.904709C197.484039 1016.904709,224.463379 1005.726440,244.356354 985.833466C264.249329 965.940491,275.427597 938.961151,275.427597 910.826111Z" style="stroke:rgb(25.500488%,41.000366%,88.400269%); stroke-width: 2.500000;stroke-linecap: round;stroke-linejoin: round;stroke-miterlimit: 10.000000;fill: none;"></path>
  <path d="M463.773880 901.859711C463.773880 873.724670,452.595612 846.745331,432.702637 826.852356C412.809662 806.959381,385.830322 795.781113,357.695282 795.781113C329.560242 795.781113,302.580902 806.959381,282.687927 826.852356C262.794952 846.745331,251.616684 873.724670,251.616684 901.859711C251.616684 929.994751,262.794952 956.974091,282.687927 976.867065C302.580902 996.760040,329.560242 1007.938309,357.695282 1007.938309C385.830322 1007.938309,412.809662 996.760040,432.702637 976.867065C452.595612 956.974091,463.773880 929.994751,463.773880 901.859711Z" style="stroke:rgb(25.500488%,41.000366%,88.400269%); stroke-width: 2.500000;stroke-linecap: round;stroke-linejoin: round;stroke-miterlimit: 10.000000;fill: none;"></path>
  <path d="M652.107193 892.906281C652.107193 864.771240,640.928925 837.791901,621.035950 817.898926C601.142975 798.005951,574.163635 786.827682,546.028595 786.827682C517.893555 786.827682,490.914215 798.005951,471.021240 817.898926C451.128265 837.791901,439.949997 864.771240,439.949997 892.906281C439.949997 921.041321,451.128265 948.020660,471.021240 967.913635C490.914215 987.806610,517.893555 998.984879,546.028595 998.984879C574.163635 998.984879,601.142975 987.806610,621.035950 967.913635C640.928925 948.020660,652.107193 921.041321,652.107193 892.906281Z" style="stroke:rgb(25.500488%,41.000366%,88.400269%); stroke-width: 2.500000;stroke-linecap: round;stroke-linejoin: round;stroke-miterlimit: 10.000000;fill: none;"></path>
  <path d="M839.804672 885.341293C839.804672 857.206253,828.626404 830.226913,808.733429 810.333939C788.840454 790.440964,761.861115 779.262695,733.726074 779.262695C705.591034 779.262695,678.611694 790.440964,658.718719 810.333939C638.825745 830.226913,627.647476 857.206253,627.647476 885.341293C627.647476 913.476334,638.825745 940.455673,658.718719 960.348648C678.611694 980.241623,705.591034 991.419891,733.726074 991.419891C761.861115 991.419891,788.840454 980.241623,808.733429 960.348648C828.626404 940.455673,839.804672 913.476334,839.804672 885.341293Z" style="stroke:rgb(25.500488%,41.000366%,88.400269%); stroke-width: 2.500000;stroke-linecap: round;stroke-linejoin: round;stroke-miterlimit: 10.000000;fill: none;"></path>
  <path d="M1031.537689 868.070267C1031.537689 839.935226,1020.359421 812.955887,1000.466446 793.062912C980.573471 773.169937,953.594131 761.991669,925.459091 761.991669C897.324051 761.991669,870.344711 773.169937,850.451736 793.062912C830.558762 812.955887,819.380493 839.935226,819.380493 868.070267C819.380493 896.205307,830.558762 923.184647,850.451736 943.077621C870.344711 962.970596,897.324051 974.148865,925.459091 974.148865C953.594131 974.148865,980.573471 962.970596,1000.466446 943.077621C1020.359421 923.184647,1031.537689 896.205307,1031.537689 868.070267Z" style="stroke:rgb(25.500488%,41.000366%,88.400269%); stroke-width: 2.500000;stroke-linecap: round;stroke-linejoin: round;stroke-miterlimit: 10.000000;fill: none;"></path>
  <path d="M1219.235168 860.505280C1219.235168 832.370239,1208.056900 805.390900,1188.163925 785.497925C1168.270950 765.604950,1141.291611 754.426682,1113.156570 754.426682C1085.021530 754.426682,1058.042191 765.604950,1038.149216 785.497925C1018.256241 805.390900,1007.077972 832.370239,1007.077972 860.505280C1007.077972 888.640320,1018.256241 915.619659,1038.149216 935.512634C1058.042191 955.405609,1085.021530 966.583878,1113.156570 966.583878C1141.291611 966.583878,1168.270950 955.405609,1188.163925 935.512634C1208.056900 915.619659,1219.235168 888.640320,1219.235168 860.505280Z" style="stroke:rgb(25.500488%,41.000366%,88.400269%); stroke-width: 2.500000;stroke-linecap: round;stroke-linejoin: round;stroke-miterlimit: 10.000000;fill: none;"></path>
  <path d="M1405.946487 851.240433C1405.946487 823.105392,1394.768219 796.126053,1374.875244 776.233078C1354.982269 756.340103,1328.002930 745.161835,1299.867889 745.161835C1271.732849 745.161835,1244.753510 756.340103,1224.860535 776.233078C1204.967560 796.126053,1193.789291 823.105392,1193.789291 851.240433C1193.789291 879.375473,1204.967560 906.354813,1224.860535 926.247787C1244.753510 946.140762,1271.732849 957.319031,1299.867889 957.319031C1328.002930 957.319031,1354.982269 946.140762,1374.875244 926.247787C1394.768219 906.354813,1405.946487 879.375473,1405.946487 851.240433Z" style="stroke:rgb(25.500488%,41.000366%,88.400269%); stroke-width: 2.500000;stroke-linecap: round;stroke-linejoin: round;stroke-miterlimit: 10.000000;fill: none;"></path>
  <path d="M1589.400818 841.197021C1589.400818 813.061981,1578.222549 786.082642,1558.329575 766.189667C1538.436600 746.296692,1511.457260 735.118423,1483.322220 735.118423C1455.187180 735.118423,1428.207840 746.296692,1408.314865 766.189667C1388.421890 786.082642,1377.243622 813.061981,1377.243622 841.197021C1377.243622 869.332062,1388.421890 896.311401,1408.314865 916.204376C1428.207840 936.097351,1455.187180 947.275620,1483.322220 947.275620C1511.457260 947.275620,1538.436600 936.097351,1558.329575 916.204376C1578.222549 896.311401,1589.400818 869.332062,1589.400818 841.197021Z" style="stroke:rgb(25.500488%,41.000366%,88.400269%); stroke-width: 2.500000;stroke-linecap: round;stroke-linejoin: round;stroke-miterlimit: 10.000000;fill: none;"></path>
  <path d="M1769.637115 831.465042C1769.637115 803.330002,1758.458847 776.350662,1738.565872 756.457687C1718.672897 736.564713,1691.693558 725.386444,1663.558517 725.386444C1635.423477 725.386444,1608.444138 736.564713,1588.551163 756.457687C1568.658188 776.350662,1557.479919 803.330002,1557.479919 831.465042C1557.479919 859.600082,1568.658188 886.579422,1588.551163 906.472397C1608.444138 926.365372,1635.423477 937.543640,1663.558517 937.543640C1691.693558 937.543640,1718.672897 926.365372,1738.565872 906.472397C1758.458847 886.579422,1769.637115 859.600082,1769.637115 831.465042Z" style="stroke:rgb(25.500488%,41.000366%,88.400269%); stroke-width: 2.500000;stroke-linecap: round;stroke-linejoin: round;stroke-miterlimit: 10.000000;fill: none;"></path>
  <path d="M212.520081 764.534958C212.520081 736.399918,201.341812 709.420578,181.448837 689.527603C161.555862 669.634628,134.576523 658.456360,106.441483 658.456360C78.306442 658.456360,51.327103 669.634628,31.434128 689.527603C11.541153 709.420578,0.362885 736.399918,0.362885 764.534958C0.362885 792.669998,11.541153 819.649338,31.434128 839.542313C51.327103 859.435287,78.306442 870.613556,106.441483 870.613556C134.576523 870.613556,161.555862 859.435287,181.448837 839.542313C201.341812 819.649338,212.520081 792.669998,212.520081 764.534958Z" style="stroke:rgb(25.500488%,41.000366%,88.400269%); stroke-width: 2.500000;stroke-linecap: round;stroke-linejoin: round;stroke-miterlimit: 10.000000;fill: none;"></path>
  <path d="M392.756378 754.802979C392.756378 726.667938,381.578110 699.688599,361.685135 679.795624C341.792160 659.902649,314.812820 648.724380,286.677780 648.724380C258.542740 648.724380,231.563400 659.902649,211.670425 679.795624C191.777451 699.688599,180.599182 726.667938,180.599182 754.802979C180.599182 782.938019,191.777451 809.917358,211.670425 829.810333C231.563400 849.703308,258.542740 860.881577,286.677780 860.881577C314.812820 860.881577,341.792160 849.703308,361.685135 829.810333C381.578110 809.917358,392.756378 782.938019,392.756378 754.802979Z" style="stroke:rgb(25.500488%,41.000366%,88.400269%); stroke-width: 2.500000;stroke-linecap: round;stroke-linejoin: round;stroke-miterlimit: 10.000000;fill: none;"></path>
  <path d="M576.210709 744.759567C576.210709 716.624527,565.032440 689.645187,545.139465 669.752213C525.246490 649.859238,498.267151 638.680969,470.132111 638.680969C441.997070 638.680969,415.017731 649.859238,395.124756 669.752213C375.231781 689.645187,364.053513 716.624527,364.053513 744.759567C364.053513 772.894608,375.231781 799.873947,395.124756 819.766922C415.017731 839.659897,441.997070 850.838165,470.132111 850.838165C498.267151 850.838165,525.246490 839.659897,545.139465 819.766922C565.032440 799.873947,576.210709 772.894608,576.210709 744.759567Z" style="stroke:rgb(25.500488%,41.000366%,88.400269%); stroke-width: 2.500000;stroke-linecap: round;stroke-linejoin: round;stroke-miterlimit: 10.000000;fill: none;"></path>
  <path d="M762.922028 735.494720C762.922028 707.359680,751.743759 680.380341,731.850784 660.487366C711.957809 640.594391,684.978470 629.416122,656.843430 629.416122C628.708389 629.416122,601.729050 640.594391,581.836075 660.487366C561.943100 680.380341,550.764832 707.359680,550.764832 735.494720C550.764832 763.629761,561.943100 790.609100,581.836075 810.502075C601.729050 830.395050,628.708389 841.573318,656.843430 841.573318C684.978470 841.573318,711.957809 830.395050,731.850784 810.502075C751.743759 790.609100,762.922028 763.629761,762.922028 735.494720Z" style="stroke:rgb(25.500488%,41.000366%,88.400269%); stroke-width: 2.500000;stroke-linecap: round;stroke-linejoin: round;stroke-miterlimit: 10.000000;fill: none;"></path>
  <path d="M950.619507 727.929733C950.619507 699.794693,939.441238 672.815353,919.548264 652.922379C899.655289 633.029404,872.675949 621.851135,844.540909 621.851135C816.405869 621.851135,789.426529 633.029404,769.533554 652.922379C749.640579 672.815353,738.462311 699.794693,738.462311 727.929733C738.462311 756.064774,749.640579 783.044113,769.533554 802.937088C789.426529 822.830063,816.405869 834.008331,844.540909 834.008331C872.675949 834.008331,899.655289 822.830063,919.548264 802.937088C939.441238 783.044113,950.619507 756.064774,950.619507 727.929733Z" style="stroke:rgb(25.500488%,41.000366%,88.400269%); stroke-width: 2.500000;stroke-linecap: round;stroke-linejoin: round;stroke-miterlimit: 10.000000;fill: none;"></path>
  <path d="M1142.352524 710.658707C1142.352524 682.523666,1131.174255 655.544327,1111.281281 635.651352C1091.388306 615.758377,1064.408966 604.580109,1036.273926 604.580109C1008.138885 604.580109,981.159546 615.758377,961.266571 635.651352C941.373596 655.544327,930.195328 682.523666,930.195328 710.658707C930.195328 738.793747,941.373596 765.773087,961.266571 785.666061C981.159546 805.559036,1008.138885 816.737305,1036.273926 816.737305C1064.408966 816.737305,1091.388306 805.559036,1111.281281 785.666061C1131.174255 765.773087,1142.352524 738.793747,1142.352524 710.658707Z" style="stroke:rgb(25.500488%,41.000366%,88.400269%); stroke-width: 2.500000;stroke-linecap: round;stroke-linejoin: round;stroke-miterlimit: 10.000000;fill: none;"></path>
  <path d="M1330.050003 703.093719C1330.050003 674.958679,1318.871735 647.979340,1298.978760 628.086365C1279.085785 608.193390,1252.106445 597.015121,1223.971405 597.015121C1195.836365 597.015121,1168.857025 608.193390,1148.964050 628.086365C1129.071075 647.979340,1117.892807 674.958679,1117.892807 703.093719C1117.892807 731.228760,1129.071075 758.208099,1148.964050 778.101074C1168.857025 797.994049,1195.836365 809.172318,1223.971405 809.172318C1252.106445 809.172318,1279.085785 797.994049,1298.978760 778.101074C1318.871735 758.208099,1330.050003 731.228760,1330.050003 703.093719Z" style="stroke:rgb(25.500488%,41.000366%,88.400269%); stroke-width: 2.500000;stroke-linecap: round;stroke-linejoin: round;stroke-miterlimit: 10.000000;fill: none;"></path>
  <path d="M1518.383316 694.140289C1518.383316 666.005249,1507.205048 639.025909,1487.312073 619.132935C1467.419098 599.239960,1440.439758 588.061691,1412.304718 588.061691C1384.169678 588.061691,1357.190338 599.239960,1337.297363 619.132935C1317.404388 639.025909,1306.226120 666.005249,1306.226120 694.140289C1306.226120 722.275330,1317.404388 749.254669,1337.297363 769.147644C1357.190338 789.040619,1384.169678 800.218887,1412.304718 800.218887C1440.439758 800.218887,1467.419098 789.040619,1487.312073 769.147644C1507.205048 749.254669,1518.383316 722.275330,1518.383316 694.140289Z" style="stroke:rgb(25.500488%,41.000366%,88.400269%); stroke-width: 2.500000;stroke-linecap: round;stroke-linejoin: round;stroke-miterlimit: 10.000000;fill: none;"></path>
  <path d="M1706.729599 685.173889C1706.729599 657.038849,1695.551331 630.059509,1675.658356 610.166534C1655.765381 590.273560,1628.786041 579.095291,1600.651001 579.095291C1572.515961 579.095291,1545.536621 590.273560,1525.643646 610.166534C1505.750671 630.059509,1494.572403 657.038849,1494.572403 685.173889C1494.572403 713.308929,1505.750671 740.288269,1525.643646 760.181244C1545.536621 780.074219,1572.515961 791.252487,1600.651001 791.252487C1628.786041 791.252487,1655.765381 780.074219,1675.658356 760.181244C1695.551331 740.288269,1706.729599 713.308929,1706.729599 685.173889Z" style="stroke:rgb(25.500488%,41.000366%,88.400269%); stroke-width: 2.500000;stroke-linecap: round;stroke-linejoin: round;stroke-miterlimit: 10.000000;fill: none;"></path>
  <path d="M308.178970 598.273788C308.178970 570.138748,297.000702 543.159409,277.107727 523.266434C257.214752 503.373459,230.235413 492.195190,202.100372 492.195190C173.965332 492.195190,146.985992 503.373459,127.093018 523.266434C107.200043 543.159409,96.021774 570.138748,96.021774 598.273788C96.021774 626.408829,107.200043 653.388168,127.093018 673.281143C146.985992 693.174118,173.965332 704.352386,202.100372 704.352386C230.235413 704.352386,257.214752 693.174118,277.107727 673.281143C297.000702 653.388168,308.178970 626.408829,308.178970 598.273788Z" style="stroke:rgb(25.500488%,41.000366%,88.400269%); stroke-width: 2.500000;stroke-linecap: round;stroke-linejoin: round;stroke-miterlimit: 10.000000;fill: none;"></path>
  <path d="M490.128098 591.098068C490.128098 562.963028,478.949829 535.983688,459.056854 516.090714C439.163879 496.197739,412.184540 485.019470,384.049500 485.019470C355.914459 485.019470,328.935120 496.197739,309.042145 516.090714C289.149170 535.983688,277.970901 562.963028,277.970901 591.098068C277.970901 619.233109,289.149170 646.212448,309.042145 666.105423C328.935120 685.998398,355.914459 697.176666,384.049500 697.176666C412.184540 697.176666,439.163879 685.998398,459.056854 666.105423C478.949829 646.212448,490.128098 619.233109,490.128098 591.098068Z" style="stroke:rgb(25.500488%,41.000366%,88.400269%); stroke-width: 2.500000;stroke-linecap: round;stroke-linejoin: round;stroke-miterlimit: 10.000000;fill: none;"></path>
  <path d="M675.619659 584.298660C675.619659 556.163620,664.441391 529.184280,644.548416 509.291306C624.655441 489.398331,597.676102 478.220062,569.541061 478.220062C541.406021 478.220062,514.426682 489.398331,494.533707 509.291306C474.640732 529.184280,463.462463 556.163620,463.462463 584.298660C463.462463 612.433701,474.640732 639.413040,494.533707 659.306015C514.426682 679.198990,541.406021 690.377258,569.541061 690.377258C597.676102 690.377258,624.655441 679.198990,644.548416 659.306015C664.441391 639.413040,675.619659 612.433701,675.619659 584.298660Z" style="stroke:rgb(25.500488%,41.000366%,88.400269%); stroke-width: 2.500000;stroke-linecap: round;stroke-linejoin: round;stroke-miterlimit: 10.000000;fill: none;"></path>
  <path d="M863.330124 576.733673C863.330124 548.598633,852.151855 521.619293,832.258881 501.726318C812.365906 481.833344,785.386566 470.655075,757.251526 470.655075C729.116486 470.655075,702.137146 481.833344,682.244171 501.726318C662.351196 521.619293,651.172928 548.598633,651.172928 576.733673C651.172928 604.868713,662.351196 631.848053,682.244171 651.741028C702.137146 671.634003,729.116486 682.812271,757.251526 682.812271C785.386566 682.812271,812.365906 671.634003,832.258881 651.741028C852.151855 631.848053,863.330124 604.868713,863.330124 576.733673Z" style="stroke:rgb(25.500488%,41.000366%,88.400269%); stroke-width: 2.500000;stroke-linecap: round;stroke-linejoin: round;stroke-miterlimit: 10.000000;fill: none;"></path>
  <path d="M1051.027603 569.155701C1051.027603 541.020660,1039.849335 514.041321,1019.956360 494.148346C1000.063385 474.255371,973.084045 463.077103,944.949005 463.077103C916.813965 463.077103,889.834625 474.255371,869.941650 494.148346C850.048676 514.041321,838.870407 541.020660,838.870407 569.155701C838.870407 597.290741,850.048676 624.270081,869.941650 644.163055C889.834625 664.056030,916.813965 675.234299,944.949005 675.234299C973.084045 675.234299,1000.063385 664.056030,1019.956360 644.163055C1039.849335 624.270081,1051.027603 597.290741,1051.027603 569.155701Z" style="stroke:rgb(25.500488%,41.000366%,88.400269%); stroke-width: 2.500000;stroke-linecap: round;stroke-linejoin: round;stroke-miterlimit: 10.000000;fill: none;"></path>
  <path d="M1242.747635 551.897644C1242.747635 523.762604,1231.569366 496.783264,1211.676392 476.890289C1191.783417 456.997314,1164.804077 445.819046,1136.669037 445.819046C1108.533997 445.819046,1081.554657 456.997314,1061.661682 476.890289C1041.768707 496.783264,1030.590439 523.762604,1030.590439 551.897644C1030.590439 580.032684,1041.768707 607.012024,1061.661682 626.904999C1081.554657 646.797974,1108.533997 657.976242,1136.669037 657.976242C1164.804077 657.976242,1191.783417 646.797974,1211.676392 626.904999C1231.569366 607.012024,1242.747635 580.032684,1242.747635 551.897644Z" style="stroke:rgb(25.500488%,41.000366%,88.400269%); stroke-width: 2.500000;stroke-linecap: round;stroke-linejoin: round;stroke-miterlimit: 10.000000;fill: none;"></path>
  <path d="M1430.458099 544.332657C1430.458099 516.197617,1419.279831 489.218277,1399.386856 469.325302C1379.493881 449.432327,1352.514542 438.254059,1324.379501 438.254059C1296.244461 438.254059,1269.265121 449.432327,1249.372147 469.325302C1229.479172 489.218277,1218.300903 516.197617,1218.300903 544.332657C1218.300903 572.467697,1229.479172 599.447037,1249.372147 619.340012C1269.265121 639.232986,1296.244461 650.411255,1324.379501 650.411255C1352.514542 650.411255,1379.493881 639.232986,1399.386856 619.340012C1419.279831 599.447037,1430.458099 572.467697,1430.458099 544.332657Z" style="stroke:rgb(25.500488%,41.000366%,88.400269%); stroke-width: 2.500000;stroke-linecap: round;stroke-linejoin: round;stroke-miterlimit: 10.000000;fill: none;"></path>
  <path d="M1618.804382 535.366257C1618.804382 507.231216,1607.626114 480.251877,1587.733139 460.358902C1567.840164 440.465927,1540.860825 429.287659,1512.725784 429.287659C1484.590744 429.287659,1457.611404 440.465927,1437.718430 460.358902C1417.825455 480.251877,1406.647186 507.231216,1406.647186 535.366257C1406.647186 563.501297,1417.825455 590.480637,1437.718430 610.373611C1457.611404 630.266586,1484.590744 641.444855,1512.725784 641.444855C1540.860825 641.444855,1567.840164 630.266586,1587.733139 610.373611C1607.626114 590.480637,1618.804382 563.501297,1618.804382 535.366257Z" style="stroke:rgb(25.500488%,41.000366%,88.400269%); stroke-width: 2.500000;stroke-linecap: round;stroke-linejoin: round;stroke-miterlimit: 10.000000;fill: none;"></path>
  <path d="M405.849136 434.594833C405.849136 406.459793,394.670868 379.480453,374.777893 359.587479C354.884918 339.694504,327.905579 328.516235,299.770538 328.516235C271.635498 328.516235,244.656158 339.694504,224.763184 359.587479C204.870209 379.480453,193.691940 406.459793,193.691940 434.594833C193.691940 462.729874,204.870209 489.709213,224.763184 509.602188C244.656158 529.495163,271.635498 540.673431,299.770538 540.673431C327.905579 540.673431,354.884918 529.495163,374.777893 509.602188C394.670868 489.709213,405.849136 462.729874,405.849136 434.594833Z" style="stroke:rgb(25.500488%,41.000366%,88.400269%); stroke-width: 2.500000;stroke-linecap: round;stroke-linejoin: round;stroke-miterlimit: 10.000000;fill: none;"></path>
  <path d="M589.550018 430.637161C589.550018 402.502121,578.371750 375.522781,558.478775 355.629807C538.585800 335.736832,511.606461 324.558563,483.471420 324.558563C455.336380 324.558563,428.357040 335.736832,408.464066 355.629807C388.571091 375.522781,377.392822 402.502121,377.392822 430.637161C377.392822 458.772202,388.571091 485.751541,408.464066 505.644516C428.357040 525.537491,455.336380 536.715759,483.471420 536.715759C511.606461 536.715759,538.585800 525.537491,558.478775 505.644516C578.371750 485.751541,589.550018 458.772202,589.550018 430.637161Z" style="stroke:rgb(25.500488%,41.000366%,88.400269%); stroke-width: 2.500000;stroke-linecap: round;stroke-linejoin: round;stroke-miterlimit: 10.000000;fill: none;"></path>
  <path d="M776.053711 425.563553C776.053711 397.428513,764.875443 370.449173,744.982468 350.556198C725.089493 330.663223,698.110153 319.484955,669.975113 319.484955C641.840073 319.484955,614.860733 330.663223,594.967758 350.556198C575.074783 370.449173,563.896515 397.428513,563.896515 425.563553C563.896515 453.698593,575.074783 480.677933,594.967758 500.570908C614.860733 520.463882,641.840073 531.642151,669.975113 531.642151C698.110153 531.642151,725.089493 520.463882,744.982468 500.570908C764.875443 480.677933,776.053711 453.698593,776.053711 425.563553Z" style="stroke:rgb(25.500488%,41.000366%,88.400269%); stroke-width: 2.500000;stroke-linecap: round;stroke-linejoin: round;stroke-miterlimit: 10.000000;fill: none;"></path>
  <path d="M963.738220 417.946655C963.738220 389.811615,952.559952 362.832275,932.666977 342.939301C912.774002 323.046326,885.794662 311.868057,857.659622 311.868057C829.524582 311.868057,802.545242 323.046326,782.652267 342.939301C762.759293 362.832275,751.581024 389.811615,751.581024 417.946655C751.581024 446.081696,762.759293 473.061035,782.652267 492.954010C802.545242 512.846985,829.524582 524.025253,857.659622 524.025253C885.794662 524.025253,912.774002 512.846985,932.666977 492.954010C952.559952 473.061035,963.738220 446.081696,963.738220 417.946655Z" style="stroke:rgb(25.500488%,41.000366%,88.400269%); stroke-width: 2.500000;stroke-linecap: round;stroke-linejoin: round;stroke-miterlimit: 10.000000;fill: none;"></path>
  <path d="M1152.408905 412.094498C1152.408905 383.959457,1141.230637 356.980118,1121.337662 337.087143C1101.444687 317.194168,1074.465347 306.015900,1046.330307 306.015900C1018.195267 306.015900,991.215927 317.194168,971.322952 337.087143C951.429977 356.980118,940.251709 383.959457,940.251709 412.094498C940.251709 440.229538,951.429977 467.208878,971.322952 487.101852C991.215927 506.994827,1018.195267 518.173096,1046.330307 518.173096C1074.465347 518.173096,1101.444687 506.994827,1121.337662 487.101852C1141.230637 467.208878,1152.408905 440.229538,1152.408905 412.094498Z" style="stroke:rgb(25.500488%,41.000366%,88.400269%); stroke-width: 2.500000;stroke-linecap: round;stroke-linejoin: round;stroke-miterlimit: 10.000000;fill: none;"></path>
  <path d="M1344.686905 393.266357C1344.686905 365.131317,1333.508636 338.151978,1313.615662 318.259003C1293.722687 298.366028,1266.743347 287.187759,1238.608307 287.187759C1210.473267 287.187759,1183.493927 298.366028,1163.600952 318.259003C1143.707977 338.151978,1132.529709 365.131317,1132.529709 393.266357C1132.529709 421.401398,1143.707977 448.380737,1163.600952 468.273712C1183.493927 488.166687,1210.473267 499.344955,1238.608307 499.344955C1266.743347 499.344955,1293.722687 488.166687,1313.615662 468.273712C1333.508636 448.380737,1344.686905 421.401398,1344.686905 393.266357Z" style="stroke:rgb(25.500488%,41.000366%,88.400269%); stroke-width: 2.500000;stroke-linecap: round;stroke-linejoin: round;stroke-miterlimit: 10.000000;fill: none;"></path>
  <path d="M1532.384384 385.688385C1532.384384 357.553345,1521.206116 330.574005,1501.313141 310.681030C1481.420166 290.788055,1454.440826 279.609787,1426.305786 279.609787C1398.170746 279.609787,1371.191406 290.788055,1351.298431 310.681030C1331.405457 330.574005,1320.227188 357.553345,1320.227188 385.688385C1320.227188 413.823425,1331.405457 440.802765,1351.298431 460.695740C1371.191406 480.588715,1398.170746 491.766983,1426.305786 491.766983C1454.440826 491.766983,1481.420166 480.588715,1501.313141 460.695740C1521.206116 440.802765,1532.384384 413.823425,1532.384384 385.688385Z" style="stroke:rgb(25.500488%,41.000366%,88.400269%); stroke-width: 2.500000;stroke-linecap: round;stroke-linejoin: round;stroke-miterlimit: 10.000000;fill: none;"></path>
  <path d="M502.351456 273.679764C502.351456 245.544724,491.173187 218.565384,471.280212 198.672409C451.387238 178.779434,424.407898 167.601166,396.272858 167.601166C368.137817 167.601166,341.158478 178.779434,321.265503 198.672409C301.372528 218.565384,290.194260 245.544724,290.194260 273.679764C290.194260 301.814804,301.372528 328.794144,321.265503 348.687119C341.158478 368.580093,368.137817 379.758362,396.272858 379.758362C424.407898 379.758362,451.387238 368.580093,471.280212 348.687119C491.173187 328.794144,502.351456 301.814804,502.351456 273.679764Z" style="stroke:rgb(25.500488%,41.000366%,88.400269%); stroke-width: 2.500000;stroke-linecap: round;stroke-linejoin: round;stroke-miterlimit: 10.000000;fill: none;"></path>
  <path d="M687.233154 271.720383C687.233154 243.585342,676.054886 216.606003,656.161911 196.713028C636.268936 176.820053,609.289597 165.641785,581.154556 165.641785C553.019516 165.641785,526.040176 176.820053,506.147202 196.713028C486.254227 216.606003,475.075958 243.585342,475.075958 271.720383C475.075958 299.855423,486.254227 326.834763,506.147202 346.727737C526.040176 366.620712,553.019516 377.798981,581.154556 377.798981C609.289597 377.798981,636.268936 366.620712,656.161911 346.727737C676.054886 326.834763,687.233154 299.855423,687.233154 271.720383Z" style="stroke:rgb(25.500488%,41.000366%,88.400269%); stroke-width: 2.500000;stroke-linecap: round;stroke-linejoin: round;stroke-miterlimit: 10.000000;fill: none;"></path>
  <path d="M873.697922 266.581909C873.697922 238.446869,862.519653 211.467529,842.626678 191.574554C822.733704 171.681580,795.754364 160.503311,767.619324 160.503311C739.484283 160.503311,712.504944 171.681580,692.611969 191.574554C672.718994 211.467529,661.540726 238.446869,661.540726 266.581909C661.540726 294.716949,672.718994 321.696289,692.611969 341.589264C712.504944 361.482239,739.484283 372.660507,767.619324 372.660507C795.754364 372.660507,822.733704 361.482239,842.626678 341.589264C862.519653 321.696289,873.697922 294.716949,873.697922 266.581909Z" style="stroke:rgb(25.500488%,41.000366%,88.400269%); stroke-width: 2.500000;stroke-linecap: round;stroke-linejoin: round;stroke-miterlimit: 10.000000;fill: none;"></path>
  <path d="M1062.381577 260.716766C1062.381577 232.581726,1051.203308 205.602386,1031.310333 185.709412C1011.417358 165.816437,984.438019 154.638168,956.302979 154.638168C928.167938 154.638168,901.188599 165.816437,881.295624 185.709412C861.402649 205.602386,850.224380 232.581726,850.224380 260.716766C850.224380 288.851807,861.402649 315.831146,881.295624 335.724121C901.188599 355.617096,928.167938 366.795364,956.302979 366.795364C984.438019 366.795364,1011.417358 355.617096,1031.310333 335.724121C1051.203308 315.831146,1062.381577 288.851807,1062.381577 260.716766Z" style="stroke:rgb(25.500488%,41.000366%,88.400269%); stroke-width: 2.500000;stroke-linecap: round;stroke-linejoin: round;stroke-miterlimit: 10.000000;fill: none;"></path>
  <path d="M1252.829971 258.238358C1252.829971 230.103317,1241.651703 203.123978,1221.758728 183.231003C1201.865753 163.338028,1174.886414 152.159760,1146.751373 152.159760C1118.616333 152.159760,1091.636993 163.338028,1071.744019 183.231003C1051.851044 203.123978,1040.672775 230.103317,1040.672775 258.238358C1040.672775 286.373398,1051.851044 313.352737,1071.744019 333.245712C1091.636993 353.138687,1118.616333 364.316956,1146.751373 364.316956C1174.886414 364.316956,1201.865753 353.138687,1221.758728 333.245712C1241.651703 313.352737,1252.829971 286.373398,1252.829971 258.238358Z" style="stroke:rgb(25.500488%,41.000366%,88.400269%); stroke-width: 2.500000;stroke-linecap: round;stroke-linejoin: round;stroke-miterlimit: 10.000000;fill: none;"></path>
  <path d="M1446.613190 234.635056C1446.613190 206.500015,1435.434921 179.520676,1415.541946 159.627701C1395.648972 139.734726,1368.669632 128.556458,1340.534592 128.556458C1312.399551 128.556458,1285.420212 139.734726,1265.527237 159.627701C1245.634262 179.520676,1234.455994 206.500015,1234.455994 234.635056C1234.455994 262.770096,1245.634262 289.749435,1265.527237 309.642410C1285.420212 329.535385,1312.399551 340.713654,1340.534592 340.713654C1368.669632 340.713654,1395.648972 329.535385,1415.541946 309.642410C1435.434921 289.749435,1446.613190 262.770096,1446.613190 234.635056Z" style="stroke:rgb(25.500488%,41.000366%,88.400269%); stroke-width: 2.500000;stroke-linecap: round;stroke-linejoin: round;stroke-miterlimit: 10.000000;fill: none;"></path>
  <path d="M596.531097 114.633224C596.531097 86.498184,585.352829 59.518845,565.459854 39.625870C545.566879 19.732895,518.587540 8.554626,490.452499 8.554626C462.317459 8.554626,435.338120 19.732895,415.445145 39.625870C395.552170 59.518845,384.373901 86.498184,384.373901 114.633224C384.373901 142.768265,395.552170 169.747604,415.445145 189.640579C435.338120 209.533554,462.317459 220.711823,490.452499 220.711823C518.587540 220.711823,545.566879 209.533554,565.459854 189.640579C585.352829 169.747604,596.531097 142.768265,596.531097 114.633224Z" style="stroke:rgb(25.500488%,41.000366%,88.400269%); stroke-width: 2.500000;stroke-linecap: round;stroke-linejoin: round;stroke-miterlimit: 10.000000;fill: none;"></path>
  <path d="M781.360886 112.596008C781.360886 84.460968,770.182617 57.481628,750.289642 37.588654C730.396667 17.695679,703.417328 6.517410,675.282288 6.517410C647.147247 6.517410,620.167908 17.695679,600.274933 37.588654C580.381958 57.481628,569.203690 84.460968,569.203690 112.596008C569.203690 140.731049,580.381958 167.710388,600.274933 187.603363C620.167908 207.496338,647.147247 218.674606,675.282288 218.674606C703.417328 218.674606,730.396667 207.496338,750.289642 187.603363C770.182617 167.710388,781.360886 140.731049,781.360886 112.596008Z" style="stroke:rgb(25.500488%,41.000366%,88.400269%); stroke-width: 2.500000;stroke-linecap: round;stroke-linejoin: round;stroke-miterlimit: 10.000000;fill: none;"></path>
  <path d="M968.967529 109.481766C968.967529 81.346725,957.789261 54.367386,937.896286 34.474411C918.003311 14.581436,891.023972 3.403168,862.888931 3.403168C834.753891 3.403168,807.774551 14.581436,787.881577 34.474411C767.988602 54.367386,756.810333 81.346725,756.810333 109.481766C756.810333 137.616806,767.988602 164.596146,787.881577 184.489120C807.774551 204.382095,834.753891 215.560364,862.888931 215.560364C891.023972 215.560364,918.003311 204.382095,937.896286 184.489120C957.789261 164.596146,968.967529 137.616806,968.967529 109.481766Z" style="stroke:rgb(25.500488%,41.000366%,88.400269%); stroke-width: 2.500000;stroke-linecap: round;stroke-linejoin: round;stroke-miterlimit: 10.000000;fill: none;"></path>
  <path d="M1159.571640 106.730865C1159.571640 78.595825,1148.393372 51.616486,1128.500397 31.723511C1108.607422 11.830536,1081.628082 0.652267,1053.493042 0.652267C1025.358002 0.652267,998.378662 11.830536,978.485687 31.723511C958.592712 51.616486,947.414444 78.595825,947.414444 106.730865C947.414444 134.865906,958.592712 161.845245,978.485687 181.738220C998.378662 201.631195,1025.358002 212.809464,1053.493042 212.809464C1081.628082 212.809464,1108.607422 201.631195,1128.500397 181.738220C1148.393372 161.845245,1159.571640 134.865906,1159.571640 106.730865Z" style="stroke:rgb(25.500488%,41.000366%,88.400269%); stroke-width: 2.500000;stroke-linecap: round;stroke-linejoin: round;stroke-miterlimit: 10.000000;fill: none;"></path>
  <path d="M1351.369537 107.016327C1351.369537 78.881287,1340.191269 51.901947,1320.298294 32.008972C1300.405319 12.115997,1273.425980 0.937729,1245.290939 0.937729C1217.155899 0.937729,1190.176559 12.115997,1170.283585 32.008972C1150.390610 51.901947,1139.212341 78.881287,1139.212341 107.016327C1139.212341 135.151367,1150.390610 162.130707,1170.283585 182.023682C1190.176559 201.916656,1217.155899 213.094925,1245.290939 213.094925C1273.425980 213.094925,1300.405319 201.916656,1320.298294 182.023682C1340.191269 162.130707,1351.369537 135.151367,1351.369537 107.016327Z" style="stroke:rgb(25.500488%,41.000366%,88.400269%); stroke-width: 2.500000;stroke-linecap: round;stroke-linejoin: round;stroke-miterlimit: 10.000000;fill: none;"></path>
</svg>
