<?xml version="1.0"?>
<!-- Created by MetaPost 2.00 on 2022.03.02:1201 -->
<svg version="1.1" xmlns="http://www.w3.org/2000/svg" xmlns:xlink="http://www.w3.org/1999/xlink" width="1874.154694" height="1680.643967" viewBox="0 0 1874.154694 1680.643967">
<!-- Original BoundingBox: -937.077347 -829.000443 937.077347 851.643524 -->
  <path d="M937.000000 0.606476L128.233398 588.210541L437.152451 1538.986221L1436.847549 1538.986221L1745.766602 588.210541L937.000000 0.606476Z" style="fill: rgb(100.000000%,100.000000%,100.000000%);stroke: none;"></path>
  <path d="M937.000000 0.606476L128.233398 588.210541" style="stroke:rgb(0.000000%,0.000000%,0.000000%); stroke-width: 2.500000;stroke-linecap: round;stroke-linejoin: round;stroke-miterlimit: 10.000000;fill: none;"></path>
  <path d="M128.233398 588.210541L437.152451 1538.986221" style="stroke:rgb(0.000000%,0.000000%,0.000000%); stroke-width: 2.500000;stroke-linecap: round;stroke-linejoin: round;stroke-miterlimit: 10.000000;fill: none;"></path>
  <path d="M437.152451 1538.986221L1436.847549 1538.986221" style="stroke:rgb(0.000000%,0.000000%,0.000000%); stroke-width: 2.500000;stroke-linecap: round;stroke-linejoin: round;stroke-miterlimit: 10.000000;fill: none;"></path>
  <path d="M1436.847549 1538.986221L1745.766602 588.210541" style="stroke:rgb(0.000000%,0.000000%,0.000000%); stroke-width: 2.500000;stroke-linecap: round;stroke-linejoin: round;stroke-miterlimit: 10.000000;fill: none;"></path>
  <path d="M1745.766602 588.210541L937.000000 0.606476" style="stroke:rgb(0.000000%,0.000000%,0.000000%); stroke-width: 2.500000;stroke-linecap: round;stroke-linejoin: round;stroke-miterlimit: 10.000000;fill: none;"></path>
  <path d="M1872.827347 810.527939C1872.827347 732.228195,1841.718262 657.144775,1786.356186 601.782684C1730.994095 546.420609,1655.910675 515.311523,1577.610931 515.311523C1499.311188 515.311523,1424.227768 546.420609,1368.865677 601.782684C1313.503601 657.144775,1282.394516 732.228195,1282.394516 810.527939C1282.394516 888.827682,1313.503601 963.911102,1368.865677 1019.273193C1424.227768 1074.635269,1499.311188 1105.744354,1577.610931 1105.744354C1655.910675 1105.744354,1730.994095 1074.635269,1786.356186 1019.273193C1841.718262 963.911102,1872.827347 888.827682,1872.827347 810.527939Z" style="stroke:rgb(25.500488%,41.000366%,88.400269%); stroke-width: 2.500000;stroke-linecap: round;stroke-linejoin: round;stroke-miterlimit: 10.000000;fill: none;"></path>
  <path d="M1672.192810 453.221481C1672.192810 374.921738,1641.083725 299.838318,1585.721649 244.476227C1530.359558 189.114151,1455.276138 158.005066,1376.976395 158.005066C1298.676651 158.005066,1223.593231 189.114151,1168.231140 244.476227C1112.869064 299.838318,1081.759979 374.921738,1081.759979 453.221481C1081.759979 531.521225,1112.869064 606.604645,1168.231140 661.966736C1223.593231 717.328812,1298.676651 748.437897,1376.976395 748.437897C1455.276138 748.437897,1530.359558 717.328812,1585.721649 661.966736C1641.083725 606.604645,1672.192810 531.521225,1672.192810 453.221481Z" style="stroke:rgb(25.500488%,41.000366%,88.400269%); stroke-width: 2.500000;stroke-linecap: round;stroke-linejoin: round;stroke-miterlimit: 10.000000;fill: none;"></path>
  <path d="M1642.399979 1290.327606C1642.399979 1212.027863,1611.290894 1136.944443,1555.928818 1081.582352C1500.566727 1026.220276,1425.483307 995.111191,1347.183563 995.111191C1268.883820 995.111191,1193.800400 1026.220276,1138.438309 1081.582352C1083.076233 1136.944443,1051.967148 1212.027863,1051.967148 1290.327606C1051.967148 1368.627350,1083.076233 1443.710770,1138.438309 1499.072861C1193.800400 1554.434937,1268.883820 1585.544022,1347.183563 1585.544022C1425.483307 1585.544022,1500.566727 1554.434937,1555.928818 1499.072861C1611.290894 1443.710770,1642.399979 1368.627350,1642.399979 1290.327606Z" style="stroke:rgb(25.500488%,41.000366%,88.400269%); stroke-width: 2.500000;stroke-linecap: round;stroke-linejoin: round;stroke-miterlimit: 10.000000;fill: none;"></path>
  <path d="M1391.405685 839.684952C1391.405685 761.385208,1360.296600 686.301788,1304.934525 630.939697C1249.572433 575.577621,1174.489014 544.468536,1096.189270 544.468536C1017.889526 544.468536,942.806107 575.577621,887.444016 630.939697C832.081940 686.301788,800.972855 761.385208,800.972855 839.684952C800.972855 917.984695,832.081940 993.068115,887.444016 1048.430206C942.806107 1103.792282,1017.889526 1134.901367,1096.189270 1134.901367C1174.489014 1134.901367,1249.572433 1103.792282,1304.934525 1048.430206C1360.296600 993.068115,1391.405685 917.984695,1391.405685 839.684952Z" style="stroke:rgb(25.500488%,41.000366%,88.400269%); stroke-width: 2.500000;stroke-linecap: round;stroke-linejoin: round;stroke-miterlimit: 10.000000;fill: none;"></path>
  <path d="M1232.216415 295.835861C1232.216415 217.536118,1201.107330 142.452698,1145.745255 87.090607C1090.383163 31.728531,1015.299744 0.619446,937.000000 0.619446C858.700256 0.619446,783.616837 31.728531,728.254745 87.090607C672.892670 142.452698,641.783585 217.536118,641.783585 295.835861C641.783585 374.135605,672.892670 449.219025,728.254745 504.581116C783.616837 559.943192,858.700256 591.052277,937.000000 591.052277C1015.299744 591.052277,1090.383163 559.943192,1145.745255 504.581116C1201.107330 449.219025,1232.216415 374.135605,1232.216415 295.835861Z" style="stroke:rgb(25.500488%,41.000366%,88.400269%); stroke-width: 2.500000;stroke-linecap: round;stroke-linejoin: round;stroke-miterlimit: 10.000000;fill: none;"></path>
  <path d="M1232.216415 1383.534027C1232.216415 1305.234283,1201.107330 1230.150864,1145.745255 1174.788773C1090.383163 1119.426697,1015.299744 1088.317612,937.000000 1088.317612C858.700256 1088.317612,783.616837 1119.426697,728.254745 1174.788773C672.892670 1230.150864,641.783585 1305.234283,641.783585 1383.534027C641.783585 1461.833771,672.892670 1536.917191,728.254745 1592.279282C783.616837 1647.641357,858.700256 1678.750443,937.000000 1678.750443C1015.299744 1678.750443,1090.383163 1647.641357,1145.745255 1592.279282C1201.107330 1536.917191,1232.216415 1461.833771,1232.216415 1383.534027Z" style="stroke:rgb(25.500488%,41.000366%,88.400269%); stroke-width: 2.500000;stroke-linecap: round;stroke-linejoin: round;stroke-miterlimit: 10.000000;fill: none;"></path>
  <path d="M1073.027145 839.684952C1073.027145 761.385208,1041.918060 686.301788,986.555984 630.939697C931.193893 575.577621,856.110474 544.468536,777.810730 544.468536C699.510986 544.468536,624.427567 575.577621,569.065475 630.939697C513.703400 686.301788,482.594315 761.385208,482.594315 839.684952C482.594315 917.984695,513.703400 993.068115,569.065475 1048.430206C624.427567 1103.792282,699.510986 1134.901367,777.810730 1134.901367C856.110474 1134.901367,931.193893 1103.792282,986.555984 1048.430206C1041.918060 993.068115,1073.027145 917.984695,1073.027145 839.684952Z" style="stroke:rgb(25.500488%,41.000366%,88.400269%); stroke-width: 2.500000;stroke-linecap: round;stroke-linejoin: round;stroke-miterlimit: 10.000000;fill: none;"></path>
  <path d="M792.240021 453.221481C792.240021 374.921738,761.130936 299.838318,705.768860 244.476227C650.406769 189.114151,575.323349 158.005066,497.023605 158.005066C418.723862 158.005066,343.640442 189.114151,288.278351 244.476227C232.916275 299.838318,201.807190 374.921738,201.807190 453.221481C201.807190 531.521225,232.916275 606.604645,288.278351 661.966736C343.640442 717.328812,418.723862 748.437897,497.023605 748.437897C575.323349 748.437897,650.406769 717.328812,705.768860 661.966736C761.130936 606.604645,792.240021 531.521225,792.240021 453.221481Z" style="stroke:rgb(25.500488%,41.000366%,88.400269%); stroke-width: 2.500000;stroke-linecap: round;stroke-linejoin: round;stroke-miterlimit: 10.000000;fill: none;"></path>
  <path d="M822.032852 1290.327606C822.032852 1212.027863,790.923767 1136.944443,735.561691 1081.582352C680.199600 1026.220276,605.116180 995.111191,526.816437 995.111191C448.516693 995.111191,373.433273 1026.220276,318.071182 1081.582352C262.709106 1136.944443,231.600021 1212.027863,231.600021 1290.327606C231.600021 1368.627350,262.709106 1443.710770,318.071182 1499.072861C373.433273 1554.434937,448.516693 1585.544022,526.816437 1585.544022C605.116180 1585.544022,680.199600 1554.434937,735.561691 1499.072861C790.923767 1443.710770,822.032852 1368.627350,822.032852 1290.327606Z" style="stroke:rgb(25.500488%,41.000366%,88.400269%); stroke-width: 2.500000;stroke-linecap: round;stroke-linejoin: round;stroke-miterlimit: 10.000000;fill: none;"></path>
  <path d="M591.605484 810.527939C591.605484 732.228195,560.496399 657.144775,505.134323 601.782684C449.772232 546.420609,374.688812 515.311523,296.389069 515.311523C218.089325 515.311523,143.005905 546.420609,87.643814 601.782684C32.281738 657.144775,1.172653 732.228195,1.172653 810.527939C1.172653 888.827682,32.281738 963.911102,87.643814 1019.273193C143.005905 1074.635269,218.089325 1105.744354,296.389069 1105.744354C374.688812 1105.744354,449.772232 1074.635269,505.134323 1019.273193C560.496399 963.911102,591.605484 888.827682,591.605484 810.527939Z" style="stroke:rgb(25.500488%,41.000366%,88.400269%); stroke-width: 2.500000;stroke-linecap: round;stroke-linejoin: round;stroke-miterlimit: 10.000000;fill: none;"></path>
</svg>
