<?xml version="1.0"?>
<!-- Created by MetaPost 2.00 on 2022.03.02:1201 -->
<svg version="1.1" xmlns="http://www.w3.org/2000/svg" xmlns:xlink="http://www.w3.org/1999/xlink" width="1493.945633" height="1336.430267" viewBox="0 0 1493.945633 1336.430267">
<!-- Original BoundingBox: -745.577896 -484.708893 748.367737 851.721375 -->
  <path d="M745.000000 0.606476L8.535538 1276.196762L1481.464462 1276.196762L745.000000 0.606476Z" style="fill: rgb(100.000000%,100.000000%,100.000000%);stroke: none;"></path>
  <path d="M745.000000 0.606476L8.535538 1276.196762" style="stroke:rgb(0.000000%,0.000000%,0.000000%); stroke-width: 2.500000;stroke-linecap: round;stroke-linejoin: round;stroke-miterlimit: 10.000000;fill: none;"></path>
  <path d="M8.535538 1276.196762L1481.464462 1276.196762" style="stroke:rgb(0.000000%,0.000000%,0.000000%); stroke-width: 2.500000;stroke-linecap: round;stroke-linejoin: round;stroke-miterlimit: 10.000000;fill: none;"></path>
  <path d="M1481.464462 1276.196762L745.000000 0.606476" style="stroke:rgb(0.000000%,0.000000%,0.000000%); stroke-width: 2.500000;stroke-linecap: round;stroke-linejoin: round;stroke-miterlimit: 10.000000;fill: none;"></path>
  <path d="M1492.117737 1235.594940C1492.117737 1213.720154,1483.426727 1192.743927,1467.960083 1177.277298C1452.493454 1161.810654,1431.517227 1153.119644,1409.642441 1153.119644C1387.767654 1153.119644,1366.791428 1161.810654,1351.324799 1177.277298C1335.858154 1192.743927,1327.167145 1213.720154,1327.167145 1235.594940C1327.167145 1257.469727,1335.858154 1278.445953,1351.324799 1293.912582C1366.791428 1309.379227,1387.767654 1318.070236,1409.642441 1318.070236C1431.517227 1318.070236,1452.493454 1309.379227,1467.960083 1293.912582C1483.426727 1278.445953,1492.117737 1257.469727,1492.117737 1235.594940Z" style="stroke:rgb(25.500488%,41.000366%,88.400269%); stroke-width: 2.500000;stroke-linecap: round;stroke-linejoin: round;stroke-miterlimit: 10.000000;fill: none;"></path>
  <path d="M1420.334641 1113.854340C1420.334641 1091.979553,1411.643631 1071.003326,1396.176987 1055.536697C1380.710358 1040.070053,1359.734131 1031.379044,1337.859344 1031.379044C1315.984558 1031.379044,1295.008331 1040.070053,1279.541702 1055.536697C1264.075058 1071.003326,1255.384048 1091.979553,1255.384048 1113.854340C1255.384048 1135.729126,1264.075058 1156.705353,1279.541702 1172.171982C1295.008331 1187.638626,1315.984558 1196.329636,1337.859344 1196.329636C1359.734131 1196.329636,1380.710358 1187.638626,1396.176987 1172.171982C1411.643631 1156.705353,1420.334641 1135.729126,1420.334641 1113.854340Z" style="stroke:rgb(25.500488%,41.000366%,88.400269%); stroke-width: 2.500000;stroke-linecap: round;stroke-linejoin: round;stroke-miterlimit: 10.000000;fill: none;"></path>
  <path d="M1350.549835 991.257324C1350.549835 969.382538,1341.858826 948.406311,1326.392181 932.939682C1310.925552 917.473038,1289.949326 908.782028,1268.074539 908.782028C1246.199753 908.782028,1225.223526 917.473038,1209.756897 932.939682C1194.290253 948.406311,1185.599243 969.382538,1185.599243 991.257324C1185.599243 1013.132111,1194.290253 1034.108337,1209.756897 1049.574966C1225.223526 1065.041611,1246.199753 1073.732620,1268.074539 1073.732620C1289.949326 1073.732620,1310.925552 1065.041611,1326.392181 1049.574966C1341.858826 1034.108337,1350.549835 1013.132111,1350.549835 991.257324Z" style="stroke:rgb(25.500488%,41.000366%,88.400269%); stroke-width: 2.500000;stroke-linecap: round;stroke-linejoin: round;stroke-miterlimit: 10.000000;fill: none;"></path>
  <path d="M1282.192398 864.546921C1282.192398 842.672134,1273.501389 821.695908,1258.034744 806.229279C1242.568115 790.762634,1221.591888 782.071625,1199.717102 782.071625C1177.842316 782.071625,1156.866089 790.762634,1141.399460 806.229279C1125.932816 821.695908,1117.241806 842.672134,1117.241806 864.546921C1117.241806 886.421707,1125.932816 907.397934,1141.399460 922.864563C1156.866089 938.331207,1177.842316 947.022217,1199.717102 947.022217C1221.591888 947.022217,1242.568115 938.331207,1258.034744 922.864563C1273.501389 907.397934,1282.192398 886.421707,1282.192398 864.546921Z" style="stroke:rgb(25.500488%,41.000366%,88.400269%); stroke-width: 2.500000;stroke-linecap: round;stroke-linejoin: round;stroke-miterlimit: 10.000000;fill: none;"></path>
  <path d="M1209.358246 737.473190C1209.358246 715.598404,1200.667236 694.622177,1185.200592 679.155548C1169.733963 663.688904,1148.757736 654.997894,1126.882950 654.997894C1105.008163 654.997894,1084.031937 663.688904,1068.565308 679.155548C1053.098663 694.622177,1044.407654 715.598404,1044.407654 737.473190C1044.407654 759.347977,1053.098663 780.324203,1068.565308 795.790833C1084.031937 811.257477,1105.008163 819.948486,1126.882950 819.948486C1148.757736 819.948486,1169.733963 811.257477,1185.200592 795.790833C1200.667236 780.324203,1209.358246 759.347977,1209.358246 737.473190Z" style="stroke:rgb(25.500488%,41.000366%,88.400269%); stroke-width: 2.500000;stroke-linecap: round;stroke-linejoin: round;stroke-miterlimit: 10.000000;fill: none;"></path>
  <path d="M1140.598557 603.963379C1140.598557 582.088593,1131.907547 561.112366,1116.440903 545.645737C1100.974274 530.179092,1079.998047 521.488083,1058.123260 521.488083C1036.248474 521.488083,1015.272247 530.179092,999.805618 545.645737C984.338974 561.112366,975.647964 582.088593,975.647964 603.963379C975.647964 625.838165,984.338974 646.814392,999.805618 662.281021C1015.272247 677.747665,1036.248474 686.438675,1058.123260 686.438675C1079.998047 686.438675,1100.974274 677.747665,1116.440903 662.281021C1131.907547 646.814392,1140.598557 625.838165,1140.598557 603.963379Z" style="stroke:rgb(25.500488%,41.000366%,88.400269%); stroke-width: 2.500000;stroke-linecap: round;stroke-linejoin: round;stroke-miterlimit: 10.000000;fill: none;"></path>
  <path d="M1065.558487 469.285736C1065.558487 447.410950,1056.867477 426.434723,1041.400833 410.968094C1025.934204 395.501450,1004.957977 386.810440,983.083191 386.810440C961.208405 386.810440,940.232178 395.501450,924.765549 410.968094C909.298904 426.434723,900.607895 447.410950,900.607895 469.285736C900.607895 491.160522,909.298904 512.136749,924.765549 527.603378C940.232178 543.070023,961.208405 551.761032,983.083191 551.761032C1004.957977 551.761032,1025.934204 543.070023,1041.400833 527.603378C1056.867477 512.136749,1065.558487 491.160522,1065.558487 469.285736Z" style="stroke:rgb(25.500488%,41.000366%,88.400269%); stroke-width: 2.500000;stroke-linecap: round;stroke-linejoin: round;stroke-miterlimit: 10.000000;fill: none;"></path>
  <path d="M985.107452 338.682541C985.107452 316.807755,976.416443 295.831528,960.949799 280.364899C945.483170 264.898254,924.506943 256.207245,902.632156 256.207245C880.757370 256.207245,859.781143 264.898254,844.314514 280.364899C828.847870 295.831528,820.156860 316.807755,820.156860 338.682541C820.156860 360.557327,828.847870 381.533554,844.314514 397.000183C859.781143 412.466827,880.757370 421.157837,902.632156 421.157837C924.506943 421.157837,945.483170 412.466827,960.949799 397.000183C976.416443 381.533554,985.107452 360.557327,985.107452 338.682541Z" style="stroke:rgb(25.500488%,41.000366%,88.400269%); stroke-width: 2.500000;stroke-linecap: round;stroke-linejoin: round;stroke-miterlimit: 10.000000;fill: none;"></path>
  <path d="M907.537064 209.857056C907.537064 187.982269,898.846054 167.006042,883.379410 151.539413C867.912781 136.072769,846.936554 127.381760,825.061768 127.381760C803.186981 127.381760,782.210754 136.072769,766.744125 151.539413C751.277481 167.006042,742.586472 187.982269,742.586472 209.857056C742.586472 231.731842,751.277481 252.708069,766.744125 268.174698C782.210754 283.641342,803.186981 292.332352,825.061768 292.332352C846.936554 292.332352,867.912781 283.641342,883.379410 268.174698C898.846054 252.708069,907.537064 231.731842,907.537064 209.857056Z" style="stroke:rgb(25.500488%,41.000366%,88.400269%); stroke-width: 2.500000;stroke-linecap: round;stroke-linejoin: round;stroke-miterlimit: 10.000000;fill: none;"></path>
  <path d="M831.458923 83.003922C831.458923 61.129135,822.767914 40.152908,807.301270 24.686279C791.834641 9.219635,770.858414 0.528625,748.983627 0.528625C727.108841 0.528625,706.132614 9.219635,690.665985 24.686279C675.199341 40.152908,666.508331 61.129135,666.508331 83.003922C666.508331 104.878708,675.199341 125.854935,690.665985 141.321564C706.132614 156.788208,727.108841 165.479218,748.983627 165.479218C770.858414 165.479218,791.834641 156.788208,807.301270 141.321564C822.767914 125.854935,831.458923 104.878708,831.458923 83.003922Z" style="stroke:rgb(25.500488%,41.000366%,88.400269%); stroke-width: 2.500000;stroke-linecap: round;stroke-linejoin: round;stroke-miterlimit: 10.000000;fill: none;"></path>
  <path d="M1347.785965 1236.918488C1347.785965 1215.043701,1339.094955 1194.067474,1323.628311 1178.600845C1308.161682 1163.134201,1287.185455 1154.443192,1265.310669 1154.443192C1243.435883 1154.443192,1222.459656 1163.134201,1206.993027 1178.600845C1191.526382 1194.067474,1182.835373 1215.043701,1182.835373 1236.918488C1182.835373 1258.793274,1191.526382 1279.769501,1206.993027 1295.236130C1222.459656 1310.702774,1243.435883 1319.393784,1265.310669 1319.393784C1287.185455 1319.393784,1308.161682 1310.702774,1323.628311 1295.236130C1339.094955 1279.769501,1347.785965 1258.793274,1347.785965 1236.918488Z" style="stroke:rgb(25.500488%,41.000366%,88.400269%); stroke-width: 2.500000;stroke-linecap: round;stroke-linejoin: round;stroke-miterlimit: 10.000000;fill: none;"></path>
  <path d="M1276.482971 1114.295517C1276.482971 1092.420731,1267.791962 1071.444504,1252.325317 1055.977875C1236.858688 1040.511230,1215.882462 1031.820221,1194.007675 1031.820221C1172.132889 1031.820221,1151.156662 1040.511230,1135.690033 1055.977875C1120.223389 1071.444504,1111.532379 1092.420731,1111.532379 1114.295517C1111.532379 1136.170303,1120.223389 1157.146530,1135.690033 1172.613159C1151.156662 1188.079803,1172.132889 1196.770813,1194.007675 1196.770813C1215.882462 1196.770813,1236.858688 1188.079803,1252.325317 1172.613159C1267.791962 1157.146530,1276.482971 1136.170303,1276.482971 1114.295517Z" style="stroke:rgb(25.500488%,41.000366%,88.400269%); stroke-width: 2.500000;stroke-linecap: round;stroke-linejoin: round;stroke-miterlimit: 10.000000;fill: none;"></path>
  <path d="M1209.150635 987.611069C1209.150635 965.736282,1200.459625 944.760056,1184.992981 929.293427C1169.526352 913.826782,1148.550125 905.135773,1126.675339 905.135773C1104.800552 905.135773,1083.824326 913.826782,1068.357697 929.293427C1052.891052 944.760056,1044.200043 965.736282,1044.200043 987.611069C1044.200043 1009.485855,1052.891052 1030.462082,1068.357697 1045.928711C1083.824326 1061.395355,1104.800552 1070.086365,1126.675339 1070.086365C1148.550125 1070.086365,1169.526352 1061.395355,1184.992981 1045.928711C1200.459625 1030.462082,1209.150635 1009.485855,1209.150635 987.611069Z" style="stroke:rgb(25.500488%,41.000366%,88.400269%); stroke-width: 2.500000;stroke-linecap: round;stroke-linejoin: round;stroke-miterlimit: 10.000000;fill: none;"></path>
  <path d="M1141.065689 860.485443C1141.065689 838.610657,1132.374680 817.634430,1116.908035 802.167801C1101.441406 786.701157,1080.465179 778.010147,1058.590393 778.010147C1036.715607 778.010147,1015.739380 786.701157,1000.272751 802.167801C984.806107 817.634430,976.115097 838.610657,976.115097 860.485443C976.115097 882.360229,984.806107 903.336456,1000.272751 918.803085C1015.739380 934.269730,1036.715607 942.960739,1058.590393 942.960739C1080.465179 942.960739,1101.441406 934.269730,1116.908035 918.803085C1132.374680 903.336456,1141.065689 882.360229,1141.065689 860.485443Z" style="stroke:rgb(25.500488%,41.000366%,88.400269%); stroke-width: 2.500000;stroke-linecap: round;stroke-linejoin: round;stroke-miterlimit: 10.000000;fill: none;"></path>
  <path d="M1075.472137 723.770554C1075.472137 701.895767,1066.781128 680.919540,1051.314484 665.452911C1035.847855 649.986267,1014.871628 641.295258,992.996841 641.295258C971.122055 641.295258,950.145828 649.986267,934.679199 665.452911C919.212555 680.919540,910.521545 701.895767,910.521545 723.770554C910.521545 745.645340,919.212555 766.621567,934.679199 782.088196C950.145828 797.554840,971.122055 806.245850,992.996841 806.245850C1014.871628 806.245850,1035.847855 797.554840,1051.314484 782.088196C1066.781128 766.621567,1075.472137 745.645340,1075.472137 723.770554Z" style="stroke:rgb(25.500488%,41.000366%,88.400269%); stroke-width: 2.500000;stroke-linecap: round;stroke-linejoin: round;stroke-miterlimit: 10.000000;fill: none;"></path>
  <path d="M1004.117249 588.638748C1004.117249 566.763962,995.426239 545.787735,979.959595 530.321106C964.492966 514.854462,943.516739 506.163452,921.641953 506.163452C899.767166 506.163452,878.790939 514.854462,863.324310 530.321106C847.857666 545.787735,839.166656 566.763962,839.166656 588.638748C839.166656 610.513535,847.857666 631.489761,863.324310 646.956390C878.790939 662.423035,899.767166 671.114044,921.641953 671.114044C943.516739 671.114044,964.492966 662.423035,979.959595 646.956390C995.426239 631.489761,1004.117249 610.513535,1004.117249 588.638748Z" style="stroke:rgb(25.500488%,41.000366%,88.400269%); stroke-width: 2.500000;stroke-linecap: round;stroke-linejoin: round;stroke-miterlimit: 10.000000;fill: none;"></path>
  <path d="M926.170563 457.633301C926.170563 435.758514,917.479553 414.782288,902.012909 399.315659C886.546280 383.849014,865.570053 375.158005,843.695267 375.158005C821.820480 375.158005,800.844254 383.849014,785.377625 399.315659C769.910980 414.782288,761.219971 435.758514,761.219971 457.633301C761.219971 479.508087,769.910980 500.484314,785.377625 515.950943C800.844254 531.417587,821.820480 540.108597,843.695267 540.108597C865.570053 540.108597,886.546280 531.417587,902.012909 515.950943C917.479553 500.484314,926.170563 479.508087,926.170563 457.633301Z" style="stroke:rgb(25.500488%,41.000366%,88.400269%); stroke-width: 2.500000;stroke-linecap: round;stroke-linejoin: round;stroke-miterlimit: 10.000000;fill: none;"></path>
  <path d="M843.941803 329.495544C843.941803 307.620758,835.250793 286.644531,819.784149 271.177902C804.317520 255.711258,783.341293 247.020248,761.466507 247.020248C739.591721 247.020248,718.615494 255.711258,703.148865 271.177902C687.682220 286.644531,678.991211 307.620758,678.991211 329.495544C678.991211 351.370331,687.682220 372.346558,703.148865 387.813187C718.615494 403.279831,739.591721 411.970840,761.466507 411.970840C783.341293 411.970840,804.317520 403.279831,819.784149 387.813187C835.250793 372.346558,843.941803 351.370331,843.941803 329.495544Z" style="stroke:rgb(25.500488%,41.000366%,88.400269%); stroke-width: 2.500000;stroke-linecap: round;stroke-linejoin: round;stroke-miterlimit: 10.000000;fill: none;"></path>
  <path d="M764.853241 202.940857C764.853241 181.066071,756.162231 160.089844,740.695587 144.623215C725.228958 129.156570,704.252731 120.465561,682.377945 120.465561C660.503159 120.465561,639.526932 129.156570,624.060303 144.623215C608.593658 160.089844,599.902649 181.066071,599.902649 202.940857C599.902649 224.815643,608.593658 245.791870,624.060303 261.258499C639.526932 276.725143,660.503159 285.416153,682.377945 285.416153C704.252731 285.416153,725.228958 276.725143,740.695587 261.258499C756.162231 245.791870,764.853241 224.815643,764.853241 202.940857Z" style="stroke:rgb(25.500488%,41.000366%,88.400269%); stroke-width: 2.500000;stroke-linecap: round;stroke-linejoin: round;stroke-miterlimit: 10.000000;fill: none;"></path>
  <path d="M1203.207642 1236.036118C1203.207642 1214.161331,1194.516632 1193.185104,1179.049988 1177.718475C1163.583359 1162.251831,1142.607132 1153.560822,1120.732346 1153.560822C1098.857559 1153.560822,1077.881332 1162.251831,1062.414703 1177.718475C1046.948059 1193.185104,1038.257050 1214.161331,1038.257050 1236.036118C1038.257050 1257.910904,1046.948059 1278.887131,1062.414703 1294.353760C1077.881332 1309.820404,1098.857559 1318.511414,1120.732346 1318.511414C1142.607132 1318.511414,1163.583359 1309.820404,1179.049988 1294.353760C1194.516632 1278.887131,1203.207642 1257.910904,1203.207642 1236.036118Z" style="stroke:rgb(25.500488%,41.000366%,88.400269%); stroke-width: 2.500000;stroke-linecap: round;stroke-linejoin: round;stroke-miterlimit: 10.000000;fill: none;"></path>
  <path d="M1134.331161 1109.325714C1134.331161 1087.450928,1125.640152 1066.474701,1110.173508 1051.008072C1094.706879 1035.541428,1073.730652 1026.850418,1051.855865 1026.850418C1029.981079 1026.850418,1009.004852 1035.541428,993.538223 1051.008072C978.071579 1066.474701,969.380569 1087.450928,969.380569 1109.325714C969.380569 1131.200500,978.071579 1152.176727,993.538223 1167.643356C1009.004852 1183.110001,1029.981079 1191.801010,1051.855865 1191.801010C1073.730652 1191.801010,1094.706879 1183.110001,1110.173508 1167.643356C1125.640152 1152.176727,1134.331161 1131.200500,1134.331161 1109.325714Z" style="stroke:rgb(25.500488%,41.000366%,88.400269%); stroke-width: 2.500000;stroke-linecap: round;stroke-linejoin: round;stroke-miterlimit: 10.000000;fill: none;"></path>
  <path d="M1067.271317 982.226044C1067.271317 960.351257,1058.580307 939.375031,1043.113663 923.908401C1027.647034 908.441757,1006.670807 899.750748,984.796021 899.750748C962.921234 899.750748,941.945007 908.441757,926.478378 923.908401C911.011734 939.375031,902.320724 960.351257,902.320724 982.226044C902.320724 1004.100830,911.011734 1025.077057,926.478378 1040.543686C941.945007 1056.010330,962.921234 1064.701340,984.796021 1064.701340C1006.670807 1064.701340,1027.647034 1056.010330,1043.113663 1040.543686C1058.580307 1025.077057,1067.271317 1004.100830,1067.271317 982.226044Z" style="stroke:rgb(25.500488%,41.000366%,88.400269%); stroke-width: 2.500000;stroke-linecap: round;stroke-linejoin: round;stroke-miterlimit: 10.000000;fill: none;"></path>
  <path d="M1010.709045 840.943619C1010.709045 819.068832,1002.018036 798.092606,986.551392 782.625977C971.084763 767.159332,950.108536 758.468323,928.233749 758.468323C906.358963 758.468323,885.382736 767.159332,869.916107 782.625977C854.449463 798.092606,845.758453 819.068832,845.758453 840.943619C845.758453 862.818405,854.449463 883.794632,869.916107 899.261261C885.382736 914.727905,906.358963 923.418915,928.233749 923.418915C950.108536 923.418915,971.084763 914.727905,986.551392 899.261261C1002.018036 883.794632,1010.709045 862.818405,1010.709045 840.943619Z" style="stroke:rgb(25.500488%,41.000366%,88.400269%); stroke-width: 2.500000;stroke-linecap: round;stroke-linejoin: round;stroke-miterlimit: 10.000000;fill: none;"></path>
  <path d="M937.784058 705.980499C937.784058 684.105713,929.093048 663.129486,913.626404 647.662857C898.159775 632.196213,877.183548 623.505203,855.308762 623.505203C833.433975 623.505203,812.457748 632.196213,796.991119 647.662857C781.524475 663.129486,772.833466 684.105713,772.833466 705.980499C772.833466 727.855286,781.524475 748.831512,796.991119 764.298141C812.457748 779.764786,833.433975 788.455795,855.308762 788.455795C877.183548 788.455795,898.159775 779.764786,913.626404 764.298141C929.093048 748.831512,937.784058 727.855286,937.784058 705.980499Z" style="stroke:rgb(25.500488%,41.000366%,88.400269%); stroke-width: 2.500000;stroke-linecap: round;stroke-linejoin: round;stroke-miterlimit: 10.000000;fill: none;"></path>
  <path d="M863.496597 574.520889C863.496597 552.646103,854.805588 531.669876,839.338943 516.203247C823.872314 500.736603,802.896088 492.045593,781.021301 492.045593C759.146515 492.045593,738.170288 500.736603,722.703659 516.203247C707.237015 531.669876,698.546005 552.646103,698.546005 574.520889C698.546005 596.395676,707.237015 617.371902,722.703659 632.838531C738.170288 648.305176,759.146515 656.996185,781.021301 656.996185C802.896088 656.996185,823.872314 648.305176,839.338943 632.838531C854.805588 617.371902,863.496597 596.395676,863.496597 574.520889Z" style="stroke:rgb(25.500488%,41.000366%,88.400269%); stroke-width: 2.500000;stroke-linecap: round;stroke-linejoin: round;stroke-miterlimit: 10.000000;fill: none;"></path>
  <path d="M783.785187 445.980881C783.785187 424.106094,775.094177 403.129868,759.627533 387.663239C744.160904 372.196594,723.184677 363.505585,701.309891 363.505585C679.435104 363.505585,658.458878 372.196594,642.992249 387.663239C627.525604 403.129868,618.834595 424.106094,618.834595 445.980881C618.834595 467.855667,627.525604 488.831894,642.992249 504.298523C658.458878 519.765167,679.435104 528.456177,701.309891 528.456177C723.184677 528.456177,744.160904 519.765167,759.627533 504.298523C775.094177 488.831894,783.785187 467.855667,783.785187 445.980881Z" style="stroke:rgb(25.500488%,41.000366%,88.400269%); stroke-width: 2.500000;stroke-linecap: round;stroke-linejoin: round;stroke-miterlimit: 10.000000;fill: none;"></path>
  <path d="M700.038239 320.126892C700.038239 298.252106,691.347229 277.275879,675.880585 261.809250C660.413956 246.342606,639.437729 237.651596,617.562943 237.651596C595.688156 237.651596,574.711929 246.342606,559.245300 261.809250C543.778656 277.275879,535.087646 298.252106,535.087646 320.126892C535.087646 342.001678,543.778656 362.977905,559.245300 378.444534C574.711929 393.911179,595.688156 402.602188,617.562943 402.602188C639.437729 402.602188,660.413956 393.911179,675.880585 378.444534C691.347229 362.977905,700.038239 342.001678,700.038239 320.126892Z" style="stroke:rgb(25.500488%,41.000366%,88.400269%); stroke-width: 2.500000;stroke-linecap: round;stroke-linejoin: round;stroke-miterlimit: 10.000000;fill: none;"></path>
  <path d="M1061.535934 1231.948685C1061.535934 1210.073898,1052.844925 1189.097672,1037.378281 1173.631042C1021.911652 1158.164398,1000.935425 1149.473389,979.060638 1149.473389C957.185852 1149.473389,936.209625 1158.164398,920.742996 1173.631042C905.276352 1189.097672,896.585342 1210.073898,896.585342 1231.948685C896.585342 1253.823471,905.276352 1274.799698,920.742996 1290.266327C936.209625 1305.732971,957.185852 1314.423981,979.060638 1314.423981C1000.935425 1314.423981,1021.911652 1305.732971,1037.378281 1290.266327C1052.844925 1274.799698,1061.535934 1253.823471,1061.535934 1231.948685Z" style="stroke:rgb(25.500488%,41.000366%,88.400269%); stroke-width: 2.500000;stroke-linecap: round;stroke-linejoin: round;stroke-miterlimit: 10.000000;fill: none;"></path>
  <path d="M992.931961 1104.823059C992.931961 1082.948273,984.240952 1061.972046,968.774307 1046.505417C953.307678 1031.038773,932.331451 1022.347763,910.456665 1022.347763C888.581879 1022.347763,867.605652 1031.038773,852.139023 1046.505417C836.672379 1061.972046,827.981369 1082.948273,827.981369 1104.823059C827.981369 1126.697845,836.672379 1147.674072,852.139023 1163.140701C867.605652 1178.607346,888.581879 1187.298355,910.456665 1187.298355C932.331451 1187.298355,953.307678 1178.607346,968.774307 1163.140701C984.240952 1147.674072,992.931961 1126.697845,992.931961 1104.823059Z" style="stroke:rgb(25.500488%,41.000366%,88.400269%); stroke-width: 2.500000;stroke-linecap: round;stroke-linejoin: round;stroke-miterlimit: 10.000000;fill: none;"></path>
  <path d="M947.749619 954.924591C947.749619 933.049805,939.058609 912.073578,923.591965 896.606949C908.125336 881.140305,887.149109 872.449295,865.274323 872.449295C843.399536 872.449295,822.423309 881.140305,806.956680 896.606949C791.490036 912.073578,782.799026 933.049805,782.799026 954.924591C782.799026 976.799377,791.490036 997.775604,806.956680 1013.242233C822.423309 1028.708878,843.399536 1037.399887,865.274323 1037.399887C887.149109 1037.399887,908.125336 1028.708878,923.591965 1013.242233C939.058609 997.775604,947.749619 976.799377,947.749619 954.924591Z" style="stroke:rgb(25.500488%,41.000366%,88.400269%); stroke-width: 2.500000;stroke-linecap: round;stroke-linejoin: round;stroke-miterlimit: 10.000000;fill: none;"></path>
  <path d="M871.762299 820.376694C871.762299 798.501907,863.071289 777.525681,847.604645 762.059052C832.138016 746.592407,811.161789 737.901398,789.287003 737.901398C767.412216 737.901398,746.435989 746.592407,730.969360 762.059052C715.502716 777.525681,706.811707 798.501907,706.811707 820.376694C706.811707 842.251480,715.502716 863.227707,730.969360 878.694336C746.435989 894.160980,767.412216 902.851990,789.287003 902.851990C811.161789 902.851990,832.138016 894.160980,847.604645 878.694336C863.071289 863.227707,871.762299 842.251480,871.762299 820.376694Z" style="stroke:rgb(25.500488%,41.000366%,88.400269%); stroke-width: 2.500000;stroke-linecap: round;stroke-linejoin: round;stroke-miterlimit: 10.000000;fill: none;"></path>
  <path d="M795.917725 689.098755C795.917725 667.223969,787.226715 646.247742,771.760071 630.781113C756.293442 615.314468,735.317215 606.623459,713.442429 606.623459C691.567642 606.623459,670.591415 615.314468,655.124786 630.781113C639.658142 646.247742,630.967133 667.223969,630.967133 689.098755C630.967133 710.973541,639.658142 731.949768,655.124786 747.416397C670.591415 762.883041,691.567642 771.574051,713.442429 771.574051C735.317215 771.574051,756.293442 762.883041,771.760071 747.416397C787.226715 731.949768,795.917725 710.973541,795.917725 689.098755Z" style="stroke:rgb(25.500488%,41.000366%,88.400269%); stroke-width: 2.500000;stroke-linecap: round;stroke-linejoin: round;stroke-miterlimit: 10.000000;fill: none;"></path>
  <path d="M719.852554 560.117554C719.852554 538.242767,711.161545 517.266541,695.694901 501.799911C680.228271 486.333267,659.252045 477.642258,637.377258 477.642258C615.502472 477.642258,594.526245 486.333267,579.059616 501.799911C563.592972 517.266541,554.901962 538.242767,554.901962 560.117554C554.901962 581.992340,563.592972 602.968567,579.059616 618.435196C594.526245 633.901840,615.502472 642.592850,637.377258 642.592850C659.252045 642.592850,680.228271 633.901840,695.694901 618.435196C711.161545 602.968567,719.852554 581.992340,719.852554 560.117554Z" style="stroke:rgb(25.500488%,41.000366%,88.400269%); stroke-width: 2.500000;stroke-linecap: round;stroke-linejoin: round;stroke-miterlimit: 10.000000;fill: none;"></path>
  <path d="M638.635925 433.861313C638.635925 411.986526,629.944916 391.010300,614.478271 375.543671C599.011642 360.077026,578.035416 351.386017,556.160629 351.386017C534.285843 351.386017,513.309616 360.077026,497.842987 375.543671C482.376343 391.010300,473.685333 411.986526,473.685333 433.861313C473.685333 455.736099,482.376343 476.712326,497.842987 492.178955C513.309616 507.645599,534.285843 516.336609,556.160629 516.336609C578.035416 516.336609,599.011642 507.645599,614.478271 492.178955C629.944916 476.712326,638.635925 455.736099,638.635925 433.861313Z" style="stroke:rgb(25.500488%,41.000366%,88.400269%); stroke-width: 2.500000;stroke-linecap: round;stroke-linejoin: round;stroke-miterlimit: 10.000000;fill: none;"></path>
  <path d="M922.576218 1231.546432C922.576218 1209.671646,913.885208 1188.695419,898.418564 1173.228790C882.951935 1157.762146,861.975708 1149.071136,840.100922 1149.071136C818.226135 1149.071136,797.249908 1157.762146,781.783279 1173.228790C766.316635 1188.695419,757.625626 1209.671646,757.625626 1231.546432C757.625626 1253.421219,766.316635 1274.397446,781.783279 1289.864075C797.249908 1305.330719,818.226135 1314.021729,840.100922 1314.021729C861.975708 1314.021729,882.951935 1305.330719,898.418564 1289.864075C913.885208 1274.397446,922.576218 1253.421219,922.576218 1231.546432Z" style="stroke:rgb(25.500488%,41.000366%,88.400269%); stroke-width: 2.500000;stroke-linecap: round;stroke-linejoin: round;stroke-miterlimit: 10.000000;fill: none;"></path>
  <path d="M869.063293 1028.122070C869.063293 1006.247284,860.372284 985.271057,844.905640 969.804428C829.439011 954.337784,808.462784 945.646774,786.587997 945.646774C764.713211 945.646774,743.736984 954.337784,728.270355 969.804428C712.803711 985.271057,704.112701 1006.247284,704.112701 1028.122070C704.112701 1049.996857,712.803711 1070.973083,728.270355 1086.439713C743.736984 1101.906357,764.713211 1110.597366,786.587997 1110.597366C808.462784 1110.597366,829.439011 1101.906357,844.905640 1086.439713C860.372284 1070.973083,869.063293 1049.996857,869.063293 1028.122070Z" style="stroke:rgb(25.500488%,41.000366%,88.400269%); stroke-width: 2.500000;stroke-linecap: round;stroke-linejoin: round;stroke-miterlimit: 10.000000;fill: none;"></path>
  <path d="M803.521652 916.943909C803.521652 895.069122,794.830643 874.092896,779.363998 858.626266C763.897369 843.159622,742.921143 834.468613,721.046356 834.468613C699.171570 834.468613,678.195343 843.159622,662.728714 858.626266C647.262070 874.092896,638.571060 895.069122,638.571060 916.943909C638.571060 938.818695,647.262070 959.794922,662.728714 975.261551C678.195343 990.728195,699.171570 999.419205,721.046356 999.419205C742.921143 999.419205,763.897369 990.728195,779.363998 975.261551C794.830643 959.794922,803.521652 938.818695,803.521652 916.943909Z" style="stroke:rgb(25.500488%,41.000366%,88.400269%); stroke-width: 2.500000;stroke-linecap: round;stroke-linejoin: round;stroke-miterlimit: 10.000000;fill: none;"></path>
  <path d="M726.262695 793.166077C726.262695 771.291290,717.571686 750.315063,702.105042 734.848434C686.638412 719.381790,665.662186 710.690781,643.787399 710.690781C621.912613 710.690781,600.936386 719.381790,585.469757 734.848434C570.003113 750.315063,561.312103 771.291290,561.312103 793.166077C561.312103 815.040863,570.003113 836.017090,585.469757 851.483719C600.936386 866.950363,621.912613 875.641373,643.787399 875.641373C665.662186 875.641373,686.638412 866.950363,702.105042 851.483719C717.571686 836.017090,726.262695 815.040863,726.262695 793.166077Z" style="stroke:rgb(25.500488%,41.000366%,88.400269%); stroke-width: 2.500000;stroke-linecap: round;stroke-linejoin: round;stroke-miterlimit: 10.000000;fill: none;"></path>
  <path d="M649.470871 667.156387C649.470871 645.281601,640.779861 624.305374,625.313217 608.838745C609.846588 593.372101,588.870361 584.681091,566.995575 584.681091C545.120789 584.681091,524.144562 593.372101,508.677933 608.838745C493.211288 624.305374,484.520279 645.281601,484.520279 667.156387C484.520279 689.031174,493.211288 710.007401,508.677933 725.474030C524.144562 740.940674,545.120789 749.631683,566.995575 749.631683C588.870361 749.631683,609.846588 740.940674,625.313217 725.474030C640.779861 710.007401,649.470871 689.031174,649.470871 667.156387Z" style="stroke:rgb(25.500488%,41.000366%,88.400269%); stroke-width: 2.500000;stroke-linecap: round;stroke-linejoin: round;stroke-miterlimit: 10.000000;fill: none;"></path>
  <path d="M572.964508 543.599136C572.964508 521.724350,564.273499 500.748123,548.806854 485.281494C533.340225 469.814850,512.363998 461.123840,490.489212 461.123840C468.614426 461.123840,447.638199 469.814850,432.171570 485.281494C416.704926 500.748123,408.013916 521.724350,408.013916 543.599136C408.013916 565.473923,416.704926 586.450150,432.171570 601.916779C447.638199 617.383423,468.614426 626.074432,490.489212 626.074432C512.363998 626.074432,533.340225 617.383423,548.806854 601.916779C564.273499 586.450150,572.964508 565.473923,572.964508 543.599136Z" style="stroke:rgb(25.500488%,41.000366%,88.400269%); stroke-width: 2.500000;stroke-linecap: round;stroke-linejoin: round;stroke-miterlimit: 10.000000;fill: none;"></path>
  <path d="M841.696960 1137.250015C841.696960 1115.375229,833.005951 1094.399002,817.539307 1078.932373C802.072678 1063.465729,781.096451 1054.774719,759.221664 1054.774719C737.346878 1054.774719,716.370651 1063.465729,700.904022 1078.932373C685.437378 1094.399002,676.746368 1115.375229,676.746368 1137.250015C676.746368 1159.124802,685.437378 1180.101028,700.904022 1195.567657C716.370651 1211.034302,737.346878 1219.725311,759.221664 1219.725311C781.096451 1219.725311,802.072678 1211.034302,817.539307 1195.567657C833.005951 1180.101028,841.696960 1159.124802,841.696960 1137.250015Z" style="stroke:rgb(25.500488%,41.000366%,88.400269%); stroke-width: 2.500000;stroke-linecap: round;stroke-linejoin: round;stroke-miterlimit: 10.000000;fill: none;"></path>
  <path d="M734.787903 1029.614304C734.787903 1007.739517,726.096893 986.763290,710.630249 971.296661C695.163620 955.830017,674.187393 947.139008,652.312607 947.139008C630.437820 947.139008,609.461594 955.830017,593.994965 971.296661C578.528320 986.763290,569.837311 1007.739517,569.837311 1029.614304C569.837311 1051.489090,578.528320 1072.465317,593.994965 1087.931946C609.461594 1103.398590,630.437820 1112.089600,652.312607 1112.089600C674.187393 1112.089600,695.163620 1103.398590,710.630249 1087.931946C726.096893 1072.465317,734.787903 1051.489090,734.787903 1029.614304Z" style="stroke:rgb(25.500488%,41.000366%,88.400269%); stroke-width: 2.500000;stroke-linecap: round;stroke-linejoin: round;stroke-miterlimit: 10.000000;fill: none;"></path>
  <path d="M655.660400 905.979202C655.660400 884.104416,646.969391 863.128189,631.502747 847.661560C616.036118 832.194916,595.059891 823.503906,573.185104 823.503906C551.310318 823.503906,530.334091 832.194916,514.867462 847.661560C499.400818 863.128189,490.709808 884.104416,490.709808 905.979202C490.709808 927.853989,499.400818 948.830215,514.867462 964.296844C530.334091 979.763489,551.310318 988.454498,573.185104 988.454498C595.059891 988.454498,616.036118 979.763489,631.502747 964.296844C646.969391 948.830215,655.660400 927.853989,655.660400 905.979202Z" style="stroke:rgb(25.500488%,41.000366%,88.400269%); stroke-width: 2.500000;stroke-linecap: round;stroke-linejoin: round;stroke-miterlimit: 10.000000;fill: none;"></path>
  <path d="M579.763931 779.904633C579.763931 758.029846,571.072922 737.053619,555.606277 721.586990C540.139648 706.120346,519.163422 697.429337,497.288635 697.429337C475.413849 697.429337,454.437622 706.120346,438.970993 721.586990C423.504349 737.053619,414.813339 758.029846,414.813339 779.904633C414.813339 801.779419,423.504349 822.755646,438.970993 838.222275C454.437622 853.688919,475.413849 862.379929,497.288635 862.379929C519.163422 862.379929,540.139648 853.688919,555.606277 838.222275C571.072922 822.755646,579.763931 801.779419,579.763931 779.904633Z" style="stroke:rgb(25.500488%,41.000366%,88.400269%); stroke-width: 2.500000;stroke-linecap: round;stroke-linejoin: round;stroke-miterlimit: 10.000000;fill: none;"></path>
  <path d="M501.427963 656.477158C501.427963 634.602371,492.736954 613.626144,477.270309 598.159515C461.803680 582.692871,440.827454 574.001862,418.952667 574.001862C397.077881 574.001862,376.101654 582.692871,360.635025 598.159515C345.168381 613.626144,336.477371 634.602371,336.477371 656.477158C336.477371 678.351944,345.168381 699.328171,360.635025 714.794800C376.101654 730.261444,397.077881 738.952454,418.952667 738.952454C440.827454 738.952454,461.803680 730.261444,477.270309 714.794800C492.736954 699.328171,501.427963 678.351944,501.427963 656.477158Z" style="stroke:rgb(25.500488%,41.000366%,88.400269%); stroke-width: 2.500000;stroke-linecap: round;stroke-linejoin: round;stroke-miterlimit: 10.000000;fill: none;"></path>
  <path d="M774.364624 1251.983597C774.364624 1230.108810,765.673615 1209.132584,750.206970 1193.665955C734.740341 1178.199310,713.764114 1169.508301,691.889328 1169.508301C670.014542 1169.508301,649.038315 1178.199310,633.571686 1193.665955C618.105042 1209.132584,609.414032 1230.108810,609.414032 1251.983597C609.414032 1273.858383,618.105042 1294.834610,633.571686 1310.301239C649.038315 1325.767883,670.014542 1334.458893,691.889328 1334.458893C713.764114 1334.458893,734.740341 1325.767883,750.206970 1310.301239C765.673615 1294.834610,774.364624 1273.858383,774.364624 1251.983597Z" style="stroke:rgb(25.500488%,41.000366%,88.400269%); stroke-width: 2.500000;stroke-linecap: round;stroke-linejoin: round;stroke-miterlimit: 10.000000;fill: none;"></path>
  <path d="M689.527695 1138.949875C689.527695 1117.075089,680.836685 1096.098862,665.370041 1080.632233C649.903412 1065.165588,628.927185 1056.474579,607.052399 1056.474579C585.177612 1056.474579,564.201385 1065.165588,548.734756 1080.632233C533.268112 1096.098862,524.577103 1117.075089,524.577103 1138.949875C524.577103 1160.824661,533.268112 1181.800888,548.734756 1197.267517C564.201385 1212.734161,585.177612 1221.425171,607.052399 1221.425171C628.927185 1221.425171,649.903412 1212.734161,665.370041 1197.267517C680.836685 1181.800888,689.527695 1160.824661,689.527695 1138.949875Z" style="stroke:rgb(25.500488%,41.000366%,88.400269%); stroke-width: 2.500000;stroke-linecap: round;stroke-linejoin: round;stroke-miterlimit: 10.000000;fill: none;"></path>
  <path d="M589.690552 1024.839142C589.690552 1002.964355,580.999542 981.988129,565.532898 966.521500C550.066269 951.054855,529.090042 942.363846,507.215256 942.363846C485.340469 942.363846,464.364243 951.054855,448.897614 966.521500C433.430969 981.988129,424.739960 1002.964355,424.739960 1024.839142C424.739960 1046.713928,433.430969 1067.690155,448.897614 1083.156784C464.364243 1098.623428,485.340469 1107.314438,507.215256 1107.314438C529.090042 1107.314438,550.066269 1098.623428,565.532898 1083.156784C580.999542 1067.690155,589.690552 1046.713928,589.690552 1024.839142Z" style="stroke:rgb(25.500488%,41.000366%,88.400269%); stroke-width: 2.500000;stroke-linecap: round;stroke-linejoin: round;stroke-miterlimit: 10.000000;fill: none;"></path>
  <path d="M511.951477 898.920273C511.951477 877.045486,503.260468 856.069260,487.793823 840.602631C472.327194 825.135986,451.350967 816.444977,429.476181 816.444977C407.601395 816.444977,386.625168 825.135986,371.158539 840.602631C355.691895 856.069260,347.000885 877.045486,347.000885 898.920273C347.000885 920.795059,355.691895 941.771286,371.158539 957.237915C386.625168 972.704559,407.601395 981.395569,429.476181 981.395569C451.350967 981.395569,472.327194 972.704559,487.793823 957.237915C503.260468 941.771286,511.951477 920.795059,511.951477 898.920273Z" style="stroke:rgb(25.500488%,41.000366%,88.400269%); stroke-width: 2.500000;stroke-linecap: round;stroke-linejoin: round;stroke-miterlimit: 10.000000;fill: none;"></path>
  <path d="M434.510864 775.427917C434.510864 753.553131,425.819855 732.576904,410.353210 717.110275C394.886581 701.643631,373.910355 692.952621,352.035568 692.952621C330.160782 692.952621,309.184555 701.643631,293.717926 717.110275C278.251282 732.576904,269.560272 753.553131,269.560272 775.427917C269.560272 797.302704,278.251282 818.278931,293.717926 833.745560C309.184555 849.212204,330.160782 857.903214,352.035568 857.903214C373.910355 857.903214,394.886581 849.212204,410.353210 833.745560C425.819855 818.278931,434.510864 797.302704,434.510864 775.427917Z" style="stroke:rgb(25.500488%,41.000366%,88.400269%); stroke-width: 2.500000;stroke-linecap: round;stroke-linejoin: round;stroke-miterlimit: 10.000000;fill: none;"></path>
  <path d="M619.081131 1245.210129C619.081131 1223.335342,610.390121 1202.359116,594.923477 1186.892487C579.456848 1171.425842,558.480621 1162.734833,536.605835 1162.734833C514.731049 1162.734833,493.754822 1171.425842,478.288193 1186.892487C462.821548 1202.359116,454.130539 1223.335342,454.130539 1245.210129C454.130539 1267.084915,462.821548 1288.061142,478.288193 1303.527771C493.754822 1318.994415,514.731049 1327.685425,536.605835 1327.685425C558.480621 1327.685425,579.456848 1318.994415,594.923477 1303.527771C610.390121 1288.061142,619.081131 1267.084915,619.081131 1245.210129Z" style="stroke:rgb(25.500488%,41.000366%,88.400269%); stroke-width: 2.500000;stroke-linecap: round;stroke-linejoin: round;stroke-miterlimit: 10.000000;fill: none;"></path>
  <path d="M536.813446 1129.075150C536.813446 1107.200363,528.122437 1086.224136,512.655792 1070.757507C497.189163 1055.290863,476.212936 1046.599854,454.338150 1046.599854C432.463364 1046.599854,411.487137 1055.290863,396.020508 1070.757507C380.553864 1086.224136,371.862854 1107.200363,371.862854 1129.075150C371.862854 1150.949936,380.553864 1171.926163,396.020508 1187.392792C411.487137 1202.859436,432.463364 1211.550446,454.338150 1211.550446C476.212936 1211.550446,497.189163 1202.859436,512.655792 1187.392792C528.122437 1171.926163,536.813446 1150.949936,536.813446 1129.075150Z" style="stroke:rgb(25.500488%,41.000366%,88.400269%); stroke-width: 2.500000;stroke-linecap: round;stroke-linejoin: round;stroke-miterlimit: 10.000000;fill: none;"></path>
  <path d="M445.190079 1016.132263C445.190079 994.257477,436.499069 973.281250,421.032425 957.814621C405.565796 942.347977,384.589569 933.656967,362.714783 933.656967C340.839996 933.656967,319.863770 942.347977,304.397141 957.814621C288.930496 973.281250,280.239487 994.257477,280.239487 1016.132263C280.239487 1038.007050,288.930496 1058.983276,304.397141 1074.449905C319.863770 1089.916550,340.839996 1098.607559,362.714783 1098.607559C384.589569 1098.607559,405.565796 1089.916550,421.032425 1074.449905C436.499069 1058.983276,445.190079 1038.007050,445.190079 1016.132263Z" style="stroke:rgb(25.500488%,41.000366%,88.400269%); stroke-width: 2.500000;stroke-linecap: round;stroke-linejoin: round;stroke-miterlimit: 10.000000;fill: none;"></path>
  <path d="M365.880920 892.782639C365.880920 870.907852,357.189911 849.931625,341.723267 834.464996C326.256638 818.998352,305.280411 810.307343,283.405624 810.307343C261.530838 810.307343,240.554611 818.998352,225.087982 834.464996C209.621338 849.931625,200.930328 870.907852,200.930328 892.782639C200.930328 914.657425,209.621338 935.633652,225.087982 951.100281C240.554611 966.566925,261.530838 975.257935,283.405624 975.257935C305.280411 975.257935,326.256638 966.566925,341.723267 951.100281C357.189911 935.633652,365.880920 914.657425,365.880920 892.782639Z" style="stroke:rgb(25.500488%,41.000366%,88.400269%); stroke-width: 2.500000;stroke-linecap: round;stroke-linejoin: round;stroke-miterlimit: 10.000000;fill: none;"></path>
  <path d="M467.469833 1242.238632C467.469833 1220.363846,458.778824 1199.387619,443.312180 1183.920990C427.845551 1168.454346,406.869324 1159.763336,384.994537 1159.763336C363.119751 1159.763336,342.143524 1168.454346,326.676895 1183.920990C311.210251 1199.387619,302.519241 1220.363846,302.519241 1242.238632C302.519241 1264.113419,311.210251 1285.089645,326.676895 1300.556274C342.143524 1316.022919,363.119751 1324.713928,384.994537 1324.713928C406.869324 1324.713928,427.845551 1316.022919,443.312180 1300.556274C458.778824 1285.089645,467.469833 1264.113419,467.469833 1242.238632Z" style="stroke:rgb(25.500488%,41.000366%,88.400269%); stroke-width: 2.500000;stroke-linecap: round;stroke-linejoin: round;stroke-miterlimit: 10.000000;fill: none;"></path>
  <path d="M384.332764 1128.114929C384.332764 1106.240143,375.641754 1085.263916,360.175110 1069.797287C344.708481 1054.330643,323.732254 1045.639633,301.857468 1045.639633C279.982681 1045.639633,259.006454 1054.330643,243.539825 1069.797287C228.073181 1085.263916,219.382172 1106.240143,219.382172 1128.114929C219.382172 1149.989716,228.073181 1170.965942,243.539825 1186.432571C259.006454 1201.899216,279.982681 1210.590225,301.857468 1210.590225C323.732254 1210.590225,344.708481 1201.899216,360.175110 1186.432571C375.641754 1170.965942,384.332764 1149.989716,384.332764 1128.114929Z" style="stroke:rgb(25.500488%,41.000366%,88.400269%); stroke-width: 2.500000;stroke-linecap: round;stroke-linejoin: round;stroke-miterlimit: 10.000000;fill: none;"></path>
  <path d="M299.508804 1010.812119C299.508804 988.937332,290.817795 967.961105,275.351151 952.494476C259.884521 937.027832,238.908295 928.336823,217.033508 928.336823C195.158722 928.336823,174.182495 937.027832,158.715866 952.494476C143.249222 967.961105,134.558212 988.937332,134.558212 1010.812119C134.558212 1032.686905,143.249222 1053.663132,158.715866 1069.129761C174.182495 1084.596405,195.158722 1093.287415,217.033508 1093.287415C238.908295 1093.287415,259.884521 1084.596405,275.351151 1069.129761C290.817795 1053.663132,299.508804 1032.686905,299.508804 1010.812119Z" style="stroke:rgb(25.500488%,41.000366%,88.400269%); stroke-width: 2.500000;stroke-linecap: round;stroke-linejoin: round;stroke-miterlimit: 10.000000;fill: none;"></path>
  <path d="M316.273773 1244.249908C316.273773 1222.375122,307.582764 1201.398895,292.116119 1185.932266C276.649490 1170.465622,255.673264 1161.774612,233.798477 1161.774612C211.923691 1161.774612,190.947464 1170.465622,175.480835 1185.932266C160.014191 1201.398895,151.323181 1222.375122,151.323181 1244.249908C151.323181 1266.124695,160.014191 1287.100922,175.480835 1302.567551C190.947464 1318.034195,211.923691 1326.725204,233.798477 1326.725204C255.673264 1326.725204,276.649490 1318.034195,292.116119 1302.567551C307.582764 1287.100922,316.273773 1266.124695,316.273773 1244.249908Z" style="stroke:rgb(25.500488%,41.000366%,88.400269%); stroke-width: 2.500000;stroke-linecap: round;stroke-linejoin: round;stroke-miterlimit: 10.000000;fill: none;"></path>
  <path d="M234.823578 1126.869232C234.823578 1104.994446,226.132568 1084.018219,210.665924 1068.551590C195.199295 1053.084946,174.223068 1044.393936,152.348282 1044.393936C130.473495 1044.393936,109.497269 1053.084946,94.030640 1068.551590C78.563995 1084.018219,69.872986 1104.994446,69.872986 1126.869232C69.872986 1148.744019,78.563995 1169.720245,94.030640 1185.186874C109.497269 1200.653519,130.473495 1209.344528,152.348282 1209.344528C174.223068 1209.344528,195.199295 1200.653519,210.665924 1185.186874C226.132568 1169.720245,234.823578 1148.744019,234.823578 1126.869232Z" style="stroke:rgb(25.500488%,41.000366%,88.400269%); stroke-width: 2.500000;stroke-linecap: round;stroke-linejoin: round;stroke-miterlimit: 10.000000;fill: none;"></path>
  <path d="M165.622696 1241.018890C165.622696 1219.144104,156.931686 1198.167877,141.465042 1182.701248C125.998413 1167.234604,105.022186 1158.543594,83.147400 1158.543594C61.272614 1158.543594,40.296387 1167.234604,24.829758 1182.701248C9.363113 1198.167877,0.672104 1219.144104,0.672104 1241.018890C0.672104 1262.893677,9.363113 1283.869904,24.829758 1299.336533C40.296387 1314.803177,61.272614 1323.494186,83.147400 1323.494186C105.022186 1323.494186,125.998413 1314.803177,141.465042 1299.336533C156.931686 1283.869904,165.622696 1262.893677,165.622696 1241.018890Z" style="stroke:rgb(25.500488%,41.000366%,88.400269%); stroke-width: 2.500000;stroke-linecap: round;stroke-linejoin: round;stroke-miterlimit: 10.000000;fill: none;"></path>
</svg>
