<?xml version="1.0"?>
<!-- Created by MetaPost 2.00 on 2022.03.02:1201 -->
<svg version="1.1" xmlns="http://www.w3.org/2000/svg" xmlns:xlink="http://www.w3.org/1999/xlink" width="1751.778259" height="1799.542831" viewBox="0 0 1751.778259 1799.542831">
<!-- Original BoundingBox: -881.034103 -898.733337 870.744156 900.809494 -->
  <path d="M1731.393524 900.000000L1482.319672 298.680328L881.000000 49.606476L279.680328 298.680328L30.606476 900.000000L279.680328 1501.319672L881.000000 1750.393524L1482.319672 1501.319672L1731.393524 900.000000Z" style="fill: rgb(100.000000%,100.000000%,100.000000%);stroke: none;"></path>
  <path d="M1731.393524 900.000000L1482.319672 298.680328" style="stroke:rgb(0.000000%,0.000000%,0.000000%); stroke-width: 2.500000;stroke-linecap: round;stroke-linejoin: round;stroke-miterlimit: 10.000000;fill: none;"></path>
  <path d="M1482.319672 298.680328L881.000000 49.606476" style="stroke:rgb(0.000000%,0.000000%,0.000000%); stroke-width: 2.500000;stroke-linecap: round;stroke-linejoin: round;stroke-miterlimit: 10.000000;fill: none;"></path>
  <path d="M881.000000 49.606476L279.680328 298.680328" style="stroke:rgb(0.000000%,0.000000%,0.000000%); stroke-width: 2.500000;stroke-linecap: round;stroke-linejoin: round;stroke-miterlimit: 10.000000;fill: none;"></path>
  <path d="M279.680328 298.680328L30.606476 900.000000" style="stroke:rgb(0.000000%,0.000000%,0.000000%); stroke-width: 2.500000;stroke-linecap: round;stroke-linejoin: round;stroke-miterlimit: 10.000000;fill: none;"></path>
  <path d="M30.606476 900.000000L279.680328 1501.319672" style="stroke:rgb(0.000000%,0.000000%,0.000000%); stroke-width: 2.500000;stroke-linecap: round;stroke-linejoin: round;stroke-miterlimit: 10.000000;fill: none;"></path>
  <path d="M279.680328 1501.319672L881.000000 1750.393524" style="stroke:rgb(0.000000%,0.000000%,0.000000%); stroke-width: 2.500000;stroke-linecap: round;stroke-linejoin: round;stroke-miterlimit: 10.000000;fill: none;"></path>
  <path d="M881.000000 1750.393524L1482.319672 1501.319672" style="stroke:rgb(0.000000%,0.000000%,0.000000%); stroke-width: 2.500000;stroke-linecap: round;stroke-linejoin: round;stroke-miterlimit: 10.000000;fill: none;"></path>
  <path d="M1482.319672 1501.319672L1731.393524 900.000000" style="stroke:rgb(0.000000%,0.000000%,0.000000%); stroke-width: 2.500000;stroke-linecap: round;stroke-linejoin: round;stroke-miterlimit: 10.000000;fill: none;"></path>
  <path d="M230.358643 879.692596C230.358643 851.836319,219.291138 825.124298,199.595261 805.428436C179.899399 785.732559,153.187378 774.665054,125.331100 774.665054C97.474823 774.665054,70.762802 785.732559,51.066940 805.428436C31.371063 825.124298,20.303558 851.836319,20.303558 879.692596C20.303558 907.548874,31.371063 934.260895,51.066940 953.956757C70.762802 973.652634,97.474823 984.720139,125.331100 984.720139C153.187378 984.720139,179.899399 973.652634,199.595261 953.956757C219.291138 934.260895,230.358643 907.548874,230.358643 879.692596Z" style="stroke:rgb(25.500488%,41.000366%,88.400269%); stroke-width: 2.500000;stroke-linecap: round;stroke-linejoin: round;stroke-miterlimit: 10.000000;fill: none;"></path>
  <path d="M430.032944 436.056976C430.032944 408.200699,418.965439 381.488678,399.269562 361.792816C379.573700 342.096939,352.861679 331.029434,325.005402 331.029434C297.149124 331.029434,270.437103 342.096939,250.741241 361.792816C231.045364 381.488678,219.977859 408.200699,219.977859 436.056976C219.977859 463.913254,231.045364 490.625275,250.741241 510.321136C270.437103 530.017014,297.149124 541.084518,325.005402 541.084518C352.861679 541.084518,379.573700 530.017014,399.269562 510.321136C418.965439 490.625275,430.032944 463.913254,430.032944 436.056976Z" style="stroke:rgb(25.500488%,41.000366%,88.400269%); stroke-width: 2.500000;stroke-linecap: round;stroke-linejoin: round;stroke-miterlimit: 10.000000;fill: none;"></path>
  <path d="M439.531357 624.753616C439.531357 596.897339,428.463852 570.185318,408.767975 550.489456C389.072113 530.793579,362.360092 519.726074,334.503815 519.726074C306.647537 519.726074,279.935516 530.793579,260.239655 550.489456C240.543777 570.185318,229.476273 596.897339,229.476273 624.753616C229.476273 652.609894,240.543777 679.321915,260.239655 699.017776C279.935516 718.713654,306.647537 729.781158,334.503815 729.781158C362.360092 729.781158,389.072113 718.713654,408.767975 699.017776C428.463852 679.321915,439.531357 652.609894,439.531357 624.753616Z" style="stroke:rgb(25.500488%,41.000366%,88.400269%); stroke-width: 2.500000;stroke-linecap: round;stroke-linejoin: round;stroke-miterlimit: 10.000000;fill: none;"></path>
  <path d="M406.364761 807.740814C406.364761 779.884537,395.297256 753.172516,375.601379 733.476654C355.905518 713.780777,329.193497 702.713272,301.337219 702.713272C273.480942 702.713272,246.768921 713.780777,227.073059 733.476654C207.377182 753.172516,196.309677 779.884537,196.309677 807.740814C196.309677 835.597092,207.377182 862.309113,227.073059 882.004974C246.768921 901.700851,273.480942 912.768356,301.337219 912.768356C329.193497 912.768356,355.905518 901.700851,375.601379 882.004974C395.297256 862.309113,406.364761 835.597092,406.364761 807.740814Z" style="stroke:rgb(25.500488%,41.000366%,88.400269%); stroke-width: 2.500000;stroke-linecap: round;stroke-linejoin: round;stroke-miterlimit: 10.000000;fill: none;"></path>
  <path d="M384.500244 977.842880C384.500244 949.986603,373.432739 923.274582,353.736862 903.578720C334.041000 883.882843,307.328979 872.815338,279.472702 872.815338C251.616425 872.815338,224.904404 883.882843,205.208542 903.578720C185.512665 923.274582,174.445160 949.986603,174.445160 977.842880C174.445160 1005.699158,185.512665 1032.411179,205.208542 1052.107040C224.904404 1071.802917,251.616425 1082.870422,279.472702 1082.870422C307.328979 1082.870422,334.041000 1071.802917,353.736862 1052.107040C373.432739 1032.411179,384.500244 1005.699158,384.500244 977.842880Z" style="stroke:rgb(25.500488%,41.000366%,88.400269%); stroke-width: 2.500000;stroke-linecap: round;stroke-linejoin: round;stroke-miterlimit: 10.000000;fill: none;"></path>
  <path d="M343.625931 1158.689041C343.625931 1130.832764,332.558426 1104.120743,312.862549 1084.424881C293.166687 1064.729004,266.454666 1053.661499,238.598389 1053.661499C210.742111 1053.661499,184.030090 1064.729004,164.334229 1084.424881C144.638351 1104.120743,133.570847 1130.832764,133.570847 1158.689041C133.570847 1186.545319,144.638351 1213.257339,164.334229 1232.953201C184.030090 1252.649078,210.742111 1263.716583,238.598389 1263.716583C266.454666 1263.716583,293.166687 1252.649078,312.862549 1232.953201C332.558426 1213.257339,343.625931 1186.545319,343.625931 1158.689041Z" style="stroke:rgb(25.500488%,41.000366%,88.400269%); stroke-width: 2.500000;stroke-linecap: round;stroke-linejoin: round;stroke-miterlimit: 10.000000;fill: none;"></path>
  <path d="M618.431137 400.827209C618.431137 372.970932,607.363632 346.258911,587.667755 326.563049C567.971893 306.867172,541.259872 295.799667,513.403595 295.799667C485.547318 295.799667,458.835297 306.867172,439.139435 326.563049C419.443558 346.258911,408.376053 372.970932,408.376053 400.827209C408.376053 428.683487,419.443558 455.395508,439.139435 475.091370C458.835297 494.787247,485.547318 505.854752,513.403595 505.854752C541.259872 505.854752,567.971893 494.787247,587.667755 475.091370C607.363632 455.395508,618.431137 428.683487,618.431137 400.827209Z" style="stroke:rgb(25.500488%,41.000366%,88.400269%); stroke-width: 2.500000;stroke-linecap: round;stroke-linejoin: round;stroke-miterlimit: 10.000000;fill: none;"></path>
  <path d="M582.747208 552.749924C582.747208 524.893646,571.679703 498.181625,551.983826 478.485764C532.287964 458.789886,505.575943 447.722382,477.719666 447.722382C449.863388 447.722382,423.151367 458.789886,403.455505 478.485764C383.759628 498.181625,372.692123 524.893646,372.692123 552.749924C372.692123 580.606201,383.759628 607.318222,403.455505 627.014084C423.151367 646.709961,449.863388 657.777466,477.719666 657.777466C505.575943 657.777466,532.287964 646.709961,551.983826 627.014084C571.679703 607.318222,582.747208 580.606201,582.747208 552.749924Z" style="stroke:rgb(25.500488%,41.000366%,88.400269%); stroke-width: 2.500000;stroke-linecap: round;stroke-linejoin: round;stroke-miterlimit: 10.000000;fill: none;"></path>
  <path d="M575.688278 733.583115C575.688278 705.726837,564.620773 679.014816,544.924896 659.318954C525.229034 639.623077,498.517014 628.555573,470.660736 628.555573C442.804459 628.555573,416.092438 639.623077,396.396576 659.318954C376.700699 679.014816,365.633194 705.726837,365.633194 733.583115C365.633194 761.439392,376.700699 788.151413,396.396576 807.847275C416.092438 827.543152,442.804459 838.610657,470.660736 838.610657C498.517014 838.610657,525.229034 827.543152,544.924896 807.847275C564.620773 788.151413,575.688278 761.439392,575.688278 733.583115Z" style="stroke:rgb(25.500488%,41.000366%,88.400269%); stroke-width: 2.500000;stroke-linecap: round;stroke-linejoin: round;stroke-miterlimit: 10.000000;fill: none;"></path>
  <path d="M560.272812 909.148056C560.272812 881.291779,549.205307 854.579758,529.509430 834.883896C509.813568 815.188019,483.101547 804.120514,455.245270 804.120514C427.388992 804.120514,400.676971 815.188019,380.981110 834.883896C361.285233 854.579758,350.217728 881.291779,350.217728 909.148056C350.217728 937.004333,361.285233 963.716354,380.981110 983.412216C400.676971 1003.108093,427.388992 1014.175598,455.245270 1014.175598C483.101547 1014.175598,509.813568 1003.108093,529.509430 983.412216C549.205307 963.716354,560.272812 937.004333,560.272812 909.148056Z" style="stroke:rgb(25.500488%,41.000366%,88.400269%); stroke-width: 2.500000;stroke-linecap: round;stroke-linejoin: round;stroke-miterlimit: 10.000000;fill: none;"></path>
  <path d="M516.907104 1087.775345C516.907104 1059.919067,505.839600 1033.207047,486.143723 1013.511185C466.447861 993.815308,439.735840 982.747803,411.879562 982.747803C384.023285 982.747803,357.311264 993.815308,337.615402 1013.511185C317.919525 1033.207047,306.852020 1059.919067,306.852020 1087.775345C306.852020 1115.631622,317.919525 1142.343643,337.615402 1162.039505C357.311264 1181.735382,384.023285 1192.802887,411.879562 1192.802887C439.735840 1192.802887,466.447861 1181.735382,486.143723 1162.039505C505.839600 1142.343643,516.907104 1115.631622,516.907104 1087.775345Z" style="stroke:rgb(25.500488%,41.000366%,88.400269%); stroke-width: 2.500000;stroke-linecap: round;stroke-linejoin: round;stroke-miterlimit: 10.000000;fill: none;"></path>
  <path d="M498.636932 1259.512375C498.636932 1231.656097,487.569427 1204.944077,467.873550 1185.248215C448.177689 1165.552338,421.465668 1154.484833,393.609390 1154.484833C365.753113 1154.484833,339.041092 1165.552338,319.345230 1185.248215C299.649353 1204.944077,288.581848 1231.656097,288.581848 1259.512375C288.581848 1287.368652,299.649353 1314.080673,319.345230 1333.776535C339.041092 1353.472412,365.753113 1364.539917,393.609390 1364.539917C421.465668 1364.539917,448.177689 1353.472412,467.873550 1333.776535C487.569427 1314.080673,498.636932 1287.368652,498.636932 1259.512375Z" style="stroke:rgb(25.500488%,41.000366%,88.400269%); stroke-width: 2.500000;stroke-linecap: round;stroke-linejoin: round;stroke-miterlimit: 10.000000;fill: none;"></path>
  <path d="M460.734100 1440.747818C460.734100 1412.891541,449.666595 1386.179520,429.970718 1366.483658C410.274857 1346.787781,383.562836 1335.720276,355.706558 1335.720276C327.850281 1335.720276,301.138260 1346.787781,281.442398 1366.483658C261.746521 1386.179520,250.679016 1412.891541,250.679016 1440.747818C250.679016 1468.604095,261.746521 1495.316116,281.442398 1515.011978C301.138260 1534.707855,327.850281 1545.775360,355.706558 1545.775360C383.562836 1545.775360,410.274857 1534.707855,429.970718 1515.011978C449.666595 1495.316116,460.734100 1468.604095,460.734100 1440.747818Z" style="stroke:rgb(25.500488%,41.000366%,88.400269%); stroke-width: 2.500000;stroke-linecap: round;stroke-linejoin: round;stroke-miterlimit: 10.000000;fill: none;"></path>
  <path d="M799.407059 339.541672C799.407059 311.685394,788.339554 284.973373,768.643677 265.277512C748.947815 245.581635,722.235794 234.514130,694.379517 234.514130C666.523239 234.514130,639.811218 245.581635,620.115356 265.277512C600.419479 284.973373,589.351974 311.685394,589.351974 339.541672C589.351974 367.397949,600.419479 394.109970,620.115356 413.805832C639.811218 433.501709,666.523239 444.569214,694.379517 444.569214C722.235794 444.569214,748.947815 433.501709,768.643677 413.805832C788.339554 394.109970,799.407059 367.397949,799.407059 339.541672Z" style="stroke:rgb(25.500488%,41.000366%,88.400269%); stroke-width: 2.500000;stroke-linecap: round;stroke-linejoin: round;stroke-miterlimit: 10.000000;fill: none;"></path>
  <path d="M772.196442 504.284653C772.196442 476.428375,761.128937 449.716354,741.433060 430.020493C721.737198 410.324615,695.025177 399.257111,667.168900 399.257111C639.312622 399.257111,612.600601 410.324615,592.904739 430.020493C573.208862 449.716354,562.141357 476.428375,562.141357 504.284653C562.141357 532.140930,573.208862 558.852951,592.904739 578.548813C612.600601 598.244690,639.312622 609.312195,667.168900 609.312195C695.025177 609.312195,721.737198 598.244690,741.433060 578.548813C761.128937 558.852951,772.196442 532.140930,772.196442 504.284653Z" style="stroke:rgb(25.500488%,41.000366%,88.400269%); stroke-width: 2.500000;stroke-linecap: round;stroke-linejoin: round;stroke-miterlimit: 10.000000;fill: none;"></path>
  <path d="M736.759048 658.192703C736.759048 630.336426,725.691544 603.624405,705.995667 583.928543C686.299805 564.232666,659.587784 553.165161,631.731506 553.165161C603.875229 553.165161,577.163208 564.232666,557.467346 583.928543C537.771469 603.624405,526.703964 630.336426,526.703964 658.192703C526.703964 686.048981,537.771469 712.761002,557.467346 732.456863C577.163208 752.152740,603.875229 763.220245,631.731506 763.220245C659.587784 763.220245,686.299805 752.152740,705.995667 732.456863C725.691544 712.761002,736.759048 686.048981,736.759048 658.192703Z" style="stroke:rgb(25.500488%,41.000366%,88.400269%); stroke-width: 2.500000;stroke-linecap: round;stroke-linejoin: round;stroke-miterlimit: 10.000000;fill: none;"></path>
  <path d="M729.622269 834.614059C729.622269 806.757782,718.554764 780.045761,698.858887 760.349899C679.163025 740.654022,652.451004 729.586517,624.594727 729.586517C596.738449 729.586517,570.026428 740.654022,550.330566 760.349899C530.634689 780.045761,519.567184 806.757782,519.567184 834.614059C519.567184 862.470337,530.634689 889.182358,550.330566 908.878220C570.026428 928.574097,596.738449 939.641602,624.594727 939.641602C652.451004 939.641602,679.163025 928.574097,698.858887 908.878220C718.554764 889.182358,729.622269 862.470337,729.622269 834.614059Z" style="stroke:rgb(25.500488%,41.000366%,88.400269%); stroke-width: 2.500000;stroke-linecap: round;stroke-linejoin: round;stroke-miterlimit: 10.000000;fill: none;"></path>
  <path d="M692.978119 1014.279419C692.978119 986.423141,681.910614 959.711121,662.214737 940.015259C642.518875 920.319382,615.806854 909.251877,587.950577 909.251877C560.094299 909.251877,533.382278 920.319382,513.686417 940.015259C493.990540 959.711121,482.923035 986.423141,482.923035 1014.279419C482.923035 1042.135696,493.990540 1068.847717,513.686417 1088.543579C533.382278 1108.239456,560.094299 1119.306961,587.950577 1119.306961C615.806854 1119.306961,642.518875 1108.239456,662.214737 1088.543579C681.910614 1068.847717,692.978119 1042.135696,692.978119 1014.279419Z" style="stroke:rgb(25.500488%,41.000366%,88.400269%); stroke-width: 2.500000;stroke-linecap: round;stroke-linejoin: round;stroke-miterlimit: 10.000000;fill: none;"></path>
  <path d="M672.190598 1183.784576C672.190598 1155.928299,661.123093 1129.216278,641.427216 1109.520416C621.731354 1089.824539,595.019333 1078.757034,567.163055 1078.757034C539.306778 1078.757034,512.594757 1089.824539,492.898895 1109.520416C473.203018 1129.216278,462.135513 1155.928299,462.135513 1183.784576C462.135513 1211.640854,473.203018 1238.352875,492.898895 1258.048737C512.594757 1277.744614,539.306778 1288.812119,567.163055 1288.812119C595.019333 1288.812119,621.731354 1277.744614,641.427216 1258.048737C661.123093 1238.352875,672.190598 1211.640854,672.190598 1183.784576Z" style="stroke:rgb(25.500488%,41.000366%,88.400269%); stroke-width: 2.500000;stroke-linecap: round;stroke-linejoin: round;stroke-miterlimit: 10.000000;fill: none;"></path>
  <path d="M633.223740 1363.644577C633.223740 1335.788300,622.156235 1309.076279,602.460358 1289.380417C582.764496 1269.684540,556.052475 1258.617035,528.196198 1258.617035C500.339920 1258.617035,473.627899 1269.684540,453.932037 1289.380417C434.236160 1309.076279,423.168655 1335.788300,423.168655 1363.644577C423.168655 1391.500854,434.236160 1418.212875,453.932037 1437.908737C473.627899 1457.604614,500.339920 1468.672119,528.196198 1468.672119C556.052475 1468.672119,582.764496 1457.604614,602.460358 1437.908737C622.156235 1418.212875,633.223740 1391.500854,633.223740 1363.644577Z" style="stroke:rgb(25.500488%,41.000366%,88.400269%); stroke-width: 2.500000;stroke-linecap: round;stroke-linejoin: round;stroke-miterlimit: 10.000000;fill: none;"></path>
  <path d="M586.146912 1514.101013C586.146912 1486.244736,575.079407 1459.532715,555.383530 1439.836853C535.687668 1420.140976,508.975647 1409.073471,481.119370 1409.073471C453.263092 1409.073471,426.551071 1420.140976,406.855209 1439.836853C387.159332 1459.532715,376.091827 1486.244736,376.091827 1514.101013C376.091827 1541.957291,387.159332 1568.669312,406.855209 1588.365173C426.551071 1608.061050,453.263092 1619.128555,481.119370 1619.128555C508.975647 1619.128555,535.687668 1608.061050,555.383530 1588.365173C575.079407 1568.669312,586.146912 1541.957291,586.146912 1514.101013Z" style="stroke:rgb(25.500488%,41.000366%,88.400269%); stroke-width: 2.500000;stroke-linecap: round;stroke-linejoin: round;stroke-miterlimit: 10.000000;fill: none;"></path>
  <path d="M975.309387 273.636688C975.309387 245.780411,964.241882 219.068390,944.546005 199.372528C924.850143 179.676651,898.138123 168.609146,870.281845 168.609146C842.425568 168.609146,815.713547 179.676651,796.017685 199.372528C776.321808 219.068390,765.254303 245.780411,765.254303 273.636688C765.254303 301.492966,776.321808 328.204987,796.017685 347.900848C815.713547 367.596725,842.425568 378.664230,870.281845 378.664230C898.138123 378.664230,924.850143 367.596725,944.546005 347.900848C964.241882 328.204987,975.309387 301.492966,975.309387 273.636688Z" style="stroke:rgb(25.500488%,41.000366%,88.400269%); stroke-width: 2.500000;stroke-linecap: round;stroke-linejoin: round;stroke-miterlimit: 10.000000;fill: none;"></path>
  <path d="M953.133438 443.375427C953.133438 415.519150,942.065933 388.807129,922.370056 369.111267C902.674194 349.415390,875.962173 338.347885,848.105896 338.347885C820.249619 338.347885,793.537598 349.415390,773.841736 369.111267C754.145859 388.807129,743.078354 415.519150,743.078354 443.375427C743.078354 471.231705,754.145859 497.943726,773.841736 517.639587C793.537598 537.335464,820.249619 548.402969,848.105896 548.402969C875.962173 548.402969,902.674194 537.335464,922.370056 517.639587C942.065933 497.943726,953.133438 471.231705,953.133438 443.375427Z" style="stroke:rgb(25.500488%,41.000366%,88.400269%); stroke-width: 2.500000;stroke-linecap: round;stroke-linejoin: round;stroke-miterlimit: 10.000000;fill: none;"></path>
  <path d="M924.261902 608.987793C924.261902 581.131516,913.194397 554.419495,893.498520 534.723633C873.802658 515.027756,847.090637 503.960251,819.234360 503.960251C791.378082 503.960251,764.666061 515.027756,744.970200 534.723633C725.274323 554.419495,714.206818 581.131516,714.206818 608.987793C714.206818 636.844070,725.274323 663.556091,744.970200 683.251953C764.666061 702.947830,791.378082 714.015335,819.234360 714.015335C847.090637 714.015335,873.802658 702.947830,893.498520 683.251953C913.194397 663.556091,924.261902 636.844070,924.261902 608.987793Z" style="stroke:rgb(25.500488%,41.000366%,88.400269%); stroke-width: 2.500000;stroke-linecap: round;stroke-linejoin: round;stroke-miterlimit: 10.000000;fill: none;"></path>
  <path d="M894.079773 763.233215C894.079773 735.376938,883.012268 708.664917,863.316391 688.969055C843.620529 669.273178,816.908508 658.205673,789.052231 658.205673C761.195953 658.205673,734.483932 669.273178,714.788071 688.969055C695.092194 708.664917,684.024689 735.376938,684.024689 763.233215C684.024689 791.089493,695.092194 817.801514,714.788071 837.497375C734.483932 857.193253,761.195953 868.260757,789.052231 868.260757C816.908508 868.260757,843.620529 857.193253,863.316391 837.497375C883.012268 817.801514,894.079773 791.089493,894.079773 763.233215Z" style="stroke:rgb(25.500488%,41.000366%,88.400269%); stroke-width: 2.500000;stroke-linecap: round;stroke-linejoin: round;stroke-miterlimit: 10.000000;fill: none;"></path>
  <path d="M866.051666 944.857941C866.051666 917.001663,854.984161 890.289642,835.288284 870.593781C815.592422 850.897903,788.880402 839.830399,761.024124 839.830399C733.167847 839.830399,706.455826 850.897903,686.759964 870.593781C667.064087 890.289642,655.996582 917.001663,655.996582 944.857941C655.996582 972.714218,667.064087 999.426239,686.759964 1019.122101C706.455826 1038.817978,733.167847 1049.885483,761.024124 1049.885483C788.880402 1049.885483,815.592422 1038.817978,835.288284 1019.122101C854.984161 999.426239,866.051666 972.714218,866.051666 944.857941Z" style="stroke:rgb(25.500488%,41.000366%,88.400269%); stroke-width: 2.500000;stroke-linecap: round;stroke-linejoin: round;stroke-miterlimit: 10.000000;fill: none;"></path>
  <path d="M846.354141 1117.451401C846.354141 1089.595123,835.286636 1062.883102,815.590759 1043.187241C795.894897 1023.491364,769.182877 1012.423859,741.326599 1012.423859C713.470322 1012.423859,686.758301 1023.491364,667.062439 1043.187241C647.366562 1062.883102,636.299057 1089.595123,636.299057 1117.451401C636.299057 1145.307678,647.366562 1172.019699,667.062439 1191.715561C686.758301 1211.411438,713.470322 1222.478943,741.326599 1222.478943C769.182877 1222.478943,795.894897 1211.411438,815.590759 1191.715561C835.286636 1172.019699,846.354141 1145.307678,846.354141 1117.451401Z" style="stroke:rgb(25.500488%,41.000366%,88.400269%); stroke-width: 2.500000;stroke-linecap: round;stroke-linejoin: round;stroke-miterlimit: 10.000000;fill: none;"></path>
  <path d="M806.543854 1296.558777C806.543854 1268.702499,795.476349 1241.990479,775.780472 1222.294617C756.084610 1202.598740,729.372589 1191.531235,701.516312 1191.531235C673.660034 1191.531235,646.948013 1202.598740,627.252151 1222.294617C607.556274 1241.990479,596.488770 1268.702499,596.488770 1296.558777C596.488770 1324.415054,607.556274 1351.127075,627.252151 1370.822937C646.948013 1390.518814,673.660034 1401.586319,701.516312 1401.586319C729.372589 1401.586319,756.084610 1390.518814,775.780472 1370.822937C795.476349 1351.127075,806.543854 1324.415054,806.543854 1296.558777Z" style="stroke:rgb(25.500488%,41.000366%,88.400269%); stroke-width: 2.500000;stroke-linecap: round;stroke-linejoin: round;stroke-miterlimit: 10.000000;fill: none;"></path>
  <path d="M780.267502 1471.721481C780.267502 1443.865204,769.199997 1417.153183,749.504120 1397.457321C729.808258 1377.761444,703.096237 1366.693939,675.239960 1366.693939C647.383682 1366.693939,620.671661 1377.761444,600.975800 1397.457321C581.279922 1417.153183,570.212418 1443.865204,570.212418 1471.721481C570.212418 1499.577759,581.279922 1526.289780,600.975800 1545.985641C620.671661 1565.681519,647.383682 1576.749023,675.239960 1576.749023C703.096237 1576.749023,729.808258 1565.681519,749.504120 1545.985641C769.199997 1526.289780,780.267502 1499.577759,780.267502 1471.721481Z" style="stroke:rgb(25.500488%,41.000366%,88.400269%); stroke-width: 2.500000;stroke-linecap: round;stroke-linejoin: round;stroke-miterlimit: 10.000000;fill: none;"></path>
  <path d="M1144.606934 178.652557C1144.606934 150.796280,1133.539429 124.084259,1113.843552 104.388397C1094.147690 84.692520,1067.435669 73.625015,1039.579391 73.625015C1011.723114 73.625015,985.011093 84.692520,965.315231 104.388397C945.619354 124.084259,934.551849 150.796280,934.551849 178.652557C934.551849 206.508835,945.619354 233.220856,965.315231 252.916718C985.011093 272.612595,1011.723114 283.680099,1039.579391 283.680099C1067.435669 283.680099,1094.147690 272.612595,1113.843552 252.916718C1133.539429 233.220856,1144.606934 206.508835,1144.606934 178.652557Z" style="stroke:rgb(25.500488%,41.000366%,88.400269%); stroke-width: 2.500000;stroke-linecap: round;stroke-linejoin: round;stroke-miterlimit: 10.000000;fill: none;"></path>
  <path d="M1114.256134 360.329178C1114.256134 332.472900,1103.188629 305.760880,1083.492752 286.065018C1063.796890 266.369141,1037.084869 255.301636,1009.228592 255.301636C981.372314 255.301636,954.660294 266.369141,934.964432 286.065018C915.268555 305.760880,904.201050 332.472900,904.201050 360.329178C904.201050 388.185455,915.268555 414.897476,934.964432 434.593338C954.660294 454.289215,981.372314 465.356720,1009.228592 465.356720C1037.084869 465.356720,1063.796890 454.289215,1083.492752 434.593338C1103.188629 414.897476,1114.256134 388.185455,1114.256134 360.329178Z" style="stroke:rgb(25.500488%,41.000366%,88.400269%); stroke-width: 2.500000;stroke-linecap: round;stroke-linejoin: round;stroke-miterlimit: 10.000000;fill: none;"></path>
  <path d="M1102.707520 544.107925C1102.707520 516.251648,1091.640015 489.539627,1071.944138 469.843765C1052.248276 450.147888,1025.536255 439.080383,997.679977 439.080383C969.823700 439.080383,943.111679 450.147888,923.415817 469.843765C903.719940 489.539627,892.652435 516.251648,892.652435 544.107925C892.652435 571.964203,903.719940 598.676224,923.415817 618.372086C943.111679 638.067963,969.823700 649.135468,997.679977 649.135468C1025.536255 649.135468,1052.248276 638.067963,1071.944138 618.372086C1091.640015 598.676224,1102.707520 571.964203,1102.707520 544.107925Z" style="stroke:rgb(25.500488%,41.000366%,88.400269%); stroke-width: 2.500000;stroke-linecap: round;stroke-linejoin: round;stroke-miterlimit: 10.000000;fill: none;"></path>
  <path d="M1077.962326 711.614792C1077.962326 683.758514,1066.894821 657.046494,1047.198944 637.350632C1027.503082 617.654755,1000.791061 606.587250,972.934784 606.587250C945.078506 606.587250,918.366486 617.654755,898.670624 637.350632C878.974747 657.046494,867.907242 683.758514,867.907242 711.614792C867.907242 739.471069,878.974747 766.183090,898.670624 785.878952C918.366486 805.574829,945.078506 816.642334,972.934784 816.642334C1000.791061 816.642334,1027.503082 805.574829,1047.198944 785.878952C1066.894821 766.183090,1077.962326 739.471069,1077.962326 711.614792Z" style="stroke:rgb(25.500488%,41.000366%,88.400269%); stroke-width: 2.500000;stroke-linecap: round;stroke-linejoin: round;stroke-miterlimit: 10.000000;fill: none;"></path>
  <path d="M1034.116501 878.122513C1034.116501 850.266235,1023.048996 823.554214,1003.353119 803.858353C983.657257 784.162476,956.945236 773.094971,929.088959 773.094971C901.232681 773.094971,874.520660 784.162476,854.824799 803.858353C835.128922 823.554214,824.061417 850.266235,824.061417 878.122513C824.061417 905.978790,835.128922 932.690811,854.824799 952.386673C874.520660 972.082550,901.232681 983.150055,929.088959 983.150055C956.945236 983.150055,983.657257 972.082550,1003.353119 952.386673C1023.048996 932.690811,1034.116501 905.978790,1034.116501 878.122513Z" style="stroke:rgb(25.500488%,41.000366%,88.400269%); stroke-width: 2.500000;stroke-linecap: round;stroke-linejoin: round;stroke-miterlimit: 10.000000;fill: none;"></path>
  <path d="M1017.182861 1054.920166C1017.182861 1027.063889,1006.115356 1000.351868,986.419479 980.656006C966.723618 960.960129,940.011597 949.892624,912.155319 949.892624C884.299042 949.892624,857.587021 960.960129,837.891159 980.656006C818.195282 1000.351868,807.127777 1027.063889,807.127777 1054.920166C807.127777 1082.776443,818.195282 1109.488464,837.891159 1129.184326C857.587021 1148.880203,884.299042 1159.947708,912.155319 1159.947708C940.011597 1159.947708,966.723618 1148.880203,986.419479 1129.184326C1006.115356 1109.488464,1017.182861 1082.776443,1017.182861 1054.920166Z" style="stroke:rgb(25.500488%,41.000366%,88.400269%); stroke-width: 2.500000;stroke-linecap: round;stroke-linejoin: round;stroke-miterlimit: 10.000000;fill: none;"></path>
  <path d="M976.152832 1237.193695C976.152832 1209.337418,965.085327 1182.625397,945.389450 1162.929535C925.693588 1143.233658,898.981567 1132.166153,871.125290 1132.166153C843.269012 1132.166153,816.556992 1143.233658,796.861130 1162.929535C777.165253 1182.625397,766.097748 1209.337418,766.097748 1237.193695C766.097748 1265.049973,777.165253 1291.761993,796.861130 1311.457855C816.556992 1331.153732,843.269012 1342.221237,871.125290 1342.221237C898.981567 1342.221237,925.693588 1331.153732,945.389450 1311.457855C965.085327 1291.761993,976.152832 1265.049973,976.152832 1237.193695Z" style="stroke:rgb(25.500488%,41.000366%,88.400269%); stroke-width: 2.500000;stroke-linecap: round;stroke-linejoin: round;stroke-miterlimit: 10.000000;fill: none;"></path>
  <path d="M933.448883 1420.466370C933.448883 1392.610092,922.381378 1365.898071,902.685501 1346.202209C882.989639 1326.506332,856.277618 1315.438828,828.421341 1315.438828C800.565063 1315.438828,773.853043 1326.506332,754.157181 1346.202209C734.461304 1365.898071,723.393799 1392.610092,723.393799 1420.466370C723.393799 1448.322647,734.461304 1475.034668,754.157181 1494.730530C773.853043 1514.426407,800.565063 1525.493912,828.421341 1525.493912C856.277618 1525.493912,882.989639 1514.426407,902.685501 1494.730530C922.381378 1475.034668,933.448883 1448.322647,933.448883 1420.466370Z" style="stroke:rgb(25.500488%,41.000366%,88.400269%); stroke-width: 2.500000;stroke-linecap: round;stroke-linejoin: round;stroke-miterlimit: 10.000000;fill: none;"></path>
  <path d="M901.281448 1612.251297C901.281448 1584.395020,890.213943 1557.682999,870.518066 1537.987137C850.822205 1518.291260,824.110184 1507.223755,796.253906 1507.223755C768.397629 1507.223755,741.685608 1518.291260,721.989746 1537.987137C702.293869 1557.682999,691.226364 1584.395020,691.226364 1612.251297C691.226364 1640.107574,702.293869 1666.819595,721.989746 1686.515457C741.685608 1706.211334,768.397629 1717.278839,796.253906 1717.278839C824.110184 1717.278839,850.822205 1706.211334,870.518066 1686.515457C890.213943 1666.819595,901.281448 1640.107574,901.281448 1612.251297Z" style="stroke:rgb(25.500488%,41.000366%,88.400269%); stroke-width: 2.500000;stroke-linecap: round;stroke-linejoin: round;stroke-miterlimit: 10.000000;fill: none;"></path>
  <path d="M1262.389862 261.945343C1262.389862 234.089066,1251.322357 207.377045,1231.626480 187.681183C1211.930618 167.985306,1185.218597 156.917801,1157.362320 156.917801C1129.506042 156.917801,1102.794022 167.985306,1083.098160 187.681183C1063.402283 207.377045,1052.334778 234.089066,1052.334778 261.945343C1052.334778 289.801620,1063.402283 316.513641,1083.098160 336.209503C1102.794022 355.905380,1129.506042 366.972885,1157.362320 366.972885C1185.218597 366.972885,1211.930618 355.905380,1231.626480 336.209503C1251.322357 316.513641,1262.389862 289.801620,1262.389862 261.945343Z" style="stroke:rgb(25.500488%,41.000366%,88.400269%); stroke-width: 2.500000;stroke-linecap: round;stroke-linejoin: round;stroke-miterlimit: 10.000000;fill: none;"></path>
  <path d="M1257.692566 455.482010C1257.692566 427.625732,1246.625061 400.913712,1226.929184 381.217850C1207.233322 361.521973,1180.521301 350.454468,1152.665024 350.454468C1124.808746 350.454468,1098.096725 361.521973,1078.400864 381.217850C1058.704987 400.913712,1047.637482 427.625732,1047.637482 455.482010C1047.637482 483.338287,1058.704987 510.050308,1078.400864 529.746170C1098.096725 549.442047,1124.808746 560.509552,1152.665024 560.509552C1180.521301 560.509552,1207.233322 549.442047,1226.929184 529.746170C1246.625061 510.050308,1257.692566 483.338287,1257.692566 455.482010Z" style="stroke:rgb(25.500488%,41.000366%,88.400269%); stroke-width: 2.500000;stroke-linecap: round;stroke-linejoin: round;stroke-miterlimit: 10.000000;fill: none;"></path>
  <path d="M1256.784241 640.688110C1256.784241 612.831833,1245.716736 586.119812,1226.020859 566.423950C1206.324997 546.728073,1179.612976 535.660568,1151.756699 535.660568C1123.900421 535.660568,1097.188400 546.728073,1077.492538 566.423950C1057.796661 586.119812,1046.729156 612.831833,1046.729156 640.688110C1046.729156 668.544388,1057.796661 695.256409,1077.492538 714.952271C1097.188400 734.648148,1123.900421 745.715652,1151.756699 745.715652C1179.612976 745.715652,1206.324997 734.648148,1226.020859 714.952271C1245.716736 695.256409,1256.784241 668.544388,1256.784241 640.688110Z" style="stroke:rgb(25.500488%,41.000366%,88.400269%); stroke-width: 2.500000;stroke-linecap: round;stroke-linejoin: round;stroke-miterlimit: 10.000000;fill: none;"></path>
  <path d="M1219.192841 813.930359C1219.192841 786.074081,1208.125336 759.362061,1188.429459 739.666199C1168.733597 719.970322,1142.021576 708.902817,1114.165298 708.902817C1086.309021 708.902817,1059.597000 719.970322,1039.901138 739.666199C1020.205261 759.362061,1009.137756 786.074081,1009.137756 813.930359C1009.137756 841.786636,1020.205261 868.498657,1039.901138 888.194519C1059.597000 907.890396,1086.309021 918.957901,1114.165298 918.957901C1142.021576 918.957901,1168.733597 907.890396,1188.429459 888.194519C1208.125336 868.498657,1219.192841 841.786636,1219.192841 813.930359Z" style="stroke:rgb(25.500488%,41.000366%,88.400269%); stroke-width: 2.500000;stroke-linecap: round;stroke-linejoin: round;stroke-miterlimit: 10.000000;fill: none;"></path>
  <path d="M1186.454453 975.598038C1186.454453 947.741760,1175.386948 921.029739,1155.691071 901.333878C1135.995209 881.638000,1109.283188 870.570496,1081.426910 870.570496C1053.570633 870.570496,1026.858612 881.638000,1007.162750 901.333878C987.466873 921.029739,976.399368 947.741760,976.399368 975.598038C976.399368 1003.454315,987.466873 1030.166336,1007.162750 1049.862198C1026.858612 1069.558075,1053.570633 1080.625580,1081.426910 1080.625580C1109.283188 1080.625580,1135.995209 1069.558075,1155.691071 1049.862198C1175.386948 1030.166336,1186.454453 1003.454315,1186.454453 975.598038Z" style="stroke:rgb(25.500488%,41.000366%,88.400269%); stroke-width: 2.500000;stroke-linecap: round;stroke-linejoin: round;stroke-miterlimit: 10.000000;fill: none;"></path>
  <path d="M1148.045578 1146.309967C1148.045578 1118.453690,1136.978073 1091.741669,1117.282196 1072.045807C1097.586334 1052.349930,1070.874313 1041.282425,1043.018036 1041.282425C1015.161758 1041.282425,988.449738 1052.349930,968.753876 1072.045807C949.057999 1091.741669,937.990494 1118.453690,937.990494 1146.309967C937.990494 1174.166245,949.057999 1200.878265,968.753876 1220.574127C988.449738 1240.270004,1015.161758 1251.337509,1043.018036 1251.337509C1070.874313 1251.337509,1097.586334 1240.270004,1117.282196 1220.574127C1136.978073 1200.878265,1148.045578 1174.166245,1148.045578 1146.309967Z" style="stroke:rgb(25.500488%,41.000366%,88.400269%); stroke-width: 2.500000;stroke-linecap: round;stroke-linejoin: round;stroke-miterlimit: 10.000000;fill: none;"></path>
  <path d="M1104.342484 1325.222717C1104.342484 1297.366440,1093.274979 1270.654419,1073.579102 1250.958557C1053.883240 1231.262680,1027.171219 1220.195175,999.314941 1220.195175C971.458664 1220.195175,944.746643 1231.262680,925.050781 1250.958557C905.354904 1270.654419,894.287399 1297.366440,894.287399 1325.222717C894.287399 1353.078995,905.354904 1379.791016,925.050781 1399.486877C944.746643 1419.182755,971.458664 1430.250259,999.314941 1430.250259C1027.171219 1430.250259,1053.883240 1419.182755,1073.579102 1399.486877C1093.274979 1379.791016,1104.342484 1353.078995,1104.342484 1325.222717Z" style="stroke:rgb(25.500488%,41.000366%,88.400269%); stroke-width: 2.500000;stroke-linecap: round;stroke-linejoin: round;stroke-miterlimit: 10.000000;fill: none;"></path>
  <path d="M1060.613449 1508.703003C1060.613449 1480.846725,1049.545944 1454.134705,1029.850067 1434.438843C1010.154205 1414.742966,983.442184 1403.675461,955.585907 1403.675461C927.729630 1403.675461,901.017609 1414.742966,881.321747 1434.438843C861.625870 1454.134705,850.558365 1480.846725,850.558365 1508.703003C850.558365 1536.559280,861.625870 1563.271301,881.321747 1582.967163C901.017609 1602.663040,927.729630 1613.730545,955.585907 1613.730545C983.442184 1613.730545,1010.154205 1602.663040,1029.850067 1582.967163C1049.545944 1563.271301,1060.613449 1536.559280,1060.613449 1508.703003Z" style="stroke:rgb(25.500488%,41.000366%,88.400269%); stroke-width: 2.500000;stroke-linecap: round;stroke-linejoin: round;stroke-miterlimit: 10.000000;fill: none;"></path>
  <path d="M1387.283630 419.317963C1387.283630 391.461685,1376.216125 364.749664,1356.520248 345.053802C1336.824387 325.357925,1310.112366 314.290421,1282.256088 314.290421C1254.399811 314.290421,1227.687790 325.357925,1207.991928 345.053802C1188.296051 364.749664,1177.228546 391.461685,1177.228546 419.317963C1177.228546 447.174240,1188.296051 473.886261,1207.991928 493.582123C1227.687790 513.278000,1254.399811 524.345505,1282.256088 524.345505C1310.112366 524.345505,1336.824387 513.278000,1356.520248 493.582123C1376.216125 473.886261,1387.283630 447.174240,1387.283630 419.317963Z" style="stroke:rgb(25.500488%,41.000366%,88.400269%); stroke-width: 2.500000;stroke-linecap: round;stroke-linejoin: round;stroke-miterlimit: 10.000000;fill: none;"></path>
  <path d="M1406.384262 581.712296C1406.384262 553.856018,1395.316757 527.143997,1375.620880 507.448135C1355.925018 487.752258,1329.212997 476.684753,1301.356720 476.684753C1273.500443 476.684753,1246.788422 487.752258,1227.092560 507.448135C1207.396683 527.143997,1196.329178 553.856018,1196.329178 581.712296C1196.329178 609.568573,1207.396683 636.280594,1227.092560 655.976456C1246.788422 675.672333,1273.500443 686.739838,1301.356720 686.739838C1329.212997 686.739838,1355.925018 675.672333,1375.620880 655.976456C1395.316757 636.280594,1406.384262 609.568573,1406.384262 581.712296Z" style="stroke:rgb(25.500488%,41.000366%,88.400269%); stroke-width: 2.500000;stroke-linecap: round;stroke-linejoin: round;stroke-miterlimit: 10.000000;fill: none;"></path>
  <path d="M1392.655685 772.653778C1392.655685 744.797501,1381.588181 718.085480,1361.892303 698.389618C1342.196442 678.693741,1315.484421 667.626236,1287.628143 667.626236C1259.771866 667.626236,1233.059845 678.693741,1213.363983 698.389618C1193.668106 718.085480,1182.600601 744.797501,1182.600601 772.653778C1182.600601 800.510056,1193.668106 827.222076,1213.363983 846.917938C1233.059845 866.613815,1259.771866 877.681320,1287.628143 877.681320C1315.484421 877.681320,1342.196442 866.613815,1361.892303 846.917938C1381.588181 827.222076,1392.655685 800.510056,1392.655685 772.653778Z" style="stroke:rgb(25.500488%,41.000366%,88.400269%); stroke-width: 2.500000;stroke-linecap: round;stroke-linejoin: round;stroke-miterlimit: 10.000000;fill: none;"></path>
  <path d="M1369.753082 927.327408C1369.753082 899.471130,1358.685577 872.759109,1338.989700 853.063248C1319.293839 833.367371,1292.581818 822.299866,1264.725540 822.299866C1236.869263 822.299866,1210.157242 833.367371,1190.461380 853.063248C1170.765503 872.759109,1159.697998 899.471130,1159.697998 927.327408C1159.697998 955.183685,1170.765503 981.895706,1190.461380 1001.591568C1210.157242 1021.287445,1236.869263 1032.354950,1264.725540 1032.354950C1292.581818 1032.354950,1319.293839 1021.287445,1338.989700 1001.591568C1358.685577 981.895706,1369.753082 955.183685,1369.753082 927.327408Z" style="stroke:rgb(25.500488%,41.000366%,88.400269%); stroke-width: 2.500000;stroke-linecap: round;stroke-linejoin: round;stroke-miterlimit: 10.000000;fill: none;"></path>
  <path d="M1327.957474 1088.424133C1327.957474 1060.567856,1316.889969 1033.855835,1297.194092 1014.159973C1277.498230 994.464096,1250.786209 983.396591,1222.929932 983.396591C1195.073654 983.396591,1168.361633 994.464096,1148.665771 1014.159973C1128.969894 1033.855835,1117.902390 1060.567856,1117.902390 1088.424133C1117.902390 1116.280411,1128.969894 1142.992432,1148.665771 1162.688293C1168.361633 1182.384171,1195.073654 1193.451675,1222.929932 1193.451675C1250.786209 1193.451675,1277.498230 1182.384171,1297.194092 1162.688293C1316.889969 1142.992432,1327.957474 1116.280411,1327.957474 1088.424133Z" style="stroke:rgb(25.500488%,41.000366%,88.400269%); stroke-width: 2.500000;stroke-linecap: round;stroke-linejoin: round;stroke-miterlimit: 10.000000;fill: none;"></path>
  <path d="M1280.166946 1253.154144C1280.166946 1225.297867,1269.099442 1198.585846,1249.403564 1178.889984C1229.707703 1159.194107,1202.995682 1148.126602,1175.139404 1148.126602C1147.283127 1148.126602,1120.571106 1159.194107,1100.875244 1178.889984C1081.179367 1198.585846,1070.111862 1225.297867,1070.111862 1253.154144C1070.111862 1281.010422,1081.179367 1307.722443,1100.875244 1327.418304C1120.571106 1347.114182,1147.283127 1358.181686,1175.139404 1358.181686C1202.995682 1358.181686,1229.707703 1347.114182,1249.403564 1327.418304C1269.099442 1307.722443,1280.166946 1281.010422,1280.166946 1253.154144Z" style="stroke:rgb(25.500488%,41.000366%,88.400269%); stroke-width: 2.500000;stroke-linecap: round;stroke-linejoin: round;stroke-miterlimit: 10.000000;fill: none;"></path>
  <path d="M1232.350479 1433.079025C1232.350479 1405.222748,1221.282974 1378.510727,1201.587097 1358.814865C1181.891235 1339.118988,1155.179214 1328.051483,1127.322937 1328.051483C1099.466660 1328.051483,1072.754639 1339.118988,1053.058777 1358.814865C1033.362900 1378.510727,1022.295395 1405.222748,1022.295395 1433.079025C1022.295395 1460.935303,1033.362900 1487.647324,1053.058777 1507.343185C1072.754639 1527.039062,1099.466660 1538.106567,1127.322937 1538.106567C1155.179214 1538.106567,1181.891235 1527.039062,1201.587097 1507.343185C1221.282974 1487.647324,1232.350479 1460.935303,1232.350479 1433.079025Z" style="stroke:rgb(25.500488%,41.000366%,88.400269%); stroke-width: 2.500000;stroke-linecap: round;stroke-linejoin: round;stroke-miterlimit: 10.000000;fill: none;"></path>
  <path d="M1565.612457 511.940475C1565.612457 484.084198,1554.544952 457.372177,1534.849075 437.676315C1515.153214 417.980438,1488.441193 406.912933,1460.584915 406.912933C1432.728638 406.912933,1406.016617 417.980438,1386.320755 437.676315C1366.624878 457.372177,1355.557373 484.084198,1355.557373 511.940475C1355.557373 539.796753,1366.624878 566.508774,1386.320755 586.204636C1406.016617 605.900513,1432.728638 616.968018,1460.584915 616.968018C1488.441193 616.968018,1515.153214 605.900513,1534.849075 586.204636C1554.544952 566.508774,1565.612457 539.796753,1565.612457 511.940475Z" style="stroke:rgb(25.500488%,41.000366%,88.400269%); stroke-width: 2.500000;stroke-linecap: round;stroke-linejoin: round;stroke-miterlimit: 10.000000;fill: none;"></path>
  <path d="M1538.959808 701.714127C1538.959808 673.857849,1527.892303 647.145828,1508.196426 627.449966C1488.500565 607.754089,1461.788544 596.686584,1433.932266 596.686584C1406.075989 596.686584,1379.363968 607.754089,1359.668106 627.449966C1339.972229 647.145828,1328.904724 673.857849,1328.904724 701.714127C1328.904724 729.570404,1339.972229 756.282425,1359.668106 775.978287C1379.363968 795.674164,1406.075989 806.741669,1433.932266 806.741669C1461.788544 806.741669,1488.500565 795.674164,1508.196426 775.978287C1527.892303 756.282425,1538.959808 729.570404,1538.959808 701.714127Z" style="stroke:rgb(25.500488%,41.000366%,88.400269%); stroke-width: 2.500000;stroke-linecap: round;stroke-linejoin: round;stroke-miterlimit: 10.000000;fill: none;"></path>
  <path d="M1552.766251 884.636444C1552.766251 856.780167,1541.698746 830.068146,1522.002869 810.372284C1502.307007 790.676407,1475.594986 779.608902,1447.738708 779.608902C1419.882431 779.608902,1393.170410 790.676407,1373.474548 810.372284C1353.778671 830.068146,1342.711166 856.780167,1342.711166 884.636444C1342.711166 912.492722,1353.778671 939.204742,1373.474548 958.900604C1393.170410 978.596481,1419.882431 989.663986,1447.738708 989.663986C1475.594986 989.663986,1502.307007 978.596481,1522.002869 958.900604C1541.698746 939.204742,1552.766251 912.492722,1552.766251 884.636444Z" style="stroke:rgb(25.500488%,41.000366%,88.400269%); stroke-width: 2.500000;stroke-linecap: round;stroke-linejoin: round;stroke-miterlimit: 10.000000;fill: none;"></path>
  <path d="M1513.721527 1045.447708C1513.721527 1017.591431,1502.654022 990.879410,1482.958145 971.183548C1463.262283 951.487671,1436.550262 940.420166,1408.693985 940.420166C1380.837708 940.420166,1354.125687 951.487671,1334.429825 971.183548C1314.733948 990.879410,1303.666443 1017.591431,1303.666443 1045.447708C1303.666443 1073.303986,1314.733948 1100.016006,1334.429825 1119.711868C1354.125687 1139.407745,1380.837708 1150.475250,1408.693985 1150.475250C1436.550262 1150.475250,1463.262283 1139.407745,1482.958145 1119.711868C1502.654022 1100.016006,1513.721527 1073.303986,1513.721527 1045.447708Z" style="stroke:rgb(25.500488%,41.000366%,88.400269%); stroke-width: 2.500000;stroke-linecap: round;stroke-linejoin: round;stroke-miterlimit: 10.000000;fill: none;"></path>
  <path d="M1466.644699 1199.770981C1466.644699 1171.914703,1455.577194 1145.202682,1435.881317 1125.506821C1416.185455 1105.810944,1389.473434 1094.743439,1361.617157 1094.743439C1333.760880 1094.743439,1307.048859 1105.810944,1287.352997 1125.506821C1267.657120 1145.202682,1256.589615 1171.914703,1256.589615 1199.770981C1256.589615 1227.627258,1267.657120 1254.339279,1287.352997 1274.035141C1307.048859 1293.731018,1333.760880 1304.798523,1361.617157 1304.798523C1389.473434 1304.798523,1416.185455 1293.731018,1435.881317 1274.035141C1455.577194 1254.339279,1466.644699 1227.627258,1466.644699 1199.770981Z" style="stroke:rgb(25.500488%,41.000366%,88.400269%); stroke-width: 2.500000;stroke-linecap: round;stroke-linejoin: round;stroke-miterlimit: 10.000000;fill: none;"></path>
  <path d="M1407.993286 1363.865173C1407.993286 1336.008896,1396.925781 1309.296875,1377.229904 1289.601013C1357.534042 1269.905136,1330.822021 1258.837631,1302.965744 1258.837631C1275.109467 1258.837631,1248.397446 1269.905136,1228.701584 1289.601013C1209.005707 1309.296875,1197.938202 1336.008896,1197.938202 1363.865173C1197.938202 1391.721451,1209.005707 1418.433472,1228.701584 1438.129333C1248.397446 1457.825211,1275.109467 1468.892715,1302.965744 1468.892715C1330.822021 1468.892715,1357.534042 1457.825211,1377.229904 1438.129333C1396.925781 1418.433472,1407.993286 1391.721451,1407.993286 1363.865173Z" style="stroke:rgb(25.500488%,41.000366%,88.400269%); stroke-width: 2.500000;stroke-linecap: round;stroke-linejoin: round;stroke-miterlimit: 10.000000;fill: none;"></path>
  <path d="M1701.678543 781.814819C1701.678543 753.958542,1690.611038 727.246521,1670.915161 707.550659C1651.219299 687.854782,1624.507278 676.787277,1596.651001 676.787277C1568.794724 676.787277,1542.082703 687.854782,1522.386841 707.550659C1502.690964 727.246521,1491.623459 753.958542,1491.623459 781.814819C1491.623459 809.671097,1502.690964 836.383118,1522.386841 856.078979C1542.082703 875.774857,1568.794724 886.842361,1596.651001 886.842361C1624.507278 886.842361,1651.219299 875.774857,1670.915161 856.078979C1690.611038 836.383118,1701.678543 809.671097,1701.678543 781.814819Z" style="stroke:rgb(25.500488%,41.000366%,88.400269%); stroke-width: 2.500000;stroke-linecap: round;stroke-linejoin: round;stroke-miterlimit: 10.000000;fill: none;"></path>
  <path d="M1691.180969 1024.971619C1691.180969 997.115341,1680.113464 970.403320,1660.417587 950.707458C1640.721725 931.011581,1614.009705 919.944077,1586.153427 919.944077C1558.297150 919.944077,1531.585129 931.011581,1511.889267 950.707458C1492.193390 970.403320,1481.125885 997.115341,1481.125885 1024.971619C1481.125885 1052.827896,1492.193390 1079.539917,1511.889267 1099.235779C1531.585129 1118.931656,1558.297150 1129.999161,1586.153427 1129.999161C1614.009705 1129.999161,1640.721725 1118.931656,1660.417587 1099.235779C1680.113464 1079.539917,1691.180969 1052.827896,1691.180969 1024.971619Z" style="stroke:rgb(25.500488%,41.000366%,88.400269%); stroke-width: 2.500000;stroke-linecap: round;stroke-linejoin: round;stroke-miterlimit: 10.000000;fill: none;"></path>
  <path d="M1656.950348 1165.514404C1656.950348 1137.658127,1645.882843 1110.946106,1626.186966 1091.250244C1606.491104 1071.554367,1579.779083 1060.486862,1551.922806 1060.486862C1524.066528 1060.486862,1497.354507 1071.554367,1477.658646 1091.250244C1457.962769 1110.946106,1446.895264 1137.658127,1446.895264 1165.514404C1446.895264 1193.370682,1457.962769 1220.082703,1477.658646 1239.778564C1497.354507 1259.474442,1524.066528 1270.541946,1551.922806 1270.541946C1579.779083 1270.541946,1606.491104 1259.474442,1626.186966 1239.778564C1645.882843 1220.082703,1656.950348 1193.370682,1656.950348 1165.514404Z" style="stroke:rgb(25.500488%,41.000366%,88.400269%); stroke-width: 2.500000;stroke-linecap: round;stroke-linejoin: round;stroke-miterlimit: 10.000000;fill: none;"></path>
  <path d="M1595.444229 1322.679428C1595.444229 1294.823151,1584.376724 1268.111130,1564.680847 1248.415268C1544.984985 1228.719391,1518.272964 1217.651886,1490.416687 1217.651886C1462.560410 1217.651886,1435.848389 1228.719391,1416.152527 1248.415268C1396.456650 1268.111130,1385.389145 1294.823151,1385.389145 1322.679428C1385.389145 1350.535706,1396.456650 1377.247726,1416.152527 1396.943588C1435.848389 1416.639465,1462.560410 1427.706970,1490.416687 1427.706970C1518.272964 1427.706970,1544.984985 1416.639465,1564.680847 1396.943588C1584.376724 1377.247726,1595.444229 1350.535706,1595.444229 1322.679428Z" style="stroke:rgb(25.500488%,41.000366%,88.400269%); stroke-width: 2.500000;stroke-linecap: round;stroke-linejoin: round;stroke-miterlimit: 10.000000;fill: none;"></path>
  <path d="M1750.494156 907.110840C1750.494156 879.254562,1739.426651 852.542542,1719.730774 832.846680C1700.034912 813.150803,1673.322891 802.083298,1645.466614 802.083298C1617.610336 802.083298,1590.898315 813.150803,1571.202454 832.846680C1551.506577 852.542542,1540.439072 879.254562,1540.439072 907.110840C1540.439072 934.967117,1551.506577 961.679138,1571.202454 981.375000C1590.898315 1001.070877,1617.610336 1012.138382,1645.466614 1012.138382C1673.322891 1012.138382,1700.034912 1001.070877,1719.730774 981.375000C1739.426651 961.679138,1750.494156 934.967117,1750.494156 907.110840Z" style="stroke:rgb(25.500488%,41.000366%,88.400269%); stroke-width: 2.500000;stroke-linecap: round;stroke-linejoin: round;stroke-miterlimit: 10.000000;fill: none;"></path>
  <path d="M1690.584076 600.216034C1690.584076 572.359756,1679.516571 545.647736,1659.820694 525.951874C1640.124832 506.255997,1613.412811 495.188492,1585.556534 495.188492C1557.700256 495.188492,1530.988235 506.255997,1511.292374 525.951874C1491.596497 545.647736,1480.528992 572.359756,1480.528992 600.216034C1480.528992 628.072311,1491.596497 654.784332,1511.292374 674.480194C1530.988235 694.176071,1557.700256 705.243576,1585.556534 705.243576C1613.412811 705.243576,1640.124832 694.176071,1659.820694 674.480194C1679.516571 654.784332,1690.584076 628.072311,1690.584076 600.216034Z" style="stroke:rgb(25.500488%,41.000366%,88.400269%); stroke-width: 2.500000;stroke-linecap: round;stroke-linejoin: round;stroke-miterlimit: 10.000000;fill: none;"></path>
  <path d="M1181.056458 1617.986664C1181.056458 1590.130386,1169.988953 1563.418365,1150.293076 1543.722504C1130.597214 1524.026627,1103.885193 1512.959122,1076.028915 1512.959122C1048.172638 1512.959122,1021.460617 1524.026627,1001.764755 1543.722504C982.068878 1563.418365,971.001373 1590.130386,971.001373 1617.986664C971.001373 1645.842941,982.068878 1672.554962,1001.764755 1692.250824C1021.460617 1711.946701,1048.172638 1723.014206,1076.028915 1723.014206C1103.885193 1723.014206,1130.597214 1711.946701,1150.293076 1692.250824C1169.988953 1672.554962,1181.056458 1645.842941,1181.056458 1617.986664Z" style="stroke:rgb(25.500488%,41.000366%,88.400269%); stroke-width: 2.500000;stroke-linecap: round;stroke-linejoin: round;stroke-miterlimit: 10.000000;fill: none;"></path>
  <path d="M1007.956940 1692.455795C1007.956940 1664.599518,996.889435 1637.887497,977.193558 1618.191635C957.497696 1598.495758,930.785675 1587.428253,902.929398 1587.428253C875.073120 1587.428253,848.361099 1598.495758,828.665237 1618.191635C808.969360 1637.887497,797.901855 1664.599518,797.901855 1692.455795C797.901855 1720.312073,808.969360 1747.024094,828.665237 1766.719955C848.361099 1786.415833,875.073120 1797.483337,902.929398 1797.483337C930.785675 1797.483337,957.497696 1786.415833,977.193558 1766.719955C996.889435 1747.024094,1007.956940 1720.312073,1007.956940 1692.455795Z" style="stroke:rgb(25.500488%,41.000366%,88.400269%); stroke-width: 2.500000;stroke-linecap: round;stroke-linejoin: round;stroke-miterlimit: 10.000000;fill: none;"></path>
  <path d="M211.270981 1048.224564C211.270981 1020.368286,200.203476 993.656265,180.507599 973.960403C160.811737 954.264526,134.099716 943.197021,106.243439 943.197021C78.387161 943.197021,51.675140 954.264526,31.979279 973.960403C12.283401 993.656265,1.215897 1020.368286,1.215897 1048.224564C1.215897 1076.080841,12.283401 1102.792862,31.979279 1122.488724C51.675140 1142.184601,78.387161 1153.252106,106.243439 1153.252106C134.099716 1153.252106,160.811737 1142.184601,180.507599 1122.488724C200.203476 1102.792862,211.270981 1076.080841,211.270981 1048.224564Z" style="stroke:rgb(25.500488%,41.000366%,88.400269%); stroke-width: 2.500000;stroke-linecap: round;stroke-linejoin: round;stroke-miterlimit: 10.000000;fill: none;"></path>
  <path d="M272.608414 731.455063C272.608414 703.598785,261.540909 676.886765,241.845032 657.190903C222.149170 637.495026,195.437149 626.427521,167.580872 626.427521C139.724594 626.427521,113.012573 637.495026,93.316711 657.190903C73.620834 676.886765,62.553329 703.598785,62.553329 731.455063C62.553329 759.311340,73.620834 786.023361,93.316711 805.719223C113.012573 825.415100,139.724594 836.482605,167.580872 836.482605C195.437149 836.482605,222.149170 825.415100,241.845032 805.719223C261.540909 786.023361,272.608414 759.311340,272.608414 731.455063Z" style="stroke:rgb(25.500488%,41.000366%,88.400269%); stroke-width: 2.500000;stroke-linecap: round;stroke-linejoin: round;stroke-miterlimit: 10.000000;fill: none;"></path>
  <path d="M1574.462082 375.264526C1574.462082 347.408249,1563.394577 320.696228,1543.698700 301.000366C1524.002838 281.304489,1497.290817 270.236984,1469.434540 270.236984C1441.578262 270.236984,1414.866241 281.304489,1395.170380 301.000366C1375.474503 320.696228,1364.406998 347.408249,1364.406998 375.264526C1364.406998 403.120804,1375.474503 429.832825,1395.170380 449.528687C1414.866241 469.224564,1441.578262 480.292068,1469.434540 480.292068C1497.290817 480.292068,1524.002838 469.224564,1543.698700 449.528687C1563.394577 429.832825,1574.462082 403.120804,1574.462082 375.264526Z" style="stroke:rgb(25.500488%,41.000366%,88.400269%); stroke-width: 2.500000;stroke-linecap: round;stroke-linejoin: round;stroke-miterlimit: 10.000000;fill: none;"></path>
  <path d="M1352.598846 1545.204422C1352.598846 1517.348145,1341.531342 1490.636124,1321.835464 1470.940262C1302.139603 1451.244385,1275.427582 1440.176880,1247.571304 1440.176880C1219.715027 1440.176880,1193.003006 1451.244385,1173.307144 1470.940262C1153.611267 1490.636124,1142.543762 1517.348145,1142.543762 1545.204422C1142.543762 1573.060699,1153.611267 1599.772720,1173.307144 1619.468582C1193.003006 1639.164459,1219.715027 1650.231964,1247.571304 1650.231964C1275.427582 1650.231964,1302.139603 1639.164459,1321.835464 1619.468582C1341.531342 1599.772720,1352.598846 1573.060699,1352.598846 1545.204422Z" style="stroke:rgb(25.500488%,41.000366%,88.400269%); stroke-width: 2.500000;stroke-linecap: round;stroke-linejoin: round;stroke-miterlimit: 10.000000;fill: none;"></path>
  <path d="M635.663223 242.131027C635.663223 214.274750,624.595718 187.562729,604.899841 167.866867C585.203979 148.170990,558.491959 137.103485,530.635681 137.103485C502.779404 137.103485,476.067383 148.170990,456.371521 167.866867C436.675644 187.562729,425.608139 214.274750,425.608139 242.131027C425.608139 269.987305,436.675644 296.699326,456.371521 316.395187C476.067383 336.091064,502.779404 347.158569,530.635681 347.158569C558.491959 347.158569,585.203979 336.091064,604.899841 316.395187C624.595718 296.699326,635.663223 269.987305,635.663223 242.131027Z" style="stroke:rgb(25.500488%,41.000366%,88.400269%); stroke-width: 2.500000;stroke-linecap: round;stroke-linejoin: round;stroke-miterlimit: 10.000000;fill: none;"></path>
  <path d="M741.521240 1618.012619C741.521240 1590.156342,730.453735 1563.444321,710.757858 1543.748459C691.061996 1524.052582,664.349976 1512.985077,636.493698 1512.985077C608.637421 1512.985077,581.925400 1524.052582,562.229538 1543.748459C542.533661 1563.444321,531.466156 1590.156342,531.466156 1618.012619C531.466156 1645.868896,542.533661 1672.580917,562.229538 1692.276779C581.925400 1711.972656,608.637421 1723.040161,636.493698 1723.040161C664.349976 1723.040161,691.061996 1711.972656,710.757858 1692.276779C730.453735 1672.580917,741.521240 1645.868896,741.521240 1618.012619Z" style="stroke:rgb(25.500488%,41.000366%,88.400269%); stroke-width: 2.500000;stroke-linecap: round;stroke-linejoin: round;stroke-miterlimit: 10.000000;fill: none;"></path>
  <path d="M326.458710 1331.347382C326.458710 1303.491104,315.391205 1276.779083,295.695328 1257.083221C275.999466 1237.387344,249.287445 1226.319839,221.431168 1226.319839C193.574890 1226.319839,166.862869 1237.387344,147.167007 1257.083221C127.471130 1276.779083,116.403625 1303.491104,116.403625 1331.347382C116.403625 1359.203659,127.471130 1385.915680,147.167007 1405.611542C166.862869 1425.307419,193.574890 1436.374924,221.431168 1436.374924C249.287445 1436.374924,275.999466 1425.307419,295.695328 1405.611542C315.391205 1385.915680,326.458710 1359.203659,326.458710 1331.347382Z" style="stroke:rgb(25.500488%,41.000366%,88.400269%); stroke-width: 2.500000;stroke-linecap: round;stroke-linejoin: round;stroke-miterlimit: 10.000000;fill: none;"></path>
  <path d="M982.368317 105.468048C982.368317 77.611771,971.300812 50.899750,951.604935 31.203888C931.909073 11.508011,905.197052 0.440506,877.340775 0.440506C849.484497 0.440506,822.772476 11.508011,803.076614 31.203888C783.380737 50.899750,772.313232 77.611771,772.313232 105.468048C772.313232 133.324326,783.380737 160.036346,803.076614 179.732208C822.772476 199.428085,849.484497 210.495590,877.340775 210.495590C905.197052 210.495590,931.909073 199.428085,951.604935 179.732208C971.300812 160.036346,982.368317 133.324326,982.368317 105.468048Z" style="stroke:rgb(25.500488%,41.000366%,88.400269%); stroke-width: 2.500000;stroke-linecap: round;stroke-linejoin: round;stroke-miterlimit: 10.000000;fill: none;"></path>
  <path d="M811.604477 175.836761C811.604477 147.980484,800.536972 121.268463,780.841095 101.572601C761.145233 81.876724,734.433212 70.809219,706.576935 70.809219C678.720657 70.809219,652.008636 81.876724,632.312775 101.572601C612.616898 121.268463,601.549393 147.980484,601.549393 175.836761C601.549393 203.693039,612.616898 230.405060,632.312775 250.100922C652.008636 269.796799,678.720657 280.864304,706.576935 280.864304C734.433212 280.864304,761.145233 269.796799,780.841095 250.100922C800.536972 230.405060,811.604477 203.693039,811.604477 175.836761Z" style="stroke:rgb(25.500488%,41.000366%,88.400269%); stroke-width: 2.500000;stroke-linecap: round;stroke-linejoin: round;stroke-miterlimit: 10.000000;fill: none;"></path>
  <path d="M1528.085938 1477.781250C1528.085938 1449.924973,1517.018433 1423.212952,1497.322556 1403.517090C1477.626694 1383.821213,1450.914673 1372.753708,1423.058395 1372.753708C1395.202118 1372.753708,1368.490097 1383.821213,1348.794235 1403.517090C1329.098358 1423.212952,1318.030853 1449.924973,1318.030853 1477.781250C1318.030853 1505.637527,1329.098358 1532.349548,1348.794235 1552.045410C1368.490097 1571.741287,1395.202118 1582.808792,1423.058395 1582.808792C1450.914673 1582.808792,1477.626694 1571.741287,1497.322556 1552.045410C1517.018433 1532.349548,1528.085938 1505.637527,1528.085938 1477.781250Z" style="stroke:rgb(25.500488%,41.000366%,88.400269%); stroke-width: 2.500000;stroke-linecap: round;stroke-linejoin: round;stroke-miterlimit: 10.000000;fill: none;"></path>
  <path d="M312.366806 546.625259C312.366806 518.768982,301.299301 492.056961,281.603424 472.361099C261.907562 452.665222,235.195541 441.597717,207.339264 441.597717C179.482986 441.597717,152.770966 452.665222,133.075104 472.361099C113.379227 492.056961,102.311722 518.768982,102.311722 546.625259C102.311722 574.481537,113.379227 601.193558,133.075104 620.889420C152.770966 640.585297,179.482986 651.652802,207.339264 651.652802C235.195541 651.652802,261.907562 640.585297,281.603424 620.889420C301.299301 601.193558,312.366806 574.481537,312.366806 546.625259Z" style="stroke:rgb(25.500488%,41.000366%,88.400269%); stroke-width: 2.500000;stroke-linecap: round;stroke-linejoin: round;stroke-miterlimit: 10.000000;fill: none;"></path>
  <path d="M1432.842285 258.493729C1432.842285 230.637451,1421.774780 203.925430,1402.078903 184.229568C1382.383041 164.533691,1355.671021 153.466187,1327.814743 153.466187C1299.958466 153.466187,1273.246445 164.533691,1253.550583 184.229568C1233.854706 203.925430,1222.787201 230.637451,1222.787201 258.493729C1222.787201 286.350006,1233.854706 313.062027,1253.550583 332.757889C1273.246445 352.453766,1299.958466 363.521271,1327.814743 363.521271C1355.671021 363.521271,1382.383041 352.453766,1402.078903 332.757889C1421.774780 313.062027,1432.842285 286.350006,1432.842285 258.493729Z" style="stroke:rgb(25.500488%,41.000366%,88.400269%); stroke-width: 2.500000;stroke-linecap: round;stroke-linejoin: round;stroke-miterlimit: 10.000000;fill: none;"></path>
  <path d="M454.207184 310.190018C454.207184 282.333740,443.139679 255.621719,423.443802 235.925858C403.747940 216.229980,377.035919 205.162476,349.179642 205.162476C321.323364 205.162476,294.611343 216.229980,274.915482 235.925858C255.219604 255.621719,244.152100 282.333740,244.152100 310.190018C244.152100 338.046295,255.219604 364.758316,274.915482 384.454178C294.611343 404.150055,321.323364 415.217560,349.179642 415.217560C377.035919 415.217560,403.747940 404.150055,423.443802 384.454178C443.139679 364.758316,454.207184 338.046295,454.207184 310.190018Z" style="stroke:rgb(25.500488%,41.000366%,88.400269%); stroke-width: 2.500000;stroke-linecap: round;stroke-linejoin: round;stroke-miterlimit: 10.000000;fill: none;"></path>
</svg>
