<?xml version="1.0"?>
<!-- Created by MetaPost 2.00 on 2022.03.02:1201 -->
<svg version="1.1" xmlns="http://www.w3.org/2000/svg" xmlns:xlink="http://www.w3.org/1999/xlink" width="1768.452393" height="1773.071838" viewBox="0 0 1768.452393 1773.071838">
<!-- Original BoundingBox: -894.217697 -865.722458 874.234695 907.349380 -->
  <path d="M894.000000 56.606476L347.374054 255.567108L56.530548 759.333405L157.535538 1332.196762L603.143509 1706.112473L1184.856491 1706.112473L1630.464462 1332.196762L1731.469452 759.333405L1440.625946 255.567108L894.000000 56.606476Z" style="fill: rgb(100.000000%,100.000000%,100.000000%);stroke: none;"></path>
  <path d="M894.000000 56.606476L347.374054 255.567108" style="stroke:rgb(0.000000%,0.000000%,0.000000%); stroke-width: 2.500000;stroke-linecap: round;stroke-linejoin: round;stroke-miterlimit: 10.000000;fill: none;"></path>
  <path d="M347.374054 255.567108L56.530548 759.333405" style="stroke:rgb(0.000000%,0.000000%,0.000000%); stroke-width: 2.500000;stroke-linecap: round;stroke-linejoin: round;stroke-miterlimit: 10.000000;fill: none;"></path>
  <path d="M56.530548 759.333405L157.535538 1332.196762" style="stroke:rgb(0.000000%,0.000000%,0.000000%); stroke-width: 2.500000;stroke-linecap: round;stroke-linejoin: round;stroke-miterlimit: 10.000000;fill: none;"></path>
  <path d="M157.535538 1332.196762L603.143509 1706.112473" style="stroke:rgb(0.000000%,0.000000%,0.000000%); stroke-width: 2.500000;stroke-linecap: round;stroke-linejoin: round;stroke-miterlimit: 10.000000;fill: none;"></path>
  <path d="M603.143509 1706.112473L1184.856491 1706.112473" style="stroke:rgb(0.000000%,0.000000%,0.000000%); stroke-width: 2.500000;stroke-linecap: round;stroke-linejoin: round;stroke-miterlimit: 10.000000;fill: none;"></path>
  <path d="M1184.856491 1706.112473L1630.464462 1332.196762" style="stroke:rgb(0.000000%,0.000000%,0.000000%); stroke-width: 2.500000;stroke-linecap: round;stroke-linejoin: round;stroke-miterlimit: 10.000000;fill: none;"></path>
  <path d="M1630.464462 1332.196762L1731.469452 759.333405" style="stroke:rgb(0.000000%,0.000000%,0.000000%); stroke-width: 2.500000;stroke-linecap: round;stroke-linejoin: round;stroke-miterlimit: 10.000000;fill: none;"></path>
  <path d="M1731.469452 759.333405L1440.625946 255.567108" style="stroke:rgb(0.000000%,0.000000%,0.000000%); stroke-width: 2.500000;stroke-linecap: round;stroke-linejoin: round;stroke-miterlimit: 10.000000;fill: none;"></path>
  <path d="M1440.625946 255.567108L894.000000 56.606476" style="stroke:rgb(0.000000%,0.000000%,0.000000%); stroke-width: 2.500000;stroke-linecap: round;stroke-linejoin: round;stroke-miterlimit: 10.000000;fill: none;"></path>
  <path d="M1571.644363 1438.158585C1571.644363 1411.764984,1561.157990 1386.455566,1542.496307 1367.793884C1523.834625 1349.132202,1498.525208 1338.645828,1472.131607 1338.645828C1445.738007 1338.645828,1420.428589 1349.132202,1401.766907 1367.793884C1383.105225 1386.455566,1372.618851 1411.764984,1372.618851 1438.158585C1372.618851 1464.552185,1383.105225 1489.861603,1401.766907 1508.523285C1420.428589 1527.184967,1445.738007 1537.671341,1472.131607 1537.671341C1498.525208 1537.671341,1523.834625 1527.184967,1542.496307 1508.523285C1561.157990 1489.861603,1571.644363 1464.552185,1571.644363 1438.158585Z" style="stroke:rgb(25.500488%,41.000366%,88.400269%); stroke-width: 2.500000;stroke-linecap: round;stroke-linejoin: round;stroke-miterlimit: 10.000000;fill: none;"></path>
  <path d="M1656.416412 1291.880402C1656.416412 1265.486801,1645.930038 1240.177383,1627.268356 1221.515701C1608.606674 1202.854019,1583.297256 1192.367645,1556.903656 1192.367645C1530.510056 1192.367645,1505.200638 1202.854019,1486.538956 1221.515701C1467.877274 1240.177383,1457.390900 1265.486801,1457.390900 1291.880402C1457.390900 1318.274002,1467.877274 1343.583420,1486.538956 1362.245102C1505.200638 1380.906784,1530.510056 1391.393158,1556.903656 1391.393158C1583.297256 1391.393158,1608.606674 1380.906784,1627.268356 1362.245102C1645.930038 1343.583420,1656.416412 1318.274002,1656.416412 1291.880402Z" style="stroke:rgb(25.500488%,41.000366%,88.400269%); stroke-width: 2.500000;stroke-linecap: round;stroke-linejoin: round;stroke-miterlimit: 10.000000;fill: none;"></path>
  <path d="M1699.042496 1158.396545C1699.042496 1132.002945,1688.556122 1106.693527,1669.894440 1088.031845C1651.232758 1069.370163,1625.923340 1058.883789,1599.529739 1058.883789C1573.136139 1058.883789,1547.826721 1069.370163,1529.165039 1088.031845C1510.503357 1106.693527,1500.016983 1132.002945,1500.016983 1158.396545C1500.016983 1184.790146,1510.503357 1210.099564,1529.165039 1228.761246C1547.826721 1247.422928,1573.136139 1257.909302,1599.529739 1257.909302C1625.923340 1257.909302,1651.232758 1247.422928,1669.894440 1228.761246C1688.556122 1210.099564,1699.042496 1184.790146,1699.042496 1158.396545Z" style="stroke:rgb(25.500488%,41.000366%,88.400269%); stroke-width: 2.500000;stroke-linecap: round;stroke-linejoin: round;stroke-miterlimit: 10.000000;fill: none;"></path>
  <path d="M1725.669189 1003.385544C1725.669189 976.991943,1715.182816 951.682526,1696.521133 933.020844C1677.859451 914.359161,1652.550034 903.872787,1626.156433 903.872787C1599.762833 903.872787,1574.453415 914.359161,1555.791733 933.020844C1537.130051 951.682526,1526.643677 976.991943,1526.643677 1003.385544C1526.643677 1029.779144,1537.130051 1055.088562,1555.791733 1073.750244C1574.453415 1092.411926,1599.762833 1102.898300,1626.156433 1102.898300C1652.550034 1102.898300,1677.859451 1092.411926,1696.521133 1073.750244C1715.182816 1055.088562,1725.669189 1029.779144,1725.669189 1003.385544Z" style="stroke:rgb(25.500488%,41.000366%,88.400269%); stroke-width: 2.500000;stroke-linecap: round;stroke-linejoin: round;stroke-miterlimit: 10.000000;fill: none;"></path>
  <path d="M1748.169540 851.709366C1748.169540 825.315765,1737.683167 800.006348,1719.021484 781.344666C1700.359802 762.682983,1675.050385 752.196609,1648.656784 752.196609C1622.263184 752.196609,1596.953766 762.682983,1578.292084 781.344666C1559.630402 800.006348,1549.144028 825.315765,1549.144028 851.709366C1549.144028 878.102966,1559.630402 903.412384,1578.292084 922.074066C1596.953766 940.735748,1622.263184 951.222122,1648.656784 951.222122C1675.050385 951.222122,1700.359802 940.735748,1719.021484 922.074066C1737.683167 903.412384,1748.169540 878.102966,1748.169540 851.709366Z" style="stroke:rgb(25.500488%,41.000366%,88.400269%); stroke-width: 2.500000;stroke-linecap: round;stroke-linejoin: round;stroke-miterlimit: 10.000000;fill: none;"></path>
  <path d="M1766.984695 708.960663C1766.984695 682.567062,1756.498322 657.257645,1737.836639 638.595963C1719.174957 619.934280,1693.865540 609.447906,1667.471939 609.447906C1641.078339 609.447906,1615.768921 619.934280,1597.107239 638.595963C1578.445557 657.257645,1567.959183 682.567062,1567.959183 708.960663C1567.959183 735.354263,1578.445557 760.663681,1597.107239 779.325363C1615.768921 797.987045,1641.078339 808.473419,1667.471939 808.473419C1693.865540 808.473419,1719.174957 797.987045,1737.836639 779.325363C1756.498322 760.663681,1766.984695 735.354263,1766.984695 708.960663Z" style="stroke:rgb(25.500488%,41.000366%,88.400269%); stroke-width: 2.500000;stroke-linecap: round;stroke-linejoin: round;stroke-miterlimit: 10.000000;fill: none;"></path>
  <path d="M1343.461838 1612.815201C1343.461838 1586.421600,1332.975464 1561.112183,1314.313782 1542.450500C1295.652100 1523.788818,1270.342682 1513.302444,1243.949081 1513.302444C1217.555481 1513.302444,1192.246063 1523.788818,1173.584381 1542.450500C1154.922699 1561.112183,1144.436325 1586.421600,1144.436325 1612.815201C1144.436325 1639.208801,1154.922699 1664.518219,1173.584381 1683.179901C1192.246063 1701.841583,1217.555481 1712.327957,1243.949081 1712.327957C1270.342682 1712.327957,1295.652100 1701.841583,1314.313782 1683.179901C1332.975464 1664.518219,1343.461838 1639.208801,1343.461838 1612.815201Z" style="stroke:rgb(25.500488%,41.000366%,88.400269%); stroke-width: 2.500000;stroke-linecap: round;stroke-linejoin: round;stroke-miterlimit: 10.000000;fill: none;"></path>
  <path d="M1417.295135 1481.096085C1417.295135 1454.702484,1406.808762 1429.393066,1388.147079 1410.731384C1369.485397 1392.069702,1344.175980 1381.583328,1317.782379 1381.583328C1291.388779 1381.583328,1266.079361 1392.069702,1247.417679 1410.731384C1228.755997 1429.393066,1218.269623 1454.702484,1218.269623 1481.096085C1218.269623 1507.489685,1228.755997 1532.799103,1247.417679 1551.460785C1266.079361 1570.122467,1291.388779 1580.608841,1317.782379 1580.608841C1344.175980 1580.608841,1369.485397 1570.122467,1388.147079 1551.460785C1406.808762 1532.799103,1417.295135 1507.489685,1417.295135 1481.096085Z" style="stroke:rgb(25.500488%,41.000366%,88.400269%); stroke-width: 2.500000;stroke-linecap: round;stroke-linejoin: round;stroke-miterlimit: 10.000000;fill: none;"></path>
  <path d="M1471.794235 1315.587509C1471.794235 1289.193909,1461.307861 1263.884491,1442.646179 1245.222809C1423.984497 1226.561127,1398.675079 1216.074753,1372.281479 1216.074753C1345.887878 1216.074753,1320.578461 1226.561127,1301.916779 1245.222809C1283.255096 1263.884491,1272.768723 1289.193909,1272.768723 1315.587509C1272.768723 1341.981110,1283.255096 1367.290527,1301.916779 1385.952209C1320.578461 1404.613892,1345.887878 1415.100266,1372.281479 1415.100266C1398.675079 1415.100266,1423.984497 1404.613892,1442.646179 1385.952209C1461.307861 1367.290527,1471.794235 1341.981110,1471.794235 1315.587509Z" style="stroke:rgb(25.500488%,41.000366%,88.400269%); stroke-width: 2.500000;stroke-linecap: round;stroke-linejoin: round;stroke-miterlimit: 10.000000;fill: none;"></path>
  <path d="M1519.662613 1177.639923C1519.662613 1151.246323,1509.176239 1125.936905,1490.514557 1107.275223C1471.852875 1088.613541,1446.543457 1078.127167,1420.149857 1078.127167C1393.756256 1078.127167,1368.446838 1088.613541,1349.785156 1107.275223C1331.123474 1125.936905,1320.637100 1151.246323,1320.637100 1177.639923C1320.637100 1204.033524,1331.123474 1229.342941,1349.785156 1248.004623C1368.446838 1266.666306,1393.756256 1277.152679,1420.149857 1277.152679C1446.543457 1277.152679,1471.852875 1266.666306,1490.514557 1248.004623C1509.176239 1229.342941,1519.662613 1204.033524,1519.662613 1177.639923Z" style="stroke:rgb(25.500488%,41.000366%,88.400269%); stroke-width: 2.500000;stroke-linecap: round;stroke-linejoin: round;stroke-miterlimit: 10.000000;fill: none;"></path>
  <path d="M1558.084473 1038.381744C1558.084473 1011.988144,1547.598099 986.678726,1528.936417 968.017044C1510.274734 949.355362,1484.965317 938.868988,1458.571716 938.868988C1432.178116 938.868988,1406.868698 949.355362,1388.207016 968.017044C1369.545334 986.678726,1359.058960 1011.988144,1359.058960 1038.381744C1359.058960 1064.775345,1369.545334 1090.084763,1388.207016 1108.746445C1406.868698 1127.408127,1432.178116 1137.894501,1458.571716 1137.894501C1484.965317 1137.894501,1510.274734 1127.408127,1528.936417 1108.746445C1547.598099 1090.084763,1558.084473 1064.775345,1558.084473 1038.381744Z" style="stroke:rgb(25.500488%,41.000366%,88.400269%); stroke-width: 2.500000;stroke-linecap: round;stroke-linejoin: round;stroke-miterlimit: 10.000000;fill: none;"></path>
  <path d="M1587.124710 882.112076C1587.124710 855.718475,1576.638336 830.409058,1557.976654 811.747375C1539.314972 793.085693,1514.005554 782.599319,1487.611954 782.599319C1461.218353 782.599319,1435.908936 793.085693,1417.247253 811.747375C1398.585571 830.409058,1388.099197 855.718475,1388.099197 882.112076C1388.099197 908.505676,1398.585571 933.815094,1417.247253 952.476776C1435.908936 971.138458,1461.218353 981.624832,1487.611954 981.624832C1514.005554 981.624832,1539.314972 971.138458,1557.976654 952.476776C1576.638336 933.815094,1587.124710 908.505676,1587.124710 882.112076Z" style="stroke:rgb(25.500488%,41.000366%,88.400269%); stroke-width: 2.500000;stroke-linecap: round;stroke-linejoin: round;stroke-miterlimit: 10.000000;fill: none;"></path>
  <path d="M1616.190887 720.729874C1616.190887 694.336273,1605.704514 669.026855,1587.042831 650.365173C1568.381149 631.703491,1543.071732 621.217117,1516.678131 621.217117C1490.284531 621.217117,1464.975113 631.703491,1446.313431 650.365173C1427.651749 669.026855,1417.165375 694.336273,1417.165375 720.729874C1417.165375 747.123474,1427.651749 772.432892,1446.313431 791.094574C1464.975113 809.756256,1490.284531 820.242630,1516.678131 820.242630C1543.071732 820.242630,1568.381149 809.756256,1587.042831 791.094574C1605.704514 772.432892,1616.190887 747.123474,1616.190887 720.729874Z" style="stroke:rgb(25.500488%,41.000366%,88.400269%); stroke-width: 2.500000;stroke-linecap: round;stroke-linejoin: round;stroke-miterlimit: 10.000000;fill: none;"></path>
  <path d="M1665.343887 553.132172C1665.343887 526.738571,1654.857513 501.429153,1636.195831 482.767471C1617.534149 464.105789,1592.224731 453.619415,1565.831131 453.619415C1539.437531 453.619415,1514.128113 464.105789,1495.466431 482.767471C1476.804749 501.429153,1466.318375 526.738571,1466.318375 553.132172C1466.318375 579.525772,1476.804749 604.835190,1495.466431 623.496872C1514.128113 642.158554,1539.437531 652.644928,1565.831131 652.644928C1592.224731 652.644928,1617.534149 642.158554,1636.195831 623.496872C1654.857513 604.835190,1665.343887 579.525772,1665.343887 553.132172Z" style="stroke:rgb(25.500488%,41.000366%,88.400269%); stroke-width: 2.500000;stroke-linecap: round;stroke-linejoin: round;stroke-miterlimit: 10.000000;fill: none;"></path>
  <path d="M1198.299606 1669.961395C1198.299606 1643.567795,1187.813232 1618.258377,1169.151550 1599.596695C1150.489868 1580.935013,1125.180450 1570.448639,1098.786850 1570.448639C1072.393250 1570.448639,1047.083832 1580.935013,1028.422150 1599.596695C1009.760468 1618.258377,999.274094 1643.567795,999.274094 1669.961395C999.274094 1696.354996,1009.760468 1721.664413,1028.422150 1740.326096C1047.083832 1758.987778,1072.393250 1769.474152,1098.786850 1769.474152C1125.180450 1769.474152,1150.489868 1758.987778,1169.151550 1740.326096C1187.813232 1721.664413,1198.299606 1696.354996,1198.299606 1669.961395Z" style="stroke:rgb(25.500488%,41.000366%,88.400269%); stroke-width: 2.500000;stroke-linecap: round;stroke-linejoin: round;stroke-miterlimit: 10.000000;fill: none;"></path>
  <path d="M1225.069031 1509.461563C1225.069031 1483.067963,1214.582657 1457.758545,1195.920975 1439.096863C1177.259293 1420.435181,1151.949875 1409.948807,1125.556274 1409.948807C1099.162674 1409.948807,1073.853256 1420.435181,1055.191574 1439.096863C1036.529892 1457.758545,1026.043518 1483.067963,1026.043518 1509.461563C1026.043518 1535.855164,1036.529892 1561.164581,1055.191574 1579.826263C1073.853256 1598.487946,1099.162674 1608.974319,1125.556274 1608.974319C1151.949875 1608.974319,1177.259293 1598.487946,1195.920975 1579.826263C1214.582657 1561.164581,1225.069031 1535.855164,1225.069031 1509.461563Z" style="stroke:rgb(25.500488%,41.000366%,88.400269%); stroke-width: 2.500000;stroke-linecap: round;stroke-linejoin: round;stroke-miterlimit: 10.000000;fill: none;"></path>
  <path d="M1299.603043 1376.172348C1299.603043 1349.778748,1289.116669 1324.469330,1270.454987 1305.807648C1251.793304 1287.145966,1226.483887 1276.659592,1200.090286 1276.659592C1173.696686 1276.659592,1148.387268 1287.145966,1129.725586 1305.807648C1111.063904 1324.469330,1100.577530 1349.778748,1100.577530 1376.172348C1100.577530 1402.565948,1111.063904 1427.875366,1129.725586 1446.537048C1148.387268 1465.198730,1173.696686 1475.685104,1200.090286 1475.685104C1226.483887 1475.685104,1251.793304 1465.198730,1270.454987 1446.537048C1289.116669 1427.875366,1299.603043 1402.565948,1299.603043 1376.172348Z" style="stroke:rgb(25.500488%,41.000366%,88.400269%); stroke-width: 2.500000;stroke-linecap: round;stroke-linejoin: round;stroke-miterlimit: 10.000000;fill: none;"></path>
  <path d="M1340.023209 1214.400864C1340.023209 1188.007263,1329.536835 1162.697845,1310.875153 1144.036163C1292.213470 1125.374481,1266.904053 1114.888107,1240.510452 1114.888107C1214.116852 1114.888107,1188.807434 1125.374481,1170.145752 1144.036163C1151.484070 1162.697845,1140.997696 1188.007263,1140.997696 1214.400864C1140.997696 1240.794464,1151.484070 1266.103882,1170.145752 1284.765564C1188.807434 1303.427246,1214.116852 1313.913620,1240.510452 1313.913620C1266.904053 1313.913620,1292.213470 1303.427246,1310.875153 1284.765564C1329.536835 1266.103882,1340.023209 1240.794464,1340.023209 1214.400864Z" style="stroke:rgb(25.500488%,41.000366%,88.400269%); stroke-width: 2.500000;stroke-linecap: round;stroke-linejoin: round;stroke-miterlimit: 10.000000;fill: none;"></path>
  <path d="M1385.374237 1065.592377C1385.374237 1039.198776,1374.887863 1013.889359,1356.226181 995.227676C1337.564499 976.565994,1312.255081 966.079620,1285.861481 966.079620C1259.467880 966.079620,1234.158463 976.565994,1215.496780 995.227676C1196.835098 1013.889359,1186.348724 1039.198776,1186.348724 1065.592377C1186.348724 1091.985977,1196.835098 1117.295395,1215.496780 1135.957077C1234.158463 1154.618759,1259.467880 1165.105133,1285.861481 1165.105133C1312.255081 1165.105133,1337.564499 1154.618759,1356.226181 1135.957077C1374.887863 1117.295395,1385.374237 1091.985977,1385.374237 1065.592377Z" style="stroke:rgb(25.500488%,41.000366%,88.400269%); stroke-width: 2.500000;stroke-linecap: round;stroke-linejoin: round;stroke-miterlimit: 10.000000;fill: none;"></path>
  <path d="M1426.676773 912.878113C1426.676773 886.484512,1416.190399 861.175095,1397.528717 842.513412C1378.867035 823.851730,1353.557617 813.365356,1327.164017 813.365356C1300.770416 813.365356,1275.460999 823.851730,1256.799316 842.513412C1238.137634 861.175095,1227.651260 886.484512,1227.651260 912.878113C1227.651260 939.271713,1238.137634 964.581131,1256.799316 983.242813C1275.460999 1001.904495,1300.770416 1012.390869,1327.164017 1012.390869C1353.557617 1012.390869,1378.867035 1001.904495,1397.528717 983.242813C1416.190399 964.581131,1426.676773 939.271713,1426.676773 912.878113Z" style="stroke:rgb(25.500488%,41.000366%,88.400269%); stroke-width: 2.500000;stroke-linecap: round;stroke-linejoin: round;stroke-miterlimit: 10.000000;fill: none;"></path>
  <path d="M1460.907394 748.615250C1460.907394 722.221649,1450.421021 696.912231,1431.759338 678.250549C1413.097656 659.588867,1387.788239 649.102493,1361.394638 649.102493C1335.001038 649.102493,1309.691620 659.588867,1291.029938 678.250549C1272.368256 696.912231,1261.881882 722.221649,1261.881882 748.615250C1261.881882 775.008850,1272.368256 800.318268,1291.029938 818.979950C1309.691620 837.641632,1335.001038 848.128006,1361.394638 848.128006C1387.788239 848.128006,1413.097656 837.641632,1431.759338 818.979950C1450.421021 800.318268,1460.907394 775.008850,1460.907394 748.615250Z" style="stroke:rgb(25.500488%,41.000366%,88.400269%); stroke-width: 2.500000;stroke-linecap: round;stroke-linejoin: round;stroke-miterlimit: 10.000000;fill: none;"></path>
  <path d="M1506.608780 577.734619C1506.608780 551.341019,1496.122406 526.031601,1477.460724 507.369919C1458.799042 488.708237,1433.489624 478.221863,1407.096024 478.221863C1380.702423 478.221863,1355.393005 488.708237,1336.731323 507.369919C1318.069641 526.031601,1307.583267 551.341019,1307.583267 577.734619C1307.583267 604.128220,1318.069641 629.437637,1336.731323 648.099319C1355.393005 666.761002,1380.702423 677.247375,1407.096024 677.247375C1433.489624 677.247375,1458.799042 666.761002,1477.460724 648.099319C1496.122406 629.437637,1506.608780 604.128220,1506.608780 577.734619Z" style="stroke:rgb(25.500488%,41.000366%,88.400269%); stroke-width: 2.500000;stroke-linecap: round;stroke-linejoin: round;stroke-miterlimit: 10.000000;fill: none;"></path>
  <path d="M1565.779221 409.682770C1565.779221 383.289169,1555.292847 357.979752,1536.631165 339.318069C1517.969482 320.656387,1492.660065 310.170013,1466.266464 310.170013C1439.872864 310.170013,1414.563446 320.656387,1395.901764 339.318069C1377.240082 357.979752,1366.753708 383.289169,1366.753708 409.682770C1366.753708 436.076370,1377.240082 461.385788,1395.901764 480.047470C1414.563446 498.709152,1439.872864 509.195526,1466.266464 509.195526C1492.660065 509.195526,1517.969482 498.709152,1536.631165 480.047470C1555.292847 461.385788,1565.779221 436.076370,1565.779221 409.682770Z" style="stroke:rgb(25.500488%,41.000366%,88.400269%); stroke-width: 2.500000;stroke-linecap: round;stroke-linejoin: round;stroke-miterlimit: 10.000000;fill: none;"></path>
  <path d="M1063.310532 1616.876694C1063.310532 1590.483093,1052.824158 1565.173676,1034.162476 1546.511993C1015.500793 1527.850311,990.191376 1517.363937,963.797775 1517.363937C937.404175 1517.363937,912.094757 1527.850311,893.433075 1546.511993C874.771393 1565.173676,864.285019 1590.483093,864.285019 1616.876694C864.285019 1643.270294,874.771393 1668.579712,893.433075 1687.241394C912.094757 1705.903076,937.404175 1716.389450,963.797775 1716.389450C990.191376 1716.389450,1015.500793 1705.903076,1034.162476 1687.241394C1052.824158 1668.579712,1063.310532 1643.270294,1063.310532 1616.876694Z" style="stroke:rgb(25.500488%,41.000366%,88.400269%); stroke-width: 2.500000;stroke-linecap: round;stroke-linejoin: round;stroke-miterlimit: 10.000000;fill: none;"></path>
  <path d="M1129.604782 1445.464050C1129.604782 1419.070450,1119.118408 1393.761032,1100.456726 1375.099350C1081.795044 1356.437668,1056.485626 1345.951294,1030.092026 1345.951294C1003.698425 1345.951294,978.389008 1356.437668,959.727325 1375.099350C941.065643 1393.761032,930.579269 1419.070450,930.579269 1445.464050C930.579269 1471.857651,941.065643 1497.167068,959.727325 1515.828751C978.389008 1534.490433,1003.698425 1544.976807,1030.092026 1544.976807C1056.485626 1544.976807,1081.795044 1534.490433,1100.456726 1515.828751C1119.118408 1497.167068,1129.604782 1471.857651,1129.604782 1445.464050Z" style="stroke:rgb(25.500488%,41.000366%,88.400269%); stroke-width: 2.500000;stroke-linecap: round;stroke-linejoin: round;stroke-miterlimit: 10.000000;fill: none;"></path>
  <path d="M1172.723953 1279.514297C1172.723953 1253.120697,1162.237579 1227.811279,1143.575897 1209.149597C1124.914215 1190.487915,1099.604797 1180.001541,1073.211197 1180.001541C1046.817596 1180.001541,1021.508179 1190.487915,1002.846497 1209.149597C984.184814 1227.811279,973.698441 1253.120697,973.698441 1279.514297C973.698441 1305.907898,984.184814 1331.217316,1002.846497 1349.878998C1021.508179 1368.540680,1046.817596 1379.027054,1073.211197 1379.027054C1099.604797 1379.027054,1124.914215 1368.540680,1143.575897 1349.878998C1162.237579 1331.217316,1172.723953 1305.907898,1172.723953 1279.514297Z" style="stroke:rgb(25.500488%,41.000366%,88.400269%); stroke-width: 2.500000;stroke-linecap: round;stroke-linejoin: round;stroke-miterlimit: 10.000000;fill: none;"></path>
  <path d="M1212.067108 1111.618149C1212.067108 1085.224548,1201.580734 1059.915131,1182.919052 1041.253448C1164.257370 1022.591766,1138.947952 1012.105392,1112.554352 1012.105392C1086.160751 1012.105392,1060.851334 1022.591766,1042.189651 1041.253448C1023.527969 1059.915131,1013.041595 1085.224548,1013.041595 1111.618149C1013.041595 1138.011749,1023.527969 1163.321167,1042.189651 1181.982849C1060.851334 1200.644531,1086.160751 1211.130905,1112.554352 1211.130905C1138.947952 1211.130905,1164.257370 1200.644531,1182.919052 1181.982849C1201.580734 1163.321167,1212.067108 1138.011749,1212.067108 1111.618149Z" style="stroke:rgb(25.500488%,41.000366%,88.400269%); stroke-width: 2.500000;stroke-linecap: round;stroke-linejoin: round;stroke-miterlimit: 10.000000;fill: none;"></path>
  <path d="M1259.740845 951.325928C1259.740845 924.932327,1249.254471 899.622910,1230.592789 880.961227C1211.931107 862.299545,1186.621689 851.813171,1160.228088 851.813171C1133.834488 851.813171,1108.525070 862.299545,1089.863388 880.961227C1071.201706 899.622910,1060.715332 924.932327,1060.715332 951.325928C1060.715332 977.719528,1071.201706 1003.028946,1089.863388 1021.690628C1108.525070 1040.352310,1133.834488 1050.838684,1160.228088 1050.838684C1186.621689 1050.838684,1211.931107 1040.352310,1230.592789 1021.690628C1249.254471 1003.028946,1259.740845 977.719528,1259.740845 951.325928Z" style="stroke:rgb(25.500488%,41.000366%,88.400269%); stroke-width: 2.500000;stroke-linecap: round;stroke-linejoin: round;stroke-miterlimit: 10.000000;fill: none;"></path>
  <path d="M1296.553680 789.684204C1296.553680 763.290604,1286.067307 737.981186,1267.405624 719.319504C1248.743942 700.657822,1223.434525 690.171448,1197.040924 690.171448C1170.647324 690.171448,1145.337906 700.657822,1126.676224 719.319504C1108.014542 737.981186,1097.528168 763.290604,1097.528168 789.684204C1097.528168 816.077805,1108.014542 841.387222,1126.676224 860.048904C1145.337906 878.710587,1170.647324 889.196960,1197.040924 889.196960C1223.434525 889.196960,1248.743942 878.710587,1267.405624 860.048904C1286.067307 841.387222,1296.553680 816.077805,1296.553680 789.684204Z" style="stroke:rgb(25.500488%,41.000366%,88.400269%); stroke-width: 2.500000;stroke-linecap: round;stroke-linejoin: round;stroke-miterlimit: 10.000000;fill: none;"></path>
  <path d="M1344.850266 621.230087C1344.850266 594.836487,1334.363892 569.527069,1315.702209 550.865387C1297.040527 532.203705,1271.731110 521.717331,1245.337509 521.717331C1218.943909 521.717331,1193.634491 532.203705,1174.972809 550.865387C1156.311127 569.527069,1145.824753 594.836487,1145.824753 621.230087C1145.824753 647.623688,1156.311127 672.933105,1174.972809 691.594788C1193.634491 710.256470,1218.943909 720.742844,1245.337509 720.742844C1271.731110 720.742844,1297.040527 710.256470,1315.702209 691.594788C1334.363892 672.933105,1344.850266 647.623688,1344.850266 621.230087Z" style="stroke:rgb(25.500488%,41.000366%,88.400269%); stroke-width: 2.500000;stroke-linecap: round;stroke-linejoin: round;stroke-miterlimit: 10.000000;fill: none;"></path>
  <path d="M1399.375320 449.220566C1399.375320 422.826965,1388.888947 397.517548,1370.227264 378.855865C1351.565582 360.194183,1326.256165 349.707809,1299.862564 349.707809C1273.468964 349.707809,1248.159546 360.194183,1229.497864 378.855865C1210.836182 397.517548,1200.349808 422.826965,1200.349808 449.220566C1200.349808 475.614166,1210.836182 500.923584,1229.497864 519.585266C1248.159546 538.246948,1273.468964 548.733322,1299.862564 548.733322C1326.256165 548.733322,1351.565582 538.246948,1370.227264 519.585266C1388.888947 500.923584,1399.375320 475.614166,1399.375320 449.220566Z" style="stroke:rgb(25.500488%,41.000366%,88.400269%); stroke-width: 2.500000;stroke-linecap: round;stroke-linejoin: round;stroke-miterlimit: 10.000000;fill: none;"></path>
  <path d="M1472.248398 309.300613C1472.248398 282.907013,1461.762024 257.597595,1443.100342 238.935913C1424.438660 220.274231,1399.129242 209.787857,1372.735641 209.787857C1346.342041 209.787857,1321.032623 220.274231,1302.370941 238.935913C1283.709259 257.597595,1273.222885 282.907013,1273.222885 309.300613C1273.222885 335.694214,1283.709259 361.003632,1302.370941 379.665314C1321.032623 398.326996,1346.342041 408.813370,1372.735641 408.813370C1399.129242 408.813370,1424.438660 398.326996,1443.100342 379.665314C1461.762024 361.003632,1472.248398 335.694214,1472.248398 309.300613Z" style="stroke:rgb(25.500488%,41.000366%,88.400269%); stroke-width: 2.500000;stroke-linecap: round;stroke-linejoin: round;stroke-miterlimit: 10.000000;fill: none;"></path>
  <path d="M935.393356 1652.469788C935.393356 1626.076187,924.906982 1600.766769,906.245300 1582.105087C887.583618 1563.443405,862.274200 1552.957031,835.880600 1552.957031C809.487000 1552.957031,784.177582 1563.443405,765.515900 1582.105087C746.854218 1600.766769,736.367844 1626.076187,736.367844 1652.469788C736.367844 1678.863388,746.854218 1704.172806,765.515900 1722.834488C784.177582 1741.496170,809.487000 1751.982544,835.880600 1751.982544C862.274200 1751.982544,887.583618 1741.496170,906.245300 1722.834488C924.906982 1704.172806,935.393356 1678.863388,935.393356 1652.469788Z" style="stroke:rgb(25.500488%,41.000366%,88.400269%); stroke-width: 2.500000;stroke-linecap: round;stroke-linejoin: round;stroke-miterlimit: 10.000000;fill: none;"></path>
  <path d="M966.392975 1485.988022C966.392975 1459.594421,955.906601 1434.285004,937.244919 1415.623322C918.583237 1396.961639,893.273819 1386.475266,866.880219 1386.475266C840.486618 1386.475266,815.177200 1396.961639,796.515518 1415.623322C777.853836 1434.285004,767.367462 1459.594421,767.367462 1485.988022C767.367462 1512.381622,777.853836 1537.691040,796.515518 1556.352722C815.177200 1575.014404,840.486618 1585.500778,866.880219 1585.500778C893.273819 1585.500778,918.583237 1575.014404,937.244919 1556.352722C955.906601 1537.691040,966.392975 1512.381622,966.392975 1485.988022Z" style="stroke:rgb(25.500488%,41.000366%,88.400269%); stroke-width: 2.500000;stroke-linecap: round;stroke-linejoin: round;stroke-miterlimit: 10.000000;fill: none;"></path>
  <path d="M1007.202408 1320.284821C1007.202408 1293.891220,996.716034 1268.581802,978.054352 1249.920120C959.392670 1231.258438,934.083252 1220.772064,907.689651 1220.772064C881.296051 1220.772064,855.986633 1231.258438,837.324951 1249.920120C818.663269 1268.581802,808.176895 1293.891220,808.176895 1320.284821C808.176895 1346.678421,818.663269 1371.987839,837.324951 1390.649521C855.986633 1409.311203,881.296051 1419.797577,907.689651 1419.797577C934.083252 1419.797577,959.392670 1409.311203,978.054352 1390.649521C996.716034 1371.987839,1007.202408 1346.678421,1007.202408 1320.284821Z" style="stroke:rgb(25.500488%,41.000366%,88.400269%); stroke-width: 2.500000;stroke-linecap: round;stroke-linejoin: round;stroke-miterlimit: 10.000000;fill: none;"></path>
  <path d="M1048.972076 1154.737320C1048.972076 1128.343719,1038.485703 1103.034302,1019.824020 1084.372620C1001.162338 1065.710938,975.852921 1055.224564,949.459320 1055.224564C923.065720 1055.224564,897.756302 1065.710938,879.094620 1084.372620C860.432938 1103.034302,849.946564 1128.343719,849.946564 1154.737320C849.946564 1181.130920,860.432938 1206.440338,879.094620 1225.102020C897.756302 1243.763702,923.065720 1254.250076,949.459320 1254.250076C975.852921 1254.250076,1001.162338 1243.763702,1019.824020 1225.102020C1038.485703 1206.440338,1048.972076 1181.130920,1048.972076 1154.737320Z" style="stroke:rgb(25.500488%,41.000366%,88.400269%); stroke-width: 2.500000;stroke-linecap: round;stroke-linejoin: round;stroke-miterlimit: 10.000000;fill: none;"></path>
  <path d="M1089.132721 986.594635C1089.132721 960.201035,1078.646347 934.891617,1059.984665 916.229935C1041.322983 897.568253,1016.013565 887.081879,989.619965 887.081879C963.226364 887.081879,937.916946 897.568253,919.255264 916.229935C900.593582 934.891617,890.107208 960.201035,890.107208 986.594635C890.107208 1012.988235,900.593582 1038.297653,919.255264 1056.959335C937.916946 1075.621017,963.226364 1086.107391,989.619965 1086.107391C1016.013565 1086.107391,1041.322983 1075.621017,1059.984665 1056.959335C1078.646347 1038.297653,1089.132721 1012.988235,1089.132721 986.594635Z" style="stroke:rgb(25.500488%,41.000366%,88.400269%); stroke-width: 2.500000;stroke-linecap: round;stroke-linejoin: round;stroke-miterlimit: 10.000000;fill: none;"></path>
  <path d="M1129.410141 828.780823C1129.410141 802.387222,1118.923767 777.077805,1100.262085 758.416122C1081.600403 739.754440,1056.290985 729.268066,1029.897385 729.268066C1003.503784 729.268066,978.194366 739.754440,959.532684 758.416122C940.871002 777.077805,930.384628 802.387222,930.384628 828.780823C930.384628 855.174423,940.871002 880.483841,959.532684 899.145523C978.194366 917.807205,1003.503784 928.293579,1029.897385 928.293579C1056.290985 928.293579,1081.600403 917.807205,1100.262085 899.145523C1118.923767 880.483841,1129.410141 855.174423,1129.410141 828.780823Z" style="stroke:rgb(25.500488%,41.000366%,88.400269%); stroke-width: 2.500000;stroke-linecap: round;stroke-linejoin: round;stroke-miterlimit: 10.000000;fill: none;"></path>
  <path d="M1180.301926 662.947861C1180.301926 636.554260,1169.815552 611.244843,1151.153870 592.583160C1132.492188 573.921478,1107.182770 563.435104,1080.789169 563.435104C1054.395569 563.435104,1029.086151 573.921478,1010.424469 592.583160C991.762787 611.244843,981.276413 636.554260,981.276413 662.947861C981.276413 689.341461,991.762787 714.650879,1010.424469 733.312561C1029.086151 751.974243,1054.395569 762.460617,1080.789169 762.460617C1107.182770 762.460617,1132.492188 751.974243,1151.153870 733.312561C1169.815552 714.650879,1180.301926 689.341461,1180.301926 662.947861Z" style="stroke:rgb(25.500488%,41.000366%,88.400269%); stroke-width: 2.500000;stroke-linecap: round;stroke-linejoin: round;stroke-miterlimit: 10.000000;fill: none;"></path>
  <path d="M1236.007782 496.505020C1236.007782 470.111420,1225.521408 444.802002,1206.859726 426.140320C1188.198044 407.478638,1162.888626 396.992264,1136.495026 396.992264C1110.101425 396.992264,1084.792007 407.478638,1066.130325 426.140320C1047.468643 444.802002,1036.982269 470.111420,1036.982269 496.505020C1036.982269 522.898621,1047.468643 548.208038,1066.130325 566.869720C1084.792007 585.531403,1110.101425 596.017776,1136.495026 596.017776C1162.888626 596.017776,1188.198044 585.531403,1206.859726 566.869720C1225.521408 548.208038,1236.007782 522.898621,1236.007782 496.505020Z" style="stroke:rgb(25.500488%,41.000366%,88.400269%); stroke-width: 2.500000;stroke-linecap: round;stroke-linejoin: round;stroke-miterlimit: 10.000000;fill: none;"></path>
  <path d="M1285.796600 325.689285C1285.796600 299.295685,1275.310226 273.986267,1256.648544 255.324585C1237.986862 236.662903,1212.677444 226.176529,1186.283844 226.176529C1159.890244 226.176529,1134.580826 236.662903,1115.919144 255.324585C1097.257462 273.986267,1086.771088 299.295685,1086.771088 325.689285C1086.771088 352.082886,1097.257462 377.392303,1115.919144 396.053986C1134.580826 414.715668,1159.890244 425.202042,1186.283844 425.202042C1212.677444 425.202042,1237.986862 414.715668,1256.648544 396.053986C1275.310226 377.392303,1285.796600 352.082886,1285.796600 325.689285Z" style="stroke:rgb(25.500488%,41.000366%,88.400269%); stroke-width: 2.500000;stroke-linecap: round;stroke-linejoin: round;stroke-miterlimit: 10.000000;fill: none;"></path>
  <path d="M1338.440140 191.634476C1338.440140 165.240875,1327.953766 139.931458,1309.292084 121.269775C1290.630402 102.608093,1265.320984 92.121719,1238.927383 92.121719C1212.533783 92.121719,1187.224365 102.608093,1168.562683 121.269775C1149.901001 139.931458,1139.414627 165.240875,1139.414627 191.634476C1139.414627 218.028076,1149.901001 243.337494,1168.562683 261.999176C1187.224365 280.660858,1212.533783 291.147232,1238.927383 291.147232C1265.320984 291.147232,1290.630402 280.660858,1309.292084 261.999176C1327.953766 243.337494,1338.440140 218.028076,1338.440140 191.634476Z" style="stroke:rgb(25.500488%,41.000366%,88.400269%); stroke-width: 2.500000;stroke-linecap: round;stroke-linejoin: round;stroke-miterlimit: 10.000000;fill: none;"></path>
  <path d="M758.089630 1671.959702C758.089630 1645.566101,747.603256 1620.256683,728.941574 1601.595001C710.279892 1582.933319,684.970474 1572.446945,658.576874 1572.446945C632.183273 1572.446945,606.873856 1582.933319,588.212173 1601.595001C569.550491 1620.256683,559.064117 1645.566101,559.064117 1671.959702C559.064117 1698.353302,569.550491 1723.662720,588.212173 1742.324402C606.873856 1760.986084,632.183273 1771.472458,658.576874 1771.472458C684.970474 1771.472458,710.279892 1760.986084,728.941574 1742.324402C747.603256 1723.662720,758.089630 1698.353302,758.089630 1671.959702Z" style="stroke:rgb(25.500488%,41.000366%,88.400269%); stroke-width: 2.500000;stroke-linecap: round;stroke-linejoin: round;stroke-miterlimit: 10.000000;fill: none;"></path>
  <path d="M806.009918 1525.525818C806.009918 1499.132217,795.523544 1473.822800,776.861862 1455.161118C758.200180 1436.499435,732.890762 1426.013062,706.497162 1426.013062C680.103561 1426.013062,654.794144 1436.499435,636.132462 1455.161118C617.470779 1473.822800,606.984406 1499.132217,606.984406 1525.525818C606.984406 1551.919418,617.470779 1577.228836,636.132462 1595.890518C654.794144 1614.552200,680.103561 1625.038574,706.497162 1625.038574C732.890762 1625.038574,758.200180 1614.552200,776.861862 1595.890518C795.523544 1577.228836,806.009918 1551.919418,806.009918 1525.525818Z" style="stroke:rgb(25.500488%,41.000366%,88.400269%); stroke-width: 2.500000;stroke-linecap: round;stroke-linejoin: round;stroke-miterlimit: 10.000000;fill: none;"></path>
  <path d="M843.588333 1356.760284C843.588333 1330.366684,833.101959 1305.057266,814.440277 1286.395584C795.778595 1267.733902,770.469177 1257.247528,744.075577 1257.247528C717.681976 1257.247528,692.372559 1267.733902,673.710876 1286.395584C655.049194 1305.057266,644.562820 1330.366684,644.562820 1356.760284C644.562820 1383.153885,655.049194 1408.463303,673.710876 1427.124985C692.372559 1445.786667,717.681976 1456.273041,744.075577 1456.273041C770.469177 1456.273041,795.778595 1445.786667,814.440277 1427.124985C833.101959 1408.463303,843.588333 1383.153885,843.588333 1356.760284Z" style="stroke:rgb(25.500488%,41.000366%,88.400269%); stroke-width: 2.500000;stroke-linecap: round;stroke-linejoin: round;stroke-miterlimit: 10.000000;fill: none;"></path>
  <path d="M885.007645 1190.875412C885.007645 1164.481812,874.521271 1139.172394,855.859589 1120.510712C837.197906 1101.849030,811.888489 1091.362656,785.494888 1091.362656C759.101288 1091.362656,733.791870 1101.849030,715.130188 1120.510712C696.468506 1139.172394,685.982132 1164.481812,685.982132 1190.875412C685.982132 1217.269012,696.468506 1242.578430,715.130188 1261.240112C733.791870 1279.901794,759.101288 1290.388168,785.494888 1290.388168C811.888489 1290.388168,837.197906 1279.901794,855.859589 1261.240112C874.521271 1242.578430,885.007645 1217.269012,885.007645 1190.875412Z" style="stroke:rgb(25.500488%,41.000366%,88.400269%); stroke-width: 2.500000;stroke-linecap: round;stroke-linejoin: round;stroke-miterlimit: 10.000000;fill: none;"></path>
  <path d="M929.437393 1024.562332C929.437393 998.168732,918.951019 972.859314,900.289337 954.197632C881.627655 935.535950,856.318237 925.049576,829.924637 925.049576C803.531036 925.049576,778.221619 935.535950,759.559937 954.197632C740.898254 972.859314,730.411880 998.168732,730.411880 1024.562332C730.411880 1050.955933,740.898254 1076.265350,759.559937 1094.927032C778.221619 1113.588715,803.531036 1124.075089,829.924637 1124.075089C856.318237 1124.075089,881.627655 1113.588715,900.289337 1094.927032C918.951019 1076.265350,929.437393 1050.955933,929.437393 1024.562332Z" style="stroke:rgb(25.500488%,41.000366%,88.400269%); stroke-width: 2.500000;stroke-linecap: round;stroke-linejoin: round;stroke-miterlimit: 10.000000;fill: none;"></path>
  <path d="M960.994965 857.769150C960.994965 831.375549,950.508591 806.066132,931.846909 787.404449C913.185226 768.742767,887.875809 758.256393,861.482208 758.256393C835.088608 758.256393,809.779190 768.742767,791.117508 787.404449C772.455826 806.066132,761.969452 831.375549,761.969452 857.769150C761.969452 884.162750,772.455826 909.472168,791.117508 928.133850C809.779190 946.795532,835.088608 957.281906,861.482208 957.281906C887.875809 957.281906,913.185226 946.795532,931.846909 928.133850C950.508591 909.472168,960.994965 884.162750,960.994965 857.769150Z" style="stroke:rgb(25.500488%,41.000366%,88.400269%); stroke-width: 2.500000;stroke-linecap: round;stroke-linejoin: round;stroke-miterlimit: 10.000000;fill: none;"></path>
  <path d="M1015.351318 695.764099C1015.351318 669.370499,1004.864944 644.061081,986.203262 625.399399C967.541580 606.737717,942.232162 596.251343,915.838562 596.251343C889.444962 596.251343,864.135544 606.737717,845.473862 625.399399C826.812180 644.061081,816.325806 669.370499,816.325806 695.764099C816.325806 722.157700,826.812180 747.467117,845.473862 766.128799C864.135544 784.790482,889.444962 795.276855,915.838562 795.276855C942.232162 795.276855,967.541580 784.790482,986.203262 766.128799C1004.864944 747.467117,1015.351318 722.157700,1015.351318 695.764099Z" style="stroke:rgb(25.500488%,41.000366%,88.400269%); stroke-width: 2.500000;stroke-linecap: round;stroke-linejoin: round;stroke-miterlimit: 10.000000;fill: none;"></path>
  <path d="M1070.797668 529.048767C1070.797668 502.655167,1060.311295 477.345749,1041.649612 458.684067C1022.987930 440.022385,997.678513 429.536011,971.284912 429.536011C944.891312 429.536011,919.581894 440.022385,900.920212 458.684067C882.258530 477.345749,871.772156 502.655167,871.772156 529.048767C871.772156 555.442368,882.258530 580.751785,900.920212 599.413467C919.581894 618.075150,944.891312 628.561523,971.284912 628.561523C997.678513 628.561523,1022.987930 618.075150,1041.649612 599.413467C1060.311295 580.751785,1070.797668 555.442368,1070.797668 529.048767Z" style="stroke:rgb(25.500488%,41.000366%,88.400269%); stroke-width: 2.500000;stroke-linecap: round;stroke-linejoin: round;stroke-miterlimit: 10.000000;fill: none;"></path>
  <path d="M1125.231888 362.826523C1125.231888 336.432922,1114.745514 311.123505,1096.083832 292.461823C1077.422150 273.800140,1052.112732 263.313766,1025.719131 263.313766C999.325531 263.313766,974.016113 273.800140,955.354431 292.461823C936.692749 311.123505,926.206375 336.432922,926.206375 362.826523C926.206375 389.220123,936.692749 414.529541,955.354431 433.191223C974.016113 451.852905,999.325531 462.339279,1025.719131 462.339279C1052.112732 462.339279,1077.422150 451.852905,1096.083832 433.191223C1114.745514 414.529541,1125.231888 389.220123,1125.231888 362.826523Z" style="stroke:rgb(25.500488%,41.000366%,88.400269%); stroke-width: 2.500000;stroke-linecap: round;stroke-linejoin: round;stroke-miterlimit: 10.000000;fill: none;"></path>
  <path d="M1160.357849 195.851669C1160.357849 169.458069,1149.871475 144.148651,1131.209793 125.486969C1112.548111 106.825287,1087.238693 96.338913,1060.845093 96.338913C1034.451492 96.338913,1009.142075 106.825287,990.480392 125.486969C971.818710 144.148651,961.332336 169.458069,961.332336 195.851669C961.332336 222.245270,971.818710 247.554688,990.480392 266.216370C1009.142075 284.878052,1034.451492 295.364426,1060.845093 295.364426C1087.238693 295.364426,1112.548111 284.878052,1131.209793 266.216370C1149.871475 247.554688,1160.357849 222.245270,1160.357849 195.851669Z" style="stroke:rgb(25.500488%,41.000366%,88.400269%); stroke-width: 2.500000;stroke-linecap: round;stroke-linejoin: round;stroke-miterlimit: 10.000000;fill: none;"></path>
  <path d="M631.833389 1573.290390C631.833389 1546.896790,621.347015 1521.587372,602.685333 1502.925690C584.023651 1484.264008,558.714233 1473.777634,532.320633 1473.777634C505.927032 1473.777634,480.617615 1484.264008,461.955933 1502.925690C443.294250 1521.587372,432.807877 1546.896790,432.807877 1573.290390C432.807877 1599.683990,443.294250 1624.993408,461.955933 1643.655090C480.617615 1662.316772,505.927032 1672.803146,532.320633 1672.803146C558.714233 1672.803146,584.023651 1662.316772,602.685333 1643.655090C621.347015 1624.993408,631.833389 1599.683990,631.833389 1573.290390Z" style="stroke:rgb(25.500488%,41.000366%,88.400269%); stroke-width: 2.500000;stroke-linecap: round;stroke-linejoin: round;stroke-miterlimit: 10.000000;fill: none;"></path>
  <path d="M678.520950 1413.971359C678.520950 1387.577759,668.034576 1362.268341,649.372894 1343.606659C630.711212 1324.944977,605.401794 1314.458603,579.008194 1314.458603C552.614594 1314.458603,527.305176 1324.944977,508.643494 1343.606659C489.981812 1362.268341,479.495438 1387.577759,479.495438 1413.971359C479.495438 1440.364960,489.981812 1465.674377,508.643494 1484.336060C527.305176 1502.997742,552.614594 1513.484116,579.008194 1513.484116C605.401794 1513.484116,630.711212 1502.997742,649.372894 1484.336060C668.034576 1465.674377,678.520950 1440.364960,678.520950 1413.971359Z" style="stroke:rgb(25.500488%,41.000366%,88.400269%); stroke-width: 2.500000;stroke-linecap: round;stroke-linejoin: round;stroke-miterlimit: 10.000000;fill: none;"></path>
  <path d="M716.735199 1245.024155C716.735199 1218.630554,706.248825 1193.321136,687.587143 1174.659454C668.925461 1155.997772,643.616043 1145.511398,617.222443 1145.511398C590.828842 1145.511398,565.519424 1155.997772,546.857742 1174.659454C528.196060 1193.321136,517.709686 1218.630554,517.709686 1245.024155C517.709686 1271.417755,528.196060 1296.727173,546.857742 1315.388855C565.519424 1334.050537,590.828842 1344.536911,617.222443 1344.536911C643.616043 1344.536911,668.925461 1334.050537,687.587143 1315.388855C706.248825 1296.727173,716.735199 1271.417755,716.735199 1245.024155Z" style="stroke:rgb(25.500488%,41.000366%,88.400269%); stroke-width: 2.500000;stroke-linecap: round;stroke-linejoin: round;stroke-miterlimit: 10.000000;fill: none;"></path>
  <path d="M760.827560 1078.373703C760.827560 1051.980103,750.341187 1026.670685,731.679504 1008.009003C713.017822 989.347321,687.708405 978.860947,661.314804 978.860947C634.921204 978.860947,609.611786 989.347321,590.950104 1008.009003C572.288422 1026.670685,561.802048 1051.980103,561.802048 1078.373703C561.802048 1104.767303,572.288422 1130.076721,590.950104 1148.738403C609.611786 1167.400085,634.921204 1177.886459,661.314804 1177.886459C687.708405 1177.886459,713.017822 1167.400085,731.679504 1148.738403C750.341187 1130.076721,760.827560 1104.767303,760.827560 1078.373703Z" style="stroke:rgb(25.500488%,41.000366%,88.400269%); stroke-width: 2.500000;stroke-linecap: round;stroke-linejoin: round;stroke-miterlimit: 10.000000;fill: none;"></path>
  <path d="M796.018417 915.045105C796.018417 888.651505,785.532043 863.342087,766.870361 844.680405C748.208679 826.018723,722.899261 815.532349,696.505661 815.532349C670.112061 815.532349,644.802643 826.018723,626.140961 844.680405C607.479279 863.342087,596.992905 888.651505,596.992905 915.045105C596.992905 941.438705,607.479279 966.748123,626.140961 985.409805C644.802643 1004.071487,670.112061 1014.557861,696.505661 1014.557861C722.899261 1014.557861,748.208679 1004.071487,766.870361 985.409805C785.532043 966.748123,796.018417 941.438705,796.018417 915.045105Z" style="stroke:rgb(25.500488%,41.000366%,88.400269%); stroke-width: 2.500000;stroke-linecap: round;stroke-linejoin: round;stroke-miterlimit: 10.000000;fill: none;"></path>
  <path d="M841.641937 744.060684C841.641937 717.667084,831.155563 692.357666,812.493881 673.695984C793.832199 655.034302,768.522781 644.547928,742.129181 644.547928C715.735580 644.547928,690.426163 655.034302,671.764481 673.695984C653.102798 692.357666,642.616425 717.667084,642.616425 744.060684C642.616425 770.454285,653.102798 795.763702,671.764481 814.425385C690.426163 833.087067,715.735580 843.573441,742.129181 843.573441C768.522781 843.573441,793.832199 833.087067,812.493881 814.425385C831.155563 795.763702,841.641937 770.454285,841.641937 744.060684Z" style="stroke:rgb(25.500488%,41.000366%,88.400269%); stroke-width: 2.500000;stroke-linecap: round;stroke-linejoin: round;stroke-miterlimit: 10.000000;fill: none;"></path>
  <path d="M899.709427 587.479584C899.709427 561.085983,889.223053 535.776566,870.561371 517.114883C851.899689 498.453201,826.590271 487.966827,800.196671 487.966827C773.803070 487.966827,748.493652 498.453201,729.831970 517.114883C711.170288 535.776566,700.683914 561.085983,700.683914 587.479584C700.683914 613.873184,711.170288 639.182602,729.831970 657.844284C748.493652 676.505966,773.803070 686.992340,800.196671 686.992340C826.590271 686.992340,851.899689 676.505966,870.561371 657.844284C889.223053 639.182602,899.709427 613.873184,899.709427 587.479584Z" style="stroke:rgb(25.500488%,41.000366%,88.400269%); stroke-width: 2.500000;stroke-linecap: round;stroke-linejoin: round;stroke-miterlimit: 10.000000;fill: none;"></path>
  <path d="M953.404022 427.862106C953.404022 401.468506,942.917648 376.159088,924.255966 357.497406C905.594284 338.835724,880.284866 328.349350,853.891266 328.349350C827.497665 328.349350,802.188248 338.835724,783.526566 357.497406C764.864883 376.159088,754.378510 401.468506,754.378510 427.862106C754.378510 454.255707,764.864883 479.565125,783.526566 498.226807C802.188248 516.888489,827.497665 527.374863,853.891266 527.374863C880.284866 527.374863,905.594284 516.888489,924.255966 498.226807C942.917648 479.565125,953.404022 454.255707,953.404022 427.862106Z" style="stroke:rgb(25.500488%,41.000366%,88.400269%); stroke-width: 2.500000;stroke-linecap: round;stroke-linejoin: round;stroke-miterlimit: 10.000000;fill: none;"></path>
  <path d="M993.201340 265.506699C993.201340 239.113098,982.714966 213.803680,964.053284 195.141998C945.391602 176.480316,920.082184 165.993942,893.688583 165.993942C867.294983 165.993942,841.985565 176.480316,823.323883 195.141998C804.662201 213.803680,794.175827 239.113098,794.175827 265.506699C794.175827 291.900299,804.662201 317.209717,823.323883 335.871399C841.985565 354.533081,867.294983 365.019455,893.688583 365.019455C920.082184 365.019455,945.391602 354.533081,964.053284 335.871399C982.714966 317.209717,993.201340 291.900299,993.201340 265.506699Z" style="stroke:rgb(25.500488%,41.000366%,88.400269%); stroke-width: 2.500000;stroke-linecap: round;stroke-linejoin: round;stroke-miterlimit: 10.000000;fill: none;"></path>
  <path d="M1023.357498 100.413376C1023.357498 74.019775,1012.871124 48.710358,994.209442 30.048676C975.547760 11.386993,950.238342 0.900620,923.844742 0.900620C897.451141 0.900620,872.141724 11.386993,853.480042 30.048676C834.818359 48.710358,824.331985 74.019775,824.331985 100.413376C824.331985 126.806976,834.818359 152.116394,853.480042 170.778076C872.141724 189.439758,897.451141 199.926132,923.844742 199.926132C950.238342 199.926132,975.547760 189.439758,994.209442 170.778076C1012.871124 152.116394,1023.357498 126.806976,1023.357498 100.413376Z" style="stroke:rgb(25.500488%,41.000366%,88.400269%); stroke-width: 2.500000;stroke-linecap: round;stroke-linejoin: round;stroke-miterlimit: 10.000000;fill: none;"></path>
  <path d="M506.355713 1467.627014C506.355713 1441.233414,495.869339 1415.923996,477.207657 1397.262314C458.545975 1378.600632,433.236557 1368.114258,406.842957 1368.114258C380.449356 1368.114258,355.139938 1378.600632,336.478256 1397.262314C317.816574 1415.923996,307.330200 1441.233414,307.330200 1467.627014C307.330200 1494.020615,317.816574 1519.330032,336.478256 1537.991714C355.139938 1556.653397,380.449356 1567.139771,406.842957 1567.139771C433.236557 1567.139771,458.545975 1556.653397,477.207657 1537.991714C495.869339 1519.330032,506.355713 1494.020615,506.355713 1467.627014Z" style="stroke:rgb(25.500488%,41.000366%,88.400269%); stroke-width: 2.500000;stroke-linecap: round;stroke-linejoin: round;stroke-miterlimit: 10.000000;fill: none;"></path>
  <path d="M551.213654 1305.297562C551.213654 1278.903961,540.727280 1253.594543,522.065598 1234.932861C503.403915 1216.271179,478.094498 1205.784805,451.700897 1205.784805C425.307297 1205.784805,399.997879 1216.271179,381.336197 1234.932861C362.674515 1253.594543,352.188141 1278.903961,352.188141 1305.297562C352.188141 1331.691162,362.674515 1357.000580,381.336197 1375.662262C399.997879 1394.323944,425.307297 1404.810318,451.700897 1404.810318C478.094498 1404.810318,503.403915 1394.323944,522.065598 1375.662262C540.727280 1357.000580,551.213654 1331.691162,551.213654 1305.297562Z" style="stroke:rgb(25.500488%,41.000366%,88.400269%); stroke-width: 2.500000;stroke-linecap: round;stroke-linejoin: round;stroke-miterlimit: 10.000000;fill: none;"></path>
  <path d="M592.087982 1135.571808C592.087982 1109.178207,581.601608 1083.868790,562.939926 1065.207108C544.278244 1046.545425,518.968826 1036.059052,492.575226 1036.059052C466.181625 1036.059052,440.872208 1046.545425,422.210526 1065.207108C403.548843 1083.868790,393.062469 1109.178207,393.062469 1135.571808C393.062469 1161.965408,403.548843 1187.274826,422.210526 1205.936508C440.872208 1224.598190,466.181625 1235.084564,492.575226 1235.084564C518.968826 1235.084564,544.278244 1224.598190,562.939926 1205.936508C581.601608 1187.274826,592.087982 1161.965408,592.087982 1135.571808Z" style="stroke:rgb(25.500488%,41.000366%,88.400269%); stroke-width: 2.500000;stroke-linecap: round;stroke-linejoin: round;stroke-miterlimit: 10.000000;fill: none;"></path>
  <path d="M626.941452 971.905823C626.941452 945.512222,616.455078 920.202805,597.793396 901.541122C579.131714 882.879440,553.822296 872.393066,527.428696 872.393066C501.035095 872.393066,475.725677 882.879440,457.063995 901.541122C438.402313 920.202805,427.915939 945.512222,427.915939 971.905823C427.915939 998.299423,438.402313 1023.608841,457.063995 1042.270523C475.725677 1060.932205,501.035095 1071.418579,527.428696 1071.418579C553.822296 1071.418579,579.131714 1060.932205,597.793396 1042.270523C616.455078 1023.608841,626.941452 998.299423,626.941452 971.905823Z" style="stroke:rgb(25.500488%,41.000366%,88.400269%); stroke-width: 2.500000;stroke-linecap: round;stroke-linejoin: round;stroke-miterlimit: 10.000000;fill: none;"></path>
  <path d="M686.566055 802.712082C686.566055 776.318481,676.079681 751.009064,657.417999 732.347382C638.756317 713.685699,613.446899 703.199326,587.053299 703.199326C560.659698 703.199326,535.350281 713.685699,516.688599 732.347382C498.026917 751.009064,487.540543 776.318481,487.540543 802.712082C487.540543 829.105682,498.026917 854.415100,516.688599 873.076782C535.350281 891.738464,560.659698 902.224838,587.053299 902.224838C613.446899 902.224838,638.756317 891.738464,657.417999 873.076782C676.079681 854.415100,686.566055 829.105682,686.566055 802.712082Z" style="stroke:rgb(25.500488%,41.000366%,88.400269%); stroke-width: 2.500000;stroke-linecap: round;stroke-linejoin: round;stroke-miterlimit: 10.000000;fill: none;"></path>
  <path d="M722.898788 624.772537C722.898788 598.378937,712.412415 573.069519,693.750732 554.407837C675.089050 535.746155,649.779633 525.259781,623.386032 525.259781C596.992432 525.259781,571.683014 535.746155,553.021332 554.407837C534.359650 573.069519,523.873276 598.378937,523.873276 624.772537C523.873276 651.166138,534.359650 676.475555,553.021332 695.137238C571.683014 713.798920,596.992432 724.285294,623.386032 724.285294C649.779633 724.285294,675.089050 713.798920,693.750732 695.137238C712.412415 676.475555,722.898788 651.166138,722.898788 624.772537Z" style="stroke:rgb(25.500488%,41.000366%,88.400269%); stroke-width: 2.500000;stroke-linecap: round;stroke-linejoin: round;stroke-miterlimit: 10.000000;fill: none;"></path>
  <path d="M778.617630 471.656021C778.617630 445.262421,768.131256 419.953003,749.469574 401.291321C730.807892 382.629639,705.498474 372.143265,679.104874 372.143265C652.711273 372.143265,627.401855 382.629639,608.740173 401.291321C590.078491 419.953003,579.592117 445.262421,579.592117 471.656021C579.592117 498.049622,590.078491 523.359039,608.740173 542.020721C627.401855 560.682404,652.711273 571.168777,679.104874 571.168777C705.498474 571.168777,730.807892 560.682404,749.469574 542.020721C768.131256 523.359039,778.617630 498.049622,778.617630 471.656021Z" style="stroke:rgb(25.500488%,41.000366%,88.400269%); stroke-width: 2.500000;stroke-linecap: round;stroke-linejoin: round;stroke-miterlimit: 10.000000;fill: none;"></path>
  <path d="M823.164154 314.724579C823.164154 288.330978,812.677780 263.021561,794.016098 244.359879C775.354416 225.698196,750.044998 215.211823,723.651398 215.211823C697.257797 215.211823,671.948380 225.698196,653.286697 244.359879C634.625015 263.021561,624.138641 288.330978,624.138641 314.724579C624.138641 341.118179,634.625015 366.427597,653.286697 385.089279C671.948380 403.750961,697.257797 414.237335,723.651398 414.237335C750.044998 414.237335,775.354416 403.750961,794.016098 385.089279C812.677780 366.427597,823.164154 341.118179,823.164154 314.724579Z" style="stroke:rgb(25.500488%,41.000366%,88.400269%); stroke-width: 2.500000;stroke-linecap: round;stroke-linejoin: round;stroke-miterlimit: 10.000000;fill: none;"></path>
  <path d="M857.991669 154.250687C857.991669 127.857086,847.505295 102.547668,828.843613 83.885986C810.181931 65.224304,784.872513 54.737930,758.478912 54.737930C732.085312 54.737930,706.775894 65.224304,688.114212 83.885986C669.452530 102.547668,658.966156 127.857086,658.966156 154.250687C658.966156 180.644287,669.452530 205.953705,688.114212 224.615387C706.775894 243.277069,732.085312 253.763443,758.478912 253.763443C784.872513 253.763443,810.181931 243.277069,828.843613 224.615387C847.505295 205.953705,857.991669 180.644287,857.991669 154.250687Z" style="stroke:rgb(25.500488%,41.000366%,88.400269%); stroke-width: 2.500000;stroke-linecap: round;stroke-linejoin: round;stroke-miterlimit: 10.000000;fill: none;"></path>
  <path d="M379.398773 1362.716263C379.398773 1336.322662,368.912399 1311.013245,350.250717 1292.351562C331.589035 1273.689880,306.279617 1263.203506,279.886017 1263.203506C253.492416 1263.203506,228.182999 1273.689880,209.521317 1292.351562C190.859634 1311.013245,180.373260 1336.322662,180.373260 1362.716263C180.373260 1389.109863,190.859634 1414.419281,209.521317 1433.080963C228.182999 1451.742645,253.492416 1462.229019,279.886017 1462.229019C306.279617 1462.229019,331.589035 1451.742645,350.250717 1433.080963C368.912399 1414.419281,379.398773 1389.109863,379.398773 1362.716263Z" style="stroke:rgb(25.500488%,41.000366%,88.400269%); stroke-width: 2.500000;stroke-linecap: round;stroke-linejoin: round;stroke-miterlimit: 10.000000;fill: none;"></path>
  <path d="M427.773209 1198.440414C427.773209 1172.046814,417.286835 1146.737396,398.625153 1128.075714C379.963470 1109.414032,354.654053 1098.927658,328.260452 1098.927658C301.866852 1098.927658,276.557434 1109.414032,257.895752 1128.075714C239.234070 1146.737396,228.747696 1172.046814,228.747696 1198.440414C228.747696 1224.834015,239.234070 1250.143433,257.895752 1268.805115C276.557434 1287.466797,301.866852 1297.953171,328.260452 1297.953171C354.654053 1297.953171,379.963470 1287.466797,398.625153 1268.805115C417.286835 1250.143433,427.773209 1224.834015,427.773209 1198.440414Z" style="stroke:rgb(25.500488%,41.000366%,88.400269%); stroke-width: 2.500000;stroke-linecap: round;stroke-linejoin: round;stroke-miterlimit: 10.000000;fill: none;"></path>
  <path d="M458.020203 1030.479385C458.020203 1004.085785,447.533829 978.776367,428.872147 960.114685C410.210464 941.453003,384.901047 930.966629,358.507446 930.966629C332.113846 930.966629,306.804428 941.453003,288.142746 960.114685C269.481064 978.776367,258.994690 1004.085785,258.994690 1030.479385C258.994690 1056.872986,269.481064 1082.182404,288.142746 1100.844086C306.804428 1119.505768,332.113846 1129.992142,358.507446 1129.992142C384.901047 1129.992142,410.210464 1119.505768,428.872147 1100.844086C447.533829 1082.182404,458.020203 1056.872986,458.020203 1030.479385Z" style="stroke:rgb(25.500488%,41.000366%,88.400269%); stroke-width: 2.500000;stroke-linecap: round;stroke-linejoin: round;stroke-miterlimit: 10.000000;fill: none;"></path>
  <path d="M521.563553 860.571960C521.563553 834.178360,511.077179 808.868942,492.415497 790.207260C473.753815 771.545578,448.444397 761.059204,422.050797 761.059204C395.657196 761.059204,370.347778 771.545578,351.686096 790.207260C333.024414 808.868942,322.538040 834.178360,322.538040 860.571960C322.538040 886.965561,333.024414 912.274979,351.686096 930.936661C370.347778 949.598343,395.657196 960.084717,422.050797 960.084717C448.444397 960.084717,473.753815 949.598343,492.415497 930.936661C511.077179 912.274979,521.563553 886.965561,521.563553 860.571960Z" style="stroke:rgb(25.500488%,41.000366%,88.400269%); stroke-width: 2.500000;stroke-linecap: round;stroke-linejoin: round;stroke-miterlimit: 10.000000;fill: none;"></path>
  <path d="M566.616135 689.665390C566.616135 663.271790,556.129761 637.962372,537.468079 619.300690C518.806396 600.639008,493.496979 590.152634,467.103378 590.152634C440.709778 590.152634,415.400360 600.639008,396.738678 619.300690C378.076996 637.962372,367.590622 663.271790,367.590622 689.665390C367.590622 716.058990,378.076996 741.368408,396.738678 760.030090C415.400360 778.691772,440.709778 789.178146,467.103378 789.178146C493.496979 789.178146,518.806396 778.691772,537.468079 760.030090C556.129761 741.368408,566.616135 716.058990,566.616135 689.665390Z" style="stroke:rgb(25.500488%,41.000366%,88.400269%); stroke-width: 2.500000;stroke-linecap: round;stroke-linejoin: round;stroke-miterlimit: 10.000000;fill: none;"></path>
  <path d="M598.809540 512.737961C598.809540 486.344360,588.323166 461.034943,569.661484 442.373260C550.999802 423.711578,525.690384 413.225204,499.296783 413.225204C472.903183 413.225204,447.593765 423.711578,428.932083 442.373260C410.270401 461.034943,399.784027 486.344360,399.784027 512.737961C399.784027 539.131561,410.270401 564.440979,428.932083 583.102661C447.593765 601.764343,472.903183 612.250717,499.296783 612.250717C525.690384 612.250717,550.999802 601.764343,569.661484 583.102661C588.323166 564.440979,598.809540 539.131561,598.809540 512.737961Z" style="stroke:rgb(25.500488%,41.000366%,88.400269%); stroke-width: 2.500000;stroke-linecap: round;stroke-linejoin: round;stroke-miterlimit: 10.000000;fill: none;"></path>
  <path d="M647.300751 365.240051C647.300751 338.846451,636.814377 313.537033,618.152695 294.875351C599.491013 276.213669,574.181595 265.727295,547.787994 265.727295C521.394394 265.727295,496.084976 276.213669,477.423294 294.875351C458.761612 313.537033,448.275238 338.846451,448.275238 365.240051C448.275238 391.633652,458.761612 416.943069,477.423294 435.604752C496.084976 454.266434,521.394394 464.752808,547.787994 464.752808C574.181595 464.752808,599.491013 454.266434,618.152695 435.604752C636.814377 416.943069,647.300751 391.633652,647.300751 365.240051Z" style="stroke:rgb(25.500488%,41.000366%,88.400269%); stroke-width: 2.500000;stroke-linecap: round;stroke-linejoin: round;stroke-miterlimit: 10.000000;fill: none;"></path>
  <path d="M686.877487 210.190125C686.877487 183.796524,676.391113 158.487106,657.729431 139.825424C639.067749 121.163742,613.758331 110.677368,587.364731 110.677368C560.971130 110.677368,535.661713 121.163742,517.000031 139.825424C498.338348 158.487106,487.851974 183.796524,487.851974 210.190125C487.851974 236.583725,498.338348 261.893143,517.000031 280.554825C535.661713 299.216507,560.971130 309.702881,587.364731 309.702881C613.758331 309.702881,639.067749 299.216507,657.729431 280.554825C676.391113 261.893143,686.877487 236.583725,686.877487 210.190125Z" style="stroke:rgb(25.500488%,41.000366%,88.400269%); stroke-width: 2.500000;stroke-linecap: round;stroke-linejoin: round;stroke-miterlimit: 10.000000;fill: none;"></path>
  <path d="M262.160828 1254.016510C262.160828 1227.622910,251.674454 1202.313492,233.012772 1183.651810C214.351089 1164.990128,189.041672 1154.503754,162.648071 1154.503754C136.254471 1154.503754,110.945053 1164.990128,92.283371 1183.651810C73.621689 1202.313492,63.135315 1227.622910,63.135315 1254.016510C63.135315 1280.410110,73.621689 1305.719528,92.283371 1324.381210C110.945053 1343.042892,136.254471 1353.529266,162.648071 1353.529266C189.041672 1353.529266,214.351089 1343.042892,233.012772 1324.381210C251.674454 1305.719528,262.160828 1280.410110,262.160828 1254.016510Z" style="stroke:rgb(25.500488%,41.000366%,88.400269%); stroke-width: 2.500000;stroke-linecap: round;stroke-linejoin: round;stroke-miterlimit: 10.000000;fill: none;"></path>
  <path d="M294.509933 1087.975922C294.509933 1061.582321,284.023560 1036.272903,265.361877 1017.611221C246.700195 998.949539,221.390778 988.463165,194.997177 988.463165C168.603577 988.463165,143.294159 998.949539,124.632477 1017.611221C105.970795 1036.272903,95.484421 1061.582321,95.484421 1087.975922C95.484421 1114.369522,105.970795 1139.678940,124.632477 1158.340622C143.294159 1177.002304,168.603577 1187.488678,194.997177 1187.488678C221.390778 1187.488678,246.700195 1177.002304,265.361877 1158.340622C284.023560 1139.678940,294.509933 1114.369522,294.509933 1087.975922Z" style="stroke:rgb(25.500488%,41.000366%,88.400269%); stroke-width: 2.500000;stroke-linecap: round;stroke-linejoin: round;stroke-miterlimit: 10.000000;fill: none;"></path>
  <path d="M354.108597 913.734528C354.108597 887.340927,343.622223 862.031509,324.960541 843.369827C306.298859 824.708145,280.989441 814.221771,254.595840 814.221771C228.202240 814.221771,202.892822 824.708145,184.231140 843.369827C165.569458 862.031509,155.083084 887.340927,155.083084 913.734528C155.083084 940.128128,165.569458 965.437546,184.231140 984.099228C202.892822 1002.760910,228.202240 1013.247284,254.595840 1013.247284C280.989441 1013.247284,306.298859 1002.760910,324.960541 984.099228C343.622223 965.437546,354.108597 940.128128,354.108597 913.734528Z" style="stroke:rgb(25.500488%,41.000366%,88.400269%); stroke-width: 2.500000;stroke-linecap: round;stroke-linejoin: round;stroke-miterlimit: 10.000000;fill: none;"></path>
  <path d="M401.963989 745.475052C401.963989 719.081451,391.477615 693.772034,372.815933 675.110352C354.154251 656.448669,328.844833 645.962296,302.451233 645.962296C276.057632 645.962296,250.748215 656.448669,232.086533 675.110352C213.424850 693.772034,202.938477 719.081451,202.938477 745.475052C202.938477 771.868652,213.424850 797.178070,232.086533 815.839752C250.748215 834.501434,276.057632 844.987808,302.451233 844.987808C328.844833 844.987808,354.154251 834.501434,372.815933 815.839752C391.477615 797.178070,401.963989 771.868652,401.963989 745.475052Z" style="stroke:rgb(25.500488%,41.000366%,88.400269%); stroke-width: 2.500000;stroke-linecap: round;stroke-linejoin: round;stroke-miterlimit: 10.000000;fill: none;"></path>
  <path d="M458.111038 572.725891C458.111038 546.332291,447.624664 521.022873,428.962982 502.361191C410.301300 483.699509,384.991882 473.213135,358.598282 473.213135C332.204681 473.213135,306.895264 483.699509,288.233582 502.361191C269.571899 521.022873,259.085526 546.332291,259.085526 572.725891C259.085526 599.119492,269.571899 624.428909,288.233582 643.090591C306.895264 661.752274,332.204681 672.238647,358.598282 672.238647C384.991882 672.238647,410.301300 661.752274,428.962982 643.090591C447.624664 624.428909,458.111038 599.119492,458.111038 572.725891Z" style="stroke:rgb(25.500488%,41.000366%,88.400269%); stroke-width: 2.500000;stroke-linecap: round;stroke-linejoin: round;stroke-miterlimit: 10.000000;fill: none;"></path>
  <path d="M468.582642 390.945465C468.582642 364.551865,458.096268 339.242447,439.434586 320.580765C420.772903 301.919083,395.463486 291.432709,369.069885 291.432709C342.676285 291.432709,317.366867 301.919083,298.705185 320.580765C280.043503 339.242447,269.557129 364.551865,269.557129 390.945465C269.557129 417.339066,280.043503 442.648483,298.705185 461.310165C317.366867 479.971848,342.676285 490.458221,369.069885 490.458221C395.463486 490.458221,420.772903 479.971848,439.434586 461.310165C458.096268 442.648483,468.582642 417.339066,468.582642 390.945465Z" style="stroke:rgb(25.500488%,41.000366%,88.400269%); stroke-width: 2.500000;stroke-linecap: round;stroke-linejoin: round;stroke-miterlimit: 10.000000;fill: none;"></path>
  <path d="M510.404221 267.271439C510.404221 240.877838,499.917847 215.568420,481.256165 196.906738C462.594482 178.245056,437.285065 167.758682,410.891464 167.758682C384.497864 167.758682,359.188446 178.245056,340.526764 196.906738C321.865082 215.568420,311.378708 240.877838,311.378708 267.271439C311.378708 293.665039,321.865082 318.974457,340.526764 337.636139C359.188446 356.297821,384.497864 366.784195,410.891464 366.784195C437.285065 366.784195,462.594482 356.297821,481.256165 337.636139C499.917847 318.974457,510.404221 293.665039,510.404221 267.271439Z" style="stroke:rgb(25.500488%,41.000366%,88.400269%); stroke-width: 2.500000;stroke-linecap: round;stroke-linejoin: round;stroke-miterlimit: 10.000000;fill: none;"></path>
  <path d="M200.057816 943.202972C200.057816 916.809372,189.571442 891.499954,170.909760 872.838272C152.248077 854.176590,126.938660 843.690216,100.545059 843.690216C74.151459 843.690216,48.842041 854.176590,30.180359 872.838272C11.518677 891.499954,1.032303 916.809372,1.032303 943.202972C1.032303 969.596573,11.518677 994.905991,30.180359 1013.567673C48.842041 1032.229355,74.151459 1042.715729,100.545059 1042.715729C126.938660 1042.715729,152.248077 1032.229355,170.909760 1013.567673C189.571442 994.905991,200.057816 969.596573,200.057816 943.202972Z" style="stroke:rgb(25.500488%,41.000366%,88.400269%); stroke-width: 2.500000;stroke-linecap: round;stroke-linejoin: round;stroke-miterlimit: 10.000000;fill: none;"></path>
  <path d="M241.217606 776.669296C241.217606 750.275696,230.731232 724.966278,212.069550 706.304596C193.407867 687.642914,168.098450 677.156540,141.704849 677.156540C115.311249 677.156540,90.001831 687.642914,71.340149 706.304596C52.678467 724.966278,42.192093 750.275696,42.192093 776.669296C42.192093 803.062897,52.678467 828.372314,71.340149 847.033997C90.001831 865.695679,115.311249 876.182053,141.704849 876.182053C168.098450 876.182053,193.407867 865.695679,212.069550 847.033997C230.731232 828.372314,241.217606 803.062897,241.217606 776.669296Z" style="stroke:rgb(25.500488%,41.000366%,88.400269%); stroke-width: 2.500000;stroke-linecap: round;stroke-linejoin: round;stroke-miterlimit: 10.000000;fill: none;"></path>
  <path d="M292.304016 656.239273C292.304016 629.845673,281.817642 604.536255,263.155960 585.874573C244.494278 567.212891,219.184860 556.726517,192.791260 556.726517C166.397659 556.726517,141.088242 567.212891,122.426559 585.874573C103.764877 604.536255,93.278503 629.845673,93.278503 656.239273C93.278503 682.632874,103.764877 707.942291,122.426559 726.603973C141.088242 745.265656,166.397659 755.752029,192.791260 755.752029C219.184860 755.752029,244.494278 745.265656,263.155960 726.603973C281.817642 707.942291,292.304016 682.632874,292.304016 656.239273Z" style="stroke:rgb(25.500488%,41.000366%,88.400269%); stroke-width: 2.500000;stroke-linecap: round;stroke-linejoin: round;stroke-miterlimit: 10.000000;fill: none;"></path>
  <path d="M338.550400 485.073181C338.550400 458.679581,328.064026 433.370163,309.402344 414.708481C290.740662 396.046799,265.431244 385.560425,239.037643 385.560425C212.644043 385.560425,187.334625 396.046799,168.672943 414.708481C150.011261 433.370163,139.524887 458.679581,139.524887 485.073181C139.524887 511.466782,150.011261 536.776199,168.672943 555.437881C187.334625 574.099564,212.644043 584.585938,239.037643 584.585938C265.431244 584.585938,290.740662 574.099564,309.402344 555.437881C328.064026 536.776199,338.550400 511.466782,338.550400 485.073181Z" style="stroke:rgb(25.500488%,41.000366%,88.400269%); stroke-width: 2.500000;stroke-linecap: round;stroke-linejoin: round;stroke-miterlimit: 10.000000;fill: none;"></path>
</svg>
