<?xml version="1.0"?>
<!-- Created by MetaPost 2.00 on 2022.03.02:1201 -->
<svg version="1.1" xmlns="http://www.w3.org/2000/svg" xmlns:xlink="http://www.w3.org/1999/xlink" width="1731.159424" height="1705.285339" viewBox="0 0 1731.159424 1705.285339">
<!-- Original BoundingBox: -835.475449 -835.709015 895.683975 869.576324 -->
  <path d="M835.000000 18.606476L26.233398 606.210541L335.152451 1556.986221L1334.847549 1556.986221L1643.766602 606.210541L835.000000 18.606476Z" style="fill: rgb(100.000000%,100.000000%,100.000000%);stroke: none;"></path>
  <path d="M835.000000 18.606476L26.233398 606.210541" style="stroke:rgb(0.000000%,0.000000%,0.000000%); stroke-width: 2.500000;stroke-linecap: round;stroke-linejoin: round;stroke-miterlimit: 10.000000;fill: none;"></path>
  <path d="M26.233398 606.210541L335.152451 1556.986221" style="stroke:rgb(0.000000%,0.000000%,0.000000%); stroke-width: 2.500000;stroke-linecap: round;stroke-linejoin: round;stroke-miterlimit: 10.000000;fill: none;"></path>
  <path d="M335.152451 1556.986221L1334.847549 1556.986221" style="stroke:rgb(0.000000%,0.000000%,0.000000%); stroke-width: 2.500000;stroke-linecap: round;stroke-linejoin: round;stroke-miterlimit: 10.000000;fill: none;"></path>
  <path d="M1334.847549 1556.986221L1643.766602 606.210541" style="stroke:rgb(0.000000%,0.000000%,0.000000%); stroke-width: 2.500000;stroke-linecap: round;stroke-linejoin: round;stroke-miterlimit: 10.000000;fill: none;"></path>
  <path d="M1643.766602 606.210541L835.000000 18.606476" style="stroke:rgb(0.000000%,0.000000%,0.000000%); stroke-width: 2.500000;stroke-linecap: round;stroke-linejoin: round;stroke-miterlimit: 10.000000;fill: none;"></path>
  <path d="M712.389999 1492.573471C712.389999 1439.187439,691.179321 1387.994354,653.432556 1350.247589C615.685791 1312.500824,564.492706 1291.290146,511.106674 1291.290146C457.720642 1291.290146,406.527557 1312.500824,368.780792 1350.247589C331.034027 1387.994354,309.823349 1439.187439,309.823349 1492.573471C309.823349 1545.959503,331.034027 1597.152588,368.780792 1634.899353C406.527557 1672.646118,457.720642 1693.856796,511.106674 1693.856796C564.492706 1693.856796,615.685791 1672.646118,653.432556 1634.899353C691.179321 1597.152588,712.389999 1545.959503,712.389999 1492.573471Z" style="stroke:rgb(25.500488%,41.000366%,88.400269%); stroke-width: 2.500000;stroke-linecap: round;stroke-linejoin: round;stroke-miterlimit: 10.000000;fill: none;"></path>
  <path d="M1096.790298 1502.175690C1096.790298 1448.789658,1075.579620 1397.596573,1037.832855 1359.849808C1000.086090 1322.103043,948.893005 1300.892365,895.506973 1300.892365C842.120941 1300.892365,790.927856 1322.103043,753.181091 1359.849808C715.434326 1397.596573,694.223648 1448.789658,694.223648 1502.175690C694.223648 1555.561722,715.434326 1606.754807,753.181091 1644.501572C790.927856 1682.248337,842.120941 1703.459015,895.506973 1703.459015C948.893005 1703.459015,1000.086090 1682.248337,1037.832855 1644.501572C1075.579620 1606.754807,1096.790298 1555.561722,1096.790298 1502.175690Z" style="stroke:rgb(25.500488%,41.000366%,88.400269%); stroke-width: 2.500000;stroke-linecap: round;stroke-linejoin: round;stroke-miterlimit: 10.000000;fill: none;"></path>
  <path d="M1432.413910 1414.224533C1432.413910 1360.838501,1411.203232 1309.645416,1373.456467 1271.898651C1335.709702 1234.151886,1284.516617 1212.941208,1231.130585 1212.941208C1177.744553 1212.941208,1126.551468 1234.151886,1088.804703 1271.898651C1051.057938 1309.645416,1029.847260 1360.838501,1029.847260 1414.224533C1029.847260 1467.610565,1051.057938 1518.803650,1088.804703 1556.550415C1126.551468 1594.297180,1177.744553 1615.507858,1231.130585 1615.507858C1284.516617 1615.507858,1335.709702 1594.297180,1373.456467 1556.550415C1411.203232 1518.803650,1432.413910 1467.610565,1432.413910 1414.224533Z" style="stroke:rgb(25.500488%,41.000366%,88.400269%); stroke-width: 2.500000;stroke-linecap: round;stroke-linejoin: round;stroke-miterlimit: 10.000000;fill: none;"></path>
  <path d="M519.242615 1279.027847C519.242615 1225.641815,498.031937 1174.448730,460.285172 1136.701965C422.538406 1098.955200,371.345322 1077.744522,317.959290 1077.744522C264.573257 1077.744522,213.380173 1098.955200,175.633408 1136.701965C137.886642 1174.448730,116.675964 1225.641815,116.675964 1279.027847C116.675964 1332.413879,137.886642 1383.606964,175.633408 1421.353729C213.380173 1459.100494,264.573257 1480.311172,317.959290 1480.311172C371.345322 1480.311172,422.538406 1459.100494,460.285172 1421.353729C498.031937 1383.606964,519.242615 1332.413879,519.242615 1279.027847Z" style="stroke:rgb(25.500488%,41.000366%,88.400269%); stroke-width: 2.500000;stroke-linecap: round;stroke-linejoin: round;stroke-miterlimit: 10.000000;fill: none;"></path>
  <path d="M913.829041 1236.635330C913.829041 1183.249298,892.618362 1132.056213,854.871597 1094.309448C817.124832 1056.562683,765.931747 1035.352005,712.545715 1035.352005C659.159683 1035.352005,607.966599 1056.562683,570.219833 1094.309448C532.473068 1132.056213,511.262390 1183.249298,511.262390 1236.635330C511.262390 1290.021362,532.473068 1341.214447,570.219833 1378.961212C607.966599 1416.707977,659.159683 1437.918655,712.545715 1437.918655C765.931747 1437.918655,817.124832 1416.707977,854.871597 1378.961212C892.618362 1341.214447,913.829041 1290.021362,913.829041 1236.635330Z" style="stroke:rgb(25.500488%,41.000366%,88.400269%); stroke-width: 2.500000;stroke-linecap: round;stroke-linejoin: round;stroke-miterlimit: 10.000000;fill: none;"></path>
  <path d="M1246.468170 1158.286392C1246.468170 1104.900360,1225.257492 1053.707275,1187.510727 1015.960510C1149.763962 978.213745,1098.570877 957.003067,1045.184845 957.003067C991.798813 957.003067,940.605728 978.213745,902.858963 1015.960510C865.112198 1053.707275,843.901520 1104.900360,843.901520 1158.286392C843.901520 1211.672424,865.112198 1262.865509,902.858963 1300.612274C940.605728 1338.359039,991.798813 1359.569717,1045.184845 1359.569717C1098.570877 1359.569717,1149.763962 1338.359039,1187.510727 1300.612274C1225.257492 1262.865509,1246.468170 1211.672424,1246.468170 1158.286392Z" style="stroke:rgb(25.500488%,41.000366%,88.400269%); stroke-width: 2.500000;stroke-linecap: round;stroke-linejoin: round;stroke-miterlimit: 10.000000;fill: none;"></path>
  <path d="M1619.761032 1122.213181C1619.761032 1068.827148,1598.550354 1017.634064,1560.803589 979.887299C1523.056824 942.140533,1471.863739 920.929855,1418.477707 920.929855C1365.091675 920.929855,1313.898590 942.140533,1276.151825 979.887299C1238.405060 1017.634064,1217.194382 1068.827148,1217.194382 1122.213181C1217.194382 1175.599213,1238.405060 1226.792297,1276.151825 1264.539062C1313.898590 1302.285828,1365.091675 1323.496506,1418.477707 1323.496506C1471.863739 1323.496506,1523.056824 1302.285828,1560.803589 1264.539062C1598.550354 1226.792297,1619.761032 1175.599213,1619.761032 1122.213181Z" style="stroke:rgb(25.500488%,41.000366%,88.400269%); stroke-width: 2.500000;stroke-linecap: round;stroke-linejoin: round;stroke-miterlimit: 10.000000;fill: none;"></path>
  <path d="M403.341202 919.762009C403.341202 866.375977,382.130524 815.182892,344.383759 777.436127C306.636993 739.689362,255.443909 718.478683,202.057877 718.478683C148.671844 718.478683,97.478760 739.689362,59.731995 777.436127C21.985229 815.182892,0.774551 866.375977,0.774551 919.762009C0.774551 973.148041,21.985229 1024.341125,59.731995 1062.087891C97.478760 1099.834656,148.671844 1121.045334,202.057877 1121.045334C255.443909 1121.045334,306.636993 1099.834656,344.383759 1062.087891C382.130524 1024.341125,403.341202 973.148041,403.341202 919.762009Z" style="stroke:rgb(25.500488%,41.000366%,88.400269%); stroke-width: 2.500000;stroke-linecap: round;stroke-linejoin: round;stroke-miterlimit: 10.000000;fill: none;"></path>
  <path d="M713.908188 1022.946976C713.908188 969.560944,692.697510 918.367859,654.950745 880.621094C617.203979 842.874329,566.010895 821.663651,512.624863 821.663651C459.238831 821.663651,408.045746 842.874329,370.298981 880.621094C332.552216 918.367859,311.341537 969.560944,311.341537 1022.946976C311.341537 1076.333008,332.552216 1127.526093,370.298981 1165.272858C408.045746 1203.019623,459.238831 1224.230301,512.624863 1224.230301C566.010895 1224.230301,617.203979 1203.019623,654.950745 1165.272858C692.697510 1127.526093,713.908188 1076.333008,713.908188 1022.946976Z" style="stroke:rgb(25.500488%,41.000366%,88.400269%); stroke-width: 2.500000;stroke-linecap: round;stroke-linejoin: round;stroke-miterlimit: 10.000000;fill: none;"></path>
  <path d="M1053.437561 892.616272C1053.437561 839.230240,1032.226883 788.037155,994.480118 750.290390C956.733353 712.543625,905.540268 691.332947,852.154236 691.332947C798.768204 691.332947,747.575119 712.543625,709.828354 750.290390C672.081589 788.037155,650.870911 839.230240,650.870911 892.616272C650.870911 946.002304,672.081589 997.195389,709.828354 1034.942154C747.575119 1072.688919,798.768204 1093.899597,852.154236 1093.899597C905.540268 1093.899597,956.733353 1072.688919,994.480118 1034.942154C1032.226883 997.195389,1053.437561 946.002304,1053.437561 892.616272Z" style="stroke:rgb(25.500488%,41.000366%,88.400269%); stroke-width: 2.500000;stroke-linecap: round;stroke-linejoin: round;stroke-miterlimit: 10.000000;fill: none;"></path>
  <path d="M1423.771896 866.145279C1423.771896 812.759247,1402.561218 761.566162,1364.814453 723.819397C1327.067688 686.072632,1275.874603 664.861954,1222.488571 664.861954C1169.102539 664.861954,1117.909454 686.072632,1080.162689 723.819397C1042.415924 761.566162,1021.205246 812.759247,1021.205246 866.145279C1021.205246 919.531311,1042.415924 970.724396,1080.162689 1008.471161C1117.909454 1046.217926,1169.102539 1067.428604,1222.488571 1067.428604C1275.874603 1067.428604,1327.067688 1046.217926,1364.814453 1008.471161C1402.561218 970.724396,1423.771896 919.531311,1423.771896 866.145279Z" style="stroke:rgb(25.500488%,41.000366%,88.400269%); stroke-width: 2.500000;stroke-linecap: round;stroke-linejoin: round;stroke-miterlimit: 10.000000;fill: none;"></path>
  <path d="M1729.433975 753.656555C1729.433975 700.270523,1708.223297 649.077438,1670.476532 611.330673C1632.729767 573.583908,1581.536682 552.373230,1528.150650 552.373230C1474.764618 552.373230,1423.571533 573.583908,1385.824768 611.330673C1348.078003 649.077438,1326.867325 700.270523,1326.867325 753.656555C1326.867325 807.042587,1348.078003 858.235672,1385.824768 895.982437C1423.571533 933.729202,1474.764618 954.939880,1528.150650 954.939880C1581.536682 954.939880,1632.729767 933.729202,1670.476532 895.982437C1708.223297 858.235672,1729.433975 807.042587,1729.433975 753.656555Z" style="stroke:rgb(25.500488%,41.000366%,88.400269%); stroke-width: 2.500000;stroke-linecap: round;stroke-linejoin: round;stroke-miterlimit: 10.000000;fill: none;"></path>
  <path d="M417.004898 616.357758C417.004898 562.971725,395.794220 511.778641,358.047455 474.031876C320.300690 436.285110,269.107605 415.074432,215.721573 415.074432C162.335541 415.074432,111.142456 436.285110,73.395691 474.031876C35.648926 511.778641,14.438248 562.971725,14.438248 616.357758C14.438248 669.743790,35.648926 720.936874,73.395691 758.683640C111.142456 796.430405,162.335541 817.641083,215.721573 817.641083C269.107605 817.641083,320.300690 796.430405,358.047455 758.683640C395.794220 720.936874,417.004898 669.743790,417.004898 616.357758Z" style="stroke:rgb(25.500488%,41.000366%,88.400269%); stroke-width: 2.500000;stroke-linecap: round;stroke-linejoin: round;stroke-miterlimit: 10.000000;fill: none;"></path>
  <path d="M734.423203 714.352325C734.423203 660.966293,713.212524 609.773209,675.465759 572.026443C637.718994 534.279678,586.525909 513.069000,533.139877 513.069000C479.753845 513.069000,428.560760 534.279678,390.813995 572.026443C353.067230 609.773209,331.856552 660.966293,331.856552 714.352325C331.856552 767.738358,353.067230 818.931442,390.813995 856.678207C428.560760 894.424973,479.753845 915.635651,533.139877 915.635651C586.525909 915.635651,637.718994 894.424973,675.465759 856.678207C713.212524 818.931442,734.423203 767.738358,734.423203 714.352325Z" style="stroke:rgb(25.500488%,41.000366%,88.400269%); stroke-width: 2.500000;stroke-linecap: round;stroke-linejoin: round;stroke-miterlimit: 10.000000;fill: none;"></path>
  <path d="M982.484924 534.116028C982.484924 480.729996,961.274246 429.536911,923.527481 391.790146C885.780716 354.043381,834.587631 332.832703,781.201599 332.832703C727.815567 332.832703,676.622482 354.043381,638.875717 391.790146C601.128952 429.536911,579.918274 480.729996,579.918274 534.116028C579.918274 587.502060,601.128952 638.695145,638.875717 676.441910C676.622482 714.188675,727.815567 735.399353,781.201599 735.399353C834.587631 735.399353,885.780716 714.188675,923.527481 676.441910C961.274246 638.695145,982.484924 587.502060,982.484924 534.116028Z" style="stroke:rgb(25.500488%,41.000366%,88.400269%); stroke-width: 2.500000;stroke-linecap: round;stroke-linejoin: round;stroke-miterlimit: 10.000000;fill: none;"></path>
  <path d="M1282.307816 609.986557C1282.307816 556.600525,1261.097137 505.407440,1223.350372 467.660675C1185.603607 429.913910,1134.410522 408.703232,1081.024490 408.703232C1027.638458 408.703232,976.445374 429.913910,938.698608 467.660675C900.951843 505.407440,879.741165 556.600525,879.741165 609.986557C879.741165 663.372589,900.951843 714.565674,938.698608 752.312439C976.445374 790.059204,1027.638458 811.269882,1081.024490 811.269882C1134.410522 811.269882,1185.603607 790.059204,1223.350372 752.312439C1261.097137 714.565674,1282.307816 663.372589,1282.307816 609.986557Z" style="stroke:rgb(25.500488%,41.000366%,88.400269%); stroke-width: 2.500000;stroke-linecap: round;stroke-linejoin: round;stroke-miterlimit: 10.000000;fill: none;"></path>
  <path d="M1586.023499 503.972839C1586.023499 450.586807,1564.812820 399.393723,1527.066055 361.646957C1489.319290 323.900192,1438.126205 302.689514,1384.740173 302.689514C1331.354141 302.689514,1280.161057 323.900192,1242.414291 361.646957C1204.667526 399.393723,1183.456848 450.586807,1183.456848 503.972839C1183.456848 557.358871,1204.667526 608.551956,1242.414291 646.298721C1280.161057 684.045486,1331.354141 705.256165,1384.740173 705.256165C1438.126205 705.256165,1489.319290 684.045486,1527.066055 646.298721C1564.812820 608.551956,1586.023499 557.358871,1586.023499 503.972839Z" style="stroke:rgb(25.500488%,41.000366%,88.400269%); stroke-width: 2.500000;stroke-linecap: round;stroke-linejoin: round;stroke-miterlimit: 10.000000;fill: none;"></path>
  <path d="M669.958557 364.792526C669.958557 311.406494,648.747879 260.213409,611.001114 222.466644C573.254349 184.719879,522.061264 163.509201,468.675232 163.509201C415.289200 163.509201,364.096115 184.719879,326.349350 222.466644C288.602585 260.213409,267.391907 311.406494,267.391907 364.792526C267.391907 418.178558,288.602585 469.371643,326.349350 507.118408C364.096115 544.865173,415.289200 566.075851,468.675232 566.075851C522.061264 566.075851,573.254349 544.865173,611.001114 507.118408C648.747879 469.371643,669.958557 418.178558,669.958557 364.792526Z" style="stroke:rgb(25.500488%,41.000366%,88.400269%); stroke-width: 2.500000;stroke-linecap: round;stroke-linejoin: round;stroke-miterlimit: 10.000000;fill: none;"></path>
  <path d="M987.376877 201.957001C987.376877 148.570969,966.166199 97.377884,928.419434 59.631119C890.672668 21.884354,839.479584 0.673676,786.093552 0.673676C732.707520 0.673676,681.514435 21.884354,643.767670 59.631119C606.020905 97.377884,584.810226 148.570969,584.810226 201.957001C584.810226 255.343033,606.020905 306.536118,643.767670 344.282883C681.514435 382.029648,732.707520 403.240326,786.093552 403.240326C839.479584 403.240326,890.672668 382.029648,928.419434 344.282883C966.166199 306.536118,987.376877 255.343033,987.376877 201.957001Z" style="stroke:rgb(25.500488%,41.000366%,88.400269%); stroke-width: 2.500000;stroke-linecap: round;stroke-linejoin: round;stroke-miterlimit: 10.000000;fill: none;"></path>
  <path d="M1280.140823 282.732452C1280.140823 229.346420,1258.930145 178.153336,1221.183380 140.406570C1183.436615 102.659805,1132.243530 81.449127,1078.857498 81.449127C1025.471466 81.449127,974.278381 102.659805,936.531616 140.406570C898.784851 178.153336,877.574173 229.346420,877.574173 282.732452C877.574173 336.118484,898.784851 387.311569,936.531616 425.058334C974.278381 462.805099,1025.471466 484.015778,1078.857498 484.015778C1132.243530 484.015778,1183.436615 462.805099,1221.183380 425.058334C1258.930145 387.311569,1280.140823 336.118484,1280.140823 282.732452Z" style="stroke:rgb(25.500488%,41.000366%,88.400269%); stroke-width: 2.500000;stroke-linecap: round;stroke-linejoin: round;stroke-miterlimit: 10.000000;fill: none;"></path>
</svg>
