<?xml version="1.0"?>
<!-- Created by MetaPost 2.00 on 2022.03.02:1201 -->
<svg version="1.1" xmlns="http://www.w3.org/2000/svg" xmlns:xlink="http://www.w3.org/1999/xlink" width="1807.510071" height="1642.014496" viewBox="0 0 1807.510071 1642.014496">
<!-- Original BoundingBox: -903.755035 -821.007248 903.755035 821.007248 -->
  <path d="M1753.393524 821.000000L1328.196762 84.535538L477.803238 84.535538L52.606476 821.000000L477.803238 1557.464462L1328.196762 1557.464462L1753.393524 821.000000Z" style="fill: rgb(100.000000%,100.000000%,100.000000%);stroke: none;"></path>
  <path d="M1753.393524 821.000000L1328.196762 84.535538" style="stroke:rgb(0.000000%,0.000000%,0.000000%); stroke-width: 2.500000;stroke-linecap: round;stroke-linejoin: round;stroke-miterlimit: 10.000000;fill: none;"></path>
  <path d="M1328.196762 84.535538L477.803238 84.535538" style="stroke:rgb(0.000000%,0.000000%,0.000000%); stroke-width: 2.500000;stroke-linecap: round;stroke-linejoin: round;stroke-miterlimit: 10.000000;fill: none;"></path>
  <path d="M477.803238 84.535538L52.606476 821.000000" style="stroke:rgb(0.000000%,0.000000%,0.000000%); stroke-width: 2.500000;stroke-linecap: round;stroke-linejoin: round;stroke-miterlimit: 10.000000;fill: none;"></path>
  <path d="M52.606476 821.000000L477.803238 1557.464462" style="stroke:rgb(0.000000%,0.000000%,0.000000%); stroke-width: 2.500000;stroke-linecap: round;stroke-linejoin: round;stroke-miterlimit: 10.000000;fill: none;"></path>
  <path d="M477.803238 1557.464462L1328.196762 1557.464462" style="stroke:rgb(0.000000%,0.000000%,0.000000%); stroke-width: 2.500000;stroke-linecap: round;stroke-linejoin: round;stroke-miterlimit: 10.000000;fill: none;"></path>
  <path d="M1328.196762 1557.464462L1753.393524 821.000000" style="stroke:rgb(0.000000%,0.000000%,0.000000%); stroke-width: 2.500000;stroke-linecap: round;stroke-linejoin: round;stroke-miterlimit: 10.000000;fill: none;"></path>
  <path d="M643.480484 1424.577499C643.480484 1380.366760,625.915222 1337.972076,594.655884 1306.712723C563.396530 1275.453384,521.001846 1257.888123,476.791107 1257.888123C432.580368 1257.888123,390.185684 1275.453384,358.926331 1306.712723C327.666992 1337.972076,310.101730 1380.366760,310.101730 1424.577499C310.101730 1468.788239,327.666992 1511.182922,358.926331 1542.442276C390.185684 1573.701614,432.580368 1591.266876,476.791107 1591.266876C521.001846 1591.266876,563.396530 1573.701614,594.655884 1542.442276C625.915222 1511.182922,643.480484 1468.788239,643.480484 1424.577499Z" style="stroke:rgb(25.500488%,41.000366%,88.400269%); stroke-width: 2.500000;stroke-linecap: round;stroke-linejoin: round;stroke-miterlimit: 10.000000;fill: none;"></path>
  <path d="M880.759171 1461.948303C880.759171 1417.737564,863.193909 1375.342880,831.934570 1344.083527C800.675217 1312.824188,758.280533 1295.258926,714.069794 1295.258926C669.859055 1295.258926,627.464371 1312.824188,596.205017 1344.083527C564.945679 1375.342880,547.380417 1417.737564,547.380417 1461.948303C547.380417 1506.159042,564.945679 1548.553726,596.205017 1579.813080C627.464371 1611.072418,669.859055 1628.637680,714.069794 1628.637680C758.280533 1628.637680,800.675217 1611.072418,831.934570 1579.813080C863.193909 1548.553726,880.759171 1506.159042,880.759171 1461.948303Z" style="stroke:rgb(25.500488%,41.000366%,88.400269%); stroke-width: 2.500000;stroke-linecap: round;stroke-linejoin: round;stroke-miterlimit: 10.000000;fill: none;"></path>
  <path d="M1159.898361 1470.966614C1159.898361 1426.755875,1142.333099 1384.361191,1111.073761 1353.101837C1079.814407 1321.842499,1037.419724 1304.277237,993.208984 1304.277237C948.998245 1304.277237,906.603561 1321.842499,875.344208 1353.101837C844.084869 1384.361191,826.519608 1426.755875,826.519608 1470.966614C826.519608 1515.177353,844.084869 1557.572037,875.344208 1588.831390C906.603561 1620.090729,948.998245 1637.655991,993.208984 1637.655991C1037.419724 1637.655991,1079.814407 1620.090729,1111.073761 1588.831390C1142.333099 1557.572037,1159.898361 1515.177353,1159.898361 1470.966614Z" style="stroke:rgb(25.500488%,41.000366%,88.400269%); stroke-width: 2.500000;stroke-linecap: round;stroke-linejoin: round;stroke-miterlimit: 10.000000;fill: none;"></path>
  <path d="M1446.732300 1474.067871C1446.732300 1429.857132,1429.167038 1387.462448,1397.907700 1356.203094C1366.648346 1324.943756,1324.253662 1307.378494,1280.042923 1307.378494C1235.832184 1307.378494,1193.437500 1324.943756,1162.178146 1356.203094C1130.918808 1387.462448,1113.353546 1429.857132,1113.353546 1474.067871C1113.353546 1518.278610,1130.918808 1560.673294,1162.178146 1591.932648C1193.437500 1623.191986,1235.832184 1640.757248,1280.042923 1640.757248C1324.253662 1640.757248,1366.648346 1623.191986,1397.907700 1591.932648C1429.167038 1560.673294,1446.732300 1518.278610,1446.732300 1474.067871Z" style="stroke:rgb(25.500488%,41.000366%,88.400269%); stroke-width: 2.500000;stroke-linecap: round;stroke-linejoin: round;stroke-miterlimit: 10.000000;fill: none;"></path>
  <path d="M481.981506 1160.321762C481.981506 1116.111023,464.416245 1073.716339,433.156906 1042.456985C401.897552 1011.197647,359.502869 993.632385,315.292130 993.632385C271.081390 993.632385,228.686707 1011.197647,197.427353 1042.456985C166.168015 1073.716339,148.602753 1116.111023,148.602753 1160.321762C148.602753 1204.532501,166.168015 1246.927185,197.427353 1278.186539C228.686707 1309.445877,271.081390 1327.011139,315.292130 1327.011139C359.502869 1327.011139,401.897552 1309.445877,433.156906 1278.186539C464.416245 1246.927185,481.981506 1204.532501,481.981506 1160.321762Z" style="stroke:rgb(25.500488%,41.000366%,88.400269%); stroke-width: 2.500000;stroke-linecap: round;stroke-linejoin: round;stroke-miterlimit: 10.000000;fill: none;"></path>
  <path d="M759.745224 1176.918030C759.745224 1132.707291,742.179962 1090.312607,710.920624 1059.053253C679.661270 1027.793915,637.266586 1010.228653,593.055847 1010.228653C548.845108 1010.228653,506.450424 1027.793915,475.191071 1059.053253C443.931732 1090.312607,426.366470 1132.707291,426.366470 1176.918030C426.366470 1221.128769,443.931732 1263.523453,475.191071 1294.782806C506.450424 1326.042145,548.845108 1343.607407,593.055847 1343.607407C637.266586 1343.607407,679.661270 1326.042145,710.920624 1294.782806C742.179962 1263.523453,759.745224 1221.128769,759.745224 1176.918030Z" style="stroke:rgb(25.500488%,41.000366%,88.400269%); stroke-width: 2.500000;stroke-linecap: round;stroke-linejoin: round;stroke-miterlimit: 10.000000;fill: none;"></path>
  <path d="M1019.615082 1208.825958C1019.615082 1164.615219,1002.049820 1122.220535,970.790482 1090.961182C939.531128 1059.701843,897.136444 1042.136581,852.925705 1042.136581C808.714966 1042.136581,766.320282 1059.701843,735.060928 1090.961182C703.801590 1122.220535,686.236328 1164.615219,686.236328 1208.825958C686.236328 1253.036697,703.801590 1295.431381,735.060928 1326.690735C766.320282 1357.950073,808.714966 1375.515335,852.925705 1375.515335C897.136444 1375.515335,939.531128 1357.950073,970.790482 1326.690735C1002.049820 1295.431381,1019.615082 1253.036697,1019.615082 1208.825958Z" style="stroke:rgb(25.500488%,41.000366%,88.400269%); stroke-width: 2.500000;stroke-linecap: round;stroke-linejoin: round;stroke-miterlimit: 10.000000;fill: none;"></path>
  <path d="M1300.596863 1220.945511C1300.596863 1176.734772,1283.031601 1134.340088,1251.772263 1103.080734C1220.512909 1071.821396,1178.118225 1054.256134,1133.907486 1054.256134C1089.696747 1054.256134,1047.302063 1071.821396,1016.042709 1103.080734C984.783371 1134.340088,967.218109 1176.734772,967.218109 1220.945511C967.218109 1265.156250,984.783371 1307.550934,1016.042709 1338.810287C1047.302063 1370.069626,1089.696747 1387.634888,1133.907486 1387.634888C1178.118225 1387.634888,1220.512909 1370.069626,1251.772263 1338.810287C1283.031601 1307.550934,1300.596863 1265.156250,1300.596863 1220.945511Z" style="stroke:rgb(25.500488%,41.000366%,88.400269%); stroke-width: 2.500000;stroke-linecap: round;stroke-linejoin: round;stroke-miterlimit: 10.000000;fill: none;"></path>
  <path d="M1587.469727 1224.098679C1587.469727 1179.887939,1569.904465 1137.493256,1538.645126 1106.233902C1507.385773 1074.974564,1464.991089 1057.409302,1420.780350 1057.409302C1376.569611 1057.409302,1334.174927 1074.974564,1302.915573 1106.233902C1271.656235 1137.493256,1254.090973 1179.887939,1254.090973 1224.098679C1254.090973 1268.309418,1271.656235 1310.704102,1302.915573 1341.963455C1334.174927 1373.222794,1376.569611 1390.788055,1420.780350 1390.788055C1464.991089 1390.788055,1507.385773 1373.222794,1538.645126 1341.963455C1569.904465 1310.704102,1587.469727 1268.309418,1587.469727 1224.098679Z" style="stroke:rgb(25.500488%,41.000366%,88.400269%); stroke-width: 2.500000;stroke-linecap: round;stroke-linejoin: round;stroke-miterlimit: 10.000000;fill: none;"></path>
  <path d="M333.873718 888.319366C333.873718 844.108627,316.308456 801.713943,285.049118 770.454590C253.789764 739.195251,211.395081 721.629990,167.184341 721.629990C122.973602 721.629990,80.578918 739.195251,49.319565 770.454590C18.060226 801.713943,0.494965 844.108627,0.494965 888.319366C0.494965 932.530106,18.060226 974.924789,49.319565 1006.184143C80.578918 1037.443481,122.973602 1055.008743,167.184341 1055.008743C211.395081 1055.008743,253.789764 1037.443481,285.049118 1006.184143C316.308456 974.924789,333.873718 932.530106,333.873718 888.319366Z" style="stroke:rgb(25.500488%,41.000366%,88.400269%); stroke-width: 2.500000;stroke-linecap: round;stroke-linejoin: round;stroke-miterlimit: 10.000000;fill: none;"></path>
  <path d="M606.485977 911.468506C606.485977 867.257767,588.920715 824.863083,557.661377 793.603729C526.402023 762.344391,484.007339 744.779129,439.796600 744.779129C395.585861 744.779129,353.191177 762.344391,321.931824 793.603729C290.672485 824.863083,273.107224 867.257767,273.107224 911.468506C273.107224 955.679245,290.672485 998.073929,321.931824 1029.333282C353.191177 1060.592621,395.585861 1078.157883,439.796600 1078.157883C484.007339 1078.157883,526.402023 1060.592621,557.661377 1029.333282C588.920715 998.073929,606.485977 955.679245,606.485977 911.468506Z" style="stroke:rgb(25.500488%,41.000366%,88.400269%); stroke-width: 2.500000;stroke-linecap: round;stroke-linejoin: round;stroke-miterlimit: 10.000000;fill: none;"></path>
  <path d="M884.262695 928.051804C884.262695 883.841064,866.697433 841.446381,835.438095 810.187027C804.178741 778.927689,761.784058 761.362427,717.573318 761.362427C673.362579 761.362427,630.967896 778.927689,599.708542 810.187027C568.449203 841.446381,550.883942 883.841064,550.883942 928.051804C550.883942 972.262543,568.449203 1014.657227,599.708542 1045.916580C630.967896 1077.175919,673.362579 1094.741180,717.573318 1094.741180C761.784058 1094.741180,804.178741 1077.175919,835.438095 1045.916580C866.697433 1014.657227,884.262695 972.262543,884.262695 928.051804Z" style="stroke:rgb(25.500488%,41.000366%,88.400269%); stroke-width: 2.500000;stroke-linecap: round;stroke-linejoin: round;stroke-miterlimit: 10.000000;fill: none;"></path>
  <path d="M1149.595428 959.388779C1149.595428 915.178040,1132.030167 872.783356,1100.770828 841.524002C1069.511475 810.264664,1027.116791 792.699402,982.906052 792.699402C938.695312 792.699402,896.300629 810.264664,865.041275 841.524002C833.781937 872.783356,816.216675 915.178040,816.216675 959.388779C816.216675 1003.599518,833.781937 1045.994202,865.041275 1077.253555C896.300629 1108.512894,938.695312 1126.078156,982.906052 1126.078156C1027.116791 1126.078156,1069.511475 1108.512894,1100.770828 1077.253555C1132.030167 1045.994202,1149.595428 1003.599518,1149.595428 959.388779Z" style="stroke:rgb(25.500488%,41.000366%,88.400269%); stroke-width: 2.500000;stroke-linecap: round;stroke-linejoin: round;stroke-miterlimit: 10.000000;fill: none;"></path>
  <path d="M1430.590179 971.534286C1430.590179 927.323547,1413.024918 884.928864,1381.765579 853.669510C1350.506226 822.410172,1308.111542 804.844910,1263.900803 804.844910C1219.690063 804.844910,1177.295380 822.410172,1146.036026 853.669510C1114.776688 884.928864,1097.211426 927.323547,1097.211426 971.534286C1097.211426 1015.745026,1114.776688 1058.139709,1146.036026 1089.399063C1177.295380 1120.658401,1219.690063 1138.223663,1263.900803 1138.223663C1308.111542 1138.223663,1350.506226 1120.658401,1381.765579 1089.399063C1413.024918 1058.139709,1430.590179 1015.745026,1430.590179 971.534286Z" style="stroke:rgb(25.500488%,41.000366%,88.400269%); stroke-width: 2.500000;stroke-linecap: round;stroke-linejoin: round;stroke-miterlimit: 10.000000;fill: none;"></path>
  <path d="M1719.227783 977.866562C1719.227783 933.655823,1701.662521 891.261139,1670.403183 860.001785C1639.143829 828.742447,1596.749146 811.177185,1552.538406 811.177185C1508.327667 811.177185,1465.932983 828.742447,1434.673630 860.001785C1403.414291 891.261139,1385.849030 933.655823,1385.849030 977.866562C1385.849030 1022.077301,1403.414291 1064.471985,1434.673630 1095.731339C1465.932983 1126.990677,1508.327667 1144.555939,1552.538406 1144.555939C1596.749146 1144.555939,1639.143829 1126.990677,1670.403183 1095.731339C1701.662521 1064.471985,1719.227783 1022.077301,1719.227783 977.866562Z" style="stroke:rgb(25.500488%,41.000366%,88.400269%); stroke-width: 2.500000;stroke-linecap: round;stroke-linejoin: round;stroke-miterlimit: 10.000000;fill: none;"></path>
  <path d="M420.150970 664.133438C420.150970 619.922699,402.585709 577.528015,371.326370 546.268661C340.067017 515.009323,297.672333 497.444061,253.461594 497.444061C209.250854 497.444061,166.856171 515.009323,135.596817 546.268661C104.337479 577.528015,86.772217 619.922699,86.772217 664.133438C86.772217 708.344177,104.337479 750.738861,135.596817 781.998215C166.856171 813.257553,209.250854 830.822815,253.461594 830.822815C297.672333 830.822815,340.067017 813.257553,371.326370 781.998215C402.585709 750.738861,420.150970 708.344177,420.150970 664.133438Z" style="stroke:rgb(25.500488%,41.000366%,88.400269%); stroke-width: 2.500000;stroke-linecap: round;stroke-linejoin: round;stroke-miterlimit: 10.000000;fill: none;"></path>
  <path d="M708.788574 670.465714C708.788574 626.254974,691.223312 583.860291,659.963974 552.600937C628.704620 521.341599,586.309937 503.776337,542.099197 503.776337C497.888458 503.776337,455.493774 521.341599,424.234421 552.600937C392.975082 583.860291,375.409821 626.254974,375.409821 670.465714C375.409821 714.676453,392.975082 757.071136,424.234421 788.330490C455.493774 819.589828,497.888458 837.155090,542.099197 837.155090C586.309937 837.155090,628.704620 819.589828,659.963974 788.330490C691.223312 757.071136,708.788574 714.676453,708.788574 670.465714Z" style="stroke:rgb(25.500488%,41.000366%,88.400269%); stroke-width: 2.500000;stroke-linecap: round;stroke-linejoin: round;stroke-miterlimit: 10.000000;fill: none;"></path>
  <path d="M989.783325 682.611221C989.783325 638.400482,972.218063 596.005798,940.958725 564.746445C909.699371 533.487106,867.304688 515.921844,823.093948 515.921844C778.883209 515.921844,736.488525 533.487106,705.229172 564.746445C673.969833 596.005798,656.404572 638.400482,656.404572 682.611221C656.404572 726.821960,673.969833 769.216644,705.229172 800.475998C736.488525 831.735336,778.883209 849.300598,823.093948 849.300598C867.304688 849.300598,909.699371 831.735336,940.958725 800.475998C972.218063 769.216644,989.783325 726.821960,989.783325 682.611221Z" style="stroke:rgb(25.500488%,41.000366%,88.400269%); stroke-width: 2.500000;stroke-linecap: round;stroke-linejoin: round;stroke-miterlimit: 10.000000;fill: none;"></path>
  <path d="M1255.116058 713.948196C1255.116058 669.737457,1237.550797 627.342773,1206.291458 596.083420C1175.032104 564.824081,1132.637421 547.258820,1088.426682 547.258820C1044.215942 547.258820,1001.821259 564.824081,970.561905 596.083420C939.302567 627.342773,921.737305 669.737457,921.737305 713.948196C921.737305 758.158936,939.302567 800.553619,970.561905 831.812973C1001.821259 863.072311,1044.215942 880.637573,1088.426682 880.637573C1132.637421 880.637573,1175.032104 863.072311,1206.291458 831.812973C1237.550797 800.553619,1255.116058 758.158936,1255.116058 713.948196Z" style="stroke:rgb(25.500488%,41.000366%,88.400269%); stroke-width: 2.500000;stroke-linecap: round;stroke-linejoin: round;stroke-miterlimit: 10.000000;fill: none;"></path>
  <path d="M1532.892776 730.531494C1532.892776 686.320755,1515.327515 643.926071,1484.068176 612.666718C1452.808823 581.407379,1410.414139 563.842117,1366.203400 563.842117C1321.992661 563.842117,1279.597977 581.407379,1248.338623 612.666718C1217.079285 643.926071,1199.514023 686.320755,1199.514023 730.531494C1199.514023 774.742233,1217.079285 817.136917,1248.338623 848.396271C1279.597977 879.655609,1321.992661 897.220871,1366.203400 897.220871C1410.414139 897.220871,1452.808823 879.655609,1484.068176 848.396271C1515.327515 817.136917,1532.892776 774.742233,1532.892776 730.531494Z" style="stroke:rgb(25.500488%,41.000366%,88.400269%); stroke-width: 2.500000;stroke-linecap: round;stroke-linejoin: round;stroke-miterlimit: 10.000000;fill: none;"></path>
  <path d="M1805.505035 753.680634C1805.505035 709.469894,1787.939774 667.075211,1756.680435 635.815857C1725.421082 604.556519,1683.026398 586.991257,1638.815659 586.991257C1594.604919 586.991257,1552.210236 604.556519,1520.950882 635.815857C1489.691544 667.075211,1472.126282 709.469894,1472.126282 753.680634C1472.126282 797.891373,1489.691544 840.286057,1520.950882 871.545410C1552.210236 902.804749,1594.604919 920.370010,1638.815659 920.370010C1683.026398 920.370010,1725.421082 902.804749,1756.680435 871.545410C1787.939774 840.286057,1805.505035 797.891373,1805.505035 753.680634Z" style="stroke:rgb(25.500488%,41.000366%,88.400269%); stroke-width: 2.500000;stroke-linecap: round;stroke-linejoin: round;stroke-miterlimit: 10.000000;fill: none;"></path>
  <path d="M551.909027 417.901321C551.909027 373.690582,534.343765 331.295898,503.084427 300.036545C471.825073 268.777206,429.430389 251.211945,385.219650 251.211945C341.008911 251.211945,298.614227 268.777206,267.354874 300.036545C236.095535 331.295898,218.530273 373.690582,218.530273 417.901321C218.530273 462.112061,236.095535 504.506744,267.354874 535.766098C298.614227 567.025436,341.008911 584.590698,385.219650 584.590698C429.430389 584.590698,471.825073 567.025436,503.084427 535.766098C534.343765 504.506744,551.909027 462.112061,551.909027 417.901321Z" style="stroke:rgb(25.500488%,41.000366%,88.400269%); stroke-width: 2.500000;stroke-linecap: round;stroke-linejoin: round;stroke-miterlimit: 10.000000;fill: none;"></path>
  <path d="M838.781891 421.054489C838.781891 376.843750,821.216629 334.449066,789.957291 303.189713C758.697937 271.930374,716.303253 254.365112,672.092514 254.365112C627.881775 254.365112,585.487091 271.930374,554.227737 303.189713C522.968399 334.449066,505.403137 376.843750,505.403137 421.054489C505.403137 465.265228,522.968399 507.659912,554.227737 538.919266C585.487091 570.178604,627.881775 587.743866,672.092514 587.743866C716.303253 587.743866,758.697937 570.178604,789.957291 538.919266C821.216629 507.659912,838.781891 465.265228,838.781891 421.054489Z" style="stroke:rgb(25.500488%,41.000366%,88.400269%); stroke-width: 2.500000;stroke-linecap: round;stroke-linejoin: round;stroke-miterlimit: 10.000000;fill: none;"></path>
  <path d="M1119.763672 433.174042C1119.763672 388.963303,1102.198410 346.568619,1070.939072 315.309265C1039.679718 284.049927,997.285034 266.484665,953.074295 266.484665C908.863556 266.484665,866.468872 284.049927,835.209518 315.309265C803.950180 346.568619,786.384918 388.963303,786.384918 433.174042C786.384918 477.384781,803.950180 519.779465,835.209518 551.038818C866.468872 582.298157,908.863556 599.863419,953.074295 599.863419C997.285034 599.863419,1039.679718 582.298157,1070.939072 551.038818C1102.198410 519.779465,1119.763672 477.384781,1119.763672 433.174042Z" style="stroke:rgb(25.500488%,41.000366%,88.400269%); stroke-width: 2.500000;stroke-linecap: round;stroke-linejoin: round;stroke-miterlimit: 10.000000;fill: none;"></path>
  <path d="M1379.633530 465.081970C1379.633530 420.871231,1362.068268 378.476547,1330.808929 347.217194C1299.549576 315.957855,1257.154892 298.392593,1212.944153 298.392593C1168.733414 298.392593,1126.338730 315.957855,1095.079376 347.217194C1063.820038 378.476547,1046.254776 420.871231,1046.254776 465.081970C1046.254776 509.292709,1063.820038 551.687393,1095.079376 582.946747C1126.338730 614.206085,1168.733414 631.771347,1212.944153 631.771347C1257.154892 631.771347,1299.549576 614.206085,1330.808929 582.946747C1362.068268 551.687393,1379.633530 509.292709,1379.633530 465.081970Z" style="stroke:rgb(25.500488%,41.000366%,88.400269%); stroke-width: 2.500000;stroke-linecap: round;stroke-linejoin: round;stroke-miterlimit: 10.000000;fill: none;"></path>
  <path d="M1657.397247 481.678238C1657.397247 437.467499,1639.831985 395.072815,1608.572647 363.813461C1577.313293 332.554123,1534.918610 314.988861,1490.707870 314.988861C1446.497131 314.988861,1404.102448 332.554123,1372.843094 363.813461C1341.583755 395.072815,1324.018494 437.467499,1324.018494 481.678238C1324.018494 525.888977,1341.583755 568.283661,1372.843094 599.543015C1404.102448 630.802353,1446.497131 648.367615,1490.707870 648.367615C1534.918610 648.367615,1577.313293 630.802353,1608.572647 599.543015C1639.831985 568.283661,1657.397247 525.888977,1657.397247 481.678238Z" style="stroke:rgb(25.500488%,41.000366%,88.400269%); stroke-width: 2.500000;stroke-linecap: round;stroke-linejoin: round;stroke-miterlimit: 10.000000;fill: none;"></path>
  <path d="M692.646454 167.932129C692.646454 123.721390,675.081192 81.326706,643.821854 50.067352C612.562500 18.808014,570.167816 1.242752,525.957077 1.242752C481.746338 1.242752,439.351654 18.808014,408.092300 50.067352C376.832962 81.326706,359.267700 123.721390,359.267700 167.932129C359.267700 212.142868,376.832962 254.537552,408.092300 285.796906C439.351654 317.056244,481.746338 334.621506,525.957077 334.621506C570.167816 334.621506,612.562500 317.056244,643.821854 285.796906C675.081192 254.537552,692.646454 212.142868,692.646454 167.932129Z" style="stroke:rgb(25.500488%,41.000366%,88.400269%); stroke-width: 2.500000;stroke-linecap: round;stroke-linejoin: round;stroke-miterlimit: 10.000000;fill: none;"></path>
  <path d="M979.480392 171.033386C979.480392 126.822647,961.915131 84.427963,930.655792 53.168610C899.396439 21.909271,857.001755 4.344009,812.791016 4.344009C768.580276 4.344009,726.185593 21.909271,694.926239 53.168610C663.666901 84.427963,646.101639 126.822647,646.101639 171.033386C646.101639 215.244125,663.666901 257.638809,694.926239 288.898163C726.185593 320.157501,768.580276 337.722763,812.791016 337.722763C857.001755 337.722763,899.396439 320.157501,930.655792 288.898163C961.915131 257.638809,979.480392 215.244125,979.480392 171.033386Z" style="stroke:rgb(25.500488%,41.000366%,88.400269%); stroke-width: 2.500000;stroke-linecap: round;stroke-linejoin: round;stroke-miterlimit: 10.000000;fill: none;"></path>
  <path d="M1258.619583 180.051697C1258.619583 135.840958,1241.054321 93.446274,1209.794983 62.186920C1178.535629 30.927582,1136.140945 13.362320,1091.930206 13.362320C1047.719467 13.362320,1005.324783 30.927582,974.065430 62.186920C942.806091 93.446274,925.240829 135.840958,925.240829 180.051697C925.240829 224.262436,942.806091 266.657120,974.065430 297.916473C1005.324783 329.175812,1047.719467 346.741074,1091.930206 346.741074C1136.140945 346.741074,1178.535629 329.175812,1209.794983 297.916473C1241.054321 266.657120,1258.619583 224.262436,1258.619583 180.051697Z" style="stroke:rgb(25.500488%,41.000366%,88.400269%); stroke-width: 2.500000;stroke-linecap: round;stroke-linejoin: round;stroke-miterlimit: 10.000000;fill: none;"></path>
  <path d="M1495.898270 217.422501C1495.898270 173.211761,1478.333008 130.817078,1447.073669 99.557724C1415.814316 68.298386,1373.419632 50.733124,1329.208893 50.733124C1284.998154 50.733124,1242.603470 68.298386,1211.344116 99.557724C1180.084778 130.817078,1162.519516 173.211761,1162.519516 217.422501C1162.519516 261.633240,1180.084778 304.027924,1211.344116 335.287277C1242.603470 366.546616,1284.998154 384.111877,1329.208893 384.111877C1373.419632 384.111877,1415.814316 366.546616,1447.073669 335.287277C1478.333008 304.027924,1495.898270 261.633240,1495.898270 217.422501Z" style="stroke:rgb(25.500488%,41.000366%,88.400269%); stroke-width: 2.500000;stroke-linecap: round;stroke-linejoin: round;stroke-miterlimit: 10.000000;fill: none;"></path>
</svg>
