<?xml version="1.0"?>
<!-- Created by MetaPost 2.00 on 2022.03.02:1201 -->
<svg version="1.1" xmlns="http://www.w3.org/2000/svg" xmlns:xlink="http://www.w3.org/1999/xlink" width="1660.271667" height="1636.240173" viewBox="0 0 1660.271667 1636.240173">
<!-- Original BoundingBox: -837.953857 -774.073135 822.317810 862.167038 -->
  <path d="M837.000000 11.606476L28.233398 599.210541L337.152451 1549.986221L1336.847549 1549.986221L1645.766602 599.210541L837.000000 11.606476Z" style="fill: rgb(100.000000%,100.000000%,100.000000%);stroke: none;"></path>
  <path d="M837.000000 11.606476L28.233398 599.210541" style="stroke:rgb(0.000000%,0.000000%,0.000000%); stroke-width: 2.500000;stroke-linecap: round;stroke-linejoin: round;stroke-miterlimit: 10.000000;fill: none;"></path>
  <path d="M28.233398 599.210541L337.152451 1549.986221" style="stroke:rgb(0.000000%,0.000000%,0.000000%); stroke-width: 2.500000;stroke-linecap: round;stroke-linejoin: round;stroke-miterlimit: 10.000000;fill: none;"></path>
  <path d="M337.152451 1549.986221L1336.847549 1549.986221" style="stroke:rgb(0.000000%,0.000000%,0.000000%); stroke-width: 2.500000;stroke-linecap: round;stroke-linejoin: round;stroke-miterlimit: 10.000000;fill: none;"></path>
  <path d="M1336.847549 1549.986221L1645.766602 599.210541" style="stroke:rgb(0.000000%,0.000000%,0.000000%); stroke-width: 2.500000;stroke-linecap: round;stroke-linejoin: round;stroke-miterlimit: 10.000000;fill: none;"></path>
  <path d="M1645.766602 599.210541L837.000000 11.606476" style="stroke:rgb(0.000000%,0.000000%,0.000000%); stroke-width: 2.500000;stroke-linecap: round;stroke-linejoin: round;stroke-miterlimit: 10.000000;fill: none;"></path>
  <path d="M462.707977 1457.324768C462.707977 1430.008820,451.855148 1403.814941,432.541321 1384.501114C413.227493 1365.187286,387.033615 1354.334457,359.717667 1354.334457C332.401718 1354.334457,306.207840 1365.187286,286.894012 1384.501114C267.580185 1403.814941,256.727356 1430.008820,256.727356 1457.324768C256.727356 1484.640717,267.580185 1510.834595,286.894012 1530.148422C306.207840 1549.462250,332.401718 1560.315079,359.717667 1560.315079C387.033615 1560.315079,413.227493 1549.462250,432.541321 1530.148422C451.855148 1510.834595,462.707977 1484.640717,462.707977 1457.324768Z" style="stroke:rgb(25.500488%,41.000366%,88.400269%); stroke-width: 2.500000;stroke-linecap: round;stroke-linejoin: round;stroke-miterlimit: 10.000000;fill: none;"></path>
  <path d="M608.194626 1527.420990C608.194626 1500.105042,597.341797 1473.911163,578.027969 1454.597336C558.714142 1435.283508,532.520264 1424.430679,505.204315 1424.430679C477.888367 1424.430679,451.694489 1435.283508,432.380661 1454.597336C413.066833 1473.911163,402.214005 1500.105042,402.214005 1527.420990C402.214005 1554.736938,413.066833 1580.930817,432.380661 1600.244644C451.694489 1619.558472,477.888367 1630.411301,505.204315 1630.411301C532.520264 1630.411301,558.714142 1619.558472,578.027969 1600.244644C597.341797 1580.930817,608.194626 1554.736938,608.194626 1527.420990Z" style="stroke:rgb(25.500488%,41.000366%,88.400269%); stroke-width: 2.500000;stroke-linecap: round;stroke-linejoin: round;stroke-miterlimit: 10.000000;fill: none;"></path>
  <path d="M413.165710 1287.534134C413.165710 1260.218185,402.312881 1234.024307,382.999054 1214.710480C363.685226 1195.396652,337.491348 1184.543823,310.175400 1184.543823C282.859451 1184.543823,256.665573 1195.396652,237.351746 1214.710480C218.037918 1234.024307,207.185089 1260.218185,207.185089 1287.534134C207.185089 1314.850082,218.037918 1341.043961,237.351746 1360.357788C256.665573 1379.671616,282.859451 1390.524445,310.175400 1390.524445C337.491348 1390.524445,363.685226 1379.671616,382.999054 1360.357788C402.312881 1341.043961,413.165710 1314.850082,413.165710 1287.534134Z" style="stroke:rgb(25.500488%,41.000366%,88.400269%); stroke-width: 2.500000;stroke-linecap: round;stroke-linejoin: round;stroke-miterlimit: 10.000000;fill: none;"></path>
  <path d="M591.183121 1348.300629C591.183121 1320.984680,580.330292 1294.790802,561.016464 1275.476974C541.702637 1256.163147,515.508759 1245.310318,488.192810 1245.310318C460.876862 1245.310318,434.682983 1256.163147,415.369156 1275.476974C396.055328 1294.790802,385.202499 1320.984680,385.202499 1348.300629C385.202499 1375.616577,396.055328 1401.810455,415.369156 1421.124283C434.682983 1440.438110,460.876862 1451.290939,488.192810 1451.290939C515.508759 1451.290939,541.702637 1440.438110,561.016464 1421.124283C580.330292 1401.810455,591.183121 1375.616577,591.183121 1348.300629Z" style="stroke:rgb(25.500488%,41.000366%,88.400269%); stroke-width: 2.500000;stroke-linecap: round;stroke-linejoin: round;stroke-miterlimit: 10.000000;fill: none;"></path>
  <path d="M750.099884 1455.676834C750.099884 1428.360886,739.247055 1402.167007,719.933228 1382.853180C700.619400 1363.539352,674.425522 1352.686523,647.109573 1352.686523C619.793625 1352.686523,593.599747 1363.539352,574.285919 1382.853180C554.972092 1402.167007,544.119263 1428.360886,544.119263 1455.676834C544.119263 1482.992783,554.972092 1509.186661,574.285919 1528.500488C593.599747 1547.814316,619.793625 1558.667145,647.109573 1558.667145C674.425522 1558.667145,700.619400 1547.814316,719.933228 1528.500488C739.247055 1509.186661,750.099884 1482.992783,750.099884 1455.676834Z" style="stroke:rgb(25.500488%,41.000366%,88.400269%); stroke-width: 2.500000;stroke-linecap: round;stroke-linejoin: round;stroke-miterlimit: 10.000000;fill: none;"></path>
  <path d="M867.272949 1480.175461C867.272949 1452.859512,856.420120 1426.665634,837.106293 1407.351807C817.792465 1388.037979,791.598587 1377.185150,764.282639 1377.185150C736.966690 1377.185150,710.772812 1388.037979,691.458984 1407.351807C672.145157 1426.665634,661.292328 1452.859512,661.292328 1480.175461C661.292328 1507.491409,672.145157 1533.685287,691.458984 1552.999115C710.772812 1572.312943,736.966690 1583.165771,764.282639 1583.165771C791.598587 1583.165771,817.792465 1572.312943,837.106293 1552.999115C856.420120 1533.685287,867.272949 1507.491409,867.272949 1480.175461Z" style="stroke:rgb(25.500488%,41.000366%,88.400269%); stroke-width: 2.500000;stroke-linecap: round;stroke-linejoin: round;stroke-miterlimit: 10.000000;fill: none;"></path>
  <path d="M1044.382034 1531.832825C1044.382034 1504.516876,1033.529205 1478.322998,1014.215378 1459.009171C994.901550 1439.695343,968.707672 1428.842514,941.391724 1428.842514C914.075775 1428.842514,887.881897 1439.695343,868.568069 1459.009171C849.254242 1478.322998,838.401413 1504.516876,838.401413 1531.832825C838.401413 1559.148773,849.254242 1585.342651,868.568069 1604.656479C887.881897 1623.970306,914.075775 1634.823135,941.391724 1634.823135C968.707672 1634.823135,994.901550 1623.970306,1014.215378 1604.656479C1033.529205 1585.342651,1044.382034 1559.148773,1044.382034 1531.832825Z" style="stroke:rgb(25.500488%,41.000366%,88.400269%); stroke-width: 2.500000;stroke-linecap: round;stroke-linejoin: round;stroke-miterlimit: 10.000000;fill: none;"></path>
  <path d="M352.697662 1120.896667C352.697662 1093.580719,341.844833 1067.386841,322.531006 1048.073013C303.217178 1028.759186,277.023300 1017.906357,249.707352 1017.906357C222.391403 1017.906357,196.197525 1028.759186,176.883698 1048.073013C157.569870 1067.386841,146.717041 1093.580719,146.717041 1120.896667C146.717041 1148.212616,157.569870 1174.406494,176.883698 1193.720322C196.197525 1213.034149,222.391403 1223.886978,249.707352 1223.886978C277.023300 1223.886978,303.217178 1213.034149,322.531006 1193.720322C341.844833 1174.406494,352.697662 1148.212616,352.697662 1120.896667Z" style="stroke:rgb(25.500488%,41.000366%,88.400269%); stroke-width: 2.500000;stroke-linecap: round;stroke-linejoin: round;stroke-miterlimit: 10.000000;fill: none;"></path>
  <path d="M534.815475 1176.978821C534.815475 1149.662872,523.962646 1123.468994,504.648819 1104.155167C485.334991 1084.841339,459.141113 1073.988510,431.825165 1073.988510C404.509216 1073.988510,378.315338 1084.841339,359.001511 1104.155167C339.687683 1123.468994,328.834854 1149.662872,328.834854 1176.978821C328.834854 1204.294769,339.687683 1230.488647,359.001511 1249.802475C378.315338 1269.116302,404.509216 1279.969131,431.825165 1279.969131C459.141113 1279.969131,485.334991 1269.116302,504.648819 1249.802475C523.962646 1230.488647,534.815475 1204.294769,534.815475 1176.978821Z" style="stroke:rgb(25.500488%,41.000366%,88.400269%); stroke-width: 2.500000;stroke-linecap: round;stroke-linejoin: round;stroke-miterlimit: 10.000000;fill: none;"></path>
  <path d="M704.009216 1268.602188C704.009216 1241.286240,693.156387 1215.092361,673.842560 1195.778534C654.528732 1176.464706,628.334854 1165.611877,601.018906 1165.611877C573.702957 1165.611877,547.509079 1176.464706,528.195251 1195.778534C508.881424 1215.092361,498.028595 1241.286240,498.028595 1268.602188C498.028595 1295.918137,508.881424 1322.112015,528.195251 1341.425842C547.509079 1360.739670,573.702957 1371.592499,601.018906 1371.592499C628.334854 1371.592499,654.528732 1360.739670,673.842560 1341.425842C693.156387 1322.112015,704.009216 1295.918137,704.009216 1268.602188Z" style="stroke:rgb(25.500488%,41.000366%,88.400269%); stroke-width: 2.500000;stroke-linecap: round;stroke-linejoin: round;stroke-miterlimit: 10.000000;fill: none;"></path>
  <path d="M862.199341 1327.759659C862.199341 1300.443710,851.346512 1274.249832,832.032684 1254.936005C812.718857 1235.622177,786.524979 1224.769348,759.209030 1224.769348C731.893082 1224.769348,705.699203 1235.622177,686.385376 1254.936005C667.071548 1274.249832,656.218719 1300.443710,656.218719 1327.759659C656.218719 1355.075607,667.071548 1381.269485,686.385376 1400.583313C705.699203 1419.897141,731.893082 1430.749969,759.209030 1430.749969C786.524979 1430.749969,812.718857 1419.897141,832.032684 1400.583313C851.346512 1381.269485,862.199341 1355.075607,862.199341 1327.759659Z" style="stroke:rgb(25.500488%,41.000366%,88.400269%); stroke-width: 2.500000;stroke-linecap: round;stroke-linejoin: round;stroke-miterlimit: 10.000000;fill: none;"></path>
  <path d="M1035.324799 1383.517426C1035.324799 1356.201477,1024.471970 1330.007599,1005.158142 1310.693771C985.844315 1291.379944,959.650436 1280.527115,932.334488 1280.527115C905.018539 1280.527115,878.824661 1291.379944,859.510834 1310.693771C840.197006 1330.007599,829.344177 1356.201477,829.344177 1383.517426C829.344177 1410.833374,840.197006 1437.027252,859.510834 1456.341080C878.824661 1475.654907,905.018539 1486.507736,932.334488 1486.507736C959.650436 1486.507736,985.844315 1475.654907,1005.158142 1456.341080C1024.471970 1437.027252,1035.324799 1410.833374,1035.324799 1383.517426Z" style="stroke:rgb(25.500488%,41.000366%,88.400269%); stroke-width: 2.500000;stroke-linecap: round;stroke-linejoin: round;stroke-miterlimit: 10.000000;fill: none;"></path>
  <path d="M1205.167343 1465.849991C1205.167343 1438.534042,1194.314514 1412.340164,1175.000687 1393.026337C1155.686859 1373.712509,1129.492981 1362.859680,1102.177032 1362.859680C1074.861084 1362.859680,1048.667206 1373.712509,1029.353378 1393.026337C1010.039551 1412.340164,999.186722 1438.534042,999.186722 1465.849991C999.186722 1493.165939,1010.039551 1519.359818,1029.353378 1538.673645C1048.667206 1557.987473,1074.861084 1568.840302,1102.177032 1568.840302C1129.492981 1568.840302,1155.686859 1557.987473,1175.000687 1538.673645C1194.314514 1519.359818,1205.167343 1493.165939,1205.167343 1465.849991Z" style="stroke:rgb(25.500488%,41.000366%,88.400269%); stroke-width: 2.500000;stroke-linecap: round;stroke-linejoin: round;stroke-miterlimit: 10.000000;fill: none;"></path>
  <path d="M1359.127289 1509.072968C1359.127289 1481.757019,1348.274460 1455.563141,1328.960632 1436.249313C1309.646805 1416.935486,1283.452927 1406.082657,1256.136978 1406.082657C1228.821030 1406.082657,1202.627151 1416.935486,1183.313324 1436.249313C1163.999496 1455.563141,1153.146667 1481.757019,1153.146667 1509.072968C1153.146667 1536.388916,1163.999496 1562.582794,1183.313324 1581.896622C1202.627151 1601.210449,1228.821030 1612.063278,1256.136978 1612.063278C1283.452927 1612.063278,1309.646805 1601.210449,1328.960632 1581.896622C1348.274460 1562.582794,1359.127289 1536.388916,1359.127289 1509.072968Z" style="stroke:rgb(25.500488%,41.000366%,88.400269%); stroke-width: 2.500000;stroke-linecap: round;stroke-linejoin: round;stroke-miterlimit: 10.000000;fill: none;"></path>
  <path d="M303.895020 950.586990C303.895020 923.271042,293.042191 897.077164,273.728363 877.763336C254.414536 858.449509,228.220657 847.596680,200.904709 847.596680C173.588760 847.596680,147.394882 858.449509,128.081055 877.763336C108.767227 897.077164,97.914398 923.271042,97.914398 950.586990C97.914398 977.902939,108.767227 1004.096817,128.081055 1023.410645C147.394882 1042.724472,173.588760 1053.577301,200.904709 1053.577301C228.220657 1053.577301,254.414536 1042.724472,273.728363 1023.410645C293.042191 1004.096817,303.895020 977.902939,303.895020 950.586990Z" style="stroke:rgb(25.500488%,41.000366%,88.400269%); stroke-width: 2.500000;stroke-linecap: round;stroke-linejoin: round;stroke-miterlimit: 10.000000;fill: none;"></path>
  <path d="M481.380417 1011.911438C481.380417 984.595490,470.527588 958.401611,451.213760 939.087784C431.899933 919.773956,405.706055 908.921127,378.390106 908.921127C351.074158 908.921127,324.880280 919.773956,305.566452 939.087784C286.252625 958.401611,275.399796 984.595490,275.399796 1011.911438C275.399796 1039.227386,286.252625 1065.421265,305.566452 1084.735092C324.880280 1104.048920,351.074158 1114.901749,378.390106 1114.901749C405.706055 1114.901749,431.899933 1104.048920,451.213760 1084.735092C470.527588 1065.421265,481.380417 1039.227386,481.380417 1011.911438Z" style="stroke:rgb(25.500488%,41.000366%,88.400269%); stroke-width: 2.500000;stroke-linecap: round;stroke-linejoin: round;stroke-miterlimit: 10.000000;fill: none;"></path>
  <path d="M650.989380 1088.417801C650.989380 1061.101852,640.136551 1034.907974,620.822723 1015.594147C601.508896 996.280319,575.315018 985.427490,547.999069 985.427490C520.683121 985.427490,494.489243 996.280319,475.175415 1015.594147C455.861588 1034.907974,445.008759 1061.101852,445.008759 1088.417801C445.008759 1115.733749,455.861588 1141.927628,475.175415 1161.241455C494.489243 1180.555283,520.683121 1191.408112,547.999069 1191.408112C575.315018 1191.408112,601.508896 1180.555283,620.822723 1161.241455C640.136551 1141.927628,650.989380 1115.733749,650.989380 1088.417801Z" style="stroke:rgb(25.500488%,41.000366%,88.400269%); stroke-width: 2.500000;stroke-linecap: round;stroke-linejoin: round;stroke-miterlimit: 10.000000;fill: none;"></path>
  <path d="M819.067200 1146.381470C819.067200 1119.065521,808.214371 1092.871643,788.900543 1073.557816C769.586716 1054.243988,743.392838 1043.391159,716.076889 1043.391159C688.760941 1043.391159,662.567062 1054.243988,643.253235 1073.557816C623.939407 1092.871643,613.086578 1119.065521,613.086578 1146.381470C613.086578 1173.697418,623.939407 1199.891296,643.253235 1219.205124C662.567062 1238.518951,688.760941 1249.371780,716.076889 1249.371780C743.392838 1249.371780,769.586716 1238.518951,788.900543 1219.205124C808.214371 1199.891296,819.067200 1173.697418,819.067200 1146.381470Z" style="stroke:rgb(25.500488%,41.000366%,88.400269%); stroke-width: 2.500000;stroke-linecap: round;stroke-linejoin: round;stroke-miterlimit: 10.000000;fill: none;"></path>
  <path d="M984.627670 1208.808899C984.627670 1181.492950,973.774841 1155.299072,954.461014 1135.985245C935.147186 1116.671417,908.953308 1105.818588,881.637360 1105.818588C854.321411 1105.818588,828.127533 1116.671417,808.813705 1135.985245C789.499878 1155.299072,778.647049 1181.492950,778.647049 1208.808899C778.647049 1236.124847,789.499878 1262.318726,808.813705 1281.632553C828.127533 1300.946381,854.321411 1311.799210,881.637360 1311.799210C908.953308 1311.799210,935.147186 1300.946381,954.461014 1281.632553C973.774841 1262.318726,984.627670 1236.124847,984.627670 1208.808899Z" style="stroke:rgb(25.500488%,41.000366%,88.400269%); stroke-width: 2.500000;stroke-linecap: round;stroke-linejoin: round;stroke-miterlimit: 10.000000;fill: none;"></path>
  <path d="M1153.691650 1285.704529C1153.691650 1258.388580,1142.838821 1232.194702,1123.524994 1212.880875C1104.211166 1193.567047,1078.017288 1182.714218,1050.701340 1182.714218C1023.385391 1182.714218,997.191513 1193.567047,977.877686 1212.880875C958.563858 1232.194702,947.711029 1258.388580,947.711029 1285.704529C947.711029 1313.020477,958.563858 1339.214355,977.877686 1358.528183C997.191513 1377.842010,1023.385391 1388.694839,1050.701340 1388.694839C1078.017288 1388.694839,1104.211166 1377.842010,1123.524994 1358.528183C1142.838821 1339.214355,1153.691650 1313.020477,1153.691650 1285.704529Z" style="stroke:rgb(25.500488%,41.000366%,88.400269%); stroke-width: 2.500000;stroke-linecap: round;stroke-linejoin: round;stroke-miterlimit: 10.000000;fill: none;"></path>
  <path d="M1315.566940 1324.139359C1315.566940 1296.823410,1304.714111 1270.629532,1285.400284 1251.315704C1266.086456 1232.001877,1239.892578 1221.149048,1212.576630 1221.149048C1185.260681 1221.149048,1159.066803 1232.001877,1139.752975 1251.315704C1120.439148 1270.629532,1109.586319 1296.823410,1109.586319 1324.139359C1109.586319 1351.455307,1120.439148 1377.649185,1139.752975 1396.963013C1159.066803 1416.276840,1185.260681 1427.129669,1212.576630 1427.129669C1239.892578 1427.129669,1266.086456 1416.276840,1285.400284 1396.963013C1304.714111 1377.649185,1315.566940 1351.455307,1315.566940 1324.139359Z" style="stroke:rgb(25.500488%,41.000366%,88.400269%); stroke-width: 2.500000;stroke-linecap: round;stroke-linejoin: round;stroke-miterlimit: 10.000000;fill: none;"></path>
  <path d="M1476.910217 1386.462967C1476.910217 1359.147018,1466.057388 1332.953140,1446.743561 1313.639313C1427.429733 1294.325485,1401.235855 1283.472656,1373.919907 1283.472656C1346.603958 1283.472656,1320.410080 1294.325485,1301.096252 1313.639313C1281.782425 1332.953140,1270.929596 1359.147018,1270.929596 1386.462967C1270.929596 1413.778915,1281.782425 1439.972794,1301.096252 1459.286621C1320.410080 1478.600449,1346.603958 1489.453278,1373.919907 1489.453278C1401.235855 1489.453278,1427.429733 1478.600449,1446.743561 1459.286621C1466.057388 1439.972794,1476.910217 1413.778915,1476.910217 1386.462967Z" style="stroke:rgb(25.500488%,41.000366%,88.400269%); stroke-width: 2.500000;stroke-linecap: round;stroke-linejoin: round;stroke-miterlimit: 10.000000;fill: none;"></path>
  <path d="M248.954742 785.376862C248.954742 758.060913,238.101913 731.867035,218.788086 712.553207C199.474258 693.239380,173.280380 682.386551,145.964432 682.386551C118.648483 682.386551,92.454605 693.239380,73.140778 712.553207C53.826950 731.867035,42.974121 758.060913,42.974121 785.376862C42.974121 812.692810,53.826950 838.886688,73.140778 858.200516C92.454605 877.514343,118.648483 888.367172,145.964432 888.367172C173.280380 888.367172,199.474258 877.514343,218.788086 858.200516C238.101913 838.886688,248.954742 812.692810,248.954742 785.376862Z" style="stroke:rgb(25.500488%,41.000366%,88.400269%); stroke-width: 2.500000;stroke-linecap: round;stroke-linejoin: round;stroke-miterlimit: 10.000000;fill: none;"></path>
  <path d="M431.228271 841.264389C431.228271 813.948441,420.375443 787.754562,401.061615 768.440735C381.747787 749.126907,355.553909 738.274078,328.237961 738.274078C300.922012 738.274078,274.728134 749.126907,255.414307 768.440735C236.100479 787.754562,225.247650 813.948441,225.247650 841.264389C225.247650 868.580338,236.100479 894.774216,255.414307 914.088043C274.728134 933.401871,300.922012 944.254700,328.237961 944.254700C355.553909 944.254700,381.747787 933.401871,401.061615 914.088043C420.375443 894.774216,431.228271 868.580338,431.228271 841.264389Z" style="stroke:rgb(25.500488%,41.000366%,88.400269%); stroke-width: 2.500000;stroke-linecap: round;stroke-linejoin: round;stroke-miterlimit: 10.000000;fill: none;"></path>
  <path d="M605.417755 909.050888C605.417755 881.734940,594.564926 855.541061,575.251099 836.227234C555.937271 816.913406,529.743393 806.060577,502.427444 806.060577C475.111496 806.060577,448.917618 816.913406,429.603790 836.227234C410.289963 855.541061,399.437134 881.734940,399.437134 909.050888C399.437134 936.366837,410.289963 962.560715,429.603790 981.874542C448.917618 1001.188370,475.111496 1012.041199,502.427444 1012.041199C529.743393 1012.041199,555.937271 1001.188370,575.251099 981.874542C594.564926 962.560715,605.417755 936.366837,605.417755 909.050888Z" style="stroke:rgb(25.500488%,41.000366%,88.400269%); stroke-width: 2.500000;stroke-linecap: round;stroke-linejoin: round;stroke-miterlimit: 10.000000;fill: none;"></path>
  <path d="M773.845917 971.958420C773.845917 944.642471,762.993088 918.448593,743.679260 899.134766C724.365433 879.820938,698.171555 868.968109,670.855606 868.968109C643.539658 868.968109,617.345779 879.820938,598.031952 899.134766C578.718124 918.448593,567.865295 944.642471,567.865295 971.958420C567.865295 999.274368,578.718124 1025.468246,598.031952 1044.782074C617.345779 1064.095901,643.539658 1074.948730,670.855606 1074.948730C698.171555 1074.948730,724.365433 1064.095901,743.679260 1044.782074C762.993088 1025.468246,773.845917 999.274368,773.845917 971.958420Z" style="stroke:rgb(25.500488%,41.000366%,88.400269%); stroke-width: 2.500000;stroke-linecap: round;stroke-linejoin: round;stroke-miterlimit: 10.000000;fill: none;"></path>
  <path d="M946.763763 1032.179916C946.763763 1004.863968,935.910934 978.670090,916.597107 959.356262C897.283279 940.042435,871.089401 929.189606,843.773453 929.189606C816.457504 929.189606,790.263626 940.042435,770.949799 959.356262C751.635971 978.670090,740.783142 1004.863968,740.783142 1032.179916C740.783142 1059.495865,751.635971 1085.689743,770.949799 1105.003571C790.263626 1124.317398,816.457504 1135.170227,843.773453 1135.170227C871.089401 1135.170227,897.283279 1124.317398,916.597107 1105.003571C935.910934 1085.689743,946.763763 1059.495865,946.763763 1032.179916Z" style="stroke:rgb(25.500488%,41.000366%,88.400269%); stroke-width: 2.500000;stroke-linecap: round;stroke-linejoin: round;stroke-miterlimit: 10.000000;fill: none;"></path>
  <path d="M1117.073441 1108.011520C1117.073441 1080.695572,1106.220612 1054.501694,1086.906784 1035.187866C1067.592957 1015.874039,1041.399078 1005.021210,1014.083130 1005.021210C986.767181 1005.021210,960.573303 1015.874039,941.259476 1035.187866C921.945648 1054.501694,911.092819 1080.695572,911.092819 1108.011520C911.092819 1135.327469,921.945648 1161.521347,941.259476 1180.835175C960.573303 1200.149002,986.767181 1211.001831,1014.083130 1211.001831C1041.399078 1211.001831,1067.592957 1200.149002,1086.906784 1180.835175C1106.220612 1161.521347,1117.073441 1135.327469,1117.073441 1108.011520Z" style="stroke:rgb(25.500488%,41.000366%,88.400269%); stroke-width: 2.500000;stroke-linecap: round;stroke-linejoin: round;stroke-miterlimit: 10.000000;fill: none;"></path>
  <path d="M1281.777496 1157.294266C1281.777496 1129.978317,1270.924667 1103.784439,1251.610840 1084.470612C1232.297012 1065.156784,1206.103134 1054.303955,1178.787186 1054.303955C1151.471237 1054.303955,1125.277359 1065.156784,1105.963531 1084.470612C1086.649704 1103.784439,1075.796875 1129.978317,1075.796875 1157.294266C1075.796875 1184.610214,1086.649704 1210.804092,1105.963531 1230.117920C1125.277359 1249.431747,1151.471237 1260.284576,1178.787186 1260.284576C1206.103134 1260.284576,1232.297012 1249.431747,1251.610840 1230.117920C1270.924667 1210.804092,1281.777496 1184.610214,1281.777496 1157.294266Z" style="stroke:rgb(25.500488%,41.000366%,88.400269%); stroke-width: 2.500000;stroke-linecap: round;stroke-linejoin: round;stroke-miterlimit: 10.000000;fill: none;"></path>
  <path d="M1457.485184 1214.751892C1457.485184 1187.435944,1446.632355 1161.242065,1427.318527 1141.928238C1408.004700 1122.614410,1381.810822 1111.761581,1354.494873 1111.761581C1327.178925 1111.761581,1300.985046 1122.614410,1281.671219 1141.928238C1262.357391 1161.242065,1251.504562 1187.435944,1251.504562 1214.751892C1251.504562 1242.067841,1262.357391 1268.261719,1281.671219 1287.575546C1300.985046 1306.889374,1327.178925 1317.742203,1354.494873 1317.742203C1381.810822 1317.742203,1408.004700 1306.889374,1427.318527 1287.575546C1446.632355 1268.261719,1457.485184 1242.067841,1457.485184 1214.751892Z" style="stroke:rgb(25.500488%,41.000366%,88.400269%); stroke-width: 2.500000;stroke-linecap: round;stroke-linejoin: round;stroke-miterlimit: 10.000000;fill: none;"></path>
  <path d="M206.276764 622.580276C206.276764 595.264328,195.423935 569.070450,176.110107 549.756622C156.796280 530.442795,130.602402 519.589966,103.286453 519.589966C75.970505 519.589966,49.776627 530.442795,30.462799 549.756622C11.148972 569.070450,0.296143 595.264328,0.296143 622.580276C0.296143 649.896225,11.148972 676.090103,30.462799 695.403931C49.776627 714.717758,75.970505 725.570587,103.286453 725.570587C130.602402 725.570587,156.796280 714.717758,176.110107 695.403931C195.423935 676.090103,206.276764 649.896225,206.276764 622.580276Z" style="stroke:rgb(25.500488%,41.000366%,88.400269%); stroke-width: 2.500000;stroke-linecap: round;stroke-linejoin: round;stroke-miterlimit: 10.000000;fill: none;"></path>
  <path d="M386.603882 679.181488C386.603882 651.865540,375.751053 625.671661,356.437225 606.357834C337.123398 587.044006,310.929520 576.191177,283.613571 576.191177C256.297623 576.191177,230.103745 587.044006,210.789917 606.357834C191.476089 625.671661,180.623260 651.865540,180.623260 679.181488C180.623260 706.497437,191.476089 732.691315,210.789917 752.005142C230.103745 771.318970,256.297623 782.171799,283.613571 782.171799C310.929520 782.171799,337.123398 771.318970,356.437225 752.005142C375.751053 732.691315,386.603882 706.497437,386.603882 679.181488Z" style="stroke:rgb(25.500488%,41.000366%,88.400269%); stroke-width: 2.500000;stroke-linecap: round;stroke-linejoin: round;stroke-miterlimit: 10.000000;fill: none;"></path>
  <path d="M569.085037 737.949677C569.085037 710.633728,558.232208 684.439850,538.918381 665.126022C519.604553 645.812195,493.410675 634.959366,466.094727 634.959366C438.778778 634.959366,412.584900 645.812195,393.271072 665.126022C373.957245 684.439850,363.104416 710.633728,363.104416 737.949677C363.104416 765.265625,373.957245 791.459503,393.271072 810.773331C412.584900 830.087158,438.778778 840.939987,466.094727 840.939987C493.410675 840.939987,519.604553 830.087158,538.918381 810.773331C558.232208 791.459503,569.085037 765.265625,569.085037 737.949677Z" style="stroke:rgb(25.500488%,41.000366%,88.400269%); stroke-width: 2.500000;stroke-linecap: round;stroke-linejoin: round;stroke-miterlimit: 10.000000;fill: none;"></path>
  <path d="M741.834183 796.406448C741.834183 769.090500,730.981354 742.896622,711.667526 723.582794C692.353699 704.268967,666.159821 693.416138,638.843872 693.416138C611.527924 693.416138,585.334045 704.268967,566.020218 723.582794C546.706390 742.896622,535.853561 769.090500,535.853561 796.406448C535.853561 823.722397,546.706390 849.916275,566.020218 869.230103C585.334045 888.543930,611.527924 899.396759,638.843872 899.396759C666.159821 899.396759,692.353699 888.543930,711.667526 869.230103C730.981354 849.916275,741.834183 823.722397,741.834183 796.406448Z" style="stroke:rgb(25.500488%,41.000366%,88.400269%); stroke-width: 2.500000;stroke-linecap: round;stroke-linejoin: round;stroke-miterlimit: 10.000000;fill: none;"></path>
  <path d="M907.018356 859.339920C907.018356 832.023972,896.165527 805.830093,876.851700 786.516266C857.537872 767.202438,831.343994 756.349609,804.028046 756.349609C776.712097 756.349609,750.518219 767.202438,731.204391 786.516266C711.890564 805.830093,701.037735 832.023972,701.037735 859.339920C701.037735 886.655869,711.890564 912.849747,731.204391 932.163574C750.518219 951.477402,776.712097 962.330231,804.028046 962.330231C831.343994 962.330231,857.537872 951.477402,876.851700 932.163574C896.165527 912.849747,907.018356 886.655869,907.018356 859.339920Z" style="stroke:rgb(25.500488%,41.000366%,88.400269%); stroke-width: 2.500000;stroke-linecap: round;stroke-linejoin: round;stroke-miterlimit: 10.000000;fill: none;"></path>
  <path d="M1074.356537 930.058990C1074.356537 902.743042,1063.503708 876.549164,1044.189880 857.235336C1024.876053 837.921509,998.682175 827.068680,971.366226 827.068680C944.050278 827.068680,917.856400 837.921509,898.542572 857.235336C879.228745 876.549164,868.375916 902.743042,868.375916 930.058990C868.375916 957.374939,879.228745 983.568817,898.542572 1002.882645C917.856400 1022.196472,944.050278 1033.049301,971.366226 1033.049301C998.682175 1033.049301,1024.876053 1022.196472,1044.189880 1002.882645C1063.503708 983.568817,1074.356537 957.374939,1074.356537 930.058990Z" style="stroke:rgb(25.500488%,41.000366%,88.400269%); stroke-width: 2.500000;stroke-linecap: round;stroke-linejoin: round;stroke-miterlimit: 10.000000;fill: none;"></path>
  <path d="M1240.306290 978.277710C1240.306290 950.961761,1229.453461 924.767883,1210.139633 905.454056C1190.825806 886.140228,1164.631927 875.287399,1137.315979 875.287399C1110.000031 875.287399,1083.806152 886.140228,1064.492325 905.454056C1045.178497 924.767883,1034.325668 950.961761,1034.325668 978.277710C1034.325668 1005.593658,1045.178497 1031.787537,1064.492325 1051.101364C1083.806152 1070.415192,1110.000031 1081.268021,1137.315979 1081.268021C1164.631927 1081.268021,1190.825806 1070.415192,1210.139633 1051.101364C1229.453461 1031.787537,1240.306290 1005.593658,1240.306290 978.277710Z" style="stroke:rgb(25.500488%,41.000366%,88.400269%); stroke-width: 2.500000;stroke-linecap: round;stroke-linejoin: round;stroke-miterlimit: 10.000000;fill: none;"></path>
  <path d="M1406.502579 1042.379028C1406.502579 1015.063080,1395.649750 988.869202,1376.335922 969.555374C1357.022095 950.241547,1330.828217 939.388718,1303.512268 939.388718C1276.196320 939.388718,1250.002441 950.241547,1230.688614 969.555374C1211.374786 988.869202,1200.521957 1015.063080,1200.521957 1042.379028C1200.521957 1069.694977,1211.374786 1095.888855,1230.688614 1115.202682C1250.002441 1134.516510,1276.196320 1145.369339,1303.512268 1145.369339C1330.828217 1145.369339,1357.022095 1134.516510,1376.335922 1115.202682C1395.649750 1095.888855,1406.502579 1069.694977,1406.502579 1042.379028Z" style="stroke:rgb(25.500488%,41.000366%,88.400269%); stroke-width: 2.500000;stroke-linecap: round;stroke-linejoin: round;stroke-miterlimit: 10.000000;fill: none;"></path>
  <path d="M1579.913513 1088.404816C1579.913513 1061.088867,1569.060684 1034.894989,1549.746857 1015.581161C1530.433029 996.267334,1504.239151 985.414505,1476.923203 985.414505C1449.607254 985.414505,1423.413376 996.267334,1404.099548 1015.581161C1384.785721 1034.894989,1373.932892 1061.088867,1373.932892 1088.404816C1373.932892 1115.720764,1384.785721 1141.914642,1404.099548 1161.228470C1423.413376 1180.542297,1449.607254 1191.395126,1476.923203 1191.395126C1504.239151 1191.395126,1530.433029 1180.542297,1549.746857 1161.228470C1569.060684 1141.914642,1579.913513 1115.720764,1579.913513 1088.404816Z" style="stroke:rgb(25.500488%,41.000366%,88.400269%); stroke-width: 2.500000;stroke-linecap: round;stroke-linejoin: round;stroke-miterlimit: 10.000000;fill: none;"></path>
  <path d="M337.593628 512.933289C337.593628 485.617340,326.740799 459.423462,307.426971 440.109634C288.113144 420.795807,261.919266 409.942978,234.603317 409.942978C207.287369 409.942978,181.093491 420.795807,161.779663 440.109634C142.465836 459.423462,131.613007 485.617340,131.613007 512.933289C131.613007 540.249237,142.465836 566.443115,161.779663 585.756943C181.093491 605.070770,207.287369 615.923599,234.603317 615.923599C261.919266 615.923599,288.113144 605.070770,307.426971 585.756943C326.740799 566.443115,337.593628 540.249237,337.593628 512.933289Z" style="stroke:rgb(25.500488%,41.000366%,88.400269%); stroke-width: 2.500000;stroke-linecap: round;stroke-linejoin: round;stroke-miterlimit: 10.000000;fill: none;"></path>
  <path d="M518.284088 573.842514C518.284088 546.526566,507.431259 520.332687,488.117432 501.018860C468.803604 481.705032,442.609726 470.852203,415.293777 470.852203C387.977829 470.852203,361.783951 481.705032,342.470123 501.018860C323.156296 520.332687,312.303467 546.526566,312.303467 573.842514C312.303467 601.158463,323.156296 627.352341,342.470123 646.666168C361.783951 665.979996,387.977829 676.832825,415.293777 676.832825C442.609726 676.832825,468.803604 665.979996,488.117432 646.666168C507.431259 627.352341,518.284088 601.158463,518.284088 573.842514Z" style="stroke:rgb(25.500488%,41.000366%,88.400269%); stroke-width: 2.500000;stroke-linecap: round;stroke-linejoin: round;stroke-miterlimit: 10.000000;fill: none;"></path>
  <path d="M699.727158 622.956573C699.727158 595.640625,688.874329 569.446747,669.560501 550.132919C650.246674 530.819092,624.052795 519.966263,596.736847 519.966263C569.420898 519.966263,543.227020 530.819092,523.913193 550.132919C504.599365 569.446747,493.746536 595.640625,493.746536 622.956573C493.746536 650.272522,504.599365 676.466400,523.913193 695.780228C543.227020 715.094055,569.420898 725.946884,596.736847 725.946884C624.052795 725.946884,650.246674 715.094055,669.560501 695.780228C688.874329 676.466400,699.727158 650.272522,699.727158 622.956573Z" style="stroke:rgb(25.500488%,41.000366%,88.400269%); stroke-width: 2.500000;stroke-linecap: round;stroke-linejoin: round;stroke-miterlimit: 10.000000;fill: none;"></path>
  <path d="M872.164886 679.596710C872.164886 652.280762,861.312057 626.086884,841.998230 606.773056C822.684402 587.459229,796.490524 576.606400,769.174576 576.606400C741.858627 576.606400,715.664749 587.459229,696.350922 606.773056C677.037094 626.086884,666.184265 652.280762,666.184265 679.596710C666.184265 706.912659,677.037094 733.106537,696.350922 752.420364C715.664749 771.734192,741.858627 782.587021,769.174576 782.587021C796.490524 782.587021,822.684402 771.734192,841.998230 752.420364C861.312057 733.106537,872.164886 706.912659,872.164886 679.596710Z" style="stroke:rgb(25.500488%,41.000366%,88.400269%); stroke-width: 2.500000;stroke-linecap: round;stroke-linejoin: round;stroke-miterlimit: 10.000000;fill: none;"></path>
  <path d="M1038.490936 751.120285C1038.490936 723.804337,1027.638107 697.610458,1008.324280 678.296631C989.010452 658.982803,962.816574 648.129974,935.500626 648.129974C908.184677 648.129974,881.990799 658.982803,862.676971 678.296631C843.363144 697.610458,832.510315 723.804337,832.510315 751.120285C832.510315 778.436234,843.363144 804.630112,862.676971 823.943939C881.990799 843.257767,908.184677 854.110596,935.500626 854.110596C962.816574 854.110596,989.010452 843.257767,1008.324280 823.943939C1027.638107 804.630112,1038.490936 778.436234,1038.490936 751.120285Z" style="stroke:rgb(25.500488%,41.000366%,88.400269%); stroke-width: 2.500000;stroke-linecap: round;stroke-linejoin: round;stroke-miterlimit: 10.000000;fill: none;"></path>
  <path d="M1203.830826 808.967194C1203.830826 781.651245,1192.977997 755.457367,1173.664169 736.143539C1154.350342 716.829712,1128.156464 705.976883,1100.840515 705.976883C1073.524567 705.976883,1047.330688 716.829712,1028.016861 736.143539C1008.703033 755.457367,997.850204 781.651245,997.850204 808.967194C997.850204 836.283142,1008.703033 862.477020,1028.016861 881.790848C1047.330688 901.104675,1073.524567 911.957504,1100.840515 911.957504C1128.156464 911.957504,1154.350342 901.104675,1173.664169 881.790848C1192.977997 862.477020,1203.830826 836.283142,1203.830826 808.967194Z" style="stroke:rgb(25.500488%,41.000366%,88.400269%); stroke-width: 2.500000;stroke-linecap: round;stroke-linejoin: round;stroke-miterlimit: 10.000000;fill: none;"></path>
  <path d="M1378.292801 865.672195C1378.292801 838.356247,1367.439972 812.162369,1348.126144 792.848541C1328.812317 773.534714,1302.618439 762.681885,1275.302490 762.681885C1247.986542 762.681885,1221.792664 773.534714,1202.478836 792.848541C1183.165009 812.162369,1172.312180 838.356247,1172.312180 865.672195C1172.312180 892.988144,1183.165009 919.182022,1202.478836 938.495850C1221.792664 957.809677,1247.986542 968.662506,1275.302490 968.662506C1302.618439 968.662506,1328.812317 957.809677,1348.126144 938.495850C1367.439972 919.182022,1378.292801 892.988144,1378.292801 865.672195Z" style="stroke:rgb(25.500488%,41.000366%,88.400269%); stroke-width: 2.500000;stroke-linecap: round;stroke-linejoin: round;stroke-miterlimit: 10.000000;fill: none;"></path>
  <path d="M1543.671616 925.244904C1543.671616 897.928955,1532.818787 871.735077,1513.504959 852.421249C1494.191132 833.107422,1467.997253 822.254593,1440.681305 822.254593C1413.365356 822.254593,1387.171478 833.107422,1367.857651 852.421249C1348.543823 871.735077,1337.690994 897.928955,1337.690994 925.244904C1337.690994 952.560852,1348.543823 978.754730,1367.857651 998.068558C1387.171478 1017.382385,1413.365356 1028.235214,1440.681305 1028.235214C1467.997253 1028.235214,1494.191132 1017.382385,1513.504959 998.068558C1532.818787 978.754730,1543.671616 952.560852,1543.671616 925.244904Z" style="stroke:rgb(25.500488%,41.000366%,88.400269%); stroke-width: 2.500000;stroke-linecap: round;stroke-linejoin: round;stroke-miterlimit: 10.000000;fill: none;"></path>
  <path d="M482.288727 412.369476C482.288727 385.053528,471.435898 358.859650,452.122070 339.545822C432.808243 320.231995,406.614365 309.379166,379.298416 309.379166C351.982468 309.379166,325.788589 320.231995,306.474762 339.545822C287.160934 358.859650,276.308105 385.053528,276.308105 412.369476C276.308105 439.685425,287.160934 465.879303,306.474762 485.193130C325.788589 504.506958,351.982468 515.359787,379.298416 515.359787C406.614365 515.359787,432.808243 504.506958,452.122070 485.193130C471.435898 465.879303,482.288727 439.685425,482.288727 412.369476Z" style="stroke:rgb(25.500488%,41.000366%,88.400269%); stroke-width: 2.500000;stroke-linecap: round;stroke-linejoin: round;stroke-miterlimit: 10.000000;fill: none;"></path>
  <path d="M662.200623 465.557999C662.200623 438.242050,651.347794 412.048172,632.033966 392.734344C612.720139 373.420517,586.526260 362.567688,559.210312 362.567688C531.894363 362.567688,505.700485 373.420517,486.386658 392.734344C467.072830 412.048172,456.220001 438.242050,456.220001 465.557999C456.220001 492.873947,467.072830 519.067825,486.386658 538.381653C505.700485 557.695480,531.894363 568.548309,559.210312 568.548309C586.526260 568.548309,612.720139 557.695480,632.033966 538.381653C651.347794 519.067825,662.200623 492.873947,662.200623 465.557999Z" style="stroke:rgb(25.500488%,41.000366%,88.400269%); stroke-width: 2.500000;stroke-linecap: round;stroke-linejoin: round;stroke-miterlimit: 10.000000;fill: none;"></path>
  <path d="M844.383331 511.518906C844.383331 484.202957,833.530502 458.009079,814.216675 438.695251C794.902847 419.381424,768.708969 408.528595,741.393021 408.528595C714.077072 408.528595,687.883194 419.381424,668.569366 438.695251C649.255539 458.009079,638.402710 484.202957,638.402710 511.518906C638.402710 538.834854,649.255539 565.028732,668.569366 584.342560C687.883194 603.656387,714.077072 614.509216,741.393021 614.509216C768.708969 614.509216,794.902847 603.656387,814.216675 584.342560C833.530502 565.028732,844.383331 538.834854,844.383331 511.518906Z" style="stroke:rgb(25.500488%,41.000366%,88.400269%); stroke-width: 2.500000;stroke-linecap: round;stroke-linejoin: round;stroke-miterlimit: 10.000000;fill: none;"></path>
  <path d="M1004.973999 571.779327C1004.973999 544.463379,994.121170 518.269501,974.807343 498.955673C955.493515 479.641846,929.299637 468.789017,901.983688 468.789017C874.667740 468.789017,848.473862 479.641846,829.160034 498.955673C809.846207 518.269501,798.993378 544.463379,798.993378 571.779327C798.993378 599.095276,809.846207 625.289154,829.160034 644.602982C848.473862 663.916809,874.667740 674.769638,901.983688 674.769638C929.299637 674.769638,955.493515 663.916809,974.807343 644.602982C994.121170 625.289154,1004.973999 599.095276,1004.973999 571.779327Z" style="stroke:rgb(25.500488%,41.000366%,88.400269%); stroke-width: 2.500000;stroke-linecap: round;stroke-linejoin: round;stroke-miterlimit: 10.000000;fill: none;"></path>
  <path d="M1160.711655 628.185898C1160.711655 600.869949,1149.858826 574.676071,1130.544998 555.362244C1111.231171 536.048416,1085.037292 525.195587,1057.721344 525.195587C1030.405396 525.195587,1004.211517 536.048416,984.897690 555.362244C965.583862 574.676071,954.731033 600.869949,954.731033 628.185898C954.731033 655.501846,965.583862 681.695724,984.897690 701.009552C1004.211517 720.323380,1030.405396 731.176208,1057.721344 731.176208C1085.037292 731.176208,1111.231171 720.323380,1130.544998 701.009552C1149.858826 681.695724,1160.711655 655.501846,1160.711655 628.185898Z" style="stroke:rgb(25.500488%,41.000366%,88.400269%); stroke-width: 2.500000;stroke-linecap: round;stroke-linejoin: round;stroke-miterlimit: 10.000000;fill: none;"></path>
  <path d="M1327.180435 692.066620C1327.180435 664.750671,1316.327606 638.556793,1297.013779 619.242966C1277.699951 599.929138,1251.506073 589.076309,1224.190125 589.076309C1196.874176 589.076309,1170.680298 599.929138,1151.366470 619.242966C1132.052643 638.556793,1121.199814 664.750671,1121.199814 692.066620C1121.199814 719.382568,1132.052643 745.576447,1151.366470 764.890274C1170.680298 784.204102,1196.874176 795.056931,1224.190125 795.056931C1251.506073 795.056931,1277.699951 784.204102,1297.013779 764.890274C1316.327606 745.576447,1327.180435 719.382568,1327.180435 692.066620Z" style="stroke:rgb(25.500488%,41.000366%,88.400269%); stroke-width: 2.500000;stroke-linecap: round;stroke-linejoin: round;stroke-miterlimit: 10.000000;fill: none;"></path>
  <path d="M1500.811966 744.230042C1500.811966 716.914093,1489.959137 690.720215,1470.645309 671.406387C1451.331482 652.092560,1425.137604 641.239731,1397.821655 641.239731C1370.505707 641.239731,1344.311829 652.092560,1324.998001 671.406387C1305.684174 690.720215,1294.831345 716.914093,1294.831345 744.230042C1294.831345 771.545990,1305.684174 797.739868,1324.998001 817.053696C1344.311829 836.367523,1370.505707 847.220352,1397.821655 847.220352C1425.137604 847.220352,1451.331482 836.367523,1470.645309 817.053696C1489.959137 797.739868,1500.811966 771.545990,1500.811966 744.230042Z" style="stroke:rgb(25.500488%,41.000366%,88.400269%); stroke-width: 2.500000;stroke-linecap: round;stroke-linejoin: round;stroke-miterlimit: 10.000000;fill: none;"></path>
  <path d="M1658.067810 812.691299C1658.067810 785.375351,1647.214981 759.181473,1627.901154 739.867645C1608.587326 720.553818,1582.393448 709.700989,1555.077499 709.700989C1527.761551 709.700989,1501.567673 720.553818,1482.253845 739.867645C1462.940018 759.181473,1452.087189 785.375351,1452.087189 812.691299C1452.087189 840.007248,1462.940018 866.201126,1482.253845 885.514954C1501.567673 904.828781,1527.761551 915.681610,1555.077499 915.681610C1582.393448 915.681610,1608.587326 904.828781,1627.901154 885.514954C1647.214981 866.201126,1658.067810 840.007248,1658.067810 812.691299Z" style="stroke:rgb(25.500488%,41.000366%,88.400269%); stroke-width: 2.500000;stroke-linecap: round;stroke-linejoin: round;stroke-miterlimit: 10.000000;fill: none;"></path>
  <path d="M622.221649 302.424042C622.221649 275.108093,611.368820 248.914215,592.054993 229.600388C572.741165 210.286560,546.547287 199.433731,519.231339 199.433731C491.915390 199.433731,465.721512 210.286560,446.407684 229.600388C427.093857 248.914215,416.241028 275.108093,416.241028 302.424042C416.241028 329.739990,427.093857 355.933868,446.407684 375.247696C465.721512 394.561523,491.915390 405.414352,519.231339 405.414352C546.547287 405.414352,572.741165 394.561523,592.054993 375.247696C611.368820 355.933868,622.221649 329.739990,622.221649 302.424042Z" style="stroke:rgb(25.500488%,41.000366%,88.400269%); stroke-width: 2.500000;stroke-linecap: round;stroke-linejoin: round;stroke-miterlimit: 10.000000;fill: none;"></path>
  <path d="M803.080795 366.888687C803.080795 339.572739,792.227966 313.378860,772.914139 294.065033C753.600311 274.751205,727.406433 263.898376,700.090485 263.898376C672.774536 263.898376,646.580658 274.751205,627.266830 294.065033C607.953003 313.378860,597.100174 339.572739,597.100174 366.888687C597.100174 394.204636,607.953003 420.398514,627.266830 439.712341C646.580658 459.026169,672.774536 469.878998,700.090485 469.878998C727.406433 469.878998,753.600311 459.026169,772.914139 439.712341C792.227966 420.398514,803.080795 394.204636,803.080795 366.888687Z" style="stroke:rgb(25.500488%,41.000366%,88.400269%); stroke-width: 2.500000;stroke-linecap: round;stroke-linejoin: round;stroke-miterlimit: 10.000000;fill: none;"></path>
  <path d="M991.738495 396.603668C991.738495 369.287720,980.885666 343.093842,961.571838 323.780014C942.258011 304.466187,916.064133 293.613358,888.748184 293.613358C861.432236 293.613358,835.238358 304.466187,815.924530 323.780014C796.610703 343.093842,785.757874 369.287720,785.757874 396.603668C785.757874 423.919617,796.610703 450.113495,815.924530 469.427322C835.238358 488.741150,861.432236 499.593979,888.748184 499.593979C916.064133 499.593979,942.258011 488.741150,961.571838 469.427322C980.885666 450.113495,991.738495 423.919617,991.738495 396.603668Z" style="stroke:rgb(25.500488%,41.000366%,88.400269%); stroke-width: 2.500000;stroke-linecap: round;stroke-linejoin: round;stroke-miterlimit: 10.000000;fill: none;"></path>
  <path d="M1143.323853 447.326752C1143.323853 420.010803,1132.471024 393.816925,1113.157196 374.503098C1093.843369 355.189270,1067.649490 344.336441,1040.333542 344.336441C1013.017593 344.336441,986.823715 355.189270,967.509888 374.503098C948.196060 393.816925,937.343231 420.010803,937.343231 447.326752C937.343231 474.642700,948.196060 500.836578,967.509888 520.150406C986.823715 539.464233,1013.017593 550.317062,1040.333542 550.317062C1067.649490 550.317062,1093.843369 539.464233,1113.157196 520.150406C1132.471024 500.836578,1143.323853 474.642700,1143.323853 447.326752Z" style="stroke:rgb(25.500488%,41.000366%,88.400269%); stroke-width: 2.500000;stroke-linecap: round;stroke-linejoin: round;stroke-miterlimit: 10.000000;fill: none;"></path>
  <path d="M1295.570969 514.464447C1295.570969 487.148499,1284.718140 460.954620,1265.404312 441.640793C1246.090485 422.326965,1219.896606 411.474136,1192.580658 411.474136C1165.264709 411.474136,1139.070831 422.326965,1119.757004 441.640793C1100.443176 460.954620,1089.590347 487.148499,1089.590347 514.464447C1089.590347 541.780396,1100.443176 567.974274,1119.757004 587.288101C1139.070831 606.601929,1165.264709 617.454758,1192.580658 617.454758C1219.896606 617.454758,1246.090485 606.601929,1265.404312 587.288101C1284.718140 567.974274,1295.570969 541.780396,1295.570969 514.464447Z" style="stroke:rgb(25.500488%,41.000366%,88.400269%); stroke-width: 2.500000;stroke-linecap: round;stroke-linejoin: round;stroke-miterlimit: 10.000000;fill: none;"></path>
  <path d="M1463.116760 601.260757C1463.116760 573.944809,1452.263931 547.750931,1432.950104 528.437103C1413.636276 509.123276,1387.442398 498.270447,1360.126450 498.270447C1332.810501 498.270447,1306.616623 509.123276,1287.302795 528.437103C1267.988968 547.750931,1257.136139 573.944809,1257.136139 601.260757C1257.136139 628.576706,1267.988968 654.770584,1287.302795 674.084412C1306.616623 693.398239,1332.810501 704.251068,1360.126450 704.251068C1387.442398 704.251068,1413.636276 693.398239,1432.950104 674.084412C1452.263931 654.770584,1463.116760 628.576706,1463.116760 601.260757Z" style="stroke:rgb(25.500488%,41.000366%,88.400269%); stroke-width: 2.500000;stroke-linecap: round;stroke-linejoin: round;stroke-miterlimit: 10.000000;fill: none;"></path>
  <path d="M1652.708740 636.386719C1652.708740 609.070770,1641.855911 582.876892,1622.542084 563.563065C1603.228256 544.249237,1577.034378 533.396408,1549.718430 533.396408C1522.402481 533.396408,1496.208603 544.249237,1476.894775 563.563065C1457.580948 582.876892,1446.728119 609.070770,1446.728119 636.386719C1446.728119 663.702667,1457.580948 689.896545,1476.894775 709.210373C1496.208603 728.524200,1522.402481 739.377029,1549.718430 739.377029C1577.034378 739.377029,1603.228256 728.524200,1622.542084 709.210373C1641.855911 689.896545,1652.708740 663.702667,1652.708740 636.386719Z" style="stroke:rgb(25.500488%,41.000366%,88.400269%); stroke-width: 2.500000;stroke-linecap: round;stroke-linejoin: round;stroke-miterlimit: 10.000000;fill: none;"></path>
  <path d="M770.186691 206.881927C770.186691 179.565979,759.333862 153.372101,740.020035 134.058273C720.706207 114.744446,694.512329 103.891617,667.196381 103.891617C639.880432 103.891617,613.686554 114.744446,594.372726 134.058273C575.058899 153.372101,564.206070 179.565979,564.206070 206.881927C564.206070 234.197876,575.058899 260.391754,594.372726 279.705582C613.686554 299.019409,639.880432 309.872238,667.196381 309.872238C694.512329 309.872238,720.706207 299.019409,740.020035 279.705582C759.333862 260.391754,770.186691 234.197876,770.186691 206.881927Z" style="stroke:rgb(25.500488%,41.000366%,88.400269%); stroke-width: 2.500000;stroke-linecap: round;stroke-linejoin: round;stroke-miterlimit: 10.000000;fill: none;"></path>
  <path d="M950.929062 268.465912C950.929062 241.149963,940.076233 214.956085,920.762405 195.642258C901.448578 176.328430,875.254700 165.475601,847.938751 165.475601C820.622803 165.475601,794.428925 176.328430,775.115097 195.642258C755.801270 214.956085,744.948441 241.149963,744.948441 268.465912C744.948441 295.781860,755.801270 321.975739,775.115097 341.289566C794.428925 360.603394,820.622803 371.456223,847.938751 371.456223C875.254700 371.456223,901.448578 360.603394,920.762405 341.289566C940.076233 321.975739,950.929062 295.781860,950.929062 268.465912Z" style="stroke:rgb(25.500488%,41.000366%,88.400269%); stroke-width: 2.500000;stroke-linecap: round;stroke-linejoin: round;stroke-miterlimit: 10.000000;fill: none;"></path>
  <path d="M1142.078156 272.618225C1142.078156 245.302277,1131.225327 219.108398,1111.911499 199.794571C1092.597672 180.480743,1066.403793 169.627914,1039.087845 169.627914C1011.771896 169.627914,985.578018 180.480743,966.264191 199.794571C946.950363 219.108398,936.097534 245.302277,936.097534 272.618225C936.097534 299.934174,946.950363 326.128052,966.264191 345.441879C985.578018 364.755707,1011.771896 375.608536,1039.087845 375.608536C1066.403793 375.608536,1092.597672 364.755707,1111.911499 345.441879C1131.225327 326.128052,1142.078156 299.934174,1142.078156 272.618225Z" style="stroke:rgb(25.500488%,41.000366%,88.400269%); stroke-width: 2.500000;stroke-linecap: round;stroke-linejoin: round;stroke-miterlimit: 10.000000;fill: none;"></path>
  <path d="M1261.262482 323.795471C1261.262482 296.479523,1250.409653 270.285645,1231.095825 250.971817C1211.781998 231.657990,1185.588120 220.805161,1158.272171 220.805161C1130.956223 220.805161,1104.762344 231.657990,1085.448517 250.971817C1066.134689 270.285645,1055.281860 296.479523,1055.281860 323.795471C1055.281860 351.111420,1066.134689 377.305298,1085.448517 396.619125C1104.762344 415.932953,1130.956223 426.785782,1158.272171 426.785782C1185.588120 426.785782,1211.781998 415.932953,1231.095825 396.619125C1250.409653 377.305298,1261.262482 351.111420,1261.262482 323.795471Z" style="stroke:rgb(25.500488%,41.000366%,88.400269%); stroke-width: 2.500000;stroke-linecap: round;stroke-linejoin: round;stroke-miterlimit: 10.000000;fill: none;"></path>
  <path d="M1394.460876 418.247589C1394.460876 390.931641,1383.608047 364.737762,1364.294220 345.423935C1344.980392 326.110107,1318.786514 315.257278,1291.470566 315.257278C1264.154617 315.257278,1237.960739 326.110107,1218.646912 345.423935C1199.333084 364.737762,1188.480255 390.931641,1188.480255 418.247589C1188.480255 445.563538,1199.333084 471.757416,1218.646912 491.071243C1237.960739 510.385071,1264.154617 521.237900,1291.470566 521.237900C1318.786514 521.237900,1344.980392 510.385071,1364.294220 491.071243C1383.608047 471.757416,1394.460876 445.563538,1394.460876 418.247589Z" style="stroke:rgb(25.500488%,41.000366%,88.400269%); stroke-width: 2.500000;stroke-linecap: round;stroke-linejoin: round;stroke-miterlimit: 10.000000;fill: none;"></path>
  <path d="M1562.201309 496.713318C1562.201309 469.397369,1551.348480 443.203491,1532.034653 423.889664C1512.720825 404.575836,1486.526947 393.723007,1459.210999 393.723007C1431.895050 393.723007,1405.701172 404.575836,1386.387344 423.889664C1367.073517 443.203491,1356.220688 469.397369,1356.220688 496.713318C1356.220688 524.029266,1367.073517 550.223145,1386.387344 569.536972C1405.701172 588.850800,1431.895050 599.703629,1459.210999 599.703629C1486.526947 599.703629,1512.720825 588.850800,1532.034653 569.536972C1551.348480 550.223145,1562.201309 524.029266,1562.201309 496.713318Z" style="stroke:rgb(25.500488%,41.000366%,88.400269%); stroke-width: 2.500000;stroke-linecap: round;stroke-linejoin: round;stroke-miterlimit: 10.000000;fill: none;"></path>
  <path d="M907.589294 104.073273C907.589294 76.757324,896.736465 50.563446,877.422638 31.249619C858.108810 11.935791,831.914932 1.082962,804.598984 1.082962C777.283035 1.082962,751.089157 11.935791,731.775330 31.249619C712.461502 50.563446,701.608673 76.757324,701.608673 104.073273C701.608673 131.389221,712.461502 157.583099,731.775330 176.896927C751.089157 196.210754,777.283035 207.063583,804.598984 207.063583C831.914932 207.063583,858.108810 196.210754,877.422638 176.896927C896.736465 157.583099,907.589294 131.389221,907.589294 104.073273Z" style="stroke:rgb(25.500488%,41.000366%,88.400269%); stroke-width: 2.500000;stroke-linecap: round;stroke-linejoin: round;stroke-miterlimit: 10.000000;fill: none;"></path>
  <path d="M1064.767288 130.712952C1064.767288 103.397003,1053.914459 77.203125,1034.600632 57.889297C1015.286804 38.575470,989.092926 27.722641,961.776978 27.722641C934.461029 27.722641,908.267151 38.575470,888.953323 57.889297C869.639496 77.203125,858.786667 103.397003,858.786667 130.712952C858.786667 158.028900,869.639496 184.222778,888.953323 203.536606C908.267151 222.850433,934.461029 233.703262,961.776978 233.703262C989.092926 233.703262,1015.286804 222.850433,1034.600632 203.536606C1053.914459 184.222778,1064.767288 158.028900,1064.767288 130.712952Z" style="stroke:rgb(25.500488%,41.000366%,88.400269%); stroke-width: 2.500000;stroke-linecap: round;stroke-linejoin: round;stroke-miterlimit: 10.000000;fill: none;"></path>
</svg>
