<?xml version="1.0"?>
<!-- Created by MetaPost 2.00 on 2022.03.02:1201 -->
<svg version="1.1" xmlns="http://www.w3.org/2000/svg" xmlns:xlink="http://www.w3.org/1999/xlink" width="1773.642776" height="1804.045502" viewBox="0 0 1773.642776 1804.045502">
<!-- Original BoundingBox: -879.087708 -891.933929 894.555069 912.111572 -->
  <path d="M1729.393524 912.000000L1480.319672 310.680328L879.000000 61.606476L277.680328 310.680328L28.606476 912.000000L277.680328 1513.319672L879.000000 1762.393524L1480.319672 1513.319672L1729.393524 912.000000Z" style="fill: rgb(100.000000%,100.000000%,100.000000%);stroke: none;"></path>
  <path d="M1729.393524 912.000000L1480.319672 310.680328" style="stroke:rgb(0.000000%,0.000000%,0.000000%); stroke-width: 2.500000;stroke-linecap: round;stroke-linejoin: round;stroke-miterlimit: 10.000000;fill: none;"></path>
  <path d="M1480.319672 310.680328L879.000000 61.606476" style="stroke:rgb(0.000000%,0.000000%,0.000000%); stroke-width: 2.500000;stroke-linecap: round;stroke-linejoin: round;stroke-miterlimit: 10.000000;fill: none;"></path>
  <path d="M879.000000 61.606476L277.680328 310.680328" style="stroke:rgb(0.000000%,0.000000%,0.000000%); stroke-width: 2.500000;stroke-linecap: round;stroke-linejoin: round;stroke-miterlimit: 10.000000;fill: none;"></path>
  <path d="M277.680328 310.680328L28.606476 912.000000" style="stroke:rgb(0.000000%,0.000000%,0.000000%); stroke-width: 2.500000;stroke-linecap: round;stroke-linejoin: round;stroke-miterlimit: 10.000000;fill: none;"></path>
  <path d="M28.606476 912.000000L277.680328 1513.319672" style="stroke:rgb(0.000000%,0.000000%,0.000000%); stroke-width: 2.500000;stroke-linecap: round;stroke-linejoin: round;stroke-miterlimit: 10.000000;fill: none;"></path>
  <path d="M277.680328 1513.319672L879.000000 1762.393524" style="stroke:rgb(0.000000%,0.000000%,0.000000%); stroke-width: 2.500000;stroke-linecap: round;stroke-linejoin: round;stroke-miterlimit: 10.000000;fill: none;"></path>
  <path d="M879.000000 1762.393524L1480.319672 1513.319672" style="stroke:rgb(0.000000%,0.000000%,0.000000%); stroke-width: 2.500000;stroke-linecap: round;stroke-linejoin: round;stroke-miterlimit: 10.000000;fill: none;"></path>
  <path d="M1480.319672 1513.319672L1729.393524 912.000000" style="stroke:rgb(0.000000%,0.000000%,0.000000%); stroke-width: 2.500000;stroke-linecap: round;stroke-linejoin: round;stroke-miterlimit: 10.000000;fill: none;"></path>
  <path d="M1157.412521 1668.382584C1157.412521 1632.762070,1143.260223 1598.604736,1118.074615 1573.419144C1092.889023 1548.233536,1058.731689 1534.081238,1023.111176 1534.081238C987.490662 1534.081238,953.333328 1548.233536,928.147736 1573.419144C902.962128 1598.604736,888.809830 1632.762070,888.809830 1668.382584C888.809830 1704.003098,902.962128 1738.160431,928.147736 1763.346024C953.333328 1788.531631,987.490662 1802.683929,1023.111176 1802.683929C1058.731689 1802.683929,1092.889023 1788.531631,1118.074615 1763.346024C1143.260223 1738.160431,1157.412521 1704.003098,1157.412521 1668.382584Z" style="stroke:rgb(25.500488%,41.000366%,88.400269%); stroke-width: 2.500000;stroke-linecap: round;stroke-linejoin: round;stroke-miterlimit: 10.000000;fill: none;"></path>
  <path d="M1368.518677 1538.687714C1368.518677 1503.067200,1354.366379 1468.909866,1329.180771 1443.724274C1303.995178 1418.538666,1269.837845 1404.386368,1234.217331 1404.386368C1198.596817 1404.386368,1164.439484 1418.538666,1139.253891 1443.724274C1114.068283 1468.909866,1099.915985 1503.067200,1099.915985 1538.687714C1099.915985 1574.308228,1114.068283 1608.465561,1139.253891 1633.651154C1164.439484 1658.836761,1198.596817 1672.989059,1234.217331 1672.989059C1269.837845 1672.989059,1303.995178 1658.836761,1329.180771 1633.651154C1354.366379 1608.465561,1368.518677 1574.308228,1368.518677 1538.687714Z" style="stroke:rgb(25.500488%,41.000366%,88.400269%); stroke-width: 2.500000;stroke-linecap: round;stroke-linejoin: round;stroke-miterlimit: 10.000000;fill: none;"></path>
  <path d="M1530.536697 1429.326187C1530.536697 1393.705673,1516.384399 1359.548340,1491.198792 1334.362747C1466.013199 1309.177139,1431.855865 1295.024841,1396.235352 1295.024841C1360.614838 1295.024841,1326.457504 1309.177139,1301.271912 1334.362747C1276.086304 1359.548340,1261.934006 1393.705673,1261.934006 1429.326187C1261.934006 1464.946701,1276.086304 1499.104034,1301.271912 1524.289627C1326.457504 1549.475235,1360.614838 1563.627533,1396.235352 1563.627533C1431.855865 1563.627533,1466.013199 1549.475235,1491.198792 1524.289627C1516.384399 1499.104034,1530.536697 1464.946701,1530.536697 1429.326187Z" style="stroke:rgb(25.500488%,41.000366%,88.400269%); stroke-width: 2.500000;stroke-linecap: round;stroke-linejoin: round;stroke-miterlimit: 10.000000;fill: none;"></path>
  <path d="M1692.853180 1269.319427C1692.853180 1233.698914,1678.700882 1199.541580,1653.515274 1174.355988C1628.329681 1149.170380,1594.172348 1135.018082,1558.551834 1135.018082C1522.931320 1135.018082,1488.773987 1149.170380,1463.588394 1174.355988C1438.402786 1199.541580,1424.250488 1233.698914,1424.250488 1269.319427C1424.250488 1304.939941,1438.402786 1339.097275,1463.588394 1364.282867C1488.773987 1389.468475,1522.931320 1403.620773,1558.551834 1403.620773C1594.172348 1403.620773,1628.329681 1389.468475,1653.515274 1364.282867C1678.700882 1339.097275,1692.853180 1304.939941,1692.853180 1269.319427Z" style="stroke:rgb(25.500488%,41.000366%,88.400269%); stroke-width: 2.500000;stroke-linecap: round;stroke-linejoin: round;stroke-miterlimit: 10.000000;fill: none;"></path>
  <path d="M958.399994 1648.464462C958.399994 1612.843948,944.247696 1578.686615,919.062088 1553.501022C893.876495 1528.315414,859.719162 1514.163116,824.098648 1514.163116C788.478134 1514.163116,754.320801 1528.315414,729.135208 1553.501022C703.949600 1578.686615,689.797302 1612.843948,689.797302 1648.464462C689.797302 1684.084976,703.949600 1718.242310,729.135208 1743.427902C754.320801 1768.613510,788.478134 1782.765808,824.098648 1782.765808C859.719162 1782.765808,893.876495 1768.613510,919.062088 1743.427902C944.247696 1718.242310,958.399994 1684.084976,958.399994 1648.464462Z" style="stroke:rgb(25.500488%,41.000366%,88.400269%); stroke-width: 2.500000;stroke-linecap: round;stroke-linejoin: round;stroke-miterlimit: 10.000000;fill: none;"></path>
  <path d="M1129.760727 1476.948013C1129.760727 1441.327499,1115.608429 1407.170166,1090.422821 1381.984573C1065.237228 1356.798965,1031.079895 1342.646667,995.459381 1342.646667C959.838867 1342.646667,925.681534 1356.798965,900.495941 1381.984573C875.310333 1407.170166,861.158035 1441.327499,861.158035 1476.948013C861.158035 1512.568527,875.310333 1546.725861,900.495941 1571.911453C925.681534 1597.097061,959.838867 1611.249359,995.459381 1611.249359C1031.079895 1611.249359,1065.237228 1597.097061,1090.422821 1571.911453C1115.608429 1546.725861,1129.760727 1512.568527,1129.760727 1476.948013Z" style="stroke:rgb(25.500488%,41.000366%,88.400269%); stroke-width: 2.500000;stroke-linecap: round;stroke-linejoin: round;stroke-miterlimit: 10.000000;fill: none;"></path>
  <path d="M1308.647522 1330.176758C1308.647522 1294.556244,1294.495224 1260.398911,1269.309616 1235.213318C1244.124023 1210.027710,1209.966690 1195.875412,1174.346176 1195.875412C1138.725662 1195.875412,1104.568329 1210.027710,1079.382736 1235.213318C1054.197128 1260.398911,1040.044830 1294.556244,1040.044830 1330.176758C1040.044830 1365.797272,1054.197128 1399.954605,1079.382736 1425.140198C1104.568329 1450.325806,1138.725662 1464.478104,1174.346176 1464.478104C1209.966690 1464.478104,1244.124023 1450.325806,1269.309616 1425.140198C1294.495224 1399.954605,1308.647522 1365.797272,1308.647522 1330.176758Z" style="stroke:rgb(25.500488%,41.000366%,88.400269%); stroke-width: 2.500000;stroke-linecap: round;stroke-linejoin: round;stroke-miterlimit: 10.000000;fill: none;"></path>
  <path d="M1474.195023 1196.939438C1474.195023 1161.318924,1460.042725 1127.161591,1434.857117 1101.975998C1409.671524 1076.790390,1375.514191 1062.638092,1339.893677 1062.638092C1304.273163 1062.638092,1270.115829 1076.790390,1244.930237 1101.975998C1219.744629 1127.161591,1205.592331 1161.318924,1205.592331 1196.939438C1205.592331 1232.559952,1219.744629 1266.717285,1244.930237 1291.902878C1270.115829 1317.088486,1304.273163 1331.240784,1339.893677 1331.240784C1375.514191 1331.240784,1409.671524 1317.088486,1434.857117 1291.902878C1460.042725 1266.717285,1474.195023 1232.559952,1474.195023 1196.939438Z" style="stroke:rgb(25.500488%,41.000366%,88.400269%); stroke-width: 2.500000;stroke-linecap: round;stroke-linejoin: round;stroke-miterlimit: 10.000000;fill: none;"></path>
  <path d="M1662.606186 1065.765305C1662.606186 1030.144791,1648.453888 995.987457,1623.268280 970.801865C1598.082687 945.616257,1563.925354 931.463959,1528.304840 931.463959C1492.684326 931.463959,1458.526993 945.616257,1433.341400 970.801865C1408.155792 995.987457,1394.003494 1030.144791,1394.003494 1065.765305C1394.003494 1101.385818,1408.155792 1135.543152,1433.341400 1160.728745C1458.526993 1185.914352,1492.684326 1200.066650,1528.304840 1200.066650C1563.925354 1200.066650,1598.082687 1185.914352,1623.268280 1160.728745C1648.453888 1135.543152,1662.606186 1101.385818,1662.606186 1065.765305Z" style="stroke:rgb(25.500488%,41.000366%,88.400269%); stroke-width: 2.500000;stroke-linecap: round;stroke-linejoin: round;stroke-miterlimit: 10.000000;fill: none;"></path>
  <path d="M1772.305069 943.920898C1772.305069 908.300385,1758.152771 874.143051,1732.967163 848.957458C1707.781570 823.771851,1673.624237 809.619553,1638.003723 809.619553C1602.383209 809.619553,1568.225876 823.771851,1543.040283 848.957458C1517.854675 874.143051,1503.702377 908.300385,1503.702377 943.920898C1503.702377 979.541412,1517.854675 1013.698746,1543.040283 1038.884338C1568.225876 1064.069946,1602.383209 1078.222244,1638.003723 1078.222244C1673.624237 1078.222244,1707.781570 1064.069946,1732.967163 1038.884338C1758.152771 1013.698746,1772.305069 979.541412,1772.305069 943.920898Z" style="stroke:rgb(25.500488%,41.000366%,88.400269%); stroke-width: 2.500000;stroke-linecap: round;stroke-linejoin: round;stroke-miterlimit: 10.000000;fill: none;"></path>
  <path d="M761.917770 1570.206360C761.917770 1534.585846,747.765472 1500.428513,722.579865 1475.242920C697.394272 1450.057312,663.236938 1435.905014,627.616425 1435.905014C591.995911 1435.905014,557.838577 1450.057312,532.652985 1475.242920C507.467377 1500.428513,493.315079 1534.585846,493.315079 1570.206360C493.315079 1605.826874,507.467377 1639.984207,532.652985 1665.169800C557.838577 1690.355408,591.995911 1704.507706,627.616425 1704.507706C663.236938 1704.507706,697.394272 1690.355408,722.579865 1665.169800C747.765472 1639.984207,761.917770 1605.826874,761.917770 1570.206360Z" style="stroke:rgb(25.500488%,41.000366%,88.400269%); stroke-width: 2.500000;stroke-linecap: round;stroke-linejoin: round;stroke-miterlimit: 10.000000;fill: none;"></path>
  <path d="M927.037064 1411.211731C927.037064 1375.591217,912.884766 1341.433884,887.699158 1316.248291C862.513565 1291.062683,828.356232 1276.910385,792.735718 1276.910385C757.115204 1276.910385,722.957870 1291.062683,697.772278 1316.248291C672.586670 1341.433884,658.434372 1375.591217,658.434372 1411.211731C658.434372 1446.832245,672.586670 1480.989578,697.772278 1506.175171C722.957870 1531.360779,757.115204 1545.513077,792.735718 1545.513077C828.356232 1545.513077,862.513565 1531.360779,887.699158 1506.175171C912.884766 1480.989578,927.037064 1446.832245,927.037064 1411.211731Z" style="stroke:rgb(25.500488%,41.000366%,88.400269%); stroke-width: 2.500000;stroke-linecap: round;stroke-linejoin: round;stroke-miterlimit: 10.000000;fill: none;"></path>
  <path d="M1095.114868 1243.575104C1095.114868 1207.954590,1080.962570 1173.797256,1055.776962 1148.611664C1030.591370 1123.426056,996.434036 1109.273758,960.813522 1109.273758C925.193008 1109.273758,891.035675 1123.426056,865.850082 1148.611664C840.664474 1173.797256,826.512177 1207.954590,826.512177 1243.575104C826.512177 1279.195618,840.664474 1313.352951,865.850082 1338.538544C891.035675 1363.724152,925.193008 1377.876450,960.813522 1377.876450C996.434036 1377.876450,1030.591370 1363.724152,1055.776962 1338.538544C1080.962570 1313.352951,1095.114868 1279.195618,1095.114868 1243.575104Z" style="stroke:rgb(25.500488%,41.000366%,88.400269%); stroke-width: 2.500000;stroke-linecap: round;stroke-linejoin: round;stroke-miterlimit: 10.000000;fill: none;"></path>
  <path d="M1268.227356 1094.844467C1268.227356 1059.223953,1254.075058 1025.066620,1228.889450 999.881027C1203.703857 974.695419,1169.546524 960.543121,1133.926010 960.543121C1098.305496 960.543121,1064.148163 974.695419,1038.962570 999.881027C1013.776962 1025.066620,999.624664 1059.223953,999.624664 1094.844467C999.624664 1130.464981,1013.776962 1164.622314,1038.962570 1189.807907C1064.148163 1214.993515,1098.305496 1229.145813,1133.926010 1229.145813C1169.546524 1229.145813,1203.703857 1214.993515,1228.889450 1189.807907C1254.075058 1164.622314,1268.227356 1130.464981,1268.227356 1094.844467Z" style="stroke:rgb(25.500488%,41.000366%,88.400269%); stroke-width: 2.500000;stroke-linecap: round;stroke-linejoin: round;stroke-miterlimit: 10.000000;fill: none;"></path>
  <path d="M1456.430908 960.841568C1456.430908 925.221054,1442.278610 891.063721,1417.093002 865.878128C1391.907410 840.692520,1357.750076 826.540222,1322.129562 826.540222C1286.509048 826.540222,1252.351715 840.692520,1227.166122 865.878128C1201.980515 891.063721,1187.828217 925.221054,1187.828217 960.841568C1187.828217 996.462082,1201.980515 1030.619415,1227.166122 1055.805008C1252.351715 1080.990616,1286.509048 1095.142914,1322.129562 1095.142914C1357.750076 1095.142914,1391.907410 1080.990616,1417.093002 1055.805008C1442.278610 1030.619415,1456.430908 996.462082,1456.430908 960.841568Z" style="stroke:rgb(25.500488%,41.000366%,88.400269%); stroke-width: 2.500000;stroke-linecap: round;stroke-linejoin: round;stroke-miterlimit: 10.000000;fill: none;"></path>
  <path d="M1567.635010 820.130096C1567.635010 784.509583,1553.482712 750.352249,1528.297104 725.166656C1503.111511 699.981049,1468.954178 685.828751,1433.333664 685.828751C1397.713150 685.828751,1363.555817 699.981049,1338.370224 725.166656C1313.184616 750.352249,1299.032318 784.509583,1299.032318 820.130096C1299.032318 855.750610,1313.184616 889.907944,1338.370224 915.093536C1363.555817 940.279144,1397.713150 954.431442,1433.333664 954.431442C1468.954178 954.431442,1503.111511 940.279144,1528.297104 915.093536C1553.482712 889.907944,1567.635010 855.750610,1567.635010 820.130096Z" style="stroke:rgb(25.500488%,41.000366%,88.400269%); stroke-width: 2.500000;stroke-linecap: round;stroke-linejoin: round;stroke-miterlimit: 10.000000;fill: none;"></path>
  <path d="M1748.117859 712.377594C1748.117859 676.757080,1733.965561 642.599747,1708.779953 617.414154C1683.594360 592.228546,1649.437027 578.076248,1613.816513 578.076248C1578.195999 578.076248,1544.038666 592.228546,1518.853073 617.414154C1493.667465 642.599747,1479.515167 676.757080,1479.515167 712.377594C1479.515167 747.998108,1493.667465 782.155441,1518.853073 807.341034C1544.038666 832.526642,1578.195999 846.678940,1613.816513 846.678940C1649.437027 846.678940,1683.594360 832.526642,1708.779953 807.341034C1733.965561 782.155441,1748.117859 747.998108,1748.117859 712.377594Z" style="stroke:rgb(25.500488%,41.000366%,88.400269%); stroke-width: 2.500000;stroke-linecap: round;stroke-linejoin: round;stroke-miterlimit: 10.000000;fill: none;"></path>
  <path d="M573.908859 1483.423035C573.908859 1447.802521,559.756561 1413.645187,534.570953 1388.459595C509.385361 1363.273987,475.228027 1349.121689,439.607513 1349.121689C403.987000 1349.121689,369.829666 1363.273987,344.644073 1388.459595C319.458466 1413.645187,305.306168 1447.802521,305.306168 1483.423035C305.306168 1519.043549,319.458466 1553.200882,344.644073 1578.386475C369.829666 1603.572083,403.987000 1617.724380,439.607513 1617.724380C475.228027 1617.724380,509.385361 1603.572083,534.570953 1578.386475C559.756561 1553.200882,573.908859 1519.043549,573.908859 1483.423035Z" style="stroke:rgb(25.500488%,41.000366%,88.400269%); stroke-width: 2.500000;stroke-linecap: round;stroke-linejoin: round;stroke-miterlimit: 10.000000;fill: none;"></path>
  <path d="M735.394882 1320.392868C735.394882 1284.772354,721.242584 1250.615021,696.056976 1225.429428C670.871384 1200.243820,636.714050 1186.091522,601.093536 1186.091522C565.473022 1186.091522,531.315689 1200.243820,506.130096 1225.429428C480.944489 1250.615021,466.792191 1284.772354,466.792191 1320.392868C466.792191 1356.013382,480.944489 1390.170715,506.130096 1415.356308C531.315689 1440.541916,565.473022 1454.694214,601.093536 1454.694214C636.714050 1454.694214,670.871384 1440.541916,696.056976 1415.356308C721.242584 1390.170715,735.394882 1356.013382,735.394882 1320.392868Z" style="stroke:rgb(25.500488%,41.000366%,88.400269%); stroke-width: 2.500000;stroke-linecap: round;stroke-linejoin: round;stroke-miterlimit: 10.000000;fill: none;"></path>
  <path d="M898.619675 1167.133621C898.619675 1131.513107,884.467377 1097.355774,859.281769 1072.170181C834.096176 1046.984573,799.938843 1032.832275,764.318329 1032.832275C728.697815 1032.832275,694.540482 1046.984573,669.354889 1072.170181C644.169281 1097.355774,630.016983 1131.513107,630.016983 1167.133621C630.016983 1202.754135,644.169281 1236.911469,669.354889 1262.097061C694.540482 1287.282669,728.697815 1301.434967,764.318329 1301.434967C799.938843 1301.434967,834.096176 1287.282669,859.281769 1262.097061C884.467377 1236.911469,898.619675 1202.754135,898.619675 1167.133621Z" style="stroke:rgb(25.500488%,41.000366%,88.400269%); stroke-width: 2.500000;stroke-linecap: round;stroke-linejoin: round;stroke-miterlimit: 10.000000;fill: none;"></path>
  <path d="M1067.450089 999.743546C1067.450089 964.123032,1053.297791 929.965698,1028.112183 904.780106C1002.926590 879.594498,968.769257 865.442200,933.148743 865.442200C897.528229 865.442200,863.370895 879.594498,838.185303 904.780106C812.999695 929.965698,798.847397 964.123032,798.847397 999.743546C798.847397 1035.364059,812.999695 1069.521393,838.185303 1094.706985C863.370895 1119.892593,897.528229 1134.044891,933.148743 1134.044891C968.769257 1134.044891,1002.926590 1119.892593,1028.112183 1094.706985C1053.297791 1069.521393,1067.450089 1035.364059,1067.450089 999.743546Z" style="stroke:rgb(25.500488%,41.000366%,88.400269%); stroke-width: 2.500000;stroke-linecap: round;stroke-linejoin: round;stroke-miterlimit: 10.000000;fill: none;"></path>
  <path d="M1254.511749 856.281158C1254.511749 820.660645,1240.359451 786.503311,1215.173843 761.317719C1189.988251 736.132111,1155.830917 721.979813,1120.210403 721.979813C1084.589890 721.979813,1050.432556 736.132111,1025.246964 761.317719C1000.061356 786.503311,985.909058 820.660645,985.909058 856.281158C985.909058 891.901672,1000.061356 926.059006,1025.246964 951.244598C1050.432556 976.430206,1084.589890 990.582504,1120.210403 990.582504C1155.830917 990.582504,1189.988251 976.430206,1215.173843 951.244598C1240.359451 926.059006,1254.511749 891.901672,1254.511749 856.281158Z" style="stroke:rgb(25.500488%,41.000366%,88.400269%); stroke-width: 2.500000;stroke-linecap: round;stroke-linejoin: round;stroke-miterlimit: 10.000000;fill: none;"></path>
  <path d="M1412.870560 713.026398C1412.870560 677.405884,1398.718262 643.248550,1373.532654 618.062958C1348.347061 592.877350,1314.189728 578.725052,1278.569214 578.725052C1242.948700 578.725052,1208.791367 592.877350,1183.605774 618.062958C1158.420166 643.248550,1144.267868 677.405884,1144.267868 713.026398C1144.267868 748.646912,1158.420166 782.804245,1183.605774 807.989838C1208.791367 833.175446,1242.948700 847.327744,1278.569214 847.327744C1314.189728 847.327744,1348.347061 833.175446,1373.532654 807.989838C1398.718262 782.804245,1412.870560 748.646912,1412.870560 713.026398Z" style="stroke:rgb(25.500488%,41.000366%,88.400269%); stroke-width: 2.500000;stroke-linecap: round;stroke-linejoin: round;stroke-miterlimit: 10.000000;fill: none;"></path>
  <path d="M1593.599945 562.660797C1593.599945 527.040283,1579.447647 492.882950,1554.262039 467.697357C1529.076447 442.511749,1494.919113 428.359451,1459.298599 428.359451C1423.678085 428.359451,1389.520752 442.511749,1364.335159 467.697357C1339.149551 492.882950,1324.997253 527.040283,1324.997253 562.660797C1324.997253 598.281311,1339.149551 632.438644,1364.335159 657.624237C1389.520752 682.809845,1423.678085 696.962143,1459.298599 696.962143C1494.919113 696.962143,1529.076447 682.809845,1554.262039 657.624237C1579.447647 632.438644,1593.599945 598.281311,1593.599945 562.660797Z" style="stroke:rgb(25.500488%,41.000366%,88.400269%); stroke-width: 2.500000;stroke-linecap: round;stroke-linejoin: round;stroke-miterlimit: 10.000000;fill: none;"></path>
  <path d="M401.003998 1401.778198C401.003998 1366.157684,386.851700 1332.000351,361.666092 1306.814758C336.480499 1281.629150,302.323166 1267.476852,266.702652 1267.476852C231.082138 1267.476852,196.924805 1281.629150,171.739212 1306.814758C146.553604 1332.000351,132.401306 1366.157684,132.401306 1401.778198C132.401306 1437.398712,146.553604 1471.556046,171.739212 1496.741638C196.924805 1521.927246,231.082138 1536.079544,266.702652 1536.079544C302.323166 1536.079544,336.480499 1521.927246,361.666092 1496.741638C386.851700 1471.556046,401.003998 1437.398712,401.003998 1401.778198Z" style="stroke:rgb(25.500488%,41.000366%,88.400269%); stroke-width: 2.500000;stroke-linecap: round;stroke-linejoin: round;stroke-miterlimit: 10.000000;fill: none;"></path>
  <path d="M537.524231 1236.697830C537.524231 1201.077316,523.371933 1166.919983,498.186325 1141.734390C473.000732 1116.548782,438.843399 1102.396484,403.222885 1102.396484C367.602371 1102.396484,333.445038 1116.548782,308.259445 1141.734390C283.073837 1166.919983,268.921539 1201.077316,268.921539 1236.697830C268.921539 1272.318344,283.073837 1306.475677,308.259445 1331.661270C333.445038 1356.846878,367.602371 1370.999176,403.222885 1370.999176C438.843399 1370.999176,473.000732 1356.846878,498.186325 1331.661270C523.371933 1306.475677,537.524231 1272.318344,537.524231 1236.697830Z" style="stroke:rgb(25.500488%,41.000366%,88.400269%); stroke-width: 2.500000;stroke-linecap: round;stroke-linejoin: round;stroke-miterlimit: 10.000000;fill: none;"></path>
  <path d="M698.672867 1073.589828C698.672867 1037.969315,684.520569 1003.811981,659.334961 978.626389C634.149368 953.440781,599.992035 939.288483,564.371521 939.288483C528.751007 939.288483,494.593674 953.440781,469.408081 978.626389C444.222473 1003.811981,430.070175 1037.969315,430.070175 1073.589828C430.070175 1109.210342,444.222473 1143.367676,469.408081 1168.553268C494.593674 1193.738876,528.751007 1207.891174,564.371521 1207.891174C599.992035 1207.891174,634.149368 1193.738876,659.334961 1168.553268C684.520569 1143.367676,698.672867 1109.210342,698.672867 1073.589828Z" style="stroke:rgb(25.500488%,41.000366%,88.400269%); stroke-width: 2.500000;stroke-linecap: round;stroke-linejoin: round;stroke-miterlimit: 10.000000;fill: none;"></path>
  <path d="M866.971268 925.728577C866.971268 890.108063,852.818970 855.950729,827.633362 830.765137C802.447769 805.579529,768.290436 791.427231,732.669922 791.427231C697.049408 791.427231,662.892075 805.579529,637.706482 830.765137C612.520874 855.950729,598.368576 890.108063,598.368576 925.728577C598.368576 961.349091,612.520874 995.506424,637.706482 1020.692017C662.892075 1045.877625,697.049408 1060.029922,732.669922 1060.029922C768.290436 1060.029922,802.447769 1045.877625,827.633362 1020.692017C852.818970 995.506424,866.971268 961.349091,866.971268 925.728577Z" style="stroke:rgb(25.500488%,41.000366%,88.400269%); stroke-width: 2.500000;stroke-linecap: round;stroke-linejoin: round;stroke-miterlimit: 10.000000;fill: none;"></path>
  <path d="M1027.964203 780.877762C1027.964203 745.257248,1013.811905 711.099915,988.626297 685.914322C963.440704 660.728714,929.283371 646.576416,893.662857 646.576416C858.042343 646.576416,823.885010 660.728714,798.699417 685.914322C773.513809 711.099915,759.361511 745.257248,759.361511 780.877762C759.361511 816.498276,773.513809 850.655609,798.699417 875.841202C823.885010 901.026810,858.042343 915.179108,893.662857 915.179108C929.283371 915.179108,963.440704 901.026810,988.626297 875.841202C1013.811905 850.655609,1027.964203 816.498276,1027.964203 780.877762Z" style="stroke:rgb(25.500488%,41.000366%,88.400269%); stroke-width: 2.500000;stroke-linecap: round;stroke-linejoin: round;stroke-miterlimit: 10.000000;fill: none;"></path>
  <path d="M1185.181122 628.176483C1185.181122 592.555969,1171.028824 558.398636,1145.843216 533.213043C1120.657623 508.027435,1086.500290 493.875137,1050.879776 493.875137C1015.259262 493.875137,981.101929 508.027435,955.916336 533.213043C930.730728 558.398636,916.578430 592.555969,916.578430 628.176483C916.578430 663.796997,930.730728 697.954330,955.916336 723.139923C981.101929 748.325531,1015.259262 762.477829,1050.879776 762.477829C1086.500290 762.477829,1120.657623 748.325531,1145.843216 723.139923C1171.028824 697.954330,1185.181122 663.796997,1185.181122 628.176483Z" style="stroke:rgb(25.500488%,41.000366%,88.400269%); stroke-width: 2.500000;stroke-linecap: round;stroke-linejoin: round;stroke-miterlimit: 10.000000;fill: none;"></path>
  <path d="M1367.830948 491.863861C1367.830948 456.243347,1353.678650 422.086014,1328.493042 396.900421C1303.307449 371.714813,1269.150116 357.562515,1233.529602 357.562515C1197.909088 357.562515,1163.751755 371.714813,1138.566162 396.900421C1113.380554 422.086014,1099.228256 456.243347,1099.228256 491.863861C1099.228256 527.484375,1113.380554 561.641708,1138.566162 586.827301C1163.751755 612.012909,1197.909088 626.165207,1233.529602 626.165207C1269.150116 626.165207,1303.307449 612.012909,1328.493042 586.827301C1353.678650 561.641708,1367.830948 527.484375,1367.830948 491.863861Z" style="stroke:rgb(25.500488%,41.000366%,88.400269%); stroke-width: 2.500000;stroke-linecap: round;stroke-linejoin: round;stroke-miterlimit: 10.000000;fill: none;"></path>
  <path d="M1573.253616 367.450211C1573.253616 331.829697,1559.101318 297.672363,1533.915710 272.486771C1508.730118 247.301163,1474.572784 233.148865,1438.952271 233.148865C1403.331757 233.148865,1369.174423 247.301163,1343.988831 272.486771C1318.803223 297.672363,1304.650925 331.829697,1304.650925 367.450211C1304.650925 403.070724,1318.803223 437.228058,1343.988831 462.413651C1369.174423 487.599258,1403.331757 501.751556,1438.952271 501.751556C1474.572784 501.751556,1508.730118 487.599258,1533.915710 462.413651C1559.101318 437.228058,1573.253616 403.070724,1573.253616 367.450211Z" style="stroke:rgb(25.500488%,41.000366%,88.400269%); stroke-width: 2.500000;stroke-linecap: round;stroke-linejoin: round;stroke-miterlimit: 10.000000;fill: none;"></path>
  <path d="M326.911179 1159.685425C326.911179 1124.064911,312.758881 1089.907578,287.573273 1064.721985C262.387680 1039.536377,228.230347 1025.384079,192.609833 1025.384079C156.989319 1025.384079,122.831985 1039.536377,97.646393 1064.721985C72.460785 1089.907578,58.308487 1124.064911,58.308487 1159.685425C58.308487 1195.305939,72.460785 1229.463272,97.646393 1254.648865C122.831985 1279.834473,156.989319 1293.986771,192.609833 1293.986771C228.230347 1293.986771,262.387680 1279.834473,287.573273 1254.648865C312.758881 1229.463272,326.911179 1195.305939,326.911179 1159.685425Z" style="stroke:rgb(25.500488%,41.000366%,88.400269%); stroke-width: 2.500000;stroke-linecap: round;stroke-linejoin: round;stroke-miterlimit: 10.000000;fill: none;"></path>
  <path d="M488.410172 998.043686C488.410172 962.423172,474.257874 928.265839,449.072266 903.080246C423.886673 877.894638,389.729340 863.742340,354.108826 863.742340C318.488312 863.742340,284.330978 877.894638,259.145386 903.080246C233.959778 928.265839,219.807480 962.423172,219.807480 998.043686C219.807480 1033.664200,233.959778 1067.821533,259.145386 1093.007126C284.330978 1118.192734,318.488312 1132.345032,354.108826 1132.345032C389.729340 1132.345032,423.886673 1118.192734,449.072266 1093.007126C474.257874 1067.821533,488.410172 1033.664200,488.410172 998.043686Z" style="stroke:rgb(25.500488%,41.000366%,88.400269%); stroke-width: 2.500000;stroke-linecap: round;stroke-linejoin: round;stroke-miterlimit: 10.000000;fill: none;"></path>
  <path d="M654.009567 836.064590C654.009567 800.444077,639.857269 766.286743,614.671661 741.101151C589.486069 715.915543,555.328735 701.763245,519.708221 701.763245C484.087708 701.763245,449.930374 715.915543,424.744781 741.101151C399.559174 766.286743,385.406876 800.444077,385.406876 836.064590C385.406876 871.685104,399.559174 905.842438,424.744781 931.028030C449.930374 956.213638,484.087708 970.365936,519.708221 970.365936C555.328735 970.365936,589.486069 956.213638,614.671661 931.028030C639.857269 905.842438,654.009567 871.685104,654.009567 836.064590Z" style="stroke:rgb(25.500488%,41.000366%,88.400269%); stroke-width: 2.500000;stroke-linecap: round;stroke-linejoin: round;stroke-miterlimit: 10.000000;fill: none;"></path>
  <path d="M810.149475 689.591782C810.149475 653.971268,795.997177 619.813934,770.811569 594.628342C745.625977 569.442734,711.468643 555.290436,675.848129 555.290436C640.227615 555.290436,606.070282 569.442734,580.884689 594.628342C555.699081 619.813934,541.546783 653.971268,541.546783 689.591782C541.546783 725.212296,555.699081 759.369629,580.884689 784.555222C606.070282 809.740829,640.227615 823.893127,675.848129 823.893127C711.468643 823.893127,745.625977 809.740829,770.811569 784.555222C795.997177 759.369629,810.149475 725.212296,810.149475 689.591782Z" style="stroke:rgb(25.500488%,41.000366%,88.400269%); stroke-width: 2.500000;stroke-linecap: round;stroke-linejoin: round;stroke-miterlimit: 10.000000;fill: none;"></path>
  <path d="M968.287689 544.182999C968.287689 508.562485,954.135391 474.405151,928.949783 449.219559C903.764191 424.033951,869.606857 409.881653,833.986343 409.881653C798.365829 409.881653,764.208496 424.033951,739.022903 449.219559C713.837296 474.405151,699.684998 508.562485,699.684998 544.182999C699.684998 579.803513,713.837296 613.960846,739.022903 639.146439C764.208496 664.332047,798.365829 678.484344,833.986343 678.484344C869.606857 678.484344,903.764191 664.332047,928.949783 639.146439C954.135391 613.960846,968.287689 579.803513,968.287689 544.182999Z" style="stroke:rgb(25.500488%,41.000366%,88.400269%); stroke-width: 2.500000;stroke-linecap: round;stroke-linejoin: round;stroke-miterlimit: 10.000000;fill: none;"></path>
  <path d="M1153.688431 399.993958C1153.688431 364.373444,1139.536133 330.216110,1114.350525 305.030518C1089.164932 279.844910,1055.007599 265.692612,1019.387085 265.692612C983.766571 265.692612,949.609238 279.844910,924.423645 305.030518C899.238037 330.216110,885.085739 364.373444,885.085739 399.993958C885.085739 435.614471,899.238037 469.771805,924.423645 494.957397C949.609238 520.143005,983.766571 534.295303,1019.387085 534.295303C1055.007599 534.295303,1089.164932 520.143005,1114.350525 494.957397C1139.536133 469.771805,1153.688431 435.614471,1153.688431 399.993958Z" style="stroke:rgb(25.500488%,41.000366%,88.400269%); stroke-width: 2.500000;stroke-linecap: round;stroke-linejoin: round;stroke-miterlimit: 10.000000;fill: none;"></path>
  <path d="M1358.656937 270.883011C1358.656937 235.262497,1344.504639 201.105164,1319.319031 175.919571C1294.133438 150.733963,1259.976105 136.581665,1224.355591 136.581665C1188.735077 136.581665,1154.577744 150.733963,1129.392151 175.919571C1104.206543 201.105164,1090.054245 235.262497,1090.054245 270.883011C1090.054245 306.503525,1104.206543 340.660858,1129.392151 365.846451C1154.577744 391.032059,1188.735077 405.184357,1224.355591 405.184357C1259.976105 405.184357,1294.133438 391.032059,1319.319031 365.846451C1344.504639 340.660858,1358.656937 306.503525,1358.656937 270.883011Z" style="stroke:rgb(25.500488%,41.000366%,88.400269%); stroke-width: 2.500000;stroke-linecap: round;stroke-linejoin: round;stroke-miterlimit: 10.000000;fill: none;"></path>
  <path d="M278.355072 944.452911C278.355072 908.832397,264.202774 874.675064,239.017166 849.489471C213.831573 824.303864,179.674240 810.151566,144.053726 810.151566C108.433212 810.151566,74.275879 824.303864,49.090286 849.489471C23.904678 874.675064,9.752380 908.832397,9.752380 944.452911C9.752380 980.073425,23.904678 1014.230759,49.090286 1039.416351C74.275879 1064.601959,108.433212 1078.754257,144.053726 1078.754257C179.674240 1078.754257,213.831573 1064.601959,239.017166 1039.416351C264.202774 1014.230759,278.355072 980.073425,278.355072 944.452911Z" style="stroke:rgb(25.500488%,41.000366%,88.400269%); stroke-width: 2.500000;stroke-linecap: round;stroke-linejoin: round;stroke-miterlimit: 10.000000;fill: none;"></path>
  <path d="M443.292694 766.292770C443.292694 730.672256,429.140396 696.514923,403.954788 671.329330C378.769196 646.143723,344.611862 631.991425,308.991348 631.991425C273.370834 631.991425,239.213501 646.143723,214.027908 671.329330C188.842300 696.514923,174.690002 730.672256,174.690002 766.292770C174.690002 801.913284,188.842300 836.070618,214.027908 861.256210C239.213501 886.441818,273.370834 900.594116,308.991348 900.594116C344.611862 900.594116,378.769196 886.441818,403.954788 861.256210C429.140396 836.070618,443.292694 801.913284,443.292694 766.292770Z" style="stroke:rgb(25.500488%,41.000366%,88.400269%); stroke-width: 2.500000;stroke-linecap: round;stroke-linejoin: round;stroke-miterlimit: 10.000000;fill: none;"></path>
  <path d="M595.007797 596.995224C595.007797 561.374710,580.855499 527.217377,555.669891 502.031784C530.484299 476.846176,496.326965 462.693878,460.706451 462.693878C425.085938 462.693878,390.928604 476.846176,365.743011 502.031784C340.557404 527.217377,326.405106 561.374710,326.405106 596.995224C326.405106 632.615738,340.557404 666.773071,365.743011 691.958664C390.928604 717.144272,425.085938 731.296570,460.706451 731.296570C496.326965 731.296570,530.484299 717.144272,555.669891 691.958664C580.855499 666.773071,595.007797 632.615738,595.007797 596.995224Z" style="stroke:rgb(25.500488%,41.000366%,88.400269%); stroke-width: 2.500000;stroke-linecap: round;stroke-linejoin: round;stroke-miterlimit: 10.000000;fill: none;"></path>
  <path d="M740.676102 461.616867C740.676102 425.996353,726.523804 391.839020,701.338196 366.653427C676.152603 341.467819,641.995270 327.315521,606.374756 327.315521C570.754242 327.315521,536.596909 341.467819,511.411316 366.653427C486.225708 391.839020,472.073410 425.996353,472.073410 461.616867C472.073410 497.237381,486.225708 531.394714,511.411316 556.580307C536.596909 581.765915,570.754242 595.918213,606.374756 595.918213C641.995270 595.918213,676.152603 581.765915,701.338196 556.580307C726.523804 531.394714,740.676102 497.237381,740.676102 461.616867Z" style="stroke:rgb(25.500488%,41.000366%,88.400269%); stroke-width: 2.500000;stroke-linecap: round;stroke-linejoin: round;stroke-miterlimit: 10.000000;fill: none;"></path>
  <path d="M932.396133 327.159805C932.396133 291.539291,918.243835 257.381958,893.058228 232.196365C867.872635 207.010757,833.715302 192.858459,798.094788 192.858459C762.474274 192.858459,728.316940 207.010757,703.131348 232.196365C677.945740 257.381958,663.793442 291.539291,663.793442 327.159805C663.793442 362.780319,677.945740 396.937653,703.131348 422.123245C728.316940 447.308853,762.474274 461.461151,798.094788 461.461151C833.715302 461.461151,867.872635 447.308853,893.058228 422.123245C918.243835 396.937653,932.396133 362.780319,932.396133 327.159805Z" style="stroke:rgb(25.500488%,41.000366%,88.400269%); stroke-width: 2.500000;stroke-linecap: round;stroke-linejoin: round;stroke-miterlimit: 10.000000;fill: none;"></path>
  <path d="M1138.804977 188.589371C1138.804977 152.968857,1124.652679 118.811523,1099.467072 93.625931C1074.281479 68.440323,1040.124146 54.288025,1004.503632 54.288025C968.883118 54.288025,934.725784 68.440323,909.540192 93.625931C884.354584 118.811523,870.202286 152.968857,870.202286 188.589371C870.202286 224.209885,884.354584 258.367218,909.540192 283.552811C934.725784 308.738419,968.883118 322.890717,1004.503632 322.890717C1040.124146 322.890717,1074.281479 308.738419,1099.467072 283.552811C1124.652679 258.367218,1138.804977 224.209885,1138.804977 188.589371Z" style="stroke:rgb(25.500488%,41.000366%,88.400269%); stroke-width: 2.500000;stroke-linecap: round;stroke-linejoin: round;stroke-miterlimit: 10.000000;fill: none;"></path>
  <path d="M269.764984 731.919418C269.764984 696.298904,255.612686 662.141571,230.427078 636.955978C205.241486 611.770370,171.084152 597.618073,135.463638 597.618073C99.843124 597.618073,65.685791 611.770370,40.500198 636.955978C15.314590 662.141571,1.162292 696.298904,1.162292 731.919418C1.162292 767.539932,15.314590 801.697266,40.500198 826.882858C65.685791 852.068466,99.843124 866.220764,135.463638 866.220764C171.084152 866.220764,205.241486 852.068466,230.427078 826.882858C255.612686 801.697266,269.764984 767.539932,269.764984 731.919418Z" style="stroke:rgb(25.500488%,41.000366%,88.400269%); stroke-width: 2.500000;stroke-linecap: round;stroke-linejoin: round;stroke-miterlimit: 10.000000;fill: none;"></path>
  <path d="M398.733200 517.582245C398.733200 481.961731,384.580902 447.804398,359.395294 422.618805C334.209702 397.433197,300.052368 383.280899,264.431854 383.280899C228.811340 383.280899,194.654007 397.433197,169.468414 422.618805C144.282806 447.804398,130.130508 481.961731,130.130508 517.582245C130.130508 553.202759,144.282806 587.360092,169.468414 612.545685C194.654007 637.731293,228.811340 651.883591,264.431854 651.883591C300.052368 651.883591,334.209702 637.731293,359.395294 612.545685C384.580902 587.360092,398.733200 553.202759,398.733200 517.582245Z" style="stroke:rgb(25.500488%,41.000366%,88.400269%); stroke-width: 2.500000;stroke-linecap: round;stroke-linejoin: round;stroke-miterlimit: 10.000000;fill: none;"></path>
  <path d="M514.401047 365.309174C514.401047 329.688660,500.248749 295.531326,475.063141 270.345734C449.877548 245.160126,415.720215 231.007828,380.099701 231.007828C344.479187 231.007828,310.321854 245.160126,285.136261 270.345734C259.950653 295.531326,245.798355 329.688660,245.798355 365.309174C245.798355 400.929688,259.950653 435.087021,285.136261 460.272614C310.321854 485.458221,344.479187 499.610519,380.099701 499.610519C415.720215 499.610519,449.877548 485.458221,475.063141 460.272614C500.248749 435.087021,514.401047 400.929688,514.401047 365.309174Z" style="stroke:rgb(25.500488%,41.000366%,88.400269%); stroke-width: 2.500000;stroke-linecap: round;stroke-linejoin: round;stroke-miterlimit: 10.000000;fill: none;"></path>
  <path d="M706.769882 242.673233C706.769882 207.052719,692.617584 172.895386,667.431976 147.709793C642.246384 122.524185,608.089050 108.371887,572.468536 108.371887C536.848022 108.371887,502.690689 122.524185,477.505096 147.709793C452.319489 172.895386,438.167191 207.052719,438.167191 242.673233C438.167191 278.293747,452.319489 312.451080,477.505096 337.636673C502.690689 362.822281,536.848022 376.974579,572.468536 376.974579C608.089050 376.974579,642.246384 362.822281,667.431976 337.636673C692.617584 312.451080,706.769882 278.293747,706.769882 242.673233Z" style="stroke:rgb(25.500488%,41.000366%,88.400269%); stroke-width: 2.500000;stroke-linecap: round;stroke-linejoin: round;stroke-miterlimit: 10.000000;fill: none;"></path>
  <path d="M936.444641 135.439774C936.444641 99.819260,922.292343 65.661926,897.106735 40.476334C871.921143 15.290726,837.763809 1.138428,802.143295 1.138428C766.522781 1.138428,732.365448 15.290726,707.179855 40.476334C681.994247 65.661926,667.841949 99.819260,667.841949 135.439774C667.841949 171.060287,681.994247 205.217621,707.179855 230.403214C732.365448 255.588821,766.522781 269.741119,802.143295 269.741119C837.763809 269.741119,871.921143 255.588821,897.106735 230.403214C922.292343 205.217621,936.444641 171.060287,936.444641 135.439774Z" style="stroke:rgb(25.500488%,41.000366%,88.400269%); stroke-width: 2.500000;stroke-linecap: round;stroke-linejoin: round;stroke-miterlimit: 10.000000;fill: none;"></path>
</svg>
