<?xml version="1.0"?>
<!-- Created by MetaPost 2.00 on 2022.03.02:1201 -->
<svg version="1.1" xmlns="http://www.w3.org/2000/svg" xmlns:xlink="http://www.w3.org/1999/xlink" width="2011.959534" height="1861.477158" viewBox="0 0 2011.959534 1861.477158">
<!-- Original BoundingBox: -1010.664093 -947.471100 1001.295441 914.006058 -->
  <path d="M1860.393524 914.000000L1746.464462 488.803238L1435.196762 177.535538L1010.000000 63.606476L584.803238 177.535538L273.535538 488.803238L159.606476 914.000000L273.535538 1339.196762L584.803238 1650.464462L1010.000000 1764.393524L1435.196762 1650.464462L1746.464462 1339.196762L1860.393524 914.000000Z" style="fill: rgb(100.000000%,100.000000%,100.000000%);stroke: none;"></path>
  <path d="M1860.393524 914.000000L1746.464462 488.803238" style="stroke:rgb(0.000000%,0.000000%,0.000000%); stroke-width: 2.500000;stroke-linecap: round;stroke-linejoin: round;stroke-miterlimit: 10.000000;fill: none;"></path>
  <path d="M1746.464462 488.803238L1435.196762 177.535538" style="stroke:rgb(0.000000%,0.000000%,0.000000%); stroke-width: 2.500000;stroke-linecap: round;stroke-linejoin: round;stroke-miterlimit: 10.000000;fill: none;"></path>
  <path d="M1435.196762 177.535538L1010.000000 63.606476" style="stroke:rgb(0.000000%,0.000000%,0.000000%); stroke-width: 2.500000;stroke-linecap: round;stroke-linejoin: round;stroke-miterlimit: 10.000000;fill: none;"></path>
  <path d="M1010.000000 63.606476L584.803238 177.535538" style="stroke:rgb(0.000000%,0.000000%,0.000000%); stroke-width: 2.500000;stroke-linecap: round;stroke-linejoin: round;stroke-miterlimit: 10.000000;fill: none;"></path>
  <path d="M584.803238 177.535538L273.535538 488.803238" style="stroke:rgb(0.000000%,0.000000%,0.000000%); stroke-width: 2.500000;stroke-linecap: round;stroke-linejoin: round;stroke-miterlimit: 10.000000;fill: none;"></path>
  <path d="M273.535538 488.803238L159.606476 914.000000" style="stroke:rgb(0.000000%,0.000000%,0.000000%); stroke-width: 2.500000;stroke-linecap: round;stroke-linejoin: round;stroke-miterlimit: 10.000000;fill: none;"></path>
  <path d="M159.606476 914.000000L273.535538 1339.196762" style="stroke:rgb(0.000000%,0.000000%,0.000000%); stroke-width: 2.500000;stroke-linecap: round;stroke-linejoin: round;stroke-miterlimit: 10.000000;fill: none;"></path>
  <path d="M273.535538 1339.196762L584.803238 1650.464462" style="stroke:rgb(0.000000%,0.000000%,0.000000%); stroke-width: 2.500000;stroke-linecap: round;stroke-linejoin: round;stroke-miterlimit: 10.000000;fill: none;"></path>
  <path d="M584.803238 1650.464462L1010.000000 1764.393524" style="stroke:rgb(0.000000%,0.000000%,0.000000%); stroke-width: 2.500000;stroke-linecap: round;stroke-linejoin: round;stroke-miterlimit: 10.000000;fill: none;"></path>
  <path d="M1010.000000 1764.393524L1435.196762 1650.464462" style="stroke:rgb(0.000000%,0.000000%,0.000000%); stroke-width: 2.500000;stroke-linecap: round;stroke-linejoin: round;stroke-miterlimit: 10.000000;fill: none;"></path>
  <path d="M1435.196762 1650.464462L1746.464462 1339.196762" style="stroke:rgb(0.000000%,0.000000%,0.000000%); stroke-width: 2.500000;stroke-linecap: round;stroke-linejoin: round;stroke-miterlimit: 10.000000;fill: none;"></path>
  <path d="M1746.464462 1339.196762L1860.393524 914.000000" style="stroke:rgb(0.000000%,0.000000%,0.000000%); stroke-width: 2.500000;stroke-linecap: round;stroke-linejoin: round;stroke-miterlimit: 10.000000;fill: none;"></path>
  <path d="M2010.045441 887.425201C2010.045441 828.136841,1986.489731 771.283859,1944.569687 729.363831C1902.649658 687.443787,1845.796677 663.888077,1786.508316 663.888077C1727.219955 663.888077,1670.366974 687.443787,1628.446945 729.363831C1586.526901 771.283859,1562.971191 828.136841,1562.971191 887.425201C1562.971191 946.713562,1586.526901 1003.566544,1628.446945 1045.486572C1670.366974 1087.406616,1727.219955 1110.962326,1786.508316 1110.962326C1845.796677 1110.962326,1902.649658 1087.406616,1944.569687 1045.486572C1986.489731 1003.566544,2010.045441 946.713562,2010.045441 887.425201Z" style="stroke:rgb(25.500488%,41.000366%,88.400269%); stroke-width: 2.500000;stroke-linecap: round;stroke-linejoin: round;stroke-miterlimit: 10.000000;fill: none;"></path>
  <path d="M1707.121292 1485.020767C1707.121292 1425.732407,1683.565582 1368.879425,1641.645538 1326.959396C1599.725510 1285.039352,1542.872528 1261.483643,1483.584167 1261.483643C1424.295807 1261.483643,1367.442825 1285.039352,1325.522797 1326.959396C1283.602753 1368.879425,1260.047043 1425.732407,1260.047043 1485.020767C1260.047043 1544.309128,1283.602753 1601.162109,1325.522797 1643.082138C1367.442825 1685.002182,1424.295807 1708.557892,1483.584167 1708.557892C1542.872528 1708.557892,1599.725510 1685.002182,1641.645538 1643.082138C1683.565582 1601.162109,1707.121292 1544.309128,1707.121292 1485.020767Z" style="stroke:rgb(25.500488%,41.000366%,88.400269%); stroke-width: 2.500000;stroke-linecap: round;stroke-linejoin: round;stroke-miterlimit: 10.000000;fill: none;"></path>
  <path d="M1823.373062 1191.698853C1823.373062 1132.410492,1799.817352 1075.557510,1757.897308 1033.637482C1715.977280 991.717438,1659.124298 968.161728,1599.835938 968.161728C1540.547577 968.161728,1483.694595 991.717438,1441.774567 1033.637482C1399.854523 1075.557510,1376.298813 1132.410492,1376.298813 1191.698853C1376.298813 1250.987213,1399.854523 1307.840195,1441.774567 1349.760223C1483.694595 1391.680267,1540.547577 1415.235977,1599.835938 1415.235977C1659.124298 1415.235977,1715.977280 1391.680267,1757.897308 1349.760223C1799.817352 1307.840195,1823.373062 1250.987213,1823.373062 1191.698853Z" style="stroke:rgb(25.500488%,41.000366%,88.400269%); stroke-width: 2.500000;stroke-linecap: round;stroke-linejoin: round;stroke-miterlimit: 10.000000;fill: none;"></path>
  <path d="M1618.313721 908.666870C1618.313721 849.378510,1594.758011 792.525528,1552.837967 750.605499C1510.917938 708.685455,1454.064957 685.129745,1394.776596 685.129745C1335.488235 685.129745,1278.635254 708.685455,1236.715225 750.605499C1194.795181 792.525528,1171.239471 849.378510,1171.239471 908.666870C1171.239471 967.955231,1194.795181 1024.808212,1236.715225 1066.728241C1278.635254 1108.648285,1335.488235 1132.203995,1394.776596 1132.203995C1454.064957 1132.203995,1510.917938 1108.648285,1552.837967 1066.728241C1594.758011 1024.808212,1618.313721 967.955231,1618.313721 908.666870Z" style="stroke:rgb(25.500488%,41.000366%,88.400269%); stroke-width: 2.500000;stroke-linecap: round;stroke-linejoin: round;stroke-miterlimit: 10.000000;fill: none;"></path>
  <path d="M1815.263077 567.580383C1815.263077 508.292023,1791.707367 451.439041,1749.787323 409.519012C1707.867294 367.598969,1651.014313 344.043259,1591.725952 344.043259C1532.437592 344.043259,1475.584610 367.598969,1433.664581 409.519012C1391.744537 451.439041,1368.188828 508.292023,1368.188828 567.580383C1368.188828 626.868744,1391.744537 683.721725,1433.664581 725.641754C1475.584610 767.561798,1532.437592 791.117508,1591.725952 791.117508C1651.014313 791.117508,1707.867294 767.561798,1749.787323 725.641754C1791.707367 683.721725,1815.263077 626.868744,1815.263077 567.580383Z" style="stroke:rgb(25.500488%,41.000366%,88.400269%); stroke-width: 2.500000;stroke-linecap: round;stroke-linejoin: round;stroke-miterlimit: 10.000000;fill: none;"></path>
  <path d="M1361.895477 1636.683975C1361.895477 1577.395615,1338.339767 1520.542633,1296.419724 1478.622604C1254.499695 1436.702560,1197.646713 1413.146851,1138.358353 1413.146851C1079.069992 1413.146851,1022.217010 1436.702560,980.296982 1478.622604C938.376938 1520.542633,914.821228 1577.395615,914.821228 1636.683975C914.821228 1695.972336,938.376938 1752.825317,980.296982 1794.745346C1022.217010 1836.665390,1079.069992 1860.221100,1138.358353 1860.221100C1197.646713 1860.221100,1254.499695 1836.665390,1296.419724 1794.745346C1338.339767 1752.825317,1361.895477 1695.972336,1361.895477 1636.683975Z" style="stroke:rgb(25.500488%,41.000366%,88.400269%); stroke-width: 2.500000;stroke-linecap: round;stroke-linejoin: round;stroke-miterlimit: 10.000000;fill: none;"></path>
  <path d="M1412.255234 1239.956497C1412.255234 1180.668137,1388.699524 1123.815155,1346.779480 1081.895126C1304.859451 1039.975082,1248.006470 1016.419373,1188.718109 1016.419373C1129.429749 1016.419373,1072.576767 1039.975082,1030.656738 1081.895126C988.736694 1123.815155,965.180984 1180.668137,965.180984 1239.956497C965.180984 1299.244858,988.736694 1356.097839,1030.656738 1398.017868C1072.576767 1439.937912,1129.429749 1463.493622,1188.718109 1463.493622C1248.006470 1463.493622,1304.859451 1439.937912,1346.779480 1398.017868C1388.699524 1356.097839,1412.255234 1299.244858,1412.255234 1239.956497Z" style="stroke:rgb(25.500488%,41.000366%,88.400269%); stroke-width: 2.500000;stroke-linecap: round;stroke-linejoin: round;stroke-miterlimit: 10.000000;fill: none;"></path>
  <path d="M1229.722183 903.697083C1229.722183 844.408722,1206.166473 787.555740,1164.246429 745.635712C1122.326401 703.715668,1065.473419 680.159958,1006.185059 680.159958C946.896698 680.159958,890.043716 703.715668,848.123688 745.635712C806.203644 787.555740,782.647934 844.408722,782.647934 903.697083C782.647934 962.985443,806.203644 1019.838425,848.123688 1061.758453C890.043716 1103.678497,946.896698 1127.234207,1006.185059 1127.234207C1065.473419 1127.234207,1122.326401 1103.678497,1164.246429 1061.758453C1206.166473 1019.838425,1229.722183 962.985443,1229.722183 903.697083Z" style="stroke:rgb(25.500488%,41.000366%,88.400269%); stroke-width: 2.500000;stroke-linecap: round;stroke-linejoin: round;stroke-miterlimit: 10.000000;fill: none;"></path>
  <path d="M1432.290146 572.264709C1432.290146 512.976349,1408.734436 456.123367,1366.814392 414.203339C1324.894363 372.283295,1268.041382 348.727585,1208.753021 348.727585C1149.464661 348.727585,1092.611679 372.283295,1050.691650 414.203339C1008.771606 456.123367,985.215897 512.976349,985.215897 572.264709C985.215897 631.553070,1008.771606 688.406052,1050.691650 730.326080C1092.611679 772.246124,1149.464661 795.801834,1208.753021 795.801834C1268.041382 795.801834,1324.894363 772.246124,1366.814392 730.326080C1408.734436 688.406052,1432.290146 631.553070,1432.290146 572.264709Z" style="stroke:rgb(25.500488%,41.000366%,88.400269%); stroke-width: 2.500000;stroke-linecap: round;stroke-linejoin: round;stroke-miterlimit: 10.000000;fill: none;"></path>
  <path d="M1628.642593 238.302032C1628.642593 179.013672,1605.086884 122.160690,1563.166840 80.240662C1521.246811 38.320618,1464.393829 14.764908,1405.105469 14.764908C1345.817108 14.764908,1288.964127 38.320618,1247.044098 80.240662C1205.124054 122.160690,1181.568344 179.013672,1181.568344 238.302032C1181.568344 297.590393,1205.124054 354.443375,1247.044098 396.363403C1288.964127 438.283447,1345.817108 461.839157,1405.105469 461.839157C1464.393829 461.839157,1521.246811 438.283447,1563.166840 396.363403C1605.086884 354.443375,1628.642593 297.590393,1628.642593 238.302032Z" style="stroke:rgb(25.500488%,41.000366%,88.400269%); stroke-width: 2.500000;stroke-linecap: round;stroke-linejoin: round;stroke-miterlimit: 10.000000;fill: none;"></path>
  <path d="M1106.061142 1531.643448C1106.061142 1472.355087,1082.505432 1415.502106,1040.585388 1373.582077C998.665359 1331.662033,941.812378 1308.106323,882.524017 1308.106323C823.235657 1308.106323,766.382675 1331.662033,724.462646 1373.582077C682.542603 1415.502106,658.986893 1472.355087,658.986893 1531.643448C658.986893 1590.931808,682.542603 1647.784790,724.462646 1689.704819C766.382675 1731.624863,823.235657 1755.180573,882.524017 1755.180573C941.812378 1755.180573,998.665359 1731.624863,1040.585388 1689.704819C1082.505432 1647.784790,1106.061142 1590.931808,1106.061142 1531.643448Z" style="stroke:rgb(25.500488%,41.000366%,88.400269%); stroke-width: 2.500000;stroke-linecap: round;stroke-linejoin: round;stroke-miterlimit: 10.000000;fill: none;"></path>
  <path d="M1016.228470 1220.310883C1016.228470 1161.022522,992.672760 1104.169540,950.752716 1062.249512C908.832687 1020.329468,851.979706 996.773758,792.691345 996.773758C733.402985 996.773758,676.550003 1020.329468,634.629974 1062.249512C592.709930 1104.169540,569.154221 1161.022522,569.154221 1220.310883C569.154221 1279.599243,592.709930 1336.452225,634.629974 1378.372253C676.550003 1420.292297,733.402985 1443.848007,792.691345 1443.848007C851.979706 1443.848007,908.832687 1420.292297,950.752716 1378.372253C992.672760 1336.452225,1016.228470 1279.599243,1016.228470 1220.310883Z" style="stroke:rgb(25.500488%,41.000366%,88.400269%); stroke-width: 2.500000;stroke-linecap: round;stroke-linejoin: round;stroke-miterlimit: 10.000000;fill: none;"></path>
  <path d="M1047.617355 560.858826C1047.617355 501.570465,1024.061646 444.717484,982.141602 402.797455C940.221573 360.877411,883.368591 337.321701,824.080231 337.321701C764.791870 337.321701,707.938889 360.877411,666.018860 402.797455C624.098816 444.717484,600.543106 501.570465,600.543106 560.858826C600.543106 620.147186,624.098816 677.000168,666.018860 718.920197C707.938889 760.840240,764.791870 784.395950,824.080231 784.395950C883.368591 784.395950,940.221573 760.840240,982.141602 718.920197C1024.061646 677.000168,1047.617355 620.147186,1047.617355 560.858826Z" style="stroke:rgb(25.500488%,41.000366%,88.400269%); stroke-width: 2.500000;stroke-linecap: round;stroke-linejoin: round;stroke-miterlimit: 10.000000;fill: none;"></path>
  <path d="M1245.345261 229.296707C1245.345261 170.008347,1221.789551 113.155365,1179.869507 71.235336C1137.949478 29.315292,1081.096497 5.759583,1021.808136 5.759583C962.519775 5.759583,905.666794 29.315292,863.746765 71.235336C821.826721 113.155365,798.271011 170.008347,798.271011 229.296707C798.271011 288.585068,821.826721 345.438049,863.746765 387.358078C905.666794 429.278122,962.519775 452.833832,1021.808136 452.833832C1081.096497 452.833832,1137.949478 429.278122,1179.869507 387.358078C1221.789551 345.438049,1245.345261 288.585068,1245.345261 229.296707Z" style="stroke:rgb(25.500488%,41.000366%,88.400269%); stroke-width: 2.500000;stroke-linecap: round;stroke-linejoin: round;stroke-miterlimit: 10.000000;fill: none;"></path>
  <path d="M776.588150 1540.856400C776.588150 1481.568039,753.032440 1424.715057,711.112396 1382.795029C669.192368 1340.874985,612.339386 1317.319275,553.051025 1317.319275C493.762665 1317.319275,436.909683 1340.874985,394.989655 1382.795029C353.069611 1424.715057,329.513901 1481.568039,329.513901 1540.856400C329.513901 1600.144760,353.069611 1656.997742,394.989655 1698.917770C436.909683 1740.837814,493.762665 1764.393524,553.051025 1764.393524C612.339386 1764.393524,669.192368 1740.837814,711.112396 1698.917770C753.032440 1656.997742,776.588150 1600.144760,776.588150 1540.856400Z" style="stroke:rgb(25.500488%,41.000366%,88.400269%); stroke-width: 2.500000;stroke-linecap: round;stroke-linejoin: round;stroke-miterlimit: 10.000000;fill: none;"></path>
  <path d="M624.522690 1206.660156C624.522690 1147.371796,600.966980 1090.518814,559.046936 1048.598785C517.126907 1006.678741,460.273926 983.123032,400.985565 983.123032C341.697205 983.123032,284.844223 1006.678741,242.924194 1048.598785C201.004150 1090.518814,177.448441 1147.371796,177.448441 1206.660156C177.448441 1265.948517,201.004150 1322.801498,242.924194 1364.721527C284.844223 1406.641571,341.697205 1430.197281,400.985565 1430.197281C460.273926 1430.197281,517.126907 1406.641571,559.046936 1364.721527C600.966980 1322.801498,624.522690 1265.948517,624.522690 1206.660156Z" style="stroke:rgb(25.500488%,41.000366%,88.400269%); stroke-width: 2.500000;stroke-linecap: round;stroke-linejoin: round;stroke-miterlimit: 10.000000;fill: none;"></path>
  <path d="M840.235306 883.052292C840.235306 823.763931,816.679596 766.910950,774.759552 724.990921C732.839523 683.070877,675.986542 659.515167,616.698181 659.515167C557.409821 659.515167,500.556839 683.070877,458.636810 724.990921C416.716766 766.910950,393.161057 823.763931,393.161057 883.052292C393.161057 942.340652,416.716766 999.193634,458.636810 1041.113663C500.556839 1083.033707,557.409821 1106.589417,616.698181 1106.589417C675.986542 1106.589417,732.839523 1083.033707,774.759552 1041.113663C816.679596 999.193634,840.235306 942.340652,840.235306 883.052292Z" style="stroke:rgb(25.500488%,41.000366%,88.400269%); stroke-width: 2.500000;stroke-linecap: round;stroke-linejoin: round;stroke-miterlimit: 10.000000;fill: none;"></path>
  <path d="M862.878387 224.781067C862.878387 165.492706,839.322678 108.639725,797.402634 66.719696C755.482605 24.799652,698.629623 1.243942,639.341263 1.243942C580.052902 1.243942,523.199921 24.799652,481.279892 66.719696C439.359848 108.639725,415.804138 165.492706,415.804138 224.781067C415.804138 284.069427,439.359848 340.922409,481.279892 382.842438C523.199921 424.762482,580.052902 448.318192,639.341263 448.318192C698.629623 448.318192,755.482605 424.762482,797.402634 382.842438C839.322678 340.922409,862.878387 284.069427,862.878387 224.781067Z" style="stroke:rgb(25.500488%,41.000366%,88.400269%); stroke-width: 2.500000;stroke-linecap: round;stroke-linejoin: round;stroke-miterlimit: 10.000000;fill: none;"></path>
  <path d="M447.660156 871.140350C447.660156 811.851990,424.104446 754.999008,382.184402 713.078979C340.264374 671.158936,283.411392 647.603226,224.123032 647.603226C164.834671 647.603226,107.981689 671.158936,66.061661 713.078979C24.141617 754.999008,0.585907 811.851990,0.585907 871.140350C0.585907 930.428711,24.141617 987.281693,66.061661 1029.201721C107.981689 1071.121765,164.834671 1094.677475,224.123032 1094.677475C283.411392 1094.677475,340.264374 1071.121765,382.184402 1029.201721C424.104446 987.281693,447.660156 930.428711,447.660156 871.140350Z" style="stroke:rgb(25.500488%,41.000366%,88.400269%); stroke-width: 2.500000;stroke-linecap: round;stroke-linejoin: round;stroke-miterlimit: 10.000000;fill: none;"></path>
  <path d="M654.030060 546.922638C654.030060 487.634277,630.474350 430.781296,588.554306 388.861267C546.634277 346.941223,489.781296 323.385513,430.492935 323.385513C371.204575 323.385513,314.351593 346.941223,272.431564 388.861267C230.511520 430.781296,206.955811 487.634277,206.955811 546.922638C206.955811 606.210999,230.511520 663.063980,272.431564 704.984009C314.351593 746.904053,371.204575 770.459763,430.492935 770.459763C489.781296 770.459763,546.634277 746.904053,588.554306 704.984009C630.474350 663.063980,654.030060 606.210999,654.030060 546.922638Z" style="stroke:rgb(25.500488%,41.000366%,88.400269%); stroke-width: 2.500000;stroke-linecap: round;stroke-linejoin: round;stroke-miterlimit: 10.000000;fill: none;"></path>
</svg>
