<?xml version="1.0"?>
<!-- Created by MetaPost 2.00 on 2022.03.02:1201 -->
<svg version="1.1" xmlns="http://www.w3.org/2000/svg" xmlns:xlink="http://www.w3.org/1999/xlink" width="1842.026184" height="1754.282639" viewBox="0 0 1842.026184 1754.282639">
<!-- Original BoundingBox: -921.013092 -854.861572 921.013092 899.421066 -->
  <path d="M921.000000 48.606476L374.374054 247.567108L83.530548 751.333405L184.535538 1324.196762L630.143509 1698.112473L1211.856491 1698.112473L1657.464462 1324.196762L1758.469452 751.333405L1467.625946 247.567108L921.000000 48.606476Z" style="fill: rgb(100.000000%,100.000000%,100.000000%);stroke: none;"></path>
  <path d="M921.000000 48.606476L374.374054 247.567108" style="stroke:rgb(0.000000%,0.000000%,0.000000%); stroke-width: 2.500000;stroke-linecap: round;stroke-linejoin: round;stroke-miterlimit: 10.000000;fill: none;"></path>
  <path d="M374.374054 247.567108L83.530548 751.333405" style="stroke:rgb(0.000000%,0.000000%,0.000000%); stroke-width: 2.500000;stroke-linecap: round;stroke-linejoin: round;stroke-miterlimit: 10.000000;fill: none;"></path>
  <path d="M83.530548 751.333405L184.535538 1324.196762" style="stroke:rgb(0.000000%,0.000000%,0.000000%); stroke-width: 2.500000;stroke-linecap: round;stroke-linejoin: round;stroke-miterlimit: 10.000000;fill: none;"></path>
  <path d="M184.535538 1324.196762L630.143509 1698.112473" style="stroke:rgb(0.000000%,0.000000%,0.000000%); stroke-width: 2.500000;stroke-linecap: round;stroke-linejoin: round;stroke-miterlimit: 10.000000;fill: none;"></path>
  <path d="M630.143509 1698.112473L1211.856491 1698.112473" style="stroke:rgb(0.000000%,0.000000%,0.000000%); stroke-width: 2.500000;stroke-linecap: round;stroke-linejoin: round;stroke-miterlimit: 10.000000;fill: none;"></path>
  <path d="M1211.856491 1698.112473L1657.464462 1324.196762" style="stroke:rgb(0.000000%,0.000000%,0.000000%); stroke-width: 2.500000;stroke-linecap: round;stroke-linejoin: round;stroke-miterlimit: 10.000000;fill: none;"></path>
  <path d="M1657.464462 1324.196762L1758.469452 751.333405" style="stroke:rgb(0.000000%,0.000000%,0.000000%); stroke-width: 2.500000;stroke-linecap: round;stroke-linejoin: round;stroke-miterlimit: 10.000000;fill: none;"></path>
  <path d="M1758.469452 751.333405L1467.625946 247.567108" style="stroke:rgb(0.000000%,0.000000%,0.000000%); stroke-width: 2.500000;stroke-linecap: round;stroke-linejoin: round;stroke-miterlimit: 10.000000;fill: none;"></path>
  <path d="M1467.625946 247.567108L921.000000 48.606476" style="stroke:rgb(0.000000%,0.000000%,0.000000%); stroke-width: 2.500000;stroke-linecap: round;stroke-linejoin: round;stroke-miterlimit: 10.000000;fill: none;"></path>
  <path d="M1376.716263 1609.953690C1376.716263 1574.013107,1362.436798 1539.548859,1337.024887 1514.136948C1311.612976 1488.725037,1277.148727 1474.445572,1241.208145 1474.445572C1205.267563 1474.445572,1170.803314 1488.725037,1145.391403 1514.136948C1119.979492 1539.548859,1105.700027 1574.013107,1105.700027 1609.953690C1105.700027 1645.894272,1119.979492 1680.358521,1145.391403 1705.770432C1170.803314 1731.182343,1205.267563 1745.461807,1241.208145 1745.461807C1277.148727 1745.461807,1311.612976 1731.182343,1337.024887 1705.770432C1362.436798 1680.358521,1376.716263 1645.894272,1376.716263 1609.953690Z" style="stroke:rgb(25.500488%,41.000366%,88.400269%); stroke-width: 2.500000;stroke-linecap: round;stroke-linejoin: round;stroke-miterlimit: 10.000000;fill: none;"></path>
  <path d="M1554.409271 1439.786758C1554.409271 1403.846176,1540.129807 1369.381927,1514.717896 1343.970016C1489.305984 1318.558105,1454.841736 1304.278641,1418.901154 1304.278641C1382.960571 1304.278641,1348.496323 1318.558105,1323.084412 1343.970016C1297.672501 1369.381927,1283.393036 1403.846176,1283.393036 1439.786758C1283.393036 1475.727341,1297.672501 1510.191589,1323.084412 1535.603500C1348.496323 1561.015411,1382.960571 1575.294876,1418.901154 1575.294876C1454.841736 1575.294876,1489.305984 1561.015411,1514.717896 1535.603500C1540.129807 1510.191589,1554.409271 1475.727341,1554.409271 1439.786758Z" style="stroke:rgb(25.500488%,41.000366%,88.400269%); stroke-width: 2.500000;stroke-linecap: round;stroke-linejoin: round;stroke-miterlimit: 10.000000;fill: none;"></path>
  <path d="M1689.476196 1277.405396C1689.476196 1241.464813,1675.196732 1207.000565,1649.784821 1181.588654C1624.372910 1156.176743,1589.908661 1141.897278,1553.968079 1141.897278C1518.027496 1141.897278,1483.563248 1156.176743,1458.151337 1181.588654C1432.739426 1207.000565,1418.459961 1241.464813,1418.459961 1277.405396C1418.459961 1313.345978,1432.739426 1347.810226,1458.151337 1373.222137C1483.563248 1398.634048,1518.027496 1412.913513,1553.968079 1412.913513C1589.908661 1412.913513,1624.372910 1398.634048,1649.784821 1373.222137C1675.196732 1347.810226,1689.476196 1313.345978,1689.476196 1277.405396Z" style="stroke:rgb(25.500488%,41.000366%,88.400269%); stroke-width: 2.500000;stroke-linecap: round;stroke-linejoin: round;stroke-miterlimit: 10.000000;fill: none;"></path>
  <path d="M1774.403961 1088.293533C1774.403961 1052.352951,1760.124496 1017.888702,1734.712585 992.476791C1709.300674 967.064880,1674.836426 952.785416,1638.895844 952.785416C1602.955261 952.785416,1568.491013 967.064880,1543.079102 992.476791C1517.667191 1017.888702,1503.387726 1052.352951,1503.387726 1088.293533C1503.387726 1124.234116,1517.667191 1158.698364,1543.079102 1184.110275C1568.491013 1209.522186,1602.955261 1223.801651,1638.895844 1223.801651C1674.836426 1223.801651,1709.300674 1209.522186,1734.712585 1184.110275C1760.124496 1158.698364,1774.403961 1124.234116,1774.403961 1088.293533Z" style="stroke:rgb(25.500488%,41.000366%,88.400269%); stroke-width: 2.500000;stroke-linecap: round;stroke-linejoin: round;stroke-miterlimit: 10.000000;fill: none;"></path>
  <path d="M1840.763092 843.683411C1840.763092 807.742828,1826.483627 773.278580,1801.071716 747.866669C1775.659805 722.454758,1741.195557 708.175293,1705.254974 708.175293C1669.314392 708.175293,1634.850143 722.454758,1609.438232 747.866669C1584.026321 773.278580,1569.746857 807.742828,1569.746857 843.683411C1569.746857 879.623993,1584.026321 914.088242,1609.438232 939.500153C1634.850143 964.912064,1669.314392 979.191528,1705.254974 979.191528C1741.195557 979.191528,1775.659805 964.912064,1801.071716 939.500153C1826.483627 914.088242,1840.763092 879.623993,1840.763092 843.683411Z" style="stroke:rgb(25.500488%,41.000366%,88.400269%); stroke-width: 2.500000;stroke-linecap: round;stroke-linejoin: round;stroke-miterlimit: 10.000000;fill: none;"></path>
  <path d="M1165.155960 1617.103455C1165.155960 1581.162872,1150.876495 1546.698624,1125.464584 1521.286713C1100.052673 1495.874802,1065.588425 1481.595337,1029.647842 1481.595337C993.707260 1481.595337,959.243011 1495.874802,933.831100 1521.286713C908.419189 1546.698624,894.139725 1581.162872,894.139725 1617.103455C894.139725 1653.044037,908.419189 1687.508286,933.831100 1712.920197C959.243011 1738.332108,993.707260 1752.611572,1029.647842 1752.611572C1065.588425 1752.611572,1100.052673 1738.332108,1125.464584 1712.920197C1150.876495 1687.508286,1165.155960 1653.044037,1165.155960 1617.103455Z" style="stroke:rgb(25.500488%,41.000366%,88.400269%); stroke-width: 2.500000;stroke-linecap: round;stroke-linejoin: round;stroke-miterlimit: 10.000000;fill: none;"></path>
  <path d="M1303.985916 1425.344498C1303.985916 1389.403915,1289.706451 1354.939667,1264.294540 1329.527756C1238.882629 1304.115845,1204.418381 1289.836380,1168.477798 1289.836380C1132.537216 1289.836380,1098.072968 1304.115845,1072.661057 1329.527756C1047.249146 1354.939667,1032.969681 1389.403915,1032.969681 1425.344498C1032.969681 1461.285080,1047.249146 1495.749329,1072.661057 1521.161240C1098.072968 1546.573151,1132.537216 1560.852615,1168.477798 1560.852615C1204.418381 1560.852615,1238.882629 1546.573151,1264.294540 1521.161240C1289.706451 1495.749329,1303.985916 1461.285080,1303.985916 1425.344498Z" style="stroke:rgb(25.500488%,41.000366%,88.400269%); stroke-width: 2.500000;stroke-linecap: round;stroke-linejoin: round;stroke-miterlimit: 10.000000;fill: none;"></path>
  <path d="M1435.017319 1245.834854C1435.017319 1209.894272,1420.737854 1175.430023,1395.325943 1150.018112C1369.914032 1124.606201,1335.449783 1110.326736,1299.509201 1110.326736C1263.568619 1110.326736,1229.104370 1124.606201,1203.692459 1150.018112C1178.280548 1175.430023,1164.001083 1209.894272,1164.001083 1245.834854C1164.001083 1281.775436,1178.280548 1316.239685,1203.692459 1341.651596C1229.104370 1367.063507,1263.568619 1381.342972,1299.509201 1381.342972C1335.449783 1381.342972,1369.914032 1367.063507,1395.325943 1341.651596C1420.737854 1316.239685,1435.017319 1281.775436,1435.017319 1245.834854Z" style="stroke:rgb(25.500488%,41.000366%,88.400269%); stroke-width: 2.500000;stroke-linecap: round;stroke-linejoin: round;stroke-miterlimit: 10.000000;fill: none;"></path>
  <path d="M1543.379684 1084.712158C1543.379684 1048.771576,1529.100220 1014.307327,1503.688309 988.895416C1478.276398 963.483505,1443.812149 949.204041,1407.871567 949.204041C1371.930984 949.204041,1337.466736 963.483505,1312.054825 988.895416C1286.642914 1014.307327,1272.363449 1048.771576,1272.363449 1084.712158C1272.363449 1120.652740,1286.642914 1155.116989,1312.054825 1180.528900C1337.466736 1205.940811,1371.930984 1220.220276,1407.871567 1220.220276C1443.812149 1220.220276,1478.276398 1205.940811,1503.688309 1180.528900C1529.100220 1155.116989,1543.379684 1120.652740,1543.379684 1084.712158Z" style="stroke:rgb(25.500488%,41.000366%,88.400269%); stroke-width: 2.500000;stroke-linecap: round;stroke-linejoin: round;stroke-miterlimit: 10.000000;fill: none;"></path>
  <path d="M1646.837143 880.807678C1646.837143 844.867096,1632.557678 810.402847,1607.145767 784.990936C1581.733856 759.579025,1547.269608 745.299561,1511.329025 745.299561C1475.388443 745.299561,1440.924194 759.579025,1415.512283 784.990936C1390.100372 810.402847,1375.820908 844.867096,1375.820908 880.807678C1375.820908 916.748260,1390.100372 951.212509,1415.512283 976.624420C1440.924194 1002.036331,1475.388443 1016.315796,1511.329025 1016.315796C1547.269608 1016.315796,1581.733856 1002.036331,1607.145767 976.624420C1632.557678 951.212509,1646.837143 916.748260,1646.837143 880.807678Z" style="stroke:rgb(25.500488%,41.000366%,88.400269%); stroke-width: 2.500000;stroke-linecap: round;stroke-linejoin: round;stroke-miterlimit: 10.000000;fill: none;"></path>
  <path d="M1748.387131 653.948700C1748.387131 618.008118,1734.107666 583.543869,1708.695755 558.131958C1683.283844 532.720047,1648.819595 518.440582,1612.879013 518.440582C1576.938431 518.440582,1542.474182 532.720047,1517.062271 558.131958C1491.650360 583.543869,1477.370895 618.008118,1477.370895 653.948700C1477.370895 689.889282,1491.650360 724.353531,1517.062271 749.765442C1542.474182 775.177353,1576.938431 789.456818,1612.879013 789.456818C1648.819595 789.456818,1683.283844 775.177353,1708.695755 749.765442C1734.107666 724.353531,1748.387131 689.889282,1748.387131 653.948700Z" style="stroke:rgb(25.500488%,41.000366%,88.400269%); stroke-width: 2.500000;stroke-linecap: round;stroke-linejoin: round;stroke-miterlimit: 10.000000;fill: none;"></path>
  <path d="M947.860275 1617.103455C947.860275 1581.162872,933.580811 1546.698624,908.168900 1521.286713C882.756989 1495.874802,848.292740 1481.595337,812.352158 1481.595337C776.411575 1481.595337,741.947327 1495.874802,716.535416 1521.286713C691.123505 1546.698624,676.844040 1581.162872,676.844040 1617.103455C676.844040 1653.044037,691.123505 1687.508286,716.535416 1712.920197C741.947327 1738.332108,776.411575 1752.611572,812.352158 1752.611572C848.292740 1752.611572,882.756989 1738.332108,908.168900 1712.920197C933.580811 1687.508286,947.860275 1653.044037,947.860275 1617.103455Z" style="stroke:rgb(25.500488%,41.000366%,88.400269%); stroke-width: 2.500000;stroke-linecap: round;stroke-linejoin: round;stroke-miterlimit: 10.000000;fill: none;"></path>
  <path d="M1056.508118 1429.263229C1056.508118 1393.322647,1042.228653 1358.858398,1016.816742 1333.446487C991.404831 1308.034576,956.940582 1293.755112,921.000000 1293.755112C885.059418 1293.755112,850.595169 1308.034576,825.183258 1333.446487C799.771347 1358.858398,785.491882 1393.322647,785.491882 1429.263229C785.491882 1465.203812,799.771347 1499.668060,825.183258 1525.079971C850.595169 1550.491882,885.059418 1564.771347,921.000000 1564.771347C956.940582 1564.771347,991.404831 1550.491882,1016.816742 1525.079971C1042.228653 1499.668060,1056.508118 1465.203812,1056.508118 1429.263229Z" style="stroke:rgb(25.500488%,41.000366%,88.400269%); stroke-width: 2.500000;stroke-linecap: round;stroke-linejoin: round;stroke-miterlimit: 10.000000;fill: none;"></path>
  <path d="M1180.869873 1239.917801C1180.869873 1203.977219,1166.590408 1169.512970,1141.178497 1144.101059C1115.766586 1118.689148,1081.302338 1104.409683,1045.361755 1104.409683C1009.421173 1104.409683,974.956924 1118.689148,949.545013 1144.101059C924.133102 1169.512970,909.853638 1203.977219,909.853638 1239.917801C909.853638 1275.858383,924.133102 1310.322632,949.545013 1335.734543C974.956924 1361.146454,1009.421173 1375.425919,1045.361755 1375.425919C1081.302338 1375.425919,1115.766586 1361.146454,1141.178497 1335.734543C1166.590408 1310.322632,1180.869873 1275.858383,1180.869873 1239.917801Z" style="stroke:rgb(25.500488%,41.000366%,88.400269%); stroke-width: 2.500000;stroke-linecap: round;stroke-linejoin: round;stroke-miterlimit: 10.000000;fill: none;"></path>
  <path d="M1300.871689 1060.615768C1300.871689 1024.675186,1286.592224 990.210938,1261.180313 964.799026C1235.768402 939.387115,1201.304153 925.107651,1165.363571 925.107651C1129.422989 925.107651,1094.958740 939.387115,1069.546829 964.799026C1044.134918 990.210938,1029.855453 1024.675186,1029.855453 1060.615768C1029.855453 1096.556351,1044.134918 1131.020599,1069.546829 1156.432510C1094.958740 1181.844421,1129.422989 1196.123886,1165.363571 1196.123886C1201.304153 1196.123886,1235.768402 1181.844421,1261.180313 1156.432510C1286.592224 1131.020599,1300.871689 1096.556351,1300.871689 1060.615768Z" style="stroke:rgb(25.500488%,41.000366%,88.400269%); stroke-width: 2.500000;stroke-linecap: round;stroke-linejoin: round;stroke-miterlimit: 10.000000;fill: none;"></path>
  <path d="M1414.839676 878.770447C1414.839676 842.829865,1400.560211 808.365616,1375.148300 782.953705C1349.736389 757.541794,1315.272141 743.262329,1279.331558 743.262329C1243.390976 743.262329,1208.926727 757.541794,1183.514816 782.953705C1158.102905 808.365616,1143.823441 842.829865,1143.823441 878.770447C1143.823441 914.711029,1158.102905 949.175278,1183.514816 974.587189C1208.926727 999.999100,1243.390976 1014.278564,1279.331558 1014.278564C1315.272141 1014.278564,1349.736389 999.999100,1375.148300 974.587189C1400.560211 949.175278,1414.839676 914.711029,1414.839676 878.770447Z" style="stroke:rgb(25.500488%,41.000366%,88.400269%); stroke-width: 2.500000;stroke-linecap: round;stroke-linejoin: round;stroke-miterlimit: 10.000000;fill: none;"></path>
  <path d="M1532.155472 675.423950C1532.155472 639.483368,1517.876007 605.019119,1492.464096 579.607208C1467.052185 554.195297,1432.587936 539.915833,1396.647354 539.915833C1360.706772 539.915833,1326.242523 554.195297,1300.830612 579.607208C1275.418701 605.019119,1261.139236 639.483368,1261.139236 675.423950C1261.139236 711.364532,1275.418701 745.828781,1300.830612 771.240692C1326.242523 796.652603,1360.706772 810.932068,1396.647354 810.932068C1432.587936 810.932068,1467.052185 796.652603,1492.464096 771.240692C1517.876007 745.828781,1532.155472 711.364532,1532.155472 675.423950Z" style="stroke:rgb(25.500488%,41.000366%,88.400269%); stroke-width: 2.500000;stroke-linecap: round;stroke-linejoin: round;stroke-miterlimit: 10.000000;fill: none;"></path>
  <path d="M1641.166641 453.404999C1641.166641 417.464417,1626.887177 383.000168,1601.475266 357.588257C1576.063354 332.176346,1541.599106 317.896881,1505.658524 317.896881C1469.717941 317.896881,1435.253693 332.176346,1409.841782 357.588257C1384.429871 383.000168,1370.150406 417.464417,1370.150406 453.404999C1370.150406 489.345581,1384.429871 523.809830,1409.841782 549.221741C1435.253693 574.633652,1469.717941 588.913116,1505.658524 588.913116C1541.599106 588.913116,1576.063354 574.633652,1601.475266 549.221741C1626.887177 523.809830,1641.166641 489.345581,1641.166641 453.404999Z" style="stroke:rgb(25.500488%,41.000366%,88.400269%); stroke-width: 2.500000;stroke-linecap: round;stroke-linejoin: round;stroke-miterlimit: 10.000000;fill: none;"></path>
  <path d="M736.299973 1609.953690C736.299973 1574.013107,722.020508 1539.548859,696.608597 1514.136948C671.196686 1488.725037,636.732437 1474.445572,600.791855 1474.445572C564.851273 1474.445572,530.387024 1488.725037,504.975113 1514.136948C479.563202 1539.548859,465.283737 1574.013107,465.283737 1609.953690C465.283737 1645.894272,479.563202 1680.358521,504.975113 1705.770432C530.387024 1731.182343,564.851273 1745.461807,600.791855 1745.461807C636.732437 1745.461807,671.196686 1731.182343,696.608597 1705.770432C722.020508 1680.358521,736.299973 1645.894272,736.299973 1609.953690Z" style="stroke:rgb(25.500488%,41.000366%,88.400269%); stroke-width: 2.500000;stroke-linecap: round;stroke-linejoin: round;stroke-miterlimit: 10.000000;fill: none;"></path>
  <path d="M809.030319 1425.344498C809.030319 1389.403915,794.750854 1354.939667,769.338943 1329.527756C743.927032 1304.115845,709.462784 1289.836380,673.522202 1289.836380C637.581619 1289.836380,603.117371 1304.115845,577.705460 1329.527756C552.293549 1354.939667,538.014084 1389.403915,538.014084 1425.344498C538.014084 1461.285080,552.293549 1495.749329,577.705460 1521.161240C603.117371 1546.573151,637.581619 1560.852615,673.522202 1560.852615C709.462784 1560.852615,743.927032 1546.573151,769.338943 1521.161240C794.750854 1495.749329,809.030319 1461.285080,809.030319 1425.344498Z" style="stroke:rgb(25.500488%,41.000366%,88.400269%); stroke-width: 2.500000;stroke-linecap: round;stroke-linejoin: round;stroke-miterlimit: 10.000000;fill: none;"></path>
  <path d="M932.146362 1239.917801C932.146362 1203.977219,917.866898 1169.512970,892.454987 1144.101059C867.043076 1118.689148,832.578827 1104.409683,796.638245 1104.409683C760.697662 1104.409683,726.233414 1118.689148,700.821503 1144.101059C675.409592 1169.512970,661.130127 1203.977219,661.130127 1239.917801C661.130127 1275.858383,675.409592 1310.322632,700.821503 1335.734543C726.233414 1361.146454,760.697662 1375.425919,796.638245 1375.425919C832.578827 1375.425919,867.043076 1361.146454,892.454987 1335.734543C917.866898 1310.322632,932.146362 1275.858383,932.146362 1239.917801Z" style="stroke:rgb(25.500488%,41.000366%,88.400269%); stroke-width: 2.500000;stroke-linecap: round;stroke-linejoin: round;stroke-miterlimit: 10.000000;fill: none;"></path>
  <path d="M1056.508118 1050.572372C1056.508118 1014.631790,1042.228653 980.167542,1016.816742 954.755630C991.404831 929.343719,956.940582 915.064255,921.000000 915.064255C885.059418 915.064255,850.595169 929.343719,825.183258 954.755630C799.771347 980.167542,785.491882 1014.631790,785.491882 1050.572372C785.491882 1086.512955,799.771347 1120.977203,825.183258 1146.389114C850.595169 1171.801025,885.059418 1186.080490,921.000000 1186.080490C956.940582 1186.080490,991.404831 1171.801025,1016.816742 1146.389114C1042.228653 1120.977203,1056.508118 1086.512955,1056.508118 1050.572372Z" style="stroke:rgb(25.500488%,41.000366%,88.400269%); stroke-width: 2.500000;stroke-linecap: round;stroke-linejoin: round;stroke-miterlimit: 10.000000;fill: none;"></path>
  <path d="M1167.945801 862.368820C1167.945801 826.428238,1153.666336 791.963989,1128.254425 766.552078C1102.842514 741.140167,1068.378265 726.860703,1032.437683 726.860703C996.497101 726.860703,962.032852 741.140167,936.620941 766.552078C911.209030 791.963989,896.929565 826.428238,896.929565 862.368820C896.929565 898.309402,911.209030 932.773651,936.620941 958.185562C962.032852 983.597473,996.497101 997.876938,1032.437683 997.876938C1068.378265 997.876938,1102.842514 983.597473,1128.254425 958.185562C1153.666336 932.773651,1167.945801 898.309402,1167.945801 862.368820Z" style="stroke:rgb(25.500488%,41.000366%,88.400269%); stroke-width: 2.500000;stroke-linecap: round;stroke-linejoin: round;stroke-miterlimit: 10.000000;fill: none;"></path>
  <path d="M1295.058456 679.874710C1295.058456 643.934128,1280.778992 609.469879,1255.367081 584.057968C1229.955170 558.646057,1195.490921 544.366592,1159.550339 544.366592C1123.609756 544.366592,1089.145508 558.646057,1063.733597 584.057968C1038.321686 609.469879,1024.042221 643.934128,1024.042221 679.874710C1024.042221 715.815292,1038.321686 750.279541,1063.733597 775.691452C1089.145508 801.103363,1123.609756 815.382828,1159.550339 815.382828C1195.490921 815.382828,1229.955170 801.103363,1255.367081 775.691452C1280.778992 750.279541,1295.058456 715.815292,1295.058456 679.874710Z" style="stroke:rgb(25.500488%,41.000366%,88.400269%); stroke-width: 2.500000;stroke-linecap: round;stroke-linejoin: round;stroke-miterlimit: 10.000000;fill: none;"></path>
  <path d="M1414.878601 481.056808C1414.878601 445.116226,1400.599136 410.651978,1375.187225 385.240067C1349.775314 359.828156,1315.311066 345.548691,1279.370483 345.548691C1243.429901 345.548691,1208.965652 359.828156,1183.553741 385.240067C1158.141830 410.651978,1143.862366 445.116226,1143.862366 481.056808C1143.862366 516.997391,1158.141830 551.461639,1183.553741 576.873550C1208.965652 602.285461,1243.429901 616.564926,1279.370483 616.564926C1315.311066 616.564926,1349.775314 602.285461,1375.187225 576.873550C1400.599136 551.461639,1414.878601 516.997391,1414.878601 481.056808Z" style="stroke:rgb(25.500488%,41.000366%,88.400269%); stroke-width: 2.500000;stroke-linecap: round;stroke-linejoin: round;stroke-miterlimit: 10.000000;fill: none;"></path>
  <path d="M1521.709808 258.985962C1521.709808 223.045380,1507.430344 188.581131,1482.018433 163.169220C1456.606522 137.757309,1422.142273 123.477844,1386.201691 123.477844C1350.261108 123.477844,1315.796860 137.757309,1290.384949 163.169220C1264.973038 188.581131,1250.693573 223.045380,1250.693573 258.985962C1250.693573 294.926544,1264.973038 329.390793,1290.384949 354.802704C1315.796860 380.214615,1350.261108 394.494080,1386.201691 394.494080C1422.142273 394.494080,1456.606522 380.214615,1482.018433 354.802704C1507.430344 329.390793,1521.709808 294.926544,1521.709808 258.985962Z" style="stroke:rgb(25.500488%,41.000366%,88.400269%); stroke-width: 2.500000;stroke-linecap: round;stroke-linejoin: round;stroke-miterlimit: 10.000000;fill: none;"></path>
  <path d="M558.606964 1439.786758C558.606964 1403.846176,544.327499 1369.381927,518.915588 1343.970016C493.503677 1318.558105,459.039429 1304.278641,423.098846 1304.278641C387.158264 1304.278641,352.694016 1318.558105,327.282104 1343.970016C301.870193 1369.381927,287.590729 1403.846176,287.590729 1439.786758C287.590729 1475.727341,301.870193 1510.191589,327.282104 1535.603500C352.694016 1561.015411,387.158264 1575.294876,423.098846 1575.294876C459.039429 1575.294876,493.503677 1561.015411,518.915588 1535.603500C544.327499 1510.191589,558.606964 1475.727341,558.606964 1439.786758Z" style="stroke:rgb(25.500488%,41.000366%,88.400269%); stroke-width: 2.500000;stroke-linecap: round;stroke-linejoin: round;stroke-miterlimit: 10.000000;fill: none;"></path>
  <path d="M677.998917 1245.834854C677.998917 1209.894272,663.719452 1175.430023,638.307541 1150.018112C612.895630 1124.606201,578.431381 1110.326736,542.490799 1110.326736C506.550217 1110.326736,472.085968 1124.606201,446.674057 1150.018112C421.262146 1175.430023,406.982681 1209.894272,406.982681 1245.834854C406.982681 1281.775436,421.262146 1316.239685,446.674057 1341.651596C472.085968 1367.063507,506.550217 1381.342972,542.490799 1381.342972C578.431381 1381.342972,612.895630 1367.063507,638.307541 1341.651596C663.719452 1316.239685,677.998917 1281.775436,677.998917 1245.834854Z" style="stroke:rgb(25.500488%,41.000366%,88.400269%); stroke-width: 2.500000;stroke-linecap: round;stroke-linejoin: round;stroke-miterlimit: 10.000000;fill: none;"></path>
  <path d="M812.144547 1060.615768C812.144547 1024.675186,797.865082 990.210938,772.453171 964.799026C747.041260 939.387115,712.577011 925.107651,676.636429 925.107651C640.695847 925.107651,606.231598 939.387115,580.819687 964.799026C555.407776 990.210938,541.128311 1024.675186,541.128311 1060.615768C541.128311 1096.556351,555.407776 1131.020599,580.819687 1156.432510C606.231598 1181.844421,640.695847 1196.123886,676.636429 1196.123886C712.577011 1196.123886,747.041260 1181.844421,772.453171 1156.432510C797.865082 1131.020599,812.144547 1096.556351,812.144547 1060.615768Z" style="stroke:rgb(25.500488%,41.000366%,88.400269%); stroke-width: 2.500000;stroke-linecap: round;stroke-linejoin: round;stroke-miterlimit: 10.000000;fill: none;"></path>
  <path d="M945.070435 862.368820C945.070435 826.428238,930.790970 791.963989,905.379059 766.552078C879.967148 741.140167,845.502899 726.860703,809.562317 726.860703C773.621735 726.860703,739.157486 741.140167,713.745575 766.552078C688.333664 791.963989,674.054199 826.428238,674.054199 862.368820C674.054199 898.309402,688.333664 932.773651,713.745575 958.185562C739.157486 983.597473,773.621735 997.876938,809.562317 997.876938C845.502899 997.876938,879.967148 983.597473,905.379059 958.185562C930.790970 932.773651,945.070435 898.309402,945.070435 862.368820Z" style="stroke:rgb(25.500488%,41.000366%,88.400269%); stroke-width: 2.500000;stroke-linecap: round;stroke-linejoin: round;stroke-miterlimit: 10.000000;fill: none;"></path>
  <path d="M1056.508118 649.744492C1056.508118 613.803909,1042.228653 579.339661,1016.816742 553.927750C991.404831 528.515839,956.940582 514.236374,921.000000 514.236374C885.059418 514.236374,850.595169 528.515839,825.183258 553.927750C799.771347 579.339661,785.491882 613.803909,785.491882 649.744492C785.491882 685.685074,799.771347 720.149323,825.183258 745.561234C850.595169 770.973145,885.059418 785.252609,921.000000 785.252609C956.940582 785.252609,991.404831 770.973145,1016.816742 745.561234C1042.228653 720.149323,1056.508118 685.685074,1056.508118 649.744492Z" style="stroke:rgb(25.500488%,41.000366%,88.400269%); stroke-width: 2.500000;stroke-linecap: round;stroke-linejoin: round;stroke-miterlimit: 10.000000;fill: none;"></path>
  <path d="M1183.620773 467.250366C1183.620773 431.309784,1169.341309 396.845535,1143.929398 371.433624C1118.517487 346.021713,1084.053238 331.742249,1048.112656 331.742249C1012.172073 331.742249,977.707825 346.021713,952.295914 371.433624C926.884003 396.845535,912.604538 431.309784,912.604538 467.250366C912.604538 503.190948,926.884003 537.655197,952.295914 563.067108C977.707825 588.479019,1012.172073 602.758484,1048.112656 602.758484C1084.053238 602.758484,1118.517487 588.479019,1143.929398 563.067108C1169.341309 537.655197,1183.620773 503.190948,1183.620773 467.250366Z" style="stroke:rgb(25.500488%,41.000366%,88.400269%); stroke-width: 2.500000;stroke-linecap: round;stroke-linejoin: round;stroke-miterlimit: 10.000000;fill: none;"></path>
  <path d="M1311.849365 268.692001C1311.849365 232.751419,1297.569901 198.287170,1272.157990 172.875259C1246.746078 147.463348,1212.281830 133.183884,1176.341248 133.183884C1140.400665 133.183884,1105.936417 147.463348,1080.524506 172.875259C1055.112595 198.287170,1040.833130 232.751419,1040.833130 268.692001C1040.833130 304.632584,1055.112595 339.096832,1080.524506 364.508743C1105.936417 389.920654,1140.400665 404.200119,1176.341248 404.200119C1212.281830 404.200119,1246.746078 389.920654,1272.157990 364.508743C1297.569901 339.096832,1311.849365 304.632584,1311.849365 268.692001Z" style="stroke:rgb(25.500488%,41.000366%,88.400269%); stroke-width: 2.500000;stroke-linecap: round;stroke-linejoin: round;stroke-miterlimit: 10.000000;fill: none;"></path>
  <path d="M423.540039 1277.405396C423.540039 1241.464813,409.260574 1207.000565,383.848663 1181.588654C358.436752 1156.176743,323.972504 1141.897278,288.031921 1141.897278C252.091339 1141.897278,217.627090 1156.176743,192.215179 1181.588654C166.803268 1207.000565,152.523804 1241.464813,152.523804 1277.405396C152.523804 1313.345978,166.803268 1347.810226,192.215179 1373.222137C217.627090 1398.634048,252.091339 1412.913513,288.031921 1412.913513C323.972504 1412.913513,358.436752 1398.634048,383.848663 1373.222137C409.260574 1347.810226,423.540039 1313.345978,423.540039 1277.405396Z" style="stroke:rgb(25.500488%,41.000366%,88.400269%); stroke-width: 2.500000;stroke-linecap: round;stroke-linejoin: round;stroke-miterlimit: 10.000000;fill: none;"></path>
  <path d="M569.636551 1084.712158C569.636551 1048.771576,555.357086 1014.307327,529.945175 988.895416C504.533264 963.483505,470.069016 949.204041,434.128433 949.204041C398.187851 949.204041,363.723602 963.483505,338.311691 988.895416C312.899780 1014.307327,298.620316 1048.771576,298.620316 1084.712158C298.620316 1120.652740,312.899780 1155.116989,338.311691 1180.528900C363.723602 1205.940811,398.187851 1220.220276,434.128433 1220.220276C470.069016 1220.220276,504.533264 1205.940811,529.945175 1180.528900C555.357086 1155.116989,569.636551 1120.652740,569.636551 1084.712158Z" style="stroke:rgb(25.500488%,41.000366%,88.400269%); stroke-width: 2.500000;stroke-linecap: round;stroke-linejoin: round;stroke-miterlimit: 10.000000;fill: none;"></path>
  <path d="M698.176559 878.770447C698.176559 842.829865,683.897095 808.365616,658.485184 782.953705C633.073273 757.541794,598.609024 743.262329,562.668442 743.262329C526.727859 743.262329,492.263611 757.541794,466.851700 782.953705C441.439789 808.365616,427.160324 842.829865,427.160324 878.770447C427.160324 914.711029,441.439789 949.175278,466.851700 974.587189C492.263611 999.999100,526.727859 1014.278564,562.668442 1014.278564C598.609024 1014.278564,633.073273 999.999100,658.485184 974.587189C683.897095 949.175278,698.176559 914.711029,698.176559 878.770447Z" style="stroke:rgb(25.500488%,41.000366%,88.400269%); stroke-width: 2.500000;stroke-linecap: round;stroke-linejoin: round;stroke-miterlimit: 10.000000;fill: none;"></path>
  <path d="M817.957779 679.874710C817.957779 643.934128,803.678314 609.469879,778.266403 584.057968C752.854492 558.646057,718.390244 544.366592,682.449661 544.366592C646.509079 544.366592,612.044830 558.646057,586.632919 584.057968C561.221008 609.469879,546.941544 643.934128,546.941544 679.874710C546.941544 715.815292,561.221008 750.279541,586.632919 775.691452C612.044830 801.103363,646.509079 815.382828,682.449661 815.382828C718.390244 815.382828,752.854492 801.103363,778.266403 775.691452C803.678314 750.279541,817.957779 715.815292,817.957779 679.874710Z" style="stroke:rgb(25.500488%,41.000366%,88.400269%); stroke-width: 2.500000;stroke-linecap: round;stroke-linejoin: round;stroke-miterlimit: 10.000000;fill: none;"></path>
  <path d="M929.395462 467.250366C929.395462 431.309784,915.115997 396.845535,889.704086 371.433624C864.292175 346.021713,829.827927 331.742249,793.887344 331.742249C757.946762 331.742249,723.482513 346.021713,698.070602 371.433624C672.658691 396.845535,658.379227 431.309784,658.379227 467.250366C658.379227 503.190948,672.658691 537.655197,698.070602 563.067108C723.482513 588.479019,757.946762 602.758484,793.887344 602.758484C829.827927 602.758484,864.292175 588.479019,889.704086 563.067108C915.115997 537.655197,929.395462 503.190948,929.395462 467.250366Z" style="stroke:rgb(25.500488%,41.000366%,88.400269%); stroke-width: 2.500000;stroke-linecap: round;stroke-linejoin: round;stroke-miterlimit: 10.000000;fill: none;"></path>
  <path d="M1056.508118 331.988800C1056.508118 296.048218,1042.228653 261.583969,1016.816742 236.172058C991.404831 210.760147,956.940582 196.480682,921.000000 196.480682C885.059418 196.480682,850.595169 210.760147,825.183258 236.172058C799.771347 261.583969,785.491882 296.048218,785.491882 331.988800C785.491882 367.929382,799.771347 402.393631,825.183258 427.805542C850.595169 453.217453,885.059418 467.496918,921.000000 467.496918C956.940582 467.496918,991.404831 453.217453,1016.816742 427.805542C1042.228653 402.393631,1056.508118 367.929382,1056.508118 331.988800Z" style="stroke:rgb(25.500488%,41.000366%,88.400269%); stroke-width: 2.500000;stroke-linecap: round;stroke-linejoin: round;stroke-miterlimit: 10.000000;fill: none;"></path>
  <path d="M1159.018326 136.337051C1159.018326 100.396469,1144.738861 65.932220,1119.326950 40.520309C1093.915039 15.108398,1059.450790 0.828934,1023.510208 0.828934C987.569626 0.828934,953.105377 15.108398,927.693466 40.520309C902.281555 65.932220,888.002090 100.396469,888.002090 136.337051C888.002090 172.277634,902.281555 206.741882,927.693466 232.153793C953.105377 257.565704,987.569626 271.845169,1023.510208 271.845169C1059.450790 271.845169,1093.915039 257.565704,1119.326950 232.153793C1144.738861 206.741882,1159.018326 172.277634,1159.018326 136.337051Z" style="stroke:rgb(25.500488%,41.000366%,88.400269%); stroke-width: 2.500000;stroke-linecap: round;stroke-linejoin: round;stroke-miterlimit: 10.000000;fill: none;"></path>
  <path d="M338.612274 1088.293533C338.612274 1052.352951,324.332809 1017.888702,298.920898 992.476791C273.508987 967.064880,239.044739 952.785416,203.104156 952.785416C167.163574 952.785416,132.699326 967.064880,107.287415 992.476791C81.875504 1017.888702,67.596039 1052.352951,67.596039 1088.293533C67.596039 1124.234116,81.875504 1158.698364,107.287415 1184.110275C132.699326 1209.522186,167.163574 1223.801651,203.104156 1223.801651C239.044739 1223.801651,273.508987 1209.522186,298.920898 1184.110275C324.332809 1158.698364,338.612274 1124.234116,338.612274 1088.293533Z" style="stroke:rgb(25.500488%,41.000366%,88.400269%); stroke-width: 2.500000;stroke-linecap: round;stroke-linejoin: round;stroke-miterlimit: 10.000000;fill: none;"></path>
  <path d="M466.179092 880.807678C466.179092 844.867096,451.899628 810.402847,426.487717 784.990936C401.075806 759.579025,366.611557 745.299561,330.670975 745.299561C294.730392 745.299561,260.266144 759.579025,234.854233 784.990936C209.442322 810.402847,195.162857 844.867096,195.162857 880.807678C195.162857 916.748260,209.442322 951.212509,234.854233 976.624420C260.266144 1002.036331,294.730392 1016.315796,330.670975 1016.315796C366.611557 1016.315796,401.075806 1002.036331,426.487717 976.624420C451.899628 951.212509,466.179092 916.748260,466.179092 880.807678Z" style="stroke:rgb(25.500488%,41.000366%,88.400269%); stroke-width: 2.500000;stroke-linecap: round;stroke-linejoin: round;stroke-miterlimit: 10.000000;fill: none;"></path>
  <path d="M580.860764 675.423950C580.860764 639.483368,566.581299 605.019119,541.169388 579.607208C515.757477 554.195297,481.293228 539.915833,445.352646 539.915833C409.412064 539.915833,374.947815 554.195297,349.535904 579.607208C324.123993 605.019119,309.844528 639.483368,309.844528 675.423950C309.844528 711.364532,324.123993 745.828781,349.535904 771.240692C374.947815 796.652603,409.412064 810.932068,445.352646 810.932068C481.293228 810.932068,515.757477 796.652603,541.169388 771.240692C566.581299 745.828781,580.860764 711.364532,580.860764 675.423950Z" style="stroke:rgb(25.500488%,41.000366%,88.400269%); stroke-width: 2.500000;stroke-linecap: round;stroke-linejoin: round;stroke-miterlimit: 10.000000;fill: none;"></path>
  <path d="M698.137634 481.056808C698.137634 445.116226,683.858170 410.651978,658.446259 385.240067C633.034348 359.828156,598.570099 345.548691,562.629517 345.548691C526.688934 345.548691,492.224686 359.828156,466.812775 385.240067C441.400864 410.651978,427.121399 445.116226,427.121399 481.056808C427.121399 516.997391,441.400864 551.461639,466.812775 576.873550C492.224686 602.285461,526.688934 616.564926,562.629517 616.564926C598.570099 616.564926,633.034348 602.285461,658.446259 576.873550C683.858170 551.461639,698.137634 516.997391,698.137634 481.056808Z" style="stroke:rgb(25.500488%,41.000366%,88.400269%); stroke-width: 2.500000;stroke-linecap: round;stroke-linejoin: round;stroke-miterlimit: 10.000000;fill: none;"></path>
  <path d="M801.166870 268.692001C801.166870 232.751419,786.887405 198.287170,761.475494 172.875259C736.063583 147.463348,701.599335 133.183884,665.658752 133.183884C629.718170 133.183884,595.253922 147.463348,569.842010 172.875259C544.430099 198.287170,530.150635 232.751419,530.150635 268.692001C530.150635 304.632584,544.430099 339.096832,569.842010 364.508743C595.253922 389.920654,629.718170 404.200119,665.658752 404.200119C701.599335 404.200119,736.063583 389.920654,761.475494 364.508743C786.887405 339.096832,801.166870 304.632584,801.166870 268.692001Z" style="stroke:rgb(25.500488%,41.000366%,88.400269%); stroke-width: 2.500000;stroke-linecap: round;stroke-linejoin: round;stroke-miterlimit: 10.000000;fill: none;"></path>
  <path d="M953.660538 136.440857C953.660538 100.500275,939.381073 66.036026,913.969162 40.624115C888.557251 15.212204,854.093002 0.932739,818.152420 0.932739C782.211838 0.932739,747.747589 15.212204,722.335678 40.624115C696.923767 66.036026,682.644302 100.500275,682.644302 136.440857C682.644302 172.381439,696.923767 206.845688,722.335678 232.257599C747.747589 257.669510,782.211838 271.948975,818.152420 271.948975C854.093002 271.948975,888.557251 257.669510,913.969162 232.257599C939.381073 206.845688,953.660538 172.381439,953.660538 136.440857Z" style="stroke:rgb(25.500488%,41.000366%,88.400269%); stroke-width: 2.500000;stroke-linecap: round;stroke-linejoin: round;stroke-miterlimit: 10.000000;fill: none;"></path>
  <path d="M272.253143 843.683411C272.253143 807.742828,257.973679 773.278580,232.561768 747.866669C207.149857 722.454758,172.685608 708.175293,136.745026 708.175293C100.804443 708.175293,66.340195 722.454758,40.928284 747.866669C15.516373 773.278580,1.236908 807.742828,1.236908 843.683411C1.236908 879.623993,15.516373 914.088242,40.928284 939.500153C66.340195 964.912064,100.804443 979.191528,136.745026 979.191528C172.685608 979.191528,207.149857 964.912064,232.561768 939.500153C257.973679 914.088242,272.253143 879.623993,272.253143 843.683411Z" style="stroke:rgb(25.500488%,41.000366%,88.400269%); stroke-width: 2.500000;stroke-linecap: round;stroke-linejoin: round;stroke-miterlimit: 10.000000;fill: none;"></path>
  <path d="M364.629105 653.948700C364.629105 618.008118,350.349640 583.543869,324.937729 558.131958C299.525818 532.720047,265.061569 518.440582,229.120987 518.440582C193.180405 518.440582,158.716156 532.720047,133.304245 558.131958C107.892334 583.543869,93.612869 618.008118,93.612869 653.948700C93.612869 689.889282,107.892334 724.353531,133.304245 749.765442C158.716156 775.177353,193.180405 789.456818,229.120987 789.456818C265.061569 789.456818,299.525818 775.177353,324.937729 749.765442C350.349640 724.353531,364.629105 689.889282,364.629105 653.948700Z" style="stroke:rgb(25.500488%,41.000366%,88.400269%); stroke-width: 2.500000;stroke-linecap: round;stroke-linejoin: round;stroke-miterlimit: 10.000000;fill: none;"></path>
  <path d="M471.849594 453.404999C471.849594 417.464417,457.570129 383.000168,432.158218 357.588257C406.746307 332.176346,372.282059 317.896881,336.341476 317.896881C300.400894 317.896881,265.936646 332.176346,240.524734 357.588257C215.112823 383.000168,200.833359 417.464417,200.833359 453.404999C200.833359 489.345581,215.112823 523.809830,240.524734 549.221741C265.936646 574.633652,300.400894 588.913116,336.341476 588.913116C372.282059 588.913116,406.746307 574.633652,432.158218 549.221741C457.570129 523.809830,471.849594 489.345581,471.849594 453.404999Z" style="stroke:rgb(25.500488%,41.000366%,88.400269%); stroke-width: 2.500000;stroke-linecap: round;stroke-linejoin: round;stroke-miterlimit: 10.000000;fill: none;"></path>
  <path d="M591.306427 258.985962C591.306427 223.045380,577.026962 188.581131,551.615051 163.169220C526.203140 137.757309,491.738892 123.477844,455.798309 123.477844C419.857727 123.477844,385.393478 137.757309,359.981567 163.169220C334.569656 188.581131,320.290192 223.045380,320.290192 258.985962C320.290192 294.926544,334.569656 329.390793,359.981567 354.802704C385.393478 380.214615,419.857727 394.494080,455.798309 394.494080C491.738892 394.494080,526.203140 380.214615,551.615051 354.802704C577.026962 329.390793,591.306427 294.926544,591.306427 258.985962Z" style="stroke:rgb(25.500488%,41.000366%,88.400269%); stroke-width: 2.500000;stroke-linecap: round;stroke-linejoin: round;stroke-miterlimit: 10.000000;fill: none;"></path>
</svg>
