<?xml version="1.0"?>
<!-- Created by MetaPost 2.00 on 2022.03.02:1201 -->
<svg version="1.1" xmlns="http://www.w3.org/2000/svg" xmlns:xlink="http://www.w3.org/1999/xlink" width="1532.263702" height="1384.337570" viewBox="0 0 1532.263702 1384.337570">
<!-- Original BoundingBox: -766.131851 -532.694046 766.131851 851.643524 -->
  <path d="M766.000000 0.606476L29.535538 1276.196762L1502.464462 1276.196762L766.000000 0.606476Z" style="fill: rgb(100.000000%,100.000000%,100.000000%);stroke: none;"></path>
  <path d="M766.000000 0.606476L29.535538 1276.196762" style="stroke:rgb(0.000000%,0.000000%,0.000000%); stroke-width: 2.500000;stroke-linecap: round;stroke-linejoin: round;stroke-miterlimit: 10.000000;fill: none;"></path>
  <path d="M29.535538 1276.196762L1502.464462 1276.196762" style="stroke:rgb(0.000000%,0.000000%,0.000000%); stroke-width: 2.500000;stroke-linecap: round;stroke-linejoin: round;stroke-miterlimit: 10.000000;fill: none;"></path>
  <path d="M1502.464462 1276.196762L766.000000 0.606476" style="stroke:rgb(0.000000%,0.000000%,0.000000%); stroke-width: 2.500000;stroke-linecap: round;stroke-linejoin: round;stroke-miterlimit: 10.000000;fill: none;"></path>
  <path d="M1530.881851 1169.871613C1530.881851 1113.491394,1508.481567 1059.427109,1468.617752 1019.563278C1428.753922 979.699463,1374.689636 957.299179,1318.309418 957.299179C1261.929199 957.299179,1207.864914 979.699463,1168.001083 1019.563278C1128.137268 1059.427109,1105.736984 1113.491394,1105.736984 1169.871613C1105.736984 1226.251831,1128.137268 1280.316116,1168.001083 1320.179947C1207.864914 1360.043762,1261.929199 1382.444046,1318.309418 1382.444046C1374.689636 1382.444046,1428.753922 1360.043762,1468.617752 1320.179947C1508.481567 1280.316116,1530.881851 1226.251831,1530.881851 1169.871613Z" style="stroke:rgb(25.500488%,41.000366%,88.400269%); stroke-width: 2.500000;stroke-linecap: round;stroke-linejoin: round;stroke-miterlimit: 10.000000;fill: none;"></path>
  <path d="M1346.778717 851.000000C1346.778717 794.619781,1324.378433 740.555496,1284.514618 700.691666C1244.650787 660.827850,1190.586502 638.427567,1134.206284 638.427567C1077.826065 638.427567,1023.761780 660.827850,983.897949 700.691666C944.034134 740.555496,921.633850 794.619781,921.633850 851.000000C921.633850 907.380219,944.034134 961.444504,983.897949 1001.308334C1023.761780 1041.172150,1077.826065 1063.572433,1134.206284 1063.572433C1190.586502 1063.572433,1244.650787 1041.172150,1284.514618 1001.308334C1324.378433 961.444504,1346.778717 907.380219,1346.778717 851.000000Z" style="stroke:rgb(25.500488%,41.000366%,88.400269%); stroke-width: 2.500000;stroke-linecap: round;stroke-linejoin: round;stroke-miterlimit: 10.000000;fill: none;"></path>
  <path d="M1162.675568 532.128387C1162.675568 475.748169,1140.275284 421.683884,1100.411469 381.820053C1060.547638 341.956238,1006.483353 319.555954,950.103134 319.555954C893.722916 319.555954,839.658630 341.956238,799.794800 381.820053C759.930984 421.683884,737.530701 475.748169,737.530701 532.128387C737.530701 588.508606,759.930984 642.572891,799.794800 682.436722C839.658630 722.300537,893.722916 744.700821,950.103134 744.700821C1006.483353 744.700821,1060.547638 722.300537,1100.411469 682.436722C1140.275284 642.572891,1162.675568 588.508606,1162.675568 532.128387Z" style="stroke:rgb(25.500488%,41.000366%,88.400269%); stroke-width: 2.500000;stroke-linecap: round;stroke-linejoin: round;stroke-miterlimit: 10.000000;fill: none;"></path>
  <path d="M978.572433 213.243790C978.572433 156.863571,956.172150 102.799286,916.308334 62.935455C876.444504 23.071640,822.380219 0.671356,766.000000 0.671356C709.619781 0.671356,655.555496 23.071640,615.691666 62.935455C575.827850 102.799286,553.427567 156.863571,553.427567 213.243790C553.427567 269.624008,575.827850 323.688293,615.691666 363.552124C655.555496 403.415939,709.619781 425.816223,766.000000 425.816223C822.380219 425.816223,876.444504 403.415939,916.308334 363.552124C956.172150 323.688293,978.572433 269.624008,978.572433 213.243790Z" style="stroke:rgb(25.500488%,41.000366%,88.400269%); stroke-width: 2.500000;stroke-linecap: round;stroke-linejoin: round;stroke-miterlimit: 10.000000;fill: none;"></path>
  <path d="M1162.675568 1169.871613C1162.675568 1113.491394,1140.275284 1059.427109,1100.411469 1019.563278C1060.547638 979.699463,1006.483353 957.299179,950.103134 957.299179C893.722916 957.299179,839.658630 979.699463,799.794800 1019.563278C759.930984 1059.427109,737.530701 1113.491394,737.530701 1169.871613C737.530701 1226.251831,759.930984 1280.316116,799.794800 1320.179947C839.658630 1360.043762,893.722916 1382.444046,950.103134 1382.444046C1006.483353 1382.444046,1060.547638 1360.043762,1100.411469 1320.179947C1140.275284 1280.316116,1162.675568 1226.251831,1162.675568 1169.871613Z" style="stroke:rgb(25.500488%,41.000366%,88.400269%); stroke-width: 2.500000;stroke-linecap: round;stroke-linejoin: round;stroke-miterlimit: 10.000000;fill: none;"></path>
  <path d="M978.572433 851.000000C978.572433 794.619781,956.172150 740.555496,916.308334 700.691666C876.444504 660.827850,822.380219 638.427567,766.000000 638.427567C709.619781 638.427567,655.555496 660.827850,615.691666 700.691666C575.827850 740.555496,553.427567 794.619781,553.427567 851.000000C553.427567 907.380219,575.827850 961.444504,615.691666 1001.308334C655.555496 1041.172150,709.619781 1063.572433,766.000000 1063.572433C822.380219 1063.572433,876.444504 1041.172150,916.308334 1001.308334C956.172150 961.444504,978.572433 907.380219,978.572433 851.000000Z" style="stroke:rgb(25.500488%,41.000366%,88.400269%); stroke-width: 2.500000;stroke-linecap: round;stroke-linejoin: round;stroke-miterlimit: 10.000000;fill: none;"></path>
  <path d="M794.469299 532.128387C794.469299 475.748169,772.069016 421.683884,732.205200 381.820053C692.341370 341.956238,638.277084 319.555954,581.896866 319.555954C525.516647 319.555954,471.452362 341.956238,431.588531 381.820053C391.724716 421.683884,369.324432 475.748169,369.324432 532.128387C369.324432 588.508606,391.724716 642.572891,431.588531 682.436722C471.452362 722.300537,525.516647 744.700821,581.896866 744.700821C638.277084 744.700821,692.341370 722.300537,732.205200 682.436722C772.069016 642.572891,794.469299 588.508606,794.469299 532.128387Z" style="stroke:rgb(25.500488%,41.000366%,88.400269%); stroke-width: 2.500000;stroke-linecap: round;stroke-linejoin: round;stroke-miterlimit: 10.000000;fill: none;"></path>
  <path d="M794.469299 1169.871613C794.469299 1113.491394,772.069016 1059.427109,732.205200 1019.563278C692.341370 979.699463,638.277084 957.299179,581.896866 957.299179C525.516647 957.299179,471.452362 979.699463,431.588531 1019.563278C391.724716 1059.427109,369.324432 1113.491394,369.324432 1169.871613C369.324432 1226.251831,391.724716 1280.316116,431.588531 1320.179947C471.452362 1360.043762,525.516647 1382.444046,581.896866 1382.444046C638.277084 1382.444046,692.341370 1360.043762,732.205200 1320.179947C772.069016 1280.316116,794.469299 1226.251831,794.469299 1169.871613Z" style="stroke:rgb(25.500488%,41.000366%,88.400269%); stroke-width: 2.500000;stroke-linecap: round;stroke-linejoin: round;stroke-miterlimit: 10.000000;fill: none;"></path>
  <path d="M610.366150 851.000000C610.366150 794.619781,587.965866 740.555496,548.102051 700.691666C508.238220 660.827850,454.173935 638.427567,397.793716 638.427567C341.413498 638.427567,287.349213 660.827850,247.485382 700.691666C207.621567 740.555496,185.221283 794.619781,185.221283 851.000000C185.221283 907.380219,207.621567 961.444504,247.485382 1001.308334C287.349213 1041.172150,341.413498 1063.572433,397.793716 1063.572433C454.173935 1063.572433,508.238220 1041.172150,548.102051 1001.308334C587.965866 961.444504,610.366150 907.380219,610.366150 851.000000Z" style="stroke:rgb(25.500488%,41.000366%,88.400269%); stroke-width: 2.500000;stroke-linecap: round;stroke-linejoin: round;stroke-miterlimit: 10.000000;fill: none;"></path>
  <path d="M426.263016 1169.871613C426.263016 1113.491394,403.862732 1059.427109,363.998917 1019.563278C324.135086 979.699463,270.070801 957.299179,213.690582 957.299179C157.310364 957.299179,103.246078 979.699463,63.382248 1019.563278C23.518433 1059.427109,1.118149 1113.491394,1.118149 1169.871613C1.118149 1226.251831,23.518433 1280.316116,63.382248 1320.179947C103.246078 1360.043762,157.310364 1382.444046,213.690582 1382.444046C270.070801 1382.444046,324.135086 1360.043762,363.998917 1320.179947C403.862732 1280.316116,426.263016 1226.251831,426.263016 1169.871613Z" style="stroke:rgb(25.500488%,41.000366%,88.400269%); stroke-width: 2.500000;stroke-linecap: round;stroke-linejoin: round;stroke-miterlimit: 10.000000;fill: none;"></path>
</svg>
