<?xml version="1.0"?>
<!-- Created by MetaPost 2.00 on 2022.03.02:1201 -->
<svg version="1.1" xmlns="http://www.w3.org/2000/svg" xmlns:xlink="http://www.w3.org/1999/xlink" width="1826.870239" height="1895.655884" viewBox="0 0 1826.870239 1895.655884">
<!-- Original BoundingBox: -909.801849 -916.419586 917.068390 979.236298 -->
  <path d="M909.000000 128.606476L362.374054 327.567108L71.530548 831.333405L172.535538 1404.196762L618.143509 1778.112473L1199.856491 1778.112473L1645.464462 1404.196762L1746.469452 831.333405L1455.625946 327.567108L909.000000 128.606476Z" style="fill: rgb(100.000000%,100.000000%,100.000000%);stroke: none;"></path>
  <path d="M909.000000 128.606476L362.374054 327.567108" style="stroke:rgb(0.000000%,0.000000%,0.000000%); stroke-width: 2.500000;stroke-linecap: round;stroke-linejoin: round;stroke-miterlimit: 10.000000;fill: none;"></path>
  <path d="M362.374054 327.567108L71.530548 831.333405" style="stroke:rgb(0.000000%,0.000000%,0.000000%); stroke-width: 2.500000;stroke-linecap: round;stroke-linejoin: round;stroke-miterlimit: 10.000000;fill: none;"></path>
  <path d="M71.530548 831.333405L172.535538 1404.196762" style="stroke:rgb(0.000000%,0.000000%,0.000000%); stroke-width: 2.500000;stroke-linecap: round;stroke-linejoin: round;stroke-miterlimit: 10.000000;fill: none;"></path>
  <path d="M172.535538 1404.196762L618.143509 1778.112473" style="stroke:rgb(0.000000%,0.000000%,0.000000%); stroke-width: 2.500000;stroke-linecap: round;stroke-linejoin: round;stroke-miterlimit: 10.000000;fill: none;"></path>
  <path d="M618.143509 1778.112473L1199.856491 1778.112473" style="stroke:rgb(0.000000%,0.000000%,0.000000%); stroke-width: 2.500000;stroke-linecap: round;stroke-linejoin: round;stroke-miterlimit: 10.000000;fill: none;"></path>
  <path d="M1199.856491 1778.112473L1645.464462 1404.196762" style="stroke:rgb(0.000000%,0.000000%,0.000000%); stroke-width: 2.500000;stroke-linecap: round;stroke-linejoin: round;stroke-miterlimit: 10.000000;fill: none;"></path>
  <path d="M1645.464462 1404.196762L1746.469452 831.333405" style="stroke:rgb(0.000000%,0.000000%,0.000000%); stroke-width: 2.500000;stroke-linecap: round;stroke-linejoin: round;stroke-miterlimit: 10.000000;fill: none;"></path>
  <path d="M1746.469452 831.333405L1455.625946 327.567108" style="stroke:rgb(0.000000%,0.000000%,0.000000%); stroke-width: 2.500000;stroke-linecap: round;stroke-linejoin: round;stroke-miterlimit: 10.000000;fill: none;"></path>
  <path d="M1455.625946 327.567108L909.000000 128.606476" style="stroke:rgb(0.000000%,0.000000%,0.000000%); stroke-width: 2.500000;stroke-linecap: round;stroke-linejoin: round;stroke-miterlimit: 10.000000;fill: none;"></path>
  <path d="M1824.818390 1269.830536C1824.818390 1211.375031,1801.593582 1155.320709,1760.262421 1113.989563C1718.931274 1072.658401,1662.876953 1049.433594,1604.421448 1049.433594C1545.965942 1049.433594,1489.911621 1072.658401,1448.580475 1113.989563C1407.249313 1155.320709,1384.024506 1211.375031,1384.024506 1269.830536C1384.024506 1328.286041,1407.249313 1384.340363,1448.580475 1425.671509C1489.911621 1467.002670,1545.965942 1490.227478,1604.421448 1490.227478C1662.876953 1490.227478,1718.931274 1467.002670,1760.262421 1425.671509C1801.593582 1384.340363,1824.818390 1328.286041,1824.818390 1269.830536Z" style="stroke:rgb(25.500488%,41.000366%,88.400269%); stroke-width: 2.500000;stroke-linecap: round;stroke-linejoin: round;stroke-miterlimit: 10.000000;fill: none;"></path>
  <path d="M1339.555847 1661.354645C1339.555847 1602.899139,1316.331039 1546.844818,1274.999878 1505.513672C1233.668732 1464.182510,1177.614410 1440.957703,1119.158905 1440.957703C1060.703400 1440.957703,1004.649078 1464.182510,963.317932 1505.513672C921.986771 1546.844818,898.761963 1602.899139,898.761963 1661.354645C898.761963 1719.810150,921.986771 1775.864471,963.317932 1817.195618C1004.649078 1858.526779,1060.703400 1881.751587,1119.158905 1881.751587C1177.614410 1881.751587,1233.668732 1858.526779,1274.999878 1817.195618C1316.331039 1775.864471,1339.555847 1719.810150,1339.555847 1661.354645Z" style="stroke:rgb(25.500488%,41.000366%,88.400269%); stroke-width: 2.500000;stroke-linecap: round;stroke-linejoin: round;stroke-miterlimit: 10.000000;fill: none;"></path>
  <path d="M1555.047867 1440.516510C1555.047867 1382.061005,1531.823059 1326.006683,1490.491898 1284.675537C1449.160751 1243.344376,1393.106430 1220.119568,1334.650925 1220.119568C1276.195419 1220.119568,1220.141098 1243.344376,1178.809952 1284.675537C1137.478790 1326.006683,1114.253983 1382.061005,1114.253983 1440.516510C1114.253983 1498.972015,1137.478790 1555.026337,1178.809952 1596.357483C1220.141098 1637.688644,1276.195419 1660.913452,1334.650925 1660.913452C1393.106430 1660.913452,1449.160751 1637.688644,1490.491898 1596.357483C1531.823059 1555.026337,1555.047867 1498.972015,1555.047867 1440.516510Z" style="stroke:rgb(25.500488%,41.000366%,88.400269%); stroke-width: 2.500000;stroke-linecap: round;stroke-linejoin: round;stroke-miterlimit: 10.000000;fill: none;"></path>
  <path d="M1485.431763 1129.417511C1485.431763 1070.962006,1462.206955 1014.907684,1420.875793 973.576538C1379.544647 932.245377,1323.490326 909.020569,1265.034821 909.020569C1206.579315 909.020569,1150.524994 932.245377,1109.193848 973.576538C1067.862686 1014.907684,1044.637878 1070.962006,1044.637878 1129.417511C1044.637878 1187.873016,1067.862686 1243.927338,1109.193848 1285.258484C1150.524994 1326.589645,1206.579315 1349.814453,1265.034821 1349.814453C1323.490326 1349.814453,1379.544647 1326.589645,1420.875793 1285.258484C1462.206955 1243.927338,1485.431763 1187.873016,1485.431763 1129.417511Z" style="stroke:rgb(25.500488%,41.000366%,88.400269%); stroke-width: 2.500000;stroke-linecap: round;stroke-linejoin: round;stroke-miterlimit: 10.000000;fill: none;"></path>
  <path d="M1801.124268 890.296234C1801.124268 831.840729,1777.899460 775.786407,1736.568298 734.455261C1695.237152 693.124100,1639.182831 669.899292,1580.727325 669.899292C1522.271820 669.899292,1466.217499 693.124100,1424.886353 734.455261C1383.555191 775.786407,1360.330383 831.840729,1360.330383 890.296234C1360.330383 948.751740,1383.555191 1004.806061,1424.886353 1046.137207C1466.217499 1087.468369,1522.271820 1110.693176,1580.727325 1110.693176C1639.182831 1110.693176,1695.237152 1087.468369,1736.568298 1046.137207C1777.899460 1004.806061,1801.124268 948.751740,1801.124268 890.296234Z" style="stroke:rgb(25.500488%,41.000366%,88.400269%); stroke-width: 2.500000;stroke-linecap: round;stroke-linejoin: round;stroke-miterlimit: 10.000000;fill: none;"></path>
  <path d="M958.477386 1673.772644C958.477386 1615.317139,935.252579 1559.262817,893.921417 1517.931671C852.590271 1476.600510,796.535950 1453.375702,738.080444 1453.375702C679.624939 1453.375702,623.570618 1476.600510,582.239471 1517.931671C540.908310 1559.262817,517.683502 1615.317139,517.683502 1673.772644C517.683502 1732.228149,540.908310 1788.282471,582.239471 1829.613617C623.570618 1870.944778,679.624939 1894.169586,738.080444 1894.169586C796.535950 1894.169586,852.590271 1870.944778,893.921417 1829.613617C935.252579 1788.282471,958.477386 1732.228149,958.477386 1673.772644Z" style="stroke:rgb(25.500488%,41.000366%,88.400269%); stroke-width: 2.500000;stroke-linecap: round;stroke-linejoin: round;stroke-miterlimit: 10.000000;fill: none;"></path>
  <path d="M1152.052994 1336.721695C1152.052994 1278.266190,1128.828186 1222.211868,1087.497025 1180.880722C1046.165878 1139.549561,990.111557 1116.324753,931.656052 1116.324753C873.200546 1116.324753,817.146225 1139.549561,775.815079 1180.880722C734.483917 1222.211868,711.259109 1278.266190,711.259109 1336.721695C711.259109 1395.177200,734.483917 1451.231522,775.815079 1492.562668C817.146225 1533.893829,873.200546 1557.118637,931.656052 1557.118637C990.111557 1557.118637,1046.165878 1533.893829,1087.497025 1492.562668C1128.828186 1451.231522,1152.052994 1395.177200,1152.052994 1336.721695Z" style="stroke:rgb(25.500488%,41.000366%,88.400269%); stroke-width: 2.500000;stroke-linecap: round;stroke-linejoin: round;stroke-miterlimit: 10.000000;fill: none;"></path>
  <path d="M1135.962784 969.864914C1135.962784 911.409409,1112.737976 855.355087,1071.406815 814.023941C1030.075668 772.692780,974.021347 749.467972,915.565842 749.467972C857.110336 749.467972,801.056015 772.692780,759.724869 814.023941C718.393707 855.355087,695.168900 911.409409,695.168900 969.864914C695.168900 1028.320419,718.393707 1084.374741,759.724869 1125.705887C801.056015 1167.037048,857.110336 1190.261856,915.565842 1190.261856C974.021347 1190.261856,1030.075668 1167.037048,1071.406815 1125.705887C1112.737976 1084.374741,1135.962784 1028.320419,1135.962784 969.864914Z" style="stroke:rgb(25.500488%,41.000366%,88.400269%); stroke-width: 2.500000;stroke-linecap: round;stroke-linejoin: round;stroke-miterlimit: 10.000000;fill: none;"></path>
  <path d="M1454.964172 754.619431C1454.964172 696.163925,1431.739365 640.109604,1390.408203 598.778458C1349.077057 557.447296,1293.022736 534.222488,1234.567230 534.222488C1176.111725 534.222488,1120.057404 557.447296,1078.726257 598.778458C1037.395096 640.109604,1014.170288 696.163925,1014.170288 754.619431C1014.170288 813.074936,1037.395096 869.129257,1078.726257 910.460403C1120.057404 951.791565,1176.111725 975.016373,1234.567230 975.016373C1293.022736 975.016373,1349.077057 951.791565,1390.408203 910.460403C1431.739365 869.129257,1454.964172 813.074936,1454.964172 754.619431Z" style="stroke:rgb(25.500488%,41.000366%,88.400269%); stroke-width: 2.500000;stroke-linecap: round;stroke-linejoin: round;stroke-miterlimit: 10.000000;fill: none;"></path>
  <path d="M1752.814697 507.479004C1752.814697 449.023499,1729.589890 392.969177,1688.258728 351.638031C1646.927582 310.306870,1590.873260 287.082062,1532.417755 287.082062C1473.962250 287.082062,1417.907928 310.306870,1376.576782 351.638031C1335.245621 392.969177,1312.020813 449.023499,1312.020813 507.479004C1312.020813 565.934509,1335.245621 621.988831,1376.576782 663.319977C1417.907928 704.651138,1473.962250 727.875946,1532.417755 727.875946C1590.873260 727.875946,1646.927582 704.651138,1688.258728 663.319977C1729.589890 621.988831,1752.814697 565.934509,1752.814697 507.479004Z" style="stroke:rgb(25.500488%,41.000366%,88.400269%); stroke-width: 2.500000;stroke-linecap: round;stroke-linejoin: round;stroke-miterlimit: 10.000000;fill: none;"></path>
  <path d="M758.777130 1475.110474C758.777130 1416.654968,735.552322 1360.600647,694.221161 1319.269501C652.890015 1277.938339,596.835693 1254.713531,538.380188 1254.713531C479.924683 1254.713531,423.870361 1277.938339,382.539215 1319.269501C341.208054 1360.600647,317.983246 1416.654968,317.983246 1475.110474C317.983246 1533.565979,341.208054 1589.620300,382.539215 1630.951447C423.870361 1672.282608,479.924683 1695.507416,538.380188 1695.507416C596.835693 1695.507416,652.890015 1672.282608,694.221161 1630.951447C735.552322 1589.620300,758.777130 1533.565979,758.777130 1475.110474Z" style="stroke:rgb(25.500488%,41.000366%,88.400269%); stroke-width: 2.500000;stroke-linecap: round;stroke-linejoin: round;stroke-miterlimit: 10.000000;fill: none;"></path>
  <path d="M801.805466 1160.300323C801.805466 1101.844818,778.580658 1045.790497,737.249496 1004.459351C695.918350 963.128189,639.864029 939.903381,581.408524 939.903381C522.953018 939.903381,466.898697 963.128189,425.567551 1004.459351C384.236389 1045.790497,361.011581 1101.844818,361.011581 1160.300323C361.011581 1218.755829,384.236389 1274.810150,425.567551 1316.141296C466.898697 1357.472458,522.953018 1380.697266,581.408524 1380.697266C639.864029 1380.697266,695.918350 1357.472458,737.249496 1316.141296C778.580658 1274.810150,801.805466 1218.755829,801.805466 1160.300323Z" style="stroke:rgb(25.500488%,41.000366%,88.400269%); stroke-width: 2.500000;stroke-linecap: round;stroke-linejoin: round;stroke-miterlimit: 10.000000;fill: none;"></path>
  <path d="M1111.736633 590.667984C1111.736633 532.212479,1088.511826 476.158157,1047.180664 434.827011C1005.849518 393.495850,949.795197 370.271042,891.339691 370.271042C832.884186 370.271042,776.829865 393.495850,735.498718 434.827011C694.167557 476.158157,670.942749 532.212479,670.942749 590.667984C670.942749 649.123489,694.167557 705.177811,735.498718 746.508957C776.829865 787.840118,832.884186 811.064926,891.339691 811.064926C949.795197 811.064926,1005.849518 787.840118,1047.180664 746.508957C1088.511826 705.177811,1111.736633 649.123489,1111.736633 590.667984Z" style="stroke:rgb(25.500488%,41.000366%,88.400269%); stroke-width: 2.500000;stroke-linecap: round;stroke-linejoin: round;stroke-miterlimit: 10.000000;fill: none;"></path>
  <path d="M1431.828003 375.954514C1431.828003 317.499008,1408.603195 261.444687,1367.272034 220.113541C1325.940887 178.782379,1269.886566 155.557571,1211.431061 155.557571C1152.975555 155.557571,1096.921234 178.782379,1055.590088 220.113541C1014.258926 261.444687,991.034119 317.499008,991.034119 375.954514C991.034119 434.410019,1014.258926 490.464340,1055.590088 531.795486C1096.921234 573.126648,1152.975555 596.351456,1211.431061 596.351456C1269.886566 596.351456,1325.940887 573.126648,1367.272034 531.795486C1408.603195 490.464340,1431.828003 434.410019,1431.828003 375.954514Z" style="stroke:rgb(25.500488%,41.000366%,88.400269%); stroke-width: 2.500000;stroke-linecap: round;stroke-linejoin: round;stroke-miterlimit: 10.000000;fill: none;"></path>
  <path d="M470.814285 1325.445572C470.814285 1266.990067,447.589478 1210.935745,406.258316 1169.604599C364.927170 1128.273438,308.872849 1105.048630,250.417343 1105.048630C191.961838 1105.048630,135.907516 1128.273438,94.576370 1169.604599C53.245209 1210.935745,30.020401 1266.990067,30.020401 1325.445572C30.020401 1383.901077,53.245209 1439.955399,94.576370 1481.286545C135.907516 1522.617706,191.961838 1545.842514,250.417343 1545.842514C308.872849 1545.842514,364.927170 1522.617706,406.258316 1481.286545C447.589478 1439.955399,470.814285 1383.901077,470.814285 1325.445572Z" style="stroke:rgb(25.500488%,41.000366%,88.400269%); stroke-width: 2.500000;stroke-linecap: round;stroke-linejoin: round;stroke-miterlimit: 10.000000;fill: none;"></path>
  <path d="M458.889359 953.333527C458.889359 894.878021,435.664551 838.823700,394.333389 797.492554C353.002243 756.161392,296.947922 732.936584,238.492416 732.936584C180.036911 732.936584,123.982590 756.161392,82.651443 797.492554C41.320282 838.823700,18.095474 894.878021,18.095474 953.333527C18.095474 1011.789032,41.320282 1067.843353,82.651443 1109.174500C123.982590 1150.505661,180.036911 1173.730469,238.492416 1173.730469C296.947922 1173.730469,353.002243 1150.505661,394.333389 1109.174500C435.664551 1067.843353,458.889359 1011.789032,458.889359 953.333527Z" style="stroke:rgb(25.500488%,41.000366%,88.400269%); stroke-width: 2.500000;stroke-linecap: round;stroke-linejoin: round;stroke-miterlimit: 10.000000;fill: none;"></path>
  <path d="M791.956696 789.408020C791.956696 730.952515,768.731888 674.898193,727.400726 633.567047C686.069580 592.235886,630.015259 569.011078,571.559753 569.011078C513.104248 569.011078,457.049927 592.235886,415.718781 633.567047C374.387619 674.898193,351.162811 730.952515,351.162811 789.408020C351.162811 847.863525,374.387619 903.917847,415.718781 945.248993C457.049927 986.580154,513.104248 1009.804962,571.559753 1009.804962C630.015259 1009.804962,686.069580 986.580154,727.400726 945.248993C768.731888 903.917847,791.956696 847.863525,791.956696 789.408020Z" style="stroke:rgb(25.500488%,41.000366%,88.400269%); stroke-width: 2.500000;stroke-linecap: round;stroke-linejoin: round;stroke-miterlimit: 10.000000;fill: none;"></path>
  <path d="M1089.366058 221.410645C1089.366058 162.955139,1066.141251 106.900818,1024.810089 65.569672C983.478943 24.238510,927.424622 1.013702,868.969116 1.013702C810.513611 1.013702,754.459290 24.238510,713.128143 65.569672C671.796982 106.900818,648.572174 162.955139,648.572174 221.410645C648.572174 279.866150,671.796982 335.920471,713.128143 377.251617C754.459290 418.582779,810.513611 441.807587,868.969116 441.807587C927.424622 441.807587,983.478943 418.582779,1024.810089 377.251617C1066.141251 335.920471,1089.366058 279.866150,1089.366058 221.410645Z" style="stroke:rgb(25.500488%,41.000366%,88.400269%); stroke-width: 2.500000;stroke-linecap: round;stroke-linejoin: round;stroke-miterlimit: 10.000000;fill: none;"></path>
  <path d="M441.242035 597.311676C441.242035 538.856171,418.017227 482.801849,376.686066 441.470703C335.354919 400.139542,279.300598 376.914734,220.845093 376.914734C162.389587 376.914734,106.335266 400.139542,65.004120 441.470703C23.672958 482.801849,0.448151 538.856171,0.448151 597.311676C0.448151 655.767181,23.672958 711.821503,65.004120 753.152649C106.335266 794.483810,162.389587 817.708618,220.845093 817.708618C279.300598 817.708618,335.354919 794.483810,376.686066 753.152649C418.017227 711.821503,441.242035 655.767181,441.242035 597.311676Z" style="stroke:rgb(25.500488%,41.000366%,88.400269%); stroke-width: 2.500000;stroke-linecap: round;stroke-linejoin: round;stroke-miterlimit: 10.000000;fill: none;"></path>
  <path d="M760.528885 415.284698C760.528885 356.829193,737.304077 300.774872,695.972916 259.443726C654.641769 218.112564,598.587448 194.887756,540.131943 194.887756C481.676437 194.887756,425.622116 218.112564,384.290970 259.443726C342.959808 300.774872,319.735001 356.829193,319.735001 415.284698C319.735001 473.740204,342.959808 529.794525,384.290970 571.125671C425.622116 612.456833,481.676437 635.681641,540.131943 635.681641C598.587448 635.681641,654.641769 612.456833,695.972916 571.125671C737.304077 529.794525,760.528885 473.740204,760.528885 415.284698Z" style="stroke:rgb(25.500488%,41.000366%,88.400269%); stroke-width: 2.500000;stroke-linecap: round;stroke-linejoin: round;stroke-miterlimit: 10.000000;fill: none;"></path>
</svg>
