<?xml version="1.0"?>
<!-- Created by MetaPost 2.00 on 2022.03.02:1201 -->
<svg version="1.1" xmlns="http://www.w3.org/2000/svg" xmlns:xlink="http://www.w3.org/1999/xlink" width="1908.800537" height="1822.017212" viewBox="0 0 1908.800537 1822.017212">
<!-- Original BoundingBox: -961.757645 -902.729935 947.042892 919.287277 -->
  <path d="M961.000000 68.606476L501.248215 203.608521L187.450195 565.729065L119.261444 1040.026917L318.312912 1475.889938L721.411591 1734.942307L1200.588409 1734.942307L1603.687088 1475.889938L1802.738556 1040.026917L1734.549805 565.729065L1420.751785 203.608521L961.000000 68.606476Z" style="fill: rgb(100.000000%,100.000000%,100.000000%);stroke: none;"></path>
  <path d="M961.000000 68.606476L501.248215 203.608521" style="stroke:rgb(0.000000%,0.000000%,0.000000%); stroke-width: 2.500000;stroke-linecap: round;stroke-linejoin: round;stroke-miterlimit: 10.000000;fill: none;"></path>
  <path d="M501.248215 203.608521L187.450195 565.729065" style="stroke:rgb(0.000000%,0.000000%,0.000000%); stroke-width: 2.500000;stroke-linecap: round;stroke-linejoin: round;stroke-miterlimit: 10.000000;fill: none;"></path>
  <path d="M187.450195 565.729065L119.261444 1040.026917" style="stroke:rgb(0.000000%,0.000000%,0.000000%); stroke-width: 2.500000;stroke-linecap: round;stroke-linejoin: round;stroke-miterlimit: 10.000000;fill: none;"></path>
  <path d="M119.261444 1040.026917L318.312912 1475.889938" style="stroke:rgb(0.000000%,0.000000%,0.000000%); stroke-width: 2.500000;stroke-linecap: round;stroke-linejoin: round;stroke-miterlimit: 10.000000;fill: none;"></path>
  <path d="M318.312912 1475.889938L721.411591 1734.942307" style="stroke:rgb(0.000000%,0.000000%,0.000000%); stroke-width: 2.500000;stroke-linecap: round;stroke-linejoin: round;stroke-miterlimit: 10.000000;fill: none;"></path>
  <path d="M721.411591 1734.942307L1200.588409 1734.942307" style="stroke:rgb(0.000000%,0.000000%,0.000000%); stroke-width: 2.500000;stroke-linecap: round;stroke-linejoin: round;stroke-miterlimit: 10.000000;fill: none;"></path>
  <path d="M1200.588409 1734.942307L1603.687088 1475.889938" style="stroke:rgb(0.000000%,0.000000%,0.000000%); stroke-width: 2.500000;stroke-linecap: round;stroke-linejoin: round;stroke-miterlimit: 10.000000;fill: none;"></path>
  <path d="M1603.687088 1475.889938L1802.738556 1040.026917" style="stroke:rgb(0.000000%,0.000000%,0.000000%); stroke-width: 2.500000;stroke-linecap: round;stroke-linejoin: round;stroke-miterlimit: 10.000000;fill: none;"></path>
  <path d="M1802.738556 1040.026917L1734.549805 565.729065" style="stroke:rgb(0.000000%,0.000000%,0.000000%); stroke-width: 2.500000;stroke-linecap: round;stroke-linejoin: round;stroke-miterlimit: 10.000000;fill: none;"></path>
  <path d="M1734.549805 565.729065L1420.751785 203.608521" style="stroke:rgb(0.000000%,0.000000%,0.000000%); stroke-width: 2.500000;stroke-linecap: round;stroke-linejoin: round;stroke-miterlimit: 10.000000;fill: none;"></path>
  <path d="M1420.751785 203.608521L961.000000 68.606476" style="stroke:rgb(0.000000%,0.000000%,0.000000%); stroke-width: 2.500000;stroke-linecap: round;stroke-linejoin: round;stroke-miterlimit: 10.000000;fill: none;"></path>
  <path d="M1622.995331 404.450668C1622.995331 355.900085,1603.705811 309.343811,1569.377960 275.015961C1535.050110 240.688110,1488.493835 221.398590,1439.943253 221.398590C1391.392670 221.398590,1344.836395 240.688110,1310.508545 275.015961C1276.180695 309.343811,1256.891174 355.900085,1256.891174 404.450668C1256.891174 453.001251,1276.180695 499.557526,1310.508545 533.885376C1344.836395 568.213226,1391.392670 587.502747,1439.943253 587.502747C1488.493835 587.502747,1535.050110 568.213226,1569.377960 533.885376C1603.705811 499.557526,1622.995331 453.001251,1622.995331 404.450668Z" style="stroke:rgb(25.500488%,41.000366%,88.400269%); stroke-width: 2.500000;stroke-linecap: round;stroke-linejoin: round;stroke-miterlimit: 10.000000;fill: none;"></path>
  <path d="M1440.060028 184.014801C1440.060028 135.464218,1420.770508 88.907944,1386.442657 54.580093C1352.114807 20.252243,1305.558533 0.962723,1257.007950 0.962723C1208.457367 0.962723,1161.901093 20.252243,1127.573242 54.580093C1093.245392 88.907944,1073.955872 135.464218,1073.955872 184.014801C1073.955872 232.565384,1093.245392 279.121658,1127.573242 313.449509C1161.901093 347.777359,1208.457367 367.066879,1257.007950 367.066879C1305.558533 367.066879,1352.114807 347.777359,1386.442657 313.449509C1420.770508 279.121658,1440.060028 232.565384,1440.060028 184.014801Z" style="stroke:rgb(25.500488%,41.000366%,88.400269%); stroke-width: 2.500000;stroke-linecap: round;stroke-linejoin: round;stroke-miterlimit: 10.000000;fill: none;"></path>
  <path d="M1906.792892 919.207611C1906.792892 870.657028,1887.503372 824.100754,1853.175522 789.772903C1818.847672 755.445053,1772.291397 736.155533,1723.740814 736.155533C1675.190231 736.155533,1628.633957 755.445053,1594.306107 789.772903C1559.978256 824.100754,1540.688736 870.657028,1540.688736 919.207611C1540.688736 967.758194,1559.978256 1014.314468,1594.306107 1048.642319C1628.633957 1082.970169,1675.190231 1102.259689,1723.740814 1102.259689C1772.291397 1102.259689,1818.847672 1082.970169,1853.175522 1048.642319C1887.503372 1014.314468,1906.792892 967.758194,1906.792892 919.207611Z" style="stroke:rgb(25.500488%,41.000366%,88.400269%); stroke-width: 2.500000;stroke-linecap: round;stroke-linejoin: round;stroke-miterlimit: 10.000000;fill: none;"></path>
  <path d="M1806.540497 617.230713C1806.540497 568.680130,1787.250977 522.123856,1752.923126 487.796005C1718.595276 453.468155,1672.039001 434.178635,1623.488419 434.178635C1574.937836 434.178635,1528.381561 453.468155,1494.053711 487.796005C1459.725861 522.123856,1440.436340 568.680130,1440.436340 617.230713C1440.436340 665.781296,1459.725861 712.337570,1494.053711 746.665421C1528.381561 780.993271,1574.937836 800.282791,1623.488419 800.282791C1672.039001 800.282791,1718.595276 780.993271,1752.923126 746.665421C1787.250977 712.337570,1806.540497 665.781296,1806.540497 617.230713Z" style="stroke:rgb(25.500488%,41.000366%,88.400269%); stroke-width: 2.500000;stroke-linecap: round;stroke-linejoin: round;stroke-miterlimit: 10.000000;fill: none;"></path>
  <path d="M1306.731888 445.039520C1306.731888 396.488937,1287.442368 349.932663,1253.114517 315.604813C1218.786667 281.276962,1172.230392 261.987442,1123.679810 261.987442C1075.129227 261.987442,1028.572952 281.276962,994.245102 315.604813C959.917252 349.932663,940.627731 396.488937,940.627731 445.039520C940.627731 493.590103,959.917252 540.146378,994.245102 574.474228C1028.572952 608.802078,1075.129227 628.091599,1123.679810 628.091599C1172.230392 628.091599,1218.786667 608.802078,1253.114517 574.474228C1287.442368 540.146378,1306.731888 493.590103,1306.731888 445.039520Z" style="stroke:rgb(25.500488%,41.000366%,88.400269%); stroke-width: 2.500000;stroke-linecap: round;stroke-linejoin: round;stroke-miterlimit: 10.000000;fill: none;"></path>
  <path d="M1109.743607 187.414505C1109.743607 138.863922,1090.454086 92.307648,1056.126236 57.979797C1021.798386 23.651947,975.242111 4.362427,926.691528 4.362427C878.140945 4.362427,831.584671 23.651947,797.256821 57.979797C762.928970 92.307648,743.639450 138.863922,743.639450 187.414505C743.639450 235.965088,762.928970 282.521362,797.256821 316.849213C831.584671 351.177063,878.140945 370.466583,926.691528 370.466583C975.242111 370.466583,1021.798386 351.177063,1056.126236 316.849213C1090.454086 282.521362,1109.743607 235.965088,1109.743607 187.414505Z" style="stroke:rgb(25.500488%,41.000366%,88.400269%); stroke-width: 2.500000;stroke-linecap: round;stroke-linejoin: round;stroke-miterlimit: 10.000000;fill: none;"></path>
  <path d="M1825.744949 1217.187912C1825.744949 1168.637329,1806.455429 1122.081055,1772.127579 1087.753204C1737.799728 1053.425354,1691.243454 1034.135834,1642.692871 1034.135834C1594.142288 1034.135834,1547.586014 1053.425354,1513.258163 1087.753204C1478.930313 1122.081055,1459.640793 1168.637329,1459.640793 1217.187912C1459.640793 1265.738495,1478.930313 1312.294769,1513.258163 1346.622620C1547.586014 1380.950470,1594.142288 1400.239990,1642.692871 1400.239990C1691.243454 1400.239990,1737.799728 1380.950470,1772.127579 1346.622620C1806.455429 1312.294769,1825.744949 1265.738495,1825.744949 1217.187912Z" style="stroke:rgb(25.500488%,41.000366%,88.400269%); stroke-width: 2.500000;stroke-linecap: round;stroke-linejoin: round;stroke-miterlimit: 10.000000;fill: none;"></path>
  <path d="M1645.742218 909.268021C1645.742218 860.717438,1626.452698 814.161163,1592.124847 779.833313C1557.796997 745.505463,1511.240723 726.215942,1462.690140 726.215942C1414.139557 726.215942,1367.583282 745.505463,1333.255432 779.833313C1298.927582 814.161163,1279.638062 860.717438,1279.638062 909.268021C1279.638062 957.818604,1298.927582 1004.374878,1333.255432 1038.702728C1367.583282 1073.030579,1414.139557 1092.320099,1462.690140 1092.320099C1511.240723 1092.320099,1557.796997 1073.030579,1592.124847 1038.702728C1626.452698 1004.374878,1645.742218 957.818604,1645.742218 909.268021Z" style="stroke:rgb(25.500488%,41.000366%,88.400269%); stroke-width: 2.500000;stroke-linecap: round;stroke-linejoin: round;stroke-miterlimit: 10.000000;fill: none;"></path>
  <path d="M1479.260452 697.007019C1479.260452 648.456436,1459.970932 601.900162,1425.643082 567.572311C1391.315231 533.244461,1344.758957 513.954941,1296.208374 513.954941C1247.657791 513.954941,1201.101517 533.244461,1166.773666 567.572311C1132.445816 601.900162,1113.156296 648.456436,1113.156296 697.007019C1113.156296 745.557602,1132.445816 792.113876,1166.773666 826.441727C1201.101517 860.769577,1247.657791 880.059097,1296.208374 880.059097C1344.758957 880.059097,1391.315231 860.769577,1425.643082 826.441727C1459.970932 792.113876,1479.260452 745.557602,1479.260452 697.007019Z" style="stroke:rgb(25.500488%,41.000366%,88.400269%); stroke-width: 2.500000;stroke-linecap: round;stroke-linejoin: round;stroke-miterlimit: 10.000000;fill: none;"></path>
  <path d="M1182.538818 722.647537C1182.538818 674.096954,1163.249298 627.540680,1128.921448 593.212830C1094.593597 558.884979,1048.037323 539.595459,999.486740 539.595459C950.936157 539.595459,904.379883 558.884979,870.052032 593.212830C835.724182 627.540680,816.434662 674.096954,816.434662 722.647537C816.434662 771.198120,835.724182 817.754395,870.052032 852.082245C904.379883 886.410095,950.936157 905.699615,999.486740 905.699615C1048.037323 905.699615,1094.593597 886.410095,1128.921448 852.082245C1163.249298 817.754395,1182.538818 771.198120,1182.538818 722.647537Z" style="stroke:rgb(25.500488%,41.000366%,88.400269%); stroke-width: 2.500000;stroke-linecap: round;stroke-linejoin: round;stroke-miterlimit: 10.000000;fill: none;"></path>
  <path d="M985.641373 465.022522C985.641373 416.471939,966.351852 369.915665,932.024002 335.587814C897.696152 301.259964,851.139877 281.970444,802.589294 281.970444C754.038712 281.970444,707.482437 301.259964,673.154587 335.587814C638.826736 369.915665,619.537216 416.471939,619.537216 465.022522C619.537216 513.573105,638.826736 560.129379,673.154587 594.457230C707.482437 628.785080,754.038712 648.074600,802.589294 648.074600C851.139877 648.074600,897.696152 628.785080,932.024002 594.457230C966.351852 560.129379,985.641373 513.573105,985.641373 465.022522Z" style="stroke:rgb(25.500488%,41.000366%,88.400269%); stroke-width: 2.500000;stroke-linecap: round;stroke-linejoin: round;stroke-miterlimit: 10.000000;fill: none;"></path>
  <path d="M780.919403 226.913376C780.919403 178.362793,761.629883 131.806519,727.302032 97.478668C692.974182 63.150818,646.417908 43.861298,597.867325 43.861298C549.316742 43.861298,502.760468 63.150818,468.432617 97.478668C434.104767 131.806519,414.815247 178.362793,414.815247 226.913376C414.815247 275.463959,434.104767 322.020233,468.432617 356.348083C502.760468 390.675934,549.316742 409.965454,597.867325 409.965454C646.417908 409.965454,692.974182 390.675934,727.302032 356.348083C761.629883 322.020233,780.919403 275.463959,780.919403 226.913376Z" style="stroke:rgb(25.500488%,41.000366%,88.400269%); stroke-width: 2.500000;stroke-linecap: round;stroke-linejoin: round;stroke-miterlimit: 10.000000;fill: none;"></path>
  <path d="M1552.665543 1171.616287C1552.665543 1123.065704,1533.376022 1076.509430,1499.048172 1042.181580C1464.720322 1007.853729,1418.164047 988.564209,1369.613464 988.564209C1321.062881 988.564209,1274.506607 1007.853729,1240.178757 1042.181580C1205.850906 1076.509430,1186.561386 1123.065704,1186.561386 1171.616287C1186.561386 1220.166870,1205.850906 1266.723145,1240.178757 1301.050995C1274.506607 1335.378845,1321.062881 1354.668365,1369.613464 1354.668365C1418.164047 1354.668365,1464.720322 1335.378845,1499.048172 1301.050995C1533.376022 1266.723145,1552.665543 1220.166870,1552.665543 1171.616287Z" style="stroke:rgb(25.500488%,41.000366%,88.400269%); stroke-width: 2.500000;stroke-linecap: round;stroke-linejoin: round;stroke-miterlimit: 10.000000;fill: none;"></path>
  <path d="M1325.923355 998.399994C1325.923355 949.849411,1306.633835 903.293137,1272.305984 868.965286C1237.978134 834.637436,1191.421860 815.347916,1142.871277 815.347916C1094.320694 815.347916,1047.764420 834.637436,1013.436569 868.965286C979.108719 903.293137,959.819199 949.849411,959.819199 998.399994C959.819199 1046.950577,979.108719 1093.506851,1013.436569 1127.834702C1047.764420 1162.162552,1094.320694 1181.452072,1142.871277 1181.452072C1191.421860 1181.452072,1237.978134 1162.162552,1272.305984 1127.834702C1306.633835 1093.506851,1325.923355 1046.950577,1325.923355 998.399994Z" style="stroke:rgb(25.500488%,41.000366%,88.400269%); stroke-width: 2.500000;stroke-linecap: round;stroke-linejoin: round;stroke-miterlimit: 10.000000;fill: none;"></path>
  <path d="M1022.804565 968.710968C1022.804565 920.160385,1003.515045 873.604111,969.187195 839.276260C934.859344 804.948410,888.303070 785.658890,839.752487 785.658890C791.201904 785.658890,744.645630 804.948410,710.317780 839.276260C675.989929 873.604111,656.700409 920.160385,656.700409 968.710968C656.700409 1017.261551,675.989929 1063.817825,710.317780 1098.145676C744.645630 1132.473526,791.201904 1151.763046,839.752487 1151.763046C888.303070 1151.763046,934.859344 1132.473526,969.187195 1098.145676C1003.515045 1063.817825,1022.804565 1017.261551,1022.804565 968.710968Z" style="stroke:rgb(25.500488%,41.000366%,88.400269%); stroke-width: 2.500000;stroke-linecap: round;stroke-linejoin: round;stroke-miterlimit: 10.000000;fill: none;"></path>
  <path d="M844.852036 708.841095C844.852036 660.290512,825.562515 613.734238,791.234665 579.406387C756.906815 545.078537,710.350540 525.789017,661.799957 525.789017C613.249374 525.789017,566.693100 545.078537,532.365250 579.406387C498.037399 613.734238,478.747879 660.290512,478.747879 708.841095C478.747879 757.391678,498.037399 803.947952,532.365250 838.275803C566.693100 872.603653,613.249374 891.893173,661.799957 891.893173C710.350540 891.893173,756.906815 872.603653,791.234665 838.275803C825.562515 803.947952,844.852036 757.391678,844.852036 708.841095Z" style="stroke:rgb(25.500488%,41.000366%,88.400269%); stroke-width: 2.500000;stroke-linecap: round;stroke-linejoin: round;stroke-miterlimit: 10.000000;fill: none;"></path>
  <path d="M640.207932 470.706009C640.207932 422.155426,620.918411 375.599152,586.590561 341.271301C552.262711 306.943451,505.706436 287.653931,457.155853 287.653931C408.605270 287.653931,362.048996 306.943451,327.721146 341.271301C293.393295 375.599152,274.103775 422.155426,274.103775 470.706009C274.103775 519.256592,293.393295 565.812866,327.721146 600.140717C362.048996 634.468567,408.605270 653.758087,457.155853 653.758087C505.706436 653.758087,552.262711 634.468567,586.590561 600.140717C620.918411 565.812866,640.207932 519.256592,640.207932 470.706009Z" style="stroke:rgb(25.500488%,41.000366%,88.400269%); stroke-width: 2.500000;stroke-linecap: round;stroke-linejoin: round;stroke-miterlimit: 10.000000;fill: none;"></path>
  <path d="M1652.204254 1470.323242C1652.204254 1421.772659,1632.914734 1375.216385,1598.586884 1340.888535C1564.259033 1306.560684,1517.702759 1287.271164,1469.152176 1287.271164C1420.601593 1287.271164,1374.045319 1306.560684,1339.717468 1340.888535C1305.389618 1375.216385,1286.100098 1421.772659,1286.100098 1470.323242C1286.100098 1518.873825,1305.389618 1565.430099,1339.717468 1599.757950C1374.045319 1634.085800,1420.601593 1653.375320,1469.152176 1653.375320C1517.702759 1653.375320,1564.259033 1634.085800,1598.586884 1599.757950C1632.914734 1565.430099,1652.204254 1518.873825,1652.204254 1470.323242Z" style="stroke:rgb(25.500488%,41.000366%,88.400269%); stroke-width: 2.500000;stroke-linecap: round;stroke-linejoin: round;stroke-miterlimit: 10.000000;fill: none;"></path>
  <path d="M1351.096741 1337.825562C1351.096741 1289.274979,1331.807220 1242.718704,1297.479370 1208.390854C1263.151520 1174.063004,1216.595245 1154.773483,1168.044662 1154.773483C1119.494080 1154.773483,1072.937805 1174.063004,1038.609955 1208.390854C1004.282104 1242.718704,984.992584 1289.274979,984.992584 1337.825562C984.992584 1386.376144,1004.282104 1432.932419,1038.609955 1467.260269C1072.937805 1501.588120,1119.494080 1520.877640,1168.044662 1520.877640C1216.595245 1520.877640,1263.151520 1501.588120,1297.479370 1467.260269C1331.807220 1432.932419,1351.096741 1386.376144,1351.096741 1337.825562Z" style="stroke:rgb(25.500488%,41.000366%,88.400269%); stroke-width: 2.500000;stroke-linecap: round;stroke-linejoin: round;stroke-miterlimit: 10.000000;fill: none;"></path>
  <path d="M1109.782532 1259.333878C1109.782532 1210.783295,1090.493011 1164.227020,1056.165161 1129.899170C1021.837311 1095.571320,975.281036 1076.281799,926.730453 1076.281799C878.179871 1076.281799,831.623596 1095.571320,797.295746 1129.899170C762.967896 1164.227020,743.678375 1210.783295,743.678375 1259.333878C743.678375 1307.884460,762.967896 1354.440735,797.295746 1388.768585C831.623596 1423.096436,878.179871 1442.385956,926.730453 1442.385956C975.281036 1442.385956,1021.837311 1423.096436,1056.165161 1388.768585C1090.493011 1354.440735,1109.782532 1307.884460,1109.782532 1259.333878Z" style="stroke:rgb(25.500488%,41.000366%,88.400269%); stroke-width: 2.500000;stroke-linecap: round;stroke-linejoin: round;stroke-miterlimit: 10.000000;fill: none;"></path>
  <path d="M802.161072 1066.186493C802.161072 1017.635910,782.871552 971.079636,748.543701 936.751785C714.215851 902.423935,667.659576 883.134415,619.108994 883.134415C570.558411 883.134415,524.002136 902.423935,489.674286 936.751785C455.346436 971.079636,436.056915 1017.635910,436.056915 1066.186493C436.056915 1114.737076,455.346436 1161.293350,489.674286 1195.621201C524.002136 1229.949051,570.558411 1249.238571,619.108994 1249.238571C667.659576 1249.238571,714.215851 1229.949051,748.543701 1195.621201C782.871552 1161.293350,802.161072 1114.737076,802.161072 1066.186493Z" style="stroke:rgb(25.500488%,41.000366%,88.400269%); stroke-width: 2.500000;stroke-linecap: round;stroke-linejoin: round;stroke-miterlimit: 10.000000;fill: none;"></path>
  <path d="M631.241531 829.777191C631.241531 781.226608,611.952011 734.670334,577.624161 700.342484C543.296310 666.014633,496.740036 646.725113,448.189453 646.725113C399.638870 646.725113,353.082596 666.014633,318.754745 700.342484C284.426895 734.670334,265.137375 781.226608,265.137375 829.777191C265.137375 878.327774,284.426895 924.884048,318.754745 959.211899C353.082596 993.539749,399.638870 1012.829269,448.189453 1012.829269C496.740036 1012.829269,543.296310 993.539749,577.624161 959.211899C611.952011 924.884048,631.241531 878.327774,631.241531 829.777191Z" style="stroke:rgb(25.500488%,41.000366%,88.400269%); stroke-width: 2.500000;stroke-linecap: round;stroke-linejoin: round;stroke-miterlimit: 10.000000;fill: none;"></path>
  <path d="M417.345551 644.324554C417.345551 595.773972,398.056030 549.217697,363.728180 514.889847C329.400330 480.561996,282.844055 461.272476,234.293472 461.272476C185.742889 461.272476,139.186615 480.561996,104.858765 514.889847C70.530914 549.217697,51.241394 595.773972,51.241394 644.324554C51.241394 692.875137,70.530914 739.431412,104.858765 773.759262C139.186615 808.087112,185.742889 827.376633,234.293472 827.376633C282.844055 827.376633,329.400330 808.087112,363.728180 773.759262C398.056030 739.431412,417.345551 692.875137,417.345551 644.324554Z" style="stroke:rgb(25.500488%,41.000366%,88.400269%); stroke-width: 2.500000;stroke-linecap: round;stroke-linejoin: round;stroke-miterlimit: 10.000000;fill: none;"></path>
  <path d="M1371.611755 1632.406158C1371.611755 1583.855576,1352.322235 1537.299301,1317.994385 1502.971451C1283.666534 1468.643600,1237.110260 1449.354080,1188.559677 1449.354080C1140.009094 1449.354080,1093.452820 1468.643600,1059.124969 1502.971451C1024.797119 1537.299301,1005.507599 1583.855576,1005.507599 1632.406158C1005.507599 1680.956741,1024.797119 1727.513016,1059.124969 1761.840866C1093.452820 1796.168716,1140.009094 1815.458237,1188.559677 1815.458237C1237.110260 1815.458237,1283.666534 1796.168716,1317.994385 1761.840866C1352.322235 1727.513016,1371.611755 1680.956741,1371.611755 1632.406158Z" style="stroke:rgb(25.500488%,41.000366%,88.400269%); stroke-width: 2.500000;stroke-linecap: round;stroke-linejoin: round;stroke-miterlimit: 10.000000;fill: none;"></path>
  <path d="M1109.756577 1588.754974C1109.756577 1540.204391,1090.467056 1493.648117,1056.139206 1459.320267C1021.811356 1424.992416,975.255081 1405.702896,926.704498 1405.702896C878.153915 1405.702896,831.597641 1424.992416,797.269791 1459.320267C762.941940 1493.648117,743.652420 1540.204391,743.652420 1588.754974C743.652420 1637.305557,762.941940 1683.861832,797.269791 1718.189682C831.597641 1752.517532,878.153915 1771.807053,926.704498 1771.807053C975.255081 1771.807053,1021.811356 1752.517532,1056.139206 1718.189682C1090.467056 1683.861832,1109.756577 1637.305557,1109.756577 1588.754974Z" style="stroke:rgb(25.500488%,41.000366%,88.400269%); stroke-width: 2.500000;stroke-linecap: round;stroke-linejoin: round;stroke-miterlimit: 10.000000;fill: none;"></path>
  <path d="M868.468307 1337.721756C868.468307 1289.171173,849.178787 1242.614899,814.850937 1208.287048C780.523087 1173.959198,733.966812 1154.669678,685.416229 1154.669678C636.865646 1154.669678,590.309372 1173.959198,555.981522 1208.287048C521.653671 1242.614899,502.364151 1289.171173,502.364151 1337.721756C502.364151 1386.272339,521.653671 1432.828613,555.981522 1467.156464C590.309372 1501.484314,636.865646 1520.773834,685.416229 1520.773834C733.966812 1520.773834,780.523087 1501.484314,814.850937 1467.156464C849.178787 1432.828613,868.468307 1386.272339,868.468307 1337.721756Z" style="stroke:rgb(25.500488%,41.000366%,88.400269%); stroke-width: 2.500000;stroke-linecap: round;stroke-linejoin: round;stroke-miterlimit: 10.000000;fill: none;"></path>
  <path d="M545.379501 1176.599060C545.379501 1128.048477,526.089981 1081.492203,491.762131 1047.164352C457.434280 1012.836502,410.878006 993.546982,362.327423 993.546982C313.776840 993.546982,267.220566 1012.836502,232.892715 1047.164352C198.564865 1081.492203,179.275345 1128.048477,179.275345 1176.599060C179.275345 1225.149643,198.564865 1271.705917,232.892715 1306.033768C267.220566 1340.361618,313.776840 1359.651138,362.327423 1359.651138C410.878006 1359.651138,457.434280 1340.361618,491.762131 1306.033768C526.089981 1271.705917,545.379501 1225.149643,545.379501 1176.599060Z" style="stroke:rgb(25.500488%,41.000366%,88.400269%); stroke-width: 2.500000;stroke-linecap: round;stroke-linejoin: round;stroke-miterlimit: 10.000000;fill: none;"></path>
  <path d="M366.596512 988.564209C366.596512 940.013626,347.306992 893.457352,312.979141 859.129501C278.651291 824.801651,232.095016 805.512131,183.544434 805.512131C134.993851 805.512131,88.437576 824.801651,54.109726 859.129501C19.781876 893.457352,0.492355 940.013626,0.492355 988.564209C0.492355 1037.114792,19.781876 1083.671066,54.109726 1117.998917C88.437576 1152.326767,134.993851 1171.616287,183.544434 1171.616287C232.095016 1171.616287,278.651291 1152.326767,312.979141 1117.998917C347.306992 1083.671066,366.596512 1037.114792,366.596512 988.564209Z" style="stroke:rgb(25.500488%,41.000366%,88.400269%); stroke-width: 2.500000;stroke-linecap: round;stroke-linejoin: round;stroke-miterlimit: 10.000000;fill: none;"></path>
  <path d="M844.670380 1637.427856C844.670380 1588.877274,825.380859 1542.320999,791.053009 1507.993149C756.725159 1473.665298,710.168884 1454.375778,661.618301 1454.375778C613.067719 1454.375778,566.511444 1473.665298,532.183594 1507.993149C497.855743 1542.320999,478.566223 1588.877274,478.566223 1637.427856C478.566223 1685.978439,497.855743 1732.534714,532.183594 1766.862564C566.511444 1801.190414,613.067719 1820.479935,661.618301 1820.479935C710.168884 1820.479935,756.725159 1801.190414,791.053009 1766.862564C825.380859 1732.534714,844.670380 1685.978439,844.670380 1637.427856Z" style="stroke:rgb(25.500488%,41.000366%,88.400269%); stroke-width: 2.500000;stroke-linecap: round;stroke-linejoin: round;stroke-miterlimit: 10.000000;fill: none;"></path>
  <path d="M577.378250 1425.880524C577.378250 1377.329941,558.088730 1330.773666,523.760880 1296.445816C489.433029 1262.117966,442.876755 1242.828445,394.326172 1242.828445C345.775589 1242.828445,299.219315 1262.117966,264.891464 1296.445816C230.563614 1330.773666,211.274094 1377.329941,211.274094 1425.880524C211.274094 1474.431107,230.563614 1520.987381,264.891464 1555.315231C299.219315 1589.643082,345.775589 1608.932602,394.326172 1608.932602C442.876755 1608.932602,489.433029 1589.643082,523.760880 1555.315231C558.088730 1520.987381,577.378250 1474.431107,577.378250 1425.880524Z" style="stroke:rgb(25.500488%,41.000366%,88.400269%); stroke-width: 2.500000;stroke-linecap: round;stroke-linejoin: round;stroke-miterlimit: 10.000000;fill: none;"></path>
</svg>
