<?xml version="1.0"?>
<!-- Created by MetaPost 2.00 on 2022.03.02:1201 -->
<svg version="1.1" xmlns="http://www.w3.org/2000/svg" xmlns:xlink="http://www.w3.org/1999/xlink" width="1774.979324" height="1745.835297" viewBox="0 0 1774.979324 1745.835297">
<!-- Original BoundingBox: -911.942886 -874.598038 863.036438 871.237259 -->
  <path d="M1761.393524 871.000000L1512.319672 269.680328L911.000000 20.606476L309.680328 269.680328L60.606476 871.000000L309.680328 1472.319672L911.000000 1721.393524L1512.319672 1472.319672L1761.393524 871.000000Z" style="fill: rgb(100.000000%,100.000000%,100.000000%);stroke: none;"></path>
  <path d="M1761.393524 871.000000L1512.319672 269.680328" style="stroke:rgb(0.000000%,0.000000%,0.000000%); stroke-width: 2.500000;stroke-linecap: round;stroke-linejoin: round;stroke-miterlimit: 10.000000;fill: none;"></path>
  <path d="M1512.319672 269.680328L911.000000 20.606476" style="stroke:rgb(0.000000%,0.000000%,0.000000%); stroke-width: 2.500000;stroke-linecap: round;stroke-linejoin: round;stroke-miterlimit: 10.000000;fill: none;"></path>
  <path d="M911.000000 20.606476L309.680328 269.680328" style="stroke:rgb(0.000000%,0.000000%,0.000000%); stroke-width: 2.500000;stroke-linecap: round;stroke-linejoin: round;stroke-miterlimit: 10.000000;fill: none;"></path>
  <path d="M309.680328 269.680328L60.606476 871.000000" style="stroke:rgb(0.000000%,0.000000%,0.000000%); stroke-width: 2.500000;stroke-linecap: round;stroke-linejoin: round;stroke-miterlimit: 10.000000;fill: none;"></path>
  <path d="M60.606476 871.000000L309.680328 1472.319672" style="stroke:rgb(0.000000%,0.000000%,0.000000%); stroke-width: 2.500000;stroke-linecap: round;stroke-linejoin: round;stroke-miterlimit: 10.000000;fill: none;"></path>
  <path d="M309.680328 1472.319672L911.000000 1721.393524" style="stroke:rgb(0.000000%,0.000000%,0.000000%); stroke-width: 2.500000;stroke-linecap: round;stroke-linejoin: round;stroke-miterlimit: 10.000000;fill: none;"></path>
  <path d="M911.000000 1721.393524L1512.319672 1472.319672" style="stroke:rgb(0.000000%,0.000000%,0.000000%); stroke-width: 2.500000;stroke-linecap: round;stroke-linejoin: round;stroke-miterlimit: 10.000000;fill: none;"></path>
  <path d="M1512.319672 1472.319672L1761.393524 871.000000" style="stroke:rgb(0.000000%,0.000000%,0.000000%); stroke-width: 2.500000;stroke-linecap: round;stroke-linejoin: round;stroke-miterlimit: 10.000000;fill: none;"></path>
  <path d="M1772.734528 680.798157C1772.734528 648.670868,1759.970108 617.863251,1737.254395 595.147552C1714.538696 572.431839,1683.731079 559.667419,1651.603790 559.667419C1619.476501 559.667419,1588.668884 572.431839,1565.953186 595.147552C1543.237473 617.863251,1530.473053 648.670868,1530.473053 680.798157C1530.473053 712.925446,1543.237473 743.733063,1565.953186 766.448761C1588.668884 789.164474,1619.476501 801.928894,1651.603790 801.928894C1683.731079 801.928894,1714.538696 789.164474,1737.254395 766.448761C1759.970108 743.733063,1772.734528 712.925446,1772.734528 680.798157Z" style="stroke:rgb(25.500488%,41.000366%,88.400269%); stroke-width: 2.500000;stroke-linecap: round;stroke-linejoin: round;stroke-miterlimit: 10.000000;fill: none;"></path>
  <path d="M1657.923096 487.533981C1657.923096 455.406693,1645.158676 424.599075,1622.442963 401.883377C1599.727264 379.167664,1568.919647 366.403244,1536.792358 366.403244C1504.665070 366.403244,1473.857452 379.167664,1451.141754 401.883377C1428.426041 424.599075,1415.661621 455.406693,1415.661621 487.533981C1415.661621 519.661270,1428.426041 550.468887,1451.141754 573.184586C1473.857452 595.900299,1504.665070 608.664719,1536.792358 608.664719C1568.919647 608.664719,1599.727264 595.900299,1622.442963 573.184586C1645.158676 550.468887,1657.923096 519.661270,1657.923096 487.533981Z" style="stroke:rgb(25.500488%,41.000366%,88.400269%); stroke-width: 2.500000;stroke-linecap: round;stroke-linejoin: round;stroke-miterlimit: 10.000000;fill: none;"></path>
  <path d="M1555.477783 342.203049C1555.477783 310.075760,1542.713364 279.268143,1519.997650 256.552444C1497.281952 233.836731,1466.474335 221.072311,1434.347046 221.072311C1402.219757 221.072311,1371.412140 233.836731,1348.696442 256.552444C1325.980728 279.268143,1313.216309 310.075760,1313.216309 342.203049C1313.216309 374.330338,1325.980728 405.137955,1348.696442 427.853653C1371.412140 450.569366,1402.219757 463.333786,1434.347046 463.333786C1466.474335 463.333786,1497.281952 450.569366,1519.997650 427.853653C1542.713364 405.137955,1555.477783 374.330338,1555.477783 342.203049Z" style="stroke:rgb(25.500488%,41.000366%,88.400269%); stroke-width: 2.500000;stroke-linecap: round;stroke-linejoin: round;stroke-miterlimit: 10.000000;fill: none;"></path>
  <path d="M1404.995392 239.134872C1404.995392 207.007584,1392.230972 176.199966,1369.515259 153.484268C1346.799561 130.768555,1315.991943 118.004135,1283.864655 118.004135C1251.737366 118.004135,1220.929749 130.768555,1198.214050 153.484268C1175.498337 176.199966,1162.733917 207.007584,1162.733917 239.134872C1162.733917 271.262161,1175.498337 302.069778,1198.214050 324.785477C1220.929749 347.501190,1251.737366 360.265610,1283.864655 360.265610C1315.991943 360.265610,1346.799561 347.501190,1369.515259 324.785477C1392.230972 302.069778,1404.995392 271.262161,1404.995392 239.134872Z" style="stroke:rgb(25.500488%,41.000366%,88.400269%); stroke-width: 2.500000;stroke-linecap: round;stroke-linejoin: round;stroke-miterlimit: 10.000000;fill: none;"></path>
  <path d="M1210.874802 122.143478C1210.874802 90.016190,1198.110382 59.208572,1175.394669 36.492874C1152.678970 13.777161,1121.871353 1.012741,1089.744064 1.012741C1057.616776 1.012741,1026.809158 13.777161,1004.093460 36.492874C981.377747 59.208572,968.613327 90.016190,968.613327 122.143478C968.613327 154.270767,981.377747 185.078384,1004.093460 207.794083C1026.809158 230.509796,1057.616776 243.274216,1089.744064 243.274216C1121.871353 243.274216,1152.678970 230.509796,1175.394669 207.794083C1198.110382 185.078384,1210.874802 154.270767,1210.874802 122.143478Z" style="stroke:rgb(25.500488%,41.000366%,88.400269%); stroke-width: 2.500000;stroke-linecap: round;stroke-linejoin: round;stroke-miterlimit: 10.000000;fill: none;"></path>
  <path d="M1772.786438 876.398010C1772.786438 844.270721,1760.022018 813.463104,1737.306305 790.747406C1714.590607 768.031693,1683.782990 755.267273,1651.655701 755.267273C1619.528412 755.267273,1588.720795 768.031693,1566.005096 790.747406C1543.289383 813.463104,1530.524963 844.270721,1530.524963 876.398010C1530.524963 908.525299,1543.289383 939.332916,1566.005096 962.048615C1588.720795 984.764328,1619.528412 997.528748,1651.655701 997.528748C1683.782990 997.528748,1714.590607 984.764328,1737.306305 962.048615C1760.022018 939.332916,1772.786438 908.525299,1772.786438 876.398010Z" style="stroke:rgb(25.500488%,41.000366%,88.400269%); stroke-width: 2.500000;stroke-linecap: round;stroke-linejoin: round;stroke-miterlimit: 10.000000;fill: none;"></path>
  <path d="M1613.155991 710.487183C1613.155991 678.359894,1600.391571 647.552277,1577.675858 624.836578C1554.960159 602.120865,1524.152542 589.356445,1492.025253 589.356445C1459.897964 589.356445,1429.090347 602.120865,1406.374649 624.836578C1383.658936 647.552277,1370.894516 678.359894,1370.894516 710.487183C1370.894516 742.614471,1383.658936 773.422089,1406.374649 796.137787C1429.090347 818.853500,1459.897964 831.617920,1492.025253 831.617920C1524.152542 831.617920,1554.960159 818.853500,1577.675858 796.137787C1600.391571 773.422089,1613.155991 742.614471,1613.155991 710.487183Z" style="stroke:rgb(25.500488%,41.000366%,88.400269%); stroke-width: 2.500000;stroke-linecap: round;stroke-linejoin: round;stroke-miterlimit: 10.000000;fill: none;"></path>
  <path d="M1481.384964 547.651672C1481.384964 515.524384,1468.620544 484.716766,1445.904831 462.001068C1423.189133 439.285355,1392.381516 426.520935,1360.254227 426.520935C1328.126938 426.520935,1297.319321 439.285355,1274.603622 462.001068C1251.887909 484.716766,1239.123489 515.524384,1239.123489 547.651672C1239.123489 579.778961,1251.887909 610.586578,1274.603622 633.302277C1297.319321 656.017990,1328.126938 668.782410,1360.254227 668.782410C1392.381516 668.782410,1423.189133 656.017990,1445.904831 633.302277C1468.620544 610.586578,1481.384964 579.778961,1481.384964 547.651672Z" style="stroke:rgb(25.500488%,41.000366%,88.400269%); stroke-width: 2.500000;stroke-linecap: round;stroke-linejoin: round;stroke-miterlimit: 10.000000;fill: none;"></path>
  <path d="M1348.614777 414.466263C1348.614777 382.338974,1335.850357 351.531357,1313.134644 328.815659C1290.418945 306.099945,1259.611328 293.335526,1227.484039 293.335526C1195.356750 293.335526,1164.549133 306.099945,1141.833435 328.815659C1119.117722 351.531357,1106.353302 382.338974,1106.353302 414.466263C1106.353302 446.593552,1119.117722 477.401169,1141.833435 500.116867C1164.549133 522.832581,1195.356750 535.597000,1227.484039 535.597000C1259.611328 535.597000,1290.418945 522.832581,1313.134644 500.116867C1335.850357 477.401169,1348.614777 446.593552,1348.614777 414.466263Z" style="stroke:rgb(25.500488%,41.000366%,88.400269%); stroke-width: 2.500000;stroke-linecap: round;stroke-linejoin: round;stroke-miterlimit: 10.000000;fill: none;"></path>
  <path d="M1182.742889 280.839661C1182.742889 248.712372,1169.978470 217.904755,1147.262756 195.189056C1124.547058 172.473343,1093.739441 159.708923,1061.612152 159.708923C1029.484863 159.708923,998.677246 172.473343,975.961548 195.189056C953.245834 217.904755,940.481415 248.712372,940.481415 280.839661C940.481415 312.966949,953.245834 343.774567,975.961548 366.490265C998.677246 389.205978,1029.484863 401.970398,1061.612152 401.970398C1093.739441 401.970398,1124.547058 389.205978,1147.262756 366.490265C1169.978470 343.774567,1182.742889 312.966949,1182.742889 280.839661Z" style="stroke:rgb(25.500488%,41.000366%,88.400269%); stroke-width: 2.500000;stroke-linecap: round;stroke-linejoin: round;stroke-miterlimit: 10.000000;fill: none;"></path>
  <path d="M1015.768036 127.995651C1015.768036 95.868362,1003.003616 65.060745,980.287903 42.345047C957.572205 19.629333,926.764587 6.864914,894.637299 6.864914C862.510010 6.864914,831.702393 19.629333,808.986694 42.345047C786.270981 65.060745,773.506561 95.868362,773.506561 127.995651C773.506561 160.122940,786.270981 190.930557,808.986694 213.646255C831.702393 236.361969,862.510010 249.126389,894.637299 249.126389C926.764587 249.126389,957.572205 236.361969,980.287903 213.646255C1003.003616 190.930557,1015.768036 160.122940,1015.768036 127.995651Z" style="stroke:rgb(25.500488%,41.000366%,88.400269%); stroke-width: 2.500000;stroke-linecap: round;stroke-linejoin: round;stroke-miterlimit: 10.000000;fill: none;"></path>
  <path d="M1734.948486 1042.153122C1734.948486 1010.025833,1722.184067 979.218216,1699.468353 956.502518C1676.752655 933.786804,1645.945038 921.022385,1613.817749 921.022385C1581.690460 921.022385,1550.882843 933.786804,1528.167145 956.502518C1505.451431 979.218216,1492.687012 1010.025833,1492.687012 1042.153122C1492.687012 1074.280411,1505.451431 1105.088028,1528.167145 1127.803726C1550.882843 1150.519440,1581.690460 1163.283859,1613.817749 1163.283859C1645.945038 1163.283859,1676.752655 1150.519440,1699.468353 1127.803726C1722.184067 1105.088028,1734.948486 1074.280411,1734.948486 1042.153122Z" style="stroke:rgb(25.500488%,41.000366%,88.400269%); stroke-width: 2.500000;stroke-linecap: round;stroke-linejoin: round;stroke-miterlimit: 10.000000;fill: none;"></path>
  <path d="M1574.928772 899.702850C1574.928772 867.575562,1562.164352 836.767944,1539.448639 814.052246C1516.732941 791.336533,1485.925323 778.572113,1453.798035 778.572113C1421.670746 778.572113,1390.863129 791.336533,1368.147430 814.052246C1345.431717 836.767944,1332.667297 867.575562,1332.667297 899.702850C1332.667297 931.830139,1345.431717 962.637756,1368.147430 985.353455C1390.863129 1008.069168,1421.670746 1020.833588,1453.798035 1020.833588C1485.925323 1020.833588,1516.732941 1008.069168,1539.448639 985.353455C1562.164352 962.637756,1574.928772 931.830139,1574.928772 899.702850Z" style="stroke:rgb(25.500488%,41.000366%,88.400269%); stroke-width: 2.500000;stroke-linecap: round;stroke-linejoin: round;stroke-miterlimit: 10.000000;fill: none;"></path>
  <path d="M1413.611435 752.308746C1413.611435 720.181458,1400.847015 689.373840,1378.131302 666.658142C1355.415604 643.942429,1324.607986 631.178009,1292.480698 631.178009C1260.353409 631.178009,1229.545792 643.942429,1206.830093 666.658142C1184.114380 689.373840,1171.349960 720.181458,1171.349960 752.308746C1171.349960 784.436035,1184.114380 815.243652,1206.830093 837.959351C1229.545792 860.675064,1260.353409 873.439484,1292.480698 873.439484C1324.607986 873.439484,1355.415604 860.675064,1378.131302 837.959351C1400.847015 815.243652,1413.611435 784.436035,1413.611435 752.308746Z" style="stroke:rgb(25.500488%,41.000366%,88.400269%); stroke-width: 2.500000;stroke-linecap: round;stroke-linejoin: round;stroke-miterlimit: 10.000000;fill: none;"></path>
  <path d="M1275.352417 613.984848C1275.352417 581.857559,1262.587997 551.049942,1239.872284 528.334244C1217.156586 505.618530,1186.348969 492.854111,1154.221680 492.854111C1122.094391 492.854111,1091.286774 505.618530,1068.571075 528.334244C1045.855362 551.049942,1033.090942 581.857559,1033.090942 613.984848C1033.090942 646.112137,1045.855362 676.919754,1068.571075 699.635452C1091.286774 722.351166,1122.094391 735.115585,1154.221680 735.115585C1186.348969 735.115585,1217.156586 722.351166,1239.872284 699.635452C1262.587997 676.919754,1275.352417 646.112137,1275.352417 613.984848Z" style="stroke:rgb(25.500488%,41.000366%,88.400269%); stroke-width: 2.500000;stroke-linecap: round;stroke-linejoin: round;stroke-miterlimit: 10.000000;fill: none;"></path>
  <path d="M1138.274216 472.326126C1138.274216 440.198837,1125.509796 409.391220,1102.794083 386.675522C1080.078384 363.959808,1049.270767 351.195389,1017.143478 351.195389C985.016190 351.195389,954.208572 363.959808,931.492874 386.675522C908.777161 409.391220,896.012741 440.198837,896.012741 472.326126C896.012741 504.453415,908.777161 535.261032,931.492874 557.976730C954.208572 580.692444,985.016190 593.456863,1017.143478 593.456863C1049.270767 593.456863,1080.078384 580.692444,1102.794083 557.976730C1125.509796 535.261032,1138.274216 504.453415,1138.274216 472.326126Z" style="stroke:rgb(25.500488%,41.000366%,88.400269%); stroke-width: 2.500000;stroke-linecap: round;stroke-linejoin: round;stroke-miterlimit: 10.000000;fill: none;"></path>
  <path d="M987.246841 324.633575C987.246841 292.506287,974.482422 261.698669,951.766708 238.982971C929.051010 216.267258,898.243393 203.502838,866.116104 203.502838C833.988815 203.502838,803.181198 216.267258,780.465500 238.982971C757.749786 261.698669,744.985367 292.506287,744.985367 324.633575C744.985367 356.760864,757.749786 387.568481,780.465500 410.284180C803.181198 432.999893,833.988815 445.764313,866.116104 445.764313C898.243393 445.764313,929.051010 432.999893,951.766708 410.284180C974.482422 387.568481,987.246841 356.760864,987.246841 324.633575Z" style="stroke:rgb(25.500488%,41.000366%,88.400269%); stroke-width: 2.500000;stroke-linecap: round;stroke-linejoin: round;stroke-miterlimit: 10.000000;fill: none;"></path>
  <path d="M842.538757 173.489426C842.538757 141.362137,829.774338 110.554520,807.058624 87.838821C784.342926 65.123108,753.535309 52.358688,721.408020 52.358688C689.280731 52.358688,658.473114 65.123108,635.757416 87.838821C613.041702 110.554520,600.277283 141.362137,600.277283 173.489426C600.277283 205.616714,613.041702 236.424332,635.757416 259.140030C658.473114 281.855743,689.280731 294.620163,721.408020 294.620163C753.535309 294.620163,784.342926 281.855743,807.058624 259.140030C829.774338 236.424332,842.538757 205.616714,842.538757 173.489426Z" style="stroke:rgb(25.500488%,41.000366%,88.400269%); stroke-width: 2.500000;stroke-linecap: round;stroke-linejoin: round;stroke-miterlimit: 10.000000;fill: none;"></path>
  <path d="M1663.502777 1229.435364C1663.502777 1197.308075,1650.738358 1166.500458,1628.022644 1143.784760C1605.306946 1121.069046,1574.499329 1108.304626,1542.372040 1108.304626C1510.244751 1108.304626,1479.437134 1121.069046,1456.721436 1143.784760C1434.005722 1166.500458,1421.241302 1197.308075,1421.241302 1229.435364C1421.241302 1261.562653,1434.005722 1292.370270,1456.721436 1315.085968C1479.437134 1337.801682,1510.244751 1350.566101,1542.372040 1350.566101C1574.499329 1350.566101,1605.306946 1337.801682,1628.022644 1315.085968C1650.738358 1292.370270,1663.502777 1261.562653,1663.502777 1229.435364Z" style="stroke:rgb(25.500488%,41.000366%,88.400269%); stroke-width: 2.500000;stroke-linecap: round;stroke-linejoin: round;stroke-miterlimit: 10.000000;fill: none;"></path>
  <path d="M1521.636429 1087.465225C1521.636429 1055.337936,1508.872009 1024.530319,1486.156296 1001.814621C1463.440598 979.098907,1432.632980 966.334488,1400.505692 966.334488C1368.378403 966.334488,1337.570786 979.098907,1314.855087 1001.814621C1292.139374 1024.530319,1279.374954 1055.337936,1279.374954 1087.465225C1279.374954 1119.592514,1292.139374 1150.400131,1314.855087 1173.115829C1337.570786 1195.831543,1368.378403 1208.595963,1400.505692 1208.595963C1432.632980 1208.595963,1463.440598 1195.831543,1486.156296 1173.115829C1508.872009 1150.400131,1521.636429 1119.592514,1521.636429 1087.465225Z" style="stroke:rgb(25.500488%,41.000366%,88.400269%); stroke-width: 2.500000;stroke-linecap: round;stroke-linejoin: round;stroke-miterlimit: 10.000000;fill: none;"></path>
  <path d="M1370.245728 947.091125C1370.245728 914.963837,1357.481308 884.156219,1334.765594 861.440521C1312.049896 838.724808,1281.242279 825.960388,1249.114990 825.960388C1216.987701 825.960388,1186.180084 838.724808,1163.464386 861.440521C1140.748672 884.156219,1127.984253 914.963837,1127.984253 947.091125C1127.984253 979.218414,1140.748672 1010.026031,1163.464386 1032.741730C1186.180084 1055.457443,1216.987701 1068.221863,1249.114990 1068.221863C1281.242279 1068.221863,1312.049896 1055.457443,1334.765594 1032.741730C1357.481308 1010.026031,1370.245728 979.218414,1370.245728 947.091125Z" style="stroke:rgb(25.500488%,41.000366%,88.400269%); stroke-width: 2.500000;stroke-linecap: round;stroke-linejoin: round;stroke-miterlimit: 10.000000;fill: none;"></path>
  <path d="M1205.191315 816.150558C1205.191315 784.023270,1192.426895 753.215652,1169.711182 730.499954C1146.995483 707.784241,1116.187866 695.019821,1084.060577 695.019821C1051.933289 695.019821,1021.125671 707.784241,998.409973 730.499954C975.694260 753.215652,962.929840 784.023270,962.929840 816.150558C962.929840 848.277847,975.694260 879.085464,998.409973 901.801163C1021.125671 924.516876,1051.933289 937.281296,1084.060577 937.281296C1116.187866 937.281296,1146.995483 924.516876,1169.711182 901.801163C1192.426895 879.085464,1205.191315 848.277847,1205.191315 816.150558Z" style="stroke:rgb(25.500488%,41.000366%,88.400269%); stroke-width: 2.500000;stroke-linecap: round;stroke-linejoin: round;stroke-miterlimit: 10.000000;fill: none;"></path>
  <path d="M1067.477295 674.595642C1067.477295 642.468353,1054.712875 611.660736,1031.997162 588.945038C1009.281464 566.229324,978.473846 553.464905,946.346558 553.464905C914.219269 553.464905,883.411652 566.229324,860.695953 588.945038C837.980240 611.660736,825.215820 642.468353,825.215820 674.595642C825.215820 706.722931,837.980240 737.530548,860.695953 760.246246C883.411652 782.961960,914.219269 795.726379,946.346558 795.726379C978.473846 795.726379,1009.281464 782.961960,1031.997162 760.246246C1054.712875 737.530548,1067.477295 706.722931,1067.477295 674.595642Z" style="stroke:rgb(25.500488%,41.000366%,88.400269%); stroke-width: 2.500000;stroke-linecap: round;stroke-linejoin: round;stroke-miterlimit: 10.000000;fill: none;"></path>
  <path d="M932.566071 523.360641C932.566071 491.233353,919.801651 460.425735,897.085938 437.710037C874.370239 414.994324,843.562622 402.229904,811.435333 402.229904C779.308044 402.229904,748.500427 414.994324,725.784729 437.710037C703.069016 460.425735,690.304596 491.233353,690.304596 523.360641C690.304596 555.487930,703.069016 586.295547,725.784729 609.011246C748.500427 631.726959,779.308044 644.491379,811.435333 644.491379C843.562622 644.491379,874.370239 631.726959,897.085938 609.011246C919.801651 586.295547,932.566071 555.487930,932.566071 523.360641Z" style="stroke:rgb(25.500488%,41.000366%,88.400269%); stroke-width: 2.500000;stroke-linecap: round;stroke-linejoin: round;stroke-miterlimit: 10.000000;fill: none;"></path>
  <path d="M796.435120 386.918259C796.435120 354.790970,783.670700 323.983353,760.954987 301.267654C738.239288 278.551941,707.431671 265.787521,675.304382 265.787521C643.177094 265.787521,612.369476 278.551941,589.653778 301.267654C566.938065 323.983353,554.173645 354.790970,554.173645 386.918259C554.173645 419.045547,566.938065 449.853165,589.653778 472.568863C612.369476 495.284576,643.177094 508.048996,675.304382 508.048996C707.431671 508.048996,738.239288 495.284576,760.954987 472.568863C783.670700 449.853165,796.435120 419.045547,796.435120 386.918259Z" style="stroke:rgb(25.500488%,41.000366%,88.400269%); stroke-width: 2.500000;stroke-linecap: round;stroke-linejoin: round;stroke-miterlimit: 10.000000;fill: none;"></path>
  <path d="M657.086121 249.152328C657.086121 217.025040,644.321701 186.217422,621.605988 163.501724C598.890289 140.786011,568.082672 128.021591,535.955383 128.021591C503.828094 128.021591,473.020477 140.786011,450.304779 163.501724C427.589066 186.217422,414.824646 217.025040,414.824646 249.152328C414.824646 281.279617,427.589066 312.087234,450.304779 334.802933C473.020477 357.518646,503.828094 370.283066,535.955383 370.283066C568.082672 370.283066,598.890289 357.518646,621.605988 334.802933C644.321701 312.087234,657.086121 281.279617,657.086121 249.152328Z" style="stroke:rgb(25.500488%,41.000366%,88.400269%); stroke-width: 2.500000;stroke-linecap: round;stroke-linejoin: round;stroke-miterlimit: 10.000000;fill: none;"></path>
  <path d="M1594.483566 1429.602768C1594.483566 1397.475479,1581.719147 1366.667862,1559.003433 1343.952164C1536.287735 1321.236450,1505.480118 1308.472031,1473.352829 1308.472031C1441.225540 1308.472031,1410.417923 1321.236450,1387.702225 1343.952164C1364.986511 1366.667862,1352.222092 1397.475479,1352.222092 1429.602768C1352.222092 1461.730057,1364.986511 1492.537674,1387.702225 1515.253372C1410.417923 1537.969086,1441.225540 1550.733505,1473.352829 1550.733505C1505.480118 1550.733505,1536.287735 1537.969086,1559.003433 1515.253372C1581.719147 1492.537674,1594.483566 1461.730057,1594.483566 1429.602768Z" style="stroke:rgb(25.500488%,41.000366%,88.400269%); stroke-width: 2.500000;stroke-linecap: round;stroke-linejoin: round;stroke-miterlimit: 10.000000;fill: none;"></path>
  <path d="M1454.420883 1287.308212C1454.420883 1255.180923,1441.656464 1224.373306,1418.940750 1201.657608C1396.225052 1178.941895,1365.417435 1166.177475,1333.290146 1166.177475C1301.162857 1166.177475,1270.355240 1178.941895,1247.639542 1201.657608C1224.923828 1224.373306,1212.159409 1255.180923,1212.159409 1287.308212C1212.159409 1319.435501,1224.923828 1350.243118,1247.639542 1372.958817C1270.355240 1395.674530,1301.162857 1408.438950,1333.290146 1408.438950C1365.417435 1408.438950,1396.225052 1395.674530,1418.940750 1372.958817C1441.656464 1350.243118,1454.420883 1319.435501,1454.420883 1287.308212Z" style="stroke:rgb(25.500488%,41.000366%,88.400269%); stroke-width: 2.500000;stroke-linecap: round;stroke-linejoin: round;stroke-miterlimit: 10.000000;fill: none;"></path>
  <path d="M1312.697281 1144.663315C1312.697281 1112.536026,1299.932861 1081.728409,1277.217148 1059.012711C1254.501450 1036.296997,1223.693832 1023.532578,1191.566544 1023.532578C1159.439255 1023.532578,1128.631638 1036.296997,1105.915939 1059.012711C1083.200226 1081.728409,1070.435806 1112.536026,1070.435806 1144.663315C1070.435806 1176.790604,1083.200226 1207.598221,1105.915939 1230.313919C1128.631638 1253.029633,1159.439255 1265.794052,1191.566544 1265.794052C1223.693832 1265.794052,1254.501450 1253.029633,1277.217148 1230.313919C1299.932861 1207.598221,1312.697281 1176.790604,1312.697281 1144.663315Z" style="stroke:rgb(25.500488%,41.000366%,88.400269%); stroke-width: 2.500000;stroke-linecap: round;stroke-linejoin: round;stroke-miterlimit: 10.000000;fill: none;"></path>
  <path d="M1160.411224 1009.375809C1160.411224 977.248520,1147.646805 946.440903,1124.931091 923.725204C1102.215393 901.009491,1071.407776 888.245071,1039.280487 888.245071C1007.153198 888.245071,976.345581 901.009491,953.629883 923.725204C930.914169 946.440903,918.149750 977.248520,918.149750 1009.375809C918.149750 1041.503098,930.914169 1072.310715,953.629883 1095.026413C976.345581 1117.742126,1007.153198 1130.506546,1039.280487 1130.506546C1071.407776 1130.506546,1102.215393 1117.742126,1124.931091 1095.026413C1147.646805 1072.310715,1160.411224 1041.503098,1160.411224 1009.375809Z" style="stroke:rgb(25.500488%,41.000366%,88.400269%); stroke-width: 2.500000;stroke-linecap: round;stroke-linejoin: round;stroke-miterlimit: 10.000000;fill: none;"></path>
  <path d="M995.888840 875.204224C995.888840 843.076935,983.124420 812.269318,960.408707 789.553619C937.693008 766.837906,906.885391 754.073486,874.758102 754.073486C842.630814 754.073486,811.823196 766.837906,789.107498 789.553619C766.391785 812.269318,753.627365 843.076935,753.627365 875.204224C753.627365 907.331512,766.391785 938.139130,789.107498 960.854828C811.823196 983.570541,842.630814 996.334961,874.758102 996.334961C906.885391 996.334961,937.693008 983.570541,960.408707 960.854828C983.124420 938.139130,995.888840 907.331512,995.888840 875.204224Z" style="stroke:rgb(25.500488%,41.000366%,88.400269%); stroke-width: 2.500000;stroke-linecap: round;stroke-linejoin: round;stroke-miterlimit: 10.000000;fill: none;"></path>
  <path d="M870.605789 734.233215C870.605789 702.105927,857.841370 671.298309,835.125656 648.582611C812.409958 625.866898,781.602341 613.102478,749.475052 613.102478C717.347763 613.102478,686.540146 625.866898,663.824448 648.582611C641.108734 671.298309,628.344315 702.105927,628.344315 734.233215C628.344315 766.360504,641.108734 797.168121,663.824448 819.883820C686.540146 842.599533,717.347763 855.363953,749.475052 855.363953C781.602341 855.363953,812.409958 842.599533,835.125656 819.883820C857.841370 797.168121,870.605789 766.360504,870.605789 734.233215Z" style="stroke:rgb(25.500488%,41.000366%,88.400269%); stroke-width: 2.500000;stroke-linecap: round;stroke-linejoin: round;stroke-miterlimit: 10.000000;fill: none;"></path>
  <path d="M732.658203 598.050354C732.658203 565.923065,719.893784 535.115448,697.178070 512.399750C674.462372 489.684036,643.654755 476.919617,611.527466 476.919617C579.400177 476.919617,548.592560 489.684036,525.876862 512.399750C503.161148 535.115448,490.396729 565.923065,490.396729 598.050354C490.396729 630.177643,503.161148 660.985260,525.876862 683.700958C548.592560 706.416672,579.400177 719.181091,611.527466 719.181091C643.654755 719.181091,674.462372 706.416672,697.178070 683.700958C719.893784 660.985260,732.658203 630.177643,732.658203 598.050354Z" style="stroke:rgb(25.500488%,41.000366%,88.400269%); stroke-width: 2.500000;stroke-linecap: round;stroke-linejoin: round;stroke-miterlimit: 10.000000;fill: none;"></path>
  <path d="M596.981400 459.908127C596.981400 427.780838,584.216980 396.973221,561.501266 374.257523C538.785568 351.541809,507.977951 338.777390,475.850662 338.777390C443.723373 338.777390,412.915756 351.541809,390.200058 374.257523C367.484344 396.973221,354.719925 427.780838,354.719925 459.908127C354.719925 492.035416,367.484344 522.843033,390.200058 545.558731C412.915756 568.274445,443.723373 581.038864,475.850662 581.038864C507.977951 581.038864,538.785568 568.274445,561.501266 545.558731C584.216980 522.843033,596.981400 492.035416,596.981400 459.908127Z" style="stroke:rgb(25.500488%,41.000366%,88.400269%); stroke-width: 2.500000;stroke-linecap: round;stroke-linejoin: round;stroke-miterlimit: 10.000000;fill: none;"></path>
  <path d="M463.886826 320.675903C463.886826 288.548615,451.122406 257.740997,428.406693 235.025299C405.690994 212.309586,374.883377 199.545166,342.756088 199.545166C310.628799 199.545166,279.821182 212.309586,257.105484 235.025299C234.389771 257.740997,221.625351 288.548615,221.625351 320.675903C221.625351 352.803192,234.389771 383.610809,257.105484 406.326508C279.821182 429.042221,310.628799 441.806641,342.756088 441.806641C374.883377 441.806641,405.690994 429.042221,428.406693 406.326508C451.122406 383.610809,463.886826 352.803192,463.886826 320.675903Z" style="stroke:rgb(25.500488%,41.000366%,88.400269%); stroke-width: 2.500000;stroke-linecap: round;stroke-linejoin: round;stroke-miterlimit: 10.000000;fill: none;"></path>
  <path d="M1396.586960 1497.116760C1396.586960 1464.989471,1383.822540 1434.181854,1361.106827 1411.466156C1338.391129 1388.750443,1307.583511 1375.986023,1275.456223 1375.986023C1243.328934 1375.986023,1212.521317 1388.750443,1189.805618 1411.466156C1167.089905 1434.181854,1154.325485 1464.989471,1154.325485 1497.116760C1154.325485 1529.244049,1167.089905 1560.051666,1189.805618 1582.767365C1212.521317 1605.483078,1243.328934 1618.247498,1275.456223 1618.247498C1307.583511 1618.247498,1338.391129 1605.483078,1361.106827 1582.767365C1383.822540 1560.051666,1396.586960 1529.244049,1396.586960 1497.116760Z" style="stroke:rgb(25.500488%,41.000366%,88.400269%); stroke-width: 2.500000;stroke-linecap: round;stroke-linejoin: round;stroke-miterlimit: 10.000000;fill: none;"></path>
  <path d="M1255.395370 1354.355087C1255.395370 1322.227798,1242.630951 1291.420181,1219.915237 1268.704483C1197.199539 1245.988770,1166.391922 1233.224350,1134.264633 1233.224350C1102.137344 1233.224350,1071.329727 1245.988770,1048.614029 1268.704483C1025.898315 1291.420181,1013.133896 1322.227798,1013.133896 1354.355087C1013.133896 1386.482376,1025.898315 1417.289993,1048.614029 1440.005692C1071.329727 1462.721405,1102.137344 1475.485825,1134.264633 1475.485825C1166.391922 1475.485825,1197.199539 1462.721405,1219.915237 1440.005692C1242.630951 1417.289993,1255.395370 1386.482376,1255.395370 1354.355087Z" style="stroke:rgb(25.500488%,41.000366%,88.400269%); stroke-width: 2.500000;stroke-linecap: round;stroke-linejoin: round;stroke-miterlimit: 10.000000;fill: none;"></path>
  <path d="M1113.178680 1214.292404C1113.178680 1182.165115,1100.414261 1151.357498,1077.698547 1128.641800C1054.982849 1105.926086,1024.175232 1093.161667,992.047943 1093.161667C959.920654 1093.161667,929.113037 1105.926086,906.397339 1128.641800C883.681625 1151.357498,870.917206 1182.165115,870.917206 1214.292404C870.917206 1246.419693,883.681625 1277.227310,906.397339 1299.943008C929.113037 1322.658722,959.920654 1335.423141,992.047943 1335.423141C1024.175232 1335.423141,1054.982849 1322.658722,1077.698547 1299.943008C1100.414261 1277.227310,1113.178680 1246.419693,1113.178680 1214.292404Z" style="stroke:rgb(25.500488%,41.000366%,88.400269%); stroke-width: 2.500000;stroke-linecap: round;stroke-linejoin: round;stroke-miterlimit: 10.000000;fill: none;"></path>
  <path d="M961.307861 1066.457123C961.307861 1034.329834,948.543442 1003.522217,925.827728 980.806519C903.112030 958.090805,872.304413 945.326385,840.177124 945.326385C808.049835 945.326385,777.242218 958.090805,754.526520 980.806519C731.810806 1003.522217,719.046387 1034.329834,719.046387 1066.457123C719.046387 1098.584412,731.810806 1129.392029,754.526520 1152.107727C777.242218 1174.823441,808.049835 1187.587860,840.177124 1187.587860C872.304413 1187.587860,903.112030 1174.823441,925.827728 1152.107727C948.543442 1129.392029,961.307861 1098.584412,961.307861 1066.457123Z" style="stroke:rgb(25.500488%,41.000366%,88.400269%); stroke-width: 2.500000;stroke-linecap: round;stroke-linejoin: round;stroke-miterlimit: 10.000000;fill: none;"></path>
  <path d="M787.961807 937.981979C787.961807 905.854691,775.197388 875.047073,752.481674 852.331375C729.765976 829.615662,698.958359 816.851242,666.831070 816.851242C634.703781 816.851242,603.896164 829.615662,581.180466 852.331375C558.464752 875.047073,545.700333 905.854691,545.700333 937.981979C545.700333 970.109268,558.464752 1000.916885,581.180466 1023.632584C603.896164 1046.348297,634.703781 1059.112717,666.831070 1059.112717C698.958359 1059.112717,729.765976 1046.348297,752.481674 1023.632584C775.197388 1000.916885,787.961807 970.109268,787.961807 937.981979Z" style="stroke:rgb(25.500488%,41.000366%,88.400269%); stroke-width: 2.500000;stroke-linecap: round;stroke-linejoin: round;stroke-miterlimit: 10.000000;fill: none;"></path>
  <path d="M662.133774 800.605331C662.133774 768.478043,649.369354 737.670425,626.653641 714.954727C603.937943 692.239014,573.130325 679.474594,541.003036 679.474594C508.875748 679.474594,478.068130 692.239014,455.352432 714.954727C432.636719 737.670425,419.872299 768.478043,419.872299 800.605331C419.872299 832.732620,432.636719 863.540237,455.352432 886.255936C478.068130 908.971649,508.875748 921.736069,541.003036 921.736069C573.130325 921.736069,603.937943 908.971649,626.653641 886.255936C649.369354 863.540237,662.133774 832.732620,662.133774 800.605331Z" style="stroke:rgb(25.500488%,41.000366%,88.400269%); stroke-width: 2.500000;stroke-linecap: round;stroke-linejoin: round;stroke-miterlimit: 10.000000;fill: none;"></path>
  <path d="M524.419754 662.748566C524.419754 630.621277,511.655334 599.813660,488.939621 577.097961C466.223923 554.382248,435.416306 541.617828,403.289017 541.617828C371.161728 541.617828,340.354111 554.382248,317.638412 577.097961C294.922699 599.813660,282.158279 630.621277,282.158279 662.748566C282.158279 694.875854,294.922699 725.683472,317.638412 748.399170C340.354111 771.114883,371.161728 783.879303,403.289017 783.879303C435.416306 783.879303,466.223923 771.114883,488.939621 748.399170C511.655334 725.683472,524.419754 694.875854,524.419754 662.748566Z" style="stroke:rgb(25.500488%,41.000366%,88.400269%); stroke-width: 2.500000;stroke-linecap: round;stroke-linejoin: round;stroke-miterlimit: 10.000000;fill: none;"></path>
  <path d="M388.859726 523.814804C388.859726 491.687515,376.095306 460.879898,353.379593 438.164200C330.663895 415.448486,299.856277 402.684067,267.728989 402.684067C235.601700 402.684067,204.794083 415.448486,182.078384 438.164200C159.362671 460.879898,146.598251 491.687515,146.598251 523.814804C146.598251 555.942093,159.362671 586.749710,182.078384 609.465408C204.794083 632.181122,235.601700 644.945541,267.728989 644.945541C299.856277 644.945541,330.663895 632.181122,353.379593 609.465408C376.095306 586.749710,388.859726 555.942093,388.859726 523.814804Z" style="stroke:rgb(25.500488%,41.000366%,88.400269%); stroke-width: 2.500000;stroke-linecap: round;stroke-linejoin: round;stroke-miterlimit: 10.000000;fill: none;"></path>
  <path d="M1212.042633 1569.392944C1212.042633 1537.265656,1199.278214 1506.458038,1176.562500 1483.742340C1153.846802 1461.026627,1123.039185 1448.262207,1090.911896 1448.262207C1058.784607 1448.262207,1027.976990 1461.026627,1005.261292 1483.742340C982.545578 1506.458038,969.781158 1537.265656,969.781158 1569.392944C969.781158 1601.520233,982.545578 1632.327850,1005.261292 1655.043549C1027.976990 1677.759262,1058.784607 1690.523682,1090.911896 1690.523682C1123.039185 1690.523682,1153.846802 1677.759262,1176.562500 1655.043549C1199.278214 1632.327850,1212.042633 1601.520233,1212.042633 1569.392944Z" style="stroke:rgb(25.500488%,41.000366%,88.400269%); stroke-width: 2.500000;stroke-linecap: round;stroke-linejoin: round;stroke-miterlimit: 10.000000;fill: none;"></path>
  <path d="M1068.074188 1414.420868C1068.074188 1382.293579,1055.309769 1351.485962,1032.594055 1328.770264C1009.878357 1306.054550,979.070740 1293.290131,946.943451 1293.290131C914.816162 1293.290131,884.008545 1306.054550,861.292847 1328.770264C838.577133 1351.485962,825.812714 1382.293579,825.812714 1414.420868C825.812714 1446.548157,838.577133 1477.355774,861.292847 1500.071472C884.008545 1522.787186,914.816162 1535.551605,946.943451 1535.551605C979.070740 1535.551605,1009.878357 1522.787186,1032.594055 1500.071472C1055.309769 1477.355774,1068.074188 1446.548157,1068.074188 1414.420868Z" style="stroke:rgb(25.500488%,41.000366%,88.400269%); stroke-width: 2.500000;stroke-linecap: round;stroke-linejoin: round;stroke-miterlimit: 10.000000;fill: none;"></path>
  <path d="M911.765594 1265.262039C911.765594 1233.134750,899.001175 1202.327133,876.285461 1179.611435C853.569763 1156.895721,822.762146 1144.131302,790.634857 1144.131302C758.507568 1144.131302,727.699951 1156.895721,704.984253 1179.611435C682.268539 1202.327133,669.504120 1233.134750,669.504120 1265.262039C669.504120 1297.389328,682.268539 1328.196945,704.984253 1350.912643C727.699951 1373.628357,758.507568 1386.392776,790.634857 1386.392776C822.762146 1386.392776,853.569763 1373.628357,876.285461 1350.912643C899.001175 1328.196945,911.765594 1297.389328,911.765594 1265.262039Z" style="stroke:rgb(25.500488%,41.000366%,88.400269%); stroke-width: 2.500000;stroke-linecap: round;stroke-linejoin: round;stroke-miterlimit: 10.000000;fill: none;"></path>
  <path d="M755.508896 1124.174255C755.508896 1092.046967,742.744476 1061.239349,720.028763 1038.523651C697.313065 1015.807938,666.505447 1003.043518,634.378159 1003.043518C602.250870 1003.043518,571.443253 1015.807938,548.727554 1038.523651C526.011841 1061.239349,513.247421 1092.046967,513.247421 1124.174255C513.247421 1156.301544,526.011841 1187.109161,548.727554 1209.824860C571.443253 1232.540573,602.250870 1245.304993,634.378159 1245.304993C666.505447 1245.304993,697.313065 1232.540573,720.028763 1209.824860C742.744476 1187.109161,755.508896 1156.301544,755.508896 1124.174255Z" style="stroke:rgb(25.500488%,41.000366%,88.400269%); stroke-width: 2.500000;stroke-linecap: round;stroke-linejoin: round;stroke-miterlimit: 10.000000;fill: none;"></path>
  <path d="M577.050308 1001.681046C577.050308 969.553757,564.285889 938.746140,541.570175 916.030441C518.854477 893.314728,488.046860 880.550308,455.919571 880.550308C423.792282 880.550308,392.984665 893.314728,370.268967 916.030441C347.553253 938.746140,334.788834 969.553757,334.788834 1001.681046C334.788834 1033.808334,347.553253 1064.615952,370.268967 1087.331650C392.984665 1110.047363,423.792282 1122.811783,455.919571 1122.811783C488.046860 1122.811783,518.854477 1110.047363,541.570175 1087.331650C564.285889 1064.615952,577.050308 1033.808334,577.050308 1001.681046Z" style="stroke:rgb(25.500488%,41.000366%,88.400269%); stroke-width: 2.500000;stroke-linecap: round;stroke-linejoin: round;stroke-miterlimit: 10.000000;fill: none;"></path>
  <path d="M452.364151 857.479034C452.364151 825.351746,439.599731 794.544128,416.884018 771.828430C394.168320 749.112717,363.360703 736.348297,331.233414 736.348297C299.106125 736.348297,268.298508 749.112717,245.582809 771.828430C222.867096 794.544128,210.102676 825.351746,210.102676 857.479034C210.102676 889.606323,222.867096 920.413940,245.582809 943.129639C268.298508 965.845352,299.106125 978.609772,331.233414 978.609772C363.360703 978.609772,394.168320 965.845352,416.884018 943.129639C439.599731 920.413940,452.364151 889.606323,452.364151 857.479034Z" style="stroke:rgb(25.500488%,41.000366%,88.400269%); stroke-width: 2.500000;stroke-linecap: round;stroke-linejoin: round;stroke-miterlimit: 10.000000;fill: none;"></path>
  <path d="M310.212341 719.518463C310.212341 687.391174,297.447922 656.583557,274.732208 633.867859C252.016510 611.152145,221.208893 598.387726,189.081604 598.387726C156.954315 598.387726,126.146698 611.152145,103.431000 633.867859C80.715286 656.583557,67.950867 687.391174,67.950867 719.518463C67.950867 751.645752,80.715286 782.453369,103.431000 805.169067C126.146698 827.884781,156.954315 840.649200,189.081604 840.649200C221.208893 840.649200,252.016510 827.884781,274.732208 805.169067C297.447922 782.453369,310.212341 751.645752,310.212341 719.518463Z" style="stroke:rgb(25.500488%,41.000366%,88.400269%); stroke-width: 2.500000;stroke-linecap: round;stroke-linejoin: round;stroke-miterlimit: 10.000000;fill: none;"></path>
  <path d="M1045.314331 1610.513809C1045.314331 1578.386520,1032.549911 1547.578903,1009.834198 1524.863205C987.118500 1502.147491,956.310883 1489.383072,924.183594 1489.383072C892.056305 1489.383072,861.248688 1502.147491,838.532990 1524.863205C815.817276 1547.578903,803.052856 1578.386520,803.052856 1610.513809C803.052856 1642.641098,815.817276 1673.448715,838.532990 1696.164413C861.248688 1718.880127,892.056305 1731.644547,924.183594 1731.644547C956.310883 1731.644547,987.118500 1718.880127,1009.834198 1696.164413C1032.549911 1673.448715,1045.314331 1642.641098,1045.314331 1610.513809Z" style="stroke:rgb(25.500488%,41.000366%,88.400269%); stroke-width: 2.500000;stroke-linecap: round;stroke-linejoin: round;stroke-miterlimit: 10.000000;fill: none;"></path>
  <path d="M877.937225 1451.519180C877.937225 1419.391891,865.172806 1388.584274,842.457092 1365.868576C819.741394 1343.152863,788.933777 1330.388443,756.806488 1330.388443C724.679199 1330.388443,693.871582 1343.152863,671.155884 1365.868576C648.440170 1388.584274,635.675751 1419.391891,635.675751 1451.519180C635.675751 1483.646469,648.440170 1514.454086,671.155884 1537.169785C693.871582 1559.885498,724.679199 1572.649918,756.806488 1572.649918C788.933777 1572.649918,819.741394 1559.885498,842.457092 1537.169785C865.172806 1514.454086,877.937225 1483.646469,877.937225 1451.519180Z" style="stroke:rgb(25.500488%,41.000366%,88.400269%); stroke-width: 2.500000;stroke-linecap: round;stroke-linejoin: round;stroke-miterlimit: 10.000000;fill: none;"></path>
  <path d="M702.177628 1318.826859C702.177628 1286.699570,689.413208 1255.891953,666.697495 1233.176254C643.981796 1210.460541,613.174179 1197.696121,581.046890 1197.696121C548.919601 1197.696121,518.111984 1210.460541,495.396286 1233.176254C472.680573 1255.891953,459.916153 1286.699570,459.916153 1318.826859C459.916153 1350.954147,472.680573 1381.761765,495.396286 1404.477463C518.111984 1427.193176,548.919601 1439.957596,581.046890 1439.957596C613.174179 1439.957596,643.981796 1427.193176,666.697495 1404.477463C689.413208 1381.761765,702.177628 1350.954147,702.177628 1318.826859Z" style="stroke:rgb(25.500488%,41.000366%,88.400269%); stroke-width: 2.500000;stroke-linecap: round;stroke-linejoin: round;stroke-miterlimit: 10.000000;fill: none;"></path>
  <path d="M544.247040 1187.055832C544.247040 1154.928543,531.482620 1124.120926,508.766907 1101.405228C486.051208 1078.689514,455.243591 1065.925095,423.116302 1065.925095C390.989014 1065.925095,360.181396 1078.689514,337.465698 1101.405228C314.749985 1124.120926,301.985565 1154.928543,301.985565 1187.055832C301.985565 1219.183121,314.749985 1249.990738,337.465698 1272.706436C360.181396 1295.422150,390.989014 1308.186569,423.116302 1308.186569C455.243591 1308.186569,486.051208 1295.422150,508.766907 1272.706436C531.482620 1249.990738,544.247040 1219.183121,544.247040 1187.055832Z" style="stroke:rgb(25.500488%,41.000366%,88.400269%); stroke-width: 2.500000;stroke-linecap: round;stroke-linejoin: round;stroke-miterlimit: 10.000000;fill: none;"></path>
  <path d="M366.670822 1057.867020C366.670822 1025.739731,353.906403 994.932114,331.190689 972.216415C308.474991 949.500702,277.667374 936.736282,245.540085 936.736282C213.412796 936.736282,182.605179 949.500702,159.889481 972.216415C137.173767 994.932114,124.409348 1025.739731,124.409348 1057.867020C124.409348 1089.994308,137.173767 1120.801926,159.889481 1143.517624C182.605179 1166.233337,213.412796 1178.997757,245.540085 1178.997757C277.667374 1178.997757,308.474991 1166.233337,331.190689 1143.517624C353.906403 1120.801926,366.670822 1089.994308,366.670822 1057.867020Z" style="stroke:rgb(25.500488%,41.000366%,88.400269%); stroke-width: 2.500000;stroke-linecap: round;stroke-linejoin: round;stroke-miterlimit: 10.000000;fill: none;"></path>
  <path d="M242.568588 910.836243C242.568588 878.708954,229.804169 847.901337,207.088455 825.185638C184.372757 802.469925,153.565140 789.705505,121.437851 789.705505C89.310562 789.705505,58.502945 802.469925,35.787247 825.185638C13.071533 847.901337,0.307114 878.708954,0.307114 910.836243C0.307114 942.963531,13.071533 973.771149,35.787247 996.486847C58.502945 1019.202560,89.310562 1031.966980,121.437851 1031.966980C153.565140 1031.966980,184.372757 1019.202560,207.088455 996.486847C229.804169 973.771149,242.568588 942.963531,242.568588 910.836243Z" style="stroke:rgb(25.500488%,41.000366%,88.400269%); stroke-width: 2.500000;stroke-linecap: round;stroke-linejoin: round;stroke-miterlimit: 10.000000;fill: none;"></path>
  <path d="M850.506012 1623.217300C850.506012 1591.090012,837.741592 1560.282394,815.025879 1537.566696C792.310181 1514.850983,761.502563 1502.086563,729.375275 1502.086563C697.247986 1502.086563,666.440369 1514.850983,643.724670 1537.566696C621.008957 1560.282394,608.244537 1591.090012,608.244537 1623.217300C608.244537 1655.344589,621.008957 1686.152206,643.724670 1708.867905C666.440369 1731.583618,697.247986 1744.348038,729.375275 1744.348038C761.502563 1744.348038,792.310181 1731.583618,815.025879 1708.867905C837.741592 1686.152206,850.506012 1655.344589,850.506012 1623.217300Z" style="stroke:rgb(25.500488%,41.000366%,88.400269%); stroke-width: 2.500000;stroke-linecap: round;stroke-linejoin: round;stroke-miterlimit: 10.000000;fill: none;"></path>
  <path d="M662.639832 1498.012100C662.639832 1465.884811,649.875412 1435.077194,627.159698 1412.361496C604.444000 1389.645782,573.636383 1376.881363,541.509094 1376.881363C509.381805 1376.881363,478.574188 1389.645782,455.858490 1412.361496C433.142776 1435.077194,420.378357 1465.884811,420.378357 1498.012100C420.378357 1530.139389,433.142776 1560.947006,455.858490 1583.662704C478.574188 1606.378418,509.381805 1619.142838,541.509094 1619.142838C573.636383 1619.142838,604.444000 1606.378418,627.159698 1583.662704C649.875412 1560.947006,662.639832 1530.139389,662.639832 1498.012100Z" style="stroke:rgb(25.500488%,41.000366%,88.400269%); stroke-width: 2.500000;stroke-linecap: round;stroke-linejoin: round;stroke-miterlimit: 10.000000;fill: none;"></path>
  <path d="M513.130646 1401.600616C513.130646 1369.473328,500.366226 1338.665710,477.650513 1315.950012C454.934814 1293.234299,424.127197 1280.469879,391.999908 1280.469879C359.872620 1280.469879,329.065002 1293.234299,306.349304 1315.950012C283.633591 1338.665710,270.869171 1369.473328,270.869171 1401.600616C270.869171 1433.727905,283.633591 1464.535522,306.349304 1487.251221C329.065002 1509.966934,359.872620 1522.731354,391.999908 1522.731354C424.127197 1522.731354,454.934814 1509.966934,477.650513 1487.251221C500.366226 1464.535522,513.130646 1433.727905,513.130646 1401.600616Z" style="stroke:rgb(25.500488%,41.000366%,88.400269%); stroke-width: 2.500000;stroke-linecap: round;stroke-linejoin: round;stroke-miterlimit: 10.000000;fill: none;"></path>
  <path d="M360.104965 1265.884888C360.104965 1233.757599,347.340546 1202.949982,324.624832 1180.234283C301.909134 1157.518570,271.101517 1144.754150,238.974228 1144.754150C206.846939 1144.754150,176.039322 1157.518570,153.323624 1180.234283C130.607910 1202.949982,117.843491 1233.757599,117.843491 1265.884888C117.843491 1298.012177,130.607910 1328.819794,153.323624 1351.535492C176.039322 1374.251205,206.846939 1387.015625,238.974228 1387.015625C271.101517 1387.015625,301.909134 1374.251205,324.624832 1351.535492C347.340546 1328.819794,360.104965 1298.012177,360.104965 1265.884888Z" style="stroke:rgb(25.500488%,41.000366%,88.400269%); stroke-width: 2.500000;stroke-linecap: round;stroke-linejoin: round;stroke-miterlimit: 10.000000;fill: none;"></path>
</svg>
