<?xml version="1.0"?>
<!-- Created by MetaPost 2.00 on 2022.03.02:1201 -->
<svg version="1.1" xmlns="http://www.w3.org/2000/svg" xmlns:xlink="http://www.w3.org/1999/xlink" width="1497.085831" height="1339.284988" viewBox="0 0 1497.085831 1339.284988">
<!-- Original BoundingBox: -750.275208 -487.278137 746.810623 852.006851 -->
  <path d="M750.000000 1.606476L13.535538 1277.196762L1486.464462 1277.196762L750.000000 1.606476Z" style="fill: rgb(100.000000%,100.000000%,100.000000%);stroke: none;"></path>
  <path d="M750.000000 1.606476L13.535538 1277.196762" style="stroke:rgb(0.000000%,0.000000%,0.000000%); stroke-width: 2.500000;stroke-linecap: round;stroke-linejoin: round;stroke-miterlimit: 10.000000;fill: none;"></path>
  <path d="M13.535538 1277.196762L1486.464462 1277.196762" style="stroke:rgb(0.000000%,0.000000%,0.000000%); stroke-width: 2.500000;stroke-linecap: round;stroke-linejoin: round;stroke-miterlimit: 10.000000;fill: none;"></path>
  <path d="M1486.464462 1277.196762L750.000000 1.606476" style="stroke:rgb(0.000000%,0.000000%,0.000000%); stroke-width: 2.500000;stroke-linecap: round;stroke-linejoin: round;stroke-miterlimit: 10.000000;fill: none;"></path>
  <path d="M819.758835 363.882736C819.758835 339.726181,810.161255 316.561905,793.081284 299.481918C776.001297 282.401947,752.837021 272.804367,728.680466 272.804367C704.523911 272.804367,681.359634 282.401947,664.279648 299.481918C647.199677 316.561905,637.602097 339.726181,637.602097 363.882736C637.602097 388.039291,647.199677 411.203568,664.279648 428.283554C681.359634 445.363525,704.523911 454.961105,728.680466 454.961105C752.837021 454.961105,776.001297 445.363525,793.081284 428.283554C810.161255 411.203568,819.758835 388.039291,819.758835 363.882736Z" style="stroke:rgb(25.500488%,41.000366%,88.400269%); stroke-width: 2.500000;stroke-linecap: round;stroke-linejoin: round;stroke-miterlimit: 10.000000;fill: none;"></path>
  <path d="M893.163940 483.715866C893.163940 459.559311,883.566360 436.395035,866.486389 419.315048C849.406403 402.235077,826.242126 392.637497,802.085571 392.637497C777.929016 392.637497,754.764740 402.235077,737.684753 419.315048C720.604782 436.395035,711.007202 459.559311,711.007202 483.715866C711.007202 507.872421,720.604782 531.036697,737.684753 548.116684C754.764740 565.196655,777.929016 574.794235,802.085571 574.794235C826.242126 574.794235,849.406403 565.196655,866.486389 548.116684C883.566360 531.036697,893.163940 507.872421,893.163940 483.715866Z" style="stroke:rgb(25.500488%,41.000366%,88.400269%); stroke-width: 2.500000;stroke-linecap: round;stroke-linejoin: round;stroke-miterlimit: 10.000000;fill: none;"></path>
  <path d="M734.882980 509.641861C734.882980 485.485306,725.285400 462.321030,708.205429 445.241043C691.125443 428.161072,667.961166 418.563492,643.804611 418.563492C619.648056 418.563492,596.483780 428.161072,579.403793 445.241043C562.323822 462.321030,552.726242 485.485306,552.726242 509.641861C552.726242 533.798416,562.323822 556.962692,579.403793 574.042679C596.483780 591.122650,619.648056 600.720230,643.804611 600.720230C667.961166 600.720230,691.125443 591.122650,708.205429 574.042679C725.285400 556.962692,734.882980 533.798416,734.882980 509.641861Z" style="stroke:rgb(25.500488%,41.000366%,88.400269%); stroke-width: 2.500000;stroke-linecap: round;stroke-linejoin: round;stroke-miterlimit: 10.000000;fill: none;"></path>
  <path d="M1128.755737 604.042084C1128.755737 579.885529,1119.158157 556.721252,1102.078186 539.641266C1084.998199 522.561295,1061.833923 512.963715,1037.677368 512.963715C1013.520813 512.963715,990.356537 522.561295,973.276550 539.641266C956.196579 556.721252,946.598999 579.885529,946.598999 604.042084C946.598999 628.198639,956.196579 651.362915,973.276550 668.442902C990.356537 685.522873,1013.520813 695.120453,1037.677368 695.120453C1061.833923 695.120453,1084.998199 685.522873,1102.078186 668.442902C1119.158157 651.362915,1128.755737 628.198639,1128.755737 604.042084Z" style="stroke:rgb(25.500488%,41.000366%,88.400269%); stroke-width: 2.500000;stroke-linecap: round;stroke-linejoin: round;stroke-miterlimit: 10.000000;fill: none;"></path>
  <path d="M968.515427 611.762787C968.515427 587.606232,958.917847 564.441956,941.837875 547.361969C924.757889 530.281998,901.593613 520.684418,877.437057 520.684418C853.280502 520.684418,830.116226 530.281998,813.036240 547.361969C795.956268 564.441956,786.358688 587.606232,786.358688 611.762787C786.358688 635.919342,795.956268 659.083618,813.036240 676.163605C830.116226 693.243576,853.280502 702.841156,877.437057 702.841156C901.593613 702.841156,924.757889 693.243576,941.837875 676.163605C958.917847 659.083618,968.515427 635.919342,968.515427 611.762787Z" style="stroke:rgb(25.500488%,41.000366%,88.400269%); stroke-width: 2.500000;stroke-linecap: round;stroke-linejoin: round;stroke-miterlimit: 10.000000;fill: none;"></path>
  <path d="M804.940277 617.095917C804.940277 592.939362,795.342697 569.775085,778.262726 552.695099C761.182739 535.615128,738.018463 526.017548,713.861908 526.017548C689.705353 526.017548,666.541077 535.615128,649.461090 552.695099C632.381119 569.775085,622.783539 592.939362,622.783539 617.095917C622.783539 641.252472,632.381119 664.416748,649.461090 681.496735C666.541077 698.576706,689.705353 708.174286,713.861908 708.174286C738.018463 708.174286,761.182739 698.576706,778.262726 681.496735C795.342697 664.416748,804.940277 641.252472,804.940277 617.095917Z" style="stroke:rgb(25.500488%,41.000366%,88.400269%); stroke-width: 2.500000;stroke-linecap: round;stroke-linejoin: round;stroke-miterlimit: 10.000000;fill: none;"></path>
  <path d="M640.742279 650.366318C640.742279 626.209763,631.144699 603.045486,614.064728 585.965500C596.984741 568.885529,573.820465 559.287949,549.663910 559.287949C525.507355 559.287949,502.343079 568.885529,485.263092 585.965500C468.183121 603.045486,458.585541 626.209763,458.585541 650.366318C458.585541 674.522873,468.183121 697.687149,485.263092 714.767136C502.343079 731.847107,525.507355 741.444687,549.663910 741.444687C573.820465 741.444687,596.984741 731.847107,614.064728 714.767136C631.144699 697.687149,640.742279 674.522873,640.742279 650.366318Z" style="stroke:rgb(25.500488%,41.000366%,88.400269%); stroke-width: 2.500000;stroke-linecap: round;stroke-linejoin: round;stroke-miterlimit: 10.000000;fill: none;"></path>
  <path d="M1042.244919 741.678253C1042.244919 717.521698,1032.647339 694.357422,1015.567368 677.277435C998.487381 660.197464,975.323105 650.599884,951.166550 650.599884C927.009995 650.599884,903.845718 660.197464,886.765732 677.277435C869.685760 694.357422,860.088181 717.521698,860.088181 741.678253C860.088181 765.834808,869.685760 788.999084,886.765732 806.079071C903.845718 823.159042,927.009995 832.756622,951.166550 832.756622C975.323105 832.756622,998.487381 823.159042,1015.567368 806.079071C1032.647339 788.999084,1042.244919 765.834808,1042.244919 741.678253Z" style="stroke:rgb(25.500488%,41.000366%,88.400269%); stroke-width: 2.500000;stroke-linecap: round;stroke-linejoin: round;stroke-miterlimit: 10.000000;fill: none;"></path>
  <path d="M879.565109 745.090942C879.565109 720.934387,869.967529 697.770111,852.887558 680.690125C835.807571 663.610153,812.643295 654.012573,788.486740 654.012573C764.330185 654.012573,741.165909 663.610153,724.085922 680.690125C707.005951 697.770111,697.408371 720.934387,697.408371 745.090942C697.408371 769.247498,707.005951 792.411774,724.085922 809.491760C741.165909 826.571732,764.330185 836.169312,788.486740 836.169312C812.643295 836.169312,835.807571 826.571732,852.887558 809.491760C869.967529 792.411774,879.565109 769.247498,879.565109 745.090942Z" style="stroke:rgb(25.500488%,41.000366%,88.400269%); stroke-width: 2.500000;stroke-linecap: round;stroke-linejoin: round;stroke-miterlimit: 10.000000;fill: none;"></path>
  <path d="M717.209702 752.617004C717.209702 728.460449,707.612122 705.296173,690.532150 688.216187C673.452164 671.136215,650.287888 661.538635,626.131332 661.538635C601.974777 661.538635,578.810501 671.136215,561.730515 688.216187C544.650543 705.296173,535.052963 728.460449,535.052963 752.617004C535.052963 776.773560,544.650543 799.937836,561.730515 817.017822C578.810501 834.097794,601.974777 843.695374,626.131332 843.695374C650.287888 843.695374,673.452164 834.097794,690.532150 817.017822C707.612122 799.937836,717.209702 776.773560,717.209702 752.617004Z" style="stroke:rgb(25.500488%,41.000366%,88.400269%); stroke-width: 2.500000;stroke-linecap: round;stroke-linejoin: round;stroke-miterlimit: 10.000000;fill: none;"></path>
  <path d="M555.217636 796.514725C555.217636 772.358170,545.620056 749.193893,528.540085 732.113907C511.460098 715.033936,488.295822 705.436356,464.139267 705.436356C439.982712 705.436356,416.818436 715.033936,399.738449 732.113907C382.658478 749.193893,373.060898 772.358170,373.060898 796.514725C373.060898 820.671280,382.658478 843.835556,399.738449 860.915543C416.818436 877.995514,439.982712 887.593094,464.139267 887.593094C488.295822 887.593094,511.460098 877.995514,528.540085 860.915543C545.620056 843.835556,555.217636 820.671280,555.217636 796.514725Z" style="stroke:rgb(25.500488%,41.000366%,88.400269%); stroke-width: 2.500000;stroke-linecap: round;stroke-linejoin: round;stroke-miterlimit: 10.000000;fill: none;"></path>
  <path d="M1112.276260 870.581604C1112.276260 846.425049,1102.678680 823.260773,1085.598709 806.180786C1068.518723 789.100815,1045.354446 779.503235,1021.197891 779.503235C997.041336 779.503235,973.877060 789.100815,956.797073 806.180786C939.717102 823.260773,930.119522 846.425049,930.119522 870.581604C930.119522 894.738159,939.717102 917.902435,956.797073 934.982422C973.877060 952.062393,997.041336 961.659973,1021.197891 961.659973C1045.354446 961.659973,1068.518723 952.062393,1085.598709 934.982422C1102.678680 917.902435,1112.276260 894.738159,1112.276260 870.581604Z" style="stroke:rgb(25.500488%,41.000366%,88.400269%); stroke-width: 2.500000;stroke-linecap: round;stroke-linejoin: round;stroke-miterlimit: 10.000000;fill: none;"></path>
  <path d="M949.349915 874.539276C949.349915 850.382721,939.752335 827.218445,922.672363 810.138458C905.592377 793.058487,882.428101 783.460907,858.271545 783.460907C834.114990 783.460907,810.950714 793.058487,793.870728 810.138458C776.790756 827.218445,767.193176 850.382721,767.193176 874.539276C767.193176 898.695831,776.790756 921.860107,793.870728 938.940094C810.950714 956.020065,834.114990 965.617645,858.271545 965.617645C882.428101 965.617645,905.592377 956.020065,922.672363 938.940094C939.752335 921.860107,949.349915 898.695831,949.349915 874.539276Z" style="stroke:rgb(25.500488%,41.000366%,88.400269%); stroke-width: 2.500000;stroke-linecap: round;stroke-linejoin: round;stroke-miterlimit: 10.000000;fill: none;"></path>
  <path d="M787.876877 880.157867C787.876877 856.001312,778.279297 832.837036,761.199326 815.757050C744.119339 798.677078,720.955063 789.079498,696.798508 789.079498C672.641953 789.079498,649.477676 798.677078,632.397690 815.757050C615.317719 832.837036,605.720139 856.001312,605.720139 880.157867C605.720139 904.314423,615.317719 927.478699,632.397690 944.558685C649.477676 961.638657,672.641953 971.236237,696.798508 971.236237C720.955063 971.236237,744.119339 961.638657,761.199326 944.558685C778.279297 927.478699,787.876877 904.314423,787.876877 880.157867Z" style="stroke:rgb(25.500488%,41.000366%,88.400269%); stroke-width: 2.500000;stroke-linecap: round;stroke-linejoin: round;stroke-miterlimit: 10.000000;fill: none;"></path>
  <path d="M645.426605 880.988327C645.426605 856.831772,635.829025 833.667496,618.749054 816.587509C601.669067 799.507538,578.504791 789.909958,554.348236 789.909958C530.191681 789.909958,507.027405 799.507538,489.947418 816.587509C472.867447 833.667496,463.269867 856.831772,463.269867 880.988327C463.269867 905.144882,472.867447 928.309158,489.947418 945.389145C507.027405 962.469116,530.191681 972.066696,554.348236 972.066696C578.504791 972.066696,601.669067 962.469116,618.749054 945.389145C635.829025 928.309158,645.426605 905.144882,645.426605 880.988327Z" style="stroke:rgb(25.500488%,41.000366%,88.400269%); stroke-width: 2.500000;stroke-linecap: round;stroke-linejoin: round;stroke-miterlimit: 10.000000;fill: none;"></path>
  <path d="M421.967346 823.102509C421.967346 798.945953,412.369766 775.781677,395.289795 758.701691C378.209808 741.621719,355.045532 732.024139,330.888977 732.024139C306.732422 732.024139,283.568146 741.621719,266.488159 758.701691C249.408188 775.781677,239.810608 798.945953,239.810608 823.102509C239.810608 847.259064,249.408188 870.423340,266.488159 887.503326C283.568146 904.583298,306.732422 914.180878,330.888977 914.180878C355.045532 914.180878,378.209808 904.583298,395.289795 887.503326C412.369766 870.423340,421.967346 847.259064,421.967346 823.102509Z" style="stroke:rgb(25.500488%,41.000366%,88.400269%); stroke-width: 2.500000;stroke-linecap: round;stroke-linejoin: round;stroke-miterlimit: 10.000000;fill: none;"></path>
  <path d="M1177.259933 991.361969C1177.259933 967.205414,1167.662354 944.041138,1150.582382 926.961151C1133.502396 909.881180,1110.338120 900.283600,1086.181564 900.283600C1062.025009 900.283600,1038.860733 909.881180,1021.780746 926.961151C1004.700775 944.041138,995.103195 967.205414,995.103195 991.361969C995.103195 1015.518524,1004.700775 1038.682800,1021.780746 1055.762787C1038.860733 1072.842758,1062.025009 1082.440338,1086.181564 1082.440338C1110.338120 1082.440338,1133.502396 1072.842758,1150.582382 1055.762787C1167.662354 1038.682800,1177.259933 1015.518524,1177.259933 991.361969Z" style="stroke:rgb(25.500488%,41.000366%,88.400269%); stroke-width: 2.500000;stroke-linecap: round;stroke-linejoin: round;stroke-miterlimit: 10.000000;fill: none;"></path>
  <path d="M1009.441650 997.875916C1009.441650 973.719360,999.844070 950.555084,982.764099 933.475098C965.684113 916.395126,942.519836 906.797546,918.363281 906.797546C894.206726 906.797546,871.042450 916.395126,853.962463 933.475098C836.882492 950.555084,827.284912 973.719360,827.284912 997.875916C827.284912 1022.032471,836.882492 1045.196747,853.962463 1062.276733C871.042450 1079.356705,894.206726 1088.954285,918.363281 1088.954285C942.519836 1088.954285,965.684113 1079.356705,982.764099 1062.276733C999.844070 1045.196747,1009.441650 1022.032471,1009.441650 997.875916Z" style="stroke:rgb(25.500488%,41.000366%,88.400269%); stroke-width: 2.500000;stroke-linecap: round;stroke-linejoin: round;stroke-miterlimit: 10.000000;fill: none;"></path>
  <path d="M840.844803 995.955475C840.844803 971.798920,831.247223 948.634644,814.167252 931.554657C797.087265 914.474686,773.922989 904.877106,749.766434 904.877106C725.609879 904.877106,702.445602 914.474686,685.365616 931.554657C668.285645 948.634644,658.688065 971.798920,658.688065 995.955475C658.688065 1020.112030,668.285645 1043.276306,685.365616 1060.356293C702.445602 1077.436264,725.609879 1087.033844,749.766434 1087.033844C773.922989 1087.033844,797.087265 1077.436264,814.167252 1060.356293C831.247223 1043.276306,840.844803 1020.112030,840.844803 995.955475Z" style="stroke:rgb(25.500488%,41.000366%,88.400269%); stroke-width: 2.500000;stroke-linecap: round;stroke-linejoin: round;stroke-miterlimit: 10.000000;fill: none;"></path>
  <path d="M670.768692 999.446014C670.768692 975.289459,661.171112 952.125183,644.091141 935.045197C627.011154 917.965225,603.846878 908.367645,579.690323 908.367645C555.533768 908.367645,532.369492 917.965225,515.289505 935.045197C498.209534 952.125183,488.611954 975.289459,488.611954 999.446014C488.611954 1023.602570,498.209534 1046.766846,515.289505 1063.846832C532.369492 1080.926804,555.533768 1090.524384,579.690323 1090.524384C603.846878 1090.524384,627.011154 1080.926804,644.091141 1063.846832C661.171112 1046.766846,670.768692 1023.602570,670.768692 999.446014Z" style="stroke:rgb(25.500488%,41.000366%,88.400269%); stroke-width: 2.500000;stroke-linecap: round;stroke-linejoin: round;stroke-miterlimit: 10.000000;fill: none;"></path>
  <path d="M502.496246 960.349396C502.496246 936.192841,492.898666 913.028564,475.818695 895.948578C458.738708 878.868607,435.574432 869.271027,411.417877 869.271027C387.261322 869.271027,364.097046 878.868607,347.017059 895.948578C329.937088 913.028564,320.339508 936.192841,320.339508 960.349396C320.339508 984.505951,329.937088 1007.670227,347.017059 1024.750214C364.097046 1041.830185,387.261322 1051.427765,411.417877 1051.427765C435.574432 1051.427765,458.738708 1041.830185,475.818695 1024.750214C492.898666 1007.670227,502.496246 984.505951,502.496246 960.349396Z" style="stroke:rgb(25.500488%,41.000366%,88.400269%); stroke-width: 2.500000;stroke-linecap: round;stroke-linejoin: round;stroke-miterlimit: 10.000000;fill: none;"></path>
  <path d="M343.838989 957.416824C343.838989 933.260269,334.241409 910.095993,317.161438 893.016006C300.081451 875.936035,276.917175 866.338455,252.760620 866.338455C228.604065 866.338455,205.439789 875.936035,188.359802 893.016006C171.279831 910.095993,161.682251 933.260269,161.682251 957.416824C161.682251 981.573380,171.279831 1004.737656,188.359802 1021.817642C205.439789 1038.897614,228.604065 1048.495193,252.760620 1048.495193C276.917175 1048.495193,300.081451 1038.897614,317.161438 1021.817642C334.241409 1004.737656,343.838989 981.573380,343.838989 957.416824Z" style="stroke:rgb(25.500488%,41.000366%,88.400269%); stroke-width: 2.500000;stroke-linecap: round;stroke-linejoin: round;stroke-miterlimit: 10.000000;fill: none;"></path>
  <path d="M1418.950455 1109.586090C1418.950455 1085.429535,1409.352875 1062.265259,1392.272903 1045.185272C1375.192917 1028.105301,1352.028641 1018.507721,1327.872086 1018.507721C1303.715530 1018.507721,1280.551254 1028.105301,1263.471268 1045.185272C1246.391296 1062.265259,1236.793716 1085.429535,1236.793716 1109.586090C1236.793716 1133.742645,1246.391296 1156.906921,1263.471268 1173.986908C1280.551254 1191.066879,1303.715530 1200.664459,1327.872086 1200.664459C1352.028641 1200.664459,1375.192917 1191.066879,1392.272903 1173.986908C1409.352875 1156.906921,1418.950455 1133.742645,1418.950455 1109.586090Z" style="stroke:rgb(25.500488%,41.000366%,88.400269%); stroke-width: 2.500000;stroke-linecap: round;stroke-linejoin: round;stroke-miterlimit: 10.000000;fill: none;"></path>
  <path d="M1252.105362 1116.268723C1252.105362 1092.112167,1242.507782 1068.947891,1225.427811 1051.867905C1208.347824 1034.787933,1185.183548 1025.190353,1161.026993 1025.190353C1136.870438 1025.190353,1113.706161 1034.787933,1096.626175 1051.867905C1079.546204 1068.947891,1069.948624 1092.112167,1069.948624 1116.268723C1069.948624 1140.425278,1079.546204 1163.589554,1096.626175 1180.669540C1113.706161 1197.749512,1136.870438 1207.347092,1161.026993 1207.347092C1185.183548 1207.347092,1208.347824 1197.749512,1225.427811 1180.669540C1242.507782 1163.589554,1252.105362 1140.425278,1252.105362 1116.268723Z" style="stroke:rgb(25.500488%,41.000366%,88.400269%); stroke-width: 2.500000;stroke-linecap: round;stroke-linejoin: round;stroke-miterlimit: 10.000000;fill: none;"></path>
  <path d="M1084.546600 1119.006653C1084.546600 1094.850098,1074.949020 1071.685822,1057.869049 1054.605835C1040.789062 1037.525864,1017.624786 1027.928284,993.468231 1027.928284C969.311676 1027.928284,946.147400 1037.525864,929.067413 1054.605835C911.987442 1071.685822,902.389862 1094.850098,902.389862 1119.006653C902.389862 1143.163208,911.987442 1166.327484,929.067413 1183.407471C946.147400 1200.487442,969.311676 1210.085022,993.468231 1210.085022C1017.624786 1210.085022,1040.789062 1200.487442,1057.869049 1183.407471C1074.949020 1166.327484,1084.546600 1143.163208,1084.546600 1119.006653Z" style="stroke:rgb(25.500488%,41.000366%,88.400269%); stroke-width: 2.500000;stroke-linecap: round;stroke-linejoin: round;stroke-miterlimit: 10.000000;fill: none;"></path>
  <path d="M914.094177 1121.822433C914.094177 1097.665878,904.496597 1074.501602,887.416626 1057.421616C870.336639 1040.341644,847.172363 1030.744064,823.015808 1030.744064C798.859253 1030.744064,775.694977 1040.341644,758.614990 1057.421616C741.535019 1074.501602,731.937439 1097.665878,731.937439 1121.822433C731.937439 1145.978989,741.535019 1169.143265,758.614990 1186.223251C775.694977 1203.303223,798.859253 1212.900803,823.015808 1212.900803C847.172363 1212.900803,870.336639 1203.303223,887.416626 1186.223251C904.496597 1169.143265,914.094177 1145.978989,914.094177 1121.822433Z" style="stroke:rgb(25.500488%,41.000366%,88.400269%); stroke-width: 2.500000;stroke-linecap: round;stroke-linejoin: round;stroke-miterlimit: 10.000000;fill: none;"></path>
  <path d="M745.821732 1120.706497C745.821732 1096.549942,736.224152 1073.385666,719.144180 1056.305679C702.064194 1039.225708,678.899918 1029.628128,654.743362 1029.628128C630.586807 1029.628128,607.422531 1039.225708,590.342545 1056.305679C573.262573 1073.385666,563.664993 1096.549942,563.664993 1120.706497C563.664993 1144.863052,573.262573 1168.027328,590.342545 1185.107315C607.422531 1202.187286,630.586807 1211.784866,654.743362 1211.784866C678.899918 1211.784866,702.064194 1202.187286,719.144180 1185.107315C736.224152 1168.027328,745.821732 1144.863052,745.821732 1120.706497Z" style="stroke:rgb(25.500488%,41.000366%,88.400269%); stroke-width: 2.500000;stroke-linecap: round;stroke-linejoin: round;stroke-miterlimit: 10.000000;fill: none;"></path>
  <path d="M577.614166 1099.088516C577.614166 1074.931961,568.016586 1051.767685,550.936615 1034.687698C533.856628 1017.607727,510.692352 1008.010147,486.535797 1008.010147C462.379242 1008.010147,439.214966 1017.607727,422.134979 1034.687698C405.055008 1051.767685,395.457428 1074.931961,395.457428 1099.088516C395.457428 1123.245071,405.055008 1146.409348,422.134979 1163.489334C439.214966 1180.569305,462.379242 1190.166885,486.535797 1190.166885C510.692352 1190.166885,533.856628 1180.569305,550.936615 1163.489334C568.016586 1146.409348,577.614166 1123.245071,577.614166 1099.088516Z" style="stroke:rgb(25.500488%,41.000366%,88.400269%); stroke-width: 2.500000;stroke-linecap: round;stroke-linejoin: round;stroke-miterlimit: 10.000000;fill: none;"></path>
  <path d="M419.852249 1094.650742C419.852249 1070.494186,410.254669 1047.329910,393.174698 1030.249924C376.094711 1013.169952,352.930435 1003.572372,328.773880 1003.572372C304.617325 1003.572372,281.453049 1013.169952,264.373062 1030.249924C247.293091 1047.329910,237.695511 1070.494186,237.695511 1094.650742C237.695511 1118.807297,247.293091 1141.971573,264.373062 1159.051559C281.453049 1176.131531,304.617325 1185.729111,328.773880 1185.729111C352.930435 1185.729111,376.094711 1176.131531,393.174698 1159.051559C410.254669 1141.971573,419.852249 1118.807297,419.852249 1094.650742Z" style="stroke:rgb(25.500488%,41.000366%,88.400269%); stroke-width: 2.500000;stroke-linecap: round;stroke-linejoin: round;stroke-miterlimit: 10.000000;fill: none;"></path>
  <path d="M261.493454 1092.250183C261.493454 1068.093628,251.895874 1044.929352,234.815903 1027.849365C217.735916 1010.769394,194.571640 1001.171814,170.415085 1001.171814C146.258530 1001.171814,123.094254 1010.769394,106.014267 1027.849365C88.934296 1044.929352,79.336716 1068.093628,79.336716 1092.250183C79.336716 1116.406738,88.934296 1139.571014,106.014267 1156.651001C123.094254 1173.730972,146.258530 1183.328552,170.415085 1183.328552C194.571640 1183.328552,217.735916 1173.730972,234.815903 1156.651001C251.895874 1139.571014,261.493454 1116.406738,261.493454 1092.250183Z" style="stroke:rgb(25.500488%,41.000366%,88.400269%); stroke-width: 2.500000;stroke-linecap: round;stroke-linejoin: round;stroke-miterlimit: 10.000000;fill: none;"></path>
  <path d="M1343.585999 985.989929C1343.585999 961.833374,1333.988419 938.669098,1316.908447 921.589111C1299.828461 904.509140,1276.664185 894.911560,1252.507629 894.911560C1228.351074 894.911560,1205.186798 904.509140,1188.106812 921.589111C1171.026840 938.669098,1161.429260 961.833374,1161.429260 985.989929C1161.429260 1010.146484,1171.026840 1033.310760,1188.106812 1050.390747C1205.186798 1067.470718,1228.351074 1077.068298,1252.507629 1077.068298C1276.664185 1077.068298,1299.828461 1067.470718,1316.908447 1050.390747C1333.988419 1033.310760,1343.585999 1010.146484,1343.585999 985.989929Z" style="stroke:rgb(25.500488%,41.000366%,88.400269%); stroke-width: 2.500000;stroke-linecap: round;stroke-linejoin: round;stroke-miterlimit: 10.000000;fill: none;"></path>
  <path d="M183.131531 1230.989319C183.131531 1206.832764,173.533951 1183.668488,156.453979 1166.588501C139.373993 1149.508530,116.209717 1139.910950,92.053162 1139.910950C67.896606 1139.910950,44.732330 1149.508530,27.652344 1166.588501C10.572372 1183.668488,0.974792 1206.832764,0.974792 1230.989319C0.974792 1255.145874,10.572372 1278.310150,27.652344 1295.390137C44.732330 1312.470108,67.896606 1322.067688,92.053162 1322.067688C116.209717 1322.067688,139.373993 1312.470108,156.453979 1295.390137C173.533951 1278.310150,183.131531 1255.145874,183.131531 1230.989319Z" style="stroke:rgb(25.500488%,41.000366%,88.400269%); stroke-width: 2.500000;stroke-linecap: round;stroke-linejoin: round;stroke-miterlimit: 10.000000;fill: none;"></path>
  <path d="M1273.087524 861.628174C1273.087524 837.471619,1263.489944 814.307343,1246.409973 797.227356C1229.329987 780.147385,1206.165710 770.549805,1182.009155 770.549805C1157.852600 770.549805,1134.688324 780.147385,1117.608337 797.227356C1100.528366 814.307343,1090.930786 837.471619,1090.930786 861.628174C1090.930786 885.784729,1100.528366 908.949005,1117.608337 926.028992C1134.688324 943.108963,1157.852600 952.706543,1182.009155 952.706543C1206.165710 952.706543,1229.329987 943.108963,1246.409973 926.028992C1263.489944 908.949005,1273.087524 885.784729,1273.087524 861.628174Z" style="stroke:rgb(25.500488%,41.000366%,88.400269%); stroke-width: 2.500000;stroke-linecap: round;stroke-linejoin: round;stroke-miterlimit: 10.000000;fill: none;"></path>
  <path d="M978.351212 345.975891C978.351212 321.819336,968.753632 298.655060,951.673660 281.575073C934.593674 264.495102,911.429398 254.897522,887.272842 254.897522C863.116287 254.897522,839.952011 264.495102,822.872025 281.575073C805.792053 298.655060,796.194473 321.819336,796.194473 345.975891C796.194473 370.132446,805.792053 393.296722,822.872025 410.376709C839.952011 427.456680,863.116287 437.054260,887.272842 437.054260C911.429398 437.054260,934.593674 427.456680,951.673660 410.376709C968.753632 393.296722,978.351212 370.132446,978.351212 345.975891Z" style="stroke:rgb(25.500488%,41.000366%,88.400269%); stroke-width: 2.500000;stroke-linecap: round;stroke-linejoin: round;stroke-miterlimit: 10.000000;fill: none;"></path>
  <path d="M339.232513 1229.510056C339.232513 1205.353500,329.634933 1182.189224,312.554962 1165.109238C295.474976 1148.029266,272.310699 1138.431686,248.154144 1138.431686C223.997589 1138.431686,200.833313 1148.029266,183.753326 1165.109238C166.673355 1182.189224,157.075775 1205.353500,157.075775 1229.510056C157.075775 1253.666611,166.673355 1276.830887,183.753326 1293.910873C200.833313 1310.990845,223.997589 1320.588425,248.154144 1320.588425C272.310699 1320.588425,295.474976 1310.990845,312.554962 1293.910873C329.634933 1276.830887,339.232513 1253.666611,339.232513 1229.510056Z" style="stroke:rgb(25.500488%,41.000366%,88.400269%); stroke-width: 2.500000;stroke-linecap: round;stroke-linejoin: round;stroke-miterlimit: 10.000000;fill: none;"></path>
  <path d="M656.715714 1233.947830C656.715714 1209.791275,647.118134 1186.626999,630.038162 1169.547012C612.958176 1152.467041,589.793900 1142.869461,565.637344 1142.869461C541.480789 1142.869461,518.316513 1152.467041,501.236526 1169.547012C484.156555 1186.626999,474.558975 1209.791275,474.558975 1233.947830C474.558975 1258.104385,484.156555 1281.268661,501.236526 1298.348648C518.316513 1315.428619,541.480789 1325.026199,565.637344 1325.026199C589.793900 1325.026199,612.958176 1315.428619,630.038162 1298.348648C647.118134 1281.268661,656.715714 1258.104385,656.715714 1233.947830Z" style="stroke:rgb(25.500488%,41.000366%,88.400269%); stroke-width: 2.500000;stroke-linecap: round;stroke-linejoin: round;stroke-miterlimit: 10.000000;fill: none;"></path>
  <path d="M1202.744751 733.399582C1202.744751 709.243027,1193.147171 686.078751,1176.067200 668.998764C1158.987213 651.918793,1135.822937 642.321213,1111.666382 642.321213C1087.509827 642.321213,1064.345551 651.918793,1047.265564 668.998764C1030.185593 686.078751,1020.588013 709.243027,1020.588013 733.399582C1020.588013 757.556137,1030.185593 780.720413,1047.265564 797.800400C1064.345551 814.880371,1087.509827 824.477951,1111.666382 824.477951C1135.822937 824.477951,1158.987213 814.880371,1176.067200 797.800400C1193.147171 780.720413,1202.744751 757.556137,1202.744751 733.399582Z" style="stroke:rgb(25.500488%,41.000366%,88.400269%); stroke-width: 2.500000;stroke-linecap: round;stroke-linejoin: round;stroke-miterlimit: 10.000000;fill: none;"></path>
  <path d="M903.363052 220.679871C903.363052 196.523315,893.765472 173.359039,876.685501 156.279053C859.605515 139.199081,836.441238 129.601501,812.284683 129.601501C788.128128 129.601501,764.963852 139.199081,747.883865 156.279053C730.803894 173.359039,721.206314 196.523315,721.206314 220.679871C721.206314 244.836426,730.803894 268.000702,747.883865 285.080688C764.963852 302.160660,788.128128 311.758240,812.284683 311.758240C836.441238 311.758240,859.605515 302.160660,876.685501 285.080688C893.765472 268.000702,903.363052 244.836426,903.363052 220.679871Z" style="stroke:rgb(25.500488%,41.000366%,88.400269%); stroke-width: 2.500000;stroke-linecap: round;stroke-linejoin: round;stroke-miterlimit: 10.000000;fill: none;"></path>
  <path d="M822.795227 1246.949768C822.795227 1222.793213,813.197647 1199.628937,796.117676 1182.548950C779.037689 1165.468979,755.873413 1155.871399,731.716858 1155.871399C707.560303 1155.871399,684.396027 1165.468979,667.316040 1182.548950C650.236069 1199.628937,640.638489 1222.793213,640.638489 1246.949768C640.638489 1271.106323,650.236069 1294.270599,667.316040 1311.350586C684.396027 1328.430557,707.560303 1338.028137,731.716858 1338.028137C755.873413 1338.028137,779.037689 1328.430557,796.117676 1311.350586C813.197647 1294.270599,822.795227 1271.106323,822.795227 1246.949768Z" style="stroke:rgb(25.500488%,41.000366%,88.400269%); stroke-width: 2.500000;stroke-linecap: round;stroke-linejoin: round;stroke-miterlimit: 10.000000;fill: none;"></path>
  <path d="M993.078949 1242.875305C993.078949 1218.718750,983.481369 1195.554474,966.401398 1178.474487C949.321411 1161.394516,926.157135 1151.796936,902.000580 1151.796936C877.844025 1151.796936,854.679749 1161.394516,837.599762 1178.474487C820.519791 1195.554474,810.922211 1218.718750,810.922211 1242.875305C810.922211 1267.031860,820.519791 1290.196136,837.599762 1307.276123C854.679749 1324.356094,877.844025 1333.953674,902.000580 1333.953674C926.157135 1333.953674,949.321411 1324.356094,966.401398 1307.276123C983.481369 1290.196136,993.078949 1267.031860,993.078949 1242.875305Z" style="stroke:rgb(25.500488%,41.000366%,88.400269%); stroke-width: 2.500000;stroke-linecap: round;stroke-linejoin: round;stroke-miterlimit: 10.000000;fill: none;"></path>
  <path d="M1054.286621 474.074722C1054.286621 449.918167,1044.689041 426.753891,1027.609070 409.673904C1010.529083 392.593933,987.364807 382.996353,963.208252 382.996353C939.051697 382.996353,915.887421 392.593933,898.807434 409.673904C881.727463 426.753891,872.129883 449.918167,872.129883 474.074722C872.129883 498.231277,881.727463 521.395554,898.807434 538.475540C915.887421 555.555511,939.051697 565.153091,963.208252 565.153091C987.364807 565.153091,1010.529083 555.555511,1027.609070 538.475540C1044.689041 521.395554,1054.286621 498.231277,1054.286621 474.074722Z" style="stroke:rgb(25.500488%,41.000366%,88.400269%); stroke-width: 2.500000;stroke-linecap: round;stroke-linejoin: round;stroke-miterlimit: 10.000000;fill: none;"></path>
  <path d="M485.705338 669.661591C485.705338 645.505035,476.107758 622.340759,459.027786 605.260773C441.947800 588.180801,418.783524 578.583221,394.626968 578.583221C370.470413 578.583221,347.306137 588.180801,330.226151 605.260773C313.146179 622.340759,303.548599 645.505035,303.548599 669.661591C303.548599 693.818146,313.146179 716.982422,330.226151 734.062408C347.306137 751.142380,370.470413 760.739960,394.626968 760.739960C418.783524 760.739960,441.947800 751.142380,459.027786 734.062408C476.107758 716.982422,485.705338 693.818146,485.705338 669.661591Z" style="stroke:rgb(25.500488%,41.000366%,88.400269%); stroke-width: 2.500000;stroke-linecap: round;stroke-linejoin: round;stroke-miterlimit: 10.000000;fill: none;"></path>
  <path d="M664.877594 381.374344C664.877594 357.217789,655.280014 334.053513,638.200043 316.973526C621.120056 299.893555,597.955780 290.295975,573.799225 290.295975C549.642670 290.295975,526.478394 299.893555,509.398407 316.973526C492.318436 334.053513,482.720856 357.217789,482.720856 381.374344C482.720856 405.530899,492.318436 428.695175,509.398407 445.775162C526.478394 462.855133,549.642670 472.452713,573.799225 472.452713C597.955780 472.452713,621.120056 462.855133,638.200043 445.775162C655.280014 428.695175,664.877594 405.530899,664.877594 381.374344Z" style="stroke:rgb(25.500488%,41.000366%,88.400269%); stroke-width: 2.500000;stroke-linecap: round;stroke-linejoin: round;stroke-miterlimit: 10.000000;fill: none;"></path>
  <path d="M1330.402405 1240.137375C1330.402405 1215.980820,1320.804825 1192.816544,1303.724854 1175.736557C1286.644867 1158.656586,1263.480591 1149.059006,1239.324036 1149.059006C1215.167480 1149.059006,1192.003204 1158.656586,1174.923218 1175.736557C1157.843246 1192.816544,1148.245667 1215.980820,1148.245667 1240.137375C1148.245667 1264.293930,1157.843246 1287.458206,1174.923218 1304.538193C1192.003204 1321.618164,1215.167480 1331.215744,1239.324036 1331.215744C1263.480591 1331.215744,1286.644867 1321.618164,1303.724854 1304.538193C1320.804825 1287.458206,1330.402405 1264.293930,1330.402405 1240.137375Z" style="stroke:rgb(25.500488%,41.000366%,88.400269%); stroke-width: 2.500000;stroke-linecap: round;stroke-linejoin: round;stroke-miterlimit: 10.000000;fill: none;"></path>
  <path d="M578.301895 524.875656C578.301895 500.719101,568.704315 477.554825,551.624344 460.474838C534.544357 443.394867,511.380081 433.797287,487.223526 433.797287C463.066971 433.797287,439.902695 443.394867,422.822708 460.474838C405.742737 477.554825,396.145157 500.719101,396.145157 524.875656C396.145157 549.032211,405.742737 572.196487,422.822708 589.276474C439.902695 606.356445,463.066971 615.954025,487.223526 615.954025C511.380081 615.954025,534.544357 606.356445,551.624344 589.276474C568.704315 572.196487,578.301895 549.032211,578.301895 524.875656Z" style="stroke:rgb(25.500488%,41.000366%,88.400269%); stroke-width: 2.500000;stroke-linecap: round;stroke-linejoin: round;stroke-miterlimit: 10.000000;fill: none;"></path>
  <path d="M496.695984 1233.402847C496.695984 1209.246292,487.098404 1186.082016,470.018433 1169.002029C452.938446 1151.922058,429.774170 1142.324478,405.617615 1142.324478C381.461060 1142.324478,358.296783 1151.922058,341.216797 1169.002029C324.136826 1186.082016,314.539246 1209.246292,314.539246 1233.402847C314.539246 1257.559402,324.136826 1280.723679,341.216797 1297.803665C358.296783 1314.883636,381.461060 1324.481216,405.617615 1324.481216C429.774170 1324.481216,452.938446 1314.883636,470.018433 1297.803665C487.098404 1280.723679,496.695984 1257.559402,496.695984 1233.402847Z" style="stroke:rgb(25.500488%,41.000366%,88.400269%); stroke-width: 2.500000;stroke-linecap: round;stroke-linejoin: round;stroke-miterlimit: 10.000000;fill: none;"></path>
  <path d="M832.708862 92.321518C832.708862 68.164963,823.111282 45.000687,806.031311 27.920700C788.951324 10.840729,765.787048 1.243149,741.630493 1.243149C717.473938 1.243149,694.309662 10.840729,677.229675 27.920700C660.149704 45.000687,650.552124 68.164963,650.552124 92.321518C650.552124 116.478073,660.149704 139.642349,677.229675 156.722336C694.309662 173.802307,717.473938 183.399887,741.630493 183.399887C765.787048 183.399887,788.951324 173.802307,806.031311 156.722336C823.111282 139.642349,832.708862 116.478073,832.708862 92.321518Z" style="stroke:rgb(25.500488%,41.000366%,88.400269%); stroke-width: 2.500000;stroke-linecap: round;stroke-linejoin: round;stroke-miterlimit: 10.000000;fill: none;"></path>
  <path d="M1162.324585 1244.159927C1162.324585 1220.003372,1152.727005 1196.839096,1135.647034 1179.759109C1118.567047 1162.679138,1095.402771 1153.081558,1071.246216 1153.081558C1047.089661 1153.081558,1023.925385 1162.679138,1006.845398 1179.759109C989.765427 1196.839096,980.167847 1220.003372,980.167847 1244.159927C980.167847 1268.316483,989.765427 1291.480759,1006.845398 1308.560745C1023.925385 1325.640717,1047.089661 1335.238297,1071.246216 1335.238297C1095.402771 1335.238297,1118.567047 1325.640717,1135.647034 1308.560745C1152.727005 1291.480759,1162.324585 1268.316483,1162.324585 1244.159927Z" style="stroke:rgb(25.500488%,41.000366%,88.400269%); stroke-width: 2.500000;stroke-linecap: round;stroke-linejoin: round;stroke-miterlimit: 10.000000;fill: none;"></path>
  <path d="M746.275894 235.187012C746.275894 211.030457,736.678314 187.866180,719.598343 170.786194C702.518356 153.706223,679.354080 144.108643,655.197525 144.108643C631.040970 144.108643,607.876694 153.706223,590.796707 170.786194C573.716736 187.866180,564.119156 211.030457,564.119156 235.187012C564.119156 259.343567,573.716736 282.507843,590.796707 299.587830C607.876694 316.667801,631.040970 326.265381,655.197525 326.265381C679.354080 326.265381,702.518356 316.667801,719.598343 299.587830C736.678314 282.507843,746.275894 259.343567,746.275894 235.187012Z" style="stroke:rgb(25.500488%,41.000366%,88.400269%); stroke-width: 2.500000;stroke-linecap: round;stroke-linejoin: round;stroke-miterlimit: 10.000000;fill: none;"></path>
  <path d="M1495.560623 1237.477295C1495.560623 1213.320740,1485.963043 1190.156464,1468.883072 1173.076477C1451.803085 1155.996506,1428.638809 1146.398926,1404.482254 1146.398926C1380.325699 1146.398926,1357.161423 1155.996506,1340.081436 1173.076477C1323.001465 1190.156464,1313.403885 1213.320740,1313.403885 1237.477295C1313.403885 1261.633850,1323.001465 1284.798126,1340.081436 1301.878113C1357.161423 1318.958084,1380.325699 1328.555664,1404.482254 1328.555664C1428.638809 1328.555664,1451.803085 1318.958084,1468.883072 1301.878113C1485.963043 1284.798126,1495.560623 1261.633850,1495.560623 1237.477295Z" style="stroke:rgb(25.500488%,41.000366%,88.400269%); stroke-width: 2.500000;stroke-linecap: round;stroke-linejoin: round;stroke-miterlimit: 10.000000;fill: none;"></path>
</svg>
