<?xml version="1.0"?>
<!-- Created by MetaPost 2.00 on 2022.03.02:1201 -->
<svg version="1.1" xmlns="http://www.w3.org/2000/svg" xmlns:xlink="http://www.w3.org/1999/xlink" width="1518.768677" height="1331.408569" viewBox="0 0 1518.768677 1331.408569">
<!-- Original BoundingBox: -761.239899 -479.765045 757.528778 851.643524 -->
  <path d="M761.000000 0.606476L24.535538 1276.196762L1497.464462 1276.196762L761.000000 0.606476Z" style="fill: rgb(100.000000%,100.000000%,100.000000%);stroke: none;"></path>
  <path d="M761.000000 0.606476L24.535538 1276.196762" style="stroke:rgb(0.000000%,0.000000%,0.000000%); stroke-width: 2.500000;stroke-linecap: round;stroke-linejoin: round;stroke-miterlimit: 10.000000;fill: none;"></path>
  <path d="M24.535538 1276.196762L1497.464462 1276.196762" style="stroke:rgb(0.000000%,0.000000%,0.000000%); stroke-width: 2.500000;stroke-linecap: round;stroke-linejoin: round;stroke-miterlimit: 10.000000;fill: none;"></path>
  <path d="M1497.464462 1276.196762L761.000000 0.606476" style="stroke:rgb(0.000000%,0.000000%,0.000000%); stroke-width: 2.500000;stroke-linecap: round;stroke-linejoin: round;stroke-miterlimit: 10.000000;fill: none;"></path>
  <path d="M1517.278778 1210.382614C1517.278778 1178.785324,1504.724930 1148.485962,1482.383972 1126.144989C1460.042999 1103.804031,1429.743637 1091.250183,1398.146347 1091.250183C1366.549057 1091.250183,1336.249695 1103.804031,1313.908722 1126.144989C1291.567764 1148.485962,1279.013916 1178.785324,1279.013916 1210.382614C1279.013916 1241.979904,1291.567764 1272.279266,1313.908722 1294.620239C1336.249695 1316.961197,1366.549057 1329.515045,1398.146347 1329.515045C1429.743637 1329.515045,1460.042999 1316.961197,1482.383972 1294.620239C1504.724930 1272.279266,1517.278778 1241.979904,1517.278778 1210.382614Z" style="stroke:rgb(25.500488%,41.000366%,88.400269%); stroke-width: 2.500000;stroke-linecap: round;stroke-linejoin: round;stroke-miterlimit: 10.000000;fill: none;"></path>
  <path d="M1322.846756 1204.465576C1322.846756 1172.868286,1310.292908 1142.568924,1287.951950 1120.227951C1265.610977 1097.886993,1235.311615 1085.333145,1203.714325 1085.333145C1172.117035 1085.333145,1141.817673 1097.886993,1119.476700 1120.227951C1097.135742 1142.568924,1084.581894 1172.868286,1084.581894 1204.465576C1084.581894 1236.062866,1097.135742 1266.362228,1119.476700 1288.703201C1141.817673 1311.044159,1172.117035 1323.598007,1203.714325 1323.598007C1235.311615 1323.598007,1265.610977 1311.044159,1287.951950 1288.703201C1310.292908 1266.362228,1322.846756 1236.062866,1322.846756 1204.465576Z" style="stroke:rgb(25.500488%,41.000366%,88.400269%); stroke-width: 2.500000;stroke-linecap: round;stroke-linejoin: round;stroke-miterlimit: 10.000000;fill: none;"></path>
  <path d="M1414.794525 1019.765533C1414.794525 988.168243,1402.240677 957.868881,1379.899719 935.527908C1357.558746 913.186951,1327.259384 900.633102,1295.662094 900.633102C1264.064804 900.633102,1233.765442 913.186951,1211.424469 935.527908C1189.083511 957.868881,1176.529663 988.168243,1176.529663 1019.765533C1176.529663 1051.362823,1189.083511 1081.662186,1211.424469 1104.003159C1233.765442 1126.344116,1264.064804 1138.897964,1295.662094 1138.897964C1327.259384 1138.897964,1357.558746 1126.344116,1379.899719 1104.003159C1402.240677 1081.662186,1414.794525 1051.362823,1414.794525 1019.765533Z" style="stroke:rgb(25.500488%,41.000366%,88.400269%); stroke-width: 2.500000;stroke-linecap: round;stroke-linejoin: round;stroke-miterlimit: 10.000000;fill: none;"></path>
  <path d="M1132.567062 1204.491516C1132.567062 1172.894226,1120.013214 1142.594864,1097.672256 1120.253891C1075.331284 1097.912933,1045.031921 1085.359085,1013.434631 1085.359085C981.837341 1085.359085,951.537979 1097.912933,929.197006 1120.253891C906.856049 1142.594864,894.302200 1172.894226,894.302200 1204.491516C894.302200 1236.088806,906.856049 1266.388168,929.197006 1288.729141C951.537979 1311.070099,981.837341 1323.623947,1013.434631 1323.623947C1045.031921 1323.623947,1075.331284 1311.070099,1097.672256 1288.729141C1120.013214 1266.388168,1132.567062 1236.088806,1132.567062 1204.491516Z" style="stroke:rgb(25.500488%,41.000366%,88.400269%); stroke-width: 2.500000;stroke-linecap: round;stroke-linejoin: round;stroke-miterlimit: 10.000000;fill: none;"></path>
  <path d="M1220.323578 1013.887421C1220.323578 982.290131,1207.769730 951.990768,1185.428772 929.649796C1163.087799 907.308838,1132.788437 894.754990,1101.191147 894.754990C1069.593857 894.754990,1039.294495 907.308838,1016.953522 929.649796C994.612564 951.990768,982.058716 982.290131,982.058716 1013.887421C982.058716 1045.484711,994.612564 1075.784073,1016.953522 1098.125046C1039.294495 1120.466003,1069.593857 1133.019852,1101.191147 1133.019852C1132.788437 1133.019852,1163.087799 1120.466003,1185.428772 1098.125046C1207.769730 1075.784073,1220.323578 1045.484711,1220.323578 1013.887421Z" style="stroke:rgb(25.500488%,41.000366%,88.400269%); stroke-width: 2.500000;stroke-linecap: round;stroke-linejoin: round;stroke-miterlimit: 10.000000;fill: none;"></path>
  <path d="M1300.502136 836.427979C1300.502136 804.830688,1287.948288 774.531326,1265.607330 752.190353C1243.266357 729.849396,1212.966995 717.295547,1181.369705 717.295547C1149.772415 717.295547,1119.473053 729.849396,1097.132080 752.190353C1074.791122 774.531326,1062.237274 804.830688,1062.237274 836.427979C1062.237274 868.025269,1074.791122 898.324631,1097.132080 920.665604C1119.473053 943.006561,1149.772415 955.560410,1181.369705 955.560410C1212.966995 955.560410,1243.266357 943.006561,1265.607330 920.665604C1287.948288 898.324631,1300.502136 868.025269,1300.502136 836.427979Z" style="stroke:rgb(25.500488%,41.000366%,88.400269%); stroke-width: 2.500000;stroke-linecap: round;stroke-linejoin: round;stroke-miterlimit: 10.000000;fill: none;"></path>
  <path d="M956.781525 1188.505127C956.781525 1156.907837,944.227676 1126.608475,921.886719 1104.267502C899.545746 1081.926544,869.246384 1069.372696,837.649094 1069.372696C806.051804 1069.372696,775.752441 1081.926544,753.411469 1104.267502C731.070511 1126.608475,718.516663 1156.907837,718.516663 1188.505127C718.516663 1220.102417,731.070511 1250.401779,753.411469 1272.742752C775.752441 1295.083710,806.051804 1307.637558,837.649094 1307.637558C869.246384 1307.637558,899.545746 1295.083710,921.886719 1272.742752C944.227676 1250.401779,956.781525 1220.102417,956.781525 1188.505127Z" style="stroke:rgb(25.500488%,41.000366%,88.400269%); stroke-width: 2.500000;stroke-linecap: round;stroke-linejoin: round;stroke-miterlimit: 10.000000;fill: none;"></path>
  <path d="M1037.972198 1004.440903C1037.972198 972.843613,1025.418350 942.544250,1003.077393 920.203278C980.736420 897.862320,950.437057 885.308472,918.839767 885.308472C887.242477 885.308472,856.943115 897.862320,834.602142 920.203278C812.261185 942.544250,799.707336 972.843613,799.707336 1004.440903C799.707336 1036.038193,812.261185 1066.337555,834.602142 1088.678528C856.943115 1111.019485,887.242477 1123.573334,918.839767 1123.573334C950.437057 1123.573334,980.736420 1111.019485,1003.077393 1088.678528C1025.418350 1066.337555,1037.972198 1036.038193,1037.972198 1004.440903Z" style="stroke:rgb(25.500488%,41.000366%,88.400269%); stroke-width: 2.500000;stroke-linecap: round;stroke-linejoin: round;stroke-miterlimit: 10.000000;fill: none;"></path>
  <path d="M1098.349411 831.380325C1098.349411 799.783035,1085.795563 769.483673,1063.454605 747.142700C1041.113632 724.801743,1010.814270 712.247894,979.216980 712.247894C947.619690 712.247894,917.320328 724.801743,894.979355 747.142700C872.638397 769.483673,860.084549 799.783035,860.084549 831.380325C860.084549 862.977615,872.638397 893.276978,894.979355 915.617950C917.320328 937.958908,947.619690 950.512756,979.216980 950.512756C1010.814270 950.512756,1041.113632 937.958908,1063.454605 915.617950C1085.795563 893.276978,1098.349411 862.977615,1098.349411 831.380325Z" style="stroke:rgb(25.500488%,41.000366%,88.400269%); stroke-width: 2.500000;stroke-linecap: round;stroke-linejoin: round;stroke-miterlimit: 10.000000;fill: none;"></path>
  <path d="M1194.501389 651.974487C1194.501389 620.377197,1181.947540 590.077835,1159.606583 567.736862C1137.265610 545.395905,1106.966248 532.842056,1075.368958 532.842056C1043.771667 532.842056,1013.472305 545.395905,991.131332 567.736862C968.790375 590.077835,956.236526 620.377197,956.236526 651.974487C956.236526 683.571777,968.790375 713.871140,991.131332 736.212112C1013.472305 758.553070,1043.771667 771.106918,1075.368958 771.106918C1106.966248 771.106918,1137.265610 758.553070,1159.606583 736.212112C1181.947540 713.871140,1194.501389 683.571777,1194.501389 651.974487Z" style="stroke:rgb(25.500488%,41.000366%,88.400269%); stroke-width: 2.500000;stroke-linecap: round;stroke-linejoin: round;stroke-miterlimit: 10.000000;fill: none;"></path>
  <path d="M779.023636 1207.216476C779.023636 1175.619186,766.469788 1145.319824,744.128830 1122.978851C721.787857 1100.637894,691.488495 1088.084045,659.891205 1088.084045C628.293915 1088.084045,597.994553 1100.637894,575.653580 1122.978851C553.312622 1145.319824,540.758774 1175.619186,540.758774 1207.216476C540.758774 1238.813766,553.312622 1269.113129,575.653580 1291.454102C597.994553 1313.795059,628.293915 1326.348907,659.891205 1326.348907C691.488495 1326.348907,721.787857 1313.795059,744.128830 1291.454102C766.469788 1269.113129,779.023636 1238.813766,779.023636 1207.216476Z" style="stroke:rgb(25.500488%,41.000366%,88.400269%); stroke-width: 2.500000;stroke-linecap: round;stroke-linejoin: round;stroke-miterlimit: 10.000000;fill: none;"></path>
  <path d="M841.853302 1001.728928C841.853302 970.131638,829.299454 939.832275,806.958496 917.491302C784.617523 895.150345,754.318161 882.596497,722.720871 882.596497C691.123581 882.596497,660.824219 895.150345,638.483246 917.491302C616.142288 939.832275,603.588440 970.131638,603.588440 1001.728928C603.588440 1033.326218,616.142288 1063.625580,638.483246 1085.966553C660.824219 1108.307510,691.123581 1120.861359,722.720871 1120.861359C754.318161 1120.861359,784.617523 1108.307510,806.958496 1085.966553C829.299454 1063.625580,841.853302 1033.326218,841.853302 1001.728928Z" style="stroke:rgb(25.500488%,41.000366%,88.400269%); stroke-width: 2.500000;stroke-linecap: round;stroke-linejoin: round;stroke-miterlimit: 10.000000;fill: none;"></path>
  <path d="M892.654251 834.105286C892.654251 802.507996,880.100403 772.208633,857.759445 749.867661C835.418472 727.526703,805.119110 714.972855,773.521820 714.972855C741.924530 714.972855,711.625168 727.526703,689.284195 749.867661C666.943237 772.208633,654.389389 802.507996,654.389389 834.105286C654.389389 865.702576,666.943237 896.001938,689.284195 918.342911C711.625168 940.683868,741.924530 953.237717,773.521820 953.237717C805.119110 953.237717,835.418472 940.683868,857.759445 918.342911C880.100403 896.001938,892.654251 865.702576,892.654251 834.105286Z" style="stroke:rgb(25.500488%,41.000366%,88.400269%); stroke-width: 2.500000;stroke-linecap: round;stroke-linejoin: round;stroke-miterlimit: 10.000000;fill: none;"></path>
  <path d="M988.196350 653.687317C988.196350 622.090027,975.642502 591.790665,953.301544 569.449692C930.960571 547.108734,900.661209 534.554886,869.063919 534.554886C837.466629 534.554886,807.167267 547.108734,784.826294 569.449692C762.485336 591.790665,749.931488 622.090027,749.931488 653.687317C749.931488 685.284607,762.485336 715.583969,784.826294 737.924942C807.167267 760.265900,837.466629 772.819748,869.063919 772.819748C900.661209 772.819748,930.960571 760.265900,953.301544 737.924942C975.642502 715.583969,988.196350 685.284607,988.196350 653.687317Z" style="stroke:rgb(25.500488%,41.000366%,88.400269%); stroke-width: 2.500000;stroke-linecap: round;stroke-linejoin: round;stroke-miterlimit: 10.000000;fill: none;"></path>
  <path d="M1083.881195 474.307434C1083.881195 442.710144,1071.327347 412.410782,1048.986389 390.069809C1026.645416 367.728851,996.346054 355.175003,964.748764 355.175003C933.151474 355.175003,902.852112 367.728851,880.511139 390.069809C858.170181 412.410782,845.616333 442.710144,845.616333 474.307434C845.616333 505.904724,858.170181 536.204086,880.511139 558.545059C902.852112 580.886017,933.151474 593.439865,964.748764 593.439865C996.346054 593.439865,1026.645416 580.886017,1048.986389 558.545059C1071.327347 536.204086,1083.881195 505.904724,1083.881195 474.307434Z" style="stroke:rgb(25.500488%,41.000366%,88.400269%); stroke-width: 2.500000;stroke-linecap: round;stroke-linejoin: round;stroke-miterlimit: 10.000000;fill: none;"></path>
  <path d="M585.616714 1206.022690C585.616714 1174.425400,573.062866 1144.126038,550.721909 1121.785065C528.380936 1099.444107,498.081573 1086.890259,466.484283 1086.890259C434.886993 1086.890259,404.587631 1099.444107,382.246658 1121.785065C359.905701 1144.126038,347.351852 1174.425400,347.351852 1206.022690C347.351852 1237.619980,359.905701 1267.919342,382.246658 1290.260315C404.587631 1312.601273,434.886993 1325.155121,466.484283 1325.155121C498.081573 1325.155121,528.380936 1312.601273,550.721909 1290.260315C573.062866 1267.919342,585.616714 1237.619980,585.616714 1206.022690Z" style="stroke:rgb(25.500488%,41.000366%,88.400269%); stroke-width: 2.500000;stroke-linecap: round;stroke-linejoin: round;stroke-miterlimit: 10.000000;fill: none;"></path>
  <path d="M687.737640 1037.373932C687.737640 1005.776642,675.183792 975.477280,652.842834 953.136307C630.501862 930.795349,600.202499 918.241501,568.605209 918.241501C537.007919 918.241501,506.708557 930.795349,484.367584 953.136307C462.026627 975.477280,449.472778 1005.776642,449.472778 1037.373932C449.472778 1068.971222,462.026627 1099.270584,484.367584 1121.611557C506.708557 1143.952515,537.007919 1156.506363,568.605209 1156.506363C600.202499 1156.506363,630.501862 1143.952515,652.842834 1121.611557C675.183792 1099.270584,687.737640 1068.971222,687.737640 1037.373932Z" style="stroke:rgb(25.500488%,41.000366%,88.400269%); stroke-width: 2.500000;stroke-linecap: round;stroke-linejoin: round;stroke-miterlimit: 10.000000;fill: none;"></path>
  <path d="M685.337082 837.492004C685.337082 805.894714,672.783234 775.595352,650.442276 753.254379C628.101303 730.913422,597.801941 718.359573,566.204651 718.359573C534.607361 718.359573,504.307999 730.913422,481.967026 753.254379C459.626068 775.595352,447.072220 805.894714,447.072220 837.492004C447.072220 869.089294,459.626068 899.388657,481.967026 921.729630C504.307999 944.070587,534.607361 956.624435,566.204651 956.624435C597.801941 956.624435,628.101303 944.070587,650.442276 921.729630C672.783234 899.388657,685.337082 869.089294,685.337082 837.492004Z" style="stroke:rgb(25.500488%,41.000366%,88.400269%); stroke-width: 2.500000;stroke-linecap: round;stroke-linejoin: round;stroke-miterlimit: 10.000000;fill: none;"></path>
  <path d="M781.540970 658.151047C781.540970 626.553757,768.987122 596.254395,746.646164 573.913422C724.305191 551.572464,694.005829 539.018616,662.408539 539.018616C630.811249 539.018616,600.511887 551.572464,578.170914 573.913422C555.829956 596.254395,543.276108 626.553757,543.276108 658.151047C543.276108 689.748337,555.829956 720.047699,578.170914 742.388672C600.511887 764.729630,630.811249 777.283478,662.408539 777.283478C694.005829 777.283478,724.305191 764.729630,746.646164 742.388672C768.987122 720.047699,781.540970 689.748337,781.540970 658.151047Z" style="stroke:rgb(25.500488%,41.000366%,88.400269%); stroke-width: 2.500000;stroke-linecap: round;stroke-linejoin: round;stroke-miterlimit: 10.000000;fill: none;"></path>
  <path d="M876.615936 477.759048C876.615936 446.161758,864.062088 415.862396,841.721130 393.521423C819.380157 371.180466,789.080795 358.626617,757.483505 358.626617C725.886215 358.626617,695.586853 371.180466,673.245880 393.521423C650.904922 415.862396,638.351074 446.161758,638.351074 477.759048C638.351074 509.356339,650.904922 539.655701,673.245880 561.996674C695.586853 584.337631,725.886215 596.891479,757.483505 596.891479C789.080795 596.891479,819.380157 584.337631,841.721130 561.996674C864.062088 539.655701,876.615936 509.356339,876.615936 477.759048Z" style="stroke:rgb(25.500488%,41.000366%,88.400269%); stroke-width: 2.500000;stroke-linecap: round;stroke-linejoin: round;stroke-miterlimit: 10.000000;fill: none;"></path>
  <path d="M980.229111 298.171539C980.229111 266.574249,967.675262 236.274887,945.334305 213.933914C922.993332 191.592957,892.693970 179.039108,861.096680 179.039108C829.499390 179.039108,799.200027 191.592957,776.859055 213.933914C754.518097 236.274887,741.964249 266.574249,741.964249 298.171539C741.964249 329.768829,754.518097 360.068192,776.859055 382.409164C799.200027 404.750122,829.499390 417.303970,861.096680 417.303970C892.693970 417.303970,922.993332 404.750122,945.334305 382.409164C967.675262 360.068192,980.229111 329.768829,980.229111 298.171539Z" style="stroke:rgb(25.500488%,41.000366%,88.400269%); stroke-width: 2.500000;stroke-linecap: round;stroke-linejoin: round;stroke-miterlimit: 10.000000;fill: none;"></path>
  <path d="M412.114944 1185.494690C412.114944 1153.897400,399.561096 1123.598038,377.220139 1101.257065C354.879166 1078.916107,324.579803 1066.362259,292.982513 1066.362259C261.385223 1066.362259,231.085861 1078.916107,208.744888 1101.257065C186.403931 1123.598038,173.850082 1153.897400,173.850082 1185.494690C173.850082 1217.091980,186.403931 1247.391342,208.744888 1269.732315C231.085861 1292.073273,261.385223 1304.627121,292.982513 1304.627121C324.579803 1304.627121,354.879166 1292.073273,377.220139 1269.732315C399.561096 1247.391342,412.114944 1217.091980,412.114944 1185.494690Z" style="stroke:rgb(25.500488%,41.000366%,88.400269%); stroke-width: 2.500000;stroke-linecap: round;stroke-linejoin: round;stroke-miterlimit: 10.000000;fill: none;"></path>
  <path d="M525.473068 997.420914C525.473068 965.823624,512.919220 935.524261,490.578262 913.183289C468.237289 890.842331,437.937927 878.288483,406.340637 878.288483C374.743347 878.288483,344.443985 890.842331,322.103012 913.183289C299.762054 935.524261,287.208206 965.823624,287.208206 997.420914C287.208206 1029.018204,299.762054 1059.317566,322.103012 1081.658539C344.443985 1103.999496,374.743347 1116.553345,406.340637 1116.553345C437.937927 1116.553345,468.237289 1103.999496,490.578262 1081.658539C512.919220 1059.317566,525.473068 1029.018204,525.473068 997.420914Z" style="stroke:rgb(25.500488%,41.000366%,88.400269%); stroke-width: 2.500000;stroke-linecap: round;stroke-linejoin: round;stroke-miterlimit: 10.000000;fill: none;"></path>
  <path d="M475.917816 830.952118C475.917816 799.354828,463.363968 769.055466,441.023010 746.714493C418.682037 724.373535,388.382675 711.819687,356.785385 711.819687C325.188095 711.819687,294.888733 724.373535,272.547760 746.714493C250.206802 769.055466,237.652954 799.354828,237.652954 830.952118C237.652954 862.549408,250.206802 892.848770,272.547760 915.189743C294.888733 937.530701,325.188095 950.084549,356.785385 950.084549C388.382675 950.084549,418.682037 937.530701,441.023010 915.189743C463.363968 892.848770,475.917816 862.549408,475.917816 830.952118Z" style="stroke:rgb(25.500488%,41.000366%,88.400269%); stroke-width: 2.500000;stroke-linecap: round;stroke-linejoin: round;stroke-miterlimit: 10.000000;fill: none;"></path>
  <path d="M575.910690 658.592239C575.910690 626.994949,563.356842 596.695587,541.015884 574.354614C518.674911 552.013657,488.375549 539.459808,456.778259 539.459808C425.180969 539.459808,394.881607 552.013657,372.540634 574.354614C350.199677 596.695587,337.645828 626.994949,337.645828 658.592239C337.645828 690.189529,350.199677 720.488892,372.540634 742.829865C394.881607 765.170822,425.180969 777.724670,456.778259 777.724670C488.375549 777.724670,518.674911 765.170822,541.015884 742.829865C563.356842 720.488892,575.910690 690.189529,575.910690 658.592239Z" style="stroke:rgb(25.500488%,41.000366%,88.400269%); stroke-width: 2.500000;stroke-linecap: round;stroke-linejoin: round;stroke-miterlimit: 10.000000;fill: none;"></path>
  <path d="M671.621475 479.277237C671.621475 447.679947,659.067627 417.380585,636.726669 395.039612C614.385696 372.698654,584.086334 360.144806,552.489044 360.144806C520.891754 360.144806,490.592392 372.698654,468.251419 395.039612C445.910461 417.380585,433.356613 447.679947,433.356613 479.277237C433.356613 510.874527,445.910461 541.173889,468.251419 563.514862C490.592392 585.855820,520.891754 598.409668,552.489044 598.409668C584.086334 598.409668,614.385696 585.855820,636.726669 563.514862C659.067627 541.173889,671.621475 510.874527,671.621475 479.277237Z" style="stroke:rgb(25.500488%,41.000366%,88.400269%); stroke-width: 2.500000;stroke-linecap: round;stroke-linejoin: round;stroke-miterlimit: 10.000000;fill: none;"></path>
  <path d="M774.611801 298.690582C774.611801 267.093292,762.057953 236.793930,739.716995 214.452957C717.376022 192.112000,687.076660 179.558151,655.479370 179.558151C623.882080 179.558151,593.582718 192.112000,571.241745 214.452957C548.900787 236.793930,536.346939 267.093292,536.346939 298.690582C536.346939 330.287872,548.900787 360.587234,571.241745 382.928207C593.582718 405.269165,623.882080 417.823013,655.479370 417.823013C687.076660 417.823013,717.376022 405.269165,739.716995 382.928207C762.057953 360.587234,774.611801 330.287872,774.611801 298.690582Z" style="stroke:rgb(25.500488%,41.000366%,88.400269%); stroke-width: 2.500000;stroke-linecap: round;stroke-linejoin: round;stroke-miterlimit: 10.000000;fill: none;"></path>
  <path d="M879.846954 119.751877C879.846954 88.154587,867.293106 57.855225,844.952148 35.514252C822.611176 13.173294,792.311813 0.619446,760.714523 0.619446C729.117233 0.619446,698.817871 13.173294,676.476898 35.514252C654.135941 57.855225,641.582092 88.154587,641.582092 119.751877C641.582092 151.349167,654.135941 181.648529,676.476898 203.989502C698.817871 226.330460,729.117233 238.884308,760.714523 238.884308C792.311813 238.884308,822.611176 226.330460,844.952148 203.989502C867.293106 181.648529,879.846954 151.349167,879.846954 119.751877Z" style="stroke:rgb(25.500488%,41.000366%,88.400269%); stroke-width: 2.500000;stroke-linecap: round;stroke-linejoin: round;stroke-miterlimit: 10.000000;fill: none;"></path>
  <path d="M239.274963 1205.101395C239.274963 1173.504105,226.721115 1143.204742,204.380157 1120.863770C182.039185 1098.522812,151.739822 1085.968964,120.142532 1085.968964C88.545242 1085.968964,58.245880 1098.522812,35.904907 1120.863770C13.563950 1143.204742,1.010101 1173.504105,1.010101 1205.101395C1.010101 1236.698685,13.563950 1266.998047,35.904907 1289.339020C58.245880 1311.679977,88.545242 1324.233826,120.142532 1324.233826C151.739822 1324.233826,182.039185 1311.679977,204.380157 1289.339020C226.721115 1266.998047,239.274963 1236.698685,239.274963 1205.101395Z" style="stroke:rgb(25.500488%,41.000366%,88.400269%); stroke-width: 2.500000;stroke-linecap: round;stroke-linejoin: round;stroke-miterlimit: 10.000000;fill: none;"></path>
  <path d="M332.507339 998.004822C332.507339 966.407532,319.953491 936.108170,297.612534 913.767197C275.271561 891.426239,244.972198 878.872391,213.374908 878.872391C181.777618 878.872391,151.478256 891.426239,129.137283 913.767197C106.796326 936.108170,94.242477 966.407532,94.242477 998.004822C94.242477 1029.602112,106.796326 1059.901474,129.137283 1082.242447C151.478256 1104.583405,181.777618 1117.137253,213.374908 1117.137253C244.972198 1117.137253,275.271561 1104.583405,297.612534 1082.242447C319.953491 1059.901474,332.507339 1029.602112,332.507339 998.004822Z" style="stroke:rgb(25.500488%,41.000366%,88.400269%); stroke-width: 2.500000;stroke-linecap: round;stroke-linejoin: round;stroke-miterlimit: 10.000000;fill: none;"></path>
</svg>
