<?xml version="1.0"?>
<!-- Created by MetaPost 2.00 on 2022.03.02:1201 -->
<svg version="1.1" xmlns="http://www.w3.org/2000/svg" xmlns:xlink="http://www.w3.org/1999/xlink" width="1764.974823" height="1804.123352" viewBox="0 0 1764.974823 1804.123352">
<!-- Original BoundingBox: -875.324677 -899.563797 889.650146 904.559555 -->
  <path d="M1725.393524 904.000000L1476.319672 302.680328L875.000000 53.606476L273.680328 302.680328L24.606476 904.000000L273.680328 1505.319672L875.000000 1754.393524L1476.319672 1505.319672L1725.393524 904.000000Z" style="fill: rgb(100.000000%,100.000000%,100.000000%);stroke: none;"></path>
  <path d="M1725.393524 904.000000L1476.319672 302.680328" style="stroke:rgb(0.000000%,0.000000%,0.000000%); stroke-width: 2.500000;stroke-linecap: round;stroke-linejoin: round;stroke-miterlimit: 10.000000;fill: none;"></path>
  <path d="M1476.319672 302.680328L875.000000 53.606476" style="stroke:rgb(0.000000%,0.000000%,0.000000%); stroke-width: 2.500000;stroke-linecap: round;stroke-linejoin: round;stroke-miterlimit: 10.000000;fill: none;"></path>
  <path d="M875.000000 53.606476L273.680328 302.680328" style="stroke:rgb(0.000000%,0.000000%,0.000000%); stroke-width: 2.500000;stroke-linecap: round;stroke-linejoin: round;stroke-miterlimit: 10.000000;fill: none;"></path>
  <path d="M273.680328 302.680328L24.606476 904.000000" style="stroke:rgb(0.000000%,0.000000%,0.000000%); stroke-width: 2.500000;stroke-linecap: round;stroke-linejoin: round;stroke-miterlimit: 10.000000;fill: none;"></path>
  <path d="M24.606476 904.000000L273.680328 1505.319672" style="stroke:rgb(0.000000%,0.000000%,0.000000%); stroke-width: 2.500000;stroke-linecap: round;stroke-linejoin: round;stroke-miterlimit: 10.000000;fill: none;"></path>
  <path d="M273.680328 1505.319672L875.000000 1754.393524" style="stroke:rgb(0.000000%,0.000000%,0.000000%); stroke-width: 2.500000;stroke-linecap: round;stroke-linejoin: round;stroke-miterlimit: 10.000000;fill: none;"></path>
  <path d="M875.000000 1754.393524L1476.319672 1505.319672" style="stroke:rgb(0.000000%,0.000000%,0.000000%); stroke-width: 2.500000;stroke-linecap: round;stroke-linejoin: round;stroke-miterlimit: 10.000000;fill: none;"></path>
  <path d="M1476.319672 1505.319672L1725.393524 904.000000" style="stroke:rgb(0.000000%,0.000000%,0.000000%); stroke-width: 2.500000;stroke-linecap: round;stroke-linejoin: round;stroke-miterlimit: 10.000000;fill: none;"></path>
  <path d="M1520.982986 1442.671661C1520.982986 1412.925949,1509.164795 1384.402100,1488.132996 1363.370300C1467.101196 1342.338501,1438.577347 1330.520309,1408.831635 1330.520309C1379.085922 1330.520309,1350.562073 1342.338501,1329.530273 1363.370300C1308.498474 1384.402100,1296.680283 1412.925949,1296.680283 1442.671661C1296.680283 1472.417374,1308.498474 1500.941223,1329.530273 1521.973022C1350.562073 1543.004822,1379.085922 1554.823013,1408.831635 1554.823013C1438.577347 1554.823013,1467.101196 1543.004822,1488.132996 1521.973022C1509.164795 1500.941223,1520.982986 1472.417374,1520.982986 1442.671661Z" style="stroke:rgb(25.500488%,41.000366%,88.400269%); stroke-width: 2.500000;stroke-linecap: round;stroke-linejoin: round;stroke-miterlimit: 10.000000;fill: none;"></path>
  <path d="M1037.420288 1690.162445C1037.420288 1660.416733,1025.602097 1631.892883,1004.570297 1610.861084C983.538498 1589.829285,955.014648 1578.011093,925.268936 1578.011093C895.523224 1578.011093,866.999374 1589.829285,845.967575 1610.861084C824.935776 1631.892883,813.117584 1660.416733,813.117584 1690.162445C813.117584 1719.908157,824.935776 1748.432007,845.967575 1769.463806C866.999374 1790.495605,895.523224 1802.313797,925.268936 1802.313797C955.014648 1802.313797,983.538498 1790.495605,1004.570297 1769.463806C1025.602097 1748.432007,1037.420288 1719.908157,1037.420288 1690.162445Z" style="stroke:rgb(25.500488%,41.000366%,88.400269%); stroke-width: 2.500000;stroke-linecap: round;stroke-linejoin: round;stroke-miterlimit: 10.000000;fill: none;"></path>
  <path d="M1217.903122 1598.201706C1217.903122 1568.455994,1206.084930 1539.932144,1185.053131 1518.900345C1164.021332 1497.868546,1135.497482 1486.050354,1105.751770 1486.050354C1076.006058 1486.050354,1047.482208 1497.868546,1026.450409 1518.900345C1005.418610 1539.932144,993.600418 1568.455994,993.600418 1598.201706C993.600418 1627.947418,1005.418610 1656.471268,1026.450409 1677.503067C1047.482208 1698.534866,1076.006058 1710.353058,1105.751770 1710.353058C1135.497482 1710.353058,1164.021332 1698.534866,1185.053131 1677.503067C1206.084930 1656.471268,1217.903122 1627.947418,1217.903122 1598.201706Z" style="stroke:rgb(25.500488%,41.000366%,88.400269%); stroke-width: 2.500000;stroke-linecap: round;stroke-linejoin: round;stroke-miterlimit: 10.000000;fill: none;"></path>
  <path d="M1378.065582 1511.833618C1378.065582 1482.087906,1366.247391 1453.564056,1345.215591 1432.532257C1324.183792 1411.500458,1295.659943 1399.682266,1265.914230 1399.682266C1236.168518 1399.682266,1207.644669 1411.500458,1186.612869 1432.532257C1165.581070 1453.564056,1153.762878 1482.087906,1153.762878 1511.833618C1153.762878 1541.579330,1165.581070 1570.103180,1186.612869 1591.134979C1207.644669 1612.166779,1236.168518 1623.984970,1265.914230 1623.984970C1295.659943 1623.984970,1324.183792 1612.166779,1345.215591 1591.134979C1366.247391 1570.103180,1378.065582 1541.579330,1378.065582 1511.833618Z" style="stroke:rgb(25.500488%,41.000366%,88.400269%); stroke-width: 2.500000;stroke-linecap: round;stroke-linejoin: round;stroke-miterlimit: 10.000000;fill: none;"></path>
  <path d="M1586.381897 1305.450729C1586.381897 1275.705017,1574.563705 1247.181168,1553.531906 1226.149368C1532.500107 1205.117569,1503.976257 1193.299377,1474.230545 1193.299377C1444.484833 1193.299377,1415.960983 1205.117569,1394.929184 1226.149368C1373.897385 1247.181168,1362.079193 1275.705017,1362.079193 1305.450729C1362.079193 1335.196442,1373.897385 1363.720291,1394.929184 1384.752090C1415.960983 1405.783890,1444.484833 1417.602081,1474.230545 1417.602081C1503.976257 1417.602081,1532.500107 1405.783890,1553.531906 1384.752090C1574.563705 1363.720291,1586.381897 1335.196442,1586.381897 1305.450729Z" style="stroke:rgb(25.500488%,41.000366%,88.400269%); stroke-width: 2.500000;stroke-linecap: round;stroke-linejoin: round;stroke-miterlimit: 10.000000;fill: none;"></path>
  <path d="M1701.167374 1149.816879C1701.167374 1120.071167,1689.349182 1091.547318,1668.317383 1070.515518C1647.285583 1049.483719,1618.761734 1037.665527,1589.016022 1037.665527C1559.270309 1037.665527,1530.746460 1049.483719,1509.714661 1070.515518C1488.682861 1091.547318,1476.864670 1120.071167,1476.864670 1149.816879C1476.864670 1179.562592,1488.682861 1208.086441,1509.714661 1229.118240C1530.746460 1250.150040,1559.270309 1261.968231,1589.016022 1261.968231C1618.761734 1261.968231,1647.285583 1250.150040,1668.317383 1229.118240C1689.349182 1208.086441,1701.167374 1179.562592,1701.167374 1149.816879Z" style="stroke:rgb(25.500488%,41.000366%,88.400269%); stroke-width: 2.500000;stroke-linecap: round;stroke-linejoin: round;stroke-miterlimit: 10.000000;fill: none;"></path>
  <path d="M889.091904 1629.110489C889.091904 1599.364777,877.273712 1570.840927,856.241913 1549.809128C835.210114 1528.777328,806.686264 1516.959137,776.940552 1516.959137C747.194839 1516.959137,718.670990 1528.777328,697.639191 1549.809128C676.607391 1570.840927,664.789200 1599.364777,664.789200 1629.110489C664.789200 1658.856201,676.607391 1687.380051,697.639191 1708.411850C718.670990 1729.443649,747.194839 1741.261841,776.940552 1741.261841C806.686264 1741.261841,835.210114 1729.443649,856.241913 1708.411850C877.273712 1687.380051,889.091904 1658.856201,889.091904 1629.110489Z" style="stroke:rgb(25.500488%,41.000366%,88.400269%); stroke-width: 2.500000;stroke-linecap: round;stroke-linejoin: round;stroke-miterlimit: 10.000000;fill: none;"></path>
  <path d="M1051.706833 1502.983994C1051.706833 1473.238281,1039.888641 1444.714432,1018.856842 1423.682632C997.825043 1402.650833,969.301193 1390.832642,939.555481 1390.832642C909.809769 1390.832642,881.285919 1402.650833,860.254120 1423.682632C839.222321 1444.714432,827.404129 1473.238281,827.404129 1502.983994C827.404129 1532.729706,839.222321 1561.253555,860.254120 1582.285355C881.285919 1603.317154,909.809769 1615.135345,939.555481 1615.135345C969.301193 1615.135345,997.825043 1603.317154,1018.856842 1582.285355C1039.888641 1561.253555,1051.706833 1532.729706,1051.706833 1502.983994Z" style="stroke:rgb(25.500488%,41.000366%,88.400269%); stroke-width: 2.500000;stroke-linecap: round;stroke-linejoin: round;stroke-miterlimit: 10.000000;fill: none;"></path>
  <path d="M1219.408340 1402.524002C1219.408340 1372.778290,1207.590149 1344.254440,1186.558350 1323.222641C1165.526550 1302.190842,1137.002701 1290.372650,1107.256989 1290.372650C1077.511276 1290.372650,1048.987427 1302.190842,1027.955627 1323.222641C1006.923828 1344.254440,995.105637 1372.778290,995.105637 1402.524002C995.105637 1432.269714,1006.923828 1460.793564,1027.955627 1481.825363C1048.987427 1502.857162,1077.511276 1514.675354,1107.256989 1514.675354C1137.002701 1514.675354,1165.526550 1502.857162,1186.558350 1481.825363C1207.590149 1460.793564,1219.408340 1432.269714,1219.408340 1402.524002Z" style="stroke:rgb(25.500488%,41.000366%,88.400269%); stroke-width: 2.500000;stroke-linecap: round;stroke-linejoin: round;stroke-miterlimit: 10.000000;fill: none;"></path>
  <path d="M1372.083664 1305.372864C1372.083664 1275.627151,1360.265472 1247.103302,1339.233673 1226.071503C1318.201874 1205.039703,1289.678024 1193.221512,1259.932312 1193.221512C1230.186600 1193.221512,1201.662750 1205.039703,1180.630951 1226.071503C1159.599152 1247.103302,1147.780960 1275.627151,1147.780960 1305.372864C1147.780960 1335.118576,1159.599152 1363.642426,1180.630951 1384.674225C1201.662750 1405.706024,1230.186600 1417.524216,1259.932312 1417.524216C1289.678024 1417.524216,1318.201874 1405.706024,1339.233673 1384.674225C1360.265472 1363.642426,1372.083664 1335.118576,1372.083664 1305.372864Z" style="stroke:rgb(25.500488%,41.000366%,88.400269%); stroke-width: 2.500000;stroke-linecap: round;stroke-linejoin: round;stroke-miterlimit: 10.000000;fill: none;"></path>
  <path d="M1490.891693 1160.716690C1490.891693 1130.970978,1479.073502 1102.447128,1458.041702 1081.415329C1437.009903 1060.383530,1408.486053 1048.565338,1378.740341 1048.565338C1348.994629 1048.565338,1320.470779 1060.383530,1299.438980 1081.415329C1278.407181 1102.447128,1266.588989 1130.970978,1266.588989 1160.716690C1266.588989 1190.462402,1278.407181 1218.986252,1299.438980 1240.018051C1320.470779 1261.049850,1348.994629 1272.868042,1378.740341 1272.868042C1408.486053 1272.868042,1437.009903 1261.049850,1458.041702 1240.018051C1479.073502 1218.986252,1490.891693 1190.462402,1490.891693 1160.716690Z" style="stroke:rgb(25.500488%,41.000366%,88.400269%); stroke-width: 2.500000;stroke-linecap: round;stroke-linejoin: round;stroke-miterlimit: 10.000000;fill: none;"></path>
  <path d="M1600.512726 1004.680588C1600.512726 974.934875,1588.694534 946.411026,1567.662735 925.379227C1546.630936 904.347427,1518.107086 892.529236,1488.361374 892.529236C1458.615662 892.529236,1430.091812 904.347427,1409.060013 925.379227C1388.028214 946.411026,1376.210022 974.934875,1376.210022 1004.680588C1376.210022 1034.426300,1388.028214 1062.950150,1409.060013 1083.981949C1430.091812 1105.013748,1458.615662 1116.831940,1488.361374 1116.831940C1518.107086 1116.831940,1546.630936 1105.013748,1567.662735 1083.981949C1588.694534 1062.950150,1600.512726 1034.426300,1600.512726 1004.680588Z" style="stroke:rgb(25.500488%,41.000366%,88.400269%); stroke-width: 2.500000;stroke-linecap: round;stroke-linejoin: round;stroke-miterlimit: 10.000000;fill: none;"></path>
  <path d="M1763.400146 950.843277C1763.400146 921.097565,1751.581955 892.573715,1730.550156 871.541916C1709.518356 850.510117,1680.994507 838.691925,1651.248795 838.691925C1621.503082 838.691925,1592.979233 850.510117,1571.947433 871.541916C1550.915634 892.573715,1539.097443 921.097565,1539.097443 950.843277C1539.097443 980.588989,1550.915634 1009.112839,1571.947433 1030.144638C1592.979233 1051.176437,1621.503082 1062.994629,1651.248795 1062.994629C1680.994507 1062.994629,1709.518356 1051.176437,1730.550156 1030.144638C1751.581955 1009.112839,1763.400146 980.588989,1763.400146 950.843277Z" style="stroke:rgb(25.500488%,41.000366%,88.400269%); stroke-width: 2.500000;stroke-linecap: round;stroke-linejoin: round;stroke-miterlimit: 10.000000;fill: none;"></path>
  <path d="M733.406158 1570.965134C733.406158 1541.219421,721.587967 1512.695572,700.556168 1491.663773C679.524368 1470.631973,651.000519 1458.813782,621.254807 1458.813782C591.509094 1458.813782,562.985245 1470.631973,541.953445 1491.663773C520.921646 1512.695572,509.103455 1541.219421,509.103455 1570.965134C509.103455 1600.710846,520.921646 1629.234695,541.953445 1650.266495C562.985245 1671.298294,591.509094 1683.116486,621.254807 1683.116486C651.000519 1683.116486,679.524368 1671.298294,700.556168 1650.266495C721.587967 1629.234695,733.406158 1600.710846,733.406158 1570.965134Z" style="stroke:rgb(25.500488%,41.000366%,88.400269%); stroke-width: 2.500000;stroke-linecap: round;stroke-linejoin: round;stroke-miterlimit: 10.000000;fill: none;"></path>
  <path d="M880.787277 1437.481277C880.787277 1407.735565,868.969086 1379.211716,847.937286 1358.179916C826.905487 1337.148117,798.381638 1325.329926,768.635925 1325.329926C738.890213 1325.329926,710.366364 1337.148117,689.334564 1358.179916C668.302765 1379.211716,656.484573 1407.735565,656.484573 1437.481277C656.484573 1467.226990,668.302765 1495.750839,689.334564 1516.782639C710.366364 1537.814438,738.890213 1549.632629,768.635925 1549.632629C798.381638 1549.632629,826.905487 1537.814438,847.937286 1516.782639C868.969086 1495.750839,880.787277 1467.226990,880.787277 1437.481277Z" style="stroke:rgb(25.500488%,41.000366%,88.400269%); stroke-width: 2.500000;stroke-linecap: round;stroke-linejoin: round;stroke-miterlimit: 10.000000;fill: none;"></path>
  <path d="M1032.307739 1322.163788C1032.307739 1292.418076,1020.489548 1263.894226,999.457748 1242.862427C978.425949 1221.830627,949.902100 1210.012436,920.156387 1210.012436C890.410675 1210.012436,861.886826 1221.830627,840.855026 1242.862427C819.823227 1263.894226,808.005035 1292.418076,808.005035 1322.163788C808.005035 1351.909500,819.823227 1380.433350,840.855026 1401.465149C861.886826 1422.496948,890.410675 1434.315140,920.156387 1434.315140C949.902100 1434.315140,978.425949 1422.496948,999.457748 1401.465149C1020.489548 1380.433350,1032.307739 1351.909500,1032.307739 1322.163788Z" style="stroke:rgb(25.500488%,41.000366%,88.400269%); stroke-width: 2.500000;stroke-linecap: round;stroke-linejoin: round;stroke-miterlimit: 10.000000;fill: none;"></path>
  <path d="M1185.177719 1214.631882C1185.177719 1184.886169,1173.359528 1156.362320,1152.327728 1135.330521C1131.295929 1114.298721,1102.772079 1102.480530,1073.026367 1102.480530C1043.280655 1102.480530,1014.756805 1114.298721,993.725006 1135.330521C972.693207 1156.362320,960.875015 1184.886169,960.875015 1214.631882C960.875015 1244.377594,972.693207 1272.901443,993.725006 1293.933243C1014.756805 1314.965042,1043.280655 1326.783234,1073.026367 1326.783234C1102.772079 1326.783234,1131.295929 1314.965042,1152.327728 1293.933243C1173.359528 1272.901443,1185.177719 1244.377594,1185.177719 1214.631882Z" style="stroke:rgb(25.500488%,41.000366%,88.400269%); stroke-width: 2.500000;stroke-linecap: round;stroke-linejoin: round;stroke-miterlimit: 10.000000;fill: none;"></path>
  <path d="M1308.747925 1110.421814C1308.747925 1080.676102,1296.929733 1052.152252,1275.897934 1031.120453C1254.866135 1010.088654,1226.342285 998.270462,1196.596573 998.270462C1166.850861 998.270462,1138.327011 1010.088654,1117.295212 1031.120453C1096.263412 1052.152252,1084.445221 1080.676102,1084.445221 1110.421814C1084.445221 1140.167526,1096.263412 1168.691376,1117.295212 1189.723175C1138.327011 1210.754974,1166.850861 1222.573166,1196.596573 1222.573166C1226.342285 1222.573166,1254.866135 1210.754974,1275.897934 1189.723175C1296.929733 1168.691376,1308.747925 1140.167526,1308.747925 1110.421814Z" style="stroke:rgb(25.500488%,41.000366%,88.400269%); stroke-width: 2.500000;stroke-linecap: round;stroke-linejoin: round;stroke-miterlimit: 10.000000;fill: none;"></path>
  <path d="M1422.404495 965.337433C1422.404495 935.591721,1410.586304 907.067871,1389.554504 886.036072C1368.522705 865.004272,1339.998856 853.186081,1310.253143 853.186081C1280.507431 853.186081,1251.983582 865.004272,1230.951782 886.036072C1209.919983 907.067871,1198.101791 935.591721,1198.101791 965.337433C1198.101791 995.083145,1209.919983 1023.606995,1230.951782 1044.638794C1251.983582 1065.670593,1280.507431 1077.488785,1310.253143 1077.488785C1339.998856 1077.488785,1368.522705 1065.670593,1389.554504 1044.638794C1410.586304 1023.606995,1422.404495 995.083145,1422.404495 965.337433Z" style="stroke:rgb(25.500488%,41.000366%,88.400269%); stroke-width: 2.500000;stroke-linecap: round;stroke-linejoin: round;stroke-miterlimit: 10.000000;fill: none;"></path>
  <path d="M1569.097900 842.454956C1569.097900 812.709244,1557.279709 784.185394,1536.247910 763.153595C1515.216110 742.121796,1486.692261 730.303604,1456.946548 730.303604C1427.200836 730.303604,1398.676987 742.121796,1377.645187 763.153595C1356.613388 784.185394,1344.795197 812.709244,1344.795197 842.454956C1344.795197 872.200668,1356.613388 900.724518,1377.645187 921.756317C1398.676987 942.788116,1427.200836 954.606308,1456.946548 954.606308C1486.692261 954.606308,1515.216110 942.788116,1536.247910 921.756317C1557.279709 900.724518,1569.097900 872.200668,1569.097900 842.454956Z" style="stroke:rgb(25.500488%,41.000366%,88.400269%); stroke-width: 2.500000;stroke-linecap: round;stroke-linejoin: round;stroke-miterlimit: 10.000000;fill: none;"></path>
  <path d="M1725.704941 785.036255C1725.704941 755.290543,1713.886749 726.766693,1692.854950 705.734894C1671.823151 684.703094,1643.299301 672.884903,1613.553589 672.884903C1583.807877 672.884903,1555.284027 684.703094,1534.252228 705.734894C1513.220428 726.766693,1501.402237 755.290543,1501.402237 785.036255C1501.402237 814.781967,1513.220428 843.305817,1534.252228 864.337616C1555.284027 885.369415,1583.807877 897.187607,1613.553589 897.187607C1643.299301 897.187607,1671.823151 885.369415,1692.854950 864.337616C1713.886749 843.305817,1725.704941 814.781967,1725.704941 785.036255Z" style="stroke:rgb(25.500488%,41.000366%,88.400269%); stroke-width: 2.500000;stroke-linecap: round;stroke-linejoin: round;stroke-miterlimit: 10.000000;fill: none;"></path>
  <path d="M575.060318 1505.371582C575.060318 1475.625870,563.242126 1447.102020,542.210327 1426.070221C521.178528 1405.038422,492.654678 1393.220230,462.908966 1393.220230C433.163254 1393.220230,404.639404 1405.038422,383.607605 1426.070221C362.575806 1447.102020,350.757614 1475.625870,350.757614 1505.371582C350.757614 1535.117294,362.575806 1563.641144,383.607605 1584.672943C404.639404 1605.704742,433.163254 1617.522934,462.908966 1617.522934C492.654678 1617.522934,521.178528 1605.704742,542.210327 1584.672943C563.242126 1563.641144,575.060318 1535.117294,575.060318 1505.371582Z" style="stroke:rgb(25.500488%,41.000366%,88.400269%); stroke-width: 2.500000;stroke-linecap: round;stroke-linejoin: round;stroke-miterlimit: 10.000000;fill: none;"></path>
  <path d="M711.982819 1371.148087C711.982819 1341.402374,700.164627 1312.878525,679.132828 1291.846725C658.101028 1270.814926,629.577179 1258.996735,599.831467 1258.996735C570.085754 1258.996735,541.561905 1270.814926,520.530106 1291.846725C499.498306 1312.878525,487.680115 1341.402374,487.680115 1371.148087C487.680115 1400.893799,499.498306 1429.417648,520.530106 1450.449448C541.561905 1471.481247,570.085754 1483.299438,599.831467 1483.299438C629.577179 1483.299438,658.101028 1471.481247,679.132828 1450.449448C700.164627 1429.417648,711.982819 1400.893799,711.982819 1371.148087Z" style="stroke:rgb(25.500488%,41.000366%,88.400269%); stroke-width: 2.500000;stroke-linecap: round;stroke-linejoin: round;stroke-miterlimit: 10.000000;fill: none;"></path>
  <path d="M852.486679 1243.555328C852.486679 1213.809616,840.668488 1185.285767,819.636688 1164.253967C798.604889 1143.222168,770.081039 1131.403976,740.335327 1131.403976C710.589615 1131.403976,682.065765 1143.222168,661.033966 1164.253967C640.002167 1185.285767,628.183975 1213.809616,628.183975 1243.555328C628.183975 1273.301041,640.002167 1301.824890,661.033966 1322.856689C682.065765 1343.888489,710.589615 1355.706680,740.335327 1355.706680C770.081039 1355.706680,798.604889 1343.888489,819.636688 1322.856689C840.668488 1301.824890,852.486679 1273.301041,852.486679 1243.555328Z" style="stroke:rgb(25.500488%,41.000366%,88.400269%); stroke-width: 2.500000;stroke-linecap: round;stroke-linejoin: round;stroke-miterlimit: 10.000000;fill: none;"></path>
  <path d="M1000.386841 1132.234436C1000.386841 1102.488724,988.568649 1073.964874,967.536850 1052.933075C946.505051 1031.901276,917.981201 1020.083084,888.235489 1020.083084C858.489777 1020.083084,829.965927 1031.901276,808.934128 1052.933075C787.902328 1073.964874,776.084137 1102.488724,776.084137 1132.234436C776.084137 1161.980148,787.902328 1190.503998,808.934128 1211.535797C829.965927 1232.567596,858.489777 1244.385788,888.235489 1244.385788C917.981201 1244.385788,946.505051 1232.567596,967.536850 1211.535797C988.568649 1190.503998,1000.386841 1161.980148,1000.386841 1132.234436Z" style="stroke:rgb(25.500488%,41.000366%,88.400269%); stroke-width: 2.500000;stroke-linecap: round;stroke-linejoin: round;stroke-miterlimit: 10.000000;fill: none;"></path>
  <path d="M1132.287643 1018.798462C1132.287643 989.052750,1120.469452 960.528900,1099.437653 939.497101C1078.405853 918.465302,1049.882004 906.647110,1020.136292 906.647110C990.390579 906.647110,961.866730 918.465302,940.834930 939.497101C919.803131 960.528900,907.984940 989.052750,907.984940 1018.798462C907.984940 1048.544174,919.803131 1077.068024,940.834930 1098.099823C961.866730 1119.131622,990.390579 1130.949814,1020.136292 1130.949814C1049.882004 1130.949814,1078.405853 1119.131622,1099.437653 1098.099823C1120.469452 1077.068024,1132.287643 1048.544174,1132.287643 1018.798462Z" style="stroke:rgb(25.500488%,41.000366%,88.400269%); stroke-width: 2.500000;stroke-linecap: round;stroke-linejoin: round;stroke-miterlimit: 10.000000;fill: none;"></path>
  <path d="M1250.952927 906.543289C1250.952927 876.797577,1239.134735 848.273727,1218.102936 827.241928C1197.071136 806.210129,1168.547287 794.391937,1138.801575 794.391937C1109.055862 794.391937,1080.532013 806.210129,1059.500214 827.241928C1038.468414 848.273727,1026.650223 876.797577,1026.650223 906.543289C1026.650223 936.289001,1038.468414 964.812851,1059.500214 985.844650C1080.532013 1006.876450,1109.055862 1018.694641,1138.801575 1018.694641C1168.547287 1018.694641,1197.071136 1006.876450,1218.102936 985.844650C1239.134735 964.812851,1250.952927 936.289001,1250.952927 906.543289Z" style="stroke:rgb(25.500488%,41.000366%,88.400269%); stroke-width: 2.500000;stroke-linecap: round;stroke-linejoin: round;stroke-miterlimit: 10.000000;fill: none;"></path>
  <path d="M1385.435944 773.669296C1385.435944 743.923584,1373.617752 715.399734,1352.585953 694.367935C1331.554153 673.336136,1303.030304 661.517944,1273.284592 661.517944C1243.538879 661.517944,1215.015030 673.336136,1193.983231 694.367935C1172.951431 715.399734,1161.133240 743.923584,1161.133240 773.669296C1161.133240 803.415009,1172.951431 831.938858,1193.983231 852.970657C1215.015030 874.002457,1243.538879 885.820648,1273.284592 885.820648C1303.030304 885.820648,1331.554153 874.002457,1352.585953 852.970657C1373.617752 831.938858,1385.435944 803.415009,1385.435944 773.669296Z" style="stroke:rgb(25.500488%,41.000366%,88.400269%); stroke-width: 2.500000;stroke-linecap: round;stroke-linejoin: round;stroke-miterlimit: 10.000000;fill: none;"></path>
  <path d="M1548.842392 657.975510C1548.842392 628.229797,1537.024200 599.705948,1515.992401 578.674149C1494.960602 557.642349,1466.436752 545.824158,1436.691040 545.824158C1406.945328 545.824158,1378.421478 557.642349,1357.389679 578.674149C1336.357880 599.705948,1324.539688 628.229797,1324.539688 657.975510C1324.539688 687.721222,1336.357880 716.245071,1357.389679 737.276871C1378.421478 758.308670,1406.945328 770.126862,1436.691040 770.126862C1466.436752 770.126862,1494.960602 758.308670,1515.992401 737.276871C1537.024200 716.245071,1548.842392 687.721222,1548.842392 657.975510Z" style="stroke:rgb(25.500488%,41.000366%,88.400269%); stroke-width: 2.500000;stroke-linecap: round;stroke-linejoin: round;stroke-miterlimit: 10.000000;fill: none;"></path>
  <path d="M1669.583847 588.748672C1669.583847 559.002960,1657.765656 530.479111,1636.733856 509.447311C1615.702057 488.415512,1587.178207 476.597321,1557.432495 476.597321C1527.686783 476.597321,1499.162933 488.415512,1478.131134 509.447311C1457.099335 530.479111,1445.281143 559.002960,1445.281143 588.748672C1445.281143 618.494385,1457.099335 647.018234,1478.131134 668.050034C1499.162933 689.081833,1527.686783 700.900024,1557.432495 700.900024C1587.178207 700.900024,1615.702057 689.081833,1636.733856 668.050034C1657.765656 647.018234,1669.583847 618.494385,1669.583847 588.748672Z" style="stroke:rgb(25.500488%,41.000366%,88.400269%); stroke-width: 2.500000;stroke-linecap: round;stroke-linejoin: round;stroke-miterlimit: 10.000000;fill: none;"></path>
  <path d="M411.043991 1442.918213C411.043991 1413.172501,399.225800 1384.648651,378.194000 1363.616852C357.162201 1342.585052,328.638351 1330.766861,298.892639 1330.766861C269.146927 1330.766861,240.623077 1342.585052,219.591278 1363.616852C198.559479 1384.648651,186.741287 1413.172501,186.741287 1442.918213C186.741287 1472.663925,198.559479 1501.187775,219.591278 1522.219574C240.623077 1543.251373,269.146927 1555.069565,298.892639 1555.069565C328.638351 1555.069565,357.162201 1543.251373,378.194000 1522.219574C399.225800 1501.187775,411.043991 1472.663925,411.043991 1442.918213Z" style="stroke:rgb(25.500488%,41.000366%,88.400269%); stroke-width: 2.500000;stroke-linecap: round;stroke-linejoin: round;stroke-miterlimit: 10.000000;fill: none;"></path>
  <path d="M536.417877 1306.268219C536.417877 1276.522507,524.599686 1247.998657,503.567886 1226.966858C482.536087 1205.935059,454.012238 1194.116867,424.266525 1194.116867C394.520813 1194.116867,365.996964 1205.935059,344.965164 1226.966858C323.933365 1247.998657,312.115173 1276.522507,312.115173 1306.268219C312.115173 1336.013931,323.933365 1364.537781,344.965164 1385.569580C365.996964 1406.601379,394.520813 1418.419571,424.266525 1418.419571C454.012238 1418.419571,482.536087 1406.601379,503.567886 1385.569580C524.599686 1364.537781,536.417877 1336.013931,536.417877 1306.268219Z" style="stroke:rgb(25.500488%,41.000366%,88.400269%); stroke-width: 2.500000;stroke-linecap: round;stroke-linejoin: round;stroke-miterlimit: 10.000000;fill: none;"></path>
  <path d="M674.767715 1173.355301C674.767715 1143.609589,662.949524 1115.085739,641.917725 1094.053940C620.885925 1073.022141,592.362076 1061.203949,562.616364 1061.203949C532.870651 1061.203949,504.346802 1073.022141,483.315002 1094.053940C462.283203 1115.085739,450.465012 1143.609589,450.465012 1173.355301C450.465012 1203.101013,462.283203 1231.624863,483.315002 1252.656662C504.346802 1273.688461,532.870651 1285.506653,562.616364 1285.506653C592.362076 1285.506653,620.885925 1273.688461,641.917725 1252.656662C662.949524 1231.624863,674.767715 1203.101013,674.767715 1173.355301Z" style="stroke:rgb(25.500488%,41.000366%,88.400269%); stroke-width: 2.500000;stroke-linecap: round;stroke-linejoin: round;stroke-miterlimit: 10.000000;fill: none;"></path>
  <path d="M821.058868 1047.540237C821.058868 1017.794525,809.240677 989.270676,788.208878 968.238876C767.177078 947.207077,738.653229 935.388885,708.907516 935.388885C679.161804 935.388885,650.637955 947.207077,629.606155 968.238876C608.574356 989.270676,596.756165 1017.794525,596.756165 1047.540237C596.756165 1077.285950,608.574356 1105.809799,629.606155 1126.841599C650.637955 1147.873398,679.161804 1159.691589,708.907516 1159.691589C738.653229 1159.691589,767.177078 1147.873398,788.208878 1126.841599C809.240677 1105.809799,821.058868 1077.285950,821.058868 1047.540237Z" style="stroke:rgb(25.500488%,41.000366%,88.400269%); stroke-width: 2.500000;stroke-linecap: round;stroke-linejoin: round;stroke-miterlimit: 10.000000;fill: none;"></path>
  <path d="M952.881805 932.092987C952.881805 902.347275,941.063614 873.823425,920.031815 852.791626C899.000015 831.759827,870.476166 819.941635,840.730453 819.941635C810.984741 819.941635,782.460892 831.759827,761.429092 852.791626C740.397293 873.823425,728.579102 902.347275,728.579102 932.092987C728.579102 961.838699,740.397293 990.362549,761.429092 1011.394348C782.460892 1032.426147,810.984741 1044.244339,840.730453 1044.244339C870.476166 1044.244339,899.000015 1032.426147,920.031815 1011.394348C941.063614 990.362549,952.881805 961.838699,952.881805 932.092987Z" style="stroke:rgb(25.500488%,41.000366%,88.400269%); stroke-width: 2.500000;stroke-linecap: round;stroke-linejoin: round;stroke-miterlimit: 10.000000;fill: none;"></path>
  <path d="M1081.201218 818.073090C1081.201218 788.327377,1069.383026 759.803528,1048.351227 738.771729C1027.319427 717.739929,998.795578 705.921738,969.049866 705.921738C939.304153 705.921738,910.780304 717.739929,889.748505 738.771729C868.716705 759.803528,856.898514 788.327377,856.898514 818.073090C856.898514 847.818802,868.716705 876.342651,889.748505 897.374451C910.780304 918.406250,939.304153 930.224442,969.049866 930.224442C998.795578 930.224442,1027.319427 918.406250,1048.351227 897.374451C1069.383026 876.342651,1081.201218 847.818802,1081.201218 818.073090Z" style="stroke:rgb(25.500488%,41.000366%,88.400269%); stroke-width: 2.500000;stroke-linecap: round;stroke-linejoin: round;stroke-miterlimit: 10.000000;fill: none;"></path>
  <path d="M1217.916092 701.081696C1217.916092 671.335983,1206.097900 642.812134,1185.066101 621.780334C1164.034302 600.748535,1135.510452 588.930344,1105.764740 588.930344C1076.019028 588.930344,1047.495178 600.748535,1026.463379 621.780334C1005.431580 642.812134,993.613388 671.335983,993.613388 701.081696C993.613388 730.827408,1005.431580 759.351257,1026.463379 780.383057C1047.495178 801.414856,1076.019028 813.233047,1105.764740 813.233047C1135.510452 813.233047,1164.034302 801.414856,1185.066101 780.383057C1206.097900 759.351257,1217.916092 730.827408,1217.916092 701.081696Z" style="stroke:rgb(25.500488%,41.000366%,88.400269%); stroke-width: 2.500000;stroke-linecap: round;stroke-linejoin: round;stroke-miterlimit: 10.000000;fill: none;"></path>
  <path d="M1382.905624 580.002869C1382.905624 550.257156,1371.087433 521.733307,1350.055634 500.701508C1329.023834 479.669708,1300.499985 467.851517,1270.754272 467.851517C1241.008560 467.851517,1212.484711 479.669708,1191.452911 500.701508C1170.421112 521.733307,1158.602921 550.257156,1158.602921 580.002869C1158.602921 609.748581,1170.421112 638.272430,1191.452911 659.304230C1212.484711 680.336029,1241.008560 692.154221,1270.754272 692.154221C1300.499985 692.154221,1329.023834 680.336029,1350.055634 659.304230C1371.087433 638.272430,1382.905624 609.748581,1382.905624 580.002869Z" style="stroke:rgb(25.500488%,41.000366%,88.400269%); stroke-width: 2.500000;stroke-linecap: round;stroke-linejoin: round;stroke-miterlimit: 10.000000;fill: none;"></path>
  <path d="M1549.322510 463.296951C1549.322510 433.551239,1537.504318 405.027390,1516.472519 383.995590C1495.440720 362.963791,1466.916870 351.145599,1437.171158 351.145599C1407.425446 351.145599,1378.901596 362.963791,1357.869797 383.995590C1336.837997 405.027390,1325.019806 433.551239,1325.019806 463.296951C1325.019806 493.042664,1336.837997 521.566513,1357.869797 542.598312C1378.901596 563.630112,1407.425446 575.448303,1437.171158 575.448303C1466.916870 575.448303,1495.440720 563.630112,1516.472519 542.598312C1537.504318 521.566513,1549.322510 493.042664,1549.322510 463.296951Z" style="stroke:rgb(25.500488%,41.000366%,88.400269%); stroke-width: 2.500000;stroke-linecap: round;stroke-linejoin: round;stroke-miterlimit: 10.000000;fill: none;"></path>
  <path d="M344.723785 1255.986313C344.723785 1226.240601,332.905594 1197.716751,311.873795 1176.684952C290.841995 1155.653152,262.318146 1143.834961,232.572433 1143.834961C202.826721 1143.834961,174.302872 1155.653152,153.271072 1176.684952C132.239273 1197.716751,120.421082 1226.240601,120.421082 1255.986313C120.421082 1285.732025,132.239273 1314.255875,153.271072 1335.287674C174.302872 1356.319473,202.826721 1368.137665,232.572433 1368.137665C262.318146 1368.137665,290.841995 1356.319473,311.873795 1335.287674C332.905594 1314.255875,344.723785 1285.732025,344.723785 1255.986313Z" style="stroke:rgb(25.500488%,41.000366%,88.400269%); stroke-width: 2.500000;stroke-linecap: round;stroke-linejoin: round;stroke-miterlimit: 10.000000;fill: none;"></path>
  <path d="M482.814117 1121.931503C482.814117 1092.185791,470.995926 1063.661942,449.964127 1042.630142C428.932327 1021.598343,400.408478 1009.780151,370.662766 1009.780151C340.917053 1009.780151,312.393204 1021.598343,291.361404 1042.630142C270.329605 1063.661942,258.511414 1092.185791,258.511414 1121.931503C258.511414 1151.677216,270.329605 1180.201065,291.361404 1201.232864C312.393204 1222.264664,340.917053 1234.082855,370.662766 1234.082855C400.408478 1234.082855,428.932327 1222.264664,449.964127 1201.232864C470.995926 1180.201065,482.814117 1151.677216,482.814117 1121.931503Z" style="stroke:rgb(25.500488%,41.000366%,88.400269%); stroke-width: 2.500000;stroke-linecap: round;stroke-linejoin: round;stroke-miterlimit: 10.000000;fill: none;"></path>
  <path d="M628.106110 991.107727C628.106110 961.362015,616.287918 932.838165,595.256119 911.806366C574.224319 890.774567,545.700470 878.956375,515.954758 878.956375C486.209045 878.956375,457.685196 890.774567,436.653397 911.806366C415.621597 932.838165,403.803406 961.362015,403.803406 991.107727C403.803406 1020.853439,415.621597 1049.377289,436.653397 1070.409088C457.685196 1091.440887,486.209045 1103.259079,515.954758 1103.259079C545.700470 1103.259079,574.224319 1091.440887,595.256119 1070.409088C616.287918 1049.377289,628.106110 1020.853439,628.106110 991.107727Z" style="stroke:rgb(25.500488%,41.000366%,88.400269%); stroke-width: 2.500000;stroke-linecap: round;stroke-linejoin: round;stroke-miterlimit: 10.000000;fill: none;"></path>
  <path d="M758.333008 861.179276C758.333008 831.433563,746.514816 802.909714,725.483017 781.877914C704.451218 760.846115,675.927368 749.027924,646.181656 749.027924C616.435944 749.027924,587.912094 760.846115,566.880295 781.877914C545.848495 802.909714,534.030304 831.433563,534.030304 861.179276C534.030304 890.924988,545.848495 919.448837,566.880295 940.480637C587.912094 961.512436,616.435944 973.330627,646.181656 973.330627C675.927368 973.330627,704.451218 961.512436,725.483017 940.480637C746.514816 919.448837,758.333008 890.924988,758.333008 861.179276Z" style="stroke:rgb(25.500488%,41.000366%,88.400269%); stroke-width: 2.500000;stroke-linecap: round;stroke-linejoin: round;stroke-miterlimit: 10.000000;fill: none;"></path>
  <path d="M886.574570 745.148102C886.574570 715.402390,874.756378 686.878540,853.724579 665.846741C832.692780 644.814941,804.168930 632.996750,774.423218 632.996750C744.677505 632.996750,716.153656 644.814941,695.121857 665.846741C674.090057 686.878540,662.271866 715.402390,662.271866 745.148102C662.271866 774.893814,674.090057 803.417664,695.121857 824.449463C716.153656 845.481262,744.677505 857.299454,774.423218 857.299454C804.168930 857.299454,832.692780 845.481262,853.724579 824.449463C874.756378 803.417664,886.574570 774.893814,886.574570 745.148102Z" style="stroke:rgb(25.500488%,41.000366%,88.400269%); stroke-width: 2.500000;stroke-linecap: round;stroke-linejoin: round;stroke-miterlimit: 10.000000;fill: none;"></path>
  <path d="M1017.060974 640.380081C1017.060974 610.634369,1005.242783 582.110519,984.210983 561.078720C963.179184 540.046921,934.655334 528.228729,904.909622 528.228729C875.163910 528.228729,846.640060 540.046921,825.608261 561.078720C804.576462 582.110519,792.758270 610.634369,792.758270 640.380081C792.758270 670.125793,804.576462 698.649643,825.608261 719.681442C846.640060 740.713242,875.163910 752.531433,904.909622 752.531433C934.655334 752.531433,963.179184 740.713242,984.210983 719.681442C1005.242783 698.649643,1017.060974 670.125793,1017.060974 640.380081Z" style="stroke:rgb(25.500488%,41.000366%,88.400269%); stroke-width: 2.500000;stroke-linecap: round;stroke-linejoin: round;stroke-miterlimit: 10.000000;fill: none;"></path>
  <path d="M1184.269394 535.196823C1184.269394 505.451111,1172.451202 476.927261,1151.419403 455.895462C1130.387604 434.863663,1101.863754 423.045471,1072.118042 423.045471C1042.372330 423.045471,1013.848480 434.863663,992.816681 455.895462C971.784882 476.927261,959.966690 505.451111,959.966690 535.196823C959.966690 564.942535,971.784882 593.466385,992.816681 614.498184C1013.848480 635.529984,1042.372330 647.348175,1072.118042 647.348175C1101.863754 647.348175,1130.387604 635.529984,1151.419403 614.498184C1172.451202 593.466385,1184.269394 564.942535,1184.269394 535.196823Z" style="stroke:rgb(25.500488%,41.000366%,88.400269%); stroke-width: 2.500000;stroke-linecap: round;stroke-linejoin: round;stroke-miterlimit: 10.000000;fill: none;"></path>
  <path d="M1348.986420 415.727020C1348.986420 385.981308,1337.168228 357.457458,1316.136429 336.425659C1295.104630 315.393860,1266.580780 303.575668,1236.835068 303.575668C1207.089355 303.575668,1178.565506 315.393860,1157.533707 336.425659C1136.501907 357.457458,1124.683716 385.981308,1124.683716 415.727020C1124.683716 445.472733,1136.501907 473.996582,1157.533707 495.028381C1178.565506 516.060181,1207.089355 527.878372,1236.835068 527.878372C1266.580780 527.878372,1295.104630 516.060181,1316.136429 495.028381C1337.168228 473.996582,1348.986420 445.472733,1348.986420 415.727020Z" style="stroke:rgb(25.500488%,41.000366%,88.400269%); stroke-width: 2.500000;stroke-linecap: round;stroke-linejoin: round;stroke-miterlimit: 10.000000;fill: none;"></path>
  <path d="M1522.501175 316.733307C1522.501175 286.987595,1510.682983 258.463745,1489.651184 237.431946C1468.619385 216.400146,1440.095535 204.581955,1410.349823 204.581955C1380.604111 204.581955,1352.080261 216.400146,1331.048462 237.431946C1310.016663 258.463745,1298.198471 286.987595,1298.198471 316.733307C1298.198471 346.479019,1310.016663 375.002869,1331.048462 396.034668C1352.080261 417.066467,1380.604111 428.884659,1410.349823 428.884659C1440.095535 428.884659,1468.619385 417.066467,1489.651184 396.034668C1510.682983 375.002869,1522.501175 346.479019,1522.501175 316.733307Z" style="stroke:rgb(25.500488%,41.000366%,88.400269%); stroke-width: 2.500000;stroke-linecap: round;stroke-linejoin: round;stroke-miterlimit: 10.000000;fill: none;"></path>
  <path d="M284.865616 1080.901474C284.865616 1051.155762,273.047424 1022.631912,252.015625 1001.600113C230.983826 980.568314,202.459976 968.750122,172.714264 968.750122C142.968552 968.750122,114.444702 980.568314,93.412903 1001.600113C72.381104 1022.631912,60.562912 1051.155762,60.562912 1080.901474C60.562912 1110.647186,72.381104 1139.171036,93.412903 1160.202835C114.444702 1181.234634,142.968552 1193.052826,172.714264 1193.052826C202.459976 1193.052826,230.983826 1181.234634,252.015625 1160.202835C273.047424 1139.171036,284.865616 1110.647186,284.865616 1080.901474Z" style="stroke:rgb(25.500488%,41.000366%,88.400269%); stroke-width: 2.500000;stroke-linecap: round;stroke-linejoin: round;stroke-miterlimit: 10.000000;fill: none;"></path>
  <path d="M435.867035 949.883057C435.867035 920.137344,424.048843 891.613495,403.017044 870.581696C381.985245 849.549896,353.461395 837.731705,323.715683 837.731705C293.969971 837.731705,265.446121 849.549896,244.414322 870.581696C223.382523 891.613495,211.564331 920.137344,211.564331 949.883057C211.564331 979.628769,223.382523 1008.152618,244.414322 1029.184418C265.446121 1050.216217,293.969971 1062.034409,323.715683 1062.034409C353.461395 1062.034409,381.985245 1050.216217,403.017044 1029.184418C424.048843 1008.152618,435.867035 979.628769,435.867035 949.883057Z" style="stroke:rgb(25.500488%,41.000366%,88.400269%); stroke-width: 2.500000;stroke-linecap: round;stroke-linejoin: round;stroke-miterlimit: 10.000000;fill: none;"></path>
  <path d="M571.972046 809.249420C571.972046 779.503708,560.153854 750.979858,539.122055 729.948059C518.090256 708.916260,489.566406 697.098068,459.820694 697.098068C430.074982 697.098068,401.551132 708.916260,380.519333 729.948059C359.487534 750.979858,347.669342 779.503708,347.669342 809.249420C347.669342 838.995132,359.487534 867.518982,380.519333 888.550781C401.551132 909.582581,430.074982 921.400772,459.820694 921.400772C489.566406 921.400772,518.090256 909.582581,539.122055 888.550781C560.153854 867.518982,571.972046 838.995132,571.972046 809.249420Z" style="stroke:rgb(25.500488%,41.000366%,88.400269%); stroke-width: 2.500000;stroke-linecap: round;stroke-linejoin: round;stroke-miterlimit: 10.000000;fill: none;"></path>
  <path d="M696.593307 669.537094C696.593307 639.791382,684.775116 611.267532,663.743317 590.235733C642.711517 569.203934,614.187668 557.385742,584.441956 557.385742C554.696243 557.385742,526.172394 569.203934,505.140594 590.235733C484.108795 611.267532,472.290604 639.791382,472.290604 669.537094C472.290604 699.282806,484.108795 727.806656,505.140594 748.838455C526.172394 769.870255,554.696243 781.688446,584.441956 781.688446C614.187668 781.688446,642.711517 769.870255,663.743317 748.838455C684.775116 727.806656,696.593307 699.282806,696.593307 669.537094Z" style="stroke:rgb(25.500488%,41.000366%,88.400269%); stroke-width: 2.500000;stroke-linecap: round;stroke-linejoin: round;stroke-miterlimit: 10.000000;fill: none;"></path>
  <path d="M821.084824 560.175583C821.084824 530.429871,809.266632 501.906021,788.234833 480.874222C767.203033 459.842422,738.679184 448.024231,708.933472 448.024231C679.187759 448.024231,650.663910 459.842422,629.632111 480.874222C608.600311 501.906021,596.782120 530.429871,596.782120 560.175583C596.782120 589.921295,608.600311 618.445145,629.632111 639.476944C650.663910 660.508743,679.187759 672.326935,708.933472 672.326935C738.679184 672.326935,767.203033 660.508743,788.234833 639.476944C809.266632 618.445145,821.084824 589.921295,821.084824 560.175583Z" style="stroke:rgb(25.500488%,41.000366%,88.400269%); stroke-width: 2.500000;stroke-linecap: round;stroke-linejoin: round;stroke-miterlimit: 10.000000;fill: none;"></path>
  <path d="M989.733566 469.226974C989.733566 439.481262,977.915375 410.957413,956.883575 389.925613C935.851776 368.893814,907.327927 357.075623,877.582214 357.075623C847.836502 357.075623,819.312653 368.893814,798.280853 389.925613C777.249054 410.957413,765.430862 439.481262,765.430862 469.226974C765.430862 498.972687,777.249054 527.496536,798.280853 548.528336C819.312653 569.560135,847.836502 581.378326,877.582214 581.378326C907.327927 581.378326,935.851776 569.560135,956.883575 548.528336C977.915375 527.496536,989.733566 498.972687,989.733566 469.226974Z" style="stroke:rgb(25.500488%,41.000366%,88.400269%); stroke-width: 2.500000;stroke-linecap: round;stroke-linejoin: round;stroke-miterlimit: 10.000000;fill: none;"></path>
  <path d="M1156.111526 361.591248C1156.111526 331.845535,1144.293335 303.321686,1123.261536 282.289886C1102.229736 261.258087,1073.705887 249.439896,1043.960175 249.439896C1014.214462 249.439896,985.690613 261.258087,964.658813 282.289886C943.627014 303.321686,931.808823 331.845535,931.808823 361.591248C931.808823 391.336960,943.627014 419.860809,964.658813 440.892609C985.690613 461.924408,1014.214462 473.742599,1043.960175 473.742599C1073.705887 473.742599,1102.229736 461.924408,1123.261536 440.892609C1144.293335 419.860809,1156.111526 391.336960,1156.111526 361.591248Z" style="stroke:rgb(25.500488%,41.000366%,88.400269%); stroke-width: 2.500000;stroke-linecap: round;stroke-linejoin: round;stroke-miterlimit: 10.000000;fill: none;"></path>
  <path d="M1327.679871 246.273758C1327.679871 216.528046,1315.861679 188.004196,1294.829880 166.972397C1273.798080 145.940598,1245.274231 134.122406,1215.528519 134.122406C1185.782806 134.122406,1157.258957 145.940598,1136.227158 166.972397C1115.195358 188.004196,1103.377167 216.528046,1103.377167 246.273758C1103.377167 276.019470,1115.195358 304.543320,1136.227158 325.575119C1157.258957 346.606918,1185.782806 358.425110,1215.528519 358.425110C1245.274231 358.425110,1273.798080 346.606918,1294.829880 325.575119C1315.861679 304.543320,1327.679871 276.019470,1327.679871 246.273758Z" style="stroke:rgb(25.500488%,41.000366%,88.400269%); stroke-width: 2.500000;stroke-linecap: round;stroke-linejoin: round;stroke-miterlimit: 10.000000;fill: none;"></path>
  <path d="M241.318237 927.525436C241.318237 897.779724,229.500046 869.255875,208.468246 848.224075C187.436447 827.192276,158.912598 815.374084,129.166885 815.374084C99.421173 815.374084,70.897324 827.192276,49.865524 848.224075C28.833725 869.255875,17.015533 897.779724,17.015533 927.525436C17.015533 957.271149,28.833725 985.794998,49.865524 1006.826797C70.897324 1027.858597,99.421173 1039.676788,129.166885 1039.676788C158.912598 1039.676788,187.436447 1027.858597,208.468246 1006.826797C229.500046 985.794998,241.318237 957.271149,241.318237 927.525436Z" style="stroke:rgb(25.500488%,41.000366%,88.400269%); stroke-width: 2.500000;stroke-linecap: round;stroke-linejoin: round;stroke-miterlimit: 10.000000;fill: none;"></path>
  <path d="M395.693420 784.374481C395.693420 754.628769,383.875229 726.104919,362.843430 705.073120C341.811630 684.041321,313.287781 672.223129,283.542068 672.223129C253.796356 672.223129,225.272507 684.041321,204.240707 705.073120C183.208908 726.104919,171.390717 754.628769,171.390717 784.374481C171.390717 814.120193,183.208908 842.644043,204.240707 863.675842C225.272507 884.707642,253.796356 896.525833,283.542068 896.525833C313.287781 896.525833,341.811630 884.707642,362.843430 863.675842C383.875229 842.644043,395.693420 814.120193,395.693420 784.374481Z" style="stroke:rgb(25.500488%,41.000366%,88.400269%); stroke-width: 2.500000;stroke-linecap: round;stroke-linejoin: round;stroke-miterlimit: 10.000000;fill: none;"></path>
  <path d="M509.570572 618.269028C509.570572 588.523315,497.752380 559.999466,476.720581 538.967667C455.688782 517.935867,427.164932 506.117676,397.419220 506.117676C367.673508 506.117676,339.149658 517.935867,318.117859 538.967667C297.086060 559.999466,285.267868 588.523315,285.267868 618.269028C285.267868 648.014740,297.086060 676.538589,318.117859 697.570389C339.149658 718.602188,367.673508 730.420380,397.419220 730.420380C427.164932 730.420380,455.688782 718.602188,476.720581 697.570389C497.752380 676.538589,509.570572 648.014740,509.570572 618.269028Z" style="stroke:rgb(25.500488%,41.000366%,88.400269%); stroke-width: 2.500000;stroke-linecap: round;stroke-linejoin: round;stroke-miterlimit: 10.000000;fill: none;"></path>
  <path d="M630.324997 478.050629C630.324997 448.304916,618.506805 419.781067,597.475006 398.749268C576.443207 377.717468,547.919357 365.899277,518.173645 365.899277C488.427933 365.899277,459.904083 377.717468,438.872284 398.749268C417.840485 419.781067,406.022293 448.304916,406.022293 478.050629C406.022293 507.796341,417.840485 536.320190,438.872284 557.351990C459.904083 578.383789,488.427933 590.201981,518.173645 590.201981C547.919357 590.201981,576.443207 578.383789,597.475006 557.351990C618.506805 536.320190,630.324997 507.796341,630.324997 478.050629Z" style="stroke:rgb(25.500488%,41.000366%,88.400269%); stroke-width: 2.500000;stroke-linecap: round;stroke-linejoin: round;stroke-miterlimit: 10.000000;fill: none;"></path>
  <path d="M799.103516 383.377914C799.103516 353.632202,787.285324 325.108353,766.253525 304.076553C745.221725 283.044754,716.697876 271.226562,686.952164 271.226562C657.206451 271.226562,628.682602 283.044754,607.650803 304.076553C586.619003 325.108353,574.800812 353.632202,574.800812 383.377914C574.800812 413.123627,586.619003 441.647476,607.650803 462.679276C628.682602 483.711075,657.206451 495.529266,686.952164 495.529266C716.697876 495.529266,745.221725 483.711075,766.253525 462.679276C787.285324 441.647476,799.103516 413.123627,799.103516 383.377914Z" style="stroke:rgb(25.500488%,41.000366%,88.400269%); stroke-width: 2.500000;stroke-linecap: round;stroke-linejoin: round;stroke-miterlimit: 10.000000;fill: none;"></path>
  <path d="M968.647614 292.948349C968.647614 263.202637,956.829422 234.678787,935.797623 213.646988C914.765823 192.615189,886.241974 180.796997,856.496262 180.796997C826.750549 180.796997,798.226700 192.615189,777.194901 213.646988C756.163101 234.678787,744.344910 263.202637,744.344910 292.948349C744.344910 322.694061,756.163101 351.217911,777.194901 372.249710C798.226700 393.281509,826.750549 405.099701,856.496262 405.099701C886.241974 405.099701,914.765823 393.281509,935.797623 372.249710C956.829422 351.217911,968.647614 322.694061,968.647614 292.948349Z" style="stroke:rgb(25.500488%,41.000366%,88.400269%); stroke-width: 2.500000;stroke-linecap: round;stroke-linejoin: round;stroke-miterlimit: 10.000000;fill: none;"></path>
  <path d="M1142.266159 185.961426C1142.266159 156.215714,1130.447968 127.691864,1109.416168 106.660065C1088.384369 85.628265,1059.860519 73.810074,1030.114807 73.810074C1000.369095 73.810074,971.845245 85.628265,950.813446 106.660065C929.781647 127.691864,917.963455 156.215714,917.963455 185.961426C917.963455 215.707138,929.781647 244.230988,950.813446 265.262787C971.845245 286.294586,1000.369095 298.112778,1030.114807 298.112778C1059.860519 298.112778,1088.384369 286.294586,1109.416168 265.262787C1130.447968 244.230988,1142.266159 215.707138,1142.266159 185.961426Z" style="stroke:rgb(25.500488%,41.000366%,88.400269%); stroke-width: 2.500000;stroke-linecap: round;stroke-linejoin: round;stroke-miterlimit: 10.000000;fill: none;"></path>
  <path d="M225.228027 762.289368C225.228027 732.543655,213.409836 704.019806,192.378036 682.988007C171.346237 661.956207,142.822388 650.138016,113.076675 650.138016C83.330963 650.138016,54.807114 661.956207,33.775314 682.988007C12.743515 704.019806,0.925323 732.543655,0.925323 762.289368C0.925323 792.035080,12.743515 820.558929,33.775314 841.590729C54.807114 862.622528,83.330963 874.440720,113.076675 874.440720C142.822388 874.440720,171.346237 862.622528,192.378036 841.590729C213.409836 820.558929,225.228027 792.035080,225.228027 762.289368Z" style="stroke:rgb(25.500488%,41.000366%,88.400269%); stroke-width: 2.500000;stroke-linecap: round;stroke-linejoin: round;stroke-miterlimit: 10.000000;fill: none;"></path>
  <path d="M335.926071 590.889709C335.926071 561.143997,324.107880 532.620148,303.076080 511.588348C282.044281 490.556549,253.520432 478.738358,223.774719 478.738358C194.029007 478.738358,165.505157 490.556549,144.473358 511.588348C123.441559 532.620148,111.623367 561.143997,111.623367 590.889709C111.623367 620.635422,123.441559 649.159271,144.473358 670.191071C165.505157 691.222870,194.029007 703.041061,223.774719 703.041061C253.520432 703.041061,282.044281 691.222870,303.076080 670.191071C324.107880 649.159271,335.926071 620.635422,335.926071 590.889709Z" style="stroke:rgb(25.500488%,41.000366%,88.400269%); stroke-width: 2.500000;stroke-linecap: round;stroke-linejoin: round;stroke-miterlimit: 10.000000;fill: none;"></path>
  <path d="M421.333939 457.107407C421.333939 427.361694,409.515747 398.837845,388.483948 377.806046C367.452148 356.774246,338.928299 344.956055,309.182587 344.956055C279.436874 344.956055,250.913025 356.774246,229.881226 377.806046C208.849426 398.837845,197.031235 427.361694,197.031235 457.107407C197.031235 486.853119,208.849426 515.376968,229.881226 536.408768C250.913025 557.440567,279.436874 569.258759,309.182587 569.258759C338.928299 569.258759,367.452148 557.440567,388.483948 536.408768C409.515747 515.376968,421.333939 486.853119,421.333939 457.107407Z" style="stroke:rgb(25.500488%,41.000366%,88.400269%); stroke-width: 2.500000;stroke-linecap: round;stroke-linejoin: round;stroke-miterlimit: 10.000000;fill: none;"></path>
  <path d="M632.842346 283.008743C632.842346 253.263031,621.024155 224.739182,599.992355 203.707382C578.960556 182.675583,550.436707 170.857391,520.690994 170.857391C490.945282 170.857391,462.421432 182.675583,441.389633 203.707382C420.357834 224.739182,408.539642 253.263031,408.539642 283.008743C408.539642 312.754456,420.357834 341.278305,441.389633 362.310104C462.421432 383.341904,490.945282 395.160095,520.690994 395.160095C550.436707 395.160095,578.960556 383.341904,599.992355 362.310104C621.024155 341.278305,632.842346 312.754456,632.842346 283.008743Z" style="stroke:rgb(25.500488%,41.000366%,88.400269%); stroke-width: 2.500000;stroke-linecap: round;stroke-linejoin: round;stroke-miterlimit: 10.000000;fill: none;"></path>
  <path d="M790.630203 196.433044C790.630203 166.687332,778.812012 138.163483,757.780212 117.131683C736.748413 96.099884,708.224564 84.281693,678.478851 84.281693C648.733139 84.281693,620.209290 96.099884,599.177490 117.131683C578.145691 138.163483,566.327499 166.687332,566.327499 196.433044C566.327499 226.178757,578.145691 254.702606,599.177490 275.734406C620.209290 296.766205,648.733139 308.584396,678.478851 308.584396C708.224564 308.584396,736.748413 296.766205,757.780212 275.734406C778.812012 254.702606,790.630203 226.178757,790.630203 196.433044Z" style="stroke:rgb(25.500488%,41.000366%,88.400269%); stroke-width: 2.500000;stroke-linecap: round;stroke-linejoin: round;stroke-miterlimit: 10.000000;fill: none;"></path>
  <path d="M970.295563 112.841797C970.295563 83.096085,958.477371 54.572235,937.445572 33.540436C916.413773 12.508636,887.889923 0.690445,858.144211 0.690445C828.398499 0.690445,799.874649 12.508636,778.842850 33.540436C757.811050 54.572235,745.992859 83.096085,745.992859 112.841797C745.992859 142.587509,757.811050 171.111359,778.842850 192.143158C799.874649 213.174957,828.398499 224.993149,858.144211 224.993149C887.889923 224.993149,916.413773 213.174957,937.445572 192.143158C958.477371 171.111359,970.295563 142.587509,970.295563 112.841797Z" style="stroke:rgb(25.500488%,41.000366%,88.400269%); stroke-width: 2.500000;stroke-linecap: round;stroke-linejoin: round;stroke-miterlimit: 10.000000;fill: none;"></path>
  <path d="M471.070862 340.725891C471.070862 310.980179,459.252670 282.456329,438.220871 261.424530C417.189072 240.392731,388.665222 228.574539,358.919510 228.574539C329.173798 228.574539,300.649948 240.392731,279.618149 261.424530C258.586349 282.456329,246.768158 310.980179,246.768158 340.725891C246.768158 370.471603,258.586349 398.995453,279.618149 420.027252C300.649948 441.059052,329.173798 452.877243,358.919510 452.877243C388.665222 452.877243,417.189072 441.059052,438.220871 420.027252C459.252670 398.995453,471.070862 370.471603,471.070862 340.725891Z" style="stroke:rgb(25.500488%,41.000366%,88.400269%); stroke-width: 2.500000;stroke-linecap: round;stroke-linejoin: round;stroke-miterlimit: 10.000000;fill: none;"></path>
</svg>
