<?xml version="1.0"?>
<!-- Created by MetaPost 2.00 on 2022.03.02:1201 -->
<svg version="1.1" xmlns="http://www.w3.org/2000/svg" xmlns:xlink="http://www.w3.org/1999/xlink" width="1712.032837" height="1703.728241" viewBox="0 0 1712.032837 1703.728241">
<!-- Original BoundingBox: -856.016418 -851.864120 856.016418 851.864120 -->
  <path d="M1706.393524 851.000000L856.000000 0.606476L5.606476 851.000000L856.000000 1701.393524L1706.393524 851.000000Z" style="fill: rgb(100.000000%,100.000000%,100.000000%);stroke: none;"></path>
  <path d="M1706.393524 851.000000L856.000000 0.606476" style="stroke:rgb(0.000000%,0.000000%,0.000000%); stroke-width: 2.500000;stroke-linecap: round;stroke-linejoin: round;stroke-miterlimit: 10.000000;fill: none;"></path>
  <path d="M856.000000 0.606476L5.606476 851.000000" style="stroke:rgb(0.000000%,0.000000%,0.000000%); stroke-width: 2.500000;stroke-linecap: round;stroke-linejoin: round;stroke-miterlimit: 10.000000;fill: none;"></path>
  <path d="M5.606476 851.000000L856.000000 1701.393524" style="stroke:rgb(0.000000%,0.000000%,0.000000%); stroke-width: 2.500000;stroke-linecap: round;stroke-linejoin: round;stroke-miterlimit: 10.000000;fill: none;"></path>
  <path d="M856.000000 1701.393524L1706.393524 851.000000" style="stroke:rgb(0.000000%,0.000000%,0.000000%); stroke-width: 2.500000;stroke-linecap: round;stroke-linejoin: round;stroke-miterlimit: 10.000000;fill: none;"></path>
  <path d="M1667.050369 958.648697C1667.050369 935.349091,1657.793259 913.006577,1641.319199 896.532516C1624.845139 880.058456,1602.502625 870.801346,1579.203018 870.801346C1555.903412 870.801346,1533.560898 880.058456,1517.086838 896.532516C1500.612778 913.006577,1491.355667 935.349091,1491.355667 958.648697C1491.355667 981.948303,1500.612778 1004.290817,1517.086838 1020.764877C1533.560898 1037.238937,1555.903412 1046.496048,1579.203018 1046.496048C1602.502625 1046.496048,1624.845139 1037.238937,1641.319199 1020.764877C1657.793259 1004.290817,1667.050369 981.948303,1667.050369 958.648697Z" style="stroke:rgb(25.500488%,41.000366%,88.400269%); stroke-width: 2.500000;stroke-linecap: round;stroke-linejoin: round;stroke-miterlimit: 10.000000;fill: none;"></path>
  <path d="M1710.766418 823.607712C1710.766418 800.308105,1701.509308 777.965591,1685.035248 761.491531C1668.561188 745.017471,1646.218674 735.760361,1622.919067 735.760361C1599.619461 735.760361,1577.276947 745.017471,1560.802887 761.491531C1544.328827 777.965591,1535.071716 800.308105,1535.071716 823.607712C1535.071716 846.907318,1544.328827 869.249832,1560.802887 885.723892C1577.276947 902.197952,1599.619461 911.455063,1622.919067 911.455063C1646.218674 911.455063,1668.561188 902.197952,1685.035248 885.723892C1701.509308 869.249832,1710.766418 846.907318,1710.766418 823.607712Z" style="stroke:rgb(25.500488%,41.000366%,88.400269%); stroke-width: 2.500000;stroke-linecap: round;stroke-linejoin: round;stroke-miterlimit: 10.000000;fill: none;"></path>
  <path d="M1491.277802 1135.303619C1491.277802 1112.004013,1482.020691 1089.661499,1465.546631 1073.187439C1449.072571 1056.713379,1426.730057 1047.456268,1403.430450 1047.456268C1380.130844 1047.456268,1357.788330 1056.713379,1341.314270 1073.187439C1324.840210 1089.661499,1315.583099 1112.004013,1315.583099 1135.303619C1315.583099 1158.603226,1324.840210 1180.945740,1341.314270 1197.419800C1357.788330 1213.893860,1380.130844 1223.150970,1403.430450 1223.150970C1426.730057 1223.150970,1449.072571 1213.893860,1465.546631 1197.419800C1482.020691 1180.945740,1491.277802 1158.603226,1491.277802 1135.303619Z" style="stroke:rgb(25.500488%,41.000366%,88.400269%); stroke-width: 2.500000;stroke-linecap: round;stroke-linejoin: round;stroke-miterlimit: 10.000000;fill: none;"></path>
  <path d="M1532.671158 1000.418350C1532.671158 977.118744,1523.414047 954.776230,1506.939987 938.302170C1490.465927 921.828110,1468.123413 912.570999,1444.823807 912.570999C1421.524200 912.570999,1399.181686 921.828110,1382.707626 938.302170C1366.233566 954.776230,1356.976456 977.118744,1356.976456 1000.418350C1356.976456 1023.717957,1366.233566 1046.060471,1382.707626 1062.534531C1399.181686 1079.008591,1421.524200 1088.265701,1444.823807 1088.265701C1468.123413 1088.265701,1490.465927 1079.008591,1506.939987 1062.534531C1523.414047 1046.060471,1532.671158 1023.717957,1532.671158 1000.418350Z" style="stroke:rgb(25.500488%,41.000366%,88.400269%); stroke-width: 2.500000;stroke-linecap: round;stroke-linejoin: round;stroke-miterlimit: 10.000000;fill: none;"></path>
  <path d="M1556.391251 847.211014C1556.391251 823.911407,1547.134140 801.568893,1530.660080 785.094833C1514.186020 768.620773,1491.843506 759.363663,1468.543900 759.363663C1445.244293 759.363663,1422.901779 768.620773,1406.427719 785.094833C1389.953659 801.568893,1380.696548 823.911407,1380.696548 847.211014C1380.696548 870.510620,1389.953659 892.853134,1406.427719 909.327194C1422.901779 925.801254,1445.244293 935.058365,1468.543900 935.058365C1491.843506 935.058365,1514.186020 925.801254,1530.660080 909.327194C1547.134140 892.853134,1556.391251 870.510620,1556.391251 847.211014Z" style="stroke:rgb(25.500488%,41.000366%,88.400269%); stroke-width: 2.500000;stroke-linecap: round;stroke-linejoin: round;stroke-miterlimit: 10.000000;fill: none;"></path>
  <path d="M1600.094330 712.170044C1600.094330 688.870438,1590.837219 666.527924,1574.363159 650.053864C1557.889099 633.579803,1535.546585 624.322693,1512.246979 624.322693C1488.947372 624.322693,1466.604858 633.579803,1450.130798 650.053864C1433.656738 666.527924,1424.399628 688.870438,1424.399628 712.170044C1424.399628 735.469650,1433.656738 757.812164,1450.130798 774.286224C1466.604858 790.760284,1488.947372 800.017395,1512.246979 800.017395C1535.546585 800.017395,1557.889099 790.760284,1574.363159 774.286224C1590.837219 757.812164,1600.094330 735.469650,1600.094330 712.170044Z" style="stroke:rgb(25.500488%,41.000366%,88.400269%); stroke-width: 2.500000;stroke-linecap: round;stroke-linejoin: round;stroke-miterlimit: 10.000000;fill: none;"></path>
  <path d="M1315.998322 1309.908340C1315.998322 1286.608734,1306.741211 1264.266220,1290.267151 1247.792160C1273.793091 1231.318100,1251.450577 1222.060989,1228.150970 1222.060989C1204.851364 1222.060989,1182.508850 1231.318100,1166.034790 1247.792160C1149.560730 1264.266220,1140.303619 1286.608734,1140.303619 1309.908340C1140.303619 1333.207947,1149.560730 1355.550461,1166.034790 1372.024521C1182.508850 1388.498581,1204.851364 1397.755692,1228.150970 1397.755692C1251.450577 1397.755692,1273.793091 1388.498581,1290.267151 1372.024521C1306.741211 1355.550461,1315.998322 1333.207947,1315.998322 1309.908340Z" style="stroke:rgb(25.500488%,41.000366%,88.400269%); stroke-width: 2.500000;stroke-linecap: round;stroke-linejoin: round;stroke-miterlimit: 10.000000;fill: none;"></path>
  <path d="M1356.729919 1175.749741C1356.729919 1152.450134,1347.472809 1130.107620,1330.998749 1113.633560C1314.524689 1097.159500,1292.182175 1087.902390,1268.882568 1087.902390C1245.582962 1087.902390,1223.240448 1097.159500,1206.766388 1113.633560C1190.292328 1130.107620,1181.035217 1152.450134,1181.035217 1175.749741C1181.035217 1199.049347,1190.292328 1221.391861,1206.766388 1237.865921C1223.240448 1254.339981,1245.582962 1263.597092,1268.882568 1263.597092C1292.182175 1263.597092,1314.524689 1254.339981,1330.998749 1237.865921C1347.472809 1221.391861,1356.729919 1199.049347,1356.729919 1175.749741Z" style="stroke:rgb(25.500488%,41.000366%,88.400269%); stroke-width: 2.500000;stroke-linecap: round;stroke-linejoin: round;stroke-miterlimit: 10.000000;fill: none;"></path>
  <path d="M1379.282150 1022.775955C1379.282150 999.476349,1370.025040 977.133835,1353.550980 960.659775C1337.076920 944.185715,1314.734406 934.928604,1291.434799 934.928604C1268.135193 934.928604,1245.792679 944.185715,1229.318619 960.659775C1212.844559 977.133835,1203.587448 999.476349,1203.587448 1022.775955C1203.587448 1046.075562,1212.844559 1068.418076,1229.318619 1084.892136C1245.792679 1101.366196,1268.135193 1110.623306,1291.434799 1110.623306C1314.734406 1110.623306,1337.076920 1101.366196,1353.550980 1084.892136C1370.025040 1068.418076,1379.282150 1046.075562,1379.282150 1022.775955Z" style="stroke:rgb(25.500488%,41.000366%,88.400269%); stroke-width: 2.500000;stroke-linecap: round;stroke-linejoin: round;stroke-miterlimit: 10.000000;fill: none;"></path>
  <path d="M1421.012894 887.747955C1421.012894 864.448349,1411.755783 842.105835,1395.281723 825.631775C1378.807663 809.157715,1356.465149 799.900604,1333.165543 799.900604C1309.865936 799.900604,1287.523422 809.157715,1271.049362 825.631775C1254.575302 842.105835,1245.318192 864.448349,1245.318192 887.747955C1245.318192 911.047562,1254.575302 933.390076,1271.049362 949.864136C1287.523422 966.338196,1309.865936 975.595306,1333.165543 975.595306C1356.465149 975.595306,1378.807663 966.338196,1395.281723 949.864136C1411.755783 933.390076,1421.012894 911.047562,1421.012894 887.747955Z" style="stroke:rgb(25.500488%,41.000366%,88.400269%); stroke-width: 2.500000;stroke-linecap: round;stroke-linejoin: round;stroke-miterlimit: 10.000000;fill: none;"></path>
  <path d="M1446.056534 734.774185C1446.056534 711.474579,1436.799423 689.132065,1420.325363 672.658005C1403.851303 656.183945,1381.508789 646.926834,1358.209183 646.926834C1334.909576 646.926834,1312.567062 656.183945,1296.093002 672.658005C1279.618942 689.132065,1270.361832 711.474579,1270.361832 734.774185C1270.361832 758.073792,1279.618942 780.416306,1296.093002 796.890366C1312.567062 813.364426,1334.909576 822.621536,1358.209183 822.621536C1381.508789 822.621536,1403.851303 813.364426,1420.325363 796.890366C1436.799423 780.416306,1446.056534 758.073792,1446.056534 734.774185Z" style="stroke:rgb(25.500488%,41.000366%,88.400269%); stroke-width: 2.500000;stroke-linecap: round;stroke-linejoin: round;stroke-miterlimit: 10.000000;fill: none;"></path>
  <path d="M1489.188675 599.927856C1489.188675 576.628250,1479.931564 554.285736,1463.457504 537.811676C1446.983444 521.337616,1424.640930 512.080505,1401.341324 512.080505C1378.041718 512.080505,1355.699203 521.337616,1339.225143 537.811676C1322.751083 554.285736,1313.493973 576.628250,1313.493973 599.927856C1313.493973 623.227463,1322.751083 645.569977,1339.225143 662.044037C1355.699203 678.518097,1378.041718 687.775208,1401.341324 687.775208C1424.640930 687.775208,1446.983444 678.518097,1463.457504 662.044037C1479.931564 645.569977,1489.188675 623.227463,1489.188675 599.927856Z" style="stroke:rgb(25.500488%,41.000366%,88.400269%); stroke-width: 2.500000;stroke-linecap: round;stroke-linejoin: round;stroke-miterlimit: 10.000000;fill: none;"></path>
  <path d="M1141.458481 1485.084015C1141.458481 1461.784409,1132.201370 1439.441895,1115.727310 1422.967834C1099.253250 1406.493774,1076.910736 1397.236664,1053.611130 1397.236664C1030.311523 1397.236664,1007.969009 1406.493774,991.494949 1422.967834C975.020889 1439.441895,965.763779 1461.784409,965.763779 1485.084015C965.763779 1508.383621,975.020889 1530.726135,991.494949 1547.200195C1007.969009 1563.674255,1030.311523 1572.931366,1053.611130 1572.931366C1076.910736 1572.931366,1099.253250 1563.674255,1115.727310 1547.200195C1132.201370 1530.726135,1141.458481 1508.383621,1141.458481 1485.084015Z" style="stroke:rgb(25.500488%,41.000366%,88.400269%); stroke-width: 2.500000;stroke-linecap: round;stroke-linejoin: round;stroke-miterlimit: 10.000000;fill: none;"></path>
  <path d="M1181.865662 1350.588028C1181.865662 1327.288422,1172.608551 1304.945908,1156.134491 1288.471848C1139.660431 1271.997787,1117.317917 1262.740677,1094.018311 1262.740677C1070.718704 1262.740677,1048.376190 1271.997787,1031.902130 1288.471848C1015.428070 1304.945908,1006.170959 1327.288422,1006.170959 1350.588028C1006.170959 1373.887634,1015.428070 1396.230148,1031.902130 1412.704208C1048.376190 1429.178268,1070.718704 1438.435379,1094.018311 1438.435379C1117.317917 1438.435379,1139.660431 1429.178268,1156.134491 1412.704208C1172.608551 1396.230148,1181.865662 1373.887634,1181.865662 1350.588028Z" style="stroke:rgb(25.500488%,41.000366%,88.400269%); stroke-width: 2.500000;stroke-linecap: round;stroke-linejoin: round;stroke-miterlimit: 10.000000;fill: none;"></path>
  <path d="M1202.886749 1198.198181C1202.886749 1174.898575,1193.629639 1152.556061,1177.155579 1136.082001C1160.681519 1119.607941,1138.339005 1110.350830,1115.039398 1110.350830C1091.739792 1110.350830,1069.397278 1119.607941,1052.923218 1136.082001C1036.449158 1152.556061,1027.192047 1174.898575,1027.192047 1198.198181C1027.192047 1221.497787,1036.449158 1243.840302,1052.923218 1260.314362C1069.397278 1276.788422,1091.739792 1286.045532,1115.039398 1286.045532C1138.339005 1286.045532,1160.681519 1276.788422,1177.155579 1260.314362C1193.629639 1243.840302,1202.886749 1221.497787,1202.886749 1198.198181Z" style="stroke:rgb(25.500488%,41.000366%,88.400269%); stroke-width: 2.500000;stroke-linecap: round;stroke-linejoin: round;stroke-miterlimit: 10.000000;fill: none;"></path>
  <path d="M1243.903809 1063.922775C1243.903809 1040.623169,1234.646698 1018.280655,1218.172638 1001.806595C1201.698578 985.332535,1179.356064 976.075424,1156.056458 976.075424C1132.756851 976.075424,1110.414337 985.332535,1093.940277 1001.806595C1077.466217 1018.280655,1068.209106 1040.623169,1068.209106 1063.922775C1068.209106 1087.222382,1077.466217 1109.564896,1093.940277 1126.038956C1110.414337 1142.513016,1132.756851 1151.770126,1156.056458 1151.770126C1179.356064 1151.770126,1201.698578 1142.513016,1218.172638 1126.038956C1234.646698 1109.564896,1243.903809 1087.222382,1243.903809 1063.922775Z" style="stroke:rgb(25.500488%,41.000366%,88.400269%); stroke-width: 2.500000;stroke-linecap: round;stroke-linejoin: round;stroke-miterlimit: 10.000000;fill: none;"></path>
  <path d="M1267.442230 910.598648C1267.442230 887.299042,1258.185120 864.956528,1241.711060 848.482468C1225.237000 832.008408,1202.894485 822.751297,1179.594879 822.751297C1156.295273 822.751297,1133.952759 832.008408,1117.478699 848.482468C1101.004639 864.956528,1091.747528 887.299042,1091.747528 910.598648C1091.747528 933.898254,1101.004639 956.240768,1117.478699 972.714828C1133.952759 989.188889,1156.295273 998.445999,1179.594879 998.445999C1202.894485 998.445999,1225.237000 989.188889,1241.711060 972.714828C1258.185120 956.240768,1267.442230 933.898254,1267.442230 910.598648Z" style="stroke:rgb(25.500488%,41.000366%,88.400269%); stroke-width: 2.500000;stroke-linecap: round;stroke-linejoin: round;stroke-miterlimit: 10.000000;fill: none;"></path>
  <path d="M1309.886642 775.337082C1309.886642 752.037476,1300.629532 729.694962,1284.155472 713.220901C1267.681412 696.746841,1245.338898 687.489731,1222.039291 687.489731C1198.739685 687.489731,1176.397171 696.746841,1159.923111 713.220901C1143.449051 729.694962,1134.191940 752.037476,1134.191940 775.337082C1134.191940 798.636688,1143.449051 820.979202,1159.923111 837.453262C1176.397171 853.927322,1198.739685 863.184433,1222.039291 863.184433C1245.338898 863.184433,1267.681412 853.927322,1284.155472 837.453262C1300.629532 820.979202,1309.886642 798.636688,1309.886642 775.337082Z" style="stroke:rgb(25.500488%,41.000366%,88.400269%); stroke-width: 2.500000;stroke-linecap: round;stroke-linejoin: round;stroke-miterlimit: 10.000000;fill: none;"></path>
  <path d="M1335.150864 622.519028C1335.150864 599.219421,1325.893753 576.876907,1309.419693 560.402847C1292.945633 543.928787,1270.603119 534.671677,1247.303513 534.671677C1224.003906 534.671677,1201.661392 543.928787,1185.187332 560.402847C1168.713272 576.876907,1159.456161 599.219421,1159.456161 622.519028C1159.456161 645.818634,1168.713272 668.161148,1185.187332 684.635208C1201.661392 701.109268,1224.003906 710.366379,1247.303513 710.366379C1270.603119 710.366379,1292.945633 701.109268,1309.419693 684.635208C1325.893753 668.161148,1335.150864 645.818634,1335.150864 622.519028Z" style="stroke:rgb(25.500488%,41.000366%,88.400269%); stroke-width: 2.500000;stroke-linecap: round;stroke-linejoin: round;stroke-miterlimit: 10.000000;fill: none;"></path>
  <path d="M1377.283859 488.010071C1377.283859 464.710464,1368.026749 442.367950,1351.552689 425.893890C1335.078629 409.419830,1312.736115 400.162720,1289.436508 400.162720C1266.136902 400.162720,1243.794388 409.419830,1227.320328 425.893890C1210.846268 442.367950,1201.589157 464.710464,1201.589157 488.010071C1201.589157 511.309677,1210.846268 533.652191,1227.320328 550.126251C1243.794388 566.600311,1266.136902 575.857422,1289.436508 575.857422C1312.736115 575.857422,1335.078629 566.600311,1351.552689 550.126251C1368.026749 533.652191,1377.283859 511.309677,1377.283859 488.010071Z" style="stroke:rgb(25.500488%,41.000366%,88.400269%); stroke-width: 2.500000;stroke-linecap: round;stroke-linejoin: round;stroke-miterlimit: 10.000000;fill: none;"></path>
  <path d="M949.984985 1613.766769C949.984985 1590.467163,940.727875 1568.124649,924.253815 1551.650589C907.779755 1535.176529,885.437241 1525.919418,862.137634 1525.919418C838.838028 1525.919418,816.495514 1535.176529,800.021454 1551.650589C783.547394 1568.124649,774.290283 1590.467163,774.290283 1613.766769C774.290283 1637.066376,783.547394 1659.408890,800.021454 1675.882950C816.495514 1692.357010,838.838028 1701.614120,862.137634 1701.614120C885.437241 1701.614120,907.779755 1692.357010,924.253815 1675.882950C940.727875 1659.408890,949.984985 1637.066376,949.984985 1613.766769Z" style="stroke:rgb(25.500488%,41.000366%,88.400269%); stroke-width: 2.500000;stroke-linecap: round;stroke-linejoin: round;stroke-miterlimit: 10.000000;fill: none;"></path>
  <path d="M1007.040344 1525.257629C1007.040344 1501.958023,997.783234 1479.615509,981.309174 1463.141449C964.835114 1446.667389,942.492599 1437.410278,919.192993 1437.410278C895.893387 1437.410278,873.550873 1446.667389,857.076813 1463.141449C840.602753 1479.615509,831.345642 1501.958023,831.345642 1525.257629C831.345642 1548.557236,840.602753 1570.899750,857.076813 1587.373810C873.550873 1603.847870,895.893387 1613.104980,919.192993 1613.104980C942.492599 1613.104980,964.835114 1603.847870,981.309174 1587.373810C997.783234 1570.899750,1007.040344 1548.557236,1007.040344 1525.257629Z" style="stroke:rgb(25.500488%,41.000366%,88.400269%); stroke-width: 2.500000;stroke-linecap: round;stroke-linejoin: round;stroke-miterlimit: 10.000000;fill: none;"></path>
  <path d="M1028.061432 1374.022644C1028.061432 1350.723038,1018.804321 1328.380524,1002.330261 1311.906464C985.856201 1295.432404,963.513687 1286.175293,940.214081 1286.175293C916.914474 1286.175293,894.571960 1295.432404,878.097900 1311.906464C861.623840 1328.380524,852.366730 1350.723038,852.366730 1374.022644C852.366730 1397.322250,861.623840 1419.664764,878.097900 1436.138824C894.571960 1452.612885,916.914474 1461.869995,940.214081 1461.869995C963.513687 1461.869995,985.856201 1452.612885,1002.330261 1436.138824C1018.804321 1419.664764,1028.061432 1397.322250,1028.061432 1374.022644Z" style="stroke:rgb(25.500488%,41.000366%,88.400269%); stroke-width: 2.500000;stroke-linecap: round;stroke-linejoin: round;stroke-miterlimit: 10.000000;fill: none;"></path>
  <path d="M1067.274826 1239.954865C1067.274826 1216.655258,1058.017715 1194.312744,1041.543655 1177.838684C1025.069595 1161.364624,1002.727081 1152.107513,979.427475 1152.107513C956.127869 1152.107513,933.785355 1161.364624,917.311295 1177.838684C900.837234 1194.312744,891.580124 1216.655258,891.580124 1239.954865C891.580124 1263.254471,900.837234 1285.596985,917.311295 1302.071045C933.785355 1318.545105,956.127869 1327.802216,979.427475 1327.802216C1002.727081 1327.802216,1025.069595 1318.545105,1041.543655 1302.071045C1058.017715 1285.596985,1067.274826 1263.254471,1067.274826 1239.954865Z" style="stroke:rgb(25.500488%,41.000366%,88.400269%); stroke-width: 2.500000;stroke-linecap: round;stroke-linejoin: round;stroke-miterlimit: 10.000000;fill: none;"></path>
  <path d="M1089.840057 1087.007034C1089.840057 1063.707428,1080.582947 1041.364914,1064.108887 1024.890854C1047.634827 1008.416794,1025.292313 999.159683,1001.992706 999.159683C978.693100 999.159683,956.350586 1008.416794,939.876526 1024.890854C923.402466 1041.364914,914.145355 1063.707428,914.145355 1087.007034C914.145355 1110.306641,923.402466 1132.649155,939.876526 1149.123215C956.350586 1165.597275,978.693100 1174.854385,1001.992706 1174.854385C1025.292313 1174.854385,1047.634827 1165.597275,1064.108887 1149.123215C1080.582947 1132.649155,1089.840057 1110.306641,1089.840057 1087.007034Z" style="stroke:rgb(25.500488%,41.000366%,88.400269%); stroke-width: 2.500000;stroke-linecap: round;stroke-linejoin: round;stroke-miterlimit: 10.000000;fill: none;"></path>
  <path d="M1131.843277 952.368317C1131.843277 929.068710,1122.586166 906.726196,1106.112106 890.252136C1089.638046 873.778076,1067.295532 864.520966,1043.995926 864.520966C1020.696320 864.520966,998.353806 873.778076,981.879745 890.252136C965.405685 906.726196,956.148575 929.068710,956.148575 952.368317C956.148575 975.667923,965.405685 998.010437,981.879745 1014.484497C998.353806 1030.958557,1020.696320 1040.215668,1043.995926 1040.215668C1067.295532 1040.215668,1089.638046 1030.958557,1106.112106 1014.484497C1122.586166 998.010437,1131.843277 975.667923,1131.843277 952.368317Z" style="stroke:rgb(25.500488%,41.000366%,88.400269%); stroke-width: 2.500000;stroke-linecap: round;stroke-linejoin: round;stroke-miterlimit: 10.000000;fill: none;"></path>
  <path d="M1156.095383 798.810623C1156.095383 775.511017,1146.838272 753.168503,1130.364212 736.694443C1113.890152 720.220383,1091.547638 710.963272,1068.248032 710.963272C1044.948425 710.963272,1022.605911 720.220383,1006.131851 736.694443C989.657791 753.168503,980.400681 775.511017,980.400681 798.810623C980.400681 822.110229,989.657791 844.452744,1006.131851 860.926804C1022.605911 877.400864,1044.948425 886.657974,1068.248032 886.657974C1091.547638 886.657974,1113.890152 877.400864,1130.364212 860.926804C1146.838272 844.452744,1156.095383 822.110229,1156.095383 798.810623Z" style="stroke:rgb(25.500488%,41.000366%,88.400269%); stroke-width: 2.500000;stroke-linecap: round;stroke-linejoin: round;stroke-miterlimit: 10.000000;fill: none;"></path>
  <path d="M1198.539795 663.562042C1198.539795 640.262436,1189.282684 617.919922,1172.808624 601.445862C1156.334564 584.971802,1133.992050 575.714691,1110.692444 575.714691C1087.392838 575.714691,1065.050323 584.971802,1048.576263 601.445862C1032.102203 617.919922,1022.845093 640.262436,1022.845093 663.562042C1022.845093 686.861649,1032.102203 709.204163,1048.576263 725.678223C1065.050323 742.152283,1087.392838 751.409393,1110.692444 751.409393C1133.992050 751.409393,1156.334564 742.152283,1172.808624 725.678223C1189.282684 709.204163,1198.539795 686.861649,1198.539795 663.562042Z" style="stroke:rgb(25.500488%,41.000366%,88.400269%); stroke-width: 2.500000;stroke-linecap: round;stroke-linejoin: round;stroke-miterlimit: 10.000000;fill: none;"></path>
  <path d="M1223.103317 510.990509C1223.103317 487.690903,1213.846207 465.348389,1197.372147 448.874329C1180.898087 432.400269,1158.555573 423.143158,1135.255966 423.143158C1111.956360 423.143158,1089.613846 432.400269,1073.139786 448.874329C1056.665726 465.348389,1047.408615 487.690903,1047.408615 510.990509C1047.408615 534.290115,1056.665726 556.632629,1073.139786 573.106689C1089.613846 589.580750,1111.956360 598.837860,1135.255966 598.837860C1158.555573 598.837860,1180.898087 589.580750,1197.372147 573.106689C1213.846207 556.632629,1223.103317 534.290115,1223.103317 510.990509Z" style="stroke:rgb(25.500488%,41.000366%,88.400269%); stroke-width: 2.500000;stroke-linecap: round;stroke-linejoin: round;stroke-miterlimit: 10.000000;fill: none;"></path>
  <path d="M1264.834061 377.701294C1264.834061 354.401688,1255.576950 332.059174,1239.102890 315.585114C1222.628830 299.111053,1200.286316 289.853943,1176.986710 289.853943C1153.687103 289.853943,1131.344589 299.111053,1114.870529 315.585114C1098.396469 332.059174,1089.139359 354.401688,1089.139359 377.701294C1089.139359 401.000900,1098.396469 423.343414,1114.870529 439.817474C1131.344589 456.291534,1153.687103 465.548645,1176.986710 465.548645C1200.286316 465.548645,1222.628830 456.291534,1239.102890 439.817474C1255.576950 423.343414,1264.834061 401.000900,1264.834061 377.701294Z" style="stroke:rgb(25.500488%,41.000366%,88.400269%); stroke-width: 2.500000;stroke-linecap: round;stroke-linejoin: round;stroke-miterlimit: 10.000000;fill: none;"></path>
  <path d="M845.294815 1533.717972C845.294815 1510.418365,836.037704 1488.075851,819.563644 1471.601791C803.089584 1455.127731,780.747070 1445.870621,757.447464 1445.870621C734.147858 1445.870621,711.805344 1455.127731,695.331284 1471.601791C678.857224 1488.075851,669.600113 1510.418365,669.600113 1533.717972C669.600113 1557.017578,678.857224 1579.360092,695.331284 1595.834152C711.805344 1612.308212,734.147858 1621.565323,757.447464 1621.565323C780.747070 1621.565323,803.089584 1612.308212,819.563644 1595.834152C836.037704 1579.360092,845.294815 1557.017578,845.294815 1533.717972Z" style="stroke:rgb(25.500488%,41.000366%,88.400269%); stroke-width: 2.500000;stroke-linecap: round;stroke-linejoin: round;stroke-miterlimit: 10.000000;fill: none;"></path>
  <path d="M891.852615 1413.897812C891.852615 1390.598206,882.595505 1368.255692,866.121445 1351.781631C849.647385 1335.307571,827.304871 1326.050461,804.005264 1326.050461C780.705658 1326.050461,758.363144 1335.307571,741.889084 1351.781631C725.415024 1368.255692,716.157913 1390.598206,716.157913 1413.897812C716.157913 1437.197418,725.415024 1459.539932,741.889084 1476.013992C758.363144 1492.488052,780.705658 1501.745163,804.005264 1501.745163C827.304871 1501.745163,849.647385 1492.488052,866.121445 1476.013992C882.595505 1459.539932,891.852615 1437.197418,891.852615 1413.897812Z" style="stroke:rgb(25.500488%,41.000366%,88.400269%); stroke-width: 2.500000;stroke-linecap: round;stroke-linejoin: round;stroke-miterlimit: 10.000000;fill: none;"></path>
  <path d="M913.872849 1262.273544C913.872849 1238.973938,904.615738 1216.631424,888.141678 1200.157364C871.667618 1183.683304,849.325104 1174.426193,826.025497 1174.426193C802.725891 1174.426193,780.383377 1183.683304,763.909317 1200.157364C747.435257 1216.631424,738.178146 1238.973938,738.178146 1262.273544C738.178146 1285.573151,747.435257 1307.915665,763.909317 1324.389725C780.383377 1340.863785,802.725891 1350.120895,826.025497 1350.120895C849.325104 1350.120895,871.667618 1340.863785,888.141678 1324.389725C904.615738 1307.915665,913.872849 1285.573151,913.872849 1262.273544Z" style="stroke:rgb(25.500488%,41.000366%,88.400269%); stroke-width: 2.500000;stroke-linecap: round;stroke-linejoin: round;stroke-miterlimit: 10.000000;fill: none;"></path>
  <path d="M954.617416 1127.634827C954.617416 1104.335220,945.360306 1081.992706,928.886246 1065.518646C912.412186 1049.044586,890.069672 1039.787476,866.770065 1039.787476C843.470459 1039.787476,821.127945 1049.044586,804.653885 1065.518646C788.179825 1081.992706,778.922714 1104.335220,778.922714 1127.634827C778.922714 1150.934433,788.179825 1173.276947,804.653885 1189.751007C821.127945 1206.225067,843.470459 1215.482178,866.770065 1215.482178C890.069672 1215.482178,912.412186 1206.225067,928.886246 1189.751007C945.360306 1173.276947,954.617416 1150.934433,954.617416 1127.634827Z" style="stroke:rgb(25.500488%,41.000366%,88.400269%); stroke-width: 2.500000;stroke-linecap: round;stroke-linejoin: round;stroke-miterlimit: 10.000000;fill: none;"></path>
  <path d="M978.168808 974.336639C978.168808 951.037033,968.911697 928.694519,952.437637 912.220459C935.963577 895.746399,913.621063 886.489288,890.321457 886.489288C867.021851 886.489288,844.679337 895.746399,828.205276 912.220459C811.731216 928.694519,802.474106 951.037033,802.474106 974.336639C802.474106 997.636246,811.731216 1019.978760,828.205276 1036.452820C844.679337 1052.926880,867.021851 1062.183990,890.321457 1062.183990C913.621063 1062.183990,935.963577 1052.926880,952.437637 1036.452820C968.911697 1019.978760,978.168808 997.636246,978.168808 974.336639Z" style="stroke:rgb(25.500488%,41.000366%,88.400269%); stroke-width: 2.500000;stroke-linecap: round;stroke-linejoin: round;stroke-miterlimit: 10.000000;fill: none;"></path>
  <path d="M1020.872742 839.464355C1020.872742 816.164749,1011.615631 793.822235,995.141571 777.348175C978.667511 760.874115,956.324997 751.617004,933.025391 751.617004C909.725784 751.617004,887.383270 760.874115,870.909210 777.348175C854.435150 793.822235,845.178040 816.164749,845.178040 839.464355C845.178040 862.763962,854.435150 885.106476,870.909210 901.580536C887.383270 918.054596,909.725784 927.311707,933.025391 927.311707C956.324997 927.311707,978.667511 918.054596,995.141571 901.580536C1011.615631 885.106476,1020.872742 862.763962,1020.872742 839.464355Z" style="stroke:rgb(25.500488%,41.000366%,88.400269%); stroke-width: 2.500000;stroke-linecap: round;stroke-linejoin: round;stroke-miterlimit: 10.000000;fill: none;"></path>
  <path d="M1045.137817 685.919647C1045.137817 662.620041,1035.880707 640.277527,1019.406647 623.803467C1002.932587 607.329407,980.590073 598.072296,957.290466 598.072296C933.990860 598.072296,911.648346 607.329407,895.174286 623.803467C878.700226 640.277527,869.443115 662.620041,869.443115 685.919647C869.443115 709.219254,878.700226 731.561768,895.174286 748.035828C911.648346 764.509888,933.990860 773.766998,957.290466 773.766998C980.590073 773.766998,1002.932587 764.509888,1019.406647 748.035828C1035.880707 731.561768,1045.137817 709.219254,1045.137817 685.919647Z" style="stroke:rgb(25.500488%,41.000366%,88.400269%); stroke-width: 2.500000;stroke-linecap: round;stroke-linejoin: round;stroke-miterlimit: 10.000000;fill: none;"></path>
  <path d="M1086.868546 550.917587C1086.868546 527.617981,1077.611435 505.275467,1061.137375 488.801407C1044.663315 472.327347,1022.320801 463.070236,999.021194 463.070236C975.721588 463.070236,953.379074 472.327347,936.905014 488.801407C920.430954 505.275467,911.173843 527.617981,911.173843 550.917587C911.173843 574.217194,920.430954 596.559708,936.905014 613.033768C953.379074 629.507828,975.721588 638.764938,999.021194 638.764938C1022.320801 638.764938,1044.663315 629.507828,1061.137375 613.033768C1077.611435 596.559708,1086.868546 574.217194,1086.868546 550.917587Z" style="stroke:rgb(25.500488%,41.000366%,88.400269%); stroke-width: 2.500000;stroke-linecap: round;stroke-linejoin: round;stroke-miterlimit: 10.000000;fill: none;"></path>
  <path d="M1110.432922 398.722382C1110.432922 375.422775,1101.175812 353.080261,1084.701752 336.606201C1068.227692 320.132141,1045.885178 310.875031,1022.585571 310.875031C999.285965 310.875031,976.943451 320.132141,960.469391 336.606201C943.995331 353.080261,934.738220 375.422775,934.738220 398.722382C934.738220 422.021988,943.995331 444.364502,960.469391 460.838562C976.943451 477.312622,999.285965 486.569733,1022.585571 486.569733C1045.885178 486.569733,1068.227692 477.312622,1084.701752 460.838562C1101.175812 444.364502,1110.432922 422.021988,1110.432922 398.722382Z" style="stroke:rgb(25.500488%,41.000366%,88.400269%); stroke-width: 2.500000;stroke-linecap: round;stroke-linejoin: round;stroke-miterlimit: 10.000000;fill: none;"></path>
  <path d="M1153.097931 269.702255C1153.097931 246.402649,1143.840820 224.060135,1127.366760 207.586075C1110.892700 191.112015,1088.550186 181.854904,1065.250580 181.854904C1041.950974 181.854904,1019.608459 191.112015,1003.134399 207.586075C986.660339 224.060135,977.403229 246.402649,977.403229 269.702255C977.403229 293.001862,986.660339 315.344376,1003.134399 331.818436C1019.608459 348.292496,1041.950974 357.549606,1065.250580 357.549606C1088.550186 357.549606,1110.892700 348.292496,1127.366760 331.818436C1143.840820 315.344376,1153.097931 293.001862,1153.097931 269.702255Z" style="stroke:rgb(25.500488%,41.000366%,88.400269%); stroke-width: 2.500000;stroke-linecap: round;stroke-linejoin: round;stroke-miterlimit: 10.000000;fill: none;"></path>
  <path d="M734.596771 1432.297745C734.596771 1408.998138,725.339661 1386.655624,708.865601 1370.181564C692.391541 1353.707504,670.049026 1344.450394,646.749420 1344.450394C623.449814 1344.450394,601.107300 1353.707504,584.633240 1370.181564C568.159180 1386.655624,558.902069 1408.998138,558.902069 1432.297745C558.902069 1455.597351,568.159180 1477.939865,584.633240 1494.413925C601.107300 1510.887985,623.449814 1520.145096,646.749420 1520.145096C670.049026 1520.145096,692.391541 1510.887985,708.865601 1494.413925C725.339661 1477.939865,734.596771 1455.597351,734.596771 1432.297745Z" style="stroke:rgb(25.500488%,41.000366%,88.400269%); stroke-width: 2.500000;stroke-linecap: round;stroke-linejoin: round;stroke-miterlimit: 10.000000;fill: none;"></path>
  <path d="M777.261780 1303.277618C777.261780 1279.978012,768.004669 1257.635498,751.530609 1241.161438C735.056549 1224.687378,712.714035 1215.430267,689.414429 1215.430267C666.114822 1215.430267,643.772308 1224.687378,627.298248 1241.161438C610.824188 1257.635498,601.567078 1279.978012,601.567078 1303.277618C601.567078 1326.577225,610.824188 1348.919739,627.298248 1365.393799C643.772308 1381.867859,666.114822 1391.124969,689.414429 1391.124969C712.714035 1391.124969,735.056549 1381.867859,751.530609 1365.393799C768.004669 1348.919739,777.261780 1326.577225,777.261780 1303.277618Z" style="stroke:rgb(25.500488%,41.000366%,88.400269%); stroke-width: 2.500000;stroke-linecap: round;stroke-linejoin: round;stroke-miterlimit: 10.000000;fill: none;"></path>
  <path d="M800.826157 1151.082413C800.826157 1127.782806,791.569046 1105.440292,775.094986 1088.966232C758.620926 1072.492172,736.278412 1063.235062,712.978806 1063.235062C689.679199 1063.235062,667.336685 1072.492172,650.862625 1088.966232C634.388565 1105.440292,625.131454 1127.782806,625.131454 1151.082413C625.131454 1174.382019,634.388565 1196.724533,650.862625 1213.198593C667.336685 1229.672653,689.679199 1238.929764,712.978806 1238.929764C736.278412 1238.929764,758.620926 1229.672653,775.094986 1213.198593C791.569046 1196.724533,800.826157 1174.382019,800.826157 1151.082413Z" style="stroke:rgb(25.500488%,41.000366%,88.400269%); stroke-width: 2.500000;stroke-linecap: round;stroke-linejoin: round;stroke-miterlimit: 10.000000;fill: none;"></path>
  <path d="M842.556885 1016.080353C842.556885 992.780746,833.299774 970.438232,816.825714 953.964172C800.351654 937.490112,778.009140 928.233002,754.709534 928.233002C731.409927 928.233002,709.067413 937.490112,692.593353 953.964172C676.119293 970.438232,666.862183 992.780746,666.862183 1016.080353C666.862183 1039.379959,676.119293 1061.722473,692.593353 1078.196533C709.067413 1094.670593,731.409927 1103.927704,754.709534 1103.927704C778.009140 1103.927704,800.351654 1094.670593,816.825714 1078.196533C833.299774 1061.722473,842.556885 1039.379959,842.556885 1016.080353Z" style="stroke:rgb(25.500488%,41.000366%,88.400269%); stroke-width: 2.500000;stroke-linecap: round;stroke-linejoin: round;stroke-miterlimit: 10.000000;fill: none;"></path>
  <path d="M866.821960 862.535645C866.821960 839.236038,857.564850 816.893524,841.090790 800.419464C824.616730 783.945404,802.274216 774.688293,778.974609 774.688293C755.675003 774.688293,733.332489 783.945404,716.858429 800.419464C700.384369 816.893524,691.127258 839.236038,691.127258 862.535645C691.127258 885.835251,700.384369 908.177765,716.858429 924.651825C733.332489 941.125885,755.675003 950.382996,778.974609 950.382996C802.274216 950.382996,824.616730 941.125885,841.090790 924.651825C857.564850 908.177765,866.821960 885.835251,866.821960 862.535645Z" style="stroke:rgb(25.500488%,41.000366%,88.400269%); stroke-width: 2.500000;stroke-linecap: round;stroke-linejoin: round;stroke-miterlimit: 10.000000;fill: none;"></path>
  <path d="M909.525894 727.663361C909.525894 704.363754,900.268784 682.021240,883.794724 665.547180C867.320663 649.073120,844.978149 639.816010,821.678543 639.816010C798.378937 639.816010,776.036423 649.073120,759.562363 665.547180C743.088303 682.021240,733.831192 704.363754,733.831192 727.663361C733.831192 750.962967,743.088303 773.305481,759.562363 789.779541C776.036423 806.253601,798.378937 815.510712,821.678543 815.510712C844.978149 815.510712,867.320663 806.253601,883.794724 789.779541C900.268784 773.305481,909.525894 750.962967,909.525894 727.663361Z" style="stroke:rgb(25.500488%,41.000366%,88.400269%); stroke-width: 2.500000;stroke-linecap: round;stroke-linejoin: round;stroke-miterlimit: 10.000000;fill: none;"></path>
  <path d="M933.077286 574.365173C933.077286 551.065567,923.820175 528.723053,907.346115 512.248993C890.872055 495.774933,868.529541 486.517822,845.229935 486.517822C821.930328 486.517822,799.587814 495.774933,783.113754 512.248993C766.639694 528.723053,757.382584 551.065567,757.382584 574.365173C757.382584 597.664780,766.639694 620.007294,783.113754 636.481354C799.587814 652.955414,821.930328 662.212524,845.229935 662.212524C868.529541 662.212524,890.872055 652.955414,907.346115 636.481354C923.820175 620.007294,933.077286 597.664780,933.077286 574.365173Z" style="stroke:rgb(25.500488%,41.000366%,88.400269%); stroke-width: 2.500000;stroke-linecap: round;stroke-linejoin: round;stroke-miterlimit: 10.000000;fill: none;"></path>
  <path d="M973.821854 439.726456C973.821854 416.426849,964.564743 394.084335,948.090683 377.610275C931.616623 361.136215,909.274109 351.879105,885.974503 351.879105C862.674896 351.879105,840.332382 361.136215,823.858322 377.610275C807.384262 394.084335,798.127151 416.426849,798.127151 439.726456C798.127151 463.026062,807.384262 485.368576,823.858322 501.842636C840.332382 518.316696,862.674896 527.573807,885.974503 527.573807C909.274109 527.573807,931.616623 518.316696,948.090683 501.842636C964.564743 485.368576,973.821854 463.026062,973.821854 439.726456Z" style="stroke:rgb(25.500488%,41.000366%,88.400269%); stroke-width: 2.500000;stroke-linecap: round;stroke-linejoin: round;stroke-miterlimit: 10.000000;fill: none;"></path>
  <path d="M995.842087 288.102188C995.842087 264.802582,986.584976 242.460068,970.110916 225.986008C953.636856 209.511948,931.294342 200.254837,907.994736 200.254837C884.695129 200.254837,862.352615 209.511948,845.878555 225.986008C829.404495 242.460068,820.147385 264.802582,820.147385 288.102188C820.147385 311.401794,829.404495 333.744308,845.878555 350.218369C862.352615 366.692429,884.695129 375.949539,907.994736 375.949539C931.294342 375.949539,953.636856 366.692429,970.110916 350.218369C986.584976 333.744308,995.842087 311.401794,995.842087 288.102188Z" style="stroke:rgb(25.500488%,41.000366%,88.400269%); stroke-width: 2.500000;stroke-linecap: round;stroke-linejoin: round;stroke-miterlimit: 10.000000;fill: none;"></path>
  <path d="M1042.399887 168.282028C1042.399887 144.982422,1033.142776 122.639908,1016.668716 106.165848C1000.194656 89.691788,977.852142 80.434677,954.552536 80.434677C931.252930 80.434677,908.910416 89.691788,892.436356 106.165848C875.962296 122.639908,866.705185 144.982422,866.705185 168.282028C866.705185 191.581635,875.962296 213.924149,892.436356 230.398209C908.910416 246.872269,931.252930 256.129379,954.552536 256.129379C977.852142 256.129379,1000.194656 246.872269,1016.668716 230.398209C1033.142776 213.924149,1042.399887 191.581635,1042.399887 168.282028Z" style="stroke:rgb(25.500488%,41.000366%,88.400269%); stroke-width: 2.500000;stroke-linecap: round;stroke-linejoin: round;stroke-miterlimit: 10.000000;fill: none;"></path>
  <path d="M622.860641 1324.298706C622.860641 1300.999100,613.603531 1278.656586,597.129471 1262.182526C580.655411 1245.708466,558.312897 1236.451355,535.013290 1236.451355C511.713684 1236.451355,489.371170 1245.708466,472.897110 1262.182526C456.423050 1278.656586,447.165939 1300.999100,447.165939 1324.298706C447.165939 1347.598312,456.423050 1369.940826,472.897110 1386.414886C489.371170 1402.888947,511.713684 1412.146057,535.013290 1412.146057C558.312897 1412.146057,580.655411 1402.888947,597.129471 1386.414886C613.603531 1369.940826,622.860641 1347.598312,622.860641 1324.298706Z" style="stroke:rgb(25.500488%,41.000366%,88.400269%); stroke-width: 2.500000;stroke-linecap: round;stroke-linejoin: round;stroke-miterlimit: 10.000000;fill: none;"></path>
  <path d="M664.591385 1191.009491C664.591385 1167.709885,655.334274 1145.367371,638.860214 1128.893311C622.386154 1112.419250,600.043640 1103.162140,576.744034 1103.162140C553.444427 1103.162140,531.101913 1112.419250,514.627853 1128.893311C498.153793 1145.367371,488.896683 1167.709885,488.896683 1191.009491C488.896683 1214.309097,498.153793 1236.651611,514.627853 1253.125671C531.101913 1269.599731,553.444427 1278.856842,576.744034 1278.856842C600.043640 1278.856842,622.386154 1269.599731,638.860214 1253.125671C655.334274 1236.651611,664.591385 1214.309097,664.591385 1191.009491Z" style="stroke:rgb(25.500488%,41.000366%,88.400269%); stroke-width: 2.500000;stroke-linecap: round;stroke-linejoin: round;stroke-miterlimit: 10.000000;fill: none;"></path>
  <path d="M689.154907 1038.437958C689.154907 1015.138351,679.897797 992.795837,663.423737 976.321777C646.949677 959.847717,624.607162 950.590607,601.307556 950.590607C578.007950 950.590607,555.665436 959.847717,539.191376 976.321777C522.717316 992.795837,513.460205 1015.138351,513.460205 1038.437958C513.460205 1061.737564,522.717316 1084.080078,539.191376 1100.554138C555.665436 1117.028198,578.007950 1126.285309,601.307556 1126.285309C624.607162 1126.285309,646.949677 1117.028198,663.423737 1100.554138C679.897797 1084.080078,689.154907 1061.737564,689.154907 1038.437958Z" style="stroke:rgb(25.500488%,41.000366%,88.400269%); stroke-width: 2.500000;stroke-linecap: round;stroke-linejoin: round;stroke-miterlimit: 10.000000;fill: none;"></path>
  <path d="M731.599319 903.189377C731.599319 879.889771,722.342209 857.547256,705.868149 841.073196C689.394089 824.599136,667.051575 815.342026,643.751968 815.342026C620.452362 815.342026,598.109848 824.599136,581.635788 841.073196C565.161728 857.547256,555.904617 879.889771,555.904617 903.189377C555.904617 926.488983,565.161728 948.831497,581.635788 965.305557C598.109848 981.779617,620.452362 991.036728,643.751968 991.036728C667.051575 991.036728,689.394089 981.779617,705.868149 965.305557C722.342209 948.831497,731.599319 926.488983,731.599319 903.189377Z" style="stroke:rgb(25.500488%,41.000366%,88.400269%); stroke-width: 2.500000;stroke-linecap: round;stroke-linejoin: round;stroke-miterlimit: 10.000000;fill: none;"></path>
  <path d="M755.851425 749.631683C755.851425 726.332077,746.594315 703.989563,730.120255 687.515503C713.646194 671.041443,691.303680 661.784332,668.004074 661.784332C644.704468 661.784332,622.361954 671.041443,605.887894 687.515503C589.413834 703.989563,580.156723 726.332077,580.156723 749.631683C580.156723 772.931290,589.413834 795.273804,605.887894 811.747864C622.361954 828.221924,644.704468 837.479034,668.004074 837.479034C691.303680 837.479034,713.646194 828.221924,730.120255 811.747864C746.594315 795.273804,755.851425 772.931290,755.851425 749.631683Z" style="stroke:rgb(25.500488%,41.000366%,88.400269%); stroke-width: 2.500000;stroke-linecap: round;stroke-linejoin: round;stroke-miterlimit: 10.000000;fill: none;"></path>
  <path d="M797.854645 614.992966C797.854645 591.693359,788.597534 569.350845,772.123474 552.876785C755.649414 536.402725,733.306900 527.145615,710.007294 527.145615C686.707687 527.145615,664.365173 536.402725,647.891113 552.876785C631.417053 569.350845,622.159943 591.693359,622.159943 614.992966C622.159943 638.292572,631.417053 660.635086,647.891113 677.109146C664.365173 693.583206,686.707687 702.840317,710.007294 702.840317C733.306900 702.840317,755.649414 693.583206,772.123474 677.109146C788.597534 660.635086,797.854645 638.292572,797.854645 614.992966Z" style="stroke:rgb(25.500488%,41.000366%,88.400269%); stroke-width: 2.500000;stroke-linecap: round;stroke-linejoin: round;stroke-miterlimit: 10.000000;fill: none;"></path>
  <path d="M820.419876 462.045135C820.419876 438.745529,811.162766 416.403015,794.688705 399.928955C778.214645 383.454895,755.872131 374.197784,732.572525 374.197784C709.272919 374.197784,686.930405 383.454895,670.456345 399.928955C653.982285 416.403015,644.725174 438.745529,644.725174 462.045135C644.725174 485.344742,653.982285 507.687256,670.456345 524.161316C686.930405 540.635376,709.272919 549.892487,732.572525 549.892487C755.872131 549.892487,778.214645 540.635376,794.688705 524.161316C811.162766 507.687256,820.419876 485.344742,820.419876 462.045135Z" style="stroke:rgb(25.500488%,41.000366%,88.400269%); stroke-width: 2.500000;stroke-linecap: round;stroke-linejoin: round;stroke-miterlimit: 10.000000;fill: none;"></path>
  <path d="M859.633270 327.977356C859.633270 304.677750,850.376160 282.335236,833.902100 265.861176C817.428040 249.387115,795.085526 240.130005,771.785919 240.130005C748.486313 240.130005,726.143799 249.387115,709.669739 265.861176C693.195679 282.335236,683.938568 304.677750,683.938568 327.977356C683.938568 351.276962,693.195679 373.619476,709.669739 390.093536C726.143799 406.567596,748.486313 415.824707,771.785919 415.824707C795.085526 415.824707,817.428040 406.567596,833.902100 390.093536C850.376160 373.619476,859.633270 351.276962,859.633270 327.977356Z" style="stroke:rgb(25.500488%,41.000366%,88.400269%); stroke-width: 2.500000;stroke-linecap: round;stroke-linejoin: round;stroke-miterlimit: 10.000000;fill: none;"></path>
  <path d="M880.654358 176.742371C880.654358 153.442764,871.397247 131.100250,854.923187 114.626190C838.449127 98.152130,816.106613 88.895020,792.807007 88.895020C769.507401 88.895020,747.164886 98.152130,730.690826 114.626190C714.216766 131.100250,704.959656 153.442764,704.959656 176.742371C704.959656 200.041977,714.216766 222.384491,730.690826 238.858551C747.164886 255.332611,769.507401 264.589722,792.807007 264.589722C816.106613 264.589722,838.449127 255.332611,854.923187 238.858551C871.397247 222.384491,880.654358 200.041977,880.654358 176.742371Z" style="stroke:rgb(25.500488%,41.000366%,88.400269%); stroke-width: 2.500000;stroke-linecap: round;stroke-linejoin: round;stroke-miterlimit: 10.000000;fill: none;"></path>
  <path d="M937.709717 88.233231C937.709717 64.933624,928.452606 42.591110,911.978546 26.117050C895.504486 9.642990,873.161972 0.385880,849.862366 0.385880C826.562759 0.385880,804.220245 9.642990,787.746185 26.117050C771.272125 42.591110,762.015015 64.933624,762.015015 88.233231C762.015015 111.532837,771.272125 133.875351,787.746185 150.349411C804.220245 166.823471,826.562759 176.080582,849.862366 176.080582C873.161972 176.080582,895.504486 166.823471,911.978546 150.349411C928.452606 133.875351,937.709717 111.532837,937.709717 88.233231Z" style="stroke:rgb(25.500488%,41.000366%,88.400269%); stroke-width: 2.500000;stroke-linecap: round;stroke-linejoin: round;stroke-miterlimit: 10.000000;fill: none;"></path>
  <path d="M510.410843 1213.989929C510.410843 1190.690323,501.153732 1168.347809,484.679672 1151.873749C468.205612 1135.399689,445.863098 1126.142578,422.563492 1126.142578C399.263885 1126.142578,376.921371 1135.399689,360.447311 1151.873749C343.973251 1168.347809,334.716141 1190.690323,334.716141 1213.989929C334.716141 1237.289536,343.973251 1259.632050,360.447311 1276.106110C376.921371 1292.580170,399.263885 1301.837280,422.563492 1301.837280C445.863098 1301.837280,468.205612 1292.580170,484.679672 1276.106110C501.153732 1259.632050,510.410843 1237.289536,510.410843 1213.989929Z" style="stroke:rgb(25.500488%,41.000366%,88.400269%); stroke-width: 2.500000;stroke-linecap: round;stroke-linejoin: round;stroke-miterlimit: 10.000000;fill: none;"></path>
  <path d="M552.543839 1079.480972C552.543839 1056.181366,543.286728 1033.838852,526.812668 1017.364792C510.338608 1000.890732,487.996094 991.633621,464.696487 991.633621C441.396881 991.633621,419.054367 1000.890732,402.580307 1017.364792C386.106247 1033.838852,376.849136 1056.181366,376.849136 1079.480972C376.849136 1102.780579,386.106247 1125.123093,402.580307 1141.597153C419.054367 1158.071213,441.396881 1167.328323,464.696487 1167.328323C487.996094 1167.328323,510.338608 1158.071213,526.812668 1141.597153C543.286728 1125.123093,552.543839 1102.780579,552.543839 1079.480972Z" style="stroke:rgb(25.500488%,41.000366%,88.400269%); stroke-width: 2.500000;stroke-linecap: round;stroke-linejoin: round;stroke-miterlimit: 10.000000;fill: none;"></path>
  <path d="M577.808060 926.662918C577.808060 903.363312,568.550949 881.020798,552.076889 864.546738C535.602829 848.072678,513.260315 838.815567,489.960709 838.815567C466.661102 838.815567,444.318588 848.072678,427.844528 864.546738C411.370468 881.020798,402.113358 903.363312,402.113358 926.662918C402.113358 949.962524,411.370468 972.305038,427.844528 988.779099C444.318588 1005.253159,466.661102 1014.510269,489.960709 1014.510269C513.260315 1014.510269,535.602829 1005.253159,552.076889 988.779099C568.550949 972.305038,577.808060 949.962524,577.808060 926.662918Z" style="stroke:rgb(25.500488%,41.000366%,88.400269%); stroke-width: 2.500000;stroke-linecap: round;stroke-linejoin: round;stroke-miterlimit: 10.000000;fill: none;"></path>
  <path d="M620.252472 791.401352C620.252472 768.101746,610.995361 745.759232,594.521301 729.285172C578.047241 712.811111,555.704727 703.554001,532.405121 703.554001C509.105515 703.554001,486.763000 712.811111,470.288940 729.285172C453.814880 745.759232,444.557770 768.101746,444.557770 791.401352C444.557770 814.700958,453.814880 837.043472,470.288940 853.517532C486.763000 869.991592,509.105515 879.248703,532.405121 879.248703C555.704727 879.248703,578.047241 869.991592,594.521301 853.517532C610.995361 837.043472,620.252472 814.700958,620.252472 791.401352Z" style="stroke:rgb(25.500488%,41.000366%,88.400269%); stroke-width: 2.500000;stroke-linecap: round;stroke-linejoin: round;stroke-miterlimit: 10.000000;fill: none;"></path>
  <path d="M643.790894 638.077225C643.790894 614.777618,634.533783 592.435104,618.059723 575.961044C601.585663 559.486984,579.243149 550.229874,555.943542 550.229874C532.643936 550.229874,510.301422 559.486984,493.827362 575.961044C477.353302 592.435104,468.096191 614.777618,468.096191 638.077225C468.096191 661.376831,477.353302 683.719345,493.827362 700.193405C510.301422 716.667465,532.643936 725.924576,555.943542 725.924576C579.243149 725.924576,601.585663 716.667465,618.059723 700.193405C634.533783 683.719345,643.790894 661.376831,643.790894 638.077225Z" style="stroke:rgb(25.500488%,41.000366%,88.400269%); stroke-width: 2.500000;stroke-linecap: round;stroke-linejoin: round;stroke-miterlimit: 10.000000;fill: none;"></path>
  <path d="M684.807953 503.801819C684.807953 480.502213,675.550842 458.159698,659.076782 441.685638C642.602722 425.211578,620.260208 415.954468,596.960602 415.954468C573.660995 415.954468,551.318481 425.211578,534.844421 441.685638C518.370361 458.159698,509.113251 480.502213,509.113251 503.801819C509.113251 527.101425,518.370361 549.443939,534.844421 565.917999C551.318481 582.392059,573.660995 591.649170,596.960602 591.649170C620.260208 591.649170,642.602722 582.392059,659.076782 565.917999C675.550842 549.443939,684.807953 527.101425,684.807953 503.801819Z" style="stroke:rgb(25.500488%,41.000366%,88.400269%); stroke-width: 2.500000;stroke-linecap: round;stroke-linejoin: round;stroke-miterlimit: 10.000000;fill: none;"></path>
  <path d="M705.829041 351.411972C705.829041 328.112366,696.571930 305.769852,680.097870 289.295792C663.623810 272.821732,641.281296 263.564621,617.981689 263.564621C594.682083 263.564621,572.339569 272.821732,555.865509 289.295792C539.391449 305.769852,530.134338 328.112366,530.134338 351.411972C530.134338 374.711578,539.391449 397.054092,555.865509 413.528152C572.339569 430.002213,594.682083 439.259323,617.981689 439.259323C641.281296 439.259323,663.623810 430.002213,680.097870 413.528152C696.571930 397.054092,705.829041 374.711578,705.829041 351.411972Z" style="stroke:rgb(25.500488%,41.000366%,88.400269%); stroke-width: 2.500000;stroke-linecap: round;stroke-linejoin: round;stroke-miterlimit: 10.000000;fill: none;"></path>
  <path d="M746.236221 216.915985C746.236221 193.616379,736.979111 171.273865,720.505051 154.799805C704.030991 138.325745,681.688477 129.068634,658.388870 129.068634C635.089264 129.068634,612.746750 138.325745,596.272690 154.799805C579.798630 171.273865,570.541519 193.616379,570.541519 216.915985C570.541519 240.215591,579.798630 262.558105,596.272690 279.032166C612.746750 295.506226,635.089264 304.763336,658.388870 304.763336C681.688477 304.763336,704.030991 295.506226,720.505051 279.032166C736.979111 262.558105,746.236221 240.215591,746.236221 216.915985Z" style="stroke:rgb(25.500488%,41.000366%,88.400269%); stroke-width: 2.500000;stroke-linecap: round;stroke-linejoin: round;stroke-miterlimit: 10.000000;fill: none;"></path>
  <path d="M398.506027 1102.072144C398.506027 1078.772537,389.248917 1056.430023,372.774857 1039.955963C356.300797 1023.481903,333.958282 1014.224792,310.658676 1014.224792C287.359070 1014.224792,265.016556 1023.481903,248.542496 1039.955963C232.068436 1056.430023,222.811325 1078.772537,222.811325 1102.072144C222.811325 1125.371750,232.068436 1147.714264,248.542496 1164.188324C265.016556 1180.662384,287.359070 1189.919495,310.658676 1189.919495C333.958282 1189.919495,356.300797 1180.662384,372.774857 1164.188324C389.248917 1147.714264,398.506027 1125.371750,398.506027 1102.072144Z" style="stroke:rgb(25.500488%,41.000366%,88.400269%); stroke-width: 2.500000;stroke-linecap: round;stroke-linejoin: round;stroke-miterlimit: 10.000000;fill: none;"></path>
  <path d="M441.638168 967.225815C441.638168 943.926208,432.381058 921.583694,415.906998 905.109634C399.432938 888.635574,377.090424 879.378464,353.790817 879.378464C330.491211 879.378464,308.148697 888.635574,291.674637 905.109634C275.200577 921.583694,265.943466 943.926208,265.943466 967.225815C265.943466 990.525421,275.200577 1012.867935,291.674637 1029.341995C308.148697 1045.816055,330.491211 1055.073166,353.790817 1055.073166C377.090424 1055.073166,399.432938 1045.816055,415.906998 1029.341995C432.381058 1012.867935,441.638168 990.525421,441.638168 967.225815Z" style="stroke:rgb(25.500488%,41.000366%,88.400269%); stroke-width: 2.500000;stroke-linecap: round;stroke-linejoin: round;stroke-miterlimit: 10.000000;fill: none;"></path>
  <path d="M466.681808 814.252045C466.681808 790.952438,457.424698 768.609924,440.950638 752.135864C424.476578 735.661804,402.134064 726.404694,378.834457 726.404694C355.534851 726.404694,333.192337 735.661804,316.718277 752.135864C300.244217 768.609924,290.987106 790.952438,290.987106 814.252045C290.987106 837.551651,300.244217 859.894165,316.718277 876.368225C333.192337 892.842285,355.534851 902.099396,378.834457 902.099396C402.134064 902.099396,424.476578 892.842285,440.950638 876.368225C457.424698 859.894165,466.681808 837.551651,466.681808 814.252045Z" style="stroke:rgb(25.500488%,41.000366%,88.400269%); stroke-width: 2.500000;stroke-linecap: round;stroke-linejoin: round;stroke-miterlimit: 10.000000;fill: none;"></path>
  <path d="M508.412552 679.224045C508.412552 655.924438,499.155441 633.581924,482.681381 617.107864C466.207321 600.633804,443.864807 591.376694,420.565201 591.376694C397.265594 591.376694,374.923080 600.633804,358.449020 617.107864C341.974960 633.581924,332.717850 655.924438,332.717850 679.224045C332.717850 702.523651,341.974960 724.866165,358.449020 741.340225C374.923080 757.814285,397.265594 767.071396,420.565201 767.071396C443.864807 767.071396,466.207321 757.814285,482.681381 741.340225C499.155441 724.866165,508.412552 702.523651,508.412552 679.224045Z" style="stroke:rgb(25.500488%,41.000366%,88.400269%); stroke-width: 2.500000;stroke-linecap: round;stroke-linejoin: round;stroke-miterlimit: 10.000000;fill: none;"></path>
  <path d="M530.964783 526.250259C530.964783 502.950653,521.707672 480.608139,505.233612 464.134079C488.759552 447.660019,466.417038 438.402908,443.117432 438.402908C419.817825 438.402908,397.475311 447.660019,381.001251 464.134079C364.527191 480.608139,355.270081 502.950653,355.270081 526.250259C355.270081 549.549866,364.527191 571.892380,381.001251 588.366440C397.475311 604.840500,419.817825 614.097610,443.117432 614.097610C466.417038 614.097610,488.759552 604.840500,505.233612 588.366440C521.707672 571.892380,530.964783 549.549866,530.964783 526.250259Z" style="stroke:rgb(25.500488%,41.000366%,88.400269%); stroke-width: 2.500000;stroke-linecap: round;stroke-linejoin: round;stroke-miterlimit: 10.000000;fill: none;"></path>
  <path d="M571.696381 392.091660C571.696381 368.792053,562.439270 346.449539,545.965210 329.975479C529.491150 313.501419,507.148636 304.244308,483.849030 304.244308C460.549423 304.244308,438.206909 313.501419,421.732849 329.975479C405.258789 346.449539,396.001678 368.792053,396.001678 392.091660C396.001678 415.391266,405.258789 437.733780,421.732849 454.207840C438.206909 470.681900,460.549423 479.939011,483.849030 479.939011C507.148636 479.939011,529.491150 470.681900,545.965210 454.207840C562.439270 437.733780,571.696381 415.391266,571.696381 392.091660Z" style="stroke:rgb(25.500488%,41.000366%,88.400269%); stroke-width: 2.500000;stroke-linecap: round;stroke-linejoin: round;stroke-miterlimit: 10.000000;fill: none;"></path>
  <path d="M287.600372 989.829956C287.600372 966.530350,278.343262 944.187836,261.869202 927.713776C245.395142 911.239716,223.052628 901.982605,199.753021 901.982605C176.453415 901.982605,154.110901 911.239716,137.636841 927.713776C121.162781 944.187836,111.905670 966.530350,111.905670 989.829956C111.905670 1013.129562,121.162781 1035.472076,137.636841 1051.946136C154.110901 1068.420197,176.453415 1077.677307,199.753021 1077.677307C223.052628 1077.677307,245.395142 1068.420197,261.869202 1051.946136C278.343262 1035.472076,287.600372 1013.129562,287.600372 989.829956Z" style="stroke:rgb(25.500488%,41.000366%,88.400269%); stroke-width: 2.500000;stroke-linecap: round;stroke-linejoin: round;stroke-miterlimit: 10.000000;fill: none;"></path>
  <path d="M331.303452 854.788986C331.303452 831.489380,322.046341 809.146866,305.572281 792.672806C289.098221 776.198746,266.755707 766.941635,243.456100 766.941635C220.156494 766.941635,197.813980 776.198746,181.339920 792.672806C164.865860 809.146866,155.608749 831.489380,155.608749 854.788986C155.608749 878.088593,164.865860 900.431107,181.339920 916.905167C197.813980 933.379227,220.156494 942.636337,243.456100 942.636337C266.755707 942.636337,289.098221 933.379227,305.572281 916.905167C322.046341 900.431107,331.303452 878.088593,331.303452 854.788986Z" style="stroke:rgb(25.500488%,41.000366%,88.400269%); stroke-width: 2.500000;stroke-linecap: round;stroke-linejoin: round;stroke-miterlimit: 10.000000;fill: none;"></path>
  <path d="M355.023544 701.581650C355.023544 678.282043,345.766434 655.939529,329.292374 639.465469C312.818314 622.991409,290.475800 613.734299,267.176193 613.734299C243.876587 613.734299,221.534073 622.991409,205.060013 639.465469C188.585953 655.939529,179.328842 678.282043,179.328842 701.581650C179.328842 724.881256,188.585953 747.223770,205.060013 763.697830C221.534073 780.171890,243.876587 789.429001,267.176193 789.429001C290.475800 789.429001,312.818314 780.171890,329.292374 763.697830C345.766434 747.223770,355.023544 724.881256,355.023544 701.581650Z" style="stroke:rgb(25.500488%,41.000366%,88.400269%); stroke-width: 2.500000;stroke-linecap: round;stroke-linejoin: round;stroke-miterlimit: 10.000000;fill: none;"></path>
  <path d="M396.416901 566.696381C396.416901 543.396774,387.159790 521.054260,370.685730 504.580200C354.211670 488.106140,331.869156 478.849030,308.569550 478.849030C285.269943 478.849030,262.927429 488.106140,246.453369 504.580200C229.979309 521.054260,220.722198 543.396774,220.722198 566.696381C220.722198 589.995987,229.979309 612.338501,246.453369 628.812561C262.927429 645.286621,285.269943 654.543732,308.569550 654.543732C331.869156 654.543732,354.211670 645.286621,370.685730 628.812561C387.159790 612.338501,396.416901 589.995987,396.416901 566.696381Z" style="stroke:rgb(25.500488%,41.000366%,88.400269%); stroke-width: 2.500000;stroke-linecap: round;stroke-linejoin: round;stroke-miterlimit: 10.000000;fill: none;"></path>
  <path d="M176.928284 878.392288C176.928284 855.092682,167.671173 832.750168,151.197113 816.276108C134.723053 799.802048,112.380539 790.544937,89.080933 790.544937C65.781326 790.544937,43.438812 799.802048,26.964752 816.276108C10.490692 832.750168,1.233582 855.092682,1.233582 878.392288C1.233582 901.691895,10.490692 924.034409,26.964752 940.508469C43.438812 956.982529,65.781326 966.239639,89.080933 966.239639C112.380539 966.239639,134.723053 956.982529,151.197113 940.508469C167.671173 924.034409,176.928284 901.691895,176.928284 878.392288Z" style="stroke:rgb(25.500488%,41.000366%,88.400269%); stroke-width: 2.500000;stroke-linecap: round;stroke-linejoin: round;stroke-miterlimit: 10.000000;fill: none;"></path>
  <path d="M220.644333 743.351303C220.644333 720.051697,211.387222 697.709183,194.913162 681.235123C178.439102 664.761063,156.096588 655.503952,132.796982 655.503952C109.497375 655.503952,87.154861 664.761063,70.680801 681.235123C54.206741 697.709183,44.949631 720.051697,44.949631 743.351303C44.949631 766.650909,54.206741 788.993423,70.680801 805.467484C87.154861 821.941544,109.497375 831.198654,132.796982 831.198654C156.096588 831.198654,178.439102 821.941544,194.913162 805.467484C211.387222 788.993423,220.644333 766.650909,220.644333 743.351303Z" style="stroke:rgb(25.500488%,41.000366%,88.400269%); stroke-width: 2.500000;stroke-linecap: round;stroke-linejoin: round;stroke-miterlimit: 10.000000;fill: none;"></path>
</svg>
