<?xml version="1.0"?>
<!-- Created by MetaPost 2.00 on 2022.03.02:1201 -->
<svg version="1.1" xmlns="http://www.w3.org/2000/svg" xmlns:xlink="http://www.w3.org/1999/xlink" width="1790.018463" height="1730.627426" viewBox="0 0 1790.018463 1730.627426">
<!-- Original BoundingBox: -909.581253 -855.705002 880.437210 874.922424 -->
  <path d="M1759.393524 874.000000L1596.986221 374.152451L1171.789459 65.233398L646.210541 65.233398L221.013779 374.152451L58.606476 874.000000L221.013779 1373.847549L646.210541 1682.766602L1171.789459 1682.766602L1596.986221 1373.847549L1759.393524 874.000000Z" style="fill: rgb(100.000000%,100.000000%,100.000000%);stroke: none;"></path>
  <path d="M1759.393524 874.000000L1596.986221 374.152451" style="stroke:rgb(0.000000%,0.000000%,0.000000%); stroke-width: 2.500000;stroke-linecap: round;stroke-linejoin: round;stroke-miterlimit: 10.000000;fill: none;"></path>
  <path d="M1596.986221 374.152451L1171.789459 65.233398" style="stroke:rgb(0.000000%,0.000000%,0.000000%); stroke-width: 2.500000;stroke-linecap: round;stroke-linejoin: round;stroke-miterlimit: 10.000000;fill: none;"></path>
  <path d="M1171.789459 65.233398L646.210541 65.233398" style="stroke:rgb(0.000000%,0.000000%,0.000000%); stroke-width: 2.500000;stroke-linecap: round;stroke-linejoin: round;stroke-miterlimit: 10.000000;fill: none;"></path>
  <path d="M646.210541 65.233398L221.013779 374.152451" style="stroke:rgb(0.000000%,0.000000%,0.000000%); stroke-width: 2.500000;stroke-linecap: round;stroke-linejoin: round;stroke-miterlimit: 10.000000;fill: none;"></path>
  <path d="M221.013779 374.152451L58.606476 874.000000" style="stroke:rgb(0.000000%,0.000000%,0.000000%); stroke-width: 2.500000;stroke-linecap: round;stroke-linejoin: round;stroke-miterlimit: 10.000000;fill: none;"></path>
  <path d="M58.606476 874.000000L221.013779 1373.847549" style="stroke:rgb(0.000000%,0.000000%,0.000000%); stroke-width: 2.500000;stroke-linecap: round;stroke-linejoin: round;stroke-miterlimit: 10.000000;fill: none;"></path>
  <path d="M221.013779 1373.847549L646.210541 1682.766602" style="stroke:rgb(0.000000%,0.000000%,0.000000%); stroke-width: 2.500000;stroke-linecap: round;stroke-linejoin: round;stroke-miterlimit: 10.000000;fill: none;"></path>
  <path d="M646.210541 1682.766602L1171.789459 1682.766602" style="stroke:rgb(0.000000%,0.000000%,0.000000%); stroke-width: 2.500000;stroke-linecap: round;stroke-linejoin: round;stroke-miterlimit: 10.000000;fill: none;"></path>
  <path d="M1171.789459 1682.766602L1596.986221 1373.847549" style="stroke:rgb(0.000000%,0.000000%,0.000000%); stroke-width: 2.500000;stroke-linecap: round;stroke-linejoin: round;stroke-miterlimit: 10.000000;fill: none;"></path>
  <path d="M1596.986221 1373.847549L1759.393524 874.000000" style="stroke:rgb(0.000000%,0.000000%,0.000000%); stroke-width: 2.500000;stroke-linecap: round;stroke-linejoin: round;stroke-miterlimit: 10.000000;fill: none;"></path>
  <path d="M718.629471 1627.839294C718.629471 1602.636490,708.616211 1578.468933,690.796478 1560.649216C672.976761 1542.829483,648.809204 1532.816223,623.606400 1532.816223C598.403595 1532.816223,574.236038 1542.829483,556.416321 1560.649216C538.596588 1578.468933,528.583328 1602.636490,528.583328 1627.839294C528.583328 1653.042099,538.596588 1677.209656,556.416321 1695.029373C574.236038 1712.849106,598.403595 1722.862366,623.606400 1722.862366C648.809204 1722.862366,672.976761 1712.849106,690.796478 1695.029373C708.616211 1677.209656,718.629471 1653.042099,718.629471 1627.839294Z" style="stroke:rgb(25.500488%,41.000366%,88.400269%); stroke-width: 2.500000;stroke-linecap: round;stroke-linejoin: round;stroke-miterlimit: 10.000000;fill: none;"></path>
  <path d="M876.261612 1631.615295C876.261612 1606.412491,866.248352 1582.244934,848.428619 1564.425217C830.608902 1546.605484,806.441345 1536.592224,781.238541 1536.592224C756.035736 1536.592224,731.868179 1546.605484,714.048462 1564.425217C696.228729 1582.244934,686.215469 1606.412491,686.215469 1631.615295C686.215469 1656.818100,696.228729 1680.985657,714.048462 1698.805374C731.868179 1716.625107,756.035736 1726.638367,781.238541 1726.638367C806.441345 1726.638367,830.608902 1716.625107,848.428619 1698.805374C866.248352 1680.985657,876.261612 1656.818100,876.261612 1631.615295Z" style="stroke:rgb(25.500488%,41.000366%,88.400269%); stroke-width: 2.500000;stroke-linecap: round;stroke-linejoin: round;stroke-miterlimit: 10.000000;fill: none;"></path>
  <path d="M1037.578949 1633.431931C1037.578949 1608.229126,1027.565689 1584.061569,1009.745956 1566.241852C991.926239 1548.422119,967.758682 1538.408859,942.555878 1538.408859C917.353073 1538.408859,893.185516 1548.422119,875.365799 1566.241852C857.546066 1584.061569,847.532806 1608.229126,847.532806 1633.431931C847.532806 1658.634735,857.546066 1682.802292,875.365799 1700.622009C893.185516 1718.441742,917.353073 1728.455002,942.555878 1728.455002C967.758682 1728.455002,991.926239 1718.441742,1009.745956 1700.622009C1027.565689 1682.802292,1037.578949 1658.634735,1037.578949 1633.431931Z" style="stroke:rgb(25.500488%,41.000366%,88.400269%); stroke-width: 2.500000;stroke-linecap: round;stroke-linejoin: round;stroke-miterlimit: 10.000000;fill: none;"></path>
  <path d="M1196.742264 1628.397263C1196.742264 1603.194458,1186.729004 1579.026901,1168.909271 1561.207184C1151.089554 1543.387451,1126.921997 1533.374191,1101.719193 1533.374191C1076.516388 1533.374191,1052.348831 1543.387451,1034.529114 1561.207184C1016.709381 1579.026901,1006.696121 1603.194458,1006.696121 1628.397263C1006.696121 1653.600067,1016.709381 1677.767624,1034.529114 1695.587341C1052.348831 1713.407074,1076.516388 1723.420334,1101.719193 1723.420334C1126.921997 1723.420334,1151.089554 1713.407074,1168.909271 1695.587341C1186.729004 1677.767624,1196.742264 1653.600067,1196.742264 1628.397263Z" style="stroke:rgb(25.500488%,41.000366%,88.400269%); stroke-width: 2.500000;stroke-linecap: round;stroke-linejoin: round;stroke-miterlimit: 10.000000;fill: none;"></path>
  <path d="M1353.881317 1611.658249C1353.881317 1586.455444,1343.868057 1562.287888,1326.048325 1544.468170C1308.228607 1526.648438,1284.061050 1516.635178,1258.858246 1516.635178C1233.655441 1516.635178,1209.487885 1526.648438,1191.668167 1544.468170C1173.848434 1562.287888,1163.835175 1586.455444,1163.835175 1611.658249C1163.835175 1636.861053,1173.848434 1661.028610,1191.668167 1678.848328C1209.487885 1696.668060,1233.655441 1706.681320,1258.858246 1706.681320C1284.061050 1706.681320,1308.228607 1696.668060,1326.048325 1678.848328C1343.868057 1661.028610,1353.881317 1636.861053,1353.881317 1611.658249Z" style="stroke:rgb(25.500488%,41.000366%,88.400269%); stroke-width: 2.500000;stroke-linecap: round;stroke-linejoin: round;stroke-miterlimit: 10.000000;fill: none;"></path>
  <path d="M598.445984 1509.848740C598.445984 1484.645935,588.432724 1460.478378,570.612991 1442.658661C552.793274 1424.838928,528.625717 1414.825668,503.422913 1414.825668C478.220108 1414.825668,454.052551 1424.838928,436.232834 1442.658661C418.413101 1460.478378,408.399841 1484.645935,408.399841 1509.848740C408.399841 1535.051544,418.413101 1559.219101,436.232834 1577.038818C454.052551 1594.858551,478.220108 1604.871811,503.422913 1604.871811C528.625717 1604.871811,552.793274 1594.858551,570.612991 1577.038818C588.432724 1559.219101,598.445984 1535.051544,598.445984 1509.848740Z" style="stroke:rgb(25.500488%,41.000366%,88.400269%); stroke-width: 2.500000;stroke-linecap: round;stroke-linejoin: round;stroke-miterlimit: 10.000000;fill: none;"></path>
  <path d="M773.401062 1493.005936C773.401062 1467.803131,763.387802 1443.635574,745.568069 1425.815857C727.748352 1407.996124,703.580795 1397.982864,678.377991 1397.982864C653.175186 1397.982864,629.007629 1407.996124,611.187912 1425.815857C593.368179 1443.635574,583.354919 1467.803131,583.354919 1493.005936C583.354919 1518.208740,593.368179 1542.376297,611.187912 1560.196014C629.007629 1578.015747,653.175186 1588.029007,678.377991 1588.029007C703.580795 1588.029007,727.748352 1578.015747,745.568069 1560.196014C763.387802 1542.376297,773.401062 1518.208740,773.401062 1493.005936Z" style="stroke:rgb(25.500488%,41.000366%,88.400269%); stroke-width: 2.500000;stroke-linecap: round;stroke-linejoin: round;stroke-miterlimit: 10.000000;fill: none;"></path>
  <path d="M940.401871 1493.460083C940.401871 1468.257278,930.388611 1444.089722,912.568878 1426.270004C894.749161 1408.450272,870.581604 1398.437012,845.378799 1398.437012C820.175995 1398.437012,796.008438 1408.450272,778.188721 1426.270004C760.368988 1444.089722,750.355728 1468.257278,750.355728 1493.460083C750.355728 1518.662888,760.368988 1542.830444,778.188721 1560.650162C796.008438 1578.469894,820.175995 1588.483154,845.378799 1588.483154C870.581604 1588.483154,894.749161 1578.469894,912.568878 1560.650162C930.388611 1542.830444,940.401871 1518.662888,940.401871 1493.460083Z" style="stroke:rgb(25.500488%,41.000366%,88.400269%); stroke-width: 2.500000;stroke-linecap: round;stroke-linejoin: round;stroke-miterlimit: 10.000000;fill: none;"></path>
  <path d="M1103.055710 1487.361374C1103.055710 1462.158569,1093.042450 1437.991013,1075.222717 1420.171295C1057.403000 1402.351562,1033.235443 1392.338303,1008.032639 1392.338303C982.829834 1392.338303,958.662277 1402.351562,940.842560 1420.171295C923.022827 1437.991013,913.009567 1462.158569,913.009567 1487.361374C913.009567 1512.564178,923.022827 1536.731735,940.842560 1554.551453C958.662277 1572.371185,982.829834 1582.384445,1008.032639 1582.384445C1033.235443 1582.384445,1057.403000 1572.371185,1075.222717 1554.551453C1093.042450 1536.731735,1103.055710 1512.564178,1103.055710 1487.361374Z" style="stroke:rgb(25.500488%,41.000366%,88.400269%); stroke-width: 2.500000;stroke-linecap: round;stroke-linejoin: round;stroke-miterlimit: 10.000000;fill: none;"></path>
  <path d="M1258.832306 1473.126740C1258.832306 1447.923935,1248.819046 1423.756378,1230.999313 1405.936661C1213.179596 1388.116928,1189.012039 1378.103668,1163.809235 1378.103668C1138.606430 1378.103668,1114.438873 1388.116928,1096.619156 1405.936661C1078.799423 1423.756378,1068.786163 1447.923935,1068.786163 1473.126740C1068.786163 1498.329544,1078.799423 1522.497101,1096.619156 1540.316818C1114.438873 1558.136551,1138.606430 1568.149811,1163.809235 1568.149811C1189.012039 1568.149811,1213.179596 1558.136551,1230.999313 1540.316818C1248.819046 1522.497101,1258.832306 1498.329544,1258.832306 1473.126740Z" style="stroke:rgb(25.500488%,41.000366%,88.400269%); stroke-width: 2.500000;stroke-linecap: round;stroke-linejoin: round;stroke-miterlimit: 10.000000;fill: none;"></path>
  <path d="M1422.602081 1466.755539C1422.602081 1441.552734,1412.588821 1417.385178,1394.769089 1399.565460C1376.949371 1381.745728,1352.781815 1371.732468,1327.579010 1371.732468C1302.376205 1371.732468,1278.208649 1381.745728,1260.388931 1399.565460C1242.569199 1417.385178,1232.555939 1441.552734,1232.555939 1466.755539C1232.555939 1491.958344,1242.569199 1516.125900,1260.388931 1533.945618C1278.208649 1551.765350,1302.376205 1561.778610,1327.579010 1561.778610C1352.781815 1561.778610,1376.949371 1551.765350,1394.769089 1533.945618C1412.588821 1516.125900,1422.602081 1491.958344,1422.602081 1466.755539Z" style="stroke:rgb(25.500488%,41.000366%,88.400269%); stroke-width: 2.500000;stroke-linecap: round;stroke-linejoin: round;stroke-miterlimit: 10.000000;fill: none;"></path>
  <path d="M1575.199554 1439.207535C1575.199554 1414.004730,1565.186295 1389.837173,1547.366562 1372.017456C1529.546844 1354.197723,1505.379288 1344.184464,1480.176483 1344.184464C1454.973679 1344.184464,1430.806122 1354.197723,1412.986404 1372.017456C1395.166672 1389.837173,1385.153412 1414.004730,1385.153412 1439.207535C1385.153412 1464.410339,1395.166672 1488.577896,1412.986404 1506.397614C1430.806122 1524.217346,1454.973679 1534.230606,1480.176483 1534.230606C1505.379288 1534.230606,1529.546844 1524.217346,1547.366562 1506.397614C1565.186295 1488.577896,1575.199554 1464.410339,1575.199554 1439.207535Z" style="stroke:rgb(25.500488%,41.000366%,88.400269%); stroke-width: 2.500000;stroke-linecap: round;stroke-linejoin: round;stroke-miterlimit: 10.000000;fill: none;"></path>
  <path d="M442.215240 1437.274109C442.215240 1412.071304,432.201981 1387.903748,414.382248 1370.084030C396.562531 1352.264297,372.394974 1342.251038,347.192169 1342.251038C321.989365 1342.251038,297.821808 1352.264297,280.002090 1370.084030C262.182358 1387.903748,252.169098 1412.071304,252.169098 1437.274109C252.169098 1462.476913,262.182358 1486.644470,280.002090 1504.464188C297.821808 1522.283920,321.989365 1532.297180,347.192169 1532.297180C372.394974 1532.297180,396.562531 1522.283920,414.382248 1504.464188C432.201981 1486.644470,442.215240 1462.476913,442.215240 1437.274109Z" style="stroke:rgb(25.500488%,41.000366%,88.400269%); stroke-width: 2.500000;stroke-linecap: round;stroke-linejoin: round;stroke-miterlimit: 10.000000;fill: none;"></path>
  <path d="M557.818207 1361.040268C557.818207 1335.837463,547.804947 1311.669907,529.985214 1293.850189C512.165497 1276.030457,487.997940 1266.017197,462.795135 1266.017197C437.592331 1266.017197,413.424774 1276.030457,395.605057 1293.850189C377.785324 1311.669907,367.772064 1335.837463,367.772064 1361.040268C367.772064 1386.243073,377.785324 1410.410629,395.605057 1428.230347C413.424774 1446.050079,437.592331 1456.063339,462.795135 1456.063339C487.997940 1456.063339,512.165497 1446.050079,529.985214 1428.230347C547.804947 1410.410629,557.818207 1386.243073,557.818207 1361.040268Z" style="stroke:rgb(25.500488%,41.000366%,88.400269%); stroke-width: 2.500000;stroke-linecap: round;stroke-linejoin: round;stroke-miterlimit: 10.000000;fill: none;"></path>
  <path d="M698.750275 1371.810318C698.750275 1346.607513,688.737015 1322.439957,670.917282 1304.620239C653.097565 1286.800507,628.930008 1276.787247,603.727203 1276.787247C578.524399 1276.787247,554.356842 1286.800507,536.537125 1304.620239C518.717392 1322.439957,508.704132 1346.607513,508.704132 1371.810318C508.704132 1397.013123,518.717392 1421.180679,536.537125 1439.000397C554.356842 1456.820129,578.524399 1466.833389,603.727203 1466.833389C628.930008 1466.833389,653.097565 1456.820129,670.917282 1439.000397C688.737015 1421.180679,698.750275 1397.013123,698.750275 1371.810318Z" style="stroke:rgb(25.500488%,41.000366%,88.400269%); stroke-width: 2.500000;stroke-linecap: round;stroke-linejoin: round;stroke-miterlimit: 10.000000;fill: none;"></path>
  <path d="M857.913589 1352.839447C857.913589 1327.636642,847.900330 1303.469086,830.080597 1285.649368C812.260880 1267.829636,788.093323 1257.816376,762.890518 1257.816376C737.687714 1257.816376,713.520157 1267.829636,695.700439 1285.649368C677.880707 1303.469086,667.867447 1327.636642,667.867447 1352.839447C667.867447 1378.042252,677.880707 1402.209808,695.700439 1420.029526C713.520157 1437.849258,737.687714 1447.862518,762.890518 1447.862518C788.093323 1447.862518,812.260880 1437.849258,830.080597 1420.029526C847.900330 1402.209808,857.913589 1378.042252,857.913589 1352.839447Z" style="stroke:rgb(25.500488%,41.000366%,88.400269%); stroke-width: 2.500000;stroke-linecap: round;stroke-linejoin: round;stroke-miterlimit: 10.000000;fill: none;"></path>
  <path d="M1020.775055 1346.351456C1020.775055 1321.148651,1010.761795 1296.981094,992.942062 1279.161377C975.122345 1261.341644,950.954788 1251.328384,925.751984 1251.328384C900.549179 1251.328384,876.381622 1261.341644,858.561905 1279.161377C840.742172 1296.981094,830.728912 1321.148651,830.728912 1346.351456C830.728912 1371.554260,840.742172 1395.721817,858.561905 1413.541534C876.381622 1431.361267,900.549179 1441.374527,925.751984 1441.374527C950.954788 1441.374527,975.122345 1431.361267,992.942062 1413.541534C1010.761795 1395.721817,1020.775055 1371.554260,1020.775055 1346.351456Z" style="stroke:rgb(25.500488%,41.000366%,88.400269%); stroke-width: 2.500000;stroke-linecap: round;stroke-linejoin: round;stroke-miterlimit: 10.000000;fill: none;"></path>
  <path d="M1176.927948 1331.480988C1176.927948 1306.278183,1166.914688 1282.110626,1149.094955 1264.290909C1131.275238 1246.471176,1107.107681 1236.457916,1081.904877 1236.457916C1056.702072 1236.457916,1032.534515 1246.471176,1014.714798 1264.290909C996.895065 1282.110626,986.881805 1306.278183,986.881805 1331.480988C986.881805 1356.683792,996.895065 1380.851349,1014.714798 1398.671066C1032.534515 1416.490799,1056.702072 1426.504059,1081.904877 1426.504059C1107.107681 1426.504059,1131.275238 1416.490799,1149.094955 1398.671066C1166.914688 1380.851349,1176.927948 1356.683792,1176.927948 1331.480988Z" style="stroke:rgb(25.500488%,41.000366%,88.400269%); stroke-width: 2.500000;stroke-linecap: round;stroke-linejoin: round;stroke-miterlimit: 10.000000;fill: none;"></path>
  <path d="M1339.361206 1326.822617C1339.361206 1301.619812,1329.347946 1277.452255,1311.528214 1259.632538C1293.708496 1241.812805,1269.540939 1231.799545,1244.338135 1231.799545C1219.135330 1231.799545,1194.967773 1241.812805,1177.148056 1259.632538C1159.328323 1277.452255,1149.315063 1301.619812,1149.315063 1326.822617C1149.315063 1352.025421,1159.328323 1376.192978,1177.148056 1394.012695C1194.967773 1411.832428,1219.135330 1421.845688,1244.338135 1421.845688C1269.540939 1421.845688,1293.708496 1411.832428,1311.528214 1394.012695C1329.347946 1376.192978,1339.361206 1352.025421,1339.361206 1326.822617Z" style="stroke:rgb(25.500488%,41.000366%,88.400269%); stroke-width: 2.500000;stroke-linecap: round;stroke-linejoin: round;stroke-miterlimit: 10.000000;fill: none;"></path>
  <path d="M1489.648956 1303.881088C1489.648956 1278.678284,1479.635696 1254.510727,1461.815964 1236.691010C1443.996246 1218.871277,1419.828690 1208.858017,1394.625885 1208.858017C1369.423080 1208.858017,1345.255524 1218.871277,1327.435806 1236.691010C1309.616074 1254.510727,1299.602814 1278.678284,1299.602814 1303.881088C1299.602814 1329.083893,1309.616074 1353.251450,1327.435806 1371.071167C1345.255524 1388.890900,1369.423080 1398.904160,1394.625885 1398.904160C1419.828690 1398.904160,1443.996246 1388.890900,1461.815964 1371.071167C1479.635696 1353.251450,1489.648956 1329.083893,1489.648956 1303.881088Z" style="stroke:rgb(25.500488%,41.000366%,88.400269%); stroke-width: 2.500000;stroke-linecap: round;stroke-linejoin: round;stroke-miterlimit: 10.000000;fill: none;"></path>
  <path d="M1649.733566 1302.453735C1649.733566 1277.250931,1639.720306 1253.083374,1621.900574 1235.263657C1604.080856 1217.443924,1579.913300 1207.430664,1554.710495 1207.430664C1529.507690 1207.430664,1505.340134 1217.443924,1487.520416 1235.263657C1469.700684 1253.083374,1459.687424 1277.250931,1459.687424 1302.453735C1459.687424 1327.656540,1469.700684 1351.824097,1487.520416 1369.643814C1505.340134 1387.463547,1529.507690 1397.476807,1554.710495 1397.476807C1579.913300 1397.476807,1604.080856 1387.463547,1621.900574 1369.643814C1639.720306 1351.824097,1649.733566 1327.656540,1649.733566 1302.453735Z" style="stroke:rgb(25.500488%,41.000366%,88.400269%); stroke-width: 2.500000;stroke-linecap: round;stroke-linejoin: round;stroke-miterlimit: 10.000000;fill: none;"></path>
  <path d="M325.522293 1310.927048C325.522293 1285.724243,315.509033 1261.556686,297.689301 1243.736969C279.869583 1225.917236,255.702026 1215.903976,230.499222 1215.903976C205.296417 1215.903976,181.128860 1225.917236,163.309143 1243.736969C145.489410 1261.556686,135.476151 1285.724243,135.476151 1310.927048C135.476151 1336.129852,145.489410 1360.297409,163.309143 1378.117126C181.128860 1395.936859,205.296417 1405.950119,230.499222 1405.950119C255.702026 1405.950119,279.869583 1395.936859,297.689301 1378.117126C315.509033 1360.297409,325.522293 1336.129852,325.522293 1310.927048Z" style="stroke:rgb(25.500488%,41.000366%,88.400269%); stroke-width: 2.500000;stroke-linecap: round;stroke-linejoin: round;stroke-miterlimit: 10.000000;fill: none;"></path>
  <path d="M441.112289 1255.714264C441.112289 1230.511459,431.099030 1206.343903,413.279297 1188.524185C395.459579 1170.704453,371.292023 1160.691193,346.089218 1160.691193C320.886414 1160.691193,296.718857 1170.704453,278.899139 1188.524185C261.079407 1206.343903,251.066147 1230.511459,251.066147 1255.714264C251.066147 1280.917068,261.079407 1305.084625,278.899139 1322.904343C296.718857 1340.724075,320.886414 1350.737335,346.089218 1350.737335C371.292023 1350.737335,395.459579 1340.724075,413.279297 1322.904343C431.099030 1305.084625,441.112289 1280.917068,441.112289 1255.714264Z" style="stroke:rgb(25.500488%,41.000366%,88.400269%); stroke-width: 2.500000;stroke-linecap: round;stroke-linejoin: round;stroke-miterlimit: 10.000000;fill: none;"></path>
  <path d="M608.761887 1225.648941C608.761887 1200.446136,598.748627 1176.278580,580.928894 1158.458862C563.109177 1140.639130,538.941620 1130.625870,513.738815 1130.625870C488.536011 1130.625870,464.368454 1140.639130,446.548737 1158.458862C428.729004 1176.278580,418.715744 1200.446136,418.715744 1225.648941C418.715744 1250.851746,428.729004 1275.019302,446.548737 1292.839020C464.368454 1310.658752,488.536011 1320.672012,513.738815 1320.672012C538.941620 1320.672012,563.109177 1310.658752,580.928894 1292.839020C598.748627 1275.019302,608.761887 1250.851746,608.761887 1225.648941Z" style="stroke:rgb(25.500488%,41.000366%,88.400269%); stroke-width: 2.500000;stroke-linecap: round;stroke-linejoin: round;stroke-miterlimit: 10.000000;fill: none;"></path>
  <path d="M762.060059 1217.136688C762.060059 1191.933884,752.046799 1167.766327,734.227066 1149.946609C716.407349 1132.126877,692.239792 1122.113617,667.036987 1122.113617C641.834183 1122.113617,617.666626 1132.126877,599.846909 1149.946609C582.027176 1167.766327,572.013916 1191.933884,572.013916 1217.136688C572.013916 1242.339493,582.027176 1266.507050,599.846909 1284.326767C617.666626 1302.146500,641.834183 1312.159760,667.036987 1312.159760C692.239792 1312.159760,716.407349 1302.146500,734.227066 1284.326767C752.046799 1266.507050,762.060059 1242.339493,762.060059 1217.136688Z" style="stroke:rgb(25.500488%,41.000366%,88.400269%); stroke-width: 2.500000;stroke-linecap: round;stroke-linejoin: round;stroke-miterlimit: 10.000000;fill: none;"></path>
  <path d="M927.179352 1206.288773C927.179352 1181.085968,917.166092 1156.918411,899.346359 1139.098694C881.526642 1121.278961,857.359085 1111.265701,832.156281 1111.265701C806.953476 1111.265701,782.785919 1121.278961,764.966202 1139.098694C747.146469 1156.918411,737.133209 1181.085968,737.133209 1206.288773C737.133209 1231.491577,747.146469 1255.659134,764.966202 1273.478851C782.785919 1291.298584,806.953476 1301.311844,832.156281 1301.311844C857.359085 1301.311844,881.526642 1291.298584,899.346359 1273.478851C917.166092 1255.659134,927.179352 1231.491577,927.179352 1206.288773Z" style="stroke:rgb(25.500488%,41.000366%,88.400269%); stroke-width: 2.500000;stroke-linecap: round;stroke-linejoin: round;stroke-miterlimit: 10.000000;fill: none;"></path>
  <path d="M1085.525177 1193.455536C1085.525177 1168.252731,1075.511917 1144.085175,1057.692184 1126.265457C1039.872467 1108.445724,1015.704910 1098.432465,990.502106 1098.432465C965.299301 1098.432465,941.131744 1108.445724,923.312027 1126.265457C905.492294 1144.085175,895.479034 1168.252731,895.479034 1193.455536C895.479034 1218.658340,905.492294 1242.825897,923.312027 1260.645615C941.131744 1278.465347,965.299301 1288.478607,990.502106 1288.478607C1015.704910 1288.478607,1039.872467 1278.465347,1057.692184 1260.645615C1075.511917 1242.825897,1085.525177 1218.658340,1085.525177 1193.455536Z" style="stroke:rgb(25.500488%,41.000366%,88.400269%); stroke-width: 2.500000;stroke-linecap: round;stroke-linejoin: round;stroke-miterlimit: 10.000000;fill: none;"></path>
  <path d="M1249.943756 1185.099014C1249.943756 1159.896210,1239.930496 1135.728653,1222.110764 1117.908936C1204.291046 1100.089203,1180.123489 1090.075943,1154.920685 1090.075943C1129.717880 1090.075943,1105.550323 1100.089203,1087.730606 1117.908936C1069.910873 1135.728653,1059.897614 1159.896210,1059.897614 1185.099014C1059.897614 1210.301819,1069.910873 1234.469376,1087.730606 1252.289093C1105.550323 1270.108826,1129.717880 1280.122086,1154.920685 1280.122086C1180.123489 1280.122086,1204.291046 1270.108826,1222.110764 1252.289093C1239.930496 1234.469376,1249.943756 1210.301819,1249.943756 1185.099014Z" style="stroke:rgb(25.500488%,41.000366%,88.400269%); stroke-width: 2.500000;stroke-linecap: round;stroke-linejoin: round;stroke-miterlimit: 10.000000;fill: none;"></path>
  <path d="M1399.115570 1164.194717C1399.115570 1138.991913,1389.102310 1114.824356,1371.282578 1097.004639C1353.462860 1079.184906,1329.295303 1069.171646,1304.092499 1069.171646C1278.889694 1069.171646,1254.722137 1079.184906,1236.902420 1097.004639C1219.082687 1114.824356,1209.069427 1138.991913,1209.069427 1164.194717C1209.069427 1189.397522,1219.082687 1213.565079,1236.902420 1231.384796C1254.722137 1249.204529,1278.889694 1259.217789,1304.092499 1259.217789C1329.295303 1259.217789,1353.462860 1249.204529,1371.282578 1231.384796C1389.102310 1213.565079,1399.115570 1189.397522,1399.115570 1164.194717Z" style="stroke:rgb(25.500488%,41.000366%,88.400269%); stroke-width: 2.500000;stroke-linecap: round;stroke-linejoin: round;stroke-miterlimit: 10.000000;fill: none;"></path>
  <path d="M1562.444168 1157.161728C1562.444168 1131.958923,1552.430908 1107.791367,1534.611176 1089.971649C1516.791458 1072.151917,1492.623901 1062.138657,1467.421097 1062.138657C1442.218292 1062.138657,1418.050735 1072.151917,1400.231018 1089.971649C1382.411285 1107.791367,1372.398026 1131.958923,1372.398026 1157.161728C1372.398026 1182.364532,1382.411285 1206.532089,1400.231018 1224.351807C1418.050735 1242.171539,1442.218292 1252.184799,1467.421097 1252.184799C1492.623901 1252.184799,1516.791458 1242.171539,1534.611176 1224.351807C1552.430908 1206.532089,1562.444168 1182.364532,1562.444168 1157.161728Z" style="stroke:rgb(25.500488%,41.000366%,88.400269%); stroke-width: 2.500000;stroke-linecap: round;stroke-linejoin: round;stroke-miterlimit: 10.000000;fill: none;"></path>
  <path d="M1709.604706 1160.859894C1709.604706 1135.657089,1699.591446 1111.489532,1681.771713 1093.669815C1663.951996 1075.850082,1639.784439 1065.836823,1614.581635 1065.836823C1589.378830 1065.836823,1565.211273 1075.850082,1547.391556 1093.669815C1529.571823 1111.489532,1519.558563 1135.657089,1519.558563 1160.859894C1519.558563 1186.062698,1529.571823 1210.230255,1547.391556 1228.049973C1565.211273 1245.869705,1589.378830 1255.882965,1614.581635 1255.882965C1639.784439 1255.882965,1663.951996 1245.869705,1681.771713 1228.049973C1699.591446 1210.230255,1709.604706 1186.062698,1709.604706 1160.859894Z" style="stroke:rgb(25.500488%,41.000366%,88.400269%); stroke-width: 2.500000;stroke-linecap: round;stroke-linejoin: round;stroke-miterlimit: 10.000000;fill: none;"></path>
  <path d="M315.193420 1149.648651C315.193420 1124.445847,305.180161 1100.278290,287.360428 1082.458572C269.540710 1064.638840,245.373154 1054.625580,220.170349 1054.625580C194.967545 1054.625580,170.799988 1064.638840,152.980270 1082.458572C135.160538 1100.278290,125.147278 1124.445847,125.147278 1149.648651C125.147278 1174.851456,135.160538 1199.019012,152.980270 1216.838730C170.799988 1234.658463,194.967545 1244.671722,220.170349 1244.671722C245.373154 1244.671722,269.540710 1234.658463,287.360428 1216.838730C305.180161 1199.019012,315.193420 1174.851456,315.193420 1149.648651Z" style="stroke:rgb(25.500488%,41.000366%,88.400269%); stroke-width: 2.500000;stroke-linecap: round;stroke-linejoin: round;stroke-miterlimit: 10.000000;fill: none;"></path>
  <path d="M485.126785 1109.838348C485.126785 1084.635544,475.113525 1060.467987,457.293793 1042.648270C439.474075 1024.828537,415.306519 1014.815277,390.103714 1014.815277C364.900909 1014.815277,340.733353 1024.828537,322.913635 1042.648270C305.093903 1060.467987,295.080643 1084.635544,295.080643 1109.838348C295.080643 1135.041153,305.093903 1159.208710,322.913635 1177.028427C340.733353 1194.848160,364.900909 1204.861420,390.103714 1204.861420C415.306519 1204.861420,439.474075 1194.848160,457.293793 1177.028427C475.113525 1159.208710,485.126785 1135.041153,485.126785 1109.838348Z" style="stroke:rgb(25.500488%,41.000366%,88.400269%); stroke-width: 2.500000;stroke-linecap: round;stroke-linejoin: round;stroke-miterlimit: 10.000000;fill: none;"></path>
  <path d="M659.316284 1089.907257C659.316284 1064.704453,649.303024 1040.536896,631.483292 1022.717178C613.663574 1004.897446,589.496017 994.884186,564.293213 994.884186C539.090408 994.884186,514.922852 1004.897446,497.103134 1022.717178C479.283401 1040.536896,469.270142 1064.704453,469.270142 1089.907257C469.270142 1115.110062,479.283401 1139.277618,497.103134 1157.097336C514.922852 1174.917068,539.090408 1184.930328,564.293213 1184.930328C589.496017 1184.930328,613.663574 1174.917068,631.483292 1157.097336C649.303024 1139.277618,659.316284 1115.110062,659.316284 1089.907257Z" style="stroke:rgb(25.500488%,41.000366%,88.400269%); stroke-width: 2.500000;stroke-linecap: round;stroke-linejoin: round;stroke-miterlimit: 10.000000;fill: none;"></path>
  <path d="M827.861237 1071.040192C827.861237 1045.837387,817.847977 1021.669830,800.028244 1003.850113C782.208527 986.030380,758.040970 976.017120,732.838165 976.017120C707.635361 976.017120,683.467804 986.030380,665.648087 1003.850113C647.828354 1021.669830,637.815094 1045.837387,637.815094 1071.040192C637.815094 1096.242996,647.828354 1120.410553,665.648087 1138.230270C683.467804 1156.050003,707.635361 1166.063263,732.838165 1166.063263C758.040970 1166.063263,782.208527 1156.050003,800.028244 1138.230270C817.847977 1120.410553,827.861237 1096.242996,827.861237 1071.040192Z" style="stroke:rgb(25.500488%,41.000366%,88.400269%); stroke-width: 2.500000;stroke-linecap: round;stroke-linejoin: round;stroke-miterlimit: 10.000000;fill: none;"></path>
  <path d="M993.668243 1061.230347C993.668243 1036.027542,983.654984 1011.859985,965.835251 994.040268C948.015533 976.220535,923.847977 966.207275,898.645172 966.207275C873.442368 966.207275,849.274811 976.220535,831.455093 994.040268C813.635361 1011.859985,803.622101 1036.027542,803.622101 1061.230347C803.622101 1086.433151,813.635361 1110.600708,831.455093 1128.420425C849.274811 1146.240158,873.442368 1156.253418,898.645172 1156.253418C923.847977 1156.253418,948.015533 1146.240158,965.835251 1128.420425C983.654984 1110.600708,993.668243 1086.433151,993.668243 1061.230347Z" style="stroke:rgb(25.500488%,41.000366%,88.400269%); stroke-width: 2.500000;stroke-linecap: round;stroke-linejoin: round;stroke-miterlimit: 10.000000;fill: none;"></path>
  <path d="M1160.876663 1046.943802C1160.876663 1021.740997,1150.863403 997.573441,1133.043671 979.753723C1115.223953 961.933990,1091.056396 951.920731,1065.853592 951.920731C1040.650787 951.920731,1016.483231 961.933990,998.663513 979.753723C980.843781 997.573441,970.830521 1021.740997,970.830521 1046.943802C970.830521 1072.146606,980.843781 1096.314163,998.663513 1114.133881C1016.483231 1131.953613,1040.650787 1141.966873,1065.853592 1141.966873C1091.056396 1141.966873,1115.223953 1131.953613,1133.043671 1114.133881C1150.863403 1096.314163,1160.876663 1072.146606,1160.876663 1046.943802Z" style="stroke:rgb(25.500488%,41.000366%,88.400269%); stroke-width: 2.500000;stroke-linecap: round;stroke-linejoin: round;stroke-miterlimit: 10.000000;fill: none;"></path>
  <path d="M1319.274399 1030.256699C1319.274399 1005.053894,1309.261139 980.886337,1291.441406 963.066620C1273.621689 945.246887,1249.454132 935.233627,1224.251328 935.233627C1199.048523 935.233627,1174.880966 945.246887,1157.061249 963.066620C1139.241516 980.886337,1129.228256 1005.053894,1129.228256 1030.256699C1129.228256 1055.459503,1139.241516 1079.627060,1157.061249 1097.446777C1174.880966 1115.266510,1199.048523 1125.279770,1224.251328 1125.279770C1249.454132 1125.279770,1273.621689 1115.266510,1291.441406 1097.446777C1309.261139 1079.627060,1319.274399 1055.459503,1319.274399 1030.256699Z" style="stroke:rgb(25.500488%,41.000366%,88.400269%); stroke-width: 2.500000;stroke-linecap: round;stroke-linejoin: round;stroke-miterlimit: 10.000000;fill: none;"></path>
  <path d="M1485.444733 1017.462387C1485.444733 992.259583,1475.431473 968.092026,1457.611740 950.272308C1439.792023 932.452576,1415.624466 922.439316,1390.421661 922.439316C1365.218857 922.439316,1341.051300 932.452576,1323.231583 950.272308C1305.411850 968.092026,1295.398590 992.259583,1295.398590 1017.462387C1295.398590 1042.665192,1305.411850 1066.832748,1323.231583 1084.652466C1341.051300 1102.472198,1365.218857 1112.485458,1390.421661 1112.485458C1415.624466 1112.485458,1439.792023 1102.472198,1457.611740 1084.652466C1475.431473 1066.832748,1485.444733 1042.665192,1485.444733 1017.462387Z" style="stroke:rgb(25.500488%,41.000366%,88.400269%); stroke-width: 2.500000;stroke-linecap: round;stroke-linejoin: round;stroke-miterlimit: 10.000000;fill: none;"></path>
  <path d="M1644.283646 1004.136063C1644.283646 978.933258,1634.270386 954.765701,1616.450653 936.945984C1598.630936 919.126251,1574.463379 909.112991,1549.260574 909.112991C1524.057770 909.112991,1499.890213 919.126251,1482.070496 936.945984C1464.250763 954.765701,1454.237503 978.933258,1454.237503 1004.136063C1454.237503 1029.338867,1464.250763 1053.506424,1482.070496 1071.326141C1499.890213 1089.145874,1524.057770 1099.159134,1549.260574 1099.159134C1574.463379 1099.159134,1598.630936 1089.145874,1616.450653 1071.326141C1634.270386 1053.506424,1644.283646 1029.338867,1644.283646 1004.136063Z" style="stroke:rgb(25.500488%,41.000366%,88.400269%); stroke-width: 2.500000;stroke-linecap: round;stroke-linejoin: round;stroke-miterlimit: 10.000000;fill: none;"></path>
  <path d="M1788.187210 1003.837616C1788.187210 978.634811,1778.173950 954.467255,1760.354218 936.647537C1742.534500 918.827805,1718.366943 908.814545,1693.164139 908.814545C1667.961334 908.814545,1643.793777 918.827805,1625.974060 936.647537C1608.154327 954.467255,1598.141068 978.634811,1598.141068 1003.837616C1598.141068 1029.040421,1608.154327 1053.207977,1625.974060 1071.027695C1643.793777 1088.847427,1667.961334 1098.860687,1693.164139 1098.860687C1718.366943 1098.860687,1742.534500 1088.847427,1760.354218 1071.027695C1778.173950 1053.207977,1788.187210 1029.040421,1788.187210 1003.837616Z" style="stroke:rgb(25.500488%,41.000366%,88.400269%); stroke-width: 2.500000;stroke-linecap: round;stroke-linejoin: round;stroke-miterlimit: 10.000000;fill: none;"></path>
  <path d="M259.760056 1017.981430C259.760056 992.778625,249.746796 968.611069,231.927063 950.791351C214.107346 932.971619,189.939789 922.958359,164.736984 922.958359C139.534180 922.958359,115.366623 932.971619,97.546906 950.791351C79.727173 968.611069,69.713913 992.778625,69.713913 1017.981430C69.713913 1043.184235,79.727173 1067.351791,97.546906 1085.171509C115.366623 1102.991241,139.534180 1113.004501,164.736984 1113.004501C189.939789 1113.004501,214.107346 1102.991241,231.927063 1085.171509C249.746796 1067.351791,259.760056 1043.184235,259.760056 1017.981430Z" style="stroke:rgb(25.500488%,41.000366%,88.400269%); stroke-width: 2.500000;stroke-linecap: round;stroke-linejoin: round;stroke-miterlimit: 10.000000;fill: none;"></path>
  <path d="M414.719147 1000.943970C414.719147 975.741165,404.705887 951.573608,386.886154 933.753891C369.066437 915.934158,344.898880 905.920898,319.696075 905.920898C294.493271 905.920898,270.325714 915.934158,252.505997 933.753891C234.686264 951.573608,224.673004 975.741165,224.673004 1000.943970C224.673004 1026.146774,234.686264 1050.314331,252.505997 1068.134048C270.325714 1085.953781,294.493271 1095.967041,319.696075 1095.967041C344.898880 1095.967041,369.066437 1085.953781,386.886154 1068.134048C404.705887 1050.314331,414.719147 1026.146774,414.719147 1000.943970Z" style="stroke:rgb(25.500488%,41.000366%,88.400269%); stroke-width: 2.500000;stroke-linecap: round;stroke-linejoin: round;stroke-miterlimit: 10.000000;fill: none;"></path>
  <path d="M575.283875 968.659744C575.283875 943.456940,565.270615 919.289383,547.450882 901.469666C529.631165 883.649933,505.463608 873.636673,480.260803 873.636673C455.057999 873.636673,430.890442 883.649933,413.070724 901.469666C395.250992 919.289383,385.237732 943.456940,385.237732 968.659744C385.237732 993.862549,395.250992 1018.030106,413.070724 1035.849823C430.890442 1053.669556,455.057999 1063.682816,480.260803 1063.682816C505.463608 1063.682816,529.631165 1053.669556,547.450882 1035.849823C565.270615 1018.030106,575.283875 993.862549,575.283875 968.659744Z" style="stroke:rgb(25.500488%,41.000366%,88.400269%); stroke-width: 2.500000;stroke-linecap: round;stroke-linejoin: round;stroke-miterlimit: 10.000000;fill: none;"></path>
  <path d="M746.047699 943.084091C746.047699 917.881287,736.034439 893.713730,718.214706 875.894012C700.394989 858.074280,676.227432 848.061020,651.024628 848.061020C625.821823 848.061020,601.654266 858.074280,583.834549 875.894012C566.014816 893.713730,556.001556 917.881287,556.001556 943.084091C556.001556 968.286896,566.014816 992.454453,583.834549 1010.274170C601.654266 1028.093903,625.821823 1038.107162,651.024628 1038.107162C676.227432 1038.107162,700.394989 1028.093903,718.214706 1010.274170C736.034439 992.454453,746.047699 968.286896,746.047699 943.084091Z" style="stroke:rgb(25.500488%,41.000366%,88.400269%); stroke-width: 2.500000;stroke-linecap: round;stroke-linejoin: round;stroke-miterlimit: 10.000000;fill: none;"></path>
  <path d="M915.267395 925.281052C915.267395 900.078247,905.254135 875.910690,887.434402 858.090973C869.614685 840.271240,845.447128 830.257980,820.244324 830.257980C795.041519 830.257980,770.873962 840.271240,753.054245 858.090973C735.234512 875.910690,725.221252 900.078247,725.221252 925.281052C725.221252 950.483856,735.234512 974.651413,753.054245 992.471130C770.873962 1010.290863,795.041519 1020.304123,820.244324 1020.304123C845.447128 1020.304123,869.614685 1010.290863,887.434402 992.471130C905.254135 974.651413,915.267395 950.483856,915.267395 925.281052Z" style="stroke:rgb(25.500488%,41.000366%,88.400269%); stroke-width: 2.500000;stroke-linecap: round;stroke-linejoin: round;stroke-miterlimit: 10.000000;fill: none;"></path>
  <path d="M1080.698105 914.887299C1080.698105 889.684494,1070.684845 865.516937,1052.865112 847.697220C1035.045395 829.877487,1010.877838 819.864227,985.675034 819.864227C960.472229 819.864227,936.304672 829.877487,918.484955 847.697220C900.665222 865.516937,890.651962 889.684494,890.651962 914.887299C890.651962 940.090103,900.665222 964.257660,918.484955 982.077377C936.304672 999.897110,960.472229 1009.910370,985.675034 1009.910370C1010.877838 1009.910370,1035.045395 999.897110,1052.865112 982.077377C1070.684845 964.257660,1080.698105 940.090103,1080.698105 914.887299Z" style="stroke:rgb(25.500488%,41.000366%,88.400269%); stroke-width: 2.500000;stroke-linecap: round;stroke-linejoin: round;stroke-miterlimit: 10.000000;fill: none;"></path>
  <path d="M1250.086487 904.130219C1250.086487 878.927414,1240.073227 854.759857,1222.253494 836.940140C1204.433777 819.120407,1180.266220 809.107147,1155.063416 809.107147C1129.860611 809.107147,1105.693054 819.120407,1087.873337 836.940140C1070.053604 854.759857,1060.040344 878.927414,1060.040344 904.130219C1060.040344 929.333023,1070.053604 953.500580,1087.873337 971.320297C1105.693054 989.140030,1129.860611 999.153290,1155.063416 999.153290C1180.266220 999.153290,1204.433777 989.140030,1222.253494 971.320297C1240.073227 953.500580,1250.086487 929.333023,1250.086487 904.130219Z" style="stroke:rgb(25.500488%,41.000366%,88.400269%); stroke-width: 2.500000;stroke-linecap: round;stroke-linejoin: round;stroke-miterlimit: 10.000000;fill: none;"></path>
  <path d="M1419.578690 886.742401C1419.578690 861.539597,1409.565430 837.372040,1391.745697 819.552322C1373.925980 801.732590,1349.758423 791.719330,1324.555618 791.719330C1299.352814 791.719330,1275.185257 801.732590,1257.365540 819.552322C1239.545807 837.372040,1229.532547 861.539597,1229.532547 886.742401C1229.532547 911.945206,1239.545807 936.112762,1257.365540 953.932480C1275.185257 971.752213,1299.352814 981.765472,1324.555618 981.765472C1349.758423 981.765472,1373.925980 971.752213,1391.745697 953.932480C1409.565430 936.112762,1419.578690 911.945206,1419.578690 886.742401Z" style="stroke:rgb(25.500488%,41.000366%,88.400269%); stroke-width: 2.500000;stroke-linecap: round;stroke-linejoin: round;stroke-miterlimit: 10.000000;fill: none;"></path>
  <path d="M1588.188507 876.037231C1588.188507 850.834427,1578.175247 826.666870,1560.355515 808.847153C1542.535797 791.027420,1518.368240 781.014160,1493.165436 781.014160C1467.962631 781.014160,1443.795074 791.027420,1425.975357 808.847153C1408.155624 826.666870,1398.142365 850.834427,1398.142365 876.037231C1398.142365 901.240036,1408.155624 925.407593,1425.975357 943.227310C1443.795074 961.047043,1467.962631 971.060303,1493.165436 971.060303C1518.368240 971.060303,1542.535797 961.047043,1560.355515 943.227310C1578.175247 925.407593,1588.188507 901.240036,1588.188507 876.037231Z" style="stroke:rgb(25.500488%,41.000366%,88.400269%); stroke-width: 2.500000;stroke-linecap: round;stroke-linejoin: round;stroke-miterlimit: 10.000000;fill: none;"></path>
  <path d="M1759.458405 870.327805C1759.458405 845.125000,1749.445145 820.957443,1731.625412 803.137726C1713.805695 785.317993,1689.638138 775.304733,1664.435333 775.304733C1639.232529 775.304733,1615.064972 785.317993,1597.245255 803.137726C1579.425522 820.957443,1569.412262 845.125000,1569.412262 870.327805C1569.412262 895.530609,1579.425522 919.698166,1597.245255 937.517883C1615.064972 955.337616,1639.232529 965.350876,1664.435333 965.350876C1689.638138 965.350876,1713.805695 955.337616,1731.625412 937.517883C1749.445145 919.698166,1759.458405 895.530609,1759.458405 870.327805Z" style="stroke:rgb(25.500488%,41.000366%,88.400269%); stroke-width: 2.500000;stroke-linecap: round;stroke-linejoin: round;stroke-miterlimit: 10.000000;fill: none;"></path>
  <path d="M190.714890 868.031052C190.714890 842.828247,180.701630 818.660690,162.881897 800.840973C145.062180 783.021240,120.894623 773.007980,95.691818 773.007980C70.489014 773.007980,46.321457 783.021240,28.501740 800.840973C10.682007 818.660690,0.668747 842.828247,0.668747 868.031052C0.668747 893.233856,10.682007 917.401413,28.501740 935.221130C46.321457 953.040863,70.489014 963.054123,95.691818 963.054123C120.894623 963.054123,145.062180 953.040863,162.881897 935.221130C180.701630 917.401413,190.714890 893.233856,190.714890 868.031052Z" style="stroke:rgb(25.500488%,41.000366%,88.400269%); stroke-width: 2.500000;stroke-linecap: round;stroke-linejoin: round;stroke-miterlimit: 10.000000;fill: none;"></path>
  <path d="M339.549316 860.751526C339.549316 835.548721,329.536057 811.381165,311.716324 793.561447C293.896606 775.741714,269.729050 765.728455,244.526245 765.728455C219.323441 765.728455,195.155884 775.741714,177.336166 793.561447C159.516434 811.381165,149.503174 835.548721,149.503174 860.751526C149.503174 885.954330,159.516434 910.121887,177.336166 927.941605C195.155884 945.761337,219.323441 955.774597,244.526245 955.774597C269.729050 955.774597,293.896606 945.761337,311.716324 927.941605C329.536057 910.121887,339.549316 885.954330,339.549316 860.751526Z" style="stroke:rgb(25.500488%,41.000366%,88.400269%); stroke-width: 2.500000;stroke-linecap: round;stroke-linejoin: round;stroke-miterlimit: 10.000000;fill: none;"></path>
  <path d="M491.770493 842.701950C491.770493 817.499146,481.757233 793.331589,463.937500 775.511871C446.117783 757.692139,421.950226 747.678879,396.747421 747.678879C371.544617 747.678879,347.377060 757.692139,329.557343 775.511871C311.737610 793.331589,301.724350 817.499146,301.724350 842.701950C301.724350 867.904755,311.737610 892.072311,329.557343 909.892029C347.377060 927.711761,371.544617 937.725021,396.747421 937.725021C421.950226 937.725021,446.117783 927.711761,463.937500 909.892029C481.757233 892.072311,491.770493 867.904755,491.770493 842.701950Z" style="stroke:rgb(25.500488%,41.000366%,88.400269%); stroke-width: 2.500000;stroke-linecap: round;stroke-linejoin: round;stroke-miterlimit: 10.000000;fill: none;"></path>
  <path d="M654.567078 821.564087C654.567078 796.361282,644.553818 772.193726,626.734085 754.374008C608.914368 736.554276,584.746811 726.541016,559.544006 726.541016C534.341202 726.541016,510.173645 736.554276,492.353928 754.374008C474.534195 772.193726,464.520935 796.361282,464.520935 821.564087C464.520935 846.766891,474.534195 870.934448,492.353928 888.754166C510.173645 906.573898,534.341202 916.587158,559.544006 916.587158C584.746811 916.587158,608.914368 906.573898,626.734085 888.754166C644.553818 870.934448,654.567078 846.766891,654.567078 821.564087Z" style="stroke:rgb(25.500488%,41.000366%,88.400269%); stroke-width: 2.500000;stroke-linecap: round;stroke-linejoin: round;stroke-miterlimit: 10.000000;fill: none;"></path>
  <path d="M825.110321 797.065445C825.110321 771.862640,815.097061 747.695084,797.277328 729.875366C779.457611 712.055634,755.290054 702.042374,730.087250 702.042374C704.884445 702.042374,680.716888 712.055634,662.897171 729.875366C645.077438 747.695084,635.064178 771.862640,635.064178 797.065445C635.064178 822.268250,645.077438 846.435806,662.897171 864.255524C680.716888 882.075256,704.884445 892.088516,730.087250 892.088516C755.290054 892.088516,779.457611 882.075256,797.277328 864.255524C815.097061 846.435806,825.110321 822.268250,825.110321 797.065445Z" style="stroke:rgb(25.500488%,41.000366%,88.400269%); stroke-width: 2.500000;stroke-linecap: round;stroke-linejoin: round;stroke-miterlimit: 10.000000;fill: none;"></path>
  <path d="M989.970093 778.769318C989.970093 753.566513,979.956833 729.398956,962.137100 711.579239C944.317383 693.759506,920.149826 683.746246,894.947021 683.746246C869.744217 683.746246,845.576660 693.759506,827.756943 711.579239C809.937210 729.398956,799.923950 753.566513,799.923950 778.769318C799.923950 803.972122,809.937210 828.139679,827.756943 845.959396C845.576660 863.779129,869.744217 873.792389,894.947021 873.792389C920.149826 873.792389,944.317383 863.779129,962.137100 845.959396C979.956833 828.139679,989.970093 803.972122,989.970093 778.769318Z" style="stroke:rgb(25.500488%,41.000366%,88.400269%); stroke-width: 2.500000;stroke-linecap: round;stroke-linejoin: round;stroke-miterlimit: 10.000000;fill: none;"></path>
  <path d="M1153.986420 772.203476C1153.986420 747.000671,1143.973160 722.833115,1126.153427 705.013397C1108.333710 687.193665,1084.166153 677.180405,1058.963348 677.180405C1033.760544 677.180405,1009.592987 687.193665,991.773270 705.013397C973.953537 722.833115,963.940277 747.000671,963.940277 772.203476C963.940277 797.406281,973.953537 821.573837,991.773270 839.393555C1009.592987 857.213287,1033.760544 867.226547,1058.963348 867.226547C1084.166153 867.226547,1108.333710 857.213287,1126.153427 839.393555C1143.973160 821.573837,1153.986420 797.406281,1153.986420 772.203476Z" style="stroke:rgb(25.500488%,41.000366%,88.400269%); stroke-width: 2.500000;stroke-linecap: round;stroke-linejoin: round;stroke-miterlimit: 10.000000;fill: none;"></path>
  <path d="M1321.830658 758.916077C1321.830658 733.713272,1311.817398 709.545715,1293.997665 691.725998C1276.177948 673.906265,1252.010391 663.893005,1226.807587 663.893005C1201.604782 663.893005,1177.437225 673.906265,1159.617508 691.725998C1141.797775 709.545715,1131.784515 733.713272,1131.784515 758.916077C1131.784515 784.118881,1141.797775 808.286438,1159.617508 826.106155C1177.437225 843.925888,1201.604782 853.939148,1226.807587 853.939148C1252.010391 853.939148,1276.177948 843.925888,1293.997665 826.106155C1311.817398 808.286438,1321.830658 784.118881,1321.830658 758.916077Z" style="stroke:rgb(25.500488%,41.000366%,88.400269%); stroke-width: 2.500000;stroke-linecap: round;stroke-linejoin: round;stroke-miterlimit: 10.000000;fill: none;"></path>
  <path d="M1492.412827 743.318954C1492.412827 718.116150,1482.399567 693.948593,1464.579834 676.128876C1446.760117 658.309143,1422.592560 648.295883,1397.389755 648.295883C1372.186951 648.295883,1348.019394 658.309143,1330.199677 676.128876C1312.379944 693.948593,1302.366684 718.116150,1302.366684 743.318954C1302.366684 768.521759,1312.379944 792.689316,1330.199677 810.509033C1348.019394 828.328766,1372.186951 838.342026,1397.389755 838.342026C1422.592560 838.342026,1446.760117 828.328766,1464.579834 810.509033C1482.399567 792.689316,1492.412827 768.521759,1492.412827 743.318954Z" style="stroke:rgb(25.500488%,41.000366%,88.400269%); stroke-width: 2.500000;stroke-linecap: round;stroke-linejoin: round;stroke-miterlimit: 10.000000;fill: none;"></path>
  <path d="M1648.851196 740.049011C1648.851196 714.846207,1638.837936 690.678650,1621.018204 672.858932C1603.198486 655.039200,1579.030930 645.025940,1553.828125 645.025940C1528.625320 645.025940,1504.457764 655.039200,1486.638046 672.858932C1468.818314 690.678650,1458.805054 714.846207,1458.805054 740.049011C1458.805054 765.251816,1468.818314 789.419373,1486.638046 807.239090C1504.457764 825.058823,1528.625320 835.072083,1553.828125 835.072083C1579.030930 835.072083,1603.198486 825.058823,1621.018204 807.239090C1638.837936 789.419373,1648.851196 765.251816,1648.851196 740.049011Z" style="stroke:rgb(25.500488%,41.000366%,88.400269%); stroke-width: 2.500000;stroke-linecap: round;stroke-linejoin: round;stroke-miterlimit: 10.000000;fill: none;"></path>
  <path d="M1784.047882 730.771179C1784.047882 705.568375,1774.034622 681.400818,1756.214890 663.581100C1738.395172 645.761368,1714.227615 635.748108,1689.024811 635.748108C1663.822006 635.748108,1639.654449 645.761368,1621.834732 663.581100C1604.014999 681.400818,1594.001740 705.568375,1594.001740 730.771179C1594.001740 755.973984,1604.014999 780.141541,1621.834732 797.961258C1639.654449 815.780991,1663.822006 825.794250,1689.024811 825.794250C1714.227615 825.794250,1738.395172 815.780991,1756.214890 797.961258C1774.034622 780.141541,1784.047882 755.973984,1784.047882 730.771179Z" style="stroke:rgb(25.500488%,41.000366%,88.400269%); stroke-width: 2.500000;stroke-linecap: round;stroke-linejoin: round;stroke-miterlimit: 10.000000;fill: none;"></path>
  <path d="M257.943420 710.554611C257.943420 685.351807,247.930161 661.184250,230.110428 643.364532C212.290710 625.544800,188.123154 615.531540,162.920349 615.531540C137.717545 615.531540,113.549988 625.544800,95.730270 643.364532C77.910538 661.184250,67.897278 685.351807,67.897278 710.554611C67.897278 735.757416,77.910538 759.924973,95.730270 777.744690C113.549988 795.564423,137.717545 805.577682,162.920349 805.577682C188.123154 805.577682,212.290710 795.564423,230.110428 777.744690C247.930161 759.924973,257.943420 735.757416,257.943420 710.554611Z" style="stroke:rgb(25.500488%,41.000366%,88.400269%); stroke-width: 2.500000;stroke-linecap: round;stroke-linejoin: round;stroke-miterlimit: 10.000000;fill: none;"></path>
  <path d="M404.753601 701.004303C404.753601 675.801498,394.740341 651.633942,376.920609 633.814224C359.100891 615.994492,334.933334 605.981232,309.730530 605.981232C284.527725 605.981232,260.360168 615.994492,242.540451 633.814224C224.720718 651.633942,214.707458 675.801498,214.707458 701.004303C214.707458 726.207108,224.720718 750.374664,242.540451 768.194382C260.360168 786.014114,284.527725 796.027374,309.730530 796.027374C334.933334 796.027374,359.100891 786.014114,376.920609 768.194382C394.740341 750.374664,404.753601 726.207108,404.753601 701.004303Z" style="stroke:rgb(25.500488%,41.000366%,88.400269%); stroke-width: 2.500000;stroke-linecap: round;stroke-linejoin: round;stroke-miterlimit: 10.000000;fill: none;"></path>
  <path d="M562.723129 689.715195C562.723129 664.512390,552.709869 640.344833,534.890137 622.525116C517.070419 604.705383,492.902863 594.692123,467.700058 594.692123C442.497253 594.692123,418.329697 604.705383,400.509979 622.525116C382.690247 640.344833,372.676987 664.512390,372.676987 689.715195C372.676987 714.917999,382.690247 739.085556,400.509979 756.905273C418.329697 774.725006,442.497253 784.738266,467.700058 784.738266C492.902863 784.738266,517.070419 774.725006,534.890137 756.905273C552.709869 739.085556,562.723129 714.917999,562.723129 689.715195Z" style="stroke:rgb(25.500488%,41.000366%,88.400269%); stroke-width: 2.500000;stroke-linecap: round;stroke-linejoin: round;stroke-miterlimit: 10.000000;fill: none;"></path>
  <path d="M729.853683 674.663071C729.853683 649.460266,719.840424 625.292709,702.020691 607.472992C684.200974 589.653259,660.033417 579.639999,634.830612 579.639999C609.627808 579.639999,585.460251 589.653259,567.640533 607.472992C549.820801 625.292709,539.807541 649.460266,539.807541 674.663071C539.807541 699.865875,549.820801 724.033432,567.640533 741.853149C585.460251 759.672882,609.627808 769.686142,634.830612 769.686142C660.033417 769.686142,684.200974 759.672882,702.020691 741.853149C719.840424 724.033432,729.853683 699.865875,729.853683 674.663071Z" style="stroke:rgb(25.500488%,41.000366%,88.400269%); stroke-width: 2.500000;stroke-linecap: round;stroke-linejoin: round;stroke-miterlimit: 10.000000;fill: none;"></path>
  <path d="M895.453079 647.037216C895.453079 621.834412,885.439819 597.666855,867.620087 579.847137C849.800369 562.027405,825.632812 552.014145,800.430008 552.014145C775.227203 552.014145,751.059647 562.027405,733.239929 579.847137C715.420197 597.666855,705.406937 621.834412,705.406937 647.037216C705.406937 672.240021,715.420197 696.407578,733.239929 714.227295C751.059647 732.047028,775.227203 742.060287,800.430008 742.060287C825.632812 742.060287,849.800369 732.047028,867.620087 714.227295C885.439819 696.407578,895.453079 672.240021,895.453079 647.037216Z" style="stroke:rgb(25.500488%,41.000366%,88.400269%); stroke-width: 2.500000;stroke-linecap: round;stroke-linejoin: round;stroke-miterlimit: 10.000000;fill: none;"></path>
  <path d="M1063.102692 632.854477C1063.102692 607.651672,1053.089432 583.484116,1035.269699 565.664398C1017.449982 547.844666,993.282425 537.831406,968.079620 537.831406C942.876816 537.831406,918.709259 547.844666,900.889542 565.664398C883.069809 583.484116,873.056549 607.651672,873.056549 632.854477C873.056549 658.057281,883.069809 682.224838,900.889542 700.044556C918.709259 717.864288,942.876816 727.877548,968.079620 727.877548C993.282425 727.877548,1017.449982 717.864288,1035.269699 700.044556C1053.089432 682.224838,1063.102692 658.057281,1063.102692 632.854477Z" style="stroke:rgb(25.500488%,41.000366%,88.400269%); stroke-width: 2.500000;stroke-linecap: round;stroke-linejoin: round;stroke-miterlimit: 10.000000;fill: none;"></path>
  <path d="M1227.456390 626.833618C1227.456390 601.630814,1217.443130 577.463257,1199.623398 559.643539C1181.803680 541.823807,1157.636124 531.810547,1132.433319 531.810547C1107.230515 531.810547,1083.062958 541.823807,1065.243240 559.643539C1047.423508 577.463257,1037.410248 601.630814,1037.410248 626.833618C1037.410248 652.036423,1047.423508 676.203979,1065.243240 694.023697C1083.062958 711.843430,1107.230515 721.856689,1132.433319 721.856689C1157.636124 721.856689,1181.803680 711.843430,1199.623398 694.023697C1217.443130 676.203979,1227.456390 652.036423,1227.456390 626.833618Z" style="stroke:rgb(25.500488%,41.000366%,88.400269%); stroke-width: 2.500000;stroke-linecap: round;stroke-linejoin: round;stroke-miterlimit: 10.000000;fill: none;"></path>
  <path d="M1396.403595 615.349884C1396.403595 590.147079,1386.390335 565.979523,1368.570602 548.159805C1350.750885 530.340073,1326.583328 520.326813,1301.380524 520.326813C1276.177719 520.326813,1252.010162 530.340073,1234.190445 548.159805C1216.370712 565.979523,1206.357452 590.147079,1206.357452 615.349884C1206.357452 640.552689,1216.370712 664.720245,1234.190445 682.539963C1252.010162 700.359695,1276.177719 710.372955,1301.380524 710.372955C1326.583328 710.372955,1350.750885 700.359695,1368.570602 682.539963C1386.390335 664.720245,1396.403595 640.552689,1396.403595 615.349884Z" style="stroke:rgb(25.500488%,41.000366%,88.400269%); stroke-width: 2.500000;stroke-linecap: round;stroke-linejoin: round;stroke-miterlimit: 10.000000;fill: none;"></path>
  <path d="M1562.535004 592.979294C1562.535004 567.776489,1552.521744 543.608932,1534.702011 525.789215C1516.882294 507.969482,1492.714737 497.956223,1467.511932 497.956223C1442.309128 497.956223,1418.141571 507.969482,1400.321854 525.789215C1382.502121 543.608932,1372.488861 567.776489,1372.488861 592.979294C1372.488861 618.182098,1382.502121 642.349655,1400.321854 660.169373C1418.141571 677.989105,1442.309128 688.002365,1467.511932 688.002365C1492.714737 688.002365,1516.882294 677.989105,1534.702011 660.169373C1552.521744 642.349655,1562.535004 618.182098,1562.535004 592.979294Z" style="stroke:rgb(25.500488%,41.000366%,88.400269%); stroke-width: 2.500000;stroke-linecap: round;stroke-linejoin: round;stroke-miterlimit: 10.000000;fill: none;"></path>
  <path d="M1704.933365 574.164139C1704.933365 548.961334,1694.920105 524.793777,1677.100372 506.974060C1659.280655 489.154327,1635.113098 479.141068,1609.910294 479.141068C1584.707489 479.141068,1560.539932 489.154327,1542.720215 506.974060C1524.900482 524.793777,1514.887222 548.961334,1514.887222 574.164139C1514.887222 599.366943,1524.900482 623.534500,1542.720215 641.354218C1560.539932 659.173950,1584.707489 669.187210,1609.910294 669.187210C1635.113098 669.187210,1659.280655 659.173950,1677.100372 641.354218C1694.920105 623.534500,1704.933365 599.366943,1704.933365 574.164139Z" style="stroke:rgb(25.500488%,41.000366%,88.400269%); stroke-width: 2.500000;stroke-linecap: round;stroke-linejoin: round;stroke-miterlimit: 10.000000;fill: none;"></path>
  <path d="M311.845612 559.527237C311.845612 534.324432,301.832352 510.156876,284.012619 492.337158C266.192902 474.517426,242.025345 464.504166,216.822540 464.504166C191.619736 464.504166,167.452179 474.517426,149.632462 492.337158C131.812729 510.156876,121.799469 534.324432,121.799469 559.527237C121.799469 584.730042,131.812729 608.897598,149.632462 626.717316C167.452179 644.537048,191.619736 654.550308,216.822540 654.550308C242.025345 654.550308,266.192902 644.537048,284.012619 626.717316C301.832352 608.897598,311.845612 584.730042,311.845612 559.527237Z" style="stroke:rgb(25.500488%,41.000366%,88.400269%); stroke-width: 2.500000;stroke-linecap: round;stroke-linejoin: round;stroke-miterlimit: 10.000000;fill: none;"></path>
  <path d="M469.750259 548.588486C469.750259 523.385681,459.737000 499.218124,441.917267 481.398407C424.097549 463.578674,399.929993 453.565414,374.727188 453.565414C349.524384 453.565414,325.356827 463.578674,307.537109 481.398407C289.717377 499.218124,279.704117 523.385681,279.704117 548.588486C279.704117 573.791290,289.717377 597.958847,307.537109 615.778564C325.356827 633.598297,349.524384 643.611557,374.727188 643.611557C399.929993 643.611557,424.097549 633.598297,441.917267 615.778564C459.737000 597.958847,469.750259 573.791290,469.750259 548.588486Z" style="stroke:rgb(25.500488%,41.000366%,88.400269%); stroke-width: 2.500000;stroke-linecap: round;stroke-linejoin: round;stroke-miterlimit: 10.000000;fill: none;"></path>
  <path d="M632.118637 543.268341C632.118637 518.065536,622.105377 493.897980,604.285645 476.078262C586.465927 458.258530,562.298370 448.245270,537.095566 448.245270C511.892761 448.245270,487.725204 458.258530,469.905487 476.078262C452.085754 493.897980,442.072495 518.065536,442.072495 543.268341C442.072495 568.471146,452.085754 592.638702,469.905487 610.458420C487.725204 628.278152,511.892761 638.291412,537.095566 638.291412C562.298370 638.291412,586.465927 628.278152,604.285645 610.458420C622.105377 592.638702,632.118637 568.471146,632.118637 543.268341Z" style="stroke:rgb(25.500488%,41.000366%,88.400269%); stroke-width: 2.500000;stroke-linecap: round;stroke-linejoin: round;stroke-miterlimit: 10.000000;fill: none;"></path>
  <path d="M794.629761 522.480820C794.629761 497.278015,784.616501 473.110458,766.796768 455.290741C748.977051 437.471008,724.809494 427.457748,699.606689 427.457748C674.403885 427.457748,650.236328 437.471008,632.416611 455.290741C614.596878 473.110458,604.583618 497.278015,604.583618 522.480820C604.583618 547.683624,614.596878 571.851181,632.416611 589.670898C650.236328 607.490631,674.403885 617.503891,699.606689 617.503891C724.809494 617.503891,748.977051 607.490631,766.796768 589.670898C784.616501 571.851181,794.629761 547.683624,794.629761 522.480820Z" style="stroke:rgb(25.500488%,41.000366%,88.400269%); stroke-width: 2.500000;stroke-linecap: round;stroke-linejoin: round;stroke-miterlimit: 10.000000;fill: none;"></path>
  <path d="M972.037292 515.006668C972.037292 489.803864,962.024033 465.636307,944.204300 447.816589C926.384583 429.996857,902.217026 419.983597,877.014221 419.983597C851.811417 419.983597,827.643860 429.996857,809.824142 447.816589C792.004410 465.636307,781.991150 489.803864,781.991150 515.006668C781.991150 540.209473,792.004410 564.377029,809.824142 582.196747C827.643860 600.016479,851.811417 610.029739,877.014221 610.029739C902.217026 610.029739,926.384583 600.016479,944.204300 582.196747C962.024033 564.377029,972.037292 540.209473,972.037292 515.006668Z" style="stroke:rgb(25.500488%,41.000366%,88.400269%); stroke-width: 2.500000;stroke-linecap: round;stroke-linejoin: round;stroke-miterlimit: 10.000000;fill: none;"></path>
  <path d="M1144.721573 487.225098C1144.721573 462.022293,1134.708313 437.854736,1116.888580 420.035019C1099.068863 402.215286,1074.901306 392.202026,1049.698502 392.202026C1024.495697 392.202026,1000.328140 402.215286,982.508423 420.035019C964.688690 437.854736,954.675430 462.022293,954.675430 487.225098C954.675430 512.427902,964.688690 536.595459,982.508423 554.415176C1000.328140 572.234909,1024.495697 582.248169,1049.698502 582.248169C1074.901306 582.248169,1099.068863 572.234909,1116.888580 554.415176C1134.708313 536.595459,1144.721573 512.427902,1144.721573 487.225098Z" style="stroke:rgb(25.500488%,41.000366%,88.400269%); stroke-width: 2.500000;stroke-linecap: round;stroke-linejoin: round;stroke-miterlimit: 10.000000;fill: none;"></path>
  <path d="M1310.191208 483.033859C1310.191208 457.831055,1300.177948 433.663498,1282.358215 415.843781C1264.538498 398.024048,1240.370941 388.010788,1215.168137 388.010788C1189.965332 388.010788,1165.797775 398.024048,1147.978058 415.843781C1130.158325 433.663498,1120.145065 457.831055,1120.145065 483.033859C1120.145065 508.236664,1130.158325 532.404221,1147.978058 550.223938C1165.797775 568.043671,1189.965332 578.056931,1215.168137 578.056931C1240.370941 578.056931,1264.538498 568.043671,1282.358215 550.223938C1300.177948 532.404221,1310.191208 508.236664,1310.191208 483.033859Z" style="stroke:rgb(25.500488%,41.000366%,88.400269%); stroke-width: 2.500000;stroke-linecap: round;stroke-linejoin: round;stroke-miterlimit: 10.000000;fill: none;"></path>
  <path d="M1477.788910 469.344208C1477.788910 444.141403,1467.775650 419.973846,1449.955917 402.154129C1432.136200 384.334396,1407.968643 374.321136,1382.765839 374.321136C1357.563034 374.321136,1333.395477 384.334396,1315.575760 402.154129C1297.756027 419.973846,1287.742767 444.141403,1287.742767 469.344208C1287.742767 494.547012,1297.756027 518.714569,1315.575760 536.534286C1333.395477 554.354019,1357.563034 564.367279,1382.765839 564.367279C1407.968643 564.367279,1432.136200 554.354019,1449.955917 536.534286C1467.775650 518.714569,1477.788910 494.547012,1477.788910 469.344208Z" style="stroke:rgb(25.500488%,41.000366%,88.400269%); stroke-width: 2.500000;stroke-linecap: round;stroke-linejoin: round;stroke-miterlimit: 10.000000;fill: none;"></path>
  <path d="M1642.337250 438.461380C1642.337250 413.258575,1632.323990 389.091019,1614.504257 371.271301C1596.684540 353.451569,1572.516983 343.438309,1547.314178 343.438309C1522.111374 343.438309,1497.943817 353.451569,1480.124100 371.271301C1462.304367 389.091019,1452.291107 413.258575,1452.291107 438.461380C1452.291107 463.664185,1462.304367 487.831741,1480.124100 505.651459C1497.943817 523.471191,1522.111374 533.484451,1547.314178 533.484451C1572.516983 533.484451,1596.684540 523.471191,1614.504257 505.651459C1632.323990 487.831741,1642.337250 463.664185,1642.337250 438.461380Z" style="stroke:rgb(25.500488%,41.000366%,88.400269%); stroke-width: 2.500000;stroke-linecap: round;stroke-linejoin: round;stroke-miterlimit: 10.000000;fill: none;"></path>
  <path d="M371.963303 428.820236C371.963303 403.617432,361.950043 379.449875,344.130310 361.630157C326.310593 343.810425,302.143036 333.797165,276.940231 333.797165C251.737427 333.797165,227.569870 343.810425,209.750153 361.630157C191.930420 379.449875,181.917160 403.617432,181.917160 428.820236C181.917160 454.023041,191.930420 478.190598,209.750153 496.010315C227.569870 513.830048,251.737427 523.843307,276.940231 523.843307C302.143036 523.843307,326.310593 513.830048,344.130310 496.010315C361.950043 478.190598,371.963303 454.023041,371.963303 428.820236Z" style="stroke:rgb(25.500488%,41.000366%,88.400269%); stroke-width: 2.500000;stroke-linecap: round;stroke-linejoin: round;stroke-miterlimit: 10.000000;fill: none;"></path>
  <path d="M543.246185 401.804260C543.246185 376.601456,533.232925 352.433899,515.413193 334.614182C497.593475 316.794449,473.425919 306.781189,448.223114 306.781189C423.020309 306.781189,398.852753 316.794449,381.033035 334.614182C363.213303 352.433899,353.200043 376.601456,353.200043 401.804260C353.200043 427.007065,363.213303 451.174622,381.033035 468.994339C398.852753 486.814072,423.020309 496.827332,448.223114 496.827332C473.425919 496.827332,497.593475 486.814072,515.413193 468.994339C533.232925 451.174622,543.246185 427.007065,543.246185 401.804260Z" style="stroke:rgb(25.500488%,41.000366%,88.400269%); stroke-width: 2.500000;stroke-linecap: round;stroke-linejoin: round;stroke-miterlimit: 10.000000;fill: none;"></path>
  <path d="M701.163803 390.255630C701.163803 365.052826,691.150543 340.885269,673.330811 323.065552C655.511093 305.245819,631.343536 295.232559,606.140732 295.232559C580.937927 295.232559,556.770370 305.245819,538.950653 323.065552C521.130920 340.885269,511.117661 365.052826,511.117661 390.255630C511.117661 415.458435,521.130920 439.625992,538.950653 457.445709C556.770370 475.265442,580.937927 485.278702,606.140732 485.278702C631.343536 485.278702,655.511093 475.265442,673.330811 457.445709C691.150543 439.625992,701.163803 415.458435,701.163803 390.255630Z" style="stroke:rgb(25.500488%,41.000366%,88.400269%); stroke-width: 2.500000;stroke-linecap: round;stroke-linejoin: round;stroke-miterlimit: 10.000000;fill: none;"></path>
  <path d="M875.820435 390.061005C875.820435 364.858200,865.807175 340.690643,847.987442 322.870926C830.167725 305.051193,806.000168 295.037933,780.797363 295.037933C755.594559 295.037933,731.427002 305.051193,713.607285 322.870926C695.787552 340.690643,685.774292 364.858200,685.774292 390.061005C685.774292 415.263809,695.787552 439.431366,713.607285 457.251083C731.427002 475.070816,755.594559 485.084076,780.797363 485.084076C806.000168 485.084076,830.167725 475.070816,847.987442 457.251083C865.807175 439.431366,875.820435 415.263809,875.820435 390.061005Z" style="stroke:rgb(25.500488%,41.000366%,88.400269%); stroke-width: 2.500000;stroke-linecap: round;stroke-linejoin: round;stroke-miterlimit: 10.000000;fill: none;"></path>
  <path d="M1046.571289 369.883362C1046.571289 344.680557,1036.558029 320.513000,1018.738297 302.693283C1000.918579 284.873550,976.751022 274.860291,951.548218 274.860291C926.345413 274.860291,902.177856 284.873550,884.358139 302.693283C866.538406 320.513000,856.525146 344.680557,856.525146 369.883362C856.525146 395.086166,866.538406 419.253723,884.358139 437.073441C902.177856 454.893173,926.345413 464.906433,951.548218 464.906433C976.751022 464.906433,1000.918579 454.893173,1018.738297 437.073441C1036.558029 419.253723,1046.571289 395.086166,1046.571289 369.883362Z" style="stroke:rgb(25.500488%,41.000366%,88.400269%); stroke-width: 2.500000;stroke-linecap: round;stroke-linejoin: round;stroke-miterlimit: 10.000000;fill: none;"></path>
  <path d="M1220.462341 343.581055C1220.462341 318.378250,1210.449081 294.210693,1192.629349 276.390976C1174.809631 258.571243,1150.642075 248.557983,1125.439270 248.557983C1100.236465 248.557983,1076.068909 258.571243,1058.249191 276.390976C1040.429459 294.210693,1030.416199 318.378250,1030.416199 343.581055C1030.416199 368.783859,1040.429459 392.951416,1058.249191 410.771133C1076.068909 428.590866,1100.236465 438.604126,1125.439270 438.604126C1150.642075 438.604126,1174.809631 428.590866,1192.629349 410.771133C1210.449081 392.951416,1220.462341 368.783859,1220.462341 343.581055Z" style="stroke:rgb(25.500488%,41.000366%,88.400269%); stroke-width: 2.500000;stroke-linecap: round;stroke-linejoin: round;stroke-miterlimit: 10.000000;fill: none;"></path>
  <path d="M1376.770935 338.001389C1376.770935 312.798584,1366.757675 288.631027,1348.937943 270.811310C1331.118225 252.991577,1306.950668 242.978317,1281.747864 242.978317C1256.545059 242.978317,1232.377502 252.991577,1214.557785 270.811310C1196.738052 288.631027,1186.724792 312.798584,1186.724792 338.001389C1186.724792 363.204193,1196.738052 387.371750,1214.557785 405.191467C1232.377502 423.011200,1256.545059 433.024460,1281.747864 433.024460C1306.950668 433.024460,1331.118225 423.011200,1348.937943 405.191467C1366.757675 387.371750,1376.770935 363.204193,1376.770935 338.001389Z" style="stroke:rgb(25.500488%,41.000366%,88.400269%); stroke-width: 2.500000;stroke-linecap: round;stroke-linejoin: round;stroke-miterlimit: 10.000000;fill: none;"></path>
  <path d="M1555.229538 348.109665C1555.229538 322.906860,1545.216278 298.739304,1527.396545 280.919586C1509.576828 263.099854,1485.409271 253.086594,1460.206467 253.086594C1435.003662 253.086594,1410.836105 263.099854,1393.016388 280.919586C1375.196655 298.739304,1365.183395 322.906860,1365.183395 348.109665C1365.183395 373.312469,1375.196655 397.480026,1393.016388 415.299744C1410.836105 433.119476,1435.003662 443.132736,1460.206467 443.132736C1485.409271 443.132736,1509.576828 433.119476,1527.396545 415.299744C1545.216278 397.480026,1555.229538 373.312469,1555.229538 348.109665Z" style="stroke:rgb(25.500488%,41.000366%,88.400269%); stroke-width: 2.500000;stroke-linecap: round;stroke-linejoin: round;stroke-miterlimit: 10.000000;fill: none;"></path>
  <path d="M451.181641 281.854340C451.181641 256.651535,441.168381 232.483978,423.348648 214.664261C405.528931 196.844528,381.361374 186.831268,356.158569 186.831268C330.955765 186.831268,306.788208 196.844528,288.968491 214.664261C271.148758 232.483978,261.135498 256.651535,261.135498 281.854340C261.135498 307.057144,271.148758 331.224701,288.968491 349.044418C306.788208 366.864151,330.955765 376.877411,356.158569 376.877411C381.361374 376.877411,405.528931 366.864151,423.348648 349.044418C441.168381 331.224701,451.181641 307.057144,451.181641 281.854340Z" style="stroke:rgb(25.500488%,41.000366%,88.400269%); stroke-width: 2.500000;stroke-linecap: round;stroke-linejoin: round;stroke-miterlimit: 10.000000;fill: none;"></path>
  <path d="M616.456635 248.596909C616.456635 223.394104,606.443375 199.226547,588.623642 181.406830C570.803925 163.587097,546.636368 153.573837,521.433563 153.573837C496.230759 153.573837,472.063202 163.587097,454.243484 181.406830C436.423752 199.226547,426.410492 223.394104,426.410492 248.596909C426.410492 273.799713,436.423752 297.967270,454.243484 315.786987C472.063202 333.606720,496.230759 343.619980,521.433563 343.619980C546.636368 343.619980,570.803925 333.606720,588.623642 315.786987C606.443375 297.967270,616.456635 273.799713,616.456635 248.596909Z" style="stroke:rgb(25.500488%,41.000366%,88.400269%); stroke-width: 2.500000;stroke-linecap: round;stroke-linejoin: round;stroke-miterlimit: 10.000000;fill: none;"></path>
  <path d="M786.532745 257.667114C786.532745 232.464310,776.519485 208.296753,758.699753 190.477036C740.880035 172.657303,716.712479 162.644043,691.509674 162.644043C666.306870 162.644043,642.139313 172.657303,624.319595 190.477036C606.499863 208.296753,596.486603 232.464310,596.486603 257.667114C596.486603 282.869919,606.499863 307.037476,624.319595 324.857193C642.139313 342.676926,666.306870 352.690186,691.509674 352.690186C716.712479 352.690186,740.880035 342.676926,758.699753 324.857193C776.519485 307.037476,786.532745 282.869919,786.532745 257.667114Z" style="stroke:rgb(25.500488%,41.000366%,88.400269%); stroke-width: 2.500000;stroke-linecap: round;stroke-linejoin: round;stroke-miterlimit: 10.000000;fill: none;"></path>
  <path d="M954.312103 244.768997C954.312103 219.566193,944.298843 195.398636,926.479111 177.578918C908.659393 159.759186,884.491837 149.745926,859.289032 149.745926C834.086227 149.745926,809.918671 159.759186,792.098953 177.578918C774.279221 195.398636,764.265961 219.566193,764.265961 244.768997C764.265961 269.971802,774.279221 294.139359,792.098953 311.959076C809.918671 329.778809,834.086227 339.792068,859.289032 339.792068C884.491837 339.792068,908.659393 329.778809,926.479111 311.959076C944.298843 294.139359,954.312103 269.971802,954.312103 244.768997Z" style="stroke:rgb(25.500488%,41.000366%,88.400269%); stroke-width: 2.500000;stroke-linecap: round;stroke-linejoin: round;stroke-miterlimit: 10.000000;fill: none;"></path>
  <path d="M1127.061264 227.939163C1127.061264 202.736359,1117.048004 178.568802,1099.228271 160.749084C1081.408554 142.929352,1057.240997 132.916092,1032.038193 132.916092C1006.835388 132.916092,982.667831 142.929352,964.848114 160.749084C947.028381 178.568802,937.015121 202.736359,937.015121 227.939163C937.015121 253.141968,947.028381 277.309525,964.848114 295.129242C982.667831 312.948975,1006.835388 322.962234,1032.038193 322.962234C1057.240997 322.962234,1081.408554 312.948975,1099.228271 295.129242C1117.048004 277.309525,1127.061264 253.141968,1127.061264 227.939163Z" style="stroke:rgb(25.500488%,41.000366%,88.400269%); stroke-width: 2.500000;stroke-linecap: round;stroke-linejoin: round;stroke-miterlimit: 10.000000;fill: none;"></path>
  <path d="M1296.047394 191.801071C1296.047394 166.598267,1286.034134 142.430710,1268.214401 124.610992C1250.394684 106.791260,1226.227127 96.778000,1201.024323 96.778000C1175.821518 96.778000,1151.653961 106.791260,1133.834244 124.610992C1116.014511 142.430710,1106.001251 166.598267,1106.001251 191.801071C1106.001251 217.003876,1116.014511 241.171432,1133.834244 258.991150C1151.653961 276.810883,1175.821518 286.824142,1201.024323 286.824142C1226.227127 286.824142,1250.394684 276.810883,1268.214401 258.991150C1286.034134 241.171432,1296.047394 217.003876,1296.047394 191.801071Z" style="stroke:rgb(25.500488%,41.000366%,88.400269%); stroke-width: 2.500000;stroke-linecap: round;stroke-linejoin: round;stroke-miterlimit: 10.000000;fill: none;"></path>
  <path d="M1442.636993 219.193359C1442.636993 193.990555,1432.623734 169.822998,1414.804001 152.003281C1396.984283 134.183548,1372.816727 124.170288,1347.613922 124.170288C1322.411118 124.170288,1298.243561 134.183548,1280.423843 152.003281C1262.604111 169.822998,1252.590851 193.990555,1252.590851 219.193359C1252.590851 244.396164,1262.604111 268.563721,1280.423843 286.383438C1298.243561 304.203171,1322.411118 314.216431,1347.613922 314.216431C1372.816727 314.216431,1396.984283 304.203171,1414.804001 286.383438C1432.623734 268.563721,1442.636993 244.396164,1442.636993 219.193359Z" style="stroke:rgb(25.500488%,41.000366%,88.400269%); stroke-width: 2.500000;stroke-linecap: round;stroke-linejoin: round;stroke-miterlimit: 10.000000;fill: none;"></path>
  <path d="M706.873230 116.047318C706.873230 90.844513,696.859970 66.676956,679.040237 48.857239C661.220520 31.037506,637.052963 21.024246,611.850159 21.024246C586.647354 21.024246,562.479797 31.037506,544.660080 48.857239C526.840347 66.676956,516.827087 90.844513,516.827087 116.047318C516.827087 141.250122,526.840347 165.417679,544.660080 183.237396C562.479797 201.057129,586.647354 211.070389,611.850159 211.070389C637.052963 211.070389,661.220520 201.057129,679.040237 183.237396C696.859970 165.417679,706.873230 141.250122,706.873230 116.047318Z" style="stroke:rgb(25.500488%,41.000366%,88.400269%); stroke-width: 2.500000;stroke-linecap: round;stroke-linejoin: round;stroke-miterlimit: 10.000000;fill: none;"></path>
  <path d="M869.799576 112.180481C869.799576 86.977676,859.786316 62.810120,841.966583 44.990402C824.146866 27.170670,799.979309 17.157410,774.776505 17.157410C749.573700 17.157410,725.406143 27.170670,707.586426 44.990402C689.766693 62.810120,679.753433 86.977676,679.753433 112.180481C679.753433 137.383286,689.766693 161.550842,707.586426 179.370560C725.406143 197.190292,749.573700 207.203552,774.776505 207.203552C799.979309 207.203552,824.146866 197.190292,841.966583 179.370560C859.786316 161.550842,869.799576 137.383286,869.799576 112.180481Z" style="stroke:rgb(25.500488%,41.000366%,88.400269%); stroke-width: 2.500000;stroke-linecap: round;stroke-linejoin: round;stroke-miterlimit: 10.000000;fill: none;"></path>
  <path d="M1039.707001 102.837784C1039.707001 77.634979,1029.693741 53.467422,1011.874008 35.647705C994.054291 17.827972,969.886734 7.814713,944.683929 7.814713C919.481125 7.814713,895.313568 17.827972,877.493851 35.647705C859.674118 53.467422,849.660858 77.634979,849.660858 102.837784C849.660858 128.040588,859.674118 152.208145,877.493851 170.027863C895.313568 187.847595,919.481125 197.860855,944.683929 197.860855C969.886734 197.860855,994.054291 187.847595,1011.874008 170.027863C1029.693741 152.208145,1039.707001 128.040588,1039.707001 102.837784Z" style="stroke:rgb(25.500488%,41.000366%,88.400269%); stroke-width: 2.500000;stroke-linecap: round;stroke-linejoin: round;stroke-miterlimit: 10.000000;fill: none;"></path>
  <path d="M1217.101562 95.350647C1217.101562 70.147842,1207.088303 45.980286,1189.268570 28.160568C1171.448853 10.340836,1147.281296 0.327576,1122.078491 0.327576C1096.875687 0.327576,1072.708130 10.340836,1054.888412 28.160568C1037.068680 45.980286,1027.055420 70.147842,1027.055420 95.350647C1027.055420 120.553452,1037.068680 144.721008,1054.888412 162.540726C1072.708130 180.360458,1096.875687 190.373718,1122.078491 190.373718C1147.281296 190.373718,1171.448853 180.360458,1189.268570 162.540726C1207.088303 144.721008,1217.101562 120.553452,1217.101562 95.350647Z" style="stroke:rgb(25.500488%,41.000366%,88.400269%); stroke-width: 2.500000;stroke-linecap: round;stroke-linejoin: round;stroke-miterlimit: 10.000000;fill: none;"></path>
</svg>
