<?xml version="1.0"?>
<!-- Created by MetaPost 2.00 on 2022.03.02:1201 -->
<svg version="1.1" xmlns="http://www.w3.org/2000/svg" xmlns:xlink="http://www.w3.org/1999/xlink" width="1856.247849" height="1873.051743" viewBox="0 0 1856.247849 1873.051743">
<!-- Original BoundingBox: -917.457672 -931.225189 938.790176 941.826553 -->
  <path d="M917.000000 90.606476L457.248215 225.608521L143.450195 587.729065L75.261444 1062.026917L274.312912 1497.889938L677.411591 1756.942307L1156.588409 1756.942307L1559.687088 1497.889938L1758.738556 1062.026917L1690.549805 587.729065L1376.751785 225.608521L917.000000 90.606476Z" style="fill: rgb(100.000000%,100.000000%,100.000000%);stroke: none;"></path>
  <path d="M917.000000 90.606476L457.248215 225.608521" style="stroke:rgb(0.000000%,0.000000%,0.000000%); stroke-width: 2.500000;stroke-linecap: round;stroke-linejoin: round;stroke-miterlimit: 10.000000;fill: none;"></path>
  <path d="M457.248215 225.608521L143.450195 587.729065" style="stroke:rgb(0.000000%,0.000000%,0.000000%); stroke-width: 2.500000;stroke-linecap: round;stroke-linejoin: round;stroke-miterlimit: 10.000000;fill: none;"></path>
  <path d="M143.450195 587.729065L75.261444 1062.026917" style="stroke:rgb(0.000000%,0.000000%,0.000000%); stroke-width: 2.500000;stroke-linecap: round;stroke-linejoin: round;stroke-miterlimit: 10.000000;fill: none;"></path>
  <path d="M75.261444 1062.026917L274.312912 1497.889938" style="stroke:rgb(0.000000%,0.000000%,0.000000%); stroke-width: 2.500000;stroke-linecap: round;stroke-linejoin: round;stroke-miterlimit: 10.000000;fill: none;"></path>
  <path d="M274.312912 1497.889938L677.411591 1756.942307" style="stroke:rgb(0.000000%,0.000000%,0.000000%); stroke-width: 2.500000;stroke-linecap: round;stroke-linejoin: round;stroke-miterlimit: 10.000000;fill: none;"></path>
  <path d="M677.411591 1756.942307L1156.588409 1756.942307" style="stroke:rgb(0.000000%,0.000000%,0.000000%); stroke-width: 2.500000;stroke-linecap: round;stroke-linejoin: round;stroke-miterlimit: 10.000000;fill: none;"></path>
  <path d="M1156.588409 1756.942307L1559.687088 1497.889938" style="stroke:rgb(0.000000%,0.000000%,0.000000%); stroke-width: 2.500000;stroke-linecap: round;stroke-linejoin: round;stroke-miterlimit: 10.000000;fill: none;"></path>
  <path d="M1559.687088 1497.889938L1758.738556 1062.026917" style="stroke:rgb(0.000000%,0.000000%,0.000000%); stroke-width: 2.500000;stroke-linecap: round;stroke-linejoin: round;stroke-miterlimit: 10.000000;fill: none;"></path>
  <path d="M1758.738556 1062.026917L1690.549805 587.729065" style="stroke:rgb(0.000000%,0.000000%,0.000000%); stroke-width: 2.500000;stroke-linecap: round;stroke-linejoin: round;stroke-miterlimit: 10.000000;fill: none;"></path>
  <path d="M1690.549805 587.729065L1376.751785 225.608521" style="stroke:rgb(0.000000%,0.000000%,0.000000%); stroke-width: 2.500000;stroke-linecap: round;stroke-linejoin: round;stroke-miterlimit: 10.000000;fill: none;"></path>
  <path d="M1376.751785 225.608521L917.000000 90.606476" style="stroke:rgb(0.000000%,0.000000%,0.000000%); stroke-width: 2.500000;stroke-linecap: round;stroke-linejoin: round;stroke-miterlimit: 10.000000;fill: none;"></path>
  <path d="M1234.950333 1714.355164C1234.950333 1672.815109,1218.446152 1632.981384,1189.075119 1603.610352C1159.704086 1574.239319,1119.870361 1557.735138,1078.330307 1557.735138C1036.790253 1557.735138,996.956528 1574.239319,967.585495 1603.610352C938.214462 1632.981384,921.710281 1672.815109,921.710281 1714.355164C921.710281 1755.895218,938.214462 1795.728943,967.585495 1825.099976C996.956528 1854.471008,1036.790253 1870.975189,1078.330307 1870.975189C1119.870361 1870.975189,1159.704086 1854.471008,1189.075119 1825.099976C1218.446152 1795.728943,1234.950333 1755.895218,1234.950333 1714.355164Z" style="stroke:rgb(25.500488%,41.000366%,88.400269%); stroke-width: 2.500000;stroke-linecap: round;stroke-linejoin: round;stroke-miterlimit: 10.000000;fill: none;"></path>
  <path d="M1452.414703 1562.445419C1452.414703 1520.905365,1435.910522 1481.071640,1406.539490 1451.700607C1377.168457 1422.329575,1337.334732 1405.825394,1295.794678 1405.825394C1254.254623 1405.825394,1214.420898 1422.329575,1185.049866 1451.700607C1155.678833 1481.071640,1139.174652 1520.905365,1139.174652 1562.445419C1139.174652 1603.985474,1155.678833 1643.819199,1185.049866 1673.190231C1214.420898 1702.561264,1254.254623 1719.065445,1295.794678 1719.065445C1337.334732 1719.065445,1377.168457 1702.561264,1406.539490 1673.190231C1435.910522 1643.819199,1452.414703 1603.985474,1452.414703 1562.445419Z" style="stroke:rgb(25.500488%,41.000366%,88.400269%); stroke-width: 2.500000;stroke-linecap: round;stroke-linejoin: round;stroke-miterlimit: 10.000000;fill: none;"></path>
  <path d="M1687.124146 1431.128540C1687.124146 1389.588486,1670.619965 1349.754761,1641.248932 1320.383728C1611.877899 1291.012695,1572.044174 1274.508514,1530.504120 1274.508514C1488.964066 1274.508514,1449.130341 1291.012695,1419.759308 1320.383728C1390.388275 1349.754761,1373.884094 1389.588486,1373.884094 1431.128540C1373.884094 1472.668594,1390.388275 1512.502319,1419.759308 1541.873352C1449.130341 1571.244385,1488.964066 1587.748566,1530.504120 1587.748566C1572.044174 1587.748566,1611.877899 1571.244385,1641.248932 1541.873352C1670.619965 1512.502319,1687.124146 1472.668594,1687.124146 1431.128540Z" style="stroke:rgb(25.500488%,41.000366%,88.400269%); stroke-width: 2.500000;stroke-linecap: round;stroke-linejoin: round;stroke-miterlimit: 10.000000;fill: none;"></path>
  <path d="M798.594223 1671.962646C798.594223 1630.422592,782.090042 1590.588867,752.719009 1561.217834C723.347977 1531.846802,683.514252 1515.342621,641.974197 1515.342621C600.434143 1515.342621,560.600418 1531.846802,531.229385 1561.217834C501.858353 1590.588867,485.354172 1630.422592,485.354172 1671.962646C485.354172 1713.502701,501.858353 1753.336426,531.229385 1782.707458C560.600418 1812.078491,600.434143 1828.582672,641.974197 1828.582672C683.514252 1828.582672,723.347977 1812.078491,752.719009 1782.707458C782.090042 1753.336426,798.594223 1713.502701,798.594223 1671.962646Z" style="stroke:rgb(25.500488%,41.000366%,88.400269%); stroke-width: 2.500000;stroke-linecap: round;stroke-linejoin: round;stroke-miterlimit: 10.000000;fill: none;"></path>
  <path d="M1007.196014 1620.564804C1007.196014 1579.024750,990.691833 1539.191025,961.320801 1509.819992C931.949768 1480.448959,892.116043 1463.944778,850.575989 1463.944778C809.035934 1463.944778,769.202209 1480.448959,739.831177 1509.819992C710.460144 1539.191025,693.955963 1579.024750,693.955963 1620.564804C693.955963 1662.104858,710.460144 1701.938583,739.831177 1731.309616C769.202209 1760.680649,809.035934 1777.184830,850.575989 1777.184830C892.116043 1777.184830,931.949768 1760.680649,961.320801 1731.309616C990.691833 1701.938583,1007.196014 1662.104858,1007.196014 1620.564804Z" style="stroke:rgb(25.500488%,41.000366%,88.400269%); stroke-width: 2.500000;stroke-linecap: round;stroke-linejoin: round;stroke-miterlimit: 10.000000;fill: none;"></path>
  <path d="M1225.970947 1436.915833C1225.970947 1395.375778,1209.466766 1355.542053,1180.095734 1326.171021C1150.724701 1296.799988,1110.890976 1280.295807,1069.350922 1280.295807C1027.810867 1280.295807,987.977142 1296.799988,958.606110 1326.171021C929.235077 1355.542053,912.730896 1395.375778,912.730896 1436.915833C912.730896 1478.455887,929.235077 1518.289612,958.606110 1547.660645C987.977142 1577.031677,1027.810867 1593.535858,1069.350922 1593.535858C1110.890976 1593.535858,1150.724701 1577.031677,1180.095734 1547.660645C1209.466766 1518.289612,1225.970947 1478.455887,1225.970947 1436.915833Z" style="stroke:rgb(25.500488%,41.000366%,88.400269%); stroke-width: 2.500000;stroke-linecap: round;stroke-linejoin: round;stroke-miterlimit: 10.000000;fill: none;"></path>
  <path d="M1466.688278 1290.871231C1466.688278 1249.331177,1450.184097 1209.497452,1420.813065 1180.126419C1391.442032 1150.755386,1351.608307 1134.251205,1310.068253 1134.251205C1268.528198 1134.251205,1228.694473 1150.755386,1199.323441 1180.126419C1169.952408 1209.497452,1153.448227 1249.331177,1153.448227 1290.871231C1153.448227 1332.411285,1169.952408 1372.245010,1199.323441 1401.616043C1228.694473 1430.987076,1268.528198 1447.491257,1310.068253 1447.491257C1351.608307 1447.491257,1391.442032 1430.987076,1420.813065 1401.616043C1450.184097 1372.245010,1466.688278 1332.411285,1466.688278 1290.871231Z" style="stroke:rgb(25.500488%,41.000366%,88.400269%); stroke-width: 2.500000;stroke-linecap: round;stroke-linejoin: round;stroke-miterlimit: 10.000000;fill: none;"></path>
  <path d="M1733.681946 1177.007034C1733.681946 1135.466980,1717.177765 1095.633255,1687.806732 1066.262222C1658.435699 1036.891190,1618.601974 1020.387009,1577.061920 1020.387009C1535.521866 1020.387009,1495.688141 1036.891190,1466.317108 1066.262222C1436.946075 1095.633255,1420.441895 1135.466980,1420.441895 1177.007034C1420.441895 1218.547089,1436.946075 1258.380814,1466.317108 1287.751846C1495.688141 1317.122879,1535.521866 1333.627060,1577.061920 1333.627060C1618.601974 1333.627060,1658.435699 1317.122879,1687.806732 1287.751846C1717.177765 1258.380814,1733.681946 1218.547089,1733.681946 1177.007034Z" style="stroke:rgb(25.500488%,41.000366%,88.400269%); stroke-width: 2.500000;stroke-linecap: round;stroke-linejoin: round;stroke-miterlimit: 10.000000;fill: none;"></path>
  <path d="M1854.540176 977.670105C1854.540176 936.130051,1838.035995 896.296326,1808.664963 866.925293C1779.293930 837.554260,1739.460205 821.050079,1697.920151 821.050079C1656.380096 821.050079,1616.546371 837.554260,1587.175339 866.925293C1557.804306 896.296326,1541.300125 936.130051,1541.300125 977.670105C1541.300125 1019.210159,1557.804306 1059.043884,1587.175339 1088.414917C1616.546371 1117.785950,1656.380096 1134.290131,1697.920151 1134.290131C1739.460205 1134.290131,1779.293930 1117.785950,1808.664963 1088.414917C1838.035995 1059.043884,1854.540176 1019.210159,1854.540176 977.670105Z" style="stroke:rgb(25.500488%,41.000366%,88.400269%); stroke-width: 2.500000;stroke-linecap: round;stroke-linejoin: round;stroke-miterlimit: 10.000000;fill: none;"></path>
  <path d="M542.993469 1518.301147C542.993469 1476.761093,526.489288 1436.927368,497.118256 1407.556335C467.747223 1378.185303,427.913498 1361.681122,386.373444 1361.681122C344.833389 1361.681122,304.999664 1378.185303,275.628632 1407.556335C246.257599 1436.927368,229.753418 1476.761093,229.753418 1518.301147C229.753418 1559.841202,246.257599 1599.674927,275.628632 1629.045959C304.999664 1658.416992,344.833389 1674.921173,386.373444 1674.921173C427.913498 1674.921173,467.747223 1658.416992,497.118256 1629.045959C526.489288 1599.674927,542.993469 1559.841202,542.993469 1518.301147Z" style="stroke:rgb(25.500488%,41.000366%,88.400269%); stroke-width: 2.500000;stroke-linecap: round;stroke-linejoin: round;stroke-miterlimit: 10.000000;fill: none;"></path>
  <path d="M780.142395 1422.317856C780.142395 1380.777802,763.638214 1340.944077,734.267181 1311.573044C704.896149 1282.202011,665.062424 1265.697830,623.522369 1265.697830C581.982315 1265.697830,542.148590 1282.202011,512.777557 1311.573044C483.406525 1340.944077,466.902344 1380.777802,466.902344 1422.317856C466.902344 1463.857910,483.406525 1503.691635,512.777557 1533.062668C542.148590 1562.433701,581.982315 1578.937881,623.522369 1578.937881C665.062424 1578.937881,704.896149 1562.433701,734.267181 1533.062668C763.638214 1503.691635,780.142395 1463.857910,780.142395 1422.317856Z" style="stroke:rgb(25.500488%,41.000366%,88.400269%); stroke-width: 2.500000;stroke-linecap: round;stroke-linejoin: round;stroke-miterlimit: 10.000000;fill: none;"></path>
  <path d="M989.743317 1348.250992C989.743317 1306.710938,973.239136 1266.877213,943.868103 1237.506180C914.497070 1208.135147,874.663345 1191.630966,833.123291 1191.630966C791.583237 1191.630966,751.749512 1208.135147,722.378479 1237.506180C693.007446 1266.877213,676.503265 1306.710938,676.503265 1348.250992C676.503265 1389.791046,693.007446 1429.624771,722.378479 1458.995804C751.749512 1488.366837,791.583237 1504.871017,833.123291 1504.871017C874.663345 1504.871017,914.497070 1488.366837,943.868103 1458.995804C973.239136 1429.624771,989.743317 1389.791046,989.743317 1348.250992Z" style="stroke:rgb(25.500488%,41.000366%,88.400269%); stroke-width: 2.500000;stroke-linecap: round;stroke-linejoin: round;stroke-miterlimit: 10.000000;fill: none;"></path>
  <path d="M1212.956055 1182.859207C1212.956055 1141.319153,1196.451874 1101.485428,1167.080841 1072.114395C1137.709808 1042.743362,1097.876083 1026.239182,1056.336029 1026.239182C1014.795975 1026.239182,974.962250 1042.743362,945.591217 1072.114395C916.220184 1101.485428,899.716003 1141.319153,899.716003 1182.859207C899.716003 1224.399261,916.220184 1264.232986,945.591217 1293.604019C974.962250 1322.975052,1014.795975 1339.479233,1056.336029 1339.479233C1097.876083 1339.479233,1137.709808 1322.975052,1167.080841 1293.604019C1196.451874 1264.232986,1212.956055 1224.399261,1212.956055 1182.859207Z" style="stroke:rgb(25.500488%,41.000366%,88.400269%); stroke-width: 2.500000;stroke-linecap: round;stroke-linejoin: round;stroke-miterlimit: 10.000000;fill: none;"></path>
  <path d="M1464.741882 1070.604050C1464.741882 1029.063995,1448.237701 989.230270,1418.866669 959.859238C1389.495636 930.488205,1349.661911 913.984024,1308.121857 913.984024C1266.581802 913.984024,1226.748077 930.488205,1197.377045 959.859238C1168.006012 989.230270,1151.501831 1029.063995,1151.501831 1070.604050C1151.501831 1112.144104,1168.006012 1151.977829,1197.377045 1181.348862C1226.748077 1210.719894,1266.581802 1227.224075,1308.121857 1227.224075C1349.661911 1227.224075,1389.495636 1210.719894,1418.866669 1181.348862C1448.237701 1151.977829,1464.741882 1112.144104,1464.741882 1070.604050Z" style="stroke:rgb(25.500488%,41.000366%,88.400269%); stroke-width: 2.500000;stroke-linecap: round;stroke-linejoin: round;stroke-miterlimit: 10.000000;fill: none;"></path>
  <path d="M1644.459137 912.971893C1644.459137 871.431839,1627.954956 831.598114,1598.583923 802.227081C1569.212891 772.856049,1529.379166 756.351868,1487.839111 756.351868C1446.299057 756.351868,1406.465332 772.856049,1377.094299 802.227081C1347.723267 831.598114,1331.219086 871.431839,1331.219086 912.971893C1331.219086 954.511948,1347.723267 994.345673,1377.094299 1023.716705C1406.465332 1053.087738,1446.299057 1069.591919,1487.839111 1069.591919C1529.379166 1069.591919,1569.212891 1053.087738,1598.583923 1023.716705C1627.954956 994.345673,1644.459137 954.511948,1644.459137 912.971893Z" style="stroke:rgb(25.500488%,41.000366%,88.400269%); stroke-width: 2.500000;stroke-linecap: round;stroke-linejoin: round;stroke-miterlimit: 10.000000;fill: none;"></path>
  <path d="M1808.838791 684.309250C1808.838791 642.769196,1792.334610 602.935471,1762.963577 573.564438C1733.592545 544.193405,1693.758820 527.689224,1652.218765 527.689224C1610.678711 527.689224,1570.844986 544.193405,1541.473953 573.564438C1512.102921 602.935471,1495.598740 642.769196,1495.598740 684.309250C1495.598740 725.849304,1512.102921 765.683029,1541.473953 795.054062C1570.844986 824.425095,1610.678711 840.929276,1652.218765 840.929276C1693.758820 840.929276,1733.592545 824.425095,1762.963577 795.054062C1792.334610 765.683029,1808.838791 725.849304,1808.838791 684.309250Z" style="stroke:rgb(25.500488%,41.000366%,88.400269%); stroke-width: 2.500000;stroke-linecap: round;stroke-linejoin: round;stroke-miterlimit: 10.000000;fill: none;"></path>
  <path d="M501.768784 1319.016113C501.768784 1277.476059,485.264603 1237.642334,455.893570 1208.271301C426.522537 1178.900269,386.688812 1162.396088,345.148758 1162.396088C303.608704 1162.396088,263.774979 1178.900269,234.403946 1208.271301C205.032913 1237.642334,188.528732 1277.476059,188.528732 1319.016113C188.528732 1360.556168,205.032913 1400.389893,234.403946 1429.760925C263.774979 1459.131958,303.608704 1475.636139,345.148758 1475.636139C386.688812 1475.636139,426.522537 1459.131958,455.893570 1429.760925C485.264603 1400.389893,501.768784 1360.556168,501.768784 1319.016113Z" style="stroke:rgb(25.500488%,41.000366%,88.400269%); stroke-width: 2.500000;stroke-linecap: round;stroke-linejoin: round;stroke-miterlimit: 10.000000;fill: none;"></path>
  <path d="M748.610764 1195.913040C748.610764 1154.372986,732.106583 1114.539261,702.735550 1085.168228C673.364517 1055.797195,633.530792 1039.293015,591.990738 1039.293015C550.450684 1039.293015,510.616959 1055.797195,481.245926 1085.168228C451.874893 1114.539261,435.370712 1154.372986,435.370712 1195.913040C435.370712 1237.453094,451.874893 1277.286819,481.245926 1306.657852C510.616959 1336.028885,550.450684 1352.533066,591.990738 1352.533066C633.530792 1352.533066,673.364517 1336.028885,702.735550 1306.657852C732.106583 1277.286819,748.610764 1237.453094,748.610764 1195.913040Z" style="stroke:rgb(25.500488%,41.000366%,88.400269%); stroke-width: 2.500000;stroke-linecap: round;stroke-linejoin: round;stroke-miterlimit: 10.000000;fill: none;"></path>
  <path d="M972.290634 1076.508118C972.290634 1034.968063,955.786453 995.134338,926.415421 965.763306C897.044388 936.392273,857.210663 919.888092,815.670609 919.888092C774.130554 919.888092,734.296829 936.392273,704.925797 965.763306C675.554764 995.134338,659.050583 1034.968063,659.050583 1076.508118C659.050583 1118.048172,675.554764 1157.881897,704.925797 1187.252930C734.296829 1216.623962,774.130554 1233.128143,815.670609 1233.128143C857.210663 1233.128143,897.044388 1216.623962,926.415421 1187.252930C955.786453 1157.881897,972.290634 1118.048172,972.290634 1076.508118Z" style="stroke:rgb(25.500488%,41.000366%,88.400269%); stroke-width: 2.500000;stroke-linecap: round;stroke-linejoin: round;stroke-miterlimit: 10.000000;fill: none;"></path>
  <path d="M1191.545685 954.689651C1191.545685 913.149597,1175.041504 873.315872,1145.670471 843.944839C1116.299438 814.573807,1076.465714 798.069626,1034.925659 798.069626C993.385605 798.069626,953.551880 814.573807,924.180847 843.944839C894.809814 873.315872,878.305634 913.149597,878.305634 954.689651C878.305634 996.229706,894.809814 1036.063431,924.180847 1065.434464C953.551880 1094.805496,993.385605 1111.309677,1034.925659 1111.309677C1076.465714 1111.309677,1116.299438 1094.805496,1145.670471 1065.434464C1175.041504 1036.063431,1191.545685 996.229706,1191.545685 954.689651Z" style="stroke:rgb(25.500488%,41.000366%,88.400269%); stroke-width: 2.500000;stroke-linecap: round;stroke-linejoin: round;stroke-miterlimit: 10.000000;fill: none;"></path>
  <path d="M1370.847717 811.603577C1370.847717 770.063522,1354.343536 730.229797,1324.972504 700.858765C1295.601471 671.487732,1255.767746 654.983551,1214.227692 654.983551C1172.687637 654.983551,1132.853912 671.487732,1103.482880 700.858765C1074.111847 730.229797,1057.607666 770.063522,1057.607666 811.603577C1057.607666 853.143631,1074.111847 892.977356,1103.482880 922.348389C1132.853912 951.719421,1172.687637 968.223602,1214.227692 968.223602C1255.767746 968.223602,1295.601471 951.719421,1324.972504 922.348389C1354.343536 892.977356,1370.847717 853.143631,1370.847717 811.603577Z" style="stroke:rgb(25.500488%,41.000366%,88.400269%); stroke-width: 2.500000;stroke-linecap: round;stroke-linejoin: round;stroke-miterlimit: 10.000000;fill: none;"></path>
  <path d="M1560.997665 677.743408C1560.997665 636.203354,1544.493484 596.369629,1515.122452 566.998596C1485.751419 537.627563,1445.917694 521.123383,1404.377640 521.123383C1362.837585 521.123383,1323.003860 537.627563,1293.632828 566.998596C1264.261795 596.369629,1247.757614 636.203354,1247.757614 677.743408C1247.757614 719.283463,1264.261795 759.117188,1293.632828 788.488220C1323.003860 817.859253,1362.837585 834.363434,1404.377640 834.363434C1445.917694 834.363434,1485.751419 817.859253,1515.122452 788.488220C1544.493484 759.117188,1560.997665 719.283463,1560.997665 677.743408Z" style="stroke:rgb(25.500488%,41.000366%,88.400269%); stroke-width: 2.500000;stroke-linecap: round;stroke-linejoin: round;stroke-miterlimit: 10.000000;fill: none;"></path>
  <path d="M314.032379 1157.062973C314.032379 1115.522919,297.528198 1075.689194,268.157166 1046.318161C238.786133 1016.947128,198.952408 1000.442947,157.412354 1000.442947C115.872299 1000.442947,76.038574 1016.947128,46.667542 1046.318161C17.296509 1075.689194,0.792328 1115.522919,0.792328 1157.062973C0.792328 1198.603027,17.296509 1238.436752,46.667542 1267.807785C76.038574 1297.178818,115.872299 1313.682999,157.412354 1313.682999C198.952408 1313.682999,238.786133 1297.178818,268.157166 1267.807785C297.528198 1238.436752,314.032379 1198.603027,314.032379 1157.062973Z" style="stroke:rgb(25.500488%,41.000366%,88.400269%); stroke-width: 2.500000;stroke-linecap: round;stroke-linejoin: round;stroke-miterlimit: 10.000000;fill: none;"></path>
  <path d="M560.705673 1037.593155C560.705673 996.053101,544.201492 956.219376,514.830460 926.848343C485.459427 897.477310,445.625702 880.973129,404.085648 880.973129C362.545593 880.973129,322.711868 897.477310,293.340836 926.848343C263.969803 956.219376,247.465622 996.053101,247.465622 1037.593155C247.465622 1079.133209,263.969803 1118.966934,293.340836 1148.337967C322.711868 1177.709000,362.545593 1194.213181,404.085648 1194.213181C445.625702 1194.213181,485.459427 1177.709000,514.830460 1148.337967C544.201492 1118.966934,560.705673 1079.133209,560.705673 1037.593155Z" style="stroke:rgb(25.500488%,41.000366%,88.400269%); stroke-width: 2.500000;stroke-linecap: round;stroke-linejoin: round;stroke-miterlimit: 10.000000;fill: none;"></path>
  <path d="M785.760986 901.617920C785.760986 860.077866,769.256805 820.244141,739.885773 790.873108C710.514740 761.502075,670.681015 744.997894,629.140961 744.997894C587.600906 744.997894,547.767181 761.502075,518.396149 790.873108C489.025116 820.244141,472.520935 860.077866,472.520935 901.617920C472.520935 943.157974,489.025116 982.991699,518.396149 1012.362732C547.767181 1041.733765,587.600906 1058.237946,629.140961 1058.237946C670.681015 1058.237946,710.514740 1041.733765,739.885773 1012.362732C769.256805 982.991699,785.760986 943.157974,785.760986 901.617920Z" style="stroke:rgb(25.500488%,41.000366%,88.400269%); stroke-width: 2.500000;stroke-linecap: round;stroke-linejoin: round;stroke-miterlimit: 10.000000;fill: none;"></path>
  <path d="M980.374664 787.299576C980.374664 745.759521,963.870483 705.925797,934.499451 676.554764C905.128418 647.183731,865.294693 630.679550,823.754639 630.679550C782.214584 630.679550,742.380859 647.183731,713.009827 676.554764C683.638794 705.925797,667.134613 745.759521,667.134613 787.299576C667.134613 828.839630,683.638794 868.673355,713.009827 898.044388C742.380859 927.415421,782.214584 943.919601,823.754639 943.919601C865.294693 943.919601,905.128418 927.415421,934.499451 898.044388C963.870483 868.673355,980.374664 828.839630,980.374664 787.299576Z" style="stroke:rgb(25.500488%,41.000366%,88.400269%); stroke-width: 2.500000;stroke-linecap: round;stroke-linejoin: round;stroke-miterlimit: 10.000000;fill: none;"></path>
  <path d="M1158.677551 653.517258C1158.677551 611.977203,1142.173370 572.143478,1112.802338 542.772446C1083.431305 513.401413,1043.597580 496.897232,1002.057526 496.897232C960.517471 496.897232,920.683746 513.401413,891.312714 542.772446C861.941681 572.143478,845.437500 611.977203,845.437500 653.517258C845.437500 695.057312,861.941681 734.891037,891.312714 764.262070C920.683746 793.633102,960.517471 810.137283,1002.057526 810.137283C1043.597580 810.137283,1083.431305 793.633102,1112.802338 764.262070C1142.173370 734.891037,1158.677551 695.057312,1158.677551 653.517258Z" style="stroke:rgb(25.500488%,41.000366%,88.400269%); stroke-width: 2.500000;stroke-linecap: round;stroke-linejoin: round;stroke-miterlimit: 10.000000;fill: none;"></path>
  <path d="M1386.250198 525.911530C1386.250198 484.371475,1369.746017 444.537750,1340.374985 415.166718C1311.003952 385.795685,1271.170227 369.291504,1229.630173 369.291504C1188.090118 369.291504,1148.256393 385.795685,1118.885361 415.166718C1089.514328 444.537750,1073.010147 484.371475,1073.010147 525.911530C1073.010147 567.451584,1089.514328 607.285309,1118.885361 636.656342C1148.256393 666.027374,1188.090118 682.531555,1229.630173 682.531555C1271.170227 682.531555,1311.003952 666.027374,1340.374985 636.656342C1369.746017 607.285309,1386.250198 567.451584,1386.250198 525.911530Z" style="stroke:rgb(25.500488%,41.000366%,88.400269%); stroke-width: 2.500000;stroke-linecap: round;stroke-linejoin: round;stroke-miterlimit: 10.000000;fill: none;"></path>
  <path d="M1665.752716 440.646393C1665.752716 399.106339,1649.248535 359.272614,1619.877502 329.901581C1590.506470 300.530548,1550.672745 284.026367,1509.132690 284.026367C1467.592636 284.026367,1427.758911 300.530548,1398.387878 329.901581C1369.016846 359.272614,1352.512665 399.106339,1352.512665 440.646393C1352.512665 482.186447,1369.016846 522.020172,1398.387878 551.391205C1427.758911 580.762238,1467.592636 597.266418,1509.132690 597.266418C1550.672745 597.266418,1590.506470 580.762238,1619.877502 551.391205C1649.248535 522.020172,1665.752716 482.186447,1665.752716 440.646393Z" style="stroke:rgb(25.500488%,41.000366%,88.400269%); stroke-width: 2.500000;stroke-linecap: round;stroke-linejoin: round;stroke-miterlimit: 10.000000;fill: none;"></path>
  <path d="M344.564850 905.497726C344.564850 863.957672,328.060669 824.123947,298.689636 794.752914C269.318604 765.381882,229.484879 748.877701,187.944824 748.877701C146.404770 748.877701,106.571045 765.381882,77.200012 794.752914C47.828979 824.123947,31.324799 863.957672,31.324799 905.497726C31.324799 947.037781,47.828979 986.871506,77.200012 1016.242538C106.571045 1045.613571,146.404770 1062.117752,187.944824 1062.117752C229.484879 1062.117752,269.318604 1045.613571,298.689636 1016.242538C328.060669 986.871506,344.564850 947.037781,344.564850 905.497726Z" style="stroke:rgb(25.500488%,41.000366%,88.400269%); stroke-width: 2.500000;stroke-linecap: round;stroke-linejoin: round;stroke-miterlimit: 10.000000;fill: none;"></path>
  <path d="M569.204941 752.082779C569.204941 710.542725,552.700760 670.709000,523.329727 641.337967C493.958694 611.966934,454.124969 595.462753,412.584915 595.462753C371.044861 595.462753,331.211136 611.966934,301.840103 641.337967C272.469070 670.709000,255.964890 710.542725,255.964890 752.082779C255.964890 793.622833,272.469070 833.456558,301.840103 862.827591C331.211136 892.198624,371.044861 908.702805,412.584915 908.702805C454.124969 908.702805,493.958694 892.198624,523.329727 862.827591C552.700760 833.456558,569.204941 793.622833,569.204941 752.082779Z" style="stroke:rgb(25.500488%,41.000366%,88.400269%); stroke-width: 2.500000;stroke-linecap: round;stroke-linejoin: round;stroke-miterlimit: 10.000000;fill: none;"></path>
  <path d="M762.287445 608.672287C762.287445 567.132233,745.783264 527.298508,716.412231 497.927475C687.041199 468.556442,647.207474 452.052261,605.667419 452.052261C564.127365 452.052261,524.293640 468.556442,494.922607 497.927475C465.551575 527.298508,449.047394 567.132233,449.047394 608.672287C449.047394 650.212341,465.551575 690.046066,494.922607 719.417099C524.293640 748.788132,564.127365 765.292313,605.667419 765.292313C647.207474 765.292313,687.041199 748.788132,716.412231 719.417099C745.783264 690.046066,762.287445 650.212341,762.287445 608.672287Z" style="stroke:rgb(25.500488%,41.000366%,88.400269%); stroke-width: 2.500000;stroke-linecap: round;stroke-linejoin: round;stroke-miterlimit: 10.000000;fill: none;"></path>
  <path d="M935.270172 491.395432C935.270172 449.855377,918.765991 410.021652,889.394958 380.650620C860.023926 351.279587,820.190201 334.775406,778.650146 334.775406C737.110092 334.775406,697.276367 351.279587,667.905334 380.650620C638.534302 410.021652,622.030121 449.855377,622.030121 491.395432C622.030121 532.935486,638.534302 572.769211,667.905334 602.140244C697.276367 631.511276,737.110092 648.015457,778.650146 648.015457C820.190201 648.015457,860.023926 631.511276,889.394958 602.140244C918.765991 572.769211,935.270172 532.935486,935.270172 491.395432Z" style="stroke:rgb(25.500488%,41.000366%,88.400269%); stroke-width: 2.500000;stroke-linecap: round;stroke-linejoin: round;stroke-miterlimit: 10.000000;fill: none;"></path>
  <path d="M1161.856659 373.119415C1161.856659 331.579361,1145.352478 291.745636,1115.981445 262.374603C1086.610413 233.003571,1046.776688 216.499390,1005.236633 216.499390C963.696579 216.499390,923.862854 233.003571,894.491821 262.374603C865.120789 291.745636,848.616608 331.579361,848.616608 373.119415C848.616608 414.659470,865.120789 454.493195,894.491821 483.864227C923.862854 513.235260,963.696579 529.739441,1005.236633 529.739441C1046.776688 529.739441,1086.610413 513.235260,1115.981445 483.864227C1145.352478 454.493195,1161.856659 414.659470,1161.856659 373.119415Z" style="stroke:rgb(25.500488%,41.000366%,88.400269%); stroke-width: 2.500000;stroke-linecap: round;stroke-linejoin: round;stroke-miterlimit: 10.000000;fill: none;"></path>
  <path d="M1441.320236 288.334396C1441.320236 246.794342,1424.816055 206.960617,1395.445023 177.589584C1366.073990 148.218552,1326.240265 131.714371,1284.700211 131.714371C1243.160156 131.714371,1203.326431 148.218552,1173.955399 177.589584C1144.584366 206.960617,1128.080185 246.794342,1128.080185 288.334396C1128.080185 329.874451,1144.584366 369.708176,1173.955399 399.079208C1203.326431 428.450241,1243.160156 444.954422,1284.700211 444.954422C1326.240265 444.954422,1366.073990 428.450241,1395.445023 399.079208C1424.816055 369.708176,1441.320236 329.874451,1441.320236 288.334396Z" style="stroke:rgb(25.500488%,41.000366%,88.400269%); stroke-width: 2.500000;stroke-linecap: round;stroke-linejoin: round;stroke-miterlimit: 10.000000;fill: none;"></path>
  <path d="M356.827148 632.145828C356.827148 590.605774,340.322968 550.772049,310.951935 521.401016C281.580902 492.029984,241.747177 475.525803,200.207123 475.525803C158.667068 475.525803,118.833344 492.029984,89.462311 521.401016C60.091278 550.772049,43.587097 590.605774,43.587097 632.145828C43.587097 673.685883,60.091278 713.519608,89.462311 742.890640C118.833344 772.261673,158.667068 788.765854,200.207123 788.765854C241.747177 788.765854,281.580902 772.261673,310.951935 742.890640C340.322968 713.519608,356.827148 673.685883,356.827148 632.145828Z" style="stroke:rgb(25.500488%,41.000366%,88.400269%); stroke-width: 2.500000;stroke-linecap: round;stroke-linejoin: round;stroke-miterlimit: 10.000000;fill: none;"></path>
  <path d="M548.041122 454.271164C548.041122 412.731110,531.536942 372.897385,502.165909 343.526352C472.794876 314.155319,432.961151 297.651138,391.421097 297.651138C349.881042 297.651138,310.047318 314.155319,280.676285 343.526352C251.305252 372.897385,234.801071 412.731110,234.801071 454.271164C234.801071 495.811218,251.305252 535.644943,280.676285 565.015976C310.047318 594.387009,349.881042 610.891190,391.421097 610.891190C432.961151 610.891190,472.794876 594.387009,502.165909 565.015976C531.536942 535.644943,548.041122 495.811218,548.041122 454.271164Z" style="stroke:rgb(25.500488%,41.000366%,88.400269%); stroke-width: 2.500000;stroke-linecap: round;stroke-linejoin: round;stroke-miterlimit: 10.000000;fill: none;"></path>
  <path d="M706.880035 316.751770C706.880035 275.211716,690.375854 235.377991,661.004822 206.006958C631.633789 176.635925,591.800064 160.131744,550.260010 160.131744C508.719955 160.131744,468.886230 176.635925,439.515198 206.006958C410.144165 235.377991,393.639984 275.211716,393.639984 316.751770C393.639984 358.291824,410.144165 398.125549,439.515198 427.496582C468.886230 456.867615,508.719955 473.371796,550.260010 473.371796C591.800064 473.371796,631.633789 456.867615,661.004822 427.496582C690.375854 398.125549,706.880035 358.291824,706.880035 316.751770Z" style="stroke:rgb(25.500488%,41.000366%,88.400269%); stroke-width: 2.500000;stroke-linecap: round;stroke-linejoin: round;stroke-miterlimit: 10.000000;fill: none;"></path>
  <path d="M930.222519 215.279648C930.222519 173.739594,913.718338 133.905869,884.347305 104.534836C854.976273 75.163803,815.142548 58.659622,773.602493 58.659622C732.062439 58.659622,692.228714 75.163803,662.857681 104.534836C633.486649 133.905869,616.982468 173.739594,616.982468 215.279648C616.982468 256.819702,633.486649 296.653427,662.857681 326.024460C692.228714 355.395493,732.062439 371.899673,773.602493 371.899673C815.142548 371.899673,854.976273 355.395493,884.347305 326.024460C913.718338 296.653427,930.222519 256.819702,930.222519 215.279648Z" style="stroke:rgb(25.500488%,41.000366%,88.400269%); stroke-width: 2.500000;stroke-linecap: round;stroke-linejoin: round;stroke-miterlimit: 10.000000;fill: none;"></path>
  <path d="M1183.889862 157.043472C1183.889862 115.503418,1167.385681 75.669693,1138.014648 46.298660C1108.643616 16.927628,1068.809891 0.423447,1027.269836 0.423447C985.729782 0.423447,945.896057 16.927628,916.525024 46.298660C887.153992 75.669693,870.649811 115.503418,870.649811 157.043472C870.649811 198.583527,887.153992 238.417252,916.525024 267.788284C945.896057 297.159317,985.729782 313.663498,1027.269836 313.663498C1068.809891 313.663498,1108.643616 297.159317,1138.014648 267.788284C1167.385681 238.417252,1183.889862 198.583527,1183.889862 157.043472Z" style="stroke:rgb(25.500488%,41.000366%,88.400269%); stroke-width: 2.500000;stroke-linecap: round;stroke-linejoin: round;stroke-miterlimit: 10.000000;fill: none;"></path>
</svg>
