<?xml version="1.0"?>
<!-- Created by MetaPost 2.00 on 2022.03.02:1201 -->
<svg version="1.1" xmlns="http://www.w3.org/2000/svg" xmlns:xlink="http://www.w3.org/1999/xlink" width="1925.280014" height="1854.184662" viewBox="0 0 1925.280014 1854.184662">
<!-- Original BoundingBox: -961.498123 -923.439590 963.781891 930.745071 -->
  <path d="M1811.393524 930.000000L1562.319672 328.680328L961.000000 79.606476L359.680328 328.680328L110.606476 930.000000L359.680328 1531.319672L961.000000 1780.393524L1562.319672 1531.319672L1811.393524 930.000000Z" style="fill: rgb(100.000000%,100.000000%,100.000000%);stroke: none;"></path>
  <path d="M1811.393524 930.000000L1562.319672 328.680328" style="stroke:rgb(0.000000%,0.000000%,0.000000%); stroke-width: 2.500000;stroke-linecap: round;stroke-linejoin: round;stroke-miterlimit: 10.000000;fill: none;"></path>
  <path d="M1562.319672 328.680328L961.000000 79.606476" style="stroke:rgb(0.000000%,0.000000%,0.000000%); stroke-width: 2.500000;stroke-linecap: round;stroke-linejoin: round;stroke-miterlimit: 10.000000;fill: none;"></path>
  <path d="M961.000000 79.606476L359.680328 328.680328" style="stroke:rgb(0.000000%,0.000000%,0.000000%); stroke-width: 2.500000;stroke-linecap: round;stroke-linejoin: round;stroke-miterlimit: 10.000000;fill: none;"></path>
  <path d="M359.680328 328.680328L110.606476 930.000000" style="stroke:rgb(0.000000%,0.000000%,0.000000%); stroke-width: 2.500000;stroke-linecap: round;stroke-linejoin: round;stroke-miterlimit: 10.000000;fill: none;"></path>
  <path d="M110.606476 930.000000L359.680328 1531.319672" style="stroke:rgb(0.000000%,0.000000%,0.000000%); stroke-width: 2.500000;stroke-linecap: round;stroke-linejoin: round;stroke-miterlimit: 10.000000;fill: none;"></path>
  <path d="M359.680328 1531.319672L961.000000 1780.393524" style="stroke:rgb(0.000000%,0.000000%,0.000000%); stroke-width: 2.500000;stroke-linecap: round;stroke-linejoin: round;stroke-miterlimit: 10.000000;fill: none;"></path>
  <path d="M961.000000 1780.393524L1562.319672 1531.319672" style="stroke:rgb(0.000000%,0.000000%,0.000000%); stroke-width: 2.500000;stroke-linecap: round;stroke-linejoin: round;stroke-miterlimit: 10.000000;fill: none;"></path>
  <path d="M1562.319672 1531.319672L1811.393524 930.000000" style="stroke:rgb(0.000000%,0.000000%,0.000000%); stroke-width: 2.500000;stroke-linecap: round;stroke-linejoin: round;stroke-miterlimit: 10.000000;fill: none;"></path>
  <path d="M739.461166 1488.161575C739.461166 1430.542389,716.568619 1375.290009,675.828796 1334.550171C635.088959 1293.810349,579.836578 1270.917801,522.217392 1270.917801C464.598206 1270.917801,409.345825 1293.810349,368.605988 1334.550171C327.866165 1375.290009,304.973618 1430.542389,304.973618 1488.161575C304.973618 1545.780762,327.866165 1601.033142,368.605988 1641.772980C409.345825 1682.512802,464.598206 1705.405350,522.217392 1705.405350C579.836578 1705.405350,635.088959 1682.512802,675.828796 1641.772980C716.568619 1601.033142,739.461166 1545.780762,739.461166 1488.161575Z" style="stroke:rgb(25.500488%,41.000366%,88.400269%); stroke-width: 2.500000;stroke-linecap: round;stroke-linejoin: round;stroke-miterlimit: 10.000000;fill: none;"></path>
  <path d="M1093.822083 1634.945816C1093.822083 1577.326630,1070.929535 1522.074249,1030.189713 1481.334412C989.449875 1440.594589,934.197495 1417.702042,876.578308 1417.702042C818.959122 1417.702042,763.706741 1440.594589,722.966904 1481.334412C682.227081 1522.074249,659.334534 1577.326630,659.334534 1634.945816C659.334534 1692.565002,682.227081 1747.817383,722.966904 1788.557220C763.706741 1829.297043,818.959122 1852.189590,876.578308 1852.189590C934.197495 1852.189590,989.449875 1829.297043,1030.189713 1788.557220C1070.929535 1747.817383,1093.822083 1692.565002,1093.822083 1634.945816Z" style="stroke:rgb(25.500488%,41.000366%,88.400269%); stroke-width: 2.500000;stroke-linecap: round;stroke-linejoin: round;stroke-miterlimit: 10.000000;fill: none;"></path>
  <path d="M636.120499 1232.469986C636.120499 1174.850800,613.227951 1119.598419,572.488129 1078.858582C531.748291 1038.118759,476.495911 1015.226212,418.876724 1015.226212C361.257538 1015.226212,306.005157 1038.118759,265.265320 1078.858582C224.525497 1119.598419,201.632950 1174.850800,201.632950 1232.469986C201.632950 1290.089172,224.525497 1345.341553,265.265320 1386.081390C306.005157 1426.821213,361.257538 1449.713760,418.876724 1449.713760C476.495911 1449.713760,531.748291 1426.821213,572.488129 1386.081390C613.227951 1345.341553,636.120499 1290.089172,636.120499 1232.469986Z" style="stroke:rgb(25.500488%,41.000366%,88.400269%); stroke-width: 2.500000;stroke-linecap: round;stroke-linejoin: round;stroke-miterlimit: 10.000000;fill: none;"></path>
  <path d="M1038.842865 1266.544891C1038.842865 1208.925705,1015.950317 1153.673325,975.210495 1112.933487C934.470657 1072.193665,879.218277 1049.301117,821.599091 1049.301117C763.979904 1049.301117,708.727524 1072.193665,667.987686 1112.933487C627.247864 1153.673325,604.355316 1208.925705,604.355316 1266.544891C604.355316 1324.164078,627.247864 1379.416458,667.987686 1420.156296C708.727524 1460.896118,763.979904 1483.788666,821.599091 1483.788666C879.218277 1483.788666,934.470657 1460.896118,975.210495 1420.156296C1015.950317 1379.416458,1038.842865 1324.164078,1038.842865 1266.544891Z" style="stroke:rgb(25.500488%,41.000366%,88.400269%); stroke-width: 2.500000;stroke-linecap: round;stroke-linejoin: round;stroke-miterlimit: 10.000000;fill: none;"></path>
  <path d="M1347.697037 1527.206299C1347.697037 1469.587112,1324.804489 1414.334732,1284.064667 1373.594894C1243.324829 1332.855072,1188.072449 1309.962524,1130.453262 1309.962524C1072.834076 1309.962524,1017.581696 1332.855072,976.841858 1373.594894C936.102036 1414.334732,913.209488 1469.587112,913.209488 1527.206299C913.209488 1584.825485,936.102036 1640.077866,976.841858 1680.817703C1017.581696 1721.557526,1072.834076 1744.450073,1130.453262 1744.450073C1188.072449 1744.450073,1243.324829 1721.557526,1284.064667 1680.817703C1324.804489 1640.077866,1347.697037 1584.825485,1347.697037 1527.206299Z" style="stroke:rgb(25.500488%,41.000366%,88.400269%); stroke-width: 2.500000;stroke-linecap: round;stroke-linejoin: round;stroke-miterlimit: 10.000000;fill: none;"></path>
  <path d="M1686.668442 1472.343872C1686.668442 1414.724686,1663.775894 1359.472305,1623.036072 1318.732468C1582.296234 1277.992645,1527.043854 1255.100098,1469.424667 1255.100098C1411.805481 1255.100098,1356.553101 1277.992645,1315.813263 1318.732468C1275.073441 1359.472305,1252.180893 1414.724686,1252.180893 1472.343872C1252.180893 1529.963058,1275.073441 1585.215439,1315.813263 1625.955276C1356.553101 1666.695099,1411.805481 1689.587646,1469.424667 1689.587646C1527.043854 1689.587646,1582.296234 1666.695099,1623.036072 1625.955276C1663.775894 1585.215439,1686.668442 1529.963058,1686.668442 1472.343872Z" style="stroke:rgb(25.500488%,41.000366%,88.400269%); stroke-width: 2.500000;stroke-linecap: round;stroke-linejoin: round;stroke-miterlimit: 10.000000;fill: none;"></path>
  <path d="M435.239426 953.979599C435.239426 896.360413,412.346878 841.108032,371.607056 800.368195C330.867218 759.628372,275.614838 736.735825,217.995651 736.735825C160.376465 736.735825,105.124084 759.628372,64.384247 800.368195C23.644424 841.108032,0.751877 896.360413,0.751877 953.979599C0.751877 1011.598785,23.644424 1066.851166,64.384247 1107.591003C105.124084 1148.330826,160.376465 1171.223373,217.995651 1171.223373C275.614838 1171.223373,330.867218 1148.330826,371.607056 1107.591003C412.346878 1066.851166,435.239426 1011.598785,435.239426 953.979599Z" style="stroke:rgb(25.500488%,41.000366%,88.400269%); stroke-width: 2.500000;stroke-linecap: round;stroke-linejoin: round;stroke-miterlimit: 10.000000;fill: none;"></path>
  <path d="M820.236618 954.096390C820.236618 896.477203,797.344070 841.224823,756.604248 800.484985C715.864410 759.745163,660.612030 736.852615,602.992844 736.852615C545.373657 736.852615,490.121277 759.745163,449.381439 800.484985C408.641617 841.224823,385.749069 896.477203,385.749069 954.096390C385.749069 1011.715576,408.641617 1066.967957,449.381439 1107.707794C490.121277 1148.447617,545.373657 1171.340164,602.992844 1171.340164C660.612030 1171.340164,715.864410 1148.447617,756.604248 1107.707794C797.344070 1066.967957,820.236618 1011.715576,820.236618 954.096390Z" style="stroke:rgb(25.500488%,41.000366%,88.400269%); stroke-width: 2.500000;stroke-linecap: round;stroke-linejoin: round;stroke-miterlimit: 10.000000;fill: none;"></path>
  <path d="M1414.354630 1200.185760C1414.354630 1142.566574,1391.462082 1087.314194,1350.722260 1046.574356C1309.982422 1005.834534,1254.730042 982.941986,1197.110855 982.941986C1139.491669 982.941986,1084.239288 1005.834534,1043.499451 1046.574356C1002.759628 1087.314194,979.867081 1142.566574,979.867081 1200.185760C979.867081 1257.804947,1002.759628 1313.057327,1043.499451 1353.797165C1084.239288 1394.536987,1139.491669 1417.429535,1197.110855 1417.429535C1254.730042 1417.429535,1309.982422 1394.536987,1350.722260 1353.797165C1391.462082 1313.057327,1414.354630 1257.804947,1414.354630 1200.185760Z" style="stroke:rgb(25.500488%,41.000366%,88.400269%); stroke-width: 2.500000;stroke-linecap: round;stroke-linejoin: round;stroke-miterlimit: 10.000000;fill: none;"></path>
  <path d="M1793.875946 1132.567947C1793.875946 1074.948761,1770.983398 1019.696381,1730.243576 978.956543C1689.503738 938.216721,1634.251358 915.324173,1576.632172 915.324173C1519.012985 915.324173,1463.760605 938.216721,1423.020767 978.956543C1382.280945 1019.696381,1359.388397 1074.948761,1359.388397 1132.567947C1359.388397 1190.187134,1382.280945 1245.439514,1423.020767 1286.179352C1463.760605 1326.919174,1519.012985 1349.811722,1576.632172 1349.811722C1634.251358 1349.811722,1689.503738 1326.919174,1730.243576 1286.179352C1770.983398 1245.439514,1793.875946 1190.187134,1793.875946 1132.567947Z" style="stroke:rgb(25.500488%,41.000366%,88.400269%); stroke-width: 2.500000;stroke-linecap: round;stroke-linejoin: round;stroke-miterlimit: 10.000000;fill: none;"></path>
  <path d="M599.683960 637.923767C599.683960 580.304581,576.791412 525.052200,536.051590 484.312363C495.311752 443.572540,440.059372 420.679993,382.440186 420.679993C324.820999 420.679993,269.568619 443.572540,228.828781 484.312363C188.088959 525.052200,165.196411 580.304581,165.196411 637.923767C165.196411 695.542953,188.088959 750.795334,228.828781 791.535172C269.568619 832.274994,324.820999 855.167542,382.440186 855.167542C440.059372 855.167542,495.311752 832.274994,536.051590 791.535172C576.791412 750.795334,599.683960 695.542953,599.683960 637.923767Z" style="stroke:rgb(25.500488%,41.000366%,88.400269%); stroke-width: 2.500000;stroke-linecap: round;stroke-linejoin: round;stroke-miterlimit: 10.000000;fill: none;"></path>
  <path d="M961.804504 602.953522C961.804504 545.334335,938.911957 490.081955,898.172134 449.342117C857.432297 408.602295,802.179916 385.709747,744.560730 385.709747C686.941544 385.709747,631.689163 408.602295,590.949326 449.342117C550.209503 490.081955,527.316956 545.334335,527.316956 602.953522C527.316956 660.572708,550.209503 715.825089,590.949326 756.564926C631.689163 797.304749,686.941544 820.197296,744.560730 820.197296C802.179916 820.197296,857.432297 797.304749,898.172134 756.564926C938.911957 715.825089,961.804504 660.572708,961.804504 602.953522Z" style="stroke:rgb(25.500488%,41.000366%,88.400269%); stroke-width: 2.500000;stroke-linecap: round;stroke-linejoin: round;stroke-miterlimit: 10.000000;fill: none;"></path>
  <path d="M1184.498199 914.908936C1184.498199 857.289749,1161.605652 802.037369,1120.865829 761.297531C1080.125992 720.557709,1024.873611 697.665161,967.254425 697.665161C909.635239 697.665161,854.382858 720.557709,813.643021 761.297531C772.903198 802.037369,750.010651 857.289749,750.010651 914.908936C750.010651 972.528122,772.903198 1027.780502,813.643021 1068.520340C854.382858 1109.260162,909.635239 1132.152710,967.254425 1132.152710C1024.873611 1132.152710,1080.125992 1109.260162,1120.865829 1068.520340C1161.605652 1027.780502,1184.498199 972.528122,1184.498199 914.908936Z" style="stroke:rgb(25.500488%,41.000366%,88.400269%); stroke-width: 2.500000;stroke-linecap: round;stroke-linejoin: round;stroke-miterlimit: 10.000000;fill: none;"></path>
  <path d="M1562.540268 851.793793C1562.540268 794.174606,1539.647720 738.922226,1498.907898 698.182388C1458.168060 657.442566,1402.915680 634.550018,1345.296494 634.550018C1287.677307 634.550018,1232.424927 657.442566,1191.685089 698.182388C1150.945267 738.922226,1128.052719 794.174606,1128.052719 851.793793C1128.052719 909.412979,1150.945267 964.665359,1191.685089 1005.405197C1232.424927 1046.145020,1287.677307 1069.037567,1345.296494 1069.037567C1402.915680 1069.037567,1458.168060 1046.145020,1498.907898 1005.405197C1539.647720 964.665359,1562.540268 909.412979,1562.540268 851.793793Z" style="stroke:rgb(25.500488%,41.000366%,88.400269%); stroke-width: 2.500000;stroke-linecap: round;stroke-linejoin: round;stroke-miterlimit: 10.000000;fill: none;"></path>
  <path d="M1923.531891 823.973312C1923.531891 766.354126,1900.639343 711.101746,1859.899521 670.361908C1819.159683 629.622086,1763.907303 606.729538,1706.288116 606.729538C1648.668930 606.729538,1593.416550 629.622086,1552.676712 670.361908C1511.936890 711.101746,1489.044342 766.354126,1489.044342 823.973312C1489.044342 881.592499,1511.936890 936.844879,1552.676712 977.584717C1593.416550 1018.324539,1648.668930 1041.217087,1706.288116 1041.217087C1763.907303 1041.217087,1819.159683 1018.324539,1859.899521 977.584717C1900.639343 936.844879,1923.531891 881.592499,1923.531891 823.973312Z" style="stroke:rgb(25.500488%,41.000366%,88.400269%); stroke-width: 2.500000;stroke-linecap: round;stroke-linejoin: round;stroke-miterlimit: 10.000000;fill: none;"></path>
  <path d="M726.212692 328.031525C726.212692 270.412338,703.320145 215.159958,662.580322 174.420120C621.840485 133.680298,566.588104 110.787750,508.968918 110.787750C451.349731 110.787750,396.097351 133.680298,355.357513 174.420120C314.617691 215.159958,291.725143 270.412338,291.725143 328.031525C291.725143 385.650711,314.617691 440.903091,355.357513 481.642929C396.097351 522.382751,451.349731 545.275299,508.968918 545.275299C566.588104 545.275299,621.840485 522.382751,662.580322 481.642929C703.320145 440.903091,726.212692 385.650711,726.212692 328.031525Z" style="stroke:rgb(25.500488%,41.000366%,88.400269%); stroke-width: 2.500000;stroke-linecap: round;stroke-linejoin: round;stroke-miterlimit: 10.000000;fill: none;"></path>
  <path d="M1107.381973 254.847031C1107.381973 197.227844,1084.489426 141.975464,1043.749603 101.235626C1003.009766 60.495804,947.757385 37.603256,890.138199 37.603256C832.519012 37.603256,777.266632 60.495804,736.526794 101.235626C695.786972 141.975464,672.894424 197.227844,672.894424 254.847031C672.894424 312.466217,695.786972 367.718597,736.526794 408.458435C777.266632 449.198257,832.519012 472.090805,890.138199 472.090805C947.757385 472.090805,1003.009766 449.198257,1043.749603 408.458435C1084.489426 367.718597,1107.381973 312.466217,1107.381973 254.847031Z" style="stroke:rgb(25.500488%,41.000366%,88.400269%); stroke-width: 2.500000;stroke-linecap: round;stroke-linejoin: round;stroke-miterlimit: 10.000000;fill: none;"></path>
  <path d="M1328.596405 567.010071C1328.596405 509.390884,1305.703857 454.138504,1264.964035 413.398666C1224.224197 372.658844,1168.971817 349.766296,1111.352631 349.766296C1053.733444 349.766296,998.481064 372.658844,957.741226 413.398666C917.001404 454.138504,894.108856 509.390884,894.108856 567.010071C894.108856 624.629257,917.001404 679.881638,957.741226 720.621475C998.481064 761.361298,1053.733444 784.253845,1111.352631 784.253845C1168.971817 784.253845,1224.224197 761.361298,1264.964035 720.621475C1305.703857 679.881638,1328.596405 624.629257,1328.596405 567.010071Z" style="stroke:rgb(25.500488%,41.000366%,88.400269%); stroke-width: 2.500000;stroke-linecap: round;stroke-linejoin: round;stroke-miterlimit: 10.000000;fill: none;"></path>
  <path d="M1705.756104 502.714111C1705.756104 445.094925,1682.863556 389.842545,1642.123734 349.102707C1601.383896 308.362885,1546.131516 285.470337,1488.512329 285.470337C1430.893143 285.470337,1375.640762 308.362885,1334.900925 349.102707C1294.161102 389.842545,1271.268555 445.094925,1271.268555 502.714111C1271.268555 560.333298,1294.161102 615.585678,1334.900925 656.325516C1375.640762 697.065338,1430.893143 719.957886,1488.512329 719.957886C1546.131516 719.957886,1601.383896 697.065338,1642.123734 656.325516C1682.863556 615.585678,1705.756104 560.333298,1705.756104 502.714111Z" style="stroke:rgb(25.500488%,41.000366%,88.400269%); stroke-width: 2.500000;stroke-linecap: round;stroke-linejoin: round;stroke-miterlimit: 10.000000;fill: none;"></path>
  <path d="M1473.265549 217.748703C1473.265549 160.129517,1450.373001 104.877136,1409.633179 64.137299C1368.893341 23.397476,1313.640961 0.504929,1256.021774 0.504929C1198.402588 0.504929,1143.150208 23.397476,1102.410370 64.137299C1061.670547 104.877136,1038.778000 160.129517,1038.778000 217.748703C1038.778000 275.367889,1061.670547 330.620270,1102.410370 371.360107C1143.150208 412.099930,1198.402588 434.992477,1256.021774 434.992477C1313.640961 434.992477,1368.893341 412.099930,1409.633179 371.360107C1450.373001 330.620270,1473.265549 275.367889,1473.265549 217.748703Z" style="stroke:rgb(25.500488%,41.000366%,88.400269%); stroke-width: 2.500000;stroke-linecap: round;stroke-linejoin: round;stroke-miterlimit: 10.000000;fill: none;"></path>
</svg>
