<?xml version="1.0"?>
<!-- Created by MetaPost 2.00 on 2022.03.02:1201 -->
<svg version="1.1" xmlns="http://www.w3.org/2000/svg" xmlns:xlink="http://www.w3.org/1999/xlink" width="1822.653061" height="1793.522003" viewBox="0 0 1822.653061 1793.522003">
<!-- Original BoundingBox: -908.841629 -895.113052 913.811432 898.408951 -->
  <path d="M908.000000 47.606476L448.248215 182.608521L134.450195 544.729065L66.261444 1019.026917L265.312912 1454.889938L668.411591 1713.942307L1147.588409 1713.942307L1550.687088 1454.889938L1749.738556 1019.026917L1681.549805 544.729065L1367.751785 182.608521L908.000000 47.606476Z" style="fill: rgb(100.000000%,100.000000%,100.000000%);stroke: none;"></path>
  <path d="M908.000000 47.606476L448.248215 182.608521" style="stroke:rgb(0.000000%,0.000000%,0.000000%); stroke-width: 2.500000;stroke-linecap: round;stroke-linejoin: round;stroke-miterlimit: 10.000000;fill: none;"></path>
  <path d="M448.248215 182.608521L134.450195 544.729065" style="stroke:rgb(0.000000%,0.000000%,0.000000%); stroke-width: 2.500000;stroke-linecap: round;stroke-linejoin: round;stroke-miterlimit: 10.000000;fill: none;"></path>
  <path d="M134.450195 544.729065L66.261444 1019.026917" style="stroke:rgb(0.000000%,0.000000%,0.000000%); stroke-width: 2.500000;stroke-linecap: round;stroke-linejoin: round;stroke-miterlimit: 10.000000;fill: none;"></path>
  <path d="M66.261444 1019.026917L265.312912 1454.889938" style="stroke:rgb(0.000000%,0.000000%,0.000000%); stroke-width: 2.500000;stroke-linecap: round;stroke-linejoin: round;stroke-miterlimit: 10.000000;fill: none;"></path>
  <path d="M265.312912 1454.889938L668.411591 1713.942307" style="stroke:rgb(0.000000%,0.000000%,0.000000%); stroke-width: 2.500000;stroke-linecap: round;stroke-linejoin: round;stroke-miterlimit: 10.000000;fill: none;"></path>
  <path d="M668.411591 1713.942307L1147.588409 1713.942307" style="stroke:rgb(0.000000%,0.000000%,0.000000%); stroke-width: 2.500000;stroke-linecap: round;stroke-linejoin: round;stroke-miterlimit: 10.000000;fill: none;"></path>
  <path d="M1147.588409 1713.942307L1550.687088 1454.889938" style="stroke:rgb(0.000000%,0.000000%,0.000000%); stroke-width: 2.500000;stroke-linecap: round;stroke-linejoin: round;stroke-miterlimit: 10.000000;fill: none;"></path>
  <path d="M1550.687088 1454.889938L1749.738556 1019.026917" style="stroke:rgb(0.000000%,0.000000%,0.000000%); stroke-width: 2.500000;stroke-linecap: round;stroke-linejoin: round;stroke-miterlimit: 10.000000;fill: none;"></path>
  <path d="M1749.738556 1019.026917L1681.549805 544.729065" style="stroke:rgb(0.000000%,0.000000%,0.000000%); stroke-width: 2.500000;stroke-linecap: round;stroke-linejoin: round;stroke-miterlimit: 10.000000;fill: none;"></path>
  <path d="M1681.549805 544.729065L1367.751785 182.608521" style="stroke:rgb(0.000000%,0.000000%,0.000000%); stroke-width: 2.500000;stroke-linecap: round;stroke-linejoin: round;stroke-miterlimit: 10.000000;fill: none;"></path>
  <path d="M1367.751785 182.608521L908.000000 47.606476" style="stroke:rgb(0.000000%,0.000000%,0.000000%); stroke-width: 2.500000;stroke-linecap: round;stroke-linejoin: round;stroke-miterlimit: 10.000000;fill: none;"></path>
  <path d="M1274.078232 1667.436417C1274.078232 1634.434952,1260.966507 1602.789093,1237.632706 1579.455307C1214.298920 1556.121506,1182.653061 1543.009781,1149.651596 1543.009781C1116.650131 1543.009781,1085.004272 1556.121506,1061.670486 1579.455307C1038.336685 1602.789093,1025.224960 1634.434952,1025.224960 1667.436417C1025.224960 1700.437881,1038.336685 1732.083740,1061.670486 1755.417526C1085.004272 1778.751328,1116.650131 1791.863052,1149.651596 1791.863052C1182.653061 1791.863052,1214.298920 1778.751328,1237.632706 1755.417526C1260.966507 1732.083740,1274.078232 1700.437881,1274.078232 1667.436417Z" style="stroke:rgb(25.500488%,41.000366%,88.400269%); stroke-width: 2.500000;stroke-linecap: round;stroke-linejoin: round;stroke-miterlimit: 10.000000;fill: none;"></path>
  <path d="M1446.879288 1522.598572C1446.879288 1489.597107,1433.767563 1457.951248,1410.433762 1434.617462C1387.099976 1411.283661,1355.454117 1398.171936,1322.452652 1398.171936C1289.451187 1398.171936,1257.805328 1411.283661,1234.471542 1434.617462C1211.137741 1457.951248,1198.026016 1489.597107,1198.026016 1522.598572C1198.026016 1555.600037,1211.137741 1587.245895,1234.471542 1610.579681C1257.805328 1633.913483,1289.451187 1647.025208,1322.452652 1647.025208C1355.454117 1647.025208,1387.099976 1633.913483,1410.433762 1610.579681C1433.767563 1587.245895,1446.879288 1555.600037,1446.879288 1522.598572Z" style="stroke:rgb(25.500488%,41.000366%,88.400269%); stroke-width: 2.500000;stroke-linecap: round;stroke-linejoin: round;stroke-miterlimit: 10.000000;fill: none;"></path>
  <path d="M1597.180008 1399.884781C1597.180008 1366.883316,1584.068283 1335.237457,1560.734482 1311.903671C1537.400696 1288.569870,1505.754837 1275.458145,1472.753372 1275.458145C1439.751907 1275.458145,1408.106049 1288.569870,1384.772263 1311.903671C1361.438461 1335.237457,1348.326736 1366.883316,1348.326736 1399.884781C1348.326736 1432.886246,1361.438461 1464.532104,1384.772263 1487.865891C1408.106049 1511.199692,1439.751907 1524.311417,1472.753372 1524.311417C1505.754837 1524.311417,1537.400696 1511.199692,1560.734482 1487.865891C1584.068283 1464.532104,1597.180008 1432.886246,1597.180008 1399.884781Z" style="stroke:rgb(25.500488%,41.000366%,88.400269%); stroke-width: 2.500000;stroke-linecap: round;stroke-linejoin: round;stroke-miterlimit: 10.000000;fill: none;"></path>
  <path d="M1697.951431 1241.344315C1697.951431 1208.342850,1684.839706 1176.696991,1661.505905 1153.363205C1638.172119 1130.029404,1606.526260 1116.917679,1573.524796 1116.917679C1540.523331 1116.917679,1508.877472 1130.029404,1485.543686 1153.363205C1462.209885 1176.696991,1449.098160 1208.342850,1449.098160 1241.344315C1449.098160 1274.345779,1462.209885 1305.991638,1485.543686 1329.325424C1508.877472 1352.659225,1540.523331 1365.770950,1573.524796 1365.770950C1606.526260 1365.770950,1638.172119 1352.659225,1661.505905 1329.325424C1684.839706 1305.991638,1697.951431 1274.345779,1697.951431 1241.344315Z" style="stroke:rgb(25.500488%,41.000366%,88.400269%); stroke-width: 2.500000;stroke-linecap: round;stroke-linejoin: round;stroke-miterlimit: 10.000000;fill: none;"></path>
  <path d="M1820.561432 1051.557693C1820.561432 1018.556229,1807.449707 986.910370,1784.115906 963.576584C1760.782120 940.242783,1729.136261 927.131058,1696.134796 927.131058C1663.133331 927.131058,1631.487473 940.242783,1608.153687 963.576584C1584.819885 986.910370,1571.708160 1018.556229,1571.708160 1051.557693C1571.708160 1084.559158,1584.819885 1116.205017,1608.153687 1139.538803C1631.487473 1162.872604,1663.133331 1175.984329,1696.134796 1175.984329C1729.136261 1175.984329,1760.782120 1162.872604,1784.115906 1139.538803C1807.449707 1116.205017,1820.561432 1084.559158,1820.561432 1051.557693Z" style="stroke:rgb(25.500488%,41.000366%,88.400269%); stroke-width: 2.500000;stroke-linecap: round;stroke-linejoin: round;stroke-miterlimit: 10.000000;fill: none;"></path>
  <path d="M1053.032486 1648.206024C1053.032486 1615.204559,1039.920761 1583.558701,1016.586960 1560.224915C993.253174 1536.891113,961.607315 1523.779388,928.605850 1523.779388C895.604385 1523.779388,863.958527 1536.891113,840.624741 1560.224915C817.290939 1583.558701,804.179214 1615.204559,804.179214 1648.206024C804.179214 1681.207489,817.290939 1712.853348,840.624741 1736.187134C863.958527 1759.520935,895.604385 1772.632660,928.605850 1772.632660C961.607315 1772.632660,993.253174 1759.520935,1016.586960 1736.187134C1039.920761 1712.853348,1053.032486 1681.207489,1053.032486 1648.206024Z" style="stroke:rgb(25.500488%,41.000366%,88.400269%); stroke-width: 2.500000;stroke-linecap: round;stroke-linejoin: round;stroke-miterlimit: 10.000000;fill: none;"></path>
  <path d="M1221.019455 1488.938889C1221.019455 1455.937424,1207.907730 1424.291565,1184.573929 1400.957779C1161.240143 1377.623978,1129.594284 1364.512253,1096.592819 1364.512253C1063.591354 1364.512253,1031.945496 1377.623978,1008.611710 1400.957779C985.277908 1424.291565,972.166183 1455.937424,972.166183 1488.938889C972.166183 1521.940353,985.277908 1553.586212,1008.611710 1576.919998C1031.945496 1600.253799,1063.591354 1613.365524,1096.592819 1613.365524C1129.594284 1613.365524,1161.240143 1600.253799,1184.573929 1576.919998C1207.907730 1553.586212,1221.019455 1521.940353,1221.019455 1488.938889Z" style="stroke:rgb(25.500488%,41.000366%,88.400269%); stroke-width: 2.500000;stroke-linecap: round;stroke-linejoin: round;stroke-miterlimit: 10.000000;fill: none;"></path>
  <path d="M1380.922409 1338.923645C1380.922409 1305.922180,1367.810684 1274.276321,1344.476883 1250.942535C1321.143097 1227.608734,1289.497238 1214.497009,1256.495773 1214.497009C1223.494308 1214.497009,1191.848450 1227.608734,1168.514664 1250.942535C1145.180862 1274.276321,1132.069138 1305.922180,1132.069138 1338.923645C1132.069138 1371.925110,1145.180862 1403.570969,1168.514664 1426.904755C1191.848450 1450.238556,1223.494308 1463.350281,1256.495773 1463.350281C1289.497238 1463.350281,1321.143097 1450.238556,1344.476883 1426.904755C1367.810684 1403.570969,1380.922409 1371.925110,1380.922409 1338.923645Z" style="stroke:rgb(25.500488%,41.000366%,88.400269%); stroke-width: 2.500000;stroke-linecap: round;stroke-linejoin: round;stroke-miterlimit: 10.000000;fill: none;"></path>
  <path d="M1506.646637 1193.527847C1506.646637 1160.526382,1493.534912 1128.880524,1470.201111 1105.546738C1446.867325 1082.212936,1415.221466 1069.101212,1382.220001 1069.101212C1349.218536 1069.101212,1317.572678 1082.212936,1294.238892 1105.546738C1270.905090 1128.880524,1257.793365 1160.526382,1257.793365 1193.527847C1257.793365 1226.529312,1270.905090 1258.175171,1294.238892 1281.508957C1317.572678 1304.842758,1349.218536 1317.954483,1382.220001 1317.954483C1415.221466 1317.954483,1446.867325 1304.842758,1470.201111 1281.508957C1493.534912 1258.175171,1506.646637 1226.529312,1506.646637 1193.527847Z" style="stroke:rgb(25.500488%,41.000366%,88.400269%); stroke-width: 2.500000;stroke-linecap: round;stroke-linejoin: round;stroke-miterlimit: 10.000000;fill: none;"></path>
  <path d="M1638.223022 1020.622971C1638.223022 987.621506,1625.111298 955.975647,1601.777496 932.641861C1578.443710 909.308060,1546.797852 896.196335,1513.796387 896.196335C1480.794922 896.196335,1449.149063 909.308060,1425.815277 932.641861C1402.481476 955.975647,1389.369751 987.621506,1389.369751 1020.622971C1389.369751 1053.624435,1402.481476 1085.270294,1425.815277 1108.604080C1449.149063 1131.937881,1480.794922 1145.049606,1513.796387 1145.049606C1546.797852 1145.049606,1578.443710 1131.937881,1601.777496 1108.604080C1625.111298 1085.270294,1638.223022 1053.624435,1638.223022 1020.622971Z" style="stroke:rgb(25.500488%,41.000366%,88.400269%); stroke-width: 2.500000;stroke-linecap: round;stroke-linejoin: round;stroke-miterlimit: 10.000000;fill: none;"></path>
  <path d="M1779.622223 840.957611C1779.622223 807.956146,1766.510498 776.310287,1743.176697 752.976501C1719.842911 729.642700,1688.197052 716.530975,1655.195587 716.530975C1622.194122 716.530975,1590.548264 729.642700,1567.214478 752.976501C1543.880676 776.310287,1530.768951 807.956146,1530.768951 840.957611C1530.768951 873.959076,1543.880676 905.604935,1567.214478 928.938721C1590.548264 952.272522,1622.194122 965.384247,1655.195587 965.384247C1688.197052 965.384247,1719.842911 952.272522,1743.176697 928.938721C1766.510498 905.604935,1779.622223 873.959076,1779.622223 840.957611Z" style="stroke:rgb(25.500488%,41.000366%,88.400269%); stroke-width: 2.500000;stroke-linecap: round;stroke-linejoin: round;stroke-miterlimit: 10.000000;fill: none;"></path>
  <path d="M854.993149 1630.597626C854.993149 1597.596161,841.881424 1565.950302,818.547623 1542.616516C795.213837 1519.282715,763.567978 1506.170990,730.566513 1506.170990C697.565048 1506.170990,665.919189 1519.282715,642.585403 1542.616516C619.251602 1565.950302,606.139877 1597.596161,606.139877 1630.597626C606.139877 1663.599091,619.251602 1695.244949,642.585403 1718.578735C665.919189 1741.912537,697.565048 1755.024261,730.566513 1755.024261C763.567978 1755.024261,795.213837 1741.912537,818.547623 1718.578735C841.881424 1695.244949,854.993149 1663.599091,854.993149 1630.597626Z" style="stroke:rgb(25.500488%,41.000366%,88.400269%); stroke-width: 2.500000;stroke-linecap: round;stroke-linejoin: round;stroke-miterlimit: 10.000000;fill: none;"></path>
  <path d="M1008.252396 1457.978226C1008.252396 1424.976761,995.140671 1393.330902,971.806870 1369.997116C948.473083 1346.663315,916.827225 1333.551590,883.825760 1333.551590C850.824295 1333.551590,819.178436 1346.663315,795.844650 1369.997116C772.510849 1393.330902,759.399124 1424.976761,759.399124 1457.978226C759.399124 1490.979691,772.510849 1522.625549,795.844650 1545.959335C819.178436 1569.293137,850.824295 1582.404861,883.825760 1582.404861C916.827225 1582.404861,948.473083 1569.293137,971.806870 1545.959335C995.140671 1522.625549,1008.252396 1490.979691,1008.252396 1457.978226Z" style="stroke:rgb(25.500488%,41.000366%,88.400269%); stroke-width: 2.500000;stroke-linecap: round;stroke-linejoin: round;stroke-miterlimit: 10.000000;fill: none;"></path>
  <path d="M1163.354233 1293.559631C1163.354233 1260.558167,1150.242508 1228.912308,1126.908707 1205.578522C1103.574921 1182.244720,1071.929062 1169.132996,1038.927597 1169.132996C1005.926132 1169.132996,974.280273 1182.244720,950.946487 1205.578522C927.612686 1228.912308,914.500961 1260.558167,914.500961 1293.559631C914.500961 1326.561096,927.612686 1358.206955,950.946487 1381.540741C974.280273 1404.874542,1005.926132 1417.986267,1038.927597 1417.986267C1071.929062 1417.986267,1103.574921 1404.874542,1126.908707 1381.540741C1150.242508 1358.206955,1163.354233 1326.561096,1163.354233 1293.559631Z" style="stroke:rgb(25.500488%,41.000366%,88.400269%); stroke-width: 2.500000;stroke-linecap: round;stroke-linejoin: round;stroke-miterlimit: 10.000000;fill: none;"></path>
  <path d="M1310.968918 1140.079803C1310.968918 1107.078339,1297.857193 1075.432480,1274.523392 1052.098694C1251.189606 1028.764893,1219.543747 1015.653168,1186.542282 1015.653168C1153.540817 1015.653168,1121.894958 1028.764893,1098.561172 1052.098694C1075.227371 1075.432480,1062.115646 1107.078339,1062.115646 1140.079803C1062.115646 1173.081268,1075.227371 1204.727127,1098.561172 1228.060913C1121.894958 1251.394714,1153.540817 1264.506439,1186.542282 1264.506439C1219.543747 1264.506439,1251.189606 1251.394714,1274.523392 1228.060913C1297.857193 1204.727127,1310.968918 1173.081268,1310.968918 1140.079803Z" style="stroke:rgb(25.500488%,41.000366%,88.400269%); stroke-width: 2.500000;stroke-linecap: round;stroke-linejoin: round;stroke-miterlimit: 10.000000;fill: none;"></path>
  <path d="M1445.322174 974.091125C1445.322174 941.089661,1432.210449 909.443802,1408.876648 886.110016C1385.542862 862.776215,1353.897003 849.664490,1320.895538 849.664490C1287.894073 849.664490,1256.248215 862.776215,1232.914429 886.110016C1209.580627 909.443802,1196.468903 941.089661,1196.468903 974.091125C1196.468903 1007.092590,1209.580627 1038.738449,1232.914429 1062.072235C1256.248215 1085.406036,1287.894073 1098.517761,1320.895538 1098.517761C1353.897003 1098.517761,1385.542862 1085.406036,1408.876648 1062.072235C1432.210449 1038.738449,1445.322174 1007.092590,1445.322174 974.091125Z" style="stroke:rgb(25.500488%,41.000366%,88.400269%); stroke-width: 2.500000;stroke-linecap: round;stroke-linejoin: round;stroke-miterlimit: 10.000000;fill: none;"></path>
  <path d="M1591.483566 804.144775C1591.483566 771.143311,1578.371841 739.497452,1555.038040 716.163666C1531.704254 692.829865,1500.058395 679.718140,1467.056931 679.718140C1434.055466 679.718140,1402.409607 692.829865,1379.075821 716.163666C1355.742020 739.497452,1342.630295 771.143311,1342.630295 804.144775C1342.630295 837.146240,1355.742020 868.792099,1379.075821 892.125885C1402.409607 915.459686,1434.055466 928.571411,1467.056931 928.571411C1500.058395 928.571411,1531.704254 915.459686,1555.038040 892.125885C1578.371841 868.792099,1591.483566 837.146240,1591.483566 804.144775Z" style="stroke:rgb(25.500488%,41.000366%,88.400269%); stroke-width: 2.500000;stroke-linecap: round;stroke-linejoin: round;stroke-miterlimit: 10.000000;fill: none;"></path>
  <path d="M1742.510941 642.165665C1742.510941 609.164200,1729.399216 577.518341,1706.065414 554.184555C1682.731628 530.850754,1651.085770 517.739029,1618.084305 517.739029C1585.082840 517.739029,1553.436981 530.850754,1530.103195 554.184555C1506.769394 577.518341,1493.657669 609.164200,1493.657669 642.165665C1493.657669 675.167130,1506.769394 706.812988,1530.103195 730.146774C1553.436981 753.480576,1585.082840 766.592300,1618.084305 766.592300C1651.085770 766.592300,1682.731628 753.480576,1706.065414 730.146774C1729.399216 706.812988,1742.510941 675.167130,1742.510941 642.165665Z" style="stroke:rgb(25.500488%,41.000366%,88.400269%); stroke-width: 2.500000;stroke-linecap: round;stroke-linejoin: round;stroke-miterlimit: 10.000000;fill: none;"></path>
  <path d="M688.096146 1568.118301C688.096146 1535.116837,674.984421 1503.470978,651.650620 1480.137192C628.316833 1456.803391,596.670975 1443.691666,563.669510 1443.691666C530.668045 1443.691666,499.022186 1456.803391,475.688400 1480.137192C452.354599 1503.470978,439.242874 1535.116837,439.242874 1568.118301C439.242874 1601.119766,452.354599 1632.765625,475.688400 1656.099411C499.022186 1679.433212,530.668045 1692.544937,563.669510 1692.544937C596.670975 1692.544937,628.316833 1679.433212,651.650620 1656.099411C674.984421 1632.765625,688.096146 1601.119766,688.096146 1568.118301Z" style="stroke:rgb(25.500488%,41.000366%,88.400269%); stroke-width: 2.500000;stroke-linecap: round;stroke-linejoin: round;stroke-miterlimit: 10.000000;fill: none;"></path>
  <path d="M826.056717 1411.096024C826.056717 1378.094559,812.944992 1346.448700,789.611191 1323.114914C766.277405 1299.781113,734.631546 1286.669388,701.630081 1286.669388C668.628616 1286.669388,636.982758 1299.781113,613.648972 1323.114914C590.315170 1346.448700,577.203445 1378.094559,577.203445 1411.096024C577.203445 1444.097488,590.315170 1475.743347,613.648972 1499.077133C636.982758 1522.410934,668.628616 1535.522659,701.630081 1535.522659C734.631546 1535.522659,766.277405 1522.410934,789.611191 1499.077133C812.944992 1475.743347,826.056717 1444.097488,826.056717 1411.096024Z" style="stroke:rgb(25.500488%,41.000366%,88.400269%); stroke-width: 2.500000;stroke-linecap: round;stroke-linejoin: round;stroke-miterlimit: 10.000000;fill: none;"></path>
  <path d="M964.173004 1248.039917C964.173004 1215.038452,951.061279 1183.392593,927.727478 1160.058807C904.393692 1136.725006,872.747833 1123.613281,839.746368 1123.613281C806.744904 1123.613281,775.099045 1136.725006,751.765259 1160.058807C728.431458 1183.392593,715.319733 1215.038452,715.319733 1248.039917C715.319733 1281.041382,728.431458 1312.687241,751.765259 1336.021027C775.099045 1359.354828,806.744904 1372.466553,839.746368 1372.466553C872.747833 1372.466553,904.393692 1359.354828,927.727478 1336.021027C951.061279 1312.687241,964.173004 1281.041382,964.173004 1248.039917Z" style="stroke:rgb(25.500488%,41.000366%,88.400269%); stroke-width: 2.500000;stroke-linecap: round;stroke-linejoin: round;stroke-miterlimit: 10.000000;fill: none;"></path>
  <path d="M1106.986588 1080.195663C1106.986588 1047.194199,1093.874863 1015.548340,1070.541061 992.214554C1047.207275 968.880753,1015.561417 955.769028,982.559952 955.769028C949.558487 955.769028,917.912628 968.880753,894.578842 992.214554C871.245041 1015.548340,858.133316 1047.194199,858.133316 1080.195663C858.133316 1113.197128,871.245041 1144.842987,894.578842 1168.176773C917.912628 1191.510574,949.558487 1204.622299,982.559952 1204.622299C1015.561417 1204.622299,1047.207275 1191.510574,1070.541061 1168.176773C1093.874863 1144.842987,1106.986588 1113.197128,1106.986588 1080.195663Z" style="stroke:rgb(25.500488%,41.000366%,88.400269%); stroke-width: 2.500000;stroke-linecap: round;stroke-linejoin: round;stroke-miterlimit: 10.000000;fill: none;"></path>
  <path d="M1244.752518 924.899200C1244.752518 891.897736,1231.640793 860.251877,1208.306992 836.918091C1184.973206 813.584290,1153.327347 800.472565,1120.325882 800.472565C1087.324417 800.472565,1055.678558 813.584290,1032.344772 836.918091C1009.010971 860.251877,995.899246 891.897736,995.899246 924.899200C995.899246 957.900665,1009.010971 989.546524,1032.344772 1012.880310C1055.678558 1036.214111,1087.324417 1049.325836,1120.325882 1049.325836C1153.327347 1049.325836,1184.973206 1036.214111,1208.306992 1012.880310C1231.640793 989.546524,1244.752518 957.900665,1244.752518 924.899200Z" style="stroke:rgb(25.500488%,41.000366%,88.400269%); stroke-width: 2.500000;stroke-linecap: round;stroke-linejoin: round;stroke-miterlimit: 10.000000;fill: none;"></path>
  <path d="M1393.664810 761.869049C1393.664810 728.867584,1380.553085 697.221725,1357.219284 673.887939C1333.885498 650.554138,1302.239639 637.442413,1269.238174 637.442413C1236.236710 637.442413,1204.590851 650.554138,1181.257065 673.887939C1157.923264 697.221725,1144.811539 728.867584,1144.811539 761.869049C1144.811539 794.870514,1157.923264 826.516373,1181.257065 849.850159C1204.590851 873.183960,1236.236710 886.295685,1269.238174 886.295685C1302.239639 886.295685,1333.885498 873.183960,1357.219284 849.850159C1380.553085 826.516373,1393.664810 794.870514,1393.664810 761.869049Z" style="stroke:rgb(25.500488%,41.000366%,88.400269%); stroke-width: 2.500000;stroke-linecap: round;stroke-linejoin: round;stroke-miterlimit: 10.000000;fill: none;"></path>
  <path d="M1541.201660 592.947800C1541.201660 559.946335,1528.089935 528.300476,1504.756134 504.966690C1481.422348 481.632889,1449.776489 468.521164,1416.775024 468.521164C1383.773560 468.521164,1352.127701 481.632889,1328.793915 504.966690C1305.460114 528.300476,1292.348389 559.946335,1292.348389 592.947800C1292.348389 625.949265,1305.460114 657.595123,1328.793915 680.928909C1352.127701 704.262711,1383.773560 717.374435,1416.775024 717.374435C1449.776489 717.374435,1481.422348 704.262711,1504.756134 680.928909C1528.089935 657.595123,1541.201660 625.949265,1541.201660 592.947800Z" style="stroke:rgb(25.500488%,41.000366%,88.400269%); stroke-width: 2.500000;stroke-linecap: round;stroke-linejoin: round;stroke-miterlimit: 10.000000;fill: none;"></path>
  <path d="M1698.249893 444.878937C1698.249893 411.877472,1685.138168 380.231613,1661.804367 356.897827C1638.470581 333.564026,1606.824722 320.452301,1573.823257 320.452301C1540.821793 320.452301,1509.175934 333.564026,1485.842148 356.897827C1462.508347 380.231613,1449.396622 411.877472,1449.396622 444.878937C1449.396622 477.880402,1462.508347 509.526260,1485.842148 532.860046C1509.175934 556.193848,1540.821793 569.305573,1573.823257 569.305573C1606.824722 569.305573,1638.470581 556.193848,1661.804367 532.860046C1685.138168 509.526260,1698.249893 477.880402,1698.249893 444.878937Z" style="stroke:rgb(25.500488%,41.000366%,88.400269%); stroke-width: 2.500000;stroke-linecap: round;stroke-linejoin: round;stroke-miterlimit: 10.000000;fill: none;"></path>
  <path d="M483.971085 1471.122879C483.971085 1438.121414,470.859360 1406.475555,447.525558 1383.141769C424.191772 1359.807968,392.545914 1346.696243,359.544449 1346.696243C326.542984 1346.696243,294.897125 1359.807968,271.563339 1383.141769C248.229538 1406.475555,235.117813 1438.121414,235.117813 1471.122879C235.117813 1504.124344,248.229538 1535.770203,271.563339 1559.103989C294.897125 1582.437790,326.542984 1595.549515,359.544449 1595.549515C392.545914 1595.549515,424.191772 1582.437790,447.525558 1559.103989C470.859360 1535.770203,483.971085 1504.124344,483.971085 1471.122879Z" style="stroke:rgb(25.500488%,41.000366%,88.400269%); stroke-width: 2.500000;stroke-linecap: round;stroke-linejoin: round;stroke-miterlimit: 10.000000;fill: none;"></path>
  <path d="M626.654907 1349.499069C626.654907 1316.497604,613.543182 1284.851746,590.209381 1261.517960C566.875595 1238.184158,535.229736 1225.072433,502.228271 1225.072433C469.226807 1225.072433,437.580948 1238.184158,414.247162 1261.517960C390.913361 1284.851746,377.801636 1316.497604,377.801636 1349.499069C377.801636 1382.500534,390.913361 1414.146393,414.247162 1437.480179C437.580948 1460.813980,469.226807 1473.925705,502.228271 1473.925705C535.229736 1473.925705,566.875595 1460.813980,590.209381 1437.480179C613.543182 1414.146393,626.654907 1382.500534,626.654907 1349.499069Z" style="stroke:rgb(25.500488%,41.000366%,88.400269%); stroke-width: 2.500000;stroke-linecap: round;stroke-linejoin: round;stroke-miterlimit: 10.000000;fill: none;"></path>
  <path d="M766.743546 1192.814163C766.743546 1159.812698,753.631821 1128.166840,730.298019 1104.833054C706.964233 1081.499252,675.318375 1068.387527,642.316910 1068.387527C609.315445 1068.387527,577.669586 1081.499252,554.335800 1104.833054C531.001999 1128.166840,517.890274 1159.812698,517.890274 1192.814163C517.890274 1225.815628,531.001999 1257.461487,554.335800 1280.795273C577.669586 1304.129074,609.315445 1317.240799,642.316910 1317.240799C675.318375 1317.240799,706.964233 1304.129074,730.298019 1280.795273C753.631821 1257.461487,766.743546 1225.815628,766.743546 1192.814163Z" style="stroke:rgb(25.500488%,41.000366%,88.400269%); stroke-width: 2.500000;stroke-linecap: round;stroke-linejoin: round;stroke-miterlimit: 10.000000;fill: none;"></path>
  <path d="M911.866852 1031.133514C911.866852 998.132050,898.755127 966.486191,875.421326 943.152405C852.087540 919.818604,820.441681 906.706879,787.440216 906.706879C754.438751 906.706879,722.792892 919.818604,699.459106 943.152405C676.125305 966.486191,663.013580 998.132050,663.013580 1031.133514C663.013580 1064.134979,676.125305 1095.780838,699.459106 1119.114624C722.792892 1142.448425,754.438751 1155.560150,787.440216 1155.560150C820.441681 1155.560150,852.087540 1142.448425,875.421326 1119.114624C898.755127 1095.780838,911.866852 1064.134979,911.866852 1031.133514Z" style="stroke:rgb(25.500488%,41.000366%,88.400269%); stroke-width: 2.500000;stroke-linecap: round;stroke-linejoin: round;stroke-miterlimit: 10.000000;fill: none;"></path>
  <path d="M1059.364761 864.444122C1059.364761 831.442657,1046.253036 799.796799,1022.919235 776.463013C999.585449 753.129211,967.939590 740.017487,934.938126 740.017487C901.936661 740.017487,870.290802 753.129211,846.957016 776.463013C823.623215 799.796799,810.511490 831.442657,810.511490 864.444122C810.511490 897.445587,823.623215 929.091446,846.957016 952.425232C870.290802 975.759033,901.936661 988.870758,934.938126 988.870758C967.939590 988.870758,999.585449 975.759033,1022.919235 952.425232C1046.253036 929.091446,1059.364761 897.445587,1059.364761 864.444122Z" style="stroke:rgb(25.500488%,41.000366%,88.400269%); stroke-width: 2.500000;stroke-linecap: round;stroke-linejoin: round;stroke-miterlimit: 10.000000;fill: none;"></path>
  <path d="M1208.121338 700.959808C1208.121338 667.958344,1195.009613 636.312485,1171.675812 612.978699C1148.342026 589.644897,1116.696167 576.533173,1083.694702 576.533173C1050.693237 576.533173,1019.047379 589.644897,995.713593 612.978699C972.379791 636.312485,959.268066 667.958344,959.268066 700.959808C959.268066 733.961273,972.379791 765.607132,995.713593 788.940918C1019.047379 812.274719,1050.693237 825.386444,1083.694702 825.386444C1116.696167 825.386444,1148.342026 812.274719,1171.675812 788.940918C1195.009613 765.607132,1208.121338 733.961273,1208.121338 700.959808Z" style="stroke:rgb(25.500488%,41.000366%,88.400269%); stroke-width: 2.500000;stroke-linecap: round;stroke-linejoin: round;stroke-miterlimit: 10.000000;fill: none;"></path>
  <path d="M1358.123611 538.215134C1358.123611 505.213669,1345.011887 473.567810,1321.678085 450.234024C1298.344299 426.900223,1266.698441 413.788498,1233.696976 413.788498C1200.695511 413.788498,1169.049652 426.900223,1145.715866 450.234024C1122.382065 473.567810,1109.270340 505.213669,1109.270340 538.215134C1109.270340 571.216599,1122.382065 602.862457,1145.715866 626.196243C1169.049652 649.530045,1200.695511 662.641769,1233.696976 662.641769C1266.698441 662.641769,1298.344299 649.530045,1321.678085 626.196243C1345.011887 602.862457,1358.123611 571.216599,1358.123611 538.215134Z" style="stroke:rgb(25.500488%,41.000366%,88.400269%); stroke-width: 2.500000;stroke-linecap: round;stroke-linejoin: round;stroke-miterlimit: 10.000000;fill: none;"></path>
  <path d="M1508.554108 370.124344C1508.554108 337.122879,1495.442383 305.477020,1472.108582 282.143234C1448.774796 258.809433,1417.128937 245.697708,1384.127472 245.697708C1351.126007 245.697708,1319.480148 258.809433,1296.146362 282.143234C1272.812561 305.477020,1259.700836 337.122879,1259.700836 370.124344C1259.700836 403.125809,1272.812561 434.771667,1296.146362 458.105453C1319.480148 481.439255,1351.126007 494.550980,1384.127472 494.550980C1417.128937 494.550980,1448.774796 481.439255,1472.108582 458.105453C1495.442383 434.771667,1508.554108 403.125809,1508.554108 370.124344Z" style="stroke:rgb(25.500488%,41.000366%,88.400269%); stroke-width: 2.500000;stroke-linecap: round;stroke-linejoin: round;stroke-miterlimit: 10.000000;fill: none;"></path>
  <path d="M402.326248 1295.752579C402.326248 1262.751114,389.214523 1231.105255,365.880722 1207.771469C342.546936 1184.437668,310.901077 1171.325943,277.899612 1171.325943C244.898148 1171.325943,213.252289 1184.437668,189.918503 1207.771469C166.584702 1231.105255,153.472977 1262.751114,153.472977 1295.752579C153.472977 1328.754044,166.584702 1360.399902,189.918503 1383.733688C213.252289 1407.067490,244.898148 1420.179214,277.899612 1420.179214C310.901077 1420.179214,342.546936 1407.067490,365.880722 1383.733688C389.214523 1360.399902,402.326248 1328.754044,402.326248 1295.752579Z" style="stroke:rgb(25.500488%,41.000366%,88.400269%); stroke-width: 2.500000;stroke-linecap: round;stroke-linejoin: round;stroke-miterlimit: 10.000000;fill: none;"></path>
  <path d="M545.762680 1154.483124C545.762680 1121.481659,532.650955 1089.835800,509.317154 1066.502014C485.983368 1043.168213,454.337509 1030.056488,421.336044 1030.056488C388.334579 1030.056488,356.688721 1043.168213,333.354935 1066.502014C310.021133 1089.835800,296.909409 1121.481659,296.909409 1154.483124C296.909409 1187.484589,310.021133 1219.130447,333.354935 1242.464233C356.688721 1265.798035,388.334579 1278.909760,421.336044 1278.909760C454.337509 1278.909760,485.983368 1265.798035,509.317154 1242.464233C532.650955 1219.130447,545.762680 1187.484589,545.762680 1154.483124Z" style="stroke:rgb(25.500488%,41.000366%,88.400269%); stroke-width: 2.500000;stroke-linecap: round;stroke-linejoin: round;stroke-miterlimit: 10.000000;fill: none;"></path>
  <path d="M692.871307 999.160706C692.871307 966.159241,679.759583 934.513382,656.425781 911.179596C633.091995 887.845795,601.446136 874.734070,568.444672 874.734070C535.443207 874.734070,503.797348 887.845795,480.463562 911.179596C457.129761 934.513382,444.018036 966.159241,444.018036 999.160706C444.018036 1032.162170,457.129761 1063.808029,480.463562 1087.141815C503.797348 1110.475616,535.443207 1123.587341,568.444672 1123.587341C601.446136 1123.587341,633.091995 1110.475616,656.425781 1087.141815C679.759583 1063.808029,692.871307 1032.162170,692.871307 999.160706Z" style="stroke:rgb(25.500488%,41.000366%,88.400269%); stroke-width: 2.500000;stroke-linecap: round;stroke-linejoin: round;stroke-miterlimit: 10.000000;fill: none;"></path>
  <path d="M842.678940 838.647888C842.678940 805.646423,829.567215 774.000565,806.233414 750.666779C782.899628 727.332977,751.253769 714.221252,718.252304 714.221252C685.250839 714.221252,653.604980 727.332977,630.271194 750.666779C606.937393 774.000565,593.825668 805.646423,593.825668 838.647888C593.825668 871.649353,606.937393 903.295212,630.271194 926.628998C653.604980 949.962799,685.250839 963.074524,718.252304 963.074524C751.253769 963.074524,782.899628 949.962799,806.233414 926.628998C829.567215 903.295212,842.678940 871.649353,842.678940 838.647888Z" style="stroke:rgb(25.500488%,41.000366%,88.400269%); stroke-width: 2.500000;stroke-linecap: round;stroke-linejoin: round;stroke-miterlimit: 10.000000;fill: none;"></path>
  <path d="M982.611862 683.961288C982.611862 650.959824,969.500137 619.313965,946.166336 595.980179C922.832550 572.646378,891.186691 559.534653,858.185226 559.534653C825.183762 559.534653,793.537903 572.646378,770.204117 595.980179C746.870316 619.313965,733.758591 650.959824,733.758591 683.961288C733.758591 716.962753,746.870316 748.608612,770.204117 771.942398C793.537903 795.276199,825.183762 808.387924,858.185226 808.387924C891.186691 808.387924,922.832550 795.276199,946.166336 771.942398C969.500137 748.608612,982.611862 716.962753,982.611862 683.961288Z" style="stroke:rgb(25.500488%,41.000366%,88.400269%); stroke-width: 2.500000;stroke-linecap: round;stroke-linejoin: round;stroke-miterlimit: 10.000000;fill: none;"></path>
  <path d="M1132.432480 520.788391C1132.432480 487.786926,1119.320755 456.141068,1095.986954 432.807281C1072.653168 409.473480,1041.007309 396.361755,1008.005844 396.361755C975.004379 396.361755,943.358521 409.473480,920.024734 432.807281C896.690933 456.141068,883.579208 487.786926,883.579208 520.788391C883.579208 553.789856,896.690933 585.435715,920.024734 608.769501C943.358521 632.103302,975.004379 645.215027,1008.005844 645.215027C1041.007309 645.215027,1072.653168 632.103302,1095.986954 608.769501C1119.320755 585.435715,1132.432480 553.789856,1132.432480 520.788391Z" style="stroke:rgb(25.500488%,41.000366%,88.400269%); stroke-width: 2.500000;stroke-linecap: round;stroke-linejoin: round;stroke-miterlimit: 10.000000;fill: none;"></path>
  <path d="M1285.315414 358.887146C1285.315414 325.885681,1272.203690 294.239822,1248.869888 270.906036C1225.536102 247.572235,1193.890244 234.460510,1160.888779 234.460510C1127.887314 234.460510,1096.241455 247.572235,1072.907669 270.906036C1049.573868 294.239822,1036.462143 325.885681,1036.462143 358.887146C1036.462143 391.888611,1049.573868 423.534470,1072.907669 446.868256C1096.241455 470.202057,1127.887314 483.313782,1160.888779 483.313782C1193.890244 483.313782,1225.536102 470.202057,1248.869888 446.868256C1272.203690 423.534470,1285.315414 391.888611,1285.315414 358.887146Z" style="stroke:rgb(25.500488%,41.000366%,88.400269%); stroke-width: 2.500000;stroke-linecap: round;stroke-linejoin: round;stroke-miterlimit: 10.000000;fill: none;"></path>
  <path d="M1438.263245 209.974854C1438.263245 176.973389,1425.151520 145.327530,1401.817719 121.993744C1378.483932 98.659943,1346.838074 85.548218,1313.836609 85.548218C1280.835144 85.548218,1249.189285 98.659943,1225.855499 121.993744C1202.521698 145.327530,1189.409973 176.973389,1189.409973 209.974854C1189.409973 242.976318,1202.521698 274.622177,1225.855499 297.955963C1249.189285 321.289764,1280.835144 334.401489,1313.836609 334.401489C1346.838074 334.401489,1378.483932 321.289764,1401.817719 297.955963C1425.151520 274.622177,1438.263245 242.976318,1438.263245 209.974854Z" style="stroke:rgb(25.500488%,41.000366%,88.400269%); stroke-width: 2.500000;stroke-linecap: round;stroke-linejoin: round;stroke-miterlimit: 10.000000;fill: none;"></path>
  <path d="M321.511871 1118.747299C321.511871 1085.745834,308.400146 1054.099976,285.066345 1030.766190C261.732559 1007.432388,230.086700 994.320663,197.085236 994.320663C164.083771 994.320663,132.437912 1007.432388,109.104126 1030.766190C85.770325 1054.099976,72.658600 1085.745834,72.658600 1118.747299C72.658600 1151.748764,85.770325 1183.394623,109.104126 1206.728409C132.437912 1230.062210,164.083771 1243.173935,197.085236 1243.173935C230.086700 1243.173935,261.732559 1230.062210,285.066345 1206.728409C308.400146 1183.394623,321.511871 1151.748764,321.511871 1118.747299Z" style="stroke:rgb(25.500488%,41.000366%,88.400269%); stroke-width: 2.500000;stroke-linecap: round;stroke-linejoin: round;stroke-miterlimit: 10.000000;fill: none;"></path>
  <path d="M478.274628 967.434448C478.274628 934.432983,465.162903 902.787125,441.829102 879.453339C418.495316 856.119537,386.849457 843.007812,353.847992 843.007812C320.846527 843.007812,289.200668 856.119537,265.866882 879.453339C242.533081 902.787125,229.421356 934.432983,229.421356 967.434448C229.421356 1000.435913,242.533081 1032.081772,265.866882 1055.415558C289.200668 1078.749359,320.846527 1091.861084,353.847992 1091.861084C386.849457 1091.861084,418.495316 1078.749359,441.829102 1055.415558C465.162903 1032.081772,478.274628 1000.435913,478.274628 967.434448Z" style="stroke:rgb(25.500488%,41.000366%,88.400269%); stroke-width: 2.500000;stroke-linecap: round;stroke-linejoin: round;stroke-miterlimit: 10.000000;fill: none;"></path>
  <path d="M626.577057 802.782288C626.577057 769.780823,613.465332 738.134964,590.131531 714.801178C566.797745 691.467377,535.151886 678.355652,502.150421 678.355652C469.148956 678.355652,437.503098 691.467377,414.169312 714.801178C390.835510 738.134964,377.723785 769.780823,377.723785 802.782288C377.723785 835.783752,390.835510 867.429611,414.169312 890.763397C437.503098 914.097198,469.148956 927.208923,502.150421 927.208923C535.151886 927.208923,566.797745 914.097198,590.131531 890.763397C613.465332 867.429611,626.577057 835.783752,626.577057 802.782288Z" style="stroke:rgb(25.500488%,41.000366%,88.400269%); stroke-width: 2.500000;stroke-linecap: round;stroke-linejoin: round;stroke-miterlimit: 10.000000;fill: none;"></path>
  <path d="M763.940735 639.609406C763.940735 606.607941,750.829010 574.962082,727.495209 551.628296C704.161423 528.294495,672.515564 515.182770,639.514099 515.182770C606.512634 515.182770,574.866776 528.294495,551.532990 551.628296C528.199188 574.962082,515.087463 606.607941,515.087463 639.609406C515.087463 672.610870,528.199188 704.256729,551.532990 727.590515C574.866776 750.924316,606.512634 764.036041,639.514099 764.036041C672.515564 764.036041,704.161423 750.924316,727.495209 727.590515C750.829010 704.256729,763.940735 672.610870,763.940735 639.609406Z" style="stroke:rgb(25.500488%,41.000366%,88.400269%); stroke-width: 2.500000;stroke-linecap: round;stroke-linejoin: round;stroke-miterlimit: 10.000000;fill: none;"></path>
  <path d="M914.877274 491.229126C914.877274 458.227661,901.765549 426.581802,878.431747 403.248016C855.097961 379.914215,823.452103 366.802490,790.450638 366.802490C757.449173 366.802490,725.803314 379.914215,702.469528 403.248016C679.135727 426.581802,666.024002 458.227661,666.024002 491.229126C666.024002 524.230591,679.135727 555.876450,702.469528 579.210236C725.803314 602.544037,757.449173 615.655762,790.450638 615.655762C823.452103 615.655762,855.097961 602.544037,878.431747 579.210236C901.765549 555.876450,914.877274 524.230591,914.877274 491.229126Z" style="stroke:rgb(25.500488%,41.000366%,88.400269%); stroke-width: 2.500000;stroke-linecap: round;stroke-linejoin: round;stroke-miterlimit: 10.000000;fill: none;"></path>
  <path d="M1067.591522 328.886688C1067.591522 295.885223,1054.479797 264.239365,1031.145996 240.905579C1007.812210 217.571777,976.166351 204.460052,943.164886 204.460052C910.163422 204.460052,878.517563 217.571777,855.183777 240.905579C831.849976 264.239365,818.738251 295.885223,818.738251 328.886688C818.738251 361.888153,831.849976 393.534012,855.183777 416.867798C878.517563 440.201599,910.163422 453.313324,943.164886 453.313324C976.166351 453.313324,1007.812210 440.201599,1031.145996 416.867798C1054.479797 393.534012,1067.591522 361.888153,1067.591522 328.886688Z" style="stroke:rgb(25.500488%,41.000366%,88.400269%); stroke-width: 2.500000;stroke-linecap: round;stroke-linejoin: round;stroke-miterlimit: 10.000000;fill: none;"></path>
  <path d="M1216.296204 165.791656C1216.296204 132.790192,1203.184479 101.144333,1179.850677 77.810547C1156.516891 54.476746,1124.871033 41.365021,1091.869568 41.365021C1058.868103 41.365021,1027.222244 54.476746,1003.888458 77.810547C980.554657 101.144333,967.442932 132.790192,967.442932 165.791656C967.442932 198.793121,980.554657 230.438980,1003.888458 253.772766C1027.222244 277.106567,1058.868103 290.218292,1091.869568 290.218292C1124.871033 290.218292,1156.516891 277.106567,1179.850677 253.772766C1203.184479 230.438980,1216.296204 198.793121,1216.296204 165.791656Z" style="stroke:rgb(25.500488%,41.000366%,88.400269%); stroke-width: 2.500000;stroke-linecap: round;stroke-linejoin: round;stroke-miterlimit: 10.000000;fill: none;"></path>
  <path d="M278.600327 958.312332C278.600327 925.310867,265.488602 893.665009,242.154800 870.331223C218.821014 846.997421,187.175156 833.885696,154.173691 833.885696C121.172226 833.885696,89.526367 846.997421,66.192581 870.331223C42.858780 893.665009,29.747055 925.310867,29.747055 958.312332C29.747055 991.313797,42.858780 1022.959656,66.192581 1046.293442C89.526367 1069.627243,121.172226 1082.738968,154.173691 1082.738968C187.175156 1082.738968,218.821014 1069.627243,242.154800 1046.293442C265.488602 1022.959656,278.600327 991.313797,278.600327 958.312332Z" style="stroke:rgb(25.500488%,41.000366%,88.400269%); stroke-width: 2.500000;stroke-linecap: round;stroke-linejoin: round;stroke-miterlimit: 10.000000;fill: none;"></path>
  <path d="M416.301376 769.278320C416.301376 736.276855,403.189651 704.630997,379.855850 681.297211C356.522064 657.963409,324.876205 644.851685,291.874741 644.851685C258.873276 644.851685,227.227417 657.963409,203.893631 681.297211C180.559830 704.630997,167.448105 736.276855,167.448105 769.278320C167.448105 802.279785,180.559830 833.925644,203.893631 857.259430C227.227417 880.593231,258.873276 893.704956,291.874741 893.704956C324.876205 893.704956,356.522064 880.593231,379.855850 857.259430C403.189651 833.925644,416.301376 802.279785,416.301376 769.278320Z" style="stroke:rgb(25.500488%,41.000366%,88.400269%); stroke-width: 2.500000;stroke-linecap: round;stroke-linejoin: round;stroke-miterlimit: 10.000000;fill: none;"></path>
  <path d="M551.199615 599.578522C551.199615 566.577057,538.087891 534.931198,514.754089 511.597412C491.420303 488.263611,459.774445 475.151886,426.772980 475.151886C393.771515 475.151886,362.125656 488.263611,338.791870 511.597412C315.458069 534.931198,302.346344 566.577057,302.346344 599.578522C302.346344 632.579987,315.458069 664.225845,338.791870 687.559631C362.125656 710.893433,393.771515 724.005157,426.772980 724.005157C459.774445 724.005157,491.420303 710.893433,514.754089 687.559631C538.087891 664.225845,551.199615 632.579987,551.199615 599.578522Z" style="stroke:rgb(25.500488%,41.000366%,88.400269%); stroke-width: 2.500000;stroke-linecap: round;stroke-linejoin: round;stroke-miterlimit: 10.000000;fill: none;"></path>
  <path d="M694.649017 443.243973C694.649017 410.242508,681.537292 378.596649,658.203491 355.262863C634.869705 331.929062,603.223846 318.817337,570.222382 318.817337C537.220917 318.817337,505.575058 331.929062,482.241272 355.262863C458.907471 378.596649,445.795746 410.242508,445.795746 443.243973C445.795746 476.245438,458.907471 507.891296,482.241272 531.225082C505.575058 554.558884,537.220917 567.670609,570.222382 567.670609C603.223846 567.670609,634.869705 554.558884,658.203491 531.225082C681.537292 507.891296,694.649017 476.245438,694.649017 443.243973Z" style="stroke:rgb(25.500488%,41.000366%,88.400269%); stroke-width: 2.500000;stroke-linecap: round;stroke-linejoin: round;stroke-miterlimit: 10.000000;fill: none;"></path>
  <path d="M852.047607 296.628418C852.047607 263.626953,838.935883 231.981094,815.602081 208.647308C792.268295 185.313507,760.622437 172.201782,727.620972 172.201782C694.619507 172.201782,662.973648 185.313507,639.639862 208.647308C616.306061 231.981094,603.194336 263.626953,603.194336 296.628418C603.194336 329.629883,616.306061 361.275742,639.639862 384.609528C662.973648 407.943329,694.619507 421.055054,727.620972 421.055054C760.622437 421.055054,792.268295 407.943329,815.602081 384.609528C838.935883 361.275742,852.047607 329.629883,852.047607 296.628418Z" style="stroke:rgb(25.500488%,41.000366%,88.400269%); stroke-width: 2.500000;stroke-linecap: round;stroke-linejoin: round;stroke-miterlimit: 10.000000;fill: none;"></path>
  <path d="M1024.316650 142.058594C1024.316650 109.057129,1011.204926 77.411270,987.871124 54.077484C964.537338 30.743683,932.891479 17.631958,899.890015 17.631958C866.888550 17.631958,835.242691 30.743683,811.908905 54.077484C788.575104 77.411270,775.463379 109.057129,775.463379 142.058594C775.463379 175.060059,788.575104 206.705917,811.908905 230.039703C835.242691 253.373505,866.888550 266.485229,899.890015 266.485229C932.891479 266.485229,964.537338 253.373505,987.871124 230.039703C1011.204926 206.705917,1024.316650 175.060059,1024.316650 142.058594Z" style="stroke:rgb(25.500488%,41.000366%,88.400269%); stroke-width: 2.500000;stroke-linecap: round;stroke-linejoin: round;stroke-miterlimit: 10.000000;fill: none;"></path>
  <path d="M249.261642 731.959412C249.261642 698.957947,236.149918 667.312088,212.816116 643.978302C189.482330 620.644501,157.836472 607.532776,124.835007 607.532776C91.833542 607.532776,60.187683 620.644501,36.853897 643.978302C13.520096 667.312088,0.408371 698.957947,0.408371 731.959412C0.408371 764.960876,13.520096 796.606735,36.853897 819.940521C60.187683 843.274323,91.833542 856.386047,124.835007 856.386047C157.836472 856.386047,189.482330 843.274323,212.816116 819.940521C236.149918 796.606735,249.261642 764.960876,249.261642 731.959412Z" style="stroke:rgb(25.500488%,41.000366%,88.400269%); stroke-width: 2.500000;stroke-linecap: round;stroke-linejoin: round;stroke-miterlimit: 10.000000;fill: none;"></path>
  <path d="M359.310883 548.375320C359.310883 515.373856,346.199158 483.727997,322.865356 460.394211C299.531570 437.060410,267.885712 423.948685,234.884247 423.948685C201.882782 423.948685,170.236923 437.060410,146.903137 460.394211C123.569336 483.727997,110.457611 515.373856,110.457611 548.375320C110.457611 581.376785,123.569336 613.022644,146.903137 636.356430C170.236923 659.690231,201.882782 672.801956,234.884247 672.801956C267.885712 672.801956,299.531570 659.690231,322.865356 636.356430C346.199158 613.022644,359.310883 581.376785,359.310883 548.375320Z" style="stroke:rgb(25.500488%,41.000366%,88.400269%); stroke-width: 2.500000;stroke-linecap: round;stroke-linejoin: round;stroke-miterlimit: 10.000000;fill: none;"></path>
  <path d="M483.906204 392.715515C483.906204 359.714050,470.794479 328.068192,447.460678 304.734406C424.126892 281.400604,392.481033 268.288879,359.479568 268.288879C326.478104 268.288879,294.832245 281.400604,271.498459 304.734406C248.164658 328.068192,235.052933 359.714050,235.052933 392.715515C235.052933 425.716980,248.164658 457.362839,271.498459 480.696625C294.832245 504.030426,326.478104 517.142151,359.479568 517.142151C392.481033 517.142151,424.126892 504.030426,447.460678 480.696625C470.794479 457.362839,483.906204 425.716980,483.906204 392.715515Z" style="stroke:rgb(25.500488%,41.000366%,88.400269%); stroke-width: 2.500000;stroke-linecap: round;stroke-linejoin: round;stroke-miterlimit: 10.000000;fill: none;"></path>
  <path d="M622.074387 263.474808C622.074387 230.473343,608.962662 198.827484,585.628860 175.493698C562.295074 152.159897,530.649216 139.048172,497.647751 139.048172C464.646286 139.048172,433.000427 152.159897,409.666641 175.493698C386.332840 198.827484,373.221115 230.473343,373.221115 263.474808C373.221115 296.476273,386.332840 328.122131,409.666641 351.455917C433.000427 374.789719,464.646286 387.901443,497.647751 387.901443C530.649216 387.901443,562.295074 374.789719,585.628860 351.455917C608.962662 328.122131,622.074387 296.476273,622.074387 263.474808Z" style="stroke:rgb(25.500488%,41.000366%,88.400269%); stroke-width: 2.500000;stroke-linecap: round;stroke-linejoin: round;stroke-miterlimit: 10.000000;fill: none;"></path>
  <path d="M798.703369 125.267685C798.703369 92.266220,785.591644 60.620361,762.257843 37.286575C738.924057 13.952774,707.278198 0.841049,674.276733 0.841049C641.275269 0.841049,609.629410 13.952774,586.295624 37.286575C562.961823 60.620361,549.850098 92.266220,549.850098 125.267685C549.850098 158.269150,562.961823 189.915009,586.295624 213.248795C609.629410 236.582596,641.275269 249.694321,674.276733 249.694321C707.278198 249.694321,738.924057 236.582596,762.257843 213.248795C785.591644 189.915009,798.703369 158.269150,798.703369 125.267685Z" style="stroke:rgb(25.500488%,41.000366%,88.400269%); stroke-width: 2.500000;stroke-linecap: round;stroke-linejoin: round;stroke-miterlimit: 10.000000;fill: none;"></path>
</svg>
