<?xml version="1.0"?>
<!-- Created by MetaPost 2.00 on 2022.03.02:1201 -->
<svg version="1.1" xmlns="http://www.w3.org/2000/svg" xmlns:xlink="http://www.w3.org/1999/xlink" width="1482.072632" height="1398.364609" viewBox="0 0 1482.072632 1398.364609">
<!-- Original BoundingBox: -741.036316 -546.721085 741.036316 851.643524 -->
  <path d="M741.000000 0.606476L4.535538 1276.196762L1477.464462 1276.196762L741.000000 0.606476Z" style="fill: rgb(100.000000%,100.000000%,100.000000%);stroke: none;"></path>
  <path d="M741.000000 0.606476L4.535538 1276.196762" style="stroke:rgb(0.000000%,0.000000%,0.000000%); stroke-width: 2.500000;stroke-linecap: round;stroke-linejoin: round;stroke-miterlimit: 10.000000;fill: none;"></path>
  <path d="M4.535538 1276.196762L1477.464462 1276.196762" style="stroke:rgb(0.000000%,0.000000%,0.000000%); stroke-width: 2.500000;stroke-linecap: round;stroke-linejoin: round;stroke-miterlimit: 10.000000;fill: none;"></path>
  <path d="M1477.464462 1276.196762L741.000000 0.606476" style="stroke:rgb(0.000000%,0.000000%,0.000000%); stroke-width: 2.500000;stroke-linecap: round;stroke-linejoin: round;stroke-miterlimit: 10.000000;fill: none;"></path>
  <path d="M893.039505 152.658951C893.039505 112.333771,877.018005 73.665039,848.505966 45.152985C819.993912 16.640945,781.325180 0.619446,741.000000 0.619446C700.674820 0.619446,662.006088 16.640945,633.494034 45.152985C604.981995 73.665039,588.960495 112.333771,588.960495 152.658951C588.960495 192.984131,604.981995 231.652863,633.494034 260.164917C662.006088 288.676956,700.674820 304.698456,741.000000 304.698456C781.325180 304.698456,819.993912 288.676956,848.505966 260.164917C877.018005 231.652863,893.039505 192.984131,893.039505 152.658951Z" style="stroke:rgb(25.500488%,41.000366%,88.400269%); stroke-width: 2.500000;stroke-linecap: round;stroke-linejoin: round;stroke-miterlimit: 10.000000;fill: none;"></path>
  <path d="M1024.706726 380.724701C1024.706726 340.399521,1008.685226 301.730789,980.173187 273.218735C951.661133 244.706696,912.992401 228.685196,872.667221 228.685196C832.342041 228.685196,793.673309 244.706696,765.161255 273.218735C736.649216 301.730789,720.627716 340.399521,720.627716 380.724701C720.627716 421.049881,736.649216 459.718613,765.161255 488.230667C793.673309 516.742706,832.342041 532.764206,872.667221 532.764206C912.992401 532.764206,951.661133 516.742706,980.173187 488.230667C1008.685226 459.718613,1024.706726 421.049881,1024.706726 380.724701Z" style="stroke:rgb(25.500488%,41.000366%,88.400269%); stroke-width: 2.500000;stroke-linecap: round;stroke-linejoin: round;stroke-miterlimit: 10.000000;fill: none;"></path>
  <path d="M761.372284 380.724701C761.372284 340.399521,745.350784 301.730789,716.838745 273.218735C688.326691 244.706696,649.657959 228.685196,609.332779 228.685196C569.007599 228.685196,530.338867 244.706696,501.826813 273.218735C473.314774 301.730789,457.293274 340.399521,457.293274 380.724701C457.293274 421.049881,473.314774 459.718613,501.826813 488.230667C530.338867 516.742706,569.007599 532.764206,609.332779 532.764206C649.657959 532.764206,688.326691 516.742706,716.838745 488.230667C745.350784 459.718613,761.372284 421.049881,761.372284 380.724701Z" style="stroke:rgb(25.500488%,41.000366%,88.400269%); stroke-width: 2.500000;stroke-linecap: round;stroke-linejoin: round;stroke-miterlimit: 10.000000;fill: none;"></path>
  <path d="M1162.433731 608.647705C1162.433731 568.322525,1146.412231 529.653793,1117.900192 501.141739C1089.388138 472.629700,1050.719406 456.608200,1010.394226 456.608200C970.069046 456.608200,931.400314 472.629700,902.888260 501.141739C874.376221 529.653793,858.354721 568.322525,858.354721 608.647705C858.354721 648.972885,874.376221 687.641617,902.888260 716.153671C931.400314 744.665710,970.069046 760.687210,1010.394226 760.687210C1050.719406 760.687210,1089.388138 744.665710,1117.900192 716.153671C1146.412231 687.641617,1162.433731 648.972885,1162.433731 608.647705Z" style="stroke:rgb(25.500488%,41.000366%,88.400269%); stroke-width: 2.500000;stroke-linecap: round;stroke-linejoin: round;stroke-miterlimit: 10.000000;fill: none;"></path>
  <path d="M893.039505 597.060165C893.039505 556.734985,877.018005 518.066254,848.505966 489.554199C819.993912 461.042160,781.325180 445.020660,741.000000 445.020660C700.674820 445.020660,662.006088 461.042160,633.494034 489.554199C604.981995 518.066254,588.960495 556.734985,588.960495 597.060165C588.960495 637.385345,604.981995 676.054077,633.494034 704.566132C662.006088 733.078171,700.674820 749.099670,741.000000 749.099670C781.325180 749.099670,819.993912 733.078171,848.505966 704.566132C877.018005 676.054077,893.039505 637.385345,893.039505 597.060165Z" style="stroke:rgb(25.500488%,41.000366%,88.400269%); stroke-width: 2.500000;stroke-linecap: round;stroke-linejoin: round;stroke-miterlimit: 10.000000;fill: none;"></path>
  <path d="M1283.434708 841.722183C1283.434708 801.397003,1267.413208 762.728271,1238.901169 734.216217C1210.389114 705.704178,1171.720383 689.682678,1131.395203 689.682678C1091.070023 689.682678,1052.401291 705.704178,1023.889236 734.216217C995.377197 762.728271,979.355698 801.397003,979.355698 841.722183C979.355698 882.047363,995.377197 920.716095,1023.889236 949.228149C1052.401291 977.740189,1091.070023 993.761688,1131.395203 993.761688C1171.720383 993.761688,1210.389114 977.740189,1238.901169 949.228149C1267.413208 920.716095,1283.434708 882.047363,1283.434708 841.722183Z" style="stroke:rgb(25.500488%,41.000366%,88.400269%); stroke-width: 2.500000;stroke-linecap: round;stroke-linejoin: round;stroke-miterlimit: 10.000000;fill: none;"></path>
  <path d="M1024.719696 825.099960C1024.719696 784.774780,1008.698196 746.106049,980.186157 717.593994C951.674103 689.081955,913.005371 673.060455,872.680191 673.060455C832.355011 673.060455,793.686279 689.081955,765.174225 717.593994C736.662186 746.106049,720.640686 784.774780,720.640686 825.099960C720.640686 865.425140,736.662186 904.093872,765.174225 932.605927C793.686279 961.117966,832.355011 977.139465,872.680191 977.139465C913.005371 977.139465,951.674103 961.117966,980.186157 932.605927C1008.698196 904.093872,1024.719696 865.425140,1024.719696 825.099960Z" style="stroke:rgb(25.500488%,41.000366%,88.400269%); stroke-width: 2.500000;stroke-linecap: round;stroke-linejoin: round;stroke-miterlimit: 10.000000;fill: none;"></path>
  <path d="M761.359314 825.099960C761.359314 784.774780,745.337814 746.106049,716.825775 717.593994C688.313721 689.081955,649.644989 673.060455,609.319809 673.060455C568.994629 673.060455,530.325897 689.081955,501.813843 717.593994C473.301804 746.106049,457.280304 784.774780,457.280304 825.099960C457.280304 865.425140,473.301804 904.093872,501.813843 932.605927C530.325897 961.117966,568.994629 977.139465,609.319809 977.139465C649.644989 977.139465,688.313721 961.117966,716.825775 932.605927C745.337814 904.093872,761.359314 865.425140,761.359314 825.099960Z" style="stroke:rgb(25.500488%,41.000366%,88.400269%); stroke-width: 2.500000;stroke-linecap: round;stroke-linejoin: round;stroke-miterlimit: 10.000000;fill: none;"></path>
  <path d="M1381.338440 1058.485840C1381.338440 1018.160660,1365.316940 979.491928,1336.804901 950.979874C1308.292847 922.467834,1269.624115 906.446335,1229.298935 906.446335C1188.973755 906.446335,1150.305023 922.467834,1121.792969 950.979874C1093.280930 979.491928,1077.259430 1018.160660,1077.259430 1058.485840C1077.259430 1098.811020,1093.280930 1137.479752,1121.792969 1165.991806C1150.305023 1194.503845,1188.973755 1210.525345,1229.298935 1210.525345C1269.624115 1210.525345,1308.292847 1194.503845,1336.804901 1165.991806C1365.316940 1137.479752,1381.338440 1098.811020,1381.338440 1058.485840Z" style="stroke:rgb(25.500488%,41.000366%,88.400269%); stroke-width: 2.500000;stroke-linecap: round;stroke-linejoin: round;stroke-miterlimit: 10.000000;fill: none;"></path>
  <path d="M1111.606842 1060.094864C1111.606842 1019.769684,1095.585342 981.100952,1067.073303 952.588898C1038.561249 924.076859,999.892517 908.055359,959.567337 908.055359C919.242157 908.055359,880.573425 924.076859,852.061371 952.588898C823.549332 981.100952,807.527832 1019.769684,807.527832 1060.094864C807.527832 1100.420044,823.549332 1139.088776,852.061371 1167.600830C880.573425 1196.112869,919.242157 1212.134369,959.567337 1212.134369C999.892517 1212.134369,1038.561249 1196.112869,1067.073303 1167.600830C1095.585342 1139.088776,1111.606842 1100.420044,1111.606842 1060.094864Z" style="stroke:rgb(25.500488%,41.000366%,88.400269%); stroke-width: 2.500000;stroke-linecap: round;stroke-linejoin: round;stroke-miterlimit: 10.000000;fill: none;"></path>
  <path d="M893.039505 991.179459C893.039505 950.854279,877.018005 912.185547,848.505966 883.673492C819.993912 855.161453,781.325180 839.139954,741.000000 839.139954C700.674820 839.139954,662.006088 855.161453,633.494034 883.673492C604.981995 912.185547,588.960495 950.854279,588.960495 991.179459C588.960495 1031.504639,604.981995 1070.173370,633.494034 1098.685425C662.006088 1127.197464,700.674820 1143.218964,741.000000 1143.218964C781.325180 1143.218964,819.993912 1127.197464,848.505966 1098.685425C877.018005 1070.173370,893.039505 1031.504639,893.039505 991.179459Z" style="stroke:rgb(25.500488%,41.000366%,88.400269%); stroke-width: 2.500000;stroke-linecap: round;stroke-linejoin: round;stroke-miterlimit: 10.000000;fill: none;"></path>
  <path d="M674.472168 1060.094864C674.472168 1019.769684,658.450668 981.100952,629.938629 952.588898C601.426575 924.076859,562.757843 908.055359,522.432663 908.055359C482.107483 908.055359,443.438751 924.076859,414.926697 952.588898C386.414658 981.100952,370.393158 1019.769684,370.393158 1060.094864C370.393158 1100.420044,386.414658 1139.088776,414.926697 1167.600830C443.438751 1196.112869,482.107483 1212.134369,522.432663 1212.134369C562.757843 1212.134369,601.426575 1196.112869,629.938629 1167.600830C658.450668 1139.088776,674.472168 1100.420044,674.472168 1060.094864Z" style="stroke:rgb(25.500488%,41.000366%,88.400269%); stroke-width: 2.500000;stroke-linecap: round;stroke-linejoin: round;stroke-miterlimit: 10.000000;fill: none;"></path>
  <path d="M502.644302 841.722183C502.644302 801.397003,486.622803 762.728271,458.110764 734.216217C429.598709 705.704178,390.929977 689.682678,350.604797 689.682678C310.279617 689.682678,271.610886 705.704178,243.098831 734.216217C214.586792 762.728271,198.565292 801.397003,198.565292 841.722183C198.565292 882.047363,214.586792 920.716095,243.098831 949.228149C271.610886 977.740189,310.279617 993.761688,350.604797 993.761688C390.929977 993.761688,429.598709 977.740189,458.110764 949.228149C486.622803 920.716095,502.644302 882.047363,502.644302 841.722183Z" style="stroke:rgb(25.500488%,41.000366%,88.400269%); stroke-width: 2.500000;stroke-linecap: round;stroke-linejoin: round;stroke-miterlimit: 10.000000;fill: none;"></path>
  <path d="M623.645279 608.647705C623.645279 568.322525,607.623779 529.653793,579.111740 501.141739C550.599686 472.629700,511.930954 456.608200,471.605774 456.608200C431.280594 456.608200,392.611862 472.629700,364.099808 501.141739C335.587769 529.653793,319.566269 568.322525,319.566269 608.647705C319.566269 648.972885,335.587769 687.641617,364.099808 716.153671C392.611862 744.665710,431.280594 760.687210,471.605774 760.687210C511.930954 760.687210,550.599686 744.665710,579.111740 716.153671C607.623779 687.641617,623.645279 648.972885,623.645279 608.647705Z" style="stroke:rgb(25.500488%,41.000366%,88.400269%); stroke-width: 2.500000;stroke-linecap: round;stroke-linejoin: round;stroke-miterlimit: 10.000000;fill: none;"></path>
  <path d="M404.740570 1058.485840C404.740570 1018.160660,388.719070 979.491928,360.207031 950.979874C331.694977 922.467834,293.026245 906.446335,252.701065 906.446335C212.375885 906.446335,173.707153 922.467834,145.195099 950.979874C116.683060 979.491928,100.661560 1018.160660,100.661560 1058.485840C100.661560 1098.811020,116.683060 1137.479752,145.195099 1165.991806C173.707153 1194.503845,212.375885 1210.525345,252.701065 1210.525345C293.026245 1210.525345,331.694977 1194.503845,360.207031 1165.991806C388.719070 1137.479752,404.740570 1098.811020,404.740570 1058.485840Z" style="stroke:rgb(25.500488%,41.000366%,88.400269%); stroke-width: 2.500000;stroke-linecap: round;stroke-linejoin: round;stroke-miterlimit: 10.000000;fill: none;"></path>
  <path d="M893.039505 1235.166733C893.039505 1194.841553,877.018005 1156.172821,848.505966 1127.660767C819.993912 1099.148727,781.325180 1083.127228,741.000000 1083.127228C700.674820 1083.127228,662.006088 1099.148727,633.494034 1127.660767C604.981995 1156.172821,588.960495 1194.841553,588.960495 1235.166733C588.960495 1275.491913,604.981995 1314.160645,633.494034 1342.672699C662.006088 1371.184738,700.674820 1387.206238,741.000000 1387.206238C781.325180 1387.206238,819.993912 1371.184738,848.505966 1342.672699C877.018005 1314.160645,893.039505 1275.491913,893.039505 1235.166733Z" style="stroke:rgb(25.500488%,41.000366%,88.400269%); stroke-width: 2.500000;stroke-linecap: round;stroke-linejoin: round;stroke-miterlimit: 10.000000;fill: none;"></path>
  <path d="M1480.786316 1244.431580C1480.786316 1204.106400,1464.764816 1165.437668,1436.252777 1136.925613C1407.740723 1108.413574,1369.071991 1092.392075,1328.746811 1092.392075C1288.421631 1092.392075,1249.752899 1108.413574,1221.240845 1136.925613C1192.728806 1165.437668,1176.707306 1204.106400,1176.707306 1244.431580C1176.707306 1284.756760,1192.728806 1323.425491,1221.240845 1351.937546C1249.752899 1380.449585,1288.421631 1396.471085,1328.746811 1396.471085C1369.071991 1396.471085,1407.740723 1380.449585,1436.252777 1351.937546C1464.764816 1323.425491,1480.786316 1284.756760,1480.786316 1244.431580Z" style="stroke:rgb(25.500488%,41.000366%,88.400269%); stroke-width: 2.500000;stroke-linecap: round;stroke-linejoin: round;stroke-miterlimit: 10.000000;fill: none;"></path>
  <path d="M600.301498 1234.894226C600.301498 1194.569046,584.279999 1155.900314,555.767960 1127.388260C527.255905 1098.876221,488.587173 1082.854721,448.261993 1082.854721C407.936813 1082.854721,369.268082 1098.876221,340.756027 1127.388260C312.243988 1155.900314,296.222488 1194.569046,296.222488 1234.894226C296.222488 1275.219406,312.243988 1313.888138,340.756027 1342.400192C369.268082 1370.912231,407.936813 1386.933731,448.261993 1386.933731C488.587173 1386.933731,527.255905 1370.912231,555.767960 1342.400192C584.279999 1313.888138,600.301498 1275.219406,600.301498 1234.894226Z" style="stroke:rgb(25.500488%,41.000366%,88.400269%); stroke-width: 2.500000;stroke-linecap: round;stroke-linejoin: round;stroke-miterlimit: 10.000000;fill: none;"></path>
  <path d="M305.292694 1244.431580C305.292694 1204.106400,289.271194 1165.437668,260.759155 1136.925613C232.247101 1108.413574,193.578369 1092.392075,153.253189 1092.392075C112.928009 1092.392075,74.259277 1108.413574,45.747223 1136.925613C17.235184 1165.437668,1.213684 1204.106400,1.213684 1244.431580C1.213684 1284.756760,17.235184 1323.425491,45.747223 1351.937546C74.259277 1380.449585,112.928009 1396.471085,153.253189 1396.471085C193.578369 1396.471085,232.247101 1380.449585,260.759155 1351.937546C289.271194 1323.425491,305.292694 1284.756760,305.292694 1244.431580Z" style="stroke:rgb(25.500488%,41.000366%,88.400269%); stroke-width: 2.500000;stroke-linecap: round;stroke-linejoin: round;stroke-miterlimit: 10.000000;fill: none;"></path>
  <path d="M1185.777512 1234.894226C1185.777512 1194.569046,1169.756012 1155.900314,1141.243973 1127.388260C1112.731918 1098.876221,1074.063187 1082.854721,1033.738007 1082.854721C993.412827 1082.854721,954.744095 1098.876221,926.232040 1127.388260C897.720001 1155.900314,881.698502 1194.569046,881.698502 1234.894226C881.698502 1275.219406,897.720001 1313.888138,926.232040 1342.400192C954.744095 1370.912231,993.412827 1386.933731,1033.738007 1386.933731C1074.063187 1386.933731,1112.731918 1370.912231,1141.243973 1342.400192C1169.756012 1313.888138,1185.777512 1275.219406,1185.777512 1234.894226Z" style="stroke:rgb(25.500488%,41.000366%,88.400269%); stroke-width: 2.500000;stroke-linecap: round;stroke-linejoin: round;stroke-miterlimit: 10.000000;fill: none;"></path>
</svg>
