<?xml version="1.0"?>
<!-- Created by MetaPost 2.00 on 2022.03.02:1201 -->
<svg version="1.1" xmlns="http://www.w3.org/2000/svg" xmlns:xlink="http://www.w3.org/1999/xlink" width="1815.542206" height="1681.565277" viewBox="0 0 1815.542206 1681.565277">
<!-- Original BoundingBox: -886.899246 -837.940903 928.642960 843.624374 -->
  <path d="M1736.393524 843.000000L1311.196762 106.535538L460.803238 106.535538L35.606476 843.000000L460.803238 1579.464462L1311.196762 1579.464462L1736.393524 843.000000Z" style="fill: rgb(100.000000%,100.000000%,100.000000%);stroke: none;"></path>
  <path d="M1736.393524 843.000000L1311.196762 106.535538" style="stroke:rgb(0.000000%,0.000000%,0.000000%); stroke-width: 2.500000;stroke-linecap: round;stroke-linejoin: round;stroke-miterlimit: 10.000000;fill: none;"></path>
  <path d="M1311.196762 106.535538L460.803238 106.535538" style="stroke:rgb(0.000000%,0.000000%,0.000000%); stroke-width: 2.500000;stroke-linecap: round;stroke-linejoin: round;stroke-miterlimit: 10.000000;fill: none;"></path>
  <path d="M460.803238 106.535538L35.606476 843.000000" style="stroke:rgb(0.000000%,0.000000%,0.000000%); stroke-width: 2.500000;stroke-linecap: round;stroke-linejoin: round;stroke-miterlimit: 10.000000;fill: none;"></path>
  <path d="M35.606476 843.000000L460.803238 1579.464462" style="stroke:rgb(0.000000%,0.000000%,0.000000%); stroke-width: 2.500000;stroke-linecap: round;stroke-linejoin: round;stroke-miterlimit: 10.000000;fill: none;"></path>
  <path d="M460.803238 1579.464462L1311.196762 1579.464462" style="stroke:rgb(0.000000%,0.000000%,0.000000%); stroke-width: 2.500000;stroke-linecap: round;stroke-linejoin: round;stroke-miterlimit: 10.000000;fill: none;"></path>
  <path d="M1311.196762 1579.464462L1736.393524 843.000000" style="stroke:rgb(0.000000%,0.000000%,0.000000%); stroke-width: 2.500000;stroke-linecap: round;stroke-linejoin: round;stroke-miterlimit: 10.000000;fill: none;"></path>
  <path d="M1105.566483 1472.879791C1105.566483 1418.089584,1083.797928 1365.550003,1045.058334 1326.810410C1006.318741 1288.070816,953.779160 1266.302261,898.988953 1266.302261C844.198746 1266.302261,791.659164 1288.070816,752.919571 1326.810410C714.179977 1365.550003,692.411423 1418.089584,692.411423 1472.879791C692.411423 1527.669998,714.179977 1580.209579,752.919571 1618.949173C791.659164 1657.688766,844.198746 1679.457321,898.988953 1679.457321C953.779160 1679.457321,1006.318741 1657.688766,1045.058334 1618.949173C1083.797928 1580.209579,1105.566483 1527.669998,1105.566483 1472.879791Z" style="stroke:rgb(25.500488%,41.000366%,88.400269%); stroke-width: 2.500000;stroke-linecap: round;stroke-linejoin: round;stroke-miterlimit: 10.000000;fill: none;"></path>
  <path d="M1457.539810 1469.674728C1457.539810 1414.884521,1435.771255 1362.344940,1397.031662 1323.605347C1358.292068 1284.865753,1305.752487 1263.097198,1250.962280 1263.097198C1196.172073 1263.097198,1143.632492 1284.865753,1104.892899 1323.605347C1066.153305 1362.344940,1044.384750 1414.884521,1044.384750 1469.674728C1044.384750 1524.464935,1066.153305 1577.004517,1104.892899 1615.744110C1143.632492 1654.483704,1196.172073 1676.252258,1250.962280 1676.252258C1305.752487 1676.252258,1358.292068 1654.483704,1397.031662 1615.744110C1435.771255 1577.004517,1457.539810 1524.464935,1457.539810 1469.674728Z" style="stroke:rgb(25.500488%,41.000366%,88.400269%); stroke-width: 2.500000;stroke-linecap: round;stroke-linejoin: round;stroke-miterlimit: 10.000000;fill: none;"></path>
  <path d="M751.478058 1473.113373C751.478058 1418.323166,729.709503 1365.783585,690.969910 1327.043991C652.230316 1288.304398,599.690735 1266.535843,544.900528 1266.535843C490.110321 1266.535843,437.570740 1288.304398,398.831146 1327.043991C360.091553 1365.783585,338.322998 1418.323166,338.322998 1473.113373C338.322998 1527.903580,360.091553 1580.443161,398.831146 1619.182755C437.570740 1657.922348,490.110321 1679.690903,544.900528 1679.690903C599.690735 1679.690903,652.230316 1657.922348,690.969910 1619.182755C729.709503 1580.443161,751.478058 1527.903580,751.478058 1473.113373Z" style="stroke:rgb(25.500488%,41.000366%,88.400269%); stroke-width: 2.500000;stroke-linecap: round;stroke-linejoin: round;stroke-miterlimit: 10.000000;fill: none;"></path>
  <path d="M1287.113358 1156.616348C1287.113358 1101.826141,1265.344803 1049.286560,1226.605209 1010.546967C1187.865616 971.807373,1135.326035 950.038818,1080.535828 950.038818C1025.745621 950.038818,973.206039 971.807373,934.466446 1010.546967C895.726852 1049.286560,873.958298 1101.826141,873.958298 1156.616348C873.958298 1211.406555,895.726852 1263.946136,934.466446 1302.685730C973.206039 1341.425323,1025.745621 1363.193878,1080.535828 1363.193878C1135.326035 1363.193878,1187.865616 1341.425323,1226.605209 1302.685730C1265.344803 1263.946136,1287.113358 1211.406555,1287.113358 1156.616348Z" style="stroke:rgb(25.500488%,41.000366%,88.400269%); stroke-width: 2.500000;stroke-linecap: round;stroke-linejoin: round;stroke-miterlimit: 10.000000;fill: none;"></path>
  <path d="M1645.133484 1163.701233C1645.133484 1108.911026,1623.364929 1056.371445,1584.625336 1017.631851C1545.885742 978.892258,1493.346161 957.123703,1438.555954 957.123703C1383.765747 957.123703,1331.226166 978.892258,1292.486572 1017.631851C1253.746979 1056.371445,1231.978424 1108.911026,1231.978424 1163.701233C1231.978424 1218.491440,1253.746979 1271.031021,1292.486572 1309.770615C1331.226166 1348.510208,1383.765747 1370.278763,1438.555954 1370.278763C1493.346161 1370.278763,1545.885742 1348.510208,1584.625336 1309.770615C1623.364929 1271.031021,1645.133484 1218.491440,1645.133484 1163.701233Z" style="stroke:rgb(25.500488%,41.000366%,88.400269%); stroke-width: 2.500000;stroke-linecap: round;stroke-linejoin: round;stroke-miterlimit: 10.000000;fill: none;"></path>
  <path d="M1813.392960 848.333130C1813.392960 793.542923,1791.624405 741.003342,1752.884811 702.263748C1714.145218 663.524155,1661.605637 641.755600,1606.815430 641.755600C1552.025223 641.755600,1499.485641 663.524155,1460.746048 702.263748C1422.006454 741.003342,1400.237900 793.542923,1400.237900 848.333130C1400.237900 903.123337,1422.006454 955.662918,1460.746048 994.402512C1499.485641 1033.142105,1552.025223 1054.910660,1606.815430 1054.910660C1661.605637 1054.910660,1714.145218 1033.142105,1752.884811 994.402512C1791.624405 955.662918,1813.392960 903.123337,1813.392960 848.333130Z" style="stroke:rgb(25.500488%,41.000366%,88.400269%); stroke-width: 2.500000;stroke-linecap: round;stroke-linejoin: round;stroke-miterlimit: 10.000000;fill: none;"></path>
  <path d="M622.393066 1197.218170C622.393066 1142.427963,600.624512 1089.888382,561.884918 1051.148788C523.145325 1012.409195,470.605743 990.640640,415.815536 990.640640C361.025330 990.640640,308.485748 1012.409195,269.746155 1051.148788C231.006561 1089.888382,209.238007 1142.427963,209.238007 1197.218170C209.238007 1252.008377,231.006561 1304.547958,269.746155 1343.287552C308.485748 1382.027145,361.025330 1403.795700,415.815536 1403.795700C470.605743 1403.795700,523.145325 1382.027145,561.884918 1343.287552C600.624512 1304.547958,622.393066 1252.008377,622.393066 1197.218170Z" style="stroke:rgb(25.500488%,41.000366%,88.400269%); stroke-width: 2.500000;stroke-linecap: round;stroke-linejoin: round;stroke-miterlimit: 10.000000;fill: none;"></path>
  <path d="M934.984314 1160.054977C934.984314 1105.264771,913.215759 1052.725189,874.476166 1013.985596C835.736572 975.246002,783.196991 953.477448,728.406784 953.477448C673.616577 953.477448,621.076996 975.246002,582.337402 1013.985596C543.597809 1052.725189,521.829254 1105.264771,521.829254 1160.054977C521.829254 1214.845184,543.597809 1267.384766,582.337402 1306.124359C621.076996 1344.863953,673.616577 1366.632507,728.406784 1366.632507C783.196991 1366.632507,835.736572 1344.863953,874.476166 1306.124359C913.215759 1267.384766,934.984314 1214.845184,934.984314 1160.054977Z" style="stroke:rgb(25.500488%,41.000366%,88.400269%); stroke-width: 2.500000;stroke-linecap: round;stroke-linejoin: round;stroke-miterlimit: 10.000000;fill: none;"></path>
  <path d="M1102.724747 843.843445C1102.724747 789.053238,1080.956192 736.513657,1042.216599 697.774063C1003.477005 659.034470,950.937424 637.265915,896.147217 637.265915C841.357010 637.265915,788.817429 659.034470,750.077835 697.774063C711.338242 736.513657,689.569687 789.053238,689.569687 843.843445C689.569687 898.633652,711.338242 951.173233,750.077835 989.912827C788.817429 1028.652420,841.357010 1050.420975,896.147217 1050.420975C950.937424 1050.420975,1003.477005 1028.652420,1042.216599 989.912827C1080.956192 951.173233,1102.724747 898.633652,1102.724747 843.843445Z" style="stroke:rgb(25.500488%,41.000366%,88.400269%); stroke-width: 2.500000;stroke-linecap: round;stroke-linejoin: round;stroke-miterlimit: 10.000000;fill: none;"></path>
  <path d="M1460.887619 850.655823C1460.887619 795.865616,1439.119064 743.326035,1400.379471 704.586441C1361.639877 665.846848,1309.100296 644.078293,1254.310089 644.078293C1199.519882 644.078293,1146.980301 665.846848,1108.240707 704.586441C1069.501114 743.326035,1047.732559 795.865616,1047.732559 850.655823C1047.732559 905.446030,1069.501114 957.985611,1108.240707 996.725204C1146.980301 1035.464798,1199.519882 1057.233353,1254.310089 1057.233353C1309.100296 1057.233353,1361.639877 1035.464798,1400.379471 996.725204C1439.119064 957.985611,1460.887619 905.446030,1460.887619 850.655823Z" style="stroke:rgb(25.500488%,41.000366%,88.400269%); stroke-width: 2.500000;stroke-linecap: round;stroke-linejoin: round;stroke-miterlimit: 10.000000;fill: none;"></path>
  <path d="M413.505814 945.821625C413.505814 891.031418,391.737259 838.491837,352.997665 799.752243C314.258072 761.012650,261.718491 739.244095,206.928284 739.244095C152.138077 739.244095,99.598495 761.012650,60.858902 799.752243C22.119308 838.491837,0.350754 891.031418,0.350754 945.821625C0.350754 1000.611832,22.119308 1053.151413,60.858902 1091.891006C99.598495 1130.630600,152.138077 1152.399155,206.928284 1152.399155C261.718491 1152.399155,314.258072 1130.630600,352.997665 1091.891006C391.737259 1053.151413,413.505814 1000.611832,413.505814 945.821625Z" style="stroke:rgb(25.500488%,41.000366%,88.400269%); stroke-width: 2.500000;stroke-linecap: round;stroke-linejoin: round;stroke-miterlimit: 10.000000;fill: none;"></path>
  <path d="M755.630371 839.301849C755.630371 784.511642,733.861816 731.972061,695.122223 693.232468C656.382629 654.492874,603.843048 632.724319,549.052841 632.724319C494.262634 632.724319,441.723053 654.492874,402.983459 693.232468C364.243866 731.972061,342.475311 784.511642,342.475311 839.301849C342.475311 894.092056,364.243866 946.631638,402.983459 985.371231C441.723053 1024.110825,494.262634 1045.879379,549.052841 1045.879379C603.843048 1045.879379,656.382629 1024.110825,695.122223 985.371231C733.861816 946.631638,755.630371 894.092056,755.630371 839.301849Z" style="stroke:rgb(25.500488%,41.000366%,88.400269%); stroke-width: 2.500000;stroke-linecap: round;stroke-linejoin: round;stroke-miterlimit: 10.000000;fill: none;"></path>
  <path d="M945.572708 523.492554C945.572708 468.702347,923.804153 416.162766,885.064560 377.423172C846.324966 338.683578,793.785385 316.915024,738.995178 316.915024C684.204971 316.915024,631.665390 338.683578,592.925797 377.423172C554.186203 416.162766,532.417648 468.702347,532.417648 523.492554C532.417648 578.282761,554.186203 630.822342,592.925797 669.561935C631.665390 708.301529,684.204971 730.070084,738.995178 730.070084C793.785385 730.070084,846.324966 708.301529,885.064560 669.561935C923.804153 630.822342,945.572708 578.282761,945.572708 523.492554Z" style="stroke:rgb(25.500488%,41.000366%,88.400269%); stroke-width: 2.500000;stroke-linecap: round;stroke-linejoin: round;stroke-miterlimit: 10.000000;fill: none;"></path>
  <path d="M1297.377350 538.207321C1297.377350 483.417114,1275.608795 430.877533,1236.869202 392.137939C1198.129608 353.398346,1145.590027 331.629791,1090.799820 331.629791C1036.009613 331.629791,983.470032 353.398346,944.730438 392.137939C905.990845 430.877533,884.222290 483.417114,884.222290 538.207321C884.222290 592.997528,905.990845 645.537109,944.730438 684.276703C983.470032 723.016296,1036.009613 744.784851,1090.799820 744.784851C1145.590027 744.784851,1198.129608 723.016296,1236.869202 684.276703C1275.608795 645.537109,1297.377350 592.997528,1297.377350 538.207321Z" style="stroke:rgb(25.500488%,41.000366%,88.400269%); stroke-width: 2.500000;stroke-linecap: round;stroke-linejoin: round;stroke-miterlimit: 10.000000;fill: none;"></path>
  <path d="M1650.051392 535.612122C1650.051392 480.821915,1628.282837 428.282333,1589.543243 389.542740C1550.803650 350.803146,1498.264069 329.034592,1443.473862 329.034592C1388.683655 329.034592,1336.144073 350.803146,1297.404480 389.542740C1258.664886 428.282333,1236.896332 480.821915,1236.896332 535.612122C1236.896332 590.402328,1258.664886 642.941910,1297.404480 681.681503C1336.144073 720.421097,1388.683655 742.189651,1443.473862 742.189651C1498.264069 742.189651,1550.803650 720.421097,1589.543243 681.681503C1628.282837 642.941910,1650.051392 590.402328,1650.051392 535.612122Z" style="stroke:rgb(25.500488%,41.000366%,88.400269%); stroke-width: 2.500000;stroke-linecap: round;stroke-linejoin: round;stroke-miterlimit: 10.000000;fill: none;"></path>
  <path d="M437.770889 684.459534C437.770889 629.669327,416.002335 577.129745,377.262741 538.390152C338.523148 499.650558,285.983566 477.882004,231.193359 477.882004C176.403152 477.882004,123.863571 499.650558,85.123978 538.390152C46.384384 577.129745,24.615829 629.669327,24.615829 684.459534C24.615829 739.249741,46.384384 791.789322,85.123978 830.528915C123.863571 869.268509,176.403152 891.037064,231.193359 891.037064C285.983566 891.037064,338.523148 869.268509,377.262741 830.528915C416.002335 791.789322,437.770889 739.249741,437.770889 684.459534Z" style="stroke:rgb(25.500488%,41.000366%,88.400269%); stroke-width: 2.500000;stroke-linecap: round;stroke-linejoin: round;stroke-miterlimit: 10.000000;fill: none;"></path>
  <path d="M658.414368 459.754562C658.414368 404.964355,636.645813 352.424774,597.906219 313.685181C559.166626 274.945587,506.627045 253.177032,451.836838 253.177032C397.046631 253.177032,344.507050 274.945587,305.767456 313.685181C267.027863 352.424774,245.259308 404.964355,245.259308 459.754562C245.259308 514.544769,267.027863 567.084351,305.767456 605.823944C344.507050 644.563538,397.046631 666.332092,451.836838 666.332092C506.627045 666.332092,559.166626 644.563538,597.906219 605.823944C636.645813 567.084351,658.414368 514.544769,658.414368 459.754562Z" style="stroke:rgb(25.500488%,41.000366%,88.400269%); stroke-width: 2.500000;stroke-linecap: round;stroke-linejoin: round;stroke-miterlimit: 10.000000;fill: none;"></path>
  <path d="M1123.252731 216.273361C1123.252731 161.483154,1101.484177 108.943573,1062.744583 70.203979C1024.004990 31.464386,971.465408 9.695831,916.675201 9.695831C861.884995 9.695831,809.345413 31.464386,770.605820 70.203979C731.866226 108.943573,710.097672 161.483154,710.097672 216.273361C710.097672 271.063568,731.866226 323.603149,770.605820 362.342743C809.345413 401.082336,861.884995 422.850891,916.675201 422.850891C971.465408 422.850891,1024.004990 401.082336,1062.744583 362.342743C1101.484177 323.603149,1123.252731 271.063568,1123.252731 216.273361Z" style="stroke:rgb(25.500488%,41.000366%,88.400269%); stroke-width: 2.500000;stroke-linecap: round;stroke-linejoin: round;stroke-miterlimit: 10.000000;fill: none;"></path>
  <path d="M1469.101410 222.748383C1469.101410 167.958176,1447.332855 115.418594,1408.593262 76.679001C1369.853668 37.939407,1317.314087 16.170853,1262.523880 16.170853C1207.733673 16.170853,1155.194092 37.939407,1116.454498 76.679001C1077.714905 115.418594,1055.946350 167.958176,1055.946350 222.748383C1055.946350 277.538589,1077.714905 330.078171,1116.454498 368.817764C1155.194092 407.557358,1207.733673 429.325912,1262.523880 429.325912C1317.314087 429.325912,1369.853668 407.557358,1408.593262 368.817764C1447.332855 330.078171,1469.101410 277.538589,1469.101410 222.748383Z" style="stroke:rgb(25.500488%,41.000366%,88.400269%); stroke-width: 2.500000;stroke-linecap: round;stroke-linejoin: round;stroke-miterlimit: 10.000000;fill: none;"></path>
  <path d="M767.814819 207.203156C767.814819 152.412949,746.046265 99.873367,707.306671 61.133774C668.567078 22.394180,616.027496 0.625626,561.237289 0.625626C506.447083 0.625626,453.907501 22.394180,415.167908 61.133774C376.428314 99.873367,354.659760 152.412949,354.659760 207.203156C354.659760 261.993362,376.428314 314.532944,415.167908 353.272537C453.907501 392.012131,506.447083 413.780685,561.237289 413.780685C616.027496 413.780685,668.567078 392.012131,707.306671 353.272537C746.046265 314.532944,767.814819 261.993362,767.814819 207.203156Z" style="stroke:rgb(25.500488%,41.000366%,88.400269%); stroke-width: 2.500000;stroke-linecap: round;stroke-linejoin: round;stroke-miterlimit: 10.000000;fill: none;"></path>
</svg>
