<?xml version="1.0"?>
<!-- Created by MetaPost 2.00 on 2022.03.02:1201 -->
<svg version="1.1" xmlns="http://www.w3.org/2000/svg" xmlns:xlink="http://www.w3.org/1999/xlink" width="1728.551270" height="1595.599411" viewBox="0 0 1728.551270 1595.599411">
<!-- Original BoundingBox: -876.907745 -798.039764 851.643524 797.559647 -->
  <path d="M1726.393524 797.000000L1301.196762 60.535538L450.803238 60.535538L25.606476 797.000000L450.803238 1533.464462L1301.196762 1533.464462L1726.393524 797.000000Z" style="fill: rgb(100.000000%,100.000000%,100.000000%);stroke: none;"></path>
  <path d="M1726.393524 797.000000L1301.196762 60.535538" style="stroke:rgb(0.000000%,0.000000%,0.000000%); stroke-width: 2.500000;stroke-linecap: round;stroke-linejoin: round;stroke-miterlimit: 10.000000;fill: none;"></path>
  <path d="M1301.196762 60.535538L450.803238 60.535538" style="stroke:rgb(0.000000%,0.000000%,0.000000%); stroke-width: 2.500000;stroke-linecap: round;stroke-linejoin: round;stroke-miterlimit: 10.000000;fill: none;"></path>
  <path d="M450.803238 60.535538L25.606476 797.000000" style="stroke:rgb(0.000000%,0.000000%,0.000000%); stroke-width: 2.500000;stroke-linecap: round;stroke-linejoin: round;stroke-miterlimit: 10.000000;fill: none;"></path>
  <path d="M25.606476 797.000000L450.803238 1533.464462" style="stroke:rgb(0.000000%,0.000000%,0.000000%); stroke-width: 2.500000;stroke-linecap: round;stroke-linejoin: round;stroke-miterlimit: 10.000000;fill: none;"></path>
  <path d="M450.803238 1533.464462L1301.196762 1533.464462" style="stroke:rgb(0.000000%,0.000000%,0.000000%); stroke-width: 2.500000;stroke-linecap: round;stroke-linejoin: round;stroke-miterlimit: 10.000000;fill: none;"></path>
  <path d="M1301.196762 1533.464462L1726.393524 797.000000" style="stroke:rgb(0.000000%,0.000000%,0.000000%); stroke-width: 2.500000;stroke-linecap: round;stroke-linejoin: round;stroke-miterlimit: 10.000000;fill: none;"></path>
  <path d="M1378.403809 1459.008316C1378.403809 1428.237015,1366.178131 1398.729706,1344.421188 1376.972748C1322.664230 1355.215805,1293.156921 1342.990128,1262.385620 1342.990128C1231.614319 1342.990128,1202.107010 1355.215805,1180.350052 1376.972748C1158.593109 1398.729706,1146.367432 1428.237015,1146.367432 1459.008316C1146.367432 1489.779617,1158.593109 1519.286926,1180.350052 1541.043884C1202.107010 1562.800827,1231.614319 1575.026505,1262.385620 1575.026505C1293.156921 1575.026505,1322.664230 1562.800827,1344.421188 1541.043884C1366.178131 1519.286926,1378.403809 1489.779617,1378.403809 1459.008316Z" style="stroke:rgb(25.500488%,41.000366%,88.400269%); stroke-width: 2.500000;stroke-linecap: round;stroke-linejoin: round;stroke-miterlimit: 10.000000;fill: none;"></path>
  <path d="M1477.760849 1299.092392C1477.760849 1268.321091,1465.535172 1238.813782,1443.778229 1217.056824C1422.021271 1195.299881,1392.513962 1183.074203,1361.742661 1183.074203C1330.971359 1183.074203,1301.464050 1195.299881,1279.707092 1217.056824C1257.950150 1238.813782,1245.724472 1268.321091,1245.724472 1299.092392C1245.724472 1329.863693,1257.950150 1359.371002,1279.707092 1381.127960C1301.464050 1402.884903,1330.971359 1415.110580,1361.742661 1415.110580C1392.513962 1415.110580,1422.021271 1402.884903,1443.778229 1381.127960C1465.535172 1359.371002,1477.760849 1329.863693,1477.760849 1299.092392Z" style="stroke:rgb(25.500488%,41.000366%,88.400269%); stroke-width: 2.500000;stroke-linecap: round;stroke-linejoin: round;stroke-miterlimit: 10.000000;fill: none;"></path>
  <path d="M1564.544174 1133.389191C1564.544174 1102.617889,1552.318497 1073.110580,1530.561554 1051.353622C1508.804596 1029.596680,1479.297287 1017.371002,1448.525986 1017.371002C1417.754684 1017.371002,1388.247375 1029.596680,1366.490417 1051.353622C1344.733475 1073.110580,1332.507797 1102.617889,1332.507797 1133.389191C1332.507797 1164.160492,1344.733475 1193.667801,1366.490417 1215.424759C1388.247375 1237.181702,1417.754684 1249.407379,1448.525986 1249.407379C1479.297287 1249.407379,1508.804596 1237.181702,1530.561554 1215.424759C1552.318497 1193.667801,1564.544174 1164.160492,1564.544174 1133.389191Z" style="stroke:rgb(25.500488%,41.000366%,88.400269%); stroke-width: 2.500000;stroke-linecap: round;stroke-linejoin: round;stroke-miterlimit: 10.000000;fill: none;"></path>
  <path d="M1707.189072 980.402435C1707.189072 949.631134,1694.963394 920.123825,1673.206451 898.366867C1651.449493 876.609924,1621.942184 864.384247,1591.170883 864.384247C1560.399582 864.384247,1530.892273 876.609924,1509.135315 898.366867C1487.378372 920.123825,1475.152695 949.631134,1475.152695 980.402435C1475.152695 1011.173737,1487.378372 1040.681046,1509.135315 1062.438004C1530.892273 1084.194946,1560.399582 1096.420624,1591.170883 1096.420624C1621.942184 1096.420624,1651.449493 1084.194946,1673.206451 1062.438004C1694.963394 1040.681046,1707.189072 1011.173737,1707.189072 980.402435Z" style="stroke:rgb(25.500488%,41.000366%,88.400269%); stroke-width: 2.500000;stroke-linecap: round;stroke-linejoin: round;stroke-miterlimit: 10.000000;fill: none;"></path>
  <path d="M1198.414047 1461.512680C1198.414047 1430.741379,1186.188370 1401.234070,1164.431427 1379.477112C1142.674469 1357.720169,1113.167160 1345.494492,1082.395859 1345.494492C1051.624557 1345.494492,1022.117249 1357.720169,1000.360291 1379.477112C978.603348 1401.234070,966.377670 1430.741379,966.377670 1461.512680C966.377670 1492.283981,978.603348 1521.791290,1000.360291 1543.548248C1022.117249 1565.305191,1051.624557 1577.530869,1082.395859 1577.530869C1113.167160 1577.530869,1142.674469 1565.305191,1164.431427 1543.548248C1186.188370 1521.791290,1198.414047 1492.283981,1198.414047 1461.512680Z" style="stroke:rgb(25.500488%,41.000366%,88.400269%); stroke-width: 2.500000;stroke-linecap: round;stroke-linejoin: round;stroke-miterlimit: 10.000000;fill: none;"></path>
  <path d="M1299.146545 1271.635223C1299.146545 1240.863922,1286.920868 1211.356613,1265.163925 1189.599655C1243.406967 1167.842712,1213.899658 1155.617035,1183.128357 1155.617035C1152.357056 1155.617035,1122.849747 1167.842712,1101.092789 1189.599655C1079.335846 1211.356613,1067.110168 1240.863922,1067.110168 1271.635223C1067.110168 1302.406525,1079.335846 1331.913834,1101.092789 1353.670792C1122.849747 1375.427734,1152.357056 1387.653412,1183.128357 1387.653412C1213.899658 1387.653412,1243.406967 1375.427734,1265.163925 1353.670792C1286.920868 1331.913834,1299.146545 1302.406525,1299.146545 1271.635223Z" style="stroke:rgb(25.500488%,41.000366%,88.400269%); stroke-width: 2.500000;stroke-linecap: round;stroke-linejoin: round;stroke-miterlimit: 10.000000;fill: none;"></path>
  <path d="M1417.565308 1098.821182C1417.565308 1068.049881,1405.339630 1038.542572,1383.582687 1016.785614C1361.825729 995.028671,1332.318420 982.802994,1301.547119 982.802994C1270.775818 982.802994,1241.268509 995.028671,1219.511551 1016.785614C1197.754608 1038.542572,1185.528931 1068.049881,1185.528931 1098.821182C1185.528931 1129.592484,1197.754608 1159.099792,1219.511551 1180.856750C1241.268509 1202.613693,1270.775818 1214.839371,1301.547119 1214.839371C1332.318420 1214.839371,1361.825729 1202.613693,1383.582687 1180.856750C1405.339630 1159.099792,1417.565308 1129.592484,1417.565308 1098.821182Z" style="stroke:rgb(25.500488%,41.000366%,88.400269%); stroke-width: 2.500000;stroke-linecap: round;stroke-linejoin: round;stroke-miterlimit: 10.000000;fill: none;"></path>
  <path d="M1545.832825 919.609985C1545.832825 888.838684,1533.607147 859.331375,1511.850204 837.574417C1490.093246 815.817474,1460.585938 803.591797,1429.814636 803.591797C1399.043335 803.591797,1369.536026 815.817474,1347.779068 837.574417C1326.022125 859.331375,1313.796448 888.838684,1313.796448 919.609985C1313.796448 950.381287,1326.022125 979.888596,1347.779068 1001.645554C1369.536026 1023.402496,1399.043335 1035.628174,1429.814636 1035.628174C1460.585938 1035.628174,1490.093246 1023.402496,1511.850204 1001.645554C1533.607147 979.888596,1545.832825 950.381287,1545.832825 919.609985Z" style="stroke:rgb(25.500488%,41.000366%,88.400269%); stroke-width: 2.500000;stroke-linecap: round;stroke-linejoin: round;stroke-miterlimit: 10.000000;fill: none;"></path>
  <path d="M1726.393524 795.403961C1726.393524 764.632660,1714.167847 735.125351,1692.410904 713.368393C1670.653946 691.611450,1641.146637 679.385773,1610.375336 679.385773C1579.604034 679.385773,1550.096725 691.611450,1528.339767 713.368393C1506.582825 735.125351,1494.357147 764.632660,1494.357147 795.403961C1494.357147 826.175262,1506.582825 855.682571,1528.339767 877.439529C1550.096725 899.196472,1579.604034 911.422150,1610.375336 911.422150C1641.146637 911.422150,1670.653946 899.196472,1692.410904 877.439529C1714.167847 855.682571,1726.393524 826.175262,1726.393524 795.403961Z" style="stroke:rgb(25.500488%,41.000366%,88.400269%); stroke-width: 2.500000;stroke-linecap: round;stroke-linejoin: round;stroke-miterlimit: 10.000000;fill: none;"></path>
  <path d="M1674.502594 653.148331C1674.502594 622.377029,1662.276917 592.869720,1640.519974 571.112762C1618.763016 549.355820,1589.255707 537.130142,1558.484406 537.130142C1527.713104 537.130142,1498.205795 549.355820,1476.448837 571.112762C1454.691895 592.869720,1442.466217 622.377029,1442.466217 653.148331C1442.466217 683.919632,1454.691895 713.426941,1476.448837 735.183899C1498.205795 756.940842,1527.713104 769.166519,1558.484406 769.166519C1589.255707 769.166519,1618.763016 756.940842,1640.519974 735.183899C1662.276917 713.426941,1674.502594 683.919632,1674.502594 653.148331Z" style="stroke:rgb(25.500488%,41.000366%,88.400269%); stroke-width: 2.500000;stroke-linecap: round;stroke-linejoin: round;stroke-miterlimit: 10.000000;fill: none;"></path>
  <path d="M1007.848877 1473.839859C1007.848877 1443.068558,995.623199 1413.561249,973.866257 1391.804291C952.109299 1370.047348,922.601990 1357.821671,891.830688 1357.821671C861.059387 1357.821671,831.552078 1370.047348,809.795120 1391.804291C788.038177 1413.561249,775.812500 1443.068558,775.812500 1473.839859C775.812500 1504.611160,788.038177 1534.118469,809.795120 1555.875427C831.552078 1577.632370,861.059387 1589.858047,891.830688 1589.858047C922.601990 1589.858047,952.109299 1577.632370,973.866257 1555.875427C995.623199 1534.118469,1007.848877 1504.611160,1007.848877 1473.839859Z" style="stroke:rgb(25.500488%,41.000366%,88.400269%); stroke-width: 2.500000;stroke-linecap: round;stroke-linejoin: round;stroke-miterlimit: 10.000000;fill: none;"></path>
  <path d="M1109.904922 1287.712463C1109.904922 1256.941162,1097.679245 1227.433853,1075.922302 1205.676895C1054.165344 1183.919952,1024.658035 1171.694275,993.886734 1171.694275C963.115433 1171.694275,933.608124 1183.919952,911.851166 1205.676895C890.094223 1227.433853,877.868546 1256.941162,877.868546 1287.712463C877.868546 1318.483765,890.094223 1347.991074,911.851166 1369.748032C933.608124 1391.504974,963.115433 1403.730652,993.886734 1403.730652C1024.658035 1403.730652,1054.165344 1391.504974,1075.922302 1369.748032C1097.679245 1347.991074,1109.904922 1318.483765,1109.904922 1287.712463Z" style="stroke:rgb(25.500488%,41.000366%,88.400269%); stroke-width: 2.500000;stroke-linecap: round;stroke-linejoin: round;stroke-miterlimit: 10.000000;fill: none;"></path>
  <path d="M1215.918640 1100.456161C1215.918640 1069.684860,1203.692963 1040.177551,1181.936020 1018.420593C1160.179062 996.663651,1130.671753 984.437973,1099.900452 984.437973C1069.129150 984.437973,1039.621841 996.663651,1017.864883 1018.420593C996.107941 1040.177551,983.882263 1069.684860,983.882263 1100.456161C983.882263 1131.227463,996.107941 1160.734772,1017.864883 1182.491730C1039.621841 1204.248672,1069.129150 1216.474350,1099.900452 1216.474350C1130.671753 1216.474350,1160.179062 1204.248672,1181.936020 1182.491730C1203.692963 1160.734772,1215.918640 1131.227463,1215.918640 1100.456161Z" style="stroke:rgb(25.500488%,41.000366%,88.400269%); stroke-width: 2.500000;stroke-linecap: round;stroke-linejoin: round;stroke-miterlimit: 10.000000;fill: none;"></path>
  <path d="M1350.868790 931.508957C1350.868790 900.737656,1338.643112 871.230347,1316.886169 849.473389C1295.129211 827.716446,1265.621902 815.490768,1234.850601 815.490768C1204.079300 815.490768,1174.571991 827.716446,1152.815033 849.473389C1131.058090 871.230347,1118.832413 900.737656,1118.832413 931.508957C1118.832413 962.280258,1131.058090 991.787567,1152.815033 1013.544525C1174.571991 1035.301468,1204.079300 1047.527145,1234.850601 1047.527145C1265.621902 1047.527145,1295.129211 1035.301468,1316.886169 1013.544525C1338.643112 991.787567,1350.868790 962.280258,1350.868790 931.508957Z" style="stroke:rgb(25.500488%,41.000366%,88.400269%); stroke-width: 2.500000;stroke-linecap: round;stroke-linejoin: round;stroke-miterlimit: 10.000000;fill: none;"></path>
  <path d="M1505.957642 785.062103C1505.957642 754.290802,1493.731964 724.783493,1471.975021 703.026535C1450.218063 681.269592,1420.710754 669.043915,1389.939453 669.043915C1359.168152 669.043915,1329.660843 681.269592,1307.903885 703.026535C1286.146942 724.783493,1273.921265 754.290802,1273.921265 785.062103C1273.921265 815.833405,1286.146942 845.340714,1307.903885 867.097672C1329.660843 888.854614,1359.168152 901.080292,1389.939453 901.080292C1420.710754 901.080292,1450.218063 888.854614,1471.975021 867.097672C1493.731964 845.340714,1505.957642 815.833405,1505.957642 785.062103Z" style="stroke:rgb(25.500488%,41.000366%,88.400269%); stroke-width: 2.500000;stroke-linecap: round;stroke-linejoin: round;stroke-miterlimit: 10.000000;fill: none;"></path>
  <path d="M1520.451813 630.310623C1520.451813 599.539322,1508.226135 570.032013,1486.469193 548.275055C1464.712234 526.518112,1435.204926 514.292435,1404.433624 514.292435C1373.662323 514.292435,1344.155014 526.518112,1322.398056 548.275055C1300.641113 570.032013,1288.415436 599.539322,1288.415436 630.310623C1288.415436 661.081924,1300.641113 690.589233,1322.398056 712.346191C1344.155014 734.103134,1373.662323 746.328812,1404.433624 746.328812C1435.204926 746.328812,1464.712234 734.103134,1486.469193 712.346191C1508.226135 690.589233,1520.451813 661.081924,1520.451813 630.310623Z" style="stroke:rgb(25.500488%,41.000366%,88.400269%); stroke-width: 2.500000;stroke-linecap: round;stroke-linejoin: round;stroke-miterlimit: 10.000000;fill: none;"></path>
  <path d="M1602.395096 466.475952C1602.395096 435.704651,1590.169418 406.197342,1568.412476 384.440384C1546.655518 362.683441,1517.148209 350.457764,1486.376907 350.457764C1455.605606 350.457764,1426.098297 362.683441,1404.341339 384.440384C1382.584396 406.197342,1370.358719 435.704651,1370.358719 466.475952C1370.358719 497.247253,1382.584396 526.754562,1404.341339 548.511520C1426.098297 570.268463,1455.605606 582.494141,1486.376907 582.494141C1517.148209 582.494141,1546.655518 570.268463,1568.412476 548.511520C1590.169418 526.754562,1602.395096 497.247253,1602.395096 466.475952Z" style="stroke:rgb(25.500488%,41.000366%,88.400269%); stroke-width: 2.500000;stroke-linecap: round;stroke-linejoin: round;stroke-miterlimit: 10.000000;fill: none;"></path>
  <path d="M806.539597 1477.771576C806.539597 1447.000275,794.313919 1417.492966,772.556976 1395.736008C750.800018 1373.979065,721.292709 1361.753387,690.521408 1361.753387C659.750107 1361.753387,630.242798 1373.979065,608.485840 1395.736008C586.728897 1417.492966,574.503220 1447.000275,574.503220 1477.771576C574.503220 1508.542877,586.728897 1538.050186,608.485840 1559.807144C630.242798 1581.564087,659.750107 1593.789764,690.521408 1593.789764C721.292709 1593.789764,750.800018 1581.564087,772.556976 1559.807144C794.313919 1538.050186,806.539597 1508.542877,806.539597 1477.771576Z" style="stroke:rgb(25.500488%,41.000366%,88.400269%); stroke-width: 2.500000;stroke-linecap: round;stroke-linejoin: round;stroke-miterlimit: 10.000000;fill: none;"></path>
  <path d="M915.991943 1302.569946C915.991943 1271.798645,903.766266 1242.291336,882.009323 1220.534378C860.252365 1198.777435,830.745056 1186.551758,799.973755 1186.551758C769.202454 1186.551758,739.695145 1198.777435,717.938187 1220.534378C696.181244 1242.291336,683.955566 1271.798645,683.955566 1302.569946C683.955566 1333.341248,696.181244 1362.848557,717.938187 1384.605515C739.695145 1406.362457,769.202454 1418.588135,799.973755 1418.588135C830.745056 1418.588135,860.252365 1406.362457,882.009323 1384.605515C903.766266 1362.848557,915.991943 1333.341248,915.991943 1302.569946Z" style="stroke:rgb(25.500488%,41.000366%,88.400269%); stroke-width: 2.500000;stroke-linecap: round;stroke-linejoin: round;stroke-miterlimit: 10.000000;fill: none;"></path>
  <path d="M1022.330063 1118.895020C1022.330063 1088.123718,1010.104385 1058.616409,988.347443 1036.859451C966.590485 1015.102509,937.083176 1002.876831,906.311874 1002.876831C875.540573 1002.876831,846.033264 1015.102509,824.276306 1036.859451C802.519363 1058.616409,790.293686 1088.123718,790.293686 1118.895020C790.293686 1149.666321,802.519363 1179.173630,824.276306 1200.930588C846.033264 1222.687531,875.540573 1234.913208,906.311874 1234.913208C937.083176 1234.913208,966.590485 1222.687531,988.347443 1200.930588C1010.104385 1179.173630,1022.330063 1149.666321,1022.330063 1118.895020Z" style="stroke:rgb(25.500488%,41.000366%,88.400269%); stroke-width: 2.500000;stroke-linecap: round;stroke-linejoin: round;stroke-miterlimit: 10.000000;fill: none;"></path>
  <path d="M1143.863052 944.004822C1143.863052 913.233521,1131.637375 883.726212,1109.880432 861.969254C1088.123474 840.212311,1058.616165 827.986633,1027.844864 827.986633C997.073563 827.986633,967.566254 840.212311,945.809296 861.969254C924.052353 883.726212,911.826675 913.233521,911.826675 944.004822C911.826675 974.776123,924.052353 1004.283432,945.809296 1026.040390C967.566254 1047.797333,997.073563 1060.023010,1027.844864 1060.023010C1058.616165 1060.023010,1088.123474 1047.797333,1109.880432 1026.040390C1131.637375 1004.283432,1143.863052 974.776123,1143.863052 944.004822Z" style="stroke:rgb(25.500488%,41.000366%,88.400269%); stroke-width: 2.500000;stroke-linecap: round;stroke-linejoin: round;stroke-miterlimit: 10.000000;fill: none;"></path>
  <path d="M1286.313309 790.473083C1286.313309 759.701782,1274.087631 730.194473,1252.330688 708.437515C1230.573730 686.680573,1201.066422 674.454895,1170.295120 674.454895C1139.523819 674.454895,1110.016510 686.680573,1088.259552 708.437515C1066.502609 730.194473,1054.276932 759.701782,1054.276932 790.473083C1054.276932 821.244385,1066.502609 850.751694,1088.259552 872.508652C1110.016510 894.265594,1139.523819 906.491272,1170.295120 906.491272C1201.066422 906.491272,1230.573730 894.265594,1252.330688 872.508652C1274.087631 850.751694,1286.313309 821.244385,1286.313309 790.473083Z" style="stroke:rgb(25.500488%,41.000366%,88.400269%); stroke-width: 2.500000;stroke-linecap: round;stroke-linejoin: round;stroke-miterlimit: 10.000000;fill: none;"></path>
  <path d="M1335.531189 650.968369C1335.531189 620.197067,1323.305511 590.689758,1301.548569 568.932800C1279.791611 547.175858,1250.284302 534.950180,1219.513000 534.950180C1188.741699 534.950180,1159.234390 547.175858,1137.477432 568.932800C1115.720490 590.689758,1103.494812 620.197067,1103.494812 650.968369C1103.494812 681.739670,1115.720490 711.246979,1137.477432 733.003937C1159.234390 754.760880,1188.741699 766.986557,1219.513000 766.986557C1250.284302 766.986557,1279.791611 754.760880,1301.548569 733.003937C1323.305511 711.246979,1335.531189 681.739670,1335.531189 650.968369Z" style="stroke:rgb(25.500488%,41.000366%,88.400269%); stroke-width: 2.500000;stroke-linecap: round;stroke-linejoin: round;stroke-miterlimit: 10.000000;fill: none;"></path>
  <path d="M1402.578049 462.738876C1402.578049 431.967575,1390.352371 402.460266,1368.595428 380.703308C1346.838470 358.946365,1317.331161 346.720688,1286.559860 346.720688C1255.788559 346.720688,1226.281250 358.946365,1204.524292 380.703308C1182.767349 402.460266,1170.541672 431.967575,1170.541672 462.738876C1170.541672 493.510178,1182.767349 523.017487,1204.524292 544.774445C1226.281250 566.531387,1255.788559 578.757065,1286.559860 578.757065C1317.331161 578.757065,1346.838470 566.531387,1368.595428 544.774445C1390.352371 523.017487,1402.578049 493.510178,1402.578049 462.738876Z" style="stroke:rgb(25.500488%,41.000366%,88.400269%); stroke-width: 2.500000;stroke-linecap: round;stroke-linejoin: round;stroke-miterlimit: 10.000000;fill: none;"></path>
  <path d="M1486.519638 290.911011C1486.519638 260.139709,1474.293961 230.632401,1452.537018 208.875443C1430.780060 187.118500,1401.272751 174.892822,1370.501450 174.892822C1339.730148 174.892822,1310.222839 187.118500,1288.465881 208.875443C1266.708939 230.632401,1254.483261 260.139709,1254.483261 290.911011C1254.483261 321.682312,1266.708939 351.189621,1288.465881 372.946579C1310.222839 394.703522,1339.730148 406.929199,1370.501450 406.929199C1401.272751 406.929199,1430.780060 394.703522,1452.537018 372.946579C1474.293961 351.189621,1486.519638 321.682312,1486.519638 290.911011Z" style="stroke:rgb(25.500488%,41.000366%,88.400269%); stroke-width: 2.500000;stroke-linecap: round;stroke-linejoin: round;stroke-miterlimit: 10.000000;fill: none;"></path>
  <path d="M611.186279 1464.860474C611.186279 1434.089172,598.960602 1404.581863,577.203659 1382.824905C555.446701 1361.067963,525.939392 1348.842285,495.168091 1348.842285C464.396790 1348.842285,434.889481 1361.067963,413.132523 1382.824905C391.375580 1404.581863,379.149902 1434.089172,379.149902 1464.860474C379.149902 1495.631775,391.375580 1525.139084,413.132523 1546.896042C434.889481 1568.652985,464.396790 1580.878662,495.168091 1580.878662C525.939392 1580.878662,555.446701 1568.652985,577.203659 1546.896042C598.960602 1525.139084,611.186279 1495.631775,611.186279 1464.860474Z" style="stroke:rgb(25.500488%,41.000366%,88.400269%); stroke-width: 2.500000;stroke-linecap: round;stroke-linejoin: round;stroke-miterlimit: 10.000000;fill: none;"></path>
  <path d="M720.937088 1296.315536C720.937088 1265.544235,708.711411 1236.036926,686.954468 1214.279968C665.197510 1192.523026,635.690201 1180.297348,604.918900 1180.297348C574.147598 1180.297348,544.640289 1192.523026,522.883331 1214.279968C501.126389 1236.036926,488.900711 1265.544235,488.900711 1296.315536C488.900711 1327.086838,501.126389 1356.594147,522.883331 1378.351105C544.640289 1400.108047,574.147598 1412.333725,604.918900 1412.333725C635.690201 1412.333725,665.197510 1400.108047,686.954468 1378.351105C708.711411 1356.594147,720.937088 1327.086838,720.937088 1296.315536Z" style="stroke:rgb(25.500488%,41.000366%,88.400269%); stroke-width: 2.500000;stroke-linecap: round;stroke-linejoin: round;stroke-miterlimit: 10.000000;fill: none;"></path>
  <path d="M829.221603 1127.290482C829.221603 1096.519180,816.995926 1067.011871,795.238983 1045.254913C773.482025 1023.497971,743.974716 1011.272293,713.203415 1011.272293C682.432114 1011.272293,652.924805 1023.497971,631.167847 1045.254913C609.410904 1067.011871,597.185226 1096.519180,597.185226 1127.290482C597.185226 1158.061783,609.410904 1187.569092,631.167847 1209.326050C652.924805 1231.082993,682.432114 1243.308670,713.203415 1243.308670C743.974716 1243.308670,773.482025 1231.082993,795.238983 1209.326050C816.995926 1187.569092,829.221603 1158.061783,829.221603 1127.290482Z" style="stroke:rgb(25.500488%,41.000366%,88.400269%); stroke-width: 2.500000;stroke-linecap: round;stroke-linejoin: round;stroke-miterlimit: 10.000000;fill: none;"></path>
  <path d="M938.998352 958.602798C938.998352 927.831497,926.772675 898.324188,905.015732 876.567230C883.258774 854.810287,853.751465 842.584610,822.980164 842.584610C792.208862 842.584610,762.701553 854.810287,740.944595 876.567230C719.187653 898.324188,706.961975 927.831497,706.961975 958.602798C706.961975 989.374100,719.187653 1018.881409,740.944595 1040.638367C762.701553 1062.395309,792.208862 1074.620987,822.980164 1074.620987C853.751465 1074.620987,883.258774 1062.395309,905.015732 1040.638367C926.772675 1018.881409,938.998352 989.374100,938.998352 958.602798Z" style="stroke:rgb(25.500488%,41.000366%,88.400269%); stroke-width: 2.500000;stroke-linecap: round;stroke-linejoin: round;stroke-miterlimit: 10.000000;fill: none;"></path>
  <path d="M1067.577286 799.179962C1067.577286 768.408661,1055.351608 738.901352,1033.594666 717.144394C1011.837708 695.387451,982.330399 683.161774,951.559097 683.161774C920.787796 683.161774,891.280487 695.387451,869.523529 717.144394C847.766586 738.901352,835.540909 768.408661,835.540909 799.179962C835.540909 829.951263,847.766586 859.458572,869.523529 881.215530C891.280487 902.972473,920.787796 915.198151,951.559097 915.198151C982.330399 915.198151,1011.837708 902.972473,1033.594666 881.215530C1055.351608 859.458572,1067.577286 829.951263,1067.577286 799.179962Z" style="stroke:rgb(25.500488%,41.000366%,88.400269%); stroke-width: 2.500000;stroke-linecap: round;stroke-linejoin: round;stroke-miterlimit: 10.000000;fill: none;"></path>
  <path d="M1129.213181 649.956253C1129.213181 619.184952,1116.987503 589.677643,1095.230560 567.920685C1073.473602 546.163742,1043.966293 533.938065,1013.194992 533.938065C982.423691 533.938065,952.916382 546.163742,931.159424 567.920685C909.402481 589.677643,897.176804 619.184952,897.176804 649.956253C897.176804 680.727554,909.402481 710.234863,931.159424 731.991821C952.916382 753.748764,982.423691 765.974442,1013.194992 765.974442C1043.966293 765.974442,1073.473602 753.748764,1095.230560 731.991821C1116.987503 710.234863,1129.213181 680.727554,1129.213181 649.956253Z" style="stroke:rgb(25.500488%,41.000366%,88.400269%); stroke-width: 2.500000;stroke-linecap: round;stroke-linejoin: round;stroke-miterlimit: 10.000000;fill: none;"></path>
  <path d="M1210.572540 483.461502C1210.572540 452.690201,1198.346863 423.182892,1176.589920 401.425934C1154.832962 379.668991,1125.325653 367.443314,1094.554352 367.443314C1063.783051 367.443314,1034.275742 379.668991,1012.518784 401.425934C990.761841 423.182892,978.536163 452.690201,978.536163 483.461502C978.536163 514.232803,990.761841 543.740112,1012.518784 565.497070C1034.275742 587.254013,1063.783051 599.479691,1094.554352 599.479691C1125.325653 599.479691,1154.832962 587.254013,1176.589920 565.497070C1198.346863 543.740112,1210.572540 514.232803,1210.572540 483.461502Z" style="stroke:rgb(25.500488%,41.000366%,88.400269%); stroke-width: 2.500000;stroke-linecap: round;stroke-linejoin: round;stroke-miterlimit: 10.000000;fill: none;"></path>
  <path d="M1279.773422 300.240738C1279.773422 269.469437,1267.547745 239.962128,1245.790802 218.205170C1224.033844 196.448227,1194.526535 184.222549,1163.755234 184.222549C1132.983932 184.222549,1103.476624 196.448227,1081.719666 218.205170C1059.962723 239.962128,1047.737045 269.469437,1047.737045 300.240738C1047.737045 331.012039,1059.962723 360.519348,1081.719666 382.276306C1103.476624 404.033249,1132.983932 416.258926,1163.755234 416.258926C1194.526535 416.258926,1224.033844 404.033249,1245.790802 382.276306C1267.547745 360.519348,1279.773422 331.012039,1279.773422 300.240738Z" style="stroke:rgb(25.500488%,41.000366%,88.400269%); stroke-width: 2.500000;stroke-linecap: round;stroke-linejoin: round;stroke-miterlimit: 10.000000;fill: none;"></path>
  <path d="M1377.508469 127.193130C1377.508469 96.421829,1365.282791 66.914520,1343.525848 45.157562C1321.768890 23.400620,1292.261581 11.174942,1261.490280 11.174942C1230.718979 11.174942,1201.211670 23.400620,1179.454712 45.157562C1157.697769 66.914520,1145.472092 96.421829,1145.472092 127.193130C1145.472092 157.964432,1157.697769 187.471741,1179.454712 209.228699C1201.211670 230.985641,1230.718979 243.211319,1261.490280 243.211319C1292.261581 243.211319,1321.768890 230.985641,1343.525848 209.228699C1365.282791 187.471741,1377.508469 157.964432,1377.508469 127.193130Z" style="stroke:rgb(25.500488%,41.000366%,88.400269%); stroke-width: 2.500000;stroke-linecap: round;stroke-linejoin: round;stroke-miterlimit: 10.000000;fill: none;"></path>
  <path d="M509.402740 1307.072617C509.402740 1276.301315,497.177063 1246.794006,475.420120 1225.037048C453.663162 1203.280106,424.155853 1191.054428,393.384552 1191.054428C362.613251 1191.054428,333.105942 1203.280106,311.348984 1225.037048C289.592041 1246.794006,277.366364 1276.301315,277.366364 1307.072617C277.366364 1337.843918,289.592041 1367.351227,311.348984 1389.108185C333.105942 1410.865128,362.613251 1423.090805,393.384552 1423.090805C424.155853 1423.090805,453.663162 1410.865128,475.420120 1389.108185C497.177063 1367.351227,509.402740 1337.843918,509.402740 1307.072617Z" style="stroke:rgb(25.500488%,41.000366%,88.400269%); stroke-width: 2.500000;stroke-linecap: round;stroke-linejoin: round;stroke-miterlimit: 10.000000;fill: none;"></path>
  <path d="M617.907837 1138.475769C617.907837 1107.704468,605.682159 1078.197159,583.925217 1056.440201C562.168259 1034.683258,532.660950 1022.457581,501.889648 1022.457581C471.118347 1022.457581,441.611038 1034.683258,419.854080 1056.440201C398.097137 1078.197159,385.871460 1107.704468,385.871460 1138.475769C385.871460 1169.247070,398.097137 1198.754379,419.854080 1220.511337C441.611038 1242.268280,471.118347 1254.493958,501.889648 1254.493958C532.660950 1254.493958,562.168259 1242.268280,583.925217 1220.511337C605.682159 1198.754379,617.907837 1169.247070,617.907837 1138.475769Z" style="stroke:rgb(25.500488%,41.000366%,88.400269%); stroke-width: 2.500000;stroke-linecap: round;stroke-linejoin: round;stroke-miterlimit: 10.000000;fill: none;"></path>
  <path d="M727.528885 969.515594C727.528885 938.744293,715.303207 909.236984,693.546265 887.480026C671.789307 865.723083,642.281998 853.497406,611.510696 853.497406C580.739395 853.497406,551.232086 865.723083,529.475128 887.480026C507.718185 909.236984,495.492508 938.744293,495.492508 969.515594C495.492508 1000.286896,507.718185 1029.794205,529.475128 1051.551163C551.232086 1073.308105,580.739395 1085.533783,611.510696 1085.533783C642.281998 1085.533783,671.789307 1073.308105,693.546265 1051.551163C715.303207 1029.794205,727.528885 1000.286896,727.528885 969.515594Z" style="stroke:rgb(25.500488%,41.000366%,88.400269%); stroke-width: 2.500000;stroke-linecap: round;stroke-linejoin: round;stroke-miterlimit: 10.000000;fill: none;"></path>
  <path d="M852.656219 802.735382C852.656219 771.964081,840.430542 742.456772,818.673599 720.699814C796.916641 698.942871,767.409332 686.717194,736.638031 686.717194C705.866730 686.717194,676.359421 698.942871,654.602463 720.699814C632.845520 742.456772,620.619843 771.964081,620.619843 802.735382C620.619843 833.506683,632.845520 863.013992,654.602463 884.770950C676.359421 906.527893,705.866730 918.753571,736.638031 918.753571C767.409332 918.753571,796.916641 906.527893,818.673599 884.770950C840.430542 863.013992,852.656219 833.506683,852.656219 802.735382Z" style="stroke:rgb(25.500488%,41.000366%,88.400269%); stroke-width: 2.500000;stroke-linecap: round;stroke-linejoin: round;stroke-miterlimit: 10.000000;fill: none;"></path>
  <path d="M930.369324 644.921570C930.369324 614.150269,918.143646 584.642960,896.386703 562.886002C874.629745 541.129059,845.122437 528.903381,814.351135 528.903381C783.579834 528.903381,754.072525 541.129059,732.315567 562.886002C710.558624 584.642960,698.332947 614.150269,698.332947 644.921570C698.332947 675.692871,710.558624 705.200180,732.315567 726.957138C754.072525 748.714081,783.579834 760.939758,814.351135 760.939758C845.122437 760.939758,874.629745 748.714081,896.386703 726.957138C918.143646 705.200180,930.369324 675.692871,930.369324 644.921570Z" style="stroke:rgb(25.500488%,41.000366%,88.400269%); stroke-width: 2.500000;stroke-linecap: round;stroke-linejoin: round;stroke-miterlimit: 10.000000;fill: none;"></path>
  <path d="M1014.077347 472.976913C1014.077347 442.205612,1001.851669 412.698303,980.094727 390.941345C958.337769 369.184402,928.830460 356.958725,898.059158 356.958725C867.287857 356.958725,837.780548 369.184402,816.023590 390.941345C794.266647 412.698303,782.040970 442.205612,782.040970 472.976913C782.040970 503.748215,794.266647 533.255524,816.023590 555.012482C837.780548 576.769424,867.287857 588.995102,898.059158 588.995102C928.830460 588.995102,958.337769 576.769424,980.094727 555.012482C1001.851669 533.255524,1014.077347 503.748215,1014.077347 472.976913Z" style="stroke:rgb(25.500488%,41.000366%,88.400269%); stroke-width: 2.500000;stroke-linecap: round;stroke-linejoin: round;stroke-miterlimit: 10.000000;fill: none;"></path>
  <path d="M1092.011047 303.225204C1092.011047 272.453903,1079.785370 242.946594,1058.028427 221.189636C1036.271469 199.432693,1006.764160 187.207016,975.992859 187.207016C945.221558 187.207016,915.714249 199.432693,893.957291 221.189636C872.200348 242.946594,859.974670 272.453903,859.974670 303.225204C859.974670 333.996506,872.200348 363.503815,893.957291 385.260773C915.714249 407.017715,945.221558 419.243393,975.992859 419.243393C1006.764160 419.243393,1036.271469 407.017715,1058.028427 385.260773C1079.785370 363.503815,1092.011047 333.996506,1092.011047 303.225204Z" style="stroke:rgb(25.500488%,41.000366%,88.400269%); stroke-width: 2.500000;stroke-linecap: round;stroke-linejoin: round;stroke-miterlimit: 10.000000;fill: none;"></path>
  <path d="M1181.532303 117.616852C1181.532303 86.845551,1169.306625 57.338242,1147.549683 35.581284C1125.792725 13.824341,1096.285416 1.598663,1065.514114 1.598663C1034.742813 1.598663,1005.235504 13.824341,983.478546 35.581284C961.721603 57.338242,949.495926 86.845551,949.495926 117.616852C949.495926 148.388153,961.721603 177.895462,983.478546 199.652420C1005.235504 221.409363,1034.742813 233.635040,1065.514114 233.635040C1096.285416 233.635040,1125.792725 221.409363,1147.549683 199.652420C1169.306625 177.895462,1181.532303 148.388153,1181.532303 117.616852Z" style="stroke:rgb(25.500488%,41.000366%,88.400269%); stroke-width: 2.500000;stroke-linecap: round;stroke-linejoin: round;stroke-miterlimit: 10.000000;fill: none;"></path>
  <path d="M411.018890 1138.787186C411.018890 1108.015884,398.793213 1078.508575,377.036270 1056.751617C355.279312 1034.994675,325.772003 1022.768997,295.000702 1022.768997C264.229401 1022.768997,234.722092 1034.994675,212.965134 1056.751617C191.208191 1078.508575,178.982513 1108.015884,178.982513 1138.787186C178.982513 1169.558487,191.208191 1199.065796,212.965134 1220.822754C234.722092 1242.579697,264.229401 1254.805374,295.000702 1254.805374C325.772003 1254.805374,355.279312 1242.579697,377.036270 1220.822754C398.793213 1199.065796,411.018890 1169.558487,411.018890 1138.787186Z" style="stroke:rgb(25.500488%,41.000366%,88.400269%); stroke-width: 2.500000;stroke-linecap: round;stroke-linejoin: round;stroke-miterlimit: 10.000000;fill: none;"></path>
  <path d="M520.458267 971.033783C520.458267 940.262482,508.232590 910.755173,486.475647 888.998215C464.718689 867.241272,435.211380 855.015594,404.440079 855.015594C373.668777 855.015594,344.161469 867.241272,322.404510 888.998215C300.647568 910.755173,288.421890 940.262482,288.421890 971.033783C288.421890 1001.805084,300.647568 1031.312393,322.404510 1053.069351C344.161469 1074.826294,373.668777 1087.051971,404.440079 1087.051971C435.211380 1087.051971,464.718689 1074.826294,486.475647 1053.069351C508.232590 1031.312393,520.458267 1001.805084,520.458267 971.033783Z" style="stroke:rgb(25.500488%,41.000366%,88.400269%); stroke-width: 2.500000;stroke-linecap: round;stroke-linejoin: round;stroke-miterlimit: 10.000000;fill: none;"></path>
  <path d="M645.442856 803.981079C645.442856 773.209778,633.217178 743.702469,611.460236 721.945511C589.703278 700.188568,560.195969 687.962891,529.424667 687.962891C498.653366 687.962891,469.146057 700.188568,447.389099 721.945511C425.632156 743.702469,413.406479 773.209778,413.406479 803.981079C413.406479 834.752380,425.632156 864.259689,447.389099 886.016647C469.146057 907.773590,498.653366 919.999268,529.424667 919.999268C560.195969 919.999268,589.703278 907.773590,611.460236 886.016647C633.217178 864.259689,645.442856 834.752380,645.442856 803.981079Z" style="stroke:rgb(25.500488%,41.000366%,88.400269%); stroke-width: 2.500000;stroke-linecap: round;stroke-linejoin: round;stroke-miterlimit: 10.000000;fill: none;"></path>
  <path d="M719.717346 638.809891C719.717346 608.038589,707.491669 578.531281,685.734726 556.774323C663.977768 535.017380,634.470459 522.791702,603.699158 522.791702C572.927856 522.791702,543.420547 535.017380,521.663589 556.774323C499.906647 578.531281,487.680969 608.038589,487.680969 638.809891C487.680969 669.581192,499.906647 699.088501,521.663589 720.845459C543.420547 742.602402,572.927856 754.828079,603.699158 754.828079C634.470459 754.828079,663.977768 742.602402,685.734726 720.845459C707.491669 699.088501,719.717346 669.581192,719.717346 638.809891Z" style="stroke:rgb(25.500488%,41.000366%,88.400269%); stroke-width: 2.500000;stroke-linecap: round;stroke-linejoin: round;stroke-miterlimit: 10.000000;fill: none;"></path>
  <path d="M814.986954 477.868866C814.986954 447.097565,802.761276 417.590256,781.004333 395.833298C759.247375 374.076355,729.740067 361.850677,698.968765 361.850677C668.197464 361.850677,638.690155 374.076355,616.933197 395.833298C595.176254 417.590256,582.950577 447.097565,582.950577 477.868866C582.950577 508.640167,595.176254 538.147476,616.933197 559.904434C638.690155 581.661377,668.197464 593.887054,698.968765 593.887054C729.740067 593.887054,759.247375 581.661377,781.004333 559.904434C802.761276 538.147476,814.986954 508.640167,814.986954 477.868866Z" style="stroke:rgb(25.500488%,41.000366%,88.400269%); stroke-width: 2.500000;stroke-linecap: round;stroke-linejoin: round;stroke-miterlimit: 10.000000;fill: none;"></path>
  <path d="M889.482025 302.290939C889.482025 271.519638,877.256348 242.012329,855.499405 220.255371C833.742447 198.498428,804.235138 186.272751,773.463837 186.272751C742.692535 186.272751,713.185226 198.498428,691.428268 220.255371C669.671326 242.012329,657.445648 271.519638,657.445648 302.290939C657.445648 333.062241,669.671326 362.569550,691.428268 384.326508C713.185226 406.083450,742.692535 418.309128,773.463837 418.309128C804.235138 418.309128,833.742447 406.083450,855.499405 384.326508C877.256348 362.569550,889.482025 333.062241,889.482025 302.290939Z" style="stroke:rgb(25.500488%,41.000366%,88.400269%); stroke-width: 2.500000;stroke-linecap: round;stroke-linejoin: round;stroke-miterlimit: 10.000000;fill: none;"></path>
  <path d="M987.723145 130.164627C987.723145 99.393326,975.497467 69.886017,953.740524 48.129059C931.983566 26.372116,902.476257 14.146439,871.704956 14.146439C840.933655 14.146439,811.426346 26.372116,789.669388 48.129059C767.912445 69.886017,755.686768 99.393326,755.686768 130.164627C755.686768 160.935928,767.912445 190.443237,789.669388 212.200195C811.426346 233.957138,840.933655 246.182816,871.704956 246.182816C902.476257 246.182816,931.983566 233.957138,953.740524 212.200195C975.497467 190.443237,987.723145 160.935928,987.723145 130.164627Z" style="stroke:rgb(25.500488%,41.000366%,88.400269%); stroke-width: 2.500000;stroke-linecap: round;stroke-linejoin: round;stroke-miterlimit: 10.000000;fill: none;"></path>
  <path d="M313.738007 969.398804C313.738007 938.627502,301.512329 909.120193,279.755386 887.363235C257.998428 865.606293,228.491119 853.380615,197.719818 853.380615C166.948517 853.380615,137.441208 865.606293,115.684250 887.363235C93.927307 909.120193,81.701630 938.627502,81.701630 969.398804C81.701630 1000.170105,93.927307 1029.677414,115.684250 1051.434372C137.441208 1073.191315,166.948517 1085.416992,197.719818 1085.416992C228.491119 1085.416992,257.998428 1073.191315,279.755386 1051.434372C301.512329 1029.677414,313.738007 1000.170105,313.738007 969.398804Z" style="stroke:rgb(25.500488%,41.000366%,88.400269%); stroke-width: 2.500000;stroke-linecap: round;stroke-linejoin: round;stroke-miterlimit: 10.000000;fill: none;"></path>
  <path d="M439.345444 803.591797C439.345444 772.820496,427.119766 743.313187,405.362823 721.556229C383.605865 699.799286,354.098557 687.573608,323.327255 687.573608C292.555954 687.573608,263.048645 699.799286,241.291687 721.556229C219.534744 743.313187,207.309067 772.820496,207.309067 803.591797C207.309067 834.363098,219.534744 863.870407,241.291687 885.627365C263.048645 907.384308,292.555954 919.609985,323.327255 919.609985C354.098557 919.609985,383.605865 907.384308,405.362823 885.627365C427.119766 863.870407,439.345444 834.363098,439.345444 803.591797Z" style="stroke:rgb(25.500488%,41.000366%,88.400269%); stroke-width: 2.500000;stroke-linecap: round;stroke-linejoin: round;stroke-miterlimit: 10.000000;fill: none;"></path>
  <path d="M513.490173 638.148102C513.490173 607.376801,501.264496 577.869492,479.507553 556.112534C457.750595 534.355591,428.243286 522.129913,397.471985 522.129913C366.700684 522.129913,337.193375 534.355591,315.436417 556.112534C293.679474 577.869492,281.453796 607.376801,281.453796 638.148102C281.453796 668.919403,293.679474 698.426712,315.436417 720.183670C337.193375 741.940613,366.700684 754.166290,397.471985 754.166290C428.243286 754.166290,457.750595 741.940613,479.507553 720.183670C501.264496 698.426712,513.490173 668.919403,513.490173 638.148102Z" style="stroke:rgb(25.500488%,41.000366%,88.400269%); stroke-width: 2.500000;stroke-linecap: round;stroke-linejoin: round;stroke-miterlimit: 10.000000;fill: none;"></path>
  <path d="M606.891235 469.694000C606.891235 438.922699,594.665558 409.415390,572.908615 387.658432C551.151657 365.901489,521.644348 353.675812,490.873047 353.675812C460.101746 353.675812,430.594437 365.901489,408.837479 387.658432C387.080536 409.415390,374.854858 438.922699,374.854858 469.694000C374.854858 500.465302,387.080536 529.972610,408.837479 551.729568C430.594437 573.486511,460.101746 585.712189,490.873047 585.712189C521.644348 585.712189,551.151657 573.486511,572.908615 551.729568C594.665558 529.972610,606.891235 500.465302,606.891235 469.694000Z" style="stroke:rgb(25.500488%,41.000366%,88.400269%); stroke-width: 2.500000;stroke-linecap: round;stroke-linejoin: round;stroke-miterlimit: 10.000000;fill: none;"></path>
  <path d="M707.364212 306.754669C707.364212 275.983368,695.138535 246.476059,673.381592 224.719101C651.624634 202.962158,622.117325 190.736481,591.346024 190.736481C560.574722 190.736481,531.067413 202.962158,509.310455 224.719101C487.553513 246.476059,475.327835 275.983368,475.327835 306.754669C475.327835 337.525970,487.553513 367.033279,509.310455 388.790237C531.067413 410.547180,560.574722 422.772858,591.346024 422.772858C622.117325 422.772858,651.624634 410.547180,673.381592 388.790237C695.138535 367.033279,707.364212 337.525970,707.364212 306.754669Z" style="stroke:rgb(25.500488%,41.000366%,88.400269%); stroke-width: 2.500000;stroke-linecap: round;stroke-linejoin: round;stroke-miterlimit: 10.000000;fill: none;"></path>
  <path d="M793.394928 116.708542C793.394928 85.937241,781.169250 56.429932,759.412308 34.672974C737.655350 12.916031,708.148041 0.690353,677.376740 0.690353C646.605438 0.690353,617.098129 12.916031,595.341171 34.672974C573.584229 56.429932,561.358551 85.937241,561.358551 116.708542C561.358551 147.479843,573.584229 176.987152,595.341171 198.744110C617.098129 220.501053,646.605438 232.726730,677.376740 232.726730C708.148041 232.726730,737.655350 220.501053,759.412308 198.744110C781.169250 176.987152,793.394928 147.479843,793.394928 116.708542Z" style="stroke:rgb(25.500488%,41.000366%,88.400269%); stroke-width: 2.500000;stroke-linecap: round;stroke-linejoin: round;stroke-miterlimit: 10.000000;fill: none;"></path>
  <path d="M232.378632 802.410980C232.378632 771.639679,220.152954 742.132370,198.396011 720.375412C176.639053 698.618469,147.131744 686.392792,116.360443 686.392792C85.589142 686.392792,56.081833 698.618469,34.324875 720.375412C12.567932 742.132370,0.342255 771.639679,0.342255 802.410980C0.342255 833.182281,12.567932 862.689590,34.324875 884.446548C56.081833 906.203491,85.589142 918.429169,116.360443 918.429169C147.131744 918.429169,176.639053 906.203491,198.396011 884.446548C220.152954 862.689590,232.378632 833.182281,232.378632 802.410980Z" style="stroke:rgb(25.500488%,41.000366%,88.400269%); stroke-width: 2.500000;stroke-linecap: round;stroke-linejoin: round;stroke-miterlimit: 10.000000;fill: none;"></path>
  <path d="M307.159180 638.200012C307.159180 607.428711,294.933502 577.921402,273.176559 556.164444C251.419601 534.407501,221.912292 522.181824,191.140991 522.181824C160.369690 522.181824,130.862381 534.407501,109.105423 556.164444C87.348480 577.921402,75.122803 607.428711,75.122803 638.200012C75.122803 668.971313,87.348480 698.478622,109.105423 720.235580C130.862381 741.992523,160.369690 754.218201,191.140991 754.218201C221.912292 754.218201,251.419601 741.992523,273.176559 720.235580C294.933502 698.478622,307.159180 668.971313,307.159180 638.200012Z" style="stroke:rgb(25.500488%,41.000366%,88.400269%); stroke-width: 2.500000;stroke-linecap: round;stroke-linejoin: round;stroke-miterlimit: 10.000000;fill: none;"></path>
  <path d="M403.324142 469.278763C403.324142 438.507462,391.098465 409.000153,369.341522 387.243195C347.584564 365.486252,318.077255 353.260574,287.305954 353.260574C256.534653 353.260574,227.027344 365.486252,205.270386 387.243195C183.513443 409.000153,171.287766 438.507462,171.287766 469.278763C171.287766 500.050064,183.513443 529.557373,205.270386 551.314331C227.027344 573.071274,256.534653 585.296951,287.305954 585.296951C318.077255 585.296951,347.584564 573.071274,369.341522 551.314331C391.098465 529.557373,403.324142 500.050064,403.324142 469.278763Z" style="stroke:rgb(25.500488%,41.000366%,88.400269%); stroke-width: 2.500000;stroke-linecap: round;stroke-linejoin: round;stroke-miterlimit: 10.000000;fill: none;"></path>
  <path d="M499.644806 297.918030C499.644806 267.146729,487.419128 237.639420,465.662186 215.882462C443.905228 194.125519,414.397919 181.899841,383.626617 181.899841C352.855316 181.899841,323.348007 194.125519,301.591049 215.882462C279.834106 237.639420,267.608429 267.146729,267.608429 297.918030C267.608429 328.689331,279.834106 358.196640,301.591049 379.953598C323.348007 401.710541,352.855316 413.936218,383.626617 413.936218C414.397919 413.936218,443.905228 401.710541,465.662186 379.953598C487.419128 358.196640,499.644806 328.689331,499.644806 297.918030Z" style="stroke:rgb(25.500488%,41.000366%,88.400269%); stroke-width: 2.500000;stroke-linecap: round;stroke-linejoin: round;stroke-miterlimit: 10.000000;fill: none;"></path>
  <path d="M602.790833 134.887878C602.790833 104.116577,590.565155 74.609268,568.808212 52.852310C547.051254 31.095367,517.543945 18.869690,486.772644 18.869690C456.001343 18.869690,426.494034 31.095367,404.737076 52.852310C382.980133 74.609268,370.754456 104.116577,370.754456 134.887878C370.754456 165.659180,382.980133 195.166489,404.737076 216.923447C426.494034 238.680389,456.001343 250.906067,486.772644 250.906067C517.543945 250.906067,547.051254 238.680389,568.808212 216.923447C590.565155 195.166489,602.790833 165.659180,602.790833 134.887878Z" style="stroke:rgb(25.500488%,41.000366%,88.400269%); stroke-width: 2.500000;stroke-linecap: round;stroke-linejoin: round;stroke-miterlimit: 10.000000;fill: none;"></path>
</svg>
