<?xml version="1.0"?>
<!-- Created by MetaPost 2.00 on 2022.03.02:1201 -->
<svg version="1.1" xmlns="http://www.w3.org/2000/svg" xmlns:xlink="http://www.w3.org/1999/xlink" width="1812.363083" height="1789.875717" viewBox="0 0 1812.363083 1789.875717">
<!-- Original BoundingBox: -910.489563 -878.698425 901.873520 911.177292 -->
  <path d="M910.000000 60.606476L450.248215 195.608521L136.450195 557.729065L68.261444 1032.026917L267.312912 1467.889938L670.411591 1726.942307L1149.588409 1726.942307L1552.687088 1467.889938L1751.738556 1032.026917L1683.549805 557.729065L1369.751785 195.608521L910.000000 60.606476Z" style="fill: rgb(100.000000%,100.000000%,100.000000%);stroke: none;"></path>
  <path d="M910.000000 60.606476L450.248215 195.608521" style="stroke:rgb(0.000000%,0.000000%,0.000000%); stroke-width: 2.500000;stroke-linecap: round;stroke-linejoin: round;stroke-miterlimit: 10.000000;fill: none;"></path>
  <path d="M450.248215 195.608521L136.450195 557.729065" style="stroke:rgb(0.000000%,0.000000%,0.000000%); stroke-width: 2.500000;stroke-linecap: round;stroke-linejoin: round;stroke-miterlimit: 10.000000;fill: none;"></path>
  <path d="M136.450195 557.729065L68.261444 1032.026917" style="stroke:rgb(0.000000%,0.000000%,0.000000%); stroke-width: 2.500000;stroke-linecap: round;stroke-linejoin: round;stroke-miterlimit: 10.000000;fill: none;"></path>
  <path d="M68.261444 1032.026917L267.312912 1467.889938" style="stroke:rgb(0.000000%,0.000000%,0.000000%); stroke-width: 2.500000;stroke-linecap: round;stroke-linejoin: round;stroke-miterlimit: 10.000000;fill: none;"></path>
  <path d="M267.312912 1467.889938L670.411591 1726.942307" style="stroke:rgb(0.000000%,0.000000%,0.000000%); stroke-width: 2.500000;stroke-linecap: round;stroke-linejoin: round;stroke-miterlimit: 10.000000;fill: none;"></path>
  <path d="M670.411591 1726.942307L1149.588409 1726.942307" style="stroke:rgb(0.000000%,0.000000%,0.000000%); stroke-width: 2.500000;stroke-linecap: round;stroke-linejoin: round;stroke-miterlimit: 10.000000;fill: none;"></path>
  <path d="M1149.588409 1726.942307L1552.687088 1467.889938" style="stroke:rgb(0.000000%,0.000000%,0.000000%); stroke-width: 2.500000;stroke-linecap: round;stroke-linejoin: round;stroke-miterlimit: 10.000000;fill: none;"></path>
  <path d="M1552.687088 1467.889938L1751.738556 1032.026917" style="stroke:rgb(0.000000%,0.000000%,0.000000%); stroke-width: 2.500000;stroke-linecap: round;stroke-linejoin: round;stroke-miterlimit: 10.000000;fill: none;"></path>
  <path d="M1751.738556 1032.026917L1683.549805 557.729065" style="stroke:rgb(0.000000%,0.000000%,0.000000%); stroke-width: 2.500000;stroke-linecap: round;stroke-linejoin: round;stroke-miterlimit: 10.000000;fill: none;"></path>
  <path d="M1683.549805 557.729065L1369.751785 195.608521" style="stroke:rgb(0.000000%,0.000000%,0.000000%); stroke-width: 2.500000;stroke-linecap: round;stroke-linejoin: round;stroke-miterlimit: 10.000000;fill: none;"></path>
  <path d="M1369.751785 195.608521L910.000000 60.606476" style="stroke:rgb(0.000000%,0.000000%,0.000000%); stroke-width: 2.500000;stroke-linecap: round;stroke-linejoin: round;stroke-miterlimit: 10.000000;fill: none;"></path>
  <path d="M598.135406 1602.411880C598.135406 1577.109268,588.082489 1552.846024,570.192200 1534.955719C552.301895 1517.065430,528.038651 1507.012512,502.736038 1507.012512C477.433426 1507.012512,453.170181 1517.065430,435.279877 1534.955719C417.389587 1552.846024,407.336670 1577.109268,407.336670 1602.411880C407.336670 1627.714493,417.389587 1651.977737,435.279877 1669.868042C453.170181 1687.758331,477.433426 1697.811249,502.736038 1697.811249C528.038651 1697.811249,552.301895 1687.758331,570.192200 1669.868042C588.082489 1651.977737,598.135406 1627.714493,598.135406 1602.411880Z" style="stroke:rgb(25.500488%,41.000366%,88.400269%); stroke-width: 2.500000;stroke-linecap: round;stroke-linejoin: round;stroke-miterlimit: 10.000000;fill: none;"></path>
  <path d="M764.175980 1650.786316C764.175980 1625.483704,754.123062 1601.220459,736.232773 1583.330154C718.342468 1565.439865,694.079224 1555.386948,668.776611 1555.386948C643.473999 1555.386948,619.210754 1565.439865,601.320450 1583.330154C583.430161 1601.220459,573.377243 1625.483704,573.377243 1650.786316C573.377243 1676.088928,583.430161 1700.352173,601.320450 1718.242477C619.210754 1736.132767,643.473999 1746.185684,668.776611 1746.185684C694.079224 1746.185684,718.342468 1736.132767,736.232773 1718.242477C754.123062 1700.352173,764.175980 1676.088928,764.175980 1650.786316Z" style="stroke:rgb(25.500488%,41.000366%,88.400269%); stroke-width: 2.500000;stroke-linecap: round;stroke-linejoin: round;stroke-miterlimit: 10.000000;fill: none;"></path>
  <path d="M901.435852 1674.649124C901.435852 1649.346512,891.382935 1625.083267,873.492645 1607.192963C855.602341 1589.302673,831.339096 1579.249756,806.036484 1579.249756C780.733871 1579.249756,756.470627 1589.302673,738.580322 1607.192963C720.690033 1625.083267,710.637115 1649.346512,710.637115 1674.649124C710.637115 1699.951736,720.690033 1724.214981,738.580322 1742.105286C756.470627 1759.995575,780.733871 1770.048492,806.036484 1770.048492C831.339096 1770.048492,855.602341 1759.995575,873.492645 1742.105286C891.382935 1724.214981,901.435852 1699.951736,901.435852 1674.649124Z" style="stroke:rgb(25.500488%,41.000366%,88.400269%); stroke-width: 2.500000;stroke-linecap: round;stroke-linejoin: round;stroke-miterlimit: 10.000000;fill: none;"></path>
  <path d="M1067.411560 1686.016083C1067.411560 1660.713470,1057.358643 1636.450226,1039.468353 1618.559921C1021.578049 1600.669632,997.314804 1590.616714,972.012192 1590.616714C946.709579 1590.616714,922.446335 1600.669632,904.556030 1618.559921C886.665741 1636.450226,876.612823 1660.713470,876.612823 1686.016083C876.612823 1711.318695,886.665741 1735.581940,904.556030 1753.472244C922.446335 1771.362534,946.709579 1781.415451,972.012192 1781.415451C997.314804 1781.415451,1021.578049 1771.362534,1039.468353 1753.472244C1057.358643 1735.581940,1067.411560 1711.318695,1067.411560 1686.016083Z" style="stroke:rgb(25.500488%,41.000366%,88.400269%); stroke-width: 2.500000;stroke-linecap: round;stroke-linejoin: round;stroke-miterlimit: 10.000000;fill: none;"></path>
  <path d="M1242.768890 1693.049057C1242.768890 1667.746445,1232.715973 1643.483200,1214.825684 1625.592896C1196.935379 1607.702606,1172.672134 1597.649689,1147.369522 1597.649689C1122.066910 1597.649689,1097.803665 1607.702606,1079.913361 1625.592896C1062.023071 1643.483200,1051.970154 1667.746445,1051.970154 1693.049057C1051.970154 1718.351669,1062.023071 1742.614914,1079.913361 1760.505219C1097.803665 1778.395508,1122.066910 1788.448425,1147.369522 1788.448425C1172.672134 1788.448425,1196.935379 1778.395508,1214.825684 1760.505219C1232.715973 1742.614914,1242.768890 1718.351669,1242.768890 1693.049057Z" style="stroke:rgb(25.500488%,41.000366%,88.400269%); stroke-width: 2.500000;stroke-linecap: round;stroke-linejoin: round;stroke-miterlimit: 10.000000;fill: none;"></path>
  <path d="M379.282608 1428.767365C379.282608 1403.464752,369.229691 1379.201508,351.339401 1361.311203C333.449097 1343.420914,309.185852 1333.367996,283.883240 1333.367996C258.580627 1333.367996,234.317383 1343.420914,216.427078 1361.311203C198.536789 1379.201508,188.483871 1403.464752,188.483871 1428.767365C188.483871 1454.069977,198.536789 1478.333221,216.427078 1496.223526C234.317383 1514.113815,258.580627 1524.166733,283.883240 1524.166733C309.185852 1524.166733,333.449097 1514.113815,351.339401 1496.223526C369.229691 1478.333221,379.282608 1454.069977,379.282608 1428.767365Z" style="stroke:rgb(25.500488%,41.000366%,88.400269%); stroke-width: 2.500000;stroke-linecap: round;stroke-linejoin: round;stroke-miterlimit: 10.000000;fill: none;"></path>
  <path d="M514.232742 1467.915894C514.232742 1442.613281,504.179825 1418.350037,486.289536 1400.459732C468.399231 1382.569443,444.135986 1372.516525,418.833374 1372.516525C393.530762 1372.516525,369.267517 1382.569443,351.377213 1400.459732C333.486923 1418.350037,323.434006 1442.613281,323.434006 1467.915894C323.434006 1493.218506,333.486923 1517.481750,351.377213 1535.372055C369.267517 1553.262344,393.530762 1563.315262,418.833374 1563.315262C444.135986 1563.315262,468.399231 1553.262344,486.289536 1535.372055C504.179825 1517.481750,514.232742 1493.218506,514.232742 1467.915894Z" style="stroke:rgb(25.500488%,41.000366%,88.400269%); stroke-width: 2.500000;stroke-linecap: round;stroke-linejoin: round;stroke-miterlimit: 10.000000;fill: none;"></path>
  <path d="M677.781937 1493.634277C677.781937 1468.331665,667.729019 1444.068420,649.838730 1426.178116C631.948425 1408.287827,607.685181 1398.234909,582.382568 1398.234909C557.079956 1398.234909,532.816711 1408.287827,514.926407 1426.178116C497.036118 1444.068420,486.983200 1468.331665,486.983200 1493.634277C486.983200 1518.936890,497.036118 1543.200134,514.926407 1561.090439C532.816711 1578.980728,557.079956 1589.033646,582.382568 1589.033646C607.685181 1589.033646,631.948425 1578.980728,649.838730 1561.090439C667.729019 1543.200134,677.781937 1518.936890,677.781937 1493.634277Z" style="stroke:rgb(25.500488%,41.000366%,88.400269%); stroke-width: 2.500000;stroke-linecap: round;stroke-linejoin: round;stroke-miterlimit: 10.000000;fill: none;"></path>
  <path d="M836.750610 1517.834473C836.750610 1492.531860,826.697693 1468.268616,808.807404 1450.378311C790.917099 1432.488022,766.653854 1422.435104,741.351242 1422.435104C716.048630 1422.435104,691.785385 1432.488022,673.895081 1450.378311C656.004791 1468.268616,645.951874 1492.531860,645.951874 1517.834473C645.951874 1543.137085,656.004791 1567.400330,673.895081 1585.290634C691.785385 1603.180923,716.048630 1613.233841,741.351242 1613.233841C766.653854 1613.233841,790.917099 1603.180923,808.807404 1585.290634C826.697693 1567.400330,836.750610 1543.137085,836.750610 1517.834473Z" style="stroke:rgb(25.500488%,41.000366%,88.400269%); stroke-width: 2.500000;stroke-linecap: round;stroke-linejoin: round;stroke-miterlimit: 10.000000;fill: none;"></path>
  <path d="M995.667389 1538.660904C995.667389 1513.358292,985.614471 1489.095047,967.724182 1471.204742C949.833878 1453.314453,925.570633 1443.261536,900.268021 1443.261536C874.965408 1443.261536,850.702164 1453.314453,832.811859 1471.204742C814.921570 1489.095047,804.868652 1513.358292,804.868652 1538.660904C804.868652 1563.963516,814.921570 1588.226761,832.811859 1606.117065C850.702164 1624.007355,874.965408 1634.060272,900.268021 1634.060272C925.570633 1634.060272,949.833878 1624.007355,967.724182 1606.117065C985.614471 1588.226761,995.667389 1563.963516,995.667389 1538.660904Z" style="stroke:rgb(25.500488%,41.000366%,88.400269%); stroke-width: 2.500000;stroke-linecap: round;stroke-linejoin: round;stroke-miterlimit: 10.000000;fill: none;"></path>
  <path d="M1165.496948 1559.396515C1165.496948 1534.093903,1155.444031 1509.830658,1137.553741 1491.940353C1119.663437 1474.050064,1095.400192 1463.997147,1070.097580 1463.997147C1044.794968 1463.997147,1020.531723 1474.050064,1002.641418 1491.940353C984.751129 1509.830658,974.698212 1534.093903,974.698212 1559.396515C974.698212 1584.699127,984.751129 1608.962372,1002.641418 1626.852676C1020.531723 1644.742966,1044.794968 1654.795883,1070.097580 1654.795883C1095.400192 1654.795883,1119.663437 1644.742966,1137.553741 1626.852676C1155.444031 1608.962372,1165.496948 1584.699127,1165.496948 1559.396515Z" style="stroke:rgb(25.500488%,41.000366%,88.400269%); stroke-width: 2.500000;stroke-linecap: round;stroke-linejoin: round;stroke-miterlimit: 10.000000;fill: none;"></path>
  <path d="M1507.634491 1542.242279C1507.634491 1516.939667,1497.581573 1492.676422,1479.691284 1474.786118C1461.800980 1456.895828,1437.537735 1446.842911,1412.235123 1446.842911C1386.932510 1446.842911,1362.669266 1456.895828,1344.778961 1474.786118C1326.888672 1492.676422,1316.835754 1516.939667,1316.835754 1542.242279C1316.835754 1567.544891,1326.888672 1591.808136,1344.778961 1609.698441C1362.669266 1627.588730,1386.932510 1637.641647,1412.235123 1637.641647C1437.537735 1637.641647,1461.800980 1627.588730,1479.691284 1609.698441C1497.581573 1591.808136,1507.634491 1567.544891,1507.634491 1542.242279Z" style="stroke:rgb(25.500488%,41.000366%,88.400269%); stroke-width: 2.500000;stroke-linecap: round;stroke-linejoin: round;stroke-miterlimit: 10.000000;fill: none;"></path>
  <path d="M314.701172 1264.426636C314.701172 1239.124023,304.648254 1214.860779,286.757965 1196.970474C268.867661 1179.080185,244.604416 1169.027267,219.301804 1169.027267C193.999191 1169.027267,169.735947 1179.080185,151.845642 1196.970474C133.955353 1214.860779,123.902435 1239.124023,123.902435 1264.426636C123.902435 1289.729248,133.955353 1313.992493,151.845642 1331.882797C169.735947 1349.773087,193.999191 1359.826004,219.301804 1359.826004C244.604416 1359.826004,268.867661 1349.773087,286.757965 1331.882797C304.648254 1313.992493,314.701172 1289.729248,314.701172 1264.426636Z" style="stroke:rgb(25.500488%,41.000366%,88.400269%); stroke-width: 2.500000;stroke-linecap: round;stroke-linejoin: round;stroke-miterlimit: 10.000000;fill: none;"></path>
  <path d="M468.116135 1295.322433C468.116135 1270.019821,458.063217 1245.756577,440.172928 1227.866272C422.282623 1209.975983,398.019379 1199.923065,372.716766 1199.923065C347.414154 1199.923065,323.150909 1209.975983,305.260605 1227.866272C287.370316 1245.756577,277.317398 1270.019821,277.317398 1295.322433C277.317398 1320.625046,287.370316 1344.888290,305.260605 1362.778595C323.150909 1380.668884,347.414154 1390.721802,372.716766 1390.721802C398.019379 1390.721802,422.282623 1380.668884,440.172928 1362.778595C458.063217 1344.888290,468.116135 1320.625046,468.116135 1295.322433Z" style="stroke:rgb(25.500488%,41.000366%,88.400269%); stroke-width: 2.500000;stroke-linecap: round;stroke-linejoin: round;stroke-miterlimit: 10.000000;fill: none;"></path>
  <path d="M612.694443 1338.986603C612.694443 1313.683990,602.641525 1289.420746,584.751236 1271.530441C566.860931 1253.640152,542.597687 1243.587234,517.295074 1243.587234C491.992462 1243.587234,467.729218 1253.640152,449.838913 1271.530441C431.948624 1289.420746,421.895706 1313.683990,421.895706 1338.986603C421.895706 1364.289215,431.948624 1388.552460,449.838913 1406.442764C467.729218 1424.333054,491.992462 1434.385971,517.295074 1434.385971C542.597687 1434.385971,566.860931 1424.333054,584.751236 1406.442764C602.641525 1388.552460,612.694443 1364.289215,612.694443 1338.986603Z" style="stroke:rgb(25.500488%,41.000366%,88.400269%); stroke-width: 2.500000;stroke-linecap: round;stroke-linejoin: round;stroke-miterlimit: 10.000000;fill: none;"></path>
  <path d="M774.310226 1360.020660C774.310226 1334.718048,764.257309 1310.454803,746.367020 1292.564499C728.476715 1274.674210,704.213470 1264.621292,678.910858 1264.621292C653.608246 1264.621292,629.345001 1274.674210,611.454697 1292.564499C593.564407 1310.454803,583.511490 1334.718048,583.511490 1360.020660C583.511490 1385.323273,593.564407 1409.586517,611.454697 1427.476822C629.345001 1445.367111,653.608246 1455.420029,678.910858 1455.420029C704.213470 1455.420029,728.476715 1445.367111,746.367020 1427.476822C764.257309 1409.586517,774.310226 1385.323273,774.310226 1360.020660Z" style="stroke:rgb(25.500488%,41.000366%,88.400269%); stroke-width: 2.500000;stroke-linecap: round;stroke-linejoin: round;stroke-miterlimit: 10.000000;fill: none;"></path>
  <path d="M932.253799 1381.988983C932.253799 1356.686371,922.200882 1332.423126,904.310593 1314.532822C886.420288 1296.642532,862.157043 1286.589615,836.854431 1286.589615C811.551819 1286.589615,787.288574 1296.642532,769.398270 1314.532822C751.507980 1332.423126,741.455063 1356.686371,741.455063 1381.988983C741.455063 1407.291595,751.507980 1431.554840,769.398270 1449.445145C787.288574 1467.335434,811.551819 1477.388351,836.854431 1477.388351C862.157043 1477.388351,886.420288 1467.335434,904.310593 1449.445145C922.200882 1431.554840,932.253799 1407.291595,932.253799 1381.988983Z" style="stroke:rgb(25.500488%,41.000366%,88.400269%); stroke-width: 2.500000;stroke-linecap: round;stroke-linejoin: round;stroke-miterlimit: 10.000000;fill: none;"></path>
  <path d="M1095.024429 1412.171097C1095.024429 1386.868484,1084.971512 1362.605240,1067.081223 1344.714935C1049.190918 1326.824646,1024.927673 1316.771729,999.625061 1316.771729C974.322449 1316.771729,950.059204 1326.824646,932.168900 1344.714935C914.278610 1362.605240,904.225693 1386.868484,904.225693 1412.171097C904.225693 1437.473709,914.278610 1461.736954,932.168900 1479.627258C950.059204 1497.517548,974.322449 1507.570465,999.625061 1507.570465C1024.927673 1507.570465,1049.190918 1497.517548,1067.081223 1479.627258C1084.971512 1461.736954,1095.024429 1437.473709,1095.024429 1412.171097Z" style="stroke:rgb(25.500488%,41.000366%,88.400269%); stroke-width: 2.500000;stroke-linecap: round;stroke-linejoin: round;stroke-miterlimit: 10.000000;fill: none;"></path>
  <path d="M1265.087570 1440.238129C1265.087570 1414.935516,1255.034653 1390.672272,1237.144363 1372.781967C1219.254059 1354.891678,1194.990814 1344.838760,1169.688202 1344.838760C1144.385590 1344.838760,1120.122345 1354.891678,1102.232040 1372.781967C1084.341751 1390.672272,1074.288834 1414.935516,1074.288834 1440.238129C1074.288834 1465.540741,1084.341751 1489.803986,1102.232040 1507.694290C1120.122345 1525.584579,1144.385590 1535.637497,1169.688202 1535.637497C1194.990814 1535.637497,1219.254059 1525.584579,1237.144363 1507.694290C1255.034653 1489.803986,1265.087570 1465.540741,1265.087570 1440.238129Z" style="stroke:rgb(25.500488%,41.000366%,88.400269%); stroke-width: 2.500000;stroke-linecap: round;stroke-linejoin: round;stroke-miterlimit: 10.000000;fill: none;"></path>
  <path d="M1278.738297 1153.611816C1278.738297 1128.309204,1268.685379 1104.045959,1250.795090 1086.155655C1232.904785 1068.265366,1208.641541 1058.212448,1183.338928 1058.212448C1158.036316 1058.212448,1133.773071 1068.265366,1115.882767 1086.155655C1097.992477 1104.045959,1087.939560 1128.309204,1087.939560 1153.611816C1087.939560 1178.914429,1097.992477 1203.177673,1115.882767 1221.067978C1133.773071 1238.958267,1158.036316 1249.011185,1183.338928 1249.011185C1208.641541 1249.011185,1232.904785 1238.958267,1250.795090 1221.067978C1268.685379 1203.177673,1278.738297 1178.914429,1278.738297 1153.611816Z" style="stroke:rgb(25.500488%,41.000366%,88.400269%); stroke-width: 2.500000;stroke-linecap: round;stroke-linejoin: round;stroke-miterlimit: 10.000000;fill: none;"></path>
  <path d="M1344.980652 1574.137222C1344.980652 1548.834610,1334.927734 1524.571365,1317.037445 1506.681061C1299.147141 1488.790771,1274.883896 1478.737854,1249.581284 1478.737854C1224.278671 1478.737854,1200.015427 1488.790771,1182.125122 1506.681061C1164.234833 1524.571365,1154.181915 1548.834610,1154.181915 1574.137222C1154.181915 1599.439835,1164.234833 1623.703079,1182.125122 1641.593384C1200.015427 1659.483673,1224.278671 1669.536591,1249.581284 1669.536591C1274.883896 1669.536591,1299.147141 1659.483673,1317.037445 1641.593384C1334.927734 1623.703079,1344.980652 1599.439835,1344.980652 1574.137222Z" style="stroke:rgb(25.500488%,41.000366%,88.400269%); stroke-width: 2.500000;stroke-linecap: round;stroke-linejoin: round;stroke-miterlimit: 10.000000;fill: none;"></path>
  <path d="M249.457962 1107.871506C249.457962 1082.568893,239.405045 1058.305649,221.514755 1040.415344C203.624451 1022.525055,179.361206 1012.472137,154.058594 1012.472137C128.755981 1012.472137,104.492737 1022.525055,86.602432 1040.415344C68.712143 1058.305649,58.659225 1082.568893,58.659225 1107.871506C58.659225 1133.174118,68.712143 1157.437363,86.602432 1175.327667C104.492737 1193.217957,128.755981 1203.270874,154.058594 1203.270874C179.361206 1203.270874,203.624451 1193.217957,221.514755 1175.327667C239.405045 1157.437363,249.457962 1133.174118,249.457962 1107.871506Z" style="stroke:rgb(25.500488%,41.000366%,88.400269%); stroke-width: 2.500000;stroke-linecap: round;stroke-linejoin: round;stroke-miterlimit: 10.000000;fill: none;"></path>
  <path d="M405.961212 1131.033615C405.961212 1105.731003,395.908295 1081.467758,378.018005 1063.577454C360.127701 1045.687164,335.864456 1035.634247,310.561844 1035.634247C285.259232 1035.634247,260.995987 1045.687164,243.105682 1063.577454C225.215393 1081.467758,215.162476 1105.731003,215.162476 1131.033615C215.162476 1156.336227,225.215393 1180.599472,243.105682 1198.489777C260.995987 1216.380066,285.259232 1226.432983,310.561844 1226.432983C335.864456 1226.432983,360.127701 1216.380066,378.018005 1198.489777C395.908295 1180.599472,405.961212 1156.336227,405.961212 1131.033615Z" style="stroke:rgb(25.500488%,41.000366%,88.400269%); stroke-width: 2.500000;stroke-linecap: round;stroke-linejoin: round;stroke-miterlimit: 10.000000;fill: none;"></path>
  <path d="M561.387436 1167.003021C561.387436 1141.700409,551.334518 1117.437164,533.444229 1099.546860C515.553925 1081.656570,491.290680 1071.603653,465.988068 1071.603653C440.685455 1071.603653,416.422211 1081.656570,398.531906 1099.546860C380.641617 1117.437164,370.588699 1141.700409,370.588699 1167.003021C370.588699 1192.305634,380.641617 1216.568878,398.531906 1234.459183C416.422211 1252.349472,440.685455 1262.402390,465.988068 1262.402390C491.290680 1262.402390,515.553925 1252.349472,533.444229 1234.459183C551.334518 1216.568878,561.387436 1192.305634,561.387436 1167.003021Z" style="stroke:rgb(25.500488%,41.000366%,88.400269%); stroke-width: 2.500000;stroke-linecap: round;stroke-linejoin: round;stroke-miterlimit: 10.000000;fill: none;"></path>
  <path d="M705.303986 1205.061554C705.303986 1179.758942,695.251068 1155.495697,677.360779 1137.605392C659.470474 1119.715103,635.207230 1109.662186,609.904617 1109.662186C584.602005 1109.662186,560.338760 1119.715103,542.448456 1137.605392C524.558167 1155.495697,514.505249 1179.758942,514.505249 1205.061554C514.505249 1230.364166,524.558167 1254.627411,542.448456 1272.517715C560.338760 1290.408005,584.602005 1300.460922,609.904617 1300.460922C635.207230 1300.460922,659.470474 1290.408005,677.360779 1272.517715C695.251068 1254.627411,705.303986 1230.364166,705.303986 1205.061554Z" style="stroke:rgb(25.500488%,41.000366%,88.400269%); stroke-width: 2.500000;stroke-linecap: round;stroke-linejoin: round;stroke-miterlimit: 10.000000;fill: none;"></path>
  <path d="M864.324570 1223.798859C864.324570 1198.496246,854.271652 1174.233002,836.381363 1156.342697C818.491058 1138.452408,794.227814 1128.399490,768.925201 1128.399490C743.622589 1128.399490,719.359344 1138.452408,701.469040 1156.342697C683.578751 1174.233002,673.525833 1198.496246,673.525833 1223.798859C673.525833 1249.101471,683.578751 1273.364716,701.469040 1291.255020C719.359344 1309.145309,743.622589 1319.198227,768.925201 1319.198227C794.227814 1319.198227,818.491058 1309.145309,836.381363 1291.255020C854.271652 1273.364716,864.324570 1249.101471,864.324570 1223.798859Z" style="stroke:rgb(25.500488%,41.000366%,88.400269%); stroke-width: 2.500000;stroke-linecap: round;stroke-linejoin: round;stroke-miterlimit: 10.000000;fill: none;"></path>
  <path d="M1026.109024 1255.109894C1026.109024 1229.807281,1016.056107 1205.544037,998.165817 1187.653732C980.275513 1169.763443,956.012268 1159.710526,930.709656 1159.710526C905.407043 1159.710526,881.143799 1169.763443,863.253494 1187.653732C845.363205 1205.544037,835.310287 1229.807281,835.310287 1255.109894C835.310287 1280.412506,845.363205 1304.675751,863.253494 1322.566055C881.143799 1340.456345,905.407043 1350.509262,930.709656 1350.509262C956.012268 1350.509262,980.275513 1340.456345,998.165817 1322.566055C1016.056107 1304.675751,1026.109024 1280.412506,1026.109024 1255.109894Z" style="stroke:rgb(25.500488%,41.000366%,88.400269%); stroke-width: 2.500000;stroke-linecap: round;stroke-linejoin: round;stroke-miterlimit: 10.000000;fill: none;"></path>
  <path d="M1185.505905 1290.443466C1185.505905 1265.140854,1175.452988 1240.877609,1157.562698 1222.987305C1139.672394 1205.097015,1115.409149 1195.044098,1090.106537 1195.044098C1064.803925 1195.044098,1040.540680 1205.097015,1022.650375 1222.987305C1004.760086 1240.877609,994.707169 1265.140854,994.707169 1290.443466C994.707169 1315.746078,1004.760086 1340.009323,1022.650375 1357.899628C1040.540680 1375.789917,1064.803925 1385.842834,1090.106537 1385.842834C1115.409149 1385.842834,1139.672394 1375.789917,1157.562698 1357.899628C1175.452988 1340.009323,1185.505905 1315.746078,1185.505905 1290.443466Z" style="stroke:rgb(25.500488%,41.000366%,88.400269%); stroke-width: 2.500000;stroke-linecap: round;stroke-linejoin: round;stroke-miterlimit: 10.000000;fill: none;"></path>
  <path d="M1349.664978 1303.133972C1349.664978 1277.831360,1339.612061 1253.568115,1321.721771 1235.677811C1303.831467 1217.787521,1279.568222 1207.734604,1254.265610 1207.734604C1228.962997 1207.734604,1204.699753 1217.787521,1186.809448 1235.677811C1168.919159 1253.568115,1158.866241 1277.831360,1158.866241 1303.133972C1158.866241 1328.436584,1168.919159 1352.699829,1186.809448 1370.590134C1204.699753 1388.480423,1228.962997 1398.533340,1254.265610 1398.533340C1279.568222 1398.533340,1303.831467 1388.480423,1321.721771 1370.590134C1339.612061 1352.699829,1349.664978 1328.436584,1349.664978 1303.133972Z" style="stroke:rgb(25.500488%,41.000366%,88.400269%); stroke-width: 2.500000;stroke-linecap: round;stroke-linejoin: round;stroke-miterlimit: 10.000000;fill: none;"></path>
  <path d="M1430.245773 1424.044113C1430.245773 1398.741501,1420.192856 1374.478256,1402.302567 1356.587952C1384.412262 1338.697662,1360.149017 1328.644745,1334.846405 1328.644745C1309.543793 1328.644745,1285.280548 1338.697662,1267.390244 1356.587952C1249.499954 1374.478256,1239.447037 1398.741501,1239.447037 1424.044113C1239.447037 1449.346725,1249.499954 1473.609970,1267.390244 1491.500275C1285.280548 1509.390564,1309.543793 1519.443481,1334.846405 1519.443481C1360.149017 1519.443481,1384.412262 1509.390564,1402.302567 1491.500275C1420.192856 1473.609970,1430.245773 1449.346725,1430.245773 1424.044113Z" style="stroke:rgb(25.500488%,41.000366%,88.400269%); stroke-width: 2.500000;stroke-linecap: round;stroke-linejoin: round;stroke-miterlimit: 10.000000;fill: none;"></path>
  <path d="M1609.275314 1408.200455C1609.275314 1382.897842,1599.222397 1358.634598,1581.332108 1340.744293C1563.441803 1322.854004,1539.178558 1312.801086,1513.875946 1312.801086C1488.573334 1312.801086,1464.310089 1322.854004,1446.419785 1340.744293C1428.529495 1358.634598,1418.476578 1382.897842,1418.476578 1408.200455C1418.476578 1433.503067,1428.529495 1457.766312,1446.419785 1475.656616C1464.310089 1493.546906,1488.573334 1503.599823,1513.875946 1503.599823C1539.178558 1503.599823,1563.441803 1493.546906,1581.332108 1475.656616C1599.222397 1457.766312,1609.275314 1433.503067,1609.275314 1408.200455Z" style="stroke:rgb(25.500488%,41.000366%,88.400269%); stroke-width: 2.500000;stroke-linecap: round;stroke-linejoin: round;stroke-miterlimit: 10.000000;fill: none;"></path>
  <path d="M191.559174 957.947083C191.559174 932.644470,181.506256 908.381226,163.615967 890.490921C145.725662 872.600632,121.462418 862.547714,96.159805 862.547714C70.857193 862.547714,46.593948 872.600632,28.703644 890.490921C10.813354 908.381226,0.760437 932.644470,0.760437 957.947083C0.760437 983.249695,10.813354 1007.512939,28.703644 1025.403244C46.593948 1043.293533,70.857193 1053.346451,96.159805 1053.346451C121.462418 1053.346451,145.725662 1043.293533,163.615967 1025.403244C181.506256 1007.512939,191.559174 983.249695,191.559174 957.947083Z" style="stroke:rgb(25.500488%,41.000366%,88.400269%); stroke-width: 2.500000;stroke-linecap: round;stroke-linejoin: round;stroke-miterlimit: 10.000000;fill: none;"></path>
  <path d="M341.250015 971.468048C341.250015 946.165436,331.197098 921.902191,313.306808 904.011887C295.416504 886.121597,271.153259 876.068680,245.850647 876.068680C220.548035 876.068680,196.284790 886.121597,178.394485 904.011887C160.504196 921.902191,150.451279 946.165436,150.451279 971.468048C150.451279 996.770660,160.504196 1021.033905,178.394485 1038.924210C196.284790 1056.814499,220.548035 1066.867416,245.850647 1066.867416C271.153259 1066.867416,295.416504 1056.814499,313.306808 1038.924210C331.197098 1021.033905,341.250015 996.770660,341.250015 971.468048Z" style="stroke:rgb(25.500488%,41.000366%,88.400269%); stroke-width: 2.500000;stroke-linecap: round;stroke-linejoin: round;stroke-miterlimit: 10.000000;fill: none;"></path>
  <path d="M501.204865 1002.805023C501.204865 977.502411,491.151947 953.239166,473.261658 935.348862C455.371353 917.458572,431.108109 907.405655,405.805496 907.405655C380.502884 907.405655,356.239639 917.458572,338.349335 935.348862C320.459045 953.239166,310.406128 977.502411,310.406128 1002.805023C310.406128 1028.107635,320.459045 1052.370880,338.349335 1070.261185C356.239639 1088.151474,380.502884 1098.204391,405.805496 1098.204391C431.108109 1098.204391,455.371353 1088.151474,473.261658 1070.261185C491.151947 1052.370880,501.204865 1028.107635,501.204865 1002.805023Z" style="stroke:rgb(25.500488%,41.000366%,88.400269%); stroke-width: 2.500000;stroke-linecap: round;stroke-linejoin: round;stroke-miterlimit: 10.000000;fill: none;"></path>
  <path d="M654.801483 1034.167953C654.801483 1008.865341,644.748566 984.602097,626.858276 966.711792C608.967972 948.821503,584.704727 938.768585,559.402115 938.768585C534.099503 938.768585,509.836258 948.821503,491.945953 966.711792C474.055664 984.602097,464.002747 1008.865341,464.002747 1034.167953C464.002747 1059.470566,474.055664 1083.733810,491.945953 1101.624115C509.836258 1119.514404,534.099503 1129.567322,559.402115 1129.567322C584.704727 1129.567322,608.967972 1119.514404,626.858276 1101.624115C644.748566 1083.733810,654.801483 1059.470566,654.801483 1034.167953Z" style="stroke:rgb(25.500488%,41.000366%,88.400269%); stroke-width: 2.500000;stroke-linecap: round;stroke-linejoin: round;stroke-miterlimit: 10.000000;fill: none;"></path>
  <path d="M798.341736 1067.775742C798.341736 1042.473129,788.288818 1018.209885,770.398529 1000.319580C752.508224 982.429291,728.244980 972.376373,702.942368 972.376373C677.639755 972.376373,653.376511 982.429291,635.486206 1000.319580C617.595917 1018.209885,607.542999 1042.473129,607.542999 1067.775742C607.542999 1093.078354,617.595917 1117.341599,635.486206 1135.231903C653.376511 1153.122192,677.639755 1163.175110,702.942368 1163.175110C728.244980 1163.175110,752.508224 1153.122192,770.398529 1135.231903C788.288818 1117.341599,798.341736 1093.078354,798.341736 1067.775742Z" style="stroke:rgb(25.500488%,41.000366%,88.400269%); stroke-width: 2.500000;stroke-linecap: round;stroke-linejoin: round;stroke-miterlimit: 10.000000;fill: none;"></path>
  <path d="M961.800095 1097.140366C961.800095 1071.837753,951.747177 1047.574509,933.856888 1029.684204C915.966583 1011.793915,891.703339 1001.740997,866.400726 1001.740997C841.098114 1001.740997,816.834869 1011.793915,798.944565 1029.684204C781.054276 1047.574509,771.001358 1071.837753,771.001358 1097.140366C771.001358 1122.442978,781.054276 1146.706223,798.944565 1164.596527C816.834869 1182.486816,841.098114 1192.539734,866.400726 1192.539734C891.703339 1192.539734,915.966583 1182.486816,933.856888 1164.596527C951.747177 1146.706223,961.800095 1122.442978,961.800095 1097.140366Z" style="stroke:rgb(25.500488%,41.000366%,88.400269%); stroke-width: 2.500000;stroke-linecap: round;stroke-linejoin: round;stroke-miterlimit: 10.000000;fill: none;"></path>
  <path d="M1123.934906 1129.450546C1123.934906 1104.147934,1113.881989 1079.884689,1095.991699 1061.994385C1078.101395 1044.104095,1053.838150 1034.051178,1028.535538 1034.051178C1003.232925 1034.051178,978.969681 1044.104095,961.079376 1061.994385C943.189087 1079.884689,933.136169 1104.147934,933.136169 1129.450546C933.136169 1154.753159,943.189087 1179.016403,961.079376 1196.906708C978.969681 1214.796997,1003.232925 1224.849915,1028.535538 1224.849915C1053.838150 1224.849915,1078.101395 1214.796997,1095.991699 1196.906708C1113.881989 1179.016403,1123.934906 1154.753159,1123.934906 1129.450546Z" style="stroke:rgb(25.500488%,41.000366%,88.400269%); stroke-width: 2.500000;stroke-linecap: round;stroke-linejoin: round;stroke-miterlimit: 10.000000;fill: none;"></path>
  <path d="M1409.107910 1185.091522C1409.107910 1159.788910,1399.054993 1135.525665,1381.164703 1117.635361C1363.274399 1099.745071,1339.011154 1089.692154,1313.708542 1089.692154C1288.405930 1089.692154,1264.142685 1099.745071,1246.252380 1117.635361C1228.362091 1135.525665,1218.309174 1159.788910,1218.309174 1185.091522C1218.309174 1210.394135,1228.362091 1234.657379,1246.252380 1252.547684C1264.142685 1270.437973,1288.405930 1280.490891,1313.708542 1280.490891C1339.011154 1280.490891,1363.274399 1270.437973,1381.164703 1252.547684C1399.054993 1234.657379,1409.107910 1210.394135,1409.107910 1185.091522Z" style="stroke:rgb(25.500488%,41.000366%,88.400269%); stroke-width: 2.500000;stroke-linecap: round;stroke-linejoin: round;stroke-miterlimit: 10.000000;fill: none;"></path>
  <path d="M1528.097610 1289.470276C1528.097610 1264.167664,1518.044693 1239.904419,1500.154404 1222.014114C1482.264099 1204.123825,1458.000854 1194.070908,1432.698242 1194.070908C1407.395630 1194.070908,1383.132385 1204.123825,1365.242081 1222.014114C1347.351791 1239.904419,1337.298874 1264.167664,1337.298874 1289.470276C1337.298874 1314.772888,1347.351791 1339.036133,1365.242081 1356.926437C1383.132385 1374.816727,1407.395630 1384.869644,1432.698242 1384.869644C1458.000854 1384.869644,1482.264099 1374.816727,1500.154404 1356.926437C1518.044693 1339.036133,1528.097610 1314.772888,1528.097610 1289.470276Z" style="stroke:rgb(25.500488%,41.000366%,88.400269%); stroke-width: 2.500000;stroke-linecap: round;stroke-linejoin: round;stroke-miterlimit: 10.000000;fill: none;"></path>
  <path d="M1662.775253 1275.858475C1662.775253 1250.555862,1652.722336 1226.292618,1634.832047 1208.402313C1616.941742 1190.512024,1592.678497 1180.459106,1567.375885 1180.459106C1542.073273 1180.459106,1517.810028 1190.512024,1499.919724 1208.402313C1482.029434 1226.292618,1471.976517 1250.555862,1471.976517 1275.858475C1471.976517 1301.161087,1482.029434 1325.424332,1499.919724 1343.314636C1517.810028 1361.204926,1542.073273 1371.257843,1567.375885 1371.257843C1592.678497 1371.257843,1616.941742 1361.204926,1634.832047 1343.314636C1652.722336 1325.424332,1662.775253 1301.161087,1662.775253 1275.858475Z" style="stroke:rgb(25.500488%,41.000366%,88.400269%); stroke-width: 2.500000;stroke-linecap: round;stroke-linejoin: round;stroke-miterlimit: 10.000000;fill: none;"></path>
  <path d="M268.156357 810.838440C268.156357 785.535828,258.103439 761.272583,240.213150 743.382278C222.322845 725.491989,198.059601 715.439072,172.756989 715.439072C147.454376 715.439072,123.191132 725.491989,105.300827 743.382278C87.410538 761.272583,77.357620 785.535828,77.357620 810.838440C77.357620 836.141052,87.410538 860.404297,105.300827 878.294601C123.191132 896.184891,147.454376 906.237808,172.756989 906.237808C198.059601 906.237808,222.322845 896.184891,240.213150 878.294601C258.103439 860.404297,268.156357 836.141052,268.156357 810.838440Z" style="stroke:rgb(25.500488%,41.000366%,88.400269%); stroke-width: 2.500000;stroke-linecap: round;stroke-linejoin: round;stroke-miterlimit: 10.000000;fill: none;"></path>
  <path d="M427.241806 843.135651C427.241806 817.833038,417.188889 793.569794,399.298599 775.679489C381.408295 757.789200,357.145050 747.736282,331.842438 747.736282C306.539825 747.736282,282.276581 757.789200,264.386276 775.679489C246.495987 793.569794,236.443069 817.833038,236.443069 843.135651C236.443069 868.438263,246.495987 892.701508,264.386276 910.591812C282.276581 928.482101,306.539825 938.535019,331.842438 938.535019C357.145050 938.535019,381.408295 928.482101,399.298599 910.591812C417.188889 892.701508,427.241806 868.438263,427.241806 843.135651Z" style="stroke:rgb(25.500488%,41.000366%,88.400269%); stroke-width: 2.500000;stroke-linecap: round;stroke-linejoin: round;stroke-miterlimit: 10.000000;fill: none;"></path>
  <path d="M586.573807 872.811707C586.573807 847.509094,576.520889 823.245850,558.630600 805.355545C540.740295 787.465256,516.477051 777.412338,491.174438 777.412338C465.871826 777.412338,441.608582 787.465256,423.718277 805.355545C405.827988 823.245850,395.775070 847.509094,395.775070 872.811707C395.775070 898.114319,405.827988 922.377563,423.718277 940.267868C441.608582 958.158157,465.871826 968.211075,491.174438 968.211075C516.477051 968.211075,540.740295 958.158157,558.630600 940.267868C576.520889 922.377563,586.573807 898.114319,586.573807 872.811707Z" style="stroke:rgb(25.500488%,41.000366%,88.400269%); stroke-width: 2.500000;stroke-linecap: round;stroke-linejoin: round;stroke-miterlimit: 10.000000;fill: none;"></path>
  <path d="M746.775208 910.974045C746.775208 885.671432,736.722290 861.408188,718.832001 843.517883C700.941696 825.627594,676.678452 815.574677,651.375839 815.574677C626.073227 815.574677,601.809982 825.627594,583.919678 843.517883C566.029388 861.408188,555.976471 885.671432,555.976471 910.974045C555.976471 936.276657,566.029388 960.539902,583.919678 978.430206C601.809982 996.320496,626.073227 1006.373413,651.375839 1006.373413C676.678452 1006.373413,700.941696 996.320496,718.832001 978.430206C736.722290 960.539902,746.775208 936.276657,746.775208 910.974045Z" style="stroke:rgb(25.500488%,41.000366%,88.400269%); stroke-width: 2.500000;stroke-linecap: round;stroke-linejoin: round;stroke-miterlimit: 10.000000;fill: none;"></path>
  <path d="M908.053604 942.881973C908.053604 917.579361,898.000687 893.316116,880.110397 875.425812C862.220093 857.535522,837.956848 847.482605,812.654236 847.482605C787.351624 847.482605,763.088379 857.535522,745.198074 875.425812C727.307785 893.316116,717.254868 917.579361,717.254868 942.881973C717.254868 968.184586,727.307785 992.447830,745.198074 1010.338135C763.088379 1028.228424,787.351624 1038.281342,812.654236 1038.281342C837.956848 1038.281342,862.220093 1028.228424,880.110397 1010.338135C898.000687 992.447830,908.053604 968.184586,908.053604 942.881973Z" style="stroke:rgb(25.500488%,41.000366%,88.400269%); stroke-width: 2.500000;stroke-linecap: round;stroke-linejoin: round;stroke-miterlimit: 10.000000;fill: none;"></path>
  <path d="M1071.498993 973.167892C1071.498993 947.865280,1061.446075 923.602036,1043.555786 905.711731C1025.665482 887.821442,1001.402237 877.768524,976.099625 877.768524C950.797012 877.768524,926.533768 887.821442,908.643463 905.711731C890.753174 923.602036,880.700256 947.865280,880.700256 973.167892C880.700256 998.470505,890.753174 1022.733749,908.643463 1040.624054C926.533768 1058.514343,950.797012 1068.567261,976.099625 1068.567261C1001.402237 1068.567261,1025.665482 1058.514343,1043.555786 1040.624054C1061.446075 1022.733749,1071.498993 998.470505,1071.498993 973.167892Z" style="stroke:rgb(25.500488%,41.000366%,88.400269%); stroke-width: 2.500000;stroke-linecap: round;stroke-linejoin: round;stroke-miterlimit: 10.000000;fill: none;"></path>
  <path d="M1235.489365 1011.628693C1235.489365 986.326080,1225.436447 962.062836,1207.546158 944.172531C1189.655853 926.282242,1165.392609 916.229324,1140.089996 916.229324C1114.787384 916.229324,1090.524139 926.282242,1072.633835 944.172531C1054.743546 962.062836,1044.690628 986.326080,1044.690628 1011.628693C1044.690628 1036.931305,1054.743546 1061.194550,1072.633835 1079.084854C1090.524139 1096.975143,1114.787384 1107.028061,1140.089996 1107.028061C1165.392609 1107.028061,1189.655853 1096.975143,1207.546158 1079.084854C1225.436447 1061.194550,1235.489365 1036.931305,1235.489365 1011.628693Z" style="stroke:rgb(25.500488%,41.000366%,88.400269%); stroke-width: 2.500000;stroke-linecap: round;stroke-linejoin: round;stroke-miterlimit: 10.000000;fill: none;"></path>
  <path d="M1407.018784 1041.992477C1407.018784 1016.689865,1396.965866 992.426620,1379.075577 974.536316C1361.185272 956.646027,1336.922028 946.593109,1311.619415 946.593109C1286.316803 946.593109,1262.053558 956.646027,1244.163254 974.536316C1226.272964 992.426620,1216.220047 1016.689865,1216.220047 1041.992477C1216.220047 1067.295090,1226.272964 1091.558334,1244.163254 1109.448639C1262.053558 1127.338928,1286.316803 1137.391846,1311.619415 1137.391846C1336.922028 1137.391846,1361.185272 1127.338928,1379.075577 1109.448639C1396.965866 1091.558334,1407.018784 1067.295090,1407.018784 1041.992477Z" style="stroke:rgb(25.500488%,41.000366%,88.400269%); stroke-width: 2.500000;stroke-linecap: round;stroke-linejoin: round;stroke-miterlimit: 10.000000;fill: none;"></path>
  <path d="M1564.248672 1123.546478C1564.248672 1098.243866,1554.195755 1073.980621,1536.305466 1056.090317C1518.415161 1038.200027,1494.151917 1028.147110,1468.849304 1028.147110C1443.546692 1028.147110,1419.283447 1038.200027,1401.393143 1056.090317C1383.502853 1073.980621,1373.449936 1098.243866,1373.449936 1123.546478C1373.449936 1148.849091,1383.502853 1173.112335,1401.393143 1191.002640C1419.283447 1208.892929,1443.546692 1218.945847,1468.849304 1218.945847C1494.151917 1218.945847,1518.415161 1208.892929,1536.305466 1191.002640C1554.195755 1173.112335,1564.248672 1148.849091,1564.248672 1123.546478Z" style="stroke:rgb(25.500488%,41.000366%,88.400269%); stroke-width: 2.500000;stroke-linecap: round;stroke-linejoin: round;stroke-miterlimit: 10.000000;fill: none;"></path>
  <path d="M1723.308182 1150.043427C1723.308182 1124.740814,1713.255264 1100.477570,1695.364975 1082.587265C1677.474670 1064.696976,1653.211426 1054.644058,1627.908813 1054.644058C1602.606201 1054.644058,1578.342957 1064.696976,1560.452652 1082.587265C1542.562363 1100.477570,1532.509445 1124.740814,1532.509445 1150.043427C1532.509445 1175.346039,1542.562363 1199.609283,1560.452652 1217.499588C1578.342957 1235.389877,1602.606201 1245.442795,1627.908813 1245.442795C1653.211426 1245.442795,1677.474670 1235.389877,1695.364975 1217.499588C1713.255264 1199.609283,1723.308182 1175.346039,1723.308182 1150.043427Z" style="stroke:rgb(25.500488%,41.000366%,88.400269%); stroke-width: 2.500000;stroke-linecap: round;stroke-linejoin: round;stroke-miterlimit: 10.000000;fill: none;"></path>
  <path d="M228.307129 645.861893C228.307129 620.559280,218.254211 596.296036,200.363922 578.405731C182.473618 560.515442,158.210373 550.462524,132.907761 550.462524C107.605148 550.462524,83.341904 560.515442,65.451599 578.405731C47.561310 596.296036,37.508392 620.559280,37.508392 645.861893C37.508392 671.164505,47.561310 695.427750,65.451599 713.318054C83.341904 731.208344,107.605148 741.261261,132.907761 741.261261C158.210373 741.261261,182.473618 731.208344,200.363922 713.318054C218.254211 695.427750,228.307129 671.164505,228.307129 645.861893Z" style="stroke:rgb(25.500488%,41.000366%,88.400269%); stroke-width: 2.500000;stroke-linecap: round;stroke-linejoin: round;stroke-miterlimit: 10.000000;fill: none;"></path>
  <path d="M380.113068 685.114227C380.113068 659.811615,370.060150 635.548370,352.169861 617.658066C334.279556 599.767776,310.016312 589.714859,284.713699 589.714859C259.411087 589.714859,235.147842 599.767776,217.257538 617.658066C199.367249 635.548370,189.314331 659.811615,189.314331 685.114227C189.314331 710.416840,199.367249 734.680084,217.257538 752.570389C235.147842 770.460678,259.411087 780.513596,284.713699 780.513596C310.016312 780.513596,334.279556 770.460678,352.169861 752.570389C370.060150 734.680084,380.113068 710.416840,380.113068 685.114227Z" style="stroke:rgb(25.500488%,41.000366%,88.400269%); stroke-width: 2.500000;stroke-linecap: round;stroke-linejoin: round;stroke-miterlimit: 10.000000;fill: none;"></path>
  <path d="M538.549728 715.750504C538.549728 690.447891,528.496811 666.184647,510.606522 648.294342C492.716217 630.404053,468.452972 620.351135,443.150360 620.351135C417.847748 620.351135,393.584503 630.404053,375.694199 648.294342C357.803909 666.184647,347.750992 690.447891,347.750992 715.750504C347.750992 741.053116,357.803909 765.316360,375.694199 783.206665C393.584503 801.096954,417.847748 811.149872,443.150360 811.149872C468.452972 811.149872,492.716217 801.096954,510.606522 783.206665C528.496811 765.316360,538.549728 741.053116,538.549728 715.750504Z" style="stroke:rgb(25.500488%,41.000366%,88.400269%); stroke-width: 2.500000;stroke-linecap: round;stroke-linejoin: round;stroke-miterlimit: 10.000000;fill: none;"></path>
  <path d="M700.256332 752.290848C700.256332 726.988235,690.203415 702.724991,672.313126 684.834686C654.422821 666.944397,630.159576 656.891479,604.856964 656.891479C579.554352 656.891479,555.291107 666.944397,537.400803 684.834686C519.510513 702.724991,509.457596 726.988235,509.457596 752.290848C509.457596 777.593460,519.510513 801.856705,537.400803 819.747009C555.291107 837.637299,579.554352 847.690216,604.856964 847.690216C630.159576 847.690216,654.422821 837.637299,672.313126 819.747009C690.203415 801.856705,700.256332 777.593460,700.256332 752.290848Z" style="stroke:rgb(25.500488%,41.000366%,88.400269%); stroke-width: 2.500000;stroke-linecap: round;stroke-linejoin: round;stroke-miterlimit: 10.000000;fill: none;"></path>
  <path d="M859.225006 786.716110C859.225006 761.413498,849.172089 737.150253,831.281799 719.259949C813.391495 701.369659,789.128250 691.316742,763.825638 691.316742C738.523026 691.316742,714.259781 701.369659,696.369476 719.259949C678.479187 737.150253,668.426270 761.413498,668.426270 786.716110C668.426270 812.018723,678.479187 836.281967,696.369476 854.172272C714.259781 872.062561,738.523026 882.115479,763.825638 882.115479C789.128250 882.115479,813.391495 872.062561,831.281799 854.172272C849.172089 836.281967,859.225006 812.018723,859.225006 786.716110Z" style="stroke:rgb(25.500488%,41.000366%,88.400269%); stroke-width: 2.500000;stroke-linecap: round;stroke-linejoin: round;stroke-miterlimit: 10.000000;fill: none;"></path>
  <path d="M1020.723999 819.220932C1020.723999 793.918320,1010.671082 769.655075,992.780792 751.764771C974.890488 733.874481,950.627243 723.821564,925.324631 723.821564C900.022018 723.821564,875.758774 733.874481,857.868469 751.764771C839.978180 769.655075,829.925262 793.918320,829.925262 819.220932C829.925262 844.523544,839.978180 868.786789,857.868469 886.677094C875.758774 904.567383,900.022018 914.620300,925.324631 914.620300C950.627243 914.620300,974.890488 904.567383,992.780792 886.677094C1010.671082 868.786789,1020.723999 844.523544,1020.723999 819.220932Z" style="stroke:rgb(25.500488%,41.000366%,88.400269%); stroke-width: 2.500000;stroke-linecap: round;stroke-linejoin: round;stroke-miterlimit: 10.000000;fill: none;"></path>
  <path d="M1183.909866 855.527710C1183.909866 830.225098,1173.856949 805.961853,1155.966660 788.071548C1138.076355 770.181259,1113.813110 760.128342,1088.510498 760.128342C1063.207886 760.128342,1038.944641 770.181259,1021.054337 788.071548C1003.164047 805.961853,993.111130 830.225098,993.111130 855.527710C993.111130 880.830322,1003.164047 905.093567,1021.054337 922.983871C1038.944641 940.874161,1063.207886 950.927078,1088.510498 950.927078C1113.813110 950.927078,1138.076355 940.874161,1155.966660 922.983871C1173.856949 905.093567,1183.909866 880.830322,1183.909866 855.527710Z" style="stroke:rgb(25.500488%,41.000366%,88.400269%); stroke-width: 2.500000;stroke-linecap: round;stroke-linejoin: round;stroke-miterlimit: 10.000000;fill: none;"></path>
  <path d="M1348.224640 895.234192C1348.224640 869.931580,1338.171722 845.668335,1320.281433 827.778030C1302.391129 809.887741,1278.127884 799.834824,1252.825272 799.834824C1227.522659 799.834824,1203.259415 809.887741,1185.369110 827.778030C1167.478821 845.668335,1157.425903 869.931580,1157.425903 895.234192C1157.425903 920.536804,1167.478821 944.800049,1185.369110 962.690353C1203.259415 980.580643,1227.522659 990.633560,1252.825272 990.633560C1278.127884 990.633560,1302.391129 980.580643,1320.281433 962.690353C1338.171722 944.800049,1348.224640 920.536804,1348.224640 895.234192Z" style="stroke:rgb(25.500488%,41.000366%,88.400269%); stroke-width: 2.500000;stroke-linecap: round;stroke-linejoin: round;stroke-miterlimit: 10.000000;fill: none;"></path>
  <path d="M1507.232239 956.013657C1507.232239 930.711044,1497.179321 906.447800,1479.289032 888.557495C1461.398727 870.667206,1437.135483 860.614288,1411.832870 860.614288C1386.530258 860.614288,1362.267014 870.667206,1344.376709 888.557495C1326.486420 906.447800,1316.433502 930.711044,1316.433502 956.013657C1316.433502 981.316269,1326.486420 1005.579514,1344.376709 1023.469818C1362.267014 1041.360107,1386.530258 1051.413025,1411.832870 1051.413025C1437.135483 1051.413025,1461.398727 1041.360107,1479.289032 1023.469818C1497.179321 1005.579514,1507.232239 981.316269,1507.232239 956.013657Z" style="stroke:rgb(25.500488%,41.000366%,88.400269%); stroke-width: 2.500000;stroke-linecap: round;stroke-linejoin: round;stroke-miterlimit: 10.000000;fill: none;"></path>
  <path d="M1657.403198 991.217484C1657.403198 965.914871,1647.350281 941.651627,1629.459991 923.761322C1611.569687 905.871033,1587.306442 895.818115,1562.003830 895.818115C1536.701218 895.818115,1512.437973 905.871033,1494.547668 923.761322C1476.657379 941.651627,1466.604462 965.914871,1466.604462 991.217484C1466.604462 1016.520096,1476.657379 1040.783340,1494.547668 1058.673645C1512.437973 1076.563934,1536.701218 1086.616852,1562.003830 1086.616852C1587.306442 1086.616852,1611.569687 1076.563934,1629.459991 1058.673645C1647.350281 1040.783340,1657.403198 1016.520096,1657.403198 991.217484Z" style="stroke:rgb(25.500488%,41.000366%,88.400269%); stroke-width: 2.500000;stroke-linecap: round;stroke-linejoin: round;stroke-miterlimit: 10.000000;fill: none;"></path>
  <path d="M1810.623520 1016.390869C1810.623520 991.088257,1800.570602 966.825012,1782.680313 948.934708C1764.790009 931.044418,1740.526764 920.991501,1715.224152 920.991501C1689.921539 920.991501,1665.658295 931.044418,1647.767990 948.934708C1629.877701 966.825012,1619.824783 991.088257,1619.824783 1016.390869C1619.824783 1041.693481,1629.877701 1065.956726,1647.767990 1083.847031C1665.658295 1101.737320,1689.921539 1111.790237,1715.224152 1111.790237C1740.526764 1111.790237,1764.790009 1101.737320,1782.680313 1083.847031C1800.570602 1065.956726,1810.623520 1041.693481,1810.623520 1016.390869Z" style="stroke:rgb(25.500488%,41.000366%,88.400269%); stroke-width: 2.500000;stroke-linecap: round;stroke-linejoin: round;stroke-miterlimit: 10.000000;fill: none;"></path>
  <path d="M328.780106 522.356567C328.780106 497.053955,318.727188 472.790710,300.836899 454.900406C282.946594 437.010117,258.683350 426.957199,233.380737 426.957199C208.078125 426.957199,183.814880 437.010117,165.924576 454.900406C148.034286 472.790710,137.981369 497.053955,137.981369 522.356567C137.981369 547.659180,148.034286 571.922424,165.924576 589.812729C183.814880 607.703018,208.078125 617.755936,233.380737 617.755936C258.683350 617.755936,282.946594 607.703018,300.836899 589.812729C318.727188 571.922424,328.780106 547.659180,328.780106 522.356567Z" style="stroke:rgb(25.500488%,41.000366%,88.400269%); stroke-width: 2.500000;stroke-linecap: round;stroke-linejoin: round;stroke-miterlimit: 10.000000;fill: none;"></path>
  <path d="M484.024673 556.249802C484.024673 530.947189,473.971756 506.683945,456.081467 488.793640C438.191162 470.903351,413.927917 460.850433,388.625305 460.850433C363.322693 460.850433,339.059448 470.903351,321.169144 488.793640C303.278854 506.683945,293.225937 530.947189,293.225937 556.249802C293.225937 581.552414,303.278854 605.815659,321.169144 623.705963C339.059448 641.596252,363.322693 651.649170,388.625305 651.649170C413.927917 651.649170,438.191162 641.596252,456.081467 623.705963C473.971756 605.815659,484.024673 581.552414,484.024673 556.249802Z" style="stroke:rgb(25.500488%,41.000366%,88.400269%); stroke-width: 2.500000;stroke-linecap: round;stroke-linejoin: round;stroke-miterlimit: 10.000000;fill: none;"></path>
  <path d="M644.848923 593.750381C644.848923 568.447769,634.796005 544.184525,616.905716 526.294220C599.015411 508.403931,574.752167 498.351013,549.449554 498.351013C524.146942 498.351013,499.883698 508.403931,481.993393 526.294220C464.103104 544.184525,454.050186 568.447769,454.050186 593.750381C454.050186 619.052994,464.103104 643.316238,481.993393 661.206543C499.883698 679.096832,524.146942 689.149750,549.449554 689.149750C574.752167 689.149750,599.015411 679.096832,616.905716 661.206543C634.796005 643.316238,644.848923 619.052994,644.848923 593.750381Z" style="stroke:rgb(25.500488%,41.000366%,88.400269%); stroke-width: 2.500000;stroke-linecap: round;stroke-linejoin: round;stroke-miterlimit: 10.000000;fill: none;"></path>
  <path d="M807.113495 632.172241C807.113495 606.869629,797.060577 582.606384,779.170288 564.716080C761.279984 546.825790,737.016739 536.772873,711.714127 536.772873C686.411514 536.772873,662.148270 546.825790,644.257965 564.716080C626.367676 582.606384,616.314758 606.869629,616.314758 632.172241C616.314758 657.474854,626.367676 681.738098,644.257965 699.628403C662.148270 717.518692,686.411514 727.571609,711.714127 727.571609C737.016739 727.571609,761.279984 717.518692,779.170288 699.628403C797.060577 681.738098,807.113495 657.474854,807.113495 632.172241Z" style="stroke:rgb(25.500488%,41.000366%,88.400269%); stroke-width: 2.500000;stroke-linecap: round;stroke-linejoin: round;stroke-miterlimit: 10.000000;fill: none;"></path>
  <path d="M970.325302 662.691742C970.325302 637.389130,960.272385 613.125885,942.382095 595.235580C924.491791 577.345291,900.228546 567.292374,874.925934 567.292374C849.623322 567.292374,825.360077 577.345291,807.469772 595.235580C789.579483 613.125885,779.526566 637.389130,779.526566 662.691742C779.526566 687.994354,789.579483 712.257599,807.469772 730.147903C825.360077 748.038193,849.623322 758.091110,874.925934 758.091110C900.228546 758.091110,924.491791 748.038193,942.382095 730.147903C960.272385 712.257599,970.325302 687.994354,970.325302 662.691742Z" style="stroke:rgb(25.500488%,41.000366%,88.400269%); stroke-width: 2.500000;stroke-linecap: round;stroke-linejoin: round;stroke-miterlimit: 10.000000;fill: none;"></path>
  <path d="M1133.173798 699.400772C1133.173798 674.098160,1123.120880 649.834915,1105.230591 631.944611C1087.340286 614.054321,1063.077042 604.001404,1037.774429 604.001404C1012.471817 604.001404,988.208572 614.054321,970.318268 631.944611C952.427979 649.834915,942.375061 674.098160,942.375061 699.400772C942.375061 724.703384,952.427979 748.966629,970.318268 766.856934C988.208572 784.747223,1012.471817 794.800140,1037.774429 794.800140C1063.077042 794.800140,1087.340286 784.747223,1105.230591 766.856934C1123.120880 748.966629,1133.173798 724.703384,1133.173798 699.400772Z" style="stroke:rgb(25.500488%,41.000366%,88.400269%); stroke-width: 2.500000;stroke-linecap: round;stroke-linejoin: round;stroke-miterlimit: 10.000000;fill: none;"></path>
  <path d="M1297.319885 739.275940C1297.319885 713.973328,1287.266968 689.710083,1269.376678 671.819778C1251.486374 653.929489,1227.223129 643.876572,1201.920517 643.876572C1176.617905 643.876572,1152.354660 653.929489,1134.464355 671.819778C1116.574066 689.710083,1106.521149 713.973328,1106.521149 739.275940C1106.521149 764.578552,1116.574066 788.841797,1134.464355 806.732101C1152.354660 824.622391,1176.617905 834.675308,1201.920517 834.675308C1227.223129 834.675308,1251.486374 824.622391,1269.376678 806.732101C1287.266968 788.841797,1297.319885 764.578552,1297.319885 739.275940Z" style="stroke:rgb(25.500488%,41.000366%,88.400269%); stroke-width: 2.500000;stroke-linecap: round;stroke-linejoin: round;stroke-miterlimit: 10.000000;fill: none;"></path>
  <path d="M1463.970337 792.269821C1463.970337 766.967209,1453.917419 742.703964,1436.027130 724.813660C1418.136826 706.923370,1393.873581 696.870453,1368.570969 696.870453C1343.268356 696.870453,1319.005112 706.923370,1301.114807 724.813660C1283.224518 742.703964,1273.171600 766.967209,1273.171600 792.269821C1273.171600 817.572433,1283.224518 841.835678,1301.114807 859.725983C1319.005112 877.616272,1343.268356 887.669189,1368.570969 887.669189C1393.873581 887.669189,1418.136826 877.616272,1436.027130 859.725983C1453.917419 841.835678,1463.970337 817.572433,1463.970337 792.269821Z" style="stroke:rgb(25.500488%,41.000366%,88.400269%); stroke-width: 2.500000;stroke-linecap: round;stroke-linejoin: round;stroke-miterlimit: 10.000000;fill: none;"></path>
  <path d="M1615.996872 825.851654C1615.996872 800.549042,1605.943954 776.285797,1588.053665 758.395493C1570.163361 740.505203,1545.900116 730.452286,1520.597504 730.452286C1495.294891 730.452286,1471.031647 740.505203,1453.141342 758.395493C1435.251053 776.285797,1425.198135 800.549042,1425.198135 825.851654C1425.198135 851.154266,1435.251053 875.417511,1453.141342 893.307816C1471.031647 911.198105,1495.294891 921.251022,1520.597504 921.251022C1545.900116 921.251022,1570.163361 911.198105,1588.053665 893.307816C1605.943954 875.417511,1615.996872 851.154266,1615.996872 825.851654Z" style="stroke:rgb(25.500488%,41.000366%,88.400269%); stroke-width: 2.500000;stroke-linecap: round;stroke-linejoin: round;stroke-miterlimit: 10.000000;fill: none;"></path>
  <path d="M1763.871078 856.020798C1763.871078 830.718185,1753.818161 806.454941,1735.927872 788.564636C1718.037567 770.674347,1693.774323 760.621429,1668.471710 760.621429C1643.169098 760.621429,1618.905853 770.674347,1601.015549 788.564636C1583.125259 806.454941,1573.072342 830.718185,1573.072342 856.020798C1573.072342 881.323410,1583.125259 905.586655,1601.015549 923.476959C1618.905853 941.367249,1643.169098 951.420166,1668.471710 951.420166C1693.774323 951.420166,1718.037567 941.367249,1735.927872 923.476959C1753.818161 905.586655,1763.871078 881.323410,1763.871078 856.020798Z" style="stroke:rgb(25.500488%,41.000366%,88.400269%); stroke-width: 2.500000;stroke-linecap: round;stroke-linejoin: round;stroke-miterlimit: 10.000000;fill: none;"></path>
  <path d="M434.002289 396.256027C434.002289 370.953415,423.949371 346.690170,406.059082 328.799866C388.168777 310.909576,363.905533 300.856659,338.602921 300.856659C313.300308 300.856659,289.037064 310.909576,271.146759 328.799866C253.256470 346.690170,243.203552 370.953415,243.203552 396.256027C243.203552 421.558640,253.256470 445.821884,271.146759 463.712189C289.037064 481.602478,313.300308 491.655396,338.602921 491.655396C363.905533 491.655396,388.168777 481.602478,406.059082 463.712189C423.949371 445.821884,434.002289 421.558640,434.002289 396.256027Z" style="stroke:rgb(25.500488%,41.000366%,88.400269%); stroke-width: 2.500000;stroke-linecap: round;stroke-linejoin: round;stroke-miterlimit: 10.000000;fill: none;"></path>
  <path d="M593.775482 434.859558C593.775482 409.556946,583.722565 385.293701,565.832275 367.403397C547.941971 349.513107,523.678726 339.460190,498.376114 339.460190C473.073502 339.460190,448.810257 349.513107,430.919952 367.403397C413.029663 385.293701,402.976746 409.556946,402.976746 434.859558C402.976746 460.162170,413.029663 484.425415,430.919952 502.315720C448.810257 520.206009,473.073502 530.258926,498.376114 530.258926C523.678726 530.258926,547.941971 520.206009,565.832275 502.315720C583.722565 484.425415,593.775482 460.162170,593.775482 434.859558Z" style="stroke:rgb(25.500488%,41.000366%,88.400269%); stroke-width: 2.500000;stroke-linecap: round;stroke-linejoin: round;stroke-miterlimit: 10.000000;fill: none;"></path>
  <path d="M755.170654 474.254623C755.170654 448.952011,745.117737 424.688766,727.227448 406.798462C709.337143 388.908173,685.073898 378.855255,659.771286 378.855255C634.468674 378.855255,610.205429 388.908173,592.315125 406.798462C574.424835 424.688766,564.371918 448.952011,564.371918 474.254623C564.371918 499.557236,574.424835 523.820480,592.315125 541.710785C610.205429 559.601074,634.468674 569.653992,659.771286 569.653992C685.073898 569.653992,709.337143 559.601074,727.227448 541.710785C745.117737 523.820480,755.170654 499.557236,755.170654 474.254623Z" style="stroke:rgb(25.500488%,41.000366%,88.400269%); stroke-width: 2.500000;stroke-linecap: round;stroke-linejoin: round;stroke-miterlimit: 10.000000;fill: none;"></path>
  <path d="M915.865143 507.641800C915.865143 482.339188,905.812225 458.075943,887.921936 440.185638C870.031631 422.295349,845.768387 412.242432,820.465775 412.242432C795.163162 412.242432,770.899918 422.295349,753.009613 440.185638C735.119324 458.075943,725.066406 482.339188,725.066406 507.641800C725.066406 532.944412,735.119324 557.207657,753.009613 575.097961C770.899918 592.988251,795.163162 603.041168,820.465775 603.041168C845.768387 603.041168,870.031631 592.988251,887.921936 575.097961C905.812225 557.207657,915.865143 532.944412,915.865143 507.641800Z" style="stroke:rgb(25.500488%,41.000366%,88.400269%); stroke-width: 2.500000;stroke-linecap: round;stroke-linejoin: round;stroke-miterlimit: 10.000000;fill: none;"></path>
  <path d="M1083.748306 559.441895C1083.748306 534.139282,1073.695389 509.876038,1055.805099 491.985733C1037.914795 474.095444,1013.651550 464.042526,988.348938 464.042526C963.046326 464.042526,938.783081 474.095444,920.892776 491.985733C903.002487 509.876038,892.949570 534.139282,892.949570 559.441895C892.949570 584.744507,903.002487 609.007751,920.892776 626.898056C938.783081 644.788345,963.046326 654.841263,988.348938 654.841263C1013.651550 654.841263,1037.914795 644.788345,1055.805099 626.898056C1073.695389 609.007751,1083.748306 584.744507,1083.748306 559.441895Z" style="stroke:rgb(25.500488%,41.000366%,88.400269%); stroke-width: 2.500000;stroke-linecap: round;stroke-linejoin: round;stroke-miterlimit: 10.000000;fill: none;"></path>
  <path d="M1257.535553 586.302170C1257.535553 560.999557,1247.482635 536.736313,1229.592346 518.846008C1211.702042 500.955719,1187.438797 490.902802,1162.136185 490.902802C1136.833572 490.902802,1112.570328 500.955719,1094.680023 518.846008C1076.789734 536.736313,1066.736816 560.999557,1066.736816 586.302170C1066.736816 611.604782,1076.789734 635.868027,1094.680023 653.758331C1112.570328 671.648621,1136.833572 681.701538,1162.136185 681.701538C1187.438797 681.701538,1211.702042 671.648621,1229.592346 653.758331C1247.482635 635.868027,1257.535553 611.604782,1257.535553 586.302170Z" style="stroke:rgb(25.500488%,41.000366%,88.400269%); stroke-width: 2.500000;stroke-linecap: round;stroke-linejoin: round;stroke-miterlimit: 10.000000;fill: none;"></path>
  <path d="M1417.282776 637.362625C1417.282776 612.060013,1407.229858 587.796768,1389.339569 569.906464C1371.449265 552.016174,1347.186020 541.963257,1321.883408 541.963257C1296.580795 541.963257,1272.317551 552.016174,1254.427246 569.906464C1236.536957 587.796768,1226.484039 612.060013,1226.484039 637.362625C1226.484039 662.665237,1236.536957 686.928482,1254.427246 704.818787C1272.317551 722.709076,1296.580795 732.761993,1321.883408 732.761993C1347.186020 732.761993,1371.449265 722.709076,1389.339569 704.818787C1407.229858 686.928482,1417.282776 662.665237,1417.282776 637.362625Z" style="stroke:rgb(25.500488%,41.000366%,88.400269%); stroke-width: 2.500000;stroke-linecap: round;stroke-linejoin: round;stroke-miterlimit: 10.000000;fill: none;"></path>
  <path d="M1580.533524 673.189301C1580.533524 647.886688,1570.480606 623.623444,1552.590317 605.733139C1534.700012 587.842850,1510.436768 577.789932,1485.134155 577.789932C1459.831543 577.789932,1435.568298 587.842850,1417.677994 605.733139C1399.787704 623.623444,1389.734787 647.886688,1389.734787 673.189301C1389.734787 698.491913,1399.787704 722.755157,1417.677994 740.645462C1435.568298 758.535751,1459.831543 768.588669,1485.134155 768.588669C1510.436768 768.588669,1534.700012 758.535751,1552.590317 740.645462C1570.480606 722.755157,1580.533524 698.491913,1580.533524 673.189301Z" style="stroke:rgb(25.500488%,41.000366%,88.400269%); stroke-width: 2.500000;stroke-linecap: round;stroke-linejoin: round;stroke-miterlimit: 10.000000;fill: none;"></path>
  <path d="M1741.383713 705.901733C1741.383713 680.599121,1731.330795 656.335876,1713.440506 638.445572C1695.550201 620.555283,1671.286957 610.502365,1645.984344 610.502365C1620.681732 610.502365,1596.418488 620.555283,1578.528183 638.445572C1560.637894 656.335876,1550.584976 680.599121,1550.584976 705.901733C1550.584976 731.204346,1560.637894 755.467590,1578.528183 773.357895C1596.418488 791.248184,1620.681732 801.301102,1645.984344 801.301102C1671.286957 801.301102,1695.550201 791.248184,1713.440506 773.357895C1731.330795 755.467590,1741.383713 731.204346,1741.383713 705.901733Z" style="stroke:rgb(25.500488%,41.000366%,88.400269%); stroke-width: 2.500000;stroke-linecap: round;stroke-linejoin: round;stroke-miterlimit: 10.000000;fill: none;"></path>
  <path d="M545.751389 281.094254C545.751389 255.791641,535.698471 231.528397,517.808182 213.638092C499.917877 195.747803,475.654633 185.694885,450.352020 185.694885C425.049408 185.694885,400.786163 195.747803,382.895859 213.638092C365.005569 231.528397,354.952652 255.791641,354.952652 281.094254C354.952652 306.396866,365.005569 330.660110,382.895859 348.550415C400.786163 366.440704,425.049408 376.493622,450.352020 376.493622C475.654633 376.493622,499.917877 366.440704,517.808182 348.550415C535.698471 330.660110,545.751389 306.396866,545.751389 281.094254Z" style="stroke:rgb(25.500488%,41.000366%,88.400269%); stroke-width: 2.500000;stroke-linecap: round;stroke-linejoin: round;stroke-miterlimit: 10.000000;fill: none;"></path>
  <path d="M710.403549 316.843063C710.403549 291.540451,700.350632 267.277206,682.460342 249.386902C664.570038 231.496613,640.306793 221.443695,615.004181 221.443695C589.701569 221.443695,565.438324 231.496613,547.548019 249.386902C529.657730 267.277206,519.604813 291.540451,519.604813 316.843063C519.604813 342.145676,529.657730 366.408920,547.548019 384.299225C565.438324 402.189514,589.701569 412.242432,615.004181 412.242432C640.306793 412.242432,664.570038 402.189514,682.460342 384.299225C700.350632 366.408920,710.403549 342.145676,710.403549 316.843063Z" style="stroke:rgb(25.500488%,41.000366%,88.400269%); stroke-width: 2.500000;stroke-linecap: round;stroke-linejoin: round;stroke-miterlimit: 10.000000;fill: none;"></path>
  <path d="M870.202682 351.190475C870.202682 325.887863,860.149765 301.624619,842.259476 283.734314C824.369171 265.844025,800.105927 255.791107,774.803314 255.791107C749.500702 255.791107,725.237457 265.844025,707.347153 283.734314C689.456863 301.624619,679.403946 325.887863,679.403946 351.190475C679.403946 376.493088,689.456863 400.756332,707.347153 418.646637C725.237457 436.536926,749.500702 446.589844,774.803314 446.589844C800.105927 446.589844,824.369171 436.536926,842.259476 418.646637C860.149765 400.756332,870.202682 376.493088,870.202682 351.190475Z" style="stroke:rgb(25.500488%,41.000366%,88.400269%); stroke-width: 2.500000;stroke-linecap: round;stroke-linejoin: round;stroke-miterlimit: 10.000000;fill: none;"></path>
  <path d="M1035.763153 408.051193C1035.763153 382.748581,1025.710236 358.485336,1007.819946 340.595032C989.929642 322.704742,965.666397 312.651825,940.363785 312.651825C915.061172 312.651825,890.797928 322.704742,872.907623 340.595032C855.017334 358.485336,844.964417 382.748581,844.964417 408.051193C844.964417 433.353806,855.017334 457.617050,872.907623 475.507355C890.797928 493.397644,915.061172 503.450562,940.363785 503.450562C965.666397 503.450562,989.929642 493.397644,1007.819946 475.507355C1025.710236 457.617050,1035.763153 433.353806,1035.763153 408.051193Z" style="stroke:rgb(25.500488%,41.000366%,88.400269%); stroke-width: 2.500000;stroke-linecap: round;stroke-linejoin: round;stroke-miterlimit: 10.000000;fill: none;"></path>
  <path d="M1203.257034 446.914246C1203.257034 421.611633,1193.204117 397.348389,1175.313828 379.458084C1157.423523 361.567795,1133.160278 351.514877,1107.857666 351.514877C1082.555054 351.514877,1058.291809 361.567795,1040.401505 379.458084C1022.511215 397.348389,1012.458298 421.611633,1012.458298 446.914246C1012.458298 472.216858,1022.511215 496.480103,1040.401505 514.370407C1058.291809 532.260696,1082.555054 542.313614,1107.857666 542.313614C1133.160278 542.313614,1157.423523 532.260696,1175.313828 514.370407C1193.204117 496.480103,1203.257034 472.216858,1203.257034 446.914246Z" style="stroke:rgb(25.500488%,41.000366%,88.400269%); stroke-width: 2.500000;stroke-linecap: round;stroke-linejoin: round;stroke-miterlimit: 10.000000;fill: none;"></path>
  <path d="M1379.315079 477.303970C1379.315079 452.001358,1369.262161 427.738113,1351.371872 409.847809C1333.481567 391.957520,1309.218323 381.904602,1283.915710 381.904602C1258.613098 381.904602,1234.349854 391.957520,1216.459549 409.847809C1198.569260 427.738113,1188.516342 452.001358,1188.516342 477.303970C1188.516342 502.606583,1198.569260 526.869827,1216.459549 544.760132C1234.349854 562.650421,1258.613098 572.703339,1283.915710 572.703339C1309.218323 572.703339,1333.481567 562.650421,1351.371872 544.760132C1369.262161 526.869827,1379.315079 502.606583,1379.315079 477.303970Z" style="stroke:rgb(25.500488%,41.000366%,88.400269%); stroke-width: 2.500000;stroke-linecap: round;stroke-linejoin: round;stroke-miterlimit: 10.000000;fill: none;"></path>
  <path d="M1536.817459 519.138519C1536.817459 493.835907,1526.764542 469.572662,1508.874252 451.682358C1490.983948 433.792068,1466.720703 423.739151,1441.418091 423.739151C1416.115479 423.739151,1391.852234 433.792068,1373.961929 451.682358C1356.071640 469.572662,1346.018723 493.835907,1346.018723 519.138519C1346.018723 544.441132,1356.071640 568.704376,1373.961929 586.594681C1391.852234 604.484970,1416.115479 614.537888,1441.418091 614.537888C1466.720703 614.537888,1490.983948 604.484970,1508.874252 586.594681C1526.764542 568.704376,1536.817459 544.441132,1536.817459 519.138519Z" style="stroke:rgb(25.500488%,41.000366%,88.400269%); stroke-width: 2.500000;stroke-linecap: round;stroke-linejoin: round;stroke-miterlimit: 10.000000;fill: none;"></path>
  <path d="M1703.922073 578.308960C1703.922073 553.006348,1693.869156 528.743103,1675.978867 510.852798C1658.088562 492.962509,1633.825317 482.909592,1608.522705 482.909592C1583.220093 482.909592,1558.956848 492.962509,1541.066544 510.852798C1523.176254 528.743103,1513.123337 553.006348,1513.123337 578.308960C1513.123337 603.611572,1523.176254 627.874817,1541.066544 645.765121C1558.956848 663.655411,1583.220093 673.708328,1608.522705 673.708328C1633.825317 673.708328,1658.088562 663.655411,1675.978867 645.765121C1693.869156 627.874817,1703.922073 603.611572,1703.922073 578.308960Z" style="stroke:rgb(25.500488%,41.000366%,88.400269%); stroke-width: 2.500000;stroke-linecap: round;stroke-linejoin: round;stroke-miterlimit: 10.000000;fill: none;"></path>
  <path d="M661.990173 165.919495C661.990173 140.616882,651.937256 116.353638,634.046967 98.463333C616.156662 80.573044,591.893417 70.520126,566.590805 70.520126C541.288193 70.520126,517.024948 80.573044,499.134644 98.463333C481.244354 116.353638,471.191437 140.616882,471.191437 165.919495C471.191437 191.222107,481.244354 215.485352,499.134644 233.375656C517.024948 251.265945,541.288193 261.318863,566.590805 261.318863C591.893417 261.318863,616.156662 251.265945,634.046967 233.375656C651.937256 215.485352,661.990173 191.222107,661.990173 165.919495Z" style="stroke:rgb(25.500488%,41.000366%,88.400269%); stroke-width: 2.500000;stroke-linecap: round;stroke-linejoin: round;stroke-miterlimit: 10.000000;fill: none;"></path>
  <path d="M826.992676 194.194138C826.992676 168.891525,816.939758 144.628281,799.049469 126.737976C781.159164 108.847687,756.895920 98.794769,731.593307 98.794769C706.290695 98.794769,682.027451 108.847687,664.137146 126.737976C646.246857 144.628281,636.193939 168.891525,636.193939 194.194138C636.193939 219.496750,646.246857 243.759995,664.137146 261.650299C682.027451 279.540588,706.290695 289.593506,731.593307 289.593506C756.895920 289.593506,781.159164 279.540588,799.049469 261.650299C816.939758 243.759995,826.992676 219.496750,826.992676 194.194138Z" style="stroke:rgb(25.500488%,41.000366%,88.400269%); stroke-width: 2.500000;stroke-linecap: round;stroke-linejoin: round;stroke-miterlimit: 10.000000;fill: none;"></path>
  <path d="M991.657806 252.028061C991.657806 226.725449,981.604889 202.462204,963.714600 184.571899C945.824295 166.681610,921.561050 156.628693,896.258438 156.628693C870.955826 156.628693,846.692581 166.681610,828.802277 184.571899C810.911987 202.462204,800.859070 226.725449,800.859070 252.028061C800.859070 277.330673,810.911987 301.593918,828.802277 319.484222C846.692581 337.374512,870.955826 347.427429,896.258438 347.427429C921.561050 347.427429,945.824295 337.374512,963.714600 319.484222C981.604889 301.593918,991.657806 277.330673,991.657806 252.028061Z" style="stroke:rgb(25.500488%,41.000366%,88.400269%); stroke-width: 2.500000;stroke-linecap: round;stroke-linejoin: round;stroke-miterlimit: 10.000000;fill: none;"></path>
  <path d="M1155.207001 295.497589C1155.207001 270.194977,1145.154083 245.931732,1127.263794 228.041428C1109.373489 210.151138,1085.110245 200.098221,1059.807632 200.098221C1034.505020 200.098221,1010.241776 210.151138,992.351471 228.041428C974.461182 245.931732,964.408264 270.194977,964.408264 295.497589C964.408264 320.800201,974.461182 345.063446,992.351471 362.953751C1010.241776 380.844040,1034.505020 390.896957,1059.807632 390.896957C1085.110245 390.896957,1109.373489 380.844040,1127.263794 362.953751C1145.154083 345.063446,1155.207001 320.800201,1155.207001 295.497589Z" style="stroke:rgb(25.500488%,41.000366%,88.400269%); stroke-width: 2.500000;stroke-linecap: round;stroke-linejoin: round;stroke-miterlimit: 10.000000;fill: none;"></path>
  <path d="M1323.323746 337.422958C1323.323746 312.120346,1313.270828 287.857101,1295.380539 269.966797C1277.490234 252.076508,1253.226990 242.023590,1227.924377 242.023590C1202.621765 242.023590,1178.358521 252.076508,1160.468216 269.966797C1142.577927 287.857101,1132.525009 312.120346,1132.525009 337.422958C1132.525009 362.725571,1142.577927 386.988815,1160.468216 404.879120C1178.358521 422.769409,1202.621765 432.822327,1227.924377 432.822327C1253.226990 432.822327,1277.490234 422.769409,1295.380539 404.879120C1313.270828 386.988815,1323.323746 362.725571,1323.323746 337.422958Z" style="stroke:rgb(25.500488%,41.000366%,88.400269%); stroke-width: 2.500000;stroke-linecap: round;stroke-linejoin: round;stroke-miterlimit: 10.000000;fill: none;"></path>
  <path d="M1497.149902 358.573792C1497.149902 333.271179,1487.096985 309.007935,1469.206696 291.117630C1451.316391 273.227341,1427.053146 263.174423,1401.750534 263.174423C1376.447922 263.174423,1352.184677 273.227341,1334.294373 291.117630C1316.404083 309.007935,1306.351166 333.271179,1306.351166 358.573792C1306.351166 383.876404,1316.404083 408.139648,1334.294373 426.029953C1352.184677 443.920242,1376.447922 453.973160,1401.750534 453.973160C1427.053146 453.973160,1451.316391 443.920242,1469.206696 426.029953C1487.096985 408.139648,1497.149902 383.876404,1497.149902 358.573792Z" style="stroke:rgb(25.500488%,41.000366%,88.400269%); stroke-width: 2.500000;stroke-linecap: round;stroke-linejoin: round;stroke-miterlimit: 10.000000;fill: none;"></path>
  <path d="M1642.857132 420.663849C1642.857132 395.361237,1632.804214 371.097992,1614.913925 353.207687C1597.023621 335.317398,1572.760376 325.264481,1547.457764 325.264481C1522.155151 325.264481,1497.891907 335.317398,1480.001602 353.207687C1462.111313 371.097992,1452.058395 395.361237,1452.058395 420.663849C1452.058395 445.966461,1462.111313 470.229706,1480.001602 488.120010C1497.891907 506.010300,1522.155151 516.063217,1547.457764 516.063217C1572.760376 516.063217,1597.023621 506.010300,1614.913925 488.120010C1632.804214 470.229706,1642.857132 445.966461,1642.857132 420.663849Z" style="stroke:rgb(25.500488%,41.000366%,88.400269%); stroke-width: 2.500000;stroke-linecap: round;stroke-linejoin: round;stroke-miterlimit: 10.000000;fill: none;"></path>
  <path d="M952.976425 96.472076C952.976425 71.169464,942.923508 46.906219,925.033218 29.015915C907.142914 11.125626,882.879669 1.072708,857.577057 1.072708C832.274445 1.072708,808.011200 11.125626,790.120895 29.015915C772.230606 46.906219,762.177689 71.169464,762.177689 96.472076C762.177689 121.774689,772.230606 146.037933,790.120895 163.928238C808.011200 181.818527,832.274445 191.871445,857.577057 191.871445C882.879669 191.871445,907.142914 181.818527,925.033218 163.928238C942.923508 146.037933,952.976425 121.774689,952.976425 96.472076Z" style="stroke:rgb(25.500488%,41.000366%,88.400269%); stroke-width: 2.500000;stroke-linecap: round;stroke-linejoin: round;stroke-miterlimit: 10.000000;fill: none;"></path>
  <path d="M1112.593903 139.915634C1112.593903 114.613022,1102.540985 90.349777,1084.650696 72.459473C1066.760391 54.569183,1042.497147 44.516266,1017.194534 44.516266C991.891922 44.516266,967.628677 54.569183,949.738373 72.459473C931.848083 90.349777,921.795166 114.613022,921.795166 139.915634C921.795166 165.218246,931.848083 189.481491,949.738373 207.371796C967.628677 225.262085,991.891922 235.315002,1017.194534 235.315002C1042.497147 235.315002,1066.760391 225.262085,1084.650696 207.371796C1102.540985 189.481491,1112.593903 165.218246,1112.593903 139.915634Z" style="stroke:rgb(25.500488%,41.000366%,88.400269%); stroke-width: 2.500000;stroke-linecap: round;stroke-linejoin: round;stroke-miterlimit: 10.000000;fill: none;"></path>
  <path d="M1274.378357 185.746780C1274.378357 160.444168,1264.325439 136.180923,1246.435150 118.290619C1228.544846 100.400330,1204.281601 90.347412,1178.978989 90.347412C1153.676376 90.347412,1129.413132 100.400330,1111.522827 118.290619C1093.632538 136.180923,1083.579620 160.444168,1083.579620 185.746780C1083.579620 211.049393,1093.632538 235.312637,1111.522827 253.202942C1129.413132 271.093231,1153.676376 281.146149,1178.978989 281.146149C1204.281601 281.146149,1228.544846 271.093231,1246.435150 253.202942C1264.325439 235.312637,1274.378357 211.049393,1274.378357 185.746780Z" style="stroke:rgb(25.500488%,41.000366%,88.400269%); stroke-width: 2.500000;stroke-linecap: round;stroke-linejoin: round;stroke-miterlimit: 10.000000;fill: none;"></path>
  <path d="M1442.313431 226.789795C1442.313431 201.487183,1432.260513 177.223938,1414.370224 159.333633C1396.479919 141.443344,1372.216675 131.390427,1346.914062 131.390427C1321.611450 131.390427,1297.348206 141.443344,1279.457901 159.333633C1261.567612 177.223938,1251.514694 201.487183,1251.514694 226.789795C1251.514694 252.092407,1261.567612 276.355652,1279.457901 294.245956C1297.348206 312.136246,1321.611450 322.189163,1346.914062 322.189163C1372.216675 322.189163,1396.479919 312.136246,1414.370224 294.245956C1432.260513 276.355652,1442.313431 252.092407,1442.313431 226.789795Z" style="stroke:rgb(25.500488%,41.000366%,88.400269%); stroke-width: 2.500000;stroke-linecap: round;stroke-linejoin: round;stroke-miterlimit: 10.000000;fill: none;"></path>
</svg>
