<?xml version="1.0"?>
<!-- Created by MetaPost 2.00 on 2022.03.02:1201 -->
<svg version="1.1" xmlns="http://www.w3.org/2000/svg" xmlns:xlink="http://www.w3.org/1999/xlink" width="1732.690598" height="1672.715637" viewBox="0 0 1732.690598 1672.715637">
<!-- Original BoundingBox: -872.314255 -819.385239 860.376343 853.330399 -->
  <path d="M872.000000 2.606476L207.136978 322.788666L42.926010 1042.228653L503.028137 1619.179443L1240.971863 1619.179443L1701.073990 1042.228653L1536.863022 322.788666L872.000000 2.606476Z" style="fill: rgb(100.000000%,100.000000%,100.000000%);stroke: none;"></path>
  <path d="M872.000000 2.606476L207.136978 322.788666" style="stroke:rgb(0.000000%,0.000000%,0.000000%); stroke-width: 2.500000;stroke-linecap: round;stroke-linejoin: round;stroke-miterlimit: 10.000000;fill: none;"></path>
  <path d="M207.136978 322.788666L42.926010 1042.228653" style="stroke:rgb(0.000000%,0.000000%,0.000000%); stroke-width: 2.500000;stroke-linecap: round;stroke-linejoin: round;stroke-miterlimit: 10.000000;fill: none;"></path>
  <path d="M42.926010 1042.228653L503.028137 1619.179443" style="stroke:rgb(0.000000%,0.000000%,0.000000%); stroke-width: 2.500000;stroke-linecap: round;stroke-linejoin: round;stroke-miterlimit: 10.000000;fill: none;"></path>
  <path d="M503.028137 1619.179443L1240.971863 1619.179443" style="stroke:rgb(0.000000%,0.000000%,0.000000%); stroke-width: 2.500000;stroke-linecap: round;stroke-linejoin: round;stroke-miterlimit: 10.000000;fill: none;"></path>
  <path d="M1240.971863 1619.179443L1701.073990 1042.228653" style="stroke:rgb(0.000000%,0.000000%,0.000000%); stroke-width: 2.500000;stroke-linecap: round;stroke-linejoin: round;stroke-miterlimit: 10.000000;fill: none;"></path>
  <path d="M1701.073990 1042.228653L1536.863022 322.788666" style="stroke:rgb(0.000000%,0.000000%,0.000000%); stroke-width: 2.500000;stroke-linecap: round;stroke-linejoin: round;stroke-miterlimit: 10.000000;fill: none;"></path>
  <path d="M1536.863022 322.788666L872.000000 2.606476" style="stroke:rgb(0.000000%,0.000000%,0.000000%); stroke-width: 2.500000;stroke-linecap: round;stroke-linejoin: round;stroke-miterlimit: 10.000000;fill: none;"></path>
  <path d="M1654.684875 494.071548C1654.684875 469.808304,1645.044907 446.541718,1627.889496 429.386307C1610.734085 412.230896,1587.467499 402.590927,1563.204254 402.590927C1538.941010 402.590927,1515.674423 412.230896,1498.519012 429.386307C1481.363602 446.541718,1471.723633 469.808304,1471.723633 494.071548C1471.723633 518.334793,1481.363602 541.601379,1498.519012 558.756790C1515.674423 575.912201,1538.941010 585.552170,1563.204254 585.552170C1587.467499 585.552170,1610.734085 575.912201,1627.889496 558.756790C1645.044907 541.601379,1654.684875 518.334793,1654.684875 494.071548Z" style="stroke:rgb(25.500488%,41.000366%,88.400269%); stroke-width: 2.500000;stroke-linecap: round;stroke-linejoin: round;stroke-miterlimit: 10.000000;fill: none;"></path>
  <path d="M1558.481003 378.507507C1558.481003 354.244263,1548.841034 330.977676,1531.685623 313.822266C1514.530212 296.666855,1491.263626 287.026886,1467.000381 287.026886C1442.737137 287.026886,1419.470551 296.666855,1402.315140 313.822266C1385.159729 330.977676,1375.519760 354.244263,1375.519760 378.507507C1375.519760 402.770752,1385.159729 426.037338,1402.315140 443.192749C1419.470551 460.348160,1442.737137 469.988129,1467.000381 469.988129C1491.263626 469.988129,1514.530212 460.348160,1531.685623 443.192749C1548.841034 426.037338,1558.481003 402.770752,1558.481003 378.507507Z" style="stroke:rgb(25.500488%,41.000366%,88.400269%); stroke-width: 2.500000;stroke-linecap: round;stroke-linejoin: round;stroke-miterlimit: 10.000000;fill: none;"></path>
  <path d="M1467.220963 258.985794C1467.220963 234.722549,1457.580994 211.455963,1440.425583 194.300552C1423.270172 177.145142,1400.003586 167.505173,1375.740341 167.505173C1351.477097 167.505173,1328.210510 177.145142,1311.055099 194.300552C1293.899689 211.455963,1284.259720 234.722549,1284.259720 258.985794C1284.259720 283.249039,1293.899689 306.515625,1311.055099 323.671036C1328.210510 340.826447,1351.477097 350.466415,1375.740341 350.466415C1400.003586 350.466415,1423.270172 340.826447,1440.425583 323.671036C1457.580994 306.515625,1467.220963 283.249039,1467.220963 258.985794Z" style="stroke:rgb(25.500488%,41.000366%,88.400269%); stroke-width: 2.500000;stroke-linecap: round;stroke-linejoin: round;stroke-miterlimit: 10.000000;fill: none;"></path>
  <path d="M1731.126343 900.933258C1731.126343 876.670013,1721.486374 853.403427,1704.330963 836.248016C1687.175552 819.092606,1663.908966 809.452637,1639.645721 809.452637C1615.382477 809.452637,1592.115891 819.092606,1574.960480 836.248016C1557.805069 853.403427,1548.165100 876.670013,1548.165100 900.933258C1548.165100 925.196503,1557.805069 948.463089,1574.960480 965.618500C1592.115891 982.773911,1615.382477 992.413879,1639.645721 992.413879C1663.908966 992.413879,1687.175552 982.773911,1704.330963 965.618500C1721.486374 948.463089,1731.126343 925.196503,1731.126343 900.933258Z" style="stroke:rgb(25.500488%,41.000366%,88.400269%); stroke-width: 2.500000;stroke-linecap: round;stroke-linejoin: round;stroke-miterlimit: 10.000000;fill: none;"></path>
  <path d="M1668.711914 751.917145C1668.711914 727.653900,1659.071945 704.387314,1641.916534 687.231903C1624.761124 670.076492,1601.494537 660.436523,1577.231293 660.436523C1552.968048 660.436523,1529.701462 670.076492,1512.546051 687.231903C1495.390640 704.387314,1485.750671 727.653900,1485.750671 751.917145C1485.750671 776.180389,1495.390640 799.446976,1512.546051 816.602386C1529.701462 833.757797,1552.968048 843.397766,1577.231293 843.397766C1601.494537 843.397766,1624.761124 833.757797,1641.916534 816.602386C1659.071945 799.446976,1668.711914 776.180389,1668.711914 751.917145Z" style="stroke:rgb(25.500488%,41.000366%,88.400269%); stroke-width: 2.500000;stroke-linecap: round;stroke-linejoin: round;stroke-miterlimit: 10.000000;fill: none;"></path>
  <path d="M1619.961166 641.945755C1619.961166 617.682510,1610.321198 594.415924,1593.165787 577.260513C1576.010376 560.105103,1552.743790 550.465134,1528.480545 550.465134C1504.217300 550.465134,1480.950714 560.105103,1463.795303 577.260513C1446.639893 594.415924,1436.999924 617.682510,1436.999924 641.945755C1436.999924 666.209000,1446.639893 689.475586,1463.795303 706.630997C1480.950714 723.786407,1504.217300 733.426376,1528.480545 733.426376C1552.743790 733.426376,1576.010376 723.786407,1593.165787 706.630997C1610.321198 689.475586,1619.961166 666.209000,1619.961166 641.945755Z" style="stroke:rgb(25.500488%,41.000366%,88.400269%); stroke-width: 2.500000;stroke-linecap: round;stroke-linejoin: round;stroke-miterlimit: 10.000000;fill: none;"></path>
  <path d="M1501.425629 525.875656C1501.425629 501.612411,1491.785660 478.345825,1474.630249 461.190414C1457.474838 444.035004,1434.208252 434.395035,1409.945007 434.395035C1385.681763 434.395035,1362.415176 444.035004,1345.259766 461.190414C1328.104355 478.345825,1318.464386 501.612411,1318.464386 525.875656C1318.464386 550.138901,1328.104355 573.405487,1345.259766 590.560898C1362.415176 607.716309,1385.681763 617.356277,1409.945007 617.356277C1434.208252 617.356277,1457.474838 607.716309,1474.630249 590.560898C1491.785660 573.405487,1501.425629 550.138901,1501.425629 525.875656Z" style="stroke:rgb(25.500488%,41.000366%,88.400269%); stroke-width: 2.500000;stroke-linecap: round;stroke-linejoin: round;stroke-miterlimit: 10.000000;fill: none;"></path>
  <path d="M1402.107513 401.332245C1402.107513 377.069000,1392.467545 353.802414,1375.312134 336.647003C1358.156723 319.491592,1334.890137 309.851624,1310.626892 309.851624C1286.363647 309.851624,1263.097061 319.491592,1245.941650 336.647003C1228.786240 353.802414,1219.146271 377.069000,1219.146271 401.332245C1219.146271 425.595490,1228.786240 448.862076,1245.941650 466.017487C1263.097061 483.172897,1286.363647 492.812866,1310.626892 492.812866C1334.890137 492.812866,1358.156723 483.172897,1375.312134 466.017487C1392.467545 448.862076,1402.107513 425.595490,1402.107513 401.332245Z" style="stroke:rgb(25.500488%,41.000366%,88.400269%); stroke-width: 2.500000;stroke-linecap: round;stroke-linejoin: round;stroke-miterlimit: 10.000000;fill: none;"></path>
  <path d="M1315.324188 259.946014C1315.324188 235.682770,1305.684219 212.416183,1288.528809 195.260773C1271.373398 178.105362,1248.106812 168.465393,1223.843567 168.465393C1199.580322 168.465393,1176.313736 178.105362,1159.158325 195.260773C1142.002914 212.416183,1132.362946 235.682770,1132.362946 259.946014C1132.362946 284.209259,1142.002914 307.475845,1159.158325 324.631256C1176.313736 341.786667,1199.580322 351.426636,1223.843567 351.426636C1248.106812 351.426636,1271.373398 341.786667,1288.528809 324.631256C1305.684219 307.475845,1315.324188 284.209259,1315.324188 259.946014Z" style="stroke:rgb(25.500488%,41.000366%,88.400269%); stroke-width: 2.500000;stroke-linecap: round;stroke-linejoin: round;stroke-miterlimit: 10.000000;fill: none;"></path>
  <path d="M1218.964600 187.942337C1218.964600 163.679092,1209.324631 140.412506,1192.169220 123.257095C1175.013809 106.101685,1151.747223 96.461716,1127.483978 96.461716C1103.220734 96.461716,1079.954147 106.101685,1062.798737 123.257095C1045.643326 140.412506,1036.003357 163.679092,1036.003357 187.942337C1036.003357 212.205582,1045.643326 235.472168,1062.798737 252.627579C1079.954147 269.782990,1103.220734 279.422958,1127.483978 279.422958C1151.747223 279.422958,1175.013809 269.782990,1192.169220 252.627579C1209.324631 235.472168,1218.964600 212.205582,1218.964600 187.942337Z" style="stroke:rgb(25.500488%,41.000366%,88.400269%); stroke-width: 2.500000;stroke-linecap: round;stroke-linejoin: round;stroke-miterlimit: 10.000000;fill: none;"></path>
  <path d="M1087.556900 93.931396C1087.556900 69.668152,1077.916931 46.401566,1060.761520 29.246155C1043.606110 12.090744,1020.339523 2.450775,996.076279 2.450775C971.813034 2.450775,948.546448 12.090744,931.391037 29.246155C914.235626 46.401566,904.595657 69.668152,904.595657 93.931396C904.595657 118.194641,914.235626 141.461227,931.391037 158.616638C948.546448 175.772049,971.813034 185.412018,996.076279 185.412018C1020.339523 185.412018,1043.606110 175.772049,1060.761520 158.616638C1077.916931 141.461227,1087.556900 118.194641,1087.556900 93.931396Z" style="stroke:rgb(25.500488%,41.000366%,88.400269%); stroke-width: 2.500000;stroke-linecap: round;stroke-linejoin: round;stroke-miterlimit: 10.000000;fill: none;"></path>
  <path d="M1702.929550 1031.354782C1702.929550 1007.091537,1693.289581 983.824951,1676.134171 966.669540C1658.978760 949.514130,1635.712173 939.874161,1611.448929 939.874161C1587.185684 939.874161,1563.919098 949.514130,1546.763687 966.669540C1529.608276 983.824951,1519.968307 1007.091537,1519.968307 1031.354782C1519.968307 1055.618027,1529.608276 1078.884613,1546.763687 1096.040024C1563.919098 1113.195435,1587.185684 1122.835403,1611.448929 1122.835403C1635.712173 1122.835403,1658.978760 1113.195435,1676.134171 1096.040024C1693.289581 1078.884613,1702.929550 1055.618027,1702.929550 1031.354782Z" style="stroke:rgb(25.500488%,41.000366%,88.400269%); stroke-width: 2.500000;stroke-linecap: round;stroke-linejoin: round;stroke-miterlimit: 10.000000;fill: none;"></path>
  <path d="M1604.312149 915.336578C1604.312149 891.073334,1594.672180 867.806747,1577.516769 850.651337C1560.361359 833.495926,1537.094772 823.855957,1512.831528 823.855957C1488.568283 823.855957,1465.301697 833.495926,1448.146286 850.651337C1430.990875 867.806747,1421.350906 891.073334,1421.350906 915.336578C1421.350906 939.599823,1430.990875 962.866409,1448.146286 980.021820C1465.301697 997.177231,1488.568283 1006.817200,1512.831528 1006.817200C1537.094772 1006.817200,1560.361359 997.177231,1577.516769 980.021820C1594.672180 962.866409,1604.312149 939.599823,1604.312149 915.336578Z" style="stroke:rgb(25.500488%,41.000366%,88.400269%); stroke-width: 2.500000;stroke-linecap: round;stroke-linejoin: round;stroke-miterlimit: 10.000000;fill: none;"></path>
  <path d="M1529.453735 786.316467C1529.453735 762.053223,1519.813766 738.786636,1502.658356 721.631226C1485.502945 704.475815,1462.236359 694.835846,1437.973114 694.835846C1413.709869 694.835846,1390.443283 704.475815,1373.287872 721.631226C1356.132462 738.786636,1346.492493 762.053223,1346.492493 786.316467C1346.492493 810.579712,1356.132462 833.846298,1373.287872 851.001709C1390.443283 868.157120,1413.709869 877.797089,1437.973114 877.797089C1462.236359 877.797089,1485.502945 868.157120,1502.658356 851.001709C1519.813766 833.846298,1529.453735 810.579712,1529.453735 786.316467Z" style="stroke:rgb(25.500488%,41.000366%,88.400269%); stroke-width: 2.500000;stroke-linecap: round;stroke-linejoin: round;stroke-miterlimit: 10.000000;fill: none;"></path>
  <path d="M1460.213928 665.964294C1460.213928 641.701050,1450.573959 618.434464,1433.418549 601.279053C1416.263138 584.123642,1392.996552 574.483673,1368.733307 574.483673C1344.470062 574.483673,1321.203476 584.123642,1304.048065 601.279053C1286.892654 618.434464,1277.252686 641.701050,1277.252686 665.964294C1277.252686 690.227539,1286.892654 713.494125,1304.048065 730.649536C1321.203476 747.804947,1344.470062 757.444916,1368.733307 757.444916C1392.996552 757.444916,1416.263138 747.804947,1433.418549 730.649536C1450.573959 713.494125,1460.213928 690.227539,1460.213928 665.964294Z" style="stroke:rgb(25.500488%,41.000366%,88.400269%); stroke-width: 2.500000;stroke-linecap: round;stroke-linejoin: round;stroke-miterlimit: 10.000000;fill: none;"></path>
  <path d="M1345.065125 548.700394C1345.065125 524.437149,1335.425156 501.170563,1318.269745 484.015152C1301.114334 466.859741,1277.847748 457.219772,1253.584503 457.219772C1229.321259 457.219772,1206.054672 466.859741,1188.899261 484.015152C1171.743851 501.170563,1162.103882 524.437149,1162.103882 548.700394C1162.103882 572.963638,1171.743851 596.230225,1188.899261 613.385635C1206.054672 630.541046,1229.321259 640.181015,1253.584503 640.181015C1277.847748 640.181015,1301.114334 630.541046,1318.269745 613.385635C1335.425156 596.230225,1345.065125 572.963638,1345.065125 548.700394Z" style="stroke:rgb(25.500488%,41.000366%,88.400269%); stroke-width: 2.500000;stroke-linecap: round;stroke-linejoin: round;stroke-miterlimit: 10.000000;fill: none;"></path>
  <path d="M1256.361359 410.350555C1256.361359 386.087311,1246.721390 362.820724,1229.565979 345.665314C1212.410568 328.509903,1189.143982 318.869934,1164.880737 318.869934C1140.617493 318.869934,1117.350906 328.509903,1100.195496 345.665314C1083.040085 362.820724,1073.400116 386.087311,1073.400116 410.350555C1073.400116 434.613800,1083.040085 457.880386,1100.195496 475.035797C1117.350906 492.191208,1140.617493 501.831177,1164.880737 501.831177C1189.143982 501.831177,1212.410568 492.191208,1229.565979 475.035797C1246.721390 457.880386,1256.361359 434.613800,1256.361359 410.350555Z" style="stroke:rgb(25.500488%,41.000366%,88.400269%); stroke-width: 2.500000;stroke-linecap: round;stroke-linejoin: round;stroke-miterlimit: 10.000000;fill: none;"></path>
  <path d="M1154.435074 316.054138C1154.435074 291.790894,1144.795105 268.524307,1127.639694 251.368896C1110.484283 234.213486,1087.217697 224.573517,1062.954453 224.573517C1038.691208 224.573517,1015.424622 234.213486,998.269211 251.368896C981.113800 268.524307,971.473831 291.790894,971.473831 316.054138C971.473831 340.317383,981.113800 363.583969,998.269211 380.739380C1015.424622 397.894791,1038.691208 407.534760,1062.954453 407.534760C1087.217697 407.534760,1110.484283 397.894791,1127.639694 380.739380C1144.795105 363.583969,1154.435074 340.317383,1154.435074 316.054138Z" style="stroke:rgb(25.500488%,41.000366%,88.400269%); stroke-width: 2.500000;stroke-linecap: round;stroke-linejoin: round;stroke-miterlimit: 10.000000;fill: none;"></path>
  <path d="M1045.307129 214.361420C1045.307129 190.098175,1035.667160 166.831589,1018.511749 149.676178C1001.356339 132.520767,978.089752 122.880798,953.826508 122.880798C929.563263 122.880798,906.296677 132.520767,889.141266 149.676178C871.985855 166.831589,862.345886 190.098175,862.345886 214.361420C862.345886 238.624664,871.985855 261.891251,889.141266 279.046661C906.296677 296.202072,929.563263 305.842041,953.826508 305.842041C978.089752 305.842041,1001.356339 296.202072,1018.511749 279.046661C1035.667160 261.891251,1045.307129 238.624664,1045.307129 214.361420Z" style="stroke:rgb(25.500488%,41.000366%,88.400269%); stroke-width: 2.500000;stroke-linecap: round;stroke-linejoin: round;stroke-miterlimit: 10.000000;fill: none;"></path>
  <path d="M954.137924 92.400223C954.137924 68.136978,944.497955 44.870392,927.342545 27.714981C910.187134 10.559570,886.920547 0.919601,862.657303 0.919601C838.394058 0.919601,815.127472 10.559570,797.972061 27.714981C780.816650 44.870392,771.176682 68.136978,771.176682 92.400223C771.176682 116.663467,780.816650 139.930054,797.972061 157.085464C815.127472 174.240875,838.394058 183.880844,862.657303 183.880844C886.920547 183.880844,910.187134 174.240875,927.342545 157.085464C944.497955 139.930054,954.137924 116.663467,954.137924 92.400223Z" style="stroke:rgb(25.500488%,41.000366%,88.400269%); stroke-width: 2.500000;stroke-linecap: round;stroke-linejoin: round;stroke-miterlimit: 10.000000;fill: none;"></path>
  <path d="M1662.509399 1177.503189C1662.509399 1153.239944,1652.869431 1129.973358,1635.714020 1112.817947C1618.558609 1095.662537,1595.292023 1086.022568,1571.028778 1086.022568C1546.765533 1086.022568,1523.498947 1095.662537,1506.343536 1112.817947C1489.188126 1129.973358,1479.548157 1153.239944,1479.548157 1177.503189C1479.548157 1201.766434,1489.188126 1225.033020,1506.343536 1242.188431C1523.498947 1259.343842,1546.765533 1268.983810,1571.028778 1268.983810C1595.292023 1268.983810,1618.558609 1259.343842,1635.714020 1242.188431C1652.869431 1225.033020,1662.509399 1201.766434,1662.509399 1177.503189Z" style="stroke:rgb(25.500488%,41.000366%,88.400269%); stroke-width: 2.500000;stroke-linecap: round;stroke-linejoin: round;stroke-miterlimit: 10.000000;fill: none;"></path>
  <path d="M1553.459290 1073.903000C1553.459290 1049.639755,1543.819321 1026.373169,1526.663910 1009.217758C1509.508499 992.062347,1486.241913 982.422379,1461.978668 982.422379C1437.715424 982.422379,1414.448837 992.062347,1397.293427 1009.217758C1380.138016 1026.373169,1370.498047 1049.639755,1370.498047 1073.903000C1370.498047 1098.166245,1380.138016 1121.432831,1397.293427 1138.588242C1414.448837 1155.743652,1437.715424 1165.383621,1461.978668 1165.383621C1486.241913 1165.383621,1509.508499 1155.743652,1526.663910 1138.588242C1543.819321 1121.432831,1553.459290 1098.166245,1553.459290 1073.903000Z" style="stroke:rgb(25.500488%,41.000366%,88.400269%); stroke-width: 2.500000;stroke-linecap: round;stroke-linejoin: round;stroke-miterlimit: 10.000000;fill: none;"></path>
  <path d="M1460.473450 943.131119C1460.473450 918.867874,1450.833481 895.601288,1433.678070 878.445877C1416.522659 861.290466,1393.256073 851.650497,1368.992828 851.650497C1344.729584 851.650497,1321.462997 861.290466,1304.307587 878.445877C1287.152176 895.601288,1277.512207 918.867874,1277.512207 943.131119C1277.512207 967.394363,1287.152176 990.660950,1304.307587 1007.816360C1321.462997 1024.971771,1344.729584 1034.611740,1368.992828 1034.611740C1393.256073 1034.611740,1416.522659 1024.971771,1433.678070 1007.816360C1450.833481 990.660950,1460.473450 967.394363,1460.473450 943.131119Z" style="stroke:rgb(25.500488%,41.000366%,88.400269%); stroke-width: 2.500000;stroke-linecap: round;stroke-linejoin: round;stroke-miterlimit: 10.000000;fill: none;"></path>
  <path d="M1382.461899 813.566010C1382.461899 789.302765,1372.821930 766.036179,1355.666519 748.880768C1338.511108 731.725357,1315.244522 722.085388,1290.981277 722.085388C1266.718033 722.085388,1243.451447 731.725357,1226.296036 748.880768C1209.140625 766.036179,1199.500656 789.302765,1199.500656 813.566010C1199.500656 837.829254,1209.140625 861.095840,1226.296036 878.251251C1243.451447 895.406662,1266.718033 905.046631,1290.981277 905.046631C1315.244522 905.046631,1338.511108 895.406662,1355.666519 878.251251C1372.821930 861.095840,1382.461899 837.829254,1382.461899 813.566010Z" style="stroke:rgb(25.500488%,41.000366%,88.400269%); stroke-width: 2.500000;stroke-linecap: round;stroke-linejoin: round;stroke-miterlimit: 10.000000;fill: none;"></path>
  <path d="M1301.829178 691.786484C1301.829178 667.523239,1292.189209 644.256653,1275.033798 627.101242C1257.878387 609.945831,1234.611801 600.305862,1210.348557 600.305862C1186.085312 600.305862,1162.818726 609.945831,1145.663315 627.101242C1128.507904 644.256653,1118.867935 667.523239,1118.867935 691.786484C1118.867935 716.049728,1128.507904 739.316315,1145.663315 756.471725C1162.818726 773.627136,1186.085312 783.267105,1210.348557 783.267105C1234.611801 783.267105,1257.878387 773.627136,1275.033798 756.471725C1292.189209 739.316315,1301.829178 716.049728,1301.829178 691.786484Z" style="stroke:rgb(25.500488%,41.000366%,88.400269%); stroke-width: 2.500000;stroke-linecap: round;stroke-linejoin: round;stroke-miterlimit: 10.000000;fill: none;"></path>
  <path d="M1195.945221 559.003326C1195.945221 534.740082,1186.305252 511.473495,1169.149841 494.318085C1151.994431 477.162674,1128.727844 467.522705,1104.464600 467.522705C1080.201355 467.522705,1056.934769 477.162674,1039.779358 494.318085C1022.623947 511.473495,1012.983978 534.740082,1012.983978 559.003326C1012.983978 583.266571,1022.623947 606.533157,1039.779358 623.688568C1056.934769 640.843979,1080.201355 650.483948,1104.464600 650.483948C1128.727844 650.483948,1151.994431 640.843979,1169.149841 623.688568C1186.305252 606.533157,1195.945221 583.266571,1195.945221 559.003326Z" style="stroke:rgb(25.500488%,41.000366%,88.400269%); stroke-width: 2.500000;stroke-linecap: round;stroke-linejoin: round;stroke-miterlimit: 10.000000;fill: none;"></path>
  <path d="M1095.160812 453.301025C1095.160812 429.037781,1085.520844 405.771194,1068.365433 388.615784C1051.210022 371.460373,1027.943436 361.820404,1003.680191 361.820404C979.416946 361.820404,956.150360 371.460373,938.994949 388.615784C921.839539 405.771194,912.199570 429.037781,912.199570 453.301025C912.199570 477.564270,921.839539 500.830856,938.994949 517.986267C956.150360 535.141678,979.416946 544.781647,1003.680191 544.781647C1027.943436 544.781647,1051.210022 535.141678,1068.365433 517.986267C1085.520844 500.830856,1095.160812 477.564270,1095.160812 453.301025Z" style="stroke:rgb(25.500488%,41.000366%,88.400269%); stroke-width: 2.500000;stroke-linecap: round;stroke-linejoin: round;stroke-miterlimit: 10.000000;fill: none;"></path>
  <path d="M986.201553 348.403244C986.201553 324.139999,976.561584 300.873413,959.406174 283.718002C942.250763 266.562592,918.984177 256.922623,894.720932 256.922623C870.457687 256.922623,847.191101 266.562592,830.035690 283.718002C812.880280 300.873413,803.240311 324.139999,803.240311 348.403244C803.240311 372.666489,812.880280 395.933075,830.035690 413.088486C847.191101 430.243896,870.457687 439.883865,894.720932 439.883865C918.984177 439.883865,942.250763 430.243896,959.406174 413.088486C976.561584 395.933075,986.201553 372.666489,986.201553 348.403244Z" style="stroke:rgb(25.500488%,41.000366%,88.400269%); stroke-width: 2.500000;stroke-linecap: round;stroke-linejoin: round;stroke-miterlimit: 10.000000;fill: none;"></path>
  <path d="M879.396301 228.660950C879.396301 204.397705,869.756332 181.131119,852.600922 163.975708C835.445511 146.820297,812.178925 137.180328,787.915680 137.180328C763.652435 137.180328,740.385849 146.820297,723.230438 163.975708C706.075027 181.131119,696.435059 204.397705,696.435059 228.660950C696.435059 252.924194,706.075027 276.190781,723.230438 293.346191C740.385849 310.501602,763.652435 320.141571,787.915680 320.141571C812.178925 320.141571,835.445511 310.501602,852.600922 293.346191C869.756332 276.190781,879.396301 252.924194,879.396301 228.660950Z" style="stroke:rgb(25.500488%,41.000366%,88.400269%); stroke-width: 2.500000;stroke-linecap: round;stroke-linejoin: round;stroke-miterlimit: 10.000000;fill: none;"></path>
  <path d="M802.669357 99.277496C802.669357 75.014252,793.029388 51.747665,775.873978 34.592255C758.718567 17.436844,735.451981 7.796875,711.188736 7.796875C686.925491 7.796875,663.658905 17.436844,646.503494 34.592255C629.348083 51.747665,619.708115 75.014252,619.708115 99.277496C619.708115 123.540741,629.348083 146.807327,646.503494 163.962738C663.658905 181.118149,686.925491 190.758118,711.188736 190.758118C735.451981 190.758118,758.718567 181.118149,775.873978 163.962738C793.029388 146.807327,802.669357 123.540741,802.669357 99.277496Z" style="stroke:rgb(25.500488%,41.000366%,88.400269%); stroke-width: 2.500000;stroke-linecap: round;stroke-linejoin: round;stroke-miterlimit: 10.000000;fill: none;"></path>
  <path d="M1529.661362 1244.498154C1529.661362 1220.234909,1520.021393 1196.968323,1502.865982 1179.812912C1485.710571 1162.657501,1462.443985 1153.017532,1438.180740 1153.017532C1413.917496 1153.017532,1390.650909 1162.657501,1373.495499 1179.812912C1356.340088 1196.968323,1346.700119 1220.234909,1346.700119 1244.498154C1346.700119 1268.761398,1356.340088 1292.027985,1373.495499 1309.183395C1390.650909 1326.338806,1413.917496 1335.978775,1438.180740 1335.978775C1462.443985 1335.978775,1485.710571 1326.338806,1502.865982 1309.183395C1520.021393 1292.027985,1529.661362 1268.761398,1529.661362 1244.498154Z" style="stroke:rgb(25.500488%,41.000366%,88.400269%); stroke-width: 2.500000;stroke-linecap: round;stroke-linejoin: round;stroke-miterlimit: 10.000000;fill: none;"></path>
  <path d="M1430.434067 1111.572266C1430.434067 1087.309021,1420.794098 1064.042435,1403.638687 1046.887024C1386.483276 1029.731613,1363.216690 1020.091644,1338.953445 1020.091644C1314.690201 1020.091644,1291.423615 1029.731613,1274.268204 1046.887024C1257.112793 1064.042435,1247.472824 1087.309021,1247.472824 1111.572266C1247.472824 1135.835510,1257.112793 1159.102097,1274.268204 1176.257507C1291.423615 1193.412918,1314.690201 1203.052887,1338.953445 1203.052887C1363.216690 1203.052887,1386.483276 1193.412918,1403.638687 1176.257507C1420.794098 1159.102097,1430.434067 1135.835510,1430.434067 1111.572266Z" style="stroke:rgb(25.500488%,41.000366%,88.400269%); stroke-width: 2.500000;stroke-linecap: round;stroke-linejoin: round;stroke-miterlimit: 10.000000;fill: none;"></path>
  <path d="M1334.917923 974.883331C1334.917923 950.620087,1325.277954 927.353500,1308.122543 910.198090C1290.967133 893.042679,1267.700546 883.402710,1243.437302 883.402710C1219.174057 883.402710,1195.907471 893.042679,1178.752060 910.198090C1161.596649 927.353500,1151.956680 950.620087,1151.956680 974.883331C1151.956680 999.146576,1161.596649 1022.413162,1178.752060 1039.568573C1195.907471 1056.723984,1219.174057 1066.363953,1243.437302 1066.363953C1267.700546 1066.363953,1290.967133 1056.723984,1308.122543 1039.568573C1325.277954 1022.413162,1334.917923 999.146576,1334.917923 974.883331Z" style="stroke:rgb(25.500488%,41.000366%,88.400269%); stroke-width: 2.500000;stroke-linecap: round;stroke-linejoin: round;stroke-miterlimit: 10.000000;fill: none;"></path>
  <path d="M1244.384537 839.219513C1244.384537 814.956268,1234.744568 791.689682,1217.589157 774.534271C1200.433746 757.378860,1177.167160 747.738892,1152.903915 747.738892C1128.640671 747.738892,1105.374084 757.378860,1088.218674 774.534271C1071.063263 791.689682,1061.423294 814.956268,1061.423294 839.219513C1061.423294 863.482758,1071.063263 886.749344,1088.218674 903.904755C1105.374084 921.060165,1128.640671 930.700134,1152.903915 930.700134C1177.167160 930.700134,1200.433746 921.060165,1217.589157 903.904755C1234.744568 886.749344,1244.384537 863.482758,1244.384537 839.219513Z" style="stroke:rgb(25.500488%,41.000366%,88.400269%); stroke-width: 2.500000;stroke-linecap: round;stroke-linejoin: round;stroke-miterlimit: 10.000000;fill: none;"></path>
  <path d="M1150.749893 703.659500C1150.749893 679.396255,1141.109924 656.129669,1123.954514 638.974258C1106.799103 621.818848,1083.532516 612.178879,1059.269272 612.178879C1035.006027 612.178879,1011.739441 621.818848,994.584030 638.974258C977.428619 656.129669,967.788651 679.396255,967.788651 703.659500C967.788651 727.922745,977.428619 751.189331,994.584030 768.344742C1011.739441 785.500153,1035.006027 795.140121,1059.269272 795.140121C1083.532516 795.140121,1106.799103 785.500153,1123.954514 768.344742C1141.109924 751.189331,1150.749893 727.922745,1150.749893 703.659500Z" style="stroke:rgb(25.500488%,41.000366%,88.400269%); stroke-width: 2.500000;stroke-linecap: round;stroke-linejoin: round;stroke-miterlimit: 10.000000;fill: none;"></path>
  <path d="M1039.416031 582.204376C1039.416031 557.941132,1029.776062 534.674545,1012.620651 517.519135C995.465240 500.363724,972.198654 490.723755,947.935410 490.723755C923.672165 490.723755,900.405579 500.363724,883.250168 517.519135C866.094757 534.674545,856.454788 557.941132,856.454788 582.204376C856.454788 606.467621,866.094757 629.734207,883.250168 646.889618C900.405579 664.045029,923.672165 673.684998,947.935410 673.684998C972.198654 673.684998,995.465240 664.045029,1012.620651 646.889618C1029.776062 629.734207,1039.416031 606.467621,1039.416031 582.204376Z" style="stroke:rgb(25.500488%,41.000366%,88.400269%); stroke-width: 2.500000;stroke-linecap: round;stroke-linejoin: round;stroke-miterlimit: 10.000000;fill: none;"></path>
  <path d="M927.303604 463.746689C927.303604 439.483444,917.663635 416.216858,900.508224 399.061447C883.352814 381.906036,860.086227 372.266068,835.822983 372.266068C811.559738 372.266068,788.293152 381.906036,771.137741 399.061447C753.982330 416.216858,744.342361 439.483444,744.342361 463.746689C744.342361 488.009933,753.982330 511.276520,771.137741 528.431931C788.293152 545.587341,811.559738 555.227310,835.822983 555.227310C860.086227 555.227310,883.352814 545.587341,900.508224 528.431931C917.663635 511.276520,927.303604 488.009933,927.303604 463.746689Z" style="stroke:rgb(25.500488%,41.000366%,88.400269%); stroke-width: 2.500000;stroke-linecap: round;stroke-linejoin: round;stroke-miterlimit: 10.000000;fill: none;"></path>
  <path d="M815.294983 340.215408C815.294983 315.952164,805.655014 292.685577,788.499603 275.530167C771.344193 258.374756,748.077606 248.734787,723.814362 248.734787C699.551117 248.734787,676.284531 258.374756,659.129120 275.530167C641.973709 292.685577,632.333740 315.952164,632.333740 340.215408C632.333740 364.478653,641.973709 387.745239,659.129120 404.900650C676.284531 422.056061,699.551117 431.696030,723.814362 431.696030C748.077606 431.696030,771.344193 422.056061,788.499603 404.900650C805.655014 387.745239,815.294983 364.478653,815.294983 340.215408Z" style="stroke:rgb(25.500488%,41.000366%,88.400269%); stroke-width: 2.500000;stroke-linecap: round;stroke-linejoin: round;stroke-miterlimit: 10.000000;fill: none;"></path>
  <path d="M707.789032 213.907257C707.789032 189.644012,698.149063 166.377426,680.993652 149.222015C663.838242 132.066605,640.571655 122.426636,616.308411 122.426636C592.045166 122.426636,568.778580 132.066605,551.623169 149.222015C534.467758 166.377426,524.827789 189.644012,524.827789 213.907257C524.827789 238.170502,534.467758 261.437088,551.623169 278.592499C568.778580 295.747910,592.045166 305.387878,616.308411 305.387878C640.571655 305.387878,663.838242 295.747910,680.993652 278.592499C698.149063 261.437088,707.789032 238.170502,707.789032 213.907257Z" style="stroke:rgb(25.500488%,41.000366%,88.400269%); stroke-width: 2.500000;stroke-linecap: round;stroke-linejoin: round;stroke-miterlimit: 10.000000;fill: none;"></path>
  <path d="M1478.406250 1363.228333C1478.406250 1338.965088,1468.766281 1315.698502,1451.610870 1298.543091C1434.455460 1281.387680,1411.188873 1271.747711,1386.925629 1271.747711C1362.662384 1271.747711,1339.395798 1281.387680,1322.240387 1298.543091C1305.084976 1315.698502,1295.445007 1338.965088,1295.445007 1363.228333C1295.445007 1387.491577,1305.084976 1410.758163,1322.240387 1427.913574C1339.395798 1445.068985,1362.662384 1454.708954,1386.925629 1454.708954C1411.188873 1454.708954,1434.455460 1445.068985,1451.610870 1427.913574C1468.766281 1410.758163,1478.406250 1387.491577,1478.406250 1363.228333Z" style="stroke:rgb(25.500488%,41.000366%,88.400269%); stroke-width: 2.500000;stroke-linecap: round;stroke-linejoin: round;stroke-miterlimit: 10.000000;fill: none;"></path>
  <path d="M1376.635681 1256.968063C1376.635681 1232.704819,1366.995712 1209.438232,1349.840302 1192.282822C1332.684891 1175.127411,1309.418304 1165.487442,1285.155060 1165.487442C1260.891815 1165.487442,1237.625229 1175.127411,1220.469818 1192.282822C1203.314407 1209.438232,1193.674438 1232.704819,1193.674438 1256.968063C1193.674438 1281.231308,1203.314407 1304.497894,1220.469818 1321.653305C1237.625229 1338.808716,1260.891815 1348.448685,1285.155060 1348.448685C1309.418304 1348.448685,1332.684891 1338.808716,1349.840302 1321.653305C1366.995712 1304.497894,1376.635681 1281.231308,1376.635681 1256.968063Z" style="stroke:rgb(25.500488%,41.000366%,88.400269%); stroke-width: 2.500000;stroke-linecap: round;stroke-linejoin: round;stroke-miterlimit: 10.000000;fill: none;"></path>
  <path d="M1280.276077 1121.836258C1280.276077 1097.573013,1270.636108 1074.306427,1253.480698 1057.151016C1236.325287 1039.995605,1213.058701 1030.355637,1188.795456 1030.355637C1164.532211 1030.355637,1141.265625 1039.995605,1124.110214 1057.151016C1106.954803 1074.306427,1097.314835 1097.573013,1097.314835 1121.836258C1097.314835 1146.099503,1106.954803 1169.366089,1124.110214 1186.521500C1141.265625 1203.676910,1164.532211 1213.316879,1188.795456 1213.316879C1213.058701 1213.316879,1236.325287 1203.676910,1253.480698 1186.521500C1270.636108 1169.366089,1280.276077 1146.099503,1280.276077 1121.836258Z" style="stroke:rgb(25.500488%,41.000366%,88.400269%); stroke-width: 2.500000;stroke-linecap: round;stroke-linejoin: round;stroke-miterlimit: 10.000000;fill: none;"></path>
  <path d="M1183.643997 987.106705C1183.643997 962.843460,1174.004028 939.576874,1156.848618 922.421463C1139.693207 905.266052,1116.426620 895.626083,1092.163376 895.626083C1067.900131 895.626083,1044.633545 905.266052,1027.478134 922.421463C1010.322723 939.576874,1000.682755 962.843460,1000.682755 987.106705C1000.682755 1011.369949,1010.322723 1034.636536,1027.478134 1051.791946C1044.633545 1068.947357,1067.900131 1078.587326,1092.163376 1078.587326C1116.426620 1078.587326,1139.693207 1068.947357,1156.848618 1051.791946C1174.004028 1034.636536,1183.643997 1011.369949,1183.643997 987.106705Z" style="stroke:rgb(25.500488%,41.000366%,88.400269%); stroke-width: 2.500000;stroke-linecap: round;stroke-linejoin: round;stroke-miterlimit: 10.000000;fill: none;"></path>
  <path d="M1093.305252 851.079559C1093.305252 826.816315,1083.665283 803.549728,1066.509872 786.394318C1049.354462 769.238907,1026.087875 759.598938,1001.824631 759.598938C977.561386 759.598938,954.294800 769.238907,937.139389 786.394318C919.983978 803.549728,910.344009 826.816315,910.344009 851.079559C910.344009 875.342804,919.983978 898.609390,937.139389 915.764801C954.294800 932.920212,977.561386 942.560181,1001.824631 942.560181C1026.087875 942.560181,1049.354462 932.920212,1066.509872 915.764801C1083.665283 898.609390,1093.305252 875.342804,1093.305252 851.079559Z" style="stroke:rgb(25.500488%,41.000366%,88.400269%); stroke-width: 2.500000;stroke-linecap: round;stroke-linejoin: round;stroke-miterlimit: 10.000000;fill: none;"></path>
  <path d="M994.233688 726.847565C994.233688 702.584320,984.593719 679.317734,967.438309 662.162323C950.282898 645.006912,927.016312 635.366943,902.753067 635.366943C878.489822 635.366943,855.223236 645.006912,838.067825 662.162323C820.912415 679.317734,811.272446 702.584320,811.272446 726.847565C811.272446 751.110809,820.912415 774.377396,838.067825 791.532806C855.223236 808.688217,878.489822 818.328186,902.753067 818.328186C927.016312 818.328186,950.282898 808.688217,967.438309 791.532806C984.593719 774.377396,994.233688 751.110809,994.233688 726.847565Z" style="stroke:rgb(25.500488%,41.000366%,88.400269%); stroke-width: 2.500000;stroke-linecap: round;stroke-linejoin: round;stroke-miterlimit: 10.000000;fill: none;"></path>
  <path d="M881.731979 608.519653C881.731979 584.256409,872.092010 560.989822,854.936600 543.834412C837.781189 526.679001,814.514603 517.039032,790.251358 517.039032C765.988113 517.039032,742.721527 526.679001,725.566116 543.834412C708.410706 560.989822,698.770737 584.256409,698.770737 608.519653C698.770737 632.782898,708.410706 656.049484,725.566116 673.204895C742.721527 690.360306,765.988113 700.000275,790.251358 700.000275C814.514603 700.000275,837.781189 690.360306,854.936600 673.204895C872.092010 656.049484,881.731979 632.782898,881.731979 608.519653Z" style="stroke:rgb(25.500488%,41.000366%,88.400269%); stroke-width: 2.500000;stroke-linecap: round;stroke-linejoin: round;stroke-miterlimit: 10.000000;fill: none;"></path>
  <path d="M771.890350 484.326584C771.890350 460.063339,762.250381 436.796753,745.094971 419.641342C727.939560 402.485931,704.672974 392.845963,680.409729 392.845963C656.146484 392.845963,632.879898 402.485931,615.724487 419.641342C598.569077 436.796753,588.929108 460.063339,588.929108 484.326584C588.929108 508.589828,598.569077 531.856415,615.724487 549.011826C632.879898 566.167236,656.146484 575.807205,680.409729 575.807205C704.672974 575.807205,727.939560 566.167236,745.094971 549.011826C762.250381 531.856415,771.890350 508.589828,771.890350 484.326584Z" style="stroke:rgb(25.500488%,41.000366%,88.400269%); stroke-width: 2.500000;stroke-linecap: round;stroke-linejoin: round;stroke-miterlimit: 10.000000;fill: none;"></path>
  <path d="M661.581573 360.302216C661.581573 336.038971,651.941605 312.772385,634.786194 295.616974C617.630783 278.461563,594.364197 268.821594,570.100952 268.821594C545.837708 268.821594,522.571121 278.461563,505.415710 295.616974C488.260300 312.772385,478.620331 336.038971,478.620331 360.302216C478.620331 384.565460,488.260300 407.832047,505.415710 424.987457C522.571121 442.142868,545.837708 451.782837,570.100952 451.782837C594.364197 451.782837,617.630783 442.142868,634.786194 424.987457C651.941605 407.832047,661.581573 384.565460,661.581573 360.302216Z" style="stroke:rgb(25.500488%,41.000366%,88.400269%); stroke-width: 2.500000;stroke-linecap: round;stroke-linejoin: round;stroke-miterlimit: 10.000000;fill: none;"></path>
  <path d="M580.624466 237.458649C580.624466 213.195404,570.984497 189.928818,553.829086 172.773407C536.673676 155.617996,513.407089 145.978027,489.143845 145.978027C464.880600 145.978027,441.614014 155.617996,424.458603 172.773407C407.303192 189.928818,397.663223 213.195404,397.663223 237.458649C397.663223 261.721893,407.303192 284.988480,424.458603 302.143890C441.614014 319.299301,464.880600 328.939270,489.143845 328.939270C513.407089 328.939270,536.673676 319.299301,553.829086 302.143890C570.984497 284.988480,580.624466 261.721893,580.624466 237.458649Z" style="stroke:rgb(25.500488%,41.000366%,88.400269%); stroke-width: 2.500000;stroke-linecap: round;stroke-linejoin: round;stroke-miterlimit: 10.000000;fill: none;"></path>
  <path d="M1392.972427 1510.713272C1392.972427 1486.450027,1383.332458 1463.183441,1366.177048 1446.028030C1349.021637 1428.872620,1325.755051 1419.232651,1301.491806 1419.232651C1277.228561 1419.232651,1253.961975 1428.872620,1236.806564 1446.028030C1219.651154 1463.183441,1210.011185 1486.450027,1210.011185 1510.713272C1210.011185 1534.976517,1219.651154 1558.243103,1236.806564 1575.398514C1253.961975 1592.553925,1277.228561 1602.193893,1301.491806 1602.193893C1325.755051 1602.193893,1349.021637 1592.553925,1366.177048 1575.398514C1383.332458 1558.243103,1392.972427 1534.976517,1392.972427 1510.713272Z" style="stroke:rgb(25.500488%,41.000366%,88.400269%); stroke-width: 2.500000;stroke-linecap: round;stroke-linejoin: round;stroke-miterlimit: 10.000000;fill: none;"></path>
  <path d="M1316.751556 1404.790375C1316.751556 1380.527130,1307.111588 1357.260544,1289.956177 1340.105133C1272.800766 1322.949722,1249.534180 1313.309753,1225.270935 1313.309753C1201.007690 1313.309753,1177.741104 1322.949722,1160.585693 1340.105133C1143.430283 1357.260544,1133.790314 1380.527130,1133.790314 1404.790375C1133.790314 1429.053619,1143.430283 1452.320206,1160.585693 1469.475616C1177.741104 1486.631027,1201.007690 1496.270996,1225.270935 1496.270996C1249.534180 1496.270996,1272.800766 1486.631027,1289.956177 1469.475616C1307.111588 1452.320206,1316.751556 1429.053619,1316.751556 1404.790375Z" style="stroke:rgb(25.500488%,41.000366%,88.400269%); stroke-width: 2.500000;stroke-linecap: round;stroke-linejoin: round;stroke-miterlimit: 10.000000;fill: none;"></path>
  <path d="M1225.634247 1268.828110C1225.634247 1244.564865,1215.994278 1221.298279,1198.838867 1204.142868C1181.683456 1186.987457,1158.416870 1177.347488,1134.153625 1177.347488C1109.890381 1177.347488,1086.623795 1186.987457,1069.468384 1204.142868C1052.312973 1221.298279,1042.673004 1244.564865,1042.673004 1268.828110C1042.673004 1293.091354,1052.312973 1316.357941,1069.468384 1333.513351C1086.623795 1350.668762,1109.890381 1360.308731,1134.153625 1360.308731C1158.416870 1360.308731,1181.683456 1350.668762,1198.838867 1333.513351C1215.994278 1316.357941,1225.634247 1293.091354,1225.634247 1268.828110Z" style="stroke:rgb(25.500488%,41.000366%,88.400269%); stroke-width: 2.500000;stroke-linecap: round;stroke-linejoin: round;stroke-miterlimit: 10.000000;fill: none;"></path>
  <path d="M1129.041092 1134.085587C1129.041092 1109.822342,1119.401123 1086.555756,1102.245712 1069.400345C1085.090302 1052.244934,1061.823715 1042.604965,1037.560471 1042.604965C1013.297226 1042.604965,990.030640 1052.244934,972.875229 1069.400345C955.719818 1086.555756,946.079849 1109.822342,946.079849 1134.085587C946.079849 1158.348831,955.719818 1181.615417,972.875229 1198.770828C990.030640 1215.926239,1013.297226 1225.566208,1037.560471 1225.566208C1061.823715 1225.566208,1085.090302 1215.926239,1102.245712 1198.770828C1119.401123 1181.615417,1129.041092 1158.348831,1129.041092 1134.085587Z" style="stroke:rgb(25.500488%,41.000366%,88.400269%); stroke-width: 2.500000;stroke-linecap: round;stroke-linejoin: round;stroke-miterlimit: 10.000000;fill: none;"></path>
  <path d="M1032.603638 999.005676C1032.603638 974.742432,1022.963669 951.475845,1005.808258 934.320435C988.652847 917.165024,965.386261 907.525055,941.123016 907.525055C916.859772 907.525055,893.593185 917.165024,876.437775 934.320435C859.282364 951.475845,849.642395 974.742432,849.642395 999.005676C849.642395 1023.268921,859.282364 1046.535507,876.437775 1063.690918C893.593185 1080.846329,916.859772 1090.486298,941.123016 1090.486298C965.386261 1090.486298,988.652847 1080.846329,1005.808258 1063.690918C1022.963669 1046.535507,1032.603638 1023.268921,1032.603638 999.005676Z" style="stroke:rgb(25.500488%,41.000366%,88.400269%); stroke-width: 2.500000;stroke-linecap: round;stroke-linejoin: round;stroke-miterlimit: 10.000000;fill: none;"></path>
  <path d="M936.853912 874.228699C936.853912 849.965454,927.213943 826.698868,910.058533 809.543457C892.903122 792.388046,869.636536 782.748077,845.373291 782.748077C821.110046 782.748077,797.843460 792.388046,780.688049 809.543457C763.532639 826.698868,753.892670 849.965454,753.892670 874.228699C753.892670 898.491943,763.532639 921.758530,780.688049 938.913940C797.843460 956.069351,821.110046 965.709320,845.373291 965.709320C869.636536 965.709320,892.903122 956.069351,910.058533 938.913940C927.213943 921.758530,936.853912 898.491943,936.853912 874.228699Z" style="stroke:rgb(25.500488%,41.000366%,88.400269%); stroke-width: 2.500000;stroke-linecap: round;stroke-linejoin: round;stroke-miterlimit: 10.000000;fill: none;"></path>
  <path d="M836.523682 753.123917C836.523682 728.860672,826.883713 705.594086,809.728302 688.438675C792.572891 671.283264,769.306305 661.643295,745.043060 661.643295C720.779816 661.643295,697.513229 671.283264,680.357819 688.438675C663.202408 705.594086,653.562439 728.860672,653.562439 753.123917C653.562439 777.387161,663.202408 800.653748,680.357819 817.809158C697.513229 834.964569,720.779816 844.604538,745.043060 844.604538C769.306305 844.604538,792.572891 834.964569,809.728302 817.809158C826.883713 800.653748,836.523682 777.387161,836.523682 753.123917Z" style="stroke:rgb(25.500488%,41.000366%,88.400269%); stroke-width: 2.500000;stroke-linecap: round;stroke-linejoin: round;stroke-miterlimit: 10.000000;fill: none;"></path>
  <path d="M726.279785 629.047638C726.279785 604.784393,716.639816 581.517807,699.484406 564.362396C682.328995 547.206985,659.062408 537.567017,634.799164 537.567017C610.535919 537.567017,587.269333 547.206985,570.113922 564.362396C552.958511 581.517807,543.318542 604.784393,543.318542 629.047638C543.318542 653.310883,552.958511 676.577469,570.113922 693.732880C587.269333 710.888290,610.535919 720.528259,634.799164 720.528259C659.062408 720.528259,682.328995 710.888290,699.484406 693.732880C716.639816 676.577469,726.279785 653.310883,726.279785 629.047638Z" style="stroke:rgb(25.500488%,41.000366%,88.400269%); stroke-width: 2.500000;stroke-linecap: round;stroke-linejoin: round;stroke-miterlimit: 10.000000;fill: none;"></path>
  <path d="M616.412201 504.893509C616.412201 480.630264,606.772232 457.363678,589.616821 440.208267C572.461411 423.052856,549.194824 413.412888,524.931580 413.412888C500.668335 413.412888,477.401749 423.052856,460.246338 440.208267C443.090927 457.363678,433.450958 480.630264,433.450958 504.893509C433.450958 529.156754,443.090927 552.423340,460.246338 569.578751C477.401749 586.734161,500.668335 596.374130,524.931580 596.374130C549.194824 596.374130,572.461411 586.734161,589.616821 569.578751C606.772232 552.423340,616.412201 529.156754,616.412201 504.893509Z" style="stroke:rgb(25.500488%,41.000366%,88.400269%); stroke-width: 2.500000;stroke-linecap: round;stroke-linejoin: round;stroke-miterlimit: 10.000000;fill: none;"></path>
  <path d="M504.131088 385.800003C504.131088 361.536758,494.491119 338.270172,477.335709 321.114761C460.180298 303.959351,436.913712 294.319382,412.650467 294.319382C388.387222 294.319382,365.120636 303.959351,347.965225 321.114761C330.809814 338.270172,321.169846 361.536758,321.169846 385.800003C321.169846 410.063248,330.809814 433.329834,347.965225 450.485245C365.120636 467.640656,388.387222 477.280624,412.650467 477.280624C436.913712 477.280624,460.180298 467.640656,477.335709 450.485245C494.491119 433.329834,504.131088 410.063248,504.131088 385.800003Z" style="stroke:rgb(25.500488%,41.000366%,88.400269%); stroke-width: 2.500000;stroke-linecap: round;stroke-linejoin: round;stroke-miterlimit: 10.000000;fill: none;"></path>
  <path d="M417.827881 287.922226C417.827881 263.658981,408.187912 240.392395,391.032501 223.236984C373.877090 206.081573,350.610504 196.441605,326.347260 196.441605C302.084015 196.441605,278.817429 206.081573,261.662018 223.236984C244.506607 240.392395,234.866638 263.658981,234.866638 287.922226C234.866638 312.185471,244.506607 335.452057,261.662018 352.607468C278.817429 369.762878,302.084015 379.402847,326.347260 379.402847C350.610504 379.402847,373.877090 369.762878,391.032501 352.607468C408.187912 335.452057,417.827881 312.185471,417.827881 287.922226Z" style="stroke:rgb(25.500488%,41.000366%,88.400269%); stroke-width: 2.500000;stroke-linecap: round;stroke-linejoin: round;stroke-miterlimit: 10.000000;fill: none;"></path>
  <path d="M1267.209274 1561.981339C1267.209274 1537.718094,1257.569305 1514.451508,1240.413895 1497.296097C1223.258484 1480.140686,1199.991898 1470.500717,1175.728653 1470.500717C1151.465408 1470.500717,1128.198822 1480.140686,1111.043411 1497.296097C1093.888000 1514.451508,1084.248032 1537.718094,1084.248032 1561.981339C1084.248032 1586.244583,1093.888000 1609.511169,1111.043411 1626.666580C1128.198822 1643.821991,1151.465408 1653.461960,1175.728653 1653.461960C1199.991898 1653.461960,1223.258484 1643.821991,1240.413895 1626.666580C1257.569305 1609.511169,1267.209274 1586.244583,1267.209274 1561.981339Z" style="stroke:rgb(25.500488%,41.000366%,88.400269%); stroke-width: 2.500000;stroke-linecap: round;stroke-linejoin: round;stroke-miterlimit: 10.000000;fill: none;"></path>
  <path d="M1177.311722 1421.685104C1177.311722 1397.421860,1167.671753 1374.155273,1150.516342 1356.999863C1133.360931 1339.844452,1110.094345 1330.204483,1085.831100 1330.204483C1061.567856 1330.204483,1038.301270 1339.844452,1021.145859 1356.999863C1003.990448 1374.155273,994.350479 1397.421860,994.350479 1421.685104C994.350479 1445.948349,1003.990448 1469.214935,1021.145859 1486.370346C1038.301270 1503.525757,1061.567856 1513.165726,1085.831100 1513.165726C1110.094345 1513.165726,1133.360931 1503.525757,1150.516342 1486.370346C1167.671753 1469.214935,1177.311722 1445.948349,1177.311722 1421.685104Z" style="stroke:rgb(25.500488%,41.000366%,88.400269%); stroke-width: 2.500000;stroke-linecap: round;stroke-linejoin: round;stroke-miterlimit: 10.000000;fill: none;"></path>
  <path d="M1080.835342 1285.151886C1080.835342 1260.888641,1071.195374 1237.622055,1054.039963 1220.466644C1036.884552 1203.311234,1013.617966 1193.671265,989.354721 1193.671265C965.091476 1193.671265,941.824890 1203.311234,924.669479 1220.466644C907.514069 1237.622055,897.874100 1260.888641,897.874100 1285.151886C897.874100 1309.415131,907.514069 1332.681717,924.669479 1349.837128C941.824890 1366.992538,965.091476 1376.632507,989.354721 1376.632507C1013.617966 1376.632507,1036.884552 1366.992538,1054.039963 1349.837128C1071.195374 1332.681717,1080.835342 1309.415131,1080.835342 1285.151886Z" style="stroke:rgb(25.500488%,41.000366%,88.400269%); stroke-width: 2.500000;stroke-linecap: round;stroke-linejoin: round;stroke-miterlimit: 10.000000;fill: none;"></path>
  <path d="M981.906509 1150.565063C981.906509 1126.301819,972.266541 1103.035233,955.111130 1085.879822C937.955719 1068.724411,914.689133 1059.084442,890.425888 1059.084442C866.162643 1059.084442,842.896057 1068.724411,825.740646 1085.879822C808.585236 1103.035233,798.945267 1126.301819,798.945267 1150.565063C798.945267 1174.828308,808.585236 1198.094894,825.740646 1215.250305C842.896057 1232.405716,866.162643 1242.045685,890.425888 1242.045685C914.689133 1242.045685,937.955719 1232.405716,955.111130 1215.250305C972.266541 1198.094894,981.906509 1174.828308,981.906509 1150.565063Z" style="stroke:rgb(25.500488%,41.000366%,88.400269%); stroke-width: 2.500000;stroke-linecap: round;stroke-linejoin: round;stroke-miterlimit: 10.000000;fill: none;"></path>
  <path d="M882.497559 1021.129715C882.497559 996.866470,872.857590 973.599884,855.702179 956.444473C838.546768 939.289062,815.280182 929.649094,791.016937 929.649094C766.753693 929.649094,743.487106 939.289062,726.331696 956.444473C709.176285 973.599884,699.536316 996.866470,699.536316 1021.129715C699.536316 1045.392960,709.176285 1068.659546,726.331696 1085.814957C743.487106 1102.970367,766.753693 1112.610336,791.016937 1112.610336C815.280182 1112.610336,838.546768 1102.970367,855.702179 1085.814957C872.857590 1068.659546,882.497559 1045.392960,882.497559 1021.129715Z" style="stroke:rgb(25.500488%,41.000366%,88.400269%); stroke-width: 2.500000;stroke-linecap: round;stroke-linejoin: round;stroke-miterlimit: 10.000000;fill: none;"></path>
  <path d="M781.544464 894.536102C781.544464 870.272858,771.904495 847.006271,754.749084 829.850861C737.593674 812.695450,714.327087 803.055481,690.063843 803.055481C665.800598 803.055481,642.534012 812.695450,625.378601 829.850861C608.223190 847.006271,598.583221 870.272858,598.583221 894.536102C598.583221 918.799347,608.223190 942.065933,625.378601 959.221344C642.534012 976.376755,665.800598 986.016724,690.063843 986.016724C714.327087 986.016724,737.593674 976.376755,754.749084 959.221344C771.904495 942.065933,781.544464 918.799347,781.544464 894.536102Z" style="stroke:rgb(25.500488%,41.000366%,88.400269%); stroke-width: 2.500000;stroke-linecap: round;stroke-linejoin: round;stroke-miterlimit: 10.000000;fill: none;"></path>
  <path d="M677.477142 768.824844C677.477142 744.561600,667.837173 721.295013,650.681763 704.139603C633.526352 686.984192,610.259766 677.344223,585.996521 677.344223C561.733276 677.344223,538.466690 686.984192,521.311279 704.139603C504.155869 721.295013,494.515900 744.561600,494.515900 768.824844C494.515900 793.088089,504.155869 816.354675,521.311279 833.510086C538.466690 850.665497,561.733276 860.305466,585.996521 860.305466C610.259766 860.305466,633.526352 850.665497,650.681763 833.510086C667.837173 816.354675,677.477142 793.088089,677.477142 768.824844Z" style="stroke:rgb(25.500488%,41.000366%,88.400269%); stroke-width: 2.500000;stroke-linecap: round;stroke-linejoin: round;stroke-miterlimit: 10.000000;fill: none;"></path>
  <path d="M568.284317 642.425873C568.284317 618.162628,558.644348 594.896042,541.488937 577.740631C524.333527 560.585220,501.066940 550.945251,476.803696 550.945251C452.540451 550.945251,429.273865 560.585220,412.118454 577.740631C394.963043 594.896042,385.323074 618.162628,385.323074 642.425873C385.323074 666.689117,394.963043 689.955704,412.118454 707.111115C429.273865 724.266525,452.540451 733.906494,476.803696 733.906494C501.066940 733.906494,524.333527 724.266525,541.488937 707.111115C558.644348 689.955704,568.284317 666.689117,568.284317 642.425873Z" style="stroke:rgb(25.500488%,41.000366%,88.400269%); stroke-width: 2.500000;stroke-linecap: round;stroke-linejoin: round;stroke-miterlimit: 10.000000;fill: none;"></path>
  <path d="M456.639023 517.986267C456.639023 493.723022,446.999054 470.456436,429.843643 453.301025C412.688232 436.145615,389.421646 426.505646,365.158401 426.505646C340.895157 426.505646,317.628571 436.145615,300.473160 453.301025C283.317749 470.456436,273.677780 493.723022,273.677780 517.986267C273.677780 542.249512,283.317749 565.516098,300.473160 582.671509C317.628571 599.826920,340.895157 609.466888,365.158401 609.466888C389.421646 609.466888,412.688232 599.826920,429.843643 582.671509C446.999054 565.516098,456.639023 542.249512,456.639023 517.986267Z" style="stroke:rgb(25.500488%,41.000366%,88.400269%); stroke-width: 2.500000;stroke-linecap: round;stroke-linejoin: round;stroke-miterlimit: 10.000000;fill: none;"></path>
  <path d="M339.855240 399.126328C339.855240 374.863083,330.215271 351.596497,313.059860 334.441086C295.904449 317.285675,272.637863 307.645706,248.374619 307.645706C224.111374 307.645706,200.844788 317.285675,183.689377 334.441086C166.533966 351.596497,156.893997 374.863083,156.893997 399.126328C156.893997 423.389572,166.533966 446.656158,183.689377 463.811569C200.844788 480.966980,224.111374 490.606949,248.374619 490.606949C272.637863 490.606949,295.904449 480.966980,313.059860 463.811569C330.215271 446.656158,339.855240 423.389572,339.855240 399.126328Z" style="stroke:rgb(25.500488%,41.000366%,88.400269%); stroke-width: 2.500000;stroke-linecap: round;stroke-linejoin: round;stroke-miterlimit: 10.000000;fill: none;"></path>
  <path d="M1119.140427 1569.247894C1119.140427 1544.984650,1109.500458 1521.718063,1092.345047 1504.562653C1075.189636 1487.407242,1051.923050 1477.767273,1027.659805 1477.767273C1003.396561 1477.767273,980.129974 1487.407242,962.974564 1504.562653C945.819153 1521.718063,936.179184 1544.984650,936.179184 1569.247894C936.179184 1593.511139,945.819153 1616.777725,962.974564 1633.933136C980.129974 1651.088547,1003.396561 1660.728516,1027.659805 1660.728516C1051.923050 1660.728516,1075.189636 1651.088547,1092.345047 1633.933136C1109.500458 1616.777725,1119.140427 1593.511139,1119.140427 1569.247894Z" style="stroke:rgb(25.500488%,41.000366%,88.400269%); stroke-width: 2.500000;stroke-linecap: round;stroke-linejoin: round;stroke-miterlimit: 10.000000;fill: none;"></path>
  <path d="M1027.218613 1431.910172C1027.218613 1407.646927,1017.578644 1384.380341,1000.423233 1367.224930C983.267822 1350.069519,960.001236 1340.429550,935.737991 1340.429550C911.474747 1340.429550,888.208160 1350.069519,871.052750 1367.224930C853.897339 1384.380341,844.257370 1407.646927,844.257370 1431.910172C844.257370 1456.173416,853.897339 1479.440002,871.052750 1496.595413C888.208160 1513.750824,911.474747 1523.390793,935.737991 1523.390793C960.001236 1523.390793,983.267822 1513.750824,1000.423233 1496.595413C1017.578644 1479.440002,1027.218613 1456.173416,1027.218613 1431.910172Z" style="stroke:rgb(25.500488%,41.000366%,88.400269%); stroke-width: 2.500000;stroke-linecap: round;stroke-linejoin: round;stroke-miterlimit: 10.000000;fill: none;"></path>
  <path d="M929.769043 1296.998947C929.769043 1272.735703,920.129074 1249.469116,902.973663 1232.313705C885.818253 1215.158295,862.551666 1205.518326,838.288422 1205.518326C814.025177 1205.518326,790.758591 1215.158295,773.603180 1232.313705C756.447769 1249.469116,746.807800 1272.735703,746.807800 1296.998947C746.807800 1321.262192,756.447769 1344.528778,773.603180 1361.684189C790.758591 1378.839600,814.025177 1388.479568,838.288422 1388.479568C862.551666 1388.479568,885.818253 1378.839600,902.973663 1361.684189C920.129074 1344.528778,929.769043 1321.262192,929.769043 1296.998947Z" style="stroke:rgb(25.500488%,41.000366%,88.400269%); stroke-width: 2.500000;stroke-linecap: round;stroke-linejoin: round;stroke-miterlimit: 10.000000;fill: none;"></path>
  <path d="M827.881683 1168.069656C827.881683 1143.806412,818.241714 1120.539825,801.086304 1103.384415C783.930893 1086.229004,760.664307 1076.589035,736.401062 1076.589035C712.137817 1076.589035,688.871231 1086.229004,671.715820 1103.384415C654.560410 1120.539825,644.920441 1143.806412,644.920441 1168.069656C644.920441 1192.332901,654.560410 1215.599487,671.715820 1232.754898C688.871231 1249.910309,712.137817 1259.550278,736.401062 1259.550278C760.664307 1259.550278,783.930893 1249.910309,801.086304 1232.754898C818.241714 1215.599487,827.881683 1192.332901,827.881683 1168.069656Z" style="stroke:rgb(25.500488%,41.000366%,88.400269%); stroke-width: 2.500000;stroke-linecap: round;stroke-linejoin: round;stroke-miterlimit: 10.000000;fill: none;"></path>
  <path d="M727.201080 1041.424133C727.201080 1017.160889,717.561111 993.894302,700.405701 976.738892C683.250290 959.583481,659.983704 949.943512,635.720459 949.943512C611.457214 949.943512,588.190628 959.583481,571.035217 976.738892C553.879807 993.894302,544.239838 1017.160889,544.239838 1041.424133C544.239838 1065.687378,553.879807 1088.953964,571.035217 1106.109375C588.190628 1123.264786,611.457214 1132.904755,635.720459 1132.904755C659.983704 1132.904755,683.250290 1123.264786,700.405701 1106.109375C717.561111 1088.953964,727.201080 1065.687378,727.201080 1041.424133Z" style="stroke:rgb(25.500488%,41.000366%,88.400269%); stroke-width: 2.500000;stroke-linecap: round;stroke-linejoin: round;stroke-miterlimit: 10.000000;fill: none;"></path>
  <path d="M626.131210 915.090042C626.131210 890.826797,616.491241 867.560211,599.335831 850.404800C582.180420 833.249390,558.913834 823.609421,534.650589 823.609421C510.387344 823.609421,487.120758 833.249390,469.965347 850.404800C452.809937 867.560211,443.169968 890.826797,443.169968 915.090042C443.169968 939.353287,452.809937 962.619873,469.965347 979.775284C487.120758 996.930695,510.387344 1006.570663,534.650589 1006.570663C558.913834 1006.570663,582.180420 996.930695,599.335831 979.775284C616.491241 962.619873,626.131210 939.353287,626.131210 915.090042Z" style="stroke:rgb(25.500488%,41.000366%,88.400269%); stroke-width: 2.500000;stroke-linecap: round;stroke-linejoin: round;stroke-miterlimit: 10.000000;fill: none;"></path>
  <path d="M523.101974 787.069077C523.101974 762.805832,513.462006 739.539246,496.306595 722.383835C479.151184 705.228424,455.884598 695.588455,431.621353 695.588455C407.358109 695.588455,384.091522 705.228424,366.936111 722.383835C349.780701 739.539246,340.140732 762.805832,340.140732 787.069077C340.140732 811.332321,349.780701 834.598907,366.936111 851.754318C384.091522 868.909729,407.358109 878.549698,431.621353 878.549698C455.884598 878.549698,479.151184 868.909729,496.306595 851.754318C513.462006 834.598907,523.101974 811.332321,523.101974 787.069077Z" style="stroke:rgb(25.500488%,41.000366%,88.400269%); stroke-width: 2.500000;stroke-linecap: round;stroke-linejoin: round;stroke-miterlimit: 10.000000;fill: none;"></path>
  <path d="M413.273315 662.045547C413.273315 637.782303,403.633347 614.515717,386.477936 597.360306C369.322525 580.204895,346.055939 570.564926,321.792694 570.564926C297.529449 570.564926,274.262863 580.204895,257.107452 597.360306C239.952042 614.515717,230.312073 637.782303,230.312073 662.045547C230.312073 686.308792,239.952042 709.575378,257.107452 726.730789C274.262863 743.886200,297.529449 753.526169,321.792694 753.526169C346.055939 753.526169,369.322525 743.886200,386.477936 726.730789C403.633347 709.575378,413.273315 686.308792,413.273315 662.045547Z" style="stroke:rgb(25.500488%,41.000366%,88.400269%); stroke-width: 2.500000;stroke-linecap: round;stroke-linejoin: round;stroke-miterlimit: 10.000000;fill: none;"></path>
  <path d="M299.824356 541.862061C299.824356 517.598816,290.184387 494.332230,273.028976 477.176819C255.873566 460.021408,232.606979 450.381439,208.343735 450.381439C184.080490 450.381439,160.813904 460.021408,143.658493 477.176819C126.503082 494.332230,116.863113 517.598816,116.863113 541.862061C116.863113 566.125305,126.503082 589.391891,143.658493 606.547302C160.813904 623.702713,184.080490 633.342682,208.343735 633.342682C232.606979 633.342682,255.873566 623.702713,273.028976 606.547302C290.184387 589.391891,299.824356 566.125305,299.824356 541.862061Z" style="stroke:rgb(25.500488%,41.000366%,88.400269%); stroke-width: 2.500000;stroke-linecap: round;stroke-linejoin: round;stroke-miterlimit: 10.000000;fill: none;"></path>
  <path d="M963.895859 1572.336166C963.895859 1548.072922,954.255890 1524.806335,937.100479 1507.650925C919.945068 1490.495514,896.678482 1480.855545,872.415237 1480.855545C848.151993 1480.855545,824.885406 1490.495514,807.729996 1507.650925C790.574585 1524.806335,780.934616 1548.072922,780.934616 1572.336166C780.934616 1596.599411,790.574585 1619.865997,807.729996 1637.021408C824.885406 1654.176819,848.151993 1663.816788,872.415237 1663.816788C896.678482 1663.816788,919.945068 1654.176819,937.100479 1637.021408C954.255890 1619.865997,963.895859 1596.599411,963.895859 1572.336166Z" style="stroke:rgb(25.500488%,41.000366%,88.400269%); stroke-width: 2.500000;stroke-linecap: round;stroke-linejoin: round;stroke-miterlimit: 10.000000;fill: none;"></path>
  <path d="M871.013824 1436.646393C871.013824 1412.383148,861.373856 1389.116562,844.218445 1371.961151C827.063034 1354.805740,803.796448 1345.165771,779.533203 1345.165771C755.269958 1345.165771,732.003372 1354.805740,714.847961 1371.961151C697.692551 1389.116562,688.052582 1412.383148,688.052582 1436.646393C688.052582 1460.909637,697.692551 1484.176224,714.847961 1501.331635C732.003372 1518.487045,755.269958 1528.127014,779.533203 1528.127014C803.796448 1528.127014,827.063034 1518.487045,844.218445 1501.331635C861.373856 1484.176224,871.013824 1460.909637,871.013824 1436.646393Z" style="stroke:rgb(25.500488%,41.000366%,88.400269%); stroke-width: 2.500000;stroke-linecap: round;stroke-linejoin: round;stroke-miterlimit: 10.000000;fill: none;"></path>
  <path d="M770.618698 1307.405685C770.618698 1283.142441,760.978729 1259.875854,743.823318 1242.720444C726.667908 1225.565033,703.401321 1215.925064,679.138077 1215.925064C654.874832 1215.925064,631.608246 1225.565033,614.452835 1242.720444C597.297424 1259.875854,587.657455 1283.142441,587.657455 1307.405685C587.657455 1331.668930,597.297424 1354.935516,614.452835 1372.090927C631.608246 1389.246338,654.874832 1398.886307,679.138077 1398.886307C703.401321 1398.886307,726.667908 1389.246338,743.823318 1372.090927C760.978729 1354.935516,770.618698 1331.668930,770.618698 1307.405685Z" style="stroke:rgb(25.500488%,41.000366%,88.400269%); stroke-width: 2.500000;stroke-linecap: round;stroke-linejoin: round;stroke-miterlimit: 10.000000;fill: none;"></path>
  <path d="M671.015106 1186.365784C671.015106 1162.102539,661.375137 1138.835953,644.219727 1121.680542C627.064316 1104.525131,603.797729 1094.885162,579.534485 1094.885162C555.271240 1094.885162,532.004654 1104.525131,514.849243 1121.680542C497.693832 1138.835953,488.053864 1162.102539,488.053864 1186.365784C488.053864 1210.629028,497.693832 1233.895615,514.849243 1251.051025C532.004654 1268.206436,555.271240 1277.846405,579.534485 1277.846405C603.797729 1277.846405,627.064316 1268.206436,644.219727 1251.051025C661.375137 1233.895615,671.015106 1210.629028,671.015106 1186.365784Z" style="stroke:rgb(25.500488%,41.000366%,88.400269%); stroke-width: 2.500000;stroke-linecap: round;stroke-linejoin: round;stroke-miterlimit: 10.000000;fill: none;"></path>
  <path d="M573.383865 1063.950439C573.383865 1039.687195,563.743896 1016.420609,546.588486 999.265198C529.433075 982.109787,506.166489 972.469818,481.903244 972.469818C457.639999 972.469818,434.373413 982.109787,417.218002 999.265198C400.062592 1016.420609,390.422623 1039.687195,390.422623 1063.950439C390.422623 1088.213684,400.062592 1111.480270,417.218002 1128.635681C434.373413 1145.791092,457.639999 1155.431061,481.903244 1155.431061C506.166489 1155.431061,529.433075 1145.791092,546.588486 1128.635681C563.743896 1111.480270,573.383865 1088.213684,573.383865 1063.950439Z" style="stroke:rgb(25.500488%,41.000366%,88.400269%); stroke-width: 2.500000;stroke-linecap: round;stroke-linejoin: round;stroke-miterlimit: 10.000000;fill: none;"></path>
  <path d="M477.556290 939.913086C477.556290 915.649841,467.916321 892.383255,450.760910 875.227844C433.605499 858.072433,410.338913 848.432465,386.075668 848.432465C361.812424 848.432465,338.545837 858.072433,321.390427 875.227844C304.235016 892.383255,294.595047 915.649841,294.595047 939.913086C294.595047 964.176331,304.235016 987.442917,321.390427 1004.598328C338.545837 1021.753738,361.812424 1031.393707,386.075668 1031.393707C410.338913 1031.393707,433.605499 1021.753738,450.760910 1004.598328C467.916321 987.442917,477.556290 964.176331,477.556290 939.913086Z" style="stroke:rgb(25.500488%,41.000366%,88.400269%); stroke-width: 2.500000;stroke-linecap: round;stroke-linejoin: round;stroke-miterlimit: 10.000000;fill: none;"></path>
  <path d="M373.891220 813.280533C373.891220 789.017288,364.251251 765.750702,347.095840 748.595291C329.940430 731.439880,306.673843 721.799911,282.410599 721.799911C258.147354 721.799911,234.880768 731.439880,217.725357 748.595291C200.569946 765.750702,190.929977 789.017288,190.929977 813.280533C190.929977 837.543777,200.569946 860.810364,217.725357 877.965775C234.880768 895.121185,258.147354 904.761154,282.410599 904.761154C306.673843 904.761154,329.940430 895.121185,347.095840 877.965775C364.251251 860.810364,373.891220 837.543777,373.891220 813.280533Z" style="stroke:rgb(25.500488%,41.000366%,88.400269%); stroke-width: 2.500000;stroke-linecap: round;stroke-linejoin: round;stroke-miterlimit: 10.000000;fill: none;"></path>
  <path d="M262.271881 692.526108C262.271881 668.262863,252.631912 644.996277,235.476501 627.840866C218.321091 610.685455,195.054504 601.045486,170.791260 601.045486C146.528015 601.045486,123.261429 610.685455,106.106018 627.840866C88.950607 644.996277,79.310638 668.262863,79.310638 692.526108C79.310638 716.789352,88.950607 740.055939,106.106018 757.211349C123.261429 774.366760,146.528015 784.006729,170.791260 784.006729C195.054504 784.006729,218.321091 774.366760,235.476501 757.211349C252.631912 740.055939,262.271881 716.789352,262.271881 692.526108Z" style="stroke:rgb(25.500488%,41.000366%,88.400269%); stroke-width: 2.500000;stroke-linecap: round;stroke-linejoin: round;stroke-miterlimit: 10.000000;fill: none;"></path>
  <path d="M805.770615 1573.984116C805.770615 1549.720871,796.130646 1526.454285,778.975235 1509.298874C761.819824 1492.143463,738.553238 1482.503494,714.289993 1482.503494C690.026749 1482.503494,666.760162 1492.143463,649.604752 1509.298874C632.449341 1526.454285,622.809372 1549.720871,622.809372 1573.984116C622.809372 1598.247360,632.449341 1621.513947,649.604752 1638.669357C666.760162 1655.824768,690.026749 1665.464737,714.289993 1665.464737C738.553238 1665.464737,761.819824 1655.824768,778.975235 1638.669357C796.130646 1621.513947,805.770615 1598.247360,805.770615 1573.984116Z" style="stroke:rgb(25.500488%,41.000366%,88.400269%); stroke-width: 2.500000;stroke-linecap: round;stroke-linejoin: round;stroke-miterlimit: 10.000000;fill: none;"></path>
  <path d="M709.930069 1443.964844C709.930069 1419.701599,700.290100 1396.435013,683.134689 1379.279602C665.979279 1362.124191,642.712692 1352.484222,618.449448 1352.484222C594.186203 1352.484222,570.919617 1362.124191,553.764206 1379.279602C536.608795 1396.435013,526.968826 1419.701599,526.968826 1443.964844C526.968826 1468.228088,536.608795 1491.494675,553.764206 1508.650085C570.919617 1525.805496,594.186203 1535.445465,618.449448 1535.445465C642.712692 1535.445465,665.979279 1525.805496,683.134689 1508.650085C700.290100 1491.494675,709.930069 1468.228088,709.930069 1443.964844Z" style="stroke:rgb(25.500488%,41.000366%,88.400269%); stroke-width: 2.500000;stroke-linecap: round;stroke-linejoin: round;stroke-miterlimit: 10.000000;fill: none;"></path>
  <path d="M610.443253 1330.736481C610.443253 1306.473236,600.803284 1283.206650,583.647873 1266.051239C566.492462 1248.895828,543.225876 1239.255859,518.962631 1239.255859C494.699387 1239.255859,471.432800 1248.895828,454.277390 1266.051239C437.121979 1283.206650,427.482010 1306.473236,427.482010 1330.736481C427.482010 1354.999725,437.121979 1378.266312,454.277390 1395.421722C471.432800 1412.577133,494.699387 1422.217102,518.962631 1422.217102C543.225876 1422.217102,566.492462 1412.577133,583.647873 1395.421722C600.803284 1378.266312,610.443253 1354.999725,610.443253 1330.736481Z" style="stroke:rgb(25.500488%,41.000366%,88.400269%); stroke-width: 2.500000;stroke-linecap: round;stroke-linejoin: round;stroke-miterlimit: 10.000000;fill: none;"></path>
  <path d="M513.681412 1211.707870C513.681412 1187.444626,504.041443 1164.178040,486.886032 1147.022629C469.730621 1129.867218,446.464035 1120.227249,422.200790 1120.227249C397.937546 1120.227249,374.670959 1129.867218,357.515549 1147.022629C340.360138 1164.178040,330.720169 1187.444626,330.720169 1211.707870C330.720169 1235.971115,340.360138 1259.237701,357.515549 1276.393112C374.670959 1293.548523,397.937546 1303.188492,422.200790 1303.188492C446.464035 1303.188492,469.730621 1293.548523,486.886032 1276.393112C504.041443 1259.237701,513.681412 1235.971115,513.681412 1211.707870Z" style="stroke:rgb(25.500488%,41.000366%,88.400269%); stroke-width: 2.500000;stroke-linecap: round;stroke-linejoin: round;stroke-miterlimit: 10.000000;fill: none;"></path>
  <path d="M419.164398 1090.888550C419.164398 1066.625305,409.524429 1043.358719,392.369019 1026.203308C375.213608 1009.047897,351.947021 999.407928,327.683777 999.407928C303.420532 999.407928,280.153946 1009.047897,262.998535 1026.203308C245.843124 1043.358719,236.203156 1066.625305,236.203156 1090.888550C236.203156 1115.151794,245.843124 1138.418381,262.998535 1155.573792C280.153946 1172.729202,303.420532 1182.369171,327.683777 1182.369171C351.947021 1182.369171,375.213608 1172.729202,392.369019 1155.573792C409.524429 1138.418381,419.164398 1115.151794,419.164398 1090.888550Z" style="stroke:rgb(25.500488%,41.000366%,88.400269%); stroke-width: 2.500000;stroke-linecap: round;stroke-linejoin: round;stroke-miterlimit: 10.000000;fill: none;"></path>
  <path d="M330.914795 968.693802C330.914795 944.430557,321.274826 921.163971,304.119415 904.008560C286.964005 886.853149,263.697418 877.213181,239.434174 877.213181C215.170929 877.213181,191.904343 886.853149,174.748932 904.008560C157.593521 921.163971,147.953552 944.430557,147.953552 968.693802C147.953552 992.957047,157.593521 1016.223633,174.748932 1033.379044C191.904343 1050.534454,215.170929 1060.174423,239.434174 1060.174423C263.697418 1060.174423,286.964005 1050.534454,304.119415 1033.379044C321.274826 1016.223633,330.914795 992.957047,330.914795 968.693802Z" style="stroke:rgb(25.500488%,41.000366%,88.400269%); stroke-width: 2.500000;stroke-linecap: round;stroke-linejoin: round;stroke-miterlimit: 10.000000;fill: none;"></path>
  <path d="M225.472015 846.330353C225.472015 822.067108,215.832047 798.800522,198.676636 781.645111C181.521225 764.489700,158.254639 754.849731,133.991394 754.849731C109.728149 754.849731,86.461563 764.489700,69.306152 781.645111C52.150742 798.800522,42.510773 822.067108,42.510773 846.330353C42.510773 870.593597,52.150742 893.860184,69.306152 911.015594C86.461563 928.171005,109.728149 937.810974,133.991394 937.810974C158.254639 937.810974,181.521225 928.171005,198.676636 911.015594C215.832047 893.860184,225.472015 870.593597,225.472015 846.330353Z" style="stroke:rgb(25.500488%,41.000366%,88.400269%); stroke-width: 2.500000;stroke-linecap: round;stroke-linejoin: round;stroke-miterlimit: 10.000000;fill: none;"></path>
  <path d="M643.726639 1579.654617C643.726639 1555.391373,634.086670 1532.124786,616.931259 1514.969376C599.775848 1497.813965,576.509262 1488.173996,552.246017 1488.173996C527.982773 1488.173996,504.716187 1497.813965,487.560776 1514.969376C470.405365 1532.124786,460.765396 1555.391373,460.765396 1579.654617C460.765396 1603.917862,470.405365 1627.184448,487.560776 1644.339859C504.716187 1661.495270,527.982773 1671.135239,552.246017 1671.135239C576.509262 1671.135239,599.775848 1661.495270,616.931259 1644.339859C634.086670 1627.184448,643.726639 1603.917862,643.726639 1579.654617Z" style="stroke:rgb(25.500488%,41.000366%,88.400269%); stroke-width: 2.500000;stroke-linecap: round;stroke-linejoin: round;stroke-miterlimit: 10.000000;fill: none;"></path>
  <path d="M547.613586 1475.911697C547.613586 1451.648453,537.973618 1428.381866,520.818207 1411.226456C503.662796 1394.071045,480.396210 1384.431076,456.132965 1384.431076C431.869720 1384.431076,408.603134 1394.071045,391.447723 1411.226456C374.292313 1428.381866,364.652344 1451.648453,364.652344 1475.911697C364.652344 1500.174942,374.292313 1523.441528,391.447723 1540.596939C408.603134 1557.752350,431.869720 1567.392319,456.132965 1567.392319C480.396210 1567.392319,503.662796 1557.752350,520.818207 1540.596939C537.973618 1523.441528,547.613586 1500.174942,547.613586 1475.911697Z" style="stroke:rgb(25.500488%,41.000366%,88.400269%); stroke-width: 2.500000;stroke-linecap: round;stroke-linejoin: round;stroke-miterlimit: 10.000000;fill: none;"></path>
  <path d="M451.409698 1359.166855C451.409698 1334.903610,441.769730 1311.637024,424.614319 1294.481613C407.458908 1277.326202,384.192322 1267.686234,359.929077 1267.686234C335.665833 1267.686234,312.399246 1277.326202,295.243835 1294.481613C278.088425 1311.637024,268.448456 1334.903610,268.448456 1359.166855C268.448456 1383.430099,278.088425 1406.696686,295.243835 1423.852097C312.399246 1441.007507,335.665833 1450.647476,359.929077 1450.647476C384.192322 1450.647476,407.458908 1441.007507,424.614319 1423.852097C441.769730 1406.696686,451.409698 1383.430099,451.409698 1359.166855Z" style="stroke:rgb(25.500488%,41.000366%,88.400269%); stroke-width: 2.500000;stroke-linecap: round;stroke-linejoin: round;stroke-miterlimit: 10.000000;fill: none;"></path>
  <path d="M356.062241 1239.606216C356.062241 1215.342972,346.422272 1192.076385,329.266861 1174.920975C312.111450 1157.765564,288.844864 1148.125595,264.581619 1148.125595C240.318375 1148.125595,217.051788 1157.765564,199.896378 1174.920975C182.740967 1192.076385,173.100998 1215.342972,173.100998 1239.606216C173.100998 1263.869461,182.740967 1287.136047,199.896378 1304.291458C217.051788 1321.446869,240.318375 1331.086838,264.581619 1331.086838C288.844864 1331.086838,312.111450 1321.446869,329.266861 1304.291458C346.422272 1287.136047,356.062241 1263.869461,356.062241 1239.606216Z" style="stroke:rgb(25.500488%,41.000366%,88.400269%); stroke-width: 2.500000;stroke-linecap: round;stroke-linejoin: round;stroke-miterlimit: 10.000000;fill: none;"></path>
  <path d="M263.647339 1119.824982C263.647339 1095.561737,254.007370 1072.295151,236.851959 1055.139740C219.696548 1037.984329,196.429962 1028.344360,172.166718 1028.344360C147.903473 1028.344360,124.636887 1037.984329,107.481476 1055.139740C90.326065 1072.295151,80.686096 1095.561737,80.686096 1119.824982C80.686096 1144.088226,90.326065 1167.354813,107.481476 1184.510223C124.636887 1201.665634,147.903473 1211.305603,172.166718 1211.305603C196.429962 1211.305603,219.696548 1201.665634,236.851959 1184.510223C254.007370 1167.354813,263.647339 1144.088226,263.647339 1119.824982Z" style="stroke:rgb(25.500488%,41.000366%,88.400269%); stroke-width: 2.500000;stroke-linecap: round;stroke-linejoin: round;stroke-miterlimit: 10.000000;fill: none;"></path>
  <path d="M183.896988 1003.041199C183.896988 978.777954,174.257019 955.511368,157.101608 938.355957C139.946198 921.200546,116.679611 911.560577,92.416367 911.560577C68.153122 911.560577,44.886536 921.200546,27.731125 938.355957C10.575714 955.511368,0.935745 978.777954,0.935745 1003.041199C0.935745 1027.304443,10.575714 1050.571030,27.731125 1067.726440C44.886536 1084.881851,68.153122 1094.521820,92.416367 1094.521820C116.679611 1094.521820,139.946198 1084.881851,157.101608 1067.726440C174.257019 1050.571030,183.896988 1027.304443,183.896988 1003.041199Z" style="stroke:rgb(25.500488%,41.000366%,88.400269%); stroke-width: 2.500000;stroke-linecap: round;stroke-linejoin: round;stroke-miterlimit: 10.000000;fill: none;"></path>
</svg>
