<?xml version="1.0"?>
<!-- Created by MetaPost 2.00 on 2022.03.02:1201 -->
<svg version="1.1" xmlns="http://www.w3.org/2000/svg" xmlns:xlink="http://www.w3.org/1999/xlink" width="1512.397461" height="1323.207748" viewBox="0 0 1512.397461 1323.207748">
<!-- Original BoundingBox: -757.087585 -471.564224 755.309875 851.643524 -->
  <path d="M757.000000 0.606476L20.535538 1276.196762L1493.464462 1276.196762L757.000000 0.606476Z" style="fill: rgb(100.000000%,100.000000%,100.000000%);stroke: none;"></path>
  <path d="M757.000000 0.606476L20.535538 1276.196762" style="stroke:rgb(0.000000%,0.000000%,0.000000%); stroke-width: 2.500000;stroke-linecap: round;stroke-linejoin: round;stroke-miterlimit: 10.000000;fill: none;"></path>
  <path d="M20.535538 1276.196762L1493.464462 1276.196762" style="stroke:rgb(0.000000%,0.000000%,0.000000%); stroke-width: 2.500000;stroke-linecap: round;stroke-linejoin: round;stroke-miterlimit: 10.000000;fill: none;"></path>
  <path d="M1493.464462 1276.196762L757.000000 0.606476" style="stroke:rgb(0.000000%,0.000000%,0.000000%); stroke-width: 2.500000;stroke-linecap: round;stroke-linejoin: round;stroke-miterlimit: 10.000000;fill: none;"></path>
  <path d="M368.979401 1211.057373C368.979401 1183.837799,358.164856 1157.736313,338.919159 1138.490631C319.673477 1119.244934,293.571991 1108.430389,266.352417 1108.430389C239.132843 1108.430389,213.031357 1119.244934,193.785675 1138.490631C174.539978 1157.736313,163.725433 1183.837799,163.725433 1211.057373C163.725433 1238.276947,174.539978 1264.378433,193.785675 1283.624115C213.031357 1302.869812,239.132843 1313.684357,266.352417 1313.684357C293.571991 1313.684357,319.673477 1302.869812,338.919159 1283.624115C358.164856 1264.378433,368.979401 1238.276947,368.979401 1211.057373Z" style="stroke:rgb(25.500488%,41.000366%,88.400269%); stroke-width: 2.500000;stroke-linecap: round;stroke-linejoin: round;stroke-miterlimit: 10.000000;fill: none;"></path>
  <path d="M461.095856 1046.885330C461.095856 1019.665756,450.281311 993.564270,431.035614 974.318588C411.789932 955.072891,385.688446 944.258347,358.468872 944.258347C331.249298 944.258347,305.147812 955.072891,285.902130 974.318588C266.656433 993.564270,255.841888 1019.665756,255.841888 1046.885330C255.841888 1074.104904,266.656433 1100.206390,285.902130 1119.452072C305.147812 1138.697769,331.249298 1149.512314,358.468872 1149.512314C385.688446 1149.512314,411.789932 1138.697769,431.035614 1119.452072C450.281311 1100.206390,461.095856 1074.104904,461.095856 1046.885330Z" style="stroke:rgb(25.500488%,41.000366%,88.400269%); stroke-width: 2.500000;stroke-linecap: round;stroke-linejoin: round;stroke-miterlimit: 10.000000;fill: none;"></path>
  <path d="M552.745163 878.301453C552.745163 851.081879,541.930618 824.980392,522.684921 805.734711C503.439240 786.489014,477.337753 775.674469,450.118179 775.674469C422.898605 775.674469,396.797119 786.489014,377.551437 805.734711C358.305740 824.980392,347.491196 851.081879,347.491196 878.301453C347.491196 905.521027,358.305740 931.622513,377.551437 950.868195C396.797119 970.113892,422.898605 980.928436,450.118179 980.928436C477.337753 980.928436,503.439240 970.113892,522.684921 950.868195C541.930618 931.622513,552.745163 905.521027,552.745163 878.301453Z" style="stroke:rgb(25.500488%,41.000366%,88.400269%); stroke-width: 2.500000;stroke-linecap: round;stroke-linejoin: round;stroke-miterlimit: 10.000000;fill: none;"></path>
  <path d="M612.019424 1052.062744C612.019424 1024.843170,601.204880 998.741684,581.959183 979.496002C562.713501 960.250305,536.612015 949.435760,509.392441 949.435760C482.172867 949.435760,456.071381 960.250305,436.825699 979.496002C417.580002 998.741684,406.765457 1024.843170,406.765457 1052.062744C406.765457 1079.282318,417.580002 1105.383804,436.825699 1124.629486C456.071381 1143.875183,482.172867 1154.689728,509.392441 1154.689728C536.612015 1154.689728,562.713501 1143.875183,581.959183 1124.629486C601.204880 1105.383804,612.019424 1079.282318,612.019424 1052.062744Z" style="stroke:rgb(25.500488%,41.000366%,88.400269%); stroke-width: 2.500000;stroke-linecap: round;stroke-linejoin: round;stroke-miterlimit: 10.000000;fill: none;"></path>
  <path d="M644.653992 710.976242C644.653992 683.756668,633.839447 657.655182,614.593750 638.409500C595.348068 619.163803,569.246582 608.349258,542.027008 608.349258C514.807434 608.349258,488.705948 619.163803,469.460266 638.409500C450.214569 657.655182,439.400024 683.756668,439.400024 710.976242C439.400024 738.195816,450.214569 764.297302,469.460266 783.542984C488.705948 802.788681,514.807434 813.603226,542.027008 813.603226C569.246582 813.603226,595.348068 802.788681,614.593750 783.542984C633.839447 764.297302,644.653992 738.195816,644.653992 710.976242Z" style="stroke:rgb(25.500488%,41.000366%,88.400269%); stroke-width: 2.500000;stroke-linecap: round;stroke-linejoin: round;stroke-miterlimit: 10.000000;fill: none;"></path>
  <path d="M697.128845 891.913254C697.128845 864.693680,686.314301 838.592194,667.068604 819.346512C647.822922 800.100815,621.721436 789.286270,594.501862 789.286270C567.282288 789.286270,541.180801 800.100815,521.935120 819.346512C502.689423 838.592194,491.874878 864.693680,491.874878 891.913254C491.874878 919.132828,502.689423 945.234314,521.935120 964.479996C541.180801 983.725693,567.282288 994.540237,594.501862 994.540237C621.721436 994.540237,647.822922 983.725693,667.068604 964.479996C686.314301 945.234314,697.128845 919.132828,697.128845 891.913254Z" style="stroke:rgb(25.500488%,41.000366%,88.400269%); stroke-width: 2.500000;stroke-linecap: round;stroke-linejoin: round;stroke-miterlimit: 10.000000;fill: none;"></path>
  <path d="M778.773682 1056.604324C778.773682 1029.384750,767.959137 1003.283264,748.713440 984.037582C729.467758 964.791885,703.366272 953.977341,676.146698 953.977341C648.927124 953.977341,622.825638 964.791885,603.579956 984.037582C584.334259 1003.283264,573.519714 1029.384750,573.519714 1056.604324C573.519714 1083.823898,584.334259 1109.925385,603.579956 1129.171066C622.825638 1148.416763,648.927124 1159.231308,676.146698 1159.231308C703.366272 1159.231308,729.467758 1148.416763,748.713440 1129.171066C767.959137 1109.925385,778.773682 1083.823898,778.773682 1056.604324Z" style="stroke:rgb(25.500488%,41.000366%,88.400269%); stroke-width: 2.500000;stroke-linecap: round;stroke-linejoin: round;stroke-miterlimit: 10.000000;fill: none;"></path>
  <path d="M864.077744 1218.661285C864.077744 1191.441711,853.263199 1165.340225,834.017502 1146.094543C814.771820 1126.848846,788.670334 1116.034302,761.450760 1116.034302C734.231186 1116.034302,708.129700 1126.848846,688.884018 1146.094543C669.638321 1165.340225,658.823776 1191.441711,658.823776 1218.661285C658.823776 1245.880859,669.638321 1271.982346,688.884018 1291.228027C708.129700 1310.473724,734.231186 1321.288269,761.450760 1321.288269C788.670334 1321.288269,814.771820 1310.473724,834.017502 1291.228027C853.263199 1271.982346,864.077744 1245.880859,864.077744 1218.661285Z" style="stroke:rgb(25.500488%,41.000366%,88.400269%); stroke-width: 2.500000;stroke-linecap: round;stroke-linejoin: round;stroke-miterlimit: 10.000000;fill: none;"></path>
  <path d="M595.410172 565.632355C595.410172 538.412781,584.595627 512.311295,565.349930 493.065613C546.104248 473.819916,520.002762 463.005371,492.783188 463.005371C465.563614 463.005371,439.462128 473.819916,420.216446 493.065613C400.970749 512.311295,390.156204 538.412781,390.156204 565.632355C390.156204 592.851929,400.970749 618.953415,420.216446 638.199097C439.462128 657.444794,465.563614 668.259338,492.783188 668.259338C520.002762 668.259338,546.104248 657.444794,565.349930 638.199097C584.595627 618.953415,595.410172 592.851929,595.410172 565.632355Z" style="stroke:rgb(25.500488%,41.000366%,88.400269%); stroke-width: 2.500000;stroke-linecap: round;stroke-linejoin: round;stroke-miterlimit: 10.000000;fill: none;"></path>
  <path d="M778.903442 749.164551C778.903442 721.944977,768.088898 695.843491,748.843201 676.597809C729.597519 657.352112,703.496033 646.537567,676.276459 646.537567C649.056885 646.537567,622.955399 657.352112,603.709717 676.597809C584.464020 695.843491,573.649475 721.944977,573.649475 749.164551C573.649475 776.384125,584.464020 802.485611,603.709717 821.731293C622.955399 840.976990,649.056885 851.791534,676.276459 851.791534C703.496033 851.791534,729.597519 840.976990,748.843201 821.731293C768.088898 802.485611,778.903442 776.384125,778.903442 749.164551Z" style="stroke:rgb(25.500488%,41.000366%,88.400269%); stroke-width: 2.500000;stroke-linecap: round;stroke-linejoin: round;stroke-miterlimit: 10.000000;fill: none;"></path>
  <path d="M858.121765 888.734131C858.121765 861.514557,847.307220 835.413071,828.061523 816.167389C808.815842 796.921692,782.714355 786.107147,755.494781 786.107147C728.275208 786.107147,702.173721 796.921692,682.928040 816.167389C663.682343 835.413071,652.867798 861.514557,652.867798 888.734131C652.867798 915.953705,663.682343 942.055191,682.928040 961.300873C702.173721 980.546570,728.275208 991.361115,755.494781 991.361115C782.714355 991.361115,808.815842 980.546570,828.061523 961.300873C847.307220 942.055191,858.121765 915.953705,858.121765 888.734131Z" style="stroke:rgb(25.500488%,41.000366%,88.400269%); stroke-width: 2.500000;stroke-linecap: round;stroke-linejoin: round;stroke-miterlimit: 10.000000;fill: none;"></path>
  <path d="M941.674072 1050.817047C941.674072 1023.597473,930.859528 997.495987,911.613831 978.250305C892.368149 959.004608,866.266663 948.190063,839.047089 948.190063C811.827515 948.190063,785.726028 959.004608,766.480347 978.250305C747.234650 997.495987,736.420105 1023.597473,736.420105 1050.817047C736.420105 1078.036621,747.234650 1104.138107,766.480347 1123.383789C785.726028 1142.629486,811.827515 1153.444031,839.047089 1153.444031C866.266663 1153.444031,892.368149 1142.629486,911.613831 1123.383789C930.859528 1104.138107,941.674072 1078.036621,941.674072 1050.817047Z" style="stroke:rgb(25.500488%,41.000366%,88.400269%); stroke-width: 2.500000;stroke-linecap: round;stroke-linejoin: round;stroke-miterlimit: 10.000000;fill: none;"></path>
  <path d="M682.725510 413.839386C682.725510 386.619812,671.910965 360.518326,652.665268 341.272644C633.419586 322.026947,607.318100 311.212402,580.098526 311.212402C552.878952 311.212402,526.777466 322.026947,507.531784 341.272644C488.286087 360.518326,477.471542 386.619812,477.471542 413.839386C477.471542 441.058960,488.286087 467.160446,507.531784 486.406128C526.777466 505.651825,552.878952 516.466370,580.098526 516.466370C607.318100 516.466370,633.419586 505.651825,652.665268 486.406128C671.910965 467.160446,682.725510 441.058960,682.725510 413.839386Z" style="stroke:rgb(25.500488%,41.000366%,88.400269%); stroke-width: 2.500000;stroke-linecap: round;stroke-linejoin: round;stroke-miterlimit: 10.000000;fill: none;"></path>
  <path d="M774.673279 567.228394C774.673279 540.008820,763.858734 513.907333,744.613037 494.661652C725.367355 475.415955,699.265869 464.601410,672.046295 464.601410C644.826721 464.601410,618.725235 475.415955,599.479553 494.661652C580.233856 513.907333,569.419312 540.008820,569.419312 567.228394C569.419312 594.447968,580.233856 620.549454,599.479553 639.795135C618.725235 659.040833,644.826721 669.855377,672.046295 669.855377C699.265869 669.855377,725.367355 659.040833,744.613037 639.795135C763.858734 620.549454,774.673279 594.447968,774.673279 567.228394Z" style="stroke:rgb(25.500488%,41.000366%,88.400269%); stroke-width: 2.500000;stroke-linecap: round;stroke-linejoin: round;stroke-miterlimit: 10.000000;fill: none;"></path>
  <path d="M905.432175 710.561020C905.432175 683.341446,894.617630 657.239960,875.371933 637.994278C856.126251 618.748581,830.024765 607.934036,802.805191 607.934036C775.585617 607.934036,749.484131 618.748581,730.238449 637.994278C710.992752 657.239960,700.178207 683.341446,700.178207 710.561020C700.178207 737.780594,710.992752 763.882080,730.238449 783.127762C749.484131 802.373459,775.585617 813.188004,802.805191 813.188004C830.024765 813.188004,856.126251 802.373459,875.371933 783.127762C894.617630 763.882080,905.432175 737.780594,905.432175 710.561020Z" style="stroke:rgb(25.500488%,41.000366%,88.400269%); stroke-width: 2.500000;stroke-linecap: round;stroke-linejoin: round;stroke-miterlimit: 10.000000;fill: none;"></path>
  <path d="M1003.465668 877.860275C1003.465668 850.640701,992.651123 824.539215,973.405426 805.293533C954.159744 786.047836,928.058258 775.233292,900.838684 775.233292C873.619110 775.233292,847.517624 786.047836,828.271942 805.293533C809.026245 824.539215,798.211700 850.640701,798.211700 877.860275C798.211700 905.079849,809.026245 931.181335,828.271942 950.427017C847.517624 969.672714,873.619110 980.487259,900.838684 980.487259C928.058258 980.487259,954.159744 969.672714,973.405426 950.427017C992.651123 931.181335,1003.465668 905.079849,1003.465668 877.860275Z" style="stroke:rgb(25.500488%,41.000366%,88.400269%); stroke-width: 2.500000;stroke-linecap: round;stroke-linejoin: round;stroke-miterlimit: 10.000000;fill: none;"></path>
  <path d="M1098.177322 1040.903397C1098.177322 1013.683823,1087.362778 987.582336,1068.117081 968.336655C1048.871399 949.090958,1022.769913 938.276413,995.550339 938.276413C968.330765 938.276413,942.229279 949.090958,922.983597 968.336655C903.737900 987.582336,892.923355 1013.683823,892.923355 1040.903397C892.923355 1068.122971,903.737900 1094.224457,922.983597 1113.470139C942.229279 1132.715836,968.330765 1143.530380,995.550339 1143.530380C1022.769913 1143.530380,1048.871399 1132.715836,1068.117081 1113.470139C1087.362778 1094.224457,1098.177322 1068.122971,1098.177322 1040.903397Z" style="stroke:rgb(25.500488%,41.000366%,88.400269%); stroke-width: 2.500000;stroke-linecap: round;stroke-linejoin: round;stroke-miterlimit: 10.000000;fill: none;"></path>
  <path d="M767.886841 257.712448C767.886841 230.492874,757.072296 204.391388,737.826599 185.145706C718.580917 165.900009,692.479431 155.085464,665.259857 155.085464C638.040283 155.085464,611.938797 165.900009,592.693115 185.145706C573.447418 204.391388,562.632874 230.492874,562.632874 257.712448C562.632874 284.932022,573.447418 311.033508,592.693115 330.279190C611.938797 349.524887,638.040283 360.339432,665.259857 360.339432C692.479431 360.339432,718.580917 349.524887,737.826599 330.279190C757.072296 311.033508,767.886841 284.932022,767.886841 257.712448Z" style="stroke:rgb(25.500488%,41.000366%,88.400269%); stroke-width: 2.500000;stroke-linecap: round;stroke-linejoin: round;stroke-miterlimit: 10.000000;fill: none;"></path>
  <path d="M859.484253 411.114441C859.484253 383.894867,848.669708 357.793381,829.424011 338.547699C810.178329 319.302002,784.076843 308.487457,756.857269 308.487457C729.637695 308.487457,703.536209 319.302002,684.290527 338.547699C665.044830 357.793381,654.230286 383.894867,654.230286 411.114441C654.230286 438.334015,665.044830 464.435501,684.290527 483.681183C703.536209 502.926880,729.637695 513.741425,756.857269 513.741425C784.076843 513.741425,810.178329 502.926880,829.424011 483.681183C848.669708 464.435501,859.484253 438.334015,859.484253 411.114441Z" style="stroke:rgb(25.500488%,41.000366%,88.400269%); stroke-width: 2.500000;stroke-linecap: round;stroke-linejoin: round;stroke-miterlimit: 10.000000;fill: none;"></path>
  <path d="M952.379257 562.790604C952.379257 535.571030,941.564713 509.469543,922.319016 490.223862C903.073334 470.978165,876.971848 460.163620,849.752274 460.163620C822.532700 460.163620,796.431213 470.978165,777.185532 490.223862C757.939835 509.469543,747.125290 535.571030,747.125290 562.790604C747.125290 590.010178,757.939835 616.111664,777.185532 635.357346C796.431213 654.603043,822.532700 665.417587,849.752274 665.417587C876.971848 665.417587,903.073334 654.603043,922.319016 635.357346C941.564713 616.111664,952.379257 590.010178,952.379257 562.790604Z" style="stroke:rgb(25.500488%,41.000366%,88.400269%); stroke-width: 2.500000;stroke-linecap: round;stroke-linejoin: round;stroke-miterlimit: 10.000000;fill: none;"></path>
  <path d="M1065.568695 715.582718C1065.568695 688.363144,1054.754150 662.261658,1035.508453 643.015976C1016.262772 623.770279,990.161285 612.955734,962.941711 612.955734C935.722137 612.955734,909.620651 623.770279,890.374969 643.015976C871.129272 662.261658,860.314728 688.363144,860.314728 715.582718C860.314728 742.802292,871.129272 768.903778,890.374969 788.149460C909.620651 807.395157,935.722137 818.209702,962.941711 818.209702C990.161285 818.209702,1016.262772 807.395157,1035.508453 788.149460C1054.754150 768.903778,1065.568695 742.802292,1065.568695 715.582718Z" style="stroke:rgb(25.500488%,41.000366%,88.400269%); stroke-width: 2.500000;stroke-linecap: round;stroke-linejoin: round;stroke-miterlimit: 10.000000;fill: none;"></path>
  <path d="M1167.975082 877.406113C1167.975082 850.186539,1157.160538 824.085052,1137.914841 804.839371C1118.669159 785.593674,1092.567673 774.779129,1065.348099 774.779129C1038.128525 774.779129,1012.027039 785.593674,992.781357 804.839371C973.535660 824.085052,962.721115 850.186539,962.721115 877.406113C962.721115 904.625687,973.535660 930.727173,992.781357 949.972855C1012.027039 969.218552,1038.128525 980.033096,1065.348099 980.033096C1092.567673 980.033096,1118.669159 969.218552,1137.914841 949.972855C1157.160538 930.727173,1167.975082 904.625687,1167.975082 877.406113Z" style="stroke:rgb(25.500488%,41.000366%,88.400269%); stroke-width: 2.500000;stroke-linecap: round;stroke-linejoin: round;stroke-miterlimit: 10.000000;fill: none;"></path>
  <path d="M1259.481659 1044.562622C1259.481659 1017.343048,1248.667114 991.241562,1229.421417 971.995880C1210.175735 952.750183,1184.074249 941.935638,1156.854675 941.935638C1129.635101 941.935638,1103.533615 952.750183,1084.287933 971.995880C1065.042236 991.241562,1054.227692 1017.343048,1054.227692 1044.562622C1054.227692 1071.782196,1065.042236 1097.883682,1084.287933 1117.129364C1103.533615 1136.375061,1129.635101 1147.189606,1156.854675 1147.189606C1184.074249 1147.189606,1210.175735 1136.375061,1229.421417 1117.129364C1248.667114 1097.883682,1259.481659 1071.782196,1259.481659 1044.562622Z" style="stroke:rgb(25.500488%,41.000366%,88.400269%); stroke-width: 2.500000;stroke-linecap: round;stroke-linejoin: round;stroke-miterlimit: 10.000000;fill: none;"></path>
  <path d="M1343.955261 1214.586838C1343.955261 1187.367264,1333.140717 1161.265778,1313.895020 1142.020096C1294.649338 1122.774399,1268.547852 1111.959854,1241.328278 1111.959854C1214.108704 1111.959854,1188.007217 1122.774399,1168.761536 1142.020096C1149.515839 1161.265778,1138.701294 1187.367264,1138.701294 1214.586838C1138.701294 1241.806412,1149.515839 1267.907898,1168.761536 1287.153580C1188.007217 1306.399277,1214.108704 1317.213821,1241.328278 1317.213821C1268.547852 1317.213821,1294.649338 1306.399277,1313.895020 1287.153580C1333.140717 1267.907898,1343.955261 1241.806412,1343.955261 1214.586838Z" style="stroke:rgb(25.500488%,41.000366%,88.400269%); stroke-width: 2.500000;stroke-linecap: round;stroke-linejoin: round;stroke-miterlimit: 10.000000;fill: none;"></path>
  <path d="M1038.176407 408.324600C1038.176407 381.105026,1027.361862 355.003540,1008.116165 335.757858C988.870483 316.512161,962.768997 305.697617,935.549423 305.697617C908.329849 305.697617,882.228363 316.512161,862.982681 335.757858C843.736984 355.003540,832.922440 381.105026,832.922440 408.324600C832.922440 435.544174,843.736984 461.645660,862.982681 480.891342C882.228363 500.137039,908.329849 510.951584,935.549423 510.951584C962.768997 510.951584,988.870483 500.137039,1008.116165 480.891342C1027.361862 461.645660,1038.176407 435.544174,1038.176407 408.324600Z" style="stroke:rgb(25.500488%,41.000366%,88.400269%); stroke-width: 2.500000;stroke-linecap: round;stroke-linejoin: round;stroke-miterlimit: 10.000000;fill: none;"></path>
  <path d="M859.004135 103.259415C859.004135 76.039841,848.189590 49.938354,828.943893 30.692673C809.698212 11.446976,783.596725 0.632431,756.377151 0.632431C729.157578 0.632431,703.056091 11.446976,683.810410 30.692673C664.564713 49.938354,653.750168 76.039841,653.750168 103.259415C653.750168 130.478989,664.564713 156.580475,683.810410 175.826157C703.056091 195.071854,729.157578 205.886398,756.377151 205.886398C783.596725 205.886398,809.698212 195.071854,828.943893 175.826157C848.189590 156.580475,859.004135 130.478989,859.004135 103.259415Z" style="stroke:rgb(25.500488%,41.000366%,88.400269%); stroke-width: 2.500000;stroke-linecap: round;stroke-linejoin: round;stroke-miterlimit: 10.000000;fill: none;"></path>
  <path d="M945.631744 256.648422C945.631744 229.428848,934.817200 203.327362,915.571503 184.081680C896.325821 164.835983,870.224335 154.021439,843.004761 154.021439C815.785187 154.021439,789.683701 164.835983,770.438019 184.081680C751.192322 203.327362,740.377777 229.428848,740.377777 256.648422C740.377777 283.867996,751.192322 309.969482,770.438019 329.215164C789.683701 348.460861,815.785187 359.275406,843.004761 359.275406C870.224335 359.275406,896.325821 348.460861,915.571503 329.215164C934.817200 309.969482,945.631744 283.867996,945.631744 256.648422Z" style="stroke:rgb(25.500488%,41.000366%,88.400269%); stroke-width: 2.500000;stroke-linecap: round;stroke-linejoin: round;stroke-miterlimit: 10.000000;fill: none;"></path>
  <path d="M1184.701126 1208.527054C1184.701126 1181.307480,1173.886581 1155.205994,1154.640884 1135.960312C1135.395203 1116.714615,1109.293716 1105.900070,1082.074142 1105.900070C1054.854568 1105.900070,1028.753082 1116.714615,1009.507401 1135.960312C990.261703 1155.205994,979.447159 1181.307480,979.447159 1208.527054C979.447159 1235.746628,990.261703 1261.848114,1009.507401 1281.093796C1028.753082 1300.339493,1054.854568 1311.154037,1082.074142 1311.154037C1109.293716 1311.154037,1135.395203 1300.339493,1154.640884 1281.093796C1173.886581 1261.848114,1184.701126 1235.746628,1184.701126 1208.527054Z" style="stroke:rgb(25.500488%,41.000366%,88.400269%); stroke-width: 2.500000;stroke-linecap: round;stroke-linejoin: round;stroke-miterlimit: 10.000000;fill: none;"></path>
  <path d="M1332.186050 885.178726C1332.186050 857.959152,1321.371506 831.857666,1302.125809 812.611984C1282.880127 793.366287,1256.778641 782.551743,1229.559067 782.551743C1202.339493 782.551743,1176.238007 793.366287,1156.992325 812.611984C1137.746628 831.857666,1126.932083 857.959152,1126.932083 885.178726C1126.932083 912.398300,1137.746628 938.499786,1156.992325 957.745468C1176.238007 976.991165,1202.339493 987.805710,1229.559067 987.805710C1256.778641 987.805710,1282.880127 976.991165,1302.125809 957.745468C1321.371506 938.499786,1332.186050 912.398300,1332.186050 885.178726Z" style="stroke:rgb(25.500488%,41.000366%,88.400269%); stroke-width: 2.500000;stroke-linecap: round;stroke-linejoin: round;stroke-miterlimit: 10.000000;fill: none;"></path>
  <path d="M1028.314667 1210.953552C1028.314667 1183.733978,1017.500122 1157.632492,998.254425 1138.386810C979.008743 1119.141113,952.907257 1108.326569,925.687683 1108.326569C898.468109 1108.326569,872.366623 1119.141113,853.120941 1138.386810C833.875244 1157.632492,823.060699 1183.733978,823.060699 1210.953552C823.060699 1238.173126,833.875244 1264.274612,853.120941 1283.520294C872.366623 1302.765991,898.468109 1313.580536,925.687683 1313.580536C952.907257 1313.580536,979.008743 1302.765991,998.254425 1283.520294C1017.500122 1264.274612,1028.314667 1238.173126,1028.314667 1210.953552Z" style="stroke:rgb(25.500488%,41.000366%,88.400269%); stroke-width: 2.500000;stroke-linecap: round;stroke-linejoin: round;stroke-miterlimit: 10.000000;fill: none;"></path>
  <path d="M530.024231 1214.132675C530.024231 1186.913101,519.209686 1160.811615,499.963989 1141.565933C480.718307 1122.320236,454.616821 1111.505692,427.397247 1111.505692C400.177673 1111.505692,374.076187 1122.320236,354.830505 1141.565933C335.584808 1160.811615,324.770264 1186.913101,324.770264 1214.132675C324.770264 1241.352249,335.584808 1267.453735,354.830505 1286.699417C374.076187 1305.945114,400.177673 1316.759659,427.397247 1316.759659C454.616821 1316.759659,480.718307 1305.945114,499.963989 1286.699417C519.209686 1267.453735,530.024231 1241.352249,530.024231 1214.132675Z" style="stroke:rgb(25.500488%,41.000366%,88.400269%); stroke-width: 2.500000;stroke-linecap: round;stroke-linejoin: round;stroke-miterlimit: 10.000000;fill: none;"></path>
  <path d="M296.119293 1048.922546C296.119293 1021.702972,285.304749 995.601486,266.059052 976.355804C246.813370 957.110107,220.711884 946.295563,193.492310 946.295563C166.272736 946.295563,140.171249 957.110107,120.925568 976.355804C101.679871 995.601486,90.865326 1021.702972,90.865326 1048.922546C90.865326 1076.142120,101.679871 1102.243607,120.925568 1121.489288C140.171249 1140.734985,166.272736 1151.549530,193.492310 1151.549530C220.711884 1151.549530,246.813370 1140.734985,266.059052 1121.489288C285.304749 1102.243607,296.119293 1076.142120,296.119293 1048.922546Z" style="stroke:rgb(25.500488%,41.000366%,88.400269%); stroke-width: 2.500000;stroke-linecap: round;stroke-linejoin: round;stroke-miterlimit: 10.000000;fill: none;"></path>
  <path d="M695.428986 1216.727859C695.428986 1189.508286,684.614441 1163.406799,665.368744 1144.161118C646.123062 1124.915421,620.021576 1114.100876,592.802002 1114.100876C565.582428 1114.100876,539.480942 1124.915421,520.235260 1144.161118C500.989563 1163.406799,490.175018 1189.508286,490.175018 1216.727859C490.175018 1243.947433,500.989563 1270.048920,520.235260 1289.294601C539.480942 1308.540298,565.582428 1319.354843,592.802002 1319.354843C620.021576 1319.354843,646.123062 1308.540298,665.368744 1289.294601C684.614441 1270.048920,695.428986 1243.947433,695.428986 1216.727859Z" style="stroke:rgb(25.500488%,41.000366%,88.400269%); stroke-width: 2.500000;stroke-linecap: round;stroke-linejoin: round;stroke-miterlimit: 10.000000;fill: none;"></path>
  <path d="M1511.059875 1218.687241C1511.059875 1191.467667,1500.245331 1165.366180,1480.999634 1146.120499C1461.753952 1126.874802,1435.652466 1116.060257,1408.432892 1116.060257C1381.213318 1116.060257,1355.111832 1126.874802,1335.866150 1146.120499C1316.620453 1165.366180,1305.805908 1191.467667,1305.805908 1218.687241C1305.805908 1245.906815,1316.620453 1272.008301,1335.866150 1291.253983C1355.111832 1310.499680,1381.213318 1321.314224,1408.432892 1321.314224C1435.652466 1321.314224,1461.753952 1310.499680,1480.999634 1291.253983C1500.245331 1272.008301,1511.059875 1245.906815,1511.059875 1218.687241Z" style="stroke:rgb(25.500488%,41.000366%,88.400269%); stroke-width: 2.500000;stroke-linecap: round;stroke-linejoin: round;stroke-miterlimit: 10.000000;fill: none;"></path>
  <path d="M1128.605972 564.308792C1128.605972 537.089218,1117.791428 510.987732,1098.545731 491.742050C1079.300049 472.496353,1053.198563 461.681808,1025.978989 461.681808C998.759415 461.681808,972.657928 472.496353,953.412247 491.742050C934.166550 510.987732,923.352005 537.089218,923.352005 564.308792C923.352005 591.528366,934.166550 617.629852,953.412247 636.875534C972.657928 656.121231,998.759415 666.935776,1025.978989 666.935776C1053.198563 666.935776,1079.300049 656.121231,1098.545731 636.875534C1117.791428 617.629852,1128.605972 591.528366,1128.605972 564.308792Z" style="stroke:rgb(25.500488%,41.000366%,88.400269%); stroke-width: 2.500000;stroke-linecap: round;stroke-linejoin: round;stroke-miterlimit: 10.000000;fill: none;"></path>
  <path d="M206.416382 1216.143951C206.416382 1188.924377,195.601837 1162.822891,176.356140 1143.577209C157.110458 1124.331512,131.008972 1113.516968,103.789398 1113.516968C76.569824 1113.516968,50.468338 1124.331512,31.222656 1143.577209C11.976959 1162.822891,1.162415 1188.924377,1.162415 1216.143951C1.162415 1243.363525,11.976959 1269.465012,31.222656 1288.710693C50.468338 1307.956390,76.569824 1318.770935,103.789398 1318.770935C131.008972 1318.770935,157.110458 1307.956390,176.356140 1288.710693C195.601837 1269.465012,206.416382 1243.363525,206.416382 1216.143951Z" style="stroke:rgb(25.500488%,41.000366%,88.400269%); stroke-width: 2.500000;stroke-linecap: round;stroke-linejoin: round;stroke-miterlimit: 10.000000;fill: none;"></path>
  <path d="M1421.681351 1054.722809C1421.681351 1027.503235,1410.866806 1001.401749,1391.621109 982.156067C1372.375427 962.910370,1346.273941 952.095825,1319.054367 952.095825C1291.834793 952.095825,1265.733307 962.910370,1246.487625 982.156067C1227.241928 1001.401749,1216.427383 1027.503235,1216.427383 1054.722809C1216.427383 1081.942383,1227.241928 1108.043869,1246.487625 1127.289551C1265.733307 1146.535248,1291.834793 1157.349792,1319.054367 1157.349792C1346.273941 1157.349792,1372.375427 1146.535248,1391.621109 1127.289551C1410.866806 1108.043869,1421.681351 1081.942383,1421.681351 1054.722809Z" style="stroke:rgb(25.500488%,41.000366%,88.400269%); stroke-width: 2.500000;stroke-linecap: round;stroke-linejoin: round;stroke-miterlimit: 10.000000;fill: none;"></path>
  <path d="M1233.010681 719.228973C1233.010681 692.009399,1222.196136 665.907913,1202.950439 646.662231C1183.704758 627.416534,1157.603271 616.601990,1130.383698 616.601990C1103.164124 616.601990,1077.062637 627.416534,1057.816956 646.662231C1038.571259 665.907913,1027.756714 692.009399,1027.756714 719.228973C1027.756714 746.448547,1038.571259 772.550034,1057.816956 791.795715C1077.062637 811.041412,1103.164124 821.855957,1130.383698 821.855957C1157.603271 821.855957,1183.704758 811.041412,1202.950439 791.795715C1222.196136 772.550034,1233.010681 746.448547,1233.010681 719.228973Z" style="stroke:rgb(25.500488%,41.000366%,88.400269%); stroke-width: 2.500000;stroke-linecap: round;stroke-linejoin: round;stroke-miterlimit: 10.000000;fill: none;"></path>
  <path d="M483.557266 714.869049C483.557266 687.649475,472.742722 661.547989,453.497025 642.302307C434.251343 623.056610,408.149857 612.242065,380.930283 612.242065C353.710709 612.242065,327.609222 623.056610,308.363541 642.302307C289.117844 661.547989,278.303299 687.649475,278.303299 714.869049C278.303299 742.088623,289.117844 768.190109,308.363541 787.435791C327.609222 806.681488,353.710709 817.496033,380.930283 817.496033C408.149857 817.496033,434.251343 806.681488,453.497025 787.435791C472.742722 768.190109,483.557266 742.088623,483.557266 714.869049Z" style="stroke:rgb(25.500488%,41.000366%,88.400269%); stroke-width: 2.500000;stroke-linecap: round;stroke-linejoin: round;stroke-miterlimit: 10.000000;fill: none;"></path>
  <path d="M394.580994 885.580978C394.580994 858.361404,383.766449 832.259918,364.520752 813.014236C345.275070 793.768539,319.173584 782.953995,291.954010 782.953995C264.734436 782.953995,238.632950 793.768539,219.387268 813.014236C200.141571 832.259918,189.327026 858.361404,189.327026 885.580978C189.327026 912.800552,200.141571 938.902039,219.387268 958.147720C238.632950 977.393417,264.734436 988.207962,291.954010 988.207962C319.173584 988.207962,345.275070 977.393417,364.520752 958.147720C383.766449 938.902039,394.580994 912.800552,394.580994 885.580978Z" style="stroke:rgb(25.500488%,41.000366%,88.400269%); stroke-width: 2.500000;stroke-linecap: round;stroke-linejoin: round;stroke-miterlimit: 10.000000;fill: none;"></path>
</svg>
