<?xml version="1.0"?>
<!-- Created by MetaPost 2.00 on 2022.03.02:1201 -->
<svg version="1.1" xmlns="http://www.w3.org/2000/svg" xmlns:xlink="http://www.w3.org/1999/xlink" width="1673.442307" height="1653.070023" viewBox="0 0 1673.442307 1653.070023">
<!-- Original BoundingBox: -828.922592 -800.946381 844.519714 852.123642 -->
  <path d="M828.000000 1.606476L19.233398 589.210541L328.152451 1539.986221L1327.847549 1539.986221L1636.766602 589.210541L828.000000 1.606476Z" style="fill: rgb(100.000000%,100.000000%,100.000000%);stroke: none;"></path>
  <path d="M828.000000 1.606476L19.233398 589.210541" style="stroke:rgb(0.000000%,0.000000%,0.000000%); stroke-width: 2.500000;stroke-linecap: round;stroke-linejoin: round;stroke-miterlimit: 10.000000;fill: none;"></path>
  <path d="M19.233398 589.210541L328.152451 1539.986221" style="stroke:rgb(0.000000%,0.000000%,0.000000%); stroke-width: 2.500000;stroke-linecap: round;stroke-linejoin: round;stroke-miterlimit: 10.000000;fill: none;"></path>
  <path d="M328.152451 1539.986221L1327.847549 1539.986221" style="stroke:rgb(0.000000%,0.000000%,0.000000%); stroke-width: 2.500000;stroke-linecap: round;stroke-linejoin: round;stroke-miterlimit: 10.000000;fill: none;"></path>
  <path d="M1327.847549 1539.986221L1636.766602 589.210541" style="stroke:rgb(0.000000%,0.000000%,0.000000%); stroke-width: 2.500000;stroke-linecap: round;stroke-linejoin: round;stroke-miterlimit: 10.000000;fill: none;"></path>
  <path d="M1636.766602 589.210541L828.000000 1.606476" style="stroke:rgb(0.000000%,0.000000%,0.000000%); stroke-width: 2.500000;stroke-linecap: round;stroke-linejoin: round;stroke-miterlimit: 10.000000;fill: none;"></path>
  <path d="M1169.216248 1513.502243C1169.216248 1476.849258,1154.653732 1441.701859,1128.738113 1415.786240C1102.822495 1389.870621,1067.675095 1375.308105,1031.022110 1375.308105C994.369125 1375.308105,959.221725 1389.870621,933.306107 1415.786240C907.390488 1441.701859,892.827972 1476.849258,892.827972 1513.502243C892.827972 1550.155228,907.390488 1585.302628,933.306107 1611.218246C959.221725 1637.133865,994.369125 1651.696381,1031.022110 1651.696381C1067.675095 1651.696381,1102.822495 1637.133865,1128.738113 1611.218246C1154.653732 1585.302628,1169.216248 1550.155228,1169.216248 1513.502243Z" style="stroke:rgb(25.500488%,41.000366%,88.400269%); stroke-width: 2.500000;stroke-linecap: round;stroke-linejoin: round;stroke-miterlimit: 10.000000;fill: none;"></path>
  <path d="M1397.307938 1437.268402C1397.307938 1400.615417,1382.745422 1365.468018,1356.829803 1339.552399C1330.914185 1313.636780,1295.766785 1299.074265,1259.113800 1299.074265C1222.460815 1299.074265,1187.313416 1313.636780,1161.397797 1339.552399C1135.482178 1365.468018,1120.919662 1400.615417,1120.919662 1437.268402C1120.919662 1473.921387,1135.482178 1509.068787,1161.397797 1534.984406C1187.313416 1560.900024,1222.460815 1575.462540,1259.113800 1575.462540C1295.766785 1575.462540,1330.914185 1560.900024,1356.829803 1534.984406C1382.745422 1509.068787,1397.307938 1473.921387,1397.307938 1437.268402Z" style="stroke:rgb(25.500488%,41.000366%,88.400269%); stroke-width: 2.500000;stroke-linecap: round;stroke-linejoin: round;stroke-miterlimit: 10.000000;fill: none;"></path>
  <path d="M563.264145 1459.937424C563.264145 1423.284439,548.701630 1388.137039,522.786011 1362.221420C496.870392 1336.305801,461.722992 1321.743286,425.070007 1321.743286C388.417023 1321.743286,353.269623 1336.305801,327.354004 1362.221420C301.438385 1388.137039,286.875870 1423.284439,286.875870 1459.937424C286.875870 1496.590408,301.438385 1531.737808,327.354004 1557.653427C353.269623 1583.569046,388.417023 1598.131561,425.070007 1598.131561C461.722992 1598.131561,496.870392 1583.569046,522.786011 1557.653427C548.701630 1531.737808,563.264145 1496.590408,563.264145 1459.937424Z" style="stroke:rgb(25.500488%,41.000366%,88.400269%); stroke-width: 2.500000;stroke-linecap: round;stroke-linejoin: round;stroke-miterlimit: 10.000000;fill: none;"></path>
  <path d="M783.479431 1453.215866C783.479431 1416.562881,768.916916 1381.415482,743.001297 1355.499863C717.085678 1329.584244,681.938278 1315.021729,645.285294 1315.021729C608.632309 1315.021729,573.484909 1329.584244,547.569290 1355.499863C521.653671 1381.415482,507.091156 1416.562881,507.091156 1453.215866C507.091156 1489.868851,521.653671 1525.016251,547.569290 1550.931870C573.484909 1576.847488,608.632309 1591.410004,645.285294 1591.410004C681.938278 1591.410004,717.085678 1576.847488,743.001297 1550.931870C768.916916 1525.016251,783.479431 1489.868851,783.479431 1453.215866Z" style="stroke:rgb(25.500488%,41.000366%,88.400269%); stroke-width: 2.500000;stroke-linecap: round;stroke-linejoin: round;stroke-miterlimit: 10.000000;fill: none;"></path>
  <path d="M962.340271 1421.567459C962.340271 1384.914474,947.777756 1349.767075,921.862137 1323.851456C895.946518 1297.935837,860.799118 1283.373322,824.146133 1283.373322C787.493149 1283.373322,752.345749 1297.935837,726.430130 1323.851456C700.514511 1349.767075,685.951996 1384.914474,685.951996 1421.567459C685.951996 1458.220444,700.514511 1493.367844,726.430130 1519.283463C752.345749 1545.199081,787.493149 1559.761597,824.146133 1559.761597C860.799118 1559.761597,895.946518 1545.199081,921.862137 1519.283463C947.777756 1493.367844,962.340271 1458.220444,962.340271 1421.567459Z" style="stroke:rgb(25.500488%,41.000366%,88.400269%); stroke-width: 2.500000;stroke-linecap: round;stroke-linejoin: round;stroke-miterlimit: 10.000000;fill: none;"></path>
  <path d="M1196.413895 1298.101059C1196.413895 1261.448074,1181.851379 1226.300674,1155.935760 1200.385056C1130.020142 1174.469437,1094.872742 1159.906921,1058.219757 1159.906921C1021.566772 1159.906921,986.419373 1174.469437,960.503754 1200.385056C934.588135 1226.300674,920.025620 1261.448074,920.025620 1298.101059C920.025620 1334.754044,934.588135 1369.901443,960.503754 1395.817062C986.419373 1421.732681,1021.566772 1436.295197,1058.219757 1436.295197C1094.872742 1436.295197,1130.020142 1421.732681,1155.935760 1395.817062C1181.851379 1369.901443,1196.413895 1334.754044,1196.413895 1298.101059Z" style="stroke:rgb(25.500488%,41.000366%,88.400269%); stroke-width: 2.500000;stroke-linecap: round;stroke-linejoin: round;stroke-miterlimit: 10.000000;fill: none;"></path>
  <path d="M1456.348633 1251.128021C1456.348633 1214.475037,1441.786118 1179.327637,1415.870499 1153.412018C1389.954880 1127.496399,1354.807480 1112.933884,1318.154495 1112.933884C1281.501511 1112.933884,1246.354111 1127.496399,1220.438492 1153.412018C1194.522873 1179.327637,1179.960358 1214.475037,1179.960358 1251.128021C1179.960358 1287.781006,1194.522873 1322.928406,1220.438492 1348.844025C1246.354111 1374.759644,1281.501511 1389.322159,1318.154495 1389.322159C1354.807480 1389.322159,1389.954880 1374.759644,1415.870499 1348.844025C1441.786118 1322.928406,1456.348633 1287.781006,1456.348633 1251.128021Z" style="stroke:rgb(25.500488%,41.000366%,88.400269%); stroke-width: 2.500000;stroke-linecap: round;stroke-linejoin: round;stroke-miterlimit: 10.000000;fill: none;"></path>
  <path d="M421.968750 1287.992767C421.968750 1251.339783,407.406235 1216.192383,381.490616 1190.276764C355.574997 1164.361145,320.427597 1149.798630,283.774612 1149.798630C247.121628 1149.798630,211.974228 1164.361145,186.058609 1190.276764C160.142990 1216.192383,145.580475 1251.339783,145.580475 1287.992767C145.580475 1324.645752,160.142990 1359.793152,186.058609 1385.708771C211.974228 1411.624390,247.121628 1426.186905,283.774612 1426.186905C320.427597 1426.186905,355.574997 1411.624390,381.490616 1385.708771C407.406235 1359.793152,421.968750 1324.645752,421.968750 1287.992767Z" style="stroke:rgb(25.500488%,41.000366%,88.400269%); stroke-width: 2.500000;stroke-linecap: round;stroke-linejoin: round;stroke-miterlimit: 10.000000;fill: none;"></path>
  <path d="M632.335266 1240.448807C632.335266 1203.795822,617.772751 1168.648422,591.857132 1142.732803C565.941513 1116.817184,530.794113 1102.254669,494.141129 1102.254669C457.488144 1102.254669,422.340744 1116.817184,396.425125 1142.732803C370.509506 1168.648422,355.946991 1203.795822,355.946991 1240.448807C355.946991 1277.101791,370.509506 1312.249191,396.425125 1338.164810C422.340744 1364.080429,457.488144 1378.642944,494.141129 1378.642944C530.794113 1378.642944,565.941513 1364.080429,591.857132 1338.164810C617.772751 1312.249191,632.335266 1277.101791,632.335266 1240.448807Z" style="stroke:rgb(25.500488%,41.000366%,88.400269%); stroke-width: 2.500000;stroke-linecap: round;stroke-linejoin: round;stroke-miterlimit: 10.000000;fill: none;"></path>
  <path d="M823.964478 1207.074585C823.964478 1170.421600,809.401962 1135.274200,783.486343 1109.358582C757.570724 1083.442963,722.423325 1068.880447,685.770340 1068.880447C649.117355 1068.880447,613.969955 1083.442963,588.054337 1109.358582C562.138718 1135.274200,547.576202 1170.421600,547.576202 1207.074585C547.576202 1243.727570,562.138718 1278.874969,588.054337 1304.790588C613.969955 1330.706207,649.117355 1345.268723,685.770340 1345.268723C722.423325 1345.268723,757.570724 1330.706207,783.486343 1304.790588C809.401962 1278.874969,823.964478 1243.727570,823.964478 1207.074585Z" style="stroke:rgb(25.500488%,41.000366%,88.400269%); stroke-width: 2.500000;stroke-linecap: round;stroke-linejoin: round;stroke-miterlimit: 10.000000;fill: none;"></path>
  <path d="M1036.134644 1188.596802C1036.134644 1151.943817,1021.572128 1116.796417,995.656509 1090.880798C969.740891 1064.965179,934.593491 1050.402664,897.940506 1050.402664C861.287521 1050.402664,826.140121 1064.965179,800.224503 1090.880798C774.308884 1116.796417,759.746368 1151.943817,759.746368 1188.596802C759.746368 1225.249786,774.308884 1260.397186,800.224503 1286.312805C826.140121 1312.228424,861.287521 1326.790939,897.940506 1326.790939C934.593491 1326.790939,969.740891 1312.228424,995.656509 1286.312805C1021.572128 1260.397186,1036.134644 1225.249786,1036.134644 1188.596802Z" style="stroke:rgb(25.500488%,41.000366%,88.400269%); stroke-width: 2.500000;stroke-linecap: round;stroke-linejoin: round;stroke-miterlimit: 10.000000;fill: none;"></path>
  <path d="M1276.787079 1103.059174C1276.787079 1066.406189,1262.224564 1031.258789,1236.308945 1005.343170C1210.393326 979.427551,1175.245926 964.865036,1138.592941 964.865036C1101.939957 964.865036,1066.792557 979.427551,1040.876938 1005.343170C1014.961319 1031.258789,1000.398804 1066.406189,1000.398804 1103.059174C1000.398804 1139.712158,1014.961319 1174.859558,1040.876938 1200.775177C1066.792557 1226.690796,1101.939957 1241.253311,1138.592941 1241.253311C1175.245926 1241.253311,1210.393326 1226.690796,1236.308945 1200.775177C1262.224564 1174.859558,1276.787079 1139.712158,1276.787079 1103.059174Z" style="stroke:rgb(25.500488%,41.000366%,88.400269%); stroke-width: 2.500000;stroke-linecap: round;stroke-linejoin: round;stroke-miterlimit: 10.000000;fill: none;"></path>
  <path d="M1536.124924 1058.292053C1536.124924 1021.639069,1521.562408 986.491669,1495.646790 960.576050C1469.731171 934.660431,1434.583771 920.097916,1397.930786 920.097916C1361.277802 920.097916,1326.130402 934.660431,1300.214783 960.576050C1274.299164 986.491669,1259.736649 1021.639069,1259.736649 1058.292053C1259.736649 1094.945038,1274.299164 1130.092438,1300.214783 1156.008057C1326.130402 1181.923676,1361.277802 1196.486191,1397.930786 1196.486191C1434.583771 1196.486191,1469.731171 1181.923676,1495.646790 1156.008057C1521.562408 1130.092438,1536.124924 1094.945038,1536.124924 1058.292053Z" style="stroke:rgb(25.500488%,41.000366%,88.400269%); stroke-width: 2.500000;stroke-linecap: round;stroke-linejoin: round;stroke-miterlimit: 10.000000;fill: none;"></path>
  <path d="M432.933456 1063.975540C432.933456 1027.322556,418.370941 992.175156,392.455322 966.259537C366.539703 940.343918,331.392303 925.781403,294.739319 925.781403C258.086334 925.781403,222.938934 940.343918,197.023315 966.259537C171.107697 992.175156,156.545181 1027.322556,156.545181 1063.975540C156.545181 1100.628525,171.107697 1135.775925,197.023315 1161.691544C222.938934 1187.607162,258.086334 1202.169678,294.739319 1202.169678C331.392303 1202.169678,366.539703 1187.607162,392.455322 1161.691544C418.370941 1135.775925,432.933456 1100.628525,432.933456 1063.975540Z" style="stroke:rgb(25.500488%,41.000366%,88.400269%); stroke-width: 2.500000;stroke-linecap: round;stroke-linejoin: round;stroke-miterlimit: 10.000000;fill: none;"></path>
  <path d="M641.807724 1015.250748C641.807724 978.597763,627.245209 943.450363,601.329590 917.534744C575.413971 891.619125,540.266571 877.056610,503.613586 877.056610C466.960602 877.056610,431.813202 891.619125,405.897583 917.534744C379.981964 943.450363,365.419449 978.597763,365.419449 1015.250748C365.419449 1051.903732,379.981964 1087.051132,405.897583 1112.966751C431.813202 1138.882370,466.960602 1153.444885,503.613586 1153.444885C540.266571 1153.444885,575.413971 1138.882370,601.329590 1112.966751C627.245209 1087.051132,641.807724 1051.903732,641.807724 1015.250748Z" style="stroke:rgb(25.500488%,41.000366%,88.400269%); stroke-width: 2.500000;stroke-linecap: round;stroke-linejoin: round;stroke-miterlimit: 10.000000;fill: none;"></path>
  <path d="M872.014511 1000.029922C872.014511 963.376938,857.451996 928.229538,831.536377 902.313919C805.620758 876.398300,770.473358 861.835785,733.820374 861.835785C697.167389 861.835785,662.019989 876.398300,636.104370 902.313919C610.188751 928.229538,595.626236 963.376938,595.626236 1000.029922C595.626236 1036.682907,610.188751 1071.830307,636.104370 1097.745926C662.019989 1123.661545,697.167389 1138.224060,733.820374 1138.224060C770.473358 1138.224060,805.620758 1123.661545,831.536377 1097.745926C857.451996 1071.830307,872.014511 1036.682907,872.014511 1000.029922Z" style="stroke:rgb(25.500488%,41.000366%,88.400269%); stroke-width: 2.500000;stroke-linecap: round;stroke-linejoin: round;stroke-miterlimit: 10.000000;fill: none;"></path>
  <path d="M1101.170227 963.061371C1101.170227 926.408386,1086.607712 891.260986,1060.692093 865.345367C1034.776474 839.429749,999.629074 824.867233,962.976089 824.867233C926.323105 824.867233,891.175705 839.429749,865.260086 865.345367C839.344467 891.260986,824.781952 926.408386,824.781952 963.061371C824.781952 999.714355,839.344467 1034.861755,865.260086 1060.777374C891.175705 1086.692993,926.323105 1101.255508,962.976089 1101.255508C999.629074 1101.255508,1034.776474 1086.692993,1060.692093 1060.777374C1086.607712 1034.861755,1101.170227 999.714355,1101.170227 963.061371Z" style="stroke:rgb(25.500488%,41.000366%,88.400269%); stroke-width: 2.500000;stroke-linecap: round;stroke-linejoin: round;stroke-miterlimit: 10.000000;fill: none;"></path>
  <path d="M1359.288330 906.771591C1359.288330 870.118607,1344.725815 834.971207,1318.810196 809.055588C1292.894577 783.139969,1257.747177 768.577454,1221.094193 768.577454C1184.441208 768.577454,1149.293808 783.139969,1123.378189 809.055588C1097.462570 834.971207,1082.900055 870.118607,1082.900055 906.771591C1082.900055 943.424576,1097.462570 978.571976,1123.378189 1004.487595C1149.293808 1030.403214,1184.441208 1044.965729,1221.094193 1044.965729C1257.747177 1044.965729,1292.894577 1030.403214,1318.810196 1004.487595C1344.725815 978.571976,1359.288330 943.424576,1359.288330 906.771591Z" style="stroke:rgb(25.500488%,41.000366%,88.400269%); stroke-width: 2.500000;stroke-linecap: round;stroke-linejoin: round;stroke-miterlimit: 10.000000;fill: none;"></path>
  <path d="M1608.634674 845.745575C1608.634674 809.092590,1594.072159 773.945190,1568.156540 748.029572C1542.240921 722.113953,1507.093521 707.551437,1470.440536 707.551437C1433.787552 707.551437,1398.640152 722.113953,1372.724533 748.029572C1346.808914 773.945190,1332.246399 809.092590,1332.246399 845.745575C1332.246399 882.398560,1346.808914 917.545959,1372.724533 943.461578C1398.640152 969.377197,1433.787552 983.939713,1470.440536 983.939713C1507.093521 983.939713,1542.240921 969.377197,1568.156540 943.461578C1594.072159 917.545959,1608.634674 882.398560,1608.634674 845.745575Z" style="stroke:rgb(25.500488%,41.000366%,88.400269%); stroke-width: 2.500000;stroke-linecap: round;stroke-linejoin: round;stroke-miterlimit: 10.000000;fill: none;"></path>
  <path d="M276.715683 890.901978C276.715683 854.248993,262.153168 819.101593,236.237549 793.185974C210.321930 767.270355,175.174530 752.707840,138.521545 752.707840C101.868561 752.707840,66.721161 767.270355,40.805542 793.185974C14.889923 819.101593,0.327408 854.248993,0.327408 890.901978C0.327408 927.554962,14.889923 962.702362,40.805542 988.617981C66.721161 1014.533600,101.868561 1029.096115,138.521545 1029.096115C175.174530 1029.096115,210.321930 1014.533600,236.237549 988.617981C262.153168 962.702362,276.715683 927.554962,276.715683 890.901978Z" style="stroke:rgb(25.500488%,41.000366%,88.400269%); stroke-width: 2.500000;stroke-linecap: round;stroke-linejoin: round;stroke-miterlimit: 10.000000;fill: none;"></path>
  <path d="M471.848404 824.309265C471.848404 787.656281,457.285889 752.508881,431.370270 726.593262C405.454651 700.677643,370.307251 686.115128,333.654266 686.115128C297.001282 686.115128,261.853882 700.677643,235.938263 726.593262C210.022644 752.508881,195.460129 787.656281,195.460129 824.309265C195.460129 860.962250,210.022644 896.109650,235.938263 922.025269C261.853882 947.940887,297.001282 962.503403,333.654266 962.503403C370.307251 962.503403,405.454651 947.940887,431.370270 922.025269C457.285889 896.109650,471.848404 860.962250,471.848404 824.309265Z" style="stroke:rgb(25.500488%,41.000366%,88.400269%); stroke-width: 2.500000;stroke-linecap: round;stroke-linejoin: round;stroke-miterlimit: 10.000000;fill: none;"></path>
  <path d="M706.168564 801.302872C706.168564 764.649887,691.606049 729.502487,665.690430 703.586868C639.774811 677.671249,604.627411 663.108734,567.974426 663.108734C531.321442 663.108734,496.174042 677.671249,470.258423 703.586868C444.342804 729.502487,429.780289 764.649887,429.780289 801.302872C429.780289 837.955856,444.342804 873.103256,470.258423 899.018875C496.174042 924.934494,531.321442 939.497009,567.974426 939.497009C604.627411 939.497009,639.774811 924.934494,665.690430 899.018875C691.606049 873.103256,706.168564 837.955856,706.168564 801.302872Z" style="stroke:rgb(25.500488%,41.000366%,88.400269%); stroke-width: 2.500000;stroke-linecap: round;stroke-linejoin: round;stroke-miterlimit: 10.000000;fill: none;"></path>
  <path d="M928.927139 777.076721C928.927139 740.423737,914.364624 705.276337,888.449005 679.360718C862.533386 653.445099,827.385986 638.882584,790.733002 638.882584C754.080017 638.882584,718.932617 653.445099,693.016998 679.360718C667.101379 705.276337,652.538864 740.423737,652.538864 777.076721C652.538864 813.729706,667.101379 848.877106,693.016998 874.792725C718.932617 900.708344,754.080017 915.270859,790.733002 915.270859C827.385986 915.270859,862.533386 900.708344,888.449005 874.792725C914.364624 848.877106,928.927139 813.729706,928.927139 777.076721Z" style="stroke:rgb(25.500488%,41.000366%,88.400269%); stroke-width: 2.500000;stroke-linecap: round;stroke-linejoin: round;stroke-miterlimit: 10.000000;fill: none;"></path>
  <path d="M1175.846970 764.814423C1175.846970 728.161438,1161.284454 693.014038,1135.368835 667.098419C1109.453217 641.182800,1074.305817 626.620285,1037.652832 626.620285C1000.999847 626.620285,965.852448 641.182800,939.936829 667.098419C914.021210 693.014038,899.458694 728.161438,899.458694 764.814423C899.458694 801.467407,914.021210 836.614807,939.936829 862.530426C965.852448 888.446045,1000.999847 903.008560,1037.652832 903.008560C1074.305817 903.008560,1109.453217 888.446045,1135.368835 862.530426C1161.284454 836.614807,1175.846970 801.467407,1175.846970 764.814423Z" style="stroke:rgb(25.500488%,41.000366%,88.400269%); stroke-width: 2.500000;stroke-linecap: round;stroke-linejoin: round;stroke-miterlimit: 10.000000;fill: none;"></path>
  <path d="M1424.323929 696.703522C1424.323929 660.050537,1409.761414 624.903137,1383.845795 598.987518C1357.930176 573.071899,1322.782776 558.509384,1286.129791 558.509384C1249.476807 558.509384,1214.329407 573.071899,1188.413788 598.987518C1162.498169 624.903137,1147.935654 660.050537,1147.935654 696.703522C1147.935654 733.356506,1162.498169 768.503906,1188.413788 794.419525C1214.329407 820.335144,1249.476807 834.897659,1286.129791 834.897659C1322.782776 834.897659,1357.930176 820.335144,1383.845795 794.419525C1409.761414 768.503906,1424.323929 733.356506,1424.323929 696.703522Z" style="stroke:rgb(25.500488%,41.000366%,88.400269%); stroke-width: 2.500000;stroke-linecap: round;stroke-linejoin: round;stroke-miterlimit: 10.000000;fill: none;"></path>
  <path d="M1671.269714 632.446503C1671.269714 595.793518,1656.707199 560.646118,1630.791580 534.730499C1604.875961 508.814880,1569.728561 494.252365,1533.075577 494.252365C1496.422592 494.252365,1461.275192 508.814880,1435.359573 534.730499C1409.443954 560.646118,1394.881439 595.793518,1394.881439 632.446503C1394.881439 669.099487,1409.443954 704.246887,1435.359573 730.162506C1461.275192 756.078125,1496.422592 770.640640,1533.075577 770.640640C1569.728561 770.640640,1604.875961 756.078125,1630.791580 730.162506C1656.707199 704.246887,1671.269714 669.099487,1671.269714 632.446503Z" style="stroke:rgb(25.500488%,41.000366%,88.400269%); stroke-width: 2.500000;stroke-linecap: round;stroke-linejoin: round;stroke-miterlimit: 10.000000;fill: none;"></path>
  <path d="M283.086884 646.746017C283.086884 610.093033,268.524368 574.945633,242.608749 549.030014C216.693130 523.114395,181.545731 508.551880,144.892746 508.551880C108.239761 508.551880,73.092361 523.114395,47.176743 549.030014C21.261124 574.945633,6.698608 610.093033,6.698608 646.746017C6.698608 683.399002,21.261124 718.546402,47.176743 744.462021C73.092361 770.377640,108.239761 784.940155,144.892746 784.940155C181.545731 784.940155,216.693130 770.377640,242.608749 744.462021C268.524368 718.546402,283.086884 683.399002,283.086884 646.746017Z" style="stroke:rgb(25.500488%,41.000366%,88.400269%); stroke-width: 2.500000;stroke-linecap: round;stroke-linejoin: round;stroke-miterlimit: 10.000000;fill: none;"></path>
  <path d="M531.992050 634.873001C531.992050 598.220016,517.429535 563.072617,491.513916 537.156998C465.598297 511.241379,430.450897 496.678864,393.797913 496.678864C357.144928 496.678864,321.997528 511.241379,296.081909 537.156998C270.166290 563.072617,255.603775 598.220016,255.603775 634.873001C255.603775 671.525986,270.166290 706.673386,296.081909 732.589005C321.997528 758.504623,357.144928 773.067139,393.797913 773.067139C430.450897 773.067139,465.598297 758.504623,491.513916 732.589005C517.429535 706.673386,531.992050 671.525986,531.992050 634.873001Z" style="stroke:rgb(25.500488%,41.000366%,88.400269%); stroke-width: 2.500000;stroke-linecap: round;stroke-linejoin: round;stroke-miterlimit: 10.000000;fill: none;"></path>
  <path d="M768.505157 576.571945C768.505157 539.918961,753.942642 504.771561,728.027023 478.855942C702.111404 452.940323,666.964005 438.377808,630.311020 438.377808C593.658035 438.377808,558.510635 452.940323,532.595016 478.855942C506.679398 504.771561,492.116882 539.918961,492.116882 576.571945C492.116882 613.224930,506.679398 648.372330,532.595016 674.287949C558.510635 700.203568,593.658035 714.766083,630.311020 714.766083C666.964005 714.766083,702.111404 700.203568,728.027023 674.287949C753.942642 648.372330,768.505157 613.224930,768.505157 576.571945Z" style="stroke:rgb(25.500488%,41.000366%,88.400269%); stroke-width: 2.500000;stroke-linecap: round;stroke-linejoin: round;stroke-miterlimit: 10.000000;fill: none;"></path>
  <path d="M1010.455185 579.634277C1010.455185 542.981293,995.892670 507.833893,969.977051 481.918274C944.061432 456.002655,908.914032 441.440140,872.261047 441.440140C835.608063 441.440140,800.460663 456.002655,774.545044 481.918274C748.629425 507.833893,734.066910 542.981293,734.066910 579.634277C734.066910 616.287262,748.629425 651.434662,774.545044 677.350281C800.460663 703.265900,835.608063 717.828415,872.261047 717.828415C908.914032 717.828415,944.061432 703.265900,969.977051 677.350281C995.892670 651.434662,1010.455185 616.287262,1010.455185 579.634277Z" style="stroke:rgb(25.500488%,41.000366%,88.400269%); stroke-width: 2.500000;stroke-linecap: round;stroke-linejoin: round;stroke-miterlimit: 10.000000;fill: none;"></path>
  <path d="M1249.459686 549.491089C1249.459686 512.838104,1234.897171 477.690704,1208.981552 451.775085C1183.065933 425.859467,1147.918533 411.296951,1111.265549 411.296951C1074.612564 411.296951,1039.465164 425.859467,1013.549545 451.775085C987.633926 477.690704,973.071411 512.838104,973.071411 549.491089C973.071411 586.144073,987.633926 621.291473,1013.549545 647.207092C1039.465164 673.122711,1074.612564 687.685226,1111.265549 687.685226C1147.918533 687.685226,1183.065933 673.122711,1208.981552 647.207092C1234.897171 621.291473,1249.459686 586.144073,1249.459686 549.491089Z" style="stroke:rgb(25.500488%,41.000366%,88.400269%); stroke-width: 2.500000;stroke-linecap: round;stroke-linejoin: round;stroke-miterlimit: 10.000000;fill: none;"></path>
  <path d="M1508.979187 498.871811C1508.979187 462.218826,1494.416672 427.071426,1468.501053 401.155807C1442.585434 375.240189,1407.438034 360.677673,1370.785049 360.677673C1334.132065 360.677673,1298.984665 375.240189,1273.069046 401.155807C1247.153427 427.071426,1232.590912 462.218826,1232.590912 498.871811C1232.590912 535.524796,1247.153427 570.672195,1273.069046 596.587814C1298.984665 622.503433,1334.132065 637.065948,1370.785049 637.065948C1407.438034 637.065948,1442.585434 622.503433,1468.501053 596.587814C1494.416672 570.672195,1508.979187 535.524796,1508.979187 498.871811Z" style="stroke:rgb(25.500488%,41.000366%,88.400269%); stroke-width: 2.500000;stroke-linecap: round;stroke-linejoin: round;stroke-miterlimit: 10.000000;fill: none;"></path>
  <path d="M388.802155 443.827713C388.802155 407.174728,374.239639 372.027328,348.324020 346.111710C322.408401 320.196091,287.261002 305.633575,250.608017 305.633575C213.955032 305.633575,178.807632 320.196091,152.892014 346.111710C126.976395 372.027328,112.413879 407.174728,112.413879 443.827713C112.413879 480.480698,126.976395 515.628098,152.892014 541.543716C178.807632 567.459335,213.955032 582.021851,250.608017 582.021851C287.261002 582.021851,322.408401 567.459335,348.324020 541.543716C374.239639 515.628098,388.802155 480.480698,388.802155 443.827713Z" style="stroke:rgb(25.500488%,41.000366%,88.400269%); stroke-width: 2.500000;stroke-linecap: round;stroke-linejoin: round;stroke-miterlimit: 10.000000;fill: none;"></path>
  <path d="M614.649017 405.574539C614.649017 368.921555,600.086502 333.774155,574.170883 307.858536C548.255264 281.942917,513.107864 267.380402,476.454880 267.380402C439.801895 267.380402,404.654495 281.942917,378.738876 307.858536C352.823257 333.774155,338.260742 368.921555,338.260742 405.574539C338.260742 442.227524,352.823257 477.374924,378.738876 503.290543C404.654495 529.206161,439.801895 543.768677,476.454880 543.768677C513.107864 543.768677,548.255264 529.206161,574.170883 503.290543C600.086502 477.374924,614.649017 442.227524,614.649017 405.574539Z" style="stroke:rgb(25.500488%,41.000366%,88.400269%); stroke-width: 2.500000;stroke-linecap: round;stroke-linejoin: round;stroke-miterlimit: 10.000000;fill: none;"></path>
  <path d="M870.353577 374.574936C870.353577 337.921951,855.791061 302.774551,829.875443 276.858932C803.959824 250.943314,768.812424 236.380798,732.159439 236.380798C695.506454 236.380798,660.359055 250.943314,634.443436 276.858932C608.527817 302.774551,593.965302 337.921951,593.965302 374.574936C593.965302 411.227921,608.527817 446.375320,634.443436 472.290939C660.359055 498.206558,695.506454 512.769073,732.159439 512.769073C768.812424 512.769073,803.959824 498.206558,829.875443 472.290939C855.791061 446.375320,870.353577 411.227921,870.353577 374.574936Z" style="stroke:rgb(25.500488%,41.000366%,88.400269%); stroke-width: 2.500000;stroke-linecap: round;stroke-linejoin: round;stroke-miterlimit: 10.000000;fill: none;"></path>
  <path d="M1071.533112 368.489212C1071.533112 331.836227,1056.970596 296.688828,1031.054977 270.773209C1005.139359 244.857590,969.991959 230.295074,933.338974 230.295074C896.685989 230.295074,861.538589 244.857590,835.622971 270.773209C809.707352 296.688828,795.144836 331.836227,795.144836 368.489212C795.144836 405.142197,809.707352 440.289597,835.622971 466.205215C861.538589 492.120834,896.685989 506.683350,933.338974 506.683350C969.991959 506.683350,1005.139359 492.120834,1031.054977 466.205215C1056.970596 440.289597,1071.533112 405.142197,1071.533112 368.489212Z" style="stroke:rgb(25.500488%,41.000366%,88.400269%); stroke-width: 2.500000;stroke-linecap: round;stroke-linejoin: round;stroke-miterlimit: 10.000000;fill: none;"></path>
  <path d="M1330.935837 377.935715C1330.935837 341.282730,1316.373322 306.135330,1290.457703 280.219711C1264.542084 254.304092,1229.394684 239.741577,1192.741699 239.741577C1156.088715 239.741577,1120.941315 254.304092,1095.025696 280.219711C1069.110077 306.135330,1054.547562 341.282730,1054.547562 377.935715C1054.547562 414.588699,1069.110077 449.736099,1095.025696 475.651718C1120.941315 501.567337,1156.088715 516.129852,1192.741699 516.129852C1229.394684 516.129852,1264.542084 501.567337,1290.457703 475.651718C1316.373322 449.736099,1330.935837 414.588699,1330.935837 377.935715Z" style="stroke:rgb(25.500488%,41.000366%,88.400269%); stroke-width: 2.500000;stroke-linecap: round;stroke-linejoin: round;stroke-miterlimit: 10.000000;fill: none;"></path>
  <path d="M722.336639 205.510956C722.336639 168.857971,707.774124 133.710571,681.858505 107.794952C655.942886 81.879333,620.795486 67.316818,584.142502 67.316818C547.489517 67.316818,512.342117 81.879333,486.426498 107.794952C460.510880 133.710571,445.948364 168.857971,445.948364 205.510956C445.948364 242.163940,460.510880 277.311340,486.426498 303.226959C512.342117 329.142578,547.489517 343.705093,584.142502 343.705093C620.795486 343.705093,655.942886 329.142578,681.858505 303.226959C707.774124 277.311340,722.336639 242.163940,722.336639 205.510956Z" style="stroke:rgb(25.500488%,41.000366%,88.400269%); stroke-width: 2.500000;stroke-linecap: round;stroke-linejoin: round;stroke-miterlimit: 10.000000;fill: none;"></path>
  <path d="M954.593613 139.320496C954.593613 102.667511,940.031097 67.520111,914.115479 41.604492C888.199860 15.688873,853.052460 1.126358,816.399475 1.126358C779.746490 1.126358,744.599091 15.688873,718.683472 41.604492C692.767853 67.520111,678.205338 102.667511,678.205338 139.320496C678.205338 175.973480,692.767853 211.120880,718.683472 237.036499C744.599091 262.952118,779.746490 277.514633,816.399475 277.514633C853.052460 277.514633,888.199860 262.952118,914.115479 237.036499C940.031097 211.120880,954.593613 175.973480,954.593613 139.320496Z" style="stroke:rgb(25.500488%,41.000366%,88.400269%); stroke-width: 2.500000;stroke-linecap: round;stroke-linejoin: round;stroke-miterlimit: 10.000000;fill: none;"></path>
  <path d="M1171.110748 191.315231C1171.110748 154.662247,1156.548233 119.514847,1130.632614 93.599228C1104.716995 67.683609,1069.569595 53.121094,1032.916611 53.121094C996.263626 53.121094,961.116226 67.683609,935.200607 93.599228C909.284988 119.514847,894.722473 154.662247,894.722473 191.315231C894.722473 227.968216,909.284988 263.115616,935.200607 289.031235C961.116226 314.946854,996.263626 329.509369,1032.916611 329.509369C1069.569595 329.509369,1104.716995 314.946854,1130.632614 289.031235C1156.548233 263.115616,1171.110748 227.968216,1171.110748 191.315231Z" style="stroke:rgb(25.500488%,41.000366%,88.400269%); stroke-width: 2.500000;stroke-linecap: round;stroke-linejoin: round;stroke-miterlimit: 10.000000;fill: none;"></path>
</svg>
