<?xml version="1.0"?>
<!-- Created by MetaPost 2.00 on 2022.03.02:1201 -->
<svg version="1.1" xmlns="http://www.w3.org/2000/svg" xmlns:xlink="http://www.w3.org/1999/xlink" width="1851.485657" height="1852.484802" viewBox="0 0 1851.485657 1852.484802">
<!-- Original BoundingBox: -923.543396 -929.771866 927.942261 922.712936 -->
  <path d="M1773.393524 922.000000L1659.464462 496.803238L1348.196762 185.535538L923.000000 71.606476L497.803238 185.535538L186.535538 496.803238L72.606476 922.000000L186.535538 1347.196762L497.803238 1658.464462L923.000000 1772.393524L1348.196762 1658.464462L1659.464462 1347.196762L1773.393524 922.000000Z" style="fill: rgb(100.000000%,100.000000%,100.000000%);stroke: none;"></path>
  <path d="M1773.393524 922.000000L1659.464462 496.803238" style="stroke:rgb(0.000000%,0.000000%,0.000000%); stroke-width: 2.500000;stroke-linecap: round;stroke-linejoin: round;stroke-miterlimit: 10.000000;fill: none;"></path>
  <path d="M1659.464462 496.803238L1348.196762 185.535538" style="stroke:rgb(0.000000%,0.000000%,0.000000%); stroke-width: 2.500000;stroke-linecap: round;stroke-linejoin: round;stroke-miterlimit: 10.000000;fill: none;"></path>
  <path d="M1348.196762 185.535538L923.000000 71.606476" style="stroke:rgb(0.000000%,0.000000%,0.000000%); stroke-width: 2.500000;stroke-linecap: round;stroke-linejoin: round;stroke-miterlimit: 10.000000;fill: none;"></path>
  <path d="M923.000000 71.606476L497.803238 185.535538" style="stroke:rgb(0.000000%,0.000000%,0.000000%); stroke-width: 2.500000;stroke-linecap: round;stroke-linejoin: round;stroke-miterlimit: 10.000000;fill: none;"></path>
  <path d="M497.803238 185.535538L186.535538 496.803238" style="stroke:rgb(0.000000%,0.000000%,0.000000%); stroke-width: 2.500000;stroke-linecap: round;stroke-linejoin: round;stroke-miterlimit: 10.000000;fill: none;"></path>
  <path d="M186.535538 496.803238L72.606476 922.000000" style="stroke:rgb(0.000000%,0.000000%,0.000000%); stroke-width: 2.500000;stroke-linecap: round;stroke-linejoin: round;stroke-miterlimit: 10.000000;fill: none;"></path>
  <path d="M72.606476 922.000000L186.535538 1347.196762" style="stroke:rgb(0.000000%,0.000000%,0.000000%); stroke-width: 2.500000;stroke-linecap: round;stroke-linejoin: round;stroke-miterlimit: 10.000000;fill: none;"></path>
  <path d="M186.535538 1347.196762L497.803238 1658.464462" style="stroke:rgb(0.000000%,0.000000%,0.000000%); stroke-width: 2.500000;stroke-linecap: round;stroke-linejoin: round;stroke-miterlimit: 10.000000;fill: none;"></path>
  <path d="M497.803238 1658.464462L923.000000 1772.393524" style="stroke:rgb(0.000000%,0.000000%,0.000000%); stroke-width: 2.500000;stroke-linecap: round;stroke-linejoin: round;stroke-miterlimit: 10.000000;fill: none;"></path>
  <path d="M923.000000 1772.393524L1348.196762 1658.464462" style="stroke:rgb(0.000000%,0.000000%,0.000000%); stroke-width: 2.500000;stroke-linecap: round;stroke-linejoin: round;stroke-miterlimit: 10.000000;fill: none;"></path>
  <path d="M1348.196762 1658.464462L1659.464462 1347.196762" style="stroke:rgb(0.000000%,0.000000%,0.000000%); stroke-width: 2.500000;stroke-linecap: round;stroke-linejoin: round;stroke-miterlimit: 10.000000;fill: none;"></path>
  <path d="M1659.464462 1347.196762L1773.393524 922.000000" style="stroke:rgb(0.000000%,0.000000%,0.000000%); stroke-width: 2.500000;stroke-linecap: round;stroke-linejoin: round;stroke-miterlimit: 10.000000;fill: none;"></path>
  <path d="M1849.692261 1017.321518C1849.692261 986.691315,1837.522644 957.319321,1815.865463 935.662140C1794.208282 914.004959,1764.836288 901.835342,1734.206085 901.835342C1703.575882 901.835342,1674.203888 914.004959,1652.546707 935.662140C1630.889526 957.319321,1618.719910 986.691315,1618.719910 1017.321518C1618.719910 1047.951721,1630.889526 1077.323715,1652.546707 1098.980896C1674.203888 1120.638077,1703.575882 1132.807693,1734.206085 1132.807693C1764.836288 1132.807693,1794.208282 1120.638077,1815.865463 1098.980896C1837.522644 1077.323715,1849.692261 1047.951721,1849.692261 1017.321518Z" style="stroke:rgb(25.500488%,41.000366%,88.400269%); stroke-width: 2.500000;stroke-linecap: round;stroke-linejoin: round;stroke-miterlimit: 10.000000;fill: none;"></path>
  <path d="M1796.010651 833.685516C1796.010651 803.055313,1783.841034 773.683319,1762.183853 752.026138C1740.526672 730.368958,1711.154678 718.199341,1680.524475 718.199341C1649.894272 718.199341,1620.522278 730.368958,1598.865097 752.026138C1577.207916 773.683319,1565.038300 803.055313,1565.038300 833.685516C1565.038300 864.315720,1577.207916 893.687714,1598.865097 915.344894C1620.522278 937.002075,1649.894272 949.171692,1680.524475 949.171692C1711.154678 949.171692,1740.526672 937.002075,1762.183853 915.344894C1783.841034 893.687714,1796.010651 864.315720,1796.010651 833.685516Z" style="stroke:rgb(25.500488%,41.000366%,88.400269%); stroke-width: 2.500000;stroke-linecap: round;stroke-linejoin: round;stroke-miterlimit: 10.000000;fill: none;"></path>
  <path d="M1744.275436 655.499420C1744.275436 624.869217,1732.105820 595.497223,1710.448639 573.840042C1688.791458 552.182861,1659.419464 540.013245,1628.789261 540.013245C1598.159058 540.013245,1568.787064 552.182861,1547.129883 573.840042C1525.472702 595.497223,1513.303085 624.869217,1513.303085 655.499420C1513.303085 686.129623,1525.472702 715.501617,1547.129883 737.158798C1568.787064 758.815979,1598.159058 770.985596,1628.789261 770.985596C1659.419464 770.985596,1688.791458 758.815979,1710.448639 737.158798C1732.105820 715.501617,1744.275436 686.129623,1744.275436 655.499420Z" style="stroke:rgb(25.500488%,41.000366%,88.400269%); stroke-width: 2.500000;stroke-linecap: round;stroke-linejoin: round;stroke-miterlimit: 10.000000;fill: none;"></path>
  <path d="M1680.174118 510.103607C1680.174118 479.473404,1668.004501 450.101410,1646.347321 428.444229C1624.690140 406.787048,1595.318146 394.617432,1564.687943 394.617432C1534.057739 394.617432,1504.685745 406.787048,1483.028564 428.444229C1461.371384 450.101410,1449.201767 479.473404,1449.201767 510.103607C1449.201767 540.733810,1461.371384 570.105804,1483.028564 591.762985C1504.685745 613.420166,1534.057739 625.589783,1564.687943 625.589783C1595.318146 625.589783,1624.690140 613.420166,1646.347321 591.762985C1668.004501 570.105804,1680.174118 540.733810,1680.174118 510.103607Z" style="stroke:rgb(25.500488%,41.000366%,88.400269%); stroke-width: 2.500000;stroke-linecap: round;stroke-linejoin: round;stroke-miterlimit: 10.000000;fill: none;"></path>
  <path d="M1578.286758 328.751373C1578.286758 298.121170,1566.117142 268.749176,1544.459961 247.091995C1522.802780 225.434814,1493.430786 213.265198,1462.800583 213.265198C1432.170380 213.265198,1402.798386 225.434814,1381.141205 247.091995C1359.484024 268.749176,1347.314407 298.121170,1347.314407 328.751373C1347.314407 359.381577,1359.484024 388.753571,1381.141205 410.410751C1402.798386 432.067932,1432.170380 444.237549,1462.800583 444.237549C1493.430786 444.237549,1522.802780 432.067932,1544.459961 410.410751C1566.117142 388.753571,1578.286758 359.381577,1578.286758 328.751373Z" style="stroke:rgb(25.500488%,41.000366%,88.400269%); stroke-width: 2.500000;stroke-linecap: round;stroke-linejoin: round;stroke-miterlimit: 10.000000;fill: none;"></path>
  <path d="M1730.456009 1333.559006C1730.456009 1302.928802,1718.286392 1273.556808,1696.629211 1251.899628C1674.972031 1230.242447,1645.600037 1218.072830,1614.969833 1218.072830C1584.339630 1218.072830,1554.967636 1230.242447,1533.310455 1251.899628C1511.653275 1273.556808,1499.483658 1302.928802,1499.483658 1333.559006C1499.483658 1364.189209,1511.653275 1393.561203,1533.310455 1415.218384C1554.967636 1436.875565,1584.339630 1449.045181,1614.969833 1449.045181C1645.600037 1449.045181,1674.972031 1436.875565,1696.629211 1415.218384C1718.286392 1393.561203,1730.456009 1364.189209,1730.456009 1333.559006Z" style="stroke:rgb(25.500488%,41.000366%,88.400269%); stroke-width: 2.500000;stroke-linecap: round;stroke-linejoin: round;stroke-miterlimit: 10.000000;fill: none;"></path>
  <path d="M1721.230103 1161.666260C1721.230103 1131.036057,1709.060486 1101.664062,1687.403305 1080.006882C1665.746124 1058.349701,1636.374130 1046.180084,1605.743927 1046.180084C1575.113724 1046.180084,1545.741730 1058.349701,1524.084549 1080.006882C1502.427368 1101.664062,1490.257751 1131.036057,1490.257751 1161.666260C1490.257751 1192.296463,1502.427368 1221.668457,1524.084549 1243.325638C1545.741730 1264.982819,1575.113724 1277.152435,1605.743927 1277.152435C1636.374130 1277.152435,1665.746124 1264.982819,1687.403305 1243.325638C1709.060486 1221.668457,1721.230103 1192.296463,1721.230103 1161.666260Z" style="stroke:rgb(25.500488%,41.000366%,88.400269%); stroke-width: 2.500000;stroke-linecap: round;stroke-linejoin: round;stroke-miterlimit: 10.000000;fill: none;"></path>
  <path d="M1650.147705 976.901352C1650.147705 946.271149,1637.978088 916.899155,1616.320908 895.241974C1594.663727 873.584793,1565.291733 861.415176,1534.661530 861.415176C1504.031326 861.415176,1474.659332 873.584793,1453.002151 895.241974C1431.344971 916.899155,1419.175354 946.271149,1419.175354 976.901352C1419.175354 1007.531555,1431.344971 1036.903549,1453.002151 1058.560730C1474.659332 1080.217911,1504.031326 1092.387527,1534.661530 1092.387527C1565.291733 1092.387527,1594.663727 1080.217911,1616.320908 1058.560730C1637.978088 1036.903549,1650.147705 1007.531555,1650.147705 976.901352Z" style="stroke:rgb(25.500488%,41.000366%,88.400269%); stroke-width: 2.500000;stroke-linecap: round;stroke-linejoin: round;stroke-miterlimit: 10.000000;fill: none;"></path>
  <path d="M1593.494598 797.002426C1593.494598 766.372223,1581.324982 737.000229,1559.667801 715.343048C1538.010620 693.685867,1508.638626 681.516251,1478.008423 681.516251C1447.378220 681.516251,1418.006226 693.685867,1396.349045 715.343048C1374.691864 737.000229,1362.522247 766.372223,1362.522247 797.002426C1362.522247 827.632629,1374.691864 857.004623,1396.349045 878.661804C1418.006226 900.318985,1447.378220 912.488602,1478.008423 912.488602C1508.638626 912.488602,1538.010620 900.318985,1559.667801 878.661804C1581.324982 857.004623,1593.494598 827.632629,1593.494598 797.002426Z" style="stroke:rgb(25.500488%,41.000366%,88.400269%); stroke-width: 2.500000;stroke-linecap: round;stroke-linejoin: round;stroke-miterlimit: 10.000000;fill: none;"></path>
  <path d="M1538.671097 623.059479C1538.671097 592.429276,1526.501480 563.057281,1504.844299 541.400101C1483.187119 519.742920,1453.815125 507.573303,1423.184921 507.573303C1392.554718 507.573303,1363.182724 519.742920,1341.525543 541.400101C1319.868362 563.057281,1307.698746 592.429276,1307.698746 623.059479C1307.698746 653.689682,1319.868362 683.061676,1341.525543 704.718857C1363.182724 726.376038,1392.554718 738.545654,1423.184921 738.545654C1453.815125 738.545654,1483.187119 726.376038,1504.844299 704.718857C1526.501480 683.061676,1538.671097 653.689682,1538.671097 623.059479Z" style="stroke:rgb(25.500488%,41.000366%,88.400269%); stroke-width: 2.500000;stroke-linecap: round;stroke-linejoin: round;stroke-miterlimit: 10.000000;fill: none;"></path>
  <path d="M1469.989258 444.432205C1469.989258 413.802002,1457.819641 384.430008,1436.162460 362.772827C1414.505280 341.115646,1385.133286 328.946030,1354.503082 328.946030C1323.872879 328.946030,1294.500885 341.115646,1272.843704 362.772827C1251.186523 384.430008,1239.016907 413.802002,1239.016907 444.432205C1239.016907 475.062408,1251.186523 504.434402,1272.843704 526.091583C1294.500885 547.748764,1323.872879 559.918381,1354.503082 559.918381C1385.133286 559.918381,1414.505280 547.748764,1436.162460 526.091583C1457.819641 504.434402,1469.989258 475.062408,1469.989258 444.432205Z" style="stroke:rgb(25.500488%,41.000366%,88.400269%); stroke-width: 2.500000;stroke-linecap: round;stroke-linejoin: round;stroke-miterlimit: 10.000000;fill: none;"></path>
  <path d="M1397.414627 246.885956C1397.414627 216.255753,1385.245010 186.883759,1363.587830 165.226578C1341.930649 143.569397,1312.558655 131.399780,1281.928452 131.399780C1251.298248 131.399780,1221.926254 143.569397,1200.269073 165.226578C1178.611893 186.883759,1166.442276 216.255753,1166.442276 246.885956C1166.442276 277.516159,1178.611893 306.888153,1200.269073 328.545334C1221.926254 350.202515,1251.298248 362.372131,1281.928452 362.372131C1312.558655 362.372131,1341.930649 350.202515,1363.587830 328.545334C1385.245010 306.888153,1397.414627 277.516159,1397.414627 246.885956Z" style="stroke:rgb(25.500488%,41.000366%,88.400269%); stroke-width: 2.500000;stroke-linecap: round;stroke-linejoin: round;stroke-miterlimit: 10.000000;fill: none;"></path>
  <path d="M1570.708786 1465.044571C1570.708786 1434.414368,1558.539169 1405.042374,1536.881989 1383.385193C1515.224808 1361.728012,1485.852814 1349.558395,1455.222610 1349.558395C1424.592407 1349.558395,1395.220413 1361.728012,1373.563232 1383.385193C1351.906052 1405.042374,1339.736435 1434.414368,1339.736435 1465.044571C1339.736435 1495.674774,1351.906052 1525.046768,1373.563232 1546.703949C1395.220413 1568.361130,1424.592407 1580.530746,1455.222610 1580.530746C1485.852814 1580.530746,1515.224808 1568.361130,1536.881989 1546.703949C1558.539169 1525.046768,1570.708786 1495.674774,1570.708786 1465.044571Z" style="stroke:rgb(25.500488%,41.000366%,88.400269%); stroke-width: 2.500000;stroke-linecap: round;stroke-linejoin: round;stroke-miterlimit: 10.000000;fill: none;"></path>
  <path d="M1536.556015 1277.736359C1536.556015 1247.106155,1524.386398 1217.734161,1502.729218 1196.076981C1481.072037 1174.419800,1451.700043 1162.250183,1421.069839 1162.250183C1390.439636 1162.250183,1361.067642 1174.419800,1339.410461 1196.076981C1317.753281 1217.734161,1305.583664 1247.106155,1305.583664 1277.736359C1305.583664 1308.366562,1317.753281 1337.738556,1339.410461 1359.395737C1361.067642 1381.052917,1390.439636 1393.222534,1421.069839 1393.222534C1451.700043 1393.222534,1481.072037 1381.052917,1502.729218 1359.395737C1524.386398 1337.738556,1536.556015 1308.366562,1536.556015 1277.736359Z" style="stroke:rgb(25.500488%,41.000366%,88.400269%); stroke-width: 2.500000;stroke-linecap: round;stroke-linejoin: round;stroke-miterlimit: 10.000000;fill: none;"></path>
  <path d="M1517.598114 1116.496902C1517.598114 1085.866699,1505.428497 1056.494705,1483.771317 1034.837524C1462.114136 1013.180344,1432.742142 1001.010727,1402.111938 1001.010727C1371.481735 1001.010727,1342.109741 1013.180344,1320.452560 1034.837524C1298.795380 1056.494705,1286.625763 1085.866699,1286.625763 1116.496902C1286.625763 1147.127106,1298.795380 1176.499100,1320.452560 1198.156281C1342.109741 1219.813461,1371.481735 1231.983078,1402.111938 1231.983078C1432.742142 1231.983078,1462.114136 1219.813461,1483.771317 1198.156281C1505.428497 1176.499100,1517.598114 1147.127106,1517.598114 1116.496902Z" style="stroke:rgb(25.500488%,41.000366%,88.400269%); stroke-width: 2.500000;stroke-linecap: round;stroke-linejoin: round;stroke-miterlimit: 10.000000;fill: none;"></path>
  <path d="M1445.685257 932.834946C1445.685257 902.204742,1433.515640 872.832748,1411.858459 851.175568C1390.201279 829.518387,1360.829285 817.348770,1330.199081 817.348770C1299.568878 817.348770,1270.196884 829.518387,1248.539703 851.175568C1226.882523 872.832748,1214.712906 902.204742,1214.712906 932.834946C1214.712906 963.465149,1226.882523 992.837143,1248.539703 1014.494324C1270.196884 1036.151505,1299.568878 1048.321121,1330.199081 1048.321121C1360.829285 1048.321121,1390.201279 1036.151505,1411.858459 1014.494324C1433.515640 992.837143,1445.685257 963.465149,1445.685257 932.834946Z" style="stroke:rgb(25.500488%,41.000366%,88.400269%); stroke-width: 2.500000;stroke-linecap: round;stroke-linejoin: round;stroke-miterlimit: 10.000000;fill: none;"></path>
  <path d="M1391.977692 749.211914C1391.977692 718.581711,1379.808075 689.209717,1358.150894 667.552536C1336.493713 645.895355,1307.121719 633.725739,1276.491516 633.725739C1245.861313 633.725739,1216.489319 645.895355,1194.832138 667.552536C1173.174957 689.209717,1161.005341 718.581711,1161.005341 749.211914C1161.005341 779.842117,1173.174957 809.214111,1194.832138 830.871292C1216.489319 852.528473,1245.861313 864.698090,1276.491516 864.698090C1307.121719 864.698090,1336.493713 852.528473,1358.150894 830.871292C1379.808075 809.214111,1391.977692 779.842117,1391.977692 749.211914Z" style="stroke:rgb(25.500488%,41.000366%,88.400269%); stroke-width: 2.500000;stroke-linecap: round;stroke-linejoin: round;stroke-miterlimit: 10.000000;fill: none;"></path>
  <path d="M1329.498383 572.193649C1329.498383 541.563446,1317.328766 512.191452,1295.671585 490.534271C1274.014404 468.877090,1244.642410 456.707474,1214.012207 456.707474C1183.382004 456.707474,1154.010010 468.877090,1132.352829 490.534271C1110.695648 512.191452,1098.526031 541.563446,1098.526031 572.193649C1098.526031 602.823853,1110.695648 632.195847,1132.352829 653.853027C1154.010010 675.510208,1183.382004 687.679825,1214.012207 687.679825C1244.642410 687.679825,1274.014404 675.510208,1295.671585 653.853027C1317.328766 632.195847,1329.498383 602.823853,1329.498383 572.193649Z" style="stroke:rgb(25.500488%,41.000366%,88.400269%); stroke-width: 2.500000;stroke-linecap: round;stroke-linejoin: round;stroke-miterlimit: 10.000000;fill: none;"></path>
  <path d="M1274.558090 377.307480C1274.558090 346.677277,1262.388474 317.305283,1240.731293 295.648102C1219.074112 273.990921,1189.702118 261.821304,1159.071915 261.821304C1128.441711 261.821304,1099.069717 273.990921,1077.412537 295.648102C1055.755356 317.305283,1043.585739 346.677277,1043.585739 377.307480C1043.585739 407.937683,1055.755356 437.309677,1077.412537 458.966858C1099.069717 480.624039,1128.441711 492.793655,1159.071915 492.793655C1189.702118 492.793655,1219.074112 480.624039,1240.731293 458.966858C1262.388474 437.309677,1274.558090 407.937683,1274.558090 377.307480Z" style="stroke:rgb(25.500488%,41.000366%,88.400269%); stroke-width: 2.500000;stroke-linecap: round;stroke-linejoin: round;stroke-miterlimit: 10.000000;fill: none;"></path>
  <path d="M1223.341919 185.250061C1223.341919 154.619858,1211.172302 125.247864,1189.515121 103.590683C1167.857941 81.933502,1138.485947 69.763885,1107.855743 69.763885C1077.225540 69.763885,1047.853546 81.933502,1026.196365 103.590683C1004.539185 125.247864,992.369568 154.619858,992.369568 185.250061C992.369568 215.880264,1004.539185 245.252258,1026.196365 266.909439C1047.853546 288.566620,1077.225540 300.736237,1107.855743 300.736237C1138.485947 300.736237,1167.857941 288.566620,1189.515121 266.909439C1211.172302 245.252258,1223.341919 215.880264,1223.341919 185.250061Z" style="stroke:rgb(25.500488%,41.000366%,88.400269%); stroke-width: 2.500000;stroke-linecap: round;stroke-linejoin: round;stroke-miterlimit: 10.000000;fill: none;"></path>
  <path d="M1437.808838 1621.495911C1437.808838 1590.865707,1425.639221 1561.493713,1403.982040 1539.836533C1382.324860 1518.179352,1352.952866 1506.009735,1322.322662 1506.009735C1291.692459 1506.009735,1262.320465 1518.179352,1240.663284 1539.836533C1219.006104 1561.493713,1206.836487 1590.865707,1206.836487 1621.495911C1206.836487 1652.126114,1219.006104 1681.498108,1240.663284 1703.155289C1262.320465 1724.812469,1291.692459 1736.982086,1322.322662 1736.982086C1352.952866 1736.982086,1382.324860 1724.812469,1403.982040 1703.155289C1425.639221 1681.498108,1437.808838 1652.126114,1437.808838 1621.495911Z" style="stroke:rgb(25.500488%,41.000366%,88.400269%); stroke-width: 2.500000;stroke-linecap: round;stroke-linejoin: round;stroke-miterlimit: 10.000000;fill: none;"></path>
  <path d="M1382.518219 1427.063889C1382.518219 1396.433685,1370.348602 1367.061691,1348.691422 1345.404510C1327.034241 1323.747330,1297.662247 1311.577713,1267.032043 1311.577713C1236.401840 1311.577713,1207.029846 1323.747330,1185.372665 1345.404510C1163.715485 1367.061691,1151.545868 1396.433685,1151.545868 1427.063889C1151.545868 1457.694092,1163.715485 1487.066086,1185.372665 1508.723267C1207.029846 1530.380447,1236.401840 1542.550064,1267.032043 1542.550064C1297.662247 1542.550064,1327.034241 1530.380447,1348.691422 1508.723267C1370.348602 1487.066086,1382.518219 1457.694092,1382.518219 1427.063889Z" style="stroke:rgb(25.500488%,41.000366%,88.400269%); stroke-width: 2.500000;stroke-linecap: round;stroke-linejoin: round;stroke-miterlimit: 10.000000;fill: none;"></path>
  <path d="M1347.015945 1241.131134C1347.015945 1210.500931,1334.846329 1181.128937,1313.189148 1159.471756C1291.531967 1137.814575,1262.159973 1125.644958,1231.529770 1125.644958C1200.899567 1125.644958,1171.527573 1137.814575,1149.870392 1159.471756C1128.213211 1181.128937,1116.043594 1210.500931,1116.043594 1241.131134C1116.043594 1271.761337,1128.213211 1301.133331,1149.870392 1322.790512C1171.527573 1344.447693,1200.899567 1356.617310,1231.529770 1356.617310C1262.159973 1356.617310,1291.531967 1344.447693,1313.189148 1322.790512C1334.846329 1301.133331,1347.015945 1271.761337,1347.015945 1241.131134Z" style="stroke:rgb(25.500488%,41.000366%,88.400269%); stroke-width: 2.500000;stroke-linecap: round;stroke-linejoin: round;stroke-miterlimit: 10.000000;fill: none;"></path>
  <path d="M1312.837219 1071.197769C1312.837219 1040.567566,1300.667603 1011.195572,1279.010422 989.538391C1257.353241 967.881210,1227.981247 955.711594,1197.351044 955.711594C1166.720840 955.711594,1137.348846 967.881210,1115.691666 989.538391C1094.034485 1011.195572,1081.864868 1040.567566,1081.864868 1071.197769C1081.864868 1101.827972,1094.034485 1131.199966,1115.691666 1152.857147C1137.348846 1174.514328,1166.720840 1186.683945,1197.351044 1186.683945C1227.981247 1186.683945,1257.353241 1174.514328,1279.010422 1152.857147C1300.667603 1131.199966,1312.837219 1101.827972,1312.837219 1071.197769Z" style="stroke:rgb(25.500488%,41.000366%,88.400269%); stroke-width: 2.500000;stroke-linecap: round;stroke-linejoin: round;stroke-miterlimit: 10.000000;fill: none;"></path>
  <path d="M1249.851837 877.155029C1249.851837 846.524826,1237.682220 817.152832,1216.025040 795.495651C1194.367859 773.838470,1164.995865 761.668854,1134.365662 761.668854C1103.735458 761.668854,1074.363464 773.838470,1052.706284 795.495651C1031.049103 817.152832,1018.879486 846.524826,1018.879486 877.155029C1018.879486 907.785233,1031.049103 937.157227,1052.706284 958.814407C1074.363464 980.471588,1103.735458 992.641205,1134.365662 992.641205C1164.995865 992.641205,1194.367859 980.471588,1216.025040 958.814407C1237.682220 937.157227,1249.851837 907.785233,1249.851837 877.155029Z" style="stroke:rgb(25.500488%,41.000366%,88.400269%); stroke-width: 2.500000;stroke-linecap: round;stroke-linejoin: round;stroke-miterlimit: 10.000000;fill: none;"></path>
  <path d="M1182.882828 698.917038C1182.882828 668.286835,1170.713211 638.914841,1149.056030 617.257660C1127.398849 595.600479,1098.026855 583.430862,1067.396652 583.430862C1036.766449 583.430862,1007.394455 595.600479,985.737274 617.257660C964.080093 638.914841,951.910477 668.286835,951.910477 698.917038C951.910477 729.547241,964.080093 758.919235,985.737274 780.576416C1007.394455 802.233597,1036.766449 814.403214,1067.396652 814.403214C1098.026855 814.403214,1127.398849 802.233597,1149.056030 780.576416C1170.713211 758.919235,1182.882828 729.547241,1182.882828 698.917038Z" style="stroke:rgb(25.500488%,41.000366%,88.400269%); stroke-width: 2.500000;stroke-linecap: round;stroke-linejoin: round;stroke-miterlimit: 10.000000;fill: none;"></path>
  <path d="M1134.158035 505.652847C1134.158035 475.022644,1121.988419 445.650650,1100.331238 423.993469C1078.674057 402.336288,1049.302063 390.166672,1018.671860 390.166672C988.041656 390.166672,958.669662 402.336288,937.012482 423.993469C915.355301 445.650650,903.185684 475.022644,903.185684 505.652847C903.185684 536.283051,915.355301 565.655045,937.012482 587.312225C958.669662 608.969406,988.041656 621.139023,1018.671860 621.139023C1049.302063 621.139023,1078.674057 608.969406,1100.331238 587.312225C1121.988419 565.655045,1134.158035 536.283051,1134.158035 505.652847Z" style="stroke:rgb(25.500488%,41.000366%,88.400269%); stroke-width: 2.500000;stroke-linecap: round;stroke-linejoin: round;stroke-miterlimit: 10.000000;fill: none;"></path>
  <path d="M1077.725525 312.245941C1077.725525 281.615738,1065.555908 252.243744,1043.898727 230.586563C1022.241547 208.929382,992.869553 196.759766,962.239349 196.759766C931.609146 196.759766,902.237152 208.929382,880.579971 230.586563C858.922791 252.243744,846.753174 281.615738,846.753174 312.245941C846.753174 342.876144,858.922791 372.248138,880.579971 393.905319C902.237152 415.562500,931.609146 427.732117,962.239349 427.732117C992.869553 427.732117,1022.241547 415.562500,1043.898727 393.905319C1065.555908 372.248138,1077.725525 342.876144,1077.725525 312.245941Z" style="stroke:rgb(25.500488%,41.000366%,88.400269%); stroke-width: 2.500000;stroke-linecap: round;stroke-linejoin: round;stroke-miterlimit: 10.000000;fill: none;"></path>
  <path d="M1030.804398 116.023239C1030.804398 85.393036,1018.634781 56.021042,996.977600 34.363861C975.320419 12.706680,945.948425 0.537064,915.318222 0.537064C884.688019 0.537064,855.316025 12.706680,833.658844 34.363861C812.001663 56.021042,799.832047 85.393036,799.832047 116.023239C799.832047 146.653442,812.001663 176.025436,833.658844 197.682617C855.316025 219.339798,884.688019 231.509415,915.318222 231.509415C945.948425 231.509415,975.320419 219.339798,996.977600 197.682617C1018.634781 176.025436,1030.804398 146.653442,1030.804398 116.023239Z" style="stroke:rgb(25.500488%,41.000366%,88.400269%); stroke-width: 2.500000;stroke-linecap: round;stroke-linejoin: round;stroke-miterlimit: 10.000000;fill: none;"></path>
  <path d="M1263.619354 1608.325287C1263.619354 1577.695084,1251.449738 1548.323090,1229.792557 1526.665909C1208.135376 1505.008728,1178.763382 1492.839111,1148.133179 1492.839111C1117.502975 1492.839111,1088.130981 1505.008728,1066.473801 1526.665909C1044.816620 1548.323090,1032.647003 1577.695084,1032.647003 1608.325287C1032.647003 1638.955490,1044.816620 1668.327484,1066.473801 1689.984665C1088.130981 1711.641846,1117.502975 1723.811462,1148.133179 1723.811462C1178.763382 1723.811462,1208.135376 1711.641846,1229.792557 1689.984665C1251.449738 1668.327484,1263.619354 1638.955490,1263.619354 1608.325287Z" style="stroke:rgb(25.500488%,41.000366%,88.400269%); stroke-width: 2.500000;stroke-linecap: round;stroke-linejoin: round;stroke-miterlimit: 10.000000;fill: none;"></path>
  <path d="M1216.425720 1406.574829C1216.425720 1375.944626,1204.256104 1346.572632,1182.598923 1324.915451C1160.941742 1303.258270,1131.569748 1291.088654,1100.939545 1291.088654C1070.309341 1291.088654,1040.937347 1303.258270,1019.280167 1324.915451C997.622986 1346.572632,985.453369 1375.944626,985.453369 1406.574829C985.453369 1437.205032,997.622986 1466.577026,1019.280167 1488.234207C1040.937347 1509.891388,1070.309341 1522.061005,1100.939545 1522.061005C1131.569748 1522.061005,1160.941742 1509.891388,1182.598923 1488.234207C1204.256104 1466.577026,1216.425720 1437.205032,1216.425720 1406.574829Z" style="stroke:rgb(25.500488%,41.000366%,88.400269%); stroke-width: 2.500000;stroke-linecap: round;stroke-linejoin: round;stroke-miterlimit: 10.000000;fill: none;"></path>
  <path d="M1172.644791 1204.279373C1172.644791 1173.649170,1160.475174 1144.277176,1138.817993 1122.619995C1117.160812 1100.962814,1087.788818 1088.793198,1057.158615 1088.793198C1026.528412 1088.793198,997.156418 1100.962814,975.499237 1122.619995C953.842056 1144.277176,941.672440 1173.649170,941.672440 1204.279373C941.672440 1234.909576,953.842056 1264.281570,975.499237 1285.938751C997.156418 1307.595932,1026.528412 1319.765549,1057.158615 1319.765549C1087.788818 1319.765549,1117.160812 1307.595932,1138.817993 1285.938751C1160.475174 1264.281570,1172.644791 1234.909576,1172.644791 1204.279373Z" style="stroke:rgb(25.500488%,41.000366%,88.400269%); stroke-width: 2.500000;stroke-linecap: round;stroke-linejoin: round;stroke-miterlimit: 10.000000;fill: none;"></path>
  <path d="M1116.225250 1011.560181C1116.225250 980.929977,1104.055634 951.557983,1082.398453 929.900803C1060.741272 908.243622,1031.369278 896.074005,1000.739075 896.074005C970.108871 896.074005,940.736877 908.243622,919.079697 929.900803C897.422516 951.557983,885.252899 980.929977,885.252899 1011.560181C885.252899 1042.190384,897.422516 1071.562378,919.079697 1093.219559C940.736877 1114.876740,970.108871 1127.046356,1000.739075 1127.046356C1031.369278 1127.046356,1060.741272 1114.876740,1082.398453 1093.219559C1104.055634 1071.562378,1116.225250 1042.190384,1116.225250 1011.560181Z" style="stroke:rgb(25.500488%,41.000366%,88.400269%); stroke-width: 2.500000;stroke-linecap: round;stroke-linejoin: round;stroke-miterlimit: 10.000000;fill: none;"></path>
  <path d="M1045.934387 825.835052C1045.934387 795.204849,1033.764771 765.832855,1012.107590 744.175674C990.450409 722.518494,961.078415 710.348877,930.448212 710.348877C899.818008 710.348877,870.446014 722.518494,848.788834 744.175674C827.131653 765.832855,814.962036 795.204849,814.962036 825.835052C814.962036 856.465256,827.131653 885.837250,848.788834 907.494431C870.446014 929.151611,899.818008 941.321228,930.448212 941.321228C961.078415 941.321228,990.450409 929.151611,1012.107590 907.494431C1033.764771 885.837250,1045.934387 856.465256,1045.934387 825.835052Z" style="stroke:rgb(25.500488%,41.000366%,88.400269%); stroke-width: 2.500000;stroke-linecap: round;stroke-linejoin: round;stroke-miterlimit: 10.000000;fill: none;"></path>
  <path d="M1000.544418 618.920135C1000.544418 588.289932,988.374802 558.917938,966.717621 537.260757C945.060440 515.603577,915.688446 503.433960,885.058243 503.433960C854.428040 503.433960,825.056046 515.603577,803.398865 537.260757C781.741684 558.917938,769.572067 588.289932,769.572067 618.920135C769.572067 649.550339,781.741684 678.922333,803.398865 700.579514C825.056046 722.236694,854.428040 734.406311,885.058243 734.406311C915.688446 734.406311,945.060440 722.236694,966.717621 700.579514C988.374802 678.922333,1000.544418 649.550339,1000.544418 618.920135Z" style="stroke:rgb(25.500488%,41.000366%,88.400269%); stroke-width: 2.500000;stroke-linecap: round;stroke-linejoin: round;stroke-miterlimit: 10.000000;fill: none;"></path>
  <path d="M943.021927 417.584915C943.021927 386.954712,930.852310 357.582718,909.195129 335.925537C887.537949 314.268356,858.165955 302.098740,827.535751 302.098740C796.905548 302.098740,767.533554 314.268356,745.876373 335.925537C724.219193 357.582718,712.049576 386.954712,712.049576 417.584915C712.049576 448.215118,724.219193 477.587112,745.876373 499.244293C767.533554 520.901474,796.905548 533.071091,827.535751 533.071091C858.165955 533.071091,887.537949 520.901474,909.195129 499.244293C930.852310 477.587112,943.021927 448.215118,943.021927 417.584915Z" style="stroke:rgb(25.500488%,41.000366%,88.400269%); stroke-width: 2.500000;stroke-linecap: round;stroke-linejoin: round;stroke-miterlimit: 10.000000;fill: none;"></path>
  <path d="M887.121429 216.301575C887.121429 185.671371,874.951813 156.299377,853.294632 134.642197C831.637451 112.985016,802.265457 100.815399,771.635254 100.815399C741.005051 100.815399,711.633057 112.985016,689.975876 134.642197C668.318695 156.299377,656.149078 185.671371,656.149078 216.301575C656.149078 246.931778,668.318695 276.303772,689.975876 297.960953C711.633057 319.618134,741.005051 331.787750,771.635254 331.787750C802.265457 331.787750,831.637451 319.618134,853.294632 297.960953C874.951813 276.303772,887.121429 246.931778,887.121429 216.301575Z" style="stroke:rgb(25.500488%,41.000366%,88.400269%); stroke-width: 2.500000;stroke-linecap: round;stroke-linejoin: round;stroke-miterlimit: 10.000000;fill: none;"></path>
  <path d="M1119.598999 1735.035690C1119.598999 1704.405487,1107.429382 1675.033493,1085.772202 1653.376312C1064.115021 1631.719131,1034.743027 1619.549515,1004.112823 1619.549515C973.482620 1619.549515,944.110626 1631.719131,922.453445 1653.376312C900.796265 1675.033493,888.626648 1704.405487,888.626648 1735.035690C888.626648 1765.665894,900.796265 1795.037888,922.453445 1816.695068C944.110626 1838.352249,973.482620 1850.521866,1004.112823 1850.521866C1034.743027 1850.521866,1064.115021 1838.352249,1085.772202 1816.695068C1107.429382 1795.037888,1119.598999 1765.665894,1119.598999 1735.035690Z" style="stroke:rgb(25.500488%,41.000366%,88.400269%); stroke-width: 2.500000;stroke-linecap: round;stroke-linejoin: round;stroke-miterlimit: 10.000000;fill: none;"></path>
  <path d="M1075.999725 1535.387329C1075.999725 1504.757126,1063.830109 1475.385132,1042.172928 1453.727951C1020.515747 1432.070770,991.143753 1419.901154,960.513550 1419.901154C929.883347 1419.901154,900.511353 1432.070770,878.854172 1453.727951C857.196991 1475.385132,845.027374 1504.757126,845.027374 1535.387329C845.027374 1566.017532,857.196991 1595.389526,878.854172 1617.046707C900.511353 1638.703888,929.883347 1650.873505,960.513550 1650.873505C991.143753 1650.873505,1020.515747 1638.703888,1042.172928 1617.046707C1063.830109 1595.389526,1075.999725 1566.017532,1075.999725 1535.387329Z" style="stroke:rgb(25.500488%,41.000366%,88.400269%); stroke-width: 2.500000;stroke-linecap: round;stroke-linejoin: round;stroke-miterlimit: 10.000000;fill: none;"></path>
  <path d="M1030.869278 1337.283112C1030.869278 1306.652908,1018.699661 1277.280914,997.042480 1255.623734C975.385300 1233.966553,946.013306 1221.796936,915.383102 1221.796936C884.752899 1221.796936,855.380905 1233.966553,833.723724 1255.623734C812.066544 1277.280914,799.896927 1306.652908,799.896927 1337.283112C799.896927 1367.913315,812.066544 1397.285309,833.723724 1418.942490C855.380905 1440.599670,884.752899 1452.769287,915.383102 1452.769287C946.013306 1452.769287,975.385300 1440.599670,997.042480 1418.942490C1018.699661 1397.285309,1030.869278 1367.913315,1030.869278 1337.283112Z" style="stroke:rgb(25.500488%,41.000366%,88.400269%); stroke-width: 2.500000;stroke-linecap: round;stroke-linejoin: round;stroke-miterlimit: 10.000000;fill: none;"></path>
  <path d="M976.110657 1144.979156C976.110657 1114.348953,963.941040 1084.976959,942.283859 1063.319778C920.626678 1041.662598,891.254684 1029.492981,860.624481 1029.492981C829.994278 1029.492981,800.622284 1041.662598,778.965103 1063.319778C757.307922 1084.976959,745.138306 1114.348953,745.138306 1144.979156C745.138306 1175.609360,757.307922 1204.981354,778.965103 1226.638535C800.622284 1248.295715,829.994278 1260.465332,860.624481 1260.465332C891.254684 1260.465332,920.626678 1248.295715,942.283859 1226.638535C963.941040 1204.981354,976.110657 1175.609360,976.110657 1144.979156Z" style="stroke:rgb(25.500488%,41.000366%,88.400269%); stroke-width: 2.500000;stroke-linecap: round;stroke-linejoin: round;stroke-miterlimit: 10.000000;fill: none;"></path>
  <path d="M912.359695 960.616501C912.359695 929.986298,900.190079 900.614304,878.532898 878.957123C856.875717 857.299942,827.503723 845.130325,796.873520 845.130325C766.243317 845.130325,736.871323 857.299942,715.214142 878.957123C693.556961 900.614304,681.387344 929.986298,681.387344 960.616501C681.387344 991.246704,693.556961 1020.618698,715.214142 1042.275879C736.871323 1063.933060,766.243317 1076.102676,796.873520 1076.102676C827.503723 1076.102676,856.875717 1063.933060,878.532898 1042.275879C900.190079 1020.618698,912.359695 991.246704,912.359695 960.616501Z" style="stroke:rgb(25.500488%,41.000366%,88.400269%); stroke-width: 2.500000;stroke-linecap: round;stroke-linejoin: round;stroke-miterlimit: 10.000000;fill: none;"></path>
  <path d="M869.149704 770.038345C869.149704 739.408142,856.980087 710.036148,835.322906 688.378967C813.665726 666.721786,784.293732 654.552170,753.663528 654.552170C723.033325 654.552170,693.661331 666.721786,672.004150 688.378967C650.346970 710.036148,638.177353 739.408142,638.177353 770.038345C638.177353 800.668549,650.346970 830.040543,672.004150 851.697723C693.661331 873.354904,723.033325 885.524521,753.663528 885.524521C784.293732 885.524521,813.665726 873.354904,835.322906 851.697723C856.980087 830.040543,869.149704 800.668549,869.149704 770.038345Z" style="stroke:rgb(25.500488%,41.000366%,88.400269%); stroke-width: 2.500000;stroke-linecap: round;stroke-linejoin: round;stroke-miterlimit: 10.000000;fill: none;"></path>
  <path d="M816.999252 572.816498C816.999252 542.186295,804.829636 512.814301,783.172455 491.157120C761.515274 469.499939,732.143280 457.330322,701.513077 457.330322C670.882874 457.330322,641.510880 469.499939,619.853699 491.157120C598.196518 512.814301,586.026901 542.186295,586.026901 572.816498C586.026901 603.446701,598.196518 632.818695,619.853699 654.475876C641.510880 676.133057,670.882874 688.302673,701.513077 688.302673C732.143280 688.302673,761.515274 676.133057,783.172455 654.475876C804.829636 632.818695,816.999252 603.446701,816.999252 572.816498Z" style="stroke:rgb(25.500488%,41.000366%,88.400269%); stroke-width: 2.500000;stroke-linecap: round;stroke-linejoin: round;stroke-miterlimit: 10.000000;fill: none;"></path>
  <path d="M761.345291 375.374054C761.345291 344.743851,749.175674 315.371857,727.518494 293.714676C705.861313 272.057495,676.489319 259.887878,645.859116 259.887878C615.228912 259.887878,585.856918 272.057495,564.199738 293.714676C542.542557 315.371857,530.372940 344.743851,530.372940 375.374054C530.372940 406.004257,542.542557 435.376251,564.199738 457.033432C585.856918 478.690613,615.228912 490.860229,645.859116 490.860229C676.489319 490.860229,705.861313 478.690613,727.518494 457.033432C749.175674 435.376251,761.345291 406.004257,761.345291 375.374054Z" style="stroke:rgb(25.500488%,41.000366%,88.400269%); stroke-width: 2.500000;stroke-linecap: round;stroke-linejoin: round;stroke-miterlimit: 10.000000;fill: none;"></path>
  <path d="M700.734512 180.747406C700.734512 150.117203,688.564896 120.745209,666.907715 99.088028C645.250534 77.430847,615.878540 65.261230,585.248337 65.261230C554.618134 65.261230,525.246140 77.430847,503.588959 99.088028C481.931778 120.745209,469.762161 150.117203,469.762161 180.747406C469.762161 211.377609,481.931778 240.749603,503.588959 262.406784C525.246140 284.063965,554.618134 296.233582,585.248337 296.233582C615.878540 296.233582,645.250534 284.063965,666.907715 262.406784C688.564896 240.749603,700.734512 211.377609,700.734512 180.747406Z" style="stroke:rgb(25.500488%,41.000366%,88.400269%); stroke-width: 2.500000;stroke-linecap: round;stroke-linejoin: round;stroke-miterlimit: 10.000000;fill: none;"></path>
  <path d="M933.471603 1675.839294C933.471603 1645.209091,921.301987 1615.837097,899.644806 1594.179916C877.987625 1572.522736,848.615631 1560.353119,817.985428 1560.353119C787.355225 1560.353119,757.983231 1572.522736,736.326050 1594.179916C714.668869 1615.837097,702.499252 1645.209091,702.499252 1675.839294C702.499252 1706.469498,714.668869 1735.841492,736.326050 1757.498672C757.983231 1779.155853,787.355225 1791.325470,817.985428 1791.325470C848.615631 1791.325470,877.987625 1779.155853,899.644806 1757.498672C921.301987 1735.841492,933.471603 1706.469498,933.471603 1675.839294Z" style="stroke:rgb(25.500488%,41.000366%,88.400269%); stroke-width: 2.500000;stroke-linecap: round;stroke-linejoin: round;stroke-miterlimit: 10.000000;fill: none;"></path>
  <path d="M888.120575 1477.670197C888.120575 1447.039993,875.950958 1417.667999,854.293777 1396.010818C832.636597 1374.353638,803.264603 1362.184021,772.634399 1362.184021C742.004196 1362.184021,712.632202 1374.353638,690.975021 1396.010818C669.317841 1417.667999,657.148224 1447.039993,657.148224 1477.670197C657.148224 1508.300400,669.317841 1537.672394,690.975021 1559.329575C712.632202 1580.986755,742.004196 1593.156372,772.634399 1593.156372C803.264603 1593.156372,832.636597 1580.986755,854.293777 1559.329575C875.950958 1537.672394,888.120575 1508.300400,888.120575 1477.670197Z" style="stroke:rgb(25.500488%,41.000366%,88.400269%); stroke-width: 2.500000;stroke-linecap: round;stroke-linejoin: round;stroke-miterlimit: 10.000000;fill: none;"></path>
  <path d="M836.138809 1286.092896C836.138809 1255.462692,823.969193 1226.090698,802.312012 1204.433517C780.654831 1182.776337,751.282837 1170.606720,720.652634 1170.606720C690.022430 1170.606720,660.650436 1182.776337,638.993256 1204.433517C617.336075 1226.090698,605.166458 1255.462692,605.166458 1286.092896C605.166458 1316.723099,617.336075 1346.095093,638.993256 1367.752274C660.650436 1389.409454,690.022430 1401.579071,720.652634 1401.579071C751.282837 1401.579071,780.654831 1389.409454,802.312012 1367.752274C823.969193 1346.095093,836.138809 1316.723099,836.138809 1286.092896Z" style="stroke:rgb(25.500488%,41.000366%,88.400269%); stroke-width: 2.500000;stroke-linecap: round;stroke-linejoin: round;stroke-miterlimit: 10.000000;fill: none;"></path>
  <path d="M774.035797 1102.119522C774.035797 1071.489319,761.866180 1042.117325,740.209000 1020.460144C718.551819 998.802963,689.179825 986.633347,658.549622 986.633347C627.919418 986.633347,598.547424 998.802963,576.890244 1020.460144C555.233063 1042.117325,543.063446 1071.489319,543.063446 1102.119522C543.063446 1132.749725,555.233063 1162.121719,576.890244 1183.778900C598.547424 1205.436081,627.919418 1217.605698,658.549622 1217.605698C689.179825 1217.605698,718.551819 1205.436081,740.209000 1183.778900C761.866180 1162.121719,774.035797 1132.749725,774.035797 1102.119522Z" style="stroke:rgb(25.500488%,41.000366%,88.400269%); stroke-width: 2.500000;stroke-linecap: round;stroke-linejoin: round;stroke-miterlimit: 10.000000;fill: none;"></path>
  <path d="M718.952774 908.050827C718.952774 877.420624,706.783157 848.048630,685.125977 826.391449C663.468796 804.734268,634.096802 792.564651,603.466599 792.564651C572.836395 792.564651,543.464401 804.734268,521.807220 826.391449C500.150040 848.048630,487.980423 877.420624,487.980423 908.050827C487.980423 938.681030,500.150040 968.053024,521.807220 989.710205C543.464401 1011.367386,572.836395 1023.537003,603.466599 1023.537003C634.096802 1023.537003,663.468796 1011.367386,685.125977 989.710205C706.783157 968.053024,718.952774 938.681030,718.952774 908.050827Z" style="stroke:rgb(25.500488%,41.000366%,88.400269%); stroke-width: 2.500000;stroke-linecap: round;stroke-linejoin: round;stroke-miterlimit: 10.000000;fill: none;"></path>
  <path d="M678.960831 714.384399C678.960831 683.754196,666.791214 654.382202,645.134033 632.725021C623.476852 611.067841,594.104858 598.898224,563.474655 598.898224C532.844452 598.898224,503.472458 611.067841,481.815277 632.725021C460.158096 654.382202,447.988480 683.754196,447.988480 714.384399C447.988480 745.014603,460.158096 774.386597,481.815277 796.043777C503.472458 817.700958,532.844452 829.870575,563.474655 829.870575C594.104858 829.870575,623.476852 817.700958,645.134033 796.043777C666.791214 774.386597,678.960831 745.014603,678.960831 714.384399Z" style="stroke:rgb(25.500488%,41.000366%,88.400269%); stroke-width: 2.500000;stroke-linecap: round;stroke-linejoin: round;stroke-miterlimit: 10.000000;fill: none;"></path>
  <path d="M626.330261 517.616699C626.330261 486.986496,614.160645 457.614502,592.503464 435.957321C570.846283 414.300140,541.474289 402.130524,510.844086 402.130524C480.213882 402.130524,450.841888 414.300140,429.184708 435.957321C407.527527 457.614502,395.357910 486.986496,395.357910 517.616699C395.357910 548.246902,407.527527 577.618896,429.184708 599.276077C450.841888 620.933258,480.213882 633.102875,510.844086 633.102875C541.474289 633.102875,570.846283 620.933258,592.503464 599.276077C614.160645 577.618896,626.330261 548.246902,626.330261 517.616699Z" style="stroke:rgb(25.500488%,41.000366%,88.400269%); stroke-width: 2.500000;stroke-linecap: round;stroke-linejoin: round;stroke-miterlimit: 10.000000;fill: none;"></path>
  <path d="M567.432312 323.314453C567.432312 292.684250,555.262695 263.312256,533.605515 241.655075C511.948334 219.997894,482.576340 207.828278,451.946136 207.828278C421.315933 207.828278,391.943939 219.997894,370.286758 241.655075C348.629578 263.312256,336.459961 292.684250,336.459961 323.314453C336.459961 353.944656,348.629578 383.316650,370.286758 404.973831C391.943939 426.631012,421.315933 438.800629,451.946136 438.800629C482.576340 438.800629,511.948334 426.631012,533.605515 404.973831C555.262695 383.316650,567.432312 353.944656,567.432312 323.314453Z" style="stroke:rgb(25.500488%,41.000366%,88.400269%); stroke-width: 2.500000;stroke-linecap: round;stroke-linejoin: round;stroke-miterlimit: 10.000000;fill: none;"></path>
  <path d="M749.757751 1627.438904C749.757751 1596.808701,737.588135 1567.436707,715.930954 1545.779526C694.273773 1524.122345,664.901779 1511.952728,634.271576 1511.952728C603.641373 1511.952728,574.269379 1524.122345,552.612198 1545.779526C530.955017 1567.436707,518.785400 1596.808701,518.785400 1627.438904C518.785400 1658.069107,530.955017 1687.441101,552.612198 1709.098282C574.269379 1730.755463,603.641373 1742.925079,634.271576 1742.925079C664.901779 1742.925079,694.273773 1730.755463,715.930954 1709.098282C737.588135 1687.441101,749.757751 1658.069107,749.757751 1627.438904Z" style="stroke:rgb(25.500488%,41.000366%,88.400269%); stroke-width: 2.500000;stroke-linecap: round;stroke-linejoin: round;stroke-miterlimit: 10.000000;fill: none;"></path>
  <path d="M696.115067 1435.394470C696.115067 1404.764267,683.945450 1375.392273,662.288269 1353.735092C640.631088 1332.077911,611.259094 1319.908295,580.628891 1319.908295C549.998688 1319.908295,520.626694 1332.077911,498.969513 1353.735092C477.312332 1375.392273,465.142715 1404.764267,465.142715 1435.394470C465.142715 1466.024673,477.312332 1495.396667,498.969513 1517.053848C520.626694 1538.711029,549.998688 1550.880646,580.628891 1550.880646C611.259094 1550.880646,640.631088 1538.711029,662.288269 1517.053848C683.945450 1495.396667,696.115067 1466.024673,696.115067 1435.394470Z" style="stroke:rgb(25.500488%,41.000366%,88.400269%); stroke-width: 2.500000;stroke-linecap: round;stroke-linejoin: round;stroke-miterlimit: 10.000000;fill: none;"></path>
  <path d="M636.788910 1252.186676C636.788910 1221.556473,624.619293 1192.184479,602.962112 1170.527298C581.304932 1148.870117,551.932938 1136.700500,521.302734 1136.700500C490.672531 1136.700500,461.300537 1148.870117,439.643356 1170.527298C417.986176 1192.184479,405.816559 1221.556473,405.816559 1252.186676C405.816559 1282.816879,417.986176 1312.188873,439.643356 1333.846054C461.300537 1355.503235,490.672531 1367.672852,521.302734 1367.672852C551.932938 1367.672852,581.304932 1355.503235,602.962112 1333.846054C624.619293 1312.188873,636.788910 1282.816879,636.788910 1252.186676Z" style="stroke:rgb(25.500488%,41.000366%,88.400269%); stroke-width: 2.500000;stroke-linecap: round;stroke-linejoin: round;stroke-miterlimit: 10.000000;fill: none;"></path>
  <path d="M606.009888 1040.911835C606.009888 1010.281631,593.840271 980.909637,572.183090 959.252457C550.525909 937.595276,521.153915 925.425659,490.523712 925.425659C459.893509 925.425659,430.521515 937.595276,408.864334 959.252457C387.207153 980.909637,375.037537 1010.281631,375.037537 1040.911835C375.037537 1071.542038,387.207153 1100.914032,408.864334 1122.571213C430.521515 1144.228394,459.893509 1156.398010,490.523712 1156.398010C521.153915 1156.398010,550.525909 1144.228394,572.183090 1122.571213C593.840271 1100.914032,606.009888 1071.542038,606.009888 1040.911835Z" style="stroke:rgb(25.500488%,41.000366%,88.400269%); stroke-width: 2.500000;stroke-linecap: round;stroke-linejoin: round;stroke-miterlimit: 10.000000;fill: none;"></path>
  <path d="M526.337402 840.666580C526.337402 810.036377,514.167786 780.664383,492.510605 759.007202C470.853424 737.350021,441.481430 725.180405,410.851227 725.180405C380.221024 725.180405,350.849030 737.350021,329.191849 759.007202C307.534668 780.664383,295.365051 810.036377,295.365051 840.666580C295.365051 871.296783,307.534668 900.668777,329.191849 922.325958C350.849030 943.983139,380.221024 956.152756,410.851227 956.152756C441.481430 956.152756,470.853424 943.983139,492.510605 922.325958C514.167786 900.668777,526.337402 871.296783,526.337402 840.666580Z" style="stroke:rgb(25.500488%,41.000366%,88.400269%); stroke-width: 2.500000;stroke-linecap: round;stroke-linejoin: round;stroke-miterlimit: 10.000000;fill: none;"></path>
  <path d="M486.773651 652.592804C486.773651 621.962601,474.604034 592.590607,452.946854 570.933426C431.289673 549.276245,401.917679 537.106628,371.287476 537.106628C340.657272 537.106628,311.285278 549.276245,289.628098 570.933426C267.970917 592.590607,255.801300 621.962601,255.801300 652.592804C255.801300 683.223007,267.970917 712.595001,289.628098 734.252182C311.285278 755.909363,340.657272 768.078979,371.287476 768.078979C401.917679 768.078979,431.289673 755.909363,452.946854 734.252182C474.604034 712.595001,486.773651 683.223007,486.773651 652.592804Z" style="stroke:rgb(25.500488%,41.000366%,88.400269%); stroke-width: 2.500000;stroke-linecap: round;stroke-linejoin: round;stroke-miterlimit: 10.000000;fill: none;"></path>
  <path d="M431.690643 458.186737C431.690643 427.556534,419.521027 398.184540,397.863846 376.527359C376.206665 354.870178,346.834671 342.700562,316.204468 342.700562C285.574265 342.700562,256.202271 354.870178,234.545090 376.527359C212.887909 398.184540,200.718292 427.556534,200.718292 458.186737C200.718292 488.816940,212.887909 518.188934,234.545090 539.846115C256.202271 561.503296,285.574265 573.672913,316.204468 573.672913C346.834671 573.672913,376.206665 561.503296,397.863846 539.846115C419.521027 518.188934,431.690643 488.816940,431.690643 458.186737Z" style="stroke:rgb(25.500488%,41.000366%,88.400269%); stroke-width: 2.500000;stroke-linecap: round;stroke-linejoin: round;stroke-miterlimit: 10.000000;fill: none;"></path>
  <path d="M558.284256 1585.072342C558.284256 1554.442139,546.114639 1525.070145,524.457458 1503.412964C502.800278 1481.755783,473.428284 1469.586166,442.798080 1469.586166C412.167877 1469.586166,382.795883 1481.755783,361.138702 1503.412964C339.481522 1525.070145,327.311905 1554.442139,327.311905 1585.072342C327.311905 1615.702545,339.481522 1645.074539,361.138702 1666.731720C382.795883 1688.388901,412.167877 1700.558517,442.798080 1700.558517C473.428284 1700.558517,502.800278 1688.388901,524.457458 1666.731720C546.114639 1645.074539,558.284256 1615.702545,558.284256 1585.072342Z" style="stroke:rgb(25.500488%,41.000366%,88.400269%); stroke-width: 2.500000;stroke-linecap: round;stroke-linejoin: round;stroke-miterlimit: 10.000000;fill: none;"></path>
  <path d="M496.674316 1401.254669C496.674316 1370.624466,484.504700 1341.252472,462.847519 1319.595291C441.190338 1297.938110,411.818344 1285.768494,381.188141 1285.768494C350.557938 1285.768494,321.185944 1297.938110,299.528763 1319.595291C277.871582 1341.252472,265.701965 1370.624466,265.701965 1401.254669C265.701965 1431.884872,277.871582 1461.256866,299.528763 1482.914047C321.185944 1504.571228,350.557938 1516.740845,381.188141 1516.740845C411.818344 1516.740845,441.190338 1504.571228,462.847519 1482.914047C484.504700 1461.256866,496.674316 1431.884872,496.674316 1401.254669Z" style="stroke:rgb(25.500488%,41.000366%,88.400269%); stroke-width: 2.500000;stroke-linecap: round;stroke-linejoin: round;stroke-miterlimit: 10.000000;fill: none;"></path>
  <path d="M481.713028 1184.049820C481.713028 1153.419617,469.543411 1124.047623,447.886230 1102.390442C426.229050 1080.733261,396.857056 1068.563644,366.226852 1068.563644C335.596649 1068.563644,306.224655 1080.733261,284.567474 1102.390442C262.910294 1124.047623,250.740677 1153.419617,250.740677 1184.049820C250.740677 1214.680023,262.910294 1244.052017,284.567474 1265.709198C306.224655 1287.366379,335.596649 1299.535995,366.226852 1299.535995C396.857056 1299.535995,426.229050 1287.366379,447.886230 1265.709198C469.543411 1244.052017,481.713028 1214.680023,481.713028 1184.049820Z" style="stroke:rgb(25.500488%,41.000366%,88.400269%); stroke-width: 2.500000;stroke-linecap: round;stroke-linejoin: round;stroke-miterlimit: 10.000000;fill: none;"></path>
  <path d="M426.007156 975.915176C426.007156 945.284973,413.837540 915.912979,392.180359 894.255798C370.523178 872.598618,341.151184 860.429001,310.520981 860.429001C279.890778 860.429001,250.518784 872.598618,228.861603 894.255798C207.204422 915.912979,195.034805 945.284973,195.034805 975.915176C195.034805 1006.545380,207.204422 1035.917374,228.861603 1057.574554C250.518784 1079.231735,279.890778 1091.401352,310.520981 1091.401352C341.151184 1091.401352,370.523178 1079.231735,392.180359 1057.574554C413.837540 1035.917374,426.007156 1006.545380,426.007156 975.915176Z" style="stroke:rgb(25.500488%,41.000366%,88.400269%); stroke-width: 2.500000;stroke-linecap: round;stroke-linejoin: round;stroke-miterlimit: 10.000000;fill: none;"></path>
  <path d="M330.218506 780.354248C330.218506 749.724045,318.048889 720.352051,296.391708 698.694870C274.734528 677.037689,245.362534 664.868073,214.732330 664.868073C184.102127 664.868073,154.730133 677.037689,133.072952 698.694870C111.415771 720.352051,99.246155 749.724045,99.246155 780.354248C99.246155 810.984451,111.415771 840.356445,133.072952 862.013626C154.730133 883.670807,184.102127 895.840424,214.732330 895.840424C245.362534 895.840424,274.734528 883.670807,296.391708 862.013626C318.048889 840.356445,330.218506 810.984451,330.218506 780.354248Z" style="stroke:rgb(25.500488%,41.000366%,88.400269%); stroke-width: 2.500000;stroke-linecap: round;stroke-linejoin: round;stroke-miterlimit: 10.000000;fill: none;"></path>
  <path d="M292.095093 592.916290C292.095093 562.286087,279.925476 532.914093,258.268295 511.256912C236.611115 489.599731,207.239120 477.430115,176.608917 477.430115C145.978714 477.430115,116.606720 489.599731,94.949539 511.256912C73.292358 532.914093,61.122742 562.286087,61.122742 592.916290C61.122742 623.546494,73.292358 652.918488,94.949539 674.575668C116.606720 696.232849,145.978714 708.402466,176.608917 708.402466C207.239120 708.402466,236.611115 696.232849,258.268295 674.575668C279.925476 652.918488,292.095093 623.546494,292.095093 592.916290Z" style="stroke:rgb(25.500488%,41.000366%,88.400269%); stroke-width: 2.500000;stroke-linecap: round;stroke-linejoin: round;stroke-miterlimit: 10.000000;fill: none;"></path>
  <path d="M338.873489 1324.021667C338.873489 1293.391464,326.703873 1264.019470,305.046692 1242.362289C283.389511 1220.705109,254.017517 1208.535492,223.387314 1208.535492C192.757111 1208.535492,163.385117 1220.705109,141.727936 1242.362289C120.070755 1264.019470,107.901138 1293.391464,107.901138 1324.021667C107.901138 1354.651871,120.070755 1384.023865,141.727936 1405.681046C163.385117 1427.338226,192.757111 1439.507843,223.387314 1439.507843C254.017517 1439.507843,283.389511 1427.338226,305.046692 1405.681046C326.703873 1384.023865,338.873489 1354.651871,338.873489 1324.021667Z" style="stroke:rgb(25.500488%,41.000366%,88.400269%); stroke-width: 2.500000;stroke-linecap: round;stroke-linejoin: round;stroke-miterlimit: 10.000000;fill: none;"></path>
  <path d="M301.801117 1119.468399C301.801117 1088.838196,289.631500 1059.466202,267.974319 1037.809021C246.317139 1016.151840,216.945145 1003.982224,186.314941 1003.982224C155.684738 1003.982224,126.312744 1016.151840,104.655563 1037.809021C82.998383 1059.466202,70.828766 1088.838196,70.828766 1119.468399C70.828766 1150.098602,82.998383 1179.470596,104.655563 1201.127777C126.312744 1222.784958,155.684738 1234.954575,186.314941 1234.954575C216.945145 1234.954575,246.317139 1222.784958,267.974319 1201.127777C289.631500 1179.470596,301.801117 1150.098602,301.801117 1119.468399Z" style="stroke:rgb(25.500488%,41.000366%,88.400269%); stroke-width: 2.500000;stroke-linecap: round;stroke-linejoin: round;stroke-miterlimit: 10.000000;fill: none;"></path>
  <path d="M231.678955 923.790680C231.678955 893.160477,219.509338 863.788483,197.852158 842.131302C176.194977 820.474121,146.822983 808.304504,116.192780 808.304504C85.562576 808.304504,56.190582 820.474121,34.533401 842.131302C12.876221 863.788483,0.706604 893.160477,0.706604 923.790680C0.706604 954.420883,12.876221 983.792877,34.533401 1005.450058C56.190582 1027.107239,85.562576 1039.276855,116.192780 1039.276855C146.822983 1039.276855,176.194977 1027.107239,197.852158 1005.450058C219.509338 983.792877,231.678955 954.420883,231.678955 923.790680Z" style="stroke:rgb(25.500488%,41.000366%,88.400269%); stroke-width: 2.500000;stroke-linecap: round;stroke-linejoin: round;stroke-miterlimit: 10.000000;fill: none;"></path>
</svg>
