<?xml version="1.0"?>
<!-- Created by MetaPost 2.00 on 2022.03.02:1201 -->
<svg version="1.1" xmlns="http://www.w3.org/2000/svg" xmlns:xlink="http://www.w3.org/1999/xlink" width="1799.841278" height="1736.791016" viewBox="0 0 1799.841278 1736.791016">
<!-- Original BoundingBox: -899.628677 -871.963898 900.212601 864.827118 -->
  <path d="M1749.393524 864.000000L1500.319672 262.680328L899.000000 13.606476L297.680328 262.680328L48.606476 864.000000L297.680328 1465.319672L899.000000 1714.393524L1500.319672 1465.319672L1749.393524 864.000000Z" style="fill: rgb(100.000000%,100.000000%,100.000000%);stroke: none;"></path>
  <path d="M1749.393524 864.000000L1500.319672 262.680328" style="stroke:rgb(0.000000%,0.000000%,0.000000%); stroke-width: 2.500000;stroke-linecap: round;stroke-linejoin: round;stroke-miterlimit: 10.000000;fill: none;"></path>
  <path d="M1500.319672 262.680328L899.000000 13.606476" style="stroke:rgb(0.000000%,0.000000%,0.000000%); stroke-width: 2.500000;stroke-linecap: round;stroke-linejoin: round;stroke-miterlimit: 10.000000;fill: none;"></path>
  <path d="M899.000000 13.606476L297.680328 262.680328" style="stroke:rgb(0.000000%,0.000000%,0.000000%); stroke-width: 2.500000;stroke-linecap: round;stroke-linejoin: round;stroke-miterlimit: 10.000000;fill: none;"></path>
  <path d="M297.680328 262.680328L48.606476 864.000000" style="stroke:rgb(0.000000%,0.000000%,0.000000%); stroke-width: 2.500000;stroke-linecap: round;stroke-linejoin: round;stroke-miterlimit: 10.000000;fill: none;"></path>
  <path d="M48.606476 864.000000L297.680328 1465.319672" style="stroke:rgb(0.000000%,0.000000%,0.000000%); stroke-width: 2.500000;stroke-linecap: round;stroke-linejoin: round;stroke-miterlimit: 10.000000;fill: none;"></path>
  <path d="M297.680328 1465.319672L899.000000 1714.393524" style="stroke:rgb(0.000000%,0.000000%,0.000000%); stroke-width: 2.500000;stroke-linecap: round;stroke-linejoin: round;stroke-miterlimit: 10.000000;fill: none;"></path>
  <path d="M899.000000 1714.393524L1500.319672 1465.319672" style="stroke:rgb(0.000000%,0.000000%,0.000000%); stroke-width: 2.500000;stroke-linecap: round;stroke-linejoin: round;stroke-miterlimit: 10.000000;fill: none;"></path>
  <path d="M1500.319672 1465.319672L1749.393524 864.000000" style="stroke:rgb(0.000000%,0.000000%,0.000000%); stroke-width: 2.500000;stroke-linecap: round;stroke-linejoin: round;stroke-miterlimit: 10.000000;fill: none;"></path>
  <path d="M1797.962601 868.645401C1797.962601 843.982925,1788.164017 820.333511,1770.726334 802.895828C1753.288651 785.458145,1729.639236 775.659561,1704.976761 775.659561C1680.314285 775.659561,1656.664871 785.458145,1639.227188 802.895828C1621.789505 820.333511,1611.990921 843.982925,1611.990921 868.645401C1611.990921 893.307877,1621.789505 916.957291,1639.227188 934.394974C1656.664871 951.832657,1680.314285 961.631241,1704.976761 961.631241C1729.639236 961.631241,1753.288651 951.832657,1770.726334 934.394974C1788.164017 916.957291,1797.962601 893.307877,1797.962601 868.645401Z" style="stroke:rgb(25.500488%,41.000366%,88.400269%); stroke-width: 2.500000;stroke-linecap: round;stroke-linejoin: round;stroke-miterlimit: 10.000000;fill: none;"></path>
  <path d="M1730.980621 720.978806C1730.980621 696.316330,1721.182037 672.666916,1703.744354 655.229233C1686.306671 637.791550,1662.657257 627.992966,1637.994781 627.992966C1613.332306 627.992966,1589.682892 637.791550,1572.245209 655.229233C1554.807526 672.666916,1545.008942 696.316330,1545.008942 720.978806C1545.008942 745.641281,1554.807526 769.290695,1572.245209 786.728378C1589.682892 804.166061,1613.332306 813.964645,1637.994781 813.964645C1662.657257 813.964645,1686.306671 804.166061,1703.744354 786.728378C1721.182037 769.290695,1730.980621 745.641281,1730.980621 720.978806Z" style="stroke:rgb(25.500488%,41.000366%,88.400269%); stroke-width: 2.500000;stroke-linecap: round;stroke-linejoin: round;stroke-miterlimit: 10.000000;fill: none;"></path>
  <path d="M1668.099045 576.867615C1668.099045 552.205139,1658.300461 528.555725,1640.862778 511.118042C1623.425095 493.680359,1599.775681 483.881775,1575.113205 483.881775C1550.450729 483.881775,1526.801315 493.680359,1509.363632 511.118042C1491.925949 528.555725,1482.127365 552.205139,1482.127365 576.867615C1482.127365 601.530090,1491.925949 625.179504,1509.363632 642.617188C1526.801315 660.054871,1550.450729 669.853455,1575.113205 669.853455C1599.775681 669.853455,1623.425095 660.054871,1640.862778 642.617188C1658.300461 625.179504,1668.099045 601.530090,1668.099045 576.867615Z" style="stroke:rgb(25.500488%,41.000366%,88.400269%); stroke-width: 2.500000;stroke-linecap: round;stroke-linejoin: round;stroke-miterlimit: 10.000000;fill: none;"></path>
  <path d="M1607.163864 435.624130C1607.163864 410.961655,1597.365280 387.312241,1579.927597 369.874557C1562.489914 352.436874,1538.840500 342.638290,1514.178024 342.638290C1489.515549 342.638290,1465.866135 352.436874,1448.428452 369.874557C1430.990768 387.312241,1421.192184 410.961655,1421.192184 435.624130C1421.192184 460.286606,1430.990768 483.936020,1448.428452 501.373703C1465.866135 518.811386,1489.515549 528.609970,1514.178024 528.609970C1538.840500 528.609970,1562.489914 518.811386,1579.927597 501.373703C1597.365280 483.936020,1607.163864 460.286606,1607.163864 435.624130Z" style="stroke:rgb(25.500488%,41.000366%,88.400269%); stroke-width: 2.500000;stroke-linecap: round;stroke-linejoin: round;stroke-miterlimit: 10.000000;fill: none;"></path>
  <path d="M1537.132523 322.266006C1537.132523 297.603531,1527.333939 273.954117,1509.896255 256.516434C1492.458572 239.078751,1468.809158 229.280167,1444.146683 229.280167C1419.484207 229.280167,1395.834793 239.078751,1378.397110 256.516434C1360.959427 273.954117,1351.160843 297.603531,1351.160843 322.266006C1351.160843 346.928482,1360.959427 370.577896,1378.397110 388.015579C1395.834793 405.453262,1419.484207 415.251846,1444.146683 415.251846C1468.809158 415.251846,1492.458572 405.453262,1509.896255 388.015579C1527.333939 370.577896,1537.132523 346.928482,1537.132523 322.266006Z" style="stroke:rgb(25.500488%,41.000366%,88.400269%); stroke-width: 2.500000;stroke-linecap: round;stroke-linejoin: round;stroke-miterlimit: 10.000000;fill: none;"></path>
  <path d="M1427.524460 208.388840C1427.524460 183.726364,1417.725876 160.076950,1400.288193 142.639267C1382.850510 125.201584,1359.201096 115.403000,1334.538620 115.403000C1309.876144 115.403000,1286.226730 125.201584,1268.789047 142.639267C1251.351364 160.076950,1241.552780 183.726364,1241.552780 208.388840C1241.552780 233.051315,1251.351364 256.700729,1268.789047 274.138412C1286.226730 291.576096,1309.876144 301.374680,1334.538620 301.374680C1359.201096 301.374680,1382.850510 291.576096,1400.288193 274.138412C1417.725876 256.700729,1427.524460 233.051315,1427.524460 208.388840Z" style="stroke:rgb(25.500488%,41.000366%,88.400269%); stroke-width: 2.500000;stroke-linecap: round;stroke-linejoin: round;stroke-miterlimit: 10.000000;fill: none;"></path>
  <path d="M1726.439026 1015.792953C1726.439026 991.130478,1716.640442 967.481064,1699.202759 950.043381C1681.765076 932.605698,1658.115662 922.807114,1633.453186 922.807114C1608.790710 922.807114,1585.141296 932.605698,1567.703613 950.043381C1550.265930 967.481064,1540.467346 991.130478,1540.467346 1015.792953C1540.467346 1040.455429,1550.265930 1064.104843,1567.703613 1081.542526C1585.141296 1098.980209,1608.790710 1108.778793,1633.453186 1108.778793C1658.115662 1108.778793,1681.765076 1098.980209,1699.202759 1081.542526C1716.640442 1064.104843,1726.439026 1040.455429,1726.439026 1015.792953Z" style="stroke:rgb(25.500488%,41.000366%,88.400269%); stroke-width: 2.500000;stroke-linecap: round;stroke-linejoin: round;stroke-miterlimit: 10.000000;fill: none;"></path>
  <path d="M1647.882462 868.411835C1647.882462 843.749359,1638.083878 820.099945,1620.646194 802.662262C1603.208511 785.224579,1579.559097 775.425995,1554.896622 775.425995C1530.234146 775.425995,1506.584732 785.224579,1489.147049 802.662262C1471.709366 820.099945,1461.910782 843.749359,1461.910782 868.411835C1461.910782 893.074310,1471.709366 916.723724,1489.147049 934.161407C1506.584732 951.599091,1530.234146 961.397675,1554.896622 961.397675C1579.559097 961.397675,1603.208511 951.599091,1620.646194 934.161407C1638.083878 916.723724,1647.882462 893.074310,1647.882462 868.411835Z" style="stroke:rgb(25.500488%,41.000366%,88.400269%); stroke-width: 2.500000;stroke-linecap: round;stroke-linejoin: round;stroke-miterlimit: 10.000000;fill: none;"></path>
  <path d="M1578.993011 723.418289C1578.993011 698.755814,1569.194427 675.106400,1551.756744 657.668716C1534.319061 640.231033,1510.669647 630.432449,1486.007172 630.432449C1461.344696 630.432449,1437.695282 640.231033,1420.257599 657.668716C1402.819916 675.106400,1393.021332 698.755814,1393.021332 723.418289C1393.021332 748.080765,1402.819916 771.730179,1420.257599 789.167862C1437.695282 806.605545,1461.344696 816.404129,1486.007172 816.404129C1510.669647 816.404129,1534.319061 806.605545,1551.756744 789.167862C1569.194427 771.730179,1578.993011 748.080765,1578.993011 723.418289Z" style="stroke:rgb(25.500488%,41.000366%,88.400269%); stroke-width: 2.500000;stroke-linecap: round;stroke-linejoin: round;stroke-miterlimit: 10.000000;fill: none;"></path>
  <path d="M1514.372650 581.538971C1514.372650 556.876495,1504.574066 533.227081,1487.136383 515.789398C1469.698700 498.351715,1446.049286 488.553131,1421.386810 488.553131C1396.724335 488.553131,1373.074921 498.351715,1355.637238 515.789398C1338.199554 533.227081,1328.400970 556.876495,1328.400970 581.538971C1328.400970 606.201447,1338.199554 629.850861,1355.637238 647.288544C1373.074921 664.726227,1396.724335 674.524811,1421.386810 674.524811C1446.049286 674.524811,1469.698700 664.726227,1487.136383 647.288544C1504.574066 629.850861,1514.372650 606.201447,1514.372650 581.538971Z" style="stroke:rgb(25.500488%,41.000366%,88.400269%); stroke-width: 2.500000;stroke-linecap: round;stroke-linejoin: round;stroke-miterlimit: 10.000000;fill: none;"></path>
  <path d="M1445.288559 456.320801C1445.288559 431.658325,1435.489975 408.008911,1418.052292 390.571228C1400.614609 373.133545,1376.965195 363.334961,1352.302719 363.334961C1327.640244 363.334961,1303.990829 373.133545,1286.553146 390.571228C1269.115463 408.008911,1259.316879 431.658325,1259.316879 456.320801C1259.316879 480.983276,1269.115463 504.632690,1286.553146 522.070374C1303.990829 539.508057,1327.640244 549.306641,1352.302719 549.306641C1376.965195 549.306641,1400.614609 539.508057,1418.052292 522.070374C1435.489975 504.632690,1445.288559 480.983276,1445.288559 456.320801Z" style="stroke:rgb(25.500488%,41.000366%,88.400269%); stroke-width: 2.500000;stroke-linecap: round;stroke-linejoin: round;stroke-miterlimit: 10.000000;fill: none;"></path>
  <path d="M1363.786469 340.756775C1363.786469 316.094299,1353.987885 292.444885,1336.550201 275.007202C1319.112518 257.569519,1295.463104 247.770935,1270.800629 247.770935C1246.138153 247.770935,1222.488739 257.569519,1205.051056 275.007202C1187.613373 292.444885,1177.814789 316.094299,1177.814789 340.756775C1177.814789 365.419250,1187.613373 389.068665,1205.051056 406.506348C1222.488739 423.944031,1246.138153 433.742615,1270.800629 433.742615C1295.463104 433.742615,1319.112518 423.944031,1336.550201 406.506348C1353.987885 389.068665,1363.786469 365.419250,1363.786469 340.756775Z" style="stroke:rgb(25.500488%,41.000366%,88.400269%); stroke-width: 2.500000;stroke-linecap: round;stroke-linejoin: round;stroke-miterlimit: 10.000000;fill: none;"></path>
  <path d="M1266.726166 206.818756C1266.726166 182.156281,1256.927582 158.506866,1239.489899 141.069183C1222.052216 123.631500,1198.402802 113.832916,1173.740326 113.832916C1149.077850 113.832916,1125.428436 123.631500,1107.990753 141.069183C1090.553070 158.506866,1080.754486 182.156281,1080.754486 206.818756C1080.754486 231.481232,1090.553070 255.130646,1107.990753 272.568329C1125.428436 290.006012,1149.077850 299.804596,1173.740326 299.804596C1198.402802 299.804596,1222.052216 290.006012,1239.489899 272.568329C1256.927582 255.130646,1266.726166 231.481232,1266.726166 206.818756Z" style="stroke:rgb(25.500488%,41.000366%,88.400269%); stroke-width: 2.500000;stroke-linecap: round;stroke-linejoin: round;stroke-miterlimit: 10.000000;fill: none;"></path>
  <path d="M1152.122345 93.408722C1152.122345 68.746246,1142.323761 45.096832,1124.886078 27.659149C1107.448395 10.221466,1083.798981 0.422882,1059.136505 0.422882C1034.474030 0.422882,1010.824615 10.221466,993.386932 27.659149C975.949249 45.096832,966.150665 68.746246,966.150665 93.408722C966.150665 118.071198,975.949249 141.720612,993.386932 159.158295C1010.824615 176.595978,1034.474030 186.394562,1059.136505 186.394562C1083.798981 186.394562,1107.448395 176.595978,1124.886078 159.158295C1142.323761 141.720612,1152.122345 118.071198,1152.122345 93.408722Z" style="stroke:rgb(25.500488%,41.000366%,88.400269%); stroke-width: 2.500000;stroke-linecap: round;stroke-linejoin: round;stroke-miterlimit: 10.000000;fill: none;"></path>
  <path d="M1666.866318 1163.018372C1666.866318 1138.355896,1657.067734 1114.706482,1639.630051 1097.268799C1622.192368 1079.831116,1598.542953 1070.032532,1573.880478 1070.032532C1549.218002 1070.032532,1525.568588 1079.831116,1508.130905 1097.268799C1490.693222 1114.706482,1480.894638 1138.355896,1480.894638 1163.018372C1480.894638 1187.680847,1490.693222 1211.330261,1508.130905 1228.767944C1525.568588 1246.205627,1549.218002 1256.004211,1573.880478 1256.004211C1598.542953 1256.004211,1622.192368 1246.205627,1639.630051 1228.767944C1657.067734 1211.330261,1666.866318 1187.680847,1666.866318 1163.018372Z" style="stroke:rgb(25.500488%,41.000366%,88.400269%); stroke-width: 2.500000;stroke-linecap: round;stroke-linejoin: round;stroke-miterlimit: 10.000000;fill: none;"></path>
  <path d="M1577.526733 1018.245422C1577.526733 993.582947,1567.728149 969.933533,1550.290466 952.495850C1532.852783 935.058167,1509.203369 925.259583,1484.540894 925.259583C1459.878418 925.259583,1436.229004 935.058167,1418.791321 952.495850C1401.353638 969.933533,1391.555054 993.582947,1391.555054 1018.245422C1391.555054 1042.907898,1401.353638 1066.557312,1418.791321 1083.994995C1436.229004 1101.432678,1459.878418 1111.231262,1484.540894 1111.231262C1509.203369 1111.231262,1532.852783 1101.432678,1550.290466 1083.994995C1567.728149 1066.557312,1577.526733 1042.907898,1577.526733 1018.245422Z" style="stroke:rgb(25.500488%,41.000366%,88.400269%); stroke-width: 2.500000;stroke-linecap: round;stroke-linejoin: round;stroke-miterlimit: 10.000000;fill: none;"></path>
  <path d="M1499.035049 874.899826C1499.035049 850.237350,1489.236465 826.587936,1471.798782 809.150253C1454.361099 791.712570,1430.711685 781.913986,1406.049210 781.913986C1381.386734 781.913986,1357.737320 791.712570,1340.299637 809.150253C1322.861954 826.587936,1313.063370 850.237350,1313.063370 874.899826C1313.063370 899.562302,1322.861954 923.211716,1340.299637 940.649399C1357.737320 958.087082,1381.386734 967.885666,1406.049210 967.885666C1430.711685 967.885666,1454.361099 958.087082,1471.798782 940.649399C1489.236465 923.211716,1499.035049 899.562302,1499.035049 874.899826Z" style="stroke:rgb(25.500488%,41.000366%,88.400269%); stroke-width: 2.500000;stroke-linecap: round;stroke-linejoin: round;stroke-miterlimit: 10.000000;fill: none;"></path>
  <path d="M1428.549561 732.319809C1428.549561 707.657333,1418.750977 684.007919,1401.313293 666.570236C1383.875610 649.132553,1360.226196 639.333969,1335.563721 639.333969C1310.901245 639.333969,1287.251831 649.132553,1269.814148 666.570236C1252.376465 684.007919,1242.577881 707.657333,1242.577881 732.319809C1242.577881 756.982285,1252.376465 780.631699,1269.814148 798.069382C1287.251831 815.507065,1310.901245 825.305649,1335.563721 825.305649C1360.226196 825.305649,1383.875610 815.507065,1401.313293 798.069382C1418.750977 780.631699,1428.549561 756.982285,1428.549561 732.319809Z" style="stroke:rgb(25.500488%,41.000366%,88.400269%); stroke-width: 2.500000;stroke-linecap: round;stroke-linejoin: round;stroke-miterlimit: 10.000000;fill: none;"></path>
  <path d="M1358.128937 600.976974C1358.128937 576.314499,1348.330353 552.665085,1330.892670 535.227402C1313.454987 517.789719,1289.805573 507.991135,1265.143097 507.991135C1240.480621 507.991135,1216.831207 517.789719,1199.393524 535.227402C1181.955841 552.665085,1172.157257 576.314499,1172.157257 600.976974C1172.157257 625.639450,1181.955841 649.288864,1199.393524 666.726547C1216.831207 684.164230,1240.480621 693.962814,1265.143097 693.962814C1289.805573 693.962814,1313.454987 684.164230,1330.892670 666.726547C1348.330353 649.288864,1358.128937 625.639450,1358.128937 600.976974Z" style="stroke:rgb(25.500488%,41.000366%,88.400269%); stroke-width: 2.500000;stroke-linecap: round;stroke-linejoin: round;stroke-miterlimit: 10.000000;fill: none;"></path>
  <path d="M1280.675339 477.588425C1280.675339 452.925949,1270.876755 429.276535,1253.439072 411.838852C1236.001389 394.401169,1212.351974 384.602585,1187.689499 384.602585C1163.027023 384.602585,1139.377609 394.401169,1121.939926 411.838852C1104.502243 429.276535,1094.703659 452.925949,1094.703659 477.588425C1094.703659 502.250900,1104.502243 525.900314,1121.939926 543.337997C1139.377609 560.775681,1163.027023 570.574265,1187.689499 570.574265C1212.351974 570.574265,1236.001389 560.775681,1253.439072 543.337997C1270.876755 525.900314,1280.675339 502.250900,1280.675339 477.588425Z" style="stroke:rgb(25.500488%,41.000366%,88.400269%); stroke-width: 2.500000;stroke-linecap: round;stroke-linejoin: round;stroke-miterlimit: 10.000000;fill: none;"></path>
  <path d="M1198.835861 342.573410C1198.835861 317.910934,1189.037277 294.261520,1171.599594 276.823837C1154.161911 259.386154,1130.512497 249.587570,1105.850021 249.587570C1081.187546 249.587570,1057.538132 259.386154,1040.100449 276.823837C1022.662766 294.261520,1012.864182 317.910934,1012.864182 342.573410C1012.864182 367.235886,1022.662766 390.885300,1040.100449 408.322983C1057.538132 425.760666,1081.187546 435.559250,1105.850021 435.559250C1130.512497 435.559250,1154.161911 425.760666,1171.599594 408.322983C1189.037277 390.885300,1198.835861 367.235886,1198.835861 342.573410Z" style="stroke:rgb(25.500488%,41.000366%,88.400269%); stroke-width: 2.500000;stroke-linecap: round;stroke-linejoin: round;stroke-miterlimit: 10.000000;fill: none;"></path>
  <path d="M1094.820450 226.892578C1094.820450 202.230103,1085.021866 178.580688,1067.584183 161.143005C1050.146500 143.705322,1026.497086 133.906738,1001.834610 133.906738C977.172134 133.906738,953.522720 143.705322,936.085037 161.143005C918.647354 178.580688,908.848770 202.230103,908.848770 226.892578C908.848770 251.555054,918.647354 275.204468,936.085037 292.642151C953.522720 310.079834,977.172134 319.878418,1001.834610 319.878418C1026.497086 319.878418,1050.146500 310.079834,1067.584183 292.642151C1085.021866 275.204468,1094.820450 251.555054,1094.820450 226.892578Z" style="stroke:rgb(25.500488%,41.000366%,88.400269%); stroke-width: 2.500000;stroke-linecap: round;stroke-linejoin: round;stroke-miterlimit: 10.000000;fill: none;"></path>
  <path d="M993.698669 97.184738C993.698669 72.522263,983.900085 48.872849,966.462402 31.435165C949.024719 13.997482,925.375305 4.198898,900.712830 4.198898C876.050354 4.198898,852.400940 13.997482,834.963257 31.435165C817.525574 48.872849,807.726990 72.522263,807.726990 97.184738C807.726990 121.847214,817.525574 145.496628,834.963257 162.934311C852.400940 180.371994,876.050354 190.170578,900.712830 190.170578C925.375305 190.170578,949.024719 180.371994,966.462402 162.934311C983.900085 145.496628,993.698669 121.847214,993.698669 97.184738Z" style="stroke:rgb(25.500488%,41.000366%,88.400269%); stroke-width: 2.500000;stroke-linecap: round;stroke-linejoin: round;stroke-miterlimit: 10.000000;fill: none;"></path>
  <path d="M1606.748627 1311.774963C1606.748627 1287.112488,1596.950043 1263.463074,1579.512360 1246.025391C1562.074677 1228.587708,1538.425262 1218.789124,1513.762787 1218.789124C1489.100311 1218.789124,1465.450897 1228.587708,1448.013214 1246.025391C1430.575531 1263.463074,1420.776947 1287.112488,1420.776947 1311.774963C1420.776947 1336.437439,1430.575531 1360.086853,1448.013214 1377.524536C1465.450897 1394.962219,1489.100311 1404.760803,1513.762787 1404.760803C1538.425262 1404.760803,1562.074677 1394.962219,1579.512360 1377.524536C1596.950043 1360.086853,1606.748627 1336.437439,1606.748627 1311.774963Z" style="stroke:rgb(25.500488%,41.000366%,88.400269%); stroke-width: 2.500000;stroke-linecap: round;stroke-linejoin: round;stroke-miterlimit: 10.000000;fill: none;"></path>
  <path d="M1516.578568 1167.118790C1516.578568 1142.456314,1506.779984 1118.806900,1489.342300 1101.369217C1471.904617 1083.931534,1448.255203 1074.132950,1423.592728 1074.132950C1398.930252 1074.132950,1375.280838 1083.931534,1357.843155 1101.369217C1340.405472 1118.806900,1330.606888 1142.456314,1330.606888 1167.118790C1330.606888 1191.781265,1340.405472 1215.430679,1357.843155 1232.868362C1375.280838 1250.306046,1398.930252 1260.104630,1423.592728 1260.104630C1448.255203 1260.104630,1471.904617 1250.306046,1489.342300 1232.868362C1506.779984 1215.430679,1516.578568 1191.781265,1516.578568 1167.118790Z" style="stroke:rgb(25.500488%,41.000366%,88.400269%); stroke-width: 2.500000;stroke-linecap: round;stroke-linejoin: round;stroke-miterlimit: 10.000000;fill: none;"></path>
  <path d="M1427.498505 1026.913376C1427.498505 1002.250900,1417.699921 978.601486,1400.262238 961.163803C1382.824554 943.726120,1359.175140 933.927536,1334.512665 933.927536C1309.850189 933.927536,1286.200775 943.726120,1268.763092 961.163803C1251.325409 978.601486,1241.526825 1002.250900,1241.526825 1026.913376C1241.526825 1051.575851,1251.325409 1075.225266,1268.763092 1092.662949C1286.200775 1110.100632,1309.850189 1119.899216,1334.512665 1119.899216C1359.175140 1119.899216,1382.824554 1110.100632,1400.262238 1092.662949C1417.699921 1075.225266,1427.498505 1051.575851,1427.498505 1026.913376Z" style="stroke:rgb(25.500488%,41.000366%,88.400269%); stroke-width: 2.500000;stroke-linecap: round;stroke-linejoin: round;stroke-miterlimit: 10.000000;fill: none;"></path>
  <path d="M1348.747314 883.995972C1348.747314 859.333496,1338.948730 835.684082,1321.511047 818.246399C1304.073364 800.808716,1280.423950 791.010132,1255.761475 791.010132C1231.098999 791.010132,1207.449585 800.808716,1190.011902 818.246399C1172.574219 835.684082,1162.775635 859.333496,1162.775635 883.995972C1162.775635 908.658447,1172.574219 932.307861,1190.011902 949.745544C1207.449585 967.183228,1231.098999 976.981812,1255.761475 976.981812C1280.423950 976.981812,1304.073364 967.183228,1321.511047 949.745544C1338.948730 932.307861,1348.747314 908.658447,1348.747314 883.995972Z" style="stroke:rgb(25.500488%,41.000366%,88.400269%); stroke-width: 2.500000;stroke-linecap: round;stroke-linejoin: round;stroke-miterlimit: 10.000000;fill: none;"></path>
  <path d="M1274.109497 748.630600C1274.109497 723.968124,1264.310913 700.318710,1246.873230 682.881027C1229.435547 665.443344,1205.786133 655.644760,1181.123657 655.644760C1156.461182 655.644760,1132.811768 665.443344,1115.374084 682.881027C1097.936401 700.318710,1088.137817 723.968124,1088.137817 748.630600C1088.137817 773.293076,1097.936401 796.942490,1115.374084 814.380173C1132.811768 831.817856,1156.461182 841.616440,1181.123657 841.616440C1205.786133 841.616440,1229.435547 831.817856,1246.873230 814.380173C1264.310913 796.942490,1274.109497 773.293076,1274.109497 748.630600Z" style="stroke:rgb(25.500488%,41.000366%,88.400269%); stroke-width: 2.500000;stroke-linecap: round;stroke-linejoin: round;stroke-miterlimit: 10.000000;fill: none;"></path>
  <path d="M1196.020081 623.827667C1196.020081 599.165192,1186.221497 575.515778,1168.783813 558.078094C1151.346130 540.640411,1127.696716 530.841827,1103.034241 530.841827C1078.371765 530.841827,1054.722351 540.640411,1037.284668 558.078094C1019.846985 575.515778,1010.048401 599.165192,1010.048401 623.827667C1010.048401 648.490143,1019.846985 672.139557,1037.284668 689.577240C1054.722351 707.014923,1078.371765 716.813507,1103.034241 716.813507C1127.696716 716.813507,1151.346130 707.014923,1168.783813 689.577240C1186.221497 672.139557,1196.020081 648.490143,1196.020081 623.827667Z" style="stroke:rgb(25.500488%,41.000366%,88.400269%); stroke-width: 2.500000;stroke-linecap: round;stroke-linejoin: round;stroke-miterlimit: 10.000000;fill: none;"></path>
  <path d="M1121.784515 489.214905C1121.784515 464.552429,1111.985931 440.903015,1094.548248 423.465332C1077.110565 406.027649,1053.461151 396.229065,1028.798676 396.229065C1004.136200 396.229065,980.486786 406.027649,963.049103 423.465332C945.611420 440.903015,935.812836 464.552429,935.812836 489.214905C935.812836 513.877380,945.611420 537.526794,963.049103 554.964478C980.486786 572.402161,1004.136200 582.200745,1028.798676 582.200745C1053.461151 582.200745,1077.110565 572.402161,1094.548248 554.964478C1111.985931 537.526794,1121.784515 513.877380,1121.784515 489.214905Z" style="stroke:rgb(25.500488%,41.000366%,88.400269%); stroke-width: 2.500000;stroke-linecap: round;stroke-linejoin: round;stroke-miterlimit: 10.000000;fill: none;"></path>
  <path d="M1033.002899 372.444107C1033.002899 347.781631,1023.204315 324.132217,1005.766632 306.694534C988.328949 289.256851,964.679535 279.458267,940.017059 279.458267C915.354584 279.458267,891.705170 289.256851,874.267487 306.694534C856.829803 324.132217,847.031219 347.781631,847.031219 372.444107C847.031219 397.106583,856.829803 420.755997,874.267487 438.193680C891.705170 455.631363,915.354584 465.429947,940.017059 465.429947C964.679535 465.429947,988.328949 455.631363,1005.766632 438.193680C1023.204315 420.755997,1033.002899 397.106583,1033.002899 372.444107Z" style="stroke:rgb(25.500488%,41.000366%,88.400269%); stroke-width: 2.500000;stroke-linecap: round;stroke-linejoin: round;stroke-miterlimit: 10.000000;fill: none;"></path>
  <path d="M935.618210 244.500977C935.618210 219.838501,925.819626 196.189087,908.381943 178.751404C890.944260 161.313721,867.294846 151.515137,842.632370 151.515137C817.969894 151.515137,794.320480 161.313721,776.882797 178.751404C759.445114 196.189087,749.646530 219.838501,749.646530 244.500977C749.646530 269.163452,759.445114 292.812866,776.882797 310.250549C794.320480 327.688232,817.969894 337.486816,842.632370 337.486816C867.294846 337.486816,890.944260 327.688232,908.381943 310.250549C925.819626 292.812866,935.618210 269.163452,935.618210 244.500977Z" style="stroke:rgb(25.500488%,41.000366%,88.400269%); stroke-width: 2.500000;stroke-linecap: round;stroke-linejoin: round;stroke-miterlimit: 10.000000;fill: none;"></path>
  <path d="M872.217590 126.224960C872.217590 101.562485,862.419006 77.913071,844.981323 60.475388C827.543640 43.037704,803.894226 33.239120,779.231750 33.239120C754.569275 33.239120,730.919861 43.037704,713.482178 60.475388C696.044495 77.913071,686.245911 101.562485,686.245911 126.224960C686.245911 150.887436,696.044495 174.536850,713.482178 191.974533C730.919861 209.412216,754.569275 219.210800,779.231750 219.210800C803.894226 219.210800,827.543640 209.412216,844.981323 191.974533C862.419006 174.536850,872.217590 150.887436,872.217590 126.224960Z" style="stroke:rgb(25.500488%,41.000366%,88.400269%); stroke-width: 2.500000;stroke-linecap: round;stroke-linejoin: round;stroke-miterlimit: 10.000000;fill: none;"></path>
  <path d="M1540.207825 1453.835938C1540.207825 1429.173462,1530.409241 1405.524048,1512.971558 1388.086365C1495.533875 1370.648682,1471.884460 1360.850098,1447.221985 1360.850098C1422.559509 1360.850098,1398.910095 1370.648682,1381.472412 1388.086365C1364.034729 1405.524048,1354.236145 1429.173462,1354.236145 1453.835938C1354.236145 1478.498413,1364.034729 1502.147827,1381.472412 1519.585510C1398.910095 1537.023193,1422.559509 1546.821777,1447.221985 1546.821777C1471.884460 1546.821777,1495.533875 1537.023193,1512.971558 1519.585510C1530.409241 1502.147827,1540.207825 1478.498413,1540.207825 1453.835938Z" style="stroke:rgb(25.500488%,41.000366%,88.400269%); stroke-width: 2.500000;stroke-linecap: round;stroke-linejoin: round;stroke-miterlimit: 10.000000;fill: none;"></path>
  <path d="M1451.620834 1308.972153C1451.620834 1284.309677,1441.822250 1260.660263,1424.384567 1243.222580C1406.946884 1225.784897,1383.297470 1215.986313,1358.634995 1215.986313C1333.972519 1215.986313,1310.323105 1225.784897,1292.885422 1243.222580C1275.447739 1260.660263,1265.649155 1284.309677,1265.649155 1308.972153C1265.649155 1333.634628,1275.447739 1357.284042,1292.885422 1374.721725C1310.323105 1392.159409,1333.972519 1401.957993,1358.634995 1401.957993C1383.297470 1401.957993,1406.946884 1392.159409,1424.384567 1374.721725C1441.822250 1357.284042,1451.620834 1333.634628,1451.620834 1308.972153Z" style="stroke:rgb(25.500488%,41.000366%,88.400269%); stroke-width: 2.500000;stroke-linecap: round;stroke-linejoin: round;stroke-miterlimit: 10.000000;fill: none;"></path>
  <path d="M1362.125534 1174.930328C1362.125534 1150.267853,1352.326950 1126.618439,1334.889267 1109.180756C1317.451584 1091.743073,1293.802170 1081.944489,1269.139694 1081.944489C1244.477219 1081.944489,1220.827805 1091.743073,1203.390121 1109.180756C1185.952438 1126.618439,1176.153854 1150.267853,1176.153854 1174.930328C1176.153854 1199.592804,1185.952438 1223.242218,1203.390121 1240.679901C1220.827805 1258.117584,1244.477219 1267.916168,1269.139694 1267.916168C1293.802170 1267.916168,1317.451584 1258.117584,1334.889267 1240.679901C1352.326950 1223.242218,1362.125534 1199.592804,1362.125534 1174.930328Z" style="stroke:rgb(25.500488%,41.000366%,88.400269%); stroke-width: 2.500000;stroke-linecap: round;stroke-linejoin: round;stroke-miterlimit: 10.000000;fill: none;"></path>
  <path d="M1274.446869 1032.493042C1274.446869 1007.830566,1264.648285 984.181152,1247.210602 966.743469C1229.772919 949.305786,1206.123505 939.507202,1181.461029 939.507202C1156.798553 939.507202,1133.149139 949.305786,1115.711456 966.743469C1098.273773 984.181152,1088.475189 1007.830566,1088.475189 1032.493042C1088.475189 1057.155518,1098.273773 1080.804932,1115.711456 1098.242615C1133.149139 1115.680298,1156.798553 1125.478882,1181.461029 1125.478882C1206.123505 1125.478882,1229.772919 1115.680298,1247.210602 1098.242615C1264.648285 1080.804932,1274.446869 1057.155518,1274.446869 1032.493042Z" style="stroke:rgb(25.500488%,41.000366%,88.400269%); stroke-width: 2.500000;stroke-linecap: round;stroke-linejoin: round;stroke-miterlimit: 10.000000;fill: none;"></path>
  <path d="M1191.556335 896.777313C1191.556335 872.114838,1181.757751 848.465424,1164.320068 831.027740C1146.882385 813.590057,1123.232971 803.791473,1098.570496 803.791473C1073.908020 803.791473,1050.258606 813.590057,1032.820923 831.027740C1015.383240 848.465424,1005.584656 872.114838,1005.584656 896.777313C1005.584656 921.439789,1015.383240 945.089203,1032.820923 962.526886C1050.258606 979.964569,1073.908020 989.763153,1098.570496 989.763153C1123.232971 989.763153,1146.882385 979.964569,1164.320068 962.526886C1181.757751 945.089203,1191.556335 921.439789,1191.556335 896.777313Z" style="stroke:rgb(25.500488%,41.000366%,88.400269%); stroke-width: 2.500000;stroke-linecap: round;stroke-linejoin: round;stroke-miterlimit: 10.000000;fill: none;"></path>
  <path d="M1112.597534 771.040115C1112.597534 746.377640,1102.798950 722.728226,1085.361267 705.290543C1067.923584 687.852859,1044.274170 678.054276,1019.611694 678.054276C994.949219 678.054276,971.299805 687.852859,953.862122 705.290543C936.424438 722.728226,926.625854 746.377640,926.625854 771.040115C926.625854 795.702591,936.424438 819.352005,953.862122 836.789688C971.299805 854.227371,994.949219 864.025955,1019.611694 864.025955C1044.274170 864.025955,1067.923584 854.227371,1085.361267 836.789688C1102.798950 819.352005,1112.597534 795.702591,1112.597534 771.040115Z" style="stroke:rgb(25.500488%,41.000366%,88.400269%); stroke-width: 2.500000;stroke-linecap: round;stroke-linejoin: round;stroke-miterlimit: 10.000000;fill: none;"></path>
  <path d="M1037.804016 636.375443C1037.804016 611.712967,1028.005432 588.063553,1010.567749 570.625870C993.130066 553.188187,969.480652 543.389603,944.818176 543.389603C920.155701 543.389603,896.506287 553.188187,879.068604 570.625870C861.630920 588.063553,851.832336 611.712967,851.832336 636.375443C851.832336 661.037918,861.630920 684.687332,879.068604 702.125015C896.506287 719.562698,920.155701 729.361282,944.818176 729.361282C969.480652 729.361282,993.130066 719.562698,1010.567749 702.125015C1028.005432 684.687332,1037.804016 661.037918,1037.804016 636.375443Z" style="stroke:rgb(25.500488%,41.000366%,88.400269%); stroke-width: 2.500000;stroke-linecap: round;stroke-linejoin: round;stroke-miterlimit: 10.000000;fill: none;"></path>
  <path d="M958.300201 514.349365C958.300201 489.686890,948.501617 466.037476,931.063934 448.599792C913.626251 431.162109,889.976837 421.363525,865.314362 421.363525C840.651886 421.363525,817.002472 431.162109,799.564789 448.599792C782.127106 466.037476,772.328522 489.686890,772.328522 514.349365C772.328522 539.011841,782.127106 562.661255,799.564789 580.098938C817.002472 597.536621,840.651886 607.335205,865.314362 607.335205C889.976837 607.335205,913.626251 597.536621,931.063934 580.098938C948.501617 562.661255,958.300201 539.011841,958.300201 514.349365Z" style="stroke:rgb(25.500488%,41.000366%,88.400269%); stroke-width: 2.500000;stroke-linecap: round;stroke-linejoin: round;stroke-miterlimit: 10.000000;fill: none;"></path>
  <path d="M868.104202 385.796371C868.104202 361.133896,858.305618 337.484482,840.867935 320.046799C823.430252 302.609116,799.780838 292.810532,775.118362 292.810532C750.455887 292.810532,726.806473 302.609116,709.368790 320.046799C691.931107 337.484482,682.132523 361.133896,682.132523 385.796371C682.132523 410.458847,691.931107 434.108261,709.368790 451.545944C726.806473 468.983627,750.455887 478.782211,775.118362 478.782211C799.780838 478.782211,823.430252 468.983627,840.867935 451.545944C858.305618 434.108261,868.104202 410.458847,868.104202 385.796371Z" style="stroke:rgb(25.500488%,41.000366%,88.400269%); stroke-width: 2.500000;stroke-linecap: round;stroke-linejoin: round;stroke-miterlimit: 10.000000;fill: none;"></path>
  <path d="M768.163239 264.808380C768.163239 240.145905,758.364655 216.496490,740.926971 199.058807C723.489288 181.621124,699.839874 171.822540,675.177399 171.822540C650.514923 171.822540,626.865509 181.621124,609.427826 199.058807C591.990143 216.496490,582.191559 240.145905,582.191559 264.808380C582.191559 289.470856,591.990143 313.120270,609.427826 330.557953C626.865509 347.995636,650.514923 357.794220,675.177399 357.794220C699.839874 357.794220,723.489288 347.995636,740.926971 330.557953C758.364655 313.120270,768.163239 289.470856,768.163239 264.808380Z" style="stroke:rgb(25.500488%,41.000366%,88.400269%); stroke-width: 2.500000;stroke-linecap: round;stroke-linejoin: round;stroke-miterlimit: 10.000000;fill: none;"></path>
  <path d="M703.945145 149.218399C703.945145 124.555923,694.146561 100.906509,676.708878 83.468826C659.271194 66.031143,635.621780 56.232559,610.959305 56.232559C586.296829 56.232559,562.647415 66.031143,545.209732 83.468826C527.772049 100.906509,517.973465 124.555923,517.973465 149.218399C517.973465 173.880875,527.772049 197.530289,545.209732 214.967972C562.647415 232.405655,586.296829 242.204239,610.959305 242.204239C635.621780 242.204239,659.271194 232.405655,676.708878 214.967972C694.146561 197.530289,703.945145 173.880875,703.945145 149.218399Z" style="stroke:rgb(25.500488%,41.000366%,88.400269%); stroke-width: 2.500000;stroke-linecap: round;stroke-linejoin: round;stroke-miterlimit: 10.000000;fill: none;"></path>
  <path d="M1394.383820 1463.295425C1394.383820 1438.632950,1384.585236 1414.983536,1367.147552 1397.545853C1349.709869 1380.108170,1326.060455 1370.309586,1301.397980 1370.309586C1276.735504 1370.309586,1253.086090 1380.108170,1235.648407 1397.545853C1218.210724 1414.983536,1208.412140 1438.632950,1208.412140 1463.295425C1208.412140 1487.957901,1218.210724 1511.607315,1235.648407 1529.044998C1253.086090 1546.482681,1276.735504 1556.281265,1301.397980 1556.281265C1326.060455 1556.281265,1349.709869 1546.482681,1367.147552 1529.044998C1384.585236 1511.607315,1394.383820 1487.957901,1394.383820 1463.295425Z" style="stroke:rgb(25.500488%,41.000366%,88.400269%); stroke-width: 2.500000;stroke-linecap: round;stroke-linejoin: round;stroke-miterlimit: 10.000000;fill: none;"></path>
  <path d="M1299.088257 1329.837524C1299.088257 1305.175049,1289.289673 1281.525635,1271.851990 1264.087952C1254.414307 1246.650269,1230.764893 1236.851685,1206.102417 1236.851685C1181.439941 1236.851685,1157.790527 1246.650269,1140.352844 1264.087952C1122.915161 1281.525635,1113.116577 1305.175049,1113.116577 1329.837524C1113.116577 1354.500000,1122.915161 1378.149414,1140.352844 1395.587097C1157.790527 1413.024780,1181.439941 1422.823364,1206.102417 1422.823364C1230.764893 1422.823364,1254.414307 1413.024780,1271.851990 1395.587097C1289.289673 1378.149414,1299.088257 1354.500000,1299.088257 1329.837524Z" style="stroke:rgb(25.500488%,41.000366%,88.400269%); stroke-width: 2.500000;stroke-linecap: round;stroke-linejoin: round;stroke-miterlimit: 10.000000;fill: none;"></path>
  <path d="M1214.484894 1187.127747C1214.484894 1162.465271,1204.686310 1138.815857,1187.248627 1121.378174C1169.810944 1103.940491,1146.161530 1094.141907,1121.499054 1094.141907C1096.836578 1094.141907,1073.187164 1103.940491,1055.749481 1121.378174C1038.311798 1138.815857,1028.513214 1162.465271,1028.513214 1187.127747C1028.513214 1211.790222,1038.311798 1235.439636,1055.749481 1252.877319C1073.187164 1270.315002,1096.836578 1280.113586,1121.499054 1280.113586C1146.161530 1280.113586,1169.810944 1270.315002,1187.248627 1252.877319C1204.686310 1235.439636,1214.484894 1211.790222,1214.484894 1187.127747Z" style="stroke:rgb(25.500488%,41.000366%,88.400269%); stroke-width: 2.500000;stroke-linecap: round;stroke-linejoin: round;stroke-miterlimit: 10.000000;fill: none;"></path>
  <path d="M1122.666885 1051.866165C1122.666885 1027.203690,1112.868301 1003.554276,1095.430618 986.116592C1077.992935 968.678909,1054.343521 958.880325,1029.681046 958.880325C1005.018570 958.880325,981.369156 968.678909,963.931473 986.116592C946.493790 1003.554276,936.695206 1027.203690,936.695206 1051.866165C936.695206 1076.528641,946.493790 1100.178055,963.931473 1117.615738C981.369156 1135.053421,1005.018570 1144.852005,1029.681046 1144.852005C1054.343521 1144.852005,1077.992935 1135.053421,1095.430618 1117.615738C1112.868301 1100.178055,1122.666885 1076.528641,1122.666885 1051.866165Z" style="stroke:rgb(25.500488%,41.000366%,88.400269%); stroke-width: 2.500000;stroke-linecap: round;stroke-linejoin: round;stroke-miterlimit: 10.000000;fill: none;"></path>
  <path d="M1035.455353 925.791595C1035.455353 901.129120,1025.656769 877.479706,1008.219086 860.042023C990.781403 842.604340,967.131989 832.805756,942.469513 832.805756C917.807037 832.805756,894.157623 842.604340,876.719940 860.042023C859.282257 877.479706,849.483673 901.129120,849.483673 925.791595C849.483673 950.454071,859.282257 974.103485,876.719940 991.541168C894.157623 1008.978851,917.807037 1018.777435,942.469513 1018.777435C967.131989 1018.777435,990.781403 1008.978851,1008.219086 991.541168C1025.656769 974.103485,1035.455353 950.454071,1035.455353 925.791595Z" style="stroke:rgb(25.500488%,41.000366%,88.400269%); stroke-width: 2.500000;stroke-linecap: round;stroke-linejoin: round;stroke-miterlimit: 10.000000;fill: none;"></path>
  <path d="M964.489746 783.938232C964.489746 759.275757,954.691162 735.626343,937.253479 718.188660C919.815796 700.750977,896.166382 690.952393,871.503906 690.952393C846.841431 690.952393,823.192017 700.750977,805.754333 718.188660C788.316650 735.626343,778.518066 759.275757,778.518066 783.938232C778.518066 808.600708,788.316650 832.250122,805.754333 849.687805C823.192017 867.125488,846.841431 876.924072,871.503906 876.924072C896.166382 876.924072,919.815796 867.125488,937.253479 849.687805C954.691162 832.250122,964.489746 808.600708,964.489746 783.938232Z" style="stroke:rgb(25.500488%,41.000366%,88.400269%); stroke-width: 2.500000;stroke-linecap: round;stroke-linejoin: round;stroke-miterlimit: 10.000000;fill: none;"></path>
  <path d="M881.235886 645.808975C881.235886 621.146500,871.437302 597.497086,853.999619 580.059402C836.561935 562.621719,812.912521 552.823135,788.250046 552.823135C763.587570 552.823135,739.938156 562.621719,722.500473 580.059402C705.062790 597.497086,695.264206 621.146500,695.264206 645.808975C695.264206 670.471451,705.062790 694.120865,722.500473 711.558548C739.938156 728.996231,763.587570 738.794815,788.250046 738.794815C812.912521 738.794815,836.561935 728.996231,853.999619 711.558548C871.437302 694.120865,881.235886 670.471451,881.235886 645.808975Z" style="stroke:rgb(25.500488%,41.000366%,88.400269%); stroke-width: 2.500000;stroke-linecap: round;stroke-linejoin: round;stroke-miterlimit: 10.000000;fill: none;"></path>
  <path d="M788.016479 517.191101C788.016479 492.528625,778.217896 468.879211,760.780212 451.441528C743.342529 434.003845,719.693115 424.205261,695.030640 424.205261C670.368164 424.205261,646.718750 434.003845,629.281067 451.441528C611.843384 468.879211,602.044800 492.528625,602.044800 517.191101C602.044800 541.853577,611.843384 565.502991,629.281067 582.940674C646.718750 600.378357,670.368164 610.176941,695.030640 610.176941C719.693115 610.176941,743.342529 600.378357,760.780212 582.940674C778.217896 565.502991,788.016479 541.853577,788.016479 517.191101Z" style="stroke:rgb(25.500488%,41.000366%,88.400269%); stroke-width: 2.500000;stroke-linecap: round;stroke-linejoin: round;stroke-miterlimit: 10.000000;fill: none;"></path>
  <path d="M697.885361 387.963364C697.885361 363.300888,688.086777 339.651474,670.649094 322.213791C653.211411 304.776108,629.561996 294.977524,604.899521 294.977524C580.237045 294.977524,556.587631 304.776108,539.149948 322.213791C521.712265 339.651474,511.913681 363.300888,511.913681 387.963364C511.913681 412.625839,521.712265 436.275253,539.149948 453.712936C556.587631 471.150620,580.237045 480.949203,604.899521 480.949203C629.561996 480.949203,653.211411 471.150620,670.649094 453.712936C688.086777 436.275253,697.885361 412.625839,697.885361 387.963364Z" style="stroke:rgb(25.500488%,41.000366%,88.400269%); stroke-width: 2.500000;stroke-linecap: round;stroke-linejoin: round;stroke-miterlimit: 10.000000;fill: none;"></path>
  <path d="M594.648499 261.486526C594.648499 236.824051,584.849915 213.174637,567.412231 195.736954C549.974548 178.299271,526.325134 168.500687,501.662659 168.500687C477.000183 168.500687,453.350769 178.299271,435.913086 195.736954C418.475403 213.174637,408.676819 236.824051,408.676819 261.486526C408.676819 286.149002,418.475403 309.798416,435.913086 327.236099C453.350769 344.673782,477.000183 354.472366,501.662659 354.472366C526.325134 354.472366,549.974548 344.673782,567.412231 327.236099C584.849915 309.798416,594.648499 286.149002,594.648499 261.486526Z" style="stroke:rgb(25.500488%,41.000366%,88.400269%); stroke-width: 2.500000;stroke-linecap: round;stroke-linejoin: round;stroke-miterlimit: 10.000000;fill: none;"></path>
  <path d="M1285.710022 1569.931992C1285.710022 1545.269516,1275.911438 1521.620102,1258.473755 1504.182419C1241.036072 1486.744736,1217.386658 1476.946152,1192.724182 1476.946152C1168.061707 1476.946152,1144.412292 1486.744736,1126.974609 1504.182419C1109.536926 1521.620102,1099.738342 1545.269516,1099.738342 1569.931992C1099.738342 1594.594467,1109.536926 1618.243881,1126.974609 1635.681564C1144.412292 1653.119247,1168.061707 1662.917831,1192.724182 1662.917831C1217.386658 1662.917831,1241.036072 1653.119247,1258.473755 1635.681564C1275.911438 1618.243881,1285.710022 1594.594467,1285.710022 1569.931992Z" style="stroke:rgb(25.500488%,41.000366%,88.400269%); stroke-width: 2.500000;stroke-linecap: round;stroke-linejoin: round;stroke-miterlimit: 10.000000;fill: none;"></path>
  <path d="M1223.321533 1452.888687C1223.321533 1428.226212,1213.522949 1404.576797,1196.085266 1387.139114C1178.647583 1369.701431,1154.998169 1359.902847,1130.335693 1359.902847C1105.673218 1359.902847,1082.023804 1369.701431,1064.586121 1387.139114C1047.148438 1404.576797,1037.349854 1428.226212,1037.349854 1452.888687C1037.349854 1477.551163,1047.148438 1501.200577,1064.586121 1518.638260C1082.023804 1536.075943,1105.673218 1545.874527,1130.335693 1545.874527C1154.998169 1545.874527,1178.647583 1536.075943,1196.085266 1518.638260C1213.522949 1501.200577,1223.321533 1477.551163,1223.321533 1452.888687Z" style="stroke:rgb(25.500488%,41.000366%,88.400269%); stroke-width: 2.500000;stroke-linecap: round;stroke-linejoin: round;stroke-miterlimit: 10.000000;fill: none;"></path>
  <path d="M1144.362717 1333.094482C1144.362717 1308.432007,1134.564133 1284.782593,1117.126450 1267.344910C1099.688766 1249.907227,1076.039352 1240.108643,1051.376877 1240.108643C1026.714401 1240.108643,1003.064987 1249.907227,985.627304 1267.344910C968.189621 1284.782593,958.391037 1308.432007,958.391037 1333.094482C958.391037 1357.756958,968.189621 1381.406372,985.627304 1398.844055C1003.064987 1416.281738,1026.714401 1426.080322,1051.376877 1426.080322C1076.039352 1426.080322,1099.688766 1416.281738,1117.126450 1398.844055C1134.564133 1381.406372,1144.362717 1357.756958,1144.362717 1333.094482Z" style="stroke:rgb(25.500488%,41.000366%,88.400269%); stroke-width: 2.500000;stroke-linecap: round;stroke-linejoin: round;stroke-miterlimit: 10.000000;fill: none;"></path>
  <path d="M1055.775742 1197.806961C1055.775742 1173.144485,1045.977158 1149.495071,1028.539474 1132.057388C1011.101791 1114.619705,987.452377 1104.821121,962.789902 1104.821121C938.127426 1104.821121,914.478012 1114.619705,897.040329 1132.057388C879.602646 1149.495071,869.804062 1173.144485,869.804062 1197.806961C869.804062 1222.469437,879.602646 1246.118851,897.040329 1263.556534C914.478012 1280.994217,938.127426 1290.792801,962.789902 1290.792801C987.452377 1290.792801,1011.101791 1280.994217,1028.539474 1263.556534C1045.977158 1246.118851,1055.775742 1222.469437,1055.775742 1197.806961Z" style="stroke:rgb(25.500488%,41.000366%,88.400269%); stroke-width: 2.500000;stroke-linecap: round;stroke-linejoin: round;stroke-miterlimit: 10.000000;fill: none;"></path>
  <path d="M962.517395 1076.079346C962.517395 1051.416870,952.718811 1027.767456,935.281128 1010.329773C917.843445 992.892090,894.194031 983.093506,869.531555 983.093506C844.869080 983.093506,821.219666 992.892090,803.781982 1010.329773C786.344299 1027.767456,776.545715 1051.416870,776.545715 1076.079346C776.545715 1100.741821,786.344299 1124.391235,803.781982 1141.828918C821.219666 1159.266602,844.869080 1169.065186,869.531555 1169.065186C894.194031 1169.065186,917.843445 1159.266602,935.281128 1141.828918C952.718811 1124.391235,962.517395 1100.741821,962.517395 1076.079346Z" style="stroke:rgb(25.500488%,41.000366%,88.400269%); stroke-width: 2.500000;stroke-linecap: round;stroke-linejoin: round;stroke-miterlimit: 10.000000;fill: none;"></path>
  <path d="M883.325027 933.888611C883.325027 909.226135,873.526443 885.576721,856.088760 868.139038C838.651077 850.701355,815.001663 840.902771,790.339188 840.902771C765.676712 840.902771,742.027298 850.701355,724.589615 868.139038C707.151932 885.576721,697.353348 909.226135,697.353348 933.888611C697.353348 958.551086,707.151932 982.200500,724.589615 999.638184C742.027298 1017.075867,765.676712 1026.874451,790.339188 1026.874451C815.001663 1026.874451,838.651077 1017.075867,856.088760 999.638184C873.526443 982.200500,883.325027 958.551086,883.325027 933.888611Z" style="stroke:rgb(25.500488%,41.000366%,88.400269%); stroke-width: 2.500000;stroke-linecap: round;stroke-linejoin: round;stroke-miterlimit: 10.000000;fill: none;"></path>
  <path d="M809.984802 796.083740C809.984802 771.421265,800.186218 747.771851,782.748535 730.334167C765.310852 712.896484,741.661438 703.097900,716.998962 703.097900C692.336487 703.097900,668.687073 712.896484,651.249390 730.334167C633.811707 747.771851,624.013123 771.421265,624.013123 796.083740C624.013123 820.746216,633.811707 844.395630,651.249390 861.833313C668.687073 879.270996,692.336487 889.069580,716.998962 889.069580C741.661438 889.069580,765.310852 879.270996,782.748535 861.833313C800.186218 844.395630,809.984802 820.746216,809.984802 796.083740Z" style="stroke:rgb(25.500488%,41.000366%,88.400269%); stroke-width: 2.500000;stroke-linecap: round;stroke-linejoin: round;stroke-miterlimit: 10.000000;fill: none;"></path>
  <path d="M722.254242 667.193375C722.254242 642.530899,712.455658 618.881485,695.017975 601.443802C677.580292 584.006119,653.930878 574.207535,629.268402 574.207535C604.605927 574.207535,580.956512 584.006119,563.518829 601.443802C546.081146 618.881485,536.282562 642.530899,536.282562 667.193375C536.282562 691.855850,546.081146 715.505264,563.518829 732.942947C580.956512 750.380630,604.605927 760.179214,629.268402 760.179214C653.930878 760.179214,677.580292 750.380630,695.017975 732.942947C712.455658 715.505264,722.254242 691.855850,722.254242 667.193375Z" style="stroke:rgb(25.500488%,41.000366%,88.400269%); stroke-width: 2.500000;stroke-linecap: round;stroke-linejoin: round;stroke-miterlimit: 10.000000;fill: none;"></path>
  <path d="M629.216492 538.160278C629.216492 513.497803,619.417908 489.848389,601.980225 472.410706C584.542542 454.973022,560.893127 445.174438,536.230652 445.174438C511.568176 445.174438,487.918762 454.973022,470.481079 472.410706C453.043396 489.848389,443.244812 513.497803,443.244812 538.160278C443.244812 562.822754,453.043396 586.472168,470.481079 603.909851C487.918762 621.347534,511.568176 631.146118,536.230652 631.146118C560.893127 631.146118,584.542542 621.347534,601.980225 603.909851C619.417908 586.472168,629.216492 562.822754,629.216492 538.160278Z" style="stroke:rgb(25.500488%,41.000366%,88.400269%); stroke-width: 2.500000;stroke-linecap: round;stroke-linejoin: round;stroke-miterlimit: 10.000000;fill: none;"></path>
  <path d="M538.553360 410.217163C538.553360 385.554688,528.754776 361.905273,511.317093 344.467590C493.879410 327.029907,470.229996 317.231323,445.567520 317.231323C420.905045 317.231323,397.255630 327.029907,379.817947 344.467590C362.380264 361.905273,352.581680 385.554688,352.581680 410.217163C352.581680 434.879639,362.380264 458.529053,379.817947 475.966736C397.255630 493.404419,420.905045 503.203003,445.567520 503.203003C470.229996 503.203003,493.879410 493.404419,511.317093 475.966736C528.754776 458.529053,538.553360 434.879639,538.553360 410.217163Z" style="stroke:rgb(25.500488%,41.000366%,88.400269%); stroke-width: 2.500000;stroke-linecap: round;stroke-linejoin: round;stroke-miterlimit: 10.000000;fill: none;"></path>
  <path d="M445.982742 270.426987C445.982742 245.764511,436.184158 222.115097,418.746475 204.677414C401.308792 187.239731,377.659378 177.441147,352.996902 177.441147C328.334427 177.441147,304.685013 187.239731,287.247330 204.677414C269.809647 222.115097,260.011063 245.764511,260.011063 270.426987C260.011063 295.089462,269.809647 318.738876,287.247330 336.176559C304.685013 353.614243,328.334427 363.412827,352.996902 363.412827C377.659378 363.412827,401.308792 353.614243,418.746475 336.176559C436.184158 318.738876,445.982742 295.089462,445.982742 270.426987Z" style="stroke:rgb(25.500488%,41.000366%,88.400269%); stroke-width: 2.500000;stroke-linecap: round;stroke-linejoin: round;stroke-miterlimit: 10.000000;fill: none;"></path>
  <path d="M1121.382263 1596.195358C1121.382263 1571.532883,1111.583679 1547.883469,1094.145996 1530.445786C1076.708313 1513.008102,1053.058899 1503.209518,1028.396423 1503.209518C1003.733948 1503.209518,980.084534 1513.008102,962.646851 1530.445786C945.209167 1547.883469,935.410583 1571.532883,935.410583 1596.195358C935.410583 1620.857834,945.209167 1644.507248,962.646851 1661.944931C980.084534 1679.382614,1003.733948 1689.181198,1028.396423 1689.181198C1053.058899 1689.181198,1076.708313 1679.382614,1094.145996 1661.944931C1111.583679 1644.507248,1121.382263 1620.857834,1121.382263 1596.195358Z" style="stroke:rgb(25.500488%,41.000366%,88.400269%); stroke-width: 2.500000;stroke-linecap: round;stroke-linejoin: round;stroke-miterlimit: 10.000000;fill: none;"></path>
  <path d="M1058.825089 1479.671112C1058.825089 1455.008636,1049.026505 1431.359222,1031.588821 1413.921539C1014.151138 1396.483856,990.501724 1386.685272,965.839249 1386.685272C941.176773 1386.685272,917.527359 1396.483856,900.089676 1413.921539C882.651993 1431.359222,872.853409 1455.008636,872.853409 1479.671112C872.853409 1504.333588,882.651993 1527.983002,900.089676 1545.420685C917.527359 1562.858368,941.176773 1572.656952,965.839249 1572.656952C990.501724 1572.656952,1014.151138 1562.858368,1031.588821 1545.420685C1049.026505 1527.983002,1058.825089 1504.333588,1058.825089 1479.671112Z" style="stroke:rgb(25.500488%,41.000366%,88.400269%); stroke-width: 2.500000;stroke-linecap: round;stroke-linejoin: round;stroke-miterlimit: 10.000000;fill: none;"></path>
  <path d="M986.042847 1344.720963C986.042847 1320.058487,976.244263 1296.409073,958.806580 1278.971390C941.368896 1261.533707,917.719482 1251.735123,893.057007 1251.735123C868.394531 1251.735123,844.745117 1261.533707,827.307434 1278.971390C809.869751 1296.409073,800.071167 1320.058487,800.071167 1344.720963C800.071167 1369.383438,809.869751 1393.032852,827.307434 1410.470535C844.745117 1427.908218,868.394531 1437.706802,893.057007 1437.706802C917.719482 1437.706802,941.368896 1427.908218,958.806580 1410.470535C976.244263 1393.032852,986.042847 1369.383438,986.042847 1344.720963Z" style="stroke:rgb(25.500488%,41.000366%,88.400269%); stroke-width: 2.500000;stroke-linecap: round;stroke-linejoin: round;stroke-miterlimit: 10.000000;fill: none;"></path>
  <path d="M891.772385 1223.058212C891.772385 1198.395737,881.973801 1174.746323,864.536118 1157.308640C847.098434 1139.870956,823.449020 1130.072372,798.786545 1130.072372C774.124069 1130.072372,750.474655 1139.870956,733.036972 1157.308640C715.599289 1174.746323,705.800705 1198.395737,705.800705 1223.058212C705.800705 1247.720688,715.599289 1271.370102,733.036972 1288.807785C750.474655 1306.245468,774.124069 1316.044052,798.786545 1316.044052C823.449020 1316.044052,847.098434 1306.245468,864.536118 1288.807785C881.973801 1271.370102,891.772385 1247.720688,891.772385 1223.058212Z" style="stroke:rgb(25.500488%,41.000366%,88.400269%); stroke-width: 2.500000;stroke-linecap: round;stroke-linejoin: round;stroke-miterlimit: 10.000000;fill: none;"></path>
  <path d="M808.012466 1080.997238C808.012466 1056.334763,798.213882 1032.685349,780.776199 1015.247665C763.338516 997.809982,739.689102 988.011398,715.026627 988.011398C690.364151 988.011398,666.714737 997.809982,649.277054 1015.247665C631.839371 1032.685349,622.040787 1056.334763,622.040787 1080.997238C622.040787 1105.659714,631.839371 1129.309128,649.277054 1146.746811C666.714737 1164.184494,690.364151 1173.983078,715.026627 1173.983078C739.689102 1173.983078,763.338516 1164.184494,780.776199 1146.746811C798.213882 1129.309128,808.012466 1105.659714,808.012466 1080.997238Z" style="stroke:rgb(25.500488%,41.000366%,88.400269%); stroke-width: 2.500000;stroke-linecap: round;stroke-linejoin: round;stroke-miterlimit: 10.000000;fill: none;"></path>
  <path d="M726.432510 942.842026C726.432510 918.179550,716.633926 894.530136,699.196243 877.092453C681.758560 859.654770,658.109146 849.856186,633.446671 849.856186C608.784195 849.856186,585.134781 859.654770,567.697098 877.092453C550.259415 894.530136,540.460831 918.179550,540.460831 942.842026C540.460831 967.504501,550.259415 991.153915,567.697098 1008.591599C585.134781 1026.029282,608.784195 1035.827866,633.446671 1035.827866C658.109146 1035.827866,681.758560 1026.029282,699.196243 1008.591599C716.633926 991.153915,726.432510 967.504501,726.432510 942.842026Z" style="stroke:rgb(25.500488%,41.000366%,88.400269%); stroke-width: 2.500000;stroke-linecap: round;stroke-linejoin: round;stroke-miterlimit: 10.000000;fill: none;"></path>
  <path d="M648.602600 814.289032C648.602600 789.626556,638.804016 765.977142,621.366333 748.539459C603.928650 731.101776,580.279236 721.303192,555.616760 721.303192C530.954285 721.303192,507.304871 731.101776,489.867188 748.539459C472.429504 765.977142,462.630920 789.626556,462.630920 814.289032C462.630920 838.951508,472.429504 862.600922,489.867188 880.038605C507.304871 897.476288,530.954285 907.274872,555.616760 907.274872C580.279236 907.274872,603.928650 897.476288,621.366333 880.038605C638.804016 862.600922,648.602600 838.951508,648.602600 814.289032Z" style="stroke:rgb(25.500488%,41.000366%,88.400269%); stroke-width: 2.500000;stroke-linecap: round;stroke-linejoin: round;stroke-miterlimit: 10.000000;fill: none;"></path>
  <path d="M561.053696 684.957489C561.053696 660.295013,551.255112 636.645599,533.817429 619.207916C516.379745 601.770233,492.730331 591.971649,468.067856 591.971649C443.405380 591.971649,419.755966 601.770233,402.318283 619.207916C384.880600 636.645599,375.082016 660.295013,375.082016 684.957489C375.082016 709.619965,384.880600 733.269379,402.318283 750.707062C419.755966 768.144745,443.405380 777.943329,468.067856 777.943329C492.730331 777.943329,516.379745 768.144745,533.817429 750.707062C551.255112 733.269379,561.053696 709.619965,561.053696 684.957489Z" style="stroke:rgb(25.500488%,41.000366%,88.400269%); stroke-width: 2.500000;stroke-linecap: round;stroke-linejoin: round;stroke-miterlimit: 10.000000;fill: none;"></path>
  <path d="M469.845566 551.849930C469.845566 527.187454,460.046982 503.538040,442.609299 486.100357C425.171616 468.662674,401.522202 458.864090,376.859726 458.864090C352.197250 458.864090,328.547836 468.662674,311.110153 486.100357C293.672470 503.538040,283.873886 527.187454,283.873886 551.849930C283.873886 576.512405,293.672470 600.161819,311.110153 617.599503C328.547836 635.037186,352.197250 644.835770,376.859726 644.835770C401.522202 644.835770,425.171616 635.037186,442.609299 617.599503C460.046982 600.161819,469.845566 576.512405,469.845566 551.849930Z" style="stroke:rgb(25.500488%,41.000366%,88.400269%); stroke-width: 2.500000;stroke-linecap: round;stroke-linejoin: round;stroke-miterlimit: 10.000000;fill: none;"></path>
  <path d="M379.818253 411.748337C379.818253 387.085861,370.019669 363.436447,352.581985 345.998764C335.144302 328.561081,311.494888 318.762497,286.832413 318.762497C262.169937 318.762497,238.520523 328.561081,221.082840 345.998764C203.645157 363.436447,193.846573 387.085861,193.846573 411.748337C193.846573 436.410812,203.645157 460.060226,221.082840 477.497910C238.520523 494.935593,262.169937 504.734177,286.832413 504.734177C311.494888 504.734177,335.144302 494.935593,352.581985 477.497910C370.019669 460.060226,379.818253 436.410812,379.818253 411.748337Z" style="stroke:rgb(25.500488%,41.000366%,88.400269%); stroke-width: 2.500000;stroke-linecap: round;stroke-linejoin: round;stroke-miterlimit: 10.000000;fill: none;"></path>
  <path d="M999.745468 1628.920776C999.745468 1604.258301,989.946884 1580.608887,972.509201 1563.171204C955.071518 1545.733521,931.422104 1535.934937,906.759628 1535.934937C882.097153 1535.934937,858.447739 1545.733521,841.010056 1563.171204C823.572372 1580.608887,813.773788 1604.258301,813.773788 1628.920776C813.773788 1653.583252,823.572372 1677.232666,841.010056 1694.670349C858.447739 1712.108032,882.097153 1721.906616,906.759628 1721.906616C931.422104 1721.906616,955.071518 1712.108032,972.509201 1694.670349C989.946884 1677.232666,999.745468 1653.583252,999.745468 1628.920776Z" style="stroke:rgb(25.500488%,41.000366%,88.400269%); stroke-width: 2.500000;stroke-linecap: round;stroke-linejoin: round;stroke-miterlimit: 10.000000;fill: none;"></path>
  <path d="M902.905762 1494.515625C902.905762 1469.853149,893.107178 1446.203735,875.669495 1428.766052C858.231812 1411.328369,834.582397 1401.529785,809.919922 1401.529785C785.257446 1401.529785,761.608032 1411.328369,744.170349 1428.766052C726.732666 1446.203735,716.934082 1469.853149,716.934082 1494.515625C716.934082 1519.178101,726.732666 1542.827515,744.170349 1560.265198C761.608032 1577.702881,785.257446 1587.501465,809.919922 1587.501465C834.582397 1587.501465,858.231812 1577.702881,875.669495 1560.265198C893.107178 1542.827515,902.905762 1519.178101,902.905762 1494.515625Z" style="stroke:rgb(25.500488%,41.000366%,88.400269%); stroke-width: 2.500000;stroke-linecap: round;stroke-linejoin: round;stroke-miterlimit: 10.000000;fill: none;"></path>
  <path d="M828.709137 1378.263855C828.709137 1353.601379,818.910553 1329.951965,801.472870 1312.514282C784.035187 1295.076599,760.385773 1285.278015,735.723297 1285.278015C711.060822 1285.278015,687.411407 1295.076599,669.973724 1312.514282C652.536041 1329.951965,642.737457 1353.601379,642.737457 1378.263855C642.737457 1402.926331,652.536041 1426.575745,669.973724 1444.013428C687.411407 1461.451111,711.060822 1471.249695,735.723297 1471.249695C760.385773 1471.249695,784.035187 1461.451111,801.472870 1444.013428C818.910553 1426.575745,828.709137 1402.926331,828.709137 1378.263855Z" style="stroke:rgb(25.500488%,41.000366%,88.400269%); stroke-width: 2.500000;stroke-linecap: round;stroke-linejoin: round;stroke-miterlimit: 10.000000;fill: none;"></path>
  <path d="M749.335098 1228.508118C749.335098 1203.845642,739.536514 1180.196228,722.098831 1162.758545C704.661148 1145.320862,681.011734 1135.522278,656.349258 1135.522278C631.686783 1135.522278,608.037369 1145.320862,590.599686 1162.758545C573.162003 1180.196228,563.363419 1203.845642,563.363419 1228.508118C563.363419 1253.170593,573.162003 1276.820007,590.599686 1294.257690C608.037369 1311.695374,631.686783 1321.493958,656.349258 1321.493958C681.011734 1321.493958,704.661148 1311.695374,722.098831 1294.257690C739.536514 1276.820007,749.335098 1253.170593,749.335098 1228.508118Z" style="stroke:rgb(25.500488%,41.000366%,88.400269%); stroke-width: 2.500000;stroke-linecap: round;stroke-linejoin: round;stroke-miterlimit: 10.000000;fill: none;"></path>
  <path d="M652.391586 1091.676468C652.391586 1067.013992,642.593002 1043.364578,625.155319 1025.926895C607.717636 1008.489212,584.068222 998.690628,559.405746 998.690628C534.743271 998.690628,511.093857 1008.489212,493.656174 1025.926895C476.218491 1043.364578,466.419907 1067.013992,466.419907 1091.676468C466.419907 1116.338943,476.218491 1139.988358,493.656174 1157.426041C511.093857 1174.863724,534.743271 1184.662308,559.405746 1184.662308C584.068222 1184.662308,607.717636 1174.863724,625.155319 1157.426041C642.593002 1139.988358,652.391586 1116.338943,652.391586 1091.676468Z" style="stroke:rgb(25.500488%,41.000366%,88.400269%); stroke-width: 2.500000;stroke-linecap: round;stroke-linejoin: round;stroke-miterlimit: 10.000000;fill: none;"></path>
  <path d="M567.009674 963.694412C567.009674 939.031937,557.211090 915.382523,539.773407 897.944839C522.335724 880.507156,498.686310 870.708572,474.023834 870.708572C449.361359 870.708572,425.711945 880.507156,408.274261 897.944839C390.836578 915.382523,381.037994 939.031937,381.037994 963.694412C381.037994 988.356888,390.836578 1012.006302,408.274261 1029.443985C425.711945 1046.881668,449.361359 1056.680252,474.023834 1056.680252C498.686310 1056.680252,522.335724 1046.881668,539.773407 1029.443985C557.211090 1012.006302,567.009674 988.356888,567.009674 963.694412Z" style="stroke:rgb(25.500488%,41.000366%,88.400269%); stroke-width: 2.500000;stroke-linecap: round;stroke-linejoin: round;stroke-miterlimit: 10.000000;fill: none;"></path>
  <path d="M489.374405 834.687271C489.374405 810.024796,479.575821 786.375381,462.138138 768.937698C444.700455 751.500015,421.051041 741.701431,396.388565 741.701431C371.726089 741.701431,348.076675 751.500015,330.638992 768.937698C313.201309 786.375381,303.402725 810.024796,303.402725 834.687271C303.402725 859.349747,313.201309 882.999161,330.638992 900.436844C348.076675 917.874527,371.726089 927.673111,396.388565 927.673111C421.051041 927.673111,444.700455 917.874527,462.138138 900.436844C479.575821 882.999161,489.374405 859.349747,489.374405 834.687271Z" style="stroke:rgb(25.500488%,41.000366%,88.400269%); stroke-width: 2.500000;stroke-linecap: round;stroke-linejoin: round;stroke-miterlimit: 10.000000;fill: none;"></path>
  <path d="M403.655121 701.294250C403.655121 676.631775,393.856537 652.982361,376.418854 635.544678C358.981171 618.106995,335.331757 608.308411,310.669281 608.308411C286.006805 608.308411,262.357391 618.106995,244.919708 635.544678C227.482025 652.982361,217.683441 676.631775,217.683441 701.294250C217.683441 725.956726,227.482025 749.606140,244.919708 767.043823C262.357391 784.481506,286.006805 794.280090,310.669281 794.280090C335.331757 794.280090,358.981171 784.481506,376.418854 767.043823C393.856537 749.606140,403.655121 725.956726,403.655121 701.294250Z" style="stroke:rgb(25.500488%,41.000366%,88.400269%); stroke-width: 2.500000;stroke-linecap: round;stroke-linejoin: round;stroke-miterlimit: 10.000000;fill: none;"></path>
  <path d="M316.793930 560.193481C316.793930 535.531006,306.995346 511.881592,289.557663 494.443909C272.119980 477.006226,248.470566 467.207642,223.808090 467.207642C199.145615 467.207642,175.496201 477.006226,158.058517 494.443909C140.620834 511.881592,130.822250 535.531006,130.822250 560.193481C130.822250 584.855957,140.620834 608.505371,158.058517 625.943054C175.496201 643.380737,199.145615 653.179321,223.808090 653.179321C248.470566 653.179321,272.119980 643.380737,289.557663 625.943054C306.995346 608.505371,316.793930 584.855957,316.793930 560.193481Z" style="stroke:rgb(25.500488%,41.000366%,88.400269%); stroke-width: 2.500000;stroke-linecap: round;stroke-linejoin: round;stroke-miterlimit: 10.000000;fill: none;"></path>
  <path d="M846.992294 1641.728058C846.992294 1617.065582,837.193710 1593.416168,819.756027 1575.978485C802.318344 1558.540802,778.668930 1548.742218,754.006454 1548.742218C729.343979 1548.742218,705.694565 1558.540802,688.256882 1575.978485C670.819199 1593.416168,661.020615 1617.065582,661.020615 1641.728058C661.020615 1666.390533,670.819199 1690.039948,688.256882 1707.477631C705.694565 1724.915314,729.343979 1734.713898,754.006454 1734.713898C778.668930 1734.713898,802.318344 1724.915314,819.756027 1707.477631C837.193710 1690.039948,846.992294 1666.390533,846.992294 1641.728058Z" style="stroke:rgb(25.500488%,41.000366%,88.400269%); stroke-width: 2.500000;stroke-linecap: round;stroke-linejoin: round;stroke-miterlimit: 10.000000;fill: none;"></path>
  <path d="M739.019196 1526.008316C739.019196 1501.345840,729.220612 1477.696426,711.782928 1460.258743C694.345245 1442.821060,670.695831 1433.022476,646.033356 1433.022476C621.370880 1433.022476,597.721466 1442.821060,580.283783 1460.258743C562.846100 1477.696426,553.047516 1501.345840,553.047516 1526.008316C553.047516 1550.670792,562.846100 1574.320206,580.283783 1591.757889C597.721466 1609.195572,621.370880 1618.994156,646.033356 1618.994156C670.695831 1618.994156,694.345245 1609.195572,711.782928 1591.757889C729.220612 1574.320206,739.019196 1550.670792,739.019196 1526.008316Z" style="stroke:rgb(25.500488%,41.000366%,88.400269%); stroke-width: 2.500000;stroke-linecap: round;stroke-linejoin: round;stroke-miterlimit: 10.000000;fill: none;"></path>
  <path d="M681.029572 1377.368515C681.029572 1352.706039,671.230988 1329.056625,653.793304 1311.618942C636.355621 1294.181259,612.706207 1284.382675,588.043732 1284.382675C563.381256 1284.382675,539.731842 1294.181259,522.294159 1311.618942C504.856476 1329.056625,495.057892 1352.706039,495.057892 1377.368515C495.057892 1402.030991,504.856476 1425.680405,522.294159 1443.118088C539.731842 1460.555771,563.381256 1470.354355,588.043732 1470.354355C612.706207 1470.354355,636.355621 1460.555771,653.793304 1443.118088C671.230988 1425.680405,681.029572 1402.030991,681.029572 1377.368515Z" style="stroke:rgb(25.500488%,41.000366%,88.400269%); stroke-width: 2.500000;stroke-linecap: round;stroke-linejoin: round;stroke-miterlimit: 10.000000;fill: none;"></path>
  <path d="M600.682327 1228.884430C600.682327 1204.221954,590.883743 1180.572540,573.446060 1163.134857C556.008377 1145.697174,532.358963 1135.898590,507.696487 1135.898590C483.034012 1135.898590,459.384598 1145.697174,441.946915 1163.134857C424.509232 1180.572540,414.710648 1204.221954,414.710648 1228.884430C414.710648 1253.546906,424.509232 1277.196320,441.946915 1294.634003C459.384598 1312.071686,483.034012 1321.870270,507.696487 1321.870270C532.358963 1321.870270,556.008377 1312.071686,573.446060 1294.634003C590.883743 1277.196320,600.682327 1253.546906,600.682327 1228.884430Z" style="stroke:rgb(25.500488%,41.000366%,88.400269%); stroke-width: 2.500000;stroke-linecap: round;stroke-linejoin: round;stroke-miterlimit: 10.000000;fill: none;"></path>
  <path d="M486.857071 1105.119568C486.857071 1080.457092,477.058487 1056.807678,459.620804 1039.369995C442.183121 1021.932312,418.533707 1012.133728,393.871231 1012.133728C369.208755 1012.133728,345.559341 1021.932312,328.121658 1039.369995C310.683975 1056.807678,300.885391 1080.457092,300.885391 1105.119568C300.885391 1129.782043,310.683975 1153.431458,328.121658 1170.869141C345.559341 1188.306824,369.208755 1198.105408,393.871231 1198.105408C418.533707 1198.105408,442.183121 1188.306824,459.620804 1170.869141C477.058487 1153.431458,486.857071 1129.782043,486.857071 1105.119568Z" style="stroke:rgb(25.500488%,41.000366%,88.400269%); stroke-width: 2.500000;stroke-linecap: round;stroke-linejoin: round;stroke-miterlimit: 10.000000;fill: none;"></path>
  <path d="M409.870605 986.726776C409.870605 962.064301,400.072021 938.414886,382.634338 920.977203C365.196655 903.539520,341.547241 893.740936,316.884766 893.740936C292.222290 893.740936,268.572876 903.539520,251.135193 920.977203C233.697510 938.414886,223.898926 962.064301,223.898926 986.726776C223.898926 1011.389252,233.697510 1035.038666,251.135193 1052.476349C268.572876 1069.914032,292.222290 1079.712616,316.884766 1079.712616C341.547241 1079.712616,365.196655 1069.914032,382.634338 1052.476349C400.072021 1035.038666,409.870605 1011.389252,409.870605 986.726776Z" style="stroke:rgb(25.500488%,41.000366%,88.400269%); stroke-width: 2.500000;stroke-linecap: round;stroke-linejoin: round;stroke-miterlimit: 10.000000;fill: none;"></path>
  <path d="M334.090912 853.645172C334.090912 828.982697,324.292328 805.333282,306.854645 787.895599C289.416962 770.457916,265.767548 760.659332,241.105072 760.659332C216.442596 760.659332,192.793182 770.457916,175.355499 787.895599C157.917816 805.333282,148.119232 828.982697,148.119232 853.645172C148.119232 878.307648,157.917816 901.957062,175.355499 919.394745C192.793182 936.832428,216.442596 946.631012,241.105072 946.631012C265.767548 946.631012,289.416962 936.832428,306.854645 919.394745C324.292328 901.957062,334.090912 878.307648,334.090912 853.645172Z" style="stroke:rgb(25.500488%,41.000366%,88.400269%); stroke-width: 2.500000;stroke-linecap: round;stroke-linejoin: round;stroke-miterlimit: 10.000000;fill: none;"></path>
  <path d="M254.132950 710.001129C254.132950 685.338654,244.334366 661.689240,226.896683 644.251556C209.459000 626.813873,185.809586 617.015289,161.147110 617.015289C136.484634 617.015289,112.835220 626.813873,95.397537 644.251556C77.959854 661.689240,68.161270 685.338654,68.161270 710.001129C68.161270 734.663605,77.959854 758.313019,95.397537 775.750702C112.835220 793.188385,136.484634 802.986969,161.147110 802.986969C185.809586 802.986969,209.459000 793.188385,226.896683 775.750702C244.334366 758.313019,254.132950 734.663605,254.132950 710.001129Z" style="stroke:rgb(25.500488%,41.000366%,88.400269%); stroke-width: 2.500000;stroke-linecap: round;stroke-linejoin: round;stroke-miterlimit: 10.000000;fill: none;"></path>
  <path d="M588.121582 1520.597336C588.121582 1495.934860,578.322998 1472.285446,560.885315 1454.847763C543.447632 1437.410080,519.798218 1427.611496,495.135742 1427.611496C470.473267 1427.611496,446.823853 1437.410080,429.386169 1454.847763C411.948486 1472.285446,402.149902 1495.934860,402.149902 1520.597336C402.149902 1545.259811,411.948486 1568.909225,429.386169 1586.346909C446.823853 1603.784592,470.473267 1613.583176,495.135742 1613.583176C519.798218 1613.583176,543.447632 1603.784592,560.885315 1586.346909C578.322998 1568.909225,588.121582 1545.259811,588.121582 1520.597336Z" style="stroke:rgb(25.500488%,41.000366%,88.400269%); stroke-width: 2.500000;stroke-linecap: round;stroke-linejoin: round;stroke-miterlimit: 10.000000;fill: none;"></path>
  <path d="M543.795654 1365.339783C543.795654 1340.677307,533.997070 1317.027893,516.559387 1299.590210C499.121704 1282.152527,475.472290 1272.353943,450.809814 1272.353943C426.147339 1272.353943,402.497925 1282.152527,385.060242 1299.590210C367.622559 1317.027893,357.823975 1340.677307,357.823975 1365.339783C357.823975 1390.002258,367.622559 1413.651672,385.060242 1431.089355C402.497925 1448.527039,426.147339 1458.325623,450.809814 1458.325623C475.472290 1458.325623,499.121704 1448.527039,516.559387 1431.089355C533.997070 1413.651672,543.795654 1390.002258,543.795654 1365.339783Z" style="stroke:rgb(25.500488%,41.000366%,88.400269%); stroke-width: 2.500000;stroke-linecap: round;stroke-linejoin: round;stroke-miterlimit: 10.000000;fill: none;"></path>
  <path d="M440.480927 1250.126099C440.480927 1225.463623,430.682343 1201.814209,413.244659 1184.376526C395.806976 1166.938843,372.157562 1157.140259,347.495087 1157.140259C322.832611 1157.140259,299.183197 1166.938843,281.745514 1184.376526C264.307831 1201.814209,254.509247 1225.463623,254.509247 1250.126099C254.509247 1274.788574,264.307831 1298.437988,281.745514 1315.875671C299.183197 1333.313354,322.832611 1343.111938,347.495087 1343.111938C372.157562 1343.111938,395.806976 1333.313354,413.244659 1315.875671C430.682343 1298.437988,440.480927 1274.788574,440.480927 1250.126099Z" style="stroke:rgb(25.500488%,41.000366%,88.400269%); stroke-width: 2.500000;stroke-linecap: round;stroke-linejoin: round;stroke-miterlimit: 10.000000;fill: none;"></path>
  <path d="M323.593353 1135.145981C323.593353 1110.483505,313.794769 1086.834091,296.357086 1069.396408C278.919403 1051.958725,255.269989 1042.160141,230.607513 1042.160141C205.945038 1042.160141,182.295624 1051.958725,164.857941 1069.396408C147.420258 1086.834091,137.621674 1110.483505,137.621674 1135.145981C137.621674 1159.808456,147.420258 1183.457870,164.857941 1200.895554C182.295624 1218.333237,205.945038 1228.131821,230.607513 1228.131821C255.269989 1228.131821,278.919403 1218.333237,296.357086 1200.895554C313.794769 1183.457870,323.593353 1159.808456,323.593353 1135.145981Z" style="stroke:rgb(25.500488%,41.000366%,88.400269%); stroke-width: 2.500000;stroke-linecap: round;stroke-linejoin: round;stroke-miterlimit: 10.000000;fill: none;"></path>
  <path d="M255.106155 1006.307526C255.106155 981.645050,245.307571 957.995636,227.869888 940.557953C210.432205 923.120270,186.782791 913.321686,162.120316 913.321686C137.457840 913.321686,113.808426 923.120270,96.370743 940.557953C78.933060 957.995636,69.134476 981.645050,69.134476 1006.307526C69.134476 1030.970001,78.933060 1054.619415,96.370743 1072.057098C113.808426 1089.494781,137.457840 1099.293365,162.120316 1099.293365C186.782791 1099.293365,210.432205 1089.494781,227.869888 1072.057098C245.307571 1054.619415,255.106155 1030.970001,255.106155 1006.307526Z" style="stroke:rgb(25.500488%,41.000366%,88.400269%); stroke-width: 2.500000;stroke-linecap: round;stroke-linejoin: round;stroke-miterlimit: 10.000000;fill: none;"></path>
  <path d="M186.593002 860.768982C186.593002 836.106506,176.794418 812.457092,159.356735 795.019409C141.919052 777.581726,118.269638 767.783142,93.607162 767.783142C68.944687 767.783142,45.295273 777.581726,27.857590 795.019409C10.419907 812.457092,0.621323 836.106506,0.621323 860.768982C0.621323 885.431458,10.419907 909.080872,27.857590 926.518555C45.295273 943.956238,68.944687 953.754822,93.607162 953.754822C118.269638 953.754822,141.919052 943.956238,159.356735 926.518555C176.794418 909.080872,186.593002 885.431458,186.593002 860.768982Z" style="stroke:rgb(25.500488%,41.000366%,88.400269%); stroke-width: 2.500000;stroke-linecap: round;stroke-linejoin: round;stroke-miterlimit: 10.000000;fill: none;"></path>
  <path d="M443.076126 1432.334747C443.076126 1407.672272,433.277542 1384.022858,415.839859 1366.585175C398.402176 1349.147491,374.752762 1339.348907,350.090286 1339.348907C325.427811 1339.348907,301.778397 1349.147491,284.340714 1366.585175C266.903030 1384.022858,257.104446 1407.672272,257.104446 1432.334747C257.104446 1456.997223,266.903030 1480.646637,284.340714 1498.084320C301.778397 1515.522003,325.427811 1525.320587,350.090286 1525.320587C374.752762 1525.320587,398.402176 1515.522003,415.839859 1498.084320C433.277542 1480.646637,443.076126 1456.997223,443.076126 1432.334747Z" style="stroke:rgb(25.500488%,41.000366%,88.400269%); stroke-width: 2.500000;stroke-linecap: round;stroke-linejoin: round;stroke-miterlimit: 10.000000;fill: none;"></path>
  <path d="M339.982010 1300.044678C339.982010 1275.382202,330.183426 1251.732788,312.745743 1234.295105C295.308060 1216.857422,271.658646 1207.058838,246.996170 1207.058838C222.333694 1207.058838,198.684280 1216.857422,181.246597 1234.295105C163.808914 1251.732788,154.010330 1275.382202,154.010330 1300.044678C154.010330 1324.707153,163.808914 1348.356567,181.246597 1365.794250C198.684280 1383.231934,222.333694 1393.030518,246.996170 1393.030518C271.658646 1393.030518,295.308060 1383.231934,312.745743 1365.794250C330.183426 1348.356567,339.982010 1324.707153,339.982010 1300.044678Z" style="stroke:rgb(25.500488%,41.000366%,88.400269%); stroke-width: 2.500000;stroke-linecap: round;stroke-linejoin: round;stroke-miterlimit: 10.000000;fill: none;"></path>
</svg>
