<?xml version="1.0"?>
<!-- Created by MetaPost 2.00 on 2022.03.02:1201 -->
<svg version="1.1" xmlns="http://www.w3.org/2000/svg" xmlns:xlink="http://www.w3.org/1999/xlink" width="1832.346085" height="1773.954193" viewBox="0 0 1832.346085 1773.954193">
<!-- Original BoundingBox: -904.131332 -903.897766 928.214752 870.056427 -->
  <path d="M1754.393524 870.000000L1591.986221 370.152451L1166.789459 61.233398L641.210541 61.233398L216.013779 370.152451L53.606476 870.000000L216.013779 1369.847549L641.210541 1678.766602L1166.789459 1678.766602L1591.986221 1369.847549L1754.393524 870.000000Z" style="fill: rgb(100.000000%,100.000000%,100.000000%);stroke: none;"></path>
  <path d="M1754.393524 870.000000L1591.986221 370.152451" style="stroke:rgb(0.000000%,0.000000%,0.000000%); stroke-width: 2.500000;stroke-linecap: round;stroke-linejoin: round;stroke-miterlimit: 10.000000;fill: none;"></path>
  <path d="M1591.986221 370.152451L1166.789459 61.233398" style="stroke:rgb(0.000000%,0.000000%,0.000000%); stroke-width: 2.500000;stroke-linecap: round;stroke-linejoin: round;stroke-miterlimit: 10.000000;fill: none;"></path>
  <path d="M1166.789459 61.233398L641.210541 61.233398" style="stroke:rgb(0.000000%,0.000000%,0.000000%); stroke-width: 2.500000;stroke-linecap: round;stroke-linejoin: round;stroke-miterlimit: 10.000000;fill: none;"></path>
  <path d="M641.210541 61.233398L216.013779 370.152451" style="stroke:rgb(0.000000%,0.000000%,0.000000%); stroke-width: 2.500000;stroke-linecap: round;stroke-linejoin: round;stroke-miterlimit: 10.000000;fill: none;"></path>
  <path d="M216.013779 370.152451L53.606476 870.000000" style="stroke:rgb(0.000000%,0.000000%,0.000000%); stroke-width: 2.500000;stroke-linecap: round;stroke-linejoin: round;stroke-miterlimit: 10.000000;fill: none;"></path>
  <path d="M53.606476 870.000000L216.013779 1369.847549" style="stroke:rgb(0.000000%,0.000000%,0.000000%); stroke-width: 2.500000;stroke-linecap: round;stroke-linejoin: round;stroke-miterlimit: 10.000000;fill: none;"></path>
  <path d="M216.013779 1369.847549L641.210541 1678.766602" style="stroke:rgb(0.000000%,0.000000%,0.000000%); stroke-width: 2.500000;stroke-linecap: round;stroke-linejoin: round;stroke-miterlimit: 10.000000;fill: none;"></path>
  <path d="M641.210541 1678.766602L1166.789459 1678.766602" style="stroke:rgb(0.000000%,0.000000%,0.000000%); stroke-width: 2.500000;stroke-linecap: round;stroke-linejoin: round;stroke-miterlimit: 10.000000;fill: none;"></path>
  <path d="M1166.789459 1678.766602L1591.986221 1369.847549" style="stroke:rgb(0.000000%,0.000000%,0.000000%); stroke-width: 2.500000;stroke-linecap: round;stroke-linejoin: round;stroke-miterlimit: 10.000000;fill: none;"></path>
  <path d="M1591.986221 1369.847549L1754.393524 870.000000" style="stroke:rgb(0.000000%,0.000000%,0.000000%); stroke-width: 2.500000;stroke-linecap: round;stroke-linejoin: round;stroke-miterlimit: 10.000000;fill: none;"></path>
  <path d="M649.086960 226.988510C649.086960 190.490387,634.585983 155.491501,608.779861 129.685394C582.973755 103.879272,547.974869 89.378296,511.476746 89.378296C474.978622 89.378296,439.979736 103.879272,414.173630 129.685394C388.367508 155.491501,373.866531 190.490387,373.866531 226.988510C373.866531 263.486633,388.367508 298.485519,414.173630 324.291626C439.979736 350.097748,474.978622 364.598724,511.476746 364.598724C547.974869 364.598724,582.973755 350.097748,608.779861 324.291626C634.585983 298.485519,649.086960 263.486633,649.086960 226.988510Z" style="stroke:rgb(25.500488%,41.000366%,88.400269%); stroke-width: 2.500000;stroke-linecap: round;stroke-linejoin: round;stroke-miterlimit: 10.000000;fill: none;"></path>
  <path d="M593.913116 463.748169C593.913116 427.250046,579.412140 392.251160,553.606018 366.445053C527.799911 340.638931,492.801025 326.137955,456.302902 326.137955C419.804779 326.137955,384.805893 340.638931,358.999786 366.445053C333.193665 392.251160,318.692688 427.250046,318.692688 463.748169C318.692688 500.246292,333.193665 535.245178,358.999786 561.051285C384.805893 586.857407,419.804779 601.358383,456.302902 601.358383C492.801025 601.358383,527.799911 586.857407,553.606018 561.051285C579.412140 535.245178,593.913116 500.246292,593.913116 463.748169Z" style="stroke:rgb(25.500488%,41.000366%,88.400269%); stroke-width: 2.500000;stroke-linecap: round;stroke-linejoin: round;stroke-miterlimit: 10.000000;fill: none;"></path>
  <path d="M514.020035 691.191055C514.020035 654.692932,499.519058 619.694046,473.712936 593.887939C447.906830 568.081818,412.907944 553.580841,376.409821 553.580841C339.911697 553.580841,304.912811 568.081818,279.106705 593.887939C253.300583 619.694046,238.799606 654.692932,238.799606 691.191055C238.799606 727.689178,253.300583 762.688065,279.106705 788.494171C304.912811 814.300293,339.911697 828.801270,376.409821 828.801270C412.907944 828.801270,447.906830 814.300293,473.712936 788.494171C499.519058 762.688065,514.020035 727.689178,514.020035 691.191055Z" style="stroke:rgb(25.500488%,41.000366%,88.400269%); stroke-width: 2.500000;stroke-linecap: round;stroke-linejoin: round;stroke-miterlimit: 10.000000;fill: none;"></path>
  <path d="M435.671097 910.108734C435.671097 873.610611,421.170120 838.611725,395.363998 812.805618C369.557892 786.999496,334.559006 772.498520,298.060883 772.498520C261.562759 772.498520,226.563873 786.999496,200.757767 812.805618C174.951645 838.611725,160.450668 873.610611,160.450668 910.108734C160.450668 946.606857,174.951645 981.605743,200.757767 1007.411850C226.563873 1033.217972,261.562759 1047.718948,298.060883 1047.718948C334.559006 1047.718948,369.557892 1033.217972,395.363998 1007.411850C421.170120 981.605743,435.671097 946.606857,435.671097 910.108734Z" style="stroke:rgb(25.500488%,41.000366%,88.400269%); stroke-width: 2.500000;stroke-linecap: round;stroke-linejoin: round;stroke-miterlimit: 10.000000;fill: none;"></path>
  <path d="M846.646179 150.339432C846.646179 113.841309,832.145203 78.842422,806.339081 53.036316C780.532974 27.230194,745.534088 12.729218,709.035965 12.729218C672.537842 12.729218,637.538956 27.230194,611.732849 53.036316C585.926727 78.842422,571.425751 113.841309,571.425751 150.339432C571.425751 186.837555,585.926727 221.836441,611.732849 247.642548C637.538956 273.448669,672.537842 287.949646,709.035965 287.949646C745.534088 287.949646,780.532974 273.448669,806.339081 247.642548C832.145203 221.836441,846.646179 186.837555,846.646179 150.339432Z" style="stroke:rgb(25.500488%,41.000366%,88.400269%); stroke-width: 2.500000;stroke-linecap: round;stroke-linejoin: round;stroke-miterlimit: 10.000000;fill: none;"></path>
  <path d="M816.347275 398.816376C816.347275 362.318253,801.846298 327.319366,776.040176 301.513260C750.234070 275.707138,715.235184 261.206161,678.737061 261.206161C642.238937 261.206161,607.240051 275.707138,581.433945 301.513260C555.627823 327.319366,541.126846 362.318253,541.126846 398.816376C541.126846 435.314499,555.627823 470.313385,581.433945 496.119492C607.240051 521.925613,642.238937 536.426590,678.737061 536.426590C715.235184 536.426590,750.234070 521.925613,776.040176 496.119492C801.846298 470.313385,816.347275 435.314499,816.347275 398.816376Z" style="stroke:rgb(25.500488%,41.000366%,88.400269%); stroke-width: 2.500000;stroke-linecap: round;stroke-linejoin: round;stroke-miterlimit: 10.000000;fill: none;"></path>
  <path d="M749.936234 633.447968C749.936234 596.949844,735.435257 561.950958,709.629135 536.144852C683.823029 510.338730,648.824142 495.837753,612.326019 495.837753C575.827896 495.837753,540.829010 510.338730,515.022903 536.144852C489.216782 561.950958,474.715805 596.949844,474.715805 633.447968C474.715805 669.946091,489.216782 704.944977,515.022903 730.751083C540.829010 756.557205,575.827896 771.058182,612.326019 771.058182C648.824142 771.058182,683.823029 756.557205,709.629135 730.751083C735.435257 704.944977,749.936234 669.946091,749.936234 633.447968Z" style="stroke:rgb(25.500488%,41.000366%,88.400269%); stroke-width: 2.500000;stroke-linecap: round;stroke-linejoin: round;stroke-miterlimit: 10.000000;fill: none;"></path>
  <path d="M659.350952 862.253342C659.350952 825.755219,644.849976 790.756332,619.043854 764.950226C593.237747 739.144104,558.238861 724.643127,521.740738 724.643127C485.242615 724.643127,450.243729 739.144104,424.437622 764.950226C398.631500 790.756332,384.130524 825.755219,384.130524 862.253342C384.130524 898.751465,398.631500 933.750351,424.437622 959.556458C450.243729 985.362579,485.242615 999.863556,521.740738 999.863556C558.238861 999.863556,593.237747 985.362579,619.043854 959.556458C644.849976 933.750351,659.350952 898.751465,659.350952 862.253342Z" style="stroke:rgb(25.500488%,41.000366%,88.400269%); stroke-width: 2.500000;stroke-linecap: round;stroke-linejoin: round;stroke-miterlimit: 10.000000;fill: none;"></path>
  <path d="M539.517822 1085.907257C539.517822 1049.409134,525.016846 1014.410248,499.210724 988.604141C473.404617 962.798019,438.405731 948.297043,401.907608 948.297043C365.409485 948.297043,330.410599 962.798019,304.604492 988.604141C278.798370 1014.410248,264.297394 1049.409134,264.297394 1085.907257C264.297394 1122.405380,278.798370 1157.404266,304.604492 1183.210373C330.410599 1209.016495,365.409485 1223.517471,401.907608 1223.517471C438.405731 1223.517471,473.404617 1209.016495,499.210724 1183.210373C525.016846 1157.404266,539.517822 1122.405380,539.517822 1085.907257Z" style="stroke:rgb(25.500488%,41.000366%,88.400269%); stroke-width: 2.500000;stroke-linecap: round;stroke-linejoin: round;stroke-miterlimit: 10.000000;fill: none;"></path>
  <path d="M403.101395 1263.314789C403.101395 1226.816666,388.600418 1191.817780,362.794296 1166.011673C336.988190 1140.205551,301.989304 1125.704575,265.491180 1125.704575C228.993057 1125.704575,193.994171 1140.205551,168.188065 1166.011673C142.381943 1191.817780,127.880966 1226.816666,127.880966 1263.314789C127.880966 1299.812912,142.381943 1334.811798,168.188065 1360.617905C193.994171 1386.424026,228.993057 1400.925003,265.491180 1400.925003C301.989304 1400.925003,336.988190 1386.424026,362.794296 1360.617905C388.600418 1334.811798,403.101395 1299.812912,403.101395 1263.314789Z" style="stroke:rgb(25.500488%,41.000366%,88.400269%); stroke-width: 2.500000;stroke-linecap: round;stroke-linejoin: round;stroke-miterlimit: 10.000000;fill: none;"></path>
  <path d="M1062.254990 142.930145C1062.254990 106.432022,1047.754013 71.433136,1021.947891 45.627029C996.141785 19.820908,961.142899 5.319931,924.644775 5.319931C888.146652 5.319931,853.147766 19.820908,827.341660 45.627029C801.535538 71.433136,787.034561 106.432022,787.034561 142.930145C787.034561 179.428268,801.535538 214.427155,827.341660 240.233261C853.147766 266.039383,888.146652 280.540359,924.644775 280.540359C961.142899 280.540359,996.141785 266.039383,1021.947891 240.233261C1047.754013 214.427155,1062.254990 179.428268,1062.254990 142.930145Z" style="stroke:rgb(25.500488%,41.000366%,88.400269%); stroke-width: 2.500000;stroke-linecap: round;stroke-linejoin: round;stroke-miterlimit: 10.000000;fill: none;"></path>
  <path d="M1002.020508 358.954178C1002.020508 322.456055,987.519531 287.457169,961.713409 261.651062C935.907303 235.844940,900.908417 221.343964,864.410294 221.343964C827.912170 221.343964,792.913284 235.844940,767.107178 261.651062C741.301056 287.457169,726.800079 322.456055,726.800079 358.954178C726.800079 395.452301,741.301056 430.451187,767.107178 456.257294C792.913284 482.063416,827.912170 496.564392,864.410294 496.564392C900.908417 496.564392,935.907303 482.063416,961.713409 456.257294C987.519531 430.451187,1002.020508 395.452301,1002.020508 358.954178Z" style="stroke:rgb(25.500488%,41.000366%,88.400269%); stroke-width: 2.500000;stroke-linecap: round;stroke-linejoin: round;stroke-miterlimit: 10.000000;fill: none;"></path>
  <path d="M967.309784 595.687881C967.309784 559.189758,952.808807 524.190872,927.002686 498.384766C901.196579 472.578644,866.197693 458.077667,829.699570 458.077667C793.201447 458.077667,758.202560 472.578644,732.396454 498.384766C706.590332 524.190872,692.089355 559.189758,692.089355 595.687881C692.089355 632.186005,706.590332 667.184891,732.396454 692.990997C758.202560 718.797119,793.201447 733.298096,829.699570 733.298096C866.197693 733.298096,901.196579 718.797119,927.002686 692.990997C952.808807 667.184891,967.309784 632.186005,967.309784 595.687881Z" style="stroke:rgb(25.500488%,41.000366%,88.400269%); stroke-width: 2.500000;stroke-linecap: round;stroke-linejoin: round;stroke-miterlimit: 10.000000;fill: none;"></path>
  <path d="M882.369049 832.875732C882.369049 796.377609,867.868073 761.378723,842.061951 735.572617C816.255844 709.766495,781.256958 695.265518,744.758835 695.265518C708.260712 695.265518,673.261826 709.766495,647.455719 735.572617C621.649597 761.378723,607.148621 796.377609,607.148621 832.875732C607.148621 869.373856,621.649597 904.372742,647.455719 930.178848C673.261826 955.984970,708.260712 970.485947,744.758835 970.485947C781.256958 970.485947,816.255844 955.984970,842.061951 930.178848C867.868073 904.372742,882.369049 869.373856,882.369049 832.875732Z" style="stroke:rgb(25.500488%,41.000366%,88.400269%); stroke-width: 2.500000;stroke-linecap: round;stroke-linejoin: round;stroke-miterlimit: 10.000000;fill: none;"></path>
  <path d="M768.284271 1063.160370C768.284271 1026.662247,753.783295 991.663361,727.977173 965.857254C702.171066 940.051132,667.172180 925.550156,630.674057 925.550156C594.175934 925.550156,559.177048 940.051132,533.370941 965.857254C507.564819 991.663361,493.063843 1026.662247,493.063843 1063.160370C493.063843 1099.658493,507.564819 1134.657379,533.370941 1160.463486C559.177048 1186.269608,594.175934 1200.770584,630.674057 1200.770584C667.172180 1200.770584,702.171066 1186.269608,727.977173 1160.463486C753.783295 1134.657379,768.284271 1099.658493,768.284271 1063.160370Z" style="stroke:rgb(25.500488%,41.000366%,88.400269%); stroke-width: 2.500000;stroke-linecap: round;stroke-linejoin: round;stroke-miterlimit: 10.000000;fill: none;"></path>
  <path d="M656.664932 1287.333328C656.664932 1250.835205,642.163956 1215.836319,616.357834 1190.030212C590.551727 1164.224091,555.552841 1149.723114,519.054718 1149.723114C482.556595 1149.723114,447.557709 1164.224091,421.751602 1190.030212C395.945480 1215.836319,381.444504 1250.835205,381.444504 1287.333328C381.444504 1323.831451,395.945480 1358.830338,421.751602 1384.636444C447.557709 1410.442566,482.556595 1424.943542,519.054718 1424.943542C555.552841 1424.943542,590.551727 1410.442566,616.357834 1384.636444C642.163956 1358.830338,656.664932 1323.831451,656.664932 1287.333328Z" style="stroke:rgb(25.500488%,41.000366%,88.400269%); stroke-width: 2.500000;stroke-linecap: round;stroke-linejoin: round;stroke-miterlimit: 10.000000;fill: none;"></path>
  <path d="M1286.635559 138.803787C1286.635559 102.305664,1272.134583 67.306778,1246.328461 41.500671C1220.522354 15.694550,1185.523468 1.193573,1149.025345 1.193573C1112.527222 1.193573,1077.528336 15.694550,1051.722229 41.500671C1025.916107 67.306778,1011.415131 102.305664,1011.415131 138.803787C1011.415131 175.301910,1025.916107 210.300797,1051.722229 236.106903C1077.528336 261.913025,1112.527222 276.414001,1149.025345 276.414001C1185.523468 276.414001,1220.522354 261.913025,1246.328461 236.106903C1272.134583 210.300797,1286.635559 175.301910,1286.635559 138.803787Z" style="stroke:rgb(25.500488%,41.000366%,88.400269%); stroke-width: 2.500000;stroke-linecap: round;stroke-linejoin: round;stroke-miterlimit: 10.000000;fill: none;"></path>
  <path d="M1222.638046 349.948853C1222.638046 313.450729,1208.137070 278.451843,1182.330948 252.645737C1156.524841 226.839615,1121.525955 212.338638,1085.027832 212.338638C1048.529709 212.338638,1013.530823 226.839615,987.724716 252.645737C961.918594 278.451843,947.417618 313.450729,947.417618 349.948853C947.417618 386.446976,961.918594 421.445862,987.724716 447.251968C1013.530823 473.058090,1048.529709 487.559067,1085.027832 487.559067C1121.525955 487.559067,1156.524841 473.058090,1182.330948 447.251968C1208.137070 421.445862,1222.638046 386.446976,1222.638046 349.948853Z" style="stroke:rgb(25.500488%,41.000366%,88.400269%); stroke-width: 2.500000;stroke-linecap: round;stroke-linejoin: round;stroke-miterlimit: 10.000000;fill: none;"></path>
  <path d="M1165.608643 564.753159C1165.608643 528.255035,1151.107666 493.256149,1125.301544 467.450043C1099.495438 441.643921,1064.496552 427.142944,1027.998428 427.142944C991.500305 427.142944,956.501419 441.643921,930.695312 467.450043C904.889191 493.256149,890.388214 528.255035,890.388214 564.753159C890.388214 601.251282,904.889191 636.250168,930.695312 662.056274C956.501419 687.862396,991.500305 702.363373,1027.998428 702.363373C1064.496552 702.363373,1099.495438 687.862396,1125.301544 662.056274C1151.107666 636.250168,1165.608643 601.251282,1165.608643 564.753159Z" style="stroke:rgb(25.500488%,41.000366%,88.400269%); stroke-width: 2.500000;stroke-linecap: round;stroke-linejoin: round;stroke-miterlimit: 10.000000;fill: none;"></path>
  <path d="M1090.620468 810.531097C1090.620468 774.032974,1076.119492 739.034088,1050.313370 713.227982C1024.507263 687.421860,989.508377 672.920883,953.010254 672.920883C916.512131 672.920883,881.513245 687.421860,855.707138 713.227982C829.901016 739.034088,815.400040 774.032974,815.400040 810.531097C815.400040 847.029221,829.901016 882.028107,855.707138 907.834213C881.513245 933.640335,916.512131 948.141312,953.010254 948.141312C989.508377 948.141312,1024.507263 933.640335,1050.313370 907.834213C1076.119492 882.028107,1090.620468 847.029221,1090.620468 810.531097Z" style="stroke:rgb(25.500488%,41.000366%,88.400269%); stroke-width: 2.500000;stroke-linecap: round;stroke-linejoin: round;stroke-miterlimit: 10.000000;fill: none;"></path>
  <path d="M983.088562 1047.459442C983.088562 1010.961319,968.587585 975.962433,942.781464 950.156326C916.975357 924.350204,881.976471 909.849228,845.478348 909.849228C808.980225 909.849228,773.981339 924.350204,748.175232 950.156326C722.369110 975.962433,707.868134 1010.961319,707.868134 1047.459442C707.868134 1083.957565,722.369110 1118.956451,748.175232 1144.762558C773.981339 1170.568680,808.980225 1185.069656,845.478348 1185.069656C881.976471 1185.069656,916.975357 1170.568680,942.781464 1144.762558C968.587585 1118.956451,983.088562 1083.957565,983.088562 1047.459442Z" style="stroke:rgb(25.500488%,41.000366%,88.400269%); stroke-width: 2.500000;stroke-linecap: round;stroke-linejoin: round;stroke-miterlimit: 10.000000;fill: none;"></path>
  <path d="M868.666412 1277.718124C868.666412 1241.220001,854.165436 1206.221115,828.359314 1180.415009C802.553207 1154.608887,767.554321 1140.107910,731.056198 1140.107910C694.558075 1140.107910,659.559189 1154.608887,633.753082 1180.415009C607.946960 1206.221115,593.445984 1241.220001,593.445984 1277.718124C593.445984 1314.216248,607.946960 1349.215134,633.753082 1375.021240C659.559189 1400.827362,694.558075 1415.328339,731.056198 1415.328339C767.554321 1415.328339,802.553207 1400.827362,828.359314 1375.021240C854.165436 1349.215134,868.666412 1314.216248,868.666412 1277.718124Z" style="stroke:rgb(25.500488%,41.000366%,88.400269%); stroke-width: 2.500000;stroke-linecap: round;stroke-linejoin: round;stroke-miterlimit: 10.000000;fill: none;"></path>
  <path d="M742.475052 1505.511368C742.475052 1469.013245,727.974075 1434.014359,702.167953 1408.208252C676.361847 1382.402130,641.362961 1367.901154,604.864838 1367.901154C568.366714 1367.901154,533.367828 1382.402130,507.561722 1408.208252C481.755600 1434.014359,467.254623 1469.013245,467.254623 1505.511368C467.254623 1542.009491,481.755600 1577.008377,507.561722 1602.814484C533.367828 1628.620605,568.366714 1643.121582,604.864838 1643.121582C641.362961 1643.121582,676.361847 1628.620605,702.167953 1602.814484C727.974075 1577.008377,742.475052 1542.009491,742.475052 1505.511368Z" style="stroke:rgb(25.500488%,41.000366%,88.400269%); stroke-width: 2.500000;stroke-linecap: round;stroke-linejoin: round;stroke-miterlimit: 10.000000;fill: none;"></path>
  <path d="M1442.035843 284.485062C1442.035843 247.986938,1427.534866 212.988052,1401.728745 187.181946C1375.922638 161.375824,1340.923752 146.874847,1304.425629 146.874847C1267.927505 146.874847,1232.928619 161.375824,1207.122513 187.181946C1181.316391 212.988052,1166.815414 247.986938,1166.815414 284.485062C1166.815414 320.983185,1181.316391 355.982071,1207.122513 381.788177C1232.928619 407.594299,1267.927505 422.095276,1304.425629 422.095276C1340.923752 422.095276,1375.922638 407.594299,1401.728745 381.788177C1427.534866 355.982071,1442.035843 320.983185,1442.035843 284.485062Z" style="stroke:rgb(25.500488%,41.000366%,88.400269%); stroke-width: 2.500000;stroke-linecap: round;stroke-linejoin: round;stroke-miterlimit: 10.000000;fill: none;"></path>
  <path d="M1404.094086 518.610580C1404.094086 482.112457,1389.593109 447.113571,1363.786987 421.307465C1337.980881 395.501343,1302.981995 381.000366,1266.483871 381.000366C1229.985748 381.000366,1194.986862 395.501343,1169.180756 421.307465C1143.374634 447.113571,1128.873657 482.112457,1128.873657 518.610580C1128.873657 555.108704,1143.374634 590.107590,1169.180756 615.913696C1194.986862 641.719818,1229.985748 656.220795,1266.483871 656.220795C1302.981995 656.220795,1337.980881 641.719818,1363.786987 615.913696C1389.593109 590.107590,1404.094086 555.108704,1404.094086 518.610580Z" style="stroke:rgb(25.500488%,41.000366%,88.400269%); stroke-width: 2.500000;stroke-linecap: round;stroke-linejoin: round;stroke-miterlimit: 10.000000;fill: none;"></path>
  <path d="M1300.091644 742.770554C1300.091644 706.272430,1285.590668 671.273544,1259.784546 645.467438C1233.978439 619.661316,1198.979553 605.160339,1162.481430 605.160339C1125.983307 605.160339,1090.984421 619.661316,1065.178314 645.467438C1039.372192 671.273544,1024.871216 706.272430,1024.871216 742.770554C1024.871216 779.268677,1039.372192 814.267563,1065.178314 840.073669C1090.984421 865.879791,1125.983307 880.380768,1162.481430 880.380768C1198.979553 880.380768,1233.978439 865.879791,1259.784546 840.073669C1285.590668 814.267563,1300.091644 779.268677,1300.091644 742.770554Z" style="stroke:rgb(25.500488%,41.000366%,88.400269%); stroke-width: 2.500000;stroke-linecap: round;stroke-linejoin: round;stroke-miterlimit: 10.000000;fill: none;"></path>
  <path d="M1207.845428 992.220718C1207.845428 955.722595,1193.344452 920.723709,1167.538330 894.917603C1141.732224 869.111481,1106.733337 854.610504,1070.235214 854.610504C1033.737091 854.610504,998.738205 869.111481,972.932098 894.917603C947.125977 920.723709,932.625000 955.722595,932.625000 992.220718C932.625000 1028.718842,947.125977 1063.717728,972.932098 1089.523834C998.738205 1115.329956,1033.737091 1129.830933,1070.235214 1129.830933C1106.733337 1129.830933,1141.732224 1115.329956,1167.538330 1089.523834C1193.344452 1063.717728,1207.845428 1028.718842,1207.845428 992.220718Z" style="stroke:rgb(25.500488%,41.000366%,88.400269%); stroke-width: 2.500000;stroke-linecap: round;stroke-linejoin: round;stroke-miterlimit: 10.000000;fill: none;"></path>
  <path d="M1104.842148 1211.021606C1104.842148 1174.523483,1090.341171 1139.524597,1064.535049 1113.718491C1038.728943 1087.912369,1003.730057 1073.411392,967.231934 1073.411392C930.733810 1073.411392,895.734924 1087.912369,869.928818 1113.718491C844.122696 1139.524597,829.621719 1174.523483,829.621719 1211.021606C829.621719 1247.519730,844.122696 1282.518616,869.928818 1308.324722C895.734924 1334.130844,930.733810 1348.631821,967.231934 1348.631821C1003.730057 1348.631821,1038.728943 1334.130844,1064.535049 1308.324722C1090.341171 1282.518616,1104.842148 1247.519730,1104.842148 1211.021606Z" style="stroke:rgb(25.500488%,41.000366%,88.400269%); stroke-width: 2.500000;stroke-linecap: round;stroke-linejoin: round;stroke-miterlimit: 10.000000;fill: none;"></path>
  <path d="M981.492523 1426.370895C981.492523 1389.872772,966.991547 1354.873886,941.185425 1329.067780C915.379318 1303.261658,880.380432 1288.760681,843.882309 1288.760681C807.384186 1288.760681,772.385300 1303.261658,746.579193 1329.067780C720.773071 1354.873886,706.272095 1389.872772,706.272095 1426.370895C706.272095 1462.869019,720.773071 1497.867905,746.579193 1523.674011C772.385300 1549.480133,807.384186 1563.981110,843.882309 1563.981110C880.380432 1563.981110,915.379318 1549.480133,941.185425 1523.674011C966.991547 1497.867905,981.492523 1462.869019,981.492523 1426.370895Z" style="stroke:rgb(25.500488%,41.000366%,88.400269%); stroke-width: 2.500000;stroke-linecap: round;stroke-linejoin: round;stroke-miterlimit: 10.000000;fill: none;"></path>
  <path d="M1664.418106 548.156876C1664.418106 511.658752,1649.917130 476.659866,1624.111008 450.853760C1598.304901 425.047638,1563.306015 410.546661,1526.807892 410.546661C1490.309769 410.546661,1455.310883 425.047638,1429.504776 450.853760C1403.698654 476.659866,1389.197678 511.658752,1389.197678 548.156876C1389.197678 584.654999,1403.698654 619.653885,1429.504776 645.459991C1455.310883 671.266113,1490.309769 685.767090,1526.807892 685.767090C1563.306015 685.767090,1598.304901 671.266113,1624.111008 645.459991C1649.917130 619.653885,1664.418106 584.654999,1664.418106 548.156876Z" style="stroke:rgb(25.500488%,41.000366%,88.400269%); stroke-width: 2.500000;stroke-linecap: round;stroke-linejoin: round;stroke-miterlimit: 10.000000;fill: none;"></path>
  <path d="M1516.582825 712.277023C1516.582825 675.778900,1502.081848 640.780014,1476.275726 614.973907C1450.469620 589.167786,1415.470734 574.666809,1378.972610 574.666809C1342.474487 574.666809,1307.475601 589.167786,1281.669495 614.973907C1255.863373 640.780014,1241.362396 675.778900,1241.362396 712.277023C1241.362396 748.775146,1255.863373 783.774033,1281.669495 809.580139C1307.475601 835.386261,1342.474487 849.887238,1378.972610 849.887238C1415.470734 849.887238,1450.469620 835.386261,1476.275726 809.580139C1502.081848 783.774033,1516.582825 748.775146,1516.582825 712.277023Z" style="stroke:rgb(25.500488%,41.000366%,88.400269%); stroke-width: 2.500000;stroke-linecap: round;stroke-linejoin: round;stroke-miterlimit: 10.000000;fill: none;"></path>
  <path d="M1398.345734 946.181946C1398.345734 909.683823,1383.844757 874.684937,1358.038635 848.878830C1332.232529 823.072708,1297.233643 808.571732,1260.735519 808.571732C1224.237396 808.571732,1189.238510 823.072708,1163.432404 848.878830C1137.626282 874.684937,1123.125305 909.683823,1123.125305 946.181946C1123.125305 982.680069,1137.626282 1017.678955,1163.432404 1043.485062C1189.238510 1069.291183,1224.237396 1083.792160,1260.735519 1083.792160C1297.233643 1083.792160,1332.232529 1069.291183,1358.038635 1043.485062C1383.844757 1017.678955,1398.345734 982.680069,1398.345734 946.181946Z" style="stroke:rgb(25.500488%,41.000366%,88.400269%); stroke-width: 2.500000;stroke-linecap: round;stroke-linejoin: round;stroke-miterlimit: 10.000000;fill: none;"></path>
  <path d="M1333.712402 1200.485123C1333.712402 1163.987000,1319.211426 1128.988113,1293.405304 1103.182007C1267.599197 1077.375885,1232.600311 1062.874908,1196.102188 1062.874908C1159.604065 1062.874908,1124.605179 1077.375885,1098.799072 1103.182007C1072.992950 1128.988113,1058.491974 1163.987000,1058.491974 1200.485123C1058.491974 1236.983246,1072.992950 1271.982132,1098.799072 1297.788239C1124.605179 1323.594360,1159.604065 1338.095337,1196.102188 1338.095337C1232.600311 1338.095337,1267.599197 1323.594360,1293.405304 1297.788239C1319.211426 1271.982132,1333.712402 1236.983246,1333.712402 1200.485123Z" style="stroke:rgb(25.500488%,41.000366%,88.400269%); stroke-width: 2.500000;stroke-linecap: round;stroke-linejoin: round;stroke-miterlimit: 10.000000;fill: none;"></path>
  <path d="M1225.246216 1391.984558C1225.246216 1355.486435,1210.745239 1320.487549,1184.939117 1294.681442C1159.133011 1268.875320,1124.134125 1254.374344,1087.636002 1254.374344C1051.137878 1254.374344,1016.138992 1268.875320,990.332886 1294.681442C964.526764 1320.487549,950.025787 1355.486435,950.025787 1391.984558C950.025787 1428.482681,964.526764 1463.481567,990.332886 1489.287674C1016.138992 1515.093796,1051.137878 1529.594772,1087.636002 1529.594772C1124.134125 1529.594772,1159.133011 1515.093796,1184.939117 1489.287674C1210.745239 1463.481567,1225.246216 1428.482681,1225.246216 1391.984558Z" style="stroke:rgb(25.500488%,41.000366%,88.400269%); stroke-width: 2.500000;stroke-linecap: round;stroke-linejoin: round;stroke-miterlimit: 10.000000;fill: none;"></path>
  <path d="M1739.172699 705.282974C1739.172699 668.784851,1724.671722 633.785965,1698.865601 607.979858C1673.059494 582.173737,1638.060608 567.672760,1601.562485 567.672760C1565.064362 567.672760,1530.065475 582.173737,1504.259369 607.979858C1478.453247 633.785965,1463.952271 668.784851,1463.952271 705.282974C1463.952271 741.781097,1478.453247 776.779984,1504.259369 802.586090C1530.065475 828.392212,1565.064362 842.893188,1601.562485 842.893188C1638.060608 842.893188,1673.059494 828.392212,1698.865601 802.586090C1724.671722 776.779984,1739.172699 741.781097,1739.172699 705.282974Z" style="stroke:rgb(25.500488%,41.000366%,88.400269%); stroke-width: 2.500000;stroke-linecap: round;stroke-linejoin: round;stroke-miterlimit: 10.000000;fill: none;"></path>
  <path d="M1604.975159 924.836472C1604.975159 888.338348,1590.474182 853.339462,1564.668060 827.533356C1538.861954 801.727234,1503.863068 787.226257,1467.364944 787.226257C1430.866821 787.226257,1395.867935 801.727234,1370.061829 827.533356C1344.255707 853.339462,1329.754730 888.338348,1329.754730 924.836472C1329.754730 961.334595,1344.255707 996.333481,1370.061829 1022.139587C1395.867935 1047.945709,1430.866821 1062.446686,1467.364944 1062.446686C1503.863068 1062.446686,1538.861954 1047.945709,1564.668060 1022.139587C1590.474182 996.333481,1604.975159 961.334595,1604.975159 924.836472Z" style="stroke:rgb(25.500488%,41.000366%,88.400269%); stroke-width: 2.500000;stroke-linecap: round;stroke-linejoin: round;stroke-miterlimit: 10.000000;fill: none;"></path>
  <path d="M1515.661530 1162.815857C1515.661530 1126.317734,1501.160553 1091.318848,1475.354431 1065.512741C1449.548325 1039.706619,1414.549438 1025.205643,1378.051315 1025.205643C1341.553192 1025.205643,1306.554306 1039.706619,1280.748199 1065.512741C1254.942078 1091.318848,1240.441101 1126.317734,1240.441101 1162.815857C1240.441101 1199.313980,1254.942078 1234.312866,1280.748199 1260.118973C1306.554306 1285.925095,1341.553192 1300.426071,1378.051315 1300.426071C1414.549438 1300.426071,1449.548325 1285.925095,1475.354431 1260.118973C1501.160553 1234.312866,1515.661530 1199.313980,1515.661530 1162.815857Z" style="stroke:rgb(25.500488%,41.000366%,88.400269%); stroke-width: 2.500000;stroke-linecap: round;stroke-linejoin: round;stroke-miterlimit: 10.000000;fill: none;"></path>
  <path d="M1462.927155 1417.534256C1462.927155 1381.036133,1448.426178 1346.037247,1422.620056 1320.231140C1396.813950 1294.425018,1361.815063 1279.924042,1325.316940 1279.924042C1288.818817 1279.924042,1253.819931 1294.425018,1228.013824 1320.231140C1202.207703 1346.037247,1187.706726 1381.036133,1187.706726 1417.534256C1187.706726 1454.032379,1202.207703 1489.031265,1228.013824 1514.837372C1253.819931 1540.643494,1288.818817 1555.144470,1325.316940 1555.144470C1361.815063 1555.144470,1396.813950 1540.643494,1422.620056 1514.837372C1448.426178 1489.031265,1462.927155 1454.032379,1462.927155 1417.534256Z" style="stroke:rgb(25.500488%,41.000366%,88.400269%); stroke-width: 2.500000;stroke-linecap: round;stroke-linejoin: round;stroke-miterlimit: 10.000000;fill: none;"></path>
  <path d="M1114.548172 1607.684204C1114.548172 1571.186081,1100.047195 1536.187195,1074.241074 1510.381088C1048.434967 1484.574966,1013.436081 1470.073990,976.937958 1470.073990C940.439835 1470.073990,905.440948 1484.574966,879.634842 1510.381088C853.828720 1536.187195,839.327744 1571.186081,839.327744 1607.684204C839.327744 1644.182327,853.828720 1679.181213,879.634842 1704.987320C905.440948 1730.793442,940.439835 1745.294418,976.937958 1745.294418C1013.436081 1745.294418,1048.434967 1730.793442,1074.241074 1704.987320C1100.047195 1679.181213,1114.548172 1644.182327,1114.548172 1607.684204Z" style="stroke:rgb(25.500488%,41.000366%,88.400269%); stroke-width: 2.500000;stroke-linecap: round;stroke-linejoin: round;stroke-miterlimit: 10.000000;fill: none;"></path>
  <path d="M1627.293839 387.786804C1627.293839 351.288681,1612.792862 316.289795,1586.986740 290.483688C1561.180634 264.677567,1526.181747 250.176590,1489.683624 250.176590C1453.185501 250.176590,1418.186615 264.677567,1392.380508 290.483688C1366.574387 316.289795,1352.073410 351.288681,1352.073410 387.786804C1352.073410 424.284927,1366.574387 459.283813,1392.380508 485.089920C1418.186615 510.896042,1453.185501 525.397018,1489.683624 525.397018C1526.181747 525.397018,1561.180634 510.896042,1586.986740 485.089920C1612.792862 459.283813,1627.293839 424.284927,1627.293839 387.786804Z" style="stroke:rgb(25.500488%,41.000366%,88.400269%); stroke-width: 2.500000;stroke-linecap: round;stroke-linejoin: round;stroke-miterlimit: 10.000000;fill: none;"></path>
  <path d="M1729.233109 1130.518661C1729.233109 1094.020538,1714.732132 1059.021652,1688.926010 1033.215546C1663.119904 1007.409424,1628.121017 992.908447,1591.622894 992.908447C1555.124771 992.908447,1520.125885 1007.409424,1494.319778 1033.215546C1468.513657 1059.021652,1454.012680 1094.020538,1454.012680 1130.518661C1454.012680 1167.016785,1468.513657 1202.015671,1494.319778 1227.821777C1520.125885 1253.627899,1555.124771 1268.128876,1591.622894 1268.128876C1628.121017 1268.128876,1663.119904 1253.627899,1688.926010 1227.821777C1714.732132 1202.015671,1729.233109 1167.016785,1729.233109 1130.518661Z" style="stroke:rgb(25.500488%,41.000366%,88.400269%); stroke-width: 2.500000;stroke-linecap: round;stroke-linejoin: round;stroke-miterlimit: 10.000000;fill: none;"></path>
  <path d="M1659.824615 1353.419968C1659.824615 1316.921844,1645.323639 1281.922958,1619.517517 1256.116852C1593.711411 1230.310730,1558.712524 1215.809753,1522.214401 1215.809753C1485.716278 1215.809753,1450.717392 1230.310730,1424.911285 1256.116852C1399.105164 1281.922958,1384.604187 1316.921844,1384.604187 1353.419968C1384.604187 1389.918091,1399.105164 1424.916977,1424.911285 1450.723083C1450.717392 1476.529205,1485.716278 1491.030182,1522.214401 1491.030182C1558.712524 1491.030182,1593.711411 1476.529205,1619.517517 1450.723083C1645.323639 1424.916977,1659.824615 1389.918091,1659.824615 1353.419968Z" style="stroke:rgb(25.500488%,41.000366%,88.400269%); stroke-width: 2.500000;stroke-linecap: round;stroke-linejoin: round;stroke-miterlimit: 10.000000;fill: none;"></path>
  <path d="M518.042587 1464.650024C518.042587 1428.151901,503.541611 1393.153015,477.735489 1367.346909C451.929382 1341.540787,416.930496 1327.039810,380.432373 1327.039810C343.934250 1327.039810,308.935364 1341.540787,283.129257 1367.346909C257.323135 1393.153015,242.822159 1428.151901,242.822159 1464.650024C242.822159 1501.148148,257.323135 1536.147034,283.129257 1561.953140C308.935364 1587.759262,343.934250 1602.260239,380.432373 1602.260239C416.930496 1602.260239,451.929382 1587.759262,477.735489 1561.953140C503.541611 1536.147034,518.042587 1501.148148,518.042587 1464.650024Z" style="stroke:rgb(25.500488%,41.000366%,88.400269%); stroke-width: 2.500000;stroke-linecap: round;stroke-linejoin: round;stroke-miterlimit: 10.000000;fill: none;"></path>
  <path d="M357.529770 587.616821C357.529770 551.118698,343.028793 516.119812,317.222672 490.313705C291.416565 464.507584,256.417679 450.006607,219.919556 450.006607C183.421432 450.006607,148.422546 464.507584,122.616440 490.313705C96.810318 516.119812,82.309341 551.118698,82.309341 587.616821C82.309341 624.114944,96.810318 659.113831,122.616440 684.919937C148.422546 710.726059,183.421432 725.227036,219.919556 725.227036C256.417679 725.227036,291.416565 710.726059,317.222672 684.919937C343.028793 659.113831,357.529770 624.114944,357.529770 587.616821Z" style="stroke:rgb(25.500488%,41.000366%,88.400269%); stroke-width: 2.500000;stroke-linecap: round;stroke-linejoin: round;stroke-miterlimit: 10.000000;fill: none;"></path>
  <path d="M1830.964752 905.800720C1830.964752 869.302597,1816.463776 834.303711,1790.657654 808.497604C1764.851547 782.691483,1729.852661 768.190506,1693.354538 768.190506C1656.856415 768.190506,1621.857529 782.691483,1596.051422 808.497604C1570.245300 834.303711,1555.744324 869.302597,1555.744324 905.800720C1555.744324 942.298843,1570.245300 977.297729,1596.051422 1003.103836C1621.857529 1028.909958,1656.856415 1043.410934,1693.354538 1043.410934C1729.852661 1043.410934,1764.851547 1028.909958,1790.657654 1003.103836C1816.463776 977.297729,1830.964752 942.298843,1830.964752 905.800720Z" style="stroke:rgb(25.500488%,41.000366%,88.400269%); stroke-width: 2.500000;stroke-linecap: round;stroke-linejoin: round;stroke-miterlimit: 10.000000;fill: none;"></path>
  <path d="M429.118225 361.834854C429.118225 325.336731,414.617249 290.337845,388.811127 264.531738C363.005020 238.725616,328.006134 224.224640,291.508011 224.224640C255.009888 224.224640,220.011002 238.725616,194.204895 264.531738C168.398773 290.337845,153.897797 325.336731,153.897797 361.834854C153.897797 398.332977,168.398773 433.331863,194.204895 459.137970C220.011002 484.944092,255.009888 499.445068,291.508011 499.445068C328.006134 499.445068,363.005020 484.944092,388.811127 459.137970C414.617249 433.331863,429.118225 398.332977,429.118225 361.834854Z" style="stroke:rgb(25.500488%,41.000366%,88.400269%); stroke-width: 2.500000;stroke-linecap: round;stroke-linejoin: round;stroke-miterlimit: 10.000000;fill: none;"></path>
  <path d="M1345.650299 1600.651230C1345.650299 1564.153107,1331.149323 1529.154221,1305.343201 1503.348114C1279.537094 1477.541992,1244.538208 1463.041016,1208.040085 1463.041016C1171.541962 1463.041016,1136.543076 1477.541992,1110.736969 1503.348114C1084.930847 1529.154221,1070.429871 1564.153107,1070.429871 1600.651230C1070.429871 1637.149353,1084.930847 1672.148239,1110.736969 1697.954346C1136.543076 1723.760468,1171.541962 1738.261444,1208.040085 1738.261444C1244.538208 1738.261444,1279.537094 1723.760468,1305.343201 1697.954346C1331.149323 1672.148239,1345.650299 1637.149353,1345.650299 1600.651230Z" style="stroke:rgb(25.500488%,41.000366%,88.400269%); stroke-width: 2.500000;stroke-linecap: round;stroke-linejoin: round;stroke-miterlimit: 10.000000;fill: none;"></path>
  <path d="M866.239914 1635.037552C866.239914 1598.539429,851.738937 1563.540543,825.932816 1537.734436C800.126709 1511.928314,765.127823 1497.427338,728.629700 1497.427338C692.131577 1497.427338,657.132690 1511.928314,631.326584 1537.734436C605.520462 1563.540543,591.019485 1598.539429,591.019485 1635.037552C591.019485 1671.535675,605.520462 1706.534561,631.326584 1732.340668C657.132690 1758.146790,692.131577 1772.647766,728.629700 1772.647766C765.127823 1772.647766,800.126709 1758.146790,825.932816 1732.340668C851.738937 1706.534561,866.239914 1671.535675,866.239914 1635.037552Z" style="stroke:rgb(25.500488%,41.000366%,88.400269%); stroke-width: 2.500000;stroke-linecap: round;stroke-linejoin: round;stroke-miterlimit: 10.000000;fill: none;"></path>
  <path d="M276.339096 813.593430C276.339096 777.095306,261.838120 742.096420,236.031998 716.290314C210.225891 690.484192,175.227005 675.983215,138.728882 675.983215C102.230759 675.983215,67.231873 690.484192,41.425766 716.290314C15.619644 742.096420,1.118668 777.095306,1.118668 813.593430C1.118668 850.091553,15.619644 885.090439,41.425766 910.896545C67.231873 936.702667,102.230759 951.203644,138.728882 951.203644C175.227005 951.203644,210.225891 936.702667,236.031998 910.896545C261.838120 885.090439,276.339096 850.091553,276.339096 813.593430Z" style="stroke:rgb(25.500488%,41.000366%,88.400269%); stroke-width: 2.500000;stroke-linecap: round;stroke-linejoin: round;stroke-miterlimit: 10.000000;fill: none;"></path>
  <path d="M297.152557 1043.994858C297.152557 1007.496735,282.651581 972.497849,256.845459 946.691742C231.039352 920.885620,196.040466 906.384644,159.542343 906.384644C123.044220 906.384644,88.045334 920.885620,62.239227 946.691742C36.433105 972.497849,21.932129 1007.496735,21.932129 1043.994858C21.932129 1080.492981,36.433105 1115.491867,62.239227 1141.297974C88.045334 1167.104095,123.044220 1181.605072,159.542343 1181.605072C196.040466 1181.605072,231.039352 1167.104095,256.845459 1141.297974C282.651581 1115.491867,297.152557 1080.492981,297.152557 1043.994858Z" style="stroke:rgb(25.500488%,41.000366%,88.400269%); stroke-width: 2.500000;stroke-linecap: round;stroke-linejoin: round;stroke-miterlimit: 10.000000;fill: none;"></path>
</svg>
