<?xml version="1.0"?>
<!-- Created by MetaPost 2.00 on 2022.03.02:1201 -->
<svg version="1.1" xmlns="http://www.w3.org/2000/svg" xmlns:xlink="http://www.w3.org/1999/xlink" width="1704.999878" height="1704.999878" viewBox="0 0 1704.999878 1704.999878">
<!-- Original BoundingBox: -852.499939 -852.499939 852.499939 852.499939 -->
  <path d="M1702.393524 852.000000L852.000000 1.606476L1.606476 852.000000L852.000000 1702.393524L1702.393524 852.000000Z" style="fill: rgb(100.000000%,100.000000%,100.000000%);stroke: none;"></path>
  <path d="M1702.393524 852.000000L852.000000 1.606476" style="stroke:rgb(0.000000%,0.000000%,0.000000%); stroke-width: 2.500000;stroke-linecap: round;stroke-linejoin: round;stroke-miterlimit: 10.000000;fill: none;"></path>
  <path d="M852.000000 1.606476L1.606476 852.000000" style="stroke:rgb(0.000000%,0.000000%,0.000000%); stroke-width: 2.500000;stroke-linecap: round;stroke-linejoin: round;stroke-miterlimit: 10.000000;fill: none;"></path>
  <path d="M1.606476 852.000000L852.000000 1702.393524" style="stroke:rgb(0.000000%,0.000000%,0.000000%); stroke-width: 2.500000;stroke-linecap: round;stroke-linejoin: round;stroke-miterlimit: 10.000000;fill: none;"></path>
  <path d="M852.000000 1702.393524L1702.393524 852.000000" style="stroke:rgb(0.000000%,0.000000%,0.000000%); stroke-width: 2.500000;stroke-linecap: round;stroke-linejoin: round;stroke-miterlimit: 10.000000;fill: none;"></path>
  <path d="M689.398056 1277.015091C689.398056 1207.415710,661.745697 1140.675247,612.535217 1091.464783C563.324753 1042.254303,496.584290 1014.601944,426.984909 1014.601944C357.385529 1014.601944,290.645065 1042.254303,241.434601 1091.464783C192.224121 1140.675247,164.571762 1207.415710,164.571762 1277.015091C164.571762 1346.614471,192.224121 1413.354935,241.434601 1462.565399C290.645065 1511.775879,357.385529 1539.428238,426.984909 1539.428238C496.584290 1539.428238,563.324753 1511.775879,612.535217 1462.565399C661.745697 1413.354935,689.398056 1346.614471,689.398056 1277.015091Z" style="stroke:rgb(25.500488%,41.000366%,88.400269%); stroke-width: 2.500000;stroke-linecap: round;stroke-linejoin: round;stroke-miterlimit: 10.000000;fill: none;"></path>
  <path d="M1136.316589 1440.836792C1136.316589 1371.237411,1108.664230 1304.496948,1059.453751 1255.286484C1010.243286 1206.076004,943.502823 1178.423645,873.903442 1178.423645C804.304062 1178.423645,737.563599 1206.076004,688.353134 1255.286484C639.142654 1304.496948,611.490295 1371.237411,611.490295 1440.836792C611.490295 1510.436172,639.142654 1577.176636,688.353134 1626.387100C737.563599 1675.597580,804.304062 1703.249939,873.903442 1703.249939C943.502823 1703.249939,1010.243286 1675.597580,1059.453751 1626.387100C1108.664230 1577.176636,1136.316589 1510.436172,1136.316589 1440.836792Z" style="stroke:rgb(25.500488%,41.000366%,88.400269%); stroke-width: 2.500000;stroke-linecap: round;stroke-linejoin: round;stroke-miterlimit: 10.000000;fill: none;"></path>
  <path d="M1419.789749 1157.376602C1419.789749 1087.777222,1392.137390 1021.036758,1342.926910 971.826294C1293.716446 922.615814,1226.975983 894.963455,1157.376602 894.963455C1087.777222 894.963455,1021.036758 922.615814,971.826294 971.826294C922.615814 1021.036758,894.963455 1087.777222,894.963455 1157.376602C894.963455 1226.975983,922.615814 1293.716446,971.826294 1342.926910C1021.036758 1392.137390,1087.777222 1419.789749,1157.376602 1419.789749C1226.975983 1419.789749,1293.716446 1392.137390,1342.926910 1342.926910C1392.137390 1293.716446,1419.789749 1226.975983,1419.789749 1157.376602Z" style="stroke:rgb(25.500488%,41.000366%,88.400269%); stroke-width: 2.500000;stroke-linecap: round;stroke-linejoin: round;stroke-miterlimit: 10.000000;fill: none;"></path>
  <path d="M525.576355 830.096558C525.576355 760.497177,497.923996 693.756714,448.713516 644.546249C399.503052 595.335770,332.762589 567.683411,263.163208 567.683411C193.563828 567.683411,126.823364 595.335770,77.612900 644.546249C28.402420 693.756714,0.750061 760.497177,0.750061 830.096558C0.750061 899.695938,28.402420 966.436401,77.612900 1015.646866C126.823364 1064.857346,193.563828 1092.509705,263.163208 1092.509705C332.762589 1092.509705,399.503052 1064.857346,448.713516 1015.646866C497.923996 966.436401,525.576355 899.695938,525.576355 830.096558Z" style="stroke:rgb(25.500488%,41.000366%,88.400269%); stroke-width: 2.500000;stroke-linecap: round;stroke-linejoin: round;stroke-miterlimit: 10.000000;fill: none;"></path>
  <path d="M972.741455 993.671692C972.741455 924.072311,945.089096 857.331848,895.878616 808.121384C846.668152 758.910904,779.927689 731.258545,710.328308 731.258545C640.728928 731.258545,573.988464 758.910904,524.778000 808.121384C475.567520 857.331848,447.915161 924.072311,447.915161 993.671692C447.915161 1063.271072,475.567520 1130.011536,524.778000 1179.222000C573.988464 1228.432480,640.728928 1256.084839,710.328308 1256.084839C779.927689 1256.084839,846.668152 1228.432480,895.878616 1179.222000C945.089096 1130.011536,972.741455 1063.271072,972.741455 993.671692Z" style="stroke:rgb(25.500488%,41.000366%,88.400269%); stroke-width: 2.500000;stroke-linecap: round;stroke-linejoin: round;stroke-miterlimit: 10.000000;fill: none;"></path>
  <path d="M1256.084839 710.328308C1256.084839 640.728928,1228.432480 573.988464,1179.222000 524.778000C1130.011536 475.567520,1063.271072 447.915161,993.671692 447.915161C924.072311 447.915161,857.331848 475.567520,808.121384 524.778000C758.910904 573.988464,731.258545 640.728928,731.258545 710.328308C731.258545 779.927689,758.910904 846.668152,808.121384 895.878616C857.331848 945.089096,924.072311 972.741455,993.671692 972.741455C1063.271072 972.741455,1130.011536 945.089096,1179.222000 895.878616C1228.432480 846.668152,1256.084839 779.927689,1256.084839 710.328308Z" style="stroke:rgb(25.500488%,41.000366%,88.400269%); stroke-width: 2.500000;stroke-linecap: round;stroke-linejoin: round;stroke-miterlimit: 10.000000;fill: none;"></path>
  <path d="M1703.249939 873.903442C1703.249939 804.304062,1675.597580 737.563599,1626.387100 688.353134C1577.176636 639.142654,1510.436172 611.490295,1440.836792 611.490295C1371.237411 611.490295,1304.496948 639.142654,1255.286484 688.353134C1206.076004 737.563599,1178.423645 804.304062,1178.423645 873.903442C1178.423645 943.502823,1206.076004 1010.243286,1255.286484 1059.453751C1304.496948 1108.664230,1371.237411 1136.316589,1440.836792 1136.316589C1510.436172 1136.316589,1577.176636 1108.664230,1626.387100 1059.453751C1675.597580 1010.243286,1703.249939 943.502823,1703.249939 873.903442Z" style="stroke:rgb(25.500488%,41.000366%,88.400269%); stroke-width: 2.500000;stroke-linecap: round;stroke-linejoin: round;stroke-miterlimit: 10.000000;fill: none;"></path>
  <path d="M809.036545 546.623398C809.036545 477.024017,781.384186 410.283554,732.173706 361.073090C682.963242 311.862610,616.222778 284.210251,546.623398 284.210251C477.024017 284.210251,410.283554 311.862610,361.073090 361.073090C311.862610 410.283554,284.210251 477.024017,284.210251 546.623398C284.210251 616.222778,311.862610 682.963242,361.073090 732.173706C410.283554 781.384186,477.024017 809.036545,546.623398 809.036545C616.222778 809.036545,682.963242 781.384186,732.173706 732.173706C781.384186 682.963242,809.036545 616.222778,809.036545 546.623398Z" style="stroke:rgb(25.500488%,41.000366%,88.400269%); stroke-width: 2.500000;stroke-linecap: round;stroke-linejoin: round;stroke-miterlimit: 10.000000;fill: none;"></path>
  <path d="M1092.509705 263.163208C1092.509705 193.563828,1064.857346 126.823364,1015.646866 77.612900C966.436401 28.402420,899.695938 0.750061,830.096558 0.750061C760.497177 0.750061,693.756714 28.402420,644.546249 77.612900C595.335770 126.823364,567.683411 193.563828,567.683411 263.163208C567.683411 332.762589,595.335770 399.503052,644.546249 448.713516C693.756714 497.923996,760.497177 525.576355,830.096558 525.576355C899.695938 525.576355,966.436401 497.923996,1015.646866 448.713516C1064.857346 399.503052,1092.509705 332.762589,1092.509705 263.163208Z" style="stroke:rgb(25.500488%,41.000366%,88.400269%); stroke-width: 2.500000;stroke-linecap: round;stroke-linejoin: round;stroke-miterlimit: 10.000000;fill: none;"></path>
  <path d="M1539.428238 426.984909C1539.428238 357.385529,1511.775879 290.645065,1462.565399 241.434601C1413.354935 192.224121,1346.614471 164.571762,1277.015091 164.571762C1207.415710 164.571762,1140.675247 192.224121,1091.464783 241.434601C1042.254303 290.645065,1014.601944 357.385529,1014.601944 426.984909C1014.601944 496.584290,1042.254303 563.324753,1091.464783 612.535217C1140.675247 661.745697,1207.415710 689.398056,1277.015091 689.398056C1346.614471 689.398056,1413.354935 661.745697,1462.565399 612.535217C1511.775879 563.324753,1539.428238 496.584290,1539.428238 426.984909Z" style="stroke:rgb(25.500488%,41.000366%,88.400269%); stroke-width: 2.500000;stroke-linecap: round;stroke-linejoin: round;stroke-miterlimit: 10.000000;fill: none;"></path>
</svg>
