<?xml version="1.0"?>
<!-- Created by MetaPost 2.00 on 2022.03.02:1201 -->
<svg version="1.1" xmlns="http://www.w3.org/2000/svg" xmlns:xlink="http://www.w3.org/1999/xlink" width="1659.233627" height="1662.399750" viewBox="0 0 1659.233627 1662.399750">
<!-- Original BoundingBox: -821.461411 -793.874481 837.772217 868.525269 -->
  <path d="M821.000000 17.606476L12.233398 605.210541L321.152451 1555.986221L1320.847549 1555.986221L1629.766602 605.210541L821.000000 17.606476Z" style="fill: rgb(100.000000%,100.000000%,100.000000%);stroke: none;"></path>
  <path d="M821.000000 17.606476L12.233398 605.210541" style="stroke:rgb(0.000000%,0.000000%,0.000000%); stroke-width: 2.500000;stroke-linecap: round;stroke-linejoin: round;stroke-miterlimit: 10.000000;fill: none;"></path>
  <path d="M12.233398 605.210541L321.152451 1555.986221" style="stroke:rgb(0.000000%,0.000000%,0.000000%); stroke-width: 2.500000;stroke-linecap: round;stroke-linejoin: round;stroke-miterlimit: 10.000000;fill: none;"></path>
  <path d="M321.152451 1555.986221L1320.847549 1555.986221" style="stroke:rgb(0.000000%,0.000000%,0.000000%); stroke-width: 2.500000;stroke-linecap: round;stroke-linejoin: round;stroke-miterlimit: 10.000000;fill: none;"></path>
  <path d="M1320.847549 1555.986221L1629.766602 605.210541" style="stroke:rgb(0.000000%,0.000000%,0.000000%); stroke-width: 2.500000;stroke-linecap: round;stroke-linejoin: round;stroke-miterlimit: 10.000000;fill: none;"></path>
  <path d="M1629.766602 605.210541L821.000000 17.606476" style="stroke:rgb(0.000000%,0.000000%,0.000000%); stroke-width: 2.500000;stroke-linecap: round;stroke-linejoin: round;stroke-miterlimit: 10.000000;fill: none;"></path>
  <path d="M1657.522217 625.712585C1657.522217 593.007095,1644.528076 561.645065,1621.403564 538.520538C1598.279037 515.396027,1566.917007 502.401886,1534.211517 502.401886C1501.506027 502.401886,1470.143997 515.396027,1447.019470 538.520538C1423.894958 561.645065,1410.900818 593.007095,1410.900818 625.712585C1410.900818 658.418076,1423.894958 689.780106,1447.019470 712.904633C1470.143997 736.029144,1501.506027 749.023285,1534.211517 749.023285C1566.917007 749.023285,1598.279037 736.029144,1621.403564 712.904633C1644.528076 689.780106,1657.522217 658.418076,1657.522217 625.712585Z" style="stroke:rgb(25.500488%,41.000366%,88.400269%); stroke-width: 2.500000;stroke-linecap: round;stroke-linejoin: round;stroke-miterlimit: 10.000000;fill: none;"></path>
  <path d="M1501.070877 474.646286C1501.070877 441.940796,1488.076736 410.578766,1464.952225 387.454239C1441.827698 364.329727,1410.465668 351.335587,1377.760178 351.335587C1345.054688 351.335587,1313.692657 364.329727,1290.568130 387.454239C1267.443619 410.578766,1254.449478 441.940796,1254.449478 474.646286C1254.449478 507.351776,1267.443619 538.713806,1290.568130 561.838333C1313.692657 584.962845,1345.054688 597.956985,1377.760178 597.956985C1410.465668 597.956985,1441.827698 584.962845,1464.952225 561.838333C1488.076736 538.713806,1501.070877 507.351776,1501.070877 474.646286Z" style="stroke:rgb(25.500488%,41.000366%,88.400269%); stroke-width: 2.500000;stroke-linecap: round;stroke-linejoin: round;stroke-miterlimit: 10.000000;fill: none;"></path>
  <path d="M1309.208099 366.530457C1309.208099 333.824966,1296.213959 302.462936,1273.089447 279.338409C1249.964920 256.213898,1218.602890 243.219757,1185.897400 243.219757C1153.191910 243.219757,1121.829880 256.213898,1098.705353 279.338409C1075.580841 302.462936,1062.586700 333.824966,1062.586700 366.530457C1062.586700 399.235947,1075.580841 430.597977,1098.705353 453.722504C1121.829880 476.847015,1153.191910 489.841156,1185.897400 489.841156C1218.602890 489.841156,1249.964920 476.847015,1273.089447 453.722504C1296.213959 430.597977,1309.208099 399.235947,1309.208099 366.530457Z" style="stroke:rgb(25.500488%,41.000366%,88.400269%); stroke-width: 2.500000;stroke-linecap: round;stroke-linejoin: round;stroke-miterlimit: 10.000000;fill: none;"></path>
  <path d="M1142.882050 240.365051C1142.882050 207.659561,1129.887909 176.297531,1106.763397 153.173004C1083.638870 130.048492,1052.276840 117.054352,1019.571350 117.054352C986.865860 117.054352,955.503830 130.048492,932.379303 153.173004C909.254791 176.297531,896.260651 207.659561,896.260651 240.365051C896.260651 273.070541,909.254791 304.432571,932.379303 327.557098C955.503830 350.681610,986.865860 363.675751,1019.571350 363.675751C1052.276840 363.675751,1083.638870 350.681610,1106.763397 327.557098C1129.887909 304.432571,1142.882050 273.070541,1142.882050 240.365051Z" style="stroke:rgb(25.500488%,41.000366%,88.400269%); stroke-width: 2.500000;stroke-linecap: round;stroke-linejoin: round;stroke-miterlimit: 10.000000;fill: none;"></path>
  <path d="M971.391556 124.035431C971.391556 91.329941,958.397415 59.967911,935.272903 36.843384C912.148376 13.718872,880.786346 0.724731,848.080856 0.724731C815.375366 0.724731,784.013336 13.718872,760.888809 36.843384C737.764297 59.967911,724.770157 91.329941,724.770157 124.035431C724.770157 156.740921,737.764297 188.102951,760.888809 211.227478C784.013336 234.351990,815.375366 247.346130,848.080856 247.346130C880.786346 247.346130,912.148376 234.351990,935.272903 211.227478C958.397415 188.102951,971.391556 156.740921,971.391556 124.035431Z" style="stroke:rgb(25.500488%,41.000366%,88.400269%); stroke-width: 2.500000;stroke-linecap: round;stroke-linejoin: round;stroke-miterlimit: 10.000000;fill: none;"></path>
  <path d="M1628.715546 829.811707C1628.715546 797.106216,1615.721405 765.744186,1592.596893 742.619659C1569.472366 719.495148,1538.110336 706.501007,1505.404846 706.501007C1472.699356 706.501007,1441.337326 719.495148,1418.212799 742.619659C1395.088287 765.744186,1382.094147 797.106216,1382.094147 829.811707C1382.094147 862.517197,1395.088287 893.879227,1418.212799 917.003754C1441.337326 940.128265,1472.699356 953.122406,1505.404846 953.122406C1538.110336 953.122406,1569.472366 940.128265,1592.596893 917.003754C1615.721405 893.879227,1628.715546 862.517197,1628.715546 829.811707Z" style="stroke:rgb(25.500488%,41.000366%,88.400269%); stroke-width: 2.500000;stroke-linecap: round;stroke-linejoin: round;stroke-miterlimit: 10.000000;fill: none;"></path>
  <path d="M1458.652420 680.613937C1458.652420 647.908447,1445.658279 616.546417,1422.533768 593.421890C1399.409241 570.297379,1368.047211 557.303238,1335.341721 557.303238C1302.636230 557.303238,1271.274200 570.297379,1248.149673 593.421890C1225.025162 616.546417,1212.031021 647.908447,1212.031021 680.613937C1212.031021 713.319427,1225.025162 744.681458,1248.149673 767.805984C1271.274200 790.930496,1302.636230 803.924637,1335.341721 803.924637C1368.047211 803.924637,1399.409241 790.930496,1422.533768 767.805984C1445.658279 744.681458,1458.652420 713.319427,1458.652420 680.613937Z" style="stroke:rgb(25.500488%,41.000366%,88.400269%); stroke-width: 2.500000;stroke-linecap: round;stroke-linejoin: round;stroke-miterlimit: 10.000000;fill: none;"></path>
  <path d="M1293.572052 558.938217C1293.572052 526.232727,1280.577911 494.870697,1257.453400 471.746170C1234.328873 448.621658,1202.966843 435.627518,1170.261353 435.627518C1137.555862 435.627518,1106.193832 448.621658,1083.069305 471.746170C1059.944794 494.870697,1046.950653 526.232727,1046.950653 558.938217C1046.950653 591.643707,1059.944794 623.005737,1083.069305 646.130264C1106.193832 669.254776,1137.555862 682.248917,1170.261353 682.248917C1202.966843 682.248917,1234.328873 669.254776,1257.453400 646.130264C1280.577911 623.005737,1293.572052 591.643707,1293.572052 558.938217Z" style="stroke:rgb(25.500488%,41.000366%,88.400269%); stroke-width: 2.500000;stroke-linecap: round;stroke-linejoin: round;stroke-miterlimit: 10.000000;fill: none;"></path>
  <path d="M1102.046661 445.774734C1102.046661 413.069244,1089.052521 381.707214,1065.928009 358.582687C1042.803482 335.458176,1011.441452 322.464035,978.735962 322.464035C946.030472 322.464035,914.668442 335.458176,891.543915 358.582687C868.419403 381.707214,855.425262 413.069244,855.425262 445.774734C855.425262 478.480225,868.419403 509.842255,891.543915 532.966782C914.668442 556.091293,946.030472 569.085434,978.735962 569.085434C1011.441452 569.085434,1042.803482 556.091293,1065.928009 532.966782C1089.052521 509.842255,1102.046661 478.480225,1102.046661 445.774734Z" style="stroke:rgb(25.500488%,41.000366%,88.400269%); stroke-width: 2.500000;stroke-linecap: round;stroke-linejoin: round;stroke-miterlimit: 10.000000;fill: none;"></path>
  <path d="M939.600418 331.391510C939.600418 298.686020,926.606277 267.323990,903.481766 244.199463C880.357239 221.074951,848.995209 208.080811,816.289719 208.080811C783.584229 208.080811,752.222198 221.074951,729.097672 244.199463C705.973160 267.323990,692.979019 298.686020,692.979019 331.391510C692.979019 364.097000,705.973160 395.459030,729.097672 418.583557C752.222198 441.708069,783.584229 454.702209,816.289719 454.702209C848.995209 454.702209,880.357239 441.708069,903.481766 418.583557C926.606277 395.459030,939.600418 364.097000,939.600418 331.391510Z" style="stroke:rgb(25.500488%,41.000366%,88.400269%); stroke-width: 2.500000;stroke-linecap: round;stroke-linejoin: round;stroke-miterlimit: 10.000000;fill: none;"></path>
  <path d="M810.813858 197.219925C810.813858 164.514435,797.819717 133.152405,774.695206 110.027878C751.570679 86.903366,720.208649 73.909225,687.503159 73.909225C654.797668 73.909225,623.435638 86.903366,600.311111 110.027878C577.186600 133.152405,564.192459 164.514435,564.192459 197.219925C564.192459 229.925415,577.186600 261.287445,600.311111 284.411972C623.435638 307.536484,654.797668 320.530624,687.503159 320.530624C720.208649 320.530624,751.570679 307.536484,774.695206 284.411972C797.819717 261.287445,810.813858 229.925415,810.813858 197.219925Z" style="stroke:rgb(25.500488%,41.000366%,88.400269%); stroke-width: 2.500000;stroke-linecap: round;stroke-linejoin: round;stroke-miterlimit: 10.000000;fill: none;"></path>
  <path d="M1567.793335 1052.401581C1567.793335 1019.696091,1554.799194 988.334061,1531.674683 965.209534C1508.550156 942.085022,1477.188126 929.090881,1444.482635 929.090881C1411.777145 929.090881,1380.415115 942.085022,1357.290588 965.209534C1334.166077 988.334061,1321.171936 1019.696091,1321.171936 1052.401581C1321.171936 1085.107071,1334.166077 1116.469101,1357.290588 1139.593628C1380.415115 1162.718140,1411.777145 1175.712280,1444.482635 1175.712280C1477.188126 1175.712280,1508.550156 1162.718140,1531.674683 1139.593628C1554.799194 1116.469101,1567.793335 1085.107071,1567.793335 1052.401581Z" style="stroke:rgb(25.500488%,41.000366%,88.400269%); stroke-width: 2.500000;stroke-linecap: round;stroke-linejoin: round;stroke-miterlimit: 10.000000;fill: none;"></path>
  <path d="M1440.940201 885.997681C1440.940201 853.292191,1427.946060 821.930161,1404.821548 798.805634C1381.697021 775.681122,1350.334991 762.686981,1317.629501 762.686981C1284.924011 762.686981,1253.561981 775.681122,1230.437454 798.805634C1207.312943 821.930161,1194.318802 853.292191,1194.318802 885.997681C1194.318802 918.703171,1207.312943 950.065201,1230.437454 973.189728C1253.561981 996.314240,1284.924011 1009.308380,1317.629501 1009.308380C1350.334991 1009.308380,1381.697021 996.314240,1404.821548 973.189728C1427.946060 950.065201,1440.940201 918.703171,1440.940201 885.997681Z" style="stroke:rgb(25.500488%,41.000366%,88.400269%); stroke-width: 2.500000;stroke-linecap: round;stroke-linejoin: round;stroke-miterlimit: 10.000000;fill: none;"></path>
  <path d="M1259.626907 765.424911C1259.626907 732.719421,1246.632767 701.357391,1223.508255 678.232864C1200.383728 655.108353,1169.021698 642.114212,1136.316208 642.114212C1103.610718 642.114212,1072.248688 655.108353,1049.124161 678.232864C1025.999649 701.357391,1013.005508 732.719421,1013.005508 765.424911C1013.005508 798.130402,1025.999649 829.492432,1049.124161 852.616959C1072.248688 875.741470,1103.610718 888.735611,1136.316208 888.735611C1169.021698 888.735611,1200.383728 875.741470,1223.508255 852.616959C1246.632767 829.492432,1259.626907 798.130402,1259.626907 765.424911Z" style="stroke:rgb(25.500488%,41.000366%,88.400269%); stroke-width: 2.500000;stroke-linecap: round;stroke-linejoin: round;stroke-miterlimit: 10.000000;fill: none;"></path>
  <path d="M1089.343170 640.842575C1089.343170 608.137085,1076.349030 576.775055,1053.224518 553.650528C1030.099991 530.526016,998.737961 517.531876,966.032471 517.531876C933.326981 517.531876,901.964951 530.526016,878.840424 553.650528C855.715912 576.775055,842.721771 608.137085,842.721771 640.842575C842.721771 673.548065,855.715912 704.910095,878.840424 728.034622C901.964951 751.159134,933.326981 764.153275,966.032471 764.153275C998.737961 764.153275,1030.099991 751.159134,1053.224518 728.034622C1076.349030 704.910095,1089.343170 673.548065,1089.343170 640.842575Z" style="stroke:rgb(25.500488%,41.000366%,88.400269%); stroke-width: 2.500000;stroke-linecap: round;stroke-linejoin: round;stroke-miterlimit: 10.000000;fill: none;"></path>
  <path d="M897.363617 540.966492C897.363617 508.261002,884.369476 476.898972,861.244965 453.774445C838.120438 430.649933,806.758408 417.655792,774.052917 417.655792C741.347427 417.655792,709.985397 430.649933,686.860870 453.774445C663.736359 476.898972,650.742218 508.261002,650.742218 540.966492C650.742218 573.671982,663.736359 605.034012,686.860870 628.158539C709.985397 651.283051,741.347427 664.277191,774.052917 664.277191C806.758408 664.277191,838.120438 651.283051,861.244965 628.158539C884.369476 605.034012,897.363617 573.671982,897.363617 540.966492Z" style="stroke:rgb(25.500488%,41.000366%,88.400269%); stroke-width: 2.500000;stroke-linecap: round;stroke-linejoin: round;stroke-miterlimit: 10.000000;fill: none;"></path>
  <path d="M736.591278 414.074432C736.591278 381.368942,723.597137 350.006912,700.472626 326.882385C677.348099 303.757874,645.986069 290.763733,613.280579 290.763733C580.575089 290.763733,549.213058 303.757874,526.088531 326.882385C502.964020 350.006912,489.969879 381.368942,489.969879 414.074432C489.969879 446.779922,502.964020 478.141953,526.088531 501.266479C549.213058 524.390991,580.575089 537.385132,613.280579 537.385132C645.986069 537.385132,677.348099 524.390991,700.472626 501.266479C723.597137 478.141953,736.591278 446.779922,736.591278 414.074432Z" style="stroke:rgb(25.500488%,41.000366%,88.400269%); stroke-width: 2.500000;stroke-linecap: round;stroke-linejoin: round;stroke-miterlimit: 10.000000;fill: none;"></path>
  <path d="M607.506287 297.744812C607.506287 265.039322,594.512146 233.677292,571.387634 210.552765C548.263107 187.428253,516.901077 174.434113,484.195587 174.434113C451.490097 174.434113,420.128067 187.428253,397.003540 210.552765C373.879028 233.677292,360.884888 265.039322,360.884888 297.744812C360.884888 330.450302,373.879028 361.812332,397.003540 384.936859C420.128067 408.061371,451.490097 421.055511,484.195587 421.055511C516.901077 421.055511,548.263107 408.061371,571.387634 384.936859C594.512146 361.812332,607.506287 330.450302,607.506287 297.744812Z" style="stroke:rgb(25.500488%,41.000366%,88.400269%); stroke-width: 2.500000;stroke-linecap: round;stroke-linejoin: round;stroke-miterlimit: 10.000000;fill: none;"></path>
  <path d="M1377.163284 1053.893829C1377.163284 1021.188339,1364.169144 989.826309,1341.044632 966.701782C1317.920105 943.577271,1286.558075 930.583130,1253.852585 930.583130C1221.147095 930.583130,1189.785065 943.577271,1166.660538 966.701782C1143.536026 989.826309,1130.541885 1021.188339,1130.541885 1053.893829C1130.541885 1086.599319,1143.536026 1117.961349,1166.660538 1141.085876C1189.785065 1164.210388,1221.147095 1177.204529,1253.852585 1177.204529C1286.558075 1177.204529,1317.920105 1164.210388,1341.044632 1141.085876C1364.169144 1117.961349,1377.163284 1086.599319,1377.163284 1053.893829Z" style="stroke:rgb(25.500488%,41.000366%,88.400269%); stroke-width: 2.500000;stroke-linecap: round;stroke-linejoin: round;stroke-miterlimit: 10.000000;fill: none;"></path>
  <path d="M1221.866806 950.916489C1221.866806 918.210999,1208.872665 886.848969,1185.748154 863.724442C1162.623627 840.599930,1131.261597 827.605789,1098.556107 827.605789C1065.850616 827.605789,1034.488586 840.599930,1011.364059 863.724442C988.239548 886.848969,975.245407 918.210999,975.245407 950.916489C975.245407 983.621979,988.239548 1014.984009,1011.364059 1038.108536C1034.488586 1061.233047,1065.850616 1074.227188,1098.556107 1074.227188C1131.261597 1074.227188,1162.623627 1061.233047,1185.748154 1038.108536C1208.872665 1014.984009,1221.866806 983.621979,1221.866806 950.916489Z" style="stroke:rgb(25.500488%,41.000366%,88.400269%); stroke-width: 2.500000;stroke-linecap: round;stroke-linejoin: round;stroke-miterlimit: 10.000000;fill: none;"></path>
  <path d="M1040.436722 831.641312C1040.436722 798.935822,1027.442581 767.573792,1004.318069 744.449265C981.193542 721.324753,949.831512 708.330612,917.126022 708.330612C884.420532 708.330612,853.058502 721.324753,829.933975 744.449265C806.809464 767.573792,793.815323 798.935822,793.815323 831.641312C793.815323 864.346802,806.809464 895.708832,829.933975 918.833359C853.058502 941.957870,884.420532 954.952011,917.126022 954.952011C949.831512 954.952011,981.193542 941.957870,1004.318069 918.833359C1027.442581 895.708832,1040.436722 864.346802,1040.436722 831.641312Z" style="stroke:rgb(25.500488%,41.000366%,88.400269%); stroke-width: 2.500000;stroke-linecap: round;stroke-linejoin: round;stroke-miterlimit: 10.000000;fill: none;"></path>
  <path d="M869.802643 712.418060C869.802643 679.712570,856.808502 648.350540,833.683990 625.226013C810.559464 602.101501,779.197433 589.107361,746.491943 589.107361C713.786453 589.107361,682.424423 602.101501,659.299896 625.226013C636.175385 648.350540,623.181244 679.712570,623.181244 712.418060C623.181244 745.123550,636.175385 776.485580,659.299896 799.610107C682.424423 822.734619,713.786453 835.728760,746.491943 835.728760C779.197433 835.728760,810.559464 822.734619,833.683990 799.610107C856.808502 776.485580,869.802643 745.123550,869.802643 712.418060Z" style="stroke:rgb(25.500488%,41.000366%,88.400269%); stroke-width: 2.500000;stroke-linecap: round;stroke-linejoin: round;stroke-miterlimit: 10.000000;fill: none;"></path>
  <path d="M674.176849 603.264145C674.176849 570.558655,661.182709 539.196625,638.058197 516.072098C614.933670 492.947586,583.571640 479.953445,550.866150 479.953445C518.160660 479.953445,486.798630 492.947586,463.674103 516.072098C440.549591 539.196625,427.555450 570.558655,427.555450 603.264145C427.555450 635.969635,440.549591 667.331665,463.674103 690.456192C486.798630 713.580704,518.160660 726.574844,550.866150 726.574844C583.571640 726.574844,614.933670 713.580704,638.058197 690.456192C661.182709 667.331665,674.176849 635.969635,674.176849 603.264145Z" style="stroke:rgb(25.500488%,41.000366%,88.400269%); stroke-width: 2.500000;stroke-linecap: round;stroke-linejoin: round;stroke-miterlimit: 10.000000;fill: none;"></path>
  <path d="M514.546387 466.588196C514.546387 433.882706,501.552246 402.520676,478.427734 379.396149C455.303207 356.271637,423.941177 343.277496,391.235687 343.277496C358.530197 343.277496,327.168167 356.271637,304.043640 379.396149C280.919128 402.520676,267.924988 433.882706,267.924988 466.588196C267.924988 499.293686,280.919128 530.655716,304.043640 553.780243C327.168167 576.904755,358.530197 589.898895,391.235687 589.898895C423.941177 589.898895,455.303207 576.904755,478.427734 553.780243C501.552246 530.655716,514.546387 499.293686,514.546387 466.588196Z" style="stroke:rgb(25.500488%,41.000366%,88.400269%); stroke-width: 2.500000;stroke-linecap: round;stroke-linejoin: round;stroke-miterlimit: 10.000000;fill: none;"></path>
  <path d="M1463.635193 1241.902725C1463.635193 1209.197235,1450.641052 1177.835205,1427.516541 1154.710678C1404.392014 1131.586166,1373.029984 1118.592026,1340.324493 1118.592026C1307.619003 1118.592026,1276.256973 1131.586166,1253.132446 1154.710678C1230.007935 1177.835205,1217.013794 1209.197235,1217.013794 1241.902725C1217.013794 1274.608215,1230.007935 1305.970245,1253.132446 1329.094772C1276.256973 1352.219284,1307.619003 1365.213425,1340.324493 1365.213425C1373.029984 1365.213425,1404.392014 1352.219284,1427.516541 1329.094772C1450.641052 1305.970245,1463.635193 1274.608215,1463.635193 1241.902725Z" style="stroke:rgb(25.500488%,41.000366%,88.400269%); stroke-width: 2.500000;stroke-linecap: round;stroke-linejoin: round;stroke-miterlimit: 10.000000;fill: none;"></path>
  <path d="M1239.034027 1161.399780C1239.034027 1128.694290,1226.039886 1097.332260,1202.915375 1074.207733C1179.790848 1051.083221,1148.428818 1038.089081,1115.723328 1038.089081C1083.017838 1038.089081,1051.655807 1051.083221,1028.531281 1074.207733C1005.406769 1097.332260,992.412628 1128.694290,992.412628 1161.399780C992.412628 1194.105270,1005.406769 1225.467300,1028.531281 1248.591827C1051.655807 1271.716339,1083.017838 1284.710480,1115.723328 1284.710480C1148.428818 1284.710480,1179.790848 1271.716339,1202.915375 1248.591827C1226.039886 1225.467300,1239.034027 1194.105270,1239.034027 1161.399780Z" style="stroke:rgb(25.500488%,41.000366%,88.400269%); stroke-width: 2.500000;stroke-linecap: round;stroke-linejoin: round;stroke-miterlimit: 10.000000;fill: none;"></path>
  <path d="M1044.121902 1050.571976C1044.121902 1017.866486,1031.127762 986.504456,1008.003250 963.379929C984.878723 940.255417,953.516693 927.261276,920.811203 927.261276C888.105713 927.261276,856.743683 940.255417,833.619156 963.379929C810.494644 986.504456,797.500504 1017.866486,797.500504 1050.571976C797.500504 1083.277466,810.494644 1114.639496,833.619156 1137.764023C856.743683 1160.888535,888.105713 1173.882675,920.811203 1173.882675C953.516693 1173.882675,984.878723 1160.888535,1008.003250 1137.764023C1031.127762 1114.639496,1044.121902 1083.277466,1044.121902 1050.571976Z" style="stroke:rgb(25.500488%,41.000366%,88.400269%); stroke-width: 2.500000;stroke-linecap: round;stroke-linejoin: round;stroke-miterlimit: 10.000000;fill: none;"></path>
  <path d="M863.626083 923.394440C863.626083 890.688950,850.631943 859.326920,827.507431 836.202393C804.382904 813.077881,773.020874 800.083740,740.315384 800.083740C707.609894 800.083740,676.247864 813.077881,653.123337 836.202393C629.998825 859.326920,617.004684 890.688950,617.004684 923.394440C617.004684 956.099930,629.998825 987.461960,653.123337 1010.586487C676.247864 1033.710999,707.609894 1046.705139,740.315384 1046.705139C773.020874 1046.705139,804.382904 1033.710999,827.507431 1010.586487C850.631943 987.461960,863.626083 956.099930,863.626083 923.394440Z" style="stroke:rgb(25.500488%,41.000366%,88.400269%); stroke-width: 2.500000;stroke-linecap: round;stroke-linejoin: round;stroke-miterlimit: 10.000000;fill: none;"></path>
  <path d="M680.003052 806.506851C680.003052 773.801361,667.008911 742.439331,643.884399 719.314804C620.759872 696.190292,589.397842 683.196152,556.692352 683.196152C523.986862 683.196152,492.624832 696.190292,469.500305 719.314804C446.375793 742.439331,433.381653 773.801361,433.381653 806.506851C433.381653 839.212341,446.375793 870.574371,469.500305 893.698898C492.624832 916.823410,523.986862 929.817551,556.692352 929.817551C589.397842 929.817551,620.759872 916.823410,643.884399 893.698898C667.008911 870.574371,680.003052 839.212341,680.003052 806.506851Z" style="stroke:rgb(25.500488%,41.000366%,88.400269%); stroke-width: 2.500000;stroke-linecap: round;stroke-linejoin: round;stroke-miterlimit: 10.000000;fill: none;"></path>
  <path d="M485.506165 687.569061C485.506165 654.863571,472.512024 623.501541,449.387512 600.377014C426.262985 577.252502,394.900955 564.258362,362.195465 564.258362C329.489975 564.258362,298.127945 577.252502,275.003418 600.377014C251.878906 623.501541,238.884766 654.863571,238.884766 687.569061C238.884766 720.274551,251.878906 751.636581,275.003418 774.761108C298.127945 797.885620,329.489975 810.879761,362.195465 810.879761C394.900955 810.879761,426.262985 797.885620,449.387512 774.761108C472.512024 751.636581,485.506165 720.274551,485.506165 687.569061Z" style="stroke:rgb(25.500488%,41.000366%,88.400269%); stroke-width: 2.500000;stroke-linecap: round;stroke-linejoin: round;stroke-miterlimit: 10.000000;fill: none;"></path>
  <path d="M355.292252 521.800980C355.292252 489.095490,342.298111 457.733459,319.173599 434.608932C296.049072 411.484421,264.687042 398.490280,231.981552 398.490280C199.276062 398.490280,167.914032 411.484421,144.789505 434.608932C121.664993 457.733459,108.670853 489.095490,108.670853 521.800980C108.670853 554.506470,121.664993 585.868500,144.789505 608.993027C167.914032 632.117538,199.276062 645.111679,231.981552 645.111679C264.687042 645.111679,296.049072 632.117538,319.173599 608.993027C342.298111 585.868500,355.292252 554.506470,355.292252 521.800980Z" style="stroke:rgb(25.500488%,41.000366%,88.400269%); stroke-width: 2.500000;stroke-linecap: round;stroke-linejoin: round;stroke-miterlimit: 10.000000;fill: none;"></path>
  <path d="M1418.673431 1440.616821C1418.673431 1407.911331,1405.679291 1376.549301,1382.554779 1353.424774C1359.430252 1330.300262,1328.068222 1317.306122,1295.362732 1317.306122C1262.657242 1317.306122,1231.295212 1330.300262,1208.170685 1353.424774C1185.046173 1376.549301,1172.052032 1407.911331,1172.052032 1440.616821C1172.052032 1473.322311,1185.046173 1504.684341,1208.170685 1527.808868C1231.295212 1550.933380,1262.657242 1563.927521,1295.362732 1563.927521C1328.068222 1563.927521,1359.430252 1550.933380,1382.554779 1527.808868C1405.679291 1504.684341,1418.673431 1473.322311,1418.673431 1440.616821Z" style="stroke:rgb(25.500488%,41.000366%,88.400269%); stroke-width: 2.500000;stroke-linecap: round;stroke-linejoin: round;stroke-miterlimit: 10.000000;fill: none;"></path>
  <path d="M1250.530746 1315.074249C1250.530746 1282.368759,1237.536606 1251.006729,1214.412094 1227.882202C1191.287567 1204.757690,1159.925537 1191.763550,1127.220047 1191.763550C1094.514557 1191.763550,1063.152527 1204.757690,1040.028000 1227.882202C1016.903488 1251.006729,1003.909348 1282.368759,1003.909348 1315.074249C1003.909348 1347.779739,1016.903488 1379.141769,1040.028000 1402.266296C1063.152527 1425.390808,1094.514557 1438.384949,1127.220047 1438.384949C1159.925537 1438.384949,1191.287567 1425.390808,1214.412094 1402.266296C1237.536606 1379.141769,1250.530746 1347.779739,1250.530746 1315.074249Z" style="stroke:rgb(25.500488%,41.000366%,88.400269%); stroke-width: 2.500000;stroke-linecap: round;stroke-linejoin: round;stroke-miterlimit: 10.000000;fill: none;"></path>
  <path d="M1047.949814 1253.360519C1047.949814 1220.655029,1034.955673 1189.292999,1011.831161 1166.168472C988.706635 1143.043961,957.344604 1130.049820,924.639114 1130.049820C891.933624 1130.049820,860.571594 1143.043961,837.447067 1166.168472C814.322556 1189.292999,801.328415 1220.655029,801.328415 1253.360519C801.328415 1286.066010,814.322556 1317.428040,837.447067 1340.552567C860.571594 1363.677078,891.933624 1376.671219,924.639114 1376.671219C957.344604 1376.671219,988.706635 1363.677078,1011.831161 1340.552567C1034.955673 1317.428040,1047.949814 1286.066010,1047.949814 1253.360519Z" style="stroke:rgb(25.500488%,41.000366%,88.400269%); stroke-width: 2.500000;stroke-linecap: round;stroke-linejoin: round;stroke-miterlimit: 10.000000;fill: none;"></path>
  <path d="M853.984940 1134.630341C853.984940 1101.924850,840.990799 1070.562820,817.866287 1047.438293C794.741760 1024.313782,763.379730 1011.319641,730.674240 1011.319641C697.968750 1011.319641,666.606720 1024.313782,643.482193 1047.438293C620.357681 1070.562820,607.363541 1101.924850,607.363541 1134.630341C607.363541 1167.335831,620.357681 1198.697861,643.482193 1221.822388C666.606720 1244.946899,697.968750 1257.941040,730.674240 1257.941040C763.379730 1257.941040,794.741760 1244.946899,817.866287 1221.822388C840.990799 1198.697861,853.984940 1167.335831,853.984940 1134.630341Z" style="stroke:rgb(25.500488%,41.000366%,88.400269%); stroke-width: 2.500000;stroke-linecap: round;stroke-linejoin: round;stroke-miterlimit: 10.000000;fill: none;"></path>
  <path d="M683.389786 1023.049927C683.389786 990.344437,670.395645 958.982407,647.271133 935.857880C624.146606 912.733368,592.784576 899.739227,560.079086 899.739227C527.373596 899.739227,496.011566 912.733368,472.887039 935.857880C449.762527 958.982407,436.768387 990.344437,436.768387 1023.049927C436.768387 1055.755417,449.762527 1087.117447,472.887039 1110.241974C496.011566 1133.366486,527.373596 1146.360626,560.079086 1146.360626C592.784576 1146.360626,624.146606 1133.366486,647.271133 1110.241974C670.395645 1087.117447,683.389786 1055.755417,683.389786 1023.049927Z" style="stroke:rgb(25.500488%,41.000366%,88.400269%); stroke-width: 2.500000;stroke-linecap: round;stroke-linejoin: round;stroke-miterlimit: 10.000000;fill: none;"></path>
  <path d="M501.609344 892.355911C501.609344 859.650421,488.615204 828.288391,465.490692 805.163864C442.366165 782.039352,411.004135 769.045212,378.298645 769.045212C345.593155 769.045212,314.231125 782.039352,291.106598 805.163864C267.982086 828.288391,254.987946 859.650421,254.987946 892.355911C254.987946 925.061401,267.982086 956.423431,291.106598 979.547958C314.231125 1002.672470,345.593155 1015.666611,378.298645 1015.666611C411.004135 1015.666611,442.366165 1002.672470,465.490692 979.547958C488.615204 956.423431,501.609344 925.061401,501.609344 892.355911Z" style="stroke:rgb(25.500488%,41.000366%,88.400269%); stroke-width: 2.500000;stroke-linecap: round;stroke-linejoin: round;stroke-miterlimit: 10.000000;fill: none;"></path>
  <path d="M302.869308 808.154800C302.869308 775.449310,289.875168 744.087280,266.750656 720.962753C243.626129 697.838242,212.264099 684.844101,179.558609 684.844101C146.853119 684.844101,115.491089 697.838242,92.366562 720.962753C69.242050 744.087280,56.247910 775.449310,56.247910 808.154800C56.247910 840.860291,69.242050 872.222321,92.366562 895.346848C115.491089 918.471359,146.853119 931.465500,179.558609 931.465500C212.264099 931.465500,243.626129 918.471359,266.750656 895.346848C289.875168 872.222321,302.869308 840.860291,302.869308 808.154800Z" style="stroke:rgb(25.500488%,41.000366%,88.400269%); stroke-width: 2.500000;stroke-linecap: round;stroke-linejoin: round;stroke-miterlimit: 10.000000;fill: none;"></path>
  <path d="M247.409988 657.088501C247.409988 624.383011,234.415848 593.020981,211.291336 569.896454C188.166809 546.771942,156.804779 533.777802,124.099289 533.777802C91.393799 533.777802,60.031769 546.771942,36.907242 569.896454C13.782730 593.020981,0.788589 624.383011,0.788589 657.088501C0.788589 689.793991,13.782730 721.156021,36.907242 744.280548C60.031769 767.405060,91.393799 780.399200,124.099289 780.399200C156.804779 780.399200,188.166809 767.405060,211.291336 744.280548C234.415848 721.156021,247.409988 689.793991,247.409988 657.088501Z" style="stroke:rgb(25.500488%,41.000366%,88.400269%); stroke-width: 2.500000;stroke-linecap: round;stroke-linejoin: round;stroke-miterlimit: 10.000000;fill: none;"></path>
  <path d="M1255.383759 1526.362061C1255.383759 1493.656570,1242.389618 1462.294540,1219.265106 1439.170013C1196.140579 1416.045502,1164.778549 1403.051361,1132.073059 1403.051361C1099.367569 1403.051361,1068.005539 1416.045502,1044.881012 1439.170013C1021.756500 1462.294540,1008.762360 1493.656570,1008.762360 1526.362061C1008.762360 1559.067551,1021.756500 1590.429581,1044.881012 1613.554108C1068.005539 1636.678619,1099.367569 1649.672760,1132.073059 1649.672760C1164.778549 1649.672760,1196.140579 1636.678619,1219.265106 1613.554108C1242.389618 1590.429581,1255.383759 1559.067551,1255.383759 1526.362061Z" style="stroke:rgb(25.500488%,41.000366%,88.400269%); stroke-width: 2.500000;stroke-linecap: round;stroke-linejoin: round;stroke-miterlimit: 10.000000;fill: none;"></path>
  <path d="M1069.710526 1451.789139C1069.710526 1419.083649,1056.716385 1387.721619,1033.591873 1364.597092C1010.467346 1341.472580,979.105316 1328.478439,946.399826 1328.478439C913.694336 1328.478439,882.332306 1341.472580,859.207779 1364.597092C836.083267 1387.721619,823.089127 1419.083649,823.089127 1451.789139C823.089127 1484.494629,836.083267 1515.856659,859.207779 1538.981186C882.332306 1562.105698,913.694336 1575.099838,946.399826 1575.099838C979.105316 1575.099838,1010.467346 1562.105698,1033.591873 1538.981186C1056.716385 1515.856659,1069.710526 1484.494629,1069.710526 1451.789139Z" style="stroke:rgb(25.500488%,41.000366%,88.400269%); stroke-width: 2.500000;stroke-linecap: round;stroke-linejoin: round;stroke-miterlimit: 10.000000;fill: none;"></path>
  <path d="M864.949631 1341.804764C864.949631 1309.099274,851.955490 1277.737244,828.830978 1254.612717C805.706451 1231.488205,774.344421 1218.494064,741.638931 1218.494064C708.933441 1218.494064,677.571411 1231.488205,654.446884 1254.612717C631.322372 1277.737244,618.328232 1309.099274,618.328232 1341.804764C618.328232 1374.510254,631.322372 1405.872284,654.446884 1428.996811C677.571411 1452.121323,708.933441 1465.115463,741.638931 1465.115463C774.344421 1465.115463,805.706451 1452.121323,828.830978 1428.996811C851.955490 1405.872284,864.949631 1374.510254,864.949631 1341.804764Z" style="stroke:rgb(25.500488%,41.000366%,88.400269%); stroke-width: 2.500000;stroke-linecap: round;stroke-linejoin: round;stroke-miterlimit: 10.000000;fill: none;"></path>
  <path d="M673.995178 1246.457306C673.995178 1213.751816,661.001038 1182.389786,637.876526 1159.265259C614.751999 1136.140747,583.389969 1123.146606,550.684479 1123.146606C517.978989 1123.146606,486.616959 1136.140747,463.492432 1159.265259C440.367920 1182.389786,427.373779 1213.751816,427.373779 1246.457306C427.373779 1279.162796,440.367920 1310.524826,463.492432 1333.649353C486.616959 1356.773865,517.978989 1369.768005,550.684479 1369.768005C583.389969 1369.768005,614.751999 1356.773865,637.876526 1333.649353C661.001038 1310.524826,673.995178 1279.162796,673.995178 1246.457306Z" style="stroke:rgb(25.500488%,41.000366%,88.400269%); stroke-width: 2.500000;stroke-linecap: round;stroke-linejoin: round;stroke-miterlimit: 10.000000;fill: none;"></path>
  <path d="M516.570648 1114.232117C516.570648 1081.526627,503.576508 1050.164597,480.451996 1027.040070C457.327469 1003.915558,425.965439 990.921417,393.259949 990.921417C360.554459 990.921417,329.192429 1003.915558,306.067902 1027.040070C282.943390 1050.164597,269.949249 1081.526627,269.949249 1114.232117C269.949249 1146.937607,282.943390 1178.299637,306.067902 1201.424164C329.192429 1224.548676,360.554459 1237.542816,393.259949 1237.542816C425.965439 1237.542816,457.327469 1224.548676,480.451996 1201.424164C503.576508 1178.299637,516.570648 1146.937607,516.570648 1114.232117Z" style="stroke:rgb(25.500488%,41.000366%,88.400269%); stroke-width: 2.500000;stroke-linecap: round;stroke-linejoin: round;stroke-miterlimit: 10.000000;fill: none;"></path>
  <path d="M334.829132 983.356415C334.829132 950.650925,321.834991 919.288895,298.710480 896.164368C275.585953 873.039856,244.223923 860.045715,211.518433 860.045715C178.812943 860.045715,147.450912 873.039856,124.326385 896.164368C101.201874 919.288895,88.207733 950.650925,88.207733 983.356415C88.207733 1016.061905,101.201874 1047.423935,124.326385 1070.548462C147.450912 1093.672974,178.812943 1106.667114,211.518433 1106.667114C244.223923 1106.667114,275.585953 1093.672974,298.710480 1070.548462C321.834991 1047.423935,334.829132 1016.061905,334.829132 983.356415Z" style="stroke:rgb(25.500488%,41.000366%,88.400269%); stroke-width: 2.500000;stroke-linecap: round;stroke-linejoin: round;stroke-miterlimit: 10.000000;fill: none;"></path>
  <path d="M881.831375 1537.313782C881.831375 1504.608292,868.837234 1473.246262,845.712723 1450.121735C822.588196 1426.997223,791.226166 1414.003082,758.520676 1414.003082C725.815186 1414.003082,694.453156 1426.997223,671.328629 1450.121735C648.204117 1473.246262,635.209976 1504.608292,635.209976 1537.313782C635.209976 1570.019272,648.204117 1601.381302,671.328629 1624.505829C694.453156 1647.630341,725.815186 1660.624481,758.520676 1660.624481C791.226166 1660.624481,822.588196 1647.630341,845.712723 1624.505829C868.837234 1601.381302,881.831375 1570.019272,881.831375 1537.313782Z" style="stroke:rgb(25.500488%,41.000366%,88.400269%); stroke-width: 2.500000;stroke-linecap: round;stroke-linejoin: round;stroke-miterlimit: 10.000000;fill: none;"></path>
  <path d="M684.375961 1458.523666C684.375961 1425.818176,671.381821 1394.456146,648.257309 1371.331619C625.132782 1348.207108,593.770752 1335.212967,561.065262 1335.212967C528.359772 1335.212967,496.997742 1348.207108,473.873215 1371.331619C450.748703 1394.456146,437.754562 1425.818176,437.754562 1458.523666C437.754562 1491.229156,450.748703 1522.591187,473.873215 1545.715714C496.997742 1568.840225,528.359772 1581.834366,561.065262 1581.834366C593.770752 1581.834366,625.132782 1568.840225,648.257309 1545.715714C671.381821 1522.591187,684.375961 1491.229156,684.375961 1458.523666Z" style="stroke:rgb(25.500488%,41.000366%,88.400269%); stroke-width: 2.500000;stroke-linecap: round;stroke-linejoin: round;stroke-miterlimit: 10.000000;fill: none;"></path>
  <path d="M493.979477 1341.610123C493.979477 1308.904633,480.985336 1277.542603,457.860825 1254.418076C434.736298 1231.293564,403.374268 1218.299423,370.668777 1218.299423C337.963287 1218.299423,306.601257 1231.293564,283.476730 1254.418076C260.352219 1277.542603,247.358078 1308.904633,247.358078 1341.610123C247.358078 1374.315613,260.352219 1405.677643,283.476730 1428.802170C306.601257 1451.926682,337.963287 1464.920822,370.668777 1464.920822C403.374268 1464.920822,434.736298 1451.926682,457.860825 1428.802170C480.985336 1405.677643,493.979477 1374.315613,493.979477 1341.610123Z" style="stroke:rgb(25.500488%,41.000366%,88.400269%); stroke-width: 2.500000;stroke-linecap: round;stroke-linejoin: round;stroke-miterlimit: 10.000000;fill: none;"></path>
  <path d="M357.173767 1207.905670C357.173767 1175.200180,344.179626 1143.838150,321.055115 1120.713623C297.930588 1097.589111,266.568558 1084.594971,233.863068 1084.594971C201.157578 1084.594971,169.795547 1097.589111,146.671021 1120.713623C123.546509 1143.838150,110.552368 1175.200180,110.552368 1207.905670C110.552368 1240.611160,123.546509 1271.973190,146.671021 1295.097717C169.795547 1318.222229,201.157578 1331.216370,233.863068 1331.216370C266.568558 1331.216370,297.930588 1318.222229,321.055115 1295.097717C344.179626 1271.973190,357.173767 1240.611160,357.173767 1207.905670Z" style="stroke:rgb(25.500488%,41.000366%,88.400269%); stroke-width: 2.500000;stroke-linecap: round;stroke-linejoin: round;stroke-miterlimit: 10.000000;fill: none;"></path>
  <path d="M505.022034 1489.419464C505.022034 1456.713974,492.027893 1425.351944,468.903381 1402.227417C445.778854 1379.102905,414.416824 1366.108765,381.711334 1366.108765C349.005844 1366.108765,317.643814 1379.102905,294.519287 1402.227417C271.394775 1425.351944,258.400635 1456.713974,258.400635 1489.419464C258.400635 1522.124954,271.394775 1553.486984,294.519287 1576.611511C317.643814 1599.736023,349.005844 1612.730164,381.711334 1612.730164C414.416824 1612.730164,445.778854 1599.736023,468.903381 1576.611511C492.027893 1553.486984,505.022034 1522.124954,505.022034 1489.419464Z" style="stroke:rgb(25.500488%,41.000366%,88.400269%); stroke-width: 2.500000;stroke-linecap: round;stroke-linejoin: round;stroke-miterlimit: 10.000000;fill: none;"></path>
</svg>
