<?xml version="1.0"?>
<!-- Created by MetaPost 2.00 on 2022.03.02:1201 -->
<svg version="1.1" xmlns="http://www.w3.org/2000/svg" xmlns:xlink="http://www.w3.org/1999/xlink" width="1707.543152" height="1704.896057" viewBox="0 0 1707.543152 1704.896057">
<!-- Original BoundingBox: -853.771576 -852.448029 853.771576 852.448029 -->
  <path d="M1703.393524 852.000000L853.000000 1.606476L2.606476 852.000000L853.000000 1702.393524L1703.393524 852.000000Z" style="fill: rgb(100.000000%,100.000000%,100.000000%);stroke: none;"></path>
  <path d="M1703.393524 852.000000L853.000000 1.606476" style="stroke:rgb(0.000000%,0.000000%,0.000000%); stroke-width: 2.500000;stroke-linecap: round;stroke-linejoin: round;stroke-miterlimit: 10.000000;fill: none;"></path>
  <path d="M853.000000 1.606476L2.606476 852.000000" style="stroke:rgb(0.000000%,0.000000%,0.000000%); stroke-width: 2.500000;stroke-linecap: round;stroke-linejoin: round;stroke-miterlimit: 10.000000;fill: none;"></path>
  <path d="M2.606476 852.000000L853.000000 1702.393524" style="stroke:rgb(0.000000%,0.000000%,0.000000%); stroke-width: 2.500000;stroke-linecap: round;stroke-linejoin: round;stroke-miterlimit: 10.000000;fill: none;"></path>
  <path d="M853.000000 1702.393524L1703.393524 852.000000" style="stroke:rgb(0.000000%,0.000000%,0.000000%); stroke-width: 2.500000;stroke-linecap: round;stroke-linejoin: round;stroke-miterlimit: 10.000000;fill: none;"></path>
  <path d="M923.472519 1621.215820C923.472519 1599.471817,914.833466 1578.621002,899.459305 1563.246826C884.085129 1547.872665,863.234314 1539.233612,841.490311 1539.233612C819.746307 1539.233612,798.895493 1547.872665,783.521317 1563.246826C768.147156 1578.621002,759.508102 1599.471817,759.508102 1621.215820C759.508102 1642.959824,768.147156 1663.810638,783.521317 1679.184814C798.895493 1694.558975,819.746307 1703.198029,841.490311 1703.198029C863.234314 1703.198029,884.085129 1694.558975,899.459305 1679.184814C914.833466 1663.810638,923.472519 1642.959824,923.472519 1621.215820Z" style="stroke:rgb(25.500488%,41.000366%,88.400269%); stroke-width: 2.500000;stroke-linecap: round;stroke-linejoin: round;stroke-miterlimit: 10.000000;fill: none;"></path>
  <path d="M1013.876144 1551.262344C1013.876144 1529.518341,1005.237091 1508.667526,989.862930 1493.293350C974.488754 1477.919189,953.637939 1469.280136,931.893936 1469.280136C910.149933 1469.280136,889.299118 1477.919189,873.924942 1493.293350C858.550781 1508.667526,849.911728 1529.518341,849.911728 1551.262344C849.911728 1573.006348,858.550781 1593.857162,873.924942 1609.231339C889.299118 1624.605499,910.149933 1633.244553,931.893936 1633.244553C953.637939 1633.244553,974.488754 1624.605499,989.862930 1609.231339C1005.237091 1593.857162,1013.876144 1573.006348,1013.876144 1551.262344Z" style="stroke:rgb(25.500488%,41.000366%,88.400269%); stroke-width: 2.500000;stroke-linecap: round;stroke-linejoin: round;stroke-miterlimit: 10.000000;fill: none;"></path>
  <path d="M1111.144043 1461.559418C1111.144043 1439.815414,1102.504990 1418.964600,1087.130829 1403.590424C1071.756653 1388.216263,1050.905838 1379.577209,1029.161835 1379.577209C1007.417831 1379.577209,986.567017 1388.216263,971.192841 1403.590424C955.818680 1418.964600,947.179626 1439.815414,947.179626 1461.559418C947.179626 1483.303421,955.818680 1504.154236,971.192841 1519.528412C986.567017 1534.902573,1007.417831 1543.541626,1029.161835 1543.541626C1050.905838 1543.541626,1071.756653 1534.902573,1087.130829 1519.528412C1102.504990 1504.154236,1111.144043 1483.303421,1111.144043 1461.559418Z" style="stroke:rgb(25.500488%,41.000366%,88.400269%); stroke-width: 2.500000;stroke-linecap: round;stroke-linejoin: round;stroke-miterlimit: 10.000000;fill: none;"></path>
  <path d="M1211.007156 1366.108139C1211.007156 1344.364136,1202.368103 1323.513321,1186.993942 1308.139145C1171.619766 1292.764984,1150.768951 1284.125931,1129.024948 1284.125931C1107.280945 1284.125931,1086.430130 1292.764984,1071.055954 1308.139145C1055.681793 1323.513321,1047.042740 1344.364136,1047.042740 1366.108139C1047.042740 1387.852142,1055.681793 1408.702957,1071.055954 1424.077133C1086.430130 1439.451294,1107.280945 1448.090347,1129.024948 1448.090347C1150.768951 1448.090347,1171.619766 1439.451294,1186.993942 1424.077133C1202.368103 1408.702957,1211.007156 1387.852142,1211.007156 1366.108139Z" style="stroke:rgb(25.500488%,41.000366%,88.400269%); stroke-width: 2.500000;stroke-linecap: round;stroke-linejoin: round;stroke-miterlimit: 10.000000;fill: none;"></path>
  <path d="M1310.506943 1267.140381C1310.506943 1245.396378,1301.867889 1224.545563,1286.493729 1209.171387C1271.119553 1193.797226,1250.268738 1185.158173,1228.524734 1185.158173C1206.780731 1185.158173,1185.929916 1193.797226,1170.555740 1209.171387C1155.181580 1224.545563,1146.542526 1245.396378,1146.542526 1267.140381C1146.542526 1288.884384,1155.181580 1309.735199,1170.555740 1325.109375C1185.929916 1340.483536,1206.780731 1349.122589,1228.524734 1349.122589C1250.268738 1349.122589,1271.119553 1340.483536,1286.493729 1325.109375C1301.867889 1309.735199,1310.506943 1288.884384,1310.506943 1267.140381Z" style="stroke:rgb(25.500488%,41.000366%,88.400269%); stroke-width: 2.500000;stroke-linecap: round;stroke-linejoin: round;stroke-miterlimit: 10.000000;fill: none;"></path>
  <path d="M1409.941833 1167.757385C1409.941833 1146.013382,1401.302780 1125.162567,1385.928619 1109.788391C1370.554443 1094.414230,1349.703629 1085.775177,1327.959625 1085.775177C1306.215622 1085.775177,1285.364807 1094.414230,1269.990631 1109.788391C1254.616470 1125.162567,1245.977417 1146.013382,1245.977417 1167.757385C1245.977417 1189.501389,1254.616470 1210.352203,1269.990631 1225.726379C1285.364807 1241.100540,1306.215622 1249.739594,1327.959625 1249.739594C1349.703629 1249.739594,1370.554443 1241.100540,1385.928619 1225.726379C1401.302780 1210.352203,1409.941833 1189.501389,1409.941833 1167.757385Z" style="stroke:rgb(25.500488%,41.000366%,88.400269%); stroke-width: 2.500000;stroke-linecap: round;stroke-linejoin: round;stroke-miterlimit: 10.000000;fill: none;"></path>
  <path d="M1508.689011 1068.166779C1508.689011 1046.422775,1500.049957 1025.571960,1484.675797 1010.197784C1469.301620 994.823624,1448.450806 986.184570,1426.706802 986.184570C1404.962799 986.184570,1384.111984 994.823624,1368.737808 1010.197784C1353.363647 1025.571960,1344.724594 1046.422775,1344.724594 1068.166779C1344.724594 1089.910782,1353.363647 1110.761597,1368.737808 1126.135773C1384.111984 1141.509933,1404.962799 1150.148987,1426.706802 1150.148987C1448.450806 1150.148987,1469.301620 1141.509933,1484.675797 1126.135773C1500.049957 1110.761597,1508.689011 1089.910782,1508.689011 1068.166779Z" style="stroke:rgb(25.500488%,41.000366%,88.400269%); stroke-width: 2.500000;stroke-linecap: round;stroke-linejoin: round;stroke-miterlimit: 10.000000;fill: none;"></path>
  <path d="M1607.059875 969.121155C1607.059875 947.377151,1598.420822 926.526337,1583.046661 911.152161C1567.672485 895.778000,1546.821671 887.138947,1525.077667 887.138947C1503.333664 887.138947,1482.482849 895.778000,1467.108673 911.152161C1451.734512 926.526337,1443.095459 947.377151,1443.095459 969.121155C1443.095459 990.865158,1451.734512 1011.715973,1467.108673 1027.090149C1482.482849 1042.464310,1503.333664 1051.103363,1525.077667 1051.103363C1546.821671 1051.103363,1567.672485 1042.464310,1583.046661 1027.090149C1598.420822 1011.715973,1607.059875 990.865158,1607.059875 969.121155Z" style="stroke:rgb(25.500488%,41.000366%,88.400269%); stroke-width: 2.500000;stroke-linecap: round;stroke-linejoin: round;stroke-miterlimit: 10.000000;fill: none;"></path>
  <path d="M1705.521576 870.620529C1705.521576 848.876526,1696.882523 828.025711,1681.508362 812.651535C1666.134186 797.277374,1645.283371 788.638321,1623.539368 788.638321C1601.795364 788.638321,1580.944550 797.277374,1565.570374 812.651535C1550.196213 828.025711,1541.557159 848.876526,1541.557159 870.620529C1541.557159 892.364532,1550.196213 913.215347,1565.570374 928.589523C1580.944550 943.963684,1601.795364 952.602737,1623.539368 952.602737C1645.283371 952.602737,1666.134186 943.963684,1681.508362 928.589523C1696.882523 913.215347,1705.521576 892.364532,1705.521576 870.620529Z" style="stroke:rgb(25.500488%,41.000366%,88.400269%); stroke-width: 2.500000;stroke-linecap: round;stroke-linejoin: round;stroke-miterlimit: 10.000000;fill: none;"></path>
  <path d="M863.432678 1530.474823C863.432678 1508.730820,854.793625 1487.880005,839.419464 1472.505829C824.045288 1457.131668,803.194473 1448.492615,781.450470 1448.492615C759.706467 1448.492615,738.855652 1457.131668,723.481476 1472.505829C708.107315 1487.880005,699.468262 1508.730820,699.468262 1530.474823C699.468262 1552.218826,708.107315 1573.069641,723.481476 1588.443817C738.855652 1603.817978,759.706467 1612.457031,781.450470 1612.457031C803.194473 1612.457031,824.045288 1603.817978,839.419464 1588.443817C854.793625 1573.069641,863.432678 1552.218826,863.432678 1530.474823Z" style="stroke:rgb(25.500488%,41.000366%,88.400269%); stroke-width: 2.500000;stroke-linecap: round;stroke-linejoin: round;stroke-miterlimit: 10.000000;fill: none;"></path>
  <path d="M965.112427 1431.325394C965.112427 1409.581390,956.473373 1388.730576,941.099213 1373.356400C925.725037 1357.982239,904.874222 1349.343185,883.130219 1349.343185C861.386215 1349.343185,840.535400 1357.982239,825.161224 1373.356400C809.787064 1388.730576,801.148010 1409.581390,801.148010 1431.325394C801.148010 1453.069397,809.787064 1473.920212,825.161224 1489.294388C840.535400 1504.668549,861.386215 1513.307602,883.130219 1513.307602C904.874222 1513.307602,925.725037 1504.668549,941.099213 1489.294388C956.473373 1473.920212,965.112427 1453.069397,965.112427 1431.325394Z" style="stroke:rgb(25.500488%,41.000366%,88.400269%); stroke-width: 2.500000;stroke-linecap: round;stroke-linejoin: round;stroke-miterlimit: 10.000000;fill: none;"></path>
  <path d="M1066.467773 1333.901779C1066.467773 1312.157776,1057.828720 1291.306961,1042.454559 1275.932785C1027.080383 1260.558624,1006.229568 1251.919571,984.485565 1251.919571C962.741562 1251.919571,941.890747 1260.558624,926.516571 1275.932785C911.142410 1291.306961,902.503357 1312.157776,902.503357 1333.901779C902.503357 1355.645782,911.142410 1376.496597,926.516571 1391.870773C941.890747 1407.244934,962.741562 1415.883987,984.485565 1415.883987C1006.229568 1415.883987,1027.080383 1407.244934,1042.454559 1391.870773C1057.828720 1376.496597,1066.467773 1355.645782,1066.467773 1333.901779Z" style="stroke:rgb(25.500488%,41.000366%,88.400269%); stroke-width: 2.500000;stroke-linecap: round;stroke-linejoin: round;stroke-miterlimit: 10.000000;fill: none;"></path>
  <path d="M1166.888840 1236.257553C1166.888840 1214.513550,1158.249786 1193.662735,1142.875626 1178.288559C1127.501450 1162.914398,1106.650635 1154.275345,1084.906631 1154.275345C1063.162628 1154.275345,1042.311813 1162.914398,1026.937637 1178.288559C1011.563477 1193.662735,1002.924423 1214.513550,1002.924423 1236.257553C1002.924423 1258.001556,1011.563477 1278.852371,1026.937637 1294.226547C1042.311813 1309.600708,1063.162628 1318.239761,1084.906631 1318.239761C1106.650635 1318.239761,1127.501450 1309.600708,1142.875626 1294.226547C1158.249786 1278.852371,1166.888840 1258.001556,1166.888840 1236.257553Z" style="stroke:rgb(25.500488%,41.000366%,88.400269%); stroke-width: 2.500000;stroke-linecap: round;stroke-linejoin: round;stroke-miterlimit: 10.000000;fill: none;"></path>
  <path d="M1266.245880 1136.524216C1266.245880 1114.780212,1257.606827 1093.929398,1242.232666 1078.555222C1226.858490 1063.181061,1206.007675 1054.542007,1184.263672 1054.542007C1162.519669 1054.542007,1141.668854 1063.181061,1126.294678 1078.555222C1110.920517 1093.929398,1102.281464 1114.780212,1102.281464 1136.524216C1102.281464 1158.268219,1110.920517 1179.119034,1126.294678 1194.493210C1141.668854 1209.867371,1162.519669 1218.506424,1184.263672 1218.506424C1206.007675 1218.506424,1226.858490 1209.867371,1242.232666 1194.493210C1257.606827 1179.119034,1266.245880 1158.268219,1266.245880 1136.524216Z" style="stroke:rgb(25.500488%,41.000366%,88.400269%); stroke-width: 2.500000;stroke-linecap: round;stroke-linejoin: round;stroke-miterlimit: 10.000000;fill: none;"></path>
  <path d="M1365.006027 1036.972534C1365.006027 1015.228531,1356.366974 994.377716,1340.992813 979.003540C1325.618637 963.629379,1304.767822 954.990326,1283.023819 954.990326C1261.279816 954.990326,1240.429001 963.629379,1225.054825 979.003540C1209.680664 994.377716,1201.041611 1015.228531,1201.041611 1036.972534C1201.041611 1058.716537,1209.680664 1079.567352,1225.054825 1094.941528C1240.429001 1110.315689,1261.279816 1118.954742,1283.023819 1118.954742C1304.767822 1118.954742,1325.618637 1110.315689,1340.992813 1094.941528C1356.366974 1079.567352,1365.006027 1058.716537,1365.006027 1036.972534Z" style="stroke:rgb(25.500488%,41.000366%,88.400269%); stroke-width: 2.500000;stroke-linecap: round;stroke-linejoin: round;stroke-miterlimit: 10.000000;fill: none;"></path>
  <path d="M1463.221191 937.265137C1463.221191 915.521133,1454.582138 894.670319,1439.207977 879.296143C1423.833801 863.921982,1402.982986 855.282928,1381.238983 855.282928C1359.494980 855.282928,1338.644165 863.921982,1323.269989 879.296143C1307.895828 894.670319,1299.256775 915.521133,1299.256775 937.265137C1299.256775 959.009140,1307.895828 979.859955,1323.269989 995.234131C1338.644165 1010.608292,1359.494980 1019.247345,1381.238983 1019.247345C1402.982986 1019.247345,1423.833801 1010.608292,1439.207977 995.234131C1454.582138 979.859955,1463.221191 959.009140,1463.221191 937.265137Z" style="stroke:rgb(25.500488%,41.000366%,88.400269%); stroke-width: 2.500000;stroke-linecap: round;stroke-linejoin: round;stroke-miterlimit: 10.000000;fill: none;"></path>
  <path d="M1561.540161 838.206543C1561.540161 816.462540,1552.901108 795.611725,1537.526947 780.237549C1522.152771 764.863388,1501.301956 756.224335,1479.557953 756.224335C1457.813950 756.224335,1436.963135 764.863388,1421.588959 780.237549C1406.214798 795.611725,1397.575745 816.462540,1397.575745 838.206543C1397.575745 859.950546,1406.214798 880.801361,1421.588959 896.175537C1436.963135 911.549698,1457.813950 920.188751,1479.557953 920.188751C1501.301956 920.188751,1522.152771 911.549698,1537.526947 896.175537C1552.901108 880.801361,1561.540161 859.950546,1561.540161 838.206543Z" style="stroke:rgb(25.500488%,41.000366%,88.400269%); stroke-width: 2.500000;stroke-linecap: round;stroke-linejoin: round;stroke-miterlimit: 10.000000;fill: none;"></path>
  <path d="M1659.988876 739.705902C1659.988876 717.961899,1651.349823 697.111084,1635.975662 681.736908C1620.601486 666.362747,1599.750671 657.723694,1578.006668 657.723694C1556.262665 657.723694,1535.411850 666.362747,1520.037674 681.736908C1504.663513 697.111084,1496.024460 717.961899,1496.024460 739.705902C1496.024460 761.449905,1504.663513 782.300720,1520.037674 797.674896C1535.411850 813.049057,1556.262665 821.688110,1578.006668 821.688110C1599.750671 821.688110,1620.601486 813.049057,1635.975662 797.674896C1651.349823 782.300720,1659.988876 761.449905,1659.988876 739.705902Z" style="stroke:rgb(25.500488%,41.000366%,88.400269%); stroke-width: 2.500000;stroke-linecap: round;stroke-linejoin: round;stroke-miterlimit: 10.000000;fill: none;"></path>
  <path d="M732.738663 1487.796844C732.738663 1466.052841,724.099609 1445.202026,708.725449 1429.827850C693.351273 1414.453690,672.500458 1405.814636,650.756454 1405.814636C629.012451 1405.814636,608.161636 1414.453690,592.787460 1429.827850C577.413300 1445.202026,568.774246 1466.052841,568.774246 1487.796844C568.774246 1509.540848,577.413300 1530.391663,592.787460 1545.765839C608.161636 1561.139999,629.012451 1569.779053,650.756454 1569.779053C672.500458 1569.779053,693.351273 1561.139999,708.725449 1545.765839C724.099609 1530.391663,732.738663 1509.540848,732.738663 1487.796844Z" style="stroke:rgb(25.500488%,41.000366%,88.400269%); stroke-width: 2.500000;stroke-linecap: round;stroke-linejoin: round;stroke-miterlimit: 10.000000;fill: none;"></path>
  <path d="M833.094849 1388.621460C833.094849 1366.877457,824.455795 1346.026642,809.081635 1330.652466C793.707458 1315.278305,772.856644 1306.639252,751.112640 1306.639252C729.368637 1306.639252,708.517822 1315.278305,693.143646 1330.652466C677.769485 1346.026642,669.130432 1366.877457,669.130432 1388.621460C669.130432 1410.365463,677.769485 1431.216278,693.143646 1446.590454C708.517822 1461.964615,729.368637 1470.603668,751.112640 1470.603668C772.856644 1470.603668,793.707458 1461.964615,809.081635 1446.590454C824.455795 1431.216278,833.094849 1410.365463,833.094849 1388.621460Z" style="stroke:rgb(25.500488%,41.000366%,88.400269%); stroke-width: 2.500000;stroke-linecap: round;stroke-linejoin: round;stroke-miterlimit: 10.000000;fill: none;"></path>
  <path d="M933.970078 1289.264420C933.970078 1267.520416,925.331024 1246.669601,909.956863 1231.295425C894.582687 1215.921265,873.731873 1207.282211,851.987869 1207.282211C830.243866 1207.282211,809.393051 1215.921265,794.018875 1231.295425C778.644714 1246.669601,770.005661 1267.520416,770.005661 1289.264420C770.005661 1311.008423,778.644714 1331.859238,794.018875 1347.233414C809.393051 1362.607574,830.243866 1371.246628,851.987869 1371.246628C873.731873 1371.246628,894.582687 1362.607574,909.956863 1347.233414C925.331024 1331.859238,933.970078 1311.008423,933.970078 1289.264420Z" style="stroke:rgb(25.500488%,41.000366%,88.400269%); stroke-width: 2.500000;stroke-linecap: round;stroke-linejoin: round;stroke-miterlimit: 10.000000;fill: none;"></path>
  <path d="M1034.391159 1191.594254C1034.391159 1169.850250,1025.752106 1148.999435,1010.377945 1133.625259C995.003769 1118.251099,974.152954 1109.612045,952.408951 1109.612045C930.664948 1109.612045,909.814133 1118.251099,894.439957 1133.625259C879.065796 1148.999435,870.426743 1169.850250,870.426743 1191.594254C870.426743 1213.338257,879.065796 1234.189072,894.439957 1249.563248C909.814133 1264.937408,930.664948 1273.576462,952.408951 1273.576462C974.152954 1273.576462,995.003769 1264.937408,1010.377945 1249.563248C1025.752106 1234.189072,1034.391159 1213.338257,1034.391159 1191.594254Z" style="stroke:rgb(25.500488%,41.000366%,88.400269%); stroke-width: 2.500000;stroke-linecap: round;stroke-linejoin: round;stroke-miterlimit: 10.000000;fill: none;"></path>
  <path d="M1134.215332 1093.794327C1134.215332 1072.050323,1125.576279 1051.199509,1110.202118 1035.825333C1094.827942 1020.451172,1073.977127 1011.812119,1052.233124 1011.812119C1030.489120 1011.812119,1009.638306 1020.451172,994.264130 1035.825333C978.889969 1051.199509,970.250916 1072.050323,970.250916 1093.794327C970.250916 1115.538330,978.889969 1136.389145,994.264130 1151.763321C1009.638306 1167.137482,1030.489120 1175.776535,1052.233124 1175.776535C1073.977127 1175.776535,1094.827942 1167.137482,1110.202118 1151.763321C1125.576279 1136.389145,1134.215332 1115.538330,1134.215332 1093.794327Z" style="stroke:rgb(25.500488%,41.000366%,88.400269%); stroke-width: 2.500000;stroke-linecap: round;stroke-linejoin: round;stroke-miterlimit: 10.000000;fill: none;"></path>
  <path d="M1232.897629 993.892288C1232.897629 972.148285,1224.258575 951.297470,1208.884415 935.923294C1193.510239 920.549133,1172.659424 911.910080,1150.915421 911.910080C1129.171417 911.910080,1108.320602 920.549133,1092.946426 935.923294C1077.572266 951.297470,1068.933212 972.148285,1068.933212 993.892288C1068.933212 1015.636292,1077.572266 1036.487106,1092.946426 1051.861282C1108.320602 1067.235443,1129.171417 1075.874496,1150.915421 1075.874496C1172.659424 1075.874496,1193.510239 1067.235443,1208.884415 1051.861282C1224.258575 1036.487106,1232.897629 1015.636292,1232.897629 993.892288Z" style="stroke:rgb(25.500488%,41.000366%,88.400269%); stroke-width: 2.500000;stroke-linecap: round;stroke-linejoin: round;stroke-miterlimit: 10.000000;fill: none;"></path>
  <path d="M1331.125763 894.210846C1331.125763 872.466843,1322.486710 851.616028,1307.112549 836.241852C1291.738373 820.867691,1270.887558 812.228638,1249.143555 812.228638C1227.399551 812.228638,1206.548737 820.867691,1191.174561 836.241852C1175.800400 851.616028,1167.161346 872.466843,1167.161346 894.210846C1167.161346 915.954849,1175.800400 936.805664,1191.174561 952.179840C1206.548737 967.554001,1227.399551 976.193054,1249.143555 976.193054C1270.887558 976.193054,1291.738373 967.554001,1307.112549 952.179840C1322.486710 936.805664,1331.125763 915.954849,1331.125763 894.210846Z" style="stroke:rgb(25.500488%,41.000366%,88.400269%); stroke-width: 2.500000;stroke-linecap: round;stroke-linejoin: round;stroke-miterlimit: 10.000000;fill: none;"></path>
  <path d="M1429.885910 794.607254C1429.885910 772.863251,1421.246857 752.012436,1405.872696 736.638260C1390.498520 721.264099,1369.647705 712.625046,1347.903702 712.625046C1326.159698 712.625046,1305.308884 721.264099,1289.934708 736.638260C1274.560547 752.012436,1265.921494 772.863251,1265.921494 794.607254C1265.921494 816.351257,1274.560547 837.202072,1289.934708 852.576248C1305.308884 867.950409,1326.159698 876.589462,1347.903702 876.589462C1369.647705 876.589462,1390.498520 867.950409,1405.872696 852.576248C1421.246857 837.202072,1429.885910 816.351257,1429.885910 794.607254Z" style="stroke:rgb(25.500488%,41.000366%,88.400269%); stroke-width: 2.500000;stroke-linecap: round;stroke-linejoin: round;stroke-miterlimit: 10.000000;fill: none;"></path>
  <path d="M1529.359741 695.328079C1529.359741 673.584076,1520.720688 652.733261,1505.346527 637.359085C1489.972351 621.984924,1469.121536 613.345871,1447.377533 613.345871C1425.633530 613.345871,1404.782715 621.984924,1389.408539 637.359085C1374.034378 652.733261,1365.395325 673.584076,1365.395325 695.328079C1365.395325 717.072083,1374.034378 737.922897,1389.408539 753.297073C1404.782715 768.671234,1425.633530 777.310287,1447.377533 777.310287C1469.121536 777.310287,1489.972351 768.671234,1505.346527 753.297073C1520.720688 737.922897,1529.359741 717.072083,1529.359741 695.328079Z" style="stroke:rgb(25.500488%,41.000366%,88.400269%); stroke-width: 2.500000;stroke-linecap: round;stroke-linejoin: round;stroke-miterlimit: 10.000000;fill: none;"></path>
  <path d="M689.736267 1357.024963C689.736267 1335.280960,681.097214 1314.430145,665.723053 1299.055969C650.348877 1283.681808,629.498062 1275.042755,607.754059 1275.042755C586.010056 1275.042755,565.159241 1283.681808,549.785065 1299.055969C534.410904 1314.430145,525.771851 1335.280960,525.771851 1357.024963C525.771851 1378.768967,534.410904 1399.619781,549.785065 1414.993958C565.159241 1430.368118,586.010056 1439.007172,607.754059 1439.007172C629.498062 1439.007172,650.348877 1430.368118,665.723053 1414.993958C681.097214 1399.619781,689.736267 1378.768967,689.736267 1357.024963Z" style="stroke:rgb(25.500488%,41.000366%,88.400269%); stroke-width: 2.500000;stroke-linecap: round;stroke-linejoin: round;stroke-miterlimit: 10.000000;fill: none;"></path>
  <path d="M790.689362 1258.005295C790.689362 1236.261292,782.050308 1215.410477,766.676147 1200.036301C751.301971 1184.662140,730.451157 1176.023087,708.707153 1176.023087C686.963150 1176.023087,666.112335 1184.662140,650.738159 1200.036301C635.363998 1215.410477,626.724945 1236.261292,626.724945 1258.005295C626.724945 1279.749298,635.363998 1300.600113,650.738159 1315.974289C666.112335 1331.348450,686.963150 1339.987503,708.707153 1339.987503C730.451157 1339.987503,751.301971 1331.348450,766.676147 1315.974289C782.050308 1300.600113,790.689362 1279.749298,790.689362 1258.005295Z" style="stroke:rgb(25.500488%,41.000366%,88.400269%); stroke-width: 2.500000;stroke-linecap: round;stroke-linejoin: round;stroke-miterlimit: 10.000000;fill: none;"></path>
  <path d="M890.656281 1158.401703C890.656281 1136.657700,882.017227 1115.806885,866.643066 1100.432709C851.268890 1085.058548,830.418076 1076.419495,808.674072 1076.419495C786.930069 1076.419495,766.079254 1085.058548,750.705078 1100.432709C735.330917 1115.806885,726.691864 1136.657700,726.691864 1158.401703C726.691864 1180.145706,735.330917 1200.996521,750.705078 1216.370697C766.079254 1231.744858,786.930069 1240.383911,808.674072 1240.383911C830.418076 1240.383911,851.268890 1231.744858,866.643066 1216.370697C882.017227 1200.996521,890.656281 1180.145706,890.656281 1158.401703Z" style="stroke:rgb(25.500488%,41.000366%,88.400269%); stroke-width: 2.500000;stroke-linecap: round;stroke-linejoin: round;stroke-miterlimit: 10.000000;fill: none;"></path>
  <path d="M990.480453 1060.575836C990.480453 1038.831833,981.841400 1017.981018,966.467239 1002.606842C951.093063 987.232681,930.242249 978.593628,908.498245 978.593628C886.754242 978.593628,865.903427 987.232681,850.529251 1002.606842C835.155090 1017.981018,826.516037 1038.831833,826.516037 1060.575836C826.516037 1082.319839,835.155090 1103.170654,850.529251 1118.544830C865.903427 1133.918991,886.754242 1142.558044,908.498245 1142.558044C930.242249 1142.558044,951.093063 1133.918991,966.467239 1118.544830C981.841400 1103.170654,990.480453 1082.319839,990.480453 1060.575836Z" style="stroke:rgb(25.500488%,41.000366%,88.400269%); stroke-width: 2.500000;stroke-linecap: round;stroke-linejoin: round;stroke-miterlimit: 10.000000;fill: none;"></path>
  <path d="M1089.642853 962.594238C1089.642853 940.850235,1081.003799 919.999420,1065.629639 904.625244C1050.255463 889.251083,1029.404648 880.612030,1007.660645 880.612030C985.916641 880.612030,965.065826 889.251083,949.691650 904.625244C934.317490 919.999420,925.678436 940.850235,925.678436 962.594238C925.678436 984.338242,934.317490 1005.189056,949.691650 1020.563232C965.065826 1035.937393,985.916641 1044.576447,1007.660645 1044.576447C1029.404648 1044.576447,1050.255463 1035.937393,1065.629639 1020.563232C1081.003799 1005.189056,1089.642853 984.338242,1089.642853 962.594238Z" style="stroke:rgb(25.500488%,41.000366%,88.400269%); stroke-width: 2.500000;stroke-linecap: round;stroke-linejoin: round;stroke-miterlimit: 10.000000;fill: none;"></path>
  <path d="M1187.780167 862.562439C1187.780167 840.818436,1179.141113 819.967621,1163.766953 804.593445C1148.392776 789.219284,1127.541962 780.580231,1105.797958 780.580231C1084.053955 780.580231,1063.203140 789.219284,1047.828964 804.593445C1032.454803 819.967621,1023.815750 840.818436,1023.815750 862.562439C1023.815750 884.306442,1032.454803 905.157257,1047.828964 920.531433C1063.203140 935.905594,1084.053955 944.544647,1105.797958 944.544647C1127.541962 944.544647,1148.392776 935.905594,1163.766953 920.531433C1179.141113 905.157257,1187.780167 884.306442,1187.780167 862.562439Z" style="stroke:rgb(25.500488%,41.000366%,88.400269%); stroke-width: 2.500000;stroke-linecap: round;stroke-linejoin: round;stroke-miterlimit: 10.000000;fill: none;"></path>
  <path d="M1286.553284 762.997787C1286.553284 741.253784,1277.914230 720.402969,1262.540070 705.028793C1247.165894 689.654633,1226.315079 681.015579,1204.571075 681.015579C1182.827072 681.015579,1161.976257 689.654633,1146.602081 705.028793C1131.227921 720.402969,1122.588867 741.253784,1122.588867 762.997787C1122.588867 784.741791,1131.227921 805.592606,1146.602081 820.966782C1161.976257 836.340942,1182.827072 844.979996,1204.571075 844.979996C1226.315079 844.979996,1247.165894 836.340942,1262.540070 820.966782C1277.914230 805.592606,1286.553284 784.741791,1286.553284 762.997787Z" style="stroke:rgb(25.500488%,41.000366%,88.400269%); stroke-width: 2.500000;stroke-linecap: round;stroke-linejoin: round;stroke-miterlimit: 10.000000;fill: none;"></path>
  <path d="M1385.975204 663.562881C1385.975204 641.818878,1377.336151 620.968063,1361.961990 605.593887C1346.587814 590.219727,1325.737000 581.580673,1303.992996 581.580673C1282.248993 581.580673,1261.398178 590.219727,1246.024002 605.593887C1230.649841 620.968063,1222.010788 641.818878,1222.010788 663.562881C1222.010788 685.306885,1230.649841 706.157700,1246.024002 721.531876C1261.398178 736.906036,1282.248993 745.545090,1303.992996 745.545090C1325.737000 745.545090,1346.587814 736.906036,1361.961990 721.531876C1377.336151 706.157700,1385.975204 685.306885,1385.975204 663.562881Z" style="stroke:rgb(25.500488%,41.000366%,88.400269%); stroke-width: 2.500000;stroke-linecap: round;stroke-linejoin: round;stroke-miterlimit: 10.000000;fill: none;"></path>
  <path d="M1485.319275 564.270721C1485.319275 542.526718,1476.680222 521.675903,1461.306061 506.301727C1445.931885 490.927567,1425.081070 482.288513,1403.337067 482.288513C1381.593063 482.288513,1360.742249 490.927567,1345.368073 506.301727C1329.993912 521.675903,1321.354858 542.526718,1321.354858 564.270721C1321.354858 586.014725,1329.993912 606.865540,1345.368073 622.239716C1360.742249 637.613876,1381.593063 646.252930,1403.337067 646.252930C1425.081070 646.252930,1445.931885 637.613876,1461.306061 622.239716C1476.680222 606.865540,1485.319275 586.014725,1485.319275 564.270721Z" style="stroke:rgb(25.500488%,41.000366%,88.400269%); stroke-width: 2.500000;stroke-linecap: round;stroke-linejoin: round;stroke-miterlimit: 10.000000;fill: none;"></path>
  <path d="M559.159027 1313.853897C559.159027 1292.109894,550.519974 1271.259079,535.145813 1255.884903C519.771637 1240.510742,498.920822 1231.871689,477.176819 1231.871689C455.432816 1231.871689,434.582001 1240.510742,419.207825 1255.884903C403.833664 1271.259079,395.194611 1292.109894,395.194611 1313.853897C395.194611 1335.597900,403.833664 1356.448715,419.207825 1371.822891C434.582001 1387.197052,455.432816 1395.836105,477.176819 1395.836105C498.920822 1395.836105,519.771637 1387.197052,535.145813 1371.822891C550.519974 1356.448715,559.159027 1335.597900,559.159027 1313.853897Z" style="stroke:rgb(25.500488%,41.000366%,88.400269%); stroke-width: 2.500000;stroke-linecap: round;stroke-linejoin: round;stroke-miterlimit: 10.000000;fill: none;"></path>
  <path d="M659.074036 1214.548752C659.074036 1192.804749,650.434982 1171.953934,635.060822 1156.579758C619.686646 1141.205597,598.835831 1132.566544,577.091827 1132.566544C555.347824 1132.566544,534.497009 1141.205597,519.122833 1156.579758C503.748672 1171.953934,495.109619 1192.804749,495.109619 1214.548752C495.109619 1236.292755,503.748672 1257.143570,519.122833 1272.517746C534.497009 1287.891907,555.347824 1296.530960,577.091827 1296.530960C598.835831 1296.530960,619.686646 1287.891907,635.060822 1272.517746C650.434982 1257.143570,659.074036 1236.292755,659.074036 1214.548752Z" style="stroke:rgb(25.500488%,41.000366%,88.400269%); stroke-width: 2.500000;stroke-linecap: round;stroke-linejoin: round;stroke-miterlimit: 10.000000;fill: none;"></path>
  <path d="M759.105835 1115.295517C759.105835 1093.551514,750.466782 1072.700699,735.092621 1057.326523C719.718445 1041.952362,698.867630 1033.313309,677.123627 1033.313309C655.379623 1033.313309,634.528809 1041.952362,619.154633 1057.326523C603.780472 1072.700699,595.141418 1093.551514,595.141418 1115.295517C595.141418 1137.039520,603.780472 1157.890335,619.154633 1173.264511C634.528809 1188.638672,655.379623 1197.277725,677.123627 1197.277725C698.867630 1197.277725,719.718445 1188.638672,735.092621 1173.264511C750.466782 1157.890335,759.105835 1137.039520,759.105835 1115.295517Z" style="stroke:rgb(25.500488%,41.000366%,88.400269%); stroke-width: 2.500000;stroke-linecap: round;stroke-linejoin: round;stroke-miterlimit: 10.000000;fill: none;"></path>
  <path d="M858.462875 1015.536224C858.462875 993.792221,849.823822 972.941406,834.449661 957.567230C819.075485 942.193069,798.224670 933.554016,776.480667 933.554016C754.736664 933.554016,733.885849 942.193069,718.511673 957.567230C703.137512 972.941406,694.498459 993.792221,694.498459 1015.536224C694.498459 1037.280228,703.137512 1058.131042,718.511673 1073.505219C733.885849 1088.879379,754.736664 1097.518433,776.480667 1097.518433C798.224670 1097.518433,819.075485 1088.879379,834.449661 1073.505219C849.823822 1058.131042,858.462875 1037.280228,858.462875 1015.536224Z" style="stroke:rgb(25.500488%,41.000366%,88.400269%); stroke-width: 2.500000;stroke-linecap: round;stroke-linejoin: round;stroke-miterlimit: 10.000000;fill: none;"></path>
  <path d="M957.625290 917.554626C957.625290 895.810623,948.986237 874.959808,933.612076 859.585632C918.237900 844.211472,897.387085 835.572418,875.643082 835.572418C853.899078 835.572418,833.048264 844.211472,817.674088 859.585632C802.299927 874.959808,793.660873 895.810623,793.660873 917.554626C793.660873 939.298630,802.299927 960.149445,817.674088 975.523621C833.048264 990.897781,853.899078 999.536835,875.643082 999.536835C897.387085 999.536835,918.237900 990.897781,933.612076 975.523621C948.986237 960.149445,957.625290 939.298630,957.625290 917.554626Z" style="stroke:rgb(25.500488%,41.000366%,88.400269%); stroke-width: 2.500000;stroke-linecap: round;stroke-linejoin: round;stroke-miterlimit: 10.000000;fill: none;"></path>
  <path d="M1056.242691 819.443283C1056.242691 797.699280,1047.603638 776.848465,1032.229477 761.474289C1016.855301 746.100128,996.004486 737.461075,974.260483 737.461075C952.516479 737.461075,931.665665 746.100128,916.291489 761.474289C900.917328 776.848465,892.278275 797.699280,892.278275 819.443283C892.278275 841.187286,900.917328 862.038101,916.291489 877.412277C931.665665 892.786438,952.516479 901.425491,974.260483 901.425491C996.004486 901.425491,1016.855301 892.786438,1032.229477 877.412277C1047.603638 862.038101,1056.242691 841.187286,1056.242691 819.443283Z" style="stroke:rgb(25.500488%,41.000366%,88.400269%); stroke-width: 2.500000;stroke-linecap: round;stroke-linejoin: round;stroke-miterlimit: 10.000000;fill: none;"></path>
  <path d="M1154.937973 719.528275C1154.937973 697.784271,1146.298920 676.933456,1130.924759 661.559280C1115.550583 646.185120,1094.699768 637.546066,1072.955765 637.546066C1051.211761 637.546066,1030.360947 646.185120,1014.986771 661.559280C999.612610 676.933456,990.973557 697.784271,990.973557 719.528275C990.973557 741.272278,999.612610 762.123093,1014.986771 777.497269C1030.360947 792.871429,1051.211761 801.510483,1072.955765 801.510483C1094.699768 801.510483,1115.550583 792.871429,1130.924759 777.497269C1146.298920 762.123093,1154.937973 741.272278,1154.937973 719.528275Z" style="stroke:rgb(25.500488%,41.000366%,88.400269%); stroke-width: 2.500000;stroke-linecap: round;stroke-linejoin: round;stroke-miterlimit: 10.000000;fill: none;"></path>
  <path d="M1254.372864 620.119324C1254.372864 598.375320,1245.733810 577.524506,1230.359650 562.150330C1214.985474 546.776169,1194.134659 538.137115,1172.390656 538.137115C1150.646652 538.137115,1129.795837 546.776169,1114.421661 562.150330C1099.047501 577.524506,1090.408447 598.375320,1090.408447 620.119324C1090.408447 641.863327,1099.047501 662.714142,1114.421661 678.088318C1129.795837 693.462479,1150.646652 702.101532,1172.390656 702.101532C1194.134659 702.101532,1214.985474 693.462479,1230.359650 678.088318C1245.733810 662.714142,1254.372864 641.863327,1254.372864 620.119324Z" style="stroke:rgb(25.500488%,41.000366%,88.400269%); stroke-width: 2.500000;stroke-linecap: round;stroke-linejoin: round;stroke-miterlimit: 10.000000;fill: none;"></path>
  <path d="M1354.417633 520.840134C1354.417633 499.096130,1345.778580 478.245316,1330.404419 462.871140C1315.030243 447.496979,1294.179428 438.857925,1272.435425 438.857925C1250.691422 438.857925,1229.840607 447.496979,1214.466431 462.871140C1199.092270 478.245316,1190.453217 499.096130,1190.453217 520.840134C1190.453217 542.584137,1199.092270 563.434952,1214.466431 578.809128C1229.840607 594.183289,1250.691422 602.822342,1272.435425 602.822342C1294.179428 602.822342,1315.030243 594.183289,1330.404419 578.809128C1345.778580 563.434952,1354.417633 542.584137,1354.417633 520.840134Z" style="stroke:rgb(25.500488%,41.000366%,88.400269%); stroke-width: 2.500000;stroke-linecap: round;stroke-linejoin: round;stroke-miterlimit: 10.000000;fill: none;"></path>
  <path d="M515.546783 1183.159866C515.546783 1161.415863,506.907730 1140.565048,491.533569 1125.190872C476.159393 1109.816711,455.308578 1101.177658,433.564575 1101.177658C411.820572 1101.177658,390.969757 1109.816711,375.595581 1125.190872C360.221420 1140.565048,351.582367 1161.415863,351.582367 1183.159866C351.582367 1204.903870,360.221420 1225.754684,375.595581 1241.128860C390.969757 1256.503021,411.820572 1265.142075,433.564575 1265.142075C455.308578 1265.142075,476.159393 1256.503021,491.533569 1241.128860C506.907730 1225.754684,515.546783 1204.903870,515.546783 1183.159866Z" style="stroke:rgb(25.500488%,41.000366%,88.400269%); stroke-width: 2.500000;stroke-linecap: round;stroke-linejoin: round;stroke-miterlimit: 10.000000;fill: none;"></path>
  <path d="M615.591553 1083.880676C615.591553 1062.136673,606.952499 1041.285858,591.578339 1025.911682C576.204163 1010.537521,555.353348 1001.898468,533.609344 1001.898468C511.865341 1001.898468,491.014526 1010.537521,475.640350 1025.911682C460.266190 1041.285858,451.627136 1062.136673,451.627136 1083.880676C451.627136 1105.624680,460.266190 1126.475494,475.640350 1141.849670C491.014526 1157.223831,511.865341 1165.862885,533.609344 1165.862885C555.353348 1165.862885,576.204163 1157.223831,591.578339 1141.849670C606.952499 1126.475494,615.591553 1105.624680,615.591553 1083.880676Z" style="stroke:rgb(25.500488%,41.000366%,88.400269%); stroke-width: 2.500000;stroke-linecap: round;stroke-linejoin: round;stroke-miterlimit: 10.000000;fill: none;"></path>
  <path d="M715.026443 984.471725C715.026443 962.727722,706.387390 941.876907,691.013229 926.502731C675.639053 911.128571,654.788239 902.489517,633.044235 902.489517C611.300232 902.489517,590.449417 911.128571,575.075241 926.502731C559.701080 941.876907,551.062027 962.727722,551.062027 984.471725C551.062027 1006.215729,559.701080 1027.066544,575.075241 1042.440720C590.449417 1057.814880,611.300232 1066.453934,633.044235 1066.453934C654.788239 1066.453934,675.639053 1057.814880,691.013229 1042.440720C706.387390 1027.066544,715.026443 1006.215729,715.026443 984.471725Z" style="stroke:rgb(25.500488%,41.000366%,88.400269%); stroke-width: 2.500000;stroke-linecap: round;stroke-linejoin: round;stroke-miterlimit: 10.000000;fill: none;"></path>
  <path d="M813.721725 884.556717C813.721725 862.812714,805.082672 841.961899,789.708511 826.587723C774.334335 811.213562,753.483521 802.574509,731.739517 802.574509C709.995514 802.574509,689.144699 811.213562,673.770523 826.587723C658.396362 841.961899,649.757309 862.812714,649.757309 884.556717C649.757309 906.300720,658.396362 927.151535,673.770523 942.525711C689.144699 957.899872,709.995514 966.538925,731.739517 966.538925C753.483521 966.538925,774.334335 957.899872,789.708511 942.525711C805.082672 927.151535,813.721725 906.300720,813.721725 884.556717Z" style="stroke:rgb(25.500488%,41.000366%,88.400269%); stroke-width: 2.500000;stroke-linecap: round;stroke-linejoin: round;stroke-miterlimit: 10.000000;fill: none;"></path>
  <path d="M912.339127 786.445374C912.339127 764.701370,903.700073 743.850555,888.325912 728.476379C872.951736 713.102219,852.100922 704.463165,830.356918 704.463165C808.612915 704.463165,787.762100 713.102219,772.387924 728.476379C757.013763 743.850555,748.374710 764.701370,748.374710 786.445374C748.374710 808.189377,757.013763 829.040192,772.387924 844.414368C787.762100 859.788528,808.612915 868.427582,830.356918 868.427582C852.100922 868.427582,872.951736 859.788528,888.325912 844.414368C903.700073 829.040192,912.339127 808.189377,912.339127 786.445374Z" style="stroke:rgb(25.500488%,41.000366%,88.400269%); stroke-width: 2.500000;stroke-linecap: round;stroke-linejoin: round;stroke-miterlimit: 10.000000;fill: none;"></path>
  <path d="M1011.501541 688.463776C1011.501541 666.719772,1002.862488 645.868958,987.488327 630.494781C972.114151 615.120621,951.263336 606.481567,929.519333 606.481567C907.775330 606.481567,886.924515 615.120621,871.550339 630.494781C856.176178 645.868958,847.537125 666.719772,847.537125 688.463776C847.537125 710.207779,856.176178 731.058594,871.550339 746.432770C886.924515 761.806931,907.775330 770.445984,929.519333 770.445984C951.263336 770.445984,972.114151 761.806931,987.488327 746.432770C1002.862488 731.058594,1011.501541 710.207779,1011.501541 688.463776Z" style="stroke:rgb(25.500488%,41.000366%,88.400269%); stroke-width: 2.500000;stroke-linecap: round;stroke-linejoin: round;stroke-miterlimit: 10.000000;fill: none;"></path>
  <path d="M1110.858582 588.704483C1110.858582 566.960480,1102.219528 546.109665,1086.845367 530.735489C1071.471191 515.361328,1050.620377 506.722275,1028.876373 506.722275C1007.132370 506.722275,986.281555 515.361328,970.907379 530.735489C955.533218 546.109665,946.894165 566.960480,946.894165 588.704483C946.894165 610.448486,955.533218 631.299301,970.907379 646.673477C986.281555 662.047638,1007.132370 670.686691,1028.876373 670.686691C1050.620377 670.686691,1071.471191 662.047638,1086.845367 646.673477C1102.219528 631.299301,1110.858582 610.448486,1110.858582 588.704483Z" style="stroke:rgb(25.500488%,41.000366%,88.400269%); stroke-width: 2.500000;stroke-linecap: round;stroke-linejoin: round;stroke-miterlimit: 10.000000;fill: none;"></path>
  <path d="M1210.890381 489.451248C1210.890381 467.707245,1202.251328 446.856430,1186.877167 431.482254C1171.502991 416.108093,1150.652176 407.469040,1128.908173 407.469040C1107.164169 407.469040,1086.313354 416.108093,1070.939178 431.482254C1055.565018 446.856430,1046.925964 467.707245,1046.925964 489.451248C1046.925964 511.195251,1055.565018 532.046066,1070.939178 547.420242C1086.313354 562.794403,1107.164169 571.433456,1128.908173 571.433456C1150.652176 571.433456,1171.502991 562.794403,1186.877167 547.420242C1202.251328 532.046066,1210.890381 511.195251,1210.890381 489.451248Z" style="stroke:rgb(25.500488%,41.000366%,88.400269%); stroke-width: 2.500000;stroke-linecap: round;stroke-linejoin: round;stroke-miterlimit: 10.000000;fill: none;"></path>
  <path d="M1310.805389 390.146103C1310.805389 368.402100,1302.166336 347.551285,1286.792175 332.177109C1271.417999 316.802948,1250.567184 308.163895,1228.823181 308.163895C1207.079178 308.163895,1186.228363 316.802948,1170.854187 332.177109C1155.480026 347.551285,1146.840973 368.402100,1146.840973 390.146103C1146.840973 411.890106,1155.480026 432.740921,1170.854187 448.115097C1186.228363 463.489258,1207.079178 472.128311,1228.823181 472.128311C1250.567184 472.128311,1271.417999 463.489258,1286.792175 448.115097C1302.166336 432.740921,1310.805389 411.890106,1310.805389 390.146103Z" style="stroke:rgb(25.500488%,41.000366%,88.400269%); stroke-width: 2.500000;stroke-linecap: round;stroke-linejoin: round;stroke-miterlimit: 10.000000;fill: none;"></path>
  <path d="M384.645142 1139.729279C384.645142 1117.985275,376.006088 1097.134460,360.631927 1081.760284C345.257751 1066.386124,324.406937 1057.747070,302.662933 1057.747070C280.918930 1057.747070,260.068115 1066.386124,244.693939 1081.760284C229.319778 1097.134460,220.680725 1117.985275,220.680725 1139.729279C220.680725 1161.473282,229.319778 1182.324097,244.693939 1197.698273C260.068115 1213.072433,280.918930 1221.711487,302.662933 1221.711487C324.406937 1221.711487,345.257751 1213.072433,360.631927 1197.698273C376.006088 1182.324097,384.645142 1161.473282,384.645142 1139.729279Z" style="stroke:rgb(25.500488%,41.000366%,88.400269%); stroke-width: 2.500000;stroke-linecap: round;stroke-linejoin: round;stroke-miterlimit: 10.000000;fill: none;"></path>
  <path d="M483.989212 1040.437119C483.989212 1018.693115,475.350159 997.842300,459.975998 982.468124C444.601822 967.093964,423.751007 958.454910,402.007004 958.454910C380.263000 958.454910,359.412186 967.093964,344.038010 982.468124C328.663849 997.842300,320.024796 1018.693115,320.024796 1040.437119C320.024796 1062.181122,328.663849 1083.031937,344.038010 1098.406113C359.412186 1113.780273,380.263000 1122.419327,402.007004 1122.419327C423.751007 1122.419327,444.601822 1113.780273,459.975998 1098.406113C475.350159 1083.031937,483.989212 1062.181122,483.989212 1040.437119Z" style="stroke:rgb(25.500488%,41.000366%,88.400269%); stroke-width: 2.500000;stroke-linecap: round;stroke-linejoin: round;stroke-miterlimit: 10.000000;fill: none;"></path>
  <path d="M583.411133 941.002213C583.411133 919.258209,574.772079 898.407394,559.397919 883.033218C544.023743 867.659058,523.172928 859.020004,501.428925 859.020004C479.684921 859.020004,458.834106 867.659058,443.459930 883.033218C428.085770 898.407394,419.446716 919.258209,419.446716 941.002213C419.446716 962.746216,428.085770 983.597031,443.459930 998.971207C458.834106 1014.345367,479.684921 1022.984421,501.428925 1022.984421C523.172928 1022.984421,544.023743 1014.345367,559.397919 998.971207C574.772079 983.597031,583.411133 962.746216,583.411133 941.002213Z" style="stroke:rgb(25.500488%,41.000366%,88.400269%); stroke-width: 2.500000;stroke-linecap: round;stroke-linejoin: round;stroke-miterlimit: 10.000000;fill: none;"></path>
  <path d="M682.184250 841.437561C682.184250 819.693558,673.545197 798.842743,658.171036 783.468567C642.796860 768.094406,621.946045 759.455353,600.202042 759.455353C578.458038 759.455353,557.607224 768.094406,542.233047 783.468567C526.858887 798.842743,518.219833 819.693558,518.219833 841.437561C518.219833 863.181564,526.858887 884.032379,542.233047 899.406555C557.607224 914.780716,578.458038 923.419769,600.202042 923.419769C621.946045 923.419769,642.796860 914.780716,658.171036 899.406555C673.545197 884.032379,682.184250 863.181564,682.184250 841.437561Z" style="stroke:rgb(25.500488%,41.000366%,88.400269%); stroke-width: 2.500000;stroke-linecap: round;stroke-linejoin: round;stroke-miterlimit: 10.000000;fill: none;"></path>
  <path d="M780.321564 741.405762C780.321564 719.661758,771.682510 698.810944,756.308350 683.436768C740.934174 668.062607,720.083359 659.423553,698.339355 659.423553C676.595352 659.423553,655.744537 668.062607,640.370361 683.436768C624.996201 698.810944,616.357147 719.661758,616.357147 741.405762C616.357147 763.149765,624.996201 784.000580,640.370361 799.374756C655.744537 814.748917,676.595352 823.387970,698.339355 823.387970C720.083359 823.387970,740.934174 814.748917,756.308350 799.374756C771.682510 784.000580,780.321564 763.149765,780.321564 741.405762Z" style="stroke:rgb(25.500488%,41.000366%,88.400269%); stroke-width: 2.500000;stroke-linecap: round;stroke-linejoin: round;stroke-miterlimit: 10.000000;fill: none;"></path>
  <path d="M879.483963 643.424164C879.483963 621.680161,870.844910 600.829346,855.470749 585.455170C840.096573 570.081009,819.245758 561.441956,797.501755 561.441956C775.757751 561.441956,754.906937 570.081009,739.532761 585.455170C724.158600 600.829346,715.519547 621.680161,715.519547 643.424164C715.519547 665.168167,724.158600 686.018982,739.532761 701.393158C754.906937 716.767319,775.757751 725.406372,797.501755 725.406372C819.245758 725.406372,840.096573 716.767319,855.470749 701.393158C870.844910 686.018982,879.483963 665.168167,879.483963 643.424164Z" style="stroke:rgb(25.500488%,41.000366%,88.400269%); stroke-width: 2.500000;stroke-linecap: round;stroke-linejoin: round;stroke-miterlimit: 10.000000;fill: none;"></path>
  <path d="M979.308136 545.598297C979.308136 523.854294,970.669083 503.003479,955.294922 487.629303C939.920746 472.255142,919.069931 463.616089,897.325928 463.616089C875.581924 463.616089,854.731110 472.255142,839.356934 487.629303C823.982773 503.003479,815.343719 523.854294,815.343719 545.598297C815.343719 567.342300,823.982773 588.193115,839.356934 603.567291C854.731110 618.941452,875.581924 627.580505,897.325928 627.580505C919.069931 627.580505,939.920746 618.941452,955.294922 603.567291C970.669083 588.193115,979.308136 567.342300,979.308136 545.598297Z" style="stroke:rgb(25.500488%,41.000366%,88.400269%); stroke-width: 2.500000;stroke-linecap: round;stroke-linejoin: round;stroke-miterlimit: 10.000000;fill: none;"></path>
  <path d="M1079.275055 445.994705C1079.275055 424.250702,1070.636002 403.399887,1055.261841 388.025711C1039.887665 372.651550,1019.036850 364.012497,997.292847 364.012497C975.548843 364.012497,954.698029 372.651550,939.323853 388.025711C923.949692 403.399887,915.310638 424.250702,915.310638 445.994705C915.310638 467.738708,923.949692 488.589523,939.323853 503.963699C954.698029 519.337860,975.548843 527.976913,997.292847 527.976913C1019.036850 527.976913,1039.887665 519.337860,1055.261841 503.963699C1070.636002 488.589523,1079.275055 467.738708,1079.275055 445.994705Z" style="stroke:rgb(25.500488%,41.000366%,88.400269%); stroke-width: 2.500000;stroke-linecap: round;stroke-linejoin: round;stroke-miterlimit: 10.000000;fill: none;"></path>
  <path d="M1180.228149 346.975037C1180.228149 325.231033,1171.589096 304.380219,1156.214935 289.006042C1140.840759 273.631882,1119.989944 264.992828,1098.245941 264.992828C1076.501938 264.992828,1055.651123 273.631882,1040.276947 289.006042C1024.902786 304.380219,1016.263733 325.231033,1016.263733 346.975037C1016.263733 368.719040,1024.902786 389.569855,1040.276947 404.944031C1055.651123 420.318192,1076.501938 428.957245,1098.245941 428.957245C1119.989944 428.957245,1140.840759 420.318192,1156.214935 404.944031C1171.589096 389.569855,1180.228149 368.719040,1180.228149 346.975037Z" style="stroke:rgb(25.500488%,41.000366%,88.400269%); stroke-width: 2.500000;stroke-linecap: round;stroke-linejoin: round;stroke-miterlimit: 10.000000;fill: none;"></path>
  <path d="M340.604675 1008.671921C340.604675 986.927917,331.965622 966.077103,316.591461 950.702927C301.217285 935.328766,280.366470 926.689713,258.622467 926.689713C236.878464 926.689713,216.027649 935.328766,200.653473 950.702927C185.279312 966.077103,176.640259 986.927917,176.640259 1008.671921C176.640259 1030.415924,185.279312 1051.266739,200.653473 1066.640915C216.027649 1082.015076,236.878464 1090.654129,258.622467 1090.654129C280.366470 1090.654129,301.217285 1082.015076,316.591461 1066.640915C331.965622 1051.266739,340.604675 1030.415924,340.604675 1008.671921Z" style="stroke:rgb(25.500488%,41.000366%,88.400269%); stroke-width: 2.500000;stroke-linecap: round;stroke-linejoin: round;stroke-miterlimit: 10.000000;fill: none;"></path>
  <path d="M440.078506 909.392746C440.078506 887.648743,431.439453 866.797928,416.065292 851.423752C400.691116 836.049591,379.840302 827.410538,358.096298 827.410538C336.352295 827.410538,315.501480 836.049591,300.127304 851.423752C284.753143 866.797928,276.114090 887.648743,276.114090 909.392746C276.114090 931.136749,284.753143 951.987564,300.127304 967.361740C315.501480 982.735901,336.352295 991.374954,358.096298 991.374954C379.840302 991.374954,400.691116 982.735901,416.065292 967.361740C431.439453 951.987564,440.078506 931.136749,440.078506 909.392746Z" style="stroke:rgb(25.500488%,41.000366%,88.400269%); stroke-width: 2.500000;stroke-linecap: round;stroke-linejoin: round;stroke-miterlimit: 10.000000;fill: none;"></path>
  <path d="M538.838654 809.789154C538.838654 788.045151,530.199600 767.194336,514.825439 751.820160C499.451263 736.445999,478.600449 727.806946,456.856445 727.806946C435.112442 727.806946,414.261627 736.445999,398.887451 751.820160C383.513290 767.194336,374.874237 788.045151,374.874237 809.789154C374.874237 831.533157,383.513290 852.383972,398.887451 867.758148C414.261627 883.132309,435.112442 891.771362,456.856445 891.771362C478.600449 891.771362,499.451263 883.132309,514.825439 867.758148C530.199600 852.383972,538.838654 831.533157,538.838654 809.789154Z" style="stroke:rgb(25.500488%,41.000366%,88.400269%); stroke-width: 2.500000;stroke-linecap: round;stroke-linejoin: round;stroke-miterlimit: 10.000000;fill: none;"></path>
  <path d="M637.066788 710.107712C637.066788 688.363708,628.427734 667.512894,613.053574 652.138718C597.679398 636.764557,576.828583 628.125504,555.084579 628.125504C533.340576 628.125504,512.489761 636.764557,497.115585 652.138718C481.741425 667.512894,473.102371 688.363708,473.102371 710.107712C473.102371 731.851715,481.741425 752.702530,497.115585 768.076706C512.489761 783.450867,533.340576 792.089920,555.084579 792.089920C576.828583 792.089920,597.679398 783.450867,613.053574 768.076706C628.427734 752.702530,637.066788 731.851715,637.066788 710.107712Z" style="stroke:rgb(25.500488%,41.000366%,88.400269%); stroke-width: 2.500000;stroke-linecap: round;stroke-linejoin: round;stroke-miterlimit: 10.000000;fill: none;"></path>
  <path d="M735.749084 610.205673C735.749084 588.461670,727.110031 567.610855,711.735870 552.236679C696.361694 536.862518,675.510880 528.223465,653.766876 528.223465C632.022873 528.223465,611.172058 536.862518,595.797882 552.236679C580.423721 567.610855,571.784668 588.461670,571.784668 610.205673C571.784668 631.949677,580.423721 652.800491,595.797882 668.174667C611.172058 683.548828,632.022873 692.187881,653.766876 692.187881C675.510880 692.187881,696.361694 683.548828,711.735870 668.174667C727.110031 652.800491,735.749084 631.949677,735.749084 610.205673Z" style="stroke:rgb(25.500488%,41.000366%,88.400269%); stroke-width: 2.500000;stroke-linecap: round;stroke-linejoin: round;stroke-miterlimit: 10.000000;fill: none;"></path>
  <path d="M835.573257 512.405746C835.573257 490.661743,826.934204 469.810928,811.560043 454.436752C796.185867 439.062592,775.335052 430.423538,753.591049 430.423538C731.847046 430.423538,710.996231 439.062592,695.622055 454.436752C680.247894 469.810928,671.608841 490.661743,671.608841 512.405746C671.608841 534.149750,680.247894 555.000565,695.622055 570.374741C710.996231 585.748901,731.847046 594.387955,753.591049 594.387955C775.335052 594.387955,796.185867 585.748901,811.560043 570.374741C826.934204 555.000565,835.573257 534.149750,835.573257 512.405746Z" style="stroke:rgb(25.500488%,41.000366%,88.400269%); stroke-width: 2.500000;stroke-linecap: round;stroke-linejoin: round;stroke-miterlimit: 10.000000;fill: none;"></path>
  <path d="M935.994339 414.735580C935.994339 392.991577,927.355286 372.140762,911.981125 356.766586C896.606949 341.392426,875.756134 332.753372,854.012131 332.753372C832.268127 332.753372,811.417313 341.392426,796.043137 356.766586C780.668976 372.140762,772.029922 392.991577,772.029922 414.735580C772.029922 436.479584,780.668976 457.330399,796.043137 472.704575C811.417313 488.078735,832.268127 496.717789,854.012131 496.717789C875.756134 496.717789,896.606949 488.078735,911.981125 472.704575C927.355286 457.330399,935.994339 436.479584,935.994339 414.735580Z" style="stroke:rgb(25.500488%,41.000366%,88.400269%); stroke-width: 2.500000;stroke-linecap: round;stroke-linejoin: round;stroke-miterlimit: 10.000000;fill: none;"></path>
  <path d="M1036.869568 315.378540C1036.869568 293.634537,1028.230515 272.783722,1012.856354 257.409546C997.482178 242.035385,976.631363 233.396332,954.887360 233.396332C933.143356 233.396332,912.292542 242.035385,896.918365 257.409546C881.544205 272.783722,872.905151 293.634537,872.905151 315.378540C872.905151 337.122543,881.544205 357.973358,896.918365 373.347534C912.292542 388.721695,933.143356 397.360748,954.887360 397.360748C976.631363 397.360748,997.482178 388.721695,1012.856354 373.347534C1028.230515 357.973358,1036.869568 337.122543,1036.869568 315.378540Z" style="stroke:rgb(25.500488%,41.000366%,88.400269%); stroke-width: 2.500000;stroke-linecap: round;stroke-linejoin: round;stroke-miterlimit: 10.000000;fill: none;"></path>
  <path d="M1137.225754 216.203156C1137.225754 194.459152,1128.586700 173.608337,1113.212540 158.234161C1097.838364 142.860001,1076.987549 134.220947,1055.243546 134.220947C1033.499542 134.220947,1012.648727 142.860001,997.274551 158.234161C981.900391 173.608337,973.261337 194.459152,973.261337 216.203156C973.261337 237.947159,981.900391 258.797974,997.274551 274.172150C1012.648727 289.546310,1033.499542 298.185364,1055.243546 298.185364C1076.987549 298.185364,1097.838364 289.546310,1113.212540 274.172150C1128.586700 258.797974,1137.225754 237.947159,1137.225754 216.203156Z" style="stroke:rgb(25.500488%,41.000366%,88.400269%); stroke-width: 2.500000;stroke-linecap: round;stroke-linejoin: round;stroke-miterlimit: 10.000000;fill: none;"></path>
  <path d="M209.975540 964.294098C209.975540 942.550095,201.336487 921.699280,185.962326 906.325104C170.588150 890.950943,149.737335 882.311890,127.993332 882.311890C106.249329 882.311890,85.398514 890.950943,70.024338 906.325104C54.650177 921.699280,46.011124 942.550095,46.011124 964.294098C46.011124 986.038101,54.650177 1006.888916,70.024338 1022.263092C85.398514 1037.637253,106.249329 1046.276306,127.993332 1046.276306C149.737335 1046.276306,170.588150 1037.637253,185.962326 1022.263092C201.336487 1006.888916,209.975540 986.038101,209.975540 964.294098Z" style="stroke:rgb(25.500488%,41.000366%,88.400269%); stroke-width: 2.500000;stroke-linecap: round;stroke-linejoin: round;stroke-miterlimit: 10.000000;fill: none;"></path>
  <path d="M308.424255 865.793457C308.424255 844.049454,299.785202 823.198639,284.411041 807.824463C269.036865 792.450302,248.186050 783.811249,226.442047 783.811249C204.698044 783.811249,183.847229 792.450302,168.473053 807.824463C153.098892 823.198639,144.459839 844.049454,144.459839 865.793457C144.459839 887.537460,153.098892 908.388275,168.473053 923.762451C183.847229 939.136612,204.698044 947.775665,226.442047 947.775665C248.186050 947.775665,269.036865 939.136612,284.411041 923.762451C299.785202 908.388275,308.424255 887.537460,308.424255 865.793457Z" style="stroke:rgb(25.500488%,41.000366%,88.400269%); stroke-width: 2.500000;stroke-linecap: round;stroke-linejoin: round;stroke-miterlimit: 10.000000;fill: none;"></path>
  <path d="M406.743225 766.734863C406.743225 744.990860,398.104172 724.140045,382.730011 708.765869C367.355835 693.391708,346.505020 684.752655,324.761017 684.752655C303.017014 684.752655,282.166199 693.391708,266.792023 708.765869C251.417862 724.140045,242.778809 744.990860,242.778809 766.734863C242.778809 788.478867,251.417862 809.329681,266.792023 824.703857C282.166199 840.078018,303.017014 848.717072,324.761017 848.717072C346.505020 848.717072,367.355835 840.078018,382.730011 824.703857C398.104172 809.329681,406.743225 788.478867,406.743225 766.734863Z" style="stroke:rgb(25.500488%,41.000366%,88.400269%); stroke-width: 2.500000;stroke-linecap: round;stroke-linejoin: round;stroke-miterlimit: 10.000000;fill: none;"></path>
  <path d="M504.958389 667.027466C504.958389 645.283463,496.319336 624.432648,480.945175 609.058472C465.570999 593.684311,444.720184 585.045258,422.976181 585.045258C401.232178 585.045258,380.381363 593.684311,365.007187 609.058472C349.633026 624.432648,340.993973 645.283463,340.993973 667.027466C340.993973 688.771469,349.633026 709.622284,365.007187 724.996460C380.381363 740.370621,401.232178 749.009674,422.976181 749.009674C444.720184 749.009674,465.570999 740.370621,480.945175 724.996460C496.319336 709.622284,504.958389 688.771469,504.958389 667.027466Z" style="stroke:rgb(25.500488%,41.000366%,88.400269%); stroke-width: 2.500000;stroke-linecap: round;stroke-linejoin: round;stroke-miterlimit: 10.000000;fill: none;"></path>
  <path d="M603.718536 567.475784C603.718536 545.731781,595.079483 524.880966,579.705322 509.506790C564.331146 494.132629,543.480331 485.493576,521.736328 485.493576C499.992325 485.493576,479.141510 494.132629,463.767334 509.506790C448.393173 524.880966,439.754120 545.731781,439.754120 567.475784C439.754120 589.219788,448.393173 610.070602,463.767334 625.444778C479.141510 640.818939,499.992325 649.457993,521.736328 649.457993C543.480331 649.457993,564.331146 640.818939,579.705322 625.444778C595.079483 610.070602,603.718536 589.219788,603.718536 567.475784Z" style="stroke:rgb(25.500488%,41.000366%,88.400269%); stroke-width: 2.500000;stroke-linecap: round;stroke-linejoin: round;stroke-miterlimit: 10.000000;fill: none;"></path>
  <path d="M703.075577 467.742447C703.075577 445.998444,694.436523 425.147629,679.062363 409.773453C663.688187 394.399292,642.837372 385.760239,621.093369 385.760239C599.349365 385.760239,578.498550 394.399292,563.124374 409.773453C547.750214 425.147629,539.111160 445.998444,539.111160 467.742447C539.111160 489.486450,547.750214 510.337265,563.124374 525.711441C578.498550 541.085602,599.349365 549.724655,621.093369 549.724655C642.837372 549.724655,663.688187 541.085602,679.062363 525.711441C694.436523 510.337265,703.075577 489.486450,703.075577 467.742447Z" style="stroke:rgb(25.500488%,41.000366%,88.400269%); stroke-width: 2.500000;stroke-linecap: round;stroke-linejoin: round;stroke-miterlimit: 10.000000;fill: none;"></path>
  <path d="M803.496643 370.098221C803.496643 348.354218,794.857590 327.503403,779.483429 312.129227C764.109253 296.755066,743.258438 288.116013,721.514435 288.116013C699.770432 288.116013,678.919617 296.755066,663.545441 312.129227C648.171280 327.503403,639.532227 348.354218,639.532227 370.098221C639.532227 391.842224,648.171280 412.693039,663.545441 428.067215C678.919617 443.441376,699.770432 452.080429,721.514435 452.080429C743.258438 452.080429,764.109253 443.441376,779.483429 428.067215C794.857590 412.693039,803.496643 391.842224,803.496643 370.098221Z" style="stroke:rgb(25.500488%,41.000366%,88.400269%); stroke-width: 2.500000;stroke-linecap: round;stroke-linejoin: round;stroke-miterlimit: 10.000000;fill: none;"></path>
  <path d="M904.851990 272.674606C904.851990 250.930603,896.212936 230.079788,880.838776 214.705612C865.464600 199.331451,844.613785 190.692398,822.869781 190.692398C801.125778 190.692398,780.274963 199.331451,764.900787 214.705612C749.526627 230.079788,740.887573 250.930603,740.887573 272.674606C740.887573 294.418610,749.526627 315.269424,764.900787 330.643600C780.274963 346.017761,801.125778 354.656815,822.869781 354.656815C844.613785 354.656815,865.464600 346.017761,880.838776 330.643600C896.212936 315.269424,904.851990 294.418610,904.851990 272.674606Z" style="stroke:rgb(25.500488%,41.000366%,88.400269%); stroke-width: 2.500000;stroke-linecap: round;stroke-linejoin: round;stroke-miterlimit: 10.000000;fill: none;"></path>
  <path d="M1006.531738 173.525177C1006.531738 151.781174,997.892685 130.930359,982.518524 115.556183C967.144348 100.182022,946.293533 91.542969,924.549530 91.542969C902.805527 91.542969,881.954712 100.182022,866.580536 115.556183C851.206375 130.930359,842.567322 151.781174,842.567322 173.525177C842.567322 195.269180,851.206375 216.119995,866.580536 231.494171C881.954712 246.868332,902.805527 255.507385,924.549530 255.507385C946.293533 255.507385,967.144348 246.868332,982.518524 231.494171C997.892685 216.119995,1006.531738 195.269180,1006.531738 173.525177Z" style="stroke:rgb(25.500488%,41.000366%,88.400269%); stroke-width: 2.500000;stroke-linecap: round;stroke-linejoin: round;stroke-miterlimit: 10.000000;fill: none;"></path>
  <path d="M164.442841 833.379471C164.442841 811.635468,155.803787 790.784653,140.429626 775.410477C125.055450 760.036316,104.204636 751.397263,82.460632 751.397263C60.716629 751.397263,39.865814 760.036316,24.491638 775.410477C9.117477 790.784653,0.478424 811.635468,0.478424 833.379471C0.478424 855.123474,9.117477 875.974289,24.491638 891.348465C39.865814 906.722626,60.716629 915.361679,82.460632 915.361679C104.204636 915.361679,125.055450 906.722626,140.429626 891.348465C155.803787 875.974289,164.442841 855.123474,164.442841 833.379471Z" style="stroke:rgb(25.500488%,41.000366%,88.400269%); stroke-width: 2.500000;stroke-linecap: round;stroke-linejoin: round;stroke-miterlimit: 10.000000;fill: none;"></path>
  <path d="M262.904541 734.878845C262.904541 713.134842,254.265488 692.284027,238.891327 676.909851C223.517151 661.535690,202.666336 652.896637,180.922333 652.896637C159.178329 652.896637,138.327515 661.535690,122.953339 676.909851C107.579178 692.284027,98.940125 713.134842,98.940125 734.878845C98.940125 756.622849,107.579178 777.473663,122.953339 792.847839C138.327515 808.222000,159.178329 816.861053,180.922333 816.861053C202.666336 816.861053,223.517151 808.222000,238.891327 792.847839C254.265488 777.473663,262.904541 756.622849,262.904541 734.878845Z" style="stroke:rgb(25.500488%,41.000366%,88.400269%); stroke-width: 2.500000;stroke-linecap: round;stroke-linejoin: round;stroke-miterlimit: 10.000000;fill: none;"></path>
  <path d="M361.275406 635.833221C361.275406 614.089218,352.636353 593.238403,337.262192 577.864227C321.888016 562.490067,301.037201 553.851013,279.293198 553.851013C257.549194 553.851013,236.698380 562.490067,221.324203 577.864227C205.950043 593.238403,197.310989 614.089218,197.310989 635.833221C197.310989 657.577225,205.950043 678.428040,221.324203 693.802216C236.698380 709.176376,257.549194 717.815430,279.293198 717.815430C301.037201 717.815430,321.888016 709.176376,337.262192 693.802216C352.636353 678.428040,361.275406 657.577225,361.275406 635.833221Z" style="stroke:rgb(25.500488%,41.000366%,88.400269%); stroke-width: 2.500000;stroke-linecap: round;stroke-linejoin: round;stroke-miterlimit: 10.000000;fill: none;"></path>
  <path d="M460.022583 536.242615C460.022583 514.498611,451.383530 493.647797,436.009369 478.273621C420.635193 462.899460,399.784378 454.260406,378.040375 454.260406C356.296371 454.260406,335.445557 462.899460,320.071381 478.273621C304.697220 493.647797,296.058167 514.498611,296.058167 536.242615C296.058167 557.986618,304.697220 578.837433,320.071381 594.211609C335.445557 609.585770,356.296371 618.224823,378.040375 618.224823C399.784378 618.224823,420.635193 609.585770,436.009369 594.211609C451.383530 578.837433,460.022583 557.986618,460.022583 536.242615Z" style="stroke:rgb(25.500488%,41.000366%,88.400269%); stroke-width: 2.500000;stroke-linecap: round;stroke-linejoin: round;stroke-miterlimit: 10.000000;fill: none;"></path>
  <path d="M559.457474 436.859619C559.457474 415.115616,550.818420 394.264801,535.444260 378.890625C520.070084 363.516464,499.219269 354.877411,477.475266 354.877411C455.731262 354.877411,434.880447 363.516464,419.506271 378.890625C404.132111 394.264801,395.493057 415.115616,395.493057 436.859619C395.493057 458.603622,404.132111 479.454437,419.506271 494.828613C434.880447 510.202774,455.731262 518.841827,477.475266 518.841827C499.219269 518.841827,520.070084 510.202774,535.444260 494.828613C550.818420 479.454437,559.457474 458.603622,559.457474 436.859619Z" style="stroke:rgb(25.500488%,41.000366%,88.400269%); stroke-width: 2.500000;stroke-linecap: round;stroke-linejoin: round;stroke-miterlimit: 10.000000;fill: none;"></path>
  <path d="M658.957260 337.891861C658.957260 316.147858,650.318207 295.297043,634.944046 279.922867C619.569870 264.548706,598.719055 255.909653,576.975052 255.909653C555.231049 255.909653,534.380234 264.548706,519.006058 279.922867C503.631897 295.297043,494.992844 316.147858,494.992844 337.891861C494.992844 359.635864,503.631897 380.486679,519.006058 395.860855C534.380234 411.235016,555.231049 419.874069,576.975052 419.874069C598.719055 419.874069,619.569870 411.235016,634.944046 395.860855C650.318207 380.486679,658.957260 359.635864,658.957260 337.891861Z" style="stroke:rgb(25.500488%,41.000366%,88.400269%); stroke-width: 2.500000;stroke-linecap: round;stroke-linejoin: round;stroke-miterlimit: 10.000000;fill: none;"></path>
  <path d="M758.820374 242.440582C758.820374 220.696579,750.181320 199.845764,734.807159 184.471588C719.432983 169.097427,698.582169 160.458374,676.838165 160.458374C655.094162 160.458374,634.243347 169.097427,618.869171 184.471588C603.495010 199.845764,594.855957 220.696579,594.855957 242.440582C594.855957 264.184586,603.495010 285.035400,618.869171 300.409576C634.243347 315.783737,655.094162 324.422791,676.838165 324.422791C698.582169 324.422791,719.432983 315.783737,734.807159 300.409576C750.181320 285.035400,758.820374 264.184586,758.820374 242.440582Z" style="stroke:rgb(25.500488%,41.000366%,88.400269%); stroke-width: 2.500000;stroke-linecap: round;stroke-linejoin: round;stroke-miterlimit: 10.000000;fill: none;"></path>
  <path d="M856.088272 152.737656C856.088272 130.993652,847.449219 110.142838,832.075058 94.768661C816.700882 79.394501,795.850067 70.755447,774.106064 70.755447C752.362061 70.755447,731.511246 79.394501,716.137070 94.768661C700.762909 110.142838,692.123856 130.993652,692.123856 152.737656C692.123856 174.481659,700.762909 195.332474,716.137070 210.706650C731.511246 226.080811,752.362061 234.719864,774.106064 234.719864C795.850067 234.719864,816.700882 226.080811,832.075058 210.706650C847.449219 195.332474,856.088272 174.481659,856.088272 152.737656Z" style="stroke:rgb(25.500488%,41.000366%,88.400269%); stroke-width: 2.500000;stroke-linecap: round;stroke-linejoin: round;stroke-miterlimit: 10.000000;fill: none;"></path>
  <path d="M946.491898 82.784180C946.491898 61.040176,937.852844 40.189362,922.478683 24.815186C907.104507 9.441025,886.253693 0.801971,864.509689 0.801971C842.765686 0.801971,821.914871 9.441025,806.540695 24.815186C791.166534 40.189362,782.527481 61.040176,782.527481 82.784180C782.527481 104.528183,791.166534 125.378998,806.540695 140.753174C821.914871 156.127335,842.765686 164.766388,864.509689 164.766388C886.253693 164.766388,907.104507 156.127335,922.478683 140.753174C937.852844 125.378998,946.491898 104.528183,946.491898 82.784180Z" style="stroke:rgb(25.500488%,41.000366%,88.400269%); stroke-width: 2.500000;stroke-linecap: round;stroke-linejoin: round;stroke-miterlimit: 10.000000;fill: none;"></path>
</svg>
