<?xml version="1.0"?>
<!-- Created by MetaPost 2.00 on 2022.03.02:1201 -->
<svg version="1.1" xmlns="http://www.w3.org/2000/svg" xmlns:xlink="http://www.w3.org/1999/xlink" width="1807.263550" height="1759.382187" viewBox="0 0 1807.263550 1759.382187">
<!-- Original BoundingBox: -906.895233 -877.686310 900.368317 881.695877 -->
  <path d="M906.000000 30.606476L446.248215 165.608521L132.450195 527.729065L64.261444 1002.026917L263.312912 1437.889938L666.411591 1696.942307L1145.588409 1696.942307L1548.687088 1437.889938L1747.738556 1002.026917L1679.549805 527.729065L1365.751785 165.608521L906.000000 30.606476Z" style="fill: rgb(100.000000%,100.000000%,100.000000%);stroke: none;"></path>
  <path d="M906.000000 30.606476L446.248215 165.608521" style="stroke:rgb(0.000000%,0.000000%,0.000000%); stroke-width: 2.500000;stroke-linecap: round;stroke-linejoin: round;stroke-miterlimit: 10.000000;fill: none;"></path>
  <path d="M446.248215 165.608521L132.450195 527.729065" style="stroke:rgb(0.000000%,0.000000%,0.000000%); stroke-width: 2.500000;stroke-linecap: round;stroke-linejoin: round;stroke-miterlimit: 10.000000;fill: none;"></path>
  <path d="M132.450195 527.729065L64.261444 1002.026917" style="stroke:rgb(0.000000%,0.000000%,0.000000%); stroke-width: 2.500000;stroke-linecap: round;stroke-linejoin: round;stroke-miterlimit: 10.000000;fill: none;"></path>
  <path d="M64.261444 1002.026917L263.312912 1437.889938" style="stroke:rgb(0.000000%,0.000000%,0.000000%); stroke-width: 2.500000;stroke-linecap: round;stroke-linejoin: round;stroke-miterlimit: 10.000000;fill: none;"></path>
  <path d="M263.312912 1437.889938L666.411591 1696.942307" style="stroke:rgb(0.000000%,0.000000%,0.000000%); stroke-width: 2.500000;stroke-linecap: round;stroke-linejoin: round;stroke-miterlimit: 10.000000;fill: none;"></path>
  <path d="M666.411591 1696.942307L1145.588409 1696.942307" style="stroke:rgb(0.000000%,0.000000%,0.000000%); stroke-width: 2.500000;stroke-linecap: round;stroke-linejoin: round;stroke-miterlimit: 10.000000;fill: none;"></path>
  <path d="M1145.588409 1696.942307L1548.687088 1437.889938" style="stroke:rgb(0.000000%,0.000000%,0.000000%); stroke-width: 2.500000;stroke-linecap: round;stroke-linejoin: round;stroke-miterlimit: 10.000000;fill: none;"></path>
  <path d="M1548.687088 1437.889938L1747.738556 1002.026917" style="stroke:rgb(0.000000%,0.000000%,0.000000%); stroke-width: 2.500000;stroke-linecap: round;stroke-linejoin: round;stroke-miterlimit: 10.000000;fill: none;"></path>
  <path d="M1747.738556 1002.026917L1679.549805 527.729065" style="stroke:rgb(0.000000%,0.000000%,0.000000%); stroke-width: 2.500000;stroke-linecap: round;stroke-linejoin: round;stroke-miterlimit: 10.000000;fill: none;"></path>
  <path d="M1679.549805 527.729065L1365.751785 165.608521" style="stroke:rgb(0.000000%,0.000000%,0.000000%); stroke-width: 2.500000;stroke-linecap: round;stroke-linejoin: round;stroke-miterlimit: 10.000000;fill: none;"></path>
  <path d="M1365.751785 165.608521L906.000000 30.606476" style="stroke:rgb(0.000000%,0.000000%,0.000000%); stroke-width: 2.500000;stroke-linecap: round;stroke-linejoin: round;stroke-miterlimit: 10.000000;fill: none;"></path>
  <path d="M782.974777 1657.028214C782.974777 1630.397141,772.394058 1604.860001,753.564468 1586.030426C734.734894 1567.200836,709.197754 1556.620117,682.566681 1556.620117C655.935608 1556.620117,630.398468 1567.200836,611.568893 1586.030426C592.739304 1604.860001,582.158585 1630.397141,582.158585 1657.028214C582.158585 1683.659286,592.739304 1709.196426,611.568893 1728.026001C630.398468 1746.855591,655.935608 1757.436310,682.566681 1757.436310C709.197754 1757.436310,734.734894 1746.855591,753.564468 1728.026001C772.394058 1709.196426,782.974777 1683.659286,782.974777 1657.028214Z" style="stroke:rgb(25.500488%,41.000366%,88.400269%); stroke-width: 2.500000;stroke-linecap: round;stroke-linejoin: round;stroke-miterlimit: 10.000000;fill: none;"></path>
  <path d="M963.509521 1649.346436C963.509521 1622.715363,952.928802 1597.178223,934.099213 1578.348648C915.269638 1559.519058,889.732498 1548.938339,863.101425 1548.938339C836.470352 1548.938339,810.933212 1559.519058,792.103638 1578.348648C773.274048 1597.178223,762.693329 1622.715363,762.693329 1649.346436C762.693329 1675.977509,773.274048 1701.514648,792.103638 1720.344223C810.933212 1739.173813,836.470352 1749.754532,863.101425 1749.754532C889.732498 1749.754532,915.269638 1739.173813,934.099213 1720.344223C952.928802 1701.514648,963.509521 1675.977509,963.509521 1649.346436Z" style="stroke:rgb(25.500488%,41.000366%,88.400269%); stroke-width: 2.500000;stroke-linecap: round;stroke-linejoin: round;stroke-miterlimit: 10.000000;fill: none;"></path>
  <path d="M1136.193802 1642.365356C1136.193802 1615.734283,1125.613083 1590.197144,1106.783493 1571.367569C1087.953918 1552.537979,1062.416779 1541.957260,1035.785706 1541.957260C1009.154633 1541.957260,983.617493 1552.537979,964.787918 1571.367569C945.958328 1590.197144,935.377609 1615.734283,935.377609 1642.365356C935.377609 1668.996429,945.958328 1694.533569,964.787918 1713.363144C983.617493 1732.192734,1009.154633 1742.773453,1035.785706 1742.773453C1062.416779 1742.773453,1087.953918 1732.192734,1106.783493 1713.363144C1125.613083 1694.533569,1136.193802 1668.996429,1136.193802 1642.365356Z" style="stroke:rgb(25.500488%,41.000366%,88.400269%); stroke-width: 2.500000;stroke-linecap: round;stroke-linejoin: round;stroke-miterlimit: 10.000000;fill: none;"></path>
  <path d="M1303.116745 1639.912903C1303.116745 1613.281830,1292.536026 1587.744690,1273.706436 1568.915115C1254.876862 1550.085526,1229.339722 1539.504807,1202.708649 1539.504807C1176.077576 1539.504807,1150.540436 1550.085526,1131.710861 1568.915115C1112.881271 1587.744690,1102.300552 1613.281830,1102.300552 1639.912903C1102.300552 1666.543976,1112.881271 1692.081116,1131.710861 1710.910690C1150.540436 1729.740280,1176.077576 1740.320999,1202.708649 1740.320999C1229.339722 1740.320999,1254.876862 1729.740280,1273.706436 1710.910690C1292.536026 1692.081116,1303.116745 1666.543976,1303.116745 1639.912903Z" style="stroke:rgb(25.500488%,41.000366%,88.400269%); stroke-width: 2.500000;stroke-linecap: round;stroke-linejoin: round;stroke-miterlimit: 10.000000;fill: none;"></path>
  <path d="M522.728607 1525.983841C522.728607 1499.352768,512.147888 1473.815628,493.318298 1454.986053C474.488724 1436.156464,448.951584 1425.575745,422.320511 1425.575745C395.689438 1425.575745,370.152298 1436.156464,351.322723 1454.986053C332.493134 1473.815628,321.912415 1499.352768,321.912415 1525.983841C321.912415 1552.614914,332.493134 1578.152054,351.322723 1596.981628C370.152298 1615.811218,395.689438 1626.391937,422.320511 1626.391937C448.951584 1626.391937,474.488724 1615.811218,493.318298 1596.981628C512.147888 1578.152054,522.728607 1552.614914,522.728607 1525.983841Z" style="stroke:rgb(25.500488%,41.000366%,88.400269%); stroke-width: 2.500000;stroke-linecap: round;stroke-linejoin: round;stroke-miterlimit: 10.000000;fill: none;"></path>
  <path d="M689.067642 1543.138077C689.067642 1516.507004,678.486923 1490.969864,659.657333 1472.140289C640.827759 1453.310699,615.290619 1442.729980,588.659546 1442.729980C562.028473 1442.729980,536.491333 1453.310699,517.661758 1472.140289C498.832169 1490.969864,488.251450 1516.507004,488.251450 1543.138077C488.251450 1569.769150,498.832169 1595.306290,517.661758 1614.135864C536.491333 1632.965454,562.028473 1643.546173,588.659546 1643.546173C615.290619 1643.546173,640.827759 1632.965454,659.657333 1614.135864C678.486923 1595.306290,689.067642 1569.769150,689.067642 1543.138077Z" style="stroke:rgb(25.500488%,41.000366%,88.400269%); stroke-width: 2.500000;stroke-linecap: round;stroke-linejoin: round;stroke-miterlimit: 10.000000;fill: none;"></path>
  <path d="M869.303940 1509.037216C869.303940 1482.406143,858.723221 1456.869003,839.893631 1438.039429C821.064056 1419.209839,795.526917 1408.629120,768.895844 1408.629120C742.264771 1408.629120,716.727631 1419.209839,697.898056 1438.039429C679.068466 1456.869003,668.487747 1482.406143,668.487747 1509.037216C668.487747 1535.668289,679.068466 1561.205429,697.898056 1580.035004C716.727631 1598.864594,742.264771 1609.445312,768.895844 1609.445312C795.526917 1609.445312,821.064056 1598.864594,839.893631 1580.035004C858.723221 1561.205429,869.303940 1535.668289,869.303940 1509.037216Z" style="stroke:rgb(25.500488%,41.000366%,88.400269%); stroke-width: 2.500000;stroke-linecap: round;stroke-linejoin: round;stroke-miterlimit: 10.000000;fill: none;"></path>
  <path d="M1047.684677 1497.566452C1047.684677 1470.935379,1037.103958 1445.398239,1018.274368 1426.568665C999.444794 1407.739075,973.907654 1397.158356,947.276581 1397.158356C920.645508 1397.158356,895.108368 1407.739075,876.278793 1426.568665C857.449203 1445.398239,846.868484 1470.935379,846.868484 1497.566452C846.868484 1524.197525,857.449203 1549.734665,876.278793 1568.564240C895.108368 1587.393829,920.645508 1597.974548,947.276581 1597.974548C973.907654 1597.974548,999.444794 1587.393829,1018.274368 1568.564240C1037.103958 1549.734665,1047.684677 1524.197525,1047.684677 1497.566452Z" style="stroke:rgb(25.500488%,41.000366%,88.400269%); stroke-width: 2.500000;stroke-linecap: round;stroke-linejoin: round;stroke-miterlimit: 10.000000;fill: none;"></path>
  <path d="M1224.430435 1491.299057C1224.430435 1464.667984,1213.849716 1439.130844,1195.020126 1420.301270C1176.190552 1401.471680,1150.653412 1390.890961,1124.022339 1390.890961C1097.391266 1390.890961,1071.854126 1401.471680,1053.024551 1420.301270C1034.194962 1439.130844,1023.614243 1464.667984,1023.614243 1491.299057C1023.614243 1517.930130,1034.194962 1543.467270,1053.024551 1562.296844C1071.854126 1581.126434,1097.391266 1591.707153,1124.022339 1591.707153C1150.653412 1591.707153,1176.190552 1581.126434,1195.020126 1562.296844C1213.849716 1543.467270,1224.430435 1517.930130,1224.430435 1491.299057Z" style="stroke:rgb(25.500488%,41.000366%,88.400269%); stroke-width: 2.500000;stroke-linecap: round;stroke-linejoin: round;stroke-miterlimit: 10.000000;fill: none;"></path>
  <path d="M1404.731613 1500.810440C1404.731613 1474.179367,1394.150894 1448.642227,1375.321304 1429.812653C1356.491730 1410.983063,1330.954590 1400.402344,1304.323517 1400.402344C1277.692444 1400.402344,1252.155304 1410.983063,1233.325729 1429.812653C1214.496140 1448.642227,1203.915421 1474.179367,1203.915421 1500.810440C1203.915421 1527.441513,1214.496140 1552.978653,1233.325729 1571.808228C1252.155304 1590.637817,1277.692444 1601.218536,1304.323517 1601.218536C1330.954590 1601.218536,1356.491730 1590.637817,1375.321304 1571.808228C1394.150894 1552.978653,1404.731613 1527.441513,1404.731613 1500.810440Z" style="stroke:rgb(25.500488%,41.000366%,88.400269%); stroke-width: 2.500000;stroke-linecap: round;stroke-linejoin: round;stroke-miterlimit: 10.000000;fill: none;"></path>
  <path d="M1573.484177 1466.164581C1573.484177 1439.533508,1562.903458 1413.996368,1544.073868 1395.166794C1525.244293 1376.337204,1499.707153 1365.756485,1473.076080 1365.756485C1446.445007 1365.756485,1420.907867 1376.337204,1402.078293 1395.166794C1383.248703 1413.996368,1372.667984 1439.533508,1372.667984 1466.164581C1372.667984 1492.795654,1383.248703 1518.332794,1402.078293 1537.162369C1420.907867 1555.991959,1446.445007 1566.572678,1473.076080 1566.572678C1499.707153 1566.572678,1525.244293 1555.991959,1544.073868 1537.162369C1562.903458 1518.332794,1573.484177 1492.795654,1573.484177 1466.164581Z" style="stroke:rgb(25.500488%,41.000366%,88.400269%); stroke-width: 2.500000;stroke-linecap: round;stroke-linejoin: round;stroke-miterlimit: 10.000000;fill: none;"></path>
  <path d="M424.370712 1381.976456C424.370712 1355.345383,413.789993 1329.808243,394.960403 1310.978668C376.130829 1292.149078,350.593689 1281.568359,323.962616 1281.568359C297.331543 1281.568359,271.794403 1292.149078,252.964828 1310.978668C234.135239 1329.808243,223.554520 1355.345383,223.554520 1381.976456C223.554520 1408.607529,234.135239 1434.144669,252.964828 1452.974243C271.794403 1471.803833,297.331543 1482.384552,323.962616 1482.384552C350.593689 1482.384552,376.130829 1471.803833,394.960403 1452.974243C413.789993 1434.144669,424.370712 1408.607529,424.370712 1381.976456Z" style="stroke:rgb(25.500488%,41.000366%,88.400269%); stroke-width: 2.500000;stroke-linecap: round;stroke-linejoin: round;stroke-miterlimit: 10.000000;fill: none;"></path>
  <path d="M606.449600 1385.246399C606.449600 1358.615326,595.868881 1333.078186,577.039291 1314.248611C558.209717 1295.419022,532.672577 1284.838303,506.041504 1284.838303C479.410431 1284.838303,453.873291 1295.419022,435.043716 1314.248611C416.214127 1333.078186,405.633408 1358.615326,405.633408 1385.246399C405.633408 1411.877472,416.214127 1437.414612,435.043716 1456.244186C453.873291 1475.073776,479.410431 1485.654495,506.041504 1485.654495C532.672577 1485.654495,558.209717 1475.073776,577.039291 1456.244186C595.868881 1437.414612,606.449600 1411.877472,606.449600 1385.246399Z" style="stroke:rgb(25.500488%,41.000366%,88.400269%); stroke-width: 2.500000;stroke-linecap: round;stroke-linejoin: round;stroke-miterlimit: 10.000000;fill: none;"></path>
  <path d="M771.283417 1385.518906C771.283417 1358.887833,760.702698 1333.350693,741.873108 1314.521118C723.043533 1295.691528,697.506393 1285.110809,670.875320 1285.110809C644.244247 1285.110809,618.707108 1295.691528,599.877533 1314.521118C581.047943 1333.350693,570.467224 1358.887833,570.467224 1385.518906C570.467224 1412.149979,581.047943 1437.687119,599.877533 1456.516693C618.707108 1475.346283,644.244247 1485.927002,670.875320 1485.927002C697.506393 1485.927002,723.043533 1475.346283,741.873108 1456.516693C760.702698 1437.687119,771.283417 1412.149979,771.283417 1385.518906Z" style="stroke:rgb(25.500488%,41.000366%,88.400269%); stroke-width: 2.500000;stroke-linecap: round;stroke-linejoin: round;stroke-miterlimit: 10.000000;fill: none;"></path>
  <path d="M947.808594 1357.555679C947.808594 1330.924606,937.227875 1305.387466,918.398285 1286.557892C899.568710 1267.728302,874.031570 1257.147583,847.400497 1257.147583C820.769424 1257.147583,795.232285 1267.728302,776.402710 1286.557892C757.573120 1305.387466,746.992401 1330.924606,746.992401 1357.555679C746.992401 1384.186752,757.573120 1409.723892,776.402710 1428.553467C795.232285 1447.383057,820.769424 1457.963776,847.400497 1457.963776C874.031570 1457.963776,899.568710 1447.383057,918.398285 1428.553467C937.227875 1409.723892,947.808594 1384.186752,947.808594 1357.555679Z" style="stroke:rgb(25.500488%,41.000366%,88.400269%); stroke-width: 2.500000;stroke-linecap: round;stroke-linejoin: round;stroke-miterlimit: 10.000000;fill: none;"></path>
  <path d="M1126.617538 1346.798584C1126.617538 1320.167511,1116.036819 1294.630371,1097.207230 1275.800797C1078.377655 1256.971207,1052.840515 1246.390488,1026.209442 1246.390488C999.578369 1246.390488,974.041229 1256.971207,955.211655 1275.800797C936.382065 1294.630371,925.801346 1320.167511,925.801346 1346.798584C925.801346 1373.429657,936.382065 1398.966797,955.211655 1417.796371C974.041229 1436.625961,999.578369 1447.206680,1026.209442 1447.206680C1052.840515 1447.206680,1078.377655 1436.625961,1097.207230 1417.796371C1116.036819 1398.966797,1126.617538 1373.429657,1126.617538 1346.798584Z" style="stroke:rgb(25.500488%,41.000366%,88.400269%); stroke-width: 2.500000;stroke-linecap: round;stroke-linejoin: round;stroke-miterlimit: 10.000000;fill: none;"></path>
  <path d="M1309.137604 1352.066833C1309.137604 1325.435760,1298.556885 1299.898621,1279.727295 1281.069046C1260.897720 1262.239456,1235.360580 1251.658737,1208.729507 1251.658737C1182.098434 1251.658737,1156.561295 1262.239456,1137.731720 1281.069046C1118.902130 1299.898621,1108.321411 1325.435760,1108.321411 1352.066833C1108.321411 1378.697906,1118.902130 1404.235046,1137.731720 1423.064621C1156.561295 1441.894211,1182.098434 1452.474930,1208.729507 1452.474930C1235.360580 1452.474930,1260.897720 1441.894211,1279.727295 1423.064621C1298.556885 1404.235046,1309.137604 1378.697906,1309.137604 1352.066833Z" style="stroke:rgb(25.500488%,41.000366%,88.400269%); stroke-width: 2.500000;stroke-linecap: round;stroke-linejoin: round;stroke-miterlimit: 10.000000;fill: none;"></path>
  <path d="M1470.986938 1332.849411C1470.986938 1306.218338,1460.406219 1280.681198,1441.576630 1261.851624C1422.747055 1243.022034,1397.209915 1232.441315,1370.578842 1232.441315C1343.947769 1232.441315,1318.410629 1243.022034,1299.581055 1261.851624C1280.751465 1280.681198,1270.170746 1306.218338,1270.170746 1332.849411C1270.170746 1359.480484,1280.751465 1385.017624,1299.581055 1403.847198C1318.410629 1422.676788,1343.947769 1433.257507,1370.578842 1433.257507C1397.209915 1433.257507,1422.747055 1422.676788,1441.576630 1403.847198C1460.406219 1385.017624,1470.986938 1359.480484,1470.986938 1332.849411Z" style="stroke:rgb(25.500488%,41.000366%,88.400269%); stroke-width: 2.500000;stroke-linecap: round;stroke-linejoin: round;stroke-miterlimit: 10.000000;fill: none;"></path>
  <path d="M1645.059647 1315.344818C1645.059647 1288.713745,1634.478928 1263.176605,1615.649338 1244.347031C1596.819763 1225.517441,1571.282623 1214.936722,1544.651550 1214.936722C1518.020477 1214.936722,1492.483337 1225.517441,1473.653763 1244.347031C1454.824173 1263.176605,1444.243454 1288.713745,1444.243454 1315.344818C1444.243454 1341.975891,1454.824173 1367.513031,1473.653763 1386.342606C1492.483337 1405.172195,1518.020477 1415.752914,1544.651550 1415.752914C1571.282623 1415.752914,1596.819763 1405.172195,1615.649338 1386.342606C1634.478928 1367.513031,1645.059647 1341.975891,1645.059647 1315.344818Z" style="stroke:rgb(25.500488%,41.000366%,88.400269%); stroke-width: 2.500000;stroke-linecap: round;stroke-linejoin: round;stroke-miterlimit: 10.000000;fill: none;"></path>
  <path d="M353.340225 1260.560257C353.340225 1233.929184,342.759506 1208.392044,323.929916 1189.562469C305.100342 1170.732880,279.563202 1160.152161,252.932129 1160.152161C226.301056 1160.152161,200.763916 1170.732880,181.934341 1189.562469C163.104752 1208.392044,152.524033 1233.929184,152.524033 1260.560257C152.524033 1287.191330,163.104752 1312.728470,181.934341 1331.558044C200.763916 1350.387634,226.301056 1360.968353,252.932129 1360.968353C279.563202 1360.968353,305.100342 1350.387634,323.929916 1331.558044C342.759506 1312.728470,353.340225 1287.191330,353.340225 1260.560257Z" style="stroke:rgb(25.500488%,41.000366%,88.400269%); stroke-width: 2.500000;stroke-linecap: round;stroke-linejoin: round;stroke-miterlimit: 10.000000;fill: none;"></path>
  <path d="M522.456116 1241.083313C522.456116 1214.452240,511.875397 1188.915100,493.045807 1170.085526C474.216232 1151.255936,448.679092 1140.675217,422.048019 1140.675217C395.416946 1140.675217,369.879807 1151.255936,351.050232 1170.085526C332.220642 1188.915100,321.639923 1214.452240,321.639923 1241.083313C321.639923 1267.714386,332.220642 1293.251526,351.050232 1312.081100C369.879807 1330.910690,395.416946 1341.491409,422.048019 1341.491409C448.679092 1341.491409,474.216232 1330.910690,493.045807 1312.081100C511.875397 1293.251526,522.456116 1267.714386,522.456116 1241.083313Z" style="stroke:rgb(25.500488%,41.000366%,88.400269%); stroke-width: 2.500000;stroke-linecap: round;stroke-linejoin: round;stroke-miterlimit: 10.000000;fill: none;"></path>
  <path d="M690.404175 1227.640213C690.404175 1201.009140,679.823456 1175.472000,660.993866 1156.642426C642.164291 1137.812836,616.627151 1127.232117,589.996078 1127.232117C563.365005 1127.232117,537.827866 1137.812836,518.998291 1156.642426C500.168701 1175.472000,489.587982 1201.009140,489.587982 1227.640213C489.587982 1254.271286,500.168701 1279.808426,518.998291 1298.638000C537.827866 1317.467590,563.365005 1328.048309,589.996078 1328.048309C616.627151 1328.048309,642.164291 1317.467590,660.993866 1298.638000C679.823456 1279.808426,690.404175 1254.271286,690.404175 1227.640213Z" style="stroke:rgb(25.500488%,41.000366%,88.400269%); stroke-width: 2.500000;stroke-linecap: round;stroke-linejoin: round;stroke-miterlimit: 10.000000;fill: none;"></path>
  <path d="M853.810623 1225.914398C853.810623 1199.283325,843.229904 1173.746185,824.400314 1154.916611C805.570740 1136.087021,780.033600 1125.506302,753.402527 1125.506302C726.771454 1125.506302,701.234314 1136.087021,682.404739 1154.916611C663.575150 1173.746185,652.994431 1199.283325,652.994431 1225.914398C652.994431 1252.545471,663.575150 1278.082611,682.404739 1296.912186C701.234314 1315.741776,726.771454 1326.322495,753.402527 1326.322495C780.033600 1326.322495,805.570740 1315.741776,824.400314 1296.912186C843.229904 1278.082611,853.810623 1252.545471,853.810623 1225.914398Z" style="stroke:rgb(25.500488%,41.000366%,88.400269%); stroke-width: 2.500000;stroke-linecap: round;stroke-linejoin: round;stroke-miterlimit: 10.000000;fill: none;"></path>
  <path d="M1033.800385 1206.476395C1033.800385 1179.845322,1023.219666 1154.308182,1004.390076 1135.478607C985.560501 1116.649017,960.023361 1106.068298,933.392288 1106.068298C906.761215 1106.068298,881.224075 1116.649017,862.394501 1135.478607C843.564911 1154.308182,832.984192 1179.845322,832.984192 1206.476395C832.984192 1233.107468,843.564911 1258.644608,862.394501 1277.474182C881.224075 1296.303772,906.761215 1306.884491,933.392288 1306.884491C960.023361 1306.884491,985.560501 1296.303772,1004.390076 1277.474182C1023.219666 1258.644608,1033.800385 1233.107468,1033.800385 1206.476395Z" style="stroke:rgb(25.500488%,41.000366%,88.400269%); stroke-width: 2.500000;stroke-linecap: round;stroke-linejoin: round;stroke-miterlimit: 10.000000;fill: none;"></path>
  <path d="M1216.099854 1207.293884C1216.099854 1180.662811,1205.519135 1155.125671,1186.689545 1136.296097C1167.859970 1117.466507,1142.322830 1106.885788,1115.691757 1106.885788C1089.060684 1106.885788,1063.523544 1117.466507,1044.693970 1136.296097C1025.864380 1155.125671,1015.283661 1180.662811,1015.283661 1207.293884C1015.283661 1233.924957,1025.864380 1259.462097,1044.693970 1278.291672C1063.523544 1297.121262,1089.060684 1307.701981,1115.691757 1307.701981C1142.322830 1307.701981,1167.859970 1297.121262,1186.689545 1278.291672C1205.519135 1259.462097,1216.099854 1233.924957,1216.099854 1207.293884Z" style="stroke:rgb(25.500488%,41.000366%,88.400269%); stroke-width: 2.500000;stroke-linecap: round;stroke-linejoin: round;stroke-miterlimit: 10.000000;fill: none;"></path>
  <path d="M1380.168091 1183.846283C1380.168091 1157.215210,1369.587372 1131.678070,1350.757782 1112.848495C1331.928207 1094.018906,1306.391068 1083.438187,1279.759995 1083.438187C1253.128922 1083.438187,1227.591782 1094.018906,1208.762207 1112.848495C1189.932617 1131.678070,1179.351898 1157.215210,1179.351898 1183.846283C1179.351898 1210.477356,1189.932617 1236.014496,1208.762207 1254.844070C1227.591782 1273.673660,1253.128922 1284.254379,1279.759995 1284.254379C1306.391068 1284.254379,1331.928207 1273.673660,1350.757782 1254.844070C1369.587372 1236.014496,1380.168091 1210.477356,1380.168091 1183.846283Z" style="stroke:rgb(25.500488%,41.000366%,88.400269%); stroke-width: 2.500000;stroke-linecap: round;stroke-linejoin: round;stroke-miterlimit: 10.000000;fill: none;"></path>
  <path d="M1550.114441 1174.685257C1550.114441 1148.054184,1539.533722 1122.517044,1520.704132 1103.687469C1501.874557 1084.857880,1476.337418 1074.277161,1449.706345 1074.277161C1423.075272 1074.277161,1397.538132 1084.857880,1378.708557 1103.687469C1359.878967 1122.517044,1349.298248 1148.054184,1349.298248 1174.685257C1349.298248 1201.316330,1359.878967 1226.853470,1378.708557 1245.683044C1397.538132 1264.512634,1423.075272 1275.093353,1449.706345 1275.093353C1476.337418 1275.093353,1501.874557 1264.512634,1520.704132 1245.683044C1539.533722 1226.853470,1550.114441 1201.316330,1550.114441 1174.685257Z" style="stroke:rgb(25.500488%,41.000366%,88.400269%); stroke-width: 2.500000;stroke-linecap: round;stroke-linejoin: round;stroke-miterlimit: 10.000000;fill: none;"></path>
  <path d="M1723.136093 1161.164291C1723.136093 1134.533218,1712.555374 1108.996078,1693.725784 1090.166504C1674.896210 1071.336914,1649.359070 1060.756195,1622.727997 1060.756195C1596.096924 1060.756195,1570.559784 1071.336914,1551.730209 1090.166504C1532.900620 1108.996078,1522.319901 1134.533218,1522.319901 1161.164291C1522.319901 1187.795364,1532.900620 1213.332504,1551.730209 1232.162079C1570.559784 1250.991669,1596.096924 1261.572388,1622.727997 1261.572388C1649.359070 1261.572388,1674.896210 1250.991669,1693.725784 1232.162079C1712.555374 1213.332504,1723.136093 1187.795364,1723.136093 1161.164291Z" style="stroke:rgb(25.500488%,41.000366%,88.400269%); stroke-width: 2.500000;stroke-linecap: round;stroke-linejoin: round;stroke-miterlimit: 10.000000;fill: none;"></path>
  <path d="M286.838364 1119.524384C286.838364 1092.893311,276.257645 1067.356171,257.428055 1048.526596C238.598480 1029.697006,213.061340 1019.116287,186.430267 1019.116287C159.799194 1019.116287,134.262054 1029.697006,115.432480 1048.526596C96.602890 1067.356171,86.022171 1092.893311,86.022171 1119.524384C86.022171 1146.155457,96.602890 1171.692596,115.432480 1190.522171C134.262054 1209.351761,159.799194 1219.932480,186.430267 1219.932480C213.061340 1219.932480,238.598480 1209.351761,257.428055 1190.522171C276.257645 1171.692596,286.838364 1146.155457,286.838364 1119.524384Z" style="stroke:rgb(25.500488%,41.000366%,88.400269%); stroke-width: 2.500000;stroke-linecap: round;stroke-linejoin: round;stroke-miterlimit: 10.000000;fill: none;"></path>
  <path d="M448.441147 1098.905548C448.441147 1072.274475,437.860428 1046.737335,419.030838 1027.907761C400.201263 1009.078171,374.664124 998.497452,348.033051 998.497452C321.401978 998.497452,295.864838 1009.078171,277.035263 1027.907761C258.205673 1046.737335,247.624954 1072.274475,247.624954 1098.905548C247.624954 1125.536621,258.205673 1151.073761,277.035263 1169.903336C295.864838 1188.732925,321.401978 1199.313644,348.033051 1199.313644C374.664124 1199.313644,400.201263 1188.732925,419.030838 1169.903336C437.860428 1151.073761,448.441147 1125.536621,448.441147 1098.905548Z" style="stroke:rgb(25.500488%,41.000366%,88.400269%); stroke-width: 2.500000;stroke-linecap: round;stroke-linejoin: round;stroke-miterlimit: 10.000000;fill: none;"></path>
  <path d="M609.875259 1079.804916C609.875259 1053.173843,599.294540 1027.636703,580.464951 1008.807129C561.635376 989.977539,536.098236 979.396820,509.467163 979.396820C482.836090 979.396820,457.298950 989.977539,438.469376 1008.807129C419.639786 1027.636703,409.059067 1053.173843,409.059067 1079.804916C409.059067 1106.435989,419.639786 1131.973129,438.469376 1150.802704C457.298950 1169.632294,482.836090 1180.213013,509.467163 1180.213013C536.098236 1180.213013,561.635376 1169.632294,580.464951 1150.802704C599.294540 1131.973129,609.875259 1106.435989,609.875259 1079.804916Z" style="stroke:rgb(25.500488%,41.000366%,88.400269%); stroke-width: 2.500000;stroke-linecap: round;stroke-linejoin: round;stroke-miterlimit: 10.000000;fill: none;"></path>
  <path d="M774.838837 1068.074631C774.838837 1041.443558,764.258118 1015.906418,745.428528 997.076843C726.598953 978.247253,701.061813 967.666534,674.430740 967.666534C647.799667 967.666534,622.262527 978.247253,603.432953 997.076843C584.603363 1015.906418,574.022644 1041.443558,574.022644 1068.074631C574.022644 1094.705704,584.603363 1120.242844,603.432953 1139.072418C622.262527 1157.902008,647.799667 1168.482727,674.430740 1168.482727C701.061813 1168.482727,726.598953 1157.902008,745.428528 1139.072418C764.258118 1120.242844,774.838837 1094.705704,774.838837 1068.074631Z" style="stroke:rgb(25.500488%,41.000366%,88.400269%); stroke-width: 2.500000;stroke-linecap: round;stroke-linejoin: round;stroke-miterlimit: 10.000000;fill: none;"></path>
  <path d="M942.488434 1072.642181C942.488434 1046.011108,931.907715 1020.473969,913.078125 1001.644394C894.248550 982.814804,868.711411 972.234085,842.080338 972.234085C815.449265 972.234085,789.912125 982.814804,771.082550 1001.644394C752.252960 1020.473969,741.672241 1046.011108,741.672241 1072.642181C741.672241 1099.273254,752.252960 1124.810394,771.082550 1143.639969C789.912125 1162.469559,815.449265 1173.050278,842.080338 1173.050278C868.711411 1173.050278,894.248550 1162.469559,913.078125 1143.639969C931.907715 1124.810394,942.488434 1099.273254,942.488434 1072.642181Z" style="stroke:rgb(25.500488%,41.000366%,88.400269%); stroke-width: 2.500000;stroke-linecap: round;stroke-linejoin: round;stroke-miterlimit: 10.000000;fill: none;"></path>
  <path d="M1124.268875 1064.389465C1124.268875 1037.758392,1113.688156 1012.221252,1094.858566 993.391678C1076.028992 974.562088,1050.491852 963.981369,1023.860779 963.981369C997.229706 963.981369,971.692566 974.562088,952.862991 993.391678C934.033401 1012.221252,923.452682 1037.758392,923.452682 1064.389465C923.452682 1091.020538,934.033401 1116.557678,952.862991 1135.387253C971.692566 1154.216843,997.229706 1164.797562,1023.860779 1164.797562C1050.491852 1164.797562,1076.028992 1154.216843,1094.858566 1135.387253C1113.688156 1116.557678,1124.268875 1091.020538,1124.268875 1064.389465Z" style="stroke:rgb(25.500488%,41.000366%,88.400269%); stroke-width: 2.500000;stroke-linecap: round;stroke-linejoin: round;stroke-miterlimit: 10.000000;fill: none;"></path>
  <path d="M1291.100998 1041.123535C1291.100998 1014.492462,1280.520279 988.955322,1261.690689 970.125748C1242.861115 951.296158,1217.323975 940.715439,1190.692902 940.715439C1164.061829 940.715439,1138.524689 951.296158,1119.695114 970.125748C1100.865524 988.955322,1090.284805 1014.492462,1090.284805 1041.123535C1090.284805 1067.754608,1100.865524 1093.291748,1119.695114 1112.121323C1138.524689 1130.950912,1164.061829 1141.531631,1190.692902 1141.531631C1217.323975 1141.531631,1242.861115 1130.950912,1261.690689 1112.121323C1280.520279 1093.291748,1291.100998 1067.754608,1291.100998 1041.123535Z" style="stroke:rgb(25.500488%,41.000366%,88.400269%); stroke-width: 2.500000;stroke-linecap: round;stroke-linejoin: round;stroke-miterlimit: 10.000000;fill: none;"></path>
  <path d="M1464.239441 1025.656174C1464.239441 999.025101,1453.658722 973.487961,1434.829132 954.658386C1415.999557 935.828796,1390.462418 925.248077,1363.831345 925.248077C1337.200272 925.248077,1311.663132 935.828796,1292.833557 954.658386C1274.003967 973.487961,1263.423248 999.025101,1263.423248 1025.656174C1263.423248 1052.287247,1274.003967 1077.824387,1292.833557 1096.653961C1311.663132 1115.483551,1337.200272 1126.064270,1363.831345 1126.064270C1390.462418 1126.064270,1415.999557 1115.483551,1434.829132 1096.653961C1453.658722 1077.824387,1464.239441 1052.287247,1464.239441 1025.656174Z" style="stroke:rgb(25.500488%,41.000366%,88.400269%); stroke-width: 2.500000;stroke-linecap: round;stroke-linejoin: round;stroke-miterlimit: 10.000000;fill: none;"></path>
  <path d="M1634.652924 1017.182861C1634.652924 990.551788,1624.072205 965.014648,1605.242615 946.185074C1586.413040 927.355484,1560.875900 916.774765,1534.244827 916.774765C1507.613754 916.774765,1482.076614 927.355484,1463.247040 946.185074C1444.417450 965.014648,1433.836731 990.551788,1433.836731 1017.182861C1433.836731 1043.813934,1444.417450 1069.351074,1463.247040 1088.180649C1482.076614 1107.010239,1507.613754 1117.590958,1534.244827 1117.590958C1560.875900 1117.590958,1586.413040 1107.010239,1605.242615 1088.180649C1624.072205 1069.351074,1634.652924 1043.813934,1634.652924 1017.182861Z" style="stroke:rgb(25.500488%,41.000366%,88.400269%); stroke-width: 2.500000;stroke-linecap: round;stroke-linejoin: round;stroke-miterlimit: 10.000000;fill: none;"></path>
  <path d="M1805.118317 1000.132431C1805.118317 973.501358,1794.537598 947.964218,1775.708008 929.134644C1756.878433 910.305054,1731.341293 899.724335,1704.710220 899.724335C1678.079147 899.724335,1652.542007 910.305054,1633.712433 929.134644C1614.882843 947.964218,1604.302124 973.501358,1604.302124 1000.132431C1604.302124 1026.763504,1614.882843 1052.300644,1633.712433 1071.130219C1652.542007 1089.959808,1678.079147 1100.540527,1704.710220 1100.540527C1731.341293 1100.540527,1756.878433 1089.959808,1775.708008 1071.130219C1794.537598 1052.300644,1805.118317 1026.763504,1805.118317 1000.132431Z" style="stroke:rgb(25.500488%,41.000366%,88.400269%); stroke-width: 2.500000;stroke-linecap: round;stroke-linejoin: round;stroke-miterlimit: 10.000000;fill: none;"></path>
  <path d="M201.170959 973.453827C201.170959 946.822754,190.590240 921.285614,171.760651 902.456039C152.931076 883.626450,127.393936 873.045731,100.762863 873.045731C74.131790 873.045731,48.594650 883.626450,29.765076 902.456039C10.935486 921.285614,0.354767 946.822754,0.354767 973.453827C0.354767 1000.084900,10.935486 1025.622040,29.765076 1044.451614C48.594650 1063.281204,74.131790 1073.861923,100.762863 1073.861923C127.393936 1073.861923,152.931076 1063.281204,171.760651 1044.451614C190.590240 1025.622040,201.170959 1000.084900,201.170959 973.453827Z" style="stroke:rgb(25.500488%,41.000366%,88.400269%); stroke-width: 2.500000;stroke-linecap: round;stroke-linejoin: round;stroke-miterlimit: 10.000000;fill: none;"></path>
  <path d="M363.928619 950.642059C363.928619 924.010986,353.347900 898.473846,334.518311 879.644272C315.688736 860.814682,290.151596 850.233963,263.520523 850.233963C236.889450 850.233963,211.352310 860.814682,192.522736 879.644272C173.693146 898.473846,163.112427 924.010986,163.112427 950.642059C163.112427 977.273132,173.693146 1002.810272,192.522736 1021.639847C211.352310 1040.469437,236.889450 1051.050156,263.520523 1051.050156C290.151596 1051.050156,315.688736 1040.469437,334.518311 1021.639847C353.347900 1002.810272,363.928619 977.273132,363.928619 950.642059Z" style="stroke:rgb(25.500488%,41.000366%,88.400269%); stroke-width: 2.500000;stroke-linecap: round;stroke-linejoin: round;stroke-miterlimit: 10.000000;fill: none;"></path>
  <path d="M525.946655 930.477402C525.946655 903.846329,515.365936 878.309189,496.536346 859.479614C477.706772 840.650024,452.169632 830.069305,425.538559 830.069305C398.907486 830.069305,373.370346 840.650024,354.540771 859.479614C335.711182 878.309189,325.130463 903.846329,325.130463 930.477402C325.130463 957.108475,335.711182 982.645615,354.540771 1001.475189C373.370346 1020.304779,398.907486 1030.885498,425.538559 1030.885498C452.169632 1030.885498,477.706772 1020.304779,496.536346 1001.475189C515.365936 982.645615,525.946655 957.108475,525.946655 930.477402Z" style="stroke:rgb(25.500488%,41.000366%,88.400269%); stroke-width: 2.500000;stroke-linecap: round;stroke-linejoin: round;stroke-miterlimit: 10.000000;fill: none;"></path>
  <path d="M692.026169 916.787735C692.026169 890.156662,681.445450 864.619522,662.615860 845.789948C643.786285 826.960358,618.249146 816.379639,591.618073 816.379639C564.987000 816.379639,539.449860 826.960358,520.620285 845.789948C501.790695 864.619522,491.209976 890.156662,491.209976 916.787735C491.209976 943.418808,501.790695 968.955948,520.620285 987.785522C539.449860 1006.615112,564.987000 1017.195831,591.618073 1017.195831C618.249146 1017.195831,643.786285 1006.615112,662.615860 987.785522C681.445450 968.955948,692.026169 943.418808,692.026169 916.787735Z" style="stroke:rgb(25.500488%,41.000366%,88.400269%); stroke-width: 2.500000;stroke-linecap: round;stroke-linejoin: round;stroke-miterlimit: 10.000000;fill: none;"></path>
  <path d="M863.879990 914.828369C863.879990 888.197296,853.299271 862.660156,834.469681 843.830582C815.640106 825.000992,790.102966 814.420273,763.471893 814.420273C736.840820 814.420273,711.303680 825.000992,692.474106 843.830582C673.644516 862.660156,663.063797 888.197296,663.063797 914.828369C663.063797 941.459442,673.644516 966.996582,692.474106 985.826157C711.303680 1004.655746,736.840820 1015.236465,763.471893 1015.236465C790.102966 1015.236465,815.640106 1004.655746,834.469681 985.826157C853.299271 966.996582,863.879990 941.459442,863.879990 914.828369Z" style="stroke:rgb(25.500488%,41.000366%,88.400269%); stroke-width: 2.500000;stroke-linecap: round;stroke-linejoin: round;stroke-miterlimit: 10.000000;fill: none;"></path>
  <path d="M1035.162857 925.754135C1035.162857 899.123062,1024.582138 873.585922,1005.752548 854.756348C986.922974 835.926758,961.385834 825.346039,934.754761 825.346039C908.123688 825.346039,882.586548 835.926758,863.756973 854.756348C844.927383 873.585922,834.346664 899.123062,834.346664 925.754135C834.346664 952.385208,844.927383 977.922348,863.756973 996.751923C882.586548 1015.581512,908.123688 1026.162231,934.754761 1026.162231C961.385834 1026.162231,986.922974 1015.581512,1005.752548 996.751923C1024.582138 977.922348,1035.162857 952.385208,1035.162857 925.754135Z" style="stroke:rgb(25.500488%,41.000366%,88.400269%); stroke-width: 2.500000;stroke-linecap: round;stroke-linejoin: round;stroke-miterlimit: 10.000000;fill: none;"></path>
  <path d="M1207.289169 902.475235C1207.289169 875.844162,1196.708450 850.307022,1177.878860 831.477448C1159.049286 812.647858,1133.512146 802.067139,1106.881073 802.067139C1080.250000 802.067139,1054.712860 812.647858,1035.883286 831.477448C1017.053696 850.307022,1006.472977 875.844162,1006.472977 902.475235C1006.472977 929.106308,1017.053696 954.643448,1035.883286 973.473022C1054.712860 992.302612,1080.250000 1002.883331,1106.881073 1002.883331C1133.512146 1002.883331,1159.049286 992.302612,1177.878860 973.473022C1196.708450 954.643448,1207.289169 929.106308,1207.289169 902.475235Z" style="stroke:rgb(25.500488%,41.000366%,88.400269%); stroke-width: 2.500000;stroke-linecap: round;stroke-linejoin: round;stroke-miterlimit: 10.000000;fill: none;"></path>
  <path d="M1383.541840 885.476715C1383.541840 858.845642,1372.961121 833.308502,1354.131531 814.478928C1335.301956 795.649338,1309.764816 785.068619,1283.133743 785.068619C1256.502670 785.068619,1230.965530 795.649338,1212.135956 814.478928C1193.306366 833.308502,1182.725647 858.845642,1182.725647 885.476715C1182.725647 912.107788,1193.306366 937.644928,1212.135956 956.474503C1230.965530 975.304092,1256.502670 985.884811,1283.133743 985.884811C1309.764816 985.884811,1335.301956 975.304092,1354.131531 956.474503C1372.961121 937.644928,1383.541840 912.107788,1383.541840 885.476715Z" style="stroke:rgb(25.500488%,41.000366%,88.400269%); stroke-width: 2.500000;stroke-linecap: round;stroke-linejoin: round;stroke-miterlimit: 10.000000;fill: none;"></path>
  <path d="M1563.012558 876.717926C1563.012558 850.086853,1552.431839 824.549713,1533.602249 805.720139C1514.772675 786.890549,1489.235535 776.309830,1462.604462 776.309830C1435.973389 776.309830,1410.436249 786.890549,1391.606674 805.720139C1372.777084 824.549713,1362.196365 850.086853,1362.196365 876.717926C1362.196365 903.348999,1372.777084 928.886139,1391.606674 947.715714C1410.436249 966.545303,1435.973389 977.126022,1462.604462 977.126022C1489.235535 977.126022,1514.772675 966.545303,1533.602249 947.715714C1552.431839 928.886139,1563.012558 903.348999,1563.012558 876.717926Z" style="stroke:rgb(25.500488%,41.000366%,88.400269%); stroke-width: 2.500000;stroke-linecap: round;stroke-linejoin: round;stroke-miterlimit: 10.000000;fill: none;"></path>
  <path d="M1740.536880 867.401184C1740.536880 840.770111,1729.956161 815.232971,1711.126572 796.403397C1692.296997 777.573807,1666.759857 766.993088,1640.128784 766.993088C1613.497711 766.993088,1587.960571 777.573807,1569.130997 796.403397C1550.301407 815.232971,1539.720688 840.770111,1539.720688 867.401184C1539.720688 894.032257,1550.301407 919.569397,1569.130997 938.398972C1587.960571 957.228561,1613.497711 967.809280,1640.128784 967.809280C1666.759857 967.809280,1692.296997 957.228561,1711.126572 938.398972C1729.956161 919.569397,1740.536880 894.032257,1740.536880 867.401184Z" style="stroke:rgb(25.500488%,41.000366%,88.400269%); stroke-width: 2.500000;stroke-linecap: round;stroke-linejoin: round;stroke-miterlimit: 10.000000;fill: none;"></path>
  <path d="M256.409698 806.232437C256.409698 779.601364,245.828979 754.064224,226.999390 735.234650C208.169815 716.405060,182.632675 705.824341,156.001602 705.824341C129.370529 705.824341,103.833389 716.405060,85.003815 735.234650C66.174225 754.064224,55.593506 779.601364,55.593506 806.232437C55.593506 832.863510,66.174225 858.400650,85.003815 877.230225C103.833389 896.059814,129.370529 906.640533,156.001602 906.640533C182.632675 906.640533,208.169815 896.059814,226.999390 877.230225C245.828979 858.400650,256.409698 832.863510,256.409698 806.232437Z" style="stroke:rgb(25.500488%,41.000366%,88.400269%); stroke-width: 2.500000;stroke-linecap: round;stroke-linejoin: round;stroke-miterlimit: 10.000000;fill: none;"></path>
  <path d="M419.634491 783.796967C419.634491 757.165894,409.053772 731.628754,390.224182 712.799179C371.394608 693.969589,345.857468 683.388870,319.226395 683.388870C292.595322 683.388870,267.058182 693.969589,248.228607 712.799179C229.399017 731.628754,218.818298 757.165894,218.818298 783.796967C218.818298 810.428040,229.399017 835.965179,248.228607 854.794754C267.058182 873.624344,292.595322 884.205063,319.226395 884.205063C345.857468 884.205063,371.394608 873.624344,390.224182 854.794754C409.053772 835.965179,419.634491 810.428040,419.634491 783.796967Z" style="stroke:rgb(25.500488%,41.000366%,88.400269%); stroke-width: 2.500000;stroke-linecap: round;stroke-linejoin: round;stroke-miterlimit: 10.000000;fill: none;"></path>
  <path d="M586.297913 769.030304C586.297913 742.399231,575.717194 716.862091,556.887604 698.032516C538.058029 679.202927,512.520889 668.622208,485.889816 668.622208C459.258743 668.622208,433.721603 679.202927,414.892029 698.032516C396.062439 716.862091,385.481720 742.399231,385.481720 769.030304C385.481720 795.661377,396.062439 821.198517,414.892029 840.028091C433.721603 858.857681,459.258743 869.438400,485.889816 869.438400C512.520889 869.438400,538.058029 858.857681,556.887604 840.028091C575.717194 821.198517,586.297913 795.661377,586.297913 769.030304Z" style="stroke:rgb(25.500488%,41.000366%,88.400269%); stroke-width: 2.500000;stroke-linecap: round;stroke-linejoin: round;stroke-miterlimit: 10.000000;fill: none;"></path>
  <path d="M759.280640 765.124542C759.280640 738.493469,748.699921 712.956329,729.870331 694.126755C711.040756 675.297165,685.503616 664.716446,658.872543 664.716446C632.241470 664.716446,606.704330 675.297165,587.874756 694.126755C569.045166 712.956329,558.464447 738.493469,558.464447 765.124542C558.464447 791.755615,569.045166 817.292755,587.874756 836.122330C606.704330 854.951920,632.241470 865.532639,658.872543 865.532639C685.503616 865.532639,711.040756 854.951920,729.870331 836.122330C748.699921 817.292755,759.280640 791.755615,759.280640 765.124542Z" style="stroke:rgb(25.500488%,41.000366%,88.400269%); stroke-width: 2.500000;stroke-linecap: round;stroke-linejoin: round;stroke-miterlimit: 10.000000;fill: none;"></path>
  <path d="M934.767731 769.510422C934.767731 742.879349,924.187012 717.342209,905.357422 698.512634C886.527847 679.683044,860.990707 669.102325,834.359634 669.102325C807.728561 669.102325,782.191422 679.683044,763.361847 698.512634C744.532257 717.342209,733.951538 742.879349,733.951538 769.510422C733.951538 796.141495,744.532257 821.678635,763.361847 840.508209C782.191422 859.337799,807.728561 869.918518,834.359634 869.918518C860.990707 869.918518,886.527847 859.337799,905.357422 840.508209C924.187012 821.678635,934.767731 796.141495,934.767731 769.510422Z" style="stroke:rgb(25.500488%,41.000366%,88.400269%); stroke-width: 2.500000;stroke-linecap: round;stroke-linejoin: round;stroke-miterlimit: 10.000000;fill: none;"></path>
  <path d="M1096.396484 765.397034C1096.396484 738.765961,1085.815765 713.228821,1066.986176 694.399246C1048.156601 675.569656,1022.619461 664.988937,995.988388 664.988937C969.357315 664.988937,943.820175 675.569656,924.990601 694.399246C906.161011 713.228821,895.580292 738.765961,895.580292 765.397034C895.580292 792.028107,906.161011 817.565247,924.990601 836.394821C943.820175 855.224411,969.357315 865.805130,995.988388 865.805130C1022.619461 865.805130,1048.156601 855.224411,1066.986176 836.394821C1085.815765 817.565247,1096.396484 792.028107,1096.396484 765.397034Z" style="stroke:rgb(25.500488%,41.000366%,88.400269%); stroke-width: 2.500000;stroke-linecap: round;stroke-linejoin: round;stroke-miterlimit: 10.000000;fill: none;"></path>
  <path d="M1272.778915 748.061127C1272.778915 721.430054,1262.198196 695.892914,1243.368607 677.063339C1224.539032 658.233749,1199.001892 647.653030,1172.370819 647.653030C1145.739746 647.653030,1120.202606 658.233749,1101.373032 677.063339C1082.543442 695.892914,1071.962723 721.430054,1071.962723 748.061127C1071.962723 774.692200,1082.543442 800.229340,1101.373032 819.058914C1120.202606 837.888504,1145.739746 848.469223,1172.370819 848.469223C1199.001892 848.469223,1224.539032 837.888504,1243.368607 819.058914C1262.198196 800.229340,1272.778915 774.692200,1272.778915 748.061127Z" style="stroke:rgb(25.500488%,41.000366%,88.400269%); stroke-width: 2.500000;stroke-linecap: round;stroke-linejoin: round;stroke-miterlimit: 10.000000;fill: none;"></path>
  <path d="M1453.002243 737.563568C1453.002243 710.932495,1442.421524 685.395355,1423.591934 666.565781C1404.762360 647.736191,1379.225220 637.155472,1352.594147 637.155472C1325.963074 637.155472,1300.425934 647.736191,1281.596359 666.565781C1262.766769 685.395355,1252.186050 710.932495,1252.186050 737.563568C1252.186050 764.194641,1262.766769 789.731781,1281.596359 808.561356C1300.425934 827.390945,1325.963074 837.971664,1352.594147 837.971664C1379.225220 837.971664,1404.762360 827.390945,1423.591934 808.561356C1442.421524 789.731781,1453.002243 764.194641,1453.002243 737.563568Z" style="stroke:rgb(25.500488%,41.000366%,88.400269%); stroke-width: 2.500000;stroke-linecap: round;stroke-linejoin: round;stroke-miterlimit: 10.000000;fill: none;"></path>
  <path d="M1631.227264 726.650772C1631.227264 700.019699,1620.646545 674.482559,1601.816956 655.652985C1582.987381 636.823395,1557.450241 626.242676,1530.819168 626.242676C1504.188095 626.242676,1478.650955 636.823395,1459.821381 655.652985C1440.991791 674.482559,1430.411072 700.019699,1430.411072 726.650772C1430.411072 753.281845,1440.991791 778.818985,1459.821381 797.648560C1478.650955 816.478149,1504.188095 827.058868,1530.819168 827.058868C1557.450241 827.058868,1582.987381 816.478149,1601.816956 797.648560C1620.646545 778.818985,1631.227264 753.281845,1631.227264 726.650772Z" style="stroke:rgb(25.500488%,41.000366%,88.400269%); stroke-width: 2.500000;stroke-linecap: round;stroke-linejoin: round;stroke-miterlimit: 10.000000;fill: none;"></path>
  <path d="M1794.036835 708.964523C1794.036835 682.333450,1783.456116 656.796310,1764.626526 637.966736C1745.796951 619.137146,1720.259811 608.556427,1693.628738 608.556427C1666.997665 608.556427,1641.460526 619.137146,1622.630951 637.966736C1603.801361 656.796310,1593.220642 682.333450,1593.220642 708.964523C1593.220642 735.595596,1603.801361 761.132736,1622.630951 779.962311C1641.460526 798.791901,1666.997665 809.372620,1693.628738 809.372620C1720.259811 809.372620,1745.796951 798.791901,1764.626526 779.962311C1783.456116 761.132736,1794.036835 735.595596,1794.036835 708.964523Z" style="stroke:rgb(25.500488%,41.000366%,88.400269%); stroke-width: 2.500000;stroke-linecap: round;stroke-linejoin: round;stroke-miterlimit: 10.000000;fill: none;"></path>
  <path d="M295.298691 675.434601C295.298691 648.803528,284.717972 623.266388,265.888382 604.436813C247.058807 585.607224,221.521667 575.026505,194.890594 575.026505C168.259521 575.026505,142.722382 585.607224,123.892807 604.436813C105.063217 623.266388,94.482498 648.803528,94.482498 675.434601C94.482498 702.065674,105.063217 727.602814,123.892807 746.432388C142.722382 765.261978,168.259521 775.842697,194.890594 775.842697C221.521667 775.842697,247.058807 765.261978,265.888382 746.432388C284.717972 727.602814,295.298691 702.065674,295.298691 675.434601Z" style="stroke:rgb(25.500488%,41.000366%,88.400269%); stroke-width: 2.500000;stroke-linecap: round;stroke-linejoin: round;stroke-miterlimit: 10.000000;fill: none;"></path>
  <path d="M475.158691 625.827438C475.158691 599.196365,464.577972 573.659225,445.748383 554.829651C426.918808 536.000061,401.381668 525.419342,374.750595 525.419342C348.119522 525.419342,322.582382 536.000061,303.752808 554.829651C284.923218 573.659225,274.342499 599.196365,274.342499 625.827438C274.342499 652.458511,284.923218 677.995651,303.752808 696.825226C322.582382 715.654816,348.119522 726.235535,374.750595 726.235535C401.381668 726.235535,426.918808 715.654816,445.748383 696.825226C464.577972 677.995651,475.158691 652.458511,475.158691 625.827438Z" style="stroke:rgb(25.500488%,41.000366%,88.400269%); stroke-width: 2.500000;stroke-linecap: round;stroke-linejoin: round;stroke-miterlimit: 10.000000;fill: none;"></path>
  <path d="M655.628555 628.007401C655.628555 601.376328,645.047836 575.839188,626.218246 557.009613C607.388672 538.180023,581.851532 527.599304,555.220459 527.599304C528.589386 527.599304,503.052246 538.180023,484.222672 557.009613C465.393082 575.839188,454.812363 601.376328,454.812363 628.007401C454.812363 654.638474,465.393082 680.175613,484.222672 699.005188C503.052246 717.834778,528.589386 728.415497,555.220459 728.415497C581.851532 728.415497,607.388672 717.834778,626.218246 699.005188C645.047836 680.175613,655.628555 654.638474,655.628555 628.007401Z" style="stroke:rgb(25.500488%,41.000366%,88.400269%); stroke-width: 2.500000;stroke-linecap: round;stroke-linejoin: round;stroke-miterlimit: 10.000000;fill: none;"></path>
  <path d="M837.837204 618.703629C837.837204 592.072556,827.256485 566.535416,808.426895 547.705841C789.597321 528.876251,764.060181 518.295532,737.429108 518.295532C710.798035 518.295532,685.260895 528.876251,666.431320 547.705841C647.601730 566.535416,637.021011 592.072556,637.021011 618.703629C637.021011 645.334702,647.601730 670.871841,666.431320 689.701416C685.260895 708.531006,710.798035 719.111725,737.429108 719.111725C764.060181 719.111725,789.597321 708.531006,808.426895 689.701416C827.256485 670.871841,837.837204 645.334702,837.837204 618.703629Z" style="stroke:rgb(25.500488%,41.000366%,88.400269%); stroke-width: 2.500000;stroke-linecap: round;stroke-linejoin: round;stroke-miterlimit: 10.000000;fill: none;"></path>
  <path d="M1003.657196 608.076309C1003.657196 581.445236,993.076477 555.908096,974.246887 537.078522C955.417313 518.248932,929.880173 507.668213,903.249100 507.668213C876.618027 507.668213,851.080887 518.248932,832.251312 537.078522C813.421722 555.908096,802.841003 581.445236,802.841003 608.076309C802.841003 634.707382,813.421722 660.244522,832.251312 679.074097C851.080887 697.903687,876.618027 708.484406,903.249100 708.484406C929.880173 708.484406,955.417313 697.903687,974.246887 679.074097C993.076477 660.244522,1003.657196 634.707382,1003.657196 608.076309Z" style="stroke:rgb(25.500488%,41.000366%,88.400269%); stroke-width: 2.500000;stroke-linecap: round;stroke-linejoin: round;stroke-miterlimit: 10.000000;fill: none;"></path>
  <path d="M1169.568008 609.892944C1169.568008 583.261871,1158.987289 557.724731,1140.157700 538.895157C1121.328125 520.065567,1095.790985 509.484848,1069.159912 509.484848C1042.528839 509.484848,1016.991699 520.065567,998.162125 538.895157C979.332535 557.724731,968.751816 583.261871,968.751816 609.892944C968.751816 636.524017,979.332535 662.061157,998.162125 680.890732C1016.991699 699.720322,1042.528839 710.301041,1069.159912 710.301041C1095.790985 710.301041,1121.328125 699.720322,1140.157700 680.890732C1158.987289 662.061157,1169.568008 636.524017,1169.568008 609.892944Z" style="stroke:rgb(25.500488%,41.000366%,88.400269%); stroke-width: 2.500000;stroke-linecap: round;stroke-linejoin: round;stroke-miterlimit: 10.000000;fill: none;"></path>
  <path d="M1351.971298 602.885925C1351.971298 576.254852,1341.390579 550.717712,1322.560989 531.888138C1303.731415 513.058548,1278.194275 502.477829,1251.563202 502.477829C1224.932129 502.477829,1199.394989 513.058548,1180.565414 531.888138C1161.735825 550.717712,1151.155106 576.254852,1151.155106 602.885925C1151.155106 629.516998,1161.735825 655.054138,1180.565414 673.883713C1199.394989 692.713303,1224.932129 703.294022,1251.563202 703.294022C1278.194275 703.294022,1303.731415 692.713303,1322.560989 673.883713C1341.390579 655.054138,1351.971298 629.516998,1351.971298 602.885925Z" style="stroke:rgb(25.500488%,41.000366%,88.400269%); stroke-width: 2.500000;stroke-linecap: round;stroke-linejoin: round;stroke-miterlimit: 10.000000;fill: none;"></path>
  <path d="M1534.997437 590.364105C1534.997437 563.733032,1524.416718 538.195892,1505.587128 519.366318C1486.757553 500.536728,1461.220413 489.956009,1434.589340 489.956009C1407.958267 489.956009,1382.421127 500.536728,1363.591553 519.366318C1344.761963 538.195892,1334.181244 563.733032,1334.181244 590.364105C1334.181244 616.995178,1344.761963 642.532318,1363.591553 661.361893C1382.421127 680.191483,1407.958267 690.772202,1434.589340 690.772202C1461.220413 690.772202,1486.757553 680.191483,1505.587128 661.361893C1524.416718 642.532318,1534.997437 616.995178,1534.997437 590.364105Z" style="stroke:rgb(25.500488%,41.000366%,88.400269%); stroke-width: 2.500000;stroke-linecap: round;stroke-linejoin: round;stroke-miterlimit: 10.000000;fill: none;"></path>
  <path d="M1703.892731 559.662949C1703.892731 533.031876,1693.312012 507.494736,1674.482422 488.665161C1655.652847 469.835571,1630.115707 459.254852,1603.484634 459.254852C1576.853561 459.254852,1551.316422 469.835571,1532.486847 488.665161C1513.657257 507.494736,1503.076538 533.031876,1503.076538 559.662949C1503.076538 586.294022,1513.657257 611.831161,1532.486847 630.660736C1551.316422 649.490326,1576.853561 660.071045,1603.484634 660.071045C1630.115707 660.071045,1655.652847 649.490326,1674.482422 630.660736C1693.312012 611.831161,1703.892731 586.294022,1703.892731 559.662949Z" style="stroke:rgb(25.500488%,41.000366%,88.400269%); stroke-width: 2.500000;stroke-linecap: round;stroke-linejoin: round;stroke-miterlimit: 10.000000;fill: none;"></path>
  <path d="M301.462280 546.868637C301.462280 520.237564,290.881561 494.700424,272.051971 475.870850C253.222397 457.041260,227.685257 446.460541,201.054184 446.460541C174.423111 446.460541,148.885971 457.041260,130.056396 475.870850C111.226807 494.700424,100.646088 520.237564,100.646088 546.868637C100.646088 573.499710,111.226807 599.036850,130.056396 617.866425C148.885971 636.696014,174.423111 647.276733,201.054184 647.276733C227.685257 647.276733,253.222397 636.696014,272.051971 617.866425C290.881561 599.036850,301.462280 573.499710,301.462280 546.868637Z" style="stroke:rgb(25.500488%,41.000366%,88.400269%); stroke-width: 2.500000;stroke-linecap: round;stroke-linejoin: round;stroke-miterlimit: 10.000000;fill: none;"></path>
  <path d="M403.077148 457.464157C403.077148 430.833084,392.496429 405.295944,373.666840 386.466370C354.837265 367.636780,329.300125 357.056061,302.669052 357.056061C276.037979 357.056061,250.500839 367.636780,231.671265 386.466370C212.841675 405.295944,202.260956 430.833084,202.260956 457.464157C202.260956 484.095230,212.841675 509.632370,231.671265 528.461945C250.500839 547.291534,276.037979 557.872253,302.669052 557.872253C329.300125 557.872253,354.837265 547.291534,373.666840 528.461945C392.496429 509.632370,403.077148 484.095230,403.077148 457.464157Z" style="stroke:rgb(25.500488%,41.000366%,88.400269%); stroke-width: 2.500000;stroke-linecap: round;stroke-linejoin: round;stroke-miterlimit: 10.000000;fill: none;"></path>
  <path d="M569.247482 485.816666C569.247482 459.185593,558.666763 433.648453,539.837173 414.818878C521.007599 395.989288,495.470459 385.408569,468.839386 385.408569C442.208313 385.408569,416.671173 395.989288,397.841599 414.818878C379.012009 433.648453,368.431290 459.185593,368.431290 485.816666C368.431290 512.447739,379.012009 537.984879,397.841599 556.814453C416.671173 575.644043,442.208313 586.224762,468.839386 586.224762C495.470459 586.224762,521.007599 575.644043,539.837173 556.814453C558.666763 537.984879,569.247482 512.447739,569.247482 485.816666Z" style="stroke:rgb(25.500488%,41.000366%,88.400269%); stroke-width: 2.500000;stroke-linecap: round;stroke-linejoin: round;stroke-miterlimit: 10.000000;fill: none;"></path>
  <path d="M749.457825 481.171265C749.457825 454.540192,738.877106 429.003052,720.047516 410.173477C701.217941 391.343887,675.680801 380.763168,649.049728 380.763168C622.418655 380.763168,596.881516 391.343887,578.051941 410.173477C559.222351 429.003052,548.641632 454.540192,548.641632 481.171265C548.641632 507.802338,559.222351 533.339478,578.051941 552.169052C596.881516 570.998642,622.418655 581.579361,649.049728 581.579361C675.680801 581.579361,701.217941 570.998642,720.047516 552.169052C738.877106 533.339478,749.457825 507.802338,749.457825 481.171265Z" style="stroke:rgb(25.500488%,41.000366%,88.400269%); stroke-width: 2.500000;stroke-linecap: round;stroke-linejoin: round;stroke-miterlimit: 10.000000;fill: none;"></path>
  <path d="M921.999374 456.828339C921.999374 430.197266,911.418655 404.660126,892.589066 385.830551C873.759491 367.000961,848.222351 356.420242,821.591278 356.420242C794.960205 356.420242,769.423065 367.000961,750.593491 385.830551C731.763901 404.660126,721.183182 430.197266,721.183182 456.828339C721.183182 483.459412,731.763901 508.996552,750.593491 527.826126C769.423065 546.655716,794.960205 557.236435,821.591278 557.236435C848.222351 557.236435,873.759491 546.655716,892.589066 527.826126C911.418655 508.996552,921.999374 483.459412,921.999374 456.828339Z" style="stroke:rgb(25.500488%,41.000366%,88.400269%); stroke-width: 2.500000;stroke-linecap: round;stroke-linejoin: round;stroke-miterlimit: 10.000000;fill: none;"></path>
  <path d="M1079.073563 452.338654C1079.073563 425.707581,1068.492844 400.170441,1049.663254 381.340866C1030.833679 362.511276,1005.296539 351.930557,978.665466 351.930557C952.034393 351.930557,926.497253 362.511276,907.667679 381.340866C888.838089 400.170441,878.257370 425.707581,878.257370 452.338654C878.257370 478.969727,888.838089 504.506866,907.667679 523.336441C926.497253 542.166031,952.034393 552.746750,978.665466 552.746750C1005.296539 552.746750,1030.833679 542.166031,1049.663254 523.336441C1068.492844 504.506866,1079.073563 478.969727,1079.073563 452.338654Z" style="stroke:rgb(25.500488%,41.000366%,88.400269%); stroke-width: 2.500000;stroke-linecap: round;stroke-linejoin: round;stroke-miterlimit: 10.000000;fill: none;"></path>
  <path d="M1251.005234 464.510117C1251.005234 437.879044,1240.424515 412.341904,1221.594925 393.512329C1202.765350 374.682739,1177.228210 364.102020,1150.597137 364.102020C1123.966064 364.102020,1098.428925 374.682739,1079.599350 393.512329C1060.769760 412.341904,1050.189041 437.879044,1050.189041 464.510117C1050.189041 491.141190,1060.769760 516.678329,1079.599350 535.507904C1098.428925 554.337494,1123.966064 564.918213,1150.597137 564.918213C1177.228210 564.918213,1202.765350 554.337494,1221.594925 535.507904C1240.424515 516.678329,1251.005234 491.141190,1251.005234 464.510117Z" style="stroke:rgb(25.500488%,41.000366%,88.400269%); stroke-width: 2.500000;stroke-linecap: round;stroke-linejoin: round;stroke-miterlimit: 10.000000;fill: none;"></path>
  <path d="M1436.405975 463.965134C1436.405975 437.334061,1425.825256 411.796921,1406.995667 392.967346C1388.166092 374.137756,1362.628952 363.557037,1335.997879 363.557037C1309.366806 363.557037,1283.829666 374.137756,1265.000092 392.967346C1246.170502 411.796921,1235.589783 437.334061,1235.589783 463.965134C1235.589783 490.596207,1246.170502 516.133347,1265.000092 534.962921C1283.829666 553.792511,1309.366806 564.373230,1335.997879 564.373230C1362.628952 564.373230,1388.166092 553.792511,1406.995667 534.962921C1425.825256 516.133347,1436.405975 490.596207,1436.405975 463.965134Z" style="stroke:rgb(25.500488%,41.000366%,88.400269%); stroke-width: 2.500000;stroke-linecap: round;stroke-linejoin: round;stroke-miterlimit: 10.000000;fill: none;"></path>
  <path d="M1622.974548 444.617950C1622.974548 417.986877,1612.393829 392.449738,1593.564240 373.620163C1574.734665 354.790573,1549.197525 344.209854,1522.566452 344.209854C1495.935379 344.209854,1470.398239 354.790573,1451.568665 373.620163C1432.739075 392.449738,1422.158356 417.986877,1422.158356 444.617950C1422.158356 471.249023,1432.739075 496.786163,1451.568665 515.615738C1470.398239 534.445328,1495.935379 545.026047,1522.566452 545.026047C1549.197525 545.026047,1574.734665 534.445328,1593.564240 515.615738C1612.393829 496.786163,1622.974548 471.249023,1622.974548 444.617950Z" style="stroke:rgb(25.500488%,41.000366%,88.400269%); stroke-width: 2.500000;stroke-linecap: round;stroke-linejoin: round;stroke-miterlimit: 10.000000;fill: none;"></path>
  <path d="M477.221863 344.767822C477.221863 318.136749,466.641144 292.599609,447.811554 273.770035C428.981979 254.940445,403.444839 244.359726,376.813766 244.359726C350.182693 244.359726,324.645554 254.940445,305.815979 273.770035C286.986389 292.599609,276.405670 318.136749,276.405670 344.767822C276.405670 371.398895,286.986389 396.936035,305.815979 415.765610C324.645554 434.595200,350.182693 445.175919,376.813766 445.175919C403.444839 445.175919,428.981979 434.595200,447.811554 415.765610C466.641144 396.936035,477.221863 371.398895,477.221863 344.767822Z" style="stroke:rgb(25.500488%,41.000366%,88.400269%); stroke-width: 2.500000;stroke-linecap: round;stroke-linejoin: round;stroke-miterlimit: 10.000000;fill: none;"></path>
  <path d="M658.003159 338.876724C658.003159 312.245651,647.422440 286.708511,628.592850 267.878937C609.763275 249.049347,584.226135 238.468628,557.595062 238.468628C530.963989 238.468628,505.426849 249.049347,486.597275 267.878937C467.767685 286.708511,457.186966 312.245651,457.186966 338.876724C457.186966 365.507797,467.767685 391.044937,486.597275 409.874512C505.426849 428.704102,530.963989 439.284821,557.595062 439.284821C584.226135 439.284821,609.763275 428.704102,628.592850 409.874512C647.422440 391.044937,658.003159 365.507797,658.003159 338.876724Z" style="stroke:rgb(25.500488%,41.000366%,88.400269%); stroke-width: 2.500000;stroke-linecap: round;stroke-linejoin: round;stroke-miterlimit: 10.000000;fill: none;"></path>
  <path d="M828.533432 319.179199C828.533432 292.548126,817.952713 267.010986,799.123123 248.181412C780.293549 229.351822,754.756409 218.771103,728.125336 218.771103C701.494263 218.771103,675.957123 229.351822,657.127548 248.181412C638.297958 267.010986,627.717239 292.548126,627.717239 319.179199C627.717239 345.810272,638.297958 371.347412,657.127548 390.176987C675.957123 409.006577,701.494263 419.587296,728.125336 419.587296C754.756409 419.587296,780.293549 409.006577,799.123123 390.176987C817.952713 371.347412,828.533432 345.810272,828.533432 319.179199Z" style="stroke:rgb(25.500488%,41.000366%,88.400269%); stroke-width: 2.500000;stroke-linecap: round;stroke-linejoin: round;stroke-miterlimit: 10.000000;fill: none;"></path>
  <path d="M994.976257 291.760956C994.976257 265.129883,984.395538 239.592743,965.565948 220.763168C946.736374 201.933578,921.199234 191.352859,894.568161 191.352859C867.937088 191.352859,842.399948 201.933578,823.570374 220.763168C804.740784 239.592743,794.160065 265.129883,794.160065 291.760956C794.160065 318.392029,804.740784 343.929169,823.570374 362.758743C842.399948 381.588333,867.937088 392.169052,894.568161 392.169052C921.199234 392.169052,946.736374 381.588333,965.565948 362.758743C984.395538 343.929169,994.976257 318.392029,994.976257 291.760956Z" style="stroke:rgb(25.500488%,41.000366%,88.400269%); stroke-width: 2.500000;stroke-linecap: round;stroke-linejoin: round;stroke-miterlimit: 10.000000;fill: none;"></path>
  <path d="M1161.743500 306.864990C1161.743500 280.233917,1151.162781 254.696777,1132.333191 235.867203C1113.503616 217.037613,1087.966476 206.456894,1061.335403 206.456894C1034.704330 206.456894,1009.167191 217.037613,990.337616 235.867203C971.508026 254.696777,960.927307 280.233917,960.927307 306.864990C960.927307 333.496063,971.508026 359.033203,990.337616 377.862778C1009.167191 396.692368,1034.704330 407.273087,1061.335403 407.273087C1087.966476 407.273087,1113.503616 396.692368,1132.333191 377.862778C1151.162781 359.033203,1161.743500 333.496063,1161.743500 306.864990Z" style="stroke:rgb(25.500488%,41.000366%,88.400269%); stroke-width: 2.500000;stroke-linecap: round;stroke-linejoin: round;stroke-miterlimit: 10.000000;fill: none;"></path>
  <path d="M1336.659653 325.511475C1336.659653 298.880402,1326.078934 273.343262,1307.249344 254.513687C1288.419769 235.684097,1262.882629 225.103378,1236.251556 225.103378C1209.620483 225.103378,1184.083344 235.684097,1165.253769 254.513687C1146.424179 273.343262,1135.843460 298.880402,1135.843460 325.511475C1135.843460 352.142548,1146.424179 377.679688,1165.253769 396.509262C1184.083344 415.338852,1209.620483 425.919571,1236.251556 425.919571C1262.882629 425.919571,1288.419769 415.338852,1307.249344 396.509262C1326.078934 377.679688,1336.659653 352.142548,1336.659653 325.511475Z" style="stroke:rgb(25.500488%,41.000366%,88.400269%); stroke-width: 2.500000;stroke-linecap: round;stroke-linejoin: round;stroke-miterlimit: 10.000000;fill: none;"></path>
  <path d="M1522.293945 325.537415C1522.293945 298.906342,1511.713226 273.369202,1492.883636 254.539627C1474.054062 235.710037,1448.516922 225.129318,1421.885849 225.129318C1395.254776 225.129318,1369.717636 235.710037,1350.888062 254.539627C1332.058472 273.369202,1321.477753 298.906342,1321.477753 325.537415C1321.477753 352.168488,1332.058472 377.705627,1350.888062 396.535202C1369.717636 415.364792,1395.254776 425.945511,1421.885849 425.945511C1448.516922 425.945511,1474.054062 415.364792,1492.883636 396.535202C1511.713226 377.705627,1522.293945 352.168488,1522.293945 325.537415Z" style="stroke:rgb(25.500488%,41.000366%,88.400269%); stroke-width: 2.500000;stroke-linecap: round;stroke-linejoin: round;stroke-miterlimit: 10.000000;fill: none;"></path>
  <path d="M567.378952 197.853821C567.378952 171.222748,556.798233 145.685608,537.968643 126.856033C519.139069 108.026443,493.601929 97.445724,466.970856 97.445724C440.339783 97.445724,414.802643 108.026443,395.973068 126.856033C377.143478 145.685608,366.562759 171.222748,366.562759 197.853821C366.562759 224.484894,377.143478 250.022034,395.973068 268.851608C414.802643 287.681198,440.339783 298.261917,466.970856 298.261917C493.601929 298.261917,519.139069 287.681198,537.968643 268.851608C556.798233 250.022034,567.378952 224.484894,567.378952 197.853821Z" style="stroke:rgb(25.500488%,41.000366%,88.400269%); stroke-width: 2.500000;stroke-linecap: round;stroke-linejoin: round;stroke-miterlimit: 10.000000;fill: none;"></path>
  <path d="M738.467178 176.871674C738.467178 150.240601,727.886459 124.703461,709.056870 105.873886C690.227295 87.044296,664.690155 76.463577,638.059082 76.463577C611.428009 76.463577,585.890869 87.044296,567.061295 105.873886C548.231705 124.703461,537.650986 150.240601,537.650986 176.871674C537.650986 203.502747,548.231705 229.039886,567.061295 247.869461C585.890869 266.699051,611.428009 277.279770,638.059082 277.279770C664.690155 277.279770,690.227295 266.699051,709.056870 247.869461C727.886459 229.039886,738.467178 203.502747,738.467178 176.871674Z" style="stroke:rgb(25.500488%,41.000366%,88.400269%); stroke-width: 2.500000;stroke-linecap: round;stroke-linejoin: round;stroke-miterlimit: 10.000000;fill: none;"></path>
  <path d="M871.769379 156.252838C871.769379 129.621765,861.188660 104.084625,842.359070 85.255051C823.529495 66.425461,797.992355 55.844742,771.361282 55.844742C744.730209 55.844742,719.193069 66.425461,700.363495 85.255051C681.533905 104.084625,670.953186 129.621765,670.953186 156.252838C670.953186 182.883911,681.533905 208.421051,700.363495 227.250626C719.193069 246.080215,744.730209 256.660934,771.361282 256.660934C797.992355 256.660934,823.529495 246.080215,842.359070 227.250626C861.188660 208.421051,871.769379 182.883911,871.769379 156.252838Z" style="stroke:rgb(25.500488%,41.000366%,88.400269%); stroke-width: 2.500000;stroke-linecap: round;stroke-linejoin: round;stroke-miterlimit: 10.000000;fill: none;"></path>
  <path d="M1114.822372 148.752731C1114.822372 122.121658,1104.241653 96.584518,1085.412064 77.754944C1066.582489 58.925354,1041.045349 48.344635,1014.414276 48.344635C987.783203 48.344635,962.246063 58.925354,943.416489 77.754944C924.586899 96.584518,914.006180 122.121658,914.006180 148.752731C914.006180 175.383804,924.586899 200.920944,943.416489 219.750519C962.246063 238.580109,987.783203 249.160828,1014.414276 249.160828C1041.045349 249.160828,1066.582489 238.580109,1085.412064 219.750519C1104.241653 200.920944,1114.822372 175.383804,1114.822372 148.752731Z" style="stroke:rgb(25.500488%,41.000366%,88.400269%); stroke-width: 2.500000;stroke-linecap: round;stroke-linejoin: round;stroke-miterlimit: 10.000000;fill: none;"></path>
  <path d="M1249.967148 167.710632C1249.967148 141.079559,1239.386429 115.542419,1220.556839 96.712845C1201.727264 77.883255,1176.190125 67.302536,1149.559052 67.302536C1122.927979 67.302536,1097.390839 77.883255,1078.561264 96.712845C1059.731674 115.542419,1049.150955 141.079559,1049.150955 167.710632C1049.150955 194.341705,1059.731674 219.878845,1078.561264 238.708420C1097.390839 257.538010,1122.927979 268.118729,1149.559052 268.118729C1176.190125 268.118729,1201.727264 257.538010,1220.556839 238.708420C1239.386429 219.878845,1249.967148 194.341705,1249.967148 167.710632Z" style="stroke:rgb(25.500488%,41.000366%,88.400269%); stroke-width: 2.500000;stroke-linecap: round;stroke-linejoin: round;stroke-miterlimit: 10.000000;fill: none;"></path>
  <path d="M1425.013062 186.941025C1425.013062 160.309952,1414.432343 134.772812,1395.602753 115.943237C1376.773178 97.113647,1351.236038 86.532928,1324.604965 86.532928C1297.973892 86.532928,1272.436752 97.113647,1253.607178 115.943237C1234.777588 134.772812,1224.196869 160.309952,1224.196869 186.941025C1224.196869 213.572098,1234.777588 239.109238,1253.607178 257.938812C1272.436752 276.768402,1297.973892 287.349121,1324.604965 287.349121C1351.236038 287.349121,1376.773178 276.768402,1395.602753 257.938812C1414.432343 239.109238,1425.013062 213.572098,1425.013062 186.941025Z" style="stroke:rgb(25.500488%,41.000366%,88.400269%); stroke-width: 2.500000;stroke-linecap: round;stroke-linejoin: round;stroke-miterlimit: 10.000000;fill: none;"></path>
  <path d="M995.313644 100.962219C995.313644 74.331146,984.732925 48.794006,965.903336 29.964432C947.073761 11.134842,921.536621 0.554123,894.905548 0.554123C868.274475 0.554123,842.737335 11.134842,823.907761 29.964432C805.078171 48.794006,794.497452 74.331146,794.497452 100.962219C794.497452 127.593292,805.078171 153.130432,823.907761 171.960007C842.737335 190.789597,868.274475 201.370316,894.905548 201.370316C921.536621 201.370316,947.073761 190.789597,965.903336 171.960007C984.732925 153.130432,995.313644 127.593292,995.313644 100.962219Z" style="stroke:rgb(25.500488%,41.000366%,88.400269%); stroke-width: 2.500000;stroke-linecap: round;stroke-linejoin: round;stroke-miterlimit: 10.000000;fill: none;"></path>
</svg>
