<?xml version="1.0"?>
<!-- Created by MetaPost 2.00 on 2022.03.02:1201 -->
<svg version="1.1" xmlns="http://www.w3.org/2000/svg" xmlns:xlink="http://www.w3.org/1999/xlink" width="1751.051605" height="1776.315842" viewBox="0 0 1751.051605 1776.315842">
<!-- Original BoundingBox: -866.786484 -872.846268 884.265121 903.469574 -->
  <path d="M866.000000 52.606476L319.374054 251.567108L28.530548 755.333405L129.535538 1328.196762L575.143509 1702.112473L1156.856491 1702.112473L1602.464462 1328.196762L1703.469452 755.333405L1412.625946 251.567108L866.000000 52.606476Z" style="fill: rgb(100.000000%,100.000000%,100.000000%);stroke: none;"></path>
  <path d="M866.000000 52.606476L319.374054 251.567108" style="stroke:rgb(0.000000%,0.000000%,0.000000%); stroke-width: 2.500000;stroke-linecap: round;stroke-linejoin: round;stroke-miterlimit: 10.000000;fill: none;"></path>
  <path d="M319.374054 251.567108L28.530548 755.333405" style="stroke:rgb(0.000000%,0.000000%,0.000000%); stroke-width: 2.500000;stroke-linecap: round;stroke-linejoin: round;stroke-miterlimit: 10.000000;fill: none;"></path>
  <path d="M28.530548 755.333405L129.535538 1328.196762" style="stroke:rgb(0.000000%,0.000000%,0.000000%); stroke-width: 2.500000;stroke-linecap: round;stroke-linejoin: round;stroke-miterlimit: 10.000000;fill: none;"></path>
  <path d="M129.535538 1328.196762L575.143509 1702.112473" style="stroke:rgb(0.000000%,0.000000%,0.000000%); stroke-width: 2.500000;stroke-linecap: round;stroke-linejoin: round;stroke-miterlimit: 10.000000;fill: none;"></path>
  <path d="M575.143509 1702.112473L1156.856491 1702.112473" style="stroke:rgb(0.000000%,0.000000%,0.000000%); stroke-width: 2.500000;stroke-linecap: round;stroke-linejoin: round;stroke-miterlimit: 10.000000;fill: none;"></path>
  <path d="M1156.856491 1702.112473L1602.464462 1328.196762" style="stroke:rgb(0.000000%,0.000000%,0.000000%); stroke-width: 2.500000;stroke-linecap: round;stroke-linejoin: round;stroke-miterlimit: 10.000000;fill: none;"></path>
  <path d="M1602.464462 1328.196762L1703.469452 755.333405" style="stroke:rgb(0.000000%,0.000000%,0.000000%); stroke-width: 2.500000;stroke-linecap: round;stroke-linejoin: round;stroke-miterlimit: 10.000000;fill: none;"></path>
  <path d="M1703.469452 755.333405L1412.625946 251.567108" style="stroke:rgb(0.000000%,0.000000%,0.000000%); stroke-width: 2.500000;stroke-linecap: round;stroke-linejoin: round;stroke-miterlimit: 10.000000;fill: none;"></path>
  <path d="M1412.625946 251.567108L866.000000 52.606476" style="stroke:rgb(0.000000%,0.000000%,0.000000%); stroke-width: 2.500000;stroke-linecap: round;stroke-linejoin: round;stroke-miterlimit: 10.000000;fill: none;"></path>
  <path d="M1606.954147 450.359055C1606.954147 425.407486,1597.040695 401.480850,1579.398621 383.838760C1561.756531 366.196686,1537.829895 356.283234,1512.878326 356.283234C1487.926758 356.283234,1464.000122 366.196686,1446.358032 383.838760C1428.715958 401.480850,1418.802505 425.407486,1418.802505 450.359055C1418.802505 475.310623,1428.715958 499.237259,1446.358032 516.879349C1464.000122 534.521423,1487.926758 544.434875,1512.878326 544.434875C1537.829895 544.434875,1561.756531 534.521423,1579.398621 516.879349C1597.040695 499.237259,1606.954147 475.310623,1606.954147 450.359055Z" style="stroke:rgb(25.500488%,41.000366%,88.400269%); stroke-width: 2.500000;stroke-linecap: round;stroke-linejoin: round;stroke-miterlimit: 10.000000;fill: none;"></path>
  <path d="M1481.645157 334.639297C1481.645157 309.687729,1471.731705 285.761093,1454.089630 268.119003C1436.447540 250.476929,1412.520905 240.563477,1387.569336 240.563477C1362.617767 240.563477,1338.691132 250.476929,1321.049042 268.119003C1303.406967 285.761093,1293.493515 309.687729,1293.493515 334.639297C1293.493515 359.590866,1303.406967 383.517502,1321.049042 401.159592C1338.691132 418.801666,1362.617767 428.715118,1387.569336 428.715118C1412.520905 428.715118,1436.447540 418.801666,1454.089630 401.159592C1471.731705 383.517502,1481.645157 359.590866,1481.645157 334.639297Z" style="stroke:rgb(25.500488%,41.000366%,88.400269%); stroke-width: 2.500000;stroke-linecap: round;stroke-linejoin: round;stroke-miterlimit: 10.000000;fill: none;"></path>
  <path d="M1391.111771 279.478424C1391.111771 254.526855,1381.198318 230.600220,1363.556244 212.958130C1345.914154 195.316055,1321.987518 185.402603,1297.035950 185.402603C1272.084381 185.402603,1248.157745 195.316055,1230.515656 212.958130C1212.873581 230.600220,1202.960129 254.526855,1202.960129 279.478424C1202.960129 304.429993,1212.873581 328.356628,1230.515656 345.998718C1248.157745 363.640793,1272.084381 373.554245,1297.035950 373.554245C1321.987518 373.554245,1345.914154 363.640793,1363.556244 345.998718C1381.198318 328.356628,1391.111771 304.429993,1391.111771 279.478424Z" style="stroke:rgb(25.500488%,41.000366%,88.400269%); stroke-width: 2.500000;stroke-linecap: round;stroke-linejoin: round;stroke-miterlimit: 10.000000;fill: none;"></path>
  <path d="M1257.744690 178.447479C1257.744690 153.495911,1247.831238 129.569275,1230.189163 111.927185C1212.547073 94.285110,1188.620438 84.371658,1163.668869 84.371658C1138.717300 84.371658,1114.790665 94.285110,1097.148575 111.927185C1079.506500 129.569275,1069.593048 153.495911,1069.593048 178.447479C1069.593048 203.399048,1079.506500 227.325684,1097.148575 244.967773C1114.790665 262.609848,1138.717300 272.523300,1163.668869 272.523300C1188.620438 272.523300,1212.547073 262.609848,1230.189163 244.967773C1247.831238 227.325684,1257.744690 203.399048,1257.744690 178.447479Z" style="stroke:rgb(25.500488%,41.000366%,88.400269%); stroke-width: 2.500000;stroke-linecap: round;stroke-linejoin: round;stroke-miterlimit: 10.000000;fill: none;"></path>
  <path d="M1749.015121 713.680511C1749.015121 688.728943,1739.101669 664.802307,1721.459595 647.160217C1703.817505 629.518143,1679.890869 619.604691,1654.939301 619.604691C1629.987732 619.604691,1606.061096 629.518143,1588.419006 647.160217C1570.776932 664.802307,1560.863480 688.728943,1560.863480 713.680511C1560.863480 738.632080,1570.776932 762.558716,1588.419006 780.200806C1606.061096 797.842880,1629.987732 807.756332,1654.939301 807.756332C1679.890869 807.756332,1703.817505 797.842880,1721.459595 780.200806C1739.101669 762.558716,1749.015121 738.632080,1749.015121 713.680511Z" style="stroke:rgb(25.500488%,41.000366%,88.400269%); stroke-width: 2.500000;stroke-linecap: round;stroke-linejoin: round;stroke-miterlimit: 10.000000;fill: none;"></path>
  <path d="M1628.247726 611.637451C1628.247726 586.685883,1618.334274 562.759247,1600.692200 545.117157C1583.050110 527.475082,1559.123474 517.561630,1534.171906 517.561630C1509.220337 517.561630,1485.293701 527.475082,1467.651611 545.117157C1450.009537 562.759247,1440.096085 586.685883,1440.096085 611.637451C1440.096085 636.589020,1450.009537 660.515656,1467.651611 678.157745C1485.293701 695.799820,1509.220337 705.713272,1534.171906 705.713272C1559.123474 705.713272,1583.050110 695.799820,1600.692200 678.157745C1618.334274 660.515656,1628.247726 636.589020,1628.247726 611.637451Z" style="stroke:rgb(25.500488%,41.000366%,88.400269%); stroke-width: 2.500000;stroke-linecap: round;stroke-linejoin: round;stroke-miterlimit: 10.000000;fill: none;"></path>
  <path d="M1488.016357 511.034714C1488.016357 486.083145,1478.102905 462.156509,1460.460831 444.514420C1442.818741 426.872345,1418.892105 416.958893,1393.940536 416.958893C1368.988968 416.958893,1345.062332 426.872345,1327.420242 444.514420C1309.778168 462.156509,1299.864716 486.083145,1299.864716 511.034714C1299.864716 535.986282,1309.778168 559.912918,1327.420242 577.555008C1345.062332 595.197083,1368.988968 605.110535,1393.940536 605.110535C1418.892105 605.110535,1442.818741 595.197083,1460.460831 577.555008C1478.102905 559.912918,1488.016357 535.986282,1488.016357 511.034714Z" style="stroke:rgb(25.500488%,41.000366%,88.400269%); stroke-width: 2.500000;stroke-linecap: round;stroke-linejoin: round;stroke-miterlimit: 10.000000;fill: none;"></path>
  <path d="M1358.645874 414.895706C1358.645874 389.944138,1348.732422 366.017502,1331.090347 348.375412C1313.448257 330.733337,1289.521622 320.819885,1264.570053 320.819885C1239.618484 320.819885,1215.691849 330.733337,1198.049759 348.375412C1180.407684 366.017502,1170.494232 389.944138,1170.494232 414.895706C1170.494232 439.847275,1180.407684 463.773911,1198.049759 481.416000C1215.691849 499.058075,1239.618484 508.971527,1264.570053 508.971527C1289.521622 508.971527,1313.448257 499.058075,1331.090347 481.416000C1348.732422 463.773911,1358.645874 439.847275,1358.645874 414.895706Z" style="stroke:rgb(25.500488%,41.000366%,88.400269%); stroke-width: 2.500000;stroke-linecap: round;stroke-linejoin: round;stroke-miterlimit: 10.000000;fill: none;"></path>
  <path d="M1220.698288 316.200439C1220.698288 291.248871,1210.784836 267.322235,1193.142761 249.680145C1175.500671 232.038071,1151.574036 222.124619,1126.622467 222.124619C1101.670898 222.124619,1077.744263 232.038071,1060.102173 249.680145C1042.460098 267.322235,1032.546646 291.248871,1032.546646 316.200439C1032.546646 341.152008,1042.460098 365.078644,1060.102173 382.720734C1077.744263 400.362808,1101.670898 410.276260,1126.622467 410.276260C1151.574036 410.276260,1175.500671 400.362808,1193.142761 382.720734C1210.784836 365.078644,1220.698288 341.152008,1220.698288 316.200439Z" style="stroke:rgb(25.500488%,41.000366%,88.400269%); stroke-width: 2.500000;stroke-linecap: round;stroke-linejoin: round;stroke-miterlimit: 10.000000;fill: none;"></path>
  <path d="M1101.137650 187.842087C1101.137650 162.890518,1091.224197 138.963882,1073.582123 121.321793C1055.940033 103.679718,1032.013397 93.766266,1007.061829 93.766266C982.110260 93.766266,958.183624 103.679718,940.541534 121.321793C922.899460 138.963882,912.986008 162.890518,912.986008 187.842087C912.986008 212.793655,922.899460 236.720291,940.541534 254.362381C958.183624 272.004456,982.110260 281.917908,1007.061829 281.917908C1032.013397 281.917908,1055.940033 272.004456,1073.582123 254.362381C1091.224197 236.720291,1101.137650 212.793655,1101.137650 187.842087Z" style="stroke:rgb(25.500488%,41.000366%,88.400269%); stroke-width: 2.500000;stroke-linecap: round;stroke-linejoin: round;stroke-miterlimit: 10.000000;fill: none;"></path>
  <path d="M985.781235 94.856247C985.781235 69.904678,975.867783 45.978043,958.225708 28.335953C940.583618 10.693878,916.656982 0.780426,891.705414 0.780426C866.753845 0.780426,842.827209 10.693878,825.185120 28.335953C807.543045 45.978043,797.629593 69.904678,797.629593 94.856247C797.629593 119.807816,807.543045 143.734451,825.185120 161.376541C842.827209 179.018616,866.753845 188.932068,891.705414 188.932068C916.656982 188.932068,940.583618 179.018616,958.225708 161.376541C975.867783 143.734451,985.781235 119.807816,985.781235 94.856247Z" style="stroke:rgb(25.500488%,41.000366%,88.400269%); stroke-width: 2.500000;stroke-linecap: round;stroke-linejoin: round;stroke-miterlimit: 10.000000;fill: none;"></path>
  <path d="M1728.980225 870.015076C1728.980225 845.063507,1719.066772 821.136871,1701.424698 803.494781C1683.782608 785.852707,1659.855972 775.939255,1634.904404 775.939255C1609.952835 775.939255,1586.026199 785.852707,1568.384109 803.494781C1550.742035 821.136871,1540.828583 845.063507,1540.828583 870.015076C1540.828583 894.966644,1550.742035 918.893280,1568.384109 936.535370C1586.026199 954.177444,1609.952835 964.090897,1634.904404 964.090897C1659.855972 964.090897,1683.782608 954.177444,1701.424698 936.535370C1719.066772 918.893280,1728.980225 894.966644,1728.980225 870.015076Z" style="stroke:rgb(25.500488%,41.000366%,88.400269%); stroke-width: 2.500000;stroke-linecap: round;stroke-linejoin: round;stroke-miterlimit: 10.000000;fill: none;"></path>
  <path d="M1598.973923 776.639954C1598.973923 751.688385,1589.060471 727.761749,1571.418396 710.119659C1553.776306 692.477585,1529.849670 682.564133,1504.898102 682.564133C1479.946533 682.564133,1456.019897 692.477585,1438.377808 710.119659C1420.735733 727.761749,1410.822281 751.688385,1410.822281 776.639954C1410.822281 801.591522,1420.735733 825.518158,1438.377808 843.160248C1456.019897 860.802322,1479.946533 870.715775,1504.898102 870.715775C1529.849670 870.715775,1553.776306 860.802322,1571.418396 843.160248C1589.060471 825.518158,1598.973923 801.591522,1598.973923 776.639954Z" style="stroke:rgb(25.500488%,41.000366%,88.400269%); stroke-width: 2.500000;stroke-linecap: round;stroke-linejoin: round;stroke-miterlimit: 10.000000;fill: none;"></path>
  <path d="M1479.543045 666.811295C1479.543045 641.859726,1469.629593 617.933090,1451.987518 600.291000C1434.345428 582.648926,1410.418793 572.735474,1385.467224 572.735474C1360.515656 572.735474,1336.589020 582.648926,1318.946930 600.291000C1301.304855 617.933090,1291.391403 641.859726,1291.391403 666.811295C1291.391403 691.762863,1301.304855 715.689499,1318.946930 733.331589C1336.589020 750.973663,1360.515656 760.887115,1385.467224 760.887115C1410.418793 760.887115,1434.345428 750.973663,1451.987518 733.331589C1469.629593 715.689499,1479.543045 691.762863,1479.543045 666.811295Z" style="stroke:rgb(25.500488%,41.000366%,88.400269%); stroke-width: 2.500000;stroke-linecap: round;stroke-linejoin: round;stroke-miterlimit: 10.000000;fill: none;"></path>
  <path d="M1338.001099 577.212189C1338.001099 552.260620,1328.087646 528.333984,1310.445572 510.691895C1292.803482 493.049820,1268.876846 483.136368,1243.925278 483.136368C1218.973709 483.136368,1195.047073 493.049820,1177.404984 510.691895C1159.762909 528.333984,1149.849457 552.260620,1149.849457 577.212189C1149.849457 602.163757,1159.762909 626.090393,1177.404984 643.732483C1195.047073 661.374557,1218.973709 671.288010,1243.925278 671.288010C1268.876846 671.288010,1292.803482 661.374557,1310.445572 643.732483C1328.087646 626.090393,1338.001099 602.163757,1338.001099 577.212189Z" style="stroke:rgb(25.500488%,41.000366%,88.400269%); stroke-width: 2.500000;stroke-linecap: round;stroke-linejoin: round;stroke-miterlimit: 10.000000;fill: none;"></path>
  <path d="M1209.603821 473.962357C1209.603821 449.010788,1199.690369 425.084152,1182.048294 407.442062C1164.406204 389.799988,1140.479568 379.886536,1115.528000 379.886536C1090.576431 379.886536,1066.649796 389.799988,1049.007706 407.442062C1031.365631 425.084152,1021.452179 449.010788,1021.452179 473.962357C1021.452179 498.913925,1031.365631 522.840561,1049.007706 540.482651C1066.649796 558.124725,1090.576431 568.038177,1115.528000 568.038177C1140.479568 568.038177,1164.406204 558.124725,1182.048294 540.482651C1199.690369 522.840561,1209.603821 498.913925,1209.603821 473.962357Z" style="stroke:rgb(25.500488%,41.000366%,88.400269%); stroke-width: 2.500000;stroke-linecap: round;stroke-linejoin: round;stroke-miterlimit: 10.000000;fill: none;"></path>
  <path d="M1086.786224 355.374908C1086.786224 330.423340,1076.872772 306.496704,1059.230698 288.854614C1041.588608 271.212540,1017.661972 261.299088,992.710403 261.299088C967.758835 261.299088,943.832199 271.212540,926.190109 288.854614C908.548035 306.496704,898.634583 330.423340,898.634583 355.374908C898.634583 380.326477,908.548035 404.253113,926.190109 421.895203C943.832199 439.537277,967.758835 449.450729,992.710403 449.450729C1017.661972 449.450729,1041.588608 439.537277,1059.230698 421.895203C1076.872772 404.253113,1086.786224 380.326477,1086.786224 355.374908Z" style="stroke:rgb(25.500488%,41.000366%,88.400269%); stroke-width: 2.500000;stroke-linecap: round;stroke-linejoin: round;stroke-miterlimit: 10.000000;fill: none;"></path>
  <path d="M958.609543 255.952988C958.609543 231.001419,948.696091 207.074783,931.054016 189.432693C913.411926 171.790619,889.485291 161.877167,864.533722 161.877167C839.582153 161.877167,815.655518 171.790619,798.013428 189.432693C780.371353 207.074783,770.457901 231.001419,770.457901 255.952988C770.457901 280.904556,780.371353 304.831192,798.013428 322.473282C815.655518 340.115356,839.582153 350.028809,864.533722 350.028809C889.485291 350.028809,913.411926 340.115356,931.054016 322.473282C948.696091 304.831192,958.609543 280.904556,958.609543 255.952988Z" style="stroke:rgb(25.500488%,41.000366%,88.400269%); stroke-width: 2.500000;stroke-linecap: round;stroke-linejoin: round;stroke-miterlimit: 10.000000;fill: none;"></path>
  <path d="M833.858505 149.653793C833.858505 124.702225,823.945053 100.775589,806.302979 83.133499C788.660889 65.491425,764.734253 55.577972,739.782684 55.577972C714.831116 55.577972,690.904480 65.491425,673.262390 83.133499C655.620316 100.775589,645.706863 124.702225,645.706863 149.653793C645.706863 174.605362,655.620316 198.531998,673.262390 216.174088C690.904480 233.816162,714.831116 243.729614,739.782684 243.729614C764.734253 243.729614,788.660889 233.816162,806.302979 216.174088C823.945053 198.531998,833.858505 174.605362,833.858505 149.653793Z" style="stroke:rgb(25.500488%,41.000366%,88.400269%); stroke-width: 2.500000;stroke-linecap: round;stroke-linejoin: round;stroke-miterlimit: 10.000000;fill: none;"></path>
  <path d="M1700.290344 1029.386002C1700.290344 1004.434433,1690.376892 980.507797,1672.734818 962.865707C1655.092728 945.223633,1631.166092 935.310181,1606.214523 935.310181C1581.262955 935.310181,1557.336319 945.223633,1539.694229 962.865707C1522.052155 980.507797,1512.138702 1004.434433,1512.138702 1029.386002C1512.138702 1054.337570,1522.052155 1078.264206,1539.694229 1095.906296C1557.336319 1113.548370,1581.262955 1123.461823,1606.214523 1123.461823C1631.166092 1123.461823,1655.092728 1113.548370,1672.734818 1095.906296C1690.376892 1078.264206,1700.290344 1054.337570,1700.290344 1029.386002Z" style="stroke:rgb(25.500488%,41.000366%,88.400269%); stroke-width: 2.500000;stroke-linecap: round;stroke-linejoin: round;stroke-miterlimit: 10.000000;fill: none;"></path>
  <path d="M1574.202789 935.167450C1574.202789 910.215881,1564.289337 886.289246,1546.647263 868.647156C1529.005173 851.005081,1505.078537 841.091629,1480.126968 841.091629C1455.175400 841.091629,1431.248764 851.005081,1413.606674 868.647156C1395.964600 886.289246,1386.051147 910.215881,1386.051147 935.167450C1386.051147 960.119019,1395.964600 984.045654,1413.606674 1001.687744C1431.248764 1019.329819,1455.175400 1029.243271,1480.126968 1029.243271C1505.078537 1029.243271,1529.005173 1019.329819,1546.647263 1001.687744C1564.289337 984.045654,1574.202789 960.119019,1574.202789 935.167450Z" style="stroke:rgb(25.500488%,41.000366%,88.400269%); stroke-width: 2.500000;stroke-linecap: round;stroke-linejoin: round;stroke-miterlimit: 10.000000;fill: none;"></path>
  <path d="M1447.492386 829.620865C1447.492386 804.669296,1437.578934 780.742661,1419.936859 763.100571C1402.294769 745.458496,1378.368134 735.545044,1353.416565 735.545044C1328.464996 735.545044,1304.538361 745.458496,1286.896271 763.100571C1269.254196 780.742661,1259.340744 804.669296,1259.340744 829.620865C1259.340744 854.572433,1269.254196 878.499069,1286.896271 896.141159C1304.538361 913.783234,1328.464996 923.696686,1353.416565 923.696686C1378.368134 923.696686,1402.294769 913.783234,1419.936859 896.141159C1437.578934 878.499069,1447.492386 854.572433,1447.492386 829.620865Z" style="stroke:rgb(25.500488%,41.000366%,88.400269%); stroke-width: 2.500000;stroke-linecap: round;stroke-linejoin: round;stroke-miterlimit: 10.000000;fill: none;"></path>
  <path d="M1326.335709 731.042374C1326.335709 706.090805,1316.422256 682.164169,1298.780182 664.522079C1281.138092 646.880005,1257.211456 636.966553,1232.259888 636.966553C1207.308319 636.966553,1183.381683 646.880005,1165.739594 664.522079C1148.097519 682.164169,1138.184067 706.090805,1138.184067 731.042374C1138.184067 755.993942,1148.097519 779.920578,1165.739594 797.562668C1183.381683 815.204742,1207.308319 825.118195,1232.259888 825.118195C1257.211456 825.118195,1281.138092 815.204742,1298.780182 797.562668C1316.422256 779.920578,1326.335709 755.993942,1326.335709 731.042374Z" style="stroke:rgb(25.500488%,41.000366%,88.400269%); stroke-width: 2.500000;stroke-linecap: round;stroke-linejoin: round;stroke-miterlimit: 10.000000;fill: none;"></path>
  <path d="M1189.023926 636.330734C1189.023926 611.379166,1179.110474 587.452530,1161.468399 569.810440C1143.826309 552.168365,1119.899673 542.254913,1094.948105 542.254913C1069.996536 542.254913,1046.069901 552.168365,1028.427811 569.810440C1010.785736 587.452530,1000.872284 611.379166,1000.872284 636.330734C1000.872284 661.282303,1010.785736 685.208939,1028.427811 702.851028C1046.069901 720.493103,1069.996536 730.406555,1094.948105 730.406555C1119.899673 730.406555,1143.826309 720.493103,1161.468399 702.851028C1179.110474 685.208939,1189.023926 661.282303,1189.023926 636.330734Z" style="stroke:rgb(25.500488%,41.000366%,88.400269%); stroke-width: 2.500000;stroke-linecap: round;stroke-linejoin: round;stroke-miterlimit: 10.000000;fill: none;"></path>
  <path d="M1064.415634 518.456970C1064.415634 493.505402,1054.502182 469.578766,1036.860107 451.936676C1019.218018 434.294601,995.291382 424.381149,970.339813 424.381149C945.388245 424.381149,921.461609 434.294601,903.819519 451.936676C886.177444 469.578766,876.263992 493.505402,876.263992 518.456970C876.263992 543.408539,886.177444 567.335175,903.819519 584.977264C921.461609 602.619339,945.388245 612.532791,970.339813 612.532791C995.291382 612.532791,1019.218018 602.619339,1036.860107 584.977264C1054.502182 567.335175,1064.415634 543.408539,1064.415634 518.456970Z" style="stroke:rgb(25.500488%,41.000366%,88.400269%); stroke-width: 2.500000;stroke-linecap: round;stroke-linejoin: round;stroke-miterlimit: 10.000000;fill: none;"></path>
  <path d="M937.173218 418.671722C937.173218 393.720154,927.259766 369.793518,909.617691 352.151428C891.975601 334.509354,868.048965 324.595901,843.097397 324.595901C818.145828 324.595901,794.219193 334.509354,776.577103 352.151428C758.935028 369.793518,749.021576 393.720154,749.021576 418.671722C749.021576 443.623291,758.935028 467.549927,776.577103 485.192017C794.219193 502.834091,818.145828 512.747543,843.097397 512.747543C868.048965 512.747543,891.975601 502.834091,909.617691 485.192017C927.259766 467.549927,937.173218 443.623291,937.173218 418.671722Z" style="stroke:rgb(25.500488%,41.000366%,88.400269%); stroke-width: 2.500000;stroke-linecap: round;stroke-linejoin: round;stroke-miterlimit: 10.000000;fill: none;"></path>
  <path d="M809.956757 313.319778C809.956757 288.368210,800.043304 264.441574,782.401230 246.799484C764.759140 229.157410,740.832504 219.243958,715.880936 219.243958C690.929367 219.243958,667.002731 229.157410,649.360641 246.799484C631.718567 264.441574,621.805115 288.368210,621.805115 313.319778C621.805115 338.271347,631.718567 362.197983,649.360641 379.840073C667.002731 397.482147,690.929367 407.395599,715.880936 407.395599C740.832504 407.395599,764.759140 397.482147,782.401230 379.840073C800.043304 362.197983,809.956757 338.271347,809.956757 313.319778Z" style="stroke:rgb(25.500488%,41.000366%,88.400269%); stroke-width: 2.500000;stroke-linecap: round;stroke-linejoin: round;stroke-miterlimit: 10.000000;fill: none;"></path>
  <path d="M685.101929 207.552597C685.101929 182.601028,675.188477 158.674393,657.546402 141.032303C639.904312 123.390228,615.977676 113.476776,591.026108 113.476776C566.074539 113.476776,542.147903 123.390228,524.505814 141.032303C506.863739 158.674393,496.950287 182.601028,496.950287 207.552597C496.950287 232.504166,506.863739 256.430801,524.505814 274.072891C542.147903 291.714966,566.074539 301.628418,591.026108 301.628418C615.977676 301.628418,639.904312 291.714966,657.546402 274.072891C675.188477 256.430801,685.101929 232.504166,685.101929 207.552597Z" style="stroke:rgb(25.500488%,41.000366%,88.400269%); stroke-width: 2.500000;stroke-linecap: round;stroke-linejoin: round;stroke-miterlimit: 10.000000;fill: none;"></path>
  <path d="M1669.900604 1186.447205C1669.900604 1161.495636,1659.987152 1137.569000,1642.345078 1119.926910C1624.702988 1102.284836,1600.776352 1092.371384,1575.824783 1092.371384C1550.873215 1092.371384,1526.946579 1102.284836,1509.304489 1119.926910C1491.662415 1137.569000,1481.748962 1161.495636,1481.748962 1186.447205C1481.748962 1211.398773,1491.662415 1235.325409,1509.304489 1252.967499C1526.946579 1270.609573,1550.873215 1280.523026,1575.824783 1280.523026C1600.776352 1280.523026,1624.702988 1270.609573,1642.345078 1252.967499C1659.987152 1235.325409,1669.900604 1211.398773,1669.900604 1186.447205Z" style="stroke:rgb(25.500488%,41.000366%,88.400269%); stroke-width: 2.500000;stroke-linecap: round;stroke-linejoin: round;stroke-miterlimit: 10.000000;fill: none;"></path>
  <path d="M1546.512054 1096.121445C1546.512054 1071.169876,1536.598602 1047.243240,1518.956528 1029.601151C1501.314438 1011.959076,1477.387802 1002.045624,1452.436234 1002.045624C1427.484665 1002.045624,1403.558029 1011.959076,1385.915939 1029.601151C1368.273865 1047.243240,1358.360413 1071.169876,1358.360413 1096.121445C1358.360413 1121.073013,1368.273865 1144.999649,1385.915939 1162.641739C1403.558029 1180.283813,1427.484665 1190.197266,1452.436234 1190.197266C1477.387802 1190.197266,1501.314438 1180.283813,1518.956528 1162.641739C1536.598602 1144.999649,1546.512054 1121.073013,1546.512054 1096.121445Z" style="stroke:rgb(25.500488%,41.000366%,88.400269%); stroke-width: 2.500000;stroke-linecap: round;stroke-linejoin: round;stroke-miterlimit: 10.000000;fill: none;"></path>
  <path d="M1421.994598 989.744400C1421.994598 964.792831,1412.081146 940.866196,1394.439072 923.224106C1376.796982 905.582031,1352.870346 895.668579,1327.918777 895.668579C1302.967209 895.668579,1279.040573 905.582031,1261.398483 923.224106C1243.756409 940.866196,1233.842957 964.792831,1233.842957 989.744400C1233.842957 1014.695969,1243.756409 1038.622604,1261.398483 1056.264694C1279.040573 1073.906769,1302.967209 1083.820221,1327.918777 1083.820221C1352.870346 1083.820221,1376.796982 1073.906769,1394.439072 1056.264694C1412.081146 1038.622604,1421.994598 1014.695969,1421.994598 989.744400Z" style="stroke:rgb(25.500488%,41.000366%,88.400269%); stroke-width: 2.500000;stroke-linecap: round;stroke-linejoin: round;stroke-miterlimit: 10.000000;fill: none;"></path>
  <path d="M1293.947662 893.566467C1293.947662 868.614899,1284.034210 844.688263,1266.392136 827.046173C1248.750046 809.404099,1224.823410 799.490646,1199.871841 799.490646C1174.920273 799.490646,1150.993637 809.404099,1133.351547 827.046173C1115.709473 844.688263,1105.796021 868.614899,1105.796021 893.566467C1105.796021 918.518036,1115.709473 942.444672,1133.351547 960.086761C1150.993637 977.728836,1174.920273 987.642288,1199.871841 987.642288C1224.823410 987.642288,1248.750046 977.728836,1266.392136 960.086761C1284.034210 942.444672,1293.947662 918.518036,1293.947662 893.566467Z" style="stroke:rgb(25.500488%,41.000366%,88.400269%); stroke-width: 2.500000;stroke-linecap: round;stroke-linejoin: round;stroke-miterlimit: 10.000000;fill: none;"></path>
  <path d="M1173.089432 792.068390C1173.089432 767.116821,1163.175980 743.190186,1145.533905 725.548096C1127.891815 707.906021,1103.965179 697.992569,1079.013611 697.992569C1054.062042 697.992569,1030.135406 707.906021,1012.493317 725.548096C994.851242 743.190186,984.937790 767.116821,984.937790 792.068390C984.937790 817.019958,994.851242 840.946594,1012.493317 858.588684C1030.135406 876.230759,1054.062042 886.144211,1079.013611 886.144211C1103.965179 886.144211,1127.891815 876.230759,1145.533905 858.588684C1163.175980 840.946594,1173.089432 817.019958,1173.089432 792.068390Z" style="stroke:rgb(25.500488%,41.000366%,88.400269%); stroke-width: 2.500000;stroke-linecap: round;stroke-linejoin: round;stroke-miterlimit: 10.000000;fill: none;"></path>
  <path d="M1045.457733 682.019135C1045.457733 657.067566,1035.544281 633.140930,1017.902206 615.498840C1000.260117 597.856766,976.333481 587.943314,951.381912 587.943314C926.430344 587.943314,902.503708 597.856766,884.861618 615.498840C867.219543 633.140930,857.306091 657.067566,857.306091 682.019135C857.306091 706.970703,867.219543 730.897339,884.861618 748.539429C902.503708 766.181503,926.430344 776.094955,951.381912 776.094955C976.333481 776.094955,1000.260117 766.181503,1017.902206 748.539429C1035.544281 730.897339,1045.457733 706.970703,1045.457733 682.019135Z" style="stroke:rgb(25.500488%,41.000366%,88.400269%); stroke-width: 2.500000;stroke-linecap: round;stroke-linejoin: round;stroke-miterlimit: 10.000000;fill: none;"></path>
  <path d="M916.956650 579.431076C916.956650 554.479507,907.043198 530.552872,889.401123 512.910782C871.759033 495.268707,847.832397 485.355255,822.880829 485.355255C797.929260 485.355255,774.002625 495.268707,756.360535 512.910782C738.718460 530.552872,728.805008 554.479507,728.805008 579.431076C728.805008 604.382645,738.718460 628.309280,756.360535 645.951370C774.002625 663.593445,797.929260 673.506897,822.880829 673.506897C847.832397 673.506897,871.759033 663.593445,889.401123 645.951370C907.043198 628.309280,916.956650 604.382645,916.956650 579.431076Z" style="stroke:rgb(25.500488%,41.000366%,88.400269%); stroke-width: 2.500000;stroke-linecap: round;stroke-linejoin: round;stroke-miterlimit: 10.000000;fill: none;"></path>
  <path d="M787.287735 475.104233C787.287735 450.152664,777.374283 426.226028,759.732208 408.583939C742.090118 390.941864,718.163483 381.028412,693.211914 381.028412C668.260345 381.028412,644.333710 390.941864,626.691620 408.583939C609.049545 426.226028,599.136093 450.152664,599.136093 475.104233C599.136093 500.055801,609.049545 523.982437,626.691620 541.624527C644.333710 559.266602,668.260345 569.180054,693.211914 569.180054C718.163483 569.180054,742.090118 559.266602,759.732208 541.624527C777.374283 523.982437,787.287735 500.055801,787.287735 475.104233Z" style="stroke:rgb(25.500488%,41.000366%,88.400269%); stroke-width: 2.500000;stroke-linecap: round;stroke-linejoin: round;stroke-miterlimit: 10.000000;fill: none;"></path>
  <path d="M659.967468 370.271332C659.967468 345.319763,650.054016 321.393127,632.411942 303.751038C614.769852 286.108963,590.843216 276.195511,565.891647 276.195511C540.940079 276.195511,517.013443 286.108963,499.371353 303.751038C481.729279 321.393127,471.815826 345.319763,471.815826 370.271332C471.815826 395.222900,481.729279 419.149536,499.371353 436.791626C517.013443 454.433701,540.940079 464.347153,565.891647 464.347153C590.843216 464.347153,614.769852 454.433701,632.411942 436.791626C650.054016 419.149536,659.967468 395.222900,659.967468 370.271332Z" style="stroke:rgb(25.500488%,41.000366%,88.400269%); stroke-width: 2.500000;stroke-linecap: round;stroke-linejoin: round;stroke-miterlimit: 10.000000;fill: none;"></path>
  <path d="M535.982010 260.442673C535.982010 235.491104,526.068558 211.564468,508.426483 193.922379C490.784393 176.280304,466.857758 166.366852,441.906189 166.366852C416.954620 166.366852,393.027985 176.280304,375.385895 193.922379C357.743820 211.564468,347.830368 235.491104,347.830368 260.442673C347.830368 285.394241,357.743820 309.320877,375.385895 326.962967C393.027985 344.605042,416.954620 354.518494,441.906189 354.518494C466.857758 354.518494,490.784393 344.605042,508.426483 326.962967C526.068558 309.320877,535.982010 285.394241,535.982010 260.442673Z" style="stroke:rgb(25.500488%,41.000366%,88.400269%); stroke-width: 2.500000;stroke-linecap: round;stroke-linejoin: round;stroke-miterlimit: 10.000000;fill: none;"></path>
  <path d="M1638.511719 1338.538620C1638.511719 1313.587051,1628.598267 1289.660416,1610.956192 1272.018326C1593.314102 1254.376251,1569.387466 1244.462799,1544.435898 1244.462799C1519.484329 1244.462799,1495.557693 1254.376251,1477.915604 1272.018326C1460.273529 1289.660416,1450.360077 1313.587051,1450.360077 1338.538620C1450.360077 1363.490189,1460.273529 1387.416824,1477.915604 1405.058914C1495.557693 1422.700989,1519.484329 1432.614441,1544.435898 1432.614441C1569.387466 1432.614441,1593.314102 1422.700989,1610.956192 1405.058914C1628.598267 1387.416824,1638.511719 1363.490189,1638.511719 1338.538620Z" style="stroke:rgb(25.500488%,41.000366%,88.400269%); stroke-width: 2.500000;stroke-linecap: round;stroke-linejoin: round;stroke-miterlimit: 10.000000;fill: none;"></path>
  <path d="M1521.169968 1262.058212C1521.169968 1237.106644,1511.256516 1213.180008,1493.614441 1195.537918C1475.972351 1177.895844,1452.045715 1167.982391,1427.094147 1167.982391C1402.142578 1167.982391,1378.215942 1177.895844,1360.573853 1195.537918C1342.931778 1213.180008,1333.018326 1237.106644,1333.018326 1262.058212C1333.018326 1287.009781,1342.931778 1310.936417,1360.573853 1328.578506C1378.215942 1346.220581,1402.142578 1356.134033,1427.094147 1356.134033C1452.045715 1356.134033,1475.972351 1346.220581,1493.614441 1328.578506C1511.256516 1310.936417,1521.169968 1287.009781,1521.169968 1262.058212Z" style="stroke:rgb(25.500488%,41.000366%,88.400269%); stroke-width: 2.500000;stroke-linecap: round;stroke-linejoin: round;stroke-miterlimit: 10.000000;fill: none;"></path>
  <path d="M1399.507233 1154.707977C1399.507233 1129.756409,1389.593781 1105.829773,1371.951706 1088.187683C1354.309616 1070.545609,1330.382980 1060.632156,1305.431412 1060.632156C1280.479843 1060.632156,1256.553207 1070.545609,1238.911118 1088.187683C1221.269043 1105.829773,1211.355591 1129.756409,1211.355591 1154.707977C1211.355591 1179.659546,1221.269043 1203.586182,1238.911118 1221.228271C1256.553207 1238.870346,1280.479843 1248.783798,1305.431412 1248.783798C1330.382980 1248.783798,1354.309616 1238.870346,1371.951706 1221.228271C1389.593781 1203.586182,1399.507233 1179.659546,1399.507233 1154.707977Z" style="stroke:rgb(25.500488%,41.000366%,88.400269%); stroke-width: 2.500000;stroke-linecap: round;stroke-linejoin: round;stroke-miterlimit: 10.000000;fill: none;"></path>
  <path d="M1273.653244 1057.712555C1273.653244 1032.760986,1263.739792 1008.834351,1246.097717 991.192261C1228.455627 973.550186,1204.528992 963.636734,1179.577423 963.636734C1154.625854 963.636734,1130.699219 973.550186,1113.057129 991.192261C1095.415054 1008.834351,1085.501602 1032.760986,1085.501602 1057.712555C1085.501602 1082.664124,1095.415054 1106.590759,1113.057129 1124.232849C1130.699219 1141.874924,1154.625854 1151.788376,1179.577423 1151.788376C1204.528992 1151.788376,1228.455627 1141.874924,1246.097717 1124.232849C1263.739792 1106.590759,1273.653244 1082.664124,1273.653244 1057.712555Z" style="stroke:rgb(25.500488%,41.000366%,88.400269%); stroke-width: 2.500000;stroke-linecap: round;stroke-linejoin: round;stroke-miterlimit: 10.000000;fill: none;"></path>
  <path d="M1145.930710 958.615036C1145.930710 933.663467,1136.017258 909.736832,1118.375183 892.094742C1100.733093 874.452667,1076.806458 864.539215,1051.854889 864.539215C1026.903320 864.539215,1002.976685 874.452667,985.334595 892.094742C967.692520 909.736832,957.779068 933.663467,957.779068 958.615036C957.779068 983.566605,967.692520 1007.493240,985.334595 1025.135330C1002.976685 1042.777405,1026.903320 1052.690857,1051.854889 1052.690857C1076.806458 1052.690857,1100.733093 1042.777405,1118.375183 1025.135330C1136.017258 1007.493240,1145.930710 983.566605,1145.930710 958.615036Z" style="stroke:rgb(25.500488%,41.000366%,88.400269%); stroke-width: 2.500000;stroke-linecap: round;stroke-linejoin: round;stroke-miterlimit: 10.000000;fill: none;"></path>
  <path d="M1027.317322 845.308807C1027.317322 820.357239,1017.403870 796.430603,999.761795 778.788513C982.119705 761.146439,958.193069 751.232986,933.241501 751.232986C908.289932 751.232986,884.363297 761.146439,866.721207 778.788513C849.079132 796.430603,839.165680 820.357239,839.165680 845.308807C839.165680 870.260376,849.079132 894.187012,866.721207 911.829102C884.363297 929.471176,908.289932 939.384628,933.241501 939.384628C958.193069 939.384628,982.119705 929.471176,999.761795 911.829102C1017.403870 894.187012,1027.317322 870.260376,1027.317322 845.308807Z" style="stroke:rgb(25.500488%,41.000366%,88.400269%); stroke-width: 2.500000;stroke-linecap: round;stroke-linejoin: round;stroke-miterlimit: 10.000000;fill: none;"></path>
  <path d="M898.050659 743.032181C898.050659 718.080612,888.137207 694.153976,870.495132 676.511887C852.853043 658.869812,828.926407 648.956360,803.974838 648.956360C779.023270 648.956360,755.096634 658.869812,737.454544 676.511887C719.812469 694.153976,709.899017 718.080612,709.899017 743.032181C709.899017 767.983749,719.812469 791.910385,737.454544 809.552475C755.096634 827.194550,779.023270 837.108002,803.974838 837.108002C828.926407 837.108002,852.853043 827.194550,870.495132 809.552475C888.137207 791.910385,898.050659 767.983749,898.050659 743.032181Z" style="stroke:rgb(25.500488%,41.000366%,88.400269%); stroke-width: 2.500000;stroke-linecap: round;stroke-linejoin: round;stroke-miterlimit: 10.000000;fill: none;"></path>
  <path d="M769.977783 638.043564C769.977783 613.091995,760.064331 589.165359,742.422256 571.523270C724.780167 553.881195,700.853531 543.967743,675.901962 543.967743C650.950394 543.967743,627.023758 553.881195,609.381668 571.523270C591.739594 589.165359,581.826141 613.091995,581.826141 638.043564C581.826141 662.995132,591.739594 686.921768,609.381668 704.563858C627.023758 722.205933,650.950394 732.119385,675.901962 732.119385C700.853531 732.119385,724.780167 722.205933,742.422256 704.563858C760.064331 686.921768,769.977783 662.995132,769.977783 638.043564Z" style="stroke:rgb(25.500488%,41.000366%,88.400269%); stroke-width: 2.500000;stroke-linecap: round;stroke-linejoin: round;stroke-miterlimit: 10.000000;fill: none;"></path>
  <path d="M640.218033 534.235748C640.218033 509.284180,630.304581 485.357544,612.662506 467.715454C595.020416 450.073380,571.093781 440.159927,546.142212 440.159927C521.190643 440.159927,497.264008 450.073380,479.621918 467.715454C461.979843 485.357544,452.066391 509.284180,452.066391 534.235748C452.066391 559.187317,461.979843 583.113953,479.621918 600.756042C497.264008 618.398117,521.190643 628.311569,546.142212 628.311569C571.093781 628.311569,595.020416 618.398117,612.662506 600.756042C630.304581 583.113953,640.218033 559.187317,640.218033 534.235748Z" style="stroke:rgb(25.500488%,41.000366%,88.400269%); stroke-width: 2.500000;stroke-linecap: round;stroke-linejoin: round;stroke-miterlimit: 10.000000;fill: none;"></path>
  <path d="M516.375320 427.145035C516.375320 402.193466,506.461868 378.266830,488.819794 360.624741C471.177704 342.982666,447.251068 333.069214,422.299500 333.069214C397.347931 333.069214,373.421295 342.982666,355.779205 360.624741C338.137131 378.266830,328.223679 402.193466,328.223679 427.145035C328.223679 452.096603,338.137131 476.023239,355.779205 493.665329C373.421295 511.307404,397.347931 521.220856,422.299500 521.220856C447.251068 521.220856,471.177704 511.307404,488.819794 493.665329C506.461868 476.023239,516.375320 452.096603,516.375320 427.145035Z" style="stroke:rgb(25.500488%,41.000366%,88.400269%); stroke-width: 2.500000;stroke-linecap: round;stroke-linejoin: round;stroke-miterlimit: 10.000000;fill: none;"></path>
  <path d="M392.052490 318.821594C392.052490 293.870026,382.139038 269.943390,364.496964 252.301300C346.854874 234.659225,322.928238 224.745773,297.976669 224.745773C273.025101 224.745773,249.098465 234.659225,231.456375 252.301300C213.814301 269.943390,203.900848 293.870026,203.900848 318.821594C203.900848 343.773163,213.814301 367.699799,231.456375 385.341888C249.098465 402.983963,273.025101 412.897415,297.976669 412.897415C322.928238 412.897415,346.854874 402.983963,364.496964 385.341888C382.139038 367.699799,392.052490 343.773163,392.052490 318.821594Z" style="stroke:rgb(25.500488%,41.000366%,88.400269%); stroke-width: 2.500000;stroke-linecap: round;stroke-linejoin: round;stroke-miterlimit: 10.000000;fill: none;"></path>
  <path d="M1495.970627 1432.860977C1495.970627 1407.909409,1486.057175 1383.982773,1468.415100 1366.340683C1450.773010 1348.698608,1426.846375 1338.785156,1401.894806 1338.785156C1376.943237 1338.785156,1353.016602 1348.698608,1335.374512 1366.340683C1317.732437 1383.982773,1307.818985 1407.909409,1307.818985 1432.860977C1307.818985 1457.812546,1317.732437 1481.739182,1335.374512 1499.381271C1353.016602 1517.023346,1376.943237 1526.936798,1401.894806 1526.936798C1426.846375 1526.936798,1450.773010 1517.023346,1468.415100 1499.381271C1486.057175 1481.739182,1495.970627 1457.812546,1495.970627 1432.860977Z" style="stroke:rgb(25.500488%,41.000366%,88.400269%); stroke-width: 2.500000;stroke-linecap: round;stroke-linejoin: round;stroke-miterlimit: 10.000000;fill: none;"></path>
  <path d="M1379.653992 1322.046143C1379.653992 1297.094574,1369.740540 1273.167938,1352.098465 1255.525848C1334.456375 1237.883774,1310.529739 1227.970322,1285.578171 1227.970322C1260.626602 1227.970322,1236.699966 1237.883774,1219.057877 1255.525848C1201.415802 1273.167938,1191.502350 1297.094574,1191.502350 1322.046143C1191.502350 1346.997711,1201.415802 1370.924347,1219.057877 1388.566437C1236.699966 1406.208511,1260.626602 1416.121964,1285.578171 1416.121964C1310.529739 1416.121964,1334.456375 1406.208511,1352.098465 1388.566437C1369.740540 1370.924347,1379.653992 1346.997711,1379.653992 1322.046143Z" style="stroke:rgb(25.500488%,41.000366%,88.400269%); stroke-width: 2.500000;stroke-linecap: round;stroke-linejoin: round;stroke-miterlimit: 10.000000;fill: none;"></path>
  <path d="M1254.357971 1224.843124C1254.357971 1199.891556,1244.444519 1175.964920,1226.802444 1158.322830C1209.160355 1140.680756,1185.233719 1130.767303,1160.282150 1130.767303C1135.330582 1130.767303,1111.403946 1140.680756,1093.761856 1158.322830C1076.119781 1175.964920,1066.206329 1199.891556,1066.206329 1224.843124C1066.206329 1249.794693,1076.119781 1273.721329,1093.761856 1291.363419C1111.403946 1309.005493,1135.330582 1318.918945,1160.282150 1318.918945C1185.233719 1318.918945,1209.160355 1309.005493,1226.802444 1291.363419C1244.444519 1273.721329,1254.357971 1249.794693,1254.357971 1224.843124Z" style="stroke:rgb(25.500488%,41.000366%,88.400269%); stroke-width: 2.500000;stroke-linecap: round;stroke-linejoin: round;stroke-miterlimit: 10.000000;fill: none;"></path>
  <path d="M1128.802429 1124.915131C1128.802429 1099.963562,1118.888977 1076.036926,1101.246902 1058.394836C1083.604813 1040.752762,1059.678177 1030.839310,1034.726608 1030.839310C1009.775040 1030.839310,985.848404 1040.752762,968.206314 1058.394836C950.564240 1076.036926,940.650787 1099.963562,940.650787 1124.915131C940.650787 1149.866699,950.564240 1173.793335,968.206314 1191.435425C985.848404 1209.077499,1009.775040 1218.990952,1034.726608 1218.990952C1059.678177 1218.990952,1083.604813 1209.077499,1101.246902 1191.435425C1118.888977 1173.793335,1128.802429 1149.866699,1128.802429 1124.915131Z" style="stroke:rgb(25.500488%,41.000366%,88.400269%); stroke-width: 2.500000;stroke-linecap: round;stroke-linejoin: round;stroke-miterlimit: 10.000000;fill: none;"></path>
  <path d="M1005.465790 1006.794830C1005.465790 981.843262,995.552338 957.916626,977.910263 940.274536C960.268173 922.632462,936.341537 912.719009,911.389969 912.719009C886.438400 912.719009,862.511765 922.632462,844.869675 940.274536C827.227600 957.916626,817.314148 981.843262,817.314148 1006.794830C817.314148 1031.746399,827.227600 1055.673035,844.869675 1073.315125C862.511765 1090.957199,886.438400 1100.870651,911.389969 1100.870651C936.341537 1100.870651,960.268173 1090.957199,977.910263 1073.315125C995.552338 1055.673035,1005.465790 1031.746399,1005.465790 1006.794830Z" style="stroke:rgb(25.500488%,41.000366%,88.400269%); stroke-width: 2.500000;stroke-linecap: round;stroke-linejoin: round;stroke-miterlimit: 10.000000;fill: none;"></path>
  <path d="M877.029572 904.064026C877.029572 879.112457,867.116119 855.185822,849.474045 837.543732C831.831955 819.901657,807.905319 809.988205,782.953751 809.988205C758.002182 809.988205,734.075546 819.901657,716.433456 837.543732C698.791382 855.185822,688.877930 879.112457,688.877930 904.064026C688.877930 929.015594,698.791382 952.942230,716.433456 970.584320C734.075546 988.226395,758.002182 998.139847,782.953751 998.139847C807.905319 998.139847,831.831955 988.226395,849.474045 970.584320C867.116119 952.942230,877.029572 929.015594,877.029572 904.064026Z" style="stroke:rgb(25.500488%,41.000366%,88.400269%); stroke-width: 2.500000;stroke-linecap: round;stroke-linejoin: round;stroke-miterlimit: 10.000000;fill: none;"></path>
  <path d="M748.087311 799.425766C748.087311 774.474197,738.173859 750.547562,720.531784 732.905472C702.889694 715.263397,678.963058 705.349945,654.011490 705.349945C629.059921 705.349945,605.133286 715.263397,587.491196 732.905472C569.849121 750.547562,559.935669 774.474197,559.935669 799.425766C559.935669 824.377335,569.849121 848.303970,587.491196 865.946060C605.133286 883.588135,629.059921 893.501587,654.011490 893.501587C678.963058 893.501587,702.889694 883.588135,720.531784 865.946060C738.173859 848.303970,748.087311 824.377335,748.087311 799.425766Z" style="stroke:rgb(25.500488%,41.000366%,88.400269%); stroke-width: 2.500000;stroke-linecap: round;stroke-linejoin: round;stroke-miterlimit: 10.000000;fill: none;"></path>
  <path d="M620.429672 692.412888C620.429672 667.461319,610.516220 643.534683,592.874146 625.892593C575.232056 608.250519,551.305420 598.337067,526.353851 598.337067C501.402283 598.337067,477.475647 608.250519,459.833557 625.892593C442.191483 643.534683,432.278030 667.461319,432.278030 692.412888C432.278030 717.364456,442.191483 741.291092,459.833557 758.933182C477.475647 776.575256,501.402283 786.488708,526.353851 786.488708C551.305420 786.488708,575.232056 776.575256,592.874146 758.933182C610.516220 741.291092,620.429672 717.364456,620.429672 692.412888Z" style="stroke:rgb(25.500488%,41.000366%,88.400269%); stroke-width: 2.500000;stroke-linecap: round;stroke-linejoin: round;stroke-miterlimit: 10.000000;fill: none;"></path>
  <path d="M488.502930 588.631042C488.502930 563.679474,478.589478 539.752838,460.947403 522.110748C443.305313 504.468674,419.378677 494.555222,394.427109 494.555222C369.475540 494.555222,345.548904 504.468674,327.906815 522.110748C310.264740 539.752838,300.351288 563.679474,300.351288 588.631042C300.351288 613.582611,310.264740 637.509247,327.906815 655.151337C345.548904 672.793411,369.475540 682.706863,394.427109 682.706863C419.378677 682.706863,443.305313 672.793411,460.947403 655.151337C478.589478 637.509247,488.502930 613.582611,488.502930 588.631042Z" style="stroke:rgb(25.500488%,41.000366%,88.400269%); stroke-width: 2.500000;stroke-linecap: round;stroke-linejoin: round;stroke-miterlimit: 10.000000;fill: none;"></path>
  <path d="M364.971634 480.009155C364.971634 455.057587,355.058182 431.130951,337.416107 413.488861C319.774017 395.846786,295.847382 385.933334,270.895813 385.933334C245.944244 385.933334,222.017609 395.846786,204.375519 413.488861C186.733444 431.130951,176.819992 455.057587,176.819992 480.009155C176.819992 504.960724,186.733444 528.887360,204.375519 546.529449C222.017609 564.171524,245.944244 574.084976,270.895813 574.084976C295.847382 574.084976,319.774017 564.171524,337.416107 546.529449C355.058182 528.887360,364.971634 504.960724,364.971634 480.009155Z" style="stroke:rgb(25.500488%,41.000366%,88.400269%); stroke-width: 2.500000;stroke-linecap: round;stroke-linejoin: round;stroke-miterlimit: 10.000000;fill: none;"></path>
  <path d="M1377.525925 1488.982071C1377.525925 1464.030502,1367.612473 1440.103867,1349.970398 1422.461777C1332.328308 1404.819702,1308.401672 1394.906250,1283.450104 1394.906250C1258.498535 1394.906250,1234.571899 1404.819702,1216.929810 1422.461777C1199.287735 1440.103867,1189.374283 1464.030502,1189.374283 1488.982071C1189.374283 1513.933640,1199.287735 1537.860275,1216.929810 1555.502365C1234.571899 1573.144440,1258.498535 1583.057892,1283.450104 1583.057892C1308.401672 1583.057892,1332.328308 1573.144440,1349.970398 1555.502365C1367.612473 1537.860275,1377.525925 1513.933640,1377.525925 1488.982071Z" style="stroke:rgb(25.500488%,41.000366%,88.400269%); stroke-width: 2.500000;stroke-linecap: round;stroke-linejoin: round;stroke-miterlimit: 10.000000;fill: none;"></path>
  <path d="M1241.524734 1396.346588C1241.524734 1371.395020,1231.611282 1347.468384,1213.969208 1329.826294C1196.327118 1312.184219,1172.400482 1302.270767,1147.448914 1302.270767C1122.497345 1302.270767,1098.570709 1312.184219,1080.928619 1329.826294C1063.286545 1347.468384,1053.373093 1371.395020,1053.373093 1396.346588C1053.373093 1421.298157,1063.286545 1445.224792,1080.928619 1462.866882C1098.570709 1480.508957,1122.497345 1490.422409,1147.448914 1490.422409C1172.400482 1490.422409,1196.327118 1480.508957,1213.969208 1462.866882C1231.611282 1445.224792,1241.524734 1421.298157,1241.524734 1396.346588Z" style="stroke:rgb(25.500488%,41.000366%,88.400269%); stroke-width: 2.500000;stroke-linecap: round;stroke-linejoin: round;stroke-miterlimit: 10.000000;fill: none;"></path>
  <path d="M1116.540131 1296.223953C1116.540131 1271.272385,1106.626678 1247.345749,1088.984604 1229.703659C1071.342514 1212.061584,1047.415878 1202.148132,1022.464310 1202.148132C997.512741 1202.148132,973.586105 1212.061584,955.944016 1229.703659C938.301941 1247.345749,928.388489 1271.272385,928.388489 1296.223953C928.388489 1321.175522,938.301941 1345.102158,955.944016 1362.744247C973.586105 1380.386322,997.512741 1390.299774,1022.464310 1390.299774C1047.415878 1390.299774,1071.342514 1380.386322,1088.984604 1362.744247C1106.626678 1345.102158,1116.540131 1321.175522,1116.540131 1296.223953Z" style="stroke:rgb(25.500488%,41.000366%,88.400269%); stroke-width: 2.500000;stroke-linecap: round;stroke-linejoin: round;stroke-miterlimit: 10.000000;fill: none;"></path>
  <path d="M995.383453 1177.273193C995.383453 1152.321625,985.470001 1128.394989,967.827927 1110.752899C950.185837 1093.110825,926.259201 1083.197372,901.307632 1083.197372C876.356064 1083.197372,852.429428 1093.110825,834.787338 1110.752899C817.145264 1128.394989,807.231812 1152.321625,807.231812 1177.273193C807.231812 1202.224762,817.145264 1226.151398,834.787338 1243.793488C852.429428 1261.435562,876.356064 1271.349014,901.307632 1271.349014C926.259201 1271.349014,950.185837 1261.435562,967.827927 1243.793488C985.470001 1226.151398,995.383453 1202.224762,995.383453 1177.273193Z" style="stroke:rgb(25.500488%,41.000366%,88.400269%); stroke-width: 2.500000;stroke-linecap: round;stroke-linejoin: round;stroke-miterlimit: 10.000000;fill: none;"></path>
  <path d="M869.451614 1068.145233C869.451614 1043.193665,859.538162 1019.267029,841.896088 1001.624939C824.253998 983.982864,800.327362 974.069412,775.375793 974.069412C750.424225 974.069412,726.497589 983.982864,708.855499 1001.624939C691.213425 1019.267029,681.299973 1043.193665,681.299973 1068.145233C681.299973 1093.096802,691.213425 1117.023438,708.855499 1134.665527C726.497589 1152.307602,750.424225 1162.221054,775.375793 1162.221054C800.327362 1162.221054,824.253998 1152.307602,841.896088 1134.665527C859.538162 1117.023438,869.451614 1093.096802,869.451614 1068.145233Z" style="stroke:rgb(25.500488%,41.000366%,88.400269%); stroke-width: 2.500000;stroke-linecap: round;stroke-linejoin: round;stroke-miterlimit: 10.000000;fill: none;"></path>
  <path d="M735.072403 966.011337C735.072403 941.059769,725.158951 917.133133,707.516876 899.491043C689.874786 881.848969,665.948151 871.935516,640.996582 871.935516C616.045013 871.935516,592.118378 881.848969,574.476288 899.491043C556.834213 917.133133,546.920761 941.059769,546.920761 966.011337C546.920761 990.962906,556.834213 1014.889542,574.476288 1032.531631C592.118378 1050.173706,616.045013 1060.087158,640.996582 1060.087158C665.948151 1060.087158,689.874786 1050.173706,707.516876 1032.531631C725.158951 1014.889542,735.072403 990.962906,735.072403 966.011337Z" style="stroke:rgb(25.500488%,41.000366%,88.400269%); stroke-width: 2.500000;stroke-linecap: round;stroke-linejoin: round;stroke-miterlimit: 10.000000;fill: none;"></path>
  <path d="M614.369888 863.708740C614.369888 838.757172,604.456436 814.830536,586.814362 797.188446C569.172272 779.546371,545.245636 769.632919,520.294067 769.632919C495.342499 769.632919,471.415863 779.546371,453.773773 797.188446C436.131699 814.830536,426.218246 838.757172,426.218246 863.708740C426.218246 888.660309,436.131699 912.586945,453.773773 930.229034C471.415863 947.871109,495.342499 957.784561,520.294067 957.784561C545.245636 957.784561,569.172272 947.871109,586.814362 930.229034C604.456436 912.586945,614.369888 888.660309,614.369888 863.708740Z" style="stroke:rgb(25.500488%,41.000366%,88.400269%); stroke-width: 2.500000;stroke-linecap: round;stroke-linejoin: round;stroke-miterlimit: 10.000000;fill: none;"></path>
  <path d="M487.996857 758.966675C487.996857 734.015106,478.083405 710.088470,460.441330 692.446381C442.799240 674.804306,418.872604 664.890854,393.921036 664.890854C368.969467 664.890854,345.042831 674.804306,327.400742 692.446381C309.758667 710.088470,299.845215 734.015106,299.845215 758.966675C299.845215 783.918243,309.758667 807.844879,327.400742 825.486969C345.042831 843.129044,368.969467 853.042496,393.921036 853.042496C418.872604 853.042496,442.799240 843.129044,460.441330 825.486969C478.083405 807.844879,487.996857 783.918243,487.996857 758.966675Z" style="stroke:rgb(25.500488%,41.000366%,88.400269%); stroke-width: 2.500000;stroke-linecap: round;stroke-linejoin: round;stroke-miterlimit: 10.000000;fill: none;"></path>
  <path d="M356.381546 653.679611C356.381546 628.728043,346.468094 604.801407,328.826019 587.159317C311.183929 569.517242,287.257294 559.603790,262.305725 559.603790C237.354156 559.603790,213.427521 569.517242,195.785431 587.159317C178.143356 604.801407,168.229904 628.728043,168.229904 653.679611C168.229904 678.631180,178.143356 702.557816,195.785431 720.199905C213.427521 737.841980,237.354156 747.755432,262.305725 747.755432C287.257294 747.755432,311.183929 737.841980,328.826019 720.199905C346.468094 702.557816,356.381546 678.631180,356.381546 653.679611Z" style="stroke:rgb(25.500488%,41.000366%,88.400269%); stroke-width: 2.500000;stroke-linecap: round;stroke-linejoin: round;stroke-miterlimit: 10.000000;fill: none;"></path>
  <path d="M234.731766 582.324722C234.731766 557.373154,224.818314 533.446518,207.176239 515.804428C189.534149 498.162354,165.607513 488.248901,140.655945 488.248901C115.704376 488.248901,91.777740 498.162354,74.135651 515.804428C56.493576 533.446518,46.580124 557.373154,46.580124 582.324722C46.580124 607.276291,56.493576 631.202927,74.135651 648.845016C91.777740 666.487091,115.704376 676.400543,140.655945 676.400543C165.607513 676.400543,189.534149 666.487091,207.176239 648.845016C224.818314 631.202927,234.731766 607.276291,234.731766 582.324722Z" style="stroke:rgb(25.500488%,41.000366%,88.400269%); stroke-width: 2.500000;stroke-linecap: round;stroke-linejoin: round;stroke-miterlimit: 10.000000;fill: none;"></path>
  <path d="M1309.402054 1611.267670C1309.402054 1586.316101,1299.488602 1562.389465,1281.846527 1544.747375C1264.204437 1527.105301,1240.277802 1517.191849,1215.326233 1517.191849C1190.374664 1517.191849,1166.448029 1527.105301,1148.805939 1544.747375C1131.163864 1562.389465,1121.250412 1586.316101,1121.250412 1611.267670C1121.250412 1636.219238,1131.163864 1660.145874,1148.805939 1677.787964C1166.448029 1695.430038,1190.374664 1705.343491,1215.326233 1705.343491C1240.277802 1705.343491,1264.204437 1695.430038,1281.846527 1677.787964C1299.488602 1660.145874,1309.402054 1636.219238,1309.402054 1611.267670Z" style="stroke:rgb(25.500488%,41.000366%,88.400269%); stroke-width: 2.500000;stroke-linecap: round;stroke-linejoin: round;stroke-miterlimit: 10.000000;fill: none;"></path>
  <path d="M1196.264526 1514.700455C1196.264526 1489.748886,1186.351074 1465.822250,1168.709000 1448.180161C1151.066910 1430.538086,1127.140274 1420.624634,1102.188705 1420.624634C1077.237137 1420.624634,1053.310501 1430.538086,1035.668411 1448.180161C1018.026337 1465.822250,1008.112885 1489.748886,1008.112885 1514.700455C1008.112885 1539.652023,1018.026337 1563.578659,1035.668411 1581.220749C1053.310501 1598.862823,1077.237137 1608.776276,1102.188705 1608.776276C1127.140274 1608.776276,1151.066910 1598.862823,1168.709000 1581.220749C1186.351074 1563.578659,1196.264526 1539.652023,1196.264526 1514.700455Z" style="stroke:rgb(25.500488%,41.000366%,88.400269%); stroke-width: 2.500000;stroke-linecap: round;stroke-linejoin: round;stroke-miterlimit: 10.000000;fill: none;"></path>
  <path d="M1088.083817 1457.216888C1088.083817 1432.265320,1078.170364 1408.338684,1060.528290 1390.696594C1042.886200 1373.054520,1018.959564 1363.141068,994.007996 1363.141068C969.056427 1363.141068,945.129791 1373.054520,927.487701 1390.696594C909.845627 1408.338684,899.932175 1432.265320,899.932175 1457.216888C899.932175 1482.168457,909.845627 1506.095093,927.487701 1523.737183C945.129791 1541.379257,969.056427 1551.292709,994.007996 1551.292709C1018.959564 1551.292709,1042.886200 1541.379257,1060.528290 1523.737183C1078.170364 1506.095093,1088.083817 1482.168457,1088.083817 1457.216888Z" style="stroke:rgb(25.500488%,41.000366%,88.400269%); stroke-width: 2.500000;stroke-linecap: round;stroke-linejoin: round;stroke-miterlimit: 10.000000;fill: none;"></path>
  <path d="M967.498077 1338.058502C967.498077 1313.106934,957.584625 1289.180298,939.942551 1271.538208C922.300461 1253.896133,898.373825 1243.982681,873.422256 1243.982681C848.470688 1243.982681,824.544052 1253.896133,806.901962 1271.538208C789.259888 1289.180298,779.346436 1313.106934,779.346436 1338.058502C779.346436 1363.010071,789.259888 1386.936707,806.901962 1404.578796C824.544052 1422.220871,848.470688 1432.134323,873.422256 1432.134323C898.373825 1432.134323,922.300461 1422.220871,939.942551 1404.578796C957.584625 1386.936707,967.498077 1363.010071,967.498077 1338.058502Z" style="stroke:rgb(25.500488%,41.000366%,88.400269%); stroke-width: 2.500000;stroke-linecap: round;stroke-linejoin: round;stroke-miterlimit: 10.000000;fill: none;"></path>
  <path d="M843.733231 1228.100082C843.733231 1203.148514,833.819778 1179.221878,816.177704 1161.579788C798.535614 1143.937714,774.608978 1134.024261,749.657410 1134.024261C724.705841 1134.024261,700.779205 1143.937714,683.137115 1161.579788C665.495041 1179.221878,655.581589 1203.148514,655.581589 1228.100082C655.581589 1253.051651,665.495041 1276.978287,683.137115 1294.620377C700.779205 1312.262451,724.705841 1322.175903,749.657410 1322.175903C774.608978 1322.175903,798.535614 1312.262451,816.177704 1294.620377C833.819778 1276.978287,843.733231 1253.051651,843.733231 1228.100082Z" style="stroke:rgb(25.500488%,41.000366%,88.400269%); stroke-width: 2.500000;stroke-linecap: round;stroke-linejoin: round;stroke-miterlimit: 10.000000;fill: none;"></path>
  <path d="M717.282349 1122.774094C717.282349 1097.822525,707.368896 1073.895889,689.726822 1056.253799C672.084732 1038.611725,648.158096 1028.698273,623.206528 1028.698273C598.254959 1028.698273,574.328323 1038.611725,556.686234 1056.253799C539.044159 1073.895889,529.130707 1097.822525,529.130707 1122.774094C529.130707 1147.725662,539.044159 1171.652298,556.686234 1189.294388C574.328323 1206.936462,598.254959 1216.849915,623.206528 1216.849915C648.158096 1216.849915,672.084732 1206.936462,689.726822 1189.294388C707.368896 1171.652298,717.282349 1147.725662,717.282349 1122.774094Z" style="stroke:rgb(25.500488%,41.000366%,88.400269%); stroke-width: 2.500000;stroke-linecap: round;stroke-linejoin: round;stroke-miterlimit: 10.000000;fill: none;"></path>
  <path d="M581.981842 1026.297714C581.981842 1001.346146,572.068390 977.419510,554.426315 959.777420C536.784225 942.135345,512.857590 932.221893,487.906021 932.221893C462.954453 932.221893,439.027817 942.135345,421.385727 959.777420C403.743652 977.419510,393.830200 1001.346146,393.830200 1026.297714C393.830200 1051.249283,403.743652 1075.175919,421.385727 1092.818008C439.027817 1110.460083,462.954453 1120.373535,487.906021 1120.373535C512.857590 1120.373535,536.784225 1110.460083,554.426315 1092.818008C572.068390 1075.175919,581.981842 1051.249283,581.981842 1026.297714Z" style="stroke:rgb(25.500488%,41.000366%,88.400269%); stroke-width: 2.500000;stroke-linecap: round;stroke-linejoin: round;stroke-miterlimit: 10.000000;fill: none;"></path>
  <path d="M465.937698 922.386108C465.937698 897.434540,456.024246 873.507904,438.382172 855.865814C420.740082 838.223740,396.813446 828.310287,371.861877 828.310287C346.910309 828.310287,322.983673 838.223740,305.341583 855.865814C287.699509 873.507904,277.786057 897.434540,277.786057 922.386108C277.786057 947.337677,287.699509 971.264313,305.341583 988.906403C322.983673 1006.548477,346.910309 1016.461929,371.861877 1016.461929C396.813446 1016.461929,420.740082 1006.548477,438.382172 988.906403C456.024246 971.264313,465.937698 947.337677,465.937698 922.386108Z" style="stroke:rgb(25.500488%,41.000366%,88.400269%); stroke-width: 2.500000;stroke-linecap: round;stroke-linejoin: round;stroke-miterlimit: 10.000000;fill: none;"></path>
  <path d="M340.161575 814.620636C340.161575 789.669067,330.248123 765.742432,312.606049 748.100342C294.963959 730.458267,271.037323 720.544815,246.085754 720.544815C221.134186 720.544815,197.207550 730.458267,179.565460 748.100342C161.923386 765.742432,152.009933 789.669067,152.009933 814.620636C152.009933 839.572205,161.923386 863.498840,179.565460 881.140930C197.207550 898.783005,221.134186 908.696457,246.085754 908.696457C271.037323 908.696457,294.963959 898.783005,312.606049 881.140930C330.248123 863.498840,340.161575 839.572205,340.161575 814.620636Z" style="stroke:rgb(25.500488%,41.000366%,88.400269%); stroke-width: 2.500000;stroke-linecap: round;stroke-linejoin: round;stroke-miterlimit: 10.000000;fill: none;"></path>
  <path d="M208.143997 747.353180C208.143997 722.401611,198.230545 698.474976,180.588470 680.832886C162.946381 663.190811,139.019745 653.277359,114.068176 653.277359C89.116608 653.277359,65.189972 663.190811,47.547882 680.832886C29.905807 698.474976,19.992355 722.401611,19.992355 747.353180C19.992355 772.304749,29.905807 796.231384,47.547882 813.873474C65.189972 831.515549,89.116608 841.429001,114.068176 841.429001C139.019745 841.429001,162.946381 831.515549,180.588470 813.873474C198.230545 796.231384,208.143997 772.304749,208.143997 747.353180Z" style="stroke:rgb(25.500488%,41.000366%,88.400269%); stroke-width: 2.500000;stroke-linecap: round;stroke-linejoin: round;stroke-miterlimit: 10.000000;fill: none;"></path>
  <path d="M1173.063477 1666.052231C1173.063477 1641.100662,1163.150024 1617.174026,1145.507950 1599.531937C1127.865860 1581.889862,1103.939224 1571.976410,1078.987656 1571.976410C1054.036087 1571.976410,1030.109451 1581.889862,1012.467361 1599.531937C994.825287 1617.174026,984.911835 1641.100662,984.911835 1666.052231C984.911835 1691.003799,994.825287 1714.930435,1012.467361 1732.572525C1030.109451 1750.214600,1054.036087 1760.128052,1078.987656 1760.128052C1103.939224 1760.128052,1127.865860 1750.214600,1145.507950 1732.572525C1163.150024 1714.930435,1173.063477 1691.003799,1173.063477 1666.052231Z" style="stroke:rgb(25.500488%,41.000366%,88.400269%); stroke-width: 2.500000;stroke-linecap: round;stroke-linejoin: round;stroke-miterlimit: 10.000000;fill: none;"></path>
  <path d="M1046.729385 1619.805862C1046.729385 1594.854294,1036.815933 1570.927658,1019.173859 1553.285568C1001.531769 1535.643494,977.605133 1525.730042,952.653564 1525.730042C927.701996 1525.730042,903.775360 1535.643494,886.133270 1553.285568C868.491196 1570.927658,858.577744 1594.854294,858.577744 1619.805862C858.577744 1644.757431,868.491196 1668.684067,886.133270 1686.326157C903.775360 1703.968231,927.701996 1713.881683,952.653564 1713.881683C977.605133 1713.881683,1001.531769 1703.968231,1019.173859 1686.326157C1036.815933 1668.684067,1046.729385 1644.757431,1046.729385 1619.805862Z" style="stroke:rgb(25.500488%,41.000366%,88.400269%); stroke-width: 2.500000;stroke-linecap: round;stroke-linejoin: round;stroke-miterlimit: 10.000000;fill: none;"></path>
  <path d="M937.173218 1497.455383C937.173218 1472.503815,927.259766 1448.577179,909.617691 1430.935089C891.975601 1413.293015,868.048965 1403.379562,843.097397 1403.379562C818.145828 1403.379562,794.219193 1413.293015,776.577103 1430.935089C758.935028 1448.577179,749.021576 1472.503815,749.021576 1497.455383C749.021576 1522.406952,758.935028 1546.333588,776.577103 1563.975677C794.219193 1581.617752,818.145828 1591.531204,843.097397 1591.531204C868.048965 1591.531204,891.975601 1581.617752,909.617691 1563.975677C927.259766 1546.333588,937.173218 1522.406952,937.173218 1497.455383Z" style="stroke:rgb(25.500488%,41.000366%,88.400269%); stroke-width: 2.500000;stroke-linecap: round;stroke-linejoin: round;stroke-miterlimit: 10.000000;fill: none;"></path>
  <path d="M813.979309 1387.289352C813.979309 1362.337784,804.065857 1338.411148,786.423782 1320.769058C768.781693 1303.126984,744.855057 1293.213531,719.903488 1293.213531C694.951920 1293.213531,671.025284 1303.126984,653.383194 1320.769058C635.741119 1338.411148,625.827667 1362.337784,625.827667 1387.289352C625.827667 1412.240921,635.741119 1436.167557,653.383194 1453.809647C671.025284 1471.451721,694.951920 1481.365173,719.903488 1481.365173C744.855057 1481.365173,768.781693 1471.451721,786.423782 1453.809647C804.065857 1436.167557,813.979309 1412.240921,813.979309 1387.289352Z" style="stroke:rgb(25.500488%,41.000366%,88.400269%); stroke-width: 2.500000;stroke-linecap: round;stroke-linejoin: round;stroke-miterlimit: 10.000000;fill: none;"></path>
  <path d="M689.396973 1281.275635C689.396973 1256.324066,679.483521 1232.397430,661.841446 1214.755341C644.199356 1197.113266,620.272720 1187.199814,595.321152 1187.199814C570.369583 1187.199814,546.442947 1197.113266,528.800858 1214.755341C511.158783 1232.397430,501.245331 1256.324066,501.245331 1281.275635C501.245331 1306.227203,511.158783 1330.153839,528.800858 1347.795929C546.442947 1365.438004,570.369583 1375.351456,595.321152 1375.351456C620.272720 1375.351456,644.199356 1365.438004,661.841446 1347.795929C679.483521 1330.153839,689.396973 1306.227203,689.396973 1281.275635Z" style="stroke:rgb(25.500488%,41.000366%,88.400269%); stroke-width: 2.500000;stroke-linecap: round;stroke-linejoin: round;stroke-miterlimit: 10.000000;fill: none;"></path>
  <path d="M562.076706 1181.256821C562.076706 1156.305252,552.163254 1132.378616,534.521179 1114.736526C516.879089 1097.094452,492.952454 1087.181000,468.000885 1087.181000C443.049316 1087.181000,419.122681 1097.094452,401.480591 1114.736526C383.838516 1132.378616,373.925064 1156.305252,373.925064 1181.256821C373.925064 1206.208389,383.838516 1230.135025,401.480591 1247.777115C419.122681 1265.419189,443.049316 1275.332642,468.000885 1275.332642C492.952454 1275.332642,516.879089 1265.419189,534.521179 1247.777115C552.163254 1230.135025,562.076706 1206.208389,562.076706 1181.256821Z" style="stroke:rgb(25.500488%,41.000366%,88.400269%); stroke-width: 2.500000;stroke-linecap: round;stroke-linejoin: round;stroke-miterlimit: 10.000000;fill: none;"></path>
  <path d="M426.828110 1084.456039C426.828110 1059.504471,416.914658 1035.577835,399.272583 1017.935745C381.630493 1000.293671,357.703857 990.380219,332.752289 990.380219C307.800720 990.380219,283.874084 1000.293671,266.231995 1017.935745C248.589920 1035.577835,238.676468 1059.504471,238.676468 1084.456039C238.676468 1109.407608,248.589920 1133.334244,266.231995 1150.976334C283.874084 1168.618408,307.800720 1178.531860,332.752289 1178.531860C357.703857 1178.531860,381.630493 1168.618408,399.272583 1150.976334C416.914658 1133.334244,426.828110 1109.407608,426.828110 1084.456039Z" style="stroke:rgb(25.500488%,41.000366%,88.400269%); stroke-width: 2.500000;stroke-linecap: round;stroke-linejoin: round;stroke-miterlimit: 10.000000;fill: none;"></path>
  <path d="M325.355988 982.906052C325.355988 957.954483,315.442535 934.027847,297.800461 916.385757C280.158371 898.743683,256.231735 888.830231,231.280167 888.830231C206.328598 888.830231,182.401962 898.743683,164.759872 916.385757C147.117798 934.027847,137.204346 957.954483,137.204346 982.906052C137.204346 1007.857620,147.117798 1031.784256,164.759872 1049.426346C182.401962 1067.068420,206.328598 1076.981873,231.280167 1076.981873C256.231735 1076.981873,280.158371 1067.068420,297.800461 1049.426346C315.442535 1031.784256,325.355988 1007.857620,325.355988 982.906052Z" style="stroke:rgb(25.500488%,41.000366%,88.400269%); stroke-width: 2.500000;stroke-linecap: round;stroke-linejoin: round;stroke-miterlimit: 10.000000;fill: none;"></path>
  <path d="M205.003815 858.167999C205.003815 833.216431,195.090363 809.289795,177.448288 791.647705C159.806198 774.005630,135.879562 764.092178,110.927994 764.092178C85.976425 764.092178,62.049789 774.005630,44.407700 791.647705C26.765625 809.289795,16.852173 833.216431,16.852173 858.167999C16.852173 883.119568,26.765625 907.046204,44.407700 924.688293C62.049789 942.330368,85.976425 952.243820,110.927994 952.243820C135.879562 952.243820,159.806198 942.330368,177.448288 924.688293C195.090363 907.046204,205.003815 883.119568,205.003815 858.167999Z" style="stroke:rgb(25.500488%,41.000366%,88.400269%); stroke-width: 2.500000;stroke-linecap: round;stroke-linejoin: round;stroke-miterlimit: 10.000000;fill: none;"></path>
  <path d="M918.267227 1657.552963C918.267227 1632.601395,908.353775 1608.674759,890.711700 1591.032669C873.069611 1573.390594,849.142975 1563.477142,824.191406 1563.477142C799.239838 1563.477142,775.313202 1573.390594,757.671112 1591.032669C740.029037 1608.674759,730.115585 1632.601395,730.115585 1657.552963C730.115585 1682.504532,740.029037 1706.431168,757.671112 1724.073257C775.313202 1741.715332,799.239838 1751.628784,824.191406 1751.628784C849.142975 1751.628784,873.069611 1741.715332,890.711700 1724.073257C908.353775 1706.431168,918.267227 1682.504532,918.267227 1657.552963Z" style="stroke:rgb(25.500488%,41.000366%,88.400269%); stroke-width: 2.500000;stroke-linecap: round;stroke-linejoin: round;stroke-miterlimit: 10.000000;fill: none;"></path>
  <path d="M787.975464 1550.241653C787.975464 1525.290085,778.062012 1501.363449,760.419937 1483.721359C742.777847 1466.079285,718.851212 1456.165833,693.899643 1456.165833C668.948074 1456.165833,645.021439 1466.079285,627.379349 1483.721359C609.737274 1501.363449,599.823822 1525.290085,599.823822 1550.241653C599.823822 1575.193222,609.737274 1599.119858,627.379349 1616.761948C645.021439 1634.404022,668.948074 1644.317474,693.899643 1644.317474C718.851212 1644.317474,742.777847 1634.404022,760.419937 1616.761948C778.062012 1599.119858,787.975464 1575.193222,787.975464 1550.241653Z" style="stroke:rgb(25.500488%,41.000366%,88.400269%); stroke-width: 2.500000;stroke-linecap: round;stroke-linejoin: round;stroke-miterlimit: 10.000000;fill: none;"></path>
  <path d="M663.951080 1444.020325C663.951080 1419.068756,654.037628 1395.142120,636.395554 1377.500031C618.753464 1359.857956,594.826828 1349.944504,569.875259 1349.944504C544.923691 1349.944504,520.997055 1359.857956,503.354965 1377.500031C485.712891 1395.142120,475.799438 1419.068756,475.799438 1444.020325C475.799438 1468.971893,485.712891 1492.898529,503.354965 1510.540619C520.997055 1528.182693,544.923691 1538.096146,569.875259 1538.096146C594.826828 1538.096146,618.753464 1528.182693,636.395554 1510.540619C654.037628 1492.898529,663.951080 1468.971893,663.951080 1444.020325Z" style="stroke:rgb(25.500488%,41.000366%,88.400269%); stroke-width: 2.500000;stroke-linecap: round;stroke-linejoin: round;stroke-miterlimit: 10.000000;fill: none;"></path>
  <path d="M538.512329 1343.313766C538.512329 1318.362198,528.598877 1294.435562,510.956802 1276.793472C493.314713 1259.151398,469.388077 1249.237946,444.436508 1249.237946C419.484940 1249.237946,395.558304 1259.151398,377.916214 1276.793472C360.274139 1294.435562,350.360687 1318.362198,350.360687 1343.313766C350.360687 1368.265335,360.274139 1392.191971,377.916214 1409.834061C395.558304 1427.476135,419.484940 1437.389587,444.436508 1437.389587C469.388077 1437.389587,493.314713 1427.476135,510.956802 1409.834061C528.598877 1392.191971,538.512329 1368.265335,538.512329 1343.313766Z" style="stroke:rgb(25.500488%,41.000366%,88.400269%); stroke-width: 2.500000;stroke-linecap: round;stroke-linejoin: round;stroke-miterlimit: 10.000000;fill: none;"></path>
  <path d="M411.243973 1242.970551C411.243973 1218.018982,401.330521 1194.092346,383.688446 1176.450256C366.046356 1158.808182,342.119720 1148.894730,317.168152 1148.894730C292.216583 1148.894730,268.289948 1158.808182,250.647858 1176.450256C233.005783 1194.092346,223.092331 1218.018982,223.092331 1242.970551C223.092331 1267.922119,233.005783 1291.848755,250.647858 1309.490845C268.289948 1327.132919,292.216583 1337.046371,317.168152 1337.046371C342.119720 1337.046371,366.046356 1327.132919,383.688446 1309.490845C401.330521 1291.848755,411.243973 1267.922119,411.243973 1242.970551Z" style="stroke:rgb(25.500488%,41.000366%,88.400269%); stroke-width: 2.500000;stroke-linecap: round;stroke-linejoin: round;stroke-miterlimit: 10.000000;fill: none;"></path>
  <path d="M275.450378 1151.022797C275.450378 1126.071228,265.536926 1102.144592,247.894852 1084.502502C230.252762 1066.860428,206.326126 1056.946976,181.374557 1056.946976C156.422989 1056.946976,132.496353 1066.860428,114.854263 1084.502502C97.212189 1102.144592,87.298737 1126.071228,87.298737 1151.022797C87.298737 1175.974365,97.212189 1199.901001,114.854263 1217.543091C132.496353 1235.185165,156.422989 1245.098618,181.374557 1245.098618C206.326126 1245.098618,230.252762 1235.185165,247.894852 1217.543091C265.536926 1199.901001,275.450378 1175.974365,275.450378 1151.022797Z" style="stroke:rgb(25.500488%,41.000366%,88.400269%); stroke-width: 2.500000;stroke-linecap: round;stroke-linejoin: round;stroke-miterlimit: 10.000000;fill: none;"></path>
  <path d="M188.615158 1025.454285C188.615158 1000.502716,178.701706 976.576080,161.059631 958.933990C143.417542 941.291916,119.490906 931.378464,94.539337 931.378464C69.587769 931.378464,45.661133 941.291916,28.019043 958.933990C10.376968 976.576080,0.463516 1000.502716,0.463516 1025.454285C0.463516 1050.405853,10.376968 1074.332489,28.019043 1091.974579C45.661133 1109.616653,69.587769 1119.530106,94.539337 1119.530106C119.490906 1119.530106,143.417542 1109.616653,161.059631 1091.974579C178.701706 1074.332489,188.615158 1050.405853,188.615158 1025.454285Z" style="stroke:rgb(25.500488%,41.000366%,88.400269%); stroke-width: 2.500000;stroke-linecap: round;stroke-linejoin: round;stroke-miterlimit: 10.000000;fill: none;"></path>
  <path d="M743.844162 1680.520447C743.844162 1655.568878,733.930710 1631.642242,716.288635 1614.000153C698.646545 1596.358078,674.719910 1586.444626,649.768341 1586.444626C624.816772 1586.444626,600.890137 1596.358078,583.248047 1614.000153C565.605972 1631.642242,555.692520 1655.568878,555.692520 1680.520447C555.692520 1705.472015,565.605972 1729.398651,583.248047 1747.040741C600.890137 1764.682816,624.816772 1774.596268,649.768341 1774.596268C674.719910 1774.596268,698.646545 1764.682816,716.288635 1747.040741C733.930710 1729.398651,743.844162 1705.472015,743.844162 1680.520447Z" style="stroke:rgb(25.500488%,41.000366%,88.400269%); stroke-width: 2.500000;stroke-linecap: round;stroke-linejoin: round;stroke-miterlimit: 10.000000;fill: none;"></path>
  <path d="M625.269699 1595.125549C625.269699 1570.173981,615.356247 1546.247345,597.714172 1528.605255C580.072083 1510.963181,556.145447 1501.049728,531.193878 1501.049728C506.242310 1501.049728,482.315674 1510.963181,464.673584 1528.605255C447.031509 1546.247345,437.118057 1570.173981,437.118057 1595.125549C437.118057 1620.077118,447.031509 1644.003754,464.673584 1661.645844C482.315674 1679.287918,506.242310 1689.201370,531.193878 1689.201370C556.145447 1689.201370,580.072083 1679.287918,597.714172 1661.645844C615.356247 1644.003754,625.269699 1620.077118,625.269699 1595.125549Z" style="stroke:rgb(25.500488%,41.000366%,88.400269%); stroke-width: 2.500000;stroke-linecap: round;stroke-linejoin: round;stroke-miterlimit: 10.000000;fill: none;"></path>
  <path d="M502.945190 1496.988251C502.945190 1472.036682,493.031738 1448.110046,475.389664 1430.467957C457.747574 1412.825882,433.820938 1402.912430,408.869370 1402.912430C383.917801 1402.912430,359.991165 1412.825882,342.349075 1430.467957C324.707001 1448.110046,314.793549 1472.036682,314.793549 1496.988251C314.793549 1521.939819,324.707001 1545.866455,342.349075 1563.508545C359.991165 1581.150620,383.917801 1591.064072,408.869370 1591.064072C433.820938 1591.064072,457.747574 1581.150620,475.389664 1563.508545C493.031738 1545.866455,502.945190 1521.939819,502.945190 1496.988251Z" style="stroke:rgb(25.500488%,41.000366%,88.400269%); stroke-width: 2.500000;stroke-linecap: round;stroke-linejoin: round;stroke-miterlimit: 10.000000;fill: none;"></path>
  <path d="M377.558334 1395.957306C377.558334 1371.005737,367.644882 1347.079102,350.002808 1329.437012C332.360718 1311.794937,308.434082 1301.881485,283.482513 1301.881485C258.530945 1301.881485,234.604309 1311.794937,216.962219 1329.437012C199.320145 1347.079102,189.406693 1371.005737,189.406693 1395.957306C189.406693 1420.908875,199.320145 1444.835510,216.962219 1462.477600C234.604309 1480.119675,258.530945 1490.033127,283.482513 1490.033127C308.434082 1490.033127,332.360718 1480.119675,350.002808 1462.477600C367.644882 1444.835510,377.558334 1420.908875,377.558334 1395.957306Z" style="stroke:rgb(25.500488%,41.000366%,88.400269%); stroke-width: 2.500000;stroke-linecap: round;stroke-linejoin: round;stroke-miterlimit: 10.000000;fill: none;"></path>
  <path d="M250.873886 1291.928909C250.873886 1266.977341,240.960434 1243.050705,223.318359 1225.408615C205.676270 1207.766541,181.749634 1197.853088,156.798065 1197.853088C131.846497 1197.853088,107.919861 1207.766541,90.277771 1225.408615C72.635696 1243.050705,62.722244 1266.977341,62.722244 1291.928909C62.722244 1316.880478,72.635696 1340.807114,90.277771 1358.449203C107.919861 1376.091278,131.846497 1386.004730,156.798065 1386.004730C181.749634 1386.004730,205.676270 1376.091278,223.318359 1358.449203C240.960434 1340.807114,250.873886 1316.880478,250.873886 1291.928909Z" style="stroke:rgb(25.500488%,41.000366%,88.400269%); stroke-width: 2.500000;stroke-linecap: round;stroke-linejoin: round;stroke-miterlimit: 10.000000;fill: none;"></path>
</svg>
