<?xml version="1.0"?>
<!-- Created by MetaPost 2.00 on 2022.03.02:1201 -->
<svg version="1.1" xmlns="http://www.w3.org/2000/svg" xmlns:xlink="http://www.w3.org/1999/xlink" width="1670.431870" height="1618.034882" viewBox="0 0 1670.431870 1618.034882">
<!-- Original BoundingBox: -845.843262 -740.037155 824.588608 877.997726 -->
  <path d="M845.000000 26.606476L36.233398 614.210541L345.152451 1564.986221L1344.847549 1564.986221L1653.766602 614.210541L845.000000 26.606476Z" style="fill: rgb(100.000000%,100.000000%,100.000000%);stroke: none;"></path>
  <path d="M845.000000 26.606476L36.233398 614.210541" style="stroke:rgb(0.000000%,0.000000%,0.000000%); stroke-width: 2.500000;stroke-linecap: round;stroke-linejoin: round;stroke-miterlimit: 10.000000;fill: none;"></path>
  <path d="M36.233398 614.210541L345.152451 1564.986221" style="stroke:rgb(0.000000%,0.000000%,0.000000%); stroke-width: 2.500000;stroke-linecap: round;stroke-linejoin: round;stroke-miterlimit: 10.000000;fill: none;"></path>
  <path d="M345.152451 1564.986221L1344.847549 1564.986221" style="stroke:rgb(0.000000%,0.000000%,0.000000%); stroke-width: 2.500000;stroke-linecap: round;stroke-linejoin: round;stroke-miterlimit: 10.000000;fill: none;"></path>
  <path d="M1344.847549 1564.986221L1653.766602 614.210541" style="stroke:rgb(0.000000%,0.000000%,0.000000%); stroke-width: 2.500000;stroke-linecap: round;stroke-linejoin: round;stroke-miterlimit: 10.000000;fill: none;"></path>
  <path d="M1653.766602 614.210541L845.000000 26.606476" style="stroke:rgb(0.000000%,0.000000%,0.000000%); stroke-width: 2.500000;stroke-linecap: round;stroke-linejoin: round;stroke-miterlimit: 10.000000;fill: none;"></path>
  <path d="M1416.539810 1497.368408C1416.539810 1471.838654,1406.396652 1447.357590,1388.345749 1429.306686C1370.294846 1411.255783,1345.813782 1401.112625,1320.284027 1401.112625C1294.754272 1401.112625,1270.273209 1411.255783,1252.222305 1429.306686C1234.171402 1447.357590,1224.028244 1471.838654,1224.028244 1497.368408C1224.028244 1522.898163,1234.171402 1547.379227,1252.222305 1565.430130C1270.273209 1583.481033,1294.754272 1593.624191,1320.284027 1593.624191C1345.813782 1593.624191,1370.294846 1583.481033,1388.345749 1565.430130C1406.396652 1547.379227,1416.539810 1522.898163,1416.539810 1497.368408Z" style="stroke:rgb(25.500488%,41.000366%,88.400269%); stroke-width: 2.500000;stroke-linecap: round;stroke-linejoin: round;stroke-miterlimit: 10.000000;fill: none;"></path>
  <path d="M1296.226562 1483.873398C1296.226562 1458.343643,1286.083405 1433.862579,1268.032501 1415.811676C1249.981598 1397.760773,1225.500534 1387.617615,1199.970779 1387.617615C1174.441025 1387.617615,1149.959961 1397.760773,1131.909058 1415.811676C1113.858154 1433.862579,1103.714996 1458.343643,1103.714996 1483.873398C1103.714996 1509.403152,1113.858154 1533.884216,1131.909058 1551.935120C1149.959961 1569.986023,1174.441025 1580.129181,1199.970779 1580.129181C1225.500534 1580.129181,1249.981598 1569.986023,1268.032501 1551.935120C1286.083405 1533.884216,1296.226562 1509.403152,1296.226562 1483.873398Z" style="stroke:rgb(25.500488%,41.000366%,88.400269%); stroke-width: 2.500000;stroke-linecap: round;stroke-linejoin: round;stroke-miterlimit: 10.000000;fill: none;"></path>
  <path d="M1427.828903 1352.348907C1427.828903 1326.819153,1417.685745 1302.338089,1399.634842 1284.287186C1381.583939 1266.236282,1357.102875 1256.093124,1331.573120 1256.093124C1306.043365 1256.093124,1281.562302 1266.236282,1263.511398 1284.287186C1245.460495 1302.338089,1235.317337 1326.819153,1235.317337 1352.348907C1235.317337 1377.878662,1245.460495 1402.359726,1263.511398 1420.410629C1281.562302 1438.461533,1306.043365 1448.604691,1331.573120 1448.604691C1357.102875 1448.604691,1381.583939 1438.461533,1399.634842 1420.410629C1417.685745 1402.359726,1427.828903 1377.878662,1427.828903 1352.348907Z" style="stroke:rgb(25.500488%,41.000366%,88.400269%); stroke-width: 2.500000;stroke-linecap: round;stroke-linejoin: round;stroke-miterlimit: 10.000000;fill: none;"></path>
  <path d="M1488.543503 1232.230301C1488.543503 1206.700546,1478.400345 1182.219482,1460.349442 1164.168579C1442.298538 1146.117676,1417.817474 1135.974518,1392.287720 1135.974518C1366.757965 1135.974518,1342.276901 1146.117676,1324.225998 1164.168579C1306.175095 1182.219482,1296.031937 1206.700546,1296.031937 1232.230301C1296.031937 1257.760056,1306.175095 1282.241119,1324.225998 1300.292023C1342.276901 1318.342926,1366.757965 1328.486084,1392.287720 1328.486084C1417.817474 1328.486084,1442.298538 1318.342926,1460.349442 1300.292023C1478.400345 1282.241119,1488.543503 1257.760056,1488.543503 1232.230301Z" style="stroke:rgb(25.500488%,41.000366%,88.400269%); stroke-width: 2.500000;stroke-linecap: round;stroke-linejoin: round;stroke-miterlimit: 10.000000;fill: none;"></path>
  <path d="M1540.356567 1084.369064C1540.356567 1058.839310,1530.213409 1034.358246,1512.162506 1016.307343C1494.111603 998.256439,1469.630539 988.113281,1444.100784 988.113281C1418.571030 988.113281,1394.089966 998.256439,1376.039062 1016.307343C1357.988159 1034.358246,1347.845001 1058.839310,1347.845001 1084.369064C1347.845001 1109.898819,1357.988159 1134.379883,1376.039062 1152.430786C1394.089966 1170.481689,1418.571030 1180.624847,1444.100784 1180.624847C1469.630539 1180.624847,1494.111603 1170.481689,1512.162506 1152.430786C1530.213409 1134.379883,1540.356567 1109.898819,1540.356567 1084.369064Z" style="stroke:rgb(25.500488%,41.000366%,88.400269%); stroke-width: 2.500000;stroke-linecap: round;stroke-linejoin: round;stroke-miterlimit: 10.000000;fill: none;"></path>
  <path d="M1585.422134 934.262985C1585.422134 908.733231,1575.278976 884.252167,1557.228073 866.201263C1539.177170 848.150360,1514.696106 838.007202,1489.166351 838.007202C1463.636597 838.007202,1439.155533 848.150360,1421.104630 866.201263C1403.053726 884.252167,1392.910568 908.733231,1392.910568 934.262985C1392.910568 959.792740,1403.053726 984.273804,1421.104630 1002.324707C1439.155533 1020.375610,1463.636597 1030.518768,1489.166351 1030.518768C1514.696106 1030.518768,1539.177170 1020.375610,1557.228073 1002.324707C1575.278976 984.273804,1585.422134 959.792740,1585.422134 934.262985Z" style="stroke:rgb(25.500488%,41.000366%,88.400269%); stroke-width: 2.500000;stroke-linecap: round;stroke-linejoin: round;stroke-miterlimit: 10.000000;fill: none;"></path>
  <path d="M1668.338608 782.612762C1668.338608 757.083008,1658.195450 732.601944,1640.144547 714.551041C1622.093643 696.500137,1597.612579 686.356979,1572.082825 686.356979C1546.553070 686.356979,1522.072006 696.500137,1504.021103 714.551041C1485.970200 732.601944,1475.827042 757.083008,1475.827042 782.612762C1475.827042 808.142517,1485.970200 832.623581,1504.021103 850.674484C1522.072006 868.725388,1546.553070 878.868546,1572.082825 878.868546C1597.612579 878.868546,1622.093643 868.725388,1640.144547 850.674484C1658.195450 832.623581,1668.338608 808.142517,1668.338608 782.612762Z" style="stroke:rgb(25.500488%,41.000366%,88.400269%); stroke-width: 2.500000;stroke-linecap: round;stroke-linejoin: round;stroke-miterlimit: 10.000000;fill: none;"></path>
  <path d="M1163.819717 1512.316727C1163.819717 1486.786972,1153.676559 1462.305908,1135.625656 1444.255005C1117.574753 1426.204102,1093.093689 1416.060944,1067.563934 1416.060944C1042.034180 1416.060944,1017.553116 1426.204102,999.502213 1444.255005C981.451309 1462.305908,971.308151 1486.786972,971.308151 1512.316727C971.308151 1537.846481,981.451309 1562.327545,999.502213 1580.378448C1017.553116 1598.429352,1042.034180 1608.572510,1067.563934 1608.572510C1093.093689 1608.572510,1117.574753 1598.429352,1135.625656 1580.378448C1153.676559 1562.327545,1163.819717 1537.846481,1163.819717 1512.316727Z" style="stroke:rgb(25.500488%,41.000366%,88.400269%); stroke-width: 2.500000;stroke-linecap: round;stroke-linejoin: round;stroke-miterlimit: 10.000000;fill: none;"></path>
  <path d="M1255.832352 1363.313599C1255.832352 1337.783844,1245.689194 1313.302780,1227.638290 1295.251877C1209.587387 1277.200974,1185.106323 1267.057816,1159.576569 1267.057816C1134.046814 1267.057816,1109.565750 1277.200974,1091.514847 1295.251877C1073.463943 1313.302780,1063.320786 1337.783844,1063.320786 1363.313599C1063.320786 1388.843353,1073.463943 1413.324417,1091.514847 1431.375320C1109.565750 1449.426224,1134.046814 1459.569382,1159.576569 1459.569382C1185.106323 1459.569382,1209.587387 1449.426224,1227.638290 1431.375320C1245.689194 1413.324417,1255.832352 1388.843353,1255.832352 1363.313599Z" style="stroke:rgb(25.500488%,41.000366%,88.400269%); stroke-width: 2.500000;stroke-linecap: round;stroke-linejoin: round;stroke-miterlimit: 10.000000;fill: none;"></path>
  <path d="M1328.121521 1219.410034C1328.121521 1193.880280,1317.978363 1169.399216,1299.927460 1151.348312C1281.876556 1133.297409,1257.395493 1123.154251,1231.865738 1123.154251C1206.335983 1123.154251,1181.854919 1133.297409,1163.804016 1151.348312C1145.753113 1169.399216,1135.609955 1193.880280,1135.609955 1219.410034C1135.609955 1244.939789,1145.753113 1269.420853,1163.804016 1287.471756C1181.854919 1305.522659,1206.335983 1315.665817,1231.865738 1315.665817C1257.395493 1315.665817,1281.876556 1305.522659,1299.927460 1287.471756C1317.978363 1269.420853,1328.121521 1244.939789,1328.121521 1219.410034Z" style="stroke:rgb(25.500488%,41.000366%,88.400269%); stroke-width: 2.500000;stroke-linecap: round;stroke-linejoin: round;stroke-miterlimit: 10.000000;fill: none;"></path>
  <path d="M1388.005646 1080.074020C1388.005646 1054.544266,1377.862488 1030.063202,1359.811584 1012.012299C1341.760681 993.961395,1317.279617 983.818237,1291.749863 983.818237C1266.220108 983.818237,1241.739044 993.961395,1223.688141 1012.012299C1205.637238 1030.063202,1195.494080 1054.544266,1195.494080 1080.074020C1195.494080 1105.603775,1205.637238 1130.084839,1223.688141 1148.135742C1241.739044 1166.186646,1266.220108 1176.329803,1291.749863 1176.329803C1317.279617 1176.329803,1341.760681 1166.186646,1359.811584 1148.135742C1377.862488 1130.084839,1388.005646 1105.603775,1388.005646 1080.074020Z" style="stroke:rgb(25.500488%,41.000366%,88.400269%); stroke-width: 2.500000;stroke-linecap: round;stroke-linejoin: round;stroke-miterlimit: 10.000000;fill: none;"></path>
  <path d="M1457.375198 927.567383C1457.375198 902.037628,1447.232040 877.556564,1429.181137 859.505661C1411.130234 841.454758,1386.649170 831.311600,1361.119415 831.311600C1335.589661 831.311600,1311.108597 841.454758,1293.057693 859.505661C1275.006790 877.556564,1264.863632 902.037628,1264.863632 927.567383C1264.863632 953.097137,1275.006790 977.578201,1293.057693 995.629105C1311.108597 1013.680008,1335.589661 1023.823166,1361.119415 1023.823166C1386.649170 1023.823166,1411.130234 1013.680008,1429.181137 995.629105C1447.232040 977.578201,1457.375198 953.097137,1457.375198 927.567383Z" style="stroke:rgb(25.500488%,41.000366%,88.400269%); stroke-width: 2.500000;stroke-linecap: round;stroke-linejoin: round;stroke-miterlimit: 10.000000;fill: none;"></path>
  <path d="M1529.417816 763.057953C1529.417816 737.528198,1519.274658 713.047134,1501.223755 694.996231C1483.172852 676.945328,1458.691788 666.802170,1433.162033 666.802170C1407.632278 666.802170,1383.151215 676.945328,1365.100311 694.996231C1347.049408 713.047134,1336.906250 737.528198,1336.906250 763.057953C1336.906250 788.587708,1347.049408 813.068771,1365.100311 831.119675C1383.151215 849.170578,1407.632278 859.313736,1433.162033 859.313736C1458.691788 859.313736,1483.172852 849.170578,1501.223755 831.119675C1519.274658 813.068771,1529.417816 788.587708,1529.417816 763.057953Z" style="stroke:rgb(25.500488%,41.000366%,88.400269%); stroke-width: 2.500000;stroke-linecap: round;stroke-linejoin: round;stroke-miterlimit: 10.000000;fill: none;"></path>
  <path d="M1655.466446 632.195251C1655.466446 606.665497,1645.323288 582.184433,1627.272385 564.133530C1609.221481 546.082626,1584.740417 535.939468,1559.210663 535.939468C1533.680908 535.939468,1509.199844 546.082626,1491.148941 564.133530C1473.098038 582.184433,1462.954880 606.665497,1462.954880 632.195251C1462.954880 657.725006,1473.098038 682.206070,1491.148941 700.256973C1509.199844 718.307877,1533.680908 728.451035,1559.210663 728.451035C1584.740417 728.451035,1609.221481 718.307877,1627.272385 700.256973C1645.323288 682.206070,1655.466446 657.725006,1655.466446 632.195251Z" style="stroke:rgb(25.500488%,41.000366%,88.400269%); stroke-width: 2.500000;stroke-linecap: round;stroke-linejoin: round;stroke-miterlimit: 10.000000;fill: none;"></path>
  <path d="M1000.971222 1515.015732C1000.971222 1489.485977,990.828064 1465.004913,972.777161 1446.954010C954.726257 1428.903107,930.245193 1418.759949,904.715439 1418.759949C879.185684 1418.759949,854.704620 1428.903107,836.653717 1446.954010C818.602814 1465.004913,808.459656 1489.485977,808.459656 1515.015732C808.459656 1540.545486,818.602814 1565.026550,836.653717 1583.077454C854.704620 1601.128357,879.185684 1611.271515,904.715439 1611.271515C930.245193 1611.271515,954.726257 1601.128357,972.777161 1583.077454C990.828064 1565.026550,1000.971222 1540.545486,1000.971222 1515.015732Z" style="stroke:rgb(25.500488%,41.000366%,88.400269%); stroke-width: 2.500000;stroke-linecap: round;stroke-linejoin: round;stroke-miterlimit: 10.000000;fill: none;"></path>
  <path d="M1090.985565 1371.319778C1090.985565 1345.790024,1080.842407 1321.308960,1062.791504 1303.258057C1044.740601 1285.207153,1020.259537 1275.063995,994.729782 1275.063995C969.200027 1275.063995,944.718964 1285.207153,926.668060 1303.258057C908.617157 1321.308960,898.473999 1345.790024,898.473999 1371.319778C898.473999 1396.849533,908.617157 1421.330597,926.668060 1439.381500C944.718964 1457.432404,969.200027 1467.575562,994.729782 1467.575562C1020.259537 1467.575562,1044.740601 1457.432404,1062.791504 1439.381500C1080.842407 1421.330597,1090.985565 1396.849533,1090.985565 1371.319778Z" style="stroke:rgb(25.500488%,41.000366%,88.400269%); stroke-width: 2.500000;stroke-linecap: round;stroke-linejoin: round;stroke-miterlimit: 10.000000;fill: none;"></path>
  <path d="M1160.017746 1222.199875C1160.017746 1196.670120,1149.874588 1172.189056,1131.823685 1154.138153C1113.772781 1136.087250,1089.291718 1125.944092,1063.761963 1125.944092C1038.232208 1125.944092,1013.751144 1136.087250,995.700241 1154.138153C977.649338 1172.189056,967.506180 1196.670120,967.506180 1222.199875C967.506180 1247.729630,977.649338 1272.210693,995.700241 1290.261597C1013.751144 1308.312500,1038.232208 1318.455658,1063.761963 1318.455658C1089.291718 1318.455658,1113.772781 1308.312500,1131.823685 1290.261597C1149.874588 1272.210693,1160.017746 1247.729630,1160.017746 1222.199875Z" style="stroke:rgb(25.500488%,41.000366%,88.400269%); stroke-width: 2.500000;stroke-linecap: round;stroke-linejoin: round;stroke-miterlimit: 10.000000;fill: none;"></path>
  <path d="M1220.174377 1080.489243C1220.174377 1054.959488,1210.031219 1030.478424,1191.980316 1012.427521C1173.929413 994.376617,1149.448349 984.233459,1123.918594 984.233459C1098.388840 984.233459,1073.907776 994.376617,1055.856873 1012.427521C1037.805969 1030.478424,1027.662811 1054.959488,1027.662811 1080.489243C1027.662811 1106.018997,1037.805969 1130.500061,1055.856873 1148.550964C1073.907776 1166.601868,1098.388840 1176.745026,1123.918594 1176.745026C1149.448349 1176.745026,1173.929413 1166.601868,1191.980316 1148.550964C1210.031219 1130.500061,1220.174377 1106.018997,1220.174377 1080.489243Z" style="stroke:rgb(25.500488%,41.000366%,88.400269%); stroke-width: 2.500000;stroke-linecap: round;stroke-linejoin: round;stroke-miterlimit: 10.000000;fill: none;"></path>
  <path d="M1295.512894 937.260437C1295.512894 911.730682,1285.369736 887.249619,1267.318832 869.198715C1249.267929 851.147812,1224.786865 841.004654,1199.257111 841.004654C1173.727356 841.004654,1149.246292 851.147812,1131.195389 869.198715C1113.144485 887.249619,1103.001328 911.730682,1103.001328 937.260437C1103.001328 962.790192,1113.144485 987.271255,1131.195389 1005.322159C1149.246292 1023.373062,1173.727356 1033.516220,1199.257111 1033.516220C1224.786865 1033.516220,1249.267929 1023.373062,1267.318832 1005.322159C1285.369736 987.271255,1295.512894 962.790192,1295.512894 937.260437Z" style="stroke:rgb(25.500488%,41.000366%,88.400269%); stroke-width: 2.500000;stroke-linecap: round;stroke-linejoin: round;stroke-miterlimit: 10.000000;fill: none;"></path>
  <path d="M1374.860977 789.736572C1374.860977 764.206818,1364.717819 739.725754,1346.666916 721.674850C1328.616013 703.623947,1304.134949 693.480789,1278.605194 693.480789C1253.075439 693.480789,1228.594376 703.623947,1210.543472 721.674850C1192.492569 739.725754,1182.349411 764.206818,1182.349411 789.736572C1182.349411 815.266327,1192.492569 839.747391,1210.543472 857.798294C1228.594376 875.849197,1253.075439 885.992355,1278.605194 885.992355C1304.134949 885.992355,1328.616013 875.849197,1346.666916 857.798294C1364.717819 839.747391,1374.860977 815.266327,1374.860977 789.736572Z" style="stroke:rgb(25.500488%,41.000366%,88.400269%); stroke-width: 2.500000;stroke-linecap: round;stroke-linejoin: round;stroke-miterlimit: 10.000000;fill: none;"></path>
  <path d="M1475.749191 653.826202C1475.749191 628.296448,1465.606033 603.815384,1447.555130 585.764481C1429.504227 567.713577,1405.023163 557.570419,1379.493408 557.570419C1353.963654 557.570419,1329.482590 567.713577,1311.431686 585.764481C1293.380783 603.815384,1283.237625 628.296448,1283.237625 653.826202C1283.237625 679.355957,1293.380783 703.837021,1311.431686 721.887924C1329.482590 739.938828,1353.963654 750.081985,1379.493408 750.081985C1405.023163 750.081985,1429.504227 739.938828,1447.555130 721.887924C1465.606033 703.837021,1475.749191 679.355957,1475.749191 653.826202Z" style="stroke:rgb(25.500488%,41.000366%,88.400269%); stroke-width: 2.500000;stroke-linecap: round;stroke-linejoin: round;stroke-miterlimit: 10.000000;fill: none;"></path>
  <path d="M1547.246811 542.219833C1547.246811 516.690079,1537.103653 492.209015,1519.052750 474.158112C1501.001846 456.107208,1476.520782 445.964050,1450.991028 445.964050C1425.461273 445.964050,1400.980209 456.107208,1382.929306 474.158112C1364.878403 492.209015,1354.735245 516.690079,1354.735245 542.219833C1354.735245 567.749588,1364.878403 592.230652,1382.929306 610.281555C1400.980209 628.332458,1425.461273 638.475616,1450.991028 638.475616C1476.520782 638.475616,1501.001846 628.332458,1519.052750 610.281555C1537.103653 592.230652,1547.246811 567.749588,1547.246811 542.219833Z" style="stroke:rgb(25.500488%,41.000366%,88.400269%); stroke-width: 2.500000;stroke-linecap: round;stroke-linejoin: round;stroke-miterlimit: 10.000000;fill: none;"></path>
  <path d="M833.853638 1519.531372C833.853638 1494.001617,823.710480 1469.520554,805.659576 1451.469650C787.608673 1433.418747,763.127609 1423.275589,737.597855 1423.275589C712.068100 1423.275589,687.587036 1433.418747,669.536133 1451.469650C651.485229 1469.520554,641.342072 1494.001617,641.342072 1519.531372C641.342072 1545.061127,651.485229 1569.542191,669.536133 1587.593094C687.587036 1605.643997,712.068100 1615.787155,737.597855 1615.787155C763.127609 1615.787155,787.608673 1605.643997,805.659576 1587.593094C823.710480 1569.542191,833.853638 1545.061127,833.853638 1519.531372Z" style="stroke:rgb(25.500488%,41.000366%,88.400269%); stroke-width: 2.500000;stroke-linecap: round;stroke-linejoin: round;stroke-miterlimit: 10.000000;fill: none;"></path>
  <path d="M922.492523 1373.525696C922.492523 1347.995941,912.349365 1323.514877,894.298462 1305.463974C876.247559 1287.413071,851.766495 1277.269913,826.236740 1277.269913C800.706985 1277.269913,776.225922 1287.413071,758.175018 1305.463974C740.124115 1323.514877,729.980957 1347.995941,729.980957 1373.525696C729.980957 1399.055450,740.124115 1423.536514,758.175018 1441.587418C776.225922 1459.638321,800.706985 1469.781479,826.236740 1469.781479C851.766495 1469.781479,876.247559 1459.638321,894.298462 1441.587418C912.349365 1423.536514,922.492523 1399.055450,922.492523 1373.525696Z" style="stroke:rgb(25.500488%,41.000366%,88.400269%); stroke-width: 2.500000;stroke-linecap: round;stroke-linejoin: round;stroke-miterlimit: 10.000000;fill: none;"></path>
  <path d="M995.145004 1230.257950C995.145004 1204.728195,985.001846 1180.247131,966.950943 1162.196228C948.900040 1144.145325,924.418976 1134.002167,898.889221 1134.002167C873.359467 1134.002167,848.878403 1144.145325,830.827499 1162.196228C812.776596 1180.247131,802.633438 1204.728195,802.633438 1230.257950C802.633438 1255.787704,812.776596 1280.268768,830.827499 1298.319672C848.878403 1316.370575,873.359467 1326.513733,898.889221 1326.513733C924.418976 1326.513733,948.900040 1316.370575,966.950943 1298.319672C985.001846 1280.268768,995.145004 1255.787704,995.145004 1230.257950Z" style="stroke:rgb(25.500488%,41.000366%,88.400269%); stroke-width: 2.500000;stroke-linecap: round;stroke-linejoin: round;stroke-miterlimit: 10.000000;fill: none;"></path>
  <path d="M1052.044662 1083.330978C1052.044662 1057.801224,1041.901505 1033.320160,1023.850601 1015.269257C1005.799698 997.218353,981.318634 987.075195,955.788879 987.075195C930.259125 987.075195,905.778061 997.218353,887.727158 1015.269257C869.676254 1033.320160,859.533096 1057.801224,859.533096 1083.330978C859.533096 1108.860733,869.676254 1133.341797,887.727158 1151.392700C905.778061 1169.443604,930.259125 1179.586761,955.788879 1179.586761C981.318634 1179.586761,1005.799698 1169.443604,1023.850601 1151.392700C1041.901505 1133.341797,1052.044662 1108.860733,1052.044662 1083.330978Z" style="stroke:rgb(25.500488%,41.000366%,88.400269%); stroke-width: 2.500000;stroke-linecap: round;stroke-linejoin: round;stroke-miterlimit: 10.000000;fill: none;"></path>
  <path d="M1131.820953 938.856476C1131.820953 913.326721,1121.677795 888.845657,1103.626892 870.794754C1085.575989 852.743851,1061.094925 842.600693,1035.565170 842.600693C1010.035416 842.600693,985.554352 852.743851,967.503448 870.794754C949.452545 888.845657,939.309387 913.326721,939.309387 938.856476C939.309387 964.386230,949.452545 988.867294,967.503448 1006.918198C985.554352 1024.969101,1010.035416 1035.112259,1035.565170 1035.112259C1061.094925 1035.112259,1085.575989 1024.969101,1103.626892 1006.918198C1121.677795 988.867294,1131.820953 964.386230,1131.820953 938.856476Z" style="stroke:rgb(25.500488%,41.000366%,88.400269%); stroke-width: 2.500000;stroke-linecap: round;stroke-linejoin: round;stroke-miterlimit: 10.000000;fill: none;"></path>
  <path d="M1211.065247 791.176895C1211.065247 765.647141,1200.922089 741.166077,1182.871185 723.115173C1164.820282 705.064270,1140.339218 694.921112,1114.809464 694.921112C1089.279709 694.921112,1064.798645 705.064270,1046.747742 723.115173C1028.696838 741.166077,1018.553680 765.647141,1018.553680 791.176895C1018.553680 816.706650,1028.696838 841.187714,1046.747742 859.238617C1064.798645 877.289520,1089.279709 887.432678,1114.809464 887.432678C1140.339218 887.432678,1164.820282 877.289520,1182.871185 859.238617C1200.922089 841.187714,1211.065247 816.706650,1211.065247 791.176895Z" style="stroke:rgb(25.500488%,41.000366%,88.400269%); stroke-width: 2.500000;stroke-linecap: round;stroke-linejoin: round;stroke-miterlimit: 10.000000;fill: none;"></path>
  <path d="M1301.507782 653.216324C1301.507782 627.686569,1291.364624 603.205505,1273.313721 585.154602C1255.262817 567.103699,1230.781754 556.960541,1205.251999 556.960541C1179.722244 556.960541,1155.241180 567.103699,1137.190277 585.154602C1119.139374 603.205505,1108.996216 627.686569,1108.996216 653.216324C1108.996216 678.746078,1119.139374 703.227142,1137.190277 721.278046C1155.241180 739.328949,1179.722244 749.472107,1205.251999 749.472107C1230.781754 749.472107,1255.262817 739.328949,1273.313721 721.278046C1291.364624 703.227142,1301.507782 678.746078,1301.507782 653.216324Z" style="stroke:rgb(25.500488%,41.000366%,88.400269%); stroke-width: 2.500000;stroke-linecap: round;stroke-linejoin: round;stroke-miterlimit: 10.000000;fill: none;"></path>
  <path d="M1365.738861 519.148544C1365.738861 493.618790,1355.595703 469.137726,1337.544800 451.086823C1319.493896 433.035919,1295.012833 422.892761,1269.483078 422.892761C1243.953323 422.892761,1219.472260 433.035919,1201.421356 451.086823C1183.370453 469.137726,1173.227295 493.618790,1173.227295 519.148544C1173.227295 544.678299,1183.370453 569.159363,1201.421356 587.210266C1219.472260 605.261169,1243.953323 615.404327,1269.483078 615.404327C1295.012833 615.404327,1319.493896 605.261169,1337.544800 587.210266C1355.595703 569.159363,1365.738861 544.678299,1365.738861 519.148544Z" style="stroke:rgb(25.500488%,41.000366%,88.400269%); stroke-width: 2.500000;stroke-linecap: round;stroke-linejoin: round;stroke-miterlimit: 10.000000;fill: none;"></path>
  <path d="M1435.822113 407.905518C1435.822113 382.375763,1425.678955 357.894699,1407.628052 339.843796C1389.577148 321.792892,1365.096085 311.649734,1339.566330 311.649734C1314.036575 311.649734,1289.555511 321.792892,1271.504608 339.843796C1253.453705 357.894699,1243.310547 382.375763,1243.310547 407.905518C1243.310547 433.435272,1253.453705 457.916336,1271.504608 475.967239C1289.555511 494.018143,1314.036575 504.161301,1339.566330 504.161301C1365.096085 504.161301,1389.577148 494.018143,1407.628052 475.967239C1425.678955 457.916336,1435.822113 433.435272,1435.822113 407.905518Z" style="stroke:rgb(25.500488%,41.000366%,88.400269%); stroke-width: 2.500000;stroke-linecap: round;stroke-linejoin: round;stroke-miterlimit: 10.000000;fill: none;"></path>
  <path d="M667.774124 1513.328857C667.774124 1487.799103,657.630966 1463.318039,639.580063 1445.267136C621.529160 1427.216232,597.048096 1417.073074,571.518341 1417.073074C545.988586 1417.073074,521.507523 1427.216232,503.456619 1445.267136C485.405716 1463.318039,475.262558 1487.799103,475.262558 1513.328857C475.262558 1538.858612,485.405716 1563.339676,503.456619 1581.390579C521.507523 1599.441483,545.988586 1609.584641,571.518341 1609.584641C597.048096 1609.584641,621.529160 1599.441483,639.580063 1581.390579C657.630966 1563.339676,667.774124 1538.858612,667.774124 1513.328857Z" style="stroke:rgb(25.500488%,41.000366%,88.400269%); stroke-width: 2.500000;stroke-linecap: round;stroke-linejoin: round;stroke-miterlimit: 10.000000;fill: none;"></path>
  <path d="M758.995239 1371.838821C758.995239 1346.309067,748.852081 1321.828003,730.801178 1303.777100C712.750275 1285.726196,688.269211 1275.583038,662.739456 1275.583038C637.209702 1275.583038,612.728638 1285.726196,594.677734 1303.777100C576.626831 1321.828003,566.483673 1346.309067,566.483673 1371.838821C566.483673 1397.368576,576.626831 1421.849640,594.677734 1439.900543C612.728638 1457.951447,637.209702 1468.094604,662.739456 1468.094604C688.269211 1468.094604,712.750275 1457.951447,730.801178 1439.900543C748.852081 1421.849640,758.995239 1397.368576,758.995239 1371.838821Z" style="stroke:rgb(25.500488%,41.000366%,88.400269%); stroke-width: 2.500000;stroke-linecap: round;stroke-linejoin: round;stroke-miterlimit: 10.000000;fill: none;"></path>
  <path d="M830.285248 1226.261353C830.285248 1200.731598,820.142090 1176.250534,802.091187 1158.199631C784.040283 1140.148727,759.559219 1130.005569,734.029465 1130.005569C708.499710 1130.005569,684.018646 1140.148727,665.967743 1158.199631C647.916840 1176.250534,637.773682 1200.731598,637.773682 1226.261353C637.773682 1251.791107,647.916840 1276.272171,665.967743 1294.323074C684.018646 1312.373978,708.499710 1322.517136,734.029465 1322.517136C759.559219 1322.517136,784.040283 1312.373978,802.091187 1294.323074C820.142090 1276.272171,830.285248 1251.791107,830.285248 1226.261353Z" style="stroke:rgb(25.500488%,41.000366%,88.400269%); stroke-width: 2.500000;stroke-linecap: round;stroke-linejoin: round;stroke-miterlimit: 10.000000;fill: none;"></path>
  <path d="M890.792221 1085.186554C890.792221 1059.656799,880.649063 1035.175735,862.598160 1017.124832C844.547256 999.073929,820.066193 988.930771,794.536438 988.930771C769.006683 988.930771,744.525620 999.073929,726.474716 1017.124832C708.423813 1035.175735,698.280655 1059.656799,698.280655 1085.186554C698.280655 1110.716309,708.423813 1135.197372,726.474716 1153.248276C744.525620 1171.299179,769.006683 1181.442337,794.536438 1181.442337C820.066193 1181.442337,844.547256 1171.299179,862.598160 1153.248276C880.649063 1135.197372,890.792221 1110.716309,890.792221 1085.186554Z" style="stroke:rgb(25.500488%,41.000366%,88.400269%); stroke-width: 2.500000;stroke-linecap: round;stroke-linejoin: round;stroke-miterlimit: 10.000000;fill: none;"></path>
  <path d="M969.569366 935.443787C969.569366 909.914032,959.426208 885.432968,941.375305 867.382065C923.324402 849.331161,898.843338 839.188004,873.313583 839.188004C847.783829 839.188004,823.302765 849.331161,805.251862 867.382065C787.200958 885.432968,777.057800 909.914032,777.057800 935.443787C777.057800 960.973541,787.200958 985.454605,805.251862 1003.505508C823.302765 1021.556412,847.783829 1031.699570,873.313583 1031.699570C898.843338 1031.699570,923.324402 1021.556412,941.375305 1003.505508C959.426208 985.454605,969.569366 960.973541,969.569366 935.443787Z" style="stroke:rgb(25.500488%,41.000366%,88.400269%); stroke-width: 2.500000;stroke-linecap: round;stroke-linejoin: round;stroke-miterlimit: 10.000000;fill: none;"></path>
  <path d="M1051.811096 789.139664C1051.811096 763.609909,1041.667938 739.128845,1023.617035 721.077942C1005.566132 703.027039,981.085068 692.883881,955.555313 692.883881C930.025558 692.883881,905.544495 703.027039,887.493591 721.077942C869.442688 739.128845,859.299530 763.609909,859.299530 789.139664C859.299530 814.669418,869.442688 839.150482,887.493591 857.201385C905.544495 875.252289,930.025558 885.395447,955.555313 885.395447C981.085068 885.395447,1005.566132 875.252289,1023.617035 857.201385C1041.667938 839.150482,1051.811096 814.669418,1051.811096 789.139664Z" style="stroke:rgb(25.500488%,41.000366%,88.400269%); stroke-width: 2.500000;stroke-linecap: round;stroke-linejoin: round;stroke-miterlimit: 10.000000;fill: none;"></path>
  <path d="M1135.869461 639.902985C1135.869461 614.373230,1125.726303 589.892166,1107.675400 571.841263C1089.624496 553.790359,1065.143433 543.647202,1039.613678 543.647202C1014.083923 543.647202,989.602859 553.790359,971.551956 571.841263C953.501053 589.892166,943.357895 614.373230,943.357895 639.902985C943.357895 665.432739,953.501053 689.913803,971.551956 707.964706C989.602859 726.015610,1014.083923 736.158768,1039.613678 736.158768C1065.143433 736.158768,1089.624496 726.015610,1107.675400 707.964706C1125.726303 689.913803,1135.869461 665.432739,1135.869461 639.902985Z" style="stroke:rgb(25.500488%,41.000366%,88.400269%); stroke-width: 2.500000;stroke-linecap: round;stroke-linejoin: round;stroke-miterlimit: 10.000000;fill: none;"></path>
  <path d="M1202.773590 503.927734C1202.773590 478.397980,1192.630432 453.916916,1174.579529 435.866013C1156.528625 417.815109,1132.047562 407.671951,1106.517807 407.671951C1080.988052 407.671951,1056.506989 417.815109,1038.456085 435.866013C1020.405182 453.916916,1010.262024 478.397980,1010.262024 503.927734C1010.262024 529.457489,1020.405182 553.938553,1038.456085 571.989456C1056.506989 590.040359,1080.988052 600.183517,1106.517807 600.183517C1132.047562 600.183517,1156.528625 590.040359,1174.579529 571.989456C1192.630432 553.938553,1202.773590 529.457489,1202.773590 503.927734Z" style="stroke:rgb(25.500488%,41.000366%,88.400269%); stroke-width: 2.500000;stroke-linecap: round;stroke-linejoin: round;stroke-miterlimit: 10.000000;fill: none;"></path>
  <path d="M1277.528183 365.500031C1277.528183 339.970276,1267.385025 315.489212,1249.334122 297.438309C1231.283218 279.387405,1206.802155 269.244247,1181.272400 269.244247C1155.742645 269.244247,1131.261581 279.387405,1113.210678 297.438309C1095.159775 315.489212,1085.016617 339.970276,1085.016617 365.500031C1085.016617 391.029785,1095.159775 415.510849,1113.210678 433.561752C1131.261581 451.612656,1155.742645 461.755814,1181.272400 461.755814C1206.802155 461.755814,1231.283218 451.612656,1249.334122 433.561752C1267.385025 415.510849,1277.528183 391.029785,1277.528183 365.500031Z" style="stroke:rgb(25.500488%,41.000366%,88.400269%); stroke-width: 2.500000;stroke-linecap: round;stroke-linejoin: round;stroke-miterlimit: 10.000000;fill: none;"></path>
  <path d="M506.327042 1511.797699C506.327042 1486.267944,496.183884 1461.786880,478.132980 1443.735977C460.082077 1425.685074,435.601013 1415.541916,410.071259 1415.541916C384.541504 1415.541916,360.060440 1425.685074,342.009537 1443.735977C323.958633 1461.786880,313.815475 1486.267944,313.815475 1511.797699C313.815475 1537.327454,323.958633 1561.808517,342.009537 1579.859421C360.060440 1597.910324,384.541504 1608.053482,410.071259 1608.053482C435.601013 1608.053482,460.082077 1597.910324,478.132980 1579.859421C496.183884 1561.808517,506.327042 1537.327454,506.327042 1511.797699Z" style="stroke:rgb(25.500488%,41.000366%,88.400269%); stroke-width: 2.500000;stroke-linecap: round;stroke-linejoin: round;stroke-miterlimit: 10.000000;fill: none;"></path>
  <path d="M593.914871 1364.092163C593.914871 1338.562408,583.771713 1314.081345,565.720810 1296.030441C547.669907 1277.979538,523.188843 1267.836380,497.659088 1267.836380C472.129333 1267.836380,447.648270 1277.979538,429.597366 1296.030441C411.546463 1314.081345,401.403305 1338.562408,401.403305 1364.092163C401.403305 1389.621918,411.546463 1414.102982,429.597366 1432.153885C447.648270 1450.204788,472.129333 1460.347946,497.659088 1460.347946C523.188843 1460.347946,547.669907 1450.204788,565.720810 1432.153885C583.771713 1414.102982,593.914871 1389.621918,593.914871 1364.092163Z" style="stroke:rgb(25.500488%,41.000366%,88.400269%); stroke-width: 2.500000;stroke-linecap: round;stroke-linejoin: round;stroke-miterlimit: 10.000000;fill: none;"></path>
  <path d="M667.670319 1223.199020C667.670319 1197.669266,657.527161 1173.188202,639.476257 1155.137299C621.425354 1137.086395,596.944290 1126.943237,571.414536 1126.943237C545.884781 1126.943237,521.403717 1137.086395,503.352814 1155.137299C485.301910 1173.188202,475.158752 1197.669266,475.158752 1223.199020C475.158752 1248.728775,485.301910 1273.209839,503.352814 1291.260742C521.403717 1309.311646,545.884781 1319.454803,571.414536 1319.454803C596.944290 1319.454803,621.425354 1309.311646,639.476257 1291.260742C657.527161 1273.209839,667.670319 1248.728775,667.670319 1223.199020Z" style="stroke:rgb(25.500488%,41.000366%,88.400269%); stroke-width: 2.500000;stroke-linecap: round;stroke-linejoin: round;stroke-miterlimit: 10.000000;fill: none;"></path>
  <path d="M723.700577 1084.862152C723.700577 1059.332397,713.557419 1034.851334,695.506516 1016.800430C677.455612 998.749527,652.974548 988.606369,627.444794 988.606369C601.915039 988.606369,577.433975 998.749527,559.383072 1016.800430C541.332169 1034.851334,531.189011 1059.332397,531.189011 1084.862152C531.189011 1110.391907,541.332169 1134.872971,559.383072 1152.923874C577.433975 1170.974777,601.915039 1181.117935,627.444794 1181.117935C652.974548 1181.117935,677.455612 1170.974777,695.506516 1152.923874C713.557419 1134.872971,723.700577 1110.391907,723.700577 1084.862152Z" style="stroke:rgb(25.500488%,41.000366%,88.400269%); stroke-width: 2.500000;stroke-linecap: round;stroke-linejoin: round;stroke-miterlimit: 10.000000;fill: none;"></path>
  <path d="M810.535812 941.023468C810.535812 915.493713,800.392654 891.012650,782.341751 872.961746C764.290848 854.910843,739.809784 844.767685,714.280029 844.767685C688.750275 844.767685,664.269211 854.910843,646.218307 872.961746C628.167404 891.012650,618.024246 915.493713,618.024246 941.023468C618.024246 966.553223,628.167404 991.034286,646.218307 1009.085190C664.269211 1027.136093,688.750275 1037.279251,714.280029 1037.279251C739.809784 1037.279251,764.290848 1027.136093,782.341751 1009.085190C800.392654 991.034286,810.535812 966.553223,810.535812 941.023468Z" style="stroke:rgb(25.500488%,41.000366%,88.400269%); stroke-width: 2.500000;stroke-linecap: round;stroke-linejoin: round;stroke-miterlimit: 10.000000;fill: none;"></path>
  <path d="M888.184036 787.842072C888.184036 762.312317,878.040878 737.831253,859.989975 719.780350C841.939072 701.729446,817.458008 691.586288,791.928253 691.586288C766.398499 691.586288,741.917435 701.729446,723.866531 719.780350C705.815628 737.831253,695.672470 762.312317,695.672470 787.842072C695.672470 813.371826,705.815628 837.852890,723.866531 855.903793C741.917435 873.954697,766.398499 884.097855,791.928253 884.097855C817.458008 884.097855,841.939072 873.954697,859.989975 855.903793C878.040878 837.852890,888.184036 813.371826,888.184036 787.842072Z" style="stroke:rgb(25.500488%,41.000366%,88.400269%); stroke-width: 2.500000;stroke-linecap: round;stroke-linejoin: round;stroke-miterlimit: 10.000000;fill: none;"></path>
  <path d="M974.149887 641.602829C974.149887 616.073074,964.006729 591.592010,945.955826 573.541107C927.904922 555.490204,903.423859 545.347046,877.894104 545.347046C852.364349 545.347046,827.883286 555.490204,809.832382 573.541107C791.781479 591.592010,781.638321 616.073074,781.638321 641.602829C781.638321 667.132584,791.781479 691.613647,809.832382 709.664551C827.883286 727.715454,852.364349 737.858612,877.894104 737.858612C903.423859 737.858612,927.904922 727.715454,945.955826 709.664551C964.006729 691.613647,974.149887 667.132584,974.149887 641.602829Z" style="stroke:rgb(25.500488%,41.000366%,88.400269%); stroke-width: 2.500000;stroke-linecap: round;stroke-linejoin: round;stroke-miterlimit: 10.000000;fill: none;"></path>
  <path d="M1034.656860 494.351456C1034.656860 468.821701,1024.513702 444.340637,1006.462799 426.289734C988.411896 408.238831,963.930832 398.095673,938.401077 398.095673C912.871323 398.095673,888.390259 408.238831,870.339355 426.289734C852.288452 444.340637,842.145294 468.821701,842.145294 494.351456C842.145294 519.881210,852.288452 544.362274,870.339355 562.413177C888.390259 580.464081,912.871323 590.607239,938.401077 590.607239C963.930832 590.607239,988.411896 580.464081,1006.462799 562.413177C1024.513702 544.362274,1034.656860 519.881210,1034.656860 494.351456Z" style="stroke:rgb(25.500488%,41.000366%,88.400269%); stroke-width: 2.500000;stroke-linecap: round;stroke-linejoin: round;stroke-miterlimit: 10.000000;fill: none;"></path>
  <path d="M1109.930481 357.000763C1109.930481 331.471008,1099.787323 306.989944,1081.736420 288.939041C1063.685516 270.888138,1039.204453 260.744980,1013.674698 260.744980C988.144943 260.744980,963.663879 270.888138,945.612976 288.939041C927.562073 306.989944,917.418915 331.471008,917.418915 357.000763C917.418915 382.530518,927.562073 407.011581,945.612976 425.062485C963.663879 443.113388,988.144943 453.256546,1013.674698 453.256546C1039.204453 453.256546,1063.685516 443.113388,1081.736420 425.062485C1099.787323 407.011581,1109.930481 382.530518,1109.930481 357.000763Z" style="stroke:rgb(25.500488%,41.000366%,88.400269%); stroke-width: 2.500000;stroke-linecap: round;stroke-linejoin: round;stroke-miterlimit: 10.000000;fill: none;"></path>
  <path d="M1190.835693 223.036789C1190.835693 197.507034,1180.692535 173.025970,1162.641632 154.975067C1144.590729 136.924164,1120.109665 126.781006,1094.579910 126.781006C1069.050156 126.781006,1044.569092 136.924164,1026.518188 154.975067C1008.467285 173.025970,998.324127 197.507034,998.324127 223.036789C998.324127 248.566544,1008.467285 273.047607,1026.518188 291.098511C1044.569092 309.149414,1069.050156 319.292572,1094.579910 319.292572C1120.109665 319.292572,1144.590729 309.149414,1162.641632 291.098511C1180.692535 273.047607,1190.835693 248.566544,1190.835693 223.036789Z" style="stroke:rgb(25.500488%,41.000366%,88.400269%); stroke-width: 2.500000;stroke-linecap: round;stroke-linejoin: round;stroke-miterlimit: 10.000000;fill: none;"></path>
  <path d="M455.097885 1395.208557C455.097885 1369.678802,444.954727 1345.197739,426.903824 1327.146835C408.852921 1309.095932,384.371857 1298.952774,358.842102 1298.952774C333.312347 1298.952774,308.831284 1309.095932,290.780380 1327.146835C272.729477 1345.197739,262.586319 1369.678802,262.586319 1395.208557C262.586319 1420.738312,272.729477 1445.219376,290.780380 1463.270279C308.831284 1481.321182,333.312347 1491.464340,358.842102 1491.464340C384.371857 1491.464340,408.852921 1481.321182,426.903824 1463.270279C444.954727 1445.219376,455.097885 1420.738312,455.097885 1395.208557Z" style="stroke:rgb(25.500488%,41.000366%,88.400269%); stroke-width: 2.500000;stroke-linecap: round;stroke-linejoin: round;stroke-miterlimit: 10.000000;fill: none;"></path>
  <path d="M499.151321 1220.772522C499.151321 1195.242767,489.008163 1170.761703,470.957260 1152.710800C452.906357 1134.659897,428.425293 1124.516739,402.895538 1124.516739C377.365784 1124.516739,352.884720 1134.659897,334.833817 1152.710800C316.782913 1170.761703,306.639755 1195.242767,306.639755 1220.772522C306.639755 1246.302277,316.782913 1270.783340,334.833817 1288.834244C352.884720 1306.885147,377.365784 1317.028305,402.895538 1317.028305C428.425293 1317.028305,452.906357 1306.885147,470.957260 1288.834244C489.008163 1270.783340,499.151321 1246.302277,499.151321 1220.772522Z" style="stroke:rgb(25.500488%,41.000366%,88.400269%); stroke-width: 2.500000;stroke-linecap: round;stroke-linejoin: round;stroke-miterlimit: 10.000000;fill: none;"></path>
  <path d="M551.652115 1091.505844C551.652115 1065.976089,541.508957 1041.495026,523.458054 1023.444122C505.407150 1005.393219,480.926086 995.250061,455.396332 995.250061C429.866577 995.250061,405.385513 1005.393219,387.334610 1023.444122C369.283707 1041.495026,359.140549 1065.976089,359.140549 1091.505844C359.140549 1117.035599,369.283707 1141.516663,387.334610 1159.567566C405.385513 1177.618469,429.866577 1187.761627,455.396332 1187.761627C480.926086 1187.761627,505.407150 1177.618469,523.458054 1159.567566C541.508957 1141.516663,551.652115 1117.035599,551.652115 1091.505844Z" style="stroke:rgb(25.500488%,41.000366%,88.400269%); stroke-width: 2.500000;stroke-linecap: round;stroke-linejoin: round;stroke-miterlimit: 10.000000;fill: none;"></path>
  <path d="M647.336960 949.561661C647.336960 924.031906,637.193802 899.550842,619.142899 881.499939C601.091995 863.449036,576.610931 853.305878,551.081177 853.305878C525.551422 853.305878,501.070358 863.449036,483.019455 881.499939C464.968552 899.550842,454.825394 924.031906,454.825394 949.561661C454.825394 975.091415,464.968552 999.572479,483.019455 1017.623383C501.070358 1035.674286,525.551422 1045.817444,551.081177 1045.817444C576.610931 1045.817444,601.091995 1035.674286,619.142899 1017.623383C637.193802 999.572479,647.336960 975.091415,647.336960 949.561661Z" style="stroke:rgb(25.500488%,41.000366%,88.400269%); stroke-width: 2.500000;stroke-linecap: round;stroke-linejoin: round;stroke-miterlimit: 10.000000;fill: none;"></path>
  <path d="M735.249191 798.651062C735.249191 773.121307,725.106033 748.640244,707.055130 730.589340C689.004227 712.538437,664.523163 702.395279,638.993408 702.395279C613.463654 702.395279,588.982590 712.538437,570.931686 730.589340C552.880783 748.640244,542.737625 773.121307,542.737625 798.651062C542.737625 824.180817,552.880783 848.661880,570.931686 866.712784C588.982590 884.763687,613.463654 894.906845,638.993408 894.906845C664.523163 894.906845,689.004227 884.763687,707.055130 866.712784C725.106033 848.661880,735.249191 824.180817,735.249191 798.651062Z" style="stroke:rgb(25.500488%,41.000366%,88.400269%); stroke-width: 2.500000;stroke-linecap: round;stroke-linejoin: round;stroke-miterlimit: 10.000000;fill: none;"></path>
  <path d="M811.366272 638.994659C811.366272 613.464905,801.223114 588.983841,783.172211 570.932938C765.121307 552.882034,740.640244 542.738876,715.110489 542.738876C689.580734 542.738876,665.099670 552.882034,647.048767 570.932938C628.997864 588.983841,618.854706 613.464905,618.854706 638.994659C618.854706 664.524414,628.997864 689.005478,647.048767 707.056381C665.099670 725.107285,689.580734 735.250443,715.110489 735.250443C740.640244 735.250443,765.121307 725.107285,783.172211 707.056381C801.223114 689.005478,811.366272 664.524414,811.366272 638.994659Z" style="stroke:rgb(25.500488%,41.000366%,88.400269%); stroke-width: 2.500000;stroke-linecap: round;stroke-linejoin: round;stroke-miterlimit: 10.000000;fill: none;"></path>
  <path d="M891.194473 492.716492C891.194473 467.186737,881.051315 442.705673,863.000412 424.654770C844.949509 406.603867,820.468445 396.460709,794.938690 396.460709C769.408936 396.460709,744.927872 406.603867,726.876968 424.654770C708.826065 442.705673,698.682907 467.186737,698.682907 492.716492C698.682907 518.246246,708.826065 542.727310,726.876968 560.778214C744.927872 578.829117,769.408936 588.972275,794.938690 588.972275C820.468445 588.972275,844.949509 578.829117,863.000412 560.778214C881.051315 542.727310,891.194473 518.246246,891.194473 492.716492Z" style="stroke:rgb(25.500488%,41.000366%,88.400269%); stroke-width: 2.500000;stroke-linecap: round;stroke-linejoin: round;stroke-miterlimit: 10.000000;fill: none;"></path>
  <path d="M953.557007 333.618057C953.557007 308.088303,943.413849 283.607239,925.362946 265.556335C907.312042 247.505432,882.830978 237.362274,857.301224 237.362274C831.771469 237.362274,807.290405 247.505432,789.239502 265.556335C771.188599 283.607239,761.045441 308.088303,761.045441 333.618057C761.045441 359.147812,771.188599 383.628876,789.239502 401.679779C807.290405 419.730682,831.771469 429.873840,857.301224 429.873840C882.830978 429.873840,907.312042 419.730682,925.362946 401.679779C943.413849 383.628876,953.557007 359.147812,953.557007 333.618057Z" style="stroke:rgb(25.500488%,41.000366%,88.400269%); stroke-width: 2.500000;stroke-linecap: round;stroke-linejoin: round;stroke-miterlimit: 10.000000;fill: none;"></path>
  <path d="M1032.334152 195.047607C1032.334152 169.517853,1022.190994 145.036789,1004.140091 126.985886C986.089188 108.934982,961.608124 98.791824,936.078369 98.791824C910.548615 98.791824,886.067551 108.934982,868.016647 126.985886C849.965744 145.036789,839.822586 169.517853,839.822586 195.047607C839.822586 220.577362,849.965744 245.058426,868.016647 263.109329C886.067551 281.160233,910.548615 291.303391,936.078369 291.303391C961.608124 291.303391,986.089188 281.160233,1004.140091 263.109329C1022.190994 245.058426,1032.334152 220.577362,1032.334152 195.047607Z" style="stroke:rgb(25.500488%,41.000366%,88.400269%); stroke-width: 2.500000;stroke-linecap: round;stroke-linejoin: round;stroke-miterlimit: 10.000000;fill: none;"></path>
  <path d="M359.854233 1252.758301C359.854233 1227.228546,349.711075 1202.747482,331.660172 1184.696579C313.609268 1166.645676,289.128204 1156.502518,263.598450 1156.502518C238.068695 1156.502518,213.587631 1166.645676,195.536728 1184.696579C177.485825 1202.747482,167.342667 1227.228546,167.342667 1252.758301C167.342667 1278.288055,177.485825 1302.769119,195.536728 1320.820023C213.587631 1338.870926,238.068695 1349.014084,263.598450 1349.014084C289.128204 1349.014084,313.609268 1338.870926,331.660172 1320.820023C349.711075 1302.769119,359.854233 1278.288055,359.854233 1252.758301Z" style="stroke:rgb(25.500488%,41.000366%,88.400269%); stroke-width: 2.500000;stroke-linecap: round;stroke-linejoin: round;stroke-miterlimit: 10.000000;fill: none;"></path>
  <path d="M374.672791 1095.204010C374.672791 1069.674255,364.529633 1045.193192,346.478729 1027.142288C328.427826 1009.091385,303.946762 998.948227,278.417007 998.948227C252.887253 998.948227,228.406189 1009.091385,210.355286 1027.142288C192.304382 1045.193192,182.161224 1069.674255,182.161224 1095.204010C182.161224 1120.733765,192.304382 1145.214828,210.355286 1163.265732C228.406189 1181.316635,252.887253 1191.459793,278.417007 1191.459793C303.946762 1191.459793,328.427826 1181.316635,346.478729 1163.265732C364.529633 1145.214828,374.672791 1120.733765,374.672791 1095.204010Z" style="stroke:rgb(25.500488%,41.000366%,88.400269%); stroke-width: 2.500000;stroke-linecap: round;stroke-linejoin: round;stroke-miterlimit: 10.000000;fill: none;"></path>
  <path d="M482.010056 961.304916C482.010056 935.775162,471.866898 911.294098,453.815994 893.243195C435.765091 875.192291,411.284027 865.049133,385.754272 865.049133C360.224518 865.049133,335.743454 875.192291,317.692551 893.243195C299.641647 911.294098,289.498489 935.775162,289.498489 961.304916C289.498489 986.834671,299.641647 1011.315735,317.692551 1029.366638C335.743454 1047.417542,360.224518 1057.560699,385.754272 1057.560699C411.284027 1057.560699,435.765091 1047.417542,453.815994 1029.366638C471.866898 1011.315735,482.010056 986.834671,482.010056 961.304916Z" style="stroke:rgb(25.500488%,41.000366%,88.400269%); stroke-width: 2.500000;stroke-linecap: round;stroke-linejoin: round;stroke-miterlimit: 10.000000;fill: none;"></path>
  <path d="M570.181808 810.757645C570.181808 785.227890,560.038651 760.746826,541.987747 742.695923C523.936844 724.645020,499.455780 714.501862,473.926025 714.501862C448.396271 714.501862,423.915207 724.645020,405.864304 742.695923C387.813400 760.746826,377.670242 785.227890,377.670242 810.757645C377.670242 836.287399,387.813400 860.768463,405.864304 878.819366C423.915207 896.870270,448.396271 907.013428,473.926025 907.013428C499.455780 907.013428,523.936844 896.870270,541.987747 878.819366C560.038651 860.768463,570.181808 836.287399,570.181808 810.757645Z" style="stroke:rgb(25.500488%,41.000366%,88.400269%); stroke-width: 2.500000;stroke-linecap: round;stroke-linejoin: round;stroke-miterlimit: 10.000000;fill: none;"></path>
  <path d="M658.664993 659.898956C658.664993 634.369202,648.521835 609.888138,630.470932 591.837234C612.420029 573.786331,587.938965 563.643173,562.409210 563.643173C536.879456 563.643173,512.398392 573.786331,494.347488 591.837234C476.296585 609.888138,466.153427 634.369202,466.153427 659.898956C466.153427 685.428711,476.296585 709.909775,494.347488 727.960678C512.398392 746.011581,536.879456 756.154739,562.409210 756.154739C587.938965 756.154739,612.420029 746.011581,630.470932 727.960678C648.521835 709.909775,658.664993 685.428711,658.664993 659.898956Z" style="stroke:rgb(25.500488%,41.000366%,88.400269%); stroke-width: 2.500000;stroke-linecap: round;stroke-linejoin: round;stroke-miterlimit: 10.000000;fill: none;"></path>
  <path d="M724.803543 496.090240C724.803543 470.560486,714.660385 446.079422,696.609482 428.028519C678.558578 409.977615,654.077515 399.834457,628.547760 399.834457C603.018005 399.834457,578.536942 409.977615,560.486038 428.028519C542.435135 446.079422,532.291977 470.560486,532.291977 496.090240C532.291977 521.619995,542.435135 546.101059,560.486038 564.151962C578.536942 582.202866,603.018005 592.346024,628.547760 592.346024C654.077515 592.346024,678.558578 582.202866,696.609482 564.151962C714.660385 546.101059,724.803543 521.619995,724.803543 496.090240Z" style="stroke:rgb(25.500488%,41.000366%,88.400269%); stroke-width: 2.500000;stroke-linecap: round;stroke-linejoin: round;stroke-miterlimit: 10.000000;fill: none;"></path>
  <path d="M799.571106 350.071594C799.571106 324.541840,789.427948 300.060776,771.377045 282.009872C753.326141 263.958969,728.845078 253.815811,703.315323 253.815811C677.785568 253.815811,653.304504 263.958969,635.253601 282.009872C617.202698 300.060776,607.059540 324.541840,607.059540 350.071594C607.059540 375.601349,617.202698 400.082413,635.253601 418.133316C653.304504 436.184219,677.785568 446.327377,703.315323 446.327377C728.845078 446.327377,753.326141 436.184219,771.377045 418.133316C789.427948 400.082413,799.571106 375.601349,799.571106 350.071594Z" style="stroke:rgb(25.500488%,41.000366%,88.400269%); stroke-width: 2.500000;stroke-linecap: round;stroke-linejoin: round;stroke-miterlimit: 10.000000;fill: none;"></path>
  <path d="M862.945770 189.026764C862.945770 163.497009,852.802612 139.015945,834.751709 120.965042C816.700806 102.914139,792.219742 92.770981,766.689987 92.770981C741.160233 92.770981,716.679169 102.914139,698.628265 120.965042C680.577362 139.015945,670.434204 163.497009,670.434204 189.026764C670.434204 214.556519,680.577362 239.037582,698.628265 257.088486C716.679169 275.139389,741.160233 285.282547,766.689987 285.282547C792.219742 285.282547,816.700806 275.139389,834.751709 257.088486C852.802612 239.037582,862.945770 214.556519,862.945770 189.026764Z" style="stroke:rgb(25.500488%,41.000366%,88.400269%); stroke-width: 2.500000;stroke-linecap: round;stroke-linejoin: round;stroke-miterlimit: 10.000000;fill: none;"></path>
  <path d="M944.953934 96.508057C944.953934 70.978302,934.810776 46.497238,916.759872 28.446335C898.708969 10.395432,874.227905 0.252274,848.698151 0.252274C823.168396 0.252274,798.687332 10.395432,780.636429 28.446335C762.585526 46.497238,752.442368 70.978302,752.442368 96.508057C752.442368 122.037811,762.585526 146.518875,780.636429 164.569778C798.687332 182.620682,823.168396 192.763840,848.698151 192.763840C874.227905 192.763840,898.708969 182.620682,916.759872 164.569778C934.810776 146.518875,944.953934 122.037811,944.953934 96.508057Z" style="stroke:rgb(25.500488%,41.000366%,88.400269%); stroke-width: 2.500000;stroke-linecap: round;stroke-linejoin: round;stroke-miterlimit: 10.000000;fill: none;"></path>
  <path d="M313.023941 981.171127C313.023941 955.641373,302.880783 931.160309,284.829880 913.109406C266.778976 895.058502,242.297913 884.915344,216.768158 884.915344C191.238403 884.915344,166.757339 895.058502,148.706436 913.109406C130.655533 931.160309,120.512375 955.641373,120.512375 981.171127C120.512375 1006.700882,130.655533 1031.181946,148.706436 1049.232849C166.757339 1067.283752,191.238403 1077.426910,216.768158 1077.426910C242.297913 1077.426910,266.778976 1067.283752,284.829880 1049.232849C302.880783 1031.181946,313.023941 1006.700882,313.023941 981.171127Z" style="stroke:rgb(25.500488%,41.000366%,88.400269%); stroke-width: 2.500000;stroke-linecap: round;stroke-linejoin: round;stroke-miterlimit: 10.000000;fill: none;"></path>
  <path d="M415.975327 833.232040C415.975327 807.702286,405.832169 783.221222,387.781265 765.170319C369.730362 747.119415,345.249298 736.976257,319.719543 736.976257C294.189789 736.976257,269.708725 747.119415,251.657822 765.170319C233.606918 783.221222,223.463760 807.702286,223.463760 833.232040C223.463760 858.761795,233.606918 883.242859,251.657822 901.293762C269.708725 919.344666,294.189789 929.487823,319.719543 929.487823C345.249298 929.487823,369.730362 919.344666,387.781265 901.293762C405.832169 883.242859,415.975327 858.761795,415.975327 833.232040Z" style="stroke:rgb(25.500488%,41.000366%,88.400269%); stroke-width: 2.500000;stroke-linecap: round;stroke-linejoin: round;stroke-miterlimit: 10.000000;fill: none;"></path>
  <path d="M494.466995 670.279739C494.466995 644.749985,484.323837 620.268921,466.272934 602.218018C448.222031 584.167114,423.740967 574.023956,398.211212 574.023956C372.681458 574.023956,348.200394 584.167114,330.149490 602.218018C312.098587 620.268921,301.955429 644.749985,301.955429 670.279739C301.955429 695.809494,312.098587 720.290558,330.149490 738.341461C348.200394 756.392365,372.681458 766.535522,398.211212 766.535522C423.740967 766.535522,448.222031 756.392365,466.272934 738.341461C484.323837 720.290558,494.466995 695.809494,494.466995 670.279739Z" style="stroke:rgb(25.500488%,41.000366%,88.400269%); stroke-width: 2.500000;stroke-linecap: round;stroke-linejoin: round;stroke-miterlimit: 10.000000;fill: none;"></path>
  <path d="M572.919739 518.953903C572.919739 493.424149,562.776581 468.943085,544.725677 450.892181C526.674774 432.841278,502.193710 422.698120,476.663956 422.698120C451.134201 422.698120,426.653137 432.841278,408.602234 450.892181C390.551331 468.943085,380.408173 493.424149,380.408173 518.953903C380.408173 544.483658,390.551331 568.964722,408.602234 587.015625C426.653137 605.066528,451.134201 615.209686,476.663956 615.209686C502.193710 615.209686,526.674774 605.066528,544.725677 587.015625C562.776581 568.964722,572.919739 544.483658,572.919739 518.953903Z" style="stroke:rgb(25.500488%,41.000366%,88.400269%); stroke-width: 2.500000;stroke-linecap: round;stroke-linejoin: round;stroke-miterlimit: 10.000000;fill: none;"></path>
  <path d="M632.790894 354.171997C632.790894 328.642242,622.647736 304.161179,604.596832 286.110275C586.545929 268.059372,562.064865 257.916214,536.535110 257.916214C511.005356 257.916214,486.524292 268.059372,468.473389 286.110275C450.422485 304.161179,440.279327 328.642242,440.279327 354.171997C440.279327 379.701752,450.422485 404.182816,468.473389 422.233719C486.524292 440.284622,511.005356 450.427780,536.535110 450.427780C562.064865 450.427780,586.545929 440.284622,604.596832 422.233719C622.647736 404.182816,632.790894 379.701752,632.790894 354.171997Z" style="stroke:rgb(25.500488%,41.000366%,88.400269%); stroke-width: 2.500000;stroke-linecap: round;stroke-linejoin: round;stroke-miterlimit: 10.000000;fill: none;"></path>
  <path d="M705.884567 211.176743C705.884567 185.646988,695.741409 161.165924,677.690506 143.115021C659.639603 125.064117,635.158539 114.920959,609.628784 114.920959C584.099030 114.920959,559.617966 125.064117,541.567062 143.115021C523.516159 161.165924,513.373001 185.646988,513.373001 211.176743C513.373001 236.706497,523.516159 261.187561,541.567062 279.238464C559.617966 297.289368,584.099030 307.432526,609.628784 307.432526C635.158539 307.432526,659.639603 297.289368,677.690506 279.238464C695.741409 261.187561,705.884567 236.706497,705.884567 211.176743Z" style="stroke:rgb(25.500488%,41.000366%,88.400269%); stroke-width: 2.500000;stroke-linecap: round;stroke-linejoin: round;stroke-miterlimit: 10.000000;fill: none;"></path>
  <path d="M257.616516 833.063354C257.616516 807.533600,247.473358 783.052536,229.422455 765.001633C211.371552 746.950729,186.890488 736.807571,161.360733 736.807571C135.830978 736.807571,111.349915 746.950729,93.299011 765.001633C75.248108 783.052536,65.104950 807.533600,65.104950 833.063354C65.104950 858.593109,75.248108 883.074173,93.299011 901.125076C111.349915 919.175980,135.830978 929.319138,161.360733 929.319138C186.890488 929.319138,211.371552 919.175980,229.422455 901.125076C247.473358 883.074173,257.616516 858.593109,257.616516 833.063354Z" style="stroke:rgb(25.500488%,41.000366%,88.400269%); stroke-width: 2.500000;stroke-linecap: round;stroke-linejoin: round;stroke-miterlimit: 10.000000;fill: none;"></path>
  <path d="M346.294342 682.814529C346.294342 657.284775,336.151184 632.803711,318.100281 614.752808C300.049377 596.701904,275.568314 586.558746,250.038559 586.558746C224.508804 586.558746,200.027740 596.701904,181.976837 614.752808C163.925934 632.803711,153.782776 657.284775,153.782776 682.814529C153.782776 708.344284,163.925934 732.825348,181.976837 750.876251C200.027740 768.927155,224.508804 779.070312,250.038559 779.070312C275.568314 779.070312,300.049377 768.927155,318.100281 750.876251C336.151184 732.825348,346.294342 708.344284,346.294342 682.814529Z" style="stroke:rgb(25.500488%,41.000366%,88.400269%); stroke-width: 2.500000;stroke-linecap: round;stroke-linejoin: round;stroke-miterlimit: 10.000000;fill: none;"></path>
  <path d="M414.729630 519.395096C414.729630 493.865341,404.586472 469.384277,386.535568 451.333374C368.484665 433.282471,344.003601 423.139313,318.473846 423.139313C292.944092 423.139313,268.463028 433.282471,250.412125 451.333374C232.361221 469.384277,222.218063 493.865341,222.218063 519.395096C222.218063 544.924850,232.361221 569.405914,250.412125 587.456818C268.463028 605.507721,292.944092 615.650879,318.473846 615.650879C344.003601 615.650879,368.484665 605.507721,386.535568 587.456818C404.586472 569.405914,414.729630 544.924850,414.729630 519.395096Z" style="stroke:rgb(25.500488%,41.000366%,88.400269%); stroke-width: 2.500000;stroke-linecap: round;stroke-linejoin: round;stroke-miterlimit: 10.000000;fill: none;"></path>
  <path d="M477.844772 383.238190C477.844772 357.708435,467.701614 333.227371,449.650711 315.176468C431.599808 297.125565,407.118744 286.982407,381.588989 286.982407C356.059235 286.982407,331.578171 297.125565,313.527267 315.176468C295.476364 333.227371,285.333206 357.708435,285.333206 383.238190C285.333206 408.767944,295.476364 433.249008,313.527267 451.299911C331.578171 469.350815,356.059235 479.493973,381.588989 479.493973C407.118744 479.493973,431.599808 469.350815,449.650711 451.299911C467.701614 433.249008,477.844772 408.767944,477.844772 383.238190Z" style="stroke:rgb(25.500488%,41.000366%,88.400269%); stroke-width: 2.500000;stroke-linecap: round;stroke-linejoin: round;stroke-miterlimit: 10.000000;fill: none;"></path>
  <path d="M192.918304 675.716675C192.918304 650.186920,182.775146 625.705856,164.724243 607.654953C146.673340 589.604050,122.192276 579.460892,96.662521 579.460892C71.132767 579.460892,46.651703 589.604050,28.600800 607.654953C10.549896 625.705856,0.406738 650.186920,0.406738 675.716675C0.406738 701.246429,10.549896 725.727493,28.600800 743.778397C46.651703 761.829300,71.132767 771.972458,96.662521 771.972458C122.192276 771.972458,146.673340 761.829300,164.724243 743.778397C182.775146 725.727493,192.918304 701.246429,192.918304 675.716675Z" style="stroke:rgb(25.500488%,41.000366%,88.400269%); stroke-width: 2.500000;stroke-linecap: round;stroke-linejoin: round;stroke-miterlimit: 10.000000;fill: none;"></path>
  <path d="M264.091537 535.692917C264.091537 510.163162,253.948380 485.682098,235.897476 467.631195C217.846573 449.580292,193.365509 439.437134,167.835754 439.437134C142.306000 439.437134,117.824936 449.580292,99.774033 467.631195C81.723129 485.682098,71.579971 510.163162,71.579971 535.692917C71.579971 561.222672,81.723129 585.703735,99.774033 603.754639C117.824936 621.805542,142.306000 631.948700,167.835754 631.948700C193.365509 631.948700,217.846573 621.805542,235.897476 603.754639C253.948380 585.703735,264.091537 561.222672,264.091537 535.692917Z" style="stroke:rgb(25.500488%,41.000366%,88.400269%); stroke-width: 2.500000;stroke-linecap: round;stroke-linejoin: round;stroke-miterlimit: 10.000000;fill: none;"></path>
</svg>
