<?xml version="1.0"?>
<!-- Created by MetaPost 2.00 on 2022.03.02:1201 -->
<svg version="1.1" xmlns="http://www.w3.org/2000/svg" xmlns:xlink="http://www.w3.org/1999/xlink" width="1873.739456" height="1910.889679" viewBox="0 0 1873.739456 1910.889679">
<!-- Original BoundingBox: -916.873749 -960.018875 956.865707 950.870804 -->
  <path d="M1766.393524 950.000000L1603.986221 450.152451L1178.789459 141.233398L653.210541 141.233398L228.013779 450.152451L65.606476 950.000000L228.013779 1449.847549L653.210541 1758.766602L1178.789459 1758.766602L1603.986221 1449.847549L1766.393524 950.000000Z" style="fill: rgb(100.000000%,100.000000%,100.000000%);stroke: none;"></path>
  <path d="M1766.393524 950.000000L1603.986221 450.152451" style="stroke:rgb(0.000000%,0.000000%,0.000000%); stroke-width: 2.500000;stroke-linecap: round;stroke-linejoin: round;stroke-miterlimit: 10.000000;fill: none;"></path>
  <path d="M1603.986221 450.152451L1178.789459 141.233398" style="stroke:rgb(0.000000%,0.000000%,0.000000%); stroke-width: 2.500000;stroke-linecap: round;stroke-linejoin: round;stroke-miterlimit: 10.000000;fill: none;"></path>
  <path d="M1178.789459 141.233398L653.210541 141.233398" style="stroke:rgb(0.000000%,0.000000%,0.000000%); stroke-width: 2.500000;stroke-linecap: round;stroke-linejoin: round;stroke-miterlimit: 10.000000;fill: none;"></path>
  <path d="M653.210541 141.233398L228.013779 450.152451" style="stroke:rgb(0.000000%,0.000000%,0.000000%); stroke-width: 2.500000;stroke-linecap: round;stroke-linejoin: round;stroke-miterlimit: 10.000000;fill: none;"></path>
  <path d="M228.013779 450.152451L65.606476 950.000000" style="stroke:rgb(0.000000%,0.000000%,0.000000%); stroke-width: 2.500000;stroke-linecap: round;stroke-linejoin: round;stroke-miterlimit: 10.000000;fill: none;"></path>
  <path d="M65.606476 950.000000L228.013779 1449.847549" style="stroke:rgb(0.000000%,0.000000%,0.000000%); stroke-width: 2.500000;stroke-linecap: round;stroke-linejoin: round;stroke-miterlimit: 10.000000;fill: none;"></path>
  <path d="M228.013779 1449.847549L653.210541 1758.766602" style="stroke:rgb(0.000000%,0.000000%,0.000000%); stroke-width: 2.500000;stroke-linecap: round;stroke-linejoin: round;stroke-miterlimit: 10.000000;fill: none;"></path>
  <path d="M653.210541 1758.766602L1178.789459 1758.766602" style="stroke:rgb(0.000000%,0.000000%,0.000000%); stroke-width: 2.500000;stroke-linecap: round;stroke-linejoin: round;stroke-miterlimit: 10.000000;fill: none;"></path>
  <path d="M1178.789459 1758.766602L1603.986221 1449.847549" style="stroke:rgb(0.000000%,0.000000%,0.000000%); stroke-width: 2.500000;stroke-linecap: round;stroke-linejoin: round;stroke-miterlimit: 10.000000;fill: none;"></path>
  <path d="M1603.986221 1449.847549L1766.393524 950.000000" style="stroke:rgb(0.000000%,0.000000%,0.000000%); stroke-width: 2.500000;stroke-linecap: round;stroke-linejoin: round;stroke-miterlimit: 10.000000;fill: none;"></path>
  <path d="M805.405762 349.874115C805.405762 301.564438,786.211960 255.239182,752.054443 221.081665C717.896927 186.924149,671.571671 167.730347,623.261993 167.730347C574.952316 167.730347,528.627060 186.924149,494.469543 221.081665C460.312027 255.239182,441.118225 301.564438,441.118225 349.874115C441.118225 398.183792,460.312027 444.509048,494.469543 478.666565C528.627060 512.824081,574.952316 532.017883,623.261993 532.017883C671.571671 532.017883,717.896927 512.824081,752.054443 478.666565C786.211960 444.509048,805.405762 398.183792,805.405762 349.874115Z" style="stroke:rgb(25.500488%,41.000366%,88.400269%); stroke-width: 2.500000;stroke-linecap: round;stroke-linejoin: round;stroke-miterlimit: 10.000000;fill: none;"></path>
  <path d="M722.761780 686.769363C722.761780 638.459686,703.567978 592.134430,669.410461 557.976913C635.252945 523.819397,588.927689 504.625595,540.618011 504.625595C492.308334 504.625595,445.983078 523.819397,411.825562 557.976913C377.668045 592.134430,358.474243 638.459686,358.474243 686.769363C358.474243 735.079041,377.668045 781.404297,411.825562 815.561813C445.983078 849.719330,492.308334 868.913132,540.618011 868.913132C588.927689 868.913132,635.252945 849.719330,669.410461 815.561813C703.567978 781.404297,722.761780 735.079041,722.761780 686.769363Z" style="stroke:rgb(25.500488%,41.000366%,88.400269%); stroke-width: 2.500000;stroke-linecap: round;stroke-linejoin: round;stroke-miterlimit: 10.000000;fill: none;"></path>
  <path d="M615.320694 922.036774C615.320694 873.727097,596.126892 827.401840,561.969376 793.244324C527.811859 759.086807,481.486603 739.893005,433.176926 739.893005C384.867249 739.893005,338.541992 759.086807,304.384476 793.244324C270.226959 827.401840,251.033157 873.727097,251.033157 922.036774C251.033157 970.346451,270.226959 1016.671707,304.384476 1050.829224C338.541992 1084.986740,384.867249 1104.180542,433.176926 1104.180542C481.486603 1104.180542,527.811859 1084.986740,561.969376 1050.829224C596.126892 1016.671707,615.320694 970.346451,615.320694 922.036774Z" style="stroke:rgb(25.500488%,41.000366%,88.400269%); stroke-width: 2.500000;stroke-linecap: round;stroke-linejoin: round;stroke-miterlimit: 10.000000;fill: none;"></path>
  <path d="M1320.305450 223.254547C1320.305450 174.944870,1301.111649 128.619614,1266.954132 94.462097C1232.796616 60.304581,1186.471359 41.110779,1138.161682 41.110779C1089.852005 41.110779,1043.526749 60.304581,1009.369232 94.462097C975.211716 128.619614,956.017914 174.944870,956.017914 223.254547C956.017914 271.564224,975.211716 317.889481,1009.369232 352.046997C1043.526749 386.204514,1089.852005 405.398315,1138.161682 405.398315C1186.471359 405.398315,1232.796616 386.204514,1266.954132 352.046997C1301.111649 317.889481,1320.305450 271.564224,1320.305450 223.254547Z" style="stroke:rgb(25.500488%,41.000366%,88.400269%); stroke-width: 2.500000;stroke-linecap: round;stroke-linejoin: round;stroke-miterlimit: 10.000000;fill: none;"></path>
  <path d="M1137.344193 446.610016C1137.344193 398.300339,1118.150391 351.975082,1083.992874 317.817566C1049.835358 283.660049,1003.510101 264.466248,955.200424 264.466248C906.890747 264.466248,860.565491 283.660049,826.407974 317.817566C792.250458 351.975082,773.056656 398.300339,773.056656 446.610016C773.056656 494.919693,792.250458 541.244949,826.407974 575.402466C860.565491 609.559982,906.890747 628.753784,955.200424 628.753784C1003.510101 628.753784,1049.835358 609.559982,1083.992874 575.402466C1118.150391 541.244949,1137.344193 494.919693,1137.344193 446.610016Z" style="stroke:rgb(25.500488%,41.000366%,88.400269%); stroke-width: 2.500000;stroke-linecap: round;stroke-linejoin: round;stroke-miterlimit: 10.000000;fill: none;"></path>
  <path d="M967.994736 635.047119C967.994736 586.737442,948.800934 540.412186,914.643417 506.254669C880.485901 472.097153,834.160645 452.903351,785.850967 452.903351C737.541290 452.903351,691.216034 472.097153,657.058517 506.254669C622.901001 540.412186,603.707199 586.737442,603.707199 635.047119C603.707199 683.356796,622.901001 729.682053,657.058517 763.839569C691.216034 797.997086,737.541290 817.190887,785.850967 817.190887C834.160645 817.190887,880.485901 797.997086,914.643417 763.839569C948.800934 729.682053,967.994736 683.356796,967.994736 635.047119Z" style="stroke:rgb(25.500488%,41.000366%,88.400269%); stroke-width: 2.500000;stroke-linecap: round;stroke-linejoin: round;stroke-miterlimit: 10.000000;fill: none;"></path>
  <path d="M904.075073 969.671585C904.075073 921.361908,884.881271 875.036652,850.723755 840.879135C816.566238 806.721619,770.240982 787.527817,721.931305 787.527817C673.621628 787.527817,627.296371 806.721619,593.138855 840.879135C558.981339 875.036652,539.787537 921.361908,539.787537 969.671585C539.787537 1017.981262,558.981339 1064.306519,593.138855 1098.464035C627.296371 1132.621552,673.621628 1151.815353,721.931305 1151.815353C770.240982 1151.815353,816.566238 1132.621552,850.723755 1098.464035C884.881271 1064.306519,904.075073 1017.981262,904.075073 969.671585Z" style="stroke:rgb(25.500488%,41.000366%,88.400269%); stroke-width: 2.500000;stroke-linecap: round;stroke-linejoin: round;stroke-miterlimit: 10.000000;fill: none;"></path>
  <path d="M663.980606 1202.162125C663.980606 1153.852448,644.786804 1107.527191,610.629288 1073.369675C576.471771 1039.212158,530.146515 1020.018356,481.836838 1020.018356C433.527161 1020.018356,387.201904 1039.212158,353.044388 1073.369675C318.886871 1107.527191,299.693069 1153.852448,299.693069 1202.162125C299.693069 1250.471802,318.886871 1296.797058,353.044388 1330.954575C387.201904 1365.112091,433.527161 1384.305893,481.836838 1384.305893C530.146515 1384.305893,576.471771 1365.112091,610.629288 1330.954575C644.786804 1296.797058,663.980606 1250.471802,663.980606 1202.162125Z" style="stroke:rgb(25.500488%,41.000366%,88.400269%); stroke-width: 2.500000;stroke-linecap: round;stroke-linejoin: round;stroke-miterlimit: 10.000000;fill: none;"></path>
  <path d="M1495.779556 425.316437C1495.779556 377.006760,1476.585754 330.681503,1442.428238 296.523987C1408.270721 262.366470,1361.945465 243.172668,1313.635788 243.172668C1265.326111 243.172668,1219.000854 262.366470,1184.843338 296.523987C1150.685822 330.681503,1131.492020 377.006760,1131.492020 425.316437C1131.492020 473.626114,1150.685822 519.951370,1184.843338 554.108887C1219.000854 588.266403,1265.326111 607.460205,1313.635788 607.460205C1361.945465 607.460205,1408.270721 588.266403,1442.428238 554.108887C1476.585754 519.951370,1495.779556 473.626114,1495.779556 425.316437Z" style="stroke:rgb(25.500488%,41.000366%,88.400269%); stroke-width: 2.500000;stroke-linecap: round;stroke-linejoin: round;stroke-miterlimit: 10.000000;fill: none;"></path>
  <path d="M1329.427551 648.451309C1329.427551 600.141632,1310.233749 553.816376,1276.076233 519.658859C1241.918716 485.501343,1195.593460 466.307541,1147.283783 466.307541C1098.974106 466.307541,1052.648849 485.501343,1018.491333 519.658859C984.333817 553.816376,965.140015 600.141632,965.140015 648.451309C965.140015 696.760986,984.333817 743.086243,1018.491333 777.243759C1052.648849 811.401276,1098.974106 830.595078,1147.283783 830.595078C1195.593460 830.595078,1241.918716 811.401276,1276.076233 777.243759C1310.233749 743.086243,1329.427551 696.760986,1329.427551 648.451309Z" style="stroke:rgb(25.500488%,41.000366%,88.400269%); stroke-width: 2.500000;stroke-linecap: round;stroke-linejoin: round;stroke-miterlimit: 10.000000;fill: none;"></path>
  <path d="M1179.321472 842.922256C1179.321472 794.612579,1160.127670 748.287323,1125.970154 714.129807C1091.812637 679.972290,1045.487381 660.778488,997.177704 660.778488C948.868027 660.778488,902.542770 679.972290,868.385254 714.129807C834.227737 748.287323,815.033936 794.612579,815.033936 842.922256C815.033936 891.231934,834.227737 937.557190,868.385254 971.714706C902.542770 1005.872223,948.868027 1025.066025,997.177704 1025.066025C1045.487381 1025.066025,1091.812637 1005.872223,1125.970154 971.714706C1160.127670 937.557190,1179.321472 891.231934,1179.321472 842.922256Z" style="stroke:rgb(25.500488%,41.000366%,88.400269%); stroke-width: 2.500000;stroke-linecap: round;stroke-linejoin: round;stroke-miterlimit: 10.000000;fill: none;"></path>
  <path d="M910.186768 1303.621277C910.186768 1255.311600,890.992966 1208.986343,856.835449 1174.828827C822.677933 1140.671310,776.352676 1121.477509,728.042999 1121.477509C679.733322 1121.477509,633.408066 1140.671310,599.250549 1174.828827C565.093033 1208.986343,545.899231 1255.311600,545.899231 1303.621277C545.899231 1351.930954,565.093033 1398.256210,599.250549 1432.413727C633.408066 1466.571243,679.733322 1485.765045,728.042999 1485.765045C776.352676 1485.765045,822.677933 1466.571243,856.835449 1432.413727C890.992966 1398.256210,910.186768 1351.930954,910.186768 1303.621277Z" style="stroke:rgb(25.500488%,41.000366%,88.400269%); stroke-width: 2.500000;stroke-linecap: round;stroke-linejoin: round;stroke-miterlimit: 10.000000;fill: none;"></path>
  <path d="M668.638977 1535.514938C668.638977 1487.205261,649.445175 1440.880005,615.287659 1406.722488C581.130142 1372.564972,534.804886 1353.371170,486.495209 1353.371170C438.185532 1353.371170,391.860275 1372.564972,357.702759 1406.722488C323.545242 1440.880005,304.351440 1487.205261,304.351440 1535.514938C304.351440 1583.824615,323.545242 1630.149872,357.702759 1664.307388C391.860275 1698.464905,438.185532 1717.658707,486.495209 1717.658707C534.804886 1717.658707,581.130142 1698.464905,615.287659 1664.307388C649.445175 1630.149872,668.638977 1583.824615,668.638977 1535.514938Z" style="stroke:rgb(25.500488%,41.000366%,88.400269%); stroke-width: 2.500000;stroke-linecap: round;stroke-linejoin: round;stroke-miterlimit: 10.000000;fill: none;"></path>
  <path d="M1589.284439 769.530136C1589.284439 721.220459,1570.090637 674.895203,1535.933121 640.737686C1501.775604 606.580170,1455.450348 587.386368,1407.140671 587.386368C1358.830994 587.386368,1312.505737 606.580170,1278.348221 640.737686C1244.190704 674.895203,1224.996902 721.220459,1224.996902 769.530136C1224.996902 817.839813,1244.190704 864.165070,1278.348221 898.322586C1312.505737 932.480103,1358.830994 951.673904,1407.140671 951.673904C1455.450348 951.673904,1501.775604 932.480103,1535.933121 898.322586C1570.090637 864.165070,1589.284439 817.839813,1589.284439 769.530136Z" style="stroke:rgb(25.500488%,41.000366%,88.400269%); stroke-width: 2.500000;stroke-linecap: round;stroke-linejoin: round;stroke-miterlimit: 10.000000;fill: none;"></path>
  <path d="M1461.990112 979.338684C1461.990112 931.029007,1442.796310 884.703751,1408.638794 850.546234C1374.481277 816.388718,1328.156021 797.194916,1279.846344 797.194916C1231.536667 797.194916,1185.211411 816.388718,1151.053894 850.546234C1116.896378 884.703751,1097.702576 931.029007,1097.702576 979.338684C1097.702576 1027.648361,1116.896378 1073.973618,1151.053894 1108.131134C1185.211411 1142.288651,1231.536667 1161.482452,1279.846344 1161.482452C1328.156021 1161.482452,1374.481277 1142.288651,1408.638794 1108.131134C1442.796310 1073.973618,1461.990112 1027.648361,1461.990112 979.338684Z" style="stroke:rgb(25.500488%,41.000366%,88.400269%); stroke-width: 2.500000;stroke-linecap: round;stroke-linejoin: round;stroke-miterlimit: 10.000000;fill: none;"></path>
  <path d="M1161.946640 1132.701736C1161.946640 1084.392059,1142.752838 1038.066803,1108.595322 1003.909286C1074.437805 969.751770,1028.112549 950.557968,979.802872 950.557968C931.493195 950.557968,885.167938 969.751770,851.010422 1003.909286C816.852905 1038.066803,797.659103 1084.392059,797.659103 1132.701736C797.659103 1181.011414,816.852905 1227.336670,851.010422 1261.494186C885.167938 1295.651703,931.493195 1314.845505,979.802872 1314.845505C1028.112549 1314.845505,1074.437805 1295.651703,1108.595322 1261.494186C1142.752838 1227.336670,1161.946640 1181.011414,1161.946640 1132.701736Z" style="stroke:rgb(25.500488%,41.000366%,88.400269%); stroke-width: 2.500000;stroke-linecap: round;stroke-linejoin: round;stroke-miterlimit: 10.000000;fill: none;"></path>
  <path d="M1175.934738 1431.836899C1175.934738 1383.527222,1156.740936 1337.201965,1122.583420 1303.044449C1088.425903 1268.886932,1042.100647 1249.693130,993.790970 1249.693130C945.481293 1249.693130,899.156036 1268.886932,864.998520 1303.044449C830.841003 1337.201965,811.647202 1383.527222,811.647202 1431.836899C811.647202 1480.146576,830.841003 1526.471832,864.998520 1560.629349C899.156036 1594.786865,945.481293 1613.980667,993.790970 1613.980667C1042.100647 1613.980667,1088.425903 1594.786865,1122.583420 1560.629349C1156.740936 1526.471832,1175.934738 1480.146576,1175.934738 1431.836899Z" style="stroke:rgb(25.500488%,41.000366%,88.400269%); stroke-width: 2.500000;stroke-linecap: round;stroke-linejoin: round;stroke-miterlimit: 10.000000;fill: none;"></path>
  <path d="M1751.328415 1088.985672C1751.328415 1040.675995,1732.134613 994.350739,1697.977097 960.193222C1663.819580 926.035706,1617.494324 906.841904,1569.184647 906.841904C1520.874969 906.841904,1474.549713 926.035706,1440.392197 960.193222C1406.234680 994.350739,1387.040878 1040.675995,1387.040878 1088.985672C1387.040878 1137.295349,1406.234680 1183.620605,1440.392197 1217.778122C1474.549713 1251.935638,1520.874969 1271.129440,1569.184647 1271.129440C1617.494324 1271.129440,1663.819580 1251.935638,1697.977097 1217.778122C1732.134613 1183.620605,1751.328415 1137.295349,1751.328415 1088.985672Z" style="stroke:rgb(25.500488%,41.000366%,88.400269%); stroke-width: 2.500000;stroke-linecap: round;stroke-linejoin: round;stroke-miterlimit: 10.000000;fill: none;"></path>
  <path d="M1454.061798 1262.370651C1454.061798 1214.060974,1434.867996 1167.735718,1400.710480 1133.578201C1366.552963 1099.420685,1320.227707 1080.226883,1271.918030 1080.226883C1223.608353 1080.226883,1177.283096 1099.420685,1143.125580 1133.578201C1108.968063 1167.735718,1089.774261 1214.060974,1089.774261 1262.370651C1089.774261 1310.680328,1108.968063 1357.005585,1143.125580 1391.163101C1177.283096 1425.320618,1223.608353 1444.514420,1271.918030 1444.514420C1320.227707 1444.514420,1366.552963 1425.320618,1400.710480 1391.163101C1434.867996 1357.005585,1454.061798 1310.680328,1454.061798 1262.370651Z" style="stroke:rgb(25.500488%,41.000366%,88.400269%); stroke-width: 2.500000;stroke-linecap: round;stroke-linejoin: round;stroke-miterlimit: 10.000000;fill: none;"></path>
  <path d="M1477.120102 1554.109512C1477.120102 1505.799835,1457.926300 1459.474579,1423.768784 1425.317062C1389.611267 1391.159546,1343.286011 1371.965744,1294.976334 1371.965744C1246.666656 1371.965744,1200.341400 1391.159546,1166.183884 1425.317062C1132.026367 1459.474579,1112.832565 1505.799835,1112.832565 1554.109512C1112.832565 1602.419189,1132.026367 1648.744446,1166.183884 1682.901962C1200.341400 1717.059479,1246.666656 1736.253281,1294.976334 1736.253281C1343.286011 1736.253281,1389.611267 1717.059479,1423.768784 1682.901962C1457.926300 1648.744446,1477.120102 1602.419189,1477.120102 1554.109512Z" style="stroke:rgb(25.500488%,41.000366%,88.400269%); stroke-width: 2.500000;stroke-linecap: round;stroke-linejoin: round;stroke-miterlimit: 10.000000;fill: none;"></path>
  <path d="M543.745224 445.299438C543.745224 396.989761,524.551422 350.664505,490.393906 316.506989C456.236389 282.349472,409.911133 263.155670,361.601456 263.155670C313.291779 263.155670,266.966522 282.349472,232.809006 316.506989C198.651489 350.664505,179.457687 396.989761,179.457687 445.299438C179.457687 493.609116,198.651489 539.934372,232.809006 574.091888C266.966522 608.249405,313.291779 627.443207,361.601456 627.443207C409.911133 627.443207,456.236389 608.249405,490.393906 574.091888C524.551422 539.934372,543.745224 493.609116,543.745224 445.299438Z" style="stroke:rgb(25.500488%,41.000366%,88.400269%); stroke-width: 2.500000;stroke-linecap: round;stroke-linejoin: round;stroke-miterlimit: 10.000000;fill: none;"></path>
  <path d="M1747.604309 527.216766C1747.604309 478.907089,1728.410507 432.581833,1694.252991 398.424316C1660.095474 364.266800,1613.770218 345.072998,1565.460541 345.072998C1517.150864 345.072998,1470.825607 364.266800,1436.668091 398.424316C1402.510574 432.581833,1383.316772 478.907089,1383.316772 527.216766C1383.316772 575.526443,1402.510574 621.851700,1436.668091 656.009216C1470.825607 690.166733,1517.150864 709.360535,1565.460541 709.360535C1613.770218 709.360535,1660.095474 690.166733,1694.252991 656.009216C1728.410507 621.851700,1747.604309 575.526443,1747.604309 527.216766Z" style="stroke:rgb(25.500488%,41.000366%,88.400269%); stroke-width: 2.500000;stroke-linecap: round;stroke-linejoin: round;stroke-miterlimit: 10.000000;fill: none;"></path>
  <path d="M452.342453 1328.470276C452.342453 1280.160599,433.148651 1233.835342,398.991135 1199.677826C364.833618 1165.520309,318.508362 1146.326508,270.198685 1146.326508C221.889008 1146.326508,175.563751 1165.520309,141.406235 1199.677826C107.248718 1233.835342,88.054916 1280.160599,88.054916 1328.470276C88.054916 1376.779953,107.248718 1423.105209,141.406235 1457.262726C175.563751 1491.420242,221.889008 1510.614044,270.198685 1510.614044C318.508362 1510.614044,364.833618 1491.420242,398.991135 1457.262726C433.148651 1423.105209,452.342453 1376.779953,452.342453 1328.470276Z" style="stroke:rgb(25.500488%,41.000366%,88.400269%); stroke-width: 2.500000;stroke-linecap: round;stroke-linejoin: round;stroke-miterlimit: 10.000000;fill: none;"></path>
  <path d="M980.270004 182.522964C980.270004 134.213287,961.076202 87.888031,926.918686 53.730515C892.761169 19.572998,846.435913 0.379196,798.126236 0.379196C749.816559 0.379196,703.491302 19.572998,669.333786 53.730515C635.176270 87.888031,615.982468 134.213287,615.982468 182.522964C615.982468 230.832642,635.176270 277.157898,669.333786 311.315414C703.491302 345.472931,749.816559 364.666733,798.126236 364.666733C846.435913 364.666733,892.761169 345.472931,926.918686 311.315414C961.076202 277.157898,980.270004 230.832642,980.270004 182.522964Z" style="stroke:rgb(25.500488%,41.000366%,88.400269%); stroke-width: 2.500000;stroke-linecap: round;stroke-linejoin: round;stroke-miterlimit: 10.000000;fill: none;"></path>
  <path d="M1736.094620 1377.311844C1736.094620 1329.002167,1716.900818 1282.676910,1682.743301 1248.519394C1648.585785 1214.361877,1602.260529 1195.168076,1553.950851 1195.168076C1505.641174 1195.168076,1459.315918 1214.361877,1425.158401 1248.519394C1391.000885 1282.676910,1371.807083 1329.002167,1371.807083 1377.311844C1371.807083 1425.621521,1391.000885 1471.946777,1425.158401 1506.104294C1459.315918 1540.261810,1505.641174 1559.455612,1553.950851 1559.455612C1602.260529 1559.455612,1648.585785 1540.261810,1682.743301 1506.104294C1716.900818 1471.946777,1736.094620 1425.621521,1736.094620 1377.311844Z" style="stroke:rgb(25.500488%,41.000366%,88.400269%); stroke-width: 2.500000;stroke-linecap: round;stroke-linejoin: round;stroke-miterlimit: 10.000000;fill: none;"></path>
  <path d="M1227.592102 1726.625107C1227.592102 1678.315430,1208.398300 1631.990173,1174.240784 1597.832657C1140.083267 1563.675140,1093.758011 1544.481339,1045.448334 1544.481339C997.138657 1544.481339,950.813400 1563.675140,916.655884 1597.832657C882.498367 1631.990173,863.304565 1678.315430,863.304565 1726.625107C863.304565 1774.934784,882.498367 1821.260040,916.655884 1855.417557C950.813400 1889.575073,997.138657 1908.768875,1045.448334 1908.768875C1093.758011 1908.768875,1140.083267 1889.575073,1174.240784 1855.417557C1208.398300 1821.260040,1227.592102 1774.934784,1227.592102 1726.625107Z" style="stroke:rgb(25.500488%,41.000366%,88.400269%); stroke-width: 2.500000;stroke-linecap: round;stroke-linejoin: round;stroke-miterlimit: 10.000000;fill: none;"></path>
  <path d="M920.191238 1629.292313C920.191238 1580.982635,900.997437 1534.657379,866.839920 1500.499863C832.682404 1466.342346,786.357147 1447.148544,738.047470 1447.148544C689.737793 1447.148544,643.412537 1466.342346,609.255020 1500.499863C575.097504 1534.657379,555.903702 1580.982635,555.903702 1629.292313C555.903702 1677.601990,575.097504 1723.927246,609.255020 1758.084763C643.412537 1792.242279,689.737793 1811.436081,738.047470 1811.436081C786.357147 1811.436081,832.682404 1792.242279,866.839920 1758.084763C900.997437 1723.927246,920.191238 1677.601990,920.191238 1629.292313Z" style="stroke:rgb(25.500488%,41.000366%,88.400269%); stroke-width: 2.500000;stroke-linecap: round;stroke-linejoin: round;stroke-miterlimit: 10.000000;fill: none;"></path>
  <path d="M390.421097 714.031891C390.421097 665.722214,371.227295 619.396957,337.069778 585.239441C302.912262 551.081924,256.587006 531.888123,208.277328 531.888123C159.967651 531.888123,113.642395 551.081924,79.484879 585.239441C45.327362 619.396957,26.133560 665.722214,26.133560 714.031891C26.133560 762.341568,45.327362 808.666824,79.484879 842.824341C113.642395 876.981857,159.967651 896.175659,208.277328 896.175659C256.587006 896.175659,302.912262 876.981857,337.069778 842.824341C371.227295 808.666824,390.421097 762.341568,390.421097 714.031891Z" style="stroke:rgb(25.500488%,41.000366%,88.400269%); stroke-width: 2.500000;stroke-linecap: round;stroke-linejoin: round;stroke-miterlimit: 10.000000;fill: none;"></path>
  <path d="M364.663788 1017.410187C364.663788 969.100510,345.469986 922.775253,311.312469 888.617737C277.154953 854.460220,230.829697 835.266418,182.520020 835.266418C134.210342 835.266418,87.885086 854.460220,53.727570 888.617737C19.570053 922.775253,0.376251 969.100510,0.376251 1017.410187C0.376251 1065.719864,19.570053 1112.045120,53.727570 1146.202637C87.885086 1180.360153,134.210342 1199.553955,182.520020 1199.553955C230.829697 1199.553955,277.154953 1180.360153,311.312469 1146.202637C345.469986 1112.045120,364.663788 1065.719864,364.663788 1017.410187Z" style="stroke:rgb(25.500488%,41.000366%,88.400269%); stroke-width: 2.500000;stroke-linecap: round;stroke-linejoin: round;stroke-miterlimit: 10.000000;fill: none;"></path>
  <path d="M1871.615707 853.601486C1871.615707 805.291809,1852.421906 758.966553,1818.264389 724.809036C1784.106873 690.651520,1737.781616 671.457718,1689.471939 671.457718C1641.162262 671.457718,1594.837006 690.651520,1560.679489 724.809036C1526.521973 758.966553,1507.328171 805.291809,1507.328171 853.601486C1507.328171 901.911163,1526.521973 948.236420,1560.679489 982.393936C1594.837006 1016.551453,1641.162262 1035.745255,1689.471939 1035.745255C1737.781616 1035.745255,1784.106873 1016.551453,1818.264389 982.393936C1852.421906 948.236420,1871.615707 901.911163,1871.615707 853.601486Z" style="stroke:rgb(25.500488%,41.000366%,88.400269%); stroke-width: 2.500000;stroke-linecap: round;stroke-linejoin: round;stroke-miterlimit: 10.000000;fill: none;"></path>
</svg>
