<?xml version="1.0"?>
<!-- Created by MetaPost 2.00 on 2022.03.02:1201 -->
<svg version="1.1" xmlns="http://www.w3.org/2000/svg" xmlns:xlink="http://www.w3.org/1999/xlink" width="2012.348846" height="2006.003586" viewBox="0 0 2012.348846 2006.003586">
<!-- Original BoundingBox: -1012.571579 -1011.935745 999.777267 994.067841 -->
  <path d="M1012.000000 143.606476L465.374054 342.567108L174.530548 846.333405L275.535538 1419.196762L721.143509 1793.112473L1302.856491 1793.112473L1748.464462 1419.196762L1849.469452 846.333405L1558.625946 342.567108L1012.000000 143.606476Z" style="fill: rgb(100.000000%,100.000000%,100.000000%);stroke: none;"></path>
  <path d="M1012.000000 143.606476L465.374054 342.567108" style="stroke:rgb(0.000000%,0.000000%,0.000000%); stroke-width: 2.500000;stroke-linecap: round;stroke-linejoin: round;stroke-miterlimit: 10.000000;fill: none;"></path>
  <path d="M465.374054 342.567108L174.530548 846.333405" style="stroke:rgb(0.000000%,0.000000%,0.000000%); stroke-width: 2.500000;stroke-linecap: round;stroke-linejoin: round;stroke-miterlimit: 10.000000;fill: none;"></path>
  <path d="M174.530548 846.333405L275.535538 1419.196762" style="stroke:rgb(0.000000%,0.000000%,0.000000%); stroke-width: 2.500000;stroke-linecap: round;stroke-linejoin: round;stroke-miterlimit: 10.000000;fill: none;"></path>
  <path d="M275.535538 1419.196762L721.143509 1793.112473" style="stroke:rgb(0.000000%,0.000000%,0.000000%); stroke-width: 2.500000;stroke-linecap: round;stroke-linejoin: round;stroke-miterlimit: 10.000000;fill: none;"></path>
  <path d="M721.143509 1793.112473L1302.856491 1793.112473" style="stroke:rgb(0.000000%,0.000000%,0.000000%); stroke-width: 2.500000;stroke-linecap: round;stroke-linejoin: round;stroke-miterlimit: 10.000000;fill: none;"></path>
  <path d="M1302.856491 1793.112473L1748.464462 1419.196762" style="stroke:rgb(0.000000%,0.000000%,0.000000%); stroke-width: 2.500000;stroke-linecap: round;stroke-linejoin: round;stroke-miterlimit: 10.000000;fill: none;"></path>
  <path d="M1748.464462 1419.196762L1849.469452 846.333405" style="stroke:rgb(0.000000%,0.000000%,0.000000%); stroke-width: 2.500000;stroke-linecap: round;stroke-linejoin: round;stroke-miterlimit: 10.000000;fill: none;"></path>
  <path d="M1849.469452 846.333405L1558.625946 342.567108" style="stroke:rgb(0.000000%,0.000000%,0.000000%); stroke-width: 2.500000;stroke-linecap: round;stroke-linejoin: round;stroke-miterlimit: 10.000000;fill: none;"></path>
  <path d="M1558.625946 342.567108L1012.000000 143.606476" style="stroke:rgb(0.000000%,0.000000%,0.000000%); stroke-width: 2.500000;stroke-linecap: round;stroke-linejoin: round;stroke-miterlimit: 10.000000;fill: none;"></path>
  <path d="M1402.979126 1677.133194C1402.979126 1590.257004,1368.462555 1506.949417,1307.036453 1445.523315C1245.610352 1384.097214,1162.302765 1349.580643,1075.426575 1349.580643C988.550385 1349.580643,905.242798 1384.097214,843.816696 1445.523315C782.390594 1506.949417,747.874023 1590.257004,747.874023 1677.133194C747.874023 1764.009384,782.390594 1847.316971,843.816696 1908.743073C905.242798 1970.169174,988.550385 2004.685745,1075.426575 2004.685745C1162.302765 2004.685745,1245.610352 1970.169174,1307.036453 1908.743073C1368.462555 1847.316971,1402.979126 1764.009384,1402.979126 1677.133194Z" style="stroke:rgb(25.500488%,41.000366%,88.400269%); stroke-width: 2.500000;stroke-linecap: round;stroke-linejoin: round;stroke-miterlimit: 10.000000;fill: none;"></path>
  <path d="M1789.831879 1388.664291C1789.831879 1301.788101,1755.315308 1218.480515,1693.889206 1157.054413C1632.463104 1095.628311,1549.155518 1061.111740,1462.279327 1061.111740C1375.403137 1061.111740,1292.095551 1095.628311,1230.669449 1157.054413C1169.243347 1218.480515,1134.726776 1301.788101,1134.726776 1388.664291C1134.726776 1475.540482,1169.243347 1558.848068,1230.669449 1620.274170C1292.095551 1681.700272,1375.403137 1716.216843,1462.279327 1716.216843C1549.155518 1716.216843,1632.463104 1681.700272,1693.889206 1620.274170C1755.315308 1558.848068,1789.831879 1475.540482,1789.831879 1388.664291Z" style="stroke:rgb(25.500488%,41.000366%,88.400269%); stroke-width: 2.500000;stroke-linecap: round;stroke-linejoin: round;stroke-miterlimit: 10.000000;fill: none;"></path>
  <path d="M2010.527267 968.177811C2010.527267 881.301620,1976.010696 797.994034,1914.584595 736.567932C1853.158493 675.141830,1769.850906 640.625259,1682.974716 640.625259C1596.098526 640.625259,1512.790939 675.141830,1451.364838 736.567932C1389.938736 797.994034,1355.422165 881.301620,1355.422165 968.177811C1355.422165 1055.054001,1389.938736 1138.361588,1451.364838 1199.787689C1512.790939 1261.213791,1596.098526 1295.730362,1682.974716 1295.730362C1769.850906 1295.730362,1853.158493 1261.213791,1914.584595 1199.787689C1976.010696 1138.361588,2010.527267 1055.054001,2010.527267 968.177811Z" style="stroke:rgb(25.500488%,41.000366%,88.400269%); stroke-width: 2.500000;stroke-linecap: round;stroke-linejoin: round;stroke-miterlimit: 10.000000;fill: none;"></path>
  <path d="M845.725861 1582.525360C845.725861 1495.649170,811.209290 1412.341583,749.783188 1350.915482C688.357086 1289.489380,605.049500 1254.972809,518.173309 1254.972809C431.297119 1254.972809,347.989532 1289.489380,286.563431 1350.915482C225.137329 1412.341583,190.620758 1495.649170,190.620758 1582.525360C190.620758 1669.401550,225.137329 1752.709137,286.563431 1814.135239C347.989532 1875.561340,431.297119 1910.077911,518.173309 1910.077911C605.049500 1910.077911,688.357086 1875.561340,749.783188 1814.135239C811.209290 1752.709137,845.725861 1669.401550,845.725861 1582.525360Z" style="stroke:rgb(25.500488%,41.000366%,88.400269%); stroke-width: 2.500000;stroke-linecap: round;stroke-linejoin: round;stroke-miterlimit: 10.000000;fill: none;"></path>
  <path d="M1213.049774 1144.754883C1213.049774 1057.878693,1178.533203 974.571106,1117.107101 913.145004C1055.681000 851.718903,972.373413 817.202332,885.497223 817.202332C798.621033 817.202332,715.313446 851.718903,653.887344 913.145004C592.461243 974.571106,557.944672 1057.878693,557.944672 1144.754883C557.944672 1231.631073,592.461243 1314.938660,653.887344 1376.364761C715.313446 1437.790863,798.621033 1472.307434,885.497223 1472.307434C972.373413 1472.307434,1055.681000 1437.790863,1117.107101 1376.364761C1178.533203 1314.938660,1213.049774 1231.631073,1213.049774 1144.754883Z" style="stroke:rgb(25.500488%,41.000366%,88.400269%); stroke-width: 2.500000;stroke-linecap: round;stroke-linejoin: round;stroke-miterlimit: 10.000000;fill: none;"></path>
  <path d="M1449.446091 863.033478C1449.446091 776.157288,1414.929520 692.849701,1353.503418 631.423599C1292.077316 569.997498,1208.769730 535.480927,1121.893539 535.480927C1035.017349 535.480927,951.709763 569.997498,890.283661 631.423599C828.857559 692.849701,794.340988 776.157288,794.340988 863.033478C794.340988 949.909668,828.857559 1033.217255,890.283661 1094.643356C951.709763 1156.069458,1035.017349 1190.586029,1121.893539 1190.586029C1208.769730 1190.586029,1292.077316 1156.069458,1353.503418 1094.643356C1414.929520 1033.217255,1449.446091 949.909668,1449.446091 863.033478Z" style="stroke:rgb(25.500488%,41.000366%,88.400269%); stroke-width: 2.500000;stroke-linecap: round;stroke-linejoin: round;stroke-miterlimit: 10.000000;fill: none;"></path>
  <path d="M1809.503448 433.930954C1809.503448 347.054764,1774.986877 263.747177,1713.560776 202.321075C1652.134674 140.894974,1568.827087 106.378403,1481.950897 106.378403C1395.074707 106.378403,1311.767120 140.894974,1250.341019 202.321075C1188.914917 263.747177,1154.398346 347.054764,1154.398346 433.930954C1154.398346 520.807144,1188.914917 604.114731,1250.341019 665.540833C1311.767120 726.966934,1395.074707 761.483505,1481.950897 761.483505C1568.827087 761.483505,1652.134674 726.966934,1713.560776 665.540833C1774.986877 604.114731,1809.503448 520.807144,1809.503448 433.930954Z" style="stroke:rgb(25.500488%,41.000366%,88.400269%); stroke-width: 2.500000;stroke-linecap: round;stroke-linejoin: round;stroke-miterlimit: 10.000000;fill: none;"></path>
  <path d="M655.783524 1050.160019C655.783524 963.283829,621.266953 879.976242,559.840851 818.550140C498.414749 757.124039,415.107162 722.607468,328.230972 722.607468C241.354782 722.607468,158.047195 757.124039,96.621094 818.550140C35.194992 879.976242,0.678421 963.283829,0.678421 1050.160019C0.678421 1137.036209,35.194992 1220.343796,96.621094 1281.769897C158.047195 1343.195999,241.354782 1377.712570,328.230972 1377.712570C415.107162 1377.712570,498.414749 1343.195999,559.840851 1281.769897C621.266953 1220.343796,655.783524 1137.036209,655.783524 1050.160019Z" style="stroke:rgb(25.500488%,41.000366%,88.400269%); stroke-width: 2.500000;stroke-linecap: round;stroke-linejoin: round;stroke-miterlimit: 10.000000;fill: none;"></path>
  <path d="M872.689926 619.098114C872.689926 532.221924,838.173355 448.914337,776.747253 387.488235C715.321152 326.062134,632.013565 291.545563,545.137375 291.545563C458.261185 291.545563,374.953598 326.062134,313.527496 387.488235C252.101395 448.914337,217.584824 532.221924,217.584824 619.098114C217.584824 705.974304,252.101395 789.281891,313.527496 850.707993C374.953598 912.134094,458.261185 946.650665,545.137375 946.650665C632.013565 946.650665,715.321152 912.134094,776.747253 850.707993C838.173355 789.281891,872.689926 705.974304,872.689926 619.098114Z" style="stroke:rgb(25.500488%,41.000366%,88.400269%); stroke-width: 2.500000;stroke-linecap: round;stroke-linejoin: round;stroke-miterlimit: 10.000000;fill: none;"></path>
  <path d="M1248.474182 328.734711C1248.474182 241.858521,1213.957611 158.550934,1152.531509 97.124832C1091.105408 35.698730,1007.797821 1.182159,920.921631 1.182159C834.045441 1.182159,750.737854 35.698730,689.311752 97.124832C627.885651 158.550934,593.369080 241.858521,593.369080 328.734711C593.369080 415.610901,627.885651 498.918488,689.311752 560.344589C750.737854 621.770691,834.045441 656.287262,920.921631 656.287262C1007.797821 656.287262,1091.105408 621.770691,1152.531509 560.344589C1213.957611 498.918488,1248.474182 415.610901,1248.474182 328.734711Z" style="stroke:rgb(25.500488%,41.000366%,88.400269%); stroke-width: 2.500000;stroke-linecap: round;stroke-linejoin: round;stroke-miterlimit: 10.000000;fill: none;"></path>
</svg>
