<?xml version="1.0"?>
<!-- Created by MetaPost 2.00 on 2022.03.02:1201 -->
<svg version="1.1" xmlns="http://www.w3.org/2000/svg" xmlns:xlink="http://www.w3.org/1999/xlink" width="1797.466690" height="1605.746658" viewBox="0 0 1797.466690 1605.746658">
<!-- Original BoundingBox: -906.804398 -791.746429 890.662292 814.000229 -->
  <path d="M1756.393524 814.000000L1331.196762 77.535538L480.803238 77.535538L55.606476 814.000000L480.803238 1550.464462L1331.196762 1550.464462L1756.393524 814.000000Z" style="fill: rgb(100.000000%,100.000000%,100.000000%);stroke: none;"></path>
  <path d="M1756.393524 814.000000L1331.196762 77.535538" style="stroke:rgb(0.000000%,0.000000%,0.000000%); stroke-width: 2.500000;stroke-linecap: round;stroke-linejoin: round;stroke-miterlimit: 10.000000;fill: none;"></path>
  <path d="M1331.196762 77.535538L480.803238 77.535538" style="stroke:rgb(0.000000%,0.000000%,0.000000%); stroke-width: 2.500000;stroke-linecap: round;stroke-linejoin: round;stroke-miterlimit: 10.000000;fill: none;"></path>
  <path d="M480.803238 77.535538L55.606476 814.000000" style="stroke:rgb(0.000000%,0.000000%,0.000000%); stroke-width: 2.500000;stroke-linecap: round;stroke-linejoin: round;stroke-miterlimit: 10.000000;fill: none;"></path>
  <path d="M55.606476 814.000000L480.803238 1550.464462" style="stroke:rgb(0.000000%,0.000000%,0.000000%); stroke-width: 2.500000;stroke-linecap: round;stroke-linejoin: round;stroke-miterlimit: 10.000000;fill: none;"></path>
  <path d="M480.803238 1550.464462L1331.196762 1550.464462" style="stroke:rgb(0.000000%,0.000000%,0.000000%); stroke-width: 2.500000;stroke-linecap: round;stroke-linejoin: round;stroke-miterlimit: 10.000000;fill: none;"></path>
  <path d="M1331.196762 1550.464462L1756.393524 814.000000" style="stroke:rgb(0.000000%,0.000000%,0.000000%); stroke-width: 2.500000;stroke-linecap: round;stroke-linejoin: round;stroke-miterlimit: 10.000000;fill: none;"></path>
  <path d="M573.036469 287.253250C573.036469 253.384506,559.580154 220.906982,535.633148 196.959991C511.686157 173.012985,479.208633 159.556671,445.339890 159.556671C411.471146 159.556671,378.993622 173.012985,355.046631 196.959991C331.099625 220.906982,317.643311 253.384506,317.643311 287.253250C317.643311 321.121994,331.099625 353.599518,355.046631 377.546509C378.993622 401.493515,411.471146 414.949829,445.339890 414.949829C479.208633 414.949829,511.686157 401.493515,535.633148 377.546509C559.580154 353.599518,573.036469 321.121994,573.036469 287.253250Z" style="stroke:rgb(25.500488%,41.000366%,88.400269%); stroke-width: 2.500000;stroke-linecap: round;stroke-linejoin: round;stroke-miterlimit: 10.000000;fill: none;"></path>
  <path d="M507.352081 457.511032C507.352081 423.642288,493.895767 391.164764,469.948761 367.217773C446.001770 343.270767,413.524246 329.814453,379.655502 329.814453C345.786758 329.814453,313.309235 343.270767,289.362244 367.217773C265.415237 391.164764,251.958923 423.642288,251.958923 457.511032C251.958923 491.379776,265.415237 523.857300,289.362244 547.804291C313.309235 571.751297,345.786758 585.207611,379.655502 585.207611C413.524246 585.207611,446.001770 571.751297,469.948761 547.804291C493.895767 523.857300,507.352081 491.379776,507.352081 457.511032Z" style="stroke:rgb(25.500488%,41.000366%,88.400269%); stroke-width: 2.500000;stroke-linecap: round;stroke-linejoin: round;stroke-miterlimit: 10.000000;fill: none;"></path>
  <path d="M464.764938 752.831253C464.764938 718.962509,451.308624 686.484985,427.361618 662.537994C403.414627 638.590988,370.937103 625.134674,337.068359 625.134674C303.199615 625.134674,270.722092 638.590988,246.775101 662.537994C222.828094 686.484985,209.371780 718.962509,209.371780 752.831253C209.371780 786.699997,222.828094 819.177521,246.775101 843.124512C270.722092 867.071518,303.199615 880.527832,337.068359 880.527832C370.937103 880.527832,403.414627 867.071518,427.361618 843.124512C451.308624 819.177521,464.764938 786.699997,464.764938 752.831253Z" style="stroke:rgb(25.500488%,41.000366%,88.400269%); stroke-width: 2.500000;stroke-linecap: round;stroke-linejoin: round;stroke-miterlimit: 10.000000;fill: none;"></path>
  <path d="M806.759750 314.956955C806.759750 281.088211,793.303436 248.610687,769.356430 224.663696C745.409439 200.716690,712.931915 187.260376,679.063171 187.260376C645.194427 187.260376,612.716904 200.716690,588.769913 224.663696C564.822906 248.610687,551.366592 281.088211,551.366592 314.956955C551.366592 348.825699,564.822906 381.303223,588.769913 405.250214C612.716904 429.197220,645.194427 442.653534,679.063171 442.653534C712.931915 442.653534,745.409439 429.197220,769.356430 405.250214C793.303436 381.303223,806.759750 348.825699,806.759750 314.956955Z" style="stroke:rgb(25.500488%,41.000366%,88.400269%); stroke-width: 2.500000;stroke-linecap: round;stroke-linejoin: round;stroke-miterlimit: 10.000000;fill: none;"></path>
  <path d="M709.764328 475.430847C709.764328 441.562103,696.308014 409.084579,672.361008 385.137589C648.414017 361.190582,615.936493 347.734268,582.067749 347.734268C548.199005 347.734268,515.721481 361.190582,491.774490 385.137589C467.827484 409.084579,454.371170 441.562103,454.371170 475.430847C454.371170 509.299591,467.827484 541.777115,491.774490 565.724106C515.721481 589.671112,548.199005 603.127426,582.067749 603.127426C615.936493 603.127426,648.414017 589.671112,672.361008 565.724106C696.308014 541.777115,709.764328 509.299591,709.764328 475.430847Z" style="stroke:rgb(25.500488%,41.000366%,88.400269%); stroke-width: 2.500000;stroke-linecap: round;stroke-linejoin: round;stroke-miterlimit: 10.000000;fill: none;"></path>
  <path d="M617.608948 670.239166C617.608948 636.370422,604.152634 603.892899,580.205627 579.945908C556.258636 555.998901,523.781113 542.542587,489.912369 542.542587C456.043625 542.542587,423.566101 555.998901,399.619110 579.945908C375.672104 603.892899,362.215790 636.370422,362.215790 670.239166C362.215790 704.107910,375.672104 736.585434,399.619110 760.532425C423.566101 784.479431,456.043625 797.935745,489.912369 797.935745C523.781113 797.935745,556.258636 784.479431,580.205627 760.532425C604.152634 736.585434,617.608948 704.107910,617.608948 670.239166Z" style="stroke:rgb(25.500488%,41.000366%,88.400269%); stroke-width: 2.500000;stroke-linecap: round;stroke-linejoin: round;stroke-miterlimit: 10.000000;fill: none;"></path>
  <path d="M566.353851 907.673569C566.353851 873.804825,552.897537 841.327301,528.950531 817.380310C505.003540 793.433304,472.526016 779.976990,438.657272 779.976990C404.788528 779.976990,372.311005 793.433304,348.364014 817.380310C324.417007 841.327301,310.960693 873.804825,310.960693 907.673569C310.960693 941.542313,324.417007 974.019836,348.364014 997.966827C372.311005 1021.913834,404.788528 1035.370148,438.657272 1035.370148C472.526016 1035.370148,505.003540 1021.913834,528.950531 997.966827C552.897537 974.019836,566.353851 941.542313,566.353851 907.673569Z" style="stroke:rgb(25.500488%,41.000366%,88.400269%); stroke-width: 2.500000;stroke-linecap: round;stroke-linejoin: round;stroke-miterlimit: 10.000000;fill: none;"></path>
  <path d="M1037.446640 308.417068C1037.446640 274.548325,1023.990326 242.070801,1000.043320 218.123810C976.096329 194.176804,943.618805 180.720490,909.750061 180.720490C875.881317 180.720490,843.403793 194.176804,819.456802 218.123810C795.509796 242.070801,782.053482 274.548325,782.053482 308.417068C782.053482 342.285812,795.509796 374.763336,819.456802 398.710327C843.403793 422.657333,875.881317 436.113647,909.750061 436.113647C943.618805 436.113647,976.096329 422.657333,1000.043320 398.710327C1023.990326 374.763336,1037.446640 342.285812,1037.446640 308.417068Z" style="stroke:rgb(25.500488%,41.000366%,88.400269%); stroke-width: 2.500000;stroke-linecap: round;stroke-linejoin: round;stroke-miterlimit: 10.000000;fill: none;"></path>
  <path d="M933.444199 493.688049C933.444199 459.819305,919.987885 427.341782,896.040878 403.394791C872.093887 379.447784,839.616364 365.991470,805.747620 365.991470C771.878876 365.991470,739.401352 379.447784,715.454361 403.394791C691.507355 427.341782,678.051041 459.819305,678.051041 493.688049C678.051041 527.556793,691.507355 560.034317,715.454361 583.981308C739.401352 607.928314,771.878876 621.384628,805.747620 621.384628C839.616364 621.384628,872.093887 607.928314,896.040878 583.981308C919.987885 560.034317,933.444199 527.556793,933.444199 493.688049Z" style="stroke:rgb(25.500488%,41.000366%,88.400269%); stroke-width: 2.500000;stroke-linecap: round;stroke-linejoin: round;stroke-miterlimit: 10.000000;fill: none;"></path>
  <path d="M831.245407 672.172592C831.245407 638.303848,817.789093 605.826324,793.842087 581.879333C769.895096 557.932327,737.417572 544.476013,703.548828 544.476013C669.680084 544.476013,637.202560 557.932327,613.255569 581.879333C589.308563 605.826324,575.852249 638.303848,575.852249 672.172592C575.852249 706.041336,589.308563 738.518860,613.255569 762.465851C637.202560 786.412857,669.680084 799.869171,703.548828 799.869171C737.417572 799.869171,769.895096 786.412857,793.842087 762.465851C817.789093 738.518860,831.245407 706.041336,831.245407 672.172592Z" style="stroke:rgb(25.500488%,41.000366%,88.400269%); stroke-width: 2.500000;stroke-linecap: round;stroke-linejoin: round;stroke-miterlimit: 10.000000;fill: none;"></path>
  <path d="M736.741379 868.226608C736.741379 834.357864,723.285065 801.880341,699.338058 777.933350C675.391068 753.986343,642.913544 740.530029,609.044800 740.530029C575.176056 740.530029,542.698532 753.986343,518.751541 777.933350C494.804535 801.880341,481.348221 834.357864,481.348221 868.226608C481.348221 902.095352,494.804535 934.572876,518.751541 958.519867C542.698532 982.466873,575.176056 995.923187,609.044800 995.923187C642.913544 995.923187,675.391068 982.466873,699.338058 958.519867C723.285065 934.572876,736.741379 902.095352,736.741379 868.226608Z" style="stroke:rgb(25.500488%,41.000366%,88.400269%); stroke-width: 2.500000;stroke-linecap: round;stroke-linejoin: round;stroke-miterlimit: 10.000000;fill: none;"></path>
  <path d="M671.809601 1096.824356C671.809601 1062.955612,658.353287 1030.478088,634.406281 1006.531097C610.459290 982.584091,577.981766 969.127777,544.113022 969.127777C510.244278 969.127777,477.766754 982.584091,453.819763 1006.531097C429.872757 1030.478088,416.416443 1062.955612,416.416443 1096.824356C416.416443 1130.693100,429.872757 1163.170624,453.819763 1187.117615C477.766754 1211.064621,510.244278 1224.520935,544.113022 1224.520935C577.981766 1224.520935,610.459290 1211.064621,634.406281 1187.117615C658.353287 1163.170624,671.809601 1130.693100,671.809601 1096.824356Z" style="stroke:rgb(25.500488%,41.000366%,88.400269%); stroke-width: 2.500000;stroke-linecap: round;stroke-linejoin: round;stroke-miterlimit: 10.000000;fill: none;"></path>
  <path d="M1268.081619 314.269241C1268.081619 280.400497,1254.625305 247.922974,1230.678299 223.975983C1206.731308 200.028976,1174.253784 186.572662,1140.385040 186.572662C1106.516296 186.572662,1074.038773 200.028976,1050.091782 223.975983C1026.144775 247.922974,1012.688461 280.400497,1012.688461 314.269241C1012.688461 348.137985,1026.144775 380.615509,1050.091782 404.562500C1074.038773 428.509506,1106.516296 441.965820,1140.385040 441.965820C1174.253784 441.965820,1206.731308 428.509506,1230.678299 404.562500C1254.625305 380.615509,1268.081619 348.137985,1268.081619 314.269241Z" style="stroke:rgb(25.500488%,41.000366%,88.400269%); stroke-width: 2.500000;stroke-linecap: round;stroke-linejoin: round;stroke-miterlimit: 10.000000;fill: none;"></path>
  <path d="M1161.159592 493.428528C1161.159592 459.559784,1147.703278 427.082260,1123.756271 403.135269C1099.809280 379.188263,1067.331757 365.731949,1033.463013 365.731949C999.594269 365.731949,967.116745 379.188263,943.169754 403.135269C919.222748 427.082260,905.766434 459.559784,905.766434 493.428528C905.766434 527.297272,919.222748 559.774796,943.169754 583.721786C967.116745 607.668793,999.594269 621.125107,1033.463013 621.125107C1067.331757 621.125107,1099.809280 607.668793,1123.756271 583.721786C1147.703278 559.774796,1161.159592 527.297272,1161.159592 493.428528Z" style="stroke:rgb(25.500488%,41.000366%,88.400269%); stroke-width: 2.500000;stroke-linecap: round;stroke-linejoin: round;stroke-miterlimit: 10.000000;fill: none;"></path>
  <path d="M1053.394104 678.959030C1053.394104 645.090286,1039.937790 612.612762,1015.990784 588.665771C992.043793 564.718765,959.566269 551.262451,925.697525 551.262451C891.828781 551.262451,859.351257 564.718765,835.404266 588.665771C811.457260 612.612762,798.000946 645.090286,798.000946 678.959030C798.000946 712.827774,811.457260 745.305298,835.404266 769.252289C859.351257 793.199295,891.828781 806.655609,925.697525 806.655609C959.566269 806.655609,992.043793 793.199295,1015.990784 769.252289C1039.937790 745.305298,1053.394104 712.827774,1053.394104 678.959030Z" style="stroke:rgb(25.500488%,41.000366%,88.400269%); stroke-width: 2.500000;stroke-linecap: round;stroke-linejoin: round;stroke-miterlimit: 10.000000;fill: none;"></path>
  <path d="M953.336365 865.501648C953.336365 831.632904,939.880051 799.155380,915.933044 775.208389C891.986053 751.261383,859.508530 737.805069,825.639786 737.805069C791.771042 737.805069,759.293518 751.261383,735.346527 775.208389C711.399521 799.155380,697.943207 831.632904,697.943207 865.501648C697.943207 899.370392,711.399521 931.847916,735.346527 955.794907C759.293518 979.741913,791.771042 993.198227,825.639786 993.198227C859.508530 993.198227,891.986053 979.741913,915.933044 955.794907C939.880051 931.847916,953.336365 899.370392,953.336365 865.501648Z" style="stroke:rgb(25.500488%,41.000366%,88.400269%); stroke-width: 2.500000;stroke-linecap: round;stroke-linejoin: round;stroke-miterlimit: 10.000000;fill: none;"></path>
  <path d="M858.430084 1061.594589C858.430084 1027.725845,844.973770 995.248322,821.026764 971.301331C797.079773 947.354324,764.602249 933.898010,730.733505 933.898010C696.864761 933.898010,664.387238 947.354324,640.440247 971.301331C616.493240 995.248322,603.036926 1027.725845,603.036926 1061.594589C603.036926 1095.463333,616.493240 1127.940857,640.440247 1151.887848C664.387238 1175.834854,696.864761 1189.291168,730.733505 1189.291168C764.602249 1189.291168,797.079773 1175.834854,821.026764 1151.887848C844.973770 1127.940857,858.430084 1095.463333,858.430084 1061.594589Z" style="stroke:rgb(25.500488%,41.000366%,88.400269%); stroke-width: 2.500000;stroke-linecap: round;stroke-linejoin: round;stroke-miterlimit: 10.000000;fill: none;"></path>
  <path d="M763.329163 1270.235291C763.329163 1236.366547,749.872849 1203.889023,725.925842 1179.942032C701.978851 1155.995026,669.501328 1142.538712,635.632584 1142.538712C601.763840 1142.538712,569.286316 1155.995026,545.339325 1179.942032C521.392319 1203.889023,507.936005 1236.366547,507.936005 1270.235291C507.936005 1304.104034,521.392319 1336.581558,545.339325 1360.528549C569.286316 1384.475555,601.763840 1397.931870,635.632584 1397.931870C669.501328 1397.931870,701.978851 1384.475555,725.925842 1360.528549C749.872849 1336.581558,763.329163 1304.104034,763.329163 1270.235291Z" style="stroke:rgb(25.500488%,41.000366%,88.400269%); stroke-width: 2.500000;stroke-linecap: round;stroke-linejoin: round;stroke-miterlimit: 10.000000;fill: none;"></path>
  <path d="M1389.381042 479.362564C1389.381042 445.493820,1375.924728 413.016296,1351.977722 389.069305C1328.030731 365.122299,1295.553207 351.665985,1261.684464 351.665985C1227.815720 351.665985,1195.338196 365.122299,1171.391205 389.069305C1147.444199 413.016296,1133.987885 445.493820,1133.987885 479.362564C1133.987885 513.231308,1147.444199 545.708832,1171.391205 569.655823C1195.338196 593.602829,1227.815720 607.059143,1261.684464 607.059143C1295.553207 607.059143,1328.030731 593.602829,1351.977722 569.655823C1375.924728 545.708832,1389.381042 513.231308,1389.381042 479.362564Z" style="stroke:rgb(25.500488%,41.000366%,88.400269%); stroke-width: 2.500000;stroke-linecap: round;stroke-linejoin: round;stroke-miterlimit: 10.000000;fill: none;"></path>
  <path d="M1276.619812 670.862015C1276.619812 636.993271,1263.163498 604.515747,1239.216492 580.568756C1215.269501 556.621750,1182.791977 543.165436,1148.923233 543.165436C1115.054489 543.165436,1082.576965 556.621750,1058.629974 580.568756C1034.682968 604.515747,1021.226654 636.993271,1021.226654 670.862015C1021.226654 704.730759,1034.682968 737.208282,1058.629974 761.155273C1082.576965 785.102280,1115.054489 798.558594,1148.923233 798.558594C1182.791977 798.558594,1215.269501 785.102280,1239.216492 761.155273C1263.163498 737.208282,1276.619812 704.730759,1276.619812 670.862015Z" style="stroke:rgb(25.500488%,41.000366%,88.400269%); stroke-width: 2.500000;stroke-linecap: round;stroke-linejoin: round;stroke-miterlimit: 10.000000;fill: none;"></path>
  <path d="M1161.406128 864.346786C1161.406128 830.478043,1147.949814 798.000519,1124.002808 774.053528C1100.055817 750.106522,1067.578293 736.650208,1033.709549 736.650208C999.840805 736.650208,967.363281 750.106522,943.416290 774.053528C919.469284 798.000519,906.012970 830.478043,906.012970 864.346786C906.012970 898.215530,919.469284 930.693054,943.416290 954.640045C967.363281 978.587051,999.840805 992.043365,1033.709549 992.043365C1067.578293 992.043365,1100.055817 978.587051,1124.002808 954.640045C1147.949814 930.693054,1161.406128 898.215530,1161.406128 864.346786Z" style="stroke:rgb(25.500488%,41.000366%,88.400269%); stroke-width: 2.500000;stroke-linecap: round;stroke-linejoin: round;stroke-miterlimit: 10.000000;fill: none;"></path>
  <path d="M1063.722992 1066.525452C1063.722992 1032.656708,1050.266678 1000.179184,1026.319672 976.232193C1002.372681 952.285187,969.895157 938.828873,936.026413 938.828873C902.157669 938.828873,869.680145 952.285187,845.733154 976.232193C821.786148 1000.179184,808.329834 1032.656708,808.329834 1066.525452C808.329834 1100.394196,821.786148 1132.871719,845.733154 1156.818710C869.680145 1180.765717,902.157669 1194.222031,936.026413 1194.222031C969.895157 1194.222031,1002.372681 1180.765717,1026.319672 1156.818710C1050.266678 1132.871719,1063.722992 1100.394196,1063.722992 1066.525452Z" style="stroke:rgb(25.500488%,41.000366%,88.400269%); stroke-width: 2.500000;stroke-linecap: round;stroke-linejoin: round;stroke-miterlimit: 10.000000;fill: none;"></path>
  <path d="M962.873703 1267.614151C962.873703 1233.745407,949.417389 1201.267883,925.470383 1177.320892C901.523392 1153.373886,869.045868 1139.917572,835.177124 1139.917572C801.308380 1139.917572,768.830856 1153.373886,744.883865 1177.320892C720.936859 1201.267883,707.480545 1233.745407,707.480545 1267.614151C707.480545 1301.482895,720.936859 1333.960419,744.883865 1357.907410C768.830856 1381.854416,801.308380 1395.310730,835.177124 1395.310730C869.045868 1395.310730,901.523392 1381.854416,925.470383 1357.907410C949.417389 1333.960419,962.873703 1301.482895,962.873703 1267.614151Z" style="stroke:rgb(25.500488%,41.000366%,88.400269%); stroke-width: 2.500000;stroke-linecap: round;stroke-linejoin: round;stroke-miterlimit: 10.000000;fill: none;"></path>
  <path d="M1498.210541 665.697571C1498.210541 631.828827,1484.754227 599.351303,1460.807220 575.404312C1436.860229 551.457306,1404.382706 538.000992,1370.513962 538.000992C1336.645218 538.000992,1304.167694 551.457306,1280.220703 575.404312C1256.273697 599.351303,1242.817383 631.828827,1242.817383 665.697571C1242.817383 699.566315,1256.273697 732.043839,1280.220703 755.990829C1304.167694 779.937836,1336.645218 793.394150,1370.513962 793.394150C1404.382706 793.394150,1436.860229 779.937836,1460.807220 755.990829C1484.754227 732.043839,1498.210541 699.566315,1498.210541 665.697571Z" style="stroke:rgb(25.500488%,41.000366%,88.400269%); stroke-width: 2.500000;stroke-linecap: round;stroke-linejoin: round;stroke-miterlimit: 10.000000;fill: none;"></path>
  <path d="M1374.666290 858.611404C1374.666290 824.742661,1361.209976 792.265137,1337.262970 768.318146C1313.315979 744.371140,1280.838455 730.914825,1246.969711 730.914825C1213.100967 730.914825,1180.623444 744.371140,1156.676453 768.318146C1132.729446 792.265137,1119.273132 824.742661,1119.273132 858.611404C1119.273132 892.480148,1132.729446 924.957672,1156.676453 948.904663C1180.623444 972.851669,1213.100967 986.307983,1246.969711 986.307983C1280.838455 986.307983,1313.315979 972.851669,1337.262970 948.904663C1361.209976 924.957672,1374.666290 892.480148,1374.666290 858.611404Z" style="stroke:rgb(25.500488%,41.000366%,88.400269%); stroke-width: 2.500000;stroke-linecap: round;stroke-linejoin: round;stroke-miterlimit: 10.000000;fill: none;"></path>
  <path d="M1266.083328 1059.297836C1266.083328 1025.429092,1252.627014 992.951569,1228.680008 969.004578C1204.733017 945.057571,1172.255493 931.601257,1138.386749 931.601257C1104.518005 931.601257,1072.040482 945.057571,1048.093491 969.004578C1024.146484 992.951569,1010.690170 1025.429092,1010.690170 1059.297836C1010.690170 1093.166580,1024.146484 1125.644104,1048.093491 1149.591095C1072.040482 1173.538101,1104.518005 1186.994415,1138.386749 1186.994415C1172.255493 1186.994415,1204.733017 1173.538101,1228.680008 1149.591095C1252.627014 1125.644104,1266.083328 1093.166580,1266.083328 1059.297836Z" style="stroke:rgb(25.500488%,41.000366%,88.400269%); stroke-width: 2.500000;stroke-linecap: round;stroke-linejoin: round;stroke-miterlimit: 10.000000;fill: none;"></path>
  <path d="M1171.293823 1268.340805C1171.293823 1234.472061,1157.837509 1201.994537,1133.890503 1178.047546C1109.943512 1154.100540,1077.465988 1140.644226,1043.597244 1140.644226C1009.728500 1140.644226,977.250977 1154.100540,953.303986 1178.047546C929.356979 1201.994537,915.900665 1234.472061,915.900665 1268.340805C915.900665 1302.209549,929.356979 1334.687073,953.303986 1358.634064C977.250977 1382.581070,1009.728500 1396.037384,1043.597244 1396.037384C1077.465988 1396.037384,1109.943512 1382.581070,1133.890503 1358.634064C1157.837509 1334.687073,1171.293823 1302.209549,1171.293823 1268.340805Z" style="stroke:rgb(25.500488%,41.000366%,88.400269%); stroke-width: 2.500000;stroke-linecap: round;stroke-linejoin: round;stroke-miterlimit: 10.000000;fill: none;"></path>
  <path d="M1583.358902 853.901123C1583.358902 820.032379,1569.902588 787.554855,1545.955582 763.607864C1522.008591 739.660858,1489.531067 726.204544,1455.662323 726.204544C1421.793579 726.204544,1389.316055 739.660858,1365.369064 763.607864C1341.422058 787.554855,1327.965744 820.032379,1327.965744 853.901123C1327.965744 887.769867,1341.422058 920.247391,1365.369064 944.194382C1389.316055 968.141388,1421.793579 981.597702,1455.662323 981.597702C1489.531067 981.597702,1522.008591 968.141388,1545.955582 944.194382C1569.902588 920.247391,1583.358902 887.769867,1583.358902 853.901123Z" style="stroke:rgb(25.500488%,41.000366%,88.400269%); stroke-width: 2.500000;stroke-linecap: round;stroke-linejoin: round;stroke-miterlimit: 10.000000;fill: none;"></path>
  <path d="M1476.813156 1057.455246C1476.813156 1023.586502,1463.356842 991.108978,1439.409836 967.161987C1415.462845 943.214981,1382.985321 929.758667,1349.116577 929.758667C1315.247833 929.758667,1282.770309 943.214981,1258.823318 967.161987C1234.876312 991.108978,1221.419998 1023.586502,1221.419998 1057.455246C1221.419998 1091.323990,1234.876312 1123.801514,1258.823318 1147.748505C1282.770309 1171.695511,1315.247833 1185.151825,1349.116577 1185.151825C1382.985321 1185.151825,1415.462845 1171.695511,1439.409836 1147.748505C1463.356842 1123.801514,1476.813156 1091.323990,1476.813156 1057.455246Z" style="stroke:rgb(25.500488%,41.000366%,88.400269%); stroke-width: 2.500000;stroke-linecap: round;stroke-linejoin: round;stroke-miterlimit: 10.000000;fill: none;"></path>
  <path d="M1359.211899 1257.557770C1359.211899 1223.689026,1345.755585 1191.211502,1321.808578 1167.264511C1297.861588 1143.317505,1265.384064 1129.861191,1231.515320 1129.861191C1197.646576 1129.861191,1165.169052 1143.317505,1141.222061 1167.264511C1117.275055 1191.211502,1103.818741 1223.689026,1103.818741 1257.557770C1103.818741 1291.426514,1117.275055 1323.904037,1141.222061 1347.851028C1165.169052 1371.798035,1197.646576 1385.254349,1231.515320 1385.254349C1265.384064 1385.254349,1297.861588 1371.798035,1321.808578 1347.851028C1345.755585 1323.904037,1359.211899 1291.426514,1359.211899 1257.557770Z" style="stroke:rgb(25.500488%,41.000366%,88.400269%); stroke-width: 2.500000;stroke-linecap: round;stroke-linejoin: round;stroke-miterlimit: 10.000000;fill: none;"></path>
  <path d="M1719.515808 664.503784C1719.515808 630.635040,1706.059494 598.157516,1682.112488 574.210526C1658.165497 550.263519,1625.687973 536.807205,1591.819229 536.807205C1557.950485 536.807205,1525.472961 550.263519,1501.525970 574.210526C1477.578964 598.157516,1464.122650 630.635040,1464.122650 664.503784C1464.122650 698.372528,1477.578964 730.850052,1501.525970 754.797043C1525.472961 778.744049,1557.950485 792.200363,1591.819229 792.200363C1625.687973 792.200363,1658.165497 778.744049,1682.112488 754.797043C1706.059494 730.850052,1719.515808 698.372528,1719.515808 664.503784Z" style="stroke:rgb(25.500488%,41.000366%,88.400269%); stroke-width: 2.500000;stroke-linecap: round;stroke-linejoin: round;stroke-miterlimit: 10.000000;fill: none;"></path>
  <path d="M1613.099838 473.743973C1613.099838 439.875229,1599.643524 407.397705,1575.696518 383.450714C1551.749527 359.503708,1519.272003 346.047394,1485.403259 346.047394C1451.534515 346.047394,1419.056992 359.503708,1395.110001 383.450714C1371.162994 407.397705,1357.706680 439.875229,1357.706680 473.743973C1357.706680 507.612717,1371.162994 540.090240,1395.110001 564.037231C1419.056992 587.984238,1451.534515 601.440552,1485.403259 601.440552C1519.272003 601.440552,1551.749527 587.984238,1575.696518 564.037231C1599.643524 540.090240,1613.099838 507.612717,1613.099838 473.743973Z" style="stroke:rgb(25.500488%,41.000366%,88.400269%); stroke-width: 2.500000;stroke-linecap: round;stroke-linejoin: round;stroke-miterlimit: 10.000000;fill: none;"></path>
  <path d="M686.122101 135.499222C686.122101 101.630478,672.665787 69.152954,648.718781 45.205963C624.771790 21.258957,592.294266 7.802643,558.425522 7.802643C524.556778 7.802643,492.079254 21.258957,468.132263 45.205963C444.185257 69.152954,430.728943 101.630478,430.728943 135.499222C430.728943 169.367966,444.185257 201.845490,468.132263 225.792480C492.079254 249.739487,524.556778 263.195801,558.425522 263.195801C592.294266 263.195801,624.771790 249.739487,648.718781 225.792480C672.665787 201.845490,686.122101 169.367966,686.122101 135.499222Z" style="stroke:rgb(25.500488%,41.000366%,88.400269%); stroke-width: 2.500000;stroke-linecap: round;stroke-linejoin: round;stroke-miterlimit: 10.000000;fill: none;"></path>
  <path d="M1500.507294 287.357056C1500.507294 253.488312,1487.050980 221.010788,1463.103973 197.063797C1439.156982 173.116791,1406.679459 159.660477,1372.810715 159.660477C1338.941971 159.660477,1306.464447 173.116791,1282.517456 197.063797C1258.570450 221.010788,1245.114136 253.488312,1245.114136 287.357056C1245.114136 321.225800,1258.570450 353.703323,1282.517456 377.650314C1306.464447 401.597321,1338.941971 415.053635,1372.810715 415.053635C1406.679459 415.053635,1439.156982 401.597321,1463.103973 377.650314C1487.050980 353.703323,1500.507294 321.225800,1500.507294 287.357056Z" style="stroke:rgb(25.500488%,41.000366%,88.400269%); stroke-width: 2.500000;stroke-linecap: round;stroke-linejoin: round;stroke-miterlimit: 10.000000;fill: none;"></path>
  <path d="M916.627335 129.374557C916.627335 95.505814,903.171021 63.028290,879.224014 39.081299C855.277023 15.134293,822.799500 1.677979,788.930756 1.677979C755.062012 1.677979,722.584488 15.134293,698.637497 39.081299C674.690491 63.028290,661.234177 95.505814,661.234177 129.374557C661.234177 163.243301,674.690491 195.720825,698.637497 219.667816C722.584488 243.614822,755.062012 257.071136,788.930756 257.071136C822.799500 257.071136,855.277023 243.614822,879.224014 219.667816C903.171021 195.720825,916.627335 163.243301,916.627335 129.374557Z" style="stroke:rgb(25.500488%,41.000366%,88.400269%); stroke-width: 2.500000;stroke-linecap: round;stroke-linejoin: round;stroke-miterlimit: 10.000000;fill: none;"></path>
  <path d="M1150.233810 128.946350C1150.233810 95.077606,1136.777496 62.600082,1112.830490 38.653091C1088.883499 14.706085,1056.405975 1.249771,1022.537231 1.249771C988.668488 1.249771,956.190964 14.706085,932.243973 38.653091C908.296967 62.600082,894.840652 95.077606,894.840652 128.946350C894.840652 162.815094,908.296967 195.292618,932.243973 219.239609C956.190964 243.186615,988.668488 256.642929,1022.537231 256.642929C1056.405975 256.642929,1088.883499 243.186615,1112.830490 219.239609C1136.777496 195.292618,1150.233810 162.815094,1150.233810 128.946350Z" style="stroke:rgb(25.500488%,41.000366%,88.400269%); stroke-width: 2.500000;stroke-linecap: round;stroke-linejoin: round;stroke-miterlimit: 10.000000;fill: none;"></path>
  <path d="M1381.050461 135.239700C1381.050461 101.370956,1367.594147 68.893433,1343.647141 44.946442C1319.700150 20.999435,1287.222626 7.543121,1253.353882 7.543121C1219.485138 7.543121,1187.007614 20.999435,1163.060623 44.946442C1139.113617 68.893433,1125.657303 101.370956,1125.657303 135.239700C1125.657303 169.108444,1139.113617 201.585968,1163.060623 225.532959C1187.007614 249.479965,1219.485138 262.936279,1253.353882 262.936279C1287.222626 262.936279,1319.700150 249.479965,1343.647141 225.532959C1367.594147 201.585968,1381.050461 169.108444,1381.050461 135.239700Z" style="stroke:rgb(25.500488%,41.000366%,88.400269%); stroke-width: 2.500000;stroke-linecap: round;stroke-linejoin: round;stroke-miterlimit: 10.000000;fill: none;"></path>
  <path d="M1267.835083 1476.799850C1267.835083 1442.931107,1254.378769 1410.453583,1230.431763 1386.506592C1206.484772 1362.559586,1174.007248 1349.103271,1140.138504 1349.103271C1106.269760 1349.103271,1073.792236 1362.559586,1049.845245 1386.506592C1025.898239 1410.453583,1012.441925 1442.931107,1012.441925 1476.799850C1012.441925 1510.668594,1025.898239 1543.146118,1049.845245 1567.093109C1073.792236 1591.040115,1106.269760 1604.496429,1140.138504 1604.496429C1174.007248 1604.496429,1206.484772 1591.040115,1230.431763 1567.093109C1254.378769 1543.146118,1267.835083 1510.668594,1267.835083 1476.799850Z" style="stroke:rgb(25.500488%,41.000366%,88.400269%); stroke-width: 2.500000;stroke-linecap: round;stroke-linejoin: round;stroke-miterlimit: 10.000000;fill: none;"></path>
  <path d="M1064.787018 1469.468414C1064.787018 1435.599670,1051.330704 1403.122147,1027.383698 1379.175156C1003.436707 1355.228149,970.959183 1341.771835,937.090439 1341.771835C903.221695 1341.771835,870.744171 1355.228149,846.797180 1379.175156C822.850174 1403.122147,809.393860 1435.599670,809.393860 1469.468414C809.393860 1503.337158,822.850174 1535.814682,846.797180 1559.761673C870.744171 1583.708679,903.221695 1597.164993,937.090439 1597.164993C970.959183 1597.164993,1003.436707 1583.708679,1027.383698 1559.761673C1051.330704 1535.814682,1064.787018 1503.337158,1064.787018 1469.468414Z" style="stroke:rgb(25.500488%,41.000366%,88.400269%); stroke-width: 2.500000;stroke-linecap: round;stroke-linejoin: round;stroke-miterlimit: 10.000000;fill: none;"></path>
  <path d="M346.592728 958.214996C346.592728 924.346252,333.136414 891.868729,309.189407 867.921738C285.242416 843.974731,252.764893 830.518417,218.896149 830.518417C185.027405 830.518417,152.549881 843.974731,128.602890 867.921738C104.655884 891.868729,91.199570 924.346252,91.199570 958.214996C91.199570 992.083740,104.655884 1024.561264,128.602890 1048.508255C152.549881 1072.455261,185.027405 1085.911575,218.896149 1085.911575C252.764893 1085.911575,285.242416 1072.455261,309.189407 1048.508255C333.136414 1024.561264,346.592728 992.083740,346.592728 958.214996Z" style="stroke:rgb(25.500488%,41.000366%,88.400269%); stroke-width: 2.500000;stroke-linecap: round;stroke-linejoin: round;stroke-miterlimit: 10.000000;fill: none;"></path>
  <path d="M862.102280 1476.293777C862.102280 1442.425034,848.645966 1409.947510,824.698959 1386.000519C800.751968 1362.053513,768.274445 1348.597198,734.405701 1348.597198C700.536957 1348.597198,668.059433 1362.053513,644.112442 1386.000519C620.165436 1409.947510,606.709122 1442.425034,606.709122 1476.293777C606.709122 1510.162521,620.165436 1542.640045,644.112442 1566.587036C668.059433 1590.534042,700.536957 1603.990356,734.405701 1603.990356C768.274445 1603.990356,800.751968 1590.534042,824.698959 1566.587036C848.645966 1542.640045,862.102280 1510.162521,862.102280 1476.293777Z" style="stroke:rgb(25.500488%,41.000366%,88.400269%); stroke-width: 2.500000;stroke-linecap: round;stroke-linejoin: round;stroke-miterlimit: 10.000000;fill: none;"></path>
  <path d="M544.424454 1300.144913C544.424454 1266.276169,530.968140 1233.798645,507.021133 1209.851654C483.074142 1185.904648,450.596619 1172.448334,416.727875 1172.448334C382.859131 1172.448334,350.381607 1185.904648,326.434616 1209.851654C302.487610 1233.798645,289.031296 1266.276169,289.031296 1300.144913C289.031296 1334.013657,302.487610 1366.491180,326.434616 1390.438171C350.381607 1414.385178,382.859131 1427.841492,416.727875 1427.841492C450.596619 1427.841492,483.074142 1414.385178,507.021133 1390.438171C530.968140 1366.491180,544.424454 1334.013657,544.424454 1300.144913Z" style="stroke:rgb(25.500488%,41.000366%,88.400269%); stroke-width: 2.500000;stroke-linecap: round;stroke-linejoin: round;stroke-miterlimit: 10.000000;fill: none;"></path>
  <path d="M463.519241 1118.909470C463.519241 1085.040726,450.062927 1052.563202,426.115921 1028.616211C402.168930 1004.669205,369.691406 991.212891,335.822662 991.212891C301.953918 991.212891,269.476395 1004.669205,245.529404 1028.616211C221.582397 1052.563202,208.126083 1085.040726,208.126083 1118.909470C208.126083 1152.778214,221.582397 1185.255737,245.529404 1209.202728C269.476395 1233.149734,301.953918 1246.606049,335.822662 1246.606049C369.691406 1246.606049,402.168930 1233.149734,426.115921 1209.202728C450.062927 1185.255737,463.519241 1152.778214,463.519241 1118.909470Z" style="stroke:rgb(25.500488%,41.000366%,88.400269%); stroke-width: 2.500000;stroke-linecap: round;stroke-linejoin: round;stroke-miterlimit: 10.000000;fill: none;"></path>
  <path d="M657.341385 1472.076599C657.341385 1438.207855,643.885071 1405.730331,619.938065 1381.783340C595.991074 1357.836334,563.513550 1344.380020,529.644806 1344.380020C495.776062 1344.380020,463.298538 1357.836334,439.351547 1381.783340C415.404541 1405.730331,401.948227 1438.207855,401.948227 1472.076599C401.948227 1505.945343,415.404541 1538.422867,439.351547 1562.369858C463.298538 1586.316864,495.776062 1599.773178,529.644806 1599.773178C563.513550 1599.773178,595.991074 1586.316864,619.938065 1562.369858C643.885071 1538.422867,657.341385 1505.945343,657.341385 1472.076599Z" style="stroke:rgb(25.500488%,41.000366%,88.400269%); stroke-width: 2.500000;stroke-linecap: round;stroke-linejoin: round;stroke-miterlimit: 10.000000;fill: none;"></path>
  <path d="M1795.412292 846.608627C1795.412292 812.739883,1781.955978 780.262360,1758.008972 756.315369C1734.061981 732.368362,1701.584457 718.912048,1667.715714 718.912048C1633.846970 718.912048,1601.369446 732.368362,1577.422455 756.315369C1553.475449 780.262360,1540.019135 812.739883,1540.019135 846.608627C1540.019135 880.477371,1553.475449 912.954895,1577.422455 936.901886C1601.369446 960.848892,1633.846970 974.305206,1667.715714 974.305206C1701.584457 974.305206,1734.061981 960.848892,1758.008972 936.901886C1781.955978 912.954895,1795.412292 880.477371,1795.412292 846.608627Z" style="stroke:rgb(25.500488%,41.000366%,88.400269%); stroke-width: 2.500000;stroke-linecap: round;stroke-linejoin: round;stroke-miterlimit: 10.000000;fill: none;"></path>
  <path d="M1687.971207 1048.917053C1687.971207 1015.048309,1674.514893 982.570786,1650.567886 958.623795C1626.620895 934.676788,1594.143372 921.220474,1560.274628 921.220474C1526.405884 921.220474,1493.928360 934.676788,1469.981369 958.623795C1446.034363 982.570786,1432.578049 1015.048309,1432.578049 1048.917053C1432.578049 1082.785797,1446.034363 1115.263321,1469.981369 1139.210312C1493.928360 1163.157318,1526.405884 1176.613632,1560.274628 1176.613632C1594.143372 1176.613632,1626.620895 1163.157318,1650.567886 1139.210312C1674.514893 1115.263321,1687.971207 1082.785797,1687.971207 1048.917053Z" style="stroke:rgb(25.500488%,41.000366%,88.400269%); stroke-width: 2.500000;stroke-linecap: round;stroke-linejoin: round;stroke-miterlimit: 10.000000;fill: none;"></path>
  <path d="M396.394516 599.104874C396.394516 565.236130,382.938202 532.758606,358.991196 508.811615C335.044205 484.864609,302.566681 471.408295,268.697937 471.408295C234.829193 471.408295,202.351669 484.864609,178.404678 508.811615C154.457672 532.758606,141.001358 565.236130,141.001358 599.104874C141.001358 632.973618,154.457672 665.451141,178.404678 689.398132C202.351669 713.345139,234.829193 726.801453,268.697937 726.801453C302.566681 726.801453,335.044205 713.345139,358.991196 689.398132C382.938202 665.451141,396.394516 632.973618,396.394516 599.104874Z" style="stroke:rgb(25.500488%,41.000366%,88.400269%); stroke-width: 2.500000;stroke-linecap: round;stroke-linejoin: round;stroke-miterlimit: 10.000000;fill: none;"></path>
  <path d="M1572.420151 1251.887268C1572.420151 1218.018524,1558.963837 1185.541000,1535.016830 1161.594009C1511.069839 1137.647003,1478.592316 1124.190689,1444.723572 1124.190689C1410.854828 1124.190689,1378.377304 1137.647003,1354.430313 1161.594009C1330.483307 1185.541000,1317.026993 1218.018524,1317.026993 1251.887268C1317.026993 1285.756012,1330.483307 1318.233536,1354.430313 1342.180527C1378.377304 1366.127533,1410.854828 1379.583847,1444.723572 1379.583847C1478.592316 1379.583847,1511.069839 1366.127533,1535.016830 1342.180527C1558.963837 1318.233536,1572.420151 1285.756012,1572.420151 1251.887268Z" style="stroke:rgb(25.500488%,41.000366%,88.400269%); stroke-width: 2.500000;stroke-linecap: round;stroke-linejoin: round;stroke-miterlimit: 10.000000;fill: none;"></path>
  <path d="M1453.274750 1451.821091C1453.274750 1417.952347,1439.818436 1385.474823,1415.871429 1361.527832C1391.924438 1337.580826,1359.446915 1324.124512,1325.578171 1324.124512C1291.709427 1324.124512,1259.231903 1337.580826,1235.284912 1361.527832C1211.337906 1385.474823,1197.881592 1417.952347,1197.881592 1451.821091C1197.881592 1485.689835,1211.337906 1518.167358,1235.284912 1542.114349C1259.231903 1566.061356,1291.709427 1579.517670,1325.578171 1579.517670C1359.446915 1579.517670,1391.924438 1566.061356,1415.871429 1542.114349C1439.818436 1518.167358,1453.274750 1485.689835,1453.274750 1451.821091Z" style="stroke:rgb(25.500488%,41.000366%,88.400269%); stroke-width: 2.500000;stroke-linecap: round;stroke-linejoin: round;stroke-miterlimit: 10.000000;fill: none;"></path>
  <path d="M255.838760 774.345413C255.838760 740.476669,242.382446 707.999146,218.435440 684.052155C194.488449 660.105148,162.010925 646.648834,128.142181 646.648834C94.273438 646.648834,61.795914 660.105148,37.848923 684.052155C13.901917 707.999146,0.445602 740.476669,0.445602 774.345413C0.445602 808.214157,13.901917 840.691681,37.848923 864.638672C61.795914 888.585678,94.273438 902.041992,128.142181 902.041992C162.010925 902.041992,194.488449 888.585678,218.435440 864.638672C242.382446 840.691681,255.838760 808.214157,255.838760 774.345413Z" style="stroke:rgb(25.500488%,41.000366%,88.400269%); stroke-width: 2.500000;stroke-linecap: round;stroke-linejoin: round;stroke-miterlimit: 10.000000;fill: none;"></path>
</svg>
