<?xml version="1.0"?>
<!-- Created by MetaPost 2.00 on 2022.03.02:1201 -->
<svg version="1.1" xmlns="http://www.w3.org/2000/svg" xmlns:xlink="http://www.w3.org/1999/xlink" width="1828.375458" height="1832.268234" viewBox="0 0 1828.375458 1832.268234">
<!-- Original BoundingBox: -911.384918 -918.456818 916.990540 913.811417 -->
  <path d="M1761.393524 913.000000L1647.464462 487.803238L1336.196762 176.535538L911.000000 62.606476L485.803238 176.535538L174.535538 487.803238L60.606476 913.000000L174.535538 1338.196762L485.803238 1649.464462L911.000000 1763.393524L1336.196762 1649.464462L1647.464462 1338.196762L1761.393524 913.000000Z" style="fill: rgb(100.000000%,100.000000%,100.000000%);stroke: none;"></path>
  <path d="M1761.393524 913.000000L1647.464462 487.803238" style="stroke:rgb(0.000000%,0.000000%,0.000000%); stroke-width: 2.500000;stroke-linecap: round;stroke-linejoin: round;stroke-miterlimit: 10.000000;fill: none;"></path>
  <path d="M1647.464462 487.803238L1336.196762 176.535538" style="stroke:rgb(0.000000%,0.000000%,0.000000%); stroke-width: 2.500000;stroke-linecap: round;stroke-linejoin: round;stroke-miterlimit: 10.000000;fill: none;"></path>
  <path d="M1336.196762 176.535538L911.000000 62.606476" style="stroke:rgb(0.000000%,0.000000%,0.000000%); stroke-width: 2.500000;stroke-linecap: round;stroke-linejoin: round;stroke-miterlimit: 10.000000;fill: none;"></path>
  <path d="M911.000000 62.606476L485.803238 176.535538" style="stroke:rgb(0.000000%,0.000000%,0.000000%); stroke-width: 2.500000;stroke-linecap: round;stroke-linejoin: round;stroke-miterlimit: 10.000000;fill: none;"></path>
  <path d="M485.803238 176.535538L174.535538 487.803238" style="stroke:rgb(0.000000%,0.000000%,0.000000%); stroke-width: 2.500000;stroke-linecap: round;stroke-linejoin: round;stroke-miterlimit: 10.000000;fill: none;"></path>
  <path d="M174.535538 487.803238L60.606476 913.000000" style="stroke:rgb(0.000000%,0.000000%,0.000000%); stroke-width: 2.500000;stroke-linecap: round;stroke-linejoin: round;stroke-miterlimit: 10.000000;fill: none;"></path>
  <path d="M60.606476 913.000000L174.535538 1338.196762" style="stroke:rgb(0.000000%,0.000000%,0.000000%); stroke-width: 2.500000;stroke-linecap: round;stroke-linejoin: round;stroke-miterlimit: 10.000000;fill: none;"></path>
  <path d="M174.535538 1338.196762L485.803238 1649.464462" style="stroke:rgb(0.000000%,0.000000%,0.000000%); stroke-width: 2.500000;stroke-linecap: round;stroke-linejoin: round;stroke-miterlimit: 10.000000;fill: none;"></path>
  <path d="M485.803238 1649.464462L911.000000 1763.393524" style="stroke:rgb(0.000000%,0.000000%,0.000000%); stroke-width: 2.500000;stroke-linecap: round;stroke-linejoin: round;stroke-miterlimit: 10.000000;fill: none;"></path>
  <path d="M911.000000 1763.393524L1336.196762 1649.464462" style="stroke:rgb(0.000000%,0.000000%,0.000000%); stroke-width: 2.500000;stroke-linecap: round;stroke-linejoin: round;stroke-miterlimit: 10.000000;fill: none;"></path>
  <path d="M1336.196762 1649.464462L1647.464462 1338.196762" style="stroke:rgb(0.000000%,0.000000%,0.000000%); stroke-width: 2.500000;stroke-linecap: round;stroke-linejoin: round;stroke-miterlimit: 10.000000;fill: none;"></path>
  <path d="M1647.464462 1338.196762L1761.393524 913.000000" style="stroke:rgb(0.000000%,0.000000%,0.000000%); stroke-width: 2.500000;stroke-linecap: round;stroke-linejoin: round;stroke-miterlimit: 10.000000;fill: none;"></path>
  <path d="M1826.740540 957.533554C1826.740540 930.737289,1816.094177 905.041733,1797.147797 886.095352C1778.201416 867.148972,1752.505859 856.502609,1725.709595 856.502609C1698.913330 856.502609,1673.217773 867.148972,1654.271393 886.095352C1635.325012 905.041733,1624.678650 930.737289,1624.678650 957.533554C1624.678650 984.329819,1635.325012 1010.025375,1654.271393 1028.971756C1673.217773 1047.918137,1698.913330 1058.564499,1725.709595 1058.564499C1752.505859 1058.564499,1778.201416 1047.918137,1797.147797 1028.971756C1816.094177 1010.025375,1826.740540 984.329819,1826.740540 957.533554Z" style="stroke:rgb(25.500488%,41.000366%,88.400269%); stroke-width: 2.500000;stroke-linecap: round;stroke-linejoin: round;stroke-miterlimit: 10.000000;fill: none;"></path>
  <path d="M1774.408432 789.377884C1774.408432 762.581619,1763.762070 736.886063,1744.815689 717.939682C1725.869308 698.993301,1700.173752 688.346939,1673.377487 688.346939C1646.581223 688.346939,1620.885666 698.993301,1601.939285 717.939682C1582.992905 736.886063,1572.346542 762.581619,1572.346542 789.377884C1572.346542 816.174149,1582.992905 841.869705,1601.939285 860.816086C1620.885666 879.762466,1646.581223 890.408829,1673.377487 890.408829C1700.173752 890.408829,1725.869308 879.762466,1744.815689 860.816086C1763.762070 841.869705,1774.408432 816.174149,1774.408432 789.377884Z" style="stroke:rgb(25.500488%,41.000366%,88.400269%); stroke-width: 2.500000;stroke-linecap: round;stroke-linejoin: round;stroke-miterlimit: 10.000000;fill: none;"></path>
  <path d="M1730.017609 623.077774C1730.017609 596.281509,1719.371246 570.585953,1700.424866 551.639572C1681.478485 532.693192,1655.782928 522.046829,1628.986664 522.046829C1602.190399 522.046829,1576.494843 532.693192,1557.548462 551.639572C1538.602081 570.585953,1527.955719 596.281509,1527.955719 623.077774C1527.955719 649.874039,1538.602081 675.569595,1557.548462 694.515976C1576.494843 713.462357,1602.190399 724.108719,1628.986664 724.108719C1655.782928 724.108719,1681.478485 713.462357,1700.424866 694.515976C1719.371246 675.569595,1730.017609 649.874039,1730.017609 623.077774Z" style="stroke:rgb(25.500488%,41.000366%,88.400269%); stroke-width: 2.500000;stroke-linecap: round;stroke-linejoin: round;stroke-miterlimit: 10.000000;fill: none;"></path>
  <path d="M1688.183075 453.948914C1688.183075 427.152649,1677.536713 401.457092,1658.590332 382.510712C1639.643951 363.564331,1613.948395 352.917969,1587.152130 352.917969C1560.355865 352.917969,1534.660309 363.564331,1515.713928 382.510712C1496.767548 401.457092,1486.121185 427.152649,1486.121185 453.948914C1486.121185 480.745178,1496.767548 506.440735,1515.713928 525.387115C1534.660309 544.333496,1560.355865 554.979858,1587.152130 554.979858C1613.948395 554.979858,1639.643951 544.333496,1658.590332 525.387115C1677.536713 506.440735,1688.183075 480.745178,1688.183075 453.948914Z" style="stroke:rgb(25.500488%,41.000366%,88.400269%); stroke-width: 2.500000;stroke-linecap: round;stroke-linejoin: round;stroke-miterlimit: 10.000000;fill: none;"></path>
  <path d="M1754.126984 1255.228378C1754.126984 1228.432114,1743.480621 1202.736557,1724.534241 1183.790176C1705.587860 1164.843796,1679.892303 1154.197433,1653.096039 1154.197433C1626.299774 1154.197433,1600.604218 1164.843796,1581.657837 1183.790176C1562.711456 1202.736557,1552.065094 1228.432114,1552.065094 1255.228378C1552.065094 1282.024643,1562.711456 1307.720200,1581.657837 1326.666580C1600.604218 1345.612961,1626.299774 1356.259323,1653.096039 1356.259323C1679.892303 1356.259323,1705.587860 1345.612961,1724.534241 1326.666580C1743.480621 1307.720200,1754.126984 1282.024643,1754.126984 1255.228378Z" style="stroke:rgb(25.500488%,41.000366%,88.400269%); stroke-width: 2.500000;stroke-linecap: round;stroke-linejoin: round;stroke-miterlimit: 10.000000;fill: none;"></path>
  <path d="M1727.007187 1088.681732C1727.007187 1061.885468,1716.360825 1036.189911,1697.414444 1017.243530C1678.468063 998.297150,1652.772507 987.650787,1625.976242 987.650787C1599.179977 987.650787,1573.484421 998.297150,1554.538040 1017.243530C1535.591660 1036.189911,1524.945297 1061.885468,1524.945297 1088.681732C1524.945297 1115.477997,1535.591660 1141.173553,1554.538040 1160.119934C1573.484421 1179.066315,1599.179977 1189.712677,1625.976242 1189.712677C1652.772507 1189.712677,1678.468063 1179.066315,1697.414444 1160.119934C1716.360825 1141.173553,1727.007187 1115.477997,1727.007187 1088.681732Z" style="stroke:rgb(25.500488%,41.000366%,88.400269%); stroke-width: 2.500000;stroke-linecap: round;stroke-linejoin: round;stroke-miterlimit: 10.000000;fill: none;"></path>
  <path d="M1656.846085 918.346100C1656.846085 891.549835,1646.199722 865.854279,1627.253342 846.907898C1608.306961 827.961517,1582.611404 817.315155,1555.815140 817.315155C1529.018875 817.315155,1503.323318 827.961517,1484.376938 846.907898C1465.430557 865.854279,1454.784195 891.549835,1454.784195 918.346100C1454.784195 945.142365,1465.430557 970.837921,1484.376938 989.784302C1503.323318 1008.730682,1529.018875 1019.377045,1555.815140 1019.377045C1582.611404 1019.377045,1608.306961 1008.730682,1627.253342 989.784302C1646.199722 970.837921,1656.846085 945.142365,1656.846085 918.346100Z" style="stroke:rgb(25.500488%,41.000366%,88.400269%); stroke-width: 2.500000;stroke-linecap: round;stroke-linejoin: round;stroke-miterlimit: 10.000000;fill: none;"></path>
  <path d="M1609.574615 745.181717C1609.574615 718.385452,1598.928253 692.689896,1579.981873 673.743515C1561.035492 654.797134,1535.339935 644.150772,1508.543671 644.150772C1481.747406 644.150772,1456.051849 654.797134,1437.105469 673.743515C1418.159088 692.689896,1407.512726 718.385452,1407.512726 745.181717C1407.512726 771.977982,1418.159088 797.673538,1437.105469 816.619919C1456.051849 835.566299,1481.747406 846.212662,1508.543671 846.212662C1535.339935 846.212662,1561.035492 835.566299,1579.981873 816.619919C1598.928253 797.673538,1609.574615 771.977982,1609.574615 745.181717Z" style="stroke:rgb(25.500488%,41.000366%,88.400269%); stroke-width: 2.500000;stroke-linecap: round;stroke-linejoin: round;stroke-miterlimit: 10.000000;fill: none;"></path>
  <path d="M1562.043610 573.496582C1562.043610 546.700317,1551.397247 521.004761,1532.450867 502.058380C1513.504486 483.112000,1487.808929 472.465637,1461.012665 472.465637C1434.216400 472.465637,1408.520844 483.112000,1389.574463 502.058380C1370.628082 521.004761,1359.981720 546.700317,1359.981720 573.496582C1359.981720 600.292847,1370.628082 625.988403,1389.574463 644.934784C1408.520844 663.881165,1434.216400 674.527527,1461.012665 674.527527C1487.808929 674.527527,1513.504486 663.881165,1532.450867 644.934784C1551.397247 625.988403,1562.043610 600.292847,1562.043610 573.496582Z" style="stroke:rgb(25.500488%,41.000366%,88.400269%); stroke-width: 2.500000;stroke-linecap: round;stroke-linejoin: round;stroke-miterlimit: 10.000000;fill: none;"></path>
  <path d="M1532.666000 392.871002C1532.666000 366.074738,1522.019638 340.379181,1503.073257 321.432800C1484.126877 302.486420,1458.431320 291.840057,1431.635056 291.840057C1404.838791 291.840057,1379.143234 302.486420,1360.196854 321.432800C1341.250473 340.379181,1330.604111 366.074738,1330.604111 392.871002C1330.604111 419.667267,1341.250473 445.362823,1360.196854 464.309204C1379.143234 483.255585,1404.838791 493.901947,1431.635056 493.901947C1458.431320 493.901947,1484.126877 483.255585,1503.073257 464.309204C1522.019638 445.362823,1532.666000 419.667267,1532.666000 392.871002Z" style="stroke:rgb(25.500488%,41.000366%,88.400269%); stroke-width: 2.500000;stroke-linecap: round;stroke-linejoin: round;stroke-miterlimit: 10.000000;fill: none;"></path>
  <path d="M1470.562988 238.885101C1470.562988 212.088837,1459.916626 186.393280,1440.970245 167.446899C1422.023865 148.500519,1396.328308 137.854156,1369.532043 137.854156C1342.735779 137.854156,1317.040222 148.500519,1298.093842 167.446899C1279.147461 186.393280,1268.501099 212.088837,1268.501099 238.885101C1268.501099 265.681366,1279.147461 291.376923,1298.093842 310.323303C1317.040222 329.269684,1342.735779 339.916046,1369.532043 339.916046C1396.328308 339.916046,1422.023865 329.269684,1440.970245 310.323303C1459.916626 291.376923,1470.562988 265.681366,1470.562988 238.885101Z" style="stroke:rgb(25.500488%,41.000366%,88.400269%); stroke-width: 2.500000;stroke-linecap: round;stroke-linejoin: round;stroke-miterlimit: 10.000000;fill: none;"></path>
  <path d="M1633.904572 1375.074478C1633.904572 1348.278214,1623.258209 1322.582657,1604.311829 1303.636276C1585.365448 1284.689896,1559.669891 1274.043533,1532.873627 1274.043533C1506.077362 1274.043533,1480.381805 1284.689896,1461.435425 1303.636276C1442.489044 1322.582657,1431.842682 1348.278214,1431.842682 1375.074478C1431.842682 1401.870743,1442.489044 1427.566299,1461.435425 1446.512680C1480.381805 1465.459061,1506.077362 1476.105423,1532.873627 1476.105423C1559.669891 1476.105423,1585.365448 1465.459061,1604.311829 1446.512680C1623.258209 1427.566299,1633.904572 1401.870743,1633.904572 1375.074478Z" style="stroke:rgb(25.500488%,41.000366%,88.400269%); stroke-width: 2.500000;stroke-linecap: round;stroke-linejoin: round;stroke-miterlimit: 10.000000;fill: none;"></path>
  <path d="M1587.139145 1203.064957C1587.139145 1176.268692,1576.492783 1150.573135,1557.546402 1131.626755C1538.600021 1112.680374,1512.904465 1102.034012,1486.108200 1102.034012C1459.311935 1102.034012,1433.616379 1112.680374,1414.669998 1131.626755C1395.723618 1150.573135,1385.077255 1176.268692,1385.077255 1203.064957C1385.077255 1229.861221,1395.723618 1255.556778,1414.669998 1274.503159C1433.616379 1293.449539,1459.311935 1304.095901,1486.108200 1304.095901C1512.904465 1304.095901,1538.600021 1293.449539,1557.546402 1274.503159C1576.492783 1255.556778,1587.139145 1229.861221,1587.139145 1203.064957Z" style="stroke:rgb(25.500488%,41.000366%,88.400269%); stroke-width: 2.500000;stroke-linecap: round;stroke-linejoin: round;stroke-miterlimit: 10.000000;fill: none;"></path>
  <path d="M1554.945755 1041.488113C1554.945755 1014.691849,1544.299393 988.996292,1525.353012 970.049911C1506.406631 951.103531,1480.711075 940.457169,1453.914810 940.457169C1427.118546 940.457169,1401.422989 951.103531,1382.476608 970.049911C1363.530228 988.996292,1352.883865 1014.691849,1352.883865 1041.488113C1352.883865 1068.284378,1363.530228 1093.979935,1382.476608 1112.926315C1401.422989 1131.872696,1427.118546 1142.519058,1453.914810 1142.519058C1480.711075 1142.519058,1506.406631 1131.872696,1525.353012 1112.926315C1544.299393 1093.979935,1554.945755 1068.284378,1554.945755 1041.488113Z" style="stroke:rgb(25.500488%,41.000366%,88.400269%); stroke-width: 2.500000;stroke-linecap: round;stroke-linejoin: round;stroke-miterlimit: 10.000000;fill: none;"></path>
  <path d="M1491.000153 870.646423C1491.000153 843.850159,1480.353790 818.154602,1461.407410 799.208221C1442.461029 780.261841,1416.765472 769.615479,1389.969208 769.615479C1363.172943 769.615479,1337.477386 780.261841,1318.531006 799.208221C1299.584625 818.154602,1288.938263 843.850159,1288.938263 870.646423C1288.938263 897.442688,1299.584625 923.138245,1318.531006 942.084625C1337.477386 961.031006,1363.172943 971.677368,1389.969208 971.677368C1416.765472 971.677368,1442.461029 961.031006,1461.407410 942.084625C1480.353790 923.138245,1491.000153 897.442688,1491.000153 870.646423Z" style="stroke:rgb(25.500488%,41.000366%,88.400269%); stroke-width: 2.500000;stroke-linecap: round;stroke-linejoin: round;stroke-miterlimit: 10.000000;fill: none;"></path>
  <path d="M1442.418091 698.727722C1442.418091 671.931458,1431.771729 646.235901,1412.825348 627.289520C1393.878967 608.343140,1368.183411 597.696777,1341.387146 597.696777C1314.590881 597.696777,1288.895325 608.343140,1269.948944 627.289520C1251.002563 646.235901,1240.356201 671.931458,1240.356201 698.727722C1240.356201 725.523987,1251.002563 751.219543,1269.948944 770.165924C1288.895325 789.112305,1314.590881 799.758667,1341.387146 799.758667C1368.183411 799.758667,1393.878967 789.112305,1412.825348 770.165924C1431.771729 751.219543,1442.418091 725.523987,1442.418091 698.727722Z" style="stroke:rgb(25.500488%,41.000366%,88.400269%); stroke-width: 2.500000;stroke-linecap: round;stroke-linejoin: round;stroke-miterlimit: 10.000000;fill: none;"></path>
  <path d="M1408.369141 519.386765C1408.369141 492.590500,1397.722778 466.894943,1378.776398 447.948563C1359.830017 429.002182,1334.134460 418.355820,1307.338196 418.355820C1280.541931 418.355820,1254.846375 429.002182,1235.899994 447.948563C1216.953613 466.894943,1206.307251 492.590500,1206.307251 519.386765C1206.307251 546.183029,1216.953613 571.878586,1235.899994 590.824966C1254.846375 609.771347,1280.541931 620.417709,1307.338196 620.417709C1334.134460 620.417709,1359.830017 609.771347,1378.776398 590.824966C1397.722778 571.878586,1408.369141 546.183029,1408.369141 519.386765Z" style="stroke:rgb(25.500488%,41.000366%,88.400269%); stroke-width: 2.500000;stroke-linecap: round;stroke-linejoin: round;stroke-miterlimit: 10.000000;fill: none;"></path>
  <path d="M1351.534363 366.737381C1351.534363 339.941116,1340.888000 314.245560,1321.941620 295.299179C1302.995239 276.352798,1277.299683 265.706436,1250.503418 265.706436C1223.707153 265.706436,1198.011597 276.352798,1179.065216 295.299179C1160.118835 314.245560,1149.472473 339.941116,1149.472473 366.737381C1149.472473 393.533646,1160.118835 419.229202,1179.065216 438.175583C1198.011597 457.121964,1223.707153 467.768326,1250.503418 467.768326C1277.299683 467.768326,1302.995239 457.121964,1321.941620 438.175583C1340.888000 419.229202,1351.534363 393.533646,1351.534363 366.737381Z" style="stroke:rgb(25.500488%,41.000366%,88.400269%); stroke-width: 2.500000;stroke-linecap: round;stroke-linejoin: round;stroke-miterlimit: 10.000000;fill: none;"></path>
  <path d="M1303.601105 196.804016C1303.601105 170.007751,1292.954742 144.312195,1274.008362 125.365814C1255.061981 106.419434,1229.366425 95.773071,1202.570160 95.773071C1175.773895 95.773071,1150.078339 106.419434,1131.131958 125.365814C1112.185577 144.312195,1101.539215 170.007751,1101.539215 196.804016C1101.539215 223.600281,1112.185577 249.295837,1131.131958 268.242218C1150.078339 287.188599,1175.773895 297.834961,1202.570160 297.834961C1229.366425 297.834961,1255.061981 287.188599,1274.008362 268.242218C1292.954742 249.295837,1303.601105 223.600281,1303.601105 196.804016Z" style="stroke:rgb(25.500488%,41.000366%,88.400269%); stroke-width: 2.500000;stroke-linecap: round;stroke-linejoin: round;stroke-miterlimit: 10.000000;fill: none;"></path>
  <path d="M1514.447739 1496.983780C1514.447739 1470.187515,1503.801376 1444.491959,1484.854996 1425.545578C1465.908615 1406.599197,1440.213058 1395.952835,1413.416794 1395.952835C1386.620529 1395.952835,1360.924973 1406.599197,1341.978592 1425.545578C1323.032211 1444.491959,1312.385849 1470.187515,1312.385849 1496.983780C1312.385849 1523.780045,1323.032211 1549.475601,1341.978592 1568.421982C1360.924973 1587.368362,1386.620529 1598.014725,1413.416794 1598.014725C1440.213058 1598.014725,1465.908615 1587.368362,1484.854996 1568.421982C1503.801376 1549.475601,1514.447739 1523.780045,1514.447739 1496.983780Z" style="stroke:rgb(25.500488%,41.000366%,88.400269%); stroke-width: 2.500000;stroke-linecap: round;stroke-linejoin: round;stroke-miterlimit: 10.000000;fill: none;"></path>
  <path d="M1467.085419 1327.958725C1467.085419 1301.162460,1456.439056 1275.466904,1437.492676 1256.520523C1418.546295 1237.574142,1392.850739 1226.927780,1366.054474 1226.927780C1339.258209 1226.927780,1313.562653 1237.574142,1294.616272 1256.520523C1275.669891 1275.466904,1265.023529 1301.162460,1265.023529 1327.958725C1265.023529 1354.754990,1275.669891 1380.450546,1294.616272 1399.396927C1313.562653 1418.343307,1339.258209 1428.989670,1366.054474 1428.989670C1392.850739 1428.989670,1418.546295 1418.343307,1437.492676 1399.396927C1456.439056 1380.450546,1467.085419 1354.754990,1467.085419 1327.958725Z" style="stroke:rgb(25.500488%,41.000366%,88.400269%); stroke-width: 2.500000;stroke-linecap: round;stroke-linejoin: round;stroke-miterlimit: 10.000000;fill: none;"></path>
  <path d="M1416.141754 1160.114471C1416.141754 1133.318207,1405.495392 1107.622650,1386.549011 1088.676270C1367.602631 1069.729889,1341.907074 1059.083527,1315.110809 1059.083527C1288.314545 1059.083527,1262.618988 1069.729889,1243.672607 1088.676270C1224.726227 1107.622650,1214.079865 1133.318207,1214.079865 1160.114471C1214.079865 1186.910736,1224.726227 1212.606293,1243.672607 1231.552673C1262.618988 1250.499054,1288.314545 1261.145416,1315.110809 1261.145416C1341.907074 1261.145416,1367.602631 1250.499054,1386.549011 1231.552673C1405.495392 1212.606293,1416.141754 1186.910736,1416.141754 1160.114471Z" style="stroke:rgb(25.500488%,41.000366%,88.400269%); stroke-width: 2.500000;stroke-linecap: round;stroke-linejoin: round;stroke-miterlimit: 10.000000;fill: none;"></path>
  <path d="M1384.739883 997.720139C1384.739883 970.923874,1374.093521 945.228317,1355.147141 926.281937C1336.200760 907.335556,1310.505203 896.689194,1283.708939 896.689194C1256.912674 896.689194,1231.217117 907.335556,1212.270737 926.281937C1193.324356 945.228317,1182.677994 970.923874,1182.677994 997.720139C1182.677994 1024.516403,1193.324356 1050.211960,1212.270737 1069.158340C1231.217117 1088.104721,1256.912674 1098.751083,1283.708939 1098.751083C1310.505203 1098.751083,1336.200760 1088.104721,1355.147141 1069.158340C1374.093521 1050.211960,1384.739883 1024.516403,1384.739883 997.720139Z" style="stroke:rgb(25.500488%,41.000366%,88.400269%); stroke-width: 2.500000;stroke-linecap: round;stroke-linejoin: round;stroke-miterlimit: 10.000000;fill: none;"></path>
  <path d="M1323.765778 823.945877C1323.765778 797.149612,1313.119415 771.454056,1294.173035 752.507675C1275.226654 733.561295,1249.531097 722.914932,1222.734833 722.914932C1195.938568 722.914932,1170.243011 733.561295,1151.296631 752.507675C1132.350250 771.454056,1121.703888 797.149612,1121.703888 823.945877C1121.703888 850.742142,1132.350250 876.437698,1151.296631 895.384079C1170.243011 914.330460,1195.938568 924.976822,1222.734833 924.976822C1249.531097 924.976822,1275.226654 914.330460,1294.173035 895.384079C1313.119415 876.437698,1323.765778 850.742142,1323.765778 823.945877Z" style="stroke:rgb(25.500488%,41.000366%,88.400269%); stroke-width: 2.500000;stroke-linecap: round;stroke-linejoin: round;stroke-miterlimit: 10.000000;fill: none;"></path>
  <path d="M1285.292007 643.566849C1285.292007 616.770584,1274.645645 591.075027,1255.699265 572.128647C1236.752884 553.182266,1211.057327 542.535904,1184.261063 542.535904C1157.464798 542.535904,1131.769241 553.182266,1112.822861 572.128647C1093.876480 591.075027,1083.230118 616.770584,1083.230118 643.566849C1083.230118 670.363113,1093.876480 696.058670,1112.822861 715.005051C1131.769241 733.951431,1157.464798 744.597794,1184.261063 744.597794C1211.057327 744.597794,1236.752884 733.951431,1255.699265 715.005051C1274.645645 696.058670,1285.292007 670.363113,1285.292007 643.566849Z" style="stroke:rgb(25.500488%,41.000366%,88.400269%); stroke-width: 2.500000;stroke-linecap: round;stroke-linejoin: round;stroke-miterlimit: 10.000000;fill: none;"></path>
  <path d="M1228.029037 487.958954C1228.029037 461.162689,1217.382675 435.467133,1198.436295 416.520752C1179.489914 397.574371,1153.794357 386.928009,1126.998093 386.928009C1100.201828 386.928009,1074.506271 397.574371,1055.559891 416.520752C1036.613510 435.467133,1025.967148 461.162689,1025.967148 487.958954C1025.967148 514.755219,1036.613510 540.450775,1055.559891 559.397156C1074.506271 578.343536,1100.201828 588.989899,1126.998093 588.989899C1153.794357 588.989899,1179.489914 578.343536,1198.436295 559.397156C1217.382675 540.450775,1228.029037 514.755219,1228.029037 487.958954Z" style="stroke:rgb(25.500488%,41.000366%,88.400269%); stroke-width: 2.500000;stroke-linecap: round;stroke-linejoin: round;stroke-miterlimit: 10.000000;fill: none;"></path>
  <path d="M1181.977295 318.492706C1181.977295 291.696442,1171.330933 266.000885,1152.384552 247.054504C1133.438171 228.108124,1107.742615 217.461761,1080.946350 217.461761C1054.150085 217.461761,1028.454529 228.108124,1009.508148 247.054504C990.561768 266.000885,979.915405 291.696442,979.915405 318.492706C979.915405 345.288971,990.561768 370.984528,1009.508148 389.930908C1028.454529 408.877289,1054.150085 419.523651,1080.946350 419.523651C1107.742615 419.523651,1133.438171 408.877289,1152.384552 389.930908C1171.330933 370.984528,1181.977295 345.288971,1181.977295 318.492706Z" style="stroke:rgb(25.500488%,41.000366%,88.400269%); stroke-width: 2.500000;stroke-linecap: round;stroke-linejoin: round;stroke-miterlimit: 10.000000;fill: none;"></path>
  <path d="M1138.780273 152.504028C1138.780273 125.707764,1128.133911 100.012207,1109.187531 81.065826C1090.241150 62.119446,1064.545593 51.473083,1037.749329 51.473083C1010.953064 51.473083,985.257507 62.119446,966.311127 81.065826C947.364746 100.012207,936.718384 125.707764,936.718384 152.504028C936.718384 179.300293,947.364746 204.995850,966.311127 223.942230C985.257507 242.888611,1010.953064 253.534973,1037.749329 253.534973C1064.545593 253.534973,1090.241150 242.888611,1109.187531 223.942230C1128.133911 204.995850,1138.780273 179.300293,1138.780273 152.504028Z" style="stroke:rgb(25.500488%,41.000366%,88.400269%); stroke-width: 2.500000;stroke-linecap: round;stroke-linejoin: round;stroke-miterlimit: 10.000000;fill: none;"></path>
  <path d="M1395.302338 1626.730545C1395.302338 1599.934280,1384.655975 1574.238724,1365.709595 1555.292343C1346.763214 1536.345963,1321.067657 1525.699600,1294.271393 1525.699600C1267.475128 1525.699600,1241.779572 1536.345963,1222.833191 1555.292343C1203.886810 1574.238724,1193.240448 1599.934280,1193.240448 1626.730545C1193.240448 1653.526810,1203.886810 1679.222366,1222.833191 1698.168747C1241.779572 1717.115128,1267.475128 1727.761490,1294.271393 1727.761490C1321.067657 1727.761490,1346.763214 1717.115128,1365.709595 1698.168747C1384.655975 1679.222366,1395.302338 1653.526810,1395.302338 1626.730545Z" style="stroke:rgb(25.500488%,41.000366%,88.400269%); stroke-width: 2.500000;stroke-linecap: round;stroke-linejoin: round;stroke-miterlimit: 10.000000;fill: none;"></path>
  <path d="M1346.538620 1457.368118C1346.538620 1430.571854,1335.892258 1404.876297,1316.945877 1385.929916C1297.999496 1366.983536,1272.303940 1356.337173,1245.507675 1356.337173C1218.711411 1356.337173,1193.015854 1366.983536,1174.069473 1385.929916C1155.123093 1404.876297,1144.476730 1430.571854,1144.476730 1457.368118C1144.476730 1484.164383,1155.123093 1509.859940,1174.069473 1528.806320C1193.015854 1547.752701,1218.711411 1558.399063,1245.507675 1558.399063C1272.303940 1558.399063,1297.999496 1547.752701,1316.945877 1528.806320C1335.892258 1509.859940,1346.538620 1484.164383,1346.538620 1457.368118Z" style="stroke:rgb(25.500488%,41.000366%,88.400269%); stroke-width: 2.500000;stroke-linecap: round;stroke-linejoin: round;stroke-miterlimit: 10.000000;fill: none;"></path>
  <path d="M1297.580261 1289.991013C1297.580261 1263.194748,1286.933899 1237.499191,1267.987518 1218.552811C1249.041138 1199.606430,1223.345581 1188.960068,1196.549316 1188.960068C1169.753052 1188.960068,1144.057495 1199.606430,1125.111115 1218.552811C1106.164734 1237.499191,1095.518372 1263.194748,1095.518372 1289.991013C1095.518372 1316.787277,1106.164734 1342.482834,1125.111115 1361.429214C1144.057495 1380.375595,1169.753052 1391.021957,1196.549316 1391.021957C1223.345581 1391.021957,1249.041138 1380.375595,1267.987518 1361.429214C1286.933899 1342.482834,1297.580261 1316.787277,1297.580261 1289.991013Z" style="stroke:rgb(25.500488%,41.000366%,88.400269%); stroke-width: 2.500000;stroke-linecap: round;stroke-linejoin: round;stroke-miterlimit: 10.000000;fill: none;"></path>
  <path d="M1249.867599 1118.889801C1249.867599 1092.093536,1239.221237 1066.397980,1220.274857 1047.451599C1201.328476 1028.505219,1175.632919 1017.858856,1148.836655 1017.858856C1122.040390 1017.858856,1096.344833 1028.505219,1077.398453 1047.451599C1058.452072 1066.397980,1047.805710 1092.093536,1047.805710 1118.889801C1047.805710 1145.686066,1058.452072 1171.381622,1077.398453 1190.328003C1096.344833 1209.274384,1122.040390 1219.920746,1148.836655 1219.920746C1175.632919 1219.920746,1201.328476 1209.274384,1220.274857 1190.328003C1239.221237 1171.381622,1249.867599 1145.686066,1249.867599 1118.889801Z" style="stroke:rgb(25.500488%,41.000366%,88.400269%); stroke-width: 2.500000;stroke-linecap: round;stroke-linejoin: round;stroke-miterlimit: 10.000000;fill: none;"></path>
  <path d="M1217.765030 951.992813C1217.765030 925.196548,1207.118668 899.500992,1188.172287 880.554611C1169.225906 861.608231,1143.530350 850.961868,1116.734085 850.961868C1089.937820 850.961868,1064.242264 861.608231,1045.295883 880.554611C1026.349503 899.500992,1015.703140 925.196548,1015.703140 951.992813C1015.703140 978.789078,1026.349503 1004.484634,1045.295883 1023.431015C1064.242264 1042.377396,1089.937820 1053.023758,1116.734085 1053.023758C1143.530350 1053.023758,1169.225906 1042.377396,1188.172287 1023.431015C1207.118668 1004.484634,1217.765030 978.789078,1217.765030 951.992813Z" style="stroke:rgb(25.500488%,41.000366%,88.400269%); stroke-width: 2.500000;stroke-linecap: round;stroke-linejoin: round;stroke-miterlimit: 10.000000;fill: none;"></path>
  <path d="M1166.899216 769.771179C1166.899216 742.974915,1156.252853 717.279358,1137.306473 698.332977C1118.360092 679.386597,1092.664536 668.740234,1065.868271 668.740234C1039.072006 668.740234,1013.376450 679.386597,994.430069 698.332977C975.483688 717.279358,964.837326 742.974915,964.837326 769.771179C964.837326 796.567444,975.483688 822.263000,994.430069 841.209381C1013.376450 860.155762,1039.072006 870.802124,1065.868271 870.802124C1092.664536 870.802124,1118.360092 860.155762,1137.306473 841.209381C1156.252853 822.263000,1166.899216 796.567444,1166.899216 769.771179Z" style="stroke:rgb(25.500488%,41.000366%,88.400269%); stroke-width: 2.500000;stroke-linecap: round;stroke-linejoin: round;stroke-miterlimit: 10.000000;fill: none;"></path>
  <path d="M1107.624954 609.803360C1107.624954 583.007095,1096.978592 557.311539,1078.032211 538.365158C1059.085831 519.418777,1033.390274 508.772415,1006.594009 508.772415C979.797745 508.772415,954.102188 519.418777,935.155807 538.365158C916.209427 557.311539,905.563065 583.007095,905.563065 609.803360C905.563065 636.599625,916.209427 662.295181,935.155807 681.241562C954.102188 700.187943,979.797745 710.834305,1006.594009 710.834305C1033.390274 710.834305,1059.085831 700.187943,1078.032211 681.241562C1096.978592 662.295181,1107.624954 636.599625,1107.624954 609.803360Z" style="stroke:rgb(25.500488%,41.000366%,88.400269%); stroke-width: 2.500000;stroke-linecap: round;stroke-linejoin: round;stroke-miterlimit: 10.000000;fill: none;"></path>
  <path d="M1058.446014 439.571533C1058.446014 412.775269,1047.799652 387.079712,1028.853271 368.133331C1009.906891 349.186951,984.211334 338.540588,957.415070 338.540588C930.618805 338.540588,904.923248 349.186951,885.976868 368.133331C867.030487 387.079712,856.384125 412.775269,856.384125 439.571533C856.384125 466.367798,867.030487 492.063354,885.976868 511.009735C904.923248 529.956116,930.618805 540.602478,957.415070 540.602478C984.211334 540.602478,1009.906891 529.956116,1028.853271 511.009735C1047.799652 492.063354,1058.446014 466.367798,1058.446014 439.571533Z" style="stroke:rgb(25.500488%,41.000366%,88.400269%); stroke-width: 2.500000;stroke-linecap: round;stroke-linejoin: round;stroke-miterlimit: 10.000000;fill: none;"></path>
  <path d="M1010.357040 272.194427C1010.357040 245.398163,999.710678 219.702606,980.764297 200.756226C961.817917 181.809845,936.122360 171.163483,909.326096 171.163483C882.529831 171.163483,856.834274 181.809845,837.887894 200.756226C818.941513 219.702606,808.295151 245.398163,808.295151 272.194427C808.295151 298.990692,818.941513 324.686249,837.887894 343.632629C856.834274 362.579010,882.529831 373.225372,909.326096 373.225372C936.122360 373.225372,961.817917 362.579010,980.764297 343.632629C999.710678 324.686249,1010.357040 298.990692,1010.357040 272.194427Z" style="stroke:rgb(25.500488%,41.000366%,88.400269%); stroke-width: 2.500000;stroke-linecap: round;stroke-linejoin: round;stroke-miterlimit: 10.000000;fill: none;"></path>
  <path d="M971.974106 101.469528C971.974106 74.673264,961.327744 48.977707,942.381363 30.031326C923.434982 11.084946,897.739426 0.438583,870.943161 0.438583C844.146896 0.438583,818.451340 11.084946,799.504959 30.031326C780.558578 48.977707,769.912216 74.673264,769.912216 101.469528C769.912216 128.265793,780.558578 153.961349,799.504959 172.907730C818.451340 191.854111,844.146896 202.500473,870.943161 202.500473C897.739426 202.500473,923.434982 191.854111,942.381363 172.907730C961.327744 153.961349,971.974106 128.265793,971.974106 101.469528Z" style="stroke:rgb(25.500488%,41.000366%,88.400269%); stroke-width: 2.500000;stroke-linecap: round;stroke-linejoin: round;stroke-miterlimit: 10.000000;fill: none;"></path>
  <path d="M1242.315582 1609.511429C1242.315582 1582.715164,1231.669220 1557.019608,1212.722839 1538.073227C1193.776459 1519.126846,1168.080902 1508.480484,1141.284637 1508.480484C1114.488373 1508.480484,1088.792816 1519.126846,1069.846436 1538.073227C1050.900055 1557.019608,1040.253693 1582.715164,1040.253693 1609.511429C1040.253693 1636.307693,1050.900055 1662.003250,1069.846436 1680.949631C1088.792816 1699.896011,1114.488373 1710.542374,1141.284637 1710.542374C1168.080902 1710.542374,1193.776459 1699.896011,1212.722839 1680.949631C1231.669220 1662.003250,1242.315582 1636.307693,1242.315582 1609.511429Z" style="stroke:rgb(25.500488%,41.000366%,88.400269%); stroke-width: 2.500000;stroke-linecap: round;stroke-linejoin: round;stroke-miterlimit: 10.000000;fill: none;"></path>
  <path d="M1191.151306 1436.489777C1191.151306 1409.693512,1180.504944 1383.997955,1161.558563 1365.051575C1142.612183 1346.105194,1116.916626 1335.458832,1090.120361 1335.458832C1063.324097 1335.458832,1037.628540 1346.105194,1018.682159 1365.051575C999.735779 1383.997955,989.089417 1409.693512,989.089417 1436.489777C989.089417 1463.286041,999.735779 1488.981598,1018.682159 1507.927979C1037.628540 1526.874359,1063.324097 1537.520721,1090.120361 1537.520721C1116.916626 1537.520721,1142.612183 1526.874359,1161.558563 1507.927979C1180.504944 1488.981598,1191.151306 1463.286041,1191.151306 1436.489777Z" style="stroke:rgb(25.500488%,41.000366%,88.400269%); stroke-width: 2.500000;stroke-linecap: round;stroke-linejoin: round;stroke-miterlimit: 10.000000;fill: none;"></path>
  <path d="M1143.698166 1259.004379C1143.698166 1232.208115,1133.051804 1206.512558,1114.105423 1187.566177C1095.159042 1168.619797,1069.463486 1157.973434,1042.667221 1157.973434C1015.870956 1157.973434,990.175400 1168.619797,971.229019 1187.566177C952.282639 1206.512558,941.636276 1232.208115,941.636276 1259.004379C941.636276 1285.800644,952.282639 1311.496201,971.229019 1330.442581C990.175400 1349.388962,1015.870956 1360.035324,1042.667221 1360.035324C1069.463486 1360.035324,1095.159042 1349.388962,1114.105423 1330.442581C1133.051804 1311.496201,1143.698166 1285.800644,1143.698166 1259.004379Z" style="stroke:rgb(25.500488%,41.000366%,88.400269%); stroke-width: 2.500000;stroke-linecap: round;stroke-linejoin: round;stroke-miterlimit: 10.000000;fill: none;"></path>
  <path d="M1096.439667 1078.028458C1096.439667 1051.232193,1085.793304 1025.536636,1066.846924 1006.590256C1047.900543 987.643875,1022.204987 976.997513,995.408722 976.997513C968.612457 976.997513,942.916901 987.643875,923.970520 1006.590256C905.024139 1025.536636,894.377777 1051.232193,894.377777 1078.028458C894.377777 1104.824722,905.024139 1130.520279,923.970520 1149.466660C942.916901 1168.413040,968.612457 1179.059402,995.408722 1179.059402C1022.204987 1179.059402,1047.900543 1168.413040,1066.846924 1149.466660C1085.793304 1130.520279,1096.439667 1104.824722,1096.439667 1078.028458Z" style="stroke:rgb(25.500488%,41.000366%,88.400269%); stroke-width: 2.500000;stroke-linecap: round;stroke-linejoin: round;stroke-miterlimit: 10.000000;fill: none;"></path>
  <path d="M1061.054184 898.376068C1061.054184 871.579803,1050.407822 845.884247,1031.461441 826.937866C1012.515060 807.991486,986.819504 797.345123,960.023239 797.345123C933.226974 797.345123,907.531418 807.991486,888.585037 826.937866C869.638657 845.884247,858.992294 871.579803,858.992294 898.376068C858.992294 925.172333,869.638657 950.867889,888.585037 969.814270C907.531418 988.760651,933.226974 999.407013,960.023239 999.407013C986.819504 999.407013,1012.515060 988.760651,1031.461441 969.814270C1050.407822 950.867889,1061.054184 925.172333,1061.054184 898.376068Z" style="stroke:rgb(25.500488%,41.000366%,88.400269%); stroke-width: 2.500000;stroke-linecap: round;stroke-linejoin: round;stroke-miterlimit: 10.000000;fill: none;"></path>
  <path d="M998.328308 726.314636C998.328308 699.518372,987.681946 673.822815,968.735565 654.876434C949.789185 635.930054,924.093628 625.283691,897.297363 625.283691C870.501099 625.283691,844.805542 635.930054,825.859161 654.876434C806.912781 673.822815,796.266418 699.518372,796.266418 726.314636C796.266418 753.110901,806.912781 778.806458,825.859161 797.752838C844.805542 816.699219,870.501099 827.345581,897.297363 827.345581C924.093628 827.345581,949.789185 816.699219,968.735565 797.752838C987.681946 778.806458,998.328308 753.110901,998.328308 726.314636Z" style="stroke:rgb(25.500488%,41.000366%,88.400269%); stroke-width: 2.500000;stroke-linecap: round;stroke-linejoin: round;stroke-miterlimit: 10.000000;fill: none;"></path>
  <path d="M944.231476 547.233200C944.231476 520.436935,933.585114 494.741379,914.638733 475.794998C895.692352 456.848618,869.996796 446.202255,843.200531 446.202255C816.404266 446.202255,790.708710 456.848618,771.762329 475.794998C752.815948 494.741379,742.169586 520.436935,742.169586 547.233200C742.169586 574.029465,752.815948 599.725021,771.762329 618.671402C790.708710 637.617783,816.404266 648.264145,843.200531 648.264145C869.996796 648.264145,895.692352 637.617783,914.638733 618.671402C933.585114 599.725021,944.231476 574.029465,944.231476 547.233200Z" style="stroke:rgb(25.500488%,41.000366%,88.400269%); stroke-width: 2.500000;stroke-linecap: round;stroke-linejoin: round;stroke-miterlimit: 10.000000;fill: none;"></path>
  <path d="M891.652817 370.630173C891.652817 343.833908,881.006454 318.138351,862.060074 299.191971C843.113693 280.245590,817.418137 269.599228,790.621872 269.599228C763.825607 269.599228,738.130051 280.245590,719.183670 299.191971C700.237289 318.138351,689.590927 343.833908,689.590927 370.630173C689.590927 397.426437,700.237289 423.121994,719.183670 442.068375C738.130051 461.014755,763.825607 471.661118,790.621872 471.661118C817.418137 471.661118,843.113693 461.014755,862.060074 442.068375C881.006454 423.121994,891.652817 397.426437,891.652817 370.630173Z" style="stroke:rgb(25.500488%,41.000366%,88.400269%); stroke-width: 2.500000;stroke-linecap: round;stroke-linejoin: round;stroke-miterlimit: 10.000000;fill: none;"></path>
  <path d="M840.838898 196.868896C840.838898 170.072632,830.192535 144.377075,811.246155 125.430695C792.299774 106.484314,766.604218 95.837952,739.807953 95.837952C713.011688 95.837952,687.316132 106.484314,668.369751 125.430695C649.423370 144.377075,638.777008 170.072632,638.777008 196.868896C638.777008 223.665161,649.423370 249.360718,668.369751 268.307098C687.316132 287.253479,713.011688 297.899841,739.807953 297.899841C766.604218 297.899841,792.299774 287.253479,811.246155 268.307098C830.192535 249.360718,840.838898 223.665161,840.838898 196.868896Z" style="stroke:rgb(25.500488%,41.000366%,88.400269%); stroke-width: 2.500000;stroke-linecap: round;stroke-linejoin: round;stroke-miterlimit: 10.000000;fill: none;"></path>
  <path d="M1120.458191 1729.175873C1120.458191 1702.379608,1109.811829 1676.684052,1090.865448 1657.737671C1071.919067 1638.791290,1046.223511 1628.144928,1019.427246 1628.144928C992.630981 1628.144928,966.935425 1638.791290,947.989044 1657.737671C929.042664 1676.684052,918.396301 1702.379608,918.396301 1729.175873C918.396301 1755.972137,929.042664 1781.667694,947.989044 1800.614075C966.935425 1819.560455,992.630981 1830.206818,1019.427246 1830.206818C1046.223511 1830.206818,1071.919067 1819.560455,1090.865448 1800.614075C1109.811829 1781.667694,1120.458191 1755.972137,1120.458191 1729.175873Z" style="stroke:rgb(25.500488%,41.000366%,88.400269%); stroke-width: 2.500000;stroke-linecap: round;stroke-linejoin: round;stroke-miterlimit: 10.000000;fill: none;"></path>
  <path d="M1075.210968 1560.929382C1075.210968 1534.133118,1064.564606 1508.437561,1045.618225 1489.491180C1026.671844 1470.544800,1000.976288 1459.898438,974.180023 1459.898438C947.383759 1459.898438,921.688202 1470.544800,902.741821 1489.491180C883.795441 1508.437561,873.149078 1534.133118,873.149078 1560.929382C873.149078 1587.725647,883.795441 1613.421204,902.741821 1632.367584C921.688202 1651.313965,947.383759 1661.960327,974.180023 1661.960327C1000.976288 1661.960327,1026.671844 1651.313965,1045.618225 1632.367584C1064.564606 1613.421204,1075.210968 1587.725647,1075.210968 1560.929382Z" style="stroke:rgb(25.500488%,41.000366%,88.400269%); stroke-width: 2.500000;stroke-linecap: round;stroke-linejoin: round;stroke-miterlimit: 10.000000;fill: none;"></path>
  <path d="M1029.730179 1386.778809C1029.730179 1359.982544,1019.083817 1334.286987,1000.137436 1315.340607C981.191055 1296.394226,955.495499 1285.747864,928.699234 1285.747864C901.902969 1285.747864,876.207413 1296.394226,857.261032 1315.340607C838.314651 1334.286987,827.668289 1359.982544,827.668289 1386.778809C827.668289 1413.575073,838.314651 1439.270630,857.261032 1458.217010C876.207413 1477.163391,901.902969 1487.809753,928.699234 1487.809753C955.495499 1487.809753,981.191055 1477.163391,1000.137436 1458.217010C1019.083817 1439.270630,1029.730179 1413.575073,1029.730179 1386.778809Z" style="stroke:rgb(25.500488%,41.000366%,88.400269%); stroke-width: 2.500000;stroke-linecap: round;stroke-linejoin: round;stroke-miterlimit: 10.000000;fill: none;"></path>
  <path d="M986.040070 1206.347870C986.040070 1179.551605,975.393707 1153.856049,956.447327 1134.909668C937.500946 1115.963287,911.805389 1105.316925,885.009125 1105.316925C858.212860 1105.316925,832.517303 1115.963287,813.570923 1134.909668C794.624542 1153.856049,783.978180 1179.551605,783.978180 1206.347870C783.978180 1233.144135,794.624542 1258.839691,813.570923 1277.786072C832.517303 1296.732452,858.212860 1307.378815,885.009125 1307.378815C911.805389 1307.378815,937.500946 1296.732452,956.447327 1277.786072C975.393707 1258.839691,986.040070 1233.144135,986.040070 1206.347870Z" style="stroke:rgb(25.500488%,41.000366%,88.400269%); stroke-width: 2.500000;stroke-linecap: round;stroke-linejoin: round;stroke-miterlimit: 10.000000;fill: none;"></path>
  <path d="M939.793686 1024.645294C939.793686 997.849030,929.147324 972.153473,910.200943 953.207092C891.254562 934.260712,865.559006 923.614349,838.762741 923.614349C811.966476 923.614349,786.270920 934.260712,767.324539 953.207092C748.378159 972.153473,737.731796 997.849030,737.731796 1024.645294C737.731796 1051.441559,748.378159 1077.137115,767.324539 1096.083496C786.270920 1115.029877,811.966476 1125.676239,838.762741 1125.676239C865.559006 1125.676239,891.254562 1115.029877,910.200943 1096.083496C929.147324 1077.137115,939.793686 1051.441559,939.793686 1024.645294Z" style="stroke:rgb(25.500488%,41.000366%,88.400269%); stroke-width: 2.500000;stroke-linecap: round;stroke-linejoin: round;stroke-miterlimit: 10.000000;fill: none;"></path>
  <path d="M892.703873 855.646194C892.703873 828.849930,882.057510 803.154373,863.111130 784.207993C844.164749 765.261612,818.469193 754.615250,791.672928 754.615250C764.876663 754.615250,739.181107 765.261612,720.234726 784.207993C701.288345 803.154373,690.641983 828.849930,690.641983 855.646194C690.641983 882.442459,701.288345 908.138016,720.234726 927.084396C739.181107 946.030777,764.876663 956.677139,791.672928 956.677139C818.469193 956.677139,844.164749 946.030777,863.111130 927.084396C882.057510 908.138016,892.703873 882.442459,892.703873 855.646194Z" style="stroke:rgb(25.500488%,41.000366%,88.400269%); stroke-width: 2.500000;stroke-linecap: round;stroke-linejoin: round;stroke-miterlimit: 10.000000;fill: none;"></path>
  <path d="M837.828476 676.512848C837.828476 649.716583,827.182114 624.021027,808.235733 605.074646C789.289352 586.128265,763.593796 575.481903,736.797531 575.481903C710.001266 575.481903,684.305710 586.128265,665.359329 605.074646C646.412949 624.021027,635.766586 649.716583,635.766586 676.512848C635.766586 703.309113,646.412949 729.004669,665.359329 747.951050C684.305710 766.897430,710.001266 777.543793,736.797531 777.543793C763.593796 777.543793,789.289352 766.897430,808.235733 747.951050C827.182114 729.004669,837.828476 703.309113,837.828476 676.512848Z" style="stroke:rgb(25.500488%,41.000366%,88.400269%); stroke-width: 2.500000;stroke-linecap: round;stroke-linejoin: round;stroke-miterlimit: 10.000000;fill: none;"></path>
  <path d="M781.318100 499.455658C781.318100 472.659393,770.671738 446.963837,751.725357 428.017456C732.778976 409.071075,707.083420 398.424713,680.287155 398.424713C653.490891 398.424713,627.795334 409.071075,608.848953 428.017456C589.902573 446.963837,579.256210 472.659393,579.256210 499.455658C579.256210 526.251923,589.902573 551.947479,608.848953 570.893860C627.795334 589.840240,653.490891 600.486603,680.287155 600.486603C707.083420 600.486603,732.778976 589.840240,751.725357 570.893860C770.671738 551.947479,781.318100 526.251923,781.318100 499.455658Z" style="stroke:rgb(25.500488%,41.000366%,88.400269%); stroke-width: 2.500000;stroke-linecap: round;stroke-linejoin: round;stroke-miterlimit: 10.000000;fill: none;"></path>
  <path d="M727.480774 328.769684C727.480774 301.973419,716.834412 276.277863,697.888031 257.331482C678.941650 238.385101,653.246094 227.738739,626.449829 227.738739C599.653564 227.738739,573.958008 238.385101,555.011627 257.331482C536.065247 276.277863,525.418884 301.973419,525.418884 328.769684C525.418884 355.565948,536.065247 381.261505,555.011627 400.207886C573.958008 419.154266,599.653564 429.800629,626.449829 429.800629C653.246094 429.800629,678.941650 419.154266,697.888031 400.207886C716.834412 381.261505,727.480774 355.565948,727.480774 328.769684Z" style="stroke:rgb(25.500488%,41.000366%,88.400269%); stroke-width: 2.500000;stroke-linecap: round;stroke-linejoin: round;stroke-miterlimit: 10.000000;fill: none;"></path>
  <path d="M671.489441 162.625290C671.489441 135.829025,660.843079 110.133469,641.896698 91.187088C622.950317 72.240707,597.254761 61.594345,570.458496 61.594345C543.662231 61.594345,517.966675 72.240707,499.020294 91.187088C480.073914 110.133469,469.427551 135.829025,469.427551 162.625290C469.427551 189.421555,480.073914 215.117111,499.020294 234.063492C517.966675 253.009872,543.662231 263.656235,570.458496 263.656235C597.254761 263.656235,622.950317 253.009872,641.896698 234.063492C660.843079 215.117111,671.489441 189.421555,671.489441 162.625290Z" style="stroke:rgb(25.500488%,41.000366%,88.400269%); stroke-width: 2.500000;stroke-linecap: round;stroke-linejoin: round;stroke-miterlimit: 10.000000;fill: none;"></path>
  <path d="M952.224670 1689.274750C952.224670 1662.478485,941.578308 1636.782928,922.631927 1617.836548C903.685547 1598.890167,877.989990 1588.243805,851.193726 1588.243805C824.397461 1588.243805,798.701904 1598.890167,779.755524 1617.836548C760.809143 1636.782928,750.162781 1662.478485,750.162781 1689.274750C750.162781 1716.071014,760.809143 1741.766571,779.755524 1760.712952C798.701904 1779.659332,824.397461 1790.305695,851.193726 1790.305695C877.989990 1790.305695,903.685547 1779.659332,922.631927 1760.712952C941.578308 1741.766571,952.224670 1716.071014,952.224670 1689.274750Z" style="stroke:rgb(25.500488%,41.000366%,88.400269%); stroke-width: 2.500000;stroke-linecap: round;stroke-linejoin: round;stroke-miterlimit: 10.000000;fill: none;"></path>
  <path d="M911.856415 1516.369873C911.856415 1489.573608,901.210052 1463.878052,882.263672 1444.931671C863.317291 1425.985291,837.621735 1415.338928,810.825470 1415.338928C784.029205 1415.338928,758.333649 1425.985291,739.387268 1444.931671C720.440887 1463.878052,709.794525 1489.573608,709.794525 1516.369873C709.794525 1543.166138,720.440887 1568.861694,739.387268 1587.808075C758.333649 1606.754456,784.029205 1617.400818,810.825470 1617.400818C837.621735 1617.400818,863.317291 1606.754456,882.263672 1587.808075C901.210052 1568.861694,911.856415 1543.166138,911.856415 1516.369873Z" style="stroke:rgb(25.500488%,41.000366%,88.400269%); stroke-width: 2.500000;stroke-linecap: round;stroke-linejoin: round;stroke-miterlimit: 10.000000;fill: none;"></path>
  <path d="M874.809998 1335.484787C874.809998 1308.688522,864.163635 1282.992966,845.217255 1264.046585C826.270874 1245.100204,800.575317 1234.453842,773.779053 1234.453842C746.982788 1234.453842,721.287231 1245.100204,702.340851 1264.046585C683.394470 1282.992966,672.748108 1308.688522,672.748108 1335.484787C672.748108 1362.281052,683.394470 1387.976608,702.340851 1406.922989C721.287231 1425.869370,746.982788 1436.515732,773.779053 1436.515732C800.575317 1436.515732,826.270874 1425.869370,845.217255 1406.922989C864.163635 1387.976608,874.809998 1362.281052,874.809998 1335.484787Z" style="stroke:rgb(25.500488%,41.000366%,88.400269%); stroke-width: 2.500000;stroke-linecap: round;stroke-linejoin: round;stroke-miterlimit: 10.000000;fill: none;"></path>
  <path d="M830.548950 1153.289108C830.548950 1126.492844,819.902588 1100.797287,800.956207 1081.850906C782.009827 1062.904526,756.314270 1052.258163,729.518005 1052.258163C702.721741 1052.258163,677.026184 1062.904526,658.079803 1081.850906C639.133423 1100.797287,628.487061 1126.492844,628.487061 1153.289108C628.487061 1180.085373,639.133423 1205.780930,658.079803 1224.727310C677.026184 1243.673691,702.721741 1254.320053,729.518005 1254.320053C756.314270 1254.320053,782.009827 1243.673691,800.956207 1224.727310C819.902588 1205.780930,830.548950 1180.085373,830.548950 1153.289108Z" style="stroke:rgb(25.500488%,41.000366%,88.400269%); stroke-width: 2.500000;stroke-linecap: round;stroke-linejoin: round;stroke-miterlimit: 10.000000;fill: none;"></path>
  <path d="M770.976257 981.954330C770.976257 955.158066,760.329895 929.462509,741.383514 910.516129C722.437134 891.569748,696.741577 880.923386,669.945312 880.923386C643.149048 880.923386,617.453491 891.569748,598.507111 910.516129C579.560730 929.462509,568.914368 955.158066,568.914368 981.954330C568.914368 1008.750595,579.560730 1034.446152,598.507111 1053.392532C617.453491 1072.338913,643.149048 1082.985275,669.945312 1082.985275C696.741577 1082.985275,722.437134 1072.338913,741.383514 1053.392532C760.329895 1034.446152,770.976257 1008.750595,770.976257 981.954330Z" style="stroke:rgb(25.500488%,41.000366%,88.400269%); stroke-width: 2.500000;stroke-linecap: round;stroke-linejoin: round;stroke-miterlimit: 10.000000;fill: none;"></path>
  <path d="M732.671173 805.052856C732.671173 778.256592,722.024811 752.561035,703.078430 733.614655C684.132050 714.668274,658.436493 704.021912,631.640228 704.021912C604.843964 704.021912,579.148407 714.668274,560.202026 733.614655C541.255646 752.561035,530.609283 778.256592,530.609283 805.052856C530.609283 831.849121,541.255646 857.544678,560.202026 876.491058C579.148407 895.437439,604.843964 906.083801,631.640228 906.083801C658.436493 906.083801,684.132050 895.437439,703.078430 876.491058C722.024811 857.544678,732.671173 831.849121,732.671173 805.052856Z" style="stroke:rgb(25.500488%,41.000366%,88.400269%); stroke-width: 2.500000;stroke-linecap: round;stroke-linejoin: round;stroke-miterlimit: 10.000000;fill: none;"></path>
  <path d="M675.797470 626.905701C675.797470 600.109436,665.151108 574.413879,646.204727 555.467499C627.258347 536.521118,601.562790 525.874756,574.766525 525.874756C547.970261 525.874756,522.274704 536.521118,503.328323 555.467499C484.381943 574.413879,473.735580 600.109436,473.735580 626.905701C473.735580 653.701965,484.381943 679.397522,503.328323 698.343903C522.274704 717.290283,547.970261 727.936646,574.766525 727.936646C601.562790 727.936646,627.258347 717.290283,646.204727 698.343903C665.151108 679.397522,675.797470 653.701965,675.797470 626.905701Z" style="stroke:rgb(25.500488%,41.000366%,88.400269%); stroke-width: 2.500000;stroke-linecap: round;stroke-linejoin: round;stroke-miterlimit: 10.000000;fill: none;"></path>
  <path d="M612.241150 454.948074C612.241150 428.151810,601.594788 402.456253,582.648407 383.509872C563.702026 364.563492,538.006470 353.917130,511.210205 353.917130C484.413940 353.917130,458.718384 364.563492,439.772003 383.509872C420.825623 402.456253,410.179260 428.151810,410.179260 454.948074C410.179260 481.744339,420.825623 507.439896,439.772003 526.386276C458.718384 545.332657,484.413940 555.979019,511.210205 555.979019C538.006470 555.979019,563.702026 545.332657,582.648407 526.386276C601.594788 507.439896,612.241150 481.744339,612.241150 454.948074Z" style="stroke:rgb(25.500488%,41.000366%,88.400269%); stroke-width: 2.500000;stroke-linecap: round;stroke-linejoin: round;stroke-miterlimit: 10.000000;fill: none;"></path>
  <path d="M554.446152 288.453323C554.446152 261.657059,543.799789 235.961502,524.853409 217.015121C505.907028 198.068741,480.211472 187.422379,453.415207 187.422379C426.618942 187.422379,400.923386 198.068741,381.977005 217.015121C363.030624 235.961502,352.384262 261.657059,352.384262 288.453323C352.384262 315.249588,363.030624 340.945145,381.977005 359.891525C400.923386 378.837906,426.618942 389.484268,453.415207 389.484268C480.211472 389.484268,505.907028 378.837906,524.853409 359.891525C543.799789 340.945145,554.446152 315.249588,554.446152 288.453323Z" style="stroke:rgb(25.500488%,41.000366%,88.400269%); stroke-width: 2.500000;stroke-linecap: round;stroke-linejoin: round;stroke-miterlimit: 10.000000;fill: none;"></path>
  <path d="M793.243027 1642.976471C793.243027 1616.180206,782.596664 1590.484650,763.650284 1571.538269C744.703903 1552.591888,719.008347 1541.945526,692.212082 1541.945526C665.415817 1541.945526,639.720261 1552.591888,620.773880 1571.538269C601.827499 1590.484650,591.181137 1616.180206,591.181137 1642.976471C591.181137 1669.772736,601.827499 1695.468292,620.773880 1714.414673C639.720261 1733.361053,665.415817 1744.007416,692.212082 1744.007416C719.008347 1744.007416,744.703903 1733.361053,763.650284 1714.414673C782.596664 1695.468292,793.243027 1669.772736,793.243027 1642.976471Z" style="stroke:rgb(25.500488%,41.000366%,88.400269%); stroke-width: 2.500000;stroke-linecap: round;stroke-linejoin: round;stroke-miterlimit: 10.000000;fill: none;"></path>
  <path d="M756.456131 1461.715073C756.456131 1434.918808,745.809769 1409.223251,726.863388 1390.276871C707.917007 1371.330490,682.221451 1360.684128,655.425186 1360.684128C628.628922 1360.684128,602.933365 1371.330490,583.986984 1390.276871C565.040604 1409.223251,554.394241 1434.918808,554.394241 1461.715073C554.394241 1488.511337,565.040604 1514.206894,583.986984 1533.153275C602.933365 1552.099655,628.628922 1562.746017,655.425186 1562.746017C682.221451 1562.746017,707.917007 1552.099655,726.863388 1533.153275C745.809769 1514.206894,756.456131 1488.511337,756.456131 1461.715073Z" style="stroke:rgb(25.500488%,41.000366%,88.400269%); stroke-width: 2.500000;stroke-linecap: round;stroke-linejoin: round;stroke-miterlimit: 10.000000;fill: none;"></path>
  <path d="M718.838776 1280.700211C718.838776 1253.903946,708.192413 1228.208389,689.246033 1209.262009C670.299652 1190.315628,644.604095 1179.669266,617.807831 1179.669266C591.011566 1179.669266,565.316010 1190.315628,546.369629 1209.262009C527.423248 1228.208389,516.776886 1253.903946,516.776886 1280.700211C516.776886 1307.496475,527.423248 1333.192032,546.369629 1352.138412C565.316010 1371.084793,591.011566 1381.731155,617.807831 1381.731155C644.604095 1381.731155,670.299652 1371.084793,689.246033 1352.138412C708.192413 1333.192032,718.838776 1307.496475,718.838776 1280.700211Z" style="stroke:rgb(25.500488%,41.000366%,88.400269%); stroke-width: 2.500000;stroke-linecap: round;stroke-linejoin: round;stroke-miterlimit: 10.000000;fill: none;"></path>
  <path d="M661.484970 1109.663879C661.484970 1082.867615,650.838608 1057.172058,631.892227 1038.225677C612.945847 1019.279297,587.250290 1008.632935,560.454025 1008.632935C533.657761 1008.632935,507.962204 1019.279297,489.015823 1038.225677C470.069443 1057.172058,459.423080 1082.867615,459.423080 1109.663879C459.423080 1136.460144,470.069443 1162.155701,489.015823 1181.102081C507.962204 1200.048462,533.657761 1210.694824,560.454025 1210.694824C587.250290 1210.694824,612.945847 1200.048462,631.892227 1181.102081C650.838608 1162.155701,661.484970 1136.460144,661.484970 1109.663879Z" style="stroke:rgb(25.500488%,41.000366%,88.400269%); stroke-width: 2.500000;stroke-linecap: round;stroke-linejoin: round;stroke-miterlimit: 10.000000;fill: none;"></path>
  <path d="M610.684021 930.413757C610.684021 903.617493,600.037659 877.921936,581.091278 858.975555C562.144897 840.029175,536.449341 829.382812,509.653076 829.382812C482.856812 829.382812,457.161255 840.029175,438.214874 858.975555C419.268494 877.921936,408.622131 903.617493,408.622131 930.413757C408.622131 957.210022,419.268494 982.905579,438.214874 1001.851959C457.161255 1020.798340,482.856812 1031.444702,509.653076 1031.444702C536.449341 1031.444702,562.144897 1020.798340,581.091278 1001.851959C600.037659 982.905579,610.684021 957.210022,610.684021 930.413757Z" style="stroke:rgb(25.500488%,41.000366%,88.400269%); stroke-width: 2.500000;stroke-linecap: round;stroke-linejoin: round;stroke-miterlimit: 10.000000;fill: none;"></path>
  <path d="M570.588257 754.952621C570.588257 728.156357,559.941895 702.460800,540.995514 683.514420C522.049133 664.568039,496.353577 653.921677,469.557312 653.921677C442.761047 653.921677,417.065491 664.568039,398.119110 683.514420C379.172729 702.460800,368.526367 728.156357,368.526367 754.952621C368.526367 781.748886,379.172729 807.444443,398.119110 826.390823C417.065491 845.337204,442.761047 855.983566,469.557312 855.983566C496.353577 855.983566,522.049133 845.337204,540.995514 826.390823C559.941895 807.444443,570.588257 781.748886,570.588257 754.952621Z" style="stroke:rgb(25.500488%,41.000366%,88.400269%); stroke-width: 2.500000;stroke-linecap: round;stroke-linejoin: round;stroke-miterlimit: 10.000000;fill: none;"></path>
  <path d="M508.705841 581.191330C508.705841 554.395065,498.059479 528.699509,479.113098 509.753128C460.166718 490.806747,434.471161 480.160385,407.674896 480.160385C380.878632 480.160385,355.183075 490.806747,336.236694 509.753128C317.290314 528.699509,306.643951 554.395065,306.643951 581.191330C306.643951 607.987595,317.290314 633.683151,336.236694 652.629532C355.183075 671.575912,380.878632 682.222275,407.674896 682.222275C434.471161 682.222275,460.166718 671.575912,479.113098 652.629532C498.059479 633.683151,508.705841 607.987595,508.705841 581.191330Z" style="stroke:rgb(25.500488%,41.000366%,88.400269%); stroke-width: 2.500000;stroke-linecap: round;stroke-linejoin: round;stroke-miterlimit: 10.000000;fill: none;"></path>
  <path d="M443.488586 408.390274C443.488586 381.594009,432.842224 355.898453,413.895844 336.952072C394.949463 318.005692,369.253906 307.359329,342.457642 307.359329C315.661377 307.359329,289.965820 318.005692,271.019440 336.952072C252.073059 355.898453,241.426697 381.594009,241.426697 408.390274C241.426697 435.186539,252.073059 460.882095,271.019440 479.828476C289.965820 498.774857,315.661377 509.421219,342.457642 509.421219C369.253906 509.421219,394.949463 498.774857,413.895844 479.828476C432.842224 460.882095,443.488586 435.186539,443.488586 408.390274Z" style="stroke:rgb(25.500488%,41.000366%,88.400269%); stroke-width: 2.500000;stroke-linecap: round;stroke-linejoin: round;stroke-miterlimit: 10.000000;fill: none;"></path>
  <path d="M646.160339 1593.447174C646.160339 1566.650909,635.513977 1540.955353,616.567596 1522.008972C597.621216 1503.062592,571.925659 1492.416229,545.129395 1492.416229C518.333130 1492.416229,492.637573 1503.062592,473.691193 1522.008972C454.744812 1540.955353,444.098450 1566.650909,444.098450 1593.447174C444.098450 1620.243439,454.744812 1645.938995,473.691193 1664.885376C492.637573 1683.831757,518.333130 1694.478119,545.129395 1694.478119C571.925659 1694.478119,597.621216 1683.831757,616.567596 1664.885376C635.513977 1645.938995,646.160339 1620.243439,646.160339 1593.447174Z" style="stroke:rgb(25.500488%,41.000366%,88.400269%); stroke-width: 2.500000;stroke-linecap: round;stroke-linejoin: round;stroke-miterlimit: 10.000000;fill: none;"></path>
  <path d="M601.795486 1411.225555C601.795486 1384.429291,591.149124 1358.733734,572.202744 1339.787354C553.256363 1320.840973,527.560806 1310.194611,500.764542 1310.194611C473.968277 1310.194611,448.272720 1320.840973,429.326340 1339.787354C410.379959 1358.733734,399.733597 1384.429291,399.733597 1411.225555C399.733597 1438.021820,410.379959 1463.717377,429.326340 1482.663757C448.272720 1501.610138,473.968277 1512.256500,500.764542 1512.256500C527.560806 1512.256500,553.256363 1501.610138,572.202744 1482.663757C591.149124 1463.717377,601.795486 1438.021820,601.795486 1411.225555Z" style="stroke:rgb(25.500488%,41.000366%,88.400269%); stroke-width: 2.500000;stroke-linecap: round;stroke-linejoin: round;stroke-miterlimit: 10.000000;fill: none;"></path>
  <path d="M551.241089 1241.850143C551.241089 1215.053879,540.594727 1189.358322,521.648346 1170.411942C502.701965 1151.465561,477.006409 1140.819199,450.210144 1140.819199C423.413879 1140.819199,397.718323 1151.465561,378.771942 1170.411942C359.825562 1189.358322,349.179199 1215.053879,349.179199 1241.850143C349.179199 1268.646408,359.825562 1294.341965,378.771942 1313.288345C397.718323 1332.234726,423.413879 1342.881088,450.210144 1342.881088C477.006409 1342.881088,502.701965 1332.234726,521.648346 1313.288345C540.594727 1294.341965,551.241089 1268.646408,551.241089 1241.850143Z" style="stroke:rgb(25.500488%,41.000366%,88.400269%); stroke-width: 2.500000;stroke-linecap: round;stroke-linejoin: round;stroke-miterlimit: 10.000000;fill: none;"></path>
  <path d="M521.318481 1051.090332C521.318481 1024.294067,510.672119 998.598511,491.725739 979.652130C472.779358 960.705750,447.083801 950.059387,420.287537 950.059387C393.491272 950.059387,367.795715 960.705750,348.849335 979.652130C329.902954 998.598511,319.256592 1024.294067,319.256592 1051.090332C319.256592 1077.886597,329.902954 1103.582153,348.849335 1122.528534C367.795715 1141.474915,393.491272 1152.121277,420.287537 1152.121277C447.083801 1152.121277,472.779358 1141.474915,491.725739 1122.528534C510.672119 1103.582153,521.318481 1077.886597,521.318481 1051.090332Z" style="stroke:rgb(25.500488%,41.000366%,88.400269%); stroke-width: 2.500000;stroke-linecap: round;stroke-linejoin: round;stroke-miterlimit: 10.000000;fill: none;"></path>
  <path d="M446.849365 873.021027C446.849365 846.224762,436.203003 820.529205,417.256622 801.582825C398.310242 782.636444,372.614685 771.990082,345.818420 771.990082C319.022156 771.990082,293.326599 782.636444,274.380219 801.582825C255.433838 820.529205,244.787476 846.224762,244.787476 873.021027C244.787476 899.817291,255.433838 925.512848,274.380219 944.459229C293.326599 963.405609,319.022156 974.051971,345.818420 974.051971C372.614685 974.051971,398.310242 963.405609,417.256622 944.459229C436.203003 925.512848,446.849365 899.817291,446.849365 873.021027Z" style="stroke:rgb(25.500488%,41.000366%,88.400269%); stroke-width: 2.500000;stroke-linecap: round;stroke-linejoin: round;stroke-miterlimit: 10.000000;fill: none;"></path>
  <path d="M401.770828 702.036591C401.770828 675.240326,391.124466 649.544769,372.178085 630.598389C353.231705 611.652008,327.536148 601.005646,300.739883 601.005646C273.943619 601.005646,248.248062 611.652008,229.301682 630.598389C210.355301 649.544769,199.708939 675.240326,199.708939 702.036591C199.708939 728.832855,210.355301 754.528412,229.301682 773.474792C248.248062 792.421173,273.943619 803.067535,300.739883 803.067535C327.536148 803.067535,353.231705 792.421173,372.178085 773.474792C391.124466 754.528412,401.770828 728.832855,401.770828 702.036591Z" style="stroke:rgb(25.500488%,41.000366%,88.400269%); stroke-width: 2.500000;stroke-linecap: round;stroke-linejoin: round;stroke-miterlimit: 10.000000;fill: none;"></path>
  <path d="M348.205994 521.138519C348.205994 494.342255,337.559631 468.646698,318.613251 449.700317C299.666870 430.753937,273.971313 420.107574,247.175049 420.107574C220.378784 420.107574,194.683228 430.753937,175.736847 449.700317C156.790466 468.646698,146.144104 494.342255,146.144104 521.138519C146.144104 547.934784,156.790466 573.630341,175.736847 592.576721C194.683228 611.523102,220.378784 622.169464,247.175049 622.169464C273.971313 622.169464,299.666870 611.523102,318.613251 592.576721C337.559631 573.630341,348.205994 547.934784,348.205994 521.138519Z" style="stroke:rgb(25.500488%,41.000366%,88.400269%); stroke-width: 2.500000;stroke-linecap: round;stroke-linejoin: round;stroke-miterlimit: 10.000000;fill: none;"></path>
  <path d="M487.593918 1526.724716C487.593918 1499.928452,476.947556 1474.232895,458.001175 1455.286514C439.054794 1436.340134,413.359238 1425.693771,386.562973 1425.693771C359.766708 1425.693771,334.071152 1436.340134,315.124771 1455.286514C296.178391 1474.232895,285.532028 1499.928452,285.532028 1526.724716C285.532028 1553.520981,296.178391 1579.216537,315.124771 1598.162918C334.071152 1617.109299,359.766708 1627.755661,386.562973 1627.755661C413.359238 1627.755661,439.054794 1617.109299,458.001175 1598.162918C476.947556 1579.216537,487.593918 1553.520981,487.593918 1526.724716Z" style="stroke:rgb(25.500488%,41.000366%,88.400269%); stroke-width: 2.500000;stroke-linecap: round;stroke-linejoin: round;stroke-miterlimit: 10.000000;fill: none;"></path>
  <path d="M433.224579 1370.883240C433.224579 1344.086975,422.578217 1318.391418,403.631836 1299.445038C384.685455 1280.498657,358.989899 1269.852295,332.193634 1269.852295C305.397369 1269.852295,279.701813 1280.498657,260.755432 1299.445038C241.809052 1318.391418,231.162689 1344.086975,231.162689 1370.883240C231.162689 1397.679504,241.809052 1423.375061,260.755432 1442.321442C279.701813 1461.267822,305.397369 1471.914185,332.193634 1471.914185C358.989899 1471.914185,384.685455 1461.267822,403.631836 1442.321442C422.578217 1423.375061,433.224579 1397.679504,433.224579 1370.883240Z" style="stroke:rgb(25.500488%,41.000366%,88.400269%); stroke-width: 2.500000;stroke-linecap: round;stroke-linejoin: round;stroke-miterlimit: 10.000000;fill: none;"></path>
  <path d="M417.575562 1178.293823C417.575562 1151.497559,406.929199 1125.802002,387.982819 1106.855621C369.036438 1087.909241,343.340881 1077.262878,316.544617 1077.262878C289.748352 1077.262878,264.052795 1087.909241,245.106415 1106.855621C226.160034 1125.802002,215.513672 1151.497559,215.513672 1178.293823C215.513672 1205.090088,226.160034 1230.785645,245.106415 1249.732025C264.052795 1268.678406,289.748352 1279.324768,316.544617 1279.324768C343.340881 1279.324768,369.036438 1268.678406,387.982819 1249.732025C406.929199 1230.785645,417.575562 1205.090088,417.575562 1178.293823Z" style="stroke:rgb(25.500488%,41.000366%,88.400269%); stroke-width: 2.500000;stroke-linecap: round;stroke-linejoin: round;stroke-miterlimit: 10.000000;fill: none;"></path>
  <path d="M365.464035 994.943283C365.464035 968.147018,354.817673 942.451462,335.871292 923.505081C316.924911 904.558701,291.229355 893.912338,264.433090 893.912338C237.636826 893.912338,211.941269 904.558701,192.994888 923.505081C174.048508 942.451462,163.402145 968.147018,163.402145 994.943283C163.402145 1021.739548,174.048508 1047.435104,192.994888 1066.381485C211.941269 1085.327866,237.636826 1095.974228,264.433090 1095.974228C291.229355 1095.974228,316.924911 1085.327866,335.871292 1066.381485C354.817673 1047.435104,365.464035 1021.739548,365.464035 994.943283Z" style="stroke:rgb(25.500488%,41.000366%,88.400269%); stroke-width: 2.500000;stroke-linecap: round;stroke-linejoin: round;stroke-miterlimit: 10.000000;fill: none;"></path>
  <path d="M278.486084 822.349838C278.486084 795.553574,267.839722 769.858017,248.893341 750.911636C229.946960 731.965256,204.251404 721.318893,177.455139 721.318893C150.658875 721.318893,124.963318 731.965256,106.016937 750.911636C87.070557 769.858017,76.424194 795.553574,76.424194 822.349838C76.424194 849.146103,87.070557 874.841660,106.016937 893.788040C124.963318 912.734421,150.658875 923.380783,177.455139 923.380783C204.251404 923.380783,229.946960 912.734421,248.893341 893.788040C267.839722 874.841660,278.486084 849.146103,278.486084 822.349838Z" style="stroke:rgb(25.500488%,41.000366%,88.400269%); stroke-width: 2.500000;stroke-linecap: round;stroke-linejoin: round;stroke-miterlimit: 10.000000;fill: none;"></path>
  <path d="M247.810867 662.563675C247.810867 635.767410,237.164505 610.071854,218.218124 591.125473C199.271744 572.179092,173.576187 561.532730,146.779922 561.532730C119.983658 561.532730,94.288101 572.179092,75.341721 591.125473C56.395340 610.071854,45.748978 635.767410,45.748978 662.563675C45.748978 689.359940,56.395340 715.055496,75.341721 734.001877C94.288101 752.948257,119.983658 763.594620,146.779922 763.594620C173.576187 763.594620,199.271744 752.948257,218.218124 734.001877C237.164505 715.055496,247.810867 689.359940,247.810867 662.563675Z" style="stroke:rgb(25.500488%,41.000366%,88.400269%); stroke-width: 2.500000;stroke-linecap: round;stroke-linejoin: round;stroke-miterlimit: 10.000000;fill: none;"></path>
  <path d="M302.478653 1303.447098C302.478653 1276.650833,291.832291 1250.955276,272.885910 1232.008896C253.939529 1213.062515,228.243973 1202.416153,201.447708 1202.416153C174.651443 1202.416153,148.955887 1213.062515,130.009506 1232.008896C111.063126 1250.955276,100.416763 1276.650833,100.416763 1303.447098C100.416763 1330.243362,111.063126 1355.938919,130.009506 1374.885300C148.955887 1393.831680,174.651443 1404.478043,201.447708 1404.478043C228.243973 1404.478043,253.939529 1393.831680,272.885910 1374.885300C291.832291 1355.938919,302.478653 1330.243362,302.478653 1303.447098Z" style="stroke:rgb(25.500488%,41.000366%,88.400269%); stroke-width: 2.500000;stroke-linecap: round;stroke-linejoin: round;stroke-miterlimit: 10.000000;fill: none;"></path>
  <path d="M261.513504 1121.407135C261.513504 1094.610870,250.867142 1068.915314,231.920761 1049.968933C212.974380 1031.022552,187.278824 1020.376190,160.482559 1020.376190C133.686295 1020.376190,107.990738 1031.022552,89.044357 1049.968933C70.097977 1068.915314,59.451614 1094.610870,59.451614 1121.407135C59.451614 1148.203400,70.097977 1173.898956,89.044357 1192.845337C107.990738 1211.791718,133.686295 1222.438080,160.482559 1222.438080C187.278824 1222.438080,212.974380 1211.791718,231.920761 1192.845337C250.867142 1173.898956,261.513504 1148.203400,261.513504 1121.407135Z" style="stroke:rgb(25.500488%,41.000366%,88.400269%); stroke-width: 2.500000;stroke-linecap: round;stroke-linejoin: round;stroke-miterlimit: 10.000000;fill: none;"></path>
  <path d="M202.926971 943.052353C202.926971 916.256088,192.280609 890.560532,173.334229 871.614151C154.387848 852.667770,128.692291 842.021408,101.896027 842.021408C75.099762 842.021408,49.404205 852.667770,30.457825 871.614151C11.511444 890.560532,0.865082 916.256088,0.865082 943.052353C0.865082 969.848618,11.511444 995.544174,30.457825 1014.490555C49.404205 1033.436935,75.099762 1044.083298,101.896027 1044.083298C128.692291 1044.083298,154.387848 1033.436935,173.334229 1014.490555C192.280609 995.544174,202.926971 969.848618,202.926971 943.052353Z" style="stroke:rgb(25.500488%,41.000366%,88.400269%); stroke-width: 2.500000;stroke-linecap: round;stroke-linejoin: round;stroke-miterlimit: 10.000000;fill: none;"></path>
</svg>
