<?xml version="1.0"?>
<!-- Created by MetaPost 2.00 on 2022.03.02:1201 -->
<svg version="1.1" xmlns="http://www.w3.org/2000/svg" xmlns:xlink="http://www.w3.org/1999/xlink" width="1706.777588" height="1703.909897" viewBox="0 0 1706.777588 1703.909897">
<!-- Original BoundingBox: -853.563965 -851.695435 853.213623 852.214462 -->
  <path d="M1703.393524 852.000000L853.000000 1.606476L2.606476 852.000000L853.000000 1702.393524L1703.393524 852.000000Z" style="fill: rgb(100.000000%,100.000000%,100.000000%);stroke: none;"></path>
  <path d="M1703.393524 852.000000L853.000000 1.606476" style="stroke:rgb(0.000000%,0.000000%,0.000000%); stroke-width: 2.500000;stroke-linecap: round;stroke-linejoin: round;stroke-miterlimit: 10.000000;fill: none;"></path>
  <path d="M853.000000 1.606476L2.606476 852.000000" style="stroke:rgb(0.000000%,0.000000%,0.000000%); stroke-width: 2.500000;stroke-linecap: round;stroke-linejoin: round;stroke-miterlimit: 10.000000;fill: none;"></path>
  <path d="M2.606476 852.000000L853.000000 1702.393524" style="stroke:rgb(0.000000%,0.000000%,0.000000%); stroke-width: 2.500000;stroke-linecap: round;stroke-linejoin: round;stroke-miterlimit: 10.000000;fill: none;"></path>
  <path d="M853.000000 1702.393524L1703.393524 852.000000" style="stroke:rgb(0.000000%,0.000000%,0.000000%); stroke-width: 2.500000;stroke-linecap: round;stroke-linejoin: round;stroke-miterlimit: 10.000000;fill: none;"></path>
  <path d="M1704.963623 833.145905C1704.963623 803.035385,1693.000488 774.161713,1671.710739 752.871979C1650.421005 731.582230,1621.547333 719.619095,1591.436813 719.619095C1561.326294 719.619095,1532.452621 731.582230,1511.162888 752.871979C1489.873138 774.161713,1477.910004 803.035385,1477.910004 833.145905C1477.910004 863.256424,1489.873138 892.130096,1511.162888 913.419830C1532.452621 934.709579,1561.326294 946.672714,1591.436813 946.672714C1621.547333 946.672714,1650.421005 934.709579,1671.710739 913.419830C1693.000488 892.130096,1704.963623 863.256424,1704.963623 833.145905Z" style="stroke:rgb(25.500488%,41.000366%,88.400269%); stroke-width: 2.500000;stroke-linecap: round;stroke-linejoin: round;stroke-miterlimit: 10.000000;fill: none;"></path>
  <path d="M1610.459595 951.564667C1610.459595 921.454147,1598.496460 892.580475,1577.206711 871.290741C1555.916977 850.000992,1527.043304 838.037857,1496.932785 838.037857C1466.822266 838.037857,1437.948593 850.000992,1416.658859 871.290741C1395.369110 892.580475,1383.405975 921.454147,1383.405975 951.564667C1383.405975 981.675186,1395.369110 1010.548859,1416.658859 1031.838593C1437.948593 1053.128342,1466.822266 1065.091476,1496.932785 1065.091476C1527.043304 1065.091476,1555.916977 1053.128342,1577.206711 1031.838593C1598.496460 1010.548859,1610.459595 981.675186,1610.459595 951.564667Z" style="stroke:rgb(25.500488%,41.000366%,88.400269%); stroke-width: 2.500000;stroke-linecap: round;stroke-linejoin: round;stroke-miterlimit: 10.000000;fill: none;"></path>
  <path d="M1575.087082 745.000107C1575.087082 714.889587,1563.123947 686.015915,1541.834198 664.726181C1520.544464 643.436432,1491.670792 631.473297,1461.560272 631.473297C1431.449753 631.473297,1402.576080 643.436432,1381.286346 664.726181C1359.996597 686.015915,1348.033463 714.889587,1348.033463 745.000107C1348.033463 775.110626,1359.996597 803.984299,1381.286346 825.274033C1402.576080 846.563782,1431.449753 858.526917,1461.560272 858.526917C1491.670792 858.526917,1520.544464 846.563782,1541.834198 825.274033C1563.123947 803.984299,1575.087082 775.110626,1575.087082 745.000107Z" style="stroke:rgb(25.500488%,41.000366%,88.400269%); stroke-width: 2.500000;stroke-linecap: round;stroke-linejoin: round;stroke-miterlimit: 10.000000;fill: none;"></path>
  <path d="M1513.399292 559.313904C1513.399292 529.203384,1501.436157 500.329712,1480.146408 479.039978C1458.856674 457.750229,1429.983002 445.787094,1399.872482 445.787094C1369.761963 445.787094,1340.888290 457.750229,1319.598557 479.039978C1298.308807 500.329712,1286.345673 529.203384,1286.345673 559.313904C1286.345673 589.424423,1298.308807 618.298096,1319.598557 639.587830C1340.888290 660.877579,1369.761963 672.840714,1399.872482 672.840714C1429.983002 672.840714,1458.856674 660.877579,1480.146408 639.587830C1501.436157 618.298096,1513.399292 589.424423,1513.399292 559.313904Z" style="stroke:rgb(25.500488%,41.000366%,88.400269%); stroke-width: 2.500000;stroke-linecap: round;stroke-linejoin: round;stroke-miterlimit: 10.000000;fill: none;"></path>
  <path d="M1491.664536 1081.376312C1491.664536 1051.265793,1479.701401 1022.392120,1458.411652 1001.102386C1437.121918 979.812637,1408.248245 967.849503,1378.137726 967.849503C1348.027206 967.849503,1319.153534 979.812637,1297.863800 1001.102386C1276.574051 1022.392120,1264.610916 1051.265793,1264.610916 1081.376312C1264.610916 1111.486832,1276.574051 1140.360504,1297.863800 1161.650238C1319.153534 1182.939987,1348.027206 1194.903122,1378.137726 1194.903122C1408.248245 1194.903122,1437.121918 1182.939987,1458.411652 1161.650238C1479.701401 1140.360504,1491.664536 1111.486832,1491.664536 1081.376312Z" style="stroke:rgb(25.500488%,41.000366%,88.400269%); stroke-width: 2.500000;stroke-linecap: round;stroke-linejoin: round;stroke-miterlimit: 10.000000;fill: none;"></path>
  <path d="M1439.124817 881.520340C1439.124817 851.409821,1427.161682 822.536148,1405.871933 801.246414C1384.582199 779.956665,1355.708527 767.993530,1325.598007 767.993530C1295.487488 767.993530,1266.613815 779.956665,1245.324081 801.246414C1224.034332 822.536148,1212.071198 851.409821,1212.071198 881.520340C1212.071198 911.630859,1224.034332 940.504532,1245.324081 961.794266C1266.613815 983.084015,1295.487488 995.047150,1325.598007 995.047150C1355.708527 995.047150,1384.582199 983.084015,1405.871933 961.794266C1427.161682 940.504532,1439.124817 911.630859,1439.124817 881.520340Z" style="stroke:rgb(25.500488%,41.000366%,88.400269%); stroke-width: 2.500000;stroke-linecap: round;stroke-linejoin: round;stroke-miterlimit: 10.000000;fill: none;"></path>
  <path d="M1387.181976 687.750107C1387.181976 657.639587,1375.218842 628.765915,1353.929092 607.476181C1332.639359 586.186432,1303.765686 574.223297,1273.655167 574.223297C1243.544647 574.223297,1214.670975 586.186432,1193.381241 607.476181C1172.091492 628.765915,1160.128357 657.639587,1160.128357 687.750107C1160.128357 717.860626,1172.091492 746.734299,1193.381241 768.024033C1214.670975 789.313782,1243.544647 801.276917,1273.655167 801.276917C1303.765686 801.276917,1332.639359 789.313782,1353.929092 768.024033C1375.218842 746.734299,1387.181976 717.860626,1387.181976 687.750107Z" style="stroke:rgb(25.500488%,41.000366%,88.400269%); stroke-width: 2.500000;stroke-linecap: round;stroke-linejoin: round;stroke-miterlimit: 10.000000;fill: none;"></path>
  <path d="M1326.272751 489.542084C1326.272751 459.431564,1314.309616 430.557892,1293.019867 409.268158C1271.730133 387.978409,1242.856461 376.015274,1212.745941 376.015274C1182.635422 376.015274,1153.761749 387.978409,1132.472015 409.268158C1111.182266 430.557892,1099.219131 459.431564,1099.219131 489.542084C1099.219131 519.652603,1111.182266 548.526276,1132.472015 569.816010C1153.761749 591.105759,1182.635422 603.068893,1212.745941 603.068893C1242.856461 603.068893,1271.730133 591.105759,1293.019867 569.816010C1314.309616 548.526276,1326.272751 519.652603,1326.272751 489.542084Z" style="stroke:rgb(25.500488%,41.000366%,88.400269%); stroke-width: 2.500000;stroke-linecap: round;stroke-linejoin: round;stroke-miterlimit: 10.000000;fill: none;"></path>
  <path d="M1254.554535 304.725266C1254.554535 274.614746,1242.591400 245.741074,1221.301651 224.451340C1200.011917 203.161591,1171.138245 191.198456,1141.027725 191.198456C1110.917206 191.198456,1082.043533 203.161591,1060.753799 224.451340C1039.464050 245.741074,1027.500916 274.614746,1027.500916 304.725266C1027.500916 334.835785,1039.464050 363.709457,1060.753799 384.999191C1082.043533 406.288940,1110.917206 418.252075,1141.027725 418.252075C1171.138245 418.252075,1200.011917 406.288940,1221.301651 384.999191C1242.591400 363.709457,1254.554535 334.835785,1254.554535 304.725266Z" style="stroke:rgb(25.500488%,41.000366%,88.400269%); stroke-width: 2.500000;stroke-linecap: round;stroke-linejoin: round;stroke-miterlimit: 10.000000;fill: none;"></path>
  <path d="M1363.656540 1214.860184C1363.656540 1184.749664,1351.693405 1155.875992,1330.403656 1134.586258C1309.113922 1113.296509,1280.240250 1101.333374,1250.129730 1101.333374C1220.019211 1101.333374,1191.145538 1113.296509,1169.855804 1134.586258C1148.566055 1155.875992,1136.602921 1184.749664,1136.602921 1214.860184C1136.602921 1244.970703,1148.566055 1273.844376,1169.855804 1295.134109C1191.145538 1316.423859,1220.019211 1328.386993,1250.129730 1328.386993C1280.240250 1328.386993,1309.113922 1316.423859,1330.403656 1295.134109C1351.693405 1273.844376,1363.656540 1244.970703,1363.656540 1214.860184Z" style="stroke:rgb(25.500488%,41.000366%,88.400269%); stroke-width: 2.500000;stroke-linecap: round;stroke-linejoin: round;stroke-miterlimit: 10.000000;fill: none;"></path>
  <path d="M1311.025986 1025.748306C1311.025986 995.637787,1299.062851 966.764114,1277.773102 945.474380C1256.483368 924.184631,1227.609695 912.221497,1197.499176 912.221497C1167.388657 912.221497,1138.514984 924.184631,1117.225250 945.474380C1095.935501 966.764114,1083.972366 995.637787,1083.972366 1025.748306C1083.972366 1055.858826,1095.935501 1084.732498,1117.225250 1106.022232C1138.514984 1127.311981,1167.388657 1139.275116,1197.499176 1139.275116C1227.609695 1139.275116,1256.483368 1127.311981,1277.773102 1106.022232C1299.062851 1084.732498,1311.025986 1055.858826,1311.025986 1025.748306Z" style="stroke:rgb(25.500488%,41.000366%,88.400269%); stroke-width: 2.500000;stroke-linecap: round;stroke-linejoin: round;stroke-miterlimit: 10.000000;fill: none;"></path>
  <path d="M1255.372025 828.539444C1255.372025 798.428925,1243.408890 769.555252,1222.119141 748.265518C1200.829407 726.975769,1171.955734 715.012634,1141.845215 715.012634C1111.734695 715.012634,1082.861023 726.975769,1061.571289 748.265518C1040.281540 769.555252,1028.318405 798.428925,1028.318405 828.539444C1028.318405 858.649963,1040.281540 887.523636,1061.571289 908.813370C1082.861023 930.103119,1111.734695 942.066254,1141.845215 942.066254C1171.955734 942.066254,1200.829407 930.103119,1222.119141 908.813370C1243.408890 887.523636,1255.372025 858.649963,1255.372025 828.539444Z" style="stroke:rgb(25.500488%,41.000366%,88.400269%); stroke-width: 2.500000;stroke-linecap: round;stroke-linejoin: round;stroke-miterlimit: 10.000000;fill: none;"></path>
  <path d="M1202.832291 631.693893C1202.832291 601.583374,1190.869156 572.709702,1169.579407 551.419968C1148.289673 530.130219,1119.416000 518.167084,1089.305481 518.167084C1059.194962 518.167084,1030.321289 530.130219,1009.031555 551.419968C987.741806 572.709702,975.778671 601.583374,975.778671 631.693893C975.778671 661.804413,987.741806 690.678085,1009.031555 711.967819C1030.321289 733.257568,1059.194962 745.220703,1089.305481 745.220703C1119.416000 745.220703,1148.289673 733.257568,1169.579407 711.967819C1190.869156 690.678085,1202.832291 661.804413,1202.832291 631.693893Z" style="stroke:rgb(25.500488%,41.000366%,88.400269%); stroke-width: 2.500000;stroke-linecap: round;stroke-linejoin: round;stroke-miterlimit: 10.000000;fill: none;"></path>
  <path d="M1136.525070 438.520538C1136.525070 408.410019,1124.561935 379.536346,1103.272186 358.246613C1081.982452 336.956863,1053.108780 324.993729,1022.998260 324.993729C992.887741 324.993729,964.014069 336.956863,942.724335 358.246613C921.434586 379.536346,909.471451 408.410019,909.471451 438.520538C909.471451 468.631058,921.434586 497.504730,942.724335 518.794464C964.014069 540.084213,992.887741 552.047348,1022.998260 552.047348C1053.108780 552.047348,1081.982452 540.084213,1103.272186 518.794464C1124.561935 497.504730,1136.525070 468.631058,1136.525070 438.520538Z" style="stroke:rgb(25.500488%,41.000366%,88.400269%); stroke-width: 2.500000;stroke-linecap: round;stroke-linejoin: round;stroke-miterlimit: 10.000000;fill: none;"></path>
  <path d="M1070.490326 237.691376C1070.490326 207.580856,1058.527191 178.707184,1037.237442 157.417450C1015.947708 136.127701,987.074036 124.164566,956.963516 124.164566C926.852997 124.164566,897.979324 136.127701,876.689590 157.417450C855.399841 178.707184,843.436707 207.580856,843.436707 237.691376C843.436707 267.801895,855.399841 296.675568,876.689590 317.965302C897.979324 339.255051,926.852997 351.218185,956.963516 351.218185C987.074036 351.218185,1015.947708 339.255051,1037.237442 317.965302C1058.527191 296.675568,1070.490326 267.801895,1070.490326 237.691376Z" style="stroke:rgb(25.500488%,41.000366%,88.400269%); stroke-width: 2.500000;stroke-linecap: round;stroke-linejoin: round;stroke-miterlimit: 10.000000;fill: none;"></path>
  <path d="M977.971619 114.562347C977.971619 84.451828,966.008484 55.578156,944.718735 34.288422C923.429001 12.998672,894.555328 1.035538,864.444809 1.035538C834.334290 1.035538,805.460617 12.998672,784.170883 34.288422C762.881134 55.578156,750.917999 84.451828,750.917999 114.562347C750.917999 144.672867,762.881134 173.546539,784.170883 194.836273C805.460617 216.126022,834.334290 228.089157,864.444809 228.089157C894.555328 228.089157,923.429001 216.126022,944.718735 194.836273C966.008484 173.546539,977.971619 144.672867,977.971619 114.562347Z" style="stroke:rgb(25.500488%,41.000366%,88.400269%); stroke-width: 2.500000;stroke-linecap: round;stroke-linejoin: round;stroke-miterlimit: 10.000000;fill: none;"></path>
  <path d="M1231.703842 1351.237671C1231.703842 1321.127151,1219.740707 1292.253479,1198.450958 1270.963745C1177.161224 1249.673996,1148.287552 1237.710861,1118.177032 1237.710861C1088.066513 1237.710861,1059.192841 1249.673996,1037.903107 1270.963745C1016.613358 1292.253479,1004.650223 1321.127151,1004.650223 1351.237671C1004.650223 1381.348190,1016.613358 1410.221863,1037.903107 1431.511597C1059.192841 1452.801346,1088.066513 1464.764481,1118.177032 1464.764481C1148.287552 1464.764481,1177.161224 1452.801346,1198.450958 1431.511597C1219.740707 1410.221863,1231.703842 1381.348190,1231.703842 1351.237671Z" style="stroke:rgb(25.500488%,41.000366%,88.400269%); stroke-width: 2.500000;stroke-linecap: round;stroke-linejoin: round;stroke-miterlimit: 10.000000;fill: none;"></path>
  <path d="M1174.544678 1171.196014C1174.544678 1141.085495,1162.581543 1112.211823,1141.291794 1090.922089C1120.002060 1069.632339,1091.128387 1057.669205,1061.017868 1057.669205C1030.907349 1057.669205,1002.033676 1069.632339,980.743942 1090.922089C959.454193 1112.211823,947.491058 1141.085495,947.491058 1171.196014C947.491058 1201.306534,959.454193 1230.180206,980.743942 1251.469940C1002.033676 1272.759689,1030.907349 1284.722824,1061.017868 1284.722824C1091.128387 1284.722824,1120.002060 1272.759689,1141.291794 1251.469940C1162.581543 1230.180206,1174.544678 1201.306534,1174.544678 1171.196014Z" style="stroke:rgb(25.500488%,41.000366%,88.400269%); stroke-width: 2.500000;stroke-linecap: round;stroke-linejoin: round;stroke-miterlimit: 10.000000;fill: none;"></path>
  <path d="M1128.311264 976.011398C1128.311264 945.900879,1116.348129 917.027206,1095.058380 895.737473C1073.768646 874.447723,1044.894974 862.484589,1014.784454 862.484589C984.673935 862.484589,955.800262 874.447723,934.510529 895.737473C913.220779 917.027206,901.257645 945.900879,901.257645 976.011398C901.257645 1006.121918,913.220779 1034.995590,934.510529 1056.285324C955.800262 1077.575073,984.673935 1089.538208,1014.784454 1089.538208C1044.894974 1089.538208,1073.768646 1077.575073,1095.058380 1056.285324C1116.348129 1034.995590,1128.311264 1006.121918,1128.311264 976.011398Z" style="stroke:rgb(25.500488%,41.000366%,88.400269%); stroke-width: 2.500000;stroke-linecap: round;stroke-linejoin: round;stroke-miterlimit: 10.000000;fill: none;"></path>
  <path d="M1072.851959 778.633835C1072.851959 748.523315,1060.888824 719.649643,1039.599075 698.359909C1018.309341 677.070160,989.435669 665.107025,959.325150 665.107025C929.214630 665.107025,900.340958 677.070160,879.051224 698.359909C857.761475 719.649643,845.798340 748.523315,845.798340 778.633835C845.798340 808.744354,857.761475 837.618027,879.051224 858.907761C900.340958 880.197510,929.214630 892.160645,959.325150 892.160645C989.435669 892.160645,1018.309341 880.197510,1039.599075 858.907761C1060.888824 837.618027,1072.851959 808.744354,1072.851959 778.633835Z" style="stroke:rgb(25.500488%,41.000366%,88.400269%); stroke-width: 2.500000;stroke-linecap: round;stroke-linejoin: round;stroke-miterlimit: 10.000000;fill: none;"></path>
  <path d="M1020.688538 581.450912C1020.688538 551.340393,1008.725403 522.466721,987.435654 501.176987C966.145920 479.887238,937.272247 467.924103,907.161728 467.924103C877.051208 467.924103,848.177536 479.887238,826.887802 501.176987C805.598053 522.466721,793.634918 551.340393,793.634918 581.450912C793.634918 611.561432,805.598053 640.435104,826.887802 661.724838C848.177536 683.014587,877.051208 694.977722,907.161728 694.977722C937.272247 694.977722,966.145920 683.014587,987.435654 661.724838C1008.725403 640.435104,1020.688538 611.561432,1020.688538 581.450912Z" style="stroke:rgb(25.500488%,41.000366%,88.400269%); stroke-width: 2.500000;stroke-linecap: round;stroke-linejoin: round;stroke-miterlimit: 10.000000;fill: none;"></path>
  <path d="M954.511063 380.621735C954.511063 350.511215,942.547928 321.637543,921.258179 300.347809C899.968445 279.058060,871.094772 267.094925,840.984253 267.094925C810.873734 267.094925,782.000061 279.058060,760.710327 300.347809C739.420578 321.637543,727.457443 350.511215,727.457443 380.621735C727.457443 410.732254,739.420578 439.605927,760.710327 460.895660C782.000061 482.185410,810.873734 494.148544,840.984253 494.148544C871.094772 494.148544,899.968445 482.185410,921.258179 460.895660C942.547928 439.605927,954.511063 410.732254,954.511063 380.621735Z" style="stroke:rgb(25.500488%,41.000366%,88.400269%); stroke-width: 2.500000;stroke-linecap: round;stroke-linejoin: round;stroke-miterlimit: 10.000000;fill: none;"></path>
  <path d="M859.293350 216.527557C859.293350 186.417038,847.330215 157.543365,826.040466 136.253632C804.750732 114.963882,775.877060 103.000748,745.766541 103.000748C715.656021 103.000748,686.782349 114.963882,665.492615 136.253632C644.202866 157.543365,632.239731 186.417038,632.239731 216.527557C632.239731 246.638077,644.202866 275.511749,665.492615 296.801483C686.782349 318.091232,715.656021 330.054367,745.766541 330.054367C775.877060 330.054367,804.750732 318.091232,826.040466 296.801483C847.330215 275.511749,859.293350 246.638077,859.293350 216.527557Z" style="stroke:rgb(25.500488%,41.000366%,88.400269%); stroke-width: 2.500000;stroke-linecap: round;stroke-linejoin: round;stroke-miterlimit: 10.000000;fill: none;"></path>
  <path d="M1094.872177 1480.595169C1094.872177 1450.484650,1082.909042 1421.610977,1061.619293 1400.321243C1040.329559 1379.031494,1011.455887 1367.068359,981.345367 1367.068359C951.234848 1367.068359,922.361176 1379.031494,901.071442 1400.321243C879.781693 1421.610977,867.818558 1450.484650,867.818558 1480.595169C867.818558 1510.705688,879.781693 1539.579361,901.071442 1560.869095C922.361176 1582.158844,951.234848 1594.121979,981.345367 1594.121979C1011.455887 1594.121979,1040.329559 1582.158844,1061.619293 1560.869095C1082.909042 1539.579361,1094.872177 1510.705688,1094.872177 1480.595169Z" style="stroke:rgb(25.500488%,41.000366%,88.400269%); stroke-width: 2.500000;stroke-linecap: round;stroke-linejoin: round;stroke-miterlimit: 10.000000;fill: none;"></path>
  <path d="M1037.025284 1320.834961C1037.025284 1290.724442,1025.062149 1261.850769,1003.772400 1240.561035C982.482666 1219.271286,953.608994 1207.308151,923.498474 1207.308151C893.387955 1207.308151,864.514282 1219.271286,843.224548 1240.561035C821.934799 1261.850769,809.971664 1290.724442,809.971664 1320.834961C809.971664 1350.945480,821.934799 1379.819153,843.224548 1401.108887C864.514282 1422.398636,893.387955 1434.361771,923.498474 1434.361771C953.608994 1434.361771,982.482666 1422.398636,1003.772400 1401.108887C1025.062149 1379.819153,1037.025284 1350.945480,1037.025284 1320.834961Z" style="stroke:rgb(25.500488%,41.000366%,88.400269%); stroke-width: 2.500000;stroke-linecap: round;stroke-linejoin: round;stroke-miterlimit: 10.000000;fill: none;"></path>
  <path d="M993.607666 1126.415924C993.607666 1096.305405,981.644531 1067.431732,960.354782 1046.141998C939.065048 1024.852249,910.191376 1012.889114,880.080856 1012.889114C849.970337 1012.889114,821.096664 1024.852249,799.806931 1046.141998C778.517181 1067.431732,766.554047 1096.305405,766.554047 1126.415924C766.554047 1156.526443,778.517181 1185.400116,799.806931 1206.689850C821.096664 1227.979599,849.970337 1239.942734,880.080856 1239.942734C910.191376 1239.942734,939.065048 1227.979599,960.354782 1206.689850C981.644531 1185.400116,993.607666 1156.526443,993.607666 1126.415924Z" style="stroke:rgb(25.500488%,41.000366%,88.400269%); stroke-width: 2.500000;stroke-linecap: round;stroke-linejoin: round;stroke-miterlimit: 10.000000;fill: none;"></path>
  <path d="M948.256638 932.879257C948.256638 902.768738,936.293503 873.895065,915.003754 852.605331C893.714020 831.315582,864.840347 819.352448,834.729828 819.352448C804.619308 819.352448,775.745636 831.315582,754.455902 852.605331C733.166153 873.895065,721.203018 902.768738,721.203018 932.879257C721.203018 962.989777,733.166153 991.863449,754.455902 1013.153183C775.745636 1034.442932,804.619308 1046.406067,834.729828 1046.406067C864.840347 1046.406067,893.714020 1034.442932,915.003754 1013.153183C936.293503 991.863449,948.256638 962.989777,948.256638 932.879257Z" style="stroke:rgb(25.500488%,41.000366%,88.400269%); stroke-width: 2.500000;stroke-linecap: round;stroke-linejoin: round;stroke-miterlimit: 10.000000;fill: none;"></path>
  <path d="M896.339752 732.517212C896.339752 702.406693,884.376617 673.533020,863.086868 652.243286C841.797134 630.953537,812.923462 618.990402,782.812943 618.990402C752.702423 618.990402,723.828751 630.953537,702.539017 652.243286C681.249268 673.533020,669.286133 702.406693,669.286133 732.517212C669.286133 762.627731,681.249268 791.501404,702.539017 812.791138C723.828751 834.080887,752.702423 846.044022,782.812943 846.044022C812.923462 846.044022,841.797134 834.080887,863.086868 812.791138C884.376617 791.501404,896.339752 762.627731,896.339752 732.517212Z" style="stroke:rgb(25.500488%,41.000366%,88.400269%); stroke-width: 2.500000;stroke-linecap: round;stroke-linejoin: round;stroke-miterlimit: 10.000000;fill: none;"></path>
  <path d="M841.646027 532.907791C841.646027 502.797272,829.682892 473.923599,808.393143 452.633865C787.103409 431.344116,758.229736 419.380981,728.119217 419.380981C698.008698 419.380981,669.135025 431.344116,647.845291 452.633865C626.555542 473.923599,614.592407 502.797272,614.592407 532.907791C614.592407 563.018311,626.555542 591.891983,647.845291 613.181717C669.135025 634.471466,698.008698 646.434601,728.119217 646.434601C758.229736 646.434601,787.103409 634.471466,808.393143 613.181717C829.682892 591.891983,841.646027 563.018311,841.646027 532.907791Z" style="stroke:rgb(25.500488%,41.000366%,88.400269%); stroke-width: 2.500000;stroke-linecap: round;stroke-linejoin: round;stroke-miterlimit: 10.000000;fill: none;"></path>
  <path d="M775.831879 331.767197C775.831879 301.656677,763.868744 272.783005,742.578995 251.493271C721.289261 230.203522,692.415588 218.240387,662.305069 218.240387C632.194550 218.240387,603.320877 230.203522,582.031143 251.493271C560.741394 272.783005,548.778259 301.656677,548.778259 331.767197C548.778259 361.877716,560.741394 390.751389,582.031143 412.041122C603.320877 433.330872,632.194550 445.294006,662.305069 445.294006C692.415588 445.294006,721.289261 433.330872,742.578995 412.041122C763.868744 390.751389,775.831879 361.877716,775.831879 331.767197Z" style="stroke:rgb(25.500488%,41.000366%,88.400269%); stroke-width: 2.500000;stroke-linecap: round;stroke-linejoin: round;stroke-miterlimit: 10.000000;fill: none;"></path>
  <path d="M962.841629 1588.918625C962.841629 1558.808105,950.878494 1529.934433,929.588745 1508.644699C908.299011 1487.354950,879.425339 1475.391815,849.314819 1475.391815C819.204300 1475.391815,790.330627 1487.354950,769.040894 1508.644699C747.751144 1529.934433,735.788010 1558.808105,735.788010 1588.918625C735.788010 1619.029144,747.751144 1647.902817,769.040894 1669.192551C790.330627 1690.482300,819.204300 1702.445435,849.314819 1702.445435C879.425339 1702.445435,908.299011 1690.482300,929.588745 1669.192551C950.878494 1647.902817,962.841629 1619.029144,962.841629 1588.918625Z" style="stroke:rgb(25.500488%,41.000366%,88.400269%); stroke-width: 2.500000;stroke-linecap: round;stroke-linejoin: round;stroke-miterlimit: 10.000000;fill: none;"></path>
  <path d="M895.989410 1481.711105C895.989410 1451.600586,884.026276 1422.726913,862.736526 1401.437180C841.446793 1380.147430,812.573120 1368.184296,782.462601 1368.184296C752.352081 1368.184296,723.478409 1380.147430,702.188675 1401.437180C680.898926 1422.726913,668.935791 1451.600586,668.935791 1481.711105C668.935791 1511.821625,680.898926 1540.695297,702.188675 1561.985031C723.478409 1583.274780,752.352081 1595.237915,782.462601 1595.237915C812.573120 1595.237915,841.446793 1583.274780,862.736526 1561.985031C884.026276 1540.695297,895.989410 1511.821625,895.989410 1481.711105Z" style="stroke:rgb(25.500488%,41.000366%,88.400269%); stroke-width: 2.500000;stroke-linecap: round;stroke-linejoin: round;stroke-miterlimit: 10.000000;fill: none;"></path>
  <path d="M863.004471 1290.847488C863.004471 1260.736969,851.041336 1231.863297,829.751587 1210.573563C808.461853 1189.283813,779.588181 1177.320679,749.477661 1177.320679C719.367142 1177.320679,690.493469 1189.283813,669.203735 1210.573563C647.913986 1231.863297,635.950851 1260.736969,635.950851 1290.847488C635.950851 1320.958008,647.913986 1349.831680,669.203735 1371.121414C690.493469 1392.411163,719.367142 1404.374298,749.477661 1404.374298C779.588181 1404.374298,808.461853 1392.411163,829.751587 1371.121414C851.041336 1349.831680,863.004471 1320.958008,863.004471 1290.847488Z" style="stroke:rgb(25.500488%,41.000366%,88.400269%); stroke-width: 2.500000;stroke-linecap: round;stroke-linejoin: round;stroke-miterlimit: 10.000000;fill: none;"></path>
  <path d="M824.154404 1106.809235C824.154404 1076.698715,812.191269 1047.825043,790.901520 1026.535309C769.611786 1005.245560,740.738113 993.282425,710.627594 993.282425C680.517075 993.282425,651.643402 1005.245560,630.353668 1026.535309C609.063919 1047.825043,597.100784 1076.698715,597.100784 1106.809235C597.100784 1136.919754,609.063919 1165.793427,630.353668 1187.083160C651.643402 1208.372910,680.517075 1220.336044,710.627594 1220.336044C740.738113 1220.336044,769.611786 1208.372910,790.901520 1187.083160C812.191269 1165.793427,824.154404 1136.919754,824.154404 1106.809235Z" style="stroke:rgb(25.500488%,41.000366%,88.400269%); stroke-width: 2.500000;stroke-linecap: round;stroke-linejoin: round;stroke-miterlimit: 10.000000;fill: none;"></path>
  <path d="M783.773178 909.055359C783.773178 878.944839,771.810043 850.071167,750.520294 828.781433C729.230560 807.491684,700.356888 795.528549,670.246368 795.528549C640.135849 795.528549,611.262177 807.491684,589.972443 828.781433C568.682693 850.071167,556.719559 878.944839,556.719559 909.055359C556.719559 939.165878,568.682693 968.039551,589.972443 989.329285C611.262177 1010.619034,640.135849 1022.582169,670.246368 1022.582169C700.356888 1022.582169,729.230560 1010.619034,750.520294 989.329285C771.810043 968.039551,783.773178 939.165878,783.773178 909.055359Z" style="stroke:rgb(25.500488%,41.000366%,88.400269%); stroke-width: 2.500000;stroke-linecap: round;stroke-linejoin: round;stroke-miterlimit: 10.000000;fill: none;"></path>
  <path d="M742.587433 724.264496C742.587433 694.153976,730.624298 665.280304,709.334549 643.990570C688.044815 622.700821,659.171143 610.737686,629.060623 610.737686C598.950104 610.737686,570.076431 622.700821,548.786697 643.990570C527.496948 665.280304,515.533813 694.153976,515.533813 724.264496C515.533813 754.375015,527.496948 783.248688,548.786697 804.538422C570.076431 825.828171,598.950104 837.791306,629.060623 837.791306C659.171143 837.791306,688.044815 825.828171,709.334549 804.538422C730.624298 783.248688,742.587433 754.375015,742.587433 724.264496Z" style="stroke:rgb(25.500488%,41.000366%,88.400269%); stroke-width: 2.500000;stroke-linecap: round;stroke-linejoin: round;stroke-miterlimit: 10.000000;fill: none;"></path>
  <path d="M696.341049 531.856735C696.341049 501.746216,684.377914 472.872543,663.088165 451.582809C641.798431 430.293060,612.924759 418.329926,582.814240 418.329926C552.703720 418.329926,523.830048 430.293060,502.540314 451.582809C481.250565 472.872543,469.287430 501.746216,469.287430 531.856735C469.287430 561.967255,481.250565 590.840927,502.540314 612.130661C523.830048 633.420410,552.703720 645.383545,582.814240 645.383545C612.924759 645.383545,641.798431 633.420410,663.088165 612.130661C684.377914 590.840927,696.341049 561.967255,696.341049 531.856735Z" style="stroke:rgb(25.500488%,41.000366%,88.400269%); stroke-width: 2.500000;stroke-linecap: round;stroke-linejoin: round;stroke-miterlimit: 10.000000;fill: none;"></path>
  <path d="M600.876801 394.583893C600.876801 364.473373,588.913666 335.599701,567.623917 314.309967C546.334183 293.020218,517.460510 281.057083,487.349991 281.057083C457.239471 281.057083,428.365799 293.020218,407.076065 314.309967C385.786316 335.599701,373.823181 364.473373,373.823181 394.583893C373.823181 424.694412,385.786316 453.568085,407.076065 474.857819C428.365799 496.147568,457.239471 508.110703,487.349991 508.110703C517.460510 508.110703,546.334183 496.147568,567.623917 474.857819C588.913666 453.568085,600.876801 424.694412,600.876801 394.583893Z" style="stroke:rgb(25.500488%,41.000366%,88.400269%); stroke-width: 2.500000;stroke-linecap: round;stroke-linejoin: round;stroke-miterlimit: 10.000000;fill: none;"></path>
  <path d="M717.595703 1442.990799C717.595703 1412.880280,705.632568 1384.006607,684.342819 1362.716873C663.053085 1341.427124,634.179413 1329.463989,604.068893 1329.463989C573.958374 1329.463989,545.084702 1341.427124,523.794968 1362.716873C502.505219 1384.006607,490.542084 1412.880280,490.542084 1442.990799C490.542084 1473.101318,502.505219 1501.974991,523.794968 1523.264725C545.084702 1544.554474,573.958374 1556.517609,604.068893 1556.517609C634.179413 1556.517609,663.053085 1544.554474,684.342819 1523.264725C705.632568 1501.974991,717.595703 1473.101318,717.595703 1442.990799Z" style="stroke:rgb(25.500488%,41.000366%,88.400269%); stroke-width: 2.500000;stroke-linecap: round;stroke-linejoin: round;stroke-miterlimit: 10.000000;fill: none;"></path>
  <path d="M681.353806 1265.751953C681.353806 1235.641434,669.390671 1206.767761,648.100922 1185.478027C626.811188 1164.188278,597.937515 1152.225143,567.826996 1152.225143C537.716476 1152.225143,508.842804 1164.188278,487.553070 1185.478027C466.263321 1206.767761,454.300186 1235.641434,454.300186 1265.751953C454.300186 1295.862473,466.263321 1324.736145,487.553070 1346.025879C508.842804 1367.315628,537.716476 1379.278763,567.826996 1379.278763C597.937515 1379.278763,626.811188 1367.315628,648.100922 1346.025879C669.390671 1324.736145,681.353806 1295.862473,681.353806 1265.751953Z" style="stroke:rgb(25.500488%,41.000366%,88.400269%); stroke-width: 2.500000;stroke-linecap: round;stroke-linejoin: round;stroke-miterlimit: 10.000000;fill: none;"></path>
  <path d="M653.014267 1072.124451C653.014267 1042.013931,641.051132 1013.140259,619.761383 991.850525C598.471649 970.560776,569.597977 958.597641,539.487457 958.597641C509.376938 958.597641,480.503265 970.560776,459.213531 991.850525C437.923782 1013.140259,425.960648 1042.013931,425.960648 1072.124451C425.960648 1102.234970,437.923782 1131.108643,459.213531 1152.398376C480.503265 1173.688126,509.376938 1185.651260,539.487457 1185.651260C569.597977 1185.651260,598.471649 1173.688126,619.761383 1152.398376C641.051132 1131.108643,653.014267 1102.234970,653.014267 1072.124451Z" style="stroke:rgb(25.500488%,41.000366%,88.400269%); stroke-width: 2.500000;stroke-linecap: round;stroke-linejoin: round;stroke-miterlimit: 10.000000;fill: none;"></path>
  <path d="M609.233322 895.742020C609.233322 865.631500,597.270187 836.757828,575.980438 815.468094C554.690704 794.178345,525.817032 782.215210,495.706512 782.215210C465.595993 782.215210,436.722321 794.178345,415.432587 815.468094C394.142838 836.757828,382.179703 865.631500,382.179703 895.742020C382.179703 925.852539,394.142838 954.726212,415.432587 976.015945C436.722321 997.305695,465.595993 1009.268829,495.706512 1009.268829C525.817032 1009.268829,554.690704 997.305695,575.980438 976.015945C597.270187 954.726212,609.233322 925.852539,609.233322 895.742020Z" style="stroke:rgb(25.500488%,41.000366%,88.400269%); stroke-width: 2.500000;stroke-linecap: round;stroke-linejoin: round;stroke-miterlimit: 10.000000;fill: none;"></path>
  <path d="M572.550247 706.526337C572.550247 676.415817,560.587112 647.542145,539.297363 626.252411C518.007629 604.962662,489.133957 592.999527,459.023438 592.999527C428.912918 592.999527,400.039246 604.962662,378.749512 626.252411C357.459763 647.542145,345.496628 676.415817,345.496628 706.526337C345.496628 736.636856,357.459763 765.510529,378.749512 786.800262C400.039246 808.090012,428.912918 820.053146,459.023438 820.053146C489.133957 820.053146,518.007629 808.090012,539.297363 786.800262C560.587112 765.510529,572.550247 736.636856,572.550247 706.526337Z" style="stroke:rgb(25.500488%,41.000366%,88.400269%); stroke-width: 2.500000;stroke-linecap: round;stroke-linejoin: round;stroke-miterlimit: 10.000000;fill: none;"></path>
  <path d="M492.760971 572.523438C492.760971 542.412918,480.797836 513.539246,459.508087 492.249512C438.218353 470.959763,409.344681 458.996628,379.234161 458.996628C349.123642 458.996628,320.249969 470.959763,298.960236 492.249512C277.670486 513.539246,265.707352 542.412918,265.707352 572.523438C265.707352 602.633957,277.670486 631.507629,298.960236 652.797363C320.249969 674.087112,349.123642 686.050247,379.234161 686.050247C409.344681 686.050247,438.218353 674.087112,459.508087 652.797363C480.797836 631.507629,492.760971 602.633957,492.760971 572.523438Z" style="stroke:rgb(25.500488%,41.000366%,88.400269%); stroke-width: 2.500000;stroke-linecap: round;stroke-linejoin: round;stroke-miterlimit: 10.000000;fill: none;"></path>
  <path d="M507.826080 1226.369873C507.826080 1196.259354,495.862946 1167.385681,474.573196 1146.095947C453.283463 1124.806198,424.409790 1112.843063,394.299271 1112.843063C364.188751 1112.843063,335.315079 1124.806198,314.025345 1146.095947C292.735596 1167.385681,280.772461 1196.259354,280.772461 1226.369873C280.772461 1256.480392,292.735596 1285.354065,314.025345 1306.643799C335.315079 1327.933548,364.188751 1339.896683,394.299271 1339.896683C424.409790 1339.896683,453.283463 1327.933548,474.573196 1306.643799C495.862946 1285.354065,507.826080 1256.480392,507.826080 1226.369873Z" style="stroke:rgb(25.500488%,41.000366%,88.400269%); stroke-width: 2.500000;stroke-linecap: round;stroke-linejoin: round;stroke-miterlimit: 10.000000;fill: none;"></path>
  <path d="M463.188721 1050.480515C463.188721 1020.369995,451.225586 991.496323,429.935837 970.206589C408.646103 948.916840,379.772430 936.953705,349.661911 936.953705C319.551392 936.953705,290.677719 948.916840,269.387985 970.206589C248.098236 991.496323,236.135101 1020.369995,236.135101 1050.480515C236.135101 1080.591034,248.098236 1109.464706,269.387985 1130.754440C290.677719 1152.044189,319.551392 1164.007324,349.661911 1164.007324C379.772430 1164.007324,408.646103 1152.044189,429.935837 1130.754440C451.225586 1109.464706,463.188721 1080.591034,463.188721 1050.480515Z" style="stroke:rgb(25.500488%,41.000366%,88.400269%); stroke-width: 2.500000;stroke-linecap: round;stroke-linejoin: round;stroke-miterlimit: 10.000000;fill: none;"></path>
  <path d="M440.493744 854.154007C440.493744 824.043488,428.530609 795.169815,407.240860 773.880081C385.951126 752.590332,357.077454 740.627197,326.966934 740.627197C296.856415 740.627197,267.982742 752.590332,246.693008 773.880081C225.403259 795.169815,213.440125 824.043488,213.440125 854.154007C213.440125 884.264526,225.403259 913.138199,246.693008 934.427933C267.982742 955.717682,296.856415 967.680817,326.966934 967.680817C357.077454 967.680817,385.951126 955.717682,407.240860 934.427933C428.530609 913.138199,440.493744 884.264526,440.493744 854.154007Z" style="stroke:rgb(25.500488%,41.000366%,88.400269%); stroke-width: 2.500000;stroke-linecap: round;stroke-linejoin: round;stroke-miterlimit: 10.000000;fill: none;"></path>
  <path d="M360.354126 699.636093C360.354126 669.525574,348.390991 640.651901,327.101242 619.362167C305.811508 598.072418,276.937836 586.109283,246.827316 586.109283C216.716797 586.109283,187.843124 598.072418,166.553391 619.362167C145.263641 640.651901,133.300507 669.525574,133.300507 699.636093C133.300507 729.746613,145.263641 758.620285,166.553391 779.910019C187.843124 801.199768,216.716797 813.162903,246.827316 813.162903C276.937836 813.162903,305.811508 801.199768,327.101242 779.910019C348.390991 758.620285,360.354126 729.746613,360.354126 699.636093Z" style="stroke:rgb(25.500488%,41.000366%,88.400269%); stroke-width: 2.500000;stroke-linecap: round;stroke-linejoin: round;stroke-miterlimit: 10.000000;fill: none;"></path>
  <path d="M309.202820 992.010773C309.202820 961.900253,297.239685 933.026581,275.949936 911.736847C254.660202 890.447098,225.786530 878.483963,195.676010 878.483963C165.565491 878.483963,136.691818 890.447098,115.402084 911.736847C94.112335 933.026581,82.149200 961.900253,82.149200 992.010773C82.149200 1022.121292,94.112335 1050.994965,115.402084 1072.284698C136.691818 1093.574448,165.565491 1105.537582,195.676010 1105.537582C225.786530 1105.537582,254.660202 1093.574448,275.949936 1072.284698C297.239685 1050.994965,309.202820 1022.121292,309.202820 992.010773Z" style="stroke:rgb(25.500488%,41.000366%,88.400269%); stroke-width: 2.500000;stroke-linecap: round;stroke-linejoin: round;stroke-miterlimit: 10.000000;fill: none;"></path>
  <path d="M227.739655 831.160583C227.739655 801.050064,215.776520 772.176392,194.486771 750.886658C173.197037 729.596909,144.323364 717.633774,114.212845 717.633774C84.102325 717.633774,55.228653 729.596909,33.938919 750.886658C12.649170 772.176392,0.686035 801.050064,0.686035 831.160583C0.686035 861.271103,12.649170 890.144775,33.938919 911.434509C55.228653 932.724258,84.102325 944.687393,114.212845 944.687393C144.323364 944.687393,173.197037 932.724258,194.486771 911.434509C215.776520 890.144775,227.739655 861.271103,227.739655 831.160583Z" style="stroke:rgb(25.500488%,41.000366%,88.400269%); stroke-width: 2.500000;stroke-linecap: round;stroke-linejoin: round;stroke-miterlimit: 10.000000;fill: none;"></path>
</svg>
