<?xml version="1.0"?>
<!-- Created by MetaPost 2.00 on 2022.03.02:1201 -->
<svg version="1.1" xmlns="http://www.w3.org/2000/svg" xmlns:xlink="http://www.w3.org/1999/xlink" width="1844.608383" height="1825.468826" viewBox="0 0 1844.608383 1825.468826">
<!-- Original BoundingBox: -901.419357 -896.799911 943.189026 928.668915 -->
  <path d="M1751.393524 928.000000L1588.986221 428.152451L1163.789459 119.233398L638.210541 119.233398L213.013779 428.152451L50.606476 928.000000L213.013779 1427.847549L638.210541 1736.766602L1163.789459 1736.766602L1588.986221 1427.847549L1751.393524 928.000000Z" style="fill: rgb(100.000000%,100.000000%,100.000000%);stroke: none;"></path>
  <path d="M1751.393524 928.000000L1588.986221 428.152451" style="stroke:rgb(0.000000%,0.000000%,0.000000%); stroke-width: 2.500000;stroke-linecap: round;stroke-linejoin: round;stroke-miterlimit: 10.000000;fill: none;"></path>
  <path d="M1588.986221 428.152451L1163.789459 119.233398" style="stroke:rgb(0.000000%,0.000000%,0.000000%); stroke-width: 2.500000;stroke-linecap: round;stroke-linejoin: round;stroke-miterlimit: 10.000000;fill: none;"></path>
  <path d="M1163.789459 119.233398L638.210541 119.233398" style="stroke:rgb(0.000000%,0.000000%,0.000000%); stroke-width: 2.500000;stroke-linecap: round;stroke-linejoin: round;stroke-miterlimit: 10.000000;fill: none;"></path>
  <path d="M638.210541 119.233398L213.013779 428.152451" style="stroke:rgb(0.000000%,0.000000%,0.000000%); stroke-width: 2.500000;stroke-linecap: round;stroke-linejoin: round;stroke-miterlimit: 10.000000;fill: none;"></path>
  <path d="M213.013779 428.152451L50.606476 928.000000" style="stroke:rgb(0.000000%,0.000000%,0.000000%); stroke-width: 2.500000;stroke-linecap: round;stroke-linejoin: round;stroke-miterlimit: 10.000000;fill: none;"></path>
  <path d="M50.606476 928.000000L213.013779 1427.847549" style="stroke:rgb(0.000000%,0.000000%,0.000000%); stroke-width: 2.500000;stroke-linecap: round;stroke-linejoin: round;stroke-miterlimit: 10.000000;fill: none;"></path>
  <path d="M213.013779 1427.847549L638.210541 1736.766602" style="stroke:rgb(0.000000%,0.000000%,0.000000%); stroke-width: 2.500000;stroke-linecap: round;stroke-linejoin: round;stroke-miterlimit: 10.000000;fill: none;"></path>
  <path d="M638.210541 1736.766602L1163.789459 1736.766602" style="stroke:rgb(0.000000%,0.000000%,0.000000%); stroke-width: 2.500000;stroke-linecap: round;stroke-linejoin: round;stroke-miterlimit: 10.000000;fill: none;"></path>
  <path d="M1163.789459 1736.766602L1588.986221 1427.847549" style="stroke:rgb(0.000000%,0.000000%,0.000000%); stroke-width: 2.500000;stroke-linecap: round;stroke-linejoin: round;stroke-miterlimit: 10.000000;fill: none;"></path>
  <path d="M1588.986221 1427.847549L1751.393524 928.000000" style="stroke:rgb(0.000000%,0.000000%,0.000000%); stroke-width: 2.500000;stroke-linecap: round;stroke-linejoin: round;stroke-miterlimit: 10.000000;fill: none;"></path>
  <path d="M1082.183548 1499.046722C1082.183548 1412.979309,1047.988312 1330.447266,987.134064 1269.593018C926.279816 1208.738770,843.747772 1174.543533,757.680359 1174.543533C671.612946 1174.543533,589.080902 1208.738770,528.226654 1269.593018C467.372406 1330.447266,433.177170 1412.979309,433.177170 1499.046722C433.177170 1585.114136,467.372406 1667.646179,528.226654 1728.500427C589.080902 1789.354675,671.612946 1823.549911,757.680359 1823.549911C843.747772 1823.549911,926.279816 1789.354675,987.134064 1728.500427C1047.988312 1667.646179,1082.183548 1585.114136,1082.183548 1499.046722Z" style="stroke:rgb(25.500488%,41.000366%,88.400269%); stroke-width: 2.500000;stroke-linecap: round;stroke-linejoin: round;stroke-miterlimit: 10.000000;fill: none;"></path>
  <path d="M1496.597275 1476.286865C1496.597275 1390.219452,1462.402039 1307.687408,1401.547791 1246.833160C1340.693542 1185.978912,1258.161499 1151.783676,1172.094086 1151.783676C1086.026672 1151.783676,1003.494629 1185.978912,942.640381 1246.833160C881.786133 1307.687408,847.590897 1390.219452,847.590897 1476.286865C847.590897 1562.354279,881.786133 1644.886322,942.640381 1705.740570C1003.494629 1766.594818,1086.026672 1800.790054,1172.094086 1800.790054C1258.161499 1800.790054,1340.693542 1766.594818,1401.547791 1705.740570C1462.402039 1644.886322,1496.597275 1562.354279,1496.597275 1476.286865Z" style="stroke:rgb(25.500488%,41.000366%,88.400269%); stroke-width: 2.500000;stroke-linecap: round;stroke-linejoin: round;stroke-miterlimit: 10.000000;fill: none;"></path>
  <path d="M649.837021 917.437561C649.837021 831.370148,615.641785 748.838104,554.787537 687.983856C493.933289 627.129608,411.401245 592.934372,325.333832 592.934372C239.266418 592.934372,156.734375 627.129608,95.880127 687.983856C35.025879 748.838104,0.830643 831.370148,0.830643 917.437561C0.830643 1003.504974,35.025879 1086.037018,95.880127 1146.891266C156.734375 1207.745514,239.266418 1241.940750,325.333832 1241.940750C411.401245 1241.940750,493.933289 1207.745514,554.787537 1146.891266C615.641785 1086.037018,649.837021 1003.504974,649.837021 917.437561Z" style="stroke:rgb(25.500488%,41.000366%,88.400269%); stroke-width: 2.500000;stroke-linecap: round;stroke-linejoin: round;stroke-miterlimit: 10.000000;fill: none;"></path>
  <path d="M765.984970 1274.912704C765.984970 1188.845291,731.789734 1106.313248,670.935486 1045.459000C610.081238 984.604752,527.549194 950.409515,441.481781 950.409515C355.414368 950.409515,272.882324 984.604752,212.028076 1045.459000C151.173828 1106.313248,116.978592 1188.845291,116.978592 1274.912704C116.978592 1360.980118,151.173828 1443.512161,212.028076 1504.366409C272.882324 1565.220657,355.414368 1599.415894,441.481781 1599.415894C527.549194 1599.415894,610.081238 1565.220657,670.935486 1504.366409C731.789734 1443.512161,765.984970 1360.980118,765.984970 1274.912704Z" style="stroke:rgb(25.500488%,41.000366%,88.400269%); stroke-width: 2.500000;stroke-linecap: round;stroke-linejoin: round;stroke-miterlimit: 10.000000;fill: none;"></path>
  <path d="M1812.951553 1170.949188C1812.951553 1084.881775,1778.756317 1002.349731,1717.902069 941.495483C1657.047821 880.641235,1574.515778 846.445999,1488.448364 846.445999C1402.380951 846.445999,1319.848907 880.641235,1258.994659 941.495483C1198.140411 1002.349731,1163.945175 1084.881775,1163.945175 1170.949188C1163.945175 1257.016602,1198.140411 1339.548645,1258.994659 1400.402893C1319.848907 1461.257141,1402.380951 1495.452377,1488.448364 1495.452377C1574.515778 1495.452377,1657.047821 1461.257141,1717.902069 1400.402893C1778.756317 1339.548645,1812.951553 1257.016602,1812.951553 1170.949188Z" style="stroke:rgb(25.500488%,41.000366%,88.400269%); stroke-width: 2.500000;stroke-linecap: round;stroke-linejoin: round;stroke-miterlimit: 10.000000;fill: none;"></path>
  <path d="M773.900314 550.256378C773.900314 464.188965,739.705078 381.656921,678.850830 320.802673C617.996582 259.948425,535.464539 225.753189,449.397125 225.753189C363.329712 225.753189,280.797668 259.948425,219.943420 320.802673C159.089172 381.656921,124.893936 464.188965,124.893936 550.256378C124.893936 636.323792,159.089172 718.855835,219.943420 779.710083C280.797668 840.564331,363.329712 874.759567,449.397125 874.759567C535.464539 874.759567,617.996582 840.564331,678.850830 779.710083C739.705078 718.855835,773.900314 636.323792,773.900314 550.256378Z" style="stroke:rgb(25.500488%,41.000366%,88.400269%); stroke-width: 2.500000;stroke-linecap: round;stroke-linejoin: round;stroke-miterlimit: 10.000000;fill: none;"></path>
  <path d="M1268.129272 914.154633C1268.129272 828.087219,1233.934036 745.555176,1173.079788 684.700928C1112.225540 623.846680,1029.693497 589.651443,943.626083 589.651443C857.558670 589.651443,775.026627 623.846680,714.172379 684.700928C653.318130 745.555176,619.122894 828.087219,619.122894 914.154633C619.122894 1000.222046,653.318130 1082.754089,714.172379 1143.608337C775.026627 1204.462585,857.558670 1238.657822,943.626083 1238.657822C1029.693497 1238.657822,1112.225540 1204.462585,1173.079788 1143.608337C1233.934036 1082.754089,1268.129272 1000.222046,1268.129272 914.154633Z" style="stroke:rgb(25.500488%,41.000366%,88.400269%); stroke-width: 2.500000;stroke-linecap: round;stroke-linejoin: round;stroke-miterlimit: 10.000000;fill: none;"></path>
  <path d="M1842.939026 727.378448C1842.939026 641.311035,1808.743790 558.778992,1747.889542 497.924744C1687.035294 437.070496,1604.503250 402.875259,1518.435837 402.875259C1432.368423 402.875259,1349.836380 437.070496,1288.982132 497.924744C1228.127884 558.778992,1193.932648 641.311035,1193.932648 727.378448C1193.932648 813.445862,1228.127884 895.977905,1288.982132 956.832153C1349.836380 1017.686401,1432.368423 1051.881638,1518.435837 1051.881638C1604.503250 1051.881638,1687.035294 1017.686401,1747.889542 956.832153C1808.743790 895.977905,1842.939026 813.445862,1842.939026 727.378448Z" style="stroke:rgb(25.500488%,41.000366%,88.400269%); stroke-width: 2.500000;stroke-linecap: round;stroke-linejoin: round;stroke-miterlimit: 10.000000;fill: none;"></path>
  <path d="M1122.551804 325.084274C1122.551804 239.016861,1088.356567 156.484818,1027.502319 95.630569C966.648071 34.776321,884.116028 0.581085,798.048615 0.581085C711.981201 0.581085,629.449158 34.776321,568.594910 95.630569C507.740662 156.484818,473.545425 239.016861,473.545425 325.084274C473.545425 411.151688,507.740662 493.683731,568.594910 554.537979C629.449158 615.392227,711.981201 649.587463,798.048615 649.587463C884.116028 649.587463,966.648071 615.392227,1027.502319 554.537979C1088.356567 493.683731,1122.551804 411.151688,1122.551804 325.084274Z" style="stroke:rgb(25.500488%,41.000366%,88.400269%); stroke-width: 2.500000;stroke-linecap: round;stroke-linejoin: round;stroke-miterlimit: 10.000000;fill: none;"></path>
  <path d="M1557.960648 386.149216C1557.960648 300.081802,1523.765411 217.549759,1462.911163 156.695511C1402.056915 95.841263,1319.524872 61.646027,1233.457458 61.646027C1147.390045 61.646027,1064.858002 95.841263,1004.003754 156.695511C943.149506 217.549759,908.954269 300.081802,908.954269 386.149216C908.954269 472.216629,943.149506 554.748672,1004.003754 615.602921C1064.858002 676.457169,1147.390045 710.652405,1233.457458 710.652405C1319.524872 710.652405,1402.056915 676.457169,1462.911163 615.602921C1523.765411 554.748672,1557.960648 472.216629,1557.960648 386.149216Z" style="stroke:rgb(25.500488%,41.000366%,88.400269%); stroke-width: 2.500000;stroke-linecap: round;stroke-linejoin: round;stroke-miterlimit: 10.000000;fill: none;"></path>
</svg>
