<?xml version="1.0"?>
<!-- Created by MetaPost 2.00 on 2022.03.02:1201 -->
<svg version="1.1" xmlns="http://www.w3.org/2000/svg" xmlns:xlink="http://www.w3.org/1999/xlink" width="1805.044647" height="1890.076233" viewBox="0 0 1805.044647 1890.076233">
<!-- Original BoundingBox: -880.917328 -932.938019 924.127319 957.138214 -->
  <path d="M880.000000 106.606476L215.136978 426.788666L50.926010 1146.228653L511.028137 1723.179443L1248.971863 1723.179443L1709.073990 1146.228653L1544.863022 426.788666L880.000000 106.606476Z" style="fill: rgb(100.000000%,100.000000%,100.000000%);stroke: none;"></path>
  <path d="M880.000000 106.606476L215.136978 426.788666" style="stroke:rgb(0.000000%,0.000000%,0.000000%); stroke-width: 2.500000;stroke-linecap: round;stroke-linejoin: round;stroke-miterlimit: 10.000000;fill: none;"></path>
  <path d="M215.136978 426.788666L50.926010 1146.228653" style="stroke:rgb(0.000000%,0.000000%,0.000000%); stroke-width: 2.500000;stroke-linecap: round;stroke-linejoin: round;stroke-miterlimit: 10.000000;fill: none;"></path>
  <path d="M50.926010 1146.228653L511.028137 1723.179443" style="stroke:rgb(0.000000%,0.000000%,0.000000%); stroke-width: 2.500000;stroke-linecap: round;stroke-linejoin: round;stroke-miterlimit: 10.000000;fill: none;"></path>
  <path d="M511.028137 1723.179443L1248.971863 1723.179443" style="stroke:rgb(0.000000%,0.000000%,0.000000%); stroke-width: 2.500000;stroke-linecap: round;stroke-linejoin: round;stroke-miterlimit: 10.000000;fill: none;"></path>
  <path d="M1248.971863 1723.179443L1709.073990 1146.228653" style="stroke:rgb(0.000000%,0.000000%,0.000000%); stroke-width: 2.500000;stroke-linecap: round;stroke-linejoin: round;stroke-miterlimit: 10.000000;fill: none;"></path>
  <path d="M1709.073990 1146.228653L1544.863022 426.788666" style="stroke:rgb(0.000000%,0.000000%,0.000000%); stroke-width: 2.500000;stroke-linecap: round;stroke-linejoin: round;stroke-miterlimit: 10.000000;fill: none;"></path>
  <path d="M1544.863022 426.788666L880.000000 106.606476" style="stroke:rgb(0.000000%,0.000000%,0.000000%); stroke-width: 2.500000;stroke-linecap: round;stroke-linejoin: round;stroke-miterlimit: 10.000000;fill: none;"></path>
  <path d="M1802.877319 1185.221451C1802.877319 1128.376617,1780.292435 1073.866791,1740.100113 1033.674469C1699.907791 993.482147,1645.397964 970.897263,1588.553131 970.897263C1531.708298 970.897263,1477.198471 993.482147,1437.006149 1033.674469C1396.813828 1073.866791,1374.228943 1128.376617,1374.228943 1185.221451C1374.228943 1242.066284,1396.813828 1296.576111,1437.006149 1336.768433C1477.198471 1376.960754,1531.708298 1399.545639,1588.553131 1399.545639C1645.397964 1399.545639,1699.907791 1376.960754,1740.100113 1336.768433C1780.292435 1296.576111,1802.877319 1242.066284,1802.877319 1185.221451Z" style="stroke:rgb(25.500488%,41.000366%,88.400269%); stroke-width: 2.500000;stroke-linecap: round;stroke-linejoin: round;stroke-miterlimit: 10.000000;fill: none;"></path>
  <path d="M1721.479034 852.504471C1721.479034 795.659637,1698.894150 741.149811,1658.701828 700.957489C1618.509506 660.765167,1563.999680 638.180283,1507.154846 638.180283C1450.310013 638.180283,1395.800186 660.765167,1355.607864 700.957489C1315.415543 741.149811,1292.830658 795.659637,1292.830658 852.504471C1292.830658 909.349304,1315.415543 963.859131,1355.607864 1004.051453C1395.800186 1044.243774,1450.310013 1066.828659,1507.154846 1066.828659C1563.999680 1066.828659,1618.509506 1044.243774,1658.701828 1004.051453C1698.894150 963.859131,1721.479034 909.349304,1721.479034 852.504471Z" style="stroke:rgb(25.500488%,41.000366%,88.400269%); stroke-width: 2.500000;stroke-linecap: round;stroke-linejoin: round;stroke-miterlimit: 10.000000;fill: none;"></path>
  <path d="M1668.018005 499.493057C1668.018005 442.648224,1645.433121 388.138397,1605.240799 347.946075C1565.048477 307.753754,1510.538651 285.168869,1453.693817 285.168869C1396.848984 285.168869,1342.339157 307.753754,1302.146835 347.946075C1261.954514 388.138397,1239.369629 442.648224,1239.369629 499.493057C1239.369629 556.337891,1261.954514 610.847717,1302.146835 651.040039C1342.339157 691.232361,1396.848984 713.817245,1453.693817 713.817245C1510.538651 713.817245,1565.048477 691.232361,1605.240799 651.040039C1645.433121 610.847717,1668.018005 556.337891,1668.018005 499.493057Z" style="stroke:rgb(25.500488%,41.000366%,88.400269%); stroke-width: 2.500000;stroke-linecap: round;stroke-linejoin: round;stroke-miterlimit: 10.000000;fill: none;"></path>
  <path d="M1335.755188 368.824982C1335.755188 311.980148,1313.170303 257.470322,1272.977982 217.278000C1232.785660 177.085678,1178.275833 154.500793,1121.431000 154.500793C1064.586166 154.500793,1010.076340 177.085678,969.884018 217.278000C929.691696 257.470322,907.106812 311.980148,907.106812 368.824982C907.106812 425.669815,929.691696 480.179642,969.884018 520.371964C1010.076340 560.564285,1064.586166 583.149170,1121.431000 583.149170C1178.275833 583.149170,1232.785660 560.564285,1272.977982 520.371964C1313.170303 480.179642,1335.755188 425.669815,1335.755188 368.824982Z" style="stroke:rgb(25.500488%,41.000366%,88.400269%); stroke-width: 2.500000;stroke-linecap: round;stroke-linejoin: round;stroke-miterlimit: 10.000000;fill: none;"></path>
  <path d="M1521.078064 1429.338486C1521.078064 1372.493652,1498.493179 1317.983826,1458.300858 1277.791504C1418.108536 1237.599182,1363.598709 1215.014297,1306.753876 1215.014297C1249.909042 1215.014297,1195.399216 1237.599182,1155.206894 1277.791504C1115.014572 1317.983826,1092.429688 1372.493652,1092.429688 1429.338486C1092.429688 1486.183319,1115.014572 1540.693146,1155.206894 1580.885468C1195.399216 1621.077789,1249.909042 1643.662674,1306.753876 1643.662674C1363.598709 1643.662674,1418.108536 1621.077789,1458.300858 1580.885468C1498.493179 1540.693146,1521.078064 1486.183319,1521.078064 1429.338486Z" style="stroke:rgb(25.500488%,41.000366%,88.400269%); stroke-width: 2.500000;stroke-linecap: round;stroke-linejoin: round;stroke-miterlimit: 10.000000;fill: none;"></path>
  <path d="M1427.495331 1094.519394C1427.495331 1037.674561,1404.910446 983.164734,1364.718124 942.972412C1324.525803 902.780090,1270.015976 880.195206,1213.171143 880.195206C1156.326309 880.195206,1101.816483 902.780090,1061.624161 942.972412C1021.431839 983.164734,998.846954 1037.674561,998.846954 1094.519394C998.846954 1151.364227,1021.431839 1205.874054,1061.624161 1246.066376C1101.816483 1286.258698,1156.326309 1308.843582,1213.171143 1308.843582C1270.015976 1308.843582,1324.525803 1286.258698,1364.718124 1246.066376C1404.910446 1205.874054,1427.495331 1151.364227,1427.495331 1094.519394Z" style="stroke:rgb(25.500488%,41.000366%,88.400269%); stroke-width: 2.500000;stroke-linecap: round;stroke-linejoin: round;stroke-miterlimit: 10.000000;fill: none;"></path>
  <path d="M1367.961563 738.783020C1367.961563 681.938187,1345.376678 627.428360,1305.184357 587.236038C1264.992035 547.043716,1210.482208 524.458832,1153.637375 524.458832C1096.792542 524.458832,1042.282715 547.043716,1002.090393 587.236038C961.898071 627.428360,939.313187 681.938187,939.313187 738.783020C939.313187 795.627853,961.898071 850.137680,1002.090393 890.330002C1042.282715 930.522324,1096.792542 953.107208,1153.637375 953.107208C1210.482208 953.107208,1264.992035 930.522324,1305.184357 890.330002C1345.376678 850.137680,1367.961563 795.627853,1367.961563 738.783020Z" style="stroke:rgb(25.500488%,41.000366%,88.400269%); stroke-width: 2.500000;stroke-linecap: round;stroke-linejoin: round;stroke-miterlimit: 10.000000;fill: none;"></path>
  <path d="M1034.388153 601.588028C1034.388153 544.743195,1011.803268 490.233368,971.610947 450.041046C931.418625 409.848724,876.908798 387.263840,820.063965 387.263840C763.219131 387.263840,708.709305 409.848724,668.516983 450.041046C628.324661 490.233368,605.739777 544.743195,605.739777 601.588028C605.739777 658.432861,628.324661 712.942688,668.516983 753.135010C708.709305 793.327332,763.219131 815.912216,820.063965 815.912216C876.908798 815.912216,931.418625 793.327332,971.610947 753.135010C1011.803268 712.942688,1034.388153 658.432861,1034.388153 601.588028Z" style="stroke:rgb(25.500488%,41.000366%,88.400269%); stroke-width: 2.500000;stroke-linecap: round;stroke-linejoin: round;stroke-miterlimit: 10.000000;fill: none;"></path>
  <path d="M1029.496216 215.435974C1029.496216 158.591141,1006.911331 104.081314,966.719009 63.888992C926.526688 23.696671,872.016861 1.111786,815.172028 1.111786C758.327194 1.111786,703.817368 23.696671,663.625046 63.888992C623.432724 104.081314,600.847839 158.591141,600.847839 215.435974C600.847839 272.280807,623.432724 326.790634,663.625046 366.982956C703.817368 407.175278,758.327194 429.760162,815.172028 429.760162C872.016861 429.760162,926.526688 407.175278,966.719009 366.982956C1006.911331 326.790634,1029.496216 272.280807,1029.496216 215.435974Z" style="stroke:rgb(25.500488%,41.000366%,88.400269%); stroke-width: 2.500000;stroke-linecap: round;stroke-linejoin: round;stroke-miterlimit: 10.000000;fill: none;"></path>
  <path d="M1141.426971 1326.464951C1141.426971 1269.620117,1118.842087 1215.110291,1078.649765 1174.917969C1038.457443 1134.725647,983.947617 1112.140762,927.102783 1112.140762C870.257950 1112.140762,815.748123 1134.725647,775.555801 1174.917969C735.363480 1215.110291,712.778595 1269.620117,712.778595 1326.464951C712.778595 1383.309784,735.363480 1437.819611,775.555801 1478.011932C815.748123 1518.204254,870.257950 1540.789139,927.102783 1540.789139C983.947617 1540.789139,1038.457443 1518.204254,1078.649765 1478.011932C1118.842087 1437.819611,1141.426971 1383.309784,1141.426971 1326.464951Z" style="stroke:rgb(25.500488%,41.000366%,88.400269%); stroke-width: 2.500000;stroke-linecap: round;stroke-linejoin: round;stroke-miterlimit: 10.000000;fill: none;"></path>
  <path d="M1072.680267 974.258041C1072.680267 917.413208,1050.095383 862.903381,1009.903061 822.711060C969.710739 782.518738,915.200912 759.933853,858.356079 759.933853C801.511246 759.933853,747.001419 782.518738,706.809097 822.711060C666.616776 862.903381,644.031891 917.413208,644.031891 974.258041C644.031891 1031.102875,666.616776 1085.612701,706.809097 1125.805023C747.001419 1165.997345,801.511246 1188.582230,858.356079 1188.582230C915.200912 1188.582230,969.710739 1165.997345,1009.903061 1125.805023C1050.095383 1085.612701,1072.680267 1031.102875,1072.680267 974.258041Z" style="stroke:rgb(25.500488%,41.000366%,88.400269%); stroke-width: 2.500000;stroke-linecap: round;stroke-linejoin: round;stroke-miterlimit: 10.000000;fill: none;"></path>
  <path d="M744.595703 828.862244C744.595703 772.017410,722.010818 717.507584,681.818497 677.315262C641.626175 637.122940,587.116348 614.538055,530.271515 614.538055C473.426682 614.538055,418.916855 637.122940,378.724533 677.315262C338.532211 717.507584,315.947327 772.017410,315.947327 828.862244C315.947327 885.707077,338.532211 940.216904,378.724533 980.409225C418.916855 1020.601547,473.426682 1043.186432,530.271515 1043.186432C587.116348 1043.186432,641.626175 1020.601547,681.818497 980.409225C722.010818 940.216904,744.595703 885.707077,744.595703 828.862244Z" style="stroke:rgb(25.500488%,41.000366%,88.400269%); stroke-width: 2.500000;stroke-linecap: round;stroke-linejoin: round;stroke-miterlimit: 10.000000;fill: none;"></path>
  <path d="M728.777985 435.845901C728.777985 379.001068,706.193100 324.491241,666.000778 284.298920C625.808456 244.106598,571.298630 221.521713,514.453796 221.521713C457.608963 221.521713,403.099136 244.106598,362.906815 284.298920C322.714493 324.491241,300.129608 379.001068,300.129608 435.845901C300.129608 492.690735,322.714493 547.200562,362.906815 587.392883C403.099136 627.585205,457.608963 650.170090,514.453796 650.170090C571.298630 650.170090,625.808456 627.585205,666.000778 587.392883C706.193100 547.200562,728.777985 492.690735,728.777985 435.845901Z" style="stroke:rgb(25.500488%,41.000366%,88.400269%); stroke-width: 2.500000;stroke-linecap: round;stroke-linejoin: round;stroke-miterlimit: 10.000000;fill: none;"></path>
  <path d="M1314.656250 1674.363831C1314.656250 1617.518997,1292.071365 1563.009171,1251.879044 1522.816849C1211.686722 1482.624527,1157.176895 1460.039642,1100.332062 1460.039642C1043.487228 1460.039642,988.977402 1482.624527,948.785080 1522.816849C908.592758 1563.009171,886.007874 1617.518997,886.007874 1674.363831C886.007874 1731.208664,908.592758 1785.718491,948.785080 1825.910812C988.977402 1866.103134,1043.487228 1888.688019,1100.332062 1888.688019C1157.176895 1888.688019,1211.686722 1866.103134,1251.879044 1825.910812C1292.071365 1785.718491,1314.656250 1731.208664,1314.656250 1674.363831Z" style="stroke:rgb(25.500488%,41.000366%,88.400269%); stroke-width: 2.500000;stroke-linecap: round;stroke-linejoin: round;stroke-miterlimit: 10.000000;fill: none;"></path>
  <path d="M951.938812 1574.137390C951.938812 1517.292557,929.353928 1462.782730,889.161606 1422.590408C848.969284 1382.398087,794.459457 1359.813202,737.614624 1359.813202C680.769791 1359.813202,626.259964 1382.398087,586.067642 1422.590408C545.875320 1462.782730,523.290436 1517.292557,523.290436 1574.137390C523.290436 1630.982224,545.875320 1685.492050,586.067642 1725.684372C626.259964 1765.876694,680.769791 1788.461578,737.614624 1788.461578C794.459457 1788.461578,848.969284 1765.876694,889.161606 1725.684372C929.353928 1685.492050,951.938812 1630.982224,951.938812 1574.137390Z" style="stroke:rgb(25.500488%,41.000366%,88.400269%); stroke-width: 2.500000;stroke-linecap: round;stroke-linejoin: round;stroke-miterlimit: 10.000000;fill: none;"></path>
  <path d="M780.487244 1207.280609C780.487244 1150.435776,757.902359 1095.925949,717.710037 1055.733627C677.517715 1015.541306,623.007889 992.956421,566.163055 992.956421C509.318222 992.956421,454.808395 1015.541306,414.616074 1055.733627C374.423752 1095.925949,351.838867 1150.435776,351.838867 1207.280609C351.838867 1264.125443,374.423752 1318.635269,414.616074 1358.827591C454.808395 1399.019913,509.318222 1421.604797,566.163055 1421.604797C623.007889 1421.604797,677.517715 1399.019913,717.710037 1358.827591C757.902359 1318.635269,780.487244 1264.125443,780.487244 1207.280609Z" style="stroke:rgb(25.500488%,41.000366%,88.400269%); stroke-width: 2.500000;stroke-linecap: round;stroke-linejoin: round;stroke-miterlimit: 10.000000;fill: none;"></path>
  <path d="M460.979797 958.492233C460.979797 901.647400,438.394913 847.137573,398.202591 806.945251C358.010269 766.752930,303.500443 744.168045,246.655609 744.168045C189.810776 744.168045,135.300949 766.752930,95.108627 806.945251C54.916306 847.137573,32.331421 901.647400,32.331421 958.492233C32.331421 1015.337067,54.916306 1069.846893,95.108627 1110.039215C135.300949 1150.231537,189.810776 1172.816422,246.655609 1172.816422C303.500443 1172.816422,358.010269 1150.231537,398.202591 1110.039215C438.394913 1069.846893,460.979797 1015.337067,460.979797 958.492233Z" style="stroke:rgb(25.500488%,41.000366%,88.400269%); stroke-width: 2.500000;stroke-linecap: round;stroke-linejoin: round;stroke-miterlimit: 10.000000;fill: none;"></path>
  <path d="M443.981277 582.565247C443.981277 525.720413,421.396393 471.210587,381.204071 431.018265C341.011749 390.825943,286.501923 368.241058,229.657089 368.241058C172.812256 368.241058,118.302429 390.825943,78.110107 431.018265C37.917786 471.210587,15.332901 525.720413,15.332901 582.565247C15.332901 639.410080,37.917786 693.919907,78.110107 734.112228C118.302429 774.304550,172.812256 796.889435,229.657089 796.889435C286.501923 796.889435,341.011749 774.304550,381.204071 734.112228C421.396393 693.919907,443.981277 639.410080,443.981277 582.565247Z" style="stroke:rgb(25.500488%,41.000366%,88.400269%); stroke-width: 2.500000;stroke-linecap: round;stroke-linejoin: round;stroke-miterlimit: 10.000000;fill: none;"></path>
  <path d="M679.235718 1544.707870C679.235718 1487.863037,656.650833 1433.353210,616.458511 1393.160889C576.266190 1352.968567,521.756363 1330.383682,464.911530 1330.383682C408.066696 1330.383682,353.556870 1352.968567,313.364548 1393.160889C273.172226 1433.353210,250.587341 1487.863037,250.587341 1544.707870C250.587341 1601.552704,273.172226 1656.062531,313.364548 1696.254852C353.556870 1736.447174,408.066696 1759.032059,464.911530 1759.032059C521.756363 1759.032059,576.266190 1736.447174,616.458511 1696.254852C656.650833 1656.062531,679.235718 1601.552704,679.235718 1544.707870Z" style="stroke:rgb(25.500488%,41.000366%,88.400269%); stroke-width: 2.500000;stroke-linecap: round;stroke-linejoin: round;stroke-miterlimit: 10.000000;fill: none;"></path>
  <path d="M428.981049 1230.896896C428.981049 1174.052063,406.396164 1119.542236,366.203842 1079.349915C326.011520 1039.157593,271.501694 1016.572708,214.656860 1016.572708C157.812027 1016.572708,103.302200 1039.157593,63.109879 1079.349915C22.917557 1119.542236,0.332672 1174.052063,0.332672 1230.896896C0.332672 1287.741730,22.917557 1342.251556,63.109879 1382.443878C103.302200 1422.636200,157.812027 1445.221085,214.656860 1445.221085C271.501694 1445.221085,326.011520 1422.636200,366.203842 1382.443878C406.396164 1342.251556,428.981049 1287.741730,428.981049 1230.896896Z" style="stroke:rgb(25.500488%,41.000366%,88.400269%); stroke-width: 2.500000;stroke-linecap: round;stroke-linejoin: round;stroke-miterlimit: 10.000000;fill: none;"></path>
</svg>
