<?xml version="1.0"?>
<!-- Created by MetaPost 2.00 on 2022.03.02:1201 -->
<svg version="1.1" xmlns="http://www.w3.org/2000/svg" xmlns:xlink="http://www.w3.org/1999/xlink" width="1831.827057" height="1759.291351" viewBox="0 0 1831.827057 1759.291351">
<!-- Original BoundingBox: -915.913528 -879.645676 915.913528 879.645676 -->
  <path d="M1765.393524 879.000000L1602.986221 379.152451L1177.789459 70.233398L652.210541 70.233398L227.013779 379.152451L64.606476 879.000000L227.013779 1378.847549L652.210541 1687.766602L1177.789459 1687.766602L1602.986221 1378.847549L1765.393524 879.000000Z" style="fill: rgb(100.000000%,100.000000%,100.000000%);stroke: none;"></path>
  <path d="M1765.393524 879.000000L1602.986221 379.152451" style="stroke:rgb(0.000000%,0.000000%,0.000000%); stroke-width: 2.500000;stroke-linecap: round;stroke-linejoin: round;stroke-miterlimit: 10.000000;fill: none;"></path>
  <path d="M1602.986221 379.152451L1177.789459 70.233398" style="stroke:rgb(0.000000%,0.000000%,0.000000%); stroke-width: 2.500000;stroke-linecap: round;stroke-linejoin: round;stroke-miterlimit: 10.000000;fill: none;"></path>
  <path d="M1177.789459 70.233398L652.210541 70.233398" style="stroke:rgb(0.000000%,0.000000%,0.000000%); stroke-width: 2.500000;stroke-linecap: round;stroke-linejoin: round;stroke-miterlimit: 10.000000;fill: none;"></path>
  <path d="M652.210541 70.233398L227.013779 379.152451" style="stroke:rgb(0.000000%,0.000000%,0.000000%); stroke-width: 2.500000;stroke-linecap: round;stroke-linejoin: round;stroke-miterlimit: 10.000000;fill: none;"></path>
  <path d="M227.013779 379.152451L64.606476 879.000000" style="stroke:rgb(0.000000%,0.000000%,0.000000%); stroke-width: 2.500000;stroke-linecap: round;stroke-linejoin: round;stroke-miterlimit: 10.000000;fill: none;"></path>
  <path d="M64.606476 879.000000L227.013779 1378.847549" style="stroke:rgb(0.000000%,0.000000%,0.000000%); stroke-width: 2.500000;stroke-linecap: round;stroke-linejoin: round;stroke-miterlimit: 10.000000;fill: none;"></path>
  <path d="M227.013779 1378.847549L652.210541 1687.766602" style="stroke:rgb(0.000000%,0.000000%,0.000000%); stroke-width: 2.500000;stroke-linecap: round;stroke-linejoin: round;stroke-miterlimit: 10.000000;fill: none;"></path>
  <path d="M652.210541 1687.766602L1177.789459 1687.766602" style="stroke:rgb(0.000000%,0.000000%,0.000000%); stroke-width: 2.500000;stroke-linecap: round;stroke-linejoin: round;stroke-miterlimit: 10.000000;fill: none;"></path>
  <path d="M1177.789459 1687.766602L1602.986221 1378.847549" style="stroke:rgb(0.000000%,0.000000%,0.000000%); stroke-width: 2.500000;stroke-linecap: round;stroke-linejoin: round;stroke-miterlimit: 10.000000;fill: none;"></path>
  <path d="M1602.986221 1378.847549L1765.393524 879.000000" style="stroke:rgb(0.000000%,0.000000%,0.000000%); stroke-width: 2.500000;stroke-linecap: round;stroke-linejoin: round;stroke-miterlimit: 10.000000;fill: none;"></path>
  <path d="M790.521469 1643.440659C790.521469 1613.216568,778.513214 1584.233994,757.143158 1562.863953C735.773117 1541.493896,706.790543 1529.485641,676.566452 1529.485641C646.342361 1529.485641,617.359787 1541.493896,595.989746 1562.863953C574.619690 1584.233994,562.611435 1613.216568,562.611435 1643.440659C562.611435 1673.664749,574.619690 1702.647324,595.989746 1724.017365C617.359787 1745.387421,646.342361 1757.395676,676.566452 1757.395676C706.790543 1757.395676,735.773117 1745.387421,757.143158 1724.017365C778.513214 1702.647324,790.521469 1673.664749,790.521469 1643.440659Z" style="stroke:rgb(25.500488%,41.000366%,88.400269%); stroke-width: 2.500000;stroke-linecap: round;stroke-linejoin: round;stroke-miterlimit: 10.000000;fill: none;"></path>
  <path d="M988.119629 1621.355560C988.119629 1591.131470,976.111374 1562.148895,954.741318 1540.778854C933.371277 1519.408798,904.388702 1507.400543,874.164612 1507.400543C843.940521 1507.400543,814.957947 1519.408798,793.587906 1540.778854C772.217850 1562.148895,760.209595 1591.131470,760.209595 1621.355560C760.209595 1651.579651,772.217850 1680.562225,793.587906 1701.932266C814.957947 1723.302322,843.940521 1735.310577,874.164612 1735.310577C904.388702 1735.310577,933.371277 1723.302322,954.741318 1701.932266C976.111374 1680.562225,988.119629 1651.579651,988.119629 1621.355560Z" style="stroke:rgb(25.500488%,41.000366%,88.400269%); stroke-width: 2.500000;stroke-linecap: round;stroke-linejoin: round;stroke-miterlimit: 10.000000;fill: none;"></path>
  <path d="M1171.054916 1618.293228C1171.054916 1588.069138,1159.046661 1559.086563,1137.676605 1537.716522C1116.306564 1516.346466,1087.323990 1504.338211,1057.099899 1504.338211C1026.875809 1504.338211,997.893234 1516.346466,976.523193 1537.716522C955.153137 1559.086563,943.144882 1588.069138,943.144882 1618.293228C943.144882 1648.517319,955.153137 1677.499893,976.523193 1698.869934C997.893234 1720.239990,1026.875809 1732.248245,1057.099899 1732.248245C1087.323990 1732.248245,1116.306564 1720.239990,1137.676605 1698.869934C1159.046661 1677.499893,1171.054916 1648.517319,1171.054916 1618.293228Z" style="stroke:rgb(25.500488%,41.000366%,88.400269%); stroke-width: 2.500000;stroke-linecap: round;stroke-linejoin: round;stroke-miterlimit: 10.000000;fill: none;"></path>
  <path d="M1351.914062 1618.552750C1351.914062 1588.328659,1339.905807 1559.346085,1318.535751 1537.976044C1297.165710 1516.605988,1268.183136 1504.597733,1237.959045 1504.597733C1207.734955 1504.597733,1178.752380 1516.605988,1157.382339 1537.976044C1136.012283 1559.346085,1124.004028 1588.328659,1124.004028 1618.552750C1124.004028 1648.776840,1136.012283 1677.759415,1157.382339 1699.129456C1178.752380 1720.499512,1207.734955 1732.507767,1237.959045 1732.507767C1268.183136 1732.507767,1297.165710 1720.499512,1318.535751 1699.129456C1339.905807 1677.759415,1351.914062 1648.776840,1351.914062 1618.552750Z" style="stroke:rgb(25.500488%,41.000366%,88.400269%); stroke-width: 2.500000;stroke-linecap: round;stroke-linejoin: round;stroke-miterlimit: 10.000000;fill: none;"></path>
  <path d="M653.118866 1512.746643C653.118866 1482.522552,641.110611 1453.539978,619.740555 1432.169937C598.370514 1410.799881,569.387939 1398.791626,539.163849 1398.791626C508.939758 1398.791626,479.957184 1410.799881,458.587143 1432.169937C437.217087 1453.539978,425.208832 1482.522552,425.208832 1512.746643C425.208832 1542.970734,437.217087 1571.953308,458.587143 1593.323349C479.957184 1614.693405,508.939758 1626.701660,539.163849 1626.701660C569.387939 1626.701660,598.370514 1614.693405,619.740555 1593.323349C641.110611 1571.953308,653.118866 1542.970734,653.118866 1512.746643Z" style="stroke:rgb(25.500488%,41.000366%,88.400269%); stroke-width: 2.500000;stroke-linecap: round;stroke-linejoin: round;stroke-miterlimit: 10.000000;fill: none;"></path>
  <path d="M856.802750 1466.149918C856.802750 1435.925827,844.794495 1406.943253,823.424438 1385.573212C802.054398 1364.203156,773.071823 1352.194901,742.847733 1352.194901C712.623642 1352.194901,683.641068 1364.203156,662.271027 1385.573212C640.900970 1406.943253,628.892715 1435.925827,628.892715 1466.149918C628.892715 1496.374008,640.900970 1525.356583,662.271027 1546.726624C683.641068 1568.096680,712.623642 1580.104935,742.847733 1580.104935C773.071823 1580.104935,802.054398 1568.096680,823.424438 1546.726624C844.794495 1525.356583,856.802750 1496.374008,856.802750 1466.149918Z" style="stroke:rgb(25.500488%,41.000366%,88.400269%); stroke-width: 2.500000;stroke-linecap: round;stroke-linejoin: round;stroke-miterlimit: 10.000000;fill: none;"></path>
  <path d="M1056.606827 1447.269867C1056.606827 1417.045776,1044.598572 1388.063202,1023.228516 1366.693161C1001.858475 1345.323105,972.875900 1333.314850,942.651810 1333.314850C912.427719 1333.314850,883.445145 1345.323105,862.075104 1366.693161C840.705048 1388.063202,828.696793 1417.045776,828.696793 1447.269867C828.696793 1477.493958,840.705048 1506.476532,862.075104 1527.846573C883.445145 1549.216629,912.427719 1561.224884,942.651810 1561.224884C972.875900 1561.224884,1001.858475 1549.216629,1023.228516 1527.846573C1044.598572 1506.476532,1056.606827 1477.493958,1056.606827 1447.269867Z" style="stroke:rgb(25.500488%,41.000366%,88.400269%); stroke-width: 2.500000;stroke-linecap: round;stroke-linejoin: round;stroke-miterlimit: 10.000000;fill: none;"></path>
  <path d="M1249.585526 1442.624466C1249.585526 1412.400375,1237.577271 1383.417801,1216.207214 1362.047760C1194.837173 1340.677704,1165.854599 1328.669449,1135.630508 1328.669449C1105.406418 1328.669449,1076.423843 1340.677704,1055.053802 1362.047760C1033.683746 1383.417801,1021.675491 1412.400375,1021.675491 1442.624466C1021.675491 1472.848557,1033.683746 1501.831131,1055.053802 1523.201172C1076.423843 1544.571228,1105.406418 1556.579483,1135.630508 1556.579483C1165.854599 1556.579483,1194.837173 1544.571228,1216.207214 1523.201172C1237.577271 1501.831131,1249.585526 1472.848557,1249.585526 1442.624466Z" style="stroke:rgb(25.500488%,41.000366%,88.400269%); stroke-width: 2.500000;stroke-linecap: round;stroke-linejoin: round;stroke-miterlimit: 10.000000;fill: none;"></path>
  <path d="M1447.884384 1455.600449C1447.884384 1425.376358,1435.876129 1396.393784,1414.506073 1375.023743C1393.136032 1353.653687,1364.153458 1341.645432,1333.929367 1341.645432C1303.705276 1341.645432,1274.722702 1353.653687,1253.352661 1375.023743C1231.982605 1396.393784,1219.974350 1425.376358,1219.974350 1455.600449C1219.974350 1485.824539,1231.982605 1514.807114,1253.352661 1536.177155C1274.722702 1557.547211,1303.705276 1569.555466,1333.929367 1569.555466C1364.153458 1569.555466,1393.136032 1557.547211,1414.506073 1536.177155C1435.876129 1514.807114,1447.884384 1485.824539,1447.884384 1455.600449Z" style="stroke:rgb(25.500488%,41.000366%,88.400269%); stroke-width: 2.500000;stroke-linecap: round;stroke-linejoin: round;stroke-miterlimit: 10.000000;fill: none;"></path>
  <path d="M1632.506561 1414.687195C1632.506561 1384.463104,1620.498306 1355.480530,1599.128250 1334.110489C1577.758209 1312.740433,1548.775635 1300.732178,1518.551544 1300.732178C1488.327454 1300.732178,1459.344879 1312.740433,1437.974838 1334.110489C1416.604782 1355.480530,1404.596527 1384.463104,1404.596527 1414.687195C1404.596527 1444.911285,1416.604782 1473.893860,1437.974838 1495.263901C1459.344879 1516.633957,1488.327454 1528.642212,1518.551544 1528.642212C1548.775635 1528.642212,1577.758209 1516.633957,1599.128250 1495.263901C1620.498306 1473.893860,1632.506561 1444.911285,1632.506561 1414.687195Z" style="stroke:rgb(25.500488%,41.000366%,88.400269%); stroke-width: 2.500000;stroke-linecap: round;stroke-linejoin: round;stroke-miterlimit: 10.000000;fill: none;"></path>
  <path d="M406.562363 1331.186798C406.562363 1300.962708,394.554108 1271.980133,373.184052 1250.610092C351.814011 1229.240036,322.831436 1217.231781,292.607346 1217.231781C262.383255 1217.231781,233.400681 1229.240036,212.030640 1250.610092C190.660583 1271.980133,178.652328 1300.962708,178.652328 1331.186798C178.652328 1361.410889,190.660583 1390.393463,212.030640 1411.763504C233.400681 1433.133560,262.383255 1445.141815,292.607346 1445.141815C322.831436 1445.141815,351.814011 1433.133560,373.184052 1411.763504C394.554108 1390.393463,406.562363 1361.410889,406.562363 1331.186798Z" style="stroke:rgb(25.500488%,41.000366%,88.400269%); stroke-width: 2.500000;stroke-linecap: round;stroke-linejoin: round;stroke-miterlimit: 10.000000;fill: none;"></path>
  <path d="M538.008987 1409.224304C538.008987 1379.000214,526.000732 1350.017639,504.630676 1328.647598C483.260635 1307.277542,454.278061 1295.269287,424.053970 1295.269287C393.829880 1295.269287,364.847305 1307.277542,343.477264 1328.647598C322.107208 1350.017639,310.098953 1379.000214,310.098953 1409.224304C310.098953 1439.448395,322.107208 1468.430969,343.477264 1489.801010C364.847305 1511.171066,393.829880 1523.179321,424.053970 1523.179321C454.278061 1523.179321,483.260635 1511.171066,504.630676 1489.801010C526.000732 1468.430969,538.008987 1439.448395,538.008987 1409.224304Z" style="stroke:rgb(25.500488%,41.000366%,88.400269%); stroke-width: 2.500000;stroke-linecap: round;stroke-linejoin: round;stroke-miterlimit: 10.000000;fill: none;"></path>
  <path d="M716.091278 1334.781143C716.091278 1304.557053,704.083023 1275.574478,682.712967 1254.204437C661.342926 1232.834381,632.360352 1220.826126,602.136261 1220.826126C571.912170 1220.826126,542.929596 1232.834381,521.559555 1254.204437C500.189499 1275.574478,488.181244 1304.557053,488.181244 1334.781143C488.181244 1365.005234,500.189499 1393.987808,521.559555 1415.357849C542.929596 1436.727905,571.912170 1448.736160,602.136261 1448.736160C632.360352 1448.736160,661.342926 1436.727905,682.712967 1415.357849C704.083023 1393.987808,716.091278 1365.005234,716.091278 1334.781143Z" style="stroke:rgb(25.500488%,41.000366%,88.400269%); stroke-width: 2.500000;stroke-linecap: round;stroke-linejoin: round;stroke-miterlimit: 10.000000;fill: none;"></path>
  <path d="M922.007034 1292.894684C922.007034 1262.670593,909.998779 1233.688019,888.628723 1212.317978C867.258682 1190.947922,838.276108 1178.939667,808.052017 1178.939667C777.827927 1178.939667,748.845352 1190.947922,727.475311 1212.317978C706.105255 1233.688019,694.097000 1262.670593,694.097000 1292.894684C694.097000 1323.118774,706.105255 1352.101349,727.475311 1373.471390C748.845352 1394.841446,777.827927 1406.849701,808.052017 1406.849701C838.276108 1406.849701,867.258682 1394.841446,888.628723 1373.471390C909.998779 1352.101349,922.007034 1323.118774,922.007034 1292.894684Z" style="stroke:rgb(25.500488%,41.000366%,88.400269%); stroke-width: 2.500000;stroke-linecap: round;stroke-linejoin: round;stroke-miterlimit: 10.000000;fill: none;"></path>
  <path d="M1122.018707 1274.326065C1122.018707 1244.101974,1110.010452 1215.119400,1088.640396 1193.749359C1067.270355 1172.379303,1038.287781 1160.371048,1008.063690 1160.371048C977.839600 1160.371048,948.857025 1172.379303,927.486984 1193.749359C906.116928 1215.119400,894.108673 1244.101974,894.108673 1274.326065C894.108673 1304.550156,906.116928 1333.532730,927.486984 1354.902771C948.857025 1376.272827,977.839600 1388.281082,1008.063690 1388.281082C1038.287781 1388.281082,1067.270355 1376.272827,1088.640396 1354.902771C1110.010452 1333.532730,1122.018707 1304.550156,1122.018707 1274.326065Z" style="stroke:rgb(25.500488%,41.000366%,88.400269%); stroke-width: 2.500000;stroke-linecap: round;stroke-linejoin: round;stroke-miterlimit: 10.000000;fill: none;"></path>
  <path d="M1322.757050 1283.383301C1322.757050 1253.159210,1310.748795 1224.176636,1289.378738 1202.806595C1268.008698 1181.436539,1239.026123 1169.428284,1208.802032 1169.428284C1178.577942 1169.428284,1149.595367 1181.436539,1128.225327 1202.806595C1106.855270 1224.176636,1094.847015 1253.159210,1094.847015 1283.383301C1094.847015 1313.607391,1106.855270 1342.589966,1128.225327 1363.960007C1149.595367 1385.330063,1178.577942 1397.338318,1208.802032 1397.338318C1239.026123 1397.338318,1268.008698 1385.330063,1289.378738 1363.960007C1310.748795 1342.589966,1322.757050 1313.607391,1322.757050 1283.383301Z" style="stroke:rgb(25.500488%,41.000366%,88.400269%); stroke-width: 2.500000;stroke-linecap: round;stroke-linejoin: round;stroke-miterlimit: 10.000000;fill: none;"></path>
  <path d="M1496.816788 1262.998047C1496.816788 1232.773956,1484.808533 1203.791382,1463.438477 1182.421341C1442.068436 1161.051285,1413.085861 1149.043030,1382.861771 1149.043030C1352.637680 1149.043030,1323.655106 1161.051285,1302.285065 1182.421341C1280.915009 1203.791382,1268.906754 1232.773956,1268.906754 1262.998047C1268.906754 1293.222137,1280.915009 1322.204712,1302.285065 1343.574753C1323.655106 1364.944809,1352.637680 1376.953064,1382.861771 1376.953064C1413.085861 1376.953064,1442.068436 1364.944809,1463.438477 1343.574753C1484.808533 1322.204712,1496.816788 1293.222137,1496.816788 1262.998047Z" style="stroke:rgb(25.500488%,41.000366%,88.400269%); stroke-width: 2.500000;stroke-linecap: round;stroke-linejoin: round;stroke-miterlimit: 10.000000;fill: none;"></path>
  <path d="M1688.147537 1242.599808C1688.147537 1212.375717,1676.139282 1183.393143,1654.769226 1162.023102C1633.399185 1140.653046,1604.416611 1128.644791,1574.192520 1128.644791C1543.968430 1128.644791,1514.985855 1140.653046,1493.615814 1162.023102C1472.245758 1183.393143,1460.237503 1212.375717,1460.237503 1242.599808C1460.237503 1272.823898,1472.245758 1301.806473,1493.615814 1323.176514C1514.985855 1344.546570,1543.968430 1356.554825,1574.192520 1356.554825C1604.416611 1356.554825,1633.399185 1344.546570,1654.769226 1323.176514C1676.139282 1301.806473,1688.147537 1272.823898,1688.147537 1242.599808Z" style="stroke:rgb(25.500488%,41.000366%,88.400269%); stroke-width: 2.500000;stroke-linecap: round;stroke-linejoin: round;stroke-miterlimit: 10.000000;fill: none;"></path>
  <path d="M372.967560 1182.066879C372.967560 1151.842789,360.959305 1122.860214,339.589249 1101.490173C318.219208 1080.120117,289.236633 1068.111862,259.012543 1068.111862C228.788452 1068.111862,199.805878 1080.120117,178.435837 1101.490173C157.065781 1122.860214,145.057526 1151.842789,145.057526 1182.066879C145.057526 1212.290970,157.065781 1241.273544,178.435837 1262.643585C199.805878 1284.013641,228.788452 1296.021896,259.012543 1296.021896C289.236633 1296.021896,318.219208 1284.013641,339.589249 1262.643585C360.959305 1241.273544,372.967560 1212.290970,372.967560 1182.066879Z" style="stroke:rgb(25.500488%,41.000366%,88.400269%); stroke-width: 2.500000;stroke-linecap: round;stroke-linejoin: round;stroke-miterlimit: 10.000000;fill: none;"></path>
  <path d="M581.102203 1204.385559C581.102203 1174.161469,569.093948 1145.178894,547.723892 1123.808853C526.353851 1102.438797,497.371277 1090.430542,467.147186 1090.430542C436.923096 1090.430542,407.940521 1102.438797,386.570480 1123.808853C365.200424 1145.178894,353.192169 1174.161469,353.192169 1204.385559C353.192169 1234.609650,365.200424 1263.592224,386.570480 1284.962265C407.940521 1306.332321,436.923096 1318.340576,467.147186 1318.340576C497.371277 1318.340576,526.353851 1306.332321,547.723892 1284.962265C569.093948 1263.592224,581.102203 1234.609650,581.102203 1204.385559Z" style="stroke:rgb(25.500488%,41.000366%,88.400269%); stroke-width: 2.500000;stroke-linecap: round;stroke-linejoin: round;stroke-miterlimit: 10.000000;fill: none;"></path>
  <path d="M785.110489 1159.436783C785.110489 1129.212692,773.102234 1100.230118,751.732178 1078.860077C730.362137 1057.490021,701.379562 1045.481766,671.155472 1045.481766C640.931381 1045.481766,611.948807 1057.490021,590.578766 1078.860077C569.208710 1100.230118,557.200455 1129.212692,557.200455 1159.436783C557.200455 1189.660873,569.208710 1218.643448,590.578766 1240.013489C611.948807 1261.383545,640.931381 1273.391800,671.155472 1273.391800C701.379562 1273.391800,730.362137 1261.383545,751.732178 1240.013489C773.102234 1218.643448,785.110489 1189.660873,785.110489 1159.436783Z" style="stroke:rgb(25.500488%,41.000366%,88.400269%); stroke-width: 2.500000;stroke-linecap: round;stroke-linejoin: round;stroke-miterlimit: 10.000000;fill: none;"></path>
  <path d="M991.895630 1118.847931C991.895630 1088.623840,979.887375 1059.641266,958.517319 1038.271225C937.147278 1016.901169,908.164703 1004.892914,877.940613 1004.892914C847.716522 1004.892914,818.733948 1016.901169,797.363907 1038.271225C775.993851 1059.641266,763.985596 1088.623840,763.985596 1118.847931C763.985596 1149.072021,775.993851 1178.054596,797.363907 1199.424637C818.733948 1220.794693,847.716522 1232.802948,877.940613 1232.802948C908.164703 1232.802948,937.147278 1220.794693,958.517319 1199.424637C979.887375 1178.054596,991.895630 1149.072021,991.895630 1118.847931Z" style="stroke:rgb(25.500488%,41.000366%,88.400269%); stroke-width: 2.500000;stroke-linecap: round;stroke-linejoin: round;stroke-miterlimit: 10.000000;fill: none;"></path>
  <path d="M1199.666946 1113.968964C1199.666946 1083.744873,1187.658691 1054.762299,1166.288635 1033.392258C1144.918594 1012.022202,1115.936020 1000.013947,1085.711929 1000.013947C1055.487839 1000.013947,1026.505264 1012.022202,1005.135223 1033.392258C983.765167 1054.762299,971.756912 1083.744873,971.756912 1113.968964C971.756912 1144.193054,983.765167 1173.175629,1005.135223 1194.545670C1026.505264 1215.915726,1055.487839 1227.923981,1085.711929 1227.923981C1115.936020 1227.923981,1144.918594 1215.915726,1166.288635 1194.545670C1187.658691 1173.175629,1199.666946 1144.193054,1199.666946 1113.968964Z" style="stroke:rgb(25.500488%,41.000366%,88.400269%); stroke-width: 2.500000;stroke-linecap: round;stroke-linejoin: round;stroke-miterlimit: 10.000000;fill: none;"></path>
  <path d="M1376.166168 1089.677933C1376.166168 1059.453842,1364.157913 1030.471268,1342.787857 1009.101227C1321.417816 987.731171,1292.435242 975.722916,1262.211151 975.722916C1231.987061 975.722916,1203.004486 987.731171,1181.634445 1009.101227C1160.264389 1030.471268,1148.256134 1059.453842,1148.256134 1089.677933C1148.256134 1119.902023,1160.264389 1148.884598,1181.634445 1170.254639C1203.004486 1191.624695,1231.987061 1203.632950,1262.211151 1203.632950C1292.435242 1203.632950,1321.417816 1191.624695,1342.787857 1170.254639C1364.157913 1148.884598,1376.166168 1119.902023,1376.166168 1089.677933Z" style="stroke:rgb(25.500488%,41.000366%,88.400269%); stroke-width: 2.500000;stroke-linecap: round;stroke-linejoin: round;stroke-miterlimit: 10.000000;fill: none;"></path>
  <path d="M1560.866196 1080.906174C1560.866196 1050.682083,1548.857941 1021.699509,1527.487885 1000.329468C1506.117844 978.959412,1477.135269 966.951157,1446.911179 966.951157C1416.687088 966.951157,1387.704514 978.959412,1366.334473 1000.329468C1344.964417 1021.699509,1332.956161 1050.682083,1332.956161 1080.906174C1332.956161 1111.130264,1344.964417 1140.112839,1366.334473 1161.482880C1387.704514 1182.852936,1416.687088 1194.861191,1446.911179 1194.861191C1477.135269 1194.861191,1506.117844 1182.852936,1527.487885 1161.482880C1548.857941 1140.112839,1560.866196 1111.130264,1560.866196 1080.906174Z" style="stroke:rgb(25.500488%,41.000366%,88.400269%); stroke-width: 2.500000;stroke-linecap: round;stroke-linejoin: round;stroke-miterlimit: 10.000000;fill: none;"></path>
  <path d="M1747.603470 1069.552200C1747.603470 1039.328110,1735.595215 1010.345535,1714.225159 988.975494C1692.855118 967.605438,1663.872543 955.597183,1633.648453 955.597183C1603.424362 955.597183,1574.441788 967.605438,1553.071747 988.975494C1531.701691 1010.345535,1519.693436 1039.328110,1519.693436 1069.552200C1519.693436 1099.776291,1531.701691 1128.758865,1553.071747 1150.128906C1574.441788 1171.498962,1603.424362 1183.507217,1633.648453 1183.507217C1663.872543 1183.507217,1692.855118 1171.498962,1714.225159 1150.128906C1735.595215 1128.758865,1747.603470 1099.776291,1747.603470 1069.552200Z" style="stroke:rgb(25.500488%,41.000366%,88.400269%); stroke-width: 2.500000;stroke-linecap: round;stroke-linejoin: round;stroke-miterlimit: 10.000000;fill: none;"></path>
  <path d="M310.085983 1040.602798C310.085983 1010.378708,298.077728 981.396133,276.707672 960.026093C255.337631 938.656036,226.355057 926.647781,196.130966 926.647781C165.906876 926.647781,136.924301 938.656036,115.554260 960.026093C94.184204 981.396133,82.175949 1010.378708,82.175949 1040.602798C82.175949 1070.826889,94.184204 1099.809464,115.554260 1121.179504C136.924301 1142.549561,165.906876 1154.557816,196.130966 1154.557816C226.355057 1154.557816,255.337631 1142.549561,276.707672 1121.179504C298.077728 1099.809464,310.085983 1070.826889,310.085983 1040.602798Z" style="stroke:rgb(25.500488%,41.000366%,88.400269%); stroke-width: 2.500000;stroke-linecap: round;stroke-linejoin: round;stroke-miterlimit: 10.000000;fill: none;"></path>
  <path d="M498.795593 1035.710861C498.795593 1005.486771,486.787338 976.504196,465.417282 955.134155C444.047241 933.764099,415.064667 921.755844,384.840576 921.755844C354.616486 921.755844,325.633911 933.764099,304.263870 955.134155C282.893814 976.504196,270.885559 1005.486771,270.885559 1035.710861C270.885559 1065.934952,282.893814 1094.917526,304.263870 1116.287567C325.633911 1137.657623,354.616486 1149.665878,384.840576 1149.665878C415.064667 1149.665878,444.047241 1137.657623,465.417282 1116.287567C486.787338 1094.917526,498.795593 1065.934952,498.795593 1035.710861Z" style="stroke:rgb(25.500488%,41.000366%,88.400269%); stroke-width: 2.500000;stroke-linecap: round;stroke-linejoin: round;stroke-miterlimit: 10.000000;fill: none;"></path>
  <path d="M686.895325 1024.253067C686.895325 994.028976,674.887070 965.046402,653.517014 943.676361C632.146973 922.306305,603.164398 910.298050,572.940308 910.298050C542.716217 910.298050,513.733643 922.306305,492.363602 943.676361C470.993546 965.046402,458.985291 994.028976,458.985291 1024.253067C458.985291 1054.477158,470.993546 1083.459732,492.363602 1104.829773C513.733643 1126.199829,542.716217 1138.208084,572.940308 1138.208084C603.164398 1138.208084,632.146973 1126.199829,653.517014 1104.829773C674.887070 1083.459732,686.895325 1054.477158,686.895325 1024.253067Z" style="stroke:rgb(25.500488%,41.000366%,88.400269%); stroke-width: 2.500000;stroke-linecap: round;stroke-linejoin: round;stroke-miterlimit: 10.000000;fill: none;"></path>
  <path d="M886.180359 982.729950C886.180359 952.505859,874.172104 923.523285,852.802048 902.153244C831.432007 880.783188,802.449432 868.774933,772.225342 868.774933C742.001251 868.774933,713.018677 880.783188,691.648636 902.153244C670.278580 923.523285,658.270325 952.505859,658.270325 982.729950C658.270325 1012.954041,670.278580 1041.936615,691.648636 1063.306656C713.018677 1084.676712,742.001251 1096.684967,772.225342 1096.684967C802.449432 1096.684967,831.432007 1084.676712,852.802048 1063.306656C874.172104 1041.936615,886.180359 1012.954041,886.180359 982.729950Z" style="stroke:rgb(25.500488%,41.000366%,88.400269%); stroke-width: 2.500000;stroke-linecap: round;stroke-linejoin: round;stroke-miterlimit: 10.000000;fill: none;"></path>
  <path d="M1084.959320 956.090271C1084.959320 925.866180,1072.951065 896.883606,1051.581009 875.513565C1030.210968 854.143509,1001.228394 842.135254,971.004303 842.135254C940.780212 842.135254,911.797638 854.143509,890.427597 875.513565C869.057541 896.883606,857.049286 925.866180,857.049286 956.090271C857.049286 986.314362,869.057541 1015.296936,890.427597 1036.666977C911.797638 1058.037033,940.780212 1070.045288,971.004303 1070.045288C1001.228394 1070.045288,1030.210968 1058.037033,1051.581009 1036.666977C1072.951065 1015.296936,1084.959320 986.314362,1084.959320 956.090271Z" style="stroke:rgb(25.500488%,41.000366%,88.400269%); stroke-width: 2.500000;stroke-linecap: round;stroke-linejoin: round;stroke-miterlimit: 10.000000;fill: none;"></path>
  <path d="M1268.517471 917.876022C1268.517471 887.651932,1256.509216 858.669357,1235.139160 837.299316C1213.769119 815.929260,1184.786545 803.921005,1154.562454 803.921005C1124.338364 803.921005,1095.355789 815.929260,1073.985748 837.299316C1052.615692 858.669357,1040.607437 887.651932,1040.607437 917.876022C1040.607437 948.100113,1052.615692 977.082687,1073.985748 998.452728C1095.355789 1019.822784,1124.338364 1031.831039,1154.562454 1031.831039C1184.786545 1031.831039,1213.769119 1019.822784,1235.139160 998.452728C1256.509216 977.082687,1268.517471 948.100113,1268.517471 917.876022Z" style="stroke:rgb(25.500488%,41.000366%,88.400269%); stroke-width: 2.500000;stroke-linecap: round;stroke-linejoin: round;stroke-miterlimit: 10.000000;fill: none;"></path>
  <path d="M1455.644012 905.185516C1455.644012 874.961426,1443.635757 845.978851,1422.265701 824.608810C1400.895660 803.238754,1371.913086 791.230499,1341.688995 791.230499C1311.464905 791.230499,1282.482330 803.238754,1261.112289 824.608810C1239.742233 845.978851,1227.733978 874.961426,1227.733978 905.185516C1227.733978 935.409607,1239.742233 964.392181,1261.112289 985.762222C1282.482330 1007.132278,1311.464905 1019.140533,1341.688995 1019.140533C1371.913086 1019.140533,1400.895660 1007.132278,1422.265701 985.762222C1443.635757 964.392181,1455.644012 935.409607,1455.644012 905.185516Z" style="stroke:rgb(25.500488%,41.000366%,88.400269%); stroke-width: 2.500000;stroke-linecap: round;stroke-linejoin: round;stroke-miterlimit: 10.000000;fill: none;"></path>
  <path d="M1640.564636 896.712204C1640.564636 866.488113,1628.556381 837.505539,1607.186325 816.135498C1585.816284 794.765442,1556.833710 782.757187,1526.609619 782.757187C1496.385529 782.757187,1467.402954 794.765442,1446.032913 816.135498C1424.662857 837.505539,1412.654602 866.488113,1412.654602 896.712204C1412.654602 926.936295,1424.662857 955.918869,1446.032913 977.288910C1467.402954 998.658966,1496.385529 1010.667221,1526.609619 1010.667221C1556.833710 1010.667221,1585.816284 998.658966,1607.186325 977.288910C1628.556381 955.918869,1640.564636 926.936295,1640.564636 896.712204Z" style="stroke:rgb(25.500488%,41.000366%,88.400269%); stroke-width: 2.500000;stroke-linecap: round;stroke-linejoin: round;stroke-miterlimit: 10.000000;fill: none;"></path>
  <path d="M1829.663528 888.459488C1829.663528 858.235397,1817.655273 829.252823,1796.285217 807.882782C1774.915176 786.512726,1745.932602 774.504471,1715.708511 774.504471C1685.484421 774.504471,1656.501846 786.512726,1635.131805 807.882782C1613.761749 829.252823,1601.753494 858.235397,1601.753494 888.459488C1601.753494 918.683578,1613.761749 947.666153,1635.131805 969.036194C1656.501846 990.406250,1685.484421 1002.414505,1715.708511 1002.414505C1745.932602 1002.414505,1774.915176 990.406250,1796.285217 969.036194C1817.655273 947.666153,1829.663528 918.683578,1829.663528 888.459488Z" style="stroke:rgb(25.500488%,41.000366%,88.400269%); stroke-width: 2.500000;stroke-linecap: round;stroke-linejoin: round;stroke-miterlimit: 10.000000;fill: none;"></path>
  <path d="M228.246506 869.540512C228.246506 839.316422,216.238251 810.333847,194.868195 788.963806C173.498154 767.593750,144.515579 755.585495,114.291489 755.585495C84.067398 755.585495,55.084824 767.593750,33.714783 788.963806C12.344727 810.333847,0.336472 839.316422,0.336472 869.540512C0.336472 899.764603,12.344727 928.747177,33.714783 950.117218C55.084824 971.487274,84.067398 983.495529,114.291489 983.495529C144.515579 983.495529,173.498154 971.487274,194.868195 950.117218C216.238251 928.747177,228.246506 899.764603,228.246506 869.540512Z" style="stroke:rgb(25.500488%,41.000366%,88.400269%); stroke-width: 2.500000;stroke-linecap: round;stroke-linejoin: round;stroke-miterlimit: 10.000000;fill: none;"></path>
  <path d="M417.345398 861.287796C417.345398 831.063705,405.337143 802.081131,383.967087 780.711090C362.597046 759.341034,333.614471 747.332779,303.390381 747.332779C273.166290 747.332779,244.183716 759.341034,222.813675 780.711090C201.443619 802.081131,189.435364 831.063705,189.435364 861.287796C189.435364 891.511887,201.443619 920.494461,222.813675 941.864502C244.183716 963.234558,273.166290 975.242813,303.390381 975.242813C333.614471 975.242813,362.597046 963.234558,383.967087 941.864502C405.337143 920.494461,417.345398 891.511887,417.345398 861.287796Z" style="stroke:rgb(25.500488%,41.000366%,88.400269%); stroke-width: 2.500000;stroke-linecap: round;stroke-linejoin: round;stroke-miterlimit: 10.000000;fill: none;"></path>
  <path d="M602.266022 852.814484C602.266022 822.590393,590.257767 793.607819,568.887711 772.237778C547.517670 750.867722,518.535095 738.859467,488.311005 738.859467C458.086914 738.859467,429.104340 750.867722,407.734299 772.237778C386.364243 793.607819,374.355988 822.590393,374.355988 852.814484C374.355988 883.038574,386.364243 912.021149,407.734299 933.391190C429.104340 954.761246,458.086914 966.769501,488.311005 966.769501C518.535095 966.769501,547.517670 954.761246,568.887711 933.391190C590.257767 912.021149,602.266022 883.038574,602.266022 852.814484Z" style="stroke:rgb(25.500488%,41.000366%,88.400269%); stroke-width: 2.500000;stroke-linecap: round;stroke-linejoin: round;stroke-miterlimit: 10.000000;fill: none;"></path>
  <path d="M789.392563 840.123978C789.392563 809.899887,777.384308 780.917313,756.014252 759.547272C734.644211 738.177216,705.661636 726.168961,675.437546 726.168961C645.213455 726.168961,616.230881 738.177216,594.860840 759.547272C573.490784 780.917313,561.482529 809.899887,561.482529 840.123978C561.482529 870.348068,573.490784 899.330643,594.860840 920.700684C616.230881 942.070740,645.213455 954.078995,675.437546 954.078995C705.661636 954.078995,734.644211 942.070740,756.014252 920.700684C777.384308 899.330643,789.392563 870.348068,789.392563 840.123978Z" style="stroke:rgb(25.500488%,41.000366%,88.400269%); stroke-width: 2.500000;stroke-linecap: round;stroke-linejoin: round;stroke-miterlimit: 10.000000;fill: none;"></path>
  <path d="M972.950714 801.909729C972.950714 771.685638,960.942459 742.703064,939.572403 721.333023C918.202362 699.962967,889.219788 687.954712,858.995697 687.954712C828.771606 687.954712,799.789032 699.962967,778.418991 721.333023C757.048935 742.703064,745.040680 771.685638,745.040680 801.909729C745.040680 832.133820,757.048935 861.116394,778.418991 882.486435C799.789032 903.856491,828.771606 915.864746,858.995697 915.864746C889.219788 915.864746,918.202362 903.856491,939.572403 882.486435C960.942459 861.116394,972.950714 832.133820,972.950714 801.909729Z" style="stroke:rgb(25.500488%,41.000366%,88.400269%); stroke-width: 2.500000;stroke-linecap: round;stroke-linejoin: round;stroke-miterlimit: 10.000000;fill: none;"></path>
  <path d="M1171.729675 775.270050C1171.729675 745.045959,1159.721420 716.063385,1138.351364 694.693344C1116.981323 673.323288,1087.998749 661.315033,1057.774658 661.315033C1027.550568 661.315033,998.567993 673.323288,977.197952 694.693344C955.827896 716.063385,943.819641 745.045959,943.819641 775.270050C943.819641 805.494141,955.827896 834.476715,977.197952 855.846756C998.567993 877.216812,1027.550568 889.225067,1057.774658 889.225067C1087.998749 889.225067,1116.981323 877.216812,1138.351364 855.846756C1159.721420 834.476715,1171.729675 805.494141,1171.729675 775.270050Z" style="stroke:rgb(25.500488%,41.000366%,88.400269%); stroke-width: 2.500000;stroke-linecap: round;stroke-linejoin: round;stroke-miterlimit: 10.000000;fill: none;"></path>
  <path d="M1371.014709 733.746933C1371.014709 703.522842,1359.006454 674.540268,1337.636398 653.170227C1316.266357 631.800171,1287.283783 619.791916,1257.059692 619.791916C1226.835602 619.791916,1197.853027 631.800171,1176.482986 653.170227C1155.112930 674.540268,1143.104675 703.522842,1143.104675 733.746933C1143.104675 763.971024,1155.112930 792.953598,1176.482986 814.323639C1197.853027 835.693695,1226.835602 847.701950,1257.059692 847.701950C1287.283783 847.701950,1316.266357 835.693695,1337.636398 814.323639C1359.006454 792.953598,1371.014709 763.971024,1371.014709 733.746933Z" style="stroke:rgb(25.500488%,41.000366%,88.400269%); stroke-width: 2.500000;stroke-linecap: round;stroke-linejoin: round;stroke-miterlimit: 10.000000;fill: none;"></path>
  <path d="M1559.114441 722.289139C1559.114441 692.065048,1547.106186 663.082474,1525.736130 641.712433C1504.366089 620.342377,1475.383514 608.334122,1445.159424 608.334122C1414.935333 608.334122,1385.952759 620.342377,1364.582718 641.712433C1343.212662 663.082474,1331.204407 692.065048,1331.204407 722.289139C1331.204407 752.513229,1343.212662 781.495804,1364.582718 802.865845C1385.952759 824.235901,1414.935333 836.244156,1445.159424 836.244156C1475.383514 836.244156,1504.366089 824.235901,1525.736130 802.865845C1547.106186 781.495804,1559.114441 752.513229,1559.114441 722.289139Z" style="stroke:rgb(25.500488%,41.000366%,88.400269%); stroke-width: 2.500000;stroke-linecap: round;stroke-linejoin: round;stroke-miterlimit: 10.000000;fill: none;"></path>
  <path d="M1747.824051 717.397202C1747.824051 687.173111,1735.815796 658.190536,1714.445740 636.820496C1693.075699 615.450439,1664.093124 603.442184,1633.869034 603.442184C1603.644943 603.442184,1574.662369 615.450439,1553.292328 636.820496C1531.922272 658.190536,1519.914017 687.173111,1519.914017 717.397202C1519.914017 747.621292,1531.922272 776.603867,1553.292328 797.973907C1574.662369 819.343964,1603.644943 831.352219,1633.869034 831.352219C1664.093124 831.352219,1693.075699 819.343964,1714.445740 797.973907C1735.815796 776.603867,1747.824051 747.621292,1747.824051 717.397202Z" style="stroke:rgb(25.500488%,41.000366%,88.400269%); stroke-width: 2.500000;stroke-linecap: round;stroke-linejoin: round;stroke-miterlimit: 10.000000;fill: none;"></path>
  <path d="M310.306564 688.447800C310.306564 658.223709,298.298309 629.241135,276.928253 607.871094C255.558212 586.501038,226.575638 574.492783,196.351547 574.492783C166.127457 574.492783,137.144882 586.501038,115.774841 607.871094C94.404785 629.241135,82.396530 658.223709,82.396530 688.447800C82.396530 718.671890,94.404785 747.654465,115.774841 769.024506C137.144882 790.394562,166.127457 802.402817,196.351547 802.402817C226.575638 802.402817,255.558212 790.394562,276.928253 769.024506C298.298309 747.654465,310.306564 718.671890,310.306564 688.447800Z" style="stroke:rgb(25.500488%,41.000366%,88.400269%); stroke-width: 2.500000;stroke-linecap: round;stroke-linejoin: round;stroke-miterlimit: 10.000000;fill: none;"></path>
  <path d="M497.043839 677.093826C497.043839 646.869736,485.035583 617.887161,463.665527 596.517120C442.295486 575.147064,413.312912 563.138809,383.088821 563.138809C352.864731 563.138809,323.882156 575.147064,302.512115 596.517120C281.142059 617.887161,269.133804 646.869736,269.133804 677.093826C269.133804 707.317917,281.142059 736.300491,302.512115 757.670532C323.882156 779.040588,352.864731 791.048843,383.088821 791.048843C413.312912 791.048843,442.295486 779.040588,463.665527 757.670532C485.035583 736.300491,497.043839 707.317917,497.043839 677.093826Z" style="stroke:rgb(25.500488%,41.000366%,88.400269%); stroke-width: 2.500000;stroke-linecap: round;stroke-linejoin: round;stroke-miterlimit: 10.000000;fill: none;"></path>
  <path d="M681.743866 668.322067C681.743866 638.097977,669.735611 609.115402,648.365555 587.745361C626.995514 566.375305,598.012939 554.367050,567.788849 554.367050C537.564758 554.367050,508.582184 566.375305,487.212143 587.745361C465.842087 609.115402,453.833832 638.097977,453.833832 668.322067C453.833832 698.546158,465.842087 727.528732,487.212143 748.898773C508.582184 770.268829,537.564758 782.277084,567.788849 782.277084C598.012939 782.277084,626.995514 770.268829,648.365555 748.898773C669.735611 727.528732,681.743866 698.546158,681.743866 668.322067Z" style="stroke:rgb(25.500488%,41.000366%,88.400269%); stroke-width: 2.500000;stroke-linecap: round;stroke-linejoin: round;stroke-miterlimit: 10.000000;fill: none;"></path>
  <path d="M858.243088 644.031036C858.243088 613.806946,846.234833 584.824371,824.864777 563.454330C803.494736 542.084274,774.512161 530.076019,744.288071 530.076019C714.063980 530.076019,685.081406 542.084274,663.711365 563.454330C642.341309 584.824371,630.333054 613.806946,630.333054 644.031036C630.333054 674.255127,642.341309 703.237701,663.711365 724.607742C685.081406 745.977798,714.063980 757.986053,744.288071 757.986053C774.512161 757.986053,803.494736 745.977798,824.864777 724.607742C846.234833 703.237701,858.243088 674.255127,858.243088 644.031036Z" style="stroke:rgb(25.500488%,41.000366%,88.400269%); stroke-width: 2.500000;stroke-linecap: round;stroke-linejoin: round;stroke-miterlimit: 10.000000;fill: none;"></path>
  <path d="M1066.014404 639.152069C1066.014404 608.927979,1054.006149 579.945404,1032.636093 558.575363C1011.266052 537.205307,982.283478 525.197052,952.059387 525.197052C921.835297 525.197052,892.852722 537.205307,871.482681 558.575363C850.112625 579.945404,838.104370 608.927979,838.104370 639.152069C838.104370 669.376160,850.112625 698.358734,871.482681 719.728775C892.852722 741.098831,921.835297 753.107086,952.059387 753.107086C982.283478 753.107086,1011.266052 741.098831,1032.636093 719.728775C1054.006149 698.358734,1066.014404 669.376160,1066.014404 639.152069Z" style="stroke:rgb(25.500488%,41.000366%,88.400269%); stroke-width: 2.500000;stroke-linecap: round;stroke-linejoin: round;stroke-miterlimit: 10.000000;fill: none;"></path>
  <path d="M1272.799545 598.563217C1272.799545 568.339127,1260.791290 539.356552,1239.421234 517.986511C1218.051193 496.616455,1189.068619 484.608200,1158.844528 484.608200C1128.620438 484.608200,1099.637863 496.616455,1078.267822 517.986511C1056.897766 539.356552,1044.889511 568.339127,1044.889511 598.563217C1044.889511 628.787308,1056.897766 657.769882,1078.267822 679.139923C1099.637863 700.509979,1128.620438 712.518234,1158.844528 712.518234C1189.068619 712.518234,1218.051193 700.509979,1239.421234 679.139923C1260.791290 657.769882,1272.799545 628.787308,1272.799545 598.563217Z" style="stroke:rgb(25.500488%,41.000366%,88.400269%); stroke-width: 2.500000;stroke-linecap: round;stroke-linejoin: round;stroke-miterlimit: 10.000000;fill: none;"></path>
  <path d="M1476.807831 553.614441C1476.807831 523.390350,1464.799576 494.407776,1443.429520 473.037735C1422.059479 451.667679,1393.076904 439.659424,1362.852814 439.659424C1332.628723 439.659424,1303.646149 451.667679,1282.276108 473.037735C1260.906052 494.407776,1248.897797 523.390350,1248.897797 553.614441C1248.897797 583.838531,1260.906052 612.821106,1282.276108 634.191147C1303.646149 655.561203,1332.628723 667.569458,1362.852814 667.569458C1393.076904 667.569458,1422.059479 655.561203,1443.429520 634.191147C1464.799576 612.821106,1476.807831 583.838531,1476.807831 553.614441Z" style="stroke:rgb(25.500488%,41.000366%,88.400269%); stroke-width: 2.500000;stroke-linecap: round;stroke-linejoin: round;stroke-miterlimit: 10.000000;fill: none;"></path>
  <path d="M1684.942474 575.933121C1684.942474 545.709030,1672.934219 516.726456,1651.564163 495.356415C1630.194122 473.986359,1601.211548 461.978104,1570.987457 461.978104C1540.763367 461.978104,1511.780792 473.986359,1490.410751 495.356415C1469.040695 516.726456,1457.032440 545.709030,1457.032440 575.933121C1457.032440 606.157211,1469.040695 635.139786,1490.410751 656.509827C1511.780792 677.879883,1540.763367 689.888138,1570.987457 689.888138C1601.211548 689.888138,1630.194122 677.879883,1651.564163 656.509827C1672.934219 635.139786,1684.942474 606.157211,1684.942474 575.933121Z" style="stroke:rgb(25.500488%,41.000366%,88.400269%); stroke-width: 2.500000;stroke-linecap: round;stroke-linejoin: round;stroke-miterlimit: 10.000000;fill: none;"></path>
  <path d="M369.762497 515.400192C369.762497 485.176102,357.754242 456.193527,336.384186 434.823486C315.014145 413.453430,286.031570 401.445175,255.807480 401.445175C225.583389 401.445175,196.600815 413.453430,175.230774 434.823486C153.860718 456.193527,141.852463 485.176102,141.852463 515.400192C141.852463 545.624283,153.860718 574.606857,175.230774 595.976898C196.600815 617.346954,225.583389 629.355209,255.807480 629.355209C286.031570 629.355209,315.014145 617.346954,336.384186 595.976898C357.754242 574.606857,369.762497 545.624283,369.762497 515.400192Z" style="stroke:rgb(25.500488%,41.000366%,88.400269%); stroke-width: 2.500000;stroke-linecap: round;stroke-linejoin: round;stroke-miterlimit: 10.000000;fill: none;"></path>
  <path d="M561.093246 495.001953C561.093246 464.777863,549.084991 435.795288,527.714935 414.425247C506.344894 393.055191,477.362320 381.046936,447.138229 381.046936C416.914139 381.046936,387.931564 393.055191,366.561523 414.425247C345.191467 435.795288,333.183212 464.777863,333.183212 495.001953C333.183212 525.226044,345.191467 554.208618,366.561523 575.578659C387.931564 596.948715,416.914139 608.956970,447.138229 608.956970C477.362320 608.956970,506.344894 596.948715,527.714935 575.578659C549.084991 554.208618,561.093246 525.226044,561.093246 495.001953Z" style="stroke:rgb(25.500488%,41.000366%,88.400269%); stroke-width: 2.500000;stroke-linecap: round;stroke-linejoin: round;stroke-miterlimit: 10.000000;fill: none;"></path>
  <path d="M735.152985 474.616699C735.152985 444.392609,723.144730 415.410034,701.774673 394.039993C680.404633 372.669937,651.422058 360.661682,621.197968 360.661682C590.973877 360.661682,561.991302 372.669937,540.621262 394.039993C519.251205 415.410034,507.242950 444.392609,507.242950 474.616699C507.242950 504.840790,519.251205 533.823364,540.621262 555.193405C561.991302 576.563461,590.973877 588.571716,621.197968 588.571716C651.422058 588.571716,680.404633 576.563461,701.774673 555.193405C723.144730 533.823364,735.152985 504.840790,735.152985 474.616699Z" style="stroke:rgb(25.500488%,41.000366%,88.400269%); stroke-width: 2.500000;stroke-linecap: round;stroke-linejoin: round;stroke-miterlimit: 10.000000;fill: none;"></path>
  <path d="M935.891327 483.673935C935.891327 453.449844,923.883072 424.467270,902.513016 403.097229C881.142975 381.727173,852.160400 369.718918,821.936310 369.718918C791.712219 369.718918,762.729645 381.727173,741.359604 403.097229C719.989548 424.467270,707.981293 453.449844,707.981293 483.673935C707.981293 513.898026,719.989548 542.880600,741.359604 564.250641C762.729645 585.620697,791.712219 597.628952,821.936310 597.628952C852.160400 597.628952,881.142975 585.620697,902.513016 564.250641C923.883072 542.880600,935.891327 513.898026,935.891327 483.673935Z" style="stroke:rgb(25.500488%,41.000366%,88.400269%); stroke-width: 2.500000;stroke-linecap: round;stroke-linejoin: round;stroke-miterlimit: 10.000000;fill: none;"></path>
  <path d="M1135.903000 465.105316C1135.903000 434.881226,1123.894745 405.898651,1102.524689 384.528610C1081.154648 363.158554,1052.172073 351.150299,1021.947983 351.150299C991.723892 351.150299,962.741318 363.158554,941.371277 384.528610C920.001221 405.898651,907.992966 434.881226,907.992966 465.105316C907.992966 495.329407,920.001221 524.311981,941.371277 545.682022C962.741318 567.052078,991.723892 579.060333,1021.947983 579.060333C1052.172073 579.060333,1081.154648 567.052078,1102.524689 545.682022C1123.894745 524.311981,1135.903000 495.329407,1135.903000 465.105316Z" style="stroke:rgb(25.500488%,41.000366%,88.400269%); stroke-width: 2.500000;stroke-linecap: round;stroke-linejoin: round;stroke-miterlimit: 10.000000;fill: none;"></path>
  <path d="M1341.818756 423.218857C1341.818756 392.994766,1329.810501 364.012192,1308.440445 342.642151C1287.070404 321.272095,1258.087830 309.263840,1227.863739 309.263840C1197.639648 309.263840,1168.657074 321.272095,1147.287033 342.642151C1125.916977 364.012192,1113.908722 392.994766,1113.908722 423.218857C1113.908722 453.442947,1125.916977 482.425522,1147.287033 503.795563C1168.657074 525.165619,1197.639648 537.173874,1227.863739 537.173874C1258.087830 537.173874,1287.070404 525.165619,1308.440445 503.795563C1329.810501 482.425522,1341.818756 453.442947,1341.818756 423.218857Z" style="stroke:rgb(25.500488%,41.000366%,88.400269%); stroke-width: 2.500000;stroke-linecap: round;stroke-linejoin: round;stroke-miterlimit: 10.000000;fill: none;"></path>
  <path d="M1519.901047 348.775696C1519.901047 318.551605,1507.892792 289.569031,1486.522736 268.198990C1465.152695 246.828934,1436.170120 234.820679,1405.946030 234.820679C1375.721939 234.820679,1346.739365 246.828934,1325.369324 268.198990C1303.999268 289.569031,1291.991013 318.551605,1291.991013 348.775696C1291.991013 378.999786,1303.999268 407.982361,1325.369324 429.352402C1346.739365 450.722458,1375.721939 462.730713,1405.946030 462.730713C1436.170120 462.730713,1465.152695 450.722458,1486.522736 429.352402C1507.892792 407.982361,1519.901047 378.999786,1519.901047 348.775696Z" style="stroke:rgb(25.500488%,41.000366%,88.400269%); stroke-width: 2.500000;stroke-linecap: round;stroke-linejoin: round;stroke-miterlimit: 10.000000;fill: none;"></path>
  <path d="M1651.347672 426.813202C1651.347672 396.589111,1639.339417 367.606537,1617.969360 346.236496C1596.599319 324.866440,1567.616745 312.858185,1537.392654 312.858185C1507.168564 312.858185,1478.185989 324.866440,1456.815948 346.236496C1435.445892 367.606537,1423.437637 396.589111,1423.437637 426.813202C1423.437637 457.037292,1435.445892 486.019867,1456.815948 507.389908C1478.185989 528.759964,1507.168564 540.768219,1537.392654 540.768219C1567.616745 540.768219,1596.599319 528.759964,1617.969360 507.389908C1639.339417 486.019867,1651.347672 457.037292,1651.347672 426.813202Z" style="stroke:rgb(25.500488%,41.000366%,88.400269%); stroke-width: 2.500000;stroke-linecap: round;stroke-linejoin: round;stroke-miterlimit: 10.000000;fill: none;"></path>
  <path d="M425.403473 343.312805C425.403473 313.088715,413.395218 284.106140,392.025162 262.736099C370.655121 241.366043,341.672546 229.357788,311.448456 229.357788C281.224365 229.357788,252.241791 241.366043,230.871750 262.736099C209.501694 284.106140,197.493439 313.088715,197.493439 343.312805C197.493439 373.536896,209.501694 402.519470,230.871750 423.889511C252.241791 445.259567,281.224365 457.267822,311.448456 457.267822C341.672546 457.267822,370.655121 445.259567,392.025162 423.889511C413.395218 402.519470,425.403473 373.536896,425.403473 343.312805Z" style="stroke:rgb(25.500488%,41.000366%,88.400269%); stroke-width: 2.500000;stroke-linecap: round;stroke-linejoin: round;stroke-miterlimit: 10.000000;fill: none;"></path>
  <path d="M610.025650 302.399551C610.025650 272.175461,598.017395 243.192886,576.647339 221.822845C555.277298 200.452789,526.294724 188.444534,496.070633 188.444534C465.846542 188.444534,436.863968 200.452789,415.493927 221.822845C394.123871 243.192886,382.115616 272.175461,382.115616 302.399551C382.115616 332.623642,394.123871 361.606216,415.493927 382.976257C436.863968 404.346313,465.846542 416.354568,496.070633 416.354568C526.294724 416.354568,555.277298 404.346313,576.647339 382.976257C598.017395 361.606216,610.025650 332.623642,610.025650 302.399551Z" style="stroke:rgb(25.500488%,41.000366%,88.400269%); stroke-width: 2.500000;stroke-linecap: round;stroke-linejoin: round;stroke-miterlimit: 10.000000;fill: none;"></path>
  <path d="M808.324509 315.375534C808.324509 285.151443,796.316254 256.168869,774.946198 234.798828C753.576157 213.428772,724.593582 201.420517,694.369492 201.420517C664.145401 201.420517,635.162827 213.428772,613.792786 234.798828C592.422729 256.168869,580.414474 285.151443,580.414474 315.375534C580.414474 345.599625,592.422729 374.582199,613.792786 395.952240C635.162827 417.322296,664.145401 429.330551,694.369492 429.330551C724.593582 429.330551,753.576157 417.322296,774.946198 395.952240C796.316254 374.582199,808.324509 345.599625,808.324509 315.375534Z" style="stroke:rgb(25.500488%,41.000366%,88.400269%); stroke-width: 2.500000;stroke-linecap: round;stroke-linejoin: round;stroke-miterlimit: 10.000000;fill: none;"></path>
  <path d="M1001.303207 310.730133C1001.303207 280.506042,989.294952 251.523468,967.924896 230.153427C946.554855 208.783371,917.572281 196.775116,887.348190 196.775116C857.124100 196.775116,828.141525 208.783371,806.771484 230.153427C785.401428 251.523468,773.393173 280.506042,773.393173 310.730133C773.393173 340.954224,785.401428 369.936798,806.771484 391.306839C828.141525 412.676895,857.124100 424.685150,887.348190 424.685150C917.572281 424.685150,946.554855 412.676895,967.924896 391.306839C989.294952 369.936798,1001.303207 340.954224,1001.303207 310.730133Z" style="stroke:rgb(25.500488%,41.000366%,88.400269%); stroke-width: 2.500000;stroke-linecap: round;stroke-linejoin: round;stroke-miterlimit: 10.000000;fill: none;"></path>
  <path d="M1201.107285 291.850082C1201.107285 261.625992,1189.099030 232.643417,1167.728973 211.273376C1146.358932 189.903320,1117.376358 177.895065,1087.152267 177.895065C1056.928177 177.895065,1027.945602 189.903320,1006.575562 211.273376C985.205505 232.643417,973.197250 261.625992,973.197250 291.850082C973.197250 322.074173,985.205505 351.056747,1006.575562 372.426788C1027.945602 393.796844,1056.928177 405.805099,1087.152267 405.805099C1117.376358 405.805099,1146.358932 393.796844,1167.728973 372.426788C1189.099030 351.056747,1201.107285 322.074173,1201.107285 291.850082Z" style="stroke:rgb(25.500488%,41.000366%,88.400269%); stroke-width: 2.500000;stroke-linecap: round;stroke-linejoin: round;stroke-miterlimit: 10.000000;fill: none;"></path>
  <path d="M1404.791168 245.253357C1404.791168 215.029266,1392.782913 186.046692,1371.412857 164.676651C1350.042816 143.306595,1321.060242 131.298340,1290.836151 131.298340C1260.612061 131.298340,1231.629486 143.306595,1210.259445 164.676651C1188.889389 186.046692,1176.881134 215.029266,1176.881134 245.253357C1176.881134 275.477448,1188.889389 304.460022,1210.259445 325.830063C1231.629486 347.200119,1260.612061 359.208374,1290.836151 359.208374C1321.060242 359.208374,1350.042816 347.200119,1371.412857 325.830063C1392.782913 304.460022,1404.791168 275.477448,1404.791168 245.253357Z" style="stroke:rgb(25.500488%,41.000366%,88.400269%); stroke-width: 2.500000;stroke-linecap: round;stroke-linejoin: round;stroke-miterlimit: 10.000000;fill: none;"></path>
  <path d="M705.995972 139.447250C705.995972 109.223160,693.987717 80.240585,672.617661 58.870544C651.247620 37.500488,622.265045 25.492233,592.040955 25.492233C561.816864 25.492233,532.834290 37.500488,511.464249 58.870544C490.094193 80.240585,478.085938 109.223160,478.085938 139.447250C478.085938 169.671341,490.094193 198.653915,511.464249 220.023956C532.834290 241.394012,561.816864 253.402267,592.040955 253.402267C622.265045 253.402267,651.247620 241.394012,672.617661 220.023956C693.987717 198.653915,705.995972 169.671341,705.995972 139.447250Z" style="stroke:rgb(25.500488%,41.000366%,88.400269%); stroke-width: 2.500000;stroke-linecap: round;stroke-linejoin: round;stroke-miterlimit: 10.000000;fill: none;"></path>
  <path d="M886.855118 139.706772C886.855118 109.482681,874.846863 80.500107,853.476807 59.130066C832.106766 37.760010,803.124191 25.751755,772.900101 25.751755C742.676010 25.751755,713.693436 37.760010,692.323395 59.130066C670.953339 80.500107,658.945084 109.482681,658.945084 139.706772C658.945084 169.930862,670.953339 198.913437,692.323395 220.283478C713.693436 241.653534,742.676010 253.661789,772.900101 253.661789C803.124191 253.661789,832.106766 241.653534,853.476807 220.283478C874.846863 198.913437,886.855118 169.930862,886.855118 139.706772Z" style="stroke:rgb(25.500488%,41.000366%,88.400269%); stroke-width: 2.500000;stroke-linecap: round;stroke-linejoin: round;stroke-miterlimit: 10.000000;fill: none;"></path>
  <path d="M1069.790405 136.644440C1069.790405 106.420349,1057.782150 77.437775,1036.412094 56.067734C1015.042053 34.697678,986.059479 22.689423,955.835388 22.689423C925.611298 22.689423,896.628723 34.697678,875.258682 56.067734C853.888626 77.437775,841.880371 106.420349,841.880371 136.644440C841.880371 166.868530,853.888626 195.851105,875.258682 217.221146C896.628723 238.591202,925.611298 250.599457,955.835388 250.599457C986.059479 250.599457,1015.042053 238.591202,1036.412094 217.221146C1057.782150 195.851105,1069.790405 166.868530,1069.790405 136.644440Z" style="stroke:rgb(25.500488%,41.000366%,88.400269%); stroke-width: 2.500000;stroke-linecap: round;stroke-linejoin: round;stroke-miterlimit: 10.000000;fill: none;"></path>
  <path d="M1267.388565 114.559341C1267.388565 84.335251,1255.380310 55.352676,1234.010254 33.982635C1212.640213 12.612579,1183.657639 0.604324,1153.433548 0.604324C1123.209457 0.604324,1094.226883 12.612579,1072.856842 33.982635C1051.486786 55.352676,1039.478531 84.335251,1039.478531 114.559341C1039.478531 144.783432,1051.486786 173.766006,1072.856842 195.136047C1094.226883 216.506104,1123.209457 228.514359,1153.433548 228.514359C1183.657639 228.514359,1212.640213 216.506104,1234.010254 195.136047C1255.380310 173.766006,1267.388565 144.783432,1267.388565 114.559341Z" style="stroke:rgb(25.500488%,41.000366%,88.400269%); stroke-width: 2.500000;stroke-linecap: round;stroke-linejoin: round;stroke-miterlimit: 10.000000;fill: none;"></path>
</svg>
