<?xml version="1.0"?>
<!-- Created by MetaPost 2.00 on 2022.03.02:1201 -->
<svg version="1.1" xmlns="http://www.w3.org/2000/svg" xmlns:xlink="http://www.w3.org/1999/xlink" width="1713.641876" height="1703.858002" viewBox="0 0 1713.641876 1703.858002">
<!-- Original BoundingBox: -856.820938 -851.929001 856.820938 851.929001 -->
  <path d="M1706.393524 851.000000L856.000000 0.606476L5.606476 851.000000L856.000000 1701.393524L1706.393524 851.000000Z" style="fill: rgb(100.000000%,100.000000%,100.000000%);stroke: none;"></path>
  <path d="M1706.393524 851.000000L856.000000 0.606476" style="stroke:rgb(0.000000%,0.000000%,0.000000%); stroke-width: 2.500000;stroke-linecap: round;stroke-linejoin: round;stroke-miterlimit: 10.000000;fill: none;"></path>
  <path d="M856.000000 0.606476L5.606476 851.000000" style="stroke:rgb(0.000000%,0.000000%,0.000000%); stroke-width: 2.500000;stroke-linecap: round;stroke-linejoin: round;stroke-miterlimit: 10.000000;fill: none;"></path>
  <path d="M5.606476 851.000000L856.000000 1701.393524" style="stroke:rgb(0.000000%,0.000000%,0.000000%); stroke-width: 2.500000;stroke-linecap: round;stroke-linejoin: round;stroke-miterlimit: 10.000000;fill: none;"></path>
  <path d="M856.000000 1701.393524L1706.393524 851.000000" style="stroke:rgb(0.000000%,0.000000%,0.000000%); stroke-width: 2.500000;stroke-linecap: round;stroke-linejoin: round;stroke-miterlimit: 10.000000;fill: none;"></path>
  <path d="M1623.944183 1028.718964C1623.944183 989.794510,1608.479202 952.468964,1580.957550 924.947311C1553.435898 897.425659,1516.110352 881.960678,1477.185898 881.960678C1438.261444 881.960678,1400.935898 897.425659,1373.414246 924.947311C1345.892593 952.468964,1330.427612 989.794510,1330.427612 1028.718964C1330.427612 1067.643417,1345.892593 1104.968964,1373.414246 1132.490616C1400.935898 1160.012268,1438.261444 1175.477249,1477.185898 1175.477249C1516.110352 1175.477249,1553.435898 1160.012268,1580.957550 1132.490616C1608.479202 1104.968964,1623.944183 1067.643417,1623.944183 1028.718964Z" style="stroke:rgb(25.500488%,41.000366%,88.400269%); stroke-width: 2.500000;stroke-linecap: round;stroke-linejoin: round;stroke-miterlimit: 10.000000;fill: none;"></path>
  <path d="M1711.570938 812.344574C1711.570938 773.420120,1696.105957 736.094574,1668.584305 708.572922C1641.062653 681.051270,1603.737106 665.586288,1564.812653 665.586288C1525.888199 665.586288,1488.562653 681.051270,1461.041000 708.572922C1433.519348 736.094574,1418.054367 773.420120,1418.054367 812.344574C1418.054367 851.269028,1433.519348 888.594574,1461.041000 916.116226C1488.562653 943.637878,1525.888199 959.102859,1564.812653 959.102859C1603.737106 959.102859,1641.062653 943.637878,1668.584305 916.116226C1696.105957 888.594574,1711.570938 851.269028,1711.570938 812.344574Z" style="stroke:rgb(25.500488%,41.000366%,88.400269%); stroke-width: 2.500000;stroke-linecap: round;stroke-linejoin: round;stroke-miterlimit: 10.000000;fill: none;"></path>
  <path d="M1328.896454 1325.570343C1328.896454 1286.645889,1313.431473 1249.320343,1285.909821 1221.798691C1258.388168 1194.277039,1221.062622 1178.812057,1182.138168 1178.812057C1143.213715 1178.812057,1105.888168 1194.277039,1078.366516 1221.798691C1050.844864 1249.320343,1035.379883 1286.645889,1035.379883 1325.570343C1035.379883 1364.494797,1050.844864 1401.820343,1078.366516 1429.341995C1105.888168 1456.863647,1143.213715 1472.328629,1182.138168 1472.328629C1221.062622 1472.328629,1258.388168 1456.863647,1285.909821 1429.341995C1313.431473 1401.820343,1328.896454 1364.494797,1328.896454 1325.570343Z" style="stroke:rgb(25.500488%,41.000366%,88.400269%); stroke-width: 2.500000;stroke-linecap: round;stroke-linejoin: round;stroke-miterlimit: 10.000000;fill: none;"></path>
  <path d="M1409.464279 1109.974518C1409.464279 1071.050064,1393.999298 1033.724518,1366.477646 1006.202866C1338.955994 978.681213,1301.630447 963.216232,1262.705994 963.216232C1223.781540 963.216232,1186.455994 978.681213,1158.934341 1006.202866C1131.412689 1033.724518,1115.947708 1071.050064,1115.947708 1109.974518C1115.947708 1148.898972,1131.412689 1186.224518,1158.934341 1213.746170C1186.455994 1241.267822,1223.781540 1256.732803,1262.705994 1256.732803C1301.630447 1256.732803,1338.955994 1241.267822,1366.477646 1213.746170C1393.999298 1186.224518,1409.464279 1148.898972,1409.464279 1109.974518Z" style="stroke:rgb(25.500488%,41.000366%,88.400269%); stroke-width: 2.500000;stroke-linecap: round;stroke-linejoin: round;stroke-miterlimit: 10.000000;fill: none;"></path>
  <path d="M1444.525375 845.653900C1444.525375 806.729446,1429.060394 769.403900,1401.538742 741.882248C1374.017090 714.360596,1336.691544 698.895615,1297.767090 698.895615C1258.842636 698.895615,1221.517090 714.360596,1193.995438 741.882248C1166.473785 769.403900,1151.008804 806.729446,1151.008804 845.653900C1151.008804 884.578354,1166.473785 921.903900,1193.995438 949.425552C1221.517090 976.947205,1258.842636 992.412186,1297.767090 992.412186C1336.691544 992.412186,1374.017090 976.947205,1401.538742 949.425552C1429.060394 921.903900,1444.525375 884.578354,1444.525375 845.653900Z" style="stroke:rgb(25.500488%,41.000366%,88.400269%); stroke-width: 2.500000;stroke-linecap: round;stroke-linejoin: round;stroke-miterlimit: 10.000000;fill: none;"></path>
  <path d="M1532.126175 629.266525C1532.126175 590.342072,1516.661194 553.016525,1489.139542 525.494873C1461.617889 497.973221,1424.292343 482.508240,1385.367889 482.508240C1346.443436 482.508240,1309.117889 497.973221,1281.596237 525.494873C1254.074585 553.016525,1238.609604 590.342072,1238.609604 629.266525C1238.609604 668.190979,1254.074585 705.516525,1281.596237 733.038177C1309.117889 760.559830,1346.443436 776.024811,1385.367889 776.024811C1424.292343 776.024811,1461.617889 760.559830,1489.139542 733.038177C1516.661194 705.516525,1532.126175 668.190979,1532.126175 629.266525Z" style="stroke:rgb(25.500488%,41.000366%,88.400269%); stroke-width: 2.500000;stroke-linecap: round;stroke-linejoin: round;stroke-miterlimit: 10.000000;fill: none;"></path>
  <path d="M1011.906342 1554.920715C1011.906342 1515.996262,996.441360 1478.670715,968.919708 1451.149063C941.398056 1423.627411,904.072510 1408.162430,865.148056 1408.162430C826.223602 1408.162430,788.898056 1423.627411,761.376404 1451.149063C733.854752 1478.670715,718.389771 1515.996262,718.389771 1554.920715C718.389771 1593.845169,733.854752 1631.170715,761.376404 1658.692368C788.898056 1686.214020,826.223602 1701.679001,865.148056 1701.679001C904.072510 1701.679001,941.398056 1686.214020,968.919708 1658.692368C996.441360 1631.170715,1011.906342 1593.845169,1011.906342 1554.920715Z" style="stroke:rgb(25.500488%,41.000366%,88.400269%); stroke-width: 2.500000;stroke-linecap: round;stroke-linejoin: round;stroke-miterlimit: 10.000000;fill: none;"></path>
  <path d="M1113.300613 1406.086273C1113.300613 1367.161819,1097.835632 1329.836273,1070.313980 1302.314621C1042.792328 1274.792969,1005.466782 1259.327988,966.542328 1259.327988C927.617874 1259.327988,890.292328 1274.792969,862.770676 1302.314621C835.249023 1329.836273,819.784042 1367.161819,819.784042 1406.086273C819.784042 1445.010727,835.249023 1482.336273,862.770676 1509.857925C890.292328 1537.379578,927.617874 1552.844559,966.542328 1552.844559C1005.466782 1552.844559,1042.792328 1537.379578,1070.313980 1509.857925C1097.835632 1482.336273,1113.300613 1445.010727,1113.300613 1406.086273Z" style="stroke:rgb(25.500488%,41.000366%,88.400269%); stroke-width: 2.500000;stroke-linecap: round;stroke-linejoin: round;stroke-miterlimit: 10.000000;fill: none;"></path>
  <path d="M1143.041550 1144.555496C1143.041550 1105.631042,1127.576569 1068.305496,1100.054916 1040.783844C1072.533264 1013.262192,1035.207718 997.797211,996.283264 997.797211C957.358810 997.797211,920.033264 1013.262192,892.511612 1040.783844C864.989960 1068.305496,849.524979 1105.631042,849.524979 1144.555496C849.524979 1183.479950,864.989960 1220.805496,892.511612 1248.327148C920.033264 1275.848801,957.358810 1291.313782,996.283264 1291.313782C1035.207718 1291.313782,1072.533264 1275.848801,1100.054916 1248.327148C1127.576569 1220.805496,1143.041550 1183.479950,1143.041550 1144.555496Z" style="stroke:rgb(25.500488%,41.000366%,88.400269%); stroke-width: 2.500000;stroke-linecap: round;stroke-linejoin: round;stroke-miterlimit: 10.000000;fill: none;"></path>
  <path d="M1225.322220 928.401688C1225.322220 889.477234,1209.857239 852.151688,1182.335587 824.630035C1154.813934 797.108383,1117.488388 781.643402,1078.563934 781.643402C1039.639481 781.643402,1002.313934 797.108383,974.792282 824.630035C947.270630 852.151688,931.805649 889.477234,931.805649 928.401688C931.805649 967.326141,947.270630 1004.651688,974.792282 1032.173340C1002.313934 1059.694992,1039.639481 1075.159973,1078.563934 1075.159973C1117.488388 1075.159973,1154.813934 1059.694992,1182.335587 1032.173340C1209.857239 1004.651688,1225.322220 967.326141,1225.322220 928.401688Z" style="stroke:rgb(25.500488%,41.000366%,88.400269%); stroke-width: 2.500000;stroke-linecap: round;stroke-linejoin: round;stroke-miterlimit: 10.000000;fill: none;"></path>
  <path d="M1264.730255 663.756668C1264.730255 624.832214,1249.265274 587.506668,1221.743622 559.985016C1194.221970 532.463364,1156.896423 516.998383,1117.971970 516.998383C1079.047516 516.998383,1041.721970 532.463364,1014.200317 559.985016C986.678665 587.506668,971.213684 624.832214,971.213684 663.756668C971.213684 702.681122,986.678665 740.006668,1014.200317 767.528320C1041.721970 795.049973,1079.047516 810.514954,1117.971970 810.514954C1156.896423 810.514954,1194.221970 795.049973,1221.743622 767.528320C1249.265274 740.006668,1264.730255 702.681122,1264.730255 663.756668Z" style="stroke:rgb(25.500488%,41.000366%,88.400269%); stroke-width: 2.500000;stroke-linecap: round;stroke-linejoin: round;stroke-miterlimit: 10.000000;fill: none;"></path>
  <path d="M1348.827545 450.639252C1348.827545 411.714798,1333.362564 374.389252,1305.840912 346.867599C1278.319260 319.345947,1240.993713 303.880966,1202.069260 303.880966C1163.144806 303.880966,1125.819260 319.345947,1098.297607 346.867599C1070.775955 374.389252,1055.310974 411.714798,1055.310974 450.639252C1055.310974 489.563705,1070.775955 526.889252,1098.297607 554.410904C1125.819260 581.932556,1163.144806 597.397537,1202.069260 597.397537C1240.993713 597.397537,1278.319260 581.932556,1305.840912 554.410904C1333.362564 526.889252,1348.827545 489.563705,1348.827545 450.639252Z" style="stroke:rgb(25.500488%,41.000366%,88.400269%); stroke-width: 2.500000;stroke-linecap: round;stroke-linejoin: round;stroke-miterlimit: 10.000000;fill: none;"></path>
  <path d="M838.884689 1419.711044C838.884689 1380.786591,823.419708 1343.461044,795.898056 1315.939392C768.376404 1288.417740,731.050858 1272.952759,692.126404 1272.952759C653.201950 1272.952759,615.876404 1288.417740,588.354752 1315.939392C560.833099 1343.461044,545.368118 1380.786591,545.368118 1419.711044C545.368118 1458.635498,560.833099 1495.961044,588.354752 1523.482697C615.876404 1551.004349,653.201950 1566.469330,692.126404 1566.469330C731.050858 1566.469330,768.376404 1551.004349,795.898056 1523.482697C823.419708 1495.961044,838.884689 1458.635498,838.884689 1419.711044Z" style="stroke:rgb(25.500488%,41.000366%,88.400269%); stroke-width: 2.500000;stroke-linecap: round;stroke-linejoin: round;stroke-miterlimit: 10.000000;fill: none;"></path>
  <path d="M923.864349 1223.215851C923.864349 1184.291397,908.399368 1146.965851,880.877716 1119.444199C853.356064 1091.922546,816.030518 1076.457565,777.106064 1076.457565C738.181610 1076.457565,700.856064 1091.922546,673.334412 1119.444199C645.812759 1146.965851,630.347778 1184.291397,630.347778 1223.215851C630.347778 1262.140305,645.812759 1299.465851,673.334412 1326.987503C700.856064 1354.509155,738.181610 1369.974136,777.106064 1369.974136C816.030518 1369.974136,853.356064 1354.509155,880.877716 1326.987503C908.399368 1299.465851,923.864349 1262.140305,923.864349 1223.215851Z" style="stroke:rgb(25.500488%,41.000366%,88.400269%); stroke-width: 2.500000;stroke-linecap: round;stroke-linejoin: round;stroke-miterlimit: 10.000000;fill: none;"></path>
  <path d="M959.963516 959.569992C959.963516 920.645538,944.498535 883.319992,916.976883 855.798340C889.455231 828.276688,852.129684 812.811707,813.205231 812.811707C774.280777 812.811707,736.955231 828.276688,709.433578 855.798340C681.911926 883.319992,666.446945 920.645538,666.446945 959.569992C666.446945 998.494446,681.911926 1035.819992,709.433578 1063.341644C736.955231 1090.863297,774.280777 1106.328278,813.205231 1106.328278C852.129684 1106.328278,889.455231 1090.863297,916.976883 1063.341644C944.498535 1035.819992,959.963516 998.494446,959.963516 959.569992Z" style="stroke:rgb(25.500488%,41.000366%,88.400269%); stroke-width: 2.500000;stroke-linecap: round;stroke-linejoin: round;stroke-miterlimit: 10.000000;fill: none;"></path>
  <path d="M1045.553055 742.430008C1045.553055 703.505554,1030.088074 666.180008,1002.566422 638.658356C975.044769 611.136703,937.719223 595.671722,898.794769 595.671722C859.870316 595.671722,822.544769 611.136703,795.023117 638.658356C767.501465 666.180008,752.036484 703.505554,752.036484 742.430008C752.036484 781.354462,767.501465 818.680008,795.023117 846.201660C822.544769 873.723312,859.870316 889.188293,898.794769 889.188293C937.719223 889.188293,975.044769 873.723312,1002.566422 846.201660C1030.088074 818.680008,1045.553055 781.354462,1045.553055 742.430008Z" style="stroke:rgb(25.500488%,41.000366%,88.400269%); stroke-width: 2.500000;stroke-linecap: round;stroke-linejoin: round;stroke-miterlimit: 10.000000;fill: none;"></path>
  <path d="M1081.652222 478.784149C1081.652222 439.859695,1066.187241 402.534149,1038.665588 375.012497C1011.143936 347.490845,973.818390 332.025864,934.893936 332.025864C895.969482 332.025864,858.643936 347.490845,831.122284 375.012497C803.600632 402.534149,788.135651 439.859695,788.135651 478.784149C788.135651 517.708603,803.600632 555.034149,831.122284 582.555801C858.643936 610.077454,895.969482 625.542435,934.893936 625.542435C973.818390 625.542435,1011.143936 610.077454,1038.665588 582.555801C1066.187241 555.034149,1081.652222 517.708603,1081.652222 478.784149Z" style="stroke:rgb(25.500488%,41.000366%,88.400269%); stroke-width: 2.500000;stroke-linecap: round;stroke-linejoin: round;stroke-miterlimit: 10.000000;fill: none;"></path>
  <path d="M1166.631882 282.288956C1166.631882 243.364502,1151.166901 206.038956,1123.645248 178.517303C1096.123596 150.995651,1058.798050 135.530670,1019.873596 135.530670C980.949142 135.530670,943.623596 150.995651,916.101944 178.517303C888.580292 206.038956,873.115311 243.364502,873.115311 282.288956C873.115311 321.213409,888.580292 358.538956,916.101944 386.060608C943.623596 413.582260,980.949142 429.047241,1019.873596 429.047241C1058.798050 429.047241,1096.123596 413.582260,1123.645248 386.060608C1151.166901 358.538956,1166.631882 321.213409,1166.631882 282.288956Z" style="stroke:rgb(25.500488%,41.000366%,88.400269%); stroke-width: 2.500000;stroke-linecap: round;stroke-linejoin: round;stroke-miterlimit: 10.000000;fill: none;"></path>
  <path d="M656.689026 1251.360748C656.689026 1212.436295,641.224045 1175.110748,613.702393 1147.589096C586.180740 1120.067444,548.855194 1104.602463,509.930740 1104.602463C471.006287 1104.602463,433.680740 1120.067444,406.159088 1147.589096C378.637436 1175.110748,363.172455 1212.436295,363.172455 1251.360748C363.172455 1290.285202,378.637436 1327.610748,406.159088 1355.132401C433.680740 1382.654053,471.006287 1398.119034,509.930740 1398.119034C548.855194 1398.119034,586.180740 1382.654053,613.702393 1355.132401C641.224045 1327.610748,656.689026 1290.285202,656.689026 1251.360748Z" style="stroke:rgb(25.500488%,41.000366%,88.400269%); stroke-width: 2.500000;stroke-linecap: round;stroke-linejoin: round;stroke-miterlimit: 10.000000;fill: none;"></path>
  <path d="M740.786316 1038.243332C740.786316 999.318878,725.321335 961.993332,697.799683 934.471680C670.278030 906.950027,632.952484 891.485046,594.028030 891.485046C555.103577 891.485046,517.778030 906.950027,490.256378 934.471680C462.734726 961.993332,447.269745 999.318878,447.269745 1038.243332C447.269745 1077.167786,462.734726 1114.493332,490.256378 1142.014984C517.778030 1169.536636,555.103577 1185.001617,594.028030 1185.001617C632.952484 1185.001617,670.278030 1169.536636,697.799683 1142.014984C725.321335 1114.493332,740.786316 1077.167786,740.786316 1038.243332Z" style="stroke:rgb(25.500488%,41.000366%,88.400269%); stroke-width: 2.500000;stroke-linecap: round;stroke-linejoin: round;stroke-miterlimit: 10.000000;fill: none;"></path>
  <path d="M780.194351 773.598312C780.194351 734.673859,764.729370 697.348312,737.207718 669.826660C709.686066 642.305008,672.360519 626.840027,633.436066 626.840027C594.511612 626.840027,557.186066 642.305008,529.664413 669.826660C502.142761 697.348312,486.677780 734.673859,486.677780 773.598312C486.677780 812.522766,502.142761 849.848312,529.664413 877.369965C557.186066 904.891617,594.511612 920.356598,633.436066 920.356598C672.360519 920.356598,709.686066 904.891617,737.207718 877.369965C764.729370 849.848312,780.194351 812.522766,780.194351 773.598312Z" style="stroke:rgb(25.500488%,41.000366%,88.400269%); stroke-width: 2.500000;stroke-linecap: round;stroke-linejoin: round;stroke-miterlimit: 10.000000;fill: none;"></path>
  <path d="M862.475021 557.444504C862.475021 518.520050,847.010040 481.194504,819.488388 453.672852C791.966736 426.151199,754.641190 410.686218,715.716736 410.686218C676.792282 410.686218,639.466736 426.151199,611.945084 453.672852C584.423431 481.194504,568.958450 518.520050,568.958450 557.444504C568.958450 596.368958,584.423431 633.694504,611.945084 661.216156C639.466736 688.737808,676.792282 704.202789,715.716736 704.202789C754.641190 704.202789,791.966736 688.737808,819.488388 661.216156C847.010040 633.694504,862.475021 596.368958,862.475021 557.444504Z" style="stroke:rgb(25.500488%,41.000366%,88.400269%); stroke-width: 2.500000;stroke-linecap: round;stroke-linejoin: round;stroke-miterlimit: 10.000000;fill: none;"></path>
  <path d="M892.215958 295.913727C892.215958 256.989273,876.750977 219.663727,849.229324 192.142075C821.707672 164.620422,784.382126 149.155441,745.457672 149.155441C706.533218 149.155441,669.207672 164.620422,641.686020 192.142075C614.164368 219.663727,598.699387 256.989273,598.699387 295.913727C598.699387 334.838181,614.164368 372.163727,641.686020 399.685379C669.207672 427.207031,706.533218 442.672012,745.457672 442.672012C784.382126 442.672012,821.707672 427.207031,849.229324 399.685379C876.750977 372.163727,892.215958 334.838181,892.215958 295.913727Z" style="stroke:rgb(25.500488%,41.000366%,88.400269%); stroke-width: 2.500000;stroke-linecap: round;stroke-linejoin: round;stroke-miterlimit: 10.000000;fill: none;"></path>
  <path d="M993.610229 147.079285C993.610229 108.154831,978.145248 70.829285,950.623596 43.307632C923.101944 15.785980,885.776398 0.320999,846.851944 0.320999C807.927490 0.320999,770.601944 15.785980,743.080292 43.307632C715.558640 70.829285,700.093658 108.154831,700.093658 147.079285C700.093658 186.003738,715.558640 223.329285,743.080292 250.850937C770.601944 278.372589,807.927490 293.837570,846.851944 293.837570C885.776398 293.837570,923.101944 278.372589,950.623596 250.850937C978.145248 223.329285,993.610229 186.003738,993.610229 147.079285Z" style="stroke:rgb(25.500488%,41.000366%,88.400269%); stroke-width: 2.500000;stroke-linecap: round;stroke-linejoin: round;stroke-miterlimit: 10.000000;fill: none;"></path>
  <path d="M473.390396 1072.733475C473.390396 1033.809021,457.925415 996.483475,430.403763 968.961823C402.882111 941.440170,365.556564 925.975189,326.632111 925.975189C287.707657 925.975189,250.382111 941.440170,222.860458 968.961823C195.338806 996.483475,179.873825 1033.809021,179.873825 1072.733475C179.873825 1111.657928,195.338806 1148.983475,222.860458 1176.505127C250.382111 1204.026779,287.707657 1219.491760,326.632111 1219.491760C365.556564 1219.491760,402.882111 1204.026779,430.403763 1176.505127C457.925415 1148.983475,473.390396 1111.657928,473.390396 1072.733475Z" style="stroke:rgb(25.500488%,41.000366%,88.400269%); stroke-width: 2.500000;stroke-linecap: round;stroke-linejoin: round;stroke-miterlimit: 10.000000;fill: none;"></path>
  <path d="M560.991196 856.346100C560.991196 817.421646,545.526215 780.096100,518.004562 752.574448C490.482910 725.052795,453.157364 709.587814,414.232910 709.587814C375.308456 709.587814,337.982910 725.052795,310.461258 752.574448C282.939606 780.096100,267.474625 817.421646,267.474625 856.346100C267.474625 895.270554,282.939606 932.596100,310.461258 960.117752C337.982910 987.639404,375.308456 1003.104385,414.232910 1003.104385C453.157364 1003.104385,490.482910 987.639404,518.004562 960.117752C545.526215 932.596100,560.991196 895.270554,560.991196 856.346100Z" style="stroke:rgb(25.500488%,41.000366%,88.400269%); stroke-width: 2.500000;stroke-linecap: round;stroke-linejoin: round;stroke-miterlimit: 10.000000;fill: none;"></path>
  <path d="M596.052292 592.025482C596.052292 553.101028,580.587311 515.775482,553.065659 488.253830C525.544006 460.732178,488.218460 445.267197,449.294006 445.267197C410.369553 445.267197,373.044006 460.732178,345.522354 488.253830C318.000702 515.775482,302.535721 553.101028,302.535721 592.025482C302.535721 630.949936,318.000702 668.275482,345.522354 695.797134C373.044006 723.318787,410.369553 738.783768,449.294006 738.783768C488.218460 738.783768,525.544006 723.318787,553.065659 695.797134C580.587311 668.275482,596.052292 630.949936,596.052292 592.025482Z" style="stroke:rgb(25.500488%,41.000366%,88.400269%); stroke-width: 2.500000;stroke-linecap: round;stroke-linejoin: round;stroke-miterlimit: 10.000000;fill: none;"></path>
  <path d="M676.620117 376.429657C676.620117 337.505203,661.155136 300.179657,633.633484 272.658005C606.111832 245.136353,568.786285 229.671371,529.861832 229.671371C490.937378 229.671371,453.611832 245.136353,426.090179 272.658005C398.568527 300.179657,383.103546 337.505203,383.103546 376.429657C383.103546 415.354111,398.568527 452.679657,426.090179 480.201309C453.611832 507.722961,490.937378 523.187943,529.861832 523.187943C568.786285 523.187943,606.111832 507.722961,633.633484 480.201309C661.155136 452.679657,676.620117 415.354111,676.620117 376.429657Z" style="stroke:rgb(25.500488%,41.000366%,88.400269%); stroke-width: 2.500000;stroke-linecap: round;stroke-linejoin: round;stroke-miterlimit: 10.000000;fill: none;"></path>
  <path d="M293.945633 889.655426C293.945633 850.730972,278.480652 813.405426,250.959000 785.883774C223.437347 758.362122,186.111801 742.897141,147.187347 742.897141C108.262894 742.897141,70.937347 758.362122,43.415695 785.883774C15.894043 813.405426,0.429062 850.730972,0.429062 889.655426C0.429062 928.579880,15.894043 965.905426,43.415695 993.427078C70.937347 1020.948730,108.262894 1036.413712,147.187347 1036.413712C186.111801 1036.413712,223.437347 1020.948730,250.959000 993.427078C278.480652 965.905426,293.945633 928.579880,293.945633 889.655426Z" style="stroke:rgb(25.500488%,41.000366%,88.400269%); stroke-width: 2.500000;stroke-linecap: round;stroke-linejoin: round;stroke-miterlimit: 10.000000;fill: none;"></path>
  <path d="M381.572388 673.281036C381.572388 634.356583,366.107407 597.031036,338.585754 569.509384C311.064102 541.987732,273.738556 526.522751,234.814102 526.522751C195.889648 526.522751,158.564102 541.987732,131.042450 569.509384C103.520798 597.031036,88.055817 634.356583,88.055817 673.281036C88.055817 712.205490,103.520798 749.531036,131.042450 777.052689C158.564102 804.574341,195.889648 820.039322,234.814102 820.039322C273.738556 820.039322,311.064102 804.574341,338.585754 777.052689C366.107407 749.531036,381.572388 712.205490,381.572388 673.281036Z" style="stroke:rgb(25.500488%,41.000366%,88.400269%); stroke-width: 2.500000;stroke-linecap: round;stroke-linejoin: round;stroke-miterlimit: 10.000000;fill: none;"></path>
</svg>
