<?xml version="1.0"?>
<!-- Created by MetaPost 2.00 on 2022.03.02:1201 -->
<svg version="1.1" xmlns="http://www.w3.org/2000/svg" xmlns:xlink="http://www.w3.org/1999/xlink" width="1495.437851" height="1315.305374" viewBox="0 0 1495.437851 1315.305374">
<!-- Original BoundingBox: -748.886765 -463.077942 746.551086 852.227432 -->
  <path d="M748.000000 1.606476L11.535538 1277.196762L1484.464462 1277.196762L748.000000 1.606476Z" style="fill: rgb(100.000000%,100.000000%,100.000000%);stroke: none;"></path>
  <path d="M748.000000 1.606476L11.535538 1277.196762" style="stroke:rgb(0.000000%,0.000000%,0.000000%); stroke-width: 2.500000;stroke-linecap: round;stroke-linejoin: round;stroke-miterlimit: 10.000000;fill: none;"></path>
  <path d="M11.535538 1277.196762L1484.464462 1277.196762" style="stroke:rgb(0.000000%,0.000000%,0.000000%); stroke-width: 2.500000;stroke-linecap: round;stroke-linejoin: round;stroke-miterlimit: 10.000000;fill: none;"></path>
  <path d="M1484.464462 1277.196762L748.000000 1.606476" style="stroke:rgb(0.000000%,0.000000%,0.000000%); stroke-width: 2.500000;stroke-linecap: round;stroke-linejoin: round;stroke-miterlimit: 10.000000;fill: none;"></path>
  <path d="M857.231750 158.447098C857.231750 140.812363,850.225342 123.902008,837.756638 111.433319C825.287949 98.964615,808.377594 91.958206,790.742859 91.958206C773.108124 91.958206,756.197769 98.964615,743.729080 111.433319C731.260376 123.902008,724.253967 140.812363,724.253967 158.447098C724.253967 176.081833,731.260376 192.992188,743.729080 205.460876C756.197769 217.929581,773.108124 224.935989,790.742859 224.935989C808.377594 224.935989,825.287949 217.929581,837.756638 205.460876C850.225342 192.992188,857.231750 176.081833,857.231750 158.447098Z" style="stroke:rgb(25.500488%,41.000366%,88.400269%); stroke-width: 2.500000;stroke-linecap: round;stroke-linejoin: round;stroke-miterlimit: 10.000000;fill: none;"></path>
  <path d="M795.232544 259.400177C795.232544 241.765442,788.226135 224.855087,775.757431 212.386398C763.288742 199.917694,746.378387 192.911285,728.743652 192.911285C711.108917 192.911285,694.198563 199.917694,681.729874 212.386398C669.261169 224.855087,662.254761 241.765442,662.254761 259.400177C662.254761 277.034912,669.261169 293.945267,681.729874 306.413956C694.198563 318.882660,711.108917 325.889069,728.743652 325.889069C746.378387 325.889069,763.288742 318.882660,775.757431 306.413956C788.226135 293.945267,795.232544 277.034912,795.232544 259.400177Z" style="stroke:rgb(25.500488%,41.000366%,88.400269%); stroke-width: 2.500000;stroke-linecap: round;stroke-linejoin: round;stroke-miterlimit: 10.000000;fill: none;"></path>
  <path d="M734.388199 358.004623C734.388199 340.369888,727.381790 323.459534,714.913086 310.990845C702.444397 298.522141,685.534042 291.515732,667.899307 291.515732C650.264572 291.515732,633.354218 298.522141,620.885529 310.990845C608.416824 323.459534,601.410416 340.369888,601.410416 358.004623C601.410416 375.639359,608.416824 392.549713,620.885529 405.018402C633.354218 417.487106,650.264572 424.493515,667.899307 424.493515C685.534042 424.493515,702.444397 417.487106,714.913086 405.018402C727.381790 392.549713,734.388199 375.639359,734.388199 358.004623Z" style="stroke:rgb(25.500488%,41.000366%,88.400269%); stroke-width: 2.500000;stroke-linecap: round;stroke-linejoin: round;stroke-miterlimit: 10.000000;fill: none;"></path>
  <path d="M676.930573 454.390167C676.930573 436.755432,669.924164 419.845078,657.455460 407.376389C644.986771 394.907684,628.076416 387.901276,610.441681 387.901276C592.806946 387.901276,575.896591 394.907684,563.427902 407.376389C550.959198 419.845078,543.952789 436.755432,543.952789 454.390167C543.952789 472.024902,550.959198 488.935257,563.427902 501.403946C575.896591 513.872650,592.806946 520.879059,610.441681 520.879059C628.076416 520.879059,644.986771 513.872650,657.455460 501.403946C669.924164 488.935257,676.930573 472.024902,676.930573 454.390167Z" style="stroke:rgb(25.500488%,41.000366%,88.400269%); stroke-width: 2.500000;stroke-linecap: round;stroke-linejoin: round;stroke-miterlimit: 10.000000;fill: none;"></path>
  <path d="M654.443207 556.459183C654.443207 538.824448,647.436798 521.914093,634.968094 509.445404C622.499405 496.976700,605.589050 489.970291,587.954315 489.970291C570.319580 489.970291,553.409225 496.976700,540.940536 509.445404C528.471832 521.914093,521.465424 538.824448,521.465424 556.459183C521.465424 574.093918,528.471832 591.004272,540.940536 603.472961C553.409225 615.941666,570.319580 622.948074,587.954315 622.948074C605.589050 622.948074,622.499405 615.941666,634.968094 603.472961C647.436798 591.004272,654.443207 574.093918,654.443207 556.459183Z" style="stroke:rgb(25.500488%,41.000366%,88.400269%); stroke-width: 2.500000;stroke-linecap: round;stroke-linejoin: round;stroke-miterlimit: 10.000000;fill: none;"></path>
  <path d="M581.180847 621.027634C581.180847 603.392899,574.174438 586.482544,561.705734 574.013855C549.237045 561.545151,532.326691 554.538742,514.691956 554.538742C497.057220 554.538742,480.146866 561.545151,467.678177 574.013855C455.209473 586.482544,448.203064 603.392899,448.203064 621.027634C448.203064 638.662369,455.209473 655.572723,467.678177 668.041412C480.146866 680.510117,497.057220 687.516525,514.691956 687.516525C532.326691 687.516525,549.237045 680.510117,561.705734 668.041412C574.174438 655.572723,581.180847 638.662369,581.180847 621.027634Z" style="stroke:rgb(25.500488%,41.000366%,88.400269%); stroke-width: 2.500000;stroke-linecap: round;stroke-linejoin: round;stroke-miterlimit: 10.000000;fill: none;"></path>
  <path d="M526.240570 720.293854C526.240570 702.659119,519.234161 685.748764,506.765457 673.280075C494.296768 660.811371,477.386414 653.804962,459.751678 653.804962C442.116943 653.804962,425.206589 660.811371,412.737900 673.280075C400.269196 685.748764,393.262787 702.659119,393.262787 720.293854C393.262787 737.928589,400.269196 754.838943,412.737900 767.307632C425.206589 779.776337,442.116943 786.782745,459.751678 786.782745C477.386414 786.782745,494.296768 779.776337,506.765457 767.307632C519.234161 754.838943,526.240570 737.928589,526.240570 720.293854Z" style="stroke:rgb(25.500488%,41.000366%,88.400269%); stroke-width: 2.500000;stroke-linecap: round;stroke-linejoin: round;stroke-miterlimit: 10.000000;fill: none;"></path>
  <path d="M471.378143 822.246094C471.378143 804.611359,464.371735 787.701004,451.903030 775.232315C439.434341 762.763611,422.523987 755.757202,404.889252 755.757202C387.254517 755.757202,370.344162 762.763611,357.875473 775.232315C345.406769 787.701004,338.400360 804.611359,338.400360 822.246094C338.400360 839.880829,345.406769 856.791183,357.875473 869.259872C370.344162 881.728577,387.254517 888.734985,404.889252 888.734985C422.523987 888.734985,439.434341 881.728577,451.903030 869.259872C464.371735 856.791183,471.378143 839.880829,471.378143 822.246094Z" style="stroke:rgb(25.500488%,41.000366%,88.400269%); stroke-width: 2.500000;stroke-linecap: round;stroke-linejoin: round;stroke-miterlimit: 10.000000;fill: none;"></path>
  <path d="M415.114319 926.170670C415.114319 908.535934,408.107910 891.625580,395.639206 879.156891C383.170517 866.688187,366.260162 859.681778,348.625427 859.681778C330.990692 859.681778,314.080338 866.688187,301.611649 879.156891C289.142944 891.625580,282.136536 908.535934,282.136536 926.170670C282.136536 943.805405,289.142944 960.715759,301.611649 973.184448C314.080338 985.653152,330.990692 992.659561,348.625427 992.659561C366.260162 992.659561,383.170517 985.653152,395.639206 973.184448C408.107910 960.715759,415.114319 943.805405,415.114319 926.170670Z" style="stroke:rgb(25.500488%,41.000366%,88.400269%); stroke-width: 2.500000;stroke-linecap: round;stroke-linejoin: round;stroke-miterlimit: 10.000000;fill: none;"></path>
  <path d="M358.474182 1030.367752C358.474182 1012.733017,351.467773 995.822662,338.999069 983.353973C326.530380 970.885269,309.620026 963.878860,291.985291 963.878860C274.350555 963.878860,257.440201 970.885269,244.971512 983.353973C232.502808 995.822662,225.496399 1012.733017,225.496399 1030.367752C225.496399 1048.002487,232.502808 1064.912842,244.971512 1077.381531C257.440201 1089.850235,274.350555 1096.856644,291.985291 1096.856644C309.620026 1096.856644,326.530380 1089.850235,338.999069 1077.381531C351.467773 1064.912842,358.474182 1048.002487,358.474182 1030.367752Z" style="stroke:rgb(25.500488%,41.000366%,88.400269%); stroke-width: 2.500000;stroke-linecap: round;stroke-linejoin: round;stroke-miterlimit: 10.000000;fill: none;"></path>
  <path d="M300.770020 1134.746506C300.770020 1117.111771,293.763611 1100.201416,281.294907 1087.732727C268.826218 1075.264023,251.915863 1068.257614,234.281128 1068.257614C216.646393 1068.257614,199.736038 1075.264023,187.267349 1087.732727C174.798645 1100.201416,167.792236 1117.111771,167.792236 1134.746506C167.792236 1152.381241,174.798645 1169.291595,187.267349 1181.760284C199.736038 1194.228989,216.646393 1201.235397,234.281128 1201.235397C251.915863 1201.235397,268.826218 1194.228989,281.294907 1181.760284C293.763611 1169.291595,300.770020 1152.381241,300.770020 1134.746506Z" style="stroke:rgb(25.500488%,41.000366%,88.400269%); stroke-width: 2.500000;stroke-linecap: round;stroke-linejoin: round;stroke-miterlimit: 10.000000;fill: none;"></path>
  <path d="M913.845932 249.097260C913.845932 231.462524,906.839523 214.552170,894.370819 202.083481C881.902130 189.614777,864.991776 182.608368,847.357040 182.608368C829.722305 182.608368,812.811951 189.614777,800.343262 202.083481C787.874557 214.552170,780.868149 231.462524,780.868149 249.097260C780.868149 266.731995,787.874557 283.642349,800.343262 296.111038C812.811951 308.579742,829.722305 315.586151,847.357040 315.586151C864.991776 315.586151,881.902130 308.579742,894.370819 296.111038C906.839523 283.642349,913.845932 266.731995,913.845932 249.097260Z" style="stroke:rgb(25.500488%,41.000366%,88.400269%); stroke-width: 2.500000;stroke-linecap: round;stroke-linejoin: round;stroke-miterlimit: 10.000000;fill: none;"></path>
  <path d="M854.545731 349.985458C854.545731 332.350723,847.539322 315.440369,835.070618 302.971680C822.601929 290.502975,805.691574 283.496567,788.056839 283.496567C770.422104 283.496567,753.511749 290.502975,741.043060 302.971680C728.574356 315.440369,721.567947 332.350723,721.567947 349.985458C721.567947 367.620193,728.574356 384.530548,741.043060 396.999237C753.511749 409.467941,770.422104 416.474350,788.056839 416.474350C805.691574 416.474350,822.601929 409.467941,835.070618 396.999237C847.539322 384.530548,854.545731 367.620193,854.545731 349.985458Z" style="stroke:rgb(25.500488%,41.000366%,88.400269%); stroke-width: 2.500000;stroke-linecap: round;stroke-linejoin: round;stroke-miterlimit: 10.000000;fill: none;"></path>
  <path d="M798.268921 448.602875C798.268921 430.968140,791.262512 414.057785,778.793808 401.589096C766.325119 389.120392,749.414764 382.113983,731.780029 382.113983C714.145294 382.113983,697.234940 389.120392,684.766251 401.589096C672.297546 414.057785,665.291138 430.968140,665.291138 448.602875C665.291138 466.237610,672.297546 483.147964,684.766251 495.616653C697.234940 508.085358,714.145294 515.091766,731.780029 515.091766C749.414764 515.091766,766.325119 508.085358,778.793808 495.616653C791.262512 483.147964,798.268921 466.237610,798.268921 448.602875Z" style="stroke:rgb(25.500488%,41.000366%,88.400269%); stroke-width: 2.500000;stroke-linecap: round;stroke-linejoin: round;stroke-miterlimit: 10.000000;fill: none;"></path>
  <path d="M752.308014 543.651901C752.308014 526.017166,745.301605 509.106812,732.832901 496.638123C720.364212 484.169418,703.453857 477.163010,685.819122 477.163010C668.184387 477.163010,651.274033 484.169418,638.805344 496.638123C626.336639 509.106812,619.330231 526.017166,619.330231 543.651901C619.330231 561.286636,626.336639 578.196991,638.805344 590.665680C651.274033 603.134384,668.184387 610.140793,685.819122 610.140793C703.453857 610.140793,720.364212 603.134384,732.832901 590.665680C745.301605 578.196991,752.308014 561.286636,752.308014 543.651901Z" style="stroke:rgb(25.500488%,41.000366%,88.400269%); stroke-width: 2.500000;stroke-linecap: round;stroke-linejoin: round;stroke-miterlimit: 10.000000;fill: none;"></path>
  <path d="M695.771698 642.866211C695.771698 625.231476,688.765289 608.321121,676.296585 595.852432C663.827896 583.383728,646.917542 576.377319,629.282806 576.377319C611.648071 576.377319,594.737717 583.383728,582.269028 595.852432C569.800323 608.321121,562.793915 625.231476,562.793915 642.866211C562.793915 660.500946,569.800323 677.411301,582.269028 689.879990C594.737717 702.348694,611.648071 709.355103,629.282806 709.355103C646.917542 709.355103,663.827896 702.348694,676.296585 689.879990C688.765289 677.411301,695.771698 660.500946,695.771698 642.866211Z" style="stroke:rgb(25.500488%,41.000366%,88.400269%); stroke-width: 2.500000;stroke-linecap: round;stroke-linejoin: round;stroke-miterlimit: 10.000000;fill: none;"></path>
  <path d="M635.368530 729.740356C635.368530 712.105621,628.362122 695.195267,615.893417 682.726578C603.424728 670.257874,586.514374 663.251465,568.879639 663.251465C551.244904 663.251465,534.334549 670.257874,521.865860 682.726578C509.397156 695.195267,502.390747 712.105621,502.390747 729.740356C502.390747 747.375092,509.397156 764.285446,521.865860 776.754135C534.334549 789.222839,551.244904 796.229248,568.879639 796.229248C586.514374 796.229248,603.424728 789.222839,615.893417 776.754135C628.362122 764.285446,635.368530 747.375092,635.368530 729.740356Z" style="stroke:rgb(25.500488%,41.000366%,88.400269%); stroke-width: 2.500000;stroke-linecap: round;stroke-linejoin: round;stroke-miterlimit: 10.000000;fill: none;"></path>
  <path d="M578.948990 829.058472C578.948990 811.423737,571.942581 794.513382,559.473877 782.044693C547.005188 769.575989,530.094833 762.569580,512.460098 762.569580C494.825363 762.569580,477.915009 769.575989,465.446320 782.044693C452.977615 794.513382,445.971207 811.423737,445.971207 829.058472C445.971207 846.693207,452.977615 863.603561,465.446320 876.072250C477.915009 888.540955,494.825363 895.547363,512.460098 895.547363C530.094833 895.547363,547.005188 888.540955,559.473877 876.072250C571.942581 863.603561,578.948990 846.693207,578.948990 829.058472Z" style="stroke:rgb(25.500488%,41.000366%,88.400269%); stroke-width: 2.500000;stroke-linecap: round;stroke-linejoin: round;stroke-miterlimit: 10.000000;fill: none;"></path>
  <path d="M522.192062 929.998581C522.192062 912.363846,515.185654 895.453491,502.716949 882.984802C490.248260 870.516098,473.337906 863.509689,455.703171 863.509689C438.068436 863.509689,421.158081 870.516098,408.689392 882.984802C396.220688 895.453491,389.214279 912.363846,389.214279 929.998581C389.214279 947.633316,396.220688 964.543671,408.689392 977.012360C421.158081 989.481064,438.068436 996.487473,455.703171 996.487473C473.337906 996.487473,490.248260 989.481064,502.716949 977.012360C515.185654 964.543671,522.192062 947.633316,522.192062 929.998581Z" style="stroke:rgb(25.500488%,41.000366%,88.400269%); stroke-width: 2.500000;stroke-linecap: round;stroke-linejoin: round;stroke-miterlimit: 10.000000;fill: none;"></path>
  <path d="M466.019073 1033.066757C466.019073 1015.432022,459.012665 998.521667,446.543961 986.052979C434.075272 973.584274,417.164917 966.577866,399.530182 966.577866C381.895447 966.577866,364.985092 973.584274,352.516403 986.052979C340.047699 998.521667,333.041290 1015.432022,333.041290 1033.066757C333.041290 1050.701492,340.047699 1067.611847,352.516403 1080.080536C364.985092 1092.549240,381.895447 1099.555649,399.530182 1099.555649C417.164917 1099.555649,434.075272 1092.549240,446.543961 1080.080536C459.012665 1067.611847,466.019073 1050.701492,466.019073 1033.066757Z" style="stroke:rgb(25.500488%,41.000366%,88.400269%); stroke-width: 2.500000;stroke-linecap: round;stroke-linejoin: round;stroke-miterlimit: 10.000000;fill: none;"></path>
  <path d="M409.262161 1135.732681C409.262161 1118.097946,402.255753 1101.187592,389.787048 1088.718903C377.318359 1076.250198,360.408005 1069.243790,342.773270 1069.243790C325.138535 1069.243790,308.228180 1076.250198,295.759491 1088.718903C283.290787 1101.187592,276.284378 1118.097946,276.284378 1135.732681C276.284378 1153.367416,283.290787 1170.277771,295.759491 1182.746460C308.228180 1195.215164,325.138535 1202.221573,342.773270 1202.221573C360.408005 1202.221573,377.318359 1195.215164,389.787048 1182.746460C402.255753 1170.277771,409.262161 1153.367416,409.262161 1135.732681Z" style="stroke:rgb(25.500488%,41.000366%,88.400269%); stroke-width: 2.500000;stroke-linecap: round;stroke-linejoin: round;stroke-miterlimit: 10.000000;fill: none;"></path>
  <path d="M352.310593 1239.177155C352.310593 1221.542419,345.304184 1204.632065,332.835480 1192.163376C320.366791 1179.694672,303.456436 1172.688263,285.821701 1172.688263C268.186966 1172.688263,251.276611 1179.694672,238.807922 1192.163376C226.339218 1204.632065,219.332809 1221.542419,219.332809 1239.177155C219.332809 1256.811890,226.339218 1273.722244,238.807922 1286.190933C251.276611 1298.659637,268.186966 1305.666046,285.821701 1305.666046C303.456436 1305.666046,320.366791 1298.659637,332.835480 1286.190933C345.304184 1273.722244,352.310593 1256.811890,352.310593 1239.177155Z" style="stroke:rgb(25.500488%,41.000366%,88.400269%); stroke-width: 2.500000;stroke-linecap: round;stroke-linejoin: round;stroke-miterlimit: 10.000000;fill: none;"></path>
  <path d="M971.459259 344.146271C971.459259 326.511536,964.452850 309.601181,951.984146 297.132492C939.515457 284.663788,922.605103 277.657379,904.970367 277.657379C887.335632 277.657379,870.425278 284.663788,857.956589 297.132492C845.487885 309.601181,838.481476 326.511536,838.481476 344.146271C838.481476 361.781006,845.487885 378.691360,857.956589 391.160049C870.425278 403.628754,887.335632 410.635162,904.970367 410.635162C922.605103 410.635162,939.515457 403.628754,951.984146 391.160049C964.452850 378.691360,971.459259 361.781006,971.459259 344.146271Z" style="stroke:rgb(25.500488%,41.000366%,88.400269%); stroke-width: 2.500000;stroke-linecap: round;stroke-linejoin: round;stroke-miterlimit: 10.000000;fill: none;"></path>
  <path d="M916.506012 445.034485C916.506012 427.399750,909.499603 410.489395,897.030899 398.020706C884.562210 385.552002,867.651855 378.545593,850.017120 378.545593C832.382385 378.545593,815.472031 385.552002,803.003342 398.020706C790.534637 410.489395,783.528229 427.399750,783.528229 445.034485C783.528229 462.669220,790.534637 479.579575,803.003342 492.048264C815.472031 504.516968,832.382385 511.523376,850.017120 511.523376C867.651855 511.523376,884.562210 504.516968,897.030899 492.048264C909.499603 479.579575,916.506012 462.669220,916.506012 445.034485Z" style="stroke:rgb(25.500488%,41.000366%,88.400269%); stroke-width: 2.500000;stroke-linecap: round;stroke-linejoin: round;stroke-miterlimit: 10.000000;fill: none;"></path>
  <path d="M866.885880 543.132858C866.885880 525.498123,859.879471 508.587769,847.410767 496.119080C834.942078 483.650375,818.031723 476.643967,800.396988 476.643967C782.762253 476.643967,765.851898 483.650375,753.383209 496.119080C740.914505 508.587769,733.908096 525.498123,733.908096 543.132858C733.908096 560.767593,740.914505 577.677948,753.383209 590.146637C765.851898 602.615341,782.762253 609.621750,800.396988 609.621750C818.031723 609.621750,834.942078 602.615341,847.410767 590.146637C859.879471 577.677948,866.885880 560.767593,866.885880 543.132858Z" style="stroke:rgb(25.500488%,41.000366%,88.400269%); stroke-width: 2.500000;stroke-linecap: round;stroke-linejoin: round;stroke-miterlimit: 10.000000;fill: none;"></path>
  <path d="M811.102158 643.618805C811.102158 625.984070,804.095749 609.073715,791.627045 596.605026C779.158356 584.136322,762.248001 577.129913,744.613266 577.129913C726.978531 577.129913,710.068176 584.136322,697.599487 596.605026C685.130783 609.073715,678.124374 625.984070,678.124374 643.618805C678.124374 661.253540,685.130783 678.163895,697.599487 690.632584C710.068176 703.101288,726.978531 710.107697,744.613266 710.107697C762.248001 710.107697,779.158356 703.101288,791.627045 690.632584C804.095749 678.163895,811.102158 661.253540,811.102158 643.618805Z" style="stroke:rgb(25.500488%,41.000366%,88.400269%); stroke-width: 2.500000;stroke-linecap: round;stroke-linejoin: round;stroke-miterlimit: 10.000000;fill: none;"></path>
  <path d="M751.192078 742.807159C751.192078 725.172424,744.185669 708.262070,731.716965 695.793381C719.248276 683.324677,702.337921 676.318268,684.703186 676.318268C667.068451 676.318268,650.158096 683.324677,637.689407 695.793381C625.220703 708.262070,618.214294 725.172424,618.214294 742.807159C618.214294 760.441895,625.220703 777.352249,637.689407 789.820938C650.158096 802.289642,667.068451 809.296051,684.703186 809.296051C702.337921 809.296051,719.248276 802.289642,731.716965 789.820938C744.185669 777.352249,751.192078 760.441895,751.192078 742.807159Z" style="stroke:rgb(25.500488%,41.000366%,88.400269%); stroke-width: 2.500000;stroke-linecap: round;stroke-linejoin: round;stroke-miterlimit: 10.000000;fill: none;"></path>
  <path d="M691.087372 834.573257C691.087372 816.938522,684.080963 800.028168,671.612259 787.559479C659.143570 775.090775,642.233215 768.084366,624.598480 768.084366C606.963745 768.084366,590.053391 775.090775,577.584702 787.559479C565.115997 800.028168,558.109589 816.938522,558.109589 834.573257C558.109589 852.207993,565.115997 869.118347,577.584702 881.587036C590.053391 894.055740,606.963745 901.062149,624.598480 901.062149C642.233215 901.062149,659.143570 894.055740,671.612259 881.587036C684.080963 869.118347,691.087372 852.207993,691.087372 834.573257Z" style="stroke:rgb(25.500488%,41.000366%,88.400269%); stroke-width: 2.500000;stroke-linecap: round;stroke-linejoin: round;stroke-miterlimit: 10.000000;fill: none;"></path>
  <path d="M633.383209 933.904358C633.383209 916.269623,626.376801 899.359268,613.908096 886.890579C601.439407 874.421875,584.529053 867.415466,566.894318 867.415466C549.259583 867.415466,532.349228 874.421875,519.880539 886.890579C507.411835 899.359268,500.405426 916.269623,500.405426 933.904358C500.405426 951.539093,507.411835 968.449448,519.880539 980.918137C532.349228 993.386841,549.259583 1000.393250,566.894318 1000.393250C584.529053 1000.393250,601.439407 993.386841,613.908096 980.918137C626.376801 968.449448,633.383209 951.539093,633.383209 933.904358Z" style="stroke:rgb(25.500488%,41.000366%,88.400269%); stroke-width: 2.500000;stroke-linecap: round;stroke-linejoin: round;stroke-miterlimit: 10.000000;fill: none;"></path>
  <path d="M575.873672 1034.831497C575.873672 1017.196762,568.867264 1000.286407,556.398560 987.817719C543.929871 975.349014,527.019516 968.342606,509.384781 968.342606C491.750046 968.342606,474.839691 975.349014,462.371002 987.817719C449.902298 1000.286407,442.895889 1017.196762,442.895889 1034.831497C442.895889 1052.466232,449.902298 1069.376587,462.371002 1081.845276C474.839691 1094.313980,491.750046 1101.320389,509.384781 1101.320389C527.019516 1101.320389,543.929871 1094.313980,556.398560 1081.845276C568.867264 1069.376587,575.873672 1052.466232,575.873672 1034.831497Z" style="stroke:rgb(25.500488%,41.000366%,88.400269%); stroke-width: 2.500000;stroke-linecap: round;stroke-linejoin: round;stroke-miterlimit: 10.000000;fill: none;"></path>
  <path d="M519.402237 1137.899673C519.402237 1120.264938,512.395828 1103.354584,499.927124 1090.885895C487.458435 1078.417191,470.548080 1071.410782,452.913345 1071.410782C435.278610 1071.410782,418.368256 1078.417191,405.899567 1090.885895C393.430862 1103.354584,386.424454 1120.264938,386.424454 1137.899673C386.424454 1155.534409,393.430862 1172.444763,405.899567 1184.913452C418.368256 1197.382156,435.278610 1204.388565,452.913345 1204.388565C470.548080 1204.388565,487.458435 1197.382156,499.927124 1184.913452C512.395828 1172.444763,519.402237 1155.534409,519.402237 1137.899673Z" style="stroke:rgb(25.500488%,41.000366%,88.400269%); stroke-width: 2.500000;stroke-linecap: round;stroke-linejoin: round;stroke-miterlimit: 10.000000;fill: none;"></path>
  <path d="M462.139252 1240.215225C462.139252 1222.580490,455.132843 1205.670135,442.664139 1193.201447C430.195450 1180.732742,413.285095 1173.726334,395.650360 1173.726334C378.015625 1173.726334,361.105270 1180.732742,348.636581 1193.201447C336.167877 1205.670135,329.161469 1222.580490,329.161469 1240.215225C329.161469 1257.849960,336.167877 1274.760315,348.636581 1287.229004C361.105270 1299.697708,378.015625 1306.704117,395.650360 1306.704117C413.285095 1306.704117,430.195450 1299.697708,442.664139 1287.229004C455.132843 1274.760315,462.139252 1257.849960,462.139252 1240.215225Z" style="stroke:rgb(25.500488%,41.000366%,88.400269%); stroke-width: 2.500000;stroke-linecap: round;stroke-linejoin: round;stroke-miterlimit: 10.000000;fill: none;"></path>
  <path d="M1032.147903 441.738586C1032.147903 424.103851,1025.141495 407.193497,1012.672791 394.724808C1000.204102 382.256104,983.293747 375.249695,965.659012 375.249695C948.024277 375.249695,931.113922 382.256104,918.645233 394.724808C906.176529 407.193497,899.170120 424.103851,899.170120 441.738586C899.170120 459.373322,906.176529 476.283676,918.645233 488.752365C931.113922 501.221069,948.024277 508.227478,965.659012 508.227478C983.293747 508.227478,1000.204102 501.221069,1012.672791 488.752365C1025.141495 476.283676,1032.147903 459.373322,1032.147903 441.738586Z" style="stroke:rgb(25.500488%,41.000366%,88.400269%); stroke-width: 2.500000;stroke-linecap: round;stroke-linejoin: round;stroke-miterlimit: 10.000000;fill: none;"></path>
  <path d="M981.411835 542.380249C981.411835 524.745514,974.405426 507.835159,961.936722 495.366470C949.468033 482.897766,932.557678 475.891357,914.922943 475.891357C897.288208 475.891357,880.377853 482.897766,867.909164 495.366470C855.440460 507.835159,848.434052 524.745514,848.434052 542.380249C848.434052 560.014984,855.440460 576.925339,867.909164 589.394028C880.377853 601.862732,897.288208 608.869141,914.922943 608.869141C932.557678 608.869141,949.468033 601.862732,961.936722 589.394028C974.405426 576.925339,981.411835 560.014984,981.411835 542.380249Z" style="stroke:rgb(25.500488%,41.000366%,88.400269%); stroke-width: 2.500000;stroke-linecap: round;stroke-linejoin: round;stroke-miterlimit: 10.000000;fill: none;"></path>
  <path d="M925.731934 643.034897C925.731934 625.400162,918.725525 608.489807,906.256821 596.021118C893.788132 583.552414,876.877777 576.546005,859.243042 576.546005C841.608307 576.546005,824.697952 583.552414,812.229263 596.021118C799.760559 608.489807,792.754150 625.400162,792.754150 643.034897C792.754150 660.669632,799.760559 677.579987,812.229263 690.048676C824.697952 702.517380,841.608307 709.523788,859.243042 709.523788C876.877777 709.523788,893.788132 702.517380,906.256821 690.048676C918.725525 677.579987,925.731934 660.669632,925.731934 643.034897Z" style="stroke:rgb(25.500488%,41.000366%,88.400269%); stroke-width: 2.500000;stroke-linecap: round;stroke-linejoin: round;stroke-miterlimit: 10.000000;fill: none;"></path>
  <path d="M866.561478 743.494888C866.561478 725.860153,859.555069 708.949799,847.086365 696.481110C834.617676 684.012405,817.707321 677.005997,800.072586 677.005997C782.437851 677.005997,765.527496 684.012405,753.058807 696.481110C740.590103 708.949799,733.583694 725.860153,733.583694 743.494888C733.583694 761.129623,740.590103 778.039978,753.058807 790.508667C765.527496 802.977371,782.437851 809.983780,800.072586 809.983780C817.707321 809.983780,834.617676 802.977371,847.086365 790.508667C859.555069 778.039978,866.561478 761.129623,866.561478 743.494888Z" style="stroke:rgb(25.500488%,41.000366%,88.400269%); stroke-width: 2.500000;stroke-linecap: round;stroke-linejoin: round;stroke-miterlimit: 10.000000;fill: none;"></path>
  <path d="M806.236176 842.670273C806.236176 825.035538,799.229767 808.125183,786.761063 795.656494C774.292374 783.187790,757.382019 776.181381,739.747284 776.181381C722.112549 776.181381,705.202194 783.187790,692.733505 795.656494C680.264801 808.125183,673.258392 825.035538,673.258392 842.670273C673.258392 860.305008,680.264801 877.215363,692.733505 889.684052C705.202194 902.152756,722.112549 909.159164,739.747284 909.159164C757.382019 909.159164,774.292374 902.152756,786.761063 889.684052C799.229767 877.215363,806.236176 860.305008,806.236176 842.670273Z" style="stroke:rgb(25.500488%,41.000366%,88.400269%); stroke-width: 2.500000;stroke-linecap: round;stroke-linejoin: round;stroke-miterlimit: 10.000000;fill: none;"></path>
  <path d="M746.468826 938.056671C746.468826 920.421936,739.462418 903.511581,726.993713 891.042892C714.525024 878.574188,697.614670 871.567780,679.979935 871.567780C662.345200 871.567780,645.434845 878.574188,632.966156 891.042892C620.497452 903.511581,613.491043 920.421936,613.491043 938.056671C613.491043 955.691406,620.497452 972.601761,632.966156 985.070450C645.434845 997.539154,662.345200 1004.545563,679.979935 1004.545563C697.614670 1004.545563,714.525024 997.539154,726.993713 985.070450C739.462418 972.601761,746.468826 955.691406,746.468826 938.056671Z" style="stroke:rgb(25.500488%,41.000366%,88.400269%); stroke-width: 2.500000;stroke-linecap: round;stroke-linejoin: round;stroke-miterlimit: 10.000000;fill: none;"></path>
  <path d="M688.012054 1037.374786C688.012054 1019.740051,681.005646 1002.829697,668.536942 990.361008C656.068253 977.892303,639.157898 970.885895,621.523163 970.885895C603.888428 970.885895,586.978073 977.892303,574.509384 990.361008C562.040680 1002.829697,555.034271 1019.740051,555.034271 1037.374786C555.034271 1055.009521,562.040680 1071.919876,574.509384 1084.388565C586.978073 1096.857269,603.888428 1103.863678,621.523163 1103.863678C639.157898 1103.863678,656.068253 1096.857269,668.536942 1084.388565C681.005646 1071.919876,688.012054 1055.009521,688.012054 1037.374786Z" style="stroke:rgb(25.500488%,41.000366%,88.400269%); stroke-width: 2.500000;stroke-linecap: round;stroke-linejoin: round;stroke-miterlimit: 10.000000;fill: none;"></path>
  <path d="M630.191116 1138.301926C630.191116 1120.667191,623.184708 1103.756836,610.716003 1091.288147C598.247314 1078.819443,581.336960 1071.813034,563.702225 1071.813034C546.067490 1071.813034,529.157135 1078.819443,516.688446 1091.288147C504.219742 1103.756836,497.213333 1120.667191,497.213333 1138.301926C497.213333 1155.936661,504.219742 1172.847015,516.688446 1185.315704C529.157135 1197.784409,546.067490 1204.790817,563.702225 1204.790817C581.336960 1204.790817,598.247314 1197.784409,610.716003 1185.315704C623.184708 1172.847015,630.191116 1155.936661,630.191116 1138.301926Z" style="stroke:rgb(25.500488%,41.000366%,88.400269%); stroke-width: 2.500000;stroke-linecap: round;stroke-linejoin: round;stroke-miterlimit: 10.000000;fill: none;"></path>
  <path d="M573.408249 1241.344147C573.408249 1223.709412,566.401840 1206.799057,553.933136 1194.330368C541.464447 1181.861664,524.554092 1174.855255,506.919357 1174.855255C489.284622 1174.855255,472.374268 1181.861664,459.905579 1194.330368C447.436874 1206.799057,440.430466 1223.709412,440.430466 1241.344147C440.430466 1258.978882,447.436874 1275.889236,459.905579 1288.357925C472.374268 1300.826630,489.284622 1307.833038,506.919357 1307.833038C524.554092 1307.833038,541.464447 1300.826630,553.933136 1288.357925C566.401840 1275.889236,573.408249 1258.978882,573.408249 1241.344147Z" style="stroke:rgb(25.500488%,41.000366%,88.400269%); stroke-width: 2.500000;stroke-linecap: round;stroke-linejoin: round;stroke-miterlimit: 10.000000;fill: none;"></path>
  <path d="M1039.362549 643.761551C1039.362549 626.126816,1032.356140 609.216461,1019.887436 596.747772C1007.418747 584.279068,990.508392 577.272659,972.873657 577.272659C955.238922 577.272659,938.328568 584.279068,925.859879 596.747772C913.391174 609.216461,906.384766 626.126816,906.384766 643.761551C906.384766 661.396286,913.391174 678.306641,925.859879 690.775330C938.328568 703.244034,955.238922 710.250443,972.873657 710.250443C990.508392 710.250443,1007.418747 703.244034,1019.887436 690.775330C1032.356140 678.306641,1039.362549 661.396286,1039.362549 643.761551Z" style="stroke:rgb(25.500488%,41.000366%,88.400269%); stroke-width: 2.500000;stroke-linecap: round;stroke-linejoin: round;stroke-miterlimit: 10.000000;fill: none;"></path>
  <path d="M980.295898 744.403214C980.295898 726.768478,973.289490 709.858124,960.820786 697.389435C948.352097 684.920731,931.441742 677.914322,913.807007 677.914322C896.172272 677.914322,879.261917 684.920731,866.793228 697.389435C854.324524 709.858124,847.318115 726.768478,847.318115 744.403214C847.318115 762.037949,854.324524 778.948303,866.793228 791.416992C879.261917 803.885696,896.172272 810.892105,913.807007 810.892105C931.441742 810.892105,948.352097 803.885696,960.820786 791.416992C973.289490 778.948303,980.295898 762.037949,980.295898 744.403214Z" style="stroke:rgb(25.500488%,41.000366%,88.400269%); stroke-width: 2.500000;stroke-linecap: round;stroke-linejoin: round;stroke-miterlimit: 10.000000;fill: none;"></path>
  <path d="M920.710220 844.850235C920.710220 827.215500,913.703812 810.305145,901.235107 797.836456C888.766418 785.367752,871.856064 778.361343,854.221329 778.361343C836.586594 778.361343,819.676239 785.367752,807.207550 797.836456C794.738846 810.305145,787.732437 827.215500,787.732437 844.850235C787.732437 862.484970,794.738846 879.395325,807.207550 891.864014C819.676239 904.332718,836.586594 911.339127,854.221329 911.339127C871.856064 911.339127,888.766418 904.332718,901.235107 891.864014C913.703812 879.395325,920.710220 862.484970,920.710220 844.850235Z" style="stroke:rgb(25.500488%,41.000366%,88.400269%); stroke-width: 2.500000;stroke-linecap: round;stroke-linejoin: round;stroke-miterlimit: 10.000000;fill: none;"></path>
  <path d="M861.890137 944.064545C861.890137 926.429810,854.883728 909.519455,842.415024 897.050766C829.946335 884.582062,813.035980 877.575653,795.401245 877.575653C777.766510 877.575653,760.856155 884.582062,748.387466 897.050766C735.918762 909.519455,728.912354 926.429810,728.912354 944.064545C728.912354 961.699280,735.918762 978.609634,748.387466 991.078323C760.856155 1003.547028,777.766510 1010.553436,795.401245 1010.553436C813.035980 1010.553436,829.946335 1003.547028,842.415024 991.078323C854.883728 978.609634,861.890137 961.699280,861.890137 944.064545Z" style="stroke:rgb(25.500488%,41.000366%,88.400269%); stroke-width: 2.500000;stroke-linecap: round;stroke-linejoin: round;stroke-miterlimit: 10.000000;fill: none;"></path>
  <path d="M801.837311 1040.398193C801.837311 1022.763458,794.830902 1005.853104,782.362198 993.384415C769.893509 980.915710,752.983154 973.909302,735.348419 973.909302C717.713684 973.909302,700.803329 980.915710,688.334641 993.384415C675.865936 1005.853104,668.859528 1022.763458,668.859528 1040.398193C668.859528 1058.032928,675.865936 1074.943283,688.334641 1087.411972C700.803329 1099.880676,717.713684 1106.887085,735.348419 1106.887085C752.983154 1106.887085,769.893509 1099.880676,782.362198 1087.411972C794.830902 1074.943283,801.837311 1058.032928,801.837311 1040.398193Z" style="stroke:rgb(25.500488%,41.000366%,88.400269%); stroke-width: 2.500000;stroke-linecap: round;stroke-linejoin: round;stroke-miterlimit: 10.000000;fill: none;"></path>
  <path d="M743.082092 1139.716309C743.082092 1122.081573,736.075684 1105.171219,723.606979 1092.702530C711.138290 1080.233826,694.227936 1073.227417,676.593201 1073.227417C658.958466 1073.227417,642.048111 1080.233826,629.579422 1092.702530C617.110718 1105.171219,610.104309 1122.081573,610.104309 1139.716309C610.104309 1157.351044,617.110718 1174.261398,629.579422 1186.730087C642.048111 1199.198792,658.958466 1206.205200,676.593201 1206.205200C694.227936 1206.205200,711.138290 1199.198792,723.606979 1186.730087C736.075684 1174.261398,743.082092 1157.351044,743.082092 1139.716309Z" style="stroke:rgb(25.500488%,41.000366%,88.400269%); stroke-width: 2.500000;stroke-linecap: round;stroke-linejoin: round;stroke-miterlimit: 10.000000;fill: none;"></path>
  <path d="M684.962708 1240.630463C684.962708 1222.995728,677.956299 1206.085373,665.487595 1193.616684C653.018906 1181.147980,636.108551 1174.141571,618.473816 1174.141571C600.839081 1174.141571,583.928726 1181.147980,571.460037 1193.616684C558.991333 1206.085373,551.984924 1222.995728,551.984924 1240.630463C551.984924 1258.265198,558.991333 1275.175552,571.460037 1287.644241C583.928726 1300.112946,600.839081 1307.119354,618.473816 1307.119354C636.108551 1307.119354,653.018906 1300.112946,665.487595 1287.644241C677.956299 1275.175552,684.962708 1258.265198,684.962708 1240.630463Z" style="stroke:rgb(25.500488%,41.000366%,88.400269%); stroke-width: 2.500000;stroke-linecap: round;stroke-linejoin: round;stroke-miterlimit: 10.000000;fill: none;"></path>
  <path d="M1092.460236 747.426620C1092.460236 729.791885,1085.453827 712.881531,1072.985123 700.412842C1060.516434 687.944138,1043.606079 680.937729,1025.971344 680.937729C1008.336609 680.937729,991.426254 687.944138,978.957565 700.412842C966.488861 712.881531,959.482452 729.791885,959.482452 747.426620C959.482452 765.061356,966.488861 781.971710,978.957565 794.440399C991.426254 806.909103,1008.336609 813.915512,1025.971344 813.915512C1043.606079 813.915512,1060.516434 806.909103,1072.985123 794.440399C1085.453827 781.971710,1092.460236 765.061356,1092.460236 747.426620Z" style="stroke:rgb(25.500488%,41.000366%,88.400269%); stroke-width: 2.500000;stroke-linecap: round;stroke-linejoin: round;stroke-miterlimit: 10.000000;fill: none;"></path>
  <path d="M1033.237885 847.666031C1033.237885 830.031296,1026.231476 813.120941,1013.762772 800.652252C1001.294083 788.183548,984.383728 781.177139,966.748993 781.177139C949.114258 781.177139,932.203903 788.183548,919.735214 800.652252C907.266510 813.120941,900.260101 830.031296,900.260101 847.666031C900.260101 865.300766,907.266510 882.211121,919.735214 894.679810C932.203903 907.148514,949.114258 914.154922,966.748993 914.154922C984.383728 914.154922,1001.294083 907.148514,1013.762772 894.679810C1026.231476 882.211121,1033.237885 865.300766,1033.237885 847.666031Z" style="stroke:rgb(25.500488%,41.000366%,88.400269%); stroke-width: 2.500000;stroke-linecap: round;stroke-linejoin: round;stroke-miterlimit: 10.000000;fill: none;"></path>
  <path d="M975.313126 947.905441C975.313126 930.270706,968.306717 913.360352,955.838013 900.891663C943.369324 888.422958,926.458969 881.416550,908.824234 881.416550C891.189499 881.416550,874.279144 888.422958,861.810455 900.891663C849.341751 913.360352,842.335342 930.270706,842.335342 947.905441C842.335342 965.540176,849.341751 982.450531,861.810455 994.919220C874.279144 1007.387924,891.189499 1014.394333,908.824234 1014.394333C926.458969 1014.394333,943.369324 1007.387924,955.838013 994.919220C968.306717 982.450531,975.313126 965.540176,975.313126 947.905441Z" style="stroke:rgb(25.500488%,41.000366%,88.400269%); stroke-width: 2.500000;stroke-linecap: round;stroke-linejoin: round;stroke-miterlimit: 10.000000;fill: none;"></path>
  <path d="M916.778503 1047.119736C916.778503 1029.485001,909.772095 1012.574646,897.303391 1000.105957C884.834702 987.637253,867.924347 980.630844,850.289612 980.630844C832.654877 980.630844,815.744522 987.637253,803.275833 1000.105957C790.807129 1012.574646,783.800720 1029.485001,783.800720 1047.119736C783.800720 1064.754471,790.807129 1081.664825,803.275833 1094.133514C815.744522 1106.602219,832.654877 1113.608627,850.289612 1113.608627C867.924347 1113.608627,884.834702 1106.602219,897.303391 1094.133514C909.772095 1081.664825,916.778503 1064.754471,916.778503 1047.119736Z" style="stroke:rgb(25.500488%,41.000366%,88.400269%); stroke-width: 2.500000;stroke-linecap: round;stroke-linejoin: round;stroke-miterlimit: 10.000000;fill: none;"></path>
  <path d="M856.440216 1143.453384C856.440216 1125.818649,849.433807 1108.908295,836.965103 1096.439606C824.496414 1083.970901,807.586060 1076.964493,789.951324 1076.964493C772.316589 1076.964493,755.406235 1083.970901,742.937546 1096.439606C730.468842 1108.908295,723.462433 1125.818649,723.462433 1143.453384C723.462433 1161.088120,730.468842 1177.998474,742.937546 1190.467163C755.406235 1202.935867,772.316589 1209.942276,789.951324 1209.942276C807.586060 1209.942276,824.496414 1202.935867,836.965103 1190.467163C849.433807 1177.998474,856.440216 1161.088120,856.440216 1143.453384Z" style="stroke:rgb(25.500488%,41.000366%,88.400269%); stroke-width: 2.500000;stroke-linecap: round;stroke-linejoin: round;stroke-miterlimit: 10.000000;fill: none;"></path>
  <path d="M1206.960251 748.659332C1206.960251 731.024597,1199.953842 714.114243,1187.485138 701.645554C1175.016449 689.176849,1158.106094 682.170441,1140.471359 682.170441C1122.836624 682.170441,1105.926270 689.176849,1093.457581 701.645554C1080.988876 714.114243,1073.982468 731.024597,1073.982468 748.659332C1073.982468 766.294067,1080.988876 783.204422,1093.457581 795.673111C1105.926270 808.141815,1122.836624 815.148224,1140.471359 815.148224C1158.106094 815.148224,1175.016449 808.141815,1187.485138 795.673111C1199.953842 783.204422,1206.960251 766.294067,1206.960251 748.659332Z" style="stroke:rgb(25.500488%,41.000366%,88.400269%); stroke-width: 2.500000;stroke-linecap: round;stroke-linejoin: round;stroke-miterlimit: 10.000000;fill: none;"></path>
  <path d="M1147.400513 848.314819C1147.400513 830.680084,1140.394104 813.769730,1127.925400 801.301041C1115.456711 788.832336,1098.546356 781.825928,1080.911621 781.825928C1063.276886 781.825928,1046.366531 788.832336,1033.897842 801.301041C1021.429138 813.769730,1014.422729 830.680084,1014.422729 848.314819C1014.422729 865.949554,1021.429138 882.859909,1033.897842 895.328598C1046.366531 907.797302,1063.276886 914.803711,1080.911621 914.803711C1098.546356 914.803711,1115.456711 907.797302,1127.925400 895.328598C1140.394104 882.859909,1147.400513 865.949554,1147.400513 848.314819Z" style="stroke:rgb(25.500488%,41.000366%,88.400269%); stroke-width: 2.500000;stroke-linecap: round;stroke-linejoin: round;stroke-miterlimit: 10.000000;fill: none;"></path>
  <path d="M1089.488739 948.580185C1089.488739 930.945450,1082.482330 914.035095,1070.013626 901.566406C1057.544937 889.097702,1040.634583 882.091293,1022.999847 882.091293C1005.365112 882.091293,988.454758 889.097702,975.986069 901.566406C963.517365 914.035095,956.510956 930.945450,956.510956 948.580185C956.510956 966.214920,963.517365 983.125275,975.986069 995.593964C988.454758 1008.062668,1005.365112 1015.069077,1022.999847 1015.069077C1040.634583 1015.069077,1057.544937 1008.062668,1070.013626 995.593964C1082.482330 983.125275,1089.488739 966.214920,1089.488739 948.580185Z" style="stroke:rgb(25.500488%,41.000366%,88.400269%); stroke-width: 2.500000;stroke-linecap: round;stroke-linejoin: round;stroke-miterlimit: 10.000000;fill: none;"></path>
  <path d="M1031.563980 1048.819595C1031.563980 1031.184860,1024.557571 1014.274506,1012.088867 1001.805817C999.620178 989.337112,982.709824 982.330704,965.075089 982.330704C947.440353 982.330704,930.529999 989.337112,918.061310 1001.805817C905.592606 1014.274506,898.586197 1031.184860,898.586197 1048.819595C898.586197 1066.454330,905.592606 1083.364685,918.061310 1095.833374C930.529999 1108.302078,947.440353 1115.308487,965.075089 1115.308487C982.709824 1115.308487,999.620178 1108.302078,1012.088867 1095.833374C1024.557571 1083.364685,1031.563980 1066.454330,1031.563980 1048.819595Z" style="stroke:rgb(25.500488%,41.000366%,88.400269%); stroke-width: 2.500000;stroke-linecap: round;stroke-linejoin: round;stroke-miterlimit: 10.000000;fill: none;"></path>
  <path d="M972.743881 1148.020920C972.743881 1130.386185,965.737473 1113.475830,953.268768 1101.007141C940.800079 1088.538437,923.889725 1081.532028,906.254990 1081.532028C888.620255 1081.532028,871.709900 1088.538437,859.241211 1101.007141C846.772507 1113.475830,839.766098 1130.386185,839.766098 1148.020920C839.766098 1165.655655,846.772507 1182.566010,859.241211 1195.034698C871.709900 1207.503403,888.620255 1214.509811,906.254990 1214.509811C923.889725 1214.509811,940.800079 1207.503403,953.268768 1195.034698C965.737473 1182.566010,972.743881 1165.655655,972.743881 1148.020920Z" style="stroke:rgb(25.500488%,41.000366%,88.400269%); stroke-width: 2.500000;stroke-linecap: round;stroke-linejoin: round;stroke-miterlimit: 10.000000;fill: none;"></path>
  <path d="M912.094177 1244.354568C912.094177 1226.719833,905.087769 1209.809479,892.619064 1197.340790C880.150375 1184.872086,863.240021 1177.865677,845.605286 1177.865677C827.970551 1177.865677,811.060196 1184.872086,798.591507 1197.340790C786.122803 1209.809479,779.116394 1226.719833,779.116394 1244.354568C779.116394 1261.989304,786.122803 1278.899658,798.591507 1291.368347C811.060196 1303.837051,827.970551 1310.843460,845.605286 1310.843460C863.240021 1310.843460,880.150375 1303.837051,892.619064 1291.368347C905.087769 1278.899658,912.094177 1261.989304,912.094177 1244.354568Z" style="stroke:rgb(25.500488%,41.000366%,88.400269%); stroke-width: 2.500000;stroke-linecap: round;stroke-linejoin: round;stroke-miterlimit: 10.000000;fill: none;"></path>
  <path d="M1204.585648 947.658890C1204.585648 930.024155,1197.579239 913.113800,1185.110535 900.645111C1172.641846 888.176407,1155.731491 881.169998,1138.096756 881.169998C1120.462021 881.169998,1103.551666 888.176407,1091.082977 900.645111C1078.614273 913.113800,1071.607864 930.024155,1071.607864 947.658890C1071.607864 965.293625,1078.614273 982.203979,1091.082977 994.672668C1103.551666 1007.141373,1120.462021 1014.147781,1138.096756 1014.147781C1155.731491 1014.147781,1172.641846 1007.141373,1185.110535 994.672668C1197.579239 982.203979,1204.585648 965.293625,1204.585648 947.658890Z" style="stroke:rgb(25.500488%,41.000366%,88.400269%); stroke-width: 2.500000;stroke-linecap: round;stroke-linejoin: round;stroke-miterlimit: 10.000000;fill: none;"></path>
  <path d="M1146.673859 1047.911270C1146.673859 1030.276535,1139.667450 1013.366180,1127.198746 1000.897491C1114.730057 988.428787,1097.819702 981.422379,1080.184967 981.422379C1062.550232 981.422379,1045.639877 988.428787,1033.171188 1000.897491C1020.702484 1013.366180,1013.696075 1030.276535,1013.696075 1047.911270C1013.696075 1065.546005,1020.702484 1082.456360,1033.171188 1094.925049C1045.639877 1107.393753,1062.550232 1114.400162,1080.184967 1114.400162C1097.819702 1114.400162,1114.730057 1107.393753,1127.198746 1094.925049C1139.667450 1082.456360,1146.673859 1065.546005,1146.673859 1047.911270Z" style="stroke:rgb(25.500488%,41.000366%,88.400269%); stroke-width: 2.500000;stroke-linecap: round;stroke-linejoin: round;stroke-miterlimit: 10.000000;fill: none;"></path>
  <path d="M1088.463638 1148.137711C1088.463638 1130.502975,1081.457230 1113.592621,1068.988525 1101.123932C1056.519836 1088.655228,1039.609482 1081.648819,1021.974747 1081.648819C1004.340012 1081.648819,987.429657 1088.655228,974.960968 1101.123932C962.492264 1113.592621,955.485855 1130.502975,955.485855 1148.137711C955.485855 1165.772446,962.492264 1182.682800,974.960968 1195.151489C987.429657 1207.620193,1004.340012 1214.626602,1021.974747 1214.626602C1039.609482 1214.626602,1056.519836 1207.620193,1068.988525 1195.151489C1081.457230 1182.682800,1088.463638 1165.772446,1088.463638 1148.137711Z" style="stroke:rgb(25.500488%,41.000366%,88.400269%); stroke-width: 2.500000;stroke-linecap: round;stroke-linejoin: round;stroke-miterlimit: 10.000000;fill: none;"></path>
  <path d="M1029.332123 1247.339050C1029.332123 1229.704315,1022.325714 1212.793961,1009.857010 1200.325272C997.388321 1187.856567,980.477966 1180.850159,962.843231 1180.850159C945.208496 1180.850159,928.298141 1187.856567,915.829453 1200.325272C903.360748 1212.793961,896.354340 1229.704315,896.354340 1247.339050C896.354340 1264.973785,903.360748 1281.884140,915.829453 1294.352829C928.298141 1306.821533,945.208496 1313.827942,962.843231 1313.827942C980.477966 1313.827942,997.388321 1306.821533,1009.857010 1294.352829C1022.325714 1281.884140,1029.332123 1264.973785,1029.332123 1247.339050Z" style="stroke:rgb(25.500488%,41.000366%,88.400269%); stroke-width: 2.500000;stroke-linecap: round;stroke-linejoin: round;stroke-miterlimit: 10.000000;fill: none;"></path>
  <path d="M1262.497421 1045.692383C1262.497421 1028.057648,1255.491013 1011.147293,1243.022308 998.678604C1230.553619 986.209900,1213.643265 979.203491,1196.008530 979.203491C1178.373795 979.203491,1161.463440 986.209900,1148.994751 998.678604C1136.526047 1011.147293,1129.519638 1028.057648,1129.519638 1045.692383C1129.519638 1063.327118,1136.526047 1080.237473,1148.994751 1092.706161C1161.463440 1105.174866,1178.373795 1112.181274,1196.008530 1112.181274C1213.643265 1112.181274,1230.553619 1105.174866,1243.022308 1092.706161C1255.491013 1080.237473,1262.497421 1063.327118,1262.497421 1045.692383Z" style="stroke:rgb(25.500488%,41.000366%,88.400269%); stroke-width: 2.500000;stroke-linecap: round;stroke-linejoin: round;stroke-miterlimit: 10.000000;fill: none;"></path>
  <path d="M1204.637543 1145.282990C1204.637543 1127.648254,1197.631134 1110.737900,1185.162430 1098.269211C1172.693741 1085.800507,1155.783386 1078.794098,1138.148651 1078.794098C1120.513916 1078.794098,1103.603561 1085.800507,1091.134872 1098.269211C1078.666168 1110.737900,1071.659760 1127.648254,1071.659760 1145.282990C1071.659760 1162.917725,1078.666168 1179.828079,1091.134872 1192.296768C1103.603561 1204.765472,1120.513916 1211.771881,1138.148651 1211.771881C1155.783386 1211.771881,1172.693741 1204.765472,1185.162430 1192.296768C1197.631134 1179.828079,1204.637543 1162.917725,1204.637543 1145.282990Z" style="stroke:rgb(25.500488%,41.000366%,88.400269%); stroke-width: 2.500000;stroke-linecap: round;stroke-linejoin: round;stroke-miterlimit: 10.000000;fill: none;"></path>
  <path d="M1146.634933 1244.484329C1146.634933 1226.849594,1139.628525 1209.939240,1127.159821 1197.470551C1114.691132 1185.001846,1097.780777 1177.995438,1080.146042 1177.995438C1062.511307 1177.995438,1045.600952 1185.001846,1033.132263 1197.470551C1020.663559 1209.939240,1013.657150 1226.849594,1013.657150 1244.484329C1013.657150 1262.119064,1020.663559 1279.029419,1033.132263 1291.498108C1045.600952 1303.966812,1062.511307 1310.973221,1080.146042 1310.973221C1097.780777 1310.973221,1114.691132 1303.966812,1127.159821 1291.498108C1139.628525 1279.029419,1146.634933 1262.119064,1146.634933 1244.484329Z" style="stroke:rgb(25.500488%,41.000366%,88.400269%); stroke-width: 2.500000;stroke-linecap: round;stroke-linejoin: round;stroke-miterlimit: 10.000000;fill: none;"></path>
  <path d="M1320.214554 1144.893723C1320.214554 1127.258987,1313.208145 1110.348633,1300.739441 1097.879944C1288.270752 1085.411240,1271.360397 1078.404831,1253.725662 1078.404831C1236.090927 1078.404831,1219.180573 1085.411240,1206.711884 1097.879944C1194.243179 1110.348633,1187.236771 1127.258987,1187.236771 1144.893723C1187.236771 1162.528458,1194.243179 1179.438812,1206.711884 1191.907501C1219.180573 1204.376205,1236.090927 1211.382614,1253.725662 1211.382614C1271.360397 1211.382614,1288.270752 1204.376205,1300.739441 1191.907501C1313.208145 1179.438812,1320.214554 1162.528458,1320.214554 1144.893723Z" style="stroke:rgb(25.500488%,41.000366%,88.400269%); stroke-width: 2.500000;stroke-linecap: round;stroke-linejoin: round;stroke-miterlimit: 10.000000;fill: none;"></path>
  <path d="M1262.432541 1244.484329C1262.432541 1226.849594,1255.426132 1209.939240,1242.957428 1197.470551C1230.488739 1185.001846,1213.578384 1177.995438,1195.943649 1177.995438C1178.308914 1177.995438,1161.398560 1185.001846,1148.929871 1197.470551C1136.461166 1209.939240,1129.454758 1226.849594,1129.454758 1244.484329C1129.454758 1262.119064,1136.461166 1279.029419,1148.929871 1291.498108C1161.398560 1303.966812,1178.308914 1310.973221,1195.943649 1310.973221C1213.578384 1310.973221,1230.488739 1303.966812,1242.957428 1291.498108C1255.426132 1279.029419,1262.432541 1262.119064,1262.432541 1244.484329Z" style="stroke:rgb(25.500488%,41.000366%,88.400269%); stroke-width: 2.500000;stroke-linecap: round;stroke-linejoin: round;stroke-miterlimit: 10.000000;fill: none;"></path>
  <path d="M1377.996582 1244.095047C1377.996582 1226.460312,1370.990173 1209.549957,1358.521469 1197.081268C1346.052780 1184.612564,1329.142426 1177.606155,1311.507690 1177.606155C1293.872955 1177.606155,1276.962601 1184.612564,1264.493912 1197.081268C1252.025208 1209.549957,1245.018799 1226.460312,1245.018799 1244.095047C1245.018799 1261.729782,1252.025208 1278.640137,1264.493912 1291.108826C1276.962601 1303.577530,1293.872955 1310.583939,1311.507690 1310.583939C1329.142426 1310.583939,1346.052780 1303.577530,1358.521469 1291.108826C1370.990173 1278.640137,1377.996582 1261.729782,1377.996582 1244.095047Z" style="stroke:rgb(25.500488%,41.000366%,88.400269%); stroke-width: 2.500000;stroke-linecap: round;stroke-linejoin: round;stroke-miterlimit: 10.000000;fill: none;"></path>
  <path d="M243.195618 1239.190125C243.195618 1221.555389,236.189209 1204.645035,223.720505 1192.176346C211.251816 1179.707642,194.341461 1172.701233,176.706726 1172.701233C159.071991 1172.701233,142.161636 1179.707642,129.692947 1192.176346C117.224243 1204.645035,110.217834 1221.555389,110.217834 1239.190125C110.217834 1256.824860,117.224243 1273.735214,129.692947 1286.203903C142.161636 1298.672607,159.071991 1305.679016,176.706726 1305.679016C194.341461 1305.679016,211.251816 1298.672607,223.720505 1286.203903C236.189209 1273.735214,243.195618 1256.824860,243.195618 1239.190125Z" style="stroke:rgb(25.500488%,41.000366%,88.400269%); stroke-width: 2.500000;stroke-linecap: round;stroke-linejoin: round;stroke-miterlimit: 10.000000;fill: none;"></path>
  <path d="M1493.301086 1244.030167C1493.301086 1226.395432,1486.294678 1209.485077,1473.825974 1197.016388C1461.357285 1184.547684,1444.446930 1177.541275,1426.812195 1177.541275C1409.177460 1177.541275,1392.267105 1184.547684,1379.798416 1197.016388C1367.329712 1209.485077,1360.323303 1226.395432,1360.323303 1244.030167C1360.323303 1261.664902,1367.329712 1278.575256,1379.798416 1291.043945C1392.267105 1303.512650,1409.177460 1310.519058,1426.812195 1310.519058C1444.446930 1310.519058,1461.357285 1303.512650,1473.825974 1291.043945C1486.294678 1278.575256,1493.301086 1261.664902,1493.301086 1244.030167Z" style="stroke:rgb(25.500488%,41.000366%,88.400269%); stroke-width: 2.500000;stroke-linecap: round;stroke-linejoin: round;stroke-miterlimit: 10.000000;fill: none;"></path>
  <path d="M797.386551 1242.771500C797.386551 1225.136765,790.380142 1208.226410,777.911438 1195.757721C765.442749 1183.289017,748.532394 1176.282608,730.897659 1176.282608C713.262924 1176.282608,696.352570 1183.289017,683.883881 1195.757721C671.415176 1208.226410,664.408768 1225.136765,664.408768 1242.771500C664.408768 1260.406235,671.415176 1277.316589,683.883881 1289.785278C696.352570 1302.253983,713.262924 1309.260391,730.897659 1309.260391C748.532394 1309.260391,765.442749 1302.253983,777.911438 1289.785278C790.380142 1277.316589,797.386551 1260.406235,797.386551 1242.771500Z" style="stroke:rgb(25.500488%,41.000366%,88.400269%); stroke-width: 2.500000;stroke-linecap: round;stroke-linejoin: round;stroke-miterlimit: 10.000000;fill: none;"></path>
  <path d="M1262.834793 847.990417C1262.834793 830.355682,1255.828384 813.445328,1243.359680 800.976639C1230.890991 788.507935,1213.980637 781.501526,1196.345901 781.501526C1178.711166 781.501526,1161.800812 788.507935,1149.332123 800.976639C1136.863419 813.445328,1129.857010 830.355682,1129.857010 847.990417C1129.857010 865.625153,1136.863419 882.535507,1149.332123 895.004196C1161.800812 907.472900,1178.711166 914.479309,1196.345901 914.479309C1213.980637 914.479309,1230.890991 907.472900,1243.359680 895.004196C1255.828384 882.535507,1262.834793 865.625153,1262.834793 847.990417Z" style="stroke:rgb(25.500488%,41.000366%,88.400269%); stroke-width: 2.500000;stroke-linecap: round;stroke-linejoin: round;stroke-miterlimit: 10.000000;fill: none;"></path>
  <path d="M1150.514755 647.745178C1150.514755 630.110443,1143.508347 613.200089,1131.039642 600.731400C1118.570953 588.262695,1101.660599 581.256287,1084.025864 581.256287C1066.391129 581.256287,1049.480774 588.262695,1037.012085 600.731400C1024.543381 613.200089,1017.536972 630.110443,1017.536972 647.745178C1017.536972 665.379913,1024.543381 682.290268,1037.012085 694.758957C1049.480774 707.227661,1066.391129 714.234070,1084.025864 714.234070C1101.660599 714.234070,1118.570953 707.227661,1131.039642 694.758957C1143.508347 682.290268,1150.514755 665.379913,1150.514755 647.745178Z" style="stroke:rgb(25.500488%,41.000366%,88.400269%); stroke-width: 2.500000;stroke-linecap: round;stroke-linejoin: round;stroke-miterlimit: 10.000000;fill: none;"></path>
  <path d="M1378.022522 1045.238220C1378.022522 1027.603485,1371.016113 1010.693130,1358.547409 998.224442C1346.078720 985.755737,1329.168365 978.749329,1311.533630 978.749329C1293.898895 978.749329,1276.988541 985.755737,1264.519852 998.224442C1252.051147 1010.693130,1245.044739 1027.603485,1245.044739 1045.238220C1245.044739 1062.872955,1252.051147 1079.783310,1264.519852 1092.251999C1276.988541 1104.720703,1293.898895 1111.727112,1311.533630 1111.727112C1329.168365 1111.727112,1346.078720 1104.720703,1358.547409 1092.251999C1371.016113 1079.783310,1378.022522 1062.872955,1378.022522 1045.238220Z" style="stroke:rgb(25.500488%,41.000366%,88.400269%); stroke-width: 2.500000;stroke-linecap: round;stroke-linejoin: round;stroke-miterlimit: 10.000000;fill: none;"></path>
  <path d="M1094.886749 542.847382C1094.886749 525.212646,1087.880341 508.302292,1075.411636 495.833603C1062.942947 483.364899,1046.032593 476.358490,1028.397858 476.358490C1010.763123 476.358490,993.852768 483.364899,981.384079 495.833603C968.915375 508.302292,961.908966 525.212646,961.908966 542.847382C961.908966 560.482117,968.915375 577.392471,981.384079 589.861160C993.852768 602.329865,1010.763123 609.336273,1028.397858 609.336273C1046.032593 609.336273,1062.942947 602.329865,1075.411636 589.861160C1087.880341 577.392471,1094.886749 560.482117,1094.886749 542.847382Z" style="stroke:rgb(25.500488%,41.000366%,88.400269%); stroke-width: 2.500000;stroke-linecap: round;stroke-linejoin: round;stroke-miterlimit: 10.000000;fill: none;"></path>
  <path d="M192.238968 1135.901367C192.238968 1118.266632,185.232559 1101.356277,172.763855 1088.887589C160.295166 1076.418884,143.384811 1069.412476,125.750076 1069.412476C108.115341 1069.412476,91.204987 1076.418884,78.736298 1088.887589C66.267593 1101.356277,59.261185 1118.266632,59.261185 1135.901367C59.261185 1153.536102,66.267593 1170.446457,78.736298 1182.915146C91.204987 1195.383850,108.115341 1202.390259,125.750076 1202.390259C143.384811 1202.390259,160.295166 1195.383850,172.763855 1182.915146C185.232559 1170.446457,192.238968 1153.536102,192.238968 1135.901367Z" style="stroke:rgb(25.500488%,41.000366%,88.400269%); stroke-width: 2.500000;stroke-linecap: round;stroke-linejoin: round;stroke-miterlimit: 10.000000;fill: none;"></path>
  <path d="M1435.726685 1144.439560C1435.726685 1126.804825,1428.720276 1109.894470,1416.251572 1097.425781C1403.782883 1084.957077,1386.872528 1077.950668,1369.237793 1077.950668C1351.603058 1077.950668,1334.692703 1084.957077,1322.224014 1097.425781C1309.755310 1109.894470,1302.748901 1126.804825,1302.748901 1144.439560C1302.748901 1162.074295,1309.755310 1178.984650,1322.224014 1191.453339C1334.692703 1203.922043,1351.603058 1210.928452,1369.237793 1210.928452C1386.872528 1210.928452,1403.782883 1203.922043,1416.251572 1191.453339C1428.720276 1178.984650,1435.726685 1162.074295,1435.726685 1144.439560Z" style="stroke:rgb(25.500488%,41.000366%,88.400269%); stroke-width: 2.500000;stroke-linecap: round;stroke-linejoin: round;stroke-miterlimit: 10.000000;fill: none;"></path>
  <path d="M1320.746567 946.036896C1320.746567 928.402161,1313.740158 911.491806,1301.271454 899.023117C1288.802765 886.554413,1271.892410 879.548004,1254.257675 879.548004C1236.622940 879.548004,1219.712585 886.554413,1207.243896 899.023117C1194.775192 911.491806,1187.768784 928.402161,1187.768784 946.036896C1187.768784 963.671631,1194.775192 980.581985,1207.243896 993.050674C1219.712585 1005.519379,1236.622940 1012.525787,1254.257675 1012.525787C1271.892410 1012.525787,1288.802765 1005.519379,1301.271454 993.050674C1313.740158 980.581985,1320.746567 963.671631,1320.746567 946.036896Z" style="stroke:rgb(25.500488%,41.000366%,88.400269%); stroke-width: 2.500000;stroke-linecap: round;stroke-linejoin: round;stroke-miterlimit: 10.000000;fill: none;"></path>
  <path d="M805.522491 67.511459C805.522491 49.876724,798.516083 32.966370,786.047379 20.497681C773.578690 8.028976,756.668335 1.022568,739.033600 1.022568C721.398865 1.022568,704.488510 8.028976,692.019821 20.497681C679.551117 32.966370,672.544708 49.876724,672.544708 67.511459C672.544708 85.146194,679.551117 102.056549,692.019821 114.525238C704.488510 126.993942,721.398865 134.000351,739.033600 134.000351C756.668335 134.000351,773.578690 126.993942,786.047379 114.525238C798.516083 102.056549,805.522491 85.146194,805.522491 67.511459Z" style="stroke:rgb(25.500488%,41.000366%,88.400269%); stroke-width: 2.500000;stroke-linecap: round;stroke-linejoin: round;stroke-miterlimit: 10.000000;fill: none;"></path>
  <path d="M433.254730 710.055801C433.254730 692.421066,426.248322 675.510712,413.779617 663.042023C401.310928 650.573318,384.400574 643.566910,366.765839 643.566910C349.131104 643.566910,332.220749 650.573318,319.752060 663.042023C307.283356 675.510712,300.276947 692.421066,300.276947 710.055801C300.276947 727.690536,307.283356 744.600891,319.752060 757.069580C332.220749 769.538284,349.131104 776.544693,366.765839 776.544693C384.400574 776.544693,401.310928 769.538284,413.779617 757.069580C426.248322 744.600891,433.254730 727.690536,433.254730 710.055801Z" style="stroke:rgb(25.500488%,41.000366%,88.400269%); stroke-width: 2.500000;stroke-linecap: round;stroke-linejoin: round;stroke-miterlimit: 10.000000;fill: none;"></path>
  <path d="M371.891342 817.522827C371.891342 799.888092,364.884933 782.977737,352.416229 770.509048C339.947540 758.040344,323.037186 751.033936,305.402451 751.033936C287.767715 751.033936,270.857361 758.040344,258.388672 770.509048C245.919968 782.977737,238.913559 799.888092,238.913559 817.522827C238.913559 835.157562,245.919968 852.067917,258.388672 864.536606C270.857361 877.005310,287.767715 884.011719,305.402451 884.011719C323.037186 884.011719,339.947540 877.005310,352.416229 864.536606C364.884933 852.067917,371.891342 835.157562,371.891342 817.522827Z" style="stroke:rgb(25.500488%,41.000366%,88.400269%); stroke-width: 2.500000;stroke-linecap: round;stroke-linejoin: round;stroke-miterlimit: 10.000000;fill: none;"></path>
  <path d="M617.799057 389.082077C617.799057 371.447342,610.792648 354.536987,598.323944 342.068298C585.855255 329.599594,568.944901 322.593185,551.310165 322.593185C533.675430 322.593185,516.765076 329.599594,504.296387 342.068298C491.827682 354.536987,484.821274 371.447342,484.821274 389.082077C484.821274 406.716812,491.827682 423.627167,504.296387 436.095856C516.765076 448.564560,533.675430 455.570969,551.310165 455.570969C568.944901 455.570969,585.855255 448.564560,598.323944 436.095856C610.792648 423.627167,617.799057 406.716812,617.799057 389.082077Z" style="stroke:rgb(25.500488%,41.000366%,88.400269%); stroke-width: 2.500000;stroke-linecap: round;stroke-linejoin: round;stroke-miterlimit: 10.000000;fill: none;"></path>
  <path d="M679.746368 280.914352C679.746368 263.279617,672.739960 246.369263,660.271255 233.900574C647.802567 221.431870,630.892212 214.425461,613.257477 214.425461C595.622742 214.425461,578.712387 221.431870,566.243698 233.900574C553.774994 246.369263,546.768585 263.279617,546.768585 280.914352C546.768585 298.549088,553.774994 315.459442,566.243698 327.928131C578.712387 340.396835,595.622742 347.403244,613.257477 347.403244C630.892212 347.403244,647.802567 340.396835,660.271255 327.928131C672.739960 315.459442,679.746368 298.549088,679.746368 280.914352Z" style="stroke:rgb(25.500488%,41.000366%,88.400269%); stroke-width: 2.500000;stroke-linecap: round;stroke-linejoin: round;stroke-miterlimit: 10.000000;fill: none;"></path>
  <path d="M495.072281 602.472000C495.072281 584.837265,488.065872 567.926910,475.597168 555.458221C463.128479 542.989517,446.218124 535.983109,428.583389 535.983109C410.948654 535.983109,394.038300 542.989517,381.569611 555.458221C369.100906 567.926910,362.094498 584.837265,362.094498 602.472000C362.094498 620.106735,369.100906 637.017090,381.569611 649.485779C394.038300 661.954483,410.948654 668.960892,428.583389 668.960892C446.218124 668.960892,463.128479 661.954483,475.597168 649.485779C488.065872 637.017090,495.072281 620.106735,495.072281 602.472000Z" style="stroke:rgb(25.500488%,41.000366%,88.400269%); stroke-width: 2.500000;stroke-linecap: round;stroke-linejoin: round;stroke-miterlimit: 10.000000;fill: none;"></path>
  <path d="M133.341019 1240.254166C133.341019 1222.619431,126.334610 1205.709076,113.865906 1193.240387C101.397217 1180.771683,84.486862 1173.765274,66.852127 1173.765274C49.217392 1173.765274,32.307037 1180.771683,19.838348 1193.240387C7.369644 1205.709076,0.363235 1222.619431,0.363235 1240.254166C0.363235 1257.888901,7.369644 1274.799255,19.838348 1287.267944C32.307037 1299.736649,49.217392 1306.743057,66.852127 1306.743057C84.486862 1306.743057,101.397217 1299.736649,113.865906 1287.267944C126.334610 1274.799255,133.341019 1257.888901,133.341019 1240.254166Z" style="stroke:rgb(25.500488%,41.000366%,88.400269%); stroke-width: 2.500000;stroke-linecap: round;stroke-linejoin: round;stroke-miterlimit: 10.000000;fill: none;"></path>
  <path d="M251.720840 1030.640259C251.720840 1013.005524,244.714432 996.095169,232.245728 983.626480C219.777039 971.157776,202.866684 964.151367,185.231949 964.151367C167.597214 964.151367,150.686859 971.157776,138.218170 983.626480C125.749466 996.095169,118.743057 1013.005524,118.743057 1030.640259C118.743057 1048.274994,125.749466 1065.185349,138.218170 1077.654037C150.686859 1090.122742,167.597214 1097.129150,185.231949 1097.129150C202.866684 1097.129150,219.777039 1090.122742,232.245728 1077.654037C244.714432 1065.185349,251.720840 1048.274994,251.720840 1030.640259Z" style="stroke:rgb(25.500488%,41.000366%,88.400269%); stroke-width: 2.500000;stroke-linecap: round;stroke-linejoin: round;stroke-miterlimit: 10.000000;fill: none;"></path>
  <path d="M743.095078 173.979340C743.095078 156.344604,736.088669 139.434250,723.619965 126.965561C711.151276 114.496857,694.240921 107.490448,676.606186 107.490448C658.971451 107.490448,642.061096 114.496857,629.592407 126.965561C617.123703 139.434250,610.117294 156.344604,610.117294 173.979340C610.117294 191.614075,617.123703 208.524429,629.592407 220.993118C642.061096 233.461823,658.971451 240.468231,676.606186 240.468231C694.240921 240.468231,711.151276 233.461823,723.619965 220.993118C736.088669 208.524429,743.095078 191.614075,743.095078 173.979340Z" style="stroke:rgb(25.500488%,41.000366%,88.400269%); stroke-width: 2.500000;stroke-linecap: round;stroke-linejoin: round;stroke-miterlimit: 10.000000;fill: none;"></path>
  <path d="M559.043839 497.379562C559.043839 479.744827,552.037430 462.834473,539.568726 450.365784C527.100037 437.897079,510.189682 430.890671,492.554947 430.890671C474.920212 430.890671,458.009857 437.897079,445.541168 450.365784C433.072464 462.834473,426.066055 479.744827,426.066055 497.379562C426.066055 515.014297,433.072464 531.924652,445.541168 544.393341C458.009857 556.862045,474.920212 563.868454,492.554947 563.868454C510.189682 563.868454,527.100037 556.862045,539.568726 544.393341C552.037430 531.924652,559.043839 515.014297,559.043839 497.379562Z" style="stroke:rgb(25.500488%,41.000366%,88.400269%); stroke-width: 2.500000;stroke-linecap: round;stroke-linejoin: round;stroke-miterlimit: 10.000000;fill: none;"></path>
  <path d="M311.838531 924.704391C311.838531 907.069656,304.832123 890.159302,292.363419 877.690613C279.894730 865.221909,262.984375 858.215500,245.349640 858.215500C227.714905 858.215500,210.804550 865.221909,198.335861 877.690613C185.867157 890.159302,178.860748 907.069656,178.860748 924.704391C178.860748 942.339127,185.867157 959.249481,198.335861 971.718170C210.804550 984.186874,227.714905 991.193283,245.349640 991.193283C262.984375 991.193283,279.894730 984.186874,292.363419 971.718170C304.832123 959.249481,311.838531 942.339127,311.838531 924.704391Z" style="stroke:rgb(25.500488%,41.000366%,88.400269%); stroke-width: 2.500000;stroke-linecap: round;stroke-linejoin: round;stroke-miterlimit: 10.000000;fill: none;"></path>
</svg>
