<?xml version="1.0"?>
<!-- Created by MetaPost 2.00 on 2022.03.02:1201 -->
<svg version="1.1" xmlns="http://www.w3.org/2000/svg" xmlns:xlink="http://www.w3.org/1999/xlink" width="1698.992004" height="1771.657471" viewBox="0 0 1698.992004 1771.657471">
<!-- Original BoundingBox: -857.897949 -871.159393 841.094055 900.498077 -->
  <path d="M857.000000 49.606476L192.136978 369.788666L27.926010 1089.228653L488.028137 1666.179443L1225.971863 1666.179443L1686.073990 1089.228653L1521.863022 369.788666L857.000000 49.606476Z" style="fill: rgb(100.000000%,100.000000%,100.000000%);stroke: none;"></path>
  <path d="M857.000000 49.606476L192.136978 369.788666" style="stroke:rgb(0.000000%,0.000000%,0.000000%); stroke-width: 2.500000;stroke-linecap: round;stroke-linejoin: round;stroke-miterlimit: 10.000000;fill: none;"></path>
  <path d="M192.136978 369.788666L27.926010 1089.228653" style="stroke:rgb(0.000000%,0.000000%,0.000000%); stroke-width: 2.500000;stroke-linecap: round;stroke-linejoin: round;stroke-miterlimit: 10.000000;fill: none;"></path>
  <path d="M27.926010 1089.228653L488.028137 1666.179443" style="stroke:rgb(0.000000%,0.000000%,0.000000%); stroke-width: 2.500000;stroke-linecap: round;stroke-linejoin: round;stroke-miterlimit: 10.000000;fill: none;"></path>
  <path d="M488.028137 1666.179443L1225.971863 1666.179443" style="stroke:rgb(0.000000%,0.000000%,0.000000%); stroke-width: 2.500000;stroke-linecap: round;stroke-linejoin: round;stroke-miterlimit: 10.000000;fill: none;"></path>
  <path d="M1225.971863 1666.179443L1686.073990 1089.228653" style="stroke:rgb(0.000000%,0.000000%,0.000000%); stroke-width: 2.500000;stroke-linecap: round;stroke-linejoin: round;stroke-miterlimit: 10.000000;fill: none;"></path>
  <path d="M1686.073990 1089.228653L1521.863022 369.788666" style="stroke:rgb(0.000000%,0.000000%,0.000000%); stroke-width: 2.500000;stroke-linecap: round;stroke-linejoin: round;stroke-miterlimit: 10.000000;fill: none;"></path>
  <path d="M1521.863022 369.788666L857.000000 49.606476" style="stroke:rgb(0.000000%,0.000000%,0.000000%); stroke-width: 2.500000;stroke-linecap: round;stroke-linejoin: round;stroke-miterlimit: 10.000000;fill: none;"></path>
  <path d="M1593.633148 444.478378C1593.633148 415.279877,1582.032364 387.280762,1561.387466 366.635880C1540.742584 345.990982,1512.743469 334.390198,1483.544968 334.390198C1454.346466 334.390198,1426.347351 345.990982,1405.702469 366.635880C1385.057571 387.280762,1373.456787 415.279877,1373.456787 444.478378C1373.456787 473.676880,1385.057571 501.675995,1405.702469 522.320877C1426.347351 542.965775,1454.346466 554.566559,1483.544968 554.566559C1512.743469 554.566559,1540.742584 542.965775,1561.387466 522.320877C1582.032364 501.675995,1593.633148 473.676880,1593.633148 444.478378Z" style="stroke:rgb(25.500488%,41.000366%,88.400269%); stroke-width: 2.500000;stroke-linecap: round;stroke-linejoin: round;stroke-miterlimit: 10.000000;fill: none;"></path>
  <path d="M1458.514328 313.382111C1458.514328 284.183609,1446.913544 256.184494,1426.268646 235.539612C1405.623764 214.894714,1377.624649 203.293930,1348.426147 203.293930C1319.227646 203.293930,1291.228531 214.894714,1270.583649 235.539612C1249.938751 256.184494,1238.337967 284.183609,1238.337967 313.382111C1238.337967 342.580612,1249.938751 370.579727,1270.583649 391.224609C1291.228531 411.869507,1319.227646 423.470291,1348.426147 423.470291C1377.624649 423.470291,1405.623764 411.869507,1426.268646 391.224609C1446.913544 370.579727,1458.514328 342.580612,1458.514328 313.382111Z" style="stroke:rgb(25.500488%,41.000366%,88.400269%); stroke-width: 2.500000;stroke-linecap: round;stroke-linejoin: round;stroke-miterlimit: 10.000000;fill: none;"></path>
  <path d="M1681.532410 711.913239C1681.532410 682.714737,1669.931625 654.715622,1649.286728 634.070740C1628.641846 613.425842,1600.642731 601.825058,1571.444229 601.825058C1542.245728 601.825058,1514.246613 613.425842,1493.601730 634.070740C1472.956833 654.715622,1461.356049 682.714737,1461.356049 711.913239C1461.356049 741.111740,1472.956833 769.110855,1493.601730 789.755737C1514.246613 810.400635,1542.245728 822.001419,1571.444229 822.001419C1600.642731 822.001419,1628.641846 810.400635,1649.286728 789.755737C1669.931625 769.110855,1681.532410 741.111740,1681.532410 711.913239Z" style="stroke:rgb(25.500488%,41.000366%,88.400269%); stroke-width: 2.500000;stroke-linecap: round;stroke-linejoin: round;stroke-miterlimit: 10.000000;fill: none;"></path>
  <path d="M1575.856064 586.850784C1575.856064 557.652283,1564.255280 529.653168,1543.610382 509.008286C1522.965500 488.363388,1494.966385 476.762604,1465.767883 476.762604C1436.569382 476.762604,1408.570267 488.363388,1387.925385 509.008286C1367.280487 529.653168,1355.679703 557.652283,1355.679703 586.850784C1355.679703 616.049286,1367.280487 644.048401,1387.925385 664.693283C1408.570267 685.338181,1436.569382 696.938965,1465.767883 696.938965C1494.966385 696.938965,1522.965500 685.338181,1543.610382 664.693283C1564.255280 644.048401,1575.856064 616.049286,1575.856064 586.850784Z" style="stroke:rgb(25.500488%,41.000366%,88.400269%); stroke-width: 2.500000;stroke-linecap: round;stroke-linejoin: round;stroke-miterlimit: 10.000000;fill: none;"></path>
  <path d="M1395.399170 477.346527C1395.399170 448.148026,1383.798386 420.148911,1363.153488 399.504028C1342.508606 378.859131,1314.509491 367.258347,1285.310989 367.258347C1256.112488 367.258347,1228.113373 378.859131,1207.468491 399.504028C1186.823593 420.148911,1175.222809 448.148026,1175.222809 477.346527C1175.222809 506.545029,1186.823593 534.544144,1207.468491 555.189026C1228.113373 575.833923,1256.112488 587.434708,1285.310989 587.434708C1314.509491 587.434708,1342.508606 575.833923,1363.153488 555.189026C1383.798386 534.544144,1395.399170 506.545029,1395.399170 477.346527Z" style="stroke:rgb(25.500488%,41.000366%,88.400269%); stroke-width: 2.500000;stroke-linecap: round;stroke-linejoin: round;stroke-miterlimit: 10.000000;fill: none;"></path>
  <path d="M1278.913849 302.936447C1278.913849 273.737946,1267.313065 245.738831,1246.668167 225.093948C1226.023285 204.449051,1198.024170 192.848267,1168.825668 192.848267C1139.627167 192.848267,1111.628052 204.449051,1090.983170 225.093948C1070.338272 245.738831,1058.737488 273.737946,1058.737488 302.936447C1058.737488 332.134949,1070.338272 360.134064,1090.983170 380.778946C1111.628052 401.423843,1139.627167 413.024628,1168.825668 413.024628C1198.024170 413.024628,1226.023285 401.423843,1246.668167 380.778946C1267.313065 360.134064,1278.913849 332.134949,1278.913849 302.936447Z" style="stroke:rgb(25.500488%,41.000366%,88.400269%); stroke-width: 2.500000;stroke-linecap: round;stroke-linejoin: round;stroke-miterlimit: 10.000000;fill: none;"></path>
  <path d="M1157.004562 208.717880C1157.004562 179.519379,1145.403778 151.520264,1124.758881 130.875381C1104.113998 110.230484,1076.114883 98.629700,1046.916382 98.629700C1017.717880 98.629700,989.718765 110.230484,969.073883 130.875381C948.428986 151.520264,936.828201 179.519379,936.828201 208.717880C936.828201 237.916382,948.428986 265.915497,969.073883 286.560379C989.718765 307.205276,1017.717880 318.806061,1046.916382 318.806061C1076.114883 318.806061,1104.113998 307.205276,1124.758881 286.560379C1145.403778 265.915497,1157.004562 237.916382,1157.004562 208.717880Z" style="stroke:rgb(25.500488%,41.000366%,88.400269%); stroke-width: 2.500000;stroke-linecap: round;stroke-linejoin: round;stroke-miterlimit: 10.000000;fill: none;"></path>
  <path d="M990.795288 110.840103C990.795288 81.641602,979.194504 53.642487,958.549606 32.997604C937.904724 12.352707,909.905609 0.751923,880.707108 0.751923C851.508606 0.751923,823.509491 12.352707,802.864609 32.997604C782.219711 53.642487,770.618927 81.641602,770.618927 110.840103C770.618927 140.038605,782.219711 168.037720,802.864609 188.682602C823.509491 209.327499,851.508606 220.928284,880.707108 220.928284C909.905609 220.928284,937.904724 209.327499,958.549606 188.682602C979.194504 168.037720,990.795288 140.038605,990.795288 110.840103Z" style="stroke:rgb(25.500488%,41.000366%,88.400269%); stroke-width: 2.500000;stroke-linecap: round;stroke-linejoin: round;stroke-miterlimit: 10.000000;fill: none;"></path>
  <path d="M1691.588791 911.860046C1691.588791 882.661545,1679.988007 854.662430,1659.343109 834.017548C1638.698227 813.372650,1610.699112 801.771866,1581.500610 801.771866C1552.302109 801.771866,1524.302994 813.372650,1503.658112 834.017548C1483.013214 854.662430,1471.412430 882.661545,1471.412430 911.860046C1471.412430 941.058548,1483.013214 969.057663,1503.658112 989.702545C1524.302994 1010.347443,1552.302109 1021.948227,1581.500610 1021.948227C1610.699112 1021.948227,1638.698227 1010.347443,1659.343109 989.702545C1679.988007 969.057663,1691.588791 941.058548,1691.588791 911.860046Z" style="stroke:rgb(25.500488%,41.000366%,88.400269%); stroke-width: 2.500000;stroke-linecap: round;stroke-linejoin: round;stroke-miterlimit: 10.000000;fill: none;"></path>
  <path d="M1536.227432 779.738663C1536.227432 750.540161,1524.626648 722.541046,1503.981750 701.896164C1483.336868 681.251266,1455.337753 669.650482,1426.139252 669.650482C1396.940750 669.650482,1368.941635 681.251266,1348.296753 701.896164C1327.651855 722.541046,1316.051071 750.540161,1316.051071 779.738663C1316.051071 808.937164,1327.651855 836.936279,1348.296753 857.581161C1368.941635 878.226059,1396.940750 889.826843,1426.139252 889.826843C1455.337753 889.826843,1483.336868 878.226059,1503.981750 857.581161C1524.626648 836.936279,1536.227432 808.937164,1536.227432 779.738663Z" style="stroke:rgb(25.500488%,41.000366%,88.400269%); stroke-width: 2.500000;stroke-linecap: round;stroke-linejoin: round;stroke-miterlimit: 10.000000;fill: none;"></path>
  <path d="M1401.303238 645.411362C1401.303238 616.212860,1389.702454 588.213745,1369.057556 567.568863C1348.412674 546.923965,1320.413559 535.323181,1291.215057 535.323181C1262.016556 535.323181,1234.017441 546.923965,1213.372559 567.568863C1192.727661 588.213745,1181.126877 616.212860,1181.126877 645.411362C1181.126877 674.609863,1192.727661 702.608978,1213.372559 723.253860C1234.017441 743.898758,1262.016556 755.499542,1291.215057 755.499542C1320.413559 755.499542,1348.412674 743.898758,1369.057556 723.253860C1389.702454 702.608978,1401.303238 674.609863,1401.303238 645.411362Z" style="stroke:rgb(25.500488%,41.000366%,88.400269%); stroke-width: 2.500000;stroke-linecap: round;stroke-linejoin: round;stroke-miterlimit: 10.000000;fill: none;"></path>
  <path d="M1262.109955 508.242325C1262.109955 479.043823,1250.509171 451.044708,1229.864273 430.399826C1209.219391 409.754929,1181.220276 398.154144,1152.021774 398.154144C1122.823273 398.154144,1094.824158 409.754929,1074.179276 430.399826C1053.534378 451.044708,1041.933594 479.043823,1041.933594 508.242325C1041.933594 537.440826,1053.534378 565.439941,1074.179276 586.084824C1094.824158 606.729721,1122.823273 618.330505,1152.021774 618.330505C1181.220276 618.330505,1209.219391 606.729721,1229.864273 586.084824C1250.509171 565.439941,1262.109955 537.440826,1262.109955 508.242325Z" style="stroke:rgb(25.500488%,41.000366%,88.400269%); stroke-width: 2.500000;stroke-linecap: round;stroke-linejoin: round;stroke-miterlimit: 10.000000;fill: none;"></path>
  <path d="M1121.696930 405.576416C1121.696930 376.377914,1110.096146 348.378799,1089.451248 327.733917C1068.806366 307.089020,1040.807251 295.488235,1011.608749 295.488235C982.410248 295.488235,954.411133 307.089020,933.766251 327.733917C913.121353 348.378799,901.520569 376.377914,901.520569 405.576416C901.520569 434.774918,913.121353 462.774033,933.766251 483.418915C954.411133 504.063812,982.410248 515.664597,1011.608749 515.664597C1040.807251 515.664597,1068.806366 504.063812,1089.451248 483.418915C1110.096146 462.774033,1121.696930 434.774918,1121.696930 405.576416Z" style="stroke:rgb(25.500488%,41.000366%,88.400269%); stroke-width: 2.500000;stroke-linecap: round;stroke-linejoin: round;stroke-miterlimit: 10.000000;fill: none;"></path>
  <path d="M983.969925 295.825607C983.969925 266.627106,972.369141 238.627991,951.724243 217.983109C931.079361 197.338211,903.080246 185.737427,873.881744 185.737427C844.683243 185.737427,816.684128 197.338211,796.039246 217.983109C775.394348 238.627991,763.793564 266.627106,763.793564 295.825607C763.793564 325.024109,775.394348 353.023224,796.039246 373.668106C816.684128 394.313004,844.683243 405.913788,873.881744 405.913788C903.080246 405.913788,931.079361 394.313004,951.724243 373.668106C972.369141 353.023224,983.969925 325.024109,983.969925 295.825607Z" style="stroke:rgb(25.500488%,41.000366%,88.400269%); stroke-width: 2.500000;stroke-linecap: round;stroke-linejoin: round;stroke-miterlimit: 10.000000;fill: none;"></path>
  <path d="M832.280777 188.176910C832.280777 158.978409,820.679993 130.979294,800.035095 110.334412C779.390213 89.689514,751.391098 78.088730,722.192596 78.088730C692.994095 78.088730,664.994980 89.689514,644.350098 110.334412C623.705200 130.979294,612.104416 158.978409,612.104416 188.176910C612.104416 217.375412,623.705200 245.374527,644.350098 266.019409C664.994980 286.664307,692.994095 298.265091,722.192596 298.265091C751.391098 298.265091,779.390213 286.664307,800.035095 266.019409C820.679993 245.374527,832.280777 217.375412,832.280777 188.176910Z" style="stroke:rgb(25.500488%,41.000366%,88.400269%); stroke-width: 2.500000;stroke-linecap: round;stroke-linejoin: round;stroke-miterlimit: 10.000000;fill: none;"></path>
  <path d="M1696.844055 1066.157364C1696.844055 1036.958862,1685.243271 1008.959747,1664.598373 988.314865C1643.953491 967.669968,1615.954376 956.069183,1586.755875 956.069183C1557.557373 956.069183,1529.558258 967.669968,1508.913376 988.314865C1488.268478 1008.959747,1476.667694 1036.958862,1476.667694 1066.157364C1476.667694 1095.355865,1488.268478 1123.354980,1508.913376 1143.999863C1529.558258 1164.644760,1557.557373 1176.245544,1586.755875 1176.245544C1615.954376 1176.245544,1643.953491 1164.644760,1664.598373 1143.999863C1685.243271 1123.354980,1696.844055 1095.355865,1696.844055 1066.157364Z" style="stroke:rgb(25.500488%,41.000366%,88.400269%); stroke-width: 2.500000;stroke-linecap: round;stroke-linejoin: round;stroke-miterlimit: 10.000000;fill: none;"></path>
  <path d="M1526.664139 969.473373C1526.664139 940.274872,1515.063354 912.275757,1494.418457 891.630875C1473.773575 870.985977,1445.774460 859.385193,1416.575958 859.385193C1387.377457 859.385193,1359.378342 870.985977,1338.733459 891.630875C1318.088562 912.275757,1306.487778 940.274872,1306.487778 969.473373C1306.487778 998.671875,1318.088562 1026.670990,1338.733459 1047.315872C1359.378342 1067.960770,1387.377457 1079.561554,1416.575958 1079.561554C1445.774460 1079.561554,1473.773575 1067.960770,1494.418457 1047.315872C1515.063354 1026.670990,1526.664139 998.671875,1526.664139 969.473373Z" style="stroke:rgb(25.500488%,41.000366%,88.400269%); stroke-width: 2.500000;stroke-linecap: round;stroke-linejoin: round;stroke-miterlimit: 10.000000;fill: none;"></path>
  <path d="M1371.536362 845.215439C1371.536362 816.016937,1359.935577 788.017822,1339.290680 767.372940C1318.645798 746.728043,1290.646683 735.127258,1261.448181 735.127258C1232.249680 735.127258,1204.250565 746.728043,1183.605682 767.372940C1162.960785 788.017822,1151.360001 816.016937,1151.360001 845.215439C1151.360001 874.413940,1162.960785 902.413055,1183.605682 923.057938C1204.250565 943.702835,1232.249680 955.303619,1261.448181 955.303619C1290.646683 955.303619,1318.645798 943.702835,1339.290680 923.057938C1359.935577 902.413055,1371.536362 874.413940,1371.536362 845.215439Z" style="stroke:rgb(25.500488%,41.000366%,88.400269%); stroke-width: 2.500000;stroke-linecap: round;stroke-linejoin: round;stroke-miterlimit: 10.000000;fill: none;"></path>
  <path d="M1237.896790 706.424393C1237.896790 677.225891,1226.296005 649.226776,1205.651108 628.581894C1185.006226 607.936996,1157.007111 596.336212,1127.808609 596.336212C1098.610107 596.336212,1070.610992 607.936996,1049.966110 628.581894C1029.321213 649.226776,1017.720428 677.225891,1017.720428 706.424393C1017.720428 735.622894,1029.321213 763.622009,1049.966110 784.266891C1070.610992 804.911789,1098.610107 816.512573,1127.808609 816.512573C1157.007111 816.512573,1185.006226 804.911789,1205.651108 784.266891C1226.296005 763.622009,1237.896790 735.622894,1237.896790 706.424393Z" style="stroke:rgb(25.500488%,41.000366%,88.400269%); stroke-width: 2.500000;stroke-linecap: round;stroke-linejoin: round;stroke-miterlimit: 10.000000;fill: none;"></path>
  <path d="M1093.876434 604.861435C1093.876434 575.662933,1082.275650 547.663818,1061.630753 527.018936C1040.985870 506.374039,1012.986755 494.773254,983.788254 494.773254C954.589752 494.773254,926.590637 506.374039,905.945755 527.018936C885.300858 547.663818,873.700073 575.662933,873.700073 604.861435C873.700073 634.059937,885.300858 662.059052,905.945755 682.703934C926.590637 703.348831,954.589752 714.949615,983.788254 714.949615C1012.986755 714.949615,1040.985870 703.348831,1061.630753 682.703934C1082.275650 662.059052,1093.876434 634.059937,1093.876434 604.861435Z" style="stroke:rgb(25.500488%,41.000366%,88.400269%); stroke-width: 2.500000;stroke-linecap: round;stroke-linejoin: round;stroke-miterlimit: 10.000000;fill: none;"></path>
  <path d="M953.463409 495.837296C953.463409 466.638794,941.862625 438.639679,921.217728 417.994797C900.572845 397.349899,872.573730 385.749115,843.375229 385.749115C814.176727 385.749115,786.177612 397.349899,765.532730 417.994797C744.887833 438.639679,733.287048 466.638794,733.287048 495.837296C733.287048 525.035797,744.887833 553.034912,765.532730 573.679794C786.177612 594.324692,814.176727 605.925476,843.375229 605.925476C872.573730 605.925476,900.572845 594.324692,921.217728 573.679794C941.862625 553.034912,953.463409 525.035797,953.463409 495.837296Z" style="stroke:rgb(25.500488%,41.000366%,88.400269%); stroke-width: 2.500000;stroke-linecap: round;stroke-linejoin: round;stroke-miterlimit: 10.000000;fill: none;"></path>
  <path d="M815.840210 383.517258C815.840210 354.318756,804.239426 326.319641,783.594528 305.674759C762.949646 285.029861,734.950531 273.429077,705.752029 273.429077C676.553528 273.429077,648.554413 285.029861,627.909531 305.674759C607.264633 326.319641,595.663849 354.318756,595.663849 383.517258C595.663849 412.715759,607.264633 440.714874,627.909531 461.359756C648.554413 482.004654,676.553528 493.605438,705.752029 493.605438C734.950531 493.605438,762.949646 482.004654,783.594528 461.359756C804.239426 440.714874,815.840210 412.715759,815.840210 383.517258Z" style="stroke:rgb(25.500488%,41.000366%,88.400269%); stroke-width: 2.500000;stroke-linecap: round;stroke-linejoin: round;stroke-miterlimit: 10.000000;fill: none;"></path>
  <path d="M669.510132 261.971283C669.510132 232.772781,657.909348 204.773666,637.264450 184.128784C616.619568 163.483887,588.620453 151.883102,559.421951 151.883102C530.223450 151.883102,502.224335 163.483887,481.579453 184.128784C460.934555 204.773666,449.333771 232.772781,449.333771 261.971283C449.333771 291.169785,460.934555 319.168900,481.579453 339.813782C502.224335 360.458679,530.223450 372.059464,559.421951 372.059464C588.620453 372.059464,616.619568 360.458679,637.264450 339.813782C657.909348 319.168900,669.510132 291.169785,669.510132 261.971283Z" style="stroke:rgb(25.500488%,41.000366%,88.400269%); stroke-width: 2.500000;stroke-linecap: round;stroke-linejoin: round;stroke-miterlimit: 10.000000;fill: none;"></path>
  <path d="M1648.729141 1243.798462C1648.729141 1214.599960,1637.128357 1186.600845,1616.483459 1165.955963C1595.838577 1145.311066,1567.839462 1133.710281,1538.640961 1133.710281C1509.442459 1133.710281,1481.443344 1145.311066,1460.798462 1165.955963C1440.153564 1186.600845,1428.552780 1214.599960,1428.552780 1243.798462C1428.552780 1272.996964,1440.153564 1300.996078,1460.798462 1321.640961C1481.443344 1342.285858,1509.442459 1353.886642,1538.640961 1353.886642C1567.839462 1353.886642,1595.838577 1342.285858,1616.483459 1321.640961C1637.128357 1300.996078,1648.729141 1272.996964,1648.729141 1243.798462Z" style="stroke:rgb(25.500488%,41.000366%,88.400269%); stroke-width: 2.500000;stroke-linecap: round;stroke-linejoin: round;stroke-miterlimit: 10.000000;fill: none;"></path>
  <path d="M1504.449280 1134.683487C1504.449280 1105.484985,1492.848495 1077.485870,1472.203598 1056.840988C1451.558716 1036.196091,1423.559601 1024.595306,1394.361099 1024.595306C1365.162598 1024.595306,1337.163483 1036.196091,1316.518600 1056.840988C1295.873703 1077.485870,1284.272919 1105.484985,1284.272919 1134.683487C1284.272919 1163.881989,1295.873703 1191.881104,1316.518600 1212.525986C1337.163483 1233.170883,1365.162598 1244.771667,1394.361099 1244.771667C1423.559601 1244.771667,1451.558716 1233.170883,1472.203598 1212.525986C1492.848495 1191.881104,1504.449280 1163.881989,1504.449280 1134.683487Z" style="stroke:rgb(25.500488%,41.000366%,88.400269%); stroke-width: 2.500000;stroke-linecap: round;stroke-linejoin: round;stroke-miterlimit: 10.000000;fill: none;"></path>
  <path d="M1348.387222 1028.384308C1348.387222 999.185806,1336.786438 971.186691,1316.141541 950.541809C1295.496658 929.896912,1267.497543 918.296127,1238.299042 918.296127C1209.100540 918.296127,1181.101425 929.896912,1160.456543 950.541809C1139.811646 971.186691,1128.210861 999.185806,1128.210861 1028.384308C1128.210861 1057.582809,1139.811646 1085.581924,1160.456543 1106.226807C1181.101425 1126.871704,1209.100540 1138.472488,1238.299042 1138.472488C1267.497543 1138.472488,1295.496658 1126.871704,1316.141541 1106.226807C1336.786438 1085.581924,1348.387222 1057.582809,1348.387222 1028.384308Z" style="stroke:rgb(25.500488%,41.000366%,88.400269%); stroke-width: 2.500000;stroke-linecap: round;stroke-linejoin: round;stroke-miterlimit: 10.000000;fill: none;"></path>
  <path d="M1209.894638 907.318451C1209.894638 878.119949,1198.293854 850.120834,1177.648956 829.475952C1157.004074 808.831055,1129.004959 797.230270,1099.806458 797.230270C1070.607956 797.230270,1042.608841 808.831055,1021.963959 829.475952C1001.319061 850.120834,989.718277 878.119949,989.718277 907.318451C989.718277 936.516953,1001.319061 964.516068,1021.963959 985.160950C1042.608841 1005.805847,1070.607956 1017.406631,1099.806458 1017.406631C1129.004959 1017.406631,1157.004074 1005.805847,1177.648956 985.160950C1198.293854 964.516068,1209.894638 936.516953,1209.894638 907.318451Z" style="stroke:rgb(25.500488%,41.000366%,88.400269%); stroke-width: 2.500000;stroke-linecap: round;stroke-linejoin: round;stroke-miterlimit: 10.000000;fill: none;"></path>
  <path d="M1071.415024 804.120514C1071.415024 774.922012,1059.814240 746.922897,1039.169342 726.278015C1018.524460 705.633118,990.525345 694.032333,961.326843 694.032333C932.128342 694.032333,904.129227 705.633118,883.484344 726.278015C862.839447 746.922897,851.238663 774.922012,851.238663 804.120514C851.238663 833.319016,862.839447 861.318130,883.484344 881.963013C904.129227 902.607910,932.128342 914.208694,961.326843 914.208694C990.525345 914.208694,1018.524460 902.607910,1039.169342 881.963013C1059.814240 861.318130,1071.415024 833.319016,1071.415024 804.120514Z" style="stroke:rgb(25.500488%,41.000366%,88.400269%); stroke-width: 2.500000;stroke-linecap: round;stroke-linejoin: round;stroke-miterlimit: 10.000000;fill: none;"></path>
  <path d="M927.394669 696.186356C927.394669 666.987854,915.793884 638.988739,895.148987 618.343857C874.504105 597.698959,846.504990 586.098175,817.306488 586.098175C788.107986 586.098175,760.108871 597.698959,739.463989 618.343857C718.819092 638.988739,707.218307 666.987854,707.218307 696.186356C707.218307 725.384857,718.819092 753.383972,739.463989 774.028854C760.108871 794.673752,788.107986 806.274536,817.306488 806.274536C846.504990 806.274536,874.504105 794.673752,895.148987 774.028854C915.793884 753.383972,927.394669 725.384857,927.394669 696.186356Z" style="stroke:rgb(25.500488%,41.000366%,88.400269%); stroke-width: 2.500000;stroke-linecap: round;stroke-linejoin: round;stroke-miterlimit: 10.000000;fill: none;"></path>
  <path d="M787.799133 585.034149C787.799133 555.835648,776.198349 527.836533,755.553452 507.191650C734.908569 486.546753,706.909454 474.945969,677.710953 474.945969C648.512451 474.945969,620.513336 486.546753,599.868454 507.191650C579.223557 527.836533,567.622772 555.835648,567.622772 585.034149C567.622772 614.232651,579.223557 642.231766,599.868454 662.876648C620.513336 683.521545,648.512451 695.122330,677.710953 695.122330C706.909454 695.122330,734.908569 683.521545,755.553452 662.876648C776.198349 642.231766,787.799133 614.232651,787.799133 585.034149Z" style="stroke:rgb(25.500488%,41.000366%,88.400269%); stroke-width: 2.500000;stroke-linecap: round;stroke-linejoin: round;stroke-miterlimit: 10.000000;fill: none;"></path>
  <path d="M651.538406 460.360977C651.538406 431.162476,639.937622 403.163361,619.292725 382.518478C598.647842 361.873581,570.648727 350.272797,541.450226 350.272797C512.251724 350.272797,484.252609 361.873581,463.607727 382.518478C442.962830 403.163361,431.362045 431.162476,431.362045 460.360977C431.362045 489.559479,442.962830 517.558594,463.607727 538.203476C484.252609 558.848373,512.251724 570.449158,541.450226 570.449158C570.648727 570.449158,598.647842 558.848373,619.292725 538.203476C639.937622 517.558594,651.538406 489.559479,651.538406 460.360977Z" style="stroke:rgb(25.500488%,41.000366%,88.400269%); stroke-width: 2.500000;stroke-linecap: round;stroke-linejoin: round;stroke-miterlimit: 10.000000;fill: none;"></path>
  <path d="M505.338089 340.501892C505.338089 311.303391,493.737305 283.304276,473.092407 262.659393C452.447525 242.014496,424.448410 230.413712,395.249908 230.413712C366.051407 230.413712,338.052292 242.014496,317.407410 262.659393C296.762512 283.304276,285.161728 311.303391,285.161728 340.501892C285.161728 369.700394,296.762512 397.699509,317.407410 418.344391C338.052292 438.989288,366.051407 450.590073,395.249908 450.590073C424.448410 450.590073,452.447525 438.989288,473.092407 418.344391C493.737305 397.699509,505.338089 369.700394,505.338089 340.501892Z" style="stroke:rgb(25.500488%,41.000366%,88.400269%); stroke-width: 2.500000;stroke-linecap: round;stroke-linejoin: round;stroke-miterlimit: 10.000000;fill: none;"></path>
  <path d="M1486.282913 1329.881088C1486.282913 1300.682587,1474.682129 1272.683472,1454.037231 1252.038589C1433.392349 1231.393692,1405.393234 1219.792908,1376.194733 1219.792908C1346.996231 1219.792908,1318.997116 1231.393692,1298.352234 1252.038589C1277.707336 1272.683472,1266.106552 1300.682587,1266.106552 1329.881088C1266.106552 1359.079590,1277.707336 1387.078705,1298.352234 1407.723587C1318.997116 1428.368484,1346.996231 1439.969269,1376.194733 1439.969269C1405.393234 1439.969269,1433.392349 1428.368484,1454.037231 1407.723587C1474.682129 1387.078705,1486.282913 1359.079590,1486.282913 1329.881088Z" style="stroke:rgb(25.500488%,41.000366%,88.400269%); stroke-width: 2.500000;stroke-linecap: round;stroke-linejoin: round;stroke-miterlimit: 10.000000;fill: none;"></path>
  <path d="M1335.528030 1221.298126C1335.528030 1192.099625,1323.927246 1164.100510,1303.282349 1143.455627C1282.637466 1122.810730,1254.638351 1111.209946,1225.439850 1111.209946C1196.241348 1111.209946,1168.242233 1122.810730,1147.597351 1143.455627C1126.952454 1164.100510,1115.351669 1192.099625,1115.351669 1221.298126C1115.351669 1250.496628,1126.952454 1278.495743,1147.597351 1299.140625C1168.242233 1319.785522,1196.241348 1331.386307,1225.439850 1331.386307C1254.638351 1331.386307,1282.637466 1319.785522,1303.282349 1299.140625C1323.927246 1278.495743,1335.528030 1250.496628,1335.528030 1221.298126Z" style="stroke:rgb(25.500488%,41.000366%,88.400269%); stroke-width: 2.500000;stroke-linecap: round;stroke-linejoin: round;stroke-miterlimit: 10.000000;fill: none;"></path>
  <path d="M1182.268784 1107.563705C1182.268784 1078.365204,1170.667999 1050.366089,1150.023102 1029.721207C1129.378220 1009.076309,1101.379105 997.475525,1072.180603 997.475525C1042.982101 997.475525,1014.982986 1009.076309,994.338104 1029.721207C973.693207 1050.366089,962.092422 1078.365204,962.092422 1107.563705C962.092422 1136.762207,973.693207 1164.761322,994.338104 1185.406204C1014.982986 1206.051102,1042.982101 1217.651886,1072.180603 1217.651886C1101.379105 1217.651886,1129.378220 1206.051102,1150.023102 1185.406204C1170.667999 1164.761322,1182.268784 1136.762207,1182.268784 1107.563705Z" style="stroke:rgb(25.500488%,41.000366%,88.400269%); stroke-width: 2.500000;stroke-linecap: round;stroke-linejoin: round;stroke-miterlimit: 10.000000;fill: none;"></path>
  <path d="M1042.802994 1004.638260C1042.802994 975.439758,1031.202209 947.440643,1010.557312 926.795761C989.912430 906.150864,961.913315 894.550079,932.714813 894.550079C903.516312 894.550079,875.517197 906.150864,854.872314 926.795761C834.227417 947.440643,822.626633 975.439758,822.626633 1004.638260C822.626633 1033.836761,834.227417 1061.835876,854.872314 1082.480759C875.517197 1103.125656,903.516312 1114.726440,932.714813 1114.726440C961.913315 1114.726440,989.912430 1103.125656,1010.557312 1082.480759C1031.202209 1061.835876,1042.802994 1033.836761,1042.802994 1004.638260Z" style="stroke:rgb(25.500488%,41.000366%,88.400269%); stroke-width: 2.500000;stroke-linecap: round;stroke-linejoin: round;stroke-miterlimit: 10.000000;fill: none;"></path>
  <path d="M904.323395 895.069122C904.323395 865.870621,892.722610 837.871506,872.077713 817.226624C851.432831 796.581726,823.433716 784.980942,794.235214 784.980942C765.036713 784.980942,737.037598 796.581726,716.392715 817.226624C695.747818 837.871506,684.147034 865.870621,684.147034 895.069122C684.147034 924.267624,695.747818 952.266739,716.392715 972.911621C737.037598 993.556519,765.036713 1005.157303,794.235214 1005.157303C823.433716 1005.157303,851.432831 993.556519,872.077713 972.911621C892.722610 952.266739,904.323395 924.267624,904.323395 895.069122Z" style="stroke:rgb(25.500488%,41.000366%,88.400269%); stroke-width: 2.500000;stroke-linecap: round;stroke-linejoin: round;stroke-miterlimit: 10.000000;fill: none;"></path>
  <path d="M761.470871 785.889267C761.470871 756.690765,749.870087 728.691650,729.225189 708.046768C708.580307 687.401871,680.581192 675.801086,651.382690 675.801086C622.184189 675.801086,594.185074 687.401871,573.540192 708.046768C552.895294 728.691650,541.294510 756.690765,541.294510 785.889267C541.294510 815.087769,552.895294 843.086884,573.540192 863.731766C594.185074 884.376663,622.184189 895.977448,651.382690 895.977448C680.581192 895.977448,708.580307 884.376663,729.225189 863.731766C749.870087 843.086884,761.470871 815.087769,761.470871 785.889267Z" style="stroke:rgb(25.500488%,41.000366%,88.400269%); stroke-width: 2.500000;stroke-linecap: round;stroke-linejoin: round;stroke-miterlimit: 10.000000;fill: none;"></path>
  <path d="M623.263763 661.735138C623.263763 632.536636,611.662979 604.537521,591.018082 583.892639C570.373199 563.247742,542.374084 551.646957,513.175583 551.646957C483.977081 551.646957,455.977966 563.247742,435.333084 583.892639C414.688187 604.537521,403.087402 632.536636,403.087402 661.735138C403.087402 690.933640,414.688187 718.932755,435.333084 739.577637C455.977966 760.222534,483.977081 771.823318,513.175583 771.823318C542.374084 771.823318,570.373199 760.222534,591.018082 739.577637C611.662979 718.932755,623.263763 690.933640,623.263763 661.735138Z" style="stroke:rgb(25.500488%,41.000366%,88.400269%); stroke-width: 2.500000;stroke-linecap: round;stroke-linejoin: round;stroke-miterlimit: 10.000000;fill: none;"></path>
  <path d="M486.717575 538.904556C486.717575 509.706055,475.116791 481.706940,454.471893 461.062057C433.827011 440.417160,405.827896 428.816376,376.629395 428.816376C347.430893 428.816376,319.431778 440.417160,298.786896 461.062057C278.141998 481.706940,266.541214 509.706055,266.541214 538.904556C266.541214 568.103058,278.141998 596.102173,298.786896 616.747055C319.431778 637.391953,347.430893 648.992737,376.629395 648.992737C405.827896 648.992737,433.827011 637.391953,454.471893 616.747055C475.116791 596.102173,486.717575 568.103058,486.717575 538.904556Z" style="stroke:rgb(25.500488%,41.000366%,88.400269%); stroke-width: 2.500000;stroke-linecap: round;stroke-linejoin: round;stroke-miterlimit: 10.000000;fill: none;"></path>
  <path d="M341.010345 419.564514C341.010345 390.366013,329.409561 362.366898,308.764664 341.722015C288.119781 321.077118,260.120667 309.476334,230.922165 309.476334C201.723663 309.476334,173.724548 321.077118,153.079666 341.722015C132.434769 362.366898,120.833984 390.366013,120.833984 419.564514C120.833984 448.763016,132.434769 476.762131,153.079666 497.407013C173.724548 518.051910,201.723663 529.652695,230.922165 529.652695C260.120667 529.652695,288.119781 518.051910,308.764664 497.407013C329.409561 476.762131,341.010345 448.763016,341.010345 419.564514Z" style="stroke:rgb(25.500488%,41.000366%,88.400269%); stroke-width: 2.500000;stroke-linecap: round;stroke-linejoin: round;stroke-miterlimit: 10.000000;fill: none;"></path>
  <path d="M1437.000153 1505.666626C1437.000153 1476.468124,1425.399368 1448.469009,1404.754471 1427.824127C1384.109589 1407.179230,1356.110474 1395.578445,1326.911972 1395.578445C1297.713470 1395.578445,1269.714355 1407.179230,1249.069473 1427.824127C1228.424576 1448.469009,1216.823792 1476.468124,1216.823792 1505.666626C1216.823792 1534.865128,1228.424576 1562.864243,1249.069473 1583.509125C1269.714355 1604.154022,1297.713470 1615.754807,1326.911972 1615.754807C1356.110474 1615.754807,1384.109589 1604.154022,1404.754471 1583.509125C1425.399368 1562.864243,1437.000153 1534.865128,1437.000153 1505.666626Z" style="stroke:rgb(25.500488%,41.000366%,88.400269%); stroke-width: 2.500000;stroke-linecap: round;stroke-linejoin: round;stroke-miterlimit: 10.000000;fill: none;"></path>
  <path d="M1292.473740 1394.825851C1292.473740 1365.627350,1280.872955 1337.628235,1260.228058 1316.983353C1239.583176 1296.338455,1211.584061 1284.737671,1182.385559 1284.737671C1153.187057 1284.737671,1125.187943 1296.338455,1104.543060 1316.983353C1083.898163 1337.628235,1072.297379 1365.627350,1072.297379 1394.825851C1072.297379 1424.024353,1083.898163 1452.023468,1104.543060 1472.668350C1125.187943 1493.313248,1153.187057 1504.914032,1182.385559 1504.914032C1211.584061 1504.914032,1239.583176 1493.313248,1260.228058 1472.668350C1280.872955 1452.023468,1292.473740 1424.024353,1292.473740 1394.825851Z" style="stroke:rgb(25.500488%,41.000366%,88.400269%); stroke-width: 2.500000;stroke-linecap: round;stroke-linejoin: round;stroke-miterlimit: 10.000000;fill: none;"></path>
  <path d="M1142.730988 1280.338821C1142.730988 1251.140320,1131.130203 1223.141205,1110.485306 1202.496323C1089.840424 1181.851425,1061.841309 1170.250641,1032.642807 1170.250641C1003.444305 1170.250641,975.445190 1181.851425,954.800308 1202.496323C934.155411 1223.141205,922.554626 1251.140320,922.554626 1280.338821C922.554626 1309.537323,934.155411 1337.536438,954.800308 1358.181320C975.445190 1378.826218,1003.444305 1390.427002,1032.642807 1390.427002C1061.841309 1390.427002,1089.840424 1378.826218,1110.485306 1358.181320C1131.130203 1337.536438,1142.730988 1309.537323,1142.730988 1280.338821Z" style="stroke:rgb(25.500488%,41.000366%,88.400269%); stroke-width: 2.500000;stroke-linecap: round;stroke-linejoin: round;stroke-miterlimit: 10.000000;fill: none;"></path>
  <path d="M1003.550674 1196.799484C1003.550674 1167.600983,991.949890 1139.601868,971.304993 1118.956985C950.660110 1098.312088,922.660995 1086.711304,893.462494 1086.711304C864.263992 1086.711304,836.264877 1098.312088,815.619995 1118.956985C794.975098 1139.601868,783.374313 1167.600983,783.374313 1196.799484C783.374313 1225.997986,794.975098 1253.997101,815.619995 1274.641983C836.264877 1295.286880,864.263992 1306.887665,893.462494 1306.887665C922.660995 1306.887665,950.660110 1295.286880,971.304993 1274.641983C991.949890 1253.997101,1003.550674 1225.997986,1003.550674 1196.799484Z" style="stroke:rgb(25.500488%,41.000366%,88.400269%); stroke-width: 2.500000;stroke-linecap: round;stroke-linejoin: round;stroke-miterlimit: 10.000000;fill: none;"></path>
  <path d="M864.097870 1087.476898C864.097870 1058.278397,852.497086 1030.279282,831.852188 1009.634399C811.207306 988.989502,783.208191 977.388718,754.009689 977.388718C724.811188 977.388718,696.812073 988.989502,676.167191 1009.634399C655.522293 1030.279282,643.921509 1058.278397,643.921509 1087.476898C643.921509 1116.675400,655.522293 1144.674515,676.167191 1165.319397C696.812073 1185.964294,724.811188 1197.565079,754.009689 1197.565079C783.208191 1197.565079,811.207306 1185.964294,831.852188 1165.319397C852.497086 1144.674515,864.097870 1116.675400,864.097870 1087.476898Z" style="stroke:rgb(25.500488%,41.000366%,88.400269%); stroke-width: 2.500000;stroke-linecap: round;stroke-linejoin: round;stroke-miterlimit: 10.000000;fill: none;"></path>
  <path d="M725.644211 977.038361C725.644211 947.839859,714.043427 919.840744,693.398529 899.195862C672.753647 878.550964,644.754532 866.950180,615.556030 866.950180C586.357529 866.950180,558.358414 878.550964,537.713531 899.195862C517.068634 919.840744,505.467850 947.839859,505.467850 977.038361C505.467850 1006.236862,517.068634 1034.235977,537.713531 1054.880859C558.358414 1075.525757,586.357529 1087.126541,615.556030 1087.126541C644.754532 1087.126541,672.753647 1075.525757,693.398529 1054.880859C714.043427 1034.235977,725.644211 1006.236862,725.644211 977.038361Z" style="stroke:rgb(25.500488%,41.000366%,88.400269%); stroke-width: 2.500000;stroke-linecap: round;stroke-linejoin: round;stroke-miterlimit: 10.000000;fill: none;"></path>
  <path d="M584.219055 853.831482C584.219055 824.632980,572.618271 796.633865,551.973373 775.988983C531.328491 755.344086,503.329376 743.743301,474.130875 743.743301C444.932373 743.743301,416.933258 755.344086,396.288376 775.988983C375.643478 796.633865,364.042694 824.632980,364.042694 853.831482C364.042694 883.029984,375.643478 911.029099,396.288376 931.673981C416.933258 952.318878,444.932373 963.919662,474.130875 963.919662C503.329376 963.919662,531.328491 952.318878,551.973373 931.673981C572.618271 911.029099,584.219055 883.029984,584.219055 853.831482Z" style="stroke:rgb(25.500488%,41.000366%,88.400269%); stroke-width: 2.500000;stroke-linecap: round;stroke-linejoin: round;stroke-miterlimit: 10.000000;fill: none;"></path>
  <path d="M445.869202 730.468887C445.869202 701.270386,434.268417 673.271271,413.623520 652.626389C392.978638 631.981491,364.979523 620.380707,335.781021 620.380707C306.582520 620.380707,278.583405 631.981491,257.938522 652.626389C237.293625 673.271271,225.692841 701.270386,225.692841 730.468887C225.692841 759.667389,237.293625 787.666504,257.938522 808.311386C278.583405 828.956284,306.582520 840.557068,335.781021 840.557068C364.979523 840.557068,392.978638 828.956284,413.623520 808.311386C434.268417 787.666504,445.869202 759.667389,445.869202 730.468887Z" style="stroke:rgb(25.500488%,41.000366%,88.400269%); stroke-width: 2.500000;stroke-linecap: round;stroke-linejoin: round;stroke-miterlimit: 10.000000;fill: none;"></path>
  <path d="M308.116241 608.650421C308.116241 579.451920,296.515457 551.452805,275.870560 530.807922C255.225677 510.163025,227.226562 498.562241,198.028061 498.562241C168.829559 498.562241,140.830444 510.163025,120.185562 530.807922C99.540665 551.452805,87.939880 579.451920,87.939880 608.650421C87.939880 637.848923,99.540665 665.848038,120.185562 686.492920C140.830444 707.137817,168.829559 718.738602,198.028061 718.738602C227.226562 718.738602,255.225677 707.137817,275.870560 686.492920C296.515457 665.848038,308.116241 637.848923,308.116241 608.650421Z" style="stroke:rgb(25.500488%,41.000366%,88.400269%); stroke-width: 2.500000;stroke-linecap: round;stroke-linejoin: round;stroke-miterlimit: 10.000000;fill: none;"></path>
  <path d="M1279.199310 1577.306992C1279.199310 1548.108490,1267.598526 1520.109375,1246.953629 1499.464493C1226.308746 1478.819595,1198.309631 1467.218811,1169.111130 1467.218811C1139.912628 1467.218811,1111.913513 1478.819595,1091.268631 1499.464493C1070.623734 1520.109375,1059.022949 1548.108490,1059.022949 1577.306992C1059.022949 1606.505493,1070.623734 1634.504608,1091.268631 1655.149490C1111.913513 1675.794388,1139.912628 1687.395172,1169.111130 1687.395172C1198.309631 1687.395172,1226.308746 1675.794388,1246.953629 1655.149490C1267.598526 1634.504608,1279.199310 1606.505493,1279.199310 1577.306992Z" style="stroke:rgb(25.500488%,41.000366%,88.400269%); stroke-width: 2.500000;stroke-linecap: round;stroke-linejoin: round;stroke-miterlimit: 10.000000;fill: none;"></path>
  <path d="M1115.312744 1469.580444C1115.312744 1440.381943,1103.711960 1412.382828,1083.067062 1391.737946C1062.422180 1371.093048,1034.423065 1359.492264,1005.224564 1359.492264C976.026062 1359.492264,948.026947 1371.093048,927.382065 1391.737946C906.737167 1412.382828,895.136383 1440.381943,895.136383 1469.580444C895.136383 1498.778946,906.737167 1526.778061,927.382065 1547.422943C948.026947 1568.067841,976.026062 1579.668625,1005.224564 1579.668625C1034.423065 1579.668625,1062.422180 1568.067841,1083.067062 1547.422943C1103.711960 1526.778061,1115.312744 1498.778946,1115.312744 1469.580444Z" style="stroke:rgb(25.500488%,41.000366%,88.400269%); stroke-width: 2.500000;stroke-linecap: round;stroke-linejoin: round;stroke-miterlimit: 10.000000;fill: none;"></path>
  <path d="M967.140091 1389.142365C967.140091 1359.943863,955.539307 1331.944748,934.894409 1311.299866C914.249527 1290.654968,886.250412 1279.054184,857.051910 1279.054184C827.853409 1279.054184,799.854294 1290.654968,779.209412 1311.299866C758.564514 1331.944748,746.963730 1359.943863,746.963730 1389.142365C746.963730 1418.340866,758.564514 1446.339981,779.209412 1466.984863C799.854294 1487.629761,827.853409 1499.230545,857.051910 1499.230545C886.250412 1499.230545,914.249527 1487.629761,934.894409 1466.984863C955.539307 1446.339981,967.140091 1418.340866,967.140091 1389.142365Z" style="stroke:rgb(25.500488%,41.000366%,88.400269%); stroke-width: 2.500000;stroke-linecap: round;stroke-linejoin: round;stroke-miterlimit: 10.000000;fill: none;"></path>
  <path d="M825.779816 1280.377747C825.779816 1251.179245,814.179031 1223.180130,793.534134 1202.535248C772.889252 1181.890350,744.890137 1170.289566,715.691635 1170.289566C686.493134 1170.289566,658.494019 1181.890350,637.849136 1202.535248C617.204239 1223.180130,605.603455 1251.179245,605.603455 1280.377747C605.603455 1309.576248,617.204239 1337.575363,637.849136 1358.220245C658.494019 1378.865143,686.493134 1390.465927,715.691635 1390.465927C744.890137 1390.465927,772.889252 1378.865143,793.534134 1358.220245C814.179031 1337.575363,825.779816 1309.576248,825.779816 1280.377747Z" style="stroke:rgb(25.500488%,41.000366%,88.400269%); stroke-width: 2.500000;stroke-linecap: round;stroke-linejoin: round;stroke-miterlimit: 10.000000;fill: none;"></path>
  <path d="M688.013870 1171.457413C688.013870 1142.258911,676.413086 1114.259796,655.768188 1093.614914C635.123306 1072.970016,607.124191 1061.369232,577.925690 1061.369232C548.727188 1061.369232,520.728073 1072.970016,500.083191 1093.614914C479.438293 1114.259796,467.837509 1142.258911,467.837509 1171.457413C467.837509 1200.655914,479.438293 1228.655029,500.083191 1249.299911C520.728073 1269.944809,548.727188 1281.545593,577.925690 1281.545593C607.124191 1281.545593,635.123306 1269.944809,655.768188 1249.299911C676.413086 1228.655029,688.013870 1200.655914,688.013870 1171.457413Z" style="stroke:rgb(25.500488%,41.000366%,88.400269%); stroke-width: 2.500000;stroke-linecap: round;stroke-linejoin: round;stroke-miterlimit: 10.000000;fill: none;"></path>
  <path d="M551.117340 1046.200317C551.117340 1017.001816,539.516556 989.002701,518.871658 968.357819C498.226776 947.712921,470.227661 936.112137,441.029160 936.112137C411.830658 936.112137,383.831543 947.712921,363.186661 968.357819C342.541763 989.002701,330.940979 1017.001816,330.940979 1046.200317C330.940979 1075.398819,342.541763 1103.397934,363.186661 1124.042816C383.831543 1144.687714,411.830658 1156.288498,441.029160 1156.288498C470.227661 1156.288498,498.226776 1144.687714,518.871658 1124.042816C539.516556 1103.397934,551.117340 1075.398819,551.117340 1046.200317Z" style="stroke:rgb(25.500488%,41.000366%,88.400269%); stroke-width: 2.500000;stroke-linecap: round;stroke-linejoin: round;stroke-miterlimit: 10.000000;fill: none;"></path>
  <path d="M410.366928 915.817719C410.366928 886.619217,398.766144 858.620102,378.121246 837.975220C357.476364 817.330322,329.477249 805.729538,300.278748 805.729538C271.080246 805.729538,243.081131 817.330322,222.436249 837.975220C201.791351 858.620102,190.190567 886.619217,190.190567 915.817719C190.190567 945.016220,201.791351 973.015335,222.436249 993.660217C243.081131 1014.305115,271.080246 1025.905899,300.278748 1025.905899C329.477249 1025.905899,357.476364 1014.305115,378.121246 993.660217C398.766144 973.015335,410.366928 945.016220,410.366928 915.817719Z" style="stroke:rgb(25.500488%,41.000366%,88.400269%); stroke-width: 2.500000;stroke-linecap: round;stroke-linejoin: round;stroke-miterlimit: 10.000000;fill: none;"></path>
  <path d="M264.478043 790.781219C264.478043 761.582718,252.877258 733.583603,232.232361 712.938721C211.587479 692.293823,183.588364 680.693039,154.389862 680.693039C125.191360 680.693039,97.192245 692.293823,76.547363 712.938721C55.902466 733.583603,44.301682 761.582718,44.301682 790.781219C44.301682 819.979721,55.902466 847.978836,76.547363 868.623718C97.192245 889.268616,125.191360 900.869400,154.389862 900.869400C183.588364 900.869400,211.587479 889.268616,232.232361 868.623718C252.877258 847.978836,264.478043 819.979721,264.478043 790.781219Z" style="stroke:rgb(25.500488%,41.000366%,88.400269%); stroke-width: 2.500000;stroke-linecap: round;stroke-linejoin: round;stroke-miterlimit: 10.000000;fill: none;"></path>
  <path d="M1106.359329 1644.146240C1106.359329 1614.947739,1094.758545 1586.948624,1074.113647 1566.303741C1053.468765 1545.658844,1025.469650 1534.058060,996.271149 1534.058060C967.072647 1534.058060,939.073532 1545.658844,918.428650 1566.303741C897.783752 1586.948624,886.182968 1614.947739,886.182968 1644.146240C886.182968 1673.344742,897.783752 1701.343857,918.428650 1721.988739C939.073532 1742.633636,967.072647 1754.234421,996.271149 1754.234421C1025.469650 1754.234421,1053.468765 1742.633636,1074.113647 1721.988739C1094.758545 1701.343857,1106.359329 1673.344742,1106.359329 1644.146240Z" style="stroke:rgb(25.500488%,41.000366%,88.400269%); stroke-width: 2.500000;stroke-linecap: round;stroke-linejoin: round;stroke-miterlimit: 10.000000;fill: none;"></path>
  <path d="M936.101547 1575.464401C936.101547 1546.265900,924.500763 1518.266785,903.855865 1497.621902C883.210983 1476.977005,855.211868 1465.376221,826.013367 1465.376221C796.814865 1465.376221,768.815750 1476.977005,748.170868 1497.621902C727.525970 1518.266785,715.925186 1546.265900,715.925186 1575.464401C715.925186 1604.662903,727.525970 1632.662018,748.170868 1653.306900C768.815750 1673.951797,796.814865 1685.552582,826.013367 1685.552582C855.211868 1685.552582,883.210983 1673.951797,903.855865 1653.306900C924.500763 1632.662018,936.101547 1604.662903,936.101547 1575.464401Z" style="stroke:rgb(25.500488%,41.000366%,88.400269%); stroke-width: 2.500000;stroke-linecap: round;stroke-linejoin: round;stroke-miterlimit: 10.000000;fill: none;"></path>
  <path d="M785.748917 1469.775085C785.748917 1440.576584,774.148132 1412.577469,753.503235 1391.932587C732.858353 1371.287689,704.859238 1359.686905,675.660736 1359.686905C646.462234 1359.686905,618.463120 1371.287689,597.818237 1391.932587C577.173340 1412.577469,565.572556 1440.576584,565.572556 1469.775085C565.572556 1498.973587,577.173340 1526.972702,597.818237 1547.617584C618.463120 1568.262482,646.462234 1579.863266,675.660736 1579.863266C704.859238 1579.863266,732.858353 1568.262482,753.503235 1547.617584C774.148132 1526.972702,785.748917 1498.973587,785.748917 1469.775085Z" style="stroke:rgb(25.500488%,41.000366%,88.400269%); stroke-width: 2.500000;stroke-linecap: round;stroke-linejoin: round;stroke-miterlimit: 10.000000;fill: none;"></path>
  <path d="M652.887909 1368.432709C652.887909 1339.234207,641.287125 1311.235092,620.642227 1290.590210C599.997345 1269.945312,571.998230 1258.344528,542.799728 1258.344528C513.601227 1258.344528,485.602112 1269.945312,464.957230 1290.590210C444.312332 1311.235092,432.711548 1339.234207,432.711548 1368.432709C432.711548 1397.631210,444.312332 1425.630325,464.957230 1446.275208C485.602112 1466.920105,513.601227 1478.520889,542.799728 1478.520889C571.998230 1478.520889,599.997345 1466.920105,620.642227 1446.275208C641.287125 1425.630325,652.887909 1397.631210,652.887909 1368.432709Z" style="stroke:rgb(25.500488%,41.000366%,88.400269%); stroke-width: 2.500000;stroke-linecap: round;stroke-linejoin: round;stroke-miterlimit: 10.000000;fill: none;"></path>
  <path d="M516.743973 1242.955032C516.743973 1213.756531,505.143188 1185.757416,484.498291 1165.112534C463.853409 1144.467636,435.854294 1132.866852,406.655792 1132.866852C377.457291 1132.866852,349.458176 1144.467636,328.813293 1165.112534C308.168396 1185.757416,296.567612 1213.756531,296.567612 1242.955032C296.567612 1272.153534,308.168396 1300.152649,328.813293 1320.797531C349.458176 1341.442429,377.457291 1353.043213,406.655792 1353.043213C435.854294 1353.043213,463.853409 1341.442429,484.498291 1320.797531C505.143188 1300.152649,516.743973 1272.153534,516.743973 1242.955032Z" style="stroke:rgb(25.500488%,41.000366%,88.400269%); stroke-width: 2.500000;stroke-linecap: round;stroke-linejoin: round;stroke-miterlimit: 10.000000;fill: none;"></path>
  <path d="M386.646851 1094.302261C386.646851 1065.103760,375.046066 1037.104645,354.401169 1016.459763C333.756287 995.814865,305.757172 984.214081,276.558670 984.214081C247.360168 984.214081,219.361053 995.814865,198.716171 1016.459763C178.071274 1037.104645,166.470490 1065.103760,166.470490 1094.302261C166.470490 1123.500763,178.071274 1151.499878,198.716171 1172.144760C219.361053 1192.789658,247.360168 1204.390442,276.558670 1204.390442C305.757172 1204.390442,333.756287 1192.789658,354.401169 1172.144760C375.046066 1151.499878,386.646851 1123.500763,386.646851 1094.302261Z" style="stroke:rgb(25.500488%,41.000366%,88.400269%); stroke-width: 2.500000;stroke-linecap: round;stroke-linejoin: round;stroke-miterlimit: 10.000000;fill: none;"></path>
  <path d="M228.288040 972.509750C228.288040 943.311249,216.687256 915.312134,196.042358 894.667252C175.397476 874.022354,147.398361 862.421570,118.199860 862.421570C89.001358 862.421570,61.002243 874.022354,40.357361 894.667252C19.712463 915.312134,8.111679 943.311249,8.111679 972.509750C8.111679 1001.708252,19.712463 1029.707367,40.357361 1050.352249C61.002243 1070.997147,89.001358 1082.597931,118.199860 1082.597931C147.398361 1082.597931,175.397476 1070.997147,196.042358 1050.352249C216.687256 1029.707367,228.288040 1001.708252,228.288040 972.509750Z" style="stroke:rgb(25.500488%,41.000366%,88.400269%); stroke-width: 2.500000;stroke-linecap: round;stroke-linejoin: round;stroke-miterlimit: 10.000000;fill: none;"></path>
  <path d="M763.806549 1659.821213C763.806549 1630.622711,752.205765 1602.623596,731.560867 1581.978714C710.915985 1561.333817,682.916870 1549.733032,653.718369 1549.733032C624.519867 1549.733032,596.520752 1561.333817,575.875870 1581.978714C555.230972 1602.623596,543.630188 1630.622711,543.630188 1659.821213C543.630188 1689.019714,555.230972 1717.018829,575.875870 1737.663712C596.520752 1758.308609,624.519867 1769.909393,653.718369 1769.909393C682.916870 1769.909393,710.915985 1758.308609,731.560867 1737.663712C752.205765 1717.018829,763.806549 1689.019714,763.806549 1659.821213Z" style="stroke:rgb(25.500488%,41.000366%,88.400269%); stroke-width: 2.500000;stroke-linecap: round;stroke-linejoin: round;stroke-miterlimit: 10.000000;fill: none;"></path>
  <path d="M610.728973 1564.888977C610.728973 1535.690475,599.128189 1507.691360,578.483292 1487.046478C557.838409 1466.401581,529.839294 1454.800797,500.640793 1454.800797C471.442291 1454.800797,443.443176 1466.401581,422.798294 1487.046478C402.153397 1507.691360,390.552612 1535.690475,390.552612 1564.888977C390.552612 1594.087479,402.153397 1622.086594,422.798294 1642.731476C443.443176 1663.376373,471.442291 1674.977158,500.640793 1674.977158C529.839294 1674.977158,557.838409 1663.376373,578.483292 1642.731476C599.128189 1622.086594,610.728973 1594.087479,610.728973 1564.888977Z" style="stroke:rgb(25.500488%,41.000366%,88.400269%); stroke-width: 2.500000;stroke-linecap: round;stroke-linejoin: round;stroke-miterlimit: 10.000000;fill: none;"></path>
  <path d="M479.334244 1438.295364C479.334244 1409.096863,467.733459 1381.097748,447.088562 1360.452866C426.443680 1339.807968,398.444565 1328.207184,369.246063 1328.207184C340.047562 1328.207184,312.048447 1339.807968,291.403564 1360.452866C270.758667 1381.097748,259.157883 1409.096863,259.157883 1438.295364C259.157883 1467.493866,270.758667 1495.492981,291.403564 1516.137863C312.048447 1536.782761,340.047562 1548.383545,369.246063 1548.383545C398.444565 1548.383545,426.443680 1536.782761,447.088562 1516.137863C467.733459 1495.492981,479.334244 1467.493866,479.334244 1438.295364Z" style="stroke:rgb(25.500488%,41.000366%,88.400269%); stroke-width: 2.500000;stroke-linecap: round;stroke-linejoin: round;stroke-miterlimit: 10.000000;fill: none;"></path>
  <path d="M351.754456 1285.425400C351.754456 1256.226898,340.153671 1228.227783,319.508774 1207.582901C298.863892 1186.938004,270.864777 1175.337219,241.666275 1175.337219C212.467773 1175.337219,184.468658 1186.938004,163.823776 1207.582901C143.178879 1228.227783,131.578094 1256.226898,131.578094 1285.425400C131.578094 1314.623901,143.178879 1342.623016,163.823776 1363.267899C184.468658 1383.912796,212.467773 1395.513580,241.666275 1395.513580C270.864777 1395.513580,298.863892 1383.912796,319.508774 1363.267899C340.153671 1342.623016,351.754456 1314.623901,351.754456 1285.425400Z" style="stroke:rgb(25.500488%,41.000366%,88.400269%); stroke-width: 2.500000;stroke-linecap: round;stroke-linejoin: round;stroke-miterlimit: 10.000000;fill: none;"></path>
  <path d="M220.528412 1129.843445C220.528412 1100.644943,208.927628 1072.645828,188.282730 1052.000946C167.637848 1031.356049,139.638733 1019.755264,110.440231 1019.755264C81.241730 1019.755264,53.242615 1031.356049,32.597733 1052.000946C11.952835 1072.645828,0.352051 1100.644943,0.352051 1129.843445C0.352051 1159.041946,11.952835 1187.041061,32.597733 1207.685944C53.242615 1228.330841,81.241730 1239.931625,110.440231 1239.931625C139.638733 1239.931625,167.637848 1228.330841,188.282730 1207.685944C208.927628 1187.041061,220.528412 1159.041946,220.528412 1129.843445Z" style="stroke:rgb(25.500488%,41.000366%,88.400269%); stroke-width: 2.500000;stroke-linecap: round;stroke-linejoin: round;stroke-miterlimit: 10.000000;fill: none;"></path>
</svg>
