<?xml version="1.0"?>
<!-- Created by MetaPost 2.00 on 2022.03.02:1201 -->
<svg version="1.1" xmlns="http://www.w3.org/2000/svg" xmlns:xlink="http://www.w3.org/1999/xlink" width="1829.984467" height="1824.495621" viewBox="0 0 1829.984467 1824.495621">
<!-- Original BoundingBox: -920.208572 -892.972000 909.775894 931.523621 -->
  <path d="M920.000000 80.606476L373.374054 279.567108L82.530548 783.333405L183.535538 1356.196762L629.143509 1730.112473L1210.856491 1730.112473L1656.464462 1356.196762L1757.469452 783.333405L1466.625946 279.567108L920.000000 80.606476Z" style="fill: rgb(100.000000%,100.000000%,100.000000%);stroke: none;"></path>
  <path d="M920.000000 80.606476L373.374054 279.567108" style="stroke:rgb(0.000000%,0.000000%,0.000000%); stroke-width: 2.500000;stroke-linecap: round;stroke-linejoin: round;stroke-miterlimit: 10.000000;fill: none;"></path>
  <path d="M373.374054 279.567108L82.530548 783.333405" style="stroke:rgb(0.000000%,0.000000%,0.000000%); stroke-width: 2.500000;stroke-linecap: round;stroke-linejoin: round;stroke-miterlimit: 10.000000;fill: none;"></path>
  <path d="M82.530548 783.333405L183.535538 1356.196762" style="stroke:rgb(0.000000%,0.000000%,0.000000%); stroke-width: 2.500000;stroke-linecap: round;stroke-linejoin: round;stroke-miterlimit: 10.000000;fill: none;"></path>
  <path d="M183.535538 1356.196762L629.143509 1730.112473" style="stroke:rgb(0.000000%,0.000000%,0.000000%); stroke-width: 2.500000;stroke-linecap: round;stroke-linejoin: round;stroke-miterlimit: 10.000000;fill: none;"></path>
  <path d="M629.143509 1730.112473L1210.856491 1730.112473" style="stroke:rgb(0.000000%,0.000000%,0.000000%); stroke-width: 2.500000;stroke-linecap: round;stroke-linejoin: round;stroke-miterlimit: 10.000000;fill: none;"></path>
  <path d="M1210.856491 1730.112473L1656.464462 1356.196762" style="stroke:rgb(0.000000%,0.000000%,0.000000%); stroke-width: 2.500000;stroke-linecap: round;stroke-linejoin: round;stroke-miterlimit: 10.000000;fill: none;"></path>
  <path d="M1656.464462 1356.196762L1757.469452 783.333405" style="stroke:rgb(0.000000%,0.000000%,0.000000%); stroke-width: 2.500000;stroke-linecap: round;stroke-linejoin: round;stroke-miterlimit: 10.000000;fill: none;"></path>
  <path d="M1757.469452 783.333405L1466.625946 279.567108" style="stroke:rgb(0.000000%,0.000000%,0.000000%); stroke-width: 2.500000;stroke-linecap: round;stroke-linejoin: round;stroke-miterlimit: 10.000000;fill: none;"></path>
  <path d="M1466.625946 279.567108L920.000000 80.606476" style="stroke:rgb(0.000000%,0.000000%,0.000000%); stroke-width: 2.500000;stroke-linecap: round;stroke-linejoin: round;stroke-miterlimit: 10.000000;fill: none;"></path>
  <path d="M405.969711 1333.073578C405.969711 1292.335419,389.784134 1253.270645,360.980072 1224.466599C332.176025 1195.662537,293.111252 1179.476959,252.373093 1179.476959C211.634933 1179.476959,172.570160 1195.662537,143.766113 1224.466599C114.962051 1253.270645,98.776474 1292.335419,98.776474 1333.073578C98.776474 1373.811737,114.962051 1412.876511,143.766113 1441.680557C172.570160 1470.484619,211.634933 1486.670197,252.373093 1486.670197C293.111252 1486.670197,332.176025 1470.484619,360.980072 1441.680557C389.784134 1412.876511,405.969711 1373.811737,405.969711 1333.073578Z" style="stroke:rgb(25.500488%,41.000366%,88.400269%); stroke-width: 2.500000;stroke-linecap: round;stroke-linejoin: round;stroke-miterlimit: 10.000000;fill: none;"></path>
  <path d="M625.938446 1492.029266C625.938446 1451.291107,609.752869 1412.226334,580.948807 1383.422287C552.144760 1354.618225,513.079987 1338.432648,472.341827 1338.432648C431.603668 1338.432648,392.538895 1354.618225,363.734848 1383.422287C334.930786 1412.226334,318.745209 1451.291107,318.745209 1492.029266C318.745209 1532.767426,334.930786 1571.832199,363.734848 1600.636246C392.538895 1629.440308,431.603668 1645.625885,472.341827 1645.625885C513.079987 1645.625885,552.144760 1629.440308,580.948807 1600.636246C609.752869 1571.832199,625.938446 1532.767426,625.938446 1492.029266Z" style="stroke:rgb(25.500488%,41.000366%,88.400269%); stroke-width: 2.500000;stroke-linecap: round;stroke-linejoin: round;stroke-miterlimit: 10.000000;fill: none;"></path>
  <path d="M823.990753 1608.929840C823.990753 1568.191681,807.805176 1529.126907,779.001114 1500.322861C750.197067 1471.518799,711.132294 1455.333221,670.394135 1455.333221C629.655975 1455.333221,590.591202 1471.518799,561.787155 1500.322861C532.983093 1529.126907,516.797516 1568.191681,516.797516 1608.929840C516.797516 1649.667999,532.983093 1688.732773,561.787155 1717.536819C590.591202 1746.340881,629.655975 1762.526459,670.394135 1762.526459C711.132294 1762.526459,750.197067 1746.340881,779.001114 1717.536819C807.805176 1688.732773,823.990753 1649.667999,823.990753 1608.929840Z" style="stroke:rgb(25.500488%,41.000366%,88.400269%); stroke-width: 2.500000;stroke-linecap: round;stroke-linejoin: round;stroke-miterlimit: 10.000000;fill: none;"></path>
  <path d="M1055.456207 1660.781830C1055.456207 1620.043671,1039.270630 1580.978897,1010.466568 1552.174850C981.662521 1523.370789,942.597748 1507.185211,901.859589 1507.185211C861.121429 1507.185211,822.056656 1523.370789,793.252609 1552.174850C764.448547 1580.978897,748.262970 1620.043671,748.262970 1660.781830C748.262970 1701.519989,764.448547 1740.584763,793.252609 1769.388809C822.056656 1798.192871,861.121429 1814.378448,901.859589 1814.378448C942.597748 1814.378448,981.662521 1798.192871,1010.466568 1769.388809C1039.270630 1740.584763,1055.456207 1701.519989,1055.456207 1660.781830Z" style="stroke:rgb(25.500488%,41.000366%,88.400269%); stroke-width: 2.500000;stroke-linecap: round;stroke-linejoin: round;stroke-miterlimit: 10.000000;fill: none;"></path>
  <path d="M1333.492432 1669.125381C1333.492432 1628.387222,1317.306854 1589.322449,1288.502792 1560.518402C1259.698746 1531.714340,1220.633972 1515.528763,1179.895813 1515.528763C1139.157654 1515.528763,1100.092880 1531.714340,1071.288834 1560.518402C1042.484772 1589.322449,1026.299194 1628.387222,1026.299194 1669.125381C1026.299194 1709.863541,1042.484772 1748.928314,1071.288834 1777.732361C1100.092880 1806.536423,1139.157654 1822.722000,1179.895813 1822.722000C1220.633972 1822.722000,1259.698746 1806.536423,1288.502792 1777.732361C1317.306854 1748.928314,1333.492432 1709.863541,1333.492432 1669.125381Z" style="stroke:rgb(25.500488%,41.000366%,88.400269%); stroke-width: 2.500000;stroke-linecap: round;stroke-linejoin: round;stroke-miterlimit: 10.000000;fill: none;"></path>
  <path d="M363.525299 1067.247742C363.525299 1026.509583,347.339722 987.444809,318.535660 958.640762C289.731613 929.836700,250.666840 913.651123,209.928680 913.651123C169.190521 913.651123,130.125748 929.836700,101.321701 958.640762C72.517639 987.444809,56.332062 1026.509583,56.332062 1067.247742C56.332062 1107.985901,72.517639 1147.050674,101.321701 1175.854721C130.125748 1204.658783,169.190521 1220.844360,209.928680 1220.844360C250.666840 1220.844360,289.731613 1204.658783,318.535660 1175.854721C347.339722 1147.050674,363.525299 1107.985901,363.525299 1067.247742Z" style="stroke:rgb(25.500488%,41.000366%,88.400269%); stroke-width: 2.500000;stroke-linecap: round;stroke-linejoin: round;stroke-miterlimit: 10.000000;fill: none;"></path>
  <path d="M606.201981 1208.374451C606.201981 1167.636292,590.016403 1128.571518,561.212341 1099.767471C532.408295 1070.963409,493.343521 1054.777832,452.605362 1054.777832C411.867203 1054.777832,372.802429 1070.963409,343.998383 1099.767471C315.194321 1128.571518,299.008743 1167.636292,299.008743 1208.374451C299.008743 1249.112610,315.194321 1288.177383,343.998383 1316.981430C372.802429 1345.785492,411.867203 1361.971069,452.605362 1361.971069C493.343521 1361.971069,532.408295 1345.785492,561.212341 1316.981430C590.016403 1288.177383,606.201981 1249.112610,606.201981 1208.374451Z" style="stroke:rgb(25.500488%,41.000366%,88.400269%); stroke-width: 2.500000;stroke-linecap: round;stroke-linejoin: round;stroke-miterlimit: 10.000000;fill: none;"></path>
  <path d="M824.847168 1316.931458C824.847168 1276.193298,808.661591 1237.128525,779.857529 1208.324478C751.053482 1179.520416,711.988708 1163.334839,671.250549 1163.334839C630.512390 1163.334839,591.447617 1179.520416,562.643570 1208.324478C533.839508 1237.128525,517.653931 1276.193298,517.653931 1316.931458C517.653931 1357.669617,533.839508 1396.734390,562.643570 1425.538437C591.447617 1454.342499,630.512390 1470.528076,671.250549 1470.528076C711.988708 1470.528076,751.053482 1454.342499,779.857529 1425.538437C808.661591 1396.734390,824.847168 1357.669617,824.847168 1316.931458Z" style="stroke:rgb(25.500488%,41.000366%,88.400269%); stroke-width: 2.500000;stroke-linecap: round;stroke-linejoin: round;stroke-miterlimit: 10.000000;fill: none;"></path>
  <path d="M1009.209824 1393.775192C1009.209824 1353.037033,993.024246 1313.972260,964.220184 1285.168213C935.416138 1256.364151,896.351364 1240.178574,855.613205 1240.178574C814.875046 1240.178574,775.810272 1256.364151,747.006226 1285.168213C718.202164 1313.972260,702.016586 1353.037033,702.016586 1393.775192C702.016586 1434.513351,718.202164 1473.578125,747.006226 1502.382172C775.810272 1531.186234,814.875046 1547.371811,855.613205 1547.371811C896.351364 1547.371811,935.416138 1531.186234,964.220184 1502.382172C993.024246 1473.578125,1009.209824 1434.513351,1009.209824 1393.775192Z" style="stroke:rgb(25.500488%,41.000366%,88.400269%); stroke-width: 2.500000;stroke-linecap: round;stroke-linejoin: round;stroke-miterlimit: 10.000000;fill: none;"></path>
  <path d="M1247.915878 1462.327271C1247.915878 1421.589111,1231.730301 1382.524338,1202.926239 1353.720291C1174.122192 1324.916229,1135.057419 1308.730652,1094.319260 1308.730652C1053.581100 1308.730652,1014.516327 1324.916229,985.712280 1353.720291C956.908218 1382.524338,940.722641 1421.589111,940.722641 1462.327271C940.722641 1503.065430,956.908218 1542.130203,985.712280 1570.934250C1014.516327 1599.738312,1053.581100 1615.923889,1094.319260 1615.923889C1135.057419 1615.923889,1174.122192 1599.738312,1202.926239 1570.934250C1231.730301 1542.130203,1247.915878 1503.065430,1247.915878 1462.327271Z" style="stroke:rgb(25.500488%,41.000366%,88.400269%); stroke-width: 2.500000;stroke-linecap: round;stroke-linejoin: round;stroke-miterlimit: 10.000000;fill: none;"></path>
  <path d="M1536.748108 1487.552567C1536.748108 1446.814407,1520.562531 1407.749634,1491.758469 1378.945587C1462.954422 1350.141525,1423.889648 1333.955948,1383.151489 1333.955948C1342.413330 1333.955948,1303.348557 1350.141525,1274.544510 1378.945587C1245.740448 1407.749634,1229.554871 1446.814407,1229.554871 1487.552567C1229.554871 1528.290726,1245.740448 1567.355499,1274.544510 1596.159546C1303.348557 1624.963608,1342.413330 1641.149185,1383.151489 1641.149185C1423.889648 1641.149185,1462.954422 1624.963608,1491.758469 1596.159546C1520.562531 1567.355499,1536.748108 1528.290726,1536.748108 1487.552567Z" style="stroke:rgb(25.500488%,41.000366%,88.400269%); stroke-width: 2.500000;stroke-linecap: round;stroke-linejoin: round;stroke-miterlimit: 10.000000;fill: none;"></path>
  <path d="M308.234665 801.616547C308.234665 760.878387,292.049088 721.813614,263.245026 693.009567C234.440979 664.205505,195.376205 648.019928,154.638046 648.019928C113.899887 648.019928,74.835114 664.205505,46.031067 693.009567C17.227005 721.813614,1.041428 760.878387,1.041428 801.616547C1.041428 842.354706,17.227005 881.419479,46.031067 910.223526C74.835114 939.027588,113.899887 955.213165,154.638046 955.213165C195.376205 955.213165,234.440979 939.027588,263.245026 910.223526C292.049088 881.419479,308.234665 842.354706,308.234665 801.616547Z" style="stroke:rgb(25.500488%,41.000366%,88.400269%); stroke-width: 2.500000;stroke-linecap: round;stroke-linejoin: round;stroke-miterlimit: 10.000000;fill: none;"></path>
  <path d="M559.086212 936.410980C559.086212 895.672821,542.900635 856.608047,514.096573 827.804001C485.292526 798.999939,446.227753 782.814362,405.489594 782.814362C364.751434 782.814362,325.686661 798.999939,296.882614 827.804001C268.078552 856.608047,251.892975 895.672821,251.892975 936.410980C251.892975 977.149139,268.078552 1016.213913,296.882614 1045.017960C325.686661 1073.822021,364.751434 1090.007599,405.489594 1090.007599C446.227753 1090.007599,485.292526 1073.822021,514.096573 1045.017960C542.900635 1016.213913,559.086212 977.149139,559.086212 936.410980Z" style="stroke:rgb(25.500488%,41.000366%,88.400269%); stroke-width: 2.500000;stroke-linecap: round;stroke-linejoin: round;stroke-miterlimit: 10.000000;fill: none;"></path>
  <path d="M799.855438 1031.654648C799.855438 990.916489,783.669861 951.851715,754.865799 923.047668C726.061752 894.243607,686.996979 878.058029,646.258820 878.058029C605.520660 878.058029,566.455887 894.243607,537.651840 923.047668C508.847778 951.851715,492.662201 990.916489,492.662201 1031.654648C492.662201 1072.392807,508.847778 1111.457581,537.651840 1140.261627C566.455887 1169.065689,605.520660 1185.251266,646.258820 1185.251266C686.996979 1185.251266,726.061752 1169.065689,754.865799 1140.261627C783.669861 1111.457581,799.855438 1072.392807,799.855438 1031.654648Z" style="stroke:rgb(25.500488%,41.000366%,88.400269%); stroke-width: 2.500000;stroke-linecap: round;stroke-linejoin: round;stroke-miterlimit: 10.000000;fill: none;"></path>
  <path d="M1004.810974 1100.154816C1004.810974 1059.416656,988.625397 1020.351883,959.821335 991.547836C931.017288 962.743774,891.952515 946.558197,851.214355 946.558197C810.476196 946.558197,771.411423 962.743774,742.607376 991.547836C713.803314 1020.351883,697.617737 1059.416656,697.617737 1100.154816C697.617737 1140.892975,713.803314 1179.957748,742.607376 1208.761795C771.411423 1237.565857,810.476196 1253.751434,851.214355 1253.751434C891.952515 1253.751434,931.017288 1237.565857,959.821335 1208.761795C988.625397 1179.957748,1004.810974 1140.892975,1004.810974 1100.154816Z" style="stroke:rgb(25.500488%,41.000366%,88.400269%); stroke-width: 2.500000;stroke-linecap: round;stroke-linejoin: round;stroke-miterlimit: 10.000000;fill: none;"></path>
  <path d="M1196.414230 1193.685654C1196.414230 1152.947495,1180.228653 1113.882721,1151.424591 1085.078674C1122.620544 1056.274612,1083.555771 1040.089035,1042.817612 1040.089035C1002.079453 1040.089035,963.014679 1056.274612,934.210632 1085.078674C905.406570 1113.882721,889.220993 1152.947495,889.220993 1193.685654C889.220993 1234.423813,905.406570 1273.488586,934.210632 1302.292633C963.014679 1331.096695,1002.079453 1347.282272,1042.817612 1347.282272C1083.555771 1347.282272,1122.620544 1331.096695,1151.424591 1302.292633C1180.228653 1273.488586,1196.414230 1234.423813,1196.414230 1193.685654Z" style="stroke:rgb(25.500488%,41.000366%,88.400269%); stroke-width: 2.500000;stroke-linecap: round;stroke-linejoin: round;stroke-miterlimit: 10.000000;fill: none;"></path>
  <path d="M1439.648880 1276.900574C1439.648880 1236.162415,1423.463303 1197.097641,1394.659241 1168.293594C1365.855194 1139.489532,1326.790421 1123.303955,1286.052261 1123.303955C1245.314102 1123.303955,1206.249329 1139.489532,1177.445282 1168.293594C1148.641220 1197.097641,1132.455643 1236.162415,1132.455643 1276.900574C1132.455643 1317.638733,1148.641220 1356.703506,1177.445282 1385.507553C1206.249329 1414.311615,1245.314102 1430.497192,1286.052261 1430.497192C1326.790421 1430.497192,1365.855194 1414.311615,1394.659241 1385.507553C1423.463303 1356.703506,1439.648880 1317.638733,1439.648880 1276.900574Z" style="stroke:rgb(25.500488%,41.000366%,88.400269%); stroke-width: 2.500000;stroke-linecap: round;stroke-linejoin: round;stroke-miterlimit: 10.000000;fill: none;"></path>
  <path d="M1730.544296 1311.416672C1730.544296 1270.678513,1714.358719 1231.613739,1685.554657 1202.809692C1656.750610 1174.005630,1617.685837 1157.820053,1576.947678 1157.820053C1536.209518 1157.820053,1497.144745 1174.005630,1468.340698 1202.809692C1439.536636 1231.613739,1423.351059 1270.678513,1423.351059 1311.416672C1423.351059 1352.154831,1439.536636 1391.219604,1468.340698 1420.023651C1497.144745 1448.827713,1536.209518 1465.013290,1576.947678 1465.013290C1617.685837 1465.013290,1656.750610 1448.827713,1685.554657 1420.023651C1714.358719 1391.219604,1730.544296 1352.154831,1730.544296 1311.416672Z" style="stroke:rgb(25.500488%,41.000366%,88.400269%); stroke-width: 2.500000;stroke-linecap: round;stroke-linejoin: round;stroke-miterlimit: 10.000000;fill: none;"></path>
  <path d="M466.476685 668.093765C466.476685 627.355606,450.291107 588.290833,421.487045 559.486786C392.682999 530.682724,353.618225 514.497147,312.880066 514.497147C272.141907 514.497147,233.077133 530.682724,204.273087 559.486786C175.469025 588.290833,159.283447 627.355606,159.283447 668.093765C159.283447 708.831924,175.469025 747.896698,204.273087 776.700745C233.077133 805.504807,272.141907 821.690384,312.880066 821.690384C353.618225 821.690384,392.682999 805.504807,421.487045 776.700745C450.291107 747.896698,466.476685 708.831924,466.476685 668.093765Z" style="stroke:rgb(25.500488%,41.000366%,88.400269%); stroke-width: 2.500000;stroke-linecap: round;stroke-linejoin: round;stroke-miterlimit: 10.000000;fill: none;"></path>
  <path d="M719.092972 753.864960C719.092972 713.126801,702.907394 674.062027,674.103333 645.257980C645.299286 616.453918,606.234512 600.268341,565.496353 600.268341C524.758194 600.268341,485.693420 616.453918,456.889374 645.257980C428.085312 674.062027,411.899734 713.126801,411.899734 753.864960C411.899734 794.603119,428.085312 833.667892,456.889374 862.471939C485.693420 891.276001,524.758194 907.461578,565.496353 907.461578C606.234512 907.461578,645.299286 891.276001,674.103333 862.471939C702.907394 833.667892,719.092972 794.603119,719.092972 753.864960Z" style="stroke:rgb(25.500488%,41.000366%,88.400269%); stroke-width: 2.500000;stroke-linecap: round;stroke-linejoin: round;stroke-miterlimit: 10.000000;fill: none;"></path>
  <path d="M952.829208 824.207718C952.829208 783.469559,936.643631 744.404785,907.839569 715.600739C879.035522 686.796677,839.970749 670.611099,799.232590 670.611099C758.494431 670.611099,719.429657 686.796677,690.625610 715.600739C661.821548 744.404785,645.635971 783.469559,645.635971 824.207718C645.635971 864.945877,661.821548 904.010651,690.625610 932.814697C719.429657 961.618759,758.494431 977.804337,799.232590 977.804337C839.970749 977.804337,879.035522 961.618759,907.839569 932.814697C936.643631 904.010651,952.829208 864.945877,952.829208 824.207718Z" style="stroke:rgb(25.500488%,41.000366%,88.400269%); stroke-width: 2.500000;stroke-linecap: round;stroke-linejoin: round;stroke-miterlimit: 10.000000;fill: none;"></path>
  <path d="M1184.333588 898.054001C1184.333588 857.315842,1168.148010 818.251068,1139.343948 789.447021C1110.539902 760.642960,1071.475128 744.457382,1030.736969 744.457382C989.998810 744.457382,950.934036 760.642960,922.129990 789.447021C893.325928 818.251068,877.140350 857.315842,877.140350 898.054001C877.140350 938.792160,893.325928 977.856934,922.129990 1006.660980C950.934036 1035.465042,989.998810 1051.650620,1030.736969 1051.650620C1071.475128 1051.650620,1110.539902 1035.465042,1139.343948 1006.660980C1168.148010 977.856934,1184.333588 938.792160,1184.333588 898.054001Z" style="stroke:rgb(25.500488%,41.000366%,88.400269%); stroke-width: 2.500000;stroke-linecap: round;stroke-linejoin: round;stroke-miterlimit: 10.000000;fill: none;"></path>
  <path d="M1379.505234 1006.001144C1379.505234 965.262985,1363.319656 926.198212,1334.515594 897.394165C1305.711548 868.590103,1266.646774 852.404526,1225.908615 852.404526C1185.170456 852.404526,1146.105682 868.590103,1117.301636 897.394165C1088.497574 926.198212,1072.311996 965.262985,1072.311996 1006.001144C1072.311996 1046.739304,1088.497574 1085.804077,1117.301636 1114.608124C1146.105682 1143.412186,1185.170456 1159.597763,1225.908615 1159.597763C1266.646774 1159.597763,1305.711548 1143.412186,1334.515594 1114.608124C1363.319656 1085.804077,1379.505234 1046.739304,1379.505234 1006.001144Z" style="stroke:rgb(25.500488%,41.000366%,88.400269%); stroke-width: 2.500000;stroke-linecap: round;stroke-linejoin: round;stroke-miterlimit: 10.000000;fill: none;"></path>
  <path d="M1594.478226 1098.247345C1594.478226 1057.509186,1578.292648 1018.444412,1549.488586 989.640366C1520.684540 960.836304,1481.619766 944.650726,1440.881607 944.650726C1400.143448 944.650726,1361.078674 960.836304,1332.274628 989.640366C1303.470566 1018.444412,1287.284988 1057.509186,1287.284988 1098.247345C1287.284988 1138.985504,1303.470566 1178.050278,1332.274628 1206.854324C1361.078674 1235.658386,1400.143448 1251.843964,1440.881607 1251.843964C1481.619766 1251.843964,1520.684540 1235.658386,1549.488586 1206.854324C1578.292648 1178.050278,1594.478226 1138.985504,1594.478226 1098.247345Z" style="stroke:rgb(25.500488%,41.000366%,88.400269%); stroke-width: 2.500000;stroke-linecap: round;stroke-linejoin: round;stroke-miterlimit: 10.000000;fill: none;"></path>
  <path d="M481.360123 437.329010C481.360123 396.590851,465.174545 357.526077,436.370483 328.722031C407.566437 299.917969,368.501663 283.732391,327.763504 283.732391C287.025345 283.732391,247.960571 299.917969,219.156525 328.722031C190.352463 357.526077,174.166885 396.590851,174.166885 437.329010C174.166885 478.067169,190.352463 517.131943,219.156525 545.935989C247.960571 574.740051,287.025345 590.925629,327.763504 590.925629C368.501663 590.925629,407.566437 574.740051,436.370483 545.935989C465.174545 517.131943,481.360123 478.067169,481.360123 437.329010Z" style="stroke:rgb(25.500488%,41.000366%,88.400269%); stroke-width: 2.500000;stroke-linecap: round;stroke-linejoin: round;stroke-miterlimit: 10.000000;fill: none;"></path>
  <path d="M725.593933 529.977478C725.593933 489.239319,709.408356 450.174545,680.604294 421.370499C651.800247 392.566437,612.735474 376.380859,571.997314 376.380859C531.259155 376.380859,492.194382 392.566437,463.390335 421.370499C434.586273 450.174545,418.400696 489.239319,418.400696 529.977478C418.400696 570.715637,434.586273 609.780411,463.390335 638.584457C492.194382 667.388519,531.259155 683.574097,571.997314 683.574097C612.735474 683.574097,651.800247 667.388519,680.604294 638.584457C709.408356 609.780411,725.593933 570.715637,725.593933 529.977478Z" style="stroke:rgb(25.500488%,41.000366%,88.400269%); stroke-width: 2.500000;stroke-linecap: round;stroke-linejoin: round;stroke-miterlimit: 10.000000;fill: none;"></path>
  <path d="M924.372894 559.004730C924.372894 518.266571,908.187317 479.201797,879.383255 450.397751C850.579208 421.593689,811.514435 405.408112,770.776276 405.408112C730.038116 405.408112,690.973343 421.593689,662.169296 450.397751C633.365234 479.201797,617.179657 518.266571,617.179657 559.004730C617.179657 599.742889,633.365234 638.807663,662.169296 667.611710C690.973343 696.415771,730.038116 712.601349,770.776276 712.601349C811.514435 712.601349,850.579208 696.415771,879.383255 667.611710C908.187317 638.807663,924.372894 599.742889,924.372894 559.004730Z" style="stroke:rgb(25.500488%,41.000366%,88.400269%); stroke-width: 2.500000;stroke-linecap: round;stroke-linejoin: round;stroke-miterlimit: 10.000000;fill: none;"></path>
  <path d="M1167.348038 669.780640C1167.348038 629.042480,1151.162460 589.977707,1122.358398 561.173660C1093.554352 532.369598,1054.489578 516.184021,1013.751419 516.184021C973.013260 516.184021,933.948486 532.369598,905.144440 561.173660C876.340378 589.977707,860.154800 629.042480,860.154800 669.780640C860.154800 710.518799,876.340378 749.583572,905.144440 778.387619C933.948486 807.191681,973.013260 823.377258,1013.751419 823.377258C1054.489578 823.377258,1093.554352 807.191681,1122.358398 778.387619C1151.162460 749.583572,1167.348038 710.518799,1167.348038 669.780640Z" style="stroke:rgb(25.500488%,41.000366%,88.400269%); stroke-width: 2.500000;stroke-linecap: round;stroke-linejoin: round;stroke-miterlimit: 10.000000;fill: none;"></path>
  <path d="M1426.698868 737.865585C1426.698868 697.127426,1410.513290 658.062653,1381.709229 629.258606C1352.905182 600.454544,1313.840408 584.268967,1273.102249 584.268967C1232.364090 584.268967,1193.299316 600.454544,1164.495270 629.258606C1135.691208 658.062653,1119.505630 697.127426,1119.505630 737.865585C1119.505630 778.603745,1135.691208 817.668518,1164.495270 846.472565C1193.299316 875.276627,1232.364090 891.462204,1273.102249 891.462204C1313.840408 891.462204,1352.905182 875.276627,1381.709229 846.472565C1410.513290 817.668518,1426.698868 778.603745,1426.698868 737.865585Z" style="stroke:rgb(25.500488%,41.000366%,88.400269%); stroke-width: 2.500000;stroke-linecap: round;stroke-linejoin: round;stroke-miterlimit: 10.000000;fill: none;"></path>
  <path d="M1622.804779 849.679565C1622.804779 808.941406,1606.619202 769.876633,1577.815140 741.072586C1549.011093 712.268524,1509.946320 696.082947,1469.208160 696.082947C1428.470001 696.082947,1389.405228 712.268524,1360.601181 741.072586C1331.797119 769.876633,1315.611542 808.941406,1315.611542 849.679565C1315.611542 890.417725,1331.797119 929.482498,1360.601181 958.286545C1389.405228 987.090607,1428.470001 1003.276184,1469.208160 1003.276184C1509.946320 1003.276184,1549.011093 987.090607,1577.815140 958.286545C1606.619202 929.482498,1622.804779 890.417725,1622.804779 849.679565Z" style="stroke:rgb(25.500488%,41.000366%,88.400269%); stroke-width: 2.500000;stroke-linecap: round;stroke-linejoin: round;stroke-miterlimit: 10.000000;fill: none;"></path>
  <path d="M1828.525894 1047.731873C1828.525894 1006.993713,1812.340317 967.928940,1783.536255 939.124893C1754.732208 910.320831,1715.667435 894.135254,1674.929276 894.135254C1634.191116 894.135254,1595.126343 910.320831,1566.322296 939.124893C1537.518234 967.928940,1521.332657 1006.993713,1521.332657 1047.731873C1521.332657 1088.470032,1537.518234 1127.534805,1566.322296 1156.338852C1595.126343 1185.142914,1634.191116 1201.328491,1674.929276 1201.328491C1715.667435 1201.328491,1754.732208 1185.142914,1783.536255 1156.338852C1812.340317 1127.534805,1828.525894 1088.470032,1828.525894 1047.731873Z" style="stroke:rgb(25.500488%,41.000366%,88.400269%); stroke-width: 2.500000;stroke-linecap: round;stroke-linejoin: round;stroke-miterlimit: 10.000000;fill: none;"></path>
  <path d="M674.987625 283.888107C674.987625 243.149948,658.802048 204.085175,629.997986 175.281128C601.193939 146.477066,562.129166 130.291489,521.391006 130.291489C480.652847 130.291489,441.588074 146.477066,412.784027 175.281128C383.979965 204.085175,367.794388 243.149948,367.794388 283.888107C367.794388 324.626266,383.979965 363.691040,412.784027 392.495087C441.588074 421.299149,480.652847 437.484726,521.391006 437.484726C562.129166 437.484726,601.193939 421.299149,629.997986 392.495087C658.802048 363.691040,674.987625 324.626266,674.987625 283.888107Z" style="stroke:rgb(25.500488%,41.000366%,88.400269%); stroke-width: 2.500000;stroke-linecap: round;stroke-linejoin: round;stroke-miterlimit: 10.000000;fill: none;"></path>
  <path d="M903.027420 288.650284C903.027420 247.912125,886.841843 208.847351,858.037781 180.043304C829.233734 151.239243,790.168961 135.053665,749.430801 135.053665C708.692642 135.053665,669.627869 151.239243,640.823822 180.043304C612.019760 208.847351,595.834183 247.912125,595.834183 288.650284C595.834183 329.388443,612.019760 368.453217,640.823822 397.257263C669.627869 426.061325,708.692642 442.246902,749.430801 442.246902C790.168961 442.246902,829.233734 426.061325,858.037781 397.257263C886.841843 368.453217,903.027420 329.388443,903.027420 288.650284Z" style="stroke:rgb(25.500488%,41.000366%,88.400269%); stroke-width: 2.500000;stroke-linecap: round;stroke-linejoin: round;stroke-miterlimit: 10.000000;fill: none;"></path>
  <path d="M1139.216125 420.032043C1139.216125 379.293884,1123.030548 340.229111,1094.226486 311.425064C1065.422440 282.621002,1026.357666 266.435425,985.619507 266.435425C944.881348 266.435425,905.816574 282.621002,877.012527 311.425064C848.208466 340.229111,832.022888 379.293884,832.022888 420.032043C832.022888 460.770203,848.208466 499.834976,877.012527 528.639023C905.816574 557.443085,944.881348 573.628662,985.619507 573.628662C1026.357666 573.628662,1065.422440 557.443085,1094.226486 528.639023C1123.030548 499.834976,1139.216125 460.770203,1139.216125 420.032043Z" style="stroke:rgb(25.500488%,41.000366%,88.400269%); stroke-width: 2.500000;stroke-linecap: round;stroke-linejoin: round;stroke-miterlimit: 10.000000;fill: none;"></path>
  <path d="M1393.558228 516.845795C1393.558228 476.107635,1377.372650 437.042862,1348.568588 408.238815C1319.764542 379.434753,1280.699768 363.249176,1239.961609 363.249176C1199.223450 363.249176,1160.158676 379.434753,1131.354630 408.238815C1102.550568 437.042862,1086.364990 476.107635,1086.364990 516.845795C1086.364990 557.583954,1102.550568 596.648727,1131.354630 625.452774C1160.158676 654.256836,1199.223450 670.442413,1239.961609 670.442413C1280.699768 670.442413,1319.764542 654.256836,1348.568588 625.452774C1377.372650 596.648727,1393.558228 557.583954,1393.558228 516.845795Z" style="stroke:rgb(25.500488%,41.000366%,88.400269%); stroke-width: 2.500000;stroke-linecap: round;stroke-linejoin: round;stroke-miterlimit: 10.000000;fill: none;"></path>
  <path d="M1664.003494 577.158127C1664.003494 536.419968,1647.817917 497.355194,1619.013855 468.551147C1590.209808 439.747086,1551.145035 423.561508,1510.406876 423.561508C1469.668716 423.561508,1430.603943 439.747086,1401.799896 468.551147C1372.995834 497.355194,1356.810257 536.419968,1356.810257 577.158127C1356.810257 617.896286,1372.995834 656.961060,1401.799896 685.765106C1430.603943 714.569168,1469.668716 730.754745,1510.406876 730.754745C1551.145035 730.754745,1590.209808 714.569168,1619.013855 685.765106C1647.817917 656.961060,1664.003494 617.896286,1664.003494 577.158127Z" style="stroke:rgb(25.500488%,41.000366%,88.400269%); stroke-width: 2.500000;stroke-linecap: round;stroke-linejoin: round;stroke-miterlimit: 10.000000;fill: none;"></path>
  <path d="M1825.710098 766.866882C1825.710098 726.128723,1809.524521 687.063950,1780.720459 658.259903C1751.916412 629.455841,1712.851639 613.270264,1672.113480 613.270264C1631.375320 613.270264,1592.310547 629.455841,1563.506500 658.259903C1534.702438 687.063950,1518.516861 726.128723,1518.516861 766.866882C1518.516861 807.605042,1534.702438 846.669815,1563.506500 875.473862C1592.310547 904.277924,1631.375320 920.463501,1672.113480 920.463501C1712.851639 920.463501,1751.916412 904.277924,1780.720459 875.473862C1809.524521 846.669815,1825.710098 807.605042,1825.710098 766.866882Z" style="stroke:rgb(25.500488%,41.000366%,88.400269%); stroke-width: 2.500000;stroke-linecap: round;stroke-linejoin: round;stroke-miterlimit: 10.000000;fill: none;"></path>
  <path d="M1073.622574 154.322998C1073.622574 113.584839,1057.436996 74.520065,1028.632935 45.716019C999.828888 16.911957,960.764114 0.726379,920.025955 0.726379C879.287796 0.726379,840.223022 16.911957,811.418976 45.716019C782.614914 74.520065,766.429337 113.584839,766.429337 154.322998C766.429337 195.061157,782.614914 234.125931,811.418976 262.929977C840.223022 291.734039,879.287796 307.919617,920.025955 307.919617C960.764114 307.919617,999.828888 291.734039,1028.632935 262.929977C1057.436996 234.125931,1073.622574 195.061157,1073.622574 154.322998Z" style="stroke:rgb(25.500488%,41.000366%,88.400269%); stroke-width: 2.500000;stroke-linecap: round;stroke-linejoin: round;stroke-miterlimit: 10.000000;fill: none;"></path>
  <path d="M1326.641113 252.291611C1326.641113 211.553452,1310.455536 172.488678,1281.651474 143.684631C1252.847427 114.880569,1213.782654 98.694992,1173.044495 98.694992C1132.306335 98.694992,1093.241562 114.880569,1064.437515 143.684631C1035.633453 172.488678,1019.447876 211.553452,1019.447876 252.291611C1019.447876 293.029770,1035.633453 332.094543,1064.437515 360.898590C1093.241562 389.702652,1132.306335 405.888229,1173.044495 405.888229C1213.782654 405.888229,1252.847427 389.702652,1281.651474 360.898590C1310.455536 332.094543,1326.641113 293.029770,1326.641113 252.291611Z" style="stroke:rgb(25.500488%,41.000366%,88.400269%); stroke-width: 2.500000;stroke-linecap: round;stroke-linejoin: round;stroke-miterlimit: 10.000000;fill: none;"></path>
  <path d="M1580.113815 342.902847C1580.113815 302.164688,1563.928238 263.099915,1535.124176 234.295868C1506.320129 205.491806,1467.255356 189.306229,1426.517197 189.306229C1385.779037 189.306229,1346.714264 205.491806,1317.910217 234.295868C1289.106155 263.099915,1272.920578 302.164688,1272.920578 342.902847C1272.920578 383.641006,1289.106155 422.705780,1317.910217 451.509827C1346.714264 480.313889,1385.779037 496.499466,1426.517197 496.499466C1467.255356 496.499466,1506.320129 480.313889,1535.124176 451.509827C1563.928238 422.705780,1580.113815 383.641006,1580.113815 342.902847Z" style="stroke:rgb(25.500488%,41.000366%,88.400269%); stroke-width: 2.500000;stroke-linecap: round;stroke-linejoin: round;stroke-miterlimit: 10.000000;fill: none;"></path>
</svg>
