<?xml version="1.0"?>
<!-- Created by MetaPost 2.00 on 2022.03.02:1201 -->
<svg version="1.1" xmlns="http://www.w3.org/2000/svg" xmlns:xlink="http://www.w3.org/1999/xlink" width="1768.413483" height="1563.535797" viewBox="0 0 1768.413483 1563.535797">
<!-- Original BoundingBox: -886.120697 -776.071442 882.292786 787.464355 -->
  <path d="M1736.393524 787.000000L1311.196762 50.535538L460.803238 50.535538L35.606476 787.000000L460.803238 1523.464462L1311.196762 1523.464462L1736.393524 787.000000Z" style="fill: rgb(100.000000%,100.000000%,100.000000%);stroke: none;"></path>
  <path d="M1736.393524 787.000000L1311.196762 50.535538" style="stroke:rgb(0.000000%,0.000000%,0.000000%); stroke-width: 2.500000;stroke-linecap: round;stroke-linejoin: round;stroke-miterlimit: 10.000000;fill: none;"></path>
  <path d="M1311.196762 50.535538L460.803238 50.535538" style="stroke:rgb(0.000000%,0.000000%,0.000000%); stroke-width: 2.500000;stroke-linecap: round;stroke-linejoin: round;stroke-miterlimit: 10.000000;fill: none;"></path>
  <path d="M460.803238 50.535538L35.606476 787.000000" style="stroke:rgb(0.000000%,0.000000%,0.000000%); stroke-width: 2.500000;stroke-linecap: round;stroke-linejoin: round;stroke-miterlimit: 10.000000;fill: none;"></path>
  <path d="M35.606476 787.000000L460.803238 1523.464462" style="stroke:rgb(0.000000%,0.000000%,0.000000%); stroke-width: 2.500000;stroke-linecap: round;stroke-linejoin: round;stroke-miterlimit: 10.000000;fill: none;"></path>
  <path d="M460.803238 1523.464462L1311.196762 1523.464462" style="stroke:rgb(0.000000%,0.000000%,0.000000%); stroke-width: 2.500000;stroke-linecap: round;stroke-linejoin: round;stroke-miterlimit: 10.000000;fill: none;"></path>
  <path d="M1311.196762 1523.464462L1736.393524 787.000000" style="stroke:rgb(0.000000%,0.000000%,0.000000%); stroke-width: 2.500000;stroke-linecap: round;stroke-linejoin: round;stroke-miterlimit: 10.000000;fill: none;"></path>
  <path d="M582.323257 100.025909C582.323257 76.519806,572.984100 53.979279,556.364044 37.359207C539.743973 20.739151,517.203445 11.399994,493.697342 11.399994C470.191238 11.399994,447.650711 20.739151,431.030640 37.359207C414.410583 53.979279,405.071426 76.519806,405.071426 100.025909C405.071426 123.532013,414.410583 146.072540,431.030640 162.692612C447.650711 179.312668,470.191238 188.651825,493.697342 188.651825C517.203445 188.651825,539.743973 179.312668,556.364044 162.692612C572.984100 146.072540,582.323257 123.532013,582.323257 100.025909Z" style="stroke:rgb(25.500488%,41.000366%,88.400269%); stroke-width: 2.500000;stroke-linecap: round;stroke-linejoin: round;stroke-miterlimit: 10.000000;fill: none;"></path>
  <path d="M734.297882 91.838074C734.297882 68.331970,724.958725 45.791443,708.338669 29.171371C691.718597 12.551315,669.178070 3.212158,645.671967 3.212158C622.165863 3.212158,599.625336 12.551315,583.005264 29.171371C566.385208 45.791443,557.046051 68.331970,557.046051 91.838074C557.046051 115.344177,566.385208 137.884705,583.005264 154.504776C599.625336 171.124832,622.165863 180.463989,645.671967 180.463989C669.178070 180.463989,691.718597 171.124832,708.338669 154.504776C724.958725 137.884705,734.297882 115.344177,734.297882 91.838074Z" style="stroke:rgb(25.500488%,41.000366%,88.400269%); stroke-width: 2.500000;stroke-linecap: round;stroke-linejoin: round;stroke-miterlimit: 10.000000;fill: none;"></path>
  <path d="M656.597733 229.837570C656.597733 206.331467,647.258575 183.790939,630.638519 167.170868C614.018448 150.550812,591.477921 141.211655,567.971817 141.211655C544.465714 141.211655,521.925186 150.550812,505.305115 167.170868C488.685059 183.790939,479.345901 206.331467,479.345901 229.837570C479.345901 253.343674,488.685059 275.884201,505.305115 292.504272C521.925186 309.124329,544.465714 318.463486,567.971817 318.463486C591.477921 318.463486,614.018448 309.124329,630.638519 292.504272C647.258575 275.884201,656.597733 253.343674,656.597733 229.837570Z" style="stroke:rgb(25.500488%,41.000366%,88.400269%); stroke-width: 2.500000;stroke-linecap: round;stroke-linejoin: round;stroke-miterlimit: 10.000000;fill: none;"></path>
  <path d="M565.052231 353.537537C565.052231 330.031433,555.713074 307.490906,539.093018 290.870834C522.472946 274.250778,499.932419 264.911621,476.426315 264.911621C452.920212 264.911621,430.379684 274.250778,413.759613 290.870834C397.139557 307.490906,387.800400 330.031433,387.800400 353.537537C387.800400 377.043640,397.139557 399.584167,413.759613 416.204239C430.379684 432.824295,452.920212 442.163452,476.426315 442.163452C499.932419 442.163452,522.472946 432.824295,539.093018 416.204239C555.713074 399.584167,565.052231 377.043640,565.052231 353.537537Z" style="stroke:rgb(25.500488%,41.000366%,88.400269%); stroke-width: 2.500000;stroke-linecap: round;stroke-linejoin: round;stroke-miterlimit: 10.000000;fill: none;"></path>
  <path d="M482.550980 490.122665C482.550980 466.616562,473.211823 444.076035,456.591766 427.455963C439.971695 410.835907,417.431168 401.496750,393.925064 401.496750C370.418961 401.496750,347.878433 410.835907,331.258362 427.455963C314.638306 444.076035,305.299149 466.616562,305.299149 490.122665C305.299149 513.628769,314.638306 536.169296,331.258362 552.789368C347.878433 569.409424,370.418961 578.748581,393.925064 578.748581C417.431168 578.748581,439.971695 569.409424,456.591766 552.789368C473.211823 536.169296,482.550980 513.628769,482.550980 490.122665Z" style="stroke:rgb(25.500488%,41.000366%,88.400269%); stroke-width: 2.500000;stroke-linecap: round;stroke-linejoin: round;stroke-miterlimit: 10.000000;fill: none;"></path>
  <path d="M404.059296 630.444855C404.059296 606.938751,394.720139 584.398224,378.100082 567.778152C361.480011 551.158096,338.939484 541.818939,315.433380 541.818939C291.927277 541.818939,269.386749 551.158096,252.766678 567.778152C236.146622 584.398224,226.807465 606.938751,226.807465 630.444855C226.807465 653.950958,236.146622 676.491486,252.766678 693.111557C269.386749 709.731613,291.927277 719.070770,315.433380 719.070770C338.939484 719.070770,361.480011 709.731613,378.100082 693.111557C394.720139 676.491486,404.059296 653.950958,404.059296 630.444855Z" style="stroke:rgb(25.500488%,41.000366%,88.400269%); stroke-width: 2.500000;stroke-linecap: round;stroke-linejoin: round;stroke-miterlimit: 10.000000;fill: none;"></path>
  <path d="M328.954361 770.273972C328.954361 746.767868,319.615204 724.227341,302.995148 707.607269C286.375076 690.987213,263.834549 681.648056,240.328445 681.648056C216.822342 681.648056,194.281815 690.987213,177.661743 707.607269C161.041687 724.227341,151.702530 746.767868,151.702530 770.273972C151.702530 793.780075,161.041687 816.320602,177.661743 832.940674C194.281815 849.560730,216.822342 858.899887,240.328445 858.899887C263.834549 858.899887,286.375076 849.560730,302.995148 832.940674C319.615204 816.320602,328.954361 793.780075,328.954361 770.273972Z" style="stroke:rgb(25.500488%,41.000366%,88.400269%); stroke-width: 2.500000;stroke-linecap: round;stroke-linejoin: round;stroke-miterlimit: 10.000000;fill: none;"></path>
  <path d="M247.374405 907.287292C247.374405 883.781189,238.035248 861.240662,221.415192 844.620590C204.795120 828.000534,182.254593 818.661377,158.748489 818.661377C135.242386 818.661377,112.701859 828.000534,96.081787 844.620590C79.461731 861.240662,70.122574 883.781189,70.122574 907.287292C70.122574 930.793396,79.461731 953.333923,96.081787 969.953995C112.701859 986.574051,135.242386 995.913208,158.748489 995.913208C182.254593 995.913208,204.795120 986.574051,221.415192 969.953995C238.035248 953.333923,247.374405 930.793396,247.374405 907.287292Z" style="stroke:rgb(25.500488%,41.000366%,88.400269%); stroke-width: 2.500000;stroke-linecap: round;stroke-linejoin: round;stroke-miterlimit: 10.000000;fill: none;"></path>
  <path d="M892.072754 90.021439C892.072754 66.515335,882.733597 43.974808,866.113541 27.354736C849.493469 10.734680,826.952942 1.395523,803.446838 1.395523C779.940735 1.395523,757.400208 10.734680,740.780136 27.354736C724.160080 43.974808,714.820923 66.515335,714.820923 90.021439C714.820923 113.527542,724.160080 136.068069,740.780136 152.688141C757.400208 169.308197,779.940735 178.647354,803.446838 178.647354C826.952942 178.647354,849.493469 169.308197,866.113541 152.688141C882.733597 136.068069,892.072754 113.527542,892.072754 90.021439Z" style="stroke:rgb(25.500488%,41.000366%,88.400269%); stroke-width: 2.500000;stroke-linecap: round;stroke-linejoin: round;stroke-miterlimit: 10.000000;fill: none;"></path>
  <path d="M809.493652 219.846069C809.493652 196.339966,800.154495 173.799438,783.534439 157.179367C766.914368 140.559311,744.373840 131.220154,720.867737 131.220154C697.361633 131.220154,674.821106 140.559311,658.201035 157.179367C641.580978 173.799438,632.241821 196.339966,632.241821 219.846069C632.241821 243.352173,641.580978 265.892700,658.201035 282.512772C674.821106 299.132828,697.361633 308.471985,720.867737 308.471985C744.373840 308.471985,766.914368 299.132828,783.534439 282.512772C800.154495 265.892700,809.493652 243.352173,809.493652 219.846069Z" style="stroke:rgb(25.500488%,41.000366%,88.400269%); stroke-width: 2.500000;stroke-linecap: round;stroke-linejoin: round;stroke-miterlimit: 10.000000;fill: none;"></path>
  <path d="M718.389328 356.184647C718.389328 332.678543,709.050171 310.138016,692.430115 293.517944C675.810043 276.897888,653.269516 267.558731,629.763412 267.558731C606.257309 267.558731,583.716782 276.897888,567.096710 293.517944C550.476654 310.138016,541.137497 332.678543,541.137497 356.184647C541.137497 379.690750,550.476654 402.231277,567.096710 418.851349C583.716782 435.471405,606.257309 444.810562,629.763412 444.810562C653.269516 444.810562,675.810043 435.471405,692.430115 418.851349C709.050171 402.231277,718.389328 379.690750,718.389328 356.184647Z" style="stroke:rgb(25.500488%,41.000366%,88.400269%); stroke-width: 2.500000;stroke-linecap: round;stroke-linejoin: round;stroke-miterlimit: 10.000000;fill: none;"></path>
  <path d="M632.734909 487.553421C632.734909 464.047318,623.395752 441.506790,606.775696 424.886719C590.155624 408.266663,567.615097 398.927505,544.108994 398.927505C520.602890 398.927505,498.062363 408.266663,481.442291 424.886719C464.822235 441.506790,455.483078 464.047318,455.483078 487.553421C455.483078 511.059525,464.822235 533.600052,481.442291 550.220123C498.062363 566.840179,520.602890 576.179337,544.108994 576.179337C567.615097 576.179337,590.155624 566.840179,606.775696 550.220123C623.395752 533.600052,632.734909 511.059525,632.734909 487.553421Z" style="stroke:rgb(25.500488%,41.000366%,88.400269%); stroke-width: 2.500000;stroke-linecap: round;stroke-linejoin: round;stroke-miterlimit: 10.000000;fill: none;"></path>
  <path d="M551.777802 624.281265C551.777802 600.775162,542.438644 578.234634,525.818588 561.614563C509.198517 544.994507,486.657990 535.655350,463.151886 535.655350C439.645782 535.655350,417.105255 544.994507,400.485184 561.614563C383.865128 578.234634,374.525970 600.775162,374.525970 624.281265C374.525970 647.787369,383.865128 670.327896,400.485184 686.947968C417.105255 703.568024,439.645782 712.907181,463.151886 712.907181C486.657990 712.907181,509.198517 703.568024,525.818588 686.947968C542.438644 670.327896,551.777802 647.787369,551.777802 624.281265Z" style="stroke:rgb(25.500488%,41.000366%,88.400269%); stroke-width: 2.500000;stroke-linecap: round;stroke-linejoin: round;stroke-miterlimit: 10.000000;fill: none;"></path>
  <path d="M477.165939 764.811081C477.165939 741.304977,467.826782 718.764450,451.206726 702.144379C434.586655 685.524323,412.046127 676.185165,388.540024 676.185165C365.033920 676.185165,342.493393 685.524323,325.873322 702.144379C309.253265 718.764450,299.914108 741.304977,299.914108 764.811081C299.914108 788.317184,309.253265 810.857712,325.873322 827.477783C342.493393 844.097839,365.033920 853.436996,388.540024 853.436996C412.046127 853.436996,434.586655 844.097839,451.206726 827.477783C467.826782 810.857712,477.165939 788.317184,477.165939 764.811081Z" style="stroke:rgb(25.500488%,41.000366%,88.400269%); stroke-width: 2.500000;stroke-linecap: round;stroke-linejoin: round;stroke-miterlimit: 10.000000;fill: none;"></path>
  <path d="M398.051422 903.122009C398.051422 879.615906,388.712265 857.075378,372.092209 840.455307C355.472137 823.835251,332.931610 814.496094,309.425507 814.496094C285.919403 814.496094,263.378876 823.835251,246.758804 840.455307C230.138748 857.075378,220.799591 879.615906,220.799591 903.122009C220.799591 926.628113,230.138748 949.168640,246.758804 965.788712C263.378876 982.408768,285.919403 991.747925,309.425507 991.747925C332.931610 991.747925,355.472137 982.408768,372.092209 965.788712C388.712265 949.168640,398.051422 926.628113,398.051422 903.122009Z" style="stroke:rgb(25.500488%,41.000366%,88.400269%); stroke-width: 2.500000;stroke-linecap: round;stroke-linejoin: round;stroke-miterlimit: 10.000000;fill: none;"></path>
  <path d="M321.467224 1040.420807C321.467224 1016.914703,312.128067 994.374176,295.508011 977.754105C278.887939 961.134048,256.347412 951.794891,232.841309 951.794891C209.335205 951.794891,186.794678 961.134048,170.174606 977.754105C153.554550 994.374176,144.215393 1016.914703,144.215393 1040.420807C144.215393 1063.926910,153.554550 1086.467438,170.174606 1103.087509C186.794678 1119.707565,209.335205 1129.046722,232.841309 1129.046722C256.347412 1129.046722,278.887939 1119.707565,295.508011 1103.087509C312.128067 1086.467438,321.467224 1063.926910,321.467224 1040.420807Z" style="stroke:rgb(25.500488%,41.000366%,88.400269%); stroke-width: 2.500000;stroke-linecap: round;stroke-linejoin: round;stroke-miterlimit: 10.000000;fill: none;"></path>
  <path d="M1051.080368 89.411560C1051.080368 65.905457,1041.741211 43.364929,1025.121155 26.744858C1008.501083 10.124802,985.960556 0.785645,962.454453 0.785645C938.948349 0.785645,916.407822 10.124802,899.787750 26.744858C883.167694 43.364929,873.828537 65.905457,873.828537 89.411560C873.828537 112.917664,883.167694 135.458191,899.787750 152.078262C916.407822 168.698318,938.948349 178.037476,962.454453 178.037476C985.960556 178.037476,1008.501083 168.698318,1025.121155 152.078262C1041.741211 135.458191,1051.080368 112.917664,1051.080368 89.411560Z" style="stroke:rgb(25.500488%,41.000366%,88.400269%); stroke-width: 2.500000;stroke-linecap: round;stroke-linejoin: round;stroke-miterlimit: 10.000000;fill: none;"></path>
  <path d="M967.566986 217.432541C967.566986 193.926437,958.227829 171.385910,941.607773 154.765839C924.987701 138.145782,902.447174 128.806625,878.941071 128.806625C855.434967 128.806625,832.894440 138.145782,816.274368 154.765839C799.654312 171.385910,790.315155 193.926437,790.315155 217.432541C790.315155 240.938644,799.654312 263.479172,816.274368 280.099243C832.894440 296.719299,855.434967 306.058456,878.941071 306.058456C902.447174 306.058456,924.987701 296.719299,941.607773 280.099243C958.227829 263.479172,967.566986 240.938644,967.566986 217.432541Z" style="stroke:rgb(25.500488%,41.000366%,88.400269%); stroke-width: 2.500000;stroke-linecap: round;stroke-linejoin: round;stroke-miterlimit: 10.000000;fill: none;"></path>
  <path d="M868.002319 344.791733C868.002319 321.285629,858.663162 298.745102,842.043106 282.125031C825.423035 265.504974,802.882507 256.165817,779.376404 256.165817C755.870300 256.165817,733.329773 265.504974,716.709702 282.125031C700.089645 298.745102,690.750488 321.285629,690.750488 344.791733C690.750488 368.297836,700.089645 390.838364,716.709702 407.458435C733.329773 424.078491,755.870300 433.417648,779.376404 433.417648C802.882507 433.417648,825.423035 424.078491,842.043106 407.458435C858.663162 390.838364,868.002319 368.297836,868.002319 344.791733Z" style="stroke:rgb(25.500488%,41.000366%,88.400269%); stroke-width: 2.500000;stroke-linecap: round;stroke-linejoin: round;stroke-miterlimit: 10.000000;fill: none;"></path>
  <path d="M782.451721 485.010132C782.451721 461.504028,773.112564 438.963501,756.492508 422.343430C739.872437 405.723373,717.331909 396.384216,693.825806 396.384216C670.319702 396.384216,647.779175 405.723373,631.159103 422.343430C614.539047 438.963501,605.199890 461.504028,605.199890 485.010132C605.199890 508.516235,614.539047 531.056763,631.159103 547.676834C647.779175 564.296890,670.319702 573.636047,693.825806 573.636047C717.331909 573.636047,739.872437 564.296890,756.492508 547.676834C773.112564 531.056763,782.451721 508.516235,782.451721 485.010132Z" style="stroke:rgb(25.500488%,41.000366%,88.400269%); stroke-width: 2.500000;stroke-linecap: round;stroke-linejoin: round;stroke-miterlimit: 10.000000;fill: none;"></path>
  <path d="M701.715195 622.101303C701.715195 598.595200,692.376038 576.054672,675.755981 559.434601C659.135910 542.814545,636.595383 533.475388,613.089279 533.475388C589.583176 533.475388,567.042648 542.814545,550.422577 559.434601C533.802521 576.054672,524.463364 598.595200,524.463364 622.101303C524.463364 645.607407,533.802521 668.147934,550.422577 684.768005C567.042648 701.388062,589.583176 710.727219,613.089279 710.727219C636.595383 710.727219,659.135910 701.388062,675.755981 684.768005C692.376038 668.147934,701.715195 645.607407,701.715195 622.101303Z" style="stroke:rgb(25.500488%,41.000366%,88.400269%); stroke-width: 2.500000;stroke-linecap: round;stroke-linejoin: round;stroke-miterlimit: 10.000000;fill: none;"></path>
  <path d="M624.624924 759.036774C624.624924 735.530670,615.285767 712.990143,598.665710 696.370071C582.045639 679.750015,559.505112 670.410858,535.999008 670.410858C512.492905 670.410858,489.952377 679.750015,473.332306 696.370071C456.712250 712.990143,447.373093 735.530670,447.373093 759.036774C447.373093 782.542877,456.712250 805.083405,473.332306 821.703476C489.952377 838.323532,512.492905 847.662689,535.999008 847.662689C559.505112 847.662689,582.045639 838.323532,598.665710 821.703476C615.285767 805.083405,624.624924 782.542877,624.624924 759.036774Z" style="stroke:rgb(25.500488%,41.000366%,88.400269%); stroke-width: 2.500000;stroke-linecap: round;stroke-linejoin: round;stroke-miterlimit: 10.000000;fill: none;"></path>
  <path d="M546.963715 899.410873C546.963715 875.904770,537.624557 853.364243,521.004501 836.744171C504.384430 820.124115,481.843903 810.784958,458.337799 810.784958C434.831696 810.784958,412.291168 820.124115,395.671097 836.744171C379.051041 853.364243,369.711884 875.904770,369.711884 899.410873C369.711884 922.916977,379.051041 945.457504,395.671097 962.077576C412.291168 978.697632,434.831696 988.036789,458.337799 988.036789C481.843903 988.036789,504.384430 978.697632,521.004501 962.077576C537.624557 945.457504,546.963715 922.916977,546.963715 899.410873Z" style="stroke:rgb(25.500488%,41.000366%,88.400269%); stroke-width: 2.500000;stroke-linecap: round;stroke-linejoin: round;stroke-miterlimit: 10.000000;fill: none;"></path>
  <path d="M471.171051 1037.890488C471.171051 1014.384384,461.831894 991.843857,445.211838 975.223785C428.591766 958.603729,406.051239 949.264572,382.545135 949.264572C359.039032 949.264572,336.498505 958.603729,319.878433 975.223785C303.258377 991.843857,293.919220 1014.384384,293.919220 1037.890488C293.919220 1061.396591,303.258377 1083.937119,319.878433 1100.557190C336.498505 1117.177246,359.039032 1126.516403,382.545135 1126.516403C406.051239 1126.516403,428.591766 1117.177246,445.211838 1100.557190C461.831894 1083.937119,471.171051 1061.396591,471.171051 1037.890488Z" style="stroke:rgb(25.500488%,41.000366%,88.400269%); stroke-width: 2.500000;stroke-linecap: round;stroke-linejoin: round;stroke-miterlimit: 10.000000;fill: none;"></path>
  <path d="M1208.024780 93.914230C1208.024780 70.408127,1198.685623 47.867599,1182.065567 31.247528C1165.445496 14.627472,1142.904968 5.288315,1119.398865 5.288315C1095.892761 5.288315,1073.352234 14.627472,1056.732162 31.247528C1040.112106 47.867599,1030.772949 70.408127,1030.772949 93.914230C1030.772949 117.420334,1040.112106 139.960861,1056.732162 156.580933C1073.352234 173.200989,1095.892761 182.540146,1119.398865 182.540146C1142.904968 182.540146,1165.445496 173.200989,1182.065567 156.580933C1198.685623 139.960861,1208.024780 117.420334,1208.024780 93.914230Z" style="stroke:rgb(25.500488%,41.000366%,88.400269%); stroke-width: 2.500000;stroke-linecap: round;stroke-linejoin: round;stroke-miterlimit: 10.000000;fill: none;"></path>
  <path d="M1124.225937 221.312347C1124.225937 197.806244,1114.886780 175.265717,1098.266724 158.645645C1081.646652 142.025589,1059.106125 132.686432,1035.600021 132.686432C1012.093918 132.686432,989.553391 142.025589,972.933319 158.645645C956.313263 175.265717,946.974106 197.806244,946.974106 221.312347C946.974106 244.818451,956.313263 267.358978,972.933319 283.979050C989.553391 300.599106,1012.093918 309.938263,1035.600021 309.938263C1059.106125 309.938263,1081.646652 300.599106,1098.266724 283.979050C1114.886780 267.358978,1124.225937 244.818451,1124.225937 221.312347Z" style="stroke:rgb(25.500488%,41.000366%,88.400269%); stroke-width: 2.500000;stroke-linecap: round;stroke-linejoin: round;stroke-miterlimit: 10.000000;fill: none;"></path>
  <path d="M1015.435364 344.402451C1015.435364 320.896347,1006.096207 298.355820,989.476151 281.735748C972.856079 265.115692,950.315552 255.776535,926.809448 255.776535C903.303345 255.776535,880.762817 265.115692,864.142746 281.735748C847.522690 298.355820,838.183533 320.896347,838.183533 344.402451C838.183533 367.908554,847.522690 390.449081,864.142746 407.069153C880.762817 423.689209,903.303345 433.028366,926.809448 433.028366C950.315552 433.028366,972.856079 423.689209,989.476151 407.069153C1006.096207 390.449081,1015.435364 367.908554,1015.435364 344.402451Z" style="stroke:rgb(25.500488%,41.000366%,88.400269%); stroke-width: 2.500000;stroke-linecap: round;stroke-linejoin: round;stroke-miterlimit: 10.000000;fill: none;"></path>
  <path d="M927.510147 481.273041C927.510147 457.766937,918.170990 435.226410,901.550934 418.606339C884.930862 401.986282,862.390335 392.647125,838.884232 392.647125C815.378128 392.647125,792.837601 401.986282,776.217529 418.606339C759.597473 435.226410,750.258316 457.766937,750.258316 481.273041C750.258316 504.779144,759.597473 527.319672,776.217529 543.939743C792.837601 560.559799,815.378128 569.898956,838.884232 569.898956C862.390335 569.898956,884.930862 560.559799,901.550934 543.939743C918.170990 527.319672,927.510147 504.779144,927.510147 481.273041Z" style="stroke:rgb(25.500488%,41.000366%,88.400269%); stroke-width: 2.500000;stroke-linecap: round;stroke-linejoin: round;stroke-miterlimit: 10.000000;fill: none;"></path>
  <path d="M849.602386 622.399750C849.602386 598.893646,840.263229 576.353119,823.643173 559.733047C807.023102 543.112991,784.482574 533.773834,760.976471 533.773834C737.470367 533.773834,714.929840 543.112991,698.309769 559.733047C681.689713 576.353119,672.350555 598.893646,672.350555 622.399750C672.350555 645.905853,681.689713 668.446381,698.309769 685.066452C714.929840 701.686508,737.470367 711.025665,760.976471 711.025665C784.482574 711.025665,807.023102 701.686508,823.643173 685.066452C840.263229 668.446381,849.602386 645.905853,849.602386 622.399750Z" style="stroke:rgb(25.500488%,41.000366%,88.400269%); stroke-width: 2.500000;stroke-linecap: round;stroke-linejoin: round;stroke-miterlimit: 10.000000;fill: none;"></path>
  <path d="M771.967133 759.685577C771.967133 736.179474,762.627975 713.638947,746.007919 697.018875C729.387848 680.398819,706.847321 671.059662,683.341217 671.059662C659.835114 671.059662,637.294586 680.398819,620.674515 697.018875C604.054459 713.638947,594.715302 736.179474,594.715302 759.685577C594.715302 783.191681,604.054459 805.732208,620.674515 822.352280C637.294586 838.972336,659.835114 848.311493,683.341217 848.311493C706.847321 848.311493,729.387848 838.972336,746.007919 822.352280C762.627975 805.732208,771.967133 783.191681,771.967133 759.685577Z" style="stroke:rgb(25.500488%,41.000366%,88.400269%); stroke-width: 2.500000;stroke-linecap: round;stroke-linejoin: round;stroke-miterlimit: 10.000000;fill: none;"></path>
  <path d="M692.242737 897.062225C692.242737 873.556122,682.903580 851.015594,666.283524 834.395523C649.663452 817.775467,627.122925 808.436310,603.616821 808.436310C580.110718 808.436310,557.570190 817.775467,540.950119 834.395523C524.330063 851.015594,514.990906 873.556122,514.990906 897.062225C514.990906 920.568329,524.330063 943.108856,540.950119 959.728928C557.570190 976.348984,580.110718 985.688141,603.616821 985.688141C627.122925 985.688141,649.663452 976.348984,666.283524 959.728928C682.903580 943.108856,692.242737 920.568329,692.242737 897.062225Z" style="stroke:rgb(25.500488%,41.000366%,88.400269%); stroke-width: 2.500000;stroke-linecap: round;stroke-linejoin: round;stroke-miterlimit: 10.000000;fill: none;"></path>
  <path d="M617.890396 1037.605011C617.890396 1014.098907,608.551239 991.558380,591.931183 974.938309C575.311111 958.318253,552.770584 948.979095,529.264481 948.979095C505.758377 948.979095,483.217850 958.318253,466.597778 974.938309C449.977722 991.558380,440.638565 1014.098907,440.638565 1037.605011C440.638565 1061.111115,449.977722 1083.651642,466.597778 1100.271713C483.217850 1116.891769,505.758377 1126.230927,529.264481 1126.230927C552.770584 1126.230927,575.311111 1116.891769,591.931183 1100.271713C608.551239 1083.651642,617.890396 1061.111115,617.890396 1037.605011Z" style="stroke:rgb(25.500488%,41.000366%,88.400269%); stroke-width: 2.500000;stroke-linecap: round;stroke-linejoin: round;stroke-miterlimit: 10.000000;fill: none;"></path>
  <path d="M544.874588 1176.123550C544.874588 1152.617447,535.535431 1130.076920,518.915375 1113.456848C502.295303 1096.836792,479.754776 1087.497635,456.248672 1087.497635C432.742569 1087.497635,410.202042 1096.836792,393.581970 1113.456848C376.961914 1130.076920,367.622757 1152.617447,367.622757 1176.123550C367.622757 1199.629654,376.961914 1222.170181,393.581970 1238.790253C410.202042 1255.410309,432.742569 1264.749466,456.248672 1264.749466C479.754776 1264.749466,502.295303 1255.410309,518.915375 1238.790253C535.535431 1222.170181,544.874588 1199.629654,544.874588 1176.123550Z" style="stroke:rgb(25.500488%,41.000366%,88.400269%); stroke-width: 2.500000;stroke-linecap: round;stroke-linejoin: round;stroke-miterlimit: 10.000000;fill: none;"></path>
  <path d="M472.987686 1313.435318C472.987686 1289.929214,463.648529 1267.388687,447.028473 1250.768616C430.408401 1234.148560,407.867874 1224.809402,384.361771 1224.809402C360.855667 1224.809402,338.315140 1234.148560,321.695068 1250.768616C305.075012 1267.388687,295.735855 1289.929214,295.735855 1313.435318C295.735855 1336.941422,305.075012 1359.481949,321.695068 1376.102020C338.315140 1392.722076,360.855667 1402.061234,384.361771 1402.061234C407.867874 1402.061234,430.408401 1392.722076,447.028473 1376.102020C463.648529 1359.481949,472.987686 1336.941422,472.987686 1313.435318Z" style="stroke:rgb(25.500488%,41.000366%,88.400269%); stroke-width: 2.500000;stroke-linecap: round;stroke-linejoin: round;stroke-miterlimit: 10.000000;fill: none;"></path>
  <path d="M1359.493347 99.078659C1359.493347 75.572556,1350.154190 53.032028,1333.534134 36.411957C1316.914062 19.791901,1294.373535 10.452744,1270.867432 10.452744C1247.361328 10.452744,1224.820801 19.791901,1208.200729 36.411957C1191.580673 53.032028,1182.241516 75.572556,1182.241516 99.078659C1182.241516 122.584763,1191.580673 145.125290,1208.200729 161.745361C1224.820801 178.365417,1247.361328 187.704575,1270.867432 187.704575C1294.373535 187.704575,1316.914062 178.365417,1333.534134 161.745361C1350.154190 145.125290,1359.493347 122.584763,1359.493347 99.078659Z" style="stroke:rgb(25.500488%,41.000366%,88.400269%); stroke-width: 2.500000;stroke-linecap: round;stroke-linejoin: round;stroke-miterlimit: 10.000000;fill: none;"></path>
  <path d="M1278.056122 230.966476C1278.056122 207.460373,1268.716965 184.919846,1252.096909 168.299774C1235.476837 151.679718,1212.936310 142.340561,1189.430206 142.340561C1165.924103 142.340561,1143.383575 151.679718,1126.763504 168.299774C1110.143448 184.919846,1100.804291 207.460373,1100.804291 230.966476C1100.804291 254.472580,1110.143448 277.013107,1126.763504 293.633179C1143.383575 310.253235,1165.924103 319.592392,1189.430206 319.592392C1212.936310 319.592392,1235.476837 310.253235,1252.096909 293.633179C1268.716965 277.013107,1278.056122 254.472580,1278.056122 230.966476Z" style="stroke:rgb(25.500488%,41.000366%,88.400269%); stroke-width: 2.500000;stroke-linecap: round;stroke-linejoin: round;stroke-miterlimit: 10.000000;fill: none;"></path>
  <path d="M1159.079407 349.255463C1159.079407 325.749359,1149.740250 303.208832,1133.120193 286.588760C1116.500122 269.968704,1093.959595 260.629547,1070.453491 260.629547C1046.947388 260.629547,1024.406860 269.968704,1007.786789 286.588760C991.166733 303.208832,981.827576 325.749359,981.827576 349.255463C981.827576 372.761566,991.166733 395.302094,1007.786789 411.922165C1024.406860 428.542221,1046.947388 437.881378,1070.453491 437.881378C1093.959595 437.881378,1116.500122 428.542221,1133.120193 411.922165C1149.740250 395.302094,1159.079407 372.761566,1159.079407 349.255463Z" style="stroke:rgb(25.500488%,41.000366%,88.400269%); stroke-width: 2.500000;stroke-linecap: round;stroke-linejoin: round;stroke-miterlimit: 10.000000;fill: none;"></path>
  <path d="M1071.167175 486.139038C1071.167175 462.632935,1061.828018 440.092407,1045.207962 423.472336C1028.587891 406.852280,1006.047363 397.513123,982.541260 397.513123C959.035156 397.513123,936.494629 406.852280,919.874557 423.472336C903.254501 440.092407,893.915344 462.632935,893.915344 486.139038C893.915344 509.645142,903.254501 532.185669,919.874557 548.805740C936.494629 565.425797,959.035156 574.764954,982.541260 574.764954C1006.047363 574.764954,1028.587891 565.425797,1045.207962 548.805740C1061.828018 532.185669,1071.167175 509.645142,1071.167175 486.139038Z" style="stroke:rgb(25.500488%,41.000366%,88.400269%); stroke-width: 2.500000;stroke-linecap: round;stroke-linejoin: round;stroke-miterlimit: 10.000000;fill: none;"></path>
  <path d="M990.897781 623.917938C990.897781 600.411835,981.558624 577.871307,964.938568 561.251236C948.318497 544.631180,925.777969 535.292023,902.271866 535.292023C878.765762 535.292023,856.225235 544.631180,839.605164 561.251236C822.985107 577.871307,813.645950 600.411835,813.645950 623.917938C813.645950 647.424042,822.985107 669.964569,839.605164 686.584641C856.225235 703.204697,878.765762 712.543854,902.271866 712.543854C925.777969 712.543854,948.318497 703.204697,964.938568 686.584641C981.558624 669.964569,990.897781 647.424042,990.897781 623.917938Z" style="stroke:rgb(25.500488%,41.000366%,88.400269%); stroke-width: 2.500000;stroke-linecap: round;stroke-linejoin: round;stroke-miterlimit: 10.000000;fill: none;"></path>
  <path d="M916.078308 765.226318C916.078308 741.720215,906.739151 719.179688,890.119095 702.559616C873.499023 685.939560,850.958496 676.600403,827.452393 676.600403C803.946289 676.600403,781.405762 685.939560,764.785690 702.559616C748.165634 719.179688,738.826477 741.720215,738.826477 765.226318C738.826477 788.732422,748.165634 811.272949,764.785690 827.893021C781.405762 844.513077,803.946289 853.852234,827.452393 853.852234C850.958496 853.852234,873.499023 844.513077,890.119095 827.893021C906.739151 811.272949,916.078308 788.732422,916.078308 765.226318Z" style="stroke:rgb(25.500488%,41.000366%,88.400269%); stroke-width: 2.500000;stroke-linecap: round;stroke-linejoin: round;stroke-miterlimit: 10.000000;fill: none;"></path>
  <path d="M836.211182 902.382370C836.211182 878.876266,826.872025 856.335739,810.251968 839.715668C793.631897 823.095612,771.091370 813.756454,747.585266 813.756454C724.079163 813.756454,701.538635 823.095612,684.918564 839.715668C668.298508 856.335739,658.959351 878.876266,658.959351 902.382370C658.959351 925.888474,668.298508 948.429001,684.918564 965.049072C701.538635 981.669128,724.079163 991.008286,747.585266 991.008286C771.091370 991.008286,793.631897 981.669128,810.251968 965.049072C826.872025 948.429001,836.211182 925.888474,836.211182 902.382370Z" style="stroke:rgb(25.500488%,41.000366%,88.400269%); stroke-width: 2.500000;stroke-linecap: round;stroke-linejoin: round;stroke-miterlimit: 10.000000;fill: none;"></path>
  <path d="M759.782684 1039.914734C759.782684 1016.408630,750.443527 993.868103,733.823471 977.248032C717.203400 960.627975,694.662872 951.288818,671.156769 951.288818C647.650665 951.288818,625.110138 960.627975,608.490067 977.248032C591.870010 993.868103,582.530853 1016.408630,582.530853 1039.914734C582.530853 1063.420837,591.870010 1085.961365,608.490067 1102.581436C625.110138 1119.201492,647.650665 1128.540649,671.156769 1128.540649C694.662872 1128.540649,717.203400 1119.201492,733.823471 1102.581436C750.443527 1085.961365,759.782684 1063.420837,759.782684 1039.914734Z" style="stroke:rgb(25.500488%,41.000366%,88.400269%); stroke-width: 2.500000;stroke-linecap: round;stroke-linejoin: round;stroke-miterlimit: 10.000000;fill: none;"></path>
  <path d="M688.207214 1180.496460C688.207214 1156.990356,678.868057 1134.449829,662.248001 1117.829758C645.627930 1101.209702,623.087402 1091.870544,599.581299 1091.870544C576.075195 1091.870544,553.534668 1101.209702,536.914597 1117.829758C520.294540 1134.449829,510.955383 1156.990356,510.955383 1180.496460C510.955383 1204.002563,520.294540 1226.543091,536.914597 1243.163162C553.534668 1259.783218,576.075195 1269.122375,599.581299 1269.122375C623.087402 1269.122375,645.627930 1259.783218,662.248001 1243.163162C678.868057 1226.543091,688.207214 1204.002563,688.207214 1180.496460Z" style="stroke:rgb(25.500488%,41.000366%,88.400269%); stroke-width: 2.500000;stroke-linecap: round;stroke-linejoin: round;stroke-miterlimit: 10.000000;fill: none;"></path>
  <path d="M617.111847 1318.989044C617.111847 1295.482941,607.772690 1272.942413,591.152634 1256.322342C574.532562 1239.702286,551.992035 1230.363129,528.485931 1230.363129C504.979828 1230.363129,482.439301 1239.702286,465.819229 1256.322342C449.199173 1272.942413,439.860016 1295.482941,439.860016 1318.989044C439.860016 1342.495148,449.199173 1365.035675,465.819229 1381.655746C482.439301 1398.275803,504.979828 1407.614960,528.485931 1407.614960C551.992035 1407.614960,574.532562 1398.275803,591.152634 1381.655746C607.772690 1365.035675,617.111847 1342.495148,617.111847 1318.989044Z" style="stroke:rgb(25.500488%,41.000366%,88.400269%); stroke-width: 2.500000;stroke-linecap: round;stroke-linejoin: round;stroke-miterlimit: 10.000000;fill: none;"></path>
  <path d="M549.299393 1456.106171C549.299393 1432.600067,539.960236 1410.059540,523.340179 1393.439468C506.720108 1376.819412,484.179581 1367.480255,460.673477 1367.480255C437.167374 1367.480255,414.626846 1376.819412,398.006775 1393.439468C381.386719 1410.059540,372.047562 1432.600067,372.047562 1456.106171C372.047562 1479.612274,381.386719 1502.152802,398.006775 1518.772873C414.626846 1535.392929,437.167374 1544.732086,460.673477 1544.732086C484.179581 1544.732086,506.720108 1535.392929,523.340179 1518.772873C539.960236 1502.152802,549.299393 1479.612274,549.299393 1456.106171Z" style="stroke:rgb(25.500488%,41.000366%,88.400269%); stroke-width: 2.500000;stroke-linecap: round;stroke-linejoin: round;stroke-miterlimit: 10.000000;fill: none;"></path>
  <path d="M1439.607025 215.161743C1439.607025 191.655640,1430.267868 169.115112,1413.647812 152.495041C1397.027740 135.874985,1374.487213 126.535828,1350.981110 126.535828C1327.475006 126.535828,1304.934479 135.874985,1288.314407 152.495041C1271.694351 169.115112,1262.355194 191.655640,1262.355194 215.161743C1262.355194 238.667847,1271.694351 261.208374,1288.314407 277.828445C1304.934479 294.448502,1327.475006 303.787659,1350.981110 303.787659C1374.487213 303.787659,1397.027740 294.448502,1413.647812 277.828445C1430.267868 261.208374,1439.607025 238.667847,1439.607025 215.161743Z" style="stroke:rgb(25.500488%,41.000366%,88.400269%); stroke-width: 2.500000;stroke-linecap: round;stroke-linejoin: round;stroke-miterlimit: 10.000000;fill: none;"></path>
  <path d="M1271.749802 391.855591C1271.749802 368.349487,1262.410645 345.808960,1245.790588 329.188889C1229.170517 312.568832,1206.629990 303.229675,1183.123886 303.229675C1159.617783 303.229675,1137.077255 312.568832,1120.457184 329.188889C1103.837128 345.808960,1094.497971 368.349487,1094.497971 391.855591C1094.497971 415.361694,1103.837128 437.902222,1120.457184 454.522293C1137.077255 471.142349,1159.617783 480.481506,1183.123886 480.481506C1206.629990 480.481506,1229.170517 471.142349,1245.790588 454.522293C1262.410645 437.902222,1271.749802 415.361694,1271.749802 391.855591Z" style="stroke:rgb(25.500488%,41.000366%,88.400269%); stroke-width: 2.500000;stroke-linecap: round;stroke-linejoin: round;stroke-miterlimit: 10.000000;fill: none;"></path>
  <path d="M1207.492767 499.309647C1207.492767 475.803543,1198.153610 453.263016,1181.533554 436.642944C1164.913483 420.022888,1142.372955 410.683731,1118.866852 410.683731C1095.360748 410.683731,1072.820221 420.022888,1056.200150 436.642944C1039.580093 453.263016,1030.240936 475.803543,1030.240936 499.309647C1030.240936 522.815750,1039.580093 545.356277,1056.200150 561.976349C1072.820221 578.596405,1095.360748 587.935562,1118.866852 587.935562C1142.372955 587.935562,1164.913483 578.596405,1181.533554 561.976349C1198.153610 545.356277,1207.492767 522.815750,1207.492767 499.309647Z" style="stroke:rgb(25.500488%,41.000366%,88.400269%); stroke-width: 2.500000;stroke-linecap: round;stroke-linejoin: round;stroke-miterlimit: 10.000000;fill: none;"></path>
  <path d="M1127.262314 637.088562C1127.262314 613.582458,1117.923157 591.041931,1101.303101 574.421860C1084.683029 557.801804,1062.142502 548.462646,1038.636398 548.462646C1015.130295 548.462646,992.589767 557.801804,975.969696 574.421860C959.349640 591.041931,950.010483 613.582458,950.010483 637.088562C950.010483 660.594666,959.349640 683.135193,975.969696 699.755264C992.589767 716.375320,1015.130295 725.714478,1038.636398 725.714478C1062.142502 725.714478,1084.683029 716.375320,1101.303101 699.755264C1117.923157 683.135193,1127.262314 660.594666,1127.262314 637.088562Z" style="stroke:rgb(25.500488%,41.000366%,88.400269%); stroke-width: 2.500000;stroke-linecap: round;stroke-linejoin: round;stroke-miterlimit: 10.000000;fill: none;"></path>
  <path d="M1050.081207 775.036148C1050.081207 751.530045,1040.742050 728.989517,1024.121994 712.369446C1007.501923 695.749390,984.961395 686.410233,961.455292 686.410233C937.949188 686.410233,915.408661 695.749390,898.788589 712.369446C882.168533 728.989517,872.829376 751.530045,872.829376 775.036148C872.829376 798.542252,882.168533 821.082779,898.788589 837.702850C915.408661 854.322906,937.949188 863.662064,961.455292 863.662064C984.961395 863.662064,1007.501923 854.322906,1024.121994 837.702850C1040.742050 821.082779,1050.081207 798.542252,1050.081207 775.036148Z" style="stroke:rgb(25.500488%,41.000366%,88.400269%); stroke-width: 2.500000;stroke-linecap: round;stroke-linejoin: round;stroke-miterlimit: 10.000000;fill: none;"></path>
  <path d="M973.042847 916.227737C973.042847 892.721634,963.703690 870.181107,947.083633 853.561035C930.463562 836.940979,907.923035 827.601822,884.416931 827.601822C860.910828 827.601822,838.370300 836.940979,821.750229 853.561035C805.130173 870.181107,795.791016 892.721634,795.791016 916.227737C795.791016 939.733841,805.130173 962.274368,821.750229 978.894440C838.370300 995.514496,860.910828 1004.853653,884.416931 1004.853653C907.923035 1004.853653,930.463562 995.514496,947.083633 978.894440C963.703690 962.274368,973.042847 939.733841,973.042847 916.227737Z" style="stroke:rgb(25.500488%,41.000366%,88.400269%); stroke-width: 2.500000;stroke-linecap: round;stroke-linejoin: round;stroke-miterlimit: 10.000000;fill: none;"></path>
  <path d="M896.458633 1053.526535C896.458633 1030.020432,887.119476 1007.479904,870.499420 990.859833C853.879349 974.239777,831.338821 964.900620,807.832718 964.900620C784.326614 964.900620,761.786087 974.239777,745.166016 990.859833C728.545959 1007.479904,719.206802 1030.020432,719.206802 1053.526535C719.206802 1077.032639,728.545959 1099.573166,745.166016 1116.193237C761.786087 1132.813293,784.326614 1142.152451,807.832718 1142.152451C831.338821 1142.152451,853.879349 1132.813293,870.499420 1116.193237C887.119476 1099.573166,896.458633 1077.032639,896.458633 1053.526535Z" style="stroke:rgb(25.500488%,41.000366%,88.400269%); stroke-width: 2.500000;stroke-linecap: round;stroke-linejoin: round;stroke-miterlimit: 10.000000;fill: none;"></path>
  <path d="M822.430695 1191.110809C822.430695 1167.604706,813.091537 1145.064178,796.471481 1128.444107C779.851410 1111.824051,757.310883 1102.484894,733.804779 1102.484894C710.298676 1102.484894,687.758148 1111.824051,671.138077 1128.444107C654.518021 1145.064178,645.178864 1167.604706,645.178864 1191.110809C645.178864 1214.616913,654.518021 1237.157440,671.138077 1253.777512C687.758148 1270.397568,710.298676 1279.736725,733.804779 1279.736725C757.310883 1279.736725,779.851410 1270.397568,796.471481 1253.777512C813.091537 1237.157440,822.430695 1214.616913,822.430695 1191.110809Z" style="stroke:rgb(25.500488%,41.000366%,88.400269%); stroke-width: 2.500000;stroke-linecap: round;stroke-linejoin: round;stroke-miterlimit: 10.000000;fill: none;"></path>
  <path d="M751.179626 1331.913116C751.179626 1308.407013,741.840469 1285.866486,725.220413 1269.246414C708.600342 1252.626358,686.059814 1243.287201,662.553711 1243.287201C639.047607 1243.287201,616.507080 1252.626358,599.887009 1269.246414C583.266953 1285.866486,573.927795 1308.407013,573.927795 1331.913116C573.927795 1355.419220,583.266953 1377.959747,599.887009 1394.579819C616.507080 1411.199875,639.047607 1420.539032,662.553711 1420.539032C686.059814 1420.539032,708.600342 1411.199875,725.220413 1394.579819C741.840469 1377.959747,751.179626 1355.419220,751.179626 1331.913116Z" style="stroke:rgb(25.500488%,41.000366%,88.400269%); stroke-width: 2.500000;stroke-linecap: round;stroke-linejoin: round;stroke-miterlimit: 10.000000;fill: none;"></path>
  <path d="M678.682846 1471.430801C678.682846 1447.924698,669.343689 1425.384171,652.723633 1408.764099C636.103561 1392.144043,613.563034 1382.804886,590.056931 1382.804886C566.550827 1382.804886,544.010300 1392.144043,527.390228 1408.764099C510.770172 1425.384171,501.431015 1447.924698,501.431015 1471.430801C501.431015 1494.936905,510.770172 1517.477432,527.390228 1534.097504C544.010300 1550.717560,566.550827 1560.056717,590.056931 1560.056717C613.563034 1560.056717,636.103561 1550.717560,652.723633 1534.097504C669.343689 1517.477432,678.682846 1494.936905,678.682846 1471.430801Z" style="stroke:rgb(25.500488%,41.000366%,88.400269%); stroke-width: 2.500000;stroke-linecap: round;stroke-linejoin: round;stroke-miterlimit: 10.000000;fill: none;"></path>
  <path d="M1394.191101 341.223343C1394.191101 317.717239,1384.851944 295.176712,1368.231888 278.556641C1351.611816 261.936584,1329.071289 252.597427,1305.565186 252.597427C1282.059082 252.597427,1259.518555 261.936584,1242.898483 278.556641C1226.278427 295.176712,1216.939270 317.717239,1216.939270 341.223343C1216.939270 364.729446,1226.278427 387.269974,1242.898483 403.890045C1259.518555 420.510101,1282.059082 429.849258,1305.565186 429.849258C1329.071289 429.849258,1351.611816 420.510101,1368.231888 403.890045C1384.851944 387.269974,1394.191101 364.729446,1394.191101 341.223343Z" style="stroke:rgb(25.500488%,41.000366%,88.400269%); stroke-width: 2.500000;stroke-linecap: round;stroke-linejoin: round;stroke-miterlimit: 10.000000;fill: none;"></path>
  <path d="M1352.226807 498.401337C1352.226807 474.895233,1342.887650 452.354706,1326.267593 435.734634C1309.647522 419.114578,1287.106995 409.775421,1263.600891 409.775421C1240.094788 409.775421,1217.554260 419.114578,1200.934189 435.734634C1184.314133 452.354706,1174.974976 474.895233,1174.974976 498.401337C1174.974976 521.907440,1184.314133 544.447968,1200.934189 561.068039C1217.554260 577.688095,1240.094788 587.027252,1263.600891 587.027252C1287.106995 587.027252,1309.647522 577.688095,1326.267593 561.068039C1342.887650 544.447968,1352.226807 521.907440,1352.226807 498.401337Z" style="stroke:rgb(25.500488%,41.000366%,88.400269%); stroke-width: 2.500000;stroke-linecap: round;stroke-linejoin: round;stroke-miterlimit: 10.000000;fill: none;"></path>
  <path d="M1273.540482 638.399124C1273.540482 614.893021,1264.201324 592.352493,1247.581268 575.732422C1230.961197 559.112366,1208.420670 549.773209,1184.914566 549.773209C1161.408463 549.773209,1138.867935 559.112366,1122.247864 575.732422C1105.627808 592.352493,1096.288651 614.893021,1096.288651 638.399124C1096.288651 661.905228,1105.627808 684.445755,1122.247864 701.065826C1138.867935 717.685883,1161.408463 727.025040,1184.914566 727.025040C1208.420670 727.025040,1230.961197 717.685883,1247.581268 701.065826C1264.201324 684.445755,1273.540482 661.905228,1273.540482 638.399124Z" style="stroke:rgb(25.500488%,41.000366%,88.400269%); stroke-width: 2.500000;stroke-linecap: round;stroke-linejoin: round;stroke-miterlimit: 10.000000;fill: none;"></path>
  <path d="M1196.359390 776.346725C1196.359390 752.840622,1187.020233 730.300095,1170.400177 713.680023C1153.780106 697.059967,1131.239578 687.720810,1107.733475 687.720810C1084.227371 687.720810,1061.686844 697.059967,1045.066772 713.680023C1028.446716 730.300095,1019.107559 752.840622,1019.107559 776.346725C1019.107559 799.852829,1028.446716 822.393356,1045.066772 839.013428C1061.686844 855.633484,1084.227371 864.972641,1107.733475 864.972641C1131.239578 864.972641,1153.780106 855.633484,1170.400177 839.013428C1187.020233 822.393356,1196.359390 799.852829,1196.359390 776.346725Z" style="stroke:rgb(25.500488%,41.000366%,88.400269%); stroke-width: 2.500000;stroke-linecap: round;stroke-linejoin: round;stroke-miterlimit: 10.000000;fill: none;"></path>
  <path d="M1116.946411 914.190506C1116.946411 890.684402,1107.607254 868.143875,1090.987198 851.523804C1074.367126 834.903748,1051.826599 825.564590,1028.320496 825.564590C1004.814392 825.564590,982.273865 834.903748,965.653793 851.523804C949.033737 868.143875,939.694580 890.684402,939.694580 914.190506C939.694580 937.696609,949.033737 960.237137,965.653793 976.857208C982.273865 993.477264,1004.814392 1002.816422,1028.320496 1002.816422C1051.826599 1002.816422,1074.367126 993.477264,1090.987198 976.857208C1107.607254 960.237137,1116.946411 937.696609,1116.946411 914.190506Z" style="stroke:rgb(25.500488%,41.000366%,88.400269%); stroke-width: 2.500000;stroke-linecap: round;stroke-linejoin: round;stroke-miterlimit: 10.000000;fill: none;"></path>
  <path d="M1043.177994 1055.537811C1043.177994 1032.031708,1033.838837 1009.491180,1017.218781 992.871109C1000.598709 976.251053,978.058182 966.911896,954.552078 966.911896C931.045975 966.911896,908.505447 976.251053,891.885376 992.871109C875.265320 1009.491180,865.926163 1032.031708,865.926163 1055.537811C865.926163 1079.043915,875.265320 1101.584442,891.885376 1118.204514C908.505447 1134.824570,931.045975 1144.163727,954.552078 1144.163727C978.058182 1144.163727,1000.598709 1134.824570,1017.218781 1118.204514C1033.838837 1101.584442,1043.177994 1079.043915,1043.177994 1055.537811Z" style="stroke:rgb(25.500488%,41.000366%,88.400269%); stroke-width: 2.500000;stroke-linecap: round;stroke-linejoin: round;stroke-miterlimit: 10.000000;fill: none;"></path>
  <path d="M967.203659 1192.875534C967.203659 1169.369431,957.864502 1146.828903,941.244446 1130.208832C924.624374 1113.588776,902.083847 1104.249619,878.577744 1104.249619C855.071640 1104.249619,832.531113 1113.588776,815.911041 1130.208832C799.290985 1146.828903,789.951828 1169.369431,789.951828 1192.875534C789.951828 1216.381638,799.290985 1238.922165,815.911041 1255.542236C832.531113 1272.162292,855.071640 1281.501450,878.577744 1281.501450C902.083847 1281.501450,924.624374 1272.162292,941.244446 1255.542236C957.864502 1238.922165,967.203659 1216.381638,967.203659 1192.875534Z" style="stroke:rgb(25.500488%,41.000366%,88.400269%); stroke-width: 2.500000;stroke-linecap: round;stroke-linejoin: round;stroke-miterlimit: 10.000000;fill: none;"></path>
  <path d="M894.590103 1331.757401C894.590103 1308.251297,885.250946 1285.710770,868.630890 1269.090698C852.010818 1252.470642,829.470291 1243.131485,805.964188 1243.131485C782.458084 1243.131485,759.917557 1252.470642,743.297485 1269.090698C726.677429 1285.710770,717.338272 1308.251297,717.338272 1331.757401C717.338272 1355.263504,726.677429 1377.804031,743.297485 1394.424103C759.917557 1411.044159,782.458084 1420.383316,805.964188 1420.383316C829.470291 1420.383316,852.010818 1411.044159,868.630890 1394.424103C885.250946 1377.804031,894.590103 1355.263504,894.590103 1331.757401Z" style="stroke:rgb(25.500488%,41.000366%,88.400269%); stroke-width: 2.500000;stroke-linecap: round;stroke-linejoin: round;stroke-miterlimit: 10.000000;fill: none;"></path>
  <path d="M822.988663 1472.559708C822.988663 1449.053604,813.649506 1426.513077,797.029449 1409.893005C780.409378 1393.272949,757.868851 1383.933792,734.362747 1383.933792C710.856644 1383.933792,688.316116 1393.272949,671.696045 1409.893005C655.075989 1426.513077,645.736832 1449.053604,645.736832 1472.559708C645.736832 1496.065811,655.075989 1518.606339,671.696045 1535.226410C688.316116 1551.846466,710.856644 1561.185623,734.362747 1561.185623C757.868851 1561.185623,780.409378 1551.846466,797.029449 1535.226410C813.649506 1518.606339,822.988663 1496.065811,822.988663 1472.559708Z" style="stroke:rgb(25.500488%,41.000366%,88.400269%); stroke-width: 2.500000;stroke-linecap: round;stroke-linejoin: round;stroke-miterlimit: 10.000000;fill: none;"></path>
  <path d="M1476.899979 483.686569C1476.899979 460.180466,1467.560822 437.639938,1450.940765 421.019867C1434.320694 404.399811,1411.780167 395.060654,1388.274063 395.060654C1364.767960 395.060654,1342.227432 404.399811,1325.607361 421.019867C1308.987305 437.639938,1299.648148 460.180466,1299.648148 483.686569C1299.648148 507.192673,1308.987305 529.733200,1325.607361 546.353271C1342.227432 562.973328,1364.767960 572.312485,1388.274063 572.312485C1411.780167 572.312485,1434.320694 562.973328,1450.940765 546.353271C1467.560822 529.733200,1476.899979 507.192673,1476.899979 483.686569Z" style="stroke:rgb(25.500488%,41.000366%,88.400269%); stroke-width: 2.500000;stroke-linecap: round;stroke-linejoin: round;stroke-miterlimit: 10.000000;fill: none;"></path>
  <path d="M1420.078171 634.804779C1420.078171 611.298676,1410.739014 588.758148,1394.118958 572.138077C1377.498886 555.518021,1354.958359 546.178864,1331.452255 546.178864C1307.946152 546.178864,1285.405624 555.518021,1268.785553 572.138077C1252.165497 588.758148,1242.826340 611.298676,1242.826340 634.804779C1242.826340 658.310883,1252.165497 680.851410,1268.785553 697.471481C1285.405624 714.091537,1307.946152 723.430695,1331.452255 723.430695C1354.958359 723.430695,1377.498886 714.091537,1394.118958 697.471481C1410.739014 680.851410,1420.078171 658.310883,1420.078171 634.804779Z" style="stroke:rgb(25.500488%,41.000366%,88.400269%); stroke-width: 2.500000;stroke-linecap: round;stroke-linejoin: round;stroke-miterlimit: 10.000000;fill: none;"></path>
  <path d="M1344.013000 774.971268C1344.013000 751.465164,1334.673843 728.924637,1318.053787 712.304565C1301.433716 695.684509,1278.893188 686.345352,1255.387085 686.345352C1231.880981 686.345352,1209.340454 695.684509,1192.720383 712.304565C1176.100327 728.924637,1166.761169 751.465164,1166.761169 774.971268C1166.761169 798.477371,1176.100327 821.017899,1192.720383 837.637970C1209.340454 854.258026,1231.880981 863.597183,1255.387085 863.597183C1278.893188 863.597183,1301.433716 854.258026,1318.053787 837.637970C1334.673843 821.017899,1344.013000 798.477371,1344.013000 774.971268Z" style="stroke:rgb(25.500488%,41.000366%,88.400269%); stroke-width: 2.500000;stroke-linecap: round;stroke-linejoin: round;stroke-miterlimit: 10.000000;fill: none;"></path>
  <path d="M1264.820633 913.126480C1264.820633 889.620377,1255.481476 867.079849,1238.861420 850.459778C1222.241348 833.839722,1199.700821 824.500565,1176.194717 824.500565C1152.688614 824.500565,1130.148087 833.839722,1113.528015 850.459778C1096.907959 867.079849,1087.568802 889.620377,1087.568802 913.126480C1087.568802 936.632584,1096.907959 959.173111,1113.528015 975.793182C1130.148087 992.413239,1152.688614 1001.752396,1176.194717 1001.752396C1199.700821 1001.752396,1222.241348 992.413239,1238.861420 975.793182C1255.481476 959.173111,1264.820633 936.632584,1264.820633 913.126480Z" style="stroke:rgb(25.500488%,41.000366%,88.400269%); stroke-width: 2.500000;stroke-linecap: round;stroke-linejoin: round;stroke-miterlimit: 10.000000;fill: none;"></path>
  <path d="M1187.950958 1051.100021C1187.950958 1027.593918,1178.611801 1005.053391,1161.991745 988.433319C1145.371674 971.813263,1122.831146 962.474106,1099.325043 962.474106C1075.818939 962.474106,1053.278412 971.813263,1036.658340 988.433319C1020.038284 1005.053391,1010.699127 1027.593918,1010.699127 1051.100021C1010.699127 1074.606125,1020.038284 1097.146652,1036.658340 1113.766724C1053.278412 1130.386780,1075.818939 1139.725937,1099.325043 1139.725937C1122.831146 1139.725937,1145.371674 1130.386780,1161.991745 1113.766724C1178.611801 1097.146652,1187.950958 1074.606125,1187.950958 1051.100021Z" style="stroke:rgb(25.500488%,41.000366%,88.400269%); stroke-width: 2.500000;stroke-linecap: round;stroke-linejoin: round;stroke-miterlimit: 10.000000;fill: none;"></path>
  <path d="M1112.352921 1192.888504C1112.352921 1169.382401,1103.013763 1146.841873,1086.393707 1130.221802C1069.773636 1113.601746,1047.233109 1104.262589,1023.727005 1104.262589C1000.220901 1104.262589,977.680374 1113.601746,961.060303 1130.221802C944.440247 1146.841873,935.101089 1169.382401,935.101089 1192.888504C935.101089 1216.394608,944.440247 1238.935135,961.060303 1255.555206C977.680374 1272.175262,1000.220901 1281.514420,1023.727005 1281.514420C1047.233109 1281.514420,1069.773636 1272.175262,1086.393707 1255.555206C1103.013763 1238.935135,1112.352921 1216.394608,1112.352921 1192.888504Z" style="stroke:rgb(25.500488%,41.000366%,88.400269%); stroke-width: 2.500000;stroke-linecap: round;stroke-linejoin: round;stroke-miterlimit: 10.000000;fill: none;"></path>
  <path d="M1040.154587 1332.393219C1040.154587 1308.887115,1030.815430 1286.346588,1014.195374 1269.726517C997.575302 1253.106461,975.034775 1243.767303,951.528671 1243.767303C928.022568 1243.767303,905.482040 1253.106461,888.861969 1269.726517C872.241913 1286.346588,862.902756 1308.887115,862.902756 1332.393219C862.902756 1355.899323,872.241913 1378.439850,888.861969 1395.059921C905.482040 1411.679977,928.022568 1421.019135,951.528671 1421.019135C975.034775 1421.019135,997.575302 1411.679977,1014.195374 1395.059921C1030.815430 1378.439850,1040.154587 1355.899323,1040.154587 1332.393219Z" style="stroke:rgb(25.500488%,41.000366%,88.400269%); stroke-width: 2.500000;stroke-linecap: round;stroke-linejoin: round;stroke-miterlimit: 10.000000;fill: none;"></path>
  <path d="M967.190689 1471.275085C967.190689 1447.768982,957.851532 1425.228455,941.231476 1408.608383C924.611404 1391.988327,902.070877 1382.649170,878.564774 1382.649170C855.058670 1382.649170,832.518143 1391.988327,815.898071 1408.608383C799.278015 1425.228455,789.938858 1447.768982,789.938858 1471.275085C789.938858 1494.781189,799.278015 1517.321716,815.898071 1533.941788C832.518143 1550.561844,855.058670 1559.901001,878.564774 1559.901001C902.070877 1559.901001,924.611404 1550.561844,941.231476 1533.941788C957.851532 1517.321716,967.190689 1494.781189,967.190689 1471.275085Z" style="stroke:rgb(25.500488%,41.000366%,88.400269%); stroke-width: 2.500000;stroke-linecap: round;stroke-linejoin: round;stroke-miterlimit: 10.000000;fill: none;"></path>
  <path d="M1551.784332 627.693954C1551.784332 604.187851,1542.445175 581.647324,1525.825119 565.027252C1509.205048 548.407196,1486.664520 539.068039,1463.158417 539.068039C1439.652313 539.068039,1417.111786 548.407196,1400.491714 565.027252C1383.871658 581.647324,1374.532501 604.187851,1374.532501 627.693954C1374.532501 651.200058,1383.871658 673.740585,1400.491714 690.360657C1417.111786 706.980713,1439.652313 716.319870,1463.158417 716.319870C1486.664520 716.319870,1509.205048 706.980713,1525.825119 690.360657C1542.445175 673.740585,1551.784332 651.200058,1551.784332 627.693954Z" style="stroke:rgb(25.500488%,41.000366%,88.400269%); stroke-width: 2.500000;stroke-linecap: round;stroke-linejoin: round;stroke-miterlimit: 10.000000;fill: none;"></path>
  <path d="M1487.618134 775.620071C1487.618134 752.113968,1478.278976 729.573441,1461.658920 712.953369C1445.038849 696.333313,1422.498322 686.994156,1398.992218 686.994156C1375.486115 686.994156,1352.945587 696.333313,1336.325516 712.953369C1319.705460 729.573441,1310.366302 752.113968,1310.366302 775.620071C1310.366302 799.126175,1319.705460 821.666702,1336.325516 838.286774C1352.945587 854.906830,1375.486115 864.245987,1398.992218 864.245987C1422.498322 864.245987,1445.038849 854.906830,1461.658920 838.286774C1478.278976 821.666702,1487.618134 799.126175,1487.618134 775.620071Z" style="stroke:rgb(25.500488%,41.000366%,88.400269%); stroke-width: 2.500000;stroke-linecap: round;stroke-linejoin: round;stroke-miterlimit: 10.000000;fill: none;"></path>
  <path d="M1410.943085 914.047775C1410.943085 890.541672,1401.603928 868.001144,1384.983871 851.381073C1368.363800 834.761017,1345.823273 825.421860,1322.317169 825.421860C1298.811066 825.421860,1276.270538 834.761017,1259.650467 851.381073C1243.030411 868.001144,1233.691254 890.541672,1233.691254 914.047775C1233.691254 937.553879,1243.030411 960.094406,1259.650467 976.714478C1276.270538 993.334534,1298.811066 1002.673691,1322.317169 1002.673691C1345.823273 1002.673691,1368.363800 993.334534,1384.983871 976.714478C1401.603928 960.094406,1410.943085 937.553879,1410.943085 914.047775Z" style="stroke:rgb(25.500488%,41.000366%,88.400269%); stroke-width: 2.500000;stroke-linecap: round;stroke-linejoin: round;stroke-miterlimit: 10.000000;fill: none;"></path>
  <path d="M1334.294006 1052.332748C1334.294006 1028.826645,1324.954849 1006.286118,1308.334793 989.666046C1291.714722 973.045990,1269.174194 963.706833,1245.668091 963.706833C1222.161987 963.706833,1199.621460 973.045990,1183.001389 989.666046C1166.381332 1006.286118,1157.042175 1028.826645,1157.042175 1052.332748C1157.042175 1075.838852,1166.381332 1098.379379,1183.001389 1114.999451C1199.621460 1131.619507,1222.161987 1140.958664,1245.668091 1140.958664C1269.174194 1140.958664,1291.714722 1131.619507,1308.334793 1114.999451C1324.954849 1098.379379,1334.294006 1075.838852,1334.294006 1052.332748Z" style="stroke:rgb(25.500488%,41.000366%,88.400269%); stroke-width: 2.500000;stroke-linecap: round;stroke-linejoin: round;stroke-miterlimit: 10.000000;fill: none;"></path>
  <path d="M1253.505585 1190.072723C1253.505585 1166.566620,1244.166428 1144.026093,1227.546371 1127.406021C1210.926300 1110.785965,1188.385773 1101.446808,1164.879669 1101.446808C1141.373566 1101.446808,1118.833038 1110.785965,1102.212967 1127.406021C1085.592911 1144.026093,1076.253754 1166.566620,1076.253754 1190.072723C1076.253754 1213.578827,1085.592911 1236.119354,1102.212967 1252.739426C1118.833038 1269.359482,1141.373566 1278.698639,1164.879669 1278.698639C1188.385773 1278.698639,1210.926300 1269.359482,1227.546371 1252.739426C1244.166428 1236.119354,1253.505585 1213.578827,1253.505585 1190.072723Z" style="stroke:rgb(25.500488%,41.000366%,88.400269%); stroke-width: 2.500000;stroke-linecap: round;stroke-linejoin: round;stroke-miterlimit: 10.000000;fill: none;"></path>
  <path d="M1184.382553 1333.690826C1184.382553 1310.184723,1175.043396 1287.644196,1158.423340 1271.024124C1141.803268 1254.404068,1119.262741 1245.064911,1095.756638 1245.064911C1072.250534 1245.064911,1049.710007 1254.404068,1033.089935 1271.024124C1016.469879 1287.644196,1007.130722 1310.184723,1007.130722 1333.690826C1007.130722 1357.196930,1016.469879 1379.737457,1033.089935 1396.357529C1049.710007 1412.977585,1072.250534 1422.316742,1095.756638 1422.316742C1119.262741 1422.316742,1141.803268 1412.977585,1158.423340 1396.357529C1175.043396 1379.737457,1184.382553 1357.196930,1184.382553 1333.690826Z" style="stroke:rgb(25.500488%,41.000366%,88.400269%); stroke-width: 2.500000;stroke-linecap: round;stroke-linejoin: round;stroke-miterlimit: 10.000000;fill: none;"></path>
  <path d="M1111.846863 1473.195526C1111.846863 1449.689423,1102.507706 1427.148895,1085.887650 1410.528824C1069.267578 1393.908768,1046.727051 1384.569611,1023.220947 1384.569611C999.714844 1384.569611,977.174316 1393.908768,960.554245 1410.528824C943.934189 1427.148895,934.595032 1449.689423,934.595032 1473.195526C934.595032 1496.701630,943.934189 1519.242157,960.554245 1535.862228C977.174316 1552.482285,999.714844 1561.821442,1023.220947 1561.821442C1046.727051 1561.821442,1069.267578 1552.482285,1085.887650 1535.862228C1102.507706 1519.242157,1111.846863 1496.701630,1111.846863 1473.195526Z" style="stroke:rgb(25.500488%,41.000366%,88.400269%); stroke-width: 2.500000;stroke-linecap: round;stroke-linejoin: round;stroke-miterlimit: 10.000000;fill: none;"></path>
  <path d="M1622.879700 771.454788C1622.879700 747.948685,1613.540543 725.408157,1596.920486 708.788086C1580.300415 692.168030,1557.759888 682.828873,1534.253784 682.828873C1510.747681 682.828873,1488.207153 692.168030,1471.587082 708.788086C1454.967026 725.408157,1445.627869 747.948685,1445.627869 771.454788C1445.627869 794.960892,1454.967026 817.501419,1471.587082 834.121490C1488.207153 850.741547,1510.747681 860.080704,1534.253784 860.080704C1557.759888 860.080704,1580.300415 850.741547,1596.920486 834.121490C1613.540543 817.501419,1622.879700 794.960892,1622.879700 771.454788Z" style="stroke:rgb(25.500488%,41.000366%,88.400269%); stroke-width: 2.500000;stroke-linecap: round;stroke-linejoin: round;stroke-miterlimit: 10.000000;fill: none;"></path>
  <path d="M1560.127884 909.934387C1560.127884 886.428284,1550.788727 863.887756,1534.168671 847.267685C1517.548599 830.647629,1495.008072 821.308472,1471.501968 821.308472C1447.995865 821.308472,1425.455338 830.647629,1408.835266 847.267685C1392.215210 863.887756,1382.876053 886.428284,1382.876053 909.934387C1382.876053 933.440491,1392.215210 955.981018,1408.835266 972.601089C1425.455338 989.221146,1447.995865 998.560303,1471.501968 998.560303C1495.008072 998.560303,1517.548599 989.221146,1534.168671 972.601089C1550.788727 955.981018,1560.127884 933.440491,1560.127884 909.934387Z" style="stroke:rgb(25.500488%,41.000366%,88.400269%); stroke-width: 2.500000;stroke-linecap: round;stroke-linejoin: round;stroke-miterlimit: 10.000000;fill: none;"></path>
  <path d="M1483.569626 1048.362091C1483.569626 1024.855988,1474.230469 1002.315460,1457.610413 985.695389C1440.990341 969.075333,1418.449814 959.736176,1394.943710 959.736176C1371.437607 959.736176,1348.897079 969.075333,1332.277008 985.695389C1315.656952 1002.315460,1306.317795 1024.855988,1306.317795 1048.362091C1306.317795 1071.868195,1315.656952 1094.408722,1332.277008 1111.028793C1348.897079 1127.648849,1371.437607 1136.988007,1394.943710 1136.988007C1418.449814 1136.988007,1440.990341 1127.648849,1457.610413 1111.028793C1474.230469 1094.408722,1483.569626 1071.868195,1483.569626 1048.362091Z" style="stroke:rgb(25.500488%,41.000366%,88.400269%); stroke-width: 2.500000;stroke-linecap: round;stroke-linejoin: round;stroke-miterlimit: 10.000000;fill: none;"></path>
  <path d="M1403.001785 1186.426468C1403.001785 1162.920364,1393.662628 1140.379837,1377.042572 1123.759766C1360.422501 1107.139709,1337.881973 1097.800552,1314.375870 1097.800552C1290.869766 1097.800552,1268.329239 1107.139709,1251.709167 1123.759766C1235.089111 1140.379837,1225.749954 1162.920364,1225.749954 1186.426468C1225.749954 1209.932571,1235.089111 1232.473099,1251.709167 1249.093170C1268.329239 1265.713226,1290.869766 1275.052383,1314.375870 1275.052383C1337.881973 1275.052383,1360.422501 1265.713226,1377.042572 1249.093170C1393.662628 1232.473099,1403.001785 1209.932571,1403.001785 1186.426468Z" style="stroke:rgb(25.500488%,41.000366%,88.400269%); stroke-width: 2.500000;stroke-linecap: round;stroke-linejoin: round;stroke-miterlimit: 10.000000;fill: none;"></path>
  <path d="M1322.862167 1324.218353C1322.862167 1300.712250,1313.523010 1278.171722,1296.902954 1261.551651C1280.282883 1244.931595,1257.742355 1235.592438,1234.236252 1235.592438C1210.730148 1235.592438,1188.189621 1244.931595,1171.569550 1261.551651C1154.949493 1278.171722,1145.610336 1300.712250,1145.610336 1324.218353C1145.610336 1347.724457,1154.949493 1370.264984,1171.569550 1386.885056C1188.189621 1403.505112,1210.730148 1412.844269,1234.236252 1412.844269C1257.742355 1412.844269,1280.282883 1403.505112,1296.902954 1386.885056C1313.523010 1370.264984,1322.862167 1347.724457,1322.862167 1324.218353Z" style="stroke:rgb(25.500488%,41.000366%,88.400269%); stroke-width: 2.500000;stroke-linecap: round;stroke-linejoin: round;stroke-miterlimit: 10.000000;fill: none;"></path>
  <path d="M1257.424316 1472.572678C1257.424316 1449.066574,1248.085159 1426.526047,1231.465103 1409.905975C1214.845032 1393.285919,1192.304504 1383.946762,1168.798401 1383.946762C1145.292297 1383.946762,1122.751770 1393.285919,1106.131699 1409.905975C1089.511642 1426.526047,1080.172485 1449.066574,1080.172485 1472.572678C1080.172485 1496.078781,1089.511642 1518.619308,1106.131699 1535.239380C1122.751770 1551.859436,1145.292297 1561.198593,1168.798401 1561.198593C1192.304504 1561.198593,1214.845032 1551.859436,1231.465103 1535.239380C1248.085159 1518.619308,1257.424316 1496.078781,1257.424316 1472.572678Z" style="stroke:rgb(25.500488%,41.000366%,88.400269%); stroke-width: 2.500000;stroke-linecap: round;stroke-linejoin: round;stroke-miterlimit: 10.000000;fill: none;"></path>
  <path d="M1471.540894 1321.895660C1471.540894 1298.389557,1462.201736 1275.849030,1445.581680 1259.228958C1428.961609 1242.608902,1406.421082 1233.269745,1382.914978 1233.269745C1359.408875 1233.269745,1336.868347 1242.608902,1320.248276 1259.228958C1303.628220 1275.849030,1294.289062 1298.389557,1294.289062 1321.895660C1294.289062 1345.401764,1303.628220 1367.942291,1320.248276 1384.562363C1336.868347 1401.182419,1359.408875 1410.521576,1382.914978 1410.521576C1406.421082 1410.521576,1428.961609 1401.182419,1445.581680 1384.562363C1462.201736 1367.942291,1471.540894 1345.401764,1471.540894 1321.895660Z" style="stroke:rgb(25.500488%,41.000366%,88.400269%); stroke-width: 2.500000;stroke-linecap: round;stroke-linejoin: round;stroke-miterlimit: 10.000000;fill: none;"></path>
  <path d="M1551.446945 1183.779373C1551.446945 1160.273270,1542.107788 1137.732742,1525.487732 1121.112671C1508.867661 1104.492615,1486.327133 1095.153458,1462.821030 1095.153458C1439.314926 1095.153458,1416.774399 1104.492615,1400.154327 1121.112671C1383.534271 1137.732742,1374.195114 1160.273270,1374.195114 1183.779373C1374.195114 1207.285477,1383.534271 1229.826004,1400.154327 1246.446075C1416.774399 1263.066132,1439.314926 1272.405289,1462.821030 1272.405289C1486.327133 1272.405289,1508.867661 1263.066132,1525.487732 1246.446075C1542.107788 1229.826004,1551.446945 1207.285477,1551.446945 1183.779373Z" style="stroke:rgb(25.500488%,41.000366%,88.400269%); stroke-width: 2.500000;stroke-linecap: round;stroke-linejoin: round;stroke-miterlimit: 10.000000;fill: none;"></path>
  <path d="M397.376678 1175.228210C397.376678 1151.722107,388.037521 1129.181580,371.417465 1112.561508C354.797394 1095.941452,332.256866 1086.602295,308.750763 1086.602295C285.244659 1086.602295,262.704132 1095.941452,246.084061 1112.561508C229.464005 1129.181580,220.124847 1151.722107,220.124847 1175.228210C220.124847 1198.734314,229.464005 1221.274841,246.084061 1237.894913C262.704132 1254.514969,285.244659 1263.854126,308.750763 1263.854126C332.256866 1263.854126,354.797394 1254.514969,371.417465 1237.894913C388.037521 1221.274841,397.376678 1198.734314,397.376678 1175.228210Z" style="stroke:rgb(25.500488%,41.000366%,88.400269%); stroke-width: 2.500000;stroke-linecap: round;stroke-linejoin: round;stroke-miterlimit: 10.000000;fill: none;"></path>
  <path d="M497.499298 223.349579C497.499298 199.843475,488.160141 177.302948,471.540085 160.682877C454.920013 144.062820,432.379486 134.723663,408.873383 134.723663C385.367279 134.723663,362.826752 144.062820,346.206680 160.682877C329.586624 177.302948,320.247467 199.843475,320.247467 223.349579C320.247467 246.855682,329.586624 269.396210,346.206680 286.016281C362.826752 302.636337,385.367279 311.975494,408.873383 311.975494C432.379486 311.975494,454.920013 302.636337,471.540085 286.016281C488.160141 269.396210,497.499298 246.855682,497.499298 223.349579Z" style="stroke:rgb(25.500488%,41.000366%,88.400269%); stroke-width: 2.500000;stroke-linecap: round;stroke-linejoin: round;stroke-miterlimit: 10.000000;fill: none;"></path>
  <path d="M254.355469 638.464005C254.355469 614.957901,245.016312 592.417374,228.396255 575.797302C211.776184 559.177246,189.235657 549.838089,165.729553 549.838089C142.223450 549.838089,119.682922 559.177246,103.062851 575.797302C86.442795 592.417374,77.103638 614.957901,77.103638 638.464005C77.103638 661.970108,86.442795 684.510635,103.062851 701.130707C119.682922 717.750763,142.223450 727.089920,165.729553 727.089920C189.235657 727.089920,211.776184 717.750763,228.396255 701.130707C245.016312 684.510635,254.355469 661.970108,254.355469 638.464005Z" style="stroke:rgb(25.500488%,41.000366%,88.400269%); stroke-width: 2.500000;stroke-linecap: round;stroke-linejoin: round;stroke-miterlimit: 10.000000;fill: none;"></path>
  <path d="M413.376053 358.663055C413.376053 335.156952,404.036896 312.616425,387.416840 295.996353C370.796768 279.376297,348.256241 270.037140,324.750137 270.037140C301.244034 270.037140,278.703506 279.376297,262.083435 295.996353C245.463379 312.616425,236.124222 335.156952,236.124222 358.663055C236.124222 382.169159,245.463379 404.709686,262.083435 421.329758C278.703506 437.949814,301.244034 447.288971,324.750137 447.288971C348.256241 447.288971,370.796768 437.949814,387.416840 421.329758C404.036896 404.709686,413.376053 382.169159,413.376053 358.663055Z" style="stroke:rgb(25.500488%,41.000366%,88.400269%); stroke-width: 2.500000;stroke-linecap: round;stroke-linejoin: round;stroke-miterlimit: 10.000000;fill: none;"></path>
  <path d="M1391.556976 1459.700516C1391.556976 1436.194412,1382.217819 1413.653885,1365.597763 1397.033813C1348.977692 1380.413757,1326.437164 1371.074600,1302.931061 1371.074600C1279.424957 1371.074600,1256.884430 1380.413757,1240.264359 1397.033813C1223.644302 1413.653885,1214.305145 1436.194412,1214.305145 1459.700516C1214.305145 1483.206619,1223.644302 1505.747147,1240.264359 1522.367218C1256.884430 1538.987274,1279.424957 1548.326431,1302.931061 1548.326431C1326.437164 1548.326431,1348.977692 1538.987274,1365.597763 1522.367218C1382.217819 1505.747147,1391.556976 1483.206619,1391.556976 1459.700516Z" style="stroke:rgb(25.500488%,41.000366%,88.400269%); stroke-width: 2.500000;stroke-linecap: round;stroke-linejoin: round;stroke-miterlimit: 10.000000;fill: none;"></path>
  <path d="M1631.936920 1045.572266C1631.936920 1022.066162,1622.597763 999.525635,1605.977707 982.905563C1589.357635 966.285507,1566.817108 956.946350,1543.311005 956.946350C1519.804901 956.946350,1497.264374 966.285507,1480.644302 982.905563C1464.024246 999.525635,1454.685089 1022.066162,1454.685089 1045.572266C1454.685089 1069.078369,1464.024246 1091.618896,1480.644302 1108.238968C1497.264374 1124.859024,1519.804901 1134.198181,1543.311005 1134.198181C1566.817108 1134.198181,1589.357635 1124.859024,1605.977707 1108.238968C1622.597763 1091.618896,1631.936920 1069.078369,1631.936920 1045.572266Z" style="stroke:rgb(25.500488%,41.000366%,88.400269%); stroke-width: 2.500000;stroke-linecap: round;stroke-linejoin: round;stroke-miterlimit: 10.000000;fill: none;"></path>
  <path d="M1708.118881 906.586594C1708.118881 883.080490,1698.779724 860.539963,1682.159668 843.919891C1665.539597 827.299835,1642.999069 817.960678,1619.492966 817.960678C1595.986862 817.960678,1573.446335 827.299835,1556.826263 843.919891C1540.206207 860.539963,1530.867050 883.080490,1530.867050 906.586594C1530.867050 930.092697,1540.206207 952.633224,1556.826263 969.253296C1573.446335 985.873352,1595.986862 995.212509,1619.492966 995.212509C1642.999069 995.212509,1665.539597 985.873352,1682.159668 969.253296C1698.779724 952.633224,1708.118881 930.092697,1708.118881 906.586594Z" style="stroke:rgb(25.500488%,41.000366%,88.400269%); stroke-width: 2.500000;stroke-linecap: round;stroke-linejoin: round;stroke-miterlimit: 10.000000;fill: none;"></path>
  <path d="M1693.572815 631.703522C1693.572815 608.197418,1684.233658 585.656891,1667.613602 569.036819C1650.993530 552.416763,1628.453003 543.077606,1604.946899 543.077606C1581.440796 543.077606,1558.900269 552.416763,1542.280197 569.036819C1525.660141 585.656891,1516.320984 608.197418,1516.320984 631.703522C1516.320984 655.209625,1525.660141 677.750153,1542.280197 694.370224C1558.900269 710.990280,1581.440796 720.329437,1604.946899 720.329437C1628.453003 720.329437,1650.993530 710.990280,1667.613602 694.370224C1684.233658 677.750153,1693.572815 655.209625,1693.572815 631.703522Z" style="stroke:rgb(25.500488%,41.000366%,88.400269%); stroke-width: 2.500000;stroke-linecap: round;stroke-linejoin: round;stroke-miterlimit: 10.000000;fill: none;"></path>
  <path d="M1534.824722 342.936172C1534.824722 319.430069,1525.485565 296.889542,1508.865509 280.269470C1492.245438 263.649414,1469.704910 254.310257,1446.198807 254.310257C1422.692703 254.310257,1400.152176 263.649414,1383.532104 280.269470C1366.912048 296.889542,1357.572891 319.430069,1357.572891 342.936172C1357.572891 366.442276,1366.912048 388.982803,1383.532104 405.602875C1400.152176 422.222931,1422.692703 431.562088,1446.198807 431.562088C1469.704910 431.562088,1492.245438 422.222931,1508.865509 405.602875C1525.485565 388.982803,1534.824722 366.442276,1534.824722 342.936172Z" style="stroke:rgb(25.500488%,41.000366%,88.400269%); stroke-width: 2.500000;stroke-linecap: round;stroke-linejoin: round;stroke-miterlimit: 10.000000;fill: none;"></path>
  <path d="M1767.042786 772.298218C1767.042786 748.792114,1757.703629 726.251587,1741.083572 709.631516C1724.463501 693.011459,1701.922974 683.672302,1678.416870 683.672302C1654.910767 683.672302,1632.370239 693.011459,1615.750168 709.631516C1599.130112 726.251587,1589.790955 748.792114,1589.790955 772.298218C1589.790955 795.804321,1599.130112 818.344849,1615.750168 834.964920C1632.370239 851.584976,1654.910767 860.924133,1678.416870 860.924133C1701.922974 860.924133,1724.463501 851.584976,1741.083572 834.964920C1757.703629 818.344849,1767.042786 795.804321,1767.042786 772.298218Z" style="stroke:rgb(25.500488%,41.000366%,88.400269%); stroke-width: 2.500000;stroke-linecap: round;stroke-linejoin: round;stroke-miterlimit: 10.000000;fill: none;"></path>
  <path d="M333.353210 498.842514C333.353210 475.336411,324.014053 452.795883,307.393997 436.175812C290.773926 419.555756,268.233398 410.216599,244.727295 410.216599C221.221191 410.216599,198.680664 419.555756,182.060593 436.175812C165.440536 452.795883,156.101379 475.336411,156.101379 498.842514C156.101379 522.348618,165.440536 544.889145,182.060593 561.509216C198.680664 578.129272,221.221191 587.468430,244.727295 587.468430C268.233398 587.468430,290.773926 578.129272,307.393997 561.509216C324.014053 544.889145,333.353210 522.348618,333.353210 498.842514Z" style="stroke:rgb(25.500488%,41.000366%,88.400269%); stroke-width: 2.500000;stroke-linecap: round;stroke-linejoin: round;stroke-miterlimit: 10.000000;fill: none;"></path>
  <path d="M178.381134 777.008499C178.381134 753.502396,169.041977 730.961868,152.421921 714.341797C135.801849 697.721741,113.261322 688.382584,89.755219 688.382584C66.249115 688.382584,43.708588 697.721741,27.088516 714.341797C10.468460 730.961868,1.129303 753.502396,1.129303 777.008499C1.129303 800.514603,10.468460 823.055130,27.088516 839.675201C43.708588 856.295258,66.249115 865.634415,89.755219 865.634415C113.261322 865.634415,135.801849 856.295258,152.421921 839.675201C169.041977 823.055130,178.381134 800.514603,178.381134 777.008499Z" style="stroke:rgb(25.500488%,41.000366%,88.400269%); stroke-width: 2.500000;stroke-linecap: round;stroke-linejoin: round;stroke-miterlimit: 10.000000;fill: none;"></path>
  <path d="M1615.055176 488.409836C1615.055176 464.903732,1605.716019 442.363205,1589.095963 425.743134C1572.475891 409.123077,1549.935364 399.783920,1526.429260 399.783920C1502.923157 399.783920,1480.382629 409.123077,1463.762558 425.743134C1447.142502 442.363205,1437.803345 464.903732,1437.803345 488.409836C1437.803345 511.915939,1447.142502 534.456467,1463.762558 551.076538C1480.382629 567.696594,1502.923157 577.035751,1526.429260 577.035751C1549.935364 577.035751,1572.475891 567.696594,1589.095963 551.076538C1605.716019 534.456467,1615.055176 511.915939,1615.055176 488.409836Z" style="stroke:rgb(25.500488%,41.000366%,88.400269%); stroke-width: 2.500000;stroke-linecap: round;stroke-linejoin: round;stroke-miterlimit: 10.000000;fill: none;"></path>
</svg>
