<?xml version="1.0"?>
<!-- Created by MetaPost 2.00 on 2022.03.02:1201 -->
<svg version="1.1" xmlns="http://www.w3.org/2000/svg" xmlns:xlink="http://www.w3.org/1999/xlink" width="1934.752502" height="1934.752502" viewBox="0 0 1934.752502 1934.752502">
<!-- Original BoundingBox: -967.376251 -967.376251 967.376251 967.376251 -->
  <path d="M1817.393524 967.000000L1568.319672 365.680328L967.000000 116.606476L365.680328 365.680328L116.606476 967.000000L365.680328 1568.319672L967.000000 1817.393524L1568.319672 1568.319672L1817.393524 967.000000Z" style="fill: rgb(100.000000%,100.000000%,100.000000%);stroke: none;"></path>
  <path d="M1817.393524 967.000000L1568.319672 365.680328" style="stroke:rgb(0.000000%,0.000000%,0.000000%); stroke-width: 2.500000;stroke-linecap: round;stroke-linejoin: round;stroke-miterlimit: 10.000000;fill: none;"></path>
  <path d="M1568.319672 365.680328L967.000000 116.606476" style="stroke:rgb(0.000000%,0.000000%,0.000000%); stroke-width: 2.500000;stroke-linecap: round;stroke-linejoin: round;stroke-miterlimit: 10.000000;fill: none;"></path>
  <path d="M967.000000 116.606476L365.680328 365.680328" style="stroke:rgb(0.000000%,0.000000%,0.000000%); stroke-width: 2.500000;stroke-linecap: round;stroke-linejoin: round;stroke-miterlimit: 10.000000;fill: none;"></path>
  <path d="M365.680328 365.680328L116.606476 967.000000" style="stroke:rgb(0.000000%,0.000000%,0.000000%); stroke-width: 2.500000;stroke-linecap: round;stroke-linejoin: round;stroke-miterlimit: 10.000000;fill: none;"></path>
  <path d="M116.606476 967.000000L365.680328 1568.319672" style="stroke:rgb(0.000000%,0.000000%,0.000000%); stroke-width: 2.500000;stroke-linecap: round;stroke-linejoin: round;stroke-miterlimit: 10.000000;fill: none;"></path>
  <path d="M365.680328 1568.319672L967.000000 1817.393524" style="stroke:rgb(0.000000%,0.000000%,0.000000%); stroke-width: 2.500000;stroke-linecap: round;stroke-linejoin: round;stroke-miterlimit: 10.000000;fill: none;"></path>
  <path d="M967.000000 1817.393524L1568.319672 1568.319672" style="stroke:rgb(0.000000%,0.000000%,0.000000%); stroke-width: 2.500000;stroke-linecap: round;stroke-linejoin: round;stroke-miterlimit: 10.000000;fill: none;"></path>
  <path d="M1568.319672 1568.319672L1817.393524 967.000000" style="stroke:rgb(0.000000%,0.000000%,0.000000%); stroke-width: 2.500000;stroke-linecap: round;stroke-linejoin: round;stroke-miterlimit: 10.000000;fill: none;"></path>
  <path d="M1933.126251 947.886383C1933.126251 864.193665,1899.874496 783.938782,1840.699295 724.763565C1781.524078 665.588364,1701.269196 632.336609,1617.576477 632.336609C1533.883759 632.336609,1453.628876 665.588364,1394.453659 724.763565C1335.278458 783.938782,1302.026703 864.193665,1302.026703 947.886383C1302.026703 1031.579102,1335.278458 1111.833984,1394.453659 1171.009201C1453.628876 1230.184402,1533.883759 1263.436157,1617.576477 1263.436157C1701.269196 1263.436157,1781.524078 1230.184402,1840.699295 1171.009201C1899.874496 1111.833984,1933.126251 1031.579102,1933.126251 947.886383Z" style="stroke:rgb(25.500488%,41.000366%,88.400269%); stroke-width: 2.500000;stroke-linecap: round;stroke-linejoin: round;stroke-miterlimit: 10.000000;fill: none;"></path>
  <path d="M1692.136444 557.413330C1692.136444 473.720612,1658.884689 393.465729,1599.709488 334.290512C1540.534271 275.115311,1460.279388 241.863556,1376.586670 241.863556C1292.893951 241.863556,1212.639069 275.115311,1153.463852 334.290512C1094.288651 393.465729,1061.036896 473.720612,1061.036896 557.413330C1061.036896 641.106049,1094.288651 721.360931,1153.463852 780.536148C1212.639069 839.711349,1292.893951 872.963104,1376.586670 872.963104C1460.279388 872.963104,1540.534271 839.711349,1599.709488 780.536148C1658.884689 721.360931,1692.136444 641.106049,1692.136444 557.413330Z" style="stroke:rgb(25.500488%,41.000366%,88.400269%); stroke-width: 2.500000;stroke-linecap: round;stroke-linejoin: round;stroke-miterlimit: 10.000000;fill: none;"></path>
  <path d="M1301.663391 316.423523C1301.663391 232.730804,1268.411636 152.475922,1209.236435 93.300705C1150.061218 34.125504,1069.806335 0.873749,986.113617 0.873749C902.420898 0.873749,822.166016 34.125504,762.990799 93.300705C703.815598 152.475922,670.563843 232.730804,670.563843 316.423523C670.563843 400.116241,703.815598 480.371124,762.990799 539.546341C822.166016 598.721542,902.420898 631.973297,986.113617 631.973297C1069.806335 631.973297,1150.061218 598.721542,1209.236435 539.546341C1268.411636 480.371124,1301.663391 400.116241,1301.663391 316.423523Z" style="stroke:rgb(25.500488%,41.000366%,88.400269%); stroke-width: 2.500000;stroke-linecap: round;stroke-linejoin: round;stroke-miterlimit: 10.000000;fill: none;"></path>
  <path d="M1791.415619 1475.865845C1791.415619 1392.173126,1758.163864 1311.918243,1698.988663 1252.743027C1639.813446 1193.567825,1559.558563 1160.316071,1475.865845 1160.316071C1392.173126 1160.316071,1311.918243 1193.567825,1252.743027 1252.743027C1193.567825 1311.918243,1160.316071 1392.173126,1160.316071 1475.865845C1160.316071 1559.558563,1193.567825 1639.813446,1252.743027 1698.988663C1311.918243 1758.163864,1392.173126 1791.415619,1475.865845 1791.415619C1559.558563 1791.415619,1639.813446 1758.163864,1698.988663 1698.988663C1758.163864 1639.813446,1791.415619 1559.558563,1791.415619 1475.865845Z" style="stroke:rgb(25.500488%,41.000366%,88.400269%); stroke-width: 2.500000;stroke-linecap: round;stroke-linejoin: round;stroke-miterlimit: 10.000000;fill: none;"></path>
  <path d="M1405.107864 1089.558090C1405.107864 1005.865372,1371.856110 925.610489,1312.680908 866.435272C1253.505692 807.260071,1173.250809 774.008316,1089.558090 774.008316C1005.865372 774.008316,925.610489 807.260071,866.435272 866.435272C807.260071 925.610489,774.008316 1005.865372,774.008316 1089.558090C774.008316 1173.250809,807.260071 1253.505692,866.435272 1312.680908C925.610489 1371.856110,1005.865372 1405.107864,1089.558090 1405.107864C1173.250809 1405.107864,1253.505692 1371.856110,1312.680908 1312.680908C1371.856110 1253.505692,1405.107864 1173.250809,1405.107864 1089.558090Z" style="stroke:rgb(25.500488%,41.000366%,88.400269%); stroke-width: 2.500000;stroke-linecap: round;stroke-linejoin: round;stroke-miterlimit: 10.000000;fill: none;"></path>
  <path d="M1159.991684 844.441910C1159.991684 760.749191,1126.739929 680.494308,1067.564728 621.319092C1008.389511 562.143890,928.134628 528.892136,844.441910 528.892136C760.749191 528.892136,680.494308 562.143890,621.319092 621.319092C562.143890 680.494308,528.892136 760.749191,528.892136 844.441910C528.892136 928.134628,562.143890 1008.389511,621.319092 1067.564728C680.494308 1126.739929,760.749191 1159.991684,844.441910 1159.991684C928.134628 1159.991684,1008.389511 1126.739929,1067.564728 1067.564728C1126.739929 1008.389511,1159.991684 928.134628,1159.991684 844.441910Z" style="stroke:rgb(25.500488%,41.000366%,88.400269%); stroke-width: 2.500000;stroke-linecap: round;stroke-linejoin: round;stroke-miterlimit: 10.000000;fill: none;"></path>
  <path d="M773.683929 458.134155C773.683929 374.441437,740.432175 294.186554,681.256973 235.011337C622.081757 175.836136,541.826874 142.584381,458.134155 142.584381C374.441437 142.584381,294.186554 175.836136,235.011337 235.011337C175.836136 294.186554,142.584381 374.441437,142.584381 458.134155C142.584381 541.826874,175.836136 622.081757,235.011337 681.256973C294.186554 740.432175,374.441437 773.683929,458.134155 773.683929C541.826874 773.683929,622.081757 740.432175,681.256973 681.256973C740.432175 622.081757,773.683929 541.826874,773.683929 458.134155Z" style="stroke:rgb(25.500488%,41.000366%,88.400269%); stroke-width: 2.500000;stroke-linecap: round;stroke-linejoin: round;stroke-miterlimit: 10.000000;fill: none;"></path>
  <path d="M1263.436157 1617.576477C1263.436157 1533.883759,1230.184402 1453.628876,1171.009201 1394.453659C1111.833984 1335.278458,1031.579102 1302.026703,947.886383 1302.026703C864.193665 1302.026703,783.938782 1335.278458,724.763565 1394.453659C665.588364 1453.628876,632.336609 1533.883759,632.336609 1617.576477C632.336609 1701.269196,665.588364 1781.524078,724.763565 1840.699295C783.938782 1899.874496,864.193665 1933.126251,947.886383 1933.126251C1031.579102 1933.126251,1111.833984 1899.874496,1171.009201 1840.699295C1230.184402 1781.524078,1263.436157 1701.269196,1263.436157 1617.576477Z" style="stroke:rgb(25.500488%,41.000366%,88.400269%); stroke-width: 2.500000;stroke-linecap: round;stroke-linejoin: round;stroke-miterlimit: 10.000000;fill: none;"></path>
  <path d="M872.963104 1376.586670C872.963104 1292.893951,839.711349 1212.639069,780.536148 1153.463852C721.360931 1094.288651,641.106049 1061.036896,557.413330 1061.036896C473.720612 1061.036896,393.465729 1094.288651,334.290512 1153.463852C275.115311 1212.639069,241.863556 1292.893951,241.863556 1376.586670C241.863556 1460.279388,275.115311 1540.534271,334.290512 1599.709488C393.465729 1658.884689,473.720612 1692.136444,557.413330 1692.136444C641.106049 1692.136444,721.360931 1658.884689,780.536148 1599.709488C839.711349 1540.534271,872.963104 1460.279388,872.963104 1376.586670Z" style="stroke:rgb(25.500488%,41.000366%,88.400269%); stroke-width: 2.500000;stroke-linecap: round;stroke-linejoin: round;stroke-miterlimit: 10.000000;fill: none;"></path>
  <path d="M631.973297 986.113617C631.973297 902.420898,598.721542 822.166016,539.546341 762.990799C480.371124 703.815598,400.116241 670.563843,316.423523 670.563843C232.730804 670.563843,152.475922 703.815598,93.300705 762.990799C34.125504 822.166016,0.873749 902.420898,0.873749 986.113617C0.873749 1069.806335,34.125504 1150.061218,93.300705 1209.236435C152.475922 1268.411636,232.730804 1301.663391,316.423523 1301.663391C400.116241 1301.663391,480.371124 1268.411636,539.546341 1209.236435C598.721542 1150.061218,631.973297 1069.806335,631.973297 986.113617Z" style="stroke:rgb(25.500488%,41.000366%,88.400269%); stroke-width: 2.500000;stroke-linecap: round;stroke-linejoin: round;stroke-miterlimit: 10.000000;fill: none;"></path>
</svg>
