<?xml version="1.0"?>
<!-- Created by MetaPost 2.00 on 2022.03.02:1201 -->
<svg version="1.1" xmlns="http://www.w3.org/2000/svg" xmlns:xlink="http://www.w3.org/1999/xlink" width="1899.483795" height="1809.845749" viewBox="0 0 1899.483795 1809.845749">
<!-- Original BoundingBox: -938.102448 -905.402985 961.381348 904.442764 -->
  <path d="M938.000000 53.606476L391.374054 252.567108L100.530548 756.333405L201.535538 1329.196762L647.143509 1703.112473L1228.856491 1703.112473L1674.464462 1329.196762L1775.469452 756.333405L1484.625946 252.567108L938.000000 53.606476Z" style="fill: rgb(100.000000%,100.000000%,100.000000%);stroke: none;"></path>
  <path d="M938.000000 53.606476L391.374054 252.567108" style="stroke:rgb(0.000000%,0.000000%,0.000000%); stroke-width: 2.500000;stroke-linecap: round;stroke-linejoin: round;stroke-miterlimit: 10.000000;fill: none;"></path>
  <path d="M391.374054 252.567108L100.530548 756.333405" style="stroke:rgb(0.000000%,0.000000%,0.000000%); stroke-width: 2.500000;stroke-linecap: round;stroke-linejoin: round;stroke-miterlimit: 10.000000;fill: none;"></path>
  <path d="M100.530548 756.333405L201.535538 1329.196762" style="stroke:rgb(0.000000%,0.000000%,0.000000%); stroke-width: 2.500000;stroke-linecap: round;stroke-linejoin: round;stroke-miterlimit: 10.000000;fill: none;"></path>
  <path d="M201.535538 1329.196762L647.143509 1703.112473" style="stroke:rgb(0.000000%,0.000000%,0.000000%); stroke-width: 2.500000;stroke-linecap: round;stroke-linejoin: round;stroke-miterlimit: 10.000000;fill: none;"></path>
  <path d="M647.143509 1703.112473L1228.856491 1703.112473" style="stroke:rgb(0.000000%,0.000000%,0.000000%); stroke-width: 2.500000;stroke-linecap: round;stroke-linejoin: round;stroke-miterlimit: 10.000000;fill: none;"></path>
  <path d="M1228.856491 1703.112473L1674.464462 1329.196762" style="stroke:rgb(0.000000%,0.000000%,0.000000%); stroke-width: 2.500000;stroke-linecap: round;stroke-linejoin: round;stroke-miterlimit: 10.000000;fill: none;"></path>
  <path d="M1674.464462 1329.196762L1775.469452 756.333405" style="stroke:rgb(0.000000%,0.000000%,0.000000%); stroke-width: 2.500000;stroke-linecap: round;stroke-linejoin: round;stroke-miterlimit: 10.000000;fill: none;"></path>
  <path d="M1775.469452 756.333405L1484.625946 252.567108" style="stroke:rgb(0.000000%,0.000000%,0.000000%); stroke-width: 2.500000;stroke-linecap: round;stroke-linejoin: round;stroke-miterlimit: 10.000000;fill: none;"></path>
  <path d="M1484.625946 252.567108L938.000000 53.606476" style="stroke:rgb(0.000000%,0.000000%,0.000000%); stroke-width: 2.500000;stroke-linecap: round;stroke-linejoin: round;stroke-miterlimit: 10.000000;fill: none;"></path>
  <path d="M1649.887955 1458.930557C1649.887955 1411.002899,1630.845932 1365.043961,1596.958527 1331.156555C1563.071121 1297.269150,1517.112183 1278.227127,1469.184525 1278.227127C1421.256866 1278.227127,1375.297928 1297.269150,1341.410522 1331.156555C1307.523117 1365.043961,1288.481094 1411.002899,1288.481094 1458.930557C1288.481094 1506.858215,1307.523117 1552.817154,1341.410522 1586.704559C1375.297928 1620.591965,1421.256866 1639.633987,1469.184525 1639.633987C1517.112183 1639.633987,1563.071121 1620.591965,1596.958527 1586.704559C1630.845932 1552.817154,1649.887955 1506.858215,1649.887955 1458.930557Z" style="stroke:rgb(25.500488%,41.000366%,88.400269%); stroke-width: 2.500000;stroke-linecap: round;stroke-linejoin: round;stroke-miterlimit: 10.000000;fill: none;"></path>
  <path d="M1109.918701 1627.449554C1109.918701 1579.521896,1090.876678 1533.562958,1056.989273 1499.675552C1023.101868 1465.788147,977.142929 1446.746124,929.215271 1446.746124C881.287613 1446.746124,835.328674 1465.788147,801.441269 1499.675552C767.553864 1533.562958,748.511841 1579.521896,748.511841 1627.449554C748.511841 1675.377213,767.553864 1721.336151,801.441269 1755.223557C835.328674 1789.110962,881.287613 1808.152985,929.215271 1808.152985C977.142929 1808.152985,1023.101868 1789.110962,1056.989273 1755.223557C1090.876678 1721.336151,1109.918701 1675.377213,1109.918701 1627.449554Z" style="stroke:rgb(25.500488%,41.000366%,88.400269%); stroke-width: 2.500000;stroke-linecap: round;stroke-linejoin: round;stroke-miterlimit: 10.000000;fill: none;"></path>
  <path d="M1361.873215 1545.168900C1361.873215 1497.241241,1342.831192 1451.282303,1308.943787 1417.394897C1275.056381 1383.507492,1229.097443 1364.465469,1181.169785 1364.465469C1133.242126 1364.465469,1087.283188 1383.507492,1053.395782 1417.394897C1019.508377 1451.282303,1000.466354 1497.241241,1000.466354 1545.168900C1000.466354 1593.096558,1019.508377 1639.055496,1053.395782 1672.942902C1087.283188 1706.830307,1133.242126 1725.872330,1181.169785 1725.872330C1229.097443 1725.872330,1275.056381 1706.830307,1308.943787 1672.942902C1342.831192 1639.055496,1361.873215 1593.096558,1361.873215 1545.168900Z" style="stroke:rgb(25.500488%,41.000366%,88.400269%); stroke-width: 2.500000;stroke-linecap: round;stroke-linejoin: round;stroke-miterlimit: 10.000000;fill: none;"></path>
  <path d="M1466.031357 1225.609543C1466.031357 1177.681885,1446.989334 1131.722946,1413.101929 1097.835541C1379.214523 1063.948135,1333.255585 1044.906113,1285.327927 1044.906113C1237.400269 1044.906113,1191.441330 1063.948135,1157.553925 1097.835541C1123.666519 1131.722946,1104.624496 1177.681885,1104.624496 1225.609543C1104.624496 1273.537201,1123.666519 1319.496140,1157.553925 1353.383545C1191.441330 1387.270950,1237.400269 1406.312973,1285.327927 1406.312973C1333.255585 1406.312973,1379.214523 1387.270950,1413.101929 1353.383545C1446.989334 1319.496140,1466.031357 1273.537201,1466.031357 1225.609543Z" style="stroke:rgb(25.500488%,41.000366%,88.400269%); stroke-width: 2.500000;stroke-linecap: round;stroke-linejoin: round;stroke-miterlimit: 10.000000;fill: none;"></path>
  <path d="M1778.505829 1191.171310C1778.505829 1143.243652,1759.463806 1097.284714,1725.576401 1063.397308C1691.688995 1029.509903,1645.730057 1010.467880,1597.802399 1010.467880C1549.874741 1010.467880,1503.915802 1029.509903,1470.028397 1063.397308C1436.140991 1097.284714,1417.098969 1143.243652,1417.098969 1191.171310C1417.098969 1239.098969,1436.140991 1285.057907,1470.028397 1318.945312C1503.915802 1352.832718,1549.874741 1371.874741,1597.802399 1371.874741C1645.730057 1371.874741,1691.688995 1352.832718,1725.576401 1318.945312C1759.463806 1285.057907,1778.505829 1239.098969,1778.505829 1191.171310Z" style="stroke:rgb(25.500488%,41.000366%,88.400269%); stroke-width: 2.500000;stroke-linecap: round;stroke-linejoin: round;stroke-miterlimit: 10.000000;fill: none;"></path>
  <path d="M1898.131348 879.189941C1898.131348 831.262283,1879.089325 785.303345,1845.201920 751.415939C1811.314514 717.528534,1765.355576 698.486511,1717.427917 698.486511C1669.500259 698.486511,1623.541321 717.528534,1589.653915 751.415939C1555.766510 785.303345,1536.724487 831.262283,1536.724487 879.189941C1536.724487 927.117599,1555.766510 973.076538,1589.653915 1006.963943C1623.541321 1040.851349,1669.500259 1059.893372,1717.427917 1059.893372C1765.355576 1059.893372,1811.314514 1040.851349,1845.201920 1006.963943C1879.089325 973.076538,1898.131348 927.117599,1898.131348 879.189941Z" style="stroke:rgb(25.500488%,41.000366%,88.400269%); stroke-width: 2.500000;stroke-linecap: round;stroke-linejoin: round;stroke-miterlimit: 10.000000;fill: none;"></path>
  <path d="M786.077271 1618.561020C786.077271 1570.633362,767.035248 1524.674423,733.147842 1490.787018C699.260437 1456.899612,653.301498 1437.857590,605.373840 1437.857590C557.446182 1437.857590,511.487244 1456.899612,477.599838 1490.787018C443.712433 1524.674423,424.670410 1570.633362,424.670410 1618.561020C424.670410 1666.488678,443.712433 1712.447617,477.599838 1746.335022C511.487244 1780.222427,557.446182 1799.264450,605.373840 1799.264450C653.301498 1799.264450,699.260437 1780.222427,733.147842 1746.335022C767.035248 1712.447617,786.077271 1666.488678,786.077271 1618.561020Z" style="stroke:rgb(25.500488%,41.000366%,88.400269%); stroke-width: 2.500000;stroke-linecap: round;stroke-linejoin: round;stroke-miterlimit: 10.000000;fill: none;"></path>
  <path d="M940.387573 1398.060257C940.387573 1350.132599,921.345551 1304.173660,887.458145 1270.286255C853.570740 1236.398849,807.611801 1217.356827,759.684143 1217.356827C711.756485 1217.356827,665.797546 1236.398849,631.910141 1270.286255C598.022736 1304.173660,578.980713 1350.132599,578.980713 1398.060257C578.980713 1445.987915,598.022736 1491.946854,631.910141 1525.834259C665.797546 1559.721664,711.756485 1578.763687,759.684143 1578.763687C807.611801 1578.763687,853.570740 1559.721664,887.458145 1525.834259C921.345551 1491.946854,940.387573 1445.987915,940.387573 1398.060257Z" style="stroke:rgb(25.500488%,41.000366%,88.400269%); stroke-width: 2.500000;stroke-linecap: round;stroke-linejoin: round;stroke-miterlimit: 10.000000;fill: none;"></path>
  <path d="M1186.671585 1289.152908C1186.671585 1241.225250,1167.629562 1195.266312,1133.742157 1161.378906C1099.854752 1127.491501,1053.895813 1108.449478,1005.968155 1108.449478C958.040497 1108.449478,912.081558 1127.491501,878.194153 1161.378906C844.306747 1195.266312,825.264725 1241.225250,825.264725 1289.152908C825.264725 1337.080566,844.306747 1383.039505,878.194153 1416.926910C912.081558 1450.814316,958.040497 1469.856339,1005.968155 1469.856339C1053.895813 1469.856339,1099.854752 1450.814316,1133.742157 1416.926910C1167.629562 1383.039505,1186.671585 1337.080566,1186.671585 1289.152908Z" style="stroke:rgb(25.500488%,41.000366%,88.400269%); stroke-width: 2.500000;stroke-linecap: round;stroke-linejoin: round;stroke-miterlimit: 10.000000;fill: none;"></path>
  <path d="M1297.421539 969.308090C1297.421539 921.380432,1278.379517 875.421494,1244.492111 841.534088C1210.604706 807.646683,1164.645767 788.604660,1116.718109 788.604660C1068.790451 788.604660,1022.831512 807.646683,988.944107 841.534088C955.056702 875.421494,936.014679 921.380432,936.014679 969.308090C936.014679 1017.235748,955.056702 1063.194687,988.944107 1097.082092C1022.831512 1130.969498,1068.790451 1150.011520,1116.718109 1150.011520C1164.645767 1150.011520,1210.604706 1130.969498,1244.492111 1097.082092C1278.379517 1063.194687,1297.421539 1017.235748,1297.421539 969.308090Z" style="stroke:rgb(25.500488%,41.000366%,88.400269%); stroke-width: 2.500000;stroke-linecap: round;stroke-linejoin: round;stroke-miterlimit: 10.000000;fill: none;"></path>
  <path d="M1608.001511 939.100006C1608.001511 891.172348,1588.959488 845.213409,1555.072083 811.326004C1521.184677 777.438599,1475.225739 758.396576,1427.298080 758.396576C1379.370422 758.396576,1333.411484 777.438599,1299.524078 811.326004C1265.636673 845.213409,1246.594650 891.172348,1246.594650 939.100006C1246.594650 987.027664,1265.636673 1032.986603,1299.524078 1066.874008C1333.411484 1100.761414,1379.370422 1119.803436,1427.298080 1119.803436C1475.225739 1119.803436,1521.184677 1100.761414,1555.072083 1066.874008C1588.959488 1032.986603,1608.001511 987.027664,1608.001511 939.100006Z" style="stroke:rgb(25.500488%,41.000366%,88.400269%); stroke-width: 2.500000;stroke-linecap: round;stroke-linejoin: round;stroke-miterlimit: 10.000000;fill: none;"></path>
  <path d="M1751.386032 646.297134C1751.386032 598.369476,1732.344009 552.410538,1698.456604 518.523132C1664.569199 484.635727,1618.610260 465.593704,1570.682602 465.593704C1522.754944 465.593704,1476.796005 484.635727,1442.908600 518.523132C1409.021194 552.410538,1389.979172 598.369476,1389.979172 646.297134C1389.979172 694.224792,1409.021194 740.183731,1442.908600 774.071136C1476.796005 807.958542,1522.754944 827.000565,1570.682602 827.000565C1618.610260 827.000565,1664.569199 807.958542,1698.456604 774.071136C1732.344009 740.183731,1751.386032 694.224792,1751.386032 646.297134Z" style="stroke:rgb(25.500488%,41.000366%,88.400269%); stroke-width: 2.500000;stroke-linecap: round;stroke-linejoin: round;stroke-miterlimit: 10.000000;fill: none;"></path>
  <path d="M622.112854 1353.358032C622.112854 1305.430374,603.070831 1259.471436,569.183426 1225.584030C535.296021 1191.696625,489.337082 1172.654602,441.409424 1172.654602C393.481766 1172.654602,347.522827 1191.696625,313.635422 1225.584030C279.748016 1259.471436,260.705994 1305.430374,260.705994 1353.358032C260.705994 1401.285690,279.748016 1447.244629,313.635422 1481.132034C347.522827 1515.019440,393.481766 1534.061462,441.409424 1534.061462C489.337082 1534.061462,535.296021 1515.019440,569.183426 1481.132034C603.070831 1447.244629,622.112854 1401.285690,622.112854 1353.358032Z" style="stroke:rgb(25.500488%,41.000366%,88.400269%); stroke-width: 2.500000;stroke-linecap: round;stroke-linejoin: round;stroke-miterlimit: 10.000000;fill: none;"></path>
  <path d="M852.099045 1167.671814C852.099045 1119.744156,833.057022 1073.785217,799.169617 1039.897812C765.282211 1006.010406,719.323273 986.968384,671.395615 986.968384C623.467957 986.968384,577.509018 1006.010406,543.621613 1039.897812C509.734207 1073.785217,490.692184 1119.744156,490.692184 1167.671814C490.692184 1215.599472,509.734207 1261.558411,543.621613 1295.445816C577.509018 1329.333221,623.467957 1348.375244,671.395615 1348.375244C719.323273 1348.375244,765.282211 1329.333221,799.169617 1295.445816C833.057022 1261.558411,852.099045 1215.599472,852.099045 1167.671814Z" style="stroke:rgb(25.500488%,41.000366%,88.400269%); stroke-width: 2.500000;stroke-linecap: round;stroke-linejoin: round;stroke-miterlimit: 10.000000;fill: none;"></path>
  <path d="M1025.587830 1018.305374C1025.587830 970.377716,1006.545807 924.418777,972.658401 890.531372C938.770996 856.643967,892.812057 837.601944,844.884399 837.601944C796.956741 837.601944,750.997803 856.643967,717.110397 890.531372C683.222992 924.418777,664.180969 970.377716,664.180969 1018.305374C664.180969 1066.233032,683.222992 1112.191971,717.110397 1146.079376C750.997803 1179.966782,796.956741 1199.008804,844.884399 1199.008804C892.812057 1199.008804,938.770996 1179.966782,972.658401 1146.079376C1006.545807 1112.191971,1025.587830 1066.233032,1025.587830 1018.305374Z" style="stroke:rgb(25.500488%,41.000366%,88.400269%); stroke-width: 2.500000;stroke-linecap: round;stroke-linejoin: round;stroke-miterlimit: 10.000000;fill: none;"></path>
  <path d="M1442.596756 689.416290C1442.596756 641.488632,1423.554733 595.529694,1389.667328 561.642288C1355.779922 527.754883,1309.820984 508.712860,1261.893326 508.712860C1213.965668 508.712860,1168.006729 527.754883,1134.119324 561.642288C1100.231918 595.529694,1081.189896 641.488632,1081.189896 689.416290C1081.189896 737.343948,1100.231918 783.302887,1134.119324 817.190292C1168.006729 851.077698,1213.965668 870.119720,1261.893326 870.119720C1309.820984 870.119720,1355.779922 851.077698,1389.667328 817.190292C1423.554733 783.302887,1442.596756 737.343948,1442.596756 689.416290Z" style="stroke:rgb(25.500488%,41.000366%,88.400269%); stroke-width: 2.500000;stroke-linecap: round;stroke-linejoin: round;stroke-miterlimit: 10.000000;fill: none;"></path>
  <path d="M1623.780304 400.973343C1623.780304 353.045685,1604.738281 307.086746,1570.850876 273.199341C1536.963470 239.311935,1491.004532 220.269913,1443.076874 220.269913C1395.149216 220.269913,1349.190277 239.311935,1315.302872 273.199341C1281.415466 307.086746,1262.373444 353.045685,1262.373444 400.973343C1262.373444 448.901001,1281.415466 494.859940,1315.302872 528.747345C1349.190277 562.634750,1395.149216 581.676773,1443.076874 581.676773C1491.004532 581.676773,1536.963470 562.634750,1570.850876 528.747345C1604.738281 494.859940,1623.780304 448.901001,1623.780304 400.973343Z" style="stroke:rgb(25.500488%,41.000366%,88.400269%); stroke-width: 2.500000;stroke-linecap: round;stroke-linejoin: round;stroke-miterlimit: 10.000000;fill: none;"></path>
  <path d="M422.230927 1201.097931C422.230927 1153.170273,403.188904 1107.211334,369.301498 1073.323929C335.414093 1039.436523,289.455154 1020.394501,241.527496 1020.394501C193.599838 1020.394501,147.640900 1039.436523,113.753494 1073.323929C79.866089 1107.211334,60.824066 1153.170273,60.824066 1201.097931C60.824066 1249.025589,79.866089 1294.984528,113.753494 1328.871933C147.640900 1362.759338,193.599838 1381.801361,241.527496 1381.801361C289.455154 1381.801361,335.414093 1362.759338,369.301498 1328.871933C403.188904 1294.984528,422.230927 1249.025589,422.230927 1201.097931Z" style="stroke:rgb(25.500488%,41.000366%,88.400269%); stroke-width: 2.500000;stroke-linecap: round;stroke-linejoin: round;stroke-miterlimit: 10.000000;fill: none;"></path>
  <path d="M632.376846 1003.227280C632.376846 955.299622,613.334824 909.340683,579.447418 875.453278C545.560013 841.565872,499.601074 822.523849,451.673416 822.523849C403.745758 822.523849,357.786819 841.565872,323.899414 875.453278C290.012009 909.340683,270.969986 955.299622,270.969986 1003.227280C270.969986 1051.154938,290.012009 1097.113876,323.899414 1131.001282C357.786819 1164.888687,403.745758 1183.930710,451.673416 1183.930710C499.601074 1183.930710,545.560013 1164.888687,579.447418 1131.001282C613.334824 1097.113876,632.376846 1051.154938,632.376846 1003.227280Z" style="stroke:rgb(25.500488%,41.000366%,88.400269%); stroke-width: 2.500000;stroke-linecap: round;stroke-linejoin: round;stroke-miterlimit: 10.000000;fill: none;"></path>
  <path d="M795.419983 814.011612C795.419983 766.083954,776.377960 720.125015,742.490555 686.237610C708.603149 652.350204,662.644211 633.308182,614.716553 633.308182C566.788895 633.308182,520.829956 652.350204,486.942551 686.237610C453.055145 720.125015,434.013123 766.083954,434.013123 814.011612C434.013123 861.939270,453.055145 907.898209,486.942551 941.785614C520.829956 975.673019,566.788895 994.715042,614.716553 994.715042C662.644211 994.715042,708.603149 975.673019,742.490555 941.785614C776.377960 907.898209,795.419983 861.939270,795.419983 814.011612Z" style="stroke:rgb(25.500488%,41.000366%,88.400269%); stroke-width: 2.500000;stroke-linecap: round;stroke-linejoin: round;stroke-miterlimit: 10.000000;fill: none;"></path>
  <path d="M1118.327133 737.349548C1118.327133 689.421890,1099.285110 643.462952,1065.397705 609.575546C1031.510300 575.688141,985.551361 556.646118,937.623703 556.646118C889.696045 556.646118,843.737106 575.688141,809.849701 609.575546C775.962296 643.462952,756.920273 689.421890,756.920273 737.349548C756.920273 785.277206,775.962296 831.236145,809.849701 865.123550C843.737106 899.010956,889.696045 918.052979,937.623703 918.052979C985.551361 918.052979,1031.510300 899.010956,1065.397705 865.123550C1099.285110 831.236145,1118.327133 785.277206,1118.327133 737.349548Z" style="stroke:rgb(25.500488%,41.000366%,88.400269%); stroke-width: 2.500000;stroke-linecap: round;stroke-linejoin: round;stroke-miterlimit: 10.000000;fill: none;"></path>
  <path d="M1308.762543 461.726852C1308.762543 413.799194,1289.720520 367.840256,1255.833115 333.952850C1221.945709 300.065445,1175.986771 281.023422,1128.059113 281.023422C1080.131454 281.023422,1034.172516 300.065445,1000.285110 333.952850C966.397705 367.840256,947.355682 413.799194,947.355682 461.726852C947.355682 509.654510,966.397705 555.613449,1000.285110 589.500854C1034.172516 623.388260,1080.131454 642.430283,1128.059113 642.430283C1175.986771 642.430283,1221.945709 623.388260,1255.833115 589.500854C1289.720520 555.613449,1308.762543 509.654510,1308.762543 461.726852Z" style="stroke:rgb(25.500488%,41.000366%,88.400269%); stroke-width: 2.500000;stroke-linecap: round;stroke-linejoin: round;stroke-miterlimit: 10.000000;fill: none;"></path>
  <path d="M1406.328903 219.140991C1406.328903 171.213333,1387.286880 125.254395,1353.399475 91.366989C1319.512070 57.479584,1273.553131 38.437561,1225.625473 38.437561C1177.697815 38.437561,1131.738876 57.479584,1097.851471 91.366989C1063.964066 125.254395,1044.922043 171.213333,1044.922043 219.140991C1044.922043 267.068649,1063.964066 313.027588,1097.851471 346.914993C1131.738876 380.802399,1177.697815 399.844421,1225.625473 399.844421C1273.553131 399.844421,1319.512070 380.802399,1353.399475 346.914993C1387.286880 313.027588,1406.328903 267.068649,1406.328903 219.140991Z" style="stroke:rgb(25.500488%,41.000366%,88.400269%); stroke-width: 2.500000;stroke-linecap: round;stroke-linejoin: round;stroke-miterlimit: 10.000000;fill: none;"></path>
  <path d="M362.554413 866.395630C362.554413 818.467972,343.512390 772.509033,309.624985 738.621628C275.737579 704.734222,229.778641 685.692200,181.850983 685.692200C133.923325 685.692200,87.964386 704.734222,54.076981 738.621628C20.189575 772.509033,1.147552 818.467972,1.147552 866.395630C1.147552 914.323288,20.189575 960.282227,54.076981 994.169632C87.964386 1028.057037,133.923325 1047.099060,181.850983 1047.099060C229.778641 1047.099060,275.737579 1028.057037,309.624985 994.169632C343.512390 960.282227,362.554413 914.323288,362.554413 866.395630Z" style="stroke:rgb(25.500488%,41.000366%,88.400269%); stroke-width: 2.500000;stroke-linecap: round;stroke-linejoin: round;stroke-miterlimit: 10.000000;fill: none;"></path>
  <path d="M499.515839 684.303757C499.515839 636.376099,480.473816 590.417160,446.586411 556.529755C412.699005 522.642349,366.740067 503.600327,318.812408 503.600327C270.884750 503.600327,224.925812 522.642349,191.038406 556.529755C157.151001 590.417160,138.108978 636.376099,138.108978 684.303757C138.108978 732.231415,157.151001 778.190353,191.038406 812.077759C224.925812 845.965164,270.884750 865.007187,318.812408 865.007187C366.740067 865.007187,412.699005 845.965164,446.586411 812.077759C480.473816 778.190353,499.515839 732.231415,499.515839 684.303757Z" style="stroke:rgb(25.500488%,41.000366%,88.400269%); stroke-width: 2.500000;stroke-linecap: round;stroke-linejoin: round;stroke-miterlimit: 10.000000;fill: none;"></path>
  <path d="M820.813965 570.530411C820.813965 522.602753,801.771942 476.643814,767.884537 442.756409C733.997131 408.869003,688.038193 389.826981,640.110535 389.826981C592.182877 389.826981,546.223938 408.869003,512.336533 442.756409C478.449127 476.643814,459.407104 522.602753,459.407104 570.530411C459.407104 618.458069,478.449127 664.417007,512.336533 698.304413C546.223938 732.191818,592.182877 751.233841,640.110535 751.233841C688.038193 751.233841,733.997131 732.191818,767.884537 698.304413C801.771942 664.417007,820.813965 618.458069,820.813965 570.530411Z" style="stroke:rgb(25.500488%,41.000366%,88.400269%); stroke-width: 2.500000;stroke-linecap: round;stroke-linejoin: round;stroke-miterlimit: 10.000000;fill: none;"></path>
  <path d="M1033.477219 447.518158C1033.477219 399.590500,1014.435196 353.631561,980.547791 319.744156C946.660385 285.856750,900.701447 266.814728,852.773788 266.814728C804.846130 266.814728,758.887192 285.856750,724.999786 319.744156C691.112381 353.631561,672.070358 399.590500,672.070358 447.518158C672.070358 495.445816,691.112381 541.404755,724.999786 575.292160C758.887192 609.179565,804.846130 628.221588,852.773788 628.221588C900.701447 628.221588,946.660385 609.179565,980.547791 575.292160C1014.435196 541.404755,1033.477219 495.445816,1033.477219 447.518158Z" style="stroke:rgb(25.500488%,41.000366%,88.400269%); stroke-width: 2.500000;stroke-linecap: round;stroke-linejoin: round;stroke-miterlimit: 10.000000;fill: none;"></path>
  <path d="M1100.264572 181.510666C1100.264572 133.583008,1081.222549 87.624069,1047.335144 53.736664C1013.447739 19.849258,967.488800 0.807236,919.561142 0.807236C871.633484 0.807236,825.674545 19.849258,791.787140 53.736664C757.899734 87.624069,738.857712 133.583008,738.857712 181.510666C738.857712 229.438324,757.899734 275.397263,791.787140 309.284668C825.674545 343.172073,871.633484 362.214096,919.561142 362.214096C967.488800 362.214096,1013.447739 343.172073,1047.335144 309.284668C1081.222549 275.397263,1100.264572 229.438324,1100.264572 181.510666Z" style="stroke:rgb(25.500488%,41.000366%,88.400269%); stroke-width: 2.500000;stroke-linecap: round;stroke-linejoin: round;stroke-miterlimit: 10.000000;fill: none;"></path>
  <path d="M555.675858 411.016739C555.675858 363.089081,536.633835 317.130142,502.746429 283.242737C468.859024 249.355331,422.900085 230.313309,374.972427 230.313309C327.044769 230.313309,281.085831 249.355331,247.198425 283.242737C213.311020 317.130142,194.268997 363.089081,194.268997 411.016739C194.268997 458.944397,213.311020 504.903336,247.198425 538.790741C281.085831 572.678146,327.044769 591.720169,374.972427 591.720169C422.900085 591.720169,468.859024 572.678146,502.746429 538.790741C536.633835 504.903336,555.675858 458.944397,555.675858 411.016739Z" style="stroke:rgb(25.500488%,41.000366%,88.400269%); stroke-width: 2.500000;stroke-linecap: round;stroke-linejoin: round;stroke-miterlimit: 10.000000;fill: none;"></path>
  <path d="M790.865417 238.462219C790.865417 190.534561,771.823395 144.575623,737.935989 110.688217C704.048584 76.800812,658.089645 57.758789,610.161987 57.758789C562.234329 57.758789,516.275391 76.800812,482.387985 110.688217C448.500580 144.575623,429.458557 190.534561,429.458557 238.462219C429.458557 286.389877,448.500580 332.348816,482.387985 366.236221C516.275391 400.123627,562.234329 419.165649,610.161987 419.165649C658.089645 419.165649,704.048584 400.123627,737.935989 366.236221C771.823395 332.348816,790.865417 286.389877,790.865417 238.462219Z" style="stroke:rgb(25.500488%,41.000366%,88.400269%); stroke-width: 2.500000;stroke-linecap: round;stroke-linejoin: round;stroke-miterlimit: 10.000000;fill: none;"></path>
</svg>
