<?xml version="1.0"?>
<!-- Created by MetaPost 2.00 on 2022.03.02:1201 -->
<svg version="1.1" xmlns="http://www.w3.org/2000/svg" xmlns:xlink="http://www.w3.org/1999/xlink" width="1808.029129" height="1880.162582" viewBox="0 0 1808.029129 1880.162582">
<!-- Original BoundingBox: -890.156219 -943.383682 917.872910 936.778900 -->
  <path d="M1740.393524 936.000000L1626.464462 510.803238L1315.196762 199.535538L890.000000 85.606476L464.803238 199.535538L153.535538 510.803238L39.606476 936.000000L153.535538 1361.196762L464.803238 1672.464462L890.000000 1786.393524L1315.196762 1672.464462L1626.464462 1361.196762L1740.393524 936.000000Z" style="fill: rgb(100.000000%,100.000000%,100.000000%);stroke: none;"></path>
  <path d="M1740.393524 936.000000L1626.464462 510.803238" style="stroke:rgb(0.000000%,0.000000%,0.000000%); stroke-width: 2.500000;stroke-linecap: round;stroke-linejoin: round;stroke-miterlimit: 10.000000;fill: none;"></path>
  <path d="M1626.464462 510.803238L1315.196762 199.535538" style="stroke:rgb(0.000000%,0.000000%,0.000000%); stroke-width: 2.500000;stroke-linecap: round;stroke-linejoin: round;stroke-miterlimit: 10.000000;fill: none;"></path>
  <path d="M1315.196762 199.535538L890.000000 85.606476" style="stroke:rgb(0.000000%,0.000000%,0.000000%); stroke-width: 2.500000;stroke-linecap: round;stroke-linejoin: round;stroke-miterlimit: 10.000000;fill: none;"></path>
  <path d="M890.000000 85.606476L464.803238 199.535538" style="stroke:rgb(0.000000%,0.000000%,0.000000%); stroke-width: 2.500000;stroke-linecap: round;stroke-linejoin: round;stroke-miterlimit: 10.000000;fill: none;"></path>
  <path d="M464.803238 199.535538L153.535538 510.803238" style="stroke:rgb(0.000000%,0.000000%,0.000000%); stroke-width: 2.500000;stroke-linecap: round;stroke-linejoin: round;stroke-miterlimit: 10.000000;fill: none;"></path>
  <path d="M153.535538 510.803238L39.606476 936.000000" style="stroke:rgb(0.000000%,0.000000%,0.000000%); stroke-width: 2.500000;stroke-linecap: round;stroke-linejoin: round;stroke-miterlimit: 10.000000;fill: none;"></path>
  <path d="M39.606476 936.000000L153.535538 1361.196762" style="stroke:rgb(0.000000%,0.000000%,0.000000%); stroke-width: 2.500000;stroke-linecap: round;stroke-linejoin: round;stroke-miterlimit: 10.000000;fill: none;"></path>
  <path d="M153.535538 1361.196762L464.803238 1672.464462" style="stroke:rgb(0.000000%,0.000000%,0.000000%); stroke-width: 2.500000;stroke-linecap: round;stroke-linejoin: round;stroke-miterlimit: 10.000000;fill: none;"></path>
  <path d="M464.803238 1672.464462L890.000000 1786.393524" style="stroke:rgb(0.000000%,0.000000%,0.000000%); stroke-width: 2.500000;stroke-linecap: round;stroke-linejoin: round;stroke-miterlimit: 10.000000;fill: none;"></path>
  <path d="M890.000000 1786.393524L1315.196762 1672.464462" style="stroke:rgb(0.000000%,0.000000%,0.000000%); stroke-width: 2.500000;stroke-linecap: round;stroke-linejoin: round;stroke-miterlimit: 10.000000;fill: none;"></path>
  <path d="M1315.196762 1672.464462L1626.464462 1361.196762" style="stroke:rgb(0.000000%,0.000000%,0.000000%); stroke-width: 2.500000;stroke-linecap: round;stroke-linejoin: round;stroke-miterlimit: 10.000000;fill: none;"></path>
  <path d="M1626.464462 1361.196762L1740.393524 936.000000" style="stroke:rgb(0.000000%,0.000000%,0.000000%); stroke-width: 2.500000;stroke-linecap: round;stroke-linejoin: round;stroke-miterlimit: 10.000000;fill: none;"></path>
  <path d="M1796.994736 1083.848267C1796.994736 1047.050720,1782.374802 1011.764709,1756.356979 985.746887C1730.339157 959.729065,1695.053146 945.109131,1658.255600 945.109131C1621.458054 945.109131,1586.172043 959.729065,1560.154221 985.746887C1534.136398 1011.764709,1519.516464 1047.050720,1519.516464 1083.848267C1519.516464 1120.645813,1534.136398 1155.931824,1560.154221 1181.949646C1586.172043 1207.967468,1621.458054 1222.587402,1658.255600 1222.587402C1695.053146 1222.587402,1730.339157 1207.967468,1756.356979 1181.949646C1782.374802 1155.931824,1796.994736 1120.645813,1796.994736 1083.848267Z" style="stroke:rgb(25.500488%,41.000366%,88.400269%); stroke-width: 2.500000;stroke-linecap: round;stroke-linejoin: round;stroke-miterlimit: 10.000000;fill: none;"></path>
  <path d="M1806.622910 852.395798C1806.622910 815.598251,1792.002975 780.312241,1765.985153 754.294418C1739.967331 728.276596,1704.681320 713.656662,1667.883774 713.656662C1631.086227 713.656662,1595.800217 728.276596,1569.782394 754.294418C1543.764572 780.312241,1529.144638 815.598251,1529.144638 852.395798C1529.144638 889.193344,1543.764572 924.479355,1569.782394 950.497177C1595.800217 976.514999,1631.086227 991.134933,1667.883774 991.134933C1704.681320 991.134933,1739.967331 976.514999,1765.985153 950.497177C1792.002975 924.479355,1806.622910 889.193344,1806.622910 852.395798Z" style="stroke:rgb(25.500488%,41.000366%,88.400269%); stroke-width: 2.500000;stroke-linecap: round;stroke-linejoin: round;stroke-miterlimit: 10.000000;fill: none;"></path>
  <path d="M1664.094803 1417.784988C1664.094803 1380.987442,1649.474869 1345.701431,1623.457047 1319.683609C1597.439224 1293.665787,1562.153214 1279.045853,1525.355667 1279.045853C1488.558121 1279.045853,1453.272110 1293.665787,1427.254288 1319.683609C1401.236465 1345.701431,1386.616531 1380.987442,1386.616531 1417.784988C1386.616531 1454.582535,1401.236465 1489.868546,1427.254288 1515.886368C1453.272110 1541.904190,1488.558121 1556.524124,1525.355667 1556.524124C1562.153214 1556.524124,1597.439224 1541.904190,1623.457047 1515.886368C1649.474869 1489.868546,1664.094803 1454.582535,1664.094803 1417.784988Z" style="stroke:rgb(25.500488%,41.000366%,88.400269%); stroke-width: 2.500000;stroke-linecap: round;stroke-linejoin: round;stroke-miterlimit: 10.000000;fill: none;"></path>
  <path d="M1674.099274 1234.629105C1674.099274 1197.831558,1659.479340 1162.545547,1633.461517 1136.527725C1607.443695 1110.509903,1572.157684 1095.889969,1535.360138 1095.889969C1498.562592 1095.889969,1463.276581 1110.509903,1437.258759 1136.527725C1411.240936 1162.545547,1396.621002 1197.831558,1396.621002 1234.629105C1396.621002 1271.426651,1411.240936 1306.712662,1437.258759 1332.730484C1463.276581 1358.748306,1498.562592 1373.368240,1535.360138 1373.368240C1572.157684 1373.368240,1607.443695 1358.748306,1633.461517 1332.730484C1659.479340 1306.712662,1674.099274 1271.426651,1674.099274 1234.629105Z" style="stroke:rgb(25.500488%,41.000366%,88.400269%); stroke-width: 2.500000;stroke-linecap: round;stroke-linejoin: round;stroke-miterlimit: 10.000000;fill: none;"></path>
  <path d="M1614.111343 973.163193C1614.111343 936.365646,1599.491409 901.079636,1573.473587 875.061813C1547.455765 849.043991,1512.169754 834.424057,1475.372208 834.424057C1438.574661 834.424057,1403.288651 849.043991,1377.270828 875.061813C1351.253006 901.079636,1336.633072 936.365646,1336.633072 973.163193C1336.633072 1009.960739,1351.253006 1045.246750,1377.270828 1071.264572C1403.288651 1097.282394,1438.574661 1111.902328,1475.372208 1111.902328C1512.169754 1111.902328,1547.455765 1097.282394,1573.473587 1071.264572C1599.491409 1045.246750,1614.111343 1009.960739,1614.111343 973.163193Z" style="stroke:rgb(25.500488%,41.000366%,88.400269%); stroke-width: 2.500000;stroke-linecap: round;stroke-linejoin: round;stroke-miterlimit: 10.000000;fill: none;"></path>
  <path d="M1690.981018 716.083176C1690.981018 679.285629,1676.361084 643.999619,1650.343262 617.981796C1624.325439 591.963974,1589.039429 577.344040,1552.241882 577.344040C1515.444336 577.344040,1480.158325 591.963974,1454.140503 617.981796C1428.122681 643.999619,1413.502747 679.285629,1413.502747 716.083176C1413.502747 752.880722,1428.122681 788.166733,1454.140503 814.184555C1480.158325 840.202377,1515.444336 854.822311,1552.241882 854.822311C1589.039429 854.822311,1624.325439 840.202377,1650.343262 814.184555C1676.361084 788.166733,1690.981018 752.880722,1690.981018 716.083176Z" style="stroke:rgb(25.500488%,41.000366%,88.400269%); stroke-width: 2.500000;stroke-linecap: round;stroke-linejoin: round;stroke-miterlimit: 10.000000;fill: none;"></path>
  <path d="M1702.737244 522.416733C1702.737244 485.619186,1688.117310 450.333176,1662.099487 424.315353C1636.081665 398.297531,1600.795654 383.677597,1563.998108 383.677597C1527.200562 383.677597,1491.914551 398.297531,1465.896729 424.315353C1439.878906 450.333176,1425.258972 485.619186,1425.258972 522.416733C1425.258972 559.214279,1439.878906 594.500290,1465.896729 620.518112C1491.914551 646.535934,1527.200562 661.155869,1563.998108 661.155869C1600.795654 661.155869,1636.081665 646.535934,1662.099487 620.518112C1688.117310 594.500290,1702.737244 559.214279,1702.737244 522.416733Z" style="stroke:rgb(25.500488%,41.000366%,88.400269%); stroke-width: 2.500000;stroke-linecap: round;stroke-linejoin: round;stroke-miterlimit: 10.000000;fill: none;"></path>
  <path d="M1455.168610 1564.711960C1455.168610 1527.914413,1440.548676 1492.628403,1414.530853 1466.610580C1388.513031 1440.592758,1353.227020 1425.972824,1316.429474 1425.972824C1279.631927 1425.972824,1244.345917 1440.592758,1218.328094 1466.610580C1192.310272 1492.628403,1177.690338 1527.914413,1177.690338 1564.711960C1177.690338 1601.509506,1192.310272 1636.795517,1218.328094 1662.813339C1244.345917 1688.831161,1279.631927 1703.451096,1316.429474 1703.451096C1353.227020 1703.451096,1388.513031 1688.831161,1414.530853 1662.813339C1440.548676 1636.795517,1455.168610 1601.509506,1455.168610 1564.711960Z" style="stroke:rgb(25.500488%,41.000366%,88.400269%); stroke-width: 2.500000;stroke-linecap: round;stroke-linejoin: round;stroke-miterlimit: 10.000000;fill: none;"></path>
  <path d="M1454.428986 1329.574310C1454.428986 1292.776764,1439.809052 1257.490753,1413.791229 1231.472931C1387.773407 1205.455109,1352.487396 1190.835175,1315.689850 1190.835175C1278.892303 1190.835175,1243.606293 1205.455109,1217.588470 1231.472931C1191.570648 1257.490753,1176.950714 1292.776764,1176.950714 1329.574310C1176.950714 1366.371857,1191.570648 1401.657867,1217.588470 1427.675690C1243.606293 1453.693512,1278.892303 1468.313446,1315.689850 1468.313446C1352.487396 1468.313446,1387.773407 1453.693512,1413.791229 1427.675690C1439.809052 1401.657867,1454.428986 1366.371857,1454.428986 1329.574310Z" style="stroke:rgb(25.500488%,41.000366%,88.400269%); stroke-width: 2.500000;stroke-linecap: round;stroke-linejoin: round;stroke-miterlimit: 10.000000;fill: none;"></path>
  <path d="M1471.829773 1094.851898C1471.829773 1058.054352,1457.209839 1022.768341,1431.192017 996.750519C1405.174194 970.732697,1369.888184 956.112762,1333.090637 956.112762C1296.293091 956.112762,1261.007080 970.732697,1234.989258 996.750519C1208.971436 1022.768341,1194.351501 1058.054352,1194.351501 1094.851898C1194.351501 1131.649445,1208.971436 1166.935455,1234.989258 1192.953278C1261.007080 1218.971100,1296.293091 1233.591034,1333.090637 1233.591034C1369.888184 1233.591034,1405.174194 1218.971100,1431.192017 1192.953278C1457.209839 1166.935455,1471.829773 1131.649445,1471.829773 1094.851898Z" style="stroke:rgb(25.500488%,41.000366%,88.400269%); stroke-width: 2.500000;stroke-linecap: round;stroke-linejoin: round;stroke-miterlimit: 10.000000;fill: none;"></path>
  <path d="M1479.952728 835.358337C1479.952728 798.560791,1465.332794 763.274780,1439.314972 737.256958C1413.297150 711.239136,1378.011139 696.619202,1341.213593 696.619202C1304.416046 696.619202,1269.130035 711.239136,1243.112213 737.256958C1217.094391 763.274780,1202.474457 798.560791,1202.474457 835.358337C1202.474457 872.155884,1217.094391 907.441895,1243.112213 933.459717C1269.130035 959.477539,1304.416046 974.097473,1341.213593 974.097473C1378.011139 974.097473,1413.297150 959.477539,1439.314972 933.459717C1465.332794 907.441895,1479.952728 872.155884,1479.952728 835.358337Z" style="stroke:rgb(25.500488%,41.000366%,88.400269%); stroke-width: 2.500000;stroke-linecap: round;stroke-linejoin: round;stroke-miterlimit: 10.000000;fill: none;"></path>
  <path d="M1482.833389 596.833954C1482.833389 560.036407,1468.213455 524.750397,1442.195633 498.732574C1416.177811 472.714752,1380.891800 458.094818,1344.094254 458.094818C1307.296707 458.094818,1272.010696 472.714752,1245.992874 498.732574C1219.975052 524.750397,1205.355118 560.036407,1205.355118 596.833954C1205.355118 633.631500,1219.975052 668.917511,1245.992874 694.935333C1272.010696 720.953156,1307.296707 735.573090,1344.094254 735.573090C1380.891800 735.573090,1416.177811 720.953156,1442.195633 694.935333C1468.213455 668.917511,1482.833389 633.631500,1482.833389 596.833954Z" style="stroke:rgb(25.500488%,41.000366%,88.400269%); stroke-width: 2.500000;stroke-linecap: round;stroke-linejoin: round;stroke-miterlimit: 10.000000;fill: none;"></path>
  <path d="M1514.611557 359.762878C1514.611557 322.965332,1499.991623 287.679321,1473.973801 261.661499C1447.955978 235.643677,1412.669968 221.023743,1375.872421 221.023743C1339.074875 221.023743,1303.788864 235.643677,1277.771042 261.661499C1251.753220 287.679321,1237.133286 322.965332,1237.133286 359.762878C1237.133286 396.560425,1251.753220 431.846436,1277.771042 457.864258C1303.788864 483.882080,1339.074875 498.502014,1375.872421 498.502014C1412.669968 498.502014,1447.955978 483.882080,1473.973801 457.864258C1499.991623 431.846436,1514.611557 396.560425,1514.611557 359.762878Z" style="stroke:rgb(25.500488%,41.000366%,88.400269%); stroke-width: 2.500000;stroke-linecap: round;stroke-linejoin: round;stroke-miterlimit: 10.000000;fill: none;"></path>
  <path d="M1260.464111 1647.887970C1260.464111 1611.090424,1245.844177 1575.804413,1219.826355 1549.786591C1193.808533 1523.768768,1158.522522 1509.148834,1121.724976 1509.148834C1084.927429 1509.148834,1049.641418 1523.768768,1023.623596 1549.786591C997.605774 1575.804413,982.985840 1611.090424,982.985840 1647.887970C982.985840 1684.685516,997.605774 1719.971527,1023.623596 1745.989349C1049.641418 1772.007172,1084.927429 1786.627106,1121.724976 1786.627106C1158.522522 1786.627106,1193.808533 1772.007172,1219.826355 1745.989349C1245.844177 1719.971527,1260.464111 1684.685516,1260.464111 1647.887970Z" style="stroke:rgb(25.500488%,41.000366%,88.400269%); stroke-width: 2.500000;stroke-linecap: round;stroke-linejoin: round;stroke-miterlimit: 10.000000;fill: none;"></path>
  <path d="M1243.180099 1432.603561C1243.180099 1395.806015,1228.560165 1360.520004,1202.542343 1334.502182C1176.524521 1308.484360,1141.238510 1293.864426,1104.440964 1293.864426C1067.643417 1293.864426,1032.357407 1308.484360,1006.339584 1334.502182C980.321762 1360.520004,965.701828 1395.806015,965.701828 1432.603561C965.701828 1469.401108,980.321762 1504.687119,1006.339584 1530.704941C1032.357407 1556.722763,1067.643417 1571.342697,1104.440964 1571.342697C1141.238510 1571.342697,1176.524521 1556.722763,1202.542343 1530.704941C1228.560165 1504.687119,1243.180099 1469.401108,1243.180099 1432.603561Z" style="stroke:rgb(25.500488%,41.000366%,88.400269%); stroke-width: 2.500000;stroke-linecap: round;stroke-linejoin: round;stroke-miterlimit: 10.000000;fill: none;"></path>
  <path d="M1251.653412 1194.572266C1251.653412 1157.774719,1237.033478 1122.488708,1211.015656 1096.470886C1184.997833 1070.453064,1149.711823 1055.833130,1112.914276 1055.833130C1076.116730 1055.833130,1040.830719 1070.453064,1014.812897 1096.470886C988.795074 1122.488708,974.175140 1157.774719,974.175140 1194.572266C974.175140 1231.369812,988.795074 1266.655823,1014.812897 1292.673645C1040.830719 1318.691467,1076.116730 1333.311401,1112.914276 1333.311401C1149.711823 1333.311401,1184.997833 1318.691467,1211.015656 1292.673645C1237.033478 1266.655823,1251.653412 1231.369812,1251.653412 1194.572266Z" style="stroke:rgb(25.500488%,41.000366%,88.400269%); stroke-width: 2.500000;stroke-linecap: round;stroke-linejoin: round;stroke-miterlimit: 10.000000;fill: none;"></path>
  <path d="M1288.725784 951.376526C1288.725784 914.578979,1274.105850 879.292969,1248.088028 853.275146C1222.070206 827.257324,1186.784195 812.637390,1149.986649 812.637390C1113.189102 812.637390,1077.903091 827.257324,1051.885269 853.275146C1025.867447 879.292969,1011.247513 914.578979,1011.247513 951.376526C1011.247513 988.174072,1025.867447 1023.460083,1051.885269 1049.477905C1077.903091 1075.495728,1113.189102 1090.115662,1149.986649 1090.115662C1186.784195 1090.115662,1222.070206 1075.495728,1248.088028 1049.477905C1274.105850 1023.460083,1288.725784 988.174072,1288.725784 951.376526Z" style="stroke:rgb(25.500488%,41.000366%,88.400269%); stroke-width: 2.500000;stroke-linecap: round;stroke-linejoin: round;stroke-miterlimit: 10.000000;fill: none;"></path>
  <path d="M1272.324142 703.055283C1272.324142 666.257736,1257.704208 630.971725,1231.686386 604.953903C1205.668564 578.936081,1170.382553 564.316147,1133.585007 564.316147C1096.787460 564.316147,1061.501450 578.936081,1035.483627 604.953903C1009.465805 630.971725,994.845871 666.257736,994.845871 703.055283C994.845871 739.852829,1009.465805 775.138840,1035.483627 801.156662C1061.501450 827.174484,1096.787460 841.794418,1133.585007 841.794418C1170.382553 841.794418,1205.668564 827.174484,1231.686386 801.156662C1257.704208 775.138840,1272.324142 739.852829,1272.324142 703.055283Z" style="stroke:rgb(25.500488%,41.000366%,88.400269%); stroke-width: 2.500000;stroke-linecap: round;stroke-linejoin: round;stroke-miterlimit: 10.000000;fill: none;"></path>
  <path d="M1290.490509 461.222031C1290.490509 424.424484,1275.870575 389.138474,1249.852753 363.120651C1223.834930 337.102829,1188.548920 322.482895,1151.751373 322.482895C1114.953827 322.482895,1079.667816 337.102829,1053.649994 363.120651C1027.632172 389.138474,1013.012238 424.424484,1013.012238 461.222031C1013.012238 498.019577,1027.632172 533.305588,1053.649994 559.323410C1079.667816 585.341232,1114.953827 599.961166,1151.751373 599.961166C1188.548920 599.961166,1223.834930 585.341232,1249.852753 559.323410C1275.870575 533.305588,1290.490509 498.019577,1290.490509 461.222031Z" style="stroke:rgb(25.500488%,41.000366%,88.400269%); stroke-width: 2.500000;stroke-linecap: round;stroke-linejoin: round;stroke-miterlimit: 10.000000;fill: none;"></path>
  <path d="M1342.394409 244.354553C1342.394409 207.557007,1327.774475 172.270996,1301.756653 146.253174C1275.738831 120.235352,1240.452820 105.615417,1203.655273 105.615417C1166.857727 105.615417,1131.571716 120.235352,1105.553894 146.253174C1079.536072 172.270996,1064.916138 207.557007,1064.916138 244.354553C1064.916138 281.152100,1079.536072 316.438110,1105.553894 342.455933C1131.571716 368.473755,1166.857727 383.093689,1203.655273 383.093689C1240.452820 383.093689,1275.738831 368.473755,1301.756653 342.455933C1327.774475 316.438110,1342.394409 281.152100,1342.394409 244.354553Z" style="stroke:rgb(25.500488%,41.000366%,88.400269%); stroke-width: 2.500000;stroke-linecap: round;stroke-linejoin: round;stroke-miterlimit: 10.000000;fill: none;"></path>
  <path d="M1027.727005 1739.394547C1027.727005 1702.597000,1013.107071 1667.310989,987.089249 1641.293167C961.071426 1615.275345,925.785416 1600.655411,888.987869 1600.655411C852.190323 1600.655411,816.904312 1615.275345,790.886490 1641.293167C764.868668 1667.310989,750.248734 1702.597000,750.248734 1739.394547C750.248734 1776.192093,764.868668 1811.478104,790.886490 1837.495926C816.904312 1863.513748,852.190323 1878.133682,888.987869 1878.133682C925.785416 1878.133682,961.071426 1863.513748,987.089249 1837.495926C1013.107071 1811.478104,1027.727005 1776.192093,1027.727005 1739.394547Z" style="stroke:rgb(25.500488%,41.000366%,88.400269%); stroke-width: 2.500000;stroke-linecap: round;stroke-linejoin: round;stroke-miterlimit: 10.000000;fill: none;"></path>
  <path d="M1026.624054 1537.034210C1026.624054 1500.236664,1012.004120 1464.950653,985.986298 1438.932831C959.968475 1412.915009,924.682465 1398.295074,887.884918 1398.295074C851.087372 1398.295074,815.801361 1412.915009,789.783539 1438.932831C763.765717 1464.950653,749.145782 1500.236664,749.145782 1537.034210C749.145782 1573.831757,763.765717 1609.117767,789.783539 1635.135590C815.801361 1661.153412,851.087372 1675.773346,887.884918 1675.773346C924.682465 1675.773346,959.968475 1661.153412,985.986298 1635.135590C1012.004120 1609.117767,1026.624054 1573.831757,1026.624054 1537.034210Z" style="stroke:rgb(25.500488%,41.000366%,88.400269%); stroke-width: 2.500000;stroke-linecap: round;stroke-linejoin: round;stroke-miterlimit: 10.000000;fill: none;"></path>
  <path d="M1037.900177 1301.040146C1037.900177 1264.242599,1023.280243 1228.956589,997.262421 1202.938766C971.244598 1176.920944,935.958588 1162.301010,899.161041 1162.301010C862.363495 1162.301010,827.077484 1176.920944,801.059662 1202.938766C775.041840 1228.956589,760.421906 1264.242599,760.421906 1301.040146C760.421906 1337.837692,775.041840 1373.123703,801.059662 1399.141525C827.077484 1425.159348,862.363495 1439.779282,899.161041 1439.779282C935.958588 1439.779282,971.244598 1425.159348,997.262421 1399.141525C1023.280243 1373.123703,1037.900177 1337.837692,1037.900177 1301.040146Z" style="stroke:rgb(25.500488%,41.000366%,88.400269%); stroke-width: 2.500000;stroke-linecap: round;stroke-linejoin: round;stroke-miterlimit: 10.000000;fill: none;"></path>
  <path d="M1068.367767 1053.302811C1068.367767 1016.505264,1053.747833 981.219254,1027.730011 955.201431C1001.712189 929.183609,966.426178 914.563675,929.628632 914.563675C892.831085 914.563675,857.545074 929.183609,831.527252 955.201431C805.509430 981.219254,790.889496 1016.505264,790.889496 1053.302811C790.889496 1090.100357,805.509430 1125.386368,831.527252 1151.404190C857.545074 1177.422012,892.831085 1192.041946,929.628632 1192.041946C966.426178 1192.041946,1001.712189 1177.422012,1027.730011 1151.404190C1053.747833 1125.386368,1068.367767 1090.100357,1068.367767 1053.302811Z" style="stroke:rgb(25.500488%,41.000366%,88.400269%); stroke-width: 2.500000;stroke-linecap: round;stroke-linejoin: round;stroke-miterlimit: 10.000000;fill: none;"></path>
  <path d="M1080.928513 821.240479C1080.928513 784.442932,1066.308578 749.156921,1040.290756 723.139099C1014.272934 697.121277,978.986923 682.501343,942.189377 682.501343C905.391830 682.501343,870.105820 697.121277,844.087997 723.139099C818.070175 749.156921,803.450241 784.442932,803.450241 821.240479C803.450241 858.038025,818.070175 893.324036,844.087997 919.341858C870.105820 945.359680,905.391830 959.979614,942.189377 959.979614C978.986923 959.979614,1014.272934 945.359680,1040.290756 919.341858C1066.308578 893.324036,1080.928513 858.038025,1080.928513 821.240479Z" style="stroke:rgb(25.500488%,41.000366%,88.400269%); stroke-width: 2.500000;stroke-linecap: round;stroke-linejoin: round;stroke-miterlimit: 10.000000;fill: none;"></path>
  <path d="M1075.790024 567.080048C1075.790024 530.282501,1061.170090 494.996490,1035.152267 468.978668C1009.134445 442.960846,973.848434 428.340912,937.050888 428.340912C900.253342 428.340912,864.967331 442.960846,838.949509 468.978668C812.931686 494.996490,798.311752 530.282501,798.311752 567.080048C798.311752 603.877594,812.931686 639.163605,838.949509 665.181427C864.967331 691.199249,900.253342 705.819183,937.050888 705.819183C973.848434 705.819183,1009.134445 691.199249,1035.152267 665.181427C1061.170090 639.163605,1075.790024 603.877594,1075.790024 567.080048Z" style="stroke:rgb(25.500488%,41.000366%,88.400269%); stroke-width: 2.500000;stroke-linecap: round;stroke-linejoin: round;stroke-miterlimit: 10.000000;fill: none;"></path>
  <path d="M1097.485855 328.789230C1097.485855 291.991684,1082.865921 256.705673,1056.848099 230.687851C1030.830276 204.670029,995.544266 190.050095,958.746719 190.050095C921.949173 190.050095,886.663162 204.670029,860.645340 230.687851C834.627518 256.705673,820.007584 291.991684,820.007584 328.789230C820.007584 365.586777,834.627518 400.872787,860.645340 426.890610C886.663162 452.908432,921.949173 467.528366,958.746719 467.528366C995.544266 467.528366,1030.830276 452.908432,1056.848099 426.890610C1082.865921 400.872787,1097.485855 365.586777,1097.485855 328.789230Z" style="stroke:rgb(25.500488%,41.000366%,88.400269%); stroke-width: 2.500000;stroke-linecap: round;stroke-linejoin: round;stroke-miterlimit: 10.000000;fill: none;"></path>
  <path d="M1107.944489 139.210236C1107.944489 102.412689,1093.324554 67.126678,1067.306732 41.108856C1041.288910 15.091034,1006.002899 0.471100,969.205353 0.471100C932.407806 0.471100,897.121796 15.091034,871.103973 41.108856C845.086151 67.126678,830.466217 102.412689,830.466217 139.210236C830.466217 176.007782,845.086151 211.293793,871.103973 237.311615C897.121796 263.329437,932.407806 277.949371,969.205353 277.949371C1006.002899 277.949371,1041.288910 263.329437,1067.306732 237.311615C1093.324554 211.293793,1107.944489 176.007782,1107.944489 139.210236Z" style="stroke:rgb(25.500488%,41.000366%,88.400269%); stroke-width: 2.500000;stroke-linecap: round;stroke-linejoin: round;stroke-miterlimit: 10.000000;fill: none;"></path>
  <path d="M795.093719 1647.200241C795.093719 1610.402695,780.473785 1575.116684,754.455963 1549.098862C728.438141 1523.081039,693.152130 1508.461105,656.354584 1508.461105C619.557037 1508.461105,584.271027 1523.081039,558.253204 1549.098862C532.235382 1575.116684,517.615448 1610.402695,517.615448 1647.200241C517.615448 1683.997787,532.235382 1719.283798,558.253204 1745.301620C584.271027 1771.319443,619.557037 1785.939377,656.354584 1785.939377C693.152130 1785.939377,728.438141 1771.319443,754.455963 1745.301620C780.473785 1719.283798,795.093719 1683.997787,795.093719 1647.200241Z" style="stroke:rgb(25.500488%,41.000366%,88.400269%); stroke-width: 2.500000;stroke-linecap: round;stroke-linejoin: round;stroke-miterlimit: 10.000000;fill: none;"></path>
  <path d="M821.032700 1422.767761C821.032700 1385.970215,806.412766 1350.684204,780.394943 1324.666382C754.377121 1298.648560,719.091110 1284.028625,682.293564 1284.028625C645.496017 1284.028625,610.210007 1298.648560,584.192184 1324.666382C558.174362 1350.684204,543.554428 1385.970215,543.554428 1422.767761C543.554428 1459.565308,558.174362 1494.851318,584.192184 1520.869141C610.210007 1546.886963,645.496017 1561.506897,682.293564 1561.506897C719.091110 1561.506897,754.377121 1546.886963,780.394943 1520.869141C806.412766 1494.851318,821.032700 1459.565308,821.032700 1422.767761Z" style="stroke:rgb(25.500488%,41.000366%,88.400269%); stroke-width: 2.500000;stroke-linecap: round;stroke-linejoin: round;stroke-miterlimit: 10.000000;fill: none;"></path>
  <path d="M854.445831 1176.963867C854.445831 1140.166321,839.825897 1104.880310,813.808075 1078.862488C787.790253 1052.844666,752.504242 1038.224731,715.706696 1038.224731C678.909149 1038.224731,643.623138 1052.844666,617.605316 1078.862488C591.587494 1104.880310,576.967560 1140.166321,576.967560 1176.963867C576.967560 1213.761414,591.587494 1249.047424,617.605316 1275.065247C643.623138 1301.083069,678.909149 1315.703003,715.706696 1315.703003C752.504242 1315.703003,787.790253 1301.083069,813.808075 1275.065247C839.825897 1249.047424,854.445831 1213.761414,854.445831 1176.963867Z" style="stroke:rgb(25.500488%,41.000366%,88.400269%); stroke-width: 2.500000;stroke-linecap: round;stroke-linejoin: round;stroke-miterlimit: 10.000000;fill: none;"></path>
  <path d="M885.977448 928.850235C885.977448 892.052689,871.357513 856.766678,845.339691 830.748856C819.321869 804.731033,784.035858 790.111099,747.238312 790.111099C710.440765 790.111099,675.154755 804.731033,649.136932 830.748856C623.119110 856.766678,608.499176 892.052689,608.499176 928.850235C608.499176 965.647781,623.119110 1000.933792,649.136932 1026.951614C675.154755 1052.969437,710.440765 1067.589371,747.238312 1067.589371C784.035858 1067.589371,819.321869 1052.969437,845.339691 1026.951614C871.357513 1000.933792,885.977448 965.647781,885.977448 928.850235Z" style="stroke:rgb(25.500488%,41.000366%,88.400269%); stroke-width: 2.500000;stroke-linecap: round;stroke-linejoin: round;stroke-miterlimit: 10.000000;fill: none;"></path>
  <path d="M885.289734 676.610245C885.289734 639.812698,870.669800 604.526688,844.651978 578.508865C818.634155 552.491043,783.348145 537.871109,746.550598 537.871109C709.753052 537.871109,674.467041 552.491043,648.449219 578.508865C622.431396 604.526688,607.811462 639.812698,607.811462 676.610245C607.811462 713.407791,622.431396 748.693802,648.449219 774.711624C674.467041 800.729446,709.753052 815.349380,746.550598 815.349380C783.348145 815.349380,818.634155 800.729446,844.651978 774.711624C870.669800 748.693802,885.289734 713.407791,885.289734 676.610245Z" style="stroke:rgb(25.500488%,41.000366%,88.400269%); stroke-width: 2.500000;stroke-linecap: round;stroke-linejoin: round;stroke-miterlimit: 10.000000;fill: none;"></path>
  <path d="M879.203995 422.891006C879.203995 386.093460,864.584061 350.807449,838.566238 324.789627C812.548416 298.771805,777.262405 284.151871,740.464859 284.151871C703.667313 284.151871,668.381302 298.771805,642.363480 324.789627C616.345657 350.807449,601.725723 386.093460,601.725723 422.891006C601.725723 459.688553,616.345657 494.974564,642.363480 520.992386C668.381302 547.010208,703.667313 561.630142,740.464859 561.630142C777.262405 561.630142,812.548416 547.010208,838.566238 520.992386C864.584061 494.974564,879.203995 459.688553,879.203995 422.891006Z" style="stroke:rgb(25.500488%,41.000366%,88.400269%); stroke-width: 2.500000;stroke-linecap: round;stroke-linejoin: round;stroke-miterlimit: 10.000000;fill: none;"></path>
  <path d="M877.296524 198.705078C877.296524 161.907532,862.676590 126.621521,836.658768 100.603699C810.640945 74.585876,775.354935 59.965942,738.557388 59.965942C701.759842 59.965942,666.473831 74.585876,640.456009 100.603699C614.438187 126.621521,599.818253 161.907532,599.818253 198.705078C599.818253 235.502625,614.438187 270.788635,640.456009 296.806458C666.473831 322.824280,701.759842 337.444214,738.557388 337.444214C775.354935 337.444214,810.640945 322.824280,836.658768 296.806458C862.676590 270.788635,877.296524 235.502625,877.296524 198.705078Z" style="stroke:rgb(25.500488%,41.000366%,88.400269%); stroke-width: 2.500000;stroke-linecap: round;stroke-linejoin: round;stroke-miterlimit: 10.000000;fill: none;"></path>
  <path d="M619.399017 1556.420319C619.399017 1519.622772,604.779083 1484.336761,578.761261 1458.318939C552.743439 1432.301117,517.457428 1417.681183,480.659882 1417.681183C443.862335 1417.681183,408.576324 1432.301117,382.558502 1458.318939C356.540680 1484.336761,341.920746 1519.622772,341.920746 1556.420319C341.920746 1593.217865,356.540680 1628.503876,382.558502 1654.521698C408.576324 1680.539520,443.862335 1695.159454,480.659882 1695.159454C517.457428 1695.159454,552.743439 1680.539520,578.761261 1654.521698C604.779083 1628.503876,619.399017 1593.217865,619.399017 1556.420319Z" style="stroke:rgb(25.500488%,41.000366%,88.400269%); stroke-width: 2.500000;stroke-linecap: round;stroke-linejoin: round;stroke-miterlimit: 10.000000;fill: none;"></path>
  <path d="M648.672821 1298.418991C648.672821 1261.621445,634.052887 1226.335434,608.035065 1200.317612C582.017242 1174.299789,546.731232 1159.679855,509.933685 1159.679855C473.136139 1159.679855,437.850128 1174.299789,411.832306 1200.317612C385.814484 1226.335434,371.194550 1261.621445,371.194550 1298.418991C371.194550 1335.216537,385.814484 1370.502548,411.832306 1396.520370C437.850128 1422.538193,473.136139 1437.158127,509.933685 1437.158127C546.731232 1437.158127,582.017242 1422.538193,608.035065 1396.520370C634.052887 1370.502548,648.672821 1335.216537,648.672821 1298.418991Z" style="stroke:rgb(25.500488%,41.000366%,88.400269%); stroke-width: 2.500000;stroke-linecap: round;stroke-linejoin: round;stroke-miterlimit: 10.000000;fill: none;"></path>
  <path d="M676.882584 1043.752502C676.882584 1006.954956,662.262650 971.668945,636.244827 945.651123C610.227005 919.633301,574.940994 905.013367,538.143448 905.013367C501.345901 905.013367,466.059891 919.633301,440.042068 945.651123C414.024246 971.668945,399.404312 1006.954956,399.404312 1043.752502C399.404312 1080.550049,414.024246 1115.836060,440.042068 1141.853882C466.059891 1167.871704,501.345901 1182.491638,538.143448 1182.491638C574.940994 1182.491638,610.227005 1167.871704,636.244827 1141.853882C662.262650 1115.836060,676.882584 1080.550049,676.882584 1043.752502Z" style="stroke:rgb(25.500488%,41.000366%,88.400269%); stroke-width: 2.500000;stroke-linecap: round;stroke-linejoin: round;stroke-miterlimit: 10.000000;fill: none;"></path>
  <path d="M694.140640 796.067078C694.140640 759.269531,679.520706 723.983521,653.502884 697.965698C627.485062 671.947876,592.199051 657.327942,555.401505 657.327942C518.603958 657.327942,483.317947 671.947876,457.300125 697.965698C431.282303 723.983521,416.662369 759.269531,416.662369 796.067078C416.662369 832.864624,431.282303 868.150635,457.300125 894.168457C483.317947 920.186279,518.603958 934.806213,555.401505 934.806213C592.199051 934.806213,627.485062 920.186279,653.502884 894.168457C679.520706 868.150635,694.140640 832.864624,694.140640 796.067078Z" style="stroke:rgb(25.500488%,41.000366%,88.400269%); stroke-width: 2.500000;stroke-linecap: round;stroke-linejoin: round;stroke-miterlimit: 10.000000;fill: none;"></path>
  <path d="M698.565445 537.650528C698.565445 500.852982,683.945511 465.566971,657.927689 439.549149C631.909866 413.531326,596.623856 398.911392,559.826309 398.911392C523.028763 398.911392,487.742752 413.531326,461.724930 439.549149C435.707108 465.566971,421.087173 500.852982,421.087173 537.650528C421.087173 574.448074,435.707108 609.734085,461.724930 635.751907C487.742752 661.769730,523.028763 676.389664,559.826309 676.389664C596.623856 676.389664,631.909866 661.769730,657.927689 635.751907C683.945511 609.734085,698.565445 574.448074,698.565445 537.650528Z" style="stroke:rgb(25.500488%,41.000366%,88.400269%); stroke-width: 2.500000;stroke-linecap: round;stroke-linejoin: round;stroke-miterlimit: 10.000000;fill: none;"></path>
  <path d="M676.142960 283.347366C676.142960 246.549820,661.523026 211.263809,635.505203 185.245987C609.487381 159.228165,574.201370 144.608231,537.403824 144.608231C500.606277 144.608231,465.320267 159.228165,439.302444 185.245987C413.284622 211.263809,398.664688 246.549820,398.664688 283.347366C398.664688 320.144913,413.284622 355.430923,439.302444 381.448746C465.320267 407.466568,500.606277 422.086502,537.403824 422.086502C574.201370 422.086502,609.487381 407.466568,635.505203 381.448746C661.523026 355.430923,676.142960 320.144913,676.142960 283.347366Z" style="stroke:rgb(25.500488%,41.000366%,88.400269%); stroke-width: 2.500000;stroke-linecap: round;stroke-linejoin: round;stroke-miterlimit: 10.000000;fill: none;"></path>
  <path d="M453.721756 1413.658630C453.721756 1376.861084,439.101822 1341.575073,413.084000 1315.557251C387.066177 1289.539429,351.780167 1274.919495,314.982620 1274.919495C278.185074 1274.919495,242.899063 1289.539429,216.881241 1315.557251C190.863419 1341.575073,176.243484 1376.861084,176.243484 1413.658630C176.243484 1450.456177,190.863419 1485.742188,216.881241 1511.760010C242.899063 1537.777832,278.185074 1552.397766,314.982620 1552.397766C351.780167 1552.397766,387.066177 1537.777832,413.084000 1511.760010C439.101822 1485.742188,453.721756 1450.456177,453.721756 1413.658630Z" style="stroke:rgb(25.500488%,41.000366%,88.400269%); stroke-width: 2.500000;stroke-linecap: round;stroke-linejoin: round;stroke-miterlimit: 10.000000;fill: none;"></path>
  <path d="M471.589676 1153.827698C471.589676 1117.030151,456.969742 1081.744141,430.951920 1055.726318C404.934097 1029.708496,369.648087 1015.088562,332.850540 1015.088562C296.052994 1015.088562,260.766983 1029.708496,234.749161 1055.726318C208.731339 1081.744141,194.111404 1117.030151,194.111404 1153.827698C194.111404 1190.625244,208.731339 1225.911255,234.749161 1251.929077C260.766983 1277.946899,296.052994 1292.566833,332.850540 1292.566833C369.648087 1292.566833,404.934097 1277.946899,430.951920 1251.929077C456.969742 1225.911255,471.589676 1190.625244,471.589676 1153.827698Z" style="stroke:rgb(25.500488%,41.000366%,88.400269%); stroke-width: 2.500000;stroke-linecap: round;stroke-linejoin: round;stroke-miterlimit: 10.000000;fill: none;"></path>
  <path d="M485.123627 908.984024C485.123627 872.186478,470.503693 836.900467,444.485870 810.882645C418.468048 784.864822,383.182037 770.244888,346.384491 770.244888C309.586945 770.244888,274.300934 784.864822,248.283112 810.882645C222.265289 836.900467,207.645355 872.186478,207.645355 908.984024C207.645355 945.781570,222.265289 981.067581,248.283112 1007.085403C274.300934 1033.103226,309.586945 1047.723160,346.384491 1047.723160C383.182037 1047.723160,418.468048 1033.103226,444.485870 1007.085403C470.503693 981.067581,485.123627 945.781570,485.123627 908.984024Z" style="stroke:rgb(25.500488%,41.000366%,88.400269%); stroke-width: 2.500000;stroke-linecap: round;stroke-linejoin: round;stroke-miterlimit: 10.000000;fill: none;"></path>
  <path d="M507.234680 660.948242C507.234680 624.150696,492.614746 588.864685,466.596924 562.846863C440.579102 536.829041,405.293091 522.209106,368.495544 522.209106C331.697998 522.209106,296.411987 536.829041,270.394165 562.846863C244.376343 588.864685,229.756409 624.150696,229.756409 660.948242C229.756409 697.745789,244.376343 733.031799,270.394165 759.049622C296.411987 785.067444,331.697998 799.687378,368.495544 799.687378C405.293091 799.687378,440.579102 785.067444,466.596924 759.049622C492.614746 733.031799,507.234680 697.745789,507.234680 660.948242Z" style="stroke:rgb(25.500488%,41.000366%,88.400269%); stroke-width: 2.500000;stroke-linecap: round;stroke-linejoin: round;stroke-miterlimit: 10.000000;fill: none;"></path>
  <path d="M515.487411 401.169220C515.487411 364.371674,500.867477 329.085663,474.849655 303.067841C448.831833 277.050018,413.545822 262.430084,376.748276 262.430084C339.950729 262.430084,304.664719 277.050018,278.646896 303.067841C252.629074 329.085663,238.009140 364.371674,238.009140 401.169220C238.009140 437.966766,252.629074 473.252777,278.646896 499.270599C304.664719 525.288422,339.950729 539.908356,376.748276 539.908356C413.545822 539.908356,448.831833 525.288422,474.849655 499.270599C500.867477 473.252777,515.487411 437.966766,515.487411 401.169220Z" style="stroke:rgb(25.500488%,41.000366%,88.400269%); stroke-width: 2.500000;stroke-linecap: round;stroke-linejoin: round;stroke-miterlimit: 10.000000;fill: none;"></path>
  <path d="M287.123215 1251.225372C287.123215 1214.427826,272.503281 1179.141815,246.485458 1153.123993C220.467636 1127.106171,185.181625 1112.486237,148.384079 1112.486237C111.586533 1112.486237,76.300522 1127.106171,50.282700 1153.123993C24.264877 1179.141815,9.644943 1214.427826,9.644943 1251.225372C9.644943 1288.022919,24.264877 1323.308929,50.282700 1349.326752C76.300522 1375.344574,111.586533 1389.964508,148.384079 1389.964508C185.181625 1389.964508,220.467636 1375.344574,246.485458 1349.326752C272.503281 1323.308929,287.123215 1288.022919,287.123215 1251.225372Z" style="stroke:rgb(25.500488%,41.000366%,88.400269%); stroke-width: 2.500000;stroke-linecap: round;stroke-linejoin: round;stroke-miterlimit: 10.000000;fill: none;"></path>
  <path d="M278.572052 995.624603C278.572052 958.827057,263.952118 923.541046,237.934296 897.523224C211.916473 871.505402,176.630463 856.885468,139.832916 856.885468C103.035370 856.885468,67.749359 871.505402,41.731537 897.523224C15.713715 923.541046,1.093781 958.827057,1.093781 995.624603C1.093781 1032.422150,15.713715 1067.708160,41.731537 1093.725983C67.749359 1119.743805,103.035370 1134.363739,139.832916 1134.363739C176.630463 1134.363739,211.916473 1119.743805,237.934296 1093.725983C263.952118 1067.708160,278.572052 1032.422150,278.572052 995.624603Z" style="stroke:rgb(25.500488%,41.000366%,88.400269%); stroke-width: 2.500000;stroke-linecap: round;stroke-linejoin: round;stroke-miterlimit: 10.000000;fill: none;"></path>
  <path d="M297.841370 798.960724C297.841370 762.163177,283.221436 726.877167,257.203613 700.859344C231.185791 674.841522,195.899780 660.221588,159.102234 660.221588C122.304688 660.221588,87.018677 674.841522,61.000854 700.859344C34.983032 726.877167,20.363098 762.163177,20.363098 798.960724C20.363098 835.758270,34.983032 871.044281,61.000854 897.062103C87.018677 923.079926,122.304688 937.699860,159.102234 937.699860C195.899780 937.699860,231.185791 923.079926,257.203613 897.062103C283.221436 871.044281,297.841370 835.758270,297.841370 798.960724Z" style="stroke:rgb(25.500488%,41.000366%,88.400269%); stroke-width: 2.500000;stroke-linecap: round;stroke-linejoin: round;stroke-miterlimit: 10.000000;fill: none;"></path>
  <path d="M326.025192 552.728607C326.025192 515.931061,311.405258 480.645050,285.387436 454.627228C259.369614 428.609406,224.083603 413.989471,187.286057 413.989471C150.488510 413.989471,115.202499 428.609406,89.184677 454.627228C63.166855 480.645050,48.546921 515.931061,48.546921 552.728607C48.546921 589.526154,63.166855 624.812164,89.184677 650.829987C115.202499 676.847809,150.488510 691.467743,187.286057 691.467743C224.083603 691.467743,259.369614 676.847809,285.387436 650.829987C311.405258 624.812164,326.025192 589.526154,326.025192 552.728607Z" style="stroke:rgb(25.500488%,41.000366%,88.400269%); stroke-width: 2.500000;stroke-linecap: round;stroke-linejoin: round;stroke-miterlimit: 10.000000;fill: none;"></path>
</svg>
