<?xml version="1.0"?>
<!-- Created by MetaPost 2.00 on 2022.03.02:1201 -->
<svg version="1.1" xmlns="http://www.w3.org/2000/svg" xmlns:xlink="http://www.w3.org/1999/xlink" width="1634.566284" height="1625.197632" viewBox="0 0 1634.566284 1625.197632">
<!-- Original BoundingBox: -816.647324 -768.480499 817.918961 856.717133 -->
  <path d="M816.000000 5.606476L7.233398 593.210541L316.152451 1543.986221L1315.847549 1543.986221L1624.766602 593.210541L816.000000 5.606476Z" style="fill: rgb(100.000000%,100.000000%,100.000000%);stroke: none;"></path>
  <path d="M816.000000 5.606476L7.233398 593.210541" style="stroke:rgb(0.000000%,0.000000%,0.000000%); stroke-width: 2.500000;stroke-linecap: round;stroke-linejoin: round;stroke-miterlimit: 10.000000;fill: none;"></path>
  <path d="M7.233398 593.210541L316.152451 1543.986221" style="stroke:rgb(0.000000%,0.000000%,0.000000%); stroke-width: 2.500000;stroke-linecap: round;stroke-linejoin: round;stroke-miterlimit: 10.000000;fill: none;"></path>
  <path d="M316.152451 1543.986221L1315.847549 1543.986221" style="stroke:rgb(0.000000%,0.000000%,0.000000%); stroke-width: 2.500000;stroke-linecap: round;stroke-linejoin: round;stroke-miterlimit: 10.000000;fill: none;"></path>
  <path d="M1315.847549 1543.986221L1624.766602 593.210541" style="stroke:rgb(0.000000%,0.000000%,0.000000%); stroke-width: 2.500000;stroke-linecap: round;stroke-linejoin: round;stroke-miterlimit: 10.000000;fill: none;"></path>
  <path d="M1624.766602 593.210541L816.000000 5.606476" style="stroke:rgb(0.000000%,0.000000%,0.000000%); stroke-width: 2.500000;stroke-linecap: round;stroke-linejoin: round;stroke-miterlimit: 10.000000;fill: none;"></path>
  <path d="M1602.850174 856.921295C1602.850174 832.940262,1593.322327 809.944290,1576.366455 792.988419C1559.410583 776.032547,1536.414612 766.504700,1512.433578 766.504700C1488.452545 766.504700,1465.456573 776.032547,1448.500702 792.988419C1431.544830 809.944290,1422.016983 832.940262,1422.016983 856.921295C1422.016983 880.902328,1431.544830 903.898300,1448.500702 920.854172C1465.456573 937.810043,1488.452545 947.337891,1512.433578 947.337891C1536.414612 947.337891,1559.410583 937.810043,1576.366455 920.854172C1593.322327 903.898300,1602.850174 880.902328,1602.850174 856.921295Z" style="stroke:rgb(25.500488%,41.000366%,88.400269%); stroke-width: 2.500000;stroke-linecap: round;stroke-linejoin: round;stroke-miterlimit: 10.000000;fill: none;"></path>
  <path d="M1618.940384 698.783081C1618.940384 674.802048,1609.412537 651.806076,1592.456665 634.850204C1575.500793 617.894333,1552.504822 608.366486,1528.523788 608.366486C1504.542755 608.366486,1481.546783 617.894333,1464.590912 634.850204C1447.635040 651.806076,1438.107193 674.802048,1438.107193 698.783081C1438.107193 722.764114,1447.635040 745.760086,1464.590912 762.715958C1481.546783 779.671829,1504.542755 789.199677,1528.523788 789.199677C1552.504822 789.199677,1575.500793 779.671829,1592.456665 762.715958C1609.412537 745.760086,1618.940384 722.764114,1618.940384 698.783081Z" style="stroke:rgb(25.500488%,41.000366%,88.400269%); stroke-width: 2.500000;stroke-linecap: round;stroke-linejoin: round;stroke-miterlimit: 10.000000;fill: none;"></path>
  <path d="M1632.668961 587.371353C1632.668961 563.390320,1623.141113 540.394348,1606.185242 523.438477C1589.229370 506.482605,1566.233398 496.954758,1542.252365 496.954758C1518.271332 496.954758,1495.275360 506.482605,1478.319489 523.438477C1461.363617 540.394348,1451.835770 563.390320,1451.835770 587.371353C1451.835770 611.352386,1461.363617 634.348358,1478.319489 651.304230C1495.275360 668.260101,1518.271332 677.787949,1542.252365 677.787949C1566.233398 677.787949,1589.229370 668.260101,1606.185242 651.304230C1623.141113 634.348358,1632.668961 611.352386,1632.668961 587.371353Z" style="stroke:rgb(25.500488%,41.000366%,88.400269%); stroke-width: 2.500000;stroke-linecap: round;stroke-linejoin: round;stroke-miterlimit: 10.000000;fill: none;"></path>
  <path d="M1492.281891 1222.791901C1492.281891 1198.810867,1482.754044 1175.814896,1465.798172 1158.859024C1448.842300 1141.903152,1425.846329 1132.375305,1401.865295 1132.375305C1377.884262 1132.375305,1354.888290 1141.903152,1337.932419 1158.859024C1320.976547 1175.814896,1311.448700 1198.810867,1311.448700 1222.791901C1311.448700 1246.772934,1320.976547 1269.768906,1337.932419 1286.724777C1354.888290 1303.680649,1377.884262 1313.208496,1401.865295 1313.208496C1425.846329 1313.208496,1448.842300 1303.680649,1465.798172 1286.724777C1482.754044 1269.768906,1492.281891 1246.772934,1492.281891 1222.791901Z" style="stroke:rgb(25.500488%,41.000366%,88.400269%); stroke-width: 2.500000;stroke-linecap: round;stroke-linejoin: round;stroke-miterlimit: 10.000000;fill: none;"></path>
  <path d="M1499.094269 1061.409683C1499.094269 1037.428650,1489.566422 1014.432678,1472.610550 997.476807C1455.654678 980.520935,1432.658707 970.993088,1408.677673 970.993088C1384.696640 970.993088,1361.700668 980.520935,1344.744797 997.476807C1327.788925 1014.432678,1318.261078 1037.428650,1318.261078 1061.409683C1318.261078 1085.390717,1327.788925 1108.386688,1344.744797 1125.342560C1361.700668 1142.298431,1384.696640 1151.826279,1408.677673 1151.826279C1432.658707 1151.826279,1455.654678 1142.298431,1472.610550 1125.342560C1489.566422 1108.386688,1499.094269 1085.390717,1499.094269 1061.409683Z" style="stroke:rgb(25.500488%,41.000366%,88.400269%); stroke-width: 2.500000;stroke-linecap: round;stroke-linejoin: round;stroke-miterlimit: 10.000000;fill: none;"></path>
  <path d="M1510.188736 956.356201C1510.188736 932.375168,1500.660889 909.379196,1483.705017 892.423325C1466.749146 875.467453,1443.753174 865.939606,1419.772141 865.939606C1395.791107 865.939606,1372.795135 875.467453,1355.839264 892.423325C1338.883392 909.379196,1329.355545 932.375168,1329.355545 956.356201C1329.355545 980.337234,1338.883392 1003.333206,1355.839264 1020.289078C1372.795135 1037.244949,1395.791107 1046.772797,1419.772141 1046.772797C1443.753174 1046.772797,1466.749146 1037.244949,1483.705017 1020.289078C1500.660889 1003.333206,1510.188736 980.337234,1510.188736 956.356201Z" style="stroke:rgb(25.500488%,41.000366%,88.400269%); stroke-width: 2.500000;stroke-linecap: round;stroke-linejoin: round;stroke-miterlimit: 10.000000;fill: none;"></path>
  <path d="M1480.136368 794.766373C1480.136368 770.785339,1470.608521 747.789368,1453.652649 730.833496C1436.696777 713.877625,1413.700806 704.349777,1389.719772 704.349777C1365.738739 704.349777,1342.742767 713.877625,1325.786896 730.833496C1308.831024 747.789368,1299.303177 770.785339,1299.303177 794.766373C1299.303177 818.747406,1308.831024 841.743378,1325.786896 858.699249C1342.742767 875.655121,1365.738739 885.182968,1389.719772 885.182968C1413.700806 885.182968,1436.696777 875.655121,1453.652649 858.699249C1470.608521 841.743378,1480.136368 818.747406,1480.136368 794.766373Z" style="stroke:rgb(25.500488%,41.000366%,88.400269%); stroke-width: 2.500000;stroke-linecap: round;stroke-linejoin: round;stroke-miterlimit: 10.000000;fill: none;"></path>
  <path d="M1484.496307 642.571152C1484.496307 618.590118,1474.968460 595.594147,1458.012589 578.638275C1441.056717 561.682404,1418.060745 552.154556,1394.079712 552.154556C1370.098679 552.154556,1347.102707 561.682404,1330.146835 578.638275C1313.190964 595.594147,1303.663116 618.590118,1303.663116 642.571152C1303.663116 666.552185,1313.190964 689.548157,1330.146835 706.504028C1347.102707 723.459900,1370.098679 732.987747,1394.079712 732.987747C1418.060745 732.987747,1441.056717 723.459900,1458.012589 706.504028C1474.968460 689.548157,1484.496307 666.552185,1484.496307 642.571152Z" style="stroke:rgb(25.500488%,41.000366%,88.400269%); stroke-width: 2.500000;stroke-linecap: round;stroke-linejoin: round;stroke-miterlimit: 10.000000;fill: none;"></path>
  <path d="M1504.998337 491.959015C1504.998337 467.977982,1495.470490 444.982010,1478.514618 428.026138C1461.558746 411.070267,1438.562775 401.542419,1414.581741 401.542419C1390.600708 401.542419,1367.604736 411.070267,1350.648865 428.026138C1333.692993 444.982010,1324.165146 467.977982,1324.165146 491.959015C1324.165146 515.940048,1333.692993 538.936020,1350.648865 555.891891C1367.604736 572.847763,1390.600708 582.375610,1414.581741 582.375610C1438.562775 582.375610,1461.558746 572.847763,1478.514618 555.891891C1495.470490 538.936020,1504.998337 515.940048,1504.998337 491.959015Z" style="stroke:rgb(25.500488%,41.000366%,88.400269%); stroke-width: 2.500000;stroke-linecap: round;stroke-linejoin: round;stroke-miterlimit: 10.000000;fill: none;"></path>
  <path d="M1388.603836 1467.972946C1388.603836 1443.991913,1379.075989 1420.995941,1362.120117 1404.040070C1345.164246 1387.084198,1322.168274 1377.556351,1298.187241 1377.556351C1274.206207 1377.556351,1251.210236 1387.084198,1234.254364 1404.040070C1217.298492 1420.995941,1207.770645 1443.991913,1207.770645 1467.972946C1207.770645 1491.953979,1217.298492 1514.949951,1234.254364 1531.905823C1251.210236 1548.861694,1274.206207 1558.389542,1298.187241 1558.389542C1322.168274 1558.389542,1345.164246 1548.861694,1362.120117 1531.905823C1379.075989 1514.949951,1388.603836 1491.953979,1388.603836 1467.972946Z" style="stroke:rgb(25.500488%,41.000366%,88.400269%); stroke-width: 2.500000;stroke-linecap: round;stroke-linejoin: round;stroke-miterlimit: 10.000000;fill: none;"></path>
  <path d="M1393.690430 1334.268509C1393.690430 1310.287476,1384.162582 1287.291504,1367.206711 1270.335632C1350.250839 1253.379761,1327.254868 1243.851913,1303.273834 1243.851913C1279.292801 1243.851913,1256.296829 1253.379761,1239.340958 1270.335632C1222.385086 1287.291504,1212.857239 1310.287476,1212.857239 1334.268509C1212.857239 1358.249542,1222.385086 1381.245514,1239.340958 1398.201385C1256.296829 1415.157257,1279.292801 1424.685104,1303.273834 1424.685104C1327.254868 1424.685104,1350.250839 1415.157257,1367.206711 1398.201385C1384.162582 1381.245514,1393.690430 1358.249542,1393.690430 1334.268509Z" style="stroke:rgb(25.500488%,41.000366%,88.400269%); stroke-width: 2.500000;stroke-linecap: round;stroke-linejoin: round;stroke-miterlimit: 10.000000;fill: none;"></path>
  <path d="M1371.799957 1175.598282C1371.799957 1151.617249,1362.272110 1128.621277,1345.316238 1111.665405C1328.360367 1094.709534,1305.364395 1085.181686,1281.383362 1085.181686C1257.402328 1085.181686,1234.406357 1094.709534,1217.450485 1111.665405C1200.494614 1128.621277,1190.966766 1151.617249,1190.966766 1175.598282C1190.966766 1199.579315,1200.494614 1222.575287,1217.450485 1239.531158C1234.406357 1256.487030,1257.402328 1266.014877,1281.383362 1266.014877C1305.364395 1266.014877,1328.360367 1256.487030,1345.316238 1239.531158C1362.272110 1222.575287,1371.799957 1199.579315,1371.799957 1175.598282Z" style="stroke:rgb(25.500488%,41.000366%,88.400269%); stroke-width: 2.500000;stroke-linecap: round;stroke-linejoin: round;stroke-miterlimit: 10.000000;fill: none;"></path>
  <path d="M1370.177963 1018.550049C1370.177963 994.569016,1360.650116 971.573044,1343.694244 954.617172C1326.738373 937.661301,1303.742401 928.133453,1279.761368 928.133453C1255.780334 928.133453,1232.784363 937.661301,1215.828491 954.617172C1198.872620 971.573044,1189.344772 994.569016,1189.344772 1018.550049C1189.344772 1042.531082,1198.872620 1065.527054,1215.828491 1082.482925C1232.784363 1099.438797,1255.780334 1108.966644,1279.761368 1108.966644C1303.742401 1108.966644,1326.738373 1099.438797,1343.694244 1082.482925C1360.650116 1065.527054,1370.177963 1042.531082,1370.177963 1018.550049Z" style="stroke:rgb(25.500488%,41.000366%,88.400269%); stroke-width: 2.500000;stroke-linecap: round;stroke-linejoin: round;stroke-miterlimit: 10.000000;fill: none;"></path>
  <path d="M1368.594894 869.650726C1368.594894 845.669693,1359.067047 822.673721,1342.111176 805.717850C1325.155304 788.761978,1302.159332 779.234131,1278.178299 779.234131C1254.197266 779.234131,1231.201294 788.761978,1214.245422 805.717850C1197.289551 822.673721,1187.761703 845.669693,1187.761703 869.650726C1187.761703 893.631760,1197.289551 916.627731,1214.245422 933.583603C1231.201294 950.539474,1254.197266 960.067322,1278.178299 960.067322C1302.159332 960.067322,1325.155304 950.539474,1342.111176 933.583603C1359.067047 916.627731,1368.594894 893.631760,1368.594894 869.650726Z" style="stroke:rgb(25.500488%,41.000366%,88.400269%); stroke-width: 2.500000;stroke-linecap: round;stroke-linejoin: round;stroke-miterlimit: 10.000000;fill: none;"></path>
  <path d="M1343.719940 707.113663C1343.719940 683.132629,1334.192093 660.136658,1317.236221 643.180786C1300.280350 626.224915,1277.284378 616.697067,1253.303345 616.697067C1229.322311 616.697067,1206.326340 626.224915,1189.370468 643.180786C1172.414597 660.136658,1162.886749 683.132629,1162.886749 707.113663C1162.886749 731.094696,1172.414597 754.090668,1189.370468 771.046539C1206.326340 788.002411,1229.322311 797.530258,1253.303345 797.530258C1277.284378 797.530258,1300.280350 788.002411,1317.236221 771.046539C1334.192093 754.090668,1343.719940 731.094696,1343.719940 707.113663Z" style="stroke:rgb(25.500488%,41.000366%,88.400269%); stroke-width: 2.500000;stroke-linecap: round;stroke-linejoin: round;stroke-miterlimit: 10.000000;fill: none;"></path>
  <path d="M1356.371521 550.493637C1356.371521 526.512604,1346.843674 503.516632,1329.887802 486.560760C1312.931931 469.604889,1289.935959 460.077042,1265.954926 460.077042C1241.973892 460.077042,1218.977921 469.604889,1202.022049 486.560760C1185.066177 503.516632,1175.538330 526.512604,1175.538330 550.493637C1175.538330 574.474670,1185.066177 597.470642,1202.022049 614.426514C1218.977921 631.382385,1241.973892 640.910233,1265.954926 640.910233C1289.935959 640.910233,1312.931931 631.382385,1329.887802 614.426514C1346.843674 597.470642,1356.371521 574.474670,1356.371521 550.493637Z" style="stroke:rgb(25.500488%,41.000366%,88.400269%); stroke-width: 2.500000;stroke-linecap: round;stroke-linejoin: round;stroke-miterlimit: 10.000000;fill: none;"></path>
  <path d="M1374.693604 400.958496C1374.693604 376.977463,1365.165756 353.981491,1348.209885 337.025620C1331.254013 320.069748,1308.258041 310.541901,1284.277008 310.541901C1260.295975 310.541901,1237.300003 320.069748,1220.344131 337.025620C1203.388260 353.981491,1193.860413 376.977463,1193.860413 400.958496C1193.860413 424.939529,1203.388260 447.935501,1220.344131 464.891373C1237.300003 481.847244,1260.295975 491.375092,1284.277008 491.375092C1308.258041 491.375092,1331.254013 481.847244,1348.209885 464.891373C1365.165756 447.935501,1374.693604 424.939529,1374.693604 400.958496Z" style="stroke:rgb(25.500488%,41.000366%,88.400269%); stroke-width: 2.500000;stroke-linecap: round;stroke-linejoin: round;stroke-miterlimit: 10.000000;fill: none;"></path>
  <path d="M1249.994476 1532.048325C1249.994476 1508.067291,1240.466629 1485.071320,1223.510757 1468.115448C1206.554886 1451.159576,1183.558914 1441.631729,1159.577881 1441.631729C1135.596848 1441.631729,1112.600876 1451.159576,1095.645004 1468.115448C1078.689133 1485.071320,1069.161285 1508.067291,1069.161285 1532.048325C1069.161285 1556.029358,1078.689133 1579.025330,1095.645004 1595.981201C1112.600876 1612.937073,1135.596848 1622.464920,1159.577881 1622.464920C1183.558914 1622.464920,1206.554886 1612.937073,1223.510757 1595.981201C1240.466629 1579.025330,1249.994476 1556.029358,1249.994476 1532.048325Z" style="stroke:rgb(25.500488%,41.000366%,88.400269%); stroke-width: 2.500000;stroke-linecap: round;stroke-linejoin: round;stroke-miterlimit: 10.000000;fill: none;"></path>
  <path d="M1243.454575 1384.693146C1243.454575 1360.712112,1233.926727 1337.716141,1216.970856 1320.760269C1200.014984 1303.804398,1177.019012 1294.276550,1153.037979 1294.276550C1129.056946 1294.276550,1106.060974 1303.804398,1089.105103 1320.760269C1072.149231 1337.716141,1062.621384 1360.712112,1062.621384 1384.693146C1062.621384 1408.674179,1072.149231 1431.670151,1089.105103 1448.626022C1106.060974 1465.581894,1129.056946 1475.109741,1153.037979 1475.109741C1177.019012 1475.109741,1200.014984 1465.581894,1216.970856 1448.626022C1233.926727 1431.670151,1243.454575 1408.674179,1243.454575 1384.693146Z" style="stroke:rgb(25.500488%,41.000366%,88.400269%); stroke-width: 2.500000;stroke-linecap: round;stroke-linejoin: round;stroke-miterlimit: 10.000000;fill: none;"></path>
  <path d="M1252.187408 1244.604507C1252.187408 1220.623474,1242.659561 1197.627502,1225.703690 1180.671631C1208.747818 1163.715759,1185.751846 1154.187912,1161.770813 1154.187912C1137.789780 1154.187912,1114.793808 1163.715759,1097.837936 1180.671631C1080.882065 1197.627502,1071.354218 1220.623474,1071.354218 1244.604507C1071.354218 1268.585541,1080.882065 1291.581512,1097.837936 1308.537384C1114.793808 1325.493256,1137.789780 1335.021103,1161.770813 1335.021103C1185.751846 1335.021103,1208.747818 1325.493256,1225.703690 1308.537384C1242.659561 1291.581512,1252.187408 1268.585541,1252.187408 1244.604507Z" style="stroke:rgb(25.500488%,41.000366%,88.400269%); stroke-width: 2.500000;stroke-linecap: round;stroke-linejoin: round;stroke-miterlimit: 10.000000;fill: none;"></path>
  <path d="M1236.849808 1083.572662C1236.849808 1059.591629,1227.321960 1036.595657,1210.366089 1019.639786C1193.410217 1002.683914,1170.414246 993.156067,1146.433212 993.156067C1122.452179 993.156067,1099.456207 1002.683914,1082.500336 1019.639786C1065.544464 1036.595657,1056.016617 1059.591629,1056.016617 1083.572662C1056.016617 1107.553696,1065.544464 1130.549667,1082.500336 1147.505539C1099.456207 1164.461411,1122.452179 1173.989258,1146.433212 1173.989258C1170.414246 1173.989258,1193.410217 1164.461411,1210.366089 1147.505539C1227.321960 1130.549667,1236.849808 1107.553696,1236.849808 1083.572662Z" style="stroke:rgb(25.500488%,41.000366%,88.400269%); stroke-width: 2.500000;stroke-linecap: round;stroke-linejoin: round;stroke-miterlimit: 10.000000;fill: none;"></path>
  <path d="M1228.895538 930.585907C1228.895538 906.604874,1219.367691 883.608902,1202.411819 866.653030C1185.455948 849.697159,1162.459976 840.169312,1138.478943 840.169312C1114.497910 840.169312,1091.501938 849.697159,1074.546066 866.653030C1057.590195 883.608902,1048.062347 906.604874,1048.062347 930.585907C1048.062347 954.566940,1057.590195 977.562912,1074.546066 994.518784C1091.501938 1011.474655,1114.497910 1021.002502,1138.478943 1021.002502C1162.459976 1021.002502,1185.455948 1011.474655,1202.411819 994.518784C1219.367691 977.562912,1228.895538 954.566940,1228.895538 930.585907Z" style="stroke:rgb(25.500488%,41.000366%,88.400269%); stroke-width: 2.500000;stroke-linecap: round;stroke-linejoin: round;stroke-miterlimit: 10.000000;fill: none;"></path>
  <path d="M1229.661118 779.934830C1229.661118 755.953796,1220.133270 732.957825,1203.177399 716.001953C1186.221527 699.046082,1163.225555 689.518234,1139.244522 689.518234C1115.263489 689.518234,1092.267517 699.046082,1075.311646 716.001953C1058.355774 732.957825,1048.827927 755.953796,1048.827927 779.934830C1048.827927 803.915863,1058.355774 826.911835,1075.311646 843.867706C1092.267517 860.823578,1115.263489 870.351425,1139.244522 870.351425C1163.225555 870.351425,1186.221527 860.823578,1203.177399 843.867706C1220.133270 826.911835,1229.661118 803.915863,1229.661118 779.934830Z" style="stroke:rgb(25.500488%,41.000366%,88.400269%); stroke-width: 2.500000;stroke-linecap: round;stroke-linejoin: round;stroke-miterlimit: 10.000000;fill: none;"></path>
  <path d="M1215.465408 616.294800C1215.465408 592.313766,1205.937561 569.317795,1188.981689 552.361923C1172.025818 535.406052,1149.029846 525.878204,1125.048813 525.878204C1101.067780 525.878204,1078.071808 535.406052,1061.115936 552.361923C1044.160065 569.317795,1034.632217 592.313766,1034.632217 616.294800C1034.632217 640.275833,1044.160065 663.271805,1061.115936 680.227676C1078.071808 697.183548,1101.067780 706.711395,1125.048813 706.711395C1149.029846 706.711395,1172.025818 697.183548,1188.981689 680.227676C1205.937561 663.271805,1215.465408 640.275833,1215.465408 616.294800Z" style="stroke:rgb(25.500488%,41.000366%,88.400269%); stroke-width: 2.500000;stroke-linecap: round;stroke-linejoin: round;stroke-miterlimit: 10.000000;fill: none;"></path>
  <path d="M1225.755356 462.620331C1225.755356 438.639297,1216.227509 415.643326,1199.271637 398.687454C1182.315765 381.731583,1159.319794 372.203735,1135.338760 372.203735C1111.357727 372.203735,1088.361755 381.731583,1071.405884 398.687454C1054.450012 415.643326,1044.922165 438.639297,1044.922165 462.620331C1044.922165 486.601364,1054.450012 509.597336,1071.405884 526.553207C1088.361755 543.509079,1111.357727 553.036926,1135.338760 553.036926C1159.319794 553.036926,1182.315765 543.509079,1199.271637 526.553207C1216.227509 509.597336,1225.755356 486.601364,1225.755356 462.620331Z" style="stroke:rgb(25.500488%,41.000366%,88.400269%); stroke-width: 2.500000;stroke-linecap: round;stroke-linejoin: round;stroke-miterlimit: 10.000000;fill: none;"></path>
  <path d="M1247.126785 311.631882C1247.126785 287.650848,1237.598938 264.654877,1220.643066 247.699005C1203.687195 230.743134,1180.691223 221.215286,1156.710190 221.215286C1132.729156 221.215286,1109.733185 230.743134,1092.777313 247.699005C1075.821442 264.654877,1066.293594 287.650848,1066.293594 311.631882C1066.293594 335.612915,1075.821442 358.608887,1092.777313 375.564758C1109.733185 392.520630,1132.729156 402.048477,1156.710190 402.048477C1180.691223 402.048477,1203.687195 392.520630,1220.643066 375.564758C1237.598938 358.608887,1247.126785 335.612915,1247.126785 311.631882Z" style="stroke:rgb(25.500488%,41.000366%,88.400269%); stroke-width: 2.500000;stroke-linecap: round;stroke-linejoin: round;stroke-miterlimit: 10.000000;fill: none;"></path>
  <path d="M1107.816711 1470.412430C1107.816711 1446.431396,1098.288864 1423.435425,1081.332993 1406.479553C1064.377121 1389.523682,1041.381149 1379.995834,1017.400116 1379.995834C993.419083 1379.995834,970.423111 1389.523682,953.467239 1406.479553C936.511368 1423.435425,926.983521 1446.431396,926.983521 1470.412430C926.983521 1494.393463,936.511368 1517.389435,953.467239 1534.345306C970.423111 1551.301178,993.419083 1560.829025,1017.400116 1560.829025C1041.381149 1560.829025,1064.377121 1551.301178,1081.332993 1534.345306C1098.288864 1517.389435,1107.816711 1494.393463,1107.816711 1470.412430Z" style="stroke:rgb(25.500488%,41.000366%,88.400269%); stroke-width: 2.500000;stroke-linecap: round;stroke-linejoin: round;stroke-miterlimit: 10.000000;fill: none;"></path>
  <path d="M1106.895416 1314.752640C1106.895416 1290.771606,1097.367569 1267.775635,1080.411697 1250.819763C1063.455826 1233.863892,1040.459854 1224.336044,1016.478821 1224.336044C992.497787 1224.336044,969.501816 1233.863892,952.545944 1250.819763C935.590073 1267.775635,926.062225 1290.771606,926.062225 1314.752640C926.062225 1338.733673,935.590073 1361.729645,952.545944 1378.685516C969.501816 1395.641388,992.497787 1405.169235,1016.478821 1405.169235C1040.459854 1405.169235,1063.455826 1395.641388,1080.411697 1378.685516C1097.367569 1361.729645,1106.895416 1338.733673,1106.895416 1314.752640Z" style="stroke:rgb(25.500488%,41.000366%,88.400269%); stroke-width: 2.500000;stroke-linecap: round;stroke-linejoin: round;stroke-miterlimit: 10.000000;fill: none;"></path>
  <path d="M1113.889465 1166.229614C1113.889465 1142.248581,1104.361618 1119.252609,1087.405746 1102.296738C1070.449875 1085.340866,1047.453903 1075.813019,1023.472870 1075.813019C999.491837 1075.813019,976.495865 1085.340866,959.539993 1102.296738C942.584122 1119.252609,933.056274 1142.248581,933.056274 1166.229614C933.056274 1190.210648,942.584122 1213.206619,959.539993 1230.162491C976.495865 1247.118362,999.491837 1256.646210,1023.472870 1256.646210C1047.453903 1256.646210,1070.449875 1247.118362,1087.405746 1230.162491C1104.361618 1213.206619,1113.889465 1190.210648,1113.889465 1166.229614Z" style="stroke:rgb(25.500488%,41.000366%,88.400269%); stroke-width: 2.500000;stroke-linecap: round;stroke-linejoin: round;stroke-miterlimit: 10.000000;fill: none;"></path>
  <path d="M1094.516342 1007.883789C1094.516342 983.902756,1084.988495 960.906784,1068.032623 943.950912C1051.076752 926.995041,1028.080780 917.467194,1004.099747 917.467194C980.118713 917.467194,957.122742 926.995041,940.166870 943.950912C923.210999 960.906784,913.683151 983.902756,913.683151 1007.883789C913.683151 1031.864822,923.210999 1054.860794,940.166870 1071.816666C957.122742 1088.772537,980.118713 1098.300385,1004.099747 1098.300385C1028.080780 1098.300385,1051.076752 1088.772537,1068.032623 1071.816666C1084.988495 1054.860794,1094.516342 1031.864822,1094.516342 1007.883789Z" style="stroke:rgb(25.500488%,41.000366%,88.400269%); stroke-width: 2.500000;stroke-linecap: round;stroke-linejoin: round;stroke-miterlimit: 10.000000;fill: none;"></path>
  <path d="M1096.748199 848.694519C1096.748199 824.713486,1087.220352 801.717514,1070.264481 784.761642C1053.308609 767.805771,1030.312637 758.277924,1006.331604 758.277924C982.350571 758.277924,959.354599 767.805771,942.398727 784.761642C925.442856 801.717514,915.915009 824.713486,915.915009 848.694519C915.915009 872.675552,925.442856 895.671524,942.398727 912.627396C959.354599 929.583267,982.350571 939.111115,1006.331604 939.111115C1030.312637 939.111115,1053.308609 929.583267,1070.264481 912.627396C1087.220352 895.671524,1096.748199 872.675552,1096.748199 848.694519Z" style="stroke:rgb(25.500488%,41.000366%,88.400269%); stroke-width: 2.500000;stroke-linecap: round;stroke-linejoin: round;stroke-miterlimit: 10.000000;fill: none;"></path>
  <path d="M1095.100250 690.673096C1095.100250 666.692062,1085.572403 643.696091,1068.616531 626.740219C1051.660660 609.784348,1028.664688 600.256500,1004.683655 600.256500C980.702621 600.256500,957.706650 609.784348,940.750778 626.740219C923.794907 643.696091,914.267059 666.692062,914.267059 690.673096C914.267059 714.654129,923.794907 737.650101,940.750778 754.605972C957.706650 771.561844,980.702621 781.089691,1004.683655 781.089691C1028.664688 781.089691,1051.660660 771.561844,1068.616531 754.605972C1085.572403 737.650101,1095.100250 714.654129,1095.100250 690.673096Z" style="stroke:rgb(25.500488%,41.000366%,88.400269%); stroke-width: 2.500000;stroke-linecap: round;stroke-linejoin: round;stroke-miterlimit: 10.000000;fill: none;"></path>
  <path d="M1083.344025 527.565094C1083.344025 503.584061,1073.816177 480.588089,1056.860306 463.632217C1039.904434 446.676346,1016.908463 437.148499,992.927429 437.148499C968.946396 437.148499,945.950424 446.676346,928.994553 463.632217C912.038681 480.588089,902.510834 503.584061,902.510834 527.565094C902.510834 551.546127,912.038681 574.542099,928.994553 591.497971C945.950424 608.453842,968.946396 617.981689,992.927429 617.981689C1016.908463 617.981689,1039.904434 608.453842,1056.860306 591.497971C1073.816177 574.542099,1083.344025 551.546127,1083.344025 527.565094Z" style="stroke:rgb(25.500488%,41.000366%,88.400269%); stroke-width: 2.500000;stroke-linecap: round;stroke-linejoin: round;stroke-miterlimit: 10.000000;fill: none;"></path>
  <path d="M1098.006866 376.343063C1098.006866 352.362030,1088.479019 329.366058,1071.523148 312.410187C1054.567276 295.454315,1031.571304 285.926468,1007.590271 285.926468C983.609238 285.926468,960.613266 295.454315,943.657394 312.410187C926.701523 329.366058,917.173676 352.362030,917.173676 376.343063C917.173676 400.324097,926.701523 423.320068,943.657394 440.275940C960.613266 457.231812,983.609238 466.759659,1007.590271 466.759659C1031.571304 466.759659,1054.567276 457.231812,1071.523148 440.275940C1088.479019 423.320068,1098.006866 400.324097,1098.006866 376.343063Z" style="stroke:rgb(25.500488%,41.000366%,88.400269%); stroke-width: 2.500000;stroke-linecap: round;stroke-linejoin: round;stroke-miterlimit: 10.000000;fill: none;"></path>
  <path d="M1122.271942 224.095947C1122.271942 200.114914,1112.744095 177.118942,1095.788223 160.163071C1078.832352 143.207199,1055.836380 133.679352,1031.855347 133.679352C1007.874313 133.679352,984.878342 143.207199,967.922470 160.163071C950.966599 177.118942,941.438751 200.114914,941.438751 224.095947C941.438751 248.076981,950.966599 271.072952,967.922470 288.028824C984.878342 304.984695,1007.874313 314.512543,1031.855347 314.512543C1055.836380 314.512543,1078.832352 304.984695,1095.788223 288.028824C1112.744095 271.072952,1122.271942 248.076981,1122.271942 224.095947Z" style="stroke:rgb(25.500488%,41.000366%,88.400269%); stroke-width: 2.500000;stroke-linecap: round;stroke-linejoin: round;stroke-miterlimit: 10.000000;fill: none;"></path>
  <path d="M965.535141 1532.813904C965.535141 1508.832870,956.007294 1485.836899,939.051422 1468.881027C922.095551 1451.925156,899.099579 1442.397308,875.118546 1442.397308C851.137512 1442.397308,828.141541 1451.925156,811.185669 1468.881027C794.229797 1485.836899,784.701950 1508.832870,784.701950 1532.813904C784.701950 1556.794937,794.229797 1579.790909,811.185669 1596.746780C828.141541 1613.702652,851.137512 1623.230499,875.118546 1623.230499C899.099579 1623.230499,922.095551 1613.702652,939.051422 1596.746780C956.007294 1579.790909,965.535141 1556.794937,965.535141 1532.813904Z" style="stroke:rgb(25.500488%,41.000366%,88.400269%); stroke-width: 2.500000;stroke-linecap: round;stroke-linejoin: round;stroke-miterlimit: 10.000000;fill: none;"></path>
  <path d="M971.607895 1381.695694C971.607895 1357.714661,962.080048 1334.718689,945.124176 1317.762817C928.168304 1300.806946,905.172333 1291.279099,881.191299 1291.279099C857.210266 1291.279099,834.214294 1300.806946,817.258423 1317.762817C800.302551 1334.718689,790.774704 1357.714661,790.774704 1381.695694C790.774704 1405.676727,800.302551 1428.672699,817.258423 1445.628571C834.214294 1462.584442,857.210266 1472.112289,881.191299 1472.112289C905.172333 1472.112289,928.168304 1462.584442,945.124176 1445.628571C962.080048 1428.672699,971.607895 1405.676727,971.607895 1381.695694Z" style="stroke:rgb(25.500488%,41.000366%,88.400269%); stroke-width: 2.500000;stroke-linecap: round;stroke-linejoin: round;stroke-miterlimit: 10.000000;fill: none;"></path>
  <path d="M969.272217 1226.918259C969.272217 1202.937225,959.744370 1179.941254,942.788498 1162.985382C925.832626 1146.029510,902.836655 1136.501663,878.855621 1136.501663C854.874588 1136.501663,831.878616 1146.029510,814.922745 1162.985382C797.966873 1179.941254,788.439026 1202.937225,788.439026 1226.918259C788.439026 1250.899292,797.966873 1273.895264,814.922745 1290.851135C831.878616 1307.807007,854.874588 1317.334854,878.855621 1317.334854C902.836655 1317.334854,925.832626 1307.807007,942.788498 1290.851135C959.744370 1273.895264,969.272217 1250.899292,969.272217 1226.918259Z" style="stroke:rgb(25.500488%,41.000366%,88.400269%); stroke-width: 2.500000;stroke-linecap: round;stroke-linejoin: round;stroke-miterlimit: 10.000000;fill: none;"></path>
  <path d="M972.217773 1081.068298C972.217773 1057.087265,962.689926 1034.091293,945.734055 1017.135422C928.778183 1000.179550,905.782211 990.651703,881.801178 990.651703C857.820145 990.651703,834.824173 1000.179550,817.868301 1017.135422C800.912430 1034.091293,791.384583 1057.087265,791.384583 1081.068298C791.384583 1105.049332,800.912430 1128.045303,817.868301 1145.001175C834.824173 1161.957047,857.820145 1171.484894,881.801178 1171.484894C905.782211 1171.484894,928.778183 1161.957047,945.734055 1145.001175C962.689926 1128.045303,972.217773 1105.049332,972.217773 1081.068298Z" style="stroke:rgb(25.500488%,41.000366%,88.400269%); stroke-width: 2.500000;stroke-linecap: round;stroke-linejoin: round;stroke-miterlimit: 10.000000;fill: none;"></path>
  <path d="M963.043747 916.532928C963.043747 892.551895,953.515900 869.555923,936.560028 852.600052C919.604156 835.644180,896.608185 826.116333,872.627151 826.116333C848.646118 826.116333,825.650146 835.644180,808.694275 852.600052C791.738403 869.555923,782.210556 892.551895,782.210556 916.532928C782.210556 940.513962,791.738403 963.509933,808.694275 980.465805C825.650146 997.421677,848.646118 1006.949524,872.627151 1006.949524C896.608185 1006.949524,919.604156 997.421677,936.560028 980.465805C953.515900 963.509933,963.043747 940.513962,963.043747 916.532928Z" style="stroke:rgb(25.500488%,41.000366%,88.400269%); stroke-width: 2.500000;stroke-linecap: round;stroke-linejoin: round;stroke-miterlimit: 10.000000;fill: none;"></path>
  <path d="M962.252213 758.978638C962.252213 734.997604,952.724365 712.001633,935.768494 695.045761C918.812622 678.089890,895.816650 668.562042,871.835617 668.562042C847.854584 668.562042,824.858612 678.089890,807.902740 695.045761C790.946869 712.001633,781.419022 734.997604,781.419022 758.978638C781.419022 782.959671,790.946869 805.955643,807.902740 822.911514C824.858612 839.867386,847.854584 849.395233,871.835617 849.395233C895.816650 849.395233,918.812622 839.867386,935.768494 822.911514C952.724365 805.955643,962.252213 782.959671,962.252213 758.978638Z" style="stroke:rgb(25.500488%,41.000366%,88.400269%); stroke-width: 2.500000;stroke-linecap: round;stroke-linejoin: round;stroke-miterlimit: 10.000000;fill: none;"></path>
  <path d="M961.006531 600.736618C961.006531 576.755585,951.478683 553.759613,934.522812 536.803741C917.566940 519.847870,894.570969 510.320023,870.589935 510.320023C846.608902 510.320023,823.612930 519.847870,806.657059 536.803741C789.701187 553.759613,780.173340 576.755585,780.173340 600.736618C780.173340 624.717651,789.701187 647.713623,806.657059 664.669495C823.612930 681.625366,846.608902 691.153214,870.589935 691.153214C894.570969 691.153214,917.566940 681.625366,934.522812 664.669495C951.478683 647.713623,961.006531 624.717651,961.006531 600.736618Z" style="stroke:rgb(25.500488%,41.000366%,88.400269%); stroke-width: 2.500000;stroke-linecap: round;stroke-linejoin: round;stroke-miterlimit: 10.000000;fill: none;"></path>
  <path d="M952.143936 436.071487C952.143936 412.090454,942.616089 389.094482,925.660217 372.138611C908.704346 355.182739,885.708374 345.654892,861.727341 345.654892C837.746307 345.654892,814.750336 355.182739,797.794464 372.138611C780.838593 389.094482,771.310745 412.090454,771.310745 436.071487C771.310745 460.052521,780.838593 483.048492,797.794464 500.004364C814.750336 516.960236,837.746307 526.488083,861.727341 526.488083C885.708374 526.488083,908.704346 516.960236,925.660217 500.004364C942.616089 483.048492,952.143936 460.052521,952.143936 436.071487Z" style="stroke:rgb(25.500488%,41.000366%,88.400269%); stroke-width: 2.500000;stroke-linecap: round;stroke-linejoin: round;stroke-miterlimit: 10.000000;fill: none;"></path>
  <path d="M973.476440 301.614426C973.476440 277.633392,963.948593 254.637421,946.992722 237.681549C930.036850 220.725677,907.040878 211.197830,883.059845 211.197830C859.078812 211.197830,836.082840 220.725677,819.126968 237.681549C802.171097 254.637421,792.643250 277.633392,792.643250 301.614426C792.643250 325.595459,802.171097 348.591431,819.126968 365.547302C836.082840 382.503174,859.078812 392.031021,883.059845 392.031021C907.040878 392.031021,930.036850 382.503174,946.992722 365.547302C963.948593 348.591431,973.476440 325.595459,973.476440 301.614426Z" style="stroke:rgb(25.500488%,41.000366%,88.400269%); stroke-width: 2.500000;stroke-linecap: round;stroke-linejoin: round;stroke-miterlimit: 10.000000;fill: none;"></path>
  <path d="M1003.113571 162.317337C1003.113571 138.336304,993.585724 115.340332,976.629852 98.384460C959.673981 81.428589,936.678009 71.900742,912.696976 71.900742C888.715942 71.900742,865.719971 81.428589,848.764099 98.384460C831.808228 115.340332,822.280380 138.336304,822.280380 162.317337C822.280380 186.298370,831.808228 209.294342,848.764099 226.250214C865.719971 243.206085,888.715942 252.733932,912.696976 252.733932C936.678009 252.733932,959.673981 243.206085,976.629852 226.250214C993.585724 209.294342,1003.113571 186.298370,1003.113571 162.317337Z" style="stroke:rgb(25.500488%,41.000366%,88.400269%); stroke-width: 2.500000;stroke-linecap: round;stroke-linejoin: round;stroke-miterlimit: 10.000000;fill: none;"></path>
  <path d="M833.686249 1463.976349C833.686249 1439.995316,824.158401 1416.999344,807.202530 1400.043472C790.246658 1383.087601,767.250687 1373.559753,743.269653 1373.559753C719.288620 1373.559753,696.292648 1383.087601,679.336777 1400.043472C662.380905 1416.999344,652.853058 1439.995316,652.853058 1463.976349C652.853058 1487.957382,662.380905 1510.953354,679.336777 1527.909225C696.292648 1544.865097,719.288620 1554.392944,743.269653 1554.392944C767.250687 1554.392944,790.246658 1544.865097,807.202530 1527.909225C824.158401 1510.953354,833.686249 1487.957382,833.686249 1463.976349Z" style="stroke:rgb(25.500488%,41.000366%,88.400269%); stroke-width: 2.500000;stroke-linecap: round;stroke-linejoin: round;stroke-miterlimit: 10.000000;fill: none;"></path>
  <path d="M833.647324 1310.340805C833.647324 1286.359772,824.119476 1263.363800,807.163605 1246.407928C790.207733 1229.452057,767.211761 1219.924210,743.230728 1219.924210C719.249695 1219.924210,696.253723 1229.452057,679.297852 1246.407928C662.341980 1263.363800,652.814133 1286.359772,652.814133 1310.340805C652.814133 1334.321838,662.341980 1357.317810,679.297852 1374.273682C696.253723 1391.229553,719.249695 1400.757401,743.230728 1400.757401C767.211761 1400.757401,790.207733 1391.229553,807.163605 1374.273682C824.119476 1357.317810,833.647324 1334.321838,833.647324 1310.340805Z" style="stroke:rgb(25.500488%,41.000366%,88.400269%); stroke-width: 2.500000;stroke-linecap: round;stroke-linejoin: round;stroke-miterlimit: 10.000000;fill: none;"></path>
  <path d="M836.346329 1152.423187C836.346329 1128.442154,826.818481 1105.446182,809.862610 1088.490311C792.906738 1071.534439,769.910767 1062.006592,745.929733 1062.006592C721.948700 1062.006592,698.952728 1071.534439,681.996857 1088.490311C665.040985 1105.446182,655.513138 1128.442154,655.513138 1152.423187C655.513138 1176.404221,665.040985 1199.400192,681.996857 1216.356064C698.952728 1233.311935,721.948700 1242.839783,745.929733 1242.839783C769.910767 1242.839783,792.906738 1233.311935,809.862610 1216.356064C826.818481 1199.400192,836.346329 1176.404221,836.346329 1152.423187Z" style="stroke:rgb(25.500488%,41.000366%,88.400269%); stroke-width: 2.500000;stroke-linecap: round;stroke-linejoin: round;stroke-miterlimit: 10.000000;fill: none;"></path>
  <path d="M840.304001 994.194138C840.304001 970.213104,830.776154 947.217133,813.820282 930.261261C796.864410 913.305389,773.868439 903.777542,749.887405 903.777542C725.906372 903.777542,702.910400 913.305389,685.954529 930.261261C668.998657 947.217133,659.470810 970.213104,659.470810 994.194138C659.470810 1018.175171,668.998657 1041.171143,685.954529 1058.127014C702.910400 1075.082886,725.906372 1084.610733,749.887405 1084.610733C773.868439 1084.610733,796.864410 1075.082886,813.820282 1058.127014C830.776154 1041.171143,840.304001 1018.175171,840.304001 994.194138Z" style="stroke:rgb(25.500488%,41.000366%,88.400269%); stroke-width: 2.500000;stroke-linecap: round;stroke-linejoin: round;stroke-miterlimit: 10.000000;fill: none;"></path>
  <path d="M829.118713 830.722794C829.118713 806.741760,819.590866 783.745789,802.634995 766.789917C785.679123 749.834045,762.683151 740.306198,738.702118 740.306198C714.721085 740.306198,691.725113 749.834045,674.769241 766.789917C657.813370 783.745789,648.285522 806.741760,648.285522 830.722794C648.285522 854.703827,657.813370 877.699799,674.769241 894.655670C691.725113 911.611542,714.721085 921.139389,738.702118 921.139389C762.683151 921.139389,785.679123 911.611542,802.634995 894.655670C819.590866 877.699799,829.118713 854.703827,829.118713 830.722794Z" style="stroke:rgb(25.500488%,41.000366%,88.400269%); stroke-width: 2.500000;stroke-linecap: round;stroke-linejoin: round;stroke-miterlimit: 10.000000;fill: none;"></path>
  <path d="M828.171463 672.221268C828.171463 648.240234,818.643616 625.244263,801.687744 608.288391C784.731873 591.332520,761.735901 581.804672,737.754868 581.804672C713.773834 581.804672,690.777863 591.332520,673.821991 608.288391C656.866119 625.244263,647.338272 648.240234,647.338272 672.221268C647.338272 696.202301,656.866119 719.198273,673.821991 736.154144C690.777863 753.110016,713.773834 762.637863,737.754868 762.637863C761.735901 762.637863,784.731873 753.110016,801.687744 736.154144C818.643616 719.198273,828.171463 696.202301,828.171463 672.221268Z" style="stroke:rgb(25.500488%,41.000366%,88.400269%); stroke-width: 2.500000;stroke-linecap: round;stroke-linejoin: round;stroke-miterlimit: 10.000000;fill: none;"></path>
  <path d="M829.482040 512.227478C829.482040 488.246445,819.954193 465.250473,802.998322 448.294601C786.042450 431.338730,763.046478 421.810883,739.065445 421.810883C715.084412 421.810883,692.088440 431.338730,675.132568 448.294601C658.176697 465.250473,648.648849 488.246445,648.648849 512.227478C648.648849 536.208511,658.176697 559.204483,675.132568 576.160355C692.088440 593.116226,715.084412 602.644073,739.065445 602.644073C763.046478 602.644073,786.042450 593.116226,802.998322 576.160355C819.954193 559.204483,829.482040 536.208511,829.482040 512.227478Z" style="stroke:rgb(25.500488%,41.000366%,88.400269%); stroke-width: 2.500000;stroke-linecap: round;stroke-linejoin: round;stroke-miterlimit: 10.000000;fill: none;"></path>
  <path d="M814.001694 351.351334C814.001694 327.370300,804.473846 304.374329,787.517975 287.418457C770.562103 270.462585,747.566132 260.934738,723.585098 260.934738C699.604065 260.934738,676.608093 270.462585,659.652222 287.418457C642.696350 304.374329,633.168503 327.370300,633.168503 351.351334C633.168503 375.332367,642.696350 398.328339,659.652222 415.284210C676.608093 432.240082,699.604065 441.767929,723.585098 441.767929C747.566132 441.767929,770.562103 432.240082,787.517975 415.284210C804.473846 398.328339,814.001694 375.332367,814.001694 351.351334Z" style="stroke:rgb(25.500488%,41.000366%,88.400269%); stroke-width: 2.500000;stroke-linecap: round;stroke-linejoin: round;stroke-miterlimit: 10.000000;fill: none;"></path>
  <path d="M845.377609 239.264862C845.377609 215.283829,835.849762 192.287857,818.893890 175.331985C801.938019 158.376114,778.942047 148.848267,754.961014 148.848267C730.979980 148.848267,707.984009 158.376114,691.028137 175.331985C674.072266 192.287857,664.544418 215.283829,664.544418 239.264862C664.544418 263.245895,674.072266 286.241867,691.028137 303.197739C707.984009 320.153610,730.979980 329.681458,754.961014 329.681458C778.942047 329.681458,801.938019 320.153610,818.893890 303.197739C835.849762 286.241867,845.377609 263.245895,845.377609 239.264862Z" style="stroke:rgb(25.500488%,41.000366%,88.400269%); stroke-width: 2.500000;stroke-linecap: round;stroke-linejoin: round;stroke-miterlimit: 10.000000;fill: none;"></path>
  <path d="M909.452972 90.949463C909.452972 66.968430,899.925125 43.972458,882.969254 27.016586C866.013382 10.060715,843.017410 0.532867,819.036377 0.532867C795.055344 0.532867,772.059372 10.060715,755.103500 27.016586C738.147629 43.972458,728.619781 66.968430,728.619781 90.949463C728.619781 114.930496,738.147629 137.926468,755.103500 154.882339C772.059372 171.838211,795.055344 181.366058,819.036377 181.366058C843.017410 181.366058,866.013382 171.838211,882.969254 154.882339C899.925125 137.926468,909.452972 114.930496,909.452972 90.949463Z" style="stroke:rgb(25.500488%,41.000366%,88.400269%); stroke-width: 2.500000;stroke-linecap: round;stroke-linejoin: round;stroke-miterlimit: 10.000000;fill: none;"></path>
  <path d="M701.837372 1532.710098C701.837372 1508.729065,692.309525 1485.733093,675.353653 1468.777222C658.397781 1451.821350,635.401810 1442.293503,611.420776 1442.293503C587.439743 1442.293503,564.443771 1451.821350,547.487900 1468.777222C530.532028 1485.733093,521.004181 1508.729065,521.004181 1532.710098C521.004181 1556.691132,530.532028 1579.687103,547.487900 1596.642975C564.443771 1613.598846,587.439743 1623.126694,611.420776 1623.126694C635.401810 1623.126694,658.397781 1613.598846,675.353653 1596.642975C692.309525 1579.687103,701.837372 1556.691132,701.837372 1532.710098Z" style="stroke:rgb(25.500488%,41.000366%,88.400269%); stroke-width: 2.500000;stroke-linecap: round;stroke-linejoin: round;stroke-miterlimit: 10.000000;fill: none;"></path>
  <path d="M696.270676 1375.908401C696.270676 1351.927368,686.742828 1328.931396,669.786957 1311.975525C652.831085 1295.019653,629.835114 1285.491806,605.854080 1285.491806C581.873047 1285.491806,558.877075 1295.019653,541.921204 1311.975525C524.965332 1328.931396,515.437485 1351.927368,515.437485 1375.908401C515.437485 1399.889435,524.965332 1422.885406,541.921204 1439.841278C558.877075 1456.797150,581.873047 1466.324997,605.854080 1466.324997C629.835114 1466.324997,652.831085 1456.797150,669.786957 1439.841278C686.742828 1422.885406,696.270676 1399.889435,696.270676 1375.908401Z" style="stroke:rgb(25.500488%,41.000366%,88.400269%); stroke-width: 2.500000;stroke-linecap: round;stroke-linejoin: round;stroke-miterlimit: 10.000000;fill: none;"></path>
  <path d="M701.266418 1219.366241C701.266418 1195.385208,691.738571 1172.389236,674.782700 1155.433365C657.826828 1138.477493,634.830856 1128.949646,610.849823 1128.949646C586.868790 1128.949646,563.872818 1138.477493,546.916946 1155.433365C529.961075 1172.389236,520.433228 1195.385208,520.433228 1219.366241C520.433228 1243.347275,529.961075 1266.343246,546.916946 1283.299118C563.872818 1300.254990,586.868790 1309.782837,610.849823 1309.782837C634.830856 1309.782837,657.826828 1300.254990,674.782700 1283.299118C691.738571 1266.343246,701.266418 1243.347275,701.266418 1219.366241Z" style="stroke:rgb(25.500488%,41.000366%,88.400269%); stroke-width: 2.500000;stroke-linecap: round;stroke-linejoin: round;stroke-miterlimit: 10.000000;fill: none;"></path>
  <path d="M706.119446 1060.332687C706.119446 1036.351654,696.591599 1013.355682,679.635727 996.399811C662.679855 979.443939,639.683884 969.916092,615.702850 969.916092C591.721817 969.916092,568.725845 979.443939,551.769974 996.399811C534.814102 1013.355682,525.286255 1036.351654,525.286255 1060.332687C525.286255 1084.313721,534.814102 1107.309692,551.769974 1124.265564C568.725845 1141.221436,591.721817 1150.749283,615.702850 1150.749283C639.683884 1150.749283,662.679855 1141.221436,679.635727 1124.265564C696.591599 1107.309692,706.119446 1084.313721,706.119446 1060.332687Z" style="stroke:rgb(25.500488%,41.000366%,88.400269%); stroke-width: 2.500000;stroke-linecap: round;stroke-linejoin: round;stroke-miterlimit: 10.000000;fill: none;"></path>
  <path d="M707.014786 902.570770C707.014786 878.589737,697.486938 855.593765,680.531067 838.637894C663.575195 821.682022,640.579224 812.154175,616.598190 812.154175C592.617157 812.154175,569.621185 821.682022,552.665314 838.637894C535.709442 855.593765,526.181595 878.589737,526.181595 902.570770C526.181595 926.551804,535.709442 949.547775,552.665314 966.503647C569.621185 983.459518,592.617157 992.987366,616.598190 992.987366C640.579224 992.987366,663.575195 983.459518,680.531067 966.503647C697.486938 949.547775,707.014786 926.551804,707.014786 902.570770Z" style="stroke:rgb(25.500488%,41.000366%,88.400269%); stroke-width: 2.500000;stroke-linecap: round;stroke-linejoin: round;stroke-miterlimit: 10.000000;fill: none;"></path>
  <path d="M695.582947 739.242172C695.582947 715.261139,686.055099 692.265167,669.099228 675.309296C652.143356 658.353424,629.147385 648.825577,605.166351 648.825577C581.185318 648.825577,558.189346 658.353424,541.233475 675.309296C524.277603 692.265167,514.749756 715.261139,514.749756 739.242172C514.749756 763.223206,524.277603 786.219177,541.233475 803.175049C558.189346 820.130920,581.185318 829.658768,605.166351 829.658768C629.147385 829.658768,652.143356 820.130920,669.099228 803.175049C686.055099 786.219177,695.582947 763.223206,695.582947 739.242172Z" style="stroke:rgb(25.500488%,41.000366%,88.400269%); stroke-width: 2.500000;stroke-linecap: round;stroke-linejoin: round;stroke-miterlimit: 10.000000;fill: none;"></path>
  <path d="M700.461914 577.756165C700.461914 553.775131,690.934067 530.779160,673.978195 513.823288C657.022324 496.867416,634.026352 487.339569,610.045319 487.339569C586.064285 487.339569,563.068314 496.867416,546.112442 513.823288C529.156570 530.779160,519.628723 553.775131,519.628723 577.756165C519.628723 601.737198,529.156570 624.733170,546.112442 641.689041C563.068314 658.644913,586.064285 668.172760,610.045319 668.172760C634.026352 668.172760,657.022324 658.644913,673.978195 641.689041C690.934067 624.733170,700.461914 601.737198,700.461914 577.756165Z" style="stroke:rgb(25.500488%,41.000366%,88.400269%); stroke-width: 2.500000;stroke-linecap: round;stroke-linejoin: round;stroke-miterlimit: 10.000000;fill: none;"></path>
  <path d="M692.325974 420.098053C692.325974 396.117020,682.798126 373.121048,665.842255 356.165176C648.886383 339.209305,625.890411 329.681458,601.909378 329.681458C577.928345 329.681458,554.932373 339.209305,537.976501 356.165176C521.020630 373.121048,511.492783 396.117020,511.492783 420.098053C511.492783 444.079086,521.020630 467.075058,537.976501 484.030930C554.932373 500.986801,577.928345 510.514648,601.909378 510.514648C625.890411 510.514648,648.886383 500.986801,665.842255 484.030930C682.798126 467.075058,692.325974 444.079086,692.325974 420.098053Z" style="stroke:rgb(25.500488%,41.000366%,88.400269%); stroke-width: 2.500000;stroke-linecap: round;stroke-linejoin: round;stroke-miterlimit: 10.000000;fill: none;"></path>
  <path d="M673.977951 261.064499C673.977951 237.083466,664.450104 214.087494,647.494232 197.131622C630.538361 180.175751,607.542389 170.647903,583.561356 170.647903C559.580322 170.647903,536.584351 180.175751,519.628479 197.131622C502.672607 214.087494,493.144760 237.083466,493.144760 261.064499C493.144760 285.045532,502.672607 308.041504,519.628479 324.997375C536.584351 341.953247,559.580322 351.481094,583.561356 351.481094C607.542389 351.481094,630.538361 341.953247,647.494232 324.997375C664.450104 308.041504,673.977951 285.045532,673.977951 261.064499Z" style="stroke:rgb(25.500488%,41.000366%,88.400269%); stroke-width: 2.500000;stroke-linecap: round;stroke-linejoin: round;stroke-miterlimit: 10.000000;fill: none;"></path>
  <path d="M761.371140 133.419830C761.371140 109.438797,751.843292 86.442825,734.887421 69.486954C717.931549 52.531082,694.935577 43.003235,670.954544 43.003235C646.973511 43.003235,623.977539 52.531082,607.021667 69.486954C590.065796 86.442825,580.537949 109.438797,580.537949 133.419830C580.537949 157.400864,590.065796 180.396835,607.021667 197.352707C623.977539 214.308578,646.973511 223.836426,670.954544 223.836426C694.935577 223.836426,717.931549 214.308578,734.887421 197.352707C751.843292 180.396835,761.371140 157.400864,761.371140 133.419830Z" style="stroke:rgb(25.500488%,41.000366%,88.400269%); stroke-width: 2.500000;stroke-linecap: round;stroke-linejoin: round;stroke-miterlimit: 10.000000;fill: none;"></path>
  <path d="M566.303299 1466.039536C566.303299 1442.058502,556.775452 1419.062531,539.819580 1402.106659C522.863708 1385.150787,499.867737 1375.622940,475.886703 1375.622940C451.905670 1375.622940,428.909698 1385.150787,411.953827 1402.106659C394.997955 1419.062531,385.470108 1442.058502,385.470108 1466.039536C385.470108 1490.020569,394.997955 1513.016541,411.953827 1529.972412C428.909698 1546.928284,451.905670 1556.456131,475.886703 1556.456131C499.867737 1556.456131,522.863708 1546.928284,539.819580 1529.972412C556.775452 1513.016541,566.303299 1490.020569,566.303299 1466.039536Z" style="stroke:rgb(25.500488%,41.000366%,88.400269%); stroke-width: 2.500000;stroke-linecap: round;stroke-linejoin: round;stroke-miterlimit: 10.000000;fill: none;"></path>
  <path d="M566.186523 1303.930664C566.186523 1279.949631,556.658676 1256.953659,539.702805 1239.997787C522.746933 1223.041916,499.750961 1213.514069,475.769928 1213.514069C451.788895 1213.514069,428.792923 1223.041916,411.837051 1239.997787C394.881180 1256.953659,385.353333 1279.949631,385.353333 1303.930664C385.353333 1327.911697,394.881180 1350.907669,411.837051 1367.863541C428.792923 1384.819412,451.788895 1394.347260,475.769928 1394.347260C499.750961 1394.347260,522.746933 1384.819412,539.702805 1367.863541C556.658676 1350.907669,566.186523 1327.911697,566.186523 1303.930664Z" style="stroke:rgb(25.500488%,41.000366%,88.400269%); stroke-width: 2.500000;stroke-linecap: round;stroke-linejoin: round;stroke-miterlimit: 10.000000;fill: none;"></path>
  <path d="M582.808746 1139.538040C582.808746 1115.557007,573.280899 1092.561035,556.325027 1075.605164C539.369156 1058.649292,516.373184 1049.121445,492.392151 1049.121445C468.411118 1049.121445,445.415146 1058.649292,428.459274 1075.605164C411.503403 1092.561035,401.975555 1115.557007,401.975555 1139.538040C401.975555 1163.519073,411.503403 1186.515045,428.459274 1203.470917C445.415146 1220.426788,468.411118 1229.954636,492.392151 1229.954636C516.373184 1229.954636,539.369156 1220.426788,556.325027 1203.470917C573.280899 1186.515045,582.808746 1163.519073,582.808746 1139.538040Z" style="stroke:rgb(25.500488%,41.000366%,88.400269%); stroke-width: 2.500000;stroke-linecap: round;stroke-linejoin: round;stroke-miterlimit: 10.000000;fill: none;"></path>
  <path d="M572.985931 975.755280C572.985931 951.774246,563.458084 928.778275,546.502213 911.822403C529.546341 894.866531,506.550369 885.338684,482.569336 885.338684C458.588303 885.338684,435.592331 894.866531,418.636459 911.822403C401.680588 928.778275,392.152740 951.774246,392.152740 975.755280C392.152740 999.736313,401.680588 1022.732285,418.636459 1039.688156C435.592331 1056.644028,458.588303 1066.171875,482.569336 1066.171875C506.550369 1066.171875,529.546341 1056.644028,546.502213 1039.688156C563.458084 1022.732285,572.985931 999.736313,572.985931 975.755280Z" style="stroke:rgb(25.500488%,41.000366%,88.400269%); stroke-width: 2.500000;stroke-linecap: round;stroke-linejoin: round;stroke-miterlimit: 10.000000;fill: none;"></path>
  <path d="M572.791290 817.681946C572.791290 793.700912,563.263443 770.704941,546.307571 753.749069C529.351700 736.793198,506.355728 727.265350,482.374695 727.265350C458.393661 727.265350,435.397690 736.793198,418.441818 753.749069C401.485947 770.704941,391.958099 793.700912,391.958099 817.681946C391.958099 841.662979,401.485947 864.658951,418.441818 881.614822C435.397690 898.570694,458.393661 908.098541,482.374695 908.098541C506.355728 908.098541,529.351700 898.570694,546.307571 881.614822C563.263443 864.658951,572.791290 841.662979,572.791290 817.681946Z" style="stroke:rgb(25.500488%,41.000366%,88.400269%); stroke-width: 2.500000;stroke-linecap: round;stroke-linejoin: round;stroke-miterlimit: 10.000000;fill: none;"></path>
  <path d="M576.411591 647.670715C576.411591 623.689682,566.883743 600.693710,549.927872 583.737839C532.972000 566.781967,509.976028 557.254120,485.994995 557.254120C462.013962 557.254120,439.017990 566.781967,422.062119 583.737839C405.106247 600.693710,395.578400 623.689682,395.578400 647.670715C395.578400 671.651749,405.106247 694.647720,422.062119 711.603592C439.017990 728.559464,462.013962 738.087311,485.994995 738.087311C509.976028 738.087311,532.972000 728.559464,549.927872 711.603592C566.883743 694.647720,576.411591 671.651749,576.411591 647.670715Z" style="stroke:rgb(25.500488%,41.000366%,88.400269%); stroke-width: 2.500000;stroke-linecap: round;stroke-linejoin: round;stroke-miterlimit: 10.000000;fill: none;"></path>
  <path d="M569.651108 483.784149C569.651108 459.803116,560.123260 436.807144,543.167389 419.851273C526.211517 402.895401,503.215546 393.367554,479.234512 393.367554C455.253479 393.367554,432.257507 402.895401,415.301636 419.851273C398.345764 436.807144,388.817917 459.803116,388.817917 483.784149C388.817917 507.765182,398.345764 530.761154,415.301636 547.717026C432.257507 564.672897,455.253479 574.200745,479.234512 574.200745C503.215546 574.200745,526.211517 564.672897,543.167389 547.717026C560.123260 530.761154,569.651108 507.765182,569.651108 483.784149Z" style="stroke:rgb(25.500488%,41.000366%,88.400269%); stroke-width: 2.500000;stroke-linecap: round;stroke-linejoin: round;stroke-miterlimit: 10.000000;fill: none;"></path>
  <path d="M556.545364 323.310257C556.545364 299.329224,547.017517 276.333252,530.061646 259.377380C513.105774 242.421509,490.109802 232.893661,466.128769 232.893661C442.147736 232.893661,419.151764 242.421509,402.195892 259.377380C385.240021 276.333252,375.712173 299.329224,375.712173 323.310257C375.712173 347.291290,385.240021 370.287262,402.195892 387.243134C419.151764 404.199005,442.147736 413.726852,466.128769 413.726852C490.109802 413.726852,513.105774 404.199005,530.061646 387.243134C547.017517 370.287262,556.545364 347.291290,556.545364 323.310257Z" style="stroke:rgb(25.500488%,41.000366%,88.400269%); stroke-width: 2.500000;stroke-linecap: round;stroke-linejoin: round;stroke-miterlimit: 10.000000;fill: none;"></path>
  <path d="M446.586960 1491.861725C446.586960 1467.880692,437.059113 1444.884720,420.103241 1427.928848C403.147369 1410.972977,380.151398 1401.445129,356.170364 1401.445129C332.189331 1401.445129,309.193359 1410.972977,292.237488 1427.928848C275.281616 1444.884720,265.753769 1467.880692,265.753769 1491.861725C265.753769 1515.842758,275.281616 1538.838730,292.237488 1555.794601C309.193359 1572.750473,332.189331 1582.278320,356.170364 1582.278320C380.151398 1582.278320,403.147369 1572.750473,420.103241 1555.794601C437.059113 1538.838730,446.586960 1515.842758,446.586960 1491.861725Z" style="stroke:rgb(25.500488%,41.000366%,88.400269%); stroke-width: 2.500000;stroke-linecap: round;stroke-linejoin: round;stroke-miterlimit: 10.000000;fill: none;"></path>
  <path d="M436.271057 1375.454254C436.271057 1351.473221,426.743210 1328.477249,409.787338 1311.521378C392.831467 1294.565506,369.835495 1285.037659,345.854462 1285.037659C321.873428 1285.037659,298.877457 1294.565506,281.921585 1311.521378C264.965714 1328.477249,255.437866 1351.473221,255.437866 1375.454254C255.437866 1399.435287,264.965714 1422.431259,281.921585 1439.387131C298.877457 1456.343002,321.873428 1465.870850,345.854462 1465.870850C369.835495 1465.870850,392.831467 1456.343002,409.787338 1439.387131C426.743210 1422.431259,436.271057 1399.435287,436.271057 1375.454254Z" style="stroke:rgb(25.500488%,41.000366%,88.400269%); stroke-width: 2.500000;stroke-linecap: round;stroke-linejoin: round;stroke-miterlimit: 10.000000;fill: none;"></path>
  <path d="M448.053238 1208.479401C448.053238 1184.498367,438.525391 1161.502396,421.569519 1144.546524C404.613647 1127.590652,381.617676 1118.062805,357.636642 1118.062805C333.655609 1118.062805,310.659637 1127.590652,293.703766 1144.546524C276.747894 1161.502396,267.220047 1184.498367,267.220047 1208.479401C267.220047 1232.460434,276.747894 1255.456406,293.703766 1272.412277C310.659637 1289.368149,333.655609 1298.895996,357.636642 1298.895996C381.617676 1298.895996,404.613647 1289.368149,421.569519 1272.412277C438.525391 1255.456406,448.053238 1232.460434,448.053238 1208.479401Z" style="stroke:rgb(25.500488%,41.000366%,88.400269%); stroke-width: 2.500000;stroke-linecap: round;stroke-linejoin: round;stroke-miterlimit: 10.000000;fill: none;"></path>
  <path d="M450.038559 1050.367142C450.038559 1026.386108,440.510712 1003.390137,423.554840 986.434265C406.598969 969.478394,383.602997 959.950546,359.621964 959.950546C335.640930 959.950546,312.644958 969.478394,295.689087 986.434265C278.733215 1003.390137,269.205368 1026.386108,269.205368 1050.367142C269.205368 1074.348175,278.733215 1097.344147,295.689087 1114.300018C312.644958 1131.255890,335.640930 1140.783737,359.621964 1140.783737C383.602997 1140.783737,406.598969 1131.255890,423.554840 1114.300018C440.510712 1097.344147,450.038559 1074.348175,450.038559 1050.367142Z" style="stroke:rgb(25.500488%,41.000366%,88.400269%); stroke-width: 2.500000;stroke-linecap: round;stroke-linejoin: round;stroke-miterlimit: 10.000000;fill: none;"></path>
  <path d="M438.567795 896.796463C438.567795 872.815430,429.039948 849.819458,412.084076 832.863586C395.128204 815.907715,372.132233 806.379868,348.151199 806.379868C324.170166 806.379868,301.174194 815.907715,284.218323 832.863586C267.262451 849.819458,257.734604 872.815430,257.734604 896.796463C257.734604 920.777496,267.262451 943.773468,284.218323 960.729340C301.174194 977.685211,324.170166 987.213058,348.151199 987.213058C372.132233 987.213058,395.128204 977.685211,412.084076 960.729340C429.039948 943.773468,438.567795 920.777496,438.567795 896.796463Z" style="stroke:rgb(25.500488%,41.000366%,88.400269%); stroke-width: 2.500000;stroke-linecap: round;stroke-linejoin: round;stroke-miterlimit: 10.000000;fill: none;"></path>
  <path d="M453.451248 732.040512C453.451248 708.059479,443.923401 685.063507,426.967529 668.107635C410.011658 651.151764,387.015686 641.623917,363.034653 641.623917C339.053619 641.623917,316.057648 651.151764,299.101776 668.107635C282.145905 685.063507,272.618057 708.059479,272.618057 732.040512C272.618057 756.021545,282.145905 779.017517,299.101776 795.973389C316.057648 812.929260,339.053619 822.457108,363.034653 822.457108C387.015686 822.457108,410.011658 812.929260,426.967529 795.973389C443.923401 779.017517,453.451248 756.021545,453.451248 732.040512Z" style="stroke:rgb(25.500488%,41.000366%,88.400269%); stroke-width: 2.500000;stroke-linecap: round;stroke-linejoin: round;stroke-miterlimit: 10.000000;fill: none;"></path>
  <path d="M444.575684 567.336456C444.575684 543.355423,435.047836 520.359451,418.091965 503.403580C401.136093 486.447708,378.140121 476.919861,354.159088 476.919861C330.178055 476.919861,307.182083 486.447708,290.226212 503.403580C273.270340 520.359451,263.742493 543.355423,263.742493 567.336456C263.742493 591.317490,273.270340 614.313461,290.226212 631.269333C307.182083 648.225204,330.178055 657.753052,354.159088 657.753052C378.140121 657.753052,401.136093 648.225204,418.091965 631.269333C435.047836 614.313461,444.575684 591.317490,444.575684 567.336456Z" style="stroke:rgb(25.500488%,41.000366%,88.400269%); stroke-width: 2.500000;stroke-linecap: round;stroke-linejoin: round;stroke-miterlimit: 10.000000;fill: none;"></path>
  <path d="M431.690536 409.068481C431.690536 385.087448,422.162689 362.091476,405.206818 345.135605C388.250946 328.179733,365.254974 318.651886,341.273941 318.651886C317.292908 318.651886,294.296936 328.179733,277.341064 345.135605C260.385193 362.091476,250.857346 385.087448,250.857346 409.068481C250.857346 433.049515,260.385193 456.045486,277.341064 473.001358C294.296936 489.957230,317.292908 499.485077,341.273941 499.485077C365.254974 499.485077,388.250946 489.957230,405.206818 473.001358C422.162689 456.045486,431.690536 433.049515,431.690536 409.068481Z" style="stroke:rgb(25.500488%,41.000366%,88.400269%); stroke-width: 2.500000;stroke-linecap: round;stroke-linejoin: round;stroke-miterlimit: 10.000000;fill: none;"></path>
  <path d="M334.941666 1271.192291C334.941666 1247.211258,325.413818 1224.215286,308.457947 1207.259415C291.502075 1190.303543,268.506104 1180.775696,244.525070 1180.775696C220.544037 1180.775696,197.548065 1190.303543,180.592194 1207.259415C163.636322 1224.215286,154.108475 1247.211258,154.108475 1271.192291C154.108475 1295.173325,163.636322 1318.169296,180.592194 1335.125168C197.548065 1352.081039,220.544037 1361.608887,244.525070 1361.608887C268.506104 1361.608887,291.502075 1352.081039,308.457947 1335.125168C325.413818 1318.169296,334.941666 1295.173325,334.941666 1271.192291Z" style="stroke:rgb(25.500488%,41.000366%,88.400269%); stroke-width: 2.500000;stroke-linecap: round;stroke-linejoin: round;stroke-miterlimit: 10.000000;fill: none;"></path>
  <path d="M317.982056 1104.970047C317.982056 1080.989014,308.454208 1057.993042,291.498337 1041.037170C274.542465 1024.081299,251.546494 1014.553452,227.565460 1014.553452C203.584427 1014.553452,180.588455 1024.081299,163.632584 1041.037170C146.676712 1057.993042,137.148865 1080.989014,137.148865 1104.970047C137.148865 1128.951080,146.676712 1151.947052,163.632584 1168.902924C180.588455 1185.858795,203.584427 1195.386642,227.565460 1195.386642C251.546494 1195.386642,274.542465 1185.858795,291.498337 1168.902924C308.454208 1151.947052,317.982056 1128.951080,317.982056 1104.970047Z" style="stroke:rgb(25.500488%,41.000366%,88.400269%); stroke-width: 2.500000;stroke-linecap: round;stroke-linejoin: round;stroke-miterlimit: 10.000000;fill: none;"></path>
  <path d="M306.822723 983.125626C306.822723 959.144592,297.294876 936.148621,280.339005 919.192749C263.383133 902.236877,240.387161 892.709030,216.406128 892.709030C192.425095 892.709030,169.429123 902.236877,152.473251 919.192749C135.517380 936.148621,125.989532 959.144592,125.989532 983.125626C125.989532 1007.106659,135.517380 1030.102631,152.473251 1047.058502C169.429123 1064.014374,192.425095 1073.542221,216.406128 1073.542221C240.387161 1073.542221,263.383133 1064.014374,280.339005 1047.058502C297.294876 1030.102631,306.822723 1007.106659,306.822723 983.125626Z" style="stroke:rgb(25.500488%,41.000366%,88.400269%); stroke-width: 2.500000;stroke-linecap: round;stroke-linejoin: round;stroke-miterlimit: 10.000000;fill: none;"></path>
  <path d="M319.435379 817.136948C319.435379 793.155914,309.907532 770.159943,292.951660 753.204071C275.995789 736.248199,252.999817 726.720352,229.018784 726.720352C205.037750 726.720352,182.041779 736.248199,165.085907 753.204071C148.130035 770.159943,138.602188 793.155914,138.602188 817.136948C138.602188 841.117981,148.130035 864.113953,165.085907 881.069824C182.041779 898.025696,205.037750 907.553543,229.018784 907.553543C252.999817 907.553543,275.995789 898.025696,292.951660 881.069824C309.907532 864.113953,319.435379 841.117981,319.435379 817.136948Z" style="stroke:rgb(25.500488%,41.000366%,88.400269%); stroke-width: 2.500000;stroke-linecap: round;stroke-linejoin: round;stroke-miterlimit: 10.000000;fill: none;"></path>
  <path d="M321.796997 657.688171C321.796997 633.707138,312.269150 610.711166,295.313278 593.755295C278.357407 576.799423,255.361435 567.271576,231.380402 567.271576C207.399368 567.271576,184.403397 576.799423,167.447525 593.755295C150.491653 610.711166,140.963806 633.707138,140.963806 657.688171C140.963806 681.669205,150.491653 704.665176,167.447525 721.621048C184.403397 738.576920,207.399368 748.104767,231.380402 748.104767C255.361435 748.104767,278.357407 738.576920,295.313278 721.621048C312.269150 704.665176,321.796997 681.669205,321.796997 657.688171Z" style="stroke:rgb(25.500488%,41.000366%,88.400269%); stroke-width: 2.500000;stroke-linecap: round;stroke-linejoin: round;stroke-miterlimit: 10.000000;fill: none;"></path>
  <path d="M304.863358 498.654617C304.863358 474.673584,295.335510 451.677612,278.379639 434.721741C261.423767 417.765869,238.427795 408.238022,214.446762 408.238022C190.465729 408.238022,167.469757 417.765869,150.513885 434.721741C133.558014 451.677612,124.030167 474.673584,124.030167 498.654617C124.030167 522.635651,133.558014 545.631622,150.513885 562.587494C167.469757 579.543365,190.465729 589.071213,214.446762 589.071213C238.427795 589.071213,261.423767 579.543365,278.379639 562.587494C295.335510 545.631622,304.863358 522.635651,304.863358 498.654617Z" style="stroke:rgb(25.500488%,41.000366%,88.400269%); stroke-width: 2.500000;stroke-linecap: round;stroke-linejoin: round;stroke-miterlimit: 10.000000;fill: none;"></path>
  <path d="M204.623947 875.256348C204.623947 851.275314,195.096100 828.279343,178.140228 811.323471C161.184357 794.367599,138.188385 784.839752,114.207352 784.839752C90.226318 784.839752,67.230347 794.367599,50.274475 811.323471C33.318604 828.279343,23.790756 851.275314,23.790756 875.256348C23.790756 899.237381,33.318604 922.233353,50.274475 939.189224C67.230347 956.145096,90.226318 965.672943,114.207352 965.672943C138.188385 965.672943,161.184357 956.145096,178.140228 939.189224C195.096100 922.233353,204.623947 899.237381,204.623947 875.256348Z" style="stroke:rgb(25.500488%,41.000366%,88.400269%); stroke-width: 2.500000;stroke-linecap: round;stroke-linejoin: round;stroke-miterlimit: 10.000000;fill: none;"></path>
  <path d="M191.894516 709.176834C191.894516 685.195801,182.366669 662.199829,165.410797 645.243958C148.454926 628.288086,125.458954 618.760239,101.477921 618.760239C77.496887 618.760239,54.500916 628.288086,37.545044 645.243958C20.589172 662.199829,11.061325 685.195801,11.061325 709.176834C11.061325 733.157867,20.589172 756.153839,37.545044 773.109711C54.500916 790.065582,77.496887 799.593430,101.477921 799.593430C125.458954 799.593430,148.454926 790.065582,165.410797 773.109711C182.366669 756.153839,191.894516 733.157867,191.894516 709.176834Z" style="stroke:rgb(25.500488%,41.000366%,88.400269%); stroke-width: 2.500000;stroke-linecap: round;stroke-linejoin: round;stroke-miterlimit: 10.000000;fill: none;"></path>
  <path d="M181.435867 591.990799C181.435867 568.009766,171.908020 545.013794,154.952148 528.057922C137.996277 511.102051,115.000305 501.574203,91.019272 501.574203C67.038239 501.574203,44.042267 511.102051,27.086395 528.057922C10.130524 545.013794,0.602676 568.009766,0.602676 591.990799C0.602676 615.971832,10.130524 638.967804,27.086395 655.923676C44.042267 672.879547,67.038239 682.407394,91.019272 682.407394C115.000305 682.407394,137.996277 672.879547,154.952148 655.923676C171.908020 638.967804,181.435867 615.971832,181.435867 591.990799Z" style="stroke:rgb(25.500488%,41.000366%,88.400269%); stroke-width: 2.500000;stroke-linecap: round;stroke-linejoin: round;stroke-miterlimit: 10.000000;fill: none;"></path>
</svg>
