<?xml version="1.0"?>
<!-- Created by MetaPost 2.00 on 2022.03.02:1201 -->
<svg version="1.1" xmlns="http://www.w3.org/2000/svg" xmlns:xlink="http://www.w3.org/1999/xlink" width="1773.435181" height="1698.330231" viewBox="0 0 1773.435181 1698.330231">
<!-- Original BoundingBox: -880.099838 -821.694977 893.335342 876.635254 -->
  <path d="M880.000000 25.606476L215.136978 345.788666L50.926010 1065.228653L511.028137 1642.179443L1248.971863 1642.179443L1709.073990 1065.228653L1544.863022 345.788666L880.000000 25.606476Z" style="fill: rgb(100.000000%,100.000000%,100.000000%);stroke: none;"></path>
  <path d="M880.000000 25.606476L215.136978 345.788666" style="stroke:rgb(0.000000%,0.000000%,0.000000%); stroke-width: 2.500000;stroke-linecap: round;stroke-linejoin: round;stroke-miterlimit: 10.000000;fill: none;"></path>
  <path d="M215.136978 345.788666L50.926010 1065.228653" style="stroke:rgb(0.000000%,0.000000%,0.000000%); stroke-width: 2.500000;stroke-linecap: round;stroke-linejoin: round;stroke-miterlimit: 10.000000;fill: none;"></path>
  <path d="M50.926010 1065.228653L511.028137 1642.179443" style="stroke:rgb(0.000000%,0.000000%,0.000000%); stroke-width: 2.500000;stroke-linecap: round;stroke-linejoin: round;stroke-miterlimit: 10.000000;fill: none;"></path>
  <path d="M511.028137 1642.179443L1248.971863 1642.179443" style="stroke:rgb(0.000000%,0.000000%,0.000000%); stroke-width: 2.500000;stroke-linecap: round;stroke-linejoin: round;stroke-miterlimit: 10.000000;fill: none;"></path>
  <path d="M1248.971863 1642.179443L1709.073990 1065.228653" style="stroke:rgb(0.000000%,0.000000%,0.000000%); stroke-width: 2.500000;stroke-linecap: round;stroke-linejoin: round;stroke-miterlimit: 10.000000;fill: none;"></path>
  <path d="M1709.073990 1065.228653L1544.863022 345.788666" style="stroke:rgb(0.000000%,0.000000%,0.000000%); stroke-width: 2.500000;stroke-linecap: round;stroke-linejoin: round;stroke-miterlimit: 10.000000;fill: none;"></path>
  <path d="M1544.863022 345.788666L880.000000 25.606476" style="stroke:rgb(0.000000%,0.000000%,0.000000%); stroke-width: 2.500000;stroke-linecap: round;stroke-linejoin: round;stroke-miterlimit: 10.000000;fill: none;"></path>
  <path d="M1772.085342 984.505112C1772.085342 952.832108,1759.501419 922.460129,1737.106918 900.065628C1714.712418 877.671127,1684.340439 865.087204,1652.667435 865.087204C1620.994431 865.087204,1590.622452 877.671127,1568.227951 900.065628C1545.833450 922.460129,1533.249527 952.832108,1533.249527 984.505112C1533.249527 1016.178116,1545.833450 1046.550095,1568.227951 1068.944595C1590.622452 1091.339096,1620.994431 1103.923019,1652.667435 1103.923019C1684.340439 1103.923019,1714.712418 1091.339096,1737.106918 1068.944595C1759.501419 1046.550095,1772.085342 1016.178116,1772.085342 984.505112Z" style="stroke:rgb(25.500488%,41.000366%,88.400269%); stroke-width: 2.500000;stroke-linecap: round;stroke-linejoin: round;stroke-miterlimit: 10.000000;fill: none;"></path>
  <path d="M1713.978928 768.078812C1713.978928 736.405807,1701.395004 706.033829,1679.000504 683.639328C1656.606003 661.244827,1626.234024 648.660904,1594.561020 648.660904C1562.888016 648.660904,1532.516037 661.244827,1510.121536 683.639328C1487.727036 706.033829,1475.143112 736.405807,1475.143112 768.078812C1475.143112 799.751816,1487.727036 830.123795,1510.121536 852.518295C1532.516037 874.912796,1562.888016 887.496719,1594.561020 887.496719C1626.234024 887.496719,1656.606003 874.912796,1679.000504 852.518295C1701.395004 830.123795,1713.978928 799.751816,1713.978928 768.078812Z" style="stroke:rgb(25.500488%,41.000366%,88.400269%); stroke-width: 2.500000;stroke-linecap: round;stroke-linejoin: round;stroke-miterlimit: 10.000000;fill: none;"></path>
  <path d="M1649.812729 565.407059C1649.812729 533.734055,1637.228806 503.362076,1614.834305 480.967575C1592.439804 458.573074,1562.067825 445.989151,1530.394821 445.989151C1498.721817 445.989151,1468.349838 458.573074,1445.955338 480.967575C1423.560837 503.362076,1410.976913 533.734055,1410.976913 565.407059C1410.976913 597.080063,1423.560837 627.452042,1445.955338 649.846542C1468.349838 672.241043,1498.721817 684.824966,1530.394821 684.824966C1562.067825 684.824966,1592.439804 672.241043,1614.834305 649.846542C1637.228806 627.452042,1649.812729 597.080063,1649.812729 565.407059Z" style="stroke:rgb(25.500488%,41.000366%,88.400269%); stroke-width: 2.500000;stroke-linecap: round;stroke-linejoin: round;stroke-miterlimit: 10.000000;fill: none;"></path>
  <path d="M1576.329773 411.810425C1576.329773 380.137421,1563.745850 349.765442,1541.351349 327.370941C1518.956848 304.976440,1488.584869 292.392517,1456.911865 292.392517C1425.238861 292.392517,1394.866882 304.976440,1372.472382 327.370941C1350.077881 349.765442,1337.493958 380.137421,1337.493958 411.810425C1337.493958 443.483429,1350.077881 473.855408,1372.472382 496.249908C1394.866882 518.644409,1425.238861 531.228333,1456.911865 531.228333C1488.584869 531.228333,1518.956848 518.644409,1541.351349 496.249908C1563.745850 473.855408,1576.329773 443.483429,1576.329773 411.810425Z" style="stroke:rgb(25.500488%,41.000366%,88.400269%); stroke-width: 2.500000;stroke-linecap: round;stroke-linejoin: round;stroke-miterlimit: 10.000000;fill: none;"></path>
  <path d="M1442.819962 258.252731C1442.819962 226.579727,1430.236038 196.207748,1407.841537 173.813248C1385.447037 151.418747,1355.075058 138.834824,1323.402054 138.834824C1291.729050 138.834824,1261.357071 151.418747,1238.962570 173.813248C1216.568069 196.207748,1203.984146 226.579727,1203.984146 258.252731C1203.984146 289.925735,1216.568069 320.297714,1238.962570 342.692215C1261.357071 365.086716,1291.729050 377.670639,1323.402054 377.670639C1355.075058 377.670639,1385.447037 365.086716,1407.841537 342.692215C1430.236038 320.297714,1442.819962 289.925735,1442.819962 258.252731Z" style="stroke:rgb(25.500488%,41.000366%,88.400269%); stroke-width: 2.500000;stroke-linecap: round;stroke-linejoin: round;stroke-miterlimit: 10.000000;fill: none;"></path>
  <path d="M1682.784683 1121.583313C1682.784683 1089.910309,1670.200760 1059.538330,1647.806259 1037.143829C1625.411758 1014.749329,1595.039780 1002.165405,1563.366776 1002.165405C1531.693771 1002.165405,1501.321793 1014.749329,1478.927292 1037.143829C1456.532791 1059.538330,1443.948868 1089.910309,1443.948868 1121.583313C1443.948868 1153.256317,1456.532791 1183.628296,1478.927292 1206.022797C1501.321793 1228.417297,1531.693771 1241.001221,1563.366776 1241.001221C1595.039780 1241.001221,1625.411758 1228.417297,1647.806259 1206.022797C1670.200760 1183.628296,1682.784683 1153.256317,1682.784683 1121.583313Z" style="stroke:rgb(25.500488%,41.000366%,88.400269%); stroke-width: 2.500000;stroke-linecap: round;stroke-linejoin: round;stroke-miterlimit: 10.000000;fill: none;"></path>
  <path d="M1589.695023 924.270630C1589.695023 892.597626,1577.111099 862.225647,1554.716599 839.831146C1532.322098 817.436646,1501.950119 804.852722,1470.277115 804.852722C1438.604111 804.852722,1408.232132 817.436646,1385.837631 839.831146C1363.443130 862.225647,1350.859207 892.597626,1350.859207 924.270630C1350.859207 955.943634,1363.443130 986.315613,1385.837631 1008.710114C1408.232132 1031.104614,1438.604111 1043.688538,1470.277115 1043.688538C1501.950119 1043.688538,1532.322098 1031.104614,1554.716599 1008.710114C1577.111099 986.315613,1589.695023 955.943634,1589.695023 924.270630Z" style="stroke:rgb(25.500488%,41.000366%,88.400269%); stroke-width: 2.500000;stroke-linecap: round;stroke-linejoin: round;stroke-miterlimit: 10.000000;fill: none;"></path>
  <path d="M1516.549454 720.444000C1516.549454 688.770996,1503.965530 658.399017,1481.571030 636.004517C1459.176529 613.610016,1428.804550 601.026093,1397.131546 601.026093C1365.458542 601.026093,1335.086563 613.610016,1312.692062 636.004517C1290.297562 658.399017,1277.713638 688.770996,1277.713638 720.444000C1277.713638 752.117004,1290.297562 782.488983,1312.692062 804.883484C1335.086563 827.277985,1365.458542 839.861908,1397.131546 839.861908C1428.804550 839.861908,1459.176529 827.277985,1481.571030 804.883484C1503.965530 782.488983,1516.549454 752.117004,1516.549454 720.444000Z" style="stroke:rgb(25.500488%,41.000366%,88.400269%); stroke-width: 2.500000;stroke-linecap: round;stroke-linejoin: round;stroke-miterlimit: 10.000000;fill: none;"></path>
  <path d="M1434.658081 540.077942C1434.658081 508.404938,1422.074158 478.032959,1399.679657 455.638458C1377.285156 433.243958,1346.913177 420.660034,1315.240173 420.660034C1283.567169 420.660034,1253.195190 433.243958,1230.800690 455.638458C1208.406189 478.032959,1195.822266 508.404938,1195.822266 540.077942C1195.822266 571.750946,1208.406189 602.122925,1230.800690 624.517426C1253.195190 646.911926,1283.567169 659.495850,1315.240173 659.495850C1346.913177 659.495850,1377.285156 646.911926,1399.679657 624.517426C1422.074158 602.122925,1434.658081 571.750946,1434.658081 540.077942Z" style="stroke:rgb(25.500488%,41.000366%,88.400269%); stroke-width: 2.500000;stroke-linecap: round;stroke-linejoin: round;stroke-miterlimit: 10.000000;fill: none;"></path>
  <path d="M1348.925812 372.947388C1348.925812 341.274384,1336.341888 310.902405,1313.947388 288.507904C1291.552887 266.113403,1261.180908 253.529480,1229.507904 253.529480C1197.834900 253.529480,1167.462921 266.113403,1145.068420 288.507904C1122.673920 310.902405,1110.089996 341.274384,1110.089996 372.947388C1110.089996 404.620392,1122.673920 434.992371,1145.068420 457.386871C1167.462921 479.781372,1197.834900 492.365295,1229.507904 492.365295C1261.180908 492.365295,1291.552887 479.781372,1313.947388 457.386871C1336.341888 434.992371,1348.925812 404.620392,1348.925812 372.947388Z" style="stroke:rgb(25.500488%,41.000366%,88.400269%); stroke-width: 2.500000;stroke-linecap: round;stroke-linejoin: round;stroke-miterlimit: 10.000000;fill: none;"></path>
  <path d="M1224.434296 189.493042C1224.434296 157.820038,1211.850372 127.448059,1189.455872 105.053558C1167.061371 82.659058,1136.689392 70.075134,1105.016388 70.075134C1073.343384 70.075134,1042.971405 82.659058,1020.576904 105.053558C998.182404 127.448059,985.598480 157.820038,985.598480 189.493042C985.598480 221.166046,998.182404 251.538025,1020.576904 273.932526C1042.971405 296.327026,1073.343384 308.910950,1105.016388 308.910950C1136.689392 308.910950,1167.061371 296.327026,1189.455872 273.932526C1211.850372 251.538025,1224.434296 221.166046,1224.434296 189.493042Z" style="stroke:rgb(25.500488%,41.000366%,88.400269%); stroke-width: 2.500000;stroke-linecap: round;stroke-linejoin: round;stroke-miterlimit: 10.000000;fill: none;"></path>
  <path d="M1571.956863 1267.238632C1571.956863 1235.565628,1559.372940 1205.193649,1536.978439 1182.799149C1514.583939 1160.404648,1484.211960 1147.820724,1452.538956 1147.820724C1420.865952 1147.820724,1390.493973 1160.404648,1368.099472 1182.799149C1345.704971 1205.193649,1333.121048 1235.565628,1333.121048 1267.238632C1333.121048 1298.911636,1345.704971 1329.283615,1368.099472 1351.678116C1390.493973 1374.072617,1420.865952 1386.656540,1452.538956 1386.656540C1484.211960 1386.656540,1514.583939 1374.072617,1536.978439 1351.678116C1559.372940 1329.283615,1571.956863 1298.911636,1571.956863 1267.238632Z" style="stroke:rgb(25.500488%,41.000366%,88.400269%); stroke-width: 2.500000;stroke-linecap: round;stroke-linejoin: round;stroke-miterlimit: 10.000000;fill: none;"></path>
  <path d="M1476.985703 1074.765991C1476.985703 1043.092987,1464.401779 1012.721008,1442.007278 990.326508C1419.612778 967.932007,1389.240799 955.348083,1357.567795 955.348083C1325.894791 955.348083,1295.522812 967.932007,1273.128311 990.326508C1250.733810 1012.721008,1238.149887 1043.092987,1238.149887 1074.765991C1238.149887 1106.438995,1250.733810 1136.810974,1273.128311 1159.205475C1295.522812 1181.599976,1325.894791 1194.183899,1357.567795 1194.183899C1389.240799 1194.183899,1419.612778 1181.599976,1442.007278 1159.205475C1464.401779 1136.810974,1476.985703 1106.438995,1476.985703 1074.765991Z" style="stroke:rgb(25.500488%,41.000366%,88.400269%); stroke-width: 2.500000;stroke-linecap: round;stroke-linejoin: round;stroke-miterlimit: 10.000000;fill: none;"></path>
  <path d="M1393.238754 879.451614C1393.238754 847.778610,1380.654831 817.406631,1358.260330 795.012131C1335.865829 772.617630,1305.493851 760.033707,1273.820847 760.033707C1242.147842 760.033707,1211.775864 772.617630,1189.381363 795.012131C1166.986862 817.406631,1154.402939 847.778610,1154.402939 879.451614C1154.402939 911.124619,1166.986862 941.496597,1189.381363 963.891098C1211.775864 986.285599,1242.147842 998.869522,1273.820847 998.869522C1305.493851 998.869522,1335.865829 986.285599,1358.260330 963.891098C1380.654831 941.496597,1393.238754 911.124619,1393.238754 879.451614Z" style="stroke:rgb(25.500488%,41.000366%,88.400269%); stroke-width: 2.500000;stroke-linecap: round;stroke-linejoin: round;stroke-miterlimit: 10.000000;fill: none;"></path>
  <path d="M1307.376740 690.456528C1307.376740 658.783524,1294.792816 628.411545,1272.398315 606.017044C1250.003815 583.622543,1219.631836 571.038620,1187.958832 571.038620C1156.285828 571.038620,1125.913849 583.622543,1103.519348 606.017044C1081.124847 628.411545,1068.540924 658.783524,1068.540924 690.456528C1068.540924 722.129532,1081.124847 752.501511,1103.519348 774.896011C1125.913849 797.290512,1156.285828 809.874435,1187.958832 809.874435C1219.631836 809.874435,1250.003815 797.290512,1272.398315 774.896011C1294.792816 752.501511,1307.376740 722.129532,1307.376740 690.456528Z" style="stroke:rgb(25.500488%,41.000366%,88.400269%); stroke-width: 2.500000;stroke-linecap: round;stroke-linejoin: round;stroke-miterlimit: 10.000000;fill: none;"></path>
  <path d="M1220.022461 505.561859C1220.022461 473.888855,1207.438538 443.516876,1185.044037 421.122375C1162.649536 398.727875,1132.277557 386.143951,1100.604553 386.143951C1068.931549 386.143951,1038.559570 398.727875,1016.165070 421.122375C993.770569 443.516876,981.186646 473.888855,981.186646 505.561859C981.186646 537.234863,993.770569 567.606842,1016.165070 590.001343C1038.559570 612.395844,1068.931549 624.979767,1100.604553 624.979767C1132.277557 624.979767,1162.649536 612.395844,1185.044037 590.001343C1207.438538 567.606842,1220.022461 537.234863,1220.022461 505.561859Z" style="stroke:rgb(25.500488%,41.000366%,88.400269%); stroke-width: 2.500000;stroke-linecap: round;stroke-linejoin: round;stroke-miterlimit: 10.000000;fill: none;"></path>
  <path d="M1131.292740 319.810760C1131.292740 288.137756,1118.708817 257.765778,1096.314316 235.371277C1073.919815 212.976776,1043.547836 200.392853,1011.874832 200.392853C980.201828 200.392853,949.829849 212.976776,927.435349 235.371277C905.040848 257.765778,892.456924 288.137756,892.456924 319.810760C892.456924 351.483765,905.040848 381.855743,927.435349 404.250244C949.829849 426.644745,980.201828 439.228668,1011.874832 439.228668C1043.547836 439.228668,1073.919815 426.644745,1096.314316 404.250244C1118.708817 381.855743,1131.292740 351.483765,1131.292740 319.810760Z" style="stroke:rgb(25.500488%,41.000366%,88.400269%); stroke-width: 2.500000;stroke-linecap: round;stroke-linejoin: round;stroke-miterlimit: 10.000000;fill: none;"></path>
  <path d="M1033.492813 129.777603C1033.492813 98.104599,1020.908890 67.732620,998.514389 45.338120C976.119888 22.943619,945.747910 10.359695,914.074905 10.359695C882.401901 10.359695,852.029922 22.943619,829.635422 45.338120C807.240921 67.732620,794.656998 98.104599,794.656998 129.777603C794.656998 161.450607,807.240921 191.822586,829.635422 214.217087C852.029922 236.611588,882.401901 249.195511,914.074905 249.195511C945.747910 249.195511,976.119888 236.611588,998.514389 214.217087C1020.908890 191.822586,1033.492813 161.450607,1033.492813 129.777603Z" style="stroke:rgb(25.500488%,41.000366%,88.400269%); stroke-width: 2.500000;stroke-linecap: round;stroke-linejoin: round;stroke-miterlimit: 10.000000;fill: none;"></path>
  <path d="M1457.534714 1420.199432C1457.534714 1388.526428,1444.950790 1358.154449,1422.556290 1335.759949C1400.161789 1313.365448,1369.789810 1300.781525,1338.116806 1300.781525C1306.443802 1300.781525,1276.071823 1313.365448,1253.677322 1335.759949C1231.282822 1358.154449,1218.698898 1388.526428,1218.698898 1420.199432C1218.698898 1451.872437,1231.282822 1482.244415,1253.677322 1504.638916C1276.071823 1527.033417,1306.443802 1539.617340,1338.116806 1539.617340C1369.789810 1539.617340,1400.161789 1527.033417,1422.556290 1504.638916C1444.950790 1482.244415,1457.534714 1451.872437,1457.534714 1420.199432Z" style="stroke:rgb(25.500488%,41.000366%,88.400269%); stroke-width: 2.500000;stroke-linecap: round;stroke-linejoin: round;stroke-miterlimit: 10.000000;fill: none;"></path>
  <path d="M1364.263412 1232.164566C1364.263412 1200.491562,1351.679489 1170.119583,1329.284988 1147.725082C1306.890488 1125.330582,1276.518509 1112.746658,1244.845505 1112.746658C1213.172501 1112.746658,1182.800522 1125.330582,1160.406021 1147.725082C1138.011520 1170.119583,1125.427597 1200.491562,1125.427597 1232.164566C1125.427597 1263.837570,1138.011520 1294.209549,1160.406021 1316.604050C1182.800522 1338.998550,1213.172501 1351.582474,1244.845505 1351.582474C1276.518509 1351.582474,1306.890488 1338.998550,1329.284988 1316.604050C1351.679489 1294.209549,1364.263412 1263.837570,1364.263412 1232.164566Z" style="stroke:rgb(25.500488%,41.000366%,88.400269%); stroke-width: 2.500000;stroke-linecap: round;stroke-linejoin: round;stroke-miterlimit: 10.000000;fill: none;"></path>
  <path d="M1273.730026 1041.910828C1273.730026 1010.237823,1261.146103 979.865845,1238.751602 957.471344C1216.357101 935.076843,1185.985123 922.492920,1154.312119 922.492920C1122.639114 922.492920,1092.267136 935.076843,1069.872635 957.471344C1047.478134 979.865845,1034.894211 1010.237823,1034.894211 1041.910828C1034.894211 1073.583832,1047.478134 1103.955811,1069.872635 1126.350311C1092.267136 1148.744812,1122.639114 1161.328735,1154.312119 1161.328735C1185.985123 1161.328735,1216.357101 1148.744812,1238.751602 1126.350311C1261.146103 1103.955811,1273.730026 1073.583832,1273.730026 1041.910828Z" style="stroke:rgb(25.500488%,41.000366%,88.400269%); stroke-width: 2.500000;stroke-linecap: round;stroke-linejoin: round;stroke-miterlimit: 10.000000;fill: none;"></path>
  <path d="M1185.259827 852.708130C1185.259827 821.035126,1172.675903 790.663147,1150.281403 768.268646C1127.886902 745.874146,1097.514923 733.290222,1065.841919 733.290222C1034.168915 733.290222,1003.796936 745.874146,981.402435 768.268646C959.007935 790.663147,946.424011 821.035126,946.424011 852.708130C946.424011 884.381134,959.007935 914.753113,981.402435 937.147614C1003.796936 959.542114,1034.168915 972.126038,1065.841919 972.126038C1097.514923 972.126038,1127.886902 959.542114,1150.281403 937.147614C1172.675903 914.753113,1185.259827 884.381134,1185.259827 852.708130Z" style="stroke:rgb(25.500488%,41.000366%,88.400269%); stroke-width: 2.500000;stroke-linecap: round;stroke-linejoin: round;stroke-miterlimit: 10.000000;fill: none;"></path>
  <path d="M1096.854507 667.346313C1096.854507 635.673309,1084.270584 605.301331,1061.876083 582.906830C1039.481583 560.512329,1009.109604 547.928406,977.436600 547.928406C945.763596 547.928406,915.391617 560.512329,892.997116 582.906830C870.602615 605.301331,858.018692 635.673309,858.018692 667.346313C858.018692 699.019318,870.602615 729.391296,892.997116 751.785797C915.391617 774.180298,945.763596 786.764221,977.436600 786.764221C1009.109604 786.764221,1039.481583 774.180298,1061.876083 751.785797C1084.270584 729.391296,1096.854507 699.019318,1096.854507 667.346313Z" style="stroke:rgb(25.500488%,41.000366%,88.400269%); stroke-width: 2.500000;stroke-linecap: round;stroke-linejoin: round;stroke-miterlimit: 10.000000;fill: none;"></path>
  <path d="M1009.591080 481.737961C1009.591080 450.064957,997.007156 419.692978,974.612656 397.298477C952.218155 374.903976,921.846176 362.320053,890.173172 362.320053C858.500168 362.320053,828.128189 374.903976,805.733688 397.298477C783.339188 419.692978,770.755264 450.064957,770.755264 481.737961C770.755264 513.410965,783.339188 543.782944,805.733688 566.177444C828.128189 588.571945,858.500168 601.155869,890.173172 601.155869C921.846176 601.155869,952.218155 588.571945,974.612656 566.177444C997.007156 543.782944,1009.591080 513.410965,1009.591080 481.737961Z" style="stroke:rgb(25.500488%,41.000366%,88.400269%); stroke-width: 2.500000;stroke-linecap: round;stroke-linejoin: round;stroke-miterlimit: 10.000000;fill: none;"></path>
  <path d="M926.220428 298.478256C926.220428 266.805252,913.636505 236.433273,891.242004 214.038773C868.847504 191.644272,838.475525 179.060349,806.802521 179.060349C775.129517 179.060349,744.757538 191.644272,722.363037 214.038773C699.968536 236.433273,687.384613 266.805252,687.384613 298.478256C687.384613 330.151260,699.968536 360.523239,722.363037 382.917740C744.757538 405.312241,775.129517 417.896164,806.802521 417.896164C838.475525 417.896164,868.847504 405.312241,891.242004 382.917740C913.636505 360.523239,926.220428 330.151260,926.220428 298.478256Z" style="stroke:rgb(25.500488%,41.000366%,88.400269%); stroke-width: 2.500000;stroke-linecap: round;stroke-linejoin: round;stroke-miterlimit: 10.000000;fill: none;"></path>
  <path d="M842.564316 120.032654C842.564316 88.359650,829.980392 57.987671,807.585892 35.593170C785.191391 13.198669,754.819412 0.614746,723.146408 0.614746C691.473404 0.614746,661.101425 13.198669,638.706924 35.593170C616.312424 57.987671,603.728500 88.359650,603.728500 120.032654C603.728500 151.705658,616.312424 182.077637,638.706924 204.472137C661.101425 226.866638,691.473404 239.450562,723.146408 239.450562C754.819412 239.450562,785.191391 226.866638,807.585892 204.472137C829.980392 182.077637,842.564316 151.705658,842.564316 120.032654Z" style="stroke:rgb(25.500488%,41.000366%,88.400269%); stroke-width: 2.500000;stroke-linecap: round;stroke-linejoin: round;stroke-miterlimit: 10.000000;fill: none;"></path>
  <path d="M1337.013855 1577.027069C1337.013855 1545.354065,1324.429932 1514.982086,1302.035431 1492.587585C1279.640930 1470.193085,1249.268951 1457.609161,1217.595947 1457.609161C1185.922943 1457.609161,1155.550964 1470.193085,1133.156464 1492.587585C1110.761963 1514.982086,1098.178040 1545.354065,1098.178040 1577.027069C1098.178040 1608.700073,1110.761963 1639.072052,1133.156464 1661.466553C1155.550964 1683.861053,1185.922943 1696.444977,1217.595947 1696.444977C1249.268951 1696.444977,1279.640930 1683.861053,1302.035431 1661.466553C1324.429932 1639.072052,1337.013855 1608.700073,1337.013855 1577.027069Z" style="stroke:rgb(25.500488%,41.000366%,88.400269%); stroke-width: 2.500000;stroke-linecap: round;stroke-linejoin: round;stroke-miterlimit: 10.000000;fill: none;"></path>
  <path d="M1246.532379 1389.134949C1246.532379 1357.461945,1233.948456 1327.089966,1211.553955 1304.695465C1189.159454 1282.300964,1158.787476 1269.717041,1127.114471 1269.717041C1095.441467 1269.717041,1065.069489 1282.300964,1042.674988 1304.695465C1020.280487 1327.089966,1007.696564 1357.461945,1007.696564 1389.134949C1007.696564 1420.807953,1020.280487 1451.179932,1042.674988 1473.574432C1065.069489 1495.968933,1095.441467 1508.552856,1127.114471 1508.552856C1158.787476 1508.552856,1189.159454 1495.968933,1211.553955 1473.574432C1233.948456 1451.179932,1246.532379 1420.807953,1246.532379 1389.134949Z" style="stroke:rgb(25.500488%,41.000366%,88.400269%); stroke-width: 2.500000;stroke-linecap: round;stroke-linejoin: round;stroke-miterlimit: 10.000000;fill: none;"></path>
  <path d="M1154.883072 1198.842270C1154.883072 1167.169266,1142.299149 1136.797287,1119.904648 1114.402786C1097.510147 1092.008286,1067.138168 1079.424362,1035.465164 1079.424362C1003.792160 1079.424362,973.420181 1092.008286,951.025681 1114.402786C928.631180 1136.797287,916.047256 1167.169266,916.047256 1198.842270C916.047256 1230.515274,928.631180 1260.887253,951.025681 1283.281754C973.420181 1305.676254,1003.792160 1318.260178,1035.465164 1318.260178C1067.138168 1318.260178,1097.510147 1305.676254,1119.904648 1283.281754C1142.299149 1260.887253,1154.883072 1230.515274,1154.883072 1198.842270Z" style="stroke:rgb(25.500488%,41.000366%,88.400269%); stroke-width: 2.500000;stroke-linecap: round;stroke-linejoin: round;stroke-miterlimit: 10.000000;fill: none;"></path>
  <path d="M1063.700897 1009.483856C1063.700897 977.810852,1051.116974 947.438873,1028.722473 925.044373C1006.327972 902.649872,975.955994 890.065948,944.282990 890.065948C912.609985 890.065948,882.238007 902.649872,859.843506 925.044373C837.449005 947.438873,824.865082 977.810852,824.865082 1009.483856C824.865082 1041.156860,837.449005 1071.528839,859.843506 1093.923340C882.238007 1116.317841,912.609985 1128.901764,944.282990 1128.901764C975.955994 1128.901764,1006.327972 1116.317841,1028.722473 1093.923340C1051.116974 1071.528839,1063.700897 1041.156860,1063.700897 1009.483856Z" style="stroke:rgb(25.500488%,41.000366%,88.400269%); stroke-width: 2.500000;stroke-linecap: round;stroke-linejoin: round;stroke-miterlimit: 10.000000;fill: none;"></path>
  <path d="M973.660599 822.500046C973.660599 790.827042,961.076675 760.455063,938.682175 738.060562C916.287674 715.666061,885.915695 703.082138,854.242691 703.082138C822.569687 703.082138,792.197708 715.666061,769.803207 738.060562C747.408707 760.455063,734.824783 790.827042,734.824783 822.500046C734.824783 854.173050,747.408707 884.545029,769.803207 906.939529C792.197708 929.334030,822.569687 941.917953,854.242691 941.917953C885.915695 941.917953,916.287674 929.334030,938.682175 906.939529C961.076675 884.545029,973.660599 854.173050,973.660599 822.500046Z" style="stroke:rgb(25.500488%,41.000366%,88.400269%); stroke-width: 2.500000;stroke-linecap: round;stroke-linejoin: round;stroke-miterlimit: 10.000000;fill: none;"></path>
  <path d="M884.100418 636.554321C884.100418 604.881317,871.516495 574.509338,849.121994 552.114838C826.727493 529.720337,796.355515 517.136414,764.682510 517.136414C733.009506 517.136414,702.637527 529.720337,680.243027 552.114838C657.848526 574.509338,645.264603 604.881317,645.264603 636.554321C645.264603 668.227325,657.848526 698.599304,680.243027 720.993805C702.637527 743.388306,733.009506 755.972229,764.682510 755.972229C796.355515 755.972229,826.727493 743.388306,849.121994 720.993805C871.516495 698.599304,884.100418 668.227325,884.100418 636.554321Z" style="stroke:rgb(25.500488%,41.000366%,88.400269%); stroke-width: 2.500000;stroke-linecap: round;stroke-linejoin: round;stroke-miterlimit: 10.000000;fill: none;"></path>
  <path d="M795.552353 452.671783C795.552353 420.998779,782.968430 390.626801,760.573929 368.232300C738.179428 345.837799,707.807449 333.253876,676.134445 333.253876C644.461441 333.253876,614.089462 345.837799,591.694962 368.232300C569.300461 390.626801,556.716537 420.998779,556.716537 452.671783C556.716537 484.344788,569.300461 514.716766,591.694962 537.111267C614.089462 559.505768,644.461441 572.089691,676.134445 572.089691C707.807449 572.089691,738.179428 559.505768,760.573929 537.111267C782.968430 514.716766,795.552353 484.344788,795.552353 452.671783Z" style="stroke:rgb(25.500488%,41.000366%,88.400269%); stroke-width: 2.500000;stroke-linecap: round;stroke-linejoin: round;stroke-miterlimit: 10.000000;fill: none;"></path>
  <path d="M709.430817 273.849869C709.430817 242.176865,696.846893 211.804886,674.452393 189.410385C652.057892 167.015884,621.685913 154.431961,590.012909 154.431961C558.339905 154.431961,527.967926 167.015884,505.573425 189.410385C483.178925 211.804886,470.595001 242.176865,470.595001 273.849869C470.595001 305.522873,483.178925 335.894852,505.573425 358.289352C527.967926 380.683853,558.339905 393.267776,590.012909 393.267776C621.685913 393.267776,652.057892 380.683853,674.452393 358.289352C696.846893 335.894852,709.430817 305.522873,709.430817 273.849869Z" style="stroke:rgb(25.500488%,41.000366%,88.400269%); stroke-width: 2.500000;stroke-linecap: round;stroke-linejoin: round;stroke-miterlimit: 10.000000;fill: none;"></path>
  <path d="M1139.259995 1573.471649C1139.259995 1541.798645,1126.676071 1511.426666,1104.281570 1489.032166C1081.887070 1466.637665,1051.515091 1454.053741,1019.842087 1454.053741C988.169083 1454.053741,957.797104 1466.637665,935.402603 1489.032166C913.008102 1511.426666,900.424179 1541.798645,900.424179 1573.471649C900.424179 1605.144653,913.008102 1635.516632,935.402603 1657.911133C957.797104 1680.305634,988.169083 1692.889557,1019.842087 1692.889557C1051.515091 1692.889557,1081.887070 1680.305634,1104.281570 1657.911133C1126.676071 1635.516632,1139.259995 1605.144653,1139.259995 1573.471649Z" style="stroke:rgb(25.500488%,41.000366%,88.400269%); stroke-width: 2.500000;stroke-linecap: round;stroke-linejoin: round;stroke-miterlimit: 10.000000;fill: none;"></path>
  <path d="M1050.400513 1383.308731C1050.400513 1351.635727,1037.816589 1321.263748,1015.422089 1298.869247C993.027588 1276.474747,962.655609 1263.890823,930.982605 1263.890823C899.309601 1263.890823,868.937622 1276.474747,846.543121 1298.869247C824.148621 1321.263748,811.564697 1351.635727,811.564697 1383.308731C811.564697 1414.981735,824.148621 1445.353714,846.543121 1467.748215C868.937622 1490.142715,899.309601 1502.726639,930.982605 1502.726639C962.655609 1502.726639,993.027588 1490.142715,1015.422089 1467.748215C1037.816589 1445.353714,1050.400513 1414.981735,1050.400513 1383.308731Z" style="stroke:rgb(25.500488%,41.000366%,88.400269%); stroke-width: 2.500000;stroke-linecap: round;stroke-linejoin: round;stroke-miterlimit: 10.000000;fill: none;"></path>
  <path d="M958.102402 1193.911392C958.102402 1162.238388,945.518478 1131.866409,923.123978 1109.471909C900.729477 1087.077408,870.357498 1074.493484,838.684494 1074.493484C807.011490 1074.493484,776.639511 1087.077408,754.245010 1109.471909C731.850510 1131.866409,719.266586 1162.238388,719.266586 1193.911392C719.266586 1225.584396,731.850510 1255.956375,754.245010 1278.350876C776.639511 1300.745377,807.011490 1313.329300,838.684494 1313.329300C870.357498 1313.329300,900.729477 1300.745377,923.123978 1278.350876C945.518478 1255.956375,958.102402 1225.584396,958.102402 1193.911392Z" style="stroke:rgb(25.500488%,41.000366%,88.400269%); stroke-width: 2.500000;stroke-linecap: round;stroke-linejoin: round;stroke-miterlimit: 10.000000;fill: none;"></path>
  <path d="M865.337158 1006.771881C865.337158 975.098877,852.753235 944.726898,830.358734 922.332397C807.964233 899.937897,777.592255 887.353973,745.919250 887.353973C714.246246 887.353973,683.874268 899.937897,661.479767 922.332397C639.085266 944.726898,626.501343 975.098877,626.501343 1006.771881C626.501343 1038.444885,639.085266 1068.816864,661.479767 1091.211365C683.874268 1113.605865,714.246246 1126.189789,745.919250 1126.189789C777.592255 1126.189789,807.964233 1113.605865,830.358734 1091.211365C852.753235 1068.816864,865.337158 1038.444885,865.337158 1006.771881Z" style="stroke:rgb(25.500488%,41.000366%,88.400269%); stroke-width: 2.500000;stroke-linecap: round;stroke-linejoin: round;stroke-miterlimit: 10.000000;fill: none;"></path>
  <path d="M775.543411 822.084824C775.543411 790.411819,762.959488 760.039841,740.564987 737.645340C718.170486 715.250839,687.798508 702.666916,656.125504 702.666916C624.452499 702.666916,594.080521 715.250839,571.686020 737.645340C549.291519 760.039841,536.707596 790.411819,536.707596 822.084824C536.707596 853.757828,549.291519 884.129807,571.686020 906.524307C594.080521 928.918808,624.452499 941.502731,656.125504 941.502731C687.798508 941.502731,718.170486 928.918808,740.564987 906.524307C762.959488 884.129807,775.543411 853.757828,775.543411 822.084824Z" style="stroke:rgb(25.500488%,41.000366%,88.400269%); stroke-width: 2.500000;stroke-linecap: round;stroke-linejoin: round;stroke-miterlimit: 10.000000;fill: none;"></path>
  <path d="M684.828354 638.137390C684.828354 606.464386,672.244431 576.092407,649.849930 553.697906C627.455429 531.303406,597.083450 518.719482,565.410446 518.719482C533.737442 518.719482,503.365463 531.303406,480.970963 553.697906C458.576462 576.092407,445.992538 606.464386,445.992538 638.137390C445.992538 669.810394,458.576462 700.182373,480.970963 722.576874C503.365463 744.971375,533.737442 757.555298,565.410446 757.555298C597.083450 757.555298,627.455429 744.971375,649.849930 722.576874C672.244431 700.182373,684.828354 669.810394,684.828354 638.137390Z" style="stroke:rgb(25.500488%,41.000366%,88.400269%); stroke-width: 2.500000;stroke-linecap: round;stroke-linejoin: round;stroke-miterlimit: 10.000000;fill: none;"></path>
  <path d="M593.542374 458.692627C593.542374 427.019623,580.958450 396.647644,558.563950 374.253143C536.169449 351.858643,505.797470 339.274719,474.124466 339.274719C442.451462 339.274719,412.079483 351.858643,389.684982 374.253143C367.290482 396.647644,354.706558 427.019623,354.706558 458.692627C354.706558 490.365631,367.290482 520.737610,389.684982 543.132111C412.079483 565.526611,442.451462 578.110535,474.124466 578.110535C505.797470 578.110535,536.169449 565.526611,558.563950 543.132111C580.958450 520.737610,593.542374 490.365631,593.542374 458.692627Z" style="stroke:rgb(25.500488%,41.000366%,88.400269%); stroke-width: 2.500000;stroke-linecap: round;stroke-linejoin: round;stroke-miterlimit: 10.000000;fill: none;"></path>
  <path d="M506.175125 282.024719C506.175125 250.351715,493.591202 219.979736,471.196701 197.585236C448.802200 175.190735,418.430222 162.606812,386.757217 162.606812C355.084213 162.606812,324.712234 175.190735,302.317734 197.585236C279.923233 219.979736,267.339310 250.351715,267.339310 282.024719C267.339310 313.697723,279.923233 344.069702,302.317734 366.464203C324.712234 388.858704,355.084213 401.442627,386.757217 401.442627C418.430222 401.442627,448.802200 388.858704,471.196701 366.464203C493.591202 344.069702,506.175125 313.697723,506.175125 282.024719Z" style="stroke:rgb(25.500488%,41.000366%,88.400269%); stroke-width: 2.500000;stroke-linecap: round;stroke-linejoin: round;stroke-miterlimit: 10.000000;fill: none;"></path>
  <path d="M948.331497 1567.567581C948.331497 1535.894577,935.747574 1505.522598,913.353073 1483.128098C890.958572 1460.733597,860.586594 1448.149673,828.913589 1448.149673C797.240585 1448.149673,766.868607 1460.733597,744.474106 1483.128098C722.079605 1505.522598,709.495682 1535.894577,709.495682 1567.567581C709.495682 1599.240585,722.079605 1629.612564,744.474106 1652.007065C766.868607 1674.401566,797.240585 1686.985489,828.913589 1686.985489C860.586594 1686.985489,890.958572 1674.401566,913.353073 1652.007065C935.747574 1629.612564,948.331497 1599.240585,948.331497 1567.567581Z" style="stroke:rgb(25.500488%,41.000366%,88.400269%); stroke-width: 2.500000;stroke-linecap: round;stroke-linejoin: round;stroke-miterlimit: 10.000000;fill: none;"></path>
  <path d="M857.058487 1373.304260C857.058487 1341.631256,844.474564 1311.259277,822.080063 1288.864777C799.685562 1266.470276,769.313583 1253.886353,737.640579 1253.886353C705.967575 1253.886353,675.595596 1266.470276,653.201096 1288.864777C630.806595 1311.259277,618.222672 1341.631256,618.222672 1373.304260C618.222672 1404.977264,630.806595 1435.349243,653.201096 1457.743744C675.595596 1480.138245,705.967575 1492.722168,737.640579 1492.722168C769.313583 1492.722168,799.685562 1480.138245,822.080063 1457.743744C844.474564 1435.349243,857.058487 1404.977264,857.058487 1373.304260Z" style="stroke:rgb(25.500488%,41.000366%,88.400269%); stroke-width: 2.500000;stroke-linecap: round;stroke-linejoin: round;stroke-miterlimit: 10.000000;fill: none;"></path>
  <path d="M756.585510 1186.047958C756.585510 1154.374954,744.001587 1124.002975,721.607086 1101.608475C699.212585 1079.213974,668.840607 1066.630051,637.167603 1066.630051C605.494598 1066.630051,575.122620 1079.213974,552.728119 1101.608475C530.333618 1124.002975,517.749695 1154.374954,517.749695 1186.047958C517.749695 1217.720963,530.333618 1248.092941,552.728119 1270.487442C575.122620 1292.881943,605.494598 1305.465866,637.167603 1305.465866C668.840607 1305.465866,699.212585 1292.881943,721.607086 1270.487442C744.001587 1248.092941,756.585510 1217.720963,756.585510 1186.047958Z" style="stroke:rgb(25.500488%,41.000366%,88.400269%); stroke-width: 2.500000;stroke-linecap: round;stroke-linejoin: round;stroke-miterlimit: 10.000000;fill: none;"></path>
  <path d="M662.353973 1001.088409C662.353973 969.415405,649.770050 939.043427,627.375549 916.648926C604.981049 894.254425,574.609070 881.670502,542.936066 881.670502C511.263062 881.670502,480.891083 894.254425,458.496582 916.648926C436.102081 939.043427,423.518158 969.415405,423.518158 1001.088409C423.518158 1032.761414,436.102081 1063.133392,458.496582 1085.527893C480.891083 1107.922394,511.263062 1120.506317,542.936066 1120.506317C574.609070 1120.506317,604.981049 1107.922394,627.375549 1085.527893C649.770050 1063.133392,662.353973 1032.761414,662.353973 1001.088409Z" style="stroke:rgb(25.500488%,41.000366%,88.400269%); stroke-width: 2.500000;stroke-linecap: round;stroke-linejoin: round;stroke-miterlimit: 10.000000;fill: none;"></path>
  <path d="M572.261780 817.517273C572.261780 785.844269,559.677856 755.472290,537.283356 733.077789C514.888855 710.683289,484.516876 698.099365,452.843872 698.099365C421.170868 698.099365,390.798889 710.683289,368.404388 733.077789C346.009888 755.472290,333.425964 785.844269,333.425964 817.517273C333.425964 849.190277,346.009888 879.562256,368.404388 901.956757C390.798889 924.351257,421.170868 936.935181,452.843872 936.935181C484.516876 936.935181,514.888855 924.351257,537.283356 901.956757C559.677856 879.562256,572.261780 849.190277,572.261780 817.517273Z" style="stroke:rgb(25.500488%,41.000366%,88.400269%); stroke-width: 2.500000;stroke-linecap: round;stroke-linejoin: round;stroke-miterlimit: 10.000000;fill: none;"></path>
  <path d="M482.351242 632.324158C482.351242 600.651154,469.767319 570.279175,447.372818 547.884674C424.978317 525.490173,394.606339 512.906250,362.933334 512.906250C331.260330 512.906250,300.888351 525.490173,278.493851 547.884674C256.099350 570.279175,243.515427 600.651154,243.515427 632.324158C243.515427 663.997162,256.099350 694.369141,278.493851 716.763641C300.888351 739.158142,331.260330 751.742065,362.933334 751.742065C394.606339 751.742065,424.978317 739.158142,447.372818 716.763641C469.767319 694.369141,482.351242 663.997162,482.351242 632.324158Z" style="stroke:rgb(25.500488%,41.000366%,88.400269%); stroke-width: 2.500000;stroke-linecap: round;stroke-linejoin: round;stroke-miterlimit: 10.000000;fill: none;"></path>
  <path d="M394.750427 437.373108C394.750427 405.700104,382.166504 375.328125,359.772003 352.933624C337.377502 330.539124,307.005524 317.955200,275.332520 317.955200C243.659515 317.955200,213.287537 330.539124,190.893036 352.933624C168.498535 375.328125,155.914612 405.700104,155.914612 437.373108C155.914612 469.046112,168.498535 499.418091,190.893036 521.812592C213.287537 544.207092,243.659515 556.791016,275.332520 556.791016C307.005524 556.791016,337.377502 544.207092,359.772003 521.812592C382.166504 499.418091,394.750427 469.046112,394.750427 437.373108Z" style="stroke:rgb(25.500488%,41.000366%,88.400269%); stroke-width: 2.500000;stroke-linecap: round;stroke-linejoin: round;stroke-miterlimit: 10.000000;fill: none;"></path>
  <path d="M765.344284 1563.389328C765.344284 1531.716324,752.760361 1501.344345,730.365860 1478.949844C707.971359 1456.555344,677.599380 1443.971420,645.926376 1443.971420C614.253372 1443.971420,583.881393 1456.555344,561.486893 1478.949844C539.092392 1501.344345,526.508469 1531.716324,526.508469 1563.389328C526.508469 1595.062332,539.092392 1625.434311,561.486893 1647.828812C583.881393 1670.223312,614.253372 1682.807236,645.926376 1682.807236C677.599380 1682.807236,707.971359 1670.223312,730.365860 1647.828812C752.760361 1625.434311,765.344284 1595.062332,765.344284 1563.389328Z" style="stroke:rgb(25.500488%,41.000366%,88.400269%); stroke-width: 2.500000;stroke-linecap: round;stroke-linejoin: round;stroke-miterlimit: 10.000000;fill: none;"></path>
  <path d="M669.127426 1367.594833C669.127426 1335.921829,656.543503 1305.549850,634.149002 1283.155350C611.754501 1260.760849,581.382523 1248.176926,549.709518 1248.176926C518.036514 1248.176926,487.664536 1260.760849,465.270035 1283.155350C442.875534 1305.549850,430.291611 1335.921829,430.291611 1367.594833C430.291611 1399.267838,442.875534 1429.639816,465.270035 1452.034317C487.664536 1474.428818,518.036514 1487.012741,549.709518 1487.012741C581.382523 1487.012741,611.754501 1474.428818,634.149002 1452.034317C656.543503 1429.639816,669.127426 1399.267838,669.127426 1367.594833Z" style="stroke:rgb(25.500488%,41.000366%,88.400269%); stroke-width: 2.500000;stroke-linecap: round;stroke-linejoin: round;stroke-miterlimit: 10.000000;fill: none;"></path>
  <path d="M555.367050 1183.322998C555.367050 1151.649994,542.783127 1121.278015,520.388626 1098.883514C497.994125 1076.489014,467.622147 1063.905090,435.949142 1063.905090C404.276138 1063.905090,373.904160 1076.489014,351.509659 1098.883514C329.115158 1121.278015,316.531235 1151.649994,316.531235 1183.322998C316.531235 1214.996002,329.115158 1245.367981,351.509659 1267.762482C373.904160 1290.156982,404.276138 1302.740906,435.949142 1302.740906C467.622147 1302.740906,497.994125 1290.156982,520.388626 1267.762482C542.783127 1245.367981,555.367050 1214.996002,555.367050 1183.322998Z" style="stroke:rgb(25.500488%,41.000366%,88.400269%); stroke-width: 2.500000;stroke-linecap: round;stroke-linejoin: round;stroke-miterlimit: 10.000000;fill: none;"></path>
  <path d="M465.417587 1006.836761C465.417587 975.163757,452.833664 944.791779,430.439163 922.397278C408.044662 900.002777,377.672684 887.418854,345.999680 887.418854C314.326675 887.418854,283.954697 900.002777,261.560196 922.397278C239.165695 944.791779,226.581772 975.163757,226.581772 1006.836761C226.581772 1038.509766,239.165695 1068.881744,261.560196 1091.276245C283.954697 1113.670746,314.326675 1126.254669,345.999680 1126.254669C377.672684 1126.254669,408.044662 1113.670746,430.439163 1091.276245C452.833664 1068.881744,465.417587 1038.509766,465.417587 1006.836761Z" style="stroke:rgb(25.500488%,41.000366%,88.400269%); stroke-width: 2.500000;stroke-linecap: round;stroke-linejoin: round;stroke-miterlimit: 10.000000;fill: none;"></path>
  <path d="M388.197556 835.605789C388.197556 803.932785,375.613632 773.560806,353.219131 751.166306C330.824631 728.771805,300.452652 716.187881,268.779648 716.187881C237.106644 716.187881,206.734665 728.771805,184.340164 751.166306C161.945663 773.560806,149.361740 803.932785,149.361740 835.605789C149.361740 867.278793,161.945663 897.650772,184.340164 920.045273C206.734665 942.439774,237.106644 955.023697,268.779648 955.023697C300.452652 955.023697,330.824631 942.439774,353.219131 920.045273C375.613632 897.650772,388.197556 867.278793,388.197556 835.605789Z" style="stroke:rgb(25.500488%,41.000366%,88.400269%); stroke-width: 2.500000;stroke-linecap: round;stroke-linejoin: round;stroke-miterlimit: 10.000000;fill: none;"></path>
  <path d="M322.396393 623.889771C322.396393 592.216766,309.812469 561.844788,287.417969 539.450287C265.023468 517.055786,234.651489 504.471863,202.978485 504.471863C171.305481 504.471863,140.933502 517.055786,118.539001 539.450287C96.144501 561.844788,83.560577 592.216766,83.560577 623.889771C83.560577 655.562775,96.144501 685.934753,118.539001 708.329254C140.933502 730.723755,171.305481 743.307678,202.978485 743.307678C234.651489 743.307678,265.023468 730.723755,287.417969 708.329254C309.812469 685.934753,322.396393 655.562775,322.396393 623.889771Z" style="stroke:rgb(25.500488%,41.000366%,88.400269%); stroke-width: 2.500000;stroke-linecap: round;stroke-linejoin: round;stroke-miterlimit: 10.000000;fill: none;"></path>
  <path d="M602.495789 1547.740295C602.495789 1516.067291,589.911865 1485.695312,567.517365 1463.300812C545.122864 1440.906311,514.750885 1428.322388,483.077881 1428.322388C451.404877 1428.322388,421.032898 1440.906311,398.638397 1463.300812C376.243896 1485.695312,363.659973 1516.067291,363.659973 1547.740295C363.659973 1579.413300,376.243896 1609.785278,398.638397 1632.179779C421.032898 1654.574280,451.404877 1667.158203,483.077881 1667.158203C514.750885 1667.158203,545.122864 1654.574280,567.517365 1632.179779C589.911865 1609.785278,602.495789 1579.413300,602.495789 1547.740295Z" style="stroke:rgb(25.500488%,41.000366%,88.400269%); stroke-width: 2.500000;stroke-linecap: round;stroke-linejoin: round;stroke-miterlimit: 10.000000;fill: none;"></path>
  <path d="M469.518005 1367.374237C469.518005 1335.701233,456.934082 1305.329254,434.539581 1282.934753C412.145081 1260.540253,381.773102 1247.956329,350.100098 1247.956329C318.427094 1247.956329,288.055115 1260.540253,265.660614 1282.934753C243.266113 1305.329254,230.682190 1335.701233,230.682190 1367.374237C230.682190 1399.047241,243.266113 1429.419220,265.660614 1451.813721C288.055115 1474.208221,318.427094 1486.792145,350.100098 1486.792145C381.773102 1486.792145,412.145081 1474.208221,434.539581 1451.813721C456.934082 1429.419220,469.518005 1399.047241,469.518005 1367.374237Z" style="stroke:rgb(25.500488%,41.000366%,88.400269%); stroke-width: 2.500000;stroke-linecap: round;stroke-linejoin: round;stroke-miterlimit: 10.000000;fill: none;"></path>
  <path d="M351.073303 1190.836090C351.073303 1159.163086,338.489380 1128.791107,316.094879 1106.396606C293.700378 1084.002106,263.328400 1071.418182,231.655396 1071.418182C199.982391 1071.418182,169.610413 1084.002106,147.215912 1106.396606C124.821411 1128.791107,112.237488 1159.163086,112.237488 1190.836090C112.237488 1222.509094,124.821411 1252.881073,147.215912 1275.275574C169.610413 1297.670074,199.982391 1310.253998,231.655396 1310.253998C263.328400 1310.253998,293.700378 1297.670074,316.094879 1275.275574C338.489380 1252.881073,351.073303 1222.509094,351.073303 1190.836090Z" style="stroke:rgb(25.500488%,41.000366%,88.400269%); stroke-width: 2.500000;stroke-linecap: round;stroke-linejoin: round;stroke-miterlimit: 10.000000;fill: none;"></path>
  <path d="M276.798813 1037.641724C276.798813 1005.968719,264.214890 975.596741,241.820389 953.202240C219.425888 930.807739,189.053909 918.223816,157.380905 918.223816C125.707901 918.223816,95.335922 930.807739,72.941422 953.202240C50.546921 975.596741,37.962997 1005.968719,37.962997 1037.641724C37.962997 1069.314728,50.546921 1099.686707,72.941422 1122.081207C95.335922 1144.475708,125.707901 1157.059631,157.380905 1157.059631C189.053909 1157.059631,219.425888 1144.475708,241.820389 1122.081207C264.214890 1099.686707,276.798813 1069.314728,276.798813 1037.641724Z" style="stroke:rgb(25.500488%,41.000366%,88.400269%); stroke-width: 2.500000;stroke-linecap: round;stroke-linejoin: round;stroke-miterlimit: 10.000000;fill: none;"></path>
  <path d="M239.985977 837.513260C239.985977 805.840256,227.402054 775.468277,205.007553 753.073776C182.613052 730.679276,152.241074 718.095352,120.568069 718.095352C88.895065 718.095352,58.523087 730.679276,36.128586 753.073776C13.734085 775.468277,1.150162 805.840256,1.150162 837.513260C1.150162 869.186264,13.734085 899.558243,36.128586 921.952744C58.523087 944.347244,88.895065 956.931168,120.568069 956.931168C152.241074 956.931168,182.613052 944.347244,205.007553 921.952744C227.402054 899.558243,239.985977 869.186264,239.985977 837.513260Z" style="stroke:rgb(25.500488%,41.000366%,88.400269%); stroke-width: 2.500000;stroke-linecap: round;stroke-linejoin: round;stroke-miterlimit: 10.000000;fill: none;"></path>
</svg>
