<?xml version="1.0"?>
<!-- Created by MetaPost 2.00 on 2022.03.02:1201 -->
<svg version="1.1" xmlns="http://www.w3.org/2000/svg" xmlns:xlink="http://www.w3.org/1999/xlink" width="1868.587997" height="1868.587997" viewBox="0 0 1868.587997 1868.587997">
<!-- Original BoundingBox: -940.009918 -928.578079 928.578079 940.009918 -->
  <path d="M1790.393524 940.000000L1676.464462 514.803238L1365.196762 203.535538L940.000000 89.606476L514.803238 203.535538L203.535538 514.803238L89.606476 940.000000L203.535538 1365.196762L514.803238 1676.464462L940.000000 1790.393524L1365.196762 1676.464462L1676.464462 1365.196762L1790.393524 940.000000Z" style="fill: rgb(100.000000%,100.000000%,100.000000%);stroke: none;"></path>
  <path d="M1790.393524 940.000000L1676.464462 514.803238" style="stroke:rgb(0.000000%,0.000000%,0.000000%); stroke-width: 2.500000;stroke-linecap: round;stroke-linejoin: round;stroke-miterlimit: 10.000000;fill: none;"></path>
  <path d="M1676.464462 514.803238L1365.196762 203.535538" style="stroke:rgb(0.000000%,0.000000%,0.000000%); stroke-width: 2.500000;stroke-linecap: round;stroke-linejoin: round;stroke-miterlimit: 10.000000;fill: none;"></path>
  <path d="M1365.196762 203.535538L940.000000 89.606476" style="stroke:rgb(0.000000%,0.000000%,0.000000%); stroke-width: 2.500000;stroke-linecap: round;stroke-linejoin: round;stroke-miterlimit: 10.000000;fill: none;"></path>
  <path d="M940.000000 89.606476L514.803238 203.535538" style="stroke:rgb(0.000000%,0.000000%,0.000000%); stroke-width: 2.500000;stroke-linecap: round;stroke-linejoin: round;stroke-miterlimit: 10.000000;fill: none;"></path>
  <path d="M514.803238 203.535538L203.535538 514.803238" style="stroke:rgb(0.000000%,0.000000%,0.000000%); stroke-width: 2.500000;stroke-linecap: round;stroke-linejoin: round;stroke-miterlimit: 10.000000;fill: none;"></path>
  <path d="M203.535538 514.803238L89.606476 940.000000" style="stroke:rgb(0.000000%,0.000000%,0.000000%); stroke-width: 2.500000;stroke-linecap: round;stroke-linejoin: round;stroke-miterlimit: 10.000000;fill: none;"></path>
  <path d="M89.606476 940.000000L203.535538 1365.196762" style="stroke:rgb(0.000000%,0.000000%,0.000000%); stroke-width: 2.500000;stroke-linecap: round;stroke-linejoin: round;stroke-miterlimit: 10.000000;fill: none;"></path>
  <path d="M203.535538 1365.196762L514.803238 1676.464462" style="stroke:rgb(0.000000%,0.000000%,0.000000%); stroke-width: 2.500000;stroke-linecap: round;stroke-linejoin: round;stroke-miterlimit: 10.000000;fill: none;"></path>
  <path d="M514.803238 1676.464462L940.000000 1790.393524" style="stroke:rgb(0.000000%,0.000000%,0.000000%); stroke-width: 2.500000;stroke-linecap: round;stroke-linejoin: round;stroke-miterlimit: 10.000000;fill: none;"></path>
  <path d="M940.000000 1790.393524L1365.196762 1676.464462" style="stroke:rgb(0.000000%,0.000000%,0.000000%); stroke-width: 2.500000;stroke-linecap: round;stroke-linejoin: round;stroke-miterlimit: 10.000000;fill: none;"></path>
  <path d="M1365.196762 1676.464462L1676.464462 1365.196762" style="stroke:rgb(0.000000%,0.000000%,0.000000%); stroke-width: 2.500000;stroke-linecap: round;stroke-linejoin: round;stroke-miterlimit: 10.000000;fill: none;"></path>
  <path d="M1676.464462 1365.196762L1790.393524 940.000000" style="stroke:rgb(0.000000%,0.000000%,0.000000%); stroke-width: 2.500000;stroke-linecap: round;stroke-linejoin: round;stroke-miterlimit: 10.000000;fill: none;"></path>
  <path d="M768.665222 1297.215622C768.665222 1210.260269,734.117203 1126.876785,672.635132 1065.394714C611.153061 1003.912643,527.769577 969.364624,440.814224 969.364624C353.858871 969.364624,270.475388 1003.912643,208.993317 1065.394714C147.511246 1126.876785,112.963226 1210.260269,112.963226 1297.215622C112.963226 1384.170975,147.511246 1467.554459,208.993317 1529.036530C270.475388 1590.518600,353.858871 1625.066620,440.814224 1625.066620C527.769577 1625.066620,611.153061 1590.518600,672.635132 1529.036530C734.117203 1467.554459,768.665222 1384.170975,768.665222 1297.215622Z" style="stroke:rgb(25.500488%,41.000366%,88.400269%); stroke-width: 2.500000;stroke-linecap: round;stroke-linejoin: round;stroke-miterlimit: 10.000000;fill: none;"></path>
  <path d="M1107.221405 1539.477081C1107.221405 1452.521729,1072.673386 1369.138245,1011.191315 1307.656174C949.709244 1246.174103,866.325760 1211.626083,779.370407 1211.626083C692.415054 1211.626083,609.031570 1246.174103,547.549500 1307.656174C486.067429 1369.138245,451.519409 1452.521729,451.519409 1539.477081C451.519409 1626.432434,486.067429 1709.815918,547.549500 1771.297989C609.031570 1832.780060,692.415054 1867.328079,779.370407 1867.328079C866.325760 1867.328079,949.709244 1832.780060,1011.191315 1771.297989C1072.673386 1709.815918,1107.221405 1626.432434,1107.221405 1539.477081Z" style="stroke:rgb(25.500488%,41.000366%,88.400269%); stroke-width: 2.500000;stroke-linecap: round;stroke-linejoin: round;stroke-miterlimit: 10.000000;fill: none;"></path>
  <path d="M656.942078 880.245636C656.942078 793.290283,622.394058 709.906799,560.911987 648.424728C499.429916 586.942657,416.046432 552.394638,329.091080 552.394638C242.135727 552.394638,158.752243 586.942657,97.270172 648.424728C35.788101 709.906799,1.240082 793.290283,1.240082 880.245636C1.240082 967.200989,35.788101 1050.584473,97.270172 1112.066544C158.752243 1173.548615,242.135727 1208.096634,329.091080 1208.096634C416.046432 1208.096634,499.429916 1173.548615,560.911987 1112.066544C622.394058 1050.584473,656.942078 967.200989,656.942078 880.245636Z" style="stroke:rgb(25.500488%,41.000366%,88.400269%); stroke-width: 2.500000;stroke-linecap: round;stroke-linejoin: round;stroke-miterlimit: 10.000000;fill: none;"></path>
  <path d="M1267.850998 940.000000C1267.850998 853.044647,1233.302979 769.661163,1171.820908 708.179092C1110.338837 646.697021,1026.955353 612.149002,940.000000 612.149002C853.044647 612.149002,769.661163 646.697021,708.179092 708.179092C646.697021 769.661163,612.149002 853.044647,612.149002 940.000000C612.149002 1026.955353,646.697021 1110.338837,708.179092 1171.820908C769.661163 1233.302979,853.044647 1267.850998,940.000000 1267.850998C1026.955353 1267.850998,1110.338837 1233.302979,1171.820908 1171.820908C1233.302979 1110.338837,1267.850998 1026.955353,1267.850998 940.000000Z" style="stroke:rgb(25.500488%,41.000366%,88.400269%); stroke-width: 2.500000;stroke-linecap: round;stroke-linejoin: round;stroke-miterlimit: 10.000000;fill: none;"></path>
  <path d="M1521.557266 1498.940140C1521.557266 1411.984787,1487.009247 1328.601303,1425.527176 1267.119232C1364.045105 1205.637161,1280.661621 1171.089142,1193.706268 1171.089142C1106.750916 1171.089142,1023.367432 1205.637161,961.885361 1267.119232C900.403290 1328.601303,865.855270 1411.984787,865.855270 1498.940140C865.855270 1585.895493,900.403290 1669.278976,961.885361 1730.761047C1023.367432 1792.243118,1106.750916 1826.791138,1193.706268 1826.791138C1280.661621 1826.791138,1364.045105 1792.243118,1425.527176 1730.761047C1487.009247 1669.278976,1521.557266 1585.895493,1521.557266 1498.940140Z" style="stroke:rgb(25.500488%,41.000366%,88.400269%); stroke-width: 2.500000;stroke-linecap: round;stroke-linejoin: round;stroke-miterlimit: 10.000000;fill: none;"></path>
  <path d="M829.003510 501.152512C829.003510 414.197159,794.455490 330.813675,732.973419 269.331604C671.491348 207.849533,588.107864 173.301514,501.152512 173.301514C414.197159 173.301514,330.813675 207.849533,269.331604 269.331604C207.849533 330.813675,173.301514 414.197159,173.301514 501.152512C173.301514 588.107864,207.849533 671.491348,269.331604 732.973419C330.813675 794.455490,414.197159 829.003510,501.152512 829.003510C588.107864 829.003510,671.491348 794.455490,732.973419 732.973419C794.455490 671.491348,829.003510 588.107864,829.003510 501.152512Z" style="stroke:rgb(25.500488%,41.000366%,88.400269%); stroke-width: 2.500000;stroke-linecap: round;stroke-linejoin: round;stroke-miterlimit: 10.000000;fill: none;"></path>
  <path d="M1208.096634 329.091080C1208.096634 242.135727,1173.548615 158.752243,1112.066544 97.270172C1050.584473 35.788101,967.200989 1.240082,880.245636 1.240082C793.290283 1.240082,709.906799 35.788101,648.424728 97.270172C586.942657 158.752243,552.394638 242.135727,552.394638 329.091080C552.394638 416.046432,586.942657 499.429916,648.424728 560.911987C709.906799 622.394058,793.290283 656.942078,880.245636 656.942078C967.200989 656.942078,1050.584473 622.394058,1112.066544 560.911987C1173.548615 499.429916,1208.096634 416.046432,1208.096634 329.091080Z" style="stroke:rgb(25.500488%,41.000366%,88.400269%); stroke-width: 2.500000;stroke-linecap: round;stroke-linejoin: round;stroke-miterlimit: 10.000000;fill: none;"></path>
  <path d="M1826.791138 1193.706268C1826.791138 1106.750916,1792.243118 1023.367432,1730.761047 961.885361C1669.278976 900.403290,1585.895493 865.855270,1498.940140 865.855270C1411.984787 865.855270,1328.601303 900.403290,1267.119232 961.885361C1205.637161 1023.367432,1171.089142 1106.750916,1171.089142 1193.706268C1171.089142 1280.661621,1205.637161 1364.045105,1267.119232 1425.527176C1328.601303 1487.009247,1411.984787 1521.557266,1498.940140 1521.557266C1585.895493 1521.557266,1669.278976 1487.009247,1730.761047 1425.527176C1792.243118 1364.045105,1826.791138 1280.661621,1826.791138 1193.706268Z" style="stroke:rgb(25.500488%,41.000366%,88.400269%); stroke-width: 2.500000;stroke-linecap: round;stroke-linejoin: round;stroke-miterlimit: 10.000000;fill: none;"></path>
  <path d="M1625.066620 440.814224C1625.066620 353.858871,1590.518600 270.475388,1529.036530 208.993317C1467.554459 147.511246,1384.170975 112.963226,1297.215622 112.963226C1210.260269 112.963226,1126.876785 147.511246,1065.394714 208.993317C1003.912643 270.475388,969.364624 353.858871,969.364624 440.814224C969.364624 527.769577,1003.912643 611.153061,1065.394714 672.635132C1126.876785 734.117203,1210.260269 768.665222,1297.215622 768.665222C1384.170975 768.665222,1467.554459 734.117203,1529.036530 672.635132C1590.518600 611.153061,1625.066620 527.769577,1625.066620 440.814224Z" style="stroke:rgb(25.500488%,41.000366%,88.400269%); stroke-width: 2.500000;stroke-linecap: round;stroke-linejoin: round;stroke-miterlimit: 10.000000;fill: none;"></path>
  <path d="M1867.328079 779.370407C1867.328079 692.415054,1832.780060 609.031570,1771.297989 547.549500C1709.815918 486.067429,1626.432434 451.519409,1539.477081 451.519409C1452.521729 451.519409,1369.138245 486.067429,1307.656174 547.549500C1246.174103 609.031570,1211.626083 692.415054,1211.626083 779.370407C1211.626083 866.325760,1246.174103 949.709244,1307.656174 1011.191315C1369.138245 1072.673386,1452.521729 1107.221405,1539.477081 1107.221405C1626.432434 1107.221405,1709.815918 1072.673386,1771.297989 1011.191315C1832.780060 949.709244,1867.328079 866.325760,1867.328079 779.370407Z" style="stroke:rgb(25.500488%,41.000366%,88.400269%); stroke-width: 2.500000;stroke-linecap: round;stroke-linejoin: round;stroke-miterlimit: 10.000000;fill: none;"></path>
</svg>
