<?xml version="1.0"?>
<!-- Created by MetaPost 2.00 on 2022.03.02:1201 -->
<svg version="1.1" xmlns="http://www.w3.org/2000/svg" xmlns:xlink="http://www.w3.org/1999/xlink" width="1817.579437" height="1833.851303" viewBox="0 0 1817.579437 1833.851303">
<!-- Original BoundingBox: -906.908203 -931.575531 910.671234 902.275772 -->
  <path d="M1756.393524 902.000000L1642.464462 476.803238L1331.196762 165.535538L906.000000 51.606476L480.803238 165.535538L169.535538 476.803238L55.606476 902.000000L169.535538 1327.196762L480.803238 1638.464462L906.000000 1752.393524L1331.196762 1638.464462L1642.464462 1327.196762L1756.393524 902.000000Z" style="fill: rgb(100.000000%,100.000000%,100.000000%);stroke: none;"></path>
  <path d="M1756.393524 902.000000L1642.464462 476.803238" style="stroke:rgb(0.000000%,0.000000%,0.000000%); stroke-width: 2.500000;stroke-linecap: round;stroke-linejoin: round;stroke-miterlimit: 10.000000;fill: none;"></path>
  <path d="M1642.464462 476.803238L1331.196762 165.535538" style="stroke:rgb(0.000000%,0.000000%,0.000000%); stroke-width: 2.500000;stroke-linecap: round;stroke-linejoin: round;stroke-miterlimit: 10.000000;fill: none;"></path>
  <path d="M1331.196762 165.535538L906.000000 51.606476" style="stroke:rgb(0.000000%,0.000000%,0.000000%); stroke-width: 2.500000;stroke-linecap: round;stroke-linejoin: round;stroke-miterlimit: 10.000000;fill: none;"></path>
  <path d="M906.000000 51.606476L480.803238 165.535538" style="stroke:rgb(0.000000%,0.000000%,0.000000%); stroke-width: 2.500000;stroke-linecap: round;stroke-linejoin: round;stroke-miterlimit: 10.000000;fill: none;"></path>
  <path d="M480.803238 165.535538L169.535538 476.803238" style="stroke:rgb(0.000000%,0.000000%,0.000000%); stroke-width: 2.500000;stroke-linecap: round;stroke-linejoin: round;stroke-miterlimit: 10.000000;fill: none;"></path>
  <path d="M169.535538 476.803238L55.606476 902.000000" style="stroke:rgb(0.000000%,0.000000%,0.000000%); stroke-width: 2.500000;stroke-linecap: round;stroke-linejoin: round;stroke-miterlimit: 10.000000;fill: none;"></path>
  <path d="M55.606476 902.000000L169.535538 1327.196762" style="stroke:rgb(0.000000%,0.000000%,0.000000%); stroke-width: 2.500000;stroke-linecap: round;stroke-linejoin: round;stroke-miterlimit: 10.000000;fill: none;"></path>
  <path d="M169.535538 1327.196762L480.803238 1638.464462" style="stroke:rgb(0.000000%,0.000000%,0.000000%); stroke-width: 2.500000;stroke-linecap: round;stroke-linejoin: round;stroke-miterlimit: 10.000000;fill: none;"></path>
  <path d="M480.803238 1638.464462L906.000000 1752.393524" style="stroke:rgb(0.000000%,0.000000%,0.000000%); stroke-width: 2.500000;stroke-linecap: round;stroke-linejoin: round;stroke-miterlimit: 10.000000;fill: none;"></path>
  <path d="M906.000000 1752.393524L1331.196762 1638.464462" style="stroke:rgb(0.000000%,0.000000%,0.000000%); stroke-width: 2.500000;stroke-linecap: round;stroke-linejoin: round;stroke-miterlimit: 10.000000;fill: none;"></path>
  <path d="M1331.196762 1638.464462L1642.464462 1327.196762" style="stroke:rgb(0.000000%,0.000000%,0.000000%); stroke-width: 2.500000;stroke-linecap: round;stroke-linejoin: round;stroke-miterlimit: 10.000000;fill: none;"></path>
  <path d="M1642.464462 1327.196762L1756.393524 902.000000" style="stroke:rgb(0.000000%,0.000000%,0.000000%); stroke-width: 2.500000;stroke-linecap: round;stroke-linejoin: round;stroke-miterlimit: 10.000000;fill: none;"></path>
  <path d="M587.089447 460.751953C587.089447 427.709198,573.961304 396.023727,550.598312 372.660751C527.235336 349.297760,495.549866 336.169617,462.507111 336.169617C429.464355 336.169617,397.778885 349.297760,374.415909 372.660751C351.052917 396.023727,337.924774 427.709198,337.924774 460.751953C337.924774 493.794708,351.052917 525.480179,374.415909 548.843155C397.778885 572.206146,429.464355 585.334290,462.507111 585.334290C495.549866 585.334290,527.235336 572.206146,550.598312 548.843155C573.961304 525.480179,587.089447 493.794708,587.089447 460.751953Z" style="stroke:rgb(25.500488%,41.000366%,88.400269%); stroke-width: 2.500000;stroke-linecap: round;stroke-linejoin: round;stroke-miterlimit: 10.000000;fill: none;"></path>
  <path d="M521.573746 664.708344C521.573746 631.665588,508.445602 599.980118,485.082611 576.617142C461.719635 553.254150,430.034164 540.126007,396.991409 540.126007C363.948654 540.126007,332.263184 553.254150,308.900208 576.617142C285.537216 599.980118,272.409073 631.665588,272.409073 664.708344C272.409073 697.751099,285.537216 729.436569,308.900208 752.799545C332.263184 776.162537,363.948654 789.290680,396.991409 789.290680C430.034164 789.290680,461.719635 776.162537,485.082611 752.799545C508.445602 729.436569,521.573746 697.751099,521.573746 664.708344Z" style="stroke:rgb(25.500488%,41.000366%,88.400269%); stroke-width: 2.500000;stroke-linecap: round;stroke-linejoin: round;stroke-miterlimit: 10.000000;fill: none;"></path>
  <path d="M469.358429 861.657700C469.358429 828.614944,456.230286 796.929474,432.867294 773.566498C409.504318 750.203506,377.818848 737.075363,344.776093 737.075363C311.733337 737.075363,280.047867 750.203506,256.684891 773.566498C233.321899 796.929474,220.193756 828.614944,220.193756 861.657700C220.193756 894.700455,233.321899 926.385925,256.684891 949.748901C280.047867 973.111893,311.733337 986.240036,344.776093 986.240036C377.818848 986.240036,409.504318 973.111893,432.867294 949.748901C456.230286 926.385925,469.358429 894.700455,469.358429 861.657700Z" style="stroke:rgb(25.500488%,41.000366%,88.400269%); stroke-width: 2.500000;stroke-linecap: round;stroke-linejoin: round;stroke-miterlimit: 10.000000;fill: none;"></path>
  <path d="M429.755753 1072.413483C429.755753 1039.370728,416.627609 1007.685257,393.264618 984.322281C369.901642 960.959290,338.216171 947.831146,305.173416 947.831146C272.130661 947.831146,240.445190 960.959290,217.082214 984.322281C193.719223 1007.685257,180.591080 1039.370728,180.591080 1072.413483C180.591080 1105.456238,193.719223 1137.141708,217.082214 1160.504684C240.445190 1183.867676,272.130661 1196.995819,305.173416 1196.995819C338.216171 1196.995819,369.901642 1183.867676,393.264618 1160.504684C416.627609 1137.141708,429.755753 1105.456238,429.755753 1072.413483Z" style="stroke:rgb(25.500488%,41.000366%,88.400269%); stroke-width: 2.500000;stroke-linecap: round;stroke-linejoin: round;stroke-miterlimit: 10.000000;fill: none;"></path>
  <path d="M789.514664 395.054596C789.514664 362.011841,776.386520 330.326370,753.023529 306.963394C729.660553 283.600403,697.975082 270.472260,664.932327 270.472260C631.889572 270.472260,600.204102 283.600403,576.841125 306.963394C553.478134 330.326370,540.349991 362.011841,540.349991 395.054596C540.349991 428.097351,553.478134 459.782822,576.841125 483.145798C600.204102 506.508789,631.889572 519.636932,664.932327 519.636932C697.975082 519.636932,729.660553 506.508789,753.023529 483.145798C776.386520 459.782822,789.514664 428.097351,789.514664 395.054596Z" style="stroke:rgb(25.500488%,41.000366%,88.400269%); stroke-width: 2.500000;stroke-linecap: round;stroke-linejoin: round;stroke-miterlimit: 10.000000;fill: none;"></path>
  <path d="M736.118530 610.974823C736.118530 577.932068,722.990387 546.246597,699.627396 522.883621C676.264420 499.520630,644.578949 486.392487,611.536194 486.392487C578.493439 486.392487,546.807968 499.520630,523.444992 522.883621C500.082001 546.246597,486.953857 577.932068,486.953857 610.974823C486.953857 644.017578,500.082001 675.703049,523.444992 699.066025C546.807968 722.429016,578.493439 735.557159,611.536194 735.557159C644.578949 735.557159,676.264420 722.429016,699.627396 699.066025C722.990387 675.703049,736.118530 644.017578,736.118530 610.974823Z" style="stroke:rgb(25.500488%,41.000366%,88.400269%); stroke-width: 2.500000;stroke-linecap: round;stroke-linejoin: round;stroke-miterlimit: 10.000000;fill: none;"></path>
  <path d="M670.836395 814.879303C670.836395 781.836548,657.708252 750.151077,634.345261 726.788101C610.982285 703.425110,579.296814 690.296967,546.254059 690.296967C513.211304 690.296967,481.525833 703.425110,458.162857 726.788101C434.799866 750.151077,421.671722 781.836548,421.671722 814.879303C421.671722 847.922058,434.799866 879.607529,458.162857 902.970505C481.525833 926.333496,513.211304 939.461639,546.254059 939.461639C579.296814 939.461639,610.982285 926.333496,634.345261 902.970505C657.708252 879.607529,670.836395 847.922058,670.836395 814.879303Z" style="stroke:rgb(25.500488%,41.000366%,88.400269%); stroke-width: 2.500000;stroke-linecap: round;stroke-linejoin: round;stroke-miterlimit: 10.000000;fill: none;"></path>
  <path d="M628.353058 1023.039902C628.353058 989.997147,615.224915 958.311676,591.861923 934.948700C568.498947 911.585709,536.813477 898.457565,503.770721 898.457565C470.727966 898.457565,439.042496 911.585709,415.679520 934.948700C392.316528 958.311676,379.188385 989.997147,379.188385 1023.039902C379.188385 1056.082657,392.316528 1087.768127,415.679520 1111.131104C439.042496 1134.494095,470.727966 1147.622238,503.770721 1147.622238C536.813477 1147.622238,568.498947 1134.494095,591.861923 1111.131104C615.224915 1087.768127,628.353058 1056.082657,628.353058 1023.039902Z" style="stroke:rgb(25.500488%,41.000366%,88.400269%); stroke-width: 2.500000;stroke-linecap: round;stroke-linejoin: round;stroke-miterlimit: 10.000000;fill: none;"></path>
  <path d="M571.972443 1238.583832C571.972443 1205.541077,558.844299 1173.855606,535.481308 1150.492630C512.118332 1127.129639,480.432861 1114.001495,447.390106 1114.001495C414.347351 1114.001495,382.661880 1127.129639,359.298904 1150.492630C335.935913 1173.855606,322.807770 1205.541077,322.807770 1238.583832C322.807770 1271.626587,335.935913 1303.312057,359.298904 1326.675034C382.661880 1350.038025,414.347351 1363.166168,447.390106 1363.166168C480.432861 1363.166168,512.118332 1350.038025,535.481308 1326.675034C558.844299 1303.312057,571.972443 1271.626587,571.972443 1238.583832Z" style="stroke:rgb(25.500488%,41.000366%,88.400269%); stroke-width: 2.500000;stroke-linecap: round;stroke-linejoin: round;stroke-miterlimit: 10.000000;fill: none;"></path>
  <path d="M986.256409 347.925858C986.256409 314.883102,973.128265 283.197632,949.765274 259.834656C926.402298 236.471664,894.716827 223.343521,861.674072 223.343521C828.631317 223.343521,796.945847 236.471664,773.582870 259.834656C750.219879 283.197632,737.091736 314.883102,737.091736 347.925858C737.091736 380.968613,750.219879 412.654083,773.582870 436.017059C796.945847 459.380051,828.631317 472.508194,861.674072 472.508194C894.716827 472.508194,926.402298 459.380051,949.765274 436.017059C973.128265 412.654083,986.256409 380.968613,986.256409 347.925858Z" style="stroke:rgb(25.500488%,41.000366%,88.400269%); stroke-width: 2.500000;stroke-linecap: round;stroke-linejoin: round;stroke-miterlimit: 10.000000;fill: none;"></path>
  <path d="M934.326553 559.343414C934.326553 526.300659,921.198410 494.615189,897.835419 471.252213C874.472443 447.889221,842.786972 434.761078,809.744217 434.761078C776.701462 434.761078,745.015991 447.889221,721.653015 471.252213C698.290024 494.615189,685.161880 526.300659,685.161880 559.343414C685.161880 592.386169,698.290024 624.071640,721.653015 647.434616C745.015991 670.797607,776.701462 683.925751,809.744217 683.925751C842.786972 683.925751,874.472443 670.797607,897.835419 647.434616C921.198410 624.071640,934.326553 592.386169,934.326553 559.343414Z" style="stroke:rgb(25.500488%,41.000366%,88.400269%); stroke-width: 2.500000;stroke-linecap: round;stroke-linejoin: round;stroke-miterlimit: 10.000000;fill: none;"></path>
  <path d="M880.956360 775.250671C880.956360 742.207916,867.828217 710.522446,844.465225 687.159470C821.102249 663.796478,789.416779 650.668335,756.374023 650.668335C723.331268 650.668335,691.645798 663.796478,668.282822 687.159470C644.919830 710.522446,631.791687 742.207916,631.791687 775.250671C631.791687 808.293427,644.919830 839.978897,668.282822 863.341873C691.645798 886.704865,723.331268 899.833008,756.374023 899.833008C789.416779 899.833008,821.102249 886.704865,844.465225 863.341873C867.828217 839.978897,880.956360 808.293427,880.956360 775.250671Z" style="stroke:rgb(25.500488%,41.000366%,88.400269%); stroke-width: 2.500000;stroke-linecap: round;stroke-linejoin: round;stroke-miterlimit: 10.000000;fill: none;"></path>
  <path d="M828.170090 975.781403C828.170090 942.738647,815.041946 911.053177,791.678955 887.690201C768.315979 864.327209,736.630508 851.199066,703.587753 851.199066C670.544998 851.199066,638.859528 864.327209,615.496552 887.690201C592.133560 911.053177,579.005417 942.738647,579.005417 975.781403C579.005417 1008.824158,592.133560 1040.509628,615.496552 1063.872604C638.859528 1087.235596,670.544998 1100.363739,703.587753 1100.363739C736.630508 1100.363739,768.315979 1087.235596,791.678955 1063.872604C815.041946 1040.509628,828.170090 1008.824158,828.170090 975.781403Z" style="stroke:rgb(25.500488%,41.000366%,88.400269%); stroke-width: 2.500000;stroke-linecap: round;stroke-linejoin: round;stroke-miterlimit: 10.000000;fill: none;"></path>
  <path d="M770.284271 1189.975815C770.284271 1156.933060,757.156128 1125.247589,733.793137 1101.884613C710.430161 1078.521622,678.744690 1065.393478,645.701935 1065.393478C612.659180 1065.393478,580.973709 1078.521622,557.610733 1101.884613C534.247742 1125.247589,521.119598 1156.933060,521.119598 1189.975815C521.119598 1223.018570,534.247742 1254.704041,557.610733 1278.067017C580.973709 1301.430008,612.659180 1314.558151,645.701935 1314.558151C678.744690 1314.558151,710.430161 1301.430008,733.793137 1278.067017C757.156128 1254.704041,770.284271 1223.018570,770.284271 1189.975815Z" style="stroke:rgb(25.500488%,41.000366%,88.400269%); stroke-width: 2.500000;stroke-linecap: round;stroke-linejoin: round;stroke-miterlimit: 10.000000;fill: none;"></path>
  <path d="M714.798996 1405.338089C714.798996 1372.295334,701.670853 1340.609863,678.307861 1317.246887C654.944885 1293.883896,623.259415 1280.755753,590.216660 1280.755753C557.173904 1280.755753,525.488434 1293.883896,502.125458 1317.246887C478.762466 1340.609863,465.634323 1372.295334,465.634323 1405.338089C465.634323 1438.380844,478.762466 1470.066315,502.125458 1493.429291C525.488434 1516.792282,557.173904 1529.920425,590.216660 1529.920425C623.259415 1529.920425,654.944885 1516.792282,678.307861 1493.429291C701.670853 1470.066315,714.798996 1438.380844,714.798996 1405.338089Z" style="stroke:rgb(25.500488%,41.000366%,88.400269%); stroke-width: 2.500000;stroke-linecap: round;stroke-linejoin: round;stroke-miterlimit: 10.000000;fill: none;"></path>
  <path d="M1189.421249 309.205536C1189.421249 276.162781,1176.293106 244.477310,1152.930115 221.114334C1129.567139 197.751343,1097.881668 184.623199,1064.838913 184.623199C1031.796158 184.623199,1000.110687 197.751343,976.747711 221.114334C953.384720 244.477310,940.256577 276.162781,940.256577 309.205536C940.256577 342.248291,953.384720 373.933762,976.747711 397.296738C1000.110687 420.659729,1031.796158 433.787872,1064.838913 433.787872C1097.881668 433.787872,1129.567139 420.659729,1152.930115 397.296738C1176.293106 373.933762,1189.421249 342.248291,1189.421249 309.205536Z" style="stroke:rgb(25.500488%,41.000366%,88.400269%); stroke-width: 2.500000;stroke-linecap: round;stroke-linejoin: round;stroke-miterlimit: 10.000000;fill: none;"></path>
  <path d="M1133.741348 516.989838C1133.741348 483.947083,1120.613205 452.261612,1097.250214 428.898636C1073.887238 405.535645,1042.201767 392.407501,1009.159012 392.407501C976.116257 392.407501,944.430786 405.535645,921.067810 428.898636C897.704819 452.261612,884.576675 483.947083,884.576675 516.989838C884.576675 550.032593,897.704819 581.718063,921.067810 605.081039C944.430786 628.444031,976.116257 641.572174,1009.159012 641.572174C1042.201767 641.572174,1073.887238 628.444031,1097.250214 605.081039C1120.613205 581.718063,1133.741348 550.032593,1133.741348 516.989838Z" style="stroke:rgb(25.500488%,41.000366%,88.400269%); stroke-width: 2.500000;stroke-linecap: round;stroke-linejoin: round;stroke-miterlimit: 10.000000;fill: none;"></path>
  <path d="M1076.763840 729.666077C1076.763840 696.623322,1063.635696 664.937851,1040.272705 641.574875C1016.909729 618.211884,985.224258 605.083740,952.181503 605.083740C919.138748 605.083740,887.453278 618.211884,864.090302 641.574875C840.727310 664.937851,827.599167 696.623322,827.599167 729.666077C827.599167 762.708832,840.727310 794.394302,864.090302 817.757278C887.453278 841.120270,919.138748 854.248413,952.181503 854.248413C985.224258 854.248413,1016.909729 841.120270,1040.272705 817.757278C1063.635696 794.394302,1076.763840 762.708832,1076.763840 729.666077Z" style="stroke:rgb(25.500488%,41.000366%,88.400269%); stroke-width: 2.500000;stroke-linecap: round;stroke-linejoin: round;stroke-miterlimit: 10.000000;fill: none;"></path>
  <path d="M1018.644440 946.572479C1018.644440 913.529724,1005.516296 881.844254,982.153305 858.481277C958.790329 835.118286,927.104858 821.990143,894.062103 821.990143C861.019348 821.990143,829.333878 835.118286,805.970901 858.481277C782.607910 881.844254,769.479767 913.529724,769.479767 946.572479C769.479767 979.615234,782.607910 1011.300705,805.970901 1034.663681C829.333878 1058.026672,861.019348 1071.154816,894.062103 1071.154816C927.104858 1071.154816,958.790329 1058.026672,982.153305 1034.663681C1005.516296 1011.300705,1018.644440 979.615234,1018.644440 946.572479Z" style="stroke:rgb(25.500488%,41.000366%,88.400269%); stroke-width: 2.500000;stroke-linecap: round;stroke-linejoin: round;stroke-miterlimit: 10.000000;fill: none;"></path>
  <path d="M961.147888 1161.143204C961.147888 1128.100449,948.019745 1096.414978,924.656754 1073.052002C901.293777 1049.689011,869.608307 1036.560867,836.565552 1036.560867C803.522797 1036.560867,771.837326 1049.689011,748.474350 1073.052002C725.111359 1096.414978,711.983215 1128.100449,711.983215 1161.143204C711.983215 1194.185959,725.111359 1225.871429,748.474350 1249.234406C771.837326 1272.597397,803.522797 1285.725540,836.565552 1285.725540C869.608307 1285.725540,901.293777 1272.597397,924.656754 1249.234406C948.019745 1225.871429,961.147888 1194.185959,961.147888 1161.143204Z" style="stroke:rgb(25.500488%,41.000366%,88.400269%); stroke-width: 2.500000;stroke-linecap: round;stroke-linejoin: round;stroke-miterlimit: 10.000000;fill: none;"></path>
  <path d="M903.781097 1375.233826C903.781097 1342.191071,890.652954 1310.505600,867.289963 1287.142624C843.926987 1263.779633,812.241516 1250.651489,779.198761 1250.651489C746.156006 1250.651489,714.470535 1263.779633,691.107559 1287.142624C667.744568 1310.505600,654.616425 1342.191071,654.616425 1375.233826C654.616425 1408.276581,667.744568 1439.962051,691.107559 1463.325027C714.470535 1486.688019,746.156006 1499.816162,779.198761 1499.816162C812.241516 1499.816162,843.926987 1486.688019,867.289963 1463.325027C890.652954 1439.962051,903.781097 1408.276581,903.781097 1375.233826Z" style="stroke:rgb(25.500488%,41.000366%,88.400269%); stroke-width: 2.500000;stroke-linecap: round;stroke-linejoin: round;stroke-miterlimit: 10.000000;fill: none;"></path>
  <path d="M845.869324 1591.335724C845.869324 1558.292969,832.741180 1526.607498,809.378189 1503.244522C786.015213 1479.881531,754.329742 1466.753387,721.286987 1466.753387C688.244232 1466.753387,656.558762 1479.881531,633.195786 1503.244522C609.832794 1526.607498,596.704651 1558.292969,596.704651 1591.335724C596.704651 1624.378479,609.832794 1656.063950,633.195786 1679.426926C656.558762 1702.789917,688.244232 1715.918060,721.286987 1715.918060C754.329742 1715.918060,786.015213 1702.789917,809.378189 1679.426926C832.741180 1656.063950,845.869324 1624.378479,845.869324 1591.335724Z" style="stroke:rgb(25.500488%,41.000366%,88.400269%); stroke-width: 2.500000;stroke-linecap: round;stroke-linejoin: round;stroke-miterlimit: 10.000000;fill: none;"></path>
  <path d="M1346.002350 444.324371C1346.002350 411.281616,1332.874207 379.596146,1309.511215 356.233170C1286.148239 332.870178,1254.462769 319.742035,1221.420013 319.742035C1188.377258 319.742035,1156.691788 332.870178,1133.328812 356.233170C1109.965820 379.596146,1096.837677 411.281616,1096.837677 444.324371C1096.837677 477.367126,1109.965820 509.052597,1133.328812 532.415573C1156.691788 555.778564,1188.377258 568.906708,1221.420013 568.906708C1254.462769 568.906708,1286.148239 555.778564,1309.511215 532.415573C1332.874207 509.052597,1346.002350 477.367126,1346.002350 444.324371Z" style="stroke:rgb(25.500488%,41.000366%,88.400269%); stroke-width: 2.500000;stroke-linecap: round;stroke-linejoin: round;stroke-miterlimit: 10.000000;fill: none;"></path>
  <path d="M1285.274780 653.380310C1285.274780 620.337555,1272.146637 588.652084,1248.783646 565.289108C1225.420670 541.926117,1193.735199 528.797974,1160.692444 528.797974C1127.649689 528.797974,1095.964218 541.926117,1072.601242 565.289108C1049.238251 588.652084,1036.110107 620.337555,1036.110107 653.380310C1036.110107 686.423065,1049.238251 718.108536,1072.601242 741.471512C1095.964218 764.834503,1127.649689 777.962646,1160.692444 777.962646C1193.735199 777.962646,1225.420670 764.834503,1248.783646 741.471512C1272.146637 718.108536,1285.274780 686.423065,1285.274780 653.380310Z" style="stroke:rgb(25.500488%,41.000366%,88.400269%); stroke-width: 2.500000;stroke-linecap: round;stroke-linejoin: round;stroke-miterlimit: 10.000000;fill: none;"></path>
  <path d="M1223.535095 867.042725C1223.535095 833.999969,1210.406952 802.314499,1187.043961 778.951523C1163.680984 755.588531,1131.995514 742.460388,1098.952759 742.460388C1065.910004 742.460388,1034.224533 755.588531,1010.861557 778.951523C987.498566 802.314499,974.370422 833.999969,974.370422 867.042725C974.370422 900.085480,987.498566 931.770950,1010.861557 955.133926C1034.224533 978.496918,1065.910004 991.625061,1098.952759 991.625061C1131.995514 991.625061,1163.680984 978.496918,1187.043961 955.133926C1210.406952 931.770950,1223.535095 900.085480,1223.535095 867.042725Z" style="stroke:rgb(25.500488%,41.000366%,88.400269%); stroke-width: 2.500000;stroke-linecap: round;stroke-linejoin: round;stroke-miterlimit: 10.000000;fill: none;"></path>
  <path d="M1168.984085 1067.106308C1168.984085 1034.063553,1155.855942 1002.378082,1132.492950 979.015106C1109.129974 955.652115,1077.444504 942.523972,1044.401749 942.523972C1011.358994 942.523972,979.673523 955.652115,956.310547 979.015106C932.947556 1002.378082,919.819412 1034.063553,919.819412 1067.106308C919.819412 1100.149063,932.947556 1131.834534,956.310547 1155.197510C979.673523 1178.560501,1011.358994 1191.688644,1044.401749 1191.688644C1077.444504 1191.688644,1109.129974 1178.560501,1132.492950 1155.197510C1155.855942 1131.834534,1168.984085 1100.149063,1168.984085 1067.106308Z" style="stroke:rgb(25.500488%,41.000366%,88.400269%); stroke-width: 2.500000;stroke-linecap: round;stroke-linejoin: round;stroke-miterlimit: 10.000000;fill: none;"></path>
  <path d="M1112.019562 1281.547287C1112.019562 1248.504532,1098.891418 1216.819061,1075.528427 1193.456085C1052.165451 1170.093094,1020.479980 1156.964951,987.437225 1156.964951C954.394470 1156.964951,922.709000 1170.093094,899.346024 1193.456085C875.983032 1216.819061,862.854889 1248.504532,862.854889 1281.547287C862.854889 1314.590042,875.983032 1346.275513,899.346024 1369.638489C922.709000 1393.001480,954.394470 1406.129623,987.437225 1406.129623C1020.479980 1406.129623,1052.165451 1393.001480,1075.528427 1369.638489C1098.891418 1346.275513,1112.019562 1314.590042,1112.019562 1281.547287Z" style="stroke:rgb(25.500488%,41.000366%,88.400269%); stroke-width: 2.500000;stroke-linecap: round;stroke-linejoin: round;stroke-miterlimit: 10.000000;fill: none;"></path>
  <path d="M1052.381973 1495.793610C1052.381973 1462.750854,1039.253830 1431.065384,1015.890839 1407.702408C992.527863 1384.339417,960.842392 1371.211273,927.799637 1371.211273C894.756882 1371.211273,863.071411 1384.339417,839.708435 1407.702408C816.345444 1431.065384,803.217300 1462.750854,803.217300 1495.793610C803.217300 1528.836365,816.345444 1560.521835,839.708435 1583.884811C863.071411 1607.247803,894.756882 1620.375946,927.799637 1620.375946C960.842392 1620.375946,992.527863 1607.247803,1015.890839 1583.884811C1039.253830 1560.521835,1052.381973 1528.836365,1052.381973 1495.793610Z" style="stroke:rgb(25.500488%,41.000366%,88.400269%); stroke-width: 2.500000;stroke-linecap: round;stroke-linejoin: round;stroke-miterlimit: 10.000000;fill: none;"></path>
  <path d="M1492.825516 583.504684C1492.825516 550.461929,1479.697372 518.776459,1456.334381 495.413483C1432.971405 472.050491,1401.285934 458.922348,1368.243179 458.922348C1335.200424 458.922348,1303.514954 472.050491,1280.151978 495.413483C1256.788986 518.776459,1243.660843 550.461929,1243.660843 583.504684C1243.660843 616.547440,1256.788986 648.232910,1280.151978 671.595886C1303.514954 694.958878,1335.200424 708.087021,1368.243179 708.087021C1401.285934 708.087021,1432.971405 694.958878,1456.334381 671.595886C1479.697372 648.232910,1492.825516 616.547440,1492.825516 583.504684Z" style="stroke:rgb(25.500488%,41.000366%,88.400269%); stroke-width: 2.500000;stroke-linecap: round;stroke-linejoin: round;stroke-miterlimit: 10.000000;fill: none;"></path>
  <path d="M1431.111771 797.193054C1431.111771 764.150299,1417.983627 732.464828,1394.620636 709.101852C1371.257660 685.738861,1339.572189 672.610718,1306.529434 672.610718C1273.486679 672.610718,1241.801208 685.738861,1218.438232 709.101852C1195.075241 732.464828,1181.947098 764.150299,1181.947098 797.193054C1181.947098 830.235809,1195.075241 861.921280,1218.438232 885.284256C1241.801208 908.647247,1273.486679 921.775391,1306.529434 921.775391C1339.572189 921.775391,1371.257660 908.647247,1394.620636 885.284256C1417.983627 861.921280,1431.111771 830.235809,1431.111771 797.193054Z" style="stroke:rgb(25.500488%,41.000366%,88.400269%); stroke-width: 2.500000;stroke-linecap: round;stroke-linejoin: round;stroke-miterlimit: 10.000000;fill: none;"></path>
  <path d="M1385.682877 1006.430649C1385.682877 973.387894,1372.554733 941.702423,1349.191742 918.339447C1325.828766 894.976456,1294.143295 881.848312,1261.100540 881.848312C1228.057785 881.848312,1196.372314 894.976456,1173.009338 918.339447C1149.646347 941.702423,1136.518204 973.387894,1136.518204 1006.430649C1136.518204 1039.473404,1149.646347 1071.158875,1173.009338 1094.521851C1196.372314 1117.884842,1228.057785 1131.012985,1261.100540 1131.012985C1294.143295 1131.012985,1325.828766 1117.884842,1349.191742 1094.521851C1372.554733 1071.158875,1385.682877 1039.473404,1385.682877 1006.430649Z" style="stroke:rgb(25.500488%,41.000366%,88.400269%); stroke-width: 2.500000;stroke-linecap: round;stroke-linejoin: round;stroke-miterlimit: 10.000000;fill: none;"></path>
  <path d="M1318.402451 1207.934570C1318.402451 1174.891815,1305.274307 1143.206345,1281.911316 1119.843369C1258.548340 1096.480377,1226.862869 1083.352234,1193.820114 1083.352234C1160.777359 1083.352234,1129.091888 1096.480377,1105.728912 1119.843369C1082.365921 1143.206345,1069.237778 1174.891815,1069.237778 1207.934570C1069.237778 1240.977325,1082.365921 1272.662796,1105.728912 1296.025772C1129.091888 1319.388763,1160.777359 1332.516907,1193.820114 1332.516907C1226.862869 1332.516907,1258.548340 1319.388763,1281.911316 1296.025772C1305.274307 1272.662796,1318.402451 1240.977325,1318.402451 1207.934570Z" style="stroke:rgb(25.500488%,41.000366%,88.400269%); stroke-width: 2.500000;stroke-linecap: round;stroke-linejoin: round;stroke-miterlimit: 10.000000;fill: none;"></path>
  <path d="M1259.452591 1422.803741C1259.452591 1389.760986,1246.324448 1358.075516,1222.961456 1334.712540C1199.598480 1311.349548,1167.913010 1298.221405,1134.870255 1298.221405C1101.827499 1298.221405,1070.142029 1311.349548,1046.779053 1334.712540C1023.416061 1358.075516,1010.287918 1389.760986,1010.287918 1422.803741C1010.287918 1455.846497,1023.416061 1487.531967,1046.779053 1510.894943C1070.142029 1534.257935,1101.827499 1547.386078,1134.870255 1547.386078C1167.913010 1547.386078,1199.598480 1534.257935,1222.961456 1510.894943C1246.324448 1487.531967,1259.452591 1455.846497,1259.452591 1422.803741Z" style="stroke:rgb(25.500488%,41.000366%,88.400269%); stroke-width: 2.500000;stroke-linecap: round;stroke-linejoin: round;stroke-miterlimit: 10.000000;fill: none;"></path>
  <path d="M1635.288742 741.616943C1635.288742 708.574188,1622.160599 676.888718,1598.797607 653.525742C1575.434631 630.162750,1543.749161 617.034607,1510.706406 617.034607C1477.663651 617.034607,1445.978180 630.162750,1422.615204 653.525742C1399.252213 676.888718,1386.124069 708.574188,1386.124069 741.616943C1386.124069 774.659698,1399.252213 806.345169,1422.615204 829.708145C1445.978180 853.071136,1477.663651 866.199280,1510.706406 866.199280C1543.749161 866.199280,1575.434631 853.071136,1598.797607 829.708145C1622.160599 806.345169,1635.288742 774.659698,1635.288742 741.616943Z" style="stroke:rgb(25.500488%,41.000366%,88.400269%); stroke-width: 2.500000;stroke-linecap: round;stroke-linejoin: round;stroke-miterlimit: 10.000000;fill: none;"></path>
  <path d="M1590.041519 950.997284C1590.041519 917.954529,1576.913376 886.269058,1553.550385 862.906082C1530.187408 839.543091,1498.501938 826.414948,1465.459183 826.414948C1432.416428 826.414948,1400.730957 839.543091,1377.367981 862.906082C1354.004990 886.269058,1340.876846 917.954529,1340.876846 950.997284C1340.876846 984.040039,1354.004990 1015.725510,1377.367981 1039.088486C1400.730957 1062.451477,1432.416428 1075.579620,1465.459183 1075.579620C1498.501938 1075.579620,1530.187408 1062.451477,1553.550385 1039.088486C1576.913376 1015.725510,1590.041519 984.040039,1590.041519 950.997284Z" style="stroke:rgb(25.500488%,41.000366%,88.400269%); stroke-width: 2.500000;stroke-linecap: round;stroke-linejoin: round;stroke-miterlimit: 10.000000;fill: none;"></path>
  <path d="M1536.788116 1147.687119C1536.788116 1114.644363,1523.659973 1082.958893,1500.296982 1059.595917C1476.934006 1036.232925,1445.248535 1023.104782,1412.205780 1023.104782C1379.163025 1023.104782,1347.477554 1036.232925,1324.114578 1059.595917C1300.751587 1082.958893,1287.623444 1114.644363,1287.623444 1147.687119C1287.623444 1180.729874,1300.751587 1212.415344,1324.114578 1235.778320C1347.477554 1259.141312,1379.163025 1272.269455,1412.205780 1272.269455C1445.248535 1272.269455,1476.934006 1259.141312,1500.296982 1235.778320C1523.659973 1212.415344,1536.788116 1180.729874,1536.788116 1147.687119Z" style="stroke:rgb(25.500488%,41.000366%,88.400269%); stroke-width: 2.500000;stroke-linecap: round;stroke-linejoin: round;stroke-miterlimit: 10.000000;fill: none;"></path>
  <path d="M1465.705719 1349.995544C1465.705719 1316.952789,1452.577576 1285.267319,1429.214584 1261.904343C1405.851608 1238.541351,1374.166138 1225.413208,1341.123383 1225.413208C1308.080627 1225.413208,1276.395157 1238.541351,1253.032181 1261.904343C1229.669189 1285.267319,1216.541046 1316.952789,1216.541046 1349.995544C1216.541046 1383.038300,1229.669189 1414.723770,1253.032181 1438.086746C1276.395157 1461.449738,1308.080627 1474.577881,1341.123383 1474.577881C1374.166138 1474.577881,1405.851608 1461.449738,1429.214584 1438.086746C1452.577576 1414.723770,1465.705719 1383.038300,1465.705719 1349.995544Z" style="stroke:rgb(25.500488%,41.000366%,88.400269%); stroke-width: 2.500000;stroke-linecap: round;stroke-linejoin: round;stroke-miterlimit: 10.000000;fill: none;"></path>
  <path d="M509.025986 1446.835251C509.025986 1413.792496,495.897842 1382.107025,472.534851 1358.744049C449.171875 1335.381058,417.486404 1322.252914,384.443649 1322.252914C351.400894 1322.252914,319.715424 1335.381058,296.352448 1358.744049C272.989456 1382.107025,259.861313 1413.792496,259.861313 1446.835251C259.861313 1479.878006,272.989456 1511.563477,296.352448 1534.926453C319.715424 1558.289444,351.400894 1571.417587,384.443649 1571.417587C417.486404 1571.417587,449.171875 1558.289444,472.534851 1534.926453C495.897842 1511.563477,509.025986 1479.878006,509.025986 1446.835251Z" style="stroke:rgb(25.500488%,41.000366%,88.400269%); stroke-width: 2.500000;stroke-linecap: round;stroke-linejoin: round;stroke-miterlimit: 10.000000;fill: none;"></path>
  <path d="M1557.640503 373.138168C1557.640503 340.095413,1544.512360 308.409943,1521.149368 285.046967C1497.786392 261.683975,1466.100922 248.555832,1433.058167 248.555832C1400.015411 248.555832,1368.329941 261.683975,1344.966965 285.046967C1321.603973 308.409943,1308.475830 340.095413,1308.475830 373.138168C1308.475830 406.180923,1321.603973 437.866394,1344.966965 461.229370C1368.329941 484.592361,1400.015411 497.720505,1433.058167 497.720505C1466.100922 497.720505,1497.786392 484.592361,1521.149368 461.229370C1544.512360 437.866394,1557.640503 406.180923,1557.640503 373.138168Z" style="stroke:rgb(25.500488%,41.000366%,88.400269%); stroke-width: 2.500000;stroke-linecap: round;stroke-linejoin: round;stroke-miterlimit: 10.000000;fill: none;"></path>
  <path d="M838.563858 180.457916C838.563858 147.415161,825.435715 115.729691,802.072723 92.366714C778.709747 69.003723,747.024277 55.875580,713.981522 55.875580C680.938766 55.875580,649.253296 69.003723,625.890320 92.366714C602.527328 115.729691,589.399185 147.415161,589.399185 180.457916C589.399185 213.500671,602.527328 245.186142,625.890320 268.549118C649.253296 291.912109,680.938766 305.040253,713.981522 305.040253C747.024277 305.040253,778.709747 291.912109,802.072723 268.549118C825.435715 245.186142,838.563858 213.500671,838.563858 180.457916Z" style="stroke:rgb(25.500488%,41.000366%,88.400269%); stroke-width: 2.500000;stroke-linecap: round;stroke-linejoin: round;stroke-miterlimit: 10.000000;fill: none;"></path>
  <path d="M1752.565613 1101.855972C1752.565613 1068.813217,1739.437469 1037.127747,1716.074478 1013.764771C1692.711502 990.401779,1661.026031 977.273636,1627.983276 977.273636C1594.940521 977.273636,1563.255051 990.401779,1539.892075 1013.764771C1516.529083 1037.127747,1503.400940 1068.813217,1503.400940 1101.855972C1503.400940 1134.898727,1516.529083 1166.584198,1539.892075 1189.947174C1563.255051 1213.310165,1594.940521 1226.438309,1627.983276 1226.438309C1661.026031 1226.438309,1692.711502 1213.310165,1716.074478 1189.947174C1739.437469 1166.584198,1752.565613 1134.898727,1752.565613 1101.855972Z" style="stroke:rgb(25.500488%,41.000366%,88.400269%); stroke-width: 2.500000;stroke-linecap: round;stroke-linejoin: round;stroke-miterlimit: 10.000000;fill: none;"></path>
  <path d="M1209.845444 1634.623566C1209.845444 1601.580811,1196.717300 1569.895340,1173.354309 1546.532364C1149.991333 1523.169373,1118.305862 1510.041229,1085.263107 1510.041229C1052.220352 1510.041229,1020.534882 1523.169373,997.171906 1546.532364C973.808914 1569.895340,960.680771 1601.580811,960.680771 1634.623566C960.680771 1667.666321,973.808914 1699.351791,997.171906 1722.714767C1020.534882 1746.077759,1052.220352 1759.205902,1085.263107 1759.205902C1118.305862 1759.205902,1149.991333 1746.077759,1173.354309 1722.714767C1196.717300 1699.351791,1209.845444 1667.666321,1209.845444 1634.623566Z" style="stroke:rgb(25.500488%,41.000366%,88.400269%); stroke-width: 2.500000;stroke-linecap: round;stroke-linejoin: round;stroke-miterlimit: 10.000000;fill: none;"></path>
  <path d="M305.406982 714.094894C305.406982 681.052139,292.278839 649.366669,268.915848 626.003693C245.552872 602.640701,213.867401 589.512558,180.824646 589.512558C147.781891 589.512558,116.096420 602.640701,92.733444 626.003693C69.370453 649.366669,56.242310 681.052139,56.242310 714.094894C56.242310 747.137650,69.370453 778.823120,92.733444 802.186096C116.096420 825.549088,147.781891 838.677231,180.824646 838.677231C213.867401 838.677231,245.552872 825.549088,268.915848 802.186096C292.278839 778.823120,305.406982 747.137650,305.406982 714.094894Z" style="stroke:rgb(25.500488%,41.000366%,88.400269%); stroke-width: 2.500000;stroke-linecap: round;stroke-linejoin: round;stroke-miterlimit: 10.000000;fill: none;"></path>
  <path d="M660.624298 241.925110C660.624298 208.882355,647.496155 177.196884,624.133163 153.833908C600.770187 130.470917,569.084717 117.342773,536.041962 117.342773C502.999207 117.342773,471.313736 130.470917,447.950760 153.833908C424.587769 177.196884,411.459625 208.882355,411.459625 241.925110C411.459625 274.967865,424.587769 306.653336,447.950760 330.016312C471.313736 353.379303,502.999207 366.507446,536.041962 366.507446C569.084717 366.507446,600.770187 353.379303,624.133163 330.016312C647.496155 306.653336,660.624298 274.967865,660.624298 241.925110Z" style="stroke:rgb(25.500488%,41.000366%,88.400269%); stroke-width: 2.500000;stroke-linecap: round;stroke-linejoin: round;stroke-miterlimit: 10.000000;fill: none;"></path>
  <path d="M383.314728 1295.833832C383.314728 1262.791077,370.186584 1231.105606,346.823593 1207.742630C323.460617 1184.379639,291.775146 1171.251495,258.732391 1171.251495C225.689636 1171.251495,194.004166 1184.379639,170.641190 1207.742630C147.278198 1231.105606,134.150055 1262.791077,134.150055 1295.833832C134.150055 1328.876587,147.278198 1360.562057,170.641190 1383.925034C194.004166 1407.288025,225.689636 1420.416168,258.732391 1420.416168C291.775146 1420.416168,323.460617 1407.288025,346.823593 1383.925034C370.186584 1360.562057,383.314728 1328.876587,383.314728 1295.833832Z" style="stroke:rgb(25.500488%,41.000366%,88.400269%); stroke-width: 2.500000;stroke-linecap: round;stroke-linejoin: round;stroke-miterlimit: 10.000000;fill: none;"></path>
  <path d="M1021.654861 147.641663C1021.654861 114.598907,1008.526718 82.913437,985.163727 59.550461C961.800751 36.187469,930.115280 23.059326,897.072525 23.059326C864.029770 23.059326,832.344299 36.187469,808.981323 59.550461C785.618332 82.913437,772.490189 114.598907,772.490189 147.641663C772.490189 180.684418,785.618332 212.369888,808.981323 235.732864C832.344299 259.095856,864.029770 272.223999,897.072525 272.223999C930.115280 272.223999,961.800751 259.095856,985.163727 235.732864C1008.526718 212.369888,1021.654861 180.684418,1021.654861 147.641663Z" style="stroke:rgb(25.500488%,41.000366%,88.400269%); stroke-width: 2.500000;stroke-linecap: round;stroke-linejoin: round;stroke-miterlimit: 10.000000;fill: none;"></path>
  <path d="M651.670883 1613.628448C651.670883 1580.585693,638.542740 1548.900223,615.179749 1525.537247C591.816772 1502.174255,560.131302 1489.046112,527.088547 1489.046112C494.045792 1489.046112,462.360321 1502.174255,438.997345 1525.537247C415.634354 1548.900223,402.506210 1580.585693,402.506210 1613.628448C402.506210 1646.671204,415.634354 1678.356674,438.997345 1701.719650C462.360321 1725.082642,494.045792 1738.210785,527.088547 1738.210785C560.131302 1738.210785,591.816772 1725.082642,615.179749 1701.719650C638.542740 1678.356674,651.670883 1646.671204,651.670883 1613.628448Z" style="stroke:rgb(25.500488%,41.000366%,88.400269%); stroke-width: 2.500000;stroke-linecap: round;stroke-linejoin: round;stroke-miterlimit: 10.000000;fill: none;"></path>
  <path d="M1685.557678 1275.954636C1685.557678 1242.911880,1672.429535 1211.226410,1649.066544 1187.863434C1625.703568 1164.500443,1594.018097 1151.372299,1560.975342 1151.372299C1527.932587 1151.372299,1496.247116 1164.500443,1472.884140 1187.863434C1449.521149 1211.226410,1436.393005 1242.911880,1436.393005 1275.954636C1436.393005 1308.997391,1449.521149 1340.682861,1472.884140 1364.045837C1496.247116 1387.408829,1527.932587 1400.536972,1560.975342 1400.536972C1594.018097 1400.536972,1625.703568 1387.408829,1649.066544 1364.045837C1672.429535 1340.682861,1685.557678 1308.997391,1685.557678 1275.954636Z" style="stroke:rgb(25.500488%,41.000366%,88.400269%); stroke-width: 2.500000;stroke-linecap: round;stroke-linejoin: round;stroke-miterlimit: 10.000000;fill: none;"></path>
  <path d="M369.456390 534.637161C369.456390 501.594406,356.328247 469.908936,332.965256 446.545959C309.602280 423.182968,277.916809 410.054825,244.874054 410.054825C211.831299 410.054825,180.145828 423.182968,156.782852 446.545959C133.419861 469.908936,120.291718 501.594406,120.291718 534.637161C120.291718 567.679916,133.419861 599.365387,156.782852 622.728363C180.145828 646.091354,211.831299 659.219498,244.874054 659.219498C277.916809 659.219498,309.602280 646.091354,332.965256 622.728363C356.328247 599.365387,369.456390 567.679916,369.456390 534.637161Z" style="stroke:rgb(25.500488%,41.000366%,88.400269%); stroke-width: 2.500000;stroke-linecap: round;stroke-linejoin: round;stroke-miterlimit: 10.000000;fill: none;"></path>
  <path d="M276.392700 898.366730C276.392700 865.323975,263.264557 833.638504,239.901566 810.275528C216.538589 786.912537,184.853119 773.784393,151.810364 773.784393C118.767609 773.784393,87.082138 786.912537,63.719162 810.275528C40.356171 833.638504,27.228027 865.323975,27.228027 898.366730C27.228027 931.409485,40.356171 963.094955,63.719162 986.457932C87.082138 1009.820923,118.767609 1022.949066,151.810364 1022.949066C184.853119 1022.949066,216.538589 1009.820923,239.901566 986.457932C263.264557 963.094955,276.392700 931.409485,276.392700 898.366730Z" style="stroke:rgb(25.500488%,41.000366%,88.400269%); stroke-width: 2.500000;stroke-linecap: round;stroke-linejoin: round;stroke-miterlimit: 10.000000;fill: none;"></path>
  <path d="M1415.488693 253.162308C1415.488693 220.119553,1402.360550 188.434082,1378.997559 165.071106C1355.634583 141.708115,1323.949112 128.579971,1290.906357 128.579971C1257.863602 128.579971,1226.178131 141.708115,1202.815155 165.071106C1179.452164 188.434082,1166.324020 220.119553,1166.324020 253.162308C1166.324020 286.205063,1179.452164 317.890533,1202.815155 341.253510C1226.178131 364.616501,1257.863602 377.744644,1290.906357 377.744644C1323.949112 377.744644,1355.634583 364.616501,1378.997559 341.253510C1402.360550 317.890533,1415.488693 286.205063,1415.488693 253.162308Z" style="stroke:rgb(25.500488%,41.000366%,88.400269%); stroke-width: 2.500000;stroke-linecap: round;stroke-linejoin: round;stroke-miterlimit: 10.000000;fill: none;"></path>
  <path d="M1002.917557 1707.743195C1002.917557 1674.700439,989.789413 1643.014969,966.426422 1619.651993C943.063446 1596.289001,911.377975 1583.160858,878.335220 1583.160858C845.292465 1583.160858,813.606995 1596.289001,790.244019 1619.651993C766.881027 1643.014969,753.752884 1674.700439,753.752884 1707.743195C753.752884 1740.785950,766.881027 1772.471420,790.244019 1795.834396C813.606995 1819.197388,845.292465 1832.325531,878.335220 1832.325531C911.377975 1832.325531,943.063446 1819.197388,966.426422 1795.834396C989.789413 1772.471420,1002.917557 1740.785950,1002.917557 1707.743195Z" style="stroke:rgb(25.500488%,41.000366%,88.400269%); stroke-width: 2.500000;stroke-linecap: round;stroke-linejoin: round;stroke-miterlimit: 10.000000;fill: none;"></path>
  <path d="M1394.208099 1566.707321C1394.208099 1533.664566,1381.079956 1501.979095,1357.716965 1478.616119C1334.353989 1455.253128,1302.668518 1442.124985,1269.625763 1442.124985C1236.583008 1442.124985,1204.897537 1455.253128,1181.534561 1478.616119C1158.171570 1501.979095,1145.043427 1533.664566,1145.043427 1566.707321C1145.043427 1599.750076,1158.171570 1631.435547,1181.534561 1654.798523C1204.897537 1678.161514,1236.583008 1691.289658,1269.625763 1691.289658C1302.668518 1691.289658,1334.353989 1678.161514,1357.716965 1654.798523C1381.079956 1631.435547,1394.208099 1599.750076,1394.208099 1566.707321Z" style="stroke:rgb(25.500488%,41.000366%,88.400269%); stroke-width: 2.500000;stroke-linecap: round;stroke-linejoin: round;stroke-miterlimit: 10.000000;fill: none;"></path>
  <path d="M1786.822189 914.418015C1786.822189 881.375259,1773.694046 849.689789,1750.331055 826.326813C1726.968079 802.963821,1695.282608 789.835678,1662.239853 789.835678C1629.197098 789.835678,1597.511627 802.963821,1574.148651 826.326813C1550.785660 849.689789,1537.657516 881.375259,1537.657516 914.418015C1537.657516 947.460770,1550.785660 979.146240,1574.148651 1002.509216C1597.511627 1025.872208,1629.197098 1039.000351,1662.239853 1039.000351C1695.282608 1039.000351,1726.968079 1025.872208,1750.331055 1002.509216C1773.694046 979.146240,1786.822189 947.460770,1786.822189 914.418015Z" style="stroke:rgb(25.500488%,41.000366%,88.400269%); stroke-width: 2.500000;stroke-linecap: round;stroke-linejoin: round;stroke-miterlimit: 10.000000;fill: none;"></path>
  <path d="M1681.016083 515.328903C1681.016083 482.286148,1667.887939 450.600677,1644.524948 427.237701C1621.161972 403.874710,1589.476501 390.746567,1556.433746 390.746567C1523.390991 390.746567,1491.705521 403.874710,1468.342545 427.237701C1444.979553 450.600677,1431.851410 482.286148,1431.851410 515.328903C1431.851410 548.371658,1444.979553 580.057129,1468.342545 603.420105C1491.705521 626.783096,1523.390991 639.911240,1556.433746 639.911240C1589.476501 639.911240,1621.161972 626.783096,1644.524948 603.420105C1667.887939 580.057129,1681.016083 548.371658,1681.016083 515.328903Z" style="stroke:rgb(25.500488%,41.000366%,88.400269%); stroke-width: 2.500000;stroke-linecap: round;stroke-linejoin: round;stroke-miterlimit: 10.000000;fill: none;"></path>
  <path d="M455.045929 329.175568C455.045929 296.132812,441.917786 264.447342,418.554794 241.084366C395.191818 217.721375,363.506348 204.593231,330.463593 204.593231C297.420837 204.593231,265.735367 217.721375,242.372391 241.084366C219.009399 264.447342,205.881256 296.132812,205.881256 329.175568C205.881256 362.218323,219.009399 393.903793,242.372391 417.266769C265.735367 440.629761,297.420837 453.757904,330.463593 453.757904C363.506348 453.757904,395.191818 440.629761,418.554794 417.266769C441.917786 393.903793,455.045929 362.218323,455.045929 329.175568Z" style="stroke:rgb(25.500488%,41.000366%,88.400269%); stroke-width: 2.500000;stroke-linecap: round;stroke-linejoin: round;stroke-miterlimit: 10.000000;fill: none;"></path>
  <path d="M1815.421234 693.683685C1815.421234 660.640930,1802.293091 628.955460,1778.930099 605.592484C1755.567123 582.229492,1723.881653 569.101349,1690.838898 569.101349C1657.796143 569.101349,1626.110672 582.229492,1602.747696 605.592484C1579.384705 628.955460,1566.256561 660.640930,1566.256561 693.683685C1566.256561 726.726440,1579.384705 758.411911,1602.747696 781.774887C1626.110672 805.137878,1657.796143 818.266022,1690.838898 818.266022C1723.881653 818.266022,1755.567123 805.137878,1778.930099 781.774887C1802.293091 758.411911,1815.421234 726.726440,1815.421234 693.683685Z" style="stroke:rgb(25.500488%,41.000366%,88.400269%); stroke-width: 2.500000;stroke-linecap: round;stroke-linejoin: round;stroke-miterlimit: 10.000000;fill: none;"></path>
  <path d="M1238.626144 125.556564C1238.626144 92.513809,1225.498001 60.828339,1202.135010 37.465363C1178.772034 14.102371,1147.086563 0.974228,1114.043808 0.974228C1081.001053 0.974228,1049.315582 14.102371,1025.952606 37.465363C1002.589615 60.828339,989.461472 92.513809,989.461472 125.556564C989.461472 158.599319,1002.589615 190.284790,1025.952606 213.647766C1049.315582 237.010757,1081.001053 250.138901,1114.043808 250.138901C1147.086563 250.138901,1178.772034 237.010757,1202.135010 213.647766C1225.498001 190.284790,1238.626144 158.599319,1238.626144 125.556564Z" style="stroke:rgb(25.500488%,41.000366%,88.400269%); stroke-width: 2.500000;stroke-linecap: round;stroke-linejoin: round;stroke-miterlimit: 10.000000;fill: none;"></path>
  <path d="M1598.579712 1480.365173C1598.579712 1447.322418,1585.451569 1415.636948,1562.088577 1392.273972C1538.725601 1368.910980,1507.040131 1355.782837,1473.997375 1355.782837C1440.954620 1355.782837,1409.269150 1368.910980,1385.906174 1392.273972C1362.543182 1415.636948,1349.415039 1447.322418,1349.415039 1480.365173C1349.415039 1513.407928,1362.543182 1545.093399,1385.906174 1568.456375C1409.269150 1591.819366,1440.954620 1604.947510,1473.997375 1604.947510C1507.040131 1604.947510,1538.725601 1591.819366,1562.088577 1568.456375C1585.451569 1545.093399,1598.579712 1513.407928,1598.579712 1480.365173Z" style="stroke:rgb(25.500488%,41.000366%,88.400269%); stroke-width: 2.500000;stroke-linecap: round;stroke-linejoin: round;stroke-miterlimit: 10.000000;fill: none;"></path>
  <path d="M249.506470 1118.880447C249.506470 1085.837692,236.378326 1054.152222,213.015335 1030.789246C189.652359 1007.426254,157.966888 994.298111,124.924133 994.298111C91.881378 994.298111,60.195908 1007.426254,36.832932 1030.789246C13.469940 1054.152222,0.341797 1085.837692,0.341797 1118.880447C0.341797 1151.923203,13.469940 1183.608673,36.832932 1206.971649C60.195908 1230.334641,91.881378 1243.462784,124.924133 1243.462784C157.966888 1243.462784,189.652359 1230.334641,213.015335 1206.971649C236.378326 1183.608673,249.506470 1151.923203,249.506470 1118.880447Z" style="stroke:rgb(25.500488%,41.000366%,88.400269%); stroke-width: 2.500000;stroke-linecap: round;stroke-linejoin: round;stroke-miterlimit: 10.000000;fill: none;"></path>
</svg>
