<?xml version="1.0"?>
<!-- Created by MetaPost 2.00 on 2022.03.02:1201 -->
<svg version="1.1" xmlns="http://www.w3.org/2000/svg" xmlns:xlink="http://www.w3.org/1999/xlink" width="1980.051636" height="1872.065567" viewBox="0 0 1980.051636 1872.065567">
<!-- Original BoundingBox: -985.218216 -917.820999 994.833420 954.244568 -->
  <path d="M1835.393524 954.000000L1672.986221 454.152451L1247.789459 145.233398L722.210541 145.233398L297.013779 454.152451L134.606476 954.000000L297.013779 1453.847549L722.210541 1762.766602L1247.789459 1762.766602L1672.986221 1453.847549L1835.393524 954.000000Z" style="fill: rgb(100.000000%,100.000000%,100.000000%);stroke: none;"></path>
  <path d="M1835.393524 954.000000L1672.986221 454.152451" style="stroke:rgb(0.000000%,0.000000%,0.000000%); stroke-width: 2.500000;stroke-linecap: round;stroke-linejoin: round;stroke-miterlimit: 10.000000;fill: none;"></path>
  <path d="M1672.986221 454.152451L1247.789459 145.233398" style="stroke:rgb(0.000000%,0.000000%,0.000000%); stroke-width: 2.500000;stroke-linecap: round;stroke-linejoin: round;stroke-miterlimit: 10.000000;fill: none;"></path>
  <path d="M1247.789459 145.233398L722.210541 145.233398" style="stroke:rgb(0.000000%,0.000000%,0.000000%); stroke-width: 2.500000;stroke-linecap: round;stroke-linejoin: round;stroke-miterlimit: 10.000000;fill: none;"></path>
  <path d="M722.210541 145.233398L297.013779 454.152451" style="stroke:rgb(0.000000%,0.000000%,0.000000%); stroke-width: 2.500000;stroke-linecap: round;stroke-linejoin: round;stroke-miterlimit: 10.000000;fill: none;"></path>
  <path d="M297.013779 454.152451L134.606476 954.000000" style="stroke:rgb(0.000000%,0.000000%,0.000000%); stroke-width: 2.500000;stroke-linecap: round;stroke-linejoin: round;stroke-miterlimit: 10.000000;fill: none;"></path>
  <path d="M134.606476 954.000000L297.013779 1453.847549" style="stroke:rgb(0.000000%,0.000000%,0.000000%); stroke-width: 2.500000;stroke-linecap: round;stroke-linejoin: round;stroke-miterlimit: 10.000000;fill: none;"></path>
  <path d="M297.013779 1453.847549L722.210541 1762.766602" style="stroke:rgb(0.000000%,0.000000%,0.000000%); stroke-width: 2.500000;stroke-linecap: round;stroke-linejoin: round;stroke-miterlimit: 10.000000;fill: none;"></path>
  <path d="M722.210541 1762.766602L1247.789459 1762.766602" style="stroke:rgb(0.000000%,0.000000%,0.000000%); stroke-width: 2.500000;stroke-linecap: round;stroke-linejoin: round;stroke-miterlimit: 10.000000;fill: none;"></path>
  <path d="M1247.789459 1762.766602L1672.986221 1453.847549" style="stroke:rgb(0.000000%,0.000000%,0.000000%); stroke-width: 2.500000;stroke-linecap: round;stroke-linejoin: round;stroke-miterlimit: 10.000000;fill: none;"></path>
  <path d="M1672.986221 1453.847549L1835.393524 954.000000" style="stroke:rgb(0.000000%,0.000000%,0.000000%); stroke-width: 2.500000;stroke-linecap: round;stroke-linejoin: round;stroke-miterlimit: 10.000000;fill: none;"></path>
  <path d="M931.526001 1616.306763C931.526001 1557.345352,908.100189 1500.805893,866.411316 1459.117035C824.722458 1417.428162,768.182999 1394.002350,709.221588 1394.002350C650.260178 1394.002350,593.720718 1417.428162,552.031860 1459.117035C510.342987 1500.805893,486.917175 1557.345352,486.917175 1616.306763C486.917175 1675.268173,510.342987 1731.807632,552.031860 1773.496490C593.720718 1815.185364,650.260178 1838.611176,709.221588 1838.611176C768.182999 1838.611176,824.722458 1815.185364,866.411316 1773.496490C908.100189 1731.807632,931.526001 1675.268173,931.526001 1616.306763Z" style="stroke:rgb(25.500488%,41.000366%,88.400269%); stroke-width: 2.500000;stroke-linecap: round;stroke-linejoin: round;stroke-miterlimit: 10.000000;fill: none;"></path>
  <path d="M1217.542450 1574.835541C1217.542450 1515.874130,1194.116638 1459.334671,1152.427765 1417.645813C1110.738907 1375.956940,1054.199448 1352.531128,995.238037 1352.531128C936.276627 1352.531128,879.737167 1375.956940,838.048309 1417.645813C796.359436 1459.334671,772.933624 1515.874130,772.933624 1574.835541C772.933624 1633.796951,796.359436 1690.336411,838.048309 1732.025269C879.737167 1773.714142,936.276627 1797.139954,995.238037 1797.139954C1054.199448 1797.139954,1110.738907 1773.714142,1152.427765 1732.025269C1194.116638 1690.336411,1217.542450 1633.796951,1217.542450 1574.835541Z" style="stroke:rgb(25.500488%,41.000366%,88.400269%); stroke-width: 2.500000;stroke-linecap: round;stroke-linejoin: round;stroke-miterlimit: 10.000000;fill: none;"></path>
  <path d="M1526.876740 1648.266586C1526.876740 1589.305176,1503.450928 1532.765717,1461.762054 1491.076859C1420.073196 1449.387985,1363.533737 1425.962173,1304.572327 1425.962173C1245.610916 1425.962173,1189.071457 1449.387985,1147.382599 1491.076859C1105.693726 1532.765717,1082.267914 1589.305176,1082.267914 1648.266586C1082.267914 1707.227997,1105.693726 1763.767456,1147.382599 1805.456314C1189.071457 1847.145187,1245.610916 1870.570999,1304.572327 1870.570999C1363.533737 1870.570999,1420.073196 1847.145187,1461.762054 1805.456314C1503.450928 1763.767456,1526.876740 1707.227997,1526.876740 1648.266586Z" style="stroke:rgb(25.500488%,41.000366%,88.400269%); stroke-width: 2.500000;stroke-linecap: round;stroke-linejoin: round;stroke-miterlimit: 10.000000;fill: none;"></path>
  <path d="M1749.090317 1348.391800C1749.090317 1289.430389,1725.664505 1232.890930,1683.975632 1191.202072C1642.286774 1149.513199,1585.747314 1126.087387,1526.785904 1126.087387C1467.824493 1126.087387,1411.285034 1149.513199,1369.596176 1191.202072C1327.907303 1232.890930,1304.481491 1289.430389,1304.481491 1348.391800C1304.481491 1407.353210,1327.907303 1463.892670,1369.596176 1505.581528C1411.285034 1547.270401,1467.824493 1570.696213,1526.785904 1570.696213C1585.747314 1570.696213,1642.286774 1547.270401,1683.975632 1505.581528C1725.664505 1463.892670,1749.090317 1407.353210,1749.090317 1348.391800Z" style="stroke:rgb(25.500488%,41.000366%,88.400269%); stroke-width: 2.500000;stroke-linecap: round;stroke-linejoin: round;stroke-miterlimit: 10.000000;fill: none;"></path>
  <path d="M632.728226 1384.452026C632.728226 1325.490616,609.302414 1268.951157,567.613541 1227.262299C525.924683 1185.573425,469.385223 1162.147614,410.423813 1162.147614C351.462402 1162.147614,294.922943 1185.573425,253.234085 1227.262299C211.545212 1268.951157,188.119400 1325.490616,188.119400 1384.452026C188.119400 1443.413437,211.545212 1499.952896,253.234085 1541.641754C294.922943 1583.330627,351.462402 1606.756439,410.423813 1606.756439C469.385223 1606.756439,525.924683 1583.330627,567.613541 1541.641754C609.302414 1499.952896,632.728226 1443.413437,632.728226 1384.452026Z" style="stroke:rgb(25.500488%,41.000366%,88.400269%); stroke-width: 2.500000;stroke-linecap: round;stroke-linejoin: round;stroke-miterlimit: 10.000000;fill: none;"></path>
  <path d="M979.069977 1224.393372C979.069977 1165.431961,955.644165 1108.892502,913.955292 1067.203644C872.266434 1025.514771,815.726974 1002.088959,756.765564 1002.088959C697.804153 1002.088959,641.264694 1025.514771,599.575836 1067.203644C557.886963 1108.892502,534.461151 1165.431961,534.461151 1224.393372C534.461151 1283.354782,557.886963 1339.894241,599.575836 1381.583099C641.264694 1423.271973,697.804153 1446.697784,756.765564 1446.697784C815.726974 1446.697784,872.266434 1423.271973,913.955292 1381.583099C955.644165 1339.894241,979.069977 1283.354782,979.069977 1224.393372Z" style="stroke:rgb(25.500488%,41.000366%,88.400269%); stroke-width: 2.500000;stroke-linecap: round;stroke-linejoin: round;stroke-miterlimit: 10.000000;fill: none;"></path>
  <path d="M1364.547287 1291.063934C1364.547287 1232.102524,1341.121475 1175.563065,1299.432602 1133.874207C1257.743744 1092.185333,1201.204285 1068.759521,1142.242874 1068.759521C1083.281464 1068.759521,1026.742004 1092.185333,985.053146 1133.874207C943.364273 1175.563065,919.938461 1232.102524,919.938461 1291.063934C919.938461 1350.025345,943.364273 1406.564804,985.053146 1448.253662C1026.742004 1489.942535,1083.281464 1513.368347,1142.242874 1513.368347C1201.204285 1513.368347,1257.743744 1489.942535,1299.432602 1448.253662C1341.121475 1406.564804,1364.547287 1350.025345,1364.547287 1291.063934Z" style="stroke:rgb(25.500488%,41.000366%,88.400269%); stroke-width: 2.500000;stroke-linecap: round;stroke-linejoin: round;stroke-miterlimit: 10.000000;fill: none;"></path>
  <path d="M1595.337982 991.889847C1595.337982 932.928436,1571.912170 876.388977,1530.223297 834.700119C1488.534439 793.011246,1431.994980 769.585434,1373.033569 769.585434C1314.072159 769.585434,1257.532700 793.011246,1215.843842 834.700119C1174.154968 876.388977,1150.729156 932.928436,1150.729156 991.889847C1150.729156 1050.851257,1174.154968 1107.390717,1215.843842 1149.079575C1257.532700 1190.768448,1314.072159 1214.194260,1373.033569 1214.194260C1431.994980 1214.194260,1488.534439 1190.768448,1530.223297 1149.079575C1571.912170 1107.390717,1595.337982 1050.851257,1595.337982 991.889847Z" style="stroke:rgb(25.500488%,41.000366%,88.400269%); stroke-width: 2.500000;stroke-linecap: round;stroke-linejoin: round;stroke-miterlimit: 10.000000;fill: none;"></path>
  <path d="M1978.583420 1045.882889C1978.583420 986.921478,1955.157608 930.382019,1913.468735 888.693161C1871.779877 847.004288,1815.240417 823.578476,1756.279007 823.578476C1697.317596 823.578476,1640.778137 847.004288,1599.089279 888.693161C1557.400406 930.382019,1533.974594 986.921478,1533.974594 1045.882889C1533.974594 1104.844299,1557.400406 1161.383759,1599.089279 1203.072617C1640.778137 1244.761490,1697.317596 1268.187302,1756.279007 1268.187302C1815.240417 1268.187302,1871.779877 1244.761490,1913.468735 1203.072617C1955.157608 1161.383759,1978.583420 1104.844299,1978.583420 1045.882889Z" style="stroke:rgb(25.500488%,41.000366%,88.400269%); stroke-width: 2.500000;stroke-linecap: round;stroke-linejoin: round;stroke-miterlimit: 10.000000;fill: none;"></path>
  <path d="M588.311462 1075.364304C588.311462 1016.402893,564.885651 959.863434,523.196777 918.174576C481.507919 876.485703,424.968460 853.059891,366.007050 853.059891C307.045639 853.059891,250.506180 876.485703,208.817322 918.174576C167.128448 959.863434,143.702637 1016.402893,143.702637 1075.364304C143.702637 1134.325714,167.128448 1190.865173,208.817322 1232.554031C250.506180 1274.242905,307.045639 1297.668716,366.007050 1297.668716C424.968460 1297.668716,481.507919 1274.242905,523.196777 1232.554031C564.885651 1190.865173,588.311462 1134.325714,588.311462 1075.364304Z" style="stroke:rgb(25.500488%,41.000366%,88.400269%); stroke-width: 2.500000;stroke-linecap: round;stroke-linejoin: round;stroke-miterlimit: 10.000000;fill: none;"></path>
  <path d="M1212.468857 932.459885C1212.468857 873.498474,1189.043045 816.959015,1147.354172 775.270157C1105.665314 733.581284,1049.125854 710.155472,990.164444 710.155472C931.203033 710.155472,874.663574 733.581284,832.974716 775.270157C791.285843 816.959015,767.860031 873.498474,767.860031 932.459885C767.860031 991.421295,791.285843 1047.960754,832.974716 1089.649612C874.663574 1131.338486,931.203033 1154.764297,990.164444 1154.764297C1049.125854 1154.764297,1105.665314 1131.338486,1147.354172 1089.649612C1189.043045 1047.960754,1212.468857 991.421295,1212.468857 932.459885Z" style="stroke:rgb(25.500488%,41.000366%,88.400269%); stroke-width: 2.500000;stroke-linecap: round;stroke-linejoin: round;stroke-miterlimit: 10.000000;fill: none;"></path>
  <path d="M1453.354858 634.531479C1453.354858 575.570068,1429.929047 519.030609,1388.240173 477.341751C1346.551315 435.652878,1290.011856 412.227066,1231.050446 412.227066C1172.089035 412.227066,1115.549576 435.652878,1073.860718 477.341751C1032.171844 519.030609,1008.746033 575.570068,1008.746033 634.531479C1008.746033 693.492889,1032.171844 750.032349,1073.860718 791.721207C1115.549576 833.410080,1172.089035 856.835892,1231.050446 856.835892C1290.011856 856.835892,1346.551315 833.410080,1388.240173 791.721207C1429.929047 750.032349,1453.354858 693.492889,1453.354858 634.531479Z" style="stroke:rgb(25.500488%,41.000366%,88.400269%); stroke-width: 2.500000;stroke-linecap: round;stroke-linejoin: round;stroke-miterlimit: 10.000000;fill: none;"></path>
  <path d="M1836.872787 695.622375C1836.872787 636.660965,1813.446976 580.121506,1771.758102 538.432648C1730.069244 496.743774,1673.529785 473.317963,1614.568375 473.317963C1555.606964 473.317963,1499.067505 496.743774,1457.378647 538.432648C1415.689774 580.121506,1392.263962 636.660965,1392.263962 695.622375C1392.263962 754.583786,1415.689774 811.123245,1457.378647 852.812103C1499.067505 894.500977,1555.606964 917.926788,1614.568375 917.926788C1673.529785 917.926788,1730.069244 894.500977,1771.758102 852.812103C1813.446976 811.123245,1836.872787 754.583786,1836.872787 695.622375Z" style="stroke:rgb(25.500488%,41.000366%,88.400269%); stroke-width: 2.500000;stroke-linecap: round;stroke-linejoin: round;stroke-miterlimit: 10.000000;fill: none;"></path>
  <path d="M445.640610 800.169815C445.640610 741.208405,422.214798 684.668945,380.525925 642.980087C338.837067 601.291214,282.297607 577.865402,223.336197 577.865402C164.374786 577.865402,107.835327 601.291214,66.146469 642.980087C24.457596 684.668945,1.031784 741.208405,1.031784 800.169815C1.031784 859.131226,24.457596 915.670685,66.146469 957.359543C107.835327 999.048416,164.374786 1022.474228,223.336197 1022.474228C282.297607 1022.474228,338.837067 999.048416,380.525925 957.359543C422.214798 915.670685,445.640610 859.131226,445.640610 800.169815Z" style="stroke:rgb(25.500488%,41.000366%,88.400269%); stroke-width: 2.500000;stroke-linecap: round;stroke-linejoin: round;stroke-miterlimit: 10.000000;fill: none;"></path>
  <path d="M833.258942 858.185394C833.258942 799.223984,809.833130 742.684525,768.144257 700.995667C726.455399 659.306793,669.915939 635.880981,610.954529 635.880981C551.993118 635.880981,495.453659 659.306793,453.764801 700.995667C412.075928 742.684525,388.650116 799.223984,388.650116 858.185394C388.650116 917.146805,412.075928 973.686264,453.764801 1015.375122C495.453659 1057.063995,551.993118 1080.489807,610.954529 1080.489807C669.915939 1080.489807,726.455399 1057.063995,768.144257 1015.375122C809.833130 973.686264,833.258942 917.146805,833.258942 858.185394Z" style="stroke:rgb(25.500488%,41.000366%,88.400269%); stroke-width: 2.500000;stroke-linecap: round;stroke-linejoin: round;stroke-miterlimit: 10.000000;fill: none;"></path>
  <path d="M1076.727173 567.523544C1076.727173 508.562134,1053.301361 452.022675,1011.612488 410.333817C969.923630 368.644943,913.384171 345.219131,854.422760 345.219131C795.461349 345.219131,738.921890 368.644943,697.233032 410.333817C655.544159 452.022675,632.118347 508.562134,632.118347 567.523544C632.118347 626.484955,655.544159 683.024414,697.233032 724.713272C738.921890 766.402145,795.461349 789.827957,854.422760 789.827957C913.384171 789.827957,969.923630 766.402145,1011.612488 724.713272C1053.301361 683.024414,1076.727173 626.484955,1076.727173 567.523544Z" style="stroke:rgb(25.500488%,41.000366%,88.400269%); stroke-width: 2.500000;stroke-linecap: round;stroke-linejoin: round;stroke-miterlimit: 10.000000;fill: none;"></path>
  <path d="M1344.810822 275.382431C1344.810822 216.421021,1321.385010 159.881561,1279.696136 118.192703C1238.007278 76.503830,1181.467819 53.078018,1122.506409 53.078018C1063.544998 53.078018,1007.005539 76.503830,965.316681 118.192703C923.627808 159.881561,900.201996 216.421021,900.201996 275.382431C900.201996 334.343842,923.627808 390.883301,965.316681 432.572159C1007.005539 474.261032,1063.544998 497.686844,1122.506409 497.686844C1181.467819 497.686844,1238.007278 474.261032,1279.696136 432.572159C1321.385010 390.883301,1344.810822 334.343842,1344.810822 275.382431Z" style="stroke:rgb(25.500488%,41.000366%,88.400269%); stroke-width: 2.500000;stroke-linecap: round;stroke-linejoin: round;stroke-miterlimit: 10.000000;fill: none;"></path>
  <path d="M1725.175598 353.251266C1725.175598 294.289856,1701.749786 237.750397,1660.060913 196.061539C1618.372055 154.372665,1561.832596 130.946854,1502.871185 130.946854C1443.909775 130.946854,1387.370316 154.372665,1345.681458 196.061539C1303.992584 237.750397,1280.566772 294.289856,1280.566772 353.251266C1280.566772 412.212677,1303.992584 468.752136,1345.681458 510.440994C1387.370316 552.129868,1443.909775 575.555679,1502.871185 575.555679C1561.832596 575.555679,1618.372055 552.129868,1660.060913 510.440994C1701.749786 468.752136,1725.175598 412.212677,1725.175598 353.251266Z" style="stroke:rgb(25.500488%,41.000366%,88.400269%); stroke-width: 2.500000;stroke-linecap: round;stroke-linejoin: round;stroke-miterlimit: 10.000000;fill: none;"></path>
  <path d="M687.694458 505.472427C687.694458 446.511017,664.268646 389.971558,622.579773 348.282700C580.890915 306.593826,524.351456 283.168015,465.390045 283.168015C406.428635 283.168015,349.889175 306.593826,308.200317 348.282700C266.511444 389.971558,243.085632 446.511017,243.085632 505.472427C243.085632 564.433838,266.511444 620.973297,308.200317 662.662155C349.889175 704.351028,406.428635 727.776840,465.390045 727.776840C524.351456 727.776840,580.890915 704.351028,622.579773 662.662155C664.268646 620.973297,687.694458 564.433838,687.694458 505.472427Z" style="stroke:rgb(25.500488%,41.000366%,88.400269%); stroke-width: 2.500000;stroke-linecap: round;stroke-linejoin: round;stroke-miterlimit: 10.000000;fill: none;"></path>
  <path d="M956.426910 223.309845C956.426910 164.348434,933.001099 107.808975,891.312225 66.120117C849.623367 24.431244,793.083908 1.005432,734.122498 1.005432C675.161087 1.005432,618.621628 24.431244,576.932770 66.120117C535.243896 107.808975,511.818085 164.348434,511.818085 223.309845C511.818085 282.271255,535.243896 338.810715,576.932770 380.499573C618.621628 422.188446,675.161087 445.614258,734.122498 445.614258C793.083908 445.614258,849.623367 422.188446,891.312225 380.499573C933.001099 338.810715,956.426910 282.271255,956.426910 223.309845Z" style="stroke:rgb(25.500488%,41.000366%,88.400269%); stroke-width: 2.500000;stroke-linecap: round;stroke-linejoin: round;stroke-miterlimit: 10.000000;fill: none;"></path>
</svg>
