<?xml version="1.0"?>
<!-- Created by MetaPost 2.00 on 2022.03.02:1201 -->
<svg version="1.1" xmlns="http://www.w3.org/2000/svg" xmlns:xlink="http://www.w3.org/1999/xlink" width="1661.180008" height="1696.604431" viewBox="0 0 1661.180008 1696.604431">
<!-- Original BoundingBox: -834.865585 -801.608170 826.314423 894.996262 -->
  <path d="M834.000000 43.606476L25.233398 631.210541L334.152451 1581.986221L1333.847549 1581.986221L1642.766602 631.210541L834.000000 43.606476Z" style="fill: rgb(100.000000%,100.000000%,100.000000%);stroke: none;"></path>
  <path d="M834.000000 43.606476L25.233398 631.210541" style="stroke:rgb(0.000000%,0.000000%,0.000000%); stroke-width: 2.500000;stroke-linecap: round;stroke-linejoin: round;stroke-miterlimit: 10.000000;fill: none;"></path>
  <path d="M25.233398 631.210541L334.152451 1581.986221" style="stroke:rgb(0.000000%,0.000000%,0.000000%); stroke-width: 2.500000;stroke-linecap: round;stroke-linejoin: round;stroke-miterlimit: 10.000000;fill: none;"></path>
  <path d="M334.152451 1581.986221L1333.847549 1581.986221" style="stroke:rgb(0.000000%,0.000000%,0.000000%); stroke-width: 2.500000;stroke-linecap: round;stroke-linejoin: round;stroke-miterlimit: 10.000000;fill: none;"></path>
  <path d="M1333.847549 1581.986221L1642.766602 631.210541" style="stroke:rgb(0.000000%,0.000000%,0.000000%); stroke-width: 2.500000;stroke-linecap: round;stroke-linejoin: round;stroke-miterlimit: 10.000000;fill: none;"></path>
  <path d="M1642.766602 631.210541L834.000000 43.606476" style="stroke:rgb(0.000000%,0.000000%,0.000000%); stroke-width: 2.500000;stroke-linecap: round;stroke-linejoin: round;stroke-miterlimit: 10.000000;fill: none;"></path>
  <path d="M1659.064423 678.274414C1659.064423 635.543564,1642.087128 594.567963,1611.874146 564.354980C1581.661163 534.141998,1540.685562 517.164703,1497.954712 517.164703C1455.223862 517.164703,1414.248260 534.141998,1384.035278 564.354980C1353.822296 594.567963,1336.845001 635.543564,1336.845001 678.274414C1336.845001 721.005264,1353.822296 761.980865,1384.035278 792.193848C1414.248260 822.406830,1455.223862 839.384125,1497.954712 839.384125C1540.685562 839.384125,1581.661163 822.406830,1611.874146 792.193848C1642.087128 761.980865,1659.064423 721.005264,1659.064423 678.274414Z" style="stroke:rgb(25.500488%,41.000366%,88.400269%); stroke-width: 2.500000;stroke-linecap: round;stroke-linejoin: round;stroke-miterlimit: 10.000000;fill: none;"></path>
  <path d="M1641.884232 939.636505C1641.884232 896.905655,1624.906937 855.930054,1594.693954 825.717072C1564.480972 795.504089,1523.505371 778.526794,1480.774521 778.526794C1438.043671 778.526794,1397.068069 795.504089,1366.855087 825.717072C1336.642105 855.930054,1319.664810 896.905655,1319.664810 939.636505C1319.664810 982.367355,1336.642105 1023.342957,1366.855087 1053.555939C1397.068069 1083.768921,1438.043671 1100.746216,1480.774521 1100.746216C1523.505371 1100.746216,1564.480972 1083.768921,1594.693954 1053.555939C1624.906937 1023.342957,1641.884232 982.367355,1641.884232 939.636505Z" style="stroke:rgb(25.500488%,41.000366%,88.400269%); stroke-width: 2.500000;stroke-linecap: round;stroke-linejoin: round;stroke-miterlimit: 10.000000;fill: none;"></path>
  <path d="M1400.933334 762.138138C1400.933334 719.407288,1383.956039 678.431686,1353.743057 648.218704C1323.530075 618.005722,1282.554474 601.028427,1239.823624 601.028427C1197.092773 601.028427,1156.117172 618.005722,1125.904190 648.218704C1095.691208 678.431686,1078.713913 719.407288,1078.713913 762.138138C1078.713913 804.868988,1095.691208 845.844589,1125.904190 876.057571C1156.117172 906.270554,1197.092773 923.247849,1239.823624 923.247849C1282.554474 923.247849,1323.530075 906.270554,1353.743057 876.057571C1383.956039 845.844589,1400.933334 804.868988,1400.933334 762.138138Z" style="stroke:rgb(25.500488%,41.000366%,88.400269%); stroke-width: 2.500000;stroke-linecap: round;stroke-linejoin: round;stroke-miterlimit: 10.000000;fill: none;"></path>
  <path d="M1491.544571 476.913223C1491.544571 434.182373,1474.567276 393.206772,1444.354294 362.993790C1414.141312 332.780807,1373.165710 315.803513,1330.434860 315.803513C1287.704010 315.803513,1246.728409 332.780807,1216.515427 362.993790C1186.302444 393.206772,1169.325150 434.182373,1169.325150 476.913223C1169.325150 519.644073,1186.302444 560.619675,1216.515427 590.832657C1246.728409 621.045639,1287.704010 638.022934,1330.434860 638.022934C1373.165710 638.022934,1414.141312 621.045639,1444.354294 590.832657C1474.567276 560.619675,1491.544571 519.644073,1491.544571 476.913223Z" style="stroke:rgb(25.500488%,41.000366%,88.400269%); stroke-width: 2.500000;stroke-linecap: round;stroke-linejoin: round;stroke-miterlimit: 10.000000;fill: none;"></path>
  <path d="M1427.884445 1485.146515C1427.884445 1442.415665,1410.907150 1401.440063,1380.694168 1371.227081C1350.481186 1341.014099,1309.505585 1324.036804,1266.774734 1324.036804C1224.043884 1324.036804,1183.068283 1341.014099,1152.855301 1371.227081C1122.642319 1401.440063,1105.665024 1442.415665,1105.665024 1485.146515C1105.665024 1527.877365,1122.642319 1568.852966,1152.855301 1599.065948C1183.068283 1629.278931,1224.043884 1646.256226,1266.774734 1646.256226C1309.505585 1646.256226,1350.481186 1629.278931,1380.694168 1599.065948C1410.907150 1568.852966,1427.884445 1527.877365,1427.884445 1485.146515Z" style="stroke:rgb(25.500488%,41.000366%,88.400269%); stroke-width: 2.500000;stroke-linecap: round;stroke-linejoin: round;stroke-miterlimit: 10.000000;fill: none;"></path>
  <path d="M1553.452957 1228.377914C1553.452957 1185.647064,1536.475662 1144.671463,1506.262680 1114.458481C1476.049698 1084.245499,1435.074097 1067.268204,1392.343246 1067.268204C1349.612396 1067.268204,1308.636795 1084.245499,1278.423813 1114.458481C1248.210831 1144.671463,1231.233536 1185.647064,1231.233536 1228.377914C1231.233536 1271.108765,1248.210831 1312.084366,1278.423813 1342.297348C1308.636795 1372.510330,1349.612396 1389.487625,1392.343246 1389.487625C1435.074097 1389.487625,1476.049698 1372.510330,1506.262680 1342.297348C1536.475662 1312.084366,1553.452957 1271.108765,1553.452957 1228.377914Z" style="stroke:rgb(25.500488%,41.000366%,88.400269%); stroke-width: 2.500000;stroke-linecap: round;stroke-linejoin: round;stroke-miterlimit: 10.000000;fill: none;"></path>
  <path d="M1391.889084 1014.261337C1391.889084 971.530487,1374.911789 930.554886,1344.698807 900.341904C1314.485825 870.128922,1273.510223 853.151627,1230.779373 853.151627C1188.048523 853.151627,1147.072922 870.128922,1116.859940 900.341904C1086.646957 930.554886,1069.669662 971.530487,1069.669662 1014.261337C1069.669662 1056.992188,1086.646957 1097.967789,1116.859940 1128.180771C1147.072922 1158.393753,1188.048523 1175.371048,1230.779373 1175.371048C1273.510223 1175.371048,1314.485825 1158.393753,1344.698807 1128.180771C1374.911789 1097.967789,1391.889084 1056.992188,1391.889084 1014.261337Z" style="stroke:rgb(25.500488%,41.000366%,88.400269%); stroke-width: 2.500000;stroke-linecap: round;stroke-linejoin: round;stroke-miterlimit: 10.000000;fill: none;"></path>
  <path d="M1245.416275 563.488937C1245.416275 520.758087,1228.438980 479.782486,1198.225998 449.569504C1168.013016 419.356522,1127.037415 402.379227,1084.306564 402.379227C1041.575714 402.379227,1000.600113 419.356522,970.387131 449.569504C940.174149 479.782486,923.196854 520.758087,923.196854 563.488937C923.196854 606.219788,940.174149 647.195389,970.387131 677.408371C1000.600113 707.621353,1041.575714 724.598648,1084.306564 724.598648C1127.037415 724.598648,1168.013016 707.621353,1198.225998 677.408371C1228.438980 647.195389,1245.416275 606.219788,1245.416275 563.488937Z" style="stroke:rgb(25.500488%,41.000366%,88.400269%); stroke-width: 2.500000;stroke-linecap: round;stroke-linejoin: round;stroke-miterlimit: 10.000000;fill: none;"></path>
  <path d="M1250.269287 295.288498C1250.269287 252.557648,1233.291992 211.582047,1203.079010 181.369064C1172.866028 151.156082,1131.890427 134.178787,1089.159576 134.178787C1046.428726 134.178787,1005.453125 151.156082,975.240143 181.369064C945.027161 211.582047,928.049866 252.557648,928.049866 295.288498C928.049866 338.019348,945.027161 378.994949,975.240143 409.207932C1005.453125 439.420914,1046.428726 456.398209,1089.159576 456.398209C1131.890427 456.398209,1172.866028 439.420914,1203.079010 409.207932C1233.291992 378.994949,1250.269287 338.019348,1250.269287 295.288498Z" style="stroke:rgb(25.500488%,41.000366%,88.400269%); stroke-width: 2.500000;stroke-linecap: round;stroke-linejoin: round;stroke-miterlimit: 10.000000;fill: none;"></path>
  <path d="M997.756805 161.363449C997.756805 118.632599,980.779510 77.656998,950.566528 47.444016C920.353546 17.231033,879.377945 0.253738,836.647095 0.253738C793.916245 0.253738,752.940643 17.231033,722.727661 47.444016C692.514679 77.656998,675.537384 118.632599,675.537384 161.363449C675.537384 204.094299,692.514679 245.069901,722.727661 275.282883C752.940643 305.495865,793.916245 322.473160,836.647095 322.473160C879.377945 322.473160,920.353546 305.495865,950.566528 275.282883C980.779510 245.069901,997.756805 204.094299,997.756805 161.363449Z" style="stroke:rgb(25.500488%,41.000366%,88.400269%); stroke-width: 2.500000;stroke-linecap: round;stroke-linejoin: round;stroke-miterlimit: 10.000000;fill: none;"></path>
  <path d="M1275.274002 1275.337967C1275.274002 1232.607117,1258.296707 1191.631516,1228.083725 1161.418533C1197.870743 1131.205551,1156.895142 1114.228256,1114.164291 1114.228256C1071.433441 1114.228256,1030.457840 1131.205551,1000.244858 1161.418533C970.031876 1191.631516,953.054581 1232.607117,953.054581 1275.337967C953.054581 1318.068817,970.031876 1359.044418,1000.244858 1389.257401C1030.457840 1419.470383,1071.433441 1436.447678,1114.164291 1436.447678C1156.895142 1436.447678,1197.870743 1419.470383,1228.083725 1389.257401C1258.296707 1359.044418,1275.274002 1318.068817,1275.274002 1275.337967Z" style="stroke:rgb(25.500488%,41.000366%,88.400269%); stroke-width: 2.500000;stroke-linecap: round;stroke-linejoin: round;stroke-miterlimit: 10.000000;fill: none;"></path>
  <path d="M1113.411682 1073.444763C1113.411682 1030.713913,1096.434387 989.738312,1066.221405 959.525330C1036.008423 929.312347,995.032822 912.335052,952.301971 912.335052C909.571121 912.335052,868.595520 929.312347,838.382538 959.525330C808.169556 989.738312,791.192261 1030.713913,791.192261 1073.444763C791.192261 1116.175613,808.169556 1157.151215,838.382538 1187.364197C868.595520 1217.577179,909.571121 1234.554474,952.301971 1234.554474C995.032822 1234.554474,1036.008423 1217.577179,1066.221405 1187.364197C1096.434387 1157.151215,1113.411682 1116.175613,1113.411682 1073.444763Z" style="stroke:rgb(25.500488%,41.000366%,88.400269%); stroke-width: 2.500000;stroke-linecap: round;stroke-linejoin: round;stroke-miterlimit: 10.000000;fill: none;"></path>
  <path d="M1139.558273 847.065903C1139.558273 804.335052,1122.580978 763.359451,1092.367996 733.146469C1062.155014 702.933487,1021.179413 685.956192,978.448563 685.956192C935.717712 685.956192,894.742111 702.933487,864.529129 733.146469C834.316147 763.359451,817.338852 804.335052,817.338852 847.065903C817.338852 889.796753,834.316147 930.772354,864.529129 960.985336C894.742111 991.198318,935.717712 1008.175613,978.448563 1008.175613C1021.179413 1008.175613,1062.155014 991.198318,1092.367996 960.985336C1122.580978 930.772354,1139.558273 889.796753,1139.558273 847.065903Z" style="stroke:rgb(25.500488%,41.000366%,88.400269%); stroke-width: 2.500000;stroke-linecap: round;stroke-linejoin: round;stroke-miterlimit: 10.000000;fill: none;"></path>
  <path d="M1000.961868 629.575577C1000.961868 586.844727,983.984573 545.869125,953.771591 515.656143C923.558609 485.443161,882.583008 468.465866,839.852158 468.465866C797.121307 468.465866,756.145706 485.443161,725.932724 515.656143C695.719742 545.869125,678.742447 586.844727,678.742447 629.575577C678.742447 672.306427,695.719742 713.282028,725.932724 743.495010C756.145706 773.707993,797.121307 790.685287,839.852158 790.685287C882.583008 790.685287,923.558609 773.707993,953.771591 743.495010C983.984573 713.282028,1000.961868 672.306427,1000.961868 629.575577Z" style="stroke:rgb(25.500488%,41.000366%,88.400269%); stroke-width: 2.500000;stroke-linecap: round;stroke-linejoin: round;stroke-miterlimit: 10.000000;fill: none;"></path>
  <path d="M997.627045 420.818085C997.627045 378.087234,980.649750 337.111633,950.436768 306.898651C920.223785 276.685669,879.248184 259.708374,836.517334 259.708374C793.786484 259.708374,752.810883 276.685669,722.597900 306.898651C692.384918 337.111633,675.407623 378.087234,675.407623 420.818085C675.407623 463.548935,692.384918 504.524536,722.597900 534.737518C752.810883 564.950500,793.786484 581.927795,836.517334 581.927795C879.248184 581.927795,920.223785 564.950500,950.436768 534.737518C980.649750 504.524536,997.627045 463.548935,997.627045 420.818085Z" style="stroke:rgb(25.500488%,41.000366%,88.400269%); stroke-width: 2.500000;stroke-linecap: round;stroke-linejoin: round;stroke-miterlimit: 10.000000;fill: none;"></path>
  <path d="M1145.527222 1533.248459C1145.527222 1490.517609,1128.549927 1449.542007,1098.336945 1419.329025C1068.123962 1389.116043,1027.148361 1372.138748,984.417511 1372.138748C941.686661 1372.138748,900.711060 1389.116043,870.498077 1419.329025C840.285095 1449.542007,823.307800 1490.517609,823.307800 1533.248459C823.307800 1575.979309,840.285095 1616.954910,870.498077 1647.167892C900.711060 1677.380875,941.686661 1694.358170,984.417511 1694.358170C1027.148361 1694.358170,1068.123962 1677.380875,1098.336945 1647.167892C1128.549927 1616.954910,1145.527222 1575.979309,1145.527222 1533.248459Z" style="stroke:rgb(25.500488%,41.000366%,88.400269%); stroke-width: 2.500000;stroke-linecap: round;stroke-linejoin: round;stroke-miterlimit: 10.000000;fill: none;"></path>
  <path d="M993.254150 1322.323975C993.254150 1279.593124,976.276855 1238.617523,946.063873 1208.404541C915.850891 1178.191559,874.875290 1161.214264,832.144440 1161.214264C789.413589 1161.214264,748.437988 1178.191559,718.225006 1208.404541C688.012024 1238.617523,671.034729 1279.593124,671.034729 1322.323975C671.034729 1365.054825,688.012024 1406.030426,718.225006 1436.243408C748.437988 1466.456390,789.413589 1483.433685,832.144440 1483.433685C874.875290 1483.433685,915.850891 1466.456390,946.063873 1436.243408C976.276855 1406.030426,993.254150 1365.054825,993.254150 1322.323975Z" style="stroke:rgb(25.500488%,41.000366%,88.400269%); stroke-width: 2.500000;stroke-linecap: round;stroke-linejoin: round;stroke-miterlimit: 10.000000;fill: none;"></path>
  <path d="M904.407639 1035.593842C904.407639 992.862991,887.430344 951.887390,857.217361 921.674408C827.004379 891.461426,786.028778 874.484131,743.297928 874.484131C700.567078 874.484131,659.591476 891.461426,629.378494 921.674408C599.165512 951.887390,582.188217 992.862991,582.188217 1035.593842C582.188217 1078.324692,599.165512 1119.300293,629.378494 1149.513275C659.591476 1179.726257,700.567078 1196.703552,743.297928 1196.703552C786.028778 1196.703552,827.004379 1179.726257,857.217361 1149.513275C887.430344 1119.300293,904.407639 1078.324692,904.407639 1035.593842Z" style="stroke:rgb(25.500488%,41.000366%,88.400269%); stroke-width: 2.500000;stroke-linecap: round;stroke-linejoin: round;stroke-miterlimit: 10.000000;fill: none;"></path>
  <path d="M838.502670 832.753403C838.502670 790.022552,821.525375 749.046951,791.312393 718.833969C761.099411 688.620987,720.123810 671.643692,677.392960 671.643692C634.662109 671.643692,593.686508 688.620987,563.473526 718.833969C533.260544 749.046951,516.283249 790.022552,516.283249 832.753403C516.283249 875.484253,533.260544 916.459854,563.473526 946.672836C593.686508 976.885818,634.662109 993.863113,677.392960 993.863113C720.123810 993.863113,761.099411 976.885818,791.312393 946.672836C821.525375 916.459854,838.502670 875.484253,838.502670 832.753403Z" style="stroke:rgb(25.500488%,41.000366%,88.400269%); stroke-width: 2.500000;stroke-linecap: round;stroke-linejoin: round;stroke-miterlimit: 10.000000;fill: none;"></path>
  <path d="M741.844620 548.566559C741.844620 505.835709,724.867325 464.860107,694.654343 434.647125C664.441360 404.434143,623.465759 387.456848,580.734909 387.456848C538.004059 387.456848,497.028458 404.434143,466.815475 434.647125C436.602493 464.860107,419.625198 505.835709,419.625198 548.566559C419.625198 591.297409,436.602493 632.273010,466.815475 662.485992C497.028458 692.698975,538.004059 709.676270,580.734909 709.676270C623.465759 709.676270,664.441360 692.698975,694.654343 662.485992C724.867325 632.273010,741.844620 591.297409,741.844620 548.566559Z" style="stroke:rgb(25.500488%,41.000366%,88.400269%); stroke-width: 2.500000;stroke-linecap: round;stroke-linejoin: round;stroke-miterlimit: 10.000000;fill: none;"></path>
  <path d="M741.053085 288.437180C741.053085 245.706329,724.075790 204.730728,693.862808 174.517746C663.649826 144.304764,622.674225 127.327469,579.943375 127.327469C537.212524 127.327469,496.236923 144.304764,466.023941 174.517746C435.810959 204.730728,418.833664 245.706329,418.833664 288.437180C418.833664 331.168030,435.810959 372.143631,466.023941 402.356613C496.236923 432.569595,537.212524 449.546890,579.943375 449.546890C622.674225 449.546890,663.649826 432.569595,693.862808 402.356613C724.075790 372.143631,741.053085 331.168030,741.053085 288.437180Z" style="stroke:rgb(25.500488%,41.000366%,88.400269%); stroke-width: 2.500000;stroke-linecap: round;stroke-linejoin: round;stroke-miterlimit: 10.000000;fill: none;"></path>
  <path d="M838.736237 1532.171448C838.736237 1489.440598,821.758942 1448.464996,791.545959 1418.252014C761.332977 1388.039032,720.357376 1371.061737,677.626526 1371.061737C634.895676 1371.061737,593.920074 1388.039032,563.707092 1418.252014C533.494110 1448.464996,516.516815 1489.440598,516.516815 1532.171448C516.516815 1574.902298,533.494110 1615.877899,563.707092 1646.090881C593.920074 1676.303864,634.895676 1693.281158,677.626526 1693.281158C720.357376 1693.281158,761.332977 1676.303864,791.545959 1646.090881C821.758942 1615.877899,838.736237 1574.902298,838.736237 1532.171448Z" style="stroke:rgb(25.500488%,41.000366%,88.400269%); stroke-width: 2.500000;stroke-linecap: round;stroke-linejoin: round;stroke-miterlimit: 10.000000;fill: none;"></path>
  <path d="M741.805695 1252.292633C741.805695 1209.561783,724.828400 1168.586182,694.615417 1138.373199C664.402435 1108.160217,623.426834 1091.182922,580.695984 1091.182922C537.965134 1091.182922,496.989532 1108.160217,466.776550 1138.373199C436.563568 1168.586182,419.586273 1209.561783,419.586273 1252.292633C419.586273 1295.023483,436.563568 1335.999084,466.776550 1366.212067C496.989532 1396.425049,537.965134 1413.402344,580.695984 1413.402344C623.426834 1413.402344,664.402435 1396.425049,694.615417 1366.212067C724.828400 1335.999084,741.805695 1295.023483,741.805695 1252.292633Z" style="stroke:rgb(25.500488%,41.000366%,88.400269%); stroke-width: 2.500000;stroke-linecap: round;stroke-linejoin: round;stroke-miterlimit: 10.000000;fill: none;"></path>
  <path d="M609.333969 1019.347916C609.333969 976.617065,592.356674 935.641464,562.143692 905.428482C531.930710 875.215500,490.955109 858.238205,448.224258 858.238205C405.493408 858.238205,364.517807 875.215500,334.304825 905.428482C304.091843 935.641464,287.114548 976.617065,287.114548 1019.347916C287.114548 1062.078766,304.091843 1103.054367,334.304825 1133.267349C364.517807 1163.480331,405.493408 1180.457626,448.224258 1180.457626C490.955109 1180.457626,531.930710 1163.480331,562.143692 1133.267349C592.356674 1103.054367,609.333969 1062.078766,609.333969 1019.347916Z" style="stroke:rgb(25.500488%,41.000366%,88.400269%); stroke-width: 2.500000;stroke-linecap: round;stroke-linejoin: round;stroke-miterlimit: 10.000000;fill: none;"></path>
  <path d="M579.593033 753.029007C579.593033 710.298157,562.615738 669.322556,532.402756 639.109573C502.189774 608.896591,461.214172 591.919296,418.483322 591.919296C375.752472 591.919296,334.776871 608.896591,304.563889 639.109573C274.350906 669.322556,257.373611 710.298157,257.373611 753.029007C257.373611 795.759857,274.350906 836.735458,304.563889 866.948441C334.776871 897.161423,375.752472 914.138718,418.483322 914.138718C461.214172 914.138718,502.189774 897.161423,532.402756 866.948441C562.615738 836.735458,579.593033 795.759857,579.593033 753.029007Z" style="stroke:rgb(25.500488%,41.000366%,88.400269%); stroke-width: 2.500000;stroke-linecap: round;stroke-linejoin: round;stroke-miterlimit: 10.000000;fill: none;"></path>
  <path d="M493.484451 469.620728C493.484451 426.889877,476.507156 385.914276,446.294174 355.701294C416.081192 325.488312,375.105591 308.511017,332.374741 308.511017C289.643890 308.511017,248.668289 325.488312,218.455307 355.701294C188.242325 385.914276,171.265030 426.889877,171.265030 469.620728C171.265030 512.351578,188.242325 553.327179,218.455307 583.540161C248.668289 613.753143,289.643890 630.730438,332.374741 630.730438C375.105591 630.730438,416.081192 613.753143,446.294174 583.540161C476.507156 553.327179,493.484451 512.351578,493.484451 469.620728Z" style="stroke:rgb(25.500488%,41.000366%,88.400269%); stroke-width: 2.500000;stroke-linecap: round;stroke-linejoin: round;stroke-miterlimit: 10.000000;fill: none;"></path>
  <path d="M577.088669 1462.788910C577.088669 1420.058060,560.111374 1379.082458,529.898392 1348.869476C499.685410 1318.656494,458.709808 1301.679199,415.978958 1301.679199C373.248108 1301.679199,332.272507 1318.656494,302.059525 1348.869476C271.846542 1379.082458,254.869247 1420.058060,254.869247 1462.788910C254.869247 1505.519760,271.846542 1546.495361,302.059525 1576.708344C332.272507 1606.921326,373.248108 1623.898621,415.978958 1623.898621C458.709808 1623.898621,499.685410 1606.921326,529.898392 1576.708344C560.111374 1546.495361,577.088669 1505.519760,577.088669 1462.788910Z" style="stroke:rgb(25.500488%,41.000366%,88.400269%); stroke-width: 2.500000;stroke-linecap: round;stroke-linejoin: round;stroke-miterlimit: 10.000000;fill: none;"></path>
  <path d="M444.578003 1229.844193C444.578003 1187.113342,427.600708 1146.137741,397.387726 1115.924759C367.174744 1085.711777,326.199142 1068.734482,283.468292 1068.734482C240.737442 1068.734482,199.761841 1085.711777,169.548859 1115.924759C139.335876 1146.137741,122.358582 1187.113342,122.358582 1229.844193C122.358582 1272.575043,139.335876 1313.550644,169.548859 1343.763626C199.761841 1373.976608,240.737442 1390.953903,283.468292 1390.953903C326.199142 1390.953903,367.174744 1373.976608,397.387726 1343.763626C427.600708 1313.550644,444.578003 1272.575043,444.578003 1229.844193Z" style="stroke:rgb(25.500488%,41.000366%,88.400269%); stroke-width: 2.500000;stroke-linecap: round;stroke-linejoin: round;stroke-miterlimit: 10.000000;fill: none;"></path>
  <path d="M352.318817 945.890930C352.318817 903.160080,335.341522 862.184479,305.128540 831.971497C274.915558 801.758514,233.939957 784.781219,191.209106 784.781219C148.478256 784.781219,107.502655 801.758514,77.289673 831.971497C47.076691 862.184479,30.099396 903.160080,30.099396 945.890930C30.099396 988.621780,47.076691 1029.597382,77.289673 1059.810364C107.502655 1090.023346,148.478256 1107.000641,191.209106 1107.000641C233.939957 1107.000641,274.915558 1090.023346,305.128540 1059.810364C335.341522 1029.597382,352.318817 988.621780,352.318817 945.890930Z" style="stroke:rgb(25.500488%,41.000366%,88.400269%); stroke-width: 2.500000;stroke-linecap: round;stroke-linejoin: round;stroke-miterlimit: 10.000000;fill: none;"></path>
  <path d="M322.603836 679.546051C322.603836 636.815201,305.626541 595.839600,275.413559 565.626617C245.200577 535.413635,204.224976 518.436340,161.494125 518.436340C118.763275 518.436340,77.787674 535.413635,47.574692 565.626617C17.361710 595.839600,0.384415 636.815201,0.384415 679.546051C0.384415 722.276901,17.361710 763.252502,47.574692 793.465485C77.787674 823.678467,118.763275 840.655762,161.494125 840.655762C204.224976 840.655762,245.200577 823.678467,275.413559 793.465485C305.626541 763.252502,322.603836 722.276901,322.603836 679.546051Z" style="stroke:rgb(25.500488%,41.000366%,88.400269%); stroke-width: 2.500000;stroke-linecap: round;stroke-linejoin: round;stroke-miterlimit: 10.000000;fill: none;"></path>
</svg>
