<?xml version="1.0"?>
<!-- Created by MetaPost 2.00 on 2022.03.02:1201 -->
<svg version="1.1" xmlns="http://www.w3.org/2000/svg" xmlns:xlink="http://www.w3.org/1999/xlink" width="1893.631638" height="1943.796768" viewBox="0 0 1893.631638 1943.796768">
<!-- Original BoundingBox: -966.156509 -944.110336 927.475128 999.686432 -->
  <path d="M966.000000 148.606476L506.248215 283.608521L192.450195 645.729065L124.261444 1120.026917L323.312912 1555.889938L726.411591 1814.942307L1205.588409 1814.942307L1608.687088 1555.889938L1807.738556 1120.026917L1739.549805 645.729065L1425.751785 283.608521L966.000000 148.606476Z" style="fill: rgb(100.000000%,100.000000%,100.000000%);stroke: none;"></path>
  <path d="M966.000000 148.606476L506.248215 283.608521" style="stroke:rgb(0.000000%,0.000000%,0.000000%); stroke-width: 2.500000;stroke-linecap: round;stroke-linejoin: round;stroke-miterlimit: 10.000000;fill: none;"></path>
  <path d="M506.248215 283.608521L192.450195 645.729065" style="stroke:rgb(0.000000%,0.000000%,0.000000%); stroke-width: 2.500000;stroke-linecap: round;stroke-linejoin: round;stroke-miterlimit: 10.000000;fill: none;"></path>
  <path d="M192.450195 645.729065L124.261444 1120.026917" style="stroke:rgb(0.000000%,0.000000%,0.000000%); stroke-width: 2.500000;stroke-linecap: round;stroke-linejoin: round;stroke-miterlimit: 10.000000;fill: none;"></path>
  <path d="M124.261444 1120.026917L323.312912 1555.889938" style="stroke:rgb(0.000000%,0.000000%,0.000000%); stroke-width: 2.500000;stroke-linecap: round;stroke-linejoin: round;stroke-miterlimit: 10.000000;fill: none;"></path>
  <path d="M323.312912 1555.889938L726.411591 1814.942307" style="stroke:rgb(0.000000%,0.000000%,0.000000%); stroke-width: 2.500000;stroke-linecap: round;stroke-linejoin: round;stroke-miterlimit: 10.000000;fill: none;"></path>
  <path d="M726.411591 1814.942307L1205.588409 1814.942307" style="stroke:rgb(0.000000%,0.000000%,0.000000%); stroke-width: 2.500000;stroke-linecap: round;stroke-linejoin: round;stroke-miterlimit: 10.000000;fill: none;"></path>
  <path d="M1205.588409 1814.942307L1608.687088 1555.889938" style="stroke:rgb(0.000000%,0.000000%,0.000000%); stroke-width: 2.500000;stroke-linecap: round;stroke-linejoin: round;stroke-miterlimit: 10.000000;fill: none;"></path>
  <path d="M1608.687088 1555.889938L1807.738556 1120.026917" style="stroke:rgb(0.000000%,0.000000%,0.000000%); stroke-width: 2.500000;stroke-linecap: round;stroke-linejoin: round;stroke-miterlimit: 10.000000;fill: none;"></path>
  <path d="M1807.738556 1120.026917L1739.549805 645.729065" style="stroke:rgb(0.000000%,0.000000%,0.000000%); stroke-width: 2.500000;stroke-linecap: round;stroke-linejoin: round;stroke-miterlimit: 10.000000;fill: none;"></path>
  <path d="M1739.549805 645.729065L1425.751785 283.608521" style="stroke:rgb(0.000000%,0.000000%,0.000000%); stroke-width: 2.500000;stroke-linecap: round;stroke-linejoin: round;stroke-miterlimit: 10.000000;fill: none;"></path>
  <path d="M1425.751785 283.608521L966.000000 148.606476" style="stroke:rgb(0.000000%,0.000000%,0.000000%); stroke-width: 2.500000;stroke-linecap: round;stroke-linejoin: round;stroke-miterlimit: 10.000000;fill: none;"></path>
  <path d="M930.186310 1682.496521C930.186310 1623.249451,906.647003 1566.436081,864.756165 1524.545242C822.865326 1482.654404,766.051956 1459.115097,706.804886 1459.115097C647.557816 1459.115097,590.744446 1482.654404,548.853607 1524.545242C506.962769 1566.436081,483.423462 1623.249451,483.423462 1682.496521C483.423462 1741.743591,506.962769 1798.556961,548.853607 1840.447800C590.744446 1882.338638,647.557816 1905.877945,706.804886 1905.877945C766.051956 1905.877945,822.865326 1882.338638,864.756165 1840.447800C906.647003 1798.556961,930.186310 1741.743591,930.186310 1682.496521Z" style="stroke:rgb(25.500488%,41.000366%,88.400269%); stroke-width: 2.500000;stroke-linecap: round;stroke-linejoin: round;stroke-miterlimit: 10.000000;fill: none;"></path>
  <path d="M1311.537262 1718.478912C1311.537262 1659.231842,1287.997955 1602.418472,1246.107117 1560.527634C1204.216278 1518.636795,1147.402908 1495.097488,1088.155838 1495.097488C1028.908768 1495.097488,972.095398 1518.636795,930.204559 1560.527634C888.313721 1602.418472,864.774414 1659.231842,864.774414 1718.478912C864.774414 1777.725983,888.313721 1834.539352,930.204559 1876.430191C972.095398 1918.321030,1028.908768 1941.860336,1088.155838 1941.860336C1147.402908 1941.860336,1204.216278 1918.321030,1246.107117 1876.430191C1287.997955 1834.539352,1311.537262 1777.725983,1311.537262 1718.478912Z" style="stroke:rgb(25.500488%,41.000366%,88.400269%); stroke-width: 2.500000;stroke-linecap: round;stroke-linejoin: round;stroke-miterlimit: 10.000000;fill: none;"></path>
  <path d="M447.856339 1231.412689C447.856339 1172.165619,424.317032 1115.352249,382.426193 1073.461411C340.535355 1031.570572,283.721985 1008.031265,224.474915 1008.031265C165.227844 1008.031265,108.414474 1031.570572,66.523636 1073.461411C24.632797 1115.352249,1.093491 1172.165619,1.093491 1231.412689C1.093491 1290.659760,24.632797 1347.473129,66.523636 1389.363968C108.414474 1431.254807,165.227844 1454.794113,224.474915 1454.794113C283.721985 1454.794113,340.535355 1431.254807,382.426193 1389.363968C424.317032 1347.473129,447.856339 1290.659760,447.856339 1231.412689Z" style="stroke:rgb(25.500488%,41.000366%,88.400269%); stroke-width: 2.500000;stroke-linecap: round;stroke-linejoin: round;stroke-miterlimit: 10.000000;fill: none;"></path>
  <path d="M720.961685 1436.536911C720.961685 1377.289841,697.422379 1320.476471,655.531540 1278.585632C613.640701 1236.694794,556.827332 1213.155487,497.580261 1213.155487C438.333191 1213.155487,381.519821 1236.694794,339.628983 1278.585632C297.738144 1320.476471,274.198837 1377.289841,274.198837 1436.536911C274.198837 1495.783981,297.738144 1552.597351,339.628983 1594.488190C381.519821 1636.379028,438.333191 1659.918335,497.580261 1659.918335C556.827332 1659.918335,613.640701 1636.379028,655.531540 1594.488190C697.422379 1552.597351,720.961685 1495.783981,720.961685 1436.536911Z" style="stroke:rgb(25.500488%,41.000366%,88.400269%); stroke-width: 2.500000;stroke-linecap: round;stroke-linejoin: round;stroke-miterlimit: 10.000000;fill: none;"></path>
  <path d="M1144.069321 1363.002060C1144.069321 1303.754990,1120.530014 1246.941620,1078.639175 1205.050781C1036.748337 1163.159943,979.934967 1139.620636,920.687897 1139.620636C861.440826 1139.620636,804.627457 1163.159943,762.736618 1205.050781C720.845779 1246.941620,697.306473 1303.754990,697.306473 1363.002060C697.306473 1422.249130,720.845779 1479.062500,762.736618 1520.953339C804.627457 1562.844177,861.440826 1586.383484,920.687897 1586.383484C979.934967 1586.383484,1036.748337 1562.844177,1078.639175 1520.953339C1120.530014 1479.062500,1144.069321 1422.249130,1144.069321 1363.002060Z" style="stroke:rgb(25.500488%,41.000366%,88.400269%); stroke-width: 2.500000;stroke-linecap: round;stroke-linejoin: round;stroke-miterlimit: 10.000000;fill: none;"></path>
  <path d="M1533.257751 1524.734619C1533.257751 1465.487549,1509.718445 1408.674179,1467.827606 1366.783340C1425.936768 1324.892502,1369.123398 1301.353195,1309.876328 1301.353195C1250.629257 1301.353195,1193.815887 1324.892502,1151.925049 1366.783340C1110.034210 1408.674179,1086.494904 1465.487549,1086.494904 1524.734619C1086.494904 1583.981689,1110.034210 1640.795059,1151.925049 1682.685898C1193.815887 1724.576736,1250.629257 1748.116043,1309.876328 1748.116043C1369.123398 1748.116043,1425.936768 1724.576736,1467.827606 1682.685898C1509.718445 1640.795059,1533.257751 1583.981689,1533.257751 1524.734619Z" style="stroke:rgb(25.500488%,41.000366%,88.400269%); stroke-width: 2.500000;stroke-linecap: round;stroke-linejoin: round;stroke-miterlimit: 10.000000;fill: none;"></path>
  <path d="M1839.088516 1418.759827C1839.088516 1359.512756,1815.549210 1302.699387,1773.658371 1260.808548C1731.767532 1218.917709,1674.954163 1195.378403,1615.707092 1195.378403C1556.460022 1195.378403,1499.646652 1218.917709,1457.755814 1260.808548C1415.864975 1302.699387,1392.325668 1359.512756,1392.325668 1418.759827C1392.325668 1478.006897,1415.864975 1534.820267,1457.755814 1576.711105C1499.646652 1618.601944,1556.460022 1642.141251,1615.707092 1642.141251C1674.954163 1642.141251,1731.767532 1618.601944,1773.658371 1576.711105C1815.549210 1534.820267,1839.088516 1478.006897,1839.088516 1418.759827Z" style="stroke:rgb(25.500488%,41.000366%,88.400269%); stroke-width: 2.500000;stroke-linecap: round;stroke-linejoin: round;stroke-miterlimit: 10.000000;fill: none;"></path>
  <path d="M532.874924 882.540619C532.874924 823.293549,509.335617 766.480179,467.444778 724.589340C425.553940 682.698502,368.740570 659.159195,309.493500 659.159195C250.246429 659.159195,193.433060 682.698502,151.542221 724.589340C109.651382 766.480179,86.112076 823.293549,86.112076 882.540619C86.112076 941.787689,109.651382 998.601059,151.542221 1040.491898C193.433060 1082.382736,250.246429 1105.922043,309.493500 1105.922043C368.740570 1105.922043,425.553940 1082.382736,467.444778 1040.491898C509.335617 998.601059,532.874924 941.787689,532.874924 882.540619Z" style="stroke:rgb(25.500488%,41.000366%,88.400269%); stroke-width: 2.500000;stroke-linecap: round;stroke-linejoin: round;stroke-miterlimit: 10.000000;fill: none;"></path>
  <path d="M838.614853 1131.809113C838.614853 1072.562042,815.075546 1015.748672,773.184708 973.857834C731.293869 931.966995,674.480499 908.427689,615.233429 908.427689C555.986359 908.427689,499.172989 931.966995,457.282150 973.857834C415.391312 1015.748672,391.852005 1072.562042,391.852005 1131.809113C391.852005 1191.056183,415.391312 1247.869553,457.282150 1289.760391C499.172989 1331.651230,555.986359 1355.190536,615.233429 1355.190536C674.480499 1355.190536,731.293869 1331.651230,773.184708 1289.760391C815.075546 1247.869553,838.614853 1191.056183,838.614853 1131.809113Z" style="stroke:rgb(25.500488%,41.000366%,88.400269%); stroke-width: 2.500000;stroke-linecap: round;stroke-linejoin: round;stroke-miterlimit: 10.000000;fill: none;"></path>
  <path d="M1196.012146 982.624313C1196.012146 923.377243,1172.472839 866.563873,1130.582001 824.673035C1088.691162 782.782196,1031.877792 759.242889,972.630722 759.242889C913.383652 759.242889,856.570282 782.782196,814.679443 824.673035C772.788605 866.563873,749.249298 923.377243,749.249298 982.624313C749.249298 1041.871384,772.788605 1098.684753,814.679443 1140.575592C856.570282 1182.466431,913.383652 1206.005737,972.630722 1206.005737C1031.877792 1206.005737,1088.691162 1182.466431,1130.582001 1140.575592C1172.472839 1098.684753,1196.012146 1041.871384,1196.012146 982.624313Z" style="stroke:rgb(25.500488%,41.000366%,88.400269%); stroke-width: 2.500000;stroke-linecap: round;stroke-linejoin: round;stroke-miterlimit: 10.000000;fill: none;"></path>
  <path d="M1506.280701 1200.685593C1506.280701 1141.438522,1482.741394 1084.625153,1440.850555 1042.734314C1398.959717 1000.843475,1342.146347 977.304169,1282.899277 977.304169C1223.652206 977.304169,1166.838837 1000.843475,1124.947998 1042.734314C1083.057159 1084.625153,1059.517853 1141.438522,1059.517853 1200.685593C1059.517853 1259.932663,1083.057159 1316.746033,1124.947998 1358.636871C1166.838837 1400.527710,1223.652206 1424.067017,1282.899277 1424.067017C1342.146347 1424.067017,1398.959717 1400.527710,1440.850555 1358.636871C1482.741394 1316.746033,1506.280701 1259.932663,1506.280701 1200.685593Z" style="stroke:rgb(25.500488%,41.000366%,88.400269%); stroke-width: 2.500000;stroke-linecap: round;stroke-linejoin: round;stroke-miterlimit: 10.000000;fill: none;"></path>
  <path d="M552.377823 526.155457C552.377823 466.908386,528.838516 410.095016,486.947678 368.204178C445.056839 326.313339,388.243469 302.774033,328.996399 302.774033C269.749329 302.774033,212.935959 326.313339,171.045120 368.204178C129.154282 410.095016,105.614975 466.908386,105.614975 526.155457C105.614975 585.402527,129.154282 642.215897,171.045120 684.106735C212.935959 725.997574,269.749329 749.536880,328.996399 749.536880C388.243469 749.536880,445.056839 725.997574,486.947678 684.106735C528.838516 642.215897,552.377823 585.402527,552.377823 526.155457Z" style="stroke:rgb(25.500488%,41.000366%,88.400269%); stroke-width: 2.500000;stroke-linecap: round;stroke-linejoin: round;stroke-miterlimit: 10.000000;fill: none;"></path>
  <path d="M887.819748 748.537720C887.819748 689.290649,864.280441 632.477280,822.389603 590.586441C780.498764 548.695602,723.685394 525.156296,664.438324 525.156296C605.191254 525.156296,548.377884 548.695602,506.487045 590.586441C464.596207 632.477280,441.056900 689.290649,441.056900 748.537720C441.056900 807.784790,464.596207 864.598160,506.487045 906.488998C548.377884 948.379837,605.191254 971.919144,664.438324 971.919144C723.685394 971.919144,780.498764 948.379837,822.389603 906.488998C864.280441 864.598160,887.819748 807.784790,887.819748 748.537720Z" style="stroke:rgb(25.500488%,41.000366%,88.400269%); stroke-width: 2.500000;stroke-linecap: round;stroke-linejoin: round;stroke-miterlimit: 10.000000;fill: none;"></path>
  <path d="M1235.783508 594.370163C1235.783508 535.123093,1212.244202 478.309723,1170.353363 436.418884C1128.462524 394.528046,1071.649155 370.988739,1012.402084 370.988739C953.155014 370.988739,896.341644 394.528046,854.450806 436.418884C812.559967 478.309723,789.020660 535.123093,789.020660 594.370163C789.020660 653.617233,812.559967 710.430603,854.450806 752.321442C896.341644 794.212280,953.155014 817.751587,1012.402084 817.751587C1071.649155 817.751587,1128.462524 794.212280,1170.353363 752.321442C1212.244202 710.430603,1235.783508 653.617233,1235.783508 594.370163Z" style="stroke:rgb(25.500488%,41.000366%,88.400269%); stroke-width: 2.500000;stroke-linecap: round;stroke-linejoin: round;stroke-miterlimit: 10.000000;fill: none;"></path>
  <path d="M1546.272644 822.241257C1546.272644 762.994186,1522.733337 706.180817,1480.842499 664.289978C1438.951660 622.399139,1382.138290 598.859833,1322.891220 598.859833C1263.644150 598.859833,1206.830780 622.399139,1164.939941 664.289978C1123.049103 706.180817,1099.509796 762.994186,1099.509796 822.241257C1099.509796 881.488327,1123.049103 938.301697,1164.939941 980.192535C1206.830780 1022.083374,1263.644150 1045.622681,1322.891220 1045.622681C1382.138290 1045.622681,1438.951660 1022.083374,1480.842499 980.192535C1522.733337 938.301697,1546.272644 881.488327,1546.272644 822.241257Z" style="stroke:rgb(25.500488%,41.000366%,88.400269%); stroke-width: 2.500000;stroke-linecap: round;stroke-linejoin: round;stroke-miterlimit: 10.000000;fill: none;"></path>
  <path d="M1864.742020 1047.841568C1864.742020 988.594498,1841.202713 931.781128,1799.311874 889.890289C1757.421036 847.999451,1700.607666 824.460144,1641.360596 824.460144C1582.113525 824.460144,1525.300156 847.999451,1483.409317 889.890289C1441.518478 931.781128,1417.979172 988.594498,1417.979172 1047.841568C1417.979172 1107.088638,1441.518478 1163.902008,1483.409317 1205.792847C1525.300156 1247.683685,1582.113525 1271.222992,1641.360596 1271.222992C1700.607666 1271.222992,1757.421036 1247.683685,1799.311874 1205.792847C1841.202713 1163.902008,1864.742020 1107.088638,1864.742020 1047.841568Z" style="stroke:rgb(25.500488%,41.000366%,88.400269%); stroke-width: 2.500000;stroke-linecap: round;stroke-linejoin: round;stroke-miterlimit: 10.000000;fill: none;"></path>
  <path d="M900.263718 372.455032C900.263718 313.207962,876.724411 256.394592,834.833572 214.503754C792.942734 172.612915,736.129364 149.073608,676.882294 149.073608C617.635223 149.073608,560.821854 172.612915,518.931015 214.503754C477.040176 256.394592,453.500870 313.207962,453.500870 372.455032C453.500870 431.702103,477.040176 488.515472,518.931015 530.406311C560.821854 572.297150,617.635223 595.836456,676.882294 595.836456C736.129364 595.836456,792.942734 572.297150,834.833572 530.406311C876.724411 488.515472,900.263718 431.702103,900.263718 372.455032Z" style="stroke:rgb(25.500488%,41.000366%,88.400269%); stroke-width: 2.500000;stroke-linecap: round;stroke-linejoin: round;stroke-miterlimit: 10.000000;fill: none;"></path>
  <path d="M1256.051987 223.944992C1256.051987 164.697922,1232.512680 107.884552,1190.621841 65.993713C1148.731003 24.102875,1091.917633 0.563568,1032.670563 0.563568C973.423492 0.563568,916.610123 24.102875,874.719284 65.993713C832.828445 107.884552,809.289139 164.697922,809.289139 223.944992C809.289139 283.192062,832.828445 340.005432,874.719284 381.896271C916.610123 423.787109,973.423492 447.326416,1032.670563 447.326416C1091.917633 447.326416,1148.731003 423.787109,1190.621841 381.896271C1232.512680 340.005432,1256.051987 283.192062,1256.051987 223.944992Z" style="stroke:rgb(25.500488%,41.000366%,88.400269%); stroke-width: 2.500000;stroke-linecap: round;stroke-linejoin: round;stroke-miterlimit: 10.000000;fill: none;"></path>
  <path d="M1582.709198 431.690353C1582.709198 372.443283,1559.169891 315.629913,1517.279053 273.739075C1475.388214 231.848236,1418.574844 208.308929,1359.327774 208.308929C1300.080704 208.308929,1243.267334 231.848236,1201.376495 273.739075C1159.485657 315.629913,1135.946350 372.443283,1135.946350 431.690353C1135.946350 490.937424,1159.485657 547.750793,1201.376495 589.641632C1243.267334 631.532471,1300.080704 655.071777,1359.327774 655.071777C1418.574844 655.071777,1475.388214 631.532471,1517.279053 589.641632C1559.169891 547.750793,1582.709198 490.937424,1582.709198 431.690353Z" style="stroke:rgb(25.500488%,41.000366%,88.400269%); stroke-width: 2.500000;stroke-linecap: round;stroke-linejoin: round;stroke-miterlimit: 10.000000;fill: none;"></path>
  <path d="M1892.225128 667.528702C1892.225128 608.281631,1868.685822 551.468262,1826.794983 509.577423C1784.904144 467.686584,1728.090775 444.147278,1668.843704 444.147278C1609.596634 444.147278,1552.783264 467.686584,1510.892426 509.577423C1469.001587 551.468262,1445.462280 608.281631,1445.462280 667.528702C1445.462280 726.775772,1469.001587 783.589142,1510.892426 825.479980C1552.783264 867.370819,1609.596634 890.910126,1668.843704 890.910126C1728.090775 890.910126,1784.904144 867.370819,1826.794983 825.479980C1868.685822 783.589142,1892.225128 726.775772,1892.225128 667.528702Z" style="stroke:rgb(25.500488%,41.000366%,88.400269%); stroke-width: 2.500000;stroke-linecap: round;stroke-linejoin: round;stroke-miterlimit: 10.000000;fill: none;"></path>
</svg>
