<?xml version="1.0"?>
<!-- Created by MetaPost 2.00 on 2022.03.02:1201 -->
<svg version="1.1" xmlns="http://www.w3.org/2000/svg" xmlns:xlink="http://www.w3.org/1999/xlink" width="1760.446213" height="1840.001923" viewBox="0 0 1760.446213 1840.001923">
<!-- Original BoundingBox: -882.344681 -914.927353 878.101532 925.074570 -->
  <path d="M1732.393524 925.000000L1483.319672 323.680328L882.000000 74.606476L280.680328 323.680328L31.606476 925.000000L280.680328 1526.319672L882.000000 1775.393524L1483.319672 1526.319672L1732.393524 925.000000Z" style="fill: rgb(100.000000%,100.000000%,100.000000%);stroke: none;"></path>
  <path d="M1732.393524 925.000000L1483.319672 323.680328" style="stroke:rgb(0.000000%,0.000000%,0.000000%); stroke-width: 2.500000;stroke-linecap: round;stroke-linejoin: round;stroke-miterlimit: 10.000000;fill: none;"></path>
  <path d="M1483.319672 323.680328L882.000000 74.606476" style="stroke:rgb(0.000000%,0.000000%,0.000000%); stroke-width: 2.500000;stroke-linecap: round;stroke-linejoin: round;stroke-miterlimit: 10.000000;fill: none;"></path>
  <path d="M882.000000 74.606476L280.680328 323.680328" style="stroke:rgb(0.000000%,0.000000%,0.000000%); stroke-width: 2.500000;stroke-linecap: round;stroke-linejoin: round;stroke-miterlimit: 10.000000;fill: none;"></path>
  <path d="M280.680328 323.680328L31.606476 925.000000" style="stroke:rgb(0.000000%,0.000000%,0.000000%); stroke-width: 2.500000;stroke-linecap: round;stroke-linejoin: round;stroke-miterlimit: 10.000000;fill: none;"></path>
  <path d="M31.606476 925.000000L280.680328 1526.319672" style="stroke:rgb(0.000000%,0.000000%,0.000000%); stroke-width: 2.500000;stroke-linecap: round;stroke-linejoin: round;stroke-miterlimit: 10.000000;fill: none;"></path>
  <path d="M280.680328 1526.319672L882.000000 1775.393524" style="stroke:rgb(0.000000%,0.000000%,0.000000%); stroke-width: 2.500000;stroke-linecap: round;stroke-linejoin: round;stroke-miterlimit: 10.000000;fill: none;"></path>
  <path d="M882.000000 1775.393524L1483.319672 1526.319672" style="stroke:rgb(0.000000%,0.000000%,0.000000%); stroke-width: 2.500000;stroke-linecap: round;stroke-linejoin: round;stroke-miterlimit: 10.000000;fill: none;"></path>
  <path d="M1483.319672 1526.319672L1732.393524 925.000000" style="stroke:rgb(0.000000%,0.000000%,0.000000%); stroke-width: 2.500000;stroke-linecap: round;stroke-linejoin: round;stroke-miterlimit: 10.000000;fill: none;"></path>
  <path d="M671.672409 1590.226349C671.672409 1550.045715,655.708344 1511.515594,627.298492 1483.105759C598.888657 1454.695908,560.358536 1438.731842,520.177902 1438.731842C479.997269 1438.731842,441.467148 1454.695908,413.057312 1483.105759C384.647461 1511.515594,368.683395 1550.045715,368.683395 1590.226349C368.683395 1630.406982,384.647461 1668.937103,413.057312 1697.346939C441.467148 1725.756790,479.997269 1741.720856,520.177902 1741.720856C560.358536 1741.720856,598.888657 1725.756790,627.298492 1697.346939C655.708344 1668.937103,671.672409 1630.406982,671.672409 1590.226349Z" style="stroke:rgb(25.500488%,41.000366%,88.400269%); stroke-width: 2.500000;stroke-linecap: round;stroke-linejoin: round;stroke-miterlimit: 10.000000;fill: none;"></path>
  <path d="M947.022614 1687.182846C947.022614 1647.002213,931.058548 1608.472092,902.648697 1580.062256C874.238861 1551.652405,835.708740 1535.688339,795.528107 1535.688339C755.347473 1535.688339,716.817352 1551.652405,688.407516 1580.062256C659.997665 1608.472092,644.033600 1647.002213,644.033600 1687.182846C644.033600 1727.363480,659.997665 1765.893600,688.407516 1794.303436C716.817352 1822.713287,755.347473 1838.677353,795.528107 1838.677353C835.708740 1838.677353,874.238861 1822.713287,902.648697 1794.303436C931.058548 1765.893600,947.022614 1727.363480,947.022614 1687.182846Z" style="stroke:rgb(25.500488%,41.000366%,88.400269%); stroke-width: 2.500000;stroke-linecap: round;stroke-linejoin: round;stroke-miterlimit: 10.000000;fill: none;"></path>
  <path d="M463.888107 1424.030060C463.888107 1383.849426,447.924042 1345.319305,419.514191 1316.909470C391.104355 1288.499619,352.574234 1272.535553,312.393600 1272.535553C272.212967 1272.535553,233.682846 1288.499619,205.273010 1316.909470C176.863159 1345.319305,160.899094 1383.849426,160.899094 1424.030060C160.899094 1464.210693,176.863159 1502.740814,205.273010 1531.150650C233.682846 1559.560501,272.212967 1575.524567,312.393600 1575.524567C352.574234 1575.524567,391.104355 1559.560501,419.514191 1531.150650C447.924042 1502.740814,463.888107 1464.210693,463.888107 1424.030060Z" style="stroke:rgb(25.500488%,41.000366%,88.400269%); stroke-width: 2.500000;stroke-linecap: round;stroke-linejoin: round;stroke-miterlimit: 10.000000;fill: none;"></path>
  <path d="M711.560562 1388.917068C711.560562 1348.736435,695.596497 1310.206314,667.186646 1281.796478C638.776810 1253.386627,600.246689 1237.422562,560.066055 1237.422562C519.885422 1237.422562,481.355301 1253.386627,452.945465 1281.796478C424.535614 1310.206314,408.571548 1348.736435,408.571548 1388.917068C408.571548 1429.097702,424.535614 1467.627823,452.945465 1496.037659C481.355301 1524.447510,519.885422 1540.411575,560.066055 1540.411575C600.246689 1540.411575,638.776810 1524.447510,667.186646 1496.037659C695.596497 1467.627823,711.560562 1429.097702,711.560562 1388.917068Z" style="stroke:rgb(25.500488%,41.000366%,88.400269%); stroke-width: 2.500000;stroke-linecap: round;stroke-linejoin: round;stroke-miterlimit: 10.000000;fill: none;"></path>
  <path d="M939.678207 1504.026947C939.678207 1463.846313,923.714142 1425.316193,895.304291 1396.906357C866.894455 1368.496506,828.364334 1352.532440,788.183701 1352.532440C748.003067 1352.532440,709.472946 1368.496506,681.063110 1396.906357C652.653259 1425.316193,636.689194 1463.846313,636.689194 1504.026947C636.689194 1544.207581,652.653259 1582.737701,681.063110 1611.147537C709.472946 1639.557388,748.003067 1655.521454,788.183701 1655.521454C828.364334 1655.521454,866.894455 1639.557388,895.304291 1611.147537C923.714142 1582.737701,939.678207 1544.207581,939.678207 1504.026947Z" style="stroke:rgb(25.500488%,41.000366%,88.400269%); stroke-width: 2.500000;stroke-linecap: round;stroke-linejoin: round;stroke-miterlimit: 10.000000;fill: none;"></path>
  <path d="M1181.303848 1640.339569C1181.303848 1600.158936,1165.339783 1561.628815,1136.929932 1533.218979C1108.520096 1504.809128,1069.989975 1488.845062,1029.809341 1488.845062C989.628708 1488.845062,951.098587 1504.809128,922.688751 1533.218979C894.278900 1561.628815,878.314835 1600.158936,878.314835 1640.339569C878.314835 1680.520203,894.278900 1719.050323,922.688751 1747.460159C951.098587 1775.870010,989.628708 1791.834076,1029.809341 1791.834076C1069.989975 1791.834076,1108.520096 1775.870010,1136.929932 1747.460159C1165.339783 1719.050323,1181.303848 1680.520203,1181.303848 1640.339569Z" style="stroke:rgb(25.500488%,41.000366%,88.400269%); stroke-width: 2.500000;stroke-linecap: round;stroke-linejoin: round;stroke-miterlimit: 10.000000;fill: none;"></path>
  <path d="M303.894333 973.854553C303.894333 933.673920,287.930267 895.143799,259.520416 866.733963C231.110580 838.324112,192.580460 822.360046,152.399826 822.360046C112.219193 822.360046,73.689072 838.324112,45.279236 866.733963C16.869385 895.143799,0.905319 933.673920,0.905319 973.854553C0.905319 1014.035187,16.869385 1052.565308,45.279236 1080.975143C73.689072 1109.384995,112.219193 1125.349060,152.399826 1125.349060C192.580460 1125.349060,231.110580 1109.384995,259.520416 1080.975143C287.930267 1052.565308,303.894333 1014.035187,303.894333 973.854553Z" style="stroke:rgb(25.500488%,41.000366%,88.400269%); stroke-width: 2.500000;stroke-linecap: round;stroke-linejoin: round;stroke-miterlimit: 10.000000;fill: none;"></path>
  <path d="M401.499619 1183.260834C401.499619 1143.080200,385.535553 1104.550079,357.125702 1076.140244C328.715866 1047.730392,290.185745 1031.766327,250.005112 1031.766327C209.824478 1031.766327,171.294357 1047.730392,142.884521 1076.140244C114.474670 1104.550079,98.510605 1143.080200,98.510605 1183.260834C98.510605 1223.441467,114.474670 1261.971588,142.884521 1290.381424C171.294357 1318.791275,209.824478 1334.755341,250.005112 1334.755341C290.185745 1334.755341,328.715866 1318.791275,357.125702 1290.381424C385.535553 1261.971588,401.499619 1223.441467,401.499619 1183.260834Z" style="stroke:rgb(25.500488%,41.000366%,88.400269%); stroke-width: 2.500000;stroke-linecap: round;stroke-linejoin: round;stroke-miterlimit: 10.000000;fill: none;"></path>
  <path d="M639.362228 1193.382095C639.362228 1153.201462,623.398163 1114.671341,594.988312 1086.261505C566.578476 1057.851654,528.048355 1041.887589,487.867722 1041.887589C447.687088 1041.887589,409.156967 1057.851654,380.747131 1086.261505C352.337280 1114.671341,336.373215 1153.201462,336.373215 1193.382095C336.373215 1233.562729,352.337280 1272.092850,380.747131 1300.502686C409.156967 1328.912537,447.687088 1344.876602,487.867722 1344.876602C528.048355 1344.876602,566.578476 1328.912537,594.988312 1300.502686C623.398163 1272.092850,639.362228 1233.562729,639.362228 1193.382095Z" style="stroke:rgb(25.500488%,41.000366%,88.400269%); stroke-width: 2.500000;stroke-linecap: round;stroke-linejoin: round;stroke-miterlimit: 10.000000;fill: none;"></path>
  <path d="M916.580963 1265.281982C916.580963 1225.101349,900.616898 1186.571228,872.207047 1158.161392C843.797211 1129.751541,805.267090 1113.787476,765.086456 1113.787476C724.905823 1113.787476,686.375702 1129.751541,657.965866 1158.161392C629.556015 1186.571228,613.591949 1225.101349,613.591949 1265.281982C613.591949 1305.462616,629.556015 1343.992737,657.965866 1372.402573C686.375702 1400.812424,724.905823 1416.776489,765.086456 1416.776489C805.267090 1416.776489,843.797211 1400.812424,872.207047 1372.402573C900.616898 1343.992737,916.580963 1305.462616,916.580963 1265.281982Z" style="stroke:rgb(25.500488%,41.000366%,88.400269%); stroke-width: 2.500000;stroke-linecap: round;stroke-linejoin: round;stroke-miterlimit: 10.000000;fill: none;"></path>
  <path d="M1170.987946 1390.876450C1170.987946 1350.695816,1155.023880 1312.165695,1126.614029 1283.755859C1098.204193 1255.346008,1059.674072 1239.381943,1019.493439 1239.381943C979.312805 1239.381943,940.782684 1255.346008,912.372849 1283.755859C883.962997 1312.165695,867.998932 1350.695816,867.998932 1390.876450C867.998932 1431.057083,883.962997 1469.587204,912.372849 1497.997040C940.782684 1526.406891,979.312805 1542.370956,1019.493439 1542.370956C1059.674072 1542.370956,1098.204193 1526.406891,1126.614029 1497.997040C1155.023880 1469.587204,1170.987946 1431.057083,1170.987946 1390.876450Z" style="stroke:rgb(25.500488%,41.000366%,88.400269%); stroke-width: 2.500000;stroke-linecap: round;stroke-linejoin: round;stroke-miterlimit: 10.000000;fill: none;"></path>
  <path d="M1412.963928 1523.309250C1412.963928 1483.128616,1396.999863 1444.598495,1368.590012 1416.188660C1340.180176 1387.778809,1301.650055 1371.814743,1261.469421 1371.814743C1221.288788 1371.814743,1182.758667 1387.778809,1154.348831 1416.188660C1125.938980 1444.598495,1109.974915 1483.128616,1109.974915 1523.309250C1109.974915 1563.489883,1125.938980 1602.020004,1154.348831 1630.429840C1182.758667 1658.839691,1221.288788 1674.803757,1261.469421 1674.803757C1301.650055 1674.803757,1340.180176 1658.839691,1368.590012 1630.429840C1396.999863 1602.020004,1412.963928 1563.489883,1412.963928 1523.309250Z" style="stroke:rgb(25.500488%,41.000366%,88.400269%); stroke-width: 2.500000;stroke-linecap: round;stroke-linejoin: round;stroke-miterlimit: 10.000000;fill: none;"></path>
  <path d="M353.799942 796.421066C353.799942 756.240433,337.835876 717.710312,309.426025 689.300476C281.016190 660.890625,242.486069 644.926559,202.305435 644.926559C162.124802 644.926559,123.594681 660.890625,95.184845 689.300476C66.774994 717.710312,50.810928 756.240433,50.810928 796.421066C50.810928 836.601700,66.774994 875.131821,95.184845 903.541656C123.594681 931.951508,162.124802 947.915573,202.305435 947.915573C242.486069 947.915573,281.016190 931.951508,309.426025 903.541656C337.835876 875.131821,353.799942 836.601700,353.799942 796.421066Z" style="stroke:rgb(25.500488%,41.000366%,88.400269%); stroke-width: 2.500000;stroke-linecap: round;stroke-linejoin: round;stroke-miterlimit: 10.000000;fill: none;"></path>
  <path d="M564.464905 948.603302C564.464905 908.422668,548.500839 869.892548,520.090988 841.482712C491.681152 813.072861,453.151031 797.108795,412.970398 797.108795C372.789764 797.108795,334.259644 813.072861,305.849808 841.482712C277.439957 869.892548,261.475891 908.422668,261.475891 948.603302C261.475891 988.783936,277.439957 1027.314056,305.849808 1055.723892C334.259644 1084.133743,372.789764 1100.097809,412.970398 1100.097809C453.151031 1100.097809,491.681152 1084.133743,520.090988 1055.723892C548.500839 1027.314056,564.464905 988.783936,564.464905 948.603302Z" style="stroke:rgb(25.500488%,41.000366%,88.400269%); stroke-width: 2.500000;stroke-linecap: round;stroke-linejoin: round;stroke-miterlimit: 10.000000;fill: none;"></path>
  <path d="M830.433472 1035.373642C830.433472 995.193008,814.469406 956.662888,786.059555 928.253052C757.649719 899.843201,719.119598 883.879135,678.938965 883.879135C638.758331 883.879135,600.228210 899.843201,571.818375 928.253052C543.408524 956.662888,527.444458 995.193008,527.444458 1035.373642C527.444458 1075.554276,543.408524 1114.084396,571.818375 1142.494232C600.228210 1170.904083,638.758331 1186.868149,678.938965 1186.868149C719.119598 1186.868149,757.649719 1170.904083,786.059555 1142.494232C814.469406 1114.084396,830.433472 1075.554276,830.433472 1035.373642Z" style="stroke:rgb(25.500488%,41.000366%,88.400269%); stroke-width: 2.500000;stroke-linecap: round;stroke-linejoin: round;stroke-miterlimit: 10.000000;fill: none;"></path>
  <path d="M1106.795792 1134.159744C1106.795792 1093.979111,1090.831726 1055.448990,1062.421875 1027.039154C1034.012039 998.629303,995.481918 982.665237,955.301285 982.665237C915.120651 982.665237,876.590530 998.629303,848.180695 1027.039154C819.770844 1055.448990,803.806778 1093.979111,803.806778 1134.159744C803.806778 1174.340378,819.770844 1212.870499,848.180695 1241.280334C876.590530 1269.690186,915.120651 1285.654251,955.301285 1285.654251C995.481918 1285.654251,1034.012039 1269.690186,1062.421875 1241.280334C1090.831726 1212.870499,1106.795792 1174.340378,1106.795792 1134.159744Z" style="stroke:rgb(25.500488%,41.000366%,88.400269%); stroke-width: 2.500000;stroke-linecap: round;stroke-linejoin: round;stroke-miterlimit: 10.000000;fill: none;"></path>
  <path d="M1361.540146 1255.861420C1361.540146 1215.680786,1345.576080 1177.150665,1317.166229 1148.740829C1288.756393 1120.330978,1250.226273 1104.366913,1210.045639 1104.366913C1169.865005 1104.366913,1131.334885 1120.330978,1102.925049 1148.740829C1074.515198 1177.150665,1058.551132 1215.680786,1058.551132 1255.861420C1058.551132 1296.042053,1074.515198 1334.572174,1102.925049 1362.982010C1131.334885 1391.391861,1169.865005 1407.355927,1210.045639 1407.355927C1250.226273 1407.355927,1288.756393 1391.391861,1317.166229 1362.982010C1345.576080 1334.572174,1361.540146 1296.042053,1361.540146 1255.861420Z" style="stroke:rgb(25.500488%,41.000366%,88.400269%); stroke-width: 2.500000;stroke-linecap: round;stroke-linejoin: round;stroke-miterlimit: 10.000000;fill: none;"></path>
  <path d="M1572.594376 1405.993454C1572.594376 1365.812820,1556.630310 1327.282700,1528.220459 1298.872864C1499.810623 1270.463013,1461.280502 1254.498947,1421.099869 1254.498947C1380.919235 1254.498947,1342.389114 1270.463013,1313.979279 1298.872864C1285.569427 1327.282700,1269.605362 1365.812820,1269.605362 1405.993454C1269.605362 1446.174088,1285.569427 1484.704208,1313.979279 1513.114044C1342.389114 1541.523895,1380.919235 1557.487961,1421.099869 1557.487961C1461.280502 1557.487961,1499.810623 1541.523895,1528.220459 1513.114044C1556.630310 1484.704208,1572.594376 1446.174088,1572.594376 1405.993454Z" style="stroke:rgb(25.500488%,41.000366%,88.400269%); stroke-width: 2.500000;stroke-linecap: round;stroke-linejoin: round;stroke-miterlimit: 10.000000;fill: none;"></path>
  <path d="M369.942047 526.118515C369.942047 485.937881,353.977982 447.407761,325.568130 418.997925C297.158295 390.588074,258.628174 374.624008,218.447540 374.624008C178.266907 374.624008,139.736786 390.588074,111.326950 418.997925C82.917099 447.407761,66.953033 485.937881,66.953033 526.118515C66.953033 566.299149,82.917099 604.829269,111.326950 633.239105C139.736786 661.648956,178.266907 677.613022,218.447540 677.613022C258.628174 677.613022,297.158295 661.648956,325.568130 633.239105C353.977982 604.829269,369.942047 566.299149,369.942047 526.118515Z" style="stroke:rgb(25.500488%,41.000366%,88.400269%); stroke-width: 2.500000;stroke-linecap: round;stroke-linejoin: round;stroke-miterlimit: 10.000000;fill: none;"></path>
  <path d="M580.658920 678.274811C580.658920 638.094177,564.694855 599.564056,536.285004 571.154221C507.875168 542.744370,469.345047 526.780304,429.164413 526.780304C388.983780 526.780304,350.453659 542.744370,322.043823 571.154221C293.633972 599.564056,277.669907 638.094177,277.669907 678.274811C277.669907 718.455444,293.633972 756.985565,322.043823 785.395401C350.453659 813.805252,388.983780 829.769318,429.164413 829.769318C469.345047 829.769318,507.875168 813.805252,536.285004 785.395401C564.694855 756.985565,580.658920 718.455444,580.658920 678.274811Z" style="stroke:rgb(25.500488%,41.000366%,88.400269%); stroke-width: 2.500000;stroke-linecap: round;stroke-linejoin: round;stroke-miterlimit: 10.000000;fill: none;"></path>
  <path d="M791.401733 805.569122C791.401733 765.388489,775.437668 726.858368,747.027817 698.448532C718.617981 670.038681,680.087860 654.074615,639.907227 654.074615C599.726593 654.074615,561.196472 670.038681,532.786636 698.448532C504.376785 726.858368,488.412720 765.388489,488.412720 805.569122C488.412720 845.749756,504.376785 884.279877,532.786636 912.689713C561.196472 941.099564,599.726593 957.063629,639.907227 957.063629C680.087860 957.063629,718.617981 941.099564,747.027817 912.689713C775.437668 884.279877,791.401733 845.749756,791.401733 805.569122Z" style="stroke:rgb(25.500488%,41.000366%,88.400269%); stroke-width: 2.500000;stroke-linecap: round;stroke-linejoin: round;stroke-miterlimit: 10.000000;fill: none;"></path>
  <path d="M1047.819977 913.217819C1047.819977 873.037186,1031.855911 834.507065,1003.446060 806.097229C975.036224 777.687378,936.506104 761.723312,896.325470 761.723312C856.144836 761.723312,817.614716 777.687378,789.204880 806.097229C760.795029 834.507065,744.830963 873.037186,744.830963 913.217819C744.830963 953.398453,760.795029 991.928574,789.204880 1020.338409C817.614716 1048.748260,856.144836 1064.712326,896.325470 1064.712326C936.506104 1064.712326,975.036224 1048.748260,1003.446060 1020.338409C1031.855911 991.928574,1047.819977 953.398453,1047.819977 913.217819Z" style="stroke:rgb(25.500488%,41.000366%,88.400269%); stroke-width: 2.500000;stroke-linecap: round;stroke-linejoin: round;stroke-miterlimit: 10.000000;fill: none;"></path>
  <path d="M1302.746002 1000.701843C1302.746002 960.521210,1286.781937 921.991089,1258.372086 893.581253C1229.962250 865.171402,1191.432129 849.207336,1151.251495 849.207336C1111.070862 849.207336,1072.540741 865.171402,1044.130905 893.581253C1015.721054 921.991089,999.756989 960.521210,999.756989 1000.701843C999.756989 1040.882477,1015.721054 1079.412598,1044.130905 1107.822433C1072.540741 1136.232285,1111.070862 1152.196350,1151.251495 1152.196350C1191.432129 1152.196350,1229.962250 1136.232285,1258.372086 1107.822433C1286.781937 1079.412598,1302.746002 1040.882477,1302.746002 1000.701843Z" style="stroke:rgb(25.500488%,41.000366%,88.400269%); stroke-width: 2.500000;stroke-linecap: round;stroke-linejoin: round;stroke-miterlimit: 10.000000;fill: none;"></path>
  <path d="M1553.389938 1120.950211C1553.389938 1080.769577,1537.425873 1042.239456,1509.016022 1013.829620C1480.606186 985.419769,1442.076065 969.455704,1401.895432 969.455704C1361.714798 969.455704,1323.184677 985.419769,1294.774841 1013.829620C1266.364990 1042.239456,1250.400925 1080.769577,1250.400925 1120.950211C1250.400925 1161.130844,1266.364990 1199.660965,1294.774841 1228.070801C1323.184677 1256.480652,1361.714798 1272.444717,1401.895432 1272.444717C1442.076065 1272.444717,1480.606186 1256.480652,1509.016022 1228.070801C1537.425873 1199.660965,1553.389938 1161.130844,1553.389938 1120.950211Z" style="stroke:rgb(25.500488%,41.000366%,88.400269%); stroke-width: 2.500000;stroke-linecap: round;stroke-linejoin: round;stroke-miterlimit: 10.000000;fill: none;"></path>
  <path d="M1751.286545 1197.508453C1751.286545 1157.327820,1735.322479 1118.797699,1706.912628 1090.387863C1678.502792 1061.978012,1639.972672 1046.013947,1599.792038 1046.013947C1559.611404 1046.013947,1521.081284 1061.978012,1492.671448 1090.387863C1464.261597 1118.797699,1448.297531 1157.327820,1448.297531 1197.508453C1448.297531 1237.689087,1464.261597 1276.219208,1492.671448 1304.629044C1521.081284 1333.038895,1559.611404 1349.002960,1599.792038 1349.002960C1639.972672 1349.002960,1678.502792 1333.038895,1706.912628 1304.629044C1735.322479 1276.219208,1751.286545 1237.689087,1751.286545 1197.508453Z" style="stroke:rgb(25.500488%,41.000366%,88.400269%); stroke-width: 2.500000;stroke-linecap: round;stroke-linejoin: round;stroke-miterlimit: 10.000000;fill: none;"></path>
  <path d="M559.741638 394.386414C559.741638 354.205780,543.777573 315.675659,515.367722 287.265823C486.957886 258.855972,448.427765 242.891907,408.247131 242.891907C368.066498 242.891907,329.536377 258.855972,301.126541 287.265823C272.716690 315.675659,256.752625 354.205780,256.752625 394.386414C256.752625 434.567047,272.716690 473.097168,301.126541 501.507004C329.536377 529.916855,368.066498 545.880920,408.247131 545.880920C448.427765 545.880920,486.957886 529.916855,515.367722 501.507004C543.777573 473.097168,559.741638 434.567047,559.741638 394.386414Z" style="stroke:rgb(25.500488%,41.000366%,88.400269%); stroke-width: 2.500000;stroke-linecap: round;stroke-linejoin: round;stroke-miterlimit: 10.000000;fill: none;"></path>
  <path d="M773.222397 540.924103C773.222397 500.743469,757.258331 462.213348,728.848480 433.803513C700.438644 405.393661,661.908524 389.429596,621.727890 389.429596C581.547256 389.429596,543.017136 405.393661,514.607300 433.803513C486.197449 462.213348,470.233383 500.743469,470.233383 540.924103C470.233383 581.104736,486.197449 619.634857,514.607300 648.044693C543.017136 676.454544,581.547256 692.418610,621.727890 692.418610C661.908524 692.418610,700.438644 676.454544,728.848480 648.044693C757.258331 619.634857,773.222397 581.104736,773.222397 540.924103Z" style="stroke:rgb(25.500488%,41.000366%,88.400269%); stroke-width: 2.500000;stroke-linecap: round;stroke-linejoin: round;stroke-miterlimit: 10.000000;fill: none;"></path>
  <path d="M1006.828873 666.609406C1006.828873 626.428772,990.864807 587.898651,962.454956 559.488815C934.045120 531.078964,895.514999 515.114899,855.334366 515.114899C815.153732 515.114899,776.623611 531.078964,748.213776 559.488815C719.803925 587.898651,703.839859 626.428772,703.839859 666.609406C703.839859 706.790039,719.803925 745.320160,748.213776 773.729996C776.623611 802.139847,815.153732 818.103912,855.334366 818.103912C895.514999 818.103912,934.045120 802.139847,962.454956 773.729996C990.864807 745.320160,1006.828873 706.790039,1006.828873 666.609406Z" style="stroke:rgb(25.500488%,41.000366%,88.400269%); stroke-width: 2.500000;stroke-linecap: round;stroke-linejoin: round;stroke-miterlimit: 10.000000;fill: none;"></path>
  <path d="M1261.677032 754.158310C1261.677032 713.977676,1245.712967 675.447556,1217.303116 647.037720C1188.893280 618.627869,1150.363159 602.663803,1110.182526 602.663803C1070.001892 602.663803,1031.471771 618.627869,1003.061935 647.037720C974.652084 675.447556,958.688019 713.977676,958.688019 754.158310C958.688019 794.338943,974.652084 832.869064,1003.061935 861.278900C1031.471771 889.688751,1070.001892 905.652817,1110.182526 905.652817C1150.363159 905.652817,1188.893280 889.688751,1217.303116 861.278900C1245.712967 832.869064,1261.677032 794.338943,1261.677032 754.158310Z" style="stroke:rgb(25.500488%,41.000366%,88.400269%); stroke-width: 2.500000;stroke-linecap: round;stroke-linejoin: round;stroke-miterlimit: 10.000000;fill: none;"></path>
  <path d="M1518.056351 869.151398C1518.056351 828.970764,1502.092285 790.440643,1473.682434 762.030807C1445.272598 733.620956,1406.742477 717.656891,1366.561844 717.656891C1326.381210 717.656891,1287.851089 733.620956,1259.441254 762.030807C1231.031403 790.440643,1215.067337 828.970764,1215.067337 869.151398C1215.067337 909.332031,1231.031403 947.862152,1259.441254 976.271988C1287.851089 1004.681839,1326.381210 1020.645905,1366.561844 1020.645905C1406.742477 1020.645905,1445.272598 1004.681839,1473.682434 976.271988C1502.092285 947.862152,1518.056351 909.332031,1518.056351 869.151398Z" style="stroke:rgb(25.500488%,41.000366%,88.400269%); stroke-width: 2.500000;stroke-linecap: round;stroke-linejoin: round;stroke-miterlimit: 10.000000;fill: none;"></path>
  <path d="M1758.851532 929.567551C1758.851532 889.386917,1742.887466 850.856796,1714.477615 822.446960C1686.067780 794.037109,1647.537659 778.073044,1607.357025 778.073044C1567.176392 778.073044,1528.646271 794.037109,1500.236435 822.446960C1471.826584 850.856796,1455.862518 889.386917,1455.862518 929.567551C1455.862518 969.748184,1471.826584 1008.278305,1500.236435 1036.688141C1528.646271 1065.097992,1567.176392 1081.062057,1607.357025 1081.062057C1647.537659 1081.062057,1686.067780 1065.097992,1714.477615 1036.688141C1742.887466 1008.278305,1758.851532 969.748184,1758.851532 929.567551Z" style="stroke:rgb(25.500488%,41.000366%,88.400269%); stroke-width: 2.500000;stroke-linecap: round;stroke-linejoin: round;stroke-miterlimit: 10.000000;fill: none;"></path>
  <path d="M756.755875 280.055099C756.755875 239.874466,740.791809 201.344345,712.381958 172.934509C683.972122 144.524658,645.442001 128.560593,605.261368 128.560593C565.080734 128.560593,526.550613 144.524658,498.140778 172.934509C469.730927 201.344345,453.766861 239.874466,453.766861 280.055099C453.766861 320.235733,469.730927 358.765854,498.140778 387.175690C526.550613 415.585541,565.080734 431.549606,605.261368 431.549606C645.442001 431.549606,683.972122 415.585541,712.381958 387.175690C740.791809 358.765854,756.755875 320.235733,756.755875 280.055099Z" style="stroke:rgb(25.500488%,41.000366%,88.400269%); stroke-width: 2.500000;stroke-linecap: round;stroke-linejoin: round;stroke-miterlimit: 10.000000;fill: none;"></path>
  <path d="M992.944580 404.053513C992.944580 363.872879,976.980515 325.342758,948.570663 296.932922C920.160828 268.523071,881.630707 252.559006,841.450073 252.559006C801.269440 252.559006,762.739319 268.523071,734.329483 296.932922C705.919632 325.342758,689.955566 363.872879,689.955566 404.053513C689.955566 444.234146,705.919632 482.764267,734.329483 511.174103C762.739319 539.583954,801.269440 555.548019,841.450073 555.548019C881.630707 555.548019,920.160828 539.583954,948.570663 511.174103C976.980515 482.764267,992.944580 444.234146,992.944580 404.053513Z" style="stroke:rgb(25.500488%,41.000366%,88.400269%); stroke-width: 2.500000;stroke-linecap: round;stroke-linejoin: round;stroke-miterlimit: 10.000000;fill: none;"></path>
  <path d="M1224.980972 509.613083C1224.980972 469.432449,1209.016907 430.902328,1180.607056 402.492493C1152.197220 374.082642,1113.667099 358.118576,1073.486465 358.118576C1033.305832 358.118576,994.775711 374.082642,966.365875 402.492493C937.956024 430.902328,921.991959 469.432449,921.991959 509.613083C921.991959 549.793716,937.956024 588.323837,966.365875 616.733673C994.775711 645.143524,1033.305832 661.107590,1073.486465 661.107590C1113.667099 661.107590,1152.197220 645.143524,1180.607056 616.733673C1209.016907 588.323837,1224.980972 549.793716,1224.980972 509.613083Z" style="stroke:rgb(25.500488%,41.000366%,88.400269%); stroke-width: 2.500000;stroke-linecap: round;stroke-linejoin: round;stroke-miterlimit: 10.000000;fill: none;"></path>
  <path d="M1460.637665 616.106903C1460.637665 575.926270,1444.673599 537.396149,1416.263748 508.986313C1387.853912 480.576462,1349.323792 464.612396,1309.143158 464.612396C1268.962524 464.612396,1230.432404 480.576462,1202.022568 508.986313C1173.612717 537.396149,1157.648651 575.926270,1157.648651 616.106903C1157.648651 656.287537,1173.612717 694.817657,1202.022568 723.227493C1230.432404 751.637344,1268.962524 767.601410,1309.143158 767.601410C1349.323792 767.601410,1387.853912 751.637344,1416.263748 723.227493C1444.673599 694.817657,1460.637665 656.287537,1460.637665 616.106903Z" style="stroke:rgb(25.500488%,41.000366%,88.400269%); stroke-width: 2.500000;stroke-linecap: round;stroke-linejoin: round;stroke-miterlimit: 10.000000;fill: none;"></path>
  <path d="M1714.694290 698.348633C1714.694290 658.167999,1698.730225 619.637878,1670.320374 591.228043C1641.910538 562.818192,1603.380417 546.854126,1563.199783 546.854126C1523.019150 546.854126,1484.489029 562.818192,1456.079193 591.228043C1427.669342 619.637878,1411.705276 658.167999,1411.705276 698.348633C1411.705276 738.529266,1427.669342 777.059387,1456.079193 805.469223C1484.489029 833.879074,1523.019150 849.843140,1563.199783 849.843140C1603.380417 849.843140,1641.910538 833.879074,1670.320374 805.469223C1698.730225 777.059387,1714.694290 738.529266,1714.694290 698.348633Z" style="stroke:rgb(25.500488%,41.000366%,88.400269%); stroke-width: 2.500000;stroke-linecap: round;stroke-linejoin: round;stroke-miterlimit: 10.000000;fill: none;"></path>
  <path d="M992.672089 152.669937C992.672089 112.489304,976.708023 73.959183,948.298172 45.549347C919.888336 17.139496,881.358215 1.175430,841.177582 1.175430C800.996948 1.175430,762.466827 17.139496,734.056992 45.549347C705.647141 73.959183,689.683075 112.489304,689.683075 152.669937C689.683075 192.850571,705.647141 231.380692,734.056992 259.790527C762.466827 288.200378,800.996948 304.164444,841.177582 304.164444C881.358215 304.164444,919.888336 288.200378,948.298172 259.790527C976.708023 231.380692,992.672089 192.850571,992.672089 152.669937Z" style="stroke:rgb(25.500488%,41.000366%,88.400269%); stroke-width: 2.500000;stroke-linecap: round;stroke-linejoin: round;stroke-miterlimit: 10.000000;fill: none;"></path>
  <path d="M1216.416840 249.872971C1216.416840 209.692337,1200.452774 171.162216,1172.042923 142.752380C1143.633087 114.342529,1105.102966 98.378464,1064.922333 98.378464C1024.741699 98.378464,986.211578 114.342529,957.801743 142.752380C929.391891 171.162216,913.427826 209.692337,913.427826 249.872971C913.427826 290.053604,929.391891 328.583725,957.801743 356.993561C986.211578 385.403412,1024.741699 401.367477,1064.922333 401.367477C1105.102966 401.367477,1143.633087 385.403412,1172.042923 356.993561C1200.452774 328.583725,1216.416840 290.053604,1216.416840 249.872971Z" style="stroke:rgb(25.500488%,41.000366%,88.400269%); stroke-width: 2.500000;stroke-linecap: round;stroke-linejoin: round;stroke-miterlimit: 10.000000;fill: none;"></path>
  <path d="M1426.731445 348.412537C1426.731445 308.231903,1410.767380 269.701782,1382.357529 241.291946C1353.947693 212.882095,1315.417572 196.918030,1275.236938 196.918030C1235.056305 196.918030,1196.526184 212.882095,1168.116348 241.291946C1139.706497 269.701782,1123.742432 308.231903,1123.742432 348.412537C1123.742432 388.593170,1139.706497 427.123291,1168.116348 455.533127C1196.526184 483.942978,1235.056305 499.907043,1275.236938 499.907043C1315.417572 499.907043,1353.947693 483.942978,1382.357529 455.533127C1410.767380 427.123291,1426.731445 388.593170,1426.731445 348.412537Z" style="stroke:rgb(25.500488%,41.000366%,88.400269%); stroke-width: 2.500000;stroke-linecap: round;stroke-linejoin: round;stroke-miterlimit: 10.000000;fill: none;"></path>
  <path d="M1622.487000 438.180328C1622.487000 397.999695,1606.522934 359.469574,1578.113083 331.059738C1549.703247 302.649887,1511.173126 286.685822,1470.992493 286.685822C1430.811859 286.685822,1392.281738 302.649887,1363.871902 331.059738C1335.462051 359.469574,1319.497986 397.999695,1319.497986 438.180328C1319.497986 478.360962,1335.462051 516.891083,1363.871902 545.300919C1392.281738 573.710770,1430.811859 589.674835,1470.992493 589.674835C1511.173126 589.674835,1549.703247 573.710770,1578.113083 545.300919C1606.522934 516.891083,1622.487000 478.360962,1622.487000 438.180328Z" style="stroke:rgb(25.500488%,41.000366%,88.400269%); stroke-width: 2.500000;stroke-linecap: round;stroke-linejoin: round;stroke-miterlimit: 10.000000;fill: none;"></path>
</svg>
