<?xml version="1.0"?>
<!-- Created by MetaPost 2.00 on 2022.03.02:1201 -->
<svg version="1.1" xmlns="http://www.w3.org/2000/svg" xmlns:xlink="http://www.w3.org/1999/xlink" width="1764.481750" height="1574.305847" viewBox="0 0 1764.481750 1574.305847">
<!-- Original BoundingBox: -882.240875 -787.152924 882.240875 787.152924 -->
  <path d="M1732.393524 787.000000L1307.196762 50.535538L456.803238 50.535538L31.606476 787.000000L456.803238 1523.464462L1307.196762 1523.464462L1732.393524 787.000000Z" style="fill: rgb(100.000000%,100.000000%,100.000000%);stroke: none;"></path>
  <path d="M1732.393524 787.000000L1307.196762 50.535538" style="stroke:rgb(0.000000%,0.000000%,0.000000%); stroke-width: 2.500000;stroke-linecap: round;stroke-linejoin: round;stroke-miterlimit: 10.000000;fill: none;"></path>
  <path d="M1307.196762 50.535538L456.803238 50.535538" style="stroke:rgb(0.000000%,0.000000%,0.000000%); stroke-width: 2.500000;stroke-linecap: round;stroke-linejoin: round;stroke-miterlimit: 10.000000;fill: none;"></path>
  <path d="M456.803238 50.535538L31.606476 787.000000" style="stroke:rgb(0.000000%,0.000000%,0.000000%); stroke-width: 2.500000;stroke-linecap: round;stroke-linejoin: round;stroke-miterlimit: 10.000000;fill: none;"></path>
  <path d="M31.606476 787.000000L456.803238 1523.464462" style="stroke:rgb(0.000000%,0.000000%,0.000000%); stroke-width: 2.500000;stroke-linecap: round;stroke-linejoin: round;stroke-miterlimit: 10.000000;fill: none;"></path>
  <path d="M456.803238 1523.464462L1307.196762 1523.464462" style="stroke:rgb(0.000000%,0.000000%,0.000000%); stroke-width: 2.500000;stroke-linecap: round;stroke-linejoin: round;stroke-miterlimit: 10.000000;fill: none;"></path>
  <path d="M1307.196762 1523.464462L1732.393524 787.000000" style="stroke:rgb(0.000000%,0.000000%,0.000000%); stroke-width: 2.500000;stroke-linecap: round;stroke-linejoin: round;stroke-miterlimit: 10.000000;fill: none;"></path>
  <path d="M1762.990875 753.275436C1762.990875 727.029831,1752.563293 701.862305,1734.006256 683.305267C1715.449219 664.748230,1690.281693 654.320648,1664.036087 654.320648C1637.790482 654.320648,1612.622955 664.748230,1594.065918 683.305267C1575.508881 701.862305,1565.081299 727.029831,1565.081299 753.275436C1565.081299 779.521042,1575.508881 804.688568,1594.065918 823.245605C1612.622955 841.802643,1637.790482 852.230225,1664.036087 852.230225C1690.281693 852.230225,1715.449219 841.802643,1734.006256 823.245605C1752.563293 804.688568,1762.990875 779.521042,1762.990875 753.275436Z" style="stroke:rgb(25.500488%,41.000366%,88.400269%); stroke-width: 2.500000;stroke-linecap: round;stroke-linejoin: round;stroke-miterlimit: 10.000000;fill: none;"></path>
  <path d="M1675.506851 595.578415C1675.506851 569.332809,1665.079269 544.165283,1646.522232 525.608246C1627.965195 507.051208,1602.797668 496.623627,1576.552063 496.623627C1550.306458 496.623627,1525.138931 507.051208,1506.581894 525.608246C1488.024857 544.165283,1477.597275 569.332809,1477.597275 595.578415C1477.597275 621.824020,1488.024857 646.991547,1506.581894 665.548584C1525.138931 684.105621,1550.306458 694.533203,1576.552063 694.533203C1602.797668 694.533203,1627.965195 684.105621,1646.522232 665.548584C1665.079269 646.991547,1675.506851 621.824020,1675.506851 595.578415Z" style="stroke:rgb(25.500488%,41.000366%,88.400269%); stroke-width: 2.500000;stroke-linecap: round;stroke-linejoin: round;stroke-miterlimit: 10.000000;fill: none;"></path>
  <path d="M1584.376572 438.608032C1584.376572 412.362427,1573.948990 387.194901,1555.391953 368.637863C1536.834915 350.080826,1511.667389 339.653244,1485.421783 339.653244C1459.176178 339.653244,1434.008652 350.080826,1415.451614 368.637863C1396.894577 387.194901,1386.466995 412.362427,1386.466995 438.608032C1386.466995 464.853638,1396.894577 490.021164,1415.451614 508.578201C1434.008652 527.135239,1459.176178 537.562820,1485.421783 537.562820C1511.667389 537.562820,1536.834915 527.135239,1555.391953 508.578201C1573.948990 490.021164,1584.376572 464.853638,1584.376572 438.608032Z" style="stroke:rgb(25.500488%,41.000366%,88.400269%); stroke-width: 2.500000;stroke-linecap: round;stroke-linejoin: round;stroke-miterlimit: 10.000000;fill: none;"></path>
  <path d="M1493.998901 281.209457C1493.998901 254.963852,1483.571320 229.796326,1465.014282 211.239288C1446.457245 192.682251,1421.289719 182.254669,1395.044113 182.254669C1368.798508 182.254669,1343.630981 192.682251,1325.073944 211.239288C1306.516907 229.796326,1296.089325 254.963852,1296.089325 281.209457C1296.089325 307.455063,1306.516907 332.622589,1325.073944 351.179626C1343.630981 369.736664,1368.798508 380.164246,1395.044113 380.164246C1421.289719 380.164246,1446.457245 369.736664,1465.014282 351.179626C1483.571320 332.622589,1493.998901 307.455063,1493.998901 281.209457Z" style="stroke:rgb(25.500488%,41.000366%,88.400269%); stroke-width: 2.500000;stroke-linecap: round;stroke-linejoin: round;stroke-miterlimit: 10.000000;fill: none;"></path>
  <path d="M1401.181747 126.600708C1401.181747 100.355103,1390.754166 75.187576,1372.197128 56.630539C1353.640091 38.073502,1328.472565 27.645920,1302.226959 27.645920C1275.981354 27.645920,1250.813828 38.073502,1232.256790 56.630539C1213.699753 75.187576,1203.272171 100.355103,1203.272171 126.600708C1203.272171 152.846313,1213.699753 178.013840,1232.256790 196.570877C1250.813828 215.127914,1275.981354 225.555496,1302.226959 225.555496C1328.472565 225.555496,1353.640091 215.127914,1372.197128 196.570877C1390.754166 178.013840,1401.181747 152.846313,1401.181747 126.600708Z" style="stroke:rgb(25.500488%,41.000366%,88.400269%); stroke-width: 2.500000;stroke-linecap: round;stroke-linejoin: round;stroke-miterlimit: 10.000000;fill: none;"></path>
  <path d="M1707.752151 888.485107C1707.752151 862.239502,1697.324570 837.071976,1678.767532 818.514938C1660.210495 799.957901,1635.042969 789.530319,1608.797363 789.530319C1582.551758 789.530319,1557.384232 799.957901,1538.827194 818.514938C1520.270157 837.071976,1509.842575 862.239502,1509.842575 888.485107C1509.842575 914.730713,1520.270157 939.898239,1538.827194 958.455276C1557.384232 977.012314,1582.551758 987.439896,1608.797363 987.439896C1635.042969 987.439896,1660.210495 977.012314,1678.767532 958.455276C1697.324570 939.898239,1707.752151 914.730713,1707.752151 888.485107Z" style="stroke:rgb(25.500488%,41.000366%,88.400269%); stroke-width: 2.500000;stroke-linecap: round;stroke-linejoin: round;stroke-miterlimit: 10.000000;fill: none;"></path>
  <path d="M1597.534210 743.076324C1597.534210 716.830719,1587.106628 691.663193,1568.549591 673.106155C1549.992554 654.549118,1524.825027 644.121536,1498.579422 644.121536C1472.333817 644.121536,1447.166290 654.549118,1428.609253 673.106155C1410.052216 691.663193,1399.624634 716.830719,1399.624634 743.076324C1399.624634 769.321930,1410.052216 794.489456,1428.609253 813.046494C1447.166290 831.603531,1472.333817 842.031113,1498.579422 842.031113C1524.825027 842.031113,1549.992554 831.603531,1568.549591 813.046494C1587.106628 794.489456,1597.534210 769.321930,1597.534210 743.076324Z" style="stroke:rgb(25.500488%,41.000366%,88.400269%); stroke-width: 2.500000;stroke-linecap: round;stroke-linejoin: round;stroke-miterlimit: 10.000000;fill: none;"></path>
  <path d="M1509.764709 585.781555C1509.764709 559.535950,1499.337128 534.368423,1480.780090 515.811386C1462.223053 497.254349,1437.055527 486.826767,1410.809921 486.826767C1384.564316 486.826767,1359.396790 497.254349,1340.839752 515.811386C1322.282715 534.368423,1311.855133 559.535950,1311.855133 585.781555C1311.855133 612.027161,1322.282715 637.194687,1340.839752 655.751724C1359.396790 674.308762,1384.564316 684.736343,1410.809921 684.736343C1437.055527 684.736343,1462.223053 674.308762,1480.780090 655.751724C1499.337128 637.194687,1509.764709 612.027161,1509.764709 585.781555Z" style="stroke:rgb(25.500488%,41.000366%,88.400269%); stroke-width: 2.500000;stroke-linecap: round;stroke-linejoin: round;stroke-miterlimit: 10.000000;fill: none;"></path>
  <path d="M1419.620605 429.654617C1419.620605 403.409012,1409.193024 378.241486,1390.635986 359.684448C1372.078949 341.127411,1346.911423 330.699829,1320.665817 330.699829C1294.420212 330.699829,1269.252686 341.127411,1250.695648 359.684448C1232.138611 378.241486,1221.711029 403.409012,1221.711029 429.654617C1221.711029 455.900223,1232.138611 481.067749,1250.695648 499.624786C1269.252686 518.181824,1294.420212 528.609406,1320.665817 528.609406C1346.911423 528.609406,1372.078949 518.181824,1390.635986 499.624786C1409.193024 481.067749,1419.620605 455.900223,1419.620605 429.654617Z" style="stroke:rgb(25.500488%,41.000366%,88.400269%); stroke-width: 2.500000;stroke-linecap: round;stroke-linejoin: round;stroke-miterlimit: 10.000000;fill: none;"></path>
  <path d="M1327.283569 274.993958C1327.283569 248.748352,1316.855988 223.580826,1298.298950 205.023788C1279.741913 186.466751,1254.574387 176.039169,1228.328781 176.039169C1202.083176 176.039169,1176.915649 186.466751,1158.358612 205.023788C1139.801575 223.580826,1129.373993 248.748352,1129.373993 274.993958C1129.373993 301.239563,1139.801575 326.407089,1158.358612 344.964127C1176.915649 363.521164,1202.083176 373.948746,1228.328781 373.948746C1254.574387 373.948746,1279.741913 363.521164,1298.298950 344.964127C1316.855988 326.407089,1327.283569 301.239563,1327.283569 274.993958Z" style="stroke:rgb(25.500488%,41.000366%,88.400269%); stroke-width: 2.500000;stroke-linecap: round;stroke-linejoin: round;stroke-miterlimit: 10.000000;fill: none;"></path>
  <path d="M1256.460693 106.838303C1256.460693 80.592697,1246.033112 55.425171,1227.476074 36.868134C1208.919037 18.311096,1183.751511 7.883514,1157.505905 7.883514C1131.260300 7.883514,1106.092773 18.311096,1087.535736 36.868134C1068.978699 55.425171,1058.551117 80.592697,1058.551117 106.838303C1058.551117 133.083908,1068.978699 158.251434,1087.535736 176.808472C1106.092773 195.365509,1131.260300 205.793091,1157.505905 205.793091C1183.751511 205.793091,1208.919037 195.365509,1227.476074 176.808472C1246.033112 158.251434,1256.460693 133.083908,1256.460693 106.838303Z" style="stroke:rgb(25.500488%,41.000366%,88.400269%); stroke-width: 2.500000;stroke-linecap: round;stroke-linejoin: round;stroke-miterlimit: 10.000000;fill: none;"></path>
  <path d="M1627.417877 1031.636063C1627.417877 1005.390457,1616.990295 980.222931,1598.433258 961.665894C1579.876221 943.108856,1554.708694 932.681274,1528.463089 932.681274C1502.217484 932.681274,1477.049957 943.108856,1458.492920 961.665894C1439.935883 980.222931,1429.508301 1005.390457,1429.508301 1031.636063C1429.508301 1057.881668,1439.935883 1083.049194,1458.492920 1101.606232C1477.049957 1120.163269,1502.217484 1130.590851,1528.463089 1130.590851C1554.708694 1130.590851,1579.876221 1120.163269,1598.433258 1101.606232C1616.990295 1083.049194,1627.417877 1057.881668,1627.417877 1031.636063Z" style="stroke:rgb(25.500488%,41.000366%,88.400269%); stroke-width: 2.500000;stroke-linecap: round;stroke-linejoin: round;stroke-miterlimit: 10.000000;fill: none;"></path>
  <path d="M1533.692413 883.489349C1533.692413 857.243744,1523.264832 832.076218,1504.707794 813.519180C1486.150757 794.962143,1460.983231 784.534561,1434.737625 784.534561C1408.492020 784.534561,1383.324493 794.962143,1364.767456 813.519180C1346.210419 832.076218,1335.782837 857.243744,1335.782837 883.489349C1335.782837 909.734955,1346.210419 934.902481,1364.767456 953.459518C1383.324493 972.016556,1408.492020 982.444138,1434.737625 982.444138C1460.983231 982.444138,1486.150757 972.016556,1504.707794 953.459518C1523.264832 934.902481,1533.692413 909.734955,1533.692413 883.489349Z" style="stroke:rgb(25.500488%,41.000366%,88.400269%); stroke-width: 2.500000;stroke-linecap: round;stroke-linejoin: round;stroke-miterlimit: 10.000000;fill: none;"></path>
  <path d="M1432.129456 733.889328C1432.129456 707.643723,1421.701874 682.476196,1403.144836 663.919159C1384.587799 645.362122,1359.420273 634.934540,1333.174667 634.934540C1306.929062 634.934540,1281.761536 645.362122,1263.204498 663.919159C1244.647461 682.476196,1234.219879 707.643723,1234.219879 733.889328C1234.219879 760.134933,1244.647461 785.302460,1263.204498 803.859497C1281.761536 822.416534,1306.929062 832.844116,1333.174667 832.844116C1359.420273 832.844116,1384.587799 822.416534,1403.144836 803.859497C1421.701874 785.302460,1432.129456 760.134933,1432.129456 733.889328Z" style="stroke:rgb(25.500488%,41.000366%,88.400269%); stroke-width: 2.500000;stroke-linecap: round;stroke-linejoin: round;stroke-miterlimit: 10.000000;fill: none;"></path>
  <path d="M1343.620331 577.619659C1343.620331 551.374054,1333.192749 526.206528,1314.635712 507.649490C1296.078674 489.092453,1270.911148 478.664871,1244.665543 478.664871C1218.419937 478.664871,1193.252411 489.092453,1174.695374 507.649490C1156.138336 526.206528,1145.710754 551.374054,1145.710754 577.619659C1145.710754 603.865265,1156.138336 629.032791,1174.695374 647.589828C1193.252411 666.146866,1218.419937 676.574448,1244.665543 676.574448C1270.911148 676.574448,1296.078674 666.146866,1314.635712 647.589828C1333.192749 629.032791,1343.620331 603.865265,1343.620331 577.619659Z" style="stroke:rgb(25.500488%,41.000366%,88.400269%); stroke-width: 2.500000;stroke-linecap: round;stroke-linejoin: round;stroke-miterlimit: 10.000000;fill: none;"></path>
  <path d="M1252.541946 422.829254C1252.541946 396.583649,1242.114365 371.416122,1223.557327 352.859085C1205.000290 334.302048,1179.832764 323.874466,1153.587158 323.874466C1127.341553 323.874466,1102.174026 334.302048,1083.616989 352.859085C1065.059952 371.416122,1054.632370 396.583649,1054.632370 422.829254C1054.632370 449.074860,1065.059952 474.242386,1083.616989 492.799423C1102.174026 511.356461,1127.341553 521.784042,1153.587158 521.784042C1179.832764 521.784042,1205.000290 511.356461,1223.557327 492.799423C1242.114365 474.242386,1252.541946 449.074860,1252.541946 422.829254Z" style="stroke:rgb(25.500488%,41.000366%,88.400269%); stroke-width: 2.500000;stroke-linecap: round;stroke-linejoin: round;stroke-miterlimit: 10.000000;fill: none;"></path>
  <path d="M1173.764801 260.071594C1173.764801 233.825989,1163.337219 208.658463,1144.780182 190.101425C1126.223145 171.544388,1101.055618 161.116806,1074.810013 161.116806C1048.564407 161.116806,1023.396881 171.544388,1004.839844 190.101425C986.282806 208.658463,975.855225 233.825989,975.855225 260.071594C975.855225 286.317200,986.282806 311.484726,1004.839844 330.041763C1023.396881 348.598801,1048.564407 359.026382,1074.810013 359.026382C1101.055618 359.026382,1126.223145 348.598801,1144.780182 330.041763C1163.337219 311.484726,1173.764801 286.317200,1173.764801 260.071594Z" style="stroke:rgb(25.500488%,41.000366%,88.400269%); stroke-width: 2.500000;stroke-linecap: round;stroke-linejoin: round;stroke-miterlimit: 10.000000;fill: none;"></path>
  <path d="M1092.327591 104.827026C1092.327591 78.581421,1081.900009 53.413895,1063.342972 34.856857C1044.785934 16.299820,1019.618408 5.872238,993.372803 5.872238C967.127197 5.872238,941.959671 16.299820,923.402634 34.856857C904.845596 53.413895,894.418015 78.581421,894.418015 104.827026C894.418015 131.072632,904.845596 156.240158,923.402634 174.797195C941.959671 193.354233,967.127197 203.781815,993.372803 203.781815C1019.618408 203.781815,1044.785934 193.354233,1063.342972 174.797195C1081.900009 156.240158,1092.327591 131.072632,1092.327591 104.827026Z" style="stroke:rgb(25.500488%,41.000366%,88.400269%); stroke-width: 2.500000;stroke-linecap: round;stroke-linejoin: round;stroke-miterlimit: 10.000000;fill: none;"></path>
  <path d="M1545.824951 1177.161621C1545.824951 1150.916016,1535.397369 1125.748489,1516.840332 1107.191452C1498.283295 1088.634415,1473.115768 1078.206833,1446.870163 1078.206833C1420.624557 1078.206833,1395.457031 1088.634415,1376.899994 1107.191452C1358.342957 1125.748489,1347.915375 1150.916016,1347.915375 1177.161621C1347.915375 1203.407227,1358.342957 1228.574753,1376.899994 1247.131790C1395.457031 1265.688828,1420.624557 1276.116409,1446.870163 1276.116409C1473.115768 1276.116409,1498.283295 1265.688828,1516.840332 1247.131790C1535.397369 1228.574753,1545.824951 1203.407227,1545.824951 1177.161621Z" style="stroke:rgb(25.500488%,41.000366%,88.400269%); stroke-width: 2.500000;stroke-linecap: round;stroke-linejoin: round;stroke-miterlimit: 10.000000;fill: none;"></path>
  <path d="M1454.513016 1028.846237C1454.513016 1002.600632,1444.085434 977.433105,1425.528397 958.876068C1406.971359 940.319031,1381.803833 929.891449,1355.558228 929.891449C1329.312622 929.891449,1304.145096 940.319031,1285.588058 958.876068C1267.031021 977.433105,1256.603439 1002.600632,1256.603439 1028.846237C1256.603439 1055.091843,1267.031021 1080.259369,1285.588058 1098.816406C1304.145096 1117.373444,1329.312622 1127.801025,1355.558228 1127.801025C1381.803833 1127.801025,1406.971359 1117.373444,1425.528397 1098.816406C1444.085434 1080.259369,1454.513016 1055.091843,1454.513016 1028.846237Z" style="stroke:rgb(25.500488%,41.000366%,88.400269%); stroke-width: 2.500000;stroke-linecap: round;stroke-linejoin: round;stroke-miterlimit: 10.000000;fill: none;"></path>
  <path d="M1362.370605 878.026474C1362.370605 851.780869,1351.943024 826.613342,1333.385986 808.056305C1314.828949 789.499268,1289.661423 779.071686,1263.415817 779.071686C1237.170212 779.071686,1212.002686 789.499268,1193.445648 808.056305C1174.888611 826.613342,1164.461029 851.780869,1164.461029 878.026474C1164.461029 904.272079,1174.888611 929.439606,1193.445648 947.996643C1212.002686 966.553680,1237.170212 976.981262,1263.415817 976.981262C1289.661423 976.981262,1314.828949 966.553680,1333.385986 947.996643C1351.943024 929.439606,1362.370605 904.272079,1362.370605 878.026474Z" style="stroke:rgb(25.500488%,41.000366%,88.400269%); stroke-width: 2.500000;stroke-linecap: round;stroke-linejoin: round;stroke-miterlimit: 10.000000;fill: none;"></path>
  <path d="M1265.972092 725.727448C1265.972092 699.481842,1255.544510 674.314316,1236.987473 655.757278C1218.430435 637.200241,1193.262909 626.772659,1167.017303 626.772659C1140.771698 626.772659,1115.604172 637.200241,1097.047134 655.757278C1078.490097 674.314316,1068.062515 699.481842,1068.062515 725.727448C1068.062515 751.973053,1078.490097 777.140579,1097.047134 795.697617C1115.604172 814.254654,1140.771698 824.682236,1167.017303 824.682236C1193.262909 824.682236,1218.430435 814.254654,1236.987473 795.697617C1255.544510 777.140579,1265.972092 751.973053,1265.972092 725.727448Z" style="stroke:rgb(25.500488%,41.000366%,88.400269%); stroke-width: 2.500000;stroke-linecap: round;stroke-linejoin: round;stroke-miterlimit: 10.000000;fill: none;"></path>
  <path d="M1176.528687 570.807266C1176.528687 544.561661,1166.101105 519.394135,1147.544067 500.837097C1128.987030 482.280060,1103.819504 471.852478,1077.573898 471.852478C1051.328293 471.852478,1026.160767 482.280060,1007.603729 500.837097C989.046692 519.394135,978.619110 544.561661,978.619110 570.807266C978.619110 597.052872,989.046692 622.220398,1007.603729 640.777435C1026.160767 659.334473,1051.328293 669.762054,1077.573898 669.762054C1103.819504 669.762054,1128.987030 659.334473,1147.544067 640.777435C1166.101105 622.220398,1176.528687 597.052872,1176.528687 570.807266Z" style="stroke:rgb(25.500488%,41.000366%,88.400269%); stroke-width: 2.500000;stroke-linecap: round;stroke-linejoin: round;stroke-miterlimit: 10.000000;fill: none;"></path>
  <path d="M1092.833649 411.163849C1092.833649 384.918243,1082.406067 359.750717,1063.849030 341.193680C1045.291992 322.636642,1020.124466 312.209061,993.878860 312.209061C967.633255 312.209061,942.465729 322.636642,923.908691 341.193680C905.351654 359.750717,894.924072 384.918243,894.924072 411.163849C894.924072 437.409454,905.351654 462.576981,923.908691 481.134018C942.465729 499.691055,967.633255 510.118637,993.878860 510.118637C1020.124466 510.118637,1045.291992 499.691055,1063.849030 481.134018C1082.406067 462.576981,1092.833649 437.409454,1092.833649 411.163849Z" style="stroke:rgb(25.500488%,41.000366%,88.400269%); stroke-width: 2.500000;stroke-linecap: round;stroke-linejoin: round;stroke-miterlimit: 10.000000;fill: none;"></path>
  <path d="M1008.282196 255.971176C1008.282196 229.725571,997.854614 204.558044,979.297577 186.001007C960.740540 167.443970,935.573013 157.016388,909.327408 157.016388C883.081802 157.016388,857.914276 167.443970,839.357239 186.001007C820.800201 204.558044,810.372620 229.725571,810.372620 255.971176C810.372620 282.216782,820.800201 307.384308,839.357239 325.941345C857.914276 344.498383,883.081802 354.925964,909.327408 354.925964C935.573013 354.925964,960.740540 344.498383,979.297577 325.941345C997.854614 307.384308,1008.282196 282.216782,1008.282196 255.971176Z" style="stroke:rgb(25.500488%,41.000366%,88.400269%); stroke-width: 2.500000;stroke-linecap: round;stroke-linejoin: round;stroke-miterlimit: 10.000000;fill: none;"></path>
  <path d="M925.495468 102.724915C925.495468 76.479309,915.067886 51.311783,896.510849 32.754745C877.953812 14.197708,852.786285 3.770126,826.540680 3.770126C800.295074 3.770126,775.127548 14.197708,756.570511 32.754745C738.013474 51.311783,727.585892 76.479309,727.585892 102.724915C727.585892 128.970520,738.013474 154.138046,756.570511 172.695084C775.127548 191.252121,800.295074 201.679703,826.540680 201.679703C852.786285 201.679703,877.953812 191.252121,896.510849 172.695084C915.067886 154.138046,925.495468 128.970520,925.495468 102.724915Z" style="stroke:rgb(25.500488%,41.000366%,88.400269%); stroke-width: 2.500000;stroke-linecap: round;stroke-linejoin: round;stroke-miterlimit: 10.000000;fill: none;"></path>
  <path d="M1463.258820 1325.528931C1463.258820 1299.283325,1452.831238 1274.115799,1434.274200 1255.558762C1415.717163 1237.001724,1390.549637 1226.574142,1364.304031 1226.574142C1338.058426 1226.574142,1312.890900 1237.001724,1294.333862 1255.558762C1275.776825 1274.115799,1265.349243 1299.283325,1265.349243 1325.528931C1265.349243 1351.774536,1275.776825 1376.942062,1294.333862 1395.499100C1312.890900 1414.056137,1338.058426 1424.483719,1364.304031 1424.483719C1390.549637 1424.483719,1415.717163 1414.056137,1434.274200 1395.499100C1452.831238 1376.942062,1463.258820 1351.774536,1463.258820 1325.528931Z" style="stroke:rgb(25.500488%,41.000366%,88.400269%); stroke-width: 2.500000;stroke-linecap: round;stroke-linejoin: round;stroke-miterlimit: 10.000000;fill: none;"></path>
  <path d="M1374.425293 1177.109726C1374.425293 1150.864120,1363.997711 1125.696594,1345.440674 1107.139557C1326.883636 1088.582520,1301.716110 1078.154938,1275.470505 1078.154938C1249.224899 1078.154938,1224.057373 1088.582520,1205.500336 1107.139557C1186.943298 1125.696594,1176.515717 1150.864120,1176.515717 1177.109726C1176.515717 1203.355331,1186.943298 1228.522858,1205.500336 1247.079895C1224.057373 1265.636932,1249.224899 1276.064514,1275.470505 1276.064514C1301.716110 1276.064514,1326.883636 1265.636932,1345.440674 1247.079895C1363.997711 1228.522858,1374.425293 1203.355331,1374.425293 1177.109726Z" style="stroke:rgb(25.500488%,41.000366%,88.400269%); stroke-width: 2.500000;stroke-linecap: round;stroke-linejoin: round;stroke-miterlimit: 10.000000;fill: none;"></path>
  <path d="M1284.709396 1026.121277C1284.709396 999.875671,1274.281815 974.708145,1255.724777 956.151108C1237.167740 937.594070,1212.000214 927.166489,1185.754608 927.166489C1159.509003 927.166489,1134.341476 937.594070,1115.784439 956.151108C1097.227402 974.708145,1086.799820 999.875671,1086.799820 1026.121277C1086.799820 1052.366882,1097.227402 1077.534409,1115.784439 1096.091446C1134.341476 1114.648483,1159.509003 1125.076065,1185.754608 1125.076065C1212.000214 1125.076065,1237.167740 1114.648483,1255.724777 1096.091446C1274.281815 1077.534409,1284.709396 1052.366882,1284.709396 1026.121277Z" style="stroke:rgb(25.500488%,41.000366%,88.400269%); stroke-width: 2.500000;stroke-linecap: round;stroke-linejoin: round;stroke-miterlimit: 10.000000;fill: none;"></path>
  <path d="M1193.916504 873.212387C1193.916504 846.966782,1183.488922 821.799255,1164.931885 803.242218C1146.374847 784.685181,1121.207321 774.257599,1094.961716 774.257599C1068.716110 774.257599,1043.548584 784.685181,1024.991547 803.242218C1006.434509 821.799255,996.006927 846.966782,996.006927 873.212387C996.006927 899.457993,1006.434509 924.625519,1024.991547 943.182556C1043.548584 961.739594,1068.716110 972.167175,1094.961716 972.167175C1121.207321 972.167175,1146.374847 961.739594,1164.931885 943.182556C1183.488922 924.625519,1193.916504 899.457993,1193.916504 873.212387Z" style="stroke:rgb(25.500488%,41.000366%,88.400269%); stroke-width: 2.500000;stroke-linecap: round;stroke-linejoin: round;stroke-miterlimit: 10.000000;fill: none;"></path>
  <path d="M1098.867477 718.915054C1098.867477 692.669449,1088.439896 667.501923,1069.882858 648.944885C1051.325821 630.387848,1026.158295 619.960266,999.912689 619.960266C973.667084 619.960266,948.499557 630.387848,929.942520 648.944885C911.385483 667.501923,900.957901 692.669449,900.957901 718.915054C900.957901 745.160660,911.385483 770.328186,929.942520 788.885223C948.499557 807.442261,973.667084 817.869843,999.912689 817.869843C1026.158295 817.869843,1051.325821 807.442261,1069.882858 788.885223C1088.439896 770.328186,1098.867477 745.160660,1098.867477 718.915054Z" style="stroke:rgb(25.500488%,41.000366%,88.400269%); stroke-width: 2.500000;stroke-linecap: round;stroke-linejoin: round;stroke-miterlimit: 10.000000;fill: none;"></path>
  <path d="M1012.771881 559.453293C1012.771881 533.207687,1002.344299 508.040161,983.787262 489.483124C965.230225 470.926086,940.062698 460.498505,913.817093 460.498505C887.571487 460.498505,862.403961 470.926086,843.846924 489.483124C825.289886 508.040161,814.862305 533.207687,814.862305 559.453293C814.862305 585.698898,825.289886 610.866425,843.846924 629.423462C862.403961 647.980499,887.571487 658.408081,913.817093 658.408081C940.062698 658.408081,965.230225 647.980499,983.787262 629.423462C1002.344299 610.866425,1012.771881 585.698898,1012.771881 559.453293Z" style="stroke:rgb(25.500488%,41.000366%,88.400269%); stroke-width: 2.500000;stroke-linecap: round;stroke-linejoin: round;stroke-miterlimit: 10.000000;fill: none;"></path>
  <path d="M925.742020 404.377411C925.742020 378.131805,915.314438 352.964279,896.757401 334.407242C878.200363 315.850204,853.032837 305.422623,826.787231 305.422623C800.541626 305.422623,775.374100 315.850204,756.817062 334.407242C738.260025 352.964279,727.832443 378.131805,727.832443 404.377411C727.832443 430.623016,738.260025 455.790543,756.817062 474.347580C775.374100 492.904617,800.541626 503.332199,826.787231 503.332199C853.032837 503.332199,878.200363 492.904617,896.757401 474.347580C915.314438 455.790543,925.742020 430.623016,925.742020 404.377411Z" style="stroke:rgb(25.500488%,41.000366%,88.400269%); stroke-width: 2.500000;stroke-linecap: round;stroke-linejoin: round;stroke-miterlimit: 10.000000;fill: none;"></path>
  <path d="M839.841049 251.196030C839.841049 224.950424,829.413467 199.782898,810.856430 181.225861C792.299393 162.668823,767.131866 152.241241,740.886261 152.241241C714.640656 152.241241,689.473129 162.668823,670.916092 181.225861C652.359055 199.782898,641.931473 224.950424,641.931473 251.196030C641.931473 277.441635,652.359055 302.609161,670.916092 321.166199C689.473129 339.723236,714.640656 350.150818,740.886261 350.150818C767.131866 350.150818,792.299393 339.723236,810.856430 321.166199C829.413467 302.609161,839.841049 277.441635,839.841049 251.196030Z" style="stroke:rgb(25.500488%,41.000366%,88.400269%); stroke-width: 2.500000;stroke-linecap: round;stroke-linejoin: round;stroke-miterlimit: 10.000000;fill: none;"></path>
  <path d="M755.717804 100.051865C755.717804 73.806259,745.290222 48.638733,726.733185 30.081696C708.176147 11.524658,683.008621 1.097076,656.763016 1.097076C630.517410 1.097076,605.349884 11.524658,586.792847 30.081696C568.235809 48.638733,557.808228 73.806259,557.808228 100.051865C557.808228 126.297470,568.235809 151.464996,586.792847 170.022034C605.349884 188.579071,630.517410 199.006653,656.763016 199.006653C683.008621 199.006653,708.176147 188.579071,726.733185 170.022034C745.290222 151.464996,755.717804 126.297470,755.717804 100.051865Z" style="stroke:rgb(25.500488%,41.000366%,88.400269%); stroke-width: 2.500000;stroke-linecap: round;stroke-linejoin: round;stroke-miterlimit: 10.000000;fill: none;"></path>
  <path d="M1377.552505 1473.922180C1377.552505 1447.676575,1367.124924 1422.509048,1348.567886 1403.952011C1330.010849 1385.394974,1304.843323 1374.967392,1278.597717 1374.967392C1252.352112 1374.967392,1227.184586 1385.394974,1208.627548 1403.952011C1190.070511 1422.509048,1179.642929 1447.676575,1179.642929 1473.922180C1179.642929 1500.167786,1190.070511 1525.335312,1208.627548 1543.892349C1227.184586 1562.449387,1252.352112 1572.876968,1278.597717 1572.876968C1304.843323 1572.876968,1330.010849 1562.449387,1348.567886 1543.892349C1367.124924 1525.335312,1377.552505 1500.167786,1377.552505 1473.922180Z" style="stroke:rgb(25.500488%,41.000366%,88.400269%); stroke-width: 2.500000;stroke-linecap: round;stroke-linejoin: round;stroke-miterlimit: 10.000000;fill: none;"></path>
  <path d="M1291.833206 1325.464050C1291.833206 1299.218445,1281.405624 1274.050919,1262.848587 1255.493881C1244.291550 1236.936844,1219.124023 1226.509262,1192.878418 1226.509262C1166.632812 1226.509262,1141.465286 1236.936844,1122.908249 1255.493881C1104.351212 1274.050919,1093.923630 1299.218445,1093.923630 1325.464050C1093.923630 1351.709656,1104.351212 1376.877182,1122.908249 1395.434219C1141.465286 1413.991257,1166.632812 1424.418839,1192.878418 1424.418839C1219.124023 1424.418839,1244.291550 1413.991257,1262.848587 1395.434219C1281.405624 1376.877182,1291.833206 1351.709656,1291.833206 1325.464050Z" style="stroke:rgb(25.500488%,41.000366%,88.400269%); stroke-width: 2.500000;stroke-linecap: round;stroke-linejoin: round;stroke-miterlimit: 10.000000;fill: none;"></path>
  <path d="M1204.608704 1174.384766C1204.608704 1148.139160,1194.181122 1122.971634,1175.624084 1104.414597C1157.067047 1085.857559,1131.899521 1075.429977,1105.653915 1075.429977C1079.408310 1075.429977,1054.240784 1085.857559,1035.683746 1104.414597C1017.126709 1122.971634,1006.699127 1148.139160,1006.699127 1174.384766C1006.699127 1200.630371,1017.126709 1225.797897,1035.683746 1244.354935C1054.240784 1262.911972,1079.408310 1273.339554,1105.653915 1273.339554C1131.899521 1273.339554,1157.067047 1262.911972,1175.624084 1244.354935C1194.181122 1225.797897,1204.608704 1200.630371,1204.608704 1174.384766Z" style="stroke:rgb(25.500488%,41.000366%,88.400269%); stroke-width: 2.500000;stroke-linecap: round;stroke-linejoin: round;stroke-miterlimit: 10.000000;fill: none;"></path>
  <path d="M1116.242310 1021.320160C1116.242310 995.074554,1105.814728 969.907028,1087.257690 951.349991C1068.700653 932.792953,1043.533127 922.365372,1017.287521 922.365372C991.041916 922.365372,965.874390 932.792953,947.317352 951.349991C928.760315 969.907028,918.332733 995.074554,918.332733 1021.320160C918.332733 1047.565765,928.760315 1072.733292,947.317352 1091.290329C965.874390 1109.847366,991.041916 1120.274948,1017.287521 1120.274948C1043.533127 1120.274948,1068.700653 1109.847366,1087.257690 1091.290329C1105.814728 1072.733292,1116.242310 1047.565765,1116.242310 1021.320160Z" style="stroke:rgb(25.500488%,41.000366%,88.400269%); stroke-width: 2.500000;stroke-linecap: round;stroke-linejoin: round;stroke-miterlimit: 10.000000;fill: none;"></path>
  <path d="M1026.811890 866.412964C1026.811890 840.167358,1016.384308 814.999832,997.827271 796.442795C979.270233 777.885757,954.102707 767.458176,927.857101 767.458176C901.611496 767.458176,876.443970 777.885757,857.886932 796.442795C839.329895 814.999832,828.902313 840.167358,828.902313 866.412964C828.902313 892.658569,839.329895 917.826096,857.886932 936.383133C876.443970 954.940170,901.611496 965.367752,927.857101 965.367752C954.102707 965.367752,979.270233 954.940170,997.827271 936.383133C1016.384308 917.826096,1026.811890 892.658569,1026.811890 866.412964Z" style="stroke:rgb(25.500488%,41.000366%,88.400269%); stroke-width: 2.500000;stroke-linecap: round;stroke-linejoin: round;stroke-miterlimit: 10.000000;fill: none;"></path>
  <path d="M935.097687 707.587036C935.097687 681.341431,924.670105 656.173904,906.113068 637.616867C887.556030 619.059830,862.388504 608.632248,836.142899 608.632248C809.897293 608.632248,784.729767 619.059830,766.172729 637.616867C747.615692 656.173904,737.188110 681.341431,737.188110 707.587036C737.188110 733.832642,747.615692 759.000168,766.172729 777.557205C784.729767 796.114243,809.897293 806.541824,836.142899 806.541824C862.388504 806.541824,887.556030 796.114243,906.113068 777.557205C924.670105 759.000168,935.097687 733.832642,935.097687 707.587036Z" style="stroke:rgb(25.500488%,41.000366%,88.400269%); stroke-width: 2.500000;stroke-linecap: round;stroke-linejoin: round;stroke-miterlimit: 10.000000;fill: none;"></path>
  <path d="M845.667267 552.679840C845.667267 526.434235,835.239685 501.266708,816.682648 482.709671C798.125610 464.152634,772.958084 453.725052,746.712479 453.725052C720.466873 453.725052,695.299347 464.152634,676.742310 482.709671C658.185272 501.266708,647.757690 526.434235,647.757690 552.679840C647.757690 578.925446,658.185272 604.092972,676.742310 622.650009C695.299347 641.207047,720.466873 651.634628,746.712479 651.634628C772.958084 651.634628,798.125610 641.207047,816.682648 622.650009C835.239685 604.092972,845.667267 578.925446,845.667267 552.679840Z" style="stroke:rgb(25.500488%,41.000366%,88.400269%); stroke-width: 2.500000;stroke-linecap: round;stroke-linejoin: round;stroke-miterlimit: 10.000000;fill: none;"></path>
  <path d="M757.300873 399.615234C757.300873 373.369629,746.873291 348.202103,728.316254 329.645065C709.759216 311.088028,684.591690 300.660446,658.346085 300.660446C632.100479 300.660446,606.932953 311.088028,588.375916 329.645065C569.818878 348.202103,559.391296 373.369629,559.391296 399.615234C559.391296 425.860840,569.818878 451.028366,588.375916 469.585403C606.932953 488.142441,632.100479 498.570023,658.346085 498.570023C684.591690 498.570023,709.759216 488.142441,728.316254 469.585403C746.873291 451.028366,757.300873 425.860840,757.300873 399.615234Z" style="stroke:rgb(25.500488%,41.000366%,88.400269%); stroke-width: 2.500000;stroke-linecap: round;stroke-linejoin: round;stroke-miterlimit: 10.000000;fill: none;"></path>
  <path d="M670.076370 248.535950C670.076370 222.290344,659.648788 197.122818,641.091751 178.565781C622.534714 160.008743,597.367188 149.581161,571.121582 149.581161C544.875977 149.581161,519.708450 160.008743,501.151413 178.565781C482.594376 197.122818,472.166794 222.290344,472.166794 248.535950C472.166794 274.781555,482.594376 299.949081,501.151413 318.506119C519.708450 337.063156,544.875977 347.490738,571.121582 347.490738C597.367188 347.490738,622.534714 337.063156,641.091751 318.506119C659.648788 299.949081,670.076370 274.781555,670.076370 248.535950Z" style="stroke:rgb(25.500488%,41.000366%,88.400269%); stroke-width: 2.500000;stroke-linecap: round;stroke-linejoin: round;stroke-miterlimit: 10.000000;fill: none;"></path>
  <path d="M584.357071 100.077820C584.357071 73.832214,573.929489 48.664688,555.372452 30.107651C536.815414 11.550613,511.647888 1.123032,485.402283 1.123032C459.156677 1.123032,433.989151 11.550613,415.432114 30.107651C396.875076 48.664688,386.447495 73.832214,386.447495 100.077820C386.447495 126.323425,396.875076 151.490952,415.432114 170.047989C433.989151 188.605026,459.156677 199.032608,485.402283 199.032608C511.647888 199.032608,536.815414 188.605026,555.372452 170.047989C573.929489 151.490952,584.357071 126.323425,584.357071 100.077820Z" style="stroke:rgb(25.500488%,41.000366%,88.400269%); stroke-width: 2.500000;stroke-linecap: round;stroke-linejoin: round;stroke-miterlimit: 10.000000;fill: none;"></path>
  <path d="M1206.191772 1473.948135C1206.191772 1447.702530,1195.764191 1422.535004,1177.207153 1403.977966C1158.650116 1385.420929,1133.482590 1374.993347,1107.236984 1374.993347C1080.991379 1374.993347,1055.823853 1385.420929,1037.266815 1403.977966C1018.709778 1422.535004,1008.282196 1447.702530,1008.282196 1473.948135C1008.282196 1500.193741,1018.709778 1525.361267,1037.266815 1543.918304C1055.823853 1562.475342,1080.991379 1572.902924,1107.236984 1572.902924C1133.482590 1572.902924,1158.650116 1562.475342,1177.207153 1543.918304C1195.764191 1525.361267,1206.191772 1500.193741,1206.191772 1473.948135Z" style="stroke:rgb(25.500488%,41.000366%,88.400269%); stroke-width: 2.500000;stroke-linecap: round;stroke-linejoin: round;stroke-miterlimit: 10.000000;fill: none;"></path>
  <path d="M1122.068527 1322.803970C1122.068527 1296.558365,1111.640945 1271.390839,1093.083908 1252.833801C1074.526871 1234.276764,1049.359344 1223.849182,1023.113739 1223.849182C996.868134 1223.849182,971.700607 1234.276764,953.143570 1252.833801C934.586533 1271.390839,924.158951 1296.558365,924.158951 1322.803970C924.158951 1349.049576,934.586533 1374.217102,953.143570 1392.774139C971.700607 1411.331177,996.868134 1421.758759,1023.113739 1421.758759C1049.359344 1421.758759,1074.526871 1411.331177,1093.083908 1392.774139C1111.640945 1374.217102,1122.068527 1349.049576,1122.068527 1322.803970Z" style="stroke:rgb(25.500488%,41.000366%,88.400269%); stroke-width: 2.500000;stroke-linecap: round;stroke-linejoin: round;stroke-miterlimit: 10.000000;fill: none;"></path>
  <path d="M1036.167557 1169.622589C1036.167557 1143.376984,1025.739975 1118.209457,1007.182938 1099.652420C988.625900 1081.095383,963.458374 1070.667801,937.212769 1070.667801C910.967163 1070.667801,885.799637 1081.095383,867.242599 1099.652420C848.685562 1118.209457,838.257980 1143.376984,838.257980 1169.622589C838.257980 1195.868195,848.685562 1221.035721,867.242599 1239.592758C885.799637 1258.149796,910.967163 1268.577377,937.212769 1268.577377C963.458374 1268.577377,988.625900 1258.149796,1007.182938 1239.592758C1025.739975 1221.035721,1036.167557 1195.868195,1036.167557 1169.622589Z" style="stroke:rgb(25.500488%,41.000366%,88.400269%); stroke-width: 2.500000;stroke-linecap: round;stroke-linejoin: round;stroke-miterlimit: 10.000000;fill: none;"></path>
  <path d="M949.137695 1014.546707C949.137695 988.301102,938.710114 963.133575,920.153076 944.576538C901.596039 926.019501,876.428513 915.591919,850.182907 915.591919C823.937302 915.591919,798.769775 926.019501,780.212738 944.576538C761.655701 963.133575,751.228119 988.301102,751.228119 1014.546707C751.228119 1040.792313,761.655701 1065.959839,780.212738 1084.516876C798.769775 1103.073914,823.937302 1113.501495,850.182907 1113.501495C876.428513 1113.501495,901.596039 1103.073914,920.153076 1084.516876C938.710114 1065.959839,949.137695 1040.792313,949.137695 1014.546707Z" style="stroke:rgb(25.500488%,41.000366%,88.400269%); stroke-width: 2.500000;stroke-linecap: round;stroke-linejoin: round;stroke-miterlimit: 10.000000;fill: none;"></path>
  <path d="M863.042099 855.084946C863.042099 828.839340,852.614517 803.671814,834.057480 785.114777C815.500443 766.557739,790.332916 756.130157,764.087311 756.130157C737.841705 756.130157,712.674179 766.557739,694.117142 785.114777C675.560104 803.671814,665.132523 828.839340,665.132523 855.084946C665.132523 881.330551,675.560104 906.498077,694.117142 925.055115C712.674179 943.612152,737.841705 954.039734,764.087311 954.039734C790.332916 954.039734,815.500443 943.612152,834.057480 925.055115C852.614517 906.498077,863.042099 881.330551,863.042099 855.084946Z" style="stroke:rgb(25.500488%,41.000366%,88.400269%); stroke-width: 2.500000;stroke-linecap: round;stroke-linejoin: round;stroke-miterlimit: 10.000000;fill: none;"></path>
  <path d="M767.993073 700.787613C767.993073 674.542007,757.565491 649.374481,739.008453 630.817444C720.451416 612.260406,695.283890 601.832825,669.038284 601.832825C642.792679 601.832825,617.625153 612.260406,599.068115 630.817444C580.511078 649.374481,570.083496 674.542007,570.083496 700.787613C570.083496 727.033218,580.511078 752.200745,599.068115 770.757782C617.625153 789.314819,642.792679 799.742401,669.038284 799.742401C695.283890 799.742401,720.451416 789.314819,739.008453 770.757782C757.565491 752.200745,767.993073 727.033218,767.993073 700.787613Z" style="stroke:rgb(25.500488%,41.000366%,88.400269%); stroke-width: 2.500000;stroke-linecap: round;stroke-linejoin: round;stroke-miterlimit: 10.000000;fill: none;"></path>
  <path d="M677.200180 547.878723C677.200180 521.633118,666.772598 496.465591,648.215561 477.908554C629.658524 459.351517,604.490997 448.923935,578.245392 448.923935C551.999786 448.923935,526.832260 459.351517,508.275223 477.908554C489.718185 496.465591,479.290604 521.633118,479.290604 547.878723C479.290604 574.124329,489.718185 599.291855,508.275223 617.848892C526.832260 636.405930,551.999786 646.833511,578.245392 646.833511C604.490997 646.833511,629.658524 636.405930,648.215561 617.848892C666.772598 599.291855,677.200180 574.124329,677.200180 547.878723Z" style="stroke:rgb(25.500488%,41.000366%,88.400269%); stroke-width: 2.500000;stroke-linecap: round;stroke-linejoin: round;stroke-miterlimit: 10.000000;fill: none;"></path>
  <path d="M587.484283 396.890274C587.484283 370.644669,577.056702 345.477142,558.499664 326.920105C539.942627 308.363068,514.775101 297.935486,488.529495 297.935486C462.283890 297.935486,437.116364 308.363068,418.559326 326.920105C400.002289 345.477142,389.574707 370.644669,389.574707 396.890274C389.574707 423.135880,400.002289 448.303406,418.559326 466.860443C437.116364 485.417480,462.283890 495.845062,488.529495 495.845062C514.775101 495.845062,539.942627 485.417480,558.499664 466.860443C577.056702 448.303406,587.484283 423.135880,587.484283 396.890274Z" style="stroke:rgb(25.500488%,41.000366%,88.400269%); stroke-width: 2.500000;stroke-linecap: round;stroke-linejoin: round;stroke-miterlimit: 10.000000;fill: none;"></path>
  <path d="M498.650757 248.471069C498.650757 222.225464,488.223175 197.057938,469.666138 178.500900C451.109100 159.943863,425.941574 149.516281,399.695969 149.516281C373.450363 149.516281,348.282837 159.943863,329.725800 178.500900C311.168762 197.057938,300.741180 222.225464,300.741180 248.471069C300.741180 274.716675,311.168762 299.884201,329.725800 318.441238C348.282837 336.998276,373.450363 347.425858,399.695969 347.425858C425.941574 347.425858,451.109100 336.998276,469.666138 318.441238C488.223175 299.884201,498.650757 274.716675,498.650757 248.471069Z" style="stroke:rgb(25.500488%,41.000366%,88.400269%); stroke-width: 2.500000;stroke-linecap: round;stroke-linejoin: round;stroke-miterlimit: 10.000000;fill: none;"></path>
  <path d="M1036.414108 1471.275085C1036.414108 1445.029480,1025.986526 1419.861954,1007.429489 1401.304916C988.872452 1382.747879,963.704926 1372.320297,937.459320 1372.320297C911.213715 1372.320297,886.046188 1382.747879,867.489151 1401.304916C848.932114 1419.861954,838.504532 1445.029480,838.504532 1471.275085C838.504532 1497.520691,848.932114 1522.688217,867.489151 1541.245255C886.046188 1559.802292,911.213715 1570.229874,937.459320 1570.229874C963.704926 1570.229874,988.872452 1559.802292,1007.429489 1541.245255C1025.986526 1522.688217,1036.414108 1497.520691,1036.414108 1471.275085Z" style="stroke:rgb(25.500488%,41.000366%,88.400269%); stroke-width: 2.500000;stroke-linecap: round;stroke-linejoin: round;stroke-miterlimit: 10.000000;fill: none;"></path>
  <path d="M953.627380 1318.028824C953.627380 1291.783218,943.199799 1266.615692,924.642761 1248.058655C906.085724 1229.501617,880.918198 1219.074036,854.672592 1219.074036C828.426987 1219.074036,803.259460 1229.501617,784.702423 1248.058655C766.145386 1266.615692,755.717804 1291.783218,755.717804 1318.028824C755.717804 1344.274429,766.145386 1369.441956,784.702423 1387.998993C803.259460 1406.556030,828.426987 1416.983612,854.672592 1416.983612C880.918198 1416.983612,906.085724 1406.556030,924.642761 1387.998993C943.199799 1369.441956,953.627380 1344.274429,953.627380 1318.028824Z" style="stroke:rgb(25.500488%,41.000366%,88.400269%); stroke-width: 2.500000;stroke-linecap: round;stroke-linejoin: round;stroke-miterlimit: 10.000000;fill: none;"></path>
  <path d="M869.075928 1162.836151C869.075928 1136.590546,858.648346 1111.423019,840.091309 1092.865982C821.534271 1074.308945,796.366745 1063.881363,770.121140 1063.881363C743.875534 1063.881363,718.708008 1074.308945,700.150970 1092.865982C681.593933 1111.423019,671.166351 1136.590546,671.166351 1162.836151C671.166351 1189.081757,681.593933 1214.249283,700.150970 1232.806320C718.708008 1251.363358,743.875534 1261.790939,770.121140 1261.790939C796.366745 1261.790939,821.534271 1251.363358,840.091309 1232.806320C858.648346 1214.249283,869.075928 1189.081757,869.075928 1162.836151Z" style="stroke:rgb(25.500488%,41.000366%,88.400269%); stroke-width: 2.500000;stroke-linecap: round;stroke-linejoin: round;stroke-miterlimit: 10.000000;fill: none;"></path>
  <path d="M785.380890 1003.192734C785.380890 976.947128,774.953308 951.779602,756.396271 933.222565C737.839233 914.665527,712.671707 904.237946,686.426102 904.237946C660.180496 904.237946,635.012970 914.665527,616.455933 933.222565C597.898895 951.779602,587.471313 976.947128,587.471313 1003.192734C587.471313 1029.438339,597.898895 1054.605865,616.455933 1073.162903C635.012970 1091.719940,660.180496 1102.147522,686.426102 1102.147522C712.671707 1102.147522,737.839233 1091.719940,756.396271 1073.162903C774.953308 1054.605865,785.380890 1029.438339,785.380890 1003.192734Z" style="stroke:rgb(25.500488%,41.000366%,88.400269%); stroke-width: 2.500000;stroke-linecap: round;stroke-linejoin: round;stroke-miterlimit: 10.000000;fill: none;"></path>
  <path d="M695.937485 848.272552C695.937485 822.026947,685.509903 796.859421,666.952866 778.302383C648.395828 759.745346,623.228302 749.317764,596.982697 749.317764C570.737091 749.317764,545.569565 759.745346,527.012527 778.302383C508.455490 796.859421,498.027908 822.026947,498.027908 848.272552C498.027908 874.518158,508.455490 899.685684,527.012527 918.242722C545.569565 936.799759,570.737091 947.227341,596.982697 947.227341C623.228302 947.227341,648.395828 936.799759,666.952866 918.242722C685.509903 899.685684,695.937485 874.518158,695.937485 848.272552Z" style="stroke:rgb(25.500488%,41.000366%,88.400269%); stroke-width: 2.500000;stroke-linecap: round;stroke-linejoin: round;stroke-miterlimit: 10.000000;fill: none;"></path>
  <path d="M599.538971 695.973526C599.538971 669.727921,589.111389 644.560394,570.554352 626.003357C551.997314 607.446320,526.829788 597.018738,500.584183 597.018738C474.338577 597.018738,449.171051 607.446320,430.614014 626.003357C412.056976 644.560394,401.629395 669.727921,401.629395 695.973526C401.629395 722.219131,412.056976 747.386658,430.614014 765.943695C449.171051 784.500732,474.338577 794.928314,500.584183 794.928314C526.829788 794.928314,551.997314 784.500732,570.554352 765.943695C589.111389 747.386658,599.538971 722.219131,599.538971 695.973526Z" style="stroke:rgb(25.500488%,41.000366%,88.400269%); stroke-width: 2.500000;stroke-linecap: round;stroke-linejoin: round;stroke-miterlimit: 10.000000;fill: none;"></path>
  <path d="M507.396561 545.153763C507.396561 518.908157,496.968979 493.740631,478.411942 475.183594C459.854904 456.626556,434.687378 446.198975,408.441772 446.198975C382.196167 446.198975,357.028641 456.626556,338.471603 475.183594C319.914566 493.740631,309.486984 518.908157,309.486984 545.153763C309.486984 571.399368,319.914566 596.566895,338.471603 615.123932C357.028641 633.680969,382.196167 644.108551,408.441772 644.108551C434.687378 644.108551,459.854904 633.680969,478.411942 615.123932C496.968979 596.566895,507.396561 571.399368,507.396561 545.153763Z" style="stroke:rgb(25.500488%,41.000366%,88.400269%); stroke-width: 2.500000;stroke-linecap: round;stroke-linejoin: round;stroke-miterlimit: 10.000000;fill: none;"></path>
  <path d="M416.084625 396.838379C416.084625 370.592773,405.657043 345.425247,387.100006 326.868210C368.542969 308.311172,343.375443 297.883591,317.129837 297.883591C290.884232 297.883591,265.716705 308.311172,247.159668 326.868210C228.602631 345.425247,218.175049 370.592773,218.175049 396.838379C218.175049 423.083984,228.602631 448.251511,247.159668 466.808548C265.716705 485.365585,290.884232 495.793167,317.129837 495.793167C343.375443 495.793167,368.542969 485.365585,387.100006 466.808548C405.657043 448.251511,416.084625 423.083984,416.084625 396.838379Z" style="stroke:rgb(25.500488%,41.000366%,88.400269%); stroke-width: 2.500000;stroke-linecap: round;stroke-linejoin: round;stroke-miterlimit: 10.000000;fill: none;"></path>
  <path d="M869.581985 1469.172974C869.581985 1442.927368,859.154404 1417.759842,840.597366 1399.202805C822.040329 1380.645767,796.872803 1370.218185,770.627197 1370.218185C744.381592 1370.218185,719.214066 1380.645767,700.657028 1399.202805C682.099991 1417.759842,671.672409 1442.927368,671.672409 1469.172974C671.672409 1495.418579,682.099991 1520.586105,700.657028 1539.143143C719.214066 1557.700180,744.381592 1568.127762,770.627197 1568.127762C796.872803 1568.127762,822.040329 1557.700180,840.597366 1539.143143C859.154404 1520.586105,869.581985 1495.418579,869.581985 1469.172974Z" style="stroke:rgb(25.500488%,41.000366%,88.400269%); stroke-width: 2.500000;stroke-linecap: round;stroke-linejoin: round;stroke-miterlimit: 10.000000;fill: none;"></path>
  <path d="M788.144775 1313.928406C788.144775 1287.682800,777.717194 1262.515274,759.160156 1243.958237C740.603119 1225.401199,715.435593 1214.973618,689.189987 1214.973618C662.944382 1214.973618,637.776855 1225.401199,619.219818 1243.958237C600.662781 1262.515274,590.235199 1287.682800,590.235199 1313.928406C590.235199 1340.174011,600.662781 1365.341537,619.219818 1383.898575C637.776855 1402.455612,662.944382 1412.883194,689.189987 1412.883194C715.435593 1412.883194,740.603119 1402.455612,759.160156 1383.898575C777.717194 1365.341537,788.144775 1340.174011,788.144775 1313.928406Z" style="stroke:rgb(25.500488%,41.000366%,88.400269%); stroke-width: 2.500000;stroke-linecap: round;stroke-linejoin: round;stroke-miterlimit: 10.000000;fill: none;"></path>
  <path d="M709.367630 1151.170746C709.367630 1124.925140,698.940048 1099.757614,680.383011 1081.200577C661.825974 1062.643539,636.658447 1052.215958,610.412842 1052.215958C584.167236 1052.215958,558.999710 1062.643539,540.442673 1081.200577C521.885635 1099.757614,511.458054 1124.925140,511.458054 1151.170746C511.458054 1177.416351,521.885635 1202.583878,540.442673 1221.140915C558.999710 1239.697952,584.167236 1250.125534,610.412842 1250.125534C636.658447 1250.125534,661.825974 1239.697952,680.383011 1221.140915C698.940048 1202.583878,709.367630 1177.416351,709.367630 1151.170746Z" style="stroke:rgb(25.500488%,41.000366%,88.400269%); stroke-width: 2.500000;stroke-linecap: round;stroke-linejoin: round;stroke-miterlimit: 10.000000;fill: none;"></path>
  <path d="M618.289246 996.380341C618.289246 970.134735,607.861664 944.967209,589.304626 926.410172C570.747589 907.853134,545.580063 897.425552,519.334457 897.425552C493.088852 897.425552,467.921326 907.853134,449.364288 926.410172C430.807251 944.967209,420.379669 970.134735,420.379669 996.380341C420.379669 1022.625946,430.807251 1047.793472,449.364288 1066.350510C467.921326 1084.907547,493.088852 1095.335129,519.334457 1095.335129C545.580063 1095.335129,570.747589 1084.907547,589.304626 1066.350510C607.861664 1047.793472,618.289246 1022.625946,618.289246 996.380341Z" style="stroke:rgb(25.500488%,41.000366%,88.400269%); stroke-width: 2.500000;stroke-linecap: round;stroke-linejoin: round;stroke-miterlimit: 10.000000;fill: none;"></path>
  <path d="M529.780121 840.110672C529.780121 813.865067,519.352539 788.697540,500.795502 770.140503C482.238464 751.583466,457.070938 741.155884,430.825333 741.155884C404.579727 741.155884,379.412201 751.583466,360.855164 770.140503C342.298126 788.697540,331.870544 813.865067,331.870544 840.110672C331.870544 866.356277,342.298126 891.523804,360.855164 910.080841C379.412201 928.637878,404.579727 939.065460,430.825333 939.065460C457.070938 939.065460,482.238464 928.637878,500.795502 910.080841C519.352539 891.523804,529.780121 866.356277,529.780121 840.110672Z" style="stroke:rgb(25.500488%,41.000366%,88.400269%); stroke-width: 2.500000;stroke-linecap: round;stroke-linejoin: round;stroke-miterlimit: 10.000000;fill: none;"></path>
  <path d="M428.217163 690.510651C428.217163 664.265045,417.789581 639.097519,399.232544 620.540482C380.675507 601.983444,355.507980 591.555862,329.262375 591.555862C303.016769 591.555862,277.849243 601.983444,259.292206 620.540482C240.735168 639.097519,230.307587 664.265045,230.307587 690.510651C230.307587 716.756256,240.735168 741.923782,259.292206 760.480820C277.849243 779.037857,303.016769 789.465439,329.262375 789.465439C355.507980 789.465439,380.675507 779.037857,399.232544 760.480820C417.789581 741.923782,428.217163 716.756256,428.217163 690.510651Z" style="stroke:rgb(25.500488%,41.000366%,88.400269%); stroke-width: 2.500000;stroke-linecap: round;stroke-linejoin: round;stroke-miterlimit: 10.000000;fill: none;"></path>
  <path d="M334.491699 542.363937C334.491699 516.118332,324.064117 490.950806,305.507080 472.393768C286.950043 453.836731,261.782516 443.409149,235.536911 443.409149C209.291306 443.409149,184.123779 453.836731,165.566742 472.393768C147.009705 490.950806,136.582123 516.118332,136.582123 542.363937C136.582123 568.609543,147.009705 593.777069,165.566742 612.334106C184.123779 630.891144,209.291306 641.318726,235.536911 641.318726C261.782516 641.318726,286.950043 630.891144,305.507080 612.334106C324.064117 593.777069,334.491699 568.609543,334.491699 542.363937Z" style="stroke:rgb(25.500488%,41.000366%,88.400269%); stroke-width: 2.500000;stroke-linecap: round;stroke-linejoin: round;stroke-miterlimit: 10.000000;fill: none;"></path>
  <path d="M705.448883 1467.161697C705.448883 1440.916092,695.021301 1415.748566,676.464264 1397.191528C657.907227 1378.634491,632.739700 1368.206909,606.494095 1368.206909C580.248489 1368.206909,555.080963 1378.634491,536.523926 1397.191528C517.966888 1415.748566,507.539307 1440.916092,507.539307 1467.161697C507.539307 1493.407303,517.966888 1518.574829,536.523926 1537.131866C555.080963 1555.688904,580.248489 1566.116486,606.494095 1566.116486C632.739700 1566.116486,657.907227 1555.688904,676.464264 1537.131866C695.021301 1518.574829,705.448883 1493.407303,705.448883 1467.161697Z" style="stroke:rgb(25.500488%,41.000366%,88.400269%); stroke-width: 2.500000;stroke-linecap: round;stroke-linejoin: round;stroke-miterlimit: 10.000000;fill: none;"></path>
  <path d="M634.626007 1299.006042C634.626007 1272.760437,624.198425 1247.592911,605.641388 1229.035873C587.084351 1210.478836,561.916824 1200.051254,535.671219 1200.051254C509.425613 1200.051254,484.258087 1210.478836,465.701050 1229.035873C447.144012 1247.592911,436.716431 1272.760437,436.716431 1299.006042C436.716431 1325.251648,447.144012 1350.419174,465.701050 1368.976212C484.258087 1387.533249,509.425613 1397.960831,535.671219 1397.960831C561.916824 1397.960831,587.084351 1387.533249,605.641388 1368.976212C624.198425 1350.419174,634.626007 1325.251648,634.626007 1299.006042Z" style="stroke:rgb(25.500488%,41.000366%,88.400269%); stroke-width: 2.500000;stroke-linecap: round;stroke-linejoin: round;stroke-miterlimit: 10.000000;fill: none;"></path>
  <path d="M542.288971 1144.345383C542.288971 1118.099777,531.861389 1092.932251,513.304352 1074.375214C494.747314 1055.818176,469.579788 1045.390594,443.334183 1045.390594C417.088577 1045.390594,391.921051 1055.818176,373.364014 1074.375214C354.806976 1092.932251,344.379395 1118.099777,344.379395 1144.345383C344.379395 1170.590988,354.806976 1195.758514,373.364014 1214.315552C391.921051 1232.872589,417.088577 1243.300171,443.334183 1243.300171C469.579788 1243.300171,494.747314 1232.872589,513.304352 1214.315552C531.861389 1195.758514,542.288971 1170.590988,542.288971 1144.345383Z" style="stroke:rgb(25.500488%,41.000366%,88.400269%); stroke-width: 2.500000;stroke-linecap: round;stroke-linejoin: round;stroke-miterlimit: 10.000000;fill: none;"></path>
  <path d="M452.144867 988.218445C452.144867 961.972839,441.717285 936.805313,423.160248 918.248276C404.603210 899.691238,379.435684 889.263657,353.190079 889.263657C326.944473 889.263657,301.776947 899.691238,283.219910 918.248276C264.662872 936.805313,254.235291 961.972839,254.235291 988.218445C254.235291 1014.464050,264.662872 1039.631577,283.219910 1058.188614C301.776947 1076.745651,326.944473 1087.173233,353.190079 1087.173233C379.435684 1087.173233,404.603210 1076.745651,423.160248 1058.188614C441.717285 1039.631577,452.144867 1014.464050,452.144867 988.218445Z" style="stroke:rgb(25.500488%,41.000366%,88.400269%); stroke-width: 2.500000;stroke-linecap: round;stroke-linejoin: round;stroke-miterlimit: 10.000000;fill: none;"></path>
  <path d="M364.375366 830.923676C364.375366 804.678070,353.947784 779.510544,335.390747 760.953506C316.833710 742.396469,291.666183 731.968887,265.420578 731.968887C239.174973 731.968887,214.007446 742.396469,195.450409 760.953506C176.893372 779.510544,166.465790 804.678070,166.465790 830.923676C166.465790 857.169281,176.893372 882.336807,195.450409 900.893845C214.007446 919.450882,239.174973 929.878464,265.420578 929.878464C291.666183 929.878464,316.833710 919.450882,335.390747 900.893845C353.947784 882.336807,364.375366 857.169281,364.375366 830.923676Z" style="stroke:rgb(25.500488%,41.000366%,88.400269%); stroke-width: 2.500000;stroke-linecap: round;stroke-linejoin: round;stroke-miterlimit: 10.000000;fill: none;"></path>
  <path d="M254.157425 685.514893C254.157425 659.269287,243.729843 634.101761,225.172806 615.544724C206.615768 596.987686,181.448242 586.560104,155.202637 586.560104C128.957031 586.560104,103.789505 596.987686,85.232468 615.544724C66.675430 634.101761,56.247849 659.269287,56.247849 685.514893C56.247849 711.760498,66.675430 736.928024,85.232468 755.485062C103.789505 774.042099,128.957031 784.469681,155.202637 784.469681C181.448242 784.469681,206.615768 774.042099,225.172806 755.485062C243.729843 736.928024,254.157425 711.760498,254.157425 685.514893Z" style="stroke:rgb(25.500488%,41.000366%,88.400269%); stroke-width: 2.500000;stroke-linecap: round;stroke-linejoin: round;stroke-miterlimit: 10.000000;fill: none;"></path>
  <path d="M560.727829 1447.399292C560.727829 1421.153687,550.300247 1395.986160,531.743210 1377.429123C513.186172 1358.872086,488.018646 1348.444504,461.773041 1348.444504C435.527435 1348.444504,410.359909 1358.872086,391.802872 1377.429123C373.245834 1395.986160,362.818253 1421.153687,362.818253 1447.399292C362.818253 1473.644897,373.245834 1498.812424,391.802872 1517.369461C410.359909 1535.926498,435.527435 1546.354080,461.773041 1546.354080C488.018646 1546.354080,513.186172 1535.926498,531.743210 1517.369461C550.300247 1498.812424,560.727829 1473.644897,560.727829 1447.399292Z" style="stroke:rgb(25.500488%,41.000366%,88.400269%); stroke-width: 2.500000;stroke-linecap: round;stroke-linejoin: round;stroke-miterlimit: 10.000000;fill: none;"></path>
  <path d="M467.910675 1292.790543C467.910675 1266.544937,457.483093 1241.377411,438.926056 1222.820374C420.369019 1204.263336,395.201492 1193.835754,368.955887 1193.835754C342.710281 1193.835754,317.542755 1204.263336,298.985718 1222.820374C280.428680 1241.377411,270.001099 1266.544937,270.001099 1292.790543C270.001099 1319.036148,280.428680 1344.203674,298.985718 1362.760712C317.542755 1381.317749,342.710281 1391.745331,368.955887 1391.745331C395.201492 1391.745331,420.369019 1381.317749,438.926056 1362.760712C457.483093 1344.203674,467.910675 1319.036148,467.910675 1292.790543Z" style="stroke:rgb(25.500488%,41.000366%,88.400269%); stroke-width: 2.500000;stroke-linecap: round;stroke-linejoin: round;stroke-miterlimit: 10.000000;fill: none;"></path>
  <path d="M377.533005 1135.391968C377.533005 1109.146362,367.105423 1083.978836,348.548386 1065.421799C329.991348 1046.864761,304.823822 1036.437180,278.578217 1036.437180C252.332611 1036.437180,227.165085 1046.864761,208.608047 1065.421799C190.051010 1083.978836,179.623428 1109.146362,179.623428 1135.391968C179.623428 1161.637573,190.051010 1186.805099,208.608047 1205.362137C227.165085 1223.919174,252.332611 1234.346756,278.578217 1234.346756C304.823822 1234.346756,329.991348 1223.919174,348.548386 1205.362137C367.105423 1186.805099,377.533005 1161.637573,377.533005 1135.391968Z" style="stroke:rgb(25.500488%,41.000366%,88.400269%); stroke-width: 2.500000;stroke-linecap: round;stroke-linejoin: round;stroke-miterlimit: 10.000000;fill: none;"></path>
  <path d="M286.402725 978.421585C286.402725 952.175980,275.975143 927.008453,257.418106 908.451416C238.861069 889.894379,213.693542 879.466797,187.447937 879.466797C161.202332 879.466797,136.034805 889.894379,117.477768 908.451416C98.920731 927.008453,88.493149 952.175980,88.493149 978.421585C88.493149 1004.667191,98.920731 1029.834717,117.477768 1048.391754C136.034805 1066.948792,161.202332 1077.376373,187.447937 1077.376373C213.693542 1077.376373,238.861069 1066.948792,257.418106 1048.391754C275.975143 1029.834717,286.402725 1004.667191,286.402725 978.421585Z" style="stroke:rgb(25.500488%,41.000366%,88.400269%); stroke-width: 2.500000;stroke-linecap: round;stroke-linejoin: round;stroke-miterlimit: 10.000000;fill: none;"></path>
  <path d="M198.918701 820.724564C198.918701 794.478958,188.491119 769.311432,169.934082 750.754395C151.377045 732.197357,126.209518 721.769775,99.963913 721.769775C73.718307 721.769775,48.550781 732.197357,29.993744 750.754395C11.436707 769.311432,1.009125 794.478958,1.009125 820.724564C1.009125 846.970169,11.436707 872.137695,29.993744 890.694733C48.550781 909.251770,73.718307 919.679352,99.963913 919.679352C126.209518 919.679352,151.377045 909.251770,169.934082 890.694733C188.491119 872.137695,198.918701 846.970169,198.918701 820.724564Z" style="stroke:rgb(25.500488%,41.000366%,88.400269%); stroke-width: 2.500000;stroke-linecap: round;stroke-linejoin: round;stroke-miterlimit: 10.000000;fill: none;"></path>
</svg>
