<?xml version="1.0"?>
<!-- Created by MetaPost 2.00 on 2022.03.02:1201 -->
<svg version="1.1" xmlns="http://www.w3.org/2000/svg" xmlns:xlink="http://www.w3.org/1999/xlink" width="1849.253799" height="1819.941086" viewBox="0 0 1849.253799 1819.941086">
<!-- Original BoundingBox: -921.843552 -888.586136 927.410248 931.354950 -->
  <path d="M921.000000 80.606476L461.248215 215.608521L147.450195 577.729065L79.261444 1052.026917L278.312912 1487.889938L681.411591 1746.942307L1160.588409 1746.942307L1563.687088 1487.889938L1762.738556 1052.026917L1694.549805 577.729065L1380.751785 215.608521L921.000000 80.606476Z" style="fill: rgb(100.000000%,100.000000%,100.000000%);stroke: none;"></path>
  <path d="M921.000000 80.606476L461.248215 215.608521" style="stroke:rgb(0.000000%,0.000000%,0.000000%); stroke-width: 2.500000;stroke-linecap: round;stroke-linejoin: round;stroke-miterlimit: 10.000000;fill: none;"></path>
  <path d="M461.248215 215.608521L147.450195 577.729065" style="stroke:rgb(0.000000%,0.000000%,0.000000%); stroke-width: 2.500000;stroke-linecap: round;stroke-linejoin: round;stroke-miterlimit: 10.000000;fill: none;"></path>
  <path d="M147.450195 577.729065L79.261444 1052.026917" style="stroke:rgb(0.000000%,0.000000%,0.000000%); stroke-width: 2.500000;stroke-linecap: round;stroke-linejoin: round;stroke-miterlimit: 10.000000;fill: none;"></path>
  <path d="M79.261444 1052.026917L278.312912 1487.889938" style="stroke:rgb(0.000000%,0.000000%,0.000000%); stroke-width: 2.500000;stroke-linecap: round;stroke-linejoin: round;stroke-miterlimit: 10.000000;fill: none;"></path>
  <path d="M278.312912 1487.889938L681.411591 1746.942307" style="stroke:rgb(0.000000%,0.000000%,0.000000%); stroke-width: 2.500000;stroke-linecap: round;stroke-linejoin: round;stroke-miterlimit: 10.000000;fill: none;"></path>
  <path d="M681.411591 1746.942307L1160.588409 1746.942307" style="stroke:rgb(0.000000%,0.000000%,0.000000%); stroke-width: 2.500000;stroke-linecap: round;stroke-linejoin: round;stroke-miterlimit: 10.000000;fill: none;"></path>
  <path d="M1160.588409 1746.942307L1563.687088 1487.889938" style="stroke:rgb(0.000000%,0.000000%,0.000000%); stroke-width: 2.500000;stroke-linecap: round;stroke-linejoin: round;stroke-miterlimit: 10.000000;fill: none;"></path>
  <path d="M1563.687088 1487.889938L1762.738556 1052.026917" style="stroke:rgb(0.000000%,0.000000%,0.000000%); stroke-width: 2.500000;stroke-linecap: round;stroke-linejoin: round;stroke-miterlimit: 10.000000;fill: none;"></path>
  <path d="M1762.738556 1052.026917L1694.549805 577.729065" style="stroke:rgb(0.000000%,0.000000%,0.000000%); stroke-width: 2.500000;stroke-linecap: round;stroke-linejoin: round;stroke-miterlimit: 10.000000;fill: none;"></path>
  <path d="M1694.549805 577.729065L1380.751785 215.608521" style="stroke:rgb(0.000000%,0.000000%,0.000000%); stroke-width: 2.500000;stroke-linecap: round;stroke-linejoin: round;stroke-miterlimit: 10.000000;fill: none;"></path>
  <path d="M1380.751785 215.608521L921.000000 80.606476" style="stroke:rgb(0.000000%,0.000000%,0.000000%); stroke-width: 2.500000;stroke-linecap: round;stroke-linejoin: round;stroke-miterlimit: 10.000000;fill: none;"></path>
  <path d="M372.648270 834.886948C372.648270 798.299347,358.111740 763.214645,332.242355 737.345261C306.372971 711.475876,271.288269 696.939346,234.700668 696.939346C198.113068 696.939346,163.028366 711.475876,137.158981 737.345261C111.289597 763.214645,96.753067 798.299347,96.753067 834.886948C96.753067 871.474548,111.289597 906.559250,137.158981 932.428635C163.028366 958.298019,198.113068 972.834549,234.700668 972.834549C271.288269 972.834549,306.372971 958.298019,332.242355 932.428635C358.111740 906.559250,372.648270 871.474548,372.648270 834.886948Z" style="stroke:rgb(25.500488%,41.000366%,88.400269%); stroke-width: 2.500000;stroke-linecap: round;stroke-linejoin: round;stroke-miterlimit: 10.000000;fill: none;"></path>
  <path d="M514.358887 1055.024368C514.358887 1018.436768,499.822357 983.352066,473.952972 957.482681C448.083588 931.613297,412.998886 917.076767,376.411285 917.076767C339.823685 917.076767,304.738983 931.613297,278.869598 957.482681C253.000214 983.352066,238.463684 1018.436768,238.463684 1055.024368C238.463684 1091.611969,253.000214 1126.696671,278.869598 1152.566055C304.738983 1178.435440,339.823685 1192.971970,376.411285 1192.971970C412.998886 1192.971970,448.083588 1178.435440,473.952972 1152.566055C499.822357 1126.696671,514.358887 1091.611969,514.358887 1055.024368Z" style="stroke:rgb(25.500488%,41.000366%,88.400269%); stroke-width: 2.500000;stroke-linecap: round;stroke-linejoin: round;stroke-miterlimit: 10.000000;fill: none;"></path>
  <path d="M611.445145 1291.070343C611.445145 1254.482742,596.908615 1219.398041,571.039230 1193.528656C545.169846 1167.659271,510.085144 1153.122742,473.497543 1153.122742C436.909943 1153.122742,401.825241 1167.659271,375.955856 1193.528656C350.086472 1219.398041,335.549942 1254.482742,335.549942 1291.070343C335.549942 1327.657944,350.086472 1362.742645,375.955856 1388.612030C401.825241 1414.481415,436.909943 1429.017944,473.497543 1429.017944C510.085144 1429.017944,545.169846 1414.481415,571.039230 1388.612030C596.908615 1362.742645,611.445145 1327.657944,611.445145 1291.070343Z" style="stroke:rgb(25.500488%,41.000366%,88.400269%); stroke-width: 2.500000;stroke-linecap: round;stroke-linejoin: round;stroke-miterlimit: 10.000000;fill: none;"></path>
  <path d="M671.770447 1546.684082C671.770447 1510.096481,657.233917 1475.011780,631.364532 1449.142395C605.495148 1423.273010,570.410446 1408.736481,533.822845 1408.736481C497.235245 1408.736481,462.150543 1423.273010,436.281158 1449.142395C410.411774 1475.011780,395.875244 1510.096481,395.875244 1546.684082C395.875244 1583.271683,410.411774 1618.356384,436.281158 1644.225769C462.150543 1670.095154,497.235245 1684.631683,533.822845 1684.631683C570.410446 1684.631683,605.495148 1670.095154,631.364532 1644.225769C657.233917 1618.356384,671.770447 1583.271683,671.770447 1546.684082Z" style="stroke:rgb(25.500488%,41.000366%,88.400269%); stroke-width: 2.500000;stroke-linecap: round;stroke-linejoin: round;stroke-miterlimit: 10.000000;fill: none;"></path>
  <path d="M561.124298 681.887222C561.124298 645.299622,546.587769 610.214920,520.718384 584.345535C494.848999 558.476151,459.764297 543.939621,423.176697 543.939621C386.589096 543.939621,351.504395 558.476151,325.635010 584.345535C299.765625 610.214920,285.229095 645.299622,285.229095 681.887222C285.229095 718.474823,299.765625 753.559525,325.635010 779.428909C351.504395 805.298294,386.589096 819.834824,423.176697 819.834824C459.764297 819.834824,494.848999 805.298294,520.718384 779.428909C546.587769 753.559525,561.124298 718.474823,561.124298 681.887222Z" style="stroke:rgb(25.500488%,41.000366%,88.400269%); stroke-width: 2.500000;stroke-linecap: round;stroke-linejoin: round;stroke-miterlimit: 10.000000;fill: none;"></path>
  <path d="M615.675308 895.796173C615.675308 859.208572,601.138779 824.123871,575.269394 798.254486C549.400009 772.385101,514.315308 757.848572,477.727707 757.848572C441.140106 757.848572,406.055405 772.385101,380.186020 798.254486C354.316635 824.123871,339.780106 859.208572,339.780106 895.796173C339.780106 932.383774,354.316635 967.468475,380.186020 993.337860C406.055405 1019.207245,441.140106 1033.743774,477.727707 1033.743774C514.315308 1033.743774,549.400009 1019.207245,575.269394 993.337860C601.138779 967.468475,615.675308 932.383774,615.675308 895.796173Z" style="stroke:rgb(25.500488%,41.000366%,88.400269%); stroke-width: 2.500000;stroke-linecap: round;stroke-linejoin: round;stroke-miterlimit: 10.000000;fill: none;"></path>
  <path d="M746.395279 1124.848099C746.395279 1088.260498,731.858749 1053.175797,705.989365 1027.306412C680.119980 1001.437027,645.035278 986.900497,608.447678 986.900497C571.860077 986.900497,536.775375 1001.437027,510.905991 1027.306412C485.036606 1053.175797,470.500076 1088.260498,470.500076 1124.848099C470.500076 1161.435699,485.036606 1196.520401,510.905991 1222.389786C536.775375 1248.259171,571.860077 1262.795700,608.447678 1262.795700C645.035278 1262.795700,680.119980 1248.259171,705.989365 1222.389786C731.858749 1196.520401,746.395279 1161.435699,746.395279 1124.848099Z" style="stroke:rgb(25.500488%,41.000366%,88.400269%); stroke-width: 2.500000;stroke-linecap: round;stroke-linejoin: round;stroke-miterlimit: 10.000000;fill: none;"></path>
  <path d="M816.504471 1375.401199C816.504471 1338.813599,801.967941 1303.728897,776.098557 1277.859512C750.229172 1251.990128,715.144470 1237.453598,678.556870 1237.453598C641.969269 1237.453598,606.884567 1251.990128,581.015182 1277.859512C555.145798 1303.728897,540.609268 1338.813599,540.609268 1375.401199C540.609268 1411.988800,555.145798 1447.073502,581.015182 1472.942886C606.884567 1498.812271,641.969269 1513.348801,678.556870 1513.348801C715.144470 1513.348801,750.229172 1498.812271,776.098557 1472.942886C801.967941 1447.073502,816.504471 1411.988800,816.504471 1375.401199Z" style="stroke:rgb(25.500488%,41.000366%,88.400269%); stroke-width: 2.500000;stroke-linecap: round;stroke-linejoin: round;stroke-miterlimit: 10.000000;fill: none;"></path>
  <path d="M844.519608 1637.606735C844.519608 1601.019135,829.983078 1565.934433,804.113693 1540.065048C778.244308 1514.195663,743.159607 1499.659134,706.572006 1499.659134C669.984406 1499.659134,634.899704 1514.195663,609.030319 1540.065048C583.160934 1565.934433,568.624405 1601.019135,568.624405 1637.606735C568.624405 1674.194336,583.160934 1709.279037,609.030319 1735.148422C634.899704 1761.017807,669.984406 1775.554337,706.572006 1775.554337C743.159607 1775.554337,778.244308 1761.017807,804.113693 1735.148422C829.983078 1709.279037,844.519608 1674.194336,844.519608 1637.606735Z" style="stroke:rgb(25.500488%,41.000366%,88.400269%); stroke-width: 2.500000;stroke-linecap: round;stroke-linejoin: round;stroke-miterlimit: 10.000000;fill: none;"></path>
  <path d="M715.551392 488.791733C715.551392 452.204132,701.014862 417.119431,675.145477 391.250046C649.276093 365.380661,614.191391 350.844131,577.603790 350.844131C541.016190 350.844131,505.931488 365.380661,480.062103 391.250046C454.192719 417.119431,439.656189 452.204132,439.656189 488.791733C439.656189 525.379333,454.192719 560.464035,480.062103 586.333420C505.931488 612.202805,541.016190 626.739334,577.603790 626.739334C614.191391 626.739334,649.276093 612.202805,675.145477 586.333420C701.014862 560.464035,715.551392 525.379333,715.551392 488.791733Z" style="stroke:rgb(25.500488%,41.000366%,88.400269%); stroke-width: 2.500000;stroke-linecap: round;stroke-linejoin: round;stroke-miterlimit: 10.000000;fill: none;"></path>
  <path d="M785.543793 719.232086C785.543793 682.644485,771.007263 647.559784,745.137878 621.690399C719.268494 595.821014,684.183792 581.284485,647.596191 581.284485C611.008591 581.284485,575.923889 595.821014,550.054504 621.690399C524.185120 647.559784,509.648590 682.644485,509.648590 719.232086C509.648590 755.819687,524.185120 790.904388,550.054504 816.773773C575.923889 842.643158,611.008591 857.179688,647.596191 857.179688C684.183792 857.179688,719.268494 842.643158,745.137878 816.773773C771.007263 790.904388,785.543793 755.819687,785.543793 719.232086Z" style="stroke:rgb(25.500488%,41.000366%,88.400269%); stroke-width: 2.500000;stroke-linecap: round;stroke-linejoin: round;stroke-miterlimit: 10.000000;fill: none;"></path>
  <path d="M846.894211 945.922379C846.894211 909.334778,832.357681 874.250076,806.488297 848.380692C780.618912 822.511307,745.534210 807.974777,708.946609 807.974777C672.359009 807.974777,637.274307 822.511307,611.404922 848.380692C585.535538 874.250076,570.999008 909.334778,570.999008 945.922379C570.999008 982.509979,585.535538 1017.594681,611.404922 1043.464066C637.274307 1069.333450,672.359009 1083.869980,708.946609 1083.869980C745.534210 1083.869980,780.618912 1069.333450,806.488297 1043.464066C832.357681 1017.594681,846.894211 982.509979,846.894211 945.922379Z" style="stroke:rgb(25.500488%,41.000366%,88.400269%); stroke-width: 2.500000;stroke-linecap: round;stroke-linejoin: round;stroke-miterlimit: 10.000000;fill: none;"></path>
  <path d="M951.714142 1181.656921C951.714142 1145.069321,937.177612 1109.984619,911.308228 1084.115234C885.438843 1058.245850,850.354141 1043.709320,813.766541 1043.709320C777.178940 1043.709320,742.094238 1058.245850,716.224854 1084.115234C690.355469 1109.984619,675.818939 1145.069321,675.818939 1181.656921C675.818939 1218.244522,690.355469 1253.329224,716.224854 1279.198608C742.094238 1305.067993,777.178940 1319.604523,813.766541 1319.604523C850.354141 1319.604523,885.438843 1305.067993,911.308228 1279.198608C937.177612 1253.329224,951.714142 1218.244522,951.714142 1181.656921Z" style="stroke:rgb(25.500488%,41.000366%,88.400269%); stroke-width: 2.500000;stroke-linecap: round;stroke-linejoin: round;stroke-miterlimit: 10.000000;fill: none;"></path>
  <path d="M985.244064 1425.047287C985.244064 1388.459686,970.707535 1353.374985,944.838150 1327.505600C918.968765 1301.636215,883.884064 1287.099686,847.296463 1287.099686C810.708862 1287.099686,775.624161 1301.636215,749.754776 1327.505600C723.885391 1353.374985,709.348862 1388.459686,709.348862 1425.047287C709.348862 1461.634888,723.885391 1496.719589,749.754776 1522.588974C775.624161 1548.458359,810.708862 1562.994888,847.296463 1562.994888C883.884064 1562.994888,918.968765 1548.458359,944.838150 1522.588974C970.707535 1496.719589,985.244064 1461.634888,985.244064 1425.047287Z" style="stroke:rgb(25.500488%,41.000366%,88.400269%); stroke-width: 2.500000;stroke-linecap: round;stroke-linejoin: round;stroke-miterlimit: 10.000000;fill: none;"></path>
  <path d="M1033.968842 1657.823303C1033.968842 1621.235703,1019.432312 1586.151001,993.562927 1560.281616C967.693542 1534.412231,932.608841 1519.875702,896.021240 1519.875702C859.433640 1519.875702,824.348938 1534.412231,798.479553 1560.281616C772.610168 1586.151001,758.073639 1621.235703,758.073639 1657.823303C758.073639 1694.410904,772.610168 1729.495605,798.479553 1755.364990C824.348938 1781.234375,859.433640 1795.770905,896.021240 1795.770905C932.608841 1795.770905,967.693542 1781.234375,993.562927 1755.364990C1019.432312 1729.495605,1033.968842 1694.410904,1033.968842 1657.823303Z" style="stroke:rgb(25.500488%,41.000366%,88.400269%); stroke-width: 2.500000;stroke-linecap: round;stroke-linejoin: round;stroke-miterlimit: 10.000000;fill: none;"></path>
  <path d="M841.509186 266.409470C841.509186 229.821869,826.972656 194.737167,801.103271 168.867783C775.233887 142.998398,740.149185 128.461868,703.561584 128.461868C666.973984 128.461868,631.889282 142.998398,606.019897 168.867783C580.150513 194.737167,565.613983 229.821869,565.613983 266.409470C565.613983 302.997070,580.150513 338.081772,606.019897 363.951157C631.889282 389.820541,666.973984 404.357071,703.561584 404.357071C740.149185 404.357071,775.233887 389.820541,801.103271 363.951157C826.972656 338.081772,841.509186 302.997070,841.509186 266.409470Z" style="stroke:rgb(25.500488%,41.000366%,88.400269%); stroke-width: 2.500000;stroke-linecap: round;stroke-linejoin: round;stroke-miterlimit: 10.000000;fill: none;"></path>
  <path d="M915.589020 506.166565C915.589020 469.578964,901.052490 434.494263,875.183105 408.624878C849.313721 382.755493,814.229019 368.218964,777.641418 368.218964C741.053818 368.218964,705.969116 382.755493,680.099731 408.624878C654.230347 434.494263,639.693817 469.578964,639.693817 506.166565C639.693817 542.754166,654.230347 577.838867,680.099731 603.708252C705.969116 629.577637,741.053818 644.114166,777.641418 644.114166C814.229019 644.114166,849.313721 629.577637,875.183105 603.708252C901.052490 577.838867,915.589020 542.754166,915.589020 506.166565Z" style="stroke:rgb(25.500488%,41.000366%,88.400269%); stroke-width: 2.500000;stroke-linecap: round;stroke-linejoin: round;stroke-miterlimit: 10.000000;fill: none;"></path>
  <path d="M991.420624 747.286133C991.420624 710.698532,976.884094 675.613831,951.014709 649.744446C925.145325 623.875061,890.060623 609.338531,853.473022 609.338531C816.885422 609.338531,781.800720 623.875061,755.931335 649.744446C730.061951 675.613831,715.525421 710.698532,715.525421 747.286133C715.525421 783.873734,730.061951 818.958435,755.931335 844.827820C781.800720 870.697205,816.885422 885.233734,853.473022 885.233734C890.060623 885.233734,925.145325 870.697205,951.014709 844.827820C976.884094 818.958435,991.420624 783.873734,991.420624 747.286133Z" style="stroke:rgb(25.500488%,41.000366%,88.400269%); stroke-width: 2.500000;stroke-linecap: round;stroke-linejoin: round;stroke-miterlimit: 10.000000;fill: none;"></path>
  <path d="M1067.031631 981.567383C1067.031631 944.979782,1052.495102 909.895081,1026.625717 884.025696C1000.756332 858.156311,965.671631 843.619781,929.084030 843.619781C892.496429 843.619781,857.411728 858.156311,831.542343 884.025696C805.672958 909.895081,791.136429 944.979782,791.136429 981.567383C791.136429 1018.154984,805.672958 1053.239685,831.542343 1079.109070C857.411728 1104.978455,892.496429 1119.514984,929.084030 1119.514984C965.671631 1119.514984,1000.756332 1104.978455,1026.625717 1079.109070C1052.495102 1053.239685,1067.031631 1018.154984,1067.031631 981.567383Z" style="stroke:rgb(25.500488%,41.000366%,88.400269%); stroke-width: 2.500000;stroke-linecap: round;stroke-linejoin: round;stroke-miterlimit: 10.000000;fill: none;"></path>
  <path d="M1153.724121 1232.418930C1153.724121 1195.831329,1139.187592 1160.746628,1113.318207 1134.877243C1087.448822 1109.007858,1052.364120 1094.471329,1015.776520 1094.471329C979.188919 1094.471329,944.104218 1109.007858,918.234833 1134.877243C892.365448 1160.746628,877.828918 1195.831329,877.828918 1232.418930C877.828918 1269.006531,892.365448 1304.091232,918.234833 1329.960617C944.104218 1355.830002,979.188919 1370.366531,1015.776520 1370.366531C1052.364120 1370.366531,1087.448822 1355.830002,1113.318207 1329.960617C1139.187592 1304.091232,1153.724121 1269.006531,1153.724121 1232.418930Z" style="stroke:rgb(25.500488%,41.000366%,88.400269%); stroke-width: 2.500000;stroke-linecap: round;stroke-linejoin: round;stroke-miterlimit: 10.000000;fill: none;"></path>
  <path d="M1198.906479 1460.562531C1198.906479 1423.974930,1184.369949 1388.890228,1158.500565 1363.020844C1132.631180 1337.151459,1097.546478 1322.614929,1060.958878 1322.614929C1024.371277 1322.614929,989.286575 1337.151459,963.417191 1363.020844C937.547806 1388.890228,923.011276 1423.974930,923.011276 1460.562531C923.011276 1497.150131,937.547806 1532.234833,963.417191 1558.104218C989.286575 1583.973602,1024.371277 1598.510132,1060.958878 1598.510132C1097.546478 1598.510132,1132.631180 1583.973602,1158.500565 1558.104218C1184.369949 1532.234833,1198.906479 1497.150131,1198.906479 1460.562531Z" style="stroke:rgb(25.500488%,41.000366%,88.400269%); stroke-width: 2.500000;stroke-linecap: round;stroke-linejoin: round;stroke-miterlimit: 10.000000;fill: none;"></path>
  <path d="M1260.101166 1680.388535C1260.101166 1643.800934,1245.564636 1608.716232,1219.695251 1582.846848C1193.825867 1556.977463,1158.741165 1542.440933,1122.153564 1542.440933C1085.565964 1542.440933,1050.481262 1556.977463,1024.611877 1582.846848C998.742493 1608.716232,984.205963 1643.800934,984.205963 1680.388535C984.205963 1716.976135,998.742493 1752.060837,1024.611877 1777.930222C1050.481262 1803.799606,1085.565964 1818.336136,1122.153564 1818.336136C1158.741165 1818.336136,1193.825867 1803.799606,1219.695251 1777.930222C1245.564636 1752.060837,1260.101166 1716.976135,1260.101166 1680.388535Z" style="stroke:rgb(25.500488%,41.000366%,88.400269%); stroke-width: 2.500000;stroke-linecap: round;stroke-linejoin: round;stroke-miterlimit: 10.000000;fill: none;"></path>
  <path d="M1071.183945 374.642075C1071.183945 338.054474,1056.647415 302.969772,1030.778030 277.100388C1004.908646 251.231003,969.823944 236.694473,933.236343 236.694473C896.648743 236.694473,861.564041 251.231003,835.694656 277.100388C809.825272 302.969772,795.288742 338.054474,795.288742 374.642075C795.288742 411.229675,809.825272 446.314377,835.694656 472.183762C861.564041 498.053146,896.648743 512.589676,933.236343 512.589676C969.823944 512.589676,1004.908646 498.053146,1030.778030 472.183762C1056.647415 446.314377,1071.183945 411.229675,1071.183945 374.642075Z" style="stroke:rgb(25.500488%,41.000366%,88.400269%); stroke-width: 2.500000;stroke-linecap: round;stroke-linejoin: round;stroke-miterlimit: 10.000000;fill: none;"></path>
  <path d="M1143.901306 600.761429C1143.901306 564.173828,1129.364777 529.089127,1103.495392 503.219742C1077.626007 477.350357,1042.541306 462.813828,1005.953705 462.813828C969.366104 462.813828,934.281403 477.350357,908.412018 503.219742C882.542633 529.089127,868.006104 564.173828,868.006104 600.761429C868.006104 637.349030,882.542633 672.433731,908.412018 698.303116C934.281403 724.172501,969.366104 738.709030,1005.953705 738.709030C1042.541306 738.709030,1077.626007 724.172501,1103.495392 698.303116C1129.364777 672.433731,1143.901306 637.349030,1143.901306 600.761429Z" style="stroke:rgb(25.500488%,41.000366%,88.400269%); stroke-width: 2.500000;stroke-linecap: round;stroke-linejoin: round;stroke-miterlimit: 10.000000;fill: none;"></path>
  <path d="M1224.053909 819.666138C1224.053909 783.078537,1209.517380 747.993835,1183.647995 722.124451C1157.778610 696.255066,1122.693909 681.718536,1086.106308 681.718536C1049.518707 681.718536,1014.434006 696.255066,988.564621 722.124451C962.695236 747.993835,948.158707 783.078537,948.158707 819.666138C948.158707 856.253738,962.695236 891.338440,988.564621 917.207825C1014.434006 943.077209,1049.518707 957.613739,1086.106308 957.613739C1122.693909 957.613739,1157.778610 943.077209,1183.647995 917.207825C1209.517380 891.338440,1224.053909 856.253738,1224.053909 819.666138Z" style="stroke:rgb(25.500488%,41.000366%,88.400269%); stroke-width: 2.500000;stroke-linecap: round;stroke-linejoin: round;stroke-miterlimit: 10.000000;fill: none;"></path>
  <path d="M1281.537491 1069.077347C1281.537491 1032.489746,1267.000961 997.405045,1241.131577 971.535660C1215.262192 945.666275,1180.177490 931.129745,1143.589890 931.129745C1107.002289 931.129745,1071.917587 945.666275,1046.048203 971.535660C1020.178818 997.405045,1005.642288 1032.489746,1005.642288 1069.077347C1005.642288 1105.664948,1020.178818 1140.749649,1046.048203 1166.619034C1071.917587 1192.488419,1107.002289 1207.024948,1143.589890 1207.024948C1180.177490 1207.024948,1215.262192 1192.488419,1241.131577 1166.619034C1267.000961 1140.749649,1281.537491 1105.664948,1281.537491 1069.077347Z" style="stroke:rgb(25.500488%,41.000366%,88.400269%); stroke-width: 2.500000;stroke-linecap: round;stroke-linejoin: round;stroke-miterlimit: 10.000000;fill: none;"></path>
  <path d="M1384.683517 1306.459854C1384.683517 1269.872253,1370.146988 1234.787552,1344.277603 1208.918167C1318.408218 1183.048782,1283.323517 1168.512253,1246.735916 1168.512253C1210.148315 1168.512253,1175.063614 1183.048782,1149.194229 1208.918167C1123.324844 1234.787552,1108.788315 1269.872253,1108.788315 1306.459854C1108.788315 1343.047455,1123.324844 1378.132156,1149.194229 1404.001541C1175.063614 1429.870926,1210.148315 1444.407455,1246.735916 1444.407455C1283.323517 1444.407455,1318.408218 1429.870926,1344.277603 1404.001541C1370.146988 1378.132156,1384.683517 1343.047455,1384.683517 1306.459854Z" style="stroke:rgb(25.500488%,41.000366%,88.400269%); stroke-width: 2.500000;stroke-linecap: round;stroke-linejoin: round;stroke-miterlimit: 10.000000;fill: none;"></path>
  <path d="M1416.020493 1546.216949C1416.020493 1509.629349,1401.483963 1474.544647,1375.614578 1448.675262C1349.745193 1422.805878,1314.660492 1408.269348,1278.072891 1408.269348C1241.485291 1408.269348,1206.400589 1422.805878,1180.531204 1448.675262C1154.661819 1474.544647,1140.125290 1509.629349,1140.125290 1546.216949C1140.125290 1582.804550,1154.661819 1617.889252,1180.531204 1643.758636C1206.400589 1669.628021,1241.485291 1684.164551,1278.072891 1684.164551C1314.660492 1684.164551,1349.745193 1669.628021,1375.614578 1643.758636C1401.483963 1617.889252,1416.020493 1582.804550,1416.020493 1546.216949Z" style="stroke:rgb(25.500488%,41.000366%,88.400269%); stroke-width: 2.500000;stroke-linecap: round;stroke-linejoin: round;stroke-miterlimit: 10.000000;fill: none;"></path>
  <path d="M1308.735123 434.980362C1308.735123 398.392761,1294.198593 363.308060,1268.329208 337.438675C1242.459824 311.569290,1207.375122 297.032761,1170.787521 297.032761C1134.199921 297.032761,1099.115219 311.569290,1073.245834 337.438675C1047.376450 363.308060,1032.839920 398.392761,1032.839920 434.980362C1032.839920 471.567963,1047.376450 506.652664,1073.245834 532.522049C1099.115219 558.391434,1134.199921 572.927963,1170.787521 572.927963C1207.375122 572.927963,1242.459824 558.391434,1268.329208 532.522049C1294.198593 506.652664,1308.735123 471.567963,1308.735123 434.980362Z" style="stroke:rgb(25.500488%,41.000366%,88.400269%); stroke-width: 2.500000;stroke-linecap: round;stroke-linejoin: round;stroke-miterlimit: 10.000000;fill: none;"></path>
  <path d="M1380.660965 631.916748C1380.660965 595.329147,1366.124435 560.244446,1340.255051 534.375061C1314.385666 508.505676,1279.300964 493.969147,1242.713364 493.969147C1206.125763 493.969147,1171.041061 508.505676,1145.171677 534.375061C1119.302292 560.244446,1104.765762 595.329147,1104.765762 631.916748C1104.765762 668.504349,1119.302292 703.589050,1145.171677 729.458435C1171.041061 755.327820,1206.125763 769.864349,1242.713364 769.864349C1279.300964 769.864349,1314.385666 755.327820,1340.255051 729.458435C1366.124435 703.589050,1380.660965 668.504349,1380.660965 631.916748Z" style="stroke:rgb(25.500488%,41.000366%,88.400269%); stroke-width: 2.500000;stroke-linecap: round;stroke-linejoin: round;stroke-miterlimit: 10.000000;fill: none;"></path>
  <path d="M1410.985809 891.189713C1410.985809 854.602112,1396.449280 819.517410,1370.579895 793.648026C1344.710510 767.778641,1309.625809 753.242111,1273.038208 753.242111C1236.450607 753.242111,1201.365906 767.778641,1175.496521 793.648026C1149.627136 819.517410,1135.090607 854.602112,1135.090607 891.189713C1135.090607 927.777313,1149.627136 962.862015,1175.496521 988.731400C1201.365906 1014.600784,1236.450607 1029.137314,1273.038208 1029.137314C1309.625809 1029.137314,1344.710510 1014.600784,1370.579895 988.731400C1396.449280 962.862015,1410.985809 927.777313,1410.985809 891.189713Z" style="stroke:rgb(25.500488%,41.000366%,88.400269%); stroke-width: 2.500000;stroke-linecap: round;stroke-linejoin: round;stroke-miterlimit: 10.000000;fill: none;"></path>
  <path d="M1506.073761 1131.465851C1506.073761 1094.878250,1491.537231 1059.793549,1465.667847 1033.924164C1439.798462 1008.054779,1404.713760 993.518250,1368.126160 993.518250C1331.538559 993.518250,1296.453857 1008.054779,1270.584473 1033.924164C1244.715088 1059.793549,1230.178558 1094.878250,1230.178558 1131.465851C1230.178558 1168.053452,1244.715088 1203.138153,1270.584473 1229.007538C1296.453857 1254.876923,1331.538559 1269.413452,1368.126160 1269.413452C1404.713760 1269.413452,1439.798462 1254.876923,1465.667847 1229.007538C1491.537231 1203.138153,1506.073761 1168.053452,1506.073761 1131.465851Z" style="stroke:rgb(25.500488%,41.000366%,88.400269%); stroke-width: 2.500000;stroke-linecap: round;stroke-linejoin: round;stroke-miterlimit: 10.000000;fill: none;"></path>
  <path d="M1648.342361 1312.519623C1648.342361 1275.932022,1633.805832 1240.847321,1607.936447 1214.977936C1582.067062 1189.108551,1546.982361 1174.572021,1510.394760 1174.572021C1473.807159 1174.572021,1438.722458 1189.108551,1412.853073 1214.977936C1386.983688 1240.847321,1372.447159 1275.932022,1372.447159 1312.519623C1372.447159 1349.107224,1386.983688 1384.191925,1412.853073 1410.061310C1438.722458 1435.930695,1473.807159 1450.467224,1510.394760 1450.467224C1546.982361 1450.467224,1582.067062 1435.930695,1607.936447 1410.061310C1633.805832 1384.191925,1648.342361 1349.107224,1648.342361 1312.519623Z" style="stroke:rgb(25.500488%,41.000366%,88.400269%); stroke-width: 2.500000;stroke-linecap: round;stroke-linejoin: round;stroke-miterlimit: 10.000000;fill: none;"></path>
  <path d="M1554.097839 444.647461C1554.097839 408.059860,1539.561310 372.975159,1513.691925 347.105774C1487.822540 321.236389,1452.737839 306.699860,1416.150238 306.699860C1379.562637 306.699860,1344.477936 321.236389,1318.608551 347.105774C1292.739166 372.975159,1278.202637 408.059860,1278.202637 444.647461C1278.202637 481.235062,1292.739166 516.319763,1318.608551 542.189148C1344.477936 568.058533,1379.562637 582.595062,1416.150238 582.595062C1452.737839 582.595062,1487.822540 568.058533,1513.691925 542.189148C1539.561310 516.319763,1554.097839 481.235062,1554.097839 444.647461Z" style="stroke:rgb(25.500488%,41.000366%,88.400269%); stroke-width: 2.500000;stroke-linecap: round;stroke-linejoin: round;stroke-miterlimit: 10.000000;fill: none;"></path>
  <path d="M1562.726868 699.534546C1562.726868 662.946945,1548.190338 627.862244,1522.320953 601.992859C1496.451569 576.123474,1461.366867 561.586945,1424.779266 561.586945C1388.191666 561.586945,1353.106964 576.123474,1327.237579 601.992859C1301.368195 627.862244,1286.831665 662.946945,1286.831665 699.534546C1286.831665 736.122147,1301.368195 771.206848,1327.237579 797.076233C1353.106964 822.945618,1388.191666 837.482147,1424.779266 837.482147C1461.366867 837.482147,1496.451569 822.945618,1522.320953 797.076233C1548.190338 771.206848,1562.726868 736.122147,1562.726868 699.534546Z" style="stroke:rgb(25.500488%,41.000366%,88.400269%); stroke-width: 2.500000;stroke-linecap: round;stroke-linejoin: round;stroke-miterlimit: 10.000000;fill: none;"></path>
  <path d="M1623.389557 942.626480C1623.389557 906.038879,1608.853027 870.954178,1582.983643 845.084793C1557.114258 819.215408,1522.029556 804.678879,1485.441956 804.678879C1448.854355 804.678879,1413.769653 819.215408,1387.900269 845.084793C1362.030884 870.954178,1347.494354 906.038879,1347.494354 942.626480C1347.494354 979.214081,1362.030884 1014.298782,1387.900269 1040.168167C1413.769653 1066.037552,1448.854355 1080.574081,1485.441956 1080.574081C1522.029556 1080.574081,1557.114258 1066.037552,1582.983643 1040.168167C1608.853027 1014.298782,1623.389557 979.214081,1623.389557 942.626480Z" style="stroke:rgb(25.500488%,41.000366%,88.400269%); stroke-width: 2.500000;stroke-linecap: round;stroke-linejoin: round;stroke-miterlimit: 10.000000;fill: none;"></path>
  <path d="M1733.918915 1175.428452C1733.918915 1138.840851,1719.382385 1103.756149,1693.513000 1077.886765C1667.643616 1052.017380,1632.558914 1037.480850,1595.971313 1037.480850C1559.383713 1037.480850,1524.299011 1052.017380,1498.429626 1077.886765C1472.560242 1103.756149,1458.023712 1138.840851,1458.023712 1175.428452C1458.023712 1212.016052,1472.560242 1247.100754,1498.429626 1272.970139C1524.299011 1298.839523,1559.383713 1313.376053,1595.971313 1313.376053C1632.558914 1313.376053,1667.643616 1298.839523,1693.513000 1272.970139C1719.382385 1247.100754,1733.918915 1212.016052,1733.918915 1175.428452Z" style="stroke:rgb(25.500488%,41.000366%,88.400269%); stroke-width: 2.500000;stroke-linecap: round;stroke-linejoin: round;stroke-miterlimit: 10.000000;fill: none;"></path>
  <path d="M1242.726334 210.560867C1242.726334 173.973267,1228.189804 138.888565,1202.320419 113.019180C1176.451035 87.149796,1141.366333 72.613266,1104.778732 72.613266C1068.191132 72.613266,1033.106430 87.149796,1007.237045 113.019180C981.367661 138.888565,966.831131 173.973267,966.831131 210.560867C966.831131 247.148468,981.367661 282.233170,1007.237045 308.102554C1033.106430 333.971939,1068.191132 348.508469,1104.778732 348.508469C1141.366333 348.508469,1176.451035 333.971939,1202.320419 308.102554C1228.189804 282.233170,1242.726334 247.148468,1242.726334 210.560867Z" style="stroke:rgb(25.500488%,41.000366%,88.400269%); stroke-width: 2.500000;stroke-linecap: round;stroke-linejoin: round;stroke-miterlimit: 10.000000;fill: none;"></path>
  <path d="M485.513290 457.636414C485.513290 421.048813,470.976761 385.964111,445.107376 360.094727C419.237991 334.225342,384.153290 319.688812,347.565689 319.688812C310.978088 319.688812,275.893387 334.225342,250.024002 360.094727C224.154617 385.964111,209.618088 421.048813,209.618088 457.636414C209.618088 494.224014,224.154617 529.308716,250.024002 555.178101C275.893387 581.047485,310.978088 595.584015,347.565689 595.584015C384.153290 595.584015,419.237991 581.047485,445.107376 555.178101C470.976761 529.308716,485.513290 494.224014,485.513290 457.636414Z" style="stroke:rgb(25.500488%,41.000366%,88.400269%); stroke-width: 2.500000;stroke-linecap: round;stroke-linejoin: round;stroke-miterlimit: 10.000000;fill: none;"></path>
  <path d="M1778.192947 758.419525C1778.192947 721.831924,1763.656418 686.747223,1737.787033 660.877838C1711.917648 635.008453,1676.832947 620.471924,1640.245346 620.471924C1603.657745 620.471924,1568.573044 635.008453,1542.703659 660.877838C1516.834274 686.747223,1502.297745 721.831924,1502.297745 758.419525C1502.297745 795.007126,1516.834274 830.091827,1542.703659 855.961212C1568.573044 881.830597,1603.657745 896.367126,1640.245346 896.367126C1676.832947 896.367126,1711.917648 881.830597,1737.787033 855.961212C1763.656418 830.091827,1778.192947 795.007126,1778.192947 758.419525Z" style="stroke:rgb(25.500488%,41.000366%,88.400269%); stroke-width: 2.500000;stroke-linecap: round;stroke-linejoin: round;stroke-miterlimit: 10.000000;fill: none;"></path>
  <path d="M1478.811234 265.176743C1478.811234 228.589142,1464.274704 193.504440,1438.405319 167.635056C1412.535934 141.765671,1377.451233 127.229141,1340.863632 127.229141C1304.276031 127.229141,1269.191330 141.765671,1243.321945 167.635056C1217.452560 193.504440,1202.916031 228.589142,1202.916031 265.176743C1202.916031 301.764343,1217.452560 336.849045,1243.321945 362.718430C1269.191330 388.587814,1304.276031 403.124344,1340.863632 403.124344C1377.451233 403.124344,1412.535934 388.587814,1438.405319 362.718430C1464.274704 336.849045,1478.811234 301.764343,1478.811234 265.176743Z" style="stroke:rgb(25.500488%,41.000366%,88.400269%); stroke-width: 2.500000;stroke-linecap: round;stroke-linejoin: round;stroke-miterlimit: 10.000000;fill: none;"></path>
  <path d="M632.518127 263.139526C632.518127 226.551926,617.981598 191.467224,592.112213 165.597839C566.242828 139.728455,531.158127 125.191925,494.570526 125.191925C457.982925 125.191925,422.898224 139.728455,397.028839 165.597839C371.159454 191.467224,356.622925 226.551926,356.622925 263.139526C356.622925 299.727127,371.159454 334.811829,397.028839 360.681213C422.898224 386.550598,457.982925 401.087128,494.570526 401.087128C531.158127 401.087128,566.242828 386.550598,592.112213 360.681213C617.981598 334.811829,632.518127 299.727127,632.518127 263.139526Z" style="stroke:rgb(25.500488%,41.000366%,88.400269%); stroke-width: 2.500000;stroke-linecap: round;stroke-linejoin: round;stroke-miterlimit: 10.000000;fill: none;"></path>
  <path d="M276.301651 1012.943283C276.301651 976.355682,261.765121 941.270981,235.895737 915.401596C210.026352 889.532211,174.941650 874.995682,138.354050 874.995682C101.766449 874.995682,66.681747 889.532211,40.812363 915.401596C14.942978 941.270981,0.406448 976.355682,0.406448 1012.943283C0.406448 1049.530884,14.942978 1084.615585,40.812363 1110.484970C66.681747 1136.354355,101.766449 1150.890884,138.354050 1150.890884C174.941650 1150.890884,210.026352 1136.354355,235.895737 1110.484970C261.765121 1084.615585,276.301651 1049.530884,276.301651 1012.943283Z" style="stroke:rgb(25.500488%,41.000366%,88.400269%); stroke-width: 2.500000;stroke-linecap: round;stroke-linejoin: round;stroke-miterlimit: 10.000000;fill: none;"></path>
  <path d="M1598.125336 1458.200897C1598.125336 1421.613297,1583.588806 1386.528595,1557.719421 1360.659210C1531.850037 1334.789825,1496.765335 1320.253296,1460.177734 1320.253296C1423.590134 1320.253296,1388.505432 1334.789825,1362.636047 1360.659210C1336.766663 1386.528595,1322.230133 1421.613297,1322.230133 1458.200897C1322.230133 1494.788498,1336.766663 1529.873199,1362.636047 1555.742584C1388.505432 1581.611969,1423.590134 1596.148499,1460.177734 1596.148499C1496.765335 1596.148499,1531.850037 1581.611969,1557.719421 1555.742584C1583.588806 1529.873199,1598.125336 1494.788498,1598.125336 1458.200897Z" style="stroke:rgb(25.500488%,41.000366%,88.400269%); stroke-width: 2.500000;stroke-linecap: round;stroke-linejoin: round;stroke-miterlimit: 10.000000;fill: none;"></path>
  <path d="M379.629333 1222.284698C379.629333 1185.697098,365.092804 1150.612396,339.223419 1124.743011C313.354034 1098.873627,278.269333 1084.337097,241.681732 1084.337097C205.094131 1084.337097,170.009430 1098.873627,144.140045 1124.743011C118.270660 1150.612396,103.734131 1185.697098,103.734131 1222.284698C103.734131 1258.872299,118.270660 1293.957001,144.140045 1319.826385C170.009430 1345.695770,205.094131 1360.232300,241.681732 1360.232300C278.269333 1360.232300,313.354034 1345.695770,339.223419 1319.826385C365.092804 1293.957001,379.629333 1258.872299,379.629333 1222.284698Z" style="stroke:rgb(25.500488%,41.000366%,88.400269%); stroke-width: 2.500000;stroke-linecap: round;stroke-linejoin: round;stroke-miterlimit: 10.000000;fill: none;"></path>
  <path d="M324.442520 633.551712C324.442520 596.964111,309.905991 561.879410,284.036606 536.010025C258.167221 510.140640,223.082520 495.604111,186.494919 495.604111C149.907318 495.604111,114.822617 510.140640,88.953232 536.010025C63.083847 561.879410,48.547318 596.964111,48.547318 633.551712C48.547318 670.139313,63.083847 705.224014,88.953232 731.093399C114.822617 756.962784,149.907318 771.499313,186.494919 771.499313C223.082520 771.499313,258.167221 756.962784,284.036606 731.093399C309.905991 705.224014,324.442520 670.139313,324.442520 633.551712Z" style="stroke:rgb(25.500488%,41.000366%,88.400269%); stroke-width: 2.500000;stroke-linecap: round;stroke-linejoin: round;stroke-miterlimit: 10.000000;fill: none;"></path>
  <path d="M1016.516159 138.842651C1016.516159 102.255051,1001.979630 67.170349,976.110245 41.300964C950.240860 15.431580,915.156158 0.895050,878.568558 0.895050C841.980957 0.895050,806.896255 15.431580,781.026871 41.300964C755.157486 67.170349,740.620956 102.255051,740.620956 138.842651C740.620956 175.430252,755.157486 210.514954,781.026871 236.384338C806.896255 262.253723,841.980957 276.790253,878.568558 276.790253C915.156158 276.790253,950.240860 262.253723,976.110245 236.384338C1001.979630 210.514954,1016.516159 175.430252,1016.516159 138.842651Z" style="stroke:rgb(25.500488%,41.000366%,88.400269%); stroke-width: 2.500000;stroke-linecap: round;stroke-linejoin: round;stroke-miterlimit: 10.000000;fill: none;"></path>
  <path d="M1744.740875 536.465469C1744.740875 499.877869,1730.204346 464.793167,1704.334961 438.923782C1678.465576 413.054398,1643.380875 398.517868,1606.793274 398.517868C1570.205673 398.517868,1535.120972 413.054398,1509.251587 438.923782C1483.382202 464.793167,1468.845673 499.877869,1468.845673 536.465469C1468.845673 573.053070,1483.382202 608.137772,1509.251587 634.007156C1535.120972 659.876541,1570.205673 674.413071,1606.793274 674.413071C1643.380875 674.413071,1678.465576 659.876541,1704.334961 634.007156C1730.204346 608.137772,1744.740875 573.053070,1744.740875 536.465469Z" style="stroke:rgb(25.500488%,41.000366%,88.400269%); stroke-width: 2.500000;stroke-linecap: round;stroke-linejoin: round;stroke-miterlimit: 10.000000;fill: none;"></path>
  <path d="M1847.160248 994.257874C1847.160248 957.670273,1832.623718 922.585571,1806.754333 896.716187C1780.884949 870.846802,1745.800247 856.310272,1709.212646 856.310272C1672.625046 856.310272,1637.540344 870.846802,1611.670959 896.716187C1585.801575 922.585571,1571.265045 957.670273,1571.265045 994.257874C1571.265045 1030.845474,1585.801575 1065.930176,1611.670959 1091.799561C1637.540344 1117.668945,1672.625046 1132.205475,1709.212646 1132.205475C1745.800247 1132.205475,1780.884949 1117.668945,1806.754333 1091.799561C1832.623718 1065.930176,1847.160248 1030.845474,1847.160248 994.257874Z" style="stroke:rgb(25.500488%,41.000366%,88.400269%); stroke-width: 2.500000;stroke-linecap: round;stroke-linejoin: round;stroke-miterlimit: 10.000000;fill: none;"></path>
  <path d="M463.648773 1446.042419C463.648773 1409.454819,449.112244 1374.370117,423.242859 1348.500732C397.373474 1322.631348,362.288773 1308.094818,325.701172 1308.094818C289.113571 1308.094818,254.028870 1322.631348,228.159485 1348.500732C202.290100 1374.370117,187.753571 1409.454819,187.753571 1446.042419C187.753571 1482.630020,202.290100 1517.714722,228.159485 1543.584106C254.028870 1569.453491,289.113571 1583.990021,325.701172 1583.990021C362.288773 1583.990021,397.373474 1569.453491,423.242859 1543.584106C449.112244 1517.714722,463.648773 1482.630020,463.648773 1446.042419Z" style="stroke:rgb(25.500488%,41.000366%,88.400269%); stroke-width: 2.500000;stroke-linecap: round;stroke-linejoin: round;stroke-miterlimit: 10.000000;fill: none;"></path>
</svg>
