<?xml version="1.0"?>
<!-- Created by MetaPost 2.00 on 2022.03.02:1201 -->
<svg version="1.1" xmlns="http://www.w3.org/2000/svg" xmlns:xlink="http://www.w3.org/1999/xlink" width="1494.114319" height="1324.427490" viewBox="0 0 1494.114319 1324.427490">
<!-- Original BoundingBox: -747.952499 -472.628250 746.161819 851.799240 -->
  <path d="M747.000000 0.606476L10.535538 1276.196762L1483.464462 1276.196762L747.000000 0.606476Z" style="fill: rgb(100.000000%,100.000000%,100.000000%);stroke: none;"></path>
  <path d="M747.000000 0.606476L10.535538 1276.196762" style="stroke:rgb(0.000000%,0.000000%,0.000000%); stroke-width: 2.500000;stroke-linecap: round;stroke-linejoin: round;stroke-miterlimit: 10.000000;fill: none;"></path>
  <path d="M10.535538 1276.196762L1483.464462 1276.196762" style="stroke:rgb(0.000000%,0.000000%,0.000000%); stroke-width: 2.500000;stroke-linecap: round;stroke-linejoin: round;stroke-miterlimit: 10.000000;fill: none;"></path>
  <path d="M1483.464462 1276.196762L747.000000 0.606476" style="stroke:rgb(0.000000%,0.000000%,0.000000%); stroke-width: 2.500000;stroke-linecap: round;stroke-linejoin: round;stroke-miterlimit: 10.000000;fill: none;"></path>
  <path d="M800.863266 301.701004C800.863266 281.602081,792.877808 262.328766,778.666809 248.117767C764.455811 233.906769,745.182495 225.921310,725.083572 225.921310C704.984650 225.921310,685.711334 233.906769,671.500336 248.117767C657.289337 262.328766,649.303879 281.602081,649.303879 301.701004C649.303879 321.799927,657.289337 341.073242,671.500336 355.284241C685.711334 369.495239,704.984650 377.480698,725.083572 377.480698C745.182495 377.480698,764.455811 369.495239,778.666809 355.284241C792.877808 341.073242,800.863266 321.799927,800.863266 301.701004Z" style="stroke:rgb(25.500488%,41.000366%,88.400269%); stroke-width: 2.500000;stroke-linecap: round;stroke-linejoin: round;stroke-miterlimit: 10.000000;fill: none;"></path>
  <path d="M859.177307 407.312469C859.177307 387.213547,851.191849 367.940231,836.980850 353.729233C822.769852 339.518234,803.496536 331.532776,783.397614 331.532776C763.298691 331.532776,744.025375 339.518234,729.814377 353.729233C715.603378 367.940231,707.617920 387.213547,707.617920 407.312469C707.617920 427.411392,715.603378 446.684708,729.814377 460.895706C744.025375 475.106705,763.298691 483.092163,783.397614 483.092163C803.496536 483.092163,822.769852 475.106705,836.980850 460.895706C851.191849 446.684708,859.177307 427.411392,859.177307 407.312469Z" style="stroke:rgb(25.500488%,41.000366%,88.400269%); stroke-width: 2.500000;stroke-linecap: round;stroke-linejoin: round;stroke-miterlimit: 10.000000;fill: none;"></path>
  <path d="M728.664948 421.404388C728.664948 401.305466,720.679489 382.032150,706.468491 367.821152C692.257492 353.610153,672.984177 345.624695,652.885254 345.624695C632.786331 345.624695,613.513016 353.610153,599.302017 367.821152C585.091019 382.032150,577.105560 401.305466,577.105560 421.404388C577.105560 441.503311,585.091019 460.776627,599.302017 474.987625C613.513016 489.198624,632.786331 497.184082,652.885254 497.184082C672.984177 497.184082,692.257492 489.198624,706.468491 474.987625C720.679489 460.776627,728.664948 441.503311,728.664948 421.404388Z" style="stroke:rgb(25.500488%,41.000366%,88.400269%); stroke-width: 2.500000;stroke-linecap: round;stroke-linejoin: round;stroke-miterlimit: 10.000000;fill: none;"></path>
  <path d="M1060.408737 493.940079C1060.408737 473.841156,1052.423279 454.567841,1038.212280 440.356842C1024.001282 426.145844,1004.727966 418.160385,984.629044 418.160385C964.530121 418.160385,945.256805 426.145844,931.045807 440.356842C916.834808 454.567841,908.849350 473.841156,908.849350 493.940079C908.849350 514.039001,916.834808 533.312317,931.045807 547.523315C945.256805 561.734314,964.530121 569.719772,984.629044 569.719772C1004.727966 569.719772,1024.001282 561.734314,1038.212280 547.523315C1052.423279 533.312317,1060.408737 514.039001,1060.408737 493.940079Z" style="stroke:rgb(25.500488%,41.000366%,88.400269%); stroke-width: 2.500000;stroke-linecap: round;stroke-linejoin: round;stroke-miterlimit: 10.000000;fill: none;"></path>
  <path d="M924.965500 504.917755C924.965500 484.818832,916.980042 465.545517,902.769043 451.334518C888.558044 437.123520,869.284729 429.138062,849.185806 429.138062C829.086884 429.138062,809.813568 437.123520,795.602570 451.334518C781.391571 465.545517,773.406113 484.818832,773.406113 504.917755C773.406113 525.016678,781.391571 544.289993,795.602570 558.500992C809.813568 572.711990,829.086884 580.697449,849.185806 580.697449C869.284729 580.697449,888.558044 572.711990,902.769043 558.500992C916.980042 544.289993,924.965500 525.016678,924.965500 504.917755Z" style="stroke:rgb(25.500488%,41.000366%,88.400269%); stroke-width: 2.500000;stroke-linecap: round;stroke-linejoin: round;stroke-miterlimit: 10.000000;fill: none;"></path>
  <path d="M791.287003 527.521912C791.287003 507.422989,783.301544 488.149673,769.090546 473.938675C754.879547 459.727676,735.606232 451.742218,715.507309 451.742218C695.408386 451.742218,676.135071 459.727676,661.924072 473.938675C647.713074 488.149673,639.727615 507.422989,639.727615 527.521912C639.727615 547.620834,647.713074 566.894150,661.924072 581.105148C676.135071 595.316147,695.408386 603.301605,715.507309 603.301605C735.606232 603.301605,754.879547 595.316147,769.090546 581.105148C783.301544 566.894150,791.287003 547.620834,791.287003 527.521912Z" style="stroke:rgb(25.500488%,41.000366%,88.400269%); stroke-width: 2.500000;stroke-linecap: round;stroke-linejoin: round;stroke-miterlimit: 10.000000;fill: none;"></path>
  <path d="M664.304108 546.077560C664.304108 525.978638,656.318649 506.705322,642.107651 492.494324C627.896652 478.283325,608.623337 470.297867,588.524414 470.297867C568.425491 470.297867,549.152176 478.283325,534.941177 492.494324C520.730179 506.705322,512.744720 525.978638,512.744720 546.077560C512.744720 566.176483,520.730179 585.449799,534.941177 599.660797C549.152176 613.871796,568.425491 621.857254,588.524414 621.857254C608.623337 621.857254,627.896652 613.871796,642.107651 599.660797C656.318649 585.449799,664.304108 566.176483,664.304108 546.077560Z" style="stroke:rgb(25.500488%,41.000366%,88.400269%); stroke-width: 2.500000;stroke-linecap: round;stroke-linejoin: round;stroke-miterlimit: 10.000000;fill: none;"></path>
  <path d="M991.130005 608.569855C991.130005 588.470932,983.144547 569.197617,968.933548 554.986618C954.722549 540.775620,935.449234 532.790161,915.350311 532.790161C895.251389 532.790161,875.978073 540.775620,861.767075 554.986618C847.556076 569.197617,839.570618 588.470932,839.570618 608.569855C839.570618 628.668777,847.556076 647.942093,861.767075 662.153091C875.978073 676.364090,895.251389 684.349548,915.350311 684.349548C935.449234 684.349548,954.722549 676.364090,968.933548 662.153091C983.144547 647.942093,991.130005 628.668777,991.130005 608.569855Z" style="stroke:rgb(25.500488%,41.000366%,88.400269%); stroke-width: 2.500000;stroke-linecap: round;stroke-linejoin: round;stroke-miterlimit: 10.000000;fill: none;"></path>
  <path d="M855.699738 619.534546C855.699738 599.435623,847.714279 580.162308,833.503281 565.951309C819.292282 551.740311,800.018967 543.754852,779.920044 543.754852C759.821121 543.754852,740.547806 551.740311,726.336807 565.951309C712.125809 580.162308,704.140350 599.435623,704.140350 619.534546C704.140350 639.633469,712.125809 658.906784,726.336807 673.117783C740.547806 687.328781,759.821121 695.314240,779.920044 695.314240C800.018967 695.314240,819.292282 687.328781,833.503281 673.117783C847.714279 658.906784,855.699738 639.633469,855.699738 619.534546Z" style="stroke:rgb(25.500488%,41.000366%,88.400269%); stroke-width: 2.500000;stroke-linecap: round;stroke-linejoin: round;stroke-miterlimit: 10.000000;fill: none;"></path>
  <path d="M724.136322 651.896637C724.136322 631.797714,716.150864 612.524399,701.939865 598.313400C687.728867 584.102402,668.455551 576.116943,648.356628 576.116943C628.257706 576.116943,608.984390 584.102402,594.773392 598.313400C580.562393 612.524399,572.576935 631.797714,572.576935 651.896637C572.576935 671.995560,580.562393 691.268875,594.773392 705.479874C608.984390 719.690872,628.257706 727.676331,648.356628 727.676331C668.455551 727.676331,687.728867 719.690872,701.939865 705.479874C716.150864 691.268875,724.136322 671.995560,724.136322 651.896637Z" style="stroke:rgb(25.500488%,41.000366%,88.400269%); stroke-width: 2.500000;stroke-linecap: round;stroke-linejoin: round;stroke-miterlimit: 10.000000;fill: none;"></path>
  <path d="M545.690720 560.182434C545.690720 540.083511,537.705261 520.810196,523.494263 506.599197C509.283264 492.388199,490.009949 484.402740,469.911026 484.402740C449.812103 484.402740,430.538788 492.388199,416.327789 506.599197C402.116791 520.810196,394.131332 540.083511,394.131332 560.182434C394.131332 580.281357,402.116791 599.554672,416.327789 613.765671C430.538788 627.976669,449.812103 635.962128,469.911026 635.962128C490.009949 635.962128,509.283264 627.976669,523.494263 613.765671C537.705261 599.554672,545.690720 580.281357,545.690720 560.182434Z" style="stroke:rgb(25.500488%,41.000366%,88.400269%); stroke-width: 2.500000;stroke-linecap: round;stroke-linejoin: round;stroke-miterlimit: 10.000000;fill: none;"></path>
  <path d="M1184.420135 714.077515C1184.420135 693.978592,1176.434677 674.705276,1162.223679 660.494278C1148.012680 646.283279,1128.739365 638.297821,1108.640442 638.297821C1088.541519 638.297821,1069.268204 646.283279,1055.057205 660.494278C1040.846207 674.705276,1032.860748 693.978592,1032.860748 714.077515C1032.860748 734.176437,1040.846207 753.449753,1055.057205 767.660751C1069.268204 781.871750,1088.541519 789.857208,1108.640442 789.857208C1128.739365 789.857208,1148.012680 781.871750,1162.223679 767.660751C1176.434677 753.449753,1184.420135 734.176437,1184.420135 714.077515Z" style="stroke:rgb(25.500488%,41.000366%,88.400269%); stroke-width: 2.500000;stroke-linecap: round;stroke-linejoin: round;stroke-miterlimit: 10.000000;fill: none;"></path>
  <path d="M1051.753754 718.891602C1051.753754 698.792679,1043.768295 679.519363,1029.557297 665.308365C1015.346298 651.097366,996.072983 643.111908,975.974060 643.111908C955.875137 643.111908,936.601822 651.097366,922.390823 665.308365C908.179825 679.519363,900.194366 698.792679,900.194366 718.891602C900.194366 738.990524,908.179825 758.263840,922.390823 772.474838C936.601822 786.685837,955.875137 794.671295,975.974060 794.671295C996.072983 794.671295,1015.346298 786.685837,1029.557297 772.474838C1043.768295 758.263840,1051.753754 738.990524,1051.753754 718.891602Z" style="stroke:rgb(25.500488%,41.000366%,88.400269%); stroke-width: 2.500000;stroke-linecap: round;stroke-linejoin: round;stroke-miterlimit: 10.000000;fill: none;"></path>
  <path d="M919.437729 723.017960C919.437729 702.919037,911.452271 683.645721,897.241272 669.434723C883.030273 655.223724,863.756958 647.238266,843.658035 647.238266C823.559113 647.238266,804.285797 655.223724,790.074799 669.434723C775.863800 683.645721,767.878342 702.919037,767.878342 723.017960C767.878342 743.116882,775.863800 762.390198,790.074799 776.601196C804.285797 790.812195,823.559113 798.797653,843.658035 798.797653C863.756958 798.797653,883.030273 790.812195,897.241272 776.601196C911.452271 762.390198,919.437729 743.116882,919.437729 723.017960Z" style="stroke:rgb(25.500488%,41.000366%,88.400269%); stroke-width: 2.500000;stroke-linecap: round;stroke-linejoin: round;stroke-miterlimit: 10.000000;fill: none;"></path>
  <path d="M796.503342 724.043060C796.503342 703.944138,788.517883 684.670822,774.306885 670.459824C760.095886 656.248825,740.822571 648.263367,720.723648 648.263367C700.624725 648.263367,681.351410 656.248825,667.140411 670.459824C652.929413 684.670822,644.943954 703.944138,644.943954 724.043060C644.943954 744.141983,652.929413 763.415298,667.140411 777.626297C681.351410 791.837296,700.624725 799.822754,720.723648 799.822754C740.822571 799.822754,760.095886 791.837296,774.306885 777.626297C788.517883 763.415298,796.503342 744.141983,796.503342 724.043060Z" style="stroke:rgb(25.500488%,41.000366%,88.400269%); stroke-width: 2.500000;stroke-linecap: round;stroke-linejoin: round;stroke-miterlimit: 10.000000;fill: none;"></path>
  <path d="M613.983276 675.162552C613.983276 655.063629,605.997818 635.790314,591.786819 621.579315C577.575821 607.368317,558.302505 599.382858,538.203583 599.382858C518.104660 599.382858,498.831345 607.368317,484.620346 621.579315C470.409348 635.790314,462.423889 655.063629,462.423889 675.162552C462.423889 695.261475,470.409348 714.534790,484.620346 728.745789C498.831345 742.956787,518.104660 750.942245,538.203583 750.942245C558.302505 750.942245,577.575821 742.956787,591.786819 728.745789C605.997818 714.534790,613.983276 695.261475,613.983276 675.162552Z" style="stroke:rgb(25.500488%,41.000366%,88.400269%); stroke-width: 2.500000;stroke-linecap: round;stroke-linejoin: round;stroke-miterlimit: 10.000000;fill: none;"></path>
  <path d="M482.432831 671.827728C482.432831 651.728806,474.447372 632.455490,460.236374 618.244492C446.025375 604.033493,426.752060 596.048035,406.653137 596.048035C386.554214 596.048035,367.280899 604.033493,353.069901 618.244492C338.858902 632.455490,330.873444 651.728806,330.873444 671.827728C330.873444 691.926651,338.858902 711.199966,353.069901 725.410965C367.280899 739.621964,386.554214 747.607422,406.653137 747.607422C426.752060 747.607422,446.025375 739.621964,460.236374 725.410965C474.447372 711.199966,482.432831 691.926651,482.432831 671.827728Z" style="stroke:rgb(25.500488%,41.000366%,88.400269%); stroke-width: 2.500000;stroke-linecap: round;stroke-linejoin: round;stroke-miterlimit: 10.000000;fill: none;"></path>
  <path d="M1239.256607 820.532410C1239.256607 800.433487,1231.271149 781.160172,1217.060150 766.949173C1202.849152 752.738174,1183.575836 744.752716,1163.476913 744.752716C1143.377991 744.752716,1124.104675 752.738174,1109.893677 766.949173C1095.682678 781.160172,1087.697220 800.433487,1087.697220 820.532410C1087.697220 840.631332,1095.682678 859.904648,1109.893677 874.115646C1124.104675 888.326645,1143.377991 896.312103,1163.476913 896.312103C1183.575836 896.312103,1202.849152 888.326645,1217.060150 874.115646C1231.271149 859.904648,1239.256607 840.631332,1239.256607 820.532410Z" style="stroke:rgb(25.500488%,41.000366%,88.400269%); stroke-width: 2.500000;stroke-linecap: round;stroke-linejoin: round;stroke-miterlimit: 10.000000;fill: none;"></path>
  <path d="M1103.099686 823.179504C1103.099686 803.080582,1095.114227 783.807266,1080.903229 769.596268C1066.692230 755.385269,1047.418915 747.399811,1027.319992 747.399811C1007.221069 747.399811,987.947754 755.385269,973.736755 769.596268C959.525757 783.807266,951.540298 803.080582,951.540298 823.179504C951.540298 843.278427,959.525757 862.551743,973.736755 876.762741C987.947754 890.973740,1007.221069 898.959198,1027.319992 898.959198C1047.418915 898.959198,1066.692230 890.973740,1080.903229 876.762741C1095.114227 862.551743,1103.099686 843.278427,1103.099686 823.179504Z" style="stroke:rgb(25.500488%,41.000366%,88.400269%); stroke-width: 2.500000;stroke-linecap: round;stroke-linejoin: round;stroke-miterlimit: 10.000000;fill: none;"></path>
  <path d="M964.464371 823.153549C964.464371 803.054626,956.478912 783.781311,942.267914 769.570312C928.056915 755.359314,908.783600 747.373856,888.684677 747.373856C868.585754 747.373856,849.312439 755.359314,835.101440 769.570312C820.890442 783.781311,812.904984 803.054626,812.904984 823.153549C812.904984 843.252472,820.890442 862.525787,835.101440 876.736786C849.312439 890.947784,868.585754 898.933243,888.684677 898.933243C908.783600 898.933243,928.056915 890.947784,942.267914 876.736786C956.478912 862.525787,964.464371 843.252472,964.464371 823.153549Z" style="stroke:rgb(25.500488%,41.000366%,88.400269%); stroke-width: 2.500000;stroke-linecap: round;stroke-linejoin: round;stroke-miterlimit: 10.000000;fill: none;"></path>
  <path d="M823.675034 822.037628C823.675034 801.938705,815.689575 782.665390,801.478577 768.454391C787.267578 754.243393,767.994263 746.257935,747.895340 746.257935C727.796417 746.257935,708.523102 754.243393,694.312103 768.454391C680.101105 782.665390,672.115646 801.938705,672.115646 822.037628C672.115646 842.136551,680.101105 861.409866,694.312103 875.620865C708.523102 889.831863,727.796417 897.817322,747.895340 897.817322C767.994263 897.817322,787.267578 889.831863,801.478577 875.620865C815.689575 861.409866,823.675034 842.136551,823.675034 822.037628Z" style="stroke:rgb(25.500488%,41.000366%,88.400269%); stroke-width: 2.500000;stroke-linecap: round;stroke-linejoin: round;stroke-miterlimit: 10.000000;fill: none;"></path>
  <path d="M683.469620 788.871033C683.469620 768.772110,675.484161 749.498795,661.273163 735.287796C647.062164 721.076797,627.788849 713.091339,607.689926 713.091339C587.591003 713.091339,568.317688 721.076797,554.106689 735.287796C539.895691 749.498795,531.910233 768.772110,531.910233 788.871033C531.910233 808.969955,539.895691 828.243271,554.106689 842.454269C568.317688 856.665268,587.591003 864.650726,607.689926 864.650726C627.788849 864.650726,647.062164 856.665268,661.273163 842.454269C675.484161 828.243271,683.469620 808.969955,683.469620 788.871033Z" style="stroke:rgb(25.500488%,41.000366%,88.400269%); stroke-width: 2.500000;stroke-linecap: round;stroke-linejoin: round;stroke-miterlimit: 10.000000;fill: none;"></path>
  <path d="M550.569687 785.640015C550.569687 765.541092,542.584229 746.267776,528.373230 732.056778C514.162231 717.845779,494.888916 709.860321,474.789993 709.860321C454.691071 709.860321,435.417755 717.845779,421.206757 732.056778C406.995758 746.267776,399.010300 765.541092,399.010300 785.640015C399.010300 805.738937,406.995758 825.012253,421.206757 839.223251C435.417755 853.434250,454.691071 861.419708,474.789993 861.419708C494.888916 861.419708,514.162231 853.434250,528.373230 839.223251C542.584229 825.012253,550.569687 805.738937,550.569687 785.640015Z" style="stroke:rgb(25.500488%,41.000366%,88.400269%); stroke-width: 2.500000;stroke-linecap: round;stroke-linejoin: round;stroke-miterlimit: 10.000000;fill: none;"></path>
  <path d="M417.734619 782.421967C417.734619 762.323044,409.749161 743.049728,395.538162 728.838730C381.327164 714.627731,362.053848 706.642273,341.954926 706.642273C321.856003 706.642273,302.582687 714.627731,288.371689 728.838730C274.160690 743.049728,266.175232 762.323044,266.175232 782.421967C266.175232 802.520889,274.160690 821.794205,288.371689 836.005203C302.582687 850.216202,321.856003 858.201660,341.954926 858.201660C362.053848 858.201660,381.327164 850.216202,395.538162 836.005203C409.749161 821.794205,417.734619 802.520889,417.734619 782.421967Z" style="stroke:rgb(25.500488%,41.000366%,88.400269%); stroke-width: 2.500000;stroke-linecap: round;stroke-linejoin: round;stroke-miterlimit: 10.000000;fill: none;"></path>
  <path d="M1301.463425 920.979431C1301.463425 900.880508,1293.477966 881.607193,1279.266968 867.396194C1265.055969 853.185196,1245.782654 845.199738,1225.683731 845.199738C1205.584808 845.199738,1186.311493 853.185196,1172.100494 867.396194C1157.889496 881.607193,1149.904037 900.880508,1149.904037 920.979431C1149.904037 941.078354,1157.889496 960.351669,1172.100494 974.562668C1186.311493 988.773666,1205.584808 996.759125,1225.683731 996.759125C1245.782654 996.759125,1265.055969 988.773666,1279.266968 974.562668C1293.477966 960.351669,1301.463425 941.078354,1301.463425 920.979431Z" style="stroke:rgb(25.500488%,41.000366%,88.400269%); stroke-width: 2.500000;stroke-linecap: round;stroke-linejoin: round;stroke-miterlimit: 10.000000;fill: none;"></path>
  <path d="M1162.750244 930.374039C1162.750244 910.275116,1154.764786 891.001801,1140.553787 876.790802C1126.342789 862.579803,1107.069473 854.594345,1086.970551 854.594345C1066.871628 854.594345,1047.598312 862.579803,1033.387314 876.790802C1019.176315 891.001801,1011.190857 910.275116,1011.190857 930.374039C1011.190857 950.472961,1019.176315 969.746277,1033.387314 983.957275C1047.598312 998.168274,1066.871628 1006.153732,1086.970551 1006.153732C1107.069473 1006.153732,1126.342789 998.168274,1140.553787 983.957275C1154.764786 969.746277,1162.750244 950.472961,1162.750244 930.374039Z" style="stroke:rgb(25.500488%,41.000366%,88.400269%); stroke-width: 2.500000;stroke-linecap: round;stroke-linejoin: round;stroke-miterlimit: 10.000000;fill: none;"></path>
  <path d="M1024.711823 929.050491C1024.711823 908.951569,1016.726364 889.678253,1002.515366 875.467255C988.304367 861.256256,969.031052 853.270798,948.932129 853.270798C928.833206 853.270798,909.559891 861.256256,895.348892 875.467255C881.137894 889.678253,873.152435 908.951569,873.152435 929.050491C873.152435 949.149414,881.137894 968.422729,895.348892 982.633728C909.559891 996.844727,928.833206 1004.830185,948.932129 1004.830185C969.031052 1004.830185,988.304367 996.844727,1002.515366 982.633728C1016.726364 968.422729,1024.711823 949.149414,1024.711823 929.050491Z" style="stroke:rgb(25.500488%,41.000366%,88.400269%); stroke-width: 2.500000;stroke-linecap: round;stroke-linejoin: round;stroke-miterlimit: 10.000000;fill: none;"></path>
  <path d="M884.778900 925.910309C884.778900 905.811386,876.793442 886.538071,862.582443 872.327072C848.371445 858.116074,829.098129 850.130615,808.999207 850.130615C788.900284 850.130615,769.626968 858.116074,755.415970 872.327072C741.204971 886.538071,733.219513 905.811386,733.219513 925.910309C733.219513 946.009232,741.204971 965.282547,755.415970 979.493546C769.626968 993.704544,788.900284 1001.690002,808.999207 1001.690002C829.098129 1001.690002,848.371445 993.704544,862.582443 979.493546C876.793442 965.282547,884.778900 946.009232,884.778900 925.910309Z" style="stroke:rgb(25.500488%,41.000366%,88.400269%); stroke-width: 2.500000;stroke-linecap: round;stroke-linejoin: round;stroke-miterlimit: 10.000000;fill: none;"></path>
  <path d="M746.364182 904.149597C746.364182 884.050674,738.378723 864.777359,724.167725 850.566360C709.956726 836.355362,690.683411 828.369904,670.584488 828.369904C650.485565 828.369904,631.212250 836.355362,617.001251 850.566360C602.790253 864.777359,594.804794 884.050674,594.804794 904.149597C594.804794 924.248520,602.790253 943.521835,617.001251 957.732834C631.212250 971.943832,650.485565 979.929291,670.584488 979.929291C690.683411 979.929291,709.956726 971.943832,724.167725 957.732834C738.378723 943.521835,746.364182 924.248520,746.364182 904.149597Z" style="stroke:rgb(25.500488%,41.000366%,88.400269%); stroke-width: 2.500000;stroke-linecap: round;stroke-linejoin: round;stroke-miterlimit: 10.000000;fill: none;"></path>
  <path d="M614.346603 899.426346C614.346603 879.327423,606.361145 860.054108,592.150146 845.843109C577.939148 831.632111,558.665833 823.646652,538.566910 823.646652C518.467987 823.646652,499.194672 831.632111,484.983673 845.843109C470.772675 860.054108,462.787216 879.327423,462.787216 899.426346C462.787216 919.525269,470.772675 938.798584,484.983673 953.009583C499.194672 967.220581,518.467987 975.206039,538.566910 975.206039C558.665833 975.206039,577.939148 967.220581,592.150146 953.009583C606.361145 938.798584,614.346603 919.525269,614.346603 899.426346Z" style="stroke:rgb(25.500488%,41.000366%,88.400269%); stroke-width: 2.500000;stroke-linecap: round;stroke-linejoin: round;stroke-miterlimit: 10.000000;fill: none;"></path>
  <path d="M481.485596 896.260208C481.485596 876.161285,473.500137 856.887970,459.289139 842.676971C445.078140 828.465973,425.804825 820.480515,405.705902 820.480515C385.606979 820.480515,366.333664 828.465973,352.122665 842.676971C337.911667 856.887970,329.926208 876.161285,329.926208 896.260208C329.926208 916.359131,337.911667 935.632446,352.122665 949.843445C366.333664 964.054443,385.606979 972.039902,405.705902 972.039902C425.804825 972.039902,445.078140 964.054443,459.289139 949.843445C473.500137 935.632446,481.485596 916.359131,481.485596 896.260208Z" style="stroke:rgb(25.500488%,41.000366%,88.400269%); stroke-width: 2.500000;stroke-linecap: round;stroke-linejoin: round;stroke-miterlimit: 10.000000;fill: none;"></path>
  <path d="M349.065765 893.820724C349.065765 873.721802,341.080307 854.448486,326.869308 840.237488C312.658310 826.026489,293.384995 818.041031,273.286072 818.041031C253.187149 818.041031,233.913834 826.026489,219.702835 840.237488C205.491837 854.448486,197.506378 873.721802,197.506378 893.820724C197.506378 913.919647,205.491837 933.192963,219.702835 947.403961C233.913834 961.614960,253.187149 969.600418,273.286072 969.600418C293.384995 969.600418,312.658310 961.614960,326.869308 947.403961C341.080307 933.192963,349.065765 913.919647,349.065765 893.820724Z" style="stroke:rgb(25.500488%,41.000366%,88.400269%); stroke-width: 2.500000;stroke-linecap: round;stroke-linejoin: round;stroke-miterlimit: 10.000000;fill: none;"></path>
  <path d="M1363.605377 1025.981033C1363.605377 1005.882111,1355.619919 986.608795,1341.408920 972.397797C1327.197922 958.186798,1307.924606 950.201340,1287.825684 950.201340C1267.726761 950.201340,1248.453445 958.186798,1234.242447 972.397797C1220.031448 986.608795,1212.045990 1005.882111,1212.045990 1025.981033C1212.045990 1046.079956,1220.031448 1065.353271,1234.242447 1079.564270C1248.453445 1093.775269,1267.726761 1101.760727,1287.825684 1101.760727C1307.924606 1101.760727,1327.197922 1093.775269,1341.408920 1079.564270C1355.619919 1065.353271,1363.605377 1046.079956,1363.605377 1025.981033Z" style="stroke:rgb(25.500488%,41.000366%,88.400269%); stroke-width: 2.500000;stroke-linecap: round;stroke-linejoin: round;stroke-miterlimit: 10.000000;fill: none;"></path>
  <path d="M1226.514191 1031.210342C1226.514191 1011.111420,1218.528732 991.838104,1204.317734 977.627106C1190.106735 963.416107,1170.833420 955.430649,1150.734497 955.430649C1130.635574 955.430649,1111.362259 963.416107,1097.151260 977.627106C1082.940262 991.838104,1074.954803 1011.111420,1074.954803 1031.210342C1074.954803 1051.309265,1082.940262 1070.582581,1097.151260 1084.793579C1111.362259 1099.004578,1130.635574 1106.990036,1150.734497 1106.990036C1170.833420 1106.990036,1190.106735 1099.004578,1204.317734 1084.793579C1218.528732 1070.582581,1226.514191 1051.309265,1226.514191 1031.210342Z" style="stroke:rgb(25.500488%,41.000366%,88.400269%); stroke-width: 2.500000;stroke-linecap: round;stroke-linejoin: round;stroke-miterlimit: 10.000000;fill: none;"></path>
  <path d="M1087.710190 1036.582397C1087.710190 1016.483475,1079.724731 997.210159,1065.513733 982.999161C1051.302734 968.788162,1032.029419 960.802704,1011.930496 960.802704C991.831573 960.802704,972.558258 968.788162,958.347260 982.999161C944.136261 997.210159,936.150803 1016.483475,936.150803 1036.582397C936.150803 1056.681320,944.136261 1075.954636,958.347260 1090.165634C972.558258 1104.376633,991.831573 1112.362091,1011.930496 1112.362091C1032.029419 1112.362091,1051.302734 1104.376633,1065.513733 1090.165634C1079.724731 1075.954636,1087.710190 1056.681320,1087.710190 1036.582397Z" style="stroke:rgb(25.500488%,41.000366%,88.400269%); stroke-width: 2.500000;stroke-linecap: round;stroke-linejoin: round;stroke-miterlimit: 10.000000;fill: none;"></path>
  <path d="M948.387131 1032.144623C948.387131 1012.045700,940.401672 992.772385,926.190674 978.561386C911.979675 964.350388,892.706360 956.364929,872.607437 956.364929C852.508514 956.364929,833.235199 964.350388,819.024200 978.561386C804.813202 992.772385,796.827744 1012.045700,796.827744 1032.144623C796.827744 1052.243546,804.813202 1071.516861,819.024200 1085.727859C833.235199 1099.938858,852.508514 1107.924316,872.607437 1107.924316C892.706360 1107.924316,911.979675 1099.938858,926.190674 1085.727859C940.401672 1071.516861,948.387131 1052.243546,948.387131 1032.144623Z" style="stroke:rgb(25.500488%,41.000366%,88.400269%); stroke-width: 2.500000;stroke-linecap: round;stroke-linejoin: round;stroke-miterlimit: 10.000000;fill: none;"></path>
  <path d="M809.245758 1019.363281C809.245758 999.264359,801.260300 979.991043,787.049301 965.780045C772.838303 951.569046,753.564987 943.583588,733.466064 943.583588C713.367142 943.583588,694.093826 951.569046,679.882828 965.780045C665.671829 979.991043,657.686371 999.264359,657.686371 1019.363281C657.686371 1039.462204,665.671829 1058.735519,679.882828 1072.946518C694.093826 1087.157516,713.367142 1095.142975,733.466064 1095.142975C753.564987 1095.142975,772.838303 1087.157516,787.049301 1072.946518C801.260300 1058.735519,809.245758 1039.462204,809.245758 1019.363281Z" style="stroke:rgb(25.500488%,41.000366%,88.400269%); stroke-width: 2.500000;stroke-linecap: round;stroke-linejoin: round;stroke-miterlimit: 10.000000;fill: none;"></path>
  <path d="M677.176270 1014.691925C677.176270 994.593002,669.190811 975.319687,654.979813 961.108688C640.768814 946.897690,621.495499 938.912231,601.396576 938.912231C581.297653 938.912231,562.024338 946.897690,547.813339 961.108688C533.602341 975.319687,525.616882 994.593002,525.616882 1014.691925C525.616882 1034.790848,533.602341 1054.064163,547.813339 1068.275162C562.024338 1082.486160,581.297653 1090.471619,601.396576 1090.471619C621.495499 1090.471619,640.768814 1082.486160,654.979813 1068.275162C669.190811 1054.064163,677.176270 1034.790848,677.176270 1014.691925Z" style="stroke:rgb(25.500488%,41.000366%,88.400269%); stroke-width: 2.500000;stroke-linecap: round;stroke-linejoin: round;stroke-miterlimit: 10.000000;fill: none;"></path>
  <path d="M545.197632 1010.046524C545.197632 989.947601,537.212173 970.674286,523.001175 956.463287C508.790176 942.252289,489.516861 934.266830,469.417938 934.266830C449.319016 934.266830,430.045700 942.252289,415.834702 956.463287C401.623703 970.674286,393.638245 989.947601,393.638245 1010.046524C393.638245 1030.145447,401.623703 1049.418762,415.834702 1063.629761C430.045700 1077.840759,449.319016 1085.826218,469.417938 1085.826218C489.516861 1085.826218,508.790176 1077.840759,523.001175 1063.629761C537.212173 1049.418762,545.197632 1030.145447,545.197632 1010.046524Z" style="stroke:rgb(25.500488%,41.000366%,88.400269%); stroke-width: 2.500000;stroke-linecap: round;stroke-linejoin: round;stroke-miterlimit: 10.000000;fill: none;"></path>
  <path d="M412.751846 1007.658951C412.751846 987.560028,404.766388 968.286713,390.555389 954.075714C376.344391 939.864716,357.071075 931.879257,336.972153 931.879257C316.873230 931.879257,297.599915 939.864716,283.388916 954.075714C269.177917 968.286713,261.192459 987.560028,261.192459 1007.658951C261.192459 1027.757874,269.177917 1047.031189,283.388916 1061.242188C297.599915 1075.453186,316.873230 1083.438644,336.972153 1083.438644C357.071075 1083.438644,376.344391 1075.453186,390.555389 1061.242188C404.766388 1047.031189,412.751846 1027.757874,412.751846 1007.658951Z" style="stroke:rgb(25.500488%,41.000366%,88.400269%); stroke-width: 2.500000;stroke-linecap: round;stroke-linejoin: round;stroke-miterlimit: 10.000000;fill: none;"></path>
  <path d="M282.499008 1008.995483C282.499008 988.896561,274.513550 969.623245,260.302551 955.412247C246.091553 941.201248,226.818237 933.215790,206.719315 933.215790C186.620392 933.215790,167.347076 941.201248,153.136078 955.412247C138.925079 969.623245,130.939621 988.896561,130.939621 1008.995483C130.939621 1029.094406,138.925079 1048.367722,153.136078 1062.578720C167.347076 1076.789719,186.620392 1084.775177,206.719315 1084.775177C226.818237 1084.775177,246.091553 1076.789719,260.302551 1062.578720C274.513550 1048.367722,282.499008 1029.094406,282.499008 1008.995483Z" style="stroke:rgb(25.500488%,41.000366%,88.400269%); stroke-width: 2.500000;stroke-linecap: round;stroke-linejoin: round;stroke-miterlimit: 10.000000;fill: none;"></path>
  <path d="M1427.187653 1132.656525C1427.187653 1112.557602,1419.202194 1093.284286,1404.991196 1079.073288C1390.780197 1064.862289,1371.506882 1056.876831,1351.407959 1056.876831C1331.309036 1056.876831,1312.035721 1064.862289,1297.824722 1079.073288C1283.613724 1093.284286,1275.628265 1112.557602,1275.628265 1132.656525C1275.628265 1152.755447,1283.613724 1172.028763,1297.824722 1186.239761C1312.035721 1200.450760,1331.309036 1208.436218,1351.407959 1208.436218C1371.506882 1208.436218,1390.780197 1200.450760,1404.991196 1186.239761C1419.202194 1172.028763,1427.187653 1152.755447,1427.187653 1132.656525Z" style="stroke:rgb(25.500488%,41.000366%,88.400269%); stroke-width: 2.500000;stroke-linecap: round;stroke-linejoin: round;stroke-miterlimit: 10.000000;fill: none;"></path>
  <path d="M1290.758240 1136.380630C1290.758240 1116.281708,1282.772781 1097.008392,1268.561783 1082.797394C1254.350784 1068.586395,1235.077469 1060.600937,1214.978546 1060.600937C1194.879623 1060.600937,1175.606308 1068.586395,1161.395309 1082.797394C1147.184311 1097.008392,1139.198853 1116.281708,1139.198853 1136.380630C1139.198853 1156.479553,1147.184311 1175.752869,1161.395309 1189.963867C1175.606308 1204.174866,1194.879623 1212.160324,1214.978546 1212.160324C1235.077469 1212.160324,1254.350784 1204.174866,1268.561783 1189.963867C1282.772781 1175.752869,1290.758240 1156.479553,1290.758240 1136.380630Z" style="stroke:rgb(25.500488%,41.000366%,88.400269%); stroke-width: 2.500000;stroke-linecap: round;stroke-linejoin: round;stroke-miterlimit: 10.000000;fill: none;"></path>
  <path d="M1152.771729 1139.793304C1152.771729 1119.694382,1144.786270 1100.421066,1130.575272 1086.210068C1116.364273 1071.999069,1097.090958 1064.013611,1076.992035 1064.013611C1056.893112 1064.013611,1037.619797 1071.999069,1023.408798 1086.210068C1009.197800 1100.421066,1001.212341 1119.694382,1001.212341 1139.793304C1001.212341 1159.892227,1009.197800 1179.165543,1023.408798 1193.376541C1037.619797 1207.587540,1056.893112 1215.572998,1076.992035 1215.572998C1097.090958 1215.572998,1116.364273 1207.587540,1130.575272 1193.376541C1144.786270 1179.165543,1152.771729 1159.892227,1152.771729 1139.793304Z" style="stroke:rgb(25.500488%,41.000366%,88.400269%); stroke-width: 2.500000;stroke-linecap: round;stroke-linejoin: round;stroke-miterlimit: 10.000000;fill: none;"></path>
  <path d="M1014.499725 1139.858185C1014.499725 1119.759262,1006.514267 1100.485947,992.303268 1086.274948C978.092270 1072.063950,958.818954 1064.078491,938.720032 1064.078491C918.621109 1064.078491,899.347794 1072.063950,885.136795 1086.274948C870.925797 1100.485947,862.940338 1119.759262,862.940338 1139.858185C862.940338 1159.957108,870.925797 1179.230423,885.136795 1193.441422C899.347794 1207.652420,918.621109 1215.637878,938.720032 1215.637878C958.818954 1215.637878,978.092270 1207.652420,992.303268 1193.441422C1006.514267 1179.230423,1014.499725 1159.957108,1014.499725 1139.858185Z" style="stroke:rgb(25.500488%,41.000366%,88.400269%); stroke-width: 2.500000;stroke-linecap: round;stroke-linejoin: round;stroke-miterlimit: 10.000000;fill: none;"></path>
  <path d="M875.929291 1130.800964C875.929291 1110.702042,867.943832 1091.428726,853.732834 1077.217728C839.521835 1063.006729,820.248520 1055.021271,800.149597 1055.021271C780.050674 1055.021271,760.777359 1063.006729,746.566360 1077.217728C732.355362 1091.428726,724.369904 1110.702042,724.369904 1130.800964C724.369904 1150.899887,732.355362 1170.173203,746.566360 1184.384201C760.777359 1198.595200,780.050674 1206.580658,800.149597 1206.580658C820.248520 1206.580658,839.521835 1198.595200,853.732834 1184.384201C867.943832 1170.173203,875.929291 1150.899887,875.929291 1130.800964Z" style="stroke:rgb(25.500488%,41.000366%,88.400269%); stroke-width: 2.500000;stroke-linecap: round;stroke-linejoin: round;stroke-miterlimit: 10.000000;fill: none;"></path>
  <path d="M741.705795 1129.905609C741.705795 1109.806686,733.720337 1090.533371,719.509338 1076.322372C705.298340 1062.111374,686.025024 1054.125916,665.926102 1054.125916C645.827179 1054.125916,626.553864 1062.111374,612.342865 1076.322372C598.131866 1090.533371,590.146408 1109.806686,590.146408 1129.905609C590.146408 1150.004532,598.131866 1169.277847,612.342865 1183.488846C626.553864 1197.699844,645.827179 1205.685303,665.926102 1205.685303C686.025024 1205.685303,705.298340 1197.699844,719.509338 1183.488846C733.720337 1169.277847,741.705795 1150.004532,741.705795 1129.905609Z" style="stroke:rgb(25.500488%,41.000366%,88.400269%); stroke-width: 2.500000;stroke-linecap: round;stroke-linejoin: round;stroke-miterlimit: 10.000000;fill: none;"></path>
  <path d="M609.688232 1125.325089C609.688232 1105.226166,601.702774 1085.952850,587.491776 1071.741852C573.280777 1057.530853,554.007462 1049.545395,533.908539 1049.545395C513.809616 1049.545395,494.536301 1057.530853,480.325302 1071.741852C466.114304 1085.952850,458.128845 1105.226166,458.128845 1125.325089C458.128845 1145.424011,466.114304 1164.697327,480.325302 1178.908325C494.536301 1193.119324,513.809616 1201.104782,533.908539 1201.104782C554.007462 1201.104782,573.280777 1193.119324,587.491776 1178.908325C601.702774 1164.697327,609.688232 1145.424011,609.688232 1125.325089Z" style="stroke:rgb(25.500488%,41.000366%,88.400269%); stroke-width: 2.500000;stroke-linecap: round;stroke-linejoin: round;stroke-miterlimit: 10.000000;fill: none;"></path>
  <path d="M478.111832 1121.484207C478.111832 1101.385284,470.126373 1082.111969,455.915375 1067.900970C441.704376 1053.689972,422.431061 1045.704514,402.332138 1045.704514C382.233215 1045.704514,362.959900 1053.689972,348.748901 1067.900970C334.537903 1082.111969,326.552444 1101.385284,326.552444 1121.484207C326.552444 1141.583130,334.537903 1160.856445,348.748901 1175.067444C362.959900 1189.278442,382.233215 1197.263901,402.332138 1197.263901C422.431061 1197.263901,441.704376 1189.278442,455.915375 1175.067444C470.126373 1160.856445,478.111832 1141.583130,478.111832 1121.484207Z" style="stroke:rgb(25.500488%,41.000366%,88.400269%); stroke-width: 2.500000;stroke-linecap: round;stroke-linejoin: round;stroke-miterlimit: 10.000000;fill: none;"></path>
  <path d="M347.833038 1122.872635C347.833038 1102.773712,339.847580 1083.500397,325.636581 1069.289398C311.425583 1055.078400,292.152267 1047.092941,272.053345 1047.092941C251.954422 1047.092941,232.681107 1055.078400,218.470108 1069.289398C204.259109 1083.500397,196.273651 1102.773712,196.273651 1122.872635C196.273651 1142.971558,204.259109 1162.244873,218.470108 1176.455872C232.681107 1190.666870,251.954422 1198.652328,272.053345 1198.652328C292.152267 1198.652328,311.425583 1190.666870,325.636581 1176.455872C339.847580 1162.244873,347.833038 1142.971558,347.833038 1122.872635Z" style="stroke:rgb(25.500488%,41.000366%,88.400269%); stroke-width: 2.500000;stroke-linecap: round;stroke-linejoin: round;stroke-miterlimit: 10.000000;fill: none;"></path>
  <path d="M217.619125 1124.274048C217.619125 1104.175125,209.633667 1084.901810,195.422668 1070.690811C181.211670 1056.479813,161.938354 1048.494354,141.839432 1048.494354C121.740509 1048.494354,102.467194 1056.479813,88.256195 1070.690811C74.045197 1084.901810,66.059738 1104.175125,66.059738 1124.274048C66.059738 1144.372971,74.045197 1163.646286,88.256195 1177.857285C102.467194 1192.068283,121.740509 1200.053741,141.839432 1200.053741C161.938354 1200.053741,181.211670 1192.068283,195.422668 1177.857285C209.633667 1163.646286,217.619125 1144.372971,217.619125 1124.274048Z" style="stroke:rgb(25.500488%,41.000366%,88.400269%); stroke-width: 2.500000;stroke-linecap: round;stroke-linejoin: round;stroke-miterlimit: 10.000000;fill: none;"></path>
  <path d="M674.178818 1240.538788C674.178818 1220.439865,666.193359 1201.166550,651.982361 1186.955551C637.771362 1172.744553,618.498047 1164.759094,598.399124 1164.759094C578.300201 1164.759094,559.026886 1172.744553,544.815887 1186.955551C530.604889 1201.166550,522.619431 1220.439865,522.619431 1240.538788C522.619431 1260.637711,530.604889 1279.911026,544.815887 1294.122025C559.026886 1308.333023,578.300201 1316.318481,598.399124 1316.318481C618.498047 1316.318481,637.771362 1308.333023,651.982361 1294.122025C666.193359 1279.911026,674.178818 1260.637711,674.178818 1240.538788Z" style="stroke:rgb(25.500488%,41.000366%,88.400269%); stroke-width: 2.500000;stroke-linecap: round;stroke-linejoin: round;stroke-miterlimit: 10.000000;fill: none;"></path>
  <path d="M542.576477 1236.762772C542.576477 1216.663849,534.591019 1197.390533,520.380020 1183.179535C506.169022 1168.968536,486.895706 1160.983078,466.796783 1160.983078C446.697861 1160.983078,427.424545 1168.968536,413.213547 1183.179535C399.002548 1197.390533,391.017090 1216.663849,391.017090 1236.762772C391.017090 1256.861694,399.002548 1276.135010,413.213547 1290.346008C427.424545 1304.557007,446.697861 1312.542465,466.796783 1312.542465C486.895706 1312.542465,506.169022 1304.557007,520.380020 1290.346008C534.591019 1276.135010,542.576477 1256.861694,542.576477 1236.762772Z" style="stroke:rgb(25.500488%,41.000366%,88.400269%); stroke-width: 2.500000;stroke-linecap: round;stroke-linejoin: round;stroke-miterlimit: 10.000000;fill: none;"></path>
  <path d="M282.927216 1238.138229C282.927216 1218.039307,274.941757 1198.765991,260.730759 1184.554993C246.519760 1170.343994,227.246445 1162.358536,207.147522 1162.358536C187.048599 1162.358536,167.775284 1170.343994,153.564285 1184.554993C139.353287 1198.765991,131.367828 1218.039307,131.367828 1238.138229C131.367828 1258.237152,139.353287 1277.510468,153.564285 1291.721466C167.775284 1305.932465,187.048599 1313.917923,207.147522 1313.917923C227.246445 1313.917923,246.519760 1305.932465,260.730759 1291.721466C274.941757 1277.510468,282.927216 1258.237152,282.927216 1238.138229Z" style="stroke:rgb(25.500488%,41.000366%,88.400269%); stroke-width: 2.500000;stroke-linecap: round;stroke-linejoin: round;stroke-miterlimit: 10.000000;fill: none;"></path>
  <path d="M151.856888 1238.099304C151.856888 1218.000381,143.871429 1198.727066,129.660431 1184.516068C115.449432 1170.305069,96.176117 1162.319611,76.077194 1162.319611C55.978271 1162.319611,36.704956 1170.305069,22.493958 1184.516068C8.282959 1198.727066,0.297501 1218.000381,0.297501 1238.099304C0.297501 1258.198227,8.282959 1277.471542,22.493958 1291.682541C36.704956 1305.893539,55.978271 1313.878998,76.077194 1313.878998C96.176117 1313.878998,115.449432 1305.893539,129.660431 1291.682541C143.871429 1277.471542,151.856888 1258.198227,151.856888 1238.099304Z" style="stroke:rgb(25.500488%,41.000366%,88.400269%); stroke-width: 2.500000;stroke-linecap: round;stroke-linejoin: round;stroke-miterlimit: 10.000000;fill: none;"></path>
  <path d="M993.452698 390.249069C993.452698 370.150146,985.467239 350.876831,971.256241 336.665833C957.045242 322.454834,937.771927 314.469376,917.673004 314.469376C897.574081 314.469376,878.300766 322.454834,864.089767 336.665833C849.878769 350.876831,841.893311 370.150146,841.893311 390.249069C841.893311 410.347992,849.878769 429.621307,864.089767 443.832306C878.300766 458.043304,897.574081 466.028763,917.673004 466.028763C937.771927 466.028763,957.045242 458.043304,971.256241 443.832306C985.467239 429.621307,993.452698 410.347992,993.452698 390.249069Z" style="stroke:rgb(25.500488%,41.000366%,88.400269%); stroke-width: 2.500000;stroke-linecap: round;stroke-linejoin: round;stroke-miterlimit: 10.000000;fill: none;"></path>
  <path d="M808.363388 1241.343292C808.363388 1221.244370,800.377930 1201.971054,786.166931 1187.760056C771.955933 1173.549057,752.682617 1165.563599,732.583694 1165.563599C712.484772 1165.563599,693.211456 1173.549057,679.000458 1187.760056C664.789459 1201.971054,656.804001 1221.244370,656.804001 1241.343292C656.804001 1261.442215,664.789459 1280.715530,679.000458 1294.926529C693.211456 1309.137527,712.484772 1317.122986,732.583694 1317.122986C752.682617 1317.122986,771.955933 1309.137527,786.166931 1294.926529C800.377930 1280.715530,808.363388 1261.442215,808.363388 1241.343292Z" style="stroke:rgb(25.500488%,41.000366%,88.400269%); stroke-width: 2.500000;stroke-linecap: round;stroke-linejoin: round;stroke-miterlimit: 10.000000;fill: none;"></path>
  <path d="M1219.040024 1245.093353C1219.040024 1224.994431,1211.054565 1205.721115,1196.843567 1191.510117C1182.632568 1177.299118,1163.359253 1169.313660,1143.260330 1169.313660C1123.161407 1169.313660,1103.888092 1177.299118,1089.677094 1191.510117C1075.466095 1205.721115,1067.480637 1224.994431,1067.480637 1245.093353C1067.480637 1265.192276,1075.466095 1284.465591,1089.677094 1298.676590C1103.888092 1312.887589,1123.161407 1320.873047,1143.260330 1320.873047C1163.359253 1320.873047,1182.632568 1312.887589,1196.843567 1298.676590C1211.054565 1284.465591,1219.040024 1265.192276,1219.040024 1245.093353Z" style="stroke:rgb(25.500488%,41.000366%,88.400269%); stroke-width: 2.500000;stroke-linecap: round;stroke-linejoin: round;stroke-miterlimit: 10.000000;fill: none;"></path>
  <path d="M1123.446014 604.443497C1123.446014 584.344574,1115.460556 565.071259,1101.249557 550.860260C1087.038559 536.649261,1067.765244 528.663803,1047.666321 528.663803C1027.567398 528.663803,1008.294083 536.649261,994.083084 550.860260C979.872086 565.071259,971.886627 584.344574,971.886627 604.443497C971.886627 624.542419,979.872086 643.815735,994.083084 658.026733C1008.294083 672.237732,1027.567398 680.223190,1047.666321 680.223190C1067.765244 680.223190,1087.038559 672.237732,1101.249557 658.026733C1115.460556 643.815735,1123.446014 624.542419,1123.446014 604.443497Z" style="stroke:rgb(25.500488%,41.000366%,88.400269%); stroke-width: 2.500000;stroke-linecap: round;stroke-linejoin: round;stroke-miterlimit: 10.000000;fill: none;"></path>
  <path d="M671.557678 313.197723C671.557678 293.098801,663.572220 273.825485,649.361221 259.614487C635.150223 245.403488,615.876907 237.418030,595.777985 237.418030C575.679062 237.418030,556.405746 245.403488,542.194748 259.614487C527.983749 273.825485,519.998291 293.098801,519.998291 313.197723C519.998291 333.296646,527.983749 352.569962,542.194748 366.780960C556.405746 380.991959,575.679062 388.977417,595.777985 388.977417C615.876907 388.977417,635.150223 380.991959,649.361221 366.780960C663.572220 352.569962,671.557678 333.296646,671.557678 313.197723Z" style="stroke:rgb(25.500488%,41.000366%,88.400269%); stroke-width: 2.500000;stroke-linecap: round;stroke-linejoin: round;stroke-miterlimit: 10.000000;fill: none;"></path>
  <path d="M413.167084 1236.697891C413.167084 1216.598969,405.181625 1197.325653,390.970627 1183.114655C376.759628 1168.903656,357.486313 1160.918198,337.387390 1160.918198C317.288467 1160.918198,298.015152 1168.903656,283.804153 1183.114655C269.593155 1197.325653,261.607697 1216.598969,261.607697 1236.697891C261.607697 1256.796814,269.593155 1276.070129,283.804153 1290.281128C298.015152 1304.492126,317.288467 1312.477585,337.387390 1312.477585C357.486313 1312.477585,376.759628 1304.492126,390.970627 1290.281128C405.181625 1276.070129,413.167084 1256.796814,413.167084 1236.697891Z" style="stroke:rgb(25.500488%,41.000366%,88.400269%); stroke-width: 2.500000;stroke-linecap: round;stroke-linejoin: round;stroke-miterlimit: 10.000000;fill: none;"></path>
  <path d="M933.010605 289.957748C933.010605 269.858826,925.025146 250.585510,910.814148 236.374512C896.603149 222.163513,877.329834 214.178055,857.230911 214.178055C837.131989 214.178055,817.858673 222.163513,803.647675 236.374512C789.436676 250.585510,781.451218 269.858826,781.451218 289.957748C781.451218 310.056671,789.436676 329.329987,803.647675 343.540985C817.858673 357.751984,837.131989 365.737442,857.230911 365.737442C877.329834 365.737442,896.603149 357.751984,910.814148 343.540985C925.025146 329.329987,933.010605 310.056671,933.010605 289.957748Z" style="stroke:rgb(25.500488%,41.000366%,88.400269%); stroke-width: 2.500000;stroke-linecap: round;stroke-linejoin: round;stroke-miterlimit: 10.000000;fill: none;"></path>
  <path d="M1356.377762 1243.185883C1356.377762 1223.086960,1348.392303 1203.813644,1334.181305 1189.602646C1319.970306 1175.391647,1300.696991 1167.406189,1280.598068 1167.406189C1260.499146 1167.406189,1241.225830 1175.391647,1227.014832 1189.602646C1212.803833 1203.813644,1204.818375 1223.086960,1204.818375 1243.185883C1204.818375 1263.284805,1212.803833 1282.558121,1227.014832 1296.769119C1241.225830 1310.980118,1260.499146 1318.965576,1280.598068 1318.965576C1300.696991 1318.965576,1319.970306 1310.980118,1334.181305 1296.769119C1348.392303 1282.558121,1356.377762 1263.284805,1356.377762 1243.185883Z" style="stroke:rgb(25.500488%,41.000366%,88.400269%); stroke-width: 2.500000;stroke-linecap: round;stroke-linejoin: round;stroke-miterlimit: 10.000000;fill: none;"></path>
  <path d="M877.473434 184.800446C877.473434 164.701523,869.487976 145.428207,855.276978 131.217209C841.065979 117.006210,821.792664 109.020752,801.693741 109.020752C781.594818 109.020752,762.321503 117.006210,748.110504 131.217209C733.899506 145.428207,725.914047 164.701523,725.914047 184.800446C725.914047 204.899368,733.899506 224.172684,748.110504 238.383682C762.321503 252.594681,781.594818 260.580139,801.693741 260.580139C821.792664 260.580139,841.065979 252.594681,855.276978 238.383682C869.487976 224.172684,877.473434 204.899368,877.473434 184.800446Z" style="stroke:rgb(25.500488%,41.000366%,88.400269%); stroke-width: 2.500000;stroke-linecap: round;stroke-linejoin: round;stroke-miterlimit: 10.000000;fill: none;"></path>
  <path d="M1491.911819 1241.369247C1491.911819 1221.270325,1483.926361 1201.997009,1469.715363 1187.786011C1455.504364 1173.575012,1436.231049 1165.589554,1416.132126 1165.589554C1396.033203 1165.589554,1376.759888 1173.575012,1362.548889 1187.786011C1348.337891 1201.997009,1340.352432 1221.270325,1340.352432 1241.369247C1340.352432 1261.468170,1348.337891 1280.741486,1362.548889 1294.952484C1376.759888 1309.163483,1396.033203 1317.148941,1416.132126 1317.148941C1436.231049 1317.148941,1455.504364 1309.163483,1469.715363 1294.952484C1483.926361 1280.741486,1491.911819 1261.468170,1491.911819 1241.369247Z" style="stroke:rgb(25.500488%,41.000366%,88.400269%); stroke-width: 2.500000;stroke-linecap: round;stroke-linejoin: round;stroke-miterlimit: 10.000000;fill: none;"></path>
  <path d="M746.519882 193.948517C746.519882 173.849594,738.534424 154.576279,724.323425 140.365280C710.112427 126.154282,690.839111 118.168823,670.740189 118.168823C650.641266 118.168823,631.367950 126.154282,617.156952 140.365280C602.945953 154.576279,594.960495 173.849594,594.960495 193.948517C594.960495 214.047440,602.945953 233.320755,617.156952 247.531754C631.367950 261.742752,650.641266 269.728210,670.740189 269.728210C690.839111 269.728210,710.112427 261.742752,724.323425 247.531754C738.534424 233.320755,746.519882 214.047440,746.519882 193.948517Z" style="stroke:rgb(25.500488%,41.000366%,88.400269%); stroke-width: 2.500000;stroke-linecap: round;stroke-linejoin: round;stroke-miterlimit: 10.000000;fill: none;"></path>
  <path d="M943.015076 1241.434128C943.015076 1221.335205,935.029617 1202.061890,920.818619 1187.850891C906.607620 1173.639893,887.334305 1165.654434,867.235382 1165.654434C847.136459 1165.654434,827.863144 1173.639893,813.652145 1187.850891C799.441147 1202.061890,791.455688 1221.335205,791.455688 1241.434128C791.455688 1261.533051,799.441147 1280.806366,813.652145 1295.017365C827.863144 1309.228363,847.136459 1317.213821,867.235382 1317.213821C887.334305 1317.213821,906.607620 1309.228363,920.818619 1295.017365C935.029617 1280.806366,943.015076 1261.533051,943.015076 1241.434128Z" style="stroke:rgb(25.500488%,41.000366%,88.400269%); stroke-width: 2.500000;stroke-linecap: round;stroke-linejoin: round;stroke-miterlimit: 10.000000;fill: none;"></path>
  <path d="M602.875839 437.377808C602.875839 417.278885,594.890381 398.005569,580.679382 383.794571C566.468384 369.583572,547.195068 361.598114,527.096146 361.598114C506.997223 361.598114,487.723907 369.583572,473.512909 383.794571C459.301910 398.005569,451.316452 417.278885,451.316452 437.377808C451.316452 457.476730,459.301910 476.750046,473.512909 490.961044C487.723907 505.172043,506.997223 513.157501,527.096146 513.157501C547.195068 513.157501,566.468384 505.172043,580.679382 490.961044C594.890381 476.750046,602.875839 457.476730,602.875839 437.377808Z" style="stroke:rgb(25.500488%,41.000366%,88.400269%); stroke-width: 2.500000;stroke-linecap: round;stroke-linejoin: round;stroke-miterlimit: 10.000000;fill: none;"></path>
  <path d="M1080.145187 1246.598557C1080.145187 1226.499634,1072.159729 1207.226318,1057.948730 1193.015320C1043.737732 1178.804321,1024.464417 1170.818863,1004.365494 1170.818863C984.266571 1170.818863,964.993256 1178.804321,950.782257 1193.015320C936.571259 1207.226318,928.585800 1226.499634,928.585800 1246.598557C928.585800 1266.697479,936.571259 1285.970795,950.782257 1300.181793C964.993256 1314.392792,984.266571 1322.378250,1004.365494 1322.378250C1024.464417 1322.378250,1043.737732 1314.392792,1057.948730 1300.181793C1072.159729 1285.970795,1080.145187 1266.697479,1080.145187 1246.598557Z" style="stroke:rgb(25.500488%,41.000366%,88.400269%); stroke-width: 2.500000;stroke-linecap: round;stroke-linejoin: round;stroke-miterlimit: 10.000000;fill: none;"></path>
  <path d="M817.498474 76.230453C817.498474 56.131531,809.513016 36.858215,795.302017 22.647217C781.091019 8.436218,761.817703 0.450760,741.718781 0.450760C721.619858 0.450760,702.346542 8.436218,688.135544 22.647217C673.924545 36.858215,665.939087 56.131531,665.939087 76.230453C665.939087 96.329376,673.924545 115.602692,688.135544 129.813690C702.346542 144.024689,721.619858 152.010147,741.718781 152.010147C761.817703 152.010147,781.091019 144.024689,795.302017 129.813690C809.513016 115.602692,817.498474 96.329376,817.498474 76.230453Z" style="stroke:rgb(25.500488%,41.000366%,88.400269%); stroke-width: 2.500000;stroke-linecap: round;stroke-linejoin: round;stroke-miterlimit: 10.000000;fill: none;"></path>
</svg>
