<?xml version="1.0"?>
<!-- Created by MetaPost 2.00 on 2022.03.02:1201 -->
<svg version="1.1" xmlns="http://www.w3.org/2000/svg" xmlns:xlink="http://www.w3.org/1999/xlink" width="1664.878174" height="1619.838577" viewBox="0 0 1664.878174 1619.838577">
<!-- Original BoundingBox: -828.805817 -761.200989 836.072357 858.637589 -->
  <path d="M828.000000 7.606476L19.233398 595.210541L328.152451 1545.986221L1327.847549 1545.986221L1636.766602 595.210541L828.000000 7.606476Z" style="fill: rgb(100.000000%,100.000000%,100.000000%);stroke: none;"></path>
  <path d="M828.000000 7.606476L19.233398 595.210541" style="stroke:rgb(0.000000%,0.000000%,0.000000%); stroke-width: 2.500000;stroke-linecap: round;stroke-linejoin: round;stroke-miterlimit: 10.000000;fill: none;"></path>
  <path d="M19.233398 595.210541L328.152451 1545.986221" style="stroke:rgb(0.000000%,0.000000%,0.000000%); stroke-width: 2.500000;stroke-linecap: round;stroke-linejoin: round;stroke-miterlimit: 10.000000;fill: none;"></path>
  <path d="M328.152451 1545.986221L1327.847549 1545.986221" style="stroke:rgb(0.000000%,0.000000%,0.000000%); stroke-width: 2.500000;stroke-linecap: round;stroke-linejoin: round;stroke-miterlimit: 10.000000;fill: none;"></path>
  <path d="M1327.847549 1545.986221L1636.766602 595.210541" style="stroke:rgb(0.000000%,0.000000%,0.000000%); stroke-width: 2.500000;stroke-linecap: round;stroke-linejoin: round;stroke-miterlimit: 10.000000;fill: none;"></path>
  <path d="M1636.766602 595.210541L828.000000 7.606476" style="stroke:rgb(0.000000%,0.000000%,0.000000%); stroke-width: 2.500000;stroke-linecap: round;stroke-linejoin: round;stroke-miterlimit: 10.000000;fill: none;"></path>
  <path d="M1387.277527 1473.619202C1387.277527 1450.945969,1378.269287 1429.204086,1362.238098 1413.172897C1346.206909 1397.141708,1324.465027 1388.133469,1301.791794 1388.133469C1279.118561 1388.133469,1257.376678 1397.141708,1241.345490 1413.172897C1225.314301 1429.204086,1216.306061 1450.945969,1216.306061 1473.619202C1216.306061 1496.292435,1225.314301 1518.034317,1241.345490 1534.065506C1257.376678 1550.096695,1279.118561 1559.104935,1301.791794 1559.104935C1324.465027 1559.104935,1346.206909 1550.096695,1362.238098 1534.065506C1378.269287 1518.034317,1387.277527 1496.292435,1387.277527 1473.619202Z" style="stroke:rgb(25.500488%,41.000366%,88.400269%); stroke-width: 2.500000;stroke-linecap: round;stroke-linejoin: round;stroke-miterlimit: 10.000000;fill: none;"></path>
  <path d="M1432.174393 1337.721817C1432.174393 1315.048584,1423.166153 1293.306702,1407.134964 1277.275513C1391.103775 1261.244324,1369.361893 1252.236084,1346.688660 1252.236084C1324.015427 1252.236084,1302.273544 1261.244324,1286.242355 1277.275513C1270.211166 1293.306702,1261.202927 1315.048584,1261.202927 1337.721817C1261.202927 1360.395050,1270.211166 1382.136932,1286.242355 1398.168121C1302.273544 1414.199310,1324.015427 1423.207550,1346.688660 1423.207550C1369.361893 1423.207550,1391.103775 1414.199310,1407.134964 1398.168121C1423.166153 1382.136932,1432.174393 1360.395050,1432.174393 1337.721817Z" style="stroke:rgb(25.500488%,41.000366%,88.400269%); stroke-width: 2.500000;stroke-linecap: round;stroke-linejoin: round;stroke-miterlimit: 10.000000;fill: none;"></path>
  <path d="M1480.120621 1200.319214C1480.120621 1177.645981,1471.112381 1155.904099,1455.081192 1139.872910C1439.050003 1123.841721,1417.308121 1114.833481,1394.634888 1114.833481C1371.961655 1114.833481,1350.219772 1123.841721,1334.188583 1139.872910C1318.157394 1155.904099,1309.149155 1177.645981,1309.149155 1200.319214C1309.149155 1222.992447,1318.157394 1244.734329,1334.188583 1260.765518C1350.219772 1276.796707,1371.961655 1285.804947,1394.634888 1285.804947C1417.308121 1285.804947,1439.050003 1276.796707,1455.081192 1260.765518C1471.112381 1244.734329,1480.120621 1222.992447,1480.120621 1200.319214Z" style="stroke:rgb(25.500488%,41.000366%,88.400269%); stroke-width: 2.500000;stroke-linecap: round;stroke-linejoin: round;stroke-miterlimit: 10.000000;fill: none;"></path>
  <path d="M1522.655869 1060.814499C1522.655869 1038.141266,1513.647629 1016.399384,1497.616440 1000.368195C1481.585251 984.337006,1459.843369 975.328766,1437.170135 975.328766C1414.496902 975.328766,1392.755020 984.337006,1376.723831 1000.368195C1360.692642 1016.399384,1351.684402 1038.141266,1351.684402 1060.814499C1351.684402 1083.487732,1360.692642 1105.229614,1376.723831 1121.260803C1392.755020 1137.291992,1414.496902 1146.300232,1437.170135 1146.300232C1459.843369 1146.300232,1481.585251 1137.291992,1497.616440 1121.260803C1513.647629 1105.229614,1522.655869 1083.487732,1522.655869 1060.814499Z" style="stroke:rgb(25.500488%,41.000366%,88.400269%); stroke-width: 2.500000;stroke-linecap: round;stroke-linejoin: round;stroke-miterlimit: 10.000000;fill: none;"></path>
  <path d="M1569.771637 923.061539C1569.771637 900.388306,1560.763397 878.646423,1544.732208 862.615234C1528.701019 846.584045,1506.959137 837.575806,1484.285904 837.575806C1461.612671 837.575806,1439.870789 846.584045,1423.839600 862.615234C1407.808411 878.646423,1398.800171 900.388306,1398.800171 923.061539C1398.800171 945.734772,1407.808411 967.476654,1423.839600 983.507843C1439.870789 999.539032,1461.612671 1008.547272,1484.285904 1008.547272C1506.959137 1008.547272,1528.701019 999.539032,1544.732208 983.507843C1560.763397 967.476654,1569.771637 945.734772,1569.771637 923.061539Z" style="stroke:rgb(25.500488%,41.000366%,88.400269%); stroke-width: 2.500000;stroke-linecap: round;stroke-linejoin: round;stroke-miterlimit: 10.000000;fill: none;"></path>
  <path d="M1621.571732 782.103516C1621.571732 759.430283,1612.563492 737.688400,1596.532303 721.657211C1580.501114 705.626022,1558.759232 696.617783,1536.085999 696.617783C1513.412766 696.617783,1491.670883 705.626022,1475.639694 721.657211C1459.608505 737.688400,1450.600266 759.430283,1450.600266 782.103516C1450.600266 804.776749,1459.608505 826.518631,1475.639694 842.549820C1491.670883 858.581009,1513.412766 867.589249,1536.085999 867.589249C1558.759232 867.589249,1580.501114 858.581009,1596.532303 842.549820C1612.563492 826.518631,1621.571732 804.776749,1621.571732 782.103516Z" style="stroke:rgb(25.500488%,41.000366%,88.400269%); stroke-width: 2.500000;stroke-linecap: round;stroke-linejoin: round;stroke-miterlimit: 10.000000;fill: none;"></path>
  <path d="M1662.822357 637.551147C1662.822357 614.877914,1653.814117 593.136032,1637.782928 577.104843C1621.751740 561.073654,1600.009857 552.065414,1577.336624 552.065414C1554.663391 552.065414,1532.921509 561.073654,1516.890320 577.104843C1500.859131 593.136032,1491.850891 614.877914,1491.850891 637.551147C1491.850891 660.224380,1500.859131 681.966263,1516.890320 697.997452C1532.921509 714.028641,1554.663391 723.036880,1577.336624 723.036880C1600.009857 723.036880,1621.751740 714.028641,1637.782928 697.997452C1653.814117 681.966263,1662.822357 660.224380,1662.822357 637.551147Z" style="stroke:rgb(25.500488%,41.000366%,88.400269%); stroke-width: 2.500000;stroke-linecap: round;stroke-linejoin: round;stroke-miterlimit: 10.000000;fill: none;"></path>
  <path d="M1272.427170 1495.937881C1272.427170 1473.264648,1263.418930 1451.522766,1247.387741 1435.491577C1231.356552 1419.460388,1209.614670 1410.452148,1186.941437 1410.452148C1164.268204 1410.452148,1142.526321 1419.460388,1126.495132 1435.491577C1110.463943 1451.522766,1101.455704 1473.264648,1101.455704 1495.937881C1101.455704 1518.611115,1110.463943 1540.352997,1126.495132 1556.384186C1142.526321 1572.415375,1164.268204 1581.423615,1186.941437 1581.423615C1209.614670 1581.423615,1231.356552 1572.415375,1247.387741 1556.384186C1263.418930 1540.352997,1272.427170 1518.611115,1272.427170 1495.937881Z" style="stroke:rgb(25.500488%,41.000366%,88.400269%); stroke-width: 2.500000;stroke-linecap: round;stroke-linejoin: round;stroke-miterlimit: 10.000000;fill: none;"></path>
  <path d="M1281.990463 1371.835648C1281.990463 1349.162415,1272.982224 1327.420532,1256.951035 1311.389343C1240.919846 1295.358154,1219.177963 1286.349915,1196.504730 1286.349915C1173.831497 1286.349915,1152.089615 1295.358154,1136.058426 1311.389343C1120.027237 1327.420532,1111.018997 1349.162415,1111.018997 1371.835648C1111.018997 1394.508881,1120.027237 1416.250763,1136.058426 1432.281952C1152.089615 1448.313141,1173.831497 1457.321381,1196.504730 1457.321381C1219.177963 1457.321381,1240.919846 1448.313141,1256.951035 1432.281952C1272.982224 1416.250763,1281.990463 1394.508881,1281.990463 1371.835648Z" style="stroke:rgb(25.500488%,41.000366%,88.400269%); stroke-width: 2.500000;stroke-linecap: round;stroke-linejoin: round;stroke-miterlimit: 10.000000;fill: none;"></path>
  <path d="M1330.455734 1235.081848C1330.455734 1212.408615,1321.447495 1190.666733,1305.416306 1174.635544C1289.385117 1158.604355,1267.643234 1149.596115,1244.970001 1149.596115C1222.296768 1149.596115,1200.554886 1158.604355,1184.523697 1174.635544C1168.492508 1190.666733,1159.484268 1212.408615,1159.484268 1235.081848C1159.484268 1257.755081,1168.492508 1279.496964,1184.523697 1295.528152C1200.554886 1311.559341,1222.296768 1320.567581,1244.970001 1320.567581C1267.643234 1320.567581,1289.385117 1311.559341,1305.416306 1295.528152C1321.447495 1279.496964,1330.455734 1257.755081,1330.455734 1235.081848Z" style="stroke:rgb(25.500488%,41.000366%,88.400269%); stroke-width: 2.500000;stroke-linecap: round;stroke-linejoin: round;stroke-miterlimit: 10.000000;fill: none;"></path>
  <path d="M1375.248795 1099.002792C1375.248795 1076.329559,1366.240555 1054.587677,1350.209366 1038.556488C1334.178177 1022.525299,1312.436295 1013.517059,1289.763062 1013.517059C1267.089828 1013.517059,1245.347946 1022.525299,1229.316757 1038.556488C1213.285568 1054.587677,1204.277328 1076.329559,1204.277328 1099.002792C1204.277328 1121.676025,1213.285568 1143.417908,1229.316757 1159.449097C1245.347946 1175.480286,1267.089828 1184.488525,1289.763062 1184.488525C1312.436295 1184.488525,1334.178177 1175.480286,1350.209366 1159.449097C1366.240555 1143.417908,1375.248795 1121.676025,1375.248795 1099.002792Z" style="stroke:rgb(25.500488%,41.000366%,88.400269%); stroke-width: 2.500000;stroke-linecap: round;stroke-linejoin: round;stroke-miterlimit: 10.000000;fill: none;"></path>
  <path d="M1420.158646 959.666763C1420.158646 936.993530,1411.150406 915.251648,1395.119217 899.220459C1379.088028 883.189270,1357.346146 874.181030,1334.672913 874.181030C1311.999680 874.181030,1290.257797 883.189270,1274.226608 899.220459C1258.195419 915.251648,1249.187180 936.993530,1249.187180 959.666763C1249.187180 982.339996,1258.195419 1004.081879,1274.226608 1020.113068C1290.257797 1036.144257,1311.999680 1045.152496,1334.672913 1045.152496C1357.346146 1045.152496,1379.088028 1036.144257,1395.119217 1020.113068C1411.150406 1004.081879,1420.158646 982.339996,1420.158646 959.666763Z" style="stroke:rgb(25.500488%,41.000366%,88.400269%); stroke-width: 2.500000;stroke-linecap: round;stroke-linejoin: round;stroke-miterlimit: 10.000000;fill: none;"></path>
  <path d="M1473.645615 820.849777C1473.645615 798.176544,1464.637375 776.434662,1448.606186 760.403473C1432.574997 744.372284,1410.833115 735.364044,1388.159882 735.364044C1365.486649 735.364044,1343.744766 744.372284,1327.713577 760.403473C1311.682388 776.434662,1302.674149 798.176544,1302.674149 820.849777C1302.674149 843.523010,1311.682388 865.264893,1327.713577 881.296082C1343.744766 897.327271,1365.486649 906.335510,1388.159882 906.335510C1410.833115 906.335510,1432.574997 897.327271,1448.606186 881.296082C1464.637375 865.264893,1473.645615 843.523010,1473.645615 820.849777Z" style="stroke:rgb(25.500488%,41.000366%,88.400269%); stroke-width: 2.500000;stroke-linecap: round;stroke-linejoin: round;stroke-miterlimit: 10.000000;fill: none;"></path>
  <path d="M1519.359970 681.020676C1519.359970 658.347443,1510.351730 636.605560,1494.320541 620.574371C1478.289352 604.543182,1456.547470 595.534943,1433.874237 595.534943C1411.201004 595.534943,1389.459122 604.543182,1373.427933 620.574371C1357.396744 636.605560,1348.388504 658.347443,1348.388504 681.020676C1348.388504 703.693909,1357.396744 725.435791,1373.427933 741.466980C1389.459122 757.498169,1411.201004 766.506409,1433.874237 766.506409C1456.547470 766.506409,1478.289352 757.498169,1494.320541 741.466980C1510.351730 725.435791,1519.359970 703.693909,1519.359970 681.020676Z" style="stroke:rgb(25.500488%,41.000366%,88.400269%); stroke-width: 2.500000;stroke-linecap: round;stroke-linejoin: round;stroke-miterlimit: 10.000000;fill: none;"></path>
  <path d="M1577.336639 552.039474C1577.336639 529.366241,1568.328400 507.624359,1552.297211 491.593170C1536.266022 475.561981,1514.524139 466.553741,1491.850906 466.553741C1469.177673 466.553741,1447.435791 475.561981,1431.404602 491.593170C1415.373413 507.624359,1406.365173 529.366241,1406.365173 552.039474C1406.365173 574.712708,1415.373413 596.454590,1431.404602 612.485779C1447.435791 628.516968,1469.177673 637.525208,1491.850906 637.525208C1514.524139 637.525208,1536.266022 628.516968,1552.297211 612.485779C1568.328400 596.454590,1577.336639 574.712708,1577.336639 552.039474Z" style="stroke:rgb(25.500488%,41.000366%,88.400269%); stroke-width: 2.500000;stroke-linecap: round;stroke-linejoin: round;stroke-miterlimit: 10.000000;fill: none;"></path>
  <path d="M1118.687805 1532.465256C1118.687805 1509.792023,1109.679565 1488.050140,1093.648376 1472.018951C1077.617188 1455.987762,1055.875305 1446.979523,1033.202072 1446.979523C1010.528839 1446.979523,988.786957 1455.987762,972.755768 1472.018951C956.724579 1488.050140,947.716339 1509.792023,947.716339 1532.465256C947.716339 1555.138489,956.724579 1576.880371,972.755768 1592.911560C988.786957 1608.942749,1010.528839 1617.950989,1033.202072 1617.950989C1055.875305 1617.950989,1077.617188 1608.942749,1093.648376 1592.911560C1109.679565 1576.880371,1118.687805 1555.138489,1118.687805 1532.465256Z" style="stroke:rgb(25.500488%,41.000366%,88.400269%); stroke-width: 2.500000;stroke-linecap: round;stroke-linejoin: round;stroke-miterlimit: 10.000000;fill: none;"></path>
  <path d="M1134.336838 1415.876114C1134.336838 1393.202881,1125.328598 1371.460999,1109.297409 1355.429810C1093.266220 1339.398621,1071.524338 1330.390381,1048.851105 1330.390381C1026.177872 1330.390381,1004.435989 1339.398621,988.404800 1355.429810C972.373611 1371.460999,963.365372 1393.202881,963.365372 1415.876114C963.365372 1438.549347,972.373611 1460.291229,988.404800 1476.322418C1004.435989 1492.353607,1026.177872 1501.361847,1048.851105 1501.361847C1071.524338 1501.361847,1093.266220 1492.353607,1109.297409 1476.322418C1125.328598 1460.291229,1134.336838 1438.549347,1134.336838 1415.876114Z" style="stroke:rgb(25.500488%,41.000366%,88.400269%); stroke-width: 2.500000;stroke-linecap: round;stroke-linejoin: round;stroke-miterlimit: 10.000000;fill: none;"></path>
  <path d="M1179.168823 1274.853210C1179.168823 1252.179977,1170.160583 1230.438095,1154.129395 1214.406906C1138.098206 1198.375717,1116.356323 1189.367477,1093.683090 1189.367477C1071.009857 1189.367477,1049.267975 1198.375717,1033.236786 1214.406906C1017.205597 1230.438095,1008.197357 1252.179977,1008.197357 1274.853210C1008.197357 1297.526443,1017.205597 1319.268326,1033.236786 1335.299515C1049.267975 1351.330704,1071.009857 1360.338943,1093.683090 1360.338943C1116.356323 1360.338943,1138.098206 1351.330704,1154.129395 1335.299515C1170.160583 1319.268326,1179.168823 1297.526443,1179.168823 1274.853210Z" style="stroke:rgb(25.500488%,41.000366%,88.400269%); stroke-width: 2.500000;stroke-linecap: round;stroke-linejoin: round;stroke-miterlimit: 10.000000;fill: none;"></path>
  <path d="M1224.091660 1138.942841C1224.091660 1116.269608,1215.083420 1094.527725,1199.052231 1078.496536C1183.021042 1062.465347,1161.279160 1053.457108,1138.605927 1053.457108C1115.932693 1053.457108,1094.190811 1062.465347,1078.159622 1078.496536C1062.128433 1094.527725,1053.120193 1116.269608,1053.120193 1138.942841C1053.120193 1161.616074,1062.128433 1183.357956,1078.159622 1199.389145C1094.190811 1215.420334,1115.932693 1224.428574,1138.605927 1224.428574C1161.279160 1224.428574,1183.021042 1215.420334,1199.052231 1199.389145C1215.083420 1183.357956,1224.091660 1161.616074,1224.091660 1138.942841Z" style="stroke:rgb(25.500488%,41.000366%,88.400269%); stroke-width: 2.500000;stroke-linecap: round;stroke-linejoin: round;stroke-miterlimit: 10.000000;fill: none;"></path>
  <path d="M1271.233368 1002.292847C1271.233368 979.619614,1262.225128 957.877731,1246.193939 941.846542C1230.162750 925.815353,1208.420868 916.807114,1185.747635 916.807114C1163.074402 916.807114,1141.332520 925.815353,1125.301331 941.846542C1109.270142 957.877731,1100.261902 979.619614,1100.261902 1002.292847C1100.261902 1024.966080,1109.270142 1046.707962,1125.301331 1062.739151C1141.332520 1078.770340,1163.074402 1087.778580,1185.747635 1087.778580C1208.420868 1087.778580,1230.162750 1078.770340,1246.193939 1062.739151C1262.225128 1046.707962,1271.233368 1024.966080,1271.233368 1002.292847Z" style="stroke:rgb(25.500488%,41.000366%,88.400269%); stroke-width: 2.500000;stroke-linecap: round;stroke-linejoin: round;stroke-miterlimit: 10.000000;fill: none;"></path>
  <path d="M1323.150253 861.620300C1323.150253 838.947067,1314.142014 817.205185,1298.110825 801.173996C1282.079636 785.142807,1260.337753 776.134567,1237.664520 776.134567C1214.991287 776.134567,1193.249405 785.142807,1177.218216 801.173996C1161.187027 817.205185,1152.178787 838.947067,1152.178787 861.620300C1152.178787 884.293533,1161.187027 906.035416,1177.218216 922.066605C1193.249405 938.097794,1214.991287 947.106033,1237.664520 947.106033C1260.337753 947.106033,1282.079636 938.097794,1298.110825 922.066605C1314.142014 906.035416,1323.150253 884.293533,1323.150253 861.620300Z" style="stroke:rgb(25.500488%,41.000366%,88.400269%); stroke-width: 2.500000;stroke-linecap: round;stroke-linejoin: round;stroke-miterlimit: 10.000000;fill: none;"></path>
  <path d="M1370.668274 723.919250C1370.668274 701.246017,1361.660034 679.504135,1345.628845 663.472946C1329.597656 647.441757,1307.855774 638.433517,1285.182541 638.433517C1262.509308 638.433517,1240.767426 647.441757,1224.736237 663.472946C1208.705048 679.504135,1199.696808 701.246017,1199.696808 723.919250C1199.696808 746.592484,1208.705048 768.334366,1224.736237 784.365555C1240.767426 800.396744,1262.509308 809.404984,1285.182541 809.404984C1307.855774 809.404984,1329.597656 800.396744,1345.628845 784.365555C1361.660034 768.334366,1370.668274 746.592484,1370.668274 723.919250Z" style="stroke:rgb(25.500488%,41.000366%,88.400269%); stroke-width: 2.500000;stroke-linecap: round;stroke-linejoin: round;stroke-miterlimit: 10.000000;fill: none;"></path>
  <path d="M1419.431992 588.514938C1419.431992 565.841705,1410.423752 544.099823,1394.392563 528.068634C1378.361374 512.037445,1356.619492 503.029205,1333.946259 503.029205C1311.273026 503.029205,1289.531143 512.037445,1273.499954 528.068634C1257.468765 544.099823,1248.460526 565.841705,1248.460526 588.514938C1248.460526 611.188171,1257.468765 632.930054,1273.499954 648.961243C1289.531143 664.992432,1311.273026 674.000671,1333.946259 674.000671C1356.619492 674.000671,1378.361374 664.992432,1394.392563 648.961243C1410.423752 632.930054,1419.431992 611.188171,1419.431992 588.514938Z" style="stroke:rgb(25.500488%,41.000366%,88.400269%); stroke-width: 2.500000;stroke-linecap: round;stroke-linejoin: round;stroke-miterlimit: 10.000000;fill: none;"></path>
  <path d="M1465.613480 465.009613C1465.613480 442.336380,1456.605240 420.594498,1440.574051 404.563309C1424.542862 388.532120,1402.800980 379.523880,1380.127747 379.523880C1357.454514 379.523880,1335.712631 388.532120,1319.681442 404.563309C1303.650253 420.594498,1294.642014 442.336380,1294.642014 465.009613C1294.642014 487.682846,1303.650253 509.424728,1319.681442 525.455917C1335.712631 541.487106,1357.454514 550.495346,1380.127747 550.495346C1402.800980 550.495346,1424.542862 541.487106,1440.574051 525.455917C1456.605240 509.424728,1465.613480 487.682846,1465.613480 465.009613Z" style="stroke:rgb(25.500488%,41.000366%,88.400269%); stroke-width: 2.500000;stroke-linecap: round;stroke-linejoin: round;stroke-miterlimit: 10.000000;fill: none;"></path>
  <path d="M987.046539 1474.722153C987.046539 1452.048920,978.038300 1430.307037,962.007111 1414.275848C945.975922 1398.244659,924.234039 1389.236420,901.560806 1389.236420C878.887573 1389.236420,857.145691 1398.244659,841.114502 1414.275848C825.083313 1430.307037,816.075073 1452.048920,816.075073 1474.722153C816.075073 1497.395386,825.083313 1519.137268,841.114502 1535.168457C857.145691 1551.199646,878.887573 1560.207886,901.560806 1560.207886C924.234039 1560.207886,945.975922 1551.199646,962.007111 1535.168457C978.038300 1519.137268,987.046539 1497.395386,987.046539 1474.722153Z" style="stroke:rgb(25.500488%,41.000366%,88.400269%); stroke-width: 2.500000;stroke-linecap: round;stroke-linejoin: round;stroke-miterlimit: 10.000000;fill: none;"></path>
  <path d="M1033.721115 1331.493347C1033.721115 1308.820114,1024.712875 1287.078232,1008.681686 1271.047043C992.650497 1255.015854,970.908615 1246.007614,948.235382 1246.007614C925.562149 1246.007614,903.820267 1255.015854,887.789078 1271.047043C871.757889 1287.078232,862.749649 1308.820114,862.749649 1331.493347C862.749649 1354.166580,871.757889 1375.908463,887.789078 1391.939651C903.820267 1407.970840,925.562149 1416.979080,948.235382 1416.979080C970.908615 1416.979080,992.650497 1407.970840,1008.681686 1391.939651C1024.712875 1375.908463,1033.721115 1354.166580,1033.721115 1331.493347Z" style="stroke:rgb(25.500488%,41.000366%,88.400269%); stroke-width: 2.500000;stroke-linecap: round;stroke-linejoin: round;stroke-miterlimit: 10.000000;fill: none;"></path>
  <path d="M1077.333374 1186.746338C1077.333374 1164.073105,1068.325134 1142.331223,1052.293945 1126.300034C1036.262756 1110.268845,1014.520874 1101.260605,991.847641 1101.260605C969.174408 1101.260605,947.432526 1110.268845,931.401337 1126.300034C915.370148 1142.331223,906.361908 1164.073105,906.361908 1186.746338C906.361908 1209.419571,915.370148 1231.161453,931.401337 1247.192642C947.432526 1263.223831,969.174408 1272.232071,991.847641 1272.232071C1014.520874 1272.232071,1036.262756 1263.223831,1052.293945 1247.192642C1068.325134 1231.161453,1077.333374 1209.419571,1077.333374 1186.746338Z" style="stroke:rgb(25.500488%,41.000366%,88.400269%); stroke-width: 2.500000;stroke-linecap: round;stroke-linejoin: round;stroke-miterlimit: 10.000000;fill: none;"></path>
  <path d="M1119.738861 1044.646423C1119.738861 1021.973190,1110.730621 1000.231308,1094.699432 984.200119C1078.668243 968.168930,1056.926361 959.160690,1034.253128 959.160690C1011.579895 959.160690,989.838013 968.168930,973.806824 984.200119C957.775635 1000.231308,948.767395 1021.973190,948.767395 1044.646423C948.767395 1067.319656,957.775635 1089.061539,973.806824 1105.092728C989.838013 1121.123917,1011.579895 1130.132156,1034.253128 1130.132156C1056.926361 1130.132156,1078.668243 1121.123917,1094.699432 1105.092728C1110.730621 1089.061539,1119.738861 1067.319656,1119.738861 1044.646423Z" style="stroke:rgb(25.500488%,41.000366%,88.400269%); stroke-width: 2.500000;stroke-linecap: round;stroke-linejoin: round;stroke-miterlimit: 10.000000;fill: none;"></path>
  <path d="M1173.874634 906.633957C1173.874634 883.960724,1164.866394 862.218842,1148.835205 846.187653C1132.804016 830.156464,1111.062134 821.148224,1088.388901 821.148224C1065.715668 821.148224,1043.973785 830.156464,1027.942596 846.187653C1011.911407 862.218842,1002.903168 883.960724,1002.903168 906.633957C1002.903168 929.307190,1011.911407 951.049072,1027.942596 967.080261C1043.973785 983.111450,1065.715668 992.119690,1088.388901 992.119690C1111.062134 992.119690,1132.804016 983.111450,1148.835205 967.080261C1164.866394 951.049072,1173.874634 929.307190,1173.874634 906.633957Z" style="stroke:rgb(25.500488%,41.000366%,88.400269%); stroke-width: 2.500000;stroke-linecap: round;stroke-linejoin: round;stroke-miterlimit: 10.000000;fill: none;"></path>
  <path d="M1219.822556 767.064362C1219.822556 744.391129,1210.814316 722.649246,1194.783127 706.618057C1178.751938 690.586868,1157.010056 681.578629,1134.336823 681.578629C1111.663589 681.578629,1089.921707 690.586868,1073.890518 706.618057C1057.859329 722.649246,1048.851089 744.391129,1048.851089 767.064362C1048.851089 789.737595,1057.859329 811.479477,1073.890518 827.510666C1089.921707 843.541855,1111.663589 852.550095,1134.336823 852.550095C1157.010056 852.550095,1178.751938 843.541855,1194.783127 827.510666C1210.814316 811.479477,1219.822556 789.737595,1219.822556 767.064362Z" style="stroke:rgb(25.500488%,41.000366%,88.400269%); stroke-width: 2.500000;stroke-linecap: round;stroke-linejoin: round;stroke-miterlimit: 10.000000;fill: none;"></path>
  <path d="M1266.847488 629.480103C1266.847488 606.806870,1257.839249 585.064987,1241.808060 569.033798C1225.776871 553.002609,1204.034988 543.994370,1181.361755 543.994370C1158.688522 543.994370,1136.946640 553.002609,1120.915451 569.033798C1104.884262 585.064987,1095.876022 606.806870,1095.876022 629.480103C1095.876022 652.153336,1104.884262 673.895218,1120.915451 689.926407C1136.946640 705.957596,1158.688522 714.965836,1181.361755 714.965836C1204.034988 714.965836,1225.776871 705.957596,1241.808060 689.926407C1257.839249 673.895218,1266.847488 652.153336,1266.847488 629.480103Z" style="stroke:rgb(25.500488%,41.000366%,88.400269%); stroke-width: 2.500000;stroke-linecap: round;stroke-linejoin: round;stroke-miterlimit: 10.000000;fill: none;"></path>
  <path d="M1306.761597 496.593140C1306.761597 473.919907,1297.753357 452.178024,1281.722168 436.146835C1265.690979 420.115646,1243.949097 411.107407,1221.275864 411.107407C1198.602631 411.107407,1176.860748 420.115646,1160.829559 436.146835C1144.798370 452.178024,1135.790131 473.919907,1135.790131 496.593140C1135.790131 519.266373,1144.798370 541.008255,1160.829559 557.039444C1176.860748 573.070633,1198.602631 582.078873,1221.275864 582.078873C1243.949097 582.078873,1265.690979 573.070633,1281.722168 557.039444C1297.753357 541.008255,1306.761597 519.266373,1306.761597 496.593140Z" style="stroke:rgb(25.500488%,41.000366%,88.400269%); stroke-width: 2.500000;stroke-linecap: round;stroke-linejoin: round;stroke-miterlimit: 10.000000;fill: none;"></path>
  <path d="M1348.453400 390.462631C1348.453400 367.789398,1339.445160 346.047516,1323.413971 330.016327C1307.382782 313.985138,1285.640900 304.976898,1262.967667 304.976898C1240.294434 304.976898,1218.552551 313.985138,1202.521362 330.016327C1186.490173 346.047516,1177.481934 367.789398,1177.481934 390.462631C1177.481934 413.135864,1186.490173 434.877747,1202.521362 450.908936C1218.552551 466.940125,1240.294434 475.948364,1262.967667 475.948364C1285.640900 475.948364,1307.382782 466.940125,1323.413971 450.908936C1339.445160 434.877747,1348.453400 413.135864,1348.453400 390.462631Z" style="stroke:rgb(25.500488%,41.000366%,88.400269%); stroke-width: 2.500000;stroke-linecap: round;stroke-linejoin: round;stroke-miterlimit: 10.000000;fill: none;"></path>
  <path d="M869.964310 1496.664536C869.964310 1473.991302,860.956070 1452.249420,844.924881 1436.218231C828.893692 1420.187042,807.151810 1411.178802,784.478577 1411.178802C761.805344 1411.178802,740.063461 1420.187042,724.032272 1436.218231C708.001083 1452.249420,698.992844 1473.991302,698.992844 1496.664536C698.992844 1519.337769,708.001083 1541.079651,724.032272 1557.110840C740.063461 1573.142029,761.805344 1582.150269,784.478577 1582.150269C807.151810 1582.150269,828.893692 1573.142029,844.924881 1557.110840C860.956070 1541.079651,869.964310 1519.337769,869.964310 1496.664536Z" style="stroke:rgb(25.500488%,41.000366%,88.400269%); stroke-width: 2.500000;stroke-linecap: round;stroke-linejoin: round;stroke-miterlimit: 10.000000;fill: none;"></path>
  <path d="M892.373825 1359.235977C892.373825 1336.562744,883.365585 1314.820862,867.334396 1298.789673C851.303207 1282.758484,829.561325 1273.750244,806.888092 1273.750244C784.214859 1273.750244,762.472977 1282.758484,746.441788 1298.789673C730.410599 1314.820862,721.402359 1336.562744,721.402359 1359.235977C721.402359 1381.909210,730.410599 1403.651093,746.441788 1419.682281C762.472977 1435.713470,784.214859 1444.721710,806.888092 1444.721710C829.561325 1444.721710,851.303207 1435.713470,867.334396 1419.682281C883.365585 1403.651093,892.373825 1381.909210,892.373825 1359.235977Z" style="stroke:rgb(25.500488%,41.000366%,88.400269%); stroke-width: 2.500000;stroke-linecap: round;stroke-linejoin: round;stroke-miterlimit: 10.000000;fill: none;"></path>
  <path d="M937.413437 1217.058212C937.413437 1194.384979,928.405197 1172.643097,912.374008 1156.611908C896.342819 1140.580719,874.600937 1131.572479,851.927704 1131.572479C829.254471 1131.572479,807.512589 1140.580719,791.481400 1156.611908C775.450211 1172.643097,766.441971 1194.384979,766.441971 1217.058212C766.441971 1239.731445,775.450211 1261.473328,791.481400 1277.504517C807.512589 1293.535706,829.254471 1302.543945,851.927704 1302.543945C874.600937 1302.543945,896.342819 1293.535706,912.374008 1277.504517C928.405197 1261.473328,937.413437 1239.731445,937.413437 1217.058212Z" style="stroke:rgb(25.500488%,41.000366%,88.400269%); stroke-width: 2.500000;stroke-linecap: round;stroke-linejoin: round;stroke-miterlimit: 10.000000;fill: none;"></path>
  <path d="M977.029083 1075.334610C977.029083 1052.661377,968.020844 1030.919495,951.989655 1014.888306C935.958466 998.857117,914.216583 989.848877,891.543350 989.848877C868.870117 989.848877,847.128235 998.857117,831.097046 1014.888306C815.065857 1030.919495,806.057617 1052.661377,806.057617 1075.334610C806.057617 1098.007843,815.065857 1119.749725,831.097046 1135.780914C847.128235 1151.812103,868.870117 1160.820343,891.543350 1160.820343C914.216583 1160.820343,935.958466 1151.812103,951.989655 1135.780914C968.020844 1119.749725,977.029083 1098.007843,977.029083 1075.334610Z" style="stroke:rgb(25.500488%,41.000366%,88.400269%); stroke-width: 2.500000;stroke-linecap: round;stroke-linejoin: round;stroke-miterlimit: 10.000000;fill: none;"></path>
  <path d="M1026.428619 931.898178C1026.428619 909.224945,1017.420380 887.483063,1001.389191 871.451874C985.358002 855.420685,963.616119 846.412445,940.942886 846.412445C918.269653 846.412445,896.527771 855.420685,880.496582 871.451874C864.465393 887.483063,855.457153 909.224945,855.457153 931.898178C855.457153 954.571411,864.465393 976.313293,880.496582 992.344482C896.527771 1008.375671,918.269653 1017.383911,940.942886 1017.383911C963.616119 1017.383911,985.358002 1008.375671,1001.389191 992.344482C1017.420380 976.313293,1026.428619 954.571411,1026.428619 931.898178Z" style="stroke:rgb(25.500488%,41.000366%,88.400269%); stroke-width: 2.500000;stroke-linecap: round;stroke-linejoin: round;stroke-miterlimit: 10.000000;fill: none;"></path>
  <path d="M1074.621399 794.988663C1074.621399 772.315430,1065.613159 750.573547,1049.581970 734.542358C1033.550781 718.511169,1011.808899 709.502930,989.135666 709.502930C966.462433 709.502930,944.720551 718.511169,928.689362 734.542358C912.658173 750.573547,903.649933 772.315430,903.649933 794.988663C903.649933 817.661896,912.658173 839.403778,928.689362 855.434967C944.720551 871.466156,966.462433 880.474396,989.135666 880.474396C1011.808899 880.474396,1033.550781 871.466156,1049.581970 855.434967C1065.613159 839.403778,1074.621399 817.661896,1074.621399 794.988663Z" style="stroke:rgb(25.500488%,41.000366%,88.400269%); stroke-width: 2.500000;stroke-linecap: round;stroke-linejoin: round;stroke-miterlimit: 10.000000;fill: none;"></path>
  <path d="M1120.063263 655.522873C1120.063263 632.849640,1111.055023 611.107758,1095.023834 595.076569C1078.992645 579.045380,1057.250763 570.037140,1034.577530 570.037140C1011.904297 570.037140,990.162415 579.045380,974.131226 595.076569C958.100037 611.107758,949.091797 632.849640,949.091797 655.522873C949.091797 678.196106,958.100037 699.937988,974.131226 715.969177C990.162415 732.000366,1011.904297 741.008606,1034.577530 741.008606C1057.250763 741.008606,1078.992645 732.000366,1095.023834 715.969177C1111.055023 699.937988,1120.063263 678.196106,1120.063263 655.522873Z" style="stroke:rgb(25.500488%,41.000366%,88.400269%); stroke-width: 2.500000;stroke-linecap: round;stroke-linejoin: round;stroke-miterlimit: 10.000000;fill: none;"></path>
  <path d="M1159.678909 519.975845C1159.678909 497.302612,1150.670670 475.560730,1134.639481 459.529541C1118.608292 443.498352,1096.866409 434.490112,1074.193176 434.490112C1051.519943 434.490112,1029.778061 443.498352,1013.746872 459.529541C997.715683 475.560730,988.707443 497.302612,988.707443 519.975845C988.707443 542.649078,997.715683 564.390961,1013.746872 580.422150C1029.778061 596.453339,1051.519943 605.461578,1074.193176 605.461578C1096.866409 605.461578,1118.608292 596.453339,1134.639481 580.422150C1150.670670 564.390961,1159.678909 542.649078,1159.678909 519.975845Z" style="stroke:rgb(25.500488%,41.000366%,88.400269%); stroke-width: 2.500000;stroke-linecap: round;stroke-linejoin: round;stroke-miterlimit: 10.000000;fill: none;"></path>
  <path d="M1188.187134 390.449661C1188.187134 367.776428,1179.178894 346.034546,1163.147705 330.003357C1147.116516 313.972168,1125.374634 304.963928,1102.701401 304.963928C1080.028168 304.963928,1058.286285 313.972168,1042.255096 330.003357C1026.223907 346.034546,1017.215668 367.776428,1017.215668 390.449661C1017.215668 413.122894,1026.223907 434.864777,1042.255096 450.895966C1058.286285 466.927155,1080.028168 475.935394,1102.701401 475.935394C1125.374634 475.935394,1147.116516 466.927155,1163.147705 450.895966C1179.178894 434.864777,1188.187134 413.122894,1188.187134 390.449661Z" style="stroke:rgb(25.500488%,41.000366%,88.400269%); stroke-width: 2.500000;stroke-linecap: round;stroke-linejoin: round;stroke-miterlimit: 10.000000;fill: none;"></path>
  <path d="M1246.514145 278.012833C1246.514145 255.339600,1237.505905 233.597717,1221.474716 217.566528C1205.443527 201.535339,1183.701645 192.527100,1161.028412 192.527100C1138.355179 192.527100,1116.613297 201.535339,1100.582108 217.566528C1084.550919 233.597717,1075.542679 255.339600,1075.542679 278.012833C1075.542679 300.686066,1084.550919 322.427948,1100.582108 338.459137C1116.613297 354.490326,1138.355179 363.498566,1161.028412 363.498566C1183.701645 363.498566,1205.443527 354.490326,1221.474716 338.459137C1237.505905 322.427948,1246.514145 300.686066,1246.514145 278.012833Z" style="stroke:rgb(25.500488%,41.000366%,88.400269%); stroke-width: 2.500000;stroke-linecap: round;stroke-linejoin: round;stroke-miterlimit: 10.000000;fill: none;"></path>
  <path d="M733.859299 1491.967224C733.859299 1469.293991,724.851059 1447.552109,708.819870 1431.520920C692.788681 1415.489731,671.046799 1406.481491,648.373566 1406.481491C625.700333 1406.481491,603.958450 1415.489731,587.927261 1431.520920C571.896072 1447.552109,562.887833 1469.293991,562.887833 1491.967224C562.887833 1514.640457,571.896072 1536.382339,587.927261 1552.413528C603.958450 1568.444717,625.700333 1577.452957,648.373566 1577.452957C671.046799 1577.452957,692.788681 1568.444717,708.819870 1552.413528C724.851059 1536.382339,733.859299 1514.640457,733.859299 1491.967224Z" style="stroke:rgb(25.500488%,41.000366%,88.400269%); stroke-width: 2.500000;stroke-linecap: round;stroke-linejoin: round;stroke-miterlimit: 10.000000;fill: none;"></path>
  <path d="M754.465149 1384.344498C754.465149 1361.671265,745.456909 1339.929382,729.425720 1323.898193C713.394531 1307.867004,691.652649 1298.858765,668.979416 1298.858765C646.306183 1298.858765,624.564301 1307.867004,608.533112 1323.898193C592.501923 1339.929382,583.493683 1361.671265,583.493683 1384.344498C583.493683 1407.017731,592.501923 1428.759613,608.533112 1444.790802C624.564301 1460.821991,646.306183 1469.830231,668.979416 1469.830231C691.652649 1469.830231,713.394531 1460.821991,729.425720 1444.790802C745.456909 1428.759613,754.465149 1407.017731,754.465149 1384.344498Z" style="stroke:rgb(25.500488%,41.000366%,88.400269%); stroke-width: 2.500000;stroke-linecap: round;stroke-linejoin: round;stroke-miterlimit: 10.000000;fill: none;"></path>
  <path d="M797.065277 1240.440918C797.065277 1217.767685,788.057037 1196.025803,772.025848 1179.994614C755.994659 1163.963425,734.252777 1154.955185,711.579544 1154.955185C688.906311 1154.955185,667.164429 1163.963425,651.133240 1179.994614C635.102051 1196.025803,626.093811 1217.767685,626.093811 1240.440918C626.093811 1263.114151,635.102051 1284.856033,651.133240 1300.887222C667.164429 1316.918411,688.906311 1325.926651,711.579544 1325.926651C734.252777 1325.926651,755.994659 1316.918411,772.025848 1300.887222C788.057037 1284.856033,797.065277 1263.114151,797.065277 1240.440918Z" style="stroke:rgb(25.500488%,41.000366%,88.400269%); stroke-width: 2.500000;stroke-linecap: round;stroke-linejoin: round;stroke-miterlimit: 10.000000;fill: none;"></path>
  <path d="M834.916199 1105.373993C834.916199 1082.700760,825.907959 1060.958878,809.876770 1044.927689C793.845581 1028.896500,772.103699 1019.888260,749.430466 1019.888260C726.757233 1019.888260,705.015350 1028.896500,688.984161 1044.927689C672.952972 1060.958878,663.944733 1082.700760,663.944733 1105.373993C663.944733 1128.047226,672.952972 1149.789108,688.984161 1165.820297C705.015350 1181.851486,726.757233 1190.859726,749.430466 1190.859726C772.103699 1190.859726,793.845581 1181.851486,809.876770 1165.820297C825.907959 1149.789108,834.916199 1128.047226,834.916199 1105.373993Z" style="stroke:rgb(25.500488%,41.000366%,88.400269%); stroke-width: 2.500000;stroke-linecap: round;stroke-linejoin: round;stroke-miterlimit: 10.000000;fill: none;"></path>
  <path d="M888.597809 961.107101C888.597809 938.433868,879.589569 916.691986,863.558380 900.660797C847.527191 884.629608,825.785309 875.621368,803.112076 875.621368C780.438843 875.621368,758.696960 884.629608,742.665771 900.660797C726.634583 916.691986,717.626343 938.433868,717.626343 961.107101C717.626343 983.780334,726.634583 1005.522217,742.665771 1021.553406C758.696960 1037.584595,780.438843 1046.592834,803.112076 1046.592834C825.785309 1046.592834,847.527191 1037.584595,863.558380 1021.553406C879.589569 1005.522217,888.597809 983.780334,888.597809 961.107101Z" style="stroke:rgb(25.500488%,41.000366%,88.400269%); stroke-width: 2.500000;stroke-linecap: round;stroke-linejoin: round;stroke-miterlimit: 10.000000;fill: none;"></path>
  <path d="M928.940125 815.646423C928.940125 792.973190,919.931885 771.231308,903.900696 755.200119C887.869507 739.168930,866.127625 730.160690,843.454391 730.160690C820.781158 730.160690,799.039276 739.168930,783.008087 755.200119C766.976898 771.231308,757.968658 792.973190,757.968658 815.646423C757.968658 838.319656,766.976898 860.061539,783.008087 876.092728C799.039276 892.123917,820.781158 901.132156,843.454391 901.132156C866.127625 901.132156,887.869507 892.123917,903.900696 876.092728C919.931885 860.061539,928.940125 838.319656,928.940125 815.646423Z" style="stroke:rgb(25.500488%,41.000366%,88.400269%); stroke-width: 2.500000;stroke-linecap: round;stroke-linejoin: round;stroke-miterlimit: 10.000000;fill: none;"></path>
  <path d="M976.613846 678.853683C976.613846 656.180450,967.605606 634.438568,951.574417 618.407379C935.543228 602.376190,913.801346 593.367950,891.128113 593.367950C868.454880 593.367950,846.712997 602.376190,830.681808 618.407379C814.650620 634.438568,805.642380 656.180450,805.642380 678.853683C805.642380 701.526917,814.650620 723.268799,830.681808 739.299988C846.712997 755.331177,868.454880 764.339417,891.128113 764.339417C913.801346 764.339417,935.543228 755.331177,951.574417 739.299988C967.605606 723.268799,976.613846 701.526917,976.613846 678.853683Z" style="stroke:rgb(25.500488%,41.000366%,88.400269%); stroke-width: 2.500000;stroke-linecap: round;stroke-linejoin: round;stroke-miterlimit: 10.000000;fill: none;"></path>
  <path d="M1021.290131 539.569565C1021.290131 516.896332,1012.281891 495.154449,996.250702 479.123260C980.219513 463.092072,958.477631 454.083832,935.804398 454.083832C913.131165 454.083832,891.389282 463.092072,875.358093 479.123260C859.326904 495.154449,850.318665 516.896332,850.318665 539.569565C850.318665 562.242798,859.326904 583.984680,875.358093 600.015869C891.389282 616.047058,913.131165 625.055298,935.804398 625.055298C958.477631 625.055298,980.219513 616.047058,996.250702 600.015869C1012.281891 583.984680,1021.290131 562.242798,1021.290131 539.569565Z" style="stroke:rgb(25.500488%,41.000366%,88.400269%); stroke-width: 2.500000;stroke-linecap: round;stroke-linejoin: round;stroke-miterlimit: 10.000000;fill: none;"></path>
  <path d="M1066.096176 397.326920C1066.096176 374.653687,1057.087936 352.911804,1041.056747 336.880615C1025.025558 320.849426,1003.283676 311.841187,980.610443 311.841187C957.937210 311.841187,936.195328 320.849426,920.164139 336.880615C904.132950 352.911804,895.124710 374.653687,895.124710 397.326920C895.124710 420.000153,904.132950 441.742035,920.164139 457.773224C936.195328 473.804413,957.937210 482.812653,980.610443 482.812653C1003.283676 482.812653,1025.025558 473.804413,1041.056747 457.773224C1057.087936 441.742035,1066.096176 420.000153,1066.096176 397.326920Z" style="stroke:rgb(25.500488%,41.000366%,88.400269%); stroke-width: 2.500000;stroke-linecap: round;stroke-linejoin: round;stroke-miterlimit: 10.000000;fill: none;"></path>
  <path d="M1116.858200 249.011520C1116.858200 226.338287,1107.849960 204.596405,1091.818771 188.565216C1075.787582 172.534027,1054.045700 163.525787,1031.372467 163.525787C1008.699234 163.525787,986.957352 172.534027,970.926163 188.565216C954.894974 204.596405,945.886734 226.338287,945.886734 249.011520C945.886734 271.684753,954.894974 293.426636,970.926163 309.457825C986.957352 325.489014,1008.699234 334.497253,1031.372467 334.497253C1054.045700 334.497253,1075.787582 325.489014,1091.818771 309.457825C1107.849960 293.426636,1116.858200 271.684753,1116.858200 249.011520Z" style="stroke:rgb(25.500488%,41.000366%,88.400269%); stroke-width: 2.500000;stroke-linecap: round;stroke-linejoin: round;stroke-miterlimit: 10.000000;fill: none;"></path>
  <path d="M584.505829 1525.847504C584.505829 1503.174271,575.497589 1481.432388,559.466400 1465.401199C543.435211 1449.370010,521.693329 1440.361771,499.020096 1440.361771C476.346863 1440.361771,454.604980 1449.370010,438.573792 1465.401199C422.542603 1481.432388,413.534363 1503.174271,413.534363 1525.847504C413.534363 1548.520737,422.542603 1570.262619,438.573792 1586.293808C454.604980 1602.324997,476.346863 1611.333237,499.020096 1611.333237C521.693329 1611.333237,543.435211 1602.324997,559.466400 1586.293808C575.497589 1570.262619,584.505829 1548.520737,584.505829 1525.847504Z" style="stroke:rgb(25.500488%,41.000366%,88.400269%); stroke-width: 2.500000;stroke-linecap: round;stroke-linejoin: round;stroke-miterlimit: 10.000000;fill: none;"></path>
  <path d="M596.612411 1405.689972C596.612411 1383.016739,587.604172 1361.274857,571.572983 1345.243668C555.541794 1329.212479,533.799911 1320.204239,511.126678 1320.204239C488.453445 1320.204239,466.711563 1329.212479,450.680374 1345.243668C434.649185 1361.274857,425.640945 1383.016739,425.640945 1405.689972C425.640945 1428.363205,434.649185 1450.105087,450.680374 1466.136276C466.711563 1482.167465,488.453445 1491.175705,511.126678 1491.175705C533.799911 1491.175705,555.541794 1482.167465,571.572983 1466.136276C587.604172 1450.105087,596.612411 1428.363205,596.612411 1405.689972Z" style="stroke:rgb(25.500488%,41.000366%,88.400269%); stroke-width: 2.500000;stroke-linecap: round;stroke-linejoin: round;stroke-miterlimit: 10.000000;fill: none;"></path>
  <path d="M653.408264 1280.640488C653.408264 1257.967255,644.400024 1236.225372,628.368835 1220.194183C612.337646 1204.162994,590.595764 1195.154755,567.922531 1195.154755C545.249298 1195.154755,523.507416 1204.162994,507.476227 1220.194183C491.445038 1236.225372,482.436798 1257.967255,482.436798 1280.640488C482.436798 1303.313721,491.445038 1325.055603,507.476227 1341.086792C523.507416 1357.117981,545.249298 1366.126221,567.922531 1366.126221C590.595764 1366.126221,612.337646 1357.117981,628.368835 1341.086792C644.400024 1325.055603,653.408264 1303.313721,653.408264 1280.640488Z" style="stroke:rgb(25.500488%,41.000366%,88.400269%); stroke-width: 2.500000;stroke-linecap: round;stroke-linejoin: round;stroke-miterlimit: 10.000000;fill: none;"></path>
  <path d="M685.329163 1141.732681C685.329163 1119.059448,676.320923 1097.317566,660.289734 1081.286377C644.258545 1065.255188,622.516663 1056.246948,599.843430 1056.246948C577.170197 1056.246948,555.428314 1065.255188,539.397125 1081.286377C523.365936 1097.317566,514.357697 1119.059448,514.357697 1141.732681C514.357697 1164.405914,523.365936 1186.147797,539.397125 1202.178986C555.428314 1218.210175,577.170197 1227.218414,599.843430 1227.218414C622.516663 1227.218414,644.258545 1218.210175,660.289734 1202.178986C676.320923 1186.147797,685.329163 1164.405914,685.329163 1141.732681Z" style="stroke:rgb(25.500488%,41.000366%,88.400269%); stroke-width: 2.500000;stroke-linecap: round;stroke-linejoin: round;stroke-miterlimit: 10.000000;fill: none;"></path>
  <path d="M743.279861 1002.279877C743.279861 979.606644,734.271622 957.864761,718.240433 941.833572C702.209244 925.802383,680.467361 916.794144,657.794128 916.794144C635.120895 916.794144,613.379013 925.802383,597.347824 941.833572C581.316635 957.864761,572.308395 979.606644,572.308395 1002.279877C572.308395 1024.953110,581.316635 1046.694992,597.347824 1062.726181C613.379013 1078.757370,635.120895 1087.765610,657.794128 1087.765610C680.467361 1087.765610,702.209244 1078.757370,718.240433 1062.726181C734.271622 1046.694992,743.279861 1024.953110,743.279861 1002.279877Z" style="stroke:rgb(25.500488%,41.000366%,88.400269%); stroke-width: 2.500000;stroke-linecap: round;stroke-linejoin: round;stroke-miterlimit: 10.000000;fill: none;"></path>
  <path d="M787.424133 859.466278C787.424133 836.793045,778.415894 815.051163,762.384705 799.019974C746.353516 782.988785,724.611633 773.980545,701.938400 773.980545C679.265167 773.980545,657.523285 782.988785,641.492096 799.019974C625.460907 815.051163,616.452667 836.793045,616.452667 859.466278C616.452667 882.139511,625.460907 903.881393,641.492096 919.912582C657.523285 935.943771,679.265167 944.952011,701.938400 944.952011C724.611633 944.952011,746.353516 935.943771,762.384705 919.912582C778.415894 903.881393,787.424133 882.139511,787.424133 859.466278Z" style="stroke:rgb(25.500488%,41.000366%,88.400269%); stroke-width: 2.500000;stroke-linecap: round;stroke-linejoin: round;stroke-miterlimit: 10.000000;fill: none;"></path>
  <path d="M826.494797 713.434662C826.494797 690.761429,817.486557 669.019547,801.455368 652.988358C785.424179 636.957169,763.682297 627.948929,741.009064 627.948929C718.335831 627.948929,696.593948 636.957169,680.562759 652.988358C664.531570 669.019547,655.523331 690.761429,655.523331 713.434662C655.523331 736.107895,664.531570 757.849777,680.562759 773.880966C696.593948 789.912155,718.335831 798.920395,741.009064 798.920395C763.682297 798.920395,785.424179 789.912155,801.455368 773.880966C817.486557 757.849777,826.494797 736.107895,826.494797 713.434662Z" style="stroke:rgb(25.500488%,41.000366%,88.400269%); stroke-width: 2.500000;stroke-linecap: round;stroke-linejoin: round;stroke-miterlimit: 10.000000;fill: none;"></path>
  <path d="M873.376999 576.992279C873.376999 554.319046,864.368759 532.577164,848.337570 516.545975C832.306381 500.514786,810.564499 491.506546,787.891266 491.506546C765.218033 491.506546,743.476151 500.514786,727.444962 516.545975C711.413773 532.577164,702.405533 554.319046,702.405533 576.992279C702.405533 599.665512,711.413773 621.407394,727.444962 637.438583C743.476151 653.469772,765.218033 662.478012,787.891266 662.478012C810.564499 662.478012,832.306381 653.469772,848.337570 637.438583C864.368759 621.407394,873.376999 599.665512,873.376999 576.992279Z" style="stroke:rgb(25.500488%,41.000366%,88.400269%); stroke-width: 2.500000;stroke-linecap: round;stroke-linejoin: round;stroke-miterlimit: 10.000000;fill: none;"></path>
  <path d="M920.375977 437.189117C920.375977 414.515884,911.367737 392.774002,895.336548 376.742813C879.305359 360.711624,857.563477 351.703384,834.890244 351.703384C812.217010 351.703384,790.475128 360.711624,774.443939 376.742813C758.412750 392.774002,749.404510 414.515884,749.404510 437.189117C749.404510 459.862350,758.412750 481.604233,774.443939 497.635422C790.475128 513.666611,812.217010 522.674850,834.890244 522.674850C857.563477 522.674850,879.305359 513.666611,895.336548 497.635422C911.367737 481.604233,920.375977 459.862350,920.375977 437.189117Z" style="stroke:rgb(25.500488%,41.000366%,88.400269%); stroke-width: 2.500000;stroke-linecap: round;stroke-linejoin: round;stroke-miterlimit: 10.000000;fill: none;"></path>
  <path d="M973.901871 305.924149C973.901871 283.250916,964.893631 261.509033,948.862442 245.477844C932.831253 229.446655,911.089371 220.438416,888.416138 220.438416C865.742905 220.438416,844.001022 229.446655,827.969833 245.477844C811.938644 261.509033,802.930405 283.250916,802.930405 305.924149C802.930405 328.597382,811.938644 350.339264,827.969833 366.370453C844.001022 382.401642,865.742905 391.409882,888.416138 391.409882C911.089371 391.409882,932.831253 382.401642,948.862442 366.370453C964.893631 350.339264,973.901871 328.597382,973.901871 305.924149Z" style="stroke:rgb(25.500488%,41.000366%,88.400269%); stroke-width: 2.500000;stroke-linecap: round;stroke-linejoin: round;stroke-miterlimit: 10.000000;fill: none;"></path>
  <path d="M1043.894287 168.041443C1043.894287 145.368210,1034.886047 123.626328,1018.854858 107.595139C1002.823669 91.563950,981.081787 82.555710,958.408554 82.555710C935.735321 82.555710,913.993439 91.563950,897.962250 107.595139C881.931061 123.626328,872.922821 145.368210,872.922821 168.041443C872.922821 190.714676,881.931061 212.456558,897.962250 228.487747C913.993439 244.518936,935.735321 253.527176,958.408554 253.527176C981.081787 253.527176,1002.823669 244.518936,1018.854858 228.487747C1034.886047 212.456558,1043.894287 190.714676,1043.894287 168.041443Z" style="stroke:rgb(25.500488%,41.000366%,88.400269%); stroke-width: 2.500000;stroke-linecap: round;stroke-linejoin: round;stroke-miterlimit: 10.000000;fill: none;"></path>
  <path d="M457.535904 1472.607071C457.535904 1449.933838,448.527664 1428.191956,432.496475 1412.160767C416.465286 1396.129578,394.723404 1387.121338,372.050171 1387.121338C349.376938 1387.121338,327.635056 1396.129578,311.603867 1412.160767C295.572678 1428.191956,286.564438 1449.933838,286.564438 1472.607071C286.564438 1495.280304,295.572678 1517.022186,311.603867 1533.053375C327.635056 1549.084564,349.376938 1558.092804,372.050171 1558.092804C394.723404 1558.092804,416.465286 1549.084564,432.496475 1533.053375C448.527664 1517.022186,457.535904 1495.280304,457.535904 1472.607071Z" style="stroke:rgb(25.500488%,41.000366%,88.400269%); stroke-width: 2.500000;stroke-linecap: round;stroke-linejoin: round;stroke-miterlimit: 10.000000;fill: none;"></path>
  <path d="M500.460434 1321.164459C500.460434 1298.491226,491.452194 1276.749344,475.421005 1260.718155C459.389816 1244.686966,437.647934 1235.678726,414.974701 1235.678726C392.301468 1235.678726,370.559586 1244.686966,354.528397 1260.718155C338.497208 1276.749344,329.488968 1298.491226,329.488968 1321.164459C329.488968 1343.837692,338.497208 1365.579575,354.528397 1381.610764C370.559586 1397.641953,392.301468 1406.650192,414.974701 1406.650192C437.647934 1406.650192,459.389816 1397.641953,475.421005 1381.610764C491.452194 1365.579575,500.460434 1343.837692,500.460434 1321.164459Z" style="stroke:rgb(25.500488%,41.000366%,88.400269%); stroke-width: 2.500000;stroke-linecap: round;stroke-linejoin: round;stroke-miterlimit: 10.000000;fill: none;"></path>
  <path d="M538.570877 1189.549149C538.570877 1166.875916,529.562637 1145.134033,513.531448 1129.102844C497.500259 1113.071655,475.758377 1104.063416,453.085144 1104.063416C430.411911 1104.063416,408.670029 1113.071655,392.638840 1129.102844C376.607651 1145.134033,367.599411 1166.875916,367.599411 1189.549149C367.599411 1212.222382,376.607651 1233.964264,392.638840 1249.995453C408.670029 1266.026642,430.411911 1275.034882,453.085144 1275.034882C475.758377 1275.034882,497.500259 1266.026642,513.531448 1249.995453C529.562637 1233.964264,538.570877 1212.222382,538.570877 1189.549149Z" style="stroke:rgb(25.500488%,41.000366%,88.400269%); stroke-width: 2.500000;stroke-linecap: round;stroke-linejoin: round;stroke-miterlimit: 10.000000;fill: none;"></path>
  <path d="M597.300140 1045.230347C597.300140 1022.557114,588.291901 1000.815231,572.260712 984.784042C556.229523 968.752853,534.487640 959.744614,511.814407 959.744614C489.141174 959.744614,467.399292 968.752853,451.368103 984.784042C435.336914 1000.815231,426.328674 1022.557114,426.328674 1045.230347C426.328674 1067.903580,435.336914 1089.645462,451.368103 1105.676651C467.399292 1121.707840,489.141174 1130.716080,511.814407 1130.716080C534.487640 1130.716080,556.229523 1121.707840,572.260712 1105.676651C588.291901 1089.645462,597.300140 1067.903580,597.300140 1045.230347Z" style="stroke:rgb(25.500488%,41.000366%,88.400269%); stroke-width: 2.500000;stroke-linecap: round;stroke-linejoin: round;stroke-miterlimit: 10.000000;fill: none;"></path>
  <path d="M647.491211 901.677139C647.491211 879.003906,638.482971 857.262024,622.451782 841.230835C606.420593 825.199646,584.678711 816.191406,562.005478 816.191406C539.332245 816.191406,517.590363 825.199646,501.559174 841.230835C485.527985 857.262024,476.519745 879.003906,476.519745 901.677139C476.519745 924.350372,485.527985 946.092255,501.559174 962.123444C517.590363 978.154633,539.332245 987.162872,562.005478 987.162872C584.678711 987.162872,606.420593 978.154633,622.451782 962.123444C638.482971 946.092255,647.491211 924.350372,647.491211 901.677139Z" style="stroke:rgb(25.500488%,41.000366%,88.400269%); stroke-width: 2.500000;stroke-linecap: round;stroke-linejoin: round;stroke-miterlimit: 10.000000;fill: none;"></path>
  <path d="M685.588684 754.763138C685.588684 732.089905,676.580444 710.348022,660.549255 694.316833C644.518066 678.285645,622.776184 669.277405,600.102951 669.277405C577.429718 669.277405,555.687836 678.285645,539.656647 694.316833C523.625458 710.348022,514.617218 732.089905,514.617218 754.763138C514.617218 777.436371,523.625458 799.178253,539.656647 815.209442C555.687836 831.240631,577.429718 840.248871,600.102951 840.248871C622.776184 840.248871,644.518066 831.240631,660.549255 815.209442C676.580444 799.178253,685.588684 777.436371,685.588684 754.763138Z" style="stroke:rgb(25.500488%,41.000366%,88.400269%); stroke-width: 2.500000;stroke-linecap: round;stroke-linejoin: round;stroke-miterlimit: 10.000000;fill: none;"></path>
  <path d="M723.763992 608.926147C723.763992 586.252914,714.755753 564.511032,698.724564 548.479843C682.693375 532.448654,660.951492 523.440414,638.278259 523.440414C615.605026 523.440414,593.863144 532.448654,577.831955 548.479843C561.800766 564.511032,552.792526 586.252914,552.792526 608.926147C552.792526 631.599380,561.800766 653.341263,577.831955 669.372452C593.863144 685.403641,615.605026 694.411880,638.278259 694.411880C660.951492 694.411880,682.693375 685.403641,698.724564 669.372452C714.755753 653.341263,723.763992 631.599380,723.763992 608.926147Z" style="stroke:rgb(25.500488%,41.000366%,88.400269%); stroke-width: 2.500000;stroke-linecap: round;stroke-linejoin: round;stroke-miterlimit: 10.000000;fill: none;"></path>
  <path d="M771.593445 479.023666C771.593445 456.350433,762.585205 434.608551,746.554016 418.577362C730.522827 402.546173,708.780945 393.537933,686.107712 393.537933C663.434479 393.537933,641.692596 402.546173,625.661407 418.577362C609.630219 434.608551,600.621979 456.350433,600.621979 479.023666C600.621979 501.696899,609.630219 523.438782,625.661407 539.469971C641.692596 555.501160,663.434479 564.509399,686.107712 564.509399C708.780945 564.509399,730.522827 555.501160,746.554016 539.469971C762.585205 523.438782,771.593445 501.696899,771.593445 479.023666Z" style="stroke:rgb(25.500488%,41.000366%,88.400269%); stroke-width: 2.500000;stroke-linecap: round;stroke-linejoin: round;stroke-miterlimit: 10.000000;fill: none;"></path>
  <path d="M818.579453 339.220505C818.579453 316.547272,809.571213 294.805389,793.540024 278.774200C777.508835 262.743011,755.766953 253.734772,733.093719 253.734772C710.420486 253.734772,688.678604 262.743011,672.647415 278.774200C656.616226 294.805389,647.607986 316.547272,647.607986 339.220505C647.607986 361.893738,656.616226 383.635620,672.647415 399.666809C688.678604 415.697998,710.420486 424.706238,733.093719 424.706238C755.766953 424.706238,777.508835 415.697998,793.540024 399.666809C809.571213 383.635620,818.579453 361.893738,818.579453 339.220505Z" style="stroke:rgb(25.500488%,41.000366%,88.400269%); stroke-width: 2.500000;stroke-linecap: round;stroke-linejoin: round;stroke-miterlimit: 10.000000;fill: none;"></path>
  <path d="M890.855637 220.866638C890.855637 198.193405,881.847397 176.451523,865.816208 160.420334C849.785019 144.389145,828.043137 135.380905,805.369904 135.380905C782.696671 135.380905,760.954788 144.389145,744.923599 160.420334C728.892410 176.451523,719.884171 198.193405,719.884171 220.866638C719.884171 243.539871,728.892410 265.281754,744.923599 281.312943C760.954788 297.344131,782.696671 306.352371,805.369904 306.352371C828.043137 306.352371,849.785019 297.344131,865.816208 281.312943C881.847397 265.281754,890.855637 243.539871,890.855637 220.866638Z" style="stroke:rgb(25.500488%,41.000366%,88.400269%); stroke-width: 2.500000;stroke-linecap: round;stroke-linejoin: round;stroke-miterlimit: 10.000000;fill: none;"></path>
  <path d="M935.454056 86.098145C935.454056 63.424911,926.445816 41.683029,910.414627 25.651840C894.383438 9.620651,872.641556 0.612411,849.968323 0.612411C827.295090 0.612411,805.553207 9.620651,789.522018 25.651840C773.490829 41.683029,764.482590 63.424911,764.482590 86.098145C764.482590 108.771378,773.490829 130.513260,789.522018 146.544449C805.553207 162.575638,827.295090 171.583878,849.968323 171.583878C872.641556 171.583878,894.383438 162.575638,910.414627 146.544449C926.445816 130.513260,935.454056 108.771378,935.454056 86.098145Z" style="stroke:rgb(25.500488%,41.000366%,88.400269%); stroke-width: 2.500000;stroke-linecap: round;stroke-linejoin: round;stroke-miterlimit: 10.000000;fill: none;"></path>
  <path d="M368.248230 1354.240234C368.248230 1331.567001,359.239990 1309.825119,343.208801 1293.793930C327.177612 1277.762741,305.435730 1268.754501,282.762497 1268.754501C260.089264 1268.754501,238.347382 1277.762741,222.316193 1293.793930C206.285004 1309.825119,197.276764 1331.567001,197.276764 1354.240234C197.276764 1376.913467,206.285004 1398.655350,222.316193 1414.686539C238.347382 1430.717728,260.089264 1439.725967,282.762497 1439.725967C305.435730 1439.725967,327.177612 1430.717728,343.208801 1414.686539C359.239990 1398.655350,368.248230 1376.913467,368.248230 1354.240234Z" style="stroke:rgb(25.500488%,41.000366%,88.400269%); stroke-width: 2.500000;stroke-linecap: round;stroke-linejoin: round;stroke-miterlimit: 10.000000;fill: none;"></path>
  <path d="M387.751114 1219.199249C387.751114 1196.526016,378.742874 1174.784134,362.711685 1158.752945C346.680496 1142.721756,324.938614 1133.713516,302.265381 1133.713516C279.592148 1133.713516,257.850266 1142.721756,241.819077 1158.752945C225.787888 1174.784134,216.779648 1196.526016,216.779648 1219.199249C216.779648 1241.872482,225.787888 1263.614365,241.819077 1279.645554C257.850266 1295.676743,279.592148 1304.684982,302.265381 1304.684982C324.938614 1304.684982,346.680496 1295.676743,362.711685 1279.645554C378.742874 1263.614365,387.751114 1241.872482,387.751114 1219.199249Z" style="stroke:rgb(25.500488%,41.000366%,88.400269%); stroke-width: 2.500000;stroke-linecap: round;stroke-linejoin: round;stroke-miterlimit: 10.000000;fill: none;"></path>
  <path d="M458.353394 1082.159973C458.353394 1059.486740,449.345154 1037.744858,433.313965 1021.713669C417.282776 1005.682480,395.540894 996.674240,372.867661 996.674240C350.194427 996.674240,328.452545 1005.682480,312.421356 1021.713669C296.390167 1037.744858,287.381927 1059.486740,287.381927 1082.159973C287.381927 1104.833206,296.390167 1126.575089,312.421356 1142.606277C328.452545 1158.637466,350.194427 1167.645706,372.867661 1167.645706C395.540894 1167.645706,417.282776 1158.637466,433.313965 1142.606277C449.345154 1126.575089,458.353394 1104.833206,458.353394 1082.159973Z" style="stroke:rgb(25.500488%,41.000366%,88.400269%); stroke-width: 2.500000;stroke-linecap: round;stroke-linejoin: round;stroke-miterlimit: 10.000000;fill: none;"></path>
  <path d="M504.145615 934.285767C504.145615 911.612534,495.137375 889.870651,479.106186 873.839462C463.074997 857.808273,441.333115 848.800034,418.659882 848.800034C395.986649 848.800034,374.244766 857.808273,358.213577 873.839462C342.182388 889.870651,333.174149 911.612534,333.174149 934.285767C333.174149 956.959000,342.182388 978.700882,358.213577 994.732071C374.244766 1010.763260,395.986649 1019.771500,418.659882 1019.771500C441.333115 1019.771500,463.074997 1010.763260,479.106186 994.732071C495.137375 978.700882,504.145615 956.959000,504.145615 934.285767Z" style="stroke:rgb(25.500488%,41.000366%,88.400269%); stroke-width: 2.500000;stroke-linecap: round;stroke-linejoin: round;stroke-miterlimit: 10.000000;fill: none;"></path>
  <path d="M547.070145 792.069077C547.070145 769.395844,538.061905 747.653961,522.030716 731.622772C505.999527 715.591583,484.257645 706.583344,461.584412 706.583344C438.911179 706.583344,417.169296 715.591583,401.138107 731.622772C385.106918 747.653961,376.098679 769.395844,376.098679 792.069077C376.098679 814.742310,385.106918 836.484192,401.138107 852.515381C417.169296 868.546570,438.911179 877.554810,461.584412 877.554810C484.257645 877.554810,505.999527 868.546570,522.030716 852.515381C538.061905 836.484192,547.070145 814.742310,547.070145 792.069077Z" style="stroke:rgb(25.500488%,41.000366%,88.400269%); stroke-width: 2.500000;stroke-linecap: round;stroke-linejoin: round;stroke-miterlimit: 10.000000;fill: none;"></path>
  <path d="M588.735992 644.415451C588.735992 621.742218,579.727753 600.000336,563.696564 583.969147C547.665375 567.937958,525.923492 558.929718,503.250259 558.929718C480.577026 558.929718,458.835144 567.937958,442.803955 583.969147C426.772766 600.000336,417.764526 621.742218,417.764526 644.415451C417.764526 667.088684,426.772766 688.830566,442.803955 704.861755C458.835144 720.892944,480.577026 729.901184,503.250259 729.901184C525.923492 729.901184,547.665375 720.892944,563.696564 704.861755C579.727753 688.830566,588.735992 667.088684,588.735992 644.415451Z" style="stroke:rgb(25.500488%,41.000366%,88.400269%); stroke-width: 2.500000;stroke-linecap: round;stroke-linejoin: round;stroke-miterlimit: 10.000000;fill: none;"></path>
  <path d="M620.514160 496.645035C620.514160 473.971802,611.505920 452.229919,595.474731 436.198730C579.443542 420.167542,557.701660 411.159302,535.028427 411.159302C512.355194 411.159302,490.613312 420.167542,474.582123 436.198730C458.550934 452.229919,449.542694 473.971802,449.542694 496.645035C449.542694 519.318268,458.550934 541.060150,474.582123 557.091339C490.613312 573.122528,512.355194 582.130768,535.028427 582.130768C557.701660 582.130768,579.443542 573.122528,595.474731 557.091339C611.505920 541.060150,620.514160 519.318268,620.514160 496.645035Z" style="stroke:rgb(25.500488%,41.000366%,88.400269%); stroke-width: 2.500000;stroke-linecap: round;stroke-linejoin: round;stroke-miterlimit: 10.000000;fill: none;"></path>
  <path d="M672.028778 371.349014C672.028778 348.675781,663.020538 326.933899,646.989349 310.902710C630.958160 294.871521,609.216278 285.863281,586.543045 285.863281C563.869812 285.863281,542.127930 294.871521,526.096741 310.902710C510.065552 326.933899,501.057312 348.675781,501.057312 371.349014C501.057312 394.022247,510.065552 415.764130,526.096741 431.795319C542.127930 447.826508,563.869812 456.834747,586.543045 456.834747C609.216278 456.834747,630.958160 447.826508,646.989349 431.795319C663.020538 415.764130,672.028778 394.022247,672.028778 371.349014Z" style="stroke:rgb(25.500488%,41.000366%,88.400269%); stroke-width: 2.500000;stroke-linecap: round;stroke-linejoin: round;stroke-miterlimit: 10.000000;fill: none;"></path>
  <path d="M729.979492 229.988739C729.979492 207.315506,720.971252 185.573624,704.940063 169.542435C688.908875 153.511246,667.166992 144.503006,644.493759 144.503006C621.820526 144.503006,600.078644 153.511246,584.047455 169.542435C568.016266 185.573624,559.008026 207.315506,559.008026 229.988739C559.008026 252.661972,568.016266 274.403854,584.047455 290.435043C600.078644 306.466232,621.820526 315.474472,644.493759 315.474472C667.166992 315.474472,688.908875 306.466232,704.940063 290.435043C720.971252 274.403854,729.979492 252.661972,729.979492 229.988739Z" style="stroke:rgb(25.500488%,41.000366%,88.400269%); stroke-width: 2.500000;stroke-linecap: round;stroke-linejoin: round;stroke-miterlimit: 10.000000;fill: none;"></path>
  <path d="M803.695999 111.544037C803.695999 88.870804,794.687759 67.128922,778.656570 51.097733C762.625381 35.066544,740.883499 26.058304,718.210266 26.058304C695.537033 26.058304,673.795151 35.066544,657.763962 51.097733C641.732773 67.128922,632.724533 88.870804,632.724533 111.544037C632.724533 134.217270,641.732773 155.959152,657.763962 171.990341C673.795151 188.021530,695.537033 197.029770,718.210266 197.029770C740.883499 197.029770,762.625381 188.021530,778.656570 171.990341C794.687759 155.959152,803.695999 134.217270,803.695999 111.544037Z" style="stroke:rgb(25.500488%,41.000366%,88.400269%); stroke-width: 2.500000;stroke-linecap: round;stroke-linejoin: round;stroke-miterlimit: 10.000000;fill: none;"></path>
  <path d="M327.529617 1124.241058C327.529617 1101.567825,318.521378 1079.825943,302.490189 1063.794754C286.459000 1047.763565,264.717117 1038.755325,242.043884 1038.755325C219.370651 1038.755325,197.628769 1047.763565,181.597580 1063.794754C165.566391 1079.825943,156.558151 1101.567825,156.558151 1124.241058C156.558151 1146.914291,165.566391 1168.656174,181.597580 1184.687363C197.628769 1200.718552,219.370651 1209.726791,242.043884 1209.726791C264.717117 1209.726791,286.459000 1200.718552,302.490189 1184.687363C318.521378 1168.656174,327.529617 1146.914291,327.529617 1124.241058Z" style="stroke:rgb(25.500488%,41.000366%,88.400269%); stroke-width: 2.500000;stroke-linecap: round;stroke-linejoin: round;stroke-miterlimit: 10.000000;fill: none;"></path>
  <path d="M369.169510 969.671249C369.169510 946.998016,360.161270 925.256134,344.130081 909.224945C328.098892 893.193756,306.357010 884.185516,283.683777 884.185516C261.010544 884.185516,239.268661 893.193756,223.237473 909.224945C207.206284 925.256134,198.198044 946.998016,198.198044 969.671249C198.198044 992.344482,207.206284 1014.086365,223.237473 1030.117554C239.268661 1046.148743,261.010544 1055.156982,283.683777 1055.156982C306.357010 1055.156982,328.098892 1046.148743,344.130081 1030.117554C360.161270 1014.086365,369.169510 992.344482,369.169510 969.671249Z" style="stroke:rgb(25.500488%,41.000366%,88.400269%); stroke-width: 2.500000;stroke-linecap: round;stroke-linejoin: round;stroke-miterlimit: 10.000000;fill: none;"></path>
  <path d="M405.061066 820.849777C405.061066 798.176544,396.052826 776.434662,380.021637 760.403473C363.990448 744.372284,342.248566 735.364044,319.575333 735.364044C296.902100 735.364044,275.160217 744.372284,259.129028 760.403473C243.097839 776.434662,234.089600 798.176544,234.089600 820.849777C234.089600 843.523010,243.097839 865.264893,259.129028 881.296082C275.160217 897.327271,296.902100 906.335510,319.575333 906.335510C342.248566 906.335510,363.990448 897.327271,380.021637 881.296082C396.052826 865.264893,405.061066 843.523010,405.061066 820.849777Z" style="stroke:rgb(25.500488%,41.000366%,88.400269%); stroke-width: 2.500000;stroke-linecap: round;stroke-linejoin: round;stroke-miterlimit: 10.000000;fill: none;"></path>
  <path d="M451.553986 677.906433C451.553986 655.233200,442.545746 633.491318,426.514557 617.460129C410.483368 601.428940,388.741486 592.420700,366.068253 592.420700C343.395020 592.420700,321.653137 601.428940,305.621948 617.460129C289.590759 633.491318,280.582520 655.233200,280.582520 677.906433C280.582520 700.579666,289.590759 722.321548,305.621948 738.352737C321.653137 754.383926,343.395020 763.392166,366.068253 763.392166C388.741486 763.392166,410.483368 754.383926,426.514557 738.352737C442.545746 722.321548,451.553986 700.579666,451.553986 677.906433Z" style="stroke:rgb(25.500488%,41.000366%,88.400269%); stroke-width: 2.500000;stroke-linecap: round;stroke-linejoin: round;stroke-miterlimit: 10.000000;fill: none;"></path>
  <path d="M485.538071 532.030518C485.538071 509.357285,476.529831 487.615402,460.498642 471.584213C444.467453 455.553024,422.725571 446.544785,400.052338 446.544785C377.379105 446.544785,355.637222 455.553024,339.606033 471.584213C323.574844 487.615402,314.566605 509.357285,314.566605 532.030518C314.566605 554.703751,323.574844 576.445633,339.606033 592.476822C355.637222 608.508011,377.379105 617.516251,400.052338 617.516251C422.725571 617.516251,444.467453 608.508011,460.498642 592.476822C476.529831 576.445633,485.538071 554.703751,485.538071 532.030518Z" style="stroke:rgb(25.500488%,41.000366%,88.400269%); stroke-width: 2.500000;stroke-linecap: round;stroke-linejoin: round;stroke-miterlimit: 10.000000;fill: none;"></path>
  <path d="M518.003952 384.052505C518.003952 361.379272,508.995712 339.637390,492.964523 323.606201C476.933334 307.575012,455.191452 298.566772,432.518219 298.566772C409.844986 298.566772,388.103104 307.575012,372.071915 323.606201C356.040726 339.637390,347.032486 361.379272,347.032486 384.052505C347.032486 406.725739,356.040726 428.467621,372.071915 444.498810C388.103104 460.529999,409.844986 469.538239,432.518219 469.538239C455.191452 469.538239,476.933334 460.529999,492.964523 444.498810C508.995712 428.467621,518.003952 406.725739,518.003952 384.052505Z" style="stroke:rgb(25.500488%,41.000366%,88.400269%); stroke-width: 2.500000;stroke-linecap: round;stroke-linejoin: round;stroke-miterlimit: 10.000000;fill: none;"></path>
  <path d="M586.815552 255.914734C586.815552 233.241501,577.807312 211.499619,561.776123 195.468430C545.744934 179.437241,524.003052 170.429001,501.329819 170.429001C478.656586 170.429001,456.914703 179.437241,440.883514 195.468430C424.852325 211.499619,415.844086 233.241501,415.844086 255.914734C415.844086 278.587967,424.852325 300.329849,440.883514 316.361038C456.914703 332.392227,478.656586 341.400467,501.329819 341.400467C524.003052 341.400467,545.744934 332.392227,561.776123 316.361038C577.807312 300.329849,586.815552 278.587967,586.815552 255.914734Z" style="stroke:rgb(25.500488%,41.000366%,88.400269%); stroke-width: 2.500000;stroke-linecap: round;stroke-linejoin: round;stroke-miterlimit: 10.000000;fill: none;"></path>
  <path d="M251.503372 987.110962C251.503372 964.437729,242.495132 942.695847,226.463943 926.664658C210.432755 910.633469,188.690872 901.625229,166.017639 901.625229C143.344406 901.625229,121.602524 910.633469,105.571335 926.664658C89.540146 942.695847,80.531906 964.437729,80.531906 987.110962C80.531906 1009.784195,89.540146 1031.526077,105.571335 1047.557266C121.602524 1063.588455,143.344406 1072.596695,166.017639 1072.596695C188.690872 1072.596695,210.432755 1063.588455,226.463943 1047.557266C242.495132 1031.526077,251.503372 1009.784195,251.503372 987.110962Z" style="stroke:rgb(25.500488%,41.000366%,88.400269%); stroke-width: 2.500000;stroke-linecap: round;stroke-linejoin: round;stroke-miterlimit: 10.000000;fill: none;"></path>
  <path d="M270.539124 855.028503C270.539124 832.355270,261.530884 810.613388,245.499695 794.582199C229.468506 778.551010,207.726624 769.542770,185.053391 769.542770C162.380157 769.542770,140.638275 778.551010,124.607086 794.582199C108.575897 810.613388,99.567657 832.355270,99.567657 855.028503C99.567657 877.701736,108.575897 899.443619,124.607086 915.474808C140.638275 931.505997,162.380157 940.514236,185.053391 940.514236C207.726624 940.514236,229.468506 931.505997,245.499695 915.474808C261.530884 899.443619,270.539124 877.701736,270.539124 855.028503Z" style="stroke:rgb(25.500488%,41.000366%,88.400269%); stroke-width: 2.500000;stroke-linecap: round;stroke-linejoin: round;stroke-miterlimit: 10.000000;fill: none;"></path>
  <path d="M310.012039 705.467407C310.012039 682.794174,301.003799 661.052292,284.972610 645.021103C268.941422 628.989914,247.199539 619.981674,224.526306 619.981674C201.853073 619.981674,180.111191 628.989914,164.080002 645.021103C148.048813 661.052292,139.040573 682.794174,139.040573 705.467407C139.040573 728.140640,148.048813 749.882523,164.080002 765.913712C180.111191 781.944901,201.853073 790.953140,224.526306 790.953140C247.199539 790.953140,268.941422 781.944901,284.972610 765.913712C301.003799 749.882523,310.012039 728.140640,310.012039 705.467407Z" style="stroke:rgb(25.500488%,41.000366%,88.400269%); stroke-width: 2.500000;stroke-linecap: round;stroke-linejoin: round;stroke-miterlimit: 10.000000;fill: none;"></path>
  <path d="M343.892319 582.545990C343.892319 559.872757,334.884079 538.130875,318.852890 522.099686C302.821701 506.068497,281.079819 497.060257,258.406586 497.060257C235.733353 497.060257,213.991470 506.068497,197.960281 522.099686C181.929092 538.130875,172.920853 559.872757,172.920853 582.545990C172.920853 605.219223,181.929092 626.961105,197.960281 642.992294C213.991470 659.023483,235.733353 668.031723,258.406586 668.031723C281.079819 668.031723,302.821701 659.023483,318.852890 642.992294C334.884079 626.961105,343.892319 605.219223,343.892319 582.545990Z" style="stroke:rgb(25.500488%,41.000366%,88.400269%); stroke-width: 2.500000;stroke-linecap: round;stroke-linejoin: round;stroke-miterlimit: 10.000000;fill: none;"></path>
  <path d="M412.690933 434.269516C412.690933 411.596283,403.682693 389.854401,387.651505 373.823212C371.620316 357.792023,349.878433 348.783783,327.205200 348.783783C304.531967 348.783783,282.790085 357.792023,266.758896 373.823212C250.727707 389.854401,241.719467 411.596283,241.719467 434.269516C241.719467 456.942749,250.727707 478.684631,266.758896 494.715820C282.790085 510.747009,304.531967 519.755249,327.205200 519.755249C349.878433 519.755249,371.620316 510.747009,387.651505 494.715820C403.682693 478.684631,412.690933 456.942749,412.690933 434.269516Z" style="stroke:rgb(25.500488%,41.000366%,88.400269%); stroke-width: 2.500000;stroke-linecap: round;stroke-linejoin: round;stroke-miterlimit: 10.000000;fill: none;"></path>
  <path d="M171.415649 760.161148C171.415649 737.487915,162.407410 715.746033,146.376221 699.714844C130.345032 683.683655,108.603149 674.675415,85.929916 674.675415C63.256683 674.675415,41.514801 683.683655,25.483612 699.714844C9.452423 715.746033,0.444183 737.487915,0.444183 760.161148C0.444183 782.834381,9.452423 804.576263,25.483612 820.607452C41.514801 836.638641,63.256683 845.646881,85.929916 845.646881C108.603149 845.646881,130.345032 836.638641,146.376221 820.607452C162.407410 804.576263,171.415649 782.834381,171.415649 760.161148Z" style="stroke:rgb(25.500488%,41.000366%,88.400269%); stroke-width: 2.500000;stroke-linecap: round;stroke-linejoin: round;stroke-miterlimit: 10.000000;fill: none;"></path>
  <path d="M187.337173 617.217804C187.337173 594.544571,178.328934 572.802689,162.297745 556.771500C146.266556 540.740311,124.524673 531.732071,101.851440 531.732071C79.178207 531.732071,57.436325 540.740311,41.405136 556.771500C25.373947 572.802689,16.365707 594.544571,16.365707 617.217804C16.365707 639.891037,25.373947 661.632919,41.405136 677.664108C57.436325 693.695297,79.178207 702.703537,101.851440 702.703537C124.524673 702.703537,146.266556 693.695297,162.297745 677.664108C178.328934 661.632919,187.337173 639.891037,187.337173 617.217804Z" style="stroke:rgb(25.500488%,41.000366%,88.400269%); stroke-width: 2.500000;stroke-linecap: round;stroke-linejoin: round;stroke-miterlimit: 10.000000;fill: none;"></path>
  <path d="M270.046036 497.151093C270.046036 474.477859,261.037796 452.735977,245.006607 436.704788C228.975418 420.673599,207.233536 411.665359,184.560303 411.665359C161.887070 411.665359,140.145187 420.673599,124.113998 436.704788C108.082809 452.735977,99.074570 474.477859,99.074570 497.151093C99.074570 519.824326,108.082809 541.566208,124.113998 557.597397C140.145187 573.628586,161.887070 582.636826,184.560303 582.636826C207.233536 582.636826,228.975418 573.628586,245.006607 557.597397C261.037796 541.566208,270.046036 519.824326,270.046036 497.151093Z" style="stroke:rgb(25.500488%,41.000366%,88.400269%); stroke-width: 2.500000;stroke-linecap: round;stroke-linejoin: round;stroke-miterlimit: 10.000000;fill: none;"></path>
</svg>
