<?xml version="1.0"?>
<!-- Created by MetaPost 2.00 on 2022.03.02:1201 -->
<svg version="1.1" xmlns="http://www.w3.org/2000/svg" xmlns:xlink="http://www.w3.org/1999/xlink" width="1868.289536" height="1853.795380" viewBox="0 0 1868.289536 1853.795380">
<!-- Original BoundingBox: -944.551498 -922.933533 923.738037 930.861847 -->
  <path d="M944.000000 79.606476L484.248215 214.608521L170.450195 576.729065L102.261444 1051.026917L301.312912 1486.889938L704.411591 1745.942307L1183.588409 1745.942307L1586.687088 1486.889938L1785.738556 1051.026917L1717.549805 576.729065L1403.751785 214.608521L944.000000 79.606476Z" style="fill: rgb(100.000000%,100.000000%,100.000000%);stroke: none;"></path>
  <path d="M944.000000 79.606476L484.248215 214.608521" style="stroke:rgb(0.000000%,0.000000%,0.000000%); stroke-width: 2.500000;stroke-linecap: round;stroke-linejoin: round;stroke-miterlimit: 10.000000;fill: none;"></path>
  <path d="M484.248215 214.608521L170.450195 576.729065" style="stroke:rgb(0.000000%,0.000000%,0.000000%); stroke-width: 2.500000;stroke-linecap: round;stroke-linejoin: round;stroke-miterlimit: 10.000000;fill: none;"></path>
  <path d="M170.450195 576.729065L102.261444 1051.026917" style="stroke:rgb(0.000000%,0.000000%,0.000000%); stroke-width: 2.500000;stroke-linecap: round;stroke-linejoin: round;stroke-miterlimit: 10.000000;fill: none;"></path>
  <path d="M102.261444 1051.026917L301.312912 1486.889938" style="stroke:rgb(0.000000%,0.000000%,0.000000%); stroke-width: 2.500000;stroke-linecap: round;stroke-linejoin: round;stroke-miterlimit: 10.000000;fill: none;"></path>
  <path d="M301.312912 1486.889938L704.411591 1745.942307" style="stroke:rgb(0.000000%,0.000000%,0.000000%); stroke-width: 2.500000;stroke-linecap: round;stroke-linejoin: round;stroke-miterlimit: 10.000000;fill: none;"></path>
  <path d="M704.411591 1745.942307L1183.588409 1745.942307" style="stroke:rgb(0.000000%,0.000000%,0.000000%); stroke-width: 2.500000;stroke-linecap: round;stroke-linejoin: round;stroke-miterlimit: 10.000000;fill: none;"></path>
  <path d="M1183.588409 1745.942307L1586.687088 1486.889938" style="stroke:rgb(0.000000%,0.000000%,0.000000%); stroke-width: 2.500000;stroke-linecap: round;stroke-linejoin: round;stroke-miterlimit: 10.000000;fill: none;"></path>
  <path d="M1586.687088 1486.889938L1785.738556 1051.026917" style="stroke:rgb(0.000000%,0.000000%,0.000000%); stroke-width: 2.500000;stroke-linecap: round;stroke-linejoin: round;stroke-miterlimit: 10.000000;fill: none;"></path>
  <path d="M1785.738556 1051.026917L1717.549805 576.729065" style="stroke:rgb(0.000000%,0.000000%,0.000000%); stroke-width: 2.500000;stroke-linecap: round;stroke-linejoin: round;stroke-miterlimit: 10.000000;fill: none;"></path>
  <path d="M1717.549805 576.729065L1403.751785 214.608521" style="stroke:rgb(0.000000%,0.000000%,0.000000%); stroke-width: 2.500000;stroke-linecap: round;stroke-linejoin: round;stroke-miterlimit: 10.000000;fill: none;"></path>
  <path d="M1403.751785 214.608521L944.000000 79.606476" style="stroke:rgb(0.000000%,0.000000%,0.000000%); stroke-width: 2.500000;stroke-linecap: round;stroke-linejoin: round;stroke-miterlimit: 10.000000;fill: none;"></path>
  <path d="M1834.463333 1193.139801C1834.463333 1106.380615,1799.993256 1023.185242,1738.649887 961.841888C1677.306534 900.498520,1594.111160 866.028442,1507.351974 866.028442C1420.592789 866.028442,1337.397415 900.498520,1276.054062 961.841888C1214.710693 1023.185242,1180.240616 1106.380615,1180.240616 1193.139801C1180.240616 1279.898987,1214.710693 1363.094360,1276.054062 1424.437714C1337.397415 1485.781082,1420.592789 1520.251160,1507.351974 1520.251160C1594.111160 1520.251160,1677.306534 1485.781082,1738.649887 1424.437714C1799.993256 1363.094360,1834.463333 1279.898987,1834.463333 1193.139801Z" style="stroke:rgb(25.500488%,41.000366%,88.400269%); stroke-width: 2.500000;stroke-linecap: round;stroke-linejoin: round;stroke-miterlimit: 10.000000;fill: none;"></path>
  <path d="M1866.488037 791.364685C1866.488037 704.605499,1832.017960 621.410126,1770.674591 560.066772C1709.331238 498.723404,1626.135864 464.253326,1539.376678 464.253326C1452.617493 464.253326,1369.422119 498.723404,1308.078766 560.066772C1246.735397 621.410126,1212.265320 704.605499,1212.265320 791.364685C1212.265320 878.123871,1246.735397 961.319244,1308.078766 1022.662598C1369.422119 1084.005966,1452.617493 1118.476044,1539.376678 1118.476044C1626.135864 1118.476044,1709.331238 1084.005966,1770.674591 1022.662598C1832.017960 961.319244,1866.488037 878.123871,1866.488037 791.364685Z" style="stroke:rgb(25.500488%,41.000366%,88.400269%); stroke-width: 2.500000;stroke-linecap: round;stroke-linejoin: round;stroke-miterlimit: 10.000000;fill: none;"></path>
  <path d="M1538.286697 1487.798248C1538.286697 1401.039062,1503.816620 1317.843689,1442.473251 1256.500336C1381.129898 1195.156967,1297.934525 1160.686890,1211.175339 1160.686890C1124.416153 1160.686890,1041.220779 1195.156967,979.877426 1256.500336C918.534058 1317.843689,884.063980 1401.039062,884.063980 1487.798248C884.063980 1574.557434,918.534058 1657.752808,979.877426 1719.096161C1041.220779 1780.439529,1124.416153 1814.909607,1211.175339 1814.909607C1297.934525 1814.909607,1381.129898 1780.439529,1442.473251 1719.096161C1503.816620 1657.752808,1538.286697 1574.557434,1538.286697 1487.798248Z" style="stroke:rgb(25.500488%,41.000366%,88.400269%); stroke-width: 2.500000;stroke-linecap: round;stroke-linejoin: round;stroke-miterlimit: 10.000000;fill: none;"></path>
  <path d="M1228.108978 327.499512C1228.108978 240.740326,1193.638901 157.544952,1132.295532 96.201599C1070.952179 34.858231,987.756805 0.388153,900.997620 0.388153C814.238434 0.388153,731.043060 34.858231,669.699707 96.201599C608.356339 157.544952,573.886261 240.740326,573.886261 327.499512C573.886261 414.258698,608.356339 497.454071,669.699707 558.797424C731.043060 620.140793,814.238434 654.610870,900.997620 654.610870C987.756805 654.610870,1070.952179 620.140793,1132.295532 558.797424C1193.638901 497.454071,1228.108978 414.258698,1228.108978 327.499512Z" style="stroke:rgb(25.500488%,41.000366%,88.400269%); stroke-width: 2.500000;stroke-linecap: round;stroke-linejoin: round;stroke-miterlimit: 10.000000;fill: none;"></path>
  <path d="M1633.024292 446.398376C1633.024292 359.639191,1598.554214 276.443817,1537.210846 215.100464C1475.867493 153.757095,1392.672119 119.287018,1305.912933 119.287018C1219.153748 119.287018,1135.958374 153.757095,1074.615021 215.100464C1013.271652 276.443817,978.801575 359.639191,978.801575 446.398376C978.801575 533.157562,1013.271652 616.352936,1074.615021 677.696289C1135.958374 739.039658,1219.153748 773.509735,1305.912933 773.509735C1392.672119 773.509735,1475.867493 739.039658,1537.210846 677.696289C1598.554214 616.352936,1633.024292 533.157562,1633.024292 446.398376Z" style="stroke:rgb(25.500488%,41.000366%,88.400269%); stroke-width: 2.500000;stroke-linecap: round;stroke-linejoin: round;stroke-miterlimit: 10.000000;fill: none;"></path>
  <path d="M1096.532593 1524.572174C1096.532593 1437.812988,1062.062515 1354.617615,1000.719147 1293.274261C939.375793 1231.930893,856.180420 1197.460815,769.421234 1197.460815C682.662048 1197.460815,599.466675 1231.930893,538.123322 1293.274261C476.779953 1354.617615,442.309875 1437.812988,442.309875 1524.572174C442.309875 1611.331360,476.779953 1694.526733,538.123322 1755.870087C599.466675 1817.213455,682.662048 1851.683533,769.421234 1851.683533C856.180420 1851.683533,939.375793 1817.213455,1000.719147 1755.870087C1062.062515 1694.526733,1096.532593 1611.331360,1096.532593 1524.572174Z" style="stroke:rgb(25.500488%,41.000366%,88.400269%); stroke-width: 2.500000;stroke-linecap: round;stroke-linejoin: round;stroke-miterlimit: 10.000000;fill: none;"></path>
  <path d="M1267.984146 940.640305C1267.984146 853.881119,1233.514069 770.685745,1172.170700 709.342392C1110.827347 647.999023,1027.631973 613.528946,940.872787 613.528946C854.113602 613.528946,770.918228 647.999023,709.574875 709.342392C648.231506 770.685745,613.761429 853.881119,613.761429 940.640305C613.761429 1027.399490,648.231506 1110.594864,709.574875 1171.938217C770.918228 1233.281586,854.113602 1267.751663,940.872787 1267.751663C1027.631973 1267.751663,1110.827347 1233.281586,1172.170700 1171.938217C1233.514069 1110.594864,1267.984146 1027.399490,1267.984146 940.640305Z" style="stroke:rgb(25.500488%,41.000366%,88.400269%); stroke-width: 2.500000;stroke-linecap: round;stroke-linejoin: round;stroke-miterlimit: 10.000000;fill: none;"></path>
  <path d="M845.187943 491.489883C845.187943 404.730698,810.717865 321.535324,749.374496 260.191971C688.031143 198.848602,604.835770 164.378525,518.076584 164.378525C431.317398 164.378525,348.122025 198.848602,286.778671 260.191971C225.435303 321.535324,190.965225 404.730698,190.965225 491.489883C190.965225 578.249069,225.435303 661.444443,286.778671 722.787796C348.122025 784.131165,431.317398 818.601242,518.076584 818.601242C604.835770 818.601242,688.031143 784.131165,749.374496 722.787796C810.717865 661.444443,845.187943 578.249069,845.187943 491.489883Z" style="stroke:rgb(25.500488%,41.000366%,88.400269%); stroke-width: 2.500000;stroke-linecap: round;stroke-linejoin: round;stroke-miterlimit: 10.000000;fill: none;"></path>
  <path d="M744.779846 1254.801636C744.779846 1168.042450,710.309769 1084.847076,648.966400 1023.503723C587.623047 962.160355,504.427673 927.690277,417.668488 927.690277C330.909302 927.690277,247.713928 962.160355,186.370575 1023.503723C125.027206 1084.847076,90.557129 1168.042450,90.557129 1254.801636C90.557129 1341.560822,125.027206 1424.756195,186.370575 1486.099548C247.713928 1547.442917,330.909302 1581.912994,417.668488 1581.912994C504.427673 1581.912994,587.623047 1547.442917,648.966400 1486.099548C710.309769 1424.756195,744.779846 1341.560822,744.779846 1254.801636Z" style="stroke:rgb(25.500488%,41.000366%,88.400269%); stroke-width: 2.500000;stroke-linecap: round;stroke-linejoin: round;stroke-miterlimit: 10.000000;fill: none;"></path>
  <path d="M654.921219 846.798050C654.921219 760.038864,620.451141 676.843491,559.107773 615.500137C497.764420 554.156769,414.569046 519.686691,327.809860 519.686691C241.050674 519.686691,157.855301 554.156769,96.511948 615.500137C35.168579 676.843491,0.698502 760.038864,0.698502 846.798050C0.698502 933.557236,35.168579 1016.752609,96.511948 1078.095963C157.855301 1139.439331,241.050674 1173.909409,327.809860 1173.909409C414.569046 1173.909409,497.764420 1139.439331,559.107773 1078.095963C620.451141 1016.752609,654.921219 933.557236,654.921219 846.798050Z" style="stroke:rgb(25.500488%,41.000366%,88.400269%); stroke-width: 2.500000;stroke-linecap: round;stroke-linejoin: round;stroke-miterlimit: 10.000000;fill: none;"></path>
</svg>
